<?xml version="1.0" encoding="UTF-8" standalone="no"?>
<!DOCTYPE svg PUBLIC "-//W3C//DTD SVG 1.1//EN"
 "http://www.w3.org/Graphics/SVG/1.1/DTD/svg11.dtd">
<!-- Generated by graphviz version 2.43.0 (0)
 -->
<!-- Title: fl::XYPathFunction Pages: 1 -->
<!--zoomable 193 -->

<svg id="main" version="1.1" xmlns="http://www.w3.org/2000/svg" xmlns:xlink="http://www.w3.org/1999/xlink" xml:space="preserve" onload="init(evt)">

<style type="text/css"><![CDATA[
.node, .edge {opacity: 0.7;}
.node.selected, .edge.selected {opacity: 1;}
.edge:hover path { stroke: red; }
.edge:hover polygon { stroke: red; fill: red; }
]]></style>

<defs>
  <circle id="rim" cx="0" cy="0" r="7"/>
  <circle id="rim2" cx="0" cy="0" r="3.5"/>
  <g id="zoomPlus">
    <use xlink:href="#rim" fill="#404040"><set attributeName="fill" to="#808080" begin="zoomplus.mouseover" end="zoomplus.mouseout"/></use>
    <path d="M-4,0h8M0,-4v8" fill="none" stroke="white" stroke-width="1.5" pointer-events="none"/>
  </g>
  <g id="zoomMin">
    <use xlink:href="#rim" fill="#404040"><set attributeName="fill" to="#808080" begin="zoomminus.mouseover" end="zoomminus.mouseout"/></use>
    <path d="M-4,0h8" fill="none" stroke="white" stroke-width="1.5" pointer-events="none"/>
  </g>
  <g id="arrowUp" transform="translate(30 24)">
    <use xlink:href="#rim"/>
    <path pointer-events="none" fill="none" stroke="white" stroke-width="1.5" d="M0,-3.0v7 M-2.5,-0.5L0,-3.0L2.5,-0.5"/>
  </g>
  <g id="arrowRight" transform="rotate(90) translate(36 -43)">
    <use xlink:href="#rim"/>
    <path pointer-events="none" fill="none" stroke="white" stroke-width="1.5" d="M0,-3.0v7 M-2.5,-0.5L0,-3.0L2.5,-0.5"/>
  </g>
  <g id="arrowDown" transform="rotate(180) translate(-30 -48)">
    <use xlink:href="#rim"/>
    <path pointer-events="none" fill="none" stroke="white" stroke-width="1.5" d="M0,-3.0v7 M-2.5,-0.5L0,-3.0L2.5,-0.5"/>
  </g>
  <g id="arrowLeft" transform="rotate(270) translate(-36 17)">
    <use xlink:href="#rim"/>
    <path pointer-events="none" fill="none" stroke="white" stroke-width="1.5" d="M0,-3.0v7 M-2.5,-0.5L0,-3.0L2.5,-0.5"/>
  </g>
  <g id="resetDef">
    <use xlink:href="#rim2" fill="#404040"><set attributeName="fill" to="#808080" begin="reset.mouseover" end="reset.mouseout"/></use>
  </g>
</defs>
<script type="application/ecmascript">
var viewWidth = 976;
var viewHeight = 193;
var sectionId = 'dynsection-1';
</script>
<script type="application/ecmascript" xlink:href="../../svg.min.js"/>
<svg id="graph" class="graph">
<g id="viewport">
<title>fl::XYPathFunction</title>
<!-- Node1 -->
<g id="Node000001" class="node">
<title>Node1</title>
<g id="a_Node000001"><a xlink:title=" ">
<polygon fill="#999999" stroke="#666666" points="968,-122 864,-122 864,-103 968,-103 968,-122"/>
<text text-anchor="middle" x="916" y="-110" font-family="Helvetica,sans-Serif" font-size="10.00">fl::XYPathFunction</text>
</a>
</g>
</g>
<!-- Node2 -->
<g id="Node000002" class="node">
<title>Node2</title>
<g id="a_Node000002"><a xlink:href="../../d9/d43/classfl_1_1_x_y_path_generator.html" target="_top" xlink:title=" ">
<polygon fill="white" stroke="#666666" points="751,-185 640,-185 640,-166 751,-166 751,-185"/>
<text text-anchor="middle" x="695.5" y="-173" font-family="Helvetica,sans-Serif" font-size="10.00">fl::XYPathGenerator</text>
</a>
</g>
</g>
<!-- Node2&#45;&gt;Node1 -->
<g id="edge1_Node000001_Node000002" class="edge">
<title>Node2&#45;&gt;Node1</title>
<g id="a_edge1_Node000001_Node000002"><a xlink:title=" ">
<path fill="none" stroke="#63b8ff" d="M753.47,-163.7C781.58,-157.4 815.83,-148.99 846,-139.5 861.95,-134.48 879.5,-127.6 892.9,-122.04"/>
<polygon fill="#63b8ff" stroke="#63b8ff" points="752.42,-160.35 743.41,-165.93 753.93,-167.19 752.42,-160.35"/>
</a>
</g>
</g>
<!-- Node3 -->
<g id="Node000003" class="node">
<title>Node3</title>
<g id="a_Node000003"><a xlink:href="../../d4/d36/namespacefl.html#d4/d36/namespacefl" target="_top" xlink:title=" ">
<polygon fill="white" stroke="#666666" points="753,-147.5 638,-147.5 638,-117.5 753,-117.5 753,-147.5"/>
<text text-anchor="start" x="646" y="-135.5" font-family="Helvetica,sans-Serif" font-size="10.00">fl::function&lt; fl::vec2</text>
<text text-anchor="middle" x="695.5" y="-124.5" font-family="Helvetica,sans-Serif" font-size="10.00">&lt; float &gt;(float)&gt;</text>
</a>
</g>
</g>
<!-- Node3&#45;&gt;Node1 -->
<g id="edge2_Node000001_Node000003" class="edge">
<title>Node3&#45;&gt;Node1</title>
<g id="a_edge2_Node000001_Node000003"><a xlink:title=" ">
<path fill="none" stroke="#9a32cd" stroke-dasharray="5,2" d="M763.33,-126.38C795.69,-123.42 833.93,-119.92 863.91,-117.18"/>
<polygon fill="#9a32cd" stroke="#9a32cd" points="762.69,-122.93 753.05,-127.32 763.33,-129.9 762.69,-122.93"/>
</a>
</g>
<text text-anchor="middle" x="808.5" y="-127.5" font-family="Helvetica,sans-Serif" font-size="10.00" fill="grey"> mFunction</text>
</g>
<!-- Node4 -->
<g id="Node000004" class="node">
<title>Node4</title>
<g id="a_Node000004"><a xlink:href="../../d4/d36/namespacefl.html#d0/ddd/classfl_1_1function" target="_top" xlink:title=" ">
<polygon fill="white" stroke="#666666" points="494.5,-142 397.5,-142 397.5,-123 494.5,-123 494.5,-142"/>
<text text-anchor="middle" x="446" y="-130" font-family="Helvetica,sans-Serif" font-size="10.00">fl::function&lt; T &gt;</text>
</a>
</g>
</g>
<!-- Node4&#45;&gt;Node3 -->
<g id="edge3_Node000003_Node000004" class="edge">
<title>Node4&#45;&gt;Node3</title>
<g id="a_edge3_Node000003_Node000004"><a xlink:title=" ">
<path fill="none" stroke="orange" stroke-dasharray="5,2" d="M504.87,-132.5C544.94,-132.5 598.01,-132.5 637.82,-132.5"/>
<polygon fill="orange" stroke="orange" points="504.72,-129 494.72,-132.5 504.72,-136 504.72,-129"/>
</a>
</g>
<text text-anchor="start" x="526" y="-146.5" font-family="Helvetica,sans-Serif" font-size="10.00" fill="grey"> &lt; fl::vec2&lt; float &gt;</text>
<text text-anchor="middle" x="573" y="-135.5" font-family="Helvetica,sans-Serif" font-size="10.00" fill="grey">(float)&gt;</text>
</g>
<!-- Node5 -->
<g id="Node000005" class="node">
<title>Node5</title>
<g id="a_Node000005"><a xlink:href="../../d2/db2/classfl_1_1string.html" target="_top" xlink:title=" ">
<polygon fill="white" stroke="#666666" points="723.5,-99 667.5,-99 667.5,-80 723.5,-80 723.5,-99"/>
<text text-anchor="middle" x="695.5" y="-87" font-family="Helvetica,sans-Serif" font-size="10.00">fl::string</text>
</a>
</g>
</g>
<!-- Node5&#45;&gt;Node1 -->
<g id="edge4_Node000001_Node000005" class="edge">
<title>Node5&#45;&gt;Node1</title>
<g id="a_edge4_Node000001_Node000005"><a xlink:title=" ">
<path fill="none" stroke="#9a32cd" stroke-dasharray="5,2" d="M733.65,-92.6C763.92,-95.22 807.76,-99.22 846,-103.5 851.76,-104.15 857.79,-104.87 863.78,-105.61"/>
<polygon fill="#9a32cd" stroke="#9a32cd" points="733.8,-89.1 723.54,-91.73 733.2,-96.08 733.8,-89.1"/>
</a>
</g>
<text text-anchor="middle" x="808.5" y="-106.5" font-family="Helvetica,sans-Serif" font-size="10.00" fill="grey"> mName</text>
</g>
<!-- Node6 -->
<g id="Node000006" class="node">
<title>Node6</title>
<g id="a_Node000006"><a xlink:href="../../d6/d2d/classfl_1_1string__n.html" target="_top" xlink:title=" ">
<polygon fill="white" stroke="#666666" points="508,-104.5 384,-104.5 384,-74.5 508,-74.5 508,-104.5"/>
<text text-anchor="start" x="392" y="-92.5" font-family="Helvetica,sans-Serif" font-size="10.00">fl::string_n&lt; FASTLED</text>
<text text-anchor="middle" x="446" y="-81.5" font-family="Helvetica,sans-Serif" font-size="10.00">_STR_INLINED_SIZE &gt;</text>
</a>
</g>
</g>
<!-- Node6&#45;&gt;Node5 -->
<g id="edge5_Node000005_Node000006" class="edge">
<title>Node6&#45;&gt;Node5</title>
<g id="a_edge5_Node000005_Node000006"><a xlink:title=" ">
<path fill="none" stroke="#63b8ff" d="M518.26,-89.5C568.05,-89.5 631.76,-89.5 667.34,-89.5"/>
<polygon fill="#63b8ff" stroke="#63b8ff" points="518.18,-86 508.18,-89.5 518.18,-93 518.18,-86"/>
</a>
</g>
</g>
<!-- Node7 -->
<g id="Node000007" class="node">
<title>Node7</title>
<g id="a_Node000007"><a xlink:href="../../de/d66/classfl_1_1basic__string.html" target="_top" xlink:title="Concrete type&#45;erased string class.">
<polygon fill="white" stroke="#666666" points="87,-115 0,-115 0,-96 87,-96 87,-115"/>
<text text-anchor="middle" x="43.5" y="-103" font-family="Helvetica,sans-Serif" font-size="10.00">fl::basic_string</text>
</a>
</g>
</g>
<!-- Node7&#45;&gt;Node6 -->
<g id="edge6_Node000006_Node000007" class="edge">
<title>Node7&#45;&gt;Node6</title>
<g id="a_edge6_Node000006_Node000007"><a xlink:title=" ">
<path fill="none" stroke="#63b8ff" d="M97.34,-111C161.27,-116.57 272.01,-122.78 366,-110.5 375.99,-109.19 386.52,-107 396.51,-104.51"/>
<polygon fill="#63b8ff" stroke="#63b8ff" points="97.38,-107.49 87.11,-110.07 96.76,-114.46 97.38,-107.49"/>
</a>
</g>
</g>
<!-- Node8 -->
<g id="Node000008" class="node">
<title>Node8</title>
<g id="a_Node000008"><a xlink:href="../../d6/d2d/classfl_1_1string__n.html" target="_top" xlink:title=" ">
<polygon fill="white" stroke="#666666" points="222,-96 124,-96 124,-77 222,-77 222,-96"/>
<text text-anchor="middle" x="173" y="-84" font-family="Helvetica,sans-Serif" font-size="10.00">fl::string_n&lt; N &gt;</text>
</a>
</g>
</g>
<!-- Node7&#45;&gt;Node8 -->
<g id="edge8_Node000008_Node000007" class="edge">
<title>Node7&#45;&gt;Node8</title>
<g id="a_edge8_Node000008_Node000007"><a xlink:title=" ">
<path fill="none" stroke="#63b8ff" d="M97.41,-97.62C106.16,-96.31 115.19,-94.97 123.81,-93.68"/>
<polygon fill="#63b8ff" stroke="#63b8ff" points="96.69,-94.18 87.31,-99.12 97.72,-101.11 96.69,-94.18"/>
</a>
</g>
</g>
<!-- Node8&#45;&gt;Node6 -->
<g id="edge7_Node000006_Node000008" class="edge">
<title>Node8&#45;&gt;Node6</title>
<g id="a_edge7_Node000006_Node000008"><a xlink:title=" ">
<path fill="none" stroke="orange" stroke-dasharray="5,2" d="M232.51,-87.08C270.55,-87.46 321.21,-87.98 366,-88.5 371.76,-88.57 377.76,-88.64 383.76,-88.71"/>
<polygon fill="orange" stroke="orange" points="232.17,-83.57 222.13,-86.97 232.1,-90.57 232.17,-83.57"/>
</a>
</g>
<text text-anchor="start" x="240" y="-102.5" font-family="Helvetica,sans-Serif" font-size="10.00" fill="grey"> &lt; FASTLED_STR_INLINED</text>
<text text-anchor="middle" x="303" y="-91.5" font-family="Helvetica,sans-Serif" font-size="10.00" fill="grey">_SIZE &gt;</text>
</g>
<!-- Node9 -->
<g id="Node000009" class="node">
<title>Node9</title>
<g id="a_Node000009"><a xlink:href="../../d2/d48/structfl_1_1rect.html" target="_top" xlink:title=" ">
<polygon fill="white" stroke="#666666" points="738,-56 653,-56 653,-37 738,-37 738,-56"/>
<text text-anchor="middle" x="695.5" y="-44" font-family="Helvetica,sans-Serif" font-size="10.00">fl::rect&lt; i16 &gt;</text>
</a>
</g>
</g>
<!-- Node9&#45;&gt;Node1 -->
<g id="edge9_Node000001_Node000009" class="edge">
<title>Node9&#45;&gt;Node1</title>
<g id="a_edge9_Node000001_Node000009"><a xlink:title=" ">
<path fill="none" stroke="#9a32cd" stroke-dasharray="5,2" d="M748.05,-55.44C777.21,-61.18 814.11,-69.62 846,-80.5 863.87,-86.6 883.31,-95.87 896.98,-102.87"/>
<polygon fill="#9a32cd" stroke="#9a32cd" points="748.56,-51.97 738.08,-53.52 747.23,-58.85 748.56,-51.97"/>
</a>
</g>
<text text-anchor="middle" x="808.5" y="-83.5" font-family="Helvetica,sans-Serif" font-size="10.00" fill="grey"> mDrawBounds</text>
</g>
<!-- Node10 -->
<g id="Node000010" class="node">
<title>Node10</title>
<g id="a_Node000010"><a xlink:href="../../d5/d5d/structfl_1_1vec2.html" target="_top" xlink:title=" ">
<polygon fill="white" stroke="#666666" points="490.5,-56 401.5,-56 401.5,-37 490.5,-37 490.5,-56"/>
<text text-anchor="middle" x="446" y="-44" font-family="Helvetica,sans-Serif" font-size="10.00">fl::vec2&lt; i16 &gt;</text>
</a>
</g>
</g>
<!-- Node10&#45;&gt;Node9 -->
<g id="edge10_Node000009_Node000010" class="edge">
<title>Node10&#45;&gt;Node9</title>
<g id="a_edge10_Node000009_Node000010"><a xlink:title=" ">
<path fill="none" stroke="#9a32cd" stroke-dasharray="5,2" d="M500.7,-46.5C546.39,-46.5 611.07,-46.5 652.91,-46.5"/>
<polygon fill="#9a32cd" stroke="#9a32cd" points="500.68,-43 490.68,-46.5 500.68,-50 500.68,-43"/>
</a>
</g>
<text text-anchor="middle" x="573" y="-60.5" font-family="Helvetica,sans-Serif" font-size="10.00" fill="grey"> mMax</text>
<text text-anchor="middle" x="573" y="-49.5" font-family="Helvetica,sans-Serif" font-size="10.00" fill="grey">mMin</text>
</g>
<!-- Node11 -->
<g id="Node000011" class="node">
<title>Node11</title>
<g id="a_Node000011"><a xlink:href="../../d5/d5d/structfl_1_1vec2.html" target="_top" xlink:title=" ">
<polygon fill="white" stroke="#666666" points="213,-56 133,-56 133,-37 213,-37 213,-56"/>
<text text-anchor="middle" x="173" y="-44" font-family="Helvetica,sans-Serif" font-size="10.00">fl::vec2&lt; T &gt;</text>
</a>
</g>
</g>
<!-- Node11&#45;&gt;Node10 -->
<g id="edge11_Node000010_Node000011" class="edge">
<title>Node11&#45;&gt;Node10</title>
<g id="a_edge11_Node000010_Node000011"><a xlink:title=" ">
<path fill="none" stroke="orange" stroke-dasharray="5,2" d="M223.21,-46.5C274.08,-46.5 352.72,-46.5 401.41,-46.5"/>
<polygon fill="orange" stroke="orange" points="223.12,-43 213.12,-46.5 223.12,-50 223.12,-43"/>
</a>
</g>
<text text-anchor="middle" x="303" y="-49.5" font-family="Helvetica,sans-Serif" font-size="10.00" fill="grey"> &lt; i16 &gt;</text>
</g>
<!-- Node12 -->
<g id="Node000012" class="node">
<title>Node12</title>
<g id="a_Node000012"><a xlink:href="../../d2/d48/structfl_1_1rect.html" target="_top" xlink:title=" ">
<polygon fill="white" stroke="#666666" points="484,-19 408,-19 408,0 484,0 484,-19"/>
<text text-anchor="middle" x="446" y="-7" font-family="Helvetica,sans-Serif" font-size="10.00">fl::rect&lt; T &gt;</text>
</a>
</g>
</g>
<!-- Node12&#45;&gt;Node9 -->
<g id="edge12_Node000009_Node000012" class="edge">
<title>Node12&#45;&gt;Node9</title>
<g id="a_edge12_Node000009_Node000012"><a xlink:title=" ">
<path fill="none" stroke="orange" stroke-dasharray="5,2" d="M494.59,-14.61C529.41,-18.59 577.76,-24.57 620,-31.5 630.68,-33.25 642.16,-35.42 652.83,-37.56"/>
<polygon fill="orange" stroke="orange" points="494.56,-11.09 484.23,-13.45 493.78,-18.05 494.56,-11.09"/>
</a>
</g>
<text text-anchor="middle" x="573" y="-34.5" font-family="Helvetica,sans-Serif" font-size="10.00" fill="grey"> &lt; i16 &gt;</text>
</g>
</g>
</svg>

<g id="navigator" transform="translate(0 0)" fill="#404254">
  <rect fill="#f2f5e9" fill-opacity="0.5" stroke="#606060" stroke-width=".5" x="0" y="0" width="60" height="60"/>
  <use id="zoomplus" xlink:href="#zoomPlus" x="17" y="9" onmousedown="handleZoom(evt,'in')"/>
  <use id="zoomminus" xlink:href="#zoomMin" x="42" y="9" onmousedown="handleZoom(evt,'out')"/>
  <use id="reset" xlink:href="#resetDef" x="30" y="36" onmousedown="handleReset()"/>
   <use id="arrowup" xlink:href="#arrowUp" x="0" y="0" onmousedown="handlePan(0,-1)"/>
  <use id="arrowright" xlink:href="#arrowRight" x="0" y="0" onmousedown="handlePan(1,0)"/>
  <use id="arrowdown" xlink:href="#arrowDown" x="0" y="0" onmousedown="handlePan(0,1)"/>
  <use id="arrowleft" xlink:href="#arrowLeft" x="0" y="0" onmousedown="handlePan(-1,0)"/>
</g>
<svg viewBox="0 0 15 15" width="100%" height="30px" preserveAspectRatio="xMaxYMin meet">
 <g id="arrow_out" transform="scale(0.3 0.3)">
  <a xlink:href="classfl_1_1_x_y_path_function__coll__graph_org.svg" target="_base">
   <rect id="button" ry="5" rx="5" y="6" x="6" height="38" width="38"
        fill="#f2f5e9" fill-opacity="0.5" stroke="#606060" stroke-width="1.0"/>
   <path id="arrow"
     d="M 11.500037,31.436501 C 11.940474,20.09759 22.043105,11.32322 32.158766,21.979434 L 37.068811,17.246167 C 37.068811,17.246167 37.088388,32 37.088388,32 L 22.160133,31.978069 C 22.160133,31.978069 26.997745,27.140456 26.997745,27.140456 C 18.528582,18.264221 13.291696,25.230495 11.500037,31.436501 z"
     style="fill:#404040;"/>
  </a>
 </g>
</svg>

<style type='text/css'>
<![CDATA[
[data-mouse-over-selected='false'] { opacity: 0.7; }
[data-mouse-over-selected='true']  { opacity: 1.0; }
]]>
</style>
<script type="application/ecmascript"><![CDATA[
document.addEventListener('DOMContentLoaded', (event) => {
  highlightEdges();
  highlightAdjacentNodes();
});
]]></script>
</svg>
