<?xml version="1.0" encoding="UTF-8" standalone="no"?>
<!DOCTYPE svg PUBLIC "-//W3C//DTD SVG 1.1//EN"
 "http://www.w3.org/Graphics/SVG/1.1/DTD/svg11.dtd">
<!-- Generated by graphviz version 2.43.0 (0)
 -->
<!-- Title: fl::string_view::starts_with Pages: 1 -->
<svg width="514pt" height="46pt"
 viewBox="0.00 0.00 514.00 46.00" xmlns="http://www.w3.org/2000/svg" xmlns:xlink="http://www.w3.org/1999/xlink">
<g id="graph0" class="graph" transform="scale(1 1) rotate(0) translate(4 42)">
<title>fl::string_view::starts_with</title>
<!-- Node1 -->
<g id="Node000001" class="node">
<title>Node1</title>
<g id="a_Node000001"><a xlink:title=" ">
<polygon fill="#999999" stroke="#666666" points="144,-38 0,-38 0,-19 144,-19 144,-38"/>
<text text-anchor="middle" x="72" y="-26" font-family="Helvetica,sans-Serif" font-size="10.00">fl::string_view::starts_with</text>
</a>
</g>
</g>
<!-- Node2 -->
<g id="Node000002" class="node">
<title>Node2</title>
<g id="a_Node000002"><a xlink:href="../../d0/ddb/classfl_1_1string__view_affa2db6e3c9e989f0bea8a01a6e5e1db.html#affa2db6e3c9e989f0bea8a01a6e5e1db" target="_top" xlink:title=" ">
<polygon fill="white" stroke="#666666" points="506,-38 360,-38 360,-19 506,-19 506,-38"/>
<text text-anchor="middle" x="433" y="-26" font-family="Helvetica,sans-Serif" font-size="10.00">fl::string_view::string_view</text>
</a>
</g>
</g>
<!-- Node1&#45;&gt;Node2 -->
<g id="edge1_Node000001_Node000002" class="edge">
<title>Node1&#45;&gt;Node2</title>
<g id="a_edge1_Node000001_Node000002"><a xlink:title=" ">
<path fill="none" stroke="#63b8ff" d="M144.36,-28.5C203.53,-28.5 287.71,-28.5 349.72,-28.5"/>
<polygon fill="#63b8ff" stroke="#63b8ff" points="349.86,-32 359.86,-28.5 349.86,-25 349.86,-32"/>
</a>
</g>
</g>
<!-- Node3 -->
<g id="Node000003" class="node">
<title>Node3</title>
<g id="a_Node000003"><a xlink:href="../../d0/ddb/classfl_1_1string__view_ad7b51d579c6cc9878c863c70f34ff1fa.html#ad7b51d579c6cc9878c863c70f34ff1fa" target="_top" xlink:title=" ">
<polygon fill="white" stroke="#666666" points="324,-19 180,-19 180,0 324,0 324,-19"/>
<text text-anchor="middle" x="252" y="-7" font-family="Helvetica,sans-Serif" font-size="10.00">fl::string_view::starts_with</text>
</a>
</g>
</g>
<!-- Node1&#45;&gt;Node3 -->
<g id="edge2_Node000001_Node000003" class="edge">
<title>Node1&#45;&gt;Node3</title>
<g id="a_edge2_Node000001_Node000003"><a xlink:title=" ">
<path fill="none" stroke="#63b8ff" d="M144.12,-20.91C152.61,-20 161.33,-19.07 169.94,-18.15"/>
<polygon fill="#63b8ff" stroke="#63b8ff" points="170.42,-21.62 180,-17.08 169.68,-14.66 170.42,-21.62"/>
</a>
</g>
</g>
<!-- Node3&#45;&gt;Node2 -->
<g id="edge3_Node000003_Node000002" class="edge">
<title>Node3&#45;&gt;Node2</title>
<g id="a_edge3_Node000003_Node000002"><a xlink:title=" ">
<path fill="none" stroke="#63b8ff" d="M324,-17.04C332.49,-17.94 341.21,-18.86 349.84,-19.78"/>
<polygon fill="#63b8ff" stroke="#63b8ff" points="349.6,-23.27 359.91,-20.85 350.34,-16.31 349.6,-23.27"/>
</a>
</g>
</g>
</g>
</svg>
