<?xml version="1.0" encoding="UTF-8" standalone="no"?>
<!DOCTYPE svg PUBLIC "-//W3C//DTD SVG 1.1//EN"
 "http://www.w3.org/Graphics/SVG/1.1/DTD/svg11.dtd">
<!-- Generated by graphviz version 2.43.0 (0)
 -->
<!-- Title: fl::MatrixSlice::getParentCoord Pages: 1 -->
<svg width="453pt" height="64pt"
 viewBox="0.00 0.00 453.00 64.00" xmlns="http://www.w3.org/2000/svg" xmlns:xlink="http://www.w3.org/1999/xlink">
<g id="graph0" class="graph" transform="scale(1 1) rotate(0) translate(4 60)">
<title>fl::MatrixSlice::getParentCoord</title>
<!-- Node1 -->
<g id="Node000001" class="node">
<title>Node1</title>
<g id="a_Node000001"><a xlink:title=" ">
<polygon fill="#999999" stroke="#666666" points="445,-42.5 309,-42.5 309,-12.5 445,-12.5 445,-42.5"/>
<text text-anchor="start" x="317" y="-30.5" font-family="Helvetica,sans-Serif" font-size="10.00">fl::MatrixSlice::getParent</text>
<text text-anchor="middle" x="377" y="-19.5" font-family="Helvetica,sans-Serif" font-size="10.00">Coord</text>
</a>
</g>
</g>
<!-- Node2 -->
<g id="Node000002" class="node">
<title>Node2</title>
<g id="a_Node000002"><a xlink:href="../../d6/da3/classfl_1_1_matrix_slice_a5cbdf82b3cc48595ffb9597c963a4b8a.html#a5cbdf82b3cc48595ffb9597c963a4b8a" target="_top" xlink:title=" ">
<polygon fill="white" stroke="#666666" points="273,-56 174,-56 174,-37 273,-37 273,-56"/>
<text text-anchor="middle" x="223.5" y="-44" font-family="Helvetica,sans-Serif" font-size="10.00">fl::MatrixSlice::at</text>
</a>
</g>
</g>
<!-- Node1&#45;&gt;Node2 -->
<g id="edge1_Node000001_Node000002" class="edge">
<title>Node1&#45;&gt;Node2</title>
<g id="a_edge1_Node000001_Node000002"><a xlink:title=" ">
<path fill="none" stroke="#63b8ff" d="M298.49,-37.22C289.81,-38.31 281.16,-39.39 273,-40.42"/>
<polygon fill="#63b8ff" stroke="#63b8ff" points="299.18,-40.66 308.67,-35.94 298.31,-33.72 299.18,-40.66"/>
</a>
</g>
</g>
<!-- Node3 -->
<g id="Node000003" class="node">
<title>Node3</title>
<g id="a_Node000003"><a xlink:href="../../d6/da3/classfl_1_1_matrix_slice_ae43e42ee0993c09fcac3d5f5882277d7.html#ae43e42ee0993c09fcac3d5f5882277d7" target="_top" xlink:title=" ">
<polygon fill="white" stroke="#666666" points="273,-19 174,-19 174,0 273,0 273,-19"/>
<text text-anchor="middle" x="223.5" y="-7" font-family="Helvetica,sans-Serif" font-size="10.00">fl::MatrixSlice::at</text>
</a>
</g>
</g>
<!-- Node1&#45;&gt;Node3 -->
<g id="edge2_Node000001_Node000003" class="edge">
<title>Node1&#45;&gt;Node3</title>
<g id="a_edge2_Node000001_Node000003"><a xlink:title=" ">
<path fill="none" stroke="#63b8ff" d="M298.49,-18.29C289.81,-17.26 281.16,-16.23 273,-15.26"/>
<polygon fill="#63b8ff" stroke="#63b8ff" points="298.32,-21.8 308.67,-19.5 299.15,-14.84 298.32,-21.8"/>
</a>
</g>
</g>
<!-- Node4 -->
<g id="Node000004" class="node">
<title>Node4</title>
<g id="a_Node000004"><a xlink:href="../../d6/da3/classfl_1_1_matrix_slice_a017c7722cb697eee45b5e9a0255203c1.html#a017c7722cb697eee45b5e9a0255203c1" target="_top" xlink:title=" ">
<polygon fill="white" stroke="#666666" points="138,-19 0,-19 0,0 138,0 138,-19"/>
<text text-anchor="middle" x="69" y="-7" font-family="Helvetica,sans-Serif" font-size="10.00">fl::MatrixSlice::operator()</text>
</a>
</g>
</g>
<!-- Node3&#45;&gt;Node4 -->
<g id="edge3_Node000003_Node000004" class="edge">
<title>Node3&#45;&gt;Node4</title>
<g id="a_edge3_Node000003_Node000004"><a xlink:title=" ">
<path fill="none" stroke="#63b8ff" d="M163.8,-9.5C155.43,-9.5 146.76,-9.5 138.22,-9.5"/>
<polygon fill="#63b8ff" stroke="#63b8ff" points="163.83,-13 173.83,-9.5 163.83,-6 163.83,-13"/>
</a>
</g>
</g>
</g>
</svg>
