<?xml version="1.0" encoding="UTF-8" standalone="no"?>
<!DOCTYPE svg PUBLIC "-//W3C//DTD SVG 1.1//EN"
 "http://www.w3.org/Graphics/SVG/1.1/DTD/svg11.dtd">
<!-- Generated by graphviz version 2.43.0 (0)
 -->
<!-- Title: fl::audio::fft::Context::computeLinearBins Pages: 1 -->
<svg width="592pt" height="252pt"
 viewBox="0.00 0.00 592.00 251.50" xmlns="http://www.w3.org/2000/svg" xmlns:xlink="http://www.w3.org/1999/xlink">
<g id="graph0" class="graph" transform="scale(1 1) rotate(0) translate(4 247.5)">
<title>fl::audio::fft::Context::computeLinearBins</title>
<!-- Node1 -->
<g id="Node000001" class="node">
<title>Node1</title>
<g id="a_Node000001"><a xlink:title=" ">
<polygon fill="#999999" stroke="#666666" points="116,-111 0,-111 0,-81 116,-81 116,-111"/>
<text text-anchor="start" x="8" y="-99" font-family="Helvetica,sans-Serif" font-size="10.00">fl::audio::fft::Context</text>
<text text-anchor="middle" x="58" y="-88" font-family="Helvetica,sans-Serif" font-size="10.00">::computeLinearBins</text>
</a>
</g>
</g>
<!-- Node2 -->
<g id="Node000002" class="node">
<title>Node2</title>
<g id="a_Node000002"><a xlink:href="../../d6/d86/classfl_1_1audio_1_1fft_1_1_bins_a0ce4493c5d044b8dd8008ca191231987.html#a0ce4493c5d044b8dd8008ca191231987" target="_top" xlink:title=" ">
<polygon fill="white" stroke="#666666" points="253.5,-154 154.5,-154 154.5,-124 253.5,-124 253.5,-154"/>
<text text-anchor="start" x="162.5" y="-142" font-family="Helvetica,sans-Serif" font-size="10.00">fl::audio::fft::Bins</text>
<text text-anchor="middle" x="204" y="-131" font-family="Helvetica,sans-Serif" font-size="10.00">::linear_mut</text>
</a>
</g>
</g>
<!-- Node1&#45;&gt;Node2 -->
<g id="edge1_Node000001_Node000002" class="edge">
<title>Node1&#45;&gt;Node2</title>
<g id="a_edge1_Node000001_Node000002"><a xlink:title=" ">
<path fill="none" stroke="#63b8ff" d="M109.36,-111.04C120.77,-114.45 132.97,-118.09 144.68,-121.58"/>
<polygon fill="#63b8ff" stroke="#63b8ff" points="143.78,-124.97 154.36,-124.48 145.78,-118.26 143.78,-124.97"/>
</a>
</g>
</g>
<!-- Node9 -->
<g id="Node000009" class="node">
<title>Node9</title>
<g id="a_Node000009"><a xlink:href="../../d2/d24/classfl_1_1vector_af937c1c325072247a23862ef0adbc51b.html#af937c1c325072247a23862ef0adbc51b" target="_top" xlink:title=" ">
<polygon fill="white" stroke="#666666" points="251.5,-105.5 156.5,-105.5 156.5,-86.5 251.5,-86.5 251.5,-105.5"/>
<text text-anchor="middle" x="204" y="-93.5" font-family="Helvetica,sans-Serif" font-size="10.00">fl::vector::resize</text>
</a>
</g>
</g>
<!-- Node1&#45;&gt;Node9 -->
<g id="edge8_Node000001_Node000009" class="edge">
<title>Node1&#45;&gt;Node9</title>
<g id="a_edge8_Node000001_Node000009"><a xlink:title=" ">
<path fill="none" stroke="#63b8ff" d="M116.33,-96C126.22,-96 136.5,-96 146.38,-96"/>
<polygon fill="#63b8ff" stroke="#63b8ff" points="146.49,-99.5 156.49,-96 146.49,-92.5 146.49,-99.5"/>
</a>
</g>
</g>
<!-- Node10 -->
<g id="Node000010" class="node">
<title>Node10</title>
<g id="a_Node000010"><a xlink:href="../../d6/d86/classfl_1_1audio_1_1fft_1_1_bins_af14e7d3b157a37f28c0e273fabcce204.html#af14e7d3b157a37f28c0e273fabcce204" target="_top" xlink:title=" ">
<polygon fill="white" stroke="#666666" points="256,-68 152,-68 152,-38 256,-38 256,-68"/>
<text text-anchor="start" x="160" y="-56" font-family="Helvetica,sans-Serif" font-size="10.00">fl::audio::fft::Bins</text>
<text text-anchor="middle" x="204" y="-45" font-family="Helvetica,sans-Serif" font-size="10.00">::setLinearParams</text>
</a>
</g>
</g>
<!-- Node1&#45;&gt;Node10 -->
<g id="edge9_Node000001_Node000010" class="edge">
<title>Node1&#45;&gt;Node10</title>
<g id="a_edge9_Node000001_Node000010"><a xlink:title=" ">
<path fill="none" stroke="#63b8ff" d="M109.36,-80.96C120.15,-77.74 131.66,-74.3 142.78,-70.98"/>
<polygon fill="#63b8ff" stroke="#63b8ff" points="143.84,-74.32 152.42,-68.1 141.84,-67.61 143.84,-74.32"/>
</a>
</g>
</g>
<!-- Node3 -->
<g id="Node000003" class="node">
<title>Node3</title>
<g id="a_Node000003"><a xlink:href="../../da/d27/classfl_1_1audio_1_1fft_1_1_float_vector_pool_ae9e0a949ca5ed56a4f007e4cb0b06a57.html#ae9e0a949ca5ed56a4f007e4cb0b06a57" target="_top" xlink:title=" ">
<polygon fill="white" stroke="#666666" points="426,-206 292,-206 292,-176 426,-176 426,-206"/>
<text text-anchor="start" x="300" y="-194" font-family="Helvetica,sans-Serif" font-size="10.00">fl::audio::fft::FloatVector</text>
<text text-anchor="middle" x="359" y="-183" font-family="Helvetica,sans-Serif" font-size="10.00">Pool::acquire</text>
</a>
</g>
</g>
<!-- Node2&#45;&gt;Node3 -->
<g id="edge2_Node000002_Node000003" class="edge">
<title>Node2&#45;&gt;Node3</title>
<g id="a_edge2_Node000002_Node000003"><a xlink:title=" ">
<path fill="none" stroke="#63b8ff" d="M249.25,-154.04C266.38,-159.86 286.15,-166.58 304.09,-172.68"/>
<polygon fill="#63b8ff" stroke="#63b8ff" points="303.25,-176.09 313.85,-175.99 305.5,-169.46 303.25,-176.09"/>
</a>
</g>
</g>
<!-- Node7 -->
<g id="Node000007" class="node">
<title>Node7</title>
<g id="a_Node000007"><a xlink:href="../../d6/d86/classfl_1_1audio_1_1fft_1_1_bins_a164813bb2bd2b0ed13e5e992915c617f.html#a164813bb2bd2b0ed13e5e992915c617f" target="_top" xlink:title=" ">
<polygon fill="white" stroke="#666666" points="408.5,-145 309.5,-145 309.5,-115 408.5,-115 408.5,-145"/>
<text text-anchor="start" x="317.5" y="-133" font-family="Helvetica,sans-Serif" font-size="10.00">fl::audio::fft::Bins</text>
<text text-anchor="middle" x="359" y="-122" font-family="Helvetica,sans-Serif" font-size="10.00">::pool</text>
</a>
</g>
</g>
<!-- Node2&#45;&gt;Node7 -->
<g id="edge6_Node000002_Node000007" class="edge">
<title>Node2&#45;&gt;Node7</title>
<g id="a_edge6_Node000002_Node000007"><a xlink:title=" ">
<path fill="none" stroke="#63b8ff" d="M253.83,-136.13C268.26,-135.28 284.2,-134.34 299.18,-133.46"/>
<polygon fill="#63b8ff" stroke="#63b8ff" points="299.59,-136.94 309.37,-132.86 299.18,-129.95 299.59,-136.94"/>
</a>
</g>
</g>
<!-- Node4 -->
<g id="Node000004" class="node">
<title>Node4</title>
<g id="a_Node000004"><a xlink:href="../../d2/d24/classfl_1_1vector_a51b9ac42dba7a7b4bd5a08a276634cef.html#a51b9ac42dba7a7b4bd5a08a276634cef" target="_top" xlink:title=" ">
<polygon fill="white" stroke="#666666" points="567.5,-243.5 478.5,-243.5 478.5,-224.5 567.5,-224.5 567.5,-243.5"/>
<text text-anchor="middle" x="523" y="-231.5" font-family="Helvetica,sans-Serif" font-size="10.00">fl::vector::clear</text>
</a>
</g>
</g>
<!-- Node3&#45;&gt;Node4 -->
<g id="edge3_Node000003_Node000004" class="edge">
<title>Node3&#45;&gt;Node4</title>
<g id="a_edge3_Node000003_Node000004"><a xlink:title=" ">
<path fill="none" stroke="#63b8ff" d="M416.66,-206.04C436.06,-211.19 457.51,-216.88 475.97,-221.78"/>
<polygon fill="#63b8ff" stroke="#63b8ff" points="475.32,-225.23 485.88,-224.41 477.12,-218.47 475.32,-225.23"/>
</a>
</g>
</g>
<!-- Node5 -->
<g id="Node000005" class="node">
<title>Node5</title>
<g id="a_Node000005"><a xlink:href="../../da/d3c/namespacefl_1_1fl_a14315b21314f12a4c40dde841fcc4c8a.html#a14315b21314f12a4c40dde841fcc4c8a" target="_top" xlink:title=" ">
<polygon fill="white" stroke="#666666" points="557,-206.5 489,-206.5 489,-187.5 557,-187.5 557,-206.5"/>
<text text-anchor="middle" x="523" y="-194.5" font-family="Helvetica,sans-Serif" font-size="10.00">fl::fl::move</text>
</a>
</g>
</g>
<!-- Node3&#45;&gt;Node5 -->
<g id="edge4_Node000003_Node000005" class="edge">
<title>Node3&#45;&gt;Node5</title>
<g id="a_edge4_Node000003_Node000005"><a xlink:title=" ">
<path fill="none" stroke="#63b8ff" d="M426.36,-193.46C443.99,-194.11 462.58,-194.8 478.64,-195.39"/>
<polygon fill="#63b8ff" stroke="#63b8ff" points="478.66,-198.9 488.78,-195.77 478.92,-191.9 478.66,-198.9"/>
</a>
</g>
</g>
<!-- Node6 -->
<g id="Node000006" class="node">
<title>Node6</title>
<g id="a_Node000006"><a xlink:href="../../d2/d24/classfl_1_1vector_a305fb6473faab9c2798479c057a58d50.html#a305fb6473faab9c2798479c057a58d50" target="_top" xlink:title=" ">
<polygon fill="white" stroke="#666666" points="574,-169.5 472,-169.5 472,-150.5 574,-150.5 574,-169.5"/>
<text text-anchor="middle" x="523" y="-157.5" font-family="Helvetica,sans-Serif" font-size="10.00">fl::vector::reserve</text>
</a>
</g>
</g>
<!-- Node3&#45;&gt;Node6 -->
<g id="edge5_Node000003_Node000006" class="edge">
<title>Node3&#45;&gt;Node6</title>
<g id="a_edge5_Node000003_Node000006"><a xlink:title=" ">
<path fill="none" stroke="#63b8ff" d="M426.36,-178.3C438.12,-176.05 450.3,-173.72 461.88,-171.5"/>
<polygon fill="#63b8ff" stroke="#63b8ff" points="462.7,-174.91 471.87,-169.59 461.39,-168.04 462.7,-174.91"/>
</a>
</g>
</g>
<!-- Node8 -->
<g id="Node000008" class="node">
<title>Node8</title>
<g id="a_Node000008"><a xlink:href="../../d9/d5b/classfl_1_1_singleton_a47fdc044003ec27f9e9833f7f5418e01.html#a47fdc044003ec27f9e9833f7f5418e01" target="_top" xlink:title=" ">
<polygon fill="white" stroke="#666666" points="584,-132.5 462,-132.5 462,-113.5 584,-113.5 584,-132.5"/>
<text text-anchor="middle" x="523" y="-120.5" font-family="Helvetica,sans-Serif" font-size="10.00">fl::Singleton::instance</text>
</a>
</g>
</g>
<!-- Node7&#45;&gt;Node8 -->
<g id="edge7_Node000007_Node000008" class="edge">
<title>Node7&#45;&gt;Node8</title>
<g id="a_edge7_Node000007_Node000008"><a xlink:title=" ">
<path fill="none" stroke="#63b8ff" d="M408.61,-127.9C422.24,-127.31 437.33,-126.66 451.94,-126.03"/>
<polygon fill="#63b8ff" stroke="#63b8ff" points="452.12,-129.52 461.96,-125.59 451.82,-122.53 452.12,-129.52"/>
</a>
</g>
</g>
<!-- Node11 -->
<g id="Node000011" class="node">
<title>Node11</title>
<g id="a_Node000011"><a xlink:href="../../d6/d86/classfl_1_1audio_1_1fft_1_1_bins_abd5930402850f738a9159323d5b1620f.html#abd5930402850f738a9159323d5b1620f" target="_top" xlink:title=" ">
<polygon fill="white" stroke="#666666" points="408.5,-78 309.5,-78 309.5,-48 408.5,-48 408.5,-78"/>
<text text-anchor="start" x="317.5" y="-66" font-family="Helvetica,sans-Serif" font-size="10.00">fl::audio::fft::Bins</text>
<text text-anchor="middle" x="359" y="-55" font-family="Helvetica,sans-Serif" font-size="10.00">::linearFmax</text>
</a>
</g>
</g>
<!-- Node10&#45;&gt;Node11 -->
<g id="edge10_Node000010_Node000011" class="edge">
<title>Node10&#45;&gt;Node11</title>
<g id="a_edge10_Node000010_Node000011"><a xlink:title=" ">
<path fill="none" stroke="#63b8ff" d="M256.37,-56.36C270.13,-57.26 285.12,-58.24 299.24,-59.16"/>
<polygon fill="#63b8ff" stroke="#63b8ff" points="299.14,-62.66 309.35,-59.82 299.6,-55.68 299.14,-62.66"/>
</a>
</g>
</g>
<!-- Node12 -->
<g id="Node000012" class="node">
<title>Node12</title>
<g id="a_Node000012"><a xlink:href="../../d6/d86/classfl_1_1audio_1_1fft_1_1_bins_a45b6e6c174c8b7b026270f0553b562bf.html#a45b6e6c174c8b7b026270f0553b562bf" target="_top" xlink:title=" ">
<polygon fill="white" stroke="#666666" points="408.5,-30 309.5,-30 309.5,0 408.5,0 408.5,-30"/>
<text text-anchor="start" x="317.5" y="-18" font-family="Helvetica,sans-Serif" font-size="10.00">fl::audio::fft::Bins</text>
<text text-anchor="middle" x="359" y="-7" font-family="Helvetica,sans-Serif" font-size="10.00">::linearFmin</text>
</a>
</g>
</g>
<!-- Node10&#45;&gt;Node12 -->
<g id="edge11_Node000010_Node000012" class="edge">
<title>Node10&#45;&gt;Node12</title>
<g id="a_edge11_Node000010_Node000012"><a xlink:title=" ">
<path fill="none" stroke="#63b8ff" d="M256.37,-40.24C270.13,-36.82 285.12,-33.1 299.24,-29.59"/>
<polygon fill="#63b8ff" stroke="#63b8ff" points="300.49,-32.89 309.35,-27.08 298.8,-26.1 300.49,-32.89"/>
</a>
</g>
</g>
</g>
</svg>
