<?xml version="1.0" encoding="UTF-8" standalone="no"?>
<!DOCTYPE svg PUBLIC "-//W3C//DTD SVG 1.1//EN"
 "http://www.w3.org/Graphics/SVG/1.1/DTD/svg11.dtd">
<!-- Generated by graphviz version 2.43.0 (0)
 -->
<!-- Title: fl::noiseSphereCRGB Pages: 1 -->
<!--zoomable 158 -->

<svg id="main" version="1.1" xmlns="http://www.w3.org/2000/svg" xmlns:xlink="http://www.w3.org/1999/xlink" xml:space="preserve" onload="init(evt)">

<style type="text/css"><![CDATA[
.node, .edge {opacity: 0.7;}
.node.selected, .edge.selected {opacity: 1;}
.edge:hover path { stroke: red; }
.edge:hover polygon { stroke: red; fill: red; }
]]></style>

<defs>
  <circle id="rim" cx="0" cy="0" r="7"/>
  <circle id="rim2" cx="0" cy="0" r="3.5"/>
  <g id="zoomPlus">
    <use xlink:href="#rim" fill="#404040"><set attributeName="fill" to="#808080" begin="zoomplus.mouseover" end="zoomplus.mouseout"/></use>
    <path d="M-4,0h8M0,-4v8" fill="none" stroke="white" stroke-width="1.5" pointer-events="none"/>
  </g>
  <g id="zoomMin">
    <use xlink:href="#rim" fill="#404040"><set attributeName="fill" to="#808080" begin="zoomminus.mouseover" end="zoomminus.mouseout"/></use>
    <path d="M-4,0h8" fill="none" stroke="white" stroke-width="1.5" pointer-events="none"/>
  </g>
  <g id="arrowUp" transform="translate(30 24)">
    <use xlink:href="#rim"/>
    <path pointer-events="none" fill="none" stroke="white" stroke-width="1.5" d="M0,-3.0v7 M-2.5,-0.5L0,-3.0L2.5,-0.5"/>
  </g>
  <g id="arrowRight" transform="rotate(90) translate(36 -43)">
    <use xlink:href="#rim"/>
    <path pointer-events="none" fill="none" stroke="white" stroke-width="1.5" d="M0,-3.0v7 M-2.5,-0.5L0,-3.0L2.5,-0.5"/>
  </g>
  <g id="arrowDown" transform="rotate(180) translate(-30 -48)">
    <use xlink:href="#rim"/>
    <path pointer-events="none" fill="none" stroke="white" stroke-width="1.5" d="M0,-3.0v7 M-2.5,-0.5L0,-3.0L2.5,-0.5"/>
  </g>
  <g id="arrowLeft" transform="rotate(270) translate(-36 17)">
    <use xlink:href="#rim"/>
    <path pointer-events="none" fill="none" stroke="white" stroke-width="1.5" d="M0,-3.0v7 M-2.5,-0.5L0,-3.0L2.5,-0.5"/>
  </g>
  <g id="resetDef">
    <use xlink:href="#rim2" fill="#404040"><set attributeName="fill" to="#808080" begin="reset.mouseover" end="reset.mouseout"/></use>
  </g>
</defs>
<script type="application/ecmascript">
var viewWidth = 667;
var viewHeight = 158;
var sectionId = 'dynsection-0';
</script>
<script type="application/ecmascript" xlink:href="../../svg.min.js"/>
<svg id="graph" class="graph">
<g id="viewport">
<title>fl::noiseSphereCRGB</title>
<!-- Node1 -->
<g id="Node000001" class="node">
<title>Node1</title>
<g id="a_Node000001"><a xlink:title="Generate CRGB noise for a sphere pattern.">
<polygon fill="#999999" stroke="#666666" points="116,-93 0,-93 0,-74 116,-74 116,-93"/>
<text text-anchor="middle" x="58" y="-81" font-family="Helvetica,sans-Serif" font-size="10.00">fl::noiseSphereCRGB</text>
</a>
</g>
</g>
<!-- Node2 -->
<g id="Node000002" class="node">
<title>Node2</title>
<g id="a_Node000002"><a xlink:href="../../d4/d36/namespacefl_ad87db990a26723fa560bc364734ea6cc.html#ad87db990a26723fa560bc364734ea6cc" target="_top" xlink:title=" ">
<polygon fill="white" stroke="#666666" points="205.5,-149 156.5,-149 156.5,-130 205.5,-130 205.5,-149"/>
<text text-anchor="middle" x="181" y="-137" font-family="Helvetica,sans-Serif" font-size="10.00">fl::cosf</text>
</a>
</g>
</g>
<!-- Node1&#45;&gt;Node2 -->
<g id="edge1_Node000001_Node000002" class="edge">
<title>Node1&#45;&gt;Node2</title>
<g id="a_edge1_Node000001_Node000002"><a xlink:title=" ">
<path fill="none" stroke="#63b8ff" d="M79.8,-93.13C99.22,-102.12 128.42,-115.63 150.3,-125.75"/>
<polygon fill="#63b8ff" stroke="#63b8ff" points="148.93,-128.98 159.47,-130 151.87,-122.62 148.93,-128.98"/>
</a>
</g>
</g>
<!-- Node7 -->
<g id="Node000007" class="node">
<title>Node7</title>
<g id="a_Node000007"><a xlink:href="../../d8/df9/group___noise_generation_gaa452e57f154ab8d6d692375dba1ef5cb.html#gaa452e57f154ab8d6d692375dba1ef5cb" target="_top" xlink:title=" ">
<polygon fill="white" stroke="#666666" points="210,-112 152,-112 152,-93 210,-93 210,-112"/>
<text text-anchor="middle" x="181" y="-100" font-family="Helvetica,sans-Serif" font-size="10.00">inoise16</text>
</a>
</g>
</g>
<!-- Node1&#45;&gt;Node7 -->
<g id="edge5_Node000001_Node000007" class="edge">
<title>Node1&#45;&gt;Node7</title>
<g id="a_edge5_Node000001_Node000007"><a xlink:title=" ">
<path fill="none" stroke="#63b8ff" d="M116.31,-92.5C124.99,-93.86 133.75,-95.24 141.88,-96.51"/>
<polygon fill="#63b8ff" stroke="#63b8ff" points="141.38,-99.98 151.8,-98.07 142.46,-93.06 141.38,-99.98"/>
</a>
</g>
</g>
<!-- Node10 -->
<g id="Node000010" class="node">
<title>Node10</title>
<g id="a_Node000010"><a xlink:href="../../d4/d36/namespacefl_a4ba2744fe96375793e6f7a98b188d343.html#a4ba2744fe96375793e6f7a98b188d343" target="_top" xlink:title=" ">
<polygon fill="white" stroke="#666666" points="204.5,-75 157.5,-75 157.5,-56 204.5,-56 204.5,-75"/>
<text text-anchor="middle" x="181" y="-63" font-family="Helvetica,sans-Serif" font-size="10.00">fl::sinf</text>
</a>
</g>
</g>
<!-- Node1&#45;&gt;Node10 -->
<g id="edge8_Node000001_Node000010" class="edge">
<title>Node1&#45;&gt;Node10</title>
<g id="a_edge8_Node000001_Node000010"><a xlink:title=" ">
<path fill="none" stroke="#63b8ff" d="M116.31,-74.97C126.87,-73.4 137.57,-71.81 147.1,-70.39"/>
<polygon fill="#63b8ff" stroke="#63b8ff" points="147.92,-73.81 157.29,-68.88 146.89,-66.89 147.92,-73.81"/>
</a>
</g>
</g>
<!-- Node12 -->
<g id="Node000012" class="node">
<title>Node12</title>
<g id="a_Node000012"><a xlink:href="../../d4/d36/namespacefl_a2bccb5decc8613e4b6e232e0a881578f.html#a2bccb5decc8613e4b6e232e0a881578f" target="_top" xlink:title="Alias for millis64() &#45; returns 64&#45;bit millisecond time.">
<polygon fill="white" stroke="#666666" points="206.5,-20 155.5,-20 155.5,-1 206.5,-1 206.5,-20"/>
<text text-anchor="middle" x="181" y="-8" font-family="Helvetica,sans-Serif" font-size="10.00">fl::time</text>
</a>
</g>
</g>
<!-- Node1&#45;&gt;Node12 -->
<g id="edge11_Node000001_Node000012" class="edge">
<title>Node1&#45;&gt;Node12</title>
<g id="a_edge11_Node000001_Node000012"><a xlink:title=" ">
<path fill="none" stroke="#63b8ff" d="M74.82,-73.96C95.38,-61.55 131.5,-39.76 155.59,-25.23"/>
<polygon fill="#63b8ff" stroke="#63b8ff" points="157.42,-28.21 164.18,-20.05 153.81,-22.21 157.42,-28.21"/>
</a>
</g>
</g>
<!-- Node3 -->
<g id="Node000003" class="node">
<title>Node3</title>
<g id="a_Node000003"><a xlink:href="../../d4/d36/namespacefl_a82dc97b9808ee5c39eb57f649d20a2fd.html#a82dc97b9808ee5c39eb57f649d20a2fd" target="_top" xlink:title=" ">
<polygon fill="white" stroke="#666666" points="345,-150 246,-150 246,-131 345,-131 345,-150"/>
<text text-anchor="middle" x="295.5" y="-138" font-family="Helvetica,sans-Serif" font-size="10.00">fl::cos_impl_float</text>
</a>
</g>
</g>
<!-- Node2&#45;&gt;Node3 -->
<g id="edge2_Node000002_Node000003" class="edge">
<title>Node2&#45;&gt;Node3</title>
<g id="a_edge2_Node000002_Node000003"><a xlink:title=" ">
<path fill="none" stroke="#63b8ff" d="M205.58,-139.71C214.47,-139.79 225.02,-139.88 235.7,-139.98"/>
<polygon fill="#63b8ff" stroke="#63b8ff" points="235.89,-143.48 245.92,-140.07 235.95,-136.48 235.89,-143.48"/>
</a>
</g>
</g>
<!-- Node4 -->
<g id="Node000004" class="node">
<title>Node4</title>
<g id="a_Node000004"><a xlink:href="../../df/d9e/namespacefl_1_1detail_ab42e702a90f152dbad7d35ea9eab976a.html#ab42e702a90f152dbad7d35ea9eab976a" target="_top" xlink:title=" ">
<polygon fill="white" stroke="#666666" points="503,-150 381,-150 381,-131 503,-131 503,-150"/>
<text text-anchor="middle" x="442" y="-138" font-family="Helvetica,sans-Serif" font-size="10.00">fl::detail::cos_reduce_</text>
</a>
</g>
</g>
<!-- Node3&#45;&gt;Node4 -->
<g id="edge3_Node000003_Node000004" class="edge">
<title>Node3&#45;&gt;Node4</title>
<g id="a_edge3_Node000003_Node000004"><a xlink:title=" ">
<path fill="none" stroke="#63b8ff" d="M345.02,-140.5C353.27,-140.5 361.98,-140.5 370.66,-140.5"/>
<polygon fill="#63b8ff" stroke="#63b8ff" points="370.8,-144 380.8,-140.5 370.8,-137 370.8,-144"/>
</a>
</g>
</g>
<!-- Node5 -->
<g id="Node000005" class="node">
<title>Node5</title>
<g id="a_Node000005"><a xlink:href="../../df/d9e/namespacefl_1_1detail_a525aa6aacdb5d3d48ebe21adb14da430.html#a525aa6aacdb5d3d48ebe21adb14da430" target="_top" xlink:title=" ">
<polygon fill="#fff0f0" stroke="red" points="659,-112 539,-112 539,-93 659,-93 659,-112"/>
<text text-anchor="middle" x="599" y="-100" font-family="Helvetica,sans-Serif" font-size="10.00">fl::detail::sin_reduce_</text>
</a>
</g>
</g>
<!-- Node4&#45;&gt;Node5 -->
<g id="edge4_Node000004_Node000005" class="edge">
<title>Node4&#45;&gt;Node5</title>
<g id="a_edge4_Node000004_Node000005"><a xlink:title=" ">
<path fill="none" stroke="#63b8ff" d="M482.11,-130.91C502.47,-125.92 527.57,-119.77 549.19,-114.47"/>
<polygon fill="#63b8ff" stroke="#63b8ff" points="550.29,-117.8 559.17,-112.02 548.62,-111 550.29,-117.8"/>
</a>
</g>
</g>
<!-- Node8 -->
<g id="Node000008" class="node">
<title>Node8</title>
<g id="a_Node000008"><a xlink:href="../../d8/df9/group___noise_generation_gae021f30d62fea75ea1397e1a81b28a59.html#gae021f30d62fea75ea1397e1a81b28a59" target="_top" xlink:title=" ">
<polygon fill="white" stroke="#666666" points="336,-113 255,-113 255,-94 336,-94 336,-113"/>
<text text-anchor="middle" x="295.5" y="-101" font-family="Helvetica,sans-Serif" font-size="10.00">inoise16_raw</text>
</a>
</g>
</g>
<!-- Node7&#45;&gt;Node8 -->
<g id="edge6_Node000007_Node000008" class="edge">
<title>Node7&#45;&gt;Node8</title>
<g id="a_edge6_Node000007_Node000008"><a xlink:title=" ">
<path fill="none" stroke="#63b8ff" d="M210.1,-102.75C220.57,-102.84 232.79,-102.95 244.63,-103.06"/>
<polygon fill="#63b8ff" stroke="#63b8ff" points="244.86,-106.56 254.89,-103.15 244.92,-99.56 244.86,-106.56"/>
</a>
</g>
</g>
<!-- Node9 -->
<g id="Node000009" class="node">
<title>Node9</title>
<g id="a_Node000009"><a xlink:href="../../da/dca/noise_8cpp_8hpp_aa1191276c67b1c0264857c9d802c665b.html#aa1191276c67b1c0264857c9d802c665b" target="_top" xlink:title=" ">
<polygon fill="white" stroke="#666666" points="467,-113 417,-113 417,-94 467,-94 467,-113"/>
<text text-anchor="middle" x="442" y="-101" font-family="Helvetica,sans-Serif" font-size="10.00">grad16</text>
</a>
</g>
</g>
<!-- Node8&#45;&gt;Node9 -->
<g id="edge7_Node000008_Node000009" class="edge">
<title>Node8&#45;&gt;Node9</title>
<g id="a_edge7_Node000008_Node000009"><a xlink:title=" ">
<path fill="none" stroke="#63b8ff" d="M336.37,-103.5C358.38,-103.5 385.44,-103.5 406.53,-103.5"/>
<polygon fill="#63b8ff" stroke="#63b8ff" points="406.66,-107 416.66,-103.5 406.66,-100 406.66,-107"/>
</a>
</g>
</g>
<!-- Node11 -->
<g id="Node000011" class="node">
<title>Node11</title>
<g id="a_Node000011"><a xlink:href="../../d4/d36/namespacefl_abb4917bf7e0fc28049964497cb88305f.html#abb4917bf7e0fc28049964497cb88305f" target="_top" xlink:title=" ">
<polygon fill="white" stroke="#666666" points="490.5,-75 393.5,-75 393.5,-56 490.5,-56 490.5,-75"/>
<text text-anchor="middle" x="442" y="-63" font-family="Helvetica,sans-Serif" font-size="10.00">fl::sin_impl_float</text>
</a>
</g>
</g>
<!-- Node10&#45;&gt;Node11 -->
<g id="edge9_Node000010_Node000011" class="edge">
<title>Node10&#45;&gt;Node11</title>
<g id="a_edge9_Node000010_Node000011"><a xlink:title=" ">
<path fill="none" stroke="#63b8ff" d="M204.53,-65.5C243.92,-65.5 326.48,-65.5 382.84,-65.5"/>
<polygon fill="#63b8ff" stroke="#63b8ff" points="383.04,-69 393.04,-65.5 383.04,-62 383.04,-69"/>
</a>
</g>
</g>
<!-- Node11&#45;&gt;Node5 -->
<g id="edge10_Node000011_Node000005" class="edge">
<title>Node11&#45;&gt;Node5</title>
<g id="a_edge10_Node000011_Node000005"><a xlink:title=" ">
<path fill="none" stroke="#63b8ff" d="M482.92,-75.03C502.82,-79.78 527.08,-85.57 548.19,-90.61"/>
<polygon fill="#63b8ff" stroke="#63b8ff" points="547.41,-94.02 557.95,-92.94 549.04,-87.21 547.41,-94.02"/>
</a>
</g>
</g>
<!-- Node12&#45;&gt;Node12 -->
<g id="edge16_Node000012_Node000012" class="edge">
<title>Node12&#45;&gt;Node12</title>
<g id="a_edge16_Node000012_Node000012"><a xlink:title=" ">
<path fill="none" stroke="#63b8ff" d="M163.43,-20.08C154.88,-28.73 160.74,-38 181,-38 193.66,-38 200.7,-34.38 202.11,-29.55"/>
<polygon fill="#63b8ff" stroke="#63b8ff" points="205.35,-28.22 198.57,-20.08 198.79,-30.68 205.35,-28.22"/>
</a>
</g>
</g>
<!-- Node13 -->
<g id="Node000013" class="node">
<title>Node13</title>
<g id="a_Node000013"><a xlink:href="../../d4/d36/namespacefl_ac8ee0e5ecac16a6ee42def0436a43663.html#ac8ee0e5ecac16a6ee42def0436a43663" target="_top" xlink:title="64&#45;bit millisecond timer &#45; returns milliseconds since system startup without wraparound">
<polygon fill="white" stroke="#666666" points="329.5,-19 261.5,-19 261.5,0 329.5,0 329.5,-19"/>
<text text-anchor="middle" x="295.5" y="-7" font-family="Helvetica,sans-Serif" font-size="10.00">fl::millis64</text>
</a>
</g>
</g>
<!-- Node12&#45;&gt;Node13 -->
<g id="edge12_Node000012_Node000013" class="edge">
<title>Node12&#45;&gt;Node13</title>
<g id="a_edge12_Node000012_Node000013"><a xlink:title=" ">
<path fill="none" stroke="#63b8ff" d="M206.69,-10.28C219.72,-10.16 236.1,-10.02 251.17,-9.89"/>
<polygon fill="#63b8ff" stroke="#63b8ff" points="251.36,-13.38 261.33,-9.79 251.3,-6.38 251.36,-13.38"/>
</a>
</g>
</g>
<!-- Node13&#45;&gt;Node13 -->
<g id="edge15_Node000013_Node000013" class="edge">
<title>Node13&#45;&gt;Node13</title>
<g id="a_edge15_Node000013_Node000013"><a xlink:title=" ">
<path fill="none" stroke="#63b8ff" d="M277.93,-19.08C269.38,-27.73 275.24,-37 295.5,-37 308.16,-37 315.2,-33.38 316.61,-28.55"/>
<polygon fill="#63b8ff" stroke="#63b8ff" points="319.85,-27.22 313.07,-19.08 313.29,-29.68 319.85,-27.22"/>
</a>
</g>
</g>
<!-- Node14 -->
<g id="Node000014" class="node">
<title>Node14</title>
<g id="a_Node000014"><a xlink:href="../../d4/d36/namespacefl_a335fa6e4af7f0a011997ea0137d49b5a.html#a335fa6e4af7f0a011997ea0137d49b5a" target="_top" xlink:title="Universal millisecond timer &#45; returns milliseconds since system startup.">
<polygon fill="white" stroke="#666666" points="470,-19 414,-19 414,0 470,0 470,-19"/>
<text text-anchor="middle" x="442" y="-7" font-family="Helvetica,sans-Serif" font-size="10.00">fl::millis</text>
</a>
</g>
</g>
<!-- Node13&#45;&gt;Node14 -->
<g id="edge13_Node000013_Node000014" class="edge">
<title>Node13&#45;&gt;Node14</title>
<g id="a_edge13_Node000013_Node000014"><a xlink:title=" ">
<path fill="none" stroke="#63b8ff" d="M329.65,-9.5C351.76,-9.5 380.86,-9.5 403.77,-9.5"/>
<polygon fill="#63b8ff" stroke="#63b8ff" points="403.81,-13 413.81,-9.5 403.81,-6 403.81,-13"/>
</a>
</g>
</g>
<!-- Node14&#45;&gt;Node14 -->
<g id="edge14_Node000014_Node000014" class="edge">
<title>Node14&#45;&gt;Node14</title>
<g id="a_edge14_Node000014_Node000014"><a xlink:title=" ">
<path fill="none" stroke="#63b8ff" d="M419.5,-19.08C408.55,-27.73 416.05,-37 442,-37 458.62,-37 467.68,-33.2 469.16,-28.19"/>
<polygon fill="#63b8ff" stroke="#63b8ff" points="472.17,-26.39 464.5,-19.08 465.94,-29.58 472.17,-26.39"/>
</a>
</g>
</g>
</g>
</svg>

<g id="navigator" transform="translate(0 0)" fill="#404254">
  <rect fill="#f2f5e9" fill-opacity="0.5" stroke="#606060" stroke-width=".5" x="0" y="0" width="60" height="60"/>
  <use id="zoomplus" xlink:href="#zoomPlus" x="17" y="9" onmousedown="handleZoom(evt,'in')"/>
  <use id="zoomminus" xlink:href="#zoomMin" x="42" y="9" onmousedown="handleZoom(evt,'out')"/>
  <use id="reset" xlink:href="#resetDef" x="30" y="36" onmousedown="handleReset()"/>
   <use id="arrowup" xlink:href="#arrowUp" x="0" y="0" onmousedown="handlePan(0,-1)"/>
  <use id="arrowright" xlink:href="#arrowRight" x="0" y="0" onmousedown="handlePan(1,0)"/>
  <use id="arrowdown" xlink:href="#arrowDown" x="0" y="0" onmousedown="handlePan(0,1)"/>
  <use id="arrowleft" xlink:href="#arrowLeft" x="0" y="0" onmousedown="handlePan(-1,0)"/>
</g>
<svg viewBox="0 0 15 15" width="100%" height="30px" preserveAspectRatio="xMaxYMin meet">
 <g id="arrow_out" transform="scale(0.3 0.3)">
  <a xlink:href="group___sphere_noise_gafd111e502417a887a610fe278551d6a9_gafd111e502417a887a610fe278551d6a9_cgraph_org.svg" target="_base">
   <rect id="button" ry="5" rx="5" y="6" x="6" height="38" width="38"
        fill="#f2f5e9" fill-opacity="0.5" stroke="#606060" stroke-width="1.0"/>
   <path id="arrow"
     d="M 11.500037,31.436501 C 11.940474,20.09759 22.043105,11.32322 32.158766,21.979434 L 37.068811,17.246167 C 37.068811,17.246167 37.088388,32 37.088388,32 L 22.160133,31.978069 C 22.160133,31.978069 26.997745,27.140456 26.997745,27.140456 C 18.528582,18.264221 13.291696,25.230495 11.500037,31.436501 z"
     style="fill:#404040;"/>
  </a>
 </g>
</svg>

<style type='text/css'>
<![CDATA[
[data-mouse-over-selected='false'] { opacity: 0.7; }
[data-mouse-over-selected='true']  { opacity: 1.0; }
]]>
</style>
<script type="application/ecmascript"><![CDATA[
document.addEventListener('DOMContentLoaded', (event) => {
  highlightEdges();
  highlightAdjacentNodes();
});
]]></script>
</svg>
