<?xml version="1.0" encoding="UTF-8" standalone="no"?>
<!DOCTYPE svg PUBLIC "-//W3C//DTD SVG 1.1//EN"
 "http://www.w3.org/Graphics/SVG/1.1/DTD/svg11.dtd">
<!-- Generated by graphviz version 2.43.0 (0)
 -->
<!-- Title: fl::string::intern Pages: 1 -->
<svg width="421pt" height="175pt"
 viewBox="0.00 0.00 421.00 175.00" xmlns="http://www.w3.org/2000/svg" xmlns:xlink="http://www.w3.org/1999/xlink">
<g id="graph0" class="graph" transform="scale(1 1) rotate(0) translate(4 171)">
<title>fl::string::intern</title>
<!-- Node1 -->
<g id="Node000001" class="node">
<title>Node1</title>
<g id="a_Node000001"><a xlink:title=" ">
<polygon fill="#999999" stroke="#666666" points="91,-93 0,-93 0,-74 91,-74 91,-93"/>
<text text-anchor="middle" x="45.5" y="-81" font-family="Helvetica,sans-Serif" font-size="10.00">fl::string::intern</text>
</a>
</g>
</g>
<!-- Node2 -->
<g id="Node000002" class="node">
<title>Node2</title>
<g id="a_Node000002"><a xlink:href="../../d4/d36/namespacefl_a26e3166a54288a78c47c7d9364239de5.html#a26e3166a54288a78c47c7d9364239de5" target="_top" xlink:title=" ">
<polygon fill="white" stroke="#666666" points="242,-151 140,-151 140,-132 242,-132 242,-151"/>
<text text-anchor="middle" x="191" y="-139" font-family="Helvetica,sans-Serif" font-size="10.00">fl::global_interner</text>
</a>
</g>
</g>
<!-- Node1&#45;&gt;Node2 -->
<g id="edge1_Node000001_Node000002" class="edge">
<title>Node1&#45;&gt;Node2</title>
<g id="a_edge1_Node000001_Node000002"><a xlink:title=" ">
<path fill="none" stroke="#63b8ff" d="M70.2,-93.08C93.77,-102.61 130.16,-117.31 156.65,-128.02"/>
<polygon fill="#63b8ff" stroke="#63b8ff" points="155.69,-131.41 166.27,-131.91 158.31,-124.92 155.69,-131.41"/>
</a>
</g>
</g>
<!-- Node4 -->
<g id="Node000004" class="node">
<title>Node4</title>
<g id="a_Node000004"><a xlink:href="../../d1/de7/classfl_1_1_string_interner_acb9a905c207ff32fc661a39fc92f413c.html#acb9a905c207ff32fc661a39fc92f413c" target="_top" xlink:title=" ">
<polygon fill="white" stroke="#666666" points="238.5,-98.5 143.5,-98.5 143.5,-68.5 238.5,-68.5 238.5,-98.5"/>
<text text-anchor="start" x="151.5" y="-86.5" font-family="Helvetica,sans-Serif" font-size="10.00">fl::StringInterner</text>
<text text-anchor="middle" x="191" y="-75.5" font-family="Helvetica,sans-Serif" font-size="10.00">::intern</text>
</a>
</g>
</g>
<!-- Node1&#45;&gt;Node4 -->
<g id="edge3_Node000001_Node000004" class="edge">
<title>Node1&#45;&gt;Node4</title>
<g id="a_edge3_Node000001_Node000004"><a xlink:title=" ">
<path fill="none" stroke="#63b8ff" d="M91.12,-83.5C104.49,-83.5 119.34,-83.5 133.38,-83.5"/>
<polygon fill="#63b8ff" stroke="#63b8ff" points="133.43,-87 143.43,-83.5 133.43,-80 133.43,-87"/>
</a>
</g>
</g>
<!-- Node9 -->
<g id="Node000009" class="node">
<title>Node9</title>
<g id="a_Node000009"><a xlink:href="../../de/d66/classfl_1_1basic__string_a200eb5a16645bf60a46bf1aec11a661a.html#a200eb5a16645bf60a46bf1aec11a661a" target="_top" xlink:title=" ">
<polygon fill="white" stroke="#666666" points="255,-50 127,-50 127,-31 255,-31 255,-50"/>
<text text-anchor="middle" x="191" y="-38" font-family="Helvetica,sans-Serif" font-size="10.00">fl::basic_string::isInline</text>
</a>
</g>
</g>
<!-- Node1&#45;&gt;Node9 -->
<g id="edge8_Node000001_Node000009" class="edge">
<title>Node1&#45;&gt;Node9</title>
<g id="a_edge8_Node000001_Node000009"><a xlink:title=" ">
<path fill="none" stroke="#63b8ff" d="M78.35,-73.96C99.06,-67.75 126.28,-59.59 148.66,-52.89"/>
<polygon fill="#63b8ff" stroke="#63b8ff" points="149.67,-56.24 158.24,-50.02 147.66,-49.53 149.67,-56.24"/>
</a>
</g>
</g>
<!-- Node3 -->
<g id="Node000003" class="node">
<title>Node3</title>
<g id="a_Node000003"><a xlink:href="../../d9/d5b/classfl_1_1_singleton_a47fdc044003ec27f9e9833f7f5418e01.html#a47fdc044003ec27f9e9833f7f5418e01" target="_top" xlink:title=" ">
<polygon fill="white" stroke="#666666" points="413,-167 291,-167 291,-148 413,-148 413,-167"/>
<text text-anchor="middle" x="352" y="-155" font-family="Helvetica,sans-Serif" font-size="10.00">fl::Singleton::instance</text>
</a>
</g>
</g>
<!-- Node2&#45;&gt;Node3 -->
<g id="edge2_Node000002_Node000003" class="edge">
<title>Node2&#45;&gt;Node3</title>
<g id="a_edge2_Node000002_Node000003"><a xlink:title=" ">
<path fill="none" stroke="#63b8ff" d="M242.31,-146.56C254.44,-147.78 267.63,-149.11 280.49,-150.41"/>
<polygon fill="#63b8ff" stroke="#63b8ff" points="280.42,-153.92 290.72,-151.43 281.12,-146.95 280.42,-153.92"/>
</a>
</g>
</g>
<!-- Node5 -->
<g id="Node000005" class="node">
<title>Node5</title>
<g id="a_Node000005"><a xlink:href="../../d0/ddb/classfl_1_1string__view_ad6d3ece082b4bf4f7c5b372b89dbc319.html#ad6d3ece082b4bf4f7c5b372b89dbc319" target="_top" xlink:title=" ">
<polygon fill="white" stroke="#666666" points="408,-130 296,-130 296,-111 408,-111 408,-130"/>
<text text-anchor="middle" x="352" y="-118" font-family="Helvetica,sans-Serif" font-size="10.00">fl::string_view::data</text>
</a>
</g>
</g>
<!-- Node4&#45;&gt;Node5 -->
<g id="edge4_Node000004_Node000005" class="edge">
<title>Node4&#45;&gt;Node5</title>
<g id="a_edge4_Node000004_Node000005"><a xlink:title=" ">
<path fill="none" stroke="#63b8ff" d="M238.85,-94.4C258.11,-98.88 280.48,-104.09 300.14,-108.67"/>
<polygon fill="#63b8ff" stroke="#63b8ff" points="299.62,-112.14 310.15,-110.99 301.2,-105.32 299.62,-112.14"/>
</a>
</g>
</g>
<!-- Node6 -->
<g id="Node000006" class="node">
<title>Node6</title>
<g id="a_Node000006"><a xlink:href="../../d0/ddb/classfl_1_1string__view_a046c8a6a9299f3ec395183dac2408d10.html#a046c8a6a9299f3ec395183dac2408d10" target="_top" xlink:title=" ">
<polygon fill="white" stroke="#666666" points="413,-93 291,-93 291,-74 413,-74 413,-93"/>
<text text-anchor="middle" x="352" y="-81" font-family="Helvetica,sans-Serif" font-size="10.00">fl::string_view::empty</text>
</a>
</g>
</g>
<!-- Node4&#45;&gt;Node6 -->
<g id="edge5_Node000004_Node000006" class="edge">
<title>Node4&#45;&gt;Node6</title>
<g id="a_edge5_Node000004_Node000006"><a xlink:title=" ">
<path fill="none" stroke="#63b8ff" d="M238.85,-83.5C251.97,-83.5 266.52,-83.5 280.69,-83.5"/>
<polygon fill="#63b8ff" stroke="#63b8ff" points="280.9,-87 290.9,-83.5 280.9,-80 280.9,-87"/>
</a>
</g>
</g>
<!-- Node7 -->
<g id="Node000007" class="node">
<title>Node7</title>
<g id="a_Node000007"><a xlink:href="../../d4/d36/namespacefl_a87ae8a24cc8b709a64f39370e71846af.html#a87ae8a24cc8b709a64f39370e71846af" target="_top" xlink:title=" ">
<polygon fill="white" stroke="#666666" points="399,-56 305,-56 305,-37 399,-37 399,-56"/>
<text text-anchor="middle" x="352" y="-44" font-family="Helvetica,sans-Serif" font-size="10.00">fl::make_shared</text>
</a>
</g>
</g>
<!-- Node4&#45;&gt;Node7 -->
<g id="edge6_Node000004_Node000007" class="edge">
<title>Node4&#45;&gt;Node7</title>
<g id="a_edge6_Node000004_Node000007"><a xlink:title=" ">
<path fill="none" stroke="#63b8ff" d="M238.85,-72.6C258.11,-68.12 280.48,-62.91 300.14,-58.33"/>
<polygon fill="#63b8ff" stroke="#63b8ff" points="301.2,-61.68 310.15,-56.01 299.62,-54.86 301.2,-61.68"/>
</a>
</g>
</g>
<!-- Node8 -->
<g id="Node000008" class="node">
<title>Node8</title>
<g id="a_Node000008"><a xlink:href="../../d0/ddb/classfl_1_1string__view_a62053f60d43376477b7857084f50b3c3.html#a62053f60d43376477b7857084f50b3c3" target="_top" xlink:title=" ">
<polygon fill="white" stroke="#666666" points="407,-19 297,-19 297,0 407,0 407,-19"/>
<text text-anchor="middle" x="352" y="-7" font-family="Helvetica,sans-Serif" font-size="10.00">fl::string_view::size</text>
</a>
</g>
</g>
<!-- Node4&#45;&gt;Node8 -->
<g id="edge7_Node000004_Node000008" class="edge">
<title>Node4&#45;&gt;Node8</title>
<g id="a_edge7_Node000004_Node000008"><a xlink:title=" ">
<path fill="none" stroke="#63b8ff" d="M237.68,-68.38C243.67,-65.74 249.6,-62.78 255,-59.5 273.3,-48.4 272.31,-37.93 291,-27.5 294.08,-25.78 297.35,-24.2 300.71,-22.77"/>
<polygon fill="#63b8ff" stroke="#63b8ff" points="302.24,-25.93 310.31,-19.07 299.72,-19.4 302.24,-25.93"/>
</a>
</g>
</g>
</g>
</svg>
