<?xml version="1.0" encoding="UTF-8" standalone="no"?>
<!DOCTYPE svg PUBLIC "-//W3C//DTD SVG 1.1//EN"
 "http://www.w3.org/Graphics/SVG/1.1/DTD/svg11.dtd">
<!-- Generated by graphviz version 2.43.0 (0)
 -->
<!-- Title: fl::string::append Pages: 1 -->
<svg width="516pt" height="113pt"
 viewBox="0.00 0.00 516.00 113.00" xmlns="http://www.w3.org/2000/svg" xmlns:xlink="http://www.w3.org/1999/xlink">
<g id="graph0" class="graph" transform="scale(1 1) rotate(0) translate(4 109)">
<title>fl::string::append</title>
<!-- Node1 -->
<g id="Node000001" class="node">
<title>Node1</title>
<g id="a_Node000001"><a xlink:title=" ">
<polygon fill="#999999" stroke="#666666" points="98,-80 0,-80 0,-61 98,-61 98,-80"/>
<text text-anchor="middle" x="49" y="-68" font-family="Helvetica,sans-Serif" font-size="10.00">fl::string::append</text>
</a>
</g>
</g>
<!-- Node2 -->
<g id="Node000002" class="node">
<title>Node2</title>
<g id="a_Node000002"><a xlink:href="../../d2/db2/classfl_1_1string_a8661adb941795b96329269cb197d642f.html#a8661adb941795b96329269cb197d642f" target="_top" xlink:title=" ">
<polygon fill="white" stroke="#666666" points="232,-99 134,-99 134,-80 232,-80 232,-99"/>
<text text-anchor="middle" x="183" y="-87" font-family="Helvetica,sans-Serif" font-size="10.00">fl::string::append</text>
</a>
</g>
</g>
<!-- Node1&#45;&gt;Node2 -->
<g id="edge1_Node000001_Node000002" class="edge">
<title>Node1&#45;&gt;Node2</title>
<g id="a_edge1_Node000001_Node000002"><a xlink:title=" ">
<path fill="none" stroke="#63b8ff" d="M98.03,-77.41C106.4,-78.62 115.19,-79.88 123.8,-81.12"/>
<polygon fill="#63b8ff" stroke="#63b8ff" points="123.39,-84.6 133.79,-82.56 124.39,-77.67 123.39,-84.6"/>
</a>
</g>
</g>
<!-- Node3 -->
<g id="Node000003" class="node">
<title>Node3</title>
<g id="a_Node000003"><a xlink:href="../../de/d40/classfl_1_1json_a86875510e8d574abfbc6301dc16823f9.html#a86875510e8d574abfbc6301dc16823f9" target="_top" xlink:title=" ">
<polygon fill="white" stroke="#666666" points="232,-62 134,-62 134,-43 232,-43 232,-62"/>
<text text-anchor="middle" x="183" y="-50" font-family="Helvetica,sans-Serif" font-size="10.00">fl::json::to_string</text>
</a>
</g>
</g>
<!-- Node1&#45;&gt;Node3 -->
<g id="edge2_Node000001_Node000003" class="edge">
<title>Node1&#45;&gt;Node3</title>
<g id="a_edge2_Node000001_Node000003"><a xlink:title=" ">
<path fill="none" stroke="#63b8ff" d="M98.03,-63.95C106.4,-62.81 115.19,-61.61 123.8,-60.44"/>
<polygon fill="#63b8ff" stroke="#63b8ff" points="124.35,-63.89 133.79,-59.07 123.4,-56.96 124.35,-63.89"/>
</a>
</g>
</g>
<!-- Node4 -->
<g id="Node000004" class="node">
<title>Node4</title>
<g id="a_Node000004"><a xlink:href="../../de/d40/classfl_1_1json_a43b8dab629d6fcbcb26ee79c94c91880.html#a43b8dab629d6fcbcb26ee79c94c91880" target="_top" xlink:title=" ">
<polygon fill="white" stroke="#666666" points="366,-67.5 268,-67.5 268,-37.5 366,-37.5 366,-67.5"/>
<text text-anchor="start" x="276" y="-55.5" font-family="Helvetica,sans-Serif" font-size="10.00">fl::json::to_string</text>
<text text-anchor="middle" x="317" y="-44.5" font-family="Helvetica,sans-Serif" font-size="10.00">_native</text>
</a>
</g>
</g>
<!-- Node3&#45;&gt;Node4 -->
<g id="edge3_Node000003_Node000004" class="edge">
<title>Node3&#45;&gt;Node4</title>
<g id="a_edge3_Node000003_Node000004"><a xlink:title=" ">
<path fill="none" stroke="#63b8ff" d="M232.03,-52.5C240.31,-52.5 249,-52.5 257.52,-52.5"/>
<polygon fill="#63b8ff" stroke="#63b8ff" points="257.79,-56 267.79,-52.5 257.79,-49 257.79,-56"/>
</a>
</g>
</g>
<!-- Node5 -->
<g id="Node000005" class="node">
<title>Node5</title>
<g id="a_Node000005"><a xlink:href="../../dc/dfe/classfl_1_1deque_a24e7e15fdd77fedd85177d84b3642aaf.html#a24e7e15fdd77fedd85177d84b3642aaf" target="_top" xlink:title=" ">
<polygon fill="white" stroke="#666666" points="503,-105 407,-105 407,-86 503,-86 503,-105"/>
<text text-anchor="middle" x="455" y="-93" font-family="Helvetica,sans-Serif" font-size="10.00">fl::deque::empty</text>
</a>
</g>
</g>
<!-- Node4&#45;&gt;Node5 -->
<g id="edge4_Node000004_Node000005" class="edge">
<title>Node4&#45;&gt;Node5</title>
<g id="a_edge4_Node000004_Node000005"><a xlink:title=" ">
<path fill="none" stroke="#63b8ff" d="M365.57,-67.54C381.4,-72.55 398.86,-78.07 414.06,-82.87"/>
<polygon fill="#63b8ff" stroke="#63b8ff" points="413.09,-86.24 423.68,-85.91 415.2,-79.56 413.09,-86.24"/>
</a>
</g>
</g>
<!-- Node6 -->
<g id="Node000006" class="node">
<title>Node6</title>
<g id="a_Node000006"><a xlink:href="../../d5/da0/structfl_1_1_serializer_visitor_af2688ec47073edf4484e7ec372b5c45d.html#af2688ec47073edf4484e7ec372b5c45d" target="_top" xlink:title=" ">
<polygon fill="#fff0f0" stroke="red" points="508,-67.5 402,-67.5 402,-37.5 508,-37.5 508,-67.5"/>
<text text-anchor="start" x="410" y="-55.5" font-family="Helvetica,sans-Serif" font-size="10.00">fl::SerializerVisitor</text>
<text text-anchor="middle" x="455" y="-44.5" font-family="Helvetica,sans-Serif" font-size="10.00">::serialize_value</text>
</a>
</g>
</g>
<!-- Node4&#45;&gt;Node6 -->
<g id="edge5_Node000004_Node000006" class="edge">
<title>Node4&#45;&gt;Node6</title>
<g id="a_edge5_Node000004_Node000006"><a xlink:title=" ">
<path fill="none" stroke="#63b8ff" d="M366.33,-52.5C374.47,-52.5 383.03,-52.5 391.47,-52.5"/>
<polygon fill="#63b8ff" stroke="#63b8ff" points="391.67,-56 401.67,-52.5 391.67,-49 391.67,-56"/>
</a>
</g>
</g>
<!-- Node8 -->
<g id="Node000008" class="node">
<title>Node8</title>
<g id="a_Node000008"><a xlink:href="../../dc/dfe/classfl_1_1deque_a01c135a1ed719aa6e55feb07cd6021cb.html#a01c135a1ed719aa6e55feb07cd6021cb" target="_top" xlink:title=" ">
<polygon fill="white" stroke="#666666" points="497,-19 413,-19 413,0 497,0 497,-19"/>
<text text-anchor="middle" x="455" y="-7" font-family="Helvetica,sans-Serif" font-size="10.00">fl::deque::size</text>
</a>
</g>
</g>
<!-- Node4&#45;&gt;Node8 -->
<g id="edge6_Node000004_Node000008" class="edge">
<title>Node4&#45;&gt;Node8</title>
<g id="a_edge6_Node000004_Node000008"><a xlink:title=" ">
<path fill="none" stroke="#63b8ff" d="M365.57,-37.46C381.4,-32.45 398.86,-26.93 414.06,-22.13"/>
<polygon fill="#63b8ff" stroke="#63b8ff" points="415.2,-25.44 423.68,-19.09 413.09,-18.76 415.2,-25.44"/>
</a>
</g>
</g>
</g>
</svg>
