<?xml version="1.0" encoding="UTF-8" standalone="no"?>
<!DOCTYPE svg PUBLIC "-//W3C//DTD SVG 1.1//EN"
 "http://www.w3.org/Graphics/SVG/1.1/DTD/svg11.dtd">
<!-- Generated by graphviz version 2.43.0 (0)
 -->
<!-- Title: fl::string::interned Pages: 1 -->
<svg width="415pt" height="234pt"
 viewBox="0.00 0.00 415.00 234.00" xmlns="http://www.w3.org/2000/svg" xmlns:xlink="http://www.w3.org/1999/xlink">

<svg id="main" version="1.1" xmlns="http://www.w3.org/2000/svg" xmlns:xlink="http://www.w3.org/1999/xlink" xml:space="preserve">

<style type="text/css"><![CDATA[
.node, .edge {opacity: 0.7;}
.node.selected, .edge.selected {opacity: 1;}
.edge:hover path { stroke: red; }
.edge:hover polygon { stroke: red; fill: red; }
]]></style>
<script type="application/ecmascript" xlink:href="../../svg.min.js"/>
<svg id="graph" class="graph">
<g id="graph0" class="graph" transform="scale(1 1) rotate(0) translate(4 230)">
<title>fl::string::interned</title>
<!-- Node1 -->
<g id="Node000001" class="node">
<title>Node1</title>
<g id="a_Node000001"><a xlink:title=" ">
<polygon fill="#999999" stroke="#666666" points="103,-167 0,-167 0,-148 103,-148 103,-167"/>
<text text-anchor="middle" x="51.5" y="-155" font-family="Helvetica,sans-Serif" font-size="10.00">fl::string::interned</text>
</a>
</g>
</g>
<!-- Node2 -->
<g id="Node000002" class="node">
<title>Node2</title>
<g id="a_Node000002"><a xlink:href="../../d2/db2/classfl_1_1string_a93792487d3abf491c0bae91ca96f6b41.html#a93792487d3abf491c0bae91ca96f6b41" target="_top" xlink:title=" ">
<polygon fill="white" stroke="#666666" points="235,-209 145,-209 145,-190 235,-190 235,-209"/>
<text text-anchor="middle" x="190" y="-197" font-family="Helvetica,sans-Serif" font-size="10.00">fl::string::string</text>
</a>
</g>
</g>
<!-- Node1&#45;&gt;Node2 -->
<g id="edge1_Node000001_Node000002" class="edge">
<title>Node1&#45;&gt;Node2</title>
<g id="a_edge1_Node000001_Node000002"><a xlink:title=" ">
<path fill="none" stroke="#63b8ff" d="M83.47,-167.03C102.54,-172.9 127.2,-180.48 147.88,-186.85"/>
<polygon fill="#63b8ff" stroke="#63b8ff" points="147.09,-190.27 157.68,-189.86 149.15,-183.58 147.09,-190.27"/>
</a>
</g>
</g>
<!-- Node4 -->
<g id="Node000004" class="node">
<title>Node4</title>
<g id="a_Node000004"><a xlink:href="../../d4/d36/namespacefl_a26e3166a54288a78c47c7d9364239de5.html#a26e3166a54288a78c47c7d9364239de5" target="_top" xlink:title=" ">
<polygon fill="white" stroke="#666666" points="241,-167 139,-167 139,-148 241,-148 241,-167"/>
<text text-anchor="middle" x="190" y="-155" font-family="Helvetica,sans-Serif" font-size="10.00">fl::global_interner</text>
</a>
</g>
</g>
<!-- Node1&#45;&gt;Node4 -->
<g id="edge3_Node000001_Node000004" class="edge">
<title>Node1&#45;&gt;Node4</title>
<g id="a_edge3_Node000001_Node000004"><a xlink:title=" ">
<path fill="none" stroke="#63b8ff" d="M103.33,-157.5C111.52,-157.5 120.07,-157.5 128.46,-157.5"/>
<polygon fill="#63b8ff" stroke="#63b8ff" points="128.58,-161 138.58,-157.5 128.58,-154 128.58,-161"/>
</a>
</g>
</g>
<!-- Node6 -->
<g id="Node000006" class="node">
<title>Node6</title>
<g id="a_Node000006"><a xlink:href="../../d1/de7/classfl_1_1_string_interner_acb9a905c207ff32fc661a39fc92f413c.html#acb9a905c207ff32fc661a39fc92f413c" target="_top" xlink:title=" ">
<polygon fill="white" stroke="#666666" points="237.5,-98.5 142.5,-98.5 142.5,-68.5 237.5,-68.5 237.5,-98.5"/>
<text text-anchor="start" x="150.5" y="-86.5" font-family="Helvetica,sans-Serif" font-size="10.00">fl::StringInterner</text>
<text text-anchor="middle" x="190" y="-75.5" font-family="Helvetica,sans-Serif" font-size="10.00">::intern</text>
</a>
</g>
</g>
<!-- Node1&#45;&gt;Node6 -->
<g id="edge5_Node000001_Node000006" class="edge">
<title>Node1&#45;&gt;Node6</title>
<g id="a_edge5_Node000001_Node000006"><a xlink:title=" ">
<path fill="none" stroke="#63b8ff" d="M70.07,-147.98C90.68,-136.8 125.42,-117.97 152.05,-103.53"/>
<polygon fill="#63b8ff" stroke="#63b8ff" points="153.97,-106.47 161.09,-98.63 150.63,-100.32 153.97,-106.47"/>
</a>
</g>
</g>
<!-- Node3 -->
<g id="Node000003" class="node">
<title>Node3</title>
<g id="a_Node000003"><a xlink:href="../../d6/d2d/classfl_1_1string__n_aad8aea616179737512f04dbabc1c95d4.html#aad8aea616179737512f04dbabc1c95d4" target="_top" xlink:title=" ">
<polygon fill="white" stroke="#666666" points="407,-226 277,-226 277,-185 407,-185 407,-226"/>
<text text-anchor="start" x="285" y="-214" font-family="Helvetica,sans-Serif" font-size="10.00">fl::string_n&lt; FASTLED</text>
<text text-anchor="start" x="285" y="-203" font-family="Helvetica,sans-Serif" font-size="10.00">_STR_INLINED_SIZE &gt;::</text>
<text text-anchor="middle" x="342" y="-192" font-family="Helvetica,sans-Serif" font-size="10.00">string_n</text>
</a>
</g>
</g>
<!-- Node2&#45;&gt;Node3 -->
<g id="edge2_Node000002_Node000003" class="edge">
<title>Node2&#45;&gt;Node3</title>
<g id="a_edge2_Node000002_Node000003"><a xlink:title=" ">
<path fill="none" stroke="#63b8ff" d="M235.19,-201.27C245.08,-201.66 255.84,-202.09 266.57,-202.52"/>
<polygon fill="#63b8ff" stroke="#63b8ff" points="266.7,-206.03 276.84,-202.93 266.98,-199.04 266.7,-206.03"/>
</a>
</g>
</g>
<!-- Node5 -->
<g id="Node000005" class="node">
<title>Node5</title>
<g id="a_Node000005"><a xlink:href="../../d9/d5b/classfl_1_1_singleton_a47fdc044003ec27f9e9833f7f5418e01.html#a47fdc044003ec27f9e9833f7f5418e01" target="_top" xlink:title=" ">
<polygon fill="white" stroke="#666666" points="403,-167 281,-167 281,-148 403,-148 403,-167"/>
<text text-anchor="middle" x="342" y="-155" font-family="Helvetica,sans-Serif" font-size="10.00">fl::Singleton::instance</text>
</a>
</g>
</g>
<!-- Node4&#45;&gt;Node5 -->
<g id="edge4_Node000004_Node000005" class="edge">
<title>Node4&#45;&gt;Node5</title>
<g id="a_edge4_Node000004_Node000005"><a xlink:title=" ">
<path fill="none" stroke="#63b8ff" d="M241.37,-157.5C250.78,-157.5 260.77,-157.5 270.66,-157.5"/>
<polygon fill="#63b8ff" stroke="#63b8ff" points="270.89,-161 280.89,-157.5 270.89,-154 270.89,-161"/>
</a>
</g>
</g>
<!-- Node7 -->
<g id="Node000007" class="node">
<title>Node7</title>
<g id="a_Node000007"><a xlink:href="../../d0/ddb/classfl_1_1string__view_ad6d3ece082b4bf4f7c5b372b89dbc319.html#ad6d3ece082b4bf4f7c5b372b89dbc319" target="_top" xlink:title=" ">
<polygon fill="white" stroke="#666666" points="398,-130 286,-130 286,-111 398,-111 398,-130"/>
<text text-anchor="middle" x="342" y="-118" font-family="Helvetica,sans-Serif" font-size="10.00">fl::string_view::data</text>
</a>
</g>
</g>
<!-- Node6&#45;&gt;Node7 -->
<g id="edge6_Node000006_Node000007" class="edge">
<title>Node6&#45;&gt;Node7</title>
<g id="a_edge6_Node000006_Node000007"><a xlink:title=" ">
<path fill="none" stroke="#63b8ff" d="M237.64,-95C255.04,-99.3 274.82,-104.18 292.39,-108.51"/>
<polygon fill="#63b8ff" stroke="#63b8ff" points="291.9,-111.99 302.45,-110.99 293.58,-105.2 291.9,-111.99"/>
</a>
</g>
</g>
<!-- Node8 -->
<g id="Node000008" class="node">
<title>Node8</title>
<g id="a_Node000008"><a xlink:href="../../d0/ddb/classfl_1_1string__view_a046c8a6a9299f3ec395183dac2408d10.html#a046c8a6a9299f3ec395183dac2408d10" target="_top" xlink:title=" ">
<polygon fill="white" stroke="#666666" points="403,-93 281,-93 281,-74 403,-74 403,-93"/>
<text text-anchor="middle" x="342" y="-81" font-family="Helvetica,sans-Serif" font-size="10.00">fl::string_view::empty</text>
</a>
</g>
</g>
<!-- Node6&#45;&gt;Node8 -->
<g id="edge7_Node000006_Node000008" class="edge">
<title>Node6&#45;&gt;Node8</title>
<g id="a_edge7_Node000006_Node000008"><a xlink:title=" ">
<path fill="none" stroke="#63b8ff" d="M237.64,-83.5C248.11,-83.5 259.44,-83.5 270.64,-83.5"/>
<polygon fill="#63b8ff" stroke="#63b8ff" points="270.85,-87 280.85,-83.5 270.85,-80 270.85,-87"/>
</a>
</g>
</g>
<!-- Node9 -->
<g id="Node000009" class="node">
<title>Node9</title>
<g id="a_Node000009"><a xlink:href="../../d4/d36/namespacefl_a87ae8a24cc8b709a64f39370e71846af.html#a87ae8a24cc8b709a64f39370e71846af" target="_top" xlink:title=" ">
<polygon fill="white" stroke="#666666" points="389,-56 295,-56 295,-37 389,-37 389,-56"/>
<text text-anchor="middle" x="342" y="-44" font-family="Helvetica,sans-Serif" font-size="10.00">fl::make_shared</text>
</a>
</g>
</g>
<!-- Node6&#45;&gt;Node9 -->
<g id="edge8_Node000006_Node000009" class="edge">
<title>Node6&#45;&gt;Node9</title>
<g id="a_edge8_Node000006_Node000009"><a xlink:title=" ">
<path fill="none" stroke="#63b8ff" d="M237.64,-72C255.04,-67.7 274.82,-62.82 292.39,-58.49"/>
<polygon fill="#63b8ff" stroke="#63b8ff" points="293.58,-61.8 302.45,-56.01 291.9,-55.01 293.58,-61.8"/>
</a>
</g>
</g>
<!-- Node10 -->
<g id="Node000010" class="node">
<title>Node10</title>
<g id="a_Node000010"><a xlink:href="../../d0/ddb/classfl_1_1string__view_a62053f60d43376477b7857084f50b3c3.html#a62053f60d43376477b7857084f50b3c3" target="_top" xlink:title=" ">
<polygon fill="white" stroke="#666666" points="397,-19 287,-19 287,0 397,0 397,-19"/>
<text text-anchor="middle" x="342" y="-7" font-family="Helvetica,sans-Serif" font-size="10.00">fl::string_view::size</text>
</a>
</g>
</g>
<!-- Node6&#45;&gt;Node10 -->
<g id="edge9_Node000006_Node000010" class="edge">
<title>Node6&#45;&gt;Node10</title>
<g id="a_edge9_Node000006_Node000010"><a xlink:title=" ">
<path fill="none" stroke="#63b8ff" d="M210.5,-68.32C227.32,-55.87 252.66,-38.54 277,-27.5 281.31,-25.55 285.87,-23.76 290.51,-22.13"/>
<polygon fill="#63b8ff" stroke="#63b8ff" points="291.63,-25.45 300.05,-19.02 289.46,-18.79 291.63,-25.45"/>
</a>
</g>
</g>
</g>
</svg>
</svg>

<style type='text/css'>
<![CDATA[
[data-mouse-over-selected='false'] { opacity: 0.7; }
[data-mouse-over-selected='true']  { opacity: 1.0; }
]]>
</style>
<script type="application/ecmascript"><![CDATA[
document.addEventListener('DOMContentLoaded', (event) => {
  highlightEdges();
  highlightAdjacentNodes();
});
]]></script>
</svg>
