<?xml version="1.0" encoding="UTF-8" standalone="no"?>
<!DOCTYPE svg PUBLIC "-//W3C//DTD SVG 1.1//EN"
 "http://www.w3.org/Graphics/SVG/1.1/DTD/svg11.dtd">
<!-- Generated by graphviz version 2.43.0 (0)
 -->
<!-- Title: loop Pages: 1 -->
<svg width="519pt" height="159pt"
 viewBox="0.00 0.00 519.00 159.00" xmlns="http://www.w3.org/2000/svg" xmlns:xlink="http://www.w3.org/1999/xlink">
<g id="graph0" class="graph" transform="scale(1 1) rotate(0) translate(4 155)">
<title>loop</title>
<!-- Node1 -->
<g id="Node000001" class="node">
<title>Node1</title>
<g id="a_Node000001"><a xlink:title=" ">
<polygon fill="#999999" stroke="#666666" points="38,-76 0,-76 0,-57 38,-57 38,-76"/>
<text text-anchor="middle" x="19" y="-64" font-family="Helvetica,sans-Serif" font-size="10.00">loop</text>
</a>
</g>
</g>
<!-- Node2 -->
<g id="Node000002" class="node">
<title>Node2</title>
<g id="a_Node000002"><a xlink:href="../../dd/d10/_fx_wave2d_8ino_ad9a319c4c09fbbad4700861a49058f41.html#ad9a319c4c09fbbad4700861a49058f41" target="_top" xlink:title=" ">
<polygon fill="white" stroke="#666666" points="178.5,-132 79.5,-132 79.5,-113 178.5,-113 178.5,-132"/>
<text text-anchor="middle" x="129" y="-120" font-family="Helvetica,sans-Serif" font-size="10.00">applyFancyEffect</text>
</a>
</g>
</g>
<!-- Node1&#45;&gt;Node2 -->
<g id="edge1_Node000001_Node000002" class="edge">
<title>Node1&#45;&gt;Node2</title>
<g id="a_edge1_Node000001_Node000002"><a xlink:title=" ">
<path fill="none" stroke="#63b8ff" d="M31.38,-76C41.9,-84.41 58.24,-96.54 74,-104.5 77.37,-106.2 80.95,-107.8 84.58,-109.28"/>
<polygon fill="#63b8ff" stroke="#63b8ff" points="83.66,-112.68 94.26,-112.94 86.14,-106.13 83.66,-112.68"/>
</a>
</g>
</g>
<!-- Node7 -->
<g id="Node000007" class="node">
<title>Node7</title>
<g id="a_Node000007"><a xlink:href="../../dd/d10/_fx_wave2d_8ino_a861547b83e4a6aa092de815fca8219e8.html#a861547b83e4a6aa092de815fca8219e8" target="_top" xlink:title=" ">
<polygon fill="white" stroke="#666666" points="184,-95 74,-95 74,-76 184,-76 184,-95"/>
<text text-anchor="middle" x="129" y="-83" font-family="Helvetica,sans-Serif" font-size="10.00">processAutoTrigger</text>
</a>
</g>
</g>
<!-- Node1&#45;&gt;Node7 -->
<g id="edge7_Node000001_Node000007" class="edge">
<title>Node1&#45;&gt;Node7</title>
<g id="a_edge7_Node000001_Node000007"><a xlink:title=" ">
<path fill="none" stroke="#63b8ff" d="M38.32,-69.72C45.57,-71 54.37,-72.55 63.59,-74.17"/>
<polygon fill="#63b8ff" stroke="#63b8ff" points="63.25,-77.66 73.71,-75.95 64.47,-70.77 63.25,-77.66"/>
</a>
</g>
</g>
<!-- Node8 -->
<g id="Node000008" class="node">
<title>Node8</title>
<g id="a_Node000008"><a xlink:href="../../dd/d10/_fx_wave2d_8ino_ad5a517cd7a477ee7bc57296f99607653.html#ad5a517cd7a477ee7bc57296f99607653" target="_top" xlink:title=" ">
<polygon fill="white" stroke="#666666" points="324,-57 244,-57 244,-38 324,-38 324,-57"/>
<text text-anchor="middle" x="284" y="-45" font-family="Helvetica,sans-Serif" font-size="10.00">triggerRipple</text>
</a>
</g>
</g>
<!-- Node1&#45;&gt;Node8 -->
<g id="edge9_Node000001_Node000008" class="edge">
<title>Node1&#45;&gt;Node8</title>
<g id="a_edge9_Node000001_Node000008"><a xlink:title=" ">
<path fill="none" stroke="#63b8ff" d="M38.08,-65.19C77.82,-62.32 173.96,-55.38 233.28,-51.09"/>
<polygon fill="#63b8ff" stroke="#63b8ff" points="233.83,-54.56 243.55,-50.35 233.32,-47.58 233.83,-54.56"/>
</a>
</g>
</g>
<!-- Node9 -->
<g id="Node000009" class="node">
<title>Node9</title>
<g id="a_Node000009"><a xlink:href="../../dd/d10/_fx_wave2d_8ino_a17165033747bbdfa4fed36d476f531ab.html#a17165033747bbdfa4fed36d476f531ab" target="_top" xlink:title=" ">
<polygon fill="white" stroke="#666666" points="143.5,-19 114.5,-19 114.5,0 143.5,0 143.5,-19"/>
<text text-anchor="middle" x="129" y="-7" font-family="Helvetica,sans-Serif" font-size="10.00">ui</text>
</a>
</g>
</g>
<!-- Node1&#45;&gt;Node9 -->
<g id="edge10_Node000001_Node000009" class="edge">
<title>Node1&#45;&gt;Node9</title>
<g id="a_edge10_Node000001_Node000009"><a xlink:title=" ">
<path fill="none" stroke="#63b8ff" d="M34.83,-56.72C45.51,-49.85 60.38,-40.65 74,-33.5 83.98,-28.26 95.34,-23.1 105.05,-18.91"/>
<polygon fill="#63b8ff" stroke="#63b8ff" points="106.6,-22.06 114.45,-14.94 103.88,-15.61 106.6,-22.06"/>
</a>
</g>
</g>
<!-- Node3 -->
<g id="Node000003" class="node">
<title>Node3</title>
<g id="a_Node000003"><a xlink:href="../../d0/d9d/classfl_1_1_time_ramp_a2afdf19685e9f588d22fb45aef62ae30.html#a2afdf19685e9f588d22fb45aef62ae30" target="_top" xlink:title=" ">
<polygon fill="white" stroke="#666666" points="511,-151 384,-151 384,-132 511,-132 511,-151"/>
<text text-anchor="middle" x="447.5" y="-139" font-family="Helvetica,sans-Serif" font-size="10.00">fl::TimeRamp::isActive</text>
</a>
</g>
</g>
<!-- Node2&#45;&gt;Node3 -->
<g id="edge2_Node000002_Node000003" class="edge">
<title>Node2&#45;&gt;Node3</title>
<g id="a_edge2_Node000002_Node000003"><a xlink:title=" ">
<path fill="none" stroke="#63b8ff" d="M166.51,-132.01C182.76,-135.77 202.21,-139.64 220,-141.5 271.16,-146.84 329.18,-146.72 373.68,-145.33"/>
<polygon fill="#63b8ff" stroke="#63b8ff" points="373.95,-148.82 383.83,-144.99 373.71,-141.83 373.95,-148.82"/>
</a>
</g>
</g>
<!-- Node4 -->
<g id="Node000004" class="node">
<title>Node4</title>
<g id="a_Node000004"><a xlink:href="../../d0/d9d/classfl_1_1_time_ramp_a431f445197b6ac690c83e27ed3005843.html#a431f445197b6ac690c83e27ed3005843" target="_top" xlink:title="Call this when you want to (re)start the ramp cycle.">
<polygon fill="white" stroke="#666666" points="344,-132 224,-132 224,-113 344,-113 344,-132"/>
<text text-anchor="middle" x="284" y="-120" font-family="Helvetica,sans-Serif" font-size="10.00">fl::TimeRamp::trigger</text>
</a>
</g>
</g>
<!-- Node2&#45;&gt;Node4 -->
<g id="edge3_Node000002_Node000004" class="edge">
<title>Node2&#45;&gt;Node4</title>
<g id="a_edge3_Node000002_Node000004"><a xlink:title=" ">
<path fill="none" stroke="#63b8ff" d="M178.83,-122.5C189.92,-122.5 201.91,-122.5 213.68,-122.5"/>
<polygon fill="#63b8ff" stroke="#63b8ff" points="213.92,-126 223.92,-122.5 213.92,-119 213.92,-126"/>
</a>
</g>
</g>
<!-- Node5 -->
<g id="Node000005" class="node">
<title>Node5</title>
<g id="a_Node000005"><a xlink:href="../../d0/d9d/classfl_1_1_time_ramp_a17739bd3c0b0ea5b1aaac7670f4edfb0.html#a17739bd3c0b0ea5b1aaac7670f4edfb0" target="_top" xlink:title="Compute current 0–255 output based on how much time has elapsed since trigger().">
<polygon fill="white" stroke="#666666" points="348,-95 220,-95 220,-76 348,-76 348,-95"/>
<text text-anchor="middle" x="284" y="-83" font-family="Helvetica,sans-Serif" font-size="10.00">fl::TimeRamp::update8</text>
</a>
</g>
</g>
<!-- Node2&#45;&gt;Node5 -->
<g id="edge4_Node000002_Node000005" class="edge">
<title>Node2&#45;&gt;Node5</title>
<g id="a_edge4_Node000002_Node000005"><a xlink:title=" ">
<path fill="none" stroke="#63b8ff" d="M169.4,-112.97C188.96,-108.24 212.78,-102.48 233.55,-97.46"/>
<polygon fill="#63b8ff" stroke="#63b8ff" points="234.57,-100.81 243.47,-95.06 232.92,-94.01 234.57,-100.81"/>
</a>
</g>
</g>
<!-- Node5&#45;&gt;Node3 -->
<g id="edge5_Node000005_Node000003" class="edge">
<title>Node5&#45;&gt;Node3</title>
<g id="a_edge5_Node000005_Node000003"><a xlink:title=" ">
<path fill="none" stroke="#63b8ff" d="M318.15,-95.05C327.82,-97.95 338.37,-101.24 348,-104.5 369.81,-111.88 394.02,-120.96 412.98,-128.28"/>
<polygon fill="#63b8ff" stroke="#63b8ff" points="411.78,-131.57 422.37,-131.93 414.32,-125.04 411.78,-131.57"/>
</a>
</g>
</g>
<!-- Node6 -->
<g id="Node000006" class="node">
<title>Node6</title>
<g id="a_Node000006"><a xlink:href="../../d4/d36/namespacefl_a76248cce8d7b5923cdd01a26e6fccce8.html#a76248cce8d7b5923cdd01a26e6fccce8" target="_top" xlink:title=" ">
<polygon fill="white" stroke="#666666" points="492,-95 403,-95 403,-76 492,-76 492,-95"/>
<text text-anchor="middle" x="447.5" y="-83" font-family="Helvetica,sans-Serif" font-size="10.00">fl::time_alpha8</text>
</a>
</g>
</g>
<!-- Node5&#45;&gt;Node6 -->
<g id="edge6_Node000005_Node000006" class="edge">
<title>Node5&#45;&gt;Node6</title>
<g id="a_edge6_Node000005_Node000006"><a xlink:title=" ">
<path fill="none" stroke="#63b8ff" d="M348.37,-85.5C363.01,-85.5 378.46,-85.5 392.66,-85.5"/>
<polygon fill="#63b8ff" stroke="#63b8ff" points="392.75,-89 402.75,-85.5 392.75,-82 392.75,-89"/>
</a>
</g>
</g>
<!-- Node7&#45;&gt;Node8 -->
<g id="edge8_Node000007_Node000008" class="edge">
<title>Node7&#45;&gt;Node8</title>
<g id="a_edge8_Node000007_Node000008"><a xlink:title=" ">
<path fill="none" stroke="#63b8ff" d="M168.61,-75.91C188.71,-70.92 213.48,-64.77 234.82,-59.47"/>
<polygon fill="#63b8ff" stroke="#63b8ff" points="235.81,-62.83 244.67,-57.02 234.12,-56.03 235.81,-62.83"/>
</a>
</g>
</g>
<!-- Node10 -->
<g id="Node000010" class="node">
<title>Node10</title>
<g id="a_Node000010"><a xlink:href="../../dd/d10/_fx_wave2d_8ino_ad3facb26c8fe2270d260a10ea9aceb09.html#ad3facb26c8fe2270d260a10ea9aceb09" target="_top" xlink:title=" ">
<polygon fill="white" stroke="#666666" points="332.5,-19 235.5,-19 235.5,0 332.5,0 332.5,-19"/>
<text text-anchor="middle" x="284" y="-7" font-family="Helvetica,sans-Serif" font-size="10.00">getSuperSample</text>
</a>
</g>
</g>
<!-- Node9&#45;&gt;Node10 -->
<g id="edge11_Node000009_Node000010" class="edge">
<title>Node9&#45;&gt;Node10</title>
<g id="a_edge11_Node000009_Node000010"><a xlink:title=" ">
<path fill="none" stroke="#63b8ff" d="M143.58,-9.5C161.83,-9.5 195.42,-9.5 225.05,-9.5"/>
<polygon fill="#63b8ff" stroke="#63b8ff" points="225.34,-13 235.34,-9.5 225.34,-6 225.34,-13"/>
</a>
</g>
</g>
</g>
</svg>
