<?xml version="1.0" encoding="UTF-8" standalone="no"?>
<!DOCTYPE svg PUBLIC "-//W3C//DTD SVG 1.1//EN"
 "http://www.w3.org/Graphics/SVG/1.1/DTD/svg11.dtd">
<!-- Generated by graphviz version 2.43.0 (0)
 -->
<!-- Title: fl::Water_FP::draw Pages: 1 -->
<!--zoomable 219 -->

<svg id="main" version="1.1" xmlns="http://www.w3.org/2000/svg" xmlns:xlink="http://www.w3.org/1999/xlink" xml:space="preserve" onload="init(evt)">

<style type="text/css"><![CDATA[
.node, .edge {opacity: 0.7;}
.node.selected, .edge.selected {opacity: 1;}
.edge:hover path { stroke: red; }
.edge:hover polygon { stroke: red; fill: red; }
]]></style>

<defs>
  <circle id="rim" cx="0" cy="0" r="7"/>
  <circle id="rim2" cx="0" cy="0" r="3.5"/>
  <g id="zoomPlus">
    <use xlink:href="#rim" fill="#404040"><set attributeName="fill" to="#808080" begin="zoomplus.mouseover" end="zoomplus.mouseout"/></use>
    <path d="M-4,0h8M0,-4v8" fill="none" stroke="white" stroke-width="1.5" pointer-events="none"/>
  </g>
  <g id="zoomMin">
    <use xlink:href="#rim" fill="#404040"><set attributeName="fill" to="#808080" begin="zoomminus.mouseover" end="zoomminus.mouseout"/></use>
    <path d="M-4,0h8" fill="none" stroke="white" stroke-width="1.5" pointer-events="none"/>
  </g>
  <g id="arrowUp" transform="translate(30 24)">
    <use xlink:href="#rim"/>
    <path pointer-events="none" fill="none" stroke="white" stroke-width="1.5" d="M0,-3.0v7 M-2.5,-0.5L0,-3.0L2.5,-0.5"/>
  </g>
  <g id="arrowRight" transform="rotate(90) translate(36 -43)">
    <use xlink:href="#rim"/>
    <path pointer-events="none" fill="none" stroke="white" stroke-width="1.5" d="M0,-3.0v7 M-2.5,-0.5L0,-3.0L2.5,-0.5"/>
  </g>
  <g id="arrowDown" transform="rotate(180) translate(-30 -48)">
    <use xlink:href="#rim"/>
    <path pointer-events="none" fill="none" stroke="white" stroke-width="1.5" d="M0,-3.0v7 M-2.5,-0.5L0,-3.0L2.5,-0.5"/>
  </g>
  <g id="arrowLeft" transform="rotate(270) translate(-36 17)">
    <use xlink:href="#rim"/>
    <path pointer-events="none" fill="none" stroke="white" stroke-width="1.5" d="M0,-3.0v7 M-2.5,-0.5L0,-3.0L2.5,-0.5"/>
  </g>
  <g id="resetDef">
    <use xlink:href="#rim2" fill="#404040"><set attributeName="fill" to="#808080" begin="reset.mouseover" end="reset.mouseout"/></use>
  </g>
</defs>
<script type="application/ecmascript">
var viewWidth = 725;
var viewHeight = 219;
var sectionId = 'dynsection-0';
</script>
<script type="application/ecmascript" xlink:href="../../svg.min.js"/>
<svg id="graph" class="graph">
<g id="viewport">
<title>fl::Water_FP::draw</title>
<!-- Node1 -->
<g id="Node000001" class="node">
<title>Node1</title>
<g id="a_Node000001"><a xlink:title=" ">
<polygon fill="#999999" stroke="#666666" points="104,-124.92 0,-124.92 0,-105.92 104,-105.92 104,-124.92"/>
<text text-anchor="middle" x="52" y="-112.92" font-family="Helvetica,sans-Serif" font-size="10.00">fl::Water_FP::draw</text>
</a>
</g>
</g>
<!-- Node2 -->
<g id="Node000002" class="node">
<title>Node2</title>
<g id="a_Node000002"><a xlink:href="../../da/d3c/namespacefl_1_1fl_ab4a4a89750bf923005084995e1de2f92.html#ab4a4a89750bf923005084995e1de2f92" target="_top" xlink:title=" ">
<polygon fill="white" stroke="#666666" points="260,-183.92 140,-183.92 140,-164.92 260,-164.92 260,-183.92"/>
<text text-anchor="middle" x="200" y="-171.92" font-family="Helvetica,sans-Serif" font-size="10.00">fl::fl::assume_aligned</text>
</a>
</g>
</g>
<!-- Node1&#45;&gt;Node2 -->
<g id="edge1_Node000001_Node000002" class="edge">
<title>Node1&#45;&gt;Node2</title>
<g id="a_edge1_Node000001_Node000002"><a xlink:title=" ">
<path fill="none" stroke="#63b8ff" d="M71.33,-125.01C88.71,-133.87 115.7,-147.04 140,-156.42 144.81,-158.28 149.9,-160.07 154.99,-161.76"/>
<polygon fill="#63b8ff" stroke="#63b8ff" points="154.12,-165.16 164.71,-164.87 156.25,-158.49 154.12,-165.16"/>
</a>
</g>
</g>
<!-- Node3 -->
<g id="Node000003" class="node">
<title>Node3</title>
<g id="a_Node000003"><a xlink:href="../../d4/d36/namespacefl_ad87db990a26723fa560bc364734ea6cc.html#ad87db990a26723fa560bc364734ea6cc" target="_top" xlink:title=" ">
<polygon fill="white" stroke="#666666" points="224.5,-146.92 175.5,-146.92 175.5,-127.92 224.5,-127.92 224.5,-146.92"/>
<text text-anchor="middle" x="200" y="-134.92" font-family="Helvetica,sans-Serif" font-size="10.00">fl::cosf</text>
</a>
</g>
</g>
<!-- Node1&#45;&gt;Node3 -->
<g id="edge2_Node000001_Node000003" class="edge">
<title>Node1&#45;&gt;Node3</title>
<g id="a_edge2_Node000001_Node000003"><a xlink:title=" ">
<path fill="none" stroke="#63b8ff" d="M104.06,-123.12C124.27,-126.16 146.96,-129.58 165.08,-132.31"/>
<polygon fill="#63b8ff" stroke="#63b8ff" points="164.76,-135.8 175.17,-133.83 165.8,-128.88 164.76,-135.8"/>
</a>
</g>
</g>
<!-- Node8 -->
<g id="Node000008" class="node">
<title>Node8</title>
<g id="a_Node000008"><a xlink:href="../../d4/d36/namespacefl_a9b47c6dc4674f84aec1a4acfaa5732f9.html#a9b47c6dc4674f84aec1a4acfaa5732f9" target="_top" xlink:title=" ">
<polygon fill="white" stroke="#666666" points="253.5,-109.42 146.5,-109.42 146.5,-79.42 253.5,-79.42 253.5,-109.42"/>
<text text-anchor="start" x="154.5" y="-97.42" font-family="Helvetica,sans-Serif" font-size="10.00">fl::render_value_fp</text>
<text text-anchor="middle" x="200" y="-86.42" font-family="Helvetica,sans-Serif" font-size="10.00">_from_float</text>
</a>
</g>
</g>
<!-- Node1&#45;&gt;Node8 -->
<g id="edge6_Node000001_Node000008" class="edge">
<title>Node1&#45;&gt;Node8</title>
<g id="a_edge6_Node000001_Node000008"><a xlink:title=" ">
<path fill="none" stroke="#63b8ff" d="M104.06,-108.08C114.41,-106.59 125.4,-105.01 136.1,-103.47"/>
<polygon fill="#63b8ff" stroke="#63b8ff" points="136.83,-106.9 146.23,-102.01 135.84,-99.97 136.83,-106.9"/>
</a>
</g>
</g>
<!-- Node23 -->
<g id="Node000023" class="node">
<title>Node23</title>
<g id="a_Node000023"><a xlink:href="../../d4/d36/namespacefl_a4ba2744fe96375793e6f7a98b188d343.html#a4ba2744fe96375793e6f7a98b188d343" target="_top" xlink:title=" ">
<polygon fill="white" stroke="#666666" points="223.5,-54.92 176.5,-54.92 176.5,-35.92 223.5,-35.92 223.5,-54.92"/>
<text text-anchor="middle" x="200" y="-42.92" font-family="Helvetica,sans-Serif" font-size="10.00">fl::sinf</text>
</a>
</g>
</g>
<!-- Node1&#45;&gt;Node23 -->
<g id="edge13_Node000001_Node000023" class="edge">
<title>Node1&#45;&gt;Node23</title>
<g id="a_edge13_Node000001_Node000023"><a xlink:title=" ">
<path fill="none" stroke="#63b8ff" d="M70.47,-105.89C87.89,-96.49 115.53,-81.91 140,-70.42 148.73,-66.32 158.3,-62.13 167.16,-58.39"/>
<polygon fill="#63b8ff" stroke="#63b8ff" points="168.53,-61.61 176.41,-54.52 165.83,-55.15 168.53,-61.61"/>
</a>
</g>
</g>
<!-- Node4 -->
<g id="Node000004" class="node">
<title>Node4</title>
<g id="a_Node000004"><a xlink:href="../../d4/d36/namespacefl_a82dc97b9808ee5c39eb57f649d20a2fd.html#a82dc97b9808ee5c39eb57f649d20a2fd" target="_top" xlink:title=" ">
<polygon fill="white" stroke="#666666" points="399,-195.92 300,-195.92 300,-176.92 399,-176.92 399,-195.92"/>
<text text-anchor="middle" x="349.5" y="-183.92" font-family="Helvetica,sans-Serif" font-size="10.00">fl::cos_impl_float</text>
</a>
</g>
</g>
<!-- Node3&#45;&gt;Node4 -->
<g id="edge3_Node000003_Node000004" class="edge">
<title>Node3&#45;&gt;Node4</title>
<g id="a_edge3_Node000003_Node000004"><a xlink:title=" ">
<path fill="none" stroke="#63b8ff" d="M224.57,-144.92C235.38,-148.38 248.35,-152.57 260,-156.42 276.68,-161.93 295.08,-168.15 310.77,-173.49"/>
<polygon fill="#63b8ff" stroke="#63b8ff" points="310.04,-176.94 320.64,-176.85 312.3,-170.31 310.04,-176.94"/>
</a>
</g>
</g>
<!-- Node5 -->
<g id="Node000005" class="node">
<title>Node5</title>
<g id="a_Node000005"><a xlink:href="../../df/d9e/namespacefl_1_1detail_ab42e702a90f152dbad7d35ea9eab976a.html#ab42e702a90f152dbad7d35ea9eab976a" target="_top" xlink:title=" ">
<polygon fill="white" stroke="#666666" points="561,-210.92 439,-210.92 439,-191.92 561,-191.92 561,-210.92"/>
<text text-anchor="middle" x="500" y="-198.92" font-family="Helvetica,sans-Serif" font-size="10.00">fl::detail::cos_reduce_</text>
</a>
</g>
</g>
<!-- Node4&#45;&gt;Node5 -->
<g id="edge4_Node000004_Node000005" class="edge">
<title>Node4&#45;&gt;Node5</title>
<g id="a_edge4_Node000004_Node000005"><a xlink:title=" ">
<path fill="none" stroke="#63b8ff" d="M399.12,-191.33C408.64,-192.29 418.8,-193.32 428.85,-194.34"/>
<polygon fill="#63b8ff" stroke="#63b8ff" points="428.55,-197.82 438.85,-195.34 429.25,-190.86 428.55,-197.82"/>
</a>
</g>
</g>
<!-- Node6 -->
<g id="Node000006" class="node">
<title>Node6</title>
<g id="a_Node000006"><a xlink:href="../../df/d9e/namespacefl_1_1detail_a525aa6aacdb5d3d48ebe21adb14da430.html#a525aa6aacdb5d3d48ebe21adb14da430" target="_top" xlink:title=" ">
<polygon fill="#fff0f0" stroke="red" points="717,-105.92 597,-105.92 597,-86.92 717,-86.92 717,-105.92"/>
<text text-anchor="middle" x="657" y="-93.92" font-family="Helvetica,sans-Serif" font-size="10.00">fl::detail::sin_reduce_</text>
</a>
</g>
</g>
<!-- Node5&#45;&gt;Node6 -->
<g id="edge5_Node000005_Node000006" class="edge">
<title>Node5&#45;&gt;Node6</title>
<g id="a_edge5_Node000005_Node000006"><a xlink:title=" ">
<path fill="none" stroke="#63b8ff" d="M539.81,-191.83C547.09,-189.29 554.46,-186.17 561,-182.42 593.1,-163.99 623.6,-133.19 641.03,-113.88"/>
<polygon fill="#63b8ff" stroke="#63b8ff" points="643.86,-115.96 647.86,-106.15 638.62,-111.32 643.86,-115.96"/>
</a>
</g>
</g>
<!-- Node9 -->
<g id="Node000009" class="node">
<title>Node9</title>
<g id="a_Node000009"><a xlink:href="../../d9/d9f/classfl_1_1s16x16_aa048b427f50f28993a67941e0f303a65.html#aa048b427f50f28993a67941e0f303a65" target="_top" xlink:title=" ">
<polygon fill="white" stroke="#666666" points="393.5,-128.92 305.5,-128.92 305.5,-109.92 393.5,-109.92 393.5,-128.92"/>
<text text-anchor="middle" x="349.5" y="-116.92" font-family="Helvetica,sans-Serif" font-size="10.00">fl::s16x16::raw</text>
</a>
</g>
</g>
<!-- Node8&#45;&gt;Node9 -->
<g id="edge7_Node000008_Node000009" class="edge">
<title>Node8&#45;&gt;Node9</title>
<g id="a_edge7_Node000008_Node000009"><a xlink:title=" ">
<path fill="none" stroke="#63b8ff" d="M253.83,-103.38C267.27,-105.65 281.72,-108.1 295.18,-110.38"/>
<polygon fill="#63b8ff" stroke="#63b8ff" points="294.81,-113.87 305.25,-112.09 295.98,-106.97 294.81,-113.87"/>
</a>
</g>
</g>
<!-- Node10 -->
<g id="Node000010" class="node">
<title>Node10</title>
<g id="a_Node000010"><a xlink:href="../../d4/d36/namespacefl_a6291b8d2d09d5f814b0a4314a2d6ed71.html#a6291b8d2d09d5f814b0a4314a2d6ed71" target="_top" xlink:title=" ">
<polygon fill="white" stroke="#666666" points="403,-91.92 296,-91.92 296,-72.92 403,-72.92 403,-91.92"/>
<text text-anchor="middle" x="349.5" y="-79.92" font-family="Helvetica,sans-Serif" font-size="10.00">fl::render_value_fp</text>
</a>
</g>
</g>
<!-- Node8&#45;&gt;Node10 -->
<g id="edge8_Node000008_Node000010" class="edge">
<title>Node8&#45;&gt;Node10</title>
<g id="a_edge8_Node000008_Node000010"><a xlink:title=" ">
<path fill="none" stroke="#63b8ff" d="M253.83,-90.12C264.11,-89.29 274.97,-88.4 285.53,-87.54"/>
<polygon fill="#63b8ff" stroke="#63b8ff" points="285.86,-91.03 295.54,-86.73 285.29,-84.05 285.86,-91.03"/>
</a>
</g>
</g>
<!-- Node11 -->
<g id="Node000011" class="node">
<title>Node11</title>
<g id="a_Node000011"><a xlink:href="../../d3/d7d/structfl_1_1perlin__s16x16_a5c42ee9ef6f75bb1104ddbc8949054c9.html#a5c42ee9ef6f75bb1104ddbc8949054c9" target="_top" xlink:title=" ">
<polygon fill="#fff0f0" stroke="red" points="551.5,-173.42 448.5,-173.42 448.5,-143.42 551.5,-143.42 551.5,-173.42"/>
<text text-anchor="start" x="456.5" y="-161.42" font-family="Helvetica,sans-Serif" font-size="10.00">fl::perlin_s16x16::</text>
<text text-anchor="middle" x="500" y="-150.42" font-family="Helvetica,sans-Serif" font-size="10.00">pnoise2d_raw</text>
</a>
</g>
</g>
<!-- Node10&#45;&gt;Node11 -->
<g id="edge9_Node000010_Node000011" class="edge">
<title>Node10&#45;&gt;Node11</title>
<g id="a_edge9_Node000010_Node000011"><a xlink:title=" ">
<path fill="none" stroke="#63b8ff" d="M383.07,-91.94C389.89,-94.55 396.86,-97.7 403,-101.42 421.57,-112.67 420.62,-122.87 439,-134.42 441.45,-135.96 444.01,-137.43 446.64,-138.84"/>
<polygon fill="#63b8ff" stroke="#63b8ff" points="445.26,-142.06 455.78,-143.34 448.36,-135.78 445.26,-142.06"/>
</a>
</g>
</g>
<!-- Node16 -->
<g id="Node000016" class="node">
<title>Node16</title>
<g id="a_Node000016"><a xlink:href="../../d3/d7d/structfl_1_1perlin__s16x16_a6151333bcd3d7e41883095f0ab64cc6c.html#a6151333bcd3d7e41883095f0ab64cc6c" target="_top" xlink:title=" ">
<polygon fill="#fff0f0" stroke="red" points="551.5,-125.42 448.5,-125.42 448.5,-95.42 551.5,-95.42 551.5,-125.42"/>
<text text-anchor="start" x="456.5" y="-113.42" font-family="Helvetica,sans-Serif" font-size="10.00">fl::perlin_s16x16::</text>
<text text-anchor="middle" x="500" y="-102.42" font-family="Helvetica,sans-Serif" font-size="10.00">pnoise3d_raw</text>
</a>
</g>
</g>
<!-- Node10&#45;&gt;Node16 -->
<g id="edge10_Node000010_Node000016" class="edge">
<title>Node10&#45;&gt;Node16</title>
<g id="a_edge10_Node000010_Node000016"><a xlink:title=" ">
<path fill="none" stroke="#63b8ff" d="M401.19,-91.98C413.07,-94.22 425.85,-96.63 438.13,-98.94"/>
<polygon fill="#63b8ff" stroke="#63b8ff" points="437.81,-102.45 448.29,-100.86 439.11,-95.57 437.81,-102.45"/>
</a>
</g>
</g>
<!-- Node18 -->
<g id="Node000018" class="node">
<title>Node18</title>
<g id="a_Node000018"><a xlink:href="../../d4/d36/namespacefl_a3554157e5c580a5b363e1a723d39e024.html#a3554157e5c580a5b363e1a723d39e024" target="_top" xlink:title=" ">
<polygon fill="white" stroke="#666666" points="554.5,-76.92 445.5,-76.92 445.5,-57.92 554.5,-57.92 554.5,-76.92"/>
<text text-anchor="middle" x="500" y="-64.92" font-family="Helvetica,sans-Serif" font-size="10.00">fl::radiansToA24_fp</text>
</a>
</g>
</g>
<!-- Node10&#45;&gt;Node18 -->
<g id="edge11_Node000010_Node000018" class="edge">
<title>Node10&#45;&gt;Node18</title>
<g id="a_edge11_Node000010_Node000018"><a xlink:title=" ">
<path fill="none" stroke="#63b8ff" d="M403.27,-77.09C413.63,-76.04 424.61,-74.94 435.28,-73.86"/>
<polygon fill="#63b8ff" stroke="#63b8ff" points="435.8,-77.32 445.39,-72.84 435.09,-70.36 435.8,-77.32"/>
</a>
</g>
</g>
<!-- Node19 -->
<g id="Node000019" class="node">
<title>Node19</title>
<g id="a_Node000019"><a xlink:href="../../d4/d36/namespacefl_ab168280957e4bfee3a3976381bd9e663.html#ab168280957e4bfee3a3976381bd9e663" target="_top" xlink:title=" ">
<polygon fill="#fff0f0" stroke="red" points="535.5,-39.92 464.5,-39.92 464.5,-20.92 535.5,-20.92 535.5,-39.92"/>
<text text-anchor="middle" x="500" y="-27.92" font-family="Helvetica,sans-Serif" font-size="10.00">fl::sincos32</text>
</a>
</g>
</g>
<!-- Node10&#45;&gt;Node19 -->
<g id="edge12_Node000010_Node000019" class="edge">
<title>Node10&#45;&gt;Node19</title>
<g id="a_edge12_Node000010_Node000019"><a xlink:title=" ">
<path fill="none" stroke="#63b8ff" d="M375.18,-72.84C392.86,-66.07 417.29,-56.9 439,-49.42 445.1,-47.32 451.58,-45.18 457.94,-43.12"/>
<polygon fill="#63b8ff" stroke="#63b8ff" points="459.3,-46.36 467.76,-39.99 457.17,-39.69 459.3,-46.36"/>
</a>
</g>
</g>
<!-- Node24 -->
<g id="Node000024" class="node">
<title>Node24</title>
<g id="a_Node000024"><a xlink:href="../../d4/d36/namespacefl_abb4917bf7e0fc28049964497cb88305f.html#abb4917bf7e0fc28049964497cb88305f" target="_top" xlink:title=" ">
<polygon fill="white" stroke="#666666" points="398,-42.92 301,-42.92 301,-23.92 398,-23.92 398,-42.92"/>
<text text-anchor="middle" x="349.5" y="-30.92" font-family="Helvetica,sans-Serif" font-size="10.00">fl::sin_impl_float</text>
</a>
</g>
</g>
<!-- Node23&#45;&gt;Node24 -->
<g id="edge14_Node000023_Node000024" class="edge">
<title>Node23&#45;&gt;Node24</title>
<g id="a_edge14_Node000023_Node000024"><a xlink:title=" ">
<path fill="none" stroke="#63b8ff" d="M223.72,-43.57C241.53,-42.12 267.13,-40.04 290.51,-38.14"/>
<polygon fill="#63b8ff" stroke="#63b8ff" points="291.03,-41.61 300.71,-37.31 290.46,-34.63 291.03,-41.61"/>
</a>
</g>
</g>
<!-- Node24&#45;&gt;Node6 -->
<g id="edge15_Node000024_Node000006" class="edge">
<title>Node24&#45;&gt;Node6</title>
<g id="a_edge15_Node000024_Node000006"><a xlink:title=" ">
<path fill="none" stroke="#63b8ff" d="M374.79,-23.91C414.96,-9.7 497.16,12.97 561,-11.42 596.27,-24.9 626.73,-58.17 643.12,-78.86"/>
<polygon fill="#63b8ff" stroke="#63b8ff" points="640.39,-81.06 649.26,-86.87 645.95,-76.8 640.39,-81.06"/>
</a>
</g>
</g>
</g>
</svg>

<g id="navigator" transform="translate(0 0)" fill="#404254">
  <rect fill="#f2f5e9" fill-opacity="0.5" stroke="#606060" stroke-width=".5" x="0" y="0" width="60" height="60"/>
  <use id="zoomplus" xlink:href="#zoomPlus" x="17" y="9" onmousedown="handleZoom(evt,'in')"/>
  <use id="zoomminus" xlink:href="#zoomMin" x="42" y="9" onmousedown="handleZoom(evt,'out')"/>
  <use id="reset" xlink:href="#resetDef" x="30" y="36" onmousedown="handleReset()"/>
   <use id="arrowup" xlink:href="#arrowUp" x="0" y="0" onmousedown="handlePan(0,-1)"/>
  <use id="arrowright" xlink:href="#arrowRight" x="0" y="0" onmousedown="handlePan(1,0)"/>
  <use id="arrowdown" xlink:href="#arrowDown" x="0" y="0" onmousedown="handlePan(0,1)"/>
  <use id="arrowleft" xlink:href="#arrowLeft" x="0" y="0" onmousedown="handlePan(-1,0)"/>
</g>
<svg viewBox="0 0 15 15" width="100%" height="30px" preserveAspectRatio="xMaxYMin meet">
 <g id="arrow_out" transform="scale(0.3 0.3)">
  <a xlink:href="classfl_1_1_water___f_p_a3779008fb9608c2e82ba29cf63b6d44f_a3779008fb9608c2e82ba29cf63b6d44f_cgraph_org.svg" target="_base">
   <rect id="button" ry="5" rx="5" y="6" x="6" height="38" width="38"
        fill="#f2f5e9" fill-opacity="0.5" stroke="#606060" stroke-width="1.0"/>
   <path id="arrow"
     d="M 11.500037,31.436501 C 11.940474,20.09759 22.043105,11.32322 32.158766,21.979434 L 37.068811,17.246167 C 37.068811,17.246167 37.088388,32 37.088388,32 L 22.160133,31.978069 C 22.160133,31.978069 26.997745,27.140456 26.997745,27.140456 C 18.528582,18.264221 13.291696,25.230495 11.500037,31.436501 z"
     style="fill:#404040;"/>
  </a>
 </g>
</svg>

<style type='text/css'>
<![CDATA[
[data-mouse-over-selected='false'] { opacity: 0.7; }
[data-mouse-over-selected='true']  { opacity: 1.0; }
]]>
</style>
<script type="application/ecmascript"><![CDATA[
document.addEventListener('DOMContentLoaded', (event) => {
  highlightEdges();
  highlightAdjacentNodes();
});
]]></script>
</svg>
