<?xml version="1.0" encoding="UTF-8" standalone="no"?>
<!DOCTYPE svg PUBLIC "-//W3C//DTD SVG 1.1//EN"
 "http://www.w3.org/Graphics/SVG/1.1/DTD/svg11.dtd">
<!-- Generated by graphviz version 2.43.0 (0)
 -->
<!-- Title: fl::detail::JsonToType&lt; fl::json, void &gt;::convert Pages: 1 -->
<svg width="385pt" height="38pt"
 viewBox="0.00 0.00 385.00 38.00" xmlns="http://www.w3.org/2000/svg" xmlns:xlink="http://www.w3.org/1999/xlink">
<g id="graph0" class="graph" transform="scale(1 1) rotate(0) translate(4 34)">
<title>fl::detail::JsonToType&lt; fl::json, void &gt;::convert</title>
<!-- Node1 -->
<g id="Node000001" class="node">
<title>Node1</title>
<g id="a_Node000001"><a xlink:title=" ">
<polygon fill="#999999" stroke="#666666" points="141,-30 0,-30 0,0 141,0 141,-30"/>
<text text-anchor="start" x="8" y="-18" font-family="Helvetica,sans-Serif" font-size="10.00">fl::detail::JsonToType</text>
<text text-anchor="middle" x="70.5" y="-7" font-family="Helvetica,sans-Serif" font-size="10.00">&lt; fl::json, void &gt;::convert</text>
</a>
</g>
</g>
<!-- Node2 -->
<g id="Node000002" class="node">
<title>Node2</title>
<g id="a_Node000002"><a xlink:href="../../d4/d36/namespacefl_a8c18961c82484f938000c3a24be290e1.html#a8c18961c82484f938000c3a24be290e1" target="_top" xlink:title=" ">
<polygon fill="white" stroke="#666666" points="263,-24.5 177,-24.5 177,-5.5 263,-5.5 263,-24.5"/>
<text text-anchor="middle" x="220" y="-12.5" font-family="Helvetica,sans-Serif" font-size="10.00">fl::make_tuple</text>
</a>
</g>
</g>
<!-- Node1&#45;&gt;Node2 -->
<g id="edge1_Node000001_Node000002" class="edge">
<title>Node1&#45;&gt;Node2</title>
<g id="a_edge1_Node000001_Node000002"><a xlink:title=" ">
<path fill="none" stroke="#63b8ff" d="M141.36,-15C149.84,-15 158.39,-15 166.56,-15"/>
<polygon fill="#63b8ff" stroke="#63b8ff" points="166.67,-18.5 176.67,-15 166.67,-11.5 166.67,-18.5"/>
</a>
</g>
</g>
<!-- Node3 -->
<g id="Node000003" class="node">
<title>Node3</title>
<g id="a_Node000003"><a xlink:href="../../da/d3c/namespacefl_1_1fl_a0bddf371925d8c4e94b88e9d7b35d259.html#a0bddf371925d8c4e94b88e9d7b35d259" target="_top" xlink:title=" ">
<polygon fill="white" stroke="#666666" points="377,-24.5 299,-24.5 299,-5.5 377,-5.5 377,-24.5"/>
<text text-anchor="middle" x="338" y="-12.5" font-family="Helvetica,sans-Serif" font-size="10.00">fl::fl::forward</text>
</a>
</g>
</g>
<!-- Node2&#45;&gt;Node3 -->
<g id="edge2_Node000002_Node000003" class="edge">
<title>Node2&#45;&gt;Node3</title>
<g id="a_edge2_Node000002_Node000003"><a xlink:title=" ">
<path fill="none" stroke="#63b8ff" d="M263.21,-15C271.5,-15 280.25,-15 288.72,-15"/>
<polygon fill="#63b8ff" stroke="#63b8ff" points="288.86,-18.5 298.86,-15 288.86,-11.5 288.86,-18.5"/>
</a>
</g>
</g>
</g>
</svg>
