<?xml version="1.0" encoding="UTF-8" standalone="no"?>
<!DOCTYPE svg PUBLIC "-//W3C//DTD SVG 1.1//EN"
 "http://www.w3.org/Graphics/SVG/1.1/DTD/svg11.dtd">
<!-- Generated by graphviz version 2.43.0 (0)
 -->
<!-- Title: fl::CRGB::colorBoost Pages: 1 -->
<svg width="565pt" height="360pt"
 viewBox="0.00 0.00 565.00 360.00" xmlns="http://www.w3.org/2000/svg" xmlns:xlink="http://www.w3.org/1999/xlink">
<g id="graph0" class="graph" transform="scale(1 1) rotate(0) translate(4 356)">
<title>fl::CRGB::colorBoost</title>
<!-- Node1 -->
<g id="Node000001" class="node">
<title>Node1</title>
<g id="a_Node000001"><a xlink:title=" ">
<polygon fill="#999999" stroke="#666666" points="114,-203 0,-203 0,-184 114,-184 114,-203"/>
<text text-anchor="middle" x="57" y="-191" font-family="Helvetica,sans-Serif" font-size="10.00">fl::CRGB::colorBoost</text>
</a>
</g>
</g>
<!-- Node2 -->
<g id="Node000002" class="node">
<title>Node2</title>
<g id="a_Node000002"><a xlink:href="../../da/dd6/structfl_1_1_c_r_g_b_adb891cc4fe8f5ac2188d72c13c0256fd.html#adb891cc4fe8f5ac2188d72c13c0256fd" target="_top" xlink:title="Default constructor.">
<polygon fill="white" stroke="#666666" points="254.5,-222 164.5,-222 164.5,-203 254.5,-203 254.5,-222"/>
<text text-anchor="middle" x="209.5" y="-210" font-family="Helvetica,sans-Serif" font-size="10.00">fl::CRGB::CRGB</text>
</a>
</g>
</g>
<!-- Node1&#45;&gt;Node2 -->
<g id="edge1_Node000001_Node000002" class="edge">
<title>Node1&#45;&gt;Node2</title>
<g id="a_edge1_Node000001_Node000002"><a xlink:title=" ">
<path fill="none" stroke="#63b8ff" d="M114.04,-200.57C127.1,-202.22 140.98,-203.98 153.97,-205.62"/>
<polygon fill="#63b8ff" stroke="#63b8ff" points="153.81,-209.12 164.17,-206.9 154.68,-202.18 153.81,-209.12"/>
</a>
</g>
</g>
<!-- Node3 -->
<g id="Node000003" class="node">
<title>Node3</title>
<g id="a_Node000003"><a xlink:href="../../d4/d5d/structfl_1_1_h_s_v16_a76546a195f4bb8cce8ac071d4d7786d4.html#a76546a195f4bb8cce8ac071d4d7786d4" target="_top" xlink:title=" ">
<polygon fill="white" stroke="#666666" points="269,-185 150,-185 150,-166 269,-166 269,-185"/>
<text text-anchor="middle" x="209.5" y="-173" font-family="Helvetica,sans-Serif" font-size="10.00">fl::HSV16::colorBoost</text>
</a>
</g>
</g>
<!-- Node1&#45;&gt;Node3 -->
<g id="edge2_Node000001_Node000003" class="edge">
<title>Node1&#45;&gt;Node3</title>
<g id="a_edge2_Node000001_Node000003"><a xlink:title=" ">
<path fill="none" stroke="#63b8ff" d="M114.04,-186.8C122.45,-185.79 131.2,-184.74 139.84,-183.71"/>
<polygon fill="#63b8ff" stroke="#63b8ff" points="140.38,-187.17 149.9,-182.51 139.55,-180.22 140.38,-187.17"/>
</a>
</g>
</g>
<!-- Node4 -->
<g id="Node000004" class="node">
<title>Node4</title>
<g id="a_Node000004"><a xlink:href="../../d4/d5d/structfl_1_1_h_s_v16_afb1735cc73fa0e364b7a24893e2f6f8b.html#afb1735cc73fa0e364b7a24893e2f6f8b" target="_top" xlink:title=" ">
<polygon fill="white" stroke="#666666" points="404,-222 305,-222 305,-203 404,-203 404,-222"/>
<text text-anchor="middle" x="354.5" y="-210" font-family="Helvetica,sans-Serif" font-size="10.00">fl::HSV16::HSV16</text>
</a>
</g>
</g>
<!-- Node3&#45;&gt;Node4 -->
<g id="edge3_Node000003_Node000004" class="edge">
<title>Node3&#45;&gt;Node4</title>
<g id="a_edge3_Node000003_Node000004"><a xlink:title=" ">
<path fill="none" stroke="#63b8ff" d="M247.33,-185.03C265.37,-189.7 287.29,-195.37 306.52,-200.35"/>
<polygon fill="#63b8ff" stroke="#63b8ff" points="305.74,-203.76 316.3,-202.88 307.5,-196.98 305.74,-203.76"/>
</a>
</g>
</g>
<!-- Node5 -->
<g id="Node000005" class="node">
<title>Node5</title>
<g id="a_Node000005"><a xlink:href="../../d4/d36/namespacefl_adbc9938a37fd2f52f4c865a78914f420.html#adbc9938a37fd2f52f4c865a78914f420" target="_top" xlink:title=" ">
<polygon fill="white" stroke="#666666" points="386.5,-185 322.5,-185 322.5,-166 386.5,-166 386.5,-185"/>
<text text-anchor="middle" x="354.5" y="-173" font-family="Helvetica,sans-Serif" font-size="10.00">fl::ease16</text>
</a>
</g>
</g>
<!-- Node3&#45;&gt;Node5 -->
<g id="edge4_Node000003_Node000005" class="edge">
<title>Node3&#45;&gt;Node5</title>
<g id="a_edge4_Node000003_Node000005"><a xlink:title=" ">
<path fill="none" stroke="#63b8ff" d="M269.08,-175.5C283.44,-175.5 298.52,-175.5 311.9,-175.5"/>
<polygon fill="#63b8ff" stroke="#63b8ff" points="312.22,-179 322.22,-175.5 312.22,-172 312.22,-179"/>
</a>
</g>
</g>
<!-- Node20 -->
<g id="Node000020" class="node">
<title>Node20</title>
<g id="a_Node000020"><a xlink:href="../../d4/d5d/structfl_1_1_h_s_v16_a66d9cc0fccee4175baaef83f1a2d7d7d.html#a66d9cc0fccee4175baaef83f1a2d7d7d" target="_top" xlink:title=" ">
<polygon fill="white" stroke="#666666" points="403.5,-93 305.5,-93 305.5,-74 403.5,-74 403.5,-93"/>
<text text-anchor="middle" x="354.5" y="-81" font-family="Helvetica,sans-Serif" font-size="10.00">fl::HSV16::ToRGB</text>
</a>
</g>
</g>
<!-- Node3&#45;&gt;Node20 -->
<g id="edge14_Node000003_Node000020" class="edge">
<title>Node3&#45;&gt;Node20</title>
<g id="a_edge14_Node000003_Node000020"><a xlink:title=" ">
<path fill="none" stroke="#63b8ff" d="M225.53,-165.83C250.49,-149.77 300.64,-117.51 330.2,-98.49"/>
<polygon fill="#63b8ff" stroke="#63b8ff" points="332.15,-101.4 338.67,-93.04 328.36,-95.51 332.15,-101.4"/>
</a>
</g>
</g>
<!-- Node6 -->
<g id="Node000006" class="node">
<title>Node6</title>
<g id="a_Node000006"><a xlink:href="../../d4/d36/namespacefl_a8b74797175db9120ba049e55c58a38e8.html#a8b74797175db9120ba049e55c58a38e8" target="_top" xlink:title="16&#45;bit cubic ease&#45;in function Takes an input value 0&#45;65535 and returns an eased value 0&#45;65535">
<polygon fill="white" stroke="#666666" points="548.5,-352 448.5,-352 448.5,-333 548.5,-333 548.5,-352"/>
<text text-anchor="middle" x="498.5" y="-340" font-family="Helvetica,sans-Serif" font-size="10.00">fl::easeInCubic16</text>
</a>
</g>
</g>
<!-- Node5&#45;&gt;Node6 -->
<g id="edge5_Node000005_Node000006" class="edge">
<title>Node5&#45;&gt;Node6</title>
<g id="a_edge5_Node000005_Node000006"><a xlink:title=" ">
<path fill="none" stroke="#63b8ff" d="M386.64,-182.79C393.09,-185.55 399.34,-189.33 404,-194.5 444.15,-239.02 398.32,-281.41 440,-324.5 440.92,-325.45 441.89,-326.35 442.9,-327.21"/>
<polygon fill="#63b8ff" stroke="#63b8ff" points="441.12,-330.22 451.38,-332.87 445.01,-324.4 441.12,-330.22"/>
</a>
</g>
</g>
<!-- Node7 -->
<g id="Node000007" class="node">
<title>Node7</title>
<g id="a_Node000007"><a xlink:href="../../d4/d36/namespacefl_ad8823354aeba367c5186ac293c2af395.html#ad8823354aeba367c5186ac293c2af395" target="_top" xlink:title="16&#45;bit cubic ease&#45;in/ease&#45;out function Takes an input value 0&#45;65535 and returns an eased value 0&#45;6553...">
<polygon fill="white" stroke="#666666" points="557,-315 440,-315 440,-296 557,-296 557,-315"/>
<text text-anchor="middle" x="498.5" y="-303" font-family="Helvetica,sans-Serif" font-size="10.00">fl::easeInOutCubic16</text>
</a>
</g>
</g>
<!-- Node5&#45;&gt;Node7 -->
<g id="edge6_Node000005_Node000007" class="edge">
<title>Node5&#45;&gt;Node7</title>
<g id="a_edge6_Node000005_Node000007"><a xlink:title=" ">
<path fill="none" stroke="#63b8ff" d="M386.52,-183.25C392.91,-185.98 399.15,-189.63 404,-194.5 435.28,-225.9 407.64,-257.21 440,-287.5 441.15,-288.57 442.35,-289.58 443.61,-290.53"/>
<polygon fill="#63b8ff" stroke="#63b8ff" points="442.2,-293.76 452.57,-295.96 445.83,-287.78 442.2,-293.76"/>
</a>
</g>
</g>
<!-- Node8 -->
<g id="Node000008" class="node">
<title>Node8</title>
<g id="a_Node000008"><a xlink:href="../../d4/d36/namespacefl_aff27cf9c4119c4732f1663150a29bc7a.html#aff27cf9c4119c4732f1663150a29bc7a" target="_top" xlink:title="16&#45;bit quadratic ease&#45;in/ease&#45;out function Takes an input value 0&#45;65535 and returns an eased value 0&#45;...">
<polygon fill="white" stroke="#666666" points="556.5,-278 440.5,-278 440.5,-259 556.5,-259 556.5,-278"/>
<text text-anchor="middle" x="498.5" y="-266" font-family="Helvetica,sans-Serif" font-size="10.00">fl::easeInOutQuad16</text>
</a>
</g>
</g>
<!-- Node5&#45;&gt;Node8 -->
<g id="edge7_Node000005_Node000008" class="edge">
<title>Node5&#45;&gt;Node8</title>
<g id="a_edge7_Node000005_Node000008"><a xlink:title=" ">
<path fill="none" stroke="#63b8ff" d="M386.59,-184.33C392.76,-186.97 398.89,-190.32 404,-194.5 426.89,-213.25 416.47,-232.56 440,-250.5 441.82,-251.89 443.76,-253.18 445.77,-254.36"/>
<polygon fill="#63b8ff" stroke="#63b8ff" points="444.48,-257.63 454.99,-258.96 447.6,-251.36 444.48,-257.63"/>
</a>
</g>
</g>
<!-- Node9 -->
<g id="Node000009" class="node">
<title>Node9</title>
<g id="a_Node000009"><a xlink:href="../../d4/d36/namespacefl_ab1554ada73484848739ca7aa2862e5f1.html#ab1554ada73484848739ca7aa2862e5f1" target="_top" xlink:title="16&#45;bit sine ease&#45;in/ease&#45;out function Takes an input value 0&#45;65535 and returns an eased value 0&#45;65535">
<polygon fill="#fff0f0" stroke="red" points="554,-241 443,-241 443,-222 554,-222 554,-241"/>
<text text-anchor="middle" x="498.5" y="-229" font-family="Helvetica,sans-Serif" font-size="10.00">fl::easeInOutSine16</text>
</a>
</g>
</g>
<!-- Node5&#45;&gt;Node9 -->
<g id="edge8_Node000005_Node000009" class="edge">
<title>Node5&#45;&gt;Node9</title>
<g id="a_edge8_Node000005_Node000009"><a xlink:title=" ">
<path fill="none" stroke="#63b8ff" d="M381.4,-185.03C388.77,-187.91 396.76,-191.19 404,-194.5 420.45,-202.03 423.3,-206.55 440,-213.5 444.41,-215.34 449.09,-217.09 453.78,-218.74"/>
<polygon fill="#63b8ff" stroke="#63b8ff" points="452.79,-222.1 463.38,-221.95 455.01,-215.46 452.79,-222.1"/>
</a>
</g>
</g>
<!-- Node15 -->
<g id="Node000015" class="node">
<title>Node15</title>
<g id="a_Node000015"><a xlink:href="../../d4/d36/namespacefl_a65b52c144968bcdb8a1c2594cc9f57af.html#a65b52c144968bcdb8a1c2594cc9f57af" target="_top" xlink:title="16&#45;bit quadratic ease&#45;in function Takes an input value 0&#45;65535 and returns an eased value 0&#45;65535">
<polygon fill="white" stroke="#666666" points="547.5,-204 449.5,-204 449.5,-185 547.5,-185 547.5,-204"/>
<text text-anchor="middle" x="498.5" y="-192" font-family="Helvetica,sans-Serif" font-size="10.00">fl::easeInQuad16</text>
</a>
</g>
</g>
<!-- Node5&#45;&gt;Node15 -->
<g id="edge9_Node000005_Node000015" class="edge">
<title>Node5&#45;&gt;Node15</title>
<g id="a_edge9_Node000005_Node000015"><a xlink:title=" ">
<path fill="none" stroke="#63b8ff" d="M386.66,-179.67C402.09,-181.73 421.23,-184.29 439.23,-186.7"/>
<polygon fill="#63b8ff" stroke="#63b8ff" points="439,-190.2 449.38,-188.06 439.93,-183.27 439,-190.2"/>
</a>
</g>
</g>
<!-- Node16 -->
<g id="Node000016" class="node">
<title>Node16</title>
<g id="a_Node000016"><a xlink:href="../../d4/d36/namespacefl_a9d07775cc4c7d6733b433f0775ef3975.html#a9d07775cc4c7d6733b433f0775ef3975" target="_top" xlink:title="16&#45;bit sine ease&#45;in function Takes an input value 0&#45;65535 and returns an eased value 0&#45;65535">
<polygon fill="#fff0f0" stroke="red" points="545.5,-167 451.5,-167 451.5,-148 545.5,-148 545.5,-167"/>
<text text-anchor="middle" x="498.5" y="-155" font-family="Helvetica,sans-Serif" font-size="10.00">fl::easeInSine16</text>
</a>
</g>
</g>
<!-- Node5&#45;&gt;Node16 -->
<g id="edge10_Node000005_Node000016" class="edge">
<title>Node5&#45;&gt;Node16</title>
<g id="a_edge10_Node000005_Node000016"><a xlink:title=" ">
<path fill="none" stroke="#63b8ff" d="M386.66,-171.55C402.64,-169.52 422.61,-166.99 441.17,-164.64"/>
<polygon fill="#63b8ff" stroke="#63b8ff" points="441.82,-168.09 451.3,-163.36 440.94,-161.14 441.82,-168.09"/>
</a>
</g>
</g>
<!-- Node17 -->
<g id="Node000017" class="node">
<title>Node17</title>
<g id="a_Node000017"><a xlink:href="../../d4/d36/namespacefl_abad5ed43fd0a80c537f41bddf4bd5bcc.html#abad5ed43fd0a80c537f41bddf4bd5bcc" target="_top" xlink:title="16&#45;bit cubic ease&#45;out function Takes an input value 0&#45;65535 and returns an eased value 0&#45;65535">
<polygon fill="white" stroke="#666666" points="552.5,-130 444.5,-130 444.5,-111 552.5,-111 552.5,-130"/>
<text text-anchor="middle" x="498.5" y="-118" font-family="Helvetica,sans-Serif" font-size="10.00">fl::easeOutCubic16</text>
</a>
</g>
</g>
<!-- Node5&#45;&gt;Node17 -->
<g id="edge11_Node000005_Node000017" class="edge">
<title>Node5&#45;&gt;Node17</title>
<g id="a_edge11_Node000005_Node000017"><a xlink:title=" ">
<path fill="none" stroke="#63b8ff" d="M376.48,-165.98C393.46,-158.42 418.07,-147.78 440,-139.5 445.55,-137.41 451.44,-135.31 457.25,-133.32"/>
<polygon fill="#63b8ff" stroke="#63b8ff" points="458.53,-136.59 466.9,-130.09 456.3,-129.95 458.53,-136.59"/>
</a>
</g>
</g>
<!-- Node18 -->
<g id="Node000018" class="node">
<title>Node18</title>
<g id="a_Node000018"><a xlink:href="../../d4/d36/namespacefl_a8ab1577ba0a80cdab339d7a637c10516.html#a8ab1577ba0a80cdab339d7a637c10516" target="_top" xlink:title="16&#45;bit quadratic ease&#45;out function Takes an input value 0&#45;65535 and returns an eased value 0&#45;65535">
<polygon fill="white" stroke="#666666" points="552,-93 445,-93 445,-74 552,-74 552,-93"/>
<text text-anchor="middle" x="498.5" y="-81" font-family="Helvetica,sans-Serif" font-size="10.00">fl::easeOutQuad16</text>
</a>
</g>
</g>
<!-- Node5&#45;&gt;Node18 -->
<g id="edge12_Node000005_Node000018" class="edge">
<title>Node5&#45;&gt;Node18</title>
<g id="a_edge12_Node000005_Node000018"><a xlink:title=" ">
<path fill="none" stroke="#63b8ff" d="M364.43,-165.6C378.89,-150.11 408.97,-120.09 440,-102.5 443.7,-100.4 447.68,-98.49 451.74,-96.76"/>
<polygon fill="#63b8ff" stroke="#63b8ff" points="453.24,-99.93 461.29,-93.05 450.7,-93.41 453.24,-99.93"/>
</a>
</g>
</g>
<!-- Node19 -->
<g id="Node000019" class="node">
<title>Node19</title>
<g id="a_Node000019"><a xlink:href="../../d4/d36/namespacefl_ac7e0036bfa0fd076b4f57e1aa67e9cb5.html#ac7e0036bfa0fd076b4f57e1aa67e9cb5" target="_top" xlink:title="16&#45;bit sine ease&#45;out function Takes an input value 0&#45;65535 and returns an eased value 0&#45;65535">
<polygon fill="#fff0f0" stroke="red" points="549.5,-56 447.5,-56 447.5,-37 549.5,-37 549.5,-56"/>
<text text-anchor="middle" x="498.5" y="-44" font-family="Helvetica,sans-Serif" font-size="10.00">fl::easeOutSine16</text>
</a>
</g>
</g>
<!-- Node5&#45;&gt;Node19 -->
<g id="edge13_Node000005_Node000019" class="edge">
<title>Node5&#45;&gt;Node19</title>
<g id="a_edge13_Node000005_Node000019"><a xlink:title=" ">
<path fill="none" stroke="#63b8ff" d="M361.83,-165.84C377.8,-141.73 419.87,-79.79 440,-65.5 442.7,-63.58 445.61,-61.85 448.63,-60.28"/>
<polygon fill="#63b8ff" stroke="#63b8ff" points="450.27,-63.38 457.94,-56.08 447.39,-57 450.27,-63.38"/>
</a>
</g>
</g>
<!-- Node21 -->
<g id="Node000021" class="node">
<title>Node21</title>
<g id="a_Node000021"><a xlink:href="../../d4/d36/namespacefl_a0704405150c9e2ea2647360203eef1a7.html#a0704405150c9e2ea2647360203eef1a7" target="_top" xlink:title=" ">
<polygon fill="#fff0f0" stroke="red" points="544.5,-19 452.5,-19 452.5,0 544.5,0 544.5,-19"/>
<text text-anchor="middle" x="498.5" y="-7" font-family="Helvetica,sans-Serif" font-size="10.00">fl::HSV16toRGB</text>
</a>
</g>
</g>
<!-- Node20&#45;&gt;Node21 -->
<g id="edge15_Node000020_Node000021" class="edge">
<title>Node20&#45;&gt;Node21</title>
<g id="a_edge15_Node000020_Node000021"><a xlink:title=" ">
<path fill="none" stroke="#63b8ff" d="M368.06,-73.83C384.05,-61.89 412.87,-41.54 440,-28.5 444.56,-26.31 449.44,-24.27 454.36,-22.4"/>
<polygon fill="#63b8ff" stroke="#63b8ff" points="455.55,-25.69 463.78,-19.03 453.19,-19.1 455.55,-25.69"/>
</a>
</g>
</g>
</g>
</svg>
