<?xml version="1.0" encoding="UTF-8" standalone="no"?>
<!DOCTYPE svg PUBLIC "-//W3C//DTD SVG 1.1//EN"
 "http://www.w3.org/Graphics/SVG/1.1/DTD/svg11.dtd">
<!-- Generated by graphviz version 2.43.0 (0)
 -->
<!-- Title: fl::JsonValue::parse Pages: 1 -->
<svg width="612pt" height="167pt"
 viewBox="0.00 0.00 612.00 167.00" xmlns="http://www.w3.org/2000/svg" xmlns:xlink="http://www.w3.org/1999/xlink">
<g id="graph0" class="graph" transform="scale(1 1) rotate(0) translate(4 163)">
<title>fl::JsonValue::parse</title>
<!-- Node1 -->
<g id="Node000001" class="node">
<title>Node1</title>
<g id="a_Node000001"><a xlink:title=" ">
<polygon fill="#999999" stroke="#666666" points="604,-74 495,-74 495,-55 604,-55 604,-74"/>
<text text-anchor="middle" x="549.5" y="-62" font-family="Helvetica,sans-Serif" font-size="10.00">fl::JsonValue::parse</text>
</a>
</g>
</g>
<!-- Node2 -->
<g id="Node000002" class="node">
<title>Node2</title>
<g id="a_Node000002"><a xlink:href="../../d4/d13/classfl_1_1_json_acba319cd1a600f1a88beeecab57d4e7c.html#acba319cd1a600f1a88beeecab57d4e7c" target="_top" xlink:title=" ">
<polygon fill="white" stroke="#666666" points="459,-74 377,-74 377,-55 459,-55 459,-74"/>
<text text-anchor="middle" x="418" y="-62" font-family="Helvetica,sans-Serif" font-size="10.00">fl::Json::parse</text>
</a>
</g>
</g>
<!-- Node1&#45;&gt;Node2 -->
<g id="edge1_Node000001_Node000002" class="edge">
<title>Node1&#45;&gt;Node2</title>
<g id="a_edge1_Node000001_Node000002"><a xlink:title=" ">
<path fill="none" stroke="#63b8ff" d="M484.54,-64.5C475.83,-64.5 467.11,-64.5 459,-64.5"/>
<polygon fill="#63b8ff" stroke="#63b8ff" points="484.71,-68 494.71,-64.5 484.71,-61 484.71,-68"/>
</a>
</g>
</g>
<!-- Node3 -->
<g id="Node000003" class="node">
<title>Node3</title>
<g id="a_Node000003"><a xlink:href="../../d5/d4b/classfl_1_1response_a913de93f1614c93e29ae0c1b3219a0b1.html#a913de93f1614c93e29ae0c1b3219a0b1" target="_top" xlink:title="Parse JSON from response body with error handling.">
<polygon fill="white" stroke="#666666" points="326.5,-156.5 220.5,-156.5 220.5,-126.5 326.5,-126.5 326.5,-156.5"/>
<text text-anchor="start" x="228.5" y="-144.5" font-family="Helvetica,sans-Serif" font-size="10.00">fl::response::parse</text>
<text text-anchor="middle" x="273.5" y="-133.5" font-family="Helvetica,sans-Serif" font-size="10.00">_json_body</text>
</a>
</g>
</g>
<!-- Node2&#45;&gt;Node3 -->
<g id="edge2_Node000002_Node000003" class="edge">
<title>Node2&#45;&gt;Node3</title>
<g id="a_edge2_Node000002_Node000003"><a xlink:title=" ">
<path fill="none" stroke="#63b8ff" d="M390.27,-78.94C365.16,-92.51 327.75,-112.73 302.3,-126.48"/>
<polygon fill="#63b8ff" stroke="#63b8ff" points="392.11,-81.93 399.24,-74.1 388.78,-75.77 392.11,-81.93"/>
</a>
</g>
</g>
<!-- Node8 -->
<g id="Node000008" class="node">
<title>Node8</title>
<g id="a_Node000008"><a xlink:href="../../d2/d78/classfl_1_1_screen_map_a00aec6179fcbe0275fe7ca8770540b3c.html#a00aec6179fcbe0275fe7ca8770540b3c" target="_top" xlink:title=" ">
<polygon fill="white" stroke="#666666" points="341,-93 206,-93 206,-74 341,-74 341,-93"/>
<text text-anchor="middle" x="273.5" y="-81" font-family="Helvetica,sans-Serif" font-size="10.00">fl::ScreenMap::ParseJson</text>
</a>
</g>
</g>
<!-- Node2&#45;&gt;Node8 -->
<g id="edge4_Node000002_Node000008" class="edge">
<title>Node2&#45;&gt;Node8</title>
<g id="a_edge4_Node000002_Node000008"><a xlink:title=" ">
<path fill="none" stroke="#63b8ff" d="M367.01,-71.17C358.67,-72.28 349.91,-73.44 341.24,-74.6"/>
<polygon fill="#63b8ff" stroke="#63b8ff" points="367.48,-74.63 376.93,-69.84 366.55,-67.7 367.48,-74.63"/>
</a>
</g>
</g>
<!-- Node12 -->
<g id="Node000012" class="node">
<title>Node12</title>
<g id="a_Node000012"><a xlink:href="../../df/d37/classfl_1_1_file_system_a3f0ff67d5535787004eed6968145cc64.html#a3f0ff67d5535787004eed6968145cc64" target="_top" xlink:title=" ">
<polygon fill="white" stroke="#666666" points="339,-56 208,-56 208,-37 339,-37 339,-56"/>
<text text-anchor="middle" x="273.5" y="-44" font-family="Helvetica,sans-Serif" font-size="10.00">fl::FileSystem::readJson</text>
</a>
</g>
</g>
<!-- Node2&#45;&gt;Node12 -->
<g id="edge8_Node000002_Node000012" class="edge">
<title>Node2&#45;&gt;Node12</title>
<g id="a_edge8_Node000002_Node000012"><a xlink:title=" ">
<path fill="none" stroke="#63b8ff" d="M366.99,-58.18C357.97,-57.04 348.44,-55.84 339.08,-54.66"/>
<polygon fill="#63b8ff" stroke="#63b8ff" points="366.57,-61.66 376.93,-59.44 367.44,-54.71 366.57,-61.66"/>
</a>
</g>
</g>
<!-- Node13 -->
<g id="Node000013" class="node">
<title>Node13</title>
<g id="a_Node000013"><a xlink:href="../../d0/dd3/_json_sketch_8h_a4fc01d736fe50cf5b977f755b675f11d.html#a4fc01d736fe50cf5b977f755b675f11d" target="_top" xlink:title=" ">
<polygon fill="white" stroke="#666666" points="295.5,-19 251.5,-19 251.5,0 295.5,0 295.5,-19"/>
<text text-anchor="middle" x="273.5" y="-7" font-family="Helvetica,sans-Serif" font-size="10.00">setup</text>
</a>
</g>
</g>
<!-- Node2&#45;&gt;Node13 -->
<g id="edge9_Node000002_Node000013" class="edge">
<title>Node2&#45;&gt;Node13</title>
<g id="a_edge9_Node000002_Node000013"><a xlink:title=" ">
<path fill="none" stroke="#63b8ff" d="M390.35,-49.99C376.01,-42.58 357.86,-33.82 341,-27.5 326.22,-21.96 309,-17.35 295.79,-14.18"/>
<polygon fill="#63b8ff" stroke="#63b8ff" points="389.12,-53.3 399.6,-54.86 392.38,-47.11 389.12,-53.3"/>
</a>
</g>
</g>
<!-- Node4 -->
<g id="Node000004" class="node">
<title>Node4</title>
<g id="a_Node000004"><a xlink:href="../../d5/d4b/classfl_1_1response_a1b8301f50ee0dc36b49ab157423d3a22.html#a1b8301f50ee0dc36b49ab157423d3a22" target="_top" xlink:title="Response body parsed as JSON (JavaScript&#45;like API)">
<polygon fill="#fff0f0" stroke="red" points="134.5,-159 35.5,-159 35.5,-140 134.5,-140 134.5,-159"/>
<text text-anchor="middle" x="85" y="-147" font-family="Helvetica,sans-Serif" font-size="10.00">fl::response::json</text>
</a>
</g>
</g>
<!-- Node3&#45;&gt;Node4 -->
<g id="edge3_Node000003_Node000004" class="edge">
<title>Node3&#45;&gt;Node4</title>
<g id="a_edge3_Node000003_Node000004"><a xlink:title=" ">
<path fill="none" stroke="#63b8ff" d="M209.75,-144.19C185.21,-145.24 157.51,-146.43 134.54,-147.42"/>
<polygon fill="#63b8ff" stroke="#63b8ff" points="210.21,-147.68 220.05,-143.75 209.91,-140.68 210.21,-147.68"/>
</a>
</g>
</g>
<!-- Node9 -->
<g id="Node000009" class="node">
<title>Node9</title>
<g id="a_Node000009"><a xlink:href="../../d2/d78/classfl_1_1_screen_map_a514190d17695adf603d1e2bc0eb56c23.html#a514190d17695adf603d1e2bc0eb56c23" target="_top" xlink:title=" ">
<polygon fill="white" stroke="#666666" points="152.5,-122 17.5,-122 17.5,-103 152.5,-103 152.5,-122"/>
<text text-anchor="middle" x="85" y="-110" font-family="Helvetica,sans-Serif" font-size="10.00">fl::ScreenMap::ParseJson</text>
</a>
</g>
</g>
<!-- Node8&#45;&gt;Node9 -->
<g id="edge5_Node000008_Node000009" class="edge">
<title>Node8&#45;&gt;Node9</title>
<g id="a_edge5_Node000008_Node000009"><a xlink:title=" ">
<path fill="none" stroke="#63b8ff" d="M200.92,-94.63C183.26,-97.38 164.49,-100.29 147.36,-102.96"/>
<polygon fill="#63b8ff" stroke="#63b8ff" points="201.83,-98.03 211.17,-93.04 200.76,-91.11 201.83,-98.03"/>
</a>
</g>
</g>
<!-- Node10 -->
<g id="Node000010" class="node">
<title>Node10</title>
<g id="a_Node000010"><a xlink:href="../../df/d37/classfl_1_1_file_system_a76449b10863a3dee0631213504e817cc.html#a76449b10863a3dee0631213504e817cc" target="_top" xlink:title=" ">
<polygon fill="white" stroke="#666666" points="167,-85 3,-85 3,-66 167,-66 167,-85"/>
<text text-anchor="middle" x="85" y="-73" font-family="Helvetica,sans-Serif" font-size="10.00">fl::FileSystem::readScreenMap</text>
</a>
</g>
</g>
<!-- Node8&#45;&gt;Node10 -->
<g id="edge6_Node000008_Node000010" class="edge">
<title>Node8&#45;&gt;Node10</title>
<g id="a_edge6_Node000008_Node000010"><a xlink:title=" ">
<path fill="none" stroke="#63b8ff" d="M195.83,-80.21C186.38,-79.81 176.71,-79.39 167.2,-78.98"/>
<polygon fill="#63b8ff" stroke="#63b8ff" points="195.82,-83.71 205.96,-80.65 196.12,-76.72 195.82,-83.71"/>
</a>
</g>
</g>
<!-- Node11 -->
<g id="Node000011" class="node">
<title>Node11</title>
<g id="a_Node000011"><a xlink:href="../../df/d37/classfl_1_1_file_system_a6f25f4c4319520cf79e1251de46d91c3.html#a6f25f4c4319520cf79e1251de46d91c3" target="_top" xlink:title=" ">
<polygon fill="white" stroke="#666666" points="170,-48 0,-48 0,-29 170,-29 170,-48"/>
<text text-anchor="middle" x="85" y="-36" font-family="Helvetica,sans-Serif" font-size="10.00">fl::FileSystem::readScreenMaps</text>
</a>
</g>
</g>
<!-- Node8&#45;&gt;Node11 -->
<g id="edge7_Node000008_Node000011" class="edge">
<title>Node8&#45;&gt;Node11</title>
<g id="a_edge7_Node000008_Node000011"><a xlink:title=" ">
<path fill="none" stroke="#63b8ff" d="M228.29,-71.37C210.26,-66.55 189.18,-61.08 170,-56.5 157.81,-53.59 144.58,-50.65 132.3,-48.02"/>
<polygon fill="#63b8ff" stroke="#63b8ff" points="227.4,-74.76 237.97,-73.98 229.22,-68 227.4,-74.76"/>
</a>
</g>
</g>
</g>
</svg>
