<?xml version="1.0" encoding="UTF-8" standalone="no"?>
<!DOCTYPE svg PUBLIC "-//W3C//DTD SVG 1.1//EN"
 "http://www.w3.org/Graphics/SVG/1.1/DTD/svg11.dtd">
<!-- Generated by graphviz version 2.43.0 (0)
 -->
<!-- Title: fl/xymap.cpp Pages: 1 -->
<!--zoomable 357 -->

<svg id="main" version="1.1" xmlns="http://www.w3.org/2000/svg" xmlns:xlink="http://www.w3.org/1999/xlink" xml:space="preserve" onload="init(evt)">

<style type="text/css"><![CDATA[
.node, .edge {opacity: 0.7;}
.node.selected, .edge.selected {opacity: 1;}
.edge:hover path { stroke: red; }
.edge:hover polygon { stroke: red; fill: red; }
]]></style>

<defs>
  <circle id="rim" cx="0" cy="0" r="7"/>
  <circle id="rim2" cx="0" cy="0" r="3.5"/>
  <g id="zoomPlus">
    <use xlink:href="#rim" fill="#404040"><set attributeName="fill" to="#808080" begin="zoomplus.mouseover" end="zoomplus.mouseout"/></use>
    <path d="M-4,0h8M0,-4v8" fill="none" stroke="white" stroke-width="1.5" pointer-events="none"/>
  </g>
  <g id="zoomMin">
    <use xlink:href="#rim" fill="#404040"><set attributeName="fill" to="#808080" begin="zoomminus.mouseover" end="zoomminus.mouseout"/></use>
    <path d="M-4,0h8" fill="none" stroke="white" stroke-width="1.5" pointer-events="none"/>
  </g>
  <g id="arrowUp" transform="translate(30 24)">
    <use xlink:href="#rim"/>
    <path pointer-events="none" fill="none" stroke="white" stroke-width="1.5" d="M0,-3.0v7 M-2.5,-0.5L0,-3.0L2.5,-0.5"/>
  </g>
  <g id="arrowRight" transform="rotate(90) translate(36 -43)">
    <use xlink:href="#rim"/>
    <path pointer-events="none" fill="none" stroke="white" stroke-width="1.5" d="M0,-3.0v7 M-2.5,-0.5L0,-3.0L2.5,-0.5"/>
  </g>
  <g id="arrowDown" transform="rotate(180) translate(-30 -48)">
    <use xlink:href="#rim"/>
    <path pointer-events="none" fill="none" stroke="white" stroke-width="1.5" d="M0,-3.0v7 M-2.5,-0.5L0,-3.0L2.5,-0.5"/>
  </g>
  <g id="arrowLeft" transform="rotate(270) translate(-36 17)">
    <use xlink:href="#rim"/>
    <path pointer-events="none" fill="none" stroke="white" stroke-width="1.5" d="M0,-3.0v7 M-2.5,-0.5L0,-3.0L2.5,-0.5"/>
  </g>
  <g id="resetDef">
    <use xlink:href="#rim2" fill="#404040"><set attributeName="fill" to="#808080" begin="reset.mouseover" end="reset.mouseout"/></use>
  </g>
</defs>
<script type="application/ecmascript">
var viewWidth = 1609;
var viewHeight = 357;
var sectionId = 'dynsection-0';
</script>
<script type="application/ecmascript" xlink:href="../../svg.min.js"/>
<svg id="graph" class="graph">
<g id="viewport">
<title>fl/xymap.cpp</title>
<!-- Node1 -->
<g id="Node000001" class="node">
<title>Node1</title>
<g id="a_Node000001"><a xlink:title=" ">
<polygon fill="#999999" stroke="#666666" points="325,-349 245,-349 245,-330 325,-330 325,-349"/>
<text text-anchor="middle" x="285" y="-337" font-family="Helvetica,sans-Serif" font-size="10.00">fl/xymap.cpp</text>
</a>
</g>
</g>
<!-- Node2 -->
<g id="Node000002" class="node">
<title>Node2</title>
<g id="a_Node000002"><a xlink:title=" ">
<polygon fill="#e0e0e0" stroke="#999999" points="1213.5,-19 1160.5,-19 1160.5,0 1213.5,0 1213.5,-19"/>
<text text-anchor="middle" x="1187" y="-7" font-family="Helvetica,sans-Serif" font-size="10.00">stdint.h</text>
</a>
</g>
</g>
<!-- Node1&#45;&gt;Node2 -->
<g id="edge1_Node000001_Node000002" class="edge">
<title>Node1&#45;&gt;Node2</title>
<g id="a_edge1_Node000001_Node000002"><a xlink:title=" ">
<path fill="none" stroke="#63b8ff" d="M325.1,-337.36C545.65,-330.84 1601,-296.19 1601,-230.5 1601,-230.5 1601,-230.5 1601,-118.5 1601,-73.45 1563.41,-72.73 1522,-55 1468.94,-32.28 1299.57,-18.2 1224.01,-12.9"/>
<polygon fill="#63b8ff" stroke="#63b8ff" points="1224.21,-9.4 1213.99,-12.21 1223.72,-16.39 1224.21,-9.4"/>
</a>
</g>
</g>
<!-- Node3 -->
<g id="Node000003" class="node">
<title>Node3</title>
<g id="a_Node000003"><a xlink:title=" ">
<polygon fill="#e0e0e0" stroke="#999999" points="201.5,-74 148.5,-74 148.5,-55 201.5,-55 201.5,-74"/>
<text text-anchor="middle" x="175" y="-62" font-family="Helvetica,sans-Serif" font-size="10.00">string.h</text>
</a>
</g>
</g>
<!-- Node1&#45;&gt;Node3 -->
<g id="edge2_Node000001_Node000003" class="edge">
<title>Node1&#45;&gt;Node3</title>
<g id="a_edge2_Node000001_Node000003"><a xlink:title=" ">
<path fill="none" stroke="#63b8ff" d="M281.46,-329.73C265.95,-291.22 203.7,-136.74 182.28,-83.58"/>
<polygon fill="#63b8ff" stroke="#63b8ff" points="185.45,-82.07 178.47,-74.11 178.96,-84.69 185.45,-82.07"/>
</a>
</g>
</g>
<!-- Node4 -->
<g id="Node000004" class="node">
<title>Node4</title>
<g id="a_Node000004"><a xlink:href="../../d8/d2d/fl_2force__inline_8h.html" target="_top" xlink:title=" ">
<polygon fill="white" stroke="#666666" points="350,-74 258,-74 258,-55 350,-55 350,-74"/>
<text text-anchor="middle" x="304" y="-62" font-family="Helvetica,sans-Serif" font-size="10.00">fl/force_inline.h</text>
</a>
</g>
</g>
<!-- Node1&#45;&gt;Node4 -->
<g id="edge3_Node000001_Node000004" class="edge">
<title>Node1&#45;&gt;Node4</title>
<g id="a_edge3_Node000001_Node000004"><a xlink:title=" ">
<path fill="none" stroke="#63b8ff" d="M285.13,-329.76C285.67,-299.34 288.07,-195.34 297,-110 297.89,-101.54 299.28,-92.24 300.59,-84.34"/>
<polygon fill="#63b8ff" stroke="#63b8ff" points="304.07,-84.78 302.33,-74.33 297.17,-83.58 304.07,-84.78"/>
</a>
</g>
</g>
<!-- Node5 -->
<g id="Node000005" class="node">
<title>Node5</title>
<g id="a_Node000005"><a xlink:href="../../df/d2a/namespace_8h.html" target="_top" xlink:title="Implements the FastLED namespace macros.">
<polygon fill="white" stroke="#666666" points="537.5,-19 446.5,-19 446.5,0 537.5,0 537.5,-19"/>
<text text-anchor="middle" x="492" y="-7" font-family="Helvetica,sans-Serif" font-size="10.00">fl/namespace.h</text>
</a>
</g>
</g>
<!-- Node1&#45;&gt;Node5 -->
<g id="edge4_Node000001_Node000005" class="edge">
<title>Node1&#45;&gt;Node5</title>
<g id="a_edge4_Node000001_Node000005"><a xlink:title=" ">
<path fill="none" stroke="#63b8ff" d="M244.77,-331.92C166.21,-317.93 0,-282.22 0,-230.5 0,-230.5 0,-230.5 0,-118.5 0,-30.06 307.16,-13.95 436.08,-11.09"/>
<polygon fill="#63b8ff" stroke="#63b8ff" points="436.23,-14.59 446.16,-10.88 436.09,-7.59 436.23,-14.59"/>
</a>
</g>
</g>
<!-- Node6 -->
<g id="Node000006" class="node">
<title>Node6</title>
<g id="a_Node000006"><a xlink:href="../../d6/dc9/fl_2xymap_8h.html" target="_top" xlink:title=" ">
<polygon fill="white" stroke="#666666" points="395,-294 327,-294 327,-275 395,-275 395,-294"/>
<text text-anchor="middle" x="361" y="-282" font-family="Helvetica,sans-Serif" font-size="10.00">fl/xymap.h</text>
</a>
</g>
</g>
<!-- Node1&#45;&gt;Node6 -->
<g id="edge5_Node000001_Node000006" class="edge">
<title>Node1&#45;&gt;Node6</title>
<g id="a_edge5_Node000001_Node000006"><a xlink:title=" ">
<path fill="none" stroke="#63b8ff" d="M297.21,-329.98C308.78,-321.92 326.38,-309.65 340.16,-300.03"/>
<polygon fill="#63b8ff" stroke="#63b8ff" points="342.37,-302.76 348.57,-294.17 338.36,-297.02 342.37,-302.76"/>
</a>
</g>
</g>
<!-- Node18 -->
<g id="Node000018" class="node">
<title>Node18</title>
<g id="a_Node000018"><a xlink:href="../../d7/d0d/fl_2screenmap_8h.html" target="_top" xlink:title=" ">
<polygon fill="white" stroke="#666666" points="644.5,-239 555.5,-239 555.5,-220 644.5,-220 644.5,-239"/>
<text text-anchor="middle" x="600" y="-227" font-family="Helvetica,sans-Serif" font-size="10.00">fl/screenmap.h</text>
</a>
</g>
</g>
<!-- Node1&#45;&gt;Node18 -->
<g id="edge44_Node000001_Node000018" class="edge">
<title>Node1&#45;&gt;Node18</title>
<g id="a_edge44_Node000001_Node000018"><a xlink:title=" ">
<path fill="none" stroke="#63b8ff" d="M309.98,-329.94C365.92,-310.76 501.36,-264.32 565.38,-242.37"/>
<polygon fill="#63b8ff" stroke="#63b8ff" points="566.69,-245.62 575.02,-239.07 564.42,-239 566.69,-245.62"/>
</a>
</g>
</g>
<!-- Node6&#45;&gt;Node2 -->
<g id="edge6_Node000006_Node000002" class="edge">
<title>Node6&#45;&gt;Node2</title>
<g id="a_edge6_Node000006_Node000002"><a xlink:title=" ">
<path fill="none" stroke="#63b8ff" d="M395.04,-282.27C590.65,-275 1563,-235.8 1563,-175.5 1563,-175.5 1563,-175.5 1563,-118.5 1563,-73.11 1524.63,-73.1 1483,-55 1395.51,-16.97 1281.29,-10.6 1223.66,-10.04"/>
<polygon fill="#63b8ff" stroke="#63b8ff" points="1223.59,-6.54 1213.58,-9.99 1223.56,-13.54 1223.59,-6.54"/>
</a>
</g>
</g>
<!-- Node6&#45;&gt;Node3 -->
<g id="edge7_Node000006_Node000003" class="edge">
<title>Node6&#45;&gt;Node3</title>
<g id="a_edge7_Node000006_Node000003"><a xlink:title=" ">
<path fill="none" stroke="#63b8ff" d="M350.15,-274.81C339.67,-266.2 323.57,-252.38 311,-239 260.68,-185.43 209.32,-114.6 186.8,-82.55"/>
<polygon fill="#63b8ff" stroke="#63b8ff" points="189.6,-80.44 181,-74.24 183.86,-84.45 189.6,-80.44"/>
</a>
</g>
</g>
<!-- Node6&#45;&gt;Node4 -->
<g id="edge23_Node000006_Node000004" class="edge">
<title>Node6&#45;&gt;Node4</title>
<g id="a_edge23_Node000006_Node000004"><a xlink:title=" ">
<path fill="none" stroke="#63b8ff" d="M350.08,-274.91C340.61,-266.77 327.45,-253.64 321,-239 297.97,-186.72 299.66,-117.22 302.14,-84.31"/>
<polygon fill="#63b8ff" stroke="#63b8ff" points="305.63,-84.55 303,-74.28 298.65,-83.94 305.63,-84.55"/>
</a>
</g>
</g>
<!-- Node6&#45;&gt;Node5 -->
<g id="edge43_Node000006_Node000005" class="edge">
<title>Node6&#45;&gt;Node5</title>
<g id="a_edge43_Node000006_Node000005"><a xlink:title=" ">
<path fill="none" stroke="#63b8ff" d="M338.69,-274.97C265.57,-245.85 42.4,-147.07 124,-55 144.36,-32.03 338.69,-18.59 436.43,-13.22"/>
<polygon fill="#63b8ff" stroke="#63b8ff" points="436.64,-16.72 446.43,-12.68 436.26,-9.73 436.64,-16.72"/>
</a>
</g>
</g>
<!-- Node7 -->
<g id="Node000007" class="node">
<title>Node7</title>
<g id="a_Node000007"><a xlink:href="../../db/dd1/crgb_8h.html" target="_top" xlink:title="Defines the red, green, and blue (RGB) pixel struct.">
<polygon fill="white" stroke="#666666" points="769.5,-129 722.5,-129 722.5,-110 769.5,-110 769.5,-129"/>
<text text-anchor="middle" x="746" y="-117" font-family="Helvetica,sans-Serif" font-size="10.00">crgb.h</text>
</a>
</g>
</g>
<!-- Node6&#45;&gt;Node7 -->
<g id="edge8_Node000006_Node000007" class="edge">
<title>Node6&#45;&gt;Node7</title>
<g id="a_edge8_Node000006_Node000007"><a xlink:title=" ">
<path fill="none" stroke="#63b8ff" d="M395.41,-283.9C451.68,-283.35 565.84,-277.1 653,-239 688.93,-223.29 698.91,-215.7 722,-184 731.87,-170.46 738.18,-152.37 741.84,-138.96"/>
<polygon fill="#63b8ff" stroke="#63b8ff" points="745.3,-139.55 744.31,-129 738.5,-137.87 745.3,-139.55"/>
</a>
</g>
</g>
<!-- Node12 -->
<g id="Node000012" class="node">
<title>Node12</title>
<g id="a_Node000012"><a xlink:href="../../d3/db6/fl_2lut_8h.html" target="_top" xlink:title=" ">
<polygon fill="white" stroke="#666666" points="493.5,-184 446.5,-184 446.5,-165 493.5,-165 493.5,-184"/>
<text text-anchor="middle" x="470" y="-172" font-family="Helvetica,sans-Serif" font-size="10.00">fl/lut.h</text>
</a>
</g>
</g>
<!-- Node6&#45;&gt;Node12 -->
<g id="edge24_Node000006_Node000012" class="edge">
<title>Node6&#45;&gt;Node12</title>
<g id="a_edge24_Node000006_Node000012"><a xlink:title=" ">
<path fill="none" stroke="#63b8ff" d="M369.92,-274.66C388.29,-256.46 430.59,-214.55 453.88,-191.47"/>
<polygon fill="#63b8ff" stroke="#63b8ff" points="456.62,-193.68 461.26,-184.16 451.69,-188.71 456.62,-193.68"/>
</a>
</g>
</g>
<!-- Node13 -->
<g id="Node000013" class="node">
<title>Node13</title>
<g id="a_Node000013"><a xlink:href="../../d7/df1/fl_2ptr_8h.html" target="_top" xlink:title=" ">
<polygon fill="#fff0f0" stroke="red" points="627.5,-129 580.5,-129 580.5,-110 627.5,-110 627.5,-129"/>
<text text-anchor="middle" x="604" y="-117" font-family="Helvetica,sans-Serif" font-size="10.00">fl/ptr.h</text>
</a>
</g>
</g>
<!-- Node6&#45;&gt;Node13 -->
<g id="edge35_Node000006_Node000013" class="edge">
<title>Node6&#45;&gt;Node13</title>
<g id="a_edge35_Node000006_Node000013"><a xlink:title=" ">
<path fill="none" stroke="#63b8ff" d="M374.55,-274.9C388.51,-266.01 410.87,-251.68 430,-239 485.69,-202.09 550.58,-157.46 583.12,-134.97"/>
<polygon fill="#63b8ff" stroke="#63b8ff" points="585.18,-137.8 591.41,-129.23 581.2,-132.04 585.18,-137.8"/>
</a>
</g>
</g>
<!-- Node17 -->
<g id="Node000017" class="node">
<title>Node17</title>
<g id="a_Node000017"><a xlink:href="../../d5/d22/fl_2xmap_8h.html" target="_top" xlink:title=" ">
<polygon fill="white" stroke="#666666" points="392,-239 330,-239 330,-220 392,-220 392,-239"/>
<text text-anchor="middle" x="361" y="-227" font-family="Helvetica,sans-Serif" font-size="10.00">fl/xmap.h</text>
</a>
</g>
</g>
<!-- Node6&#45;&gt;Node17 -->
<g id="edge36_Node000006_Node000017" class="edge">
<title>Node6&#45;&gt;Node17</title>
<g id="a_edge36_Node000006_Node000017"><a xlink:title=" ">
<path fill="none" stroke="#63b8ff" d="M361,-274.75C361,-267.8 361,-257.85 361,-249.13"/>
<polygon fill="#63b8ff" stroke="#63b8ff" points="364.5,-249.09 361,-239.09 357.5,-249.09 364.5,-249.09"/>
</a>
</g>
</g>
<!-- Node7&#45;&gt;Node2 -->
<g id="edge9_Node000007_Node000002" class="edge">
<title>Node7&#45;&gt;Node2</title>
<g id="a_edge9_Node000007_Node000002"><a xlink:title=" ">
<path fill="none" stroke="#63b8ff" d="M769.57,-114.26C809.55,-106.93 893.13,-91.04 963,-74 1029.67,-57.74 1106.43,-35.12 1150.57,-21.72"/>
<polygon fill="#63b8ff" stroke="#63b8ff" points="1151.73,-25.03 1160.28,-18.77 1149.69,-18.33 1151.73,-25.03"/>
</a>
</g>
</g>
<!-- Node7&#45;&gt;Node4 -->
<g id="edge19_Node000007_Node000004" class="edge">
<title>Node7&#45;&gt;Node4</title>
<g id="a_edge19_Node000007_Node000004"><a xlink:title=" ">
<path fill="none" stroke="#63b8ff" d="M722.24,-115.65C654.26,-107.5 457.67,-83.93 360.18,-72.24"/>
<polygon fill="#63b8ff" stroke="#63b8ff" points="360.56,-68.76 350.21,-71.04 359.73,-75.71 360.56,-68.76"/>
</a>
</g>
</g>
<!-- Node7&#45;&gt;Node5 -->
<g id="edge13_Node000007_Node000005" class="edge">
<title>Node7&#45;&gt;Node5</title>
<g id="a_edge13_Node000007_Node000005"><a xlink:title=" ">
<path fill="none" stroke="#63b8ff" d="M722.37,-113.21C670.25,-101.54 549.95,-74.56 549,-74 529.51,-62.56 513,-42.2 502.85,-27.62"/>
<polygon fill="#63b8ff" stroke="#63b8ff" points="505.58,-25.4 497.12,-19.02 499.75,-29.28 505.58,-25.4"/>
</a>
</g>
</g>
<!-- Node8 -->
<g id="Node000008" class="node">
<title>Node8</title>
<g id="a_Node000008"><a xlink:href="../../d8/dd0/chsv_8h.html" target="_top" xlink:title="Defines the hue, saturation, and value (HSV) pixel struct.">
<polygon fill="white" stroke="#666666" points="821.5,-74 774.5,-74 774.5,-55 821.5,-55 821.5,-74"/>
<text text-anchor="middle" x="798" y="-62" font-family="Helvetica,sans-Serif" font-size="10.00">chsv.h</text>
</a>
</g>
</g>
<!-- Node7&#45;&gt;Node8 -->
<g id="edge10_Node000007_Node000008" class="edge">
<title>Node7&#45;&gt;Node8</title>
<g id="a_edge10_Node000007_Node000008"><a xlink:title=" ">
<path fill="none" stroke="#63b8ff" d="M754.59,-109.75C762.16,-102.03 773.38,-90.6 782.51,-81.28"/>
<polygon fill="#63b8ff" stroke="#63b8ff" points="785.07,-83.68 789.57,-74.09 780.07,-78.78 785.07,-83.68"/>
</a>
</g>
</g>
<!-- Node9 -->
<g id="Node000009" class="node">
<title>Node9</title>
<g id="a_Node000009"><a xlink:href="../../d2/d6b/src_2color_8h.html" target="_top" xlink:title="Contains definitions for color correction and temperature.">
<polygon fill="white" stroke="#666666" points="607.5,-74 558.5,-74 558.5,-55 607.5,-55 607.5,-74"/>
<text text-anchor="middle" x="583" y="-62" font-family="Helvetica,sans-Serif" font-size="10.00">color.h</text>
</a>
</g>
</g>
<!-- Node7&#45;&gt;Node9 -->
<g id="edge14_Node000007_Node000009" class="edge">
<title>Node7&#45;&gt;Node9</title>
<g id="a_edge14_Node000007_Node000009"><a xlink:title=" ">
<path fill="none" stroke="#63b8ff" d="M722.3,-110.79C694.65,-101.8 648.72,-86.87 617.21,-76.62"/>
<polygon fill="#63b8ff" stroke="#63b8ff" points="618.12,-73.24 607.53,-73.48 615.96,-79.9 618.12,-73.24"/>
</a>
</g>
</g>
<!-- Node10 -->
<g id="Node000010" class="node">
<title>Node10</title>
<g id="a_Node000010"><a xlink:href="../../d9/ddf/lib8tion_2types_8h.html" target="_top" xlink:title="Defines fractional types used for lib8tion functions.">
<polygon fill="white" stroke="#666666" points="756,-74 664,-74 664,-55 756,-55 756,-74"/>
<text text-anchor="middle" x="710" y="-62" font-family="Helvetica,sans-Serif" font-size="10.00">lib8tion/types.h</text>
</a>
</g>
</g>
<!-- Node7&#45;&gt;Node10 -->
<g id="edge16_Node000007_Node000010" class="edge">
<title>Node7&#45;&gt;Node10</title>
<g id="a_edge16_Node000007_Node000010"><a xlink:title=" ">
<path fill="none" stroke="#63b8ff" d="M740.06,-109.75C735.02,-102.34 727.66,-91.5 721.49,-82.41"/>
<polygon fill="#63b8ff" stroke="#63b8ff" points="724.35,-80.39 715.83,-74.09 718.56,-84.33 724.35,-80.39"/>
</a>
</g>
</g>
<!-- Node11 -->
<g id="Node000011" class="node">
<title>Node11</title>
<g id="a_Node000011"><a xlink:href="../../d8/d0c/template__magic_8h.html" target="_top" xlink:title=" ">
<polygon fill="white" stroke="#666666" points="954,-74 840,-74 840,-55 954,-55 954,-74"/>
<text text-anchor="middle" x="897" y="-62" font-family="Helvetica,sans-Serif" font-size="10.00">fl/template_magic.h</text>
</a>
</g>
</g>
<!-- Node7&#45;&gt;Node11 -->
<g id="edge20_Node000007_Node000011" class="edge">
<title>Node7&#45;&gt;Node11</title>
<g id="a_edge20_Node000007_Node000011"><a xlink:title=" ">
<path fill="none" stroke="#63b8ff" d="M769.59,-110.22C794.67,-101.42 834.56,-87.42 863.02,-77.43"/>
<polygon fill="#63b8ff" stroke="#63b8ff" points="864.29,-80.69 872.57,-74.07 861.98,-74.08 864.29,-80.69"/>
</a>
</g>
</g>
<!-- Node8&#45;&gt;Node2 -->
<g id="edge11_Node000008_Node000002" class="edge">
<title>Node8&#45;&gt;Node2</title>
<g id="a_edge11_Node000008_Node000002"><a xlink:title=" ">
<path fill="none" stroke="#63b8ff" d="M821.71,-57.01C824.82,-56.27 827.98,-55.58 831,-55 946.63,-32.97 1085.54,-19.22 1150.35,-13.52"/>
<polygon fill="#63b8ff" stroke="#63b8ff" points="1150.81,-17 1160.47,-12.65 1150.21,-10.02 1150.81,-17"/>
</a>
</g>
</g>
<!-- Node8&#45;&gt;Node5 -->
<g id="edge12_Node000008_Node000005" class="edge">
<title>Node8&#45;&gt;Node5</title>
<g id="a_edge12_Node000008_Node000005"><a xlink:title=" ">
<path fill="none" stroke="#63b8ff" d="M774.27,-57.11C771.16,-56.36 768.01,-55.63 765,-55 690.23,-39.31 602.95,-25.93 547.59,-18.06"/>
<polygon fill="#63b8ff" stroke="#63b8ff" points="548.03,-14.58 537.64,-16.65 547.05,-21.51 548.03,-14.58"/>
</a>
</g>
</g>
<!-- Node9&#45;&gt;Node5 -->
<g id="edge15_Node000009_Node000005" class="edge">
<title>Node9&#45;&gt;Node5</title>
<g id="a_edge15_Node000009_Node000005"><a xlink:title=" ">
<path fill="none" stroke="#63b8ff" d="M568.38,-54.98C554.14,-46.69 532.25,-33.94 515.55,-24.22"/>
<polygon fill="#63b8ff" stroke="#63b8ff" points="517.29,-21.18 506.89,-19.17 513.77,-27.23 517.29,-21.18"/>
</a>
</g>
</g>
<!-- Node10&#45;&gt;Node2 -->
<g id="edge17_Node000010_Node000002" class="edge">
<title>Node10&#45;&gt;Node2</title>
<g id="a_edge17_Node000010_Node000002"><a xlink:title=" ">
<path fill="none" stroke="#63b8ff" d="M756.12,-56.33C759.46,-55.86 762.78,-55.41 766,-55 907.74,-36.76 1077.03,-20.56 1150.26,-13.82"/>
<polygon fill="#63b8ff" stroke="#63b8ff" points="1150.71,-17.29 1160.35,-12.89 1150.08,-10.32 1150.71,-17.29"/>
</a>
</g>
</g>
<!-- Node10&#45;&gt;Node5 -->
<g id="edge18_Node000010_Node000005" class="edge">
<title>Node10&#45;&gt;Node5</title>
<g id="a_edge18_Node000010_Node000005"><a xlink:title=" ">
<path fill="none" stroke="#63b8ff" d="M674.97,-54.98C637.5,-45.87 577.95,-31.4 537.02,-21.45"/>
<polygon fill="#63b8ff" stroke="#63b8ff" points="537.84,-18.04 527.3,-19.08 536.19,-24.85 537.84,-18.04"/>
</a>
</g>
</g>
<!-- Node11&#45;&gt;Node2 -->
<g id="edge21_Node000011_Node000002" class="edge">
<title>Node11&#45;&gt;Node2</title>
<g id="a_edge21_Node000011_Node000002"><a xlink:title=" ">
<path fill="none" stroke="#63b8ff" d="M943.59,-54.98C1001.23,-44.45 1098.15,-26.74 1150.62,-17.15"/>
<polygon fill="#63b8ff" stroke="#63b8ff" points="1151.29,-20.58 1160.5,-15.34 1150.03,-13.7 1151.29,-20.58"/>
</a>
</g>
</g>
<!-- Node11&#45;&gt;Node5 -->
<g id="edge22_Node000011_Node000005" class="edge">
<title>Node11&#45;&gt;Node5</title>
<g id="a_edge22_Node000011_Node000005"><a xlink:title=" ">
<path fill="none" stroke="#63b8ff" d="M839.83,-56.02C762.21,-45.86 624.36,-27.82 547.57,-17.77"/>
<polygon fill="#63b8ff" stroke="#63b8ff" points="547.97,-14.3 537.6,-16.47 547.07,-21.24 547.97,-14.3"/>
</a>
</g>
</g>
<!-- Node12&#45;&gt;Node2 -->
<g id="edge25_Node000012_Node000002" class="edge">
<title>Node12&#45;&gt;Node2</title>
<g id="a_edge25_Node000012_Node000002"><a xlink:title=" ">
<path fill="none" stroke="#63b8ff" d="M493.77,-170.82C545.74,-164.78 673.31,-149.1 779,-129 883.1,-109.21 909.44,-104.25 1011,-74 1062.71,-58.6 1121.41,-36.45 1156.26,-22.79"/>
<polygon fill="#63b8ff" stroke="#63b8ff" points="1157.84,-25.94 1165.86,-19.01 1155.27,-19.42 1157.84,-25.94"/>
</a>
</g>
</g>
<!-- Node12&#45;&gt;Node4 -->
<g id="edge30_Node000012_Node000004" class="edge">
<title>Node12&#45;&gt;Node4</title>
<g id="a_edge30_Node000012_Node000004"><a xlink:title=" ">
<path fill="none" stroke="#63b8ff" d="M456.7,-164.84C428.16,-146.28 360.85,-102.49 325.91,-79.75"/>
<polygon fill="#63b8ff" stroke="#63b8ff" points="327.66,-76.72 317.37,-74.2 323.84,-82.58 327.66,-76.72"/>
</a>
</g>
</g>
<!-- Node12&#45;&gt;Node5 -->
<g id="edge34_Node000012_Node000005" class="edge">
<title>Node12&#45;&gt;Node5</title>
<g id="a_edge34_Node000012_Node000005"><a xlink:title=" ">
<path fill="none" stroke="#63b8ff" d="M461.28,-164.85C453.43,-156.48 442.35,-143.02 437,-129 425.25,-98.2 417.18,-84.44 432,-55 438.69,-41.71 451.44,-31.39 463.47,-24.05"/>
<polygon fill="#63b8ff" stroke="#63b8ff" points="465.42,-26.97 472.42,-19.02 461.99,-20.87 465.42,-26.97"/>
</a>
</g>
</g>
<!-- Node12&#45;&gt;Node13 -->
<g id="edge26_Node000012_Node000013" class="edge">
<title>Node12&#45;&gt;Node13</title>
<g id="a_edge26_Node000012_Node000013"><a xlink:title=" ">
<path fill="none" stroke="#63b8ff" d="M491.53,-164.98C513.47,-156.3 547.74,-142.75 572.69,-132.88"/>
<polygon fill="#63b8ff" stroke="#63b8ff" points="574.07,-136.1 582.08,-129.17 571.49,-129.59 574.07,-136.1"/>
</a>
</g>
</g>
<!-- Node16 -->
<g id="Node000016" class="node">
<title>Node16</title>
<g id="a_Node000016"><a xlink:href="../../d2/d6f/fl_2allocator_8h.html" target="_top" xlink:title=" ">
<polygon fill="white" stroke="#666666" points="523.5,-129 446.5,-129 446.5,-110 523.5,-110 523.5,-129"/>
<text text-anchor="middle" x="485" y="-117" font-family="Helvetica,sans-Serif" font-size="10.00">fl/allocator.h</text>
</a>
</g>
</g>
<!-- Node12&#45;&gt;Node16 -->
<g id="edge31_Node000012_Node000016" class="edge">
<title>Node12&#45;&gt;Node16</title>
<g id="a_edge31_Node000012_Node000016"><a xlink:title=" ">
<path fill="none" stroke="#63b8ff" d="M472.48,-164.75C474.46,-157.72 477.32,-147.62 479.81,-138.84"/>
<polygon fill="#63b8ff" stroke="#63b8ff" points="483.21,-139.66 482.57,-129.09 476.48,-137.76 483.21,-139.66"/>
</a>
</g>
</g>
<!-- Node13&#45;&gt;Node5 -->
<g id="edge28_Node000013_Node000005" class="edge">
<title>Node13&#45;&gt;Node5</title>
<g id="a_edge28_Node000013_Node000005"><a xlink:title=" ">
<path fill="none" stroke="#63b8ff" d="M580.22,-112.85C535.81,-102.19 444.34,-79.67 440,-74 426.71,-56.63 448.05,-37.26 467.27,-24.53"/>
<polygon fill="#63b8ff" stroke="#63b8ff" points="469.2,-27.46 475.82,-19.19 465.49,-21.52 469.2,-27.46"/>
</a>
</g>
</g>
<!-- Node13&#45;&gt;Node11 -->
<g id="edge29_Node000013_Node000011" class="edge">
<title>Node13&#45;&gt;Node11</title>
<g id="a_edge29_Node000013_Node000011"><a xlink:title=" ">
<path fill="none" stroke="#63b8ff" d="M627.98,-114.16C673.9,-105.86 775.42,-87.49 839.78,-75.85"/>
<polygon fill="#63b8ff" stroke="#63b8ff" points="840.56,-79.27 849.78,-74.04 839.31,-72.38 840.56,-79.27"/>
</a>
</g>
</g>
<!-- Node14 -->
<g id="Node000014" class="node">
<title>Node14</title>
<g id="a_Node000014"><a xlink:title=" ">
<polygon fill="#e0e0e0" stroke="#999999" points="856,-19 800,-19 800,0 856,0 856,-19"/>
<text text-anchor="middle" x="828" y="-7" font-family="Helvetica,sans-Serif" font-size="10.00">stddef.h</text>
</a>
</g>
</g>
<!-- Node13&#45;&gt;Node14 -->
<g id="edge27_Node000013_Node000014" class="edge">
<title>Node13&#45;&gt;Node14</title>
<g id="a_edge27_Node000013_Node000014"><a xlink:title=" ">
<path fill="none" stroke="#63b8ff" d="M608.65,-109.6C616.36,-95.74 633.14,-69.1 655,-55 696.15,-28.45 752.36,-17.72 789.39,-13.4"/>
<polygon fill="#63b8ff" stroke="#63b8ff" points="790.19,-16.83 799.77,-12.3 789.45,-9.87 790.19,-16.83"/>
</a>
</g>
</g>
<!-- Node16&#45;&gt;Node3 -->
<g id="edge33_Node000016_Node000003" class="edge">
<title>Node16&#45;&gt;Node3</title>
<g id="a_edge33_Node000016_Node000003"><a xlink:title=" ">
<path fill="none" stroke="#63b8ff" d="M446.37,-111.89C386.19,-101.61 270.88,-81.89 211.83,-71.8"/>
<polygon fill="#63b8ff" stroke="#63b8ff" points="212.27,-68.32 201.83,-70.09 211.09,-75.22 212.27,-68.32"/>
</a>
</g>
</g>
<!-- Node16&#45;&gt;Node14 -->
<g id="edge32_Node000016_Node000014" class="edge">
<title>Node16&#45;&gt;Node14</title>
<g id="a_edge32_Node000016_Node000014"><a xlink:title=" ">
<path fill="none" stroke="#63b8ff" d="M490.92,-109.81C501.02,-95.73 523.04,-68.18 549,-55 590.41,-33.97 723.22,-19.7 789.55,-13.7"/>
<polygon fill="#63b8ff" stroke="#63b8ff" points="789.95,-17.18 799.6,-12.81 789.33,-10.21 789.95,-17.18"/>
</a>
</g>
</g>
<!-- Node17&#45;&gt;Node2 -->
<g id="edge37_Node000017_Node000002" class="edge">
<title>Node17&#45;&gt;Node2</title>
<g id="a_edge37_Node000017_Node000002"><a xlink:title=" ">
<path fill="none" stroke="#63b8ff" d="M392.22,-226.25C518.03,-216.92 987.64,-179.36 1127,-129 1170.38,-113.32 1192.64,-114.34 1215,-74 1223.53,-58.61 1213.22,-40.12 1202.79,-27.07"/>
<polygon fill="#63b8ff" stroke="#63b8ff" points="1205.3,-24.63 1196.11,-19.37 1200.02,-29.22 1205.3,-24.63"/>
</a>
</g>
</g>
<!-- Node17&#45;&gt;Node3 -->
<g id="edge38_Node000017_Node000003" class="edge">
<title>Node17&#45;&gt;Node3</title>
<g id="a_edge38_Node000017_Node000003"><a xlink:title=" ">
<path fill="none" stroke="#63b8ff" d="M351.26,-219.97C321.52,-193.9 231.55,-115.06 192.93,-81.21"/>
<polygon fill="#63b8ff" stroke="#63b8ff" points="194.92,-78.3 185.09,-74.34 190.31,-83.57 194.92,-78.3"/>
</a>
</g>
</g>
<!-- Node17&#45;&gt;Node4 -->
<g id="edge39_Node000017_Node000004" class="edge">
<title>Node17&#45;&gt;Node4</title>
<g id="a_edge39_Node000017_Node000004"><a xlink:title=" ">
<path fill="none" stroke="#63b8ff" d="M357.94,-219.74C348.97,-194.09 322.63,-118.78 310.39,-83.78"/>
<polygon fill="#63b8ff" stroke="#63b8ff" points="313.68,-82.59 307.08,-74.31 307.08,-84.9 313.68,-82.59"/>
</a>
</g>
</g>
<!-- Node17&#45;&gt;Node5 -->
<g id="edge42_Node000017_Node000005" class="edge">
<title>Node17&#45;&gt;Node5</title>
<g id="a_edge42_Node000017_Node000005"><a xlink:title=" ">
<path fill="none" stroke="#63b8ff" d="M331.55,-219.96C257.16,-197.03 72.27,-130.67 139,-55 158.3,-33.12 341.35,-19.3 435.96,-13.56"/>
<polygon fill="#63b8ff" stroke="#63b8ff" points="436.44,-17.04 446.22,-12.95 436.03,-10.05 436.44,-17.04"/>
</a>
</g>
</g>
<!-- Node17&#45;&gt;Node12 -->
<g id="edge40_Node000017_Node000012" class="edge">
<title>Node17&#45;&gt;Node12</title>
<g id="a_edge40_Node000017_Node000012"><a xlink:title=" ">
<path fill="none" stroke="#63b8ff" d="M378.51,-219.98C395.97,-211.5 423.01,-198.35 443.17,-188.54"/>
<polygon fill="#63b8ff" stroke="#63b8ff" points="444.71,-191.69 452.17,-184.17 441.64,-185.4 444.71,-191.69"/>
</a>
</g>
</g>
<!-- Node17&#45;&gt;Node13 -->
<g id="edge41_Node000017_Node000013" class="edge">
<title>Node17&#45;&gt;Node13</title>
<g id="a_edge41_Node000017_Node000013"><a xlink:title=" ">
<path fill="none" stroke="#63b8ff" d="M368.99,-219.71C381.94,-205.99 408.91,-179.56 437,-165 480.09,-142.66 535.41,-130.79 570.29,-125.07"/>
<polygon fill="#63b8ff" stroke="#63b8ff" points="571.08,-128.49 580.42,-123.49 570,-121.57 571.08,-128.49"/>
</a>
</g>
</g>
<!-- Node18&#45;&gt;Node2 -->
<g id="edge45_Node000018_Node000002" class="edge">
<title>Node18&#45;&gt;Node2</title>
<g id="a_edge45_Node000018_Node000002"><a xlink:title=" ">
<path fill="none" stroke="#63b8ff" d="M644.54,-228.49C777.81,-228.01 1171.69,-223.21 1293,-184 1380.41,-155.74 1423.57,-154.41 1468,-74 1472.08,-66.61 1473.48,-61.42 1468,-55 1437.03,-18.74 1292.92,-11.86 1223.96,-10.67"/>
<polygon fill="#63b8ff" stroke="#63b8ff" points="1224.01,-7.17 1213.96,-10.53 1223.91,-14.17 1224.01,-7.17"/>
</a>
</g>
</g>
<!-- Node18&#45;&gt;Node4 -->
<g id="edge46_Node000018_Node000004" class="edge">
<title>Node18&#45;&gt;Node4</title>
<g id="a_edge46_Node000018_Node000004"><a xlink:title=" ">
<path fill="none" stroke="#63b8ff" d="M597.78,-219.96C591.55,-197.84 571.73,-138.44 532,-110 505.09,-90.73 418.95,-77.88 360.6,-71.13"/>
<polygon fill="#63b8ff" stroke="#63b8ff" points="360.74,-67.63 350.41,-69.99 359.96,-74.58 360.74,-67.63"/>
</a>
</g>
</g>
<!-- Node18&#45;&gt;Node5 -->
<g id="edge69_Node000018_Node000005" class="edge">
<title>Node18&#45;&gt;Node5</title>
<g id="a_edge69_Node000018_Node000005"><a xlink:title=" ">
<path fill="none" stroke="#63b8ff" d="M555.22,-224.94C475.65,-215.86 312.1,-184.03 249,-74 244.8,-66.67 243.59,-61.49 249,-55 272.35,-26.99 371.88,-16.56 436.1,-12.71"/>
<polygon fill="#63b8ff" stroke="#63b8ff" points="436.69,-16.18 446.47,-12.13 436.29,-9.19 436.69,-16.18"/>
</a>
</g>
</g>
<!-- Node18&#45;&gt;Node12 -->
<g id="edge47_Node000018_Node000012" class="edge">
<title>Node18&#45;&gt;Node12</title>
<g id="a_edge47_Node000018_Node000012"><a xlink:title=" ">
<path fill="none" stroke="#63b8ff" d="M579.11,-219.98C557.92,-211.34 524.87,-197.87 500.7,-188.02"/>
<polygon fill="#63b8ff" stroke="#63b8ff" points="501.85,-184.7 491.27,-184.17 499.21,-191.19 501.85,-184.7"/>
</a>
</g>
</g>
<!-- Node18&#45;&gt;Node13 -->
<g id="edge48_Node000018_Node000013" class="edge">
<title>Node18&#45;&gt;Node13</title>
<g id="a_edge48_Node000018_Node000013"><a xlink:title=" ">
<path fill="none" stroke="#63b8ff" d="M600.33,-219.66C600.98,-202.17 602.43,-162.8 603.3,-139.27"/>
<polygon fill="#63b8ff" stroke="#63b8ff" points="606.81,-139.28 603.68,-129.16 599.81,-139.02 606.81,-139.28"/>
</a>
</g>
</g>
<!-- Node19 -->
<g id="Node000019" class="node">
<title>Node19</title>
<g id="a_Node000019"><a xlink:href="../../dc/db7/map_8h.html" target="_top" xlink:title=" ">
<polygon fill="white" stroke="#666666" points="1340,-129 1284,-129 1284,-110 1340,-110 1340,-129"/>
<text text-anchor="middle" x="1312" y="-117" font-family="Helvetica,sans-Serif" font-size="10.00">fl/map.h</text>
</a>
</g>
</g>
<!-- Node18&#45;&gt;Node19 -->
<g id="edge49_Node000018_Node000019" class="edge">
<title>Node18&#45;&gt;Node19</title>
<g id="a_edge49_Node000018_Node000019"><a xlink:title=" ">
<path fill="none" stroke="#63b8ff" d="M644.82,-227.81C786.13,-225.33 1216.2,-215.26 1270,-184 1287.27,-173.96 1298.79,-153.65 1305.32,-138.69"/>
<polygon fill="#63b8ff" stroke="#63b8ff" points="1308.58,-139.96 1309.06,-129.38 1302.09,-137.35 1308.58,-139.96"/>
</a>
</g>
</g>
<!-- Node28 -->
<g id="Node000028" class="node">
<title>Node28</title>
<g id="a_Node000028"><a xlink:href="../../dc/d0e/fl_2str_8h.html" target="_top" xlink:title=" ">
<polygon fill="#fff0f0" stroke="red" points="713,-184 675,-184 675,-165 713,-165 713,-184"/>
<text text-anchor="middle" x="694" y="-172" font-family="Helvetica,sans-Serif" font-size="10.00">str.h</text>
</a>
</g>
</g>
<!-- Node18&#45;&gt;Node28 -->
<g id="edge62_Node000018_Node000028" class="edge">
<title>Node18&#45;&gt;Node28</title>
<g id="a_edge62_Node000018_Node000028"><a xlink:title=" ">
<path fill="none" stroke="#63b8ff" d="M615.1,-219.98C629.82,-211.69 652.42,-198.94 669.67,-189.22"/>
<polygon fill="#63b8ff" stroke="#63b8ff" points="671.63,-192.13 678.62,-184.17 668.19,-186.03 671.63,-192.13"/>
</a>
</g>
</g>
<!-- Node19&#45;&gt;Node2 -->
<g id="edge50_Node000019_Node000002" class="edge">
<title>Node19&#45;&gt;Node2</title>
<g id="a_edge50_Node000019_Node000002"><a xlink:title=" ">
<path fill="none" stroke="#63b8ff" d="M1307.96,-109.71C1301.5,-96.47 1287.78,-71.21 1270,-55 1255.15,-41.46 1235.44,-30.67 1218.94,-23.1"/>
<polygon fill="#63b8ff" stroke="#63b8ff" points="1220.23,-19.85 1209.67,-19.03 1217.41,-26.25 1220.23,-19.85"/>
</a>
</g>
</g>
<!-- Node19&#45;&gt;Node5 -->
<g id="edge52_Node000019_Node000005" class="edge">
<title>Node19&#45;&gt;Node5</title>
<g id="a_edge52_Node000019_Node000005"><a xlink:title=" ">
<path fill="none" stroke="#63b8ff" d="M1283.74,-114.79C1233.73,-108.04 1126.48,-92.69 1037,-74 1003.76,-67.06 996.45,-60.84 963,-55 814.34,-29.06 636.47,-17.43 547.88,-12.94"/>
<polygon fill="#63b8ff" stroke="#63b8ff" points="547.95,-9.43 537.78,-12.43 547.6,-16.43 547.95,-9.43"/>
</a>
</g>
</g>
<!-- Node19&#45;&gt;Node11 -->
<g id="edge58_Node000019_Node000011" class="edge">
<title>Node19&#45;&gt;Node11</title>
<g id="a_edge58_Node000019_Node000011"><a xlink:title=" ">
<path fill="none" stroke="#63b8ff" d="M1283.8,-114.9C1218.74,-106.59 1056.65,-85.89 964.27,-74.09"/>
<polygon fill="#63b8ff" stroke="#63b8ff" points="964.54,-70.6 954.18,-72.8 963.65,-77.54 964.54,-70.6"/>
</a>
</g>
</g>
<!-- Node19&#45;&gt;Node14 -->
<g id="edge51_Node000019_Node000014" class="edge">
<title>Node19&#45;&gt;Node14</title>
<g id="a_edge51_Node000019_Node000014"><a xlink:title=" ">
<path fill="none" stroke="#63b8ff" d="M1283.89,-112.23C1201.43,-93.83 960.15,-39.99 866.13,-19.01"/>
<polygon fill="#63b8ff" stroke="#63b8ff" points="866.71,-15.55 856.19,-16.79 865.19,-22.38 866.71,-15.55"/>
</a>
</g>
</g>
<!-- Node20 -->
<g id="Node000020" class="node">
<title>Node20</title>
<g id="a_Node000020"><a xlink:href="../../d6/d68/vector_8h.html" target="_top" xlink:title=" ">
<polygon fill="#fff0f0" stroke="red" points="1189.5,-74 1124.5,-74 1124.5,-55 1189.5,-55 1189.5,-74"/>
<text text-anchor="middle" x="1157" y="-62" font-family="Helvetica,sans-Serif" font-size="10.00">fl/vector.h</text>
</a>
</g>
</g>
<!-- Node19&#45;&gt;Node20 -->
<g id="edge53_Node000019_Node000020" class="edge">
<title>Node19&#45;&gt;Node20</title>
<g id="a_edge53_Node000019_Node000020"><a xlink:title=" ">
<path fill="none" stroke="#63b8ff" d="M1287.1,-109.98C1261.3,-101.16 1220.78,-87.31 1191.82,-77.41"/>
<polygon fill="#63b8ff" stroke="#63b8ff" points="1192.69,-74.01 1182.1,-74.08 1190.43,-80.63 1192.69,-74.01"/>
</a>
</g>
</g>
<!-- Node22 -->
<g id="Node000022" class="node">
<title>Node22</title>
<g id="a_Node000022"><a xlink:href="../../d1/d22/insert__result_8h.html" target="_top" xlink:title=" ">
<polygon fill="white" stroke="#666666" points="1464.5,-19 1369.5,-19 1369.5,0 1464.5,0 1464.5,-19"/>
<text text-anchor="middle" x="1417" y="-7" font-family="Helvetica,sans-Serif" font-size="10.00">fl/insert_result.h</text>
</a>
</g>
</g>
<!-- Node19&#45;&gt;Node22 -->
<g id="edge59_Node000019_Node000022" class="edge">
<title>Node19&#45;&gt;Node22</title>
<g id="a_edge59_Node000019_Node000022"><a xlink:title=" ">
<path fill="none" stroke="#63b8ff" d="M1340.03,-114.57C1380.62,-108.24 1452.6,-94.4 1468,-74 1481.01,-56.75 1460.32,-37.47 1441.53,-24.73"/>
<polygon fill="#63b8ff" stroke="#63b8ff" points="1443.19,-21.64 1432.88,-19.2 1439.42,-27.54 1443.19,-21.64"/>
</a>
</g>
</g>
<!-- Node23 -->
<g id="Node000023" class="node">
<title>Node23</title>
<g id="a_Node000023"><a xlink:href="../../d3/d41/pair_8h.html" target="_top" xlink:title=" ">
<polygon fill="white" stroke="#666666" points="1375.5,-74 1322.5,-74 1322.5,-55 1375.5,-55 1375.5,-74"/>
<text text-anchor="middle" x="1349" y="-62" font-family="Helvetica,sans-Serif" font-size="10.00">fl/pair.h</text>
</a>
</g>
</g>
<!-- Node19&#45;&gt;Node23 -->
<g id="edge60_Node000019_Node000023" class="edge">
<title>Node19&#45;&gt;Node23</title>
<g id="a_edge60_Node000019_Node000023"><a xlink:title=" ">
<path fill="none" stroke="#63b8ff" d="M1318.11,-109.75C1323.28,-102.34 1330.85,-91.5 1337.19,-82.41"/>
<polygon fill="#63b8ff" stroke="#63b8ff" points="1340.15,-84.29 1343,-74.09 1334.41,-80.29 1340.15,-84.29"/>
</a>
</g>
</g>
<!-- Node24 -->
<g id="Node000024" class="node">
<title>Node24</title>
<g id="a_Node000024"><a xlink:href="../../dc/da7/assert_8h.html" target="_top" xlink:title=" ">
<polygon fill="#fff0f0" stroke="red" points="1458.5,-74 1393.5,-74 1393.5,-55 1458.5,-55 1458.5,-74"/>
<text text-anchor="middle" x="1426" y="-62" font-family="Helvetica,sans-Serif" font-size="10.00">fl/assert.h</text>
</a>
</g>
</g>
<!-- Node19&#45;&gt;Node24 -->
<g id="edge61_Node000019_Node000024" class="edge">
<title>Node19&#45;&gt;Node24</title>
<g id="a_edge61_Node000019_Node000024"><a xlink:title=" ">
<path fill="none" stroke="#63b8ff" d="M1330.32,-109.98C1348.66,-101.46 1377.11,-88.23 1398.23,-78.41"/>
<polygon fill="#63b8ff" stroke="#63b8ff" points="1399.76,-81.56 1407.35,-74.17 1396.81,-75.21 1399.76,-81.56"/>
</a>
</g>
</g>
<!-- Node20&#45;&gt;Node2 -->
<g id="edge54_Node000020_Node000002" class="edge">
<title>Node20&#45;&gt;Node2</title>
<g id="a_edge54_Node000020_Node000002"><a xlink:title=" ">
<path fill="none" stroke="#63b8ff" d="M1161.95,-54.75C1166.06,-47.49 1172.03,-36.95 1177.1,-27.98"/>
<polygon fill="#63b8ff" stroke="#63b8ff" points="1180.26,-29.52 1182.14,-19.09 1174.17,-26.07 1180.26,-29.52"/>
</a>
</g>
</g>
<!-- Node20&#45;&gt;Node5 -->
<g id="edge56_Node000020_Node000005" class="edge">
<title>Node20&#45;&gt;Node5</title>
<g id="a_edge56_Node000020_Node000005"><a xlink:title=" ">
<path fill="none" stroke="#63b8ff" d="M1124.48,-60.91C1018.37,-52.45 681.45,-25.6 547.6,-14.93"/>
<polygon fill="#63b8ff" stroke="#63b8ff" points="547.8,-11.44 537.56,-14.13 547.25,-18.41 547.8,-11.44"/>
</a>
</g>
</g>
<!-- Node20&#45;&gt;Node14 -->
<g id="edge55_Node000020_Node000014" class="edge">
<title>Node20&#45;&gt;Node14</title>
<g id="a_edge55_Node000020_Node000014"><a xlink:title=" ">
<path fill="none" stroke="#63b8ff" d="M1124.25,-58.22C1063,-48.36 931.43,-27.16 866.23,-16.66"/>
<polygon fill="#63b8ff" stroke="#63b8ff" points="866.79,-13.2 856.36,-15.07 865.67,-20.11 866.79,-13.2"/>
</a>
</g>
</g>
<!-- Node20&#45;&gt;Node22 -->
<g id="edge57_Node000020_Node000022" class="edge">
<title>Node20&#45;&gt;Node22</title>
<g id="a_edge57_Node000020_Node000022"><a xlink:title=" ">
<path fill="none" stroke="#63b8ff" d="M1189.67,-56.84C1233.78,-47.85 1312.88,-31.72 1365.16,-21.07"/>
<polygon fill="#63b8ff" stroke="#63b8ff" points="1366.14,-24.44 1375.24,-19.01 1364.74,-17.58 1366.14,-24.44"/>
</a>
</g>
</g>
<!-- Node28&#45;&gt;Node2 -->
<g id="edge64_Node000028_Node000002" class="edge">
<title>Node28&#45;&gt;Node2</title>
<g id="a_edge64_Node000028_Node000002"><a xlink:title=" ">
<path fill="none" stroke="#63b8ff" d="M713.03,-172.86C797.36,-169.58 1136.05,-151.66 1199,-74 1209.35,-61.24 1203.93,-42.29 1197.4,-28.42"/>
<polygon fill="#63b8ff" stroke="#63b8ff" points="1200.4,-26.6 1192.65,-19.37 1194.2,-29.86 1200.4,-26.6"/>
</a>
</g>
</g>
<!-- Node28&#45;&gt;Node3 -->
<g id="edge63_Node000028_Node000003" class="edge">
<title>Node28&#45;&gt;Node3</title>
<g id="a_edge63_Node000028_Node000003"><a xlink:title=" ">
<path fill="none" stroke="#63b8ff" d="M688.94,-164.63C680.22,-150.29 660.86,-122.37 636,-110 558.67,-71.52 334.91,-82.93 249,-74 236.86,-72.74 223.62,-71.25 211.73,-69.88"/>
<polygon fill="#63b8ff" stroke="#63b8ff" points="212.04,-66.39 201.7,-68.71 211.23,-73.34 212.04,-66.39"/>
</a>
</g>
</g>
<!-- Node28&#45;&gt;Node5 -->
<g id="edge68_Node000028_Node000005" class="edge">
<title>Node28&#45;&gt;Node5</title>
<g id="a_edge68_Node000028_Node000005"><a xlink:title=" ">
<path fill="none" stroke="#63b8ff" d="M692.18,-164.64C688.86,-150.82 680.5,-124.25 663,-110 612.84,-69.17 571.89,-115.15 522,-74 508.21,-62.62 500.37,-43.45 496.2,-29.14"/>
<polygon fill="#63b8ff" stroke="#63b8ff" points="499.56,-28.17 493.68,-19.36 492.78,-29.91 499.56,-28.17"/>
</a>
</g>
</g>
<!-- Node28&#45;&gt;Node11 -->
<g id="edge66_Node000028_Node000011" class="edge">
<title>Node28&#45;&gt;Node11</title>
<g id="a_edge66_Node000028_Node000011"><a xlink:title=" ">
<path fill="none" stroke="#63b8ff" d="M710.64,-164.86C727.8,-155.93 755.31,-141.57 779,-129 811.15,-111.94 848.07,-92.01 871.93,-79.1"/>
<polygon fill="#63b8ff" stroke="#63b8ff" points="873.87,-82.03 881,-74.19 870.54,-75.87 873.87,-82.03"/>
</a>
</g>
</g>
<!-- Node28&#45;&gt;Node13 -->
<g id="edge65_Node000028_Node000013" class="edge">
<title>Node28&#45;&gt;Node13</title>
<g id="a_edge65_Node000028_Node000013"><a xlink:title=" ">
<path fill="none" stroke="#63b8ff" d="M679.54,-164.98C665.58,-156.77 644.21,-144.18 627.75,-134.49"/>
<polygon fill="#63b8ff" stroke="#63b8ff" points="629.12,-131.23 618.72,-129.17 625.56,-137.26 629.12,-131.23"/>
</a>
</g>
</g>
<!-- Node28&#45;&gt;Node20 -->
<g id="edge67_Node000028_Node000020" class="edge">
<title>Node28&#45;&gt;Node20</title>
<g id="a_edge67_Node000028_Node000020"><a xlink:title=" ">
<path fill="none" stroke="#63b8ff" d="M713.01,-169.06C781.63,-153.06 1017.55,-98.03 1114.69,-75.37"/>
<polygon fill="#63b8ff" stroke="#63b8ff" points="1115.53,-78.77 1124.47,-73.09 1113.94,-71.95 1115.53,-78.77"/>
</a>
</g>
</g>
</g>
</svg>

<g id="navigator" transform="translate(0 0)" fill="#404254">
  <rect fill="#f2f5e9" fill-opacity="0.5" stroke="#606060" stroke-width=".5" x="0" y="0" width="60" height="60"/>
  <use id="zoomplus" xlink:href="#zoomPlus" x="17" y="9" onmousedown="handleZoom(evt,'in')"/>
  <use id="zoomminus" xlink:href="#zoomMin" x="42" y="9" onmousedown="handleZoom(evt,'out')"/>
  <use id="reset" xlink:href="#resetDef" x="30" y="36" onmousedown="handleReset()"/>
   <use id="arrowup" xlink:href="#arrowUp" x="0" y="0" onmousedown="handlePan(0,-1)"/>
  <use id="arrowright" xlink:href="#arrowRight" x="0" y="0" onmousedown="handlePan(1,0)"/>
  <use id="arrowdown" xlink:href="#arrowDown" x="0" y="0" onmousedown="handlePan(0,1)"/>
  <use id="arrowleft" xlink:href="#arrowLeft" x="0" y="0" onmousedown="handlePan(-1,0)"/>
</g>
<svg viewBox="0 0 15 15" width="100%" height="30px" preserveAspectRatio="xMaxYMin meet">
 <g id="arrow_out" transform="scale(0.3 0.3)">
  <a xlink:href="xymap_8cpp__incl_org.svg" target="_base">
   <rect id="button" ry="5" rx="5" y="6" x="6" height="38" width="38"
        fill="#f2f5e9" fill-opacity="0.5" stroke="#606060" stroke-width="1.0"/>
   <path id="arrow"
     d="M 11.500037,31.436501 C 11.940474,20.09759 22.043105,11.32322 32.158766,21.979434 L 37.068811,17.246167 C 37.068811,17.246167 37.088388,32 37.088388,32 L 22.160133,31.978069 C 22.160133,31.978069 26.997745,27.140456 26.997745,27.140456 C 18.528582,18.264221 13.291696,25.230495 11.500037,31.436501 z"
     style="fill:#404040;"/>
  </a>
 </g>
</svg>

<style type='text/css'>
<![CDATA[
[data-mouse-over-selected='false'] { opacity: 0.7; }
[data-mouse-over-selected='true']  { opacity: 1.0; }
]]>
</style>
<script type="application/ecmascript"><![CDATA[
document.addEventListener('DOMContentLoaded', (event) => {
  highlightEdges();
  highlightAdjacentNodes();
});
]]></script>
</svg>
