<?xml version="1.0" encoding="UTF-8" standalone="no"?>
<!DOCTYPE svg PUBLIC "-//W3C//DTD SVG 1.1//EN"
 "http://www.w3.org/Graphics/SVG/1.1/DTD/svg11.dtd">
<!-- Generated by graphviz version 2.43.0 (0)
 -->
<!-- Title: fl::XYRasterSparse_CRGB::setSize Pages: 1 -->
<svg width="560pt" height="134pt"
 viewBox="0.00 0.00 560.00 134.00" xmlns="http://www.w3.org/2000/svg" xmlns:xlink="http://www.w3.org/1999/xlink">
<g id="graph0" class="graph" transform="scale(1 1) rotate(0) translate(4 130)">
<title>fl::XYRasterSparse_CRGB::setSize</title>
<!-- Node1 -->
<g id="Node000001" class="node">
<title>Node1</title>
<g id="a_Node000001"><a xlink:title=" ">
<polygon fill="#999999" stroke="#666666" points="106,-78 0,-78 0,-48 106,-48 106,-78"/>
<text text-anchor="start" x="8" y="-66" font-family="Helvetica,sans-Serif" font-size="10.00">fl::XYRasterSparse</text>
<text text-anchor="middle" x="53" y="-55" font-family="Helvetica,sans-Serif" font-size="10.00">_CRGB::setSize</text>
</a>
</g>
</g>
<!-- Node2 -->
<g id="Node000002" class="node">
<title>Node2</title>
<g id="a_Node000002"><a xlink:href="../../d3/dca/classfl_1_1_x_y_raster_sparse___c_r_g_b_af48d505160fb8f61b07631e5e197a680.html#af48d505160fb8f61b07631e5e197a680" target="_top" xlink:title=" ">
<polygon fill="white" stroke="#666666" points="248.5,-126 142.5,-126 142.5,-96 248.5,-96 248.5,-126"/>
<text text-anchor="start" x="150.5" y="-114" font-family="Helvetica,sans-Serif" font-size="10.00">fl::XYRasterSparse</text>
<text text-anchor="middle" x="195.5" y="-103" font-family="Helvetica,sans-Serif" font-size="10.00">_CRGB::height</text>
</a>
</g>
</g>
<!-- Node1&#45;&gt;Node2 -->
<g id="edge1_Node000001_Node000002" class="edge">
<title>Node1&#45;&gt;Node2</title>
<g id="a_edge1_Node000001_Node000002"><a xlink:title=" ">
<path fill="none" stroke="#63b8ff" d="M98.07,-78.06C111.67,-82.7 126.8,-87.87 140.96,-92.71"/>
<polygon fill="#63b8ff" stroke="#63b8ff" points="139.99,-96.08 150.59,-96 142.26,-89.45 139.99,-96.08"/>
</a>
</g>
</g>
<!-- Node6 -->
<g id="Node000006" class="node">
<title>Node6</title>
<g id="a_Node000006"><a xlink:href="../../d3/dca/classfl_1_1_x_y_raster_sparse___c_r_g_b_af616261bdf49996f3ee0afe81c3f8b64.html#af616261bdf49996f3ee0afe81c3f8b64" target="_top" xlink:title=" ">
<polygon fill="white" stroke="#666666" points="249,-78 142,-78 142,-48 249,-48 249,-78"/>
<text text-anchor="start" x="150" y="-66" font-family="Helvetica,sans-Serif" font-size="10.00">fl::XYRasterSparse</text>
<text text-anchor="middle" x="195.5" y="-55" font-family="Helvetica,sans-Serif" font-size="10.00">_CRGB::setBounds</text>
</a>
</g>
</g>
<!-- Node1&#45;&gt;Node6 -->
<g id="edge5_Node000001_Node000006" class="edge">
<title>Node1&#45;&gt;Node6</title>
<g id="a_edge5_Node000001_Node000006"><a xlink:title=" ">
<path fill="none" stroke="#63b8ff" d="M106.32,-63C114.53,-63 123.09,-63 131.5,-63"/>
<polygon fill="#63b8ff" stroke="#63b8ff" points="131.67,-66.5 141.67,-63 131.67,-59.5 131.67,-66.5"/>
</a>
</g>
</g>
<!-- Node7 -->
<g id="Node000007" class="node">
<title>Node7</title>
<g id="a_Node000007"><a xlink:href="../../d3/dca/classfl_1_1_x_y_raster_sparse___c_r_g_b_a4f8799f295573b78102592fe537dc9c3.html#a4f8799f295573b78102592fe537dc9c3" target="_top" xlink:title=" ">
<polygon fill="white" stroke="#666666" points="248.5,-30 142.5,-30 142.5,0 248.5,0 248.5,-30"/>
<text text-anchor="start" x="150.5" y="-18" font-family="Helvetica,sans-Serif" font-size="10.00">fl::XYRasterSparse</text>
<text text-anchor="middle" x="195.5" y="-7" font-family="Helvetica,sans-Serif" font-size="10.00">_CRGB::width</text>
</a>
</g>
</g>
<!-- Node1&#45;&gt;Node7 -->
<g id="edge7_Node000001_Node000007" class="edge">
<title>Node1&#45;&gt;Node7</title>
<g id="a_edge7_Node000001_Node000007"><a xlink:title=" ">
<path fill="none" stroke="#63b8ff" d="M98.07,-47.94C111.67,-43.3 126.8,-38.13 140.96,-33.29"/>
<polygon fill="#63b8ff" stroke="#63b8ff" points="142.26,-36.55 150.59,-30 139.99,-29.92 142.26,-36.55"/>
</a>
</g>
</g>
<!-- Node3 -->
<g id="Node000003" class="node">
<title>Node3</title>
<g id="a_Node000003"><a xlink:href="../../d3/dca/classfl_1_1_x_y_raster_sparse___c_r_g_b_ae53bdf9d69ca2b2112f2c5a23922517b.html#ae53bdf9d69ca2b2112f2c5a23922517b" target="_top" xlink:title=" ">
<polygon fill="white" stroke="#666666" points="391,-78 285,-78 285,-48 391,-48 391,-78"/>
<text text-anchor="start" x="293" y="-66" font-family="Helvetica,sans-Serif" font-size="10.00">fl::XYRasterSparse</text>
<text text-anchor="middle" x="338" y="-55" font-family="Helvetica,sans-Serif" font-size="10.00">_CRGB::bounds</text>
</a>
</g>
</g>
<!-- Node2&#45;&gt;Node3 -->
<g id="edge2_Node000002_Node000003" class="edge">
<title>Node2&#45;&gt;Node3</title>
<g id="a_edge2_Node000002_Node000003"><a xlink:title=" ">
<path fill="none" stroke="#63b8ff" d="M240.57,-95.94C254.17,-91.3 269.3,-86.13 283.46,-81.29"/>
<polygon fill="#63b8ff" stroke="#63b8ff" points="284.76,-84.55 293.09,-78 282.49,-77.92 284.76,-84.55"/>
</a>
</g>
</g>
<!-- Node5 -->
<g id="Node000005" class="node">
<title>Node5</title>
<g id="a_Node000005"><a xlink:href="../../d2/d48/structfl_1_1rect_a10a26664913a5c0d2c1bc90324eec211.html#a10a26664913a5c0d2c1bc90324eec211" target="_top" xlink:title=" ">
<polygon fill="white" stroke="#666666" points="380,-120.5 296,-120.5 296,-101.5 380,-101.5 380,-120.5"/>
<text text-anchor="middle" x="338" y="-108.5" font-family="Helvetica,sans-Serif" font-size="10.00">fl::rect::height</text>
</a>
</g>
</g>
<!-- Node2&#45;&gt;Node5 -->
<g id="edge4_Node000002_Node000005" class="edge">
<title>Node2&#45;&gt;Node5</title>
<g id="a_edge4_Node000002_Node000005"><a xlink:title=" ">
<path fill="none" stroke="#63b8ff" d="M248.82,-111C260.77,-111 273.45,-111 285.37,-111"/>
<polygon fill="#63b8ff" stroke="#63b8ff" points="285.61,-114.5 295.61,-111 285.61,-107.5 285.61,-114.5"/>
</a>
</g>
</g>
<!-- Node4 -->
<g id="Node000004" class="node">
<title>Node4</title>
<g id="a_Node000004"><a xlink:href="../../d3/dca/classfl_1_1_x_y_raster_sparse___c_r_g_b_a31cf1601bf36d1bf360defeddd6bc919.html#a31cf1601bf36d1bf360defeddd6bc919" target="_top" xlink:title=" ">
<polygon fill="white" stroke="#666666" points="552,-78 427,-78 427,-48 552,-48 552,-78"/>
<text text-anchor="start" x="435" y="-66" font-family="Helvetica,sans-Serif" font-size="10.00">fl::XYRasterSparse</text>
<text text-anchor="middle" x="489.5" y="-55" font-family="Helvetica,sans-Serif" font-size="10.00">_CRGB::bounds_pixels</text>
</a>
</g>
</g>
<!-- Node3&#45;&gt;Node4 -->
<g id="edge3_Node000003_Node000004" class="edge">
<title>Node3&#45;&gt;Node4</title>
<g id="a_edge3_Node000003_Node000004"><a xlink:title=" ">
<path fill="none" stroke="#63b8ff" d="M391.29,-63C399.52,-63 408.15,-63 416.73,-63"/>
<polygon fill="#63b8ff" stroke="#63b8ff" points="416.75,-66.5 426.75,-63 416.75,-59.5 416.75,-66.5"/>
</a>
</g>
</g>
<!-- Node6&#45;&gt;Node3 -->
<g id="edge6_Node000006_Node000003" class="edge">
<title>Node6&#45;&gt;Node3</title>
<g id="a_edge6_Node000006_Node000003"><a xlink:title=" ">
<path fill="none" stroke="#63b8ff" d="M249.22,-63C257.52,-63 266.17,-63 274.67,-63"/>
<polygon fill="#63b8ff" stroke="#63b8ff" points="274.92,-66.5 284.92,-63 274.92,-59.5 274.92,-66.5"/>
</a>
</g>
</g>
<!-- Node7&#45;&gt;Node3 -->
<g id="edge8_Node000007_Node000003" class="edge">
<title>Node7&#45;&gt;Node3</title>
<g id="a_edge8_Node000007_Node000003"><a xlink:title=" ">
<path fill="none" stroke="#63b8ff" d="M240.57,-30.06C254.17,-34.7 269.3,-39.87 283.46,-44.71"/>
<polygon fill="#63b8ff" stroke="#63b8ff" points="282.49,-48.08 293.09,-48 284.76,-41.45 282.49,-48.08"/>
</a>
</g>
</g>
<!-- Node8 -->
<g id="Node000008" class="node">
<title>Node8</title>
<g id="a_Node000008"><a xlink:href="../../d2/d48/structfl_1_1rect_a53a34c983506bad429941593f00d022d.html#a53a34c983506bad429941593f00d022d" target="_top" xlink:title=" ">
<polygon fill="white" stroke="#666666" points="378,-24.5 298,-24.5 298,-5.5 378,-5.5 378,-24.5"/>
<text text-anchor="middle" x="338" y="-12.5" font-family="Helvetica,sans-Serif" font-size="10.00">fl::rect::width</text>
</a>
</g>
</g>
<!-- Node7&#45;&gt;Node8 -->
<g id="edge9_Node000007_Node000008" class="edge">
<title>Node7&#45;&gt;Node8</title>
<g id="a_edge9_Node000007_Node000008"><a xlink:title=" ">
<path fill="none" stroke="#63b8ff" d="M248.82,-15C261.5,-15 275.01,-15 287.55,-15"/>
<polygon fill="#63b8ff" stroke="#63b8ff" points="287.82,-18.5 297.82,-15 287.82,-11.5 287.82,-18.5"/>
</a>
</g>
</g>
</g>
</svg>
