<?xml version="1.0" encoding="UTF-8" standalone="no"?>
<!DOCTYPE svg PUBLIC "-//W3C//DTD SVG 1.1//EN"
 "http://www.w3.org/Graphics/SVG/1.1/DTD/svg11.dtd">
<!-- Generated by graphviz version 2.43.0 (0)
 -->
<!-- Title: fl::fill_gradient_RGB Pages: 1 -->
<svg width="270pt" height="212pt"
 viewBox="0.00 0.00 270.00 212.00" xmlns="http://www.w3.org/2000/svg" xmlns:xlink="http://www.w3.org/1999/xlink">

<svg id="main" version="1.1" xmlns="http://www.w3.org/2000/svg" xmlns:xlink="http://www.w3.org/1999/xlink" xml:space="preserve">

<style type="text/css"><![CDATA[
.node, .edge {opacity: 0.7;}
.node.selected, .edge.selected {opacity: 1;}
.edge:hover path { stroke: red; }
.edge:hover polygon { stroke: red; fill: red; }
]]></style>
<script type="application/ecmascript" xlink:href="../../svg.min.js"/>
<svg id="graph" class="graph">
<g id="graph0" class="graph" transform="scale(1 1) rotate(0) translate(4 208)">
<title>fl::fill_gradient_RGB</title>
<!-- Node1 -->
<g id="Node000001" class="node">
<title>Node1</title>
<g id="a_Node000001"><a xlink:title="Fill a range of LEDs with a smooth RGB gradient between two RGB colors.">
<polygon fill="#999999" stroke="#666666" points="262,-111 149,-111 149,-92 262,-92 262,-111"/>
<text text-anchor="middle" x="205.5" y="-99" font-family="Helvetica,sans-Serif" font-size="10.00">fl::fill_gradient_RGB</text>
</a>
</g>
</g>
<!-- Node2 -->
<g id="Node000002" class="node">
<title>Node2</title>
<g id="a_Node000002"><a xlink:href="../../da/de3/group___color_fills_gaf7a5572360b29cd4553a21d83d271ade.html#gaf7a5572360b29cd4553a21d83d271ade" target="_top" xlink:title="Fill a range of LEDs with a smooth RGB gradient between two RGB colors.">
<polygon fill="white" stroke="#666666" points="113,-204 0,-204 0,-185 113,-185 113,-204"/>
<text text-anchor="middle" x="56.5" y="-192" font-family="Helvetica,sans-Serif" font-size="10.00">fl::fill_gradient_RGB</text>
</a>
</g>
</g>
<!-- Node1&#45;&gt;Node2 -->
<g id="edge1_Node000001_Node000002" class="edge">
<title>Node1&#45;&gt;Node2</title>
<g id="a_edge1_Node000001_Node000002"><a xlink:title=" ">
<path fill="none" stroke="#63b8ff" d="M187.66,-118.63C170.32,-135.43 141.81,-160.76 113,-176.5 106.96,-179.8 100.21,-182.62 93.55,-184.98"/>
<polygon fill="#63b8ff" stroke="#63b8ff" points="190.59,-120.67 195.24,-111.15 185.66,-115.69 190.59,-120.67"/>
</a>
</g>
</g>
<!-- Node3 -->
<g id="Node000003" class="node">
<title>Node3</title>
<g id="a_Node000003"><a xlink:href="../../da/de3/group___color_fills_gaade55a1491dc9407373576807244ff5d.html#gaade55a1491dc9407373576807244ff5d" target="_top" xlink:title="Fill a range of LEDs with a smooth RGB gradient between three RGB colors.">
<polygon fill="white" stroke="#666666" points="113,-167 0,-167 0,-148 113,-148 113,-167"/>
<text text-anchor="middle" x="56.5" y="-155" font-family="Helvetica,sans-Serif" font-size="10.00">fl::fill_gradient_RGB</text>
</a>
</g>
</g>
<!-- Node1&#45;&gt;Node3 -->
<g id="edge2_Node000001_Node000003" class="edge">
<title>Node1&#45;&gt;Node3</title>
<g id="a_edge2_Node000001_Node000003"><a xlink:title=" ">
<path fill="none" stroke="#63b8ff" d="M173.64,-115.04C156.02,-122.59 133.42,-131.96 113,-139.5 105.11,-142.41 96.51,-145.33 88.48,-147.94"/>
<polygon fill="#63b8ff" stroke="#63b8ff" points="175.08,-118.23 182.88,-111.05 172.31,-111.8 175.08,-118.23"/>
</a>
</g>
</g>
<!-- Node4 -->
<g id="Node000004" class="node">
<title>Node4</title>
<g id="a_Node000004"><a xlink:href="../../da/de3/group___color_fills_ga9d7a8f0ef8a47b2ad6ca9343bc30decc.html#ga9d7a8f0ef8a47b2ad6ca9343bc30decc" target="_top" xlink:title="Fill a range of LEDs with a smooth RGB gradient between four RGB colors.">
<polygon fill="white" stroke="#666666" points="113,-130 0,-130 0,-111 113,-111 113,-130"/>
<text text-anchor="middle" x="56.5" y="-118" font-family="Helvetica,sans-Serif" font-size="10.00">fl::fill_gradient_RGB</text>
</a>
</g>
</g>
<!-- Node1&#45;&gt;Node4 -->
<g id="edge3_Node000001_Node000004" class="edge">
<title>Node1&#45;&gt;Node4</title>
<g id="a_edge3_Node000001_Node000004"><a xlink:title=" ">
<path fill="none" stroke="#63b8ff" d="M138.92,-109.98C130.32,-111.09 121.57,-112.22 113.15,-113.31"/>
<polygon fill="#63b8ff" stroke="#63b8ff" points="139.46,-113.44 148.93,-108.68 138.56,-106.49 139.46,-113.44"/>
</a>
</g>
</g>
<!-- Node5 -->
<g id="Node000005" class="node">
<title>Node5</title>
<g id="a_Node000005"><a xlink:href="../../da/de3/group___color_fills_gaf4c14917520f05e96e41b508f852be9c.html#gaf4c14917520f05e96e41b508f852be9c" target="_top" xlink:title="Fill a range of LEDs with a smooth RGB gradient between two RGB colors.">
<polygon fill="white" stroke="#666666" points="113,-93 0,-93 0,-74 113,-74 113,-93"/>
<text text-anchor="middle" x="56.5" y="-81" font-family="Helvetica,sans-Serif" font-size="10.00">fl::fill_gradient_RGB</text>
</a>
</g>
</g>
<!-- Node1&#45;&gt;Node5 -->
<g id="edge4_Node000001_Node000005" class="edge">
<title>Node1&#45;&gt;Node5</title>
<g id="a_edge4_Node000001_Node000005"><a xlink:title=" ">
<path fill="none" stroke="#63b8ff" d="M138.92,-93.47C130.32,-92.42 121.57,-91.35 113.15,-90.31"/>
<polygon fill="#63b8ff" stroke="#63b8ff" points="138.57,-96.95 148.93,-94.69 139.43,-90.01 138.57,-96.95"/>
</a>
</g>
</g>
<!-- Node6 -->
<g id="Node000006" class="node">
<title>Node6</title>
<g id="a_Node000006"><a xlink:href="../../da/de3/group___color_fills_gabdc436a839ab34f1eb539c5ec369d0b3.html#gabdc436a839ab34f1eb539c5ec369d0b3" target="_top" xlink:title="Fill a range of LEDs with a smooth RGB gradient between two RGB colors.">
<polygon fill="white" stroke="#666666" points="113,-56 0,-56 0,-37 113,-37 113,-56"/>
<text text-anchor="middle" x="56.5" y="-44" font-family="Helvetica,sans-Serif" font-size="10.00">fl::fill_gradient_RGB</text>
</a>
</g>
</g>
<!-- Node1&#45;&gt;Node6 -->
<g id="edge5_Node000001_Node000006" class="edge">
<title>Node1&#45;&gt;Node6</title>
<g id="a_edge5_Node000001_Node000006"><a xlink:title=" ">
<path fill="none" stroke="#63b8ff" d="M171.26,-88.01C153.96,-81.09 132.42,-72.64 113,-65.5 104.3,-62.3 94.77,-58.98 86.11,-56.02"/>
<polygon fill="#63b8ff" stroke="#63b8ff" points="170.33,-91.4 180.91,-91.88 172.94,-84.91 170.33,-91.4"/>
</a>
</g>
</g>
<!-- Node7 -->
<g id="Node000007" class="node">
<title>Node7</title>
<g id="a_Node000007"><a xlink:href="../../da/de3/group___color_fills_ga35c3a922793310c64ad3546d738546fe.html#ga35c3a922793310c64ad3546d738546fe" target="_top" xlink:title="Fill a range of LEDs with a smooth RGB gradient between two RGB colors.">
<polygon fill="white" stroke="#666666" points="113,-19 0,-19 0,0 113,0 113,-19"/>
<text text-anchor="middle" x="56.5" y="-7" font-family="Helvetica,sans-Serif" font-size="10.00">fl::fill_gradient_RGB</text>
</a>
</g>
</g>
<!-- Node1&#45;&gt;Node7 -->
<g id="edge6_Node000001_Node000007" class="edge">
<title>Node1&#45;&gt;Node7</title>
<g id="a_edge6_Node000001_Node000007"><a xlink:title=" ">
<path fill="none" stroke="#63b8ff" d="M187.24,-84.69C169.76,-68.43 141.33,-44.04 113,-28.5 106.3,-24.83 98.77,-21.68 91.46,-19.06"/>
<polygon fill="#63b8ff" stroke="#63b8ff" points="185.23,-87.6 194.9,-91.94 190.05,-82.52 185.23,-87.6"/>
</a>
</g>
</g>
</g>
</svg>
</svg>

<style type='text/css'>
<![CDATA[
[data-mouse-over-selected='false'] { opacity: 0.7; }
[data-mouse-over-selected='true']  { opacity: 1.0; }
]]>
</style>
<script type="application/ecmascript"><![CDATA[
document.addEventListener('DOMContentLoaded', (event) => {
  highlightEdges();
  highlightAdjacentNodes();
});
]]></script>
</svg>
