<?xml version="1.0" encoding="UTF-8" standalone="no"?>
<!DOCTYPE svg PUBLIC "-//W3C//DTD SVG 1.1//EN"
 "http://www.w3.org/Graphics/SVG/1.1/DTD/svg11.dtd">
<!-- Generated by graphviz version 2.43.0 (0)
 -->
<!-- Title: fl::NoiseBias2D::y Pages: 1 -->
<svg width="266pt" height="64pt"
 viewBox="0.00 0.00 266.00 64.00" xmlns="http://www.w3.org/2000/svg" xmlns:xlink="http://www.w3.org/1999/xlink">
<g id="graph0" class="graph" transform="scale(1 1) rotate(0) translate(4 60)">
<title>fl::NoiseBias2D::y</title>
<!-- Node1 -->
<g id="Node000001" class="node">
<title>Node1</title>
<g id="a_Node000001"><a xlink:title=" ">
<polygon fill="#999999" stroke="#666666" points="258,-37 155,-37 155,-18 258,-18 258,-37"/>
<text text-anchor="middle" x="206.5" y="-25" font-family="Helvetica,sans-Serif" font-size="10.00">fl::NoiseBias2D::y</text>
</a>
</g>
</g>
<!-- Node2 -->
<g id="Node000002" class="node">
<title>Node2</title>
<g id="a_Node000002"><a xlink:href="../../d3/ddd/classfl_1_1_noise_bias2_d_a23df4d6ff614a82df8a4b4f30fc7f618.html#a23df4d6ff614a82df8a4b4f30fc7f618" target="_top" xlink:title=" ">
<polygon fill="white" stroke="#666666" points="116,-56 3,-56 3,-37 116,-37 116,-56"/>
<text text-anchor="middle" x="59.5" y="-44" font-family="Helvetica,sans-Serif" font-size="10.00">fl::NoiseBias2D::get</text>
</a>
</g>
</g>
<!-- Node1&#45;&gt;Node2 -->
<g id="edge1_Node000001_Node000002" class="edge">
<title>Node1&#45;&gt;Node2</title>
<g id="a_edge1_Node000001_Node000002"><a xlink:title=" ">
<path fill="none" stroke="#63b8ff" d="M144.73,-35.46C135.33,-36.69 125.66,-37.96 116.38,-39.18"/>
<polygon fill="#63b8ff" stroke="#63b8ff" points="145.33,-38.91 154.79,-34.15 144.42,-31.97 145.33,-38.91"/>
</a>
</g>
</g>
<!-- Node3 -->
<g id="Node000003" class="node">
<title>Node3</title>
<g id="a_Node000003"><a xlink:href="../../d3/ddd/classfl_1_1_noise_bias2_d_a3d01f3120587b957ced3157fdcac39d3.html#a3d01f3120587b957ced3157fdcac39d3" target="_top" xlink:title=" ">
<polygon fill="white" stroke="#666666" points="119,-19 0,-19 0,0 119,0 119,-19"/>
<text text-anchor="middle" x="59.5" y="-7" font-family="Helvetica,sans-Serif" font-size="10.00">fl::NoiseBias2D::getY</text>
</a>
</g>
</g>
<!-- Node1&#45;&gt;Node3 -->
<g id="edge2_Node000001_Node000003" class="edge">
<title>Node1&#45;&gt;Node3</title>
<g id="a_edge2_Node000001_Node000003"><a xlink:title=" ">
<path fill="none" stroke="#63b8ff" d="M144.63,-19.94C136.19,-18.9 127.53,-17.82 119.13,-16.78"/>
<polygon fill="#63b8ff" stroke="#63b8ff" points="144.43,-23.45 154.79,-21.2 145.29,-16.5 144.43,-23.45"/>
</a>
</g>
</g>
</g>
</svg>
