<?xml version="1.0" encoding="UTF-8" standalone="no"?>
<!DOCTYPE svg PUBLIC "-//W3C//DTD SVG 1.1//EN"
 "http://www.w3.org/Graphics/SVG/1.1/DTD/svg11.dtd">
<!-- Generated by graphviz version 2.43.0 (0)
 -->
<!-- Title: sensors/digital_pin.h Pages: 1 -->
<svg width="3316pt" height="291pt"
 viewBox="0.00 0.00 3315.50 291.00" xmlns="http://www.w3.org/2000/svg" xmlns:xlink="http://www.w3.org/1999/xlink">
<g id="graph0" class="graph" transform="scale(1 1) rotate(0) translate(4 287)">
<title>sensors/digital_pin.h</title>
<!-- Node1 -->
<g id="Node000001" class="node">
<title>Node1</title>
<g id="a_Node000001"><a xlink:title=" ">
<polygon fill="#999999" stroke="#666666" points="1595,-283 1478,-283 1478,-264 1595,-264 1595,-283"/>
<text text-anchor="middle" x="1536.5" y="-271" font-family="Helvetica,sans-Serif" font-size="10.00">sensors/digital_pin.h</text>
</a>
</g>
</g>
<!-- Node2 -->
<g id="Node000002" class="node">
<title>Node2</title>
<g id="a_Node000002"><a xlink:href="../../d6/df7/button_8cpp.html" target="_top" xlink:title=" ">
<polygon fill="white" stroke="#666666" points="109,-107 0,-107 0,-88 109,-88 109,-107"/>
<text text-anchor="middle" x="54.5" y="-95" font-family="Helvetica,sans-Serif" font-size="10.00">sensors/button.cpp</text>
</a>
</g>
</g>
<!-- Node1&#45;&gt;Node2 -->
<g id="edge1_Node000001_Node000002" class="edge">
<title>Node1&#45;&gt;Node2</title>
<g id="a_edge1_Node000001_Node000002"><a xlink:title=" ">
<path fill="none" stroke="#63b8ff" d="M1467.63,-268.12C1294.64,-256.7 828.03,-223.39 441.5,-173 297.1,-154.17 260.21,-151.51 118.5,-118 105.61,-114.95 91.51,-110.75 79.83,-107.03"/>
<polygon fill="#63b8ff" stroke="#63b8ff" points="1467.65,-271.63 1477.86,-268.79 1468.11,-264.64 1467.65,-271.63"/>
</a>
</g>
</g>
<!-- Node3 -->
<g id="Node000003" class="node">
<title>Node3</title>
<g id="a_Node000003"><a xlink:href="../../d7/d0e/button_8h.html" target="_top" xlink:title=" ">
<polygon fill="white" stroke="#666666" points="1547.5,-228 1449.5,-228 1449.5,-209 1547.5,-209 1547.5,-228"/>
<text text-anchor="middle" x="1498.5" y="-216" font-family="Helvetica,sans-Serif" font-size="10.00">sensors/button.h</text>
</a>
</g>
</g>
<!-- Node1&#45;&gt;Node3 -->
<g id="edge2_Node000001_Node000003" class="edge">
<title>Node1&#45;&gt;Node3</title>
<g id="a_edge2_Node000001_Node000003"><a xlink:title=" ">
<path fill="none" stroke="#63b8ff" d="M1524.23,-255.39C1517.69,-246.27 1509.93,-235.45 1504.66,-228.09"/>
<polygon fill="#63b8ff" stroke="#63b8ff" points="1521.55,-257.66 1530.23,-263.75 1527.24,-253.58 1521.55,-257.66"/>
</a>
</g>
</g>
<!-- Node29 -->
<g id="Node000029" class="node">
<title>Node29</title>
<g id="a_Node000029"><a xlink:href="../../de/d2b/digital__pin_8cpp.html" target="_top" xlink:title=" ">
<polygon fill="white" stroke="#666666" points="3307.5,-107 3179.5,-107 3179.5,-88 3307.5,-88 3307.5,-107"/>
<text text-anchor="middle" x="3243.5" y="-95" font-family="Helvetica,sans-Serif" font-size="10.00">sensors/digital_pin.cpp</text>
</a>
</g>
</g>
<!-- Node1&#45;&gt;Node29 -->
<g id="edge35_Node000001_Node000029" class="edge">
<title>Node1&#45;&gt;Node29</title>
<g id="a_edge35_Node000001_Node000029"><a xlink:title=" ">
<path fill="none" stroke="#63b8ff" d="M1605.2,-268.22C1720.89,-260.87 1961.91,-245.02 2165.5,-228 2419.13,-206.8 2482.56,-201.19 2735.5,-173 2929.17,-151.42 2979.26,-155.45 3170.5,-118 3185.3,-115.1 3201.54,-110.87 3214.93,-107.09"/>
<polygon fill="#63b8ff" stroke="#63b8ff" points="1604.83,-264.73 1595.07,-268.86 1605.27,-271.72 1604.83,-264.73"/>
</a>
</g>
</g>
<!-- Node30 -->
<g id="Node000030" class="node">
<title>Node30</title>
<g id="a_Node000030"><a xlink:href="../../d9/dd3/pir_8h.html" target="_top" xlink:title=" ">
<polygon fill="#fff0f0" stroke="red" points="3161.5,-107 3083.5,-107 3083.5,-88 3161.5,-88 3161.5,-107"/>
<text text-anchor="middle" x="3122.5" y="-95" font-family="Helvetica,sans-Serif" font-size="10.00">sensors/pir.h</text>
</a>
</g>
</g>
<!-- Node1&#45;&gt;Node30 -->
<g id="edge36_Node000001_Node000030" class="edge">
<title>Node1&#45;&gt;Node30</title>
<g id="a_edge36_Node000001_Node000030"><a xlink:title=" ">
<path fill="none" stroke="#63b8ff" d="M1605.33,-266.75C1885.28,-243.21 2930.34,-153.74 3074.5,-118 3084.8,-115.45 3095.81,-111.1 3104.67,-107.16"/>
<polygon fill="#63b8ff" stroke="#63b8ff" points="1604.98,-263.27 1595.31,-267.59 1605.56,-270.24 1604.98,-263.27"/>
</a>
</g>
</g>
<!-- Node3&#45;&gt;Node2 -->
<g id="edge34_Node000003_Node000002" class="edge">
<title>Node3&#45;&gt;Node2</title>
<g id="a_edge34_Node000003_Node000002"><a xlink:title=" ">
<path fill="none" stroke="#63b8ff" d="M1439.31,-215C1209.75,-205.02 378.12,-166.28 118.5,-118 104.8,-115.45 89.88,-111.01 77.89,-107.01"/>
<polygon fill="#63b8ff" stroke="#63b8ff" points="1439.32,-218.5 1449.47,-215.44 1439.63,-211.51 1439.32,-218.5"/>
</a>
</g>
</g>
<!-- Node4 -->
<g id="Node000004" class="node">
<title>Node4</title>
<g id="a_Node000004"><a xlink:href="../../d9/d3b/ui_8h.html" target="_top" xlink:title=" ">
<polygon fill="white" stroke="#666666" points="1520.5,-173 1476.5,-173 1476.5,-154 1520.5,-154 1520.5,-173"/>
<text text-anchor="middle" x="1498.5" y="-161" font-family="Helvetica,sans-Serif" font-size="10.00">fl/ui.h</text>
</a>
</g>
</g>
<!-- Node3&#45;&gt;Node4 -->
<g id="edge3_Node000003_Node000004" class="edge">
<title>Node3&#45;&gt;Node4</title>
<g id="a_edge3_Node000003_Node000004"><a xlink:title=" ">
<path fill="none" stroke="#63b8ff" d="M1492.01,-198.66C1491.41,-189.93 1491.86,-179.99 1493.37,-173.09"/>
<polygon fill="#63b8ff" stroke="#63b8ff" points="1488.56,-199.29 1493.33,-208.75 1495.5,-198.38 1488.56,-199.29"/>
</a>
</g>
</g>
<!-- Node4&#45;&gt;Node2 -->
<g id="edge29_Node000004_Node000002" class="edge">
<title>Node4&#45;&gt;Node2</title>
<g id="a_edge29_Node000004_Node000002"><a xlink:title=" ">
<path fill="none" stroke="#63b8ff" d="M1466.14,-161.97C1271.03,-158.69 255.22,-140.62 118.5,-118 104.52,-115.69 89.33,-111.15 77.26,-107.03"/>
<polygon fill="#63b8ff" stroke="#63b8ff" points="1466.26,-165.47 1476.31,-162.14 1466.37,-158.47 1466.26,-165.47"/>
</a>
</g>
</g>
<!-- Node4&#45;&gt;Node3 -->
<g id="edge30_Node000004_Node000003" class="edge">
<title>Node4&#45;&gt;Node3</title>
<g id="a_edge30_Node000004_Node000003"><a xlink:title=" ">
<path fill="none" stroke="#63b8ff" d="M1504.98,-183.13C1505.6,-191.85 1505.16,-201.8 1503.67,-208.75"/>
<polygon fill="#63b8ff" stroke="#63b8ff" points="1508.43,-182.53 1503.63,-173.09 1501.49,-183.47 1508.43,-182.53"/>
</a>
</g>
</g>
<!-- Node5 -->
<g id="Node000005" class="node">
<title>Node5</title>
<g id="a_Node000005"><a xlink:href="../../dc/d5d/_audio_8ino.html" target="_top" xlink:title=" ">
<polygon fill="white" stroke="#666666" points="277.5,-118 127.5,-118 127.5,-77 277.5,-77 277.5,-118"/>
<text text-anchor="start" x="135.5" y="-106" font-family="Helvetica,sans-Serif" font-size="10.00">/home/runner/work/FastLED</text>
<text text-anchor="start" x="135.5" y="-95" font-family="Helvetica,sans-Serif" font-size="10.00">/FastLED/examples/Audio</text>
<text text-anchor="middle" x="202.5" y="-84" font-family="Helvetica,sans-Serif" font-size="10.00">/Audio.ino</text>
</a>
</g>
</g>
<!-- Node4&#45;&gt;Node5 -->
<g id="edge4_Node000004_Node000005" class="edge">
<title>Node4&#45;&gt;Node5</title>
<g id="a_edge4_Node000004_Node000005"><a xlink:title=" ">
<path fill="none" stroke="#63b8ff" d="M1466.13,-162.16C1298.04,-160.28 523.33,-149.99 285.5,-118 283.01,-117.66 280.48,-117.29 277.93,-116.88"/>
<polygon fill="#63b8ff" stroke="#63b8ff" points="1466.28,-165.66 1476.32,-162.27 1466.36,-158.66 1466.28,-165.66"/>
</a>
</g>
</g>
<!-- Node6 -->
<g id="Node000006" class="node">
<title>Node6</title>
<g id="a_Node000006"><a xlink:href="../../da/d05/_bilinear_compression_8ino.html" target="_top" xlink:title=" ">
<polygon fill="white" stroke="#666666" points="508,-118 295,-118 295,-77 508,-77 508,-118"/>
<text text-anchor="start" x="303" y="-106" font-family="Helvetica,sans-Serif" font-size="10.00">/home/runner/work/FastLED</text>
<text text-anchor="start" x="303" y="-95" font-family="Helvetica,sans-Serif" font-size="10.00">/FastLED/examples/BilinearCompression</text>
<text text-anchor="middle" x="401.5" y="-84" font-family="Helvetica,sans-Serif" font-size="10.00">/BilinearCompression.ino</text>
</a>
</g>
</g>
<!-- Node4&#45;&gt;Node6 -->
<g id="edge5_Node000004_Node000006" class="edge">
<title>Node4&#45;&gt;Node6</title>
<g id="a_edge5_Node000004_Node000006"><a xlink:title=" ">
<path fill="none" stroke="#63b8ff" d="M1466,-162.47C1342.14,-162.06 887.94,-157.76 516.5,-118 513.78,-117.71 511.03,-117.39 508.26,-117.06"/>
<polygon fill="#63b8ff" stroke="#63b8ff" points="1466.29,-165.97 1476.3,-162.5 1466.31,-158.97 1466.29,-165.97"/>
</a>
</g>
</g>
<!-- Node7 -->
<g id="Node000007" class="node">
<title>Node7</title>
<g id="a_Node000007"><a xlink:href="../../df/d42/_blur2d_8ino.html" target="_top" xlink:title=" ">
<polygon fill="white" stroke="#666666" points="675.5,-118 525.5,-118 525.5,-77 675.5,-77 675.5,-118"/>
<text text-anchor="start" x="533.5" y="-106" font-family="Helvetica,sans-Serif" font-size="10.00">/home/runner/work/FastLED</text>
<text text-anchor="start" x="533.5" y="-95" font-family="Helvetica,sans-Serif" font-size="10.00">/FastLED/examples/Blur2d</text>
<text text-anchor="middle" x="600.5" y="-84" font-family="Helvetica,sans-Serif" font-size="10.00">/Blur2d.ino</text>
</a>
</g>
</g>
<!-- Node4&#45;&gt;Node7 -->
<g id="edge6_Node000004_Node000007" class="edge">
<title>Node4&#45;&gt;Node7</title>
<g id="a_edge6_Node000004_Node000007"><a xlink:title=" ">
<path fill="none" stroke="#63b8ff" d="M1466.24,-162.74C1356.27,-163.13 986.22,-160.94 684.5,-118 681.68,-117.6 678.82,-117.15 675.94,-116.66"/>
<polygon fill="#63b8ff" stroke="#63b8ff" points="1466.36,-166.24 1476.35,-162.69 1466.33,-159.24 1466.36,-166.24"/>
</a>
</g>
</g>
<!-- Node8 -->
<g id="Node000008" class="node">
<title>Node8</title>
<g id="a_Node000008"><a xlink:href="../../d1/ddb/_chromancer_8ino.html" target="_top" xlink:title=" ">
<polygon fill="white" stroke="#666666" points="865,-118 694,-118 694,-77 865,-77 865,-118"/>
<text text-anchor="start" x="702" y="-106" font-family="Helvetica,sans-Serif" font-size="10.00">/home/runner/work/FastLED</text>
<text text-anchor="start" x="702" y="-95" font-family="Helvetica,sans-Serif" font-size="10.00">/FastLED/examples/Chromancer</text>
<text text-anchor="middle" x="779.5" y="-84" font-family="Helvetica,sans-Serif" font-size="10.00">/Chromancer.ino</text>
</a>
</g>
</g>
<!-- Node4&#45;&gt;Node8 -->
<g id="edge7_Node000004_Node000008" class="edge">
<title>Node4&#45;&gt;Node8</title>
<g id="a_edge7_Node000004_Node000008"><a xlink:title=" ">
<path fill="none" stroke="#63b8ff" d="M1466.15,-161.69C1373.54,-159.05 1099.6,-148.99 874.5,-118 871.41,-117.58 868.28,-117.11 865.12,-116.61"/>
<polygon fill="#63b8ff" stroke="#63b8ff" points="1466.19,-165.19 1476.28,-161.97 1466.38,-158.19 1466.19,-165.19"/>
</a>
</g>
</g>
<!-- Node9 -->
<g id="Node000009" class="node">
<title>Node9</title>
<g id="a_Node000009"><a xlink:href="../../df/d5c/_fire_cylinder_8ino.html" target="_top" xlink:title=" ">
<polygon fill="white" stroke="#666666" points="1053.5,-118 883.5,-118 883.5,-77 1053.5,-77 1053.5,-118"/>
<text text-anchor="start" x="891.5" y="-106" font-family="Helvetica,sans-Serif" font-size="10.00">/home/runner/work/FastLED</text>
<text text-anchor="start" x="891.5" y="-95" font-family="Helvetica,sans-Serif" font-size="10.00">/FastLED/examples/FireCylinder</text>
<text text-anchor="middle" x="968.5" y="-84" font-family="Helvetica,sans-Serif" font-size="10.00">/FireCylinder.ino</text>
</a>
</g>
</g>
<!-- Node4&#45;&gt;Node9 -->
<g id="edge8_Node000004_Node000009" class="edge">
<title>Node4&#45;&gt;Node9</title>
<g id="a_edge8_Node000004_Node000009"><a xlink:title=" ">
<path fill="none" stroke="#63b8ff" d="M1465.83,-160.32C1393.09,-155.21 1212.35,-141.13 1062.5,-118 1059.62,-117.56 1056.69,-117.08 1053.74,-116.58"/>
<polygon fill="#63b8ff" stroke="#63b8ff" points="1465.95,-163.84 1476.16,-161.04 1466.43,-156.85 1465.95,-163.84"/>
</a>
</g>
</g>
<!-- Node10 -->
<g id="Node000010" class="node">
<title>Node10</title>
<g id="a_Node000010"><a xlink:href="../../dc/dfc/_fire_matrix_8ino.html" target="_top" xlink:title=" ">
<polygon fill="white" stroke="#666666" points="1233,-118 1072,-118 1072,-77 1233,-77 1233,-118"/>
<text text-anchor="start" x="1080" y="-106" font-family="Helvetica,sans-Serif" font-size="10.00">/home/runner/work/FastLED</text>
<text text-anchor="start" x="1080" y="-95" font-family="Helvetica,sans-Serif" font-size="10.00">/FastLED/examples/FireMatrix</text>
<text text-anchor="middle" x="1152.5" y="-84" font-family="Helvetica,sans-Serif" font-size="10.00">/FireMatrix.ino</text>
</a>
</g>
</g>
<!-- Node4&#45;&gt;Node10 -->
<g id="edge9_Node000004_Node000010" class="edge">
<title>Node4&#45;&gt;Node10</title>
<g id="a_edge9_Node000004_Node000010"><a xlink:title=" ">
<path fill="none" stroke="#63b8ff" d="M1466.24,-157.07C1418.42,-148.95 1325.9,-132.99 1247.5,-118 1242.79,-117.1 1237.95,-116.16 1233.06,-115.19"/>
<polygon fill="#63b8ff" stroke="#63b8ff" points="1465.86,-160.55 1476.3,-158.77 1467.03,-153.65 1465.86,-160.55"/>
</a>
</g>
</g>
<!-- Node11 -->
<g id="Node000011" class="node">
<title>Node11</title>
<g id="a_Node000011"><a xlink:href="../../dd/d96/_fx_animartrix_8ino.html" target="_top" xlink:title=" ">
<polygon fill="white" stroke="#666666" points="1185.5,-41 1009.5,-41 1009.5,0 1185.5,0 1185.5,-41"/>
<text text-anchor="start" x="1017.5" y="-29" font-family="Helvetica,sans-Serif" font-size="10.00">/home/runner/work/FastLED</text>
<text text-anchor="start" x="1017.5" y="-18" font-family="Helvetica,sans-Serif" font-size="10.00">/FastLED/examples/FxAnimartrix</text>
<text text-anchor="middle" x="1097.5" y="-7" font-family="Helvetica,sans-Serif" font-size="10.00">/FxAnimartrix.ino</text>
</a>
</g>
</g>
<!-- Node4&#45;&gt;Node11 -->
<g id="edge10_Node000004_Node000011" class="edge">
<title>Node4&#45;&gt;Node11</title>
<g id="a_edge10_Node000004_Node000011"><a xlink:title=" ">
<path fill="none" stroke="#63b8ff" d="M1466.43,-160.44C1424.19,-156.68 1348.48,-146.28 1290.5,-118 1264.98,-105.55 1265.97,-91.41 1241.5,-77 1216.68,-62.38 1187.32,-50.25 1161.6,-41.1"/>
<polygon fill="#63b8ff" stroke="#63b8ff" points="1466.17,-163.93 1476.42,-161.26 1466.74,-156.96 1466.17,-163.93"/>
</a>
</g>
</g>
<!-- Node12 -->
<g id="Node000012" class="node">
<title>Node12</title>
<g id="a_Node000012"><a xlink:href="../../d6/d35/_fx_engine_8ino.html" target="_top" xlink:title="Demonstrates how to use the FxEngine to switch between different effects on a 2D LED matrix.">
<polygon fill="white" stroke="#666666" points="1361,-41 1204,-41 1204,0 1361,0 1361,-41"/>
<text text-anchor="start" x="1212" y="-29" font-family="Helvetica,sans-Serif" font-size="10.00">/home/runner/work/FastLED</text>
<text text-anchor="start" x="1212" y="-18" font-family="Helvetica,sans-Serif" font-size="10.00">/FastLED/examples/FxEngine</text>
<text text-anchor="middle" x="1282.5" y="-7" font-family="Helvetica,sans-Serif" font-size="10.00">/FxEngine.ino</text>
</a>
</g>
</g>
<!-- Node4&#45;&gt;Node12 -->
<g id="edge11_Node000004_Node000012" class="edge">
<title>Node4&#45;&gt;Node12</title>
<g id="a_edge11_Node000004_Node000012"><a xlink:title=" ">
<path fill="none" stroke="#63b8ff" d="M1466.26,-163.17C1426.69,-162.24 1359.77,-154.79 1318.5,-118 1296.21,-98.13 1287.68,-63.12 1284.45,-41.18"/>
<polygon fill="#63b8ff" stroke="#63b8ff" points="1466.38,-166.67 1476.41,-163.27 1466.45,-159.67 1466.38,-166.67"/>
</a>
</g>
</g>
<!-- Node13 -->
<g id="Node000013" class="node">
<title>Node13</title>
<g id="a_Node000013"><a xlink:href="../../d3/dac/_fx_noise_ring_8ino.html" target="_top" xlink:title=" ">
<polygon fill="white" stroke="#666666" points="2561,-41 2388,-41 2388,0 2561,0 2561,-41"/>
<text text-anchor="start" x="2396" y="-29" font-family="Helvetica,sans-Serif" font-size="10.00">/home/runner/work/FastLED</text>
<text text-anchor="start" x="2396" y="-18" font-family="Helvetica,sans-Serif" font-size="10.00">/FastLED/examples/FxNoiseRing</text>
<text text-anchor="middle" x="2474.5" y="-7" font-family="Helvetica,sans-Serif" font-size="10.00">/FxNoiseRing.ino</text>
</a>
</g>
</g>
<!-- Node4&#45;&gt;Node13 -->
<g id="edge12_Node000004_Node000013" class="edge">
<title>Node4&#45;&gt;Node13</title>
<g id="a_edge12_Node000004_Node000013"><a xlink:title=" ">
<path fill="none" stroke="#63b8ff" d="M1501.05,-144C1504.91,-123.83 1514.31,-92.38 1536.5,-77 1605.44,-29.25 2168.8,-22.4 2387.84,-21.55"/>
<polygon fill="#63b8ff" stroke="#63b8ff" points="1497.6,-143.44 1499.43,-153.87 1504.51,-144.57 1497.6,-143.44"/>
</a>
</g>
</g>
<!-- Node14 -->
<g id="Node000014" class="node">
<title>Node14</title>
<g id="a_Node000014"><a xlink:href="../../d7/d35/_fx_sd_card_8ino.html" target="_top" xlink:title=" ">
<polygon fill="white" stroke="#666666" points="1537.5,-41 1379.5,-41 1379.5,0 1537.5,0 1537.5,-41"/>
<text text-anchor="start" x="1387.5" y="-29" font-family="Helvetica,sans-Serif" font-size="10.00">/home/runner/work/FastLED</text>
<text text-anchor="start" x="1387.5" y="-18" font-family="Helvetica,sans-Serif" font-size="10.00">/FastLED/examples/FxSdCard</text>
<text text-anchor="middle" x="1458.5" y="-7" font-family="Helvetica,sans-Serif" font-size="10.00">/FxSdCard.ino</text>
</a>
</g>
</g>
<!-- Node4&#45;&gt;Node14 -->
<g id="edge13_Node000004_Node000014" class="edge">
<title>Node4&#45;&gt;Node14</title>
<g id="a_edge13_Node000004_Node000014"><a xlink:title=" ">
<path fill="none" stroke="#63b8ff" d="M1482.92,-146.22C1476.34,-138.33 1469.33,-128.33 1465.5,-118 1456.09,-92.64 1455.75,-61.01 1456.79,-41.03"/>
<polygon fill="#63b8ff" stroke="#63b8ff" points="1480.46,-148.72 1489.72,-153.87 1485.69,-144.07 1480.46,-148.72"/>
</a>
</g>
</g>
<!-- Node15 -->
<g id="Node000015" class="node">
<title>Node15</title>
<g id="a_Node000015"><a xlink:href="../../d9/d29/wavefx_8cpp.html" target="_top" xlink:title=" ">
<polygon fill="white" stroke="#666666" points="1709,-118 1546,-118 1546,-77 1709,-77 1709,-118"/>
<text text-anchor="start" x="1554" y="-106" font-family="Helvetica,sans-Serif" font-size="10.00">/home/runner/work/FastLED</text>
<text text-anchor="start" x="1554" y="-95" font-family="Helvetica,sans-Serif" font-size="10.00">/FastLED/examples/FxWave2d</text>
<text text-anchor="middle" x="1627.5" y="-84" font-family="Helvetica,sans-Serif" font-size="10.00">/wavefx.cpp</text>
</a>
</g>
</g>
<!-- Node4&#45;&gt;Node15 -->
<g id="edge14_Node000004_Node000015" class="edge">
<title>Node4&#45;&gt;Node15</title>
<g id="a_edge14_Node000004_Node000015"><a xlink:title=" ">
<path fill="none" stroke="#63b8ff" d="M1525.05,-149.33C1543.25,-140.3 1567.72,-128.16 1588.18,-118.01"/>
<polygon fill="#63b8ff" stroke="#63b8ff" points="1523.3,-146.29 1515.9,-153.87 1526.41,-152.56 1523.3,-146.29"/>
</a>
</g>
</g>
<!-- Node16 -->
<g id="Node000016" class="node">
<title>Node16</title>
<g id="a_Node000016"><a xlink:href="../../d6/dc9/_led_rope_t_c_l_8cpp.html" target="_top" xlink:title=" ">
<polygon fill="white" stroke="#666666" points="1930,-118 1727,-118 1727,-77 1930,-77 1930,-118"/>
<text text-anchor="start" x="1735" y="-106" font-family="Helvetica,sans-Serif" font-size="10.00">/home/runner/work/FastLED</text>
<text text-anchor="start" x="1735" y="-95" font-family="Helvetica,sans-Serif" font-size="10.00">/FastLED/examples/LuminescentGrand</text>
<text text-anchor="middle" x="1828.5" y="-84" font-family="Helvetica,sans-Serif" font-size="10.00">/arduino/LedRopeTCL.cpp</text>
</a>
</g>
</g>
<!-- Node4&#45;&gt;Node16 -->
<g id="edge15_Node000004_Node000016" class="edge">
<title>Node4&#45;&gt;Node16</title>
<g id="a_edge15_Node000004_Node000016"><a xlink:title=" ">
<path fill="none" stroke="#63b8ff" d="M1530.49,-156.3C1575.72,-147.52 1660.39,-131.1 1727.95,-118"/>
<polygon fill="#63b8ff" stroke="#63b8ff" points="1529.82,-152.86 1520.66,-158.2 1531.15,-159.73 1529.82,-152.86"/>
</a>
</g>
</g>
<!-- Node17 -->
<g id="Node000017" class="node">
<title>Node17</title>
<g id="a_Node000017"><a xlink:href="../../de/d05/buttons_8h.html" target="_top" xlink:title=" ">
<polygon fill="#fff0f0" stroke="red" points="2151,-118 1948,-118 1948,-77 2151,-77 2151,-118"/>
<text text-anchor="start" x="1956" y="-106" font-family="Helvetica,sans-Serif" font-size="10.00">/home/runner/work/FastLED</text>
<text text-anchor="start" x="1956" y="-95" font-family="Helvetica,sans-Serif" font-size="10.00">/FastLED/examples/LuminescentGrand</text>
<text text-anchor="middle" x="2049.5" y="-84" font-family="Helvetica,sans-Serif" font-size="10.00">/arduino/buttons.h</text>
</a>
</g>
</g>
<!-- Node4&#45;&gt;Node17 -->
<g id="edge16_Node000004_Node000017" class="edge">
<title>Node4&#45;&gt;Node17</title>
<g id="a_edge16_Node000004_Node000017"><a xlink:title=" ">
<path fill="none" stroke="#63b8ff" d="M1530.89,-160.04C1603.86,-154.32 1786.58,-139 1938.5,-118 1941.6,-117.57 1944.75,-117.12 1947.92,-116.65"/>
<polygon fill="#63b8ff" stroke="#63b8ff" points="1530.24,-156.58 1520.54,-160.84 1530.78,-163.56 1530.24,-156.58"/>
</a>
</g>
</g>
<!-- Node19 -->
<g id="Node000019" class="node">
<title>Node19</title>
<g id="a_Node000019"><a xlink:href="../../d1/d16/_wave_8ino.html" target="_top" xlink:title=" ">
<polygon fill="white" stroke="#666666" points="2318.5,-118 2168.5,-118 2168.5,-77 2318.5,-77 2318.5,-118"/>
<text text-anchor="start" x="2176.5" y="-106" font-family="Helvetica,sans-Serif" font-size="10.00">/home/runner/work/FastLED</text>
<text text-anchor="start" x="2176.5" y="-95" font-family="Helvetica,sans-Serif" font-size="10.00">/FastLED/examples/Wave</text>
<text text-anchor="middle" x="2243.5" y="-84" font-family="Helvetica,sans-Serif" font-size="10.00">/Wave.ino</text>
</a>
</g>
</g>
<!-- Node4&#45;&gt;Node19 -->
<g id="edge17_Node000004_Node000019" class="edge">
<title>Node4&#45;&gt;Node19</title>
<g id="a_edge17_Node000004_Node000019"><a xlink:title=" ">
<path fill="none" stroke="#63b8ff" d="M1530.84,-162.16C1627.09,-160.76 1919.87,-153.64 2159.5,-118 2162.31,-117.58 2165.17,-117.12 2168.05,-116.62"/>
<polygon fill="#63b8ff" stroke="#63b8ff" points="1530.56,-158.66 1520.61,-162.3 1530.65,-165.66 1530.56,-158.66"/>
</a>
</g>
</g>
<!-- Node20 -->
<g id="Node000020" class="node">
<title>Node20</title>
<g id="a_Node000020"><a xlink:href="../../dd/d44/_wave2d_8ino.html" target="_top" xlink:title=" ">
<polygon fill="white" stroke="#666666" points="2488,-118 2337,-118 2337,-77 2488,-77 2488,-118"/>
<text text-anchor="start" x="2345" y="-106" font-family="Helvetica,sans-Serif" font-size="10.00">/home/runner/work/FastLED</text>
<text text-anchor="start" x="2345" y="-95" font-family="Helvetica,sans-Serif" font-size="10.00">/FastLED/examples/Wave2d</text>
<text text-anchor="middle" x="2412.5" y="-84" font-family="Helvetica,sans-Serif" font-size="10.00">/Wave2d.ino</text>
</a>
</g>
</g>
<!-- Node4&#45;&gt;Node20 -->
<g id="edge18_Node000004_Node000020" class="edge">
<title>Node4&#45;&gt;Node20</title>
<g id="a_edge18_Node000004_Node000020"><a xlink:title=" ">
<path fill="none" stroke="#63b8ff" d="M1530.97,-162.76C1642.48,-163.21 2019.82,-161.22 2327.5,-118 2330.5,-117.58 2333.55,-117.1 2336.62,-116.59"/>
<polygon fill="#63b8ff" stroke="#63b8ff" points="1530.75,-159.25 1520.73,-162.7 1530.71,-166.25 1530.75,-159.25"/>
</a>
</g>
</g>
<!-- Node21 -->
<g id="Node000021" class="node">
<title>Node21</title>
<g id="a_Node000021"><a xlink:href="../../d7/d3b/complex_8h.html" target="_top" xlink:title=" ">
<polygon fill="white" stroke="#666666" points="2656.5,-118 2506.5,-118 2506.5,-77 2656.5,-77 2656.5,-118"/>
<text text-anchor="start" x="2514.5" y="-106" font-family="Helvetica,sans-Serif" font-size="10.00">/home/runner/work/FastLED</text>
<text text-anchor="start" x="2514.5" y="-95" font-family="Helvetica,sans-Serif" font-size="10.00">/FastLED/examples/XYPath</text>
<text text-anchor="middle" x="2581.5" y="-84" font-family="Helvetica,sans-Serif" font-size="10.00">/complex.h</text>
</a>
</g>
</g>
<!-- Node4&#45;&gt;Node21 -->
<g id="edge19_Node000004_Node000021" class="edge">
<title>Node4&#45;&gt;Node21</title>
<g id="a_edge19_Node000004_Node000021"><a xlink:title=" ">
<path fill="none" stroke="#63b8ff" d="M1531.09,-161.84C1680.8,-158.69 2303.48,-144.22 2496.5,-118 2499.65,-117.57 2502.86,-117.08 2506.09,-116.55"/>
<polygon fill="#63b8ff" stroke="#63b8ff" points="1530.68,-158.35 1520.76,-162.06 1530.83,-165.35 1530.68,-158.35"/>
</a>
</g>
</g>
<!-- Node22 -->
<g id="Node000022" class="node">
<title>Node22</title>
<g id="a_Node000022"><a xlink:href="../../d6/daf/direct_8h.html" target="_top" xlink:title=" ">
<polygon fill="#fff0f0" stroke="red" points="2824.5,-118 2674.5,-118 2674.5,-77 2824.5,-77 2824.5,-118"/>
<text text-anchor="start" x="2682.5" y="-106" font-family="Helvetica,sans-Serif" font-size="10.00">/home/runner/work/FastLED</text>
<text text-anchor="start" x="2682.5" y="-95" font-family="Helvetica,sans-Serif" font-size="10.00">/FastLED/examples/XYPath</text>
<text text-anchor="middle" x="2749.5" y="-84" font-family="Helvetica,sans-Serif" font-size="10.00">/direct.h</text>
</a>
</g>
</g>
<!-- Node4&#45;&gt;Node22 -->
<g id="edge20_Node000004_Node000022" class="edge">
<title>Node4&#45;&gt;Node22</title>
<g id="a_edge20_Node000004_Node000022"><a xlink:title=" ">
<path fill="none" stroke="#63b8ff" d="M1531.18,-162.09C1696.03,-159.91 2437.38,-148.55 2665.5,-118 2668.32,-117.62 2671.18,-117.19 2674.07,-116.72"/>
<polygon fill="#63b8ff" stroke="#63b8ff" points="1530.7,-158.6 1520.74,-162.23 1530.79,-165.6 1530.7,-158.6"/>
</a>
</g>
</g>
<!-- Node24 -->
<g id="Node000024" class="node">
<title>Node24</title>
<g id="a_Node000024"><a xlink:href="../../d8/d14/simple_8h.html" target="_top" xlink:title=" ">
<polygon fill="white" stroke="#666666" points="2992.5,-118 2842.5,-118 2842.5,-77 2992.5,-77 2992.5,-118"/>
<text text-anchor="start" x="2850.5" y="-106" font-family="Helvetica,sans-Serif" font-size="10.00">/home/runner/work/FastLED</text>
<text text-anchor="start" x="2850.5" y="-95" font-family="Helvetica,sans-Serif" font-size="10.00">/FastLED/examples/XYPath</text>
<text text-anchor="middle" x="2917.5" y="-84" font-family="Helvetica,sans-Serif" font-size="10.00">/simple.h</text>
</a>
</g>
</g>
<!-- Node4&#45;&gt;Node24 -->
<g id="edge21_Node000004_Node000024" class="edge">
<title>Node4&#45;&gt;Node24</title>
<g id="a_edge21_Node000004_Node000024"><a xlink:title=" ">
<path fill="none" stroke="#63b8ff" d="M1530.97,-162.28C1709.19,-160.91 2570.16,-152.62 2833.5,-118 2836.32,-117.63 2839.18,-117.21 2842.07,-116.74"/>
<polygon fill="#63b8ff" stroke="#63b8ff" points="1530.88,-158.78 1520.91,-162.35 1530.94,-165.78 1530.88,-158.78"/>
</a>
</g>
</g>
<!-- Node25 -->
<g id="Node000025" class="node">
<title>Node25</title>
<g id="a_Node000025"><a xlink:href="../../d7/dd3/wasm_8ino.html" target="_top" xlink:title="Demonstrates an advanced ino file with multiple effects and UI elements.">
<polygon fill="white" stroke="#666666" points="1705.5,-41 1555.5,-41 1555.5,0 1705.5,0 1705.5,-41"/>
<text text-anchor="start" x="1563.5" y="-29" font-family="Helvetica,sans-Serif" font-size="10.00">/home/runner/work/FastLED</text>
<text text-anchor="start" x="1563.5" y="-18" font-family="Helvetica,sans-Serif" font-size="10.00">/FastLED/examples/wasm</text>
<text text-anchor="middle" x="1630.5" y="-7" font-family="Helvetica,sans-Serif" font-size="10.00">/wasm.ino</text>
</a>
</g>
</g>
<!-- Node4&#45;&gt;Node25 -->
<g id="edge22_Node000004_Node000025" class="edge">
<title>Node4&#45;&gt;Node25</title>
<g id="a_edge22_Node000004_Node000025"><a xlink:title=" ">
<path fill="none" stroke="#63b8ff" d="M1494.38,-143.88C1491.36,-125.25 1489.85,-96.59 1503.5,-77 1515.88,-59.23 1535.25,-47.1 1555.17,-38.83"/>
<polygon fill="#63b8ff" stroke="#63b8ff" points="1490.96,-144.63 1496.28,-153.79 1497.83,-143.31 1490.96,-144.63"/>
</a>
</g>
</g>
<!-- Node26 -->
<g id="Node000026" class="node">
<title>Node26</title>
<g id="a_Node000026"><a xlink:href="../../d4/d38/ui_8cpp.html" target="_top" xlink:title=" ">
<polygon fill="white" stroke="#666666" points="3065,-107 3010,-107 3010,-88 3065,-88 3065,-107"/>
<text text-anchor="middle" x="3037.5" y="-95" font-family="Helvetica,sans-Serif" font-size="10.00">fl/ui.cpp</text>
</a>
</g>
</g>
<!-- Node4&#45;&gt;Node26 -->
<g id="edge23_Node000004_Node000026" class="edge">
<title>Node4&#45;&gt;Node26</title>
<g id="a_edge23_Node000004_Node000026"><a xlink:title=" ">
<path fill="none" stroke="#63b8ff" d="M1530.88,-162.44C1736.39,-161.94 2855.08,-157.42 3001.5,-118 3009.87,-115.75 3018.44,-111.21 3025.12,-107.08"/>
<polygon fill="#63b8ff" stroke="#63b8ff" points="1530.73,-158.94 1520.74,-162.46 1530.75,-165.94 1530.73,-158.94"/>
</a>
</g>
</g>
<!-- Node27 -->
<g id="Node000027" class="node">
<title>Node27</title>
<g id="a_Node000027"><a xlink:href="../../d9/d3c/fx__engine_8h.html" target="_top" xlink:title=" ">
<polygon fill="#fff0f0" stroke="red" points="1413.5,-107 1327.5,-107 1327.5,-88 1413.5,-88 1413.5,-107"/>
<text text-anchor="middle" x="1370.5" y="-95" font-family="Helvetica,sans-Serif" font-size="10.00">fx/fx_engine.h</text>
</a>
</g>
</g>
<!-- Node4&#45;&gt;Node27 -->
<g id="edge24_Node000004_Node000027" class="edge">
<title>Node4&#45;&gt;Node27</title>
<g id="a_edge24_Node000004_Node000027"><a xlink:title=" ">
<path fill="none" stroke="#63b8ff" d="M1472.22,-149.36C1447,-136.75 1409.63,-118.06 1387.9,-107.2"/>
<polygon fill="#63b8ff" stroke="#63b8ff" points="1470.73,-152.53 1481.24,-153.87 1473.86,-146.27 1470.73,-152.53"/>
</a>
</g>
</g>
<!-- Node4&#45;&gt;Node29 -->
<g id="edge31_Node000004_Node000029" class="edge">
<title>Node4&#45;&gt;Node29</title>
<g id="a_edge31_Node000004_Node000029"><a xlink:title=" ">
<path fill="none" stroke="#63b8ff" d="M1530.79,-162.67C1733.88,-163.6 2837,-166.3 3170.5,-118 3186.34,-115.71 3203.66,-111.17 3217.45,-107.05"/>
<polygon fill="#63b8ff" stroke="#63b8ff" points="1530.77,-159.17 1520.76,-162.62 1530.74,-166.17 1530.77,-159.17"/>
</a>
</g>
</g>
<!-- Node4&#45;&gt;Node30 -->
<g id="edge32_Node000004_Node000030" class="edge">
<title>Node4&#45;&gt;Node30</title>
<g id="a_edge32_Node000004_Node000030"><a xlink:title=" ">
<path fill="none" stroke="#63b8ff" d="M1530.74,-162.28C1741.44,-160.75 2918.5,-150.77 3074.5,-118 3085.24,-115.74 3096.64,-111.21 3105.64,-107.08"/>
<polygon fill="#63b8ff" stroke="#63b8ff" points="1530.61,-158.78 1520.63,-162.35 1530.66,-165.78 1530.61,-158.78"/>
</a>
</g>
</g>
<!-- Node27&#45;&gt;Node11 -->
<g id="edge25_Node000027_Node000011" class="edge">
<title>Node27&#45;&gt;Node11</title>
<g id="a_edge25_Node000027_Node000011"><a xlink:title=" ">
<path fill="none" stroke="#63b8ff" d="M1329.73,-85.3C1287.24,-73.63 1219.82,-55.1 1168.55,-41.02"/>
<polygon fill="#63b8ff" stroke="#63b8ff" points="1328.88,-88.7 1339.45,-87.97 1330.73,-81.95 1328.88,-88.7"/>
</a>
</g>
</g>
<!-- Node27&#45;&gt;Node12 -->
<g id="edge26_Node000027_Node000012" class="edge">
<title>Node27&#45;&gt;Node12</title>
<g id="a_edge26_Node000027_Node000012"><a xlink:title=" ">
<path fill="none" stroke="#63b8ff" d="M1352.72,-81.35C1339.15,-69.79 1320.36,-53.76 1305.62,-41.21"/>
<polygon fill="#63b8ff" stroke="#63b8ff" points="1350.52,-84.07 1360.41,-87.9 1355.06,-78.75 1350.52,-84.07"/>
</a>
</g>
</g>
<!-- Node27&#45;&gt;Node14 -->
<g id="edge27_Node000027_Node000014" class="edge">
<title>Node27&#45;&gt;Node14</title>
<g id="a_edge27_Node000027_Node000014"><a xlink:title=" ">
<path fill="none" stroke="#63b8ff" d="M1388.28,-81.35C1401.85,-69.79 1420.64,-53.76 1435.38,-41.21"/>
<polygon fill="#63b8ff" stroke="#63b8ff" points="1385.94,-78.75 1380.59,-87.9 1390.48,-84.07 1385.94,-78.75"/>
</a>
</g>
</g>
<!-- Node27&#45;&gt;Node25 -->
<g id="edge28_Node000027_Node000025" class="edge">
<title>Node27&#45;&gt;Node25</title>
<g id="a_edge28_Node000027_Node000025"><a xlink:title=" ">
<path fill="none" stroke="#63b8ff" d="M1409.84,-85.15C1450.34,-73.47 1514.21,-55.05 1562.84,-41.02"/>
<polygon fill="#63b8ff" stroke="#63b8ff" points="1408.71,-81.84 1400.07,-87.97 1410.65,-88.56 1408.71,-81.84"/>
</a>
</g>
</g>
<!-- Node30&#45;&gt;Node13 -->
<g id="edge33_Node000030_Node000013" class="edge">
<title>Node30&#45;&gt;Node13</title>
<g id="a_edge33_Node000030_Node000013"><a xlink:title=" ">
<path fill="none" stroke="#63b8ff" d="M3095.36,-83.87C3088.67,-81.2 3081.43,-78.69 3074.5,-77 2895.49,-33.37 2678.8,-23.51 2561,-21.6"/>
<polygon fill="#63b8ff" stroke="#63b8ff" points="3094.11,-87.14 3104.68,-87.8 3096.83,-80.69 3094.11,-87.14"/>
</a>
</g>
</g>
</g>
</svg>
