<?xml version="1.0" encoding="UTF-8" standalone="no"?>
<!DOCTYPE svg PUBLIC "-//W3C//DTD SVG 1.1//EN"
 "http://www.w3.org/Graphics/SVG/1.1/DTD/svg11.dtd">
<!-- Generated by graphviz version 2.43.0 (0)
 -->
<!-- Title: lib8tion/intmap.h Pages: 1 -->
<!--zoomable 379 -->

<svg id="main" version="1.1" xmlns="http://www.w3.org/2000/svg" xmlns:xlink="http://www.w3.org/1999/xlink" xml:space="preserve" onload="init(evt)">

<style type="text/css"><![CDATA[
.node, .edge {opacity: 0.7;}
.node.selected, .edge.selected {opacity: 1;}
.edge:hover path { stroke: red; }
.edge:hover polygon { stroke: red; fill: red; }
]]></style>

<defs>
  <circle id="rim" cx="0" cy="0" r="7"/>
  <circle id="rim2" cx="0" cy="0" r="3.5"/>
  <g id="zoomPlus">
    <use xlink:href="#rim" fill="#404040"><set attributeName="fill" to="#808080" begin="zoomplus.mouseover" end="zoomplus.mouseout"/></use>
    <path d="M-4,0h8M0,-4v8" fill="none" stroke="white" stroke-width="1.5" pointer-events="none"/>
  </g>
  <g id="zoomMin">
    <use xlink:href="#rim" fill="#404040"><set attributeName="fill" to="#808080" begin="zoomminus.mouseover" end="zoomminus.mouseout"/></use>
    <path d="M-4,0h8" fill="none" stroke="white" stroke-width="1.5" pointer-events="none"/>
  </g>
  <g id="arrowUp" transform="translate(30 24)">
    <use xlink:href="#rim"/>
    <path pointer-events="none" fill="none" stroke="white" stroke-width="1.5" d="M0,-3.0v7 M-2.5,-0.5L0,-3.0L2.5,-0.5"/>
  </g>
  <g id="arrowRight" transform="rotate(90) translate(36 -43)">
    <use xlink:href="#rim"/>
    <path pointer-events="none" fill="none" stroke="white" stroke-width="1.5" d="M0,-3.0v7 M-2.5,-0.5L0,-3.0L2.5,-0.5"/>
  </g>
  <g id="arrowDown" transform="rotate(180) translate(-30 -48)">
    <use xlink:href="#rim"/>
    <path pointer-events="none" fill="none" stroke="white" stroke-width="1.5" d="M0,-3.0v7 M-2.5,-0.5L0,-3.0L2.5,-0.5"/>
  </g>
  <g id="arrowLeft" transform="rotate(270) translate(-36 17)">
    <use xlink:href="#rim"/>
    <path pointer-events="none" fill="none" stroke="white" stroke-width="1.5" d="M0,-3.0v7 M-2.5,-0.5L0,-3.0L2.5,-0.5"/>
  </g>
  <g id="resetDef">
    <use xlink:href="#rim2" fill="#404040"><set attributeName="fill" to="#808080" begin="reset.mouseover" end="reset.mouseout"/></use>
  </g>
</defs>
<script type="application/ecmascript">
var viewWidth = 1163;
var viewHeight = 379;
var sectionId = 'dynsection-1';
</script>
<script type="application/ecmascript" xlink:href="../../svg.min.js"/>
<svg id="graph" class="graph">
<g id="viewport">
<title>lib8tion/intmap.h</title>
<!-- Node1 -->
<g id="Node000001" class="node">
<title>Node1</title>
<g id="a_Node000001"><a xlink:title="Defines integer mapping functions.">
<polygon fill="#999999" stroke="#666666" points="920,-371 820,-371 820,-352 920,-352 920,-371"/>
<text text-anchor="middle" x="870" y="-359" font-family="Helvetica,sans-Serif" font-size="10.00">lib8tion/intmap.h</text>
</a>
</g>
</g>
<!-- Node2 -->
<g id="Node000002" class="node">
<title>Node2</title>
<g id="a_Node000002"><a xlink:href="../../dd/d05/five__bit__hd__gamma_8cpp.html" target="_top" xlink:title="Defines functions for five&#45;bit gamma correction.">
<polygon fill="white" stroke="#666666" points="142,-30 0,-30 0,-11 142,-11 142,-30"/>
<text text-anchor="middle" x="71" y="-18" font-family="Helvetica,sans-Serif" font-size="10.00">fl/five_bit_hd_gamma.cpp</text>
</a>
</g>
</g>
<!-- Node1&#45;&gt;Node2 -->
<g id="edge1_Node000001_Node000002" class="edge">
<title>Node1&#45;&gt;Node2</title>
<g id="a_edge1_Node000001_Node000002"><a xlink:title=" ">
<path fill="none" stroke="#63b8ff" d="M809.66,-357.96C633.95,-349.77 135,-320.51 135,-252.5 135,-252.5 135,-252.5 135,-140.5 135,-94.29 97.1,-48.73 79.63,-30.19"/>
<polygon fill="#63b8ff" stroke="#63b8ff" points="809.62,-361.46 819.77,-358.42 809.94,-354.47 809.62,-361.46"/>
</a>
</g>
</g>
<!-- Node3 -->
<g id="Node000003" class="node">
<title>Node3</title>
<g id="a_Node000003"><a xlink:href="../../d8/d8c/transform_8cpp.html" target="_top" xlink:title=" ">
<polygon fill="white" stroke="#666666" points="1029,-316 935,-316 935,-297 1029,-297 1029,-316"/>
<text text-anchor="middle" x="982" y="-304" font-family="Helvetica,sans-Serif" font-size="10.00">fl/transform.cpp</text>
</a>
</g>
</g>
<!-- Node1&#45;&gt;Node3 -->
<g id="edge2_Node000001_Node000003" class="edge">
<title>Node1&#45;&gt;Node3</title>
<g id="a_edge2_Node000001_Node000003"><a xlink:title=" ">
<path fill="none" stroke="#63b8ff" d="M897.19,-347.63C917.82,-337.87 945.62,-324.71 963.68,-316.17"/>
<polygon fill="#63b8ff" stroke="#63b8ff" points="895.54,-344.54 887.99,-351.98 898.53,-350.87 895.54,-344.54"/>
</a>
</g>
</g>
<!-- Node4 -->
<g id="Node000004" class="node">
<title>Node4</title>
<g id="a_Node000004"><a xlink:href="../../d5/dd1/math8_8h.html" target="_top" xlink:title="Fast, efficient 8&#45;bit math functions specifically designed for high&#45;performance LED programming.">
<polygon fill="white" stroke="#666666" points="780.5,-316 683.5,-316 683.5,-297 780.5,-297 780.5,-316"/>
<text text-anchor="middle" x="732" y="-304" font-family="Helvetica,sans-Serif" font-size="10.00">lib8tion/math8.h</text>
</a>
</g>
</g>
<!-- Node1&#45;&gt;Node4 -->
<g id="edge3_Node000001_Node000004" class="edge">
<title>Node1&#45;&gt;Node4</title>
<g id="a_edge3_Node000001_Node000004"><a xlink:title=" ">
<path fill="none" stroke="#63b8ff" d="M838.21,-348.29C812.63,-338.47 777.33,-324.91 754.58,-316.17"/>
<polygon fill="#63b8ff" stroke="#63b8ff" points="837.24,-351.67 847.83,-351.98 839.75,-345.13 837.24,-351.67"/>
</a>
</g>
</g>
<!-- Node125 -->
<g id="Node000125" class="node">
<title>Node125</title>
<g id="a_Node000125"><a xlink:href="../../d5/d4d/pixel__controller_8h.html" target="_top" xlink:title="Low level pixel data writing class.">
<polygon fill="#fff0f0" stroke="red" points="1155,-30 1055,-30 1055,-11 1155,-11 1155,-30"/>
<text text-anchor="middle" x="1105" y="-18" font-family="Helvetica,sans-Serif" font-size="10.00">pixel_controller.h</text>
</a>
</g>
</g>
<!-- Node1&#45;&gt;Node125 -->
<g id="edge27_Node000001_Node000125" class="edge">
<title>Node1&#45;&gt;Node125</title>
<g id="a_edge27_Node000001_Node000125"><a xlink:title=" ">
<path fill="none" stroke="#63b8ff" d="M880.02,-342.96C890.98,-322.09 907,-285.88 907,-252.5 907,-252.5 907,-252.5 907,-140.5 907,-100.19 1029.06,-49.82 1081.51,-30.04"/>
<polygon fill="#63b8ff" stroke="#63b8ff" points="876.87,-341.43 875.14,-351.88 883.01,-344.79 876.87,-341.43"/>
</a>
</g>
</g>
<!-- Node4&#45;&gt;Node2 -->
<g id="edge5_Node000004_Node000002" class="edge">
<title>Node4&#45;&gt;Node2</title>
<g id="a_edge5_Node000004_Node000002"><a xlink:title=" ">
<path fill="none" stroke="#63b8ff" d="M673.32,-302.62C557.79,-295.35 312,-271.22 312,-197.5 312,-197.5 312,-197.5 312,-140.5 312,-94.42 168.56,-48.61 103,-30.08"/>
<polygon fill="#63b8ff" stroke="#63b8ff" points="673.22,-306.12 683.41,-303.24 673.64,-299.14 673.22,-306.12"/>
</a>
</g>
</g>
<!-- Node5 -->
<g id="Node000005" class="node">
<title>Node5</title>
<g id="a_Node000005"><a xlink:href="../../d0/de3/crgb_8cpp.html" target="_top" xlink:title="Utility functions for the red, green, and blue (RGB) pixel struct.">
<polygon fill="white" stroke="#666666" points="1037,-30 979,-30 979,-11 1037,-11 1037,-30"/>
<text text-anchor="middle" x="1008" y="-18" font-family="Helvetica,sans-Serif" font-size="10.00">crgb.cpp</text>
</a>
</g>
</g>
<!-- Node4&#45;&gt;Node5 -->
<g id="edge4_Node000004_Node000005" class="edge">
<title>Node4&#45;&gt;Node5</title>
<g id="a_edge4_Node000004_Node000005"><a xlink:title=" ">
<path fill="none" stroke="#63b8ff" d="M771.02,-293.43C811.52,-278.2 869,-247.72 869,-197.5 869,-197.5 869,-197.5 869,-140.5 869,-110.33 872.49,-99.13 893,-77 918.68,-49.29 936.08,-57.63 970,-41 977.06,-37.54 984.79,-33.6 991.42,-30.18"/>
<polygon fill="#63b8ff" stroke="#63b8ff" points="769.62,-290.22 761.39,-296.9 771.98,-296.81 769.62,-290.22"/>
</a>
</g>
</g>
<!-- Node6 -->
<g id="Node000006" class="node">
<title>Node6</title>
<g id="a_Node000006"><a xlink:href="../../df/da5/lib8tion_8h.html" target="_top" xlink:title="Fast, efficient 8&#45;bit math functions specifically designed for high&#45;performance LED programming.">
<polygon fill="white" stroke="#666666" points="694,-261 632,-261 632,-242 694,-242 694,-261"/>
<text text-anchor="middle" x="663" y="-249" font-family="Helvetica,sans-Serif" font-size="10.00">lib8tion.h</text>
</a>
</g>
</g>
<!-- Node4&#45;&gt;Node6 -->
<g id="edge6_Node000004_Node000006" class="edge">
<title>Node4&#45;&gt;Node6</title>
<g id="a_edge6_Node000004_Node000006"><a xlink:title=" ">
<path fill="none" stroke="#63b8ff" d="M712.96,-290.88C700.54,-281.34 684.76,-269.21 674.29,-261.17"/>
<polygon fill="#63b8ff" stroke="#63b8ff" points="710.85,-293.67 720.91,-296.98 715.12,-288.12 710.85,-293.67"/>
</a>
</g>
</g>
<!-- Node7 -->
<g id="Node000007" class="node">
<title>Node7</title>
<g id="a_Node000007"><a xlink:href="../../dd/d0f/_apa102_8ino.html" target="_top" xlink:title=" ">
<polygon fill="white" stroke="#666666" points="310,-41 160,-41 160,0 310,0 310,-41"/>
<text text-anchor="start" x="168" y="-29" font-family="Helvetica,sans-Serif" font-size="10.00">/home/runner/work/FastLED</text>
<text text-anchor="start" x="168" y="-18" font-family="Helvetica,sans-Serif" font-size="10.00">/FastLED/examples/Apa102</text>
<text text-anchor="middle" x="235" y="-7" font-family="Helvetica,sans-Serif" font-size="10.00">/Apa102.ino</text>
</a>
</g>
</g>
<!-- Node6&#45;&gt;Node7 -->
<g id="edge7_Node000006_Node000007" class="edge">
<title>Node6&#45;&gt;Node7</title>
<g id="a_edge7_Node000006_Node000007"><a xlink:title=" ">
<path fill="none" stroke="#63b8ff" d="M638.15,-237.21C566.13,-198.67 356.95,-86.75 271.75,-41.17"/>
<polygon fill="#63b8ff" stroke="#63b8ff" points="636.53,-240.31 647,-241.94 639.84,-234.14 636.53,-240.31"/>
</a>
</g>
</g>
<!-- Node8 -->
<g id="Node000008" class="node">
<title>Node8</title>
<g id="a_Node000008"><a xlink:href="../../d1/d75/_apa102_h_d_8ino.html" target="_top" xlink:title="Example showing how to use the APA102HD gamma correction.">
<polygon fill="white" stroke="#666666" points="492,-41 328,-41 328,0 492,0 492,-41"/>
<text text-anchor="start" x="336" y="-29" font-family="Helvetica,sans-Serif" font-size="10.00">/home/runner/work/FastLED</text>
<text text-anchor="start" x="336" y="-18" font-family="Helvetica,sans-Serif" font-size="10.00">/FastLED/examples/Apa102HD</text>
<text text-anchor="middle" x="410" y="-7" font-family="Helvetica,sans-Serif" font-size="10.00">/Apa102HD.ino</text>
</a>
</g>
</g>
<!-- Node6&#45;&gt;Node8 -->
<g id="edge8_Node000006_Node000008" class="edge">
<title>Node6&#45;&gt;Node8</title>
<g id="a_edge8_Node000006_Node000008"><a xlink:title=" ">
<path fill="none" stroke="#63b8ff" d="M645.71,-234.85C600.95,-194.33 481.34,-86.07 431.88,-41.3"/>
<polygon fill="#63b8ff" stroke="#63b8ff" points="643.63,-237.69 653.39,-241.8 648.33,-232.5 643.63,-237.69"/>
</a>
</g>
</g>
<!-- Node9 -->
<g id="Node000009" class="node">
<title>Node9</title>
<g id="a_Node000009"><a xlink:href="../../d3/d6e/_apa102_h_d_override_8ino.html" target="_top" xlink:title=" ">
<polygon fill="white" stroke="#666666" points="716,-41 510,-41 510,0 716,0 716,-41"/>
<text text-anchor="start" x="518" y="-29" font-family="Helvetica,sans-Serif" font-size="10.00">/home/runner/work/FastLED</text>
<text text-anchor="start" x="518" y="-18" font-family="Helvetica,sans-Serif" font-size="10.00">/FastLED/examples/Apa102HDOverride</text>
<text text-anchor="middle" x="613" y="-7" font-family="Helvetica,sans-Serif" font-size="10.00">/Apa102HDOverride.ino</text>
</a>
</g>
</g>
<!-- Node6&#45;&gt;Node9 -->
<g id="edge9_Node000006_Node000009" class="edge">
<title>Node6&#45;&gt;Node9</title>
<g id="a_edge9_Node000006_Node000009"><a xlink:title=" ">
<path fill="none" stroke="#63b8ff" d="M658.33,-232.21C656.32,-224.18 653.98,-214.64 652,-206 638.29,-146.17 623.74,-75.01 616.94,-41.21"/>
<polygon fill="#63b8ff" stroke="#63b8ff" points="654.96,-233.15 660.8,-241.99 661.74,-231.44 654.96,-233.15"/>
</a>
</g>
</g>
<!-- Node10 -->
<g id="Node000010" class="node">
<title>Node10</title>
<g id="a_Node000010"><a xlink:href="../../dd/db4/_h_d107_8ino.html" target="_top" xlink:title="Example showing how to use the HD107 and HD which has built in gamma correction.">
<polygon fill="white" stroke="#666666" points="961,-41 811,-41 811,0 961,0 961,-41"/>
<text text-anchor="start" x="819" y="-29" font-family="Helvetica,sans-Serif" font-size="10.00">/home/runner/work/FastLED</text>
<text text-anchor="start" x="819" y="-18" font-family="Helvetica,sans-Serif" font-size="10.00">/FastLED/examples/HD107</text>
<text text-anchor="middle" x="886" y="-7" font-family="Helvetica,sans-Serif" font-size="10.00">/HD107.ino</text>
</a>
</g>
</g>
<!-- Node6&#45;&gt;Node10 -->
<g id="edge10_Node000006_Node000010" class="edge">
<title>Node6&#45;&gt;Node10</title>
<g id="a_edge10_Node000006_Node000010"><a xlink:title=" ">
<path fill="none" stroke="#63b8ff" d="M704.1,-239.96C725.48,-232.95 751.03,-222.03 770,-206 784.59,-193.66 848.38,-85.92 874.64,-41.02"/>
<polygon fill="#63b8ff" stroke="#63b8ff" points="702.81,-236.69 694.3,-243 704.88,-243.38 702.81,-236.69"/>
</a>
</g>
</g>
<!-- Node11 -->
<g id="Node000011" class="node">
<title>Node11</title>
<g id="a_Node000011"><a xlink:href="../../db/d97/_fast_l_e_d_8h.html" target="_top" xlink:title="central include file for FastLED, defines the CFastLED class/object">
<polygon fill="#fff0f0" stroke="red" points="706,-96 642,-96 642,-77 706,-77 706,-96"/>
<text text-anchor="middle" x="674" y="-84" font-family="Helvetica,sans-Serif" font-size="10.00">FastLED.h</text>
</a>
</g>
</g>
<!-- Node6&#45;&gt;Node11 -->
<g id="edge11_Node000006_Node000011" class="edge">
<title>Node6&#45;&gt;Node11</title>
<g id="a_edge11_Node000006_Node000011"><a xlink:title=" ">
<path fill="none" stroke="#63b8ff" d="M653.57,-232.14C647.3,-208.71 642.89,-167.02 649,-132 651.26,-119.06 656.94,-104.91 663.09,-96.12"/>
<polygon fill="#63b8ff" stroke="#63b8ff" points="650.28,-233.33 656.66,-241.79 656.95,-231.2 650.28,-233.33"/>
</a>
</g>
</g>
<!-- Node94 -->
<g id="Node000094" class="node">
<title>Node94</title>
<g id="a_Node000094"><a xlink:href="../../d6/ddc/fastspi_8h.html" target="_top" xlink:title="Serial peripheral interface (SPI) definitions per platform.">
<polygon fill="white" stroke="#666666" points="793.5,-30 734.5,-30 734.5,-11 793.5,-11 793.5,-30"/>
<text text-anchor="middle" x="764" y="-18" font-family="Helvetica,sans-Serif" font-size="10.00">fastspi.h</text>
</a>
</g>
</g>
<!-- Node6&#45;&gt;Node94 -->
<g id="edge25_Node000006_Node000094" class="edge">
<title>Node6&#45;&gt;Node94</title>
<g id="a_edge25_Node000006_Node000094"><a xlink:title=" ">
<path fill="none" stroke="#63b8ff" d="M703.88,-239.75C721.32,-233 740.13,-222.36 751,-206 789.03,-148.77 772.56,-58.29 766.14,-30.15"/>
<polygon fill="#63b8ff" stroke="#63b8ff" points="702.64,-236.48 694.39,-243.12 704.98,-243.07 702.64,-236.48"/>
</a>
</g>
</g>
<!-- Node138 -->
<g id="Node000138" class="node">
<title>Node138</title>
<g id="a_Node000138"><a xlink:href="../../d0/d4b/crgb_8hpp.html" target="_top" xlink:title="Defines utility functions for the red, green, and blue (RGB) pixel struct.">
<polygon fill="white" stroke="#666666" points="726.5,-206 667.5,-206 667.5,-187 726.5,-187 726.5,-206"/>
<text text-anchor="middle" x="697" y="-194" font-family="Helvetica,sans-Serif" font-size="10.00">crgb.hpp</text>
</a>
</g>
</g>
<!-- Node6&#45;&gt;Node138 -->
<g id="edge22_Node000006_Node000138" class="edge">
<title>Node6&#45;&gt;Node138</title>
<g id="a_edge22_Node000006_Node000138"><a xlink:title=" ">
<path fill="none" stroke="#63b8ff" d="M674.16,-233.1C679.97,-224.04 686.82,-213.37 691.49,-206.09"/>
<polygon fill="#63b8ff" stroke="#63b8ff" points="671.07,-231.44 668.61,-241.75 676.96,-235.22 671.07,-231.44"/>
</a>
</g>
</g>
<!-- Node139 -->
<g id="Node000139" class="node">
<title>Node139</title>
<g id="a_Node000139"><a xlink:href="../../d2/dba/pixeltypes_8h.html" target="_top" xlink:title="Includes defintions for RGB and HSV pixels.">
<polygon fill="#fff0f0" stroke="red" points="743,-151 667,-151 667,-132 743,-132 743,-151"/>
<text text-anchor="middle" x="705" y="-139" font-family="Helvetica,sans-Serif" font-size="10.00">pixeltypes.h</text>
</a>
</g>
</g>
<!-- Node6&#45;&gt;Node139 -->
<g id="edge26_Node000006_Node000139" class="edge">
<title>Node6&#45;&gt;Node139</title>
<g id="a_edge26_Node000006_Node000139"><a xlink:title=" ">
<path fill="none" stroke="#63b8ff" d="M697.96,-237.82C712.1,-230.76 726.96,-220.42 735,-206 745.57,-187.04 726.94,-163.75 714.6,-151.31"/>
<polygon fill="#63b8ff" stroke="#63b8ff" points="696.49,-234.64 688.85,-241.99 699.4,-241.01 696.49,-234.64"/>
</a>
</g>
</g>
<!-- Node11&#45;&gt;Node2 -->
<g id="edge19_Node000011_Node000002" class="edge">
<title>Node11&#45;&gt;Node2</title>
<g id="a_edge19_Node000011_Node000002"><a xlink:title=" ">
<path fill="none" stroke="#63b8ff" d="M631.69,-84.11C542.36,-80.7 328.16,-69.95 151,-41 134.35,-38.28 116.05,-33.92 101.16,-30.02"/>
<polygon fill="#63b8ff" stroke="#63b8ff" points="631.83,-87.62 641.95,-84.49 632.09,-80.62 631.83,-87.62"/>
</a>
</g>
</g>
<!-- Node11&#45;&gt;Node5 -->
<g id="edge16_Node000011_Node000005" class="edge">
<title>Node11&#45;&gt;Node5</title>
<g id="a_edge16_Node000011_Node000005"><a xlink:title=" ">
<path fill="none" stroke="#63b8ff" d="M716.64,-83.43C775.06,-79.62 882.69,-69.13 970,-41 978.33,-38.32 987.05,-33.96 994.04,-30.05"/>
<polygon fill="#63b8ff" stroke="#63b8ff" points="716.08,-79.96 706.32,-84.06 716.51,-86.94 716.08,-79.96"/>
</a>
</g>
</g>
<!-- Node11&#45;&gt;Node6 -->
<g id="edge20_Node000011_Node000006" class="edge">
<title>Node11&#45;&gt;Node6</title>
<g id="a_edge20_Node000011_Node000006"><a xlink:title=" ">
<path fill="none" stroke="#63b8ff" d="M674.04,-106C671.65,-113.85 668.53,-123.2 667,-132 659.93,-172.57 666.96,-222.08 666.08,-241.79"/>
<polygon fill="#63b8ff" stroke="#63b8ff" points="677.48,-106.69 676.69,-96.12 670.72,-104.87 677.48,-106.69"/>
</a>
</g>
</g>
<!-- Node11&#45;&gt;Node7 -->
<g id="edge12_Node000011_Node000007" class="edge">
<title>Node11&#45;&gt;Node7</title>
<g id="a_edge12_Node000011_Node000007"><a xlink:title=" ">
<path fill="none" stroke="#63b8ff" d="M631.38,-81.6C564.52,-75.15 431.03,-60.97 319,-41 316.05,-40.47 313.05,-39.91 310.03,-39.32"/>
<polygon fill="#63b8ff" stroke="#63b8ff" points="631.24,-85.1 641.53,-82.56 631.9,-78.13 631.24,-85.1"/>
</a>
</g>
</g>
<!-- Node11&#45;&gt;Node8 -->
<g id="edge13_Node000011_Node000008" class="edge">
<title>Node11&#45;&gt;Node8</title>
<g id="a_edge13_Node000011_Node000008"><a xlink:title=" ">
<path fill="none" stroke="#63b8ff" d="M631.71,-75.25C593.76,-66.05 537.03,-52.29 490.45,-41"/>
<polygon fill="#63b8ff" stroke="#63b8ff" points="631.35,-78.76 641.89,-77.72 633,-71.96 631.35,-78.76"/>
</a>
</g>
</g>
<!-- Node11&#45;&gt;Node9 -->
<g id="edge14_Node000011_Node000009" class="edge">
<title>Node11&#45;&gt;Node9</title>
<g id="a_edge14_Node000011_Node000009"><a xlink:title=" ">
<path fill="none" stroke="#63b8ff" d="M658.87,-69.62C650.62,-60.97 640.33,-50.18 631.59,-41.01"/>
<polygon fill="#63b8ff" stroke="#63b8ff" points="656.34,-72.04 665.77,-76.87 661.41,-67.22 656.34,-72.04"/>
</a>
</g>
</g>
<!-- Node11&#45;&gt;Node10 -->
<g id="edge15_Node000011_Node000010" class="edge">
<title>Node11&#45;&gt;Node10</title>
<g id="a_edge15_Node000011_Node000010"><a xlink:title=" ">
<path fill="none" stroke="#63b8ff" d="M712.36,-73.92C742.71,-64.76 785.74,-51.77 821.38,-41.01"/>
<polygon fill="#63b8ff" stroke="#63b8ff" points="711.15,-70.63 702.59,-76.87 713.18,-77.33 711.15,-70.63"/>
</a>
</g>
</g>
<!-- Node11&#45;&gt;Node94 -->
<g id="edge17_Node000011_Node000094" class="edge">
<title>Node11&#45;&gt;Node94</title>
<g id="a_edge17_Node000011_Node000094"><a xlink:title=" ">
<path fill="none" stroke="#63b8ff" d="M689.29,-70.49C705.39,-57.96 730.23,-40.54 746.96,-30.2"/>
<polygon fill="#63b8ff" stroke="#63b8ff" points="686.95,-67.88 681.35,-76.87 691.34,-73.33 686.95,-67.88"/>
</a>
</g>
</g>
<!-- Node11&#45;&gt;Node125 -->
<g id="edge21_Node000011_Node000125" class="edge">
<title>Node11&#45;&gt;Node125</title>
<g id="a_edge21_Node000011_Node000125"><a xlink:title=" ">
<path fill="none" stroke="#63b8ff" d="M716.33,-83.2C785.85,-78.81 928.24,-67.23 1046,-41 1058.32,-38.26 1071.7,-33.95 1082.6,-30.08"/>
<polygon fill="#63b8ff" stroke="#63b8ff" points="715.98,-79.71 706.21,-83.82 716.41,-86.7 715.98,-79.71"/>
</a>
</g>
</g>
<!-- Node94&#45;&gt;Node11 -->
<g id="edge18_Node000094_Node000011" class="edge">
<title>Node94&#45;&gt;Node11</title>
<g id="a_edge18_Node000094_Node000011"><a xlink:title=" ">
<path fill="none" stroke="#63b8ff" d="M748.33,-36.81C732.19,-49.34 707.53,-66.62 690.93,-76.87"/>
<polygon fill="#63b8ff" stroke="#63b8ff" points="750.71,-39.39 756.32,-30.41 746.33,-33.93 750.71,-39.39"/>
</a>
</g>
</g>
<!-- Node138&#45;&gt;Node139 -->
<g id="edge23_Node000138_Node000139" class="edge">
<title>Node138&#45;&gt;Node139</title>
<g id="a_edge23_Node000138_Node000139"><a xlink:title=" ">
<path fill="none" stroke="#63b8ff" d="M699.84,-176.66C701.16,-167.93 702.66,-157.99 703.7,-151.09"/>
<polygon fill="#63b8ff" stroke="#63b8ff" points="696.35,-176.34 698.32,-186.75 703.27,-177.38 696.35,-176.34"/>
</a>
</g>
</g>
<!-- Node139&#45;&gt;Node11 -->
<g id="edge24_Node000139_Node000011" class="edge">
<title>Node139&#45;&gt;Node11</title>
<g id="a_edge24_Node000139_Node000011"><a xlink:title=" ">
<path fill="none" stroke="#63b8ff" d="M694.82,-123.1C689.53,-114.04 683.28,-103.37 679.02,-96.09"/>
<polygon fill="#63b8ff" stroke="#63b8ff" points="691.81,-124.88 699.88,-131.75 697.85,-121.35 691.81,-124.88"/>
</a>
</g>
</g>
</g>
</svg>

<g id="navigator" transform="translate(0 0)" fill="#404254">
  <rect fill="#f2f5e9" fill-opacity="0.5" stroke="#606060" stroke-width=".5" x="0" y="0" width="60" height="60"/>
  <use id="zoomplus" xlink:href="#zoomPlus" x="17" y="9" onmousedown="handleZoom(evt,'in')"/>
  <use id="zoomminus" xlink:href="#zoomMin" x="42" y="9" onmousedown="handleZoom(evt,'out')"/>
  <use id="reset" xlink:href="#resetDef" x="30" y="36" onmousedown="handleReset()"/>
   <use id="arrowup" xlink:href="#arrowUp" x="0" y="0" onmousedown="handlePan(0,-1)"/>
  <use id="arrowright" xlink:href="#arrowRight" x="0" y="0" onmousedown="handlePan(1,0)"/>
  <use id="arrowdown" xlink:href="#arrowDown" x="0" y="0" onmousedown="handlePan(0,1)"/>
  <use id="arrowleft" xlink:href="#arrowLeft" x="0" y="0" onmousedown="handlePan(-1,0)"/>
</g>
<svg viewBox="0 0 15 15" width="100%" height="30px" preserveAspectRatio="xMaxYMin meet">
 <g id="arrow_out" transform="scale(0.3 0.3)">
  <a xlink:href="intmap_8h__dep__incl_org.svg" target="_base">
   <rect id="button" ry="5" rx="5" y="6" x="6" height="38" width="38"
        fill="#f2f5e9" fill-opacity="0.5" stroke="#606060" stroke-width="1.0"/>
   <path id="arrow"
     d="M 11.500037,31.436501 C 11.940474,20.09759 22.043105,11.32322 32.158766,21.979434 L 37.068811,17.246167 C 37.068811,17.246167 37.088388,32 37.088388,32 L 22.160133,31.978069 C 22.160133,31.978069 26.997745,27.140456 26.997745,27.140456 C 18.528582,18.264221 13.291696,25.230495 11.500037,31.436501 z"
     style="fill:#404040;"/>
  </a>
 </g>
</svg>

<style type='text/css'>
<![CDATA[
[data-mouse-over-selected='false'] { opacity: 0.7; }
[data-mouse-over-selected='true']  { opacity: 1.0; }
]]>
</style>
<script type="application/ecmascript"><![CDATA[
document.addEventListener('DOMContentLoaded', (event) => {
  highlightEdges();
  highlightAdjacentNodes();
});
]]></script>
</svg>
