<?xml version="1.0" encoding="UTF-8" standalone="no"?>
<!DOCTYPE svg PUBLIC "-//W3C//DTD SVG 1.1//EN"
 "http://www.w3.org/Graphics/SVG/1.1/DTD/svg11.dtd">
<!-- Generated by graphviz version 2.43.0 (0)
 -->
<!-- Title: fl/codec/gif.h Pages: 1 -->
<!--zoomable 236 -->

<svg id="main" version="1.1" xmlns="http://www.w3.org/2000/svg" xmlns:xlink="http://www.w3.org/1999/xlink" xml:space="preserve" onload="init(evt)">

<style type="text/css"><![CDATA[
.node, .edge {opacity: 0.7;}
.node.selected, .edge.selected {opacity: 1;}
.edge:hover path { stroke: red; }
.edge:hover polygon { stroke: red; fill: red; }
]]></style>

<defs>
  <circle id="rim" cx="0" cy="0" r="7"/>
  <circle id="rim2" cx="0" cy="0" r="3.5"/>
  <g id="zoomPlus">
    <use xlink:href="#rim" fill="#404040"><set attributeName="fill" to="#808080" begin="zoomplus.mouseover" end="zoomplus.mouseout"/></use>
    <path d="M-4,0h8M0,-4v8" fill="none" stroke="white" stroke-width="1.5" pointer-events="none"/>
  </g>
  <g id="zoomMin">
    <use xlink:href="#rim" fill="#404040"><set attributeName="fill" to="#808080" begin="zoomminus.mouseover" end="zoomminus.mouseout"/></use>
    <path d="M-4,0h8" fill="none" stroke="white" stroke-width="1.5" pointer-events="none"/>
  </g>
  <g id="arrowUp" transform="translate(30 24)">
    <use xlink:href="#rim"/>
    <path pointer-events="none" fill="none" stroke="white" stroke-width="1.5" d="M0,-3.0v7 M-2.5,-0.5L0,-3.0L2.5,-0.5"/>
  </g>
  <g id="arrowRight" transform="rotate(90) translate(36 -43)">
    <use xlink:href="#rim"/>
    <path pointer-events="none" fill="none" stroke="white" stroke-width="1.5" d="M0,-3.0v7 M-2.5,-0.5L0,-3.0L2.5,-0.5"/>
  </g>
  <g id="arrowDown" transform="rotate(180) translate(-30 -48)">
    <use xlink:href="#rim"/>
    <path pointer-events="none" fill="none" stroke="white" stroke-width="1.5" d="M0,-3.0v7 M-2.5,-0.5L0,-3.0L2.5,-0.5"/>
  </g>
  <g id="arrowLeft" transform="rotate(270) translate(-36 17)">
    <use xlink:href="#rim"/>
    <path pointer-events="none" fill="none" stroke="white" stroke-width="1.5" d="M0,-3.0v7 M-2.5,-0.5L0,-3.0L2.5,-0.5"/>
  </g>
  <g id="resetDef">
    <use xlink:href="#rim2" fill="#404040"><set attributeName="fill" to="#808080" begin="reset.mouseover" end="reset.mouseout"/></use>
  </g>
</defs>
<script type="application/ecmascript">
var viewWidth = 531;
var viewHeight = 236;
var sectionId = 'dynsection-1';
</script>
<script type="application/ecmascript" xlink:href="../../svg.min.js"/>
<svg id="graph" class="graph">
<g id="viewport">
<title>fl/codec/gif.h</title>
<!-- Node1 -->
<g id="Node000001" class="node">
<title>Node1</title>
<g id="a_Node000001"><a xlink:title=" ">
<polygon fill="#999999" stroke="#666666" points="356,-228 278,-228 278,-209 356,-209 356,-228"/>
<text text-anchor="middle" x="317" y="-216" font-family="Helvetica,sans-Serif" font-size="10.00">fl/codec/gif.h</text>
</a>
</g>
</g>
<!-- Node2 -->
<g id="Node000002" class="node">
<title>Node2</title>
<g id="a_Node000002"><a xlink:href="../../d5/d9a/codec__processor_8h.html" target="_top" xlink:title=" ">
<polygon fill="white" stroke="#666666" points="318,-173 168,-173 168,-132 318,-132 318,-173"/>
<text text-anchor="start" x="176" y="-161" font-family="Helvetica,sans-Serif" font-size="10.00">/home/runner/work/FastLED</text>
<text text-anchor="start" x="176" y="-150" font-family="Helvetica,sans-Serif" font-size="10.00">/FastLED/examples/Codec</text>
<text text-anchor="middle" x="243" y="-139" font-family="Helvetica,sans-Serif" font-size="10.00">/codec_processor.h</text>
</a>
</g>
</g>
<!-- Node1&#45;&gt;Node2 -->
<g id="edge1_Node000001_Node000002" class="edge">
<title>Node1&#45;&gt;Node2</title>
<g id="a_edge1_Node000001_Node000002"><a xlink:title=" ">
<path fill="none" stroke="#63b8ff" d="M299.25,-202.15C289.14,-193.41 276.37,-182.36 265.56,-173.01"/>
<polygon fill="#63b8ff" stroke="#63b8ff" points="297.17,-204.97 307.02,-208.87 301.75,-199.68 297.17,-204.97"/>
</a>
</g>
</g>
<!-- Node5 -->
<g id="Node000005" class="node">
<title>Node5</title>
<g id="a_Node000005"><a xlink:href="../../db/d62/fl_2codec_2gif_8cpp_8hpp.html" target="_top" xlink:title=" ">
<polygon fill="white" stroke="#666666" points="450,-162 340,-162 340,-143 450,-143 450,-162"/>
<text text-anchor="middle" x="395" y="-150" font-family="Helvetica,sans-Serif" font-size="10.00">fl/codec/gif.cpp.hpp</text>
</a>
</g>
</g>
<!-- Node1&#45;&gt;Node5 -->
<g id="edge4_Node000001_Node000005" class="edge">
<title>Node1&#45;&gt;Node5</title>
<g id="a_edge4_Node000001_Node000005"><a xlink:title=" ">
<path fill="none" stroke="#63b8ff" d="M335.3,-202.49C350.57,-189.96 371.8,-172.54 384.4,-162.2"/>
<polygon fill="#63b8ff" stroke="#63b8ff" points="333.03,-199.82 327.52,-208.87 337.47,-205.23 333.03,-199.82"/>
</a>
</g>
</g>
<!-- Node3 -->
<g id="Node000003" class="node">
<title>Node3</title>
<g id="a_Node000003"><a xlink:href="../../da/dd2/_codec_8ino.html" target="_top" xlink:title=" ">
<polygon fill="white" stroke="#666666" points="150,-96 0,-96 0,-55 150,-55 150,-96"/>
<text text-anchor="start" x="8" y="-84" font-family="Helvetica,sans-Serif" font-size="10.00">/home/runner/work/FastLED</text>
<text text-anchor="start" x="8" y="-73" font-family="Helvetica,sans-Serif" font-size="10.00">/FastLED/examples/Codec</text>
<text text-anchor="middle" x="75" y="-62" font-family="Helvetica,sans-Serif" font-size="10.00">/Codec.ino</text>
</a>
</g>
</g>
<!-- Node2&#45;&gt;Node3 -->
<g id="edge2_Node000002_Node000003" class="edge">
<title>Node2&#45;&gt;Node3</title>
<g id="a_edge2_Node000002_Node000003"><a xlink:title=" ">
<path fill="none" stroke="#63b8ff" d="M190.04,-127.86C167.11,-117.62 140.57,-105.77 118.77,-96.04"/>
<polygon fill="#63b8ff" stroke="#63b8ff" points="188.74,-131.11 199.3,-131.99 191.59,-124.72 188.74,-131.11"/>
</a>
</g>
</g>
<!-- Node4 -->
<g id="Node000004" class="node">
<title>Node4</title>
<g id="a_Node000004"><a xlink:href="../../dc/de0/codec__processor_8cpp.html" target="_top" xlink:title=" ">
<polygon fill="white" stroke="#666666" points="318,-96 168,-96 168,-55 318,-55 318,-96"/>
<text text-anchor="start" x="176" y="-84" font-family="Helvetica,sans-Serif" font-size="10.00">/home/runner/work/FastLED</text>
<text text-anchor="start" x="176" y="-73" font-family="Helvetica,sans-Serif" font-size="10.00">/FastLED/examples/Codec</text>
<text text-anchor="middle" x="243" y="-62" font-family="Helvetica,sans-Serif" font-size="10.00">/codec_processor.cpp</text>
</a>
</g>
</g>
<!-- Node2&#45;&gt;Node4 -->
<g id="edge3_Node000002_Node000004" class="edge">
<title>Node2&#45;&gt;Node4</title>
<g id="a_edge3_Node000002_Node000004"><a xlink:title=" ">
<path fill="none" stroke="#63b8ff" d="M243,-121.69C243,-113.08 243,-103.9 243,-96.07"/>
<polygon fill="#63b8ff" stroke="#63b8ff" points="239.5,-121.79 243,-131.79 246.5,-121.79 239.5,-121.79"/>
</a>
</g>
</g>
<!-- Node6 -->
<g id="Node000006" class="node">
<title>Node6</title>
<g id="a_Node000006"><a xlink:href="../../d7/df8/fl_2codec_2__build_8cpp_8hpp.html" target="_top" xlink:title=" ">
<polygon fill="white" stroke="#666666" points="464,-85 336,-85 336,-66 464,-66 464,-85"/>
<text text-anchor="middle" x="400" y="-73" font-family="Helvetica,sans-Serif" font-size="10.00">fl/codec/_build.cpp.hpp</text>
</a>
</g>
</g>
<!-- Node5&#45;&gt;Node6 -->
<g id="edge5_Node000005_Node000006" class="edge">
<title>Node5&#45;&gt;Node6</title>
<g id="a_edge5_Node000005_Node000006"><a xlink:title=" ">
<path fill="none" stroke="#63b8ff" d="M396.27,-132.52C397.28,-117.24 398.67,-96.48 399.43,-85"/>
<polygon fill="#63b8ff" stroke="#63b8ff" points="392.75,-132.69 395.57,-142.9 399.73,-133.15 392.75,-132.69"/>
</a>
</g>
</g>
<!-- Node7 -->
<g id="Node000007" class="node">
<title>Node7</title>
<g id="a_Node000007"><a xlink:href="../../d1/deb/fl_2__build_8cpp_8hpp.html" target="_top" xlink:title=" ">
<polygon fill="white" stroke="#666666" points="385,-19 289,-19 289,0 385,0 385,-19"/>
<text text-anchor="middle" x="337" y="-7" font-family="Helvetica,sans-Serif" font-size="10.00">fl/_build.cpp.hpp</text>
</a>
</g>
</g>
<!-- Node6&#45;&gt;Node7 -->
<g id="edge6_Node000006_Node000007" class="edge">
<title>Node6&#45;&gt;Node7</title>
<g id="a_edge6_Node000006_Node000007"><a xlink:title=" ">
<path fill="none" stroke="#63b8ff" d="M384.23,-58.48C372.06,-46.12 355.69,-29.49 345.77,-19.41"/>
<polygon fill="#63b8ff" stroke="#63b8ff" points="381.99,-61.2 391.5,-65.87 386.98,-56.29 381.99,-61.2"/>
</a>
</g>
</g>
<!-- Node8 -->
<g id="Node000008" class="node">
<title>Node8</title>
<g id="a_Node000008"><a xlink:href="../../dd/dad/fl_8codec_09_8cpp.html" target="_top" xlink:title="Unity build: recursive includes from src/fl/codec/.">
<polygon fill="white" stroke="#666666" points="522.5,-19 403.5,-19 403.5,0 522.5,0 522.5,-19"/>
<text text-anchor="middle" x="463" y="-7" font-family="Helvetica,sans-Serif" font-size="10.00">fl/build/fl.codec+.cpp</text>
</a>
</g>
</g>
<!-- Node6&#45;&gt;Node8 -->
<g id="edge7_Node000006_Node000008" class="edge">
<title>Node6&#45;&gt;Node8</title>
<g id="a_edge7_Node000006_Node000008"><a xlink:title=" ">
<path fill="none" stroke="#63b8ff" d="M415.77,-58.48C427.94,-46.12 444.31,-29.49 454.23,-19.41"/>
<polygon fill="#63b8ff" stroke="#63b8ff" points="413.02,-56.29 408.5,-65.87 418.01,-61.2 413.02,-56.29"/>
</a>
</g>
</g>
</g>
</svg>

<g id="navigator" transform="translate(0 0)" fill="#404254">
  <rect fill="#f2f5e9" fill-opacity="0.5" stroke="#606060" stroke-width=".5" x="0" y="0" width="60" height="60"/>
  <use id="zoomplus" xlink:href="#zoomPlus" x="17" y="9" onmousedown="handleZoom(evt,'in')"/>
  <use id="zoomminus" xlink:href="#zoomMin" x="42" y="9" onmousedown="handleZoom(evt,'out')"/>
  <use id="reset" xlink:href="#resetDef" x="30" y="36" onmousedown="handleReset()"/>
   <use id="arrowup" xlink:href="#arrowUp" x="0" y="0" onmousedown="handlePan(0,-1)"/>
  <use id="arrowright" xlink:href="#arrowRight" x="0" y="0" onmousedown="handlePan(1,0)"/>
  <use id="arrowdown" xlink:href="#arrowDown" x="0" y="0" onmousedown="handlePan(0,1)"/>
  <use id="arrowleft" xlink:href="#arrowLeft" x="0" y="0" onmousedown="handlePan(-1,0)"/>
</g>
<svg viewBox="0 0 15 15" width="100%" height="30px" preserveAspectRatio="xMaxYMin meet">
 <g id="arrow_out" transform="scale(0.3 0.3)">
  <a xlink:href="gif_8h__dep__incl_org.svg" target="_base">
   <rect id="button" ry="5" rx="5" y="6" x="6" height="38" width="38"
        fill="#f2f5e9" fill-opacity="0.5" stroke="#606060" stroke-width="1.0"/>
   <path id="arrow"
     d="M 11.500037,31.436501 C 11.940474,20.09759 22.043105,11.32322 32.158766,21.979434 L 37.068811,17.246167 C 37.068811,17.246167 37.088388,32 37.088388,32 L 22.160133,31.978069 C 22.160133,31.978069 26.997745,27.140456 26.997745,27.140456 C 18.528582,18.264221 13.291696,25.230495 11.500037,31.436501 z"
     style="fill:#404040;"/>
  </a>
 </g>
</svg>

<style type='text/css'>
<![CDATA[
[data-mouse-over-selected='false'] { opacity: 0.7; }
[data-mouse-over-selected='true']  { opacity: 1.0; }
]]>
</style>
<script type="application/ecmascript"><![CDATA[
document.addEventListener('DOMContentLoaded', (event) => {
  highlightEdges();
  highlightAdjacentNodes();
});
]]></script>
</svg>
