<?xml version="1.0" encoding="UTF-8" standalone="no"?>
<!DOCTYPE svg PUBLIC "-//W3C//DTD SVG 1.1//EN"
 "http://www.w3.org/Graphics/SVG/1.1/DTD/svg11.dtd">
<!-- Generated by graphviz version 2.43.0 (0)
 -->
<!-- Title: MidiInterface::sendSongSelect Pages: 1 -->
<svg width="484pt" height="27pt"
 viewBox="0.00 0.00 484.00 27.00" xmlns="http://www.w3.org/2000/svg" xmlns:xlink="http://www.w3.org/1999/xlink">
<g id="graph0" class="graph" transform="scale(1 1) rotate(0) translate(4 23)">
<title>MidiInterface::sendSongSelect</title>
<!-- Node1 -->
<g id="Node000001" class="node">
<title>Node1</title>
<g id="a_Node000001"><a xlink:title="Send a Song Select message.">
<polygon fill="#999999" stroke="#666666" points="476,-19 312,-19 312,0 476,0 476,-19"/>
<text text-anchor="middle" x="394" y="-7" font-family="Helvetica,sans-Serif" font-size="10.00">MidiInterface::sendSongSelect</text>
</a>
</g>
</g>
<!-- Node2 -->
<g id="Node000002" class="node">
<title>Node2</title>
<g id="a_Node000002"><a xlink:href="../../df/d6a/class_midi_interface_a8405cc7229e4eab30520ae005ec79e10.html#a8405cc7229e4eab30520ae005ec79e10" target="_top" xlink:title=" ">
<polygon fill="white" stroke="#666666" points="276,-19 145,-19 145,0 276,0 276,-19"/>
<text text-anchor="middle" x="210.5" y="-7" font-family="Helvetica,sans-Serif" font-size="10.00">MidiInterface::thruFilter</text>
</a>
</g>
</g>
<!-- Node1&#45;&gt;Node2 -->
<g id="edge1_Node000001_Node000002" class="edge">
<title>Node1&#45;&gt;Node2</title>
<g id="a_edge1_Node000001_Node000002"><a xlink:title=" ">
<path fill="none" stroke="#63b8ff" d="M301.66,-9.5C293,-9.5 284.35,-9.5 276.02,-9.5"/>
<polygon fill="#63b8ff" stroke="#63b8ff" points="301.81,-13 311.81,-9.5 301.81,-6 301.81,-13"/>
</a>
</g>
</g>
<!-- Node3 -->
<g id="Node000003" class="node">
<title>Node3</title>
<g id="a_Node000003"><a xlink:href="../../dc/df1/group__input_gac7da892409239a434deff28b5d5cedbe.html#gac7da892409239a434deff28b5d5cedbe" target="_top" xlink:title="Read messages on a specified channel.">
<polygon fill="white" stroke="#666666" points="109,-19 0,-19 0,0 109,0 109,-19"/>
<text text-anchor="middle" x="54.5" y="-7" font-family="Helvetica,sans-Serif" font-size="10.00">MidiInterface::read</text>
</a>
</g>
</g>
<!-- Node2&#45;&gt;Node3 -->
<g id="edge2_Node000002_Node000003" class="edge">
<title>Node2&#45;&gt;Node3</title>
<g id="a_edge2_Node000002_Node000003"><a xlink:title=" ">
<path fill="none" stroke="#63b8ff" d="M134.58,-9.5C125.98,-9.5 117.35,-9.5 109.11,-9.5"/>
<polygon fill="#63b8ff" stroke="#63b8ff" points="134.64,-13 144.64,-9.5 134.64,-6 134.64,-13"/>
</a>
</g>
</g>
</g>
</svg>
