<?xml version="1.0" encoding="UTF-8" standalone="no"?>
<!DOCTYPE svg PUBLIC "-//W3C//DTD SVG 1.1//EN"
 "http://www.w3.org/Graphics/SVG/1.1/DTD/svg11.dtd">
<!-- Generated by graphviz version 2.43.0 (0)
 -->
<!-- Title: MidiInterface::sendSongSelect Pages: 1 -->
<svg width="542pt" height="38pt"
 viewBox="0.00 0.00 542.00 38.00" xmlns="http://www.w3.org/2000/svg" xmlns:xlink="http://www.w3.org/1999/xlink">
<g id="graph0" class="graph" transform="scale(1 1) rotate(0) translate(4 34)">
<title>MidiInterface::sendSongSelect</title>
<!-- Node1 -->
<g id="Node000001" class="node">
<title>Node1</title>
<g id="a_Node000001"><a xlink:title="Send a Song Select message.">
<polygon fill="#999999" stroke="#666666" points="164,-24.5 0,-24.5 0,-5.5 164,-5.5 164,-24.5"/>
<text text-anchor="middle" x="82" y="-12.5" font-family="Helvetica,sans-Serif" font-size="10.00">MidiInterface::sendSongSelect</text>
</a>
</g>
</g>
<!-- Node2 -->
<g id="Node000002" class="node">
<title>Node2</title>
<g id="a_Node000002"><a xlink:href="../../d7/db2/group__output_gabc45594bf1156b5020a2fa188c281cd0.html#gabc45594bf1156b5020a2fa188c281cd0" target="_top" xlink:title="Send a Common message. Common messages reset the running status.">
<polygon fill="white" stroke="#666666" points="355,-24.5 200,-24.5 200,-5.5 355,-5.5 355,-24.5"/>
<text text-anchor="middle" x="277.5" y="-12.5" font-family="Helvetica,sans-Serif" font-size="10.00">MidiInterface::sendCommon</text>
</a>
</g>
</g>
<!-- Node1&#45;&gt;Node2 -->
<g id="edge1_Node000001_Node000002" class="edge">
<title>Node1&#45;&gt;Node2</title>
<g id="a_edge1_Node000001_Node000002"><a xlink:title=" ">
<path fill="none" stroke="#63b8ff" d="M164.22,-15C172.6,-15 181.14,-15 189.59,-15"/>
<polygon fill="#63b8ff" stroke="#63b8ff" points="189.81,-18.5 199.81,-15 189.81,-11.5 189.81,-18.5"/>
</a>
</g>
</g>
<!-- Node3 -->
<g id="Node000003" class="node">
<title>Node3</title>
<g id="a_Node000003"><a xlink:href="../../df/d55/group__thru_ga536d29969dc2a187d9872c5c341ea1ea.html#ga536d29969dc2a187d9872c5c341ea1ea" target="_top" xlink:title=" ">
<polygon fill="white" stroke="#666666" points="534,-30 391,-30 391,0 534,0 534,-30"/>
<text text-anchor="start" x="399" y="-18" font-family="Helvetica,sans-Serif" font-size="10.00">MidiInterface::UpdateLast</text>
<text text-anchor="middle" x="462.5" y="-7" font-family="Helvetica,sans-Serif" font-size="10.00">SentTime</text>
</a>
</g>
</g>
<!-- Node2&#45;&gt;Node3 -->
<g id="edge2_Node000002_Node000003" class="edge">
<title>Node2&#45;&gt;Node3</title>
<g id="a_edge2_Node000002_Node000003"><a xlink:title=" ">
<path fill="none" stroke="#63b8ff" d="M355.05,-15C363.47,-15 372.07,-15 380.55,-15"/>
<polygon fill="#63b8ff" stroke="#63b8ff" points="380.81,-18.5 390.81,-15 380.81,-11.5 380.81,-18.5"/>
</a>
</g>
</g>
</g>
</svg>
