<?xml version="1.0" encoding="UTF-8" standalone="no"?>
<!DOCTYPE svg PUBLIC "-//W3C//DTD SVG 1.1//EN"
 "http://www.w3.org/Graphics/SVG/1.1/DTD/svg11.dtd">
<!-- Generated by graphviz version 2.43.0 (0)
 -->
<!-- Title: fl::third_party::vorbis::start_page Pages: 1 -->
<!--zoomable 275 -->

<svg id="main" version="1.1" xmlns="http://www.w3.org/2000/svg" xmlns:xlink="http://www.w3.org/1999/xlink" xml:space="preserve" onload="init(evt)">

<style type="text/css"><![CDATA[
.node, .edge {opacity: 0.7;}
.node.selected, .edge.selected {opacity: 1;}
.edge:hover path { stroke: red; }
.edge:hover polygon { stroke: red; fill: red; }
]]></style>

<defs>
  <circle id="rim" cx="0" cy="0" r="7"/>
  <circle id="rim2" cx="0" cy="0" r="3.5"/>
  <g id="zoomPlus">
    <use xlink:href="#rim" fill="#404040"><set attributeName="fill" to="#808080" begin="zoomplus.mouseover" end="zoomplus.mouseout"/></use>
    <path d="M-4,0h8M0,-4v8" fill="none" stroke="white" stroke-width="1.5" pointer-events="none"/>
  </g>
  <g id="zoomMin">
    <use xlink:href="#rim" fill="#404040"><set attributeName="fill" to="#808080" begin="zoomminus.mouseover" end="zoomminus.mouseout"/></use>
    <path d="M-4,0h8" fill="none" stroke="white" stroke-width="1.5" pointer-events="none"/>
  </g>
  <g id="arrowUp" transform="translate(30 24)">
    <use xlink:href="#rim"/>
    <path pointer-events="none" fill="none" stroke="white" stroke-width="1.5" d="M0,-3.0v7 M-2.5,-0.5L0,-3.0L2.5,-0.5"/>
  </g>
  <g id="arrowRight" transform="rotate(90) translate(36 -43)">
    <use xlink:href="#rim"/>
    <path pointer-events="none" fill="none" stroke="white" stroke-width="1.5" d="M0,-3.0v7 M-2.5,-0.5L0,-3.0L2.5,-0.5"/>
  </g>
  <g id="arrowDown" transform="rotate(180) translate(-30 -48)">
    <use xlink:href="#rim"/>
    <path pointer-events="none" fill="none" stroke="white" stroke-width="1.5" d="M0,-3.0v7 M-2.5,-0.5L0,-3.0L2.5,-0.5"/>
  </g>
  <g id="arrowLeft" transform="rotate(270) translate(-36 17)">
    <use xlink:href="#rim"/>
    <path pointer-events="none" fill="none" stroke="white" stroke-width="1.5" d="M0,-3.0v7 M-2.5,-0.5L0,-3.0L2.5,-0.5"/>
  </g>
  <g id="resetDef">
    <use xlink:href="#rim2" fill="#404040"><set attributeName="fill" to="#808080" begin="reset.mouseover" end="reset.mouseout"/></use>
  </g>
</defs>
<script type="application/ecmascript">
var viewWidth = 636;
var viewHeight = 275;
var sectionId = 'dynsection-0';
</script>
<script type="application/ecmascript" xlink:href="../../svg.min.js"/>
<svg id="graph" class="graph">
<g id="viewport">
<title>fl::third_party::vorbis::start_page</title>
<!-- Node1 -->
<g id="Node000001" class="node">
<title>Node1</title>
<g id="a_Node000001"><a xlink:title=" ">
<polygon fill="#999999" stroke="#666666" points="117,-223.5 0,-223.5 0,-193.5 117,-193.5 117,-223.5"/>
<text text-anchor="start" x="8" y="-211.5" font-family="Helvetica,sans-Serif" font-size="10.00">fl::third_party::vorbis</text>
<text text-anchor="middle" x="58.5" y="-200.5" font-family="Helvetica,sans-Serif" font-size="10.00">::start_page</text>
</a>
</g>
</g>
<!-- Node2 -->
<g id="Node000002" class="node">
<title>Node2</title>
<g id="a_Node000002"><a xlink:href="../../d2/d59/namespacefl_1_1third__party_1_1vorbis_af9fcb423b85a2cc59f5d359b99c74c71.html#af9fcb423b85a2cc59f5d359b99c74c71" target="_top" xlink:title=" ">
<polygon fill="white" stroke="#666666" points="296,-266.5 179,-266.5 179,-236.5 296,-236.5 296,-266.5"/>
<text text-anchor="start" x="187" y="-254.5" font-family="Helvetica,sans-Serif" font-size="10.00">fl::third_party::vorbis</text>
<text text-anchor="middle" x="237.5" y="-243.5" font-family="Helvetica,sans-Serif" font-size="10.00">::capture_pattern</text>
</a>
</g>
</g>
<!-- Node1&#45;&gt;Node2 -->
<g id="edge1_Node000001_Node000002" class="edge">
<title>Node1&#45;&gt;Node2</title>
<g id="a_edge1_Node000001_Node000002"><a xlink:title=" ">
<path fill="none" stroke="#63b8ff" d="M117.46,-222.58C133.89,-226.57 151.93,-230.95 168.88,-235.07"/>
<polygon fill="#63b8ff" stroke="#63b8ff" points="168.17,-238.5 178.72,-237.46 169.82,-231.7 168.17,-238.5"/>
</a>
</g>
</g>
<!-- Node4 -->
<g id="Node000004" class="node">
<title>Node4</title>
<g id="a_Node000004"><a xlink:href="../../d2/d59/namespacefl_1_1third__party_1_1vorbis_a1683913568d2d627f6044d09ac1e724e.html#a1683913568d2d627f6044d09ac1e724e" target="_top" xlink:title=" ">
<polygon fill="white" stroke="#666666" points="475,-223.5 358,-223.5 358,-193.5 475,-193.5 475,-223.5"/>
<text text-anchor="start" x="366" y="-211.5" font-family="Helvetica,sans-Serif" font-size="10.00">fl::third_party::vorbis</text>
<text text-anchor="middle" x="416.5" y="-200.5" font-family="Helvetica,sans-Serif" font-size="10.00">::error</text>
</a>
</g>
</g>
<!-- Node1&#45;&gt;Node4 -->
<g id="edge3_Node000001_Node000004" class="edge">
<title>Node1&#45;&gt;Node4</title>
<g id="a_edge3_Node000001_Node000004"><a xlink:title=" ">
<path fill="none" stroke="#63b8ff" d="M117.09,-208.5C180.17,-208.5 281.23,-208.5 347.99,-208.5"/>
<polygon fill="#63b8ff" stroke="#63b8ff" points="347.99,-212 357.99,-208.5 347.99,-205 347.99,-212"/>
</a>
</g>
</g>
<!-- Node5 -->
<g id="Node000005" class="node">
<title>Node5</title>
<g id="a_Node000005"><a xlink:href="../../d2/d59/namespacefl_1_1third__party_1_1vorbis_a41f7c9c142ed08c116eedf30df4c93d1.html#a41f7c9c142ed08c116eedf30df4c93d1" target="_top" xlink:title=" ">
<polygon fill="white" stroke="#666666" points="322,-159.5 153,-159.5 153,-129.5 322,-129.5 322,-159.5"/>
<text text-anchor="start" x="161" y="-147.5" font-family="Helvetica,sans-Serif" font-size="10.00">fl::third_party::vorbis</text>
<text text-anchor="middle" x="237.5" y="-136.5" font-family="Helvetica,sans-Serif" font-size="10.00">::start_page_no_capturepattern</text>
</a>
</g>
</g>
<!-- Node1&#45;&gt;Node5 -->
<g id="edge4_Node000001_Node000005" class="edge">
<title>Node1&#45;&gt;Node5</title>
<g id="a_edge4_Node000001_Node000005"><a xlink:title=" ">
<path fill="none" stroke="#63b8ff" d="M101,-193.49C126.21,-184.38 158.58,-172.67 185.36,-162.99"/>
<polygon fill="#63b8ff" stroke="#63b8ff" points="186.74,-166.21 194.96,-159.52 184.36,-159.63 186.74,-166.21"/>
</a>
</g>
</g>
<!-- Node3 -->
<g id="Node000003" class="node">
<title>Node3</title>
<g id="a_Node000003"><a xlink:href="../../d2/d59/namespacefl_1_1third__party_1_1vorbis_a85a16124231fdd97ad0d62275f49f529.html#a85a16124231fdd97ad0d62275f49f529" target="_top" xlink:title=" ">
<polygon fill="white" stroke="#666666" points="628,-180.5 511,-180.5 511,-150.5 628,-150.5 628,-180.5"/>
<text text-anchor="start" x="519" y="-168.5" font-family="Helvetica,sans-Serif" font-size="10.00">fl::third_party::vorbis</text>
<text text-anchor="middle" x="569.5" y="-157.5" font-family="Helvetica,sans-Serif" font-size="10.00">::get8</text>
</a>
</g>
</g>
<!-- Node2&#45;&gt;Node3 -->
<g id="edge2_Node000002_Node000003" class="edge">
<title>Node2&#45;&gt;Node3</title>
<g id="a_edge2_Node000002_Node000003"><a xlink:title=" ">
<path fill="none" stroke="#63b8ff" d="M296.23,-255.34C345.28,-256.63 416.79,-253.81 475,-232.5 501.83,-222.68 527.88,-202.9 545.64,-187.37"/>
<polygon fill="#63b8ff" stroke="#63b8ff" points="548.09,-189.87 553.19,-180.58 543.41,-184.67 548.09,-189.87"/>
</a>
</g>
</g>
<!-- Node5&#45;&gt;Node3 -->
<g id="edge8_Node000005_Node000003" class="edge">
<title>Node5&#45;&gt;Node3</title>
<g id="a_edge8_Node000005_Node000003"><a xlink:title=" ">
<path fill="none" stroke="#63b8ff" d="M322.2,-149.83C377.52,-153.35 449.08,-157.9 500.8,-161.19"/>
<polygon fill="#63b8ff" stroke="#63b8ff" points="500.67,-164.69 510.87,-161.83 501.12,-157.7 500.67,-164.69"/>
</a>
</g>
</g>
<!-- Node5&#45;&gt;Node4 -->
<g id="edge5_Node000005_Node000004" class="edge">
<title>Node5&#45;&gt;Node4</title>
<g id="a_edge5_Node000005_Node000004"><a xlink:title=" ">
<path fill="none" stroke="#63b8ff" d="M280,-159.51C305.21,-168.62 337.58,-180.33 364.36,-190.01"/>
<polygon fill="#63b8ff" stroke="#63b8ff" points="363.36,-193.37 373.96,-193.48 365.74,-186.79 363.36,-193.37"/>
</a>
</g>
</g>
<!-- Node6 -->
<g id="Node000006" class="node">
<title>Node6</title>
<g id="a_Node000006"><a xlink:href="../../d2/d59/namespacefl_1_1third__party_1_1vorbis_ad498d4311e89b862ef54bdfdf360d4b1.html#ad498d4311e89b862ef54bdfdf360d4b1" target="_top" xlink:title=" ">
<polygon fill="white" stroke="#666666" points="475,-137.5 358,-137.5 358,-107.5 475,-107.5 475,-137.5"/>
<text text-anchor="start" x="366" y="-125.5" font-family="Helvetica,sans-Serif" font-size="10.00">fl::third_party::vorbis</text>
<text text-anchor="middle" x="416.5" y="-114.5" font-family="Helvetica,sans-Serif" font-size="10.00">::get32</text>
</a>
</g>
</g>
<!-- Node5&#45;&gt;Node6 -->
<g id="edge6_Node000005_Node000006" class="edge">
<title>Node5&#45;&gt;Node6</title>
<g id="a_edge6_Node000005_Node000006"><a xlink:title=" ">
<path fill="none" stroke="#63b8ff" d="M322.08,-134.11C330.67,-133.04 339.32,-131.97 347.71,-130.93"/>
<polygon fill="#63b8ff" stroke="#63b8ff" points="348.3,-134.38 357.79,-129.67 347.44,-127.43 348.3,-134.38"/>
</a>
</g>
</g>
<!-- Node7 -->
<g id="Node000007" class="node">
<title>Node7</title>
<g id="a_Node000007"><a xlink:href="../../d2/d59/namespacefl_1_1third__party_1_1vorbis_a845383ec7ad68fd476faee7f790f96f3.html#a845383ec7ad68fd476faee7f790f96f3" target="_top" xlink:title=" ">
<polygon fill="white" stroke="#666666" points="475,-89.5 358,-89.5 358,-59.5 475,-59.5 475,-89.5"/>
<text text-anchor="start" x="366" y="-77.5" font-family="Helvetica,sans-Serif" font-size="10.00">fl::third_party::vorbis</text>
<text text-anchor="middle" x="416.5" y="-66.5" font-family="Helvetica,sans-Serif" font-size="10.00">::getn</text>
</a>
</g>
</g>
<!-- Node5&#45;&gt;Node7 -->
<g id="edge9_Node000005_Node000007" class="edge">
<title>Node5&#45;&gt;Node7</title>
<g id="a_edge9_Node000005_Node000007"><a xlink:title=" ">
<path fill="none" stroke="#63b8ff" d="M276.47,-129.48C303.21,-118.91 339.21,-104.67 367.87,-93.34"/>
<polygon fill="#63b8ff" stroke="#63b8ff" points="369.27,-96.54 377.29,-89.61 366.7,-90.04 369.27,-96.54"/>
</a>
</g>
</g>
<!-- Node10 -->
<g id="Node000010" class="node">
<title>Node10</title>
<g id="a_Node000010"><a xlink:href="../../d2/d59/namespacefl_1_1third__party_1_1vorbis_a89ec0330080e8070876c894bf5e7fd56.html#a89ec0330080e8070876c894bf5e7fd56" target="_top" xlink:title=" ">
<polygon fill="white" stroke="#666666" points="475,-41 358,-41 358,0 475,0 475,-41"/>
<text text-anchor="start" x="366" y="-29" font-family="Helvetica,sans-Serif" font-size="10.00">fl::third_party::vorbis</text>
<text text-anchor="start" x="366" y="-18" font-family="Helvetica,sans-Serif" font-size="10.00">::stb_vorbis_get_file</text>
<text text-anchor="middle" x="416.5" y="-7" font-family="Helvetica,sans-Serif" font-size="10.00">_offset</text>
</a>
</g>
</g>
<!-- Node5&#45;&gt;Node10 -->
<g id="edge12_Node000005_Node000010" class="edge">
<title>Node5&#45;&gt;Node10</title>
<g id="a_edge12_Node000005_Node000010"><a xlink:title=" ">
<path fill="none" stroke="#63b8ff" d="M255.55,-129.42C278.08,-109.9 319.42,-75.43 358,-50.5 360.19,-49.08 362.46,-47.68 364.77,-46.29"/>
<polygon fill="#63b8ff" stroke="#63b8ff" points="366.92,-49.09 373.83,-41.06 363.42,-43.03 366.92,-49.09"/>
</a>
</g>
</g>
<!-- Node6&#45;&gt;Node3 -->
<g id="edge7_Node000006_Node000003" class="edge">
<title>Node6&#45;&gt;Node3</title>
<g id="a_edge7_Node000006_Node000003"><a xlink:title=" ">
<path fill="none" stroke="#63b8ff" d="M470.31,-137.54C481.81,-140.81 494.08,-144.31 505.91,-147.68"/>
<polygon fill="#63b8ff" stroke="#63b8ff" points="505.14,-151.1 515.72,-150.47 507.06,-144.36 505.14,-151.1"/>
</a>
</g>
</g>
<!-- Node8 -->
<g id="Node000008" class="node">
<title>Node8</title>
<g id="a_Node000008"><a xlink:href="../../d4/d36/namespacefl_a8959608cf4da341ccc51adc96b7cedec.html#a8959608cf4da341ccc51adc96b7cedec" target="_top" xlink:title="Read from file.">
<polygon fill="white" stroke="#666666" points="596.5,-122 542.5,-122 542.5,-103 596.5,-103 596.5,-122"/>
<text text-anchor="middle" x="569.5" y="-110" font-family="Helvetica,sans-Serif" font-size="10.00">fl::fread</text>
</a>
</g>
</g>
<!-- Node7&#45;&gt;Node8 -->
<g id="edge10_Node000007_Node000008" class="edge">
<title>Node7&#45;&gt;Node8</title>
<g id="a_edge10_Node000007_Node000008"><a xlink:title=" ">
<path fill="none" stroke="#63b8ff" d="M475.02,-88.97C494.2,-93.8 515.04,-99.05 532.16,-103.35"/>
<polygon fill="#63b8ff" stroke="#63b8ff" points="531.74,-106.86 542.29,-105.9 533.44,-100.07 531.74,-106.86"/>
</a>
</g>
</g>
<!-- Node9 -->
<g id="Node000009" class="node">
<title>Node9</title>
<g id="a_Node000009"><a xlink:href="../../d2/d59/namespacefl_1_1third__party_1_1vorbis_a0393d1d09fff5bccc427802cc22e756d.html#a0393d1d09fff5bccc427802cc22e756d" target="_top" xlink:title=" ">
<polygon fill="white" stroke="#666666" points="628,-84.5 511,-84.5 511,-54.5 628,-54.5 628,-84.5"/>
<text text-anchor="start" x="519" y="-72.5" font-family="Helvetica,sans-Serif" font-size="10.00">fl::third_party::vorbis</text>
<text text-anchor="middle" x="569.5" y="-61.5" font-family="Helvetica,sans-Serif" font-size="10.00">::memcpy</text>
</a>
</g>
</g>
<!-- Node7&#45;&gt;Node9 -->
<g id="edge11_Node000007_Node000009" class="edge">
<title>Node7&#45;&gt;Node9</title>
<g id="a_edge11_Node000007_Node000009"><a xlink:title=" ">
<path fill="none" stroke="#63b8ff" d="M475.02,-72.6C483.46,-72.32 492.23,-72.03 500.86,-71.74"/>
<polygon fill="#63b8ff" stroke="#63b8ff" points="501.01,-75.24 510.89,-71.41 500.78,-68.24 501.01,-75.24"/>
</a>
</g>
</g>
<!-- Node11 -->
<g id="Node000011" class="node">
<title>Node11</title>
<g id="a_Node000011"><a xlink:href="../../d4/d36/namespacefl_abdcc1d7d8e00727d7495db6d6116cf7d.html#abdcc1d7d8e00727d7495db6d6116cf7d" target="_top" xlink:title="Get current file position.">
<polygon fill="white" stroke="#666666" points="593,-30 546,-30 546,-11 593,-11 593,-30"/>
<text text-anchor="middle" x="569.5" y="-18" font-family="Helvetica,sans-Serif" font-size="10.00">fl::ftell</text>
</a>
</g>
</g>
<!-- Node10&#45;&gt;Node11 -->
<g id="edge13_Node000010_Node000011" class="edge">
<title>Node10&#45;&gt;Node11</title>
<g id="a_edge13_Node000010_Node000011"><a xlink:title=" ">
<path fill="none" stroke="#63b8ff" d="M475.02,-20.5C495.45,-20.5 517.74,-20.5 535.43,-20.5"/>
<polygon fill="#63b8ff" stroke="#63b8ff" points="535.8,-24 545.8,-20.5 535.8,-17 535.8,-24"/>
</a>
</g>
</g>
</g>
</svg>

<g id="navigator" transform="translate(0 0)" fill="#404254">
  <rect fill="#f2f5e9" fill-opacity="0.5" stroke="#606060" stroke-width=".5" x="0" y="0" width="60" height="60"/>
  <use id="zoomplus" xlink:href="#zoomPlus" x="17" y="9" onmousedown="handleZoom(evt,'in')"/>
  <use id="zoomminus" xlink:href="#zoomMin" x="42" y="9" onmousedown="handleZoom(evt,'out')"/>
  <use id="reset" xlink:href="#resetDef" x="30" y="36" onmousedown="handleReset()"/>
   <use id="arrowup" xlink:href="#arrowUp" x="0" y="0" onmousedown="handlePan(0,-1)"/>
  <use id="arrowright" xlink:href="#arrowRight" x="0" y="0" onmousedown="handlePan(1,0)"/>
  <use id="arrowdown" xlink:href="#arrowDown" x="0" y="0" onmousedown="handlePan(0,1)"/>
  <use id="arrowleft" xlink:href="#arrowLeft" x="0" y="0" onmousedown="handlePan(-1,0)"/>
</g>
<svg viewBox="0 0 15 15" width="100%" height="30px" preserveAspectRatio="xMaxYMin meet">
 <g id="arrow_out" transform="scale(0.3 0.3)">
  <a xlink:href="namespacefl_1_1third__party_1_1vorbis_a0cfd4081a7c391485ca8ef70d2ce96dc_a0cfd4081a7c391485ca8ef70d2ce96dc_cgraph_org.svg" target="_base">
   <rect id="button" ry="5" rx="5" y="6" x="6" height="38" width="38"
        fill="#f2f5e9" fill-opacity="0.5" stroke="#606060" stroke-width="1.0"/>
   <path id="arrow"
     d="M 11.500037,31.436501 C 11.940474,20.09759 22.043105,11.32322 32.158766,21.979434 L 37.068811,17.246167 C 37.068811,17.246167 37.088388,32 37.088388,32 L 22.160133,31.978069 C 22.160133,31.978069 26.997745,27.140456 26.997745,27.140456 C 18.528582,18.264221 13.291696,25.230495 11.500037,31.436501 z"
     style="fill:#404040;"/>
  </a>
 </g>
</svg>

<style type='text/css'>
<![CDATA[
[data-mouse-over-selected='false'] { opacity: 0.7; }
[data-mouse-over-selected='true']  { opacity: 1.0; }
]]>
</style>
<script type="application/ecmascript"><![CDATA[
document.addEventListener('DOMContentLoaded', (event) => {
  highlightEdges();
  highlightAdjacentNodes();
});
]]></script>
</svg>
