<?xml version="1.0" encoding="UTF-8" standalone="no"?>
<!DOCTYPE svg PUBLIC "-//W3C//DTD SVG 1.1//EN"
 "http://www.w3.org/Graphics/SVG/1.1/DTD/svg11.dtd">
<!-- Generated by graphviz version 2.43.0 (0)
 -->
<!-- Title: fl::third_party::vorbis::codebook_decode_scalar_raw Pages: 1 -->
<svg width="788pt" height="172pt"
 viewBox="0.00 0.00 788.00 172.00" xmlns="http://www.w3.org/2000/svg" xmlns:xlink="http://www.w3.org/1999/xlink">
<g id="graph0" class="graph" transform="scale(1 1) rotate(0) translate(4 168)">
<title>fl::third_party::vorbis::codebook_decode_scalar_raw</title>
<!-- Node1 -->
<g id="Node000001" class="node">
<title>Node1</title>
<g id="a_Node000001"><a xlink:title=" ">
<polygon fill="#999999" stroke="#666666" points="168,-121 0,-121 0,-91 168,-91 168,-121"/>
<text text-anchor="start" x="8" y="-109" font-family="Helvetica,sans-Serif" font-size="10.00">fl::third_party::vorbis</text>
<text text-anchor="middle" x="84" y="-98" font-family="Helvetica,sans-Serif" font-size="10.00">::codebook_decode_scalar_raw</text>
</a>
</g>
</g>
<!-- Node2 -->
<g id="Node000002" class="node">
<title>Node2</title>
<g id="a_Node000002"><a xlink:href="../../d2/d59/namespacefl_1_1third__party_1_1vorbis_a9e8145eaad2ce44204c290ad153812ed.html#a9e8145eaad2ce44204c290ad153812ed" target="_top" xlink:title=" ">
<polygon fill="white" stroke="#666666" points="321,-164 204,-164 204,-134 321,-134 321,-164"/>
<text text-anchor="start" x="212" y="-152" font-family="Helvetica,sans-Serif" font-size="10.00">fl::third_party::vorbis</text>
<text text-anchor="middle" x="262.5" y="-141" font-family="Helvetica,sans-Serif" font-size="10.00">::bit_reverse</text>
</a>
</g>
</g>
<!-- Node1&#45;&gt;Node2 -->
<g id="edge1_Node000001_Node000002" class="edge">
<title>Node1&#45;&gt;Node2</title>
<g id="a_edge1_Node000001_Node000002"><a xlink:title=" ">
<path fill="none" stroke="#63b8ff" d="M146.73,-121.04C161.98,-124.75 178.39,-128.75 193.91,-132.53"/>
<polygon fill="#63b8ff" stroke="#63b8ff" points="193.4,-136.01 203.95,-134.98 195.06,-129.21 193.4,-136.01"/>
</a>
</g>
</g>
<!-- Node3 -->
<g id="Node000003" class="node">
<title>Node3</title>
<g id="a_Node000003"><a xlink:href="../../d2/d59/namespacefl_1_1third__party_1_1vorbis_a1683913568d2d627f6044d09ac1e724e.html#a1683913568d2d627f6044d09ac1e724e" target="_top" xlink:title=" ">
<polygon fill="white" stroke="#666666" points="780,-75 663,-75 663,-45 780,-45 780,-75"/>
<text text-anchor="start" x="671" y="-63" font-family="Helvetica,sans-Serif" font-size="10.00">fl::third_party::vorbis</text>
<text text-anchor="middle" x="721.5" y="-52" font-family="Helvetica,sans-Serif" font-size="10.00">::error</text>
</a>
</g>
</g>
<!-- Node1&#45;&gt;Node3 -->
<g id="edge2_Node000001_Node000003" class="edge">
<title>Node1&#45;&gt;Node3</title>
<g id="a_edge2_Node000001_Node000003"><a xlink:title=" ">
<path fill="none" stroke="#63b8ff" d="M168.25,-109.39C275.17,-112.3 466.14,-112.64 627,-87 640.16,-84.9 654.09,-81.53 667.07,-77.88"/>
<polygon fill="#63b8ff" stroke="#63b8ff" points="668.16,-81.2 676.77,-75.04 666.19,-74.48 668.16,-81.2"/>
</a>
</g>
</g>
<!-- Node4 -->
<g id="Node000004" class="node">
<title>Node4</title>
<g id="a_Node000004"><a xlink:href="../../d2/d59/namespacefl_1_1third__party_1_1vorbis_aa4e744102e3ff5caaa3043734f0c446d.html#aa4e744102e3ff5caaa3043734f0c446d" target="_top" xlink:title=" ">
<polygon fill="white" stroke="#666666" points="321,-78 204,-78 204,-48 321,-48 321,-78"/>
<text text-anchor="start" x="212" y="-66" font-family="Helvetica,sans-Serif" font-size="10.00">fl::third_party::vorbis</text>
<text text-anchor="middle" x="262.5" y="-55" font-family="Helvetica,sans-Serif" font-size="10.00">::prep_huffman</text>
</a>
</g>
</g>
<!-- Node1&#45;&gt;Node4 -->
<g id="edge3_Node000001_Node000004" class="edge">
<title>Node1&#45;&gt;Node4</title>
<g id="a_edge3_Node000001_Node000004"><a xlink:title=" ">
<path fill="none" stroke="#63b8ff" d="M146.73,-90.96C161.98,-87.25 178.39,-83.25 193.91,-79.47"/>
<polygon fill="#63b8ff" stroke="#63b8ff" points="195.06,-82.79 203.95,-77.02 193.4,-75.99 195.06,-82.79"/>
</a>
</g>
</g>
<!-- Node5 -->
<g id="Node000005" class="node">
<title>Node5</title>
<g id="a_Node000005"><a xlink:href="../../d2/d59/namespacefl_1_1third__party_1_1vorbis_a9bd861dc62af2d386a5275f53f928b0b.html#a9bd861dc62af2d386a5275f53f928b0b" target="_top" xlink:title=" ">
<polygon fill="white" stroke="#666666" points="474,-78 357,-78 357,-48 474,-48 474,-78"/>
<text text-anchor="start" x="365" y="-66" font-family="Helvetica,sans-Serif" font-size="10.00">fl::third_party::vorbis</text>
<text text-anchor="middle" x="415.5" y="-55" font-family="Helvetica,sans-Serif" font-size="10.00">::get8_packet_raw</text>
</a>
</g>
</g>
<!-- Node4&#45;&gt;Node5 -->
<g id="edge4_Node000004_Node000005" class="edge">
<title>Node4&#45;&gt;Node5</title>
<g id="a_edge4_Node000004_Node000005"><a xlink:title=" ">
<path fill="none" stroke="#63b8ff" d="M321.02,-63C329.46,-63 338.23,-63 346.86,-63"/>
<polygon fill="#63b8ff" stroke="#63b8ff" points="346.89,-66.5 356.89,-63 346.89,-59.5 346.89,-66.5"/>
</a>
</g>
</g>
<!-- Node6 -->
<g id="Node000006" class="node">
<title>Node6</title>
<g id="a_Node000006"><a xlink:href="../../d2/d59/namespacefl_1_1third__party_1_1vorbis_a85a16124231fdd97ad0d62275f49f529.html#a85a16124231fdd97ad0d62275f49f529" target="_top" xlink:title=" ">
<polygon fill="white" stroke="#666666" points="627,-78 510,-78 510,-48 627,-48 627,-78"/>
<text text-anchor="start" x="518" y="-66" font-family="Helvetica,sans-Serif" font-size="10.00">fl::third_party::vorbis</text>
<text text-anchor="middle" x="568.5" y="-55" font-family="Helvetica,sans-Serif" font-size="10.00">::get8</text>
</a>
</g>
</g>
<!-- Node5&#45;&gt;Node6 -->
<g id="edge5_Node000005_Node000006" class="edge">
<title>Node5&#45;&gt;Node6</title>
<g id="a_edge5_Node000005_Node000006"><a xlink:title=" ">
<path fill="none" stroke="#63b8ff" d="M474.02,-63C482.46,-63 491.23,-63 499.86,-63"/>
<polygon fill="#63b8ff" stroke="#63b8ff" points="499.89,-66.5 509.89,-63 499.89,-59.5 499.89,-66.5"/>
</a>
</g>
</g>
<!-- Node7 -->
<g id="Node000007" class="node">
<title>Node7</title>
<g id="a_Node000007"><a xlink:href="../../d2/d59/namespacefl_1_1third__party_1_1vorbis_afc76b9e752a49de48731ffb2fe24ca0f.html#afc76b9e752a49de48731ffb2fe24ca0f" target="_top" xlink:title=" ">
<polygon fill="#fff0f0" stroke="red" points="627,-30 510,-30 510,0 627,0 627,-30"/>
<text text-anchor="start" x="518" y="-18" font-family="Helvetica,sans-Serif" font-size="10.00">fl::third_party::vorbis</text>
<text text-anchor="middle" x="568.5" y="-7" font-family="Helvetica,sans-Serif" font-size="10.00">::next_segment</text>
</a>
</g>
</g>
<!-- Node5&#45;&gt;Node7 -->
<g id="edge6_Node000005_Node000007" class="edge">
<title>Node5&#45;&gt;Node7</title>
<g id="a_edge6_Node000005_Node000007"><a xlink:title=" ">
<path fill="none" stroke="#63b8ff" d="M463.86,-47.94C478.62,-43.25 495.05,-38.03 510.4,-33.15"/>
<polygon fill="#63b8ff" stroke="#63b8ff" points="511.84,-36.37 520.31,-30 509.71,-29.7 511.84,-36.37"/>
</a>
</g>
</g>
<!-- Node7&#45;&gt;Node3 -->
<g id="edge7_Node000007_Node000003" class="edge">
<title>Node7&#45;&gt;Node3</title>
<g id="a_edge7_Node000007_Node000003"><a xlink:title=" ">
<path fill="none" stroke="#63b8ff" d="M620.2,-30.11C632.97,-33.91 646.8,-38.04 659.99,-41.97"/>
<polygon fill="#63b8ff" stroke="#63b8ff" points="659.35,-45.43 669.93,-44.93 661.35,-38.72 659.35,-45.43"/>
</a>
</g>
</g>
</g>
</svg>
