<?xml version="1.0" encoding="UTF-8" standalone="no"?>
<!DOCTYPE svg PUBLIC "-//W3C//DTD SVG 1.1//EN"
 "http://www.w3.org/Graphics/SVG/1.1/DTD/svg11.dtd">
<!-- Generated by graphviz version 2.43.0 (0)
 -->
<!-- Title: fl::third_party::vorbis::codebook_decode_start Pages: 1 -->
<svg width="625pt" height="86pt"
 viewBox="0.00 0.00 625.00 86.00" xmlns="http://www.w3.org/2000/svg" xmlns:xlink="http://www.w3.org/1999/xlink">
<g id="graph0" class="graph" transform="scale(1 1) rotate(0) translate(4 82)">
<title>fl::third_party::vorbis::codebook_decode_start</title>
<!-- Node1 -->
<g id="Node000001" class="node">
<title>Node1</title>
<g id="a_Node000001"><a xlink:title=" ">
<polygon fill="#999999" stroke="#666666" points="617,-54 479,-54 479,-24 617,-24 617,-54"/>
<text text-anchor="start" x="487" y="-42" font-family="Helvetica,sans-Serif" font-size="10.00">fl::third_party::vorbis</text>
<text text-anchor="middle" x="548" y="-31" font-family="Helvetica,sans-Serif" font-size="10.00">::codebook_decode_start</text>
</a>
</g>
</g>
<!-- Node2 -->
<g id="Node000002" class="node">
<title>Node2</title>
<g id="a_Node000002"><a xlink:href="../../d2/d59/namespacefl_1_1third__party_1_1vorbis_a181d5a77284e17c0e734da5d2dddd6e3.html#a181d5a77284e17c0e734da5d2dddd6e3" target="_top" xlink:title=" ">
<polygon fill="white" stroke="#666666" points="433,-78 316,-78 316,-48 433,-48 433,-78"/>
<text text-anchor="start" x="324" y="-66" font-family="Helvetica,sans-Serif" font-size="10.00">fl::third_party::vorbis</text>
<text text-anchor="middle" x="374.5" y="-55" font-family="Helvetica,sans-Serif" font-size="10.00">::codebook_decode</text>
</a>
</g>
</g>
<!-- Node1&#45;&gt;Node2 -->
<g id="edge1_Node000001_Node000002" class="edge">
<title>Node1&#45;&gt;Node2</title>
<g id="a_edge1_Node000001_Node000002"><a xlink:title=" ">
<path fill="none" stroke="#63b8ff" d="M468.71,-49.96C456.7,-51.64 444.5,-53.34 433.05,-54.95"/>
<polygon fill="#63b8ff" stroke="#63b8ff" points="469.31,-53.41 478.73,-48.55 468.34,-46.47 469.31,-53.41"/>
</a>
</g>
</g>
<!-- Node26 -->
<g id="Node000026" class="node">
<title>Node26</title>
<g id="a_Node000026"><a xlink:href="../../d2/d59/namespacefl_1_1third__party_1_1vorbis_ac294d2b7736c6c638805f21168439116.html#ac294d2b7736c6c638805f21168439116" target="_top" xlink:title=" ">
<polygon fill="white" stroke="#666666" points="443,-30 306,-30 306,0 443,0 443,-30"/>
<text text-anchor="start" x="314" y="-18" font-family="Helvetica,sans-Serif" font-size="10.00">fl::third_party::vorbis</text>
<text text-anchor="middle" x="374.5" y="-7" font-family="Helvetica,sans-Serif" font-size="10.00">::codebook_decode_step</text>
</a>
</g>
</g>
<!-- Node1&#45;&gt;Node26 -->
<g id="edge4_Node000001_Node000026" class="edge">
<title>Node1&#45;&gt;Node26</title>
<g id="a_edge4_Node000001_Node000026"><a xlink:title=" ">
<path fill="none" stroke="#63b8ff" d="M468.79,-28.05C460.26,-26.86 451.64,-25.66 443.26,-24.48"/>
<polygon fill="#63b8ff" stroke="#63b8ff" points="468.34,-31.53 478.73,-29.45 469.31,-24.59 468.34,-31.53"/>
</a>
</g>
</g>
<!-- Node3 -->
<g id="Node000003" class="node">
<title>Node3</title>
<g id="a_Node000003"><a xlink:href="../../d2/d59/namespacefl_1_1third__party_1_1vorbis_a277cfa6e249f73447d3600d6e0874e0d.html#a277cfa6e249f73447d3600d6e0874e0d" target="_top" xlink:title=" ">
<polygon fill="white" stroke="#666666" points="270,-54 153,-54 153,-24 270,-24 270,-54"/>
<text text-anchor="start" x="161" y="-42" font-family="Helvetica,sans-Serif" font-size="10.00">fl::third_party::vorbis</text>
<text text-anchor="middle" x="211.5" y="-31" font-family="Helvetica,sans-Serif" font-size="10.00">::residue_decode</text>
</a>
</g>
</g>
<!-- Node2&#45;&gt;Node3 -->
<g id="edge2_Node000002_Node000003" class="edge">
<title>Node2&#45;&gt;Node3</title>
<g id="a_edge2_Node000002_Node000003"><a xlink:title=" ">
<path fill="none" stroke="#63b8ff" d="M305.92,-52.93C293.99,-51.15 281.66,-49.31 270.04,-47.58"/>
<polygon fill="#63b8ff" stroke="#63b8ff" points="305.42,-56.39 315.83,-54.4 306.46,-49.47 305.42,-56.39"/>
</a>
</g>
</g>
<!-- Node4 -->
<g id="Node000004" class="node">
<title>Node4</title>
<g id="a_Node000004"><a xlink:href="../../d2/d59/namespacefl_1_1third__party_1_1vorbis_ac9af478644d0891fa8bd87187e32cda6.html#ac9af478644d0891fa8bd87187e32cda6" target="_top" xlink:title=" ">
<polygon fill="#fff0f0" stroke="red" points="117,-54 0,-54 0,-24 117,-24 117,-54"/>
<text text-anchor="start" x="8" y="-42" font-family="Helvetica,sans-Serif" font-size="10.00">fl::third_party::vorbis</text>
<text text-anchor="middle" x="58.5" y="-31" font-family="Helvetica,sans-Serif" font-size="10.00">::decode_residue</text>
</a>
</g>
</g>
<!-- Node3&#45;&gt;Node4 -->
<g id="edge3_Node000003_Node000004" class="edge">
<title>Node3&#45;&gt;Node4</title>
<g id="a_edge3_Node000003_Node000004"><a xlink:title=" ">
<path fill="none" stroke="#63b8ff" d="M142.95,-39C134.32,-39 125.56,-39 117.11,-39"/>
<polygon fill="#63b8ff" stroke="#63b8ff" points="142.98,-42.5 152.98,-39 142.98,-35.5 142.98,-42.5"/>
</a>
</g>
</g>
<!-- Node26&#45;&gt;Node3 -->
<g id="edge5_Node000026_Node000003" class="edge">
<title>Node26&#45;&gt;Node3</title>
<g id="a_edge5_Node000026_Node000003"><a xlink:title=" ">
<path fill="none" stroke="#63b8ff" d="M295.62,-26.61C287,-27.89 278.34,-29.18 270.04,-30.42"/>
<polygon fill="#63b8ff" stroke="#63b8ff" points="296.31,-30.04 305.69,-25.11 295.28,-23.12 296.31,-30.04"/>
</a>
</g>
</g>
</g>
</svg>
