<?xml version="1.0" encoding="UTF-8" standalone="no"?>
<!DOCTYPE svg PUBLIC "-//W3C//DTD SVG 1.1//EN"
 "http://www.w3.org/Graphics/SVG/1.1/DTD/svg11.dtd">
<!-- Generated by graphviz version 2.43.0 (0)
 -->
<!-- Title: fl::third_party::vorbis::vorbis_decode_initial Pages: 1 -->
<svg width="1109pt" height="300pt"
 viewBox="0.00 0.00 1109.00 300.09" xmlns="http://www.w3.org/2000/svg" xmlns:xlink="http://www.w3.org/1999/xlink">
<g id="graph0" class="graph" transform="scale(1 1) rotate(0) translate(4 296.09)">
<title>fl::third_party::vorbis::vorbis_decode_initial</title>
<!-- Node1 -->
<g id="Node000001" class="node">
<title>Node1</title>
<g id="a_Node000001"><a xlink:title=" ">
<polygon fill="#999999" stroke="#666666" points="126,-181.09 0,-181.09 0,-151.09 126,-151.09 126,-181.09"/>
<text text-anchor="start" x="8" y="-169.09" font-family="Helvetica,sans-Serif" font-size="10.00">fl::third_party::vorbis</text>
<text text-anchor="middle" x="63" y="-158.09" font-family="Helvetica,sans-Serif" font-size="10.00">::vorbis_decode_initial</text>
</a>
</g>
</g>
<!-- Node2 -->
<g id="Node000002" class="node">
<title>Node2</title>
<g id="a_Node000002"><a xlink:href="../../d2/d59/namespacefl_1_1third__party_1_1vorbis_a1683913568d2d627f6044d09ac1e724e.html#a1683913568d2d627f6044d09ac1e724e" target="_top" xlink:title=" ">
<polygon fill="white" stroke="#666666" points="1101,-210.09 984,-210.09 984,-180.09 1101,-180.09 1101,-210.09"/>
<text text-anchor="start" x="992" y="-198.09" font-family="Helvetica,sans-Serif" font-size="10.00">fl::third_party::vorbis</text>
<text text-anchor="middle" x="1042.5" y="-187.09" font-family="Helvetica,sans-Serif" font-size="10.00">::error</text>
</a>
</g>
</g>
<!-- Node1&#45;&gt;Node2 -->
<g id="edge1_Node000001_Node000002" class="edge">
<title>Node1&#45;&gt;Node2</title>
<g id="a_edge1_Node000001_Node000002"><a xlink:title=" ">
<path fill="none" stroke="#63b8ff" d="M85.04,-181.29C133.59,-214.8 258.2,-292.09 375,-292.09 375,-292.09 375,-292.09 685.5,-292.09 802.73,-292.09 934.27,-242.52 999.76,-214.26"/>
<polygon fill="#63b8ff" stroke="#63b8ff" points="1001.17,-217.46 1008.94,-210.25 998.37,-211.04 1001.17,-217.46"/>
</a>
</g>
</g>
<!-- Node3 -->
<g id="Node000003" class="node">
<title>Node3</title>
<g id="a_Node000003"><a xlink:href="../../d2/d59/namespacefl_1_1third__party_1_1vorbis_aebbdc8f029082622f708c0dd6cefb447.html#aebbdc8f029082622f708c0dd6cefb447" target="_top" xlink:title=" ">
<polygon fill="white" stroke="#666666" points="279,-181.09 162,-181.09 162,-151.09 279,-151.09 279,-181.09"/>
<text text-anchor="start" x="170" y="-169.09" font-family="Helvetica,sans-Serif" font-size="10.00">fl::third_party::vorbis</text>
<text text-anchor="middle" x="220.5" y="-158.09" font-family="Helvetica,sans-Serif" font-size="10.00">::get8_packet</text>
</a>
</g>
</g>
<!-- Node1&#45;&gt;Node3 -->
<g id="edge2_Node000001_Node000003" class="edge">
<title>Node1&#45;&gt;Node3</title>
<g id="a_edge2_Node000001_Node000003"><a xlink:title=" ">
<path fill="none" stroke="#63b8ff" d="M126.35,-166.09C134.7,-166.09 143.3,-166.09 151.74,-166.09"/>
<polygon fill="#63b8ff" stroke="#63b8ff" points="151.92,-169.59 161.92,-166.09 151.92,-162.59 151.92,-169.59"/>
</a>
</g>
</g>
<!-- Node16 -->
<g id="Node000016" class="node">
<title>Node16</title>
<g id="a_Node000016"><a xlink:href="../../d2/d59/namespacefl_1_1third__party_1_1vorbis_ad4b97c42f91caa28b2b577acfa481b6c.html#ad4b97c42f91caa28b2b577acfa481b6c" target="_top" xlink:title=" ">
<polygon fill="white" stroke="#666666" points="279,-115.09 162,-115.09 162,-85.09 279,-85.09 279,-115.09"/>
<text text-anchor="start" x="170" y="-103.09" font-family="Helvetica,sans-Serif" font-size="10.00">fl::third_party::vorbis</text>
<text text-anchor="middle" x="220.5" y="-92.09" font-family="Helvetica,sans-Serif" font-size="10.00">::get_bits</text>
</a>
</g>
</g>
<!-- Node1&#45;&gt;Node16 -->
<g id="edge12_Node000001_Node000016" class="edge">
<title>Node1&#45;&gt;Node16</title>
<g id="a_edge12_Node000001_Node000016"><a xlink:title=" ">
<path fill="none" stroke="#63b8ff" d="M99.67,-150.95C121.9,-141.52 150.69,-129.3 174.47,-119.2"/>
<polygon fill="#63b8ff" stroke="#63b8ff" points="176.15,-122.29 183.99,-115.16 173.42,-115.85 176.15,-122.29"/>
</a>
</g>
</g>
<!-- Node17 -->
<g id="Node000017" class="node">
<title>Node17</title>
<g id="a_Node000017"><a xlink:href="../../d2/d59/namespacefl_1_1third__party_1_1vorbis_a1047cfc1a381b69a0f543a874dc12fa8.html#a1047cfc1a381b69a0f543a874dc12fa8" target="_top" xlink:title=" ">
<polygon fill="white" stroke="#666666" points="279,-67.09 162,-67.09 162,-37.09 279,-37.09 279,-67.09"/>
<text text-anchor="start" x="170" y="-55.09" font-family="Helvetica,sans-Serif" font-size="10.00">fl::third_party::vorbis</text>
<text text-anchor="middle" x="220.5" y="-44.09" font-family="Helvetica,sans-Serif" font-size="10.00">::ilog</text>
</a>
</g>
</g>
<!-- Node1&#45;&gt;Node17 -->
<g id="edge15_Node000001_Node000017" class="edge">
<title>Node1&#45;&gt;Node17</title>
<g id="a_edge15_Node000001_Node000017"><a xlink:title=" ">
<path fill="none" stroke="#63b8ff" d="M77.3,-150.97C95.04,-131.55 128.14,-97.75 162,-76.09 164.39,-74.56 166.9,-73.09 169.47,-71.69"/>
<polygon fill="#63b8ff" stroke="#63b8ff" points="171.05,-74.81 178.39,-67.17 167.89,-68.56 171.05,-74.81"/>
</a>
</g>
</g>
<!-- Node18 -->
<g id="Node000018" class="node">
<title>Node18</title>
<g id="a_Node000018"><a xlink:href="../../d2/d59/namespacefl_1_1third__party_1_1vorbis_ac0944b12308a136520349a858dfd94db.html#ac0944b12308a136520349a858dfd94db" target="_top" xlink:title=" ">
<polygon fill="white" stroke="#666666" points="437,-212.09 315,-212.09 315,-182.09 437,-182.09 437,-212.09"/>
<text text-anchor="start" x="323" y="-200.09" font-family="Helvetica,sans-Serif" font-size="10.00">fl::third_party::vorbis</text>
<text text-anchor="middle" x="376" y="-189.09" font-family="Helvetica,sans-Serif" font-size="10.00">::maybe_start_packet</text>
</a>
</g>
</g>
<!-- Node1&#45;&gt;Node18 -->
<g id="edge16_Node000001_Node000018" class="edge">
<title>Node1&#45;&gt;Node18</title>
<g id="a_edge16_Node000001_Node000018"><a xlink:title=" ">
<path fill="none" stroke="#63b8ff" d="M116.76,-181.14C131.3,-184.7 147.16,-188.05 162,-190.09 209.24,-196.58 262.9,-198.31 304.54,-198.43"/>
<polygon fill="#63b8ff" stroke="#63b8ff" points="304.58,-201.93 314.58,-198.43 304.58,-194.93 304.58,-201.93"/>
</a>
</g>
</g>
<!-- Node4 -->
<g id="Node000004" class="node">
<title>Node4</title>
<g id="a_Node000004"><a xlink:href="../../d2/d59/namespacefl_1_1third__party_1_1vorbis_a9bd861dc62af2d386a5275f53f928b0b.html#a9bd861dc62af2d386a5275f53f928b0b" target="_top" xlink:title=" ">
<polygon fill="white" stroke="#666666" points="434.5,-138.09 317.5,-138.09 317.5,-108.09 434.5,-108.09 434.5,-138.09"/>
<text text-anchor="start" x="325.5" y="-126.09" font-family="Helvetica,sans-Serif" font-size="10.00">fl::third_party::vorbis</text>
<text text-anchor="middle" x="376" y="-115.09" font-family="Helvetica,sans-Serif" font-size="10.00">::get8_packet_raw</text>
</a>
</g>
</g>
<!-- Node3&#45;&gt;Node4 -->
<g id="edge3_Node000003_Node000004" class="edge">
<title>Node3&#45;&gt;Node4</title>
<g id="a_edge3_Node000003_Node000004"><a xlink:title=" ">
<path fill="none" stroke="#63b8ff" d="M275.19,-151.05C286.87,-147.78 299.34,-144.29 311.37,-140.92"/>
<polygon fill="#63b8ff" stroke="#63b8ff" points="312.66,-144.19 321.34,-138.12 310.77,-137.45 312.66,-144.19"/>
</a>
</g>
</g>
<!-- Node5 -->
<g id="Node000005" class="node">
<title>Node5</title>
<g id="a_Node000005"><a xlink:href="../../d2/d59/namespacefl_1_1third__party_1_1vorbis_a85a16124231fdd97ad0d62275f49f529.html#a85a16124231fdd97ad0d62275f49f529" target="_top" xlink:title=" ">
<polygon fill="white" stroke="#666666" points="1101,-66.09 984,-66.09 984,-36.09 1101,-36.09 1101,-66.09"/>
<text text-anchor="start" x="992" y="-54.09" font-family="Helvetica,sans-Serif" font-size="10.00">fl::third_party::vorbis</text>
<text text-anchor="middle" x="1042.5" y="-43.09" font-family="Helvetica,sans-Serif" font-size="10.00">::get8</text>
</a>
</g>
</g>
<!-- Node4&#45;&gt;Node5 -->
<g id="edge4_Node000004_Node000005" class="edge">
<title>Node4&#45;&gt;Node5</title>
<g id="a_edge4_Node000004_Node000005"><a xlink:title=" ">
<path fill="none" stroke="#63b8ff" d="M387.94,-107.97C403.92,-87.34 435.8,-51.32 473,-37.09 644.25,28.4 866.2,-8.49 975.18,-33.69"/>
<polygon fill="#63b8ff" stroke="#63b8ff" points="974.51,-37.13 985.05,-36.01 976.12,-30.32 974.51,-37.13"/>
</a>
</g>
</g>
<!-- Node6 -->
<g id="Node000006" class="node">
<title>Node6</title>
<g id="a_Node000006"><a xlink:href="../../d2/d59/namespacefl_1_1third__party_1_1vorbis_afc76b9e752a49de48731ffb2fe24ca0f.html#afc76b9e752a49de48731ffb2fe24ca0f" target="_top" xlink:title=" ">
<polygon fill="white" stroke="#666666" points="590,-150.09 473,-150.09 473,-120.09 590,-120.09 590,-150.09"/>
<text text-anchor="start" x="481" y="-138.09" font-family="Helvetica,sans-Serif" font-size="10.00">fl::third_party::vorbis</text>
<text text-anchor="middle" x="531.5" y="-127.09" font-family="Helvetica,sans-Serif" font-size="10.00">::next_segment</text>
</a>
</g>
</g>
<!-- Node4&#45;&gt;Node6 -->
<g id="edge5_Node000004_Node000006" class="edge">
<title>Node4&#45;&gt;Node6</title>
<g id="a_edge5_Node000004_Node000006"><a xlink:title=" ">
<path fill="none" stroke="#63b8ff" d="M434.59,-127.59C443.78,-128.31 453.35,-129.06 462.75,-129.79"/>
<polygon fill="#63b8ff" stroke="#63b8ff" points="462.6,-133.29 472.84,-130.58 463.14,-126.31 462.6,-133.29"/>
</a>
</g>
</g>
<!-- Node6&#45;&gt;Node2 -->
<g id="edge6_Node000006_Node000002" class="edge">
<title>Node6&#45;&gt;Node2</title>
<g id="a_edge6_Node000006_Node000002"><a xlink:title=" ">
<path fill="none" stroke="#63b8ff" d="M590.34,-137.68C670.96,-141.94 821.45,-152.22 948,-174.09 956.46,-175.55 965.3,-177.28 974.04,-179.1"/>
<polygon fill="#63b8ff" stroke="#63b8ff" points="973.31,-182.53 983.82,-181.19 974.77,-175.68 973.31,-182.53"/>
</a>
</g>
</g>
<!-- Node7 -->
<g id="Node000007" class="node">
<title>Node7</title>
<g id="a_Node000007"><a xlink:href="../../d2/d59/namespacefl_1_1third__party_1_1vorbis_a0cfd4081a7c391485ca8ef70d2ce96dc.html#a0cfd4081a7c391485ca8ef70d2ce96dc" target="_top" xlink:title=" ">
<polygon fill="#fff0f0" stroke="red" points="743,-188.09 626,-188.09 626,-158.09 743,-158.09 743,-188.09"/>
<text text-anchor="start" x="634" y="-176.09" font-family="Helvetica,sans-Serif" font-size="10.00">fl::third_party::vorbis</text>
<text text-anchor="middle" x="684.5" y="-165.09" font-family="Helvetica,sans-Serif" font-size="10.00">::start_page</text>
</a>
</g>
</g>
<!-- Node6&#45;&gt;Node7 -->
<g id="edge7_Node000006_Node000007" class="edge">
<title>Node6&#45;&gt;Node7</title>
<g id="a_edge7_Node000006_Node000007"><a xlink:title=" ">
<path fill="none" stroke="#63b8ff" d="M590.02,-149.57C598.56,-151.71 607.42,-153.95 616.14,-156.14"/>
<polygon fill="#63b8ff" stroke="#63b8ff" points="615.34,-159.55 625.89,-158.59 617.05,-152.76 615.34,-159.55"/>
</a>
</g>
</g>
<!-- Node7&#45;&gt;Node2 -->
<g id="edge8_Node000007_Node000002" class="edge">
<title>Node7&#45;&gt;Node2</title>
<g id="a_edge8_Node000007_Node000002"><a xlink:title=" ">
<path fill="none" stroke="#63b8ff" d="M743.09,-176.65C806.17,-180.55 907.23,-186.79 973.99,-190.92"/>
<polygon fill="#63b8ff" stroke="#63b8ff" points="973.79,-194.41 983.99,-191.54 974.22,-187.43 973.79,-194.41"/>
</a>
</g>
</g>
<!-- Node9 -->
<g id="Node000009" class="node">
<title>Node9</title>
<g id="a_Node000009"><a xlink:href="../../d2/d59/namespacefl_1_1third__party_1_1vorbis_a41f7c9c142ed08c116eedf30df4c93d1.html#a41f7c9c142ed08c116eedf30df4c93d1" target="_top" xlink:title=" ">
<polygon fill="#fff0f0" stroke="red" points="948,-109.09 779,-109.09 779,-79.09 948,-79.09 948,-109.09"/>
<text text-anchor="start" x="787" y="-97.09" font-family="Helvetica,sans-Serif" font-size="10.00">fl::third_party::vorbis</text>
<text text-anchor="middle" x="863.5" y="-86.09" font-family="Helvetica,sans-Serif" font-size="10.00">::start_page_no_capturepattern</text>
</a>
</g>
</g>
<!-- Node7&#45;&gt;Node9 -->
<g id="edge9_Node000007_Node000009" class="edge">
<title>Node7&#45;&gt;Node9</title>
<g id="a_edge9_Node000007_Node000009"><a xlink:title=" ">
<path fill="none" stroke="#63b8ff" d="M719.21,-158.05C747.66,-145.35 788.57,-127.09 819.4,-113.33"/>
<polygon fill="#63b8ff" stroke="#63b8ff" points="820.91,-116.49 828.62,-109.22 818.06,-110.09 820.91,-116.49"/>
</a>
</g>
</g>
<!-- Node9&#45;&gt;Node2 -->
<g id="edge10_Node000009_Node000002" class="edge">
<title>Node9&#45;&gt;Node2</title>
<g id="a_edge10_Node000009_Node000002"><a xlink:title=" ">
<path fill="none" stroke="#63b8ff" d="M916.39,-109.2C927.12,-113.12 938.14,-117.77 948,-123.09 973.64,-136.94 999.65,-157.62 1017.7,-173.27"/>
<polygon fill="#63b8ff" stroke="#63b8ff" points="1015.59,-176.08 1025.41,-180.07 1020.22,-170.83 1015.59,-176.08"/>
</a>
</g>
</g>
<!-- Node9&#45;&gt;Node5 -->
<g id="edge11_Node000009_Node000005" class="edge">
<title>Node9&#45;&gt;Node5</title>
<g id="a_edge11_Node000009_Node000005"><a xlink:title=" ">
<path fill="none" stroke="#63b8ff" d="M926.41,-79.05C941.7,-75.34 958.16,-71.34 973.71,-67.56"/>
<polygon fill="#63b8ff" stroke="#63b8ff" points="974.89,-70.87 983.78,-65.11 973.24,-64.07 974.89,-70.87"/>
</a>
</g>
</g>
<!-- Node16&#45;&gt;Node4 -->
<g id="edge13_Node000016_Node000004" class="edge">
<title>Node16&#45;&gt;Node4</title>
<g id="a_edge13_Node000016_Node000004"><a xlink:title=" ">
<path fill="none" stroke="#63b8ff" d="M279.09,-108.72C288.28,-110.1 297.85,-111.53 307.25,-112.94"/>
<polygon fill="#63b8ff" stroke="#63b8ff" points="306.93,-116.43 317.34,-114.45 307.97,-109.51 306.93,-116.43"/>
</a>
</g>
</g>
<!-- Node16&#45;&gt;Node16 -->
<g id="edge14_Node000016_Node000016" class="edge">
<title>Node16&#45;&gt;Node16</title>
<g id="a_edge14_Node000016_Node000016"><a xlink:title=" ">
<path fill="none" stroke="#63b8ff" d="M193.43,-115.37C187.41,-124.5 196.44,-133.09 220.5,-133.09 234.79,-133.09 243.77,-130.06 247.46,-125.69"/>
<polygon fill="#63b8ff" stroke="#63b8ff" points="250.96,-125.41 247.57,-115.37 243.96,-125.33 250.96,-125.41"/>
</a>
</g>
</g>
<!-- Node18&#45;&gt;Node2 -->
<g id="edge17_Node000018_Node000002" class="edge">
<title>Node18&#45;&gt;Node2</title>
<g id="a_edge17_Node000018_Node000002"><a xlink:title=" ">
<path fill="none" stroke="#63b8ff" d="M427.38,-212.15C441.96,-215.83 458,-219.24 473,-221.09 556.98,-231.43 769.72,-230.43 948,-212.09 956.38,-211.23 965.13,-210.04 973.77,-208.68"/>
<polygon fill="#63b8ff" stroke="#63b8ff" points="974.55,-212.1 983.84,-207.02 973.41,-205.19 974.55,-212.1"/>
</a>
</g>
</g>
<!-- Node18&#45;&gt;Node5 -->
<g id="edge18_Node000018_Node000005" class="edge">
<title>Node18&#45;&gt;Node5</title>
<g id="a_edge18_Node000018_Node000005"><a xlink:title=" ">
<path fill="none" stroke="#63b8ff" d="M399.15,-182.04C411.38,-172.94 426.23,-160.53 437,-147.09 458.88,-119.79 443.56,-95.99 473,-77.09 554.03,-25.07 841.25,-37.19 973.7,-45.94"/>
<polygon fill="#63b8ff" stroke="#63b8ff" points="973.51,-49.44 983.73,-46.62 973.98,-42.45 973.51,-49.44"/>
</a>
</g>
</g>
<!-- Node18&#45;&gt;Node9 -->
<g id="edge22_Node000018_Node000009" class="edge">
<title>Node18&#45;&gt;Node9</title>
<g id="a_edge22_Node000018_Node000009"><a xlink:title=" ">
<path fill="none" stroke="#63b8ff" d="M396.02,-181.98C408.01,-172.27 423.68,-159.25 437,-147.09 453.71,-131.83 452.29,-120.2 473,-111.09 567.17,-69.66 686.83,-71.43 768.51,-79.71"/>
<polygon fill="#63b8ff" stroke="#63b8ff" points="768.46,-83.23 778.77,-80.81 769.2,-76.27 768.46,-83.23"/>
</a>
</g>
</g>
<!-- Node19 -->
<g id="Node000019" class="node">
<title>Node19</title>
<g id="a_Node000019"><a xlink:href="../../d2/d59/namespacefl_1_1third__party_1_1vorbis_aaab5db3383402fb4a6a5c610c8df591d.html#aaab5db3383402fb4a6a5c610c8df591d" target="_top" xlink:title=" ">
<polygon fill="white" stroke="#666666" points="590,-212.09 473,-212.09 473,-182.09 590,-182.09 590,-212.09"/>
<text text-anchor="start" x="481" y="-200.09" font-family="Helvetica,sans-Serif" font-size="10.00">fl::third_party::vorbis</text>
<text text-anchor="middle" x="531.5" y="-189.09" font-family="Helvetica,sans-Serif" font-size="10.00">::start_packet</text>
</a>
</g>
</g>
<!-- Node18&#45;&gt;Node19 -->
<g id="edge19_Node000018_Node000019" class="edge">
<title>Node18&#45;&gt;Node19</title>
<g id="a_edge19_Node000018_Node000019"><a xlink:title=" ">
<path fill="none" stroke="#63b8ff" d="M437.23,-197.09C445.59,-197.09 454.22,-197.09 462.71,-197.09"/>
<polygon fill="#63b8ff" stroke="#63b8ff" points="462.96,-200.59 472.96,-197.09 462.96,-193.59 462.96,-200.59"/>
</a>
</g>
</g>
<!-- Node19&#45;&gt;Node2 -->
<g id="edge20_Node000019_Node000002" class="edge">
<title>Node19&#45;&gt;Node2</title>
<g id="a_edge20_Node000019_Node000002"><a xlink:title=" ">
<path fill="none" stroke="#63b8ff" d="M590.31,-197.9C670.58,-198.88 820.34,-200.14 948,-198.09 956.29,-197.96 964.99,-197.76 973.6,-197.53"/>
<polygon fill="#63b8ff" stroke="#63b8ff" points="973.75,-201.02 983.65,-197.24 973.55,-194.03 973.75,-201.02"/>
</a>
</g>
</g>
<!-- Node19&#45;&gt;Node7 -->
<g id="edge21_Node000019_Node000007" class="edge">
<title>Node19&#45;&gt;Node7</title>
<g id="a_edge21_Node000019_Node000007"><a xlink:title=" ">
<path fill="none" stroke="#63b8ff" d="M590.02,-187.95C598.46,-186.61 607.23,-185.21 615.86,-183.84"/>
<polygon fill="#63b8ff" stroke="#63b8ff" points="616.57,-187.27 625.89,-182.25 615.47,-180.36 616.57,-187.27"/>
</a>
</g>
</g>
</g>
</svg>
