<?xml version="1.0" encoding="UTF-8" standalone="no"?>
<!DOCTYPE svg PUBLIC "-//W3C//DTD SVG 1.1//EN"
 "http://www.w3.org/Graphics/SVG/1.1/DTD/svg11.dtd">
<!-- Generated by graphviz version 2.43.0 (0)
 -->
<!-- Title: fl::third_party::vorbis::set_file_offset Pages: 1 -->
<svg width="832pt" height="262pt"
 viewBox="0.00 0.00 832.00 261.50" xmlns="http://www.w3.org/2000/svg" xmlns:xlink="http://www.w3.org/1999/xlink">
<g id="graph0" class="graph" transform="scale(1 1) rotate(0) translate(4 257.5)">
<title>fl::third_party::vorbis::set_file_offset</title>
<!-- Node1 -->
<g id="Node000001" class="node">
<title>Node1</title>
<g id="a_Node000001"><a xlink:title=" ">
<polygon fill="#999999" stroke="#666666" points="824,-145.5 707,-145.5 707,-115.5 824,-115.5 824,-145.5"/>
<text text-anchor="start" x="715" y="-133.5" font-family="Helvetica,sans-Serif" font-size="10.00">fl::third_party::vorbis</text>
<text text-anchor="middle" x="765.5" y="-122.5" font-family="Helvetica,sans-Serif" font-size="10.00">::set_file_offset</text>
</a>
</g>
</g>
<!-- Node2 -->
<g id="Node000002" class="node">
<title>Node2</title>
<g id="a_Node000002"><a xlink:href="../../d2/d59/namespacefl_1_1third__party_1_1vorbis_a1c8d8618fab8457b99ce8e9f3be0a8c9.html#a1c8d8618fab8457b99ce8e9f3be0a8c9" target="_top" xlink:title=" ">
<polygon fill="white" stroke="#666666" points="491.5,-253.5 371.5,-253.5 371.5,-223.5 491.5,-223.5 491.5,-253.5"/>
<text text-anchor="start" x="379.5" y="-241.5" font-family="Helvetica,sans-Serif" font-size="10.00">fl::third_party::vorbis</text>
<text text-anchor="middle" x="431.5" y="-230.5" font-family="Helvetica,sans-Serif" font-size="10.00">::get_seek_page_info</text>
</a>
</g>
</g>
<!-- Node1&#45;&gt;Node2 -->
<g id="edge1_Node000001_Node000002" class="edge">
<title>Node1&#45;&gt;Node2</title>
<g id="a_edge1_Node000001_Node000002"><a xlink:title=" ">
<path fill="none" stroke="#63b8ff" d="M744.89,-153.18C727.48,-171.66 700.32,-196.71 671,-209.5 613.65,-234.51 541.62,-240.17 491.81,-240.57"/>
<polygon fill="#63b8ff" stroke="#63b8ff" points="747.55,-155.45 751.73,-145.72 742.39,-150.72 747.55,-155.45"/>
</a>
</g>
</g>
<!-- Node3 -->
<g id="Node000003" class="node">
<title>Node3</title>
<g id="a_Node000003"><a xlink:href="../../d2/d59/namespacefl_1_1third__party_1_1vorbis_aabef7c5465fb0f7a822eac87119cea59.html#aabef7c5465fb0f7a822eac87119cea59" target="_top" xlink:title=" ">
<polygon fill="white" stroke="#666666" points="316.5,-148.5 176.5,-148.5 176.5,-118.5 316.5,-118.5 316.5,-148.5"/>
<text text-anchor="start" x="184.5" y="-136.5" font-family="Helvetica,sans-Serif" font-size="10.00">fl::third_party::vorbis</text>
<text text-anchor="middle" x="246.5" y="-125.5" font-family="Helvetica,sans-Serif" font-size="10.00">::seek_to_sample_coarse</text>
</a>
</g>
</g>
<!-- Node1&#45;&gt;Node3 -->
<g id="edge6_Node000001_Node000003" class="edge">
<title>Node1&#45;&gt;Node3</title>
<g id="a_edge6_Node000001_Node000003"><a xlink:title=" ">
<path fill="none" stroke="#63b8ff" d="M732.76,-150.65C715.28,-160.56 692.76,-171.44 671,-176.5 537.48,-207.57 375.1,-171.03 295.79,-148.56"/>
<polygon fill="#63b8ff" stroke="#63b8ff" points="734.55,-153.66 741.42,-145.59 731.02,-147.62 734.55,-153.66"/>
</a>
</g>
</g>
<!-- Node6 -->
<g id="Node000006" class="node">
<title>Node6</title>
<g id="a_Node000006"><a xlink:href="../../d2/d59/namespacefl_1_1third__party_1_1vorbis_afeb9079f6f9bd7ccd48bb617db15095e.html#afeb9079f6f9bd7ccd48bb617db15095e" target="_top" xlink:title=" ">
<polygon fill="white" stroke="#666666" points="490,-127.5 373,-127.5 373,-97.5 490,-97.5 490,-127.5"/>
<text text-anchor="start" x="381" y="-115.5" font-family="Helvetica,sans-Serif" font-size="10.00">fl::third_party::vorbis</text>
<text text-anchor="middle" x="431.5" y="-104.5" font-family="Helvetica,sans-Serif" font-size="10.00">::go_to_page_before</text>
</a>
</g>
</g>
<!-- Node1&#45;&gt;Node6 -->
<g id="edge4_Node000001_Node000006" class="edge">
<title>Node1&#45;&gt;Node6</title>
<g id="a_edge4_Node000001_Node000006"><a xlink:title=" ">
<path fill="none" stroke="#63b8ff" d="M696.41,-126.81C635.63,-123.51 547.61,-118.74 490.22,-115.63"/>
<polygon fill="#63b8ff" stroke="#63b8ff" points="696.5,-130.32 706.67,-127.36 696.87,-123.33 696.5,-130.32"/>
</a>
</g>
</g>
<!-- Node7 -->
<g id="Node000007" class="node">
<title>Node7</title>
<g id="a_Node000007"><a xlink:href="../../d2/d59/namespacefl_1_1third__party_1_1vorbis_a556c795acf481a17579ef4b0d6aac8cc.html#a556c795acf481a17579ef4b0d6aac8cc" target="_top" xlink:title=" ">
<polygon fill="white" stroke="#666666" points="671,-167.5 542,-167.5 542,-137.5 671,-137.5 671,-167.5"/>
<text text-anchor="start" x="550" y="-155.5" font-family="Helvetica,sans-Serif" font-size="10.00">fl::third_party::vorbis</text>
<text text-anchor="middle" x="606.5" y="-144.5" font-family="Helvetica,sans-Serif" font-size="10.00">::stb_vorbis_seek_start</text>
</a>
</g>
</g>
<!-- Node1&#45;&gt;Node7 -->
<g id="edge7_Node000001_Node000007" class="edge">
<title>Node1&#45;&gt;Node7</title>
<g id="a_edge7_Node000001_Node000007"><a xlink:title=" ">
<path fill="none" stroke="#63b8ff" d="M696.98,-139.96C688.41,-141.16 679.66,-142.39 671.15,-143.58"/>
<polygon fill="#63b8ff" stroke="#63b8ff" points="697.51,-143.42 706.93,-138.57 696.54,-136.49 697.51,-143.42"/>
</a>
</g>
</g>
<!-- Node8 -->
<g id="Node000008" class="node">
<title>Node8</title>
<g id="a_Node000008"><a xlink:href="../../d2/d59/namespacefl_1_1third__party_1_1vorbis_a651ecb450861148a1c7f342414fc71a1.html#a651ecb450861148a1c7f342414fc71a1" target="_top" xlink:title=" ">
<polygon fill="white" stroke="#666666" points="506,-41 357,-41 357,0 506,0 506,-41"/>
<text text-anchor="start" x="365" y="-29" font-family="Helvetica,sans-Serif" font-size="10.00">fl::third_party::vorbis</text>
<text text-anchor="start" x="365" y="-18" font-family="Helvetica,sans-Serif" font-size="10.00">::stb_vorbis_stream_length</text>
<text text-anchor="middle" x="431.5" y="-7" font-family="Helvetica,sans-Serif" font-size="10.00">_in_samples</text>
</a>
</g>
</g>
<!-- Node1&#45;&gt;Node8 -->
<g id="edge9_Node000001_Node000008" class="edge">
<title>Node1&#45;&gt;Node8</title>
<g id="a_edge9_Node000001_Node000008"><a xlink:title=" ">
<path fill="none" stroke="#63b8ff" d="M747.22,-107.08C730.33,-86.18 702.61,-56.75 671,-42.5 619.26,-19.17 554.89,-14.47 506.06,-15.16"/>
<polygon fill="#63b8ff" stroke="#63b8ff" points="744.63,-109.45 753.56,-115.16 750.14,-105.14 744.63,-109.45"/>
</a>
</g>
</g>
<!-- Node10 -->
<g id="Node000010" class="node">
<title>Node10</title>
<g id="a_Node000010"><a xlink:href="../../d2/d59/namespacefl_1_1third__party_1_1vorbis_a3949dc078eb1405eea56f9d9b30b207f.html#a3949dc078eb1405eea56f9d9b30b207f" target="_top" xlink:title=" ">
<polygon fill="white" stroke="#666666" points="665,-81.5 548,-81.5 548,-51.5 665,-51.5 665,-81.5"/>
<text text-anchor="start" x="556" y="-69.5" font-family="Helvetica,sans-Serif" font-size="10.00">fl::third_party::vorbis</text>
<text text-anchor="middle" x="606.5" y="-58.5" font-family="Helvetica,sans-Serif" font-size="10.00">::vorbis_find_page</text>
</a>
</g>
</g>
<!-- Node1&#45;&gt;Node10 -->
<g id="edge12_Node000001_Node000010" class="edge">
<title>Node1&#45;&gt;Node10</title>
<g id="a_edge12_Node000001_Node000010"><a xlink:title=" ">
<path fill="none" stroke="#63b8ff" d="M718.25,-111.64C694.68,-102.04 666.42,-90.52 644.35,-81.52"/>
<polygon fill="#63b8ff" stroke="#63b8ff" points="717.11,-114.96 727.69,-115.49 719.75,-108.48 717.11,-114.96"/>
</a>
</g>
</g>
<!-- Node2&#45;&gt;Node3 -->
<g id="edge2_Node000002_Node000003" class="edge">
<title>Node2&#45;&gt;Node3</title>
<g id="a_edge2_Node000002_Node000003"><a xlink:title=" ">
<path fill="none" stroke="#63b8ff" d="M377.75,-219.41C370.66,-216.34 363.57,-213.01 357,-209.5 323.33,-191.49 287.58,-165.12 266.41,-148.65"/>
<polygon fill="#63b8ff" stroke="#63b8ff" points="376.8,-222.8 387.38,-223.41 379.49,-216.34 376.8,-222.8"/>
</a>
</g>
</g>
<!-- Node4 -->
<g id="Node000004" class="node">
<title>Node4</title>
<g id="a_Node000004"><a xlink:href="../../d2/d59/namespacefl_1_1third__party_1_1vorbis_acc25538a006168e09502608a76565d01.html#acc25538a006168e09502608a76565d01" target="_top" xlink:title=" ">
<polygon fill="#fff0f0" stroke="red" points="136,-148.5 0,-148.5 0,-118.5 136,-118.5 136,-148.5"/>
<text text-anchor="start" x="8" y="-136.5" font-family="Helvetica,sans-Serif" font-size="10.00">fl::third_party::vorbis</text>
<text text-anchor="middle" x="68" y="-125.5" font-family="Helvetica,sans-Serif" font-size="10.00">::stb_vorbis_seek_frame</text>
</a>
</g>
</g>
<!-- Node3&#45;&gt;Node4 -->
<g id="edge3_Node000003_Node000004" class="edge">
<title>Node3&#45;&gt;Node4</title>
<g id="a_edge3_Node000003_Node000004"><a xlink:title=" ">
<path fill="none" stroke="#63b8ff" d="M166.23,-133.5C156.15,-133.5 145.9,-133.5 136.03,-133.5"/>
<polygon fill="#63b8ff" stroke="#63b8ff" points="166.25,-137 176.25,-133.5 166.25,-130 166.25,-137"/>
</a>
</g>
</g>
<!-- Node6&#45;&gt;Node3 -->
<g id="edge5_Node000006_Node000003" class="edge">
<title>Node6&#45;&gt;Node3</title>
<g id="a_edge5_Node000006_Node000003"><a xlink:title=" ">
<path fill="none" stroke="#63b8ff" d="M362.64,-120.29C347.66,-122.01 331.77,-123.83 316.73,-125.56"/>
<polygon fill="#63b8ff" stroke="#63b8ff" points="363.31,-123.73 372.85,-119.12 362.51,-116.78 363.31,-123.73"/>
</a>
</g>
</g>
<!-- Node7&#45;&gt;Node3 -->
<g id="edge8_Node000007_Node000003" class="edge">
<title>Node7&#45;&gt;Node3</title>
<g id="a_edge8_Node000007_Node000003"><a xlink:title=" ">
<path fill="none" stroke="#63b8ff" d="M531.63,-148.58C468.49,-145.23 378.33,-140.44 316.61,-137.17"/>
<polygon fill="#63b8ff" stroke="#63b8ff" points="531.74,-152.09 541.91,-149.13 532.11,-145.1 531.74,-152.09"/>
</a>
</g>
</g>
<!-- Node8&#45;&gt;Node3 -->
<g id="edge10_Node000008_Node000003" class="edge">
<title>Node8&#45;&gt;Node3</title>
<g id="a_edge10_Node000008_Node000003"><a xlink:title=" ">
<path fill="none" stroke="#63b8ff" d="M374.98,-45.65C368.83,-48.82 362.73,-52.13 357,-55.5 323.8,-75.02 287.91,-101.78 266.59,-118.34"/>
<polygon fill="#63b8ff" stroke="#63b8ff" points="376.62,-48.75 383.99,-41.14 373.48,-42.49 376.62,-48.75"/>
</a>
</g>
</g>
<!-- Node9 -->
<g id="Node000009" class="node">
<title>Node9</title>
<g id="a_Node000009"><a xlink:href="../../d2/d59/namespacefl_1_1third__party_1_1vorbis_a0e718bd2e75980c0a28c5ae70fa2a71e.html#a0e718bd2e75980c0a28c5ae70fa2a71e" target="_top" xlink:title=" ">
<polygon fill="white" stroke="#666666" points="321,-41 172,-41 172,0 321,0 321,-41"/>
<text text-anchor="start" x="180" y="-29" font-family="Helvetica,sans-Serif" font-size="10.00">fl::third_party::vorbis</text>
<text text-anchor="start" x="180" y="-18" font-family="Helvetica,sans-Serif" font-size="10.00">::stb_vorbis_stream_length</text>
<text text-anchor="middle" x="246.5" y="-7" font-family="Helvetica,sans-Serif" font-size="10.00">_in_seconds</text>
</a>
</g>
</g>
<!-- Node8&#45;&gt;Node9 -->
<g id="edge11_Node000008_Node000009" class="edge">
<title>Node8&#45;&gt;Node9</title>
<g id="a_edge11_Node000008_Node000009"><a xlink:title=" ">
<path fill="none" stroke="#63b8ff" d="M346.61,-20.5C338.16,-20.5 329.62,-20.5 321.29,-20.5"/>
<polygon fill="#63b8ff" stroke="#63b8ff" points="346.86,-24 356.86,-20.5 346.86,-17 346.86,-24"/>
</a>
</g>
</g>
<!-- Node10&#45;&gt;Node3 -->
<g id="edge14_Node000010_Node000003" class="edge">
<title>Node10&#45;&gt;Node3</title>
<g id="a_edge14_Node000010_Node000003"><a xlink:title=" ">
<path fill="none" stroke="#63b8ff" d="M537.81,-67.01C487.34,-68.71 417.03,-73.87 357,-88.5 329.04,-95.31 298.92,-108.13 277.35,-118.35"/>
<polygon fill="#63b8ff" stroke="#63b8ff" points="538.06,-70.51 547.95,-66.71 537.85,-63.51 538.06,-70.51"/>
</a>
</g>
</g>
<!-- Node10&#45;&gt;Node6 -->
<g id="edge13_Node000010_Node000006" class="edge">
<title>Node10&#45;&gt;Node6</title>
<g id="a_edge13_Node000010_Node000006"><a xlink:title=" ">
<path fill="none" stroke="#63b8ff" d="M538.77,-84.24C522.33,-88.61 504.88,-93.25 488.98,-97.48"/>
<polygon fill="#63b8ff" stroke="#63b8ff" points="540.09,-87.51 548.85,-81.56 538.29,-80.75 540.09,-87.51"/>
</a>
</g>
</g>
<!-- Node10&#45;&gt;Node8 -->
<g id="edge15_Node000010_Node000008" class="edge">
<title>Node10&#45;&gt;Node8</title>
<g id="a_edge15_Node000010_Node000008"><a xlink:title=" ">
<path fill="none" stroke="#63b8ff" d="M539.13,-48.85C528.38,-45.99 517.19,-43.02 506.28,-40.12"/>
<polygon fill="#63b8ff" stroke="#63b8ff" points="538.29,-52.25 548.85,-51.44 540.09,-45.49 538.29,-52.25"/>
</a>
</g>
</g>
</g>
</svg>
