<?xml version="1.0" encoding="UTF-8" standalone="no"?>
<!DOCTYPE svg PUBLIC "-//W3C//DTD SVG 1.1//EN"
 "http://www.w3.org/Graphics/SVG/1.1/DTD/svg11.dtd">
<!-- Generated by graphviz version 2.43.0 (0)
 -->
<!-- Title: fl::third_party::vorbis::flush_packet Pages: 1 -->
<svg width="1058pt" height="290pt"
 viewBox="0.00 0.00 1058.00 290.00" xmlns="http://www.w3.org/2000/svg" xmlns:xlink="http://www.w3.org/1999/xlink">
<g id="graph0" class="graph" transform="scale(1 1) rotate(0) translate(4 286)">
<title>fl::third_party::vorbis::flush_packet</title>
<!-- Node1 -->
<g id="Node000001" class="node">
<title>Node1</title>
<g id="a_Node000001"><a xlink:title=" ">
<polygon fill="#999999" stroke="#666666" points="1050,-133 933,-133 933,-103 1050,-103 1050,-133"/>
<text text-anchor="start" x="941" y="-121" font-family="Helvetica,sans-Serif" font-size="10.00">fl::third_party::vorbis</text>
<text text-anchor="middle" x="991.5" y="-110" font-family="Helvetica,sans-Serif" font-size="10.00">::flush_packet</text>
</a>
</g>
</g>
<!-- Node2 -->
<g id="Node000002" class="node">
<title>Node2</title>
<g id="a_Node000002"><a xlink:href="../../d2/d59/namespacefl_1_1third__party_1_1vorbis_ab0378c0ee05eb1d0e59a6e72b4e011f7.html#ab0378c0ee05eb1d0e59a6e72b4e011f7" target="_top" xlink:title=" ">
<polygon fill="white" stroke="#666666" points="520,-227 403,-227 403,-197 520,-197 520,-227"/>
<text text-anchor="start" x="411" y="-215" font-family="Helvetica,sans-Serif" font-size="10.00">fl::third_party::vorbis</text>
<text text-anchor="middle" x="461.5" y="-204" font-family="Helvetica,sans-Serif" font-size="10.00">::start_decoder</text>
</a>
</g>
</g>
<!-- Node1&#45;&gt;Node2 -->
<g id="edge1_Node000001_Node000002" class="edge">
<title>Node1&#45;&gt;Node2</title>
<g id="a_edge1_Node000001_Node000002"><a xlink:title=" ">
<path fill="none" stroke="#63b8ff" d="M922.85,-130.04C818.16,-148.68 618.73,-184.19 520.34,-201.7"/>
<polygon fill="#63b8ff" stroke="#63b8ff" points="923.76,-133.44 932.99,-128.24 922.53,-126.55 923.76,-133.44"/>
</a>
</g>
</g>
<!-- Node10 -->
<g id="Node000010" class="node">
<title>Node10</title>
<g id="a_Node000010"><a xlink:href="../../d2/d59/namespacefl_1_1third__party_1_1vorbis_acc25538a006168e09502608a76565d01.html#acc25538a006168e09502608a76565d01" target="_top" xlink:title=" ">
<polygon fill="white" stroke="#666666" points="340,-126 204,-126 204,-96 340,-96 340,-126"/>
<text text-anchor="start" x="212" y="-114" font-family="Helvetica,sans-Serif" font-size="10.00">fl::third_party::vorbis</text>
<text text-anchor="middle" x="272" y="-103" font-family="Helvetica,sans-Serif" font-size="10.00">::stb_vorbis_seek_frame</text>
</a>
</g>
</g>
<!-- Node1&#45;&gt;Node10 -->
<g id="edge7_Node000001_Node000010" class="edge">
<title>Node1&#45;&gt;Node10</title>
<g id="a_edge7_Node000001_Node000010"><a xlink:title=" ">
<path fill="none" stroke="#63b8ff" d="M922.63,-117.34C785.43,-116 476.59,-112.99 340.06,-111.65"/>
<polygon fill="#63b8ff" stroke="#63b8ff" points="922.96,-120.84 933,-117.44 923.03,-113.84 922.96,-120.84"/>
</a>
</g>
</g>
<!-- Node12 -->
<g id="Node000012" class="node">
<title>Node12</title>
<g id="a_Node000012"><a xlink:href="../../d2/d59/namespacefl_1_1third__party_1_1vorbis_a15aa411cf208df7f61bf2ebdc6555a94.html#a15aa411cf208df7f61bf2ebdc6555a94" target="_top" xlink:title=" ">
<polygon fill="white" stroke="#666666" points="897,-90 742,-90 742,-60 897,-60 897,-90"/>
<text text-anchor="start" x="750" y="-78" font-family="Helvetica,sans-Serif" font-size="10.00">fl::third_party::vorbis</text>
<text text-anchor="middle" x="819.5" y="-67" font-family="Helvetica,sans-Serif" font-size="10.00">::vorbis_decode_packet_rest</text>
</a>
</g>
</g>
<!-- Node1&#45;&gt;Node12 -->
<g id="edge9_Node000001_Node000012" class="edge">
<title>Node1&#45;&gt;Node12</title>
<g id="a_edge9_Node000001_Node000012"><a xlink:title=" ">
<path fill="none" stroke="#63b8ff" d="M923.2,-100.98C908.94,-97.37 893.98,-93.59 880.02,-90.06"/>
<polygon fill="#63b8ff" stroke="#63b8ff" points="922.39,-104.38 932.95,-103.44 924.11,-97.6 922.39,-104.38"/>
</a>
</g>
</g>
<!-- Node3 -->
<g id="Node000003" class="node">
<title>Node3</title>
<g id="a_Node000003"><a xlink:href="../../d2/d59/namespacefl_1_1third__party_1_1vorbis_a7f4b0e4e9211077bba5d5c9ed1431260.html#a7f4b0e4e9211077bba5d5c9ed1431260" target="_top" xlink:title=" ">
<polygon fill="white" stroke="#666666" points="333,-233.5 211,-233.5 211,-192.5 333,-192.5 333,-233.5"/>
<text text-anchor="start" x="219" y="-221.5" font-family="Helvetica,sans-Serif" font-size="10.00">fl::third_party::vorbis</text>
<text text-anchor="start" x="219" y="-210.5" font-family="Helvetica,sans-Serif" font-size="10.00">::stb_vorbis_open_file</text>
<text text-anchor="middle" x="272" y="-199.5" font-family="Helvetica,sans-Serif" font-size="10.00">_section</text>
</a>
</g>
</g>
<!-- Node2&#45;&gt;Node3 -->
<g id="edge2_Node000002_Node000003" class="edge">
<title>Node2&#45;&gt;Node3</title>
<g id="a_edge2_Node000002_Node000003"><a xlink:title=" ">
<path fill="none" stroke="#63b8ff" d="M392.9,-212.36C373.33,-212.46 352.1,-212.58 333.02,-212.68"/>
<polygon fill="#63b8ff" stroke="#63b8ff" points="392.99,-215.86 402.97,-212.31 392.95,-208.86 392.99,-215.86"/>
</a>
</g>
</g>
<!-- Node7 -->
<g id="Node000007" class="node">
<title>Node7</title>
<g id="a_Node000007"><a xlink:href="../../d2/d59/namespacefl_1_1third__party_1_1vorbis_a809362223b0baeed163eeefb500b2b0c.html#a809362223b0baeed163eeefb500b2b0c" target="_top" xlink:title=" ">
<polygon fill="white" stroke="#666666" points="346.5,-174 197.5,-174 197.5,-144 346.5,-144 346.5,-174"/>
<text text-anchor="start" x="205.5" y="-162" font-family="Helvetica,sans-Serif" font-size="10.00">fl::third_party::vorbis</text>
<text text-anchor="middle" x="272" y="-151" font-family="Helvetica,sans-Serif" font-size="10.00">::stb_vorbis_open_memory</text>
</a>
</g>
</g>
<!-- Node2&#45;&gt;Node7 -->
<g id="edge4_Node000002_Node000007" class="edge">
<title>Node2&#45;&gt;Node7</title>
<g id="a_edge4_Node000002_Node000007"><a xlink:title=" ">
<path fill="none" stroke="#63b8ff" d="M397.56,-194.21C374.46,-187.68 348.54,-180.35 326.36,-174.08"/>
<polygon fill="#63b8ff" stroke="#63b8ff" points="396.7,-197.6 407.27,-196.95 398.6,-190.87 396.7,-197.6"/>
</a>
</g>
</g>
<!-- Node9 -->
<g id="Node000009" class="node">
<title>Node9</title>
<g id="a_Node000009"><a xlink:href="../../d2/d59/namespacefl_1_1third__party_1_1vorbis_a5a66b2e53bb7c21f0299bbd20c0f66df.html#a5a66b2e53bb7c21f0299bbd20c0f66df" target="_top" xlink:title=" ">
<polygon fill="white" stroke="#666666" points="348,-282 196,-282 196,-252 348,-252 348,-282"/>
<text text-anchor="start" x="204" y="-270" font-family="Helvetica,sans-Serif" font-size="10.00">fl::third_party::vorbis</text>
<text text-anchor="middle" x="272" y="-259" font-family="Helvetica,sans-Serif" font-size="10.00">::stb_vorbis_open_pushdata</text>
</a>
</g>
</g>
<!-- Node2&#45;&gt;Node9 -->
<g id="edge6_Node000002_Node000009" class="edge">
<title>Node2&#45;&gt;Node9</title>
<g id="a_edge6_Node000002_Node000009"><a xlink:title=" ">
<path fill="none" stroke="#63b8ff" d="M399.42,-229.92C375.1,-237.05 347.42,-245.17 324.17,-251.99"/>
<polygon fill="#63b8ff" stroke="#63b8ff" points="400.65,-233.2 409.26,-227.03 398.68,-226.49 400.65,-233.2"/>
</a>
</g>
</g>
<!-- Node4 -->
<g id="Node000004" class="node">
<title>Node4</title>
<g id="a_Node000004"><a xlink:href="../../d2/d59/namespacefl_1_1third__party_1_1vorbis_adf90d9af5d92a1e500007ccb2646c4bf.html#adf90d9af5d92a1e500007ccb2646c4bf" target="_top" xlink:title=" ">
<polygon fill="#fff0f0" stroke="red" points="141,-228 19,-228 19,-198 141,-198 141,-228"/>
<text text-anchor="start" x="27" y="-216" font-family="Helvetica,sans-Serif" font-size="10.00">fl::third_party::vorbis</text>
<text text-anchor="middle" x="80" y="-205" font-family="Helvetica,sans-Serif" font-size="10.00">::stb_vorbis_open_file</text>
</a>
</g>
</g>
<!-- Node3&#45;&gt;Node4 -->
<g id="edge3_Node000003_Node000004" class="edge">
<title>Node3&#45;&gt;Node4</title>
<g id="a_edge3_Node000003_Node000004"><a xlink:title=" ">
<path fill="none" stroke="#63b8ff" d="M200.78,-213C181.16,-213 160.03,-213 141.05,-213"/>
<polygon fill="#63b8ff" stroke="#63b8ff" points="200.88,-216.5 210.88,-213 200.88,-209.5 200.88,-216.5"/>
</a>
</g>
</g>
<!-- Node8 -->
<g id="Node000008" class="node">
<title>Node8</title>
<g id="a_Node000008"><a xlink:href="../../d2/d59/namespacefl_1_1third__party_1_1vorbis_af955059708f848a575ff7699cf831d99.html#af955059708f848a575ff7699cf831d99" target="_top" xlink:title=" ">
<polygon fill="white" stroke="#666666" points="160,-174 0,-174 0,-144 160,-144 160,-174"/>
<text text-anchor="start" x="8" y="-162" font-family="Helvetica,sans-Serif" font-size="10.00">fl::third_party::vorbis</text>
<text text-anchor="middle" x="80" y="-151" font-family="Helvetica,sans-Serif" font-size="10.00">::stb_vorbis_decode_memory</text>
</a>
</g>
</g>
<!-- Node7&#45;&gt;Node8 -->
<g id="edge5_Node000007_Node000008" class="edge">
<title>Node7&#45;&gt;Node8</title>
<g id="a_edge5_Node000007_Node000008"><a xlink:title=" ">
<path fill="none" stroke="#63b8ff" d="M187.16,-159C178.15,-159 169,-159 160.04,-159"/>
<polygon fill="#63b8ff" stroke="#63b8ff" points="187.27,-162.5 197.27,-159 187.27,-155.5 187.27,-162.5"/>
</a>
</g>
</g>
<!-- Node11 -->
<g id="Node000011" class="node">
<title>Node11</title>
<g id="a_Node000011"><a xlink:href="../../d2/d59/namespacefl_1_1third__party_1_1vorbis_a57cd87e6c849a39170e842785bec8c20.html#a57cd87e6c849a39170e842785bec8c20" target="_top" xlink:title=" ">
<polygon fill="white" stroke="#666666" points="138.5,-105 21.5,-105 21.5,-75 138.5,-75 138.5,-105"/>
<text text-anchor="start" x="29.5" y="-93" font-family="Helvetica,sans-Serif" font-size="10.00">fl::third_party::vorbis</text>
<text text-anchor="middle" x="80" y="-82" font-family="Helvetica,sans-Serif" font-size="10.00">::stb_vorbis_seek</text>
</a>
</g>
</g>
<!-- Node10&#45;&gt;Node11 -->
<g id="edge8_Node000010_Node000011" class="edge">
<title>Node10&#45;&gt;Node11</title>
<g id="a_edge8_Node000010_Node000011"><a xlink:title=" ">
<path fill="none" stroke="#63b8ff" d="M193.66,-102.45C175.3,-100.42 156.02,-98.29 138.71,-96.38"/>
<polygon fill="#63b8ff" stroke="#63b8ff" points="193.42,-105.95 203.75,-103.57 194.19,-98.99 193.42,-105.95"/>
</a>
</g>
</g>
<!-- Node13 -->
<g id="Node000013" class="node">
<title>Node13</title>
<g id="a_Node000013"><a xlink:href="../../d2/d59/namespacefl_1_1third__party_1_1vorbis_a7db6b09a88e147aae04c098a9a6c770b.html#a7db6b09a88e147aae04c098a9a6c770b" target="_top" xlink:title=" ">
<polygon fill="white" stroke="#666666" points="706,-87 575,-87 575,-57 706,-57 706,-87"/>
<text text-anchor="start" x="583" y="-75" font-family="Helvetica,sans-Serif" font-size="10.00">fl::third_party::vorbis</text>
<text text-anchor="middle" x="640.5" y="-64" font-family="Helvetica,sans-Serif" font-size="10.00">::vorbis_decode_packet</text>
</a>
</g>
</g>
<!-- Node12&#45;&gt;Node13 -->
<g id="edge10_Node000012_Node000013" class="edge">
<title>Node12&#45;&gt;Node13</title>
<g id="a_edge10_Node000012_Node000013"><a xlink:title=" ">
<path fill="none" stroke="#63b8ff" d="M731.75,-73.53C723.09,-73.38 714.4,-73.24 706.03,-73.09"/>
<polygon fill="#63b8ff" stroke="#63b8ff" points="731.84,-77.03 741.89,-73.7 731.96,-70.03 731.84,-77.03"/>
</a>
</g>
</g>
<!-- Node14 -->
<g id="Node000014" class="node">
<title>Node14</title>
<g id="a_Node000014"><a xlink:href="../../d2/d59/namespacefl_1_1third__party_1_1vorbis_a96f72e92c74aa0ba648f1664fcf75729.html#a96f72e92c74aa0ba648f1664fcf75729" target="_top" xlink:title=" ">
<polygon fill="white" stroke="#666666" points="535.5,-89.5 387.5,-89.5 387.5,-48.5 535.5,-48.5 535.5,-89.5"/>
<text text-anchor="start" x="395.5" y="-77.5" font-family="Helvetica,sans-Serif" font-size="10.00">fl::third_party::vorbis</text>
<text text-anchor="start" x="395.5" y="-66.5" font-family="Helvetica,sans-Serif" font-size="10.00">::stb_vorbis_decode_frame</text>
<text text-anchor="middle" x="461.5" y="-55.5" font-family="Helvetica,sans-Serif" font-size="10.00">_pushdata</text>
</a>
</g>
</g>
<!-- Node13&#45;&gt;Node14 -->
<g id="edge11_Node000013_Node000014" class="edge">
<title>Node13&#45;&gt;Node14</title>
<g id="a_edge11_Node000013_Node000014"><a xlink:title=" ">
<path fill="none" stroke="#63b8ff" d="M564.57,-70.73C554.99,-70.57 545.2,-70.4 535.66,-70.24"/>
<polygon fill="#63b8ff" stroke="#63b8ff" points="564.79,-74.23 574.85,-70.9 564.91,-67.24 564.79,-74.23"/>
</a>
</g>
</g>
<!-- Node15 -->
<g id="Node000015" class="node">
<title>Node15</title>
<g id="a_Node000015"><a xlink:href="../../d2/d59/namespacefl_1_1third__party_1_1vorbis_a5a2442d84b370143f16d0e7ac829ebe2.html#a5a2442d84b370143f16d0e7ac829ebe2" target="_top" xlink:title=" ">
<polygon fill="#fff0f0" stroke="red" points="539,-30 384,-30 384,0 539,0 539,-30"/>
<text text-anchor="start" x="392" y="-18" font-family="Helvetica,sans-Serif" font-size="10.00">fl::third_party::vorbis</text>
<text text-anchor="middle" x="461.5" y="-7" font-family="Helvetica,sans-Serif" font-size="10.00">::stb_vorbis_get_frame_float</text>
</a>
</g>
</g>
<!-- Node13&#45;&gt;Node15 -->
<g id="edge12_Node000013_Node000015" class="edge">
<title>Node13&#45;&gt;Node15</title>
<g id="a_edge12_Node000013_Node000015"><a xlink:title=" ">
<path fill="none" stroke="#63b8ff" d="M584.51,-53.8C569.74,-48.95 553.77,-43.74 539,-39 529.86,-36.06 520.08,-32.97 510.68,-30.01"/>
<polygon fill="#63b8ff" stroke="#63b8ff" points="583.42,-57.12 594.01,-56.92 585.61,-50.47 583.42,-57.12"/>
</a>
</g>
</g>
<!-- Node22 -->
<g id="Node000022" class="node">
<title>Node22</title>
<g id="a_Node000022"><a xlink:href="../../d2/d59/namespacefl_1_1third__party_1_1vorbis_a2904e015b772ead82d14a942fda42ab4.html#a2904e015b772ead82d14a942fda42ab4" target="_top" xlink:title=" ">
<polygon fill="#fff0f0" stroke="red" points="533.5,-176 389.5,-176 389.5,-146 533.5,-146 533.5,-176"/>
<text text-anchor="start" x="397.5" y="-164" font-family="Helvetica,sans-Serif" font-size="10.00">fl::third_party::vorbis</text>
<text text-anchor="middle" x="461.5" y="-153" font-family="Helvetica,sans-Serif" font-size="10.00">::vorbis_pump_first_frame</text>
</a>
</g>
</g>
<!-- Node13&#45;&gt;Node22 -->
<g id="edge14_Node000013_Node000022" class="edge">
<title>Node13&#45;&gt;Node22</title>
<g id="a_edge14_Node000013_Node000022"><a xlink:title=" ">
<path fill="none" stroke="#63b8ff" d="M600.24,-91.74C567.66,-108.12 522.04,-131.06 492.38,-145.98"/>
<polygon fill="#63b8ff" stroke="#63b8ff" points="602.11,-94.72 609.47,-87.1 598.97,-88.46 602.11,-94.72"/>
</a>
</g>
</g>
<!-- Node15&#45;&gt;Node11 -->
<g id="edge13_Node000015_Node000011" class="edge">
<title>Node15&#45;&gt;Node11</title>
<g id="a_edge13_Node000015_Node000011"><a xlink:title=" ">
<path fill="none" stroke="#63b8ff" d="M374.18,-32.06C302.08,-46.31 201.3,-66.23 138.65,-78.61"/>
<polygon fill="#63b8ff" stroke="#63b8ff" points="375.03,-35.46 384.16,-30.09 373.67,-28.59 375.03,-35.46"/>
</a>
</g>
</g>
<!-- Node22&#45;&gt;Node3 -->
<g id="edge15_Node000022_Node000003" class="edge">
<title>Node22&#45;&gt;Node3</title>
<g id="a_edge15_Node000022_Node000003"><a xlink:title=" ">
<path fill="none" stroke="#63b8ff" d="M396.38,-178.78C375.87,-184.47 353.24,-190.75 333.03,-196.35"/>
<polygon fill="#63b8ff" stroke="#63b8ff" points="397.57,-182.09 406.27,-176.04 395.7,-175.34 397.57,-182.09"/>
</a>
</g>
</g>
<!-- Node22&#45;&gt;Node7 -->
<g id="edge16_Node000022_Node000007" class="edge">
<title>Node22&#45;&gt;Node7</title>
<g id="a_edge16_Node000022_Node000007"><a xlink:title=" ">
<path fill="none" stroke="#63b8ff" d="M379.08,-160.13C368.28,-160.02 357.26,-159.9 346.6,-159.79"/>
<polygon fill="#63b8ff" stroke="#63b8ff" points="379.31,-163.63 389.35,-160.24 379.38,-156.63 379.31,-163.63"/>
</a>
</g>
</g>
<!-- Node22&#45;&gt;Node10 -->
<g id="edge17_Node000022_Node000010" class="edge">
<title>Node22&#45;&gt;Node10</title>
<g id="a_edge17_Node000022_Node000010"><a xlink:title=" ">
<path fill="none" stroke="#63b8ff" d="M394.36,-143.36C373.19,-137.72 349.96,-131.52 329.54,-126.08"/>
<polygon fill="#63b8ff" stroke="#63b8ff" points="393.68,-146.8 404.24,-146 395.48,-140.04 393.68,-146.8"/>
</a>
</g>
</g>
</g>
</svg>
