<?xml version="1.0" encoding="UTF-8" standalone="no"?>
<!DOCTYPE svg PUBLIC "-//W3C//DTD SVG 1.1//EN"
 "http://www.w3.org/Graphics/SVG/1.1/DTD/svg11.dtd">
<!-- Generated by graphviz version 2.43.0 (0)
 -->
<!-- Title: fl::third_party::vorbis::stb_vorbis_open_file Pages: 1 -->
<svg width="513pt" height="38pt"
 viewBox="0.00 0.00 513.00 38.00" xmlns="http://www.w3.org/2000/svg" xmlns:xlink="http://www.w3.org/1999/xlink">
<g id="graph0" class="graph" transform="scale(1 1) rotate(0) translate(4 34)">
<title>fl::third_party::vorbis::stb_vorbis_open_file</title>
<!-- Node1 -->
<g id="Node000001" class="node">
<title>Node1</title>
<g id="a_Node000001"><a xlink:title=" ">
<polygon fill="#999999" stroke="#666666" points="505,-30 383,-30 383,0 505,0 505,-30"/>
<text text-anchor="start" x="391" y="-18" font-family="Helvetica,sans-Serif" font-size="10.00">fl::third_party::vorbis</text>
<text text-anchor="middle" x="444" y="-7" font-family="Helvetica,sans-Serif" font-size="10.00">::stb_vorbis_open_file</text>
</a>
</g>
</g>
<!-- Node2 -->
<g id="Node000002" class="node">
<title>Node2</title>
<g id="a_Node000002"><a xlink:href="../../d2/d59/namespacefl_1_1third__party_1_1vorbis_a2e0056c543517307cf14ec74a14a0f8f.html#a2e0056c543517307cf14ec74a14a0f8f" target="_top" xlink:title=" ">
<polygon fill="white" stroke="#666666" points="347,-30 197,-30 197,0 347,0 347,-30"/>
<text text-anchor="start" x="205" y="-18" font-family="Helvetica,sans-Serif" font-size="10.00">fl::third_party::vorbis</text>
<text text-anchor="middle" x="272" y="-7" font-family="Helvetica,sans-Serif" font-size="10.00">::stb_vorbis_open_filename</text>
</a>
</g>
</g>
<!-- Node1&#45;&gt;Node2 -->
<g id="edge1_Node000001_Node000002" class="edge">
<title>Node1&#45;&gt;Node2</title>
<g id="a_edge1_Node000001_Node000002"><a xlink:title=" ">
<path fill="none" stroke="#63b8ff" d="M372.51,-15C364.16,-15 355.61,-15 347.21,-15"/>
<polygon fill="#63b8ff" stroke="#63b8ff" points="372.59,-18.5 382.59,-15 372.59,-11.5 372.59,-18.5"/>
</a>
</g>
</g>
<!-- Node3 -->
<g id="Node000003" class="node">
<title>Node3</title>
<g id="a_Node000003"><a xlink:href="../../d2/d59/namespacefl_1_1third__party_1_1vorbis_a8b3f9859a51ffdd92598d45797fdbdc8.html#a8b3f9859a51ffdd92598d45797fdbdc8" target="_top" xlink:title=" ">
<polygon fill="white" stroke="#666666" points="161,-30 0,-30 0,0 161,0 161,-30"/>
<text text-anchor="start" x="8" y="-18" font-family="Helvetica,sans-Serif" font-size="10.00">fl::third_party::vorbis</text>
<text text-anchor="middle" x="80.5" y="-7" font-family="Helvetica,sans-Serif" font-size="10.00">::stb_vorbis_decode_filename</text>
</a>
</g>
</g>
<!-- Node2&#45;&gt;Node3 -->
<g id="edge2_Node000002_Node000003" class="edge">
<title>Node2&#45;&gt;Node3</title>
<g id="a_edge2_Node000002_Node000003"><a xlink:title=" ">
<path fill="none" stroke="#63b8ff" d="M186.66,-15C178.18,-15 169.59,-15 161.16,-15"/>
<polygon fill="#63b8ff" stroke="#63b8ff" points="186.92,-18.5 196.92,-15 186.92,-11.5 186.92,-18.5"/>
</a>
</g>
</g>
</g>
</svg>
