<?xml version="1.0" encoding="UTF-8" standalone="no"?>
<!DOCTYPE svg PUBLIC "-//W3C//DTD SVG 1.1//EN"
 "http://www.w3.org/Graphics/SVG/1.1/DTD/svg11.dtd">
<!-- Generated by graphviz version 2.43.0 (0)
 -->
<!-- Title: Key::Update Pages: 1 -->
<!--zoomable 152 -->

<svg id="main" version="1.1" xmlns="http://www.w3.org/2000/svg" xmlns:xlink="http://www.w3.org/1999/xlink" xml:space="preserve" onload="init(evt)">

<style type="text/css"><![CDATA[
.node, .edge {opacity: 0.7;}
.node.selected, .edge.selected {opacity: 1;}
.edge:hover path { stroke: red; }
.edge:hover polygon { stroke: red; fill: red; }
]]></style>

<defs>
  <circle id="rim" cx="0" cy="0" r="7"/>
  <circle id="rim2" cx="0" cy="0" r="3.5"/>
  <g id="zoomPlus">
    <use xlink:href="#rim" fill="#404040"><set attributeName="fill" to="#808080" begin="zoomplus.mouseover" end="zoomplus.mouseout"/></use>
    <path d="M-4,0h8M0,-4v8" fill="none" stroke="white" stroke-width="1.5" pointer-events="none"/>
  </g>
  <g id="zoomMin">
    <use xlink:href="#rim" fill="#404040"><set attributeName="fill" to="#808080" begin="zoomminus.mouseover" end="zoomminus.mouseout"/></use>
    <path d="M-4,0h8" fill="none" stroke="white" stroke-width="1.5" pointer-events="none"/>
  </g>
  <g id="arrowUp" transform="translate(30 24)">
    <use xlink:href="#rim"/>
    <path pointer-events="none" fill="none" stroke="white" stroke-width="1.5" d="M0,-3.0v7 M-2.5,-0.5L0,-3.0L2.5,-0.5"/>
  </g>
  <g id="arrowRight" transform="rotate(90) translate(36 -43)">
    <use xlink:href="#rim"/>
    <path pointer-events="none" fill="none" stroke="white" stroke-width="1.5" d="M0,-3.0v7 M-2.5,-0.5L0,-3.0L2.5,-0.5"/>
  </g>
  <g id="arrowDown" transform="rotate(180) translate(-30 -48)">
    <use xlink:href="#rim"/>
    <path pointer-events="none" fill="none" stroke="white" stroke-width="1.5" d="M0,-3.0v7 M-2.5,-0.5L0,-3.0L2.5,-0.5"/>
  </g>
  <g id="arrowLeft" transform="rotate(270) translate(-36 17)">
    <use xlink:href="#rim"/>
    <path pointer-events="none" fill="none" stroke="white" stroke-width="1.5" d="M0,-3.0v7 M-2.5,-0.5L0,-3.0L2.5,-0.5"/>
  </g>
  <g id="resetDef">
    <use xlink:href="#rim2" fill="#404040"><set attributeName="fill" to="#808080" begin="reset.mouseover" end="reset.mouseout"/></use>
  </g>
</defs>
<script type="application/ecmascript">
var viewWidth = 569;
var viewHeight = 152;
var sectionId = 'dynsection-0';
</script>
<script type="application/ecmascript" xlink:href="../../svg.min.js"/>
<svg id="graph" class="graph">
<g id="viewport">
<title>Key::Update</title>
<!-- Node1 -->
<g id="Node000001" class="node">
<title>Node1</title>
<g id="a_Node000001"><a xlink:title=" ">
<polygon fill="#999999" stroke="#666666" points="75,-106 0,-106 0,-87 75,-87 75,-106"/>
<text text-anchor="middle" x="37.5" y="-94" font-family="Helvetica,sans-Serif" font-size="10.00">Key::Update</text>
</a>
</g>
</g>
<!-- Node2 -->
<g id="Node000002" class="node">
<title>Node2</title>
<g id="a_Node000002"><a xlink:href="../../db/d42/struct_key_a03534d492ab55aa8e9c24165e76b4356.html#a03534d492ab55aa8e9c24165e76b4356" target="_top" xlink:title=" ">
<polygon fill="white" stroke="#666666" points="205,-125 135,-125 135,-106 205,-106 205,-125"/>
<text text-anchor="middle" x="170" y="-113" font-family="Helvetica,sans-Serif" font-size="10.00">Key::SetOff</text>
</a>
</g>
</g>
<!-- Node1&#45;&gt;Node2 -->
<g id="edge1_Node000001_Node000002" class="edge">
<title>Node1&#45;&gt;Node2</title>
<g id="a_edge1_Node000001_Node000002"><a xlink:title=" ">
<path fill="none" stroke="#63b8ff" d="M75.2,-101.84C90.54,-104.08 108.49,-106.69 124.57,-109.03"/>
<polygon fill="#63b8ff" stroke="#63b8ff" points="124.41,-112.55 134.81,-110.52 125.42,-105.62 124.41,-112.55"/>
</a>
</g>
</g>
<!-- Node3 -->
<g id="Node000003" class="node">
<title>Node3</title>
<g id="a_Node000003"><a xlink:href="../../db/d42/struct_key_af13ad91740bfcfc76380b4684a2668c1.html#af13ad91740bfcfc76380b4684a2668c1" target="_top" xlink:title=" ">
<polygon fill="white" stroke="#666666" points="229,-88 111,-88 111,-69 229,-69 229,-88"/>
<text text-anchor="middle" x="170" y="-76" font-family="Helvetica,sans-Serif" font-size="10.00">Key::UpdateIntensity</text>
</a>
</g>
</g>
<!-- Node1&#45;&gt;Node3 -->
<g id="edge2_Node000001_Node000003" class="edge">
<title>Node1&#45;&gt;Node3</title>
<g id="a_edge2_Node000001_Node000003"><a xlink:title=" ">
<path fill="none" stroke="#63b8ff" d="M75.2,-91.44C83.2,-90.34 91.91,-89.13 100.69,-87.92"/>
<polygon fill="#63b8ff" stroke="#63b8ff" points="101.18,-91.39 110.6,-86.55 100.22,-84.45 101.18,-91.39"/>
</a>
</g>
</g>
<!-- Node4 -->
<g id="Node000004" class="node">
<title>Node4</title>
<g id="a_Node000004"><a xlink:href="../../db/d42/struct_key_a7f137c239dd54c73259f0df8731b5164.html#a7f137c239dd54c73259f0df8731b5164" target="_top" xlink:title=" ">
<polygon fill="white" stroke="#666666" points="408.5,-144 273.5,-144 273.5,-125 408.5,-125 408.5,-144"/>
<text text-anchor="middle" x="341" y="-132" font-family="Helvetica,sans-Serif" font-size="10.00">Key::AttackRemapFactor</text>
</a>
</g>
</g>
<!-- Node3&#45;&gt;Node4 -->
<g id="edge3_Node000003_Node000004" class="edge">
<title>Node3&#45;&gt;Node4</title>
<g id="a_edge3_Node000003_Node000004"><a xlink:title=" ">
<path fill="none" stroke="#63b8ff" d="M203.57,-88.1C211.96,-90.86 220.9,-94.07 229,-97.5 245.66,-104.56 248.07,-110.12 265,-116.5 270.54,-118.59 276.4,-120.49 282.31,-122.21"/>
<polygon fill="#63b8ff" stroke="#63b8ff" points="281.68,-125.67 292.25,-124.94 283.53,-118.92 281.68,-125.67"/>
</a>
</g>
</g>
<!-- Node5 -->
<g id="Node000005" class="node">
<title>Node5</title>
<g id="a_Node000005"><a xlink:href="../../db/d42/struct_key_abbe629a5358df091d6202309e8327b23.html#abbe629a5358df091d6202309e8327b23" target="_top" xlink:title=" ">
<polygon fill="white" stroke="#666666" points="417,-107 265,-107 265,-88 417,-88 417,-107"/>
<text text-anchor="middle" x="341" y="-95" font-family="Helvetica,sans-Serif" font-size="10.00">Key::CalcAttackDecayFactor</text>
</a>
</g>
</g>
<!-- Node3&#45;&gt;Node5 -->
<g id="edge4_Node000003_Node000005" class="edge">
<title>Node3&#45;&gt;Node5</title>
<g id="a_edge4_Node000003_Node000005"><a xlink:title=" ">
<path fill="none" stroke="#63b8ff" d="M229.16,-85.04C237.4,-85.96 246,-86.93 254.62,-87.9"/>
<polygon fill="#63b8ff" stroke="#63b8ff" points="254.39,-91.4 264.72,-89.04 255.17,-84.44 254.39,-91.4"/>
</a>
</g>
</g>
<!-- Node13 -->
<g id="Node000013" class="node">
<title>Node13</title>
<g id="a_Node000013"><a xlink:href="../../db/d42/struct_key_ad1ebc123a10761ef1d1273e4afa30f61.html#ad1ebc123a10761ef1d1273e4afa30f61" target="_top" xlink:title=" ">
<polygon fill="white" stroke="#666666" points="561,-74 453,-74 453,-55 561,-55 561,-74"/>
<text text-anchor="middle" x="507" y="-62" font-family="Helvetica,sans-Serif" font-size="10.00">Key::VelocityFactor</text>
</a>
</g>
</g>
<!-- Node3&#45;&gt;Node13 -->
<g id="edge10_Node000003_Node000013" class="edge">
<title>Node3&#45;&gt;Node13</title>
<g id="a_edge10_Node000003_Node000013"><a xlink:title=" ">
<path fill="none" stroke="#63b8ff" d="M229.35,-76.06C288.89,-73.57 381.03,-69.72 442.4,-67.16"/>
<polygon fill="#63b8ff" stroke="#63b8ff" points="442.89,-70.64 452.73,-66.73 442.6,-63.65 442.89,-70.64"/>
</a>
</g>
</g>
<!-- Node14 -->
<g id="Node000014" class="node">
<title>Node14</title>
<g id="a_Node000014"><a xlink:href="../../d4/d36/namespacefl_a2a5359f49a46263d1eb1fcdfe99b7bd5.html#a2a5359f49a46263d1eb1fcdfe99b7bd5" target="_top" xlink:title=" ">
<polygon fill="white" stroke="#666666" points="366,-27 316,-27 316,-8 366,-8 366,-27"/>
<text text-anchor="middle" x="341" y="-15" font-family="Helvetica,sans-Serif" font-size="10.00">fl::expf</text>
</a>
</g>
</g>
<!-- Node3&#45;&gt;Node14 -->
<g id="edge7_Node000003_Node000014" class="edge">
<title>Node3&#45;&gt;Node14</title>
<g id="a_edge7_Node000003_Node000014"><a xlink:title=" ">
<path fill="none" stroke="#63b8ff" d="M197.41,-68.97C226.73,-58.39 274.13,-41.28 306.15,-29.72"/>
<polygon fill="#63b8ff" stroke="#63b8ff" points="307.75,-32.86 315.97,-26.18 305.37,-26.28 307.75,-32.86"/>
</a>
</g>
</g>
<!-- Node6 -->
<g id="Node000006" class="node">
<title>Node6</title>
<g id="a_Node000006"><a xlink:href="../../df/d2d/util_8cpp_a0f02f59740c07ab03cedef15f4db1fb5.html#a0f02f59740c07ab03cedef15f4db1fb5" target="_top" xlink:title=" ">
<polygon fill="#fff0f0" stroke="red" points="556,-111 458,-111 458,-92 556,-92 556,-111"/>
<text text-anchor="middle" x="507" y="-99" font-family="Helvetica,sans-Serif" font-size="10.00">CalcDecayFactor</text>
</a>
</g>
</g>
<!-- Node5&#45;&gt;Node6 -->
<g id="edge5_Node000005_Node000006" class="edge">
<title>Node5&#45;&gt;Node6</title>
<g id="a_edge5_Node000005_Node000006"><a xlink:title=" ">
<path fill="none" stroke="#63b8ff" d="M417.28,-99.34C427.53,-99.59 437.92,-99.84 447.8,-100.08"/>
<polygon fill="#63b8ff" stroke="#63b8ff" points="447.81,-103.58 457.9,-100.33 447.98,-96.58 447.81,-103.58"/>
</a>
</g>
</g>
<!-- Node5&#45;&gt;Node13 -->
<g id="edge6_Node000005_Node000013" class="edge">
<title>Node5&#45;&gt;Node13</title>
<g id="a_edge6_Node000005_Node000013"><a xlink:title=" ">
<path fill="none" stroke="#63b8ff" d="M389.44,-87.96C407.96,-84.23 429.37,-79.92 448.75,-76.02"/>
<polygon fill="#63b8ff" stroke="#63b8ff" points="449.56,-79.43 458.67,-74.02 448.18,-72.57 449.56,-79.43"/>
</a>
</g>
</g>
<!-- Node15 -->
<g id="Node000015" class="node">
<title>Node15</title>
<g id="a_Node000015"><a xlink:href="../../d4/d36/namespacefl_a30ea10d1fd20c323429a28dcd4c9bdd1.html#a30ea10d1fd20c323429a28dcd4c9bdd1" target="_top" xlink:title=" ">
<polygon fill="white" stroke="#666666" points="557.5,-19 456.5,-19 456.5,0 557.5,0 557.5,-19"/>
<text text-anchor="middle" x="507" y="-7" font-family="Helvetica,sans-Serif" font-size="10.00">fl::exp_impl_float</text>
</a>
</g>
</g>
<!-- Node14&#45;&gt;Node15 -->
<g id="edge8_Node000014_Node000015" class="edge">
<title>Node14&#45;&gt;Node15</title>
<g id="a_edge8_Node000014_Node000015"><a xlink:title=" ">
<path fill="none" stroke="#63b8ff" d="M366.2,-16.32C387.23,-15.29 418.58,-13.76 446.26,-12.41"/>
<polygon fill="#63b8ff" stroke="#63b8ff" points="446.45,-15.91 456.27,-11.93 446.11,-8.92 446.45,-15.91"/>
</a>
</g>
</g>
<!-- Node15&#45;&gt;Node15 -->
<g id="edge9_Node000015_Node000015" class="edge">
<title>Node15&#45;&gt;Node15</title>
<g id="a_edge9_Node000015_Node000015"><a xlink:title=" ">
<path fill="none" stroke="#63b8ff" d="M481.41,-19.08C468.97,-27.73 477.5,-37 507,-37 526.36,-37 536.69,-33.01 537.99,-27.82"/>
<polygon fill="#63b8ff" stroke="#63b8ff" points="540.82,-25.75 532.59,-19.08 534.87,-29.43 540.82,-25.75"/>
</a>
</g>
</g>
</g>
</svg>

<g id="navigator" transform="translate(0 0)" fill="#404254">
  <rect fill="#f2f5e9" fill-opacity="0.5" stroke="#606060" stroke-width=".5" x="0" y="0" width="60" height="60"/>
  <use id="zoomplus" xlink:href="#zoomPlus" x="17" y="9" onmousedown="handleZoom(evt,'in')"/>
  <use id="zoomminus" xlink:href="#zoomMin" x="42" y="9" onmousedown="handleZoom(evt,'out')"/>
  <use id="reset" xlink:href="#resetDef" x="30" y="36" onmousedown="handleReset()"/>
   <use id="arrowup" xlink:href="#arrowUp" x="0" y="0" onmousedown="handlePan(0,-1)"/>
  <use id="arrowright" xlink:href="#arrowRight" x="0" y="0" onmousedown="handlePan(1,0)"/>
  <use id="arrowdown" xlink:href="#arrowDown" x="0" y="0" onmousedown="handlePan(0,1)"/>
  <use id="arrowleft" xlink:href="#arrowLeft" x="0" y="0" onmousedown="handlePan(-1,0)"/>
</g>
<svg viewBox="0 0 15 15" width="100%" height="30px" preserveAspectRatio="xMaxYMin meet">
 <g id="arrow_out" transform="scale(0.3 0.3)">
  <a xlink:href="struct_key_ac841a3966fde8cd5df0eafa0bdcf0cca_ac841a3966fde8cd5df0eafa0bdcf0cca_cgraph_org.svg" target="_base">
   <rect id="button" ry="5" rx="5" y="6" x="6" height="38" width="38"
        fill="#f2f5e9" fill-opacity="0.5" stroke="#606060" stroke-width="1.0"/>
   <path id="arrow"
     d="M 11.500037,31.436501 C 11.940474,20.09759 22.043105,11.32322 32.158766,21.979434 L 37.068811,17.246167 C 37.068811,17.246167 37.088388,32 37.088388,32 L 22.160133,31.978069 C 22.160133,31.978069 26.997745,27.140456 26.997745,27.140456 C 18.528582,18.264221 13.291696,25.230495 11.500037,31.436501 z"
     style="fill:#404040;"/>
  </a>
 </g>
</svg>

<style type='text/css'>
<![CDATA[
[data-mouse-over-selected='false'] { opacity: 0.7; }
[data-mouse-over-selected='true']  { opacity: 1.0; }
]]>
</style>
<script type="application/ecmascript"><![CDATA[
document.addEventListener('DOMContentLoaded', (event) => {
  highlightEdges();
  highlightAdjacentNodes();
});
]]></script>
</svg>
