<?xml version="1.0" encoding="UTF-8" standalone="no"?>
<!DOCTYPE svg PUBLIC "-//W3C//DTD SVG 1.1//EN"
 "http://www.w3.org/Graphics/SVG/1.1/DTD/svg11.dtd">
<!-- Generated by graphviz version 2.43.0 (0)
 -->
<!-- Title: fl/stl/bitset_dynamic.h Pages: 1 -->
<svg width="933pt" height="302pt"
 viewBox="0.00 0.00 932.50 302.00" xmlns="http://www.w3.org/2000/svg" xmlns:xlink="http://www.w3.org/1999/xlink">
<g id="graph0" class="graph" transform="scale(1 1) rotate(0) translate(4 298)">
<title>fl/stl/bitset_dynamic.h</title>
<!-- Node1 -->
<g id="Node000001" class="node">
<title>Node1</title>
<g id="a_Node000001"><a xlink:title=" ">
<polygon fill="#999999" stroke="#666666" points="551.5,-294 426.5,-294 426.5,-275 551.5,-275 551.5,-294"/>
<text text-anchor="middle" x="489" y="-282" font-family="Helvetica,sans-Serif" font-size="10.00">fl/stl/bitset_dynamic.h</text>
</a>
</g>
</g>
<!-- Node2 -->
<g id="Node000002" class="node">
<title>Node2</title>
<g id="a_Node000002"><a xlink:href="../../da/d4b/unique__ptr_8h.html" target="_top" xlink:title=" ">
<polygon fill="white" stroke="#666666" points="390.5,-239 289.5,-239 289.5,-220 390.5,-220 390.5,-239"/>
<text text-anchor="middle" x="340" y="-227" font-family="Helvetica,sans-Serif" font-size="10.00">fl/stl/unique_ptr.h</text>
</a>
</g>
</g>
<!-- Node1&#45;&gt;Node2 -->
<g id="edge1_Node000001_Node000002" class="edge">
<title>Node1&#45;&gt;Node2</title>
<g id="a_edge1_Node000001_Node000002"><a xlink:title=" ">
<path fill="none" stroke="#63b8ff" d="M465.06,-274.98C440.44,-266.23 401.88,-252.51 374.08,-242.62"/>
<polygon fill="#63b8ff" stroke="#63b8ff" points="374.97,-239.22 364.38,-239.17 372.62,-245.82 374.97,-239.22"/>
</a>
</g>
</g>
<!-- Node5 -->
<g id="Node000005" class="node">
<title>Node5</title>
<g id="a_Node000005"><a xlink:href="../../db/d01/noexcept_8h.html" target="_top" xlink:title=" ">
<polygon fill="white" stroke="#666666" points="354.5,-19 259.5,-19 259.5,0 354.5,0 354.5,-19"/>
<text text-anchor="middle" x="307" y="-7" font-family="Helvetica,sans-Serif" font-size="10.00">fl/stl/noexcept.h</text>
</a>
</g>
</g>
<!-- Node1&#45;&gt;Node5 -->
<g id="edge33_Node000001_Node000005" class="edge">
<title>Node1&#45;&gt;Node5</title>
<g id="a_edge33_Node000001_Node000005"><a xlink:title=" ">
<path fill="none" stroke="#63b8ff" d="M426.07,-282.66C294,-279.2 0,-261.79 0,-175.5 0,-175.5 0,-175.5 0,-118.5 0,-74.14 36.87,-73.91 77,-55 131.84,-29.16 200.8,-18.32 248.84,-13.78"/>
<polygon fill="#63b8ff" stroke="#63b8ff" points="249.41,-17.24 259.06,-12.88 248.79,-10.27 249.41,-17.24"/>
</a>
</g>
</g>
<!-- Node6 -->
<g id="Node000006" class="node">
<title>Node6</title>
<g id="a_Node000006"><a xlink:href="../../d3/d7e/int_8h.html" target="_top" xlink:title=" ">
<polygon fill="white" stroke="#666666" points="608,-74 546,-74 546,-55 608,-55 608,-74"/>
<text text-anchor="middle" x="577" y="-62" font-family="Helvetica,sans-Serif" font-size="10.00">fl/stl/int.h</text>
</a>
</g>
</g>
<!-- Node1&#45;&gt;Node6 -->
<g id="edge16_Node000001_Node000006" class="edge">
<title>Node1&#45;&gt;Node6</title>
<g id="a_edge16_Node000001_Node000006"><a xlink:title=" ">
<path fill="none" stroke="#63b8ff" d="M515.05,-274.88C564.6,-256.89 671.29,-210.14 714,-129 734.99,-89.13 666.03,-74.17 618.45,-68.65"/>
<polygon fill="#63b8ff" stroke="#63b8ff" points="618.68,-65.15 608.36,-67.58 617.94,-72.11 618.68,-65.15"/>
</a>
</g>
</g>
<!-- Node12 -->
<g id="Node000012" class="node">
<title>Node12</title>
<g id="a_Node000012"><a xlink:href="../../df/db1/math_8h.html" target="_top" xlink:title=" ">
<polygon fill="white" stroke="#666666" points="567.5,-184 478.5,-184 478.5,-165 567.5,-165 567.5,-184"/>
<text text-anchor="middle" x="523" y="-172" font-family="Helvetica,sans-Serif" font-size="10.00">fl/math/math.h</text>
</a>
</g>
</g>
<!-- Node1&#45;&gt;Node12 -->
<g id="edge17_Node000001_Node000012" class="edge">
<title>Node1&#45;&gt;Node12</title>
<g id="a_edge17_Node000001_Node000012"><a xlink:title=" ">
<path fill="none" stroke="#63b8ff" d="M491.78,-274.66C497.31,-257.09 509.79,-217.45 517.19,-193.95"/>
<polygon fill="#63b8ff" stroke="#63b8ff" points="520.61,-194.75 520.27,-184.16 513.93,-192.65 520.61,-194.75"/>
</a>
</g>
</g>
<!-- Node13 -->
<g id="Node000013" class="node">
<title>Node13</title>
<g id="a_Node000013"><a xlink:href="../../d4/d54/compiler__control_8h.html" target="_top" xlink:title=" ">
<polygon fill="white" stroke="#666666" points="892.5,-129 761.5,-129 761.5,-110 892.5,-110 892.5,-129"/>
<text text-anchor="middle" x="827" y="-117" font-family="Helvetica,sans-Serif" font-size="10.00">fl/stl/compiler_control.h</text>
</a>
</g>
</g>
<!-- Node1&#45;&gt;Node13 -->
<g id="edge32_Node000001_Node000013" class="edge">
<title>Node1&#45;&gt;Node13</title>
<g id="a_edge32_Node000001_Node000013"><a xlink:title=" ">
<path fill="none" stroke="#63b8ff" d="M551.69,-278.35C617.43,-271.96 715.51,-259.36 747,-239 784.74,-214.6 809.11,-165.44 820.15,-138.75"/>
<polygon fill="#63b8ff" stroke="#63b8ff" points="823.53,-139.71 823.95,-129.12 817.02,-137.13 823.53,-139.71"/>
</a>
</g>
</g>
<!-- Node18 -->
<g id="Node000018" class="node">
<title>Node18</title>
<g id="a_Node000018"><a xlink:href="../../dd/d8d/cstring_8h.html" target="_top" xlink:title=" ">
<polygon fill="white" stroke="#666666" points="451.5,-74 368.5,-74 368.5,-55 451.5,-55 451.5,-74"/>
<text text-anchor="middle" x="410" y="-62" font-family="Helvetica,sans-Serif" font-size="10.00">fl/stl/cstring.h</text>
</a>
</g>
</g>
<!-- Node1&#45;&gt;Node18 -->
<g id="edge29_Node000001_Node000018" class="edge">
<title>Node1&#45;&gt;Node18</title>
<g id="a_edge29_Node000001_Node000018"><a xlink:title=" ">
<path fill="none" stroke="#63b8ff" d="M485.9,-274.95C474.25,-242.81 432.91,-128.72 416.64,-83.83"/>
<polygon fill="#63b8ff" stroke="#63b8ff" points="419.86,-82.43 413.16,-74.22 413.28,-84.82 419.86,-82.43"/>
</a>
</g>
</g>
<!-- Node3 -->
<g id="Node000003" class="node">
<title>Node3</title>
<g id="a_Node000003"><a xlink:href="../../df/d63/type__traits_8h.html" target="_top" xlink:title=" ">
<polygon fill="white" stroke="#666666" points="391,-129 289,-129 289,-110 391,-110 391,-129"/>
<text text-anchor="middle" x="340" y="-117" font-family="Helvetica,sans-Serif" font-size="10.00">fl/stl/type_traits.h</text>
</a>
</g>
</g>
<!-- Node2&#45;&gt;Node3 -->
<g id="edge2_Node000002_Node000003" class="edge">
<title>Node2&#45;&gt;Node3</title>
<g id="a_edge2_Node000002_Node000003"><a xlink:title=" ">
<path fill="none" stroke="#63b8ff" d="M340,-219.66C340,-202.17 340,-162.8 340,-139.27"/>
<polygon fill="#63b8ff" stroke="#63b8ff" points="343.5,-139.16 340,-129.16 336.5,-139.16 343.5,-139.16"/>
</a>
</g>
</g>
<!-- Node2&#45;&gt;Node5 -->
<g id="edge14_Node000002_Node000005" class="edge">
<title>Node2&#45;&gt;Node5</title>
<g id="a_edge14_Node000002_Node000005"><a xlink:title=" ">
<path fill="none" stroke="#63b8ff" d="M289.32,-225.61C248.14,-221.3 189.89,-210.58 146,-184 97.81,-154.81 90.95,-129.78 83,-74 81.81,-65.64 77.64,-61.53 83,-55 103.66,-29.83 190.02,-18.64 249.27,-13.85"/>
<polygon fill="#63b8ff" stroke="#63b8ff" points="249.56,-17.34 259.26,-13.08 249.02,-10.36 249.56,-17.34"/>
</a>
</g>
</g>
<!-- Node7 -->
<g id="Node000007" class="node">
<title>Node7</title>
<g id="a_Node000007"><a xlink:href="../../df/dd8/stdint_8h.html" target="_top" xlink:title=" ">
<polygon fill="#fff0f0" stroke="red" points="518.5,-19 441.5,-19 441.5,0 518.5,0 518.5,-19"/>
<text text-anchor="middle" x="480" y="-7" font-family="Helvetica,sans-Serif" font-size="10.00">fl/stl/stdint.h</text>
</a>
</g>
</g>
<!-- Node2&#45;&gt;Node7 -->
<g id="edge12_Node000002_Node000007" class="edge">
<title>Node2&#45;&gt;Node7</title>
<g id="a_edge12_Node000002_Node000007"><a xlink:title=" ">
<path fill="none" stroke="#63b8ff" d="M348.67,-219.93C370.62,-197.79 428.9,-136.03 461,-74 468.36,-59.77 473.34,-42.24 476.34,-29.2"/>
<polygon fill="#63b8ff" stroke="#63b8ff" points="479.83,-29.61 478.49,-19.1 472.99,-28.16 479.83,-29.61"/>
</a>
</g>
</g>
<!-- Node9 -->
<g id="Node000009" class="node">
<title>Node9</title>
<g id="a_Node000009"><a xlink:href="../../d0/d1b/static__assert_8h.html" target="_top" xlink:title="Portable compile&#45;time assertion wrapper.">
<polygon fill="white" stroke="#666666" points="216,-74 104,-74 104,-55 216,-55 216,-74"/>
<text text-anchor="middle" x="160" y="-62" font-family="Helvetica,sans-Serif" font-size="10.00">fl/stl/static_assert.h</text>
</a>
</g>
</g>
<!-- Node2&#45;&gt;Node9 -->
<g id="edge15_Node000002_Node000009" class="edge">
<title>Node2&#45;&gt;Node9</title>
<g id="a_edge15_Node000002_Node000009"><a xlink:title=" ">
<path fill="none" stroke="#63b8ff" d="M330.32,-219.74C301.27,-193.42 214.5,-114.85 177.28,-81.14"/>
<polygon fill="#63b8ff" stroke="#63b8ff" points="179.49,-78.42 169.73,-74.31 174.79,-83.61 179.49,-78.42"/>
</a>
</g>
</g>
<!-- Node10 -->
<g id="Node000010" class="node">
<title>Node10</title>
<g id="a_Node000010"><a xlink:href="../../d5/d47/utility_8h.html" target="_top" xlink:title=" ">
<polygon fill="white" stroke="#666666" points="232.5,-184 155.5,-184 155.5,-165 232.5,-165 232.5,-184"/>
<text text-anchor="middle" x="194" y="-172" font-family="Helvetica,sans-Serif" font-size="10.00">fl/stl/utility.h</text>
</a>
</g>
</g>
<!-- Node2&#45;&gt;Node10 -->
<g id="edge9_Node000002_Node000010" class="edge">
<title>Node2&#45;&gt;Node10</title>
<g id="a_edge9_Node000002_Node000010"><a xlink:title=" ">
<path fill="none" stroke="#63b8ff" d="M316.54,-219.98C292.42,-211.23 254.63,-197.51 227.4,-187.62"/>
<polygon fill="#63b8ff" stroke="#63b8ff" points="228.48,-184.29 217.88,-184.17 226.09,-190.87 228.48,-184.29"/>
</a>
</g>
</g>
<!-- Node11 -->
<g id="Node000011" class="node">
<title>Node11</title>
<g id="a_Node000011"><a xlink:href="../../d7/d84/cstddef_8h.html" target="_top" xlink:title=" ">
<polygon fill="white" stroke="#666666" points="726.5,-19 641.5,-19 641.5,0 726.5,0 726.5,-19"/>
<text text-anchor="middle" x="684" y="-7" font-family="Helvetica,sans-Serif" font-size="10.00">fl/stl/cstddef.h</text>
</a>
</g>
</g>
<!-- Node2&#45;&gt;Node11 -->
<g id="edge13_Node000002_Node000011" class="edge">
<title>Node2&#45;&gt;Node11</title>
<g id="a_edge13_Node000002_Node000011"><a xlink:title=" ">
<path fill="none" stroke="#63b8ff" d="M390.6,-224C451.07,-217.78 547.74,-204.89 577,-184 607.78,-162.02 599.32,-142.29 619,-110 636.91,-80.63 659.06,-47.31 672.33,-27.65"/>
<polygon fill="#63b8ff" stroke="#63b8ff" points="675.36,-29.41 678.08,-19.17 669.57,-25.48 675.36,-29.41"/>
</a>
</g>
</g>
<!-- Node4 -->
<g id="Node000004" class="node">
<title>Node4</title>
<g id="a_Node000004"><a xlink:href="../../d9/d83/move_8h.html" target="_top" xlink:title=" ">
<polygon fill="white" stroke="#666666" points="311.5,-74 234.5,-74 234.5,-55 311.5,-55 311.5,-74"/>
<text text-anchor="middle" x="273" y="-62" font-family="Helvetica,sans-Serif" font-size="10.00">fl/stl/move.h</text>
</a>
</g>
</g>
<!-- Node3&#45;&gt;Node4 -->
<g id="edge3_Node000003_Node000004" class="edge">
<title>Node3&#45;&gt;Node4</title>
<g id="a_edge3_Node000003_Node000004"><a xlink:title=" ">
<path fill="none" stroke="#63b8ff" d="M329.24,-109.98C319.23,-102.07 304.11,-90.11 292.07,-80.58"/>
<polygon fill="#63b8ff" stroke="#63b8ff" points="293.97,-77.63 283.96,-74.17 289.63,-83.12 293.97,-77.63"/>
</a>
</g>
</g>
<!-- Node3&#45;&gt;Node5 -->
<g id="edge7_Node000003_Node000005" class="edge">
<title>Node3&#45;&gt;Node5</title>
<g id="a_edge7_Node000003_Node000005"><a xlink:title=" ">
<path fill="none" stroke="#63b8ff" d="M337.46,-109.86C333.85,-97.63 327.01,-74.58 321,-55 318.35,-46.38 315.36,-36.83 312.82,-28.8"/>
<polygon fill="#63b8ff" stroke="#63b8ff" points="316.08,-27.49 309.72,-19.02 309.41,-29.61 316.08,-27.49"/>
</a>
</g>
</g>
<!-- Node3&#45;&gt;Node6 -->
<g id="edge5_Node000003_Node000006" class="edge">
<title>Node3&#45;&gt;Node6</title>
<g id="a_edge5_Node000003_Node000006"><a xlink:title=" ">
<path fill="none" stroke="#63b8ff" d="M378.08,-109.98C421.29,-100.32 491.53,-84.61 535.94,-74.68"/>
<polygon fill="#63b8ff" stroke="#63b8ff" points="536.83,-78.07 545.83,-72.47 535.3,-71.24 536.83,-78.07"/>
</a>
</g>
</g>
<!-- Node3&#45;&gt;Node9 -->
<g id="edge8_Node000003_Node000009" class="edge">
<title>Node3&#45;&gt;Node9</title>
<g id="a_edge8_Node000003_Node000009"><a xlink:title=" ">
<path fill="none" stroke="#63b8ff" d="M311.08,-109.98C280.73,-101.05 232.83,-86.94 199.12,-77.02"/>
<polygon fill="#63b8ff" stroke="#63b8ff" points="199.73,-73.55 189.15,-74.08 197.75,-80.26 199.73,-73.55"/>
</a>
</g>
</g>
<!-- Node4&#45;&gt;Node5 -->
<g id="edge4_Node000004_Node000005" class="edge">
<title>Node4&#45;&gt;Node5</title>
<g id="a_edge4_Node000004_Node000005"><a xlink:title=" ">
<path fill="none" stroke="#63b8ff" d="M278.61,-54.75C283.32,-47.42 290.17,-36.73 295.97,-27.7"/>
<polygon fill="#63b8ff" stroke="#63b8ff" points="299.04,-29.4 301.49,-19.09 293.14,-25.62 299.04,-29.4"/>
</a>
</g>
</g>
<!-- Node6&#45;&gt;Node7 -->
<g id="edge6_Node000006_Node000007" class="edge">
<title>Node6&#45;&gt;Node7</title>
<g id="a_edge6_Node000006_Node000007"><a xlink:title=" ">
<path fill="none" stroke="#63b8ff" d="M561.42,-54.98C546.23,-46.69 522.9,-33.94 505.1,-24.22"/>
<polygon fill="#63b8ff" stroke="#63b8ff" points="506.32,-20.89 495.87,-19.17 502.97,-27.04 506.32,-20.89"/>
</a>
</g>
</g>
<!-- Node10&#45;&gt;Node3 -->
<g id="edge10_Node000010_Node000003" class="edge">
<title>Node10&#45;&gt;Node3</title>
<g id="a_edge10_Node000010_Node000003"><a xlink:title=" ">
<path fill="none" stroke="#63b8ff" d="M217.46,-164.98C241.58,-156.23 279.37,-142.51 306.6,-132.62"/>
<polygon fill="#63b8ff" stroke="#63b8ff" points="307.91,-135.87 316.12,-129.17 305.52,-129.29 307.91,-135.87"/>
</a>
</g>
</g>
<!-- Node10&#45;&gt;Node5 -->
<g id="edge11_Node000010_Node000005" class="edge">
<title>Node10&#45;&gt;Node5</title>
<g id="a_edge11_Node000010_Node000005"><a xlink:title=" ">
<path fill="none" stroke="#63b8ff" d="M177.01,-164.94C140.64,-145.54 61.21,-96.62 95,-55 114.08,-31.5 192.99,-19.96 248.95,-14.63"/>
<polygon fill="#63b8ff" stroke="#63b8ff" points="249.47,-18.1 259.11,-13.7 248.83,-11.12 249.47,-18.1"/>
</a>
</g>
</g>
<!-- Node12&#45;&gt;Node3 -->
<g id="edge25_Node000012_Node000003" class="edge">
<title>Node12&#45;&gt;Node3</title>
<g id="a_edge25_Node000012_Node000003"><a xlink:title=" ">
<path fill="none" stroke="#63b8ff" d="M493.6,-164.98C462.61,-156.01 413.62,-141.82 379.33,-131.89"/>
<polygon fill="#63b8ff" stroke="#63b8ff" points="380.21,-128.5 369.63,-129.08 378.26,-135.23 380.21,-128.5"/>
</a>
</g>
</g>
<!-- Node12&#45;&gt;Node5 -->
<g id="edge28_Node000012_Node000005" class="edge">
<title>Node12&#45;&gt;Node5</title>
<g id="a_edge28_Node000012_Node000005"><a xlink:title=" ">
<path fill="none" stroke="#63b8ff" d="M520.99,-164.85C515.44,-142.99 497.86,-85.12 461,-55 433.77,-32.76 395.92,-21.63 364.55,-16.06"/>
<polygon fill="#63b8ff" stroke="#63b8ff" points="365.05,-12.6 354.62,-14.45 363.93,-19.51 365.05,-12.6"/>
</a>
</g>
</g>
<!-- Node12&#45;&gt;Node6 -->
<g id="edge24_Node000012_Node000006" class="edge">
<title>Node12&#45;&gt;Node6</title>
<g id="a_edge24_Node000012_Node000006"><a xlink:title=" ">
<path fill="none" stroke="#63b8ff" d="M527.42,-164.66C536.28,-146.93 556.39,-106.73 568.09,-83.32"/>
<polygon fill="#63b8ff" stroke="#63b8ff" points="571.33,-84.67 572.67,-74.16 565.07,-81.54 571.33,-84.67"/>
</a>
</g>
</g>
<!-- Node12&#45;&gt;Node13 -->
<g id="edge18_Node000012_Node000013" class="edge">
<title>Node12&#45;&gt;Node13</title>
<g id="a_edge18_Node000012_Node000013"><a xlink:title=" ">
<path fill="none" stroke="#63b8ff" d="M567.53,-165.74C620.61,-156.48 709.5,-140.98 768.2,-130.75"/>
<polygon fill="#63b8ff" stroke="#63b8ff" points="768.82,-134.2 778.07,-129.03 767.62,-127.3 768.82,-134.2"/>
</a>
</g>
</g>
<!-- Node16 -->
<g id="Node000016" class="node">
<title>Node16</title>
<g id="a_Node000016"><a xlink:href="../../da/ded/undef_8h.html" target="_top" xlink:title=" ">
<polygon fill="white" stroke="#666666" points="704.5,-129 627.5,-129 627.5,-110 704.5,-110 704.5,-129"/>
<text text-anchor="middle" x="666" y="-117" font-family="Helvetica,sans-Serif" font-size="10.00">fl/stl/undef.h</text>
</a>
</g>
</g>
<!-- Node12&#45;&gt;Node16 -->
<g id="edge26_Node000012_Node000016" class="edge">
<title>Node12&#45;&gt;Node16</title>
<g id="a_edge26_Node000012_Node000016"><a xlink:title=" ">
<path fill="none" stroke="#63b8ff" d="M545.98,-164.98C569.5,-156.27 606.29,-142.63 632.94,-132.75"/>
<polygon fill="#63b8ff" stroke="#63b8ff" points="634.45,-135.93 642.61,-129.17 632.01,-129.36 634.45,-135.93"/>
</a>
</g>
</g>
<!-- Node14 -->
<g id="Node000014" class="node">
<title>Node14</title>
<g id="a_Node000014"><a xlink:title=" ">
<polygon fill="#e0e0e0" stroke="#999999" points="924.5,-19 793.5,-19 793.5,0 924.5,0 924.5,-19"/>
<text text-anchor="middle" x="859" y="-7" font-family="Helvetica,sans-Serif" font-size="10.00">platforms/is_platform.h</text>
</a>
</g>
</g>
<!-- Node13&#45;&gt;Node14 -->
<g id="edge19_Node000013_Node000014" class="edge">
<title>Node13&#45;&gt;Node14</title>
<g id="a_edge19_Node000013_Node000014"><a xlink:title=" ">
<path fill="none" stroke="#63b8ff" d="M840.78,-109.82C851.82,-101.99 866.49,-89.35 873,-74 879.26,-59.24 874.26,-41.31 868.57,-28.27"/>
<polygon fill="#63b8ff" stroke="#63b8ff" points="871.59,-26.48 864.07,-19.02 865.3,-29.54 871.59,-26.48"/>
</a>
</g>
</g>
<!-- Node15 -->
<g id="Node000015" class="node">
<title>Node15</title>
<g id="a_Node000015"><a xlink:href="../../d1/ddf/align_8h.html" target="_top" xlink:title="Alignment macros and utilities for FastLED.">
<polygon fill="white" stroke="#666666" points="864,-74 790,-74 790,-55 864,-55 864,-74"/>
<text text-anchor="middle" x="827" y="-62" font-family="Helvetica,sans-Serif" font-size="10.00">fl/stl/align.h</text>
</a>
</g>
</g>
<!-- Node13&#45;&gt;Node15 -->
<g id="edge20_Node000013_Node000015" class="edge">
<title>Node13&#45;&gt;Node15</title>
<g id="a_edge20_Node000013_Node000015"><a xlink:title=" ">
<path fill="none" stroke="#63b8ff" d="M827,-109.75C827,-102.8 827,-92.85 827,-84.13"/>
<polygon fill="#63b8ff" stroke="#63b8ff" points="830.5,-84.09 827,-74.09 823.5,-84.09 830.5,-84.09"/>
</a>
</g>
</g>
<!-- Node15&#45;&gt;Node5 -->
<g id="edge23_Node000015_Node000005" class="edge">
<title>Node15&#45;&gt;Node5</title>
<g id="a_edge23_Node000015_Node000005"><a xlink:title=" ">
<path fill="none" stroke="#63b8ff" d="M789.89,-56.35C786.89,-55.86 783.9,-55.4 781,-55 631.58,-34.22 454.27,-20.45 364.8,-14.26"/>
<polygon fill="#63b8ff" stroke="#63b8ff" points="364.81,-10.75 354.59,-13.56 364.33,-17.73 364.81,-10.75"/>
</a>
</g>
</g>
<!-- Node15&#45;&gt;Node11 -->
<g id="edge21_Node000015_Node000011" class="edge">
<title>Node15&#45;&gt;Node11</title>
<g id="a_edge21_Node000015_Node000011"><a xlink:title=" ">
<path fill="none" stroke="#63b8ff" d="M804.02,-54.98C780.5,-46.27 743.71,-32.63 717.06,-22.75"/>
<polygon fill="#63b8ff" stroke="#63b8ff" points="717.99,-19.36 707.39,-19.17 715.55,-25.93 717.99,-19.36"/>
</a>
</g>
</g>
<!-- Node15&#45;&gt;Node14 -->
<g id="edge22_Node000015_Node000014" class="edge">
<title>Node15&#45;&gt;Node14</title>
<g id="a_edge22_Node000015_Node000014"><a xlink:title=" ">
<path fill="none" stroke="#63b8ff" d="M832.28,-54.75C836.71,-47.42 843.16,-36.73 848.62,-27.7"/>
<polygon fill="#63b8ff" stroke="#63b8ff" points="851.64,-29.46 853.81,-19.09 845.65,-25.84 851.64,-29.46"/>
</a>
</g>
</g>
<!-- Node17 -->
<g id="Node000017" class="node">
<title>Node17</title>
<g id="a_Node000017"><a xlink:href="../../da/d99/has__include_8h.html" target="_top" xlink:title=" ">
<polygon fill="white" stroke="#666666" points="771.5,-74 664.5,-74 664.5,-55 771.5,-55 771.5,-74"/>
<text text-anchor="middle" x="718" y="-62" font-family="Helvetica,sans-Serif" font-size="10.00">fl/stl/has_include.h</text>
</a>
</g>
</g>
<!-- Node16&#45;&gt;Node17 -->
<g id="edge27_Node000016_Node000017" class="edge">
<title>Node16&#45;&gt;Node17</title>
<g id="a_edge27_Node000016_Node000017"><a xlink:title=" ">
<path fill="none" stroke="#63b8ff" d="M674.59,-109.75C682.16,-102.03 693.38,-90.6 702.51,-81.28"/>
<polygon fill="#63b8ff" stroke="#63b8ff" points="705.07,-83.68 709.57,-74.09 700.07,-78.78 705.07,-83.68"/>
</a>
</g>
</g>
<!-- Node18&#45;&gt;Node5 -->
<g id="edge31_Node000018_Node000005" class="edge">
<title>Node18&#45;&gt;Node5</title>
<g id="a_edge31_Node000018_Node000005"><a xlink:title=" ">
<path fill="none" stroke="#63b8ff" d="M393.45,-54.98C377.11,-46.57 351.87,-33.59 332.87,-23.81"/>
<polygon fill="#63b8ff" stroke="#63b8ff" points="334.34,-20.63 323.85,-19.17 331.14,-26.86 334.34,-20.63"/>
</a>
</g>
</g>
<!-- Node18&#45;&gt;Node7 -->
<g id="edge30_Node000018_Node000007" class="edge">
<title>Node18&#45;&gt;Node7</title>
<g id="a_edge30_Node000018_Node000007"><a xlink:title=" ">
<path fill="none" stroke="#63b8ff" d="M421.25,-54.98C431.8,-47 447.8,-34.88 460.44,-25.31"/>
<polygon fill="#63b8ff" stroke="#63b8ff" points="462.69,-28 468.55,-19.17 458.46,-22.42 462.69,-28"/>
</a>
</g>
</g>
</g>
</svg>
