<?xml version="1.0" encoding="UTF-8" standalone="no"?>
<!DOCTYPE svg PUBLIC "-//W3C//DTD SVG 1.1//EN"
 "http://www.w3.org/Graphics/SVG/1.1/DTD/svg11.dtd">
<!-- Generated by graphviz version 2.43.0 (0)
 -->
<!-- Title: fl/stl/array.h Pages: 1 -->
<!--zoomable 467 -->

<svg id="main" version="1.1" xmlns="http://www.w3.org/2000/svg" xmlns:xlink="http://www.w3.org/1999/xlink" xml:space="preserve" onload="init(evt)">

<style type="text/css"><![CDATA[
.node, .edge {opacity: 0.7;}
.node.selected, .edge.selected {opacity: 1;}
.edge:hover path { stroke: red; }
.edge:hover polygon { stroke: red; fill: red; }
]]></style>

<defs>
  <circle id="rim" cx="0" cy="0" r="7"/>
  <circle id="rim2" cx="0" cy="0" r="3.5"/>
  <g id="zoomPlus">
    <use xlink:href="#rim" fill="#404040"><set attributeName="fill" to="#808080" begin="zoomplus.mouseover" end="zoomplus.mouseout"/></use>
    <path d="M-4,0h8M0,-4v8" fill="none" stroke="white" stroke-width="1.5" pointer-events="none"/>
  </g>
  <g id="zoomMin">
    <use xlink:href="#rim" fill="#404040"><set attributeName="fill" to="#808080" begin="zoomminus.mouseover" end="zoomminus.mouseout"/></use>
    <path d="M-4,0h8" fill="none" stroke="white" stroke-width="1.5" pointer-events="none"/>
  </g>
  <g id="arrowUp" transform="translate(30 24)">
    <use xlink:href="#rim"/>
    <path pointer-events="none" fill="none" stroke="white" stroke-width="1.5" d="M0,-3.0v7 M-2.5,-0.5L0,-3.0L2.5,-0.5"/>
  </g>
  <g id="arrowRight" transform="rotate(90) translate(36 -43)">
    <use xlink:href="#rim"/>
    <path pointer-events="none" fill="none" stroke="white" stroke-width="1.5" d="M0,-3.0v7 M-2.5,-0.5L0,-3.0L2.5,-0.5"/>
  </g>
  <g id="arrowDown" transform="rotate(180) translate(-30 -48)">
    <use xlink:href="#rim"/>
    <path pointer-events="none" fill="none" stroke="white" stroke-width="1.5" d="M0,-3.0v7 M-2.5,-0.5L0,-3.0L2.5,-0.5"/>
  </g>
  <g id="arrowLeft" transform="rotate(270) translate(-36 17)">
    <use xlink:href="#rim"/>
    <path pointer-events="none" fill="none" stroke="white" stroke-width="1.5" d="M0,-3.0v7 M-2.5,-0.5L0,-3.0L2.5,-0.5"/>
  </g>
  <g id="resetDef">
    <use xlink:href="#rim2" fill="#404040"><set attributeName="fill" to="#808080" begin="reset.mouseover" end="reset.mouseout"/></use>
  </g>
</defs>
<script type="application/ecmascript">
var viewWidth = 2193;
var viewHeight = 467;
var sectionId = 'dynsection-1';
</script>
<script type="application/ecmascript" xlink:href="../../svg.min.js"/>
<svg id="graph" class="graph">
<g id="viewport">
<title>fl/stl/array.h</title>
<!-- Node1 -->
<g id="Node000001" class="node">
<title>Node1</title>
<g id="a_Node000001"><a xlink:title=" ">
<polygon fill="#999999" stroke="#666666" points="1168,-459 1094,-459 1094,-440 1168,-440 1168,-459"/>
<text text-anchor="middle" x="1131" y="-447" font-family="Helvetica,sans-Serif" font-size="10.00">fl/stl/array.h</text>
</a>
</g>
</g>
<!-- Node2 -->
<g id="Node000002" class="node">
<title>Node2</title>
<g id="a_Node000002"><a xlink:href="../../d4/d06/curr_8h.html" target="_top" xlink:title=" ">
<polygon fill="white" stroke="#666666" points="204,-404 0,-404 0,-374 204,-374 204,-404"/>
<text text-anchor="start" x="8" y="-392" font-family="Helvetica,sans-Serif" font-size="10.00">/home/runner/work/FastLED</text>
<text text-anchor="middle" x="102" y="-381" font-family="Helvetica,sans-Serif" font-size="10.00">/FastLED/examples/FestivalStick/curr.h</text>
</a>
</g>
</g>
<!-- Node1&#45;&gt;Node2 -->
<g id="edge1_Node000001_Node000002" class="edge">
<title>Node1&#45;&gt;Node2</title>
<g id="a_edge1_Node000001_Node000002"><a xlink:title=" ">
<path fill="none" stroke="#63b8ff" d="M1083.97,-447.39C949.02,-443.96 548.96,-432 218,-404 213.45,-403.62 208.81,-403.19 204.12,-402.73"/>
<polygon fill="#63b8ff" stroke="#63b8ff" points="1083.89,-450.89 1093.98,-447.64 1084.07,-443.89 1083.89,-450.89"/>
</a>
</g>
</g>
<!-- Node4 -->
<g id="Node000004" class="node">
<title>Node4</title>
<g id="a_Node000004"><a xlink:href="../../db/d97/_fast_l_e_d_8h.html" target="_top" xlink:title="central include file for FastLED, defines the CFastLED class/object">
<polygon fill="white" stroke="#666666" points="1166,-129 1102,-129 1102,-110 1166,-110 1166,-129"/>
<text text-anchor="middle" x="1134" y="-117" font-family="Helvetica,sans-Serif" font-size="10.00">FastLED.h</text>
</a>
</g>
</g>
<!-- Node1&#45;&gt;Node4 -->
<g id="edge3_Node000001_Node000004" class="edge">
<title>Node1&#45;&gt;Node4</title>
<g id="a_edge3_Node000001_Node000004"><a xlink:title=" ">
<path fill="none" stroke="#63b8ff" d="M1083.8,-447.68C905.72,-444.41 283.03,-431.05 251,-404 221.26,-378.88 232,-357.43 232,-318.5 232,-318.5 232,-318.5 232,-239.5 232,-149.86 941.22,-125.63 1101.9,-121.28"/>
<polygon fill="#63b8ff" stroke="#63b8ff" points="1083.84,-451.19 1093.9,-447.87 1083.97,-444.19 1083.84,-451.19"/>
</a>
</g>
</g>
<!-- Node8 -->
<g id="Node000008" class="node">
<title>Node8</title>
<g id="a_Node000008"><a xlink:href="../../dc/da8/src_2fl_2audio_2audio__reactive_8h.html" target="_top" xlink:title=" ">
<polygon fill="white" stroke="#666666" points="1812.5,-398.5 1675.5,-398.5 1675.5,-379.5 1812.5,-379.5 1812.5,-398.5"/>
<text text-anchor="middle" x="1744" y="-386.5" font-family="Helvetica,sans-Serif" font-size="10.00">fl/audio/audio_reactive.h</text>
</a>
</g>
</g>
<!-- Node1&#45;&gt;Node8 -->
<g id="edge7_Node000001_Node000008" class="edge">
<title>Node1&#45;&gt;Node8</title>
<g id="a_edge7_Node000001_Node000008"><a xlink:title=" ">
<path fill="none" stroke="#63b8ff" d="M1178.24,-445.86C1271.02,-440.38 1483.47,-426.39 1661,-404 1672.89,-402.5 1685.68,-400.53 1697.57,-398.53"/>
<polygon fill="#63b8ff" stroke="#63b8ff" points="1177.84,-442.38 1168.06,-446.45 1178.24,-449.36 1177.84,-442.38"/>
</a>
</g>
</g>
<!-- Node13 -->
<g id="Node000013" class="node">
<title>Node13</title>
<g id="a_Node000013"><a xlink:href="../../db/d88/downbeat_8cpp_8hpp.html" target="_top" xlink:title=" ">
<polygon fill="white" stroke="#666666" points="2019,-398.5 1831,-398.5 1831,-379.5 2019,-379.5 2019,-398.5"/>
<text text-anchor="middle" x="1925" y="-386.5" font-family="Helvetica,sans-Serif" font-size="10.00">fl/audio/detector/downbeat.cpp.hpp</text>
</a>
</g>
</g>
<!-- Node1&#45;&gt;Node13 -->
<g id="edge10_Node000001_Node000013" class="edge">
<title>Node1&#45;&gt;Node13</title>
<g id="a_edge10_Node000001_Node000013"><a xlink:title=" ">
<path fill="none" stroke="#63b8ff" d="M1178.37,-446.58C1290.34,-441.79 1580.02,-427.96 1821,-404 1835.96,-402.51 1852.07,-400.53 1867.05,-398.53"/>
<polygon fill="#63b8ff" stroke="#63b8ff" points="1177.94,-443.09 1168.1,-447.01 1178.24,-450.09 1177.94,-443.09"/>
</a>
</g>
</g>
<!-- Node15 -->
<g id="Node000015" class="node">
<title>Node15</title>
<g id="a_Node000015"><a xlink:href="../../d5/df1/fft__impl_8cpp_8hpp.html" target="_top" xlink:title=" ">
<polygon fill="white" stroke="#666666" points="2185,-398.5 2037,-398.5 2037,-379.5 2185,-379.5 2185,-398.5"/>
<text text-anchor="middle" x="2111" y="-386.5" font-family="Helvetica,sans-Serif" font-size="10.00">fl/audio/fft/fft_impl.cpp.hpp</text>
</a>
</g>
</g>
<!-- Node1&#45;&gt;Node15 -->
<g id="edge13_Node000001_Node000015" class="edge">
<title>Node1&#45;&gt;Node15</title>
<g id="a_edge13_Node000001_Node000015"><a xlink:title=" ">
<path fill="none" stroke="#63b8ff" d="M1178.61,-448.11C1312.68,-446.57 1704.65,-439.17 2028,-404 2040.49,-402.64 2053.96,-400.62 2066.34,-398.52"/>
<polygon fill="#63b8ff" stroke="#63b8ff" points="1178.25,-444.61 1168.29,-448.22 1178.33,-451.61 1178.25,-444.61"/>
</a>
</g>
</g>
<!-- Node17 -->
<g id="Node000017" class="node">
<title>Node17</title>
<g id="a_Node000017"><a xlink:href="../../db/d13/encoders_2apa102_8h.html" target="_top" xlink:title="APA102/DOTSTAR SPI chipset encoder.">
<polygon fill="white" stroke="#666666" points="925.5,-404 812.5,-404 812.5,-374 925.5,-374 925.5,-404"/>
<text text-anchor="start" x="820.5" y="-392" font-family="Helvetica,sans-Serif" font-size="10.00">fl/chipsets/encoders</text>
<text text-anchor="middle" x="869" y="-381" font-family="Helvetica,sans-Serif" font-size="10.00">/apa102.h</text>
</a>
</g>
</g>
<!-- Node1&#45;&gt;Node17 -->
<g id="edge16_Node000001_Node000017" class="edge">
<title>Node1&#45;&gt;Node17</title>
<g id="a_edge16_Node000001_Node000017"><a xlink:title=" ">
<path fill="none" stroke="#63b8ff" d="M1083.8,-437.96C1039.49,-428.07 973.12,-413.25 925.89,-402.7"/>
<polygon fill="#63b8ff" stroke="#63b8ff" points="1083.22,-441.42 1093.74,-440.18 1084.74,-434.59 1083.22,-441.42"/>
</a>
</g>
</g>
<!-- Node90 -->
<g id="Node000090" class="node">
<title>Node90</title>
<g id="a_Node000090"><a xlink:href="../../d7/dd3/encoders_2hd108_8h.html" target="_top" xlink:title="HD108 SPI chipset encoder.">
<polygon fill="white" stroke="#666666" points="1056.5,-404 943.5,-404 943.5,-374 1056.5,-374 1056.5,-404"/>
<text text-anchor="start" x="951.5" y="-392" font-family="Helvetica,sans-Serif" font-size="10.00">fl/chipsets/encoders</text>
<text text-anchor="middle" x="1000" y="-381" font-family="Helvetica,sans-Serif" font-size="10.00">/hd108.h</text>
</a>
</g>
</g>
<!-- Node1&#45;&gt;Node90 -->
<g id="edge28_Node000001_Node000090" class="edge">
<title>Node1&#45;&gt;Node90</title>
<g id="a_edge28_Node000001_Node000090"><a xlink:title=" ">
<path fill="none" stroke="#63b8ff" d="M1102.62,-435.83C1081.67,-426.47 1053.15,-413.74 1031.49,-404.06"/>
<polygon fill="#63b8ff" stroke="#63b8ff" points="1101.39,-439.11 1111.95,-439.99 1104.25,-432.72 1101.39,-439.11"/>
</a>
</g>
</g>
<!-- Node91 -->
<g id="Node000091" class="node">
<title>Node91</title>
<g id="a_Node000091"><a xlink:href="../../de/db9/lpd6803_8h.html" target="_top" xlink:title="LPD6803 SPI chipset encoder.">
<polygon fill="white" stroke="#666666" points="1187.5,-404 1074.5,-404 1074.5,-374 1187.5,-374 1187.5,-404"/>
<text text-anchor="start" x="1082.5" y="-392" font-family="Helvetica,sans-Serif" font-size="10.00">fl/chipsets/encoders</text>
<text text-anchor="middle" x="1131" y="-381" font-family="Helvetica,sans-Serif" font-size="10.00">/lpd6803.h</text>
</a>
</g>
</g>
<!-- Node1&#45;&gt;Node91 -->
<g id="edge30_Node000001_Node000091" class="edge">
<title>Node1&#45;&gt;Node91</title>
<g id="a_edge30_Node000001_Node000091"><a xlink:title=" ">
<path fill="none" stroke="#63b8ff" d="M1131,-429.65C1131,-421.36 1131,-411.78 1131,-404.11"/>
<polygon fill="#63b8ff" stroke="#63b8ff" points="1127.5,-429.87 1131,-439.87 1134.5,-429.87 1127.5,-429.87"/>
</a>
</g>
</g>
<!-- Node92 -->
<g id="Node000092" class="node">
<title>Node92</title>
<g id="a_Node000092"><a xlink:href="../../d7/deb/lpd8806_8h.html" target="_top" xlink:title="LPD8806 SPI chipset encoder.">
<polygon fill="white" stroke="#666666" points="1318.5,-404 1205.5,-404 1205.5,-374 1318.5,-374 1318.5,-404"/>
<text text-anchor="start" x="1213.5" y="-392" font-family="Helvetica,sans-Serif" font-size="10.00">fl/chipsets/encoders</text>
<text text-anchor="middle" x="1262" y="-381" font-family="Helvetica,sans-Serif" font-size="10.00">/lpd8806.h</text>
</a>
</g>
</g>
<!-- Node1&#45;&gt;Node92 -->
<g id="edge32_Node000001_Node000092" class="edge">
<title>Node1&#45;&gt;Node92</title>
<g id="a_edge32_Node000001_Node000092"><a xlink:title=" ">
<path fill="none" stroke="#63b8ff" d="M1159.38,-435.83C1180.33,-426.47 1208.85,-413.74 1230.51,-404.06"/>
<polygon fill="#63b8ff" stroke="#63b8ff" points="1157.75,-432.72 1150.05,-439.99 1160.61,-439.11 1157.75,-432.72"/>
</a>
</g>
</g>
<!-- Node93 -->
<g id="Node000093" class="node">
<title>Node93</title>
<g id="a_Node000093"><a xlink:href="../../dd/d37/encoders_2p9813_8h.html" target="_top" xlink:title="P9813 SPI chipset encoder.">
<polygon fill="white" stroke="#666666" points="1449.5,-404 1336.5,-404 1336.5,-374 1449.5,-374 1449.5,-404"/>
<text text-anchor="start" x="1344.5" y="-392" font-family="Helvetica,sans-Serif" font-size="10.00">fl/chipsets/encoders</text>
<text text-anchor="middle" x="1393" y="-381" font-family="Helvetica,sans-Serif" font-size="10.00">/p9813.h</text>
</a>
</g>
</g>
<!-- Node1&#45;&gt;Node93 -->
<g id="edge34_Node000001_Node000093" class="edge">
<title>Node1&#45;&gt;Node93</title>
<g id="a_edge34_Node000001_Node000093"><a xlink:title=" ">
<path fill="none" stroke="#63b8ff" d="M1178.2,-437.96C1222.51,-428.07 1288.88,-413.25 1336.11,-402.7"/>
<polygon fill="#63b8ff" stroke="#63b8ff" points="1177.26,-434.59 1168.26,-440.18 1178.78,-441.42 1177.26,-434.59"/>
</a>
</g>
</g>
<!-- Node94 -->
<g id="Node000094" class="node">
<title>Node94</title>
<g id="a_Node000094"><a xlink:href="../../db/d2b/pixel__iterator__adapters_8h.html" target="_top" xlink:title="Adapter layer bridging PixelIterator to encoder input iterators.">
<polygon fill="white" stroke="#666666" points="401.5,-404 260.5,-404 260.5,-374 401.5,-374 401.5,-404"/>
<text text-anchor="start" x="268.5" y="-392" font-family="Helvetica,sans-Serif" font-size="10.00">fl/chipsets/encoders</text>
<text text-anchor="middle" x="331" y="-381" font-family="Helvetica,sans-Serif" font-size="10.00">/pixel_iterator_adapters.h</text>
</a>
</g>
</g>
<!-- Node1&#45;&gt;Node94 -->
<g id="edge36_Node000001_Node000094" class="edge">
<title>Node1&#45;&gt;Node94</title>
<g id="a_edge36_Node000001_Node000094"><a xlink:title=" ">
<path fill="none" stroke="#63b8ff" d="M1083.45,-447.43C967.78,-444.44 662.69,-434.09 410,-404 407.23,-403.67 404.42,-403.31 401.58,-402.92"/>
<polygon fill="#63b8ff" stroke="#63b8ff" points="1083.63,-450.94 1093.72,-447.69 1083.81,-443.94 1083.63,-450.94"/>
</a>
</g>
</g>
<!-- Node96 -->
<g id="Node000096" class="node">
<title>Node96</title>
<g id="a_Node000096"><a xlink:href="../../d5/df5/sk9822_8h.html" target="_top" xlink:title="SK9822 SPI chipset encoder.">
<polygon fill="white" stroke="#666666" points="1580.5,-404 1467.5,-404 1467.5,-374 1580.5,-374 1580.5,-404"/>
<text text-anchor="start" x="1475.5" y="-392" font-family="Helvetica,sans-Serif" font-size="10.00">fl/chipsets/encoders</text>
<text text-anchor="middle" x="1524" y="-381" font-family="Helvetica,sans-Serif" font-size="10.00">/sk9822.h</text>
</a>
</g>
</g>
<!-- Node1&#45;&gt;Node96 -->
<g id="edge42_Node000001_Node000096" class="edge">
<title>Node1&#45;&gt;Node96</title>
<g id="a_edge42_Node000001_Node000096"><a xlink:title=" ">
<path fill="none" stroke="#63b8ff" d="M1178.56,-443.14C1242.36,-435.7 1359.08,-421.2 1458,-404 1461,-403.48 1464.07,-402.92 1467.17,-402.33"/>
<polygon fill="#63b8ff" stroke="#63b8ff" points="1177.94,-439.69 1168.41,-444.32 1178.75,-446.65 1177.94,-439.69"/>
</a>
</g>
</g>
<!-- Node97 -->
<g id="Node000097" class="node">
<title>Node97</title>
<g id="a_Node000097"><a xlink:href="../../d4/da2/encoders_2sm16716_8h.html" target="_top" xlink:title="SM16716 SPI chipset encoder.">
<polygon fill="white" stroke="#666666" points="532.5,-404 419.5,-404 419.5,-374 532.5,-374 532.5,-404"/>
<text text-anchor="start" x="427.5" y="-392" font-family="Helvetica,sans-Serif" font-size="10.00">fl/chipsets/encoders</text>
<text text-anchor="middle" x="476" y="-381" font-family="Helvetica,sans-Serif" font-size="10.00">/sm16716.h</text>
</a>
</g>
</g>
<!-- Node1&#45;&gt;Node97 -->
<g id="edge44_Node000001_Node000097" class="edge">
<title>Node1&#45;&gt;Node97</title>
<g id="a_edge44_Node000001_Node000097"><a xlink:title=" ">
<path fill="none" stroke="#63b8ff" d="M1083.75,-447.13C983.36,-443.74 741.55,-433.02 541,-404 538.26,-403.6 535.46,-403.16 532.64,-402.68"/>
<polygon fill="#63b8ff" stroke="#63b8ff" points="1083.76,-450.63 1093.87,-447.46 1083.99,-443.64 1083.76,-450.63"/>
</a>
</g>
</g>
<!-- Node98 -->
<g id="Node000098" class="node">
<title>Node98</title>
<g id="a_Node000098"><a xlink:href="../../d4/ddc/encoders_2ws2801_8h.html" target="_top" xlink:title="WS2801/WS2803 SPI chipset encoder.">
<polygon fill="white" stroke="#666666" points="663.5,-404 550.5,-404 550.5,-374 663.5,-374 663.5,-404"/>
<text text-anchor="start" x="558.5" y="-392" font-family="Helvetica,sans-Serif" font-size="10.00">fl/chipsets/encoders</text>
<text text-anchor="middle" x="607" y="-381" font-family="Helvetica,sans-Serif" font-size="10.00">/ws2801.h</text>
</a>
</g>
</g>
<!-- Node1&#45;&gt;Node98 -->
<g id="edge46_Node000001_Node000098" class="edge">
<title>Node1&#45;&gt;Node98</title>
<g id="a_edge46_Node000001_Node000098"><a xlink:title=" ">
<path fill="none" stroke="#63b8ff" d="M1083.75,-445.73C1000.29,-440.42 821.45,-427.26 672,-404 669.26,-403.57 666.47,-403.1 663.65,-402.6"/>
<polygon fill="#63b8ff" stroke="#63b8ff" points="1083.73,-449.23 1093.93,-446.36 1084.17,-442.25 1083.73,-449.23"/>
</a>
</g>
</g>
<!-- Node99 -->
<g id="Node000099" class="node">
<title>Node99</title>
<g id="a_Node000099"><a xlink:href="../../da/d1e/ws2812_8h.html" target="_top" xlink:title="WS2812/WS2812B/WS2813/NeoPixel encoder.">
<polygon fill="white" stroke="#666666" points="794.5,-404 681.5,-404 681.5,-374 794.5,-374 794.5,-404"/>
<text text-anchor="start" x="689.5" y="-392" font-family="Helvetica,sans-Serif" font-size="10.00">fl/chipsets/encoders</text>
<text text-anchor="middle" x="738" y="-381" font-family="Helvetica,sans-Serif" font-size="10.00">/ws2812.h</text>
</a>
</g>
</g>
<!-- Node1&#45;&gt;Node99 -->
<g id="edge48_Node000001_Node000099" class="edge">
<title>Node1&#45;&gt;Node99</title>
<g id="a_edge48_Node000001_Node000099"><a xlink:title=" ">
<path fill="none" stroke="#63b8ff" d="M1083.8,-443.26C1019.92,-435.9 902.46,-421.43 803,-404 800.27,-403.52 797.48,-403.01 794.67,-402.48"/>
<polygon fill="#63b8ff" stroke="#63b8ff" points="1083.63,-446.76 1093.96,-444.42 1084.43,-439.81 1083.63,-446.76"/>
</a>
</g>
</g>
<!-- Node100 -->
<g id="Node000100" class="node">
<title>Node100</title>
<g id="a_Node000100"><a xlink:href="../../de/d27/ws2816_8h.html" target="_top" xlink:title="WS2816 encoder &#45; converts 16&#45;bit RGB pixels to dual 8&#45;bit RGB format.">
<polygon fill="white" stroke="#666666" points="1434.5,-332.5 1321.5,-332.5 1321.5,-302.5 1434.5,-302.5 1434.5,-332.5"/>
<text text-anchor="start" x="1329.5" y="-320.5" font-family="Helvetica,sans-Serif" font-size="10.00">fl/chipsets/encoders</text>
<text text-anchor="middle" x="1378" y="-309.5" font-family="Helvetica,sans-Serif" font-size="10.00">/ws2816.h</text>
</a>
</g>
</g>
<!-- Node1&#45;&gt;Node100 -->
<g id="edge50_Node000001_Node000100" class="edge">
<title>Node1&#45;&gt;Node100</title>
<g id="a_edge50_Node000001_Node000100"><a xlink:title=" ">
<path fill="none" stroke="#63b8ff" d="M1178.34,-447.43C1289.85,-444.41 1561.76,-434.02 1589,-404 1636.95,-351.17 1512.38,-330.33 1434.74,-322.64"/>
<polygon fill="#63b8ff" stroke="#63b8ff" points="1177.96,-443.93 1168.06,-447.7 1178.15,-450.93 1177.96,-443.93"/>
</a>
</g>
</g>
<!-- Node73 -->
<g id="Node000073" class="node">
<title>Node73</title>
<g id="a_Node000073"><a xlink:href="../../da/dca/noise_8cpp_8hpp.html" target="_top" xlink:title=" ">
<polygon fill="white" stroke="#666666" points="1675,-129 1591,-129 1591,-110 1675,-110 1675,-129"/>
<text text-anchor="middle" x="1633" y="-117" font-family="Helvetica,sans-Serif" font-size="10.00">noise.cpp.hpp</text>
</a>
</g>
</g>
<!-- Node1&#45;&gt;Node73 -->
<g id="edge52_Node000001_Node000073" class="edge">
<title>Node1&#45;&gt;Node73</title>
<g id="a_edge52_Node000001_Node000073"><a xlink:title=" ">
<path fill="none" stroke="#63b8ff" d="M1178.48,-446.78C1292.43,-442.28 1574.53,-428.75 1609,-404 1642.78,-379.75 1647,-360.08 1647,-318.5 1647,-318.5 1647,-318.5 1647,-239.5 1647,-197.9 1638.46,-148.67 1634.72,-129.12"/>
<polygon fill="#63b8ff" stroke="#63b8ff" points="1178.17,-443.29 1168.31,-447.18 1178.44,-450.29 1178.17,-443.29"/>
</a>
</g>
</g>
<!-- Node3 -->
<g id="Node000003" class="node">
<title>Node3</title>
<g id="a_Node000003"><a xlink:href="../../dd/d43/_festival_stick_8ino.html" target="_top" xlink:title=" ">
<polygon fill="white" stroke="#666666" points="189,-338 15,-338 15,-297 189,-297 189,-338"/>
<text text-anchor="start" x="23" y="-326" font-family="Helvetica,sans-Serif" font-size="10.00">/home/runner/work/FastLED</text>
<text text-anchor="start" x="23" y="-315" font-family="Helvetica,sans-Serif" font-size="10.00">/FastLED/examples/FestivalStick</text>
<text text-anchor="middle" x="102" y="-304" font-family="Helvetica,sans-Serif" font-size="10.00">/FestivalStick.ino</text>
</a>
</g>
</g>
<!-- Node2&#45;&gt;Node3 -->
<g id="edge2_Node000002_Node000003" class="edge">
<title>Node2&#45;&gt;Node3</title>
<g id="a_edge2_Node000002_Node000003"><a xlink:title=" ">
<path fill="none" stroke="#63b8ff" d="M102,-363.91C102,-355.47 102,-346.1 102,-338.07"/>
<polygon fill="#63b8ff" stroke="#63b8ff" points="98.5,-363.94 102,-373.94 105.5,-363.94 98.5,-363.94"/>
</a>
</g>
</g>
<!-- Node5 -->
<g id="Node000005" class="node">
<title>Node5</title>
<g id="a_Node000005"><a xlink:href="../../d7/de5/_fast_l_e_d_8cpp_8hpp.html" target="_top" xlink:title=" ">
<polygon fill="white" stroke="#666666" points="1392,-74 1296,-74 1296,-55 1392,-55 1392,-74"/>
<text text-anchor="middle" x="1344" y="-62" font-family="Helvetica,sans-Serif" font-size="10.00">FastLED.cpp.hpp</text>
</a>
</g>
</g>
<!-- Node4&#45;&gt;Node5 -->
<g id="edge4_Node000004_Node000005" class="edge">
<title>Node4&#45;&gt;Node5</title>
<g id="a_edge4_Node000004_Node000005"><a xlink:title=" ">
<path fill="none" stroke="#63b8ff" d="M1176.2,-107.85C1215.64,-97.9 1273.76,-83.23 1310.22,-74.03"/>
<polygon fill="#63b8ff" stroke="#63b8ff" points="1175.19,-104.49 1166.35,-110.33 1176.9,-111.28 1175.19,-104.49"/>
</a>
</g>
</g>
<!-- Node6 -->
<g id="Node000006" class="node">
<title>Node6</title>
<g id="a_Node000006"><a xlink:href="../../d7/dd5/__build_8cpp_8hpp.html" target="_top" xlink:title=" ">
<polygon fill="white" stroke="#666666" points="1597.5,-19 1510.5,-19 1510.5,0 1597.5,0 1597.5,-19"/>
<text text-anchor="middle" x="1554" y="-7" font-family="Helvetica,sans-Serif" font-size="10.00">_build.cpp.hpp</text>
</a>
</g>
</g>
<!-- Node5&#45;&gt;Node6 -->
<g id="edge5_Node000005_Node000006" class="edge">
<title>Node5&#45;&gt;Node6</title>
<g id="a_edge5_Node000005_Node000006"><a xlink:title=" ">
<path fill="none" stroke="#63b8ff" d="M1387.58,-52.5C1426.9,-42.58 1483.95,-28.18 1520,-19.08"/>
<polygon fill="#63b8ff" stroke="#63b8ff" points="1386.58,-49.14 1377.74,-54.98 1388.29,-55.93 1386.58,-49.14"/>
</a>
</g>
</g>
<!-- Node7 -->
<g id="Node000007" class="node">
<title>Node7</title>
<g id="a_Node000007"><a xlink:href="../../dd/de2/src_8cpp.html" target="_top" xlink:title="Unity build: flat includes from src/ root directory.">
<polygon fill="white" stroke="#666666" points="1387.5,-19 1300.5,-19 1300.5,0 1387.5,0 1387.5,-19"/>
<text text-anchor="middle" x="1344" y="-7" font-family="Helvetica,sans-Serif" font-size="10.00">fl/build/src.cpp</text>
</a>
</g>
</g>
<!-- Node5&#45;&gt;Node7 -->
<g id="edge6_Node000005_Node000007" class="edge">
<title>Node5&#45;&gt;Node7</title>
<g id="a_edge6_Node000005_Node000007"><a xlink:title=" ">
<path fill="none" stroke="#63b8ff" d="M1344,-44.66C1344,-35.93 1344,-25.99 1344,-19.09"/>
<polygon fill="#63b8ff" stroke="#63b8ff" points="1340.5,-44.75 1344,-54.75 1347.5,-44.75 1340.5,-44.75"/>
</a>
</g>
</g>
<!-- Node9 -->
<g id="Node000009" class="node">
<title>Node9</title>
<g id="a_Node000009"><a xlink:href="../../d5/dc5/audio__reactive_8cpp_8hpp.html" target="_top" xlink:title=" ">
<polygon fill="white" stroke="#666666" points="1850.5,-327 1681.5,-327 1681.5,-308 1850.5,-308 1850.5,-327"/>
<text text-anchor="middle" x="1766" y="-315" font-family="Helvetica,sans-Serif" font-size="10.00">fl/audio/audio_reactive.cpp.hpp</text>
</a>
</g>
</g>
<!-- Node8&#45;&gt;Node9 -->
<g id="edge8_Node000008_Node000009" class="edge">
<title>Node8&#45;&gt;Node9</title>
<g id="a_edge8_Node000008_Node000009"><a xlink:title=" ">
<path fill="none" stroke="#63b8ff" d="M1749.82,-369.62C1754.17,-355.86 1759.94,-337.65 1763.28,-327.09"/>
<polygon fill="#63b8ff" stroke="#63b8ff" points="1746.38,-368.89 1746.7,-379.48 1753.05,-371 1746.38,-368.89"/>
</a>
</g>
</g>
<!-- Node10 -->
<g id="Node000010" class="node">
<title>Node10</title>
<g id="a_Node000010"><a xlink:href="../../d1/d21/fl_2audio_2__build_8cpp_8hpp.html" target="_top" xlink:title="Unity build header for fl/audio/ directory.">
<polygon fill="#fff0f0" stroke="red" points="1988,-250 1862,-250 1862,-231 1988,-231 1988,-250"/>
<text text-anchor="middle" x="1925" y="-238" font-family="Helvetica,sans-Serif" font-size="10.00">fl/audio/_build.cpp.hpp</text>
</a>
</g>
</g>
<!-- Node9&#45;&gt;Node10 -->
<g id="edge9_Node000009_Node000010" class="edge">
<title>Node9&#45;&gt;Node10</title>
<g id="a_edge9_Node000009_Node000010"><a xlink:title=" ">
<path fill="none" stroke="#63b8ff" d="M1793.63,-303.47C1826.18,-288.12 1879.31,-263.05 1906.97,-250"/>
<polygon fill="#63b8ff" stroke="#63b8ff" points="1791.79,-300.46 1784.24,-307.9 1794.78,-306.8 1791.79,-300.46"/>
</a>
</g>
</g>
<!-- Node14 -->
<g id="Node000014" class="node">
<title>Node14</title>
<g id="a_Node000014"><a xlink:href="../../dc/d6b/fl_2audio_2detector_2__build_8cpp_8hpp.html" target="_top" xlink:title=" ">
<polygon fill="white" stroke="#666666" points="1974.5,-332.5 1875.5,-332.5 1875.5,-302.5 1974.5,-302.5 1974.5,-332.5"/>
<text text-anchor="start" x="1883.5" y="-320.5" font-family="Helvetica,sans-Serif" font-size="10.00">fl/audio/detector/</text>
<text text-anchor="middle" x="1925" y="-309.5" font-family="Helvetica,sans-Serif" font-size="10.00">_build.cpp.hpp</text>
</a>
</g>
</g>
<!-- Node13&#45;&gt;Node14 -->
<g id="edge11_Node000013_Node000014" class="edge">
<title>Node13&#45;&gt;Node14</title>
<g id="a_edge11_Node000013_Node000014"><a xlink:title=" ">
<path fill="none" stroke="#63b8ff" d="M1925,-369.21C1925,-357.69 1925,-343.18 1925,-332.64"/>
<polygon fill="#63b8ff" stroke="#63b8ff" points="1921.5,-369.48 1925,-379.48 1928.5,-369.48 1921.5,-369.48"/>
</a>
</g>
</g>
<!-- Node14&#45;&gt;Node10 -->
<g id="edge12_Node000014_Node000010" class="edge">
<title>Node14&#45;&gt;Node10</title>
<g id="a_edge12_Node000014_Node000010"><a xlink:title=" ">
<path fill="none" stroke="#63b8ff" d="M1925,-292.18C1925,-277.86 1925,-260.61 1925,-250.37"/>
<polygon fill="#63b8ff" stroke="#63b8ff" points="1921.5,-292.39 1925,-302.39 1928.5,-292.39 1921.5,-292.39"/>
</a>
</g>
</g>
<!-- Node16 -->
<g id="Node000016" class="node">
<title>Node16</title>
<g id="a_Node000016"><a xlink:href="../../d4/d06/fl_2audio_2fft_2__build_8cpp_8hpp.html" target="_top" xlink:title=" ">
<polygon fill="white" stroke="#666666" points="2157,-327 2017,-327 2017,-308 2157,-308 2157,-327"/>
<text text-anchor="middle" x="2087" y="-315" font-family="Helvetica,sans-Serif" font-size="10.00">fl/audio/fft/_build.cpp.hpp</text>
</a>
</g>
</g>
<!-- Node15&#45;&gt;Node16 -->
<g id="edge14_Node000015_Node000016" class="edge">
<title>Node15&#45;&gt;Node16</title>
<g id="a_edge14_Node000015_Node000016"><a xlink:title=" ">
<path fill="none" stroke="#63b8ff" d="M2104.65,-369.62C2099.9,-355.86 2093.61,-337.65 2089.97,-327.09"/>
<polygon fill="#63b8ff" stroke="#63b8ff" points="2101.48,-371.17 2108.06,-379.48 2108.1,-368.88 2101.48,-371.17"/>
</a>
</g>
</g>
<!-- Node16&#45;&gt;Node10 -->
<g id="edge15_Node000016_Node000010" class="edge">
<title>Node16&#45;&gt;Node10</title>
<g id="a_edge15_Node000016_Node000010"><a xlink:title=" ">
<path fill="none" stroke="#63b8ff" d="M2059.28,-303.67C2026.16,-288.33 1971.68,-263.11 1943.37,-250"/>
<polygon fill="#63b8ff" stroke="#63b8ff" points="2057.87,-306.87 2068.42,-307.9 2060.81,-300.52 2057.87,-306.87"/>
</a>
</g>
</g>
<!-- Node18 -->
<g id="Node000018" class="node">
<title>Node18</title>
<g id="a_Node000018"><a xlink:href="../../db/d65/fl_2chipsets_2encoders_2pixel__iterator_8h.html" target="_top" xlink:title="Non&#45;templated low level pixel data writing class.">
<polygon fill="white" stroke="#666666" points="938.5,-332.5 825.5,-332.5 825.5,-302.5 938.5,-302.5 938.5,-332.5"/>
<text text-anchor="start" x="833.5" y="-320.5" font-family="Helvetica,sans-Serif" font-size="10.00">fl/chipsets/encoders</text>
<text text-anchor="middle" x="882" y="-309.5" font-family="Helvetica,sans-Serif" font-size="10.00">/pixel_iterator.h</text>
</a>
</g>
</g>
<!-- Node17&#45;&gt;Node18 -->
<g id="edge17_Node000017_Node000018" class="edge">
<title>Node17&#45;&gt;Node18</title>
<g id="a_edge17_Node000017_Node000018"><a xlink:title=" ">
<path fill="none" stroke="#63b8ff" d="M873.47,-364.08C875.44,-353.56 877.68,-341.58 879.37,-332.54"/>
<polygon fill="#63b8ff" stroke="#63b8ff" points="870.03,-363.46 871.63,-373.94 876.91,-364.75 870.03,-363.46"/>
</a>
</g>
</g>
<!-- Node19 -->
<g id="Node000019" class="node">
<title>Node19</title>
<g id="a_Node000019"><a xlink:href="../../d4/df9/_auto_research_test_8cpp.html" target="_top" xlink:title=" ">
<polygon fill="white" stroke="#666666" points="809.5,-261 630.5,-261 630.5,-220 809.5,-220 809.5,-261"/>
<text text-anchor="start" x="638.5" y="-249" font-family="Helvetica,sans-Serif" font-size="10.00">/home/runner/work/FastLED</text>
<text text-anchor="start" x="638.5" y="-238" font-family="Helvetica,sans-Serif" font-size="10.00">/FastLED/examples/AutoResearch</text>
<text text-anchor="middle" x="720" y="-227" font-family="Helvetica,sans-Serif" font-size="10.00">/AutoResearchTest.cpp</text>
</a>
</g>
</g>
<!-- Node18&#45;&gt;Node19 -->
<g id="edge18_Node000018_Node000019" class="edge">
<title>Node18&#45;&gt;Node19</title>
<g id="a_edge18_Node000018_Node000019"><a xlink:title=" ">
<path fill="none" stroke="#63b8ff" d="M842.25,-298.1C817.98,-286.86 786.97,-272.5 762.25,-261.06"/>
<polygon fill="#63b8ff" stroke="#63b8ff" points="840.98,-301.37 851.53,-302.39 843.92,-295.02 840.98,-301.37"/>
</a>
</g>
</g>
<!-- Node20 -->
<g id="Node000020" class="node">
<title>Node20</title>
<g id="a_Node000020"><a xlink:href="../../d0/d00/ucs7604_8h.html" target="_top" xlink:title="UCS7604 LED chipset controller implementation for FastLED.">
<polygon fill="#fff0f0" stroke="red" points="612.5,-250 493.5,-250 493.5,-231 612.5,-231 612.5,-250"/>
<text text-anchor="middle" x="553" y="-238" font-family="Helvetica,sans-Serif" font-size="10.00">fl/chipsets/ucs7604.h</text>
</a>
</g>
</g>
<!-- Node18&#45;&gt;Node20 -->
<g id="edge19_Node000018_Node000020" class="edge">
<title>Node18&#45;&gt;Node20</title>
<g id="a_edge19_Node000018_Node000020"><a xlink:title=" ">
<path fill="none" stroke="#63b8ff" d="M815.54,-303.7C762.62,-293.19 686.77,-277.4 621,-261 607.77,-257.7 593.23,-253.6 581,-250.01"/>
<polygon fill="#63b8ff" stroke="#63b8ff" points="814.99,-307.16 825.48,-305.66 816.35,-300.29 814.99,-307.16"/>
</a>
</g>
</g>
<!-- Node28 -->
<g id="Node000028" class="node">
<title>Node28</title>
<g id="a_Node000028"><a xlink:href="../../d2/d82/fl_2gfx_2pixel__iterator_8h.html" target="_top" xlink:title=" ">
<polygon fill="white" stroke="#666666" points="1071.5,-250 954.5,-250 954.5,-231 1071.5,-231 1071.5,-250"/>
<text text-anchor="middle" x="1013" y="-238" font-family="Helvetica,sans-Serif" font-size="10.00">fl/gfx/pixel_iterator.h</text>
</a>
</g>
</g>
<!-- Node18&#45;&gt;Node28 -->
<g id="edge23_Node000018_Node000028" class="edge">
<title>Node18&#45;&gt;Node28</title>
<g id="a_edge23_Node000018_Node000028"><a xlink:title=" ">
<path fill="none" stroke="#63b8ff" d="M915.6,-297.27C942.12,-282.08 977.89,-261.6 997.87,-250.16"/>
<polygon fill="#63b8ff" stroke="#63b8ff" points="913.58,-294.39 906.64,-302.39 917.06,-300.46 913.58,-294.39"/>
</a>
</g>
</g>
<!-- Node29 -->
<g id="Node000029" class="node">
<title>Node29</title>
<g id="a_Node000029"><a xlink:href="../../d2/d1e/pixel__iterator__any_8h.html" target="_top" xlink:title=" ">
<polygon fill="white" stroke="#666666" points="936.5,-255.5 827.5,-255.5 827.5,-225.5 936.5,-225.5 936.5,-255.5"/>
<text text-anchor="start" x="835.5" y="-243.5" font-family="Helvetica,sans-Serif" font-size="10.00">fl/gfx/pixel_iterator</text>
<text text-anchor="middle" x="882" y="-232.5" font-family="Helvetica,sans-Serif" font-size="10.00">_any.h</text>
</a>
</g>
</g>
<!-- Node18&#45;&gt;Node29 -->
<g id="edge24_Node000018_Node000029" class="edge">
<title>Node18&#45;&gt;Node29</title>
<g id="a_edge24_Node000018_Node000029"><a xlink:title=" ">
<path fill="none" stroke="#63b8ff" d="M882,-292.04C882,-279.95 882,-265.79 882,-255.54"/>
<polygon fill="#63b8ff" stroke="#63b8ff" points="878.5,-292.39 882,-302.39 885.5,-292.39 878.5,-292.39"/>
</a>
</g>
</g>
<!-- Node30 -->
<g id="Node000030" class="node">
<title>Node30</title>
<g id="a_Node000030"><a xlink:href="../../d8/d6c/pixel__iterator_8h.html" target="_top" xlink:title="Legacy header.">
<polygon fill="#fff0f0" stroke="red" points="1178.5,-250 1089.5,-250 1089.5,-231 1178.5,-231 1178.5,-250"/>
<text text-anchor="middle" x="1134" y="-238" font-family="Helvetica,sans-Serif" font-size="10.00">pixel_iterator.h</text>
</a>
</g>
</g>
<!-- Node18&#45;&gt;Node30 -->
<g id="edge26_Node000018_Node000030" class="edge">
<title>Node18&#45;&gt;Node30</title>
<g id="a_edge26_Node000018_Node000030"><a xlink:title=" ">
<path fill="none" stroke="#63b8ff" d="M946.24,-299.77C985.16,-289.32 1035.68,-275.19 1080,-261 1090.44,-257.66 1101.88,-253.59 1111.53,-250.03"/>
<polygon fill="#63b8ff" stroke="#63b8ff" points="944.86,-296.52 936.1,-302.48 946.67,-303.28 944.86,-296.52"/>
</a>
</g>
</g>
<!-- Node21 -->
<g id="Node000021" class="node">
<title>Node21</title>
<g id="a_Node000021"><a xlink:href="../../db/d66/chipsets_8h.html" target="_top" xlink:title="Contains the bulk of the definitions for the various LED chipsets supported.">
<polygon fill="white" stroke="#666666" points="1167,-184 1101,-184 1101,-165 1167,-165 1167,-184"/>
<text text-anchor="middle" x="1134" y="-172" font-family="Helvetica,sans-Serif" font-size="10.00">chipsets.h</text>
</a>
</g>
</g>
<!-- Node20&#45;&gt;Node21 -->
<g id="edge20_Node000020_Node000021" class="edge">
<title>Node20&#45;&gt;Node21</title>
<g id="a_edge20_Node000020_Node000021"><a xlink:title=" ">
<path fill="none" stroke="#63b8ff" d="M588.19,-228.01C598.65,-224.98 610.2,-222 621,-220 800.11,-186.87 1019.07,-178.29 1101,-176.16"/>
<polygon fill="#63b8ff" stroke="#63b8ff" points="587.12,-224.68 578.55,-230.91 589.14,-231.38 587.12,-224.68"/>
</a>
</g>
</g>
<!-- Node22 -->
<g id="Node000022" class="node">
<title>Node22</title>
<g id="a_Node000022"><a xlink:href="../../d3/de6/channel_8cpp_8hpp.html" target="_top" xlink:title=" ">
<polygon fill="#fff0f0" stroke="red" points="629,-184 477,-184 477,-165 629,-165 629,-184"/>
<text text-anchor="middle" x="553" y="-172" font-family="Helvetica,sans-Serif" font-size="10.00">fl/channels/channel.cpp.hpp</text>
</a>
</g>
</g>
<!-- Node20&#45;&gt;Node22 -->
<g id="edge22_Node000020_Node000022" class="edge">
<title>Node20&#45;&gt;Node22</title>
<g id="a_edge22_Node000020_Node000022"><a xlink:title=" ">
<path fill="none" stroke="#63b8ff" d="M553,-220.58C553,-208.63 553,-193.72 553,-184.41"/>
<polygon fill="#63b8ff" stroke="#63b8ff" points="549.5,-220.87 553,-230.87 556.5,-220.87 549.5,-220.87"/>
</a>
</g>
</g>
<!-- Node21&#45;&gt;Node4 -->
<g id="edge21_Node000021_Node000004" class="edge">
<title>Node21&#45;&gt;Node4</title>
<g id="a_edge21_Node000021_Node000004"><a xlink:title=" ">
<path fill="none" stroke="#63b8ff" d="M1134,-154.66C1134,-145.93 1134,-135.99 1134,-129.09"/>
<polygon fill="#63b8ff" stroke="#63b8ff" points="1130.5,-154.75 1134,-164.75 1137.5,-154.75 1130.5,-154.75"/>
</a>
</g>
</g>
<!-- Node29&#45;&gt;Node22 -->
<g id="edge25_Node000029_Node000022" class="edge">
<title>Node29&#45;&gt;Node22</title>
<g id="a_edge25_Node000029_Node000022"><a xlink:title=" ">
<path fill="none" stroke="#63b8ff" d="M828.83,-222.73C825.18,-221.76 821.54,-220.83 818,-220 750.45,-204.11 671.93,-191.66 618,-184.02"/>
<polygon fill="#63b8ff" stroke="#63b8ff" points="827.91,-226.11 838.48,-225.42 829.79,-219.36 827.91,-226.11"/>
</a>
</g>
</g>
<!-- Node30&#45;&gt;Node21 -->
<g id="edge27_Node000030_Node000021" class="edge">
<title>Node30&#45;&gt;Node21</title>
<g id="a_edge27_Node000030_Node000021"><a xlink:title=" ">
<path fill="none" stroke="#63b8ff" d="M1134,-220.58C1134,-208.63 1134,-193.72 1134,-184.41"/>
<polygon fill="#63b8ff" stroke="#63b8ff" points="1130.5,-220.87 1134,-230.87 1137.5,-220.87 1130.5,-220.87"/>
</a>
</g>
</g>
<!-- Node90&#45;&gt;Node18 -->
<g id="edge29_Node000090_Node000018" class="edge">
<title>Node90&#45;&gt;Node18</title>
<g id="a_edge29_Node000090_Node000018"><a xlink:title=" ">
<path fill="none" stroke="#63b8ff" d="M967.27,-368.72C947.79,-357.25 923.51,-342.95 905.84,-332.54"/>
<polygon fill="#63b8ff" stroke="#63b8ff" points="965.73,-371.88 976.12,-373.94 969.28,-365.84 965.73,-371.88"/>
</a>
</g>
</g>
<!-- Node91&#45;&gt;Node18 -->
<g id="edge31_Node000091_Node000018" class="edge">
<title>Node91&#45;&gt;Node18</title>
<g id="a_edge31_Node000091_Node000018"><a xlink:title=" ">
<path fill="none" stroke="#63b8ff" d="M1070.97,-371.24C1028.56,-359.41 972.37,-343.72 932.31,-332.54"/>
<polygon fill="#63b8ff" stroke="#63b8ff" points="1070.04,-374.62 1080.61,-373.94 1071.92,-367.88 1070.04,-374.62"/>
</a>
</g>
</g>
<!-- Node92&#45;&gt;Node18 -->
<g id="edge33_Node000092_Node000018" class="edge">
<title>Node92&#45;&gt;Node18</title>
<g id="a_edge33_Node000092_Node000018"><a xlink:title=" ">
<path fill="none" stroke="#63b8ff" d="M1195.27,-373.9C1099.29,-355.35 999.41,-338.15 938.55,-327.9"/>
<polygon fill="#63b8ff" stroke="#63b8ff" points="1194.66,-377.34 1205.14,-375.81 1195.99,-370.47 1194.66,-377.34"/>
</a>
</g>
</g>
<!-- Node93&#45;&gt;Node18 -->
<g id="edge35_Node000093_Node000018" class="edge">
<title>Node93&#45;&gt;Node18</title>
<g id="a_edge35_Node000093_Node000018"><a xlink:title=" ">
<path fill="none" stroke="#63b8ff" d="M1326.18,-373.96C1180.87,-349.86 1021.67,-332.42 938.77,-324.02"/>
<polygon fill="#63b8ff" stroke="#63b8ff" points="1325.74,-377.43 1336.18,-375.63 1326.89,-370.53 1325.74,-377.43"/>
</a>
</g>
</g>
<!-- Node94&#45;&gt;Node18 -->
<g id="edge37_Node000094_Node000018" class="edge">
<title>Node94&#45;&gt;Node18</title>
<g id="a_edge37_Node000094_Node000018"><a xlink:title=" ">
<path fill="none" stroke="#63b8ff" d="M411.8,-373.78C566.95,-351.19 738.29,-332.9 825.19,-324.1"/>
<polygon fill="#63b8ff" stroke="#63b8ff" points="410.99,-370.36 401.6,-375.28 412,-377.29 410.99,-370.36"/>
</a>
</g>
</g>
<!-- Node95 -->
<g id="Node000095" class="node">
<title>Node95</title>
<g id="a_Node000095"><a xlink:href="../../d4/db7/encoders_2ucs7604_8h.html" target="_top" xlink:title="UCS7604 LED chipset encoder implementation.">
<polygon fill="white" stroke="#666666" points="565.5,-332.5 452.5,-332.5 452.5,-302.5 565.5,-302.5 565.5,-332.5"/>
<text text-anchor="start" x="460.5" y="-320.5" font-family="Helvetica,sans-Serif" font-size="10.00">fl/chipsets/encoders</text>
<text text-anchor="middle" x="509" y="-309.5" font-family="Helvetica,sans-Serif" font-size="10.00">/ucs7604.h</text>
</a>
</g>
</g>
<!-- Node94&#45;&gt;Node95 -->
<g id="edge38_Node000094_Node000095" class="edge">
<title>Node94&#45;&gt;Node95</title>
<g id="a_edge38_Node000094_Node000095"><a xlink:title=" ">
<path fill="none" stroke="#63b8ff" d="M376.43,-370.26C406.42,-358.55 445.18,-343.42 473.03,-332.54"/>
<polygon fill="#63b8ff" stroke="#63b8ff" points="375.06,-367.04 367.02,-373.94 377.61,-373.56 375.06,-367.04"/>
</a>
</g>
</g>
<!-- Node95&#45;&gt;Node19 -->
<g id="edge39_Node000095_Node000019" class="edge">
<title>Node95&#45;&gt;Node19</title>
<g id="a_edge39_Node000095_Node000019"><a xlink:title=" ">
<path fill="none" stroke="#63b8ff" d="M558.27,-298.99C590.23,-287.63 631.92,-272.81 664.96,-261.06"/>
<polygon fill="#63b8ff" stroke="#63b8ff" points="556.94,-295.75 548.69,-302.39 559.28,-302.34 556.94,-295.75"/>
</a>
</g>
</g>
<!-- Node95&#45;&gt;Node20 -->
<g id="edge41_Node000095_Node000020" class="edge">
<title>Node95&#45;&gt;Node20</title>
<g id="a_edge41_Node000095_Node000020"><a xlink:title=" ">
<path fill="none" stroke="#63b8ff" d="M522.53,-293.44C531.07,-278.89 541.61,-260.91 547.79,-250.37"/>
<polygon fill="#63b8ff" stroke="#63b8ff" points="519.32,-292 517.28,-302.39 525.36,-295.54 519.32,-292"/>
</a>
</g>
</g>
<!-- Node95&#45;&gt;Node22 -->
<g id="edge40_Node000095_Node000022" class="edge">
<title>Node95&#45;&gt;Node22</title>
<g id="a_edge40_Node000095_Node000022"><a xlink:title=" ">
<path fill="none" stroke="#63b8ff" d="M493.92,-293.42C482.7,-273.1 471.35,-243.22 484,-220 493.41,-202.73 512.73,-191.15 528.53,-184.14"/>
<polygon fill="#63b8ff" stroke="#63b8ff" points="491.05,-295.44 499.14,-302.29 497.08,-291.89 491.05,-295.44"/>
</a>
</g>
</g>
<!-- Node96&#45;&gt;Node18 -->
<g id="edge43_Node000096_Node000018" class="edge">
<title>Node96&#45;&gt;Node18</title>
<g id="a_edge43_Node000096_Node000018"><a xlink:title=" ">
<path fill="none" stroke="#63b8ff" d="M1457.29,-374.01C1261.35,-344.37 1040.53,-328.28 938.68,-321.83"/>
<polygon fill="#63b8ff" stroke="#63b8ff" points="1456.78,-377.47 1467.19,-375.52 1457.84,-370.55 1456.78,-377.47"/>
</a>
</g>
</g>
<!-- Node97&#45;&gt;Node18 -->
<g id="edge45_Node000097_Node000018" class="edge">
<title>Node97&#45;&gt;Node18</title>
<g id="a_edge45_Node000097_Node000018"><a xlink:title=" ">
<path fill="none" stroke="#63b8ff" d="M542.52,-373.76C647.78,-354.06 759.71,-336.66 825.43,-326.81"/>
<polygon fill="#63b8ff" stroke="#63b8ff" points="541.87,-370.32 532.69,-375.61 543.16,-377.2 541.87,-370.32"/>
</a>
</g>
</g>
<!-- Node98&#45;&gt;Node18 -->
<g id="edge47_Node000098_Node000018" class="edge">
<title>Node98&#45;&gt;Node18</title>
<g id="a_edge47_Node000098_Node000018"><a xlink:title=" ">
<path fill="none" stroke="#63b8ff" d="M672.42,-371.47C719.35,-359.61 781.91,-343.8 826.43,-332.54"/>
<polygon fill="#63b8ff" stroke="#63b8ff" points="671.49,-368.09 662.65,-373.94 673.2,-374.88 671.49,-368.09"/>
</a>
</g>
</g>
<!-- Node99&#45;&gt;Node18 -->
<g id="edge49_Node000099_Node000018" class="edge">
<title>Node99&#45;&gt;Node18</title>
<g id="a_edge49_Node000099_Node000018"><a xlink:title=" ">
<path fill="none" stroke="#63b8ff" d="M776.33,-369.5C800.37,-357.9 830.86,-343.18 852.9,-332.54"/>
<polygon fill="#63b8ff" stroke="#63b8ff" points="774.63,-366.44 767.14,-373.94 777.67,-372.74 774.63,-366.44"/>
</a>
</g>
</g>
<!-- Node100&#45;&gt;Node21 -->
<g id="edge51_Node000100_Node000021" class="edge">
<title>Node100&#45;&gt;Node21</title>
<g id="a_edge51_Node000100_Node000021"><a xlink:title=" ">
<path fill="none" stroke="#63b8ff" d="M1344.94,-297.39C1291.35,-266.43 1187.63,-206.49 1148.99,-184.16"/>
<polygon fill="#63b8ff" stroke="#63b8ff" points="1343.3,-300.49 1353.71,-302.46 1346.81,-294.43 1343.3,-300.49"/>
</a>
</g>
</g>
<!-- Node73&#45;&gt;Node6 -->
<g id="edge53_Node000073_Node000006" class="edge">
<title>Node73&#45;&gt;Node6</title>
<g id="a_edge53_Node000073_Node000006"><a xlink:title=" ">
<path fill="none" stroke="#63b8ff" d="M1620.48,-101.38C1603.38,-78.01 1573.36,-36.97 1560.33,-19.16"/>
<polygon fill="#63b8ff" stroke="#63b8ff" points="1617.81,-103.66 1626.54,-109.66 1623.46,-99.52 1617.81,-103.66"/>
</a>
</g>
</g>
</g>
</svg>

<g id="navigator" transform="translate(0 0)" fill="#404254">
  <rect fill="#f2f5e9" fill-opacity="0.5" stroke="#606060" stroke-width=".5" x="0" y="0" width="60" height="60"/>
  <use id="zoomplus" xlink:href="#zoomPlus" x="17" y="9" onmousedown="handleZoom(evt,'in')"/>
  <use id="zoomminus" xlink:href="#zoomMin" x="42" y="9" onmousedown="handleZoom(evt,'out')"/>
  <use id="reset" xlink:href="#resetDef" x="30" y="36" onmousedown="handleReset()"/>
   <use id="arrowup" xlink:href="#arrowUp" x="0" y="0" onmousedown="handlePan(0,-1)"/>
  <use id="arrowright" xlink:href="#arrowRight" x="0" y="0" onmousedown="handlePan(1,0)"/>
  <use id="arrowdown" xlink:href="#arrowDown" x="0" y="0" onmousedown="handlePan(0,1)"/>
  <use id="arrowleft" xlink:href="#arrowLeft" x="0" y="0" onmousedown="handlePan(-1,0)"/>
</g>
<svg viewBox="0 0 15 15" width="100%" height="30px" preserveAspectRatio="xMaxYMin meet">
 <g id="arrow_out" transform="scale(0.3 0.3)">
  <a xlink:href="array_8h__dep__incl_org.svg" target="_base">
   <rect id="button" ry="5" rx="5" y="6" x="6" height="38" width="38"
        fill="#f2f5e9" fill-opacity="0.5" stroke="#606060" stroke-width="1.0"/>
   <path id="arrow"
     d="M 11.500037,31.436501 C 11.940474,20.09759 22.043105,11.32322 32.158766,21.979434 L 37.068811,17.246167 C 37.068811,17.246167 37.088388,32 37.088388,32 L 22.160133,31.978069 C 22.160133,31.978069 26.997745,27.140456 26.997745,27.140456 C 18.528582,18.264221 13.291696,25.230495 11.500037,31.436501 z"
     style="fill:#404040;"/>
  </a>
 </g>
</svg>

<style type='text/css'>
<![CDATA[
[data-mouse-over-selected='false'] { opacity: 0.7; }
[data-mouse-over-selected='true']  { opacity: 1.0; }
]]>
</style>
<script type="application/ecmascript"><![CDATA[
document.addEventListener('DOMContentLoaded', (event) => {
  highlightEdges();
  highlightAdjacentNodes();
});
]]></script>
</svg>
