<?xml version="1.0" encoding="UTF-8" standalone="no"?>
<!DOCTYPE svg PUBLIC "-//W3C//DTD SVG 1.1//EN"
 "http://www.w3.org/Graphics/SVG/1.1/DTD/svg11.dtd">
<!-- Generated by graphviz version 2.43.0 (0)
 -->
<!-- Title: fl::test::Approx::Approx Pages: 1 -->
<svg width="324pt" height="397pt"
 viewBox="0.00 0.00 324.00 397.00" xmlns="http://www.w3.org/2000/svg" xmlns:xlink="http://www.w3.org/1999/xlink">

<svg id="main" version="1.1" xmlns="http://www.w3.org/2000/svg" xmlns:xlink="http://www.w3.org/1999/xlink" xml:space="preserve">

<style type="text/css"><![CDATA[
.node, .edge {opacity: 0.7;}
.node.selected, .edge.selected {opacity: 1;}
.edge:hover path { stroke: red; }
.edge:hover polygon { stroke: red; fill: red; }
]]></style>
<script type="application/ecmascript" xlink:href="../../svg.min.js"/>
<svg id="graph" class="graph">
<g id="graph0" class="graph" transform="scale(1 1) rotate(0) translate(4 393)">
<title>fl::test::Approx::Approx</title>
<!-- Node1 -->
<g id="Node000001" class="node">
<title>Node1</title>
<g id="a_Node000001"><a xlink:title=" ">
<polygon fill="#999999" stroke="#666666" points="316,-204 188,-204 188,-185 316,-185 316,-204"/>
<text text-anchor="middle" x="252" y="-192" font-family="Helvetica,sans-Serif" font-size="10.00">fl::test::Approx::Approx</text>
</a>
</g>
</g>
<!-- Node2 -->
<g id="Node000002" class="node">
<title>Node2</title>
<g id="a_Node000002"><a xlink:href="../../d8/d49/classfl_1_1test_1_1_approx_a5653f7023e5fb8c76abc70a788a93549.html#a5653f7023e5fb8c76abc70a788a93549" target="_top" xlink:title="Set custom relative epsilon for comparison Comparison uses: epsilon * (scale + max(|a|,...">
<polygon fill="white" stroke="#666666" points="140.5,-389 11.5,-389 11.5,-370 140.5,-370 140.5,-389"/>
<text text-anchor="middle" x="76" y="-377" font-family="Helvetica,sans-Serif" font-size="10.00">fl::test::Approx::epsilon</text>
</a>
</g>
</g>
<!-- Node1&#45;&gt;Node2 -->
<g id="edge1_Node000001_Node000002" class="edge">
<title>Node1&#45;&gt;Node2</title>
<g id="a_edge1_Node000001_Node000002"><a xlink:title=" ">
<path fill="none" stroke="#63b8ff" d="M245.15,-213.82C233.48,-248.96 203.86,-323.24 152,-361.5 147.37,-364.92 142.17,-367.7 136.74,-369.95"/>
<polygon fill="#63b8ff" stroke="#63b8ff" points="248.5,-214.84 248.2,-204.25 241.83,-212.72 248.5,-214.84"/>
</a>
</g>
</g>
<!-- Node3 -->
<g id="Node000003" class="node">
<title>Node3</title>
<g id="a_Node000003"><a xlink:href="../../d8/d49/classfl_1_1test_1_1_approx_a073803b5163856464d750876f8fb873f.html#a073803b5163856464d750876f8fb873f" target="_top" xlink:title="Set absolute margin for comparison When margin &gt; 0, passes if |a &#45; b| &lt;= margin.">
<polygon fill="white" stroke="#666666" points="140,-352 12,-352 12,-333 140,-333 140,-352"/>
<text text-anchor="middle" x="76" y="-340" font-family="Helvetica,sans-Serif" font-size="10.00">fl::test::Approx::margin</text>
</a>
</g>
</g>
<!-- Node1&#45;&gt;Node3 -->
<g id="edge2_Node000001_Node000003" class="edge">
<title>Node1&#45;&gt;Node3</title>
<g id="a_edge2_Node000001_Node000003"><a xlink:title=" ">
<path fill="none" stroke="#63b8ff" d="M241.95,-213.47C227.24,-242.15 195.39,-296.21 152,-324.5 146.73,-327.94 140.86,-330.72 134.8,-332.97"/>
<polygon fill="#63b8ff" stroke="#63b8ff" points="245.27,-214.65 246.58,-204.14 239,-211.54 245.27,-214.65"/>
</a>
</g>
</g>
<!-- Node4 -->
<g id="Node000004" class="node">
<title>Node4</title>
<g id="a_Node000004"><a xlink:href="../../d8/d49/classfl_1_1test_1_1_approx_adc6cc0762efdb32b3e0c30f6327cfba7.html#adc6cc0762efdb32b3e0c30f6327cfba7" target="_top" xlink:title=" ">
<polygon fill="white" stroke="#666666" points="149.5,-315 2.5,-315 2.5,-296 149.5,-296 149.5,-315"/>
<text text-anchor="middle" x="76" y="-303" font-family="Helvetica,sans-Serif" font-size="10.00">fl::test::Approx::operator!=</text>
</a>
</g>
</g>
<!-- Node1&#45;&gt;Node4 -->
<g id="edge3_Node000001_Node000004" class="edge">
<title>Node1&#45;&gt;Node4</title>
<g id="a_edge3_Node000001_Node000004"><a xlink:title=" ">
<path fill="none" stroke="#63b8ff" d="M237.36,-211.97C219.88,-233.13 187.57,-268.31 152,-287.5 145.64,-290.93 138.62,-293.72 131.51,-295.98"/>
<polygon fill="#63b8ff" stroke="#63b8ff" points="240.15,-214.09 243.71,-204.1 234.71,-209.69 240.15,-214.09"/>
</a>
</g>
</g>
<!-- Node5 -->
<g id="Node000005" class="node">
<title>Node5</title>
<g id="a_Node000005"><a xlink:href="../../d8/d49/classfl_1_1test_1_1_approx_a771388f1bb75b85bc2d7c68d77a07b7d.html#a771388f1bb75b85bc2d7c68d77a07b7d" target="_top" xlink:title=" ">
<polygon fill="white" stroke="#666666" points="149.5,-278 2.5,-278 2.5,-259 149.5,-259 149.5,-278"/>
<text text-anchor="middle" x="76" y="-266" font-family="Helvetica,sans-Serif" font-size="10.00">fl::test::Approx::operator!=</text>
</a>
</g>
</g>
<!-- Node1&#45;&gt;Node5 -->
<g id="edge4_Node000001_Node000005" class="edge">
<title>Node1&#45;&gt;Node5</title>
<g id="a_edge4_Node000001_Node000005"><a xlink:title=" ">
<path fill="none" stroke="#63b8ff" d="M228.39,-209.72C208.89,-222.24 179.6,-239.63 152,-250.5 143.65,-253.79 134.54,-256.59 125.63,-258.93"/>
<polygon fill="#63b8ff" stroke="#63b8ff" points="230.41,-212.58 236.88,-204.18 226.59,-206.72 230.41,-212.58"/>
</a>
</g>
</g>
<!-- Node6 -->
<g id="Node000006" class="node">
<title>Node6</title>
<g id="a_Node000006"><a xlink:href="../../d8/d49/classfl_1_1test_1_1_approx_aefe418181efb04a42d064d2144106238.html#aefe418181efb04a42d064d2144106238" target="_top" xlink:title=" ">
<polygon fill="white" stroke="#666666" points="147.5,-241 4.5,-241 4.5,-222 147.5,-222 147.5,-241"/>
<text text-anchor="middle" x="76" y="-229" font-family="Helvetica,sans-Serif" font-size="10.00">fl::test::Approx::operator&lt;</text>
</a>
</g>
</g>
<!-- Node1&#45;&gt;Node6 -->
<g id="edge5_Node000001_Node000006" class="edge">
<title>Node1&#45;&gt;Node6</title>
<g id="a_edge5_Node000001_Node000006"><a xlink:title=" ">
<path fill="none" stroke="#63b8ff" d="M196.2,-206.15C172.3,-211.23 144.63,-217.12 121.96,-221.94"/>
<polygon fill="#63b8ff" stroke="#63b8ff" points="197.14,-209.53 206.19,-204.03 195.68,-202.68 197.14,-209.53"/>
</a>
</g>
</g>
<!-- Node7 -->
<g id="Node000007" class="node">
<title>Node7</title>
<g id="a_Node000007"><a xlink:href="../../d8/d49/classfl_1_1test_1_1_approx_a196ec17234c4f14ab20e1f5900cb723a.html#a196ec17234c4f14ab20e1f5900cb723a" target="_top" xlink:title=" ">
<polygon fill="white" stroke="#666666" points="152,-204 0,-204 0,-185 152,-185 152,-204"/>
<text text-anchor="middle" x="76" y="-192" font-family="Helvetica,sans-Serif" font-size="10.00">fl::test::Approx::operator&lt;=</text>
</a>
</g>
</g>
<!-- Node1&#45;&gt;Node7 -->
<g id="edge6_Node000001_Node000007" class="edge">
<title>Node1&#45;&gt;Node7</title>
<g id="a_edge6_Node000001_Node000007"><a xlink:title=" ">
<path fill="none" stroke="#63b8ff" d="M177.53,-194.5C169.12,-194.5 160.53,-194.5 152.09,-194.5"/>
<polygon fill="#63b8ff" stroke="#63b8ff" points="177.69,-198 187.69,-194.5 177.69,-191 177.69,-198"/>
</a>
</g>
</g>
<!-- Node8 -->
<g id="Node000008" class="node">
<title>Node8</title>
<g id="a_Node000008"><a xlink:href="../../d8/d49/classfl_1_1test_1_1_approx_a81d29726335ea8d8b785f38a06fcb464.html#a81d29726335ea8d8b785f38a06fcb464" target="_top" xlink:title=" ">
<polygon fill="white" stroke="#666666" points="152,-167 0,-167 0,-148 152,-148 152,-167"/>
<text text-anchor="middle" x="76" y="-155" font-family="Helvetica,sans-Serif" font-size="10.00">fl::test::Approx::operator==</text>
</a>
</g>
</g>
<!-- Node1&#45;&gt;Node8 -->
<g id="edge7_Node000001_Node000008" class="edge">
<title>Node1&#45;&gt;Node8</title>
<g id="a_edge7_Node000001_Node000008"><a xlink:title=" ">
<path fill="none" stroke="#63b8ff" d="M196.2,-182.85C172.3,-177.77 144.63,-171.88 121.96,-167.06"/>
<polygon fill="#63b8ff" stroke="#63b8ff" points="195.68,-186.32 206.19,-184.97 197.14,-179.47 195.68,-186.32"/>
</a>
</g>
</g>
<!-- Node9 -->
<g id="Node000009" class="node">
<title>Node9</title>
<g id="a_Node000009"><a xlink:href="../../d8/d49/classfl_1_1test_1_1_approx_a1eaac3f7cf44d6fbceaaebb86a7618d1.html#a1eaac3f7cf44d6fbceaaebb86a7618d1" target="_top" xlink:title=" ">
<polygon fill="white" stroke="#666666" points="152,-130 0,-130 0,-111 152,-111 152,-130"/>
<text text-anchor="middle" x="76" y="-118" font-family="Helvetica,sans-Serif" font-size="10.00">fl::test::Approx::operator==</text>
</a>
</g>
</g>
<!-- Node1&#45;&gt;Node9 -->
<g id="edge8_Node000001_Node000009" class="edge">
<title>Node1&#45;&gt;Node9</title>
<g id="a_edge8_Node000001_Node000009"><a xlink:title=" ">
<path fill="none" stroke="#63b8ff" d="M227.98,-179.45C208.44,-167.24 179.3,-150.33 152,-139.5 142.76,-135.84 132.6,-132.7 122.81,-130.1"/>
<polygon fill="#63b8ff" stroke="#63b8ff" points="226.18,-182.46 236.5,-184.86 229.93,-176.55 226.18,-182.46"/>
</a>
</g>
</g>
<!-- Node10 -->
<g id="Node000010" class="node">
<title>Node10</title>
<g id="a_Node000010"><a xlink:href="../../d8/d49/classfl_1_1test_1_1_approx_a07c951630a0d6e1305e4a49d8d4e91a6.html#a07c951630a0d6e1305e4a49d8d4e91a6" target="_top" xlink:title=" ">
<polygon fill="white" stroke="#666666" points="147.5,-93 4.5,-93 4.5,-74 147.5,-74 147.5,-93"/>
<text text-anchor="middle" x="76" y="-81" font-family="Helvetica,sans-Serif" font-size="10.00">fl::test::Approx::operator&gt;</text>
</a>
</g>
</g>
<!-- Node1&#45;&gt;Node10 -->
<g id="edge9_Node000001_Node000010" class="edge">
<title>Node1&#45;&gt;Node10</title>
<g id="a_edge9_Node000001_Node000010"><a xlink:title=" ">
<path fill="none" stroke="#63b8ff" d="M237.01,-176.97C219.39,-156.09 187.14,-121.63 152,-102.5 144.92,-98.65 137.04,-95.56 129.12,-93.08"/>
<polygon fill="#63b8ff" stroke="#63b8ff" points="234.36,-179.27 243.43,-184.75 239.76,-174.81 234.36,-179.27"/>
</a>
</g>
</g>
<!-- Node11 -->
<g id="Node000011" class="node">
<title>Node11</title>
<g id="a_Node000011"><a xlink:href="../../d8/d49/classfl_1_1test_1_1_approx_ac7e9638fe448ad010be2ca8ec0404572.html#ac7e9638fe448ad010be2ca8ec0404572" target="_top" xlink:title=" ">
<polygon fill="white" stroke="#666666" points="152,-56 0,-56 0,-37 152,-37 152,-56"/>
<text text-anchor="middle" x="76" y="-44" font-family="Helvetica,sans-Serif" font-size="10.00">fl::test::Approx::operator&gt;=</text>
</a>
</g>
</g>
<!-- Node1&#45;&gt;Node11 -->
<g id="edge10_Node000001_Node000011" class="edge">
<title>Node1&#45;&gt;Node11</title>
<g id="a_edge10_Node000001_Node000011"><a xlink:title=" ">
<path fill="none" stroke="#63b8ff" d="M241.87,-175.75C227.05,-147.37 195.05,-93.84 152,-65.5 146.05,-61.59 139.35,-58.48 132.47,-56.01"/>
<polygon fill="#63b8ff" stroke="#63b8ff" points="238.89,-177.63 246.53,-184.97 245.14,-174.47 238.89,-177.63"/>
</a>
</g>
</g>
<!-- Node12 -->
<g id="Node000012" class="node">
<title>Node12</title>
<g id="a_Node000012"><a xlink:href="../../d8/d49/classfl_1_1test_1_1_approx_a7aa052c8a9b372a463de0c814f1fc72d.html#a7aa052c8a9b372a463de0c814f1fc72d" target="_top" xlink:title="Set custom scale for comparison.">
<polygon fill="white" stroke="#666666" points="135.5,-19 16.5,-19 16.5,0 135.5,0 135.5,-19"/>
<text text-anchor="middle" x="76" y="-7" font-family="Helvetica,sans-Serif" font-size="10.00">fl::test::Approx::scale</text>
</a>
</g>
</g>
<!-- Node1&#45;&gt;Node12 -->
<g id="edge11_Node000001_Node000012" class="edge">
<title>Node1&#45;&gt;Node12</title>
<g id="a_edge11_Node000001_Node000012"><a xlink:title=" ">
<path fill="none" stroke="#63b8ff" d="M244.92,-174.9C233.01,-139.89 203.22,-66.68 152,-28.5 146.83,-24.65 140.96,-21.57 134.84,-19.12"/>
<polygon fill="#63b8ff" stroke="#63b8ff" points="241.73,-176.42 248.16,-184.84 248.39,-174.25 241.73,-176.42"/>
</a>
</g>
</g>
</g>
</svg>
</svg>

<style type='text/css'>
<![CDATA[
[data-mouse-over-selected='false'] { opacity: 0.7; }
[data-mouse-over-selected='true']  { opacity: 1.0; }
]]>
</style>
<script type="application/ecmascript"><![CDATA[
document.addEventListener('DOMContentLoaded', (event) => {
  highlightEdges();
  highlightAdjacentNodes();
});
]]></script>
</svg>
