<?xml version="1.0" encoding="UTF-8" standalone="no"?>
<!DOCTYPE svg PUBLIC "-//W3C//DTD SVG 1.1//EN"
 "http://www.w3.org/Graphics/SVG/1.1/DTD/svg11.dtd">
<!-- Generated by graphviz version 2.43.0 (0)
 -->
<!-- Title: fl::Corkscrew::Corkscrew Pages: 1 -->
<!--zoomable 364 -->

<svg id="main" version="1.1" xmlns="http://www.w3.org/2000/svg" xmlns:xlink="http://www.w3.org/1999/xlink" xml:space="preserve" onload="init(evt)">

<style type="text/css"><![CDATA[
.node, .edge {opacity: 0.7;}
.node.selected, .edge.selected {opacity: 1;}
.edge:hover path { stroke: red; }
.edge:hover polygon { stroke: red; fill: red; }
]]></style>

<defs>
  <circle id="rim" cx="0" cy="0" r="7"/>
  <circle id="rim2" cx="0" cy="0" r="3.5"/>
  <g id="zoomPlus">
    <use xlink:href="#rim" fill="#404040"><set attributeName="fill" to="#808080" begin="zoomplus.mouseover" end="zoomplus.mouseout"/></use>
    <path d="M-4,0h8M0,-4v8" fill="none" stroke="white" stroke-width="1.5" pointer-events="none"/>
  </g>
  <g id="zoomMin">
    <use xlink:href="#rim" fill="#404040"><set attributeName="fill" to="#808080" begin="zoomminus.mouseover" end="zoomminus.mouseout"/></use>
    <path d="M-4,0h8" fill="none" stroke="white" stroke-width="1.5" pointer-events="none"/>
  </g>
  <g id="arrowUp" transform="translate(30 24)">
    <use xlink:href="#rim"/>
    <path pointer-events="none" fill="none" stroke="white" stroke-width="1.5" d="M0,-3.0v7 M-2.5,-0.5L0,-3.0L2.5,-0.5"/>
  </g>
  <g id="arrowRight" transform="rotate(90) translate(36 -43)">
    <use xlink:href="#rim"/>
    <path pointer-events="none" fill="none" stroke="white" stroke-width="1.5" d="M0,-3.0v7 M-2.5,-0.5L0,-3.0L2.5,-0.5"/>
  </g>
  <g id="arrowDown" transform="rotate(180) translate(-30 -48)">
    <use xlink:href="#rim"/>
    <path pointer-events="none" fill="none" stroke="white" stroke-width="1.5" d="M0,-3.0v7 M-2.5,-0.5L0,-3.0L2.5,-0.5"/>
  </g>
  <g id="arrowLeft" transform="rotate(270) translate(-36 17)">
    <use xlink:href="#rim"/>
    <path pointer-events="none" fill="none" stroke="white" stroke-width="1.5" d="M0,-3.0v7 M-2.5,-0.5L0,-3.0L2.5,-0.5"/>
  </g>
  <g id="resetDef">
    <use xlink:href="#rim2" fill="#404040"><set attributeName="fill" to="#808080" begin="reset.mouseover" end="reset.mouseout"/></use>
  </g>
</defs>
<script type="application/ecmascript">
var viewWidth = 503;
var viewHeight = 364;
var sectionId = 'dynsection-0';
</script>
<script type="application/ecmascript" xlink:href="../../svg.min.js"/>
<svg id="graph" class="graph">
<g id="viewport">
<title>fl::Corkscrew::Corkscrew</title>
<!-- Node1 -->
<g id="Node000001" class="node">
<title>Node1</title>
<g id="a_Node000001"><a xlink:title=" ">
<polygon fill="#999999" stroke="#666666" points="495,-203 359,-203 359,-184 495,-184 495,-203"/>
<text text-anchor="middle" x="427" y="-191" font-family="Helvetica,sans-Serif" font-size="10.00">fl::Corkscrew::Corkscrew</text>
</a>
</g>
</g>
<!-- Node2 -->
<g id="Node000002" class="node">
<title>Node2</title>
<g id="a_Node000002"><a xlink:href="../../dc/d82/classfl_1_1_corkscrew_a0b9b05436f10d68546bd80792a6cdae0.html#a0b9b05436f10d68546bd80792a6cdae0" target="_top" xlink:title=" ">
<polygon fill="white" stroke="#666666" points="313,-262 177,-262 177,-243 313,-243 313,-262"/>
<text text-anchor="middle" x="245" y="-250" font-family="Helvetica,sans-Serif" font-size="10.00">fl::Corkscrew::Corkscrew</text>
</a>
</g>
</g>
<!-- Node1&#45;&gt;Node2 -->
<g id="edge1_Node000001_Node000002" class="edge">
<title>Node1&#45;&gt;Node2</title>
<g id="a_edge1_Node000001_Node000002"><a xlink:title=" ">
<path fill="none" stroke="#63b8ff" d="M395.3,-207.12C375.05,-215.75 347.78,-226.72 323,-234.5 313.05,-237.63 302.22,-240.48 291.91,-242.95"/>
<polygon fill="#63b8ff" stroke="#63b8ff" points="396.84,-210.27 404.64,-203.09 394.07,-203.84 396.84,-210.27"/>
</a>
</g>
</g>
<!-- Node3 -->
<g id="Node000003" class="node">
<title>Node3</title>
<g id="a_Node000003"><a xlink:href="../../dc/d82/classfl_1_1_corkscrew_ac03fa6bc34f2267aa23e73e165fd0379.html#ac03fa6bc34f2267aa23e73e165fd0379" target="_top" xlink:title=" ">
<polygon fill="white" stroke="#666666" points="313,-225 177,-225 177,-206 313,-206 313,-225"/>
<text text-anchor="middle" x="245" y="-213" font-family="Helvetica,sans-Serif" font-size="10.00">fl::Corkscrew::Corkscrew</text>
</a>
</g>
</g>
<!-- Node1&#45;&gt;Node3 -->
<g id="edge2_Node000001_Node000003" class="edge">
<title>Node1&#45;&gt;Node3</title>
<g id="a_edge2_Node000001_Node000003"><a xlink:title=" ">
<path fill="none" stroke="#63b8ff" d="M349.02,-202.91C337.07,-204.37 324.8,-205.87 313.08,-207.3"/>
<polygon fill="#63b8ff" stroke="#63b8ff" points="349.47,-206.38 358.97,-201.69 348.62,-199.43 349.47,-206.38"/>
</a>
</g>
</g>
<!-- Node4 -->
<g id="Node000004" class="node">
<title>Node4</title>
<g id="a_Node000004"><a xlink:href="../../d4/dd7/classfl_1_1_corkscrew_1_1iterator_a8253f56b79da51862b35afde101cd9f7.html#a8253f56b79da51862b35afde101cd9f7" target="_top" xlink:title=" ">
<polygon fill="white" stroke="#666666" points="305.5,-187.5 184.5,-187.5 184.5,-157.5 305.5,-157.5 305.5,-187.5"/>
<text text-anchor="start" x="192.5" y="-175.5" font-family="Helvetica,sans-Serif" font-size="10.00">fl::Corkscrew::iterator</text>
<text text-anchor="middle" x="245" y="-164.5" font-family="Helvetica,sans-Serif" font-size="10.00">::iterator</text>
</a>
</g>
</g>
<!-- Node1&#45;&gt;Node4 -->
<g id="edge3_Node000001_Node000004" class="edge">
<title>Node1&#45;&gt;Node4</title>
<g id="a_edge3_Node000001_Node000004"><a xlink:title=" ">
<path fill="none" stroke="#63b8ff" d="M349.02,-184.52C334.52,-182.83 319.55,-181.08 305.67,-179.46"/>
<polygon fill="#63b8ff" stroke="#63b8ff" points="348.64,-188 358.97,-185.68 349.45,-181.05 348.64,-188"/>
</a>
</g>
</g>
<!-- Node12 -->
<g id="Node000012" class="node">
<title>Node12</title>
<g id="a_Node000012"><a xlink:href="../../dc/d82/classfl_1_1_corkscrew_a433919707f059662d23b3c7e4afa0641.html#a433919707f059662d23b3c7e4afa0641" target="_top" xlink:title=" ">
<polygon fill="white" stroke="#666666" points="323,-91 167,-91 167,-72 323,-72 323,-91"/>
<text text-anchor="middle" x="245" y="-79" font-family="Helvetica,sans-Serif" font-size="10.00">fl::Corkscrew::readFromMulti</text>
</a>
</g>
</g>
<!-- Node1&#45;&gt;Node12 -->
<g id="edge11_Node000001_Node000012" class="edge">
<title>Node1&#45;&gt;Node12</title>
<g id="a_edge11_Node000001_Node000012"><a xlink:title=" ">
<path fill="none" stroke="#63b8ff" d="M401.86,-178.48C364.22,-155.06 292.62,-110.51 261.31,-91.02"/>
<polygon fill="#63b8ff" stroke="#63b8ff" points="400.31,-181.64 410.65,-183.95 404.01,-175.7 400.31,-181.64"/>
</a>
</g>
</g>
<!-- Node5 -->
<g id="Node000005" class="node">
<title>Node5</title>
<g id="a_Node000005"><a xlink:href="../../d4/dd7/classfl_1_1_corkscrew_1_1iterator_a5d3e3530e6207f879681f6e2a62a92eb.html#a5d3e3530e6207f879681f6e2a62a92eb" target="_top" xlink:title=" ">
<polygon fill="white" stroke="#666666" points="126,-355.5 5,-355.5 5,-325.5 126,-325.5 126,-355.5"/>
<text text-anchor="start" x="13" y="-343.5" font-family="Helvetica,sans-Serif" font-size="10.00">fl::Corkscrew::iterator</text>
<text text-anchor="middle" x="65.5" y="-332.5" font-family="Helvetica,sans-Serif" font-size="10.00">::operator!=</text>
</a>
</g>
</g>
<!-- Node4&#45;&gt;Node5 -->
<g id="edge4_Node000004_Node000005" class="edge">
<title>Node4&#45;&gt;Node5</title>
<g id="a_edge4_Node000004_Node000005"><a xlink:title=" ">
<path fill="none" stroke="#63b8ff" d="M175.34,-190.51C172.34,-192.59 169.54,-194.91 167,-197.5 128.32,-236.96 168.83,-276.23 131,-316.5 127.81,-319.9 124.09,-322.81 120.09,-325.32"/>
<polygon fill="#63b8ff" stroke="#63b8ff" points="177.39,-193.36 184.22,-185.26 173.83,-187.34 177.39,-193.36"/>
</a>
</g>
</g>
<!-- Node6 -->
<g id="Node000006" class="node">
<title>Node6</title>
<g id="a_Node000006"><a xlink:href="../../d4/dd7/classfl_1_1_corkscrew_1_1iterator_aa6defe68635ff36916127a2ce96358f6.html#aa6defe68635ff36916127a2ce96358f6" target="_top" xlink:title=" ">
<polygon fill="white" stroke="#666666" points="126,-307.5 5,-307.5 5,-277.5 126,-277.5 126,-307.5"/>
<text text-anchor="start" x="13" y="-295.5" font-family="Helvetica,sans-Serif" font-size="10.00">fl::Corkscrew::iterator</text>
<text text-anchor="middle" x="65.5" y="-284.5" font-family="Helvetica,sans-Serif" font-size="10.00">::operator++</text>
</a>
</g>
</g>
<!-- Node4&#45;&gt;Node6 -->
<g id="edge5_Node000004_Node000006" class="edge">
<title>Node4&#45;&gt;Node6</title>
<g id="a_edge5_Node000004_Node000006"><a xlink:title=" ">
<path fill="none" stroke="#63b8ff" d="M175.22,-191.48C172.32,-193.31 169.56,-195.31 167,-197.5 140.12,-220.5 157.39,-244.94 131,-268.5 127.17,-271.92 122.8,-274.87 118.19,-277.41"/>
<polygon fill="#63b8ff" stroke="#63b8ff" points="177.18,-194.39 184.26,-186.51 173.81,-188.26 177.18,-194.39"/>
</a>
</g>
</g>
<!-- Node7 -->
<g id="Node000007" class="node">
<title>Node7</title>
<g id="a_Node000007"><a xlink:href="../../d4/dd7/classfl_1_1_corkscrew_1_1iterator_ac076aefd79229babc9d71344bc05e618.html#ac076aefd79229babc9d71344bc05e618" target="_top" xlink:title=" ">
<polygon fill="white" stroke="#666666" points="126,-259.5 5,-259.5 5,-229.5 126,-229.5 126,-259.5"/>
<text text-anchor="start" x="13" y="-247.5" font-family="Helvetica,sans-Serif" font-size="10.00">fl::Corkscrew::iterator</text>
<text text-anchor="middle" x="65.5" y="-236.5" font-family="Helvetica,sans-Serif" font-size="10.00">::operator++</text>
</a>
</g>
</g>
<!-- Node4&#45;&gt;Node7 -->
<g id="edge6_Node000004_Node000007" class="edge">
<title>Node4&#45;&gt;Node7</title>
<g id="a_edge6_Node000004_Node000007"><a xlink:title=" ">
<path fill="none" stroke="#63b8ff" d="M182.14,-191.03C176.96,-193.05 171.85,-195.21 167,-197.5 149.83,-205.61 147.99,-212.03 131,-220.5 124.58,-223.7 117.63,-226.71 110.75,-229.46"/>
<polygon fill="#63b8ff" stroke="#63b8ff" points="183.37,-194.31 191.53,-187.54 180.93,-187.74 183.37,-194.31"/>
</a>
</g>
</g>
<!-- Node8 -->
<g id="Node000008" class="node">
<title>Node8</title>
<g id="a_Node000008"><a xlink:href="../../d4/dd7/classfl_1_1_corkscrew_1_1iterator_a6a5f80ff4194ca33b83ad0cfda9f68cd.html#a6a5f80ff4194ca33b83ad0cfda9f68cd" target="_top" xlink:title=" ">
<polygon fill="white" stroke="#666666" points="126,-211.5 5,-211.5 5,-181.5 126,-181.5 126,-211.5"/>
<text text-anchor="start" x="13" y="-199.5" font-family="Helvetica,sans-Serif" font-size="10.00">fl::Corkscrew::iterator</text>
<text text-anchor="middle" x="65.5" y="-188.5" font-family="Helvetica,sans-Serif" font-size="10.00">::operator&#45;</text>
</a>
</g>
</g>
<!-- Node4&#45;&gt;Node8 -->
<g id="edge7_Node000004_Node000008" class="edge">
<title>Node4&#45;&gt;Node8</title>
<g id="a_edge7_Node000004_Node000008"><a xlink:title=" ">
<path fill="none" stroke="#63b8ff" d="M174.14,-181.95C158.3,-184.09 141.62,-186.34 126.24,-188.42"/>
<polygon fill="#63b8ff" stroke="#63b8ff" points="174.96,-185.37 184.4,-180.56 174.02,-178.43 174.96,-185.37"/>
</a>
</g>
</g>
<!-- Node9 -->
<g id="Node000009" class="node">
<title>Node9</title>
<g id="a_Node000009"><a xlink:href="../../d4/dd7/classfl_1_1_corkscrew_1_1iterator_a5e3bb707f22a346e13b7b4926167e7fc.html#a5e3bb707f22a346e13b7b4926167e7fc" target="_top" xlink:title=" ">
<polygon fill="white" stroke="#666666" points="126,-163.5 5,-163.5 5,-133.5 126,-133.5 126,-163.5"/>
<text text-anchor="start" x="13" y="-151.5" font-family="Helvetica,sans-Serif" font-size="10.00">fl::Corkscrew::iterator</text>
<text text-anchor="middle" x="65.5" y="-140.5" font-family="Helvetica,sans-Serif" font-size="10.00">::operator&#45;&#45;</text>
</a>
</g>
</g>
<!-- Node4&#45;&gt;Node9 -->
<g id="edge8_Node000004_Node000009" class="edge">
<title>Node4&#45;&gt;Node9</title>
<g id="a_edge8_Node000004_Node000009"><a xlink:title=" ">
<path fill="none" stroke="#63b8ff" d="M174.14,-163.05C158.3,-160.91 141.62,-158.66 126.24,-156.58"/>
<polygon fill="#63b8ff" stroke="#63b8ff" points="174.02,-166.57 184.4,-164.44 174.96,-159.63 174.02,-166.57"/>
</a>
</g>
</g>
<!-- Node10 -->
<g id="Node000010" class="node">
<title>Node10</title>
<g id="a_Node000010"><a xlink:href="../../d4/dd7/classfl_1_1_corkscrew_1_1iterator_aa01ee3e0ef294fa81006b76dc3631a27.html#aa01ee3e0ef294fa81006b76dc3631a27" target="_top" xlink:title=" ">
<polygon fill="white" stroke="#666666" points="126,-115.5 5,-115.5 5,-85.5 126,-85.5 126,-115.5"/>
<text text-anchor="start" x="13" y="-103.5" font-family="Helvetica,sans-Serif" font-size="10.00">fl::Corkscrew::iterator</text>
<text text-anchor="middle" x="65.5" y="-92.5" font-family="Helvetica,sans-Serif" font-size="10.00">::operator&#45;&#45;</text>
</a>
</g>
</g>
<!-- Node4&#45;&gt;Node10 -->
<g id="edge9_Node000004_Node000010" class="edge">
<title>Node4&#45;&gt;Node10</title>
<g id="a_edge9_Node000004_Node000010"><a xlink:title=" ">
<path fill="none" stroke="#63b8ff" d="M200.3,-153.39C179.41,-144.4 154.01,-133.66 131,-124.5 123.56,-121.54 115.6,-118.48 107.9,-115.59"/>
<polygon fill="#63b8ff" stroke="#63b8ff" points="198.98,-156.63 209.55,-157.39 201.76,-150.21 198.98,-156.63"/>
</a>
</g>
</g>
<!-- Node11 -->
<g id="Node000011" class="node">
<title>Node11</title>
<g id="a_Node000011"><a xlink:href="../../d4/dd7/classfl_1_1_corkscrew_1_1iterator_ae6a47aad0751f9ddb16bf9d481b7dd63.html#ae6a47aad0751f9ddb16bf9d481b7dd63" target="_top" xlink:title=" ">
<polygon fill="white" stroke="#666666" points="126,-67.5 5,-67.5 5,-37.5 126,-37.5 126,-67.5"/>
<text text-anchor="start" x="13" y="-55.5" font-family="Helvetica,sans-Serif" font-size="10.00">fl::Corkscrew::iterator</text>
<text text-anchor="middle" x="65.5" y="-44.5" font-family="Helvetica,sans-Serif" font-size="10.00">::operator==</text>
</a>
</g>
</g>
<!-- Node4&#45;&gt;Node11 -->
<g id="edge10_Node000004_Node000011" class="edge">
<title>Node4&#45;&gt;Node11</title>
<g id="a_edge10_Node000004_Node000011"><a xlink:title=" ">
<path fill="none" stroke="#63b8ff" d="M222.28,-149.96C200.75,-128.67 166.01,-97.02 131,-76.5 125.33,-73.18 119.12,-70.17 112.86,-67.51"/>
<polygon fill="#63b8ff" stroke="#63b8ff" points="220.05,-152.69 229.59,-157.3 225.01,-147.75 220.05,-152.69"/>
</a>
</g>
</g>
<!-- Node13 -->
<g id="Node000013" class="node">
<title>Node13</title>
<g id="a_Node000013"><a xlink:href="../../dc/d82/classfl_1_1_corkscrew_ae794bd16cfd4173badfcb46bd03257ae.html#ae794bd16cfd4173badfcb46bd03257ae" target="_top" xlink:title=" ">
<polygon fill="white" stroke="#666666" points="131,-19 0,-19 0,0 131,0 131,-19"/>
<text text-anchor="middle" x="65.5" y="-7" font-family="Helvetica,sans-Serif" font-size="10.00">fl::Corkscrew::readFrom</text>
</a>
</g>
</g>
<!-- Node12&#45;&gt;Node13 -->
<g id="edge12_Node000012_Node000013" class="edge">
<title>Node12&#45;&gt;Node13</title>
<g id="a_edge12_Node000012_Node000013"><a xlink:title=" ">
<path fill="none" stroke="#63b8ff" d="M216.99,-67.41C194.4,-55.97 161.14,-39.93 131,-28.5 121.94,-25.06 111.98,-21.86 102.64,-19.1"/>
<polygon fill="#63b8ff" stroke="#63b8ff" points="215.47,-70.56 225.97,-72 218.66,-64.33 215.47,-70.56"/>
</a>
</g>
</g>
</g>
</svg>

<g id="navigator" transform="translate(0 0)" fill="#404254">
  <rect fill="#f2f5e9" fill-opacity="0.5" stroke="#606060" stroke-width=".5" x="0" y="0" width="60" height="60"/>
  <use id="zoomplus" xlink:href="#zoomPlus" x="17" y="9" onmousedown="handleZoom(evt,'in')"/>
  <use id="zoomminus" xlink:href="#zoomMin" x="42" y="9" onmousedown="handleZoom(evt,'out')"/>
  <use id="reset" xlink:href="#resetDef" x="30" y="36" onmousedown="handleReset()"/>
   <use id="arrowup" xlink:href="#arrowUp" x="0" y="0" onmousedown="handlePan(0,-1)"/>
  <use id="arrowright" xlink:href="#arrowRight" x="0" y="0" onmousedown="handlePan(1,0)"/>
  <use id="arrowdown" xlink:href="#arrowDown" x="0" y="0" onmousedown="handlePan(0,1)"/>
  <use id="arrowleft" xlink:href="#arrowLeft" x="0" y="0" onmousedown="handlePan(-1,0)"/>
</g>
<svg viewBox="0 0 15 15" width="100%" height="30px" preserveAspectRatio="xMaxYMin meet">
 <g id="arrow_out" transform="scale(0.3 0.3)">
  <a xlink:href="classfl_1_1_corkscrew_a1ff55eaf5b64a8f8de8a2d123526d314_a1ff55eaf5b64a8f8de8a2d123526d314_icgraph_org.svg" target="_base">
   <rect id="button" ry="5" rx="5" y="6" x="6" height="38" width="38"
        fill="#f2f5e9" fill-opacity="0.5" stroke="#606060" stroke-width="1.0"/>
   <path id="arrow"
     d="M 11.500037,31.436501 C 11.940474,20.09759 22.043105,11.32322 32.158766,21.979434 L 37.068811,17.246167 C 37.068811,17.246167 37.088388,32 37.088388,32 L 22.160133,31.978069 C 22.160133,31.978069 26.997745,27.140456 26.997745,27.140456 C 18.528582,18.264221 13.291696,25.230495 11.500037,31.436501 z"
     style="fill:#404040;"/>
  </a>
 </g>
</svg>

<style type='text/css'>
<![CDATA[
[data-mouse-over-selected='false'] { opacity: 0.7; }
[data-mouse-over-selected='true']  { opacity: 1.0; }
]]>
</style>
<script type="application/ecmascript"><![CDATA[
document.addEventListener('DOMContentLoaded', (event) => {
  highlightEdges();
  highlightAdjacentNodes();
});
]]></script>
</svg>
