<?xml version="1.0" encoding="UTF-8" standalone="no"?>
<!DOCTYPE svg PUBLIC "-//W3C//DTD SVG 1.1//EN"
 "http://www.w3.org/Graphics/SVG/1.1/DTD/svg11.dtd">
<!-- Generated by graphviz version 2.43.0 (0)
 -->
<!-- Title: fl::is_response_send&lt; T &gt; Pages: 1 -->
<!--zoomable 182 -->

<svg id="main" version="1.1" xmlns="http://www.w3.org/2000/svg" xmlns:xlink="http://www.w3.org/1999/xlink" xml:space="preserve" onload="init(evt)">

<style type="text/css"><![CDATA[
.node, .edge {opacity: 0.7;}
.node.selected, .edge.selected {opacity: 1;}
.edge:hover path { stroke: red; }
.edge:hover polygon { stroke: red; fill: red; }
]]></style>

<defs>
  <circle id="rim" cx="0" cy="0" r="7"/>
  <circle id="rim2" cx="0" cy="0" r="3.5"/>
  <g id="zoomPlus">
    <use xlink:href="#rim" fill="#404040"><set attributeName="fill" to="#808080" begin="zoomplus.mouseover" end="zoomplus.mouseout"/></use>
    <path d="M-4,0h8M0,-4v8" fill="none" stroke="white" stroke-width="1.5" pointer-events="none"/>
  </g>
  <g id="zoomMin">
    <use xlink:href="#rim" fill="#404040"><set attributeName="fill" to="#808080" begin="zoomminus.mouseover" end="zoomminus.mouseout"/></use>
    <path d="M-4,0h8" fill="none" stroke="white" stroke-width="1.5" pointer-events="none"/>
  </g>
  <g id="arrowUp" transform="translate(30 24)">
    <use xlink:href="#rim"/>
    <path pointer-events="none" fill="none" stroke="white" stroke-width="1.5" d="M0,-3.0v7 M-2.5,-0.5L0,-3.0L2.5,-0.5"/>
  </g>
  <g id="arrowRight" transform="rotate(90) translate(36 -43)">
    <use xlink:href="#rim"/>
    <path pointer-events="none" fill="none" stroke="white" stroke-width="1.5" d="M0,-3.0v7 M-2.5,-0.5L0,-3.0L2.5,-0.5"/>
  </g>
  <g id="arrowDown" transform="rotate(180) translate(-30 -48)">
    <use xlink:href="#rim"/>
    <path pointer-events="none" fill="none" stroke="white" stroke-width="1.5" d="M0,-3.0v7 M-2.5,-0.5L0,-3.0L2.5,-0.5"/>
  </g>
  <g id="arrowLeft" transform="rotate(270) translate(-36 17)">
    <use xlink:href="#rim"/>
    <path pointer-events="none" fill="none" stroke="white" stroke-width="1.5" d="M0,-3.0v7 M-2.5,-0.5L0,-3.0L2.5,-0.5"/>
  </g>
  <g id="resetDef">
    <use xlink:href="#rim2" fill="#404040"><set attributeName="fill" to="#808080" begin="reset.mouseover" end="reset.mouseout"/></use>
  </g>
</defs>
<script type="application/ecmascript">
var viewWidth = 829;
var viewHeight = 182;
var sectionId = 'dynsection-0';
</script>
<script type="application/ecmascript" xlink:href="../../svg.min.js"/>
<svg id="graph" class="graph">
<g id="viewport">
<title>fl::is_response_send&lt; T &gt;</title>
<!-- Node1 -->
<g id="Node000001" class="node">
<title>Node1</title>
<g id="a_Node000001"><a xlink:title=" ">
<polygon fill="#999999" stroke="#666666" points="498,-96.5 355,-96.5 355,-77.5 498,-77.5 498,-96.5"/>
<text text-anchor="middle" x="426.5" y="-84.5" font-family="Helvetica,sans-Serif" font-size="10.00">fl::is_response_send&lt; T &gt;</text>
</a>
</g>
</g>
<!-- Node4 -->
<g id="Node000004" class="node">
<title>Node4</title>
<g id="a_Node000004"><a xlink:href="../../d7/dd6/structfl_1_1is__response__send_3_01_response_send_01_6_01_4.html" target="_top" xlink:title=" ">
<polygon fill="white" stroke="#666666" points="806.5,-174 685.5,-174 685.5,-144 806.5,-144 806.5,-174"/>
<text text-anchor="start" x="693.5" y="-162" font-family="Helvetica,sans-Serif" font-size="10.00">fl::is_response_send</text>
<text text-anchor="middle" x="746" y="-151" font-family="Helvetica,sans-Serif" font-size="10.00">&lt; ResponseSend &amp; &gt;</text>
</a>
</g>
</g>
<!-- Node1&#45;&gt;Node4 -->
<g id="edge3_Node000001_Node000004" class="edge">
<title>Node1&#45;&gt;Node4</title>
<g id="a_edge3_Node000001_Node000004"><a xlink:title=" ">
<path fill="none" stroke="orange" stroke-dasharray="5,2" d="M461.25,-100.25C477.59,-106.29 497.62,-113.17 516,-118 572.64,-132.89 638.58,-144.06 685.12,-150.96"/>
<polygon fill="orange" stroke="orange" points="462.18,-96.86 451.59,-96.61 459.72,-103.41 462.18,-96.86"/>
</a>
</g>
<text text-anchor="middle" x="584.5" y="-148" font-family="Helvetica,sans-Serif" font-size="10.00" fill="grey"> &lt; ResponseSend &amp; &gt;</text>
</g>
<!-- Node5 -->
<g id="Node000005" class="node">
<title>Node5</title>
<g id="a_Node000005"><a xlink:href="../../dc/de1/structfl_1_1is__response__send_3_01_response_send_01_6_6_01_4.html" target="_top" xlink:title=" ">
<polygon fill="white" stroke="#666666" points="810,-126 682,-126 682,-96 810,-96 810,-126"/>
<text text-anchor="start" x="690" y="-114" font-family="Helvetica,sans-Serif" font-size="10.00">fl::is_response_send</text>
<text text-anchor="middle" x="746" y="-103" font-family="Helvetica,sans-Serif" font-size="10.00">&lt; ResponseSend &amp;&amp; &gt;</text>
</a>
</g>
</g>
<!-- Node1&#45;&gt;Node5 -->
<g id="edge4_Node000001_Node000005" class="edge">
<title>Node1&#45;&gt;Node5</title>
<g id="a_edge4_Node000001_Node000005"><a xlink:title=" ">
<path fill="none" stroke="orange" stroke-dasharray="5,2" d="M508.57,-93.13C562.44,-97.2 632.15,-102.47 681.89,-106.23"/>
<polygon fill="orange" stroke="orange" points="508.59,-89.62 498.36,-92.36 508.07,-96.6 508.59,-89.62"/>
</a>
</g>
<text text-anchor="middle" x="584.5" y="-106" font-family="Helvetica,sans-Serif" font-size="10.00" fill="grey"> &lt; ResponseSend &amp;&amp; &gt;</text>
</g>
<!-- Node6 -->
<g id="Node000006" class="node">
<title>Node6</title>
<g id="a_Node000006"><a xlink:href="../../db/d25/structfl_1_1is__response__send_3_01_response_send_01_4.html" target="_top" xlink:title=" ">
<polygon fill="white" stroke="#666666" points="803.5,-78 688.5,-78 688.5,-48 803.5,-48 803.5,-78"/>
<text text-anchor="start" x="696.5" y="-66" font-family="Helvetica,sans-Serif" font-size="10.00">fl::is_response_send</text>
<text text-anchor="middle" x="746" y="-55" font-family="Helvetica,sans-Serif" font-size="10.00">&lt; ResponseSend &gt;</text>
</a>
</g>
</g>
<!-- Node1&#45;&gt;Node6 -->
<g id="edge5_Node000001_Node000006" class="edge">
<title>Node1&#45;&gt;Node6</title>
<g id="a_edge5_Node000001_Node000006"><a xlink:title=" ">
<path fill="none" stroke="orange" stroke-dasharray="5,2" d="M508.22,-79.63C510.85,-79.42 513.44,-79.2 516,-79 574.6,-74.31 641.69,-69.71 688.04,-66.66"/>
<polygon fill="orange" stroke="orange" points="507.69,-76.17 498.02,-80.5 508.28,-83.14 507.69,-76.17"/>
</a>
</g>
<text text-anchor="middle" x="584.5" y="-82" font-family="Helvetica,sans-Serif" font-size="10.00" fill="grey"> &lt; ResponseSend &gt;</text>
</g>
<!-- Node7 -->
<g id="Node000007" class="node">
<title>Node7</title>
<g id="a_Node000007"><a xlink:href="../../d5/d16/structfl_1_1is__response__send_3_01const_01_response_send_01_6_01_4.html" target="_top" xlink:title=" ">
<polygon fill="white" stroke="#666666" points="821,-30 671,-30 671,0 821,0 821,-30"/>
<text text-anchor="start" x="679" y="-18" font-family="Helvetica,sans-Serif" font-size="10.00">fl::is_response_send</text>
<text text-anchor="middle" x="746" y="-7" font-family="Helvetica,sans-Serif" font-size="10.00">&lt; const ResponseSend &amp; &gt;</text>
</a>
</g>
</g>
<!-- Node1&#45;&gt;Node7 -->
<g id="edge6_Node000001_Node000007" class="edge">
<title>Node1&#45;&gt;Node7</title>
<g id="a_edge6_Node000001_Node000007"><a xlink:title=" ">
<path fill="none" stroke="orange" stroke-dasharray="5,2" d="M460.16,-73.65C476.68,-67.29 497.17,-60.01 516,-55 567,-41.44 625.64,-31.29 670.81,-24.62"/>
<polygon fill="orange" stroke="orange" points="458.48,-70.55 450.44,-77.46 461.03,-77.07 458.48,-70.55"/>
</a>
</g>
<text text-anchor="middle" x="584.5" y="-58" font-family="Helvetica,sans-Serif" font-size="10.00" fill="grey"> &lt; const ResponseSend &amp; &gt;</text>
</g>
<!-- Node2 -->
<g id="Node000002" class="node">
<title>Node2</title>
<g id="a_Node000002"><a xlink:href="../../dd/dca/structfl_1_1fl_1_1integral__constant.html" target="_top" xlink:title=" ">
<polygon fill="white" stroke="#666666" points="318,-96.5 238,-96.5 238,-77.5 318,-77.5 318,-96.5"/>
<text text-anchor="middle" x="278" y="-84.5" font-family="Helvetica,sans-Serif" font-size="10.00">fl::false_type</text>
</a>
</g>
</g>
<!-- Node2&#45;&gt;Node1 -->
<g id="edge1_Node000001_Node000002" class="edge">
<title>Node2&#45;&gt;Node1</title>
<g id="a_edge1_Node000001_Node000002"><a xlink:title=" ">
<path fill="none" stroke="#63b8ff" d="M328.34,-87C336.84,-87 345.81,-87 354.74,-87"/>
<polygon fill="#63b8ff" stroke="#63b8ff" points="328.26,-83.5 318.26,-87 328.26,-90.5 328.26,-83.5"/>
</a>
</g>
</g>
<!-- Node3 -->
<g id="Node000003" class="node">
<title>Node3</title>
<g id="a_Node000003"><a xlink:href="../../dd/dca/structfl_1_1fl_1_1integral__constant.html" target="_top" xlink:title=" ">
<polygon fill="white" stroke="#666666" points="125,-102 0,-102 0,-72 125,-72 125,-102"/>
<text text-anchor="start" x="8" y="-90" font-family="Helvetica,sans-Serif" font-size="10.00">fl::fl::integral_constant</text>
<text text-anchor="middle" x="62.5" y="-79" font-family="Helvetica,sans-Serif" font-size="10.00">&lt; T, v &gt;</text>
</a>
</g>
</g>
<!-- Node3&#45;&gt;Node2 -->
<g id="edge2_Node000002_Node000003" class="edge">
<title>Node3&#45;&gt;Node2</title>
<g id="a_edge2_Node000002_Node000003"><a xlink:title=" ">
<path fill="none" stroke="orange" stroke-dasharray="5,2" d="M135.68,-87C169.87,-87 209.38,-87 237.91,-87"/>
<polygon fill="orange" stroke="orange" points="135.25,-83.5 125.25,-87 135.25,-90.5 135.25,-83.5"/>
</a>
</g>
<text text-anchor="middle" x="181.5" y="-90" font-family="Helvetica,sans-Serif" font-size="10.00" fill="grey"> &lt; bool, false &gt;</text>
</g>
</g>
</svg>

<g id="navigator" transform="translate(0 0)" fill="#404254">
  <rect fill="#f2f5e9" fill-opacity="0.5" stroke="#606060" stroke-width=".5" x="0" y="0" width="60" height="60"/>
  <use id="zoomplus" xlink:href="#zoomPlus" x="17" y="9" onmousedown="handleZoom(evt,'in')"/>
  <use id="zoomminus" xlink:href="#zoomMin" x="42" y="9" onmousedown="handleZoom(evt,'out')"/>
  <use id="reset" xlink:href="#resetDef" x="30" y="36" onmousedown="handleReset()"/>
   <use id="arrowup" xlink:href="#arrowUp" x="0" y="0" onmousedown="handlePan(0,-1)"/>
  <use id="arrowright" xlink:href="#arrowRight" x="0" y="0" onmousedown="handlePan(1,0)"/>
  <use id="arrowdown" xlink:href="#arrowDown" x="0" y="0" onmousedown="handlePan(0,1)"/>
  <use id="arrowleft" xlink:href="#arrowLeft" x="0" y="0" onmousedown="handlePan(-1,0)"/>
</g>
<svg viewBox="0 0 15 15" width="100%" height="30px" preserveAspectRatio="xMaxYMin meet">
 <g id="arrow_out" transform="scale(0.3 0.3)">
  <a xlink:href="structfl_1_1is__response__send__inherit__graph_org.svg" target="_base">
   <rect id="button" ry="5" rx="5" y="6" x="6" height="38" width="38"
        fill="#f2f5e9" fill-opacity="0.5" stroke="#606060" stroke-width="1.0"/>
   <path id="arrow"
     d="M 11.500037,31.436501 C 11.940474,20.09759 22.043105,11.32322 32.158766,21.979434 L 37.068811,17.246167 C 37.068811,17.246167 37.088388,32 37.088388,32 L 22.160133,31.978069 C 22.160133,31.978069 26.997745,27.140456 26.997745,27.140456 C 18.528582,18.264221 13.291696,25.230495 11.500037,31.436501 z"
     style="fill:#404040;"/>
  </a>
 </g>
</svg>

<style type='text/css'>
<![CDATA[
[data-mouse-over-selected='false'] { opacity: 0.7; }
[data-mouse-over-selected='true']  { opacity: 1.0; }
]]>
</style>
<script type="application/ecmascript"><![CDATA[
document.addEventListener('DOMContentLoaded', (event) => {
  highlightEdges();
  highlightAdjacentNodes();
});
]]></script>
</svg>
