<?xml version="1.0" encoding="UTF-8" standalone="no"?>
<!DOCTYPE svg PUBLIC "-//W3C//DTD SVG 1.1//EN"
 "http://www.w3.org/Graphics/SVG/1.1/DTD/svg11.dtd">
<!-- Generated by graphviz version 2.43.0 (0)
 -->
<!-- Title: fl/strstream.h Pages: 1 -->
<!--zoomable 346 -->

<svg id="main" version="1.1" xmlns="http://www.w3.org/2000/svg" xmlns:xlink="http://www.w3.org/1999/xlink" xml:space="preserve" onload="init(evt)">

<style type="text/css"><![CDATA[
.node, .edge {opacity: 0.7;}
.node.selected, .edge.selected {opacity: 1;}
.edge:hover path { stroke: red; }
.edge:hover polygon { stroke: red; fill: red; }
]]></style>

<defs>
  <circle id="rim" cx="0" cy="0" r="7"/>
  <circle id="rim2" cx="0" cy="0" r="3.5"/>
  <g id="zoomPlus">
    <use xlink:href="#rim" fill="#404040"><set attributeName="fill" to="#808080" begin="zoomplus.mouseover" end="zoomplus.mouseout"/></use>
    <path d="M-4,0h8M0,-4v8" fill="none" stroke="white" stroke-width="1.5" pointer-events="none"/>
  </g>
  <g id="zoomMin">
    <use xlink:href="#rim" fill="#404040"><set attributeName="fill" to="#808080" begin="zoomminus.mouseover" end="zoomminus.mouseout"/></use>
    <path d="M-4,0h8" fill="none" stroke="white" stroke-width="1.5" pointer-events="none"/>
  </g>
  <g id="arrowUp" transform="translate(30 24)">
    <use xlink:href="#rim"/>
    <path pointer-events="none" fill="none" stroke="white" stroke-width="1.5" d="M0,-3.0v7 M-2.5,-0.5L0,-3.0L2.5,-0.5"/>
  </g>
  <g id="arrowRight" transform="rotate(90) translate(36 -43)">
    <use xlink:href="#rim"/>
    <path pointer-events="none" fill="none" stroke="white" stroke-width="1.5" d="M0,-3.0v7 M-2.5,-0.5L0,-3.0L2.5,-0.5"/>
  </g>
  <g id="arrowDown" transform="rotate(180) translate(-30 -48)">
    <use xlink:href="#rim"/>
    <path pointer-events="none" fill="none" stroke="white" stroke-width="1.5" d="M0,-3.0v7 M-2.5,-0.5L0,-3.0L2.5,-0.5"/>
  </g>
  <g id="arrowLeft" transform="rotate(270) translate(-36 17)">
    <use xlink:href="#rim"/>
    <path pointer-events="none" fill="none" stroke="white" stroke-width="1.5" d="M0,-3.0v7 M-2.5,-0.5L0,-3.0L2.5,-0.5"/>
  </g>
  <g id="resetDef">
    <use xlink:href="#rim2" fill="#404040"><set attributeName="fill" to="#808080" begin="reset.mouseover" end="reset.mouseout"/></use>
  </g>
</defs>
<script type="application/ecmascript">
var viewWidth = 3773;
var viewHeight = 346;
var sectionId = 'dynsection-1';
</script>
<script type="application/ecmascript" xlink:href="../../svg.min.js"/>
<svg id="graph" class="graph">
<g id="viewport">
<title>fl/strstream.h</title>
<!-- Node1 -->
<g id="Node000001" class="node">
<title>Node1</title>
<g id="a_Node000001"><a xlink:title=" ">
<polygon fill="#999999" stroke="#666666" points="2791,-338 2709,-338 2709,-319 2791,-319 2791,-338"/>
<text text-anchor="middle" x="2750" y="-326" font-family="Helvetica,sans-Serif" font-size="10.00">fl/strstream.h</text>
</a>
</g>
</g>
<!-- Node2 -->
<g id="Node000002" class="node">
<title>Node2</title>
<g id="a_Node000002"><a xlink:href="../../d6/d01/dbg_8h.html" target="_top" xlink:title=" ">
<polygon fill="white" stroke="#666666" points="2719.5,-283 2666.5,-283 2666.5,-264 2719.5,-264 2719.5,-283"/>
<text text-anchor="middle" x="2693" y="-271" font-family="Helvetica,sans-Serif" font-size="10.00">fl/dbg.h</text>
</a>
</g>
</g>
<!-- Node1&#45;&gt;Node2 -->
<g id="edge1_Node000001_Node000002" class="edge">
<title>Node1&#45;&gt;Node2</title>
<g id="a_edge1_Node000001_Node000002"><a xlink:title=" ">
<path fill="none" stroke="#63b8ff" d="M2733.38,-312.04C2723.27,-302.64 2710.72,-290.98 2702.32,-283.17"/>
<polygon fill="#63b8ff" stroke="#63b8ff" points="2731.14,-314.74 2740.84,-318.98 2735.9,-309.61 2731.14,-314.74"/>
</a>
</g>
</g>
<!-- Node42 -->
<g id="Node000042" class="node">
<title>Node42</title>
<g id="a_Node000042"><a xlink:href="../../d2/da7/pir_8cpp.html" target="_top" xlink:title=" ">
<polygon fill="white" stroke="#666666" points="3006.5,-140 2917.5,-140 2917.5,-121 3006.5,-121 3006.5,-140"/>
<text text-anchor="middle" x="2962" y="-128" font-family="Helvetica,sans-Serif" font-size="10.00">sensors/pir.cpp</text>
</a>
</g>
</g>
<!-- Node1&#45;&gt;Node42 -->
<g id="edge46_Node000001_Node000042" class="edge">
<title>Node1&#45;&gt;Node42</title>
<g id="a_edge46_Node000001_Node000042"><a xlink:title=" ">
<path fill="none" stroke="#63b8ff" d="M2763.58,-311.22C2774.79,-298.06 2791.35,-279.28 2807,-264 2858.17,-214.05 2925.1,-160.43 2951.05,-140.03"/>
<polygon fill="#63b8ff" stroke="#63b8ff" points="2760.82,-309.06 2757.04,-318.96 2766.17,-313.57 2760.82,-309.06"/>
</a>
</g>
</g>
<!-- Node85 -->
<g id="Node000085" class="node">
<title>Node85</title>
<g id="a_Node000085"><a xlink:href="../../da/da4/sstream_8h.html" target="_top" xlink:title=" ">
<polygon fill="white" stroke="#666666" points="1791,-283 1717,-283 1717,-264 1791,-264 1791,-283"/>
<text text-anchor="middle" x="1754" y="-271" font-family="Helvetica,sans-Serif" font-size="10.00">fl/sstream.h</text>
</a>
</g>
</g>
<!-- Node1&#45;&gt;Node85 -->
<g id="edge43_Node000001_Node000085" class="edge">
<title>Node1&#45;&gt;Node85</title>
<g id="a_edge43_Node000001_Node000085"><a xlink:title=" ">
<path fill="none" stroke="#63b8ff" d="M2698.74,-324.77C2522.47,-315.39 1943.76,-284.6 1791.16,-276.48"/>
<polygon fill="#63b8ff" stroke="#63b8ff" points="2698.61,-328.27 2708.79,-325.31 2698.99,-321.28 2698.61,-328.27"/>
</a>
</g>
</g>
<!-- Node86 -->
<g id="Node000086" class="node">
<title>Node86</title>
<g id="a_Node000086"><a xlink:href="../../d3/d80/strstream_8cpp.html" target="_top" xlink:title=" ">
<polygon fill="white" stroke="#666666" points="2909.5,-283 2816.5,-283 2816.5,-264 2909.5,-264 2909.5,-283"/>
<text text-anchor="middle" x="2863" y="-271" font-family="Helvetica,sans-Serif" font-size="10.00">fl/strstream.cpp</text>
</a>
</g>
</g>
<!-- Node1&#45;&gt;Node86 -->
<g id="edge45_Node000001_Node000086" class="edge">
<title>Node1&#45;&gt;Node86</title>
<g id="a_edge45_Node000001_Node000086"><a xlink:title=" ">
<path fill="none" stroke="#63b8ff" d="M2777.43,-314.63C2798.25,-304.87 2826.3,-291.71 2844.51,-283.17"/>
<polygon fill="#63b8ff" stroke="#63b8ff" points="2775.72,-311.57 2768.16,-318.98 2778.7,-317.91 2775.72,-311.57"/>
</a>
</g>
</g>
<!-- Node3 -->
<g id="Node000003" class="node">
<title>Node3</title>
<g id="a_Node000003"><a xlink:href="../../d6/dc9/_led_rope_t_c_l_8cpp.html" target="_top" xlink:title=" ">
<polygon fill="white" stroke="#666666" points="1108.5,-228 905.5,-228 905.5,-187 1108.5,-187 1108.5,-228"/>
<text text-anchor="start" x="913.5" y="-216" font-family="Helvetica,sans-Serif" font-size="10.00">/home/runner/work/FastLED</text>
<text text-anchor="start" x="913.5" y="-205" font-family="Helvetica,sans-Serif" font-size="10.00">/FastLED/examples/LuminescentGrand</text>
<text text-anchor="middle" x="1007" y="-194" font-family="Helvetica,sans-Serif" font-size="10.00">/arduino/LedRopeTCL.cpp</text>
</a>
</g>
</g>
<!-- Node2&#45;&gt;Node3 -->
<g id="edge2_Node000002_Node000003" class="edge">
<title>Node2&#45;&gt;Node3</title>
<g id="a_edge2_Node000002_Node000003"><a xlink:title=" ">
<path fill="none" stroke="#63b8ff" d="M2656.26,-272.19C2449.63,-270.33 1430.47,-259.69 1118,-228 1114.89,-227.68 1111.73,-227.33 1108.54,-226.95"/>
<polygon fill="#63b8ff" stroke="#63b8ff" points="2656.26,-275.69 2666.29,-272.28 2656.33,-268.69 2656.26,-275.69"/>
</a>
</g>
</g>
<!-- Node4 -->
<g id="Node000004" class="node">
<title>Node4</title>
<g id="a_Node000004"><a xlink:href="../../de/d05/buttons_8h.html" target="_top" xlink:title=" ">
<polygon fill="white" stroke="#666666" points="3661.5,-228 3458.5,-228 3458.5,-187 3661.5,-187 3661.5,-228"/>
<text text-anchor="start" x="3466.5" y="-216" font-family="Helvetica,sans-Serif" font-size="10.00">/home/runner/work/FastLED</text>
<text text-anchor="start" x="3466.5" y="-205" font-family="Helvetica,sans-Serif" font-size="10.00">/FastLED/examples/LuminescentGrand</text>
<text text-anchor="middle" x="3560" y="-194" font-family="Helvetica,sans-Serif" font-size="10.00">/arduino/buttons.h</text>
</a>
</g>
</g>
<!-- Node2&#45;&gt;Node4 -->
<g id="edge3_Node000002_Node000004" class="edge">
<title>Node2&#45;&gt;Node4</title>
<g id="a_edge3_Node000002_Node000004"><a xlink:title=" ">
<path fill="none" stroke="#63b8ff" d="M2729.78,-269.75C2752.12,-268.08 2781.2,-265.91 2807,-264 3040.02,-246.73 3313.61,-226.6 3458.3,-215.97"/>
<polygon fill="#63b8ff" stroke="#63b8ff" points="2729.43,-266.27 2719.72,-270.5 2729.95,-273.25 2729.43,-266.27"/>
</a>
</g>
</g>
<!-- Node6 -->
<g id="Node000006" class="node">
<title>Node6</title>
<g id="a_Node000006"><a xlink:href="../../de/d77/warn_8h.html" target="_top" xlink:title=" ">
<polygon fill="white" stroke="#666666" points="1535.5,-217 1476.5,-217 1476.5,-198 1535.5,-198 1535.5,-217"/>
<text text-anchor="middle" x="1506" y="-205" font-family="Helvetica,sans-Serif" font-size="10.00">fl/warn.h</text>
</a>
</g>
</g>
<!-- Node2&#45;&gt;Node6 -->
<g id="edge5_Node000002_Node000006" class="edge">
<title>Node2&#45;&gt;Node6</title>
<g id="a_edge5_Node000002_Node000006"><a xlink:title=" ">
<path fill="none" stroke="#63b8ff" d="M2656.02,-270.51C2476.49,-260.83 1697.82,-218.84 1535.65,-210.1"/>
<polygon fill="#63b8ff" stroke="#63b8ff" points="2656.09,-274.01 2666.26,-271.06 2656.46,-267.02 2656.09,-274.01"/>
</a>
</g>
</g>
<!-- Node78 -->
<g id="Node000078" class="node">
<title>Node78</title>
<g id="a_Node000078"><a xlink:href="../../da/d14/frame_8cpp.html" target="_top" xlink:title=" ">
<polygon fill="white" stroke="#666666" points="2713.5,-140 2634.5,-140 2634.5,-121 2713.5,-121 2713.5,-140"/>
<text text-anchor="middle" x="2674" y="-128" font-family="Helvetica,sans-Serif" font-size="10.00">fx/frame.cpp</text>
</a>
</g>
</g>
<!-- Node2&#45;&gt;Node78 -->
<g id="edge38_Node000002_Node000078" class="edge">
<title>Node2&#45;&gt;Node78</title>
<g id="a_edge38_Node000002_Node000078"><a xlink:title=" ">
<path fill="none" stroke="#63b8ff" d="M2690.42,-253.39C2686.26,-222.49 2678.21,-162.77 2675.19,-140.32"/>
<polygon fill="#63b8ff" stroke="#63b8ff" points="2687.01,-254.24 2691.81,-263.68 2693.94,-253.3 2687.01,-254.24"/>
</a>
</g>
</g>
<!-- Node79 -->
<g id="Node000079" class="node">
<title>Node79</title>
<g id="a_Node000079"><a xlink:href="../../de/daf/time_8cpp.html" target="_top" xlink:title=" ">
<polygon fill="white" stroke="#666666" points="2804,-140 2732,-140 2732,-121 2804,-121 2804,-140"/>
<text text-anchor="middle" x="2768" y="-128" font-family="Helvetica,sans-Serif" font-size="10.00">fx/time.cpp</text>
</a>
</g>
</g>
<!-- Node2&#45;&gt;Node79 -->
<g id="edge39_Node000002_Node000079" class="edge">
<title>Node2&#45;&gt;Node79</title>
<g id="a_edge39_Node000002_Node000079"><a xlink:title=" ">
<path fill="none" stroke="#63b8ff" d="M2701.71,-254.45C2710.19,-237.03 2723.59,-210.01 2736,-187 2745.08,-170.16 2756.4,-150.9 2762.86,-140.07"/>
<polygon fill="#63b8ff" stroke="#63b8ff" points="2698.33,-253.4 2697.11,-263.92 2704.63,-256.45 2698.33,-253.4"/>
</a>
</g>
</g>
<!-- Node80 -->
<g id="Node000080" class="node">
<title>Node80</title>
<g id="a_Node000080"><a xlink:href="../../d0/d05/video_8cpp.html" target="_top" xlink:title=" ">
<polygon fill="white" stroke="#666666" points="2899.5,-140 2822.5,-140 2822.5,-121 2899.5,-121 2899.5,-140"/>
<text text-anchor="middle" x="2861" y="-128" font-family="Helvetica,sans-Serif" font-size="10.00">fx/video.cpp</text>
</a>
</g>
</g>
<!-- Node2&#45;&gt;Node80 -->
<g id="edge40_Node000002_Node000080" class="edge">
<title>Node2&#45;&gt;Node80</title>
<g id="a_edge40_Node000002_Node000080"><a xlink:title=" ">
<path fill="none" stroke="#63b8ff" d="M2708.76,-256.36C2716.93,-247.94 2727.05,-237.46 2736,-228 2753.08,-209.95 2754.93,-202.92 2774,-187 2796.97,-167.83 2826.99,-150.05 2845.09,-140.01"/>
<polygon fill="#63b8ff" stroke="#63b8ff" points="2706.09,-254.08 2701.62,-263.69 2711.1,-258.96 2706.09,-254.08"/>
</a>
</g>
</g>
<!-- Node82 -->
<g id="Node000082" class="node">
<title>Node82</title>
<g id="a_Node000082"><a xlink:href="../../d3/dc3/animartrix_8hpp.html" target="_top" xlink:title=" ">
<polygon fill="white" stroke="#666666" points="3247,-217 3131,-217 3131,-198 3247,-198 3247,-217"/>
<text text-anchor="middle" x="3189" y="-205" font-family="Helvetica,sans-Serif" font-size="10.00">fx/2d/animartrix.hpp</text>
</a>
</g>
</g>
<!-- Node2&#45;&gt;Node82 -->
<g id="edge34_Node000002_Node000082" class="edge">
<title>Node2&#45;&gt;Node82</title>
<g id="a_edge34_Node000002_Node000082"><a xlink:title=" ">
<path fill="none" stroke="#63b8ff" d="M2729.67,-267.77C2815.07,-256.75 3027.78,-229.3 3130.99,-215.98"/>
<polygon fill="#63b8ff" stroke="#63b8ff" points="2729.14,-264.31 2719.67,-269.06 2730.03,-271.25 2729.14,-264.31"/>
</a>
</g>
</g>
<!-- Node83 -->
<g id="Node000083" class="node">
<title>Node83</title>
<g id="a_Node000083"><a xlink:href="../../d5/da4/frame__interpolator_8cpp.html" target="_top" xlink:title=" ">
<polygon fill="white" stroke="#666666" points="1297,-217 1127,-217 1127,-198 1297,-198 1297,-217"/>
<text text-anchor="middle" x="1212" y="-205" font-family="Helvetica,sans-Serif" font-size="10.00">fx/video/frame_interpolator.cpp</text>
</a>
</g>
</g>
<!-- Node2&#45;&gt;Node83 -->
<g id="edge41_Node000002_Node000083" class="edge">
<title>Node2&#45;&gt;Node83</title>
<g id="a_edge41_Node000002_Node000083"><a xlink:title=" ">
<path fill="none" stroke="#63b8ff" d="M2656.18,-272.18C2464.43,-270.37 1578.51,-260.39 1306,-228 1285.97,-225.62 1263.88,-221.13 1246.14,-217.06"/>
<polygon fill="#63b8ff" stroke="#63b8ff" points="2656.27,-275.68 2666.3,-272.27 2656.34,-268.68 2656.27,-275.68"/>
</a>
</g>
</g>
<!-- Node84 -->
<g id="Node000084" class="node">
<title>Node84</title>
<g id="a_Node000084"><a xlink:href="../../da/d7a/pixel__stream_8cpp.html" target="_top" xlink:title=" ">
<polygon fill="white" stroke="#666666" points="1458.5,-217 1315.5,-217 1315.5,-198 1458.5,-198 1458.5,-217"/>
<text text-anchor="middle" x="1387" y="-205" font-family="Helvetica,sans-Serif" font-size="10.00">fx/video/pixel_stream.cpp</text>
</a>
</g>
</g>
<!-- Node2&#45;&gt;Node84 -->
<g id="edge42_Node000002_Node000084" class="edge">
<title>Node2&#45;&gt;Node84</title>
<g id="a_edge42_Node000002_Node000084"><a xlink:title=" ">
<path fill="none" stroke="#63b8ff" d="M2656.28,-272.17C2478.42,-270.42 1705.41,-261.03 1467,-228 1449.87,-225.63 1431.06,-221.14 1415.98,-217.07"/>
<polygon fill="#63b8ff" stroke="#63b8ff" points="2656.39,-275.67 2666.42,-272.27 2656.46,-268.67 2656.39,-275.67"/>
</a>
</g>
</g>
<!-- Node5 -->
<g id="Node000005" class="node">
<title>Node5</title>
<g id="a_Node000005"><a xlink:href="../../d9/da7/ui__state_8h.html" target="_top" xlink:title=" ">
<polygon fill="white" stroke="#666666" points="3764.5,-151 3561.5,-151 3561.5,-110 3764.5,-110 3764.5,-151"/>
<text text-anchor="start" x="3569.5" y="-139" font-family="Helvetica,sans-Serif" font-size="10.00">/home/runner/work/FastLED</text>
<text text-anchor="start" x="3569.5" y="-128" font-family="Helvetica,sans-Serif" font-size="10.00">/FastLED/examples/LuminescentGrand</text>
<text text-anchor="middle" x="3663" y="-117" font-family="Helvetica,sans-Serif" font-size="10.00">/arduino/ui_state.h</text>
</a>
</g>
</g>
<!-- Node4&#45;&gt;Node5 -->
<g id="edge4_Node000004_Node000005" class="edge">
<title>Node4&#45;&gt;Node5</title>
<g id="a_edge4_Node000004_Node000005"><a xlink:title=" ">
<path fill="none" stroke="#63b8ff" d="M3594.89,-181.09C3608.31,-171.32 3623.42,-160.32 3635.98,-151.17"/>
<polygon fill="#63b8ff" stroke="#63b8ff" points="3592.82,-178.27 3586.79,-186.99 3596.94,-183.93 3592.82,-178.27"/>
</a>
</g>
</g>
<!-- Node7 -->
<g id="Node000007" class="node">
<title>Node7</title>
<g id="a_Node000007"><a xlink:href="../../d4/d06/curr_8h.html" target="_top" xlink:title=" ">
<polygon fill="white" stroke="#666666" points="204,-145.5 0,-145.5 0,-115.5 204,-115.5 204,-145.5"/>
<text text-anchor="start" x="8" y="-133.5" font-family="Helvetica,sans-Serif" font-size="10.00">/home/runner/work/FastLED</text>
<text text-anchor="middle" x="102" y="-122.5" font-family="Helvetica,sans-Serif" font-size="10.00">/FastLED/examples/FestivalStick/curr.h</text>
</a>
</g>
</g>
<!-- Node6&#45;&gt;Node7 -->
<g id="edge6_Node000006_Node000007" class="edge">
<title>Node6&#45;&gt;Node7</title>
<g id="a_edge6_Node000006_Node000007"><a xlink:title=" ">
<path fill="none" stroke="#63b8ff" d="M1483.6,-193.24C1478.32,-190.71 1472.6,-188.41 1467,-187 1196.62,-119.06 490.35,-179.19 213,-151 199.96,-149.67 186.14,-147.71 172.84,-145.52"/>
<polygon fill="#63b8ff" stroke="#63b8ff" points="1482.01,-196.36 1492.49,-197.91 1485.27,-190.16 1482.01,-196.36"/>
</a>
</g>
</g>
<!-- Node8 -->
<g id="Node000008" class="node">
<title>Node8</title>
<g id="a_Node000008"><a xlink:href="../../d7/da1/old_8h.html" target="_top" xlink:title=" ">
<polygon fill="#fff0f0" stroke="red" points="2043.5,-145.5 1842.5,-145.5 1842.5,-115.5 2043.5,-115.5 2043.5,-145.5"/>
<text text-anchor="start" x="1850.5" y="-133.5" font-family="Helvetica,sans-Serif" font-size="10.00">/home/runner/work/FastLED</text>
<text text-anchor="middle" x="1943" y="-122.5" font-family="Helvetica,sans-Serif" font-size="10.00">/FastLED/examples/FestivalStick/old.h</text>
</a>
</g>
</g>
<!-- Node6&#45;&gt;Node8 -->
<g id="edge7_Node000006_Node000008" class="edge">
<title>Node6&#45;&gt;Node8</title>
<g id="a_edge7_Node000006_Node000008"><a xlink:title=" ">
<path fill="none" stroke="#63b8ff" d="M1545.84,-199.84C1607.43,-189.51 1729.49,-168.96 1833,-151 1843.13,-149.24 1853.78,-147.38 1864.3,-145.52"/>
<polygon fill="#63b8ff" stroke="#63b8ff" points="1545.05,-196.42 1535.77,-201.52 1546.21,-203.32 1545.05,-196.42"/>
</a>
</g>
</g>
<!-- Node10 -->
<g id="Node000010" class="node">
<title>Node10</title>
<g id="a_Node000010"><a xlink:href="../../d3/dac/_fx_noise_ring_8ino.html" target="_top" xlink:title=" ">
<polygon fill="white" stroke="#666666" points="2234.5,-151 2061.5,-151 2061.5,-110 2234.5,-110 2234.5,-151"/>
<text text-anchor="start" x="2069.5" y="-139" font-family="Helvetica,sans-Serif" font-size="10.00">/home/runner/work/FastLED</text>
<text text-anchor="start" x="2069.5" y="-128" font-family="Helvetica,sans-Serif" font-size="10.00">/FastLED/examples/FxNoiseRing</text>
<text text-anchor="middle" x="2148" y="-117" font-family="Helvetica,sans-Serif" font-size="10.00">/FxNoiseRing.ino</text>
</a>
</g>
</g>
<!-- Node6&#45;&gt;Node10 -->
<g id="edge8_Node000006_Node000010" class="edge">
<title>Node6&#45;&gt;Node10</title>
<g id="a_edge8_Node000006_Node000010"><a xlink:title=" ">
<path fill="none" stroke="#63b8ff" d="M1545.8,-203.81C1636.15,-197.42 1863.53,-179.65 2052,-151 2055.11,-150.53 2058.27,-150.02 2061.46,-149.49"/>
<polygon fill="#63b8ff" stroke="#63b8ff" points="1545.45,-200.33 1535.72,-204.52 1545.94,-207.31 1545.45,-200.33"/>
</a>
</g>
</g>
<!-- Node11 -->
<g id="Node000011" class="node">
<title>Node11</title>
<g id="a_Node000011"><a xlink:href="../../db/d33/_painter_8cpp.html" target="_top" xlink:title=" ">
<polygon fill="white" stroke="#666666" points="2455.5,-151 2252.5,-151 2252.5,-110 2455.5,-110 2455.5,-151"/>
<text text-anchor="start" x="2260.5" y="-139" font-family="Helvetica,sans-Serif" font-size="10.00">/home/runner/work/FastLED</text>
<text text-anchor="start" x="2260.5" y="-128" font-family="Helvetica,sans-Serif" font-size="10.00">/FastLED/examples/LuminescentGrand</text>
<text text-anchor="middle" x="2354" y="-117" font-family="Helvetica,sans-Serif" font-size="10.00">/shared/Painter.cpp</text>
</a>
</g>
</g>
<!-- Node6&#45;&gt;Node11 -->
<g id="edge9_Node000006_Node000011" class="edge">
<title>Node6&#45;&gt;Node11</title>
<g id="a_edge9_Node000006_Node000011"><a xlink:title=" ">
<path fill="none" stroke="#63b8ff" d="M1545.63,-204.89C1656.29,-200.11 1977.82,-184.2 2243,-151 2246.11,-150.61 2249.26,-150.19 2252.44,-149.76"/>
<polygon fill="#63b8ff" stroke="#63b8ff" points="1545.43,-201.4 1535.59,-205.32 1545.73,-208.39 1545.43,-201.4"/>
</a>
</g>
</g>
<!-- Node12 -->
<g id="Node000012" class="node">
<title>Node12</title>
<g id="a_Node000012"><a xlink:href="../../de/d95/bytestreammemory_8cpp.html" target="_top" xlink:title=" ">
<polygon fill="white" stroke="#666666" points="2616,-140 2474,-140 2474,-121 2616,-121 2616,-140"/>
<text text-anchor="middle" x="2545" y="-128" font-family="Helvetica,sans-Serif" font-size="10.00">fl/bytestreammemory.cpp</text>
</a>
</g>
</g>
<!-- Node6&#45;&gt;Node12 -->
<g id="edge10_Node000006_Node000012" class="edge">
<title>Node6&#45;&gt;Node12</title>
<g id="a_edge10_Node000006_Node000012"><a xlink:title=" ">
<path fill="none" stroke="#63b8ff" d="M1545.6,-206.73C1677.05,-206.94 2110.6,-203.35 2464,-151 2481.17,-148.46 2500.04,-144.01 2515.25,-140.01"/>
<polygon fill="#63b8ff" stroke="#63b8ff" points="1545.6,-203.23 1535.59,-206.7 1545.59,-210.23 1545.6,-203.23"/>
</a>
</g>
</g>
<!-- Node13 -->
<g id="Node000013" class="node">
<title>Node13</title>
<g id="a_Node000013"><a xlink:href="../../d1/dff/fft__impl_8cpp.html" target="_top" xlink:title=" ">
<polygon fill="white" stroke="#666666" points="305.5,-140 222.5,-140 222.5,-121 305.5,-121 305.5,-140"/>
<text text-anchor="middle" x="264" y="-128" font-family="Helvetica,sans-Serif" font-size="10.00">fl/fft_impl.cpp</text>
</a>
</g>
</g>
<!-- Node6&#45;&gt;Node13 -->
<g id="edge11_Node000006_Node000013" class="edge">
<title>Node6&#45;&gt;Node13</title>
<g id="a_edge11_Node000006_Node000013"><a xlink:title=" ">
<path fill="none" stroke="#63b8ff" d="M1483.6,-193.25C1478.32,-190.72 1472.6,-188.41 1467,-187 1218.68,-124.27 566.11,-201.44 315,-151 303.66,-148.72 291.55,-144.19 281.97,-140.06"/>
<polygon fill="#63b8ff" stroke="#63b8ff" points="1482.01,-196.37 1492.49,-197.92 1485.27,-190.17 1482.01,-196.37"/>
</a>
</g>
</g>
<!-- Node14 -->
<g id="Node000014" class="node">
<title>Node14</title>
<g id="a_Node000014"><a xlink:href="../../d4/d37/file__system_8cpp.html" target="_top" xlink:title=" ">
<polygon fill="white" stroke="#666666" points="426,-140 324,-140 324,-121 426,-121 426,-140"/>
<text text-anchor="middle" x="375" y="-128" font-family="Helvetica,sans-Serif" font-size="10.00">fl/file_system.cpp</text>
</a>
</g>
</g>
<!-- Node6&#45;&gt;Node14 -->
<g id="edge12_Node000006_Node000014" class="edge">
<title>Node6&#45;&gt;Node14</title>
<g id="a_edge12_Node000006_Node000014"><a xlink:title=" ">
<path fill="none" stroke="#63b8ff" d="M1483.59,-193.27C1478.32,-190.73 1472.59,-188.42 1467,-187 1244.62,-130.39 660.99,-190.85 435,-151 421.84,-148.68 407.6,-144.14 396.29,-140.03"/>
<polygon fill="#63b8ff" stroke="#63b8ff" points="1482.01,-196.39 1492.49,-197.94 1485.26,-190.19 1482.01,-196.39"/>
</a>
</g>
</g>
<!-- Node15 -->
<g id="Node000015" class="node">
<title>Node15</title>
<g id="a_Node000015"><a xlink:href="../../d6/d13/hash__map_8h.html" target="_top" xlink:title=" ">
<polygon fill="#fff0f0" stroke="red" points="529.5,-140 444.5,-140 444.5,-121 529.5,-121 529.5,-140"/>
<text text-anchor="middle" x="487" y="-128" font-family="Helvetica,sans-Serif" font-size="10.00">fl/hash_map.h</text>
</a>
</g>
</g>
<!-- Node6&#45;&gt;Node15 -->
<g id="edge13_Node000006_Node000015" class="edge">
<title>Node6&#45;&gt;Node15</title>
<g id="a_edge13_Node000006_Node000015"><a xlink:title=" ">
<path fill="none" stroke="#63b8ff" d="M1483.59,-193.28C1478.31,-190.74 1472.59,-188.43 1467,-187 1267.1,-135.7 741.31,-191.75 539,-151 527.47,-148.68 515.12,-144.14 505.35,-140.03"/>
<polygon fill="#63b8ff" stroke="#63b8ff" points="1482,-196.4 1492.48,-197.95 1485.26,-190.2 1482,-196.4"/>
</a>
</g>
</g>
<!-- Node36 -->
<g id="Node000036" class="node">
<title>Node36</title>
<g id="a_Node000036"><a xlink:href="../../d9/d6f/screenmap_8cpp.html" target="_top" xlink:title=" ">
<polygon fill="white" stroke="#666666" points="648,-140 548,-140 548,-121 648,-121 648,-140"/>
<text text-anchor="middle" x="598" y="-128" font-family="Helvetica,sans-Serif" font-size="10.00">fl/screenmap.cpp</text>
</a>
</g>
</g>
<!-- Node6&#45;&gt;Node36 -->
<g id="edge14_Node000006_Node000036" class="edge">
<title>Node6&#45;&gt;Node36</title>
<g id="a_edge14_Node000006_Node000036"><a xlink:title=" ">
<path fill="none" stroke="#63b8ff" d="M1483.58,-193.3C1478.31,-190.77 1472.59,-188.45 1467,-187 1118.21,-96.44 1011.42,-216.16 657,-151 644.16,-148.64 630.28,-144.15 619.21,-140.08"/>
<polygon fill="#63b8ff" stroke="#63b8ff" points="1482,-196.43 1492.48,-197.97 1485.25,-190.23 1482,-196.43"/>
</a>
</g>
</g>
<!-- Node32 -->
<g id="Node000032" class="node">
<title>Node32</title>
<g id="a_Node000032"><a xlink:href="../../db/d15/tile2x2_8cpp.html" target="_top" xlink:title=" ">
<polygon fill="white" stroke="#666666" points="746,-140 666,-140 666,-121 746,-121 746,-140"/>
<text text-anchor="middle" x="706" y="-128" font-family="Helvetica,sans-Serif" font-size="10.00">fl/tile2x2.cpp</text>
</a>
</g>
</g>
<!-- Node6&#45;&gt;Node32 -->
<g id="edge15_Node000006_Node000032" class="edge">
<title>Node6&#45;&gt;Node32</title>
<g id="a_edge15_Node000006_Node000032"><a xlink:title=" ">
<path fill="none" stroke="#63b8ff" d="M1483.58,-193.33C1478.3,-190.79 1472.58,-188.47 1467,-187 1160.56,-106.44 1064.58,-218.49 755,-151 744.27,-148.66 732.83,-144.23 723.7,-140.18"/>
<polygon fill="#63b8ff" stroke="#63b8ff" points="1481.99,-196.45 1492.47,-198 1485.24,-190.25 1481.99,-196.45"/>
</a>
</g>
</g>
<!-- Node37 -->
<g id="Node000037" class="node">
<title>Node37</title>
<g id="a_Node000037"><a xlink:href="../../d6/d07/time__alpha_8cpp.html" target="_top" xlink:title=" ">
<polygon fill="white" stroke="#666666" points="896.5,-74 795.5,-74 795.5,-55 896.5,-55 896.5,-74"/>
<text text-anchor="middle" x="846" y="-62" font-family="Helvetica,sans-Serif" font-size="10.00">fl/time_alpha.cpp</text>
</a>
</g>
</g>
<!-- Node6&#45;&gt;Node37 -->
<g id="edge16_Node000006_Node000037" class="edge">
<title>Node6&#45;&gt;Node37</title>
<g id="a_edge16_Node000006_Node000037"><a xlink:title=" ">
<path fill="none" stroke="#63b8ff" d="M1482.91,-193.07C1477.82,-190.65 1472.34,-188.44 1467,-187 1345.32,-154.16 1009.66,-214.86 901,-151 871.02,-133.38 854.61,-92.25 848.64,-74.22"/>
<polygon fill="#63b8ff" stroke="#63b8ff" points="1481.61,-196.34 1492.1,-197.84 1484.84,-190.13 1481.61,-196.34"/>
</a>
</g>
</g>
<!-- Node38 -->
<g id="Node000038" class="node">
<title>Node38</title>
<g id="a_Node000038"><a xlink:href="../../d0/d87/time__alpha_8h.html" target="_top" xlink:title=" ">
<polygon fill="#fff0f0" stroke="red" points="853.5,-140 764.5,-140 764.5,-121 853.5,-121 853.5,-140"/>
<text text-anchor="middle" x="809" y="-128" font-family="Helvetica,sans-Serif" font-size="10.00">fl/time_alpha.h</text>
</a>
</g>
</g>
<!-- Node6&#45;&gt;Node38 -->
<g id="edge17_Node000006_Node000038" class="edge">
<title>Node6&#45;&gt;Node38</title>
<g id="a_edge17_Node000006_Node000038"><a xlink:title=" ">
<path fill="none" stroke="#63b8ff" d="M1482.91,-193.06C1477.82,-190.64 1472.35,-188.43 1467,-187 1209.39,-117.96 1129.92,-201.27 868,-151 855.29,-148.56 841.53,-144.12 830.5,-140.1"/>
<polygon fill="#63b8ff" stroke="#63b8ff" points="1481.62,-196.33 1492.1,-197.83 1484.84,-190.11 1481.62,-196.33"/>
</a>
</g>
</g>
<!-- Node43 -->
<g id="Node000043" class="node">
<title>Node43</title>
<g id="a_Node000043"><a xlink:href="../../d6/dc0/ui__impl_8h.html" target="_top" xlink:title=" ">
<polygon fill="#fff0f0" stroke="red" points="981.5,-140 910.5,-140 910.5,-121 981.5,-121 981.5,-140"/>
<text text-anchor="middle" x="946" y="-128" font-family="Helvetica,sans-Serif" font-size="10.00">fl/ui_impl.h</text>
</a>
</g>
</g>
<!-- Node6&#45;&gt;Node43 -->
<g id="edge19_Node000006_Node000043" class="edge">
<title>Node6&#45;&gt;Node43</title>
<g id="a_edge19_Node000006_Node000043"><a xlink:title=" ">
<path fill="none" stroke="#63b8ff" d="M1482.9,-193.12C1477.81,-190.7 1472.34,-188.47 1467,-187 1262.07,-130.4 1196.19,-202.83 990,-151 980.28,-148.56 970,-144.12 961.83,-140.09"/>
<polygon fill="#63b8ff" stroke="#63b8ff" points="1481.6,-196.39 1492.09,-197.88 1484.82,-190.18 1481.6,-196.39"/>
</a>
</g>
</g>
<!-- Node61 -->
<g id="Node000061" class="node">
<title>Node61</title>
<g id="a_Node000061"><a xlink:href="../../dc/d36/wave__simulation_8h.html" target="_top" xlink:title=" ">
<polygon fill="#fff0f0" stroke="red" points="1147,-74 1029,-74 1029,-55 1147,-55 1147,-74"/>
<text text-anchor="middle" x="1088" y="-62" font-family="Helvetica,sans-Serif" font-size="10.00">fl/wave_simulation.h</text>
</a>
</g>
</g>
<!-- Node6&#45;&gt;Node61 -->
<g id="edge20_Node000006_Node000061" class="edge">
<title>Node6&#45;&gt;Node61</title>
<g id="a_edge20_Node000006_Node000061"><a xlink:title=" ">
<path fill="none" stroke="#63b8ff" d="M1482.59,-193.17C1477.58,-190.78 1472.22,-188.56 1467,-187 1335.79,-147.79 1281.79,-215.52 1161,-151 1143.61,-141.71 1108.21,-93.85 1094.05,-74.07"/>
<polygon fill="#63b8ff" stroke="#63b8ff" points="1481.19,-196.38 1491.68,-197.84 1484.39,-190.16 1481.19,-196.38"/>
</a>
</g>
</g>
<!-- Node63 -->
<g id="Node000063" class="node">
<title>Node63</title>
<g id="a_Node000063"><a xlink:href="../../de/de9/src_2fx_22d_2wave_8h.html" target="_top" xlink:title=" ">
<polygon fill="#fff0f0" stroke="red" points="1171,-19 1091,-19 1091,0 1171,0 1171,-19"/>
<text text-anchor="middle" x="1131" y="-7" font-family="Helvetica,sans-Serif" font-size="10.00">fx/2d/wave.h</text>
</a>
</g>
</g>
<!-- Node6&#45;&gt;Node63 -->
<g id="edge27_Node000006_Node000063" class="edge">
<title>Node6&#45;&gt;Node63</title>
<g id="a_edge27_Node000006_Node000063"><a xlink:title=" ">
<path fill="none" stroke="#63b8ff" d="M1482.58,-193.23C1477.56,-190.83 1472.2,-188.59 1467,-187 1349.99,-151.14 1290.49,-226.28 1194,-151 1157.82,-122.77 1175.73,-96.43 1156,-55 1149.9,-42.2 1141.66,-28.02 1136.34,-19.18"/>
<polygon fill="#63b8ff" stroke="#63b8ff" points="1481.17,-196.44 1491.66,-197.89 1484.37,-190.21 1481.17,-196.44"/>
</a>
</g>
</g>
<!-- Node65 -->
<g id="Node000065" class="node">
<title>Node65</title>
<g id="a_Node000065"><a xlink:href="../../dd/d8e/wave__simulation__real_8h.html" target="_top" xlink:title=" ">
<polygon fill="#fff0f0" stroke="red" points="1108.5,-145.5 999.5,-145.5 999.5,-115.5 1108.5,-115.5 1108.5,-145.5"/>
<text text-anchor="start" x="1007.5" y="-133.5" font-family="Helvetica,sans-Serif" font-size="10.00">fl/wave_simulation</text>
<text text-anchor="middle" x="1054" y="-122.5" font-family="Helvetica,sans-Serif" font-size="10.00">_real.h</text>
</a>
</g>
</g>
<!-- Node6&#45;&gt;Node65 -->
<g id="edge22_Node000006_Node000065" class="edge">
<title>Node6&#45;&gt;Node65</title>
<g id="a_edge22_Node000006_Node000065"><a xlink:title=" ">
<path fill="none" stroke="#63b8ff" d="M1482.86,-193.24C1477.77,-190.81 1472.31,-188.55 1467,-187 1319.43,-143.93 1273.96,-180.01 1123,-151 1115.3,-149.52 1107.21,-147.59 1099.39,-145.51"/>
<polygon fill="#63b8ff" stroke="#63b8ff" points="1481.57,-196.51 1492.06,-197.99 1484.78,-190.29 1481.57,-196.51"/>
</a>
</g>
</g>
<!-- Node67 -->
<g id="Node000067" class="node">
<title>Node67</title>
<g id="a_Node000067"><a xlink:href="../../d8/d5f/xypath__impls_8h.html" target="_top" xlink:title=" ">
<polygon fill="#fff0f0" stroke="red" points="1304.5,-140 1203.5,-140 1203.5,-121 1304.5,-121 1304.5,-140"/>
<text text-anchor="middle" x="1254" y="-128" font-family="Helvetica,sans-Serif" font-size="10.00">fl/xypath_impls.h</text>
</a>
</g>
</g>
<!-- Node6&#45;&gt;Node67 -->
<g id="edge24_Node000006_Node000067" class="edge">
<title>Node6&#45;&gt;Node67</title>
<g id="a_edge24_Node000006_Node000067"><a xlink:title=" ">
<path fill="none" stroke="#63b8ff" d="M1481.56,-193.19C1476.82,-190.92 1471.82,-188.74 1467,-187 1400.89,-163.12 1380.66,-170.05 1313,-151 1301.47,-147.75 1288.85,-143.66 1278.25,-140.06"/>
<polygon fill="#63b8ff" stroke="#63b8ff" points="1480.3,-196.48 1490.81,-197.86 1483.46,-190.23 1480.3,-196.48"/>
</a>
</g>
</g>
<!-- Node73 -->
<g id="Node000073" class="node">
<title>Node73</title>
<g id="a_Node000073"><a xlink:href="../../d2/d31/xypath__renderer_8cpp.html" target="_top" xlink:title=" ">
<polygon fill="white" stroke="#666666" points="1447.5,-140 1322.5,-140 1322.5,-121 1447.5,-121 1447.5,-140"/>
<text text-anchor="middle" x="1385" y="-128" font-family="Helvetica,sans-Serif" font-size="10.00">fl/xypath_renderer.cpp</text>
</a>
</g>
</g>
<!-- Node6&#45;&gt;Node73 -->
<g id="edge25_Node000006_Node000073" class="edge">
<title>Node6&#45;&gt;Node73</title>
<g id="a_edge25_Node000006_Node000073"><a xlink:title=" ">
<path fill="none" stroke="#63b8ff" d="M1483.35,-192.46C1458.47,-177.04 1419.32,-152.77 1398.72,-140"/>
<polygon fill="#63b8ff" stroke="#63b8ff" points="1481.78,-195.6 1492.12,-197.9 1485.46,-189.65 1481.78,-195.6"/>
</a>
</g>
</g>
<!-- Node74 -->
<g id="Node000074" class="node">
<title>Node74</title>
<g id="a_Node000074"><a xlink:href="../../d8/d4e/blend_8h.html" target="_top" xlink:title=" ">
<polygon fill="#fff0f0" stroke="red" points="1546,-140 1466,-140 1466,-121 1546,-121 1546,-140"/>
<text text-anchor="middle" x="1506" y="-128" font-family="Helvetica,sans-Serif" font-size="10.00">fx/2d/blend.h</text>
</a>
</g>
</g>
<!-- Node6&#45;&gt;Node74 -->
<g id="edge26_Node000006_Node000074" class="edge">
<title>Node6&#45;&gt;Node74</title>
<g id="a_edge26_Node000006_Node000074"><a xlink:title=" ">
<path fill="none" stroke="#63b8ff" d="M1506,-187.52C1506,-172.24 1506,-151.48 1506,-140"/>
<polygon fill="#63b8ff" stroke="#63b8ff" points="1502.5,-187.9 1506,-197.9 1509.5,-187.9 1502.5,-187.9"/>
</a>
</g>
</g>
<!-- Node76 -->
<g id="Node000076" class="node">
<title>Node76</title>
<g id="a_Node000076"><a xlink:href="../../d7/d2f/fx__layer_8h.html" target="_top" xlink:title=" ">
<polygon fill="#fff0f0" stroke="red" points="1672,-140 1564,-140 1564,-121 1672,-121 1672,-140"/>
<text text-anchor="middle" x="1618" y="-128" font-family="Helvetica,sans-Serif" font-size="10.00">fx/detail/fx_layer.h</text>
</a>
</g>
</g>
<!-- Node6&#45;&gt;Node76 -->
<g id="edge28_Node000006_Node000076" class="edge">
<title>Node6&#45;&gt;Node76</title>
<g id="a_edge28_Node000006_Node000076"><a xlink:title=" ">
<path fill="none" stroke="#63b8ff" d="M1527.27,-192.26C1550.31,-176.83 1586.32,-152.72 1605.3,-140"/>
<polygon fill="#63b8ff" stroke="#63b8ff" points="1525.21,-189.42 1518.85,-197.9 1529.1,-195.24 1525.21,-189.42"/>
</a>
</g>
</g>
<!-- Node6&#45;&gt;Node78 -->
<g id="edge29_Node000006_Node000078" class="edge">
<title>Node6&#45;&gt;Node78</title>
<g id="a_edge29_Node000006_Node000078"><a xlink:title=" ">
<path fill="none" stroke="#63b8ff" d="M1545.95,-206.27C1720.01,-205.01 2412.88,-197.13 2625,-151 2635.74,-148.67 2647.17,-144.23 2656.3,-140.19"/>
<polygon fill="#63b8ff" stroke="#63b8ff" points="1545.69,-202.77 1535.71,-206.34 1545.73,-209.77 1545.69,-202.77"/>
</a>
</g>
</g>
<!-- Node6&#45;&gt;Node79 -->
<g id="edge30_Node000006_Node000079" class="edge">
<title>Node6&#45;&gt;Node79</title>
<g id="a_edge30_Node000006_Node000079"><a xlink:title=" ">
<path fill="none" stroke="#63b8ff" d="M1545.83,-206.57C1728.89,-206.61 2490.52,-203.56 2722,-151 2732.32,-148.66 2743.25,-144.12 2751.87,-140.01"/>
<polygon fill="#63b8ff" stroke="#63b8ff" points="1545.59,-203.07 1535.58,-206.57 1545.58,-210.07 1545.59,-203.07"/>
</a>
</g>
</g>
<!-- Node6&#45;&gt;Node80 -->
<g id="edge31_Node000006_Node000080" class="edge">
<title>Node6&#45;&gt;Node80</title>
<g id="a_edge31_Node000006_Node000080"><a xlink:title=" ">
<path fill="none" stroke="#63b8ff" d="M1545.68,-206.64C1736.66,-207.04 2562.38,-205.51 2813,-151 2823.72,-148.67 2835.13,-144.13 2844.13,-140.02"/>
<polygon fill="#63b8ff" stroke="#63b8ff" points="1545.54,-203.14 1535.53,-206.62 1545.52,-210.14 1545.54,-203.14"/>
</a>
</g>
</g>
<!-- Node81 -->
<g id="Node000081" class="node">
<title>Node81</title>
<g id="a_Node000081"><a xlink:href="../../d0/d7f/video__impl_8cpp.html" target="_top" xlink:title=" ">
<polygon fill="white" stroke="#666666" points="1824,-140 1690,-140 1690,-121 1824,-121 1824,-140"/>
<text text-anchor="middle" x="1757" y="-128" font-family="Helvetica,sans-Serif" font-size="10.00">fx/video/video_impl.cpp</text>
</a>
</g>
</g>
<!-- Node6&#45;&gt;Node81 -->
<g id="edge32_Node000006_Node000081" class="edge">
<title>Node6&#45;&gt;Node81</title>
<g id="a_edge32_Node000006_Node000081"><a xlink:title=" ">
<path fill="none" stroke="#63b8ff" d="M1544.42,-195.02C1595.16,-179.86 1683.36,-153.5 1728.54,-140"/>
<polygon fill="#63b8ff" stroke="#63b8ff" points="1543.37,-191.68 1534.79,-197.9 1545.38,-198.39 1543.37,-191.68"/>
</a>
</g>
</g>
<!-- Node6&#45;&gt;Node42 -->
<g id="edge33_Node000006_Node000042" class="edge">
<title>Node6&#45;&gt;Node42</title>
<g id="a_edge33_Node000006_Node000042"><a xlink:title=" ">
<path fill="none" stroke="#63b8ff" d="M1545.61,-206.57C1744.65,-206.65 2636.73,-204.03 2908,-151 2919.93,-148.67 2932.76,-144.13 2942.91,-140.02"/>
<polygon fill="#63b8ff" stroke="#63b8ff" points="1545.6,-203.07 1535.6,-206.56 1545.6,-210.07 1545.6,-203.07"/>
</a>
</g>
</g>
<!-- Node38&#45;&gt;Node37 -->
<g id="edge18_Node000038_Node000037" class="edge">
<title>Node38&#45;&gt;Node37</title>
<g id="a_edge18_Node000038_Node000037"><a xlink:title=" ">
<path fill="none" stroke="#63b8ff" d="M819.09,-112.05C826.13,-99.86 835.24,-84.11 840.85,-74.41"/>
<polygon fill="#63b8ff" stroke="#63b8ff" points="815.96,-110.46 813.99,-120.87 822.03,-113.96 815.96,-110.46"/>
</a>
</g>
</g>
<!-- Node61&#45;&gt;Node63 -->
<g id="edge21_Node000061_Node000063" class="edge">
<title>Node61&#45;&gt;Node63</title>
<g id="a_edge21_Node000061_Node000063"><a xlink:title=" ">
<path fill="none" stroke="#63b8ff" d="M1101.42,-46.96C1108.91,-37.72 1117.94,-26.6 1124.03,-19.09"/>
<polygon fill="#63b8ff" stroke="#63b8ff" points="1098.68,-44.78 1095.1,-54.75 1104.12,-49.19 1098.68,-44.78"/>
</a>
</g>
</g>
<!-- Node65&#45;&gt;Node61 -->
<g id="edge23_Node000065_Node000061" class="edge">
<title>Node65&#45;&gt;Node61</title>
<g id="a_edge23_Node000065_Node000061"><a xlink:title=" ">
<path fill="none" stroke="#63b8ff" d="M1066.25,-106.45C1072.16,-95.31 1078.91,-82.61 1083.3,-74.34"/>
<polygon fill="#63b8ff" stroke="#63b8ff" points="1063.15,-104.82 1061.55,-115.3 1069.33,-108.11 1063.15,-104.82"/>
</a>
</g>
</g>
<!-- Node49 -->
<g id="Node000049" class="node">
<title>Node49</title>
<g id="a_Node000049"><a xlink:href="../../dd/d96/_fx_animartrix_8ino.html" target="_top" xlink:title=" ">
<polygon fill="white" stroke="#666666" points="3368,-151 3192,-151 3192,-110 3368,-110 3368,-151"/>
<text text-anchor="start" x="3200" y="-139" font-family="Helvetica,sans-Serif" font-size="10.00">/home/runner/work/FastLED</text>
<text text-anchor="start" x="3200" y="-128" font-family="Helvetica,sans-Serif" font-size="10.00">/FastLED/examples/FxAnimartrix</text>
<text text-anchor="middle" x="3280" y="-117" font-family="Helvetica,sans-Serif" font-size="10.00">/FxAnimartrix.ino</text>
</a>
</g>
</g>
<!-- Node82&#45;&gt;Node49 -->
<g id="edge35_Node000082_Node000049" class="edge">
<title>Node82&#45;&gt;Node49</title>
<g id="a_edge35_Node000082_Node000049"><a xlink:title=" ">
<path fill="none" stroke="#63b8ff" d="M3207.39,-191.35C3221.41,-179.79 3240.85,-163.76 3256.09,-151.21"/>
<polygon fill="#63b8ff" stroke="#63b8ff" points="3204.93,-188.84 3199.44,-197.9 3209.38,-194.24 3204.93,-188.84"/>
</a>
</g>
</g>
<!-- Node50 -->
<g id="Node000050" class="node">
<title>Node50</title>
<g id="a_Node000050"><a xlink:href="../../d6/d35/_fx_engine_8ino.html" target="_top" xlink:title="Demonstrates how to use the FxEngine to switch between different effects on a 2D LED matrix.">
<polygon fill="white" stroke="#666666" points="3543.5,-151 3386.5,-151 3386.5,-110 3543.5,-110 3543.5,-151"/>
<text text-anchor="start" x="3394.5" y="-139" font-family="Helvetica,sans-Serif" font-size="10.00">/home/runner/work/FastLED</text>
<text text-anchor="start" x="3394.5" y="-128" font-family="Helvetica,sans-Serif" font-size="10.00">/FastLED/examples/FxEngine</text>
<text text-anchor="middle" x="3465" y="-117" font-family="Helvetica,sans-Serif" font-size="10.00">/FxEngine.ino</text>
</a>
</g>
</g>
<!-- Node82&#45;&gt;Node50 -->
<g id="edge36_Node000082_Node000050" class="edge">
<title>Node82&#45;&gt;Node50</title>
<g id="a_edge36_Node000082_Node000050"><a xlink:title=" ">
<path fill="none" stroke="#63b8ff" d="M3230.22,-195.3C3273.18,-183.63 3341.34,-165.1 3393.17,-151.02"/>
<polygon fill="#63b8ff" stroke="#63b8ff" points="3229.12,-191.97 3220.39,-197.97 3230.96,-198.72 3229.12,-191.97"/>
</a>
</g>
</g>
<!-- Node54 -->
<g id="Node000054" class="node">
<title>Node54</title>
<g id="a_Node000054"><a xlink:href="../../d7/dd3/wasm_8ino.html" target="_top" xlink:title="Demonstrates an advanced ino file with multiple effects and UI elements.">
<polygon fill="white" stroke="#666666" points="3174,-151 3024,-151 3024,-110 3174,-110 3174,-151"/>
<text text-anchor="start" x="3032" y="-139" font-family="Helvetica,sans-Serif" font-size="10.00">/home/runner/work/FastLED</text>
<text text-anchor="start" x="3032" y="-128" font-family="Helvetica,sans-Serif" font-size="10.00">/FastLED/examples/wasm</text>
<text text-anchor="middle" x="3099" y="-117" font-family="Helvetica,sans-Serif" font-size="10.00">/wasm.ino</text>
</a>
</g>
</g>
<!-- Node82&#45;&gt;Node54 -->
<g id="edge37_Node000082_Node000054" class="edge">
<title>Node82&#45;&gt;Node54</title>
<g id="a_edge37_Node000082_Node000054"><a xlink:title=" ">
<path fill="none" stroke="#63b8ff" d="M3170.81,-191.35C3156.94,-179.79 3137.72,-163.76 3122.65,-151.21"/>
<polygon fill="#63b8ff" stroke="#63b8ff" points="3168.75,-194.18 3178.68,-197.9 3173.23,-188.81 3168.75,-194.18"/>
</a>
</g>
</g>
<!-- Node85&#45;&gt;Node7 -->
<g id="edge44_Node000085_Node000007" class="edge">
<title>Node85&#45;&gt;Node7</title>
<g id="a_edge44_Node000085_Node000007"><a xlink:title=" ">
<path fill="none" stroke="#63b8ff" d="M1706.73,-271.05C1577.03,-266.86 1204.65,-253.38 896,-228 591.55,-202.97 515.36,-194.56 213,-151 201.77,-149.38 189.93,-147.5 178.33,-145.55"/>
<polygon fill="#63b8ff" stroke="#63b8ff" points="1706.63,-274.55 1716.73,-271.37 1706.85,-267.55 1706.63,-274.55"/>
</a>
</g>
</g>
</g>
</svg>

<g id="navigator" transform="translate(0 0)" fill="#404254">
  <rect fill="#f2f5e9" fill-opacity="0.5" stroke="#606060" stroke-width=".5" x="0" y="0" width="60" height="60"/>
  <use id="zoomplus" xlink:href="#zoomPlus" x="17" y="9" onmousedown="handleZoom(evt,'in')"/>
  <use id="zoomminus" xlink:href="#zoomMin" x="42" y="9" onmousedown="handleZoom(evt,'out')"/>
  <use id="reset" xlink:href="#resetDef" x="30" y="36" onmousedown="handleReset()"/>
   <use id="arrowup" xlink:href="#arrowUp" x="0" y="0" onmousedown="handlePan(0,-1)"/>
  <use id="arrowright" xlink:href="#arrowRight" x="0" y="0" onmousedown="handlePan(1,0)"/>
  <use id="arrowdown" xlink:href="#arrowDown" x="0" y="0" onmousedown="handlePan(0,1)"/>
  <use id="arrowleft" xlink:href="#arrowLeft" x="0" y="0" onmousedown="handlePan(-1,0)"/>
</g>
<svg viewBox="0 0 15 15" width="100%" height="30px" preserveAspectRatio="xMaxYMin meet">
 <g id="arrow_out" transform="scale(0.3 0.3)">
  <a xlink:href="strstream_8h__dep__incl_org.svg" target="_base">
   <rect id="button" ry="5" rx="5" y="6" x="6" height="38" width="38"
        fill="#f2f5e9" fill-opacity="0.5" stroke="#606060" stroke-width="1.0"/>
   <path id="arrow"
     d="M 11.500037,31.436501 C 11.940474,20.09759 22.043105,11.32322 32.158766,21.979434 L 37.068811,17.246167 C 37.068811,17.246167 37.088388,32 37.088388,32 L 22.160133,31.978069 C 22.160133,31.978069 26.997745,27.140456 26.997745,27.140456 C 18.528582,18.264221 13.291696,25.230495 11.500037,31.436501 z"
     style="fill:#404040;"/>
  </a>
 </g>
</svg>

<style type='text/css'>
<![CDATA[
[data-mouse-over-selected='false'] { opacity: 0.7; }
[data-mouse-over-selected='true']  { opacity: 1.0; }
]]>
</style>
<script type="application/ecmascript"><![CDATA[
document.addEventListener('DOMContentLoaded', (event) => {
  highlightEdges();
  highlightAdjacentNodes();
});
]]></script>
</svg>
