<?xml version="1.0" encoding="UTF-8" standalone="no"?>
<!DOCTYPE svg PUBLIC "-//W3C//DTD SVG 1.1//EN"
 "http://www.w3.org/Graphics/SVG/1.1/DTD/svg11.dtd">
<!-- Generated by graphviz version 2.43.0 (0)
 -->
<!-- Title: fl/strstream.h Pages: 1 -->
<svg width="2922pt" height="368pt"
 viewBox="0.00 0.00 2922.46 368.00" xmlns="http://www.w3.org/2000/svg" xmlns:xlink="http://www.w3.org/1999/xlink">
<g id="graph0" class="graph" transform="scale(1 1) rotate(0) translate(4 364)">
<title>fl/strstream.h</title>
<!-- Node1 -->
<g id="Node000001" class="node">
<title>Node1</title>
<g id="a_Node000001"><a xlink:title=" ">
<polygon fill="#999999" stroke="#666666" points="2331.41,-360 2249.41,-360 2249.41,-341 2331.41,-341 2331.41,-360"/>
<text text-anchor="middle" x="2290.41" y="-348" font-family="Helvetica,sans-Serif" font-size="10.00">fl/strstream.h</text>
</a>
</g>
</g>
<!-- Node2 -->
<g id="Node000002" class="node">
<title>Node2</title>
<g id="a_Node000002"><a xlink:href="../../d6/d01/dbg_8h.html" target="_top" xlink:title=" ">
<polygon fill="white" stroke="#666666" points="2316.91,-305 2263.91,-305 2263.91,-286 2316.91,-286 2316.91,-305"/>
<text text-anchor="middle" x="2290.41" y="-293" font-family="Helvetica,sans-Serif" font-size="10.00">fl/dbg.h</text>
</a>
</g>
</g>
<!-- Node1&#45;&gt;Node2 -->
<g id="edge1_Node000001_Node000002" class="edge">
<title>Node1&#45;&gt;Node2</title>
<g id="a_edge1_Node000001_Node000002"><a xlink:title=" ">
<path fill="none" stroke="#63b8ff" d="M2290.41,-330.66C2290.41,-321.93 2290.41,-311.99 2290.41,-305.09"/>
<polygon fill="#63b8ff" stroke="#63b8ff" points="2286.91,-330.75 2290.41,-340.75 2293.91,-330.75 2286.91,-330.75"/>
</a>
</g>
</g>
<!-- Node90 -->
<g id="Node000090" class="node">
<title>Node90</title>
<g id="a_Node000090"><a xlink:href="../../d2/da7/pir_8cpp.html" target="_top" xlink:title=" ">
<polygon fill="white" stroke="#666666" points="1627.91,-85 1538.91,-85 1538.91,-66 1627.91,-66 1627.91,-85"/>
<text text-anchor="middle" x="1583.41" y="-73" font-family="Helvetica,sans-Serif" font-size="10.00">sensors/pir.cpp</text>
</a>
</g>
</g>
<!-- Node1&#45;&gt;Node90 -->
<g id="edge50_Node000001_Node000090" class="edge">
<title>Node1&#45;&gt;Node90</title>
<g id="a_edge50_Node000001_Node000090"><a xlink:title=" ">
<path fill="none" stroke="#63b8ff" d="M2239.1,-349.59C1915.54,-349.67 166.05,-342.23 9.41,-173 -2.97,-159.63 -3.25,-145.11 9.41,-132 23.06,-117.85 1284.06,-84.29 1538.83,-77.65"/>
<polygon fill="#63b8ff" stroke="#63b8ff" points="2239.14,-353.09 2249.14,-349.59 2239.14,-346.09 2239.14,-353.09"/>
</a>
</g>
</g>
<!-- Node172 -->
<g id="Node000172" class="node">
<title>Node172</title>
<g id="a_Node000172"><a xlink:href="../../d3/d80/strstream_8cpp.html" target="_top" xlink:title=" ">
<polygon fill="white" stroke="#666666" points="2427.91,-305 2334.91,-305 2334.91,-286 2427.91,-286 2427.91,-305"/>
<text text-anchor="middle" x="2381.41" y="-293" font-family="Helvetica,sans-Serif" font-size="10.00">fl/strstream.cpp</text>
</a>
</g>
</g>
<!-- Node1&#45;&gt;Node172 -->
<g id="edge49_Node000001_Node000172" class="edge">
<title>Node1&#45;&gt;Node172</title>
<g id="a_edge49_Node000001_Node000172"><a xlink:title=" ">
<path fill="none" stroke="#63b8ff" d="M2314.11,-335.7C2330.68,-326.04 2352.31,-313.44 2366.52,-305.17"/>
<polygon fill="#63b8ff" stroke="#63b8ff" points="2311.91,-332.93 2305.03,-340.98 2315.43,-338.98 2311.91,-332.93"/>
</a>
</g>
</g>
<!-- Node3 -->
<g id="Node000003" class="node">
<title>Node3</title>
<g id="a_Node000003"><a xlink:href="../../d6/dc9/_led_rope_t_c_l_8cpp.html" target="_top" xlink:title=" ">
<polygon fill="white" stroke="#666666" points="2862.91,-96 2659.91,-96 2659.91,-55 2862.91,-55 2862.91,-96"/>
<text text-anchor="start" x="2667.91" y="-84" font-family="Helvetica,sans-Serif" font-size="10.00">/home/runner/work/FastLED</text>
<text text-anchor="start" x="2667.91" y="-73" font-family="Helvetica,sans-Serif" font-size="10.00">/FastLED/examples/LuminescentGrand</text>
<text text-anchor="middle" x="2761.41" y="-62" font-family="Helvetica,sans-Serif" font-size="10.00">/arduino/LedRopeTCL.cpp</text>
</a>
</g>
</g>
<!-- Node2&#45;&gt;Node3 -->
<g id="edge2_Node000002_Node000003" class="edge">
<title>Node2&#45;&gt;Node3</title>
<g id="a_edge2_Node000002_Node000003"><a xlink:title=" ">
<path fill="none" stroke="#63b8ff" d="M2327.01,-286.55C2424.58,-278.05 2858.32,-294.81 2900.41,-250 2949.82,-197.39 2852.87,-129.06 2797.02,-96.05"/>
<polygon fill="#63b8ff" stroke="#63b8ff" points="2326.58,-283.07 2317.04,-287.68 2327.38,-290.03 2326.58,-283.07"/>
</a>
</g>
</g>
<!-- Node4 -->
<g id="Node000004" class="node">
<title>Node4</title>
<g id="a_Node000004"><a xlink:href="../../de/d05/buttons_8h.html" target="_top" xlink:title=" ">
<polygon fill="white" stroke="#666666" points="2540.91,-250 2337.91,-250 2337.91,-209 2540.91,-209 2540.91,-250"/>
<text text-anchor="start" x="2345.91" y="-238" font-family="Helvetica,sans-Serif" font-size="10.00">/home/runner/work/FastLED</text>
<text text-anchor="start" x="2345.91" y="-227" font-family="Helvetica,sans-Serif" font-size="10.00">/FastLED/examples/LuminescentGrand</text>
<text text-anchor="middle" x="2439.41" y="-216" font-family="Helvetica,sans-Serif" font-size="10.00">/arduino/buttons.h</text>
</a>
</g>
</g>
<!-- Node2&#45;&gt;Node4 -->
<g id="edge3_Node000002_Node000004" class="edge">
<title>Node2&#45;&gt;Node4</title>
<g id="a_edge3_Node000002_Node000004"><a xlink:title=" ">
<path fill="none" stroke="#63b8ff" d="M2319.91,-281.83C2341.05,-272.75 2369.92,-260.35 2393.99,-250.01"/>
<polygon fill="#63b8ff" stroke="#63b8ff" points="2318.31,-278.71 2310.5,-285.87 2321.07,-285.14 2318.31,-278.71"/>
</a>
</g>
</g>
<!-- Node6 -->
<g id="Node000006" class="node">
<title>Node6</title>
<g id="a_Node000006"><a xlink:href="../../de/d77/warn_8h.html" target="_top" xlink:title=" ">
<polygon fill="white" stroke="#666666" points="1145.91,-239 1086.91,-239 1086.91,-220 1145.91,-220 1145.91,-239"/>
<text text-anchor="middle" x="1116.41" y="-227" font-family="Helvetica,sans-Serif" font-size="10.00">fl/warn.h</text>
</a>
</g>
</g>
<!-- Node2&#45;&gt;Node6 -->
<g id="edge5_Node000002_Node000006" class="edge">
<title>Node2&#45;&gt;Node6</title>
<g id="a_edge5_Node000002_Node000006"><a xlink:title=" ">
<path fill="none" stroke="#63b8ff" d="M2253.52,-292.49C2075.44,-282.78 1306.78,-240.88 1145.97,-232.11"/>
<polygon fill="#63b8ff" stroke="#63b8ff" points="2253.5,-295.99 2263.68,-293.04 2253.88,-289 2253.5,-295.99"/>
</a>
</g>
</g>
<!-- Node165 -->
<g id="Node000165" class="node">
<title>Node165</title>
<g id="a_Node000165"><a xlink:href="../../da/d14/frame_8cpp.html" target="_top" xlink:title=" ">
<polygon fill="white" stroke="#666666" points="2192.91,-162 2113.91,-162 2113.91,-143 2192.91,-143 2192.91,-162"/>
<text text-anchor="middle" x="2153.41" y="-150" font-family="Helvetica,sans-Serif" font-size="10.00">fx/frame.cpp</text>
</a>
</g>
</g>
<!-- Node2&#45;&gt;Node165 -->
<g id="edge44_Node000002_Node000165" class="edge">
<title>Node2&#45;&gt;Node165</title>
<g id="a_edge44_Node000002_Node000165"><a xlink:title=" ">
<path fill="none" stroke="#63b8ff" d="M2273.73,-278.72C2264.91,-270.29 2253.97,-259.69 2244.41,-250 2213.02,-218.21 2176.94,-179.18 2161.31,-162.15"/>
<polygon fill="#63b8ff" stroke="#63b8ff" points="2271.46,-281.4 2281.12,-285.76 2276.29,-276.33 2271.46,-281.4"/>
</a>
</g>
</g>
<!-- Node166 -->
<g id="Node000166" class="node">
<title>Node166</title>
<g id="a_Node000166"><a xlink:href="../../de/daf/time_8cpp.html" target="_top" xlink:title=" ">
<polygon fill="white" stroke="#666666" points="2283.41,-162 2211.41,-162 2211.41,-143 2283.41,-143 2283.41,-162"/>
<text text-anchor="middle" x="2247.41" y="-150" font-family="Helvetica,sans-Serif" font-size="10.00">fx/time.cpp</text>
</a>
</g>
</g>
<!-- Node2&#45;&gt;Node166 -->
<g id="edge45_Node000002_Node000166" class="edge">
<title>Node2&#45;&gt;Node166</title>
<g id="a_edge45_Node000002_Node000166"><a xlink:title=" ">
<path fill="none" stroke="#63b8ff" d="M2274.97,-278.16C2268.42,-270.26 2261.4,-260.27 2257.41,-250 2245.51,-219.39 2245.93,-179.42 2246.81,-162.11"/>
<polygon fill="#63b8ff" stroke="#63b8ff" points="2272.49,-280.64 2281.72,-285.84 2277.74,-276.02 2272.49,-280.64"/>
</a>
</g>
</g>
<!-- Node167 -->
<g id="Node000167" class="node">
<title>Node167</title>
<g id="a_Node000167"><a xlink:href="../../d0/d05/video_8cpp.html" target="_top" xlink:title=" ">
<polygon fill="white" stroke="#666666" points="2378.91,-162 2301.91,-162 2301.91,-143 2378.91,-143 2378.91,-162"/>
<text text-anchor="middle" x="2340.41" y="-150" font-family="Helvetica,sans-Serif" font-size="10.00">fx/video.cpp</text>
</a>
</g>
</g>
<!-- Node2&#45;&gt;Node167 -->
<g id="edge46_Node000002_Node000167" class="edge">
<title>Node2&#45;&gt;Node167</title>
<g id="a_edge46_Node000002_Node000167"><a xlink:title=" ">
<path fill="none" stroke="#63b8ff" d="M2288.28,-275.69C2287,-257.88 2286.98,-230.72 2295.41,-209 2302.85,-189.8 2319.56,-172.16 2330.39,-162.14"/>
<polygon fill="#63b8ff" stroke="#63b8ff" points="2284.81,-276.25 2289.22,-285.88 2291.78,-275.6 2284.81,-276.25"/>
</a>
</g>
</g>
<!-- Node169 -->
<g id="Node000169" class="node">
<title>Node169</title>
<g id="a_Node000169"><a xlink:href="../../d3/dc3/animartrix_8hpp.html" target="_top" xlink:title=" ">
<polygon fill="white" stroke="#666666" points="2513.41,-162 2397.41,-162 2397.41,-143 2513.41,-143 2513.41,-162"/>
<text text-anchor="middle" x="2455.41" y="-150" font-family="Helvetica,sans-Serif" font-size="10.00">fx/2d/animartrix.hpp</text>
</a>
</g>
</g>
<!-- Node2&#45;&gt;Node169 -->
<g id="edge40_Node000002_Node000169" class="edge">
<title>Node2&#45;&gt;Node169</title>
<g id="a_edge40_Node000002_Node000169"><a xlink:title=" ">
<path fill="none" stroke="#63b8ff" d="M2294.69,-275.95C2299.95,-256.94 2310.57,-227.59 2329.41,-209 2344.38,-194.22 2398.32,-173.53 2430.57,-162.04"/>
<polygon fill="#63b8ff" stroke="#63b8ff" points="2291.26,-275.24 2292.2,-285.8 2298.05,-276.96 2291.26,-275.24"/>
</a>
</g>
</g>
<!-- Node170 -->
<g id="Node000170" class="node">
<title>Node170</title>
<g id="a_Node000170"><a xlink:href="../../d5/da4/frame__interpolator_8cpp.html" target="_top" xlink:title=" ">
<polygon fill="white" stroke="#666666" points="2729.41,-239 2559.41,-239 2559.41,-220 2729.41,-220 2729.41,-239"/>
<text text-anchor="middle" x="2644.41" y="-227" font-family="Helvetica,sans-Serif" font-size="10.00">fx/video/frame_interpolator.cpp</text>
</a>
</g>
</g>
<!-- Node2&#45;&gt;Node170 -->
<g id="edge47_Node000002_Node000170" class="edge">
<title>Node2&#45;&gt;Node170</title>
<g id="a_edge47_Node000002_Node000170"><a xlink:title=" ">
<path fill="none" stroke="#63b8ff" d="M2327,-286.02C2427.01,-266.5 2454.34,-267.68 2550.41,-250 2568.44,-246.68 2588.33,-242.62 2605.15,-239.06"/>
<polygon fill="#63b8ff" stroke="#63b8ff" points="2326.23,-282.6 2317.09,-287.97 2327.58,-289.47 2326.23,-282.6"/>
</a>
</g>
</g>
<!-- Node171 -->
<g id="Node000171" class="node">
<title>Node171</title>
<g id="a_Node000171"><a xlink:href="../../da/d7a/pixel__stream_8cpp.html" target="_top" xlink:title=" ">
<polygon fill="white" stroke="#666666" points="2890.91,-239 2747.91,-239 2747.91,-220 2890.91,-220 2890.91,-239"/>
<text text-anchor="middle" x="2819.41" y="-227" font-family="Helvetica,sans-Serif" font-size="10.00">fx/video/pixel_stream.cpp</text>
</a>
</g>
</g>
<!-- Node2&#45;&gt;Node171 -->
<g id="edge48_Node000002_Node000171" class="edge">
<title>Node2&#45;&gt;Node171</title>
<g id="a_edge48_Node000002_Node000171"><a xlink:title=" ">
<path fill="none" stroke="#63b8ff" d="M2326.99,-286.17C2509.65,-257.59 2560.18,-279.07 2738.41,-250 2755.11,-247.28 2773.46,-242.97 2788.47,-239.09"/>
<polygon fill="#63b8ff" stroke="#63b8ff" points="2326.38,-282.72 2317.06,-287.75 2327.48,-289.64 2326.38,-282.72"/>
</a>
</g>
</g>
<!-- Node5 -->
<g id="Node000005" class="node">
<title>Node5</title>
<g id="a_Node000005"><a xlink:href="../../d9/da7/ui__state_8h.html" target="_top" xlink:title=" ">
<polygon fill="white" stroke="#666666" points="2734.91,-173 2531.91,-173 2531.91,-132 2734.91,-132 2734.91,-173"/>
<text text-anchor="start" x="2539.91" y="-161" font-family="Helvetica,sans-Serif" font-size="10.00">/home/runner/work/FastLED</text>
<text text-anchor="start" x="2539.91" y="-150" font-family="Helvetica,sans-Serif" font-size="10.00">/FastLED/examples/LuminescentGrand</text>
<text text-anchor="middle" x="2633.41" y="-139" font-family="Helvetica,sans-Serif" font-size="10.00">/arduino/ui_state.h</text>
</a>
</g>
</g>
<!-- Node4&#45;&gt;Node5 -->
<g id="edge4_Node000004_Node000005" class="edge">
<title>Node4&#45;&gt;Node5</title>
<g id="a_edge4_Node000004_Node000005"><a xlink:title=" ">
<path fill="none" stroke="#63b8ff" d="M2499.5,-205.27C2526.23,-194.94 2557.35,-182.9 2582.86,-173.04"/>
<polygon fill="#63b8ff" stroke="#63b8ff" points="2497.94,-202.12 2489.87,-208.99 2500.46,-208.65 2497.94,-202.12"/>
</a>
</g>
</g>
<!-- Node7 -->
<g id="Node000007" class="node">
<title>Node7</title>
<g id="a_Node000007"><a xlink:href="../../d3/dac/_fx_noise_ring_8ino.html" target="_top" xlink:title=" ">
<polygon fill="white" stroke="#666666" points="1830.91,-96 1657.91,-96 1657.91,-55 1830.91,-55 1830.91,-96"/>
<text text-anchor="start" x="1665.91" y="-84" font-family="Helvetica,sans-Serif" font-size="10.00">/home/runner/work/FastLED</text>
<text text-anchor="start" x="1665.91" y="-73" font-family="Helvetica,sans-Serif" font-size="10.00">/FastLED/examples/FxNoiseRing</text>
<text text-anchor="middle" x="1744.41" y="-62" font-family="Helvetica,sans-Serif" font-size="10.00">/FxNoiseRing.ino</text>
</a>
</g>
</g>
<!-- Node6&#45;&gt;Node7 -->
<g id="edge6_Node000006_Node000007" class="edge">
<title>Node6&#45;&gt;Node7</title>
<g id="a_edge6_Node000006_Node000007"><a xlink:title=" ">
<path fill="none" stroke="#63b8ff" d="M1076.46,-222.97C1007.15,-211.89 876.47,-183.48 925.41,-132 952.66,-103.34 1597.11,-100.52 1636.41,-96 1643.41,-95.19 1650.64,-94.21 1657.9,-93.13"/>
<polygon fill="#63b8ff" stroke="#63b8ff" points="1076.2,-226.48 1086.62,-224.55 1077.27,-219.56 1076.2,-226.48"/>
</a>
</g>
</g>
<!-- Node8 -->
<g id="Node000008" class="node">
<title>Node8</title>
<g id="a_Node000008"><a xlink:href="../../db/d33/_painter_8cpp.html" target="_top" xlink:title=" ">
<polygon fill="white" stroke="#666666" points="1814.91,-173 1611.91,-173 1611.91,-132 1814.91,-132 1814.91,-173"/>
<text text-anchor="start" x="1619.91" y="-161" font-family="Helvetica,sans-Serif" font-size="10.00">/home/runner/work/FastLED</text>
<text text-anchor="start" x="1619.91" y="-150" font-family="Helvetica,sans-Serif" font-size="10.00">/FastLED/examples/LuminescentGrand</text>
<text text-anchor="middle" x="1713.41" y="-139" font-family="Helvetica,sans-Serif" font-size="10.00">/shared/Painter.cpp</text>
</a>
</g>
</g>
<!-- Node6&#45;&gt;Node8 -->
<g id="edge7_Node000006_Node000008" class="edge">
<title>Node6&#45;&gt;Node8</title>
<g id="a_edge7_Node000006_Node000008"><a xlink:title=" ">
<path fill="none" stroke="#63b8ff" d="M1156.21,-224.61C1238.68,-216.4 1434.15,-196.13 1597.41,-173 1602.06,-172.34 1606.81,-171.64 1611.6,-170.92"/>
<polygon fill="#63b8ff" stroke="#63b8ff" points="1155.64,-221.15 1146.03,-225.62 1156.33,-228.12 1155.64,-221.15"/>
</a>
</g>
</g>
<!-- Node9 -->
<g id="Node000009" class="node">
<title>Node9</title>
<g id="a_Node000009"><a xlink:href="../../db/d97/_fast_l_e_d_8h.html" target="_top" xlink:title="central include file for FastLED, defines the CFastLED class/object">
<polygon fill="#fff0f0" stroke="red" points="1935.41,-162 1871.41,-162 1871.41,-143 1935.41,-143 1935.41,-162"/>
<text text-anchor="middle" x="1903.41" y="-150" font-family="Helvetica,sans-Serif" font-size="10.00">FastLED.h</text>
</a>
</g>
</g>
<!-- Node6&#45;&gt;Node9 -->
<g id="edge8_Node000006_Node000009" class="edge">
<title>Node6&#45;&gt;Node9</title>
<g id="a_edge8_Node000006_Node000009"><a xlink:title=" ">
<path fill="none" stroke="#63b8ff" d="M1156.19,-227.23C1289.91,-222.68 1722.37,-205.74 1857.41,-173 1867.52,-170.55 1878.26,-166.11 1886.82,-162.09"/>
<polygon fill="#63b8ff" stroke="#63b8ff" points="1155.87,-223.73 1145.99,-227.57 1156.1,-230.73 1155.87,-223.73"/>
</a>
</g>
</g>
<!-- Node95 -->
<g id="Node000095" class="node">
<title>Node95</title>
<g id="a_Node000095"><a xlink:href="../../d1/dff/fft__impl_8cpp.html" target="_top" xlink:title=" ">
<polygon fill="white" stroke="#666666" points="1937.91,-85 1854.91,-85 1854.91,-66 1937.91,-66 1937.91,-85"/>
<text text-anchor="middle" x="1896.41" y="-73" font-family="Helvetica,sans-Serif" font-size="10.00">fl/fft_impl.cpp</text>
</a>
</g>
</g>
<!-- Node6&#45;&gt;Node95 -->
<g id="edge17_Node000006_Node000095" class="edge">
<title>Node6&#45;&gt;Node95</title>
<g id="a_edge17_Node000006_Node000095"><a xlink:title=" ">
<path fill="none" stroke="#63b8ff" d="M1156.37,-227.27C1297.15,-222.66 1764.79,-205.08 1823.41,-173 1842.29,-162.66 1877.74,-107 1891.12,-85.23"/>
<polygon fill="#63b8ff" stroke="#63b8ff" points="1155.93,-223.78 1146.04,-227.6 1156.15,-230.78 1155.93,-223.78"/>
</a>
</g>
</g>
<!-- Node6&#45;&gt;Node90 -->
<g id="edge39_Node000006_Node000090" class="edge">
<title>Node6&#45;&gt;Node90</title>
<g id="a_edge39_Node000006_Node000090"><a xlink:title=" ">
<path fill="none" stroke="#63b8ff" d="M1156.31,-229.3C1254.81,-230.39 1505.75,-227.63 1564.41,-173 1589.27,-149.84 1586.96,-104.38 1584.7,-85.28"/>
<polygon fill="#63b8ff" stroke="#63b8ff" points="1156.22,-225.79 1146.17,-229.16 1156.12,-232.79 1156.22,-225.79"/>
</a>
</g>
</g>
<!-- Node130 -->
<g id="Node000130" class="node">
<title>Node130</title>
<g id="a_Node000130"><a xlink:href="../../de/d95/bytestreammemory_8cpp.html" target="_top" xlink:title=" ">
<polygon fill="white" stroke="#666666" points="2095.41,-162 1953.41,-162 1953.41,-143 2095.41,-143 2095.41,-162"/>
<text text-anchor="middle" x="2024.41" y="-150" font-family="Helvetica,sans-Serif" font-size="10.00">fl/bytestreammemory.cpp</text>
</a>
</g>
</g>
<!-- Node6&#45;&gt;Node130 -->
<g id="edge16_Node000006_Node000130" class="edge">
<title>Node6&#45;&gt;Node130</title>
<g id="a_edge16_Node000006_Node000130"><a xlink:title=" ">
<path fill="none" stroke="#63b8ff" d="M1156.1,-228.26C1275.84,-227 1643.78,-219.36 1944.41,-173 1961.22,-170.41 1979.69,-166.01 1994.64,-162.05"/>
<polygon fill="#63b8ff" stroke="#63b8ff" points="1155.91,-224.76 1145.94,-228.35 1155.97,-231.76 1155.91,-224.76"/>
</a>
</g>
</g>
<!-- Node131 -->
<g id="Node000131" class="node">
<title>Node131</title>
<g id="a_Node000131"><a xlink:href="../../d4/d37/file__system_8cpp.html" target="_top" xlink:title=" ">
<polygon fill="white" stroke="#666666" points="227.41,-162 125.41,-162 125.41,-143 227.41,-143 227.41,-162"/>
<text text-anchor="middle" x="176.41" y="-150" font-family="Helvetica,sans-Serif" font-size="10.00">fl/file_system.cpp</text>
</a>
</g>
</g>
<!-- Node6&#45;&gt;Node131 -->
<g id="edge18_Node000006_Node000131" class="edge">
<title>Node6&#45;&gt;Node131</title>
<g id="a_edge18_Node000006_Node000131"><a xlink:title=" ">
<path fill="none" stroke="#63b8ff" d="M1076.38,-227.31C926.8,-222.66 400.87,-204.39 236.41,-173 223.49,-170.54 209.5,-166.1 198.28,-162.08"/>
<polygon fill="#63b8ff" stroke="#63b8ff" points="1076.38,-230.81 1086.49,-227.62 1076.6,-223.82 1076.38,-230.81"/>
</a>
</g>
</g>
<!-- Node132 -->
<g id="Node000132" class="node">
<title>Node132</title>
<g id="a_Node000132"><a xlink:href="../../d6/d13/hash__map_8h.html" target="_top" xlink:title=" ">
<polygon fill="#fff0f0" stroke="red" points="330.91,-162 245.91,-162 245.91,-143 330.91,-143 330.91,-162"/>
<text text-anchor="middle" x="288.41" y="-150" font-family="Helvetica,sans-Serif" font-size="10.00">fl/hash_map.h</text>
</a>
</g>
</g>
<!-- Node6&#45;&gt;Node132 -->
<g id="edge19_Node000006_Node000132" class="edge">
<title>Node6&#45;&gt;Node132</title>
<g id="a_edge19_Node000006_Node000132"><a xlink:title=" ">
<path fill="none" stroke="#63b8ff" d="M1076.62,-227.16C938.91,-222.3 483.16,-204.19 340.41,-173 329.1,-170.53 316.97,-166.09 307.27,-162.07"/>
<polygon fill="#63b8ff" stroke="#63b8ff" points="1076.61,-230.66 1086.73,-227.52 1076.86,-223.67 1076.61,-230.66"/>
</a>
</g>
</g>
<!-- Node143 -->
<g id="Node000143" class="node">
<title>Node143</title>
<g id="a_Node000143"><a xlink:href="../../d9/d6f/screenmap_8cpp.html" target="_top" xlink:title=" ">
<polygon fill="white" stroke="#666666" points="449.41,-162 349.41,-162 349.41,-143 449.41,-143 449.41,-162"/>
<text text-anchor="middle" x="399.41" y="-150" font-family="Helvetica,sans-Serif" font-size="10.00">fl/screenmap.cpp</text>
</a>
</g>
</g>
<!-- Node6&#45;&gt;Node143 -->
<g id="edge20_Node000006_Node000143" class="edge">
<title>Node6&#45;&gt;Node143</title>
<g id="a_edge20_Node000006_Node000143"><a xlink:title=" ">
<path fill="none" stroke="#63b8ff" d="M1076.6,-228.38C973.41,-227.38 689.19,-220.19 458.41,-173 445.83,-170.43 432.19,-166.03 421.21,-162.07"/>
<polygon fill="#63b8ff" stroke="#63b8ff" points="1076.84,-231.88 1086.87,-228.47 1076.9,-224.88 1076.84,-231.88"/>
</a>
</g>
</g>
<!-- Node139 -->
<g id="Node000139" class="node">
<title>Node139</title>
<g id="a_Node000139"><a xlink:href="../../db/d15/tile2x2_8cpp.html" target="_top" xlink:title=" ">
<polygon fill="white" stroke="#666666" points="547.41,-162 467.41,-162 467.41,-143 547.41,-143 547.41,-162"/>
<text text-anchor="middle" x="507.41" y="-150" font-family="Helvetica,sans-Serif" font-size="10.00">fl/tile2x2.cpp</text>
</a>
</g>
</g>
<!-- Node6&#45;&gt;Node139 -->
<g id="edge21_Node000006_Node000139" class="edge">
<title>Node6&#45;&gt;Node139</title>
<g id="a_edge21_Node000006_Node000139"><a xlink:title=" ">
<path fill="none" stroke="#63b8ff" d="M1076.57,-227.87C984.64,-225.7 751.03,-216.02 561.41,-173 549.84,-170.38 537.36,-165.98 527.31,-162.02"/>
<polygon fill="#63b8ff" stroke="#63b8ff" points="1076.74,-231.38 1086.81,-228.1 1076.89,-224.38 1076.74,-231.38"/>
</a>
</g>
</g>
<!-- Node144 -->
<g id="Node000144" class="node">
<title>Node144</title>
<g id="a_Node000144"><a xlink:href="../../d6/d07/time__alpha_8cpp.html" target="_top" xlink:title=" ">
<polygon fill="white" stroke="#666666" points="349.91,-85 248.91,-85 248.91,-66 349.91,-66 349.91,-85"/>
<text text-anchor="middle" x="299.41" y="-73" font-family="Helvetica,sans-Serif" font-size="10.00">fl/time_alpha.cpp</text>
</a>
</g>
</g>
<!-- Node6&#45;&gt;Node144 -->
<g id="edge22_Node000006_Node000144" class="edge">
<title>Node6&#45;&gt;Node144</title>
<g id="a_edge22_Node000006_Node000144"><a xlink:title=" ">
<path fill="none" stroke="#63b8ff" d="M1076.36,-227.51C970.26,-224.35 684.22,-212.34 599.41,-173 575.45,-161.89 579.74,-144.36 556.41,-132 490.45,-97.06 403.91,-84.12 349.99,-79.32"/>
<polygon fill="#63b8ff" stroke="#63b8ff" points="1076.54,-231.01 1086.64,-227.8 1076.74,-224.01 1076.54,-231.01"/>
</a>
</g>
</g>
<!-- Node145 -->
<g id="Node000145" class="node">
<title>Node145</title>
<g id="a_Node000145"><a xlink:href="../../d0/d87/time__alpha_8h.html" target="_top" xlink:title=" ">
<polygon fill="#fff0f0" stroke="red" points="107.91,-162 18.91,-162 18.91,-143 107.91,-143 107.91,-162"/>
<text text-anchor="middle" x="63.41" y="-150" font-family="Helvetica,sans-Serif" font-size="10.00">fl/time_alpha.h</text>
</a>
</g>
</g>
<!-- Node6&#45;&gt;Node145 -->
<g id="edge23_Node000006_Node000145" class="edge">
<title>Node6&#45;&gt;Node145</title>
<g id="a_edge23_Node000006_Node000145"><a xlink:title=" ">
<path fill="none" stroke="#63b8ff" d="M1076.36,-227.86C914.03,-225.02 304.7,-211.95 116.41,-173 104.88,-170.62 92.52,-166.18 82.63,-162.14"/>
<polygon fill="#63b8ff" stroke="#63b8ff" points="1076.77,-231.37 1086.83,-228.04 1076.89,-224.37 1076.77,-231.37"/>
</a>
</g>
</g>
<!-- Node147 -->
<g id="Node000147" class="node">
<title>Node147</title>
<g id="a_Node000147"><a xlink:href="../../d6/dc0/ui__impl_8h.html" target="_top" xlink:title=" ">
<polygon fill="#fff0f0" stroke="red" points="712.91,-162 641.91,-162 641.91,-143 712.91,-143 712.91,-162"/>
<text text-anchor="middle" x="677.41" y="-150" font-family="Helvetica,sans-Serif" font-size="10.00">fl/ui_impl.h</text>
</a>
</g>
</g>
<!-- Node6&#45;&gt;Node147 -->
<g id="edge25_Node000006_Node000147" class="edge">
<title>Node6&#45;&gt;Node147</title>
<g id="a_edge25_Node000006_Node000147"><a xlink:title=" ">
<path fill="none" stroke="#63b8ff" d="M1076.84,-226.57C1004.86,-222.27 848.17,-209.23 721.41,-173 711.93,-170.29 701.84,-165.94 693.71,-162.03"/>
<polygon fill="#63b8ff" stroke="#63b8ff" points="1076.65,-230.07 1086.84,-227.14 1077.05,-223.08 1076.65,-230.07"/>
</a>
</g>
</g>
<!-- Node153 -->
<g id="Node000153" class="node">
<title>Node153</title>
<g id="a_Node000153"><a xlink:href="../../dc/d36/wave__simulation_8h.html" target="_top" xlink:title=" ">
<polygon fill="#fff0f0" stroke="red" points="844.41,-85 726.41,-85 726.41,-66 844.41,-66 844.41,-85"/>
<text text-anchor="middle" x="785.41" y="-73" font-family="Helvetica,sans-Serif" font-size="10.00">fl/wave_simulation.h</text>
</a>
</g>
</g>
<!-- Node6&#45;&gt;Node153 -->
<g id="edge26_Node000006_Node000153" class="edge">
<title>Node6&#45;&gt;Node153</title>
<g id="a_edge26_Node000006_Node000153"><a xlink:title=" ">
<path fill="none" stroke="#63b8ff" d="M1076.79,-224.78C1030.25,-219.07 951.85,-205.2 892.41,-173 868.9,-160.27 868.21,-149.95 848.41,-132 829.83,-115.17 807.77,-95.9 795.3,-85.07"/>
<polygon fill="#63b8ff" stroke="#63b8ff" points="1076.44,-228.26 1086.78,-225.94 1077.25,-221.31 1076.44,-228.26"/>
</a>
</g>
</g>
<!-- Node123 -->
<g id="Node000123" class="node">
<title>Node123</title>
<g id="a_Node000123"><a xlink:href="../../de/de9/src_2fx_22d_2wave_8h.html" target="_top" xlink:title=" ">
<polygon fill="#fff0f0" stroke="red" points="739.41,-19 659.41,-19 659.41,0 739.41,0 739.41,-19"/>
<text text-anchor="middle" x="699.41" y="-7" font-family="Helvetica,sans-Serif" font-size="10.00">fx/2d/wave.h</text>
</a>
</g>
</g>
<!-- Node6&#45;&gt;Node123 -->
<g id="edge33_Node000006_Node000123" class="edge">
<title>Node6&#45;&gt;Node123</title>
<g id="a_edge33_Node000006_Node000123"><a xlink:title=" ">
<path fill="none" stroke="#63b8ff" d="M1076.82,-226.93C966.53,-222.14 661.86,-206.02 632.41,-173 589.55,-124.95 662.85,-45.71 689.95,-19.34"/>
<polygon fill="#63b8ff" stroke="#63b8ff" points="1076.74,-230.43 1086.88,-227.35 1077.03,-223.43 1076.74,-230.43"/>
</a>
</g>
</g>
<!-- Node155 -->
<g id="Node000155" class="node">
<title>Node155</title>
<g id="a_Node000155"><a xlink:href="../../dd/d8e/wave__simulation__real_8h.html" target="_top" xlink:title=" ">
<polygon fill="#fff0f0" stroke="red" points="839.91,-167.5 730.91,-167.5 730.91,-137.5 839.91,-137.5 839.91,-167.5"/>
<text text-anchor="start" x="738.91" y="-155.5" font-family="Helvetica,sans-Serif" font-size="10.00">fl/wave_simulation</text>
<text text-anchor="middle" x="785.41" y="-144.5" font-family="Helvetica,sans-Serif" font-size="10.00">_real.h</text>
</a>
</g>
</g>
<!-- Node6&#45;&gt;Node155 -->
<g id="edge28_Node000006_Node000155" class="edge">
<title>Node6&#45;&gt;Node155</title>
<g id="a_edge28_Node000006_Node000155"><a xlink:title=" ">
<path fill="none" stroke="#63b8ff" d="M1076.75,-220.96C1025.27,-210.97 932.74,-192.34 854.41,-173 847.64,-171.33 840.53,-169.46 833.55,-167.55"/>
<polygon fill="#63b8ff" stroke="#63b8ff" points="1076.31,-224.43 1086.79,-222.9 1077.64,-217.56 1076.31,-224.43"/>
</a>
</g>
</g>
<!-- Node157 -->
<g id="Node000157" class="node">
<title>Node157</title>
<g id="a_Node000157"><a xlink:href="../../d8/d5f/xypath__impls_8h.html" target="_top" xlink:title=" ">
<polygon fill="#fff0f0" stroke="red" points="1035.91,-162 934.91,-162 934.91,-143 1035.91,-143 1035.91,-162"/>
<text text-anchor="middle" x="985.41" y="-150" font-family="Helvetica,sans-Serif" font-size="10.00">fl/xypath_impls.h</text>
</a>
</g>
</g>
<!-- Node6&#45;&gt;Node157 -->
<g id="edge30_Node000006_Node000157" class="edge">
<title>Node6&#45;&gt;Node157</title>
<g id="a_edge30_Node000006_Node000157"><a xlink:title=" ">
<path fill="none" stroke="#63b8ff" d="M1092.59,-214.87C1065.7,-199.47 1022.76,-174.88 1000.26,-162"/>
<polygon fill="#63b8ff" stroke="#63b8ff" points="1090.96,-217.97 1101.38,-219.9 1094.44,-211.89 1090.96,-217.97"/>
</a>
</g>
</g>
<!-- Node161 -->
<g id="Node000161" class="node">
<title>Node161</title>
<g id="a_Node000161"><a xlink:href="../../d2/d31/xypath__renderer_8cpp.html" target="_top" xlink:title=" ">
<polygon fill="white" stroke="#666666" points="1178.91,-162 1053.91,-162 1053.91,-143 1178.91,-143 1178.91,-162"/>
<text text-anchor="middle" x="1116.41" y="-150" font-family="Helvetica,sans-Serif" font-size="10.00">fl/xypath_renderer.cpp</text>
</a>
</g>
</g>
<!-- Node6&#45;&gt;Node161 -->
<g id="edge31_Node000006_Node000161" class="edge">
<title>Node6&#45;&gt;Node161</title>
<g id="a_edge31_Node000006_Node000161"><a xlink:title=" ">
<path fill="none" stroke="#63b8ff" d="M1116.41,-209.52C1116.41,-194.24 1116.41,-173.48 1116.41,-162"/>
<polygon fill="#63b8ff" stroke="#63b8ff" points="1112.91,-209.9 1116.41,-219.9 1119.91,-209.9 1112.91,-209.9"/>
</a>
</g>
</g>
<!-- Node162 -->
<g id="Node000162" class="node">
<title>Node162</title>
<g id="a_Node000162"><a xlink:href="../../d8/d4e/blend_8h.html" target="_top" xlink:title=" ">
<polygon fill="#fff0f0" stroke="red" points="1277.41,-162 1197.41,-162 1197.41,-143 1277.41,-143 1277.41,-162"/>
<text text-anchor="middle" x="1237.41" y="-150" font-family="Helvetica,sans-Serif" font-size="10.00">fx/2d/blend.h</text>
</a>
</g>
</g>
<!-- Node6&#45;&gt;Node162 -->
<g id="edge32_Node000006_Node000162" class="edge">
<title>Node6&#45;&gt;Node162</title>
<g id="a_edge32_Node000006_Node000162"><a xlink:title=" ">
<path fill="none" stroke="#63b8ff" d="M1139.05,-214.46C1163.93,-199.04 1203.09,-174.77 1223.69,-162"/>
<polygon fill="#63b8ff" stroke="#63b8ff" points="1136.94,-211.65 1130.29,-219.9 1140.63,-217.6 1136.94,-211.65"/>
</a>
</g>
</g>
<!-- Node163 -->
<g id="Node000163" class="node">
<title>Node163</title>
<g id="a_Node000163"><a xlink:href="../../d7/d2f/fx__layer_8h.html" target="_top" xlink:title=" ">
<polygon fill="#fff0f0" stroke="red" points="1403.41,-162 1295.41,-162 1295.41,-143 1403.41,-143 1403.41,-162"/>
<text text-anchor="middle" x="1349.41" y="-150" font-family="Helvetica,sans-Serif" font-size="10.00">fx/detail/fx_layer.h</text>
</a>
</g>
</g>
<!-- Node6&#45;&gt;Node163 -->
<g id="edge34_Node000006_Node000163" class="edge">
<title>Node6&#45;&gt;Node163</title>
<g id="a_edge34_Node000006_Node000163"><a xlink:title=" ">
<path fill="none" stroke="#63b8ff" d="M1152.66,-216.83C1199.85,-201.64 1281.22,-175.45 1322.99,-162"/>
<polygon fill="#63b8ff" stroke="#63b8ff" points="1151.58,-213.5 1143.13,-219.9 1153.72,-220.16 1151.58,-213.5"/>
</a>
</g>
</g>
<!-- Node6&#45;&gt;Node165 -->
<g id="edge35_Node000006_Node000165" class="edge">
<title>Node6&#45;&gt;Node165</title>
<g id="a_edge35_Node000006_Node000165"><a xlink:title=" ">
<path fill="none" stroke="#63b8ff" d="M1156.53,-227.97C1317.82,-225.55 1919.1,-213.94 2104.41,-173 2115.13,-170.63 2126.57,-166.2 2135.69,-162.16"/>
<polygon fill="#63b8ff" stroke="#63b8ff" points="1156.07,-224.47 1146.12,-228.12 1156.17,-231.47 1156.07,-224.47"/>
</a>
</g>
</g>
<!-- Node6&#45;&gt;Node166 -->
<g id="edge36_Node000006_Node000166" class="edge">
<title>Node6&#45;&gt;Node166</title>
<g id="a_edge36_Node000006_Node000166"><a xlink:title=" ">
<path fill="none" stroke="#63b8ff" d="M1156.01,-228.32C1326.26,-227.25 1996.6,-220.1 2201.41,-173 2211.55,-170.67 2222.29,-166.24 2230.84,-162.19"/>
<polygon fill="#63b8ff" stroke="#63b8ff" points="1155.96,-224.82 1145.98,-228.38 1156,-231.82 1155.96,-224.82"/>
</a>
</g>
</g>
<!-- Node6&#45;&gt;Node167 -->
<g id="edge37_Node000006_Node000167" class="edge">
<title>Node6&#45;&gt;Node167</title>
<g id="a_edge37_Node000006_Node000167"><a xlink:title=" ">
<path fill="none" stroke="#63b8ff" d="M1156.07,-228.42C1335.09,-227.8 2068.67,-222.21 2292.41,-173 2302.95,-170.68 2314.15,-166.25 2323.08,-162.2"/>
<polygon fill="#63b8ff" stroke="#63b8ff" points="1156.03,-224.92 1146.04,-228.45 1156.05,-231.92 1156.03,-224.92"/>
</a>
</g>
</g>
<!-- Node168 -->
<g id="Node000168" class="node">
<title>Node168</title>
<g id="a_Node000168"><a xlink:href="../../d0/d7f/video__impl_8cpp.html" target="_top" xlink:title=" ">
<polygon fill="white" stroke="#666666" points="1555.41,-162 1421.41,-162 1421.41,-143 1555.41,-143 1555.41,-162"/>
<text text-anchor="middle" x="1488.41" y="-150" font-family="Helvetica,sans-Serif" font-size="10.00">fx/video/video_impl.cpp</text>
</a>
</g>
</g>
<!-- Node6&#45;&gt;Node168 -->
<g id="edge38_Node000006_Node000168" class="edge">
<title>Node6&#45;&gt;Node168</title>
<g id="a_edge38_Node000006_Node000168"><a xlink:title=" ">
<path fill="none" stroke="#63b8ff" d="M1155.96,-221.94C1212.89,-212.3 1321.1,-193.25 1412.41,-173 1427.17,-169.73 1443.42,-165.63 1457.09,-162.03"/>
<polygon fill="#63b8ff" stroke="#63b8ff" points="1155.22,-218.51 1145.94,-223.62 1156.39,-225.41 1155.22,-218.51"/>
</a>
</g>
</g>
<!-- Node9&#45;&gt;Node3 -->
<g id="edge12_Node000009_Node000003" class="edge">
<title>Node9&#45;&gt;Node3</title>
<g id="a_edge12_Node000009_Node000003"><a xlink:title=" ">
<path fill="none" stroke="#63b8ff" d="M1927.33,-138.25C1932.79,-135.76 1938.68,-133.48 1944.41,-132 2199.22,-66.29 2272.96,-115.31 2535.41,-96 2576.06,-93.01 2620.78,-89.25 2659.63,-85.83"/>
<polygon fill="#63b8ff" stroke="#63b8ff" points="1925.48,-135.26 1918.07,-142.84 1928.58,-141.54 1925.48,-135.26"/>
</a>
</g>
</g>
<!-- Node9&#45;&gt;Node7 -->
<g id="edge11_Node000009_Node000007" class="edge">
<title>Node9&#45;&gt;Node7</title>
<g id="a_edge11_Node000009_Node000007"><a xlink:title=" ">
<path fill="none" stroke="#63b8ff" d="M1875.97,-138.56C1851.16,-126.86 1814.27,-109.45 1785.86,-96.05"/>
<polygon fill="#63b8ff" stroke="#63b8ff" points="1874.63,-141.8 1885.17,-142.9 1877.61,-135.46 1874.63,-141.8"/>
</a>
</g>
</g>
<!-- Node35 -->
<g id="Node000035" class="node">
<title>Node35</title>
<g id="a_Node000035"><a xlink:href="../../dd/d96/_fx_animartrix_8ino.html" target="_top" xlink:title=" ">
<polygon fill="white" stroke="#666666" points="2343.41,-96 2167.41,-96 2167.41,-55 2343.41,-55 2343.41,-96"/>
<text text-anchor="start" x="2175.41" y="-84" font-family="Helvetica,sans-Serif" font-size="10.00">/home/runner/work/FastLED</text>
<text text-anchor="start" x="2175.41" y="-73" font-family="Helvetica,sans-Serif" font-size="10.00">/FastLED/examples/FxAnimartrix</text>
<text text-anchor="middle" x="2255.41" y="-62" font-family="Helvetica,sans-Serif" font-size="10.00">/FxAnimartrix.ino</text>
</a>
</g>
</g>
<!-- Node9&#45;&gt;Node35 -->
<g id="edge9_Node000009_Node000035" class="edge">
<title>Node9&#45;&gt;Node35</title>
<g id="a_edge9_Node000009_Node000035"><a xlink:title=" ">
<path fill="none" stroke="#63b8ff" d="M1928.01,-138.5C1933.32,-136.07 1938.96,-133.74 1944.41,-132 1947.11,-131.13 2076.29,-108.19 2167.3,-92.08"/>
<polygon fill="#63b8ff" stroke="#63b8ff" points="1926.44,-135.37 1918.97,-142.89 1929.49,-141.67 1926.44,-135.37"/>
</a>
</g>
</g>
<!-- Node38 -->
<g id="Node000038" class="node">
<title>Node38</title>
<g id="a_Node000038"><a xlink:href="../../d6/d35/_fx_engine_8ino.html" target="_top" xlink:title="Demonstrates how to use the FxEngine to switch between different effects on a 2D LED matrix.">
<polygon fill="white" stroke="#666666" points="2525.91,-96 2368.91,-96 2368.91,-55 2525.91,-55 2525.91,-96"/>
<text text-anchor="start" x="2376.91" y="-84" font-family="Helvetica,sans-Serif" font-size="10.00">/home/runner/work/FastLED</text>
<text text-anchor="start" x="2376.91" y="-73" font-family="Helvetica,sans-Serif" font-size="10.00">/FastLED/examples/FxEngine</text>
<text text-anchor="middle" x="2447.41" y="-62" font-family="Helvetica,sans-Serif" font-size="10.00">/FxEngine.ino</text>
</a>
</g>
</g>
<!-- Node9&#45;&gt;Node38 -->
<g id="edge10_Node000009_Node000038" class="edge">
<title>Node9&#45;&gt;Node38</title>
<g id="a_edge10_Node000009_Node000038"><a xlink:title=" ">
<path fill="none" stroke="#63b8ff" d="M1927.36,-138.37C1932.82,-135.87 1938.7,-133.55 1944.41,-132 2120.04,-84.15 2172.28,-122.34 2352.41,-96 2357.74,-95.22 2363.22,-94.33 2368.73,-93.37"/>
<polygon fill="#63b8ff" stroke="#63b8ff" points="1925.51,-135.38 1918.1,-142.94 1928.61,-141.65 1925.51,-135.38"/>
</a>
</g>
</g>
<!-- Node74 -->
<g id="Node000074" class="node">
<title>Node74</title>
<g id="a_Node000074"><a xlink:href="../../d7/dd3/wasm_8ino.html" target="_top" xlink:title="Demonstrates an advanced ino file with multiple effects and UI elements.">
<polygon fill="white" stroke="#666666" points="2135.41,-96 1985.41,-96 1985.41,-55 2135.41,-55 2135.41,-96"/>
<text text-anchor="start" x="1993.41" y="-84" font-family="Helvetica,sans-Serif" font-size="10.00">/home/runner/work/FastLED</text>
<text text-anchor="start" x="1993.41" y="-73" font-family="Helvetica,sans-Serif" font-size="10.00">/FastLED/examples/wasm</text>
<text text-anchor="middle" x="2060.41" y="-62" font-family="Helvetica,sans-Serif" font-size="10.00">/wasm.ino</text>
</a>
</g>
</g>
<!-- Node9&#45;&gt;Node74 -->
<g id="edge13_Node000009_Node000074" class="edge">
<title>Node9&#45;&gt;Node74</title>
<g id="a_edge13_Node000009_Node000074"><a xlink:title=" ">
<path fill="none" stroke="#63b8ff" d="M1930.49,-138.56C1954.99,-126.86 1991.42,-109.45 2019.47,-96.05"/>
<polygon fill="#63b8ff" stroke="#63b8ff" points="1928.93,-135.43 1921.42,-142.9 1931.95,-141.74 1928.93,-135.43"/>
</a>
</g>
</g>
<!-- Node9&#45;&gt;Node95 -->
<g id="edge14_Node000009_Node000095" class="edge">
<title>Node9&#45;&gt;Node95</title>
<g id="a_edge14_Node000009_Node000095"><a xlink:title=" ">
<path fill="none" stroke="#63b8ff" d="M1901.63,-132.52C1900.21,-117.24 1898.27,-96.48 1897.2,-85"/>
<polygon fill="#63b8ff" stroke="#63b8ff" points="1898.19,-133.27 1902.6,-142.9 1905.16,-132.61 1898.19,-133.27"/>
</a>
</g>
</g>
<!-- Node9&#45;&gt;Node90 -->
<g id="edge15_Node000009_Node000090" class="edge">
<title>Node9&#45;&gt;Node90</title>
<g id="a_edge15_Node000009_Node000090"><a xlink:title=" ">
<path fill="none" stroke="#63b8ff" d="M1861.24,-140.92C1849.05,-137.94 1835.72,-134.77 1823.41,-132 1745.93,-114.59 1725.4,-115.43 1648.41,-96 1635.61,-92.77 1621.57,-88.64 1609.82,-85"/>
<polygon fill="#63b8ff" stroke="#63b8ff" points="1860.61,-144.37 1871.16,-143.36 1862.28,-137.57 1860.61,-144.37"/>
</a>
</g>
</g>
<!-- Node145&#45;&gt;Node144 -->
<g id="edge24_Node000145_Node000144" class="edge">
<title>Node145&#45;&gt;Node144</title>
<g id="a_edge24_Node000145_Node000144"><a xlink:title=" ">
<path fill="none" stroke="#63b8ff" d="M95.47,-139.36C102.35,-136.85 109.6,-134.28 116.41,-132 169.92,-114.06 233.06,-95.47 269.44,-85.01"/>
<polygon fill="#63b8ff" stroke="#63b8ff" points="93.91,-136.21 85.74,-142.96 96.33,-142.78 93.91,-136.21"/>
</a>
</g>
</g>
<!-- Node153&#45;&gt;Node123 -->
<g id="edge27_Node000153_Node000123" class="edge">
<title>Node153&#45;&gt;Node123</title>
<g id="a_edge27_Node000153_Node000123"><a xlink:title=" ">
<path fill="none" stroke="#63b8ff" d="M765.7,-59.83C748.83,-47.28 725.11,-29.63 711.09,-19.2"/>
<polygon fill="#63b8ff" stroke="#63b8ff" points="763.69,-62.71 773.81,-65.87 767.87,-57.09 763.69,-62.71"/>
</a>
</g>
</g>
<!-- Node155&#45;&gt;Node153 -->
<g id="edge29_Node000155_Node000153" class="edge">
<title>Node155&#45;&gt;Node153</title>
<g id="a_edge29_Node000155_Node000153"><a xlink:title=" ">
<path fill="none" stroke="#63b8ff" d="M785.41,-127.18C785.41,-112.86 785.41,-95.61 785.41,-85.37"/>
<polygon fill="#63b8ff" stroke="#63b8ff" points="781.91,-127.39 785.41,-137.39 788.91,-127.39 781.91,-127.39"/>
</a>
</g>
</g>
<!-- Node169&#45;&gt;Node35 -->
<g id="edge41_Node000169_Node000035" class="edge">
<title>Node169&#45;&gt;Node35</title>
<g id="a_edge41_Node000169_Node000035"><a xlink:title=" ">
<path fill="none" stroke="#63b8ff" d="M2422.95,-139.33C2391.75,-127.63 2344.07,-109.75 2307.55,-96.05"/>
<polygon fill="#63b8ff" stroke="#63b8ff" points="2421.87,-142.66 2432.46,-142.9 2424.33,-136.11 2421.87,-142.66"/>
</a>
</g>
</g>
<!-- Node169&#45;&gt;Node38 -->
<g id="edge42_Node000169_Node000038" class="edge">
<title>Node169&#45;&gt;Node38</title>
<g id="a_edge42_Node000169_Node000038"><a xlink:title=" ">
<path fill="none" stroke="#63b8ff" d="M2453.39,-132.61C2452.2,-121.5 2450.71,-107.46 2449.51,-96.21"/>
<polygon fill="#63b8ff" stroke="#63b8ff" points="2449.95,-133.32 2454.49,-142.9 2456.91,-132.58 2449.95,-133.32"/>
</a>
</g>
</g>
<!-- Node169&#45;&gt;Node74 -->
<g id="edge43_Node000169_Node000074" class="edge">
<title>Node169&#45;&gt;Node74</title>
<g id="a_edge43_Node000169_Node000074"><a xlink:title=" ">
<path fill="none" stroke="#63b8ff" d="M2419.29,-140.07C2409.35,-137.18 2398.52,-134.25 2388.41,-132 2287.42,-109.5 2260.28,-114.1 2158.41,-96 2150.98,-94.68 2143.24,-93.25 2135.52,-91.77"/>
<polygon fill="#63b8ff" stroke="#63b8ff" points="2418.29,-143.43 2428.87,-142.93 2420.29,-136.72 2418.29,-143.43"/>
</a>
</g>
</g>
</g>
</svg>
