<?xml version="1.0" encoding="UTF-8" standalone="no"?>
<!DOCTYPE svg PUBLIC "-//W3C//DTD SVG 1.1//EN"
 "http://www.w3.org/Graphics/SVG/1.1/DTD/svg11.dtd">
<!-- Generated by graphviz version 2.43.0 (0)
 -->
<!-- Title: fl::UINumberFieldImpl::UINumberFieldImpl Pages: 1 -->
<svg width="458pt" height="278pt"
 viewBox="0.00 0.00 458.00 278.00" xmlns="http://www.w3.org/2000/svg" xmlns:xlink="http://www.w3.org/1999/xlink">
<g id="graph0" class="graph" transform="scale(1 1) rotate(0) translate(4 274)">
<title>fl::UINumberFieldImpl::UINumberFieldImpl</title>
<!-- Node1 -->
<g id="Node000001" class="node">
<title>Node1</title>
<g id="a_Node000001"><a xlink:title=" ">
<polygon fill="#999999" stroke="#666666" points="450,-102 327,-102 327,-72 450,-72 450,-102"/>
<text text-anchor="start" x="335" y="-90" font-family="Helvetica,sans-Serif" font-size="10.00">fl::UINumberFieldImpl</text>
<text text-anchor="middle" x="388.5" y="-79" font-family="Helvetica,sans-Serif" font-size="10.00">::UINumberFieldImpl</text>
</a>
</g>
</g>
<!-- Node2 -->
<g id="Node000002" class="node">
<title>Node2</title>
<g id="a_Node000002"><a xlink:href="../../d9/d5f/classfl_1_1_u_i_number_field_aa9fd991cb3abb114bf6c578f92324d3f.html#aa9fd991cb3abb114bf6c578f92324d3f" target="_top" xlink:title=" ">
<polygon fill="white" stroke="#666666" points="283,-150 176,-150 176,-120 283,-120 283,-150"/>
<text text-anchor="start" x="184" y="-138" font-family="Helvetica,sans-Serif" font-size="10.00">fl::UINumberField::</text>
<text text-anchor="middle" x="229.5" y="-127" font-family="Helvetica,sans-Serif" font-size="10.00">UINumberField</text>
</a>
</g>
</g>
<!-- Node1&#45;&gt;Node2 -->
<g id="edge1_Node000001_Node000002" class="edge">
<title>Node1&#45;&gt;Node2</title>
<g id="a_edge1_Node000001_Node000002"><a xlink:title=" ">
<path fill="none" stroke="#63b8ff" d="M328.41,-105.07C312.31,-109.99 295.05,-115.27 279.57,-120"/>
<polygon fill="#63b8ff" stroke="#63b8ff" points="329.72,-108.33 338.25,-102.06 327.67,-101.63 329.72,-108.33"/>
</a>
</g>
</g>
<!-- Node9 -->
<g id="Node000009" class="node">
<title>Node9</title>
<g id="a_Node000009"><a xlink:href="../../dd/d62/classfl_1_1_u_i_number_field_impl_a5dab914f9202401a3a8e6141fc17fb49.html#a5dab914f9202401a3a8e6141fc17fb49" target="_top" xlink:title=" ">
<polygon fill="white" stroke="#666666" points="291,-102 168,-102 168,-72 291,-72 291,-102"/>
<text text-anchor="start" x="176" y="-90" font-family="Helvetica,sans-Serif" font-size="10.00">fl::UINumberFieldImpl</text>
<text text-anchor="middle" x="229.5" y="-79" font-family="Helvetica,sans-Serif" font-size="10.00">::operator=</text>
</a>
</g>
</g>
<!-- Node1&#45;&gt;Node9 -->
<g id="edge8_Node000001_Node000009" class="edge">
<title>Node1&#45;&gt;Node9</title>
<g id="a_edge8_Node000001_Node000009"><a xlink:title=" ">
<path fill="none" stroke="#63b8ff" d="M316.79,-87C308.19,-87 299.47,-87 291.04,-87"/>
<polygon fill="#63b8ff" stroke="#63b8ff" points="316.8,-90.5 326.8,-87 316.8,-83.5 316.8,-90.5"/>
</a>
</g>
</g>
<!-- Node10 -->
<g id="Node000010" class="node">
<title>Node10</title>
<g id="a_Node000010"><a xlink:href="../../dd/d62/classfl_1_1_u_i_number_field_impl_a09dfc007e54b1df6a9b73186c2281fc8.html#a09dfc007e54b1df6a9b73186c2281fc8" target="_top" xlink:title=" ">
<polygon fill="white" stroke="#666666" points="291,-54 168,-54 168,-24 291,-24 291,-54"/>
<text text-anchor="start" x="176" y="-42" font-family="Helvetica,sans-Serif" font-size="10.00">fl::UINumberFieldImpl</text>
<text text-anchor="middle" x="229.5" y="-31" font-family="Helvetica,sans-Serif" font-size="10.00">::operator=</text>
</a>
</g>
</g>
<!-- Node1&#45;&gt;Node10 -->
<g id="edge9_Node000001_Node000010" class="edge">
<title>Node1&#45;&gt;Node10</title>
<g id="a_edge9_Node000001_Node000010"><a xlink:title=" ">
<path fill="none" stroke="#63b8ff" d="M328.41,-68.93C312.31,-64.01 295.05,-58.73 279.57,-54"/>
<polygon fill="#63b8ff" stroke="#63b8ff" points="327.67,-72.37 338.25,-71.94 329.72,-65.67 327.67,-72.37"/>
</a>
</g>
</g>
<!-- Node3 -->
<g id="Node000003" class="node">
<title>Node3</title>
<g id="a_Node000003"><a xlink:href="../../d0/d0d/structfl_1_1_u_i_number_field_1_1_listener_a1ef13c1987d994b9fd9ffa84aaf67131.html#a1ef13c1987d994b9fd9ffa84aaf67131" target="_top" xlink:title=" ">
<polygon fill="white" stroke="#666666" points="119.5,-270 12.5,-270 12.5,-240 119.5,-240 119.5,-270"/>
<text text-anchor="start" x="20.5" y="-258" font-family="Helvetica,sans-Serif" font-size="10.00">fl::UINumberField::</text>
<text text-anchor="middle" x="66" y="-247" font-family="Helvetica,sans-Serif" font-size="10.00">Listener::Listener</text>
</a>
</g>
</g>
<!-- Node2&#45;&gt;Node3 -->
<g id="edge2_Node000002_Node000003" class="edge">
<title>Node2&#45;&gt;Node3</title>
<g id="a_edge2_Node000002_Node000003"><a xlink:title=" ">
<path fill="none" stroke="#63b8ff" d="M210.44,-157.95C192.53,-179.39 163.3,-211.02 132,-231 126.73,-234.37 120.92,-237.36 115,-239.98"/>
<polygon fill="#63b8ff" stroke="#63b8ff" points="213.33,-159.95 216.96,-150 207.91,-155.52 213.33,-159.95"/>
</a>
</g>
</g>
<!-- Node4 -->
<g id="Node000004" class="node">
<title>Node4</title>
<g id="a_Node000004"><a xlink:href="../../d9/d5f/classfl_1_1_u_i_number_field_a8b2b2a7941e507680b86d04401503c47.html#a8b2b2a7941e507680b86d04401503c47" target="_top" xlink:title=" ">
<polygon fill="white" stroke="#666666" points="119.5,-222 12.5,-222 12.5,-192 119.5,-192 119.5,-222"/>
<text text-anchor="start" x="20.5" y="-210" font-family="Helvetica,sans-Serif" font-size="10.00">fl::UINumberField::</text>
<text text-anchor="middle" x="66" y="-199" font-family="Helvetica,sans-Serif" font-size="10.00">FL_NO_COPY</text>
</a>
</g>
</g>
<!-- Node2&#45;&gt;Node4 -->
<g id="edge3_Node000002_Node000004" class="edge">
<title>Node2&#45;&gt;Node4</title>
<g id="a_edge3_Node000002_Node000004"><a xlink:title=" ">
<path fill="none" stroke="#63b8ff" d="M191.28,-154.69C173.54,-163.77 151.89,-174.41 132,-183 124.93,-186.05 117.34,-189.08 109.92,-191.9"/>
<polygon fill="#63b8ff" stroke="#63b8ff" points="192.88,-157.8 200.17,-150.1 189.68,-151.58 192.88,-157.8"/>
</a>
</g>
</g>
<!-- Node5 -->
<g id="Node000005" class="node">
<title>Node5</title>
<g id="a_Node000005"><a xlink:href="../../d0/d0d/structfl_1_1_u_i_number_field_1_1_listener_ac84892420879dba883e61464959244ef.html#ac84892420879dba883e61464959244ef" target="_top" xlink:title=" ">
<polygon fill="white" stroke="#666666" points="132,-174 0,-174 0,-144 132,-144 132,-174"/>
<text text-anchor="start" x="8" y="-162" font-family="Helvetica,sans-Serif" font-size="10.00">fl::UINumberField::</text>
<text text-anchor="middle" x="66" y="-151" font-family="Helvetica,sans-Serif" font-size="10.00">Listener::onBeginFrame</text>
</a>
</g>
</g>
<!-- Node2&#45;&gt;Node5 -->
<g id="edge4_Node000002_Node000005" class="edge">
<title>Node2&#45;&gt;Node5</title>
<g id="a_edge4_Node000002_Node000005"><a xlink:title=" ">
<path fill="none" stroke="#63b8ff" d="M165.67,-144.34C154.67,-145.97 143.2,-147.68 132.13,-149.32"/>
<polygon fill="#63b8ff" stroke="#63b8ff" points="166.24,-147.79 175.62,-142.86 165.21,-140.87 166.24,-147.79"/>
</a>
</g>
</g>
<!-- Node6 -->
<g id="Node000006" class="node">
<title>Node6</title>
<g id="a_Node000006"><a xlink:href="../../d9/d5f/classfl_1_1_u_i_number_field_af373006706e35bbbfb013e0c05e1d94b.html#af373006706e35bbbfb013e0c05e1d94b" target="_top" xlink:title=" ">
<polygon fill="white" stroke="#666666" points="119.5,-126 12.5,-126 12.5,-96 119.5,-96 119.5,-126"/>
<text text-anchor="start" x="20.5" y="-114" font-family="Helvetica,sans-Serif" font-size="10.00">fl::UINumberField::</text>
<text text-anchor="middle" x="66" y="-103" font-family="Helvetica,sans-Serif" font-size="10.00">onChanged</text>
</a>
</g>
</g>
<!-- Node2&#45;&gt;Node6 -->
<g id="edge5_Node000002_Node000006" class="edge">
<title>Node2&#45;&gt;Node6</title>
<g id="a_edge5_Node000002_Node000006"><a xlink:title=" ">
<path fill="none" stroke="#63b8ff" d="M165.34,-125.61C150.24,-123.37 134.29,-121 119.72,-118.84"/>
<polygon fill="#63b8ff" stroke="#63b8ff" points="165.21,-129.13 175.62,-127.14 166.24,-122.21 165.21,-129.13"/>
</a>
</g>
</g>
<!-- Node7 -->
<g id="Node000007" class="node">
<title>Node7</title>
<g id="a_Node000007"><a xlink:href="../../d9/d5f/classfl_1_1_u_i_number_field_a32921ba224a5a7687a1125d826358e74.html#a32921ba224a5a7687a1125d826358e74" target="_top" xlink:title=" ">
<polygon fill="white" stroke="#666666" points="119.5,-78 12.5,-78 12.5,-48 119.5,-48 119.5,-78"/>
<text text-anchor="start" x="20.5" y="-66" font-family="Helvetica,sans-Serif" font-size="10.00">fl::UINumberField::</text>
<text text-anchor="middle" x="66" y="-55" font-family="Helvetica,sans-Serif" font-size="10.00">operator=</text>
</a>
</g>
</g>
<!-- Node2&#45;&gt;Node7 -->
<g id="edge6_Node000002_Node000007" class="edge">
<title>Node2&#45;&gt;Node7</title>
<g id="a_edge6_Node000002_Node000007"><a xlink:title=" ">
<path fill="none" stroke="#63b8ff" d="M177.62,-115.73C174.33,-114.2 171.1,-112.62 168,-111 150.97,-102.07 149.14,-95.72 132,-87 125.67,-83.78 118.81,-80.77 112,-78.04"/>
<polygon fill="#63b8ff" stroke="#63b8ff" points="176.41,-119.02 186.97,-119.87 179.25,-112.62 176.41,-119.02"/>
</a>
</g>
</g>
<!-- Node8 -->
<g id="Node000008" class="node">
<title>Node8</title>
<g id="a_Node000008"><a xlink:href="../../d9/d5f/classfl_1_1_u_i_number_field_a627eccbe042ab5195ff6a61a01e85952.html#a627eccbe042ab5195ff6a61a01e85952" target="_top" xlink:title=" ">
<polygon fill="white" stroke="#666666" points="119.5,-30 12.5,-30 12.5,0 119.5,0 119.5,-30"/>
<text text-anchor="start" x="20.5" y="-18" font-family="Helvetica,sans-Serif" font-size="10.00">fl::UINumberField::</text>
<text text-anchor="middle" x="66" y="-7" font-family="Helvetica,sans-Serif" font-size="10.00">operator=</text>
</a>
</g>
</g>
<!-- Node2&#45;&gt;Node8 -->
<g id="edge7_Node000002_Node000008" class="edge">
<title>Node2&#45;&gt;Node8</title>
<g id="a_edge7_Node000002_Node000008"><a xlink:title=" ">
<path fill="none" stroke="#63b8ff" d="M172.05,-114.38C170.64,-113.31 169.29,-112.18 168,-111 141.64,-86.81 158.65,-62.87 132,-39 128.15,-35.55 123.75,-32.58 119.11,-30.03"/>
<polygon fill="#63b8ff" stroke="#63b8ff" points="170.3,-117.42 180.59,-119.97 174.14,-111.57 170.3,-117.42"/>
</a>
</g>
</g>
</g>
</svg>
