<?xml version="1.0" encoding="UTF-8" standalone="no"?>
<!DOCTYPE svg PUBLIC "-//W3C//DTD SVG 1.1//EN"
 "http://www.w3.org/Graphics/SVG/1.1/DTD/svg11.dtd">
<!-- Generated by graphviz version 2.43.0 (0)
 -->
<!-- Title: fl::UINumberFieldImpl::setValue Pages: 1 -->
<svg width="433pt" height="158pt"
 viewBox="0.00 0.00 433.00 158.00" xmlns="http://www.w3.org/2000/svg" xmlns:xlink="http://www.w3.org/1999/xlink">
<g id="graph0" class="graph" transform="scale(1 1) rotate(0) translate(4 154)">
<title>fl::UINumberFieldImpl::setValue</title>
<!-- Node1 -->
<g id="Node000001" class="node">
<title>Node1</title>
<g id="a_Node000001"><a xlink:title=" ">
<polygon fill="#999999" stroke="#666666" points="425,-102 302,-102 302,-72 425,-72 425,-102"/>
<text text-anchor="start" x="310" y="-90" font-family="Helvetica,sans-Serif" font-size="10.00">fl::UINumberFieldImpl</text>
<text text-anchor="middle" x="363.5" y="-79" font-family="Helvetica,sans-Serif" font-size="10.00">::setValue</text>
</a>
</g>
</g>
<!-- Node2 -->
<g id="Node000002" class="node">
<title>Node2</title>
<g id="a_Node000002"><a xlink:href="../../dd/d62/classfl_1_1_u_i_number_field_impl_a5dab914f9202401a3a8e6141fc17fb49.html#a5dab914f9202401a3a8e6141fc17fb49" target="_top" xlink:title=" ">
<polygon fill="white" stroke="#666666" points="266,-150 143,-150 143,-120 266,-120 266,-150"/>
<text text-anchor="start" x="151" y="-138" font-family="Helvetica,sans-Serif" font-size="10.00">fl::UINumberFieldImpl</text>
<text text-anchor="middle" x="204.5" y="-127" font-family="Helvetica,sans-Serif" font-size="10.00">::operator=</text>
</a>
</g>
</g>
<!-- Node1&#45;&gt;Node2 -->
<g id="edge1_Node000001_Node000002" class="edge">
<title>Node1&#45;&gt;Node2</title>
<g id="a_edge1_Node000001_Node000002"><a xlink:title=" ">
<path fill="none" stroke="#63b8ff" d="M303.41,-105.07C287.31,-109.99 270.05,-115.27 254.57,-120"/>
<polygon fill="#63b8ff" stroke="#63b8ff" points="304.72,-108.33 313.25,-102.06 302.67,-101.63 304.72,-108.33"/>
</a>
</g>
</g>
<!-- Node3 -->
<g id="Node000003" class="node">
<title>Node3</title>
<g id="a_Node000003"><a xlink:href="../../dd/d62/classfl_1_1_u_i_number_field_impl_a09dfc007e54b1df6a9b73186c2281fc8.html#a09dfc007e54b1df6a9b73186c2281fc8" target="_top" xlink:title=" ">
<polygon fill="white" stroke="#666666" points="266,-102 143,-102 143,-72 266,-72 266,-102"/>
<text text-anchor="start" x="151" y="-90" font-family="Helvetica,sans-Serif" font-size="10.00">fl::UINumberFieldImpl</text>
<text text-anchor="middle" x="204.5" y="-79" font-family="Helvetica,sans-Serif" font-size="10.00">::operator=</text>
</a>
</g>
</g>
<!-- Node1&#45;&gt;Node3 -->
<g id="edge2_Node000001_Node000003" class="edge">
<title>Node1&#45;&gt;Node3</title>
<g id="a_edge2_Node000001_Node000003"><a xlink:title=" ">
<path fill="none" stroke="#63b8ff" d="M291.79,-87C283.19,-87 274.47,-87 266.04,-87"/>
<polygon fill="#63b8ff" stroke="#63b8ff" points="291.8,-90.5 301.8,-87 291.8,-83.5 291.8,-90.5"/>
</a>
</g>
</g>
<!-- Node4 -->
<g id="Node000004" class="node">
<title>Node4</title>
<g id="a_Node000004"><a xlink:href="../../d9/d5f/classfl_1_1_u_i_number_field_ae3eb39add980947e8f91b380c29ec46b.html#ae3eb39add980947e8f91b380c29ec46b" target="_top" xlink:title=" ">
<polygon fill="white" stroke="#666666" points="258,-54 151,-54 151,-24 258,-24 258,-54"/>
<text text-anchor="start" x="159" y="-42" font-family="Helvetica,sans-Serif" font-size="10.00">fl::UINumberField::</text>
<text text-anchor="middle" x="204.5" y="-31" font-family="Helvetica,sans-Serif" font-size="10.00">setValue</text>
</a>
</g>
</g>
<!-- Node1&#45;&gt;Node4 -->
<g id="edge3_Node000001_Node000004" class="edge">
<title>Node1&#45;&gt;Node4</title>
<g id="a_edge3_Node000001_Node000004"><a xlink:title=" ">
<path fill="none" stroke="#63b8ff" d="M303.41,-68.93C287.31,-64.01 270.05,-58.73 254.57,-54"/>
<polygon fill="#63b8ff" stroke="#63b8ff" points="302.67,-72.37 313.25,-71.94 304.72,-65.67 302.67,-72.37"/>
</a>
</g>
</g>
<!-- Node5 -->
<g id="Node000005" class="node">
<title>Node5</title>
<g id="a_Node000005"><a xlink:href="../../d9/d5f/classfl_1_1_u_i_number_field_a32921ba224a5a7687a1125d826358e74.html#a32921ba224a5a7687a1125d826358e74" target="_top" xlink:title=" ">
<polygon fill="white" stroke="#666666" points="107,-78 0,-78 0,-48 107,-48 107,-78"/>
<text text-anchor="start" x="8" y="-66" font-family="Helvetica,sans-Serif" font-size="10.00">fl::UINumberField::</text>
<text text-anchor="middle" x="53.5" y="-55" font-family="Helvetica,sans-Serif" font-size="10.00">operator=</text>
</a>
</g>
</g>
<!-- Node4&#45;&gt;Node5 -->
<g id="edge4_Node000004_Node000005" class="edge">
<title>Node4&#45;&gt;Node5</title>
<g id="a_edge4_Node000004_Node000005"><a xlink:title=" ">
<path fill="none" stroke="#63b8ff" d="M140.79,-49.1C129.56,-50.91 117.97,-52.78 107.06,-54.53"/>
<polygon fill="#63b8ff" stroke="#63b8ff" points="141.65,-52.51 150.97,-47.46 140.54,-45.6 141.65,-52.51"/>
</a>
</g>
</g>
<!-- Node6 -->
<g id="Node000006" class="node">
<title>Node6</title>
<g id="a_Node000006"><a xlink:href="../../d9/d5f/classfl_1_1_u_i_number_field_a627eccbe042ab5195ff6a61a01e85952.html#a627eccbe042ab5195ff6a61a01e85952" target="_top" xlink:title=" ">
<polygon fill="white" stroke="#666666" points="107,-30 0,-30 0,0 107,0 107,-30"/>
<text text-anchor="start" x="8" y="-18" font-family="Helvetica,sans-Serif" font-size="10.00">fl::UINumberField::</text>
<text text-anchor="middle" x="53.5" y="-7" font-family="Helvetica,sans-Serif" font-size="10.00">operator=</text>
</a>
</g>
</g>
<!-- Node4&#45;&gt;Node6 -->
<g id="edge5_Node000004_Node000006" class="edge">
<title>Node4&#45;&gt;Node6</title>
<g id="a_edge5_Node000004_Node000006"><a xlink:title=" ">
<path fill="none" stroke="#63b8ff" d="M140.79,-28.9C129.56,-27.09 117.97,-25.22 107.06,-23.47"/>
<polygon fill="#63b8ff" stroke="#63b8ff" points="140.54,-32.4 150.97,-30.54 141.65,-25.49 140.54,-32.4"/>
</a>
</g>
</g>
</g>
</svg>
