<?xml version="1.0" encoding="UTF-8" standalone="no"?>
<!DOCTYPE svg PUBLIC "-//W3C//DTD SVG 1.1//EN"
 "http://www.w3.org/Graphics/SVG/1.1/DTD/svg11.dtd">
<!-- Generated by graphviz version 2.43.0 (0)
 -->
<!-- Title: corkscrew Pages: 1 -->
<svg width="154pt" height="64pt"
 viewBox="0.00 0.00 154.00 64.00" xmlns="http://www.w3.org/2000/svg" xmlns:xlink="http://www.w3.org/1999/xlink">
<g id="graph0" class="graph" transform="scale(1 1) rotate(0) translate(4 60)">
<title>corkscrew</title>
<!-- Node1 -->
<g id="Node000001" class="node">
<title>Node1</title>
<g id="a_Node000001"><a xlink:title=" ">
<polygon fill="#999999" stroke="#666666" points="146,-37 80,-37 80,-18 146,-18 146,-37"/>
<text text-anchor="middle" x="113" y="-25" font-family="Helvetica,sans-Serif" font-size="10.00">corkscrew</text>
</a>
</g>
</g>
<!-- Node2 -->
<g id="Node000002" class="node">
<title>Node2</title>
<g id="a_Node000002"><a xlink:href="../../d4/d06/curr_8h_afe461d27b9c48d5921c00d521181f12f.html#afe461d27b9c48d5921c00d521181f12f" target="_top" xlink:title=" ">
<polygon fill="white" stroke="#666666" points="41,-56 3,-56 3,-37 41,-37 41,-56"/>
<text text-anchor="middle" x="22" y="-44" font-family="Helvetica,sans-Serif" font-size="10.00">loop</text>
</a>
</g>
</g>
<!-- Node1&#45;&gt;Node2 -->
<g id="edge1_Node000001_Node000002" class="edge">
<title>Node1&#45;&gt;Node2</title>
<g id="a_edge1_Node000001_Node000002"><a xlink:title=" ">
<path fill="none" stroke="#63b8ff" d="M69.87,-36.49C59.75,-38.66 49.45,-40.85 41.1,-42.64"/>
<polygon fill="#63b8ff" stroke="#63b8ff" points="70.82,-39.87 79.87,-34.36 69.36,-33.02 70.82,-39.87"/>
</a>
</g>
</g>
<!-- Node3 -->
<g id="Node000003" class="node">
<title>Node3</title>
<g id="a_Node000003"><a xlink:href="../../d4/d06/curr_8h_a4fc01d736fe50cf5b977f755b675f11d.html#a4fc01d736fe50cf5b977f755b675f11d" target="_top" xlink:title=" ">
<polygon fill="white" stroke="#666666" points="44,-19 0,-19 0,0 44,0 44,-19"/>
<text text-anchor="middle" x="22" y="-7" font-family="Helvetica,sans-Serif" font-size="10.00">setup</text>
</a>
</g>
</g>
<!-- Node1&#45;&gt;Node3 -->
<g id="edge2_Node000001_Node000003" class="edge">
<title>Node1&#45;&gt;Node3</title>
<g id="a_edge2_Node000001_Node000003"><a xlink:title=" ">
<path fill="none" stroke="#63b8ff" d="M69.94,-18.99C61.03,-17.19 51.99,-15.36 44.25,-13.8"/>
<polygon fill="#63b8ff" stroke="#63b8ff" points="69.37,-22.45 79.87,-21 70.76,-15.59 69.37,-22.45"/>
</a>
</g>
</g>
</g>
</svg>
