<?xml version="1.0" encoding="UTF-8" standalone="no"?>
<!DOCTYPE svg PUBLIC "-//W3C//DTD SVG 1.1//EN"
 "http://www.w3.org/Graphics/SVG/1.1/DTD/svg11.dtd">
<!-- Generated by graphviz version 2.43.0 (0)
 -->
<!-- Title: loop Pages: 1 -->
<svg width="335pt" height="212pt"
 viewBox="0.00 0.00 335.00 212.00" xmlns="http://www.w3.org/2000/svg" xmlns:xlink="http://www.w3.org/1999/xlink">
<g id="graph0" class="graph" transform="scale(1 1) rotate(0) translate(4 208)">
<title>loop</title>
<!-- Node1 -->
<g id="Node000001" class="node">
<title>Node1</title>
<g id="a_Node000001"><a xlink:title=" ">
<polygon fill="#999999" stroke="#666666" points="38,-111 0,-111 0,-92 38,-92 38,-111"/>
<text text-anchor="middle" x="19" y="-99" font-family="Helvetica,sans-Serif" font-size="10.00">loop</text>
</a>
</g>
</g>
<!-- Node2 -->
<g id="Node000002" class="node">
<title>Node2</title>
<g id="a_Node000002"><a xlink:href="../../df/d21/classfl_1_1_tile2x2__u8__wrap_a706ef3a4bc4a436faa4c253e26768c23.html#a706ef3a4bc4a436faa4c253e26768c23" target="_top" xlink:title=" ">
<polygon fill="white" stroke="#666666" points="201,-204 74,-204 74,-185 201,-185 201,-204"/>
<text text-anchor="middle" x="137.5" y="-192" font-family="Helvetica,sans-Serif" font-size="10.00">fl::Tile2x2_u8_wrap::at</text>
</a>
</g>
</g>
<!-- Node1&#45;&gt;Node2 -->
<g id="edge1_Node000001_Node000002" class="edge">
<title>Node1&#45;&gt;Node2</title>
<g id="a_edge1_Node000001_Node000002"><a xlink:title=" ">
<path fill="none" stroke="#63b8ff" d="M24.31,-111.14C31.96,-127.17 49.47,-159.22 74,-176.5 76.22,-178.06 78.57,-179.49 81.01,-180.79"/>
<polygon fill="#63b8ff" stroke="#63b8ff" points="79.61,-184 90.16,-185 82.53,-177.64 79.61,-184"/>
</a>
</g>
</g>
<!-- Node3 -->
<g id="Node000003" class="node">
<title>Node3</title>
<g id="a_Node000003"><a xlink:href="../../df/d40/examples_2_corkscrew_2corkscrew_8h_ae016e0f7e033c70c9cd59f0bc832828d.html#ae016e0f7e033c70c9cd59f0bc832828d" target="_top" xlink:title=" ">
<polygon fill="white" stroke="#666666" points="184,-167 91,-167 91,-148 184,-148 184,-167"/>
<text text-anchor="middle" x="137.5" y="-155" font-family="Helvetica,sans-Serif" font-size="10.00">cachingEnabled</text>
</a>
</g>
</g>
<!-- Node1&#45;&gt;Node3 -->
<g id="edge2_Node000001_Node000003" class="edge">
<title>Node1&#45;&gt;Node3</title>
<g id="a_edge2_Node000001_Node000003"><a xlink:title=" ">
<path fill="none" stroke="#63b8ff" d="M31.3,-111.16C41.77,-119.67 58.08,-131.87 74,-139.5 77.84,-141.34 81.9,-143.03 86.04,-144.57"/>
<polygon fill="#63b8ff" stroke="#63b8ff" points="85.16,-147.97 95.76,-147.9 87.43,-141.35 85.16,-147.97"/>
</a>
</g>
</g>
<!-- Node4 -->
<g id="Node000004" class="node">
<title>Node4</title>
<g id="a_Node000004"><a xlink:href="../../d4/d36/namespacefl_a29022c57817c486135e4939abce404d6.html#a29022c57817c486135e4939abce404d6" target="_top" xlink:title=" ">
<polygon fill="white" stroke="#666666" points="164,-130 111,-130 111,-111 164,-111 164,-130"/>
<text text-anchor="middle" x="137.5" y="-118" font-family="Helvetica,sans-Serif" font-size="10.00">fl::clear</text>
</a>
</g>
</g>
<!-- Node1&#45;&gt;Node4 -->
<g id="edge3_Node000001_Node000004" class="edge">
<title>Node1&#45;&gt;Node4</title>
<g id="a_edge3_Node000001_Node000004"><a xlink:title=" ">
<path fill="none" stroke="#63b8ff" d="M38.2,-104.47C54.85,-107.18 79.94,-111.28 100.61,-114.65"/>
<polygon fill="#63b8ff" stroke="#63b8ff" points="100.21,-118.13 110.64,-116.28 101.34,-111.22 100.21,-118.13"/>
</a>
</g>
</g>
<!-- Node5 -->
<g id="Node000005" class="node">
<title>Node5</title>
<g id="a_Node000005"><a xlink:href="../../df/d40/examples_2_corkscrew_2corkscrew_8h_a51f14a1e7c3bfcb462552862987a4a24.html#a51f14a1e7c3bfcb462552862987a4a24" target="_top" xlink:title=" ">
<polygon fill="white" stroke="#666666" points="170.5,-93 104.5,-93 104.5,-74 170.5,-74 170.5,-93"/>
<text text-anchor="middle" x="137.5" y="-81" font-family="Helvetica,sans-Serif" font-size="10.00">corkscrew</text>
</a>
</g>
</g>
<!-- Node1&#45;&gt;Node5 -->
<g id="edge4_Node000001_Node000005" class="edge">
<title>Node1&#45;&gt;Node5</title>
<g id="a_edge4_Node000001_Node000005"><a xlink:title=" ">
<path fill="none" stroke="#63b8ff" d="M38.2,-98.69C53.18,-96.37 74.99,-93 94.26,-90.03"/>
<polygon fill="#63b8ff" stroke="#63b8ff" points="95.01,-93.45 104.36,-88.47 93.94,-86.53 95.01,-93.45"/>
</a>
</g>
</g>
<!-- Node6 -->
<g id="Node000006" class="node">
<title>Node6</title>
<g id="a_Node000006"><a xlink:href="../../da/dd6/structfl_1_1_c_r_g_b_aa272170bea8120f101f27ebd2c323b55.html#aa272170bea8120f101f27ebd2c323b55" target="_top" xlink:title="Scale down a RGB to N/256ths of its current brightness, using &quot;plain math&quot; dimming rules.">
<polygon fill="white" stroke="#666666" points="187.5,-56 87.5,-56 87.5,-37 187.5,-37 187.5,-56"/>
<text text-anchor="middle" x="137.5" y="-44" font-family="Helvetica,sans-Serif" font-size="10.00">fl::CRGB::nscale8</text>
</a>
</g>
</g>
<!-- Node1&#45;&gt;Node6 -->
<g id="edge5_Node000001_Node000006" class="edge">
<title>Node1&#45;&gt;Node6</title>
<g id="a_edge5_Node000001_Node000006"><a xlink:title=" ">
<path fill="none" stroke="#63b8ff" d="M32.25,-91.81C42.81,-83.84 58.72,-72.72 74,-65.5 78.75,-63.26 83.82,-61.2 88.95,-59.34"/>
<polygon fill="#63b8ff" stroke="#63b8ff" points="90.46,-62.53 98.81,-56.01 88.22,-55.9 90.46,-62.53"/>
</a>
</g>
</g>
<!-- Node8 -->
<g id="Node000008" class="node">
<title>Node8</title>
<g id="a_Node000008"><a xlink:href="../../df/d40/examples_2_corkscrew_2corkscrew_8h_a11f7d6e1efce8fc2563dee410a38cc2c.html#a11f7d6e1efce8fc2563dee410a38cc2c" target="_top" xlink:title=" ">
<polygon fill="white" stroke="#666666" points="182.5,-19 92.5,-19 92.5,0 182.5,0 182.5,-19"/>
<text text-anchor="middle" x="137.5" y="-7" font-family="Helvetica,sans-Serif" font-size="10.00">splatRendering</text>
</a>
</g>
</g>
<!-- Node1&#45;&gt;Node8 -->
<g id="edge7_Node000001_Node000008" class="edge">
<title>Node1&#45;&gt;Node8</title>
<g id="a_edge7_Node000001_Node000008"><a xlink:title=" ">
<path fill="none" stroke="#63b8ff" d="M24.53,-91.9C32.39,-76.28 50.04,-45.41 74,-28.5 76.87,-26.48 79.95,-24.67 83.16,-23.04"/>
<polygon fill="#63b8ff" stroke="#63b8ff" points="84.72,-26.18 92.47,-18.96 81.9,-19.78 84.72,-26.18"/>
</a>
</g>
</g>
<!-- Node7 -->
<g id="Node000007" class="node">
<title>Node7</title>
<g id="a_Node000007"><a xlink:href="../../da/dd6/structfl_1_1_c_r_g_b_adb891cc4fe8f5ac2188d72c13c0256fd.html#adb891cc4fe8f5ac2188d72c13c0256fd" target="_top" xlink:title="Default constructor.">
<polygon fill="white" stroke="#666666" points="327,-56 237,-56 237,-37 327,-37 327,-56"/>
<text text-anchor="middle" x="282" y="-44" font-family="Helvetica,sans-Serif" font-size="10.00">fl::CRGB::CRGB</text>
</a>
</g>
</g>
<!-- Node6&#45;&gt;Node7 -->
<g id="edge6_Node000006_Node000007" class="edge">
<title>Node6&#45;&gt;Node7</title>
<g id="a_edge6_Node000006_Node000007"><a xlink:title=" ">
<path fill="none" stroke="#63b8ff" d="M187.54,-46.5C200.12,-46.5 213.72,-46.5 226.56,-46.5"/>
<polygon fill="#63b8ff" stroke="#63b8ff" points="226.65,-50 236.65,-46.5 226.65,-43 226.65,-50"/>
</a>
</g>
</g>
</g>
</svg>
