<?xml version="1.0" encoding="UTF-8" standalone="no"?>
<!DOCTYPE svg PUBLIC "-//W3C//DTD SVG 1.1//EN"
 "http://www.w3.org/Graphics/SVG/1.1/DTD/svg11.dtd">
<!-- Generated by graphviz version 2.43.0 (0)
 -->
<!-- Title: fl::fixed_point_base::sqrt_impl Pages: 1 -->
<svg width="347pt" height="100pt"
 viewBox="0.00 0.00 347.00 100.00" xmlns="http://www.w3.org/2000/svg" xmlns:xlink="http://www.w3.org/1999/xlink">
<g id="graph0" class="graph" transform="scale(1 1) rotate(0) translate(4 96)">
<title>fl::fixed_point_base::sqrt_impl</title>
<!-- Node1 -->
<g id="Node000001" class="node">
<title>Node1</title>
<g id="a_Node000001"><a xlink:title=" ">
<polygon fill="#999999" stroke="#666666" points="110,-51.5 0,-51.5 0,-21.5 110,-21.5 110,-51.5"/>
<text text-anchor="start" x="8" y="-39.5" font-family="Helvetica,sans-Serif" font-size="10.00">fl::fixed_point_base</text>
<text text-anchor="middle" x="55" y="-28.5" font-family="Helvetica,sans-Serif" font-size="10.00">::sqrt_impl</text>
</a>
</g>
</g>
<!-- Node2 -->
<g id="Node000002" class="node">
<title>Node2</title>
<g id="a_Node000002"><a xlink:href="../../d4/d36/namespacefl_af5c29eadd20175af06cbe84aab7d50bc.html#af5c29eadd20175af06cbe84aab7d50bc" target="_top" xlink:title=" ">
<polygon fill="white" stroke="#666666" points="208,-46 146,-46 146,-27 208,-27 208,-46"/>
<text text-anchor="middle" x="177" y="-34" font-family="Helvetica,sans-Serif" font-size="10.00">fl::isqrt64</text>
</a>
</g>
</g>
<!-- Node1&#45;&gt;Node2 -->
<g id="edge1_Node000001_Node000002" class="edge">
<title>Node1&#45;&gt;Node2</title>
<g id="a_edge1_Node000001_Node000002"><a xlink:title=" ">
<path fill="none" stroke="#63b8ff" d="M110.03,-36.5C118.69,-36.5 127.52,-36.5 135.79,-36.5"/>
<polygon fill="#63b8ff" stroke="#63b8ff" points="135.9,-40 145.9,-36.5 135.9,-33 135.9,-40"/>
</a>
</g>
</g>
<!-- Node3 -->
<g id="Node000003" class="node">
<title>Node3</title>
<g id="a_Node000003"><a xlink:href="../../d4/d36/namespacefl_a1ed2e1eb2f96bbee190d7ecf2ebe9b9d.html#a1ed2e1eb2f96bbee190d7ecf2ebe9b9d" target="_top" xlink:title=" ">
<polygon fill="white" stroke="#666666" points="339,-74 244,-74 244,-55 339,-55 339,-74"/>
<text text-anchor="middle" x="291.5" y="-62" font-family="Helvetica,sans-Serif" font-size="10.00">fl::_isqrt64_start</text>
</a>
</g>
</g>
<!-- Node2&#45;&gt;Node3 -->
<g id="edge2_Node000002_Node000003" class="edge">
<title>Node2&#45;&gt;Node3</title>
<g id="a_edge2_Node000002_Node000003"><a xlink:title=" ">
<path fill="none" stroke="#63b8ff" d="M208.15,-44C218.62,-46.61 230.64,-49.6 242.2,-52.48"/>
<polygon fill="#63b8ff" stroke="#63b8ff" points="241.65,-55.95 252.2,-54.97 243.34,-49.16 241.65,-55.95"/>
</a>
</g>
</g>
<!-- Node4 -->
<g id="Node000004" class="node">
<title>Node4</title>
<g id="a_Node000004"><a xlink:href="../../d4/d36/namespacefl_a78ae0a013fc23451bb52bd487f5a6e14.html#a78ae0a013fc23451bb52bd487f5a6e14" target="_top" xlink:title=" ">
<polygon fill="white" stroke="#666666" points="338.5,-19 244.5,-19 244.5,0 338.5,0 338.5,-19"/>
<text text-anchor="middle" x="291.5" y="-7" font-family="Helvetica,sans-Serif" font-size="10.00">fl::_isqrt64_step</text>
</a>
</g>
</g>
<!-- Node2&#45;&gt;Node4 -->
<g id="edge4_Node000002_Node000004" class="edge">
<title>Node2&#45;&gt;Node4</title>
<g id="a_edge4_Node000002_Node000004"><a xlink:title=" ">
<path fill="none" stroke="#63b8ff" d="M208.15,-29.26C218.11,-26.87 229.49,-24.14 240.53,-21.49"/>
<polygon fill="#63b8ff" stroke="#63b8ff" points="241.62,-24.83 250.53,-19.09 239.99,-18.02 241.62,-24.83"/>
</a>
</g>
</g>
<!-- Node3&#45;&gt;Node3 -->
<g id="edge3_Node000003_Node000003" class="edge">
<title>Node3&#45;&gt;Node3</title>
<g id="a_edge3_Node000003_Node000003"><a xlink:title=" ">
<path fill="none" stroke="#63b8ff" d="M273.93,-74.08C265.38,-82.73 271.24,-92 291.5,-92 304.16,-92 311.2,-88.38 312.61,-83.55"/>
<polygon fill="#63b8ff" stroke="#63b8ff" points="315.85,-82.22 309.07,-74.08 309.29,-84.68 315.85,-82.22"/>
</a>
</g>
</g>
<!-- Node4&#45;&gt;Node4 -->
<g id="edge5_Node000004_Node000004" class="edge">
<title>Node4&#45;&gt;Node4</title>
<g id="a_edge5_Node000004_Node000004"><a xlink:title=" ">
<path fill="none" stroke="#63b8ff" d="M273.93,-19.08C265.38,-27.73 271.24,-37 291.5,-37 304.16,-37 311.2,-33.38 312.61,-28.55"/>
<polygon fill="#63b8ff" stroke="#63b8ff" points="315.85,-27.22 309.07,-19.08 309.29,-29.68 315.85,-27.22"/>
</a>
</g>
</g>
</g>
</svg>
