<?xml version="1.0" encoding="UTF-8" standalone="no"?>
<!DOCTYPE svg PUBLIC "-//W3C//DTD SVG 1.1//EN"
 "http://www.w3.org/Graphics/SVG/1.1/DTD/svg11.dtd">
<!-- Generated by graphviz version 2.43.0 (0)
 -->
<!-- Title: autoresearch::simd_check::test_sub_i32_4 Pages: 1 -->
<svg width="283pt" height="86pt"
 viewBox="0.00 0.00 283.00 86.00" xmlns="http://www.w3.org/2000/svg" xmlns:xlink="http://www.w3.org/1999/xlink">
<g id="graph0" class="graph" transform="scale(1 1) rotate(0) translate(4 82)">
<title>autoresearch::simd_check::test_sub_i32_4</title>
<!-- Node1 -->
<g id="Node000001" class="node">
<title>Node1</title>
<g id="a_Node000001"><a xlink:title=" ">
<polygon fill="#999999" stroke="#666666" points="129,-54 0,-54 0,-24 129,-24 129,-54"/>
<text text-anchor="start" x="8" y="-42" font-family="Helvetica,sans-Serif" font-size="10.00">autoresearch::simd</text>
<text text-anchor="middle" x="64.5" y="-31" font-family="Helvetica,sans-Serif" font-size="10.00">_check::test_sub_i32_4</text>
</a>
</g>
</g>
<!-- Node2 -->
<g id="Node000002" class="node">
<title>Node2</title>
<g id="a_Node000002"><a xlink:href="../../d9/d1a/namespaceautoresearch_1_1simd__check_a6b0a6976b8470dfb3ddb9ce9527e7b18.html#a6b0a6976b8470dfb3ddb9ce9527e7b18" target="_top" xlink:title=" ">
<polygon fill="white" stroke="#666666" points="275,-78 165,-78 165,-48 275,-48 275,-78"/>
<text text-anchor="start" x="173" y="-66" font-family="Helvetica,sans-Serif" font-size="10.00">autoresearch::simd</text>
<text text-anchor="middle" x="220" y="-55" font-family="Helvetica,sans-Serif" font-size="10.00">_check::as_i32</text>
</a>
</g>
</g>
<!-- Node1&#45;&gt;Node2 -->
<g id="edge1_Node000001_Node000002" class="edge">
<title>Node1&#45;&gt;Node2</title>
<g id="a_edge1_Node000001_Node000002"><a xlink:title=" ">
<path fill="none" stroke="#63b8ff" d="M129.26,-48.97C137.79,-50.3 146.54,-51.67 155.06,-53"/>
<polygon fill="#63b8ff" stroke="#63b8ff" points="154.53,-56.46 164.95,-54.55 155.61,-49.55 154.53,-56.46"/>
</a>
</g>
</g>
<!-- Node3 -->
<g id="Node000003" class="node">
<title>Node3</title>
<g id="a_Node000003"><a xlink:href="../../d9/d1a/namespaceautoresearch_1_1simd__check_a0130a9f090980e720fff0c3d8115562f.html#a0130a9f090980e720fff0c3d8115562f" target="_top" xlink:title=" ">
<polygon fill="white" stroke="#666666" points="275,-30 165,-30 165,0 275,0 275,-30"/>
<text text-anchor="start" x="173" y="-18" font-family="Helvetica,sans-Serif" font-size="10.00">autoresearch::simd</text>
<text text-anchor="middle" x="220" y="-7" font-family="Helvetica,sans-Serif" font-size="10.00">_check::as_u32</text>
</a>
</g>
</g>
<!-- Node1&#45;&gt;Node3 -->
<g id="edge2_Node000001_Node000003" class="edge">
<title>Node1&#45;&gt;Node3</title>
<g id="a_edge2_Node000001_Node000003"><a xlink:title=" ">
<path fill="none" stroke="#63b8ff" d="M129.26,-29.03C137.79,-27.7 146.54,-26.33 155.06,-25"/>
<polygon fill="#63b8ff" stroke="#63b8ff" points="155.61,-28.45 164.95,-23.45 154.53,-21.54 155.61,-28.45"/>
</a>
</g>
</g>
</g>
</svg>
