<?xml version="1.0" encoding="UTF-8" standalone="no"?>
<!DOCTYPE svg PUBLIC "-//W3C//DTD SVG 1.1//EN"
 "http://www.w3.org/Graphics/SVG/1.1/DTD/svg11.dtd">
<!-- Generated by graphviz version 2.43.0 (0)
 -->
<!-- Title: fl::s12x4::raw Pages: 1 -->
<!--zoomable 730 -->

<svg id="main" version="1.1" xmlns="http://www.w3.org/2000/svg" xmlns:xlink="http://www.w3.org/1999/xlink" xml:space="preserve" onload="init(evt)">

<style type="text/css"><![CDATA[
.node, .edge {opacity: 0.7;}
.node.selected, .edge.selected {opacity: 1;}
.edge:hover path { stroke: red; }
.edge:hover polygon { stroke: red; fill: red; }
]]></style>

<defs>
  <circle id="rim" cx="0" cy="0" r="7"/>
  <circle id="rim2" cx="0" cy="0" r="3.5"/>
  <g id="zoomPlus">
    <use xlink:href="#rim" fill="#404040"><set attributeName="fill" to="#808080" begin="zoomplus.mouseover" end="zoomplus.mouseout"/></use>
    <path d="M-4,0h8M0,-4v8" fill="none" stroke="white" stroke-width="1.5" pointer-events="none"/>
  </g>
  <g id="zoomMin">
    <use xlink:href="#rim" fill="#404040"><set attributeName="fill" to="#808080" begin="zoomminus.mouseover" end="zoomminus.mouseout"/></use>
    <path d="M-4,0h8" fill="none" stroke="white" stroke-width="1.5" pointer-events="none"/>
  </g>
  <g id="arrowUp" transform="translate(30 24)">
    <use xlink:href="#rim"/>
    <path pointer-events="none" fill="none" stroke="white" stroke-width="1.5" d="M0,-3.0v7 M-2.5,-0.5L0,-3.0L2.5,-0.5"/>
  </g>
  <g id="arrowRight" transform="rotate(90) translate(36 -43)">
    <use xlink:href="#rim"/>
    <path pointer-events="none" fill="none" stroke="white" stroke-width="1.5" d="M0,-3.0v7 M-2.5,-0.5L0,-3.0L2.5,-0.5"/>
  </g>
  <g id="arrowDown" transform="rotate(180) translate(-30 -48)">
    <use xlink:href="#rim"/>
    <path pointer-events="none" fill="none" stroke="white" stroke-width="1.5" d="M0,-3.0v7 M-2.5,-0.5L0,-3.0L2.5,-0.5"/>
  </g>
  <g id="arrowLeft" transform="rotate(270) translate(-36 17)">
    <use xlink:href="#rim"/>
    <path pointer-events="none" fill="none" stroke="white" stroke-width="1.5" d="M0,-3.0v7 M-2.5,-0.5L0,-3.0L2.5,-0.5"/>
  </g>
  <g id="resetDef">
    <use xlink:href="#rim2" fill="#404040"><set attributeName="fill" to="#808080" begin="reset.mouseover" end="reset.mouseout"/></use>
  </g>
</defs>
<script type="application/ecmascript">
var viewWidth = 514;
var viewHeight = 730;
var sectionId = 'dynsection-0';
</script>
<script type="application/ecmascript" xlink:href="../../svg.min.js"/>
<svg id="graph" class="graph">
<g id="viewport">
<title>fl::s12x4::raw</title>
<!-- Node1 -->
<g id="Node000001" class="node">
<title>Node1</title>
<g id="a_Node000001"><a xlink:title=" ">
<polygon fill="#999999" stroke="#666666" points="506,-388 424,-388 424,-369 506,-369 506,-388"/>
<text text-anchor="middle" x="465" y="-376" font-family="Helvetica,sans-Serif" font-size="10.00">fl::s12x4::raw</text>
</a>
</g>
</g>
<!-- Node2 -->
<g id="Node000002" class="node">
<title>Node2</title>
<g id="a_Node000002"><a xlink:href="../../da/d43/classfl_1_1s12x4_a63df0a7527db8e950849db7f1f27a2f6.html#a63df0a7527db8e950849db7f1f27a2f6" target="_top" xlink:title=" ">
<polygon fill="white" stroke="#666666" points="379.5,-407 286.5,-407 286.5,-388 379.5,-388 379.5,-407"/>
<text text-anchor="middle" x="333" y="-395" font-family="Helvetica,sans-Serif" font-size="10.00">fl::s12x4::s12x4</text>
</a>
</g>
</g>
<!-- Node1&#45;&gt;Node2 -->
<g id="edge1_Node000001_Node000002" class="edge">
<title>Node1&#45;&gt;Node2</title>
<g id="a_edge1_Node000001_Node000002"><a xlink:title=" ">
<path fill="none" stroke="#63b8ff" d="M413.81,-385.83C402.56,-387.48 390.67,-389.22 379.61,-390.83"/>
<polygon fill="#63b8ff" stroke="#63b8ff" points="414.55,-389.27 423.93,-384.36 413.53,-382.34 414.55,-389.27"/>
</a>
</g>
</g>
<!-- Node3 -->
<g id="Node000003" class="node">
<title>Node3</title>
<g id="a_Node000003"><a xlink:href="../../da/d43/classfl_1_1s12x4_afe8ced3b2b52154711ad780f7dd170c4.html#afe8ced3b2b52154711ad780f7dd170c4" target="_top" xlink:title=" ">
<polygon fill="white" stroke="#666666" points="388,-370 278,-370 278,-351 388,-351 388,-370"/>
<text text-anchor="middle" x="333" y="-358" font-family="Helvetica,sans-Serif" font-size="10.00">fl::s12x4::from_raw</text>
</a>
</g>
</g>
<!-- Node1&#45;&gt;Node3 -->
<g id="edge2_Node000001_Node000003" class="edge">
<title>Node1&#45;&gt;Node3</title>
<g id="a_edge2_Node000001_Node000003"><a xlink:title=" ">
<path fill="none" stroke="#63b8ff" d="M413.84,-371.56C405.39,-370.39 396.59,-369.17 388.04,-367.98"/>
<polygon fill="#63b8ff" stroke="#63b8ff" points="413.55,-375.05 423.93,-372.95 414.51,-368.11 413.55,-375.05"/>
</a>
</g>
</g>
<!-- Node4 -->
<g id="Node000004" class="node">
<title>Node4</title>
<g id="a_Node000004"><a xlink:href="../../da/d43/classfl_1_1s12x4_afc09415fb447cc8b6d9ad30e1af28fd5.html#afc09415fb447cc8b6d9ad30e1af28fd5" target="_top" xlink:title=" ">
<polygon fill="white" stroke="#666666" points="221.5,-722 140.5,-722 140.5,-703 221.5,-703 221.5,-722"/>
<text text-anchor="middle" x="181" y="-710" font-family="Helvetica,sans-Serif" font-size="10.00">fl::s12x4::abs</text>
</a>
</g>
</g>
<!-- Node3&#45;&gt;Node4 -->
<g id="edge3_Node000003_Node000004" class="edge">
<title>Node3&#45;&gt;Node4</title>
<g id="a_edge3_Node000003_Node000004"><a xlink:title=" ">
<path fill="none" stroke="#63b8ff" d="M281.14,-376.08C280.02,-377.15 278.97,-378.29 278,-379.5 190.15,-489.67 332.41,-586.41 242,-694.5 236.77,-700.76 229.45,-704.89 221.72,-707.61"/>
<polygon fill="#63b8ff" stroke="#63b8ff" points="283.38,-378.78 289.39,-370.06 279.25,-373.13 283.38,-378.78"/>
</a>
</g>
</g>
<!-- Node5 -->
<g id="Node000005" class="node">
<title>Node5</title>
<g id="a_Node000005"><a xlink:href="../../da/d43/classfl_1_1s12x4_a2a15c050422626267bdc853da3dd2710.html#a2a15c050422626267bdc853da3dd2710" target="_top" xlink:title=" ">
<polygon fill="white" stroke="#666666" points="221.5,-685 140.5,-685 140.5,-666 221.5,-666 221.5,-685"/>
<text text-anchor="middle" x="181" y="-673" font-family="Helvetica,sans-Serif" font-size="10.00">fl::s12x4::ceil</text>
</a>
</g>
</g>
<!-- Node3&#45;&gt;Node5 -->
<g id="edge4_Node000003_Node000005" class="edge">
<title>Node3&#45;&gt;Node5</title>
<g id="a_edge4_Node000003_Node000005"><a xlink:title=" ">
<path fill="none" stroke="#63b8ff" d="M281.16,-376.1C280.04,-377.16 278.98,-378.29 278,-379.5 199.6,-476.33 322.65,-562.54 242,-657.5 236.72,-663.72 229.38,-667.84 221.65,-670.55"/>
<polygon fill="#63b8ff" stroke="#63b8ff" points="283.4,-378.81 289.45,-370.11 279.3,-373.13 283.4,-378.81"/>
</a>
</g>
</g>
<!-- Node6 -->
<g id="Node000006" class="node">
<title>Node6</title>
<g id="a_Node000006"><a xlink:href="../../da/d43/classfl_1_1s12x4_aa83486631a35ccdbb90165c1c946b7a2.html#aa83486631a35ccdbb90165c1c946b7a2" target="_top" xlink:title=" ">
<polygon fill="white" stroke="#666666" points="221,-648 141,-648 141,-629 221,-629 221,-648"/>
<text text-anchor="middle" x="181" y="-636" font-family="Helvetica,sans-Serif" font-size="10.00">fl::s12x4::cos</text>
</a>
</g>
</g>
<!-- Node3&#45;&gt;Node6 -->
<g id="edge5_Node000003_Node000006" class="edge">
<title>Node3&#45;&gt;Node6</title>
<g id="a_edge5_Node000003_Node000006"><a xlink:title=" ">
<path fill="none" stroke="#63b8ff" d="M281.26,-376.07C280.1,-377.14 279.01,-378.28 278,-379.5 209.03,-463 312.91,-538.64 242,-620.5 236.59,-626.75 229.1,-630.87 221.25,-633.58"/>
<polygon fill="#63b8ff" stroke="#63b8ff" points="283.65,-378.66 289.79,-370.02 279.6,-372.95 283.65,-378.66"/>
</a>
</g>
</g>
<!-- Node7 -->
<g id="Node000007" class="node">
<title>Node7</title>
<g id="a_Node000007"><a xlink:href="../../da/d43/classfl_1_1s12x4_abf3d068de1ad795ccc5fb33827b08a1d.html#abf3d068de1ad795ccc5fb33827b08a1d" target="_top" xlink:title=" ">
<polygon fill="white" stroke="#666666" points="232.5,-611 129.5,-611 129.5,-592 232.5,-592 232.5,-611"/>
<text text-anchor="middle" x="181" y="-599" font-family="Helvetica,sans-Serif" font-size="10.00">fl::s12x4::exp2_fp</text>
</a>
</g>
</g>
<!-- Node3&#45;&gt;Node7 -->
<g id="edge6_Node000003_Node000007" class="edge">
<title>Node3&#45;&gt;Node7</title>
<g id="a_edge6_Node000003_Node000007"><a xlink:title=" ">
<path fill="none" stroke="#63b8ff" d="M281.31,-376.1C280.13,-377.16 279.02,-378.29 278,-379.5 218.44,-449.7 303.19,-514.71 242,-583.5 238.96,-586.91 235.31,-589.69 231.32,-591.95"/>
<polygon fill="#63b8ff" stroke="#63b8ff" points="283.69,-378.7 289.88,-370.1 279.68,-372.97 283.69,-378.7"/>
</a>
</g>
</g>
<!-- Node9 -->
<g id="Node000009" class="node">
<title>Node9</title>
<g id="a_Node000009"><a xlink:href="../../da/d43/classfl_1_1s12x4_a337a982669442a00549f16ca358a0a8d.html#a337a982669442a00549f16ca358a0a8d" target="_top" xlink:title=" ">
<polygon fill="white" stroke="#666666" points="224,-574 138,-574 138,-555 224,-555 224,-574"/>
<text text-anchor="middle" x="181" y="-562" font-family="Helvetica,sans-Serif" font-size="10.00">fl::s12x4::floor</text>
</a>
</g>
</g>
<!-- Node3&#45;&gt;Node9 -->
<g id="edge8_Node000003_Node000009" class="edge">
<title>Node3&#45;&gt;Node9</title>
<g id="a_edge8_Node000003_Node000009"><a xlink:title=" ">
<path fill="none" stroke="#63b8ff" d="M281.8,-375.78C280.45,-376.93 279.17,-378.17 278,-379.5 227.8,-436.46 293.52,-490.73 242,-546.5 237.13,-551.77 230.78,-555.52 224.04,-558.18"/>
<polygon fill="#63b8ff" stroke="#63b8ff" points="283.94,-378.56 290.29,-370.08 280.03,-372.75 283.94,-378.56"/>
</a>
</g>
</g>
<!-- Node10 -->
<g id="Node000010" class="node">
<title>Node10</title>
<g id="a_Node000010"><a xlink:href="../../da/d43/classfl_1_1s12x4_ad6f37540d5f97e219484ea95c7c17b04.html#ad6f37540d5f97e219484ea95c7c17b04" target="_top" xlink:title=" ">
<polygon fill="white" stroke="#666666" points="224,-537 138,-537 138,-518 224,-518 224,-537"/>
<text text-anchor="middle" x="181" y="-525" font-family="Helvetica,sans-Serif" font-size="10.00">fl::s12x4::fract</text>
</a>
</g>
</g>
<!-- Node3&#45;&gt;Node10 -->
<g id="edge9_Node000003_Node000010" class="edge">
<title>Node3&#45;&gt;Node10</title>
<g id="a_edge9_Node000003_Node000010"><a xlink:title=" ">
<path fill="none" stroke="#63b8ff" d="M281.98,-375.8C280.57,-376.95 279.24,-378.18 278,-379.5 237.08,-423.31 283.94,-466.66 242,-509.5 237.06,-514.55 230.75,-518.2 224.1,-520.83"/>
<polygon fill="#63b8ff" stroke="#63b8ff" points="284.26,-378.49 290.77,-370.13 280.47,-372.61 284.26,-378.49"/>
</a>
</g>
</g>
<!-- Node11 -->
<g id="Node000011" class="node">
<title>Node11</title>
<g id="a_Node000011"><a xlink:href="../../da/d43/classfl_1_1s12x4_ae2539afbe8858c5c5e67b2d2b3f28787.html#ae2539afbe8858c5c5e67b2d2b3f28787" target="_top" xlink:title=" ">
<polygon fill="white" stroke="#666666" points="231,-500 131,-500 131,-481 231,-481 231,-500"/>
<text text-anchor="middle" x="181" y="-488" font-family="Helvetica,sans-Serif" font-size="10.00">fl::s12x4::log2_fp</text>
</a>
</g>
</g>
<!-- Node3&#45;&gt;Node11 -->
<g id="edge10_Node000003_Node000011" class="edge">
<title>Node3&#45;&gt;Node11</title>
<g id="a_edge10_Node000003_Node000011"><a xlink:title=" ">
<path fill="none" stroke="#63b8ff" d="M283.25,-375.16C281.38,-376.48 279.62,-377.93 278,-379.5 246.18,-410.35 274.54,-442.4 242,-472.5 238.33,-475.9 234.04,-478.65 229.47,-480.89"/>
<polygon fill="#63b8ff" stroke="#63b8ff" points="285.07,-378.14 291.94,-370.08 281.54,-372.1 285.07,-378.14"/>
</a>
</g>
</g>
<!-- Node12 -->
<g id="Node000012" class="node">
<title>Node12</title>
<g id="a_Node000012"><a xlink:href="../../da/d43/classfl_1_1s12x4_ac51f68b6a89796698a34d7fd9bf27a1b.html#ac51f68b6a89796698a34d7fd9bf27a1b" target="_top" xlink:title=" ">
<polygon fill="white" stroke="#666666" points="224,-463 138,-463 138,-444 224,-444 224,-463"/>
<text text-anchor="middle" x="181" y="-451" font-family="Helvetica,sans-Serif" font-size="10.00">fl::s12x4::mod</text>
</a>
</g>
</g>
<!-- Node3&#45;&gt;Node12 -->
<g id="edge12_Node000003_Node000012" class="edge">
<title>Node3&#45;&gt;Node12</title>
<g id="a_edge12_Node000003_Node000012"><a xlink:title=" ">
<path fill="none" stroke="#63b8ff" d="M285.27,-374.6C282.71,-376.08 280.27,-377.71 278,-379.5 254.79,-397.85 265.64,-417.7 242,-435.5 236.7,-439.49 230.52,-442.6 224.18,-445.03"/>
<polygon fill="#63b8ff" stroke="#63b8ff" points="286.9,-377.7 294.3,-370.11 283.78,-371.43 286.9,-377.7"/>
</a>
</g>
</g>
<!-- Node13 -->
<g id="Node000013" class="node">
<title>Node13</title>
<g id="a_Node000013"><a xlink:href="../../da/d43/classfl_1_1s12x4_af07ddc0d79cdf4b983ac485ff7a887a0.html#af07ddc0d79cdf4b983ac485ff7a887a0" target="_top" xlink:title=" ">
<polygon fill="white" stroke="#666666" points="236,-426 126,-426 126,-407 236,-407 236,-426"/>
<text text-anchor="middle" x="181" y="-414" font-family="Helvetica,sans-Serif" font-size="10.00">fl::s12x4::operator*</text>
</a>
</g>
</g>
<!-- Node3&#45;&gt;Node13 -->
<g id="edge13_Node000003_Node000013" class="edge">
<title>Node3&#45;&gt;Node13</title>
<g id="a_edge13_Node000003_Node000013"><a xlink:title=" ">
<path fill="none" stroke="#63b8ff" d="M292.74,-373.55C287.74,-375.43 282.72,-377.44 278,-379.5 261.42,-386.74 258.74,-391.65 242,-398.5 234.35,-401.63 225.96,-404.49 217.93,-406.96"/>
<polygon fill="#63b8ff" stroke="#63b8ff" points="294.07,-376.79 302.27,-370.08 291.67,-370.21 294.07,-376.79"/>
</a>
</g>
</g>
<!-- Node14 -->
<g id="Node000014" class="node">
<title>Node14</title>
<g id="a_Node000014"><a xlink:href="../../da/d43/classfl_1_1s12x4_a37b342b95abf9a0269fb257ebb883f69.html#a37b342b95abf9a0269fb257ebb883f69" target="_top" xlink:title=" ">
<polygon fill="white" stroke="#666666" points="236,-389 126,-389 126,-370 236,-370 236,-389"/>
<text text-anchor="middle" x="181" y="-377" font-family="Helvetica,sans-Serif" font-size="10.00">fl::s12x4::operator*</text>
</a>
</g>
</g>
<!-- Node3&#45;&gt;Node14 -->
<g id="edge14_Node000003_Node000014" class="edge">
<title>Node3&#45;&gt;Node14</title>
<g id="a_edge14_Node000003_Node000014"><a xlink:title=" ">
<path fill="none" stroke="#63b8ff" d="M267.82,-368.63C257.24,-369.97 246.37,-371.35 236.07,-372.65"/>
<polygon fill="#63b8ff" stroke="#63b8ff" points="268.37,-372.09 277.85,-367.36 267.49,-365.14 268.37,-372.09"/>
</a>
</g>
</g>
<!-- Node15 -->
<g id="Node000015" class="node">
<title>Node15</title>
<g id="a_Node000015"><a xlink:href="../../da/d43/classfl_1_1s12x4_a854221a393e6aff9e648fcecbf4ac350.html#a854221a393e6aff9e648fcecbf4ac350" target="_top" xlink:title=" ">
<polygon fill="white" stroke="#666666" points="236,-352 126,-352 126,-333 236,-333 236,-352"/>
<text text-anchor="middle" x="181" y="-340" font-family="Helvetica,sans-Serif" font-size="10.00">fl::s12x4::operator*</text>
</a>
</g>
</g>
<!-- Node3&#45;&gt;Node15 -->
<g id="edge15_Node000003_Node000015" class="edge">
<title>Node3&#45;&gt;Node15</title>
<g id="a_edge15_Node000003_Node000015"><a xlink:title=" ">
<path fill="none" stroke="#63b8ff" d="M267.82,-352.8C257.24,-351.53 246.37,-350.22 236.07,-348.99"/>
<polygon fill="#63b8ff" stroke="#63b8ff" points="267.5,-356.29 277.85,-354 268.33,-349.33 267.5,-356.29"/>
</a>
</g>
</g>
<!-- Node16 -->
<g id="Node000016" class="node">
<title>Node16</title>
<g id="a_Node000016"><a xlink:href="../../da/d43/classfl_1_1s12x4_ae66aee2a1b6f3476f47bfa757f9e0089.html#ae66aee2a1b6f3476f47bfa757f9e0089" target="_top" xlink:title=" ">
<polygon fill="white" stroke="#666666" points="237.5,-315 124.5,-315 124.5,-296 237.5,-296 237.5,-315"/>
<text text-anchor="middle" x="181" y="-303" font-family="Helvetica,sans-Serif" font-size="10.00">fl::s12x4::operator+</text>
</a>
</g>
</g>
<!-- Node3&#45;&gt;Node16 -->
<g id="edge16_Node000003_Node000016" class="edge">
<title>Node3&#45;&gt;Node16</title>
<g id="a_edge16_Node000003_Node000016"><a xlink:title=" ">
<path fill="none" stroke="#63b8ff" d="M299.75,-346.93C282.69,-339.92 261.34,-331.42 242,-324.5 232.84,-321.22 222.8,-317.93 213.6,-315.03"/>
<polygon fill="#63b8ff" stroke="#63b8ff" points="298.66,-350.27 309.24,-350.86 301.34,-343.8 298.66,-350.27"/>
</a>
</g>
</g>
<!-- Node17 -->
<g id="Node000017" class="node">
<title>Node17</title>
<g id="a_Node000017"><a xlink:href="../../da/d43/classfl_1_1s12x4_aa6d821652d25ea041eed573306fcad39.html#aa6d821652d25ea041eed573306fcad39" target="_top" xlink:title=" ">
<polygon fill="white" stroke="#666666" points="235.5,-278 126.5,-278 126.5,-259 235.5,-259 235.5,-278"/>
<text text-anchor="middle" x="181" y="-266" font-family="Helvetica,sans-Serif" font-size="10.00">fl::s12x4::operator&#45;</text>
</a>
</g>
</g>
<!-- Node3&#45;&gt;Node17 -->
<g id="edge17_Node000003_Node000017" class="edge">
<title>Node3&#45;&gt;Node17</title>
<g id="a_edge17_Node000003_Node000017"><a xlink:title=" ">
<path fill="none" stroke="#63b8ff" d="M314.87,-343.26C297.75,-326.89 270.01,-302.59 242,-287.5 235.07,-283.77 227.3,-280.63 219.7,-278.05"/>
<polygon fill="#63b8ff" stroke="#63b8ff" points="312.78,-346.11 322.38,-350.59 317.67,-341.1 312.78,-346.11"/>
</a>
</g>
</g>
<!-- Node18 -->
<g id="Node000018" class="node">
<title>Node18</title>
<g id="a_Node000018"><a xlink:href="../../da/d43/classfl_1_1s12x4_a8b83b77db04f954993f9a5b85d8481c4.html#a8b83b77db04f954993f9a5b85d8481c4" target="_top" xlink:title=" ">
<polygon fill="white" stroke="#666666" points="235.5,-241 126.5,-241 126.5,-222 235.5,-222 235.5,-241"/>
<text text-anchor="middle" x="181" y="-229" font-family="Helvetica,sans-Serif" font-size="10.00">fl::s12x4::operator&#45;</text>
</a>
</g>
</g>
<!-- Node3&#45;&gt;Node18 -->
<g id="edge18_Node000003_Node000018" class="edge">
<title>Node3&#45;&gt;Node18</title>
<g id="a_edge18_Node000003_Node000018"><a xlink:title=" ">
<path fill="none" stroke="#63b8ff" d="M321.6,-342.04C306.93,-317.62 277.9,-274.84 242,-250.5 236.3,-246.64 229.78,-243.52 223.17,-241.03"/>
<polygon fill="#63b8ff" stroke="#63b8ff" points="318.76,-344.12 326.83,-350.99 324.81,-340.59 318.76,-344.12"/>
</a>
</g>
</g>
<!-- Node19 -->
<g id="Node000019" class="node">
<title>Node19</title>
<g id="a_Node000019"><a xlink:href="../../da/d43/classfl_1_1s12x4_ac71acd067bca8a8b7ebc6cddff9ecd34.html#ac71acd067bca8a8b7ebc6cddff9ecd34" target="_top" xlink:title=" ">
<polygon fill="white" stroke="#666666" points="235,-204 127,-204 127,-185 235,-185 235,-204"/>
<text text-anchor="middle" x="181" y="-192" font-family="Helvetica,sans-Serif" font-size="10.00">fl::s12x4::operator/</text>
</a>
</g>
</g>
<!-- Node3&#45;&gt;Node19 -->
<g id="edge19_Node000003_Node000019" class="edge">
<title>Node3&#45;&gt;Node19</title>
<g id="a_edge19_Node000003_Node000019"><a xlink:title=" ">
<path fill="none" stroke="#63b8ff" d="M325.34,-341.26C313.5,-309.9 285.85,-247.81 242,-213.5 237.01,-209.59 231.2,-206.48 225.2,-204.01"/>
<polygon fill="#63b8ff" stroke="#63b8ff" points="322.16,-342.77 328.86,-350.98 328.74,-340.39 322.16,-342.77"/>
</a>
</g>
</g>
<!-- Node20 -->
<g id="Node000020" class="node">
<title>Node20</title>
<g id="a_Node000020"><a xlink:href="../../da/d43/classfl_1_1s12x4_a96b50567681c694ac45bb85073de0014.html#a96b50567681c694ac45bb85073de0014" target="_top" xlink:title=" ">
<polygon fill="white" stroke="#666666" points="242,-167 120,-167 120,-148 242,-148 242,-167"/>
<text text-anchor="middle" x="181" y="-155" font-family="Helvetica,sans-Serif" font-size="10.00">fl::s12x4::operator&gt;&gt;</text>
</a>
</g>
</g>
<!-- Node3&#45;&gt;Node20 -->
<g id="edge20_Node000003_Node000020" class="edge">
<title>Node3&#45;&gt;Node20</title>
<g id="a_edge20_Node000003_Node000020"><a xlink:title=" ">
<path fill="none" stroke="#63b8ff" d="M327.78,-340.71C318.75,-303.16 294,-221.31 242,-176.5 237.53,-172.65 232.28,-169.58 226.77,-167.13"/>
<polygon fill="#63b8ff" stroke="#63b8ff" points="324.46,-341.88 330.09,-350.86 331.28,-340.33 324.46,-341.88"/>
</a>
</g>
</g>
<!-- Node21 -->
<g id="Node000021" class="node">
<title>Node21</title>
<g id="a_Node000021"><a xlink:href="../../da/d43/classfl_1_1s12x4_a0487ea13b25acc80efd98d6732b3082b.html#a0487ea13b25acc80efd98d6732b3082b" target="_top" xlink:title=" ">
<polygon fill="white" stroke="#666666" points="224,-130 138,-130 138,-111 224,-111 224,-130"/>
<text text-anchor="middle" x="181" y="-118" font-family="Helvetica,sans-Serif" font-size="10.00">fl::s12x4::rsqrt</text>
</a>
</g>
</g>
<!-- Node3&#45;&gt;Node21 -->
<g id="edge21_Node000003_Node000021" class="edge">
<title>Node3&#45;&gt;Node21</title>
<g id="a_edge21_Node000003_Node000021"><a xlink:title=" ">
<path fill="none" stroke="#63b8ff" d="M329.63,-340.95C323.4,-298.15 302.64,-195.47 242,-139.5 236.94,-134.83 230.74,-131.31 224.26,-128.65"/>
<polygon fill="#63b8ff" stroke="#63b8ff" points="326.17,-341.48 330.97,-350.92 333.11,-340.54 326.17,-341.48"/>
</a>
</g>
</g>
<!-- Node22 -->
<g id="Node000022" class="node">
<title>Node22</title>
<g id="a_Node000022"><a xlink:href="../../da/d43/classfl_1_1s12x4_aacee9923b49eb1ba41b56a029e84bbea.html#aacee9923b49eb1ba41b56a029e84bbea" target="_top" xlink:title=" ">
<polygon fill="white" stroke="#666666" points="220,-93 142,-93 142,-74 220,-74 220,-93"/>
<text text-anchor="middle" x="181" y="-81" font-family="Helvetica,sans-Serif" font-size="10.00">fl::s12x4::sin</text>
</a>
</g>
</g>
<!-- Node3&#45;&gt;Node22 -->
<g id="edge22_Node000003_Node000022" class="edge">
<title>Node3&#45;&gt;Node22</title>
<g id="a_edge22_Node000003_Node000022"><a xlink:title=" ">
<path fill="none" stroke="#63b8ff" d="M330.92,-340.7C327.23,-292.81 311.16,-169.68 242,-102.5 235.97,-96.64 228.13,-92.58 220.13,-89.78"/>
<polygon fill="#63b8ff" stroke="#63b8ff" points="327.44,-341.2 331.6,-350.94 334.43,-340.73 327.44,-341.2"/>
</a>
</g>
</g>
<!-- Node23 -->
<g id="Node000023" class="node">
<title>Node23</title>
<g id="a_Node000023"><a xlink:href="../../da/d43/classfl_1_1s12x4_a2ccf70510c1bff9a8fe2df8b862e7cd7.html#a2ccf70510c1bff9a8fe2df8b862e7cd7" target="_top" xlink:title=" ">
<polygon fill="white" stroke="#666666" points="228.5,-56 133.5,-56 133.5,-37 228.5,-37 228.5,-56"/>
<text text-anchor="middle" x="181" y="-44" font-family="Helvetica,sans-Serif" font-size="10.00">fl::s12x4::sincos</text>
</a>
</g>
</g>
<!-- Node3&#45;&gt;Node23 -->
<g id="edge23_Node000003_Node000023" class="edge">
<title>Node3&#45;&gt;Node23</title>
<g id="a_edge23_Node000003_Node000023"><a xlink:title=" ">
<path fill="none" stroke="#63b8ff" d="M331.94,-340.74C330.67,-288.29 319.89,-144.22 242,-65.5 238.16,-61.62 233.53,-58.53 228.56,-56.06"/>
<polygon fill="#63b8ff" stroke="#63b8ff" points="328.44,-340.8 332.08,-350.74 335.44,-340.69 328.44,-340.8"/>
</a>
</g>
</g>
<!-- Node24 -->
<g id="Node000024" class="node">
<title>Node24</title>
<g id="a_Node000024"><a xlink:href="../../da/d43/classfl_1_1s12x4_a860552aef9d9a7a0edd83ecfe5db747a.html#a860552aef9d9a7a0edd83ecfe5db747a" target="_top" xlink:title=" ">
<polygon fill="white" stroke="#666666" points="222.5,-19 139.5,-19 139.5,0 222.5,0 222.5,-19"/>
<text text-anchor="middle" x="181" y="-7" font-family="Helvetica,sans-Serif" font-size="10.00">fl::s12x4::sqrt</text>
</a>
</g>
</g>
<!-- Node3&#45;&gt;Node24 -->
<g id="edge24_Node000003_Node000024" class="edge">
<title>Node3&#45;&gt;Node24</title>
<g id="a_edge24_Node000003_Node000024"><a xlink:title=" ">
<path fill="none" stroke="#63b8ff" d="M332.74,-340.61C333.73,-283.75 328.62,-118.83 242,-28.5 236.71,-22.98 229.82,-19.06 222.61,-16.27"/>
<polygon fill="#63b8ff" stroke="#63b8ff" points="329.24,-340.67 332.47,-350.76 336.24,-340.86 329.24,-340.67"/>
</a>
</g>
</g>
<!-- Node8 -->
<g id="Node000008" class="node">
<title>Node8</title>
<g id="a_Node000008"><a xlink:href="../../da/d43/classfl_1_1s12x4_a861d36ac3b9185b59246da2796ea0bc7.html#a861d36ac3b9185b59246da2796ea0bc7" target="_top" xlink:title=" ">
<polygon fill="white" stroke="#666666" points="84,-555 0,-555 0,-536 84,-536 84,-555"/>
<text text-anchor="middle" x="42" y="-543" font-family="Helvetica,sans-Serif" font-size="10.00">fl::s12x4::pow</text>
</a>
</g>
</g>
<!-- Node7&#45;&gt;Node8 -->
<g id="edge7_Node000007_Node000008" class="edge">
<title>Node7&#45;&gt;Node8</title>
<g id="a_edge7_Node000007_Node000008"><a xlink:title=" ">
<path fill="none" stroke="#63b8ff" d="M134.81,-588.83C129.77,-587.16 124.75,-585.37 120,-583.5 98.92,-575.2 75.72,-563.36 60.36,-555.11"/>
<polygon fill="#63b8ff" stroke="#63b8ff" points="133.86,-592.2 144.45,-591.9 135.98,-585.53 133.86,-592.2"/>
</a>
</g>
</g>
<!-- Node11&#45;&gt;Node8 -->
<g id="edge11_Node000011_Node000008" class="edge">
<title>Node11&#45;&gt;Node8</title>
<g id="a_edge11_Node000011_Node000008"><a xlink:title=" ">
<path fill="none" stroke="#63b8ff" d="M137.3,-503.27C131.44,-505.24 125.54,-507.34 120,-509.5 99.65,-517.44 77.1,-528.23 61.69,-535.92"/>
<polygon fill="#63b8ff" stroke="#63b8ff" points="138.61,-506.52 147.03,-500.09 136.44,-499.86 138.61,-506.52"/>
</a>
</g>
</g>
</g>
</svg>

<g id="navigator" transform="translate(0 0)" fill="#404254">
  <rect fill="#f2f5e9" fill-opacity="0.5" stroke="#606060" stroke-width=".5" x="0" y="0" width="60" height="60"/>
  <use id="zoomplus" xlink:href="#zoomPlus" x="17" y="9" onmousedown="handleZoom(evt,'in')"/>
  <use id="zoomminus" xlink:href="#zoomMin" x="42" y="9" onmousedown="handleZoom(evt,'out')"/>
  <use id="reset" xlink:href="#resetDef" x="30" y="36" onmousedown="handleReset()"/>
   <use id="arrowup" xlink:href="#arrowUp" x="0" y="0" onmousedown="handlePan(0,-1)"/>
  <use id="arrowright" xlink:href="#arrowRight" x="0" y="0" onmousedown="handlePan(1,0)"/>
  <use id="arrowdown" xlink:href="#arrowDown" x="0" y="0" onmousedown="handlePan(0,1)"/>
  <use id="arrowleft" xlink:href="#arrowLeft" x="0" y="0" onmousedown="handlePan(-1,0)"/>
</g>
<svg viewBox="0 0 15 15" width="100%" height="30px" preserveAspectRatio="xMaxYMin meet">
 <g id="arrow_out" transform="scale(0.3 0.3)">
  <a xlink:href="classfl_1_1s12x4_a0f51528407321365c4336fc482e79336_a0f51528407321365c4336fc482e79336_icgraph_org.svg" target="_base">
   <rect id="button" ry="5" rx="5" y="6" x="6" height="38" width="38"
        fill="#f2f5e9" fill-opacity="0.5" stroke="#606060" stroke-width="1.0"/>
   <path id="arrow"
     d="M 11.500037,31.436501 C 11.940474,20.09759 22.043105,11.32322 32.158766,21.979434 L 37.068811,17.246167 C 37.068811,17.246167 37.088388,32 37.088388,32 L 22.160133,31.978069 C 22.160133,31.978069 26.997745,27.140456 26.997745,27.140456 C 18.528582,18.264221 13.291696,25.230495 11.500037,31.436501 z"
     style="fill:#404040;"/>
  </a>
 </g>
</svg>

<style type='text/css'>
<![CDATA[
[data-mouse-over-selected='false'] { opacity: 0.7; }
[data-mouse-over-selected='true']  { opacity: 1.0; }
]]>
</style>
<script type="application/ecmascript"><![CDATA[
document.addEventListener('DOMContentLoaded', (event) => {
  highlightEdges();
  highlightAdjacentNodes();
});
]]></script>
</svg>
