<?xml version="1.0" encoding="UTF-8" standalone="no"?>
<!DOCTYPE svg PUBLIC "-//W3C//DTD SVG 1.1//EN"
 "http://www.w3.org/Graphics/SVG/1.1/DTD/svg11.dtd">
<!-- Generated by graphviz version 2.43.0 (0)
 -->
<!-- Title: fl::StrN::substr Pages: 1 -->
<svg width="507pt" height="139pt"
 viewBox="0.00 0.00 507.00 139.00" xmlns="http://www.w3.org/2000/svg" xmlns:xlink="http://www.w3.org/1999/xlink">
<g id="graph0" class="graph" transform="scale(1 1) rotate(0) translate(4 135)">
<title>fl::StrN::substr</title>
<!-- Node1 -->
<g id="Node000001" class="node">
<title>Node1</title>
<g id="a_Node000001"><a xlink:title=" ">
<polygon fill="#999999" stroke="#666666" points="86,-93 0,-93 0,-74 86,-74 86,-93"/>
<text text-anchor="middle" x="43" y="-81" font-family="Helvetica,sans-Serif" font-size="10.00">fl::StrN::substr</text>
</a>
</g>
</g>
<!-- Node2 -->
<g id="Node000002" class="node">
<title>Node2</title>
<g id="a_Node000002"><a xlink:href="../../dc/d96/classfl_1_1_str_n_ae1303fb18c4230406d75f3649da8711d.html#ae1303fb18c4230406d75f3649da8711d" target="_top" xlink:title=" ">
<polygon fill="white" stroke="#666666" points="337,-131 260,-131 260,-112 337,-112 337,-131"/>
<text text-anchor="middle" x="298.5" y="-119" font-family="Helvetica,sans-Serif" font-size="10.00">fl::StrN::StrN</text>
</a>
</g>
</g>
<!-- Node1&#45;&gt;Node2 -->
<g id="edge1_Node000001_Node000002" class="edge">
<title>Node1&#45;&gt;Node2</title>
<g id="a_edge1_Node000001_Node000002"><a xlink:title=" ">
<path fill="none" stroke="#63b8ff" d="M86.05,-91.38C97.68,-93.47 110.31,-95.65 122,-97.5 165.13,-104.32 214.4,-110.95 249.74,-115.51"/>
<polygon fill="#63b8ff" stroke="#63b8ff" points="249.41,-119 259.78,-116.8 250.3,-112.06 249.41,-119"/>
</a>
</g>
</g>
<!-- Node3 -->
<g id="Node000003" class="node">
<title>Node3</title>
<g id="a_Node000003"><a xlink:href="../../dc/d96/classfl_1_1_str_n_a4d0ad127d9283e6fe8dab50d75a091e4.html#a4d0ad127d9283e6fe8dab50d75a091e4" target="_top" xlink:title=" ">
<polygon fill="white" stroke="#666666" points="335.5,-93 261.5,-93 261.5,-74 335.5,-74 335.5,-93"/>
<text text-anchor="middle" x="298.5" y="-81" font-family="Helvetica,sans-Serif" font-size="10.00">fl::StrN::end</text>
</a>
</g>
</g>
<!-- Node1&#45;&gt;Node3 -->
<g id="edge2_Node000001_Node000003" class="edge">
<title>Node1&#45;&gt;Node3</title>
<g id="a_edge2_Node000001_Node000003"><a xlink:title=" ">
<path fill="none" stroke="#63b8ff" d="M86.14,-83.5C131.69,-83.5 204.07,-83.5 251.18,-83.5"/>
<polygon fill="#63b8ff" stroke="#63b8ff" points="251.42,-87 261.42,-83.5 251.42,-80 251.42,-87"/>
</a>
</g>
</g>
<!-- Node5 -->
<g id="Node000005" class="node">
<title>Node5</title>
<g id="a_Node000005"><a xlink:href="../../dc/d96/classfl_1_1_str_n_a9603b7cd3946e5478d645624d89951b8.html#a9603b7cd3946e5478d645624d89951b8" target="_top" xlink:title=" ">
<polygon fill="white" stroke="#666666" points="223,-55 122,-55 122,-36 223,-36 223,-55"/>
<text text-anchor="middle" x="172.5" y="-43" font-family="Helvetica,sans-Serif" font-size="10.00">fl::StrN::substring</text>
</a>
</g>
</g>
<!-- Node1&#45;&gt;Node5 -->
<g id="edge4_Node000001_Node000005" class="edge">
<title>Node1&#45;&gt;Node5</title>
<g id="a_edge4_Node000001_Node000005"><a xlink:title=" ">
<path fill="none" stroke="#63b8ff" d="M76.17,-73.91C92.33,-69.1 112.11,-63.2 129.45,-58.03"/>
<polygon fill="#63b8ff" stroke="#63b8ff" points="130.75,-61.3 139.34,-55.09 128.75,-54.59 130.75,-61.3"/>
</a>
</g>
</g>
<!-- Node4 -->
<g id="Node000004" class="node">
<title>Node4</title>
<g id="a_Node000004"><a xlink:href="../../dc/d96/classfl_1_1_str_n_a264b8b70d3366d978ad984aba4930561.html#a264b8b70d3366d978ad984aba4930561" target="_top" xlink:title=" ">
<polygon fill="white" stroke="#666666" points="499,-93 374,-93 374,-74 499,-74 499,-93"/>
<text text-anchor="middle" x="436.5" y="-81" font-family="Helvetica,sans-Serif" font-size="10.00">fl::StrN::c_str_mutable</text>
</a>
</g>
</g>
<!-- Node3&#45;&gt;Node4 -->
<g id="edge3_Node000003_Node000004" class="edge">
<title>Node3&#45;&gt;Node4</title>
<g id="a_edge3_Node000003_Node000004"><a xlink:title=" ">
<path fill="none" stroke="#63b8ff" d="M335.59,-83.5C344.35,-83.5 354.02,-83.5 363.8,-83.5"/>
<polygon fill="#63b8ff" stroke="#63b8ff" points="363.99,-87 373.99,-83.5 363.99,-80 363.99,-87"/>
</a>
</g>
</g>
<!-- Node5&#45;&gt;Node2 -->
<g id="edge5_Node000005_Node000002" class="edge">
<title>Node5&#45;&gt;Node2</title>
<g id="a_edge5_Node000005_Node000002"><a xlink:title=" ">
<path fill="none" stroke="#63b8ff" d="M186.78,-55.14C203.3,-66.95 232.57,-87.26 259,-102.5 261.84,-104.14 264.84,-105.78 267.87,-107.36"/>
<polygon fill="#63b8ff" stroke="#63b8ff" points="266.36,-110.52 276.86,-111.93 269.53,-104.28 266.36,-110.52"/>
</a>
</g>
</g>
<!-- Node5&#45;&gt;Node3 -->
<g id="edge9_Node000005_Node000003" class="edge">
<title>Node5&#45;&gt;Node3</title>
<g id="a_edge9_Node000005_Node000003"><a xlink:title=" ">
<path fill="none" stroke="#63b8ff" d="M204.79,-55.09C220.5,-59.9 239.74,-65.8 256.61,-70.97"/>
<polygon fill="#63b8ff" stroke="#63b8ff" points="255.63,-74.33 266.22,-73.91 257.68,-67.64 255.63,-74.33"/>
</a>
</g>
</g>
<!-- Node6 -->
<g id="Node000006" class="node">
<title>Node6</title>
<g id="a_Node000006"><a xlink:href="../../dc/d96/classfl_1_1_str_n_a67296b774f8201293edbbabbd1b642cb.html#a67296b774f8201293edbbabbd1b642cb" target="_top" xlink:title=" ">
<polygon fill="white" stroke="#666666" points="338,-56 259,-56 259,-37 338,-37 338,-56"/>
<text text-anchor="middle" x="298.5" y="-44" font-family="Helvetica,sans-Serif" font-size="10.00">fl::StrN::c_str</text>
</a>
</g>
</g>
<!-- Node5&#45;&gt;Node6 -->
<g id="edge6_Node000005_Node000006" class="edge">
<title>Node5&#45;&gt;Node6</title>
<g id="a_edge6_Node000005_Node000006"><a xlink:title=" ">
<path fill="none" stroke="#63b8ff" d="M223.22,-45.9C231.65,-45.97 240.4,-46.04 248.8,-46.11"/>
<polygon fill="#63b8ff" stroke="#63b8ff" points="248.81,-49.61 258.84,-46.19 248.87,-42.61 248.81,-49.61"/>
</a>
</g>
</g>
<!-- Node7 -->
<g id="Node000007" class="node">
<title>Node7</title>
<g id="a_Node000007"><a xlink:href="../../dc/d96/classfl_1_1_str_n_ab410c80422fa2cfe87605dd9b32002c1.html#ab410c80422fa2cfe87605dd9b32002c1" target="_top" xlink:title=" ">
<polygon fill="white" stroke="#666666" points="338,-19 259,-19 259,0 338,0 338,-19"/>
<text text-anchor="middle" x="298.5" y="-7" font-family="Helvetica,sans-Serif" font-size="10.00">fl::StrN::copy</text>
</a>
</g>
</g>
<!-- Node5&#45;&gt;Node7 -->
<g id="edge7_Node000005_Node000007" class="edge">
<title>Node5&#45;&gt;Node7</title>
<g id="a_edge7_Node000005_Node000007"><a xlink:title=" ">
<path fill="none" stroke="#63b8ff" d="M206.4,-35.95C221.12,-31.68 238.66,-26.58 254.4,-22.01"/>
<polygon fill="#63b8ff" stroke="#63b8ff" points="255.81,-25.25 264.44,-19.1 253.86,-18.52 255.81,-25.25"/>
</a>
</g>
</g>
<!-- Node8 -->
<g id="Node000008" class="node">
<title>Node8</title>
<g id="a_Node000008"><a xlink:href="../../d4/d36/namespacefl_a87ae8a24cc8b709a64f39370e71846af.html#a87ae8a24cc8b709a64f39370e71846af" target="_top" xlink:title=" ">
<polygon fill="white" stroke="#666666" points="483.5,-19 389.5,-19 389.5,0 483.5,0 483.5,-19"/>
<text text-anchor="middle" x="436.5" y="-7" font-family="Helvetica,sans-Serif" font-size="10.00">fl::make_shared</text>
</a>
</g>
</g>
<!-- Node7&#45;&gt;Node8 -->
<g id="edge8_Node000007_Node000008" class="edge">
<title>Node7&#45;&gt;Node8</title>
<g id="a_edge8_Node000007_Node000008"><a xlink:title=" ">
<path fill="none" stroke="#63b8ff" d="M338.11,-9.5C350.75,-9.5 365.07,-9.5 378.76,-9.5"/>
<polygon fill="#63b8ff" stroke="#63b8ff" points="379.07,-13 389.07,-9.5 379.07,-6 379.07,-13"/>
</a>
</g>
</g>
</g>
</svg>
