<?xml version="1.0" encoding="UTF-8" standalone="no"?>
<!DOCTYPE svg PUBLIC "-//W3C//DTD SVG 1.1//EN"
 "http://www.w3.org/Graphics/SVG/1.1/DTD/svg11.dtd">
<!-- Generated by graphviz version 2.43.0 (0)
 -->
<!-- Title: fl/gfx/upscale.h Pages: 1 -->
<svg width="499pt" height="247pt"
 viewBox="0.00 0.00 498.50 247.00" xmlns="http://www.w3.org/2000/svg" xmlns:xlink="http://www.w3.org/1999/xlink">

<svg id="main" version="1.1" xmlns="http://www.w3.org/2000/svg" xmlns:xlink="http://www.w3.org/1999/xlink" xml:space="preserve">

<style type="text/css"><![CDATA[
.node, .edge {opacity: 0.7;}
.node.selected, .edge.selected {opacity: 1;}
.edge:hover path { stroke: red; }
.edge:hover polygon { stroke: red; fill: red; }
]]></style>
<script type="application/ecmascript" xlink:href="../../svg.min.js"/>
<svg id="graph" class="graph">
<g id="graph0" class="graph" transform="scale(1 1) rotate(0) translate(4 243)">
<title>fl/gfx/upscale.h</title>
<!-- Node1 -->
<g id="Node000001" class="node">
<title>Node1</title>
<g id="a_Node000001"><a xlink:title=" ">
<polygon fill="#999999" stroke="#666666" points="319,-239 228,-239 228,-220 319,-220 319,-239"/>
<text text-anchor="middle" x="273.5" y="-227" font-family="Helvetica,sans-Serif" font-size="10.00">fl/gfx/upscale.h</text>
</a>
</g>
</g>
<!-- Node2 -->
<g id="Node000002" class="node">
<title>Node2</title>
<g id="a_Node000002"><a xlink:href="../../d3/dd8/crgb_8cpp_8hpp.html" target="_top" xlink:title=" ">
<polygon fill="white" stroke="#666666" points="187,-184 108,-184 108,-165 187,-165 187,-184"/>
<text text-anchor="middle" x="147.5" y="-172" font-family="Helvetica,sans-Serif" font-size="10.00">crgb.cpp.hpp</text>
</a>
</g>
</g>
<!-- Node1&#45;&gt;Node2 -->
<g id="edge1_Node000001_Node000002" class="edge">
<title>Node1&#45;&gt;Node2</title>
<g id="a_edge1_Node000001_Node000002"><a xlink:title=" ">
<path fill="none" stroke="#63b8ff" d="M243.85,-216.03C220.55,-206.23 188.7,-192.83 168.11,-184.17"/>
<polygon fill="#63b8ff" stroke="#63b8ff" points="242.68,-219.33 253.26,-219.98 245.4,-212.88 242.68,-219.33"/>
</a>
</g>
</g>
<!-- Node5 -->
<g id="Node000005" class="node">
<title>Node5</title>
<g id="a_Node000005"><a xlink:href="../../d4/dd1/scale__up_8cpp_8hpp.html" target="_top" xlink:title=" ">
<polygon fill="white" stroke="#666666" points="342,-184 205,-184 205,-165 342,-165 342,-184"/>
<text text-anchor="middle" x="273.5" y="-172" font-family="Helvetica,sans-Serif" font-size="10.00">fl/fx/2d/scale_up.cpp.hpp</text>
</a>
</g>
</g>
<!-- Node1&#45;&gt;Node5 -->
<g id="edge4_Node000001_Node000005" class="edge">
<title>Node1&#45;&gt;Node5</title>
<g id="a_edge4_Node000001_Node000005"><a xlink:title=" ">
<path fill="none" stroke="#63b8ff" d="M273.5,-209.66C273.5,-200.93 273.5,-190.99 273.5,-184.09"/>
<polygon fill="#63b8ff" stroke="#63b8ff" points="270,-209.75 273.5,-219.75 277,-209.75 270,-209.75"/>
</a>
</g>
</g>
<!-- Node10 -->
<g id="Node000010" class="node">
<title>Node10</title>
<g id="a_Node000010"><a xlink:href="../../df/dfb/upscale_8cpp_8hpp.html" target="_top" xlink:title=" ">
<polygon fill="white" stroke="#666666" points="483,-184 360,-184 360,-165 483,-165 483,-184"/>
<text text-anchor="middle" x="421.5" y="-172" font-family="Helvetica,sans-Serif" font-size="10.00">fl/gfx/upscale.cpp.hpp</text>
</a>
</g>
</g>
<!-- Node1&#45;&gt;Node10 -->
<g id="edge8_Node000001_Node000010" class="edge">
<title>Node1&#45;&gt;Node10</title>
<g id="a_edge8_Node000001_Node000010"><a xlink:title=" ">
<path fill="none" stroke="#63b8ff" d="M306.87,-216.55C334.35,-206.71 372.67,-192.98 397.29,-184.17"/>
<polygon fill="#63b8ff" stroke="#63b8ff" points="305.51,-213.32 297.28,-219.98 307.87,-219.91 305.51,-213.32"/>
</a>
</g>
</g>
<!-- Node3 -->
<g id="Node000003" class="node">
<title>Node3</title>
<g id="a_Node000003"><a xlink:href="../../d7/dd5/__build_8cpp_8hpp.html" target="_top" xlink:title=" ">
<polygon fill="white" stroke="#666666" points="87,-129 0,-129 0,-110 87,-110 87,-129"/>
<text text-anchor="middle" x="43.5" y="-117" font-family="Helvetica,sans-Serif" font-size="10.00">_build.cpp.hpp</text>
</a>
</g>
</g>
<!-- Node2&#45;&gt;Node3 -->
<g id="edge2_Node000002_Node000003" class="edge">
<title>Node2&#45;&gt;Node3</title>
<g id="a_edge2_Node000002_Node000003"><a xlink:title=" ">
<path fill="none" stroke="#63b8ff" d="M121.73,-160.37C102.63,-150.63 77.13,-137.64 60.51,-129.17"/>
<polygon fill="#63b8ff" stroke="#63b8ff" points="120.29,-163.56 130.79,-164.98 123.47,-157.33 120.29,-163.56"/>
</a>
</g>
</g>
<!-- Node4 -->
<g id="Node000004" class="node">
<title>Node4</title>
<g id="a_Node000004"><a xlink:href="../../dd/de2/src_8cpp.html" target="_top" xlink:title="Unity build: flat includes from src/ root directory.">
<polygon fill="white" stroke="#666666" points="192,-129 105,-129 105,-110 192,-110 192,-129"/>
<text text-anchor="middle" x="148.5" y="-117" font-family="Helvetica,sans-Serif" font-size="10.00">fl/build/src.cpp</text>
</a>
</g>
</g>
<!-- Node2&#45;&gt;Node4 -->
<g id="edge3_Node000002_Node000004" class="edge">
<title>Node2&#45;&gt;Node4</title>
<g id="a_edge3_Node000002_Node000004"><a xlink:title=" ">
<path fill="none" stroke="#63b8ff" d="M147.86,-154.66C148.02,-145.93 148.21,-135.99 148.34,-129.09"/>
<polygon fill="#63b8ff" stroke="#63b8ff" points="144.35,-154.68 147.67,-164.75 151.35,-154.82 144.35,-154.68"/>
</a>
</g>
</g>
<!-- Node6 -->
<g id="Node000006" class="node">
<title>Node6</title>
<g id="a_Node000006"><a xlink:href="../../d8/d41/fl_2fx_22d_2__build_8cpp_8hpp.html" target="_top" xlink:title="Unity build header for fl/fx/2d/ directory.">
<polygon fill="white" stroke="#666666" points="335.5,-129 211.5,-129 211.5,-110 335.5,-110 335.5,-129"/>
<text text-anchor="middle" x="273.5" y="-117" font-family="Helvetica,sans-Serif" font-size="10.00">fl/fx/2d/_build.cpp.hpp</text>
</a>
</g>
</g>
<!-- Node5&#45;&gt;Node6 -->
<g id="edge5_Node000005_Node000006" class="edge">
<title>Node5&#45;&gt;Node6</title>
<g id="a_edge5_Node000005_Node000006"><a xlink:title=" ">
<path fill="none" stroke="#63b8ff" d="M273.5,-154.66C273.5,-145.93 273.5,-135.99 273.5,-129.09"/>
<polygon fill="#63b8ff" stroke="#63b8ff" points="270,-154.75 273.5,-164.75 277,-154.75 270,-154.75"/>
</a>
</g>
</g>
<!-- Node7 -->
<g id="Node000007" class="node">
<title>Node7</title>
<g id="a_Node000007"><a xlink:href="../../df/d9c/fl_2fx_2__build_8cpp_8hpp.html" target="_top" xlink:title="Unity build header for fl/fx/ directory.">
<polygon fill="#fff0f0" stroke="red" points="328,-74 219,-74 219,-55 328,-55 328,-74"/>
<text text-anchor="middle" x="273.5" y="-62" font-family="Helvetica,sans-Serif" font-size="10.00">fl/fx/_build.cpp.hpp</text>
</a>
</g>
</g>
<!-- Node6&#45;&gt;Node7 -->
<g id="edge6_Node000006_Node000007" class="edge">
<title>Node6&#45;&gt;Node7</title>
<g id="a_edge6_Node000006_Node000007"><a xlink:title=" ">
<path fill="none" stroke="#63b8ff" d="M273.5,-99.66C273.5,-90.93 273.5,-80.99 273.5,-74.09"/>
<polygon fill="#63b8ff" stroke="#63b8ff" points="270,-99.75 273.5,-109.75 277,-99.75 270,-99.75"/>
</a>
</g>
</g>
<!-- Node8 -->
<g id="Node000008" class="node">
<title>Node8</title>
<g id="a_Node000008"><a xlink:href="../../d1/deb/fl_2__build_8cpp_8hpp.html" target="_top" xlink:title=" ">
<polygon fill="white" stroke="#666666" points="362.5,-19 266.5,-19 266.5,0 362.5,0 362.5,-19"/>
<text text-anchor="middle" x="314.5" y="-7" font-family="Helvetica,sans-Serif" font-size="10.00">fl/_build.cpp.hpp</text>
</a>
</g>
</g>
<!-- Node7&#45;&gt;Node8 -->
<g id="edge7_Node000007_Node000008" class="edge">
<title>Node7&#45;&gt;Node8</title>
<g id="a_edge7_Node000007_Node000008"><a xlink:title=" ">
<path fill="none" stroke="#63b8ff" d="M286.52,-46.67C293.62,-37.5 302.1,-26.52 307.86,-19.09"/>
<polygon fill="#63b8ff" stroke="#63b8ff" points="283.62,-44.7 280.27,-54.75 289.16,-48.98 283.62,-44.7"/>
</a>
</g>
</g>
<!-- Node11 -->
<g id="Node000011" class="node">
<title>Node11</title>
<g id="a_Node000011"><a xlink:href="../../d5/d88/fl_2gfx_2__build_8cpp_8hpp.html" target="_top" xlink:title="Unity build for fl/gfx/ — graphics types, primitives, and simulators.">
<polygon fill="white" stroke="#666666" points="479,-129 364,-129 364,-110 479,-110 479,-129"/>
<text text-anchor="middle" x="421.5" y="-117" font-family="Helvetica,sans-Serif" font-size="10.00">fl/gfx/_build.cpp.hpp</text>
</a>
</g>
</g>
<!-- Node10&#45;&gt;Node11 -->
<g id="edge9_Node000010_Node000011" class="edge">
<title>Node10&#45;&gt;Node11</title>
<g id="a_edge9_Node000010_Node000011"><a xlink:title=" ">
<path fill="none" stroke="#63b8ff" d="M421.5,-154.66C421.5,-145.93 421.5,-135.99 421.5,-129.09"/>
<polygon fill="#63b8ff" stroke="#63b8ff" points="418,-154.75 421.5,-164.75 425,-154.75 418,-154.75"/>
</a>
</g>
</g>
<!-- Node11&#45;&gt;Node8 -->
<g id="edge10_Node000011_Node000008" class="edge">
<title>Node11&#45;&gt;Node8</title>
<g id="a_edge10_Node000011_Node000008"><a xlink:title=" ">
<path fill="none" stroke="#63b8ff" d="M404.86,-102.68C396.05,-94.25 385.11,-83.64 375.5,-74 356.29,-54.73 334.3,-31.55 322.69,-19.22"/>
<polygon fill="#63b8ff" stroke="#63b8ff" points="402.59,-105.36 412.24,-109.73 407.42,-100.3 402.59,-105.36"/>
</a>
</g>
</g>
<!-- Node12 -->
<g id="Node000012" class="node">
<title>Node12</title>
<g id="a_Node000012"><a xlink:href="../../db/d06/fl_8gfx_09_8cpp.html" target="_top" xlink:title="Unity build: recursive includes from src/fl/gfx/.">
<polygon fill="white" stroke="#666666" points="490.5,-74 384.5,-74 384.5,-55 490.5,-55 490.5,-74"/>
<text text-anchor="middle" x="437.5" y="-62" font-family="Helvetica,sans-Serif" font-size="10.00">fl/build/fl.gfx+.cpp</text>
</a>
</g>
</g>
<!-- Node11&#45;&gt;Node12 -->
<g id="edge11_Node000011_Node000012" class="edge">
<title>Node11&#45;&gt;Node12</title>
<g id="a_edge11_Node000011_Node000012"><a xlink:title=" ">
<path fill="none" stroke="#63b8ff" d="M427.1,-99.95C429.76,-91.15 432.8,-81.06 434.91,-74.09"/>
<polygon fill="#63b8ff" stroke="#63b8ff" points="423.68,-99.16 424.14,-109.75 430.38,-101.19 423.68,-99.16"/>
</a>
</g>
</g>
</g>
</svg>
</svg>

<style type='text/css'>
<![CDATA[
[data-mouse-over-selected='false'] { opacity: 0.7; }
[data-mouse-over-selected='true']  { opacity: 1.0; }
]]>
</style>
<script type="application/ecmascript"><![CDATA[
document.addEventListener('DOMContentLoaded', (event) => {
  highlightEdges();
  highlightAdjacentNodes();
});
]]></script>
</svg>
