<?xml version="1.0" encoding="UTF-8" standalone="no"?>
<!DOCTYPE svg PUBLIC "-//W3C//DTD SVG 1.1//EN"
 "http://www.w3.org/Graphics/SVG/1.1/DTD/svg11.dtd">
<!-- Generated by graphviz version 2.43.0 (0)
 -->
<!-- Title: fl::expected::expected Pages: 1 -->
<!--zoomable 233 -->

<svg id="main" version="1.1" xmlns="http://www.w3.org/2000/svg" xmlns:xlink="http://www.w3.org/1999/xlink" xml:space="preserve" onload="init(evt)">

<style type="text/css"><![CDATA[
.node, .edge {opacity: 0.7;}
.node.selected, .edge.selected {opacity: 1;}
.edge:hover path { stroke: red; }
.edge:hover polygon { stroke: red; fill: red; }
]]></style>

<defs>
  <circle id="rim" cx="0" cy="0" r="7"/>
  <circle id="rim2" cx="0" cy="0" r="3.5"/>
  <g id="zoomPlus">
    <use xlink:href="#rim" fill="#404040"><set attributeName="fill" to="#808080" begin="zoomplus.mouseover" end="zoomplus.mouseout"/></use>
    <path d="M-4,0h8M0,-4v8" fill="none" stroke="white" stroke-width="1.5" pointer-events="none"/>
  </g>
  <g id="zoomMin">
    <use xlink:href="#rim" fill="#404040"><set attributeName="fill" to="#808080" begin="zoomminus.mouseover" end="zoomminus.mouseout"/></use>
    <path d="M-4,0h8" fill="none" stroke="white" stroke-width="1.5" pointer-events="none"/>
  </g>
  <g id="arrowUp" transform="translate(30 24)">
    <use xlink:href="#rim"/>
    <path pointer-events="none" fill="none" stroke="white" stroke-width="1.5" d="M0,-3.0v7 M-2.5,-0.5L0,-3.0L2.5,-0.5"/>
  </g>
  <g id="arrowRight" transform="rotate(90) translate(36 -43)">
    <use xlink:href="#rim"/>
    <path pointer-events="none" fill="none" stroke="white" stroke-width="1.5" d="M0,-3.0v7 M-2.5,-0.5L0,-3.0L2.5,-0.5"/>
  </g>
  <g id="arrowDown" transform="rotate(180) translate(-30 -48)">
    <use xlink:href="#rim"/>
    <path pointer-events="none" fill="none" stroke="white" stroke-width="1.5" d="M0,-3.0v7 M-2.5,-0.5L0,-3.0L2.5,-0.5"/>
  </g>
  <g id="arrowLeft" transform="rotate(270) translate(-36 17)">
    <use xlink:href="#rim"/>
    <path pointer-events="none" fill="none" stroke="white" stroke-width="1.5" d="M0,-3.0v7 M-2.5,-0.5L0,-3.0L2.5,-0.5"/>
  </g>
  <g id="resetDef">
    <use xlink:href="#rim2" fill="#404040"><set attributeName="fill" to="#808080" begin="reset.mouseover" end="reset.mouseout"/></use>
  </g>
</defs>
<script type="application/ecmascript">
var viewWidth = 644;
var viewHeight = 233;
var sectionId = 'dynsection-0';
</script>
<script type="application/ecmascript" xlink:href="../../svg.min.js"/>
<svg id="graph" class="graph">
<g id="viewport">
<title>fl::expected::expected</title>
<!-- Node1 -->
<g id="Node000001" class="node">
<title>Node1</title>
<g id="a_Node000001"><a xlink:title="Default constructor (creates error state)">
<polygon fill="#999999" stroke="#666666" points="636,-111 511,-111 511,-92 636,-92 636,-111"/>
<text text-anchor="middle" x="573.5" y="-99" font-family="Helvetica,sans-Serif" font-size="10.00">fl::expected::expected</text>
</a>
</g>
</g>
<!-- Node2 -->
<g id="Node000002" class="node">
<title>Node2</title>
<g id="a_Node000002"><a xlink:href="../../d7/d93/classfl_1_1expected_a8cc89ce5ff1f7e0edf22552f8bf1a5d9.html#a8cc89ce5ff1f7e0edf22552f8bf1a5d9" target="_top" xlink:title=" ">
<polygon fill="white" stroke="#666666" points="473,-204 348,-204 348,-185 473,-185 473,-204"/>
<text text-anchor="middle" x="410.5" y="-192" font-family="Helvetica,sans-Serif" font-size="10.00">fl::expected::expected</text>
</a>
</g>
</g>
<!-- Node1&#45;&gt;Node2 -->
<g id="edge1_Node000001_Node000002" class="edge">
<title>Node1&#45;&gt;Node2</title>
<g id="a_edge1_Node000001_Node000002"><a xlink:title=" ">
<path fill="none" stroke="#63b8ff" d="M555.23,-118.12C536.75,-135.04 505.91,-160.95 475,-176.5 468.35,-179.85 460.98,-182.65 453.69,-184.98"/>
<polygon fill="#63b8ff" stroke="#63b8ff" points="557.66,-120.64 562.58,-111.25 552.88,-115.52 557.66,-120.64"/>
</a>
</g>
</g>
<!-- Node3 -->
<g id="Node000003" class="node">
<title>Node3</title>
<g id="a_Node000003"><a xlink:href="../../d7/d93/classfl_1_1expected_a3541c5b09901c2ad9078a0f462d214db.html#a3541c5b09901c2ad9078a0f462d214db" target="_top" xlink:title="Move constructor (defaulted &#45; variant handles it)">
<polygon fill="white" stroke="#666666" points="473,-167 348,-167 348,-148 473,-148 473,-167"/>
<text text-anchor="middle" x="410.5" y="-155" font-family="Helvetica,sans-Serif" font-size="10.00">fl::expected::expected</text>
</a>
</g>
</g>
<!-- Node1&#45;&gt;Node3 -->
<g id="edge2_Node000001_Node000003" class="edge">
<title>Node1&#45;&gt;Node3</title>
<g id="a_edge2_Node000001_Node000003"><a xlink:title=" ">
<path fill="none" stroke="#63b8ff" d="M540.54,-114.84C521.64,-122.51 497.15,-132.06 475,-139.5 466.2,-142.45 456.61,-145.34 447.62,-147.91"/>
<polygon fill="#63b8ff" stroke="#63b8ff" points="541.94,-118.05 549.87,-111.03 539.29,-111.57 541.94,-118.05"/>
</a>
</g>
</g>
<!-- Node4 -->
<g id="Node000004" class="node">
<title>Node4</title>
<g id="a_Node000004"><a xlink:href="../../d7/d93/classfl_1_1expected_abbee0bb98c9bf0a1391cb3e810ea4fd5.html#abbee0bb98c9bf0a1391cb3e810ea4fd5" target="_top" xlink:title="Create error result.">
<polygon fill="white" stroke="#666666" points="466,-130 355,-130 355,-111 466,-111 466,-130"/>
<text text-anchor="middle" x="410.5" y="-118" font-family="Helvetica,sans-Serif" font-size="10.00">fl::expected::failure</text>
</a>
</g>
</g>
<!-- Node1&#45;&gt;Node4 -->
<g id="edge3_Node000001_Node000004" class="edge">
<title>Node1&#45;&gt;Node4</title>
<g id="a_edge3_Node000001_Node000004"><a xlink:title=" ">
<path fill="none" stroke="#63b8ff" d="M500.6,-109.99C488.99,-111.36 477.13,-112.75 466.02,-114.07"/>
<polygon fill="#63b8ff" stroke="#63b8ff" points="501.19,-113.44 510.71,-108.79 500.37,-106.49 501.19,-113.44"/>
</a>
</g>
</g>
<!-- Node14 -->
<g id="Node000014" class="node">
<title>Node14</title>
<g id="a_Node000014"><a xlink:href="../../d7/d93/classfl_1_1expected_a43962c78b223e9bf7f78b6d5fe2be30f.html#a43962c78b223e9bf7f78b6d5fe2be30f" target="_top" xlink:title=" ">
<polygon fill="white" stroke="#666666" points="475,-56 346,-56 346,-37 475,-37 475,-56"/>
<text text-anchor="middle" x="410.5" y="-44" font-family="Helvetica,sans-Serif" font-size="10.00">fl::expected::operator=</text>
</a>
</g>
</g>
<!-- Node1&#45;&gt;Node14 -->
<g id="edge12_Node000001_Node000014" class="edge">
<title>Node1&#45;&gt;Node14</title>
<g id="a_edge12_Node000001_Node000014"><a xlink:title=" ">
<path fill="none" stroke="#63b8ff" d="M539.76,-88.26C520.95,-80.87 496.81,-71.71 475,-64.5 466.08,-61.55 456.36,-58.64 447.26,-56.05"/>
<polygon fill="#63b8ff" stroke="#63b8ff" points="538.48,-91.52 549.06,-91.95 541.06,-85.01 538.48,-91.52"/>
</a>
</g>
</g>
<!-- Node15 -->
<g id="Node000015" class="node">
<title>Node15</title>
<g id="a_Node000015"><a xlink:href="../../d7/d93/classfl_1_1expected_aa11f7b7ffd93fd0d4b4c2a61a7863c5d.html#aa11f7b7ffd93fd0d4b4c2a61a7863c5d" target="_top" xlink:title="Move assignment (defaulted &#45; variant handles it)">
<polygon fill="white" stroke="#666666" points="475,-19 346,-19 346,0 475,0 475,-19"/>
<text text-anchor="middle" x="410.5" y="-7" font-family="Helvetica,sans-Serif" font-size="10.00">fl::expected::operator=</text>
</a>
</g>
</g>
<!-- Node1&#45;&gt;Node15 -->
<g id="edge13_Node000001_Node000015" class="edge">
<title>Node1&#45;&gt;Node15</title>
<g id="a_edge13_Node000001_Node000015"><a xlink:title=" ">
<path fill="none" stroke="#63b8ff" d="M555.19,-85.12C536.68,-68.43 505.81,-42.87 475,-27.5 468.34,-24.18 460.96,-21.38 453.67,-19.06"/>
<polygon fill="#63b8ff" stroke="#63b8ff" points="552.82,-87.7 562.55,-91.88 557.55,-82.54 552.82,-87.7"/>
</a>
</g>
</g>
<!-- Node16 -->
<g id="Node000016" class="node">
<title>Node16</title>
<g id="a_Node000016"><a xlink:href="../../d7/d93/classfl_1_1expected_ae712d6f5942009caa637e9181d47d40b.html#ae712d6f5942009caa637e9181d47d40b" target="_top" xlink:title="Create successful result.">
<polygon fill="white" stroke="#666666" points="469.5,-93 351.5,-93 351.5,-74 469.5,-74 469.5,-93"/>
<text text-anchor="middle" x="410.5" y="-81" font-family="Helvetica,sans-Serif" font-size="10.00">fl::expected::success</text>
</a>
</g>
</g>
<!-- Node1&#45;&gt;Node16 -->
<g id="edge14_Node000001_Node000016" class="edge">
<title>Node1&#45;&gt;Node16</title>
<g id="a_edge14_Node000001_Node000016"><a xlink:title=" ">
<path fill="none" stroke="#63b8ff" d="M500.49,-93.45C490.18,-92.3 479.68,-91.12 469.68,-90"/>
<polygon fill="#63b8ff" stroke="#63b8ff" points="500.39,-96.96 510.71,-94.59 501.16,-90 500.39,-96.96"/>
</a>
</g>
</g>
<!-- Node5 -->
<g id="Node000005" class="node">
<title>Node5</title>
<g id="a_Node000005"><a xlink:href="../../d3/d2b/classfl_1_1_rx_channel_a14a948e851faeb318738072647ac2b44.html#a14a948e851faeb318738072647ac2b44" target="_top" xlink:title=" ">
<polygon fill="white" stroke="#666666" points="299.5,-176 177.5,-176 177.5,-157 299.5,-157 299.5,-176"/>
<text text-anchor="middle" x="238.5" y="-164" font-family="Helvetica,sans-Serif" font-size="10.00">fl::RxChannel::decode</text>
</a>
</g>
</g>
<!-- Node4&#45;&gt;Node5 -->
<g id="edge4_Node000004_Node000005" class="edge">
<title>Node4&#45;&gt;Node5</title>
<g id="a_edge4_Node000004_Node000005"><a xlink:title=" ">
<path fill="none" stroke="#63b8ff" d="M364.76,-132.66C347.63,-137.31 327.91,-142.66 310,-147.5 298.62,-150.58 286.2,-153.93 275.01,-156.94"/>
<polygon fill="#63b8ff" stroke="#63b8ff" points="365.77,-136.01 374.51,-130.01 363.94,-129.25 365.77,-136.01"/>
</a>
</g>
</g>
<!-- Node6 -->
<g id="Node000006" class="node">
<title>Node6</title>
<g id="a_Node000006"><a xlink:href="../../dc/d85/namespacefl_1_1channels_1_1rx_adf091740491eb262a159f09c092a157d.html#adf091740491eb262a159f09c092a157d" target="_top" xlink:title="Decode a WS2812 edge&#45;pair stream into bytes.">
<polygon fill="white" stroke="#666666" points="303,-52.5 174,-52.5 174,-22.5 303,-22.5 303,-52.5"/>
<text text-anchor="start" x="182" y="-40.5" font-family="Helvetica,sans-Serif" font-size="10.00">fl::channels::rx::decode</text>
<text text-anchor="middle" x="238.5" y="-29.5" font-family="Helvetica,sans-Serif" font-size="10.00">Ws2812Edges</text>
</a>
</g>
</g>
<!-- Node4&#45;&gt;Node6 -->
<g id="edge5_Node000004_Node000006" class="edge">
<title>Node4&#45;&gt;Node6</title>
<g id="a_edge5_Node000004_Node000006"><a xlink:title=" ">
<path fill="none" stroke="#63b8ff" d="M356.67,-107.2C352.95,-105.51 349.35,-103.62 346,-101.5 325.79,-88.71 329.97,-74.67 310,-61.5 304.82,-58.08 299.1,-55.1 293.23,-52.52"/>
<polygon fill="#63b8ff" stroke="#63b8ff" points="355.51,-110.51 366.09,-111 358.12,-104.02 355.51,-110.51"/>
</a>
</g>
</g>
<!-- Node7 -->
<g id="Node000007" class="node">
<title>Node7</title>
<g id="a_Node000007"><a xlink:href="../../d7/d70/classfl_1_1spi_1_1_multi_lane_device_a97018959f2c77546fa12f2a0adb2f540.html#a97018959f2c77546fa12f2a0adb2f540" target="_top" xlink:title="Flush all lanes (transpose and transmit)">
<polygon fill="white" stroke="#666666" points="304,-138.5 173,-138.5 173,-108.5 304,-108.5 304,-138.5"/>
<text text-anchor="start" x="181" y="-126.5" font-family="Helvetica,sans-Serif" font-size="10.00">fl::spi::MultiLaneDevice</text>
<text text-anchor="middle" x="238.5" y="-115.5" font-family="Helvetica,sans-Serif" font-size="10.00">::flush</text>
</a>
</g>
</g>
<!-- Node4&#45;&gt;Node7 -->
<g id="edge6_Node000004_Node000007" class="edge">
<title>Node4&#45;&gt;Node7</title>
<g id="a_edge6_Node000004_Node000007"><a xlink:title=" ">
<path fill="none" stroke="#63b8ff" d="M344.77,-121.64C331.48,-121.88 317.49,-122.12 304.21,-122.36"/>
<polygon fill="#63b8ff" stroke="#63b8ff" points="344.84,-125.14 354.78,-121.47 344.71,-118.14 344.84,-125.14"/>
</a>
</g>
</g>
<!-- Node11 -->
<g id="Node000011" class="node">
<title>Node11</title>
<g id="a_Node000011"><a xlink:href="../../d7/de0/classfl_1_1spi_1_1_parallel_device_a46d4c7d7aebd2478ad2d56532051ef75.html#a46d4c7d7aebd2478ad2d56532051ef75" target="_top" xlink:title="Write data (single stream drives all pins via LUT)">
<polygon fill="white" stroke="#666666" points="298,-224.5 179,-224.5 179,-194.5 298,-194.5 298,-224.5"/>
<text text-anchor="start" x="187" y="-212.5" font-family="Helvetica,sans-Serif" font-size="10.00">fl::spi::ParallelDevice</text>
<text text-anchor="middle" x="238.5" y="-201.5" font-family="Helvetica,sans-Serif" font-size="10.00">::write</text>
</a>
</g>
</g>
<!-- Node4&#45;&gt;Node11 -->
<g id="edge9_Node000004_Node000011" class="edge">
<title>Node4&#45;&gt;Node11</title>
<g id="a_edge9_Node000004_Node000011"><a xlink:title=" ">
<path fill="none" stroke="#63b8ff" d="M355.38,-134.08C352.1,-135.69 348.94,-137.49 346,-139.5 324.56,-154.13 331.17,-170.47 310,-185.5 305.15,-188.94 299.77,-191.92 294.2,-194.5"/>
<polygon fill="#63b8ff" stroke="#63b8ff" points="357.05,-137.17 364.86,-130.02 354.29,-130.74 357.05,-137.17"/>
</a>
</g>
</g>
<!-- Node13 -->
<g id="Node000013" class="node">
<title>Node13</title>
<g id="a_Node000013"><a xlink:href="../../d9/d0a/classfl_1_1spi_1_1_device_a2242937ce5772a2fe9ba38632c000cc0.html#a2242937ce5772a2fe9ba38632c000cc0" target="_top" xlink:title="Begin asynchronous write operation (returns immediately)">
<polygon fill="white" stroke="#666666" points="310,-90 167,-90 167,-71 310,-71 310,-90"/>
<text text-anchor="middle" x="238.5" y="-78" font-family="Helvetica,sans-Serif" font-size="10.00">fl::spi::Device::writeAsync</text>
</a>
</g>
</g>
<!-- Node4&#45;&gt;Node13 -->
<g id="edge11_Node000004_Node000013" class="edge">
<title>Node4&#45;&gt;Node13</title>
<g id="a_edge11_Node000004_Node000013"><a xlink:title=" ">
<path fill="none" stroke="#63b8ff" d="M359.01,-108.62C333.75,-102.68 303.59,-95.58 279.89,-90"/>
<polygon fill="#63b8ff" stroke="#63b8ff" points="358.24,-112.04 368.78,-110.92 359.85,-105.22 358.24,-112.04"/>
</a>
</g>
</g>
<!-- Node8 -->
<g id="Node000008" class="node">
<title>Node8</title>
<g id="a_Node000008"><a xlink:href="../../d7/d70/classfl_1_1spi_1_1_multi_lane_device_a512a780a7050fa0e91e83c5dba1e17bc.html#a512a780a7050fa0e91e83c5dba1e17bc" target="_top" xlink:title=" ">
<polygon fill="white" stroke="#666666" points="131,-157.5 0,-157.5 0,-127.5 131,-127.5 131,-157.5"/>
<text text-anchor="start" x="8" y="-145.5" font-family="Helvetica,sans-Serif" font-size="10.00">fl::spi::MultiLaneDevice</text>
<text text-anchor="middle" x="65.5" y="-134.5" font-family="Helvetica,sans-Serif" font-size="10.00">::operator=</text>
</a>
</g>
</g>
<!-- Node7&#45;&gt;Node8 -->
<g id="edge7_Node000007_Node000008" class="edge">
<title>Node7&#45;&gt;Node8</title>
<g id="a_edge7_Node000007_Node000008"><a xlink:title=" ">
<path fill="none" stroke="#63b8ff" d="M162.85,-131.79C152.32,-132.96 141.56,-134.16 131.24,-135.31"/>
<polygon fill="#63b8ff" stroke="#63b8ff" points="163.3,-135.27 172.85,-130.68 162.53,-128.31 163.3,-135.27"/>
</a>
</g>
</g>
<!-- Node9 -->
<g id="Node000009" class="node">
<title>Node9</title>
<g id="a_Node000009"><a xlink:href="../../d7/d70/classfl_1_1spi_1_1_multi_lane_device_a547b2f30f70e16dbb22762f3f2370254.html#a547b2f30f70e16dbb22762f3f2370254" target="_top" xlink:title="Internal implementation &#45; write all lanes atomically.">
<polygon fill="#fff0f0" stroke="red" points="131,-109.5 0,-109.5 0,-79.5 131,-79.5 131,-109.5"/>
<text text-anchor="start" x="8" y="-97.5" font-family="Helvetica,sans-Serif" font-size="10.00">fl::spi::MultiLaneDevice</text>
<text text-anchor="middle" x="65.5" y="-86.5" font-family="Helvetica,sans-Serif" font-size="10.00">::writeImpl</text>
</a>
</g>
</g>
<!-- Node7&#45;&gt;Node9 -->
<g id="edge8_Node000007_Node000009" class="edge">
<title>Node7&#45;&gt;Node9</title>
<g id="a_edge8_Node000007_Node000009"><a xlink:title=" ">
<path fill="none" stroke="#63b8ff" d="M162.85,-110.84C152.32,-109.05 141.56,-107.23 131.24,-105.48"/>
<polygon fill="#63b8ff" stroke="#63b8ff" points="162.41,-114.31 172.85,-112.54 163.58,-107.41 162.41,-114.31"/>
</a>
</g>
</g>
<!-- Node12 -->
<g id="Node000012" class="node">
<title>Node12</title>
<g id="a_Node000012"><a xlink:href="../../d7/de0/classfl_1_1spi_1_1_parallel_device_a7401728911c15f96eedba08dcf5544d6.html#a7401728911c15f96eedba08dcf5544d6" target="_top" xlink:title=" ">
<polygon fill="white" stroke="#666666" points="125,-224.5 6,-224.5 6,-194.5 125,-194.5 125,-224.5"/>
<text text-anchor="start" x="14" y="-212.5" font-family="Helvetica,sans-Serif" font-size="10.00">fl::spi::ParallelDevice</text>
<text text-anchor="middle" x="65.5" y="-201.5" font-family="Helvetica,sans-Serif" font-size="10.00">::operator=</text>
</a>
</g>
</g>
<!-- Node11&#45;&gt;Node12 -->
<g id="edge10_Node000011_Node000012" class="edge">
<title>Node11&#45;&gt;Node12</title>
<g id="a_edge10_Node000011_Node000012"><a xlink:title=" ">
<path fill="none" stroke="#63b8ff" d="M168.36,-209.5C154.03,-209.5 139.07,-209.5 125.17,-209.5"/>
<polygon fill="#63b8ff" stroke="#63b8ff" points="168.65,-213 178.65,-209.5 168.65,-206 168.65,-213"/>
</a>
</g>
</g>
<!-- Node16&#45;&gt;Node6 -->
<g id="edge15_Node000016_Node000006" class="edge">
<title>Node16&#45;&gt;Node6</title>
<g id="a_edge15_Node000016_Node000006"><a xlink:title=" ">
<path fill="none" stroke="#63b8ff" d="M364.52,-71.33C343.22,-65.57 317.59,-58.63 295.09,-52.54"/>
<polygon fill="#63b8ff" stroke="#63b8ff" points="363.71,-74.74 374.28,-73.97 365.54,-67.98 363.71,-74.74"/>
</a>
</g>
</g>
<!-- Node16&#45;&gt;Node7 -->
<g id="edge16_Node000016_Node000007" class="edge">
<title>Node16&#45;&gt;Node7</title>
<g id="a_edge16_Node000016_Node000007"><a xlink:title=" ">
<path fill="none" stroke="#63b8ff" d="M358.84,-95.42C341.45,-99.51 321.76,-104.14 303.46,-108.45"/>
<polygon fill="#63b8ff" stroke="#63b8ff" points="359.85,-98.78 368.78,-93.08 358.24,-91.96 359.85,-98.78"/>
</a>
</g>
</g>
<!-- Node16&#45;&gt;Node13 -->
<g id="edge17_Node000016_Node000013" class="edge">
<title>Node16&#45;&gt;Node13</title>
<g id="a_edge17_Node000016_Node000013"><a xlink:title=" ">
<path fill="none" stroke="#63b8ff" d="M341.36,-82.3C331.1,-82.12 320.51,-81.93 310.2,-81.75"/>
<polygon fill="#63b8ff" stroke="#63b8ff" points="341.41,-85.8 351.47,-82.48 341.53,-78.8 341.41,-85.8"/>
</a>
</g>
</g>
</g>
</svg>

<g id="navigator" transform="translate(0 0)" fill="#404254">
  <rect fill="#f2f5e9" fill-opacity="0.5" stroke="#606060" stroke-width=".5" x="0" y="0" width="60" height="60"/>
  <use id="zoomplus" xlink:href="#zoomPlus" x="17" y="9" onmousedown="handleZoom(evt,'in')"/>
  <use id="zoomminus" xlink:href="#zoomMin" x="42" y="9" onmousedown="handleZoom(evt,'out')"/>
  <use id="reset" xlink:href="#resetDef" x="30" y="36" onmousedown="handleReset()"/>
   <use id="arrowup" xlink:href="#arrowUp" x="0" y="0" onmousedown="handlePan(0,-1)"/>
  <use id="arrowright" xlink:href="#arrowRight" x="0" y="0" onmousedown="handlePan(1,0)"/>
  <use id="arrowdown" xlink:href="#arrowDown" x="0" y="0" onmousedown="handlePan(0,1)"/>
  <use id="arrowleft" xlink:href="#arrowLeft" x="0" y="0" onmousedown="handlePan(-1,0)"/>
</g>
<svg viewBox="0 0 15 15" width="100%" height="30px" preserveAspectRatio="xMaxYMin meet">
 <g id="arrow_out" transform="scale(0.3 0.3)">
  <a xlink:href="classfl_1_1expected_a519c280d81d3683cfbfb758ed0198277_a519c280d81d3683cfbfb758ed0198277_icgraph_org.svg" target="_base">
   <rect id="button" ry="5" rx="5" y="6" x="6" height="38" width="38"
        fill="#f2f5e9" fill-opacity="0.5" stroke="#606060" stroke-width="1.0"/>
   <path id="arrow"
     d="M 11.500037,31.436501 C 11.940474,20.09759 22.043105,11.32322 32.158766,21.979434 L 37.068811,17.246167 C 37.068811,17.246167 37.088388,32 37.088388,32 L 22.160133,31.978069 C 22.160133,31.978069 26.997745,27.140456 26.997745,27.140456 C 18.528582,18.264221 13.291696,25.230495 11.500037,31.436501 z"
     style="fill:#404040;"/>
  </a>
 </g>
</svg>

<style type='text/css'>
<![CDATA[
[data-mouse-over-selected='false'] { opacity: 0.7; }
[data-mouse-over-selected='true']  { opacity: 1.0; }
]]>
</style>
<script type="application/ecmascript"><![CDATA[
document.addEventListener('DOMContentLoaded', (event) => {
  highlightEdges();
  highlightAdjacentNodes();
});
]]></script>
</svg>
