<?xml version="1.0" encoding="UTF-8" standalone="no"?>
<!DOCTYPE svg PUBLIC "-//W3C//DTD SVG 1.1//EN"
 "http://www.w3.org/Graphics/SVG/1.1/DTD/svg11.dtd">
<!-- Generated by graphviz version 2.43.0 (0)
 -->
<!-- Title: fl::s0x32::s0x32 Pages: 1 -->
<!--zoomable 818 -->

<svg id="main" version="1.1" xmlns="http://www.w3.org/2000/svg" xmlns:xlink="http://www.w3.org/1999/xlink" xml:space="preserve" onload="init(evt)">

<style type="text/css"><![CDATA[
.node, .edge {opacity: 0.7;}
.node.selected, .edge.selected {opacity: 1;}
.edge:hover path { stroke: red; }
.edge:hover polygon { stroke: red; fill: red; }
]]></style>

<defs>
  <circle id="rim" cx="0" cy="0" r="7"/>
  <circle id="rim2" cx="0" cy="0" r="3.5"/>
  <g id="zoomPlus">
    <use xlink:href="#rim" fill="#404040"><set attributeName="fill" to="#808080" begin="zoomplus.mouseover" end="zoomplus.mouseout"/></use>
    <path d="M-4,0h8M0,-4v8" fill="none" stroke="white" stroke-width="1.5" pointer-events="none"/>
  </g>
  <g id="zoomMin">
    <use xlink:href="#rim" fill="#404040"><set attributeName="fill" to="#808080" begin="zoomminus.mouseover" end="zoomminus.mouseout"/></use>
    <path d="M-4,0h8" fill="none" stroke="white" stroke-width="1.5" pointer-events="none"/>
  </g>
  <g id="arrowUp" transform="translate(30 24)">
    <use xlink:href="#rim"/>
    <path pointer-events="none" fill="none" stroke="white" stroke-width="1.5" d="M0,-3.0v7 M-2.5,-0.5L0,-3.0L2.5,-0.5"/>
  </g>
  <g id="arrowRight" transform="rotate(90) translate(36 -43)">
    <use xlink:href="#rim"/>
    <path pointer-events="none" fill="none" stroke="white" stroke-width="1.5" d="M0,-3.0v7 M-2.5,-0.5L0,-3.0L2.5,-0.5"/>
  </g>
  <g id="arrowDown" transform="rotate(180) translate(-30 -48)">
    <use xlink:href="#rim"/>
    <path pointer-events="none" fill="none" stroke="white" stroke-width="1.5" d="M0,-3.0v7 M-2.5,-0.5L0,-3.0L2.5,-0.5"/>
  </g>
  <g id="arrowLeft" transform="rotate(270) translate(-36 17)">
    <use xlink:href="#rim"/>
    <path pointer-events="none" fill="none" stroke="white" stroke-width="1.5" d="M0,-3.0v7 M-2.5,-0.5L0,-3.0L2.5,-0.5"/>
  </g>
  <g id="resetDef">
    <use xlink:href="#rim2" fill="#404040"><set attributeName="fill" to="#808080" begin="reset.mouseover" end="reset.mouseout"/></use>
  </g>
</defs>
<script type="application/ecmascript">
var viewWidth = 417;
var viewHeight = 818;
var sectionId = 'dynsection-0';
</script>
<script type="application/ecmascript" xlink:href="../../svg.min.js"/>
<svg id="graph" class="graph">
<g id="viewport">
<title>fl::s0x32::s0x32</title>
<!-- Node1 -->
<g id="Node000001" class="node">
<title>Node1</title>
<g id="a_Node000001"><a xlink:title=" ">
<polygon fill="#999999" stroke="#666666" points="409,-411 316,-411 316,-392 409,-392 409,-411"/>
<text text-anchor="middle" x="362.5" y="-399" font-family="Helvetica,sans-Serif" font-size="10.00">fl::s0x32::s0x32</text>
</a>
</g>
</g>
<!-- Node2 -->
<g id="Node000002" class="node">
<title>Node2</title>
<g id="a_Node000002"><a xlink:href="../../dd/dbb/classfl_1_1s0x32_a3c0166220f6f044a5133f43478626708.html#a3c0166220f6f044a5133f43478626708" target="_top" xlink:title=" ">
<polygon fill="white" stroke="#666666" points="265.5,-810 172.5,-810 172.5,-791 265.5,-791 265.5,-810"/>
<text text-anchor="middle" x="219" y="-798" font-family="Helvetica,sans-Serif" font-size="10.00">fl::s0x32::s0x32</text>
</a>
</g>
</g>
<!-- Node1&#45;&gt;Node2 -->
<g id="edge1_Node000001_Node000002" class="edge">
<title>Node1&#45;&gt;Node2</title>
<g id="a_edge1_Node000001_Node000002"><a xlink:title=" ">
<path fill="none" stroke="#63b8ff" d="M359.65,-421.19C352.77,-490.4 326.67,-721.33 280,-776.5 274.64,-782.84 267.36,-787.52 259.73,-790.97"/>
<polygon fill="#63b8ff" stroke="#63b8ff" points="363.13,-421.48 360.62,-411.19 356.17,-420.81 363.13,-421.48"/>
</a>
</g>
</g>
<!-- Node3 -->
<g id="Node000003" class="node">
<title>Node3</title>
<g id="a_Node000003"><a xlink:href="../../dd/dbb/classfl_1_1s0x32_a8f8d498782e4c023e09e7ed2cac61d97.html#a8f8d498782e4c023e09e7ed2cac61d97" target="_top" xlink:title=" ">
<polygon fill="white" stroke="#666666" points="101.5,-770 20.5,-770 20.5,-751 101.5,-751 101.5,-770"/>
<text text-anchor="middle" x="61" y="-758" font-family="Helvetica,sans-Serif" font-size="10.00">fl::s0x32::abs</text>
</a>
</g>
</g>
<!-- Node1&#45;&gt;Node3 -->
<g id="edge2_Node000001_Node000003" class="edge">
<title>Node1&#45;&gt;Node3</title>
<g id="a_edge2_Node000001_Node000003"><a xlink:title=" ">
<path fill="none" stroke="#63b8ff" d="M358.99,-421.05C350.74,-482.38 322.5,-669.36 280,-710.5 232.01,-756.95 150.1,-763.56 101.51,-762.89"/>
<polygon fill="#63b8ff" stroke="#63b8ff" points="362.47,-421.49 360.3,-411.12 355.53,-420.58 362.47,-421.49"/>
</a>
</g>
</g>
<!-- Node4 -->
<g id="Node000004" class="node">
<title>Node4</title>
<g id="a_Node000004"><a xlink:href="../../dd/dbb/classfl_1_1s0x32_acf82d59154cad2b3b1091868e4f7bfab.html#acf82d59154cad2b3b1091868e4f7bfab" target="_top" xlink:title=" ">
<polygon fill="white" stroke="#666666" points="274,-544 164,-544 164,-525 274,-525 274,-544"/>
<text text-anchor="middle" x="219" y="-532" font-family="Helvetica,sans-Serif" font-size="10.00">fl::s0x32::from_raw</text>
</a>
</g>
</g>
<!-- Node1&#45;&gt;Node4 -->
<g id="edge3_Node000001_Node000004" class="edge">
<title>Node1&#45;&gt;Node4</title>
<g id="a_edge3_Node000001_Node000004"><a xlink:title=" ">
<path fill="none" stroke="#63b8ff" d="M351.84,-420.13C338.58,-444.05 312.64,-485.45 280,-510.5 272.08,-516.58 262.41,-521.33 253.17,-524.95"/>
<polygon fill="#63b8ff" stroke="#63b8ff" points="355.07,-421.51 356.73,-411.05 348.9,-418.19 355.07,-421.51"/>
</a>
</g>
</g>
<!-- Node5 -->
<g id="Node000005" class="node">
<title>Node5</title>
<g id="a_Node000005"><a xlink:href="../../dd/dbb/classfl_1_1s0x32_a64772d9c51d8ef69f018918e27b162f5.html#a64772d9c51d8ef69f018918e27b162f5" target="_top" xlink:title=" ">
<polygon fill="white" stroke="#666666" points="104,-731 18,-731 18,-712 104,-712 104,-731"/>
<text text-anchor="middle" x="61" y="-719" font-family="Helvetica,sans-Serif" font-size="10.00">fl::s0x32::max</text>
</a>
</g>
</g>
<!-- Node1&#45;&gt;Node5 -->
<g id="edge16_Node000001_Node000005" class="edge">
<title>Node1&#45;&gt;Node5</title>
<g id="a_edge16_Node000001_Node000005"><a xlink:title=" ">
<path fill="none" stroke="#63b8ff" d="M361.9,-421.38C361.78,-471.65 354.08,-604.74 280,-673.5 232.14,-717.93 152.84,-724.66 104.22,-724.08"/>
<polygon fill="#63b8ff" stroke="#63b8ff" points="365.4,-421.18 361.82,-411.21 358.4,-421.23 365.4,-421.18"/>
</a>
</g>
</g>
<!-- Node6 -->
<g id="Node000006" class="node">
<title>Node6</title>
<g id="a_Node000006"><a xlink:href="../../dd/dbb/classfl_1_1s0x32_ad2590f292be97d4f4ddaaa006b09a5b5.html#ad2590f292be97d4f4ddaaa006b09a5b5" target="_top" xlink:title=" ">
<polygon fill="white" stroke="#666666" points="102.5,-691 19.5,-691 19.5,-672 102.5,-672 102.5,-691"/>
<text text-anchor="middle" x="61" y="-679" font-family="Helvetica,sans-Serif" font-size="10.00">fl::s0x32::min</text>
</a>
</g>
</g>
<!-- Node1&#45;&gt;Node6 -->
<g id="edge17_Node000001_Node000006" class="edge">
<title>Node1&#45;&gt;Node6</title>
<g id="a_edge17_Node000001_Node000006"><a xlink:title=" ">
<path fill="none" stroke="#63b8ff" d="M360.91,-421.58C358.42,-467.4 345.57,-580.14 280,-637.5 230.6,-680.72 150.67,-685.94 102.55,-684.57"/>
<polygon fill="#63b8ff" stroke="#63b8ff" points="364.41,-421.58 361.35,-411.44 357.42,-421.28 364.41,-421.58"/>
</a>
</g>
</g>
<!-- Node7 -->
<g id="Node000007" class="node">
<title>Node7</title>
<g id="a_Node000007"><a xlink:href="../../dd/dbb/classfl_1_1s0x32_a675cf8ea2b2771c00a08e5152545571d.html#a675cf8ea2b2771c00a08e5152545571d" target="_top" xlink:title=" ">
<polygon fill="white" stroke="#666666" points="116,-648 6,-648 6,-629 116,-629 116,-648"/>
<text text-anchor="middle" x="61" y="-636" font-family="Helvetica,sans-Serif" font-size="10.00">fl::s0x32::operator*</text>
</a>
</g>
</g>
<!-- Node1&#45;&gt;Node7 -->
<g id="edge19_Node000001_Node000007" class="edge">
<title>Node1&#45;&gt;Node7</title>
<g id="a_edge19_Node000001_Node000007"><a xlink:title=" ">
<path fill="none" stroke="#63b8ff" d="M359.87,-421.18C355.33,-462.4 338.69,-557.83 280,-604.5 233.83,-641.22 164.32,-646.06 116.26,-644.1"/>
<polygon fill="#63b8ff" stroke="#63b8ff" points="363.37,-421.37 360.85,-411.08 356.4,-420.69 363.37,-421.37"/>
</a>
</g>
</g>
<!-- Node8 -->
<g id="Node000008" class="node">
<title>Node8</title>
<g id="a_Node000008"><a xlink:href="../../dd/dbb/classfl_1_1s0x32_ab671c88014c25a8db9860afce7c88436.html#ab671c88014c25a8db9860afce7c88436" target="_top" xlink:title=" ">
<polygon fill="white" stroke="#666666" points="116,-601 6,-601 6,-582 116,-582 116,-601"/>
<text text-anchor="middle" x="61" y="-589" font-family="Helvetica,sans-Serif" font-size="10.00">fl::s0x32::operator*</text>
</a>
</g>
</g>
<!-- Node1&#45;&gt;Node8 -->
<g id="edge21_Node000001_Node000008" class="edge">
<title>Node1&#45;&gt;Node8</title>
<g id="a_edge21_Node000001_Node000008"><a xlink:title=" ">
<path fill="none" stroke="#63b8ff" d="M358.81,-421.41C352.57,-458.98 333.33,-539.87 280,-576.5 229.5,-611.19 155.95,-608.08 108.54,-601.06"/>
<polygon fill="#63b8ff" stroke="#63b8ff" points="362.32,-421.64 360.35,-411.23 355.4,-420.59 362.32,-421.64"/>
</a>
</g>
</g>
<!-- Node9 -->
<g id="Node000009" class="node">
<title>Node9</title>
<g id="a_Node000009"><a xlink:href="../../dd/dbb/classfl_1_1s0x32_ad05c51709b15c4a547f7942ae1a2b3e9.html#ad05c51709b15c4a547f7942ae1a2b3e9" target="_top" xlink:title=" ">
<polygon fill="white" stroke="#666666" points="117.5,-545 4.5,-545 4.5,-526 117.5,-526 117.5,-545"/>
<text text-anchor="middle" x="61" y="-533" font-family="Helvetica,sans-Serif" font-size="10.00">fl::s0x32::operator+</text>
</a>
</g>
</g>
<!-- Node1&#45;&gt;Node9 -->
<g id="edge23_Node000001_Node000009" class="edge">
<title>Node1&#45;&gt;Node9</title>
<g id="a_edge23_Node000001_Node000009"><a xlink:title=" ">
<path fill="none" stroke="#63b8ff" d="M357.61,-421.49C349.77,-455.68 328.48,-524.49 280,-553.5 217.11,-591.14 125.14,-561.8 83.68,-545.07"/>
<polygon fill="#63b8ff" stroke="#63b8ff" points="361.12,-421.84 359.78,-411.33 354.27,-420.38 361.12,-421.84"/>
</a>
</g>
</g>
<!-- Node10 -->
<g id="Node000010" class="node">
<title>Node10</title>
<g id="a_Node000010"><a xlink:href="../../dd/dbb/classfl_1_1s0x32_a49ec679f830539d667a787dd99a81e0e.html#a49ec679f830539d667a787dd99a81e0e" target="_top" xlink:title=" ">
<polygon fill="white" stroke="#666666" points="115.5,-507 6.5,-507 6.5,-488 115.5,-488 115.5,-507"/>
<text text-anchor="middle" x="61" y="-495" font-family="Helvetica,sans-Serif" font-size="10.00">fl::s0x32::operator&#45;</text>
</a>
</g>
</g>
<!-- Node1&#45;&gt;Node10 -->
<g id="edge24_Node000001_Node000010" class="edge">
<title>Node1&#45;&gt;Node10</title>
<g id="a_edge24_Node000001_Node000010"><a xlink:title=" ">
<path fill="none" stroke="#63b8ff" d="M339.16,-416.86C323.28,-427.14 301.11,-440.26 280,-448.5 225.98,-469.58 160.7,-482.75 115.75,-490.06"/>
<polygon fill="#63b8ff" stroke="#63b8ff" points="341.32,-419.63 347.73,-411.19 337.46,-413.79 341.32,-419.63"/>
</a>
</g>
</g>
<!-- Node11 -->
<g id="Node000011" class="node">
<title>Node11</title>
<g id="a_Node000011"><a xlink:href="../../dd/dbb/classfl_1_1s0x32_a31a89e11ac5715f83a79b40f9a6e50d5.html#a31a89e11ac5715f83a79b40f9a6e50d5" target="_top" xlink:title=" ">
<polygon fill="white" stroke="#666666" points="115.5,-469 6.5,-469 6.5,-450 115.5,-450 115.5,-469"/>
<text text-anchor="middle" x="61" y="-457" font-family="Helvetica,sans-Serif" font-size="10.00">fl::s0x32::operator&#45;</text>
</a>
</g>
</g>
<!-- Node1&#45;&gt;Node11 -->
<g id="edge25_Node000001_Node000011" class="edge">
<title>Node1&#45;&gt;Node11</title>
<g id="a_edge25_Node000001_Node000011"><a xlink:title=" ">
<path fill="none" stroke="#63b8ff" d="M321.12,-413.89C308.08,-417.63 293.5,-421.52 280,-424.5 224.41,-436.76 159.96,-446.58 115.63,-452.66"/>
<polygon fill="#63b8ff" stroke="#63b8ff" points="322.13,-417.25 330.75,-411.09 320.17,-410.52 322.13,-417.25"/>
</a>
</g>
</g>
<!-- Node12 -->
<g id="Node000012" class="node">
<title>Node12</title>
<g id="a_Node000012"><a xlink:href="../../dd/dbb/classfl_1_1s0x32_aa512b2d270571f6115c9a46e0ea60975.html#aa512b2d270571f6115c9a46e0ea60975" target="_top" xlink:title=" ">
<polygon fill="white" stroke="#666666" points="115,-431 7,-431 7,-412 115,-412 115,-431"/>
<text text-anchor="middle" x="61" y="-419" font-family="Helvetica,sans-Serif" font-size="10.00">fl::s0x32::operator/</text>
</a>
</g>
</g>
<!-- Node1&#45;&gt;Node12 -->
<g id="edge26_Node000001_Node000012" class="edge">
<title>Node1&#45;&gt;Node12</title>
<g id="a_edge26_Node000001_Node000012"><a xlink:title=" ">
<path fill="none" stroke="#63b8ff" d="M305.5,-405.24C250.97,-408.88 168.68,-414.38 115.14,-417.95"/>
<polygon fill="#63b8ff" stroke="#63b8ff" points="305.94,-408.72 315.69,-404.56 305.48,-401.73 305.94,-408.72"/>
</a>
</g>
</g>
<!-- Node13 -->
<g id="Node000013" class="node">
<title>Node13</title>
<g id="a_Node000013"><a xlink:href="../../dd/dbb/classfl_1_1s0x32_a935b22c39b44e4ed4cb40a53fffe4cc4.html#a935b22c39b44e4ed4cb40a53fffe4cc4" target="_top" xlink:title=" ">
<polygon fill="white" stroke="#666666" points="115,-393 7,-393 7,-374 115,-374 115,-393"/>
<text text-anchor="middle" x="61" y="-381" font-family="Helvetica,sans-Serif" font-size="10.00">fl::s0x32::operator/</text>
</a>
</g>
</g>
<!-- Node1&#45;&gt;Node13 -->
<g id="edge27_Node000001_Node000013" class="edge">
<title>Node1&#45;&gt;Node13</title>
<g id="a_edge27_Node000001_Node000013"><a xlink:title=" ">
<path fill="none" stroke="#63b8ff" d="M305.5,-398.13C250.97,-394.86 168.68,-389.91 115.14,-386.69"/>
<polygon fill="#63b8ff" stroke="#63b8ff" points="305.49,-401.64 315.69,-398.75 305.91,-394.65 305.49,-401.64"/>
</a>
</g>
</g>
<!-- Node14 -->
<g id="Node000014" class="node">
<title>Node14</title>
<g id="a_Node000014"><a xlink:href="../../dd/dbb/classfl_1_1s0x32_ad04e4da263ba20dfd73650e8e2e69662.html#ad04e4da263ba20dfd73650e8e2e69662" target="_top" xlink:title=" ">
<polygon fill="white" stroke="#666666" points="122,-354 0,-354 0,-335 122,-335 122,-354"/>
<text text-anchor="middle" x="61" y="-342" font-family="Helvetica,sans-Serif" font-size="10.00">fl::s0x32::operator&lt;&lt;</text>
</a>
</g>
</g>
<!-- Node1&#45;&gt;Node14 -->
<g id="edge29_Node000001_Node000014" class="edge">
<title>Node1&#45;&gt;Node14</title>
<g id="a_edge29_Node000001_Node000014"><a xlink:title=" ">
<path fill="none" stroke="#63b8ff" d="M306.75,-389.89C297.82,-388.05 288.66,-386.2 280,-384.5 224.11,-373.55 159.98,-361.89 115.82,-354"/>
<polygon fill="#63b8ff" stroke="#63b8ff" points="306.2,-393.35 316.7,-391.95 307.62,-386.5 306.2,-393.35"/>
</a>
</g>
</g>
<!-- Node15 -->
<g id="Node000015" class="node">
<title>Node15</title>
<g id="a_Node000015"><a xlink:href="../../dd/dbb/classfl_1_1s0x32_a004b639d8a9a014a422b44a655c6f320.html#a004b639d8a9a014a422b44a655c6f320" target="_top" xlink:title=" ">
<polygon fill="white" stroke="#666666" points="122,-317 0,-317 0,-298 122,-298 122,-317"/>
<text text-anchor="middle" x="61" y="-305" font-family="Helvetica,sans-Serif" font-size="10.00">fl::s0x32::operator&gt;&gt;</text>
</a>
</g>
</g>
<!-- Node1&#45;&gt;Node15 -->
<g id="edge34_Node000001_Node000015" class="edge">
<title>Node1&#45;&gt;Node15</title>
<g id="a_edge34_Node000001_Node000015"><a xlink:title=" ">
<path fill="none" stroke="#63b8ff" d="M338.15,-386.7C322.27,-377.19 300.5,-365.22 280,-357.5 228.22,-337.99 166.54,-324.71 122.02,-316.77"/>
<polygon fill="#63b8ff" stroke="#63b8ff" points="336.4,-389.73 346.76,-391.96 340.05,-383.76 336.4,-389.73"/>
</a>
</g>
</g>
<!-- Node16 -->
<g id="Node000016" class="node">
<title>Node16</title>
<g id="a_Node000016"><a xlink:href="../../dd/dbb/classfl_1_1s0x32_a19c23c509cbe968bc2aa24ad8ea9ab67.html#a19c23c509cbe968bc2aa24ad8ea9ab67" target="_top" xlink:title=" ">
<polygon fill="white" stroke="#666666" points="277.5,-278 160.5,-278 160.5,-259 277.5,-259 277.5,-278"/>
<text text-anchor="middle" x="219" y="-266" font-family="Helvetica,sans-Serif" font-size="10.00">fl::s0x32::operator!=</text>
</a>
</g>
</g>
<!-- Node1&#45;&gt;Node16 -->
<g id="edge18_Node000001_Node000016" class="edge">
<title>Node1&#45;&gt;Node16</title>
<g id="a_edge18_Node000001_Node000016"><a xlink:title=" ">
<path fill="none" stroke="#63b8ff" d="M351.84,-382.87C338.58,-358.95 312.64,-317.55 280,-292.5 272.08,-286.42 262.41,-281.67 253.17,-278.05"/>
<polygon fill="#63b8ff" stroke="#63b8ff" points="348.9,-384.81 356.73,-391.95 355.07,-381.49 348.9,-384.81"/>
</a>
</g>
</g>
<!-- Node17 -->
<g id="Node000017" class="node">
<title>Node17</title>
<g id="a_Node000017"><a xlink:href="../../dd/dbb/classfl_1_1s0x32_aec7dfaa87786a7f7f1ca64a44b76d888.html#aec7dfaa87786a7f7f1ca64a44b76d888" target="_top" xlink:title=" ">
<polygon fill="white" stroke="#666666" points="274,-241 164,-241 164,-222 274,-222 274,-241"/>
<text text-anchor="middle" x="219" y="-229" font-family="Helvetica,sans-Serif" font-size="10.00">fl::s0x32::operator*</text>
</a>
</g>
</g>
<!-- Node1&#45;&gt;Node17 -->
<g id="edge20_Node000001_Node000017" class="edge">
<title>Node1&#45;&gt;Node17</title>
<g id="a_edge20_Node000001_Node000017"><a xlink:title=" ">
<path fill="none" stroke="#63b8ff" d="M356.36,-381.98C346.83,-349.62 323.33,-284.9 280,-249.5 275.79,-246.06 270.93,-243.28 265.85,-241.03"/>
<polygon fill="#63b8ff" stroke="#63b8ff" points="353,-382.95 359.07,-391.63 359.74,-381.06 353,-382.95"/>
</a>
</g>
</g>
<!-- Node18 -->
<g id="Node000018" class="node">
<title>Node18</title>
<g id="a_Node000018"><a xlink:href="../../dd/dbb/classfl_1_1s0x32_a9fc511f955aee6ac8e24287ab2f668da.html#a9fc511f955aee6ac8e24287ab2f668da" target="_top" xlink:title=" ">
<polygon fill="white" stroke="#666666" points="274,-204 164,-204 164,-185 274,-185 274,-204"/>
<text text-anchor="middle" x="219" y="-192" font-family="Helvetica,sans-Serif" font-size="10.00">fl::s0x32::operator*</text>
</a>
</g>
</g>
<!-- Node1&#45;&gt;Node18 -->
<g id="edge22_Node000001_Node000018" class="edge">
<title>Node1&#45;&gt;Node18</title>
<g id="a_edge22_Node000001_Node000018"><a xlink:title=" ">
<path fill="none" stroke="#63b8ff" d="M358.57,-381.64C351.85,-343.25 331.73,-258.57 280,-212.5 276.18,-209.1 271.74,-206.34 267.04,-204.11"/>
<polygon fill="#63b8ff" stroke="#63b8ff" points="355.13,-382.27 360.19,-391.58 362.03,-381.15 355.13,-382.27"/>
</a>
</g>
</g>
<!-- Node19 -->
<g id="Node000019" class="node">
<title>Node19</title>
<g id="a_Node000019"><a xlink:href="../../dd/dbb/classfl_1_1s0x32_ad55fb161ea22291978b73c0f7bcccf96.html#ad55fb161ea22291978b73c0f7bcccf96" target="_top" xlink:title=" ">
<polygon fill="white" stroke="#666666" points="275.5,-167 162.5,-167 162.5,-148 275.5,-148 275.5,-167"/>
<text text-anchor="middle" x="219" y="-155" font-family="Helvetica,sans-Serif" font-size="10.00">fl::s0x32::operator&lt;</text>
</a>
</g>
</g>
<!-- Node1&#45;&gt;Node19 -->
<g id="edge28_Node000001_Node000019" class="edge">
<title>Node1&#45;&gt;Node19</title>
<g id="a_edge28_Node000001_Node000019"><a xlink:title=" ">
<path fill="none" stroke="#63b8ff" d="M360.15,-381.5C356.12,-337.69 340.33,-232.62 280,-175.5 276.37,-172.06 272.1,-169.28 267.55,-167.02"/>
<polygon fill="#63b8ff" stroke="#63b8ff" points="356.68,-382.01 360.98,-391.7 363.66,-381.45 356.68,-382.01"/>
</a>
</g>
</g>
<!-- Node20 -->
<g id="Node000020" class="node">
<title>Node20</title>
<g id="a_Node000020"><a xlink:href="../../dd/dbb/classfl_1_1s0x32_a850c27b6754e845056341a5db2051997.html#a850c27b6754e845056341a5db2051997" target="_top" xlink:title=" ">
<polygon fill="white" stroke="#666666" points="280,-130 158,-130 158,-111 280,-111 280,-130"/>
<text text-anchor="middle" x="219" y="-118" font-family="Helvetica,sans-Serif" font-size="10.00">fl::s0x32::operator&lt;=</text>
</a>
</g>
</g>
<!-- Node1&#45;&gt;Node20 -->
<g id="edge30_Node000001_Node000020" class="edge">
<title>Node1&#45;&gt;Node20</title>
<g id="a_edge30_Node000001_Node000020"><a xlink:title=" ">
<path fill="none" stroke="#63b8ff" d="M361.34,-381.62C359.86,-332.99 349.15,-207.03 280,-138.5 276.52,-135.06 272.42,-132.27 268.01,-130.01"/>
<polygon fill="#63b8ff" stroke="#63b8ff" points="357.85,-381.82 361.55,-391.75 364.85,-381.68 357.85,-381.82"/>
</a>
</g>
</g>
<!-- Node21 -->
<g id="Node000021" class="node">
<title>Node21</title>
<g id="a_Node000021"><a xlink:href="../../dd/dbb/classfl_1_1s0x32_a059d78c2794b3425693c1d41d2224474.html#a059d78c2794b3425693c1d41d2224474" target="_top" xlink:title=" ">
<polygon fill="white" stroke="#666666" points="280,-93 158,-93 158,-74 280,-74 280,-93"/>
<text text-anchor="middle" x="219" y="-81" font-family="Helvetica,sans-Serif" font-size="10.00">fl::s0x32::operator==</text>
</a>
</g>
</g>
<!-- Node1&#45;&gt;Node21 -->
<g id="edge31_Node000001_Node000021" class="edge">
<title>Node1&#45;&gt;Node21</title>
<g id="a_edge31_Node000001_Node000021"><a xlink:title=" ">
<path fill="none" stroke="#63b8ff" d="M362.25,-381.75C363.14,-328.69 358.07,-181.64 280,-101.5 276.66,-98.07 272.7,-95.29 268.42,-93.04"/>
<polygon fill="#63b8ff" stroke="#63b8ff" points="358.75,-381.76 361.98,-391.85 365.75,-381.95 358.75,-381.76"/>
</a>
</g>
</g>
<!-- Node22 -->
<g id="Node000022" class="node">
<title>Node22</title>
<g id="a_Node000022"><a xlink:href="../../dd/dbb/classfl_1_1s0x32_a77d79913147ad1b3643fdb4cdf8e6a63.html#a77d79913147ad1b3643fdb4cdf8e6a63" target="_top" xlink:title=" ">
<polygon fill="white" stroke="#666666" points="275.5,-56 162.5,-56 162.5,-37 275.5,-37 275.5,-56"/>
<text text-anchor="middle" x="219" y="-44" font-family="Helvetica,sans-Serif" font-size="10.00">fl::s0x32::operator&gt;</text>
</a>
</g>
</g>
<!-- Node1&#45;&gt;Node22 -->
<g id="edge32_Node000001_Node000022" class="edge">
<title>Node1&#45;&gt;Node22</title>
<g id="a_edge32_Node000001_Node000022"><a xlink:title=" ">
<path fill="none" stroke="#63b8ff" d="M359.28,-381.6C351.64,-316.51 324.42,-111.39 280,-64.5 276.78,-61.1 272.96,-58.34 268.81,-56.1"/>
<polygon fill="#63b8ff" stroke="#63b8ff" points="355.83,-382.21 360.45,-391.75 362.78,-381.41 355.83,-382.21"/>
</a>
</g>
</g>
<!-- Node23 -->
<g id="Node000023" class="node">
<title>Node23</title>
<g id="a_Node000023"><a xlink:href="../../dd/dbb/classfl_1_1s0x32_a24b93b9026cbe4840a8f012b97e5252e.html#a24b93b9026cbe4840a8f012b97e5252e" target="_top" xlink:title=" ">
<polygon fill="white" stroke="#666666" points="280,-19 158,-19 158,0 280,0 280,-19"/>
<text text-anchor="middle" x="219" y="-7" font-family="Helvetica,sans-Serif" font-size="10.00">fl::s0x32::operator&gt;=</text>
</a>
</g>
</g>
<!-- Node1&#45;&gt;Node23 -->
<g id="edge33_Node000001_Node000023" class="edge">
<title>Node1&#45;&gt;Node23</title>
<g id="a_edge33_Node000001_Node000023"><a xlink:title=" ">
<path fill="none" stroke="#63b8ff" d="M359.81,-381.72C353.47,-312.18 328.97,-80.39 280,-27.5 276.82,-24.07 273.02,-21.28 268.89,-19.02"/>
<polygon fill="#63b8ff" stroke="#63b8ff" points="356.33,-382.11 360.7,-391.76 363.3,-381.49 356.33,-382.11"/>
</a>
</g>
</g>
<!-- Node4&#45;&gt;Node3 -->
<g id="edge4_Node000004_Node000003" class="edge">
<title>Node4&#45;&gt;Node3</title>
<g id="a_edge4_Node000004_Node000003"><a xlink:title=" ">
<path fill="none" stroke="#63b8ff" d="M214.23,-554.33C205.47,-595.12 179.87,-688.89 122,-740.5 116.18,-745.69 108.98,-749.54 101.6,-752.39"/>
<polygon fill="#63b8ff" stroke="#63b8ff" points="217.71,-554.81 216.27,-544.31 210.85,-553.42 217.71,-554.81"/>
</a>
</g>
</g>
<!-- Node4&#45;&gt;Node5 -->
<g id="edge5_Node000004_Node000005" class="edge">
<title>Node4&#45;&gt;Node5</title>
<g id="a_edge5_Node000004_Node000005"><a xlink:title=" ">
<path fill="none" stroke="#63b8ff" d="M211.77,-554.14C199.85,-588.64 170.59,-660.27 122,-700.5 116.22,-705.29 109.28,-709.01 102.2,-711.9"/>
<polygon fill="#63b8ff" stroke="#63b8ff" points="215.19,-554.93 215.03,-544.33 208.55,-552.72 215.19,-554.93"/>
</a>
</g>
</g>
<!-- Node4&#45;&gt;Node6 -->
<g id="edge6_Node000004_Node000006" class="edge">
<title>Node4&#45;&gt;Node6</title>
<g id="a_edge6_Node000004_Node000006"><a xlink:title=" ">
<path fill="none" stroke="#63b8ff" d="M207.72,-553.23C192.3,-579.78 160.79,-628.36 122,-657.5 113.93,-663.56 104.11,-668.33 94.78,-671.96"/>
<polygon fill="#63b8ff" stroke="#63b8ff" points="210.94,-554.65 212.83,-544.22 204.85,-551.2 210.94,-554.65"/>
</a>
</g>
</g>
<!-- Node4&#45;&gt;Node7 -->
<g id="edge7_Node000004_Node000007" class="edge">
<title>Node4&#45;&gt;Node7</title>
<g id="a_edge7_Node000004_Node000007"><a xlink:title=" ">
<path fill="none" stroke="#63b8ff" d="M199.98,-550.88C181.37,-567.28 151.02,-592.58 122,-610.5 110.56,-617.57 97.04,-624.02 85.74,-628.95"/>
<polygon fill="#63b8ff" stroke="#63b8ff" points="202.53,-553.3 207.66,-544.03 197.87,-548.07 202.53,-553.3"/>
</a>
</g>
</g>
<!-- Node4&#45;&gt;Node8 -->
<g id="edge8_Node000004_Node000008" class="edge">
<title>Node4&#45;&gt;Node8</title>
<g id="a_edge8_Node000004_Node000008"><a xlink:title=" ">
<path fill="none" stroke="#63b8ff" d="M182.24,-547.57C153.57,-558.04 113.99,-572.51 88.2,-581.93"/>
<polygon fill="#63b8ff" stroke="#63b8ff" points="183.7,-550.76 191.89,-544.04 181.3,-544.19 183.7,-550.76"/>
</a>
</g>
</g>
<!-- Node4&#45;&gt;Node9 -->
<g id="edge9_Node000004_Node000009" class="edge">
<title>Node4&#45;&gt;Node9</title>
<g id="a_edge9_Node000004_Node000009"><a xlink:title=" ">
<path fill="none" stroke="#63b8ff" d="M153.54,-534.91C141.61,-534.99 129.25,-535.07 117.62,-535.14"/>
<polygon fill="#63b8ff" stroke="#63b8ff" points="153.9,-538.41 163.88,-534.85 153.85,-531.41 153.9,-538.41"/>
</a>
</g>
</g>
<!-- Node4&#45;&gt;Node10 -->
<g id="edge10_Node000004_Node000010" class="edge">
<title>Node4&#45;&gt;Node10</title>
<g id="a_edge10_Node000004_Node000010"><a xlink:title=" ">
<path fill="none" stroke="#63b8ff" d="M168.01,-522.64C146.78,-517.61 122.36,-511.82 102.31,-507.06"/>
<polygon fill="#63b8ff" stroke="#63b8ff" points="167.29,-526.07 177.83,-524.97 168.9,-519.26 167.29,-526.07"/>
</a>
</g>
</g>
<!-- Node4&#45;&gt;Node11 -->
<g id="edge11_Node000004_Node000011" class="edge">
<title>Node4&#45;&gt;Node11</title>
<g id="a_edge11_Node000004_Node000011"><a xlink:title=" ">
<path fill="none" stroke="#63b8ff" d="M194.94,-519.55C175.91,-507.64 147.91,-491.1 122,-479.5 113.28,-475.6 103.56,-472.04 94.52,-469.04"/>
<polygon fill="#63b8ff" stroke="#63b8ff" points="193.19,-522.59 203.51,-524.98 196.94,-516.67 193.19,-522.59"/>
</a>
</g>
</g>
<!-- Node4&#45;&gt;Node12 -->
<g id="edge12_Node000004_Node000012" class="edge">
<title>Node4&#45;&gt;Node12</title>
<g id="a_edge12_Node000004_Node000012"><a xlink:title=" ">
<path fill="none" stroke="#63b8ff" d="M204.12,-516.9C186.9,-496.16 155.67,-461.94 122,-441.5 115.05,-437.28 107.11,-433.83 99.33,-431.06"/>
<polygon fill="#63b8ff" stroke="#63b8ff" points="201.58,-519.34 210.61,-524.89 207.02,-514.92 201.58,-519.34"/>
</a>
</g>
</g>
<!-- Node4&#45;&gt;Node13 -->
<g id="edge13_Node000004_Node000013" class="edge">
<title>Node4&#45;&gt;Node13</title>
<g id="a_edge13_Node000004_Node000013"><a xlink:title=" ">
<path fill="none" stroke="#63b8ff" d="M208.89,-515.42C194.39,-487.01 163.39,-433.68 122,-403.5 116.06,-399.17 109.11,-395.73 102.1,-393.02"/>
<polygon fill="#63b8ff" stroke="#63b8ff" points="205.9,-517.27 213.48,-524.68 212.17,-514.16 205.9,-517.27"/>
</a>
</g>
</g>
<!-- Node4&#45;&gt;Node14 -->
<g id="edge14_Node000004_Node000014" class="edge">
<title>Node4&#45;&gt;Node14</title>
<g id="a_edge14_Node000004_Node000014"><a xlink:title=" ">
<path fill="none" stroke="#63b8ff" d="M212.04,-515C200.38,-480.08 171.33,-406.66 122,-365.5 116.24,-360.69 109.3,-356.96 102.23,-354.06"/>
<polygon fill="#63b8ff" stroke="#63b8ff" points="208.82,-516.45 215.21,-524.9 215.49,-514.31 208.82,-516.45"/>
</a>
</g>
</g>
<!-- Node4&#45;&gt;Node15 -->
<g id="edge15_Node000004_Node000015" class="edge">
<title>Node4&#45;&gt;Node15</title>
<g id="a_edge15_Node000004_Node000015"><a xlink:title=" ">
<path fill="none" stroke="#63b8ff" d="M214.62,-515.08C206.42,-473.9 181.61,-377.35 122,-325.5 118.06,-322.07 113.49,-319.3 108.66,-317.05"/>
<polygon fill="#63b8ff" stroke="#63b8ff" points="211.18,-515.75 216.47,-524.93 218.06,-514.46 211.18,-515.75"/>
</a>
</g>
</g>
</g>
</svg>

<g id="navigator" transform="translate(0 0)" fill="#404254">
  <rect fill="#f2f5e9" fill-opacity="0.5" stroke="#606060" stroke-width=".5" x="0" y="0" width="60" height="60"/>
  <use id="zoomplus" xlink:href="#zoomPlus" x="17" y="9" onmousedown="handleZoom(evt,'in')"/>
  <use id="zoomminus" xlink:href="#zoomMin" x="42" y="9" onmousedown="handleZoom(evt,'out')"/>
  <use id="reset" xlink:href="#resetDef" x="30" y="36" onmousedown="handleReset()"/>
   <use id="arrowup" xlink:href="#arrowUp" x="0" y="0" onmousedown="handlePan(0,-1)"/>
  <use id="arrowright" xlink:href="#arrowRight" x="0" y="0" onmousedown="handlePan(1,0)"/>
  <use id="arrowdown" xlink:href="#arrowDown" x="0" y="0" onmousedown="handlePan(0,1)"/>
  <use id="arrowleft" xlink:href="#arrowLeft" x="0" y="0" onmousedown="handlePan(-1,0)"/>
</g>
<svg viewBox="0 0 15 15" width="100%" height="30px" preserveAspectRatio="xMaxYMin meet">
 <g id="arrow_out" transform="scale(0.3 0.3)">
  <a xlink:href="classfl_1_1s0x32_a3fb0078a1c7a1aa7fb72d67fb036d3ed_a3fb0078a1c7a1aa7fb72d67fb036d3ed_icgraph_org.svg" target="_base">
   <rect id="button" ry="5" rx="5" y="6" x="6" height="38" width="38"
        fill="#f2f5e9" fill-opacity="0.5" stroke="#606060" stroke-width="1.0"/>
   <path id="arrow"
     d="M 11.500037,31.436501 C 11.940474,20.09759 22.043105,11.32322 32.158766,21.979434 L 37.068811,17.246167 C 37.068811,17.246167 37.088388,32 37.088388,32 L 22.160133,31.978069 C 22.160133,31.978069 26.997745,27.140456 26.997745,27.140456 C 18.528582,18.264221 13.291696,25.230495 11.500037,31.436501 z"
     style="fill:#404040;"/>
  </a>
 </g>
</svg>

<style type='text/css'>
<![CDATA[
[data-mouse-over-selected='false'] { opacity: 0.7; }
[data-mouse-over-selected='true']  { opacity: 1.0; }
]]>
</style>
<script type="application/ecmascript"><![CDATA[
document.addEventListener('DOMContentLoaded', (event) => {
  highlightEdges();
  highlightAdjacentNodes();
});
]]></script>
</svg>
