<?xml version="1.0" encoding="UTF-8" standalone="no"?>
<!DOCTYPE svg PUBLIC "-//W3C//DTD SVG 1.1//EN"
 "http://www.w3.org/Graphics/SVG/1.1/DTD/svg11.dtd">
<!-- Generated by graphviz version 2.43.0 (0)
 -->
<!-- Title: CFastLED::clear Pages: 1 -->
<svg width="552pt" height="245pt"
 viewBox="0.00 0.00 552.00 245.00" xmlns="http://www.w3.org/2000/svg" xmlns:xlink="http://www.w3.org/1999/xlink">
<g id="graph0" class="graph" transform="scale(1 1) rotate(0) translate(4 241)">
<title>CFastLED::clear</title>
<!-- Node1 -->
<g id="Node000001" class="node">
<title>Node1</title>
<g id="a_Node000001"><a xlink:title="Clear/reset FastLED state based on the provided flags.">
<polygon fill="#999999" stroke="#666666" points="92,-115.5 0,-115.5 0,-96.5 92,-96.5 92,-115.5"/>
<text text-anchor="middle" x="46" y="-103.5" font-family="Helvetica,sans-Serif" font-size="10.00">CFastLED::clear</text>
</a>
</g>
</g>
<!-- Node2 -->
<g id="Node000002" class="node">
<title>Node2</title>
<g id="a_Node000002"><a xlink:href="../../d4/d36/namespacefl_a8aafd1d8ccf1aab536564352dd23d204.html#a8aafd1d8ccf1aab536564352dd23d204" target="_top" xlink:title="Get the global ChannelManager singleton instance.">
<polygon fill="white" stroke="#666666" points="238.5,-191.5 128.5,-191.5 128.5,-172.5 238.5,-172.5 238.5,-191.5"/>
<text text-anchor="middle" x="183.5" y="-179.5" font-family="Helvetica,sans-Serif" font-size="10.00">fl::channelManager</text>
</a>
</g>
</g>
<!-- Node1&#45;&gt;Node2 -->
<g id="edge1_Node000001_Node000002" class="edge">
<title>Node1&#45;&gt;Node2</title>
<g id="a_edge1_Node000001_Node000002"><a xlink:title=" ">
<path fill="none" stroke="#63b8ff" d="M60.37,-115.5C76.11,-126.47 103.27,-144.72 128,-158 134.7,-161.6 142.05,-165.11 149.12,-168.29"/>
<polygon fill="#63b8ff" stroke="#63b8ff" points="147.94,-171.59 158.51,-172.39 150.75,-165.18 147.94,-171.59"/>
</a>
</g>
</g>
<!-- Node9 -->
<g id="Node000009" class="node">
<title>Node9</title>
<g id="a_Node000009"><a xlink:href="../../dd/dbb/class_c_fast_l_e_d_a12da17ab4b0d4daed6ceb429d68ac5cf.html#a12da17ab4b0d4daed6ceb429d68ac5cf" target="_top" xlink:title="stored ChannelPtrs to keep them alive">
<polygon fill="white" stroke="#666666" points="386,-127.5 275,-127.5 275,-108.5 386,-108.5 386,-127.5"/>
<text text-anchor="middle" x="330.5" y="-115.5" font-family="Helvetica,sans-Serif" font-size="10.00">CFastLED::channels</text>
</a>
</g>
</g>
<!-- Node1&#45;&gt;Node9 -->
<g id="edge6_Node000001_Node000009" class="edge">
<title>Node1&#45;&gt;Node9</title>
<g id="a_edge6_Node000001_Node000009"><a xlink:title=" ">
<path fill="none" stroke="#63b8ff" d="M79.8,-115.51C94.42,-119.27 111.93,-123.14 128,-125 173.42,-130.26 224.95,-128.33 264.53,-125.17"/>
<polygon fill="#63b8ff" stroke="#63b8ff" points="264.92,-128.65 274.59,-124.33 264.33,-121.68 264.92,-128.65"/>
</a>
</g>
</g>
<!-- Node10 -->
<g id="Node000010" class="node">
<title>Node10</title>
<g id="a_Node000010"><a xlink:href="../../d2/d6b/classfl_1_1_channel_manager_aa953ad4a44bfc74a4673954f5923aa80.html#aa953ad4a44bfc74a4673954f5923aa80" target="_top" xlink:title="Remove all drivers from the manager.">
<polygon fill="white" stroke="#666666" points="239,-78 128,-78 128,-48 239,-48 239,-78"/>
<text text-anchor="start" x="136" y="-66" font-family="Helvetica,sans-Serif" font-size="10.00">fl::ChannelManager</text>
<text text-anchor="middle" x="183.5" y="-55" font-family="Helvetica,sans-Serif" font-size="10.00">::clearAllDrivers</text>
</a>
</g>
</g>
<!-- Node1&#45;&gt;Node10 -->
<g id="edge7_Node000001_Node000010" class="edge">
<title>Node1&#45;&gt;Node10</title>
<g id="a_edge7_Node000001_Node000010"><a xlink:title=" ">
<path fill="none" stroke="#63b8ff" d="M77.07,-96.46C91.35,-91.93 108.89,-86.36 125.54,-81.07"/>
<polygon fill="#63b8ff" stroke="#63b8ff" points="126.74,-84.37 135.21,-78.01 124.62,-77.7 126.74,-84.37"/>
</a>
</g>
</g>
<!-- Node41 -->
<g id="Node000041" class="node">
<title>Node41</title>
<g id="a_Node000041"><a xlink:href="../../dd/dbb/class_c_fast_l_e_d_a4b9554c79ac12669a804e715ec55f2ef.html#a4b9554c79ac12669a804e715ec55f2ef" target="_top" xlink:title="Remove a channel from the LED controller list.">
<polygon fill="white" stroke="#666666" points="236,-115.5 131,-115.5 131,-96.5 236,-96.5 236,-115.5"/>
<text text-anchor="middle" x="183.5" y="-103.5" font-family="Helvetica,sans-Serif" font-size="10.00">CFastLED::remove</text>
</a>
</g>
</g>
<!-- Node1&#45;&gt;Node41 -->
<g id="edge11_Node000001_Node000041" class="edge">
<title>Node1&#45;&gt;Node41</title>
<g id="a_edge11_Node000001_Node000041"><a xlink:title=" ">
<path fill="none" stroke="#63b8ff" d="M92.12,-106C101.17,-106 110.82,-106 120.33,-106"/>
<polygon fill="#63b8ff" stroke="#63b8ff" points="120.55,-109.5 130.55,-106 120.55,-102.5 120.55,-109.5"/>
</a>
</g>
</g>
<!-- Node42 -->
<g id="Node000042" class="node">
<title>Node42</title>
<g id="a_Node000042"><a xlink:href="../../d2/d6b/classfl_1_1_channel_manager_a77d76b8525c19a43c545d9ca590bab32.html#a77d76b8525c19a43c545d9ca590bab32" target="_top" xlink:title="Reset bus manager state, clearing all enqueued and transmitting channels.">
<polygon fill="white" stroke="#666666" points="239,-30 128,-30 128,0 239,0 239,-30"/>
<text text-anchor="start" x="136" y="-18" font-family="Helvetica,sans-Serif" font-size="10.00">fl::ChannelManager</text>
<text text-anchor="middle" x="183.5" y="-7" font-family="Helvetica,sans-Serif" font-size="10.00">::reset</text>
</a>
</g>
</g>
<!-- Node1&#45;&gt;Node42 -->
<g id="edge13_Node000001_Node000042" class="edge">
<title>Node1&#45;&gt;Node42</title>
<g id="a_edge13_Node000001_Node000042"><a xlink:title=" ">
<path fill="none" stroke="#63b8ff" d="M56.79,-96.35C71.36,-82.37 100.05,-56.25 128,-39 130.43,-37.5 132.98,-36.04 135.58,-34.64"/>
<polygon fill="#63b8ff" stroke="#63b8ff" points="137.24,-37.72 144.57,-30.07 134.07,-31.48 137.24,-37.72"/>
</a>
</g>
</g>
<!-- Node3 -->
<g id="Node000003" class="node">
<title>Node3</title>
<g id="a_Node000003"><a xlink:href="../../d2/d6b/classfl_1_1_channel_manager_aed1be386f6b38cabd478d1d9c11c240c.html#aed1be386f6b38cabd478d1d9c11c240c" target="_top" xlink:title="Get the global singleton instance.">
<polygon fill="white" stroke="#666666" points="386,-197 275,-197 275,-167 386,-167 386,-197"/>
<text text-anchor="start" x="283" y="-185" font-family="Helvetica,sans-Serif" font-size="10.00">fl::ChannelManager</text>
<text text-anchor="middle" x="330.5" y="-174" font-family="Helvetica,sans-Serif" font-size="10.00">::instance</text>
</a>
</g>
</g>
<!-- Node2&#45;&gt;Node3 -->
<g id="edge2_Node000002_Node000003" class="edge">
<title>Node2&#45;&gt;Node3</title>
<g id="a_edge2_Node000002_Node000003"><a xlink:title=" ">
<path fill="none" stroke="#63b8ff" d="M238.91,-182C247.34,-182 256.12,-182 264.75,-182"/>
<polygon fill="#63b8ff" stroke="#63b8ff" points="264.79,-185.5 274.79,-182 264.79,-178.5 264.79,-185.5"/>
</a>
</g>
</g>
<!-- Node4 -->
<g id="Node000004" class="node">
<title>Node4</title>
<g id="a_Node000004"><a xlink:href="../../d2/d6b/classfl_1_1_channel_manager_addc4b631522a2d44151c6b7c23a26ca1.html#addc4b631522a2d44151c6b7c23a26ca1" target="_top" xlink:title="Constructor.">
<polygon fill="#fff0f0" stroke="red" points="538.5,-219 427.5,-219 427.5,-189 538.5,-189 538.5,-219"/>
<text text-anchor="start" x="435.5" y="-207" font-family="Helvetica,sans-Serif" font-size="10.00">fl::ChannelManager</text>
<text text-anchor="middle" x="483" y="-196" font-family="Helvetica,sans-Serif" font-size="10.00">::ChannelManager</text>
</a>
</g>
</g>
<!-- Node3&#45;&gt;Node4 -->
<g id="edge3_Node000003_Node000004" class="edge">
<title>Node3&#45;&gt;Node4</title>
<g id="a_edge3_Node000003_Node000004"><a xlink:title=" ">
<path fill="none" stroke="#63b8ff" d="M386.26,-190C396.28,-191.47 406.83,-193.01 417.11,-194.51"/>
<polygon fill="#63b8ff" stroke="#63b8ff" points="416.88,-198.02 427.28,-196 417.89,-191.09 416.88,-198.02"/>
</a>
</g>
</g>
<!-- Node8 -->
<g id="Node000008" class="node">
<title>Node8</title>
<g id="a_Node000008"><a xlink:href="../../d9/d5b/classfl_1_1_singleton_a47fdc044003ec27f9e9833f7f5418e01.html#a47fdc044003ec27f9e9833f7f5418e01" target="_top" xlink:title=" ">
<polygon fill="white" stroke="#666666" points="544,-170.5 422,-170.5 422,-151.5 544,-151.5 544,-170.5"/>
<text text-anchor="middle" x="483" y="-158.5" font-family="Helvetica,sans-Serif" font-size="10.00">fl::Singleton::instance</text>
</a>
</g>
</g>
<!-- Node3&#45;&gt;Node8 -->
<g id="edge5_Node000003_Node000008" class="edge">
<title>Node3&#45;&gt;Node8</title>
<g id="a_edge5_Node000003_Node000008"><a xlink:title=" ">
<path fill="none" stroke="#63b8ff" d="M386.26,-174.36C394.6,-173.2 403.3,-171.98 411.9,-170.78"/>
<polygon fill="#63b8ff" stroke="#63b8ff" points="412.52,-174.23 421.94,-169.38 411.55,-167.3 412.52,-174.23"/>
</a>
</g>
</g>
<!-- Node4&#45;&gt;Node4 -->
<g id="edge4_Node000004_Node000004" class="edge">
<title>Node4&#45;&gt;Node4</title>
<g id="a_edge4_Node000004_Node000004"><a xlink:title=" ">
<path fill="none" stroke="#63b8ff" d="M456.28,-219.28C450.34,-228.41 459.25,-237 483,-237 497.1,-237 505.97,-233.97 509.61,-229.6"/>
<polygon fill="#63b8ff" stroke="#63b8ff" points="513.11,-229.31 509.72,-219.28 506.11,-229.24 513.11,-229.31"/>
</a>
</g>
</g>
<!-- Node11 -->
<g id="Node000011" class="node">
<title>Node11</title>
<g id="a_Node000011"><a xlink:href="../../d2/d6b/classfl_1_1_channel_manager_aa50d7236c4ba7748aa21d88de539b1b9.html#aa50d7236c4ba7748aa21d88de539b1b9" target="_top" xlink:title="Wait for all drivers to become READY.">
<polygon fill="white" stroke="#666666" points="386,-66 275,-66 275,-36 386,-36 386,-66"/>
<text text-anchor="start" x="283" y="-54" font-family="Helvetica,sans-Serif" font-size="10.00">fl::ChannelManager</text>
<text text-anchor="middle" x="330.5" y="-43" font-family="Helvetica,sans-Serif" font-size="10.00">::waitForReady</text>
</a>
</g>
</g>
<!-- Node10&#45;&gt;Node11 -->
<g id="edge8_Node000010_Node000011" class="edge">
<title>Node10&#45;&gt;Node11</title>
<g id="a_edge8_Node000010_Node000011"><a xlink:title=" ">
<path fill="none" stroke="#63b8ff" d="M239.32,-58.46C247.53,-57.78 256.06,-57.08 264.46,-56.38"/>
<polygon fill="#63b8ff" stroke="#63b8ff" points="264.93,-59.86 274.6,-55.54 264.35,-52.88 264.93,-59.86"/>
</a>
</g>
</g>
<!-- Node12 -->
<g id="Node000012" class="node">
<title>Node12</title>
<g id="a_Node000012"><a xlink:href="../../d2/d6b/classfl_1_1_channel_manager_ab21158514e7fe94d3d3805e1065e7417.html#ab21158514e7fe94d3d3805e1065e7417" target="_top" xlink:title="Poll all registered drivers and return aggregate state.">
<polygon fill="#fff0f0" stroke="red" points="538.5,-90 427.5,-90 427.5,-60 538.5,-60 538.5,-90"/>
<text text-anchor="start" x="435.5" y="-78" font-family="Helvetica,sans-Serif" font-size="10.00">fl::ChannelManager</text>
<text text-anchor="middle" x="483" y="-67" font-family="Helvetica,sans-Serif" font-size="10.00">::poll</text>
</a>
</g>
</g>
<!-- Node11&#45;&gt;Node12 -->
<g id="edge9_Node000011_Node000012" class="edge">
<title>Node11&#45;&gt;Node12</title>
<g id="a_edge9_Node000011_Node000012"><a xlink:title=" ">
<path fill="none" stroke="#63b8ff" d="M386.26,-59.73C396.28,-61.33 406.83,-63.01 417.11,-64.65"/>
<polygon fill="#63b8ff" stroke="#63b8ff" points="416.85,-68.16 427.28,-66.27 417.96,-61.24 416.85,-68.16"/>
</a>
</g>
</g>
<!-- Node14 -->
<g id="Node000014" class="node">
<title>Node14</title>
<g id="a_Node000014"><a xlink:href="../../d2/d6b/classfl_1_1_channel_manager_adc62325e449dbe69df3b351071f50821.html#adc62325e449dbe69df3b351071f50821" target="_top" xlink:title="Wait until a condition is met, with check&#45;pump&#45;delay logic.">
<polygon fill="#fff0f0" stroke="red" points="538.5,-42 427.5,-42 427.5,-12 538.5,-12 538.5,-42"/>
<text text-anchor="start" x="435.5" y="-30" font-family="Helvetica,sans-Serif" font-size="10.00">fl::ChannelManager</text>
<text text-anchor="middle" x="483" y="-19" font-family="Helvetica,sans-Serif" font-size="10.00">::waitForCondition</text>
</a>
</g>
</g>
<!-- Node11&#45;&gt;Node14 -->
<g id="edge10_Node000011_Node000014" class="edge">
<title>Node11&#45;&gt;Node14</title>
<g id="a_edge10_Node000011_Node000014"><a xlink:title=" ">
<path fill="none" stroke="#63b8ff" d="M386.26,-42.27C396.28,-40.67 406.83,-38.99 417.11,-37.35"/>
<polygon fill="#63b8ff" stroke="#63b8ff" points="417.96,-40.76 427.28,-35.73 416.85,-33.84 417.96,-40.76"/>
</a>
</g>
</g>
<!-- Node41&#45;&gt;Node9 -->
<g id="edge12_Node000041_Node000009" class="edge">
<title>Node41&#45;&gt;Node9</title>
<g id="a_edge12_Node000041_Node000009"><a xlink:title=" ">
<path fill="none" stroke="#63b8ff" d="M236.03,-110.26C245.24,-111.03 254.94,-111.83 264.46,-112.62"/>
<polygon fill="#63b8ff" stroke="#63b8ff" points="264.44,-116.13 274.7,-113.46 265.02,-109.15 264.44,-116.13"/>
</a>
</g>
</g>
<!-- Node42&#45;&gt;Node11 -->
<g id="edge14_Node000042_Node000011" class="edge">
<title>Node42&#45;&gt;Node11</title>
<g id="a_edge14_Node000042_Node000011"><a xlink:title=" ">
<path fill="none" stroke="#63b8ff" d="M239.32,-28.61C247.62,-30.67 256.25,-32.81 264.74,-34.92"/>
<polygon fill="#63b8ff" stroke="#63b8ff" points="264.06,-38.36 274.6,-37.37 265.74,-31.56 264.06,-38.36"/>
</a>
</g>
</g>
</g>
</svg>
