<?xml version="1.0" encoding="UTF-8" standalone="no"?>
<!DOCTYPE svg PUBLIC "-//W3C//DTD SVG 1.1//EN"
 "http://www.w3.org/Graphics/SVG/1.1/DTD/svg11.dtd">
<!-- Generated by graphviz version 2.43.0 (0)
 -->
<!-- Title: CFastLED::setTemperature Pages: 1 -->
<svg width="567pt" height="101pt"
 viewBox="0.00 0.00 567.00 101.00" xmlns="http://www.w3.org/2000/svg" xmlns:xlink="http://www.w3.org/1999/xlink">
<g id="graph0" class="graph" transform="scale(1 1) rotate(0) translate(4 97)">
<title>CFastLED::setTemperature</title>
<!-- Node1 -->
<g id="Node000001" class="node">
<title>Node1</title>
<g id="a_Node000001"><a xlink:title="Set a global color temperature.">
<polygon fill="#999999" stroke="#666666" points="144,-56 0,-56 0,-37 144,-37 144,-56"/>
<text text-anchor="middle" x="72" y="-44" font-family="Helvetica,sans-Serif" font-size="10.00">CFastLED::setTemperature</text>
</a>
</g>
</g>
<!-- Node2 -->
<g id="Node000002" class="node">
<title>Node2</title>
<g id="a_Node000002"><a xlink:href="../../d6/d2c/class_c_l_e_d_controller_a8b412ff1fd4833d0db63a175d40a2ee0.html#a8b412ff1fd4833d0db63a175d40a2ee0" target="_top" xlink:title="Get the first LED controller in the linked list of controllers.">
<polygon fill="white" stroke="#666666" points="326.5,-93 206.5,-93 206.5,-74 326.5,-74 326.5,-93"/>
<text text-anchor="middle" x="266.5" y="-81" font-family="Helvetica,sans-Serif" font-size="10.00">CLEDController::head</text>
</a>
</g>
</g>
<!-- Node1&#45;&gt;Node2 -->
<g id="edge1_Node000001_Node000002" class="edge">
<title>Node1&#45;&gt;Node2</title>
<g id="a_edge1_Node000001_Node000002"><a xlink:title=" ">
<path fill="none" stroke="#63b8ff" d="M122.57,-56.03C147.96,-60.91 179.06,-66.89 205.76,-72.02"/>
<polygon fill="#63b8ff" stroke="#63b8ff" points="205.28,-75.49 215.76,-73.94 206.6,-68.61 205.28,-75.49"/>
</a>
</g>
</g>
<!-- Node4 -->
<g id="Node000004" class="node">
<title>Node4</title>
<g id="a_Node000004"><a xlink:href="../../d6/d2c/class_c_l_e_d_controller_a21a4d2b3415dd7b24175ebdb51c9ced0.html#a21a4d2b3415dd7b24175ebdb51c9ced0" target="_top" xlink:title="Get the next controller in the linked list after this one.">
<polygon fill="white" stroke="#666666" points="325.5,-56 207.5,-56 207.5,-37 325.5,-37 325.5,-56"/>
<text text-anchor="middle" x="266.5" y="-44" font-family="Helvetica,sans-Serif" font-size="10.00">CLEDController::next</text>
</a>
</g>
</g>
<!-- Node1&#45;&gt;Node4 -->
<g id="edge3_Node000001_Node000004" class="edge">
<title>Node1&#45;&gt;Node4</title>
<g id="a_edge3_Node000001_Node000004"><a xlink:title=" ">
<path fill="none" stroke="#63b8ff" d="M144.13,-46.5C161.34,-46.5 179.7,-46.5 196.79,-46.5"/>
<polygon fill="#63b8ff" stroke="#63b8ff" points="197.25,-50 207.25,-46.5 197.25,-43 197.25,-50"/>
</a>
</g>
</g>
<!-- Node5 -->
<g id="Node000005" class="node">
<title>Node5</title>
<g id="a_Node000005"><a xlink:href="../../d6/d2c/class_c_l_e_d_controller_aa400d68e05557c5e7d254b0d9080ab5f.html#aa400d68e05557c5e7d254b0d9080ab5f" target="_top" xlink:title="Set the color temperature, aka white point, for this controller.">
<polygon fill="white" stroke="#666666" points="353,-19 180,-19 180,0 353,0 353,-19"/>
<text text-anchor="middle" x="266.5" y="-7" font-family="Helvetica,sans-Serif" font-size="10.00">CLEDController::setTemperature</text>
</a>
</g>
</g>
<!-- Node1&#45;&gt;Node5 -->
<g id="edge5_Node000001_Node000005" class="edge">
<title>Node1&#45;&gt;Node5</title>
<g id="a_edge5_Node000001_Node000005"><a xlink:title=" ">
<path fill="none" stroke="#63b8ff" d="M122.57,-36.97C147.96,-32.09 179.06,-26.11 205.76,-20.98"/>
<polygon fill="#63b8ff" stroke="#63b8ff" points="206.6,-24.39 215.76,-19.06 205.28,-17.51 206.6,-24.39"/>
</a>
</g>
</g>
<!-- Node3 -->
<g id="Node000003" class="node">
<title>Node3</title>
<g id="a_Node000003"><a xlink:href="../../d6/d2c/class_c_l_e_d_controller_a8c560c6d171f117dfd19c0f2ec780a32.html#a8c560c6d171f117dfd19c0f2ec780a32" target="_top" xlink:title="Create an led controller object, add it to the chain of controllers.">
<polygon fill="white" stroke="#666666" points="559,-56 389,-56 389,-37 559,-37 559,-56"/>
<text text-anchor="middle" x="474" y="-44" font-family="Helvetica,sans-Serif" font-size="10.00">CLEDController::CLEDController</text>
</a>
</g>
</g>
<!-- Node2&#45;&gt;Node3 -->
<g id="edge2_Node000002_Node000003" class="edge">
<title>Node2&#45;&gt;Node3</title>
<g id="a_edge2_Node000002_Node000003"><a xlink:title=" ">
<path fill="none" stroke="#63b8ff" d="M320.42,-73.97C347.76,-69.05 381.31,-63.01 409.98,-57.85"/>
<polygon fill="#63b8ff" stroke="#63b8ff" points="410.68,-61.28 419.9,-56.06 409.44,-54.39 410.68,-61.28"/>
</a>
</g>
</g>
<!-- Node4&#45;&gt;Node3 -->
<g id="edge4_Node000004_Node000003" class="edge">
<title>Node4&#45;&gt;Node3</title>
<g id="a_edge4_Node000004_Node000003"><a xlink:title=" ">
<path fill="none" stroke="#63b8ff" d="M325.56,-46.5C342.09,-46.5 360.53,-46.5 378.62,-46.5"/>
<polygon fill="#63b8ff" stroke="#63b8ff" points="378.62,-50 388.62,-46.5 378.62,-43 378.62,-50"/>
</a>
</g>
</g>
<!-- Node5&#45;&gt;Node3 -->
<g id="edge6_Node000005_Node000003" class="edge">
<title>Node5&#45;&gt;Node3</title>
<g id="a_edge6_Node000005_Node000003"><a xlink:title=" ">
<path fill="none" stroke="#63b8ff" d="M320.42,-19.03C347.76,-23.95 381.31,-29.99 409.98,-35.15"/>
<polygon fill="#63b8ff" stroke="#63b8ff" points="409.44,-38.61 419.9,-36.94 410.68,-31.72 409.44,-38.61"/>
</a>
</g>
</g>
</g>
</svg>
