<?xml version="1.0" encoding="UTF-8" standalone="no"?>
<!DOCTYPE svg PUBLIC "-//W3C//DTD SVG 1.1//EN"
 "http://www.w3.org/Graphics/SVG/1.1/DTD/svg11.dtd">
<!-- Generated by graphviz version 2.43.0 (0)
 -->
<!-- Title: fl::blurRows Pages: 1 -->
<svg width="320pt" height="27pt"
 viewBox="0.00 0.00 320.00 27.00" xmlns="http://www.w3.org/2000/svg" xmlns:xlink="http://www.w3.org/1999/xlink">
<g id="graph0" class="graph" transform="scale(1 1) rotate(0) translate(4 23)">
<title>fl::blurRows</title>
<!-- Node1 -->
<g id="Node000001" class="node">
<title>Node1</title>
<g id="a_Node000001"><a xlink:title="Perform a blur1d() on every row of a rectangular matrix.">
<polygon fill="#999999" stroke="#666666" points="74,-19 0,-19 0,0 74,0 74,-19"/>
<text text-anchor="middle" x="37" y="-7" font-family="Helvetica,sans-Serif" font-size="10.00">fl::blurRows</text>
</a>
</g>
</g>
<!-- Node2 -->
<g id="Node000002" class="node">
<title>Node2</title>
<g id="a_Node000002"><a xlink:href="../../d7/d82/struct_c_r_g_b_a271bc2ba8b57b41d0c1cda3eed0eb8da.html#a271bc2ba8b57b41d0c1cda3eed0eb8da" target="_top" xlink:title="Scale down a RGB to N/256ths of its current brightness, using &quot;plain math&quot; dimming rules.">
<polygon fill="white" stroke="#666666" points="198,-19 110,-19 110,0 198,0 198,-19"/>
<text text-anchor="middle" x="154" y="-7" font-family="Helvetica,sans-Serif" font-size="10.00">CRGB::nscale8</text>
</a>
</g>
</g>
<!-- Node1&#45;&gt;Node2 -->
<g id="edge1_Node000001_Node000002" class="edge">
<title>Node1&#45;&gt;Node2</title>
<g id="a_edge1_Node000001_Node000002"><a xlink:title=" ">
<path fill="none" stroke="#63b8ff" d="M74.07,-9.5C82.21,-9.5 91.03,-9.5 99.71,-9.5"/>
<polygon fill="#63b8ff" stroke="#63b8ff" points="99.8,-13 109.8,-9.5 99.8,-6 99.8,-13"/>
</a>
</g>
</g>
<!-- Node3 -->
<g id="Node000003" class="node">
<title>Node3</title>
<g id="a_Node000003"><a xlink:href="../../d7/d82/struct_c_r_g_b_a4b0cc1cfefd9e0c66ea5c6583181df46.html#a4b0cc1cfefd9e0c66ea5c6583181df46" target="_top" xlink:title="Default constructor.">
<polygon fill="white" stroke="#666666" points="312,-19 234,-19 234,0 312,0 312,-19"/>
<text text-anchor="middle" x="273" y="-7" font-family="Helvetica,sans-Serif" font-size="10.00">CRGB::CRGB</text>
</a>
</g>
</g>
<!-- Node2&#45;&gt;Node3 -->
<g id="edge2_Node000002_Node000003" class="edge">
<title>Node2&#45;&gt;Node3</title>
<g id="a_edge2_Node000002_Node000003"><a xlink:title=" ">
<path fill="none" stroke="#63b8ff" d="M198.23,-9.5C206.56,-9.5 215.34,-9.5 223.81,-9.5"/>
<polygon fill="#63b8ff" stroke="#63b8ff" points="223.96,-13 233.96,-9.5 223.96,-6 223.96,-13"/>
</a>
</g>
</g>
</g>
</svg>
