<?xml version="1.0" encoding="UTF-8" standalone="no"?>
<!DOCTYPE svg PUBLIC "-//W3C//DTD SVG 1.1//EN"
 "http://www.w3.org/Graphics/SVG/1.1/DTD/svg11.dtd">
<!-- Generated by graphviz version 2.43.0 (0)
 -->
<!-- Title: fl::gfx::blur2d Pages: 1 -->
<svg width="479pt" height="105pt"
 viewBox="0.00 0.00 479.00 105.00" xmlns="http://www.w3.org/2000/svg" xmlns:xlink="http://www.w3.org/1999/xlink">
<g id="graph0" class="graph" transform="scale(1 1) rotate(0) translate(4 101)">
<title>fl::gfx::blur2d</title>
<!-- Node1 -->
<g id="Node000001" class="node">
<title>Node1</title>
<g id="a_Node000001"><a xlink:title="Legacy version of blur2d, which does not require an XYMap but instead implicitly binds to XY() functi...">
<polygon fill="#999999" stroke="#666666" points="81,-40 0,-40 0,-21 81,-21 81,-40"/>
<text text-anchor="middle" x="40.5" y="-28" font-family="Helvetica,sans-Serif" font-size="10.00">fl::gfx::blur2d</text>
</a>
</g>
</g>
<!-- Node2 -->
<g id="Node000002" class="node">
<title>Node2</title>
<g id="a_Node000002"><a xlink:href="../../d0/dce/classfl_1_1_x_y_map_a10771bee8cb11b0757e3f03cb3870196.html#a10771bee8cb11b0757e3f03cb3870196" target="_top" xlink:title=" ">
<polygon fill="white" stroke="#666666" points="253,-67.5 117,-67.5 117,-37.5 253,-37.5 253,-67.5"/>
<text text-anchor="start" x="125" y="-55.5" font-family="Helvetica,sans-Serif" font-size="10.00">fl::XYMap::constructWith</text>
<text text-anchor="middle" x="185" y="-44.5" font-family="Helvetica,sans-Serif" font-size="10.00">UserFunction</text>
</a>
</g>
</g>
<!-- Node1&#45;&gt;Node2 -->
<g id="edge1_Node000001_Node000002" class="edge">
<title>Node1&#45;&gt;Node2</title>
<g id="a_edge1_Node000001_Node000002"><a xlink:title=" ">
<path fill="none" stroke="#63b8ff" d="M81.19,-36.63C89.27,-37.88 98.03,-39.23 106.91,-40.6"/>
<polygon fill="#63b8ff" stroke="#63b8ff" points="106.53,-44.08 116.95,-42.15 107.6,-37.16 106.53,-44.08"/>
</a>
</g>
</g>
<!-- Node5 -->
<g id="Node000005" class="node">
<title>Node5</title>
<g id="a_Node000005"><a xlink:href="../../da/dd6/structfl_1_1_c_r_g_b_aa272170bea8120f101f27ebd2c323b55.html#aa272170bea8120f101f27ebd2c323b55" target="_top" xlink:title="Scale down a RGB to N/256ths of its current brightness, using &quot;plain math&quot; dimming rules.">
<polygon fill="white" stroke="#666666" points="235,-19 135,-19 135,0 235,0 235,-19"/>
<text text-anchor="middle" x="185" y="-7" font-family="Helvetica,sans-Serif" font-size="10.00">fl::CRGB::nscale8</text>
</a>
</g>
</g>
<!-- Node1&#45;&gt;Node5 -->
<g id="edge5_Node000001_Node000005" class="edge">
<title>Node1&#45;&gt;Node5</title>
<g id="a_edge5_Node000001_Node000005"><a xlink:title=" ">
<path fill="none" stroke="#63b8ff" d="M81.19,-24.65C94.71,-22.66 110.13,-20.39 124.83,-18.22"/>
<polygon fill="#63b8ff" stroke="#63b8ff" points="125.49,-21.66 134.87,-16.74 124.47,-14.74 125.49,-21.66"/>
</a>
</g>
</g>
<!-- Node3 -->
<g id="Node000003" class="node">
<title>Node3</title>
<g id="a_Node000003"><a xlink:href="../../d0/dce/classfl_1_1_x_y_map_afcc485be5a44a487d265eb6af9f89a40.html#afcc485be5a44a487d265eb6af9f89a40" target="_top" xlink:title=" ">
<polygon fill="white" stroke="#666666" points="391,-97 289,-97 289,-78 391,-78 391,-97"/>
<text text-anchor="middle" x="340" y="-85" font-family="Helvetica,sans-Serif" font-size="10.00">fl::XYMap::XYMap</text>
</a>
</g>
</g>
<!-- Node2&#45;&gt;Node3 -->
<g id="edge2_Node000002_Node000003" class="edge">
<title>Node2&#45;&gt;Node3</title>
<g id="a_edge2_Node000002_Node000003"><a xlink:title=" ">
<path fill="none" stroke="#63b8ff" d="M251.77,-67.55C263.68,-70.27 275.93,-73.07 287.36,-75.69"/>
<polygon fill="#63b8ff" stroke="#63b8ff" points="286.63,-79.11 297.15,-77.93 288.19,-72.29 286.63,-79.11"/>
</a>
</g>
</g>
<!-- Node4 -->
<g id="Node000004" class="node">
<title>Node4</title>
<g id="a_Node000004"><a xlink:href="../../d6/daf/direct_8h_ae2738c620ee3ab857c9656b3bf86a24d.html#ae2738c620ee3ab857c9656b3bf86a24d" target="_top" xlink:title=" ">
<polygon fill="white" stroke="#666666" points="471,-78 427,-78 427,-59 471,-59 471,-78"/>
<text text-anchor="middle" x="449" y="-66" font-family="Helvetica,sans-Serif" font-size="10.00">offset</text>
</a>
</g>
</g>
<!-- Node2&#45;&gt;Node4 -->
<g id="edge4_Node000002_Node000004" class="edge">
<title>Node2&#45;&gt;Node4</title>
<g id="a_edge4_Node000002_Node000004"><a xlink:title=" ">
<path fill="none" stroke="#63b8ff" d="M253.13,-56.6C305.74,-59.81 376.55,-64.14 416.72,-66.59"/>
<polygon fill="#63b8ff" stroke="#63b8ff" points="416.53,-70.08 426.72,-67.2 416.95,-63.1 416.53,-70.08"/>
</a>
</g>
</g>
<!-- Node3&#45;&gt;Node4 -->
<g id="edge3_Node000003_Node000004" class="edge">
<title>Node3&#45;&gt;Node4</title>
<g id="a_edge3_Node000003_Node000004"><a xlink:title=" ">
<path fill="none" stroke="#63b8ff" d="M391.05,-78.61C399.83,-77.05 408.73,-75.47 416.8,-74.04"/>
<polygon fill="#63b8ff" stroke="#63b8ff" points="417.62,-77.45 426.86,-72.25 416.4,-70.56 417.62,-77.45"/>
</a>
</g>
</g>
<!-- Node6 -->
<g id="Node000006" class="node">
<title>Node6</title>
<g id="a_Node000006"><a xlink:href="../../da/dd6/structfl_1_1_c_r_g_b_adb891cc4fe8f5ac2188d72c13c0256fd.html#adb891cc4fe8f5ac2188d72c13c0256fd" target="_top" xlink:title="Default constructor.">
<polygon fill="white" stroke="#666666" points="385,-19 295,-19 295,0 385,0 385,-19"/>
<text text-anchor="middle" x="340" y="-7" font-family="Helvetica,sans-Serif" font-size="10.00">fl::CRGB::CRGB</text>
</a>
</g>
</g>
<!-- Node5&#45;&gt;Node6 -->
<g id="edge6_Node000005_Node000006" class="edge">
<title>Node5&#45;&gt;Node6</title>
<g id="a_edge6_Node000005_Node000006"><a xlink:title=" ">
<path fill="none" stroke="#63b8ff" d="M235.25,-9.5C250.95,-9.5 268.4,-9.5 284.45,-9.5"/>
<polygon fill="#63b8ff" stroke="#63b8ff" points="284.75,-13 294.75,-9.5 284.75,-6 284.75,-13"/>
</a>
</g>
</g>
</g>
</svg>
