<?xml version="1.0" encoding="UTF-8" standalone="no"?>
<!DOCTYPE svg PUBLIC "-//W3C//DTD SVG 1.1//EN"
 "http://www.w3.org/Graphics/SVG/1.1/DTD/svg11.dtd">
<!-- Generated by graphviz version 2.43.0 (0)
 -->
<!-- Title: fl/scoped_ptr.h Pages: 1 -->
<!--zoomable 302 -->

<svg id="main" version="1.1" xmlns="http://www.w3.org/2000/svg" xmlns:xlink="http://www.w3.org/1999/xlink" xml:space="preserve" onload="init(evt)">

<style type="text/css"><![CDATA[
.node, .edge {opacity: 0.7;}
.node.selected, .edge.selected {opacity: 1;}
.edge:hover path { stroke: red; }
.edge:hover polygon { stroke: red; fill: red; }
]]></style>

<defs>
  <circle id="rim" cx="0" cy="0" r="7"/>
  <circle id="rim2" cx="0" cy="0" r="3.5"/>
  <g id="zoomPlus">
    <use xlink:href="#rim" fill="#404040"><set attributeName="fill" to="#808080" begin="zoomplus.mouseover" end="zoomplus.mouseout"/></use>
    <path d="M-4,0h8M0,-4v8" fill="none" stroke="white" stroke-width="1.5" pointer-events="none"/>
  </g>
  <g id="zoomMin">
    <use xlink:href="#rim" fill="#404040"><set attributeName="fill" to="#808080" begin="zoomminus.mouseover" end="zoomminus.mouseout"/></use>
    <path d="M-4,0h8" fill="none" stroke="white" stroke-width="1.5" pointer-events="none"/>
  </g>
  <g id="arrowUp" transform="translate(30 24)">
    <use xlink:href="#rim"/>
    <path pointer-events="none" fill="none" stroke="white" stroke-width="1.5" d="M0,-3.0v7 M-2.5,-0.5L0,-3.0L2.5,-0.5"/>
  </g>
  <g id="arrowRight" transform="rotate(90) translate(36 -43)">
    <use xlink:href="#rim"/>
    <path pointer-events="none" fill="none" stroke="white" stroke-width="1.5" d="M0,-3.0v7 M-2.5,-0.5L0,-3.0L2.5,-0.5"/>
  </g>
  <g id="arrowDown" transform="rotate(180) translate(-30 -48)">
    <use xlink:href="#rim"/>
    <path pointer-events="none" fill="none" stroke="white" stroke-width="1.5" d="M0,-3.0v7 M-2.5,-0.5L0,-3.0L2.5,-0.5"/>
  </g>
  <g id="arrowLeft" transform="rotate(270) translate(-36 17)">
    <use xlink:href="#rim"/>
    <path pointer-events="none" fill="none" stroke="white" stroke-width="1.5" d="M0,-3.0v7 M-2.5,-0.5L0,-3.0L2.5,-0.5"/>
  </g>
  <g id="resetDef">
    <use xlink:href="#rim2" fill="#404040"><set attributeName="fill" to="#808080" begin="reset.mouseover" end="reset.mouseout"/></use>
  </g>
</defs>
<script type="application/ecmascript">
var viewWidth = 626;
var viewHeight = 302;
var sectionId = 'dynsection-0';
</script>
<script type="application/ecmascript" xlink:href="../../svg.min.js"/>
<svg id="graph" class="graph">
<g id="viewport">
<title>fl/scoped_ptr.h</title>
<!-- Node1 -->
<g id="Node000001" class="node">
<title>Node1</title>
<g id="a_Node000001"><a xlink:title=" ">
<polygon fill="#999999" stroke="#666666" points="431.5,-294 344.5,-294 344.5,-275 431.5,-275 431.5,-294"/>
<text text-anchor="middle" x="388" y="-282" font-family="Helvetica,sans-Serif" font-size="10.00">fl/scoped_ptr.h</text>
</a>
</g>
</g>
<!-- Node2 -->
<g id="Node000002" class="node">
<title>Node2</title>
<g id="a_Node000002"><a xlink:title=" ">
<polygon fill="#e0e0e0" stroke="#999999" points="414,-19 358,-19 358,0 414,0 414,-19"/>
<text text-anchor="middle" x="386" y="-7" font-family="Helvetica,sans-Serif" font-size="10.00">stddef.h</text>
</a>
</g>
</g>
<!-- Node1&#45;&gt;Node2 -->
<g id="edge1_Node000001_Node000002" class="edge">
<title>Node1&#45;&gt;Node2</title>
<g id="a_edge1_Node000001_Node000002"><a xlink:title=" ">
<path fill="none" stroke="#63b8ff" d="M408.54,-274.96C440.88,-259.99 500,-225.74 500,-175.5 500,-175.5 500,-175.5 500,-118.5 500,-72.47 450.42,-40.18 416.65,-23.53"/>
<polygon fill="#63b8ff" stroke="#63b8ff" points="417.71,-20.16 407.18,-19.05 414.72,-26.49 417.71,-20.16"/>
</a>
</g>
</g>
<!-- Node3 -->
<g id="Node000003" class="node">
<title>Node3</title>
<g id="a_Node000003"><a xlink:href="../../df/dd8/stdint_8h.html" target="_top" xlink:title=" ">
<polygon fill="white" stroke="#666666" points="230.5,-74 177.5,-74 177.5,-55 230.5,-55 230.5,-74"/>
<text text-anchor="middle" x="204" y="-62" font-family="Helvetica,sans-Serif" font-size="10.00">stdint.h</text>
</a>
</g>
</g>
<!-- Node1&#45;&gt;Node3 -->
<g id="edge2_Node000001_Node000003" class="edge">
<title>Node1&#45;&gt;Node3</title>
<g id="a_edge2_Node000001_Node000003"><a xlink:title=" ">
<path fill="none" stroke="#63b8ff" d="M344.33,-280.83C285.13,-274.58 181.47,-253.71 135,-184 110.95,-147.92 156.06,-103.19 184.08,-80.38"/>
<polygon fill="#63b8ff" stroke="#63b8ff" points="186.44,-82.98 192.14,-74.05 182.12,-77.48 186.44,-82.98"/>
</a>
</g>
</g>
<!-- Node4 -->
<g id="Node000004" class="node">
<title>Node4</title>
<g id="a_Node000004"><a xlink:href="../../da/da9/allocator_8h.html" target="_top" xlink:title=" ">
<polygon fill="white" stroke="#666666" points="352.5,-239 275.5,-239 275.5,-220 352.5,-220 352.5,-239"/>
<text text-anchor="middle" x="314" y="-227" font-family="Helvetica,sans-Serif" font-size="10.00">fl/allocator.h</text>
</a>
</g>
</g>
<!-- Node1&#45;&gt;Node4 -->
<g id="edge5_Node000001_Node000004" class="edge">
<title>Node1&#45;&gt;Node4</title>
<g id="a_edge5_Node000001_Node000004"><a xlink:title=" ">
<path fill="none" stroke="#63b8ff" d="M376.11,-274.98C364.85,-266.92 347.71,-254.65 334.29,-245.03"/>
<polygon fill="#63b8ff" stroke="#63b8ff" points="336.27,-242.15 326.11,-239.17 332.2,-247.84 336.27,-242.15"/>
</a>
</g>
</g>
<!-- Node14 -->
<g id="Node000014" class="node">
<title>Node14</title>
<g id="a_Node000014"><a xlink:href="../../df/d2a/namespace_8h.html" target="_top" xlink:title="Implements the FastLED namespace macros.">
<polygon fill="white" stroke="#666666" points="357.5,-74 266.5,-74 266.5,-55 357.5,-55 357.5,-74"/>
<text text-anchor="middle" x="312" y="-62" font-family="Helvetica,sans-Serif" font-size="10.00">fl/namespace.h</text>
</a>
</g>
</g>
<!-- Node1&#45;&gt;Node14 -->
<g id="edge22_Node000001_Node000014" class="edge">
<title>Node1&#45;&gt;Node14</title>
<g id="a_edge22_Node000001_Node000014"><a xlink:title=" ">
<path fill="none" stroke="#63b8ff" d="M391.74,-274.96C399.86,-255.19 417.44,-204.88 405,-165 393.33,-127.57 357.76,-96.88 334.15,-79.91"/>
<polygon fill="#63b8ff" stroke="#63b8ff" points="335.97,-76.91 325.76,-74.09 331.98,-82.66 335.97,-76.91"/>
</a>
</g>
</g>
<!-- Node21 -->
<g id="Node000021" class="node">
<title>Node21</title>
<g id="a_Node000021"><a xlink:href="../../db/d36/inplacenew_8h.html" target="_top" xlink:title=" ">
<polygon fill="white" stroke="#666666" points="80,-129 0,-129 0,-110 80,-110 80,-129"/>
<text text-anchor="middle" x="40" y="-117" font-family="Helvetica,sans-Serif" font-size="10.00">inplacenew.h</text>
</a>
</g>
</g>
<!-- Node1&#45;&gt;Node21 -->
<g id="edge21_Node000001_Node000021" class="edge">
<title>Node1&#45;&gt;Node21</title>
<g id="a_edge21_Node000001_Node000021"><a xlink:title=" ">
<path fill="none" stroke="#63b8ff" d="M344.21,-283.53C265.28,-282.65 103.64,-276.21 64,-239 36.67,-213.35 35.79,-165.82 37.76,-139.42"/>
<polygon fill="#63b8ff" stroke="#63b8ff" points="41.26,-139.52 38.74,-129.23 34.3,-138.85 41.26,-139.52"/>
</a>
</g>
</g>
<!-- Node23 -->
<g id="Node000023" class="node">
<title>Node23</title>
<g id="a_Node000023"><a xlink:href="../../d4/dce/deprecated_8h.html" target="_top" xlink:title=" ">
<polygon fill="white" stroke="#666666" points="617.5,-239 528.5,-239 528.5,-220 617.5,-220 617.5,-239"/>
<text text-anchor="middle" x="573" y="-227" font-family="Helvetica,sans-Serif" font-size="10.00">fl/deprecated.h</text>
</a>
</g>
</g>
<!-- Node1&#45;&gt;Node23 -->
<g id="edge23_Node000001_Node000023" class="edge">
<title>Node1&#45;&gt;Node23</title>
<g id="a_edge23_Node000001_Node000023"><a xlink:title=" ">
<path fill="none" stroke="#63b8ff" d="M417.72,-274.98C449.05,-266.01 498.57,-251.82 533.24,-241.89"/>
<polygon fill="#63b8ff" stroke="#63b8ff" points="534.39,-245.2 543.04,-239.08 532.47,-238.47 534.39,-245.2"/>
</a>
</g>
</g>
<!-- Node3&#45;&gt;Node2 -->
<g id="edge3_Node000003_Node000002" class="edge">
<title>Node3&#45;&gt;Node2</title>
<g id="a_edge3_Node000003_Node000002"><a xlink:title=" ">
<path fill="none" stroke="#63b8ff" d="M230.85,-55.68C261.81,-46.66 312.92,-31.78 347.96,-21.58"/>
<polygon fill="#63b8ff" stroke="#63b8ff" points="349.21,-24.86 357.84,-18.7 347.26,-18.14 349.21,-24.86"/>
</a>
</g>
</g>
<!-- Node3&#45;&gt;Node3 -->
<g id="edge4_Node000003_Node000003" class="edge">
<title>Node3&#45;&gt;Node3</title>
<g id="a_edge4_Node000003_Node000003"><a xlink:title=" ">
<path fill="none" stroke="#63b8ff" d="M225.06,-74.07C237.2,-76.02 248.5,-72.83 248.5,-64.5 248.5,-58.58 242.79,-55.25 235.12,-54.53"/>
<polygon fill="#63b8ff" stroke="#63b8ff" points="234.91,-51.03 225.06,-54.93 235.19,-58.03 234.91,-51.03"/>
</a>
</g>
</g>
<!-- Node4&#45;&gt;Node2 -->
<g id="edge6_Node000004_Node000002" class="edge">
<title>Node4&#45;&gt;Node2</title>
<g id="a_edge6_Node000004_Node000002"><a xlink:title=" ">
<path fill="none" stroke="#63b8ff" d="M352.42,-219.96C371.74,-213.52 393.45,-202.5 405,-184 435.69,-134.83 409.91,-62.26 394.91,-28.72"/>
<polygon fill="#63b8ff" stroke="#63b8ff" points="397.91,-26.87 390.51,-19.28 391.56,-29.83 397.91,-26.87"/>
</a>
</g>
</g>
<!-- Node5 -->
<g id="Node000005" class="node">
<title>Node5</title>
<g id="a_Node000005"><a xlink:title=" ">
<polygon fill="#e0e0e0" stroke="#999999" points="395.5,-184 342.5,-184 342.5,-165 395.5,-165 395.5,-184"/>
<text text-anchor="middle" x="369" y="-172" font-family="Helvetica,sans-Serif" font-size="10.00">stdlib.h</text>
</a>
</g>
</g>
<!-- Node4&#45;&gt;Node5 -->
<g id="edge7_Node000004_Node000005" class="edge">
<title>Node4&#45;&gt;Node5</title>
<g id="a_edge7_Node000004_Node000005"><a xlink:title=" ">
<path fill="none" stroke="#63b8ff" d="M323.08,-219.75C331.09,-212.03 342.96,-200.6 352.62,-191.28"/>
<polygon fill="#63b8ff" stroke="#63b8ff" points="355.31,-193.55 360.09,-184.09 350.46,-188.51 355.31,-193.55"/>
</a>
</g>
</g>
<!-- Node6 -->
<g id="Node000006" class="node">
<title>Node6</title>
<g id="a_Node000006"><a xlink:href="../../da/d66/string_8h.html" target="_top" xlink:title=" ">
<polygon fill="white" stroke="#666666" points="285.5,-184 232.5,-184 232.5,-165 285.5,-165 285.5,-184"/>
<text text-anchor="middle" x="259" y="-172" font-family="Helvetica,sans-Serif" font-size="10.00">string.h</text>
</a>
</g>
</g>
<!-- Node4&#45;&gt;Node6 -->
<g id="edge8_Node000004_Node000006" class="edge">
<title>Node4&#45;&gt;Node6</title>
<g id="a_edge8_Node000004_Node000006"><a xlink:title=" ">
<path fill="none" stroke="#63b8ff" d="M304.92,-219.75C296.91,-212.03 285.04,-200.6 275.38,-191.28"/>
<polygon fill="#63b8ff" stroke="#63b8ff" points="277.54,-188.51 267.91,-184.09 272.69,-193.55 277.54,-188.51"/>
</a>
</g>
</g>
<!-- Node4&#45;&gt;Node21 -->
<g id="edge13_Node000004_Node000021" class="edge">
<title>Node4&#45;&gt;Node21</title>
<g id="a_edge13_Node000004_Node000021"><a xlink:title=" ">
<path fill="none" stroke="#63b8ff" d="M275.38,-222.87C238.25,-216.54 181.12,-204.4 135,-184 106.16,-171.24 76.5,-149.84 58.16,-135.45"/>
<polygon fill="#63b8ff" stroke="#63b8ff" points="60.12,-132.53 50.12,-129.02 55.75,-138 60.12,-132.53"/>
</a>
</g>
</g>
<!-- Node17 -->
<g id="Node000017" class="node">
<title>Node17</title>
<g id="a_Node000017"><a xlink:href="../../df/d63/type__traits_8h.html" target="_top" xlink:title=" ">
<polygon fill="white" stroke="#666666" points="357.5,-129 270.5,-129 270.5,-110 357.5,-110 357.5,-129"/>
<text text-anchor="middle" x="314" y="-117" font-family="Helvetica,sans-Serif" font-size="10.00">fl/type_traits.h</text>
</a>
</g>
</g>
<!-- Node4&#45;&gt;Node17 -->
<g id="edge16_Node000004_Node000017" class="edge">
<title>Node4&#45;&gt;Node17</title>
<g id="a_edge16_Node000004_Node000017"><a xlink:title=" ">
<path fill="none" stroke="#63b8ff" d="M314,-219.66C314,-202.17 314,-162.8 314,-139.27"/>
<polygon fill="#63b8ff" stroke="#63b8ff" points="317.5,-139.16 314,-129.16 310.5,-139.16 317.5,-139.16"/>
</a>
</g>
</g>
<!-- Node22 -->
<g id="Node000022" class="node">
<title>Node22</title>
<g id="a_Node000022"><a xlink:href="../../d8/d4b/unused_8h.html" target="_top" xlink:title=" ">
<polygon fill="white" stroke="#666666" points="214,-184 144,-184 144,-165 214,-165 214,-184"/>
<text text-anchor="middle" x="179" y="-172" font-family="Helvetica,sans-Serif" font-size="10.00">fl/unused.h</text>
</a>
</g>
</g>
<!-- Node4&#45;&gt;Node22 -->
<g id="edge20_Node000004_Node000022" class="edge">
<title>Node4&#45;&gt;Node22</title>
<g id="a_edge20_Node000004_Node000022"><a xlink:title=" ">
<path fill="none" stroke="#63b8ff" d="M292.31,-219.98C270.2,-211.3 235.68,-197.75 210.55,-187.88"/>
<polygon fill="#63b8ff" stroke="#63b8ff" points="211.67,-184.57 201.08,-184.17 209.11,-191.08 211.67,-184.57"/>
</a>
</g>
</g>
<!-- Node7 -->
<g id="Node000007" class="node">
<title>Node7</title>
<g id="a_Node000007"><a xlink:href="../../d1/d93/str_8h.html" target="_top" xlink:title=" ">
<polygon fill="#fff0f0" stroke="red" points="252.5,-129 205.5,-129 205.5,-110 252.5,-110 252.5,-129"/>
<text text-anchor="middle" x="229" y="-117" font-family="Helvetica,sans-Serif" font-size="10.00">fl/str.h</text>
</a>
</g>
</g>
<!-- Node6&#45;&gt;Node7 -->
<g id="edge9_Node000006_Node000007" class="edge">
<title>Node6&#45;&gt;Node7</title>
<g id="a_edge9_Node000006_Node000007"><a xlink:title=" ">
<path fill="none" stroke="#63b8ff" d="M248.88,-164.75C243.33,-157.65 237.11,-147.4 232.78,-138.56"/>
<polygon fill="#63b8ff" stroke="#63b8ff" points="235.88,-136.9 228.73,-129.09 229.45,-139.66 235.88,-136.9"/>
</a>
</g>
</g>
<!-- Node7&#45;&gt;Node3 -->
<g id="edge10_Node000007_Node000003" class="edge">
<title>Node7&#45;&gt;Node3</title>
<g id="a_edge10_Node000007_Node000003"><a xlink:title=" ">
<path fill="none" stroke="#63b8ff" d="M224.87,-109.75C221.49,-102.57 216.58,-92.18 212.38,-83.27"/>
<polygon fill="#63b8ff" stroke="#63b8ff" points="215.48,-81.64 208.05,-74.09 209.15,-84.63 215.48,-81.64"/>
</a>
</g>
</g>
<!-- Node7&#45;&gt;Node6 -->
<g id="edge11_Node000007_Node000006" class="edge">
<title>Node7&#45;&gt;Node6</title>
<g id="a_edge11_Node000007_Node000006"><a xlink:title=" ">
<path fill="none" stroke="#63b8ff" d="M238.99,-129.09C244.59,-136.22 250.9,-146.6 255.26,-155.53"/>
<polygon fill="#63b8ff" stroke="#63b8ff" points="252.05,-156.94 259.21,-164.75 258.49,-154.18 252.05,-156.94"/>
</a>
</g>
</g>
<!-- Node7&#45;&gt;Node14 -->
<g id="edge12_Node000007_Node000014" class="edge">
<title>Node7&#45;&gt;Node14</title>
<g id="a_edge12_Node000007_Node000014"><a xlink:title=" ">
<path fill="none" stroke="#63b8ff" d="M242.34,-109.98C255.09,-101.84 274.55,-89.41 289.67,-79.76"/>
<polygon fill="#63b8ff" stroke="#63b8ff" points="291.88,-82.5 298.42,-74.17 288.11,-76.6 291.88,-82.5"/>
</a>
</g>
</g>
<!-- Node21&#45;&gt;Node2 -->
<g id="edge14_Node000021_Node000002" class="edge">
<title>Node21&#45;&gt;Node2</title>
<g id="a_edge14_Node000021_Node000002"><a xlink:title=" ">
<path fill="none" stroke="#63b8ff" d="M54.56,-109.79C77.92,-96.17 125.55,-69.88 169,-55 229.97,-34.13 304.09,-21.51 348.03,-15.29"/>
<polygon fill="#63b8ff" stroke="#63b8ff" points="348.57,-18.75 357.99,-13.92 347.61,-11.81 348.57,-18.75"/>
</a>
</g>
</g>
<!-- Node21&#45;&gt;Node3 -->
<g id="edge15_Node000021_Node000003" class="edge">
<title>Node21&#45;&gt;Node3</title>
<g id="a_edge15_Node000021_Node000003"><a xlink:title=" ">
<path fill="none" stroke="#63b8ff" d="M66.35,-109.98C93.76,-101.13 136.89,-87.19 167.56,-77.28"/>
<polygon fill="#63b8ff" stroke="#63b8ff" points="169,-80.49 177.44,-74.08 166.85,-73.83 169,-80.49"/>
</a>
</g>
</g>
<!-- Node17&#45;&gt;Node2 -->
<g id="edge17_Node000017_Node000002" class="edge">
<title>Node17&#45;&gt;Node2</title>
<g id="a_edge17_Node000017_Node000002"><a xlink:title=" ">
<path fill="none" stroke="#63b8ff" d="M328.17,-109.99C340.16,-102.09 356.97,-89.26 367,-74 375.89,-60.48 380.75,-42.65 383.32,-29.33"/>
<polygon fill="#63b8ff" stroke="#63b8ff" points="386.78,-29.83 384.98,-19.39 379.88,-28.68 386.78,-29.83"/>
</a>
</g>
</g>
<!-- Node17&#45;&gt;Node3 -->
<g id="edge18_Node000017_Node000003" class="edge">
<title>Node17&#45;&gt;Node3</title>
<g id="a_edge18_Node000017_Node000003"><a xlink:title=" ">
<path fill="none" stroke="#63b8ff" d="M296.33,-109.98C278.71,-101.5 251.42,-88.35 231.07,-78.54"/>
<polygon fill="#63b8ff" stroke="#63b8ff" points="232.52,-75.36 221.99,-74.17 229.48,-81.66 232.52,-75.36"/>
</a>
</g>
</g>
<!-- Node17&#45;&gt;Node14 -->
<g id="edge19_Node000017_Node000014" class="edge">
<title>Node17&#45;&gt;Node14</title>
<g id="a_edge19_Node000017_Node000014"><a xlink:title=" ">
<path fill="none" stroke="#63b8ff" d="M313.67,-109.75C313.41,-102.8 313.03,-92.85 312.7,-84.13"/>
<polygon fill="#63b8ff" stroke="#63b8ff" points="316.2,-83.95 312.32,-74.09 309.2,-84.21 316.2,-83.95"/>
</a>
</g>
</g>
</g>
</svg>

<g id="navigator" transform="translate(0 0)" fill="#404254">
  <rect fill="#f2f5e9" fill-opacity="0.5" stroke="#606060" stroke-width=".5" x="0" y="0" width="60" height="60"/>
  <use id="zoomplus" xlink:href="#zoomPlus" x="17" y="9" onmousedown="handleZoom(evt,'in')"/>
  <use id="zoomminus" xlink:href="#zoomMin" x="42" y="9" onmousedown="handleZoom(evt,'out')"/>
  <use id="reset" xlink:href="#resetDef" x="30" y="36" onmousedown="handleReset()"/>
   <use id="arrowup" xlink:href="#arrowUp" x="0" y="0" onmousedown="handlePan(0,-1)"/>
  <use id="arrowright" xlink:href="#arrowRight" x="0" y="0" onmousedown="handlePan(1,0)"/>
  <use id="arrowdown" xlink:href="#arrowDown" x="0" y="0" onmousedown="handlePan(0,1)"/>
  <use id="arrowleft" xlink:href="#arrowLeft" x="0" y="0" onmousedown="handlePan(-1,0)"/>
</g>
<svg viewBox="0 0 15 15" width="100%" height="30px" preserveAspectRatio="xMaxYMin meet">
 <g id="arrow_out" transform="scale(0.3 0.3)">
  <a xlink:href="scoped__ptr_8h__incl_org.svg" target="_base">
   <rect id="button" ry="5" rx="5" y="6" x="6" height="38" width="38"
        fill="#f2f5e9" fill-opacity="0.5" stroke="#606060" stroke-width="1.0"/>
   <path id="arrow"
     d="M 11.500037,31.436501 C 11.940474,20.09759 22.043105,11.32322 32.158766,21.979434 L 37.068811,17.246167 C 37.068811,17.246167 37.088388,32 37.088388,32 L 22.160133,31.978069 C 22.160133,31.978069 26.997745,27.140456 26.997745,27.140456 C 18.528582,18.264221 13.291696,25.230495 11.500037,31.436501 z"
     style="fill:#404040;"/>
  </a>
 </g>
</svg>

<style type='text/css'>
<![CDATA[
[data-mouse-over-selected='false'] { opacity: 0.7; }
[data-mouse-over-selected='true']  { opacity: 1.0; }
]]>
</style>
<script type="application/ecmascript"><![CDATA[
document.addEventListener('DOMContentLoaded', (event) => {
  highlightEdges();
  highlightAdjacentNodes();
});
]]></script>
</svg>
