<?xml version="1.0" encoding="UTF-8" standalone="no"?>
<!DOCTYPE svg PUBLIC "-//W3C//DTD SVG 1.1//EN"
 "http://www.w3.org/Graphics/SVG/1.1/DTD/svg11.dtd">
<!-- Generated by graphviz version 2.43.0 (0)
 -->
<!-- Title: fl::Ptr::TakeOwnership Pages: 1 -->
<svg width="618pt" height="406pt"
 viewBox="0.00 0.00 618.00 405.50" xmlns="http://www.w3.org/2000/svg" xmlns:xlink="http://www.w3.org/1999/xlink">
<g id="graph0" class="graph" transform="scale(1 1) rotate(0) translate(4 401.5)">
<title>fl::Ptr::TakeOwnership</title>
<!-- Node1 -->
<g id="Node000001" class="node">
<title>Node1</title>
<g id="a_Node000001"><a xlink:title=" ">
<polygon fill="#999999" stroke="#666666" points="610,-271 488,-271 488,-252 610,-252 610,-271"/>
<text text-anchor="middle" x="549" y="-259" font-family="Helvetica,sans-Serif" font-size="10.00">fl::Ptr::TakeOwnership</text>
</a>
</g>
</g>
<!-- Node2 -->
<g id="Node000002" class="node">
<title>Node2</title>
<g id="a_Node000002"><a xlink:href="../../db/d77/classfl_1_1_weak_ptr_ac52bc006cef9fef0774e23023aa5d9f2.html#ac52bc006cef9fef0774e23023aa5d9f2" target="_top" xlink:title=" ">
<polygon fill="white" stroke="#666666" points="451.5,-326 356.5,-326 356.5,-307 451.5,-307 451.5,-326"/>
<text text-anchor="middle" x="404" y="-314" font-family="Helvetica,sans-Serif" font-size="10.00">fl::WeakPtr::lock</text>
</a>
</g>
</g>
<!-- Node1&#45;&gt;Node2 -->
<g id="edge1_Node000001_Node000002" class="edge">
<title>Node1&#45;&gt;Node2</title>
<g id="a_edge1_Node000001_Node000002"><a xlink:title=" ">
<path fill="none" stroke="#63b8ff" d="M513.7,-274.69C487.96,-284.59 453.3,-297.92 430.1,-306.84"/>
<polygon fill="#63b8ff" stroke="#63b8ff" points="515.01,-277.94 523.09,-271.08 512.5,-271.4 515.01,-277.94"/>
</a>
</g>
</g>
<!-- Node4 -->
<g id="Node000004" class="node">
<title>Node4</title>
<g id="a_Node000004"><a xlink:href="../../da/d84/classfl_1_1_ptr_traits_a6f44b5dc3ee20b4ba14ed6b765cfa776.html#a6f44b5dc3ee20b4ba14ed6b765cfa776" target="_top" xlink:title=" ">
<polygon fill="white" stroke="#666666" points="452,-271 356,-271 356,-252 452,-252 452,-271"/>
<text text-anchor="middle" x="404" y="-259" font-family="Helvetica,sans-Serif" font-size="10.00">fl::PtrTraits::New</text>
</a>
</g>
</g>
<!-- Node1&#45;&gt;Node4 -->
<g id="edge3_Node000001_Node000004" class="edge">
<title>Node1&#45;&gt;Node4</title>
<g id="a_edge3_Node000001_Node000004"><a xlink:title=" ">
<path fill="none" stroke="#63b8ff" d="M477.65,-261.5C469,-261.5 460.32,-261.5 452.13,-261.5"/>
<polygon fill="#63b8ff" stroke="#63b8ff" points="477.77,-265 487.77,-261.5 477.77,-258 477.77,-265"/>
</a>
</g>
</g>
<!-- Node23 -->
<g id="Node000023" class="node">
<title>Node23</title>
<g id="a_Node000023"><a xlink:href="../../da/d84/classfl_1_1_ptr_traits_a8f1f367153b1047c93dc60fa54ac117d.html#a8f1f367153b1047c93dc60fa54ac117d" target="_top" xlink:title=" ">
<polygon fill="white" stroke="#666666" points="452,-234 356,-234 356,-215 452,-215 452,-234"/>
<text text-anchor="middle" x="404" y="-222" font-family="Helvetica,sans-Serif" font-size="10.00">fl::PtrTraits::New</text>
</a>
</g>
</g>
<!-- Node1&#45;&gt;Node23 -->
<g id="edge18_Node000001_Node000023" class="edge">
<title>Node1&#45;&gt;Node23</title>
<g id="a_edge18_Node000001_Node000023"><a xlink:title=" ">
<path fill="none" stroke="#63b8ff" d="M501.42,-249.45C482.23,-244.48 460.29,-238.81 442.2,-234.12"/>
<polygon fill="#63b8ff" stroke="#63b8ff" points="500.62,-252.86 511.17,-251.97 502.37,-246.08 500.62,-252.86"/>
</a>
</g>
</g>
<!-- Node3 -->
<g id="Node000003" class="node">
<title>Node3</title>
<g id="a_Node000003"><a xlink:href="../../db/d77/classfl_1_1_weak_ptr_a0e8a300bcc2b04d7f60b0ad7265f23da.html#a0e8a300bcc2b04d7f60b0ad7265f23da" target="_top" xlink:title=" ">
<polygon fill="white" stroke="#666666" points="320,-345 187,-345 187,-326 320,-326 320,-345"/>
<text text-anchor="middle" x="253.5" y="-333" font-family="Helvetica,sans-Serif" font-size="10.00">fl::WeakPtr::operator==</text>
</a>
</g>
</g>
<!-- Node2&#45;&gt;Node3 -->
<g id="edge2_Node000002_Node000003" class="edge">
<title>Node2&#45;&gt;Node3</title>
<g id="a_edge2_Node000002_Node000003"><a xlink:title=" ">
<path fill="none" stroke="#63b8ff" d="M346.24,-323.76C337.73,-324.85 328.9,-325.98 320.22,-327.09"/>
<polygon fill="#63b8ff" stroke="#63b8ff" points="346.95,-327.2 356.42,-322.46 346.06,-320.26 346.95,-327.2"/>
</a>
</g>
</g>
<!-- Node5 -->
<g id="Node000005" class="node">
<title>Node5</title>
<g id="a_Node000005"><a xlink:href="../../db/d77/classfl_1_1_weak_ptr_ae5e7b086bce142fafeda9fd7857a2522.html#ae5e7b086bce142fafeda9fd7857a2522" target="_top" xlink:title=" ">
<polygon fill="white" stroke="#666666" points="311.5,-308 195.5,-308 195.5,-289 311.5,-289 311.5,-308"/>
<text text-anchor="middle" x="253.5" y="-296" font-family="Helvetica,sans-Serif" font-size="10.00">fl::WeakPtr::WeakPtr</text>
</a>
</g>
</g>
<!-- Node4&#45;&gt;Node5 -->
<g id="edge4_Node000004_Node000005" class="edge">
<title>Node4&#45;&gt;Node5</title>
<g id="a_edge4_Node000004_Node000005"><a xlink:title=" ">
<path fill="none" stroke="#63b8ff" d="M354.86,-273.49C334.78,-278.5 311.78,-284.23 292.87,-288.94"/>
<polygon fill="#63b8ff" stroke="#63b8ff" points="355.9,-276.84 364.76,-271.03 354.21,-270.05 355.9,-276.84"/>
</a>
</g>
</g>
<!-- Node6 -->
<g id="Node000006" class="node">
<title>Node6</title>
<g id="a_Node000006"><a xlink:href="../../db/d77/classfl_1_1_weak_ptr_a91f5017c37790d882d59ac3517dbb7da.html#a91f5017c37790d882d59ac3517dbb7da" target="_top" xlink:title=" ">
<polygon fill="white" stroke="#666666" points="311.5,-271 195.5,-271 195.5,-252 311.5,-252 311.5,-271"/>
<text text-anchor="middle" x="253.5" y="-259" font-family="Helvetica,sans-Serif" font-size="10.00">fl::WeakPtr::WeakPtr</text>
</a>
</g>
</g>
<!-- Node4&#45;&gt;Node6 -->
<g id="edge5_Node000004_Node000006" class="edge">
<title>Node4&#45;&gt;Node6</title>
<g id="a_edge5_Node000004_Node000006"><a xlink:title=" ">
<path fill="none" stroke="#63b8ff" d="M345.55,-261.5C334.4,-261.5 322.71,-261.5 311.57,-261.5"/>
<polygon fill="#63b8ff" stroke="#63b8ff" points="345.61,-265 355.61,-261.5 345.61,-258 345.61,-265"/>
</a>
</g>
</g>
<!-- Node7 -->
<g id="Node000007" class="node">
<title>Node7</title>
<g id="a_Node000007"><a xlink:href="../../d1/d56/classfl_1_1_ptr_a4041b6379499b8faf0626509cbb9d357.html#a4041b6379499b8faf0626509cbb9d357" target="_top" xlink:title=" ">
<polygon fill="white" stroke="#666666" points="288.5,-234 218.5,-234 218.5,-215 288.5,-215 288.5,-234"/>
<text text-anchor="middle" x="253.5" y="-222" font-family="Helvetica,sans-Serif" font-size="10.00">fl::Ptr::New</text>
</a>
</g>
</g>
<!-- Node4&#45;&gt;Node7 -->
<g id="edge6_Node000004_Node000007" class="edge">
<title>Node4&#45;&gt;Node7</title>
<g id="a_edge6_Node000004_Node000007"><a xlink:title=" ">
<path fill="none" stroke="#63b8ff" d="M354.78,-249.48C333.16,-244.1 308.18,-237.88 288.56,-232.99"/>
<polygon fill="#63b8ff" stroke="#63b8ff" points="354.21,-252.95 364.76,-251.97 355.9,-246.16 354.21,-252.95"/>
</a>
</g>
</g>
<!-- Node8 -->
<g id="Node000008" class="node">
<title>Node8</title>
<g id="a_Node000008"><a xlink:href="../../d4/d36/namespacefl_aa46ba73e92c85e05f9ee42f4008cfbe0.html#aa46ba73e92c85e05f9ee42f4008cfbe0" target="_top" xlink:title=" ">
<polygon fill="white" stroke="#666666" points="285.5,-197 221.5,-197 221.5,-178 285.5,-178 285.5,-197"/>
<text text-anchor="middle" x="253.5" y="-185" font-family="Helvetica,sans-Serif" font-size="10.00">fl::NewPtr</text>
</a>
</g>
</g>
<!-- Node4&#45;&gt;Node8 -->
<g id="edge7_Node000004_Node000008" class="edge">
<title>Node4&#45;&gt;Node8</title>
<g id="a_edge7_Node000004_Node000008"><a xlink:title=" ">
<path fill="none" stroke="#63b8ff" d="M363.1,-247.66C360.64,-246.37 358.25,-244.98 356,-243.5 336.84,-230.88 339.67,-218.31 320,-206.5 309.54,-200.22 296.9,-195.92 285.52,-193.02"/>
<polygon fill="#63b8ff" stroke="#63b8ff" points="361.67,-250.85 372.21,-251.92 364.64,-244.51 361.67,-250.85"/>
</a>
</g>
</g>
<!-- Node9 -->
<g id="Node000009" class="node">
<title>Node9</title>
<g id="a_Node000009"><a xlink:href="../../d5/d9d/classfl_1_1function_3_01_r_07_args_8_8_8_08_4_ae0be16c3c6e9a40cd871199d2307d5b7.html#ae0be16c3c6e9a40cd871199d2307d5b7" target="_top" xlink:title=" ">
<polygon fill="white" stroke="#666666" points="138,-397.5 13,-397.5 13,-367.5 138,-367.5 138,-397.5"/>
<text text-anchor="start" x="21" y="-385.5" font-family="Helvetica,sans-Serif" font-size="10.00">fl::function&lt; R(Args...)</text>
<text text-anchor="middle" x="75.5" y="-374.5" font-family="Helvetica,sans-Serif" font-size="10.00">&gt;::function</text>
</a>
</g>
</g>
<!-- Node8&#45;&gt;Node9 -->
<g id="edge8_Node000008_Node000009" class="edge">
<title>Node8&#45;&gt;Node9</title>
<g id="a_edge8_Node000008_Node000009"><a xlink:title=" ">
<path fill="none" stroke="#63b8ff" d="M211.47,-192.36C202.38,-195.2 193.53,-199.63 187,-206.5 139.15,-256.8 198.11,-307.51 151,-358.5 147.31,-362.49 142.96,-365.82 138.23,-368.6"/>
<polygon fill="#63b8ff" stroke="#63b8ff" points="212.48,-195.71 221.31,-189.85 210.76,-188.93 212.48,-195.71"/>
</a>
</g>
</g>
<!-- Node10 -->
<g id="Node000010" class="node">
<title>Node10</title>
<g id="a_Node000010"><a xlink:href="../../d5/d9d/classfl_1_1function_3_01_r_07_args_8_8_8_08_4_a5d73b6c06fa5ef1bdbaf339cab576c9d.html#a5d73b6c06fa5ef1bdbaf339cab576c9d" target="_top" xlink:title=" ">
<polygon fill="white" stroke="#666666" points="138,-349.5 13,-349.5 13,-319.5 138,-319.5 138,-349.5"/>
<text text-anchor="start" x="21" y="-337.5" font-family="Helvetica,sans-Serif" font-size="10.00">fl::function&lt; R(Args...)</text>
<text text-anchor="middle" x="75.5" y="-326.5" font-family="Helvetica,sans-Serif" font-size="10.00">&gt;::function</text>
</a>
</g>
</g>
<!-- Node8&#45;&gt;Node10 -->
<g id="edge9_Node000008_Node000010" class="edge">
<title>Node8&#45;&gt;Node10</title>
<g id="a_edge9_Node000008_Node000010"><a xlink:title=" ">
<path fill="none" stroke="#63b8ff" d="M211.69,-192.91C202.68,-195.75 193.81,-200.03 187,-206.5 151.54,-240.2 185.96,-276.29 151,-310.5 147.21,-314.21 142.85,-317.34 138.18,-319.99"/>
<polygon fill="#63b8ff" stroke="#63b8ff" points="212.64,-196.29 221.43,-190.38 210.87,-189.51 212.64,-196.29"/>
</a>
</g>
</g>
<!-- Node11 -->
<g id="Node000011" class="node">
<title>Node11</title>
<g id="a_Node000011"><a xlink:href="../../d5/d9d/classfl_1_1function_3_01_r_07_args_8_8_8_08_4_ae70f66609ece914b2b6d678e97a819a3.html#ae70f66609ece914b2b6d678e97a819a3" target="_top" xlink:title=" ">
<polygon fill="white" stroke="#666666" points="138,-301.5 13,-301.5 13,-271.5 138,-271.5 138,-301.5"/>
<text text-anchor="start" x="21" y="-289.5" font-family="Helvetica,sans-Serif" font-size="10.00">fl::function&lt; R(Args...)</text>
<text text-anchor="middle" x="75.5" y="-278.5" font-family="Helvetica,sans-Serif" font-size="10.00">&gt;::function</text>
</a>
</g>
</g>
<!-- Node8&#45;&gt;Node11 -->
<g id="edge10_Node000008_Node000011" class="edge">
<title>Node8&#45;&gt;Node11</title>
<g id="a_edge10_Node000008_Node000011"><a xlink:title=" ">
<path fill="none" stroke="#63b8ff" d="M211.69,-194.46C202.98,-197.23 194.24,-201.1 187,-206.5 163.28,-224.19 174.45,-244.46 151,-262.5 146.58,-265.9 141.67,-268.82 136.53,-271.34"/>
<polygon fill="#63b8ff" stroke="#63b8ff" points="212.71,-197.81 221.42,-191.77 210.85,-191.06 212.71,-197.81"/>
</a>
</g>
</g>
<!-- Node12 -->
<g id="Node000012" class="node">
<title>Node12</title>
<g id="a_Node000012"><a xlink:href="../../d3/da9/classfl_1_1_line_path_aecbdc49722b346f938a537a007818799.html#aecbdc49722b346f938a537a007818799" target="_top" xlink:title=" ">
<polygon fill="white" stroke="#666666" points="134,-253 17,-253 17,-234 134,-234 134,-253"/>
<text text-anchor="middle" x="75.5" y="-241" font-family="Helvetica,sans-Serif" font-size="10.00">fl::LinePath::LinePath</text>
</a>
</g>
</g>
<!-- Node8&#45;&gt;Node12 -->
<g id="edge11_Node000008_Node000012" class="edge">
<title>Node8&#45;&gt;Node12</title>
<g id="a_edge11_Node000008_Node000012"><a xlink:title=" ">
<path fill="none" stroke="#63b8ff" d="M211.56,-197.98C203.33,-200.48 194.8,-203.35 187,-206.5 170.23,-213.28 167.92,-219.1 151,-225.5 142.41,-228.75 133.04,-231.55 123.93,-233.91"/>
<polygon fill="#63b8ff" stroke="#63b8ff" points="212.78,-201.28 221.41,-195.13 210.83,-194.55 212.78,-201.28"/>
</a>
</g>
</g>
<!-- Node13 -->
<g id="Node000013" class="node">
<title>Node13</title>
<g id="a_Node000013"><a xlink:href="../../d3/dc1/classfl_1_1_rose_path_a07b56a3ed0439b2408f818f1cc53fa58.html#a07b56a3ed0439b2408f818f1cc53fa58" target="_top" xlink:title=" ">
<polygon fill="white" stroke="#666666" points="138,-216 13,-216 13,-197 138,-197 138,-216"/>
<text text-anchor="middle" x="75.5" y="-204" font-family="Helvetica,sans-Serif" font-size="10.00">fl::RosePath::RosePath</text>
</a>
</g>
</g>
<!-- Node8&#45;&gt;Node13 -->
<g id="edge12_Node000008_Node000013" class="edge">
<title>Node8&#45;&gt;Node13</title>
<g id="a_edge12_Node000008_Node000013"><a xlink:title=" ">
<path fill="none" stroke="#63b8ff" d="M211.24,-191.95C189.5,-194.3 162.41,-197.23 138.23,-199.84"/>
<polygon fill="#63b8ff" stroke="#63b8ff" points="211.87,-195.41 221.44,-190.85 211.12,-188.45 211.87,-195.41"/>
</a>
</g>
</g>
<!-- Node14 -->
<g id="Node000014" class="node">
<title>Node14</title>
<g id="a_Node000014"><a xlink:href="../../d1/d47/classfl_1_1_f_f_t_a2f2b31050c11af2512949bb2ca546493.html#a2f2b31050c11af2512949bb2ca546493" target="_top" xlink:title=" ">
<polygon fill="#fff0f0" stroke="red" points="134.5,-179 16.5,-179 16.5,-160 134.5,-160 134.5,-179"/>
<text text-anchor="middle" x="75.5" y="-167" font-family="Helvetica,sans-Serif" font-size="10.00">fl::FFT::get_or_create</text>
</a>
</g>
</g>
<!-- Node8&#45;&gt;Node14 -->
<g id="edge13_Node000008_Node000014" class="edge">
<title>Node8&#45;&gt;Node14</title>
<g id="a_edge13_Node000008_Node000014"><a xlink:title=" ">
<path fill="none" stroke="#63b8ff" d="M211.4,-183.3C188.55,-180.96 159.75,-178.01 134.63,-175.44"/>
<polygon fill="#63b8ff" stroke="#63b8ff" points="211.14,-186.79 221.44,-184.32 211.85,-179.82 211.14,-186.79"/>
</a>
</g>
</g>
<!-- Node17 -->
<g id="Node000017" class="node">
<title>Node17</title>
<g id="a_Node000017"><a xlink:href="../../d7/d76/namespaceanonymous__namespace_02xypaths_8cpp_03_a8091017d8d8c14f1197f3480df54acf5.html#a8091017d8d8c14f1197f3480df54acf5" target="_top" xlink:title=" ">
<polygon fill="#fff0f0" stroke="red" points="151,-141.5 0,-141.5 0,-111.5 151,-111.5 151,-141.5"/>
<text text-anchor="start" x="8" y="-129.5" font-family="Helvetica,sans-Serif" font-size="10.00">anonymous_namespace</text>
<text text-anchor="middle" x="75.5" y="-118.5" font-family="Helvetica,sans-Serif" font-size="10.00">{xypaths::cpp}::make_path</text>
</a>
</g>
</g>
<!-- Node8&#45;&gt;Node17 -->
<g id="edge14_Node000008_Node000017" class="edge">
<title>Node8&#45;&gt;Node17</title>
<g id="a_edge14_Node000008_Node000017"><a xlink:title=" ">
<path fill="none" stroke="#63b8ff" d="M216.2,-174.46C196.87,-167.55 172.67,-158.98 151,-151.5 141.59,-148.25 131.48,-144.82 121.85,-141.58"/>
<polygon fill="#63b8ff" stroke="#63b8ff" points="215.24,-177.83 225.83,-177.9 217.59,-171.24 215.24,-177.83"/>
</a>
</g>
</g>
<!-- Node19 -->
<g id="Node000019" class="node">
<title>Node19</title>
<g id="a_Node000019"><a xlink:href="../../d9/df4/classfl_1_1_x_y_path_a6eb96929496e7ca3a84e1a9d184daa45.html#a6eb96929496e7ca3a84e1a9d184daa45" target="_top" xlink:title=" ">
<polygon fill="white" stroke="#666666" points="150,-93 1,-93 1,-74 150,-74 150,-93"/>
<text text-anchor="middle" x="75.5" y="-81" font-family="Helvetica,sans-Serif" font-size="10.00">fl::XYPath::NewCustomPath</text>
</a>
</g>
</g>
<!-- Node8&#45;&gt;Node19 -->
<g id="edge15_Node000008_Node000019" class="edge">
<title>Node8&#45;&gt;Node19</title>
<g id="a_edge15_Node000008_Node000019"><a xlink:title=" ">
<path fill="none" stroke="#63b8ff" d="M236.95,-170.51C218.34,-151.21 185.37,-120.11 151,-102.5 143.52,-98.67 135.2,-95.57 126.92,-93.08"/>
<polygon fill="#63b8ff" stroke="#63b8ff" points="234.6,-173.12 244,-177.99 239.69,-168.32 234.6,-173.12"/>
</a>
</g>
</g>
<!-- Node20 -->
<g id="Node000020" class="node">
<title>Node20</title>
<g id="a_Node000020"><a xlink:href="../../d9/df4/classfl_1_1_x_y_path_a32ddbbb670b08579c9e8d9fb56fcc0ff.html#a32ddbbb670b08579c9e8d9fb56fcc0ff" target="_top" xlink:title=" ">
<polygon fill="white" stroke="#666666" points="141,-56 10,-56 10,-37 141,-37 141,-56"/>
<text text-anchor="middle" x="75.5" y="-44" font-family="Helvetica,sans-Serif" font-size="10.00">fl::XYPath::NewLinePath</text>
</a>
</g>
</g>
<!-- Node8&#45;&gt;Node20 -->
<g id="edge16_Node000008_Node000020" class="edge">
<title>Node8&#45;&gt;Node20</title>
<g id="a_edge16_Node000008_Node000020"><a xlink:title=" ">
<path fill="none" stroke="#63b8ff" d="M242.27,-168.99C226.37,-141.98 193.12,-92.1 151,-65.5 144.91,-61.65 138.07,-58.58 131.07,-56.13"/>
<polygon fill="#63b8ff" stroke="#63b8ff" points="239.32,-170.88 247.33,-177.82 245.4,-167.4 239.32,-170.88"/>
</a>
</g>
</g>
<!-- Node21 -->
<g id="Node000021" class="node">
<title>Node21</title>
<g id="a_Node000021"><a xlink:href="../../d7/d15/examples_2_bilinear_compression_2src_2wave_8cpp_a1490bc485ae20e1825270825721a84e9.html#a1490bc485ae20e1825270825721a84e9" target="_top" xlink:title=" ">
<polygon fill="#fff0f0" stroke="red" points="141,-19 10,-19 10,0 141,0 141,-19"/>
<text text-anchor="middle" x="75.5" y="-7" font-family="Helvetica,sans-Serif" font-size="10.00">NewWaveSimulation2D</text>
</a>
</g>
</g>
<!-- Node8&#45;&gt;Node21 -->
<g id="edge17_Node000008_Node000021" class="edge">
<title>Node8&#45;&gt;Node21</title>
<g id="a_edge17_Node000008_Node000021"><a xlink:title=" ">
<path fill="none" stroke="#63b8ff" d="M245.77,-168.06C232.95,-134.02 201.69,-63.78 151,-27.5 146.24,-24.09 140.91,-21.32 135.36,-19.08"/>
<polygon fill="#63b8ff" stroke="#63b8ff" points="242.59,-169.55 249.29,-177.75 249.17,-167.16 242.59,-169.55"/>
</a>
</g>
</g>
</g>
</svg>
