<?xml version="1.0" encoding="UTF-8" standalone="no"?>
<!DOCTYPE svg PUBLIC "-//W3C//DTD SVG 1.1//EN"
 "http://www.w3.org/Graphics/SVG/1.1/DTD/svg11.dtd">
<!-- Generated by graphviz version 2.43.0 (0)
 -->
<!-- Title: fl::Ptr::Ptr Pages: 1 -->
<svg width="543pt" height="184pt"
 viewBox="0.00 0.00 543.00 184.00" xmlns="http://www.w3.org/2000/svg" xmlns:xlink="http://www.w3.org/1999/xlink">
<g id="graph0" class="graph" transform="scale(1 1) rotate(0) translate(4 180)">
<title>fl::Ptr::Ptr</title>
<!-- Node1 -->
<g id="Node000001" class="node">
<title>Node1</title>
<g id="a_Node000001"><a xlink:title=" ">
<polygon fill="#999999" stroke="#666666" points="535,-111 473,-111 473,-92 535,-92 535,-111"/>
<text text-anchor="middle" x="504" y="-99" font-family="Helvetica,sans-Serif" font-size="10.00">fl::Ptr::Ptr</text>
</a>
</g>
</g>
<!-- Node2 -->
<g id="Node000002" class="node">
<title>Node2</title>
<g id="a_Node000002"><a xlink:href="../../d1/d56/classfl_1_1_ptr_a634e230ee0f4e89e43a2e127aca31aee.html#a634e230ee0f4e89e43a2e127aca31aee" target="_top" xlink:title=" ">
<polygon fill="white" stroke="#666666" points="427,-148 325,-148 325,-129 427,-129 427,-148"/>
<text text-anchor="middle" x="376" y="-136" font-family="Helvetica,sans-Serif" font-size="10.00">fl::Ptr::NoTracking</text>
</a>
</g>
</g>
<!-- Node1&#45;&gt;Node2 -->
<g id="edge1_Node000001_Node000002" class="edge">
<title>Node1&#45;&gt;Node2</title>
<g id="a_edge1_Node000001_Node000002"><a xlink:title=" ">
<path fill="none" stroke="#63b8ff" d="M463.03,-113.24C445.8,-118.3 425.9,-124.14 409.58,-128.93"/>
<polygon fill="#63b8ff" stroke="#63b8ff" points="464.21,-116.54 472.82,-110.36 462.24,-109.82 464.21,-116.54"/>
</a>
</g>
</g>
<!-- Node6 -->
<g id="Node000006" class="node">
<title>Node6</title>
<g id="a_Node000006"><a xlink:href="../../d1/d56/classfl_1_1_ptr_a8910ab8d8a66c7d9f94b75362f9ed83a.html#a8910ab8d8a66c7d9f94b75362f9ed83a" target="_top" xlink:title=" ">
<polygon fill="white" stroke="#666666" points="410,-111 342,-111 342,-92 410,-92 410,-111"/>
<text text-anchor="middle" x="376" y="-99" font-family="Helvetica,sans-Serif" font-size="10.00">fl::Ptr::Null</text>
</a>
</g>
</g>
<!-- Node1&#45;&gt;Node6 -->
<g id="edge6_Node000001_Node000006" class="edge">
<title>Node1&#45;&gt;Node6</title>
<g id="a_edge6_Node000001_Node000006"><a xlink:title=" ">
<path fill="none" stroke="#63b8ff" d="M462.63,-101.5C445.65,-101.5 426.13,-101.5 410.03,-101.5"/>
<polygon fill="#63b8ff" stroke="#63b8ff" points="462.82,-105 472.82,-101.5 462.82,-98 462.82,-105"/>
</a>
</g>
</g>
<!-- Node7 -->
<g id="Node000007" class="node">
<title>Node7</title>
<g id="a_Node000007"><a xlink:href="../../d1/d56/classfl_1_1_ptr_a2895e9ece61a2b6fdd33f8195033cfbe.html#a2895e9ece61a2b6fdd33f8195033cfbe" target="_top" xlink:title=" ">
<polygon fill="white" stroke="#666666" points="437,-74 315,-74 315,-55 437,-55 437,-74"/>
<text text-anchor="middle" x="376" y="-62" font-family="Helvetica,sans-Serif" font-size="10.00">fl::Ptr::TakeOwnership</text>
</a>
</g>
</g>
<!-- Node1&#45;&gt;Node7 -->
<g id="edge7_Node000001_Node000007" class="edge">
<title>Node1&#45;&gt;Node7</title>
<g id="a_edge7_Node000001_Node000007"><a xlink:title=" ">
<path fill="none" stroke="#63b8ff" d="M463.03,-89.76C445.8,-84.7 425.9,-78.86 409.58,-74.07"/>
<polygon fill="#63b8ff" stroke="#63b8ff" points="462.24,-93.18 472.82,-92.64 464.21,-86.46 462.24,-93.18"/>
</a>
</g>
</g>
<!-- Node3 -->
<g id="Node000003" class="node">
<title>Node3</title>
<g id="a_Node000003"><a xlink:href="../../d4/d60/classfl_1_1_fx_engine_ae7fcd8e1299e27e323cb96069321200b.html#ae7fcd8e1299e27e323cb96069321200b" target="_top" xlink:title="Adds a new effect to the engine.">
<polygon fill="white" stroke="#666666" points="279,-158 169,-158 169,-139 279,-139 279,-158"/>
<text text-anchor="middle" x="224" y="-146" font-family="Helvetica,sans-Serif" font-size="10.00">fl::FxEngine::addFx</text>
</a>
</g>
</g>
<!-- Node2&#45;&gt;Node3 -->
<g id="edge2_Node000002_Node000003" class="edge">
<title>Node2&#45;&gt;Node3</title>
<g id="a_edge2_Node000002_Node000003"><a xlink:title=" ">
<path fill="none" stroke="#63b8ff" d="M314.5,-142.53C302.79,-143.31 290.58,-144.13 279.09,-144.89"/>
<polygon fill="#63b8ff" stroke="#63b8ff" points="314.89,-146.02 324.63,-141.86 314.42,-139.03 314.89,-146.02"/>
</a>
</g>
</g>
<!-- Node4 -->
<g id="Node000004" class="node">
<title>Node4</title>
<g id="a_Node000004"><a xlink:href="../../db/d77/classfl_1_1_weak_ptr_ac52bc006cef9fef0774e23023aa5d9f2.html#ac52bc006cef9fef0774e23023aa5d9f2" target="_top" xlink:title=" ">
<polygon fill="white" stroke="#666666" points="271.5,-121 176.5,-121 176.5,-102 271.5,-102 271.5,-121"/>
<text text-anchor="middle" x="224" y="-109" font-family="Helvetica,sans-Serif" font-size="10.00">fl::WeakPtr::lock</text>
</a>
</g>
</g>
<!-- Node2&#45;&gt;Node4 -->
<g id="edge4_Node000002_Node000004" class="edge">
<title>Node2&#45;&gt;Node4</title>
<g id="a_edge4_Node000002_Node000004"><a xlink:title=" ">
<path fill="none" stroke="#63b8ff" d="M314.42,-127.6C300.18,-125.03 285.21,-122.34 271.69,-119.9"/>
<polygon fill="#63b8ff" stroke="#63b8ff" points="314.17,-131.11 324.63,-129.43 315.41,-124.22 314.17,-131.11"/>
</a>
</g>
</g>
<!-- Node3&#45;&gt;Node3 -->
<g id="edge3_Node000003_Node000003" class="edge">
<title>Node3&#45;&gt;Node3</title>
<g id="a_edge3_Node000003_Node000003"><a xlink:title=" ">
<path fill="none" stroke="#63b8ff" d="M252.37,-166.82C251.19,-172.01 241.73,-176 224,-176 196.98,-176 189.18,-166.73 200.57,-158.08"/>
<polygon fill="#63b8ff" stroke="#63b8ff" points="255.4,-165.06 247.43,-158.08 249.31,-168.51 255.4,-165.06"/>
</a>
</g>
</g>
<!-- Node5 -->
<g id="Node000005" class="node">
<title>Node5</title>
<g id="a_Node000005"><a xlink:href="../../db/d77/classfl_1_1_weak_ptr_a0e8a300bcc2b04d7f60b0ad7265f23da.html#a0e8a300bcc2b04d7f60b0ad7265f23da" target="_top" xlink:title=" ">
<polygon fill="white" stroke="#666666" points="133,-130 0,-130 0,-111 133,-111 133,-130"/>
<text text-anchor="middle" x="66.5" y="-118" font-family="Helvetica,sans-Serif" font-size="10.00">fl::WeakPtr::operator==</text>
</a>
</g>
</g>
<!-- Node4&#45;&gt;Node5 -->
<g id="edge5_Node000004_Node000005" class="edge">
<title>Node4&#45;&gt;Node5</title>
<g id="a_edge5_Node000004_Node000005"><a xlink:title=" ">
<path fill="none" stroke="#63b8ff" d="M166.23,-114.79C155.46,-115.41 144.11,-116.07 133.09,-116.7"/>
<polygon fill="#63b8ff" stroke="#63b8ff" points="166.56,-118.27 176.34,-114.2 166.16,-111.28 166.56,-118.27"/>
</a>
</g>
</g>
<!-- Node7&#45;&gt;Node4 -->
<g id="edge8_Node000007_Node000004" class="edge">
<title>Node7&#45;&gt;Node4</title>
<g id="a_edge8_Node000007_Node000004"><a xlink:title=" ">
<path fill="none" stroke="#63b8ff" d="M335.1,-77C310.15,-84.82 278.52,-94.73 255.57,-101.92"/>
<polygon fill="#63b8ff" stroke="#63b8ff" points="336.15,-80.34 344.65,-74.01 334.06,-73.66 336.15,-80.34"/>
</a>
</g>
</g>
<!-- Node8 -->
<g id="Node000008" class="node">
<title>Node8</title>
<g id="a_Node000008"><a xlink:href="../../da/d84/classfl_1_1_ptr_traits_a6f44b5dc3ee20b4ba14ed6b765cfa776.html#a6f44b5dc3ee20b4ba14ed6b765cfa776" target="_top" xlink:title=" ">
<polygon fill="white" stroke="#666666" points="272,-74 176,-74 176,-55 272,-55 272,-74"/>
<text text-anchor="middle" x="224" y="-62" font-family="Helvetica,sans-Serif" font-size="10.00">fl::PtrTraits::New</text>
</a>
</g>
</g>
<!-- Node7&#45;&gt;Node8 -->
<g id="edge9_Node000007_Node000008" class="edge">
<title>Node7&#45;&gt;Node8</title>
<g id="a_edge9_Node000007_Node000008"><a xlink:title=" ">
<path fill="none" stroke="#63b8ff" d="M304.79,-64.5C293.75,-64.5 282.58,-64.5 272.23,-64.5"/>
<polygon fill="#63b8ff" stroke="#63b8ff" points="304.85,-68 314.85,-64.5 304.85,-61 304.85,-68"/>
</a>
</g>
</g>
<!-- Node12 -->
<g id="Node000012" class="node">
<title>Node12</title>
<g id="a_Node000012"><a xlink:href="../../da/d84/classfl_1_1_ptr_traits_a8f1f367153b1047c93dc60fa54ac117d.html#a8f1f367153b1047c93dc60fa54ac117d" target="_top" xlink:title=" ">
<polygon fill="white" stroke="#666666" points="272,-37 176,-37 176,-18 272,-18 272,-37"/>
<text text-anchor="middle" x="224" y="-25" font-family="Helvetica,sans-Serif" font-size="10.00">fl::PtrTraits::New</text>
</a>
</g>
</g>
<!-- Node7&#45;&gt;Node12 -->
<g id="edge13_Node000007_Node000012" class="edge">
<title>Node7&#45;&gt;Node12</title>
<g id="a_edge13_Node000007_Node000012"><a xlink:title=" ">
<path fill="none" stroke="#63b8ff" d="M326.66,-52.57C306.31,-47.56 282.95,-41.79 263.76,-37.06"/>
<polygon fill="#63b8ff" stroke="#63b8ff" points="325.82,-55.97 336.37,-54.97 327.5,-49.18 325.82,-55.97"/>
</a>
</g>
</g>
<!-- Node9 -->
<g id="Node000009" class="node">
<title>Node9</title>
<g id="a_Node000009"><a xlink:href="../../db/d77/classfl_1_1_weak_ptr_ae5e7b086bce142fafeda9fd7857a2522.html#ae5e7b086bce142fafeda9fd7857a2522" target="_top" xlink:title=" ">
<polygon fill="white" stroke="#666666" points="124.5,-93 8.5,-93 8.5,-74 124.5,-74 124.5,-93"/>
<text text-anchor="middle" x="66.5" y="-81" font-family="Helvetica,sans-Serif" font-size="10.00">fl::WeakPtr::WeakPtr</text>
</a>
</g>
</g>
<!-- Node8&#45;&gt;Node9 -->
<g id="edge10_Node000008_Node000009" class="edge">
<title>Node8&#45;&gt;Node9</title>
<g id="a_edge10_Node000008_Node000009"><a xlink:title=" ">
<path fill="none" stroke="#63b8ff" d="M165.83,-71.49C152.37,-73.13 138.02,-74.88 124.57,-76.53"/>
<polygon fill="#63b8ff" stroke="#63b8ff" points="166.42,-74.94 175.92,-70.25 165.57,-67.99 166.42,-74.94"/>
</a>
</g>
</g>
<!-- Node10 -->
<g id="Node000010" class="node">
<title>Node10</title>
<g id="a_Node000010"><a xlink:href="../../db/d77/classfl_1_1_weak_ptr_a91f5017c37790d882d59ac3517dbb7da.html#a91f5017c37790d882d59ac3517dbb7da" target="_top" xlink:title=" ">
<polygon fill="white" stroke="#666666" points="124.5,-56 8.5,-56 8.5,-37 124.5,-37 124.5,-56"/>
<text text-anchor="middle" x="66.5" y="-44" font-family="Helvetica,sans-Serif" font-size="10.00">fl::WeakPtr::WeakPtr</text>
</a>
</g>
</g>
<!-- Node8&#45;&gt;Node10 -->
<g id="edge11_Node000008_Node000010" class="edge">
<title>Node8&#45;&gt;Node10</title>
<g id="a_edge11_Node000008_Node000010"><a xlink:title=" ">
<path fill="none" stroke="#63b8ff" d="M165.83,-57.88C152.37,-56.32 138.02,-54.66 124.57,-53.11"/>
<polygon fill="#63b8ff" stroke="#63b8ff" points="165.59,-61.38 175.92,-59.05 166.39,-54.42 165.59,-61.38"/>
</a>
</g>
</g>
<!-- Node11 -->
<g id="Node000011" class="node">
<title>Node11</title>
<g id="a_Node000011"><a xlink:href="../../d1/d56/classfl_1_1_ptr_a4041b6379499b8faf0626509cbb9d357.html#a4041b6379499b8faf0626509cbb9d357" target="_top" xlink:title=" ">
<polygon fill="white" stroke="#666666" points="101.5,-19 31.5,-19 31.5,0 101.5,0 101.5,-19"/>
<text text-anchor="middle" x="66.5" y="-7" font-family="Helvetica,sans-Serif" font-size="10.00">fl::Ptr::New</text>
</a>
</g>
</g>
<!-- Node8&#45;&gt;Node11 -->
<g id="edge12_Node000008_Node000011" class="edge">
<title>Node8&#45;&gt;Node11</title>
<g id="a_edge12_Node000008_Node000011"><a xlink:title=" ">
<path fill="none" stroke="#63b8ff" d="M182.15,-51.57C177.68,-49.95 173.22,-48.25 169,-46.5 152.47,-39.65 149.66,-35.02 133,-28.5 122.97,-24.57 111.79,-21.04 101.55,-18.11"/>
<polygon fill="#63b8ff" stroke="#63b8ff" points="181.29,-54.98 191.88,-54.96 183.59,-48.37 181.29,-54.98"/>
</a>
</g>
</g>
</g>
</svg>
