<?xml version="1.0" encoding="UTF-8" standalone="no"?>
<!DOCTYPE svg PUBLIC "-//W3C//DTD SVG 1.1//EN"
 "http://www.w3.org/Graphics/SVG/1.1/DTD/svg11.dtd">
<!-- Generated by graphviz version 2.43.0 (0)
 -->
<!-- Title: fl::Ptr::weakRefNoCreate Pages: 1 -->
<svg width="342pt" height="101pt"
 viewBox="0.00 0.00 342.00 101.00" xmlns="http://www.w3.org/2000/svg" xmlns:xlink="http://www.w3.org/1999/xlink">
<g id="graph0" class="graph" transform="scale(1 1) rotate(0) translate(4 97)">
<title>fl::Ptr::weakRefNoCreate</title>
<!-- Node1 -->
<g id="Node000001" class="node">
<title>Node1</title>
<g id="a_Node000001"><a xlink:title=" ">
<polygon fill="#999999" stroke="#666666" points="137,-56 0,-56 0,-37 137,-37 137,-56"/>
<text text-anchor="middle" x="68.5" y="-44" font-family="Helvetica,sans-Serif" font-size="10.00">fl::Ptr::weakRefNoCreate</text>
</a>
</g>
</g>
<!-- Node2 -->
<g id="Node000002" class="node">
<title>Node2</title>
<g id="a_Node000002"><a xlink:href="../../d4/d36/namespacefl_aaad7bab3a46c3353c72c671c8372be3e.html#aaad7bab3a46c3353c72c671c8372be3e" target="_top" xlink:title=" ">
<polygon fill="white" stroke="#666666" points="275.5,-93 231.5,-93 231.5,-74 275.5,-74 275.5,-93"/>
<text text-anchor="middle" x="253.5" y="-81" font-family="Helvetica,sans-Serif" font-size="10.00">fl::get</text>
</a>
</g>
</g>
<!-- Node1&#45;&gt;Node2 -->
<g id="edge1_Node000001_Node000002" class="edge">
<title>Node1&#45;&gt;Node2</title>
<g id="a_edge1_Node000001_Node000002"><a xlink:title=" ">
<path fill="none" stroke="#63b8ff" d="M116.63,-56.03C149.64,-62.7 192.82,-71.43 221.55,-77.24"/>
<polygon fill="#63b8ff" stroke="#63b8ff" points="220.94,-80.69 231.43,-79.24 222.32,-73.83 220.94,-80.69"/>
</a>
</g>
</g>
<!-- Node3 -->
<g id="Node000003" class="node">
<title>Node3</title>
<g id="a_Node000003"><a xlink:href="../../dd/da7/classfl_1_1_weak_referent_aa9f29b142e36e27df3673a3739abd756.html#aa9f29b142e36e27df3673a3739abd756" target="_top" xlink:title=" ">
<polygon fill="white" stroke="#666666" points="334,-56 173,-56 173,-37 334,-37 334,-56"/>
<text text-anchor="middle" x="253.5" y="-44" font-family="Helvetica,sans-Serif" font-size="10.00">fl::WeakReferent::getReferent</text>
</a>
</g>
</g>
<!-- Node1&#45;&gt;Node3 -->
<g id="edge2_Node000001_Node000003" class="edge">
<title>Node1&#45;&gt;Node3</title>
<g id="a_edge2_Node000001_Node000003"><a xlink:title=" ">
<path fill="none" stroke="#63b8ff" d="M137.12,-46.5C145.47,-46.5 154.09,-46.5 162.7,-46.5"/>
<polygon fill="#63b8ff" stroke="#63b8ff" points="162.78,-50 172.78,-46.5 162.78,-43 162.78,-50"/>
</a>
</g>
</g>
<!-- Node4 -->
<g id="Node000004" class="node">
<title>Node4</title>
<g id="a_Node000004"><a xlink:href="../../dd/da7/classfl_1_1_weak_referent_a958daf37aed302c5fc672dcb2749b5bd.html#a958daf37aed302c5fc672dcb2749b5bd" target="_top" xlink:title=" ">
<polygon fill="white" stroke="#666666" points="312,-19 195,-19 195,0 312,0 312,-19"/>
<text text-anchor="middle" x="253.5" y="-7" font-family="Helvetica,sans-Serif" font-size="10.00">fl::WeakReferent::ref</text>
</a>
</g>
</g>
<!-- Node1&#45;&gt;Node4 -->
<g id="edge3_Node000001_Node000004" class="edge">
<title>Node1&#45;&gt;Node4</title>
<g id="a_edge3_Node000001_Node000004"><a xlink:title=" ">
<path fill="none" stroke="#63b8ff" d="M116.63,-36.97C140.65,-32.11 170.07,-26.17 195.38,-21.05"/>
<polygon fill="#63b8ff" stroke="#63b8ff" points="196.11,-24.47 205.21,-19.06 194.72,-17.61 196.11,-24.47"/>
</a>
</g>
</g>
</g>
</svg>
