<?xml version="1.0" encoding="UTF-8" standalone="no"?>
<!DOCTYPE svg PUBLIC "-//W3C//DTD SVG 1.1//EN"
 "http://www.w3.org/Graphics/SVG/1.1/DTD/svg11.dtd">
<!-- Generated by graphviz version 2.43.0 (0)
 -->
<!-- Title: fl::json_value::parse2 Pages: 1 -->
<svg width="725pt" height="452pt"
 viewBox="0.00 0.00 725.00 452.00" xmlns="http://www.w3.org/2000/svg" xmlns:xlink="http://www.w3.org/1999/xlink">
<g id="graph0" class="graph" transform="scale(1 1) rotate(0) translate(4 448)">
<title>fl::json_value::parse2</title>
<!-- Node1 -->
<g id="Node000001" class="node">
<title>Node1</title>
<g id="a_Node000001"><a xlink:title=" ">
<polygon fill="#999999" stroke="#666666" points="717,-214 597,-214 597,-195 717,-195 717,-214"/>
<text text-anchor="middle" x="657" y="-202" font-family="Helvetica,sans-Serif" font-size="10.00">fl::json_value::parse2</text>
</a>
</g>
</g>
<!-- Node2 -->
<g id="Node000002" class="node">
<title>Node2</title>
<g id="a_Node000002"><a xlink:href="../../de/d40/classfl_1_1json_af7d8a65ad376b44e25bf9653bcac2405.html#af7d8a65ad376b44e25bf9653bcac2405" target="_top" xlink:title=" ">
<polygon fill="white" stroke="#666666" points="535.5,-251 453.5,-251 453.5,-232 535.5,-232 535.5,-251"/>
<text text-anchor="middle" x="494.5" y="-239" font-family="Helvetica,sans-Serif" font-size="10.00">fl::json::parse</text>
</a>
</g>
</g>
<!-- Node1&#45;&gt;Node2 -->
<g id="edge1_Node000001_Node000002" class="edge">
<title>Node1&#45;&gt;Node2</title>
<g id="a_edge1_Node000001_Node000002"><a xlink:title=" ">
<path fill="none" stroke="#63b8ff" d="M604.67,-216.33C582.31,-221.49 556.5,-227.44 535.58,-232.26"/>
<polygon fill="#63b8ff" stroke="#63b8ff" points="605.71,-219.69 614.67,-214.03 604.14,-212.86 605.71,-219.69"/>
</a>
</g>
</g>
<!-- Node33 -->
<g id="Node000033" class="node">
<title>Node33</title>
<g id="a_Node000033"><a xlink:href="../../dc/dec/structfl_1_1json__value_a0d415936f5ab4533cc7fb899057b081f.html#a0d415936f5ab4533cc7fb899057b081f" target="_top" xlink:title=" ">
<polygon fill="white" stroke="#666666" points="554.5,-214 434.5,-214 434.5,-195 554.5,-195 554.5,-214"/>
<text text-anchor="middle" x="494.5" y="-202" font-family="Helvetica,sans-Serif" font-size="10.00">fl::json_value::parse2</text>
</a>
</g>
</g>
<!-- Node1&#45;&gt;Node33 -->
<g id="edge23_Node000001_Node000033" class="edge">
<title>Node1&#45;&gt;Node33</title>
<g id="a_edge23_Node000001_Node000033"><a xlink:title=" ">
<path fill="none" stroke="#63b8ff" d="M586.57,-204.5C575.9,-204.5 564.98,-204.5 554.56,-204.5"/>
<polygon fill="#63b8ff" stroke="#63b8ff" points="586.69,-208 596.69,-204.5 586.69,-201 586.69,-208"/>
</a>
</g>
</g>
<!-- Node34 -->
<g id="Node000034" class="node">
<title>Node34</title>
<g id="a_Node000034"><a xlink:href="../../dc/dec/structfl_1_1json__value_a27d5ce4bb457c6c3669c87fe89160cbd.html#a27d5ce4bb457c6c3669c87fe89160cbd" target="_top" xlink:title=" ">
<polygon fill="white" stroke="#666666" points="561,-158.5 428,-158.5 428,-128.5 561,-128.5 561,-158.5"/>
<text text-anchor="start" x="436" y="-146.5" font-family="Helvetica,sans-Serif" font-size="10.00">fl::json_value::Serializer</text>
<text text-anchor="middle" x="494.5" y="-135.5" font-family="Helvetica,sans-Serif" font-size="10.00">Visitor</text>
</a>
</g>
</g>
<!-- Node1&#45;&gt;Node34 -->
<g id="edge24_Node000001_Node000034" class="edge">
<title>Node1&#45;&gt;Node34</title>
<g id="a_edge24_Node000001_Node000034"><a xlink:title=" ">
<path fill="none" stroke="#63b8ff" d="M621.34,-191.33C595.98,-181.69 561.52,-168.59 535.07,-158.54"/>
<polygon fill="#63b8ff" stroke="#63b8ff" points="620.33,-194.69 630.92,-194.97 622.82,-188.14 620.33,-194.69"/>
</a>
</g>
</g>
<!-- Node2&#45;&gt;Node2 -->
<g id="edge9_Node000002_Node000002" class="edge">
<title>Node2&#45;&gt;Node2</title>
<g id="a_edge9_Node000002_Node000002"><a xlink:title=" ">
<path fill="none" stroke="#63b8ff" d="M524.74,-259.82C523.48,-265.01 513.4,-269 494.5,-269 465.71,-269 457.38,-259.73 469.53,-251.08"/>
<polygon fill="#63b8ff" stroke="#63b8ff" points="527.63,-257.84 519.47,-251.08 521.64,-261.45 527.63,-257.84"/>
</a>
</g>
</g>
<!-- Node3 -->
<g id="Node000003" class="node">
<title>Node3</title>
<g id="a_Node000003"><a xlink:href="../../d4/d36/namespacefl_a6913bcc5545eb4b029ec170d48a14766.html#a6913bcc5545eb4b029ec170d48a14766" target="_top" xlink:title="Create a JSON&#45;RPC RequestSource that reads from fl:: serial input.">
<polygon fill="white" stroke="#666666" points="379.5,-407 219.5,-407 219.5,-388 379.5,-388 379.5,-407"/>
<text text-anchor="middle" x="299.5" y="-395" font-family="Helvetica,sans-Serif" font-size="10.00">fl::createSerialRequestSource</text>
</a>
</g>
</g>
<!-- Node2&#45;&gt;Node3 -->
<g id="edge2_Node000002_Node000003" class="edge">
<title>Node2&#45;&gt;Node3</title>
<g id="a_edge2_Node000002_Node000003"><a xlink:title=" ">
<path fill="none" stroke="#63b8ff" d="M485.17,-260.57C470.83,-290.97 438.5,-349.99 392,-379.5 386.67,-382.88 380.84,-385.65 374.78,-387.92"/>
<polygon fill="#63b8ff" stroke="#63b8ff" points="488.52,-261.66 489.48,-251.11 482.15,-258.76 488.52,-261.66"/>
</a>
</g>
</g>
<!-- Node6 -->
<g id="Node000006" class="node">
<title>Node6</title>
<g id="a_Node000006"><a xlink:href="../../d7/dd1/classfl_1_1_rpc_a16bb9675b8d15f3713e49fbb5a8b05a3.html#a16bb9675b8d15f3713e49fbb5a8b05a3" target="_top" xlink:title="Process a JSON&#45;RPC request.">
<polygon fill="white" stroke="#666666" points="342.5,-370 256.5,-370 256.5,-351 342.5,-351 342.5,-370"/>
<text text-anchor="middle" x="299.5" y="-358" font-family="Helvetica,sans-Serif" font-size="10.00">fl::Rpc::handle</text>
</a>
</g>
</g>
<!-- Node2&#45;&gt;Node6 -->
<g id="edge5_Node000002_Node000006" class="edge">
<title>Node2&#45;&gt;Node6</title>
<g id="a_edge5_Node000002_Node000006"><a xlink:title=" ">
<path fill="none" stroke="#63b8ff" d="M479.43,-259.22C461.43,-280.71 428.21,-316.51 392,-336.5 376.9,-344.83 358.8,-350.37 342.69,-354"/>
<polygon fill="#63b8ff" stroke="#63b8ff" points="482.35,-261.19 485.98,-251.24 476.93,-256.75 482.35,-261.19"/>
</a>
</g>
</g>
<!-- Node7 -->
<g id="Node000007" class="node">
<title>Node7</title>
<g id="a_Node000007"><a xlink:href="../../d7/dd1/classfl_1_1_rpc_acfc87927e9e6affe54e4f2861adac5fd.html#acfc87927e9e6affe54e4f2861adac5fd" target="_top" xlink:title="For notifications (no id), returns nullopt.">
<polygon fill="white" stroke="#666666" points="148,-363 23,-363 23,-344 148,-344 148,-363"/>
<text text-anchor="middle" x="85.5" y="-351" font-family="Helvetica,sans-Serif" font-size="10.00">fl::Rpc::handle_maybe</text>
</a>
</g>
</g>
<!-- Node2&#45;&gt;Node7 -->
<g id="edge7_Node000002_Node000007" class="edge">
<title>Node2&#45;&gt;Node7</title>
<g id="a_edge7_Node000002_Node000007"><a xlink:title=" ">
<path fill="none" stroke="#63b8ff" d="M473,-257.34C453.32,-271.7 422.22,-292.29 392,-303.5 348.41,-319.67 224.22,-336.82 148.27,-346.24"/>
<polygon fill="#63b8ff" stroke="#63b8ff" points="475.26,-260.01 481.19,-251.23 471.08,-254.4 475.26,-260.01"/>
</a>
</g>
</g>
<!-- Node8 -->
<g id="Node000008" class="node">
<title>Node8</title>
<g id="a_Node000008"><a xlink:href="../../d3/df6/_remote_8ino_afe461d27b9c48d5921c00d521181f12f.html#afe461d27b9c48d5921c00d521181f12f" target="_top" xlink:title=" ">
<polygon fill="white" stroke="#666666" points="318.5,-294 280.5,-294 280.5,-275 318.5,-275 318.5,-294"/>
<text text-anchor="middle" x="299.5" y="-282" font-family="Helvetica,sans-Serif" font-size="10.00">loop</text>
</a>
</g>
</g>
<!-- Node2&#45;&gt;Node8 -->
<g id="edge8_Node000002_Node000008" class="edge">
<title>Node2&#45;&gt;Node8</title>
<g id="a_edge8_Node000002_Node000008"><a xlink:title=" ">
<path fill="none" stroke="#63b8ff" d="M444.03,-253.48C427.51,-257.41 408.98,-261.73 392,-265.5 366.66,-271.13 337.25,-277.14 318.76,-280.86"/>
<polygon fill="#63b8ff" stroke="#63b8ff" points="445.12,-256.82 454.03,-251.1 443.49,-250.01 445.12,-256.82"/>
</a>
</g>
</g>
<!-- Node9 -->
<g id="Node000009" class="node">
<title>Node9</title>
<g id="a_Node000009"><a xlink:href="../../d0/dd1/classfl_1_1net_1_1http_1_1_response_aa7ab961e382572de8e991ea8bb6b5907.html#aa7ab961e382572de8e991ea8bb6b5907" target="_top" xlink:title="Parse JSON from response body with error handling.">
<polygon fill="white" stroke="#666666" points="361,-256.5 238,-256.5 238,-226.5 361,-226.5 361,-256.5"/>
<text text-anchor="start" x="246" y="-244.5" font-family="Helvetica,sans-Serif" font-size="10.00">fl::net::http::Response</text>
<text text-anchor="middle" x="299.5" y="-233.5" font-family="Helvetica,sans-Serif" font-size="10.00">::parse_json_body</text>
</a>
</g>
</g>
<!-- Node2&#45;&gt;Node9 -->
<g id="edge10_Node000002_Node000009" class="edge">
<title>Node2&#45;&gt;Node9</title>
<g id="a_edge10_Node000002_Node000009"><a xlink:title=" ">
<path fill="none" stroke="#63b8ff" d="M443,-241.5C417.92,-241.5 387.42,-241.5 361.08,-241.5"/>
<polygon fill="#63b8ff" stroke="#63b8ff" points="443.04,-245 453.04,-241.5 443.04,-238 443.04,-245"/>
</a>
</g>
</g>
<!-- Node14 -->
<g id="Node000014" class="node">
<title>Node14</title>
<g id="a_Node000014"><a xlink:href="../../db/d4e/classfl_1_1net_1_1http_1_1_http_stream_transport_abcd0cfab5c8828fed71b4eb662761dc4.html#abcd0cfab5c8828fed71b4eb662761dc4" target="_top" xlink:title=" ">
<polygon fill="white" stroke="#666666" points="392,-208.5 207,-208.5 207,-178.5 392,-178.5 392,-208.5"/>
<text text-anchor="start" x="215" y="-196.5" font-family="Helvetica,sans-Serif" font-size="10.00">fl::net::http::HttpStream</text>
<text text-anchor="middle" x="299.5" y="-185.5" font-family="Helvetica,sans-Serif" font-size="10.00">Transport::parseChunkedMessages</text>
</a>
</g>
</g>
<!-- Node2&#45;&gt;Node14 -->
<g id="edge12_Node000002_Node000014" class="edge">
<title>Node2&#45;&gt;Node14</title>
<g id="a_edge12_Node000002_Node000014"><a xlink:title=" ">
<path fill="none" stroke="#63b8ff" d="M445.1,-229.46C419.63,-223.13 388.15,-215.3 361.07,-208.56"/>
<polygon fill="#63b8ff" stroke="#63b8ff" points="444.36,-232.88 454.91,-231.9 446.05,-226.09 444.36,-232.88"/>
</a>
</g>
</g>
<!-- Node24 -->
<g id="Node000024" class="node">
<title>Node24</title>
<g id="a_Node000024"><a xlink:href="../../d2/d78/classfl_1_1_screen_map_a9cc622d744a509ca7d0bd5a66bb4812d.html#a9cc622d744a509ca7d0bd5a66bb4812d" target="_top" xlink:title=" ">
<polygon fill="white" stroke="#666666" points="367,-149 232,-149 232,-130 367,-130 367,-149"/>
<text text-anchor="middle" x="299.5" y="-137" font-family="Helvetica,sans-Serif" font-size="10.00">fl::ScreenMap::ParseJson</text>
</a>
</g>
</g>
<!-- Node2&#45;&gt;Node24 -->
<g id="edge15_Node000002_Node000024" class="edge">
<title>Node2&#45;&gt;Node24</title>
<g id="a_edge15_Node000002_Node000024"><a xlink:title=" ">
<path fill="none" stroke="#63b8ff" d="M443.8,-231.99C438.18,-229.74 432.78,-226.95 428,-223.5 404.62,-206.61 414.97,-186.95 392,-169.5 379.62,-160.09 364.16,-153.56 349.49,-149.06"/>
<polygon fill="#63b8ff" stroke="#63b8ff" points="442.76,-235.34 453.35,-235.31 445.05,-228.72 442.76,-235.34"/>
</a>
</g>
</g>
<!-- Node31 -->
<g id="Node000031" class="node">
<title>Node31</title>
<g id="a_Node000031"><a xlink:href="../../df/d37/classfl_1_1_file_system_a5e985529e5c616ff32cfe940201ee5f6.html#a5e985529e5c616ff32cfe940201ee5f6" target="_top" xlink:title=" ">
<polygon fill="white" stroke="#666666" points="365,-112 234,-112 234,-93 365,-93 365,-112"/>
<text text-anchor="middle" x="299.5" y="-100" font-family="Helvetica,sans-Serif" font-size="10.00">fl::FileSystem::readJson</text>
</a>
</g>
</g>
<!-- Node2&#45;&gt;Node31 -->
<g id="edge21_Node000002_Node000031" class="edge">
<title>Node2&#45;&gt;Node31</title>
<g id="a_edge21_Node000002_Node000031"><a xlink:title=" ">
<path fill="none" stroke="#63b8ff" d="M443.52,-233.37C437.83,-230.89 432.48,-227.67 428,-223.5 392.82,-190.74 428.2,-153.13 392,-121.5 384.43,-114.88 375.15,-110.35 365.45,-107.29"/>
<polygon fill="#63b8ff" stroke="#63b8ff" points="442.73,-236.81 453.32,-236.89 445.09,-230.22 442.73,-236.81"/>
</a>
</g>
</g>
<!-- Node32 -->
<g id="Node000032" class="node">
<title>Node32</title>
<g id="a_Node000032"><a xlink:href="../../d3/d1f/_server_real_8h_a4fc01d736fe50cf5b977f755b675f11d.html#a4fc01d736fe50cf5b977f755b675f11d" target="_top" xlink:title=" ">
<polygon fill="white" stroke="#666666" points="321.5,-75 277.5,-75 277.5,-56 321.5,-56 321.5,-75"/>
<text text-anchor="middle" x="299.5" y="-63" font-family="Helvetica,sans-Serif" font-size="10.00">setup</text>
</a>
</g>
</g>
<!-- Node2&#45;&gt;Node32 -->
<g id="edge22_Node000002_Node000032" class="edge">
<title>Node2&#45;&gt;Node32</title>
<g id="a_edge22_Node000002_Node000032"><a xlink:title=" ">
<path fill="none" stroke="#63b8ff" d="M443.8,-234.01C437.93,-231.44 432.45,-228.02 428,-223.5 383.21,-178.04 438.21,-128.51 392,-84.5 373.2,-66.6 342.16,-63.65 321.52,-63.96"/>
<polygon fill="#63b8ff" stroke="#63b8ff" points="442.67,-237.32 453.26,-237.4 445.03,-230.73 442.67,-237.32"/>
</a>
</g>
</g>
<!-- Node4 -->
<g id="Node000004" class="node">
<title>Node4</title>
<g id="a_Node000004"><a xlink:href="../../d1/df2/_auto_research_low_memory_8h_ae3f918f9121ab392058ef53302b021cf.html#ae3f918f9121ab392058ef53302b021cf" target="_top" xlink:title=" ">
<polygon fill="white" stroke="#666666" points="171,-444 0,-444 0,-425 171,-425 171,-444"/>
<text text-anchor="middle" x="85.5" y="-432" font-family="Helvetica,sans-Serif" font-size="10.00">autoResearchLowMemorySetup</text>
</a>
</g>
</g>
<!-- Node3&#45;&gt;Node4 -->
<g id="edge3_Node000003_Node000004" class="edge">
<title>Node3&#45;&gt;Node4</title>
<g id="a_edge3_Node000003_Node000004"><a xlink:title=" ">
<path fill="none" stroke="#63b8ff" d="M233.68,-408.81C204.12,-413.97 169.51,-420.01 141.28,-424.94"/>
<polygon fill="#63b8ff" stroke="#63b8ff" points="234.66,-412.2 243.9,-407.03 233.45,-405.3 234.66,-412.2"/>
</a>
</g>
</g>
<!-- Node5 -->
<g id="Node000005" class="node">
<title>Node5</title>
<g id="a_Node000005"><a xlink:href="../../d4/d36/namespacefl_a7167ab7d0c24c14e0576b7df33c212b6.html#a7167ab7d0c24c14e0576b7df33c212b6" target="_top" xlink:title="Create RequestSource and ResponseSink pair for serial I/O.">
<polygon fill="white" stroke="#666666" points="151.5,-407 19.5,-407 19.5,-388 151.5,-388 151.5,-407"/>
<text text-anchor="middle" x="85.5" y="-395" font-family="Helvetica,sans-Serif" font-size="10.00">fl::createSerialTransport</text>
</a>
</g>
</g>
<!-- Node3&#45;&gt;Node5 -->
<g id="edge4_Node000003_Node000005" class="edge">
<title>Node3&#45;&gt;Node5</title>
<g id="a_edge4_Node000003_Node000005"><a xlink:title=" ">
<path fill="none" stroke="#63b8ff" d="M209,-397.5C189.81,-397.5 169.87,-397.5 151.8,-397.5"/>
<polygon fill="#63b8ff" stroke="#63b8ff" points="209.26,-401 219.26,-397.5 209.26,-394 209.26,-401"/>
</a>
</g>
</g>
<!-- Node6&#45;&gt;Node7 -->
<g id="edge6_Node000006_Node000007" class="edge">
<title>Node6&#45;&gt;Node7</title>
<g id="a_edge6_Node000006_Node000007"><a xlink:title=" ">
<path fill="none" stroke="#63b8ff" d="M246.22,-358.77C216.58,-357.8 179.32,-356.56 148.25,-355.54"/>
<polygon fill="#63b8ff" stroke="#63b8ff" points="246.25,-362.28 256.36,-359.11 246.48,-355.28 246.25,-362.28"/>
</a>
</g>
</g>
<!-- Node10 -->
<g id="Node000010" class="node">
<title>Node10</title>
<g id="a_Node000010"><a xlink:href="../../d0/dd1/classfl_1_1net_1_1http_1_1_response_ab146220738b78d1340286c6e914ed666.html#ab146220738b78d1340286c6e914ed666" target="_top" xlink:title="Response body parsed as JSON (JavaScript&#45;like API)">
<polygon fill="#fff0f0" stroke="red" points="147,-311.5 24,-311.5 24,-281.5 147,-281.5 147,-311.5"/>
<text text-anchor="start" x="32" y="-299.5" font-family="Helvetica,sans-Serif" font-size="10.00">fl::net::http::Response</text>
<text text-anchor="middle" x="85.5" y="-288.5" font-family="Helvetica,sans-Serif" font-size="10.00">::json</text>
</a>
</g>
</g>
<!-- Node9&#45;&gt;Node10 -->
<g id="edge11_Node000009_Node000010" class="edge">
<title>Node9&#45;&gt;Node10</title>
<g id="a_edge11_Node000009_Node000010"><a xlink:title=" ">
<path fill="none" stroke="#63b8ff" d="M230.54,-259.13C202.77,-266.33 170.99,-274.58 144.36,-281.49"/>
<polygon fill="#63b8ff" stroke="#63b8ff" points="231.77,-262.43 240.57,-256.53 230.01,-255.65 231.77,-262.43"/>
</a>
</g>
</g>
<!-- Node15 -->
<g id="Node000015" class="node">
<title>Node15</title>
<g id="a_Node000015"><a xlink:href="../../db/d4e/classfl_1_1net_1_1http_1_1_http_stream_transport_aab4451d64b6a491f073f941fd22258c0.html#aab4451d64b6a491f073f941fd22258c0" target="_top" xlink:title="Read next JSON&#45;RPC request from stream Non&#45;blocking, returns nullopt if no complete request available...">
<polygon fill="#fff0f0" stroke="red" points="151.5,-263.5 19.5,-263.5 19.5,-233.5 151.5,-233.5 151.5,-263.5"/>
<text text-anchor="start" x="27.5" y="-251.5" font-family="Helvetica,sans-Serif" font-size="10.00">fl::net::http::HttpStream</text>
<text text-anchor="middle" x="85.5" y="-240.5" font-family="Helvetica,sans-Serif" font-size="10.00">Transport::readRequest</text>
</a>
</g>
</g>
<!-- Node14&#45;&gt;Node15 -->
<g id="edge13_Node000014_Node000015" class="edge">
<title>Node14&#45;&gt;Node15</title>
<g id="a_edge13_Node000014_Node000015"><a xlink:title=" ">
<path fill="none" stroke="#63b8ff" d="M230.54,-211.13C202.77,-218.33 170.99,-226.58 144.36,-233.49"/>
<polygon fill="#63b8ff" stroke="#63b8ff" points="231.77,-214.43 240.57,-208.53 230.01,-207.65 231.77,-214.43"/>
</a>
</g>
</g>
<!-- Node18 -->
<g id="Node000018" class="node">
<title>Node18</title>
<g id="a_Node000018"><a xlink:href="../../db/d4e/classfl_1_1net_1_1http_1_1_http_stream_transport_a57c01766a42aa6cbab3d0c6b7617a5ff.html#a57c01766a42aa6cbab3d0c6b7617a5ff" target="_top" xlink:title="Update connection state (handles reconnection, heartbeat) Call this in main loop.">
<polygon fill="#fff0f0" stroke="red" points="151.5,-215.5 19.5,-215.5 19.5,-185.5 151.5,-185.5 151.5,-215.5"/>
<text text-anchor="start" x="27.5" y="-203.5" font-family="Helvetica,sans-Serif" font-size="10.00">fl::net::http::HttpStream</text>
<text text-anchor="middle" x="85.5" y="-192.5" font-family="Helvetica,sans-Serif" font-size="10.00">Transport::update</text>
</a>
</g>
</g>
<!-- Node14&#45;&gt;Node18 -->
<g id="edge14_Node000014_Node000018" class="edge">
<title>Node14&#45;&gt;Node18</title>
<g id="a_edge14_Node000014_Node000018"><a xlink:title=" ">
<path fill="none" stroke="#63b8ff" d="M196.69,-196.86C181.34,-197.37 165.87,-197.88 151.57,-198.35"/>
<polygon fill="#63b8ff" stroke="#63b8ff" points="196.87,-200.36 206.75,-196.53 196.64,-193.36 196.87,-200.36"/>
</a>
</g>
</g>
<!-- Node25 -->
<g id="Node000025" class="node">
<title>Node25</title>
<g id="a_Node000025"><a xlink:href="../../d7/d35/_fx_sd_card_8ino_a31b8310bfbbef87ba721eb0104ea6119.html#a31b8310bfbbef87ba721eb0104ea6119" target="_top" xlink:title=" ">
<polygon fill="#fff0f0" stroke="red" points="151,-167 20,-167 20,-148 151,-148 151,-167"/>
<text text-anchor="middle" x="85.5" y="-155" font-family="Helvetica,sans-Serif" font-size="10.00">openVideoEitherFormat</text>
</a>
</g>
</g>
<!-- Node24&#45;&gt;Node25 -->
<g id="edge16_Node000024_Node000025" class="edge">
<title>Node24&#45;&gt;Node25</title>
<g id="a_edge16_Node000024_Node000025"><a xlink:title=" ">
<path fill="none" stroke="#63b8ff" d="M221.6,-146.03C198.49,-147.99 173.37,-150.12 151.14,-152.01"/>
<polygon fill="#63b8ff" stroke="#63b8ff" points="222.04,-149.5 231.71,-145.17 221.45,-142.53 222.04,-149.5"/>
</a>
</g>
</g>
<!-- Node27 -->
<g id="Node000027" class="node">
<title>Node27</title>
<g id="a_Node000027"><a xlink:href="../../d2/d78/classfl_1_1_screen_map_a1d131c7c809edbca9f87906ac79509c3.html#a1d131c7c809edbca9f87906ac79509c3" target="_top" xlink:title=" ">
<polygon fill="white" stroke="#666666" points="153,-130 18,-130 18,-111 153,-111 153,-130"/>
<text text-anchor="middle" x="85.5" y="-118" font-family="Helvetica,sans-Serif" font-size="10.00">fl::ScreenMap::ParseJson</text>
</a>
</g>
</g>
<!-- Node24&#45;&gt;Node27 -->
<g id="edge17_Node000024_Node000027" class="edge">
<title>Node24&#45;&gt;Node27</title>
<g id="a_edge17_Node000024_Node000027"><a xlink:title=" ">
<path fill="none" stroke="#63b8ff" d="M221.59,-132.61C199.23,-130.6 175,-128.43 153.32,-126.49"/>
<polygon fill="#63b8ff" stroke="#63b8ff" points="221.44,-136.11 231.71,-133.51 222.07,-129.14 221.44,-136.11"/>
</a>
</g>
</g>
<!-- Node28 -->
<g id="Node000028" class="node">
<title>Node28</title>
<g id="a_Node000028"><a xlink:href="../../df/d37/classfl_1_1_file_system_a76449b10863a3dee0631213504e817cc.html#a76449b10863a3dee0631213504e817cc" target="_top" xlink:title=" ">
<polygon fill="white" stroke="#666666" points="167.5,-93 3.5,-93 3.5,-74 167.5,-74 167.5,-93"/>
<text text-anchor="middle" x="85.5" y="-81" font-family="Helvetica,sans-Serif" font-size="10.00">fl::FileSystem::readScreenMap</text>
</a>
</g>
</g>
<!-- Node24&#45;&gt;Node28 -->
<g id="edge18_Node000024_Node000028" class="edge">
<title>Node24&#45;&gt;Node28</title>
<g id="a_edge18_Node000024_Node000028"><a xlink:title=" ">
<path fill="none" stroke="#63b8ff" d="M226.85,-127.5C220.07,-125.74 213.36,-123.75 207,-121.5 189.94,-115.47 187.97,-108.76 171,-102.5 160.84,-98.75 149.71,-95.61 138.97,-93.03"/>
<polygon fill="#63b8ff" stroke="#63b8ff" points="226.26,-130.96 236.8,-129.92 227.91,-124.16 226.26,-130.96"/>
</a>
</g>
</g>
<!-- Node29 -->
<g id="Node000029" class="node">
<title>Node29</title>
<g id="a_Node000029"><a xlink:href="../../df/d37/classfl_1_1_file_system_ad9bf0f8a5e0afcbbb85575c9f8785fc9.html#ad9bf0f8a5e0afcbbb85575c9f8785fc9" target="_top" xlink:title=" ">
<polygon fill="white" stroke="#666666" points="170.5,-56 0.5,-56 0.5,-37 170.5,-37 170.5,-56"/>
<text text-anchor="middle" x="85.5" y="-44" font-family="Helvetica,sans-Serif" font-size="10.00">fl::FileSystem::readScreenMaps</text>
</a>
</g>
</g>
<!-- Node24&#45;&gt;Node29 -->
<g id="edge19_Node000024_Node000029" class="edge">
<title>Node24&#45;&gt;Node29</title>
<g id="a_edge19_Node000024_Node000029"><a xlink:title=" ">
<path fill="none" stroke="#63b8ff" d="M222.14,-129.54C216.8,-127.34 211.69,-124.68 207,-121.5 182.53,-104.87 195.25,-82.46 171,-65.5 165.46,-61.62 159.25,-58.52 152.78,-56.04"/>
<polygon fill="#63b8ff" stroke="#63b8ff" points="221.36,-132.97 231.95,-133.04 223.71,-126.38 221.36,-132.97"/>
</a>
</g>
</g>
<!-- Node30 -->
<g id="Node000030" class="node">
<title>Node30</title>
<g id="a_Node000030"><a xlink:href="../../d1/ddb/_chromancer_8ino_a4fc01d736fe50cf5b977f755b675f11d.html#a4fc01d736fe50cf5b977f755b675f11d" target="_top" xlink:title=" ">
<polygon fill="white" stroke="#666666" points="107.5,-19 63.5,-19 63.5,0 107.5,0 107.5,-19"/>
<text text-anchor="middle" x="85.5" y="-7" font-family="Helvetica,sans-Serif" font-size="10.00">setup</text>
</a>
</g>
</g>
<!-- Node24&#45;&gt;Node30 -->
<g id="edge20_Node000024_Node000030" class="edge">
<title>Node24&#45;&gt;Node30</title>
<g id="a_edge20_Node000024_Node000030"><a xlink:title=" ">
<path fill="none" stroke="#63b8ff" d="M222.31,-131.02C216.8,-128.5 211.6,-125.37 207,-121.5 172.77,-92.69 205,-56.57 171,-27.5 153.44,-12.49 126.43,-9.02 107.69,-8.65"/>
<polygon fill="#63b8ff" stroke="#63b8ff" points="221.27,-134.37 231.85,-134.7 223.79,-127.84 221.27,-134.37"/>
</a>
</g>
</g>
<!-- Node34&#45;&gt;Node34 -->
<g id="edge25_Node000034_Node000034" class="edge">
<title>Node34&#45;&gt;Node34</title>
<g id="a_edge25_Node000034_Node000034"><a xlink:title=" ">
<path fill="none" stroke="#63b8ff" d="M522.86,-169.1C518.98,-173.47 509.53,-176.5 494.5,-176.5 469.19,-176.5 459.7,-167.91 466.02,-158.78"/>
<polygon fill="#63b8ff" stroke="#63b8ff" points="526.36,-168.82 522.98,-158.78 519.36,-168.73 526.36,-168.82"/>
</a>
</g>
</g>
</g>
</svg>
