<?xml version="1.0" encoding="UTF-8" standalone="no"?>
<!DOCTYPE svg PUBLIC "-//W3C//DTD SVG 1.1//EN"
 "http://www.w3.org/Graphics/SVG/1.1/DTD/svg11.dtd">
<!-- Generated by graphviz version 2.43.0 (0)
 -->
<!-- Title: fl::spi::Transaction::Impl Pages: 1 -->
<!--zoomable 124 -->

<svg id="main" version="1.1" xmlns="http://www.w3.org/2000/svg" xmlns:xlink="http://www.w3.org/1999/xlink" xml:space="preserve" onload="init(evt)">

<style type="text/css"><![CDATA[
.node, .edge {opacity: 0.7;}
.node.selected, .edge.selected {opacity: 1;}
.edge:hover path { stroke: red; }
.edge:hover polygon { stroke: red; fill: red; }
]]></style>

<defs>
  <circle id="rim" cx="0" cy="0" r="7"/>
  <circle id="rim2" cx="0" cy="0" r="3.5"/>
  <g id="zoomPlus">
    <use xlink:href="#rim" fill="#404040"><set attributeName="fill" to="#808080" begin="zoomplus.mouseover" end="zoomplus.mouseout"/></use>
    <path d="M-4,0h8M0,-4v8" fill="none" stroke="white" stroke-width="1.5" pointer-events="none"/>
  </g>
  <g id="zoomMin">
    <use xlink:href="#rim" fill="#404040"><set attributeName="fill" to="#808080" begin="zoomminus.mouseover" end="zoomminus.mouseout"/></use>
    <path d="M-4,0h8" fill="none" stroke="white" stroke-width="1.5" pointer-events="none"/>
  </g>
  <g id="arrowUp" transform="translate(30 24)">
    <use xlink:href="#rim"/>
    <path pointer-events="none" fill="none" stroke="white" stroke-width="1.5" d="M0,-3.0v7 M-2.5,-0.5L0,-3.0L2.5,-0.5"/>
  </g>
  <g id="arrowRight" transform="rotate(90) translate(36 -43)">
    <use xlink:href="#rim"/>
    <path pointer-events="none" fill="none" stroke="white" stroke-width="1.5" d="M0,-3.0v7 M-2.5,-0.5L0,-3.0L2.5,-0.5"/>
  </g>
  <g id="arrowDown" transform="rotate(180) translate(-30 -48)">
    <use xlink:href="#rim"/>
    <path pointer-events="none" fill="none" stroke="white" stroke-width="1.5" d="M0,-3.0v7 M-2.5,-0.5L0,-3.0L2.5,-0.5"/>
  </g>
  <g id="arrowLeft" transform="rotate(270) translate(-36 17)">
    <use xlink:href="#rim"/>
    <path pointer-events="none" fill="none" stroke="white" stroke-width="1.5" d="M0,-3.0v7 M-2.5,-0.5L0,-3.0L2.5,-0.5"/>
  </g>
  <g id="resetDef">
    <use xlink:href="#rim2" fill="#404040"><set attributeName="fill" to="#808080" begin="reset.mouseover" end="reset.mouseout"/></use>
  </g>
</defs>
<script type="application/ecmascript">
var viewWidth = 794;
var viewHeight = 124;
var sectionId = 'dynsection-0';
</script>
<script type="application/ecmascript" xlink:href="../../svg.min.js"/>
<svg id="graph" class="graph">
<g id="viewport">
<title>fl::spi::Transaction::Impl</title>
<!-- Node1 -->
<g id="Node000001" class="node">
<title>Node1</title>
<g id="a_Node000001"><a xlink:title="Private implementation data for Transaction class.">
<polygon fill="#999999" stroke="#666666" points="786,-56 682,-56 682,-26 786,-26 786,-56"/>
<text text-anchor="start" x="690" y="-44" font-family="Helvetica,sans-Serif" font-size="10.00">fl::spi::Transaction</text>
<text text-anchor="middle" x="734" y="-33" font-family="Helvetica,sans-Serif" font-size="10.00">::Impl</text>
</a>
</g>
</g>
<!-- Node2 -->
<g id="Node000002" class="node">
<title>Node2</title>
<g id="a_Node000002"><a xlink:href="../../d9/d0a/classfl_1_1spi_1_1_device.html" target="_top" xlink:title="Single&#45;channel SPI device interface (TX&#45;only, transaction&#45;based, optimized for FastLED)">
<polygon fill="white" stroke="#666666" points="594.5,-72.5 511.5,-72.5 511.5,-53.5 594.5,-53.5 594.5,-72.5"/>
<text text-anchor="middle" x="553" y="-60.5" font-family="Helvetica,sans-Serif" font-size="10.00">fl::spi::Device</text>
</a>
</g>
</g>
<!-- Node2&#45;&gt;Node1 -->
<g id="edge1_Node000001_Node000002" class="edge">
<title>Node2&#45;&gt;Node1</title>
<g id="a_edge1_Node000001_Node000002"><a xlink:title=" ">
<path fill="none" stroke="#9a32cd" stroke-dasharray="5,2" d="M604.67,-56.77C628.85,-53.8 657.73,-50.25 681.97,-47.27"/>
<polygon fill="#9a32cd" stroke="#9a32cd" points="604.12,-53.31 594.62,-58.01 604.97,-60.26 604.12,-53.31"/>
</a>
</g>
<text text-anchor="middle" x="646" y="-56" font-family="Helvetica,sans-Serif" font-size="10.00" fill="grey"> device</text>
</g>
<!-- Node3 -->
<g id="Node000003" class="node">
<title>Node3</title>
<g id="a_Node000003"><a xlink:href="../../d6/d2e/classfl_1_1unique__ptr.html" target="_top" xlink:title=" ">
<polygon fill="white" stroke="#666666" points="372,-78 256,-78 256,-48 372,-48 372,-78"/>
<text text-anchor="start" x="264" y="-66" font-family="Helvetica,sans-Serif" font-size="10.00">fl::unique_ptr&lt; fl</text>
<text text-anchor="middle" x="314" y="-55" font-family="Helvetica,sans-Serif" font-size="10.00">::spi::Device::Impl &gt;</text>
</a>
</g>
</g>
<!-- Node3&#45;&gt;Node2 -->
<g id="edge2_Node000002_Node000003" class="edge">
<title>Node3&#45;&gt;Node2</title>
<g id="a_edge2_Node000002_Node000003"><a xlink:title=" ">
<path fill="none" stroke="#9a32cd" stroke-dasharray="5,2" d="M382.14,-63C423.79,-63 475.93,-63 511.38,-63"/>
<polygon fill="#9a32cd" stroke="#9a32cd" points="382.07,-59.5 372.07,-63 382.07,-66.5 382.07,-59.5"/>
</a>
</g>
<text text-anchor="middle" x="434" y="-66" font-family="Helvetica,sans-Serif" font-size="10.00" fill="grey"> pImpl</text>
</g>
<!-- Node4 -->
<g id="Node000004" class="node">
<title>Node4</title>
<g id="a_Node000004"><a xlink:href="../../d1/d42/structfl_1_1spi_1_1_device_1_1_impl.html" target="_top" xlink:title="Private implementation data for Device class.">
<polygon fill="#fff0f0" stroke="red" points="121.5,-115.5 11.5,-115.5 11.5,-96.5 121.5,-96.5 121.5,-115.5"/>
<text text-anchor="middle" x="66.5" y="-103.5" font-family="Helvetica,sans-Serif" font-size="10.00">fl::spi::Device::Impl</text>
</a>
</g>
</g>
<!-- Node4&#45;&gt;Node3 -->
<g id="edge3_Node000003_Node000004" class="edge">
<title>Node4&#45;&gt;Node3</title>
<g id="a_edge3_Node000003_Node000004"><a xlink:title=" ">
<path fill="none" stroke="#9a32cd" stroke-dasharray="5,2" d="M131.83,-95.97C163.8,-90.86 202.98,-84.38 238,-78 243.75,-76.95 249.74,-75.82 255.71,-74.67"/>
<polygon fill="#9a32cd" stroke="#9a32cd" points="131.04,-92.56 121.72,-97.59 132.14,-99.47 131.04,-92.56"/>
</a>
</g>
<text text-anchor="middle" x="194.5" y="-95" font-family="Helvetica,sans-Serif" font-size="10.00" fill="grey"> mPtr</text>
</g>
<!-- Node17 -->
<g id="Node000017" class="node">
<title>Node17</title>
<g id="a_Node000017"><a xlink:href="../../d5/d2b/structfl_1_1default__delete.html" target="_top" xlink:title=" ">
<polygon fill="#fff0f0" stroke="red" points="133,-78 0,-78 0,-48 133,-48 133,-78"/>
<text text-anchor="start" x="8" y="-66" font-family="Helvetica,sans-Serif" font-size="10.00">fl::default_delete</text>
<text text-anchor="middle" x="66.5" y="-55" font-family="Helvetica,sans-Serif" font-size="10.00">&lt; fl::spi::Device::Impl &gt;</text>
</a>
</g>
</g>
<!-- Node17&#45;&gt;Node3 -->
<g id="edge4_Node000003_Node000017" class="edge">
<title>Node17&#45;&gt;Node3</title>
<g id="a_edge4_Node000003_Node000017"><a xlink:title=" ">
<path fill="none" stroke="#9a32cd" stroke-dasharray="5,2" d="M143.34,-63C179.61,-63 222.31,-63 255.8,-63"/>
<polygon fill="#9a32cd" stroke="#9a32cd" points="143.29,-59.5 133.29,-63 143.29,-66.5 143.29,-59.5"/>
</a>
</g>
<text text-anchor="middle" x="194.5" y="-66" font-family="Helvetica,sans-Serif" font-size="10.00" fill="grey"> mDeleter</text>
</g>
<!-- Node19 -->
<g id="Node000019" class="node">
<title>Node19</title>
<g id="a_Node000019"><a xlink:href="../../d6/d2e/classfl_1_1unique__ptr.html" target="_top" xlink:title=" ">
<polygon fill="white" stroke="#666666" points="117,-30 16,-30 16,0 117,0 117,-30"/>
<text text-anchor="start" x="24" y="-18" font-family="Helvetica,sans-Serif" font-size="10.00">fl::unique_ptr&lt; T,</text>
<text text-anchor="middle" x="66.5" y="-7" font-family="Helvetica,sans-Serif" font-size="10.00"> Deleter &gt;</text>
</a>
</g>
</g>
<!-- Node19&#45;&gt;Node3 -->
<g id="edge5_Node000003_Node000019" class="edge">
<title>Node19&#45;&gt;Node3</title>
<g id="a_edge5_Node000003_Node000019"><a xlink:title=" ">
<path fill="none" stroke="orange" stroke-dasharray="5,2" d="M127.59,-19.71C160.5,-23.05 201.82,-28.49 238,-37 250.07,-39.84 262.93,-43.9 274.52,-47.96"/>
<polygon fill="orange" stroke="orange" points="127.52,-16.19 117.22,-18.7 126.84,-23.16 127.52,-16.19"/>
</a>
</g>
<text text-anchor="start" x="151" y="-51" font-family="Helvetica,sans-Serif" font-size="10.00" fill="grey"> &lt; fl::spi::Device::</text>
<text text-anchor="middle" x="194.5" y="-40" font-family="Helvetica,sans-Serif" font-size="10.00" fill="grey">Impl &gt;</text>
</g>
<!-- Node20 -->
<g id="Node000020" class="node">
<title>Node20</title>
<g id="a_Node000020"><a xlink:href="../../dd/dd8/classfl_1_1_optional.html" target="_top" xlink:title=" ">
<polygon fill="white" stroke="#666666" points="610,-35 496,-35 496,-5 610,-5 610,-35"/>
<text text-anchor="start" x="504" y="-23" font-family="Helvetica,sans-Serif" font-size="10.00">fl::Optional&lt; fl::task</text>
<text text-anchor="middle" x="553" y="-12" font-family="Helvetica,sans-Serif" font-size="10.00">::Error &gt;</text>
</a>
</g>
</g>
<!-- Node20&#45;&gt;Node1 -->
<g id="edge6_Node000001_Node000020" class="edge">
<title>Node20&#45;&gt;Node1</title>
<g id="a_edge6_Node000001_Node000020"><a xlink:title=" ">
<path fill="none" stroke="#9a32cd" stroke-dasharray="5,2" d="M620.44,-22.76C634.84,-23.77 649.96,-25.14 664,-27 669.82,-27.77 675.88,-28.75 681.89,-29.82"/>
<polygon fill="#9a32cd" stroke="#9a32cd" points="620.31,-19.24 610.1,-22.09 619.86,-26.23 620.31,-19.24"/>
</a>
</g>
<text text-anchor="middle" x="646" y="-30" font-family="Helvetica,sans-Serif" font-size="10.00" fill="grey"> result</text>
</g>
<!-- Node21 -->
<g id="Node000021" class="node">
<title>Node21</title>
<g id="a_Node000021"><a xlink:href="../../dd/dd8/classfl_1_1_optional.html" target="_top" xlink:title=" ">
<polygon fill="white" stroke="#666666" points="363,-29.5 265,-29.5 265,-10.5 363,-10.5 363,-29.5"/>
<text text-anchor="middle" x="314" y="-17.5" font-family="Helvetica,sans-Serif" font-size="10.00">fl::Optional&lt; T &gt;</text>
</a>
</g>
</g>
<!-- Node21&#45;&gt;Node20 -->
<g id="edge7_Node000020_Node000021" class="edge">
<title>Node21&#45;&gt;Node20</title>
<g id="a_edge7_Node000020_Node000021"><a xlink:title=" ">
<path fill="none" stroke="orange" stroke-dasharray="5,2" d="M373.48,-20C410.84,-20 459.02,-20 495.91,-20"/>
<polygon fill="orange" stroke="orange" points="373.25,-16.5 363.25,-20 373.25,-23.5 373.25,-16.5"/>
</a>
</g>
<text text-anchor="middle" x="434" y="-23" font-family="Helvetica,sans-Serif" font-size="10.00" fill="grey"> &lt; fl::task::Error &gt;</text>
</g>
</g>
</svg>

<g id="navigator" transform="translate(0 0)" fill="#404254">
  <rect fill="#f2f5e9" fill-opacity="0.5" stroke="#606060" stroke-width=".5" x="0" y="0" width="60" height="60"/>
  <use id="zoomplus" xlink:href="#zoomPlus" x="17" y="9" onmousedown="handleZoom(evt,'in')"/>
  <use id="zoomminus" xlink:href="#zoomMin" x="42" y="9" onmousedown="handleZoom(evt,'out')"/>
  <use id="reset" xlink:href="#resetDef" x="30" y="36" onmousedown="handleReset()"/>
   <use id="arrowup" xlink:href="#arrowUp" x="0" y="0" onmousedown="handlePan(0,-1)"/>
  <use id="arrowright" xlink:href="#arrowRight" x="0" y="0" onmousedown="handlePan(1,0)"/>
  <use id="arrowdown" xlink:href="#arrowDown" x="0" y="0" onmousedown="handlePan(0,1)"/>
  <use id="arrowleft" xlink:href="#arrowLeft" x="0" y="0" onmousedown="handlePan(-1,0)"/>
</g>
<svg viewBox="0 0 15 15" width="100%" height="30px" preserveAspectRatio="xMaxYMin meet">
 <g id="arrow_out" transform="scale(0.3 0.3)">
  <a xlink:href="structfl_1_1spi_1_1_transaction_1_1_impl__coll__graph_org.svg" target="_base">
   <rect id="button" ry="5" rx="5" y="6" x="6" height="38" width="38"
        fill="#f2f5e9" fill-opacity="0.5" stroke="#606060" stroke-width="1.0"/>
   <path id="arrow"
     d="M 11.500037,31.436501 C 11.940474,20.09759 22.043105,11.32322 32.158766,21.979434 L 37.068811,17.246167 C 37.068811,17.246167 37.088388,32 37.088388,32 L 22.160133,31.978069 C 22.160133,31.978069 26.997745,27.140456 26.997745,27.140456 C 18.528582,18.264221 13.291696,25.230495 11.500037,31.436501 z"
     style="fill:#404040;"/>
  </a>
 </g>
</svg>

<style type='text/css'>
<![CDATA[
[data-mouse-over-selected='false'] { opacity: 0.7; }
[data-mouse-over-selected='true']  { opacity: 1.0; }
]]>
</style>
<script type="application/ecmascript"><![CDATA[
document.addEventListener('DOMContentLoaded', (event) => {
  highlightEdges();
  highlightAdjacentNodes();
});
]]></script>
</svg>
