<?xml version="1.0" encoding="UTF-8" standalone="no"?>
<!DOCTYPE svg PUBLIC "-//W3C//DTD SVG 1.1//EN"
 "http://www.w3.org/Graphics/SVG/1.1/DTD/svg11.dtd">
<!-- Generated by graphviz version 2.43.0 (0)
 -->
<!-- Title: fl::detail::JsonToType&lt; fl::vector&lt; fl::u8 &gt;, void &gt;::convert Pages: 1 -->
<svg width="573pt" height="591pt"
 viewBox="0.00 0.00 573.00 591.00" xmlns="http://www.w3.org/2000/svg" xmlns:xlink="http://www.w3.org/1999/xlink">
<g id="graph0" class="graph" transform="scale(1 1) rotate(0) translate(4 587)">
<title>fl::detail::JsonToType&lt; fl::vector&lt; fl::u8 &gt;, void &gt;::convert</title>
<!-- Node1 -->
<g id="Node000001" class="node">
<title>Node1</title>
<g id="a_Node000001"><a xlink:title=" ">
<polygon fill="#999999" stroke="#666666" points="117,-303 0,-303 0,-262 117,-262 117,-303"/>
<text text-anchor="start" x="8" y="-291" font-family="Helvetica,sans-Serif" font-size="10.00">fl::detail::JsonToType</text>
<text text-anchor="start" x="8" y="-280" font-family="Helvetica,sans-Serif" font-size="10.00">&lt; fl::vector&lt; fl::u8 &gt;</text>
<text text-anchor="middle" x="58.5" y="-269" font-family="Helvetica,sans-Serif" font-size="10.00">, void &gt;::convert</text>
</a>
</g>
</g>
<!-- Node2 -->
<g id="Node000002" class="node">
<title>Node2</title>
<g id="a_Node000002"><a xlink:href="../../d4/d36/namespacefl_a7c2e1eeb8291dde4a54103a753da3483.html#a7c2e1eeb8291dde4a54103a753da3483" target="_top" xlink:title=" ">
<polygon fill="white" stroke="#666666" points="273.5,-519 169.5,-519 169.5,-500 273.5,-500 273.5,-519"/>
<text text-anchor="middle" x="221.5" y="-507" font-family="Helvetica,sans-Serif" font-size="10.00">fl::base64_decode</text>
</a>
</g>
</g>
<!-- Node1&#45;&gt;Node2 -->
<g id="edge1_Node000001_Node000002" class="edge">
<title>Node1&#45;&gt;Node2</title>
<g id="a_edge1_Node000001_Node000002"><a xlink:title=" ">
<path fill="none" stroke="#63b8ff" d="M63.45,-303.2C72.26,-343.86 97.29,-434.59 153,-485.5 157.41,-489.53 162.54,-492.89 167.97,-495.7"/>
<polygon fill="#63b8ff" stroke="#63b8ff" points="166.76,-498.99 177.31,-499.91 169.64,-492.61 166.76,-498.99"/>
</a>
</g>
</g>
<!-- Node3 -->
<g id="Node000003" class="node">
<title>Node3</title>
<g id="a_Node000003"><a xlink:href="../../de/d66/classfl_1_1basic__string_a409024020d4cdb01125a9b7fba3404b5.html#a409024020d4cdb01125a9b7fba3404b5" target="_top" xlink:title=" ">
<polygon fill="white" stroke="#666666" points="451,-583 326,-583 326,-564 451,-564 451,-583"/>
<text text-anchor="middle" x="388.5" y="-571" font-family="Helvetica,sans-Serif" font-size="10.00">fl::basic_string::empty</text>
</a>
</g>
</g>
<!-- Node1&#45;&gt;Node3 -->
<g id="edge9_Node000001_Node000003" class="edge">
<title>Node1&#45;&gt;Node3</title>
<g id="a_edge9_Node000001_Node000003"><a xlink:title=" ">
<path fill="none" stroke="#63b8ff" d="M60.82,-303.15C65.06,-350.88 82.5,-469.29 153,-528.5 197.92,-566.23 264.83,-575.99 315.69,-577.19"/>
<polygon fill="#63b8ff" stroke="#63b8ff" points="315.92,-580.69 325.96,-577.32 316.01,-573.69 315.92,-580.69"/>
</a>
</g>
</g>
<!-- Node4 -->
<g id="Node000004" class="node">
<title>Node4</title>
<g id="a_Node000004"><a xlink:href="../../d2/d24/classfl_1_1vector_ae9a8cea8d4b81d8f2f10a2b007ac2980.html#ae9a8cea8d4b81d8f2f10a2b007ac2980" target="_top" xlink:title=" ">
<polygon fill="white" stroke="#666666" points="447,-472 330,-472 330,-453 447,-453 447,-472"/>
<text text-anchor="middle" x="388.5" y="-460" font-family="Helvetica,sans-Serif" font-size="10.00">fl::vector::push_back</text>
</a>
</g>
</g>
<!-- Node1&#45;&gt;Node4 -->
<g id="edge18_Node000001_Node000004" class="edge">
<title>Node1&#45;&gt;Node4</title>
<g id="a_edge18_Node000001_Node000004"><a xlink:title=" ">
<path fill="none" stroke="#63b8ff" d="M63.95,-303.25C73.19,-340.65 98.33,-418.58 153,-452.5 208.39,-486.87 286.13,-482.19 336.66,-473.84"/>
<polygon fill="#63b8ff" stroke="#63b8ff" points="337.45,-477.25 346.69,-472.07 336.24,-470.36 337.45,-477.25"/>
</a>
</g>
</g>
<!-- Node7 -->
<g id="Node000007" class="node">
<title>Node7</title>
<g id="a_Node000007"><a xlink:href="../../dc/d8e/structfl_1_1detail_1_1_json_to_type_a95c296afbad272cd567858021e9e5156.html#a95c296afbad272cd567858021e9e5156" target="_top" xlink:title=" ">
<polygon fill="white" stroke="#666666" points="279.5,-443.5 163.5,-443.5 163.5,-413.5 279.5,-413.5 279.5,-443.5"/>
<text text-anchor="start" x="171.5" y="-431.5" font-family="Helvetica,sans-Serif" font-size="10.00">fl::detail::JsonToType</text>
<text text-anchor="middle" x="221.5" y="-420.5" font-family="Helvetica,sans-Serif" font-size="10.00">::convert</text>
</a>
</g>
</g>
<!-- Node1&#45;&gt;Node7 -->
<g id="edge6_Node000001_Node000007" class="edge">
<title>Node1&#45;&gt;Node7</title>
<g id="a_edge6_Node000001_Node000007"><a xlink:title=" ">
<path fill="none" stroke="#63b8ff" d="M71.6,-303.27C87.45,-328.89 117.43,-372.39 153,-399.5 157.44,-402.88 162.33,-405.96 167.39,-408.73"/>
<polygon fill="#63b8ff" stroke="#63b8ff" points="166.12,-412.01 176.63,-413.39 169.28,-405.76 166.12,-412.01"/>
</a>
</g>
</g>
<!-- Node8 -->
<g id="Node000008" class="node">
<title>Node8</title>
<g id="a_Node000008"><a xlink:href="../../d4/d36/namespacefl_a8c18961c82484f938000c3a24be290e1.html#a8c18961c82484f938000c3a24be290e1" target="_top" xlink:title=" ">
<polygon fill="white" stroke="#666666" points="431.5,-428 345.5,-428 345.5,-409 431.5,-409 431.5,-428"/>
<text text-anchor="middle" x="388.5" y="-416" font-family="Helvetica,sans-Serif" font-size="10.00">fl::make_tuple</text>
</a>
</g>
</g>
<!-- Node1&#45;&gt;Node8 -->
<g id="edge16_Node000001_Node000008" class="edge">
<title>Node1&#45;&gt;Node8</title>
<g id="a_edge16_Node000001_Node000008"><a xlink:title=" ">
<path fill="none" stroke="#63b8ff" d="M77.03,-303.16C94.38,-322.25 122.68,-349.94 153,-365.5 184.33,-381.58 276.24,-399.49 335.26,-409.83"/>
<polygon fill="#63b8ff" stroke="#63b8ff" points="334.7,-413.28 345.15,-411.55 335.9,-406.39 334.7,-413.28"/>
</a>
</g>
</g>
<!-- Node10 -->
<g id="Node000010" class="node">
<title>Node10</title>
<g id="a_Node000010"><a xlink:href="../../d4/dad/classfl_1_1vector__basic_af188bd6e2b911e1127f3ef37b4b90143.html#af188bd6e2b911e1127f3ef37b4b90143" target="_top" xlink:title=" ">
<polygon fill="white" stroke="#666666" points="285.5,-357 157.5,-357 157.5,-338 285.5,-338 285.5,-357"/>
<text text-anchor="middle" x="221.5" y="-345" font-family="Helvetica,sans-Serif" font-size="10.00">fl::vector_basic::empty</text>
</a>
</g>
</g>
<!-- Node1&#45;&gt;Node10 -->
<g id="edge10_Node000001_Node000010" class="edge">
<title>Node1&#45;&gt;Node10</title>
<g id="a_edge10_Node000001_Node000010"><a xlink:title=" ">
<path fill="none" stroke="#63b8ff" d="M97.46,-303.14C114.18,-311.72 134.25,-321.32 153,-328.5 159.04,-330.81 165.49,-332.99 171.9,-334.98"/>
<polygon fill="#63b8ff" stroke="#63b8ff" points="171.32,-338.46 181.91,-337.95 173.32,-331.75 171.32,-338.46"/>
</a>
</g>
</g>
<!-- Node11 -->
<g id="Node000011" class="node">
<title>Node11</title>
<g id="a_Node000011"><a xlink:href="../../d6/d88/classfl_1_1_type_conversion_result_a35086de6d303d7006319afa3718dd491.html#a35086de6d303d7006319afa3718dd491" target="_top" xlink:title=" ">
<polygon fill="white" stroke="#666666" points="290,-319.5 153,-319.5 153,-289.5 290,-289.5 290,-319.5"/>
<text text-anchor="start" x="161" y="-307.5" font-family="Helvetica,sans-Serif" font-size="10.00">fl::TypeConversionResult</text>
<text text-anchor="middle" x="221.5" y="-296.5" font-family="Helvetica,sans-Serif" font-size="10.00">::errorMessage</text>
</a>
</g>
</g>
<!-- Node1&#45;&gt;Node11 -->
<g id="edge11_Node000001_Node000011" class="edge">
<title>Node1&#45;&gt;Node11</title>
<g id="a_edge11_Node000001_Node000011"><a xlink:title=" ">
<path fill="none" stroke="#63b8ff" d="M117.17,-290.38C125.47,-291.51 134.13,-292.7 142.74,-293.87"/>
<polygon fill="#63b8ff" stroke="#63b8ff" points="142.42,-297.36 152.8,-295.25 143.37,-290.43 142.42,-297.36"/>
</a>
</g>
</g>
<!-- Node12 -->
<g id="Node000012" class="node">
<title>Node12</title>
<g id="a_Node000012"><a xlink:href="../../d4/d36/namespacefl_ad2bd3fbfa62b8cb135f8c67ce6bfeefe.html#ad2bd3fbfa62b8cb135f8c67ce6bfeefe" target="_top" xlink:title=" ">
<polygon fill="white" stroke="#666666" points="243.5,-271 199.5,-271 199.5,-252 243.5,-252 243.5,-271"/>
<text text-anchor="middle" x="221.5" y="-259" font-family="Helvetica,sans-Serif" font-size="10.00">fl::get</text>
</a>
</g>
</g>
<!-- Node1&#45;&gt;Node12 -->
<g id="edge12_Node000001_Node000012" class="edge">
<title>Node1&#45;&gt;Node12</title>
<g id="a_edge12_Node000001_Node000012"><a xlink:title=" ">
<path fill="none" stroke="#63b8ff" d="M117.17,-274.98C141.45,-271.81 168.75,-268.25 189.19,-265.58"/>
<polygon fill="#63b8ff" stroke="#63b8ff" points="189.74,-269.04 199.2,-264.28 188.83,-262.1 189.74,-269.04"/>
</a>
</g>
</g>
<!-- Node13 -->
<g id="Node000013" class="node">
<title>Node13</title>
<g id="a_Node000013"><a xlink:href="../../d6/d88/classfl_1_1_type_conversion_result_a21532db16744a56eaa33fc4741f4b62d.html#a21532db16744a56eaa33fc4741f4b62d" target="_top" xlink:title=" ">
<polygon fill="white" stroke="#666666" points="290,-233.5 153,-233.5 153,-203.5 290,-203.5 290,-233.5"/>
<text text-anchor="start" x="161" y="-221.5" font-family="Helvetica,sans-Serif" font-size="10.00">fl::TypeConversionResult</text>
<text text-anchor="middle" x="221.5" y="-210.5" font-family="Helvetica,sans-Serif" font-size="10.00">::hasError</text>
</a>
</g>
</g>
<!-- Node1&#45;&gt;Node13 -->
<g id="edge13_Node000001_Node000013" class="edge">
<title>Node1&#45;&gt;Node13</title>
<g id="a_edge13_Node000001_Node000013"><a xlink:title=" ">
<path fill="none" stroke="#63b8ff" d="M105.87,-261.98C120.83,-255.55 137.54,-248.55 153,-242.5 157.54,-240.72 162.27,-238.93 167.03,-237.16"/>
<polygon fill="#63b8ff" stroke="#63b8ff" points="168.59,-240.32 176.78,-233.59 166.19,-233.75 168.59,-240.32"/>
</a>
</g>
</g>
<!-- Node14 -->
<g id="Node000014" class="node">
<title>Node14</title>
<g id="a_Node000014"><a xlink:href="../../de/d40/classfl_1_1json_a43ce94fce4fd30a5904062a3d46ccb4a.html#a43ce94fce4fd30a5904062a3d46ccb4a" target="_top" xlink:title=" ">
<polygon fill="white" stroke="#666666" points="268.5,-185 174.5,-185 174.5,-166 268.5,-166 268.5,-185"/>
<text text-anchor="middle" x="221.5" y="-173" font-family="Helvetica,sans-Serif" font-size="10.00">fl::json::is_array</text>
</a>
</g>
</g>
<!-- Node1&#45;&gt;Node14 -->
<g id="edge14_Node000001_Node000014" class="edge">
<title>Node1&#45;&gt;Node14</title>
<g id="a_edge14_Node000001_Node000014"><a xlink:title=" ">
<path fill="none" stroke="#63b8ff" d="M76.31,-261.69C93.55,-241.67 122.15,-211.95 153,-194.5 156.92,-192.28 161.12,-190.31 165.43,-188.56"/>
<polygon fill="#63b8ff" stroke="#63b8ff" points="166.8,-191.78 174.99,-185.06 164.4,-185.21 166.8,-191.78"/>
</a>
</g>
</g>
<!-- Node15 -->
<g id="Node000015" class="node">
<title>Node15</title>
<g id="a_Node000015"><a xlink:href="../../de/d40/classfl_1_1json_a9f34cbdb865423ab828678e01ca74d9d.html#a9f34cbdb865423ab828678e01ca74d9d" target="_top" xlink:title=" ">
<polygon fill="white" stroke="#666666" points="269.5,-148 173.5,-148 173.5,-129 269.5,-129 269.5,-148"/>
<text text-anchor="middle" x="221.5" y="-136" font-family="Helvetica,sans-Serif" font-size="10.00">fl::json::is_string</text>
</a>
</g>
</g>
<!-- Node1&#45;&gt;Node15 -->
<g id="edge15_Node000001_Node000015" class="edge">
<title>Node1&#45;&gt;Node15</title>
<g id="a_edge15_Node000001_Node000015"><a xlink:title=" ">
<path fill="none" stroke="#63b8ff" d="M69.32,-261.65C83.68,-233.45 113.11,-183.58 153,-156.5 156.35,-154.23 159.97,-152.24 163.73,-150.51"/>
<polygon fill="#63b8ff" stroke="#63b8ff" points="165.33,-153.64 173.32,-146.69 162.74,-147.13 165.33,-153.64"/>
</a>
</g>
</g>
<!-- Node16 -->
<g id="Node000016" class="node">
<title>Node16</title>
<g id="a_Node000016"><a xlink:href="../../da/d3c/namespacefl_1_1fl_a14315b21314f12a4c40dde841fcc4c8a.html#a14315b21314f12a4c40dde841fcc4c8a" target="_top" xlink:title=" ">
<polygon fill="white" stroke="#666666" points="255.5,-111 187.5,-111 187.5,-92 255.5,-92 255.5,-111"/>
<text text-anchor="middle" x="221.5" y="-99" font-family="Helvetica,sans-Serif" font-size="10.00">fl::fl::move</text>
</a>
</g>
</g>
<!-- Node1&#45;&gt;Node16 -->
<g id="edge17_Node000001_Node000016" class="edge">
<title>Node1&#45;&gt;Node16</title>
<g id="a_edge17_Node000001_Node000016"><a xlink:title=" ">
<path fill="none" stroke="#63b8ff" d="M65.58,-261.74C76.89,-226.89 104.5,-156.78 153,-119.5 160.13,-114.02 168.78,-110.21 177.49,-107.55"/>
<polygon fill="#63b8ff" stroke="#63b8ff" points="178.45,-110.92 187.26,-105.02 176.7,-104.14 178.45,-110.92"/>
</a>
</g>
</g>
<!-- Node17 -->
<g id="Node000017" class="node">
<title>Node17</title>
<g id="a_Node000017"><a xlink:href="../../de/d40/classfl_1_1json_a7deadb5bf7dbc14de40b50534f529430.html#a7deadb5bf7dbc14de40b50534f529430" target="_top" xlink:title=" ">
<polygon fill="white" stroke="#666666" points="258.5,-74 184.5,-74 184.5,-55 258.5,-55 258.5,-74"/>
<text text-anchor="middle" x="221.5" y="-62" font-family="Helvetica,sans-Serif" font-size="10.00">fl::json::size</text>
</a>
</g>
</g>
<!-- Node1&#45;&gt;Node17 -->
<g id="edge19_Node000001_Node000017" class="edge">
<title>Node1&#45;&gt;Node17</title>
<g id="a_edge19_Node000001_Node000017"><a xlink:title=" ">
<path fill="none" stroke="#63b8ff" d="M63.2,-261.7C71.56,-220.94 95.84,-130.36 153,-82.5 159.28,-77.24 166.95,-73.5 174.83,-70.85"/>
<polygon fill="#63b8ff" stroke="#63b8ff" points="175.8,-74.22 184.47,-68.13 173.89,-67.48 175.8,-74.22"/>
</a>
</g>
</g>
<!-- Node18 -->
<g id="Node000018" class="node">
<title>Node18</title>
<g id="a_Node000018"><a xlink:href="../../d4/d36/namespacefl_a00be5c89d851d3cf8f72d28097905f42.html#a00be5c89d851d3cf8f72d28097905f42" target="_top" xlink:title=" ">
<polygon fill="white" stroke="#666666" points="257,-19 186,-19 186,0 257,0 257,-19"/>
<text text-anchor="middle" x="221.5" y="-7" font-family="Helvetica,sans-Serif" font-size="10.00">fl::to_string</text>
</a>
</g>
</g>
<!-- Node1&#45;&gt;Node18 -->
<g id="edge20_Node000001_Node000018" class="edge">
<title>Node1&#45;&gt;Node18</title>
<g id="a_edge20_Node000001_Node000018"><a xlink:title=" ">
<path fill="none" stroke="#63b8ff" d="M62.69,-261.92C70.53,-217.43 94.56,-111.03 153,-45.5 161.29,-36.21 172.56,-28.89 183.51,-23.35"/>
<polygon fill="#63b8ff" stroke="#63b8ff" points="185,-26.52 192.57,-19.11 182.03,-20.18 185,-26.52"/>
</a>
</g>
</g>
<!-- Node2&#45;&gt;Node3 -->
<g id="edge2_Node000002_Node000003" class="edge">
<title>Node2&#45;&gt;Node3</title>
<g id="a_edge2_Node000002_Node000003"><a xlink:title=" ">
<path fill="none" stroke="#63b8ff" d="M242.02,-519.12C262.59,-529.03 296.09,-544.53 326,-555.5 331.16,-557.39 336.61,-559.22 342.06,-560.95"/>
<polygon fill="#63b8ff" stroke="#63b8ff" points="341.2,-564.34 351.79,-563.92 343.25,-557.65 341.2,-564.34"/>
</a>
</g>
</g>
<!-- Node2&#45;&gt;Node4 -->
<g id="edge3_Node000002_Node000004" class="edge">
<title>Node2&#45;&gt;Node4</title>
<g id="a_edge3_Node000002_Node000004"><a xlink:title=" ">
<path fill="none" stroke="#63b8ff" d="M255.89,-499.99C281.3,-492.75 316.49,-482.73 344.08,-474.87"/>
<polygon fill="#63b8ff" stroke="#63b8ff" points="345.22,-478.18 353.88,-472.08 343.3,-471.45 345.22,-478.18"/>
</a>
</g>
</g>
<!-- Node5 -->
<g id="Node000005" class="node">
<title>Node5</title>
<g id="a_Node000005"><a xlink:href="../../d2/d24/classfl_1_1vector_a305fb6473faab9c2798479c057a58d50.html#a305fb6473faab9c2798479c057a58d50" target="_top" xlink:title=" ">
<polygon fill="white" stroke="#666666" points="439.5,-546 337.5,-546 337.5,-527 439.5,-527 439.5,-546"/>
<text text-anchor="middle" x="388.5" y="-534" font-family="Helvetica,sans-Serif" font-size="10.00">fl::vector::reserve</text>
</a>
</g>
</g>
<!-- Node2&#45;&gt;Node5 -->
<g id="edge4_Node000002_Node000005" class="edge">
<title>Node2&#45;&gt;Node5</title>
<g id="a_edge4_Node000002_Node000005"><a xlink:title=" ">
<path fill="none" stroke="#63b8ff" d="M273.8,-517.89C290.73,-520.66 309.7,-523.77 327.23,-526.64"/>
<polygon fill="#63b8ff" stroke="#63b8ff" points="326.93,-530.13 337.36,-528.3 328.06,-523.23 326.93,-530.13"/>
</a>
</g>
</g>
<!-- Node6 -->
<g id="Node000006" class="node">
<title>Node6</title>
<g id="a_Node000006"><a xlink:href="../../de/d66/classfl_1_1basic__string_af4d95d1e9905eb5fb76e12c2c2bd7ebc.html#af4d95d1e9905eb5fb76e12c2c2bd7ebc" target="_top" xlink:title=" ">
<polygon fill="white" stroke="#666666" points="445,-509 332,-509 332,-490 445,-490 445,-509"/>
<text text-anchor="middle" x="388.5" y="-497" font-family="Helvetica,sans-Serif" font-size="10.00">fl::basic_string::size</text>
</a>
</g>
</g>
<!-- Node2&#45;&gt;Node6 -->
<g id="edge5_Node000002_Node000006" class="edge">
<title>Node2&#45;&gt;Node6</title>
<g id="a_edge5_Node000002_Node000006"><a xlink:title=" ">
<path fill="none" stroke="#63b8ff" d="M273.8,-506.39C288.94,-505.47 305.71,-504.46 321.62,-503.49"/>
<polygon fill="#63b8ff" stroke="#63b8ff" points="322.16,-506.97 331.93,-502.87 321.74,-499.98 322.16,-506.97"/>
</a>
</g>
</g>
<!-- Node7&#45;&gt;Node8 -->
<g id="edge7_Node000007_Node000008" class="edge">
<title>Node7&#45;&gt;Node8</title>
<g id="a_edge7_Node000007_Node000008"><a xlink:title=" ">
<path fill="none" stroke="#63b8ff" d="M279.75,-425.03C297.8,-423.94 317.63,-422.73 335.31,-421.66"/>
<polygon fill="#63b8ff" stroke="#63b8ff" points="335.67,-425.15 345.44,-421.05 335.25,-418.16 335.67,-425.15"/>
</a>
</g>
</g>
<!-- Node9 -->
<g id="Node000009" class="node">
<title>Node9</title>
<g id="a_Node000009"><a xlink:href="../../da/d3c/namespacefl_1_1fl_a0bddf371925d8c4e94b88e9d7b35d259.html#a0bddf371925d8c4e94b88e9d7b35d259" target="_top" xlink:title=" ">
<polygon fill="white" stroke="#666666" points="565,-428 487,-428 487,-409 565,-409 565,-428"/>
<text text-anchor="middle" x="526" y="-416" font-family="Helvetica,sans-Serif" font-size="10.00">fl::fl::forward</text>
</a>
</g>
</g>
<!-- Node8&#45;&gt;Node9 -->
<g id="edge8_Node000008_Node000009" class="edge">
<title>Node8&#45;&gt;Node9</title>
<g id="a_edge8_Node000008_Node000009"><a xlink:title=" ">
<path fill="none" stroke="#63b8ff" d="M431.63,-418.5C445.76,-418.5 461.63,-418.5 476.22,-418.5"/>
<polygon fill="#63b8ff" stroke="#63b8ff" points="476.58,-422 486.58,-418.5 476.58,-415 476.58,-422"/>
</a>
</g>
</g>
<!-- Node18&#45;&gt;Node18 -->
<g id="edge21_Node000018_Node000018" class="edge">
<title>Node18&#45;&gt;Node18</title>
<g id="a_edge21_Node000018_Node000018"><a xlink:title=" ">
<path fill="none" stroke="#63b8ff" d="M196.53,-19.08C184.38,-27.73 192.71,-37 221.5,-37 240.4,-37 250.48,-33.01 251.74,-27.82"/>
<polygon fill="#63b8ff" stroke="#63b8ff" points="254.63,-25.84 246.47,-19.08 248.64,-29.45 254.63,-25.84"/>
</a>
</g>
</g>
</g>
</svg>
