<?xml version="1.0" encoding="UTF-8" standalone="no"?>
<!DOCTYPE svg PUBLIC "-//W3C//DTD SVG 1.1//EN"
 "http://www.w3.org/Graphics/SVG/1.1/DTD/svg11.dtd">
<!-- Generated by graphviz version 2.43.0 (0)
 -->
<!-- Title: fl::fixed_point&lt; IntBits, FracBits, S &gt; Pages: 1 -->
<svg width="866pt" height="108pt"
 viewBox="0.00 0.00 866.00 108.00" xmlns="http://www.w3.org/2000/svg" xmlns:xlink="http://www.w3.org/1999/xlink">
<g id="graph0" class="graph" transform="scale(1 1) rotate(0) translate(4 104)">
<title>fl::fixed_point&lt; IntBits, FracBits, S &gt;</title>
<!-- Node1 -->
<g id="Node000001" class="node">
<title>Node1</title>
<g id="a_Node000001"><a xlink:title=" ">
<polygon fill="#999999" stroke="#666666" points="290,-61.5 162,-61.5 162,-31.5 290,-31.5 290,-61.5"/>
<text text-anchor="start" x="170" y="-49.5" font-family="Helvetica,sans-Serif" font-size="10.00">fl::fixed_point&lt; IntBits,</text>
<text text-anchor="middle" x="226" y="-38.5" font-family="Helvetica,sans-Serif" font-size="10.00"> FracBits, S &gt;</text>
</a>
</g>
</g>
<!-- Node3 -->
<g id="Node000003" class="node">
<title>Node3</title>
<g id="a_Node000003"><a xlink:href="../../da/da0/classfl_1_1fixed__point.html" target="_top" xlink:title=" ">
<polygon fill="white" stroke="#666666" points="567.5,-89.5 427.5,-89.5 427.5,-59.5 567.5,-59.5 567.5,-89.5"/>
<text text-anchor="start" x="435.5" y="-77.5" font-family="Helvetica,sans-Serif" font-size="10.00">fl::fixed_point&lt; IntBits,</text>
<text text-anchor="middle" x="497.5" y="-66.5" font-family="Helvetica,sans-Serif" font-size="10.00"> FracBits, Sign::SIGNED &gt;</text>
</a>
</g>
</g>
<!-- Node1&#45;&gt;Node3 -->
<g id="edge2_Node000001_Node000003" class="edge">
<title>Node1&#45;&gt;Node3</title>
<g id="a_edge2_Node000001_Node000003"><a xlink:title=" ">
<path fill="none" stroke="orange" stroke-dasharray="5,2" d="M300.28,-54.11C339.77,-58.22 388.21,-63.25 427.09,-67.29"/>
<polygon fill="orange" stroke="orange" points="300.49,-50.62 290.19,-53.06 299.77,-57.58 300.49,-50.62"/>
</a>
</g>
<text text-anchor="start" x="308" y="-78.5" font-family="Helvetica,sans-Serif" font-size="10.00" fill="grey"> &lt; IntBits, FracBits,</text>
<text text-anchor="middle" x="355" y="-67.5" font-family="Helvetica,sans-Serif" font-size="10.00" fill="grey"> Sign::SIGNED &gt;</text>
</g>
<!-- Node5 -->
<g id="Node000005" class="node">
<title>Node5</title>
<g id="a_Node000005"><a xlink:href="../../da/da0/classfl_1_1fixed__point.html" target="_top" xlink:title=" ">
<polygon fill="white" stroke="#666666" points="575,-38.5 420,-38.5 420,-8.5 575,-8.5 575,-38.5"/>
<text text-anchor="start" x="428" y="-26.5" font-family="Helvetica,sans-Serif" font-size="10.00">fl::fixed_point&lt; IntBits,</text>
<text text-anchor="middle" x="497.5" y="-15.5" font-family="Helvetica,sans-Serif" font-size="10.00"> FracBits, Sign::UNSIGNED &gt;</text>
</a>
</g>
</g>
<!-- Node1&#45;&gt;Node5 -->
<g id="edge4_Node000001_Node000005" class="edge">
<title>Node1&#45;&gt;Node5</title>
<g id="a_edge4_Node000001_Node000005"><a xlink:title=" ">
<path fill="none" stroke="orange" stroke-dasharray="5,2" d="M294.59,-29.54C299.11,-28.75 303.61,-28.06 308,-27.5 344.53,-22.88 385.36,-21.55 419.65,-21.51"/>
<polygon fill="orange" stroke="orange" points="293.87,-26.12 284.7,-31.42 295.17,-32.99 293.87,-26.12"/>
</a>
</g>
<text text-anchor="start" x="308" y="-41.5" font-family="Helvetica,sans-Serif" font-size="10.00" fill="grey"> &lt; IntBits, FracBits,</text>
<text text-anchor="middle" x="355" y="-30.5" font-family="Helvetica,sans-Serif" font-size="10.00" fill="grey"> Sign::UNSIGNED &gt;</text>
</g>
<!-- Node2 -->
<g id="Node000002" class="node">
<title>Node2</title>
<g id="a_Node000002"><a xlink:title=" ">
<polygon fill="white" stroke="#666666" points="125,-56 0,-56 0,-37 125,-37 125,-56"/>
<text text-anchor="middle" x="62.5" y="-44" font-family="Helvetica,sans-Serif" font-size="10.00">fixed_point_impl::type</text>
</a>
</g>
</g>
<!-- Node2&#45;&gt;Node1 -->
<g id="edge1_Node000001_Node000002" class="edge">
<title>Node2&#45;&gt;Node1</title>
<g id="a_edge1_Node000001_Node000002"><a xlink:title=" ">
<path fill="none" stroke="darkgreen" d="M135.29,-46.5C144.12,-46.5 153.09,-46.5 161.78,-46.5"/>
<polygon fill="darkgreen" stroke="darkgreen" points="135.02,-43 125.02,-46.5 135.02,-50 135.02,-43"/>
</a>
</g>
</g>
<!-- Node4 -->
<g id="Node000004" class="node">
<title>Node4</title>
<g id="a_Node000004"><a xlink:href="../../da/da0/classfl_1_1fixed__point.html" target="_top" xlink:title=" ">
<polygon fill="white" stroke="#666666" points="850.5,-100 721.5,-100 721.5,-59 850.5,-59 850.5,-100"/>
<text text-anchor="start" x="729.5" y="-88" font-family="Helvetica,sans-Serif" font-size="10.00">fl::fixed_point&lt; IntBits,</text>
<text text-anchor="start" x="729.5" y="-77" font-family="Helvetica,sans-Serif" font-size="10.00"> FracBits, Sign::SIGNED</text>
<text text-anchor="middle" x="786" y="-66" font-family="Helvetica,sans-Serif" font-size="10.00"> &gt;&lt; IntBits, FracBits &gt;</text>
</a>
</g>
</g>
<!-- Node3&#45;&gt;Node4 -->
<g id="edge3_Node000003_Node000004" class="edge">
<title>Node3&#45;&gt;Node4</title>
<g id="a_edge3_Node000003_Node000004"><a xlink:title=" ">
<path fill="none" stroke="orange" stroke-dasharray="5,2" d="M577.91,-75.89C623.07,-76.67 678.88,-77.65 721.18,-78.39"/>
<polygon fill="orange" stroke="orange" points="577.91,-72.39 567.85,-75.71 577.79,-79.38 577.91,-72.39"/>
</a>
</g>
<text text-anchor="middle" x="644.5" y="-80.5" font-family="Helvetica,sans-Serif" font-size="10.00" fill="grey"> &lt; IntBits, FracBits &gt;</text>
</g>
<!-- Node6 -->
<g id="Node000006" class="node">
<title>Node6</title>
<g id="a_Node000006"><a xlink:href="../../da/da0/classfl_1_1fixed__point.html" target="_top" xlink:title=" ">
<polygon fill="white" stroke="#666666" points="858,-41 714,-41 714,0 858,0 858,-41"/>
<text text-anchor="start" x="722" y="-29" font-family="Helvetica,sans-Serif" font-size="10.00">fl::fixed_point&lt; IntBits,</text>
<text text-anchor="start" x="722" y="-18" font-family="Helvetica,sans-Serif" font-size="10.00"> FracBits, Sign::UNSIGNED</text>
<text text-anchor="middle" x="786" y="-7" font-family="Helvetica,sans-Serif" font-size="10.00"> &gt;&lt; IntBits, FracBits &gt;</text>
</a>
</g>
</g>
<!-- Node5&#45;&gt;Node6 -->
<g id="edge5_Node000005_Node000006" class="edge">
<title>Node5&#45;&gt;Node6</title>
<g id="a_edge5_Node000005_Node000006"><a xlink:title=" ">
<path fill="none" stroke="orange" stroke-dasharray="5,2" d="M585.29,-22.59C626.44,-22.16 674.99,-21.65 713.92,-21.24"/>
<polygon fill="orange" stroke="orange" points="585.24,-19.09 575.28,-22.7 585.31,-26.09 585.24,-19.09"/>
</a>
</g>
<text text-anchor="middle" x="644.5" y="-25.5" font-family="Helvetica,sans-Serif" font-size="10.00" fill="grey"> &lt; IntBits, FracBits &gt;</text>
</g>
</g>
</svg>
