<?xml version="1.0" encoding="UTF-8" standalone="no"?>
<!DOCTYPE svg PUBLIC "-//W3C//DTD SVG 1.1//EN"
 "http://www.w3.org/Graphics/SVG/1.1/DTD/svg11.dtd">
<!-- Generated by graphviz version 2.43.0 (0)
 -->
<!-- Title: fl::Transform16::Transform16 Pages: 1 -->
<svg width="498pt" height="83pt"
 viewBox="0.00 0.00 498.00 83.00" xmlns="http://www.w3.org/2000/svg" xmlns:xlink="http://www.w3.org/1999/xlink">
<g id="graph0" class="graph" transform="scale(1 1) rotate(0) translate(4 79)">
<title>fl::Transform16::Transform16</title>
<!-- Node1 -->
<g id="Node000001" class="node">
<title>Node1</title>
<g id="a_Node000001"><a xlink:title=" ">
<polygon fill="#999999" stroke="#666666" points="490,-56 334,-56 334,-37 490,-37 490,-56"/>
<text text-anchor="middle" x="412" y="-44" font-family="Helvetica,sans-Serif" font-size="10.00">fl::Transform16::Transform16</text>
</a>
</g>
</g>
<!-- Node2 -->
<g id="Node000002" class="node">
<title>Node2</title>
<g id="a_Node000002"><a xlink:href="../../d0/dfa/structfl_1_1_transform16_a8f5a51e51945860f6bab9e360c33c76d.html#a8f5a51e51945860f6bab9e360c33c76d" target="_top" xlink:title=" ">
<polygon fill="white" stroke="#666666" points="120,-75 0,-75 0,-56 120,-56 120,-75"/>
<text text-anchor="middle" x="60" y="-63" font-family="Helvetica,sans-Serif" font-size="10.00">fl::Transform16::From</text>
</a>
</g>
</g>
<!-- Node1&#45;&gt;Node2 -->
<g id="edge1_Node000001_Node000002" class="edge">
<title>Node1&#45;&gt;Node2</title>
<g id="a_edge1_Node000001_Node000002"><a xlink:title=" ">
<path fill="none" stroke="#63b8ff" d="M355.19,-57.78C337.04,-60.94 316.73,-63.94 298,-65.5 237.52,-70.55 168.06,-69.78 120.04,-68.22"/>
<polygon fill="#63b8ff" stroke="#63b8ff" points="355.81,-61.22 365.04,-56.01 354.58,-54.33 355.81,-61.22"/>
</a>
</g>
</g>
<!-- Node3 -->
<g id="Node000003" class="node">
<title>Node3</title>
<g id="a_Node000003"><a xlink:href="../../d0/dfa/structfl_1_1_transform16_ab23382dedf9146917796ede4784cff0e.html#ab23382dedf9146917796ede4784cff0e" target="_top" xlink:title=" ">
<polygon fill="white" stroke="#666666" points="298,-56 156,-56 156,-37 298,-37 298,-56"/>
<text text-anchor="middle" x="227" y="-44" font-family="Helvetica,sans-Serif" font-size="10.00">fl::Transform16::ToBounds</text>
</a>
</g>
</g>
<!-- Node1&#45;&gt;Node3 -->
<g id="edge2_Node000001_Node000003" class="edge">
<title>Node1&#45;&gt;Node3</title>
<g id="a_edge2_Node000001_Node000003"><a xlink:title=" ">
<path fill="none" stroke="#63b8ff" d="M323.81,-46.5C315.15,-46.5 306.45,-46.5 298,-46.5"/>
<polygon fill="#63b8ff" stroke="#63b8ff" points="323.92,-50 333.92,-46.5 323.92,-43 323.92,-50"/>
</a>
</g>
</g>
<!-- Node4 -->
<g id="Node000004" class="node">
<title>Node4</title>
<g id="a_Node000004"><a xlink:href="../../d0/dfa/structfl_1_1_transform16_adab4dc16343e9ac21f90e27f9d3cf100.html#adab4dc16343e9ac21f90e27f9d3cf100" target="_top" xlink:title=" ">
<polygon fill="white" stroke="#666666" points="298,-19 156,-19 156,0 298,0 298,-19"/>
<text text-anchor="middle" x="227" y="-7" font-family="Helvetica,sans-Serif" font-size="10.00">fl::Transform16::ToBounds</text>
</a>
</g>
</g>
<!-- Node1&#45;&gt;Node4 -->
<g id="edge4_Node000001_Node000004" class="edge">
<title>Node1&#45;&gt;Node4</title>
<g id="a_edge4_Node000001_Node000004"><a xlink:title=" ">
<path fill="none" stroke="#63b8ff" d="M354.04,-34.98C328.75,-29.87 299.34,-23.92 275.29,-19.06"/>
<polygon fill="#63b8ff" stroke="#63b8ff" points="353.38,-38.42 363.87,-36.97 354.76,-31.56 353.38,-38.42"/>
</a>
</g>
</g>
<!-- Node3&#45;&gt;Node2 -->
<g id="edge3_Node000003_Node000002" class="edge">
<title>Node3&#45;&gt;Node2</title>
<g id="a_edge3_Node000003_Node000002"><a xlink:title=" ">
<path fill="none" stroke="#63b8ff" d="M145.51,-55.77C136.93,-56.76 128.33,-57.75 120.06,-58.7"/>
<polygon fill="#63b8ff" stroke="#63b8ff" points="146.01,-59.23 155.55,-54.61 145.21,-52.28 146.01,-59.23"/>
</a>
</g>
</g>
</g>
</svg>
