<?xml version="1.0" encoding="UTF-8" standalone="no"?>
<!DOCTYPE svg PUBLIC "-//W3C//DTD SVG 1.1//EN"
 "http://www.w3.org/Graphics/SVG/1.1/DTD/svg11.dtd">
<!-- Generated by graphviz version 2.43.0 (0)
 -->
<!-- Title: setup Pages: 1 -->
<svg width="383pt" height="101pt"
 viewBox="0.00 0.00 383.00 101.00" xmlns="http://www.w3.org/2000/svg" xmlns:xlink="http://www.w3.org/1999/xlink">
<g id="graph0" class="graph" transform="scale(1 1) rotate(0) translate(4 97)">
<title>setup</title>
<!-- Node1 -->
<g id="Node000001" class="node">
<title>Node1</title>
<g id="a_Node000001"><a xlink:title=" ">
<polygon fill="#999999" stroke="#666666" points="44,-56 0,-56 0,-37 44,-37 44,-56"/>
<text text-anchor="middle" x="22" y="-44" font-family="Helvetica,sans-Serif" font-size="10.00">setup</text>
</a>
</g>
</g>
<!-- Node2 -->
<g id="Node000002" class="node">
<title>Node2</title>
<g id="a_Node000002"><a xlink:href="../../d2/d78/classfl_1_1_screen_map_af96d710c362acb2f8d9e52360ac873ec.html#af96d710c362acb2f8d9e52360ac873ec" target="_top" xlink:title=" ">
<polygon fill="white" stroke="#666666" points="196,-56 80,-56 80,-37 196,-37 196,-56"/>
<text text-anchor="middle" x="138" y="-44" font-family="Helvetica,sans-Serif" font-size="10.00">fl::ScreenMap::Circle</text>
</a>
</g>
</g>
<!-- Node1&#45;&gt;Node2 -->
<g id="edge1_Node000001_Node000002" class="edge">
<title>Node1&#45;&gt;Node2</title>
<g id="a_edge1_Node000001_Node000002"><a xlink:title=" ">
<path fill="none" stroke="#63b8ff" d="M44.18,-46.5C51.65,-46.5 60.5,-46.5 69.72,-46.5"/>
<polygon fill="#63b8ff" stroke="#63b8ff" points="69.83,-50 79.83,-46.5 69.83,-43 69.83,-50"/>
</a>
</g>
</g>
<!-- Node3 -->
<g id="Node000003" class="node">
<title>Node3</title>
<g id="a_Node000003"><a xlink:href="../../d2/d78/classfl_1_1_screen_map_a63142bb78751fc505d8c54314c9cd386.html#a63142bb78751fc505d8c54314c9cd386" target="_top" xlink:title=" ">
<polygon fill="white" stroke="#666666" points="375,-93 232,-93 232,-74 375,-74 375,-93"/>
<text text-anchor="middle" x="303.5" y="-81" font-family="Helvetica,sans-Serif" font-size="10.00">fl::ScreenMap::ScreenMap</text>
</a>
</g>
</g>
<!-- Node2&#45;&gt;Node3 -->
<g id="edge2_Node000002_Node000003" class="edge">
<title>Node2&#45;&gt;Node3</title>
<g id="a_edge2_Node000002_Node000003"><a xlink:title=" ">
<path fill="none" stroke="#63b8ff" d="M181.11,-56.03C202.19,-60.8 227.92,-66.62 250.26,-71.68"/>
<polygon fill="#63b8ff" stroke="#63b8ff" points="249.73,-75.15 260.25,-73.94 251.27,-68.32 249.73,-75.15"/>
</a>
</g>
</g>
<!-- Node4 -->
<g id="Node000004" class="node">
<title>Node4</title>
<g id="a_Node000004"><a xlink:href="../../d4/d36/namespacefl_a9cda2472ab9bd68df745496533aa76e7.html#a9cda2472ab9bd68df745496533aa76e7" target="_top" xlink:title=" ">
<polygon fill="white" stroke="#666666" points="326,-56 281,-56 281,-37 326,-37 326,-56"/>
<text text-anchor="middle" x="303.5" y="-44" font-family="Helvetica,sans-Serif" font-size="10.00">fl::cos</text>
</a>
</g>
</g>
<!-- Node2&#45;&gt;Node4 -->
<g id="edge3_Node000002_Node000004" class="edge">
<title>Node2&#45;&gt;Node4</title>
<g id="a_edge3_Node000002_Node000004"><a xlink:title=" ">
<path fill="none" stroke="#63b8ff" d="M196.18,-46.5C221.24,-46.5 249.68,-46.5 270.84,-46.5"/>
<polygon fill="#63b8ff" stroke="#63b8ff" points="270.89,-50 280.89,-46.5 270.89,-43 270.89,-50"/>
</a>
</g>
</g>
<!-- Node5 -->
<g id="Node000005" class="node">
<title>Node5</title>
<g id="a_Node000005"><a xlink:href="../../d4/d36/namespacefl_abc07da8d8983da7016b55f7626e9c060.html#abc07da8d8983da7016b55f7626e9c060" target="_top" xlink:title=" ">
<polygon fill="white" stroke="#666666" points="325,-19 282,-19 282,0 325,0 325,-19"/>
<text text-anchor="middle" x="303.5" y="-7" font-family="Helvetica,sans-Serif" font-size="10.00">fl::sin</text>
</a>
</g>
</g>
<!-- Node2&#45;&gt;Node5 -->
<g id="edge4_Node000002_Node000005" class="edge">
<title>Node2&#45;&gt;Node5</title>
<g id="a_edge4_Node000002_Node000005"><a xlink:title=" ">
<path fill="none" stroke="#63b8ff" d="M181.11,-36.97C209.55,-30.54 246.43,-22.19 272.05,-16.39"/>
<polygon fill="#63b8ff" stroke="#63b8ff" points="272.96,-19.77 281.94,-14.15 271.41,-12.95 272.96,-19.77"/>
</a>
</g>
</g>
</g>
</svg>
