<?xml version="1.0" encoding="UTF-8" standalone="no"?>
<!DOCTYPE svg PUBLIC "-//W3C//DTD SVG 1.1//EN"
 "http://www.w3.org/Graphics/SVG/1.1/DTD/svg11.dtd">
<!-- Generated by graphviz version 2.43.0 (0)
 -->
<!-- Title: loop Pages: 1 -->
<svg width="183pt" height="415pt"
 viewBox="0.00 0.00 183.00 415.00" xmlns="http://www.w3.org/2000/svg" xmlns:xlink="http://www.w3.org/1999/xlink">

<svg id="main" version="1.1" xmlns="http://www.w3.org/2000/svg" xmlns:xlink="http://www.w3.org/1999/xlink" xml:space="preserve">

<style type="text/css"><![CDATA[
.node, .edge {opacity: 0.7;}
.node.selected, .edge.selected {opacity: 1;}
.edge:hover path { stroke: red; }
.edge:hover polygon { stroke: red; fill: red; }
]]></style>
<script type="application/ecmascript" xlink:href="../../svg.min.js"/>
<svg id="graph" class="graph">
<g id="graph0" class="graph" transform="scale(1 1) rotate(0) translate(4 411)">
<title>loop</title>
<!-- Node1 -->
<g id="Node000001" class="node">
<title>Node1</title>
<g id="a_Node000001"><a xlink:title=" ">
<polygon fill="#999999" stroke="#666666" points="38,-204 0,-204 0,-185 38,-185 38,-204"/>
<text text-anchor="middle" x="19" y="-192" font-family="Helvetica,sans-Serif" font-size="10.00">loop</text>
</a>
</g>
</g>
<!-- Node2 -->
<g id="Node000002" class="node">
<title>Node2</title>
<g id="a_Node000002"><a xlink:href="../../d4/d36/namespacefl_a335fa6e4af7f0a011997ea0137d49b5a.html#a335fa6e4af7f0a011997ea0137d49b5a" target="_top" xlink:title="Universal millisecond timer &#45; returns milliseconds since system startup.">
<polygon fill="white" stroke="#666666" points="152.5,-389 96.5,-389 96.5,-370 152.5,-370 152.5,-389"/>
<text text-anchor="middle" x="124.5" y="-377" font-family="Helvetica,sans-Serif" font-size="10.00">fl::millis</text>
</a>
</g>
</g>
<!-- Node1&#45;&gt;Node2 -->
<g id="edge1_Node000001_Node000002" class="edge">
<title>Node1&#45;&gt;Node2</title>
<g id="a_edge1_Node000001_Node000002"><a xlink:title=" ">
<path fill="none" stroke="#63b8ff" d="M20.3,-204.28C21.7,-232.57 29.58,-315.44 74,-361.5 77.64,-365.27 82.12,-368.25 86.9,-370.62"/>
<polygon fill="#63b8ff" stroke="#63b8ff" points="85.71,-373.91 96.29,-374.43 88.34,-367.42 85.71,-373.91"/>
</a>
</g>
</g>
<!-- Node3 -->
<g id="Node000003" class="node">
<title>Node3</title>
<g id="a_Node000003"><a xlink:href="../../d1/d4e/_particles1d_8h_a3b09fd7d739d2e44f5cf41c159ef6989.html#a3b09fd7d739d2e44f5cf41c159ef6989" target="_top" xlink:title=" ">
<polygon fill="white" stroke="#666666" points="154,-352 95,-352 95,-333 154,-333 154,-352"/>
<text text-anchor="middle" x="124.5" y="-340" font-family="Helvetica,sans-Serif" font-size="10.00">particles</text>
</a>
</g>
</g>
<!-- Node1&#45;&gt;Node3 -->
<g id="edge3_Node000001_Node000003" class="edge">
<title>Node1&#45;&gt;Node3</title>
<g id="a_edge3_Node000001_Node000003"><a xlink:title=" ">
<path fill="none" stroke="#63b8ff" d="M21.32,-204.15C25.07,-227.95 37.96,-290.05 74,-324.5 77.32,-327.68 81.25,-330.3 85.42,-332.47"/>
<polygon fill="#63b8ff" stroke="#63b8ff" points="84.22,-335.76 94.78,-336.51 86.99,-329.33 84.22,-335.76"/>
</a>
</g>
</g>
<!-- Node4 -->
<g id="Node000004" class="node">
<title>Node4</title>
<g id="a_Node000004"><a xlink:href="../../d1/d4e/_particles1d_8h_a495f8b97c342cb0e9f62506d791022f6.html#a495f8b97c342cb0e9f62506d791022f6" target="_top" xlink:title=" ">
<polygon fill="white" stroke="#666666" points="164.5,-315 84.5,-315 84.5,-296 164.5,-296 164.5,-315"/>
<text text-anchor="middle" x="124.5" y="-303" font-family="Helvetica,sans-Serif" font-size="10.00">uiAutoSpawn</text>
</a>
</g>
</g>
<!-- Node1&#45;&gt;Node4 -->
<g id="edge4_Node000001_Node000004" class="edge">
<title>Node1&#45;&gt;Node4</title>
<g id="a_edge4_Node000001_Node000004"><a xlink:title=" ">
<path fill="none" stroke="#63b8ff" d="M23.08,-204.13C29.53,-222.83 46.22,-264.26 74,-287.5 75.53,-288.78 77.15,-289.97 78.84,-291.07"/>
<polygon fill="#63b8ff" stroke="#63b8ff" points="77.32,-294.23 87.77,-295.96 80.68,-288.09 77.32,-294.23"/>
</a>
</g>
</g>
<!-- Node5 -->
<g id="Node000005" class="node">
<title>Node5</title>
<g id="a_Node000005"><a xlink:href="../../d1/d4e/_particles1d_8h_a1e2c4b1d9158151a78243e7a95c8b68a.html#a1e2c4b1d9158151a78243e7a95c8b68a" target="_top" xlink:title=" ">
<polygon fill="white" stroke="#666666" points="163,-278 86,-278 86,-259 163,-259 163,-278"/>
<text text-anchor="middle" x="124.5" y="-266" font-family="Helvetica,sans-Serif" font-size="10.00">uiBrightness</text>
</a>
</g>
</g>
<!-- Node1&#45;&gt;Node5 -->
<g id="edge5_Node000001_Node000005" class="edge">
<title>Node1&#45;&gt;Node5</title>
<g id="a_edge5_Node000001_Node000005"><a xlink:title=" ">
<path fill="none" stroke="#63b8ff" d="M27.01,-204.12C36.43,-216.43 54.29,-237.7 74,-250.5 76.29,-251.99 78.73,-253.38 81.23,-254.67"/>
<polygon fill="#63b8ff" stroke="#63b8ff" points="79.99,-257.94 90.54,-258.91 82.89,-251.57 79.99,-257.94"/>
</a>
</g>
</g>
<!-- Node6 -->
<g id="Node000006" class="node">
<title>Node6</title>
<g id="a_Node000006"><a xlink:href="../../d1/d4e/_particles1d_8h_afa43d596d57e743ac7f87005e2840665.html#afa43d596d57e743ac7f87005e2840665" target="_top" xlink:title=" ">
<polygon fill="white" stroke="#666666" points="156.5,-241 92.5,-241 92.5,-222 156.5,-222 156.5,-241"/>
<text text-anchor="middle" x="124.5" y="-229" font-family="Helvetica,sans-Serif" font-size="10.00">uiCyclical</text>
</a>
</g>
</g>
<!-- Node1&#45;&gt;Node6 -->
<g id="edge6_Node000001_Node000006" class="edge">
<title>Node1&#45;&gt;Node6</title>
<g id="a_edge6_Node000001_Node000006"><a xlink:title=" ">
<path fill="none" stroke="#63b8ff" d="M38.03,-200.94C51.58,-205.79 70.61,-212.59 87.27,-218.55"/>
<polygon fill="#63b8ff" stroke="#63b8ff" points="86.15,-221.86 96.75,-221.94 88.51,-215.27 86.15,-221.86"/>
</a>
</g>
</g>
<!-- Node7 -->
<g id="Node000007" class="node">
<title>Node7</title>
<g id="a_Node000007"><a xlink:href="../../d1/d4e/_particles1d_8h_a54c96924f516196a1c59395568ef9538.html#a54c96924f516196a1c59395568ef9538" target="_top" xlink:title=" ">
<polygon fill="white" stroke="#666666" points="167.5,-204 81.5,-204 81.5,-185 167.5,-185 167.5,-204"/>
<text text-anchor="middle" x="124.5" y="-192" font-family="Helvetica,sans-Serif" font-size="10.00">uiFadeAmount</text>
</a>
</g>
</g>
<!-- Node1&#45;&gt;Node7 -->
<g id="edge7_Node000001_Node000007" class="edge">
<title>Node1&#45;&gt;Node7</title>
<g id="a_edge7_Node000001_Node000007"><a xlink:title=" ">
<path fill="none" stroke="#63b8ff" d="M38.03,-194.5C47.26,-194.5 59.02,-194.5 70.84,-194.5"/>
<polygon fill="#63b8ff" stroke="#63b8ff" points="71.19,-198 81.19,-194.5 71.19,-191 71.19,-198"/>
</a>
</g>
</g>
<!-- Node8 -->
<g id="Node000008" class="node">
<title>Node8</title>
<g id="a_Node000008"><a xlink:href="../../d1/d4e/_particles1d_8h_a7237ccbdde2d8488a4e7331c87a3ea18.html#a7237ccbdde2d8488a4e7331c87a3ea18" target="_top" xlink:title=" ">
<polygon fill="white" stroke="#666666" points="157.5,-167 91.5,-167 91.5,-148 157.5,-148 157.5,-167"/>
<text text-anchor="middle" x="124.5" y="-155" font-family="Helvetica,sans-Serif" font-size="10.00">uiLifetime</text>
</a>
</g>
</g>
<!-- Node1&#45;&gt;Node8 -->
<g id="edge8_Node000001_Node000008" class="edge">
<title>Node1&#45;&gt;Node8</title>
<g id="a_edge8_Node000001_Node000008"><a xlink:title=" ">
<path fill="none" stroke="#63b8ff" d="M38.03,-188.06C51.58,-183.21 70.61,-176.41 87.27,-170.45"/>
<polygon fill="#63b8ff" stroke="#63b8ff" points="88.51,-173.73 96.75,-167.06 86.15,-167.14 88.51,-173.73"/>
</a>
</g>
</g>
<!-- Node9 -->
<g id="Node000009" class="node">
<title>Node9</title>
<g id="a_Node000009"><a xlink:href="../../d1/d4e/_particles1d_8h_a57fd69ec39cdb5dda32285d7e2b97c64.html#a57fd69ec39cdb5dda32285d7e2b97c64" target="_top" xlink:title=" ">
<polygon fill="white" stroke="#666666" points="175,-130 74,-130 74,-111 175,-111 175,-130"/>
<text text-anchor="middle" x="124.5" y="-118" font-family="Helvetica,sans-Serif" font-size="10.00">uiOverdrawCount</text>
</a>
</g>
</g>
<!-- Node1&#45;&gt;Node9 -->
<g id="edge9_Node000001_Node000009" class="edge">
<title>Node1&#45;&gt;Node9</title>
<g id="a_edge9_Node000001_Node000009"><a xlink:title=" ">
<path fill="none" stroke="#63b8ff" d="M27.41,-184.7C36.99,-172.61 54.75,-152.12 74,-139.5 76.9,-137.6 80.01,-135.85 83.22,-134.24"/>
<polygon fill="#63b8ff" stroke="#63b8ff" points="84.72,-137.4 92.39,-130.1 81.84,-131.02 84.72,-137.4"/>
</a>
</g>
</g>
<!-- Node10 -->
<g id="Node000010" class="node">
<title>Node10</title>
<g id="a_Node000010"><a xlink:href="../../d1/d4e/_particles1d_8h_a3324ecb33c91c166ab71dd0da3673c2f.html#a3324ecb33c91c166ab71dd0da3673c2f" target="_top" xlink:title=" ">
<polygon fill="white" stroke="#666666" points="169.5,-93 79.5,-93 79.5,-74 169.5,-74 169.5,-93"/>
<text text-anchor="middle" x="124.5" y="-81" font-family="Helvetica,sans-Serif" font-size="10.00">uiSpawnButton</text>
</a>
</g>
</g>
<!-- Node1&#45;&gt;Node10 -->
<g id="edge10_Node000001_Node000010" class="edge">
<title>Node1&#45;&gt;Node10</title>
<g id="a_edge10_Node000001_Node000010"><a xlink:title=" ">
<path fill="none" stroke="#63b8ff" d="M23.25,-184.73C29.89,-166.17 46.74,-125.62 74,-102.5 75.97,-100.83 78.09,-99.3 80.33,-97.9"/>
<polygon fill="#63b8ff" stroke="#63b8ff" points="82.14,-100.9 89.32,-93.1 78.85,-94.72 82.14,-100.9"/>
</a>
</g>
</g>
<!-- Node11 -->
<g id="Node000011" class="node">
<title>Node11</title>
<g id="a_Node000011"><a xlink:href="../../d1/d4e/_particles1d_8h_aa13e2615c7e026bf7e04a07b5eaf8f2a.html#aa13e2615c7e026bf7e04a07b5eaf8f2a" target="_top" xlink:title=" ">
<polygon fill="white" stroke="#666666" points="172,-56 77,-56 77,-37 172,-37 172,-56"/>
<text text-anchor="middle" x="124.5" y="-44" font-family="Helvetica,sans-Serif" font-size="10.00">uiSpawnInterval</text>
</a>
</g>
</g>
<!-- Node1&#45;&gt;Node11 -->
<g id="edge11_Node000001_Node000011" class="edge">
<title>Node1&#45;&gt;Node11</title>
<g id="a_edge11_Node000001_Node000011"><a xlink:title=" ">
<path fill="none" stroke="#63b8ff" d="M21.38,-184.96C25.27,-161.43 38.46,-99.99 74,-65.5 75.61,-63.94 77.36,-62.5 79.22,-61.18"/>
<polygon fill="#63b8ff" stroke="#63b8ff" points="81.01,-64.18 87.85,-56.09 77.46,-58.15 81.01,-64.18"/>
</a>
</g>
</g>
<!-- Node12 -->
<g id="Node000012" class="node">
<title>Node12</title>
<g id="a_Node000012"><a xlink:href="../../d1/d4e/_particles1d_8h_a8a19706a72d765aa8f88a20752202354.html#a8a19706a72d765aa8f88a20752202354" target="_top" xlink:title=" ">
<polygon fill="white" stroke="#666666" points="152.5,-19 96.5,-19 96.5,0 152.5,0 152.5,-19"/>
<text text-anchor="middle" x="124.5" y="-7" font-family="Helvetica,sans-Serif" font-size="10.00">uiSpeed</text>
</a>
</g>
</g>
<!-- Node1&#45;&gt;Node12 -->
<g id="edge12_Node000001_Node000012" class="edge">
<title>Node1&#45;&gt;Node12</title>
<g id="a_edge12_Node000001_Node000012"><a xlink:title=" ">
<path fill="none" stroke="#63b8ff" d="M20.36,-184.82C21.92,-156.79 30.18,-74.66 74,-28.5 77.63,-24.68 82.11,-21.61 86.89,-19.16"/>
<polygon fill="#63b8ff" stroke="#63b8ff" points="88.45,-22.3 96.28,-15.16 85.71,-15.86 88.45,-22.3"/>
</a>
</g>
</g>
<!-- Node2&#45;&gt;Node2 -->
<g id="edge2_Node000002_Node000002" class="edge">
<title>Node2&#45;&gt;Node2</title>
<g id="a_edge2_Node000002_Node000002"><a xlink:title=" ">
<path fill="none" stroke="#63b8ff" d="M108.47,-389.08C100.67,-397.73 106.02,-407 124.5,-407 136.05,-407 142.47,-403.38 143.76,-398.55"/>
<polygon fill="#63b8ff" stroke="#63b8ff" points="147.07,-397.42 140.53,-389.08 140.44,-399.68 147.07,-397.42"/>
</a>
</g>
</g>
</g>
</svg>
</svg>

<style type='text/css'>
<![CDATA[
[data-mouse-over-selected='false'] { opacity: 0.7; }
[data-mouse-over-selected='true']  { opacity: 1.0; }
]]>
</style>
<script type="application/ecmascript"><![CDATA[
document.addEventListener('DOMContentLoaded', (event) => {
  highlightEdges();
  highlightAdjacentNodes();
});
]]></script>
</svg>
