<?xml version="1.0" encoding="UTF-8" standalone="no"?>
<!DOCTYPE svg PUBLIC "-//W3C//DTD SVG 1.1//EN"
 "http://www.w3.org/Graphics/SVG/1.1/DTD/svg11.dtd">
<!-- Generated by graphviz version 2.43.0 (0)
 -->
<!-- Title: bench Pages: 1 -->
<!--zoomable 306 -->

<svg id="main" version="1.1" xmlns="http://www.w3.org/2000/svg" xmlns:xlink="http://www.w3.org/1999/xlink" xml:space="preserve" onload="init(evt)">

<style type="text/css"><![CDATA[
.node, .edge {opacity: 0.7;}
.node.selected, .edge.selected {opacity: 1;}
.edge:hover path { stroke: red; }
.edge:hover polygon { stroke: red; fill: red; }
]]></style>

<defs>
  <circle id="rim" cx="0" cy="0" r="7"/>
  <circle id="rim2" cx="0" cy="0" r="3.5"/>
  <g id="zoomPlus">
    <use xlink:href="#rim" fill="#404040"><set attributeName="fill" to="#808080" begin="zoomplus.mouseover" end="zoomplus.mouseout"/></use>
    <path d="M-4,0h8M0,-4v8" fill="none" stroke="white" stroke-width="1.5" pointer-events="none"/>
  </g>
  <g id="zoomMin">
    <use xlink:href="#rim" fill="#404040"><set attributeName="fill" to="#808080" begin="zoomminus.mouseover" end="zoomminus.mouseout"/></use>
    <path d="M-4,0h8" fill="none" stroke="white" stroke-width="1.5" pointer-events="none"/>
  </g>
  <g id="arrowUp" transform="translate(30 24)">
    <use xlink:href="#rim"/>
    <path pointer-events="none" fill="none" stroke="white" stroke-width="1.5" d="M0,-3.0v7 M-2.5,-0.5L0,-3.0L2.5,-0.5"/>
  </g>
  <g id="arrowRight" transform="rotate(90) translate(36 -43)">
    <use xlink:href="#rim"/>
    <path pointer-events="none" fill="none" stroke="white" stroke-width="1.5" d="M0,-3.0v7 M-2.5,-0.5L0,-3.0L2.5,-0.5"/>
  </g>
  <g id="arrowDown" transform="rotate(180) translate(-30 -48)">
    <use xlink:href="#rim"/>
    <path pointer-events="none" fill="none" stroke="white" stroke-width="1.5" d="M0,-3.0v7 M-2.5,-0.5L0,-3.0L2.5,-0.5"/>
  </g>
  <g id="arrowLeft" transform="rotate(270) translate(-36 17)">
    <use xlink:href="#rim"/>
    <path pointer-events="none" fill="none" stroke="white" stroke-width="1.5" d="M0,-3.0v7 M-2.5,-0.5L0,-3.0L2.5,-0.5"/>
  </g>
  <g id="resetDef">
    <use xlink:href="#rim2" fill="#404040"><set attributeName="fill" to="#808080" begin="reset.mouseover" end="reset.mouseout"/></use>
  </g>
</defs>
<script type="application/ecmascript">
var viewWidth = 525;
var viewHeight = 306;
var sectionId = 'dynsection-0';
</script>
<script type="application/ecmascript" xlink:href="../../svg.min.js"/>
<svg id="graph" class="graph">
<g id="viewport">
<title>bench</title>
<!-- Node1 -->
<g id="Node000001" class="node">
<title>Node1</title>
<g id="a_Node000001"><a xlink:title=" ">
<polygon fill="#999999" stroke="#666666" points="46,-139.5 0,-139.5 0,-120.5 46,-120.5 46,-139.5"/>
<text text-anchor="middle" x="23" y="-127.5" font-family="Helvetica,sans-Serif" font-size="10.00">bench</text>
</a>
</g>
</g>
<!-- Node2 -->
<g id="Node000002" class="node">
<title>Node2</title>
<g id="a_Node000002"><a xlink:href="../../d0/d8b/namespacefl_1_1gfx_a2d0276b48f273dfb519f75e12846b0d4.html#a2d0276b48f273dfb519f75e12846b0d4" target="_top" xlink:title="Compile&#45;time Gaussian blur with independent H/V radii.">
<polygon fill="white" stroke="#666666" points="196,-158.5 82,-158.5 82,-139.5 196,-139.5 196,-158.5"/>
<text text-anchor="middle" x="139" y="-146.5" font-family="Helvetica,sans-Serif" font-size="10.00">fl::gfx::blurGaussian</text>
</a>
</g>
</g>
<!-- Node1&#45;&gt;Node2 -->
<g id="edge1_Node000001_Node000002" class="edge">
<title>Node1&#45;&gt;Node2</title>
<g id="a_edge1_Node000001_Node000002"><a xlink:title=" ">
<path fill="none" stroke="#63b8ff" d="M46.25,-133.71C53.77,-134.96 62.59,-136.43 71.74,-137.96"/>
<polygon fill="#63b8ff" stroke="#63b8ff" points="71.31,-141.43 81.75,-139.63 72.46,-134.53 71.31,-141.43"/>
</a>
</g>
</g>
<!-- Node16 -->
<g id="Node000016" class="node">
<title>Node16</title>
<g id="a_Node000016"><a xlink:href="../../d1/d1d/_blur_benchmark_8ino_a8a7c92da84cc49c9b6c79cbbc390d482.html#a8a7c92da84cc49c9b6c79cbbc390d482" target="_top" xlink:title=" ">
<polygon fill="white" stroke="#666666" points="179,-121.5 99,-121.5 99,-102.5 179,-102.5 179,-121.5"/>
<text text-anchor="middle" x="139" y="-109.5" font-family="Helvetica,sans-Serif" font-size="10.00">fill_test_data</text>
</a>
</g>
</g>
<!-- Node1&#45;&gt;Node16 -->
<g id="edge10_Node000001_Node000016" class="edge">
<title>Node1&#45;&gt;Node16</title>
<g id="a_edge10_Node000001_Node000016"><a xlink:title=" ">
<path fill="none" stroke="#63b8ff" d="M46.25,-126.49C58.36,-124.57 73.85,-122.13 88.64,-119.79"/>
<polygon fill="#63b8ff" stroke="#63b8ff" points="89.39,-123.22 98.72,-118.2 88.3,-116.3 89.39,-123.22"/>
</a>
</g>
</g>
<!-- Node3 -->
<g id="Node000003" class="node">
<title>Node3</title>
<g id="a_Node000003"><a xlink:href="../../d0/d8b/namespacefl_1_1gfx_a9c2302b4a1a567e89ab63f5ddc3b7532.html#a9c2302b4a1a567e89ab63f5ddc3b7532" target="_top" xlink:title=" ">
<polygon fill="white" stroke="#666666" points="368,-158.5 232,-158.5 232,-139.5 368,-139.5 368,-158.5"/>
<text text-anchor="middle" x="300" y="-146.5" font-family="Helvetica,sans-Serif" font-size="10.00">fl::gfx::blurGaussianImpl</text>
</a>
</g>
</g>
<!-- Node2&#45;&gt;Node3 -->
<g id="edge2_Node000002_Node000003" class="edge">
<title>Node2&#45;&gt;Node3</title>
<g id="a_edge2_Node000002_Node000003"><a xlink:title=" ">
<path fill="none" stroke="#63b8ff" d="M196.06,-149C204.35,-149 213.01,-149 221.64,-149"/>
<polygon fill="#63b8ff" stroke="#63b8ff" points="221.73,-152.5 231.73,-149 221.73,-145.5 221.73,-152.5"/>
</a>
</g>
</g>
<!-- Node4 -->
<g id="Node000004" class="node">
<title>Node4</title>
<g id="a_Node000004"><a xlink:href="../../da/d8f/namespacefl_1_1gfx_1_1blur__detail_a34d2ba76aa6e39b90d485af17c835732.html#a34d2ba76aa6e39b90d485af17c835732" target="_top" xlink:title=" ">
<polygon fill="white" stroke="#666666" points="511.5,-298 409.5,-298 409.5,-268 511.5,-268 511.5,-298"/>
<text text-anchor="start" x="417.5" y="-286" font-family="Helvetica,sans-Serif" font-size="10.00">fl::gfx::blur_detail</text>
<text text-anchor="middle" x="460.5" y="-275" font-family="Helvetica,sans-Serif" font-size="10.00">::alpha_identity</text>
</a>
</g>
</g>
<!-- Node3&#45;&gt;Node4 -->
<g id="edge3_Node000003_Node000004" class="edge">
<title>Node3&#45;&gt;Node4</title>
<g id="a_edge3_Node000003_Node000004"><a xlink:title=" ">
<path fill="none" stroke="#63b8ff" d="M307.94,-158.79C323.19,-179.69 361.64,-229.19 404,-259 406.07,-260.45 408.23,-261.85 410.47,-263.18"/>
<polygon fill="#63b8ff" stroke="#63b8ff" points="408.86,-266.29 419.32,-267.99 412.21,-260.14 408.86,-266.29"/>
</a>
</g>
</g>
<!-- Node5 -->
<g id="Node000005" class="node">
<title>Node5</title>
<g id="a_Node000005"><a xlink:href="../../da/d8f/namespacefl_1_1gfx_1_1blur__detail_a944ff6b562051adb55615b615614fa1b.html#a944ff6b562051adb55615b615614fa1b" target="_top" xlink:title=" ">
<polygon fill="white" stroke="#666666" points="517,-250 404,-250 404,-220 517,-220 517,-250"/>
<text text-anchor="start" x="412" y="-238" font-family="Helvetica,sans-Serif" font-size="10.00">fl::gfx::blur_detail</text>
<text text-anchor="middle" x="460.5" y="-227" font-family="Helvetica,sans-Serif" font-size="10.00">::compute_pad_size</text>
</a>
</g>
</g>
<!-- Node3&#45;&gt;Node5 -->
<g id="edge4_Node000003_Node000005" class="edge">
<title>Node3&#45;&gt;Node5</title>
<g id="a_edge4_Node000003_Node000005"><a xlink:title=" ">
<path fill="none" stroke="#63b8ff" d="M315.65,-158.68C335.31,-171.46 371.52,-194.3 404,-211 407.08,-212.58 410.29,-214.16 413.54,-215.7"/>
<polygon fill="#63b8ff" stroke="#63b8ff" points="412.21,-218.94 422.75,-219.94 415.13,-212.58 412.21,-218.94"/>
</a>
</g>
</g>
<!-- Node6 -->
<g id="Node000006" class="node">
<title>Node6</title>
<g id="a_Node000006"><a xlink:href="../../d0/d08/classfl_1_1span_a326aa9f29859fe8a92833fd5db12c3bb.html#a326aa9f29859fe8a92833fd5db12c3bb" target="_top" xlink:title=" ">
<polygon fill="white" stroke="#666666" points="500.5,-201.5 420.5,-201.5 420.5,-182.5 500.5,-182.5 500.5,-201.5"/>
<text text-anchor="middle" x="460.5" y="-189.5" font-family="Helvetica,sans-Serif" font-size="10.00">fl::span::data</text>
</a>
</g>
</g>
<!-- Node3&#45;&gt;Node6 -->
<g id="edge5_Node000003_Node000006" class="edge">
<title>Node3&#45;&gt;Node6</title>
<g id="a_edge5_Node000003_Node000006"><a xlink:title=" ">
<path fill="none" stroke="#63b8ff" d="M336.18,-158.54C359.26,-164.81 389.66,-173.05 414.5,-179.79"/>
<polygon fill="#63b8ff" stroke="#63b8ff" points="413.85,-183.24 424.42,-182.48 415.69,-176.49 413.85,-183.24"/>
</a>
</g>
</g>
<!-- Node7 -->
<g id="Node000007" class="node">
<title>Node7</title>
<g id="a_Node000007"><a xlink:href="../../da/d8f/namespacefl_1_1gfx_1_1blur__detail_a7c0d48099e6d1b373d8cab2c1b397ac7.html#a7c0d48099e6d1b373d8cab2c1b397ac7" target="_top" xlink:title=" ">
<polygon fill="#fff0f0" stroke="red" points="511.5,-164 409.5,-164 409.5,-134 511.5,-134 511.5,-164"/>
<text text-anchor="start" x="417.5" y="-152" font-family="Helvetica,sans-Serif" font-size="10.00">fl::gfx::blur_detail</text>
<text text-anchor="middle" x="460.5" y="-141" font-family="Helvetica,sans-Serif" font-size="10.00">::get_padbuf</text>
</a>
</g>
</g>
<!-- Node3&#45;&gt;Node7 -->
<g id="edge6_Node000003_Node000007" class="edge">
<title>Node3&#45;&gt;Node7</title>
<g id="a_edge6_Node000003_Node000007"><a xlink:title=" ">
<path fill="none" stroke="#63b8ff" d="M368.22,-149C378.6,-149 389.26,-149 399.46,-149"/>
<polygon fill="#63b8ff" stroke="#63b8ff" points="399.49,-152.5 409.49,-149 399.49,-145.5 399.49,-152.5"/>
</a>
</g>
</g>
<!-- Node10 -->
<g id="Node000010" class="node">
<title>Node10</title>
<g id="a_Node000010"><a xlink:href="../../da/d8f/namespacefl_1_1gfx_1_1blur__detail_a5403b58dc02b2aae64fa2e979e928bbb.html#a5403b58dc02b2aae64fa2e979e928bbb" target="_top" xlink:title=" ">
<polygon fill="#fff0f0" stroke="red" points="511.5,-116 409.5,-116 409.5,-86 511.5,-86 511.5,-116"/>
<text text-anchor="start" x="417.5" y="-104" font-family="Helvetica,sans-Serif" font-size="10.00">fl::gfx::blur_detail</text>
<text text-anchor="middle" x="460.5" y="-93" font-family="Helvetica,sans-Serif" font-size="10.00">::hpass_row</text>
</a>
</g>
</g>
<!-- Node3&#45;&gt;Node10 -->
<g id="edge7_Node000003_Node000010" class="edge">
<title>Node3&#45;&gt;Node10</title>
<g id="a_edge7_Node000003_Node000010"><a xlink:title=" ">
<path fill="none" stroke="#63b8ff" d="M332.69,-139.4C351.98,-133.56 377.23,-125.91 400.12,-118.98"/>
<polygon fill="#63b8ff" stroke="#63b8ff" points="401.2,-122.31 409.76,-116.06 399.18,-115.61 401.2,-122.31"/>
</a>
</g>
</g>
<!-- Node12 -->
<g id="Node000012" class="node">
<title>Node12</title>
<g id="a_Node000012"><a xlink:href="../../d4/d36/namespacefl_a715b655d8ee6017d3c827c5de110d59e.html#a715b655d8ee6017d3c827c5de110d59e" target="_top" xlink:title=" ">
<polygon fill="white" stroke="#666666" points="478,-67.5 443,-67.5 443,-48.5 478,-48.5 478,-67.5"/>
<text text-anchor="middle" x="460.5" y="-55.5" font-family="Helvetica,sans-Serif" font-size="10.00">fl::P</text>
</a>
</g>
</g>
<!-- Node3&#45;&gt;Node12 -->
<g id="edge8_Node000003_Node000012" class="edge">
<title>Node3&#45;&gt;Node12</title>
<g id="a_edge8_Node000003_Node000012"><a xlink:title=" ">
<path fill="none" stroke="#63b8ff" d="M312.37,-139.43C330.66,-124.42 368.21,-95.18 404,-77 413.2,-72.33 423.82,-68.38 433.28,-65.31"/>
<polygon fill="#63b8ff" stroke="#63b8ff" points="434.45,-68.61 442.98,-62.33 432.4,-61.92 434.45,-68.61"/>
</a>
</g>
</g>
<!-- Node14 -->
<g id="Node000014" class="node">
<title>Node14</title>
<g id="a_Node000014"><a xlink:href="../../da/d8f/namespacefl_1_1gfx_1_1blur__detail_a0cafaa9c040e0e3be2dfea193bf08710.html#a0cafaa9c040e0e3be2dfea193bf08710" target="_top" xlink:title=" ">
<polygon fill="#fff0f0" stroke="red" points="511.5,-30 409.5,-30 409.5,0 511.5,0 511.5,-30"/>
<text text-anchor="start" x="417.5" y="-18" font-family="Helvetica,sans-Serif" font-size="10.00">fl::gfx::blur_detail</text>
<text text-anchor="middle" x="460.5" y="-7" font-family="Helvetica,sans-Serif" font-size="10.00">::vpass_full</text>
</a>
</g>
</g>
<!-- Node3&#45;&gt;Node14 -->
<g id="edge9_Node000003_Node000014" class="edge">
<title>Node3&#45;&gt;Node14</title>
<g id="a_edge9_Node000003_Node000014"><a xlink:title=" ">
<path fill="none" stroke="#63b8ff" d="M308,-139.35C323.35,-118.75 362,-69.89 404,-40 406.5,-38.22 409.15,-36.52 411.88,-34.91"/>
<polygon fill="#63b8ff" stroke="#63b8ff" points="413.69,-37.91 420.8,-30.06 410.34,-31.76 413.69,-37.91"/>
</a>
</g>
</g>
</g>
</svg>

<g id="navigator" transform="translate(0 0)" fill="#404254">
  <rect fill="#f2f5e9" fill-opacity="0.5" stroke="#606060" stroke-width=".5" x="0" y="0" width="60" height="60"/>
  <use id="zoomplus" xlink:href="#zoomPlus" x="17" y="9" onmousedown="handleZoom(evt,'in')"/>
  <use id="zoomminus" xlink:href="#zoomMin" x="42" y="9" onmousedown="handleZoom(evt,'out')"/>
  <use id="reset" xlink:href="#resetDef" x="30" y="36" onmousedown="handleReset()"/>
   <use id="arrowup" xlink:href="#arrowUp" x="0" y="0" onmousedown="handlePan(0,-1)"/>
  <use id="arrowright" xlink:href="#arrowRight" x="0" y="0" onmousedown="handlePan(1,0)"/>
  <use id="arrowdown" xlink:href="#arrowDown" x="0" y="0" onmousedown="handlePan(0,1)"/>
  <use id="arrowleft" xlink:href="#arrowLeft" x="0" y="0" onmousedown="handlePan(-1,0)"/>
</g>
<svg viewBox="0 0 15 15" width="100%" height="30px" preserveAspectRatio="xMaxYMin meet">
 <g id="arrow_out" transform="scale(0.3 0.3)">
  <a xlink:href="_blur_benchmark_8ino_abfcc7882a8861616eb741fd94d970aa9_abfcc7882a8861616eb741fd94d970aa9_cgraph_org.svg" target="_base">
   <rect id="button" ry="5" rx="5" y="6" x="6" height="38" width="38"
        fill="#f2f5e9" fill-opacity="0.5" stroke="#606060" stroke-width="1.0"/>
   <path id="arrow"
     d="M 11.500037,31.436501 C 11.940474,20.09759 22.043105,11.32322 32.158766,21.979434 L 37.068811,17.246167 C 37.068811,17.246167 37.088388,32 37.088388,32 L 22.160133,31.978069 C 22.160133,31.978069 26.997745,27.140456 26.997745,27.140456 C 18.528582,18.264221 13.291696,25.230495 11.500037,31.436501 z"
     style="fill:#404040;"/>
  </a>
 </g>
</svg>

<style type='text/css'>
<![CDATA[
[data-mouse-over-selected='false'] { opacity: 0.7; }
[data-mouse-over-selected='true']  { opacity: 1.0; }
]]>
</style>
<script type="application/ecmascript"><![CDATA[
document.addEventListener('DOMContentLoaded', (event) => {
  highlightEdges();
  highlightAdjacentNodes();
});
]]></script>
</svg>
