<?xml version="1.0" encoding="UTF-8" standalone="no"?>
<!DOCTYPE svg PUBLIC "-//W3C//DTD SVG 1.1//EN"
 "http://www.w3.org/Graphics/SVG/1.1/DTD/svg11.dtd">
<!-- Generated by graphviz version 2.43.0 (0)
 -->
<!-- Title: UISlider::Listener Pages: 1 -->
<svg width="923pt" height="192pt"
 viewBox="0.00 0.00 923.00 192.00" xmlns="http://www.w3.org/2000/svg" xmlns:xlink="http://www.w3.org/1999/xlink">
<g id="graph0" class="graph" transform="scale(1 1) rotate(0) translate(4 188)">
<title>UISlider::Listener</title>
<!-- Node1 -->
<g id="Node000001" class="node">
<title>Node1</title>
<g id="a_Node000001"><a xlink:title=" ">
<polygon fill="#999999" stroke="#666666" points="915,-173 815,-173 815,-154 915,-154 915,-173"/>
<text text-anchor="middle" x="865" y="-161" font-family="Helvetica,sans-Serif" font-size="10.00">UISlider::Listener</text>
</a>
</g>
</g>
<!-- Node2 -->
<g id="Node000002" class="node">
<title>Node2</title>
<g id="a_Node000002"><a xlink:href="../../db/da2/classfl_1_1_engine_events_1_1_listener.html" target="_top" xlink:title=" ">
<polygon fill="white" stroke="#666666" points="335,-184 195,-184 195,-165 335,-165 335,-184"/>
<text text-anchor="middle" x="265" y="-172" font-family="Helvetica,sans-Serif" font-size="10.00">fl::EngineEvents::Listener</text>
</a>
</g>
</g>
<!-- Node2&#45;&gt;Node1 -->
<g id="edge1_Node000001_Node000002" class="edge">
<title>Node2&#45;&gt;Node1</title>
<g id="a_edge1_Node000001_Node000002"><a xlink:title=" ">
<path fill="none" stroke="#63b8ff" d="M345.36,-177.35C347.94,-177.41 350.49,-177.46 353,-177.5 522.48,-180.42 723.52,-171.19 814.68,-166.31"/>
<polygon fill="#63b8ff" stroke="#63b8ff" points="345.41,-173.85 335.33,-177.11 345.24,-180.85 345.41,-173.85"/>
</a>
</g>
</g>
<!-- Node17 -->
<g id="Node000017" class="node">
<title>Node17</title>
<g id="a_Node000017"><a xlink:href="../../da/df8/structfl_1_1_u_i_slider_1_1_listener.html" target="_top" xlink:title=" ">
<polygon fill="white" stroke="#666666" points="570,-165 458,-165 458,-146 570,-146 570,-165"/>
<text text-anchor="middle" x="514" y="-153" font-family="Helvetica,sans-Serif" font-size="10.00">fl::UISlider::Listener</text>
</a>
</g>
</g>
<!-- Node2&#45;&gt;Node17 -->
<g id="edge11_Node000017_Node000002" class="edge">
<title>Node2&#45;&gt;Node17</title>
<g id="a_edge11_Node000017_Node000002"><a xlink:title=" ">
<path fill="none" stroke="#63b8ff" d="M345.33,-168.4C382.08,-165.57 424.84,-162.28 457.98,-159.73"/>
<polygon fill="#63b8ff" stroke="#63b8ff" points="344.83,-164.93 335.13,-169.18 345.37,-171.9 344.83,-164.93"/>
</a>
</g>
</g>
<!-- Node3 -->
<g id="Node000003" class="node">
<title>Node3</title>
<g id="a_Node000003"><a xlink:href="../../dd/d47/classfl_1_1_u_i_slider.html" target="_top" xlink:title=" ">
<polygon fill="white" stroke="#666666" points="734,-127 667,-127 667,-108 734,-108 734,-127"/>
<text text-anchor="middle" x="700.5" y="-115" font-family="Helvetica,sans-Serif" font-size="10.00">fl::UISlider</text>
</a>
</g>
</g>
<!-- Node3&#45;&gt;Node1 -->
<g id="edge2_Node000001_Node000003" class="edge">
<title>Node3&#45;&gt;Node1</title>
<g id="a_edge2_Node000001_Node000003"><a xlink:title=" ">
<path fill="none" stroke="#9a32cd" stroke-dasharray="5,2" d="M744.3,-129.61C771.19,-137.23 805.38,-146.91 830.33,-153.97"/>
<polygon fill="#9a32cd" stroke="#9a32cd" points="744.96,-126.16 734.38,-126.81 743.05,-132.9 744.96,-126.16"/>
</a>
</g>
<text text-anchor="middle" x="774.5" y="-145.5" font-family="Helvetica,sans-Serif" font-size="10.00" fill="grey"> mOwner</text>
</g>
<!-- Node3&#45;&gt;Node17 -->
<g id="edge12_Node000017_Node000003" class="edge">
<title>Node3&#45;&gt;Node17</title>
<g id="a_edge12_Node000017_Node000003"><a xlink:title=" ">
<path fill="none" stroke="#9a32cd" stroke-dasharray="5,2" d="M656.41,-121.55C635.6,-123.95 610.34,-127.52 588,-132.5 572.31,-136 555.14,-141.33 541.4,-145.98"/>
<polygon fill="#9a32cd" stroke="#9a32cd" points="656.99,-125.01 666.55,-120.43 656.23,-118.05 656.99,-125.01"/>
</a>
</g>
<text text-anchor="middle" x="618.5" y="-135.5" font-family="Helvetica,sans-Serif" font-size="10.00" fill="grey"> mOwner</text>
</g>
<!-- Node4 -->
<g id="Node000004" class="node">
<title>Node4</title>
<g id="a_Node000004"><a xlink:href="../../df/d7b/classfl_1_1_u_i_element.html" target="_top" xlink:title=" ">
<polygon fill="white" stroke="#666666" points="554,-121 474,-121 474,-102 554,-102 554,-121"/>
<text text-anchor="middle" x="514" y="-109" font-family="Helvetica,sans-Serif" font-size="10.00">fl::UIElement</text>
</a>
</g>
</g>
<!-- Node4&#45;&gt;Node3 -->
<g id="edge3_Node000003_Node000004" class="edge">
<title>Node4&#45;&gt;Node3</title>
<g id="a_edge3_Node000003_Node000004"><a xlink:title=" ">
<path fill="none" stroke="#63b8ff" d="M564.11,-112.17C589.47,-112.62 620.9,-113.35 649,-114.5 654.79,-114.74 660.95,-115.05 666.91,-115.39"/>
<polygon fill="#63b8ff" stroke="#63b8ff" points="564.06,-108.66 554,-111.99 563.94,-115.66 564.06,-108.66"/>
</a>
</g>
</g>
<!-- Node5 -->
<g id="Node000005" class="node">
<title>Node5</title>
<g id="a_Node000005"><a xlink:href="../../d2/db2/classfl_1_1string.html" target="_top" xlink:title=" ">
<polygon fill="#fff0f0" stroke="red" points="293,-121 237,-121 237,-102 293,-102 293,-121"/>
<text text-anchor="middle" x="265" y="-109" font-family="Helvetica,sans-Serif" font-size="10.00">fl::string</text>
</a>
</g>
</g>
<!-- Node5&#45;&gt;Node4 -->
<g id="edge4_Node000004_Node000005" class="edge">
<title>Node5&#45;&gt;Node4</title>
<g id="a_edge4_Node000004_Node000005"><a xlink:title=" ">
<path fill="none" stroke="#9a32cd" stroke-dasharray="5,2" d="M303.51,-111.5C349.47,-111.5 426.97,-111.5 473.72,-111.5"/>
<polygon fill="#9a32cd" stroke="#9a32cd" points="303.38,-108 293.38,-111.5 303.38,-115 303.38,-108"/>
</a>
</g>
<text text-anchor="middle" x="396.5" y="-114.5" font-family="Helvetica,sans-Serif" font-size="10.00" fill="grey"> mGroupName</text>
</g>
<!-- Node8 -->
<g id="Node000008" class="node">
<title>Node8</title>
<g id="a_Node000008"><a xlink:href="../../df/d67/classfl_1_1_u_i_slider_impl.html" target="_top" xlink:title=" ">
<polygon fill="white" stroke="#666666" points="558.5,-84 469.5,-84 469.5,-65 558.5,-65 558.5,-84"/>
<text text-anchor="middle" x="514" y="-72" font-family="Helvetica,sans-Serif" font-size="10.00">fl::UISliderImpl</text>
</a>
</g>
</g>
<!-- Node8&#45;&gt;Node3 -->
<g id="edge5_Node000003_Node000008" class="edge">
<title>Node8&#45;&gt;Node3</title>
<g id="a_edge5_Node000003_Node000008"><a xlink:title=" ">
<path fill="none" stroke="#9a32cd" stroke-dasharray="5,2" d="M568.58,-81.1C593.33,-84.81 622.93,-90.19 649,-97.5 658.81,-100.25 669.33,-104.24 678.21,-107.93"/>
<polygon fill="#9a32cd" stroke="#9a32cd" points="569.05,-77.63 558.65,-79.66 568.05,-84.56 569.05,-77.63"/>
</a>
</g>
<text text-anchor="middle" x="618.5" y="-100.5" font-family="Helvetica,sans-Serif" font-size="10.00" fill="grey"> mImpl</text>
</g>
<!-- Node9 -->
<g id="Node000009" class="node">
<title>Node9</title>
<g id="a_Node000009"><a xlink:href="../../d1/d5d/classfl_1_1_function_list.html" target="_top" xlink:title=" ">
<polygon fill="white" stroke="#666666" points="566,-46.5 462,-46.5 462,-16.5 566,-16.5 566,-46.5"/>
<text text-anchor="start" x="470" y="-34.5" font-family="Helvetica,sans-Serif" font-size="10.00">fl::FunctionList&lt; fl</text>
<text text-anchor="middle" x="514" y="-23.5" font-family="Helvetica,sans-Serif" font-size="10.00">::UISlider &amp; &gt;</text>
</a>
</g>
</g>
<!-- Node9&#45;&gt;Node3 -->
<g id="edge6_Node000003_Node000009" class="edge">
<title>Node9&#45;&gt;Node3</title>
<g id="a_edge6_Node000003_Node000009"><a xlink:title=" ">
<path fill="none" stroke="#9a32cd" stroke-dasharray="5,2" d="M576.25,-42.29C599.99,-48.13 626.76,-56.82 649,-69.5 666.65,-79.56 682.89,-97.09 691.96,-107.95"/>
<polygon fill="#9a32cd" stroke="#9a32cd" points="576.82,-38.83 566.28,-39.97 575.23,-45.65 576.82,-38.83"/>
</a>
</g>
<text text-anchor="middle" x="618.5" y="-72.5" font-family="Helvetica,sans-Serif" font-size="10.00" fill="grey"> mCallbacks</text>
</g>
<!-- Node10 -->
<g id="Node000010" class="node">
<title>Node10</title>
<g id="a_Node000010"><a xlink:href="../../d7/de3/classfl_1_1_function_list_base.html" target="_top" xlink:title=" ">
<polygon fill="#fff0f0" stroke="red" points="158,-43.5 0,-43.5 0,-13.5 158,-13.5 158,-43.5"/>
<text text-anchor="start" x="8" y="-31.5" font-family="Helvetica,sans-Serif" font-size="10.00">fl::FunctionListBase</text>
<text text-anchor="middle" x="79" y="-20.5" font-family="Helvetica,sans-Serif" font-size="10.00">&lt; function&lt; void(Args...)&gt; &gt;</text>
</a>
</g>
</g>
<!-- Node10&#45;&gt;Node9 -->
<g id="edge7_Node000009_Node000010" class="edge">
<title>Node10&#45;&gt;Node9</title>
<g id="a_edge7_Node000009_Node000010"><a xlink:title=" ">
<path fill="none" stroke="#63b8ff" d="M168.24,-33.27C170.85,-33.36 173.45,-33.43 176,-33.5 293.29,-36.55 322.68,-35.11 440,-33.5 447.1,-33.4 454.59,-33.25 461.95,-33.08"/>
<polygon fill="#63b8ff" stroke="#63b8ff" points="168.17,-29.77 158.05,-32.91 167.92,-36.76 168.17,-29.77"/>
</a>
</g>
</g>
<!-- Node16 -->
<g id="Node000016" class="node">
<title>Node16</title>
<g id="a_Node000016"><a xlink:href="../../d1/d5d/classfl_1_1_function_list.html" target="_top" xlink:title=" ">
<polygon fill="white" stroke="#666666" points="330.5,-19 199.5,-19 199.5,0 330.5,0 330.5,-19"/>
<text text-anchor="middle" x="265" y="-7" font-family="Helvetica,sans-Serif" font-size="10.00">fl::FunctionList&lt; Args &gt;</text>
</a>
</g>
</g>
<!-- Node10&#45;&gt;Node16 -->
<g id="edge9_Node000016_Node000010" class="edge">
<title>Node10&#45;&gt;Node16</title>
<g id="a_edge9_Node000016_Node000010"><a xlink:title=" ">
<path fill="none" stroke="#63b8ff" d="M168.12,-19.4C178.69,-18.31 189.33,-17.21 199.47,-16.16"/>
<polygon fill="#63b8ff" stroke="#63b8ff" points="167.62,-15.93 158.03,-20.44 168.34,-22.9 167.62,-15.93"/>
</a>
</g>
</g>
<!-- Node16&#45;&gt;Node9 -->
<g id="edge8_Node000009_Node000016" class="edge">
<title>Node16&#45;&gt;Node9</title>
<g id="a_edge8_Node000009_Node000016"><a xlink:title=" ">
<path fill="none" stroke="orange" stroke-dasharray="5,2" d="M340.74,-14.29C371.51,-16.47 407.5,-19.28 440,-22.5 447.12,-23.2 454.61,-24.03 461.98,-24.89"/>
<polygon fill="orange" stroke="orange" points="340.74,-10.78 330.52,-13.58 340.25,-17.77 340.74,-10.78"/>
</a>
</g>
<text text-anchor="middle" x="396.5" y="-25.5" font-family="Helvetica,sans-Serif" font-size="10.00" fill="grey"> &lt; fl::UISlider &amp; &gt;</text>
</g>
<!-- Node17&#45;&gt;Node3 -->
<g id="edge10_Node000003_Node000017" class="edge">
<title>Node17&#45;&gt;Node3</title>
<g id="a_edge10_Node000003_Node000017"><a xlink:title=" ">
<path fill="none" stroke="#9a32cd" stroke-dasharray="5,2" d="M580.1,-156.25C602.33,-155.04 627.1,-152.05 649,-145.5 662.45,-141.48 676.29,-133.48 686.07,-127.06"/>
<polygon fill="#9a32cd" stroke="#9a32cd" points="579.92,-152.76 570.08,-156.69 580.22,-159.75 579.92,-152.76"/>
</a>
</g>
<text text-anchor="middle" x="618.5" y="-158.5" font-family="Helvetica,sans-Serif" font-size="10.00" fill="grey"> mListener</text>
</g>
</g>
</svg>
