<?xml version="1.0" encoding="UTF-8" standalone="no"?>
<!DOCTYPE svg PUBLIC "-//W3C//DTD SVG 1.1//EN"
 "http://www.w3.org/Graphics/SVG/1.1/DTD/svg11.dtd">
<!-- Generated by graphviz version 2.43.0 (0)
 -->
<!-- Title: fl::Corkscrew::iterator::iterator Pages: 1 -->
<svg width="286pt" height="326pt"
 viewBox="0.00 0.00 286.00 326.00" xmlns="http://www.w3.org/2000/svg" xmlns:xlink="http://www.w3.org/1999/xlink">

<svg id="main" version="1.1" xmlns="http://www.w3.org/2000/svg" xmlns:xlink="http://www.w3.org/1999/xlink" xml:space="preserve">

<style type="text/css"><![CDATA[
.node, .edge {opacity: 0.7;}
.node.selected, .edge.selected {opacity: 1;}
.edge:hover path { stroke: red; }
.edge:hover polygon { stroke: red; fill: red; }
]]></style>
<script type="application/ecmascript" xlink:href="../../svg.min.js"/>
<svg id="graph" class="graph">
<g id="graph0" class="graph" transform="scale(1 1) rotate(0) translate(4 322)">
<title>fl::Corkscrew::iterator::iterator</title>
<!-- Node1 -->
<g id="Node000001" class="node">
<title>Node1</title>
<g id="a_Node000001"><a xlink:title=" ">
<polygon fill="#999999" stroke="#666666" points="278,-174 157,-174 157,-144 278,-144 278,-174"/>
<text text-anchor="start" x="165" y="-162" font-family="Helvetica,sans-Serif" font-size="10.00">fl::Corkscrew::iterator</text>
<text text-anchor="middle" x="217.5" y="-151" font-family="Helvetica,sans-Serif" font-size="10.00">::iterator</text>
</a>
</g>
</g>
<!-- Node2 -->
<g id="Node000002" class="node">
<title>Node2</title>
<g id="a_Node000002"><a xlink:href="../../d4/dd7/classfl_1_1_corkscrew_1_1iterator_a5d3e3530e6207f879681f6e2a62a92eb.html#a5d3e3530e6207f879681f6e2a62a92eb" target="_top" xlink:title=" ">
<polygon fill="white" stroke="#666666" points="121,-318 0,-318 0,-288 121,-288 121,-318"/>
<text text-anchor="start" x="8" y="-306" font-family="Helvetica,sans-Serif" font-size="10.00">fl::Corkscrew::iterator</text>
<text text-anchor="middle" x="60.5" y="-295" font-family="Helvetica,sans-Serif" font-size="10.00">::operator!=</text>
</a>
</g>
</g>
<!-- Node1&#45;&gt;Node2 -->
<g id="edge1_Node000001_Node000002" class="edge">
<title>Node1&#45;&gt;Node2</title>
<g id="a_edge1_Node000001_Node000002"><a xlink:title=" ">
<path fill="none" stroke="#63b8ff" d="M202.64,-183.08C186.2,-209.76 156.51,-252.51 121,-279 116.54,-282.33 111.55,-285.28 106.41,-287.86"/>
<polygon fill="#63b8ff" stroke="#63b8ff" points="205.73,-184.74 207.89,-174.37 199.73,-181.13 205.73,-184.74"/>
</a>
</g>
</g>
<!-- Node3 -->
<g id="Node000003" class="node">
<title>Node3</title>
<g id="a_Node000003"><a xlink:href="../../d4/dd7/classfl_1_1_corkscrew_1_1iterator_aa6defe68635ff36916127a2ce96358f6.html#aa6defe68635ff36916127a2ce96358f6" target="_top" xlink:title=" ">
<polygon fill="white" stroke="#666666" points="121,-270 0,-270 0,-240 121,-240 121,-270"/>
<text text-anchor="start" x="8" y="-258" font-family="Helvetica,sans-Serif" font-size="10.00">fl::Corkscrew::iterator</text>
<text text-anchor="middle" x="60.5" y="-247" font-family="Helvetica,sans-Serif" font-size="10.00">::operator++</text>
</a>
</g>
</g>
<!-- Node1&#45;&gt;Node3 -->
<g id="edge2_Node000001_Node000003" class="edge">
<title>Node1&#45;&gt;Node3</title>
<g id="a_edge2_Node000001_Node000003"><a xlink:title=" ">
<path fill="none" stroke="#63b8ff" d="M191.82,-180.49C173.24,-195.92 146.66,-216.49 121,-231 115.28,-234.24 109.04,-237.25 102.81,-239.98"/>
<polygon fill="#63b8ff" stroke="#63b8ff" points="194.12,-183.12 199.51,-174.01 189.61,-177.77 194.12,-183.12"/>
</a>
</g>
</g>
<!-- Node4 -->
<g id="Node000004" class="node">
<title>Node4</title>
<g id="a_Node000004"><a xlink:href="../../d4/dd7/classfl_1_1_corkscrew_1_1iterator_ac076aefd79229babc9d71344bc05e618.html#ac076aefd79229babc9d71344bc05e618" target="_top" xlink:title=" ">
<polygon fill="white" stroke="#666666" points="121,-222 0,-222 0,-192 121,-192 121,-222"/>
<text text-anchor="start" x="8" y="-210" font-family="Helvetica,sans-Serif" font-size="10.00">fl::Corkscrew::iterator</text>
<text text-anchor="middle" x="60.5" y="-199" font-family="Helvetica,sans-Serif" font-size="10.00">::operator++</text>
</a>
</g>
</g>
<!-- Node1&#45;&gt;Node4 -->
<g id="edge3_Node000001_Node000004" class="edge">
<title>Node1&#45;&gt;Node4</title>
<g id="a_edge3_Node000001_Node000004"><a xlink:title=" ">
<path fill="none" stroke="#63b8ff" d="M158.16,-177.07C142.27,-181.99 125.22,-187.27 109.95,-192"/>
<polygon fill="#63b8ff" stroke="#63b8ff" points="159.37,-180.36 167.88,-174.06 157.29,-173.67 159.37,-180.36"/>
</a>
</g>
</g>
<!-- Node5 -->
<g id="Node000005" class="node">
<title>Node5</title>
<g id="a_Node000005"><a xlink:href="../../d4/dd7/classfl_1_1_corkscrew_1_1iterator_a6a5f80ff4194ca33b83ad0cfda9f68cd.html#a6a5f80ff4194ca33b83ad0cfda9f68cd" target="_top" xlink:title=" ">
<polygon fill="white" stroke="#666666" points="121,-174 0,-174 0,-144 121,-144 121,-174"/>
<text text-anchor="start" x="8" y="-162" font-family="Helvetica,sans-Serif" font-size="10.00">fl::Corkscrew::iterator</text>
<text text-anchor="middle" x="60.5" y="-151" font-family="Helvetica,sans-Serif" font-size="10.00">::operator&#45;</text>
</a>
</g>
</g>
<!-- Node1&#45;&gt;Node5 -->
<g id="edge4_Node000001_Node000005" class="edge">
<title>Node1&#45;&gt;Node5</title>
<g id="a_edge4_Node000001_Node000005"><a xlink:title=" ">
<path fill="none" stroke="#63b8ff" d="M146.34,-159C137.88,-159 129.3,-159 121.01,-159"/>
<polygon fill="#63b8ff" stroke="#63b8ff" points="146.57,-162.5 156.57,-159 146.57,-155.5 146.57,-162.5"/>
</a>
</g>
</g>
<!-- Node6 -->
<g id="Node000006" class="node">
<title>Node6</title>
<g id="a_Node000006"><a xlink:href="../../d4/dd7/classfl_1_1_corkscrew_1_1iterator_a5e3bb707f22a346e13b7b4926167e7fc.html#a5e3bb707f22a346e13b7b4926167e7fc" target="_top" xlink:title=" ">
<polygon fill="white" stroke="#666666" points="121,-126 0,-126 0,-96 121,-96 121,-126"/>
<text text-anchor="start" x="8" y="-114" font-family="Helvetica,sans-Serif" font-size="10.00">fl::Corkscrew::iterator</text>
<text text-anchor="middle" x="60.5" y="-103" font-family="Helvetica,sans-Serif" font-size="10.00">::operator&#45;&#45;</text>
</a>
</g>
</g>
<!-- Node1&#45;&gt;Node6 -->
<g id="edge5_Node000001_Node000006" class="edge">
<title>Node1&#45;&gt;Node6</title>
<g id="a_edge5_Node000001_Node000006"><a xlink:title=" ">
<path fill="none" stroke="#63b8ff" d="M158.16,-140.93C142.27,-136.01 125.22,-130.73 109.95,-126"/>
<polygon fill="#63b8ff" stroke="#63b8ff" points="157.29,-144.33 167.88,-143.94 159.37,-137.64 157.29,-144.33"/>
</a>
</g>
</g>
<!-- Node7 -->
<g id="Node000007" class="node">
<title>Node7</title>
<g id="a_Node000007"><a xlink:href="../../d4/dd7/classfl_1_1_corkscrew_1_1iterator_aa01ee3e0ef294fa81006b76dc3631a27.html#aa01ee3e0ef294fa81006b76dc3631a27" target="_top" xlink:title=" ">
<polygon fill="white" stroke="#666666" points="121,-78 0,-78 0,-48 121,-48 121,-78"/>
<text text-anchor="start" x="8" y="-66" font-family="Helvetica,sans-Serif" font-size="10.00">fl::Corkscrew::iterator</text>
<text text-anchor="middle" x="60.5" y="-55" font-family="Helvetica,sans-Serif" font-size="10.00">::operator&#45;&#45;</text>
</a>
</g>
</g>
<!-- Node1&#45;&gt;Node7 -->
<g id="edge6_Node000001_Node000007" class="edge">
<title>Node1&#45;&gt;Node7</title>
<g id="a_edge6_Node000001_Node000007"><a xlink:title=" ">
<path fill="none" stroke="#63b8ff" d="M191.82,-137.51C173.24,-122.08 146.66,-101.51 121,-87 115.28,-83.76 109.04,-80.75 102.81,-78.02"/>
<polygon fill="#63b8ff" stroke="#63b8ff" points="189.61,-140.23 199.51,-143.99 194.12,-134.88 189.61,-140.23"/>
</a>
</g>
</g>
<!-- Node8 -->
<g id="Node000008" class="node">
<title>Node8</title>
<g id="a_Node000008"><a xlink:href="../../d4/dd7/classfl_1_1_corkscrew_1_1iterator_ae6a47aad0751f9ddb16bf9d481b7dd63.html#ae6a47aad0751f9ddb16bf9d481b7dd63" target="_top" xlink:title=" ">
<polygon fill="white" stroke="#666666" points="121,-30 0,-30 0,0 121,0 121,-30"/>
<text text-anchor="start" x="8" y="-18" font-family="Helvetica,sans-Serif" font-size="10.00">fl::Corkscrew::iterator</text>
<text text-anchor="middle" x="60.5" y="-7" font-family="Helvetica,sans-Serif" font-size="10.00">::operator==</text>
</a>
</g>
</g>
<!-- Node1&#45;&gt;Node8 -->
<g id="edge7_Node000001_Node000008" class="edge">
<title>Node1&#45;&gt;Node8</title>
<g id="a_edge7_Node000001_Node000008"><a xlink:title=" ">
<path fill="none" stroke="#63b8ff" d="M202.64,-134.92C186.2,-108.24 156.51,-65.49 121,-39 116.54,-35.67 111.55,-32.72 106.41,-30.14"/>
<polygon fill="#63b8ff" stroke="#63b8ff" points="199.73,-136.87 207.89,-143.63 205.73,-133.26 199.73,-136.87"/>
</a>
</g>
</g>
</g>
</svg>
</svg>

<style type='text/css'>
<![CDATA[
[data-mouse-over-selected='false'] { opacity: 0.7; }
[data-mouse-over-selected='true']  { opacity: 1.0; }
]]>
</style>
<script type="application/ecmascript"><![CDATA[
document.addEventListener('DOMContentLoaded', (event) => {
  highlightEdges();
  highlightAdjacentNodes();
});
]]></script>
</svg>
