<?xml version="1.0" encoding="UTF-8" standalone="no"?>
<!DOCTYPE svg PUBLIC "-//W3C//DTD SVG 1.1//EN"
 "http://www.w3.org/Graphics/SVG/1.1/DTD/svg11.dtd">
<!-- Generated by graphviz version 2.43.0 (0)
 -->
<!-- Title: loop Pages: 1 -->
<svg width="599pt" height="401pt"
 viewBox="0.00 0.00 599.00 401.00" xmlns="http://www.w3.org/2000/svg" xmlns:xlink="http://www.w3.org/1999/xlink">
<g id="graph0" class="graph" transform="scale(1 1) rotate(0) translate(4 397)">
<title>loop</title>
<!-- Node1 -->
<g id="Node000001" class="node">
<title>Node1</title>
<g id="a_Node000001"><a xlink:title=" ">
<polygon fill="#999999" stroke="#666666" points="38,-130 0,-130 0,-111 38,-111 38,-130"/>
<text text-anchor="middle" x="19" y="-118" font-family="Helvetica,sans-Serif" font-size="10.00">loop</text>
</a>
</g>
</g>
<!-- Node2 -->
<g id="Node000002" class="node">
<title>Node2</title>
<g id="a_Node000002"><a xlink:href="../../d4/d36/namespacefl_a74e1895d1234ab29fef4458532e91090.html#a74e1895d1234ab29fef4458532e91090" target="_top" xlink:title=" ">
<polygon fill="white" stroke="#666666" points="187,-298 74,-298 74,-279 187,-279 187,-298"/>
<text text-anchor="middle" x="130.5" y="-286" font-family="Helvetica,sans-Serif" font-size="10.00">fl::ColorFromPalette</text>
</a>
</g>
</g>
<!-- Node1&#45;&gt;Node2 -->
<g id="edge1_Node000001_Node000002" class="edge">
<title>Node1&#45;&gt;Node2</title>
<g id="a_edge1_Node000001_Node000002"><a xlink:title=" ">
<path fill="none" stroke="#63b8ff" d="M26.2,-130.01C43.81,-157.03 94.34,-234.56 117.57,-270.19"/>
<polygon fill="#63b8ff" stroke="#63b8ff" points="114.7,-272.21 123.09,-278.67 120.57,-268.38 114.7,-272.21"/>
</a>
</g>
</g>
<!-- Node11 -->
<g id="Node000011" class="node">
<title>Node11</title>
<g id="a_Node000011"><a xlink:href="../../d5/d88/_fire_matrix_8h_a0c74bc312803a49e792bffc775a56220.html#a0c74bc312803a49e792bffc775a56220" target="_top" xlink:title=" ">
<polygon fill="white" stroke="#666666" points="163.5,-186 97.5,-186 97.5,-167 163.5,-167 163.5,-186"/>
<text text-anchor="middle" x="130.5" y="-174" font-family="Helvetica,sans-Serif" font-size="10.00">getPalette</text>
</a>
</g>
</g>
<!-- Node1&#45;&gt;Node11 -->
<g id="edge11_Node000001_Node000011" class="edge">
<title>Node1&#45;&gt;Node11</title>
<g id="a_edge11_Node000001_Node000011"><a xlink:title=" ">
<path fill="none" stroke="#63b8ff" d="M38.08,-129.75C55.39,-138.6 81.74,-152.07 101.71,-162.29"/>
<polygon fill="#63b8ff" stroke="#63b8ff" points="100.16,-165.43 110.66,-166.86 103.35,-159.19 100.16,-165.43"/>
</a>
</g>
</g>
<!-- Node13 -->
<g id="Node000013" class="node">
<title>Node13</title>
<g id="a_Node000013"><a xlink:href="../../d5/d88/_fire_matrix_8h_a593fb12ac1f018e17ad0f8ee5eeaa6ba.html#a593fb12ac1f018e17ad0f8ee5eeaa6ba" target="_top" xlink:title=" ">
<polygon fill="white" stroke="#666666" points="177,-130 84,-130 84,-111 177,-111 177,-130"/>
<text text-anchor="middle" x="130.5" y="-118" font-family="Helvetica,sans-Serif" font-size="10.00">getPaletteIndex</text>
</a>
</g>
</g>
<!-- Node1&#45;&gt;Node13 -->
<g id="edge13_Node000001_Node000013" class="edge">
<title>Node1&#45;&gt;Node13</title>
<g id="a_edge13_Node000001_Node000013"><a xlink:title=" ">
<path fill="none" stroke="#63b8ff" d="M38.08,-120.5C47.96,-120.5 60.77,-120.5 73.67,-120.5"/>
<polygon fill="#63b8ff" stroke="#63b8ff" points="73.98,-124 83.98,-120.5 73.98,-117 73.98,-124"/>
</a>
</g>
</g>
<!-- Node21 -->
<g id="Node000021" class="node">
<title>Node21</title>
<g id="a_Node000021"><a xlink:href="../../d8/dd0/_fire_cylinder_8h_a9b9d805245bf1d1789d4cf7a0b7693e8.html#a9b9d805245bf1d1789d4cf7a0b7693e8" target="_top" xlink:title=" ">
<polygon fill="white" stroke="#666666" points="156.5,-93 104.5,-93 104.5,-74 156.5,-74 156.5,-93"/>
<text text-anchor="middle" x="130.5" y="-81" font-family="Helvetica,sans-Serif" font-size="10.00">speedY</text>
</a>
</g>
</g>
<!-- Node1&#45;&gt;Node21 -->
<g id="edge20_Node000001_Node000021" class="edge">
<title>Node1&#45;&gt;Node21</title>
<g id="a_edge20_Node000001_Node000021"><a xlink:title=" ">
<path fill="none" stroke="#63b8ff" d="M38.08,-114.39C53.43,-109.21 75.88,-101.62 94.7,-95.26"/>
<polygon fill="#63b8ff" stroke="#63b8ff" points="96.07,-98.49 104.43,-91.97 93.83,-91.86 96.07,-98.49"/>
</a>
</g>
</g>
<!-- Node22 -->
<g id="Node000022" class="node">
<title>Node22</title>
<g id="a_Node000022"><a xlink:href="../../d8/dd0/_fire_cylinder_8h_a0cfaf25385886642355a25f291ffd36b.html#a0cfaf25385886642355a25f291ffd36b" target="_top" xlink:title=" ">
<polygon fill="white" stroke="#666666" points="163,-56 98,-56 98,-37 163,-37 163,-56"/>
<text text-anchor="middle" x="130.5" y="-44" font-family="Helvetica,sans-Serif" font-size="10.00">timeScale</text>
</a>
</g>
</g>
<!-- Node1&#45;&gt;Node22 -->
<g id="edge21_Node000001_Node000022" class="edge">
<title>Node1&#45;&gt;Node22</title>
<g id="a_edge21_Node000001_Node000022"><a xlink:title=" ">
<path fill="none" stroke="#63b8ff" d="M27.34,-110.58C36.84,-98.38 54.53,-77.77 74,-65.5 78.41,-62.72 83.28,-60.29 88.24,-58.19"/>
<polygon fill="#63b8ff" stroke="#63b8ff" points="89.72,-61.37 97.81,-54.53 87.22,-54.83 89.72,-61.37"/>
</a>
</g>
</g>
<!-- Node3 -->
<g id="Node000003" class="node">
<title>Node3</title>
<g id="a_Node000003"><a xlink:href="../../d4/d36/namespacefl_a924fc8748f53389e55fdc63bfc14b805.html#a924fc8748f53389e55fdc63bfc14b805" target="_top" xlink:title=" ">
<polygon fill="white" stroke="#666666" points="285,-317 229,-317 229,-298 285,-298 285,-317"/>
<text text-anchor="middle" x="257" y="-305" font-family="Helvetica,sans-Serif" font-size="10.00">fl::blend</text>
</a>
</g>
</g>
<!-- Node2&#45;&gt;Node3 -->
<g id="edge2_Node000002_Node000003" class="edge">
<title>Node2&#45;&gt;Node3</title>
<g id="a_edge2_Node000002_Node000003"><a xlink:title=" ">
<path fill="none" stroke="#63b8ff" d="M187.2,-297C197.96,-298.64 208.99,-300.33 218.97,-301.85"/>
<polygon fill="#63b8ff" stroke="#63b8ff" points="218.53,-305.32 228.95,-303.37 219.59,-298.4 218.53,-305.32"/>
</a>
</g>
</g>
<!-- Node6 -->
<g id="Node000006" class="node">
<title>Node6</title>
<g id="a_Node000006"><a xlink:href="../../d0/da5/group___scaling_dirty_ga3fade00fb4cf5b937b973128198a7a79.html#ga3fade00fb4cf5b937b973128198a7a79" target="_top" xlink:title="Clean up the r1 register after a series of *LEAVING_R1_DIRTY calls.">
<polygon fill="white" stroke="#666666" points="554,-335 481,-335 481,-316 554,-316 554,-335"/>
<text text-anchor="middle" x="517.5" y="-323" font-family="Helvetica,sans-Serif" font-size="10.00">cleanup_R1</text>
</a>
</g>
</g>
<!-- Node2&#45;&gt;Node6 -->
<g id="edge6_Node000002_Node000006" class="edge">
<title>Node2&#45;&gt;Node6</title>
<g id="a_edge6_Node000002_Node000006"><a xlink:title=" ">
<path fill="none" stroke="#63b8ff" d="M148.73,-298.08C166.65,-307.45 195.84,-321.08 223,-326.5 309.27,-343.7 412.66,-337.25 470.84,-331.22"/>
<polygon fill="#63b8ff" stroke="#63b8ff" points="471.25,-334.7 480.82,-330.15 470.5,-327.74 471.25,-334.7"/>
</a>
</g>
</g>
<!-- Node7 -->
<g id="Node000007" class="node">
<title>Node7</title>
<g id="a_Node000007"><a xlink:href="../../d0/da5/group___scaling_dirty_ga7386235cada3aca429b189681d2ec56d.html#ga7386235cada3aca429b189681d2ec56d" target="_top" xlink:title="This version of scale8() does not clean up the R1 register on AVR.">
<polygon fill="white" stroke="#666666" points="591,-298 444,-298 444,-279 591,-279 591,-298"/>
<text text-anchor="middle" x="517.5" y="-286" font-family="Helvetica,sans-Serif" font-size="10.00">scale8_LEAVING_R1_DIRTY</text>
</a>
</g>
</g>
<!-- Node2&#45;&gt;Node7 -->
<g id="edge10_Node000002_Node000007" class="edge">
<title>Node2&#45;&gt;Node7</title>
<g id="a_edge10_Node000002_Node000007"><a xlink:title=" ">
<path fill="none" stroke="#63b8ff" d="M187.07,-288.5C251.71,-288.5 359.05,-288.5 433.56,-288.5"/>
<polygon fill="#63b8ff" stroke="#63b8ff" points="433.85,-292 443.85,-288.5 433.85,-285 433.85,-292"/>
</a>
</g>
</g>
<!-- Node8 -->
<g id="Node000008" class="node">
<title>Node8</title>
<g id="a_Node000008"><a xlink:href="../../d4/d36/namespacefl_a8ef00cea89dd1023f79e4d6d33883a40.html#a8ef00cea89dd1023f79e4d6d33883a40" target="_top" xlink:title="Helper function to divide a number by 16, aka four logical shift right (LSR)&#39;s.">
<polygon fill="white" stroke="#666666" points="283.5,-241 230.5,-241 230.5,-222 283.5,-222 283.5,-241"/>
<text text-anchor="middle" x="257" y="-229" font-family="Helvetica,sans-Serif" font-size="10.00">fl::lsrX4</text>
</a>
</g>
</g>
<!-- Node2&#45;&gt;Node8 -->
<g id="edge7_Node000002_Node000008" class="edge">
<title>Node2&#45;&gt;Node8</title>
<g id="a_edge7_Node000002_Node000008"><a xlink:title=" ">
<path fill="none" stroke="#63b8ff" d="M152.34,-278.96C172.45,-269.75 203.11,-255.72 225.87,-245.29"/>
<polygon fill="#63b8ff" stroke="#63b8ff" points="227.46,-248.42 235.09,-241.07 224.54,-242.05 227.46,-248.42"/>
</a>
</g>
</g>
<!-- Node9 -->
<g id="Node000009" class="node">
<title>Node9</title>
<g id="a_Node000009"><a xlink:href="../../d6/d19/group___linear_interpolation_gaf65357c7aeca9778e5a2f80a6bac2b5d.html#gaf65357c7aeca9778e5a2f80a6bac2b5d" target="_top" xlink:title="Map from one full&#45;range 8&#45;bit value into a narrower range of 8&#45;bit values, possibly a range of hues.">
<polygon fill="white" stroke="#666666" points="279,-393 235,-393 235,-374 279,-374 279,-393"/>
<text text-anchor="middle" x="257" y="-381" font-family="Helvetica,sans-Serif" font-size="10.00">map8</text>
</a>
</g>
</g>
<!-- Node2&#45;&gt;Node9 -->
<g id="edge8_Node000002_Node000009" class="edge">
<title>Node2&#45;&gt;Node9</title>
<g id="a_edge8_Node000002_Node000009"><a xlink:title=" ">
<path fill="none" stroke="#63b8ff" d="M143.54,-298.04C160.96,-311.78 194.23,-337.88 223,-359.5 226.57,-362.18 230.38,-365 234.1,-367.72"/>
<polygon fill="#63b8ff" stroke="#63b8ff" points="232.3,-370.74 242.44,-373.79 236.41,-365.07 232.3,-370.74"/>
</a>
</g>
</g>
<!-- Node4 -->
<g id="Node000004" class="node">
<title>Node4</title>
<g id="a_Node000004"><a xlink:href="../../d4/d36/namespacefl_aa1e0cd66825220bead12cfc1ab7f33c6.html#aa1e0cd66825220bead12cfc1ab7f33c6" target="_top" xlink:title=" ">
<polygon fill="#fff0f0" stroke="red" points="398.5,-317 336.5,-317 336.5,-298 398.5,-298 398.5,-317"/>
<text text-anchor="middle" x="367.5" y="-305" font-family="Helvetica,sans-Serif" font-size="10.00">fl::nblend</text>
</a>
</g>
</g>
<!-- Node3&#45;&gt;Node4 -->
<g id="edge3_Node000003_Node000004" class="edge">
<title>Node3&#45;&gt;Node4</title>
<g id="a_edge3_Node000003_Node000004"><a xlink:title=" ">
<path fill="none" stroke="#63b8ff" d="M285.1,-307.5C297.5,-307.5 312.46,-307.5 326.15,-307.5"/>
<polygon fill="#63b8ff" stroke="#63b8ff" points="326.31,-311 336.31,-307.5 326.31,-304 326.31,-311"/>
</a>
</g>
</g>
<!-- Node4&#45;&gt;Node6 -->
<g id="edge4_Node000004_Node000006" class="edge">
<title>Node4&#45;&gt;Node6</title>
<g id="a_edge4_Node000004_Node000006"><a xlink:title=" ">
<path fill="none" stroke="#63b8ff" d="M398.81,-311.19C419.51,-313.7 447.32,-317.09 470.7,-319.93"/>
<polygon fill="#63b8ff" stroke="#63b8ff" points="470.41,-323.42 480.76,-321.15 471.25,-316.47 470.41,-323.42"/>
</a>
</g>
</g>
<!-- Node4&#45;&gt;Node7 -->
<g id="edge5_Node000004_Node000007" class="edge">
<title>Node4&#45;&gt;Node7</title>
<g id="a_edge5_Node000004_Node000007"><a xlink:title=" ">
<path fill="none" stroke="#63b8ff" d="M398.81,-303.61C409.15,-302.28 421.27,-300.73 433.72,-299.13"/>
<polygon fill="#63b8ff" stroke="#63b8ff" points="434.28,-302.58 443.75,-297.84 433.39,-295.64 434.28,-302.58"/>
</a>
</g>
</g>
<!-- Node10 -->
<g id="Node000010" class="node">
<title>Node10</title>
<g id="a_Node000010"><a xlink:href="../../d0/da8/group___scaling_gad7535ccda9c92470c4e6ee0265585555.html#gad7535ccda9c92470c4e6ee0265585555" target="_top" xlink:title="Scale one byte by a second one, which is treated as the numerator of a fraction whose denominator is ...">
<polygon fill="white" stroke="#666666" points="391.5,-393 343.5,-393 343.5,-374 391.5,-374 391.5,-393"/>
<text text-anchor="middle" x="367.5" y="-381" font-family="Helvetica,sans-Serif" font-size="10.00">scale8</text>
</a>
</g>
</g>
<!-- Node9&#45;&gt;Node10 -->
<g id="edge9_Node000009_Node000010" class="edge">
<title>Node9&#45;&gt;Node10</title>
<g id="a_edge9_Node000009_Node000010"><a xlink:title=" ">
<path fill="none" stroke="#63b8ff" d="M279.18,-383.5C294.4,-383.5 315.23,-383.5 332.73,-383.5"/>
<polygon fill="#63b8ff" stroke="#63b8ff" points="333.12,-387 343.12,-383.5 333.12,-380 333.12,-387"/>
</a>
</g>
</g>
<!-- Node12 -->
<g id="Node000012" class="node">
<title>Node12</title>
<g id="a_Node000012"><a xlink:href="../../d8/dd0/_fire_cylinder_8h_a470cec2dcb21e474c257065bb93bfcd1.html#a470cec2dcb21e474c257065bb93bfcd1" target="_top" xlink:title=" ">
<polygon fill="white" stroke="#666666" points="282.5,-204 231.5,-204 231.5,-185 282.5,-185 282.5,-204"/>
<text text-anchor="middle" x="257" y="-192" font-family="Helvetica,sans-Serif" font-size="10.00">palette</text>
</a>
</g>
</g>
<!-- Node11&#45;&gt;Node12 -->
<g id="edge12_Node000011_Node000012" class="edge">
<title>Node11&#45;&gt;Node12</title>
<g id="a_edge12_Node000011_Node000012"><a xlink:title=" ">
<path fill="none" stroke="#63b8ff" d="M163.56,-181.14C181.15,-183.68 202.98,-186.83 221,-189.44"/>
<polygon fill="#63b8ff" stroke="#63b8ff" points="220.72,-192.94 231.12,-190.9 221.72,-186.01 220.72,-192.94"/>
</a>
</g>
</g>
<!-- Node14 -->
<g id="Node000014" class="node">
<title>Node14</title>
<g id="a_Node000014"><a xlink:href="../../d5/d98/group___math_ga162169ac0c2d1f3d01eaff8f32e1b415.html#ga162169ac0c2d1f3d01eaff8f32e1b415" target="_top" xlink:title="Take the absolute value of a signed 8&#45;bit uint8_t.">
<polygon fill="white" stroke="#666666" points="277,-130 237,-130 237,-111 277,-111 277,-130"/>
<text text-anchor="middle" x="257" y="-118" font-family="Helvetica,sans-Serif" font-size="10.00">abs8</text>
</a>
</g>
</g>
<!-- Node13&#45;&gt;Node14 -->
<g id="edge14_Node000013_Node000014" class="edge">
<title>Node13&#45;&gt;Node14</title>
<g id="a_edge14_Node000013_Node000014"><a xlink:title=" ">
<path fill="none" stroke="#63b8ff" d="M177.15,-120.5C193.68,-120.5 211.9,-120.5 226.65,-120.5"/>
<polygon fill="#63b8ff" stroke="#63b8ff" points="226.71,-124 236.71,-120.5 226.71,-117 226.71,-124"/>
</a>
</g>
</g>
<!-- Node15 -->
<g id="Node000015" class="node">
<title>Node15</title>
<g id="a_Node000015"><a xlink:href="../../d8/df9/group___noise_generation_ga46e9de1842d8977b77bee089d0f3b25c.html#ga46e9de1842d8977b77bee089d0f3b25c" target="_top" xlink:title="16&#45;bit, fixed point implementation of Perlin&#39;s noise.">
<polygon fill="white" stroke="#666666" points="286,-93 228,-93 228,-74 286,-74 286,-93"/>
<text text-anchor="middle" x="257" y="-81" font-family="Helvetica,sans-Serif" font-size="10.00">inoise16</text>
</a>
</g>
</g>
<!-- Node13&#45;&gt;Node15 -->
<g id="edge15_Node000013_Node000015" class="edge">
<title>Node13&#45;&gt;Node15</title>
<g id="a_edge15_Node000013_Node000015"><a xlink:title=" ">
<path fill="none" stroke="#63b8ff" d="M163.56,-110.97C180.18,-106.03 200.6,-99.97 218.01,-94.79"/>
<polygon fill="#63b8ff" stroke="#63b8ff" points="219.27,-98.07 227.86,-91.86 217.28,-91.36 219.27,-98.07"/>
</a>
</g>
</g>
<!-- Node18 -->
<g id="Node000018" class="node">
<title>Node18</title>
<g id="a_Node000018"><a xlink:href="../../d8/dd0/_fire_cylinder_8h_acf92319b80354b342e7347b4187d8e16.html#acf92319b80354b342e7347b4187d8e16" target="_top" xlink:title=" ">
<polygon fill="white" stroke="#666666" points="291,-56 223,-56 223,-37 291,-37 291,-56"/>
<text text-anchor="middle" x="257" y="-44" font-family="Helvetica,sans-Serif" font-size="10.00">invSpeedZ</text>
</a>
</g>
</g>
<!-- Node13&#45;&gt;Node18 -->
<g id="edge17_Node000013_Node000018" class="edge">
<title>Node13&#45;&gt;Node18</title>
<g id="a_edge17_Node000013_Node000018"><a xlink:title=" ">
<path fill="none" stroke="#63b8ff" d="M169.33,-110.98C175.47,-108.67 181.58,-105.87 187,-102.5 206.48,-90.38 204.89,-79.58 223,-65.5 224.78,-64.12 226.67,-62.76 228.62,-61.46"/>
<polygon fill="#63b8ff" stroke="#63b8ff" points="230.61,-64.34 237.26,-56.09 226.92,-58.39 230.61,-64.34"/>
</a>
</g>
</g>
<!-- Node19 -->
<g id="Node000019" class="node">
<title>Node19</title>
<g id="a_Node000019"><a xlink:href="../../d5/d98/group___math_gae261576a4c8155d6c0ba8615b2d2ecb3.html#gae261576a4c8155d6c0ba8615b2d2ecb3" target="_top" xlink:title="Subtract one byte from another, saturating at 0x00.">
<polygon fill="white" stroke="#666666" points="280,-19 234,-19 234,0 280,0 280,-19"/>
<text text-anchor="middle" x="257" y="-7" font-family="Helvetica,sans-Serif" font-size="10.00">qsub8</text>
</a>
</g>
</g>
<!-- Node13&#45;&gt;Node19 -->
<g id="edge18_Node000013_Node000019" class="edge">
<title>Node13&#45;&gt;Node19</title>
<g id="a_edge18_Node000013_Node000019"><a xlink:title=" ">
<path fill="none" stroke="#63b8ff" d="M173.77,-110.88C178.55,-108.64 183.1,-105.89 187,-102.5 214.6,-78.5 198.05,-55.25 223,-28.5 224.18,-27.24 225.46,-26.03 226.81,-24.89"/>
<polygon fill="#63b8ff" stroke="#63b8ff" points="228.95,-27.66 235.08,-19.02 224.9,-21.96 228.95,-27.66"/>
</a>
</g>
</g>
<!-- Node20 -->
<g id="Node000020" class="node">
<title>Node20</title>
<g id="a_Node000020"><a xlink:href="../../d8/dd0/_fire_cylinder_8h_a7b4981b519c086f0e47af6cb0e151437.html#a7b4981b519c086f0e47af6cb0e151437" target="_top" xlink:title=" ">
<polygon fill="white" stroke="#666666" points="284.5,-167 229.5,-167 229.5,-148 284.5,-148 284.5,-167"/>
<text text-anchor="middle" x="257" y="-155" font-family="Helvetica,sans-Serif" font-size="10.00">scaleXY</text>
</a>
</g>
</g>
<!-- Node13&#45;&gt;Node20 -->
<g id="edge19_Node000013_Node000020" class="edge">
<title>Node13&#45;&gt;Node20</title>
<g id="a_edge19_Node000013_Node000020"><a xlink:title=" ">
<path fill="none" stroke="#63b8ff" d="M163.56,-130.03C180.55,-135.08 201.49,-141.3 219.14,-146.55"/>
<polygon fill="#63b8ff" stroke="#63b8ff" points="218.52,-150.01 229.1,-149.51 220.51,-143.3 218.52,-150.01"/>
</a>
</g>
</g>
<!-- Node16 -->
<g id="Node000016" class="node">
<title>Node16</title>
<g id="a_Node000016"><a xlink:href="../../d8/df9/group___noise_generation_ga810bdc406dcf8fd5b7add9041aa18abd.html#ga810bdc406dcf8fd5b7add9041aa18abd" target="_top" xlink:title="16&#45;bit, fixed point implementation of Perlin&#39;s noise without scaling.">
<polygon fill="#fff0f0" stroke="red" points="408,-93 327,-93 327,-74 408,-74 408,-93"/>
<text text-anchor="middle" x="367.5" y="-81" font-family="Helvetica,sans-Serif" font-size="10.00">inoise16_raw</text>
</a>
</g>
</g>
<!-- Node15&#45;&gt;Node16 -->
<g id="edge16_Node000015_Node000016" class="edge">
<title>Node15&#45;&gt;Node16</title>
<g id="a_edge16_Node000015_Node000016"><a xlink:title=" ">
<path fill="none" stroke="#63b8ff" d="M286.22,-83.5C295.55,-83.5 306.22,-83.5 316.67,-83.5"/>
<polygon fill="#63b8ff" stroke="#63b8ff" points="316.98,-87 326.98,-83.5 316.98,-80 316.98,-87"/>
</a>
</g>
</g>
</g>
</svg>
