<?xml version="1.0" encoding="UTF-8" standalone="no"?>
<!DOCTYPE svg PUBLIC "-//W3C//DTD SVG 1.1//EN"
 "http://www.w3.org/Graphics/SVG/1.1/DTD/svg11.dtd">
<!-- Generated by graphviz version 2.43.0 (0)
 -->
<!-- Title: fl::HttpResponseParser Pages: 1 -->
<!--zoomable 276 -->

<svg id="main" version="1.1" xmlns="http://www.w3.org/2000/svg" xmlns:xlink="http://www.w3.org/1999/xlink" xml:space="preserve" onload="init(evt)">

<style type="text/css"><![CDATA[
.node, .edge {opacity: 0.7;}
.node.selected, .edge.selected {opacity: 1;}
.edge:hover path { stroke: red; }
.edge:hover polygon { stroke: red; fill: red; }
]]></style>

<defs>
  <circle id="rim" cx="0" cy="0" r="7"/>
  <circle id="rim2" cx="0" cy="0" r="3.5"/>
  <g id="zoomPlus">
    <use xlink:href="#rim" fill="#404040"><set attributeName="fill" to="#808080" begin="zoomplus.mouseover" end="zoomplus.mouseout"/></use>
    <path d="M-4,0h8M0,-4v8" fill="none" stroke="white" stroke-width="1.5" pointer-events="none"/>
  </g>
  <g id="zoomMin">
    <use xlink:href="#rim" fill="#404040"><set attributeName="fill" to="#808080" begin="zoomminus.mouseover" end="zoomminus.mouseout"/></use>
    <path d="M-4,0h8" fill="none" stroke="white" stroke-width="1.5" pointer-events="none"/>
  </g>
  <g id="arrowUp" transform="translate(30 24)">
    <use xlink:href="#rim"/>
    <path pointer-events="none" fill="none" stroke="white" stroke-width="1.5" d="M0,-3.0v7 M-2.5,-0.5L0,-3.0L2.5,-0.5"/>
  </g>
  <g id="arrowRight" transform="rotate(90) translate(36 -43)">
    <use xlink:href="#rim"/>
    <path pointer-events="none" fill="none" stroke="white" stroke-width="1.5" d="M0,-3.0v7 M-2.5,-0.5L0,-3.0L2.5,-0.5"/>
  </g>
  <g id="arrowDown" transform="rotate(180) translate(-30 -48)">
    <use xlink:href="#rim"/>
    <path pointer-events="none" fill="none" stroke="white" stroke-width="1.5" d="M0,-3.0v7 M-2.5,-0.5L0,-3.0L2.5,-0.5"/>
  </g>
  <g id="arrowLeft" transform="rotate(270) translate(-36 17)">
    <use xlink:href="#rim"/>
    <path pointer-events="none" fill="none" stroke="white" stroke-width="1.5" d="M0,-3.0v7 M-2.5,-0.5L0,-3.0L2.5,-0.5"/>
  </g>
  <g id="resetDef">
    <use xlink:href="#rim2" fill="#404040"><set attributeName="fill" to="#808080" begin="reset.mouseover" end="reset.mouseout"/></use>
  </g>
</defs>
<script type="application/ecmascript">
var viewWidth = 1584;
var viewHeight = 276;
var sectionId = 'dynsection-0';
</script>
<script type="application/ecmascript" xlink:href="../../svg.min.js"/>
<svg id="graph" class="graph">
<g id="viewport">
<title>fl::HttpResponseParser</title>
<!-- Node1 -->
<g id="Node000001" class="node">
<title>Node1</title>
<g id="a_Node000001"><a xlink:title=" ">
<polygon fill="#999999" stroke="#666666" points="1576,-107.64 1449,-107.64 1449,-88.64 1576,-88.64 1576,-107.64"/>
<text text-anchor="middle" x="1512.5" y="-95.64" font-family="Helvetica,sans-Serif" font-size="10.00">fl::HttpResponseParser</text>
</a>
</g>
</g>
<!-- Node2 -->
<g id="Node000002" class="node">
<title>Node2</title>
<g id="a_Node000002"><a xlink:href="../../d2/d24/classfl_1_1vector.html" target="_top" xlink:title=" ">
<polygon fill="white" stroke="#666666" points="716,-255.64 622,-255.64 622,-236.64 716,-236.64 716,-255.64"/>
<text text-anchor="middle" x="669" y="-243.64" font-family="Helvetica,sans-Serif" font-size="10.00">fl::vector&lt; u8 &gt;</text>
</a>
</g>
</g>
<!-- Node2&#45;&gt;Node1 -->
<g id="edge1_Node000001_Node000002" class="edge">
<title>Node2&#45;&gt;Node1</title>
<g id="a_edge1_Node000001_Node000002"><a xlink:title=" ">
<path fill="none" stroke="#9a32cd" stroke-dasharray="5,2" d="M719.06,-257.77C734.03,-260.8 750.61,-263.64 766,-265.14 800.06,-268.48 809.03,-269.32 843,-265.14 1096.79,-233.92 1392.82,-138.41 1483.62,-107.74"/>
<polygon fill="#9a32cd" stroke="#9a32cd" points="719.48,-254.28 708.98,-255.65 718.04,-261.13 719.48,-254.28"/>
</a>
</g>
<text text-anchor="middle" x="1089" y="-234.14" font-family="Helvetica,sans-Serif" font-size="10.00" fill="grey"> mBuffer</text>
</g>
<!-- Node8 -->
<g id="Node000008" class="node">
<title>Node8</title>
<g id="a_Node000008"><a xlink:href="../../d4/d36/namespacefl.html#d0/d9b/structfl_1_1_http_response" target="_top" xlink:title=" ">
<polygon fill="white" stroke="#666666" points="985.5,-148.64 888.5,-148.64 888.5,-129.64 985.5,-129.64 985.5,-148.64"/>
<text text-anchor="middle" x="937" y="-136.64" font-family="Helvetica,sans-Serif" font-size="10.00">fl::HttpResponse</text>
</a>
</g>
</g>
<!-- Node2&#45;&gt;Node8 -->
<g id="edge11_Node000008_Node000002" class="edge">
<title>Node2&#45;&gt;Node8</title>
<g id="a_edge11_Node000008_Node000002"><a xlink:title=" ">
<path fill="none" stroke="#9a32cd" stroke-dasharray="5,2" d="M704.27,-232.86C722.48,-226.01 745.32,-217.72 766,-211.14 799.8,-200.39 814.88,-211.77 843,-190.14 855.63,-180.43 848.34,-168.82 861,-159.14 868.92,-153.09 878.53,-148.86 888.19,-145.91"/>
<polygon fill="#9a32cd" stroke="#9a32cd" points="702.78,-229.69 694.67,-236.51 705.26,-236.23 702.78,-229.69"/>
</a>
</g>
<text text-anchor="middle" x="804.5" y="-214.14" font-family="Helvetica,sans-Serif" font-size="10.00" fill="grey"> body</text>
</g>
<!-- Node24 -->
<g id="Node000024" class="node">
<title>Node24</title>
<g id="a_Node000024"><a xlink:href="../../d1/d7d/classfl_1_1net_1_1http_1_1_chunked_reader.html" target="_top" xlink:title=" ">
<polygon fill="white" stroke="#666666" points="1013,-187.64 861,-187.64 861,-168.64 1013,-168.64 1013,-187.64"/>
<text text-anchor="middle" x="937" y="-175.64" font-family="Helvetica,sans-Serif" font-size="10.00">fl::net::http::ChunkedReader</text>
</a>
</g>
</g>
<!-- Node2&#45;&gt;Node24 -->
<g id="edge18_Node000024_Node000002" class="edge">
<title>Node2&#45;&gt;Node24</title>
<g id="a_edge18_Node000024_Node000002"><a xlink:title=" ">
<path fill="none" stroke="#9a32cd" stroke-dasharray="5,2" d="M726.34,-243.72C760.65,-241.08 805.04,-235.59 843,-224.14 871.8,-215.46 902.6,-198.53 920.54,-187.81"/>
<polygon fill="#9a32cd" stroke="#9a32cd" points="725.76,-240.25 716.03,-244.45 726.25,-247.23 725.76,-240.25"/>
</a>
</g>
<text text-anchor="middle" x="804.5" y="-253.14" font-family="Helvetica,sans-Serif" font-size="10.00" fill="grey"> mBuffer</text>
<text text-anchor="middle" x="804.5" y="-242.14" font-family="Helvetica,sans-Serif" font-size="10.00" fill="grey">mCurrentChunk</text>
</g>
<!-- Node3 -->
<g id="Node000003" class="node">
<title>Node3</title>
<g id="a_Node000003"><a xlink:href="../../d4/dad/classfl_1_1vector__basic.html" target="_top" xlink:title="Type&#45;erased vector base class.">
<polygon fill="white" stroke="#666666" points="312,-224.64 222,-224.64 222,-205.64 312,-205.64 312,-224.64"/>
<text text-anchor="middle" x="267" y="-212.64" font-family="Helvetica,sans-Serif" font-size="10.00">fl::vector_basic</text>
</a>
</g>
</g>
<!-- Node3&#45;&gt;Node2 -->
<g id="edge2_Node000002_Node000003" class="edge">
<title>Node3&#45;&gt;Node2</title>
<g id="a_edge2_Node000002_Node000003"><a xlink:title=" ">
<path fill="none" stroke="#63b8ff" d="M314.89,-227.1C326.02,-229.67 337.89,-232.2 349,-234.14 446.82,-251.26 472.7,-249.18 572,-248.14 588.17,-247.98 605.87,-247.65 621.62,-247.31"/>
<polygon fill="#63b8ff" stroke="#63b8ff" points="315.45,-223.64 304.91,-224.74 313.84,-230.45 315.45,-223.64"/>
</a>
</g>
</g>
<!-- Node6 -->
<g id="Node000006" class="node">
<title>Node6</title>
<g id="a_Node000006"><a xlink:href="../../d2/d24/classfl_1_1vector.html" target="_top" xlink:title=" ">
<polygon fill="white" stroke="#666666" points="444,-224.64 356,-224.64 356,-205.64 444,-205.64 444,-224.64"/>
<text text-anchor="middle" x="400" y="-212.64" font-family="Helvetica,sans-Serif" font-size="10.00">fl::vector&lt; T &gt;</text>
</a>
</g>
</g>
<!-- Node3&#45;&gt;Node6 -->
<g id="edge6_Node000006_Node000003" class="edge">
<title>Node3&#45;&gt;Node6</title>
<g id="a_edge6_Node000006_Node000003"><a xlink:title=" ">
<path fill="none" stroke="#63b8ff" d="M322.36,-215.14C333.44,-215.14 344.95,-215.14 355.58,-215.14"/>
<polygon fill="#63b8ff" stroke="#63b8ff" points="322.35,-211.64 312.35,-215.14 322.35,-218.64 322.35,-211.64"/>
</a>
</g>
</g>
<!-- Node25 -->
<g id="Node000025" class="node">
<title>Node25</title>
<g id="a_Node000025"><a xlink:href="../../d2/d24/classfl_1_1vector.html" target="_top" xlink:title=" ">
<polygon fill="white" stroke="#666666" points="725.5,-207.14 612.5,-207.14 612.5,-177.14 725.5,-177.14 725.5,-207.14"/>
<text text-anchor="start" x="620.5" y="-195.14" font-family="Helvetica,sans-Serif" font-size="10.00">fl::vector&lt; fl::vector</text>
<text text-anchor="middle" x="669" y="-184.14" font-family="Helvetica,sans-Serif" font-size="10.00">&lt; u8 &gt; &gt;</text>
</a>
</g>
</g>
<!-- Node3&#45;&gt;Node25 -->
<g id="edge20_Node000025_Node000003" class="edge">
<title>Node3&#45;&gt;Node25</title>
<g id="a_edge20_Node000025_Node000003"><a xlink:title=" ">
<path fill="none" stroke="#63b8ff" d="M314.84,-203.4C325.98,-200.98 337.86,-198.7 349,-197.14 440.61,-184.38 548.45,-186.14 612.36,-188.91"/>
<polygon fill="#63b8ff" stroke="#63b8ff" points="313.86,-200.03 304.87,-205.64 315.4,-206.86 313.86,-200.03"/>
</a>
</g>
</g>
<!-- Node4 -->
<g id="Node000004" class="node">
<title>Node4</title>
<g id="a_Node000004"><a xlink:href="../../db/d13/classfl_1_1memory__resource.html" target="_top" xlink:title="Polymorphic memory resource base class (PMR&#45;style).">
<polygon fill="white" stroke="#666666" points="122.5,-243.64 5.5,-243.64 5.5,-224.64 122.5,-224.64 122.5,-243.64"/>
<text text-anchor="middle" x="64" y="-231.64" font-family="Helvetica,sans-Serif" font-size="10.00">fl::memory_resource</text>
</a>
</g>
</g>
<!-- Node4&#45;&gt;Node3 -->
<g id="edge3_Node000003_Node000004" class="edge">
<title>Node4&#45;&gt;Node3</title>
<g id="a_edge3_Node000003_Node000004"><a xlink:title=" ">
<path fill="none" stroke="#9a32cd" stroke-dasharray="5,2" d="M132.79,-227.74C162.17,-224.96 195.73,-221.79 221.81,-219.32"/>
<polygon fill="#9a32cd" stroke="#9a32cd" points="132.22,-224.27 122.6,-228.7 132.88,-231.24 132.22,-224.27"/>
</a>
</g>
<text text-anchor="middle" x="175" y="-229.14" font-family="Helvetica,sans-Serif" font-size="10.00" fill="grey"> mResource</text>
</g>
<!-- Node5 -->
<g id="Node000005" class="node">
<title>Node5</title>
<g id="a_Node000005"><a xlink:href="../../d4/d36/namespacefl.html#d8/d72/structfl_1_1vector__element__ops" target="_top" xlink:title="Function pointer table for type&#45;specific element operations.">
<polygon fill="white" stroke="#666666" points="128,-206.64 0,-206.64 0,-187.64 128,-187.64 128,-206.64"/>
<text text-anchor="middle" x="64" y="-194.64" font-family="Helvetica,sans-Serif" font-size="10.00">fl::vector_element_ops</text>
</a>
</g>
</g>
<!-- Node5&#45;&gt;Node3 -->
<g id="edge4_Node000003_Node000005" class="edge">
<title>Node5&#45;&gt;Node3</title>
<g id="a_edge4_Node000003_Node000005"><a xlink:title=" ">
<path fill="none" stroke="#9a32cd" stroke-dasharray="5,2" d="M138.41,-196.61C159.64,-197.17 182.8,-198.47 204,-201.14 212.21,-202.18 220.93,-203.81 229.16,-205.6"/>
<polygon fill="#9a32cd" stroke="#9a32cd" points="138.24,-193.1 128.17,-196.39 138.09,-200.1 138.24,-193.1"/>
</a>
</g>
<text text-anchor="middle" x="175" y="-204.14" font-family="Helvetica,sans-Serif" font-size="10.00" fill="grey"> mOps</text>
</g>
<!-- Node6&#45;&gt;Node2 -->
<g id="edge5_Node000002_Node000006" class="edge">
<title>Node6&#45;&gt;Node2</title>
<g id="a_edge5_Node000002_Node000006"><a xlink:title=" ">
<path fill="none" stroke="orange" stroke-dasharray="5,2" d="M454.28,-221.33C503.25,-227.02 575.11,-235.36 621.73,-240.77"/>
<polygon fill="orange" stroke="orange" points="454.53,-217.84 444.19,-220.16 453.72,-224.79 454.53,-217.84"/>
</a>
</g>
<text text-anchor="middle" x="520.5" y="-237.14" font-family="Helvetica,sans-Serif" font-size="10.00" fill="grey"> &lt; u8 &gt;</text>
</g>
<!-- Node6&#45;&gt;Node25 -->
<g id="edge21_Node000025_Node000006" class="edge">
<title>Node6&#45;&gt;Node25</title>
<g id="a_edge21_Node000025_Node000006"><a xlink:title=" ">
<path fill="none" stroke="orange" stroke-dasharray="5,2" d="M454.23,-205.13C459.21,-204.38 464.19,-203.7 469,-203.14 517.12,-197.59 572.13,-194.82 612.09,-193.45"/>
<polygon fill="orange" stroke="orange" points="453.38,-201.72 444.05,-206.75 454.48,-208.63 453.38,-201.72"/>
</a>
</g>
<text text-anchor="middle" x="520.5" y="-206.14" font-family="Helvetica,sans-Serif" font-size="10.00" fill="grey"> &lt; fl::vector&lt; u8 &gt; &gt;</text>
</g>
<!-- Node7 -->
<g id="Node000007" class="node">
<title>Node7</title>
<g id="a_Node000007"><a xlink:href="../../d1/d74/classfl_1_1shared__ptr.html" target="_top" xlink:title=" ">
<polygon fill="white" stroke="#666666" points="1295,-54.14 1193,-54.14 1193,-24.14 1295,-24.14 1295,-54.14"/>
<text text-anchor="start" x="1201" y="-42.14" font-family="Helvetica,sans-Serif" font-size="10.00">fl::shared_ptr&lt; fl</text>
<text text-anchor="middle" x="1244" y="-31.14" font-family="Helvetica,sans-Serif" font-size="10.00">::HttpResponse &gt;</text>
</a>
</g>
</g>
<!-- Node7&#45;&gt;Node1 -->
<g id="edge7_Node000001_Node000007" class="edge">
<title>Node7&#45;&gt;Node1</title>
<g id="a_edge7_Node000001_Node000007"><a xlink:title=" ">
<path fill="none" stroke="#9a32cd" stroke-dasharray="5,2" d="M1305.08,-52.45C1354.69,-63.43 1423.9,-78.75 1468.21,-88.56"/>
<polygon fill="#9a32cd" stroke="#9a32cd" points="1305.65,-48.99 1295.13,-50.24 1304.13,-55.82 1305.65,-48.99"/>
</a>
</g>
<text text-anchor="middle" x="1386" y="-82.14" font-family="Helvetica,sans-Serif" font-size="10.00" fill="grey"> mResponse</text>
</g>
<!-- Node8&#45;&gt;Node7 -->
<g id="edge8_Node000007_Node000008" class="edge">
<title>Node8&#45;&gt;Node7</title>
<g id="a_edge8_Node000007_Node000008"><a xlink:title=" ">
<path fill="none" stroke="#9a32cd" stroke-dasharray="5,2" d="M995.66,-131.76C1038.92,-124.67 1098.75,-111.47 1147,-88.14 1156.13,-83.73 1156.31,-79.37 1165,-74.14 1177.34,-66.72 1191.52,-59.9 1204.39,-54.29"/>
<polygon fill="#9a32cd" stroke="#9a32cd" points="994.92,-128.34 985.59,-133.36 996.01,-135.25 994.92,-128.34"/>
</a>
</g>
<text text-anchor="middle" x="1089" y="-127.14" font-family="Helvetica,sans-Serif" font-size="10.00" fill="grey"> mPtr</text>
</g>
<!-- Node9 -->
<g id="Node000009" class="node">
<title>Node9</title>
<g id="a_Node000009"><a xlink:href="../../d2/db2/classfl_1_1string.html" target="_top" xlink:title=" ">
<polygon fill="#fff0f0" stroke="red" points="697,-108.64 641,-108.64 641,-89.64 697,-89.64 697,-108.64"/>
<text text-anchor="middle" x="669" y="-96.64" font-family="Helvetica,sans-Serif" font-size="10.00">fl::string</text>
</a>
</g>
</g>
<!-- Node9&#45;&gt;Node8 -->
<g id="edge9_Node000008_Node000009" class="edge">
<title>Node9&#45;&gt;Node8</title>
<g id="a_edge9_Node000008_Node000009"><a xlink:title=" ">
<path fill="none" stroke="#9a32cd" stroke-dasharray="5,2" d="M707.43,-100.87C742.63,-102.9 796.68,-107.08 843,-115.14 863.53,-118.72 886.19,-124.53 904,-129.53"/>
<polygon fill="#9a32cd" stroke="#9a32cd" points="707.32,-97.36 697.15,-100.31 706.94,-104.35 707.32,-97.36"/>
</a>
</g>
<text text-anchor="middle" x="804.5" y="-129.14" font-family="Helvetica,sans-Serif" font-size="10.00" fill="grey"> reasonPhrase</text>
<text text-anchor="middle" x="804.5" y="-118.14" font-family="Helvetica,sans-Serif" font-size="10.00" fill="grey">version</text>
</g>
<!-- Node13 -->
<g id="Node000013" class="node">
<title>Node13</title>
<g id="a_Node000013"><a xlink:href="../../d2/d26/classfl_1_1flat__map.html" target="_top" xlink:title=" ">
<polygon fill="#fff0f0" stroke="red" points="748,-159.14 590,-159.14 590,-129.14 748,-129.14 748,-159.14"/>
<text text-anchor="start" x="598" y="-147.14" font-family="Helvetica,sans-Serif" font-size="10.00">fl::flat_map&lt; fl::string,</text>
<text text-anchor="middle" x="669" y="-136.14" font-family="Helvetica,sans-Serif" font-size="10.00"> fl::string, fl::StringFastLess &gt;</text>
</a>
</g>
</g>
<!-- Node13&#45;&gt;Node8 -->
<g id="edge10_Node000008_Node000013" class="edge">
<title>Node13&#45;&gt;Node8</title>
<g id="a_edge10_Node000008_Node000013"><a xlink:title=" ">
<path fill="none" stroke="#9a32cd" stroke-dasharray="5,2" d="M758.04,-142.49C801.54,-141.67 852.32,-140.72 888.48,-140.04"/>
<polygon fill="#9a32cd" stroke="#9a32cd" points="757.94,-138.99 748.01,-142.68 758.08,-145.99 757.94,-138.99"/>
</a>
</g>
<text text-anchor="middle" x="804.5" y="-146.14" font-family="Helvetica,sans-Serif" font-size="10.00" fill="grey"> headers</text>
</g>
<!-- Node19 -->
<g id="Node000019" class="node">
<title>Node19</title>
<g id="a_Node000019"><a xlink:href="../../d4/dc0/structfl_1_1detail_1_1_control_block_base.html" target="_top" xlink:title=" ">
<polygon fill="white" stroke="#666666" points="743.5,-43.64 594.5,-43.64 594.5,-24.64 743.5,-24.64 743.5,-43.64"/>
<text text-anchor="middle" x="669" y="-31.64" font-family="Helvetica,sans-Serif" font-size="10.00">fl::detail::ControlBlockBase</text>
</a>
</g>
</g>
<!-- Node19&#45;&gt;Node7 -->
<g id="edge12_Node000007_Node000019" class="edge">
<title>Node19&#45;&gt;Node7</title>
<g id="a_edge12_Node000007_Node000019"><a xlink:title=" ">
<path fill="none" stroke="#9a32cd" stroke-dasharray="5,2" d="M727.54,-22.71C765.31,-15.8 815.88,-7.67 861,-4.14 988,5.77 1021.1,-3.73 1147,-23.14 1161.86,-25.44 1177.99,-28.07 1192.72,-30.53"/>
<polygon fill="#9a32cd" stroke="#9a32cd" points="726.44,-19.35 717.25,-24.62 727.72,-26.24 726.44,-19.35"/>
</a>
</g>
<text text-anchor="middle" x="937" y="-7.14" font-family="Helvetica,sans-Serif" font-size="10.00" fill="grey"> mControlBlock</text>
</g>
<!-- Node22 -->
<g id="Node000022" class="node">
<title>Node22</title>
<g id="a_Node000022"><a xlink:href="../../d1/d74/classfl_1_1shared__ptr.html" target="_top" xlink:title=" ">
<polygon fill="white" stroke="#666666" points="991.5,-43.64 882.5,-43.64 882.5,-24.64 991.5,-24.64 991.5,-43.64"/>
<text text-anchor="middle" x="937" y="-31.64" font-family="Helvetica,sans-Serif" font-size="10.00">fl::shared_ptr&lt; T &gt;</text>
</a>
</g>
</g>
<!-- Node19&#45;&gt;Node22 -->
<g id="edge15_Node000022_Node000019" class="edge">
<title>Node19&#45;&gt;Node22</title>
<g id="a_edge15_Node000022_Node000019"><a xlink:title=" ">
<path fill="none" stroke="#9a32cd" stroke-dasharray="5,2" d="M753.97,-34.14C795.98,-34.14 845.59,-34.14 882.39,-34.14"/>
<polygon fill="#9a32cd" stroke="#9a32cd" points="753.74,-30.64 743.74,-34.14 753.74,-37.64 753.74,-30.64"/>
</a>
</g>
<text text-anchor="middle" x="804.5" y="-37.14" font-family="Helvetica,sans-Serif" font-size="10.00" fill="grey"> mControlBlock</text>
</g>
<!-- Node23 -->
<g id="Node000023" class="node">
<title>Node23</title>
<g id="a_Node000023"><a xlink:href="../../d1/d74/classfl_1_1shared__ptr.html" target="_top" xlink:title=" ">
<polygon fill="white" stroke="#666666" points="1323,-113.14 1165,-113.14 1165,-83.14 1323,-83.14 1323,-113.14"/>
<text text-anchor="start" x="1173" y="-101.14" font-family="Helvetica,sans-Serif" font-size="10.00">fl::shared_ptr&lt; fl</text>
<text text-anchor="middle" x="1244" y="-90.14" font-family="Helvetica,sans-Serif" font-size="10.00">::net::http::ChunkedReader &gt;</text>
</a>
</g>
</g>
<!-- Node19&#45;&gt;Node23 -->
<g id="edge22_Node000023_Node000019" class="edge">
<title>Node19&#45;&gt;Node23</title>
<g id="a_edge22_Node000023_Node000019"><a xlink:title=" ">
<path fill="none" stroke="#9a32cd" stroke-dasharray="5,2" d="M739.4,-45.19C748.35,-46.55 757.39,-47.9 766,-49.14 883.59,-66.09 912.78,-72.45 1031,-84.14 1075.23,-88.52 1124.79,-91.88 1164.87,-94.21"/>
<polygon fill="#9a32cd" stroke="#9a32cd" points="739.79,-41.71 729.37,-43.65 738.72,-48.62 739.79,-41.71"/>
</a>
</g>
<text text-anchor="middle" x="937" y="-86.14" font-family="Helvetica,sans-Serif" font-size="10.00" fill="grey"> mControlBlock</text>
</g>
<!-- Node20 -->
<g id="Node000020" class="node">
<title>Node20</title>
<g id="a_Node000020"><a xlink:href="../../da/d98/classfl_1_1_atomic_fake.html" target="_top" xlink:title=" ">
<polygon fill="#fff0f0" stroke="red" points="451,-49.14 349,-49.14 349,-19.14 451,-19.14 451,-49.14"/>
<text text-anchor="start" x="357" y="-37.14" font-family="Helvetica,sans-Serif" font-size="10.00">fl::AtomicFake&lt; fl</text>
<text text-anchor="middle" x="400" y="-26.14" font-family="Helvetica,sans-Serif" font-size="10.00">::u32 &gt;</text>
</a>
</g>
</g>
<!-- Node20&#45;&gt;Node19 -->
<g id="edge13_Node000019_Node000020" class="edge">
<title>Node20&#45;&gt;Node19</title>
<g id="a_edge13_Node000019_Node000020"><a xlink:title=" ">
<path fill="none" stroke="#9a32cd" stroke-dasharray="5,2" d="M461.47,-34.14C500.86,-34.14 552.51,-34.14 594.3,-34.14"/>
<polygon fill="#9a32cd" stroke="#9a32cd" points="461.22,-30.64 451.22,-34.14 461.22,-37.64 461.22,-30.64"/>
</a>
</g>
<text text-anchor="middle" x="520.5" y="-48.14" font-family="Helvetica,sans-Serif" font-size="10.00" fill="grey"> shared_count</text>
<text text-anchor="middle" x="520.5" y="-37.14" font-family="Helvetica,sans-Serif" font-size="10.00" fill="grey">weak_count</text>
</g>
<!-- Node22&#45;&gt;Node7 -->
<g id="edge14_Node000007_Node000022" class="edge">
<title>Node22&#45;&gt;Node7</title>
<g id="a_edge14_Node000007_Node000022"><a xlink:title=" ">
<path fill="none" stroke="orange" stroke-dasharray="5,2" d="M1001.69,-29.49C1011.5,-28.93 1021.52,-28.45 1031,-28.14 1082.53,-26.48 1095.53,-25.2 1147,-28.14 1161.91,-29 1178.05,-30.58 1192.77,-32.29"/>
<polygon fill="orange" stroke="orange" points="1001.35,-26 991.58,-30.1 1001.77,-32.99 1001.35,-26"/>
</a>
</g>
<text text-anchor="middle" x="1089" y="-31.14" font-family="Helvetica,sans-Serif" font-size="10.00" fill="grey"> &lt; fl::HttpResponse &gt;</text>
</g>
<!-- Node22&#45;&gt;Node23 -->
<g id="edge23_Node000023_Node000022" class="edge">
<title>Node22&#45;&gt;Node23</title>
<g id="a_edge23_Node000023_Node000022"><a xlink:title=" ">
<path fill="none" stroke="orange" stroke-dasharray="5,2" d="M1001.92,-38.94C1043.67,-42.99 1099.11,-50.12 1147,-62.14 1167.89,-67.39 1190.48,-75.72 1208.49,-83.04"/>
<polygon fill="orange" stroke="orange" points="1002.17,-35.45 991.89,-38 1001.52,-42.42 1002.17,-35.45"/>
</a>
</g>
<text text-anchor="start" x="1031" y="-76.14" font-family="Helvetica,sans-Serif" font-size="10.00" fill="grey"> &lt; fl::net::http::Chunked</text>
<text text-anchor="middle" x="1089" y="-65.14" font-family="Helvetica,sans-Serif" font-size="10.00" fill="grey">Reader &gt;</text>
</g>
<!-- Node23&#45;&gt;Node1 -->
<g id="edge16_Node000001_Node000023" class="edge">
<title>Node23&#45;&gt;Node1</title>
<g id="a_edge16_Node000001_Node000023"><a xlink:title=" ">
<path fill="none" stroke="#9a32cd" stroke-dasharray="5,2" d="M1333.18,-98.14C1371.07,-98.14 1414.49,-98.14 1448.99,-98.14"/>
<polygon fill="#9a32cd" stroke="#9a32cd" points="1333.16,-94.64 1323.16,-98.14 1333.16,-101.64 1333.16,-94.64"/>
</a>
</g>
<text text-anchor="middle" x="1386" y="-101.14" font-family="Helvetica,sans-Serif" font-size="10.00" fill="grey"> mChunkedReader</text>
</g>
<!-- Node24&#45;&gt;Node23 -->
<g id="edge17_Node000023_Node000024" class="edge">
<title>Node24&#45;&gt;Node23</title>
<g id="a_edge17_Node000023_Node000024"><a xlink:title=" ">
<path fill="none" stroke="#9a32cd" stroke-dasharray="5,2" d="M1023.59,-173.72C1062.04,-169.95 1107.54,-162.99 1147,-150.14 1173.85,-141.4 1201.97,-125.22 1220.78,-113.22"/>
<polygon fill="#9a32cd" stroke="#9a32cd" points="1023.09,-170.25 1013.46,-174.66 1023.74,-177.22 1023.09,-170.25"/>
</a>
</g>
<text text-anchor="middle" x="1089" y="-176.14" font-family="Helvetica,sans-Serif" font-size="10.00" fill="grey"> mPtr</text>
</g>
<!-- Node25&#45;&gt;Node24 -->
<g id="edge19_Node000024_Node000025" class="edge">
<title>Node25&#45;&gt;Node24</title>
<g id="a_edge19_Node000024_Node000025"><a xlink:title=" ">
<path fill="none" stroke="#9a32cd" stroke-dasharray="5,2" d="M735.73,-182.1C745.84,-180.89 756.19,-179.83 766,-179.14 796.91,-176.97 831.07,-176.41 860.6,-176.51"/>
<polygon fill="#9a32cd" stroke="#9a32cd" points="735.2,-178.64 725.71,-183.36 736.07,-185.59 735.2,-178.64"/>
</a>
</g>
<text text-anchor="middle" x="804.5" y="-182.14" font-family="Helvetica,sans-Serif" font-size="10.00" fill="grey"> mChunks</text>
</g>
</g>
</svg>

<g id="navigator" transform="translate(0 0)" fill="#404254">
  <rect fill="#f2f5e9" fill-opacity="0.5" stroke="#606060" stroke-width=".5" x="0" y="0" width="60" height="60"/>
  <use id="zoomplus" xlink:href="#zoomPlus" x="17" y="9" onmousedown="handleZoom(evt,'in')"/>
  <use id="zoomminus" xlink:href="#zoomMin" x="42" y="9" onmousedown="handleZoom(evt,'out')"/>
  <use id="reset" xlink:href="#resetDef" x="30" y="36" onmousedown="handleReset()"/>
   <use id="arrowup" xlink:href="#arrowUp" x="0" y="0" onmousedown="handlePan(0,-1)"/>
  <use id="arrowright" xlink:href="#arrowRight" x="0" y="0" onmousedown="handlePan(1,0)"/>
  <use id="arrowdown" xlink:href="#arrowDown" x="0" y="0" onmousedown="handlePan(0,1)"/>
  <use id="arrowleft" xlink:href="#arrowLeft" x="0" y="0" onmousedown="handlePan(-1,0)"/>
</g>
<svg viewBox="0 0 15 15" width="100%" height="30px" preserveAspectRatio="xMaxYMin meet">
 <g id="arrow_out" transform="scale(0.3 0.3)">
  <a xlink:href="classfl_1_1_http_response_parser__coll__graph_org.svg" target="_base">
   <rect id="button" ry="5" rx="5" y="6" x="6" height="38" width="38"
        fill="#f2f5e9" fill-opacity="0.5" stroke="#606060" stroke-width="1.0"/>
   <path id="arrow"
     d="M 11.500037,31.436501 C 11.940474,20.09759 22.043105,11.32322 32.158766,21.979434 L 37.068811,17.246167 C 37.068811,17.246167 37.088388,32 37.088388,32 L 22.160133,31.978069 C 22.160133,31.978069 26.997745,27.140456 26.997745,27.140456 C 18.528582,18.264221 13.291696,25.230495 11.500037,31.436501 z"
     style="fill:#404040;"/>
  </a>
 </g>
</svg>

<style type='text/css'>
<![CDATA[
[data-mouse-over-selected='false'] { opacity: 0.7; }
[data-mouse-over-selected='true']  { opacity: 1.0; }
]]>
</style>
<script type="application/ecmascript"><![CDATA[
document.addEventListener('DOMContentLoaded', (event) => {
  highlightEdges();
  highlightAdjacentNodes();
});
]]></script>
</svg>
