<?xml version="1.0" encoding="UTF-8" standalone="no"?>
<!DOCTYPE svg PUBLIC "-//W3C//DTD SVG 1.1//EN"
 "http://www.w3.org/Graphics/SVG/1.1/DTD/svg11.dtd">
<!-- Generated by graphviz version 2.43.0 (0)
 -->
<!-- Title: fl/set.h Pages: 1 -->
<svg width="482pt" height="192pt"
 viewBox="0.00 0.00 481.57 192.00" xmlns="http://www.w3.org/2000/svg" xmlns:xlink="http://www.w3.org/1999/xlink">
<g id="graph0" class="graph" transform="scale(1 1) rotate(0) translate(4 188)">
<title>fl/set.h</title>
<!-- Node1 -->
<g id="Node000001" class="node">
<title>Node1</title>
<g id="a_Node000001"><a xlink:title=" ">
<polygon fill="#999999" stroke="#666666" points="158.99,-184 108.99,-184 108.99,-165 158.99,-165 158.99,-184"/>
<text text-anchor="middle" x="133.99" y="-172" font-family="Helvetica,sans-Serif" font-size="10.00">fl/set.h</text>
</a>
</g>
</g>
<!-- Node2 -->
<g id="Node000002" class="node">
<title>Node2</title>
<g id="a_Node000002"><a xlink:title=" ">
<polygon fill="#e0e0e0" stroke="#999999" points="65.49,-74 12.49,-74 12.49,-55 65.49,-55 65.49,-74"/>
<text text-anchor="middle" x="38.99" y="-62" font-family="Helvetica,sans-Serif" font-size="10.00">stdint.h</text>
</a>
</g>
</g>
<!-- Node1&#45;&gt;Node2 -->
<g id="edge1_Node000001_Node000002" class="edge">
<title>Node1&#45;&gt;Node2</title>
<g id="a_edge1_Node000001_Node000002"><a xlink:title=" ">
<path fill="none" stroke="#63b8ff" d="M126.22,-164.66C110.27,-146.54 73.66,-104.91 53.3,-81.77"/>
<polygon fill="#63b8ff" stroke="#63b8ff" points="55.84,-79.36 46.61,-74.16 50.58,-83.98 55.84,-79.36"/>
</a>
</g>
</g>
<!-- Node3 -->
<g id="Node000003" class="node">
<title>Node3</title>
<g id="a_Node000003"><a xlink:title=" ">
<polygon fill="#e0e0e0" stroke="#999999" points="121.99,-19 65.99,-19 65.99,0 121.99,0 121.99,-19"/>
<text text-anchor="middle" x="93.99" y="-7" font-family="Helvetica,sans-Serif" font-size="10.00">stddef.h</text>
</a>
</g>
</g>
<!-- Node1&#45;&gt;Node3 -->
<g id="edge2_Node000001_Node000003" class="edge">
<title>Node1&#45;&gt;Node3</title>
<g id="a_edge2_Node000001_Node000003"><a xlink:title=" ">
<path fill="none" stroke="#63b8ff" d="M113.02,-164.92C82.25,-151.04 26.03,-120.43 2.99,-74 -10.22,-47.37 25.55,-29.77 56.06,-19.99"/>
<polygon fill="#63b8ff" stroke="#63b8ff" points="57.14,-23.32 65.71,-17.09 55.13,-16.62 57.14,-23.32"/>
</a>
</g>
</g>
<!-- Node4 -->
<g id="Node000004" class="node">
<title>Node4</title>
<g id="a_Node000004"><a xlink:href="../../df/d2a/namespace_8h.html" target="_top" xlink:title="Implements the FastLED namespace macros.">
<polygon fill="white" stroke="#666666" points="396.49,-19 305.49,-19 305.49,0 396.49,0 396.49,-19"/>
<text text-anchor="middle" x="350.99" y="-7" font-family="Helvetica,sans-Serif" font-size="10.00">fl/namespace.h</text>
</a>
</g>
</g>
<!-- Node1&#45;&gt;Node4 -->
<g id="edge3_Node000001_Node000004" class="edge">
<title>Node1&#45;&gt;Node4</title>
<g id="a_edge3_Node000001_Node000004"><a xlink:title=" ">
<path fill="none" stroke="#63b8ff" d="M159.04,-169.91C230.07,-159.18 430.06,-124.87 467.99,-74 488.49,-46.5 445.89,-29.54 406.47,-20.15"/>
<polygon fill="#63b8ff" stroke="#63b8ff" points="407.08,-16.7 396.56,-17.92 405.55,-23.53 407.08,-16.7"/>
</a>
</g>
</g>
<!-- Node5 -->
<g id="Node000005" class="node">
<title>Node5</title>
<g id="a_Node000005"><a xlink:href="../../d6/d68/vector_8h.html" target="_top" xlink:title=" ">
<polygon fill="white" stroke="#666666" points="198.49,-129 133.49,-129 133.49,-110 198.49,-110 198.49,-129"/>
<text text-anchor="middle" x="165.99" y="-117" font-family="Helvetica,sans-Serif" font-size="10.00">fl/vector.h</text>
</a>
</g>
</g>
<!-- Node1&#45;&gt;Node5 -->
<g id="edge4_Node000001_Node000005" class="edge">
<title>Node1&#45;&gt;Node5</title>
<g id="a_edge4_Node000001_Node000005"><a xlink:title=" ">
<path fill="none" stroke="#63b8ff" d="M139.28,-164.75C143.7,-157.42 150.15,-146.73 155.61,-137.7"/>
<polygon fill="#63b8ff" stroke="#63b8ff" points="158.63,-139.46 160.81,-129.09 152.64,-135.84 158.63,-139.46"/>
</a>
</g>
</g>
<!-- Node5&#45;&gt;Node2 -->
<g id="edge5_Node000005_Node000002" class="edge">
<title>Node5&#45;&gt;Node2</title>
<g id="a_edge5_Node000005_Node000002"><a xlink:title=" ">
<path fill="none" stroke="#63b8ff" d="M145.59,-109.98C124.97,-101.38 92.88,-87.99 69.3,-78.15"/>
<polygon fill="#63b8ff" stroke="#63b8ff" points="70.34,-74.79 59.77,-74.17 67.65,-81.25 70.34,-74.79"/>
</a>
</g>
</g>
<!-- Node5&#45;&gt;Node3 -->
<g id="edge6_Node000005_Node000003" class="edge">
<title>Node5&#45;&gt;Node3</title>
<g id="a_edge6_Node000005_Node000003"><a xlink:title=" ">
<path fill="none" stroke="#63b8ff" d="M151.82,-109.99C139.83,-102.09 123.02,-89.26 112.99,-74 104.1,-60.48 99.25,-42.65 96.67,-29.33"/>
<polygon fill="#63b8ff" stroke="#63b8ff" points="100.11,-28.68 95.01,-19.39 93.21,-29.83 100.11,-28.68"/>
</a>
</g>
</g>
<!-- Node5&#45;&gt;Node4 -->
<g id="edge8_Node000005_Node000004" class="edge">
<title>Node5&#45;&gt;Node4</title>
<g id="a_edge8_Node000005_Node000004"><a xlink:title=" ">
<path fill="none" stroke="#63b8ff" d="M198.66,-118.56C235.56,-116.84 295.13,-108.4 330.99,-74 343.1,-62.38 347.91,-43.52 349.8,-29.36"/>
<polygon fill="#63b8ff" stroke="#63b8ff" points="353.3,-29.54 350.78,-19.25 346.33,-28.87 353.3,-29.54"/>
</a>
</g>
</g>
<!-- Node6 -->
<g id="Node000006" class="node">
<title>Node6</title>
<g id="a_Node000006"><a xlink:href="../../db/d36/inplacenew_8h.html" target="_top" xlink:title=" ">
<polygon fill="white" stroke="#666666" points="458.99,-74 378.99,-74 378.99,-55 458.99,-55 458.99,-74"/>
<text text-anchor="middle" x="418.99" y="-62" font-family="Helvetica,sans-Serif" font-size="10.00">inplacenew.h</text>
</a>
</g>
</g>
<!-- Node5&#45;&gt;Node6 -->
<g id="edge7_Node000005_Node000006" class="edge">
<title>Node5&#45;&gt;Node6</title>
<g id="a_edge7_Node000005_Node000006"><a xlink:title=" ">
<path fill="none" stroke="#63b8ff" d="M198.55,-111.68C241.62,-102.66 317.99,-86.66 368.56,-76.06"/>
<polygon fill="#63b8ff" stroke="#63b8ff" points="369.56,-79.43 378.63,-73.96 368.12,-72.58 369.56,-79.43"/>
</a>
</g>
</g>
<!-- Node7 -->
<g id="Node000007" class="node">
<title>Node7</title>
<g id="a_Node000007"><a xlink:href="../../df/d28/fl_2scoped__ptr_8h.html" target="_top" xlink:title=" ">
<polygon fill="white" stroke="#666666" points="209.49,-74 122.49,-74 122.49,-55 209.49,-55 209.49,-74"/>
<text text-anchor="middle" x="165.99" y="-62" font-family="Helvetica,sans-Serif" font-size="10.00">fl/scoped_ptr.h</text>
</a>
</g>
</g>
<!-- Node5&#45;&gt;Node7 -->
<g id="edge9_Node000005_Node000007" class="edge">
<title>Node5&#45;&gt;Node7</title>
<g id="a_edge9_Node000005_Node000007"><a xlink:title=" ">
<path fill="none" stroke="#63b8ff" d="M165.99,-109.75C165.99,-102.8 165.99,-92.85 165.99,-84.13"/>
<polygon fill="#63b8ff" stroke="#63b8ff" points="169.49,-84.09 165.99,-74.09 162.49,-84.09 169.49,-84.09"/>
</a>
</g>
</g>
<!-- Node8 -->
<g id="Node000008" class="node">
<title>Node8</title>
<g id="a_Node000008"><a xlink:href="../../d1/d22/insert__result_8h.html" target="_top" xlink:title=" ">
<polygon fill="white" stroke="#666666" points="322.49,-74 227.49,-74 227.49,-55 322.49,-55 322.49,-74"/>
<text text-anchor="middle" x="274.99" y="-62" font-family="Helvetica,sans-Serif" font-size="10.00">fl/insert_result.h</text>
</a>
</g>
</g>
<!-- Node5&#45;&gt;Node8 -->
<g id="edge12_Node000005_Node000008" class="edge">
<title>Node5&#45;&gt;Node8</title>
<g id="a_edge12_Node000005_Node000008"><a xlink:title=" ">
<path fill="none" stroke="#63b8ff" d="M183.5,-109.98C200.96,-101.5 228,-88.35 248.16,-78.54"/>
<polygon fill="#63b8ff" stroke="#63b8ff" points="249.7,-81.69 257.16,-74.17 246.64,-75.4 249.7,-81.69"/>
</a>
</g>
</g>
<!-- Node7&#45;&gt;Node3 -->
<g id="edge10_Node000007_Node000003" class="edge">
<title>Node7&#45;&gt;Node3</title>
<g id="a_edge10_Node000007_Node000003"><a xlink:title=" ">
<path fill="none" stroke="#63b8ff" d="M154.42,-54.98C143.57,-47 127.11,-34.88 114.11,-25.31"/>
<polygon fill="#63b8ff" stroke="#63b8ff" points="115.9,-22.28 105.77,-19.17 111.75,-27.92 115.9,-22.28"/>
</a>
</g>
</g>
<!-- Node7&#45;&gt;Node4 -->
<g id="edge11_Node000007_Node000004" class="edge">
<title>Node7&#45;&gt;Node4</title>
<g id="a_edge11_Node000007_Node000004"><a xlink:title=" ">
<path fill="none" stroke="#63b8ff" d="M195.71,-54.98C227.04,-46.01 276.56,-31.82 311.23,-21.89"/>
<polygon fill="#63b8ff" stroke="#63b8ff" points="312.39,-25.2 321.03,-19.08 310.46,-18.47 312.39,-25.2"/>
</a>
</g>
</g>
</g>
</svg>
