<?xml version="1.0" encoding="UTF-8" standalone="no"?>
<!DOCTYPE svg PUBLIC "-//W3C//DTD SVG 1.1//EN"
 "http://www.w3.org/Graphics/SVG/1.1/DTD/svg11.dtd">
<!-- Generated by graphviz version 2.43.0 (0)
 -->
<!-- Title: fl::detail::insertion_sort Pages: 1 -->
<svg width="551pt" height="100pt"
 viewBox="0.00 0.00 551.00 100.00" xmlns="http://www.w3.org/2000/svg" xmlns:xlink="http://www.w3.org/1999/xlink">
<g id="graph0" class="graph" transform="scale(1 1) rotate(0) translate(4 96)">
<title>fl::detail::insertion_sort</title>
<!-- Node1 -->
<g id="Node000001" class="node">
<title>Node1</title>
<g id="a_Node000001"><a xlink:title=" ">
<polygon fill="#999999" stroke="#666666" points="543,-46 414,-46 414,-27 543,-27 543,-46"/>
<text text-anchor="middle" x="478.5" y="-34" font-family="Helvetica,sans-Serif" font-size="10.00">fl::detail::insertion_sort</text>
</a>
</g>
</g>
<!-- Node2 -->
<g id="Node000002" class="node">
<title>Node2</title>
<g id="a_Node000002"><a xlink:href="../../df/d9e/namespacefl_1_1detail_afdaa67dc83e168943ee28a7f9264b40b.html#afdaa67dc83e168943ee28a7f9264b40b" target="_top" xlink:title=" ">
<polygon fill="white" stroke="#666666" points="378,-74 238,-74 238,-55 378,-55 378,-74"/>
<text text-anchor="middle" x="308" y="-62" font-family="Helvetica,sans-Serif" font-size="10.00">fl::detail::mergesort_impl</text>
</a>
</g>
</g>
<!-- Node1&#45;&gt;Node2 -->
<g id="edge1_Node000001_Node000002" class="edge">
<title>Node1&#45;&gt;Node2</title>
<g id="a_edge1_Node000001_Node000002"><a xlink:title=" ">
<path fill="none" stroke="#63b8ff" d="M410.07,-47.71C395.55,-50.12 380.34,-52.64 366.26,-54.99"/>
<polygon fill="#63b8ff" stroke="#63b8ff" points="410.69,-51.15 419.98,-46.06 409.54,-44.24 410.69,-51.15"/>
</a>
</g>
</g>
<!-- Node5 -->
<g id="Node000005" class="node">
<title>Node5</title>
<g id="a_Node000005"><a xlink:href="../../df/d9e/namespacefl_1_1detail_aa2f29333b4122deedbbc32b7b0beb67b.html#aa2f29333b4122deedbbc32b7b0beb67b" target="_top" xlink:title=" ">
<polygon fill="white" stroke="#666666" points="375,-19 241,-19 241,0 375,0 375,-19"/>
<text text-anchor="middle" x="308" y="-7" font-family="Helvetica,sans-Serif" font-size="10.00">fl::detail::quicksort_impl</text>
</a>
</g>
</g>
<!-- Node1&#45;&gt;Node5 -->
<g id="edge5_Node000001_Node000005" class="edge">
<title>Node1&#45;&gt;Node5</title>
<g id="a_edge5_Node000001_Node000005"><a xlink:title=" ">
<path fill="none" stroke="#63b8ff" d="M408.14,-25.39C394.96,-23.27 381.28,-21.08 368.44,-19.02"/>
<polygon fill="#63b8ff" stroke="#63b8ff" points="407.67,-28.85 418.09,-26.98 408.77,-21.94 407.67,-28.85"/>
</a>
</g>
</g>
<!-- Node2&#45;&gt;Node2 -->
<g id="edge2_Node000002_Node000002" class="edge">
<title>Node2&#45;&gt;Node2</title>
<g id="a_edge2_Node000002_Node000002"><a xlink:title=" ">
<path fill="none" stroke="#63b8ff" d="M335.16,-83.19C333.68,-88.2 324.62,-92 308,-92 282.05,-92 274.55,-82.73 285.5,-74.08"/>
<polygon fill="#63b8ff" stroke="#63b8ff" points="338.17,-81.39 330.5,-74.08 331.94,-84.58 338.17,-81.39"/>
</a>
</g>
</g>
<!-- Node3 -->
<g id="Node000003" class="node">
<title>Node3</title>
<g id="a_Node000003"><a xlink:href="../../d4/d36/namespacefl_ac55807b49c5bea2b60e924c234cf1660.html#ac55807b49c5bea2b60e924c234cf1660" target="_top" xlink:title=" ">
<polygon fill="white" stroke="#666666" points="202,-74 119,-74 119,-55 202,-55 202,-74"/>
<text text-anchor="middle" x="160.5" y="-62" font-family="Helvetica,sans-Serif" font-size="10.00">fl::stable_sort</text>
</a>
</g>
</g>
<!-- Node2&#45;&gt;Node3 -->
<g id="edge3_Node000002_Node000003" class="edge">
<title>Node2&#45;&gt;Node3</title>
<g id="a_edge3_Node000002_Node000003"><a xlink:title=" ">
<path fill="none" stroke="#63b8ff" d="M227.41,-64.5C218.7,-64.5 210.13,-64.5 202.19,-64.5"/>
<polygon fill="#63b8ff" stroke="#63b8ff" points="227.66,-68 237.66,-64.5 227.66,-61 227.66,-68"/>
</a>
</g>
</g>
<!-- Node4 -->
<g id="Node000004" class="node">
<title>Node4</title>
<g id="a_Node000004"><a xlink:href="../../d4/d36/namespacefl_a81905e029ac612690a69f2cf9c02f9a1.html#a81905e029ac612690a69f2cf9c02f9a1" target="_top" xlink:title=" ">
<polygon fill="white" stroke="#666666" points="83,-74 0,-74 0,-55 83,-55 83,-74"/>
<text text-anchor="middle" x="41.5" y="-62" font-family="Helvetica,sans-Serif" font-size="10.00">fl::stable_sort</text>
</a>
</g>
</g>
<!-- Node3&#45;&gt;Node4 -->
<g id="edge4_Node000003_Node000004" class="edge">
<title>Node3&#45;&gt;Node4</title>
<g id="a_edge4_Node000003_Node000004"><a xlink:title=" ">
<path fill="none" stroke="#63b8ff" d="M108.91,-64.5C100.25,-64.5 91.37,-64.5 83.02,-64.5"/>
<polygon fill="#63b8ff" stroke="#63b8ff" points="108.91,-68 118.91,-64.5 108.91,-61 108.91,-68"/>
</a>
</g>
</g>
<!-- Node5&#45;&gt;Node5 -->
<g id="edge6_Node000005_Node000005" class="edge">
<title>Node5&#45;&gt;Node5</title>
<g id="a_edge6_Node000005_Node000005"><a xlink:title=" ">
<path fill="none" stroke="#63b8ff" d="M335.16,-28.19C333.68,-33.2 324.62,-37 308,-37 282.05,-37 274.55,-27.73 285.5,-19.08"/>
<polygon fill="#63b8ff" stroke="#63b8ff" points="338.17,-26.39 330.5,-19.08 331.94,-29.58 338.17,-26.39"/>
</a>
</g>
</g>
<!-- Node6 -->
<g id="Node000006" class="node">
<title>Node6</title>
<g id="a_Node000006"><a xlink:href="../../d4/d36/namespacefl_abfdc16d721df0c5970fede0c4e4c04ba.html#abfdc16d721df0c5970fede0c4e4c04ba" target="_top" xlink:title=" ">
<polygon fill="white" stroke="#666666" points="184,-19 137,-19 137,0 184,0 184,-19"/>
<text text-anchor="middle" x="160.5" y="-7" font-family="Helvetica,sans-Serif" font-size="10.00">fl::sort</text>
</a>
</g>
</g>
<!-- Node5&#45;&gt;Node6 -->
<g id="edge7_Node000005_Node000006" class="edge">
<title>Node5&#45;&gt;Node6</title>
<g id="a_edge7_Node000005_Node000006"><a xlink:title=" ">
<path fill="none" stroke="#63b8ff" d="M230.18,-9.5C213.38,-9.5 196.88,-9.5 184.26,-9.5"/>
<polygon fill="#63b8ff" stroke="#63b8ff" points="230.64,-13 240.64,-9.5 230.64,-6 230.64,-13"/>
</a>
</g>
</g>
<!-- Node7 -->
<g id="Node000007" class="node">
<title>Node7</title>
<g id="a_Node000007"><a xlink:href="../../d4/d36/namespacefl_adf614e2e0e1f94ed196d7345a4a1fa96.html#adf614e2e0e1f94ed196d7345a4a1fa96" target="_top" xlink:title=" ">
<polygon fill="white" stroke="#666666" points="65,-19 18,-19 18,0 65,0 65,-19"/>
<text text-anchor="middle" x="41.5" y="-7" font-family="Helvetica,sans-Serif" font-size="10.00">fl::sort</text>
</a>
</g>
</g>
<!-- Node6&#45;&gt;Node7 -->
<g id="edge8_Node000006_Node000007" class="edge">
<title>Node6&#45;&gt;Node7</title>
<g id="a_edge8_Node000006_Node000007"><a xlink:title=" ">
<path fill="none" stroke="#63b8ff" d="M126.93,-9.5C107.35,-9.5 82.93,-9.5 65.39,-9.5"/>
<polygon fill="#63b8ff" stroke="#63b8ff" points="126.94,-13 136.94,-9.5 126.94,-6 126.94,-13"/>
</a>
</g>
</g>
</g>
</svg>
