<?xml version="1.0" encoding="UTF-8" standalone="no"?>
<!DOCTYPE svg PUBLIC "-//W3C//DTD SVG 1.1//EN"
 "http://www.w3.org/Graphics/SVG/1.1/DTD/svg11.dtd">
<!-- Generated by graphviz version 2.43.0 (0)
 -->
<!-- Title: fl::basic_string::begin Pages: 1 -->
<svg width="613pt" height="343pt"
 viewBox="0.00 0.00 613.00 342.50" xmlns="http://www.w3.org/2000/svg" xmlns:xlink="http://www.w3.org/1999/xlink">
<g id="graph0" class="graph" transform="scale(1 1) rotate(0) translate(4 338.5)">
<title>fl::basic_string::begin</title>
<!-- Node1 -->
<g id="Node000001" class="node">
<title>Node1</title>
<g id="a_Node000001"><a xlink:title=" ">
<polygon fill="#999999" stroke="#666666" points="120,-174 0,-174 0,-155 120,-155 120,-174"/>
<text text-anchor="middle" x="60" y="-162" font-family="Helvetica,sans-Serif" font-size="10.00">fl::basic_string::begin</text>
</a>
</g>
</g>
<!-- Node1&#45;&gt;Node1 -->
<g id="edge1_Node000001_Node000001" class="edge">
<title>Node1&#45;&gt;Node1</title>
<g id="a_edge1_Node000001_Node000001"><a xlink:title=" ">
<path fill="none" stroke="#63b8ff" d="M37.81,-174.08C27.01,-182.73 34.41,-192 60,-192 76.4,-192 85.32,-188.2 86.79,-183.19"/>
<polygon fill="#63b8ff" stroke="#63b8ff" points="89.82,-181.44 82.19,-174.08 83.57,-184.59 89.82,-181.44"/>
</a>
</g>
</g>
<!-- Node2 -->
<g id="Node000002" class="node">
<title>Node2</title>
<g id="a_Node000002"><a xlink:href="../../de/d66/classfl_1_1basic__string_aaa2e9d17c12f9064e4cba5c08b4a00cd.html#aaa2e9d17c12f9064e4cba5c08b4a00cd" target="_top" xlink:title=" ">
<polygon fill="white" stroke="#666666" points="254,-179.5 156,-179.5 156,-149.5 254,-149.5 254,-179.5"/>
<text text-anchor="start" x="164" y="-167.5" font-family="Helvetica,sans-Serif" font-size="10.00">fl::basic_string::c</text>
<text text-anchor="middle" x="205" y="-156.5" font-family="Helvetica,sans-Serif" font-size="10.00">_str_mutable</text>
</a>
</g>
</g>
<!-- Node1&#45;&gt;Node2 -->
<g id="edge2_Node000001_Node000002" class="edge">
<title>Node1&#45;&gt;Node2</title>
<g id="a_edge2_Node000001_Node000002"><a xlink:title=" ">
<path fill="none" stroke="#63b8ff" d="M120.4,-164.5C128.8,-164.5 137.43,-164.5 145.81,-164.5"/>
<polygon fill="#63b8ff" stroke="#63b8ff" points="145.87,-168 155.87,-164.5 145.87,-161 145.87,-168"/>
</a>
</g>
</g>
<!-- Node3 -->
<g id="Node000003" class="node">
<title>Node3</title>
<g id="a_Node000003"><a xlink:href="../../de/d66/classfl_1_1basic__string_ab760f9d7335a2653ad300172b1443599.html#ab760f9d7335a2653ad300172b1443599" target="_top" xlink:title=" ">
<polygon fill="white" stroke="#666666" points="429,-316.5 310,-316.5 310,-286.5 429,-286.5 429,-316.5"/>
<text text-anchor="start" x="318" y="-304.5" font-family="Helvetica,sans-Serif" font-size="10.00">fl::basic_string::basic</text>
<text text-anchor="middle" x="369.5" y="-293.5" font-family="Helvetica,sans-Serif" font-size="10.00">_string</text>
</a>
</g>
</g>
<!-- Node2&#45;&gt;Node3 -->
<g id="edge3_Node000002_Node000003" class="edge">
<title>Node2&#45;&gt;Node3</title>
<g id="a_edge3_Node000002_Node000003"><a xlink:title=" ">
<path fill="none" stroke="#63b8ff" d="M213.27,-179.74C225.63,-204.03 253.04,-251.44 290,-277.5 293.31,-279.84 296.86,-281.95 300.54,-283.86"/>
<polygon fill="#63b8ff" stroke="#63b8ff" points="299.39,-287.18 309.94,-288.2 302.33,-280.83 299.39,-287.18"/>
</a>
</g>
</g>
<!-- Node5 -->
<g id="Node000005" class="node">
<title>Node5</title>
<g id="a_Node000005"><a xlink:href="../../da/dc8/classfl_1_1not__null_a12fa45cad9f3c704b7ce56a9f248e318.html#a12fa45cad9f3c704b7ce56a9f248e318" target="_top" xlink:title=" ">
<polygon fill="white" stroke="#666666" points="414,-268 325,-268 325,-249 414,-249 414,-268"/>
<text text-anchor="middle" x="369.5" y="-256" font-family="Helvetica,sans-Serif" font-size="10.00">fl::not_null::get</text>
</a>
</g>
</g>
<!-- Node2&#45;&gt;Node5 -->
<g id="edge6_Node000002_Node000005" class="edge">
<title>Node2&#45;&gt;Node5</title>
<g id="a_edge6_Node000002_Node000005"><a xlink:title=" ">
<path fill="none" stroke="#63b8ff" d="M218.3,-179.54C233.36,-196.94 260.53,-225.14 290,-240.5 297.75,-244.54 306.39,-247.68 315.03,-250.12"/>
<polygon fill="#63b8ff" stroke="#63b8ff" points="314.18,-253.51 324.73,-252.58 315.9,-246.73 314.18,-253.51"/>
</a>
</g>
</g>
<!-- Node6 -->
<g id="Node000006" class="node">
<title>Node6</title>
<g id="a_Node000006"><a xlink:href="../../de/d66/classfl_1_1basic__string_a2f4aa15116686ce9ab44872786bd967c.html#a2f4aa15116686ce9ab44872786bd967c" target="_top" xlink:title=" ">
<polygon fill="white" stroke="#666666" points="449,-231 290,-231 290,-212 449,-212 449,-231"/>
<text text-anchor="middle" x="369.5" y="-219" font-family="Helvetica,sans-Serif" font-size="10.00">fl::basic_string::hasHeapData</text>
</a>
</g>
</g>
<!-- Node2&#45;&gt;Node6 -->
<g id="edge7_Node000002_Node000006" class="edge">
<title>Node2&#45;&gt;Node6</title>
<g id="a_edge7_Node000002_Node000006"><a xlink:title=" ">
<path fill="none" stroke="#63b8ff" d="M242.57,-179.58C257.22,-185.43 274.32,-192.03 290,-197.5 301.34,-201.46 313.73,-205.41 325.24,-208.93"/>
<polygon fill="#63b8ff" stroke="#63b8ff" points="324.5,-212.36 335.08,-211.91 326.52,-205.66 324.5,-212.36"/>
</a>
</g>
</g>
<!-- Node7 -->
<g id="Node000007" class="node">
<title>Node7</title>
<g id="a_Node000007"><a xlink:href="../../de/d66/classfl_1_1basic__string_a746a19f13877e51450e6290f4b135140.html#a746a19f13877e51450e6290f4b135140" target="_top" xlink:title=" ">
<polygon fill="white" stroke="#666666" points="439.5,-155 299.5,-155 299.5,-136 439.5,-136 439.5,-155"/>
<text text-anchor="middle" x="369.5" y="-143" font-family="Helvetica,sans-Serif" font-size="10.00">fl::basic_string::heapData</text>
</a>
</g>
</g>
<!-- Node2&#45;&gt;Node7 -->
<g id="edge8_Node000002_Node000007" class="edge">
<title>Node2&#45;&gt;Node7</title>
<g id="a_edge8_Node000002_Node000007"><a xlink:title=" ">
<path fill="none" stroke="#63b8ff" d="M254.32,-158.85C265.35,-157.56 277.36,-156.16 289.32,-154.76"/>
<polygon fill="#63b8ff" stroke="#63b8ff" points="289.8,-158.23 299.32,-153.59 288.98,-151.27 289.8,-158.23"/>
</a>
</g>
</g>
<!-- Node8 -->
<g id="Node000008" class="node">
<title>Node8</title>
<g id="a_Node000008"><a xlink:href="../../d4/d36/namespacefl_a87ae8a24cc8b709a64f39370e71846af.html#a87ae8a24cc8b709a64f39370e71846af" target="_top" xlink:title=" ">
<polygon fill="white" stroke="#666666" points="592,-178 498,-178 498,-159 592,-159 592,-178"/>
<text text-anchor="middle" x="545" y="-166" font-family="Helvetica,sans-Serif" font-size="10.00">fl::make_shared</text>
</a>
</g>
</g>
<!-- Node2&#45;&gt;Node8 -->
<g id="edge12_Node000002_Node000008" class="edge">
<title>Node2&#45;&gt;Node8</title>
<g id="a_edge12_Node000002_Node000008"><a xlink:title=" ">
<path fill="none" stroke="#63b8ff" d="M254.07,-165.07C315.74,-165.8 422.54,-167.06 487.88,-167.84"/>
<polygon fill="#63b8ff" stroke="#63b8ff" points="487.95,-171.34 497.99,-167.96 488.04,-164.34 487.95,-171.34"/>
</a>
</g>
</g>
<!-- Node9 -->
<g id="Node000009" class="node">
<title>Node9</title>
<g id="a_Node000009"><a xlink:href="../../de/d66/classfl_1_1basic__string_ab069d754c930a7557d1eb72ab925c7db.html#ab069d754c930a7557d1eb72ab925c7db" target="_top" xlink:title=" ">
<polygon fill="white" stroke="#666666" points="605,-122.5 485,-122.5 485,-92.5 605,-92.5 605,-122.5"/>
<text text-anchor="start" x="493" y="-110.5" font-family="Helvetica,sans-Serif" font-size="10.00">fl::basic_string::inline</text>
<text text-anchor="middle" x="545" y="-99.5" font-family="Helvetica,sans-Serif" font-size="10.00">BufferPtr</text>
</a>
</g>
</g>
<!-- Node2&#45;&gt;Node9 -->
<g id="edge10_Node000002_Node000009" class="edge">
<title>Node2&#45;&gt;Node9</title>
<g id="a_edge10_Node000002_Node000009"><a xlink:title=" ">
<path fill="none" stroke="#63b8ff" d="M233.92,-149.36C249.88,-141.44 270.53,-132.4 290,-127.5 351.22,-112.08 423.14,-107.64 474.79,-106.72"/>
<polygon fill="#63b8ff" stroke="#63b8ff" points="474.89,-110.22 484.84,-106.59 474.79,-103.22 474.89,-110.22"/>
</a>
</g>
</g>
<!-- Node10 -->
<g id="Node000010" class="node">
<title>Node10</title>
<g id="a_Node000010"><a xlink:href="../../de/d66/classfl_1_1basic__string_a504b37116b93044654059cacba256510.html#a504b37116b93044654059cacba256510" target="_top" xlink:title=" ">
<polygon fill="white" stroke="#666666" points="444,-79 295,-79 295,-60 444,-60 444,-79"/>
<text text-anchor="middle" x="369.5" y="-67" font-family="Helvetica,sans-Serif" font-size="10.00">fl::basic_string::materialize</text>
</a>
</g>
</g>
<!-- Node2&#45;&gt;Node10 -->
<g id="edge13_Node000002_Node000010" class="edge">
<title>Node2&#45;&gt;Node10</title>
<g id="a_edge13_Node000002_Node000010"><a xlink:title=" ">
<path fill="none" stroke="#63b8ff" d="M220.1,-149.39C235.77,-133.41 262.51,-108.49 290,-93.5 298.18,-89.04 307.3,-85.29 316.34,-82.19"/>
<polygon fill="#63b8ff" stroke="#63b8ff" points="317.63,-85.45 326.08,-79.06 315.49,-78.78 317.63,-85.45"/>
</a>
</g>
</g>
<!-- Node16 -->
<g id="Node000016" class="node">
<title>Node16</title>
<g id="a_Node000016"><a xlink:href="../../d1/d74/classfl_1_1shared__ptr_a3f6d3412883ce69a5eb6f096f6a25385.html#a3f6d3412883ce69a5eb6f096f6a25385" target="_top" xlink:title=" ">
<polygon fill="white" stroke="#666666" points="421.5,-41.5 317.5,-41.5 317.5,-11.5 421.5,-11.5 421.5,-41.5"/>
<text text-anchor="start" x="325.5" y="-29.5" font-family="Helvetica,sans-Serif" font-size="10.00">fl::shared_ptr::use</text>
<text text-anchor="middle" x="369.5" y="-18.5" font-family="Helvetica,sans-Serif" font-size="10.00">_count</text>
</a>
</g>
</g>
<!-- Node2&#45;&gt;Node16 -->
<g id="edge19_Node000002_Node000016" class="edge">
<title>Node2&#45;&gt;Node16</title>
<g id="a_edge19_Node000002_Node000016"><a xlink:title=" ">
<path fill="none" stroke="#63b8ff" d="M213.24,-149.12C225.55,-124.62 252.89,-76.79 290,-50.5 295.47,-46.63 301.58,-43.37 307.91,-40.62"/>
<polygon fill="#63b8ff" stroke="#63b8ff" points="309.24,-43.86 317.29,-36.97 306.7,-37.34 309.24,-43.86"/>
</a>
</g>
</g>
<!-- Node3&#45;&gt;Node3 -->
<g id="edge4_Node000003_Node000003" class="edge">
<title>Node3&#45;&gt;Node3</title>
<g id="a_edge4_Node000003_Node000003"><a xlink:title=" ">
<path fill="none" stroke="#63b8ff" d="M340.67,-316.78C334.27,-325.91 343.88,-334.5 369.5,-334.5 384.71,-334.5 394.28,-331.47 398.21,-327.1"/>
<polygon fill="#63b8ff" stroke="#63b8ff" points="401.71,-326.82 398.33,-316.78 394.71,-326.73 401.71,-326.82"/>
</a>
</g>
</g>
<!-- Node4 -->
<g id="Node000004" class="node">
<title>Node4</title>
<g id="a_Node000004"><a xlink:href="../../de/d66/classfl_1_1basic__string_af4d95d1e9905eb5fb76e12c2c2bd7ebc.html#af4d95d1e9905eb5fb76e12c2c2bd7ebc" target="_top" xlink:title=" ">
<polygon fill="white" stroke="#666666" points="601.5,-311 488.5,-311 488.5,-292 601.5,-292 601.5,-311"/>
<text text-anchor="middle" x="545" y="-299" font-family="Helvetica,sans-Serif" font-size="10.00">fl::basic_string::size</text>
</a>
</g>
</g>
<!-- Node3&#45;&gt;Node4 -->
<g id="edge5_Node000003_Node000004" class="edge">
<title>Node3&#45;&gt;Node4</title>
<g id="a_edge5_Node000003_Node000004"><a xlink:title=" ">
<path fill="none" stroke="#63b8ff" d="M429.24,-301.5C444.88,-301.5 461.89,-301.5 477.9,-301.5"/>
<polygon fill="#63b8ff" stroke="#63b8ff" points="478.25,-305 488.25,-301.5 478.25,-298 478.25,-305"/>
</a>
</g>
</g>
<!-- Node7&#45;&gt;Node8 -->
<g id="edge9_Node000007_Node000008" class="edge">
<title>Node7&#45;&gt;Node8</title>
<g id="a_edge9_Node000007_Node000008"><a xlink:title=" ">
<path fill="none" stroke="#63b8ff" d="M439.57,-154.66C455.46,-156.76 472.18,-158.98 487.47,-161.01"/>
<polygon fill="#63b8ff" stroke="#63b8ff" points="487.43,-164.53 497.8,-162.38 488.35,-157.59 487.43,-164.53"/>
</a>
</g>
</g>
<!-- Node9&#45;&gt;Node9 -->
<g id="edge11_Node000009_Node000009" class="edge">
<title>Node9&#45;&gt;Node9</title>
<g id="a_edge11_Node000009_Node000009"><a xlink:title=" ">
<path fill="none" stroke="#63b8ff" d="M514.41,-122.78C507.62,-131.91 517.81,-140.5 545,-140.5 561.14,-140.5 571.29,-137.47 575.46,-133.1"/>
<polygon fill="#63b8ff" stroke="#63b8ff" points="578.96,-132.82 575.59,-122.78 571.96,-132.73 578.96,-132.82"/>
</a>
</g>
</g>
<!-- Node10&#45;&gt;Node8 -->
<g id="edge17_Node000010_Node000008" class="edge">
<title>Node10&#45;&gt;Node8</title>
<g id="a_edge17_Node000010_Node000008"><a xlink:title=" ">
<path fill="none" stroke="#63b8ff" d="M383.3,-79.17C408.47,-98.07 463.82,-138.99 485,-149.5 489.35,-151.66 494,-153.65 498.71,-155.46"/>
<polygon fill="#63b8ff" stroke="#63b8ff" points="497.78,-158.84 508.38,-158.92 500.14,-152.25 497.78,-158.84"/>
</a>
</g>
</g>
<!-- Node10&#45;&gt;Node9 -->
<g id="edge16_Node000010_Node000009" class="edge">
<title>Node10&#45;&gt;Node9</title>
<g id="a_edge16_Node000010_Node000009"><a xlink:title=" ">
<path fill="none" stroke="#63b8ff" d="M414.28,-79.09C432.66,-83.11 454.47,-87.89 474.92,-92.37"/>
<polygon fill="#63b8ff" stroke="#63b8ff" points="474.31,-95.82 484.83,-94.54 475.81,-88.98 474.31,-95.82"/>
</a>
</g>
</g>
<!-- Node11 -->
<g id="Node000011" class="node">
<title>Node11</title>
<g id="a_Node000011"><a xlink:href="../../de/d66/classfl_1_1basic__string_aa1a0710da50d0c96c08a13f5a0738ca5.html#aa1a0710da50d0c96c08a13f5a0738ca5" target="_top" xlink:title=" ">
<polygon fill="#fff0f0" stroke="red" points="602.5,-19 487.5,-19 487.5,0 602.5,0 602.5,-19"/>
<text text-anchor="middle" x="545" y="-7" font-family="Helvetica,sans-Serif" font-size="10.00">fl::basic_string::data</text>
</a>
</g>
</g>
<!-- Node10&#45;&gt;Node11 -->
<g id="edge14_Node000010_Node000011" class="edge">
<title>Node10&#45;&gt;Node11</title>
<g id="a_edge14_Node000010_Node000011"><a xlink:title=" ">
<path fill="none" stroke="#63b8ff" d="M415.71,-59.95C426.7,-57.24 438.36,-54.05 449,-50.5 471.78,-42.89 496.68,-32.05 515.27,-23.42"/>
<polygon fill="#63b8ff" stroke="#63b8ff" points="516.81,-26.56 524.37,-19.14 513.83,-20.23 516.81,-26.56"/>
</a>
</g>
</g>
<!-- Node15 -->
<g id="Node000015" class="node">
<title>Node15</title>
<g id="a_Node000015"><a xlink:href="../../d4/d36/namespacefl_a0393d1d09fff5bccc427802cc22e756d.html#a0393d1d09fff5bccc427802cc22e756d" target="_top" xlink:title=" ">
<polygon fill="white" stroke="#666666" points="580.5,-74 509.5,-74 509.5,-55 580.5,-55 580.5,-74"/>
<text text-anchor="middle" x="545" y="-62" font-family="Helvetica,sans-Serif" font-size="10.00">fl::memcpy</text>
</a>
</g>
</g>
<!-- Node10&#45;&gt;Node15 -->
<g id="edge18_Node000010_Node000015" class="edge">
<title>Node10&#45;&gt;Node15</title>
<g id="a_edge18_Node000010_Node000015"><a xlink:title=" ">
<path fill="none" stroke="#63b8ff" d="M444.08,-67.38C462.74,-66.84 482.24,-66.28 499,-65.8"/>
<polygon fill="#63b8ff" stroke="#63b8ff" points="499.16,-69.29 509.05,-65.51 498.96,-62.3 499.16,-69.29"/>
</a>
</g>
</g>
<!-- Node11&#45;&gt;Node11 -->
<g id="edge15_Node000011_Node000011" class="edge">
<title>Node11&#45;&gt;Node11</title>
<g id="a_edge15_Node000011_Node000011"><a xlink:title=" ">
<path fill="none" stroke="#63b8ff" d="M518.18,-19.08C505.13,-27.73 514.07,-37 545,-37 565.78,-37 576.63,-32.82 577.56,-27.45"/>
<polygon fill="#63b8ff" stroke="#63b8ff" points="580.36,-25.35 571.82,-19.08 574.59,-29.31 580.36,-25.35"/>
</a>
</g>
</g>
</g>
</svg>
