<?xml version="1.0" encoding="UTF-8" standalone="no"?>
<!DOCTYPE svg PUBLIC "-//W3C//DTD SVG 1.1//EN"
 "http://www.w3.org/Graphics/SVG/1.1/DTD/svg11.dtd">
<!-- Generated by graphviz version 2.43.0 (0)
 -->
<!-- Title: fl::basic_string::reserve Pages: 1 -->
<!--zoomable 160 -->

<svg id="main" version="1.1" xmlns="http://www.w3.org/2000/svg" xmlns:xlink="http://www.w3.org/1999/xlink" xml:space="preserve" onload="init(evt)">

<style type="text/css"><![CDATA[
.node, .edge {opacity: 0.7;}
.node.selected, .edge.selected {opacity: 1;}
.edge:hover path { stroke: red; }
.edge:hover polygon { stroke: red; fill: red; }
]]></style>

<defs>
  <circle id="rim" cx="0" cy="0" r="7"/>
  <circle id="rim2" cx="0" cy="0" r="3.5"/>
  <g id="zoomPlus">
    <use xlink:href="#rim" fill="#404040"><set attributeName="fill" to="#808080" begin="zoomplus.mouseover" end="zoomplus.mouseout"/></use>
    <path d="M-4,0h8M0,-4v8" fill="none" stroke="white" stroke-width="1.5" pointer-events="none"/>
  </g>
  <g id="zoomMin">
    <use xlink:href="#rim" fill="#404040"><set attributeName="fill" to="#808080" begin="zoomminus.mouseover" end="zoomminus.mouseout"/></use>
    <path d="M-4,0h8" fill="none" stroke="white" stroke-width="1.5" pointer-events="none"/>
  </g>
  <g id="arrowUp" transform="translate(30 24)">
    <use xlink:href="#rim"/>
    <path pointer-events="none" fill="none" stroke="white" stroke-width="1.5" d="M0,-3.0v7 M-2.5,-0.5L0,-3.0L2.5,-0.5"/>
  </g>
  <g id="arrowRight" transform="rotate(90) translate(36 -43)">
    <use xlink:href="#rim"/>
    <path pointer-events="none" fill="none" stroke="white" stroke-width="1.5" d="M0,-3.0v7 M-2.5,-0.5L0,-3.0L2.5,-0.5"/>
  </g>
  <g id="arrowDown" transform="rotate(180) translate(-30 -48)">
    <use xlink:href="#rim"/>
    <path pointer-events="none" fill="none" stroke="white" stroke-width="1.5" d="M0,-3.0v7 M-2.5,-0.5L0,-3.0L2.5,-0.5"/>
  </g>
  <g id="arrowLeft" transform="rotate(270) translate(-36 17)">
    <use xlink:href="#rim"/>
    <path pointer-events="none" fill="none" stroke="white" stroke-width="1.5" d="M0,-3.0v7 M-2.5,-0.5L0,-3.0L2.5,-0.5"/>
  </g>
  <g id="resetDef">
    <use xlink:href="#rim2" fill="#404040"><set attributeName="fill" to="#808080" begin="reset.mouseover" end="reset.mouseout"/></use>
  </g>
</defs>
<script type="application/ecmascript">
var viewWidth = 511;
var viewHeight = 160;
var sectionId = 'dynsection-1';
</script>
<script type="application/ecmascript" xlink:href="../../svg.min.js"/>
<svg id="graph" class="graph">
<g id="viewport">
<title>fl::basic_string::reserve</title>
<!-- Node1 -->
<g id="Node000001" class="node">
<title>Node1</title>
<g id="a_Node000001"><a xlink:title=" ">
<polygon fill="#999999" stroke="#666666" points="503,-74 373,-74 373,-55 503,-55 503,-74"/>
<text text-anchor="middle" x="438" y="-62" font-family="Helvetica,sans-Serif" font-size="10.00">fl::basic_string::reserve</text>
</a>
</g>
</g>
<!-- Node2 -->
<g id="Node000002" class="node">
<title>Node2</title>
<g id="a_Node000002"><a xlink:href="../../d4/d36/namespacefl_ad3e42d4adbe2315c61901d31c232be28.html#ad3e42d4adbe2315c61901d31c232be28" target="_top" xlink:title=" ">
<polygon fill="white" stroke="#666666" points="323.5,-126 219.5,-126 219.5,-107 323.5,-107 323.5,-126"/>
<text text-anchor="middle" x="271.5" y="-114" font-family="Helvetica,sans-Serif" font-size="10.00">fl::base64_encode</text>
</a>
</g>
</g>
<!-- Node1&#45;&gt;Node2 -->
<g id="edge1_Node000001_Node000002" class="edge">
<title>Node1&#45;&gt;Node2</title>
<g id="a_edge1_Node000001_Node000002"><a xlink:title=" ">
<path fill="none" stroke="#63b8ff" d="M396.99,-77.15C367.95,-86.33 329.25,-98.56 302.76,-106.93"/>
<polygon fill="#63b8ff" stroke="#63b8ff" points="398.35,-80.39 406.83,-74.04 396.24,-73.71 398.35,-80.39"/>
</a>
</g>
</g>
<!-- Node4 -->
<g id="Node000004" class="node">
<title>Node4</title>
<g id="a_Node000004"><a xlink:href="../../df/d37/classfl_1_1_file_system_a0188b7f45ef58f2bdb3718d3cffbd3f0.html#a0188b7f45ef58f2bdb3718d3cffbd3f0" target="_top" xlink:title=" ">
<polygon fill="white" stroke="#666666" points="337,-74 206,-74 206,-55 337,-55 337,-74"/>
<text text-anchor="middle" x="271.5" y="-62" font-family="Helvetica,sans-Serif" font-size="10.00">fl::FileSystem::readText</text>
</a>
</g>
</g>
<!-- Node1&#45;&gt;Node4 -->
<g id="edge3_Node000001_Node000004" class="edge">
<title>Node1&#45;&gt;Node4</title>
<g id="a_edge3_Node000001_Node000004"><a xlink:title=" ">
<path fill="none" stroke="#63b8ff" d="M362.65,-64.5C354.16,-64.5 345.56,-64.5 337.21,-64.5"/>
<polygon fill="#63b8ff" stroke="#63b8ff" points="362.93,-68 372.93,-64.5 362.93,-61 362.93,-68"/>
</a>
</g>
</g>
<!-- Node8 -->
<g id="Node000008" class="node">
<title>Node8</title>
<g id="a_Node000008"><a xlink:href="../../de/d66/classfl_1_1basic__string_a3f221405927f89e871ec8f3d0ae173ff.html#a3f221405927f89e871ec8f3d0ae173ff" target="_top" xlink:title=" ">
<polygon fill="white" stroke="#666666" points="332.5,-37 210.5,-37 210.5,-18 332.5,-18 332.5,-37"/>
<text text-anchor="middle" x="271.5" y="-25" font-family="Helvetica,sans-Serif" font-size="10.00">fl::basic_string::resize</text>
</a>
</g>
</g>
<!-- Node1&#45;&gt;Node8 -->
<g id="edge7_Node000001_Node000008" class="edge">
<title>Node1&#45;&gt;Node8</title>
<g id="a_edge7_Node000001_Node000008"><a xlink:title=" ">
<path fill="none" stroke="#63b8ff" d="M384.59,-52.71C362.13,-47.66 336.24,-41.84 315,-37.06"/>
<polygon fill="#63b8ff" stroke="#63b8ff" points="384.11,-56.19 394.64,-54.97 385.65,-49.36 384.11,-56.19"/>
</a>
</g>
</g>
<!-- Node3 -->
<g id="Node000003" class="node">
<title>Node3</title>
<g id="a_Node000003"><a xlink:href="../../d5/d63/structfl_1_1detail_1_1_type_to_json_3_01fl_1_1vector_3_01fl_1_1u8_01_4_01_4_a8353ba6c2dc086e0506c8db3e0433f88.html#a8353ba6c2dc086e0506c8db3e0433f88" target="_top" xlink:title=" ">
<polygon fill="white" stroke="#666666" points="143.5,-152 26.5,-152 26.5,-111 143.5,-111 143.5,-152"/>
<text text-anchor="start" x="34.5" y="-140" font-family="Helvetica,sans-Serif" font-size="10.00">fl::detail::TypeToJson</text>
<text text-anchor="start" x="34.5" y="-129" font-family="Helvetica,sans-Serif" font-size="10.00">&lt; fl::vector&lt; fl::u8 &gt;</text>
<text text-anchor="middle" x="85" y="-118" font-family="Helvetica,sans-Serif" font-size="10.00"> &gt;::convert</text>
</a>
</g>
</g>
<!-- Node2&#45;&gt;Node3 -->
<g id="edge2_Node000002_Node000003" class="edge">
<title>Node2&#45;&gt;Node3</title>
<g id="a_edge2_Node000002_Node000003"><a xlink:title=" ">
<path fill="none" stroke="#63b8ff" d="M208.97,-121.5C187.88,-123.22 164.38,-125.13 143.61,-126.82"/>
<polygon fill="#63b8ff" stroke="#63b8ff" points="209.42,-124.98 219.11,-120.68 208.86,-118 209.42,-124.98"/>
</a>
</g>
</g>
<!-- Node5 -->
<g id="Node000005" class="node">
<title>Node5</title>
<g id="a_Node000005"><a xlink:href="../../df/d37/classfl_1_1_file_system_a5e985529e5c616ff32cfe940201ee5f6.html#a5e985529e5c616ff32cfe940201ee5f6" target="_top" xlink:title=" ">
<polygon fill="white" stroke="#666666" points="150.5,-93 19.5,-93 19.5,-74 150.5,-74 150.5,-93"/>
<text text-anchor="middle" x="85" y="-81" font-family="Helvetica,sans-Serif" font-size="10.00">fl::FileSystem::readJson</text>
</a>
</g>
</g>
<!-- Node4&#45;&gt;Node5 -->
<g id="edge4_Node000004_Node000005" class="edge">
<title>Node4&#45;&gt;Node5</title>
<g id="a_edge4_Node000004_Node000005"><a xlink:title=" ">
<path fill="none" stroke="#63b8ff" d="M195.78,-72.2C180.87,-73.73 165.34,-75.33 150.8,-76.83"/>
<polygon fill="#63b8ff" stroke="#63b8ff" points="196.38,-75.65 205.97,-71.15 195.66,-68.69 196.38,-75.65"/>
</a>
</g>
</g>
<!-- Node6 -->
<g id="Node000006" class="node">
<title>Node6</title>
<g id="a_Node000006"><a xlink:href="../../df/d37/classfl_1_1_file_system_a76449b10863a3dee0631213504e817cc.html#a76449b10863a3dee0631213504e817cc" target="_top" xlink:title=" ">
<polygon fill="white" stroke="#666666" points="167,-56 3,-56 3,-37 167,-37 167,-56"/>
<text text-anchor="middle" x="85" y="-44" font-family="Helvetica,sans-Serif" font-size="10.00">fl::FileSystem::readScreenMap</text>
</a>
</g>
</g>
<!-- Node4&#45;&gt;Node6 -->
<g id="edge5_Node000004_Node000006" class="edge">
<title>Node4&#45;&gt;Node6</title>
<g id="a_edge5_Node000004_Node000006"><a xlink:title=" ">
<path fill="none" stroke="#63b8ff" d="M195.81,-57.21C186.34,-56.29 176.61,-55.34 167.04,-54.41"/>
<polygon fill="#63b8ff" stroke="#63b8ff" points="195.68,-60.72 205.97,-58.2 196.36,-53.75 195.68,-60.72"/>
</a>
</g>
</g>
<!-- Node7 -->
<g id="Node000007" class="node">
<title>Node7</title>
<g id="a_Node000007"><a xlink:href="../../df/d37/classfl_1_1_file_system_ad9bf0f8a5e0afcbbb85575c9f8785fc9.html#ad9bf0f8a5e0afcbbb85575c9f8785fc9" target="_top" xlink:title=" ">
<polygon fill="white" stroke="#666666" points="170,-19 0,-19 0,0 170,0 170,-19"/>
<text text-anchor="middle" x="85" y="-7" font-family="Helvetica,sans-Serif" font-size="10.00">fl::FileSystem::readScreenMaps</text>
</a>
</g>
</g>
<!-- Node4&#45;&gt;Node7 -->
<g id="edge6_Node000004_Node000007" class="edge">
<title>Node4&#45;&gt;Node7</title>
<g id="a_edge6_Node000004_Node000007"><a xlink:title=" ">
<path fill="none" stroke="#63b8ff" d="M221.88,-52.01C216.47,-50.31 211.08,-48.46 206,-46.5 189.31,-40.07 186.85,-34.52 170,-28.5 159.58,-24.78 148.17,-21.62 137.2,-19.01"/>
<polygon fill="#63b8ff" stroke="#63b8ff" points="220.98,-55.4 231.57,-54.93 223,-48.7 220.98,-55.4"/>
</a>
</g>
</g>
</g>
</svg>

<g id="navigator" transform="translate(0 0)" fill="#404254">
  <rect fill="#f2f5e9" fill-opacity="0.5" stroke="#606060" stroke-width=".5" x="0" y="0" width="60" height="60"/>
  <use id="zoomplus" xlink:href="#zoomPlus" x="17" y="9" onmousedown="handleZoom(evt,'in')"/>
  <use id="zoomminus" xlink:href="#zoomMin" x="42" y="9" onmousedown="handleZoom(evt,'out')"/>
  <use id="reset" xlink:href="#resetDef" x="30" y="36" onmousedown="handleReset()"/>
   <use id="arrowup" xlink:href="#arrowUp" x="0" y="0" onmousedown="handlePan(0,-1)"/>
  <use id="arrowright" xlink:href="#arrowRight" x="0" y="0" onmousedown="handlePan(1,0)"/>
  <use id="arrowdown" xlink:href="#arrowDown" x="0" y="0" onmousedown="handlePan(0,1)"/>
  <use id="arrowleft" xlink:href="#arrowLeft" x="0" y="0" onmousedown="handlePan(-1,0)"/>
</g>
<svg viewBox="0 0 15 15" width="100%" height="30px" preserveAspectRatio="xMaxYMin meet">
 <g id="arrow_out" transform="scale(0.3 0.3)">
  <a xlink:href="classfl_1_1basic__string_a3177017ec80769a389ba53c0886f5a13_a3177017ec80769a389ba53c0886f5a13_icgraph_org.svg" target="_base">
   <rect id="button" ry="5" rx="5" y="6" x="6" height="38" width="38"
        fill="#f2f5e9" fill-opacity="0.5" stroke="#606060" stroke-width="1.0"/>
   <path id="arrow"
     d="M 11.500037,31.436501 C 11.940474,20.09759 22.043105,11.32322 32.158766,21.979434 L 37.068811,17.246167 C 37.068811,17.246167 37.088388,32 37.088388,32 L 22.160133,31.978069 C 22.160133,31.978069 26.997745,27.140456 26.997745,27.140456 C 18.528582,18.264221 13.291696,25.230495 11.500037,31.436501 z"
     style="fill:#404040;"/>
  </a>
 </g>
</svg>

<style type='text/css'>
<![CDATA[
[data-mouse-over-selected='false'] { opacity: 0.7; }
[data-mouse-over-selected='true']  { opacity: 1.0; }
]]>
</style>
<script type="application/ecmascript"><![CDATA[
document.addEventListener('DOMContentLoaded', (event) => {
  highlightEdges();
  highlightAdjacentNodes();
});
]]></script>
</svg>
