<?xml version="1.0" encoding="UTF-8" standalone="no"?>
<!DOCTYPE svg PUBLIC "-//W3C//DTD SVG 1.1//EN"
 "http://www.w3.org/Graphics/SVG/1.1/DTD/svg11.dtd">
<!-- Generated by graphviz version 2.43.0 (0)
 -->
<!-- Title: fl::basic_string::write Pages: 1 -->
<svg width="583pt" height="146pt"
 viewBox="0.00 0.00 583.00 146.00" xmlns="http://www.w3.org/2000/svg" xmlns:xlink="http://www.w3.org/1999/xlink">
<g id="graph0" class="graph" transform="scale(1 1) rotate(0) translate(4 142)">
<title>fl::basic_string::write</title>
<!-- Node1 -->
<g id="Node000001" class="node">
<title>Node1</title>
<g id="a_Node000001"><a xlink:title=" ">
<polygon fill="#999999" stroke="#666666" points="118,-101 0,-101 0,-82 118,-82 118,-101"/>
<text text-anchor="middle" x="59" y="-89" font-family="Helvetica,sans-Serif" font-size="10.00">fl::basic_string::write</text>
</a>
</g>
</g>
<!-- Node2 -->
<g id="Node000002" class="node">
<title>Node2</title>
<g id="a_Node000002"><a xlink:href="../../d4/d36/namespacefl_a1d32ff7eec824f6eef469828b77853f2.html#a1d32ff7eec824f6eef469828b77853f2" target="_top" xlink:title="Convert signed 32&#45;bit integer to string buffer in given radix.">
<polygon fill="white" stroke="#666666" points="236.5,-138 189.5,-138 189.5,-119 236.5,-119 236.5,-138"/>
<text text-anchor="middle" x="213" y="-126" font-family="Helvetica,sans-Serif" font-size="10.00">fl::itoa</text>
</a>
</g>
</g>
<!-- Node1&#45;&gt;Node2 -->
<g id="edge1_Node000001_Node000002" class="edge">
<title>Node1&#45;&gt;Node2</title>
<g id="a_edge1_Node000001_Node000002"><a xlink:title=" ">
<path fill="none" stroke="#63b8ff" d="M99.14,-101.03C124.12,-107.11 156.11,-114.9 179.65,-120.62"/>
<polygon fill="#63b8ff" stroke="#63b8ff" points="178.95,-124.06 189.49,-123.02 180.6,-117.26 178.95,-124.06"/>
</a>
</g>
</g>
<!-- Node4 -->
<g id="Node000004" class="node">
<title>Node4</title>
<g id="a_Node000004"><a xlink:href="../../d4/d36/namespacefl_a52812500973dd9c7d7c5d662854c3fce.html#a52812500973dd9c7d7c5d662854c3fce" target="_top" xlink:title="Convert unsigned 32&#45;bit integer to string buffer in given radix.">
<polygon fill="white" stroke="#666666" points="244,-101 182,-101 182,-82 244,-82 244,-101"/>
<text text-anchor="middle" x="213" y="-89" font-family="Helvetica,sans-Serif" font-size="10.00">fl::utoa32</text>
</a>
</g>
</g>
<!-- Node1&#45;&gt;Node4 -->
<g id="edge3_Node000001_Node000004" class="edge">
<title>Node1&#45;&gt;Node4</title>
<g id="a_edge3_Node000001_Node000004"><a xlink:title=" ">
<path fill="none" stroke="#63b8ff" d="M118.33,-91.5C136.05,-91.5 155.13,-91.5 171.41,-91.5"/>
<polygon fill="#63b8ff" stroke="#63b8ff" points="171.66,-95 181.66,-91.5 171.66,-88 171.66,-95"/>
</a>
</g>
</g>
<!-- Node5 -->
<g id="Node000005" class="node">
<title>Node5</title>
<g id="a_Node000005"><a xlink:href="../../de/d66/classfl_1_1basic__string_a2ca1f1f1c490bbaf7243398eefb800f2.html#a2ca1f1f1c490bbaf7243398eefb800f2" target="_top" xlink:title=" ">
<polygon fill="white" stroke="#666666" points="272,-46 154,-46 154,-27 272,-27 272,-46"/>
<text text-anchor="middle" x="213" y="-34" font-family="Helvetica,sans-Serif" font-size="10.00">fl::basic_string::write</text>
</a>
</g>
</g>
<!-- Node1&#45;&gt;Node5 -->
<g id="edge4_Node000001_Node000005" class="edge">
<title>Node1&#45;&gt;Node5</title>
<g id="a_edge4_Node000001_Node000005"><a xlink:title=" ">
<path fill="none" stroke="#63b8ff" d="M86.48,-81.92C111.25,-72.96 148.45,-59.49 175.93,-49.55"/>
<polygon fill="#63b8ff" stroke="#63b8ff" points="177.36,-52.76 185.57,-46.06 174.98,-46.17 177.36,-52.76"/>
</a>
</g>
</g>
<!-- Node3 -->
<g id="Node000003" class="node">
<title>Node3</title>
<g id="a_Node000003"><a xlink:href="../../d4/d36/namespacefl_a5e53fda23d9eab83d57f9c9df820c58e.html#a5e53fda23d9eab83d57f9c9df820c58e" target="_top" xlink:title=" ">
<polygon fill="white" stroke="#666666" points="390,-138 341,-138 341,-119 390,-119 390,-138"/>
<text text-anchor="middle" x="365.5" y="-126" font-family="Helvetica,sans-Serif" font-size="10.00">fl::sign</text>
</a>
</g>
</g>
<!-- Node2&#45;&gt;Node3 -->
<g id="edge2_Node000002_Node000003" class="edge">
<title>Node2&#45;&gt;Node3</title>
<g id="a_edge2_Node000002_Node000003"><a xlink:title=" ">
<path fill="none" stroke="#63b8ff" d="M236.53,-128.5C261.51,-128.5 302.06,-128.5 330.81,-128.5"/>
<polygon fill="#63b8ff" stroke="#63b8ff" points="330.82,-132 340.82,-128.5 330.82,-125 330.82,-132"/>
</a>
</g>
</g>
<!-- Node5&#45;&gt;Node5 -->
<g id="edge10_Node000005_Node000005" class="edge">
<title>Node5&#45;&gt;Node5</title>
<g id="a_edge10_Node000005_Node000005"><a xlink:title=" ">
<path fill="none" stroke="#63b8ff" d="M189.57,-46.08C178.18,-54.73 185.98,-64 213,-64 230.73,-64 240.19,-60.01 241.37,-54.82"/>
<polygon fill="#63b8ff" stroke="#63b8ff" points="244.4,-53.06 236.43,-46.08 238.31,-56.51 244.4,-53.06"/>
</a>
</g>
</g>
<!-- Node6 -->
<g id="Node000006" class="node">
<title>Node6</title>
<g id="a_Node000006"><a xlink:href="../../d4/d36/namespacefl_ad2b40cc7124494efca5c352857dabc75.html#ad2b40cc7124494efca5c352857dabc75" target="_top" xlink:title=" ">
<polygon fill="white" stroke="#666666" points="408.5,-74 322.5,-74 322.5,-55 408.5,-55 408.5,-74"/>
<text text-anchor="middle" x="365.5" y="-62" font-family="Helvetica,sans-Serif" font-size="10.00">fl::bit_cast_ptr</text>
</a>
</g>
</g>
<!-- Node5&#45;&gt;Node6 -->
<g id="edge5_Node000005_Node000006" class="edge">
<title>Node5&#45;&gt;Node6</title>
<g id="a_edge5_Node000005_Node000006"><a xlink:title=" ">
<path fill="none" stroke="#63b8ff" d="M265.37,-46.06C280.46,-48.86 296.97,-51.94 312.11,-54.75"/>
<polygon fill="#63b8ff" stroke="#63b8ff" points="311.87,-58.27 322.34,-56.66 313.15,-51.39 311.87,-58.27"/>
</a>
</g>
</g>
<!-- Node9 -->
<g id="Node000009" class="node">
<title>Node9</title>
<g id="a_Node000009"><a xlink:href="../../de/d66/classfl_1_1basic__string_aa1a0710da50d0c96c08a13f5a0738ca5.html#aa1a0710da50d0c96c08a13f5a0738ca5" target="_top" xlink:title=" ">
<polygon fill="white" stroke="#666666" points="423,-19 308,-19 308,0 423,0 423,-19"/>
<text text-anchor="middle" x="365.5" y="-7" font-family="Helvetica,sans-Serif" font-size="10.00">fl::basic_string::data</text>
</a>
</g>
</g>
<!-- Node5&#45;&gt;Node9 -->
<g id="edge7_Node000005_Node000009" class="edge">
<title>Node5&#45;&gt;Node9</title>
<g id="a_edge7_Node000005_Node000009"><a xlink:title=" ">
<path fill="none" stroke="#63b8ff" d="M267.06,-26.98C278.19,-24.98 290.03,-22.86 301.48,-20.81"/>
<polygon fill="#63b8ff" stroke="#63b8ff" points="302.19,-24.24 311.41,-19.02 300.95,-17.35 302.19,-24.24"/>
</a>
</g>
</g>
<!-- Node7 -->
<g id="Node000007" class="node">
<title>Node7</title>
<g id="a_Node000007"><a xlink:href="../../d4/d36/namespacefl_ad200a6a214a70194b7c33fd67af6cea4.html#ad200a6a214a70194b7c33fd67af6cea4" target="_top" xlink:title=" ">
<polygon fill="#fff0f0" stroke="red" points="550.5,-74 483.5,-74 483.5,-55 550.5,-55 550.5,-74"/>
<text text-anchor="middle" x="517" y="-62" font-family="Helvetica,sans-Serif" font-size="10.00">fl::bit_cast</text>
</a>
</g>
</g>
<!-- Node6&#45;&gt;Node7 -->
<g id="edge6_Node000006_Node000007" class="edge">
<title>Node6&#45;&gt;Node7</title>
<g id="a_edge6_Node000006_Node000007"><a xlink:title=" ">
<path fill="none" stroke="#63b8ff" d="M408.54,-64.5C428.69,-64.5 452.79,-64.5 473.06,-64.5"/>
<polygon fill="#63b8ff" stroke="#63b8ff" points="473.27,-68 483.27,-64.5 473.27,-61 473.27,-68"/>
</a>
</g>
</g>
<!-- Node9&#45;&gt;Node9 -->
<g id="edge9_Node000009_Node000009" class="edge">
<title>Node9&#45;&gt;Node9</title>
<g id="a_edge9_Node000009_Node000009"><a xlink:title=" ">
<path fill="none" stroke="#63b8ff" d="M342.38,-19.08C331.13,-27.73 338.84,-37 365.5,-37 383,-37 392.33,-33.01 393.5,-27.82"/>
<polygon fill="#63b8ff" stroke="#63b8ff" points="396.55,-26.11 388.62,-19.08 390.44,-29.52 396.55,-26.11"/>
</a>
</g>
</g>
<!-- Node10 -->
<g id="Node000010" class="node">
<title>Node10</title>
<g id="a_Node000010"><a xlink:href="../../de/d66/classfl_1_1basic__string_adc70863b5a29972d3e45c5e5b31e6686.html#adc70863b5a29972d3e45c5e5b31e6686" target="_top" xlink:title=" ">
<polygon fill="#fff0f0" stroke="red" points="575,-19 459,-19 459,0 575,0 575,-19"/>
<text text-anchor="middle" x="517" y="-7" font-family="Helvetica,sans-Serif" font-size="10.00">fl::basic_string::c_str</text>
</a>
</g>
</g>
<!-- Node9&#45;&gt;Node10 -->
<g id="edge8_Node000009_Node000010" class="edge">
<title>Node9&#45;&gt;Node10</title>
<g id="a_edge8_Node000009_Node000010"><a xlink:title=" ">
<path fill="none" stroke="#63b8ff" d="M423.02,-9.5C431.46,-9.5 440.23,-9.5 448.86,-9.5"/>
<polygon fill="#63b8ff" stroke="#63b8ff" points="448.9,-13 458.9,-9.5 448.9,-6 448.9,-13"/>
</a>
</g>
</g>
</g>
</svg>
