<?xml version="1.0" encoding="UTF-8" standalone="no"?>
<!DOCTYPE svg PUBLIC "-//W3C//DTD SVG 1.1//EN"
 "http://www.w3.org/Graphics/SVG/1.1/DTD/svg11.dtd">
<!-- Generated by graphviz version 2.43.0 (0)
 -->
<!-- Title: fl::basic_string::write Pages: 1 -->
<!--zoomable 166 -->

<svg id="main" version="1.1" xmlns="http://www.w3.org/2000/svg" xmlns:xlink="http://www.w3.org/1999/xlink" xml:space="preserve" onload="init(evt)">

<style type="text/css"><![CDATA[
.node, .edge {opacity: 0.7;}
.node.selected, .edge.selected {opacity: 1;}
.edge:hover path { stroke: red; }
.edge:hover polygon { stroke: red; fill: red; }
]]></style>

<defs>
  <circle id="rim" cx="0" cy="0" r="7"/>
  <circle id="rim2" cx="0" cy="0" r="3.5"/>
  <g id="zoomPlus">
    <use xlink:href="#rim" fill="#404040"><set attributeName="fill" to="#808080" begin="zoomplus.mouseover" end="zoomplus.mouseout"/></use>
    <path d="M-4,0h8M0,-4v8" fill="none" stroke="white" stroke-width="1.5" pointer-events="none"/>
  </g>
  <g id="zoomMin">
    <use xlink:href="#rim" fill="#404040"><set attributeName="fill" to="#808080" begin="zoomminus.mouseover" end="zoomminus.mouseout"/></use>
    <path d="M-4,0h8" fill="none" stroke="white" stroke-width="1.5" pointer-events="none"/>
  </g>
  <g id="arrowUp" transform="translate(30 24)">
    <use xlink:href="#rim"/>
    <path pointer-events="none" fill="none" stroke="white" stroke-width="1.5" d="M0,-3.0v7 M-2.5,-0.5L0,-3.0L2.5,-0.5"/>
  </g>
  <g id="arrowRight" transform="rotate(90) translate(36 -43)">
    <use xlink:href="#rim"/>
    <path pointer-events="none" fill="none" stroke="white" stroke-width="1.5" d="M0,-3.0v7 M-2.5,-0.5L0,-3.0L2.5,-0.5"/>
  </g>
  <g id="arrowDown" transform="rotate(180) translate(-30 -48)">
    <use xlink:href="#rim"/>
    <path pointer-events="none" fill="none" stroke="white" stroke-width="1.5" d="M0,-3.0v7 M-2.5,-0.5L0,-3.0L2.5,-0.5"/>
  </g>
  <g id="arrowLeft" transform="rotate(270) translate(-36 17)">
    <use xlink:href="#rim"/>
    <path pointer-events="none" fill="none" stroke="white" stroke-width="1.5" d="M0,-3.0v7 M-2.5,-0.5L0,-3.0L2.5,-0.5"/>
  </g>
  <g id="resetDef">
    <use xlink:href="#rim2" fill="#404040"><set attributeName="fill" to="#808080" begin="reset.mouseover" end="reset.mouseout"/></use>
  </g>
</defs>
<script type="application/ecmascript">
var viewWidth = 721;
var viewHeight = 166;
var sectionId = 'dynsection-0';
</script>
<script type="application/ecmascript" xlink:href="../../svg.min.js"/>
<svg id="graph" class="graph">
<g id="viewport">
<title>fl::basic_string::write</title>
<!-- Node1 -->
<g id="Node000001" class="node">
<title>Node1</title>
<g id="a_Node000001"><a xlink:title=" ">
<polygon fill="#999999" stroke="#666666" points="118,-102 0,-102 0,-83 118,-83 118,-102"/>
<text text-anchor="middle" x="59" y="-90" font-family="Helvetica,sans-Serif" font-size="10.00">fl::basic_string::write</text>
</a>
</g>
</g>
<!-- Node1&#45;&gt;Node1 -->
<g id="edge14_Node000001_Node000001" class="edge">
<title>Node1&#45;&gt;Node1</title>
<g id="a_edge14_Node000001_Node000001"><a xlink:title=" ">
<path fill="none" stroke="#63b8ff" d="M35.57,-102.08C24.18,-110.73 31.98,-120 59,-120 76.73,-120 86.19,-116.01 87.37,-110.82"/>
<polygon fill="#63b8ff" stroke="#63b8ff" points="90.4,-109.06 82.43,-102.08 84.31,-112.51 90.4,-109.06"/>
</a>
</g>
</g>
<!-- Node2 -->
<g id="Node000002" class="node">
<title>Node2</title>
<g id="a_Node000002"><a xlink:href="../../d4/d36/namespacefl_ad2b40cc7124494efca5c352857dabc75.html#ad2b40cc7124494efca5c352857dabc75" target="_top" xlink:title=" ">
<polygon fill="white" stroke="#666666" points="254.5,-144 168.5,-144 168.5,-125 254.5,-125 254.5,-144"/>
<text text-anchor="middle" x="211.5" y="-132" font-family="Helvetica,sans-Serif" font-size="10.00">fl::bit_cast_ptr</text>
</a>
</g>
</g>
<!-- Node1&#45;&gt;Node2 -->
<g id="edge1_Node000001_Node000002" class="edge">
<title>Node1&#45;&gt;Node2</title>
<g id="a_edge1_Node000001_Node000002"><a xlink:title=" ">
<path fill="none" stroke="#63b8ff" d="M94.15,-102.03C115.53,-108 143.3,-115.75 166.34,-122.18"/>
<polygon fill="#63b8ff" stroke="#63b8ff" points="165.65,-125.62 176.22,-124.93 167.53,-118.88 165.65,-125.62"/>
</a>
</g>
</g>
<!-- Node5 -->
<g id="Node000005" class="node">
<title>Node5</title>
<g id="a_Node000005"><a xlink:href="../../de/d66/classfl_1_1basic__string_aa1a0710da50d0c96c08a13f5a0738ca5.html#aa1a0710da50d0c96c08a13f5a0738ca5" target="_top" xlink:title=" ">
<polygon fill="white" stroke="#666666" points="269,-75 154,-75 154,-56 269,-56 269,-75"/>
<text text-anchor="middle" x="211.5" y="-63" font-family="Helvetica,sans-Serif" font-size="10.00">fl::basic_string::data</text>
</a>
</g>
</g>
<!-- Node1&#45;&gt;Node5 -->
<g id="edge4_Node000001_Node000005" class="edge">
<title>Node1&#45;&gt;Node5</title>
<g id="a_edge4_Node000001_Node000005"><a xlink:title=" ">
<path fill="none" stroke="#63b8ff" d="M113.06,-82.98C124.19,-80.98 136.03,-78.86 147.48,-76.81"/>
<polygon fill="#63b8ff" stroke="#63b8ff" points="148.19,-80.24 157.41,-75.02 146.95,-73.35 148.19,-80.24"/>
</a>
</g>
</g>
<!-- Node3 -->
<g id="Node000003" class="node">
<title>Node3</title>
<g id="a_Node000003"><a xlink:href="../../d4/d36/namespacefl_ad200a6a214a70194b7c33fd67af6cea4.html#ad200a6a214a70194b7c33fd67af6cea4" target="_top" xlink:title=" ">
<polygon fill="white" stroke="#666666" points="396.5,-158 329.5,-158 329.5,-139 396.5,-139 396.5,-158"/>
<text text-anchor="middle" x="363" y="-146" font-family="Helvetica,sans-Serif" font-size="10.00">fl::bit_cast</text>
</a>
</g>
</g>
<!-- Node2&#45;&gt;Node3 -->
<g id="edge2_Node000002_Node000003" class="edge">
<title>Node2&#45;&gt;Node3</title>
<g id="a_edge2_Node000002_Node000003"><a xlink:title=" ">
<path fill="none" stroke="#63b8ff" d="M254.54,-138.44C274.69,-140.32 298.79,-142.58 319.06,-144.48"/>
<polygon fill="#63b8ff" stroke="#63b8ff" points="318.99,-147.99 329.27,-145.43 319.64,-141.02 318.99,-147.99"/>
</a>
</g>
</g>
<!-- Node4 -->
<g id="Node000004" class="node">
<title>Node4</title>
<g id="a_Node000004"><a xlink:href="../../d4/d36/namespacefl_a0393d1d09fff5bccc427802cc22e756d.html#a0393d1d09fff5bccc427802cc22e756d" target="_top" xlink:title=" ">
<polygon fill="white" stroke="#666666" points="713,-142 642,-142 642,-123 713,-123 713,-142"/>
<text text-anchor="middle" x="677.5" y="-130" font-family="Helvetica,sans-Serif" font-size="10.00">fl::memcpy</text>
</a>
</g>
</g>
<!-- Node3&#45;&gt;Node4 -->
<g id="edge3_Node000003_Node000004" class="edge">
<title>Node3&#45;&gt;Node4</title>
<g id="a_edge3_Node000003_Node000004"><a xlink:title=" ">
<path fill="none" stroke="#63b8ff" d="M396.56,-146.83C452.68,-143.96 567.74,-138.07 631.49,-134.8"/>
<polygon fill="#63b8ff" stroke="#63b8ff" points="631.83,-138.29 641.64,-134.28 631.47,-131.3 631.83,-138.29"/>
</a>
</g>
</g>
<!-- Node5&#45;&gt;Node5 -->
<g id="edge13_Node000005_Node000005" class="edge">
<title>Node5&#45;&gt;Node5</title>
<g id="a_edge13_Node000005_Node000005"><a xlink:title=" ">
<path fill="none" stroke="#63b8ff" d="M188.38,-75.08C177.13,-83.73 184.84,-93 211.5,-93 229,-93 238.33,-89.01 239.5,-83.82"/>
<polygon fill="#63b8ff" stroke="#63b8ff" points="242.55,-82.11 234.62,-75.08 236.44,-85.52 242.55,-82.11"/>
</a>
</g>
</g>
<!-- Node6 -->
<g id="Node000006" class="node">
<title>Node6</title>
<g id="a_Node000006"><a xlink:href="../../de/d66/classfl_1_1basic__string_adc70863b5a29972d3e45c5e5b31e6686.html#adc70863b5a29972d3e45c5e5b31e6686" target="_top" xlink:title=" ">
<polygon fill="white" stroke="#666666" points="421,-65 305,-65 305,-46 421,-46 421,-65"/>
<text text-anchor="middle" x="363" y="-53" font-family="Helvetica,sans-Serif" font-size="10.00">fl::basic_string::c_str</text>
</a>
</g>
</g>
<!-- Node5&#45;&gt;Node6 -->
<g id="edge5_Node000005_Node000006" class="edge">
<title>Node5&#45;&gt;Node6</title>
<g id="a_edge5_Node000005_Node000006"><a xlink:title=" ">
<path fill="none" stroke="#63b8ff" d="M269.02,-61.72C277.46,-61.15 286.23,-60.57 294.86,-59.99"/>
<polygon fill="#63b8ff" stroke="#63b8ff" points="295.16,-63.48 304.9,-59.32 294.69,-56.49 295.16,-63.48"/>
</a>
</g>
</g>
<!-- Node7 -->
<g id="Node000007" class="node">
<title>Node7</title>
<g id="a_Node000007"><a xlink:href="../../de/d66/classfl_1_1basic__string_ab760f9d7335a2653ad300172b1443599.html#ab760f9d7335a2653ad300172b1443599" target="_top" xlink:title=" ">
<polygon fill="#fff0f0" stroke="red" points="591,-67.5 472,-67.5 472,-37.5 591,-37.5 591,-67.5"/>
<text text-anchor="start" x="480" y="-55.5" font-family="Helvetica,sans-Serif" font-size="10.00">fl::basic_string::basic</text>
<text text-anchor="middle" x="531.5" y="-44.5" font-family="Helvetica,sans-Serif" font-size="10.00">_string</text>
</a>
</g>
</g>
<!-- Node6&#45;&gt;Node7 -->
<g id="edge6_Node000006_Node000007" class="edge">
<title>Node6&#45;&gt;Node7</title>
<g id="a_edge6_Node000006_Node000007"><a xlink:title=" ">
<path fill="none" stroke="#63b8ff" d="M421.3,-54.47C434.34,-54.23 448.33,-53.98 461.79,-53.74"/>
<polygon fill="#63b8ff" stroke="#63b8ff" points="462.03,-57.23 471.96,-53.55 461.9,-50.24 462.03,-57.23"/>
</a>
</g>
</g>
<!-- Node9 -->
<g id="Node000009" class="node">
<title>Node9</title>
<g id="a_Node000009"><a xlink:href="../../de/d66/classfl_1_1basic__string_ad8cf512fb8663f75c77312c6fab902ad.html#ad8cf512fb8663f75c77312c6fab902ad" target="_top" xlink:title=" ">
<polygon fill="#fff0f0" stroke="red" points="603,-19 460,-19 460,0 603,0 603,-19"/>
<text text-anchor="middle" x="531.5" y="-7" font-family="Helvetica,sans-Serif" font-size="10.00">fl::basic_string::constData</text>
</a>
</g>
</g>
<!-- Node6&#45;&gt;Node9 -->
<g id="edge8_Node000006_Node000009" class="edge">
<title>Node6&#45;&gt;Node9</title>
<g id="a_edge8_Node000006_Node000009"><a xlink:title=" ">
<path fill="none" stroke="#63b8ff" d="M396.21,-45.89C414.09,-40.63 436.73,-34.06 457,-28.5 465.31,-26.22 474.18,-23.86 482.77,-21.62"/>
<polygon fill="#63b8ff" stroke="#63b8ff" points="483.87,-24.95 492.67,-19.05 482.12,-18.17 483.87,-24.95"/>
</a>
</g>
</g>
<!-- Node12 -->
<g id="Node000012" class="node">
<title>Node12</title>
<g id="a_Node000012"><a xlink:href="../../de/d66/classfl_1_1basic__string_a504b37116b93044654059cacba256510.html#a504b37116b93044654059cacba256510" target="_top" xlink:title=" ">
<polygon fill="#fff0f0" stroke="red" points="606,-123 457,-123 457,-104 606,-104 606,-123"/>
<text text-anchor="middle" x="531.5" y="-111" font-family="Helvetica,sans-Serif" font-size="10.00">fl::basic_string::materialize</text>
</a>
</g>
</g>
<!-- Node6&#45;&gt;Node12 -->
<g id="edge10_Node000006_Node000012" class="edge">
<title>Node6&#45;&gt;Node12</title>
<g id="a_edge10_Node000006_Node000012"><a xlink:title=" ">
<path fill="none" stroke="#63b8ff" d="M384.36,-65.04C402.98,-73.53 431.45,-85.89 457,-94.5 464.21,-96.93 471.9,-99.23 479.5,-101.33"/>
<polygon fill="#63b8ff" stroke="#63b8ff" points="478.81,-104.77 489.37,-103.98 480.62,-98.01 478.81,-104.77"/>
</a>
</g>
</g>
<!-- Node7&#45;&gt;Node7 -->
<g id="edge7_Node000007_Node000007" class="edge">
<title>Node7&#45;&gt;Node7</title>
<g id="a_edge7_Node000007_Node000007"><a xlink:title=" ">
<path fill="none" stroke="#63b8ff" d="M505.84,-67.78C500.13,-76.91 508.69,-85.5 531.5,-85.5 545.04,-85.5 553.56,-82.47 557.06,-78.1"/>
<polygon fill="#63b8ff" stroke="#63b8ff" points="560.56,-77.81 557.16,-67.78 553.56,-77.74 560.56,-77.81"/>
</a>
</g>
</g>
<!-- Node9&#45;&gt;Node5 -->
<g id="edge9_Node000009_Node000005" class="edge">
<title>Node9&#45;&gt;Node5</title>
<g id="a_edge9_Node000009_Node000005"><a xlink:title=" ">
<path fill="none" stroke="#63b8ff" d="M459.9,-15.15C415.19,-19.49 356.33,-26.63 305,-37.5 286.51,-41.42 266.39,-47.31 249.65,-52.67"/>
<polygon fill="#63b8ff" stroke="#63b8ff" points="248.12,-49.49 239.7,-55.93 250.3,-56.14 248.12,-49.49"/>
</a>
</g>
</g>
<!-- Node12&#45;&gt;Node4 -->
<g id="edge12_Node000012_Node000004" class="edge">
<title>Node12&#45;&gt;Node4</title>
<g id="a_edge12_Node000012_Node000004"><a xlink:title=" ">
<path fill="none" stroke="#63b8ff" d="M604.92,-123.06C614.08,-124.26 623.24,-125.47 631.79,-126.6"/>
<polygon fill="#63b8ff" stroke="#63b8ff" points="631.5,-130.09 641.88,-127.93 632.42,-123.15 631.5,-130.09"/>
</a>
</g>
</g>
<!-- Node12&#45;&gt;Node5 -->
<g id="edge11_Node000012_Node000005" class="edge">
<title>Node12&#45;&gt;Node5</title>
<g id="a_edge11_Node000012_Node000005"><a xlink:title=" ">
<path fill="none" stroke="#63b8ff" d="M467.32,-103.96C412.98,-95.76 334.82,-83.96 279.42,-75.6"/>
<polygon fill="#63b8ff" stroke="#63b8ff" points="279.76,-72.11 269.35,-74.08 278.72,-79.03 279.76,-72.11"/>
</a>
</g>
</g>
</g>
</svg>

<g id="navigator" transform="translate(0 0)" fill="#404254">
  <rect fill="#f2f5e9" fill-opacity="0.5" stroke="#606060" stroke-width=".5" x="0" y="0" width="60" height="60"/>
  <use id="zoomplus" xlink:href="#zoomPlus" x="17" y="9" onmousedown="handleZoom(evt,'in')"/>
  <use id="zoomminus" xlink:href="#zoomMin" x="42" y="9" onmousedown="handleZoom(evt,'out')"/>
  <use id="reset" xlink:href="#resetDef" x="30" y="36" onmousedown="handleReset()"/>
   <use id="arrowup" xlink:href="#arrowUp" x="0" y="0" onmousedown="handlePan(0,-1)"/>
  <use id="arrowright" xlink:href="#arrowRight" x="0" y="0" onmousedown="handlePan(1,0)"/>
  <use id="arrowdown" xlink:href="#arrowDown" x="0" y="0" onmousedown="handlePan(0,1)"/>
  <use id="arrowleft" xlink:href="#arrowLeft" x="0" y="0" onmousedown="handlePan(-1,0)"/>
</g>
<svg viewBox="0 0 15 15" width="100%" height="30px" preserveAspectRatio="xMaxYMin meet">
 <g id="arrow_out" transform="scale(0.3 0.3)">
  <a xlink:href="classfl_1_1basic__string_a2ca1f1f1c490bbaf7243398eefb800f2_a2ca1f1f1c490bbaf7243398eefb800f2_cgraph_org.svg" target="_base">
   <rect id="button" ry="5" rx="5" y="6" x="6" height="38" width="38"
        fill="#f2f5e9" fill-opacity="0.5" stroke="#606060" stroke-width="1.0"/>
   <path id="arrow"
     d="M 11.500037,31.436501 C 11.940474,20.09759 22.043105,11.32322 32.158766,21.979434 L 37.068811,17.246167 C 37.068811,17.246167 37.088388,32 37.088388,32 L 22.160133,31.978069 C 22.160133,31.978069 26.997745,27.140456 26.997745,27.140456 C 18.528582,18.264221 13.291696,25.230495 11.500037,31.436501 z"
     style="fill:#404040;"/>
  </a>
 </g>
</svg>

<style type='text/css'>
<![CDATA[
[data-mouse-over-selected='false'] { opacity: 0.7; }
[data-mouse-over-selected='true']  { opacity: 1.0; }
]]>
</style>
<script type="application/ecmascript"><![CDATA[
document.addEventListener('DOMContentLoaded', (event) => {
  highlightEdges();
  highlightAdjacentNodes();
});
]]></script>
</svg>
