<?xml version="1.0" encoding="UTF-8" standalone="no"?>
<!DOCTYPE svg PUBLIC "-//W3C//DTD SVG 1.1//EN"
 "http://www.w3.org/Graphics/SVG/1.1/DTD/svg11.dtd">
<!-- Generated by graphviz version 2.43.0 (0)
 -->
<!-- Title: fl::basic_string::rfind Pages: 1 -->
<svg width="611pt" height="131pt"
 viewBox="0.00 0.00 611.00 130.50" xmlns="http://www.w3.org/2000/svg" xmlns:xlink="http://www.w3.org/1999/xlink">
<g id="graph0" class="graph" transform="scale(1 1) rotate(0) translate(4 126.5)">
<title>fl::basic_string::rfind</title>
<!-- Node1 -->
<g id="Node000001" class="node">
<title>Node1</title>
<g id="a_Node000001"><a xlink:title=" ">
<polygon fill="#999999" stroke="#666666" points="115,-37 0,-37 0,-18 115,-18 115,-37"/>
<text text-anchor="middle" x="57.5" y="-25" font-family="Helvetica,sans-Serif" font-size="10.00">fl::basic_string::rfind</text>
</a>
</g>
</g>
<!-- Node2 -->
<g id="Node000002" class="node">
<title>Node2</title>
<g id="a_Node000002"><a xlink:href="../../de/d66/classfl_1_1basic__string_ae8ea2b9f6926f912ba6f49575e7ed482.html#ae8ea2b9f6926f912ba6f49575e7ed482" target="_top" xlink:title=" ">
<polygon fill="white" stroke="#666666" points="266,-56 151,-56 151,-37 266,-37 266,-56"/>
<text text-anchor="middle" x="208.5" y="-44" font-family="Helvetica,sans-Serif" font-size="10.00">fl::basic_string::rfind</text>
</a>
</g>
</g>
<!-- Node1&#45;&gt;Node2 -->
<g id="edge1_Node000001_Node000002" class="edge">
<title>Node1&#45;&gt;Node2</title>
<g id="a_edge1_Node000001_Node000002"><a xlink:title=" ">
<path fill="none" stroke="#63b8ff" d="M115.26,-34.74C123.65,-35.81 132.36,-36.92 140.93,-38.01"/>
<polygon fill="#63b8ff" stroke="#63b8ff" points="140.54,-41.49 150.9,-39.28 141.43,-34.55 140.54,-41.49"/>
</a>
</g>
</g>
<!-- Node13 -->
<g id="Node000013" class="node">
<title>Node13</title>
<g id="a_Node000013"><a xlink:href="../../d4/d36/namespacefl_a2b133338a142a6ec52750f65eb3a33e5.html#a2b133338a142a6ec52750f65eb3a33e5" target="_top" xlink:title=" ">
<polygon fill="white" stroke="#666666" points="236.5,-19 180.5,-19 180.5,0 236.5,0 236.5,-19"/>
<text text-anchor="middle" x="208.5" y="-7" font-family="Helvetica,sans-Serif" font-size="10.00">fl::strlen</text>
</a>
</g>
</g>
<!-- Node1&#45;&gt;Node13 -->
<g id="edge7_Node000001_Node000013" class="edge">
<title>Node1&#45;&gt;Node13</title>
<g id="a_edge7_Node000001_Node000013"><a xlink:title=" ">
<path fill="none" stroke="#63b8ff" d="M115.26,-20.64C133.61,-18.43 153.48,-16.03 170.07,-14.02"/>
<polygon fill="#63b8ff" stroke="#63b8ff" points="170.93,-17.44 180.44,-12.77 170.09,-10.49 170.93,-17.44"/>
</a>
</g>
</g>
<!-- Node3 -->
<g id="Node000003" class="node">
<title>Node3</title>
<g id="a_Node000003"><a xlink:href="../../de/d66/classfl_1_1basic__string_adc70863b5a29972d3e45c5e5b31e6686.html#adc70863b5a29972d3e45c5e5b31e6686" target="_top" xlink:title=" ">
<polygon fill="white" stroke="#666666" points="418,-56 302,-56 302,-37 418,-37 418,-56"/>
<text text-anchor="middle" x="360" y="-44" font-family="Helvetica,sans-Serif" font-size="10.00">fl::basic_string::c_str</text>
</a>
</g>
</g>
<!-- Node2&#45;&gt;Node3 -->
<g id="edge2_Node000002_Node000003" class="edge">
<title>Node2&#45;&gt;Node3</title>
<g id="a_edge2_Node000002_Node000003"><a xlink:title=" ">
<path fill="none" stroke="#63b8ff" d="M266.02,-46.5C274.46,-46.5 283.23,-46.5 291.86,-46.5"/>
<polygon fill="#63b8ff" stroke="#63b8ff" points="291.9,-50 301.9,-46.5 291.9,-43 291.9,-50"/>
</a>
</g>
</g>
<!-- Node4 -->
<g id="Node000004" class="node">
<title>Node4</title>
<g id="a_Node000004"><a xlink:href="../../de/d66/classfl_1_1basic__string_ab760f9d7335a2653ad300172b1443599.html#ab760f9d7335a2653ad300172b1443599" target="_top" xlink:title=" ">
<polygon fill="#fff0f0" stroke="red" points="588,-104.5 469,-104.5 469,-74.5 588,-74.5 588,-104.5"/>
<text text-anchor="start" x="477" y="-92.5" font-family="Helvetica,sans-Serif" font-size="10.00">fl::basic_string::basic</text>
<text text-anchor="middle" x="528.5" y="-81.5" font-family="Helvetica,sans-Serif" font-size="10.00">_string</text>
</a>
</g>
</g>
<!-- Node3&#45;&gt;Node4 -->
<g id="edge3_Node000003_Node000004" class="edge">
<title>Node3&#45;&gt;Node4</title>
<g id="a_edge3_Node000003_Node000004"><a xlink:title=" ">
<path fill="none" stroke="#63b8ff" d="M397.95,-56.04C416.06,-60.72 438.46,-66.51 459.52,-71.94"/>
<polygon fill="#63b8ff" stroke="#63b8ff" points="458.84,-75.38 469.39,-74.49 460.59,-68.6 458.84,-75.38"/>
</a>
</g>
</g>
<!-- Node6 -->
<g id="Node000006" class="node">
<title>Node6</title>
<g id="a_Node000006"><a xlink:href="../../de/d66/classfl_1_1basic__string_ad8cf512fb8663f75c77312c6fab902ad.html#ad8cf512fb8663f75c77312c6fab902ad" target="_top" xlink:title=" ">
<polygon fill="#fff0f0" stroke="red" points="600,-56 457,-56 457,-37 600,-37 600,-56"/>
<text text-anchor="middle" x="528.5" y="-44" font-family="Helvetica,sans-Serif" font-size="10.00">fl::basic_string::constData</text>
</a>
</g>
</g>
<!-- Node3&#45;&gt;Node6 -->
<g id="edge5_Node000003_Node000006" class="edge">
<title>Node3&#45;&gt;Node6</title>
<g id="a_edge5_Node000003_Node000006"><a xlink:title=" ">
<path fill="none" stroke="#63b8ff" d="M418.3,-46.5C427.52,-46.5 437.2,-46.5 446.84,-46.5"/>
<polygon fill="#63b8ff" stroke="#63b8ff" points="446.85,-50 456.85,-46.5 446.85,-43 446.85,-50"/>
</a>
</g>
</g>
<!-- Node10 -->
<g id="Node000010" class="node">
<title>Node10</title>
<g id="a_Node000010"><a xlink:href="../../de/d66/classfl_1_1basic__string_a504b37116b93044654059cacba256510.html#a504b37116b93044654059cacba256510" target="_top" xlink:title=" ">
<polygon fill="#fff0f0" stroke="red" points="603,-19 454,-19 454,0 603,0 603,-19"/>
<text text-anchor="middle" x="528.5" y="-7" font-family="Helvetica,sans-Serif" font-size="10.00">fl::basic_string::materialize</text>
</a>
</g>
</g>
<!-- Node3&#45;&gt;Node10 -->
<g id="edge6_Node000003_Node000010" class="edge">
<title>Node3&#45;&gt;Node10</title>
<g id="a_edge6_Node000003_Node000010"><a xlink:title=" ">
<path fill="none" stroke="#63b8ff" d="M403.88,-36.97C425.45,-32.18 451.79,-26.32 474.61,-21.25"/>
<polygon fill="#63b8ff" stroke="#63b8ff" points="475.48,-24.65 484.48,-19.06 473.96,-17.81 475.48,-24.65"/>
</a>
</g>
</g>
<!-- Node4&#45;&gt;Node4 -->
<g id="edge4_Node000004_Node000004" class="edge">
<title>Node4&#45;&gt;Node4</title>
<g id="a_edge4_Node000004_Node000004"><a xlink:title=" ">
<path fill="none" stroke="#63b8ff" d="M498.97,-104.78C492.41,-113.91 502.25,-122.5 528.5,-122.5 544.09,-122.5 553.89,-119.47 557.91,-115.1"/>
<polygon fill="#63b8ff" stroke="#63b8ff" points="561.41,-114.82 558.03,-104.78 554.41,-114.73 561.41,-114.82"/>
</a>
</g>
</g>
</g>
</svg>
