<?xml version="1.0" encoding="UTF-8" standalone="no"?>
<!DOCTYPE svg PUBLIC "-//W3C//DTD SVG 1.1//EN"
 "http://www.w3.org/Graphics/SVG/1.1/DTD/svg11.dtd">
<!-- Generated by graphviz version 2.43.0 (0)
 -->
<!-- Title: fl::basic_string::moveFrom Pages: 1 -->
<svg width="459pt" height="197pt"
 viewBox="0.00 0.00 459.00 196.50" xmlns="http://www.w3.org/2000/svg" xmlns:xlink="http://www.w3.org/1999/xlink">

<svg id="main" version="1.1" xmlns="http://www.w3.org/2000/svg" xmlns:xlink="http://www.w3.org/1999/xlink" xml:space="preserve">

<style type="text/css"><![CDATA[
.node, .edge {opacity: 0.7;}
.node.selected, .edge.selected {opacity: 1;}
.edge:hover path { stroke: red; }
.edge:hover polygon { stroke: red; fill: red; }
]]></style>
<script type="application/ecmascript" xlink:href="../../svg.min.js"/>
<svg id="graph" class="graph">
<g id="graph0" class="graph" transform="scale(1 1) rotate(0) translate(4 192.5)">
<title>fl::basic_string::moveFrom</title>
<!-- Node1 -->
<g id="Node000001" class="node">
<title>Node1</title>
<g id="a_Node000001"><a xlink:title=" ">
<polygon fill="#999999" stroke="#666666" points="146,-77 0,-77 0,-58 146,-58 146,-77"/>
<text text-anchor="middle" x="73" y="-65" font-family="Helvetica,sans-Serif" font-size="10.00">fl::basic_string::moveFrom</text>
</a>
</g>
</g>
<!-- Node2 -->
<g id="Node000002" class="node">
<title>Node2</title>
<g id="a_Node000002"><a xlink:href="../../de/d66/classfl_1_1basic__string_ab760f9d7335a2653ad300172b1443599.html#ab760f9d7335a2653ad300172b1443599" target="_top" xlink:title=" ">
<polygon fill="white" stroke="#666666" points="301.5,-170.5 182.5,-170.5 182.5,-140.5 301.5,-140.5 301.5,-170.5"/>
<text text-anchor="start" x="190.5" y="-158.5" font-family="Helvetica,sans-Serif" font-size="10.00">fl::basic_string::basic</text>
<text text-anchor="middle" x="242" y="-147.5" font-family="Helvetica,sans-Serif" font-size="10.00">_string</text>
</a>
</g>
</g>
<!-- Node1&#45;&gt;Node2 -->
<g id="edge1_Node000001_Node000002" class="edge">
<title>Node1&#45;&gt;Node2</title>
<g id="a_edge1_Node000001_Node000002"><a xlink:title=" ">
<path fill="none" stroke="#63b8ff" d="M88.63,-77.12C109.04,-90.32 147.44,-114.35 182,-131.5 185.32,-133.15 188.77,-134.77 192.28,-136.35"/>
<polygon fill="#63b8ff" stroke="#63b8ff" points="191.04,-139.63 201.6,-140.43 193.84,-133.22 191.04,-139.63"/>
</a>
</g>
</g>
<!-- Node4 -->
<g id="Node000004" class="node">
<title>Node4</title>
<g id="a_Node000004"><a xlink:href="../../de/d66/classfl_1_1basic__string_ab069d754c930a7557d1eb72ab925c7db.html#ab069d754c930a7557d1eb72ab925c7db" target="_top" xlink:title=" ">
<polygon fill="white" stroke="#666666" points="302,-104.5 182,-104.5 182,-74.5 302,-74.5 302,-104.5"/>
<text text-anchor="start" x="190" y="-92.5" font-family="Helvetica,sans-Serif" font-size="10.00">fl::basic_string::inline</text>
<text text-anchor="middle" x="242" y="-81.5" font-family="Helvetica,sans-Serif" font-size="10.00">BufferPtr</text>
</a>
</g>
</g>
<!-- Node1&#45;&gt;Node4 -->
<g id="edge4_Node000001_Node000004" class="edge">
<title>Node1&#45;&gt;Node4</title>
<g id="a_edge4_Node000001_Node000004"><a xlink:title=" ">
<path fill="none" stroke="#63b8ff" d="M146.28,-77.02C154.74,-78.14 163.35,-79.27 171.77,-80.38"/>
<polygon fill="#63b8ff" stroke="#63b8ff" points="171.55,-83.88 181.92,-81.72 172.46,-76.94 171.55,-83.88"/>
</a>
</g>
</g>
<!-- Node5 -->
<g id="Node000005" class="node">
<title>Node5</title>
<g id="a_Node000005"><a xlink:href="../../d4/d36/namespacefl_a0393d1d09fff5bccc427802cc22e756d.html#a0393d1d09fff5bccc427802cc22e756d" target="_top" xlink:title=" ">
<polygon fill="white" stroke="#666666" points="277.5,-56 206.5,-56 206.5,-37 277.5,-37 277.5,-56"/>
<text text-anchor="middle" x="242" y="-44" font-family="Helvetica,sans-Serif" font-size="10.00">fl::memcpy</text>
</a>
</g>
</g>
<!-- Node1&#45;&gt;Node5 -->
<g id="edge6_Node000001_Node000005" class="edge">
<title>Node1&#45;&gt;Node5</title>
<g id="a_edge6_Node000001_Node000005"><a xlink:title=" ">
<path fill="none" stroke="#63b8ff" d="M146.28,-58.41C163.18,-56.29 180.71,-54.08 196.02,-52.16"/>
<polygon fill="#63b8ff" stroke="#63b8ff" points="196.75,-55.59 206.24,-50.87 195.88,-48.65 196.75,-55.59"/>
</a>
</g>
</g>
<!-- Node6 -->
<g id="Node000006" class="node">
<title>Node6</title>
<g id="a_Node000006"><a xlink:href="../../da/d3c/namespacefl_1_1fl_a14315b21314f12a4c40dde841fcc4c8a.html#a14315b21314f12a4c40dde841fcc4c8a" target="_top" xlink:title=" ">
<polygon fill="white" stroke="#666666" points="276,-19 208,-19 208,0 276,0 276,-19"/>
<text text-anchor="middle" x="242" y="-7" font-family="Helvetica,sans-Serif" font-size="10.00">fl::fl::move</text>
</a>
</g>
</g>
<!-- Node1&#45;&gt;Node6 -->
<g id="edge7_Node000001_Node000006" class="edge">
<title>Node1&#45;&gt;Node6</title>
<g id="a_edge7_Node000001_Node000006"><a xlink:title=" ">
<path fill="none" stroke="#63b8ff" d="M99.66,-57.95C121.49,-49.89 153.7,-38.16 182,-28.5 188.08,-26.42 194.54,-24.28 200.86,-22.22"/>
<polygon fill="#63b8ff" stroke="#63b8ff" points="202.18,-25.47 210.61,-19.06 200.02,-18.81 202.18,-25.47"/>
</a>
</g>
</g>
<!-- Node2&#45;&gt;Node2 -->
<g id="edge2_Node000002_Node000002" class="edge">
<title>Node2&#45;&gt;Node2</title>
<g id="a_edge2_Node000002_Node000002"><a xlink:title=" ">
<path fill="none" stroke="#63b8ff" d="M215.28,-170.78C209.34,-179.91 218.25,-188.5 242,-188.5 256.1,-188.5 264.97,-185.47 268.61,-181.1"/>
<polygon fill="#63b8ff" stroke="#63b8ff" points="272.11,-180.81 268.72,-170.78 265.11,-180.74 272.11,-180.81"/>
</a>
</g>
</g>
<!-- Node3 -->
<g id="Node000003" class="node">
<title>Node3</title>
<g id="a_Node000003"><a xlink:href="../../de/d66/classfl_1_1basic__string_af4d95d1e9905eb5fb76e12c2c2bd7ebc.html#af4d95d1e9905eb5fb76e12c2c2bd7ebc" target="_top" xlink:title=" ">
<polygon fill="white" stroke="#666666" points="451,-165 338,-165 338,-146 451,-146 451,-165"/>
<text text-anchor="middle" x="394.5" y="-153" font-family="Helvetica,sans-Serif" font-size="10.00">fl::basic_string::size</text>
</a>
</g>
</g>
<!-- Node2&#45;&gt;Node3 -->
<g id="edge3_Node000002_Node000003" class="edge">
<title>Node2&#45;&gt;Node3</title>
<g id="a_edge3_Node000002_Node000003"><a xlink:title=" ">
<path fill="none" stroke="#63b8ff" d="M301.62,-155.5C310.16,-155.5 319,-155.5 327.68,-155.5"/>
<polygon fill="#63b8ff" stroke="#63b8ff" points="327.75,-159 337.75,-155.5 327.75,-152 327.75,-159"/>
</a>
</g>
</g>
<!-- Node4&#45;&gt;Node4 -->
<g id="edge5_Node000004_Node000004" class="edge">
<title>Node4&#45;&gt;Node4</title>
<g id="a_edge5_Node000004_Node000004"><a xlink:title=" ">
<path fill="none" stroke="#63b8ff" d="M215.28,-104.78C209.34,-113.91 218.25,-122.5 242,-122.5 256.1,-122.5 264.97,-119.47 268.61,-115.1"/>
<polygon fill="#63b8ff" stroke="#63b8ff" points="272.11,-114.81 268.72,-104.78 265.11,-114.74 272.11,-114.81"/>
</a>
</g>
</g>
</g>
</svg>
</svg>

<style type='text/css'>
<![CDATA[
[data-mouse-over-selected='false'] { opacity: 0.7; }
[data-mouse-over-selected='true']  { opacity: 1.0; }
]]>
</style>
<script type="application/ecmascript"><![CDATA[
document.addEventListener('DOMContentLoaded', (event) => {
  highlightEdges();
  highlightAdjacentNodes();
});
]]></script>
</svg>
