<?xml version="1.0" encoding="UTF-8" standalone="no"?>
<!DOCTYPE svg PUBLIC "-//W3C//DTD SVG 1.1//EN"
 "http://www.w3.org/Graphics/SVG/1.1/DTD/svg11.dtd">
<!-- Generated by graphviz version 2.43.0 (0)
 -->
<!-- Title: fl::basic_string::find Pages: 1 -->
<svg width="767pt" height="260pt"
 viewBox="0.00 0.00 767.00 260.00" xmlns="http://www.w3.org/2000/svg" xmlns:xlink="http://www.w3.org/1999/xlink">
<g id="graph0" class="graph" transform="scale(1 1) rotate(0) translate(4 256)">
<title>fl::basic_string::find</title>
<!-- Node1 -->
<g id="Node000001" class="node">
<title>Node1</title>
<g id="a_Node000001"><a xlink:title=" ">
<polygon fill="#999999" stroke="#666666" points="111,-138 0,-138 0,-119 111,-119 111,-138"/>
<text text-anchor="middle" x="55.5" y="-126" font-family="Helvetica,sans-Serif" font-size="10.00">fl::basic_string::find</text>
</a>
</g>
</g>
<!-- Node2 -->
<g id="Node000002" class="node">
<title>Node2</title>
<g id="a_Node000002"><a xlink:href="../../de/d66/classfl_1_1basic__string_ab760f9d7335a2653ad300172b1443599.html#ab760f9d7335a2653ad300172b1443599" target="_top" xlink:title=" ">
<polygon fill="white" stroke="#666666" points="580,-181.5 461,-181.5 461,-151.5 580,-151.5 580,-181.5"/>
<text text-anchor="start" x="469" y="-169.5" font-family="Helvetica,sans-Serif" font-size="10.00">fl::basic_string::basic</text>
<text text-anchor="middle" x="520.5" y="-158.5" font-family="Helvetica,sans-Serif" font-size="10.00">_string</text>
</a>
</g>
</g>
<!-- Node1&#45;&gt;Node2 -->
<g id="edge1_Node000001_Node000002" class="edge">
<title>Node1&#45;&gt;Node2</title>
<g id="a_edge1_Node000001_Node000002"><a xlink:title=" ">
<path fill="none" stroke="#63b8ff" d="M98.2,-138.09C113.47,-141.26 130.95,-144.48 147,-146.5 252.41,-159.74 375.67,-164.23 450.63,-165.74"/>
<polygon fill="#63b8ff" stroke="#63b8ff" points="450.82,-169.24 460.88,-165.93 450.95,-162.24 450.82,-169.24"/>
</a>
</g>
</g>
<!-- Node4 -->
<g id="Node000004" class="node">
<title>Node4</title>
<g id="a_Node000004"><a xlink:href="../../de/d66/classfl_1_1basic__string_adc70863b5a29972d3e45c5e5b31e6686.html#adc70863b5a29972d3e45c5e5b31e6686" target="_top" xlink:title=" ">
<polygon fill="white" stroke="#666666" points="410,-108 294,-108 294,-89 410,-89 410,-108"/>
<text text-anchor="middle" x="352" y="-96" font-family="Helvetica,sans-Serif" font-size="10.00">fl::basic_string::c_str</text>
</a>
</g>
</g>
<!-- Node1&#45;&gt;Node4 -->
<g id="edge4_Node000001_Node000004" class="edge">
<title>Node1&#45;&gt;Node4</title>
<g id="a_edge4_Node000001_Node000004"><a xlink:title=" ">
<path fill="none" stroke="#63b8ff" d="M95.48,-118.95C111.36,-115.42 129.97,-111.73 147,-109.5 192.29,-103.56 243.64,-100.81 283.49,-99.55"/>
<polygon fill="#63b8ff" stroke="#63b8ff" points="283.74,-103.04 293.63,-99.25 283.53,-96.05 283.74,-103.04"/>
</a>
</g>
</g>
<!-- Node12 -->
<g id="Node000012" class="node">
<title>Node12</title>
<g id="a_Node000012"><a xlink:href="../../de/d66/classfl_1_1basic__string_a8cd84151a13a11e97e0edbad6de0ef1b.html#a8cd84151a13a11e97e0edbad6de0ef1b" target="_top" xlink:title=" ">
<polygon fill="white" stroke="#666666" points="258,-138 147,-138 147,-119 258,-119 258,-138"/>
<text text-anchor="middle" x="202.5" y="-126" font-family="Helvetica,sans-Serif" font-size="10.00">fl::basic_string::find</text>
</a>
</g>
</g>
<!-- Node1&#45;&gt;Node12 -->
<g id="edge18_Node000001_Node000012" class="edge">
<title>Node1&#45;&gt;Node12</title>
<g id="a_edge18_Node000001_Node000012"><a xlink:title=" ">
<path fill="none" stroke="#63b8ff" d="M111.32,-128.5C119.53,-128.5 128.06,-128.5 136.46,-128.5"/>
<polygon fill="#63b8ff" stroke="#63b8ff" points="136.6,-132 146.6,-128.5 136.6,-125 136.6,-132"/>
</a>
</g>
</g>
<!-- Node2&#45;&gt;Node2 -->
<g id="edge2_Node000002_Node000002" class="edge">
<title>Node2&#45;&gt;Node2</title>
<g id="a_edge2_Node000002_Node000002"><a xlink:title=" ">
<path fill="none" stroke="#63b8ff" d="M490.97,-181.78C484.41,-190.91 494.25,-199.5 520.5,-199.5 536.09,-199.5 545.89,-196.47 549.91,-192.1"/>
<polygon fill="#63b8ff" stroke="#63b8ff" points="553.41,-191.82 550.03,-181.78 546.41,-191.73 553.41,-191.82"/>
</a>
</g>
</g>
<!-- Node3 -->
<g id="Node000003" class="node">
<title>Node3</title>
<g id="a_Node000003"><a xlink:href="../../de/d66/classfl_1_1basic__string_af4d95d1e9905eb5fb76e12c2c2bd7ebc.html#af4d95d1e9905eb5fb76e12c2c2bd7ebc" target="_top" xlink:title=" ">
<polygon fill="white" stroke="#666666" points="751.5,-252 638.5,-252 638.5,-233 751.5,-233 751.5,-252"/>
<text text-anchor="middle" x="695" y="-240" font-family="Helvetica,sans-Serif" font-size="10.00">fl::basic_string::size</text>
</a>
</g>
</g>
<!-- Node2&#45;&gt;Node3 -->
<g id="edge3_Node000002_Node000003" class="edge">
<title>Node2&#45;&gt;Node3</title>
<g id="a_edge3_Node000002_Node000003"><a xlink:title=" ">
<path fill="none" stroke="#63b8ff" d="M546.44,-181.65C568.18,-194.37 600.87,-212.37 631,-224.5 635.76,-226.42 640.8,-228.21 645.86,-229.88"/>
<polygon fill="#63b8ff" stroke="#63b8ff" points="645,-233.28 655.59,-232.91 647.08,-226.59 645,-233.28"/>
</a>
</g>
</g>
<!-- Node4&#45;&gt;Node2 -->
<g id="edge5_Node000004_Node000002" class="edge">
<title>Node4&#45;&gt;Node2</title>
<g id="a_edge5_Node000004_Node000002"><a xlink:title=" ">
<path fill="none" stroke="#63b8ff" d="M376.5,-108.1C401.52,-118.32 441.76,-134.75 473.19,-147.59"/>
<polygon fill="#63b8ff" stroke="#63b8ff" points="472.05,-150.9 482.64,-151.44 474.7,-144.42 472.05,-150.9"/>
</a>
</g>
</g>
<!-- Node5 -->
<g id="Node000005" class="node">
<title>Node5</title>
<g id="a_Node000005"><a xlink:href="../../de/d66/classfl_1_1basic__string_ad8cf512fb8663f75c77312c6fab902ad.html#ad8cf512fb8663f75c77312c6fab902ad" target="_top" xlink:title=" ">
<polygon fill="white" stroke="#666666" points="592,-77 449,-77 449,-58 592,-58 592,-77"/>
<text text-anchor="middle" x="520.5" y="-65" font-family="Helvetica,sans-Serif" font-size="10.00">fl::basic_string::constData</text>
</a>
</g>
</g>
<!-- Node4&#45;&gt;Node5 -->
<g id="edge6_Node000004_Node000005" class="edge">
<title>Node4&#45;&gt;Node5</title>
<g id="a_edge6_Node000004_Node000005"><a xlink:title=" ">
<path fill="none" stroke="#63b8ff" d="M404.31,-88.95C421.33,-85.78 440.44,-82.22 458.13,-78.93"/>
<polygon fill="#63b8ff" stroke="#63b8ff" points="459.16,-82.29 468.36,-77.02 457.88,-75.41 459.16,-82.29"/>
</a>
</g>
</g>
<!-- Node9 -->
<g id="Node000009" class="node">
<title>Node9</title>
<g id="a_Node000009"><a xlink:href="../../de/d66/classfl_1_1basic__string_a504b37116b93044654059cacba256510.html#a504b37116b93044654059cacba256510" target="_top" xlink:title=" ">
<polygon fill="white" stroke="#666666" points="595,-117 446,-117 446,-98 595,-98 595,-117"/>
<text text-anchor="middle" x="520.5" y="-105" font-family="Helvetica,sans-Serif" font-size="10.00">fl::basic_string::materialize</text>
</a>
</g>
</g>
<!-- Node4&#45;&gt;Node9 -->
<g id="edge13_Node000004_Node000009" class="edge">
<title>Node4&#45;&gt;Node9</title>
<g id="a_edge13_Node000004_Node000009"><a xlink:title=" ">
<path fill="none" stroke="#63b8ff" d="M410.3,-101.6C418.55,-102.04 427.17,-102.51 435.81,-102.98"/>
<polygon fill="#63b8ff" stroke="#63b8ff" points="435.75,-106.48 445.92,-103.52 436.13,-99.49 435.75,-106.48"/>
</a>
</g>
</g>
<!-- Node6 -->
<g id="Node000006" class="node">
<title>Node6</title>
<g id="a_Node000006"><a xlink:href="../../de/d66/classfl_1_1basic__string_aa1a0710da50d0c96c08a13f5a0738ca5.html#aa1a0710da50d0c96c08a13f5a0738ca5" target="_top" xlink:title=" ">
<polygon fill="white" stroke="#666666" points="752.5,-19 637.5,-19 637.5,0 752.5,0 752.5,-19"/>
<text text-anchor="middle" x="695" y="-7" font-family="Helvetica,sans-Serif" font-size="10.00">fl::basic_string::data</text>
</a>
</g>
</g>
<!-- Node5&#45;&gt;Node6 -->
<g id="edge7_Node000005_Node000006" class="edge">
<title>Node5&#45;&gt;Node6</title>
<g id="a_edge7_Node000005_Node000006"><a xlink:title=" ">
<path fill="none" stroke="#63b8ff" d="M549.98,-57.92C578.83,-48.23 623.61,-33.17 655.58,-22.42"/>
<polygon fill="#63b8ff" stroke="#63b8ff" points="657.11,-25.6 665.47,-19.09 654.88,-18.96 657.11,-25.6"/>
</a>
</g>
</g>
<!-- Node7 -->
<g id="Node000007" class="node">
<title>Node7</title>
<g id="a_Node000007"><a xlink:href="../../de/d66/classfl_1_1basic__string_ab069d754c930a7557d1eb72ab925c7db.html#ab069d754c930a7557d1eb72ab925c7db" target="_top" xlink:title=" ">
<polygon fill="white" stroke="#666666" points="755,-122.5 635,-122.5 635,-92.5 755,-92.5 755,-122.5"/>
<text text-anchor="start" x="643" y="-110.5" font-family="Helvetica,sans-Serif" font-size="10.00">fl::basic_string::inline</text>
<text text-anchor="middle" x="695" y="-99.5" font-family="Helvetica,sans-Serif" font-size="10.00">BufferPtr</text>
</a>
</g>
</g>
<!-- Node5&#45;&gt;Node7 -->
<g id="edge10_Node000005_Node000007" class="edge">
<title>Node5&#45;&gt;Node7</title>
<g id="a_edge10_Node000005_Node000007"><a xlink:title=" ">
<path fill="none" stroke="#63b8ff" d="M562.82,-77.08C581.4,-81.39 603.85,-86.6 624.88,-91.47"/>
<polygon fill="#63b8ff" stroke="#63b8ff" points="624.22,-94.91 634.75,-93.76 625.8,-88.09 624.22,-94.91"/>
</a>
</g>
</g>
<!-- Node8 -->
<g id="Node000008" class="node">
<title>Node8</title>
<g id="a_Node000008"><a xlink:href="../../de/d66/classfl_1_1basic__string_a200eb5a16645bf60a46bf1aec11a661a.html#a200eb5a16645bf60a46bf1aec11a661a" target="_top" xlink:title=" ">
<polygon fill="white" stroke="#666666" points="759,-74 631,-74 631,-55 759,-55 759,-74"/>
<text text-anchor="middle" x="695" y="-62" font-family="Helvetica,sans-Serif" font-size="10.00">fl::basic_string::isInline</text>
</a>
</g>
</g>
<!-- Node5&#45;&gt;Node8 -->
<g id="edge12_Node000005_Node000008" class="edge">
<title>Node5&#45;&gt;Node8</title>
<g id="a_edge12_Node000005_Node000008"><a xlink:title=" ">
<path fill="none" stroke="#63b8ff" d="M592.16,-66.27C601.59,-66.11 611.28,-65.94 620.75,-65.77"/>
<polygon fill="#63b8ff" stroke="#63b8ff" points="620.98,-69.27 630.92,-65.6 620.86,-62.27 620.98,-69.27"/>
</a>
</g>
</g>
<!-- Node6&#45;&gt;Node4 -->
<g id="edge8_Node000006_Node000004" class="edge">
<title>Node6&#45;&gt;Node4</title>
<g id="a_edge8_Node000006_Node000004"><a xlink:title=" ">
<path fill="none" stroke="#63b8ff" d="M637.31,-12.97C586.19,-17.36 509.51,-27.13 446,-48.5 420.7,-57.01 394.09,-72.02 375.85,-83.38"/>
<polygon fill="#63b8ff" stroke="#63b8ff" points="373.68,-80.61 367.12,-88.93 377.44,-86.51 373.68,-80.61"/>
</a>
</g>
</g>
<!-- Node6&#45;&gt;Node6 -->
<g id="edge9_Node000006_Node000006" class="edge">
<title>Node6&#45;&gt;Node6</title>
<g id="a_edge9_Node000006_Node000006"><a xlink:title=" ">
<path fill="none" stroke="#63b8ff" d="M668.18,-19.08C655.13,-27.73 664.07,-37 695,-37 715.78,-37 726.63,-32.82 727.56,-27.45"/>
<polygon fill="#63b8ff" stroke="#63b8ff" points="730.36,-25.35 721.82,-19.08 724.59,-29.31 730.36,-25.35"/>
</a>
</g>
</g>
<!-- Node7&#45;&gt;Node7 -->
<g id="edge11_Node000007_Node000007" class="edge">
<title>Node7&#45;&gt;Node7</title>
<g id="a_edge11_Node000007_Node000007"><a xlink:title=" ">
<path fill="none" stroke="#63b8ff" d="M664.41,-122.78C657.62,-131.91 667.81,-140.5 695,-140.5 711.14,-140.5 721.29,-137.47 725.46,-133.1"/>
<polygon fill="#63b8ff" stroke="#63b8ff" points="728.96,-132.82 725.59,-122.78 721.96,-132.73 728.96,-132.82"/>
</a>
</g>
</g>
<!-- Node9&#45;&gt;Node6 -->
<g id="edge14_Node000009_Node000006" class="edge">
<title>Node9&#45;&gt;Node6</title>
<g id="a_edge14_Node000009_Node000006"><a xlink:title=" ">
<path fill="none" stroke="#63b8ff" d="M567.5,-97.95C577.02,-94.84 586.67,-90.77 595,-85.5 615.21,-72.71 612.38,-60.51 631,-45.5 641.27,-37.22 653.67,-29.69 664.75,-23.69"/>
<polygon fill="#63b8ff" stroke="#63b8ff" points="666.43,-26.76 673.67,-19.02 663.18,-20.56 666.43,-26.76"/>
</a>
</g>
</g>
<!-- Node9&#45;&gt;Node7 -->
<g id="edge15_Node000009_Node000007" class="edge">
<title>Node9&#45;&gt;Node7</title>
<g id="a_edge15_Node000009_Node000007"><a xlink:title=" ">
<path fill="none" stroke="#63b8ff" d="M595.16,-107.5C605.01,-107.5 615.09,-107.5 624.86,-107.5"/>
<polygon fill="#63b8ff" stroke="#63b8ff" points="624.92,-111 634.92,-107.5 624.92,-104 624.92,-111"/>
</a>
</g>
</g>
<!-- Node10 -->
<g id="Node000010" class="node">
<title>Node10</title>
<g id="a_Node000010"><a xlink:href="../../d4/d36/namespacefl_a87ae8a24cc8b709a64f39370e71846af.html#a87ae8a24cc8b709a64f39370e71846af" target="_top" xlink:title=" ">
<polygon fill="white" stroke="#666666" points="742,-215 648,-215 648,-196 742,-196 742,-215"/>
<text text-anchor="middle" x="695" y="-203" font-family="Helvetica,sans-Serif" font-size="10.00">fl::make_shared</text>
</a>
</g>
</g>
<!-- Node9&#45;&gt;Node10 -->
<g id="edge16_Node000009_Node000010" class="edge">
<title>Node9&#45;&gt;Node10</title>
<g id="a_edge16_Node000009_Node000010"><a xlink:title=" ">
<path fill="none" stroke="#63b8ff" d="M549.02,-117.14C563.59,-123.06 581.27,-131.61 595,-142.5 615.07,-158.41 609.68,-173.31 631,-187.5 633.4,-189.1 635.94,-190.55 638.57,-191.88"/>
<polygon fill="#63b8ff" stroke="#63b8ff" points="637.22,-195.11 647.78,-195.92 640.03,-188.7 637.22,-195.11"/>
</a>
</g>
</g>
<!-- Node11 -->
<g id="Node000011" class="node">
<title>Node11</title>
<g id="a_Node000011"><a xlink:href="../../d4/d36/namespacefl_a0393d1d09fff5bccc427802cc22e756d.html#a0393d1d09fff5bccc427802cc22e756d" target="_top" xlink:title=" ">
<polygon fill="white" stroke="#666666" points="730.5,-178 659.5,-178 659.5,-159 730.5,-159 730.5,-178"/>
<text text-anchor="middle" x="695" y="-166" font-family="Helvetica,sans-Serif" font-size="10.00">fl::memcpy</text>
</a>
</g>
</g>
<!-- Node9&#45;&gt;Node11 -->
<g id="edge17_Node000009_Node000011" class="edge">
<title>Node9&#45;&gt;Node11</title>
<g id="a_edge17_Node000009_Node000011"><a xlink:title=" ">
<path fill="none" stroke="#63b8ff" d="M544.81,-117.01C566.86,-125.87 600.95,-139.22 631,-149.5 637.46,-151.71 644.34,-153.93 651.1,-156.02"/>
<polygon fill="#63b8ff" stroke="#63b8ff" points="650.24,-159.42 660.83,-158.99 652.29,-152.73 650.24,-159.42"/>
</a>
</g>
</g>
<!-- Node12&#45;&gt;Node4 -->
<g id="edge19_Node000012_Node000004" class="edge">
<title>Node12&#45;&gt;Node4</title>
<g id="a_edge19_Node000012_Node000004"><a xlink:title=" ">
<path fill="none" stroke="#63b8ff" d="M250.58,-118.93C264.48,-116.1 279.85,-112.97 294.29,-110.03"/>
<polygon fill="#63b8ff" stroke="#63b8ff" points="295.02,-113.46 304.12,-108.04 293.62,-106.6 295.02,-113.46"/>
</a>
</g>
</g>
</g>
</svg>
