<?xml version="1.0" encoding="UTF-8" standalone="no"?>
<!DOCTYPE svg PUBLIC "-//W3C//DTD SVG 1.1//EN"
 "http://www.w3.org/Graphics/SVG/1.1/DTD/svg11.dtd">
<!-- Generated by graphviz version 2.43.0 (0)
 -->
<!-- Title: fl::basic_string::rend Pages: 1 -->
<!--zoomable 330 -->

<svg id="main" version="1.1" xmlns="http://www.w3.org/2000/svg" xmlns:xlink="http://www.w3.org/1999/xlink" xml:space="preserve" onload="init(evt)">

<style type="text/css"><![CDATA[
.node, .edge {opacity: 0.7;}
.node.selected, .edge.selected {opacity: 1;}
.edge:hover path { stroke: red; }
.edge:hover polygon { stroke: red; fill: red; }
]]></style>

<defs>
  <circle id="rim" cx="0" cy="0" r="7"/>
  <circle id="rim2" cx="0" cy="0" r="3.5"/>
  <g id="zoomPlus">
    <use xlink:href="#rim" fill="#404040"><set attributeName="fill" to="#808080" begin="zoomplus.mouseover" end="zoomplus.mouseout"/></use>
    <path d="M-4,0h8M0,-4v8" fill="none" stroke="white" stroke-width="1.5" pointer-events="none"/>
  </g>
  <g id="zoomMin">
    <use xlink:href="#rim" fill="#404040"><set attributeName="fill" to="#808080" begin="zoomminus.mouseover" end="zoomminus.mouseout"/></use>
    <path d="M-4,0h8" fill="none" stroke="white" stroke-width="1.5" pointer-events="none"/>
  </g>
  <g id="arrowUp" transform="translate(30 24)">
    <use xlink:href="#rim"/>
    <path pointer-events="none" fill="none" stroke="white" stroke-width="1.5" d="M0,-3.0v7 M-2.5,-0.5L0,-3.0L2.5,-0.5"/>
  </g>
  <g id="arrowRight" transform="rotate(90) translate(36 -43)">
    <use xlink:href="#rim"/>
    <path pointer-events="none" fill="none" stroke="white" stroke-width="1.5" d="M0,-3.0v7 M-2.5,-0.5L0,-3.0L2.5,-0.5"/>
  </g>
  <g id="arrowDown" transform="rotate(180) translate(-30 -48)">
    <use xlink:href="#rim"/>
    <path pointer-events="none" fill="none" stroke="white" stroke-width="1.5" d="M0,-3.0v7 M-2.5,-0.5L0,-3.0L2.5,-0.5"/>
  </g>
  <g id="arrowLeft" transform="rotate(270) translate(-36 17)">
    <use xlink:href="#rim"/>
    <path pointer-events="none" fill="none" stroke="white" stroke-width="1.5" d="M0,-3.0v7 M-2.5,-0.5L0,-3.0L2.5,-0.5"/>
  </g>
  <g id="resetDef">
    <use xlink:href="#rim2" fill="#404040"><set attributeName="fill" to="#808080" begin="reset.mouseover" end="reset.mouseout"/></use>
  </g>
</defs>
<script type="application/ecmascript">
var viewWidth = 764;
var viewHeight = 330;
var sectionId = 'dynsection-0';
</script>
<script type="application/ecmascript" xlink:href="../../svg.min.js"/>
<svg id="graph" class="graph">
<g id="viewport">
<title>fl::basic_string::rend</title>
<!-- Node1 -->
<g id="Node000001" class="node">
<title>Node1</title>
<g id="a_Node000001"><a xlink:title=" ">
<polygon fill="#999999" stroke="#666666" points="115,-162.5 0,-162.5 0,-143.5 115,-143.5 115,-162.5"/>
<text text-anchor="middle" x="57.5" y="-150.5" font-family="Helvetica,sans-Serif" font-size="10.00">fl::basic_string::rend</text>
</a>
</g>
</g>
<!-- Node2 -->
<g id="Node000002" class="node">
<title>Node2</title>
<g id="a_Node000002"><a xlink:href="../../de/d66/classfl_1_1basic__string_ad5dcbd7804174af3e34a62571b014b41.html#ad5dcbd7804174af3e34a62571b014b41" target="_top" xlink:title=" ">
<polygon fill="white" stroke="#666666" points="271,-162.5 151,-162.5 151,-143.5 271,-143.5 271,-162.5"/>
<text text-anchor="middle" x="211" y="-150.5" font-family="Helvetica,sans-Serif" font-size="10.00">fl::basic_string::begin</text>
</a>
</g>
</g>
<!-- Node1&#45;&gt;Node2 -->
<g id="edge1_Node000001_Node000002" class="edge">
<title>Node1&#45;&gt;Node2</title>
<g id="a_edge1_Node000001_Node000002"><a xlink:title=" ">
<path fill="none" stroke="#63b8ff" d="M115.34,-153C123.58,-153 132.14,-153 140.59,-153"/>
<polygon fill="#63b8ff" stroke="#63b8ff" points="140.81,-156.5 150.81,-153 140.81,-149.5 140.81,-156.5"/>
</a>
</g>
</g>
<!-- Node2&#45;&gt;Node2 -->
<g id="edge2_Node000002_Node000002" class="edge">
<title>Node2&#45;&gt;Node2</title>
<g id="a_edge2_Node000002_Node000002"><a xlink:title=" ">
<path fill="none" stroke="#63b8ff" d="M188.81,-162.58C178.01,-171.23 185.41,-180.5 211,-180.5 227.4,-180.5 236.32,-176.7 237.79,-171.69"/>
<polygon fill="#63b8ff" stroke="#63b8ff" points="240.82,-169.94 233.19,-162.58 234.57,-173.09 240.82,-169.94"/>
</a>
</g>
</g>
<!-- Node3 -->
<g id="Node000003" class="node">
<title>Node3</title>
<g id="a_Node000003"><a xlink:href="../../de/d66/classfl_1_1basic__string_aaa2e9d17c12f9064e4cba5c08b4a00cd.html#aaa2e9d17c12f9064e4cba5c08b4a00cd" target="_top" xlink:title=" ">
<polygon fill="white" stroke="#666666" points="405,-168 307,-168 307,-138 405,-138 405,-168"/>
<text text-anchor="start" x="315" y="-156" font-family="Helvetica,sans-Serif" font-size="10.00">fl::basic_string::c</text>
<text text-anchor="middle" x="356" y="-145" font-family="Helvetica,sans-Serif" font-size="10.00">_str_mutable</text>
</a>
</g>
</g>
<!-- Node2&#45;&gt;Node3 -->
<g id="edge3_Node000002_Node000003" class="edge">
<title>Node2&#45;&gt;Node3</title>
<g id="a_edge3_Node000002_Node000003"><a xlink:title=" ">
<path fill="none" stroke="#63b8ff" d="M271.4,-153C279.8,-153 288.43,-153 296.81,-153"/>
<polygon fill="#63b8ff" stroke="#63b8ff" points="296.87,-156.5 306.87,-153 296.87,-149.5 296.87,-156.5"/>
</a>
</g>
</g>
<!-- Node4 -->
<g id="Node000004" class="node">
<title>Node4</title>
<g id="a_Node000004"><a xlink:href="../../de/d66/classfl_1_1basic__string_ab760f9d7335a2653ad300172b1443599.html#ab760f9d7335a2653ad300172b1443599" target="_top" xlink:title=" ">
<polygon fill="#fff0f0" stroke="red" points="580,-304 461,-304 461,-274 580,-274 580,-304"/>
<text text-anchor="start" x="469" y="-292" font-family="Helvetica,sans-Serif" font-size="10.00">fl::basic_string::basic</text>
<text text-anchor="middle" x="520.5" y="-281" font-family="Helvetica,sans-Serif" font-size="10.00">_string</text>
</a>
</g>
</g>
<!-- Node3&#45;&gt;Node4 -->
<g id="edge4_Node000003_Node000004" class="edge">
<title>Node3&#45;&gt;Node4</title>
<g id="a_edge4_Node000003_Node000004"><a xlink:title=" ">
<path fill="none" stroke="#63b8ff" d="M364.31,-168.11C376.72,-192.18 404.2,-239.17 441,-265 444.32,-267.33 447.87,-269.44 451.55,-271.34"/>
<polygon fill="#63b8ff" stroke="#63b8ff" points="450.41,-274.67 460.96,-275.68 453.34,-268.31 450.41,-274.67"/>
</a>
</g>
</g>
<!-- Node6 -->
<g id="Node000006" class="node">
<title>Node6</title>
<g id="a_Node000006"><a xlink:href="../../da/dc8/classfl_1_1not__null_a12fa45cad9f3c704b7ce56a9f248e318.html#a12fa45cad9f3c704b7ce56a9f248e318" target="_top" xlink:title=" ">
<polygon fill="white" stroke="#666666" points="565,-255.5 476,-255.5 476,-236.5 565,-236.5 565,-255.5"/>
<text text-anchor="middle" x="520.5" y="-243.5" font-family="Helvetica,sans-Serif" font-size="10.00">fl::not_null::get</text>
</a>
</g>
</g>
<!-- Node3&#45;&gt;Node6 -->
<g id="edge6_Node000003_Node000006" class="edge">
<title>Node3&#45;&gt;Node6</title>
<g id="a_edge6_Node000003_Node000006"><a xlink:title=" ">
<path fill="none" stroke="#63b8ff" d="M369.61,-168.15C384.77,-185.33 411.82,-212.92 441,-228 448.76,-232.01 457.41,-235.14 466.05,-237.57"/>
<polygon fill="#63b8ff" stroke="#63b8ff" points="465.2,-240.97 475.76,-240.03 466.92,-234.18 465.2,-240.97"/>
</a>
</g>
</g>
<!-- Node7 -->
<g id="Node000007" class="node">
<title>Node7</title>
<g id="a_Node000007"><a xlink:href="../../de/d66/classfl_1_1basic__string_a2f4aa15116686ce9ab44872786bd967c.html#a2f4aa15116686ce9ab44872786bd967c" target="_top" xlink:title=" ">
<polygon fill="white" stroke="#666666" points="600,-218.5 441,-218.5 441,-199.5 600,-199.5 600,-218.5"/>
<text text-anchor="middle" x="520.5" y="-206.5" font-family="Helvetica,sans-Serif" font-size="10.00">fl::basic_string::hasHeapData</text>
</a>
</g>
</g>
<!-- Node3&#45;&gt;Node7 -->
<g id="edge7_Node000003_Node000007" class="edge">
<title>Node3&#45;&gt;Node7</title>
<g id="a_edge7_Node000003_Node000007"><a xlink:title=" ">
<path fill="none" stroke="#63b8ff" d="M386.35,-168.02C402.22,-175.69 422.34,-184.71 441,-191 447.41,-193.16 454.2,-195.15 461,-196.95"/>
<polygon fill="#63b8ff" stroke="#63b8ff" points="460.37,-200.4 470.92,-199.45 462.08,-193.61 460.37,-200.4"/>
</a>
</g>
</g>
<!-- Node8 -->
<g id="Node000008" class="node">
<title>Node8</title>
<g id="a_Node000008"><a xlink:href="../../de/d66/classfl_1_1basic__string_a746a19f13877e51450e6290f4b135140.html#a746a19f13877e51450e6290f4b135140" target="_top" xlink:title=" ">
<polygon fill="white" stroke="#666666" points="590.5,-181.5 450.5,-181.5 450.5,-162.5 590.5,-162.5 590.5,-181.5"/>
<text text-anchor="middle" x="520.5" y="-169.5" font-family="Helvetica,sans-Serif" font-size="10.00">fl::basic_string::heapData</text>
</a>
</g>
</g>
<!-- Node3&#45;&gt;Node8 -->
<g id="edge8_Node000003_Node000008" class="edge">
<title>Node3&#45;&gt;Node8</title>
<g id="a_edge8_Node000003_Node000008"><a xlink:title=" ">
<path fill="none" stroke="#63b8ff" d="M405.32,-158.65C416.35,-159.94 428.36,-161.34 440.32,-162.74"/>
<polygon fill="#63b8ff" stroke="#63b8ff" points="439.98,-166.23 450.32,-163.91 440.8,-159.27 439.98,-166.23"/>
</a>
</g>
</g>
<!-- Node9 -->
<g id="Node000009" class="node">
<title>Node9</title>
<g id="a_Node000009"><a xlink:href="../../d4/d36/namespacefl_a87ae8a24cc8b709a64f39370e71846af.html#a87ae8a24cc8b709a64f39370e71846af" target="_top" xlink:title=" ">
<polygon fill="white" stroke="#666666" points="743,-143.5 649,-143.5 649,-124.5 743,-124.5 743,-143.5"/>
<text text-anchor="middle" x="696" y="-131.5" font-family="Helvetica,sans-Serif" font-size="10.00">fl::make_shared</text>
</a>
</g>
</g>
<!-- Node3&#45;&gt;Node9 -->
<g id="edge12_Node000003_Node000009" class="edge">
<title>Node3&#45;&gt;Node9</title>
<g id="a_edge12_Node000003_Node000009"><a xlink:title=" ">
<path fill="none" stroke="#63b8ff" d="M405.07,-150.3C466.74,-146.83 573.54,-140.83 638.88,-137.15"/>
<polygon fill="#63b8ff" stroke="#63b8ff" points="639.21,-140.64 648.99,-136.59 638.81,-133.65 639.21,-140.64"/>
</a>
</g>
</g>
<!-- Node10 -->
<g id="Node000010" class="node">
<title>Node10</title>
<g id="a_Node000010"><a xlink:href="../../de/d66/classfl_1_1basic__string_ab069d754c930a7557d1eb72ab925c7db.html#ab069d754c930a7557d1eb72ab925c7db" target="_top" xlink:title=" ">
<polygon fill="white" stroke="#666666" points="756,-81 636,-81 636,-51 756,-51 756,-81"/>
<text text-anchor="start" x="644" y="-69" font-family="Helvetica,sans-Serif" font-size="10.00">fl::basic_string::inline</text>
<text text-anchor="middle" x="696" y="-58" font-family="Helvetica,sans-Serif" font-size="10.00">BufferPtr</text>
</a>
</g>
</g>
<!-- Node3&#45;&gt;Node10 -->
<g id="edge10_Node000003_Node000010" class="edge">
<title>Node3&#45;&gt;Node10</title>
<g id="a_edge10_Node000003_Node000010"><a xlink:title=" ">
<path fill="none" stroke="#63b8ff" d="M368.09,-137.97C382.54,-119.73 409.71,-89.84 441,-77 499.86,-52.85 572.96,-52.41 625.61,-56.63"/>
<polygon fill="#63b8ff" stroke="#63b8ff" points="625.59,-60.14 635.85,-57.53 626.2,-53.17 625.59,-60.14"/>
</a>
</g>
</g>
<!-- Node11 -->
<g id="Node000011" class="node">
<title>Node11</title>
<g id="a_Node000011"><a xlink:href="../../de/d66/classfl_1_1basic__string_a504b37116b93044654059cacba256510.html#a504b37116b93044654059cacba256510" target="_top" xlink:title=" ">
<polygon fill="#fff0f0" stroke="red" points="595,-105.5 446,-105.5 446,-86.5 595,-86.5 595,-105.5"/>
<text text-anchor="middle" x="520.5" y="-93.5" font-family="Helvetica,sans-Serif" font-size="10.00">fl::basic_string::materialize</text>
</a>
</g>
</g>
<!-- Node3&#45;&gt;Node11 -->
<g id="edge13_Node000003_Node000011" class="edge">
<title>Node3&#45;&gt;Node11</title>
<g id="a_edge13_Node000003_Node000011"><a xlink:title=" ">
<path fill="none" stroke="#63b8ff" d="M393.57,-137.92C408.22,-132.07 425.32,-125.47 441,-120 452.34,-116.04 464.73,-112.09 476.24,-108.57"/>
<polygon fill="#63b8ff" stroke="#63b8ff" points="477.52,-111.84 486.08,-105.59 475.5,-105.14 477.52,-111.84"/>
</a>
</g>
</g>
<!-- Node17 -->
<g id="Node000017" class="node">
<title>Node17</title>
<g id="a_Node000017"><a xlink:href="../../d1/d74/classfl_1_1shared__ptr_a3f6d3412883ce69a5eb6f096f6a25385.html#a3f6d3412883ce69a5eb6f096f6a25385" target="_top" xlink:title=" ">
<polygon fill="white" stroke="#666666" points="572.5,-30 468.5,-30 468.5,0 572.5,0 572.5,-30"/>
<text text-anchor="start" x="476.5" y="-18" font-family="Helvetica,sans-Serif" font-size="10.00">fl::shared_ptr::use</text>
<text text-anchor="middle" x="520.5" y="-7" font-family="Helvetica,sans-Serif" font-size="10.00">_count</text>
</a>
</g>
</g>
<!-- Node3&#45;&gt;Node17 -->
<g id="edge16_Node000003_Node000017" class="edge">
<title>Node3&#45;&gt;Node17</title>
<g id="a_edge16_Node000003_Node000017"><a xlink:title=" ">
<path fill="none" stroke="#63b8ff" d="M365,-137.78C377.99,-114.47 405.78,-69.9 441,-44 446.5,-39.95 452.64,-36.41 458.98,-33.33"/>
<polygon fill="#63b8ff" stroke="#63b8ff" points="460.67,-36.41 468.37,-29.14 457.82,-30.02 460.67,-36.41"/>
</a>
</g>
</g>
<!-- Node4&#45;&gt;Node4 -->
<g id="edge5_Node000004_Node000004" class="edge">
<title>Node4&#45;&gt;Node4</title>
<g id="a_edge5_Node000004_Node000004"><a xlink:title=" ">
<path fill="none" stroke="#63b8ff" d="M491.67,-304.28C485.27,-313.41 494.88,-322 520.5,-322 535.71,-322 545.28,-318.97 549.21,-314.6"/>
<polygon fill="#63b8ff" stroke="#63b8ff" points="552.71,-314.32 549.33,-304.28 545.71,-314.23 552.71,-314.32"/>
</a>
</g>
</g>
<!-- Node8&#45;&gt;Node9 -->
<g id="edge9_Node000008_Node000009" class="edge">
<title>Node8&#45;&gt;Node9</title>
<g id="a_edge9_Node000008_Node000009"><a xlink:title=" ">
<path fill="none" stroke="#63b8ff" d="M565.28,-162.41C588.49,-157.33 617.18,-151.04 641.67,-145.68"/>
<polygon fill="#63b8ff" stroke="#63b8ff" points="642.51,-149.08 651.53,-143.52 641.02,-142.24 642.51,-149.08"/>
</a>
</g>
</g>
<!-- Node10&#45;&gt;Node10 -->
<g id="edge11_Node000010_Node000010" class="edge">
<title>Node10&#45;&gt;Node10</title>
<g id="a_edge11_Node000010_Node000010"><a xlink:title=" ">
<path fill="none" stroke="#63b8ff" d="M665.41,-81.28C658.62,-90.41 668.81,-99 696,-99 712.14,-99 722.29,-95.97 726.46,-91.6"/>
<polygon fill="#63b8ff" stroke="#63b8ff" points="729.96,-91.32 726.59,-81.28 722.96,-91.23 729.96,-91.32"/>
</a>
</g>
</g>
<!-- Node11&#45;&gt;Node9 -->
<g id="edge15_Node000011_Node000009" class="edge">
<title>Node11&#45;&gt;Node9</title>
<g id="a_edge15_Node000011_Node000009"><a xlink:title=" ">
<path fill="none" stroke="#63b8ff" d="M565.28,-105.59C588.49,-110.67 617.18,-116.96 641.67,-122.32"/>
<polygon fill="#63b8ff" stroke="#63b8ff" points="641.02,-125.76 651.53,-124.48 642.51,-118.92 641.02,-125.76"/>
</a>
</g>
</g>
<!-- Node11&#45;&gt;Node10 -->
<g id="edge14_Node000011_Node000010" class="edge">
<title>Node11&#45;&gt;Node10</title>
<g id="a_edge14_Node000011_Node000010"><a xlink:title=" ">
<path fill="none" stroke="#63b8ff" d="M576.87,-86.43C592.48,-83.73 609.65,-80.76 625.95,-77.94"/>
<polygon fill="#63b8ff" stroke="#63b8ff" points="626.7,-81.36 635.96,-76.21 625.51,-74.46 626.7,-81.36"/>
</a>
</g>
</g>
</g>
</svg>

<g id="navigator" transform="translate(0 0)" fill="#404254">
  <rect fill="#f2f5e9" fill-opacity="0.5" stroke="#606060" stroke-width=".5" x="0" y="0" width="60" height="60"/>
  <use id="zoomplus" xlink:href="#zoomPlus" x="17" y="9" onmousedown="handleZoom(evt,'in')"/>
  <use id="zoomminus" xlink:href="#zoomMin" x="42" y="9" onmousedown="handleZoom(evt,'out')"/>
  <use id="reset" xlink:href="#resetDef" x="30" y="36" onmousedown="handleReset()"/>
   <use id="arrowup" xlink:href="#arrowUp" x="0" y="0" onmousedown="handlePan(0,-1)"/>
  <use id="arrowright" xlink:href="#arrowRight" x="0" y="0" onmousedown="handlePan(1,0)"/>
  <use id="arrowdown" xlink:href="#arrowDown" x="0" y="0" onmousedown="handlePan(0,1)"/>
  <use id="arrowleft" xlink:href="#arrowLeft" x="0" y="0" onmousedown="handlePan(-1,0)"/>
</g>
<svg viewBox="0 0 15 15" width="100%" height="30px" preserveAspectRatio="xMaxYMin meet">
 <g id="arrow_out" transform="scale(0.3 0.3)">
  <a xlink:href="classfl_1_1basic__string_ad2d621ba03b3661a68c749b15911720d_ad2d621ba03b3661a68c749b15911720d_cgraph_org.svg" target="_base">
   <rect id="button" ry="5" rx="5" y="6" x="6" height="38" width="38"
        fill="#f2f5e9" fill-opacity="0.5" stroke="#606060" stroke-width="1.0"/>
   <path id="arrow"
     d="M 11.500037,31.436501 C 11.940474,20.09759 22.043105,11.32322 32.158766,21.979434 L 37.068811,17.246167 C 37.068811,17.246167 37.088388,32 37.088388,32 L 22.160133,31.978069 C 22.160133,31.978069 26.997745,27.140456 26.997745,27.140456 C 18.528582,18.264221 13.291696,25.230495 11.500037,31.436501 z"
     style="fill:#404040;"/>
  </a>
 </g>
</svg>

<style type='text/css'>
<![CDATA[
[data-mouse-over-selected='false'] { opacity: 0.7; }
[data-mouse-over-selected='true']  { opacity: 1.0; }
]]>
</style>
<script type="application/ecmascript"><![CDATA[
document.addEventListener('DOMContentLoaded', (event) => {
  highlightEdges();
  highlightAdjacentNodes();
});
]]></script>
</svg>
