<?xml version="1.0" encoding="UTF-8" standalone="no"?>
<!DOCTYPE svg PUBLIC "-//W3C//DTD SVG 1.1//EN"
 "http://www.w3.org/Graphics/SVG/1.1/DTD/svg11.dtd">
<!-- Generated by graphviz version 2.43.0 (0)
 -->
<!-- Title: fl::basic_string::appendOct Pages: 1 -->
<svg width="915pt" height="137pt"
 viewBox="0.00 0.00 915.00 136.57" xmlns="http://www.w3.org/2000/svg" xmlns:xlink="http://www.w3.org/1999/xlink">
<g id="graph0" class="graph" transform="scale(1 1) rotate(0) translate(4 132.57)">
<title>fl::basic_string::appendOct</title>
<!-- Node1 -->
<g id="Node000001" class="node">
<title>Node1</title>
<g id="a_Node000001"><a xlink:title=" ">
<polygon fill="#999999" stroke="#666666" points="146,-111 0,-111 0,-92 146,-92 146,-111"/>
<text text-anchor="middle" x="73" y="-99" font-family="Helvetica,sans-Serif" font-size="10.00">fl::basic_string::appendOct</text>
</a>
</g>
</g>
<!-- Node2 -->
<g id="Node000002" class="node">
<title>Node2</title>
<g id="a_Node000002"><a xlink:href="../../de/d66/classfl_1_1basic__string_ab760f9d7335a2653ad300172b1443599.html#ab760f9d7335a2653ad300172b1443599" target="_top" xlink:title=" ">
<polygon fill="white" stroke="#666666" points="758,-89.5 639,-89.5 639,-59.5 758,-59.5 758,-89.5"/>
<text text-anchor="start" x="647" y="-77.5" font-family="Helvetica,sans-Serif" font-size="10.00">fl::basic_string::basic</text>
<text text-anchor="middle" x="698.5" y="-66.5" font-family="Helvetica,sans-Serif" font-size="10.00">_string</text>
</a>
</g>
</g>
<!-- Node1&#45;&gt;Node2 -->
<g id="edge1_Node000001_Node000002" class="edge">
<title>Node1&#45;&gt;Node2</title>
<g id="a_edge1_Node000001_Node000002"><a xlink:title=" ">
<path fill="none" stroke="#63b8ff" d="M117.91,-111.01C137.43,-114.78 160.76,-118.65 182,-120.5 301.1,-130.9 331.95,-131.51 451,-120.5 511.63,-114.89 579.59,-101.68 628.77,-90.85"/>
<polygon fill="#63b8ff" stroke="#63b8ff" points="629.66,-94.24 638.66,-88.65 628.14,-87.4 629.66,-94.24"/>
</a>
</g>
</g>
<!-- Node4 -->
<g id="Node000004" class="node">
<title>Node4</title>
<g id="a_Node000004"><a xlink:href="../../d4/d36/namespacefl_a1d32ff7eec824f6eef469828b77853f2.html#a1d32ff7eec824f6eef469828b77853f2" target="_top" xlink:title="Convert signed 32&#45;bit integer to string buffer in given radix.">
<polygon fill="white" stroke="#666666" points="264.5,-111 217.5,-111 217.5,-92 264.5,-92 264.5,-111"/>
<text text-anchor="middle" x="241" y="-99" font-family="Helvetica,sans-Serif" font-size="10.00">fl::itoa</text>
</a>
</g>
</g>
<!-- Node1&#45;&gt;Node4 -->
<g id="edge4_Node000001_Node000004" class="edge">
<title>Node1&#45;&gt;Node4</title>
<g id="a_edge4_Node000001_Node000004"><a xlink:title=" ">
<path fill="none" stroke="#63b8ff" d="M146.33,-101.5C167.6,-101.5 189.82,-101.5 207.28,-101.5"/>
<polygon fill="#63b8ff" stroke="#63b8ff" points="207.49,-105 217.49,-101.5 207.49,-98 207.49,-105"/>
</a>
</g>
</g>
<!-- Node6 -->
<g id="Node000006" class="node">
<title>Node6</title>
<g id="a_Node000006"><a xlink:href="../../de/d66/classfl_1_1basic__string_a2ca1f1f1c490bbaf7243398eefb800f2.html#a2ca1f1f1c490bbaf7243398eefb800f2" target="_top" xlink:title=" ">
<polygon fill="white" stroke="#666666" points="300,-56 182,-56 182,-37 300,-37 300,-56"/>
<text text-anchor="middle" x="241" y="-44" font-family="Helvetica,sans-Serif" font-size="10.00">fl::basic_string::write</text>
</a>
</g>
</g>
<!-- Node1&#45;&gt;Node6 -->
<g id="edge6_Node000001_Node000006" class="edge">
<title>Node1&#45;&gt;Node6</title>
<g id="a_edge6_Node000001_Node000006"><a xlink:title=" ">
<path fill="none" stroke="#63b8ff" d="M102.91,-91.92C130.21,-82.88 171.31,-69.26 201.4,-59.29"/>
<polygon fill="#63b8ff" stroke="#63b8ff" points="202.75,-62.53 211.14,-56.06 200.54,-55.89 202.75,-62.53"/>
</a>
</g>
</g>
<!-- Node2&#45;&gt;Node2 -->
<g id="edge2_Node000002_Node000002" class="edge">
<title>Node2&#45;&gt;Node2</title>
<g id="a_edge2_Node000002_Node000002"><a xlink:title=" ">
<path fill="none" stroke="#63b8ff" d="M671.78,-89.78C665.84,-98.91 674.75,-107.5 698.5,-107.5 712.6,-107.5 721.47,-104.47 725.11,-100.1"/>
<polygon fill="#63b8ff" stroke="#63b8ff" points="728.61,-99.81 725.22,-89.78 721.61,-99.74 728.61,-99.81"/>
</a>
</g>
</g>
<!-- Node3 -->
<g id="Node000003" class="node">
<title>Node3</title>
<g id="a_Node000003"><a xlink:href="../../de/d66/classfl_1_1basic__string_af4d95d1e9905eb5fb76e12c2c2bd7ebc.html#af4d95d1e9905eb5fb76e12c2c2bd7ebc" target="_top" xlink:title=" ">
<polygon fill="white" stroke="#666666" points="907,-84 794,-84 794,-65 907,-65 907,-84"/>
<text text-anchor="middle" x="850.5" y="-72" font-family="Helvetica,sans-Serif" font-size="10.00">fl::basic_string::size</text>
</a>
</g>
</g>
<!-- Node2&#45;&gt;Node3 -->
<g id="edge3_Node000002_Node000003" class="edge">
<title>Node2&#45;&gt;Node3</title>
<g id="a_edge3_Node000002_Node000003"><a xlink:title=" ">
<path fill="none" stroke="#63b8ff" d="M758.35,-74.5C766.64,-74.5 775.2,-74.5 783.61,-74.5"/>
<polygon fill="#63b8ff" stroke="#63b8ff" points="783.76,-78 793.76,-74.5 783.76,-71 783.76,-78"/>
</a>
</g>
</g>
<!-- Node5 -->
<g id="Node000005" class="node">
<title>Node5</title>
<g id="a_Node000005"><a xlink:href="../../d4/d36/namespacefl_a5e53fda23d9eab83d57f9c9df820c58e.html#a5e53fda23d9eab83d57f9c9df820c58e" target="_top" xlink:title=" ">
<polygon fill="white" stroke="#666666" points="418,-111 369,-111 369,-92 418,-92 418,-111"/>
<text text-anchor="middle" x="393.5" y="-99" font-family="Helvetica,sans-Serif" font-size="10.00">fl::sign</text>
</a>
</g>
</g>
<!-- Node4&#45;&gt;Node5 -->
<g id="edge5_Node000004_Node000005" class="edge">
<title>Node4&#45;&gt;Node5</title>
<g id="a_edge5_Node000004_Node000005"><a xlink:title=" ">
<path fill="none" stroke="#63b8ff" d="M264.53,-101.5C289.51,-101.5 330.06,-101.5 358.81,-101.5"/>
<polygon fill="#63b8ff" stroke="#63b8ff" points="358.82,-105 368.82,-101.5 358.82,-98 358.82,-105"/>
</a>
</g>
</g>
<!-- Node6&#45;&gt;Node6 -->
<g id="edge13_Node000006_Node000006" class="edge">
<title>Node6&#45;&gt;Node6</title>
<g id="a_edge13_Node000006_Node000006"><a xlink:title=" ">
<path fill="none" stroke="#63b8ff" d="M217.57,-56.08C206.18,-64.73 213.98,-74 241,-74 258.73,-74 268.19,-70.01 269.37,-64.82"/>
<polygon fill="#63b8ff" stroke="#63b8ff" points="272.4,-63.06 264.43,-56.08 266.31,-66.51 272.4,-63.06"/>
</a>
</g>
</g>
<!-- Node7 -->
<g id="Node000007" class="node">
<title>Node7</title>
<g id="a_Node000007"><a xlink:href="../../d4/d36/namespacefl_ad2b40cc7124494efca5c352857dabc75.html#ad2b40cc7124494efca5c352857dabc75" target="_top" xlink:title=" ">
<polygon fill="white" stroke="#666666" points="436.5,-74 350.5,-74 350.5,-55 436.5,-55 436.5,-74"/>
<text text-anchor="middle" x="393.5" y="-62" font-family="Helvetica,sans-Serif" font-size="10.00">fl::bit_cast_ptr</text>
</a>
</g>
</g>
<!-- Node6&#45;&gt;Node7 -->
<g id="edge7_Node000006_Node000007" class="edge">
<title>Node6&#45;&gt;Node7</title>
<g id="a_edge7_Node000006_Node000007"><a xlink:title=" ">
<path fill="none" stroke="#63b8ff" d="M300.19,-53.46C313.37,-55.04 327.29,-56.7 340.22,-58.25"/>
<polygon fill="#63b8ff" stroke="#63b8ff" points="339.99,-61.74 350.33,-59.46 340.82,-54.79 339.99,-61.74"/>
</a>
</g>
</g>
<!-- Node10 -->
<g id="Node000010" class="node">
<title>Node10</title>
<g id="a_Node000010"><a xlink:href="../../de/d66/classfl_1_1basic__string_aa1a0710da50d0c96c08a13f5a0738ca5.html#aa1a0710da50d0c96c08a13f5a0738ca5" target="_top" xlink:title=" ">
<polygon fill="white" stroke="#666666" points="451,-19 336,-19 336,0 451,0 451,-19"/>
<text text-anchor="middle" x="393.5" y="-7" font-family="Helvetica,sans-Serif" font-size="10.00">fl::basic_string::data</text>
</a>
</g>
</g>
<!-- Node6&#45;&gt;Node10 -->
<g id="edge9_Node000006_Node000010" class="edge">
<title>Node6&#45;&gt;Node10</title>
<g id="a_edge9_Node000006_Node000010"><a xlink:title=" ">
<path fill="none" stroke="#63b8ff" d="M280.76,-36.97C299.99,-32.24 323.43,-26.48 343.86,-21.46"/>
<polygon fill="#63b8ff" stroke="#63b8ff" points="344.74,-24.85 353.61,-19.06 343.07,-18.05 344.74,-24.85"/>
</a>
</g>
</g>
<!-- Node8 -->
<g id="Node000008" class="node">
<title>Node8</title>
<g id="a_Node000008"><a xlink:href="../../d4/d36/namespacefl_ad200a6a214a70194b7c33fd67af6cea4.html#ad200a6a214a70194b7c33fd67af6cea4" target="_top" xlink:title=" ">
<polygon fill="#fff0f0" stroke="red" points="578.5,-74 511.5,-74 511.5,-55 578.5,-55 578.5,-74"/>
<text text-anchor="middle" x="545" y="-62" font-family="Helvetica,sans-Serif" font-size="10.00">fl::bit_cast</text>
</a>
</g>
</g>
<!-- Node7&#45;&gt;Node8 -->
<g id="edge8_Node000007_Node000008" class="edge">
<title>Node7&#45;&gt;Node8</title>
<g id="a_edge8_Node000007_Node000008"><a xlink:title=" ">
<path fill="none" stroke="#63b8ff" d="M436.54,-64.5C456.69,-64.5 480.79,-64.5 501.06,-64.5"/>
<polygon fill="#63b8ff" stroke="#63b8ff" points="501.27,-68 511.27,-64.5 501.27,-61 501.27,-68"/>
</a>
</g>
</g>
<!-- Node10&#45;&gt;Node10 -->
<g id="edge12_Node000010_Node000010" class="edge">
<title>Node10&#45;&gt;Node10</title>
<g id="a_edge12_Node000010_Node000010"><a xlink:title=" ">
<path fill="none" stroke="#63b8ff" d="M370.38,-19.08C359.13,-27.73 366.84,-37 393.5,-37 411,-37 420.33,-33.01 421.5,-27.82"/>
<polygon fill="#63b8ff" stroke="#63b8ff" points="424.55,-26.11 416.62,-19.08 418.44,-29.52 424.55,-26.11"/>
</a>
</g>
</g>
<!-- Node11 -->
<g id="Node000011" class="node">
<title>Node11</title>
<g id="a_Node000011"><a xlink:href="../../de/d66/classfl_1_1basic__string_adc70863b5a29972d3e45c5e5b31e6686.html#adc70863b5a29972d3e45c5e5b31e6686" target="_top" xlink:title=" ">
<polygon fill="#fff0f0" stroke="red" points="603,-28 487,-28 487,-9 603,-9 603,-28"/>
<text text-anchor="middle" x="545" y="-16" font-family="Helvetica,sans-Serif" font-size="10.00">fl::basic_string::c_str</text>
</a>
</g>
</g>
<!-- Node10&#45;&gt;Node11 -->
<g id="edge10_Node000010_Node000011" class="edge">
<title>Node10&#45;&gt;Node11</title>
<g id="a_edge10_Node000010_Node000011"><a xlink:title=" ">
<path fill="none" stroke="#63b8ff" d="M451.02,-12.9C459.46,-13.41 468.23,-13.94 476.86,-14.46"/>
<polygon fill="#63b8ff" stroke="#63b8ff" points="476.71,-17.96 486.9,-15.06 477.13,-10.97 476.71,-17.96"/>
</a>
</g>
</g>
<!-- Node11&#45;&gt;Node2 -->
<g id="edge11_Node000011_Node000002" class="edge">
<title>Node11&#45;&gt;Node2</title>
<g id="a_edge11_Node000011_Node000002"><a xlink:title=" ">
<path fill="none" stroke="#63b8ff" d="M572.04,-28.13C592.67,-35.75 622.11,-46.63 647.28,-55.94"/>
<polygon fill="#63b8ff" stroke="#63b8ff" points="646.1,-59.23 656.7,-59.42 648.53,-52.67 646.1,-59.23"/>
</a>
</g>
</g>
</g>
</svg>
