<?xml version="1.0" encoding="UTF-8" standalone="no"?>
<!DOCTYPE svg PUBLIC "-//W3C//DTD SVG 1.1//EN"
 "http://www.w3.org/Graphics/SVG/1.1/DTD/svg11.dtd">
<!-- Generated by graphviz version 2.43.0 (0)
 -->
<!-- Title: fl::vector_basic::operator= Pages: 1 -->
<svg width="1217pt" height="303pt"
 viewBox="0.00 0.00 1217.00 303.31" xmlns="http://www.w3.org/2000/svg" xmlns:xlink="http://www.w3.org/1999/xlink">
<g id="graph0" class="graph" transform="scale(1 1) rotate(0) translate(4 299.31)">
<title>fl::vector_basic::operator=</title>
<!-- Node1 -->
<g id="Node000001" class="node">
<title>Node1</title>
<g id="a_Node000001"><a xlink:title=" ">
<polygon fill="#999999" stroke="#666666" points="146,-149.81 0,-149.81 0,-130.81 146,-130.81 146,-149.81"/>
<text text-anchor="middle" x="73" y="-137.81" font-family="Helvetica,sans-Serif" font-size="10.00">fl::vector_basic::operator=</text>
</a>
</g>
</g>
<!-- Node2 -->
<g id="Node000002" class="node">
<title>Node2</title>
<g id="a_Node000002"><a xlink:href="../../d4/dad/classfl_1_1vector__basic_a8d4a975029a68075a20d1aa3fa3e7cf5.html#a8d4a975029a68075a20d1aa3fa3e7cf5" target="_top" xlink:title="Heap&#45;only vector (no inline buffer).">
<polygon fill="white" stroke="#666666" points="673.5,-197.31 546.5,-197.31 546.5,-167.31 673.5,-167.31 673.5,-197.31"/>
<text text-anchor="start" x="554.5" y="-185.31" font-family="Helvetica,sans-Serif" font-size="10.00">fl::vector_basic::vector</text>
<text text-anchor="middle" x="610" y="-174.31" font-family="Helvetica,sans-Serif" font-size="10.00">_basic</text>
</a>
</g>
</g>
<!-- Node1&#45;&gt;Node2 -->
<g id="edge1_Node000001_Node000002" class="edge">
<title>Node1&#45;&gt;Node2</title>
<g id="a_edge1_Node000001_Node000002"><a xlink:title=" ">
<path fill="none" stroke="#63b8ff" d="M91.76,-149.86C112.69,-160.65 148.84,-177.8 182,-186.31 316.49,-220.82 355.67,-214.25 494,-202.31 507.73,-201.12 522.28,-199.16 536.24,-196.91"/>
<polygon fill="#63b8ff" stroke="#63b8ff" points="537,-200.33 546.29,-195.23 535.85,-193.42 537,-200.33"/>
</a>
</g>
</g>
<!-- Node4 -->
<g id="Node000004" class="node">
<title>Node4</title>
<g id="a_Node000004"><a xlink:href="../../d4/dad/classfl_1_1vector__basic_adb893eae3595e3f2c3b5ac20cd676f39.html#adb893eae3595e3f2c3b5ac20cd676f39" target="_top" xlink:title="Copy all elements from another vector_basic.">
<polygon fill="white" stroke="#666666" points="492,-52.81 344,-52.81 344,-33.81 492,-33.81 492,-52.81"/>
<text text-anchor="middle" x="418" y="-40.81" font-family="Helvetica,sans-Serif" font-size="10.00">fl::vector_basic::copy_from</text>
</a>
</g>
</g>
<!-- Node1&#45;&gt;Node4 -->
<g id="edge4_Node000001_Node000004" class="edge">
<title>Node1&#45;&gt;Node4</title>
<g id="a_edge4_Node000001_Node000004"><a xlink:title=" ">
<path fill="none" stroke="#63b8ff" d="M107.83,-130.74C170.41,-113.04 304.18,-75.21 373.44,-55.63"/>
<polygon fill="#63b8ff" stroke="#63b8ff" points="374.5,-58.96 383.17,-52.87 372.6,-52.23 374.5,-58.96"/>
</a>
</g>
</g>
<!-- Node13 -->
<g id="Node000013" class="node">
<title>Node13</title>
<g id="a_Node000013"><a xlink:href="../../d4/dad/classfl_1_1vector__basic_aa709d10073cb8bdbb18bf4ca4f8561e6.html#aa709d10073cb8bdbb18bf4ca4f8561e6" target="_top" xlink:title="Move&#45;assign from another vector_basic (clears this first).">
<polygon fill="white" stroke="#666666" points="306,-177.31 182,-177.31 182,-147.31 306,-147.31 306,-177.31"/>
<text text-anchor="start" x="190" y="-165.31" font-family="Helvetica,sans-Serif" font-size="10.00">fl::vector_basic::move</text>
<text text-anchor="middle" x="244" y="-154.31" font-family="Helvetica,sans-Serif" font-size="10.00">_assign</text>
</a>
</g>
</g>
<!-- Node1&#45;&gt;Node13 -->
<g id="edge15_Node000001_Node000013" class="edge">
<title>Node1&#45;&gt;Node13</title>
<g id="a_edge15_Node000001_Node000013"><a xlink:title=" ">
<path fill="none" stroke="#63b8ff" d="M146.16,-149.7C154.74,-150.82 163.49,-151.96 172.05,-153.07"/>
<polygon fill="#63b8ff" stroke="#63b8ff" points="171.62,-156.54 181.98,-154.36 172.52,-149.6 171.62,-156.54"/>
</a>
</g>
</g>
<!-- Node15 -->
<g id="Node000015" class="node">
<title>Node15</title>
<g id="a_Node000015"><a xlink:href="../../d4/dad/classfl_1_1vector__basic_a7ba7ea954f6b2e7af31b2d8181edc2d7.html#a7ba7ea954f6b2e7af31b2d8181edc2d7" target="_top" xlink:title="Move&#45;steal contents from another vector_basic.">
<polygon fill="white" stroke="#666666" points="494,-128.81 342,-128.81 342,-109.81 494,-109.81 494,-128.81"/>
<text text-anchor="middle" x="418" y="-116.81" font-family="Helvetica,sans-Serif" font-size="10.00">fl::vector_basic::move_from</text>
</a>
</g>
</g>
<!-- Node1&#45;&gt;Node15 -->
<g id="edge25_Node000001_Node000015" class="edge">
<title>Node1&#45;&gt;Node15</title>
<g id="a_edge25_Node000001_Node000015"><a xlink:title=" ">
<path fill="none" stroke="#63b8ff" d="M146.32,-135.88C200.46,-132.56 274.7,-128.02 331.73,-124.53"/>
<polygon fill="#63b8ff" stroke="#63b8ff" points="332.04,-128.02 341.81,-123.91 331.61,-121.03 332.04,-128.02"/>
</a>
</g>
</g>
<!-- Node2&#45;&gt;Node2 -->
<g id="edge2_Node000002_Node000002" class="edge">
<title>Node2&#45;&gt;Node2</title>
<g id="a_edge2_Node000002_Node000002"><a xlink:title=" ">
<path fill="none" stroke="#63b8ff" d="M578.01,-197.58C570.9,-206.71 581.56,-215.31 610,-215.31 626.88,-215.31 637.5,-212.28 641.86,-207.9"/>
<polygon fill="#63b8ff" stroke="#63b8ff" points="645.36,-207.63 641.99,-197.58 638.36,-207.54 645.36,-207.63"/>
</a>
</g>
</g>
<!-- Node3 -->
<g id="Node000003" class="node">
<title>Node3</title>
<g id="a_Node000003"><a xlink:href="../../d4/dad/classfl_1_1vector__basic_a9a248c6b3d33d24ef21e4275c4fbae8c.html#a9a248c6b3d33d24ef21e4275c4fbae8c" target="_top" xlink:title=" ">
<polygon fill="white" stroke="#666666" points="851.5,-191.81 735.5,-191.81 735.5,-172.81 851.5,-172.81 851.5,-191.81"/>
<text text-anchor="middle" x="793.5" y="-179.81" font-family="Helvetica,sans-Serif" font-size="10.00">fl::vector_basic::size</text>
</a>
</g>
</g>
<!-- Node2&#45;&gt;Node3 -->
<g id="edge3_Node000002_Node000003" class="edge">
<title>Node2&#45;&gt;Node3</title>
<g id="a_edge3_Node000002_Node000003"><a xlink:title=" ">
<path fill="none" stroke="#63b8ff" d="M673.72,-182.31C690.26,-182.31 708.19,-182.31 724.98,-182.31"/>
<polygon fill="#63b8ff" stroke="#63b8ff" points="725.26,-185.81 735.26,-182.31 725.26,-178.81 725.26,-185.81"/>
</a>
</g>
</g>
<!-- Node4&#45;&gt;Node2 -->
<g id="edge5_Node000004_Node000002" class="edge">
<title>Node4&#45;&gt;Node2</title>
<g id="a_edge5_Node000004_Node000002"><a xlink:title=" ">
<path fill="none" stroke="#63b8ff" d="M432.06,-52.86C462.41,-75.07 538.32,-130.6 580.17,-161.22"/>
<polygon fill="#63b8ff" stroke="#63b8ff" points="578.17,-164.09 588.31,-167.17 582.31,-158.44 578.17,-164.09"/>
</a>
</g>
</g>
<!-- Node5 -->
<g id="Node000005" class="node">
<title>Node5</title>
<g id="a_Node000005"><a xlink:href="../../d4/dad/classfl_1_1vector__basic_ae5df471ee4ece9aeef4d9efdacef6061.html#ae5df471ee4ece9aeef4d9efdacef6061" target="_top" xlink:title=" ">
<polygon fill="white" stroke="#666666" points="683.5,-73.81 536.5,-73.81 536.5,-54.81 683.5,-54.81 683.5,-73.81"/>
<text text-anchor="middle" x="610" y="-61.81" font-family="Helvetica,sans-Serif" font-size="10.00">fl::vector_basic::clear_impl</text>
</a>
</g>
</g>
<!-- Node4&#45;&gt;Node5 -->
<g id="edge6_Node000004_Node000005" class="edge">
<title>Node4&#45;&gt;Node5</title>
<g id="a_edge6_Node000004_Node000005"><a xlink:title=" ">
<path fill="none" stroke="#63b8ff" d="M492.19,-51.4C503.43,-52.64 515.1,-53.93 526.52,-55.19"/>
<polygon fill="#63b8ff" stroke="#63b8ff" points="526.15,-58.67 536.48,-56.29 526.92,-51.71 526.15,-58.67"/>
</a>
</g>
</g>
<!-- Node6 -->
<g id="Node000006" class="node">
<title>Node6</title>
<g id="a_Node000006"><a xlink:href="../../d4/dad/classfl_1_1vector__basic_ab007e98763f01e1326ef5ddb39ddf006.html#ab007e98763f01e1326ef5ddb39ddf006" target="_top" xlink:title="Pointer to element at index (byte arithmetic).">
<polygon fill="white" stroke="#666666" points="687.5,-36.81 532.5,-36.81 532.5,-17.81 687.5,-17.81 687.5,-36.81"/>
<text text-anchor="middle" x="610" y="-24.81" font-family="Helvetica,sans-Serif" font-size="10.00">fl::vector_basic::element_ptr</text>
</a>
</g>
</g>
<!-- Node4&#45;&gt;Node6 -->
<g id="edge7_Node000004_Node000006" class="edge">
<title>Node4&#45;&gt;Node6</title>
<g id="a_edge7_Node000004_Node000006"><a xlink:title=" ">
<path fill="none" stroke="#63b8ff" d="M492.19,-37.14C502.07,-36.31 512.28,-35.45 522.36,-34.6"/>
<polygon fill="#63b8ff" stroke="#63b8ff" points="522.72,-38.09 532.39,-33.76 522.13,-31.11 522.72,-38.09"/>
</a>
</g>
</g>
<!-- Node7 -->
<g id="Node000007" class="node">
<title>Node7</title>
<g id="a_Node000007"><a xlink:href="../../d4/dad/classfl_1_1vector__basic_a307989a09148dc75fc5fbb2111cfef6f.html#a307989a09148dc75fc5fbb2111cfef6f" target="_top" xlink:title=" ">
<polygon fill="white" stroke="#666666" points="690,-110.81 530,-110.81 530,-91.81 690,-91.81 690,-110.81"/>
<text text-anchor="middle" x="610" y="-98.81" font-family="Helvetica,sans-Serif" font-size="10.00">fl::vector_basic::reserve_impl</text>
</a>
</g>
</g>
<!-- Node4&#45;&gt;Node7 -->
<g id="edge8_Node000004_Node000007" class="edge">
<title>Node4&#45;&gt;Node7</title>
<g id="a_edge8_Node000004_Node000007"><a xlink:title=" ">
<path fill="none" stroke="#63b8ff" d="M442.97,-52.9C465.27,-61.6 499.53,-74.38 530,-83.31 537.4,-85.48 545.26,-87.54 553.04,-89.45"/>
<polygon fill="#63b8ff" stroke="#63b8ff" points="552.27,-92.86 562.8,-91.78 553.89,-86.05 552.27,-92.86"/>
</a>
</g>
</g>
<!-- Node11 -->
<g id="Node000011" class="node">
<title>Node11</title>
<g id="a_Node000011"><a xlink:href="../../d4/dad/classfl_1_1vector__basic_a81fe1c9feb8228d4269494b7984c6270.html#a81fe1c9feb8228d4269494b7984c6270" target="_top" xlink:title=" ">
<polygon fill="#fff0f0" stroke="red" points="1050,-110.81 897,-110.81 897,-91.81 1050,-91.81 1050,-110.81"/>
<text text-anchor="middle" x="973.5" y="-98.81" font-family="Helvetica,sans-Serif" font-size="10.00">fl::vector_basic::trivial_copy</text>
</a>
</g>
</g>
<!-- Node4&#45;&gt;Node11 -->
<g id="edge14_Node000004_Node000011" class="edge">
<title>Node4&#45;&gt;Node11</title>
<g id="a_edge14_Node000004_Node000011"><a xlink:title=" ">
<path fill="none" stroke="#63b8ff" d="M442.32,-33.65C464.44,-25.05 498.85,-13.1 530,-8.31 600.28,2.51 619.79,2.95 690,-8.31 784.88,-23.52 891.1,-65.76 942.03,-87.69"/>
<polygon fill="#63b8ff" stroke="#63b8ff" points="940.9,-91.02 951.46,-91.8 943.69,-84.6 940.9,-91.02"/>
</a>
</g>
</g>
<!-- Node8 -->
<g id="Node000008" class="node">
<title>Node8</title>
<g id="a_Node000008"><a xlink:href="../../d4/dad/classfl_1_1vector__basic_a17f684eb95a4b6b0511454f7f80f87d1.html#a17f684eb95a4b6b0511454f7f80f87d1" target="_top" xlink:title="Grow to new_capacity. Moves existing elements.">
<polygon fill="white" stroke="#666666" points="861,-110.81 726,-110.81 726,-91.81 861,-91.81 861,-110.81"/>
<text text-anchor="middle" x="793.5" y="-98.81" font-family="Helvetica,sans-Serif" font-size="10.00">fl::vector_basic::grow_to</text>
</a>
</g>
</g>
<!-- Node7&#45;&gt;Node8 -->
<g id="edge9_Node000007_Node000008" class="edge">
<title>Node7&#45;&gt;Node8</title>
<g id="a_edge9_Node000007_Node000008"><a xlink:title=" ">
<path fill="none" stroke="#63b8ff" d="M690.08,-101.31C698.57,-101.31 707.2,-101.31 715.66,-101.31"/>
<polygon fill="#63b8ff" stroke="#63b8ff" points="715.88,-104.81 725.88,-101.31 715.88,-97.81 715.88,-104.81"/>
</a>
</g>
</g>
<!-- Node9 -->
<g id="Node000009" class="node">
<title>Node9</title>
<g id="a_Node000009"><a xlink:href="../../d4/dad/classfl_1_1vector__basic_a4a79234edce9c9748432aba0f499b001.html#a4a79234edce9c9748432aba0f499b001" target="_top" xlink:title="Is data currently in the inline buffer?">
<polygon fill="white" stroke="#666666" points="1039,-252.81 908,-252.81 908,-233.81 1039,-233.81 1039,-252.81"/>
<text text-anchor="middle" x="973.5" y="-240.81" font-family="Helvetica,sans-Serif" font-size="10.00">fl::vector_basic::isInline</text>
</a>
</g>
</g>
<!-- Node8&#45;&gt;Node9 -->
<g id="edge10_Node000008_Node000009" class="edge">
<title>Node8&#45;&gt;Node9</title>
<g id="a_edge10_Node000008_Node000009"><a xlink:title=" ">
<path fill="none" stroke="#63b8ff" d="M806.46,-110.84C836.33,-134.68 914.53,-197.06 951.96,-226.92"/>
<polygon fill="#63b8ff" stroke="#63b8ff" points="950.13,-229.94 960.13,-233.44 954.49,-224.46 950.13,-229.94"/>
</a>
</g>
</g>
<!-- Node8&#45;&gt;Node11 -->
<g id="edge13_Node000008_Node000011" class="edge">
<title>Node8&#45;&gt;Node11</title>
<g id="a_edge13_Node000008_Node000011"><a xlink:title=" ">
<path fill="none" stroke="#63b8ff" d="M861.03,-101.31C869.41,-101.31 878.07,-101.31 886.69,-101.31"/>
<polygon fill="#63b8ff" stroke="#63b8ff" points="886.77,-104.81 896.77,-101.31 886.77,-97.81 886.77,-104.81"/>
</a>
</g>
</g>
<!-- Node10 -->
<g id="Node000010" class="node">
<title>Node10</title>
<g id="a_Node000010"><a xlink:href="../../d4/dad/classfl_1_1vector__basic_ad3336dbd1270bce79415ef3ea783393a.html#ad3336dbd1270bce79415ef3ea783393a" target="_top" xlink:title="Compute inline buffer pointer from offset.">
<polygon fill="white" stroke="#666666" points="1209,-277.31 1086,-277.31 1086,-247.31 1209,-247.31 1209,-277.31"/>
<text text-anchor="start" x="1094" y="-265.31" font-family="Helvetica,sans-Serif" font-size="10.00">fl::vector_basic::inline</text>
<text text-anchor="middle" x="1147.5" y="-254.31" font-family="Helvetica,sans-Serif" font-size="10.00">BufferPtr</text>
</a>
</g>
</g>
<!-- Node9&#45;&gt;Node10 -->
<g id="edge11_Node000009_Node000010" class="edge">
<title>Node9&#45;&gt;Node10</title>
<g id="a_edge11_Node000009_Node000010"><a xlink:title=" ">
<path fill="none" stroke="#63b8ff" d="M1039.04,-250.44C1051.03,-251.76 1063.61,-253.15 1075.77,-254.49"/>
<polygon fill="#63b8ff" stroke="#63b8ff" points="1075.55,-257.99 1085.87,-255.61 1076.31,-251.03 1075.55,-257.99"/>
</a>
</g>
</g>
<!-- Node10&#45;&gt;Node10 -->
<g id="edge12_Node000010_Node000010" class="edge">
<title>Node10&#45;&gt;Node10</title>
<g id="a_edge12_Node000010_Node000010"><a xlink:title=" ">
<path fill="none" stroke="#63b8ff" d="M1116.91,-277.58C1110.12,-286.71 1120.31,-295.31 1147.5,-295.31 1163.64,-295.31 1173.79,-292.28 1177.96,-287.9"/>
<polygon fill="#63b8ff" stroke="#63b8ff" points="1181.46,-287.63 1178.09,-277.58 1174.46,-287.54 1181.46,-287.63"/>
</a>
</g>
</g>
<!-- Node13&#45;&gt;Node2 -->
<g id="edge16_Node000013_Node000002" class="edge">
<title>Node13&#45;&gt;Node2</title>
<g id="a_edge16_Node000013_Node000002"><a xlink:title=" ">
<path fill="none" stroke="#63b8ff" d="M295.92,-177.36C310.65,-181.05 326.85,-184.46 342,-186.31 407.39,-194.28 482.45,-192.17 536.3,-188.71"/>
<polygon fill="#63b8ff" stroke="#63b8ff" points="536.69,-192.19 546.43,-188.03 536.22,-185.21 536.69,-192.19"/>
</a>
</g>
</g>
<!-- Node13&#45;&gt;Node5 -->
<g id="edge17_Node000013_Node000005" class="edge">
<title>Node13&#45;&gt;Node5</title>
<g id="a_edge17_Node000013_Node000005"><a xlink:title=" ">
<path fill="none" stroke="#63b8ff" d="M263.78,-147.07C282.44,-132.78 312.47,-112.07 342,-101.31 401.38,-79.66 472.41,-70.56 526.28,-66.79"/>
<polygon fill="#63b8ff" stroke="#63b8ff" points="526.72,-70.27 536.47,-66.12 526.26,-63.28 526.72,-70.27"/>
</a>
</g>
</g>
<!-- Node13&#45;&gt;Node9 -->
<g id="edge20_Node000013_Node000009" class="edge">
<title>Node13&#45;&gt;Node9</title>
<g id="a_edge20_Node000013_Node000009"><a xlink:title=" ">
<path fill="none" stroke="#63b8ff" d="M275.27,-177.32C294.04,-185.98 318.9,-196.32 342,-202.31 537.51,-253.02 777.96,-251.99 897.56,-247.42"/>
<polygon fill="#63b8ff" stroke="#63b8ff" points="897.85,-250.91 907.7,-247.01 897.57,-243.92 897.85,-250.91"/>
</a>
</g>
</g>
<!-- Node13&#45;&gt;Node10 -->
<g id="edge19_Node000013_Node000010" class="edge">
<title>Node13&#45;&gt;Node10</title>
<g id="a_edge19_Node000013_Node000010"><a xlink:title=" ">
<path fill="none" stroke="#63b8ff" d="M261.88,-177.54C280.24,-193.25 311.12,-217.25 342,-230.31 453.27,-277.36 488.19,-281.31 609,-281.31 609,-281.31 609,-281.31 794.5,-281.31 892.06,-281.31 1004.61,-273.94 1075.65,-268.38"/>
<polygon fill="#63b8ff" stroke="#63b8ff" points="1076.13,-271.85 1085.82,-267.57 1075.58,-264.88 1076.13,-271.85"/>
</a>
</g>
</g>
<!-- Node14 -->
<g id="Node000014" class="node">
<title>Node14</title>
<g id="a_Node000014"><a xlink:href="../../d4/dad/classfl_1_1vector__basic_a30b933d0f031b7bf574c24590f23159b.html#a30b933d0f031b7bf574c24590f23159b" target="_top" xlink:title="Does this vector have an inline buffer at all?">
<polygon fill="white" stroke="#666666" points="488,-177.31 348,-177.31 348,-147.31 488,-147.31 488,-177.31"/>
<text text-anchor="start" x="356" y="-165.31" font-family="Helvetica,sans-Serif" font-size="10.00">fl::vector_basic::hasInline</text>
<text text-anchor="middle" x="418" y="-154.31" font-family="Helvetica,sans-Serif" font-size="10.00">Buffer</text>
</a>
</g>
</g>
<!-- Node13&#45;&gt;Node14 -->
<g id="edge18_Node000013_Node000014" class="edge">
<title>Node13&#45;&gt;Node14</title>
<g id="a_edge18_Node000013_Node000014"><a xlink:title=" ">
<path fill="none" stroke="#63b8ff" d="M306.13,-162.31C316.37,-162.31 327.13,-162.31 337.75,-162.31"/>
<polygon fill="#63b8ff" stroke="#63b8ff" points="337.87,-165.81 347.87,-162.31 337.87,-158.81 337.87,-165.81"/>
</a>
</g>
</g>
<!-- Node13&#45;&gt;Node15 -->
<g id="edge21_Node000013_Node000015" class="edge">
<title>Node13&#45;&gt;Node15</title>
<g id="a_edge21_Node000013_Node000015"><a xlink:title=" ">
<path fill="none" stroke="#63b8ff" d="M305.16,-147.27C326.12,-142.03 349.35,-136.22 369.18,-131.26"/>
<polygon fill="#63b8ff" stroke="#63b8ff" points="370.06,-134.65 378.91,-128.83 368.36,-127.86 370.06,-134.65"/>
</a>
</g>
</g>
<!-- Node15&#45;&gt;Node2 -->
<g id="edge22_Node000015_Node000002" class="edge">
<title>Node15&#45;&gt;Node2</title>
<g id="a_edge22_Node000015_Node000002"><a xlink:title=" ">
<path fill="none" stroke="#63b8ff" d="M461.36,-128.88C472.1,-131.63 483.55,-134.83 494,-138.31 510.45,-143.78 513.86,-146.99 530,-153.31 538.89,-156.79 548.38,-160.38 557.59,-163.8"/>
<polygon fill="#63b8ff" stroke="#63b8ff" points="556.46,-167.11 567.05,-167.29 558.88,-160.54 556.46,-167.11"/>
</a>
</g>
</g>
<!-- Node15&#45;&gt;Node7 -->
<g id="edge23_Node000015_Node000007" class="edge">
<title>Node15&#45;&gt;Node7</title>
<g id="a_edge23_Node000015_Node000007"><a xlink:title=" ">
<path fill="none" stroke="#63b8ff" d="M494.09,-112.19C502.52,-111.39 511.16,-110.58 519.74,-109.76"/>
<polygon fill="#63b8ff" stroke="#63b8ff" points="520.14,-113.24 529.77,-108.81 519.48,-106.27 520.14,-113.24"/>
</a>
</g>
</g>
<!-- Node15&#45;&gt;Node11 -->
<g id="edge24_Node000015_Node000011" class="edge">
<title>Node15&#45;&gt;Node11</title>
<g id="a_edge24_Node000015_Node000011"><a xlink:title=" ">
<path fill="none" stroke="#63b8ff" d="M494.24,-123.43C582.33,-127.35 732.54,-131.17 861,-120.31 879.32,-118.76 899.15,-115.8 916.94,-112.67"/>
<polygon fill="#63b8ff" stroke="#63b8ff" points="917.94,-116.05 927.15,-110.82 916.69,-109.16 917.94,-116.05"/>
</a>
</g>
</g>
</g>
</svg>
