<?xml version="1.0" encoding="UTF-8" standalone="no"?>
<!DOCTYPE svg PUBLIC "-//W3C//DTD SVG 1.1//EN"
 "http://www.w3.org/Graphics/SVG/1.1/DTD/svg11.dtd">
<!-- Generated by graphviz version 2.43.0 (0)
 -->
<!-- Title: fl::audio::detector::Silence::update Pages: 1 -->
<svg width="320pt" height="134pt"
 viewBox="0.00 0.00 320.00 134.00" xmlns="http://www.w3.org/2000/svg" xmlns:xlink="http://www.w3.org/1999/xlink">
<g id="graph0" class="graph" transform="scale(1 1) rotate(0) translate(4 130)">
<title>fl::audio::detector::Silence::update</title>
<!-- Node1 -->
<g id="Node000001" class="node">
<title>Node1</title>
<g id="a_Node000001"><a xlink:title=" ">
<polygon fill="#999999" stroke="#666666" points="102,-78 0,-78 0,-48 102,-48 102,-78"/>
<text text-anchor="start" x="8" y="-66" font-family="Helvetica,sans-Serif" font-size="10.00">fl::audio::detector</text>
<text text-anchor="middle" x="51" y="-55" font-family="Helvetica,sans-Serif" font-size="10.00">::Silence::update</text>
</a>
</g>
</g>
<!-- Node1&#45;&gt;Node1 -->
<g id="edge4_Node000001_Node000001" class="edge">
<title>Node1&#45;&gt;Node1</title>
<g id="a_edge4_Node000001_Node000001"><a xlink:title=" ">
<path fill="none" stroke="#63b8ff" d="M20.41,-78.28C13.62,-87.41 23.81,-96 51,-96 67.14,-96 77.29,-92.97 81.46,-88.6"/>
<polygon fill="#63b8ff" stroke="#63b8ff" points="84.96,-88.32 81.59,-78.28 77.96,-88.23 84.96,-88.32"/>
</a>
</g>
</g>
<!-- Node2 -->
<g id="Node000002" class="node">
<title>Node2</title>
<g id="a_Node000002"><a xlink:href="../../d2/d67/classfl_1_1audio_1_1detector_1_1_silence_a03107fa4d456df1138c0fa65fd917678.html#a03107fa4d456df1138c0fa65fd917678" target="_top" xlink:title=" ">
<polygon fill="white" stroke="#666666" points="276,-126 174,-126 174,-96 276,-96 276,-126"/>
<text text-anchor="start" x="182" y="-114" font-family="Helvetica,sans-Serif" font-size="10.00">fl::audio::detector</text>
<text text-anchor="middle" x="225" y="-103" font-family="Helvetica,sans-Serif" font-size="10.00">::Silence::Silence</text>
</a>
</g>
</g>
<!-- Node1&#45;&gt;Node2 -->
<g id="edge1_Node000001_Node000002" class="edge">
<title>Node1&#45;&gt;Node2</title>
<g id="a_edge1_Node000001_Node000002"><a xlink:title=" ">
<path fill="none" stroke="#63b8ff" d="M102.21,-77.01C121.56,-82.41 143.84,-88.63 164.01,-94.26"/>
<polygon fill="#63b8ff" stroke="#63b8ff" points="163.15,-97.65 173.73,-96.97 165.03,-90.91 163.15,-97.65"/>
</a>
</g>
</g>
<!-- Node3 -->
<g id="Node000003" class="node">
<title>Node3</title>
<g id="a_Node000003"><a xlink:href="../../d2/d67/classfl_1_1audio_1_1detector_1_1_silence_a0b804da76b305090bd16bda7fd358865.html#a0b804da76b305090bd16bda7fd358865" target="_top" xlink:title=" ">
<polygon fill="white" stroke="#666666" points="312,-78 138,-78 138,-48 312,-48 312,-78"/>
<text text-anchor="start" x="146" y="-66" font-family="Helvetica,sans-Serif" font-size="10.00">fl::audio::detector</text>
<text text-anchor="middle" x="225" y="-55" font-family="Helvetica,sans-Serif" font-size="10.00">::Silence::checkSilenceCondition</text>
</a>
</g>
</g>
<!-- Node1&#45;&gt;Node3 -->
<g id="edge2_Node000001_Node000003" class="edge">
<title>Node1&#45;&gt;Node3</title>
<g id="a_edge2_Node000001_Node000003"><a xlink:title=" ">
<path fill="none" stroke="#63b8ff" d="M102.21,-63C110.27,-63 118.83,-63 127.54,-63"/>
<polygon fill="#63b8ff" stroke="#63b8ff" points="127.8,-66.5 137.8,-63 127.8,-59.5 127.8,-66.5"/>
</a>
</g>
</g>
<!-- Node4 -->
<g id="Node000004" class="node">
<title>Node4</title>
<g id="a_Node000004"><a xlink:href="../../d2/d67/classfl_1_1audio_1_1detector_1_1_silence_a09757c15a22c9c4fc845f9ebc70d837e.html#a09757c15a22c9c4fc845f9ebc70d837e" target="_top" xlink:title=" ">
<polygon fill="white" stroke="#666666" points="300.5,-30 149.5,-30 149.5,0 300.5,0 300.5,-30"/>
<text text-anchor="start" x="157.5" y="-18" font-family="Helvetica,sans-Serif" font-size="10.00">fl::audio::detector</text>
<text text-anchor="middle" x="225" y="-7" font-family="Helvetica,sans-Serif" font-size="10.00">::Silence::getSmoothedRMS</text>
</a>
</g>
</g>
<!-- Node1&#45;&gt;Node4 -->
<g id="edge3_Node000001_Node000004" class="edge">
<title>Node1&#45;&gt;Node4</title>
<g id="a_edge3_Node000001_Node000004"><a xlink:title=" ">
<path fill="none" stroke="#63b8ff" d="M102.21,-48.99C120.37,-43.92 141.11,-38.13 160.27,-32.79"/>
<polygon fill="#63b8ff" stroke="#63b8ff" points="161.43,-36.09 170.12,-30.04 159.55,-29.35 161.43,-36.09"/>
</a>
</g>
</g>
</g>
</svg>
