<?xml version="1.0" encoding="UTF-8" standalone="no"?>
<!DOCTYPE svg PUBLIC "-//W3C//DTD SVG 1.1//EN"
 "http://www.w3.org/Graphics/SVG/1.1/DTD/svg11.dtd">
<!-- Generated by graphviz version 2.43.0 (0)
 -->
<!-- Title: cleanup_R1 Pages: 1 -->
<svg width="769pt" height="1018pt"
 viewBox="0.00 0.00 769.00 1018.45" xmlns="http://www.w3.org/2000/svg" xmlns:xlink="http://www.w3.org/1999/xlink">
<g id="graph0" class="graph" transform="scale(1 1) rotate(0) translate(4 1014.45)">
<title>cleanup_R1</title>
<!-- Node1 -->
<g id="Node000001" class="node">
<title>Node1</title>
<g id="a_Node000001"><a xlink:title="Clean up the r1 register after a series of *LEAVING_R1_DIRTY calls.">
<polygon fill="#999999" stroke="#666666" points="761,-394 688,-394 688,-375 761,-375 761,-394"/>
<text text-anchor="middle" x="724.5" y="-382" font-family="Helvetica,sans-Serif" font-size="10.00">cleanup_R1</text>
</a>
</g>
</g>
<!-- Node2 -->
<g id="Node000002" class="node">
<title>Node2</title>
<g id="a_Node000002"><a xlink:href="../../d5/d98/group___math_ga9a604de042246d6c87fdbfdd5578f377.html#ga9a604de042246d6c87fdbfdd5578f377" target="_top" xlink:title="Blend a variable proportion (0&#45;255) of one byte to another.">
<polygon fill="white" stroke="#666666" points="620.5,-572 570.5,-572 570.5,-553 620.5,-553 620.5,-572"/>
<text text-anchor="middle" x="595.5" y="-560" font-family="Helvetica,sans-Serif" font-size="10.00">blend8</text>
</a>
</g>
</g>
<!-- Node1&#45;&gt;Node2 -->
<g id="edge1_Node000001_Node000002" class="edge">
<title>Node1&#45;&gt;Node2</title>
<g id="a_edge1_Node000001_Node000002"><a xlink:title=" ">
<path fill="none" stroke="#63b8ff" d="M716.8,-403.44C706.21,-431.46 683.55,-484.63 652,-521.5 641.02,-534.33 625.3,-545.47 613.39,-552.88"/>
<polygon fill="#63b8ff" stroke="#63b8ff" points="720.09,-404.61 720.25,-394.01 713.52,-402.2 720.09,-404.61"/>
</a>
</g>
</g>
<!-- Node11 -->
<g id="Node000011" class="node">
<title>Node11</title>
<g id="a_Node000011"><a xlink:href="../../d4/d36/namespacefl_aa1e0cd66825220bead12cfc1ab7f33c6.html#aa1e0cd66825220bead12cfc1ab7f33c6" target="_top" xlink:title=" ">
<polygon fill="white" stroke="#666666" points="485,-572 423,-572 423,-553 485,-553 485,-572"/>
<text text-anchor="middle" x="454" y="-560" font-family="Helvetica,sans-Serif" font-size="10.00">fl::nblend</text>
</a>
</g>
</g>
<!-- Node1&#45;&gt;Node11 -->
<g id="edge41_Node000001_Node000011" class="edge">
<title>Node1&#45;&gt;Node11</title>
<g id="a_edge41_Node000001_Node000011"><a xlink:title=" ">
<path fill="none" stroke="#63b8ff" d="M712.68,-402.88C700.2,-422.76 678.02,-454.32 652,-474.5 599.76,-515.02 525.91,-541.5 485.08,-554.04"/>
<polygon fill="#63b8ff" stroke="#63b8ff" points="715.78,-404.52 718,-394.16 709.81,-400.87 715.78,-404.52"/>
</a>
</g>
</g>
<!-- Node16 -->
<g id="Node000016" class="node">
<title>Node16</title>
<g id="a_Node000016"><a xlink:href="../../d4/d36/namespacefl_a36a7be19ed0bffbb62d8dadc9016df39.html#a36a7be19ed0bffbb62d8dadc9016df39" target="_top" xlink:title=" ">
<polygon fill="white" stroke="#666666" points="140,-991 27,-991 27,-972 140,-972 140,-991"/>
<text text-anchor="middle" x="83.5" y="-979" font-family="Helvetica,sans-Serif" font-size="10.00">fl::ColorFromPalette</text>
</a>
</g>
</g>
<!-- Node1&#45;&gt;Node16 -->
<g id="edge24_Node000001_Node000016" class="edge">
<title>Node1&#45;&gt;Node16</title>
<g id="a_edge24_Node000001_Node000016"><a xlink:title=" ">
<path fill="none" stroke="#63b8ff" d="M723.12,-404.41C721.15,-487.55 709.89,-806.22 652,-884.5 530.01,-1049.44 238.83,-1012.25 128.18,-991.02"/>
<polygon fill="#63b8ff" stroke="#63b8ff" points="726.62,-404.37 723.34,-394.29 719.62,-404.22 726.62,-404.37"/>
</a>
</g>
</g>
<!-- Node17 -->
<g id="Node000017" class="node">
<title>Node17</title>
<g id="a_Node000017"><a xlink:href="../../d4/d36/namespacefl_a47a180e0f9f1a72bb559c6b66c19c55a.html#a47a180e0f9f1a72bb559c6b66c19c55a" target="_top" xlink:title=" ">
<polygon fill="white" stroke="#666666" points="140,-948 27,-948 27,-929 140,-929 140,-948"/>
<text text-anchor="middle" x="83.5" y="-936" font-family="Helvetica,sans-Serif" font-size="10.00">fl::ColorFromPalette</text>
</a>
</g>
</g>
<!-- Node1&#45;&gt;Node17 -->
<g id="edge25_Node000001_Node000017" class="edge">
<title>Node1&#45;&gt;Node17</title>
<g id="a_edge25_Node000001_Node000017"><a xlink:title=" ">
<path fill="none" stroke="#63b8ff" d="M722.68,-404.53C719.16,-481.71 703.14,-758.87 652,-827.5 532.04,-988.51 253.14,-965.69 136.87,-948"/>
<polygon fill="#63b8ff" stroke="#63b8ff" points="726.19,-404.43 723.13,-394.28 719.19,-404.12 726.19,-404.43"/>
</a>
</g>
</g>
<!-- Node18 -->
<g id="Node000018" class="node">
<title>Node18</title>
<g id="a_Node000018"><a xlink:href="../../d4/d36/namespacefl_a3d488dd1e2d27e99307310527e51cad3.html#a3d488dd1e2d27e99307310527e51cad3" target="_top" xlink:title=" ">
<polygon fill="#fff0f0" stroke="red" points="140,-901 27,-901 27,-882 140,-882 140,-901"/>
<text text-anchor="middle" x="83.5" y="-889" font-family="Helvetica,sans-Serif" font-size="10.00">fl::ColorFromPalette</text>
</a>
</g>
</g>
<!-- Node1&#45;&gt;Node18 -->
<g id="edge26_Node000001_Node000018" class="edge">
<title>Node1&#45;&gt;Node18</title>
<g id="a_edge26_Node000001_Node000018"><a xlink:title=" ">
<path fill="none" stroke="#63b8ff" d="M722.16,-404.11C717.04,-474.11 696.69,-710.65 652,-769.5 531.33,-928.42 257.84,-914.49 140.11,-900.02"/>
<polygon fill="#63b8ff" stroke="#63b8ff" points="725.66,-404.25 722.88,-394.03 718.68,-403.75 725.66,-404.25"/>
</a>
</g>
</g>
<!-- Node43 -->
<g id="Node000043" class="node">
<title>Node43</title>
<g id="a_Node000043"><a xlink:href="../../d4/d36/namespacefl_a5f62d75a364add5a843f4ec1a0f249a3.html#a5f62d75a364add5a843f4ec1a0f249a3" target="_top" xlink:title=" ">
<polygon fill="white" stroke="#666666" points="140,-845 27,-845 27,-826 140,-826 140,-845"/>
<text text-anchor="middle" x="83.5" y="-833" font-family="Helvetica,sans-Serif" font-size="10.00">fl::ColorFromPalette</text>
</a>
</g>
</g>
<!-- Node1&#45;&gt;Node43 -->
<g id="edge28_Node000001_Node000043" class="edge">
<title>Node1&#45;&gt;Node43</title>
<g id="a_edge28_Node000001_Node000043"><a xlink:title=" ">
<path fill="none" stroke="#63b8ff" d="M721.3,-404.24C713.98,-467.1 688.77,-661.47 652,-711.5 533.59,-872.6 258.24,-858.55 140.03,-844.01"/>
<polygon fill="#63b8ff" stroke="#63b8ff" points="724.8,-404.42 722.46,-394.09 717.85,-403.63 724.8,-404.42"/>
</a>
</g>
</g>
<!-- Node44 -->
<g id="Node000044" class="node">
<title>Node44</title>
<g id="a_Node000044"><a xlink:href="../../d4/d36/namespacefl_a7329afb7be18e62f615ed9696cb766b0.html#a7329afb7be18e62f615ed9696cb766b0" target="_top" xlink:title=" ">
<polygon fill="white" stroke="#666666" points="140,-770 27,-770 27,-751 140,-751 140,-770"/>
<text text-anchor="middle" x="83.5" y="-758" font-family="Helvetica,sans-Serif" font-size="10.00">fl::ColorFromPalette</text>
</a>
</g>
</g>
<!-- Node1&#45;&gt;Node44 -->
<g id="edge29_Node000001_Node000044" class="edge">
<title>Node1&#45;&gt;Node44</title>
<g id="a_edge29_Node000001_Node000044"><a xlink:title=" ">
<path fill="none" stroke="#63b8ff" d="M722.62,-404.29C719.65,-451.34 706.83,-571.97 652,-652.5 605.67,-720.54 576.65,-725.73 503,-762.5 382.65,-822.58 335.57,-825.3 203,-802.5 167.29,-796.36 128.07,-780.52 104.9,-770.15"/>
<polygon fill="#63b8ff" stroke="#63b8ff" points="726.12,-404.39 723.17,-394.21 719.13,-404.01 726.12,-404.39"/>
</a>
</g>
</g>
<!-- Node45 -->
<g id="Node000045" class="node">
<title>Node45</title>
<g id="a_Node000045"><a xlink:href="../../d4/d36/namespacefl_a5010201c23a97f99e2e1426523156aef.html#a5010201c23a97f99e2e1426523156aef" target="_top" xlink:title=" ">
<polygon fill="white" stroke="#666666" points="140,-658 27,-658 27,-639 140,-639 140,-658"/>
<text text-anchor="middle" x="83.5" y="-646" font-family="Helvetica,sans-Serif" font-size="10.00">fl::ColorFromPalette</text>
</a>
</g>
</g>
<!-- Node1&#45;&gt;Node45 -->
<g id="edge30_Node000001_Node000045" class="edge">
<title>Node1&#45;&gt;Node45</title>
<g id="a_edge30_Node000001_Node000045"><a xlink:title=" ">
<path fill="none" stroke="#63b8ff" d="M719.57,-404.28C711.51,-441.44 690.55,-523.19 652,-581.5 602.06,-657.05 579.24,-671.62 503,-720.5 388.88,-793.66 327.32,-829.53 203,-775.5 188.41,-769.16 117.37,-687 92.85,-658.31"/>
<polygon fill="#63b8ff" stroke="#63b8ff" points="723.04,-404.76 721.66,-394.26 716.19,-403.33 723.04,-404.76"/>
</a>
</g>
</g>
<!-- Node46 -->
<g id="Node000046" class="node">
<title>Node46</title>
<g id="a_Node000046"><a xlink:href="../../d4/d36/namespacefl_a73e0ee081b438735edf45662307c493f.html#a73e0ee081b438735edf45662307c493f" target="_top" xlink:title=" ">
<polygon fill="white" stroke="#666666" points="162.5,-432 4.5,-432 4.5,-413 162.5,-413 162.5,-432"/>
<text text-anchor="middle" x="83.5" y="-420" font-family="Helvetica,sans-Serif" font-size="10.00">fl::ColorFromPaletteExtended</text>
</a>
</g>
</g>
<!-- Node1&#45;&gt;Node46 -->
<g id="edge31_Node000001_Node000046" class="edge">
<title>Node1&#45;&gt;Node46</title>
<g id="a_edge31_Node000001_Node000046"><a xlink:title=" ">
<path fill="none" stroke="#63b8ff" d="M677.83,-394.51C669.28,-396.08 660.4,-397.51 652,-398.5 478.18,-419.07 272.57,-422.66 162.82,-422.92"/>
<polygon fill="#63b8ff" stroke="#63b8ff" points="678.5,-397.94 687.66,-392.62 677.18,-391.07 678.5,-397.94"/>
</a>
</g>
</g>
<!-- Node47 -->
<g id="Node000047" class="node">
<title>Node47</title>
<g id="a_Node000047"><a xlink:href="../../d4/d36/namespacefl_a5a9c1835f4e39f35cc4fbcec1b7daa87.html#a5a9c1835f4e39f35cc4fbcec1b7daa87" target="_top" xlink:title=" ">
<polygon fill="white" stroke="#666666" points="162.5,-394 4.5,-394 4.5,-375 162.5,-375 162.5,-394"/>
<text text-anchor="middle" x="83.5" y="-382" font-family="Helvetica,sans-Serif" font-size="10.00">fl::ColorFromPaletteExtended</text>
</a>
</g>
</g>
<!-- Node1&#45;&gt;Node47 -->
<g id="edge32_Node000001_Node000047" class="edge">
<title>Node1&#45;&gt;Node47</title>
<g id="a_edge32_Node000001_Node000047"><a xlink:title=" ">
<path fill="none" stroke="#63b8ff" d="M677.51,-384.5C569.24,-384.5 297.24,-384.5 162.55,-384.5"/>
<polygon fill="#63b8ff" stroke="#63b8ff" points="677.78,-388 687.78,-384.5 677.78,-381 677.78,-388"/>
</a>
</g>
</g>
<!-- Node48 -->
<g id="Node000048" class="node">
<title>Node48</title>
<g id="a_Node000048"><a xlink:href="../../d4/d36/namespacefl_a6a2c1ac508cdebdb083137793e219560.html#a6a2c1ac508cdebdb083137793e219560" target="_top" xlink:title=" ">
<polygon fill="white" stroke="#666666" points="162.5,-280 4.5,-280 4.5,-261 162.5,-261 162.5,-280"/>
<text text-anchor="middle" x="83.5" y="-268" font-family="Helvetica,sans-Serif" font-size="10.00">fl::ColorFromPaletteExtended</text>
</a>
</g>
</g>
<!-- Node1&#45;&gt;Node48 -->
<g id="edge33_Node000001_Node000048" class="edge">
<title>Node1&#45;&gt;Node48</title>
<g id="a_edge33_Node000001_Node000048"><a xlink:title=" ">
<path fill="none" stroke="#63b8ff" d="M718.2,-365.04C709.48,-337.2 689.26,-286.79 652,-263.5 473.21,-151.72 196.77,-231.71 110.88,-260.97"/>
<polygon fill="#63b8ff" stroke="#63b8ff" points="714.89,-366.21 721.07,-374.82 721.61,-364.24 714.89,-366.21"/>
</a>
</g>
</g>
<!-- Node53 -->
<g id="Node000053" class="node">
<title>Node53</title>
<g id="a_Node000053"><a xlink:href="../../d8/da0/_fx_water_8h_aa04e7c98cb0803818832555bf128fb57.html#aa04e7c98cb0803818832555bf128fb57" target="_top" xlink:title=" ">
<polygon fill="#fff0f0" stroke="red" points="164,-356 3,-356 3,-337 164,-337 164,-356"/>
<text text-anchor="middle" x="83.5" y="-344" font-family="Helvetica,sans-Serif" font-size="10.00">MyColorFromPaletteExtended</text>
</a>
</g>
</g>
<!-- Node1&#45;&gt;Node53 -->
<g id="edge39_Node000001_Node000053" class="edge">
<title>Node1&#45;&gt;Node53</title>
<g id="a_edge39_Node000001_Node000053"><a xlink:title=" ">
<path fill="none" stroke="#63b8ff" d="M695.03,-370.76C682.17,-365.13 666.61,-359.11 652,-355.5 457.88,-307.59 402.31,-311.62 203,-327.5 179.74,-329.35 154.15,-333.22 132.72,-336.99"/>
<polygon fill="#63b8ff" stroke="#63b8ff" points="693.72,-374.01 704.28,-374.94 696.61,-367.63 693.72,-374.01"/>
</a>
</g>
</g>
<!-- Node58 -->
<g id="Node000058" class="node">
<title>Node58</title>
<g id="a_Node000058"><a xlink:href="../../d4/d36/namespacefl_af0ac54635bfbb14a22960c5e56408ed1.html#af0ac54635bfbb14a22960c5e56408ed1" target="_top" xlink:title=" ">
<polygon fill="white" stroke="#666666" points="652,-204 539,-204 539,-185 652,-185 652,-204"/>
<text text-anchor="middle" x="595.5" y="-192" font-family="Helvetica,sans-Serif" font-size="10.00">fl::ColorFromPalette</text>
</a>
</g>
</g>
<!-- Node1&#45;&gt;Node58 -->
<g id="edge27_Node000001_Node000058" class="edge">
<title>Node1&#45;&gt;Node58</title>
<g id="a_edge27_Node000001_Node000058"><a xlink:title=" ">
<path fill="none" stroke="#63b8ff" d="M719.95,-364.79C712.84,-330.7 693.83,-260.39 652,-218.5 645.84,-212.33 637.84,-207.64 629.85,-204.12"/>
<polygon fill="#63b8ff" stroke="#63b8ff" points="716.56,-365.72 721.91,-374.86 723.43,-364.38 716.56,-365.72"/>
</a>
</g>
</g>
<!-- Node59 -->
<g id="Node000059" class="node">
<title>Node59</title>
<g id="a_Node000059"><a xlink:href="../../d7/d82/struct_c_r_g_b_a940908cc69606bdabe3b2d32a9097356.html#a940908cc69606bdabe3b2d32a9097356" target="_top" xlink:title="Get the average of the R, G, and B values.">
<polygon fill="white" stroke="#666666" points="351,-470 221,-470 221,-451 351,-451 351,-470"/>
<text text-anchor="middle" x="286" y="-458" font-family="Helvetica,sans-Serif" font-size="10.00">CRGB::getAverageLight</text>
</a>
</g>
</g>
<!-- Node1&#45;&gt;Node59 -->
<g id="edge34_Node000001_Node000059" class="edge">
<title>Node1&#45;&gt;Node59</title>
<g id="a_edge34_Node000001_Node000059"><a xlink:title=" ">
<path fill="none" stroke="#63b8ff" d="M706.38,-401.31C692.83,-413.45 672.8,-428.97 652,-436.5 551.68,-472.81 425.84,-471.8 351.17,-466.81"/>
<polygon fill="#63b8ff" stroke="#63b8ff" points="708.98,-403.66 713.92,-394.29 704.22,-398.54 708.98,-403.66"/>
</a>
</g>
</g>
<!-- Node60 -->
<g id="Node000060" class="node">
<title>Node60</title>
<g id="a_Node000060"><a xlink:href="../../d7/d82/struct_c_r_g_b_a1646931c5c6fe7a68548474388a3e97c.html#a1646931c5c6fe7a68548474388a3e97c" target="_top" xlink:title="Get the &quot;luma&quot; of a CRGB object.">
<polygon fill="white" stroke="#666666" points="642,-167 549,-167 549,-148 642,-148 642,-167"/>
<text text-anchor="middle" x="595.5" y="-155" font-family="Helvetica,sans-Serif" font-size="10.00">CRGB::getLuma</text>
</a>
</g>
</g>
<!-- Node1&#45;&gt;Node60 -->
<g id="edge37_Node000001_Node000060" class="edge">
<title>Node1&#45;&gt;Node60</title>
<g id="a_edge37_Node000001_Node000060"><a xlink:title=" ">
<path fill="none" stroke="#63b8ff" d="M722.41,-364.46C719.1,-323.23 705.72,-228.36 652,-175.5 648.53,-172.09 644.42,-169.33 640.01,-167.08"/>
<polygon fill="#63b8ff" stroke="#63b8ff" points="718.93,-364.85 723.11,-374.58 725.92,-364.37 718.93,-364.85"/>
</a>
</g>
</g>
<!-- Node61 -->
<g id="Node000061" class="node">
<title>Node61</title>
<g id="a_Node000061"><a xlink:href="../../df/d9d/hsv2rgb_8cpp_a06ee0f21e1bf430ea547244f6ed4add8.html#a06ee0f21e1bf430ea547244f6ed4add8" target="_top" xlink:title=" ">
<polygon fill="white" stroke="#666666" points="645.5,-130 545.5,-130 545.5,-111 645.5,-111 645.5,-130"/>
<text text-anchor="middle" x="595.5" y="-118" font-family="Helvetica,sans-Serif" font-size="10.00">hsv2rgb_rainbow</text>
</a>
</g>
</g>
<!-- Node1&#45;&gt;Node61 -->
<g id="edge38_Node000001_Node000061" class="edge">
<title>Node1&#45;&gt;Node61</title>
<g id="a_edge38_Node000001_Node000061"><a xlink:title=" ">
<path fill="none" stroke="#63b8ff" d="M723.65,-364.82C722.89,-318.75 714.51,-202.96 652,-138.5 648.69,-135.08 644.72,-132.31 640.45,-130.07"/>
<polygon fill="#63b8ff" stroke="#63b8ff" points="720.15,-364.97 723.7,-374.95 727.15,-364.93 720.15,-364.97"/>
</a>
</g>
</g>
<!-- Node62 -->
<g id="Node000062" class="node">
<title>Node62</title>
<g id="a_Node000062"><a xlink:href="../../d4/d36/namespacefl_a1e63de2e73a3fae5b8de5e487d335eed.html#a1e63de2e73a3fae5b8de5e487d335eed" target="_top" xlink:title=" ">
<polygon fill="white" stroke="#666666" points="626.5,-93 564.5,-93 564.5,-74 626.5,-74 626.5,-93"/>
<text text-anchor="middle" x="595.5" y="-81" font-family="Helvetica,sans-Serif" font-size="10.00">fl::nblend</text>
</a>
</g>
</g>
<!-- Node1&#45;&gt;Node62 -->
<g id="edge40_Node000001_Node000062" class="edge">
<title>Node1&#45;&gt;Node62</title>
<g id="a_edge40_Node000001_Node000062"><a xlink:title=" ">
<path fill="none" stroke="#63b8ff" d="M721.03,-364.91C713.4,-307.38 688.52,-140.52 652,-101.5 645.36,-94.4 635.89,-90.09 626.65,-87.48"/>
<polygon fill="#63b8ff" stroke="#63b8ff" points="717.57,-365.42 722.32,-374.89 724.51,-364.52 717.57,-365.42"/>
</a>
</g>
</g>
<!-- Node63 -->
<g id="Node000063" class="node">
<title>Node63</title>
<g id="a_Node000063"><a xlink:href="../../d0/da8/group___scaling_ga6f419761a744efed4bae8875ac07aef0.html#ga6f419761a744efed4bae8875ac07aef0" target="_top" xlink:title="Scale two one&#45;byte values by a third one, which is treated as the numerator of a fraction whose demom...">
<polygon fill="white" stroke="#666666" points="628.5,-56 562.5,-56 562.5,-37 628.5,-37 628.5,-56"/>
<text text-anchor="middle" x="595.5" y="-44" font-family="Helvetica,sans-Serif" font-size="10.00">nscale8x2</text>
</a>
</g>
</g>
<!-- Node1&#45;&gt;Node63 -->
<g id="edge42_Node000001_Node000063" class="edge">
<title>Node1&#45;&gt;Node63</title>
<g id="a_edge42_Node000001_Node000063"><a xlink:title=" ">
<path fill="none" stroke="#63b8ff" d="M721.64,-364.86C715.35,-302.35 692.95,-109.48 652,-64.5 645.86,-57.76 637.18,-53.53 628.5,-50.89"/>
<polygon fill="#63b8ff" stroke="#63b8ff" points="718.17,-365.34 722.63,-374.95 725.14,-364.66 718.17,-365.34"/>
</a>
</g>
</g>
<!-- Node64 -->
<g id="Node000064" class="node">
<title>Node64</title>
<g id="a_Node000064"><a xlink:href="../../d0/da8/group___scaling_ga4204edd4a3f8aac7124a10f1f5cfccfe.html#ga4204edd4a3f8aac7124a10f1f5cfccfe" target="_top" xlink:title="Scale two one&#45;byte values by a third one, which is treated as the numerator of a fraction whose demom...">
<polygon fill="white" stroke="#666666" points="644.5,-19 546.5,-19 546.5,0 644.5,0 644.5,-19"/>
<text text-anchor="middle" x="595.5" y="-7" font-family="Helvetica,sans-Serif" font-size="10.00">nscale8x2_video</text>
</a>
</g>
</g>
<!-- Node1&#45;&gt;Node64 -->
<g id="edge43_Node000001_Node000064" class="edge">
<title>Node1&#45;&gt;Node64</title>
<g id="a_edge43_Node000001_Node000064"><a xlink:title=" ">
<path fill="none" stroke="#63b8ff" d="M722.13,-364.81C717.09,-297.59 697.39,-78.49 652,-27.5 648.97,-24.1 645.29,-21.33 641.28,-19.09"/>
<polygon fill="#63b8ff" stroke="#63b8ff" points="718.65,-365.17 722.86,-374.89 725.63,-364.67 718.65,-365.17"/>
</a>
</g>
</g>
<!-- Node65 -->
<g id="Node000065" class="node">
<title>Node65</title>
<g id="a_Node000065"><a xlink:href="../../d0/da8/group___scaling_ga39bf87e5526120889086cab19ac749b1.html#ga39bf87e5526120889086cab19ac749b1" target="_top" xlink:title="Scale three one&#45;byte values by a fourth one, which is treated as the numerator of a fraction whose de...">
<polygon fill="white" stroke="#666666" points="319,-356 253,-356 253,-337 319,-337 319,-356"/>
<text text-anchor="middle" x="286" y="-344" font-family="Helvetica,sans-Serif" font-size="10.00">nscale8x3</text>
</a>
</g>
</g>
<!-- Node1&#45;&gt;Node65 -->
<g id="edge44_Node000001_Node000065" class="edge">
<title>Node1&#45;&gt;Node65</title>
<g id="a_edge44_Node000001_Node000065"><a xlink:title=" ">
<path fill="none" stroke="#63b8ff" d="M677.81,-374.65C669.26,-373.07 660.38,-371.59 652,-370.5 529.83,-354.59 383.21,-349.01 319.36,-347.24"/>
<polygon fill="#63b8ff" stroke="#63b8ff" points="677.16,-378.09 687.64,-376.55 678.48,-371.22 677.16,-378.09"/>
</a>
</g>
</g>
<!-- Node66 -->
<g id="Node000066" class="node">
<title>Node66</title>
<g id="a_Node000066"><a xlink:href="../../d0/da8/group___scaling_ga700b7f510f32e8c91385093c436c27d9.html#ga700b7f510f32e8c91385093c436c27d9" target="_top" xlink:title="Scale three one&#45;byte values by a fourth one, which is treated as the numerator of a fraction whose de...">
<polygon fill="white" stroke="#666666" points="503,-280 405,-280 405,-261 503,-261 503,-280"/>
<text text-anchor="middle" x="454" y="-268" font-family="Helvetica,sans-Serif" font-size="10.00">nscale8x3_video</text>
</a>
</g>
</g>
<!-- Node1&#45;&gt;Node66 -->
<g id="edge48_Node000001_Node000066" class="edge">
<title>Node1&#45;&gt;Node66</title>
<g id="a_edge48_Node000001_Node000066"><a xlink:title=" ">
<path fill="none" stroke="#63b8ff" d="M714.4,-365.84C702.99,-344.65 681.31,-310.91 652,-294.5 606.15,-268.83 545.02,-265.23 503.08,-266.51"/>
<polygon fill="#63b8ff" stroke="#63b8ff" points="711.35,-367.56 719.04,-374.84 717.57,-364.35 711.35,-367.56"/>
</a>
</g>
</g>
<!-- Node3 -->
<g id="Node000003" class="node">
<title>Node3</title>
<g id="a_Node000003"><a xlink:href="../../d7/d82/struct_c_r_g_b_a6348cb098a0b27f443bd1af290dafa94.html#a6348cb098a0b27f443bd1af290dafa94" target="_top" xlink:title=" ">
<polygon fill="white" stroke="#666666" points="492.5,-711 415.5,-711 415.5,-692 492.5,-692 492.5,-711"/>
<text text-anchor="middle" x="454" y="-699" font-family="Helvetica,sans-Serif" font-size="10.00">CRGB::blend</text>
</a>
</g>
</g>
<!-- Node2&#45;&gt;Node3 -->
<g id="edge2_Node000002_Node000003" class="edge">
<title>Node2&#45;&gt;Node3</title>
<g id="a_edge2_Node000002_Node000003"><a xlink:title=" ">
<path fill="none" stroke="#63b8ff" d="M577.81,-579.13C548.37,-608.47 488.12,-668.5 464.66,-691.88"/>
<polygon fill="#63b8ff" stroke="#63b8ff" points="580.3,-581.59 584.91,-572.05 575.36,-576.63 580.3,-581.59"/>
</a>
</g>
</g>
<!-- Node2&#45;&gt;Node11 -->
<g id="edge6_Node000002_Node000011" class="edge">
<title>Node2&#45;&gt;Node11</title>
<g id="a_edge6_Node000002_Node000011"><a xlink:title=" ">
<path fill="none" stroke="#63b8ff" d="M560.18,-562.5C537.17,-562.5 507.16,-562.5 485.09,-562.5"/>
<polygon fill="#63b8ff" stroke="#63b8ff" points="560.2,-566 570.2,-562.5 560.2,-559 560.2,-566"/>
</a>
</g>
</g>
<!-- Node4 -->
<g id="Node000004" class="node">
<title>Node4</title>
<g id="a_Node000004"><a xlink:href="../../d7/d82/struct_c_r_g_b_aba8579ca7247cc690e8899d68e95a601.html#aba8579ca7247cc690e8899d68e95a601" target="_top" xlink:title=" ">
<polygon fill="#fff0f0" stroke="red" points="369,-766 203,-766 203,-747 369,-747 369,-766"/>
<text text-anchor="middle" x="286" y="-754" font-family="Helvetica,sans-Serif" font-size="10.00">CRGB::blendAlphaMaxChannel</text>
</a>
</g>
</g>
<!-- Node3&#45;&gt;Node4 -->
<g id="edge3_Node000003_Node000004" class="edge">
<title>Node3&#45;&gt;Node4</title>
<g id="a_edge3_Node000003_Node000004"><a xlink:title=" ">
<path fill="none" stroke="#63b8ff" d="M424.73,-715.64C408.69,-723.23 388.07,-732.28 369,-738.5 359.16,-741.71 348.47,-744.53 338.16,-746.92"/>
<polygon fill="#63b8ff" stroke="#63b8ff" points="426.58,-718.63 434.07,-711.14 423.55,-712.32 426.58,-718.63"/>
</a>
</g>
</g>
<!-- Node9 -->
<g id="Node000009" class="node">
<title>Node9</title>
<g id="a_Node000009"><a xlink:href="../../d7/df1/classfl_1_1_fx_compositor_a8840fcdf53b2e7a15216ae510ac0af56.html#a8840fcdf53b2e7a15216ae510ac0af56" target="_top" xlink:title=" ">
<polygon fill="white" stroke="#666666" points="349.5,-729 222.5,-729 222.5,-710 349.5,-710 349.5,-729"/>
<text text-anchor="middle" x="286" y="-717" font-family="Helvetica,sans-Serif" font-size="10.00">fl::FxCompositor::draw</text>
</a>
</g>
</g>
<!-- Node3&#45;&gt;Node9 -->
<g id="edge4_Node000003_Node000009" class="edge">
<title>Node3&#45;&gt;Node9</title>
<g id="a_edge4_Node000003_Node000009"><a xlink:title=" ">
<path fill="none" stroke="#63b8ff" d="M404.93,-706.71C387.66,-708.59 367.92,-710.73 349.59,-712.71"/>
<polygon fill="#63b8ff" stroke="#63b8ff" points="405.77,-710.14 415.33,-705.58 405.01,-703.18 405.77,-710.14"/>
</a>
</g>
</g>
<!-- Node10 -->
<g id="Node000010" class="node">
<title>Node10</title>
<g id="a_Node000010"><a xlink:href="../../d1/de0/classfl_1_1_frame_a18b6f7181804a0392e40796f46352115.html#a18b6f7181804a0392e40796f46352115" target="_top" xlink:title=" ">
<polygon fill="white" stroke="#666666" points="345.5,-692 226.5,-692 226.5,-673 345.5,-673 345.5,-692"/>
<text text-anchor="middle" x="286" y="-680" font-family="Helvetica,sans-Serif" font-size="10.00">fl::Frame::interpolate</text>
</a>
</g>
</g>
<!-- Node3&#45;&gt;Node10 -->
<g id="edge5_Node000003_Node000010" class="edge">
<title>Node3&#45;&gt;Node10</title>
<g id="a_edge5_Node000003_Node000010"><a xlink:title=" ">
<path fill="none" stroke="#63b8ff" d="M405.33,-696.04C386.73,-693.92 365.22,-691.45 345.69,-689.22"/>
<polygon fill="#63b8ff" stroke="#63b8ff" points="405,-699.53 415.33,-697.19 405.79,-692.57 405,-699.53"/>
</a>
</g>
</g>
<!-- Node12 -->
<g id="Node000012" class="node">
<title>Node12</title>
<g id="a_Node000012"><a xlink:href="../../d4/d36/namespacefl_a10d9c25a1a106557eacc6c75225e8a07.html#a10d9c25a1a106557eacc6c75225e8a07" target="_top" xlink:title=" ">
<polygon fill="white" stroke="#666666" points="314,-581 258,-581 258,-562 314,-562 314,-581"/>
<text text-anchor="middle" x="286" y="-569" font-family="Helvetica,sans-Serif" font-size="10.00">fl::blend</text>
</a>
</g>
</g>
<!-- Node11&#45;&gt;Node12 -->
<g id="edge7_Node000011_Node000012" class="edge">
<title>Node11&#45;&gt;Node12</title>
<g id="a_edge7_Node000011_Node000012"><a xlink:title=" ">
<path fill="none" stroke="#63b8ff" d="M412.6,-564.69C382.01,-566.35 340.82,-568.58 314.09,-570.03"/>
<polygon fill="#63b8ff" stroke="#63b8ff" points="413.14,-568.17 422.94,-564.13 412.76,-561.18 413.14,-568.17"/>
</a>
</g>
</g>
<!-- Node13 -->
<g id="Node000013" class="node">
<title>Node13</title>
<g id="a_Node000013"><a xlink:href="../../d4/d36/namespacefl_a924fc8748f53389e55fdc63bfc14b805.html#a924fc8748f53389e55fdc63bfc14b805" target="_top" xlink:title=" ">
<polygon fill="#fff0f0" stroke="red" points="314,-655 258,-655 258,-636 314,-636 314,-655"/>
<text text-anchor="middle" x="286" y="-643" font-family="Helvetica,sans-Serif" font-size="10.00">fl::blend</text>
</a>
</g>
</g>
<!-- Node11&#45;&gt;Node13 -->
<g id="edge8_Node000011_Node000013" class="edge">
<title>Node11&#45;&gt;Node13</title>
<g id="a_edge8_Node000011_Node000013"><a xlink:title=" ">
<path fill="none" stroke="#63b8ff" d="M436.18,-579.22C420.22,-594.12 394.89,-615.4 369,-627.5 351.7,-635.59 330.64,-640.11 314.19,-642.6"/>
<polygon fill="#63b8ff" stroke="#63b8ff" points="438.82,-581.54 443.62,-572.09 433.98,-576.48 438.82,-581.54"/>
</a>
</g>
</g>
<!-- Node55 -->
<g id="Node000055" class="node">
<title>Node55</title>
<g id="a_Node000055"><a xlink:href="../../df/d11/classfl_1_1_pride2015_a331b131b082d622bbd9208bf05308d0d.html#a331b131b082d622bbd9208bf05308d0d" target="_top" xlink:title=" ">
<polygon fill="white" stroke="#666666" points="339.5,-544 232.5,-544 232.5,-525 339.5,-525 339.5,-544"/>
<text text-anchor="middle" x="286" y="-532" font-family="Helvetica,sans-Serif" font-size="10.00">fl::Pride2015::draw</text>
</a>
</g>
</g>
<!-- Node11&#45;&gt;Node55 -->
<g id="edge21_Node000011_Node000055" class="edge">
<title>Node11&#45;&gt;Node55</title>
<g id="a_edge21_Node000011_Node000055"><a xlink:title=" ">
<path fill="none" stroke="#63b8ff" d="M412.94,-555.74C390.94,-552.03 363.39,-547.39 339.67,-543.38"/>
<polygon fill="#63b8ff" stroke="#63b8ff" points="412.5,-559.22 422.94,-557.43 413.66,-552.31 412.5,-559.22"/>
</a>
</g>
</g>
<!-- Node56 -->
<g id="Node000056" class="node">
<title>Node56</title>
<g id="a_Node000056"><a xlink:href="../../d4/d36/namespacefl_a57ed97f9d7249c39ade3eadd22be3cc5.html#a57ed97f9d7249c39ade3eadd22be3cc5" target="_top" xlink:title=" ">
<polygon fill="white" stroke="#666666" points="317,-507 255,-507 255,-488 317,-488 317,-507"/>
<text text-anchor="middle" x="286" y="-495" font-family="Helvetica,sans-Serif" font-size="10.00">fl::nblend</text>
</a>
</g>
</g>
<!-- Node11&#45;&gt;Node56 -->
<g id="edge22_Node000011_Node000056" class="edge">
<title>Node11&#45;&gt;Node56</title>
<g id="a_edge22_Node000011_Node000056"><a xlink:title=" ">
<path fill="none" stroke="#63b8ff" d="M429.55,-547.39C413.15,-537.39 390.43,-524.67 369,-516.5 352.34,-510.15 332.94,-505.53 317.19,-502.45"/>
<polygon fill="#63b8ff" stroke="#63b8ff" points="428.08,-550.59 438.42,-552.9 431.78,-544.65 428.08,-550.59"/>
</a>
</g>
</g>
<!-- Node57 -->
<g id="Node000057" class="node">
<title>Node57</title>
<g id="a_Node000057"><a xlink:href="../../d4/d36/namespacefl_a293efd41430fafa91668716112cd2b09.html#a293efd41430fafa91668716112cd2b09" target="_top" xlink:title=" ">
<polygon fill="white" stroke="#666666" points="317,-618 255,-618 255,-599 317,-599 317,-618"/>
<text text-anchor="middle" x="286" y="-606" font-family="Helvetica,sans-Serif" font-size="10.00">fl::nblend</text>
</a>
</g>
</g>
<!-- Node11&#45;&gt;Node57 -->
<g id="edge23_Node000011_Node000057" class="edge">
<title>Node11&#45;&gt;Node57</title>
<g id="a_edge23_Node000011_Node000057"><a xlink:title=" ">
<path fill="none" stroke="#63b8ff" d="M416.98,-575.44C402.21,-580.5 384.89,-586.12 369,-590.5 352,-595.19 332.75,-599.46 317.18,-602.67"/>
<polygon fill="#63b8ff" stroke="#63b8ff" points="418.44,-578.64 426.74,-572.05 416.14,-572.02 418.44,-578.64"/>
</a>
</g>
</g>
<!-- Node13&#45;&gt;Node16 -->
<g id="edge9_Node000013_Node000016" class="edge">
<title>Node13&#45;&gt;Node16</title>
<g id="a_edge9_Node000013_Node000016"><a xlink:title=" ">
<path fill="none" stroke="#63b8ff" d="M247.6,-645.12C231.63,-646.99 214.14,-652.11 203,-664.5 115.24,-762.03 252.02,-857.57 167,-957.5 160.04,-965.68 150.47,-971.16 140.31,-974.8"/>
<polygon fill="#63b8ff" stroke="#63b8ff" points="248.09,-648.59 257.79,-644.32 247.54,-641.61 248.09,-648.59"/>
</a>
</g>
</g>
<!-- Node13&#45;&gt;Node17 -->
<g id="edge10_Node000013_Node000017" class="edge">
<title>Node13&#45;&gt;Node17</title>
<g id="a_edge10_Node000013_Node000017"><a xlink:title=" ">
<path fill="none" stroke="#63b8ff" d="M247.73,-645.24C231.79,-647.13 214.29,-652.24 203,-664.5 128.15,-745.78 237.72,-825.59 167,-910.5 160.03,-918.87 150.46,-924.74 140.29,-928.87"/>
<polygon fill="#63b8ff" stroke="#63b8ff" points="248.21,-648.71 257.89,-644.42 247.64,-641.73 248.21,-648.71"/>
</a>
</g>
</g>
<!-- Node13&#45;&gt;Node18 -->
<g id="edge11_Node000013_Node000018" class="edge">
<title>Node13&#45;&gt;Node18</title>
<g id="a_edge11_Node000013_Node000018"><a xlink:title=" ">
<path fill="none" stroke="#63b8ff" d="M247.62,-645.5C231.82,-647.47 214.46,-652.57 203,-664.5 143.47,-726.49 220.25,-787.04 167,-854.5 156.59,-867.68 140.47,-876.31 125.23,-881.89"/>
<polygon fill="#63b8ff" stroke="#63b8ff" points="248.04,-648.98 257.7,-644.62 247.43,-642.01 248.04,-648.98"/>
</a>
</g>
</g>
<!-- Node13&#45;&gt;Node43 -->
<g id="edge12_Node000013_Node000043" class="edge">
<title>Node13&#45;&gt;Node43</title>
<g id="a_edge12_Node000013_Node000043"><a xlink:title=" ">
<path fill="none" stroke="#63b8ff" d="M247.46,-646.25C231.99,-648.41 214.93,-653.44 203,-664.5 163.72,-700.91 198.94,-736.51 167,-779.5 151.21,-800.76 124.82,-816.61 106.15,-825.92"/>
<polygon fill="#63b8ff" stroke="#63b8ff" points="248.25,-649.69 257.83,-645.18 247.53,-642.72 248.25,-649.69"/>
</a>
</g>
</g>
<!-- Node13&#45;&gt;Node44 -->
<g id="edge13_Node000013_Node000044" class="edge">
<title>Node13&#45;&gt;Node44</title>
<g id="a_edge13_Node000013_Node000044"><a xlink:title=" ">
<path fill="none" stroke="#63b8ff" d="M247.63,-650.47C233.19,-653.33 216.84,-657.74 203,-664.5 156.37,-687.27 111.68,-731.45 93.29,-750.9"/>
<polygon fill="#63b8ff" stroke="#63b8ff" points="248.52,-653.87 257.74,-648.66 247.28,-646.98 248.52,-653.87"/>
</a>
</g>
</g>
<!-- Node13&#45;&gt;Node45 -->
<g id="edge14_Node000013_Node000045" class="edge">
<title>Node13&#45;&gt;Node45</title>
<g id="a_edge14_Node000013_Node000045"><a xlink:title=" ">
<path fill="none" stroke="#63b8ff" d="M247.85,-646.06C217.64,-646.51 174.56,-647.15 140.22,-647.67"/>
<polygon fill="#63b8ff" stroke="#63b8ff" points="248.01,-649.55 257.96,-645.9 247.91,-642.55 248.01,-649.55"/>
</a>
</g>
</g>
<!-- Node13&#45;&gt;Node46 -->
<g id="edge15_Node000013_Node000046" class="edge">
<title>Node13&#45;&gt;Node46</title>
<g id="a_edge15_Node000013_Node000046"><a xlink:title=" ">
<path fill="none" stroke="#63b8ff" d="M247.89,-645.76C232.14,-643.95 214.75,-639.09 203,-627.5 152.96,-578.14 208.03,-530.57 167,-473.5 152.94,-453.95 128.85,-440.33 110.32,-432.11"/>
<polygon fill="#63b8ff" stroke="#63b8ff" points="247.68,-649.26 257.92,-646.56 248.23,-642.28 247.68,-649.26"/>
</a>
</g>
</g>
<!-- Node13&#45;&gt;Node47 -->
<g id="edge16_Node000013_Node000047" class="edge">
<title>Node13&#45;&gt;Node47</title>
<g id="a_edge16_Node000013_Node000047"><a xlink:title=" ">
<path fill="none" stroke="#63b8ff" d="M247.84,-646.18C231.93,-644.47 214.41,-639.58 203,-627.5 133.75,-554.21 235.87,-477.15 167,-403.5 163.49,-399.74 159.39,-396.66 154.94,-394.13"/>
<polygon fill="#63b8ff" stroke="#63b8ff" points="247.77,-649.68 257.99,-646.89 248.26,-642.7 247.77,-649.68"/>
</a>
</g>
</g>
<!-- Node13&#45;&gt;Node48 -->
<g id="edge17_Node000013_Node000048" class="edge">
<title>Node13&#45;&gt;Node48</title>
<g id="a_edge17_Node000013_Node000048"><a xlink:title=" ">
<path fill="none" stroke="#63b8ff" d="M247.62,-646.39C231.66,-644.72 214.17,-639.81 203,-627.5 112.74,-528.07 236.37,-442.49 167,-327.5 153.42,-304.99 127.16,-289.2 107.9,-280.04"/>
<polygon fill="#63b8ff" stroke="#63b8ff" points="247.6,-649.89 257.8,-647.06 248.06,-642.91 247.6,-649.89"/>
</a>
</g>
</g>
<!-- Node24 -->
<g id="Node000024" class="node">
<title>Node24</title>
<g id="a_Node000024"><a xlink:href="../../de/db5/classfl_1_1_twinkle_fox_a67375829d0da55e17d3f74ac9817914d.html#a67375829d0da55e17d3f74ac9817914d" target="_top" xlink:title=" ">
<polygon fill="#fff0f0" stroke="red" points="167,-593 0,-593 0,-574 167,-574 167,-593"/>
<text text-anchor="middle" x="83.5" y="-581" font-family="Helvetica,sans-Serif" font-size="10.00">fl::TwinkleFox::drawTwinkleFox</text>
</a>
</g>
</g>
<!-- Node13&#45;&gt;Node24 -->
<g id="edge18_Node000013_Node000024" class="edge">
<title>Node13&#45;&gt;Node24</title>
<g id="a_edge18_Node000013_Node000024"><a xlink:title=" ">
<path fill="none" stroke="#63b8ff" d="M247.91,-638.5C233.74,-635.53 217.52,-631.77 203,-627.5 169.1,-617.54 130.97,-602.7 107.34,-593.07"/>
<polygon fill="#63b8ff" stroke="#63b8ff" points="247.3,-641.95 257.8,-640.52 248.7,-635.09 247.3,-641.95"/>
</a>
</g>
</g>
<!-- Node21 -->
<g id="Node000021" class="node">
<title>Node21</title>
<g id="a_Node000021"><a xlink:href="../../d4/dd0/_twinkle_fox_8ino_a6d0a3407d4b43c23c7bdd4aac9fc76fd.html#a6d0a3407d4b43c23c7bdd4aac9fc76fd" target="_top" xlink:title=" ">
<polygon fill="#fff0f0" stroke="red" points="125,-501 42,-501 42,-482 125,-482 125,-501"/>
<text text-anchor="middle" x="83.5" y="-489" font-family="Helvetica,sans-Serif" font-size="10.00">drawTwinkles</text>
</a>
</g>
</g>
<!-- Node13&#45;&gt;Node21 -->
<g id="edge19_Node000013_Node000021" class="edge">
<title>Node13&#45;&gt;Node21</title>
<g id="a_edge19_Node000013_Node000021"><a xlink:title=" ">
<path fill="none" stroke="#63b8ff" d="M247.58,-643.77C232.57,-641.51 215.82,-636.85 203,-627.5 177.26,-608.72 187.11,-590.22 167,-565.5 145.75,-539.38 115,-514.39 97.67,-501.19"/>
<polygon fill="#63b8ff" stroke="#63b8ff" points="247.28,-647.26 257.63,-644.98 248.12,-640.31 247.28,-647.26"/>
</a>
</g>
</g>
<!-- Node13&#45;&gt;Node53 -->
<g id="edge20_Node000013_Node000053" class="edge">
<title>Node13&#45;&gt;Node53</title>
<g id="a_edge20_Node000013_Node000053"><a xlink:title=" ">
<path fill="none" stroke="#63b8ff" d="M247.72,-646.3C231.77,-644.61 214.27,-639.71 203,-627.5 123.26,-541.15 246.3,-452.26 167,-365.5 163.53,-361.7 159.47,-358.59 155.04,-356.04"/>
<polygon fill="#63b8ff" stroke="#63b8ff" points="247.67,-649.8 257.88,-646.98 248.14,-642.82 247.67,-649.8"/>
</a>
</g>
</g>
<!-- Node59&#45;&gt;Node24 -->
<g id="edge35_Node000059_Node000024" class="edge">
<title>Node59&#45;&gt;Node24</title>
<g id="a_edge35_Node000059_Node000024"><a xlink:title=" ">
<path fill="none" stroke="#63b8ff" d="M217.5,-473.26C212.48,-475.07 207.6,-477.14 203,-479.5 201.42,-480.31 124.18,-548.46 95.27,-573.99"/>
<polygon fill="#63b8ff" stroke="#63b8ff" points="218.83,-476.51 227.25,-470.07 216.66,-469.85 218.83,-476.51"/>
</a>
</g>
</g>
<!-- Node59&#45;&gt;Node21 -->
<g id="edge36_Node000059_Node000021" class="edge">
<title>Node59&#45;&gt;Node21</title>
<g id="a_edge36_Node000059_Node000021"><a xlink:title=" ">
<path fill="none" stroke="#63b8ff" d="M213.55,-471.55C183.82,-476.14 150.39,-481.31 125,-485.24"/>
<polygon fill="#63b8ff" stroke="#63b8ff" points="214.13,-475 223.48,-470.01 213.06,-468.08 214.13,-475"/>
</a>
</g>
</g>
<!-- Node65&#45;&gt;Node46 -->
<g id="edge45_Node000065_Node000046" class="edge">
<title>Node65&#45;&gt;Node46</title>
<g id="a_edge45_Node000065_Node000046"><a xlink:title=" ">
<path fill="none" stroke="#63b8ff" d="M258.91,-360.79C235.43,-373.19 199.69,-390.92 167,-402.5 155.61,-406.54 143.05,-410.04 131.24,-412.93"/>
<polygon fill="#63b8ff" stroke="#63b8ff" points="260.71,-363.8 267.88,-356 257.41,-357.63 260.71,-363.8"/>
</a>
</g>
</g>
<!-- Node65&#45;&gt;Node47 -->
<g id="edge46_Node000065_Node000047" class="edge">
<title>Node65&#45;&gt;Node47</title>
<g id="a_edge46_Node000065_Node000047"><a xlink:title=" ">
<path fill="none" stroke="#63b8ff" d="M242.57,-354.54C211.03,-360.52 167.89,-368.7 134.64,-375"/>
<polygon fill="#63b8ff" stroke="#63b8ff" points="243.61,-357.91 252.79,-352.61 242.31,-351.03 243.61,-357.91"/>
</a>
</g>
</g>
<!-- Node65&#45;&gt;Node53 -->
<g id="edge47_Node000065_Node000053" class="edge">
<title>Node65&#45;&gt;Node53</title>
<g id="a_edge47_Node000065_Node000053"><a xlink:title=" ">
<path fill="none" stroke="#63b8ff" d="M242.77,-346.5C219.98,-346.5 191.08,-346.5 164.23,-346.5"/>
<polygon fill="#63b8ff" stroke="#63b8ff" points="242.79,-350 252.79,-346.5 242.79,-343 242.79,-350"/>
</a>
</g>
</g>
<!-- Node66&#45;&gt;Node48 -->
<g id="edge49_Node000066_Node000048" class="edge">
<title>Node66&#45;&gt;Node48</title>
<g id="a_edge49_Node000066_Node000048"><a xlink:title=" ">
<path fill="none" stroke="#63b8ff" d="M394.72,-270.5C332.05,-270.5 232.08,-270.5 162.63,-270.5"/>
<polygon fill="#63b8ff" stroke="#63b8ff" points="394.83,-274 404.83,-270.5 394.83,-267 394.83,-274"/>
</a>
</g>
</g>
</g>
</svg>
