<?xml version="1.0" encoding="UTF-8" standalone="no"?>
<!DOCTYPE svg PUBLIC "-//W3C//DTD SVG 1.1//EN"
 "http://www.w3.org/Graphics/SVG/1.1/DTD/svg11.dtd">
<!-- Generated by graphviz version 2.43.0 (0)
 -->
<!-- Title: fl::printf_detail::format_impl Pages: 1 -->
<svg width="822pt" height="369pt"
 viewBox="0.00 0.00 822.00 369.00" xmlns="http://www.w3.org/2000/svg" xmlns:xlink="http://www.w3.org/1999/xlink">
<g id="graph0" class="graph" transform="scale(1 1) rotate(0) translate(4 365)">
<title>fl::printf_detail::format_impl</title>
<!-- Node1 -->
<g id="Node000001" class="node">
<title>Node1</title>
<g id="a_Node000001"><a xlink:title=" ">
<polygon fill="#999999" stroke="#666666" points="94,-80 0,-80 0,-50 94,-50 94,-80"/>
<text text-anchor="start" x="8" y="-68" font-family="Helvetica,sans-Serif" font-size="10.00">fl::printf_detail::</text>
<text text-anchor="middle" x="47" y="-57" font-family="Helvetica,sans-Serif" font-size="10.00">format_impl</text>
</a>
</g>
</g>
<!-- Node2 -->
<g id="Node000002" class="node">
<title>Node2</title>
<g id="a_Node000002"><a xlink:href="../../d4/d36/namespacefl_aee6f6a125b8389786800233a69115983.html#aee6f6a125b8389786800233a69115983" target="_top" xlink:title="Format with no arguments.">
<polygon fill="white" stroke="#666666" points="499.5,-48.5 437.5,-48.5 437.5,-29.5 499.5,-29.5 499.5,-48.5"/>
<text text-anchor="middle" x="468.5" y="-36.5" font-family="Helvetica,sans-Serif" font-size="10.00">fl::format</text>
</a>
</g>
</g>
<!-- Node1&#45;&gt;Node2 -->
<g id="edge1_Node000001_Node000002" class="edge">
<title>Node1&#45;&gt;Node2</title>
<g id="a_edge1_Node000001_Node000002"><a xlink:title=" ">
<path fill="none" stroke="#63b8ff" d="M68.68,-49.81C84.56,-39.13 107.51,-25.77 130,-20 234.47,6.78 362.87,-14.68 427.01,-28.92"/>
<polygon fill="#63b8ff" stroke="#63b8ff" points="426.58,-32.41 437.11,-31.22 428.13,-25.59 426.58,-32.41"/>
</a>
</g>
</g>
<!-- Node7 -->
<g id="Node000007" class="node">
<title>Node7</title>
<g id="a_Node000007"><a xlink:href="../../d2/de0/namespacefl_1_1printf__detail_a03714678350e9ce06f9338ea477d32e0.html#a03714678350e9ce06f9338ea477d32e0" target="_top" xlink:title=" ">
<polygon fill="white" stroke="#666666" points="224,-217 130,-217 130,-187 224,-187 224,-217"/>
<text text-anchor="start" x="138" y="-205" font-family="Helvetica,sans-Serif" font-size="10.00">fl::printf_detail::</text>
<text text-anchor="middle" x="177" y="-194" font-family="Helvetica,sans-Serif" font-size="10.00">format_arg</text>
</a>
</g>
</g>
<!-- Node1&#45;&gt;Node7 -->
<g id="edge5_Node000001_Node000007" class="edge">
<title>Node1&#45;&gt;Node7</title>
<g id="a_edge5_Node000001_Node000007"><a xlink:title=" ">
<path fill="none" stroke="#63b8ff" d="M62.19,-80.18C84.68,-104.26 128.64,-151.31 154.86,-179.37"/>
<polygon fill="#63b8ff" stroke="#63b8ff" points="152.36,-181.83 161.75,-186.75 157.48,-177.05 152.36,-181.83"/>
</a>
</g>
</g>
<!-- Node17 -->
<g id="Node000017" class="node">
<title>Node17</title>
<g id="a_Node000017"><a xlink:href="../../d2/de0/namespacefl_1_1printf__detail_af624455a71e2438c1653c74d94d37a13.html#af624455a71e2438c1653c74d94d37a13" target="_top" xlink:title=" ">
<polygon fill="white" stroke="#666666" points="224,-59 130,-59 130,-29 224,-29 224,-59"/>
<text text-anchor="start" x="138" y="-47" font-family="Helvetica,sans-Serif" font-size="10.00">fl::printf_detail::</text>
<text text-anchor="middle" x="177" y="-36" font-family="Helvetica,sans-Serif" font-size="10.00">format_impl</text>
</a>
</g>
</g>
<!-- Node1&#45;&gt;Node17 -->
<g id="edge17_Node000001_Node000017" class="edge">
<title>Node1&#45;&gt;Node17</title>
<g id="a_edge17_Node000001_Node000017"><a xlink:title=" ">
<path fill="none" stroke="#63b8ff" d="M94.21,-57.42C102.55,-56.05 111.32,-54.61 119.91,-53.2"/>
<polygon fill="#63b8ff" stroke="#63b8ff" points="120.56,-56.64 129.86,-51.57 119.42,-49.74 120.56,-56.64"/>
</a>
</g>
</g>
<!-- Node18 -->
<g id="Node000018" class="node">
<title>Node18</title>
<g id="a_Node000018"><a xlink:href="../../d2/de0/namespacefl_1_1printf__detail_a85f00d6ee02a148fcde282c4e164d4ec.html#a85f00d6ee02a148fcde282c4e164d4ec" target="_top" xlink:title=" ">
<polygon fill="white" stroke="#666666" points="370,-97 260,-97 260,-67 370,-67 370,-97"/>
<text text-anchor="start" x="268" y="-85" font-family="Helvetica,sans-Serif" font-size="10.00">fl::printf_detail::</text>
<text text-anchor="middle" x="315" y="-74" font-family="Helvetica,sans-Serif" font-size="10.00">parse_format_spec</text>
</a>
</g>
</g>
<!-- Node1&#45;&gt;Node18 -->
<g id="edge21_Node000001_Node000018" class="edge">
<title>Node1&#45;&gt;Node18</title>
<g id="a_edge21_Node000001_Node000018"><a xlink:title=" ">
<path fill="none" stroke="#63b8ff" d="M94.03,-67.94C137.06,-70.69 201.73,-74.83 249.83,-77.9"/>
<polygon fill="#63b8ff" stroke="#63b8ff" points="249.62,-81.39 259.82,-78.54 250.07,-74.41 249.62,-81.39"/>
</a>
</g>
</g>
<!-- Node3 -->
<g id="Node000003" class="node">
<title>Node3</title>
<g id="a_Node000003"><a xlink:href="../../da/d2a/namespacefl_1_1format__detail_a892df3c6e93f2a0ce7cfe9b1ea83b035.html#a892df3c6e93f2a0ce7cfe9b1ea83b035" target="_top" xlink:title=" ">
<polygon fill="white" stroke="#666666" points="668,-54 567,-54 567,-24 668,-24 668,-54"/>
<text text-anchor="start" x="575" y="-42" font-family="Helvetica,sans-Serif" font-size="10.00">fl::format_detail::</text>
<text text-anchor="middle" x="617.5" y="-31" font-family="Helvetica,sans-Serif" font-size="10.00">format_impl</text>
</a>
</g>
</g>
<!-- Node2&#45;&gt;Node3 -->
<g id="edge2_Node000002_Node000003" class="edge">
<title>Node2&#45;&gt;Node3</title>
<g id="a_edge2_Node000002_Node000003"><a xlink:title=" ">
<path fill="none" stroke="#63b8ff" d="M499.6,-39C516.05,-39 537.03,-39 556.65,-39"/>
<polygon fill="#63b8ff" stroke="#63b8ff" points="556.76,-42.5 566.76,-39 556.76,-35.5 556.76,-42.5"/>
</a>
</g>
</g>
<!-- Node4 -->
<g id="Node000004" class="node">
<title>Node4</title>
<g id="a_Node000004"><a xlink:href="../../da/d2a/namespacefl_1_1format__detail_a55e63a30ab96d32cfb6a9520c4f24355.html#a55e63a30ab96d32cfb6a9520c4f24355" target="_top" xlink:title=" ">
<polygon fill="#fff0f0" stroke="red" points="811.5,-78 706.5,-78 706.5,-48 811.5,-48 811.5,-78"/>
<text text-anchor="start" x="714.5" y="-66" font-family="Helvetica,sans-Serif" font-size="10.00">fl::format_detail::</text>
<text text-anchor="middle" x="759" y="-55" font-family="Helvetica,sans-Serif" font-size="10.00">apply_width_align</text>
</a>
</g>
</g>
<!-- Node3&#45;&gt;Node4 -->
<g id="edge3_Node000003_Node000004" class="edge">
<title>Node3&#45;&gt;Node4</title>
<g id="a_edge3_Node000003_Node000004"><a xlink:title=" ">
<path fill="none" stroke="#63b8ff" d="M668.08,-47.53C677.16,-49.09 686.75,-50.74 696.14,-52.36"/>
<polygon fill="#63b8ff" stroke="#63b8ff" points="695.78,-55.85 706.23,-54.09 696.96,-48.95 695.78,-55.85"/>
</a>
</g>
</g>
<!-- Node6 -->
<g id="Node000006" class="node">
<title>Node6</title>
<g id="a_Node000006"><a xlink:href="../../da/d2a/namespacefl_1_1format__detail_ae201c82be70c2c0296369f2cb56315f4.html#ae201c82be70c2c0296369f2cb56315f4" target="_top" xlink:title=" ">
<polygon fill="white" stroke="#666666" points="814,-30 704,-30 704,0 814,0 814,-30"/>
<text text-anchor="start" x="712" y="-18" font-family="Helvetica,sans-Serif" font-size="10.00">fl::format_detail::</text>
<text text-anchor="middle" x="759" y="-7" font-family="Helvetica,sans-Serif" font-size="10.00">parse_format_spec</text>
</a>
</g>
</g>
<!-- Node3&#45;&gt;Node6 -->
<g id="edge4_Node000003_Node000006" class="edge">
<title>Node3&#45;&gt;Node6</title>
<g id="a_edge4_Node000003_Node000006"><a xlink:title=" ">
<path fill="none" stroke="#63b8ff" d="M668.08,-30.47C676.41,-29.04 685.16,-27.53 693.79,-26.05"/>
<polygon fill="#63b8ff" stroke="#63b8ff" points="694.59,-29.46 703.85,-24.32 693.4,-22.56 694.59,-29.46"/>
</a>
</g>
</g>
<!-- Node8 -->
<g id="Node000008" class="node">
<title>Node8</title>
<g id="a_Node000008"><a xlink:href="../../d2/de0/namespacefl_1_1printf__detail_a84548a96ff258fbcac92c774b168ae9f.html#a84548a96ff258fbcac92c774b168ae9f" target="_top" xlink:title=" ">
<polygon fill="white" stroke="#666666" points="362,-193 268,-193 268,-163 362,-163 362,-193"/>
<text text-anchor="start" x="276" y="-181" font-family="Helvetica,sans-Serif" font-size="10.00">fl::printf_detail::</text>
<text text-anchor="middle" x="315" y="-170" font-family="Helvetica,sans-Serif" font-size="10.00">apply_width</text>
</a>
</g>
</g>
<!-- Node7&#45;&gt;Node8 -->
<g id="edge6_Node000007_Node000008" class="edge">
<title>Node7&#45;&gt;Node8</title>
<g id="a_edge6_Node000007_Node000008"><a xlink:title=" ">
<path fill="none" stroke="#63b8ff" d="M224.04,-193.87C234.78,-191.98 246.34,-189.94 257.47,-187.98"/>
<polygon fill="#63b8ff" stroke="#63b8ff" points="258.3,-191.38 267.54,-186.2 257.09,-184.49 258.3,-191.38"/>
</a>
</g>
</g>
<!-- Node11 -->
<g id="Node000011" class="node">
<title>Node11</title>
<g id="a_Node000011"><a xlink:href="../../d2/de0/namespacefl_1_1printf__detail_a591e637254c01dab2e4eea75e058ccc3.html#a591e637254c01dab2e4eea75e058ccc3" target="_top" xlink:title=" ">
<polygon fill="white" stroke="#666666" points="362,-241 268,-241 268,-211 362,-211 362,-241"/>
<text text-anchor="start" x="276" y="-229" font-family="Helvetica,sans-Serif" font-size="10.00">fl::printf_detail::</text>
<text text-anchor="middle" x="315" y="-218" font-family="Helvetica,sans-Serif" font-size="10.00">format_float</text>
</a>
</g>
</g>
<!-- Node7&#45;&gt;Node11 -->
<g id="edge9_Node000007_Node000011" class="edge">
<title>Node7&#45;&gt;Node11</title>
<g id="a_edge9_Node000007_Node000011"><a xlink:title=" ">
<path fill="none" stroke="#63b8ff" d="M224.04,-210.13C234.78,-212.02 246.34,-214.06 257.47,-216.02"/>
<polygon fill="#63b8ff" stroke="#63b8ff" points="257.09,-219.51 267.54,-217.8 258.3,-212.62 257.09,-219.51"/>
</a>
</g>
</g>
<!-- Node12 -->
<g id="Node000012" class="node">
<title>Node12</title>
<g id="a_Node000012"><a xlink:href="../../d1/d27/classfl_1_1sstream_a08170cac6eba7241f099ae16730f6f8e.html#a08170cac6eba7241f099ae16730f6f8e" target="_top" xlink:title=" ">
<polygon fill="white" stroke="#666666" points="512,-235.5 425,-235.5 425,-216.5 512,-216.5 512,-235.5"/>
<text text-anchor="middle" x="468.5" y="-223.5" font-family="Helvetica,sans-Serif" font-size="10.00">fl::sstream::str</text>
</a>
</g>
</g>
<!-- Node7&#45;&gt;Node12 -->
<g id="edge11_Node000007_Node000012" class="edge">
<title>Node7&#45;&gt;Node12</title>
<g id="a_edge11_Node000007_Node000012"><a xlink:title=" ">
<path fill="none" stroke="#63b8ff" d="M196.89,-217.01C212.71,-228.57 236.44,-243.61 260,-250 318.36,-265.83 388.73,-250.85 430.71,-238.49"/>
<polygon fill="#63b8ff" stroke="#63b8ff" points="431.94,-241.77 440.49,-235.5 429.9,-235.07 431.94,-241.77"/>
</a>
</g>
</g>
<!-- Node13 -->
<g id="Node000013" class="node">
<title>Node13</title>
<g id="a_Node000013"><a xlink:href="../../d4/d36/namespacefl_a67c9be627728978e31758179f4b885a6.html#a67c9be627728978e31758179f4b885a6" target="_top" xlink:title="Convert an integer value to hexadecimal string representation.">
<polygon fill="white" stroke="#666666" points="346,-316.5 284,-316.5 284,-297.5 346,-297.5 346,-316.5"/>
<text text-anchor="middle" x="315" y="-304.5" font-family="Helvetica,sans-Serif" font-size="10.00">fl::to_hex</text>
</a>
</g>
</g>
<!-- Node7&#45;&gt;Node13 -->
<g id="edge12_Node000007_Node000013" class="edge">
<title>Node7&#45;&gt;Node13</title>
<g id="a_edge12_Node000007_Node000013"><a xlink:title=" ">
<path fill="none" stroke="#63b8ff" d="M190.3,-217.1C205.28,-234.74 232.07,-263.94 260,-283 265.64,-286.85 271.99,-290.31 278.31,-293.34"/>
<polygon fill="#63b8ff" stroke="#63b8ff" points="276.89,-296.54 287.45,-297.45 279.76,-290.16 276.89,-296.54"/>
</a>
</g>
</g>
<!-- Node16 -->
<g id="Node000016" class="node">
<title>Node16</title>
<g id="a_Node000016"><a xlink:href="../../d2/de0/namespacefl_1_1printf__detail_a1b94fe26944fce9d95804c23960e8f81.html#a1b94fe26944fce9d95804c23960e8f81" target="_top" xlink:title=" ">
<polygon fill="white" stroke="#666666" points="362,-145 268,-145 268,-115 362,-115 362,-145"/>
<text text-anchor="start" x="276" y="-133" font-family="Helvetica,sans-Serif" font-size="10.00">fl::printf_detail::</text>
<text text-anchor="middle" x="315" y="-122" font-family="Helvetica,sans-Serif" font-size="10.00">to_octal</text>
</a>
</g>
</g>
<!-- Node7&#45;&gt;Node16 -->
<g id="edge16_Node000007_Node000016" class="edge">
<title>Node7&#45;&gt;Node16</title>
<g id="a_edge16_Node000007_Node000016"><a xlink:title=" ">
<path fill="none" stroke="#63b8ff" d="M202,-187C218.14,-177.15 240.04,-164.24 260,-154 263.06,-152.43 266.24,-150.86 269.47,-149.32"/>
<polygon fill="#63b8ff" stroke="#63b8ff" points="271,-152.46 278.58,-145.06 268.04,-146.12 271,-152.46"/>
</a>
</g>
</g>
<!-- Node9 -->
<g id="Node000009" class="node">
<title>Node9</title>
<g id="a_Node000009"><a xlink:href="../../de/d66/classfl_1_1basic__string_a409024020d4cdb01125a9b7fba3404b5.html#a409024020d4cdb01125a9b7fba3404b5" target="_top" xlink:title=" ">
<polygon fill="white" stroke="#666666" points="531,-192.5 406,-192.5 406,-173.5 531,-173.5 531,-192.5"/>
<text text-anchor="middle" x="468.5" y="-180.5" font-family="Helvetica,sans-Serif" font-size="10.00">fl::basic_string::empty</text>
</a>
</g>
</g>
<!-- Node8&#45;&gt;Node9 -->
<g id="edge7_Node000008_Node000009" class="edge">
<title>Node8&#45;&gt;Node9</title>
<g id="a_edge7_Node000008_Node000009"><a xlink:title=" ">
<path fill="none" stroke="#63b8ff" d="M362.28,-179.53C372.8,-179.87 384.23,-180.25 395.54,-180.63"/>
<polygon fill="#63b8ff" stroke="#63b8ff" points="395.76,-184.13 405.87,-180.97 395.99,-177.14 395.76,-184.13"/>
</a>
</g>
</g>
<!-- Node10 -->
<g id="Node000010" class="node">
<title>Node10</title>
<g id="a_Node000010"><a xlink:href="../../de/d66/classfl_1_1basic__string_a07df69cb258a3a79835c0baedeace025.html#a07df69cb258a3a79835c0baedeace025" target="_top" xlink:title=" ">
<polygon fill="white" stroke="#666666" points="530.5,-155.5 406.5,-155.5 406.5,-136.5 530.5,-136.5 530.5,-155.5"/>
<text text-anchor="middle" x="468.5" y="-143.5" font-family="Helvetica,sans-Serif" font-size="10.00">fl::basic_string::length</text>
</a>
</g>
</g>
<!-- Node8&#45;&gt;Node10 -->
<g id="edge8_Node000008_Node000010" class="edge">
<title>Node8&#45;&gt;Node10</title>
<g id="a_edge8_Node000008_Node000010"><a xlink:title=" ">
<path fill="none" stroke="#63b8ff" d="M362.28,-168.23C378.06,-164.89 395.86,-161.13 412.28,-157.66"/>
<polygon fill="#63b8ff" stroke="#63b8ff" points="413.22,-161.04 422.29,-155.55 411.78,-154.19 413.22,-161.04"/>
</a>
</g>
</g>
<!-- Node11&#45;&gt;Node12 -->
<g id="edge10_Node000011_Node000012" class="edge">
<title>Node11&#45;&gt;Node12</title>
<g id="a_edge10_Node000011_Node000012"><a xlink:title=" ">
<path fill="none" stroke="#63b8ff" d="M362.28,-226C378.78,-226 397.49,-226 414.52,-226"/>
<polygon fill="#63b8ff" stroke="#63b8ff" points="414.86,-229.5 424.86,-226 414.86,-222.5 414.86,-229.5"/>
</a>
</g>
</g>
<!-- Node14 -->
<g id="Node000014" class="node">
<title>Node14</title>
<g id="a_Node000014"><a xlink:href="../../df/d9e/namespacefl_1_1detail_a511e6f071fcd8150275c9b329eec23d9.html#a511e6f071fcd8150275c9b329eec23d9" target="_top" xlink:title="Compile&#45;time integer width determination (default &#45; triggers error)">
<polygon fill="white" stroke="#666666" points="519,-343 418,-343 418,-313 519,-313 519,-343"/>
<text text-anchor="start" x="426" y="-331" font-family="Helvetica,sans-Serif" font-size="10.00">fl::detail::get_hex</text>
<text text-anchor="middle" x="468.5" y="-320" font-family="Helvetica,sans-Serif" font-size="10.00">_int_width</text>
</a>
</g>
</g>
<!-- Node13&#45;&gt;Node14 -->
<g id="edge13_Node000013_Node000014" class="edge">
<title>Node13&#45;&gt;Node14</title>
<g id="a_edge13_Node000013_Node000014"><a xlink:title=" ">
<path fill="none" stroke="#63b8ff" d="M346.29,-311.2C363.88,-313.64 386.66,-316.79 407.71,-319.71"/>
<polygon fill="#63b8ff" stroke="#63b8ff" points="407.49,-323.21 417.87,-321.12 408.45,-316.28 407.49,-323.21"/>
</a>
</g>
</g>
<!-- Node15 -->
<g id="Node000015" class="node">
<title>Node15</title>
<g id="a_Node000015"><a xlink:href="../../df/d9e/namespacefl_1_1detail_a4e29f62f0bd10439ffaeb7995ee2060a.html#a4e29f62f0bd10439ffaeb7995ee2060a" target="_top" xlink:title="Internal hex conversion function (implementation in charconv.cpp)">
<polygon fill="white" stroke="#666666" points="508.5,-294.5 428.5,-294.5 428.5,-275.5 508.5,-275.5 508.5,-294.5"/>
<text text-anchor="middle" x="468.5" y="-282.5" font-family="Helvetica,sans-Serif" font-size="10.00">fl::detail::hex</text>
</a>
</g>
</g>
<!-- Node13&#45;&gt;Node15 -->
<g id="edge15_Node000013_Node000015" class="edge">
<title>Node13&#45;&gt;Node15</title>
<g id="a_edge15_Node000013_Node000015"><a xlink:title=" ">
<path fill="none" stroke="#63b8ff" d="M346.29,-302.6C366.92,-299.61 394.68,-295.57 418.43,-292.13"/>
<polygon fill="#63b8ff" stroke="#63b8ff" points="418.94,-295.59 428.33,-290.69 417.94,-288.66 418.94,-295.59"/>
</a>
</g>
</g>
<!-- Node14&#45;&gt;Node14 -->
<g id="edge14_Node000014_Node000014" class="edge">
<title>Node14&#45;&gt;Node14</title>
<g id="a_edge14_Node000014_Node000014"><a xlink:title=" ">
<path fill="none" stroke="#63b8ff" d="M442.48,-343.28C436.7,-352.41 445.38,-361 468.5,-361 482.23,-361 490.87,-357.97 494.41,-353.6"/>
<polygon fill="#63b8ff" stroke="#63b8ff" points="497.91,-353.31 494.52,-343.28 490.91,-353.24 497.91,-353.31"/>
</a>
</g>
</g>
<!-- Node17&#45;&gt;Node2 -->
<g id="edge18_Node000017_Node000002" class="edge">
<title>Node17&#45;&gt;Node2</title>
<g id="a_edge18_Node000017_Node000002"><a xlink:title=" ">
<path fill="none" stroke="#63b8ff" d="M224.19,-43.2C280.31,-42.23 374.08,-40.61 427.33,-39.69"/>
<polygon fill="#63b8ff" stroke="#63b8ff" points="427.48,-43.19 437.42,-39.52 427.36,-36.19 427.48,-43.19"/>
</a>
</g>
</g>
<!-- Node17&#45;&gt;Node18 -->
<g id="edge19_Node000017_Node000018" class="edge">
<title>Node17&#45;&gt;Node18</title>
<g id="a_edge19_Node000017_Node000018"><a xlink:title=" ">
<path fill="none" stroke="#63b8ff" d="M224.04,-56.87C232.44,-59.21 241.34,-61.7 250.15,-64.16"/>
<polygon fill="#63b8ff" stroke="#63b8ff" points="249.44,-67.6 260.02,-66.92 251.33,-60.85 249.44,-67.6"/>
</a>
</g>
</g>
<!-- Node18&#45;&gt;Node2 -->
<g id="edge20_Node000018_Node000002" class="edge">
<title>Node18&#45;&gt;Node2</title>
<g id="a_edge20_Node000018_Node000002"><a xlink:title=" ">
<path fill="none" stroke="#63b8ff" d="M368.99,-66.96C388.19,-61.51 409.55,-55.45 427.46,-50.37"/>
<polygon fill="#63b8ff" stroke="#63b8ff" points="428.62,-53.67 437.29,-47.58 426.71,-46.94 428.62,-53.67"/>
</a>
</g>
</g>
</g>
</svg>
