<?xml version="1.0" encoding="UTF-8" standalone="no"?>
<!DOCTYPE svg PUBLIC "-//W3C//DTD SVG 1.1//EN"
 "http://www.w3.org/Graphics/SVG/1.1/DTD/svg11.dtd">
<!-- Generated by graphviz version 2.43.0 (0)
 -->
<!-- Title: KeyboardState::HandleNoteOn Pages: 1 -->
<!--zoomable 230 -->

<svg id="main" version="1.1" xmlns="http://www.w3.org/2000/svg" xmlns:xlink="http://www.w3.org/1999/xlink" xml:space="preserve" onload="init(evt)">

<style type="text/css"><![CDATA[
.node, .edge {opacity: 0.7;}
.node.selected, .edge.selected {opacity: 1;}
.edge:hover path { stroke: red; }
.edge:hover polygon { stroke: red; fill: red; }
]]></style>

<defs>
  <circle id="rim" cx="0" cy="0" r="7"/>
  <circle id="rim2" cx="0" cy="0" r="3.5"/>
  <g id="zoomPlus">
    <use xlink:href="#rim" fill="#404040"><set attributeName="fill" to="#808080" begin="zoomplus.mouseover" end="zoomplus.mouseout"/></use>
    <path d="M-4,0h8M0,-4v8" fill="none" stroke="white" stroke-width="1.5" pointer-events="none"/>
  </g>
  <g id="zoomMin">
    <use xlink:href="#rim" fill="#404040"><set attributeName="fill" to="#808080" begin="zoomminus.mouseover" end="zoomminus.mouseout"/></use>
    <path d="M-4,0h8" fill="none" stroke="white" stroke-width="1.5" pointer-events="none"/>
  </g>
  <g id="arrowUp" transform="translate(30 24)">
    <use xlink:href="#rim"/>
    <path pointer-events="none" fill="none" stroke="white" stroke-width="1.5" d="M0,-3.0v7 M-2.5,-0.5L0,-3.0L2.5,-0.5"/>
  </g>
  <g id="arrowRight" transform="rotate(90) translate(36 -43)">
    <use xlink:href="#rim"/>
    <path pointer-events="none" fill="none" stroke="white" stroke-width="1.5" d="M0,-3.0v7 M-2.5,-0.5L0,-3.0L2.5,-0.5"/>
  </g>
  <g id="arrowDown" transform="rotate(180) translate(-30 -48)">
    <use xlink:href="#rim"/>
    <path pointer-events="none" fill="none" stroke="white" stroke-width="1.5" d="M0,-3.0v7 M-2.5,-0.5L0,-3.0L2.5,-0.5"/>
  </g>
  <g id="arrowLeft" transform="rotate(270) translate(-36 17)">
    <use xlink:href="#rim"/>
    <path pointer-events="none" fill="none" stroke="white" stroke-width="1.5" d="M0,-3.0v7 M-2.5,-0.5L0,-3.0L2.5,-0.5"/>
  </g>
  <g id="resetDef">
    <use xlink:href="#rim2" fill="#404040"><set attributeName="fill" to="#808080" begin="reset.mouseover" end="reset.mouseout"/></use>
  </g>
</defs>
<script type="application/ecmascript">
var viewWidth = 715;
var viewHeight = 230;
var sectionId = 'dynsection-0';
</script>
<script type="application/ecmascript" xlink:href="../../svg.min.js"/>
<svg id="graph" class="graph">
<g id="viewport">
<title>KeyboardState::HandleNoteOn</title>
<!-- Node1 -->
<g id="Node000001" class="node">
<title>Node1</title>
<g id="a_Node000001"><a xlink:title=" ">
<polygon fill="#999999" stroke="#666666" points="165,-111 0,-111 0,-92 165,-92 165,-111"/>
<text text-anchor="middle" x="82.5" y="-99" font-family="Helvetica,sans-Serif" font-size="10.00">KeyboardState::HandleNoteOn</text>
</a>
</g>
</g>
<!-- Node2 -->
<g id="Node000002" class="node">
<title>Node2</title>
<g id="a_Node000002"><a xlink:href="../../db/d37/class_keyboard_state_aabaa53bea4f73d33d643c297b199c496.html#aabaa53bea4f73d33d643c297b199c496" target="_top" xlink:title=" ">
<polygon fill="white" stroke="#666666" points="532,-222 403,-222 403,-203 532,-203 532,-222"/>
<text text-anchor="middle" x="467.5" y="-210" font-family="Helvetica,sans-Serif" font-size="10.00">KeyboardState::GetKey</text>
</a>
</g>
</g>
<!-- Node1&#45;&gt;Node2 -->
<g id="edge1_Node000001_Node000002" class="edge">
<title>Node1&#45;&gt;Node2</title>
<g id="a_edge1_Node000001_Node000002"><a xlink:title=" ">
<path fill="none" stroke="#63b8ff" d="M94.96,-111.1C115.02,-127.33 158.43,-159.95 201,-175.5 263.11,-198.19 338.07,-207.09 392.48,-210.52"/>
<polygon fill="#63b8ff" stroke="#63b8ff" points="392.54,-214.03 402.73,-211.12 392.95,-207.04 392.54,-214.03"/>
</a>
</g>
</g>
<!-- Node4 -->
<g id="Node000004" class="node">
<title>Node4</title>
<g id="a_Node000004"><a xlink:href="../../db/d37/class_keyboard_state_af3b786ba848c2366f40115cd8765a697.html#af3b786ba848c2366f40115cd8765a697" target="_top" xlink:title=" ">
<polygon fill="white" stroke="#666666" points="367,-166 201,-166 201,-147 367,-147 367,-166"/>
<text text-anchor="middle" x="284" y="-154" font-family="Helvetica,sans-Serif" font-size="10.00">KeyboardState::HandleNoteOff</text>
</a>
</g>
</g>
<!-- Node1&#45;&gt;Node4 -->
<g id="edge3_Node000001_Node000004" class="edge">
<title>Node1&#45;&gt;Node4</title>
<g id="a_edge3_Node000001_Node000004"><a xlink:title=" ">
<path fill="none" stroke="#63b8ff" d="M118.25,-111.08C151.62,-120.28 202.17,-134.22 238.48,-144.23"/>
<polygon fill="#63b8ff" stroke="#63b8ff" points="237.74,-147.65 248.31,-146.94 239.6,-140.91 237.74,-147.65"/>
</a>
</g>
</g>
<!-- Node7 -->
<g id="Node000007" class="node">
<title>Node7</title>
<g id="a_Node000007"><a xlink:href="../../d4/df0/color__mapper_8cpp_a9378fdefea161b74d71b2780f8f5bd04.html#a9378fdefea161b74d71b2780f8f5bd04" target="_top" xlink:title=" ">
<polygon fill="white" stroke="#666666" points="320,-111 248,-111 248,-92 320,-92 320,-111"/>
<text text-anchor="middle" x="284" y="-99" font-family="Helvetica,sans-Serif" font-size="10.00">SelectColor</text>
</a>
</g>
</g>
<!-- Node1&#45;&gt;Node7 -->
<g id="edge7_Node000001_Node000007" class="edge">
<title>Node1&#45;&gt;Node7</title>
<g id="a_edge7_Node000001_Node000007"><a xlink:title=" ">
<path fill="none" stroke="#63b8ff" d="M165.22,-101.5C190,-101.5 216.32,-101.5 237.78,-101.5"/>
<polygon fill="#63b8ff" stroke="#63b8ff" points="237.9,-105 247.9,-101.5 237.9,-98 237.9,-105"/>
</a>
</g>
</g>
<!-- Node10 -->
<g id="Node000010" class="node">
<title>Node10</title>
<g id="a_Node000010"><a xlink:href="../../db/d42/struct_key_aac1e4bbcbcb9a42046e1c68477fb7dd4.html#aac1e4bbcbcb9a42046e1c68477fb7dd4" target="_top" xlink:title=" ">
<polygon fill="white" stroke="#666666" points="318.5,-74 249.5,-74 249.5,-55 318.5,-55 318.5,-74"/>
<text text-anchor="middle" x="284" y="-62" font-family="Helvetica,sans-Serif" font-size="10.00">Key::SetOn</text>
</a>
</g>
</g>
<!-- Node1&#45;&gt;Node10 -->
<g id="edge10_Node000001_Node000010" class="edge">
<title>Node1&#45;&gt;Node10</title>
<g id="a_edge10_Node000001_Node000010"><a xlink:title=" ">
<path fill="none" stroke="#63b8ff" d="M134.88,-91.97C167.24,-85.97 208.56,-78.31 239.34,-72.6"/>
<polygon fill="#63b8ff" stroke="#63b8ff" points="240.15,-76.01 249.34,-70.74 238.87,-69.12 240.15,-76.01"/>
</a>
</g>
</g>
<!-- Node11 -->
<g id="Node000011" class="node">
<title>Node11</title>
<g id="a_Node000011"><a xlink:href="../../df/d2d/util_8cpp_ab2d4e7dba14588151a9603ebb0b13cf3.html#ab2d4e7dba14588151a9603ebb0b13cf3" target="_top" xlink:title=" ">
<polygon fill="white" stroke="#666666" points="323.5,-37 244.5,-37 244.5,-18 323.5,-18 323.5,-37"/>
<text text-anchor="middle" x="284" y="-25" font-family="Helvetica,sans-Serif" font-size="10.00">ToBrightness</text>
</a>
</g>
</g>
<!-- Node1&#45;&gt;Node11 -->
<g id="edge11_Node000001_Node000011" class="edge">
<title>Node1&#45;&gt;Node11</title>
<g id="a_edge11_Node000001_Node000011"><a xlink:title=" ">
<path fill="none" stroke="#63b8ff" d="M100.93,-91.92C123.46,-79.87 164.17,-59.23 201,-46.5 211.57,-42.85 223.16,-39.68 234.2,-37.03"/>
<polygon fill="#63b8ff" stroke="#63b8ff" points="235.18,-40.4 244.15,-34.75 233.62,-33.57 235.18,-40.4"/>
</a>
</g>
</g>
<!-- Node3 -->
<g id="Node000003" class="node">
<title>Node3</title>
<g id="a_Node000003"><a xlink:href="../../db/d37/class_keyboard_state_a7743d2ab908d76bca89c0e776cdc0e87.html#a7743d2ab908d76bca89c0e776cdc0e87" target="_top" xlink:title=" ">
<polygon fill="white" stroke="#666666" points="707,-222 568,-222 568,-203 707,-203 707,-222"/>
<text text-anchor="middle" x="637.5" y="-210" font-family="Helvetica,sans-Serif" font-size="10.00">KeyboardState::KeyIndex</text>
</a>
</g>
</g>
<!-- Node2&#45;&gt;Node3 -->
<g id="edge2_Node000002_Node000003" class="edge">
<title>Node2&#45;&gt;Node3</title>
<g id="a_edge2_Node000002_Node000003"><a xlink:title=" ">
<path fill="none" stroke="#63b8ff" d="M532.01,-212.5C540.43,-212.5 549.14,-212.5 557.77,-212.5"/>
<polygon fill="#63b8ff" stroke="#63b8ff" points="557.85,-216 567.85,-212.5 557.85,-209 557.85,-216"/>
</a>
</g>
</g>
<!-- Node4&#45;&gt;Node2 -->
<g id="edge4_Node000004_Node000002" class="edge">
<title>Node4&#45;&gt;Node2</title>
<g id="a_edge4_Node000004_Node000002"><a xlink:title=" ">
<path fill="none" stroke="#63b8ff" d="M314.01,-166.16C337.84,-174.01 372.51,-185.27 403,-194.5 409.12,-196.35 415.58,-198.25 421.96,-200.09"/>
<polygon fill="#63b8ff" stroke="#63b8ff" points="421.25,-203.53 431.83,-202.91 423.18,-196.8 421.25,-203.53"/>
</a>
</g>
</g>
<!-- Node5 -->
<g id="Node000005" class="node">
<title>Node5</title>
<g id="a_Node000005"><a xlink:href="../../db/d42/struct_key_a03534d492ab55aa8e9c24165e76b4356.html#a03534d492ab55aa8e9c24165e76b4356" target="_top" xlink:title=" ">
<polygon fill="white" stroke="#666666" points="502.5,-185 432.5,-185 432.5,-166 502.5,-166 502.5,-185"/>
<text text-anchor="middle" x="467.5" y="-173" font-family="Helvetica,sans-Serif" font-size="10.00">Key::SetOff</text>
</a>
</g>
</g>
<!-- Node4&#45;&gt;Node5 -->
<g id="edge5_Node000004_Node000005" class="edge">
<title>Node4&#45;&gt;Node5</title>
<g id="a_edge5_Node000004_Node000005"><a xlink:title=" ">
<path fill="none" stroke="#63b8ff" d="M367.25,-165.11C386.03,-167.08 405.29,-169.09 421.79,-170.82"/>
<polygon fill="#63b8ff" stroke="#63b8ff" points="421.89,-174.35 432.2,-171.91 422.62,-167.39 421.89,-174.35"/>
</a>
</g>
</g>
<!-- Node6 -->
<g id="Node000006" class="node">
<title>Node6</title>
<g id="a_Node000006"><a xlink:href="../../db/d42/struct_key_a2280240471eb2ce07a8199d9f48b97b1.html#a2280240471eb2ce07a8199d9f48b97b1" target="_top" xlink:title=" ">
<polygon fill="white" stroke="#666666" points="519.5,-148 415.5,-148 415.5,-129 519.5,-129 519.5,-148"/>
<text text-anchor="middle" x="467.5" y="-136" font-family="Helvetica,sans-Serif" font-size="10.00">Key::SetSustained</text>
</a>
</g>
</g>
<!-- Node4&#45;&gt;Node6 -->
<g id="edge6_Node000004_Node000006" class="edge">
<title>Node4&#45;&gt;Node6</title>
<g id="a_edge6_Node000004_Node000006"><a xlink:title=" ">
<path fill="none" stroke="#63b8ff" d="M367.25,-148.34C380.08,-147.07 393.13,-145.78 405.37,-144.56"/>
<polygon fill="#63b8ff" stroke="#63b8ff" points="405.84,-148.03 415.44,-143.56 405.15,-141.07 405.84,-148.03"/>
</a>
</g>
</g>
<!-- Node8 -->
<g id="Node000008" class="node">
<title>Node8</title>
<g id="a_Node000008"><a xlink:href="../../df/d2d/util_8cpp_a2929e37e7d771233ea4c11b572b34f63.html#a2929e37e7d771233ea4c11b572b34f63" target="_top" xlink:title=" ">
<polygon fill="white" stroke="#666666" points="519.5,-111 415.5,-111 415.5,-92 519.5,-92 519.5,-111"/>
<text text-anchor="middle" x="467.5" y="-99" font-family="Helvetica,sans-Serif" font-size="10.00">FundamentalNote</text>
</a>
</g>
</g>
<!-- Node7&#45;&gt;Node8 -->
<g id="edge8_Node000007_Node000008" class="edge">
<title>Node7&#45;&gt;Node8</title>
<g id="a_edge8_Node000007_Node000008"><a xlink:title=" ">
<path fill="none" stroke="#63b8ff" d="M320.43,-101.5C344.5,-101.5 376.97,-101.5 405.18,-101.5"/>
<polygon fill="#63b8ff" stroke="#63b8ff" points="405.36,-105 415.36,-101.5 405.36,-98 405.36,-105"/>
</a>
</g>
</g>
<!-- Node9 -->
<g id="Node000009" class="node">
<title>Node9</title>
<g id="a_Node000009"><a xlink:href="../../d4/df0/color__mapper_8cpp_a4a61d57f48dcaf2ba4bcd9ed95deafdc.html#a4a61d57f48dcaf2ba4bcd9ed95deafdc" target="_top" xlink:title=" ">
<polygon fill="white" stroke="#666666" points="523,-74 412,-74 412,-55 523,-55 523,-74"/>
<text text-anchor="middle" x="467.5" y="-62" font-family="Helvetica,sans-Serif" font-size="10.00">SelectColorScheme</text>
</a>
</g>
</g>
<!-- Node7&#45;&gt;Node9 -->
<g id="edge9_Node000007_Node000009" class="edge">
<title>Node7&#45;&gt;Node9</title>
<g id="a_edge9_Node000007_Node000009"><a xlink:title=" ">
<path fill="none" stroke="#63b8ff" d="M320.43,-94.28C345.8,-89.1 380.52,-82.03 409.73,-76.07"/>
<polygon fill="#63b8ff" stroke="#63b8ff" points="410.72,-79.44 419.82,-74.02 409.32,-72.59 410.72,-79.44"/>
</a>
</g>
</g>
<!-- Node12 -->
<g id="Node000012" class="node">
<title>Node12</title>
<g id="a_Node000012"><a xlink:href="../../d7/dd8/_approximating_function_8h_a5b61be736266623d9b4da9a66be9fa8e.html#a5b61be736266623d9b4da9a66be9fa8e" target="_top" xlink:title=" ">
<polygon fill="white" stroke="#666666" points="490,-37 445,-37 445,-18 490,-18 490,-37"/>
<text text-anchor="middle" x="467.5" y="-25" font-family="Helvetica,sans-Serif" font-size="10.00">Interp</text>
</a>
</g>
</g>
<!-- Node11&#45;&gt;Node12 -->
<g id="edge12_Node000011_Node000012" class="edge">
<title>Node11&#45;&gt;Node12</title>
<g id="a_edge12_Node000011_Node000012"><a xlink:title=" ">
<path fill="none" stroke="#63b8ff" d="M323.94,-27.5C357.01,-27.5 403.9,-27.5 434.75,-27.5"/>
<polygon fill="#63b8ff" stroke="#63b8ff" points="434.94,-31 444.94,-27.5 434.94,-24 434.94,-31"/>
</a>
</g>
</g>
<!-- Node13 -->
<g id="Node000013" class="node">
<title>Node13</title>
<g id="a_Node000013"><a xlink:href="../../d7/dd8/_approximating_function_8h_adaa033a0d7d5d25b9de906dff963d6d3.html#adaa033a0d7d5d25b9de906dff963d6d3" target="_top" xlink:title=" ">
<polygon fill="white" stroke="#666666" points="659.5,-56 615.5,-56 615.5,-37 659.5,-37 659.5,-56"/>
<text text-anchor="middle" x="637.5" y="-44" font-family="Helvetica,sans-Serif" font-size="10.00">MapT</text>
</a>
</g>
</g>
<!-- Node12&#45;&gt;Node13 -->
<g id="edge13_Node000012_Node000013" class="edge">
<title>Node12&#45;&gt;Node13</title>
<g id="a_edge13_Node000012_Node000013"><a xlink:title=" ">
<path fill="none" stroke="#63b8ff" d="M490.12,-29.95C519.39,-33.26 571.8,-39.18 605.33,-42.97"/>
<polygon fill="#63b8ff" stroke="#63b8ff" points="605.16,-46.48 615.49,-44.12 605.95,-39.52 605.16,-46.48"/>
</a>
</g>
</g>
<!-- Node14 -->
<g id="Node000014" class="node">
<title>Node14</title>
<g id="a_Node000014"><a xlink:href="../../d7/dd8/_approximating_function_8h_ad602af28198426d21f684f254c890fa1.html#ad602af28198426d21f684f254c890fa1" target="_top" xlink:title=" ">
<polygon fill="white" stroke="#666666" points="690,-19 585,-19 585,0 690,0 690,-19"/>
<text text-anchor="middle" x="637.5" y="-7" font-family="Helvetica,sans-Serif" font-size="10.00">SelectInterpPoints</text>
</a>
</g>
</g>
<!-- Node12&#45;&gt;Node14 -->
<g id="edge14_Node000012_Node000014" class="edge">
<title>Node12&#45;&gt;Node14</title>
<g id="a_edge14_Node000012_Node000014"><a xlink:title=" ">
<path fill="none" stroke="#63b8ff" d="M490.12,-25.18C511.44,-22.9 545.06,-19.3 574.7,-16.12"/>
<polygon fill="#63b8ff" stroke="#63b8ff" points="575.42,-19.56 584.99,-15.02 574.67,-12.6 575.42,-19.56"/>
</a>
</g>
</g>
</g>
</svg>

<g id="navigator" transform="translate(0 0)" fill="#404254">
  <rect fill="#f2f5e9" fill-opacity="0.5" stroke="#606060" stroke-width=".5" x="0" y="0" width="60" height="60"/>
  <use id="zoomplus" xlink:href="#zoomPlus" x="17" y="9" onmousedown="handleZoom(evt,'in')"/>
  <use id="zoomminus" xlink:href="#zoomMin" x="42" y="9" onmousedown="handleZoom(evt,'out')"/>
  <use id="reset" xlink:href="#resetDef" x="30" y="36" onmousedown="handleReset()"/>
   <use id="arrowup" xlink:href="#arrowUp" x="0" y="0" onmousedown="handlePan(0,-1)"/>
  <use id="arrowright" xlink:href="#arrowRight" x="0" y="0" onmousedown="handlePan(1,0)"/>
  <use id="arrowdown" xlink:href="#arrowDown" x="0" y="0" onmousedown="handlePan(0,1)"/>
  <use id="arrowleft" xlink:href="#arrowLeft" x="0" y="0" onmousedown="handlePan(-1,0)"/>
</g>
<svg viewBox="0 0 15 15" width="100%" height="30px" preserveAspectRatio="xMaxYMin meet">
 <g id="arrow_out" transform="scale(0.3 0.3)">
  <a xlink:href="class_keyboard_state_a6327c48f59e01741fbb2db535ad49c35_a6327c48f59e01741fbb2db535ad49c35_cgraph_org.svg" target="_base">
   <rect id="button" ry="5" rx="5" y="6" x="6" height="38" width="38"
        fill="#f2f5e9" fill-opacity="0.5" stroke="#606060" stroke-width="1.0"/>
   <path id="arrow"
     d="M 11.500037,31.436501 C 11.940474,20.09759 22.043105,11.32322 32.158766,21.979434 L 37.068811,17.246167 C 37.068811,17.246167 37.088388,32 37.088388,32 L 22.160133,31.978069 C 22.160133,31.978069 26.997745,27.140456 26.997745,27.140456 C 18.528582,18.264221 13.291696,25.230495 11.500037,31.436501 z"
     style="fill:#404040;"/>
  </a>
 </g>
</svg>

<style type='text/css'>
<![CDATA[
[data-mouse-over-selected='false'] { opacity: 0.7; }
[data-mouse-over-selected='true']  { opacity: 1.0; }
]]>
</style>
<script type="application/ecmascript"><![CDATA[
document.addEventListener('DOMContentLoaded', (event) => {
  highlightEdges();
  highlightAdjacentNodes();
});
]]></script>
</svg>
