<?xml version="1.0" encoding="UTF-8" standalone="no"?>
<!DOCTYPE svg PUBLIC "-//W3C//DTD SVG 1.1//EN"
 "http://www.w3.org/Graphics/SVG/1.1/DTD/svg11.dtd">
<!-- Generated by graphviz version 2.43.0 (0)
 -->
<!-- Title: fl::asset_ref::asset_ref Pages: 1 -->
<svg width="296pt" height="64pt"
 viewBox="0.00 0.00 296.00 64.00" xmlns="http://www.w3.org/2000/svg" xmlns:xlink="http://www.w3.org/1999/xlink">
<g id="graph0" class="graph" transform="scale(1 1) rotate(0) translate(4 60)">
<title>fl::asset_ref::asset_ref</title>
<!-- Node1 -->
<g id="Node000001" class="node">
<title>Node1</title>
<g id="a_Node000001"><a xlink:title="Construct from a pointer to a null&#45;terminated string with known length.">
<polygon fill="#999999" stroke="#666666" points="288,-37 164,-37 164,-18 288,-18 288,-37"/>
<text text-anchor="middle" x="226" y="-25" font-family="Helvetica,sans-Serif" font-size="10.00">fl::asset_ref::asset_ref</text>
</a>
</g>
</g>
<!-- Node2 -->
<g id="Node000002" class="node">
<title>Node2</title>
<g id="a_Node000002"><a xlink:href="../../d9/dac/classfl_1_1asset__ref_ab90249ec0a958cd6e980cc255d875adb.html#ab90249ec0a958cd6e980cc255d875adb" target="_top" xlink:title="Copy/move: trivial — pointer + length.">
<polygon fill="white" stroke="#666666" points="126,-56 2,-56 2,-37 126,-37 126,-56"/>
<text text-anchor="middle" x="64" y="-44" font-family="Helvetica,sans-Serif" font-size="10.00">fl::asset_ref::asset_ref</text>
</a>
</g>
</g>
<!-- Node1&#45;&gt;Node2 -->
<g id="edge1_Node000001_Node000002" class="edge">
<title>Node1&#45;&gt;Node2</title>
<g id="a_edge1_Node000001_Node000002"><a xlink:title=" ">
<path fill="none" stroke="#63b8ff" d="M153.44,-36C144.36,-37.08 135.13,-38.17 126.24,-39.23"/>
<polygon fill="#63b8ff" stroke="#63b8ff" points="154.08,-39.45 163.6,-34.79 153.25,-32.5 154.08,-39.45"/>
</a>
</g>
</g>
<!-- Node3 -->
<g id="Node000003" class="node">
<title>Node3</title>
<g id="a_Node000003"><a xlink:href="../../d9/dac/classfl_1_1asset__ref_a15d4f7dc9d5fa093b6bfd629be81e33c.html#a15d4f7dc9d5fa093b6bfd629be81e33c" target="_top" xlink:title=" ">
<polygon fill="white" stroke="#666666" points="128,-19 0,-19 0,0 128,0 128,-19"/>
<text text-anchor="middle" x="64" y="-7" font-family="Helvetica,sans-Serif" font-size="10.00">fl::asset_ref::operator=</text>
</a>
</g>
</g>
<!-- Node1&#45;&gt;Node3 -->
<g id="edge2_Node000001_Node000003" class="edge">
<title>Node1&#45;&gt;Node3</title>
<g id="a_edge2_Node000001_Node000003"><a xlink:title=" ">
<path fill="none" stroke="#63b8ff" d="M153.4,-19.44C144.96,-18.5 136.4,-17.53 128.09,-16.6"/>
<polygon fill="#63b8ff" stroke="#63b8ff" points="153.27,-22.95 163.6,-20.59 154.05,-16 153.27,-22.95"/>
</a>
</g>
</g>
</g>
</svg>
