<?xml version="1.0" encoding="UTF-8" standalone="no"?>
<!DOCTYPE svg PUBLIC "-//W3C//DTD SVG 1.1//EN"
 "http://www.w3.org/Graphics/SVG/1.1/DTD/svg11.dtd">
<!-- Generated by graphviz version 2.43.0 (0)
 -->
<!-- Title: fl/sstream.h Pages: 1 -->
<!--zoomable 413 -->

<svg id="main" version="1.1" xmlns="http://www.w3.org/2000/svg" xmlns:xlink="http://www.w3.org/1999/xlink" xml:space="preserve" onload="init(evt)">

<style type="text/css"><![CDATA[
.node, .edge {opacity: 0.7;}
.node.selected, .edge.selected {opacity: 1;}
.edge:hover path { stroke: red; }
.edge:hover polygon { stroke: red; fill: red; }
]]></style>

<defs>
  <circle id="rim" cx="0" cy="0" r="7"/>
  <circle id="rim2" cx="0" cy="0" r="3.5"/>
  <g id="zoomPlus">
    <use xlink:href="#rim" fill="#404040"><set attributeName="fill" to="#808080" begin="zoomplus.mouseover" end="zoomplus.mouseout"/></use>
    <path d="M-4,0h8M0,-4v8" fill="none" stroke="white" stroke-width="1.5" pointer-events="none"/>
  </g>
  <g id="zoomMin">
    <use xlink:href="#rim" fill="#404040"><set attributeName="fill" to="#808080" begin="zoomminus.mouseover" end="zoomminus.mouseout"/></use>
    <path d="M-4,0h8" fill="none" stroke="white" stroke-width="1.5" pointer-events="none"/>
  </g>
  <g id="arrowUp" transform="translate(30 24)">
    <use xlink:href="#rim"/>
    <path pointer-events="none" fill="none" stroke="white" stroke-width="1.5" d="M0,-3.0v7 M-2.5,-0.5L0,-3.0L2.5,-0.5"/>
  </g>
  <g id="arrowRight" transform="rotate(90) translate(36 -43)">
    <use xlink:href="#rim"/>
    <path pointer-events="none" fill="none" stroke="white" stroke-width="1.5" d="M0,-3.0v7 M-2.5,-0.5L0,-3.0L2.5,-0.5"/>
  </g>
  <g id="arrowDown" transform="rotate(180) translate(-30 -48)">
    <use xlink:href="#rim"/>
    <path pointer-events="none" fill="none" stroke="white" stroke-width="1.5" d="M0,-3.0v7 M-2.5,-0.5L0,-3.0L2.5,-0.5"/>
  </g>
  <g id="arrowLeft" transform="rotate(270) translate(-36 17)">
    <use xlink:href="#rim"/>
    <path pointer-events="none" fill="none" stroke="white" stroke-width="1.5" d="M0,-3.0v7 M-2.5,-0.5L0,-3.0L2.5,-0.5"/>
  </g>
  <g id="resetDef">
    <use xlink:href="#rim2" fill="#404040"><set attributeName="fill" to="#808080" begin="reset.mouseover" end="reset.mouseout"/></use>
  </g>
</defs>
<script type="application/ecmascript">
var viewWidth = 918;
var viewHeight = 413;
var sectionId = 'dynsection-0';
</script>
<script type="application/ecmascript" xlink:href="../../svg.min.js"/>
<svg id="graph" class="graph">
<g id="viewport">
<title>fl/sstream.h</title>
<!-- Node1 -->
<g id="Node000001" class="node">
<title>Node1</title>
<g id="a_Node000001"><a xlink:title=" ">
<polygon fill="#999999" stroke="#666666" points="612.26,-404.56 538.26,-404.56 538.26,-385.56 612.26,-385.56 612.26,-404.56"/>
<text text-anchor="middle" x="575.26" y="-392.56" font-family="Helvetica,sans-Serif" font-size="10.00">fl/sstream.h</text>
</a>
</g>
</g>
<!-- Node2 -->
<g id="Node000002" class="node">
<title>Node2</title>
<g id="a_Node000002"><a xlink:href="../../d8/d00/strstream_8h.html" target="_top" xlink:title=" ">
<polygon fill="white" stroke="#666666" points="616.26,-349.56 534.26,-349.56 534.26,-330.56 616.26,-330.56 616.26,-349.56"/>
<text text-anchor="middle" x="575.26" y="-337.56" font-family="Helvetica,sans-Serif" font-size="10.00">fl/strstream.h</text>
</a>
</g>
</g>
<!-- Node1&#45;&gt;Node2 -->
<g id="edge1_Node000001_Node000002" class="edge">
<title>Node1&#45;&gt;Node2</title>
<g id="a_edge1_Node000001_Node000002"><a xlink:title=" ">
<path fill="none" stroke="#63b8ff" d="M575.26,-385.31C575.26,-378.37 575.26,-368.41 575.26,-359.7"/>
<polygon fill="#63b8ff" stroke="#63b8ff" points="578.76,-359.65 575.26,-349.65 571.76,-359.65 578.76,-359.65"/>
</a>
</g>
</g>
<!-- Node3 -->
<g id="Node000003" class="node">
<title>Node3</title>
<g id="a_Node000003"><a xlink:href="../../d3/d7e/int_8h.html" target="_top" xlink:title=" ">
<polygon fill="white" stroke="#666666" points="563.76,-74.56 516.76,-74.56 516.76,-55.56 563.76,-55.56 563.76,-74.56"/>
<text text-anchor="middle" x="540.26" y="-62.56" font-family="Helvetica,sans-Serif" font-size="10.00">fl/int.h</text>
</a>
</g>
</g>
<!-- Node2&#45;&gt;Node3 -->
<g id="edge2_Node000002_Node000003" class="edge">
<title>Node2&#45;&gt;Node3</title>
<g id="a_edge2_Node000002_Node000003"><a xlink:title=" ">
<path fill="none" stroke="#63b8ff" d="M616.32,-333.53C670.82,-323.62 760.26,-297.26 760.26,-231.06 760.26,-231.06 760.26,-231.06 760.26,-174.06 760.26,-92.01 635.42,-72.29 573.83,-67.56"/>
<polygon fill="#63b8ff" stroke="#63b8ff" points="574.02,-64.06 563.81,-66.88 573.55,-71.05 574.02,-64.06"/>
</a>
</g>
</g>
<!-- Node7 -->
<g id="Node000007" class="node">
<title>Node7</title>
<g id="a_Node000007"><a xlink:href="../../d1/d93/str_8h.html" target="_top" xlink:title=" ">
<polygon fill="white" stroke="#666666" points="598.76,-294.56 551.76,-294.56 551.76,-275.56 598.76,-275.56 598.76,-294.56"/>
<text text-anchor="middle" x="575.26" y="-282.56" font-family="Helvetica,sans-Serif" font-size="10.00">fl/str.h</text>
</a>
</g>
</g>
<!-- Node2&#45;&gt;Node7 -->
<g id="edge6_Node000002_Node000007" class="edge">
<title>Node2&#45;&gt;Node7</title>
<g id="a_edge6_Node000002_Node000007"><a xlink:title=" ">
<path fill="none" stroke="#63b8ff" d="M575.26,-330.31C575.26,-323.37 575.26,-313.41 575.26,-304.7"/>
<polygon fill="#63b8ff" stroke="#63b8ff" points="578.76,-304.65 575.26,-294.65 571.76,-304.65 578.76,-304.65"/>
</a>
</g>
</g>
<!-- Node52 -->
<g id="Node000052" class="node">
<title>Node52</title>
<g id="a_Node000052"><a xlink:href="../../db/dd1/crgb_8h.html" target="_top" xlink:title="Defines the red, green, and blue (RGB) pixel struct.">
<polygon fill="white" stroke="#666666" points="251.76,-184.56 204.76,-184.56 204.76,-165.56 251.76,-165.56 251.76,-184.56"/>
<text text-anchor="middle" x="228.26" y="-172.56" font-family="Helvetica,sans-Serif" font-size="10.00">crgb.h</text>
</a>
</g>
</g>
<!-- Node2&#45;&gt;Node52 -->
<g id="edge32_Node000002_Node000052" class="edge">
<title>Node2&#45;&gt;Node52</title>
<g id="a_edge32_Node000002_Node000052"><a xlink:title=" ">
<path fill="none" stroke="#63b8ff" d="M534.19,-331.98C474.97,-320.29 363.97,-292.79 284.26,-239.56 265.81,-227.24 249.65,-207.38 239.5,-193.14"/>
<polygon fill="#63b8ff" stroke="#63b8ff" points="242.27,-191 233.72,-184.74 236.5,-194.97 242.27,-191"/>
</a>
</g>
</g>
<!-- Node4 -->
<g id="Node000004" class="node">
<title>Node4</title>
<g id="a_Node000004"><a xlink:href="../../df/dd8/stdint_8h.html" target="_top" xlink:title=" ">
<polygon fill="#fff0f0" stroke="red" points="396.26,-19.56 334.26,-19.56 334.26,-0.56 396.26,-0.56 396.26,-19.56"/>
<text text-anchor="middle" x="365.26" y="-7.56" font-family="Helvetica,sans-Serif" font-size="10.00">fl/stdint.h</text>
</a>
</g>
</g>
<!-- Node3&#45;&gt;Node4 -->
<g id="edge3_Node000003_Node000004" class="edge">
<title>Node3&#45;&gt;Node4</title>
<g id="a_edge3_Node000003_Node000004"><a xlink:title=" ">
<path fill="none" stroke="#63b8ff" d="M516.66,-56.92C487.54,-48.09 437.64,-32.98 403.13,-22.53"/>
<polygon fill="#63b8ff" stroke="#63b8ff" points="403.99,-19.13 393.4,-19.58 401.96,-25.83 403.99,-19.13"/>
</a>
</g>
</g>
<!-- Node6 -->
<g id="Node000006" class="node">
<title>Node6</title>
<g id="a_Node000006"><a xlink:title=" ">
<polygon fill="#e0e0e0" stroke="#999999" points="584.76,-19.56 495.76,-19.56 495.76,-0.56 584.76,-0.56 584.76,-19.56"/>
<text text-anchor="middle" x="540.26" y="-7.56" font-family="Helvetica,sans-Serif" font-size="10.00">platforms/int.h</text>
</a>
</g>
</g>
<!-- Node3&#45;&gt;Node6 -->
<g id="edge5_Node000003_Node000006" class="edge">
<title>Node3&#45;&gt;Node6</title>
<g id="a_edge5_Node000003_Node000006"><a xlink:title=" ">
<path fill="none" stroke="#63b8ff" d="M540.26,-55.31C540.26,-48.37 540.26,-38.41 540.26,-29.7"/>
<polygon fill="#63b8ff" stroke="#63b8ff" points="543.76,-29.65 540.26,-19.65 536.76,-29.65 543.76,-29.65"/>
</a>
</g>
</g>
<!-- Node4&#45;&gt;Node4 -->
<g id="edge4_Node000004_Node000004" class="edge">
<title>Node4&#45;&gt;Node4</title>
<g id="a_edge4_Node000004_Node000004"><a xlink:title=" ">
<path fill="none" stroke="#63b8ff" d="M388.2,-19.59C401.66,-21.63 414.26,-18.45 414.26,-10.06 414.26,-3.84 407.32,-0.49 398.24,0"/>
<polygon fill="#63b8ff" stroke="#63b8ff" points="398,3.49 388.2,-0.53 398.37,-3.5 398,3.49"/>
</a>
</g>
</g>
<!-- Node7&#45;&gt;Node3 -->
<g id="edge7_Node000007_Node000003" class="edge">
<title>Node7&#45;&gt;Node3</title>
<g id="a_edge7_Node000007_Node000003"><a xlink:title=" ">
<path fill="none" stroke="#63b8ff" d="M599.02,-280.34C651.19,-270.75 770.22,-240.51 758.26,-165.56 754.21,-140.16 759.31,-127.84 740.26,-110.56 716.16,-88.7 624.33,-75.35 573.91,-69.52"/>
<polygon fill="#63b8ff" stroke="#63b8ff" points="574.15,-66.03 563.82,-68.39 573.37,-72.98 574.15,-66.03"/>
</a>
</g>
</g>
<!-- Node8 -->
<g id="Node000008" class="node">
<title>Node8</title>
<g id="a_Node000008"><a xlink:href="../../da/d66/string_8h.html" target="_top" xlink:title=" ">
<polygon fill="white" stroke="#666666" points="909.76,-74.56 856.76,-74.56 856.76,-55.56 909.76,-55.56 909.76,-74.56"/>
<text text-anchor="middle" x="883.26" y="-62.56" font-family="Helvetica,sans-Serif" font-size="10.00">string.h</text>
</a>
</g>
</g>
<!-- Node7&#45;&gt;Node8 -->
<g id="edge8_Node000007_Node000008" class="edge">
<title>Node7&#45;&gt;Node8</title>
<g id="a_edge8_Node000007_Node000008"><a xlink:title=" ">
<path fill="none" stroke="#63b8ff" d="M598.86,-281.68C631.55,-277.68 690.69,-267.11 733.26,-239.56 797,-198.31 845.66,-118.8 869.08,-83.59"/>
<polygon fill="#63b8ff" stroke="#63b8ff" points="872.27,-85.13 875.01,-74.9 866.48,-81.18 872.27,-85.13"/>
</a>
</g>
</g>
<!-- Node9 -->
<g id="Node000009" class="node">
<title>Node9</title>
<g id="a_Node000009"><a xlink:href="../../d4/d67/geometry_8h.html" target="_top" xlink:title=" ">
<polygon fill="#fff0f0" stroke="red" points="732.26,-184.56 652.26,-184.56 652.26,-165.56 732.26,-165.56 732.26,-184.56"/>
<text text-anchor="middle" x="692.26" y="-172.56" font-family="Helvetica,sans-Serif" font-size="10.00">fl/geometry.h</text>
</a>
</g>
</g>
<!-- Node7&#45;&gt;Node9 -->
<g id="edge10_Node000007_Node000009" class="edge">
<title>Node7&#45;&gt;Node9</title>
<g id="a_edge10_Node000007_Node000009"><a xlink:title=" ">
<path fill="none" stroke="#63b8ff" d="M599.09,-275.68C617.1,-268.38 641.5,-256.33 658.26,-239.56 671.08,-226.74 680.29,-208.06 685.86,-194.28"/>
<polygon fill="#63b8ff" stroke="#63b8ff" points="689.16,-195.47 689.42,-184.88 682.61,-193 689.16,-195.47"/>
</a>
</g>
</g>
<!-- Node15 -->
<g id="Node000015" class="node">
<title>Node15</title>
<g id="a_Node000015"><a xlink:href="../../d8/db8/math__macros_8h.html" target="_top" xlink:title=" ">
<polygon fill="#fff0f0" stroke="red" points="595.76,-184.56 494.76,-184.56 494.76,-165.56 595.76,-165.56 595.76,-184.56"/>
<text text-anchor="middle" x="545.26" y="-172.56" font-family="Helvetica,sans-Serif" font-size="10.00">fl/math_macros.h</text>
</a>
</g>
</g>
<!-- Node7&#45;&gt;Node15 -->
<g id="edge12_Node000007_Node000015" class="edge">
<title>Node7&#45;&gt;Node15</title>
<g id="a_edge12_Node000007_Node000015"><a xlink:title=" ">
<path fill="none" stroke="#63b8ff" d="M579.78,-275.56C585.76,-263.1 594.72,-239.33 587.26,-220.56 582.74,-209.19 573.79,-199.04 565.3,-191.32"/>
<polygon fill="#63b8ff" stroke="#63b8ff" points="567.37,-188.48 557.47,-184.7 562.85,-193.83 567.37,-188.48"/>
</a>
</g>
</g>
<!-- Node17 -->
<g id="Node000017" class="node">
<title>Node17</title>
<g id="a_Node000017"><a xlink:href="../../df/d63/type__traits_8h.html" target="_top" xlink:title=" ">
<polygon fill="#fff0f0" stroke="red" points="583.76,-129.56 496.76,-129.56 496.76,-110.56 583.76,-110.56 583.76,-129.56"/>
<text text-anchor="middle" x="540.26" y="-117.56" font-family="Helvetica,sans-Serif" font-size="10.00">fl/type_traits.h</text>
</a>
</g>
</g>
<!-- Node7&#45;&gt;Node17 -->
<g id="edge22_Node000007_Node000017" class="edge">
<title>Node7&#45;&gt;Node17</title>
<g id="a_edge22_Node000007_Node000017"><a xlink:title=" ">
<path fill="none" stroke="#63b8ff" d="M551.33,-284.02C490.03,-283.34 329.93,-277.87 297.26,-239.56 266.48,-203.46 309.22,-190.56 355.26,-165.56 377.71,-153.37 440.55,-139.67 486.79,-130.73"/>
<polygon fill="#63b8ff" stroke="#63b8ff" points="487.51,-134.16 496.68,-128.84 486.2,-127.28 487.51,-134.16"/>
</a>
</g>
</g>
<!-- Node18 -->
<g id="Node000018" class="node">
<title>Node18</title>
<g id="a_Node000018"><a xlink:href="../../df/d2a/namespace_8h.html" target="_top" xlink:title="Implements the FastLED namespace macros.">
<polygon fill="white" stroke="#666666" points="140.76,-74.56 49.76,-74.56 49.76,-55.56 140.76,-55.56 140.76,-74.56"/>
<text text-anchor="middle" x="95.26" y="-62.56" font-family="Helvetica,sans-Serif" font-size="10.00">fl/namespace.h</text>
</a>
</g>
</g>
<!-- Node7&#45;&gt;Node18 -->
<g id="edge18_Node000007_Node000018" class="edge">
<title>Node7&#45;&gt;Node18</title>
<g id="a_edge18_Node000007_Node000018"><a xlink:title=" ">
<path fill="none" stroke="#63b8ff" d="M551.61,-281.61C452.39,-270.76 71.88,-223.41 8.26,-129.56 -7.34,-106.55 24.53,-88.85 54,-78.05"/>
<polygon fill="#63b8ff" stroke="#63b8ff" points="55.51,-81.23 63.82,-74.66 53.23,-74.61 55.51,-81.23"/>
</a>
</g>
</g>
<!-- Node20 -->
<g id="Node000020" class="node">
<title>Node20</title>
<g id="a_Node000020"><a xlink:href="../../dc/d18/memory_8h.html" target="_top" xlink:title=" ">
<polygon fill="#fff0f0" stroke="red" points="438.26,-184.56 364.26,-184.56 364.26,-165.56 438.26,-165.56 438.26,-184.56"/>
<text text-anchor="middle" x="401.26" y="-172.56" font-family="Helvetica,sans-Serif" font-size="10.00">fl/memory.h</text>
</a>
</g>
</g>
<!-- Node7&#45;&gt;Node20 -->
<g id="edge19_Node000007_Node000020" class="edge">
<title>Node7&#45;&gt;Node20</title>
<g id="a_edge19_Node000007_Node000020"><a xlink:title=" ">
<path fill="none" stroke="#63b8ff" d="M561.32,-275.41C531.41,-256.84 460.86,-213.05 424.23,-190.32"/>
<polygon fill="#63b8ff" stroke="#63b8ff" points="425.62,-187.06 415.28,-184.76 421.93,-193.01 425.62,-187.06"/>
</a>
</g>
</g>
<!-- Node46 -->
<g id="Node000046" class="node">
<title>Node46</title>
<g id="a_Node000046"><a xlink:href="../../dc/d62/optional_8h.html" target="_top" xlink:title=" ">
<polygon fill="#fff0f0" stroke="red" points="380.26,-239.56 306.26,-239.56 306.26,-220.56 380.26,-220.56 380.26,-239.56"/>
<text text-anchor="middle" x="343.26" y="-227.56" font-family="Helvetica,sans-Serif" font-size="10.00">fl/optional.h</text>
</a>
</g>
</g>
<!-- Node7&#45;&gt;Node46 -->
<g id="edge21_Node000007_Node000046" class="edge">
<title>Node7&#45;&gt;Node46</title>
<g id="a_edge21_Node000007_Node000046"><a xlink:title=" ">
<path fill="none" stroke="#63b8ff" d="M551.74,-278.69C514.1,-270.09 439.59,-253.07 390.6,-241.88"/>
<polygon fill="#63b8ff" stroke="#63b8ff" points="391.09,-238.4 380.56,-239.58 389.53,-245.22 391.09,-238.4"/>
</a>
</g>
</g>
<!-- Node47 -->
<g id="Node000047" class="node">
<title>Node47</title>
<g id="a_Node000047"><a xlink:href="../../d6/d68/vector_8h.html" target="_top" xlink:title=" ">
<polygon fill="#fff0f0" stroke="red" points="577.76,-239.56 512.76,-239.56 512.76,-220.56 577.76,-220.56 577.76,-239.56"/>
<text text-anchor="middle" x="545.26" y="-227.56" font-family="Helvetica,sans-Serif" font-size="10.00">fl/vector.h</text>
</a>
</g>
</g>
<!-- Node7&#45;&gt;Node47 -->
<g id="edge23_Node000007_Node000047" class="edge">
<title>Node7&#45;&gt;Node47</title>
<g id="a_edge23_Node000007_Node000047"><a xlink:title=" ">
<path fill="none" stroke="#63b8ff" d="M570.31,-275.31C566.2,-268.06 560.24,-257.52 555.16,-248.54"/>
<polygon fill="#63b8ff" stroke="#63b8ff" points="558.1,-246.63 550.13,-239.65 552.01,-250.08 558.1,-246.63"/>
</a>
</g>
</g>
<!-- Node50 -->
<g id="Node000050" class="node">
<title>Node50</title>
<g id="a_Node000050"><a xlink:href="../../d4/d7a/span_8h.html" target="_top" xlink:title=" ">
<polygon fill="#fff0f0" stroke="red" points="456.26,-239.56 398.26,-239.56 398.26,-220.56 456.26,-220.56 456.26,-239.56"/>
<text text-anchor="middle" x="427.26" y="-227.56" font-family="Helvetica,sans-Serif" font-size="10.00">fl/span.h</text>
</a>
</g>
</g>
<!-- Node7&#45;&gt;Node50 -->
<g id="edge30_Node000007_Node000050" class="edge">
<title>Node7&#45;&gt;Node50</title>
<g id="a_edge30_Node000007_Node000050"><a xlink:title=" ">
<path fill="none" stroke="#63b8ff" d="M551.49,-275.55C527.03,-266.79 488.73,-253.07 461.12,-243.19"/>
<polygon fill="#63b8ff" stroke="#63b8ff" points="462.07,-239.81 451.48,-239.73 459.71,-246.4 462.07,-239.81"/>
</a>
</g>
</g>
<!-- Node13 -->
<g id="Node000013" class="node">
<title>Node13</title>
<g id="a_Node000013"><a xlink:href="../../d4/d64/force__inline_8h.html" target="_top" xlink:title=" ">
<polygon fill="white" stroke="#666666" points="694.26,-129.56 602.26,-129.56 602.26,-110.56 694.26,-110.56 694.26,-129.56"/>
<text text-anchor="middle" x="648.26" y="-117.56" font-family="Helvetica,sans-Serif" font-size="10.00">fl/force_inline.h</text>
</a>
</g>
</g>
<!-- Node7&#45;&gt;Node13 -->
<g id="edge31_Node000007_Node000013" class="edge">
<title>Node7&#45;&gt;Node13</title>
<g id="a_edge31_Node000007_Node000013"><a xlink:title=" ">
<path fill="none" stroke="#63b8ff" d="M581.11,-275.45C586.92,-266.67 595.87,-252.53 602.26,-239.56 619.19,-205.21 634.3,-162.99 642.29,-139.34"/>
<polygon fill="#63b8ff" stroke="#63b8ff" points="645.69,-140.21 645.52,-129.61 639.05,-138 645.69,-140.21"/>
</a>
</g>
</g>
<!-- Node8&#45;&gt;Node7 -->
<g id="edge9_Node000008_Node000007" class="edge">
<title>Node8&#45;&gt;Node7</title>
<g id="a_edge9_Node000008_Node000007"><a xlink:title=" ">
<path fill="none" stroke="#63b8ff" d="M882.5,-74.9C872.67,-103.51 821,-194.43 751.26,-239.56 707.63,-267.8 646.59,-278.2 608.88,-281.97"/>
<polygon fill="#63b8ff" stroke="#63b8ff" points="608.55,-278.49 598.9,-282.87 609.18,-285.46 608.55,-278.49"/>
</a>
</g>
</g>
<!-- Node9&#45;&gt;Node3 -->
<g id="edge11_Node000009_Node000003" class="edge">
<title>Node9&#45;&gt;Node3</title>
<g id="a_edge11_Node000009_Node000003"><a xlink:title=" ">
<path fill="none" stroke="#63b8ff" d="M697.59,-165.27C704.85,-152.01 715.62,-126.75 703.26,-110.56 687.64,-90.1 616.81,-76.78 573.83,-70.42"/>
<polygon fill="#63b8ff" stroke="#63b8ff" points="574.2,-66.94 563.81,-69 573.21,-73.87 574.2,-66.94"/>
</a>
</g>
</g>
<!-- Node15&#45;&gt;Node17 -->
<g id="edge13_Node000015_Node000017" class="edge">
<title>Node15&#45;&gt;Node17</title>
<g id="a_edge13_Node000015_Node000017"><a xlink:title=" ">
<path fill="none" stroke="#63b8ff" d="M544.44,-165.31C543.78,-158.37 542.84,-148.41 542.02,-139.7"/>
<polygon fill="#63b8ff" stroke="#63b8ff" points="545.5,-139.28 541.07,-129.65 538.53,-139.94 545.5,-139.28"/>
</a>
</g>
</g>
<!-- Node17&#45;&gt;Node3 -->
<g id="edge17_Node000017_Node000003" class="edge">
<title>Node17&#45;&gt;Node3</title>
<g id="a_edge17_Node000017_Node000003"><a xlink:title=" ">
<path fill="none" stroke="#63b8ff" d="M540.26,-110.31C540.26,-103.37 540.26,-93.41 540.26,-84.7"/>
<polygon fill="#63b8ff" stroke="#63b8ff" points="543.76,-84.65 540.26,-74.65 536.76,-84.65 543.76,-84.65"/>
</a>
</g>
</g>
<!-- Node17&#45;&gt;Node4 -->
<g id="edge15_Node000017_Node000004" class="edge">
<title>Node17&#45;&gt;Node4</title>
<g id="a_edge15_Node000017_Node000004"><a xlink:title=" ">
<path fill="none" stroke="#63b8ff" d="M526.24,-110.41C496.03,-91.77 424.59,-47.68 387.89,-25.03"/>
<polygon fill="#63b8ff" stroke="#63b8ff" points="389.7,-22.03 379.36,-19.76 386.03,-27.99 389.7,-22.03"/>
</a>
</g>
</g>
<!-- Node17&#45;&gt;Node8 -->
<g id="edge14_Node000017_Node000008" class="edge">
<title>Node17&#45;&gt;Node8</title>
<g id="a_edge14_Node000017_Node000008"><a xlink:title=" ">
<path fill="none" stroke="#63b8ff" d="M583.93,-112.04C587.09,-111.54 590.23,-111.04 593.26,-110.56 684.27,-96.28 791.42,-79.97 846.49,-71.63"/>
<polygon fill="#63b8ff" stroke="#63b8ff" points="847.1,-75.07 856.47,-70.11 846.06,-68.15 847.1,-75.07"/>
</a>
</g>
</g>
<!-- Node17&#45;&gt;Node18 -->
<g id="edge16_Node000017_Node000018" class="edge">
<title>Node17&#45;&gt;Node18</title>
<g id="a_edge16_Node000017_Node000018"><a xlink:title=" ">
<path fill="none" stroke="#63b8ff" d="M496.38,-113.84C414.88,-104.13 240.33,-83.34 150.77,-72.67"/>
<polygon fill="#63b8ff" stroke="#63b8ff" points="151.15,-69.19 140.81,-71.49 150.32,-76.15 151.15,-69.19"/>
</a>
</g>
</g>
<!-- Node20&#45;&gt;Node17 -->
<g id="edge20_Node000020_Node000017" class="edge">
<title>Node20&#45;&gt;Node17</title>
<g id="a_edge20_Node000020_Node000017"><a xlink:title=" ">
<path fill="none" stroke="#63b8ff" d="M423.6,-165.55C446.46,-156.83 482.22,-143.19 508.13,-133.32"/>
<polygon fill="#63b8ff" stroke="#63b8ff" points="509.43,-136.57 517.52,-129.73 506.93,-130.03 509.43,-136.57"/>
</a>
</g>
</g>
<!-- Node47&#45;&gt;Node3 -->
<g id="edge25_Node000047_Node000003" class="edge">
<title>Node47&#45;&gt;Node3</title>
<g id="a_edge25_Node000047_Node000003"><a xlink:title=" ">
<path fill="none" stroke="#63b8ff" d="M577.89,-226.48C628.24,-221.73 721.18,-209.72 741.26,-184.56 757.6,-164.1 737.73,-126.66 719.26,-110.56 678.47,-75 613.52,-67 574.09,-65.67"/>
<polygon fill="#63b8ff" stroke="#63b8ff" points="574,-62.16 563.93,-65.45 573.86,-69.16 574,-62.16"/>
</a>
</g>
</g>
<!-- Node47&#45;&gt;Node4 -->
<g id="edge24_Node000047_Node000004" class="edge">
<title>Node47&#45;&gt;Node4</title>
<g id="a_edge24_Node000047_Node000004"><a xlink:title=" ">
<path fill="none" stroke="#63b8ff" d="M512.58,-225.44C498.09,-223.88 480.84,-222.06 465.26,-220.56 372.46,-211.64 129.72,-228.07 47.26,-184.56 19.33,-169.83 12.88,-159.31 2.26,-129.56 -5.9,-106.7 15,-57.53 17.26,-55.56 62.23,-16.46 241.77,-11.13 323.89,-10.8"/>
<polygon fill="#63b8ff" stroke="#63b8ff" points="324.11,-14.3 334.1,-10.78 324.1,-7.3 324.11,-14.3"/>
</a>
</g>
</g>
<!-- Node47&#45;&gt;Node8 -->
<g id="edge26_Node000047_Node000008" class="edge">
<title>Node47&#45;&gt;Node8</title>
<g id="a_edge26_Node000047_Node000008"><a xlink:title=" ">
<path fill="none" stroke="#63b8ff" d="M577.78,-227.75C621.22,-224.82 699.53,-215.32 758.26,-184.56 807.08,-159 850.39,-108.84 870.82,-82.74"/>
<polygon fill="#63b8ff" stroke="#63b8ff" points="873.76,-84.66 877.07,-74.59 868.21,-80.4 873.76,-84.66"/>
</a>
</g>
</g>
<!-- Node47&#45;&gt;Node15 -->
<g id="edge27_Node000047_Node000015" class="edge">
<title>Node47&#45;&gt;Node15</title>
<g id="a_edge27_Node000047_Node000015"><a xlink:title=" ">
<path fill="none" stroke="#63b8ff" d="M545.26,-220.31C545.26,-213.37 545.26,-203.41 545.26,-194.7"/>
<polygon fill="#63b8ff" stroke="#63b8ff" points="548.76,-194.65 545.26,-184.65 541.76,-194.65 548.76,-194.65"/>
</a>
</g>
</g>
<!-- Node47&#45;&gt;Node17 -->
<g id="edge29_Node000047_Node000017" class="edge">
<title>Node47&#45;&gt;Node17</title>
<g id="a_edge29_Node000047_Node000017"><a xlink:title=" ">
<path fill="none" stroke="#63b8ff" d="M526,-220.46C512.14,-213.11 494.5,-201.1 486.26,-184.56 476.67,-165.31 496.43,-147 514.69,-135.03"/>
<polygon fill="#63b8ff" stroke="#63b8ff" points="516.7,-137.91 523.39,-129.69 513.04,-131.94 516.7,-137.91"/>
</a>
</g>
</g>
<!-- Node47&#45;&gt;Node18 -->
<g id="edge28_Node000047_Node000018" class="edge">
<title>Node47&#45;&gt;Node18</title>
<g id="a_edge28_Node000047_Node000018"><a xlink:title=" ">
<path fill="none" stroke="#63b8ff" d="M512.64,-225.59C437.82,-217.51 255.67,-197.2 195.26,-184.56 110.47,-166.82 60.16,-198.93 8.26,-129.56 -8.67,-106.93 24.72,-88.89 54.91,-77.91"/>
<polygon fill="#63b8ff" stroke="#63b8ff" points="56.22,-81.16 64.53,-74.59 53.94,-74.54 56.22,-81.16"/>
</a>
</g>
</g>
<!-- Node52&#45;&gt;Node3 -->
<g id="edge34_Node000052_Node000003" class="edge">
<title>Node52&#45;&gt;Node3</title>
<g id="a_edge34_Node000052_Node000003"><a xlink:title=" ">
<path fill="none" stroke="#63b8ff" d="M251.96,-168.66C256.69,-167.61 261.63,-166.54 266.26,-165.56 347.38,-148.51 372.97,-161.98 449.26,-129.56 477.61,-117.52 506.03,-95.76 523.39,-81.11"/>
<polygon fill="#63b8ff" stroke="#63b8ff" points="525.69,-83.75 530.97,-74.57 521.11,-78.45 525.69,-83.75"/>
</a>
</g>
</g>
<!-- Node52&#45;&gt;Node4 -->
<g id="edge33_Node000052_Node000004" class="edge">
<title>Node52&#45;&gt;Node4</title>
<g id="a_edge33_Node000052_Node000004"><a xlink:title=" ">
<path fill="none" stroke="#63b8ff" d="M204.44,-172.91C152.73,-169.87 32.87,-159.65 8.26,-129.56 2.92,-123.03 6.06,-118.72 8.26,-110.56 15.63,-83.26 16.76,-71.3 40.26,-55.56 85.86,-25.04 246.94,-15.25 323.83,-12.28"/>
<polygon fill="#63b8ff" stroke="#63b8ff" points="324.23,-15.77 334.1,-11.91 323.97,-8.77 324.23,-15.77"/>
</a>
</g>
</g>
<!-- Node52&#45;&gt;Node17 -->
<g id="edge45_Node000052_Node000017" class="edge">
<title>Node52&#45;&gt;Node17</title>
<g id="a_edge45_Node000052_Node000017"><a xlink:title=" ">
<path fill="none" stroke="#63b8ff" d="M251.94,-168.54C256.67,-167.5 261.62,-166.46 266.26,-165.56 307.45,-157.62 419.3,-139.91 486.68,-129.38"/>
<polygon fill="#63b8ff" stroke="#63b8ff" points="487.35,-132.82 496.69,-127.82 486.27,-125.9 487.35,-132.82"/>
</a>
</g>
</g>
<!-- Node52&#45;&gt;Node18 -->
<g id="edge37_Node000052_Node000018" class="edge">
<title>Node52&#45;&gt;Node18</title>
<g id="a_edge37_Node000052_Node000018"><a xlink:title=" ">
<path fill="none" stroke="#63b8ff" d="M204.3,-170.96C178.51,-166.38 138.02,-155.34 114.26,-129.56 103.05,-117.4 98.44,-98.87 96.55,-84.97"/>
<polygon fill="#63b8ff" stroke="#63b8ff" points="100,-84.22 95.52,-74.61 93.03,-84.91 100,-84.22"/>
</a>
</g>
</g>
<!-- Node52&#45;&gt;Node13 -->
<g id="edge44_Node000052_Node000013" class="edge">
<title>Node52&#45;&gt;Node13</title>
<g id="a_edge44_Node000052_Node000013"><a xlink:title=" ">
<path fill="none" stroke="#63b8ff" d="M251.78,-171.46C308.42,-165.14 457.08,-148.2 591.97,-129.7"/>
<polygon fill="#63b8ff" stroke="#63b8ff" points="592.64,-133.14 602.07,-128.31 591.68,-126.21 592.64,-133.14"/>
</a>
</g>
</g>
<!-- Node53 -->
<g id="Node000053" class="node">
<title>Node53</title>
<g id="a_Node000053"><a xlink:href="../../d8/dd0/chsv_8h.html" target="_top" xlink:title="Defines the hue, saturation, and value (HSV) pixel struct.">
<polygon fill="#fff0f0" stroke="red" points="253.76,-129.56 206.76,-129.56 206.76,-110.56 253.76,-110.56 253.76,-129.56"/>
<text text-anchor="middle" x="230.26" y="-117.56" font-family="Helvetica,sans-Serif" font-size="10.00">chsv.h</text>
</a>
</g>
</g>
<!-- Node52&#45;&gt;Node53 -->
<g id="edge35_Node000052_Node000053" class="edge">
<title>Node52&#45;&gt;Node53</title>
<g id="a_edge35_Node000052_Node000053"><a xlink:title=" ">
<path fill="none" stroke="#63b8ff" d="M228.59,-165.31C228.86,-158.37 229.23,-148.41 229.56,-139.7"/>
<polygon fill="#63b8ff" stroke="#63b8ff" points="233.06,-139.78 229.94,-129.65 226.06,-139.51 233.06,-139.78"/>
</a>
</g>
</g>
<!-- Node55 -->
<g id="Node000055" class="node">
<title>Node55</title>
<g id="a_Node000055"><a xlink:href="../../d2/d6b/src_2color_8h.html" target="_top" xlink:title="Contains definitions for color correction and temperature.">
<polygon fill="white" stroke="#666666" points="66.76,-129.56 17.76,-129.56 17.76,-110.56 66.76,-110.56 66.76,-129.56"/>
<text text-anchor="middle" x="42.26" y="-117.56" font-family="Helvetica,sans-Serif" font-size="10.00">color.h</text>
</a>
</g>
</g>
<!-- Node52&#45;&gt;Node55 -->
<g id="edge38_Node000052_Node000055" class="edge">
<title>Node52&#45;&gt;Node55</title>
<g id="a_edge38_Node000052_Node000055"><a xlink:title=" ">
<path fill="none" stroke="#63b8ff" d="M204.71,-167.35C172.36,-158.13 113.98,-141.5 76.72,-130.88"/>
<polygon fill="#63b8ff" stroke="#63b8ff" points="77.39,-127.43 66.81,-128.06 75.47,-134.16 77.39,-127.43"/>
</a>
</g>
</g>
<!-- Node56 -->
<g id="Node000056" class="node">
<title>Node56</title>
<g id="a_Node000056"><a xlink:href="../../d9/ddf/lib8tion_2types_8h.html" target="_top" xlink:title="Defines fractional types used for lib8tion functions.">
<polygon fill="white" stroke="#666666" points="364.26,-129.56 272.26,-129.56 272.26,-110.56 364.26,-110.56 364.26,-129.56"/>
<text text-anchor="middle" x="318.26" y="-117.56" font-family="Helvetica,sans-Serif" font-size="10.00">lib8tion/types.h</text>
</a>
</g>
</g>
<!-- Node52&#45;&gt;Node56 -->
<g id="edge40_Node000052_Node000056" class="edge">
<title>Node52&#45;&gt;Node56</title>
<g id="a_edge40_Node000052_Node000056"><a xlink:title=" ">
<path fill="none" stroke="#63b8ff" d="M242.72,-165.55C256.68,-157.33 278.06,-144.74 294.51,-135.05"/>
<polygon fill="#63b8ff" stroke="#63b8ff" points="296.7,-137.82 303.54,-129.73 293.15,-131.79 296.7,-137.82"/>
</a>
</g>
</g>
<!-- Node57 -->
<g id="Node000057" class="node">
<title>Node57</title>
<g id="a_Node000057"><a xlink:href="../../de/d9a/hsv2rgb_8h.html" target="_top" xlink:title="Functions to convert from the HSV colorspace to the RGB colorspace.">
<polygon fill="white" stroke="#666666" points="188.76,-129.56 123.76,-129.56 123.76,-110.56 188.76,-110.56 188.76,-129.56"/>
<text text-anchor="middle" x="156.26" y="-117.56" font-family="Helvetica,sans-Serif" font-size="10.00">hsv2rgb.h</text>
</a>
</g>
</g>
<!-- Node52&#45;&gt;Node57 -->
<g id="edge46_Node000052_Node000057" class="edge">
<title>Node52&#45;&gt;Node57</title>
<g id="a_edge46_Node000052_Node000057"><a xlink:title=" ">
<path fill="none" stroke="#63b8ff" d="M216.7,-165.55C205.84,-157.56 189.38,-145.44 176.38,-135.87"/>
<polygon fill="#63b8ff" stroke="#63b8ff" points="178.17,-132.84 168.04,-129.73 174.02,-138.48 178.17,-132.84"/>
</a>
</g>
</g>
<!-- Node58 -->
<g id="Node000058" class="node">
<title>Node58</title>
<g id="a_Node000058"><a xlink:href="../../db/d19/ease_8h.html" target="_top" xlink:title=" ">
<polygon fill="#fff0f0" stroke="red" points="440.26,-129.56 382.26,-129.56 382.26,-110.56 440.26,-110.56 440.26,-129.56"/>
<text text-anchor="middle" x="411.26" y="-117.56" font-family="Helvetica,sans-Serif" font-size="10.00">fl/ease.h</text>
</a>
</g>
</g>
<!-- Node52&#45;&gt;Node58 -->
<g id="edge47_Node000052_Node000058" class="edge">
<title>Node52&#45;&gt;Node58</title>
<g id="a_edge47_Node000052_Node000058"><a xlink:title=" ">
<path fill="none" stroke="#63b8ff" d="M251.81,-167.24C282.26,-158.43 335.69,-142.95 372.24,-132.37"/>
<polygon fill="#63b8ff" stroke="#63b8ff" points="373.44,-135.66 382.07,-129.52 371.49,-128.94 373.44,-135.66"/>
</a>
</g>
</g>
<!-- Node53&#45;&gt;Node18 -->
<g id="edge36_Node000053_Node000018" class="edge">
<title>Node53&#45;&gt;Node18</title>
<g id="a_edge36_Node000053_Node000018"><a xlink:title=" ">
<path fill="none" stroke="#63b8ff" d="M208.57,-110.55C186.47,-101.87 151.94,-88.31 126.81,-78.45"/>
<polygon fill="#63b8ff" stroke="#63b8ff" points="127.94,-75.13 117.35,-74.73 125.38,-81.65 127.94,-75.13"/>
</a>
</g>
</g>
<!-- Node55&#45;&gt;Node18 -->
<g id="edge39_Node000055_Node000018" class="edge">
<title>Node55&#45;&gt;Node18</title>
<g id="a_edge39_Node000055_Node000018"><a xlink:title=" ">
<path fill="none" stroke="#63b8ff" d="M51.02,-110.31C58.73,-102.59 70.17,-91.16 79.48,-81.85"/>
<polygon fill="#63b8ff" stroke="#63b8ff" points="82.08,-84.2 86.67,-74.65 77.13,-79.25 82.08,-84.2"/>
</a>
</g>
</g>
<!-- Node56&#45;&gt;Node3 -->
<g id="edge42_Node000056_Node000003" class="edge">
<title>Node56&#45;&gt;Node3</title>
<g id="a_edge42_Node000056_Node000003"><a xlink:title=" ">
<path fill="none" stroke="#63b8ff" d="M353.93,-110.55C396.08,-100.49 465.66,-83.87 506.81,-74.05"/>
<polygon fill="#63b8ff" stroke="#63b8ff" points="507.72,-77.43 516.63,-71.71 506.09,-70.62 507.72,-77.43"/>
</a>
</g>
</g>
<!-- Node56&#45;&gt;Node4 -->
<g id="edge41_Node000056_Node000004" class="edge">
<title>Node56&#45;&gt;Node4</title>
<g id="a_edge41_Node000056_Node000004"><a xlink:title=" ">
<path fill="none" stroke="#63b8ff" d="M322.11,-110.23C329.79,-92.58 347.17,-52.65 357.37,-29.2"/>
<polygon fill="#63b8ff" stroke="#63b8ff" points="360.71,-30.29 361.5,-19.72 354.3,-27.49 360.71,-30.29"/>
</a>
</g>
</g>
<!-- Node56&#45;&gt;Node18 -->
<g id="edge43_Node000056_Node000018" class="edge">
<title>Node56&#45;&gt;Node18</title>
<g id="a_edge43_Node000056_Node000018"><a xlink:title=" ">
<path fill="none" stroke="#63b8ff" d="M282.43,-110.55C244.1,-101.44 183.18,-86.96 141.32,-77.01"/>
<polygon fill="#63b8ff" stroke="#63b8ff" points="141.91,-73.55 131.37,-74.65 140.29,-80.36 141.91,-73.55"/>
</a>
</g>
</g>
<!-- Node58&#45;&gt;Node3 -->
<g id="edge49_Node000058_Node000003" class="edge">
<title>Node58&#45;&gt;Node3</title>
<g id="a_edge49_Node000058_Node000003"><a xlink:title=" ">
<path fill="none" stroke="#63b8ff" d="M431.99,-110.55C453.02,-101.91 485.81,-88.43 509.8,-78.58"/>
<polygon fill="#63b8ff" stroke="#63b8ff" points="511.24,-81.77 519.16,-74.73 508.58,-75.3 511.24,-81.77"/>
</a>
</g>
</g>
<!-- Node58&#45;&gt;Node4 -->
<g id="edge48_Node000058_Node000004" class="edge">
<title>Node58&#45;&gt;Node4</title>
<g id="a_edge48_Node000058_Node000004"><a xlink:title=" ">
<path fill="none" stroke="#63b8ff" d="M407.5,-110.23C399.98,-92.58 382.98,-52.65 372.99,-29.2"/>
<polygon fill="#63b8ff" stroke="#63b8ff" points="376.09,-27.55 368.95,-19.72 369.65,-30.29 376.09,-27.55"/>
</a>
</g>
</g>
</g>
</svg>

<g id="navigator" transform="translate(0 0)" fill="#404254">
  <rect fill="#f2f5e9" fill-opacity="0.5" stroke="#606060" stroke-width=".5" x="0" y="0" width="60" height="60"/>
  <use id="zoomplus" xlink:href="#zoomPlus" x="17" y="9" onmousedown="handleZoom(evt,'in')"/>
  <use id="zoomminus" xlink:href="#zoomMin" x="42" y="9" onmousedown="handleZoom(evt,'out')"/>
  <use id="reset" xlink:href="#resetDef" x="30" y="36" onmousedown="handleReset()"/>
   <use id="arrowup" xlink:href="#arrowUp" x="0" y="0" onmousedown="handlePan(0,-1)"/>
  <use id="arrowright" xlink:href="#arrowRight" x="0" y="0" onmousedown="handlePan(1,0)"/>
  <use id="arrowdown" xlink:href="#arrowDown" x="0" y="0" onmousedown="handlePan(0,1)"/>
  <use id="arrowleft" xlink:href="#arrowLeft" x="0" y="0" onmousedown="handlePan(-1,0)"/>
</g>
<svg viewBox="0 0 15 15" width="100%" height="30px" preserveAspectRatio="xMaxYMin meet">
 <g id="arrow_out" transform="scale(0.3 0.3)">
  <a xlink:href="sstream_8h__incl_org.svg" target="_base">
   <rect id="button" ry="5" rx="5" y="6" x="6" height="38" width="38"
        fill="#f2f5e9" fill-opacity="0.5" stroke="#606060" stroke-width="1.0"/>
   <path id="arrow"
     d="M 11.500037,31.436501 C 11.940474,20.09759 22.043105,11.32322 32.158766,21.979434 L 37.068811,17.246167 C 37.068811,17.246167 37.088388,32 37.088388,32 L 22.160133,31.978069 C 22.160133,31.978069 26.997745,27.140456 26.997745,27.140456 C 18.528582,18.264221 13.291696,25.230495 11.500037,31.436501 z"
     style="fill:#404040;"/>
  </a>
 </g>
</svg>

<style type='text/css'>
<![CDATA[
[data-mouse-over-selected='false'] { opacity: 0.7; }
[data-mouse-over-selected='true']  { opacity: 1.0; }
]]>
</style>
<script type="application/ecmascript"><![CDATA[
document.addEventListener('DOMContentLoaded', (event) => {
  highlightEdges();
  highlightAdjacentNodes();
});
]]></script>
</svg>
