<?xml version="1.0" encoding="UTF-8" standalone="no"?>
<!DOCTYPE svg PUBLIC "-//W3C//DTD SVG 1.1//EN"
 "http://www.w3.org/Graphics/SVG/1.1/DTD/svg11.dtd">
<!-- Generated by graphviz version 2.43.0 (0)
 -->
<!-- Title: fl/codec/mp4_parser.h Pages: 1 -->
<svg width="433pt" height="269pt"
 viewBox="0.00 0.00 433.00 269.00" xmlns="http://www.w3.org/2000/svg" xmlns:xlink="http://www.w3.org/1999/xlink">

<svg id="main" version="1.1" xmlns="http://www.w3.org/2000/svg" xmlns:xlink="http://www.w3.org/1999/xlink" xml:space="preserve">

<style type="text/css"><![CDATA[
.node, .edge {opacity: 0.7;}
.node.selected, .edge.selected {opacity: 1;}
.edge:hover path { stroke: red; }
.edge:hover polygon { stroke: red; fill: red; }
]]></style>
<script type="application/ecmascript" xlink:href="../../svg.min.js"/>
<svg id="graph" class="graph">
<g id="graph0" class="graph" transform="scale(1 1) rotate(0) translate(4 265)">
<title>fl/codec/mp4_parser.h</title>
<!-- Node1 -->
<g id="Node000001" class="node">
<title>Node1</title>
<g id="a_Node000001"><a xlink:title=" ">
<polygon fill="#999999" stroke="#666666" points="266,-261 143,-261 143,-242 266,-242 266,-261"/>
<text text-anchor="middle" x="204.5" y="-249" font-family="Helvetica,sans-Serif" font-size="10.00">fl/codec/mp4_parser.h</text>
</a>
</g>
</g>
<!-- Node2 -->
<g id="Node000002" class="node">
<title>Node2</title>
<g id="a_Node000002"><a xlink:href="../../db/dfb/_auto_research_remote_8cpp.html" target="_top" xlink:title=" ">
<polygon fill="white" stroke="#666666" points="179,-151 0,-151 0,-110 179,-110 179,-151"/>
<text text-anchor="start" x="8" y="-139" font-family="Helvetica,sans-Serif" font-size="10.00">/home/runner/work/FastLED</text>
<text text-anchor="start" x="8" y="-128" font-family="Helvetica,sans-Serif" font-size="10.00">/FastLED/examples/AutoResearch</text>
<text text-anchor="middle" x="89.5" y="-117" font-family="Helvetica,sans-Serif" font-size="10.00">/AutoResearchRemote.cpp</text>
</a>
</g>
</g>
<!-- Node1&#45;&gt;Node2 -->
<g id="edge1_Node000001_Node000002" class="edge">
<title>Node1&#45;&gt;Node2</title>
<g id="a_edge1_Node000001_Node000002"><a xlink:title=" ">
<path fill="none" stroke="#63b8ff" d="M164.17,-238.41C146.81,-231.41 127.56,-220.96 114.5,-206 101.04,-190.58 94.77,-167.66 91.89,-151.31"/>
<polygon fill="#63b8ff" stroke="#63b8ff" points="162.97,-241.7 173.56,-241.95 165.44,-235.15 162.97,-241.7"/>
</a>
</g>
</g>
<!-- Node3 -->
<g id="Node000003" class="node">
<title>Node3</title>
<g id="a_Node000003"><a xlink:href="../../db/da1/h264_8cpp_8hpp.html" target="_top" xlink:title=" ">
<polygon fill="white" stroke="#666666" points="319.5,-140 197.5,-140 197.5,-121 319.5,-121 319.5,-140"/>
<text text-anchor="middle" x="258.5" y="-128" font-family="Helvetica,sans-Serif" font-size="10.00">fl/codec/h264.cpp.hpp</text>
</a>
</g>
</g>
<!-- Node1&#45;&gt;Node3 -->
<g id="edge2_Node000001_Node000003" class="edge">
<title>Node1&#45;&gt;Node3</title>
<g id="a_edge2_Node000001_Node000003"><a xlink:title=" ">
<path fill="none" stroke="#63b8ff" d="M212.64,-232.55C224.4,-206.64 245.69,-159.74 254.51,-140.3"/>
<polygon fill="#63b8ff" stroke="#63b8ff" points="209.33,-231.39 208.38,-241.94 215.7,-234.28 209.33,-231.39"/>
</a>
</g>
</g>
<!-- Node7 -->
<g id="Node000007" class="node">
<title>Node7</title>
<g id="a_Node000007"><a xlink:href="../../db/d54/h264_8h.html" target="_top" xlink:title=" ">
<polygon fill="white" stroke="#666666" points="213.5,-206 123.5,-206 123.5,-187 213.5,-187 213.5,-206"/>
<text text-anchor="middle" x="168.5" y="-194" font-family="Helvetica,sans-Serif" font-size="10.00">fl/codec/h264.h</text>
</a>
</g>
</g>
<!-- Node1&#45;&gt;Node7 -->
<g id="edge6_Node000001_Node000007" class="edge">
<title>Node1&#45;&gt;Node7</title>
<g id="a_edge6_Node000001_Node000007"><a xlink:title=" ">
<path fill="none" stroke="#63b8ff" d="M192.88,-233.39C186.68,-224.27 179.33,-213.45 174.33,-206.09"/>
<polygon fill="#63b8ff" stroke="#63b8ff" points="190.04,-235.44 198.56,-241.75 195.83,-231.51 190.04,-235.44"/>
</a>
</g>
</g>
<!-- Node8 -->
<g id="Node000008" class="node">
<title>Node8</title>
<g id="a_Node000008"><a xlink:href="../../d4/d97/mp4__parser_8cpp_8hpp.html" target="_top" xlink:title=" ">
<polygon fill="white" stroke="#666666" points="425,-206 270,-206 270,-187 425,-187 425,-206"/>
<text text-anchor="middle" x="347.5" y="-194" font-family="Helvetica,sans-Serif" font-size="10.00">fl/codec/mp4_parser.cpp.hpp</text>
</a>
</g>
</g>
<!-- Node1&#45;&gt;Node8 -->
<g id="edge9_Node000001_Node000008" class="edge">
<title>Node1&#45;&gt;Node8</title>
<g id="a_edge9_Node000001_Node000008"><a xlink:title=" ">
<path fill="none" stroke="#63b8ff" d="M237.09,-238.42C263.62,-228.59 300.43,-214.95 324.11,-206.17"/>
<polygon fill="#63b8ff" stroke="#63b8ff" points="235.64,-235.23 227.48,-241.98 238.07,-241.79 235.64,-235.23"/>
</a>
</g>
</g>
<!-- Node4 -->
<g id="Node000004" class="node">
<title>Node4</title>
<g id="a_Node000004"><a xlink:href="../../d7/df8/fl_2codec_2__build_8cpp_8hpp.html" target="_top" xlink:title=" ">
<polygon fill="white" stroke="#666666" points="366.5,-74 238.5,-74 238.5,-55 366.5,-55 366.5,-74"/>
<text text-anchor="middle" x="302.5" y="-62" font-family="Helvetica,sans-Serif" font-size="10.00">fl/codec/_build.cpp.hpp</text>
</a>
</g>
</g>
<!-- Node3&#45;&gt;Node4 -->
<g id="edge3_Node000003_Node000004" class="edge">
<title>Node3&#45;&gt;Node4</title>
<g id="a_edge3_Node000003_Node000004"><a xlink:title=" ">
<path fill="none" stroke="#63b8ff" d="M270.25,-112.41C278.66,-100.18 289.64,-84.2 296.38,-74.41"/>
<polygon fill="#63b8ff" stroke="#63b8ff" points="267.22,-110.65 264.43,-120.87 272.98,-114.61 267.22,-110.65"/>
</a>
</g>
</g>
<!-- Node5 -->
<g id="Node000005" class="node">
<title>Node5</title>
<g id="a_Node000005"><a xlink:href="../../d1/deb/fl_2__build_8cpp_8hpp.html" target="_top" xlink:title=" ">
<polygon fill="white" stroke="#666666" points="287.5,-19 191.5,-19 191.5,0 287.5,0 287.5,-19"/>
<text text-anchor="middle" x="239.5" y="-7" font-family="Helvetica,sans-Serif" font-size="10.00">fl/_build.cpp.hpp</text>
</a>
</g>
</g>
<!-- Node4&#45;&gt;Node5 -->
<g id="edge4_Node000004_Node000005" class="edge">
<title>Node4&#45;&gt;Node5</title>
<g id="a_edge4_Node000004_Node000005"><a xlink:title=" ">
<path fill="none" stroke="#63b8ff" d="M284.46,-48.32C273.23,-38.87 259.18,-27.06 249.81,-19.17"/>
<polygon fill="#63b8ff" stroke="#63b8ff" points="282.47,-51.23 292.38,-54.98 286.98,-45.87 282.47,-51.23"/>
</a>
</g>
</g>
<!-- Node6 -->
<g id="Node000006" class="node">
<title>Node6</title>
<g id="a_Node000006"><a xlink:href="../../dd/dad/fl_8codec_09_8cpp.html" target="_top" xlink:title="Unity build: recursive includes from src/fl/codec/.">
<polygon fill="white" stroke="#666666" points="425,-19 306,-19 306,0 425,0 425,-19"/>
<text text-anchor="middle" x="365.5" y="-7" font-family="Helvetica,sans-Serif" font-size="10.00">fl/build/fl.codec+.cpp</text>
</a>
</g>
</g>
<!-- Node4&#45;&gt;Node6 -->
<g id="edge5_Node000004_Node000006" class="edge">
<title>Node4&#45;&gt;Node6</title>
<g id="a_edge5_Node000004_Node000006"><a xlink:title=" ">
<path fill="none" stroke="#63b8ff" d="M320.54,-48.32C331.77,-38.87 345.82,-27.06 355.19,-19.17"/>
<polygon fill="#63b8ff" stroke="#63b8ff" points="318.02,-45.87 312.62,-54.98 322.53,-51.23 318.02,-45.87"/>
</a>
</g>
</g>
<!-- Node7&#45;&gt;Node2 -->
<g id="edge7_Node000007_Node000002" class="edge">
<title>Node7&#45;&gt;Node2</title>
<g id="a_edge7_Node000007_Node000002"><a xlink:title=" ">
<path fill="none" stroke="#63b8ff" d="M149.88,-180.41C139.03,-171.63 125.24,-160.46 113.58,-151.01"/>
<polygon fill="#63b8ff" stroke="#63b8ff" points="147.87,-183.29 157.85,-186.87 152.28,-177.85 147.87,-183.29"/>
</a>
</g>
</g>
<!-- Node7&#45;&gt;Node3 -->
<g id="edge8_Node000007_Node000003" class="edge">
<title>Node7&#45;&gt;Node3</title>
<g id="a_edge8_Node000007_Node000003"><a xlink:title=" ">
<path fill="none" stroke="#63b8ff" d="M189.12,-180.83C206.78,-168.28 231.6,-150.63 246.27,-140.2"/>
<polygon fill="#63b8ff" stroke="#63b8ff" points="186.76,-178.22 180.64,-186.87 190.82,-183.93 186.76,-178.22"/>
</a>
</g>
</g>
<!-- Node8&#45;&gt;Node4 -->
<g id="edge10_Node000008_Node000004" class="edge">
<title>Node8&#45;&gt;Node4</title>
<g id="a_edge10_Node000008_Node000004"><a xlink:title=" ">
<path fill="none" stroke="#63b8ff" d="M345.07,-176.89C342.37,-159.24 337.2,-132.18 328.5,-110 323.34,-96.84 314.64,-82.97 308.74,-74.28"/>
<polygon fill="#63b8ff" stroke="#63b8ff" points="341.63,-177.58 346.5,-186.99 348.56,-176.6 341.63,-177.58"/>
</a>
</g>
</g>
</g>
</svg>
</svg>

<style type='text/css'>
<![CDATA[
[data-mouse-over-selected='false'] { opacity: 0.7; }
[data-mouse-over-selected='true']  { opacity: 1.0; }
]]>
</style>
<script type="application/ecmascript"><![CDATA[
document.addEventListener('DOMContentLoaded', (event) => {
  highlightEdges();
  highlightAdjacentNodes();
});
]]></script>
</svg>
