<?xml version="1.0" encoding="UTF-8" standalone="no"?>
<!DOCTYPE svg PUBLIC "-//W3C//DTD SVG 1.1//EN"
 "http://www.w3.org/Graphics/SVG/1.1/DTD/svg11.dtd">
<!-- Generated by graphviz version 2.43.0 (0)
 -->
<!-- Title: fl::third_party::truetype::stbtt__csctx_v Pages: 1 -->
<!--zoomable 167 -->

<svg id="main" version="1.1" xmlns="http://www.w3.org/2000/svg" xmlns:xlink="http://www.w3.org/1999/xlink" xml:space="preserve" onload="init(evt)">

<style type="text/css"><![CDATA[
.node, .edge {opacity: 0.7;}
.node.selected, .edge.selected {opacity: 1;}
.edge:hover path { stroke: red; }
.edge:hover polygon { stroke: red; fill: red; }
]]></style>

<defs>
  <circle id="rim" cx="0" cy="0" r="7"/>
  <circle id="rim2" cx="0" cy="0" r="3.5"/>
  <g id="zoomPlus">
    <use xlink:href="#rim" fill="#404040"><set attributeName="fill" to="#808080" begin="zoomplus.mouseover" end="zoomplus.mouseout"/></use>
    <path d="M-4,0h8M0,-4v8" fill="none" stroke="white" stroke-width="1.5" pointer-events="none"/>
  </g>
  <g id="zoomMin">
    <use xlink:href="#rim" fill="#404040"><set attributeName="fill" to="#808080" begin="zoomminus.mouseover" end="zoomminus.mouseout"/></use>
    <path d="M-4,0h8" fill="none" stroke="white" stroke-width="1.5" pointer-events="none"/>
  </g>
  <g id="arrowUp" transform="translate(30 24)">
    <use xlink:href="#rim"/>
    <path pointer-events="none" fill="none" stroke="white" stroke-width="1.5" d="M0,-3.0v7 M-2.5,-0.5L0,-3.0L2.5,-0.5"/>
  </g>
  <g id="arrowRight" transform="rotate(90) translate(36 -43)">
    <use xlink:href="#rim"/>
    <path pointer-events="none" fill="none" stroke="white" stroke-width="1.5" d="M0,-3.0v7 M-2.5,-0.5L0,-3.0L2.5,-0.5"/>
  </g>
  <g id="arrowDown" transform="rotate(180) translate(-30 -48)">
    <use xlink:href="#rim"/>
    <path pointer-events="none" fill="none" stroke="white" stroke-width="1.5" d="M0,-3.0v7 M-2.5,-0.5L0,-3.0L2.5,-0.5"/>
  </g>
  <g id="arrowLeft" transform="rotate(270) translate(-36 17)">
    <use xlink:href="#rim"/>
    <path pointer-events="none" fill="none" stroke="white" stroke-width="1.5" d="M0,-3.0v7 M-2.5,-0.5L0,-3.0L2.5,-0.5"/>
  </g>
  <g id="resetDef">
    <use xlink:href="#rim2" fill="#404040"><set attributeName="fill" to="#808080" begin="reset.mouseover" end="reset.mouseout"/></use>
  </g>
</defs>
<script type="application/ecmascript">
var viewWidth = 655;
var viewHeight = 167;
var sectionId = 'dynsection-1';
</script>
<script type="application/ecmascript" xlink:href="../../svg.min.js"/>
<svg id="graph" class="graph">
<g id="viewport">
<title>fl::third_party::truetype::stbtt__csctx_v</title>
<!-- Node1 -->
<g id="Node000001" class="node">
<title>Node1</title>
<g id="a_Node000001"><a xlink:title=" ">
<polygon fill="#999999" stroke="#666666" points="647,-94 519,-94 519,-64 647,-64 647,-94"/>
<text text-anchor="start" x="527" y="-82" font-family="Helvetica,sans-Serif" font-size="10.00">fl::third_party::truetype</text>
<text text-anchor="middle" x="583" y="-71" font-family="Helvetica,sans-Serif" font-size="10.00">::stbtt__csctx_v</text>
</a>
</g>
</g>
<!-- Node2 -->
<g id="Node000002" class="node">
<title>Node2</title>
<g id="a_Node000002"><a xlink:href="../../dc/d41/namespacefl_1_1third__party_1_1truetype_a31b25bf1ebf8c39d03ccff1fbeea585a.html#a31b25bf1ebf8c39d03ccff1fbeea585a" target="_top" xlink:title=" ">
<polygon fill="white" stroke="#666666" points="483,-116 337,-116 337,-86 483,-86 483,-116"/>
<text text-anchor="start" x="345" y="-104" font-family="Helvetica,sans-Serif" font-size="10.00">fl::third_party::truetype</text>
<text text-anchor="middle" x="410" y="-93" font-family="Helvetica,sans-Serif" font-size="10.00">::stbtt__csctx_close_shape</text>
</a>
</g>
</g>
<!-- Node1&#45;&gt;Node2 -->
<g id="edge1_Node000001_Node000002" class="edge">
<title>Node1&#45;&gt;Node2</title>
<g id="a_edge1_Node000001_Node000002"><a xlink:title=" ">
<path fill="none" stroke="#63b8ff" d="M508.62,-88.44C500.18,-89.53 491.58,-90.63 483.16,-91.72"/>
<polygon fill="#63b8ff" stroke="#63b8ff" points="509.34,-91.88 518.81,-87.13 508.45,-84.93 509.34,-91.88"/>
</a>
</g>
</g>
<!-- Node3 -->
<g id="Node000003" class="node">
<title>Node3</title>
<g id="a_Node000003"><a xlink:href="../../dc/d41/namespacefl_1_1third__party_1_1truetype_afb36db69efc25ae432a245588f6e2232.html#afb36db69efc25ae432a245588f6e2232" target="_top" xlink:title=" ">
<polygon fill="white" stroke="#666666" points="299,-159 166,-159 166,-129 299,-129 299,-159"/>
<text text-anchor="start" x="174" y="-147" font-family="Helvetica,sans-Serif" font-size="10.00">fl::third_party::truetype</text>
<text text-anchor="middle" x="232.5" y="-136" font-family="Helvetica,sans-Serif" font-size="10.00">::stbtt__csctx_rmove_to</text>
</a>
</g>
</g>
<!-- Node1&#45;&gt;Node3 -->
<g id="edge9_Node000001_Node000003" class="edge">
<title>Node1&#45;&gt;Node3</title>
<g id="a_edge9_Node000001_Node000003"><a xlink:title=" ">
<path fill="none" stroke="#63b8ff" d="M547.17,-98.94C528.7,-108.53 505.28,-119.18 483,-125 422.05,-140.92 350.11,-144.9 299.17,-145.36"/>
<polygon fill="#63b8ff" stroke="#63b8ff" points="548.9,-101.98 556.08,-94.2 545.61,-95.8 548.9,-101.98"/>
</a>
</g>
</g>
<!-- Node37 -->
<g id="Node000037" class="node">
<title>Node37</title>
<g id="a_Node000037"><a xlink:href="../../dc/d41/namespacefl_1_1third__party_1_1truetype_a34d0ba7278c5343cfc11bfd3e49878a4.html#a34d0ba7278c5343cfc11bfd3e49878a4" target="_top" xlink:title=" ">
<polygon fill="white" stroke="#666666" points="301,-73 164,-73 164,-43 301,-43 301,-73"/>
<text text-anchor="start" x="172" y="-61" font-family="Helvetica,sans-Serif" font-size="10.00">fl::third_party::truetype</text>
<text text-anchor="middle" x="232.5" y="-50" font-family="Helvetica,sans-Serif" font-size="10.00">::stbtt__csctx_rccurve_to</text>
</a>
</g>
</g>
<!-- Node1&#45;&gt;Node37 -->
<g id="edge5_Node000001_Node000037" class="edge">
<title>Node1&#45;&gt;Node37</title>
<g id="a_edge5_Node000001_Node000037"><a xlink:title=" ">
<path fill="none" stroke="#63b8ff" d="M508.91,-74.6C447.65,-70.9 360.89,-65.68 301.2,-62.08"/>
<polygon fill="#63b8ff" stroke="#63b8ff" points="508.7,-78.09 518.89,-75.2 509.12,-71.1 508.7,-78.09"/>
</a>
</g>
</g>
<!-- Node38 -->
<g id="Node000038" class="node">
<title>Node38</title>
<g id="a_Node000038"><a xlink:href="../../dc/d41/namespacefl_1_1third__party_1_1truetype_aa07eb57451ed3a1ec39eb26ea035bf8e.html#aa07eb57451ed3a1ec39eb26ea035bf8e" target="_top" xlink:title=" ">
<polygon fill="white" stroke="#666666" points="474,-30 346,-30 346,0 474,0 474,-30"/>
<text text-anchor="start" x="354" y="-18" font-family="Helvetica,sans-Serif" font-size="10.00">fl::third_party::truetype</text>
<text text-anchor="middle" x="410" y="-7" font-family="Helvetica,sans-Serif" font-size="10.00">::stbtt__csctx_rline_to</text>
</a>
</g>
</g>
<!-- Node1&#45;&gt;Node38 -->
<g id="edge7_Node000001_Node000038" class="edge">
<title>Node1&#45;&gt;Node38</title>
<g id="a_edge7_Node000001_Node000038"><a xlink:title=" ">
<path fill="none" stroke="#63b8ff" d="M532.3,-60.4C506.5,-50.74 475.39,-39.1 451.14,-30.02"/>
<polygon fill="#63b8ff" stroke="#63b8ff" points="531.32,-63.77 541.91,-63.99 533.77,-57.21 531.32,-63.77"/>
</a>
</g>
</g>
<!-- Node2&#45;&gt;Node3 -->
<g id="edge2_Node000002_Node000003" class="edge">
<title>Node2&#45;&gt;Node3</title>
<g id="a_edge2_Node000002_Node000003"><a xlink:title=" ">
<path fill="none" stroke="#63b8ff" d="M337.86,-118.43C323.61,-121.92 308.74,-125.57 294.85,-128.97"/>
<polygon fill="#63b8ff" stroke="#63b8ff" points="338.74,-121.82 347.62,-116.04 337.07,-115.02 338.74,-121.82"/>
</a>
</g>
</g>
<!-- Node4 -->
<g id="Node000004" class="node">
<title>Node4</title>
<g id="a_Node000004"><a xlink:href="../../dc/d41/namespacefl_1_1third__party_1_1truetype_ad05e63c04a41abc95c5e99955f42ba56.html#ad05e63c04a41abc95c5e99955f42ba56" target="_top" xlink:title=" ">
<polygon fill="#fff0f0" stroke="red" points="128,-94 0,-94 0,-64 128,-64 128,-94"/>
<text text-anchor="start" x="8" y="-82" font-family="Helvetica,sans-Serif" font-size="10.00">fl::third_party::truetype</text>
<text text-anchor="middle" x="64" y="-71" font-family="Helvetica,sans-Serif" font-size="10.00">::stbtt__run_charstring</text>
</a>
</g>
</g>
<!-- Node2&#45;&gt;Node4 -->
<g id="edge4_Node000002_Node000004" class="edge">
<title>Node2&#45;&gt;Node4</title>
<g id="a_edge4_Node000002_Node000004"><a xlink:title=" ">
<path fill="none" stroke="#63b8ff" d="M326.9,-95.75C265.92,-91.85 183.95,-86.61 128.06,-83.03"/>
<polygon fill="#63b8ff" stroke="#63b8ff" points="326.68,-99.24 336.89,-96.39 327.13,-92.26 326.68,-99.24"/>
</a>
</g>
</g>
<!-- Node3&#45;&gt;Node4 -->
<g id="edge3_Node000003_Node000004" class="edge">
<title>Node3&#45;&gt;Node4</title>
<g id="a_edge3_Node000003_Node000004"><a xlink:title=" ">
<path fill="none" stroke="#63b8ff" d="M183.46,-125.25C158.14,-115.36 127.48,-103.39 103.7,-94.11"/>
<polygon fill="#63b8ff" stroke="#63b8ff" points="182.29,-128.55 192.88,-128.92 184.84,-122.03 182.29,-128.55"/>
</a>
</g>
</g>
<!-- Node37&#45;&gt;Node4 -->
<g id="edge6_Node000037_Node000004" class="edge">
<title>Node37&#45;&gt;Node4</title>
<g id="a_edge6_Node000037_Node000004"><a xlink:title=" ">
<path fill="none" stroke="#63b8ff" d="M153.75,-67.81C145.15,-68.89 136.48,-69.98 128.09,-71.04"/>
<polygon fill="#63b8ff" stroke="#63b8ff" points="154.29,-71.27 163.78,-66.54 153.42,-64.32 154.29,-71.27"/>
</a>
</g>
</g>
<!-- Node38&#45;&gt;Node4 -->
<g id="edge8_Node000038_Node000004" class="edge">
<title>Node38&#45;&gt;Node4</title>
<g id="a_edge8_Node000038_Node000004"><a xlink:title=" ">
<path fill="none" stroke="#63b8ff" d="M335.59,-14.06C286.34,-15.04 220.41,-19.48 164,-34 138.22,-40.64 110.81,-53.61 91.38,-63.93"/>
<polygon fill="#63b8ff" stroke="#63b8ff" points="335.89,-17.56 345.84,-13.9 335.78,-10.56 335.89,-17.56"/>
</a>
</g>
</g>
</g>
</svg>

<g id="navigator" transform="translate(0 0)" fill="#404254">
  <rect fill="#f2f5e9" fill-opacity="0.5" stroke="#606060" stroke-width=".5" x="0" y="0" width="60" height="60"/>
  <use id="zoomplus" xlink:href="#zoomPlus" x="17" y="9" onmousedown="handleZoom(evt,'in')"/>
  <use id="zoomminus" xlink:href="#zoomMin" x="42" y="9" onmousedown="handleZoom(evt,'out')"/>
  <use id="reset" xlink:href="#resetDef" x="30" y="36" onmousedown="handleReset()"/>
   <use id="arrowup" xlink:href="#arrowUp" x="0" y="0" onmousedown="handlePan(0,-1)"/>
  <use id="arrowright" xlink:href="#arrowRight" x="0" y="0" onmousedown="handlePan(1,0)"/>
  <use id="arrowdown" xlink:href="#arrowDown" x="0" y="0" onmousedown="handlePan(0,1)"/>
  <use id="arrowleft" xlink:href="#arrowLeft" x="0" y="0" onmousedown="handlePan(-1,0)"/>
</g>
<svg viewBox="0 0 15 15" width="100%" height="30px" preserveAspectRatio="xMaxYMin meet">
 <g id="arrow_out" transform="scale(0.3 0.3)">
  <a xlink:href="namespacefl_1_1third__party_1_1truetype_a04aa6ec09ea52a98e43c6239f4e33c8b_a04aa6ec09ea52a98e43c6239f4e33c8b_icgraph_org.svg" target="_base">
   <rect id="button" ry="5" rx="5" y="6" x="6" height="38" width="38"
        fill="#f2f5e9" fill-opacity="0.5" stroke="#606060" stroke-width="1.0"/>
   <path id="arrow"
     d="M 11.500037,31.436501 C 11.940474,20.09759 22.043105,11.32322 32.158766,21.979434 L 37.068811,17.246167 C 37.068811,17.246167 37.088388,32 37.088388,32 L 22.160133,31.978069 C 22.160133,31.978069 26.997745,27.140456 26.997745,27.140456 C 18.528582,18.264221 13.291696,25.230495 11.500037,31.436501 z"
     style="fill:#404040;"/>
  </a>
 </g>
</svg>

<style type='text/css'>
<![CDATA[
[data-mouse-over-selected='false'] { opacity: 0.7; }
[data-mouse-over-selected='true']  { opacity: 1.0; }
]]>
</style>
<script type="application/ecmascript"><![CDATA[
document.addEventListener('DOMContentLoaded', (event) => {
  highlightEdges();
  highlightAdjacentNodes();
});
]]></script>
</svg>
