<?xml version="1.0" encoding="UTF-8" standalone="no"?>
<!DOCTYPE svg PUBLIC "-//W3C//DTD SVG 1.1//EN"
 "http://www.w3.org/Graphics/SVG/1.1/DTD/svg11.dtd">
<!-- Generated by graphviz version 2.43.0 (0)
 -->
<!-- Title: fl::third_party::truetype::stbtt__dict_get Pages: 1 -->
<svg width="655pt" height="86pt"
 viewBox="0.00 0.00 655.00 86.00" xmlns="http://www.w3.org/2000/svg" xmlns:xlink="http://www.w3.org/1999/xlink">
<g id="graph0" class="graph" transform="scale(1 1) rotate(0) translate(4 82)">
<title>fl::third_party::truetype::stbtt__dict_get</title>
<!-- Node1 -->
<g id="Node000001" class="node">
<title>Node1</title>
<g id="a_Node000001"><a xlink:title=" ">
<polygon fill="#999999" stroke="#666666" points="647,-51 519,-51 519,-21 647,-21 647,-51"/>
<text text-anchor="start" x="527" y="-39" font-family="Helvetica,sans-Serif" font-size="10.00">fl::third_party::truetype</text>
<text text-anchor="middle" x="583" y="-28" font-family="Helvetica,sans-Serif" font-size="10.00">::stbtt__dict_get</text>
</a>
</g>
</g>
<!-- Node2 -->
<g id="Node000002" class="node">
<title>Node2</title>
<g id="a_Node000002"><a xlink:href="../../dc/d41/namespacefl_1_1third__party_1_1truetype_af3399b9bfe2a5630f3835137132f19a6.html#af3399b9bfe2a5630f3835137132f19a6" target="_top" xlink:title=" ">
<polygon fill="white" stroke="#666666" points="483,-51 355,-51 355,-21 483,-21 483,-51"/>
<text text-anchor="start" x="363" y="-39" font-family="Helvetica,sans-Serif" font-size="10.00">fl::third_party::truetype</text>
<text text-anchor="middle" x="419" y="-28" font-family="Helvetica,sans-Serif" font-size="10.00">::stbtt__dict_get_ints</text>
</a>
</g>
</g>
<!-- Node1&#45;&gt;Node2 -->
<g id="edge1_Node000001_Node000002" class="edge">
<title>Node1&#45;&gt;Node2</title>
<g id="a_edge1_Node000001_Node000002"><a xlink:title=" ">
<path fill="none" stroke="#63b8ff" d="M508.63,-36C500.14,-36 491.53,-36 483.19,-36"/>
<polygon fill="#63b8ff" stroke="#63b8ff" points="508.9,-39.5 518.9,-36 508.9,-32.5 508.9,-39.5"/>
</a>
</g>
</g>
<!-- Node3 -->
<g id="Node000003" class="node">
<title>Node3</title>
<g id="a_Node000003"><a xlink:href="../../dc/d41/namespacefl_1_1third__party_1_1truetype_a7b6ed38607bfafbacbc5a46c1a400680.html#a7b6ed38607bfafbacbc5a46c1a400680" target="_top" xlink:title=" ">
<polygon fill="white" stroke="#666666" points="319,-73 191,-73 191,-43 319,-43 319,-73"/>
<text text-anchor="start" x="199" y="-61" font-family="Helvetica,sans-Serif" font-size="10.00">fl::third_party::truetype</text>
<text text-anchor="middle" x="255" y="-50" font-family="Helvetica,sans-Serif" font-size="10.00">::stbtt__get_subrs</text>
</a>
</g>
</g>
<!-- Node2&#45;&gt;Node3 -->
<g id="edge2_Node000002_Node000003" class="edge">
<title>Node2&#45;&gt;Node3</title>
<g id="a_edge2_Node000002_Node000003"><a xlink:title=" ">
<path fill="none" stroke="#63b8ff" d="M344.91,-45.93C336.32,-47.09 327.62,-48.27 319.19,-49.42"/>
<polygon fill="#63b8ff" stroke="#63b8ff" points="345.46,-49.38 354.9,-44.57 344.52,-42.45 345.46,-49.38"/>
</a>
</g>
</g>
<!-- Node38 -->
<g id="Node000038" class="node">
<title>Node38</title>
<g id="a_Node000038"><a xlink:href="../../dc/d41/namespacefl_1_1third__party_1_1truetype_aacd8f3dbd8477d20da5245bdfcc65d20.html#aacd8f3dbd8477d20da5245bdfcc65d20" target="_top" xlink:title=" ">
<polygon fill="#fff0f0" stroke="red" points="142.5,-30 12.5,-30 12.5,0 142.5,0 142.5,-30"/>
<text text-anchor="start" x="20.5" y="-18" font-family="Helvetica,sans-Serif" font-size="10.00">fl::third_party::truetype</text>
<text text-anchor="middle" x="77.5" y="-7" font-family="Helvetica,sans-Serif" font-size="10.00">::stbtt_InitFont_internal</text>
</a>
</g>
</g>
<!-- Node2&#45;&gt;Node38 -->
<g id="edge5_Node000002_Node000038" class="edge">
<title>Node2&#45;&gt;Node38</title>
<g id="a_edge5_Node000002_Node000038"><a xlink:title=" ">
<path fill="none" stroke="#63b8ff" d="M344.75,-31.47C284.59,-27.75 200.2,-22.53 142.67,-18.97"/>
<polygon fill="#63b8ff" stroke="#63b8ff" points="344.74,-34.98 354.94,-32.1 345.17,-27.99 344.74,-34.98"/>
</a>
</g>
</g>
<!-- Node4 -->
<g id="Node000004" class="node">
<title>Node4</title>
<g id="a_Node000004"><a xlink:href="../../dc/d41/namespacefl_1_1third__party_1_1truetype_a599e670f9a43e3c181d7e2883b93ee62.html#a599e670f9a43e3c181d7e2883b93ee62" target="_top" xlink:title=" ">
<polygon fill="#fff0f0" stroke="red" points="155,-78 0,-78 0,-48 155,-48 155,-78"/>
<text text-anchor="start" x="8" y="-66" font-family="Helvetica,sans-Serif" font-size="10.00">fl::third_party::truetype</text>
<text text-anchor="middle" x="77.5" y="-55" font-family="Helvetica,sans-Serif" font-size="10.00">::stbtt__cid_get_glyph_subrs</text>
</a>
</g>
</g>
<!-- Node3&#45;&gt;Node4 -->
<g id="edge3_Node000003_Node000004" class="edge">
<title>Node3&#45;&gt;Node4</title>
<g id="a_edge3_Node000003_Node000004"><a xlink:title=" ">
<path fill="none" stroke="#63b8ff" d="M180.55,-60.09C172.18,-60.33 163.64,-60.57 155.24,-60.81"/>
<polygon fill="#63b8ff" stroke="#63b8ff" points="180.74,-63.59 190.64,-59.81 180.54,-56.59 180.74,-63.59"/>
</a>
</g>
</g>
<!-- Node3&#45;&gt;Node38 -->
<g id="edge4_Node000003_Node000038" class="edge">
<title>Node3&#45;&gt;Node38</title>
<g id="a_edge4_Node000003_Node000038"><a xlink:title=" ">
<path fill="none" stroke="#63b8ff" d="M182.86,-40.57C168.61,-37.08 153.74,-33.43 139.85,-30.03"/>
<polygon fill="#63b8ff" stroke="#63b8ff" points="182.07,-43.98 192.62,-42.96 183.74,-37.18 182.07,-43.98"/>
</a>
</g>
</g>
</g>
</svg>
