<?xml version="1.0" encoding="UTF-8" standalone="no"?>
<!DOCTYPE svg PUBLIC "-//W3C//DTD SVG 1.1//EN"
 "http://www.w3.org/Graphics/SVG/1.1/DTD/svg11.dtd">
<!-- Generated by graphviz version 2.43.0 (0)
 -->
<!-- Title: fl::third_party::truetype::stbtt__buf_peek8 Pages: 1 -->
<svg width="638pt" height="60pt"
 viewBox="0.00 0.00 638.00 60.00" xmlns="http://www.w3.org/2000/svg" xmlns:xlink="http://www.w3.org/1999/xlink">
<g id="graph0" class="graph" transform="scale(1 1) rotate(0) translate(4 56)">
<title>fl::third_party::truetype::stbtt__buf_peek8</title>
<!-- Node1 -->
<g id="Node000001" class="node">
<title>Node1</title>
<g id="a_Node000001"><a xlink:title=" ">
<polygon fill="#999999" stroke="#666666" points="630,-30 502,-30 502,0 630,0 630,-30"/>
<text text-anchor="start" x="510" y="-18" font-family="Helvetica,sans-Serif" font-size="10.00">fl::third_party::truetype</text>
<text text-anchor="middle" x="566" y="-7" font-family="Helvetica,sans-Serif" font-size="10.00">::stbtt__buf_peek8</text>
</a>
</g>
</g>
<!-- Node2 -->
<g id="Node000002" class="node">
<title>Node2</title>
<g id="a_Node000002"><a xlink:href="../../dc/d41/namespacefl_1_1third__party_1_1truetype_a70f6b0bf46f7631d6633f80b948944c3.html#a70f6b0bf46f7631d6633f80b948944c3" target="_top" xlink:title=" ">
<polygon fill="white" stroke="#666666" points="466,-52 328,-52 328,-22 466,-22 466,-52"/>
<text text-anchor="start" x="336" y="-40" font-family="Helvetica,sans-Serif" font-size="10.00">fl::third_party::truetype</text>
<text text-anchor="middle" x="397" y="-29" font-family="Helvetica,sans-Serif" font-size="10.00">::stbtt__cff_skip_operand</text>
</a>
</g>
</g>
<!-- Node1&#45;&gt;Node2 -->
<g id="edge1_Node000001_Node000002" class="edge">
<title>Node1&#45;&gt;Node2</title>
<g id="a_edge1_Node000001_Node000002"><a xlink:title=" ">
<path fill="none" stroke="#63b8ff" d="M491.93,-24.63C483.4,-25.75 474.71,-26.89 466.25,-28.01"/>
<polygon fill="#63b8ff" stroke="#63b8ff" points="492.41,-28.09 501.86,-23.32 491.49,-21.15 492.41,-28.09"/>
</a>
</g>
</g>
<!-- Node3 -->
<g id="Node000003" class="node">
<title>Node3</title>
<g id="a_Node000003"><a xlink:href="../../dc/d41/namespacefl_1_1third__party_1_1truetype_a9419d84334c11bac7a1a23b5d8fa852f.html#a9419d84334c11bac7a1a23b5d8fa852f" target="_top" xlink:title=" ">
<polygon fill="white" stroke="#666666" points="292,-30 164,-30 164,0 292,0 292,-30"/>
<text text-anchor="start" x="172" y="-18" font-family="Helvetica,sans-Serif" font-size="10.00">fl::third_party::truetype</text>
<text text-anchor="middle" x="228" y="-7" font-family="Helvetica,sans-Serif" font-size="10.00">::stbtt__dict_get</text>
</a>
</g>
</g>
<!-- Node1&#45;&gt;Node3 -->
<g id="edge4_Node000001_Node000003" class="edge">
<title>Node1&#45;&gt;Node3</title>
<g id="a_edge4_Node000001_Node000003"><a xlink:title=" ">
<path fill="none" stroke="#63b8ff" d="M491.75,-13.35C483.07,-13.21 474.34,-13.08 466,-13 404.67,-12.38 389.33,-12.38 328,-13 316.4,-13.12 304.03,-13.31 292.11,-13.53"/>
<polygon fill="#63b8ff" stroke="#63b8ff" points="491.83,-16.86 501.89,-13.53 491.96,-9.86 491.83,-16.86"/>
</a>
</g>
</g>
<!-- Node2&#45;&gt;Node3 -->
<g id="edge2_Node000002_Node000003" class="edge">
<title>Node2&#45;&gt;Node3</title>
<g id="a_edge2_Node000002_Node000003"><a xlink:title=" ">
<path fill="none" stroke="#63b8ff" d="M317.64,-26.68C309.11,-25.55 300.51,-24.42 292.2,-23.33"/>
<polygon fill="#63b8ff" stroke="#63b8ff" points="317.22,-30.15 327.59,-27.99 318.14,-23.21 317.22,-30.15"/>
</a>
</g>
</g>
<!-- Node4 -->
<g id="Node000004" class="node">
<title>Node4</title>
<g id="a_Node000004"><a xlink:href="../../dc/d41/namespacefl_1_1third__party_1_1truetype_af3399b9bfe2a5630f3835137132f19a6.html#af3399b9bfe2a5630f3835137132f19a6" target="_top" xlink:title=" ">
<polygon fill="#fff0f0" stroke="red" points="128,-30 0,-30 0,0 128,0 128,-30"/>
<text text-anchor="start" x="8" y="-18" font-family="Helvetica,sans-Serif" font-size="10.00">fl::third_party::truetype</text>
<text text-anchor="middle" x="64" y="-7" font-family="Helvetica,sans-Serif" font-size="10.00">::stbtt__dict_get_ints</text>
</a>
</g>
</g>
<!-- Node3&#45;&gt;Node4 -->
<g id="edge3_Node000003_Node000004" class="edge">
<title>Node3&#45;&gt;Node4</title>
<g id="a_edge3_Node000003_Node000004"><a xlink:title=" ">
<path fill="none" stroke="#63b8ff" d="M153.63,-15C145.14,-15 136.53,-15 128.19,-15"/>
<polygon fill="#63b8ff" stroke="#63b8ff" points="153.9,-18.5 163.9,-15 153.9,-11.5 153.9,-18.5"/>
</a>
</g>
</g>
</g>
</svg>
