<?xml version="1.0" encoding="UTF-8" standalone="no"?>
<!DOCTYPE svg PUBLIC "-//W3C//DTD SVG 1.1//EN"
 "http://www.w3.org/Graphics/SVG/1.1/DTD/svg11.dtd">
<!-- Generated by graphviz version 2.43.0 (0)
 -->
<!-- Title: fl::third_party::truetype::stbtt_MakeCodepointBitmapSubpixel Pages: 1 -->
<!--zoomable 391 -->

<svg id="main" version="1.1" xmlns="http://www.w3.org/2000/svg" xmlns:xlink="http://www.w3.org/1999/xlink" xml:space="preserve" onload="init(evt)">

<style type="text/css"><![CDATA[
.node, .edge {opacity: 0.7;}
.node.selected, .edge.selected {opacity: 1;}
.edge:hover path { stroke: red; }
.edge:hover polygon { stroke: red; fill: red; }
]]></style>

<defs>
  <circle id="rim" cx="0" cy="0" r="7"/>
  <circle id="rim2" cx="0" cy="0" r="3.5"/>
  <g id="zoomPlus">
    <use xlink:href="#rim" fill="#404040"><set attributeName="fill" to="#808080" begin="zoomplus.mouseover" end="zoomplus.mouseout"/></use>
    <path d="M-4,0h8M0,-4v8" fill="none" stroke="white" stroke-width="1.5" pointer-events="none"/>
  </g>
  <g id="zoomMin">
    <use xlink:href="#rim" fill="#404040"><set attributeName="fill" to="#808080" begin="zoomminus.mouseover" end="zoomminus.mouseout"/></use>
    <path d="M-4,0h8" fill="none" stroke="white" stroke-width="1.5" pointer-events="none"/>
  </g>
  <g id="arrowUp" transform="translate(30 24)">
    <use xlink:href="#rim"/>
    <path pointer-events="none" fill="none" stroke="white" stroke-width="1.5" d="M0,-3.0v7 M-2.5,-0.5L0,-3.0L2.5,-0.5"/>
  </g>
  <g id="arrowRight" transform="rotate(90) translate(36 -43)">
    <use xlink:href="#rim"/>
    <path pointer-events="none" fill="none" stroke="white" stroke-width="1.5" d="M0,-3.0v7 M-2.5,-0.5L0,-3.0L2.5,-0.5"/>
  </g>
  <g id="arrowDown" transform="rotate(180) translate(-30 -48)">
    <use xlink:href="#rim"/>
    <path pointer-events="none" fill="none" stroke="white" stroke-width="1.5" d="M0,-3.0v7 M-2.5,-0.5L0,-3.0L2.5,-0.5"/>
  </g>
  <g id="arrowLeft" transform="rotate(270) translate(-36 17)">
    <use xlink:href="#rim"/>
    <path pointer-events="none" fill="none" stroke="white" stroke-width="1.5" d="M0,-3.0v7 M-2.5,-0.5L0,-3.0L2.5,-0.5"/>
  </g>
  <g id="resetDef">
    <use xlink:href="#rim2" fill="#404040"><set attributeName="fill" to="#808080" begin="reset.mouseover" end="reset.mouseout"/></use>
  </g>
</defs>
<script type="application/ecmascript">
var viewWidth = 1136;
var viewHeight = 391;
var sectionId = 'dynsection-0';
</script>
<script type="application/ecmascript" xlink:href="../../svg.min.js"/>
<svg id="graph" class="graph">
<g id="viewport">
<title>fl::third_party::truetype::stbtt_MakeCodepointBitmapSubpixel</title>
<!-- Node1 -->
<g id="Node000001" class="node">
<title>Node1</title>
<g id="a_Node000001"><a xlink:title=" ">
<polygon fill="#999999" stroke="#666666" points="203,-215 0,-215 0,-185 203,-185 203,-215"/>
<text text-anchor="start" x="8" y="-203" font-family="Helvetica,sans-Serif" font-size="10.00">fl::third_party::truetype</text>
<text text-anchor="middle" x="101.5" y="-192" font-family="Helvetica,sans-Serif" font-size="10.00">::stbtt_MakeCodepointBitmapSubpixel</text>
</a>
</g>
</g>
<!-- Node2 -->
<g id="Node000002" class="node">
<title>Node2</title>
<g id="a_Node000002"><a xlink:href="../../dc/d41/namespacefl_1_1third__party_1_1truetype_a9ec5ee8dee6a510aa3a5a010246470b7.html#a9ec5ee8dee6a510aa3a5a010246470b7" target="_top" xlink:title=" ">
<polygon fill="white" stroke="#666666" points="819.5,-270 691.5,-270 691.5,-240 819.5,-240 819.5,-270"/>
<text text-anchor="start" x="699.5" y="-258" font-family="Helvetica,sans-Serif" font-size="10.00">fl::third_party::truetype</text>
<text text-anchor="middle" x="755.5" y="-247" font-family="Helvetica,sans-Serif" font-size="10.00">::stbtt_FindGlyphIndex</text>
</a>
</g>
</g>
<!-- Node1&#45;&gt;Node2 -->
<g id="edge1_Node000001_Node000002" class="edge">
<title>Node1&#45;&gt;Node2</title>
<g id="a_edge1_Node000001_Node000002"><a xlink:title=" ">
<path fill="none" stroke="#63b8ff" d="M203.3,-208.5C335.5,-219.65 564.32,-238.96 681.19,-248.82"/>
<polygon fill="#63b8ff" stroke="#63b8ff" points="681.2,-252.33 691.46,-249.68 681.79,-245.35 681.2,-252.33"/>
</a>
</g>
</g>
<!-- Node13 -->
<g id="Node000013" class="node">
<title>Node13</title>
<g id="a_Node000013"><a xlink:href="../../dc/d41/namespacefl_1_1third__party_1_1truetype_adbae8505ab5b605229ac6c959a94dc1e.html#adbae8505ab5b605229ac6c959a94dc1e" target="_top" xlink:title=" ">
<polygon fill="white" stroke="#666666" points="421,-194 239,-194 239,-164 421,-164 421,-194"/>
<text text-anchor="start" x="247" y="-182" font-family="Helvetica,sans-Serif" font-size="10.00">fl::third_party::truetype</text>
<text text-anchor="middle" x="330" y="-171" font-family="Helvetica,sans-Serif" font-size="10.00">::stbtt_MakeGlyphBitmapSubpixel</text>
</a>
</g>
</g>
<!-- Node1&#45;&gt;Node13 -->
<g id="edge9_Node000001_Node000013" class="edge">
<title>Node1&#45;&gt;Node13</title>
<g id="a_edge9_Node000001_Node000013"><a xlink:title=" ">
<path fill="none" stroke="#63b8ff" d="M203.17,-190.67C211.74,-189.87 220.42,-189.07 228.99,-188.27"/>
<polygon fill="#63b8ff" stroke="#63b8ff" points="229.36,-191.75 238.99,-187.35 228.71,-184.78 229.36,-191.75"/>
</a>
</g>
</g>
<!-- Node3 -->
<g id="Node000003" class="node">
<title>Node3</title>
<g id="a_Node000003"><a xlink:href="../../d4/d36/namespacefl_a3cdd970ae1ac06323addaec93ae7d4b9.html#a3cdd970ae1ac06323addaec93ae7d4b9" target="_top" xlink:title=" ">
<polygon fill="white" stroke="#666666" points="950.5,-296.5 903.5,-296.5 903.5,-277.5 950.5,-277.5 950.5,-296.5"/>
<text text-anchor="middle" x="927" y="-284.5" font-family="Helvetica,sans-Serif" font-size="10.00">fl::end</text>
</a>
</g>
</g>
<!-- Node2&#45;&gt;Node3 -->
<g id="edge2_Node000002_Node000003" class="edge">
<title>Node2&#45;&gt;Node3</title>
<g id="a_edge2_Node000002_Node000003"><a xlink:title=" ">
<path fill="none" stroke="#63b8ff" d="M819.62,-266.92C844.74,-271.66 872.58,-276.91 893.48,-280.86"/>
<polygon fill="#63b8ff" stroke="#63b8ff" points="892.95,-284.32 903.43,-282.74 894.25,-277.44 892.95,-284.32"/>
</a>
</g>
</g>
<!-- Node4 -->
<g id="Node000004" class="node">
<title>Node4</title>
<g id="a_Node000004"><a xlink:href="../../d4/d36/namespacefl_aee6f6a125b8389786800233a69115983.html#aee6f6a125b8389786800233a69115983" target="_top" xlink:title="Format with no arguments.">
<polygon fill="white" stroke="#666666" points="958,-259.5 896,-259.5 896,-240.5 958,-240.5 958,-259.5"/>
<text text-anchor="middle" x="927" y="-247.5" font-family="Helvetica,sans-Serif" font-size="10.00">fl::format</text>
</a>
</g>
</g>
<!-- Node2&#45;&gt;Node4 -->
<g id="edge3_Node000002_Node000004" class="edge">
<title>Node2&#45;&gt;Node4</title>
<g id="a_edge3_Node000002_Node000004"><a xlink:title=" ">
<path fill="none" stroke="#63b8ff" d="M819.62,-253.14C841.64,-252.49 865.74,-251.78 885.44,-251.2"/>
<polygon fill="#63b8ff" stroke="#63b8ff" points="885.69,-254.69 895.59,-250.9 885.49,-247.69 885.69,-254.69"/>
</a>
</g>
</g>
<!-- Node9 -->
<g id="Node000009" class="node">
<title>Node9</title>
<g id="a_Node000009"><a xlink:href="../../d6/daf/direct_8h_ae2738c620ee3ab857c9656b3bf86a24d.html#ae2738c620ee3ab857c9656b3bf86a24d" target="_top" xlink:title=" ">
<polygon fill="white" stroke="#666666" points="949,-382.5 905,-382.5 905,-363.5 949,-363.5 949,-382.5"/>
<text text-anchor="middle" x="927" y="-370.5" font-family="Helvetica,sans-Serif" font-size="10.00">offset</text>
</a>
</g>
</g>
<!-- Node2&#45;&gt;Node9 -->
<g id="edge5_Node000002_Node000009" class="edge">
<title>Node2&#45;&gt;Node9</title>
<g id="a_edge5_Node000002_Node000009"><a xlink:title=" ">
<path fill="none" stroke="#63b8ff" d="M768.66,-270.02C786.95,-291.63 823.59,-331.39 863,-354 872.84,-359.64 884.52,-363.77 895.13,-366.7"/>
<polygon fill="#63b8ff" stroke="#63b8ff" points="894.34,-370.11 904.89,-369.16 896.05,-363.32 894.34,-370.11"/>
</a>
</g>
</g>
<!-- Node10 -->
<g id="Node000010" class="node">
<title>Node10</title>
<g id="a_Node000010"><a xlink:href="../../dc/d41/namespacefl_1_1third__party_1_1truetype_a46a5ad8bdae0fd01591f8f006f733ddb.html#a46a5ad8bdae0fd01591f8f006f733ddb" target="_top" xlink:title=" ">
<polygon fill="white" stroke="#666666" points="991,-174 863,-174 863,-144 991,-144 991,-174"/>
<text text-anchor="start" x="871" y="-162" font-family="Helvetica,sans-Serif" font-size="10.00">fl::third_party::truetype</text>
<text text-anchor="middle" x="927" y="-151" font-family="Helvetica,sans-Serif" font-size="10.00">::ttSHORT</text>
</a>
</g>
</g>
<!-- Node2&#45;&gt;Node10 -->
<g id="edge6_Node000002_Node000010" class="edge">
<title>Node2&#45;&gt;Node10</title>
<g id="a_edge6_Node000002_Node000010"><a xlink:title=" ">
<path fill="none" stroke="#63b8ff" d="M811.63,-239.93C817.06,-237.37 822.29,-234.42 827,-231 848.58,-215.34 841.7,-199.05 863,-183 864.82,-181.63 866.73,-180.32 868.71,-179.09"/>
<polygon fill="#63b8ff" stroke="#63b8ff" points="870.66,-182.01 877.7,-174.09 867.26,-175.89 870.66,-182.01"/>
</a>
</g>
</g>
<!-- Node11 -->
<g id="Node000011" class="node">
<title>Node11</title>
<g id="a_Node000011"><a xlink:href="../../dc/d41/namespacefl_1_1third__party_1_1truetype_acae857e9eb53423ecbf6b767172ea100.html#acae857e9eb53423ecbf6b767172ea100" target="_top" xlink:title=" ">
<polygon fill="white" stroke="#666666" points="991,-345 863,-345 863,-315 991,-315 991,-345"/>
<text text-anchor="start" x="871" y="-333" font-family="Helvetica,sans-Serif" font-size="10.00">fl::third_party::truetype</text>
<text text-anchor="middle" x="927" y="-322" font-family="Helvetica,sans-Serif" font-size="10.00">::ttULONG</text>
</a>
</g>
</g>
<!-- Node2&#45;&gt;Node11 -->
<g id="edge7_Node000002_Node000011" class="edge">
<title>Node2&#45;&gt;Node11</title>
<g id="a_edge7_Node000002_Node000011"><a xlink:title=" ">
<path fill="none" stroke="#63b8ff" d="M786.49,-270.18C807.67,-280.69 836.81,-294.76 863,-306 867.1,-307.76 871.38,-309.53 875.7,-311.27"/>
<polygon fill="#63b8ff" stroke="#63b8ff" points="874.55,-314.58 885.13,-315 877.12,-308.07 874.55,-314.58"/>
</a>
</g>
</g>
<!-- Node12 -->
<g id="Node000012" class="node">
<title>Node12</title>
<g id="a_Node000012"><a xlink:href="../../dc/d41/namespacefl_1_1third__party_1_1truetype_ad7576e878b0aa73a43e55e221d8749f0.html#ad7576e878b0aa73a43e55e221d8749f0" target="_top" xlink:title=" ">
<polygon fill="white" stroke="#666666" points="991,-222 863,-222 863,-192 991,-192 991,-222"/>
<text text-anchor="start" x="871" y="-210" font-family="Helvetica,sans-Serif" font-size="10.00">fl::third_party::truetype</text>
<text text-anchor="middle" x="927" y="-199" font-family="Helvetica,sans-Serif" font-size="10.00">::ttUSHORT</text>
</a>
</g>
</g>
<!-- Node2&#45;&gt;Node12 -->
<g id="edge8_Node000002_Node000012" class="edge">
<title>Node2&#45;&gt;Node12</title>
<g id="a_edge8_Node000002_Node000012"><a xlink:title=" ">
<path fill="none" stroke="#63b8ff" d="M809.67,-239.94C826.7,-235.12 845.73,-229.73 863.38,-224.73"/>
<polygon fill="#63b8ff" stroke="#63b8ff" points="864.35,-228.09 873.02,-222 862.45,-221.36 864.35,-228.09"/>
</a>
</g>
</g>
<!-- Node5 -->
<g id="Node000005" class="node">
<title>Node5</title>
<g id="a_Node000005"><a xlink:href="../../da/d2a/namespacefl_1_1format__detail_a892df3c6e93f2a0ce7cfe9b1ea83b035.html#a892df3c6e93f2a0ce7cfe9b1ea83b035" target="_top" xlink:title=" ">
<polygon fill="#fff0f0" stroke="red" points="1128,-265 1027,-265 1027,-235 1128,-235 1128,-265"/>
<text text-anchor="start" x="1035" y="-253" font-family="Helvetica,sans-Serif" font-size="10.00">fl::format_detail::</text>
<text text-anchor="middle" x="1077.5" y="-242" font-family="Helvetica,sans-Serif" font-size="10.00">format_impl</text>
</a>
</g>
</g>
<!-- Node4&#45;&gt;Node5 -->
<g id="edge4_Node000004_Node000005" class="edge">
<title>Node4&#45;&gt;Node5</title>
<g id="a_edge4_Node000004_Node000005"><a xlink:title=" ">
<path fill="none" stroke="#63b8ff" d="M958.05,-250C974.94,-250 996.64,-250 1016.83,-250"/>
<polygon fill="#63b8ff" stroke="#63b8ff" points="1016.91,-253.5 1026.91,-250 1016.91,-246.5 1016.91,-253.5"/>
</a>
</g>
</g>
<!-- Node14 -->
<g id="Node000014" class="node">
<title>Node14</title>
<g id="a_Node000014"><a xlink:href="../../dc/d41/namespacefl_1_1third__party_1_1truetype_aba1032f32bc641ecc241034d5ac03373.html#aba1032f32bc641ecc241034d5ac03373" target="_top" xlink:title=" ">
<polygon fill="white" stroke="#666666" points="648,-134 457,-134 457,-104 648,-104 648,-134"/>
<text text-anchor="start" x="465" y="-122" font-family="Helvetica,sans-Serif" font-size="10.00">fl::third_party::truetype</text>
<text text-anchor="middle" x="552.5" y="-111" font-family="Helvetica,sans-Serif" font-size="10.00">::stbtt_GetGlyphBitmapBoxSubpixel</text>
</a>
</g>
</g>
<!-- Node13&#45;&gt;Node14 -->
<g id="edge10_Node000013_Node000014" class="edge">
<title>Node13&#45;&gt;Node14</title>
<g id="a_edge10_Node000013_Node000014"><a xlink:title=" ">
<path fill="none" stroke="#63b8ff" d="M386.36,-163.94C416.76,-155.66 454.65,-145.35 486.46,-136.7"/>
<polygon fill="#63b8ff" stroke="#63b8ff" points="487.39,-140.07 496.12,-134.07 485.55,-133.32 487.39,-140.07"/>
</a>
</g>
</g>
<!-- Node43 -->
<g id="Node000043" class="node">
<title>Node43</title>
<g id="a_Node000043"><a xlink:href="../../dc/d41/namespacefl_1_1third__party_1_1truetype_ab8b89fb9107e3a715e357fbcc0e9c6d6.html#ab8b89fb9107e3a715e357fbcc0e9c6d6" target="_top" xlink:title=" ">
<polygon fill="white" stroke="#666666" points="616.5,-206 488.5,-206 488.5,-176 616.5,-176 616.5,-206"/>
<text text-anchor="start" x="496.5" y="-194" font-family="Helvetica,sans-Serif" font-size="10.00">fl::third_party::truetype</text>
<text text-anchor="middle" x="552.5" y="-183" font-family="Helvetica,sans-Serif" font-size="10.00">::stbtt_GetGlyphShape</text>
</a>
</g>
</g>
<!-- Node13&#45;&gt;Node43 -->
<g id="edge13_Node000013_Node000043" class="edge">
<title>Node13&#45;&gt;Node43</title>
<g id="a_edge13_Node000013_Node000043"><a xlink:title=" ">
<path fill="none" stroke="#63b8ff" d="M421,-183.9C440.09,-184.94 460.02,-186.02 478.39,-187.02"/>
<polygon fill="#63b8ff" stroke="#63b8ff" points="478.25,-190.52 488.43,-187.57 478.63,-183.53 478.25,-190.52"/>
</a>
</g>
</g>
<!-- Node47 -->
<g id="Node000047" class="node">
<title>Node47</title>
<g id="a_Node000047"><a xlink:href="../../dc/d41/namespacefl_1_1third__party_1_1truetype_a2cd1d3ca17796caca903287b9138ab65.html#a2cd1d3ca17796caca903287b9138ab65" target="_top" xlink:title=" ">
<polygon fill="white" stroke="#666666" points="616.5,-78 488.5,-78 488.5,-48 616.5,-48 616.5,-78"/>
<text text-anchor="start" x="496.5" y="-66" font-family="Helvetica,sans-Serif" font-size="10.00">fl::third_party::truetype</text>
<text text-anchor="middle" x="552.5" y="-55" font-family="Helvetica,sans-Serif" font-size="10.00">::stbtt_Rasterize</text>
</a>
</g>
</g>
<!-- Node13&#45;&gt;Node47 -->
<g id="edge19_Node000013_Node000047" class="edge">
<title>Node13&#45;&gt;Node47</title>
<g id="a_edge19_Node000013_Node000047"><a xlink:title=" ">
<path fill="none" stroke="#63b8ff" d="M350.11,-163.93C373.99,-145.66 416.66,-114.85 457,-95 467.22,-89.97 478.42,-85.42 489.43,-81.42"/>
<polygon fill="#63b8ff" stroke="#63b8ff" points="490.74,-84.67 499.02,-78.06 488.42,-78.06 490.74,-84.67"/>
</a>
</g>
</g>
<!-- Node15 -->
<g id="Node000015" class="node">
<title>Node15</title>
<g id="a_Node000015"><a xlink:href="../../dc/d41/namespacefl_1_1third__party_1_1truetype_aaf6008e87f3bd7da2e25de6de7cc00a8.html#aaf6008e87f3bd7da2e25de6de7cc00a8" target="_top" xlink:title=" ">
<polygon fill="#fff0f0" stroke="red" points="819.5,-126 691.5,-126 691.5,-96 819.5,-96 819.5,-126"/>
<text text-anchor="start" x="699.5" y="-114" font-family="Helvetica,sans-Serif" font-size="10.00">fl::third_party::truetype</text>
<text text-anchor="middle" x="755.5" y="-103" font-family="Helvetica,sans-Serif" font-size="10.00">::stbtt_GetGlyphBox</text>
</a>
</g>
</g>
<!-- Node14&#45;&gt;Node15 -->
<g id="edge11_Node000014_Node000015" class="edge">
<title>Node14&#45;&gt;Node15</title>
<g id="a_edge11_Node000014_Node000015"><a xlink:title=" ">
<path fill="none" stroke="#63b8ff" d="M648.11,-115.23C659.23,-114.79 670.43,-114.35 681.19,-113.92"/>
<polygon fill="#63b8ff" stroke="#63b8ff" points="681.5,-117.41 691.35,-113.51 681.22,-110.41 681.5,-117.41"/>
</a>
</g>
</g>
<!-- Node15&#45;&gt;Node10 -->
<g id="edge12_Node000015_Node000010" class="edge">
<title>Node15&#45;&gt;Node10</title>
<g id="a_edge12_Node000015_Node000010"><a xlink:title=" ">
<path fill="none" stroke="#63b8ff" d="M809.67,-126.06C826.7,-130.88 845.73,-136.27 863.38,-141.27"/>
<polygon fill="#63b8ff" stroke="#63b8ff" points="862.45,-144.64 873.02,-144 864.35,-137.91 862.45,-144.64"/>
</a>
</g>
</g>
<!-- Node44 -->
<g id="Node000044" class="node">
<title>Node44</title>
<g id="a_Node000044"><a xlink:href="../../dc/d41/namespacefl_1_1third__party_1_1truetype_a68d3ceb33fae7ccdf6606ffc05a1b07e.html#a68d3ceb33fae7ccdf6606ffc05a1b07e" target="_top" xlink:title=" ">
<polygon fill="#fff0f0" stroke="red" points="827,-174 684,-174 684,-144 827,-144 827,-174"/>
<text text-anchor="start" x="692" y="-162" font-family="Helvetica,sans-Serif" font-size="10.00">fl::third_party::truetype</text>
<text text-anchor="middle" x="755.5" y="-151" font-family="Helvetica,sans-Serif" font-size="10.00">::stbtt__GetGlyphShapeT2</text>
</a>
</g>
</g>
<!-- Node43&#45;&gt;Node44 -->
<g id="edge14_Node000043_Node000044" class="edge">
<title>Node43&#45;&gt;Node44</title>
<g id="a_edge14_Node000043_Node000044"><a xlink:title=" ">
<path fill="none" stroke="#63b8ff" d="M616.55,-180.96C634.78,-178.06 654.94,-174.85 674.08,-171.8"/>
<polygon fill="#63b8ff" stroke="#63b8ff" points="674.66,-175.26 683.98,-170.23 673.56,-168.34 674.66,-175.26"/>
</a>
</g>
</g>
<!-- Node45 -->
<g id="Node000045" class="node">
<title>Node45</title>
<g id="a_Node000045"><a xlink:href="../../dc/d41/namespacefl_1_1third__party_1_1truetype_a92b899fba3fbbef9f10e72aa6eee74fc.html#a92b899fba3fbbef9f10e72aa6eee74fc" target="_top" xlink:title=" ">
<polygon fill="#fff0f0" stroke="red" points="827,-222 684,-222 684,-192 827,-192 827,-222"/>
<text text-anchor="start" x="692" y="-210" font-family="Helvetica,sans-Serif" font-size="10.00">fl::third_party::truetype</text>
<text text-anchor="middle" x="755.5" y="-199" font-family="Helvetica,sans-Serif" font-size="10.00">::stbtt__GetGlyphShapeTT</text>
</a>
</g>
</g>
<!-- Node43&#45;&gt;Node45 -->
<g id="edge15_Node000043_Node000045" class="edge">
<title>Node43&#45;&gt;Node45</title>
<g id="a_edge15_Node000043_Node000045"><a xlink:title=" ">
<path fill="none" stroke="#63b8ff" d="M616.55,-189.7C634.7,-190.71 654.75,-192.2 673.82,-193.95"/>
<polygon fill="#63b8ff" stroke="#63b8ff" points="673.7,-197.45 683.98,-194.91 674.36,-190.48 673.7,-197.45"/>
</a>
</g>
</g>
<!-- Node45&#45;&gt;Node10 -->
<g id="edge17_Node000045_Node000010" class="edge">
<title>Node45&#45;&gt;Node10</title>
<g id="a_edge17_Node000045_Node000010"><a xlink:title=" ">
<path fill="none" stroke="#63b8ff" d="M809.67,-191.94C826.7,-187.12 845.73,-181.73 863.38,-176.73"/>
<polygon fill="#63b8ff" stroke="#63b8ff" points="864.35,-180.09 873.02,-174 862.45,-173.36 864.35,-180.09"/>
</a>
</g>
</g>
<!-- Node45&#45;&gt;Node12 -->
<g id="edge18_Node000045_Node000012" class="edge">
<title>Node45&#45;&gt;Node12</title>
<g id="a_edge18_Node000045_Node000012"><a xlink:title=" ">
<path fill="none" stroke="#63b8ff" d="M827.4,-207C835.79,-207 844.36,-207 852.77,-207"/>
<polygon fill="#63b8ff" stroke="#63b8ff" points="852.94,-210.5 862.94,-207 852.94,-203.5 852.94,-210.5"/>
</a>
</g>
</g>
<!-- Node45&#45;&gt;Node43 -->
<g id="edge16_Node000045_Node000043" class="edge">
<title>Node45&#45;&gt;Node43</title>
<g id="a_edge16_Node000045_Node000043"><a xlink:title=" ">
<path fill="none" stroke="#63b8ff" d="M683.98,-207.86C665.37,-206.73 645.24,-205.14 626.5,-203.33"/>
<polygon fill="#63b8ff" stroke="#63b8ff" points="626.85,-199.85 616.55,-202.33 626.15,-206.81 626.85,-199.85"/>
</a>
</g>
</g>
<!-- Node48 -->
<g id="Node000048" class="node">
<title>Node48</title>
<g id="a_Node000048"><a xlink:href="../../dc/d41/namespacefl_1_1third__party_1_1truetype_a0421b412a05c735b86bbebebaeec3718.html#a0421b412a05c735b86bbebebaeec3718" target="_top" xlink:title=" ">
<polygon fill="#fff0f0" stroke="red" points="819.5,-78 691.5,-78 691.5,-48 819.5,-48 819.5,-78"/>
<text text-anchor="start" x="699.5" y="-66" font-family="Helvetica,sans-Serif" font-size="10.00">fl::third_party::truetype</text>
<text text-anchor="middle" x="755.5" y="-55" font-family="Helvetica,sans-Serif" font-size="10.00">::stbtt__rasterize</text>
</a>
</g>
</g>
<!-- Node47&#45;&gt;Node48 -->
<g id="edge20_Node000047_Node000048" class="edge">
<title>Node47&#45;&gt;Node48</title>
<g id="a_edge20_Node000047_Node000048"><a xlink:title=" ">
<path fill="none" stroke="#63b8ff" d="M616.55,-63C637.03,-63 659.93,-63 681.1,-63"/>
<polygon fill="#63b8ff" stroke="#63b8ff" points="681.33,-66.5 691.33,-63 681.33,-59.5 681.33,-66.5"/>
</a>
</g>
</g>
<!-- Node52 -->
<g id="Node000052" class="node">
<title>Node52</title>
<g id="a_Node000052"><a xlink:href="../../dc/d41/namespacefl_1_1third__party_1_1truetype_a7e66ebfc39b4f724863572bd470a9742.html#a7e66ebfc39b4f724863572bd470a9742" target="_top" xlink:title=" ">
<polygon fill="#fff0f0" stroke="red" points="819.5,-30 691.5,-30 691.5,0 819.5,0 819.5,-30"/>
<text text-anchor="start" x="699.5" y="-18" font-family="Helvetica,sans-Serif" font-size="10.00">fl::third_party::truetype</text>
<text text-anchor="middle" x="755.5" y="-7" font-family="Helvetica,sans-Serif" font-size="10.00">::stbtt_FlattenCurves</text>
</a>
</g>
</g>
<!-- Node47&#45;&gt;Node52 -->
<g id="edge21_Node000047_Node000052" class="edge">
<title>Node47&#45;&gt;Node52</title>
<g id="a_edge21_Node000047_Node000052"><a xlink:title=" ">
<path fill="none" stroke="#63b8ff" d="M616.55,-47.94C637.22,-43.01 660.36,-37.48 681.69,-32.39"/>
<polygon fill="#63b8ff" stroke="#63b8ff" points="682.76,-35.73 691.68,-30 681.14,-28.92 682.76,-35.73"/>
</a>
</g>
</g>
</g>
</svg>

<g id="navigator" transform="translate(0 0)" fill="#404254">
  <rect fill="#f2f5e9" fill-opacity="0.5" stroke="#606060" stroke-width=".5" x="0" y="0" width="60" height="60"/>
  <use id="zoomplus" xlink:href="#zoomPlus" x="17" y="9" onmousedown="handleZoom(evt,'in')"/>
  <use id="zoomminus" xlink:href="#zoomMin" x="42" y="9" onmousedown="handleZoom(evt,'out')"/>
  <use id="reset" xlink:href="#resetDef" x="30" y="36" onmousedown="handleReset()"/>
   <use id="arrowup" xlink:href="#arrowUp" x="0" y="0" onmousedown="handlePan(0,-1)"/>
  <use id="arrowright" xlink:href="#arrowRight" x="0" y="0" onmousedown="handlePan(1,0)"/>
  <use id="arrowdown" xlink:href="#arrowDown" x="0" y="0" onmousedown="handlePan(0,1)"/>
  <use id="arrowleft" xlink:href="#arrowLeft" x="0" y="0" onmousedown="handlePan(-1,0)"/>
</g>
<svg viewBox="0 0 15 15" width="100%" height="30px" preserveAspectRatio="xMaxYMin meet">
 <g id="arrow_out" transform="scale(0.3 0.3)">
  <a xlink:href="namespacefl_1_1third__party_1_1truetype_a3b77198770973bade3b706fa08062e3e_a3b77198770973bade3b706fa08062e3e_cgraph_org.svg" target="_base">
   <rect id="button" ry="5" rx="5" y="6" x="6" height="38" width="38"
        fill="#f2f5e9" fill-opacity="0.5" stroke="#606060" stroke-width="1.0"/>
   <path id="arrow"
     d="M 11.500037,31.436501 C 11.940474,20.09759 22.043105,11.32322 32.158766,21.979434 L 37.068811,17.246167 C 37.068811,17.246167 37.088388,32 37.088388,32 L 22.160133,31.978069 C 22.160133,31.978069 26.997745,27.140456 26.997745,27.140456 C 18.528582,18.264221 13.291696,25.230495 11.500037,31.436501 z"
     style="fill:#404040;"/>
  </a>
 </g>
</svg>

<style type='text/css'>
<![CDATA[
[data-mouse-over-selected='false'] { opacity: 0.7; }
[data-mouse-over-selected='true']  { opacity: 1.0; }
]]>
</style>
<script type="application/ecmascript"><![CDATA[
document.addEventListener('DOMContentLoaded', (event) => {
  highlightEdges();
  highlightAdjacentNodes();
});
]]></script>
</svg>
