<?xml version="1.0" encoding="UTF-8" standalone="no"?>
<!DOCTYPE svg PUBLIC "-//W3C//DTD SVG 1.1//EN"
 "http://www.w3.org/Graphics/SVG/1.1/DTD/svg11.dtd">
<!-- Generated by graphviz version 2.43.0 (0)
 -->
<!-- Title: fl::third_party::truetype::stbtt_Rasterize Pages: 1 -->
<!--zoomable 246 -->

<svg id="main" version="1.1" xmlns="http://www.w3.org/2000/svg" xmlns:xlink="http://www.w3.org/1999/xlink" xml:space="preserve" onload="init(evt)">

<style type="text/css"><![CDATA[
.node, .edge {opacity: 0.7;}
.node.selected, .edge.selected {opacity: 1;}
.edge:hover path { stroke: red; }
.edge:hover polygon { stroke: red; fill: red; }
]]></style>

<defs>
  <circle id="rim" cx="0" cy="0" r="7"/>
  <circle id="rim2" cx="0" cy="0" r="3.5"/>
  <g id="zoomPlus">
    <use xlink:href="#rim" fill="#404040"><set attributeName="fill" to="#808080" begin="zoomplus.mouseover" end="zoomplus.mouseout"/></use>
    <path d="M-4,0h8M0,-4v8" fill="none" stroke="white" stroke-width="1.5" pointer-events="none"/>
  </g>
  <g id="zoomMin">
    <use xlink:href="#rim" fill="#404040"><set attributeName="fill" to="#808080" begin="zoomminus.mouseover" end="zoomminus.mouseout"/></use>
    <path d="M-4,0h8" fill="none" stroke="white" stroke-width="1.5" pointer-events="none"/>
  </g>
  <g id="arrowUp" transform="translate(30 24)">
    <use xlink:href="#rim"/>
    <path pointer-events="none" fill="none" stroke="white" stroke-width="1.5" d="M0,-3.0v7 M-2.5,-0.5L0,-3.0L2.5,-0.5"/>
  </g>
  <g id="arrowRight" transform="rotate(90) translate(36 -43)">
    <use xlink:href="#rim"/>
    <path pointer-events="none" fill="none" stroke="white" stroke-width="1.5" d="M0,-3.0v7 M-2.5,-0.5L0,-3.0L2.5,-0.5"/>
  </g>
  <g id="arrowDown" transform="rotate(180) translate(-30 -48)">
    <use xlink:href="#rim"/>
    <path pointer-events="none" fill="none" stroke="white" stroke-width="1.5" d="M0,-3.0v7 M-2.5,-0.5L0,-3.0L2.5,-0.5"/>
  </g>
  <g id="arrowLeft" transform="rotate(270) translate(-36 17)">
    <use xlink:href="#rim"/>
    <path pointer-events="none" fill="none" stroke="white" stroke-width="1.5" d="M0,-3.0v7 M-2.5,-0.5L0,-3.0L2.5,-0.5"/>
  </g>
  <g id="resetDef">
    <use xlink:href="#rim2" fill="#404040"><set attributeName="fill" to="#808080" begin="reset.mouseover" end="reset.mouseout"/></use>
  </g>
</defs>
<script type="application/ecmascript">
var viewWidth = 664;
var viewHeight = 246;
var sectionId = 'dynsection-0';
</script>
<script type="application/ecmascript" xlink:href="../../svg.min.js"/>
<svg id="graph" class="graph">
<g id="viewport">
<title>fl::third_party::truetype::stbtt_Rasterize</title>
<!-- Node1 -->
<g id="Node000001" class="node">
<title>Node1</title>
<g id="a_Node000001"><a xlink:title=" ">
<polygon fill="#999999" stroke="#666666" points="128,-148 0,-148 0,-118 128,-118 128,-148"/>
<text text-anchor="start" x="8" y="-136" font-family="Helvetica,sans-Serif" font-size="10.00">fl::third_party::truetype</text>
<text text-anchor="middle" x="64" y="-125" font-family="Helvetica,sans-Serif" font-size="10.00">::stbtt_Rasterize</text>
</a>
</g>
</g>
<!-- Node2 -->
<g id="Node000002" class="node">
<title>Node2</title>
<g id="a_Node000002"><a xlink:href="../../dc/d41/namespacefl_1_1third__party_1_1truetype_a0421b412a05c735b86bbebebaeec3718.html#a0421b412a05c735b86bbebebaeec3718" target="_top" xlink:title=" ">
<polygon fill="white" stroke="#666666" points="292,-186 164,-186 164,-156 292,-156 292,-186"/>
<text text-anchor="start" x="172" y="-174" font-family="Helvetica,sans-Serif" font-size="10.00">fl::third_party::truetype</text>
<text text-anchor="middle" x="228" y="-163" font-family="Helvetica,sans-Serif" font-size="10.00">::stbtt__rasterize</text>
</a>
</g>
</g>
<!-- Node1&#45;&gt;Node2 -->
<g id="edge1_Node000001_Node000002" class="edge">
<title>Node1&#45;&gt;Node2</title>
<g id="a_edge1_Node000001_Node000002"><a xlink:title=" ">
<path fill="none" stroke="#63b8ff" d="M128.1,-147.8C136.53,-149.78 145.23,-151.82 153.81,-153.83"/>
<polygon fill="#63b8ff" stroke="#63b8ff" points="153.27,-157.3 163.81,-156.18 154.87,-150.49 153.27,-157.3"/>
</a>
</g>
</g>
<!-- Node6 -->
<g id="Node000006" class="node">
<title>Node6</title>
<g id="a_Node000006"><a xlink:href="../../dc/d41/namespacefl_1_1third__party_1_1truetype_a7e66ebfc39b4f724863572bd470a9742.html#a7e66ebfc39b4f724863572bd470a9742" target="_top" xlink:title=" ">
<polygon fill="white" stroke="#666666" points="292,-124 164,-124 164,-94 292,-94 292,-124"/>
<text text-anchor="start" x="172" y="-112" font-family="Helvetica,sans-Serif" font-size="10.00">fl::third_party::truetype</text>
<text text-anchor="middle" x="228" y="-101" font-family="Helvetica,sans-Serif" font-size="10.00">::stbtt_FlattenCurves</text>
</a>
</g>
</g>
<!-- Node1&#45;&gt;Node6 -->
<g id="edge6_Node000001_Node000006" class="edge">
<title>Node1&#45;&gt;Node6</title>
<g id="a_edge6_Node000001_Node000006"><a xlink:title=" ">
<path fill="none" stroke="#63b8ff" d="M128.1,-123.65C136.53,-122.4 145.23,-121.11 153.81,-119.84"/>
<polygon fill="#63b8ff" stroke="#63b8ff" points="154.43,-123.29 163.81,-118.36 153.4,-116.37 154.43,-123.29"/>
</a>
</g>
</g>
<!-- Node3 -->
<g id="Node000003" class="node">
<title>Node3</title>
<g id="a_Node000003"><a xlink:href="../../dc/d41/namespacefl_1_1third__party_1_1truetype_acd74dea27c9bf479477ec9e57b872f74.html#acd74dea27c9bf479477ec9e57b872f74" target="_top" xlink:title=" ">
<polygon fill="white" stroke="#666666" points="458.5,-200 330.5,-200 330.5,-170 458.5,-170 458.5,-200"/>
<text text-anchor="start" x="338.5" y="-188" font-family="Helvetica,sans-Serif" font-size="10.00">fl::third_party::truetype</text>
<text text-anchor="middle" x="394.5" y="-177" font-family="Helvetica,sans-Serif" font-size="10.00">::stbtt__sort_edges</text>
</a>
</g>
</g>
<!-- Node2&#45;&gt;Node3 -->
<g id="edge2_Node000002_Node000003" class="edge">
<title>Node2&#45;&gt;Node3</title>
<g id="a_edge2_Node000002_Node000003"><a xlink:title=" ">
<path fill="none" stroke="#63b8ff" d="M292.13,-176.37C301.31,-177.15 310.83,-177.96 320.19,-178.76"/>
<polygon fill="#63b8ff" stroke="#63b8ff" points="320.01,-182.26 330.27,-179.62 320.6,-175.28 320.01,-182.26"/>
</a>
</g>
</g>
<!-- Node4 -->
<g id="Node000004" class="node">
<title>Node4</title>
<g id="a_Node000004"><a xlink:href="../../dc/d41/namespacefl_1_1third__party_1_1truetype_a5784bcb25808cdf217e1c35d692691c5.html#a5784bcb25808cdf217e1c35d692691c5" target="_top" xlink:title=" ">
<polygon fill="white" stroke="#666666" points="652.5,-238 500.5,-238 500.5,-208 652.5,-208 652.5,-238"/>
<text text-anchor="start" x="508.5" y="-226" font-family="Helvetica,sans-Serif" font-size="10.00">fl::third_party::truetype</text>
<text text-anchor="middle" x="576.5" y="-215" font-family="Helvetica,sans-Serif" font-size="10.00">::stbtt__sort_edges_ins_sort</text>
</a>
</g>
</g>
<!-- Node3&#45;&gt;Node4 -->
<g id="edge3_Node000003_Node000004" class="edge">
<title>Node3&#45;&gt;Node4</title>
<g id="a_edge3_Node000003_Node000004"><a xlink:title=" ">
<path fill="none" stroke="#63b8ff" d="M458.71,-198.34C470.18,-200.77 482.3,-203.32 494.21,-205.84"/>
<polygon fill="#63b8ff" stroke="#63b8ff" points="493.64,-209.29 504.14,-207.94 495.08,-202.45 493.64,-209.29"/>
</a>
</g>
</g>
<!-- Node5 -->
<g id="Node000005" class="node">
<title>Node5</title>
<g id="a_Node000005"><a xlink:href="../../dc/d41/namespacefl_1_1third__party_1_1truetype_aeb0ffd2e670d47715240a30770a905be.html#aeb0ffd2e670d47715240a30770a905be" target="_top" xlink:title=" ">
<polygon fill="white" stroke="#666666" points="656,-172 497,-172 497,-142 656,-142 656,-172"/>
<text text-anchor="start" x="505" y="-160" font-family="Helvetica,sans-Serif" font-size="10.00">fl::third_party::truetype</text>
<text text-anchor="middle" x="576.5" y="-149" font-family="Helvetica,sans-Serif" font-size="10.00">::stbtt__sort_edges_quicksort</text>
</a>
</g>
</g>
<!-- Node3&#45;&gt;Node5 -->
<g id="edge4_Node000003_Node000005" class="edge">
<title>Node3&#45;&gt;Node5</title>
<g id="a_edge4_Node000003_Node000005"><a xlink:title=" ">
<path fill="none" stroke="#63b8ff" d="M458.71,-175.17C467.88,-173.74 477.46,-172.25 487.02,-170.76"/>
<polygon fill="#63b8ff" stroke="#63b8ff" points="487.61,-174.21 496.95,-169.22 486.53,-167.3 487.61,-174.21"/>
</a>
</g>
</g>
<!-- Node5&#45;&gt;Node5 -->
<g id="edge5_Node000005_Node000005" class="edge">
<title>Node5&#45;&gt;Node5</title>
<g id="a_edge5_Node000005_Node000005"><a xlink:title=" ">
<path fill="none" stroke="#63b8ff" d="M544.51,-172.28C537.4,-181.41 548.06,-190 576.5,-190 593.38,-190 604,-186.97 608.36,-182.6"/>
<polygon fill="#63b8ff" stroke="#63b8ff" points="611.86,-182.32 608.49,-172.28 604.86,-182.23 611.86,-182.32"/>
</a>
</g>
</g>
<!-- Node7 -->
<g id="Node000007" class="node">
<title>Node7</title>
<g id="a_Node000007"><a xlink:href="../../dc/d41/namespacefl_1_1third__party_1_1truetype_a44452d1d137233cfc6e3c8d93f6f850f.html#a44452d1d137233cfc6e3c8d93f6f850f" target="_top" xlink:title=" ">
<polygon fill="white" stroke="#666666" points="640.5,-96 512.5,-96 512.5,-66 640.5,-66 640.5,-96"/>
<text text-anchor="start" x="520.5" y="-84" font-family="Helvetica,sans-Serif" font-size="10.00">fl::third_party::truetype</text>
<text text-anchor="middle" x="576.5" y="-73" font-family="Helvetica,sans-Serif" font-size="10.00">::stbtt__add_point</text>
</a>
</g>
</g>
<!-- Node6&#45;&gt;Node7 -->
<g id="edge7_Node000006_Node000007" class="edge">
<title>Node6&#45;&gt;Node7</title>
<g id="a_edge7_Node000006_Node000007"><a xlink:title=" ">
<path fill="none" stroke="#63b8ff" d="M292.48,-120.82C339.37,-127.62 404.58,-133.02 461,-123 486.13,-118.54 512.98,-108.96 534.36,-100.08"/>
<polygon fill="#63b8ff" stroke="#63b8ff" points="535.94,-103.21 543.77,-96.07 533.2,-96.77 535.94,-103.21"/>
</a>
</g>
</g>
<!-- Node8 -->
<g id="Node000008" class="node">
<title>Node8</title>
<g id="a_Node000008"><a xlink:href="../../dc/d41/namespacefl_1_1third__party_1_1truetype_a92dfca017d267dd170fac36f0fd2079b.html#a92dfca017d267dd170fac36f0fd2079b" target="_top" xlink:title=" ">
<polygon fill="white" stroke="#666666" points="460,-96 329,-96 329,-66 460,-66 460,-96"/>
<text text-anchor="start" x="337" y="-84" font-family="Helvetica,sans-Serif" font-size="10.00">fl::third_party::truetype</text>
<text text-anchor="middle" x="394.5" y="-73" font-family="Helvetica,sans-Serif" font-size="10.00">::stbtt__tesselate_cubic</text>
</a>
</g>
</g>
<!-- Node6&#45;&gt;Node8 -->
<g id="edge8_Node000006_Node000008" class="edge">
<title>Node6&#45;&gt;Node8</title>
<g id="a_edge8_Node000006_Node000008"><a xlink:title=" ">
<path fill="none" stroke="#63b8ff" d="M292.13,-98.25C300.88,-96.76 309.95,-95.22 318.89,-93.7"/>
<polygon fill="#63b8ff" stroke="#63b8ff" points="319.63,-97.12 328.91,-91.99 318.46,-90.22 319.63,-97.12"/>
</a>
</g>
</g>
<!-- Node9 -->
<g id="Node000009" class="node">
<title>Node9</title>
<g id="a_Node000009"><a xlink:href="../../dc/d41/namespacefl_1_1third__party_1_1truetype_a4e7c42e1e9bfb963a947b3073f12b071.html#a4e7c42e1e9bfb963a947b3073f12b071" target="_top" xlink:title=" ">
<polygon fill="white" stroke="#666666" points="461,-30 328,-30 328,0 461,0 461,-30"/>
<text text-anchor="start" x="336" y="-18" font-family="Helvetica,sans-Serif" font-size="10.00">fl::third_party::truetype</text>
<text text-anchor="middle" x="394.5" y="-7" font-family="Helvetica,sans-Serif" font-size="10.00">::stbtt__tesselate_curve</text>
</a>
</g>
</g>
<!-- Node6&#45;&gt;Node9 -->
<g id="edge11_Node000006_Node000009" class="edge">
<title>Node6&#45;&gt;Node9</title>
<g id="a_edge11_Node000006_Node000009"><a xlink:title=" ">
<path fill="none" stroke="#63b8ff" d="M255.43,-93.9C283.37,-77.93 327.58,-52.67 358.42,-35.04"/>
<polygon fill="#63b8ff" stroke="#63b8ff" points="360.19,-38.07 367.14,-30.07 356.72,-31.99 360.19,-38.07"/>
</a>
</g>
</g>
<!-- Node8&#45;&gt;Node7 -->
<g id="edge9_Node000008_Node000007" class="edge">
<title>Node8&#45;&gt;Node7</title>
<g id="a_edge9_Node000008_Node000007"><a xlink:title=" ">
<path fill="none" stroke="#63b8ff" d="M460.23,-81C473.86,-81 488.32,-81 502.23,-81"/>
<polygon fill="#63b8ff" stroke="#63b8ff" points="502.25,-84.5 512.25,-81 502.25,-77.5 502.25,-84.5"/>
</a>
</g>
</g>
<!-- Node8&#45;&gt;Node8 -->
<g id="edge10_Node000008_Node000008" class="edge">
<title>Node8&#45;&gt;Node8</title>
<g id="a_edge10_Node000008_Node000008"><a xlink:title=" ">
<path fill="none" stroke="#63b8ff" d="M365.32,-96.28C358.84,-105.41 368.56,-114 394.5,-114 409.9,-114 419.59,-110.97 423.56,-106.6"/>
<polygon fill="#63b8ff" stroke="#63b8ff" points="427.06,-106.32 423.68,-96.28 420.06,-106.23 427.06,-106.32"/>
</a>
</g>
</g>
<!-- Node9&#45;&gt;Node7 -->
<g id="edge12_Node000009_Node000007" class="edge">
<title>Node9&#45;&gt;Node7</title>
<g id="a_edge12_Node000009_Node000007"><a xlink:title=" ">
<path fill="none" stroke="#63b8ff" d="M436.8,-30.14C462.98,-39.74 497.03,-52.23 524.84,-62.43"/>
<polygon fill="#63b8ff" stroke="#63b8ff" points="523.8,-65.77 534.4,-65.93 526.21,-59.2 523.8,-65.77"/>
</a>
</g>
</g>
<!-- Node9&#45;&gt;Node9 -->
<g id="edge13_Node000009_Node000009" class="edge">
<title>Node9&#45;&gt;Node9</title>
<g id="a_edge13_Node000009_Node000009"><a xlink:title=" ">
<path fill="none" stroke="#63b8ff" d="M365.32,-30.28C358.84,-39.41 368.56,-48 394.5,-48 409.9,-48 419.59,-44.97 423.56,-40.6"/>
<polygon fill="#63b8ff" stroke="#63b8ff" points="427.06,-40.32 423.68,-30.28 420.06,-40.23 427.06,-40.32"/>
</a>
</g>
</g>
</g>
</svg>

<g id="navigator" transform="translate(0 0)" fill="#404254">
  <rect fill="#f2f5e9" fill-opacity="0.5" stroke="#606060" stroke-width=".5" x="0" y="0" width="60" height="60"/>
  <use id="zoomplus" xlink:href="#zoomPlus" x="17" y="9" onmousedown="handleZoom(evt,'in')"/>
  <use id="zoomminus" xlink:href="#zoomMin" x="42" y="9" onmousedown="handleZoom(evt,'out')"/>
  <use id="reset" xlink:href="#resetDef" x="30" y="36" onmousedown="handleReset()"/>
   <use id="arrowup" xlink:href="#arrowUp" x="0" y="0" onmousedown="handlePan(0,-1)"/>
  <use id="arrowright" xlink:href="#arrowRight" x="0" y="0" onmousedown="handlePan(1,0)"/>
  <use id="arrowdown" xlink:href="#arrowDown" x="0" y="0" onmousedown="handlePan(0,1)"/>
  <use id="arrowleft" xlink:href="#arrowLeft" x="0" y="0" onmousedown="handlePan(-1,0)"/>
</g>
<svg viewBox="0 0 15 15" width="100%" height="30px" preserveAspectRatio="xMaxYMin meet">
 <g id="arrow_out" transform="scale(0.3 0.3)">
  <a xlink:href="namespacefl_1_1third__party_1_1truetype_a2cd1d3ca17796caca903287b9138ab65_a2cd1d3ca17796caca903287b9138ab65_cgraph_org.svg" target="_base">
   <rect id="button" ry="5" rx="5" y="6" x="6" height="38" width="38"
        fill="#f2f5e9" fill-opacity="0.5" stroke="#606060" stroke-width="1.0"/>
   <path id="arrow"
     d="M 11.500037,31.436501 C 11.940474,20.09759 22.043105,11.32322 32.158766,21.979434 L 37.068811,17.246167 C 37.068811,17.246167 37.088388,32 37.088388,32 L 22.160133,31.978069 C 22.160133,31.978069 26.997745,27.140456 26.997745,27.140456 C 18.528582,18.264221 13.291696,25.230495 11.500037,31.436501 z"
     style="fill:#404040;"/>
  </a>
 </g>
</svg>

<style type='text/css'>
<![CDATA[
[data-mouse-over-selected='false'] { opacity: 0.7; }
[data-mouse-over-selected='true']  { opacity: 1.0; }
]]>
</style>
<script type="application/ecmascript"><![CDATA[
document.addEventListener('DOMContentLoaded', (event) => {
  highlightEdges();
  highlightAdjacentNodes();
});
]]></script>
</svg>
