<?xml version="1.0" encoding="UTF-8" standalone="no"?>
<!DOCTYPE svg PUBLIC "-//W3C//DTD SVG 1.1//EN"
 "http://www.w3.org/Graphics/SVG/1.1/DTD/svg11.dtd">
<!-- Generated by graphviz version 2.43.0 (0)
 -->
<!-- Title: fl::EngineEvents::getInstance Pages: 1 -->
<!--zoomable 992 -->

<svg id="main" version="1.1" xmlns="http://www.w3.org/2000/svg" xmlns:xlink="http://www.w3.org/1999/xlink" xml:space="preserve" onload="init(evt)">

<style type="text/css"><![CDATA[
.node, .edge {opacity: 0.7;}
.node.selected, .edge.selected {opacity: 1;}
.edge:hover path { stroke: red; }
.edge:hover polygon { stroke: red; fill: red; }
]]></style>

<defs>
  <circle id="rim" cx="0" cy="0" r="7"/>
  <circle id="rim2" cx="0" cy="0" r="3.5"/>
  <g id="zoomPlus">
    <use xlink:href="#rim" fill="#404040"><set attributeName="fill" to="#808080" begin="zoomplus.mouseover" end="zoomplus.mouseout"/></use>
    <path d="M-4,0h8M0,-4v8" fill="none" stroke="white" stroke-width="1.5" pointer-events="none"/>
  </g>
  <g id="zoomMin">
    <use xlink:href="#rim" fill="#404040"><set attributeName="fill" to="#808080" begin="zoomminus.mouseover" end="zoomminus.mouseout"/></use>
    <path d="M-4,0h8" fill="none" stroke="white" stroke-width="1.5" pointer-events="none"/>
  </g>
  <g id="arrowUp" transform="translate(30 24)">
    <use xlink:href="#rim"/>
    <path pointer-events="none" fill="none" stroke="white" stroke-width="1.5" d="M0,-3.0v7 M-2.5,-0.5L0,-3.0L2.5,-0.5"/>
  </g>
  <g id="arrowRight" transform="rotate(90) translate(36 -43)">
    <use xlink:href="#rim"/>
    <path pointer-events="none" fill="none" stroke="white" stroke-width="1.5" d="M0,-3.0v7 M-2.5,-0.5L0,-3.0L2.5,-0.5"/>
  </g>
  <g id="arrowDown" transform="rotate(180) translate(-30 -48)">
    <use xlink:href="#rim"/>
    <path pointer-events="none" fill="none" stroke="white" stroke-width="1.5" d="M0,-3.0v7 M-2.5,-0.5L0,-3.0L2.5,-0.5"/>
  </g>
  <g id="arrowLeft" transform="rotate(270) translate(-36 17)">
    <use xlink:href="#rim"/>
    <path pointer-events="none" fill="none" stroke="white" stroke-width="1.5" d="M0,-3.0v7 M-2.5,-0.5L0,-3.0L2.5,-0.5"/>
  </g>
  <g id="resetDef">
    <use xlink:href="#rim2" fill="#404040"><set attributeName="fill" to="#808080" begin="reset.mouseover" end="reset.mouseout"/></use>
  </g>
</defs>
<script type="application/ecmascript">
var viewWidth = 799;
var viewHeight = 992;
var sectionId = 'dynsection-1';
</script>
<script type="application/ecmascript" xlink:href="../../svg.min.js"/>
<svg id="graph" class="graph">
<g id="viewport">
<title>fl::EngineEvents::getInstance</title>
<!-- Node1 -->
<g id="Node000001" class="node">
<title>Node1</title>
<g id="a_Node000001"><a xlink:title=" ">
<polygon fill="#999999" stroke="#666666" points="791,-427.5 633,-427.5 633,-408.5 791,-408.5 791,-427.5"/>
<text text-anchor="middle" x="712" y="-415.5" font-family="Helvetica,sans-Serif" font-size="10.00">fl::EngineEvents::getInstance</text>
</a>
</g>
</g>
<!-- Node2 -->
<g id="Node000002" class="node">
<title>Node2</title>
<g id="a_Node000002"><a xlink:href="../../db/da2/classfl_1_1_engine_events_1_1_listener_a02910c2cce73f7d39e39a6db29bb9ba4.html#a02910c2cce73f7d39e39a6db29bb9ba4" target="_top" xlink:title=" ">
<polygon fill="white" stroke="#666666" points="577.5,-765 437.5,-765 437.5,-735 577.5,-735 577.5,-765"/>
<text text-anchor="start" x="445.5" y="-753" font-family="Helvetica,sans-Serif" font-size="10.00">fl::EngineEvents::Listener</text>
<text text-anchor="middle" x="507.5" y="-742" font-family="Helvetica,sans-Serif" font-size="10.00">::~Listener</text>
</a>
</g>
</g>
<!-- Node1&#45;&gt;Node2 -->
<g id="edge1_Node000001_Node000002" class="edge">
<title>Node1&#45;&gt;Node2</title>
<g id="a_edge1_Node000001_Node000002"><a xlink:title=" ">
<path fill="none" stroke="#63b8ff" d="M709.72,-437.83C705.12,-492.38 684.62,-645.91 597,-726 591.36,-731.16 584.72,-735.22 577.66,-738.43"/>
<polygon fill="#63b8ff" stroke="#63b8ff" points="713.22,-437.99 710.48,-427.76 706.24,-437.47 713.22,-437.99"/>
</a>
</g>
</g>
<!-- Node3 -->
<g id="Node000003" class="node">
<title>Node3</title>
<g id="a_Node000003"><a xlink:href="../../de/dca/classfl_1_1_engine_events_a0ec4bb952e2d965c309f69af153ce8d3.html#a0ec4bb952e2d965c309f69af153ce8d3" target="_top" xlink:title=" ">
<polygon fill="white" stroke="#666666" points="586.5,-716.5 428.5,-716.5 428.5,-697.5 586.5,-697.5 586.5,-716.5"/>
<text text-anchor="middle" x="507.5" y="-704.5" font-family="Helvetica,sans-Serif" font-size="10.00">fl::EngineEvents::addListener</text>
</a>
</g>
</g>
<!-- Node1&#45;&gt;Node3 -->
<g id="edge2_Node000001_Node000003" class="edge">
<title>Node1&#45;&gt;Node3</title>
<g id="a_edge2_Node000001_Node000003"><a xlink:title=" ">
<path fill="none" stroke="#63b8ff" d="M698.37,-436.02C659.81,-491.05 544.44,-655.71 515.26,-697.35"/>
<polygon fill="#63b8ff" stroke="#63b8ff" points="701.39,-437.81 704.26,-427.62 695.66,-433.8 701.39,-437.81"/>
</a>
</g>
</g>
<!-- Node15 -->
<g id="Node000015" class="node">
<title>Node15</title>
<g id="a_Node000015"><a xlink:href="../../de/dca/classfl_1_1_engine_events_a9277949e9a6953aeae1ba54218d9f638.html#a9277949e9a6953aeae1ba54218d9f638" target="_top" xlink:title=" ">
<polygon fill="white" stroke="#666666" points="586,-535.5 429,-535.5 429,-516.5 586,-516.5 586,-535.5"/>
<text text-anchor="middle" x="507.5" y="-523.5" font-family="Helvetica,sans-Serif" font-size="10.00">fl::EngineEvents::hasListener</text>
</a>
</g>
</g>
<!-- Node1&#45;&gt;Node15 -->
<g id="edge14_Node000001_Node000015" class="edge">
<title>Node1&#45;&gt;Node15</title>
<g id="a_edge14_Node000001_Node000015"><a xlink:title=" ">
<path fill="none" stroke="#63b8ff" d="M694.6,-434.81C673.81,-455.11 635.96,-488.79 597,-507 588.74,-510.86 579.68,-513.94 570.61,-516.41"/>
<polygon fill="#63b8ff" stroke="#63b8ff" points="697.33,-437.04 701.94,-427.5 692.39,-432.08 697.33,-437.04"/>
</a>
</g>
</g>
<!-- Node16 -->
<g id="Node000016" class="node">
<title>Node16</title>
<g id="a_Node000016"><a xlink:href="../../de/dca/classfl_1_1_engine_events_a7147debfba714b8ab0925af1a7c935c0.html#a7147debfba714b8ab0925af1a7c935c0" target="_top" xlink:title=" ">
<polygon fill="white" stroke="#666666" points="577.5,-412 437.5,-412 437.5,-382 577.5,-382 577.5,-412"/>
<text text-anchor="start" x="445.5" y="-400" font-family="Helvetica,sans-Serif" font-size="10.00">fl::EngineEvents::onBegin</text>
<text text-anchor="middle" x="507.5" y="-389" font-family="Helvetica,sans-Serif" font-size="10.00">Frame</text>
</a>
</g>
</g>
<!-- Node1&#45;&gt;Node16 -->
<g id="edge15_Node000001_Node000016" class="edge">
<title>Node1&#45;&gt;Node16</title>
<g id="a_edge15_Node000001_Node000016"><a xlink:title=" ">
<path fill="none" stroke="#63b8ff" d="M622.62,-408.84C607.53,-407.27 592.04,-405.66 577.54,-404.16"/>
<polygon fill="#63b8ff" stroke="#63b8ff" points="622.69,-412.36 633,-409.91 623.41,-405.4 622.69,-412.36"/>
</a>
</g>
</g>
<!-- Node18 -->
<g id="Node000018" class="node">
<title>Node18</title>
<g id="a_Node000018"><a xlink:href="../../de/dca/classfl_1_1_engine_events_aeb85848268614982b022006bd41a2726.html#aeb85848268614982b022006bd41a2726" target="_top" xlink:title=" ">
<polygon fill="white" stroke="#666666" points="582,-498 433,-498 433,-468 582,-468 582,-498"/>
<text text-anchor="start" x="441" y="-486" font-family="Helvetica,sans-Serif" font-size="10.00">fl::EngineEvents::onCanvas</text>
<text text-anchor="middle" x="507.5" y="-475" font-family="Helvetica,sans-Serif" font-size="10.00">UiSet</text>
</a>
</g>
</g>
<!-- Node1&#45;&gt;Node18 -->
<g id="edge17_Node000001_Node000018" class="edge">
<title>Node1&#45;&gt;Node18</title>
<g id="a_edge17_Node000001_Node000018"><a xlink:title=" ">
<path fill="none" stroke="#63b8ff" d="M676.83,-431.1C654.31,-439.53 624.09,-450.47 597,-459 587.28,-462.06 576.89,-465.09 566.77,-467.91"/>
<polygon fill="#63b8ff" stroke="#63b8ff" points="678.16,-434.34 686.29,-427.54 675.7,-427.79 678.16,-434.34"/>
</a>
</g>
</g>
<!-- Node22 -->
<g id="Node000022" class="node">
<title>Node22</title>
<g id="a_Node000022"><a xlink:href="../../de/dca/classfl_1_1_engine_events_ab7d24c4783214392de84947cd7df5570.html#ab7d24c4783214392de84947cd7df5570" target="_top" xlink:title=" ">
<polygon fill="white" stroke="#666666" points="588,-449.5 427,-449.5 427,-430.5 588,-430.5 588,-449.5"/>
<text text-anchor="middle" x="507.5" y="-437.5" font-family="Helvetica,sans-Serif" font-size="10.00">fl::EngineEvents::onEndFrame</text>
</a>
</g>
</g>
<!-- Node1&#45;&gt;Node22 -->
<g id="edge21_Node000001_Node000022" class="edge">
<title>Node1&#45;&gt;Node22</title>
<g id="a_edge21_Node000001_Node000022"><a xlink:title=" ">
<path fill="none" stroke="#63b8ff" d="M622.91,-427.57C611.35,-428.83 599.55,-430.11 588.14,-431.35"/>
<polygon fill="#63b8ff" stroke="#63b8ff" points="623.43,-431.03 633,-426.47 622.68,-424.07 623.43,-431.03"/>
</a>
</g>
</g>
<!-- Node26 -->
<g id="Node000026" class="node">
<title>Node26</title>
<g id="a_Node000026"><a xlink:href="../../de/dca/classfl_1_1_engine_events_af1bb9a46fdc6694a1b5c87a49c516ae8.html#af1bb9a46fdc6694a1b5c87a49c516ae8" target="_top" xlink:title=" ">
<polygon fill="white" stroke="#666666" points="597,-363.5 418,-363.5 418,-344.5 597,-344.5 597,-363.5"/>
<text text-anchor="middle" x="507.5" y="-351.5" font-family="Helvetica,sans-Serif" font-size="10.00">fl::EngineEvents::onEndShowLeds</text>
</a>
</g>
</g>
<!-- Node1&#45;&gt;Node26 -->
<g id="edge25_Node000001_Node000026" class="edge">
<title>Node1&#45;&gt;Node26</title>
<g id="a_edge25_Node000001_Node000026"><a xlink:title=" ">
<path fill="none" stroke="#63b8ff" d="M680.51,-404.38C657.83,-394.63 625.92,-381.75 597,-373 585.12,-369.41 572.14,-366.22 559.88,-363.53"/>
<polygon fill="#63b8ff" stroke="#63b8ff" points="679.37,-407.7 689.94,-408.47 682.16,-401.28 679.37,-407.7"/>
</a>
</g>
</g>
<!-- Node27 -->
<g id="Node000027" class="node">
<title>Node27</title>
<g id="a_Node000027"><a xlink:href="../../de/dca/classfl_1_1_engine_events_ad1c574b09857b0ebe90798cc83223b17.html#ad1c574b09857b0ebe90798cc83223b17" target="_top" xlink:title=" ">
<polygon fill="white" stroke="#666666" points="585,-326 430,-326 430,-296 585,-296 585,-326"/>
<text text-anchor="start" x="438" y="-314" font-family="Helvetica,sans-Serif" font-size="10.00">fl::EngineEvents::onPlatform</text>
<text text-anchor="middle" x="507.5" y="-303" font-family="Helvetica,sans-Serif" font-size="10.00">PreLoop</text>
</a>
</g>
</g>
<!-- Node1&#45;&gt;Node27 -->
<g id="edge27_Node000001_Node000027" class="edge">
<title>Node1&#45;&gt;Node27</title>
<g id="a_edge27_Node000001_Node000027"><a xlink:title=" ">
<path fill="none" stroke="#63b8ff" d="M692.89,-401.53C671.47,-382.87 634.03,-352.75 597,-335 589.97,-331.63 582.38,-328.67 574.72,-326.08"/>
<polygon fill="#63b8ff" stroke="#63b8ff" points="690.73,-404.29 700.54,-408.3 695.37,-399.05 690.73,-404.29"/>
</a>
</g>
</g>
<!-- Node28 -->
<g id="Node000028" class="node">
<title>Node28</title>
<g id="a_Node000028"><a xlink:href="../../de/dca/classfl_1_1_engine_events_a8ec266f9f7b35b9174d331cb6c338d80.html#a8ec266f9f7b35b9174d331cb6c338d80" target="_top" xlink:title=" ">
<polygon fill="white" stroke="#666666" points="575,-278 440,-278 440,-248 575,-248 575,-278"/>
<text text-anchor="start" x="448" y="-266" font-family="Helvetica,sans-Serif" font-size="10.00">fl::EngineEvents::onStrip</text>
<text text-anchor="middle" x="507.5" y="-255" font-family="Helvetica,sans-Serif" font-size="10.00">Added</text>
</a>
</g>
</g>
<!-- Node1&#45;&gt;Node28 -->
<g id="edge28_Node000001_Node000028" class="edge">
<title>Node1&#45;&gt;Node28</title>
<g id="a_edge28_Node000001_Node000028"><a xlink:title=" ">
<path fill="none" stroke="#63b8ff" d="M700.23,-399.82C682.41,-371.35 644.05,-316.48 597,-287 590.25,-282.77 582.77,-279.28 575.09,-276.4"/>
<polygon fill="#63b8ff" stroke="#63b8ff" points="697.26,-401.68 705.47,-408.38 703.23,-398.02 697.26,-401.68"/>
</a>
</g>
</g>
<!-- Node33 -->
<g id="Node000033" class="node">
<title>Node33</title>
<g id="a_Node000033"><a xlink:href="../../de/dca/classfl_1_1_engine_events_a34cf730bad7c6b5192b4747676f20881.html#a34cf730bad7c6b5192b4747676f20881" target="_top" xlink:title=" ">
<polygon fill="white" stroke="#666666" points="576.5,-164 438.5,-164 438.5,-134 576.5,-134 576.5,-164"/>
<text text-anchor="start" x="446.5" y="-152" font-family="Helvetica,sans-Serif" font-size="10.00">fl::EngineEvents::remove</text>
<text text-anchor="middle" x="507.5" y="-141" font-family="Helvetica,sans-Serif" font-size="10.00">Listener</text>
</a>
</g>
</g>
<!-- Node1&#45;&gt;Node33 -->
<g id="edge33_Node000001_Node000033" class="edge">
<title>Node1&#45;&gt;Node33</title>
<g id="a_edge33_Node000001_Node000033"><a xlink:title=" ">
<path fill="none" stroke="#63b8ff" d="M700.69,-399.05C682.01,-365.4 640.45,-293.61 597,-239 574.49,-210.7 544.23,-181.5 525.56,-164.31"/>
<polygon fill="#63b8ff" stroke="#63b8ff" points="697.84,-401.14 705.73,-408.21 703.98,-397.76 697.84,-401.14"/>
</a>
</g>
</g>
<!-- Node4 -->
<g id="Node000004" class="node">
<title>Node4</title>
<g id="a_Node000004"><a xlink:href="../../d2/d68/structfl_1_1_u_i_button_1_1_listener_a3e3b4d88cbf4e14ef0cf73839bb6202f.html#a3e3b4d88cbf4e14ef0cf73839bb6202f" target="_top" xlink:title=" ">
<polygon fill="white" stroke="#666666" points="349.5,-888 233.5,-888 233.5,-858 349.5,-858 349.5,-888"/>
<text text-anchor="start" x="241.5" y="-876" font-family="Helvetica,sans-Serif" font-size="10.00">fl::UIButton::Listener</text>
<text text-anchor="middle" x="291.5" y="-865" font-family="Helvetica,sans-Serif" font-size="10.00">::Listener</text>
</a>
</g>
</g>
<!-- Node3&#45;&gt;Node4 -->
<g id="edge3_Node000003_Node000004" class="edge">
<title>Node3&#45;&gt;Node4</title>
<g id="a_edge3_Node000003_Node000004"><a xlink:title=" ">
<path fill="none" stroke="#63b8ff" d="M422.75,-722.06C421.1,-723.29 419.51,-724.6 418,-726 376.28,-764.77 422.73,-809.18 382,-849 373.14,-857.66 361.52,-863.28 349.59,-866.91"/>
<polygon fill="#63b8ff" stroke="#63b8ff" points="424.84,-724.89 431.52,-716.66 421.17,-718.93 424.84,-724.89"/>
</a>
</g>
</g>
<!-- Node5 -->
<g id="Node000005" class="node">
<title>Node5</title>
<g id="a_Node000005"><a xlink:href="../../de/d6f/structfl_1_1_u_i_checkbox_1_1_listener_ac95257f0a5ff337a7e660880609689bc.html#ac95257f0a5ff337a7e660880609689bc" target="_top" xlink:title=" ">
<polygon fill="white" stroke="#666666" points="357.5,-840 225.5,-840 225.5,-810 357.5,-810 357.5,-840"/>
<text text-anchor="start" x="233.5" y="-828" font-family="Helvetica,sans-Serif" font-size="10.00">fl::UICheckbox::Listener</text>
<text text-anchor="middle" x="291.5" y="-817" font-family="Helvetica,sans-Serif" font-size="10.00">::Listener</text>
</a>
</g>
</g>
<!-- Node3&#45;&gt;Node5 -->
<g id="edge4_Node000003_Node000005" class="edge">
<title>Node3&#45;&gt;Node5</title>
<g id="a_edge4_Node000003_Node000005"><a xlink:title=" ">
<path fill="none" stroke="#63b8ff" d="M424.63,-721.42C422.32,-722.82 420.11,-724.34 418,-726 388.96,-748.88 410.45,-777.39 382,-801 374.94,-806.86 366.59,-811.29 357.87,-814.65"/>
<polygon fill="#63b8ff" stroke="#63b8ff" points="426.63,-724.33 433.91,-716.63 423.42,-718.11 426.63,-724.33"/>
</a>
</g>
</g>
<!-- Node6 -->
<g id="Node000006" class="node">
<title>Node6</title>
<g id="a_Node000006"><a xlink:href="../../d0/d0d/structfl_1_1_u_i_number_field_1_1_listener_a1ef13c1987d994b9fd9ffa84aaf67131.html#a1ef13c1987d994b9fd9ffa84aaf67131" target="_top" xlink:title=" ">
<polygon fill="white" stroke="#666666" points="345,-792 238,-792 238,-762 345,-762 345,-792"/>
<text text-anchor="start" x="246" y="-780" font-family="Helvetica,sans-Serif" font-size="10.00">fl::UINumberField::</text>
<text text-anchor="middle" x="291.5" y="-769" font-family="Helvetica,sans-Serif" font-size="10.00">Listener::Listener</text>
</a>
</g>
</g>
<!-- Node3&#45;&gt;Node6 -->
<g id="edge5_Node000003_Node000006" class="edge">
<title>Node3&#45;&gt;Node6</title>
<g id="a_edge5_Node000003_Node000006"><a xlink:title=" ">
<path fill="none" stroke="#63b8ff" d="M435,-719.51C429.14,-721.39 423.41,-723.54 418,-726 399.8,-734.29 399.98,-744.25 382,-753 370.57,-758.56 357.67,-762.97 345.3,-766.42"/>
<polygon fill="#63b8ff" stroke="#63b8ff" points="436.31,-722.78 444.92,-716.61 434.34,-716.06 436.31,-722.78"/>
</a>
</g>
</g>
<!-- Node7 -->
<g id="Node000007" class="node">
<title>Node7</title>
<g id="a_Node000007"><a xlink:href="../../da/df8/structfl_1_1_u_i_slider_1_1_listener_ac1fae271e401720ded2a853bcaac4b66.html#ac1fae271e401720ded2a853bcaac4b66" target="_top" xlink:title=" ">
<polygon fill="white" stroke="#666666" points="347.5,-744 235.5,-744 235.5,-714 347.5,-714 347.5,-744"/>
<text text-anchor="start" x="243.5" y="-732" font-family="Helvetica,sans-Serif" font-size="10.00">fl::UISlider::Listener</text>
<text text-anchor="middle" x="291.5" y="-721" font-family="Helvetica,sans-Serif" font-size="10.00">::Listener</text>
</a>
</g>
</g>
<!-- Node3&#45;&gt;Node7 -->
<g id="edge6_Node000003_Node000007" class="edge">
<title>Node3&#45;&gt;Node7</title>
<g id="a_edge6_Node000003_Node000007"><a xlink:title=" ">
<path fill="none" stroke="#63b8ff" d="M418.2,-716.08C394.33,-718.53 369.18,-721.12 347.7,-723.33"/>
<polygon fill="#63b8ff" stroke="#63b8ff" points="418.74,-719.54 428.33,-715.04 418.03,-712.58 418.74,-719.54"/>
</a>
</g>
</g>
<!-- Node8 -->
<g id="Node000008" class="node">
<title>Node8</title>
<g id="a_Node000008"><a xlink:href="../../dd/dbb/class_c_fast_l_e_d_ac965b166635b9aca0c165a53eb0a474f.html#ac965b166635b9aca0c165a53eb0a474f" target="_top" xlink:title=" ">
<polygon fill="white" stroke="#666666" points="354,-695.5 229,-695.5 229,-676.5 354,-676.5 354,-695.5"/>
<text text-anchor="middle" x="291.5" y="-683.5" font-family="Helvetica,sans-Serif" font-size="10.00">CFastLED::addListener</text>
</a>
</g>
</g>
<!-- Node3&#45;&gt;Node8 -->
<g id="edge7_Node000003_Node000008" class="edge">
<title>Node3&#45;&gt;Node8</title>
<g id="a_edge7_Node000003_Node000008"><a xlink:title=" ">
<path fill="none" stroke="#63b8ff" d="M418.19,-698.33C396.63,-696.22 374.04,-694 354.04,-692.04"/>
<polygon fill="#63b8ff" stroke="#63b8ff" points="418.04,-701.84 428.33,-699.33 418.72,-694.87 418.04,-701.84"/>
</a>
</g>
</g>
<!-- Node9 -->
<g id="Node000009" class="node">
<title>Node9</title>
<g id="a_Node000009"><a xlink:href="../../da/d31/structfl_1_1_button_1_1_listener_ae218110b554ea919c48dd3c22b02b927.html#ae218110b554ea919c48dd3c22b02b927" target="_top" xlink:title=" ">
<polygon fill="white" stroke="#666666" points="362.5,-658 220.5,-658 220.5,-628 362.5,-628 362.5,-658"/>
<text text-anchor="start" x="228.5" y="-646" font-family="Helvetica,sans-Serif" font-size="10.00">fl::Button::Listener</text>
<text text-anchor="middle" x="291.5" y="-635" font-family="Helvetica,sans-Serif" font-size="10.00">::addToEngineEventsOnce</text>
</a>
</g>
</g>
<!-- Node3&#45;&gt;Node9 -->
<g id="edge8_Node000003_Node000009" class="edge">
<title>Node3&#45;&gt;Node9</title>
<g id="a_edge8_Node000003_Node000009"><a xlink:title=" ">
<path fill="none" stroke="#63b8ff" d="M467.25,-694.36C442.79,-686.57 410.63,-676.48 382,-668 370.86,-664.7 358.91,-661.28 347.48,-658.07"/>
<polygon fill="#63b8ff" stroke="#63b8ff" points="466.31,-697.73 476.9,-697.44 468.43,-691.06 466.31,-697.73"/>
</a>
</g>
</g>
<!-- Node11 -->
<g id="Node000011" class="node">
<title>Node11</title>
<g id="a_Node000011"><a xlink:href="../../d2/d68/structfl_1_1_u_i_button_1_1_listener_a663bf7c3826c1839d80bd533257051a2.html#a663bf7c3826c1839d80bd533257051a2" target="_top" xlink:title=" ">
<polygon fill="white" stroke="#666666" points="362.5,-610 220.5,-610 220.5,-580 362.5,-580 362.5,-610"/>
<text text-anchor="start" x="228.5" y="-598" font-family="Helvetica,sans-Serif" font-size="10.00">fl::UIButton::Listener</text>
<text text-anchor="middle" x="291.5" y="-587" font-family="Helvetica,sans-Serif" font-size="10.00">::addToEngineEventsOnce</text>
</a>
</g>
</g>
<!-- Node3&#45;&gt;Node11 -->
<g id="edge10_Node000003_Node000011" class="edge">
<title>Node3&#45;&gt;Node11</title>
<g id="a_edge10_Node000003_Node000011"><a xlink:title=" ">
<path fill="none" stroke="#63b8ff" d="M487.99,-690.7C464.76,-671.03 422.98,-638.22 382,-619 374.86,-615.65 367.18,-612.71 359.42,-610.13"/>
<polygon fill="#63b8ff" stroke="#63b8ff" points="485.81,-693.43 495.67,-697.3 490.37,-688.13 485.81,-693.43"/>
</a>
</g>
</g>
<!-- Node12 -->
<g id="Node000012" class="node">
<title>Node12</title>
<g id="a_Node000012"><a xlink:href="../../de/d6f/structfl_1_1_u_i_checkbox_1_1_listener_afb032013d86d8c85f9ed81338431de98.html#afb032013d86d8c85f9ed81338431de98" target="_top" xlink:title=" ">
<polygon fill="white" stroke="#666666" points="362.5,-562 220.5,-562 220.5,-532 362.5,-532 362.5,-562"/>
<text text-anchor="start" x="228.5" y="-550" font-family="Helvetica,sans-Serif" font-size="10.00">fl::UICheckbox::Listener</text>
<text text-anchor="middle" x="291.5" y="-539" font-family="Helvetica,sans-Serif" font-size="10.00">::addToEngineEventsOnce</text>
</a>
</g>
</g>
<!-- Node3&#45;&gt;Node12 -->
<g id="edge11_Node000003_Node000012" class="edge">
<title>Node3&#45;&gt;Node12</title>
<g id="a_edge11_Node000003_Node000012"><a xlink:title=" ">
<path fill="none" stroke="#63b8ff" d="M495.04,-688.93C475.5,-659.62 432.86,-601.89 382,-571 375.95,-567.33 369.34,-564.21 362.53,-561.56"/>
<polygon fill="#63b8ff" stroke="#63b8ff" points="492.16,-690.92 500.56,-697.38 498.02,-687.09 492.16,-690.92"/>
</a>
</g>
</g>
<!-- Node13 -->
<g id="Node000013" class="node">
<title>Node13</title>
<g id="a_Node000013"><a xlink:href="../../d0/d0d/structfl_1_1_u_i_number_field_1_1_listener_a57bfa00c12234d1d160dbd2a6d678394.html#a57bfa00c12234d1d160dbd2a6d678394" target="_top" xlink:title=" ">
<polygon fill="white" stroke="#666666" points="382,-984 201,-984 201,-954 382,-954 382,-984"/>
<text text-anchor="start" x="209" y="-972" font-family="Helvetica,sans-Serif" font-size="10.00">fl::UINumberField::</text>
<text text-anchor="middle" x="291.5" y="-961" font-family="Helvetica,sans-Serif" font-size="10.00">Listener::addToEngineEventsOnce</text>
</a>
</g>
</g>
<!-- Node3&#45;&gt;Node13 -->
<g id="edge12_Node000003_Node000013" class="edge">
<title>Node3&#45;&gt;Node13</title>
<g id="a_edge12_Node000003_Node000013"><a xlink:title=" ">
<path fill="none" stroke="#63b8ff" d="M421.87,-722.35C420.52,-723.5 419.23,-724.71 418,-726 349.96,-797.42 448.21,-871.88 382,-945 378.98,-948.34 375.54,-951.23 371.83,-953.74"/>
<polygon fill="#63b8ff" stroke="#63b8ff" points="423.96,-725.17 430.18,-716.59 419.97,-719.42 423.96,-725.17"/>
</a>
</g>
</g>
<!-- Node14 -->
<g id="Node000014" class="node">
<title>Node14</title>
<g id="a_Node000014"><a xlink:href="../../da/df8/structfl_1_1_u_i_slider_1_1_listener_a38793a1ec622a954d9fa39e0fe350694.html#a38793a1ec622a954d9fa39e0fe350694" target="_top" xlink:title=" ">
<polygon fill="white" stroke="#666666" points="362.5,-936 220.5,-936 220.5,-906 362.5,-906 362.5,-936"/>
<text text-anchor="start" x="228.5" y="-924" font-family="Helvetica,sans-Serif" font-size="10.00">fl::UISlider::Listener</text>
<text text-anchor="middle" x="291.5" y="-913" font-family="Helvetica,sans-Serif" font-size="10.00">::addToEngineEventsOnce</text>
</a>
</g>
</g>
<!-- Node3&#45;&gt;Node14 -->
<g id="edge13_Node000003_Node000014" class="edge">
<title>Node3&#45;&gt;Node14</title>
<g id="a_edge13_Node000003_Node000014"><a xlink:title=" ">
<path fill="none" stroke="#63b8ff" d="M422.08,-722.33C420.66,-723.48 419.3,-724.7 418,-726 363.19,-781.03 435.4,-840.61 382,-897 376.58,-902.72 369.96,-907.14 362.79,-910.53"/>
<polygon fill="#63b8ff" stroke="#63b8ff" points="424.39,-725 430.78,-716.54 420.51,-719.17 424.39,-725"/>
</a>
</g>
</g>
<!-- Node10 -->
<g id="Node000010" class="node">
<title>Node10</title>
<g id="a_Node000010"><a xlink:href="../../da/d31/structfl_1_1_button_1_1_listener_aa6b36d48225cec1974b6b03b16e91dde.html#aa6b36d48225cec1974b6b03b16e91dde" target="_top" xlink:title=" ">
<polygon fill="white" stroke="#666666" points="135.5,-658 29.5,-658 29.5,-628 135.5,-628 135.5,-658"/>
<text text-anchor="start" x="37.5" y="-646" font-family="Helvetica,sans-Serif" font-size="10.00">fl::Button::Listener</text>
<text text-anchor="middle" x="82.5" y="-635" font-family="Helvetica,sans-Serif" font-size="10.00">::Listener</text>
</a>
</g>
</g>
<!-- Node9&#45;&gt;Node10 -->
<g id="edge9_Node000009_Node000010" class="edge">
<title>Node9&#45;&gt;Node10</title>
<g id="a_edge9_Node000009_Node000010"><a xlink:title=" ">
<path fill="none" stroke="#63b8ff" d="M210.18,-643C185.1,-643 158.11,-643 135.51,-643"/>
<polygon fill="#63b8ff" stroke="#63b8ff" points="210.42,-646.5 220.42,-643 210.42,-639.5 210.42,-646.5"/>
</a>
</g>
</g>
<!-- Node17 -->
<g id="Node000017" class="node">
<title>Node17</title>
<g id="a_Node000017"><a xlink:href="../../dd/dbb/class_c_fast_l_e_d_a83afdd1e2a21f33ac4f8d2610d6e331b.html#a83afdd1e2a21f33ac4f8d2610d6e331b" target="_top" xlink:title="Update all our controllers with the current led colors, using the passed in brightness.">
<polygon fill="white" stroke="#666666" points="129,-401.5 36,-401.5 36,-382.5 129,-382.5 129,-401.5"/>
<text text-anchor="middle" x="82.5" y="-389.5" font-family="Helvetica,sans-Serif" font-size="10.00">CFastLED::show</text>
</a>
</g>
</g>
<!-- Node16&#45;&gt;Node17 -->
<g id="edge16_Node000016_Node000017" class="edge">
<title>Node16&#45;&gt;Node17</title>
<g id="a_edge16_Node000016_Node000017"><a xlink:title=" ">
<path fill="none" stroke="#63b8ff" d="M426.92,-396.06C338.97,-395.02 200.34,-393.38 129.1,-392.54"/>
<polygon fill="#63b8ff" stroke="#63b8ff" points="427.08,-399.56 437.12,-396.18 427.17,-392.56 427.08,-399.56"/>
</a>
</g>
</g>
<!-- Node19 -->
<g id="Node000019" class="node">
<title>Node19</title>
<g id="a_Node000019"><a xlink:href="../../d6/d2c/class_c_l_e_d_controller_af4d07297bf10f59dfec9e613cc7fff71.html#af4d07297bf10f59dfec9e613cc7fff71" target="_top" xlink:title=" ">
<polygon fill="white" stroke="#666666" points="374,-476.5 209,-476.5 209,-457.5 374,-457.5 374,-476.5"/>
<text text-anchor="middle" x="291.5" y="-464.5" font-family="Helvetica,sans-Serif" font-size="10.00">CLEDController::setScreenMap</text>
</a>
</g>
</g>
<!-- Node18&#45;&gt;Node19 -->
<g id="edge18_Node000018_Node000019" class="edge">
<title>Node18&#45;&gt;Node19</title>
<g id="a_edge18_Node000018_Node000019"><a xlink:title=" ">
<path fill="none" stroke="#63b8ff" d="M422.55,-476.72C406.7,-475.54 390.14,-474.3 374.35,-473.12"/>
<polygon fill="#63b8ff" stroke="#63b8ff" points="422.62,-480.24 432.85,-477.49 423.14,-473.26 422.62,-480.24"/>
</a>
</g>
</g>
<!-- Node20 -->
<g id="Node000020" class="node">
<title>Node20</title>
<g id="a_Node000020"><a xlink:href="../../d6/d2c/class_c_l_e_d_controller_a34a490a6be2f618ffe6ed7d60be5590a.html#a34a490a6be2f618ffe6ed7d60be5590a" target="_top" xlink:title=" ">
<polygon fill="white" stroke="#666666" points="374,-513.5 209,-513.5 209,-494.5 374,-494.5 374,-513.5"/>
<text text-anchor="middle" x="291.5" y="-501.5" font-family="Helvetica,sans-Serif" font-size="10.00">CLEDController::setScreenMap</text>
</a>
</g>
</g>
<!-- Node18&#45;&gt;Node20 -->
<g id="edge19_Node000018_Node000020" class="edge">
<title>Node18&#45;&gt;Node20</title>
<g id="a_edge19_Node000018_Node000020"><a xlink:title=" ">
<path fill="none" stroke="#63b8ff" d="M422.55,-491.24C406.7,-492.79 390.14,-494.42 374.35,-495.97"/>
<polygon fill="#63b8ff" stroke="#63b8ff" points="423.24,-494.69 432.85,-490.23 422.56,-487.72 423.24,-494.69"/>
</a>
</g>
</g>
<!-- Node21 -->
<g id="Node000021" class="node">
<title>Node21</title>
<g id="a_Node000021"><a xlink:href="../../d6/d2c/class_c_l_e_d_controller_ad06833b1f048a6e63f36ba0256b4e6bd.html#ad06833b1f048a6e63f36ba0256b4e6bd" target="_top" xlink:title=" ">
<polygon fill="white" stroke="#666666" points="165,-513.5 0,-513.5 0,-494.5 165,-494.5 165,-513.5"/>
<text text-anchor="middle" x="82.5" y="-501.5" font-family="Helvetica,sans-Serif" font-size="10.00">CLEDController::setScreenMap</text>
</a>
</g>
</g>
<!-- Node20&#45;&gt;Node21 -->
<g id="edge20_Node000020_Node000021" class="edge">
<title>Node20&#45;&gt;Node21</title>
<g id="a_edge20_Node000020_Node000021"><a xlink:title=" ">
<path fill="none" stroke="#63b8ff" d="M198.8,-504C187.64,-504 176.29,-504 165.28,-504"/>
<polygon fill="#63b8ff" stroke="#63b8ff" points="198.99,-507.5 208.99,-504 198.99,-500.5 198.99,-507.5"/>
</a>
</g>
</g>
<!-- Node23 -->
<g id="Node000023" class="node">
<title>Node23</title>
<g id="a_Node000023"><a xlink:href="../../dd/dbb/class_c_fast_l_e_d_a0f2e873e64e881bd843e188d92cd8caa.html#a0f2e873e64e881bd843e188d92cd8caa" target="_top" xlink:title=" ">
<polygon fill="white" stroke="#666666" points="355.5,-439.5 227.5,-439.5 227.5,-420.5 355.5,-420.5 355.5,-439.5"/>
<text text-anchor="middle" x="291.5" y="-427.5" font-family="Helvetica,sans-Serif" font-size="10.00">CFastLED::onEndFrame</text>
</a>
</g>
</g>
<!-- Node22&#45;&gt;Node23 -->
<g id="edge22_Node000022_Node000023" class="edge">
<title>Node22&#45;&gt;Node23</title>
<g id="a_edge22_Node000022_Node000023"><a xlink:title=" ">
<path fill="none" stroke="#63b8ff" d="M416.79,-435.81C396.2,-434.85 374.73,-433.84 355.54,-432.95"/>
<polygon fill="#63b8ff" stroke="#63b8ff" points="416.66,-439.31 426.81,-436.28 416.99,-432.31 416.66,-439.31"/>
</a>
</g>
</g>
<!-- Node23&#45;&gt;Node17 -->
<g id="edge23_Node000023_Node000017" class="edge">
<title>Node23&#45;&gt;Node17</title>
<g id="a_edge23_Node000023_Node000017"><a xlink:title=" ">
<path fill="none" stroke="#63b8ff" d="M228.41,-418.6C196.51,-412.75 158.31,-405.73 129.15,-400.38"/>
<polygon fill="#63b8ff" stroke="#63b8ff" points="228.06,-422.1 238.53,-420.46 229.33,-415.21 228.06,-422.1"/>
</a>
</g>
</g>
<!-- Node24 -->
<g id="Node000024" class="node">
<title>Node24</title>
<g id="a_Node000024"><a xlink:href="../../dd/dbb/class_c_fast_l_e_d_a7315b060d295bad5fbd32e50eaaf02b0.html#a7315b060d295bad5fbd32e50eaaf02b0" target="_top" xlink:title="Set all leds on all controllers to the given color/scale.">
<polygon fill="#fff0f0" stroke="red" points="142,-439.5 23,-439.5 23,-420.5 142,-420.5 142,-439.5"/>
<text text-anchor="middle" x="82.5" y="-427.5" font-family="Helvetica,sans-Serif" font-size="10.00">CFastLED::showColor</text>
</a>
</g>
</g>
<!-- Node23&#45;&gt;Node24 -->
<g id="edge24_Node000023_Node000024" class="edge">
<title>Node23&#45;&gt;Node24</title>
<g id="a_edge24_Node000023_Node000024"><a xlink:title=" ">
<path fill="none" stroke="#63b8ff" d="M217.24,-430C192.61,-430 165.47,-430 142.11,-430"/>
<polygon fill="#63b8ff" stroke="#63b8ff" points="217.27,-433.5 227.27,-430 217.27,-426.5 217.27,-433.5"/>
</a>
</g>
</g>
<!-- Node26&#45;&gt;Node17 -->
<g id="edge26_Node000026_Node000017" class="edge">
<title>Node26&#45;&gt;Node17</title>
<g id="a_edge26_Node000026_Node000017"><a xlink:title=" ">
<path fill="none" stroke="#63b8ff" d="M407.83,-362.86C319.95,-370.76 195.31,-381.96 129.05,-387.91"/>
<polygon fill="#63b8ff" stroke="#63b8ff" points="408.18,-366.35 417.83,-361.97 407.55,-359.37 408.18,-366.35"/>
</a>
</g>
</g>
<!-- Node29 -->
<g id="Node000029" class="node">
<title>Node29</title>
<g id="a_Node000029"><a xlink:href="../../dd/dbb/class_c_fast_l_e_d_afd7928d822589740af6e23b2d510cf3f.html#afd7928d822589740af6e23b2d510cf3f" target="_top" xlink:title="Add a CLEDController instance to the world.">
<polygon fill="white" stroke="#666666" points="345.5,-297.5 237.5,-297.5 237.5,-278.5 345.5,-278.5 345.5,-297.5"/>
<text text-anchor="middle" x="291.5" y="-285.5" font-family="Helvetica,sans-Serif" font-size="10.00">CFastLED::addLeds</text>
</a>
</g>
</g>
<!-- Node28&#45;&gt;Node29 -->
<g id="edge29_Node000028_Node000029" class="edge">
<title>Node28&#45;&gt;Node29</title>
<g id="a_edge29_Node000028_Node000029"><a xlink:title=" ">
<path fill="none" stroke="#63b8ff" d="M429.85,-271.95C402,-275.21 371.15,-278.81 345.76,-281.78"/>
<polygon fill="#63b8ff" stroke="#63b8ff" points="430.44,-275.41 439.96,-270.77 429.62,-268.46 430.44,-275.41"/>
</a>
</g>
</g>
<!-- Node30 -->
<g id="Node000030" class="node">
<title>Node30</title>
<g id="a_Node000030"><a xlink:href="../../dd/dbb/class_c_fast_l_e_d_a05c9e698c7908b6c4335c74804ee117a.html#a05c9e698c7908b6c4335c74804ee117a" target="_top" xlink:title=" ">
<polygon fill="white" stroke="#666666" points="164,-303 1,-303 1,-273 164,-273 164,-303"/>
<text text-anchor="start" x="9" y="-291" font-family="Helvetica,sans-Serif" font-size="10.00">CFastLED::_FL_MAP_CLOCKED</text>
<text text-anchor="middle" x="82.5" y="-280" font-family="Helvetica,sans-Serif" font-size="10.00">_CHIPSET</text>
</a>
</g>
</g>
<!-- Node29&#45;&gt;Node30 -->
<g id="edge30_Node000029_Node000030" class="edge">
<title>Node29&#45;&gt;Node30</title>
<g id="a_edge30_Node000029_Node000030"><a xlink:title=" ">
<path fill="none" stroke="#63b8ff" d="M227.29,-288C207.38,-288 185.12,-288 164.17,-288"/>
<polygon fill="#63b8ff" stroke="#63b8ff" points="227.46,-291.5 237.46,-288 227.46,-284.5 227.46,-291.5"/>
</a>
</g>
</g>
<!-- Node31 -->
<g id="Node000031" class="node">
<title>Node31</title>
<g id="a_Node000031"><a xlink:href="../../dd/dbb/class_c_fast_l_e_d_aeffbd36cb0acc8be314b72d6b2272ce3.html#aeffbd36cb0acc8be314b72d6b2272ce3" target="_top" xlink:title=" ">
<polygon fill="white" stroke="#666666" points="136.5,-254.5 28.5,-254.5 28.5,-235.5 136.5,-235.5 136.5,-254.5"/>
<text text-anchor="middle" x="82.5" y="-242.5" font-family="Helvetica,sans-Serif" font-size="10.00">CFastLED::addLeds</text>
</a>
</g>
</g>
<!-- Node29&#45;&gt;Node31 -->
<g id="edge31_Node000029_Node000031" class="edge">
<title>Node29&#45;&gt;Node31</title>
<g id="a_edge31_Node000029_Node000031"><a xlink:title=" ">
<path fill="none" stroke="#63b8ff" d="M234.61,-276.39C201.61,-269.54 160.37,-260.97 129.31,-254.52"/>
<polygon fill="#63b8ff" stroke="#63b8ff" points="234.06,-279.85 244.56,-278.46 235.48,-273 234.06,-279.85"/>
</a>
</g>
</g>
<!-- Node32 -->
<g id="Node000032" class="node">
<title>Node32</title>
<g id="a_Node000032"><a xlink:href="../../dd/dbb/class_c_fast_l_e_d_a6c5edd63655c225b62ae35897c6e6602.html#a6c5edd63655c225b62ae35897c6e6602" target="_top" xlink:title="Add an SPI based CLEDController instance to the world.">
<polygon fill="white" stroke="#666666" points="136.5,-340.5 28.5,-340.5 28.5,-321.5 136.5,-321.5 136.5,-340.5"/>
<text text-anchor="middle" x="82.5" y="-328.5" font-family="Helvetica,sans-Serif" font-size="10.00">CFastLED::addLeds</text>
</a>
</g>
</g>
<!-- Node29&#45;&gt;Node32 -->
<g id="edge32_Node000029_Node000032" class="edge">
<title>Node29&#45;&gt;Node32</title>
<g id="a_edge32_Node000029_Node000032"><a xlink:title=" ">
<path fill="none" stroke="#63b8ff" d="M234.61,-299.61C201.61,-306.46 160.37,-315.03 129.31,-321.48"/>
<polygon fill="#63b8ff" stroke="#63b8ff" points="235.48,-303 244.56,-297.54 234.06,-296.15 235.48,-303"/>
</a>
</g>
</g>
<!-- Node34 -->
<g id="Node000034" class="node">
<title>Node34</title>
<g id="a_Node000034"><a xlink:href="../../da/d31/structfl_1_1_button_1_1_listener_a2e01315c8989a41d63291fbda44fbdd0.html#a2e01315c8989a41d63291fbda44fbdd0" target="_top" xlink:title=" ">
<polygon fill="white" stroke="#666666" points="344.5,-78 238.5,-78 238.5,-48 344.5,-48 344.5,-78"/>
<text text-anchor="start" x="246.5" y="-66" font-family="Helvetica,sans-Serif" font-size="10.00">fl::Button::Listener</text>
<text text-anchor="middle" x="291.5" y="-55" font-family="Helvetica,sans-Serif" font-size="10.00">::~Listener</text>
</a>
</g>
</g>
<!-- Node33&#45;&gt;Node34 -->
<g id="edge34_Node000033_Node000034" class="edge">
<title>Node33&#45;&gt;Node34</title>
<g id="a_edge34_Node000033_Node000034"><a xlink:title=" ">
<path fill="none" stroke="#63b8ff" d="M471.09,-128.99C446.63,-115.76 413.04,-98.75 382,-87 370.11,-82.5 357.04,-78.49 344.65,-75.1"/>
<polygon fill="#63b8ff" stroke="#63b8ff" points="469.54,-132.13 480,-133.85 472.9,-125.99 469.54,-132.13"/>
</a>
</g>
</g>
<!-- Node35 -->
<g id="Node000035" class="node">
<title>Node35</title>
<g id="a_Node000035"><a xlink:href="../../d2/d68/structfl_1_1_u_i_button_1_1_listener_acfc40eaa4e2956695a7e6059b8b49a7e.html#acfc40eaa4e2956695a7e6059b8b49a7e" target="_top" xlink:title=" ">
<polygon fill="white" stroke="#666666" points="349.5,-30 233.5,-30 233.5,0 349.5,0 349.5,-30"/>
<text text-anchor="start" x="241.5" y="-18" font-family="Helvetica,sans-Serif" font-size="10.00">fl::UIButton::Listener</text>
<text text-anchor="middle" x="291.5" y="-7" font-family="Helvetica,sans-Serif" font-size="10.00">::~Listener</text>
</a>
</g>
</g>
<!-- Node33&#45;&gt;Node35 -->
<g id="edge35_Node000033_Node000035" class="edge">
<title>Node33&#45;&gt;Node35</title>
<g id="a_edge35_Node000033_Node000035"><a xlink:title=" ">
<path fill="none" stroke="#63b8ff" d="M486.81,-126.19C464.02,-101.19 424.19,-61.66 382,-39 372.08,-33.67 360.89,-29.46 349.87,-26.16"/>
<polygon fill="#63b8ff" stroke="#63b8ff" points="484.31,-128.64 493.59,-133.75 489.52,-123.97 484.31,-128.64"/>
</a>
</g>
</g>
<!-- Node36 -->
<g id="Node000036" class="node">
<title>Node36</title>
<g id="a_Node000036"><a xlink:href="../../de/d6f/structfl_1_1_u_i_checkbox_1_1_listener_a42026b4e5798b052f4fee382ff9df726.html#a42026b4e5798b052f4fee382ff9df726" target="_top" xlink:title=" ">
<polygon fill="white" stroke="#666666" points="357.5,-260 225.5,-260 225.5,-230 357.5,-230 357.5,-260"/>
<text text-anchor="start" x="233.5" y="-248" font-family="Helvetica,sans-Serif" font-size="10.00">fl::UICheckbox::Listener</text>
<text text-anchor="middle" x="291.5" y="-237" font-family="Helvetica,sans-Serif" font-size="10.00">::~Listener</text>
</a>
</g>
</g>
<!-- Node33&#45;&gt;Node36 -->
<g id="edge36_Node000033_Node000036" class="edge">
<title>Node33&#45;&gt;Node36</title>
<g id="a_edge36_Node000033_Node000036"><a xlink:title=" ">
<path fill="none" stroke="#63b8ff" d="M475.98,-169.7C451.46,-185.56 415.69,-207.03 382,-221 373.98,-224.33 365.35,-227.32 356.74,-229.97"/>
<polygon fill="#63b8ff" stroke="#63b8ff" points="478.03,-172.54 484.47,-164.13 474.19,-166.69 478.03,-172.54"/>
</a>
</g>
</g>
<!-- Node37 -->
<g id="Node000037" class="node">
<title>Node37</title>
<g id="a_Node000037"><a xlink:href="../../d0/d0d/structfl_1_1_u_i_number_field_1_1_listener_a6b9d65d3204a91e4bb56a14c90d94f74.html#a6b9d65d3204a91e4bb56a14c90d94f74" target="_top" xlink:title=" ">
<polygon fill="white" stroke="#666666" points="346,-212 237,-212 237,-182 346,-182 346,-212"/>
<text text-anchor="start" x="245" y="-200" font-family="Helvetica,sans-Serif" font-size="10.00">fl::UINumberField::</text>
<text text-anchor="middle" x="291.5" y="-189" font-family="Helvetica,sans-Serif" font-size="10.00">Listener::~Listener</text>
</a>
</g>
</g>
<!-- Node33&#45;&gt;Node37 -->
<g id="edge37_Node000033_Node000037" class="edge">
<title>Node33&#45;&gt;Node37</title>
<g id="a_edge37_Node000033_Node000037"><a xlink:title=" ">
<path fill="none" stroke="#63b8ff" d="M429.36,-166.3C401.79,-172.49 371.33,-179.32 346.17,-184.96"/>
<polygon fill="#63b8ff" stroke="#63b8ff" points="430.38,-169.66 439.38,-164.06 428.85,-162.83 430.38,-169.66"/>
</a>
</g>
</g>
<!-- Node38 -->
<g id="Node000038" class="node">
<title>Node38</title>
<g id="a_Node000038"><a xlink:href="../../da/df8/structfl_1_1_u_i_slider_1_1_listener_a8e528d410b1b204d71fb4bf6ecdf6dcd.html#a8e528d410b1b204d71fb4bf6ecdf6dcd" target="_top" xlink:title=" ">
<polygon fill="white" stroke="#666666" points="347.5,-164 235.5,-164 235.5,-134 347.5,-134 347.5,-164"/>
<text text-anchor="start" x="243.5" y="-152" font-family="Helvetica,sans-Serif" font-size="10.00">fl::UISlider::Listener</text>
<text text-anchor="middle" x="291.5" y="-141" font-family="Helvetica,sans-Serif" font-size="10.00">::~Listener</text>
</a>
</g>
</g>
<!-- Node33&#45;&gt;Node38 -->
<g id="edge38_Node000033_Node000038" class="edge">
<title>Node33&#45;&gt;Node38</title>
<g id="a_edge38_Node000033_Node000038"><a xlink:title=" ">
<path fill="none" stroke="#63b8ff" d="M428.4,-149C401.67,-149 372.35,-149 347.81,-149"/>
<polygon fill="#63b8ff" stroke="#63b8ff" points="428.5,-152.5 438.5,-149 428.49,-145.5 428.5,-152.5"/>
</a>
</g>
</g>
<!-- Node39 -->
<g id="Node000039" class="node">
<title>Node39</title>
<g id="a_Node000039"><a xlink:href="../../dd/dbb/class_c_fast_l_e_d_a54515910a8a244f2a9d4617d27a256ee.html#a54515910a8a244f2a9d4617d27a256ee" target="_top" xlink:title=" ">
<polygon fill="white" stroke="#666666" points="363.5,-115.5 219.5,-115.5 219.5,-96.5 363.5,-96.5 363.5,-115.5"/>
<text text-anchor="middle" x="291.5" y="-103.5" font-family="Helvetica,sans-Serif" font-size="10.00">CFastLED::removeListener</text>
</a>
</g>
</g>
<!-- Node33&#45;&gt;Node39 -->
<g id="edge39_Node000033_Node000039" class="edge">
<title>Node33&#45;&gt;Node39</title>
<g id="a_edge39_Node000033_Node000039"><a xlink:title=" ">
<path fill="none" stroke="#63b8ff" d="M428.57,-133.34C398.9,-127.38 366.01,-120.77 340,-115.54"/>
<polygon fill="#63b8ff" stroke="#63b8ff" points="428,-136.8 438.5,-135.34 429.38,-129.93 428,-136.8"/>
</a>
</g>
</g>
</g>
</svg>

<g id="navigator" transform="translate(0 0)" fill="#404254">
  <rect fill="#f2f5e9" fill-opacity="0.5" stroke="#606060" stroke-width=".5" x="0" y="0" width="60" height="60"/>
  <use id="zoomplus" xlink:href="#zoomPlus" x="17" y="9" onmousedown="handleZoom(evt,'in')"/>
  <use id="zoomminus" xlink:href="#zoomMin" x="42" y="9" onmousedown="handleZoom(evt,'out')"/>
  <use id="reset" xlink:href="#resetDef" x="30" y="36" onmousedown="handleReset()"/>
   <use id="arrowup" xlink:href="#arrowUp" x="0" y="0" onmousedown="handlePan(0,-1)"/>
  <use id="arrowright" xlink:href="#arrowRight" x="0" y="0" onmousedown="handlePan(1,0)"/>
  <use id="arrowdown" xlink:href="#arrowDown" x="0" y="0" onmousedown="handlePan(0,1)"/>
  <use id="arrowleft" xlink:href="#arrowLeft" x="0" y="0" onmousedown="handlePan(-1,0)"/>
</g>
<svg viewBox="0 0 15 15" width="100%" height="30px" preserveAspectRatio="xMaxYMin meet">
 <g id="arrow_out" transform="scale(0.3 0.3)">
  <a xlink:href="classfl_1_1_engine_events_a34a4625c4fbcf754f70820bc4f0e418b_a34a4625c4fbcf754f70820bc4f0e418b_icgraph_org.svg" target="_base">
   <rect id="button" ry="5" rx="5" y="6" x="6" height="38" width="38"
        fill="#f2f5e9" fill-opacity="0.5" stroke="#606060" stroke-width="1.0"/>
   <path id="arrow"
     d="M 11.500037,31.436501 C 11.940474,20.09759 22.043105,11.32322 32.158766,21.979434 L 37.068811,17.246167 C 37.068811,17.246167 37.088388,32 37.088388,32 L 22.160133,31.978069 C 22.160133,31.978069 26.997745,27.140456 26.997745,27.140456 C 18.528582,18.264221 13.291696,25.230495 11.500037,31.436501 z"
     style="fill:#404040;"/>
  </a>
 </g>
</svg>

<style type='text/css'>
<![CDATA[
[data-mouse-over-selected='false'] { opacity: 0.7; }
[data-mouse-over-selected='true']  { opacity: 1.0; }
]]>
</style>
<script type="application/ecmascript"><![CDATA[
document.addEventListener('DOMContentLoaded', (event) => {
  highlightEdges();
  highlightAdjacentNodes();
});
]]></script>
</svg>
