<?xml version="1.0" encoding="UTF-8" standalone="no"?>
<!DOCTYPE svg PUBLIC "-//W3C//DTD SVG 1.1//EN"
 "http://www.w3.org/Graphics/SVG/1.1/DTD/svg11.dtd">
<!-- Generated by graphviz version 2.43.0 (0)
 -->
<!-- Title: fl::EngineEvents::EngineEvents Pages: 1 -->
<!--zoomable 883 -->

<svg id="main" version="1.1" xmlns="http://www.w3.org/2000/svg" xmlns:xlink="http://www.w3.org/1999/xlink" xml:space="preserve" onload="init(evt)">

<style type="text/css"><![CDATA[
.node, .edge {opacity: 0.7;}
.node.selected, .edge.selected {opacity: 1;}
.edge:hover path { stroke: red; }
.edge:hover polygon { stroke: red; fill: red; }
]]></style>

<defs>
  <circle id="rim" cx="0" cy="0" r="7"/>
  <circle id="rim2" cx="0" cy="0" r="3.5"/>
  <g id="zoomPlus">
    <use xlink:href="#rim" fill="#404040"><set attributeName="fill" to="#808080" begin="zoomplus.mouseover" end="zoomplus.mouseout"/></use>
    <path d="M-4,0h8M0,-4v8" fill="none" stroke="white" stroke-width="1.5" pointer-events="none"/>
  </g>
  <g id="zoomMin">
    <use xlink:href="#rim" fill="#404040"><set attributeName="fill" to="#808080" begin="zoomminus.mouseover" end="zoomminus.mouseout"/></use>
    <path d="M-4,0h8" fill="none" stroke="white" stroke-width="1.5" pointer-events="none"/>
  </g>
  <g id="arrowUp" transform="translate(30 24)">
    <use xlink:href="#rim"/>
    <path pointer-events="none" fill="none" stroke="white" stroke-width="1.5" d="M0,-3.0v7 M-2.5,-0.5L0,-3.0L2.5,-0.5"/>
  </g>
  <g id="arrowRight" transform="rotate(90) translate(36 -43)">
    <use xlink:href="#rim"/>
    <path pointer-events="none" fill="none" stroke="white" stroke-width="1.5" d="M0,-3.0v7 M-2.5,-0.5L0,-3.0L2.5,-0.5"/>
  </g>
  <g id="arrowDown" transform="rotate(180) translate(-30 -48)">
    <use xlink:href="#rim"/>
    <path pointer-events="none" fill="none" stroke="white" stroke-width="1.5" d="M0,-3.0v7 M-2.5,-0.5L0,-3.0L2.5,-0.5"/>
  </g>
  <g id="arrowLeft" transform="rotate(270) translate(-36 17)">
    <use xlink:href="#rim"/>
    <path pointer-events="none" fill="none" stroke="white" stroke-width="1.5" d="M0,-3.0v7 M-2.5,-0.5L0,-3.0L2.5,-0.5"/>
  </g>
  <g id="resetDef">
    <use xlink:href="#rim2" fill="#404040"><set attributeName="fill" to="#808080" begin="reset.mouseover" end="reset.mouseout"/></use>
  </g>
</defs>
<script type="application/ecmascript">
var viewWidth = 897;
var viewHeight = 883;
var sectionId = 'dynsection-0';
</script>
<script type="application/ecmascript" xlink:href="../../svg.min.js"/>
<svg id="graph" class="graph">
<g id="viewport">
<title>fl::EngineEvents::EngineEvents</title>
<!-- Node1 -->
<g id="Node000001" class="node">
<title>Node1</title>
<g id="a_Node000001"><a xlink:title=" ">
<polygon fill="#999999" stroke="#666666" points="889,-529.5 755,-529.5 755,-499.5 889,-499.5 889,-529.5"/>
<text text-anchor="start" x="763" y="-517.5" font-family="Helvetica,sans-Serif" font-size="10.00">fl::EngineEvents::Engine</text>
<text text-anchor="middle" x="822" y="-506.5" font-family="Helvetica,sans-Serif" font-size="10.00">Events</text>
</a>
</g>
</g>
<!-- Node2 -->
<g id="Node000002" class="node">
<title>Node2</title>
<g id="a_Node000002"><a xlink:href="../../db/da2/classfl_1_1_engine_events_1_1_listener_a02910c2cce73f7d39e39a6db29bb9ba4.html#a02910c2cce73f7d39e39a6db29bb9ba4" target="_top" xlink:title=" ">
<polygon fill="white" stroke="#666666" points="505.5,-663.5 365.5,-663.5 365.5,-633.5 505.5,-633.5 505.5,-663.5"/>
<text text-anchor="start" x="373.5" y="-651.5" font-family="Helvetica,sans-Serif" font-size="10.00">fl::EngineEvents::Listener</text>
<text text-anchor="middle" x="435.5" y="-640.5" font-family="Helvetica,sans-Serif" font-size="10.00">::~Listener</text>
</a>
</g>
</g>
<!-- Node1&#45;&gt;Node2 -->
<g id="edge1_Node000001_Node000002" class="edge">
<title>Node1&#45;&gt;Node2</title>
<g id="a_edge1_Node000001_Node000002"><a xlink:title=" ">
<path fill="none" stroke="#63b8ff" d="M773.92,-533.51C715.91,-556.58 614.08,-595.94 525,-624.5 515.45,-627.56 505.24,-630.57 495.27,-633.37"/>
<polygon fill="#63b8ff" stroke="#63b8ff" points="775.54,-536.63 783.54,-529.68 772.95,-530.13 775.54,-536.63"/>
</a>
</g>
</g>
<!-- Node3 -->
<g id="Node000003" class="node">
<title>Node3</title>
<g id="a_Node000003"><a xlink:href="../../de/dca/classfl_1_1_engine_events_a21f29ee6fabf9e3c42a6b133e3bf4327.html#a21f29ee6fabf9e3c42a6b133e3bf4327" target="_top" xlink:title=" ">
<polygon fill="white" stroke="#666666" points="713,-529.5 567,-529.5 567,-499.5 713,-499.5 713,-529.5"/>
<text text-anchor="start" x="575" y="-517.5" font-family="Helvetica,sans-Serif" font-size="10.00">fl::EngineEvents::Singleton</text>
<text text-anchor="middle" x="640" y="-506.5" font-family="Helvetica,sans-Serif" font-size="10.00">&lt; EngineEvents &gt;</text>
</a>
</g>
</g>
<!-- Node1&#45;&gt;Node3 -->
<g id="edge2_Node000001_Node000003" class="edge">
<title>Node1&#45;&gt;Node3</title>
<g id="a_edge2_Node000001_Node000003"><a xlink:title=" ">
<path fill="none" stroke="#63b8ff" d="M744.96,-514.5C734.39,-514.5 723.56,-514.5 713.06,-514.5"/>
<polygon fill="#63b8ff" stroke="#63b8ff" points="745,-518 755,-514.5 745,-511 745,-518"/>
</a>
</g>
</g>
<!-- Node4 -->
<g id="Node000004" class="node">
<title>Node4</title>
<g id="a_Node000004"><a xlink:href="../../de/dca/classfl_1_1_engine_events_a34a4625c4fbcf754f70820bc4f0e418b.html#a34a4625c4fbcf754f70820bc4f0e418b" target="_top" xlink:title=" ">
<polygon fill="white" stroke="#666666" points="719,-409 561,-409 561,-390 719,-390 719,-409"/>
<text text-anchor="middle" x="640" y="-397" font-family="Helvetica,sans-Serif" font-size="10.00">fl::EngineEvents::getInstance</text>
</a>
</g>
</g>
<!-- Node1&#45;&gt;Node4 -->
<g id="edge3_Node000001_Node000004" class="edge">
<title>Node1&#45;&gt;Node4</title>
<g id="a_edge3_Node000001_Node000004"><a xlink:title=" ">
<path fill="none" stroke="#63b8ff" d="M788.56,-493.78C749.4,-468.75 685.18,-427.72 656.12,-409.16"/>
<polygon fill="#63b8ff" stroke="#63b8ff" points="787.16,-497.03 797.47,-499.47 790.93,-491.13 787.16,-497.03"/>
</a>
</g>
</g>
<!-- Node4&#45;&gt;Node2 -->
<g id="edge4_Node000004_Node000002" class="edge">
<title>Node4&#45;&gt;Node2</title>
<g id="a_edge4_Node000004_Node000002"><a xlink:title=" ">
<path fill="none" stroke="#63b8ff" d="M620.73,-416.01C602.98,-433.02 576.49,-461.14 561,-490.5 532.22,-545.04 568.55,-580.84 525,-624.5 519.49,-630.02 512.85,-634.31 505.71,-637.63"/>
<polygon fill="#63b8ff" stroke="#63b8ff" points="623.3,-418.4 628.2,-409.01 618.51,-413.29 623.3,-418.4"/>
</a>
</g>
</g>
<!-- Node5 -->
<g id="Node000005" class="node">
<title>Node5</title>
<g id="a_Node000005"><a xlink:href="../../de/dca/classfl_1_1_engine_events_a0ec4bb952e2d965c309f69af153ce8d3.html#a0ec4bb952e2d965c309f69af153ce8d3" target="_top" xlink:title=" ">
<polygon fill="white" stroke="#666666" points="514.5,-615 356.5,-615 356.5,-596 514.5,-596 514.5,-615"/>
<text text-anchor="middle" x="435.5" y="-603" font-family="Helvetica,sans-Serif" font-size="10.00">fl::EngineEvents::addListener</text>
</a>
</g>
</g>
<!-- Node4&#45;&gt;Node5 -->
<g id="edge5_Node000004_Node000005" class="edge">
<title>Node4&#45;&gt;Node5</title>
<g id="a_edge5_Node000004_Node000005"><a xlink:title=" ">
<path fill="none" stroke="#63b8ff" d="M622.48,-416.3C581.93,-457.56 478.41,-562.86 446.21,-595.62"/>
<polygon fill="#63b8ff" stroke="#63b8ff" points="624.99,-418.74 629.5,-409.16 620,-413.84 624.99,-418.74"/>
</a>
</g>
</g>
<!-- Node15 -->
<g id="Node000015" class="node">
<title>Node15</title>
<g id="a_Node000015"><a xlink:href="../../de/dca/classfl_1_1_engine_events_a9277949e9a6953aeae1ba54218d9f638.html#a9277949e9a6953aeae1ba54218d9f638" target="_top" xlink:title=" ">
<polygon fill="white" stroke="#666666" points="514,-500 357,-500 357,-481 514,-481 514,-500"/>
<text text-anchor="middle" x="435.5" y="-488" font-family="Helvetica,sans-Serif" font-size="10.00">fl::EngineEvents::hasListener</text>
</a>
</g>
</g>
<!-- Node4&#45;&gt;Node15 -->
<g id="edge15_Node000004_Node000015" class="edge">
<title>Node4&#45;&gt;Node15</title>
<g id="a_edge15_Node000004_Node000015"><a xlink:title=" ">
<path fill="none" stroke="#63b8ff" d="M618.98,-415.25C597.1,-431.69 560.43,-457.04 525,-471.5 515.54,-475.36 505.18,-478.48 494.99,-481"/>
<polygon fill="#63b8ff" stroke="#63b8ff" points="621.31,-417.87 627.13,-409.02 617.06,-412.31 621.31,-417.87"/>
</a>
</g>
</g>
<!-- Node16 -->
<g id="Node000016" class="node">
<title>Node16</title>
<g id="a_Node000016"><a xlink:href="../../de/dca/classfl_1_1_engine_events_a7147debfba714b8ab0925af1a7c935c0.html#a7147debfba714b8ab0925af1a7c935c0" target="_top" xlink:title=" ">
<polygon fill="white" stroke="#666666" points="505.5,-462.5 365.5,-462.5 365.5,-432.5 505.5,-432.5 505.5,-462.5"/>
<text text-anchor="start" x="373.5" y="-450.5" font-family="Helvetica,sans-Serif" font-size="10.00">fl::EngineEvents::onBegin</text>
<text text-anchor="middle" x="435.5" y="-439.5" font-family="Helvetica,sans-Serif" font-size="10.00">Frame</text>
</a>
</g>
</g>
<!-- Node4&#45;&gt;Node16 -->
<g id="edge16_Node000004_Node000016" class="edge">
<title>Node4&#45;&gt;Node16</title>
<g id="a_edge16_Node000004_Node000016"><a xlink:title=" ">
<path fill="none" stroke="#63b8ff" d="M588.58,-411.45C561.79,-417.8 528.59,-425.67 500.05,-432.44"/>
<polygon fill="#63b8ff" stroke="#63b8ff" points="589.58,-414.81 598.51,-409.1 587.97,-408 589.58,-414.81"/>
</a>
</g>
</g>
<!-- Node18 -->
<g id="Node000018" class="node">
<title>Node18</title>
<g id="a_Node000018"><a xlink:href="../../de/dca/classfl_1_1_engine_events_aeb85848268614982b022006bd41a2726.html#aeb85848268614982b022006bd41a2726" target="_top" xlink:title=" ">
<polygon fill="white" stroke="#666666" points="510,-414.5 361,-414.5 361,-384.5 510,-384.5 510,-414.5"/>
<text text-anchor="start" x="369" y="-402.5" font-family="Helvetica,sans-Serif" font-size="10.00">fl::EngineEvents::onCanvas</text>
<text text-anchor="middle" x="435.5" y="-391.5" font-family="Helvetica,sans-Serif" font-size="10.00">UiSet</text>
</a>
</g>
</g>
<!-- Node4&#45;&gt;Node18 -->
<g id="edge18_Node000004_Node000018" class="edge">
<title>Node4&#45;&gt;Node18</title>
<g id="a_edge18_Node000004_Node000018"><a xlink:title=" ">
<path fill="none" stroke="#63b8ff" d="M550.72,-399.5C537.18,-399.5 523.32,-399.5 510.14,-399.5"/>
<polygon fill="#63b8ff" stroke="#63b8ff" points="551,-403 561,-399.5 551,-396 551,-403"/>
</a>
</g>
</g>
<!-- Node22 -->
<g id="Node000022" class="node">
<title>Node22</title>
<g id="a_Node000022"><a xlink:href="../../de/dca/classfl_1_1_engine_events_ab7d24c4783214392de84947cd7df5570.html#ab7d24c4783214392de84947cd7df5570" target="_top" xlink:title=" ">
<polygon fill="white" stroke="#666666" points="516,-366 355,-366 355,-347 516,-347 516,-366"/>
<text text-anchor="middle" x="435.5" y="-354" font-family="Helvetica,sans-Serif" font-size="10.00">fl::EngineEvents::onEndFrame</text>
</a>
</g>
</g>
<!-- Node4&#45;&gt;Node22 -->
<g id="edge21_Node000004_Node000022" class="edge">
<title>Node4&#45;&gt;Node22</title>
<g id="a_edge21_Node000004_Node000022"><a xlink:title=" ">
<path fill="none" stroke="#63b8ff" d="M583.9,-387.8C551.7,-380.96 511.57,-372.44 481.32,-366.02"/>
<polygon fill="#63b8ff" stroke="#63b8ff" points="583.55,-391.3 594.06,-389.96 585,-384.46 583.55,-391.3"/>
</a>
</g>
</g>
<!-- Node26 -->
<g id="Node000026" class="node">
<title>Node26</title>
<g id="a_Node000026"><a xlink:href="../../de/dca/classfl_1_1_engine_events_af1bb9a46fdc6694a1b5c87a49c516ae8.html#af1bb9a46fdc6694a1b5c87a49c516ae8" target="_top" xlink:title=" ">
<polygon fill="white" stroke="#666666" points="525,-329 346,-329 346,-310 525,-310 525,-329"/>
<text text-anchor="middle" x="435.5" y="-317" font-family="Helvetica,sans-Serif" font-size="10.00">fl::EngineEvents::onEndShowLeds</text>
</a>
</g>
</g>
<!-- Node4&#45;&gt;Node26 -->
<g id="edge24_Node000004_Node000026" class="edge">
<title>Node4&#45;&gt;Node26</title>
<g id="a_edge24_Node000004_Node000026"><a xlink:title=" ">
<path fill="none" stroke="#63b8ff" d="M615.65,-384.48C593.22,-370.68 557.97,-350.59 525,-338.5 514.67,-334.71 503.38,-331.58 492.41,-329.02"/>
<polygon fill="#63b8ff" stroke="#63b8ff" points="613.81,-387.46 624.15,-389.79 617.52,-381.53 613.81,-387.46"/>
</a>
</g>
</g>
<!-- Node27 -->
<g id="Node000027" class="node">
<title>Node27</title>
<g id="a_Node000027"><a xlink:href="../../de/dca/classfl_1_1_engine_events_ad1c574b09857b0ebe90798cc83223b17.html#ad1c574b09857b0ebe90798cc83223b17" target="_top" xlink:title=" ">
<polygon fill="white" stroke="#666666" points="513,-291.5 358,-291.5 358,-261.5 513,-261.5 513,-291.5"/>
<text text-anchor="start" x="366" y="-279.5" font-family="Helvetica,sans-Serif" font-size="10.00">fl::EngineEvents::onPlatform</text>
<text text-anchor="middle" x="435.5" y="-268.5" font-family="Helvetica,sans-Serif" font-size="10.00">PreLoop</text>
</a>
</g>
</g>
<!-- Node4&#45;&gt;Node27 -->
<g id="edge26_Node000004_Node000027" class="edge">
<title>Node4&#45;&gt;Node27</title>
<g id="a_edge26_Node000004_Node000027"><a xlink:title=" ">
<path fill="none" stroke="#63b8ff" d="M623.65,-382.31C603.21,-360.45 564.97,-322.96 525,-301.5 517.83,-297.65 510,-294.34 502.06,-291.51"/>
<polygon fill="#63b8ff" stroke="#63b8ff" points="621.24,-384.86 630.58,-389.86 626.39,-380.13 621.24,-384.86"/>
</a>
</g>
</g>
<!-- Node28 -->
<g id="Node000028" class="node">
<title>Node28</title>
<g id="a_Node000028"><a xlink:href="../../de/dca/classfl_1_1_engine_events_a8ec266f9f7b35b9174d331cb6c338d80.html#a8ec266f9f7b35b9174d331cb6c338d80" target="_top" xlink:title=" ">
<polygon fill="white" stroke="#666666" points="503,-243.5 368,-243.5 368,-213.5 503,-213.5 503,-243.5"/>
<text text-anchor="start" x="376" y="-231.5" font-family="Helvetica,sans-Serif" font-size="10.00">fl::EngineEvents::onStrip</text>
<text text-anchor="middle" x="435.5" y="-220.5" font-family="Helvetica,sans-Serif" font-size="10.00">Added</text>
</a>
</g>
</g>
<!-- Node4&#45;&gt;Node28 -->
<g id="edge27_Node000004_Node000028" class="edge">
<title>Node4&#45;&gt;Node28</title>
<g id="a_edge27_Node000004_Node000028"><a xlink:title=" ">
<path fill="none" stroke="#63b8ff" d="M629.75,-380.87C613.19,-349.46 575.44,-286.12 525,-252.5 518.38,-248.08 510.97,-244.48 503.33,-241.53"/>
<polygon fill="#63b8ff" stroke="#63b8ff" points="626.69,-382.57 634.37,-389.86 632.92,-379.37 626.69,-382.57"/>
</a>
</g>
</g>
<!-- Node32 -->
<g id="Node000032" class="node">
<title>Node32</title>
<g id="a_Node000032"><a xlink:href="../../de/dca/classfl_1_1_engine_events_a34cf730bad7c6b5192b4747676f20881.html#a34cf730bad7c6b5192b4747676f20881" target="_top" xlink:title=" ">
<polygon fill="white" stroke="#666666" points="504.5,-139.5 366.5,-139.5 366.5,-109.5 504.5,-109.5 504.5,-139.5"/>
<text text-anchor="start" x="374.5" y="-127.5" font-family="Helvetica,sans-Serif" font-size="10.00">fl::EngineEvents::remove</text>
<text text-anchor="middle" x="435.5" y="-116.5" font-family="Helvetica,sans-Serif" font-size="10.00">Listener</text>
</a>
</g>
</g>
<!-- Node4&#45;&gt;Node32 -->
<g id="edge29_Node000004_Node000032" class="edge">
<title>Node4&#45;&gt;Node32</title>
<g id="a_edge29_Node000004_Node000032"><a xlink:title=" ">
<path fill="none" stroke="#63b8ff" d="M630.35,-380.53C613.27,-344.2 572.72,-263.22 525,-204.5 504.36,-179.1 475.49,-154.58 456.4,-139.53"/>
<polygon fill="#63b8ff" stroke="#63b8ff" points="627.32,-382.32 634.7,-389.92 633.67,-379.37 627.32,-382.32"/>
</a>
</g>
</g>
<!-- Node6 -->
<g id="Node000006" class="node">
<title>Node6</title>
<g id="a_Node000006"><a xlink:href="../../d2/d68/structfl_1_1_u_i_button_1_1_listener_a3e3b4d88cbf4e14ef0cf73839bb6202f.html#a3e3b4d88cbf4e14ef0cf73839bb6202f" target="_top" xlink:title=" ">
<polygon fill="white" stroke="#666666" points="277.5,-874.5 161.5,-874.5 161.5,-844.5 277.5,-844.5 277.5,-874.5"/>
<text text-anchor="start" x="169.5" y="-862.5" font-family="Helvetica,sans-Serif" font-size="10.00">fl::UIButton::Listener</text>
<text text-anchor="middle" x="219.5" y="-851.5" font-family="Helvetica,sans-Serif" font-size="10.00">::Listener</text>
</a>
</g>
</g>
<!-- Node5&#45;&gt;Node6 -->
<g id="edge6_Node000005_Node000006" class="edge">
<title>Node5&#45;&gt;Node6</title>
<g id="a_edge6_Node000005_Node000006"><a xlink:title=" ">
<path fill="none" stroke="#63b8ff" d="M349.89,-620.86C348.53,-622 347.23,-623.21 346,-624.5 280.18,-693.18 374.07,-765.18 310,-835.5 301.55,-844.78 289.94,-850.63 277.88,-854.28"/>
<polygon fill="#63b8ff" stroke="#63b8ff" points="351.97,-623.68 358.2,-615.11 347.99,-617.92 351.97,-623.68"/>
</a>
</g>
</g>
<!-- Node7 -->
<g id="Node000007" class="node">
<title>Node7</title>
<g id="a_Node000007"><a xlink:href="../../de/d6f/structfl_1_1_u_i_checkbox_1_1_listener_ac95257f0a5ff337a7e660880609689bc.html#ac95257f0a5ff337a7e660880609689bc" target="_top" xlink:title=" ">
<polygon fill="white" stroke="#666666" points="285.5,-826.5 153.5,-826.5 153.5,-796.5 285.5,-796.5 285.5,-826.5"/>
<text text-anchor="start" x="161.5" y="-814.5" font-family="Helvetica,sans-Serif" font-size="10.00">fl::UICheckbox::Listener</text>
<text text-anchor="middle" x="219.5" y="-803.5" font-family="Helvetica,sans-Serif" font-size="10.00">::Listener</text>
</a>
</g>
</g>
<!-- Node5&#45;&gt;Node7 -->
<g id="edge7_Node000005_Node000007" class="edge">
<title>Node5&#45;&gt;Node7</title>
<g id="a_edge7_Node000005_Node000007"><a xlink:title=" ">
<path fill="none" stroke="#63b8ff" d="M350.1,-620.85C348.67,-621.99 347.3,-623.21 346,-624.5 293.39,-676.81 361.28,-733.88 310,-787.5 303.33,-794.48 294.87,-799.5 285.82,-803.1"/>
<polygon fill="#63b8ff" stroke="#63b8ff" points="352.4,-623.52 358.82,-615.09 348.54,-617.68 352.4,-623.52"/>
</a>
</g>
</g>
<!-- Node8 -->
<g id="Node000008" class="node">
<title>Node8</title>
<g id="a_Node000008"><a xlink:href="../../d0/d0d/structfl_1_1_u_i_number_field_1_1_listener_a1ef13c1987d994b9fd9ffa84aaf67131.html#a1ef13c1987d994b9fd9ffa84aaf67131" target="_top" xlink:title=" ">
<polygon fill="white" stroke="#666666" points="273,-778.5 166,-778.5 166,-748.5 273,-748.5 273,-778.5"/>
<text text-anchor="start" x="174" y="-766.5" font-family="Helvetica,sans-Serif" font-size="10.00">fl::UINumberField::</text>
<text text-anchor="middle" x="219.5" y="-755.5" font-family="Helvetica,sans-Serif" font-size="10.00">Listener::Listener</text>
</a>
</g>
</g>
<!-- Node5&#45;&gt;Node8 -->
<g id="edge8_Node000005_Node000008" class="edge">
<title>Node5&#45;&gt;Node8</title>
<g id="a_edge8_Node000005_Node000008"><a xlink:title=" ">
<path fill="none" stroke="#63b8ff" d="M351.36,-620.19C349.49,-621.52 347.7,-622.95 346,-624.5 306.43,-660.59 348.65,-702.42 310,-739.5 300.02,-749.08 286.64,-754.93 273.28,-758.48"/>
<polygon fill="#63b8ff" stroke="#63b8ff" points="353.22,-623.16 360.02,-615.03 349.64,-617.14 353.22,-623.16"/>
</a>
</g>
</g>
<!-- Node9 -->
<g id="Node000009" class="node">
<title>Node9</title>
<g id="a_Node000009"><a xlink:href="../../da/df8/structfl_1_1_u_i_slider_1_1_listener_ac1fae271e401720ded2a853bcaac4b66.html#ac1fae271e401720ded2a853bcaac4b66" target="_top" xlink:title=" ">
<polygon fill="white" stroke="#666666" points="275.5,-730.5 163.5,-730.5 163.5,-700.5 275.5,-700.5 275.5,-730.5"/>
<text text-anchor="start" x="171.5" y="-718.5" font-family="Helvetica,sans-Serif" font-size="10.00">fl::UISlider::Listener</text>
<text text-anchor="middle" x="219.5" y="-707.5" font-family="Helvetica,sans-Serif" font-size="10.00">::Listener</text>
</a>
</g>
</g>
<!-- Node5&#45;&gt;Node9 -->
<g id="edge9_Node000005_Node000009" class="edge">
<title>Node5&#45;&gt;Node9</title>
<g id="a_edge9_Node000005_Node000009"><a xlink:title=" ">
<path fill="none" stroke="#63b8ff" d="M353.88,-619.39C351.13,-620.93 348.49,-622.62 346,-624.5 318.98,-644.81 336.5,-670.51 310,-691.5 300.16,-699.29 288.01,-704.56 275.87,-708.13"/>
<polygon fill="#63b8ff" stroke="#63b8ff" points="355.49,-622.5 362.98,-615 352.45,-616.19 355.49,-622.5"/>
</a>
</g>
</g>
<!-- Node10 -->
<g id="Node000010" class="node">
<title>Node10</title>
<g id="a_Node000010"><a xlink:href="../../dd/dbb/class_c_fast_l_e_d_ac965b166635b9aca0c165a53eb0a474f.html#ac965b166635b9aca0c165a53eb0a474f" target="_top" xlink:title=" ">
<polygon fill="white" stroke="#666666" points="282,-682 157,-682 157,-663 282,-663 282,-682"/>
<text text-anchor="middle" x="219.5" y="-670" font-family="Helvetica,sans-Serif" font-size="10.00">CFastLED::addListener</text>
</a>
</g>
</g>
<!-- Node5&#45;&gt;Node10 -->
<g id="edge10_Node000005_Node000010" class="edge">
<title>Node5&#45;&gt;Node10</title>
<g id="a_edge10_Node000005_Node000010"><a xlink:title=" ">
<path fill="none" stroke="#63b8ff" d="M361.9,-618.14C356.41,-619.98 351.05,-622.09 346,-624.5 327.45,-633.34 328.56,-644.68 310,-653.5 301.39,-657.59 291.9,-660.81 282.42,-663.34"/>
<polygon fill="#63b8ff" stroke="#63b8ff" points="363.32,-621.37 371.87,-615.11 361.28,-614.67 363.32,-621.37"/>
</a>
</g>
</g>
<!-- Node11 -->
<g id="Node000011" class="node">
<title>Node11</title>
<g id="a_Node000011"><a xlink:href="../../d2/d68/structfl_1_1_u_i_button_1_1_listener_a663bf7c3826c1839d80bd533257051a2.html#a663bf7c3826c1839d80bd533257051a2" target="_top" xlink:title=" ">
<polygon fill="white" stroke="#666666" points="290.5,-644.5 148.5,-644.5 148.5,-614.5 290.5,-614.5 290.5,-644.5"/>
<text text-anchor="start" x="156.5" y="-632.5" font-family="Helvetica,sans-Serif" font-size="10.00">fl::UIButton::Listener</text>
<text text-anchor="middle" x="219.5" y="-621.5" font-family="Helvetica,sans-Serif" font-size="10.00">::addToEngineEventsOnce</text>
</a>
</g>
</g>
<!-- Node5&#45;&gt;Node11 -->
<g id="edge11_Node000005_Node000011" class="edge">
<title>Node5&#45;&gt;Node11</title>
<g id="a_edge11_Node000005_Node000011"><a xlink:title=" ">
<path fill="none" stroke="#63b8ff" d="M346.15,-615.41C327.65,-617.48 308.39,-619.64 290.66,-621.63"/>
<polygon fill="#63b8ff" stroke="#63b8ff" points="346.79,-618.86 356.33,-614.27 346,-611.9 346.79,-618.86"/>
</a>
</g>
</g>
<!-- Node12 -->
<g id="Node000012" class="node">
<title>Node12</title>
<g id="a_Node000012"><a xlink:href="../../de/d6f/structfl_1_1_u_i_checkbox_1_1_listener_afb032013d86d8c85f9ed81338431de98.html#afb032013d86d8c85f9ed81338431de98" target="_top" xlink:title=" ">
<polygon fill="white" stroke="#666666" points="290.5,-596.5 148.5,-596.5 148.5,-566.5 290.5,-566.5 290.5,-596.5"/>
<text text-anchor="start" x="156.5" y="-584.5" font-family="Helvetica,sans-Serif" font-size="10.00">fl::UICheckbox::Listener</text>
<text text-anchor="middle" x="219.5" y="-573.5" font-family="Helvetica,sans-Serif" font-size="10.00">::addToEngineEventsOnce</text>
</a>
</g>
</g>
<!-- Node5&#45;&gt;Node12 -->
<g id="edge12_Node000005_Node000012" class="edge">
<title>Node5&#45;&gt;Node12</title>
<g id="a_edge12_Node000005_Node000012"><a xlink:title=" ">
<path fill="none" stroke="#63b8ff" d="M346.15,-595.59C327.65,-593.52 308.39,-591.36 290.66,-589.37"/>
<polygon fill="#63b8ff" stroke="#63b8ff" points="346,-599.1 356.33,-596.73 346.79,-592.14 346,-599.1"/>
</a>
</g>
</g>
<!-- Node13 -->
<g id="Node000013" class="node">
<title>Node13</title>
<g id="a_Node000013"><a xlink:href="../../d0/d0d/structfl_1_1_u_i_number_field_1_1_listener_a57bfa00c12234d1d160dbd2a6d678394.html#a57bfa00c12234d1d160dbd2a6d678394" target="_top" xlink:title=" ">
<polygon fill="white" stroke="#666666" points="310,-548.5 129,-548.5 129,-518.5 310,-518.5 310,-548.5"/>
<text text-anchor="start" x="137" y="-536.5" font-family="Helvetica,sans-Serif" font-size="10.00">fl::UINumberField::</text>
<text text-anchor="middle" x="219.5" y="-525.5" font-family="Helvetica,sans-Serif" font-size="10.00">Listener::addToEngineEventsOnce</text>
</a>
</g>
</g>
<!-- Node5&#45;&gt;Node13 -->
<g id="edge13_Node000005_Node000013" class="edge">
<title>Node5&#45;&gt;Node13</title>
<g id="a_edge13_Node000005_Node000013"><a xlink:title=" ">
<path fill="none" stroke="#63b8ff" d="M402.48,-592.08C377.53,-581.88 341.89,-567.89 310,-557.5 300.36,-554.36 290.05,-551.31 279.98,-548.5"/>
<polygon fill="#63b8ff" stroke="#63b8ff" points="401.24,-595.35 411.81,-595.92 403.9,-588.88 401.24,-595.35"/>
</a>
</g>
</g>
<!-- Node14 -->
<g id="Node000014" class="node">
<title>Node14</title>
<g id="a_Node000014"><a xlink:href="../../da/df8/structfl_1_1_u_i_slider_1_1_listener_a38793a1ec622a954d9fa39e0fe350694.html#a38793a1ec622a954d9fa39e0fe350694" target="_top" xlink:title=" ">
<polygon fill="white" stroke="#666666" points="290.5,-500.5 148.5,-500.5 148.5,-470.5 290.5,-470.5 290.5,-500.5"/>
<text text-anchor="start" x="156.5" y="-488.5" font-family="Helvetica,sans-Serif" font-size="10.00">fl::UISlider::Listener</text>
<text text-anchor="middle" x="219.5" y="-477.5" font-family="Helvetica,sans-Serif" font-size="10.00">::addToEngineEventsOnce</text>
</a>
</g>
</g>
<!-- Node5&#45;&gt;Node14 -->
<g id="edge14_Node000005_Node000014" class="edge">
<title>Node5&#45;&gt;Node14</title>
<g id="a_edge14_Node000005_Node000014"><a xlink:title=" ">
<path fill="none" stroke="#63b8ff" d="M417.34,-588.62C394.63,-567.2 352.49,-530.52 310,-509.5 303.08,-506.08 295.61,-503.09 288.03,-500.5"/>
<polygon fill="#63b8ff" stroke="#63b8ff" points="415.15,-591.37 424.79,-595.77 419.99,-586.32 415.15,-591.37"/>
</a>
</g>
</g>
<!-- Node17 -->
<g id="Node000017" class="node">
<title>Node17</title>
<g id="a_Node000017"><a xlink:href="../../dd/dbb/class_c_fast_l_e_d_a83afdd1e2a21f33ac4f8d2610d6e331b.html#a83afdd1e2a21f33ac4f8d2610d6e331b" target="_top" xlink:title="Update all our controllers with the current led colors, using the passed in brightness.">
<polygon fill="white" stroke="#666666" points="93,-340 0,-340 0,-321 93,-321 93,-340"/>
<text text-anchor="middle" x="46.5" y="-328" font-family="Helvetica,sans-Serif" font-size="10.00">CFastLED::show</text>
</a>
</g>
</g>
<!-- Node16&#45;&gt;Node17 -->
<g id="edge17_Node000016_Node000017" class="edge">
<title>Node16&#45;&gt;Node17</title>
<g id="a_edge17_Node000016_Node000017"><a xlink:title=" ">
<path fill="none" stroke="#63b8ff" d="M355.25,-457.11C290.88,-461.31 199.54,-458.87 129,-423.5 91.19,-404.54 63.31,-359.69 52.47,-340.02"/>
<polygon fill="#63b8ff" stroke="#63b8ff" points="355.62,-460.59 365.34,-456.38 355.12,-453.61 355.62,-460.59"/>
</a>
</g>
</g>
<!-- Node19 -->
<g id="Node000019" class="node">
<title>Node19</title>
<g id="a_Node000019"><a xlink:href="../../d6/d2c/class_c_l_e_d_controller_af4d07297bf10f59dfec9e613cc7fff71.html#af4d07297bf10f59dfec9e613cc7fff71" target="_top" xlink:title=" ">
<polygon fill="white" stroke="#666666" points="302,-414 137,-414 137,-395 302,-395 302,-414"/>
<text text-anchor="middle" x="219.5" y="-402" font-family="Helvetica,sans-Serif" font-size="10.00">CLEDController::setScreenMap</text>
</a>
</g>
</g>
<!-- Node18&#45;&gt;Node19 -->
<g id="edge19_Node000018_Node000019" class="edge">
<title>Node18&#45;&gt;Node19</title>
<g id="a_edge19_Node000018_Node000019"><a xlink:title=" ">
<path fill="none" stroke="#63b8ff" d="M350.55,-401.46C334.7,-401.83 318.14,-402.22 302.35,-402.59"/>
<polygon fill="#63b8ff" stroke="#63b8ff" points="350.94,-404.95 360.85,-401.22 350.77,-397.96 350.94,-404.95"/>
</a>
</g>
</g>
<!-- Node20 -->
<g id="Node000020" class="node">
<title>Node20</title>
<g id="a_Node000020"><a xlink:href="../../d6/d2c/class_c_l_e_d_controller_a34a490a6be2f618ffe6ed7d60be5590a.html#a34a490a6be2f618ffe6ed7d60be5590a" target="_top" xlink:title=" ">
<polygon fill="#fff0f0" stroke="red" points="302,-377 137,-377 137,-358 302,-358 302,-377"/>
<text text-anchor="middle" x="219.5" y="-365" font-family="Helvetica,sans-Serif" font-size="10.00">CLEDController::setScreenMap</text>
</a>
</g>
</g>
<!-- Node18&#45;&gt;Node20 -->
<g id="edge20_Node000018_Node000020" class="edge">
<title>Node18&#45;&gt;Node20</title>
<g id="a_edge20_Node000018_Node000020"><a xlink:title=" ">
<path fill="none" stroke="#63b8ff" d="M350.8,-386.98C328.68,-383.68 305.16,-380.16 284.29,-377.04"/>
<polygon fill="#63b8ff" stroke="#63b8ff" points="350.45,-390.47 360.85,-388.49 351.48,-383.55 350.45,-390.47"/>
</a>
</g>
</g>
<!-- Node23 -->
<g id="Node000023" class="node">
<title>Node23</title>
<g id="a_Node000023"><a xlink:href="../../dd/dbb/class_c_fast_l_e_d_a0f2e873e64e881bd843e188d92cd8caa.html#a0f2e873e64e881bd843e188d92cd8caa" target="_top" xlink:title=" ">
<polygon fill="#fff0f0" stroke="red" points="283.5,-340 155.5,-340 155.5,-321 283.5,-321 283.5,-340"/>
<text text-anchor="middle" x="219.5" y="-328" font-family="Helvetica,sans-Serif" font-size="10.00">CFastLED::onEndFrame</text>
</a>
</g>
</g>
<!-- Node22&#45;&gt;Node23 -->
<g id="edge22_Node000022_Node000023" class="edge">
<title>Node22&#45;&gt;Node23</title>
<g id="a_edge22_Node000022_Node000023"><a xlink:title=" ">
<path fill="none" stroke="#63b8ff" d="M345.86,-345.73C324.95,-343.19 303.08,-340.53 283.57,-338.16"/>
<polygon fill="#63b8ff" stroke="#63b8ff" points="345.68,-349.23 356.03,-346.97 346.52,-342.29 345.68,-349.23"/>
</a>
</g>
</g>
<!-- Node23&#45;&gt;Node17 -->
<g id="edge23_Node000023_Node000017" class="edge">
<title>Node23&#45;&gt;Node17</title>
<g id="a_edge23_Node000023_Node000017"><a xlink:title=" ">
<path fill="none" stroke="#63b8ff" d="M145.02,-330.5C127.37,-330.5 109.02,-330.5 93.07,-330.5"/>
<polygon fill="#63b8ff" stroke="#63b8ff" points="145.31,-334 155.31,-330.5 145.31,-327 145.31,-334"/>
</a>
</g>
</g>
<!-- Node26&#45;&gt;Node17 -->
<g id="edge25_Node000026_Node000017" class="edge">
<title>Node26&#45;&gt;Node17</title>
<g id="a_edge25_Node000026_Node000017"><a xlink:title=" ">
<path fill="none" stroke="#63b8ff" d="M335.46,-310.66C275.53,-306.95 197.68,-305.01 129,-312.5 113.73,-314.17 97.13,-317.54 82.93,-320.92"/>
<polygon fill="#63b8ff" stroke="#63b8ff" points="335.47,-314.17 345.67,-311.33 335.92,-307.19 335.47,-314.17"/>
</a>
</g>
</g>
<!-- Node29 -->
<g id="Node000029" class="node">
<title>Node29</title>
<g id="a_Node000029"><a xlink:href="../../dd/dbb/class_c_fast_l_e_d_afd7928d822589740af6e23b2d510cf3f.html#afd7928d822589740af6e23b2d510cf3f" target="_top" xlink:title="Add a CLEDController instance to the world.">
<polygon fill="#fff0f0" stroke="red" points="273.5,-249 165.5,-249 165.5,-230 273.5,-230 273.5,-249"/>
<text text-anchor="middle" x="219.5" y="-237" font-family="Helvetica,sans-Serif" font-size="10.00">CFastLED::addLeds</text>
</a>
</g>
</g>
<!-- Node28&#45;&gt;Node29 -->
<g id="edge28_Node000028_Node000029" class="edge">
<title>Node28&#45;&gt;Node29</title>
<g id="a_edge28_Node000028_Node000029"><a xlink:title=" ">
<path fill="none" stroke="#63b8ff" d="M357.85,-232.44C330,-233.87 299.15,-235.46 273.76,-236.76"/>
<polygon fill="#63b8ff" stroke="#63b8ff" points="358.16,-235.93 367.96,-231.92 357.8,-228.94 358.16,-235.93"/>
</a>
</g>
</g>
<!-- Node33 -->
<g id="Node000033" class="node">
<title>Node33</title>
<g id="a_Node000033"><a xlink:href="../../d2/d68/structfl_1_1_u_i_button_1_1_listener_acfc40eaa4e2956695a7e6059b8b49a7e.html#acfc40eaa4e2956695a7e6059b8b49a7e" target="_top" xlink:title=" ">
<polygon fill="white" stroke="#666666" points="277.5,-211.5 161.5,-211.5 161.5,-181.5 277.5,-181.5 277.5,-211.5"/>
<text text-anchor="start" x="169.5" y="-199.5" font-family="Helvetica,sans-Serif" font-size="10.00">fl::UIButton::Listener</text>
<text text-anchor="middle" x="219.5" y="-188.5" font-family="Helvetica,sans-Serif" font-size="10.00">::~Listener</text>
</a>
</g>
</g>
<!-- Node32&#45;&gt;Node33 -->
<g id="edge30_Node000032_Node000033" class="edge">
<title>Node32&#45;&gt;Node33</title>
<g id="a_edge30_Node000032_Node000033"><a xlink:title=" ">
<path fill="none" stroke="#63b8ff" d="M389.04,-143.36C365.64,-152.73 336.52,-163.86 310,-172.5 299.6,-175.89 288.41,-179.17 277.58,-182.16"/>
<polygon fill="#63b8ff" stroke="#63b8ff" points="390.4,-146.59 398.37,-139.6 387.78,-140.09 390.4,-146.59"/>
</a>
</g>
</g>
<!-- Node34 -->
<g id="Node000034" class="node">
<title>Node34</title>
<g id="a_Node000034"><a xlink:href="../../de/d6f/structfl_1_1_u_i_checkbox_1_1_listener_a42026b4e5798b052f4fee382ff9df726.html#a42026b4e5798b052f4fee382ff9df726" target="_top" xlink:title=" ">
<polygon fill="white" stroke="#666666" points="285.5,-163.5 153.5,-163.5 153.5,-133.5 285.5,-133.5 285.5,-163.5"/>
<text text-anchor="start" x="161.5" y="-151.5" font-family="Helvetica,sans-Serif" font-size="10.00">fl::UICheckbox::Listener</text>
<text text-anchor="middle" x="219.5" y="-140.5" font-family="Helvetica,sans-Serif" font-size="10.00">::~Listener</text>
</a>
</g>
</g>
<!-- Node32&#45;&gt;Node34 -->
<g id="edge31_Node000032_Node000034" class="edge">
<title>Node32&#45;&gt;Node34</title>
<g id="a_edge31_Node000032_Node000034"><a xlink:title=" ">
<path fill="none" stroke="#63b8ff" d="M356.35,-133.26C333.17,-135.86 308.04,-138.68 285.77,-141.18"/>
<polygon fill="#63b8ff" stroke="#63b8ff" points="356.95,-136.72 366.5,-132.13 356.17,-129.76 356.95,-136.72"/>
</a>
</g>
</g>
<!-- Node35 -->
<g id="Node000035" class="node">
<title>Node35</title>
<g id="a_Node000035"><a xlink:href="../../d0/d0d/structfl_1_1_u_i_number_field_1_1_listener_a6b9d65d3204a91e4bb56a14c90d94f74.html#a6b9d65d3204a91e4bb56a14c90d94f74" target="_top" xlink:title=" ">
<polygon fill="white" stroke="#666666" points="274,-115.5 165,-115.5 165,-85.5 274,-85.5 274,-115.5"/>
<text text-anchor="start" x="173" y="-103.5" font-family="Helvetica,sans-Serif" font-size="10.00">fl::UINumberField::</text>
<text text-anchor="middle" x="219.5" y="-92.5" font-family="Helvetica,sans-Serif" font-size="10.00">Listener::~Listener</text>
</a>
</g>
</g>
<!-- Node32&#45;&gt;Node35 -->
<g id="edge32_Node000032_Node000035" class="edge">
<title>Node32&#45;&gt;Node35</title>
<g id="a_edge32_Node000032_Node000035"><a xlink:title=" ">
<path fill="none" stroke="#63b8ff" d="M356.54,-115.76C329.15,-112.69 299.01,-109.31 274.08,-106.51"/>
<polygon fill="#63b8ff" stroke="#63b8ff" points="356.17,-119.24 366.5,-116.87 356.95,-112.28 356.17,-119.24"/>
</a>
</g>
</g>
<!-- Node36 -->
<g id="Node000036" class="node">
<title>Node36</title>
<g id="a_Node000036"><a xlink:href="../../da/df8/structfl_1_1_u_i_slider_1_1_listener_a8e528d410b1b204d71fb4bf6ecdf6dcd.html#a8e528d410b1b204d71fb4bf6ecdf6dcd" target="_top" xlink:title=" ">
<polygon fill="white" stroke="#666666" points="275.5,-67.5 163.5,-67.5 163.5,-37.5 275.5,-37.5 275.5,-67.5"/>
<text text-anchor="start" x="171.5" y="-55.5" font-family="Helvetica,sans-Serif" font-size="10.00">fl::UISlider::Listener</text>
<text text-anchor="middle" x="219.5" y="-44.5" font-family="Helvetica,sans-Serif" font-size="10.00">::~Listener</text>
</a>
</g>
</g>
<!-- Node32&#45;&gt;Node36 -->
<g id="edge33_Node000032_Node000036" class="edge">
<title>Node32&#45;&gt;Node36</title>
<g id="a_edge33_Node000032_Node000036"><a xlink:title=" ">
<path fill="none" stroke="#63b8ff" d="M389.04,-105.64C365.64,-96.27 336.52,-85.14 310,-76.5 298.99,-72.91 287.09,-69.44 275.68,-66.31"/>
<polygon fill="#63b8ff" stroke="#63b8ff" points="387.78,-108.91 398.37,-109.4 390.4,-102.41 387.78,-108.91"/>
</a>
</g>
</g>
<!-- Node37 -->
<g id="Node000037" class="node">
<title>Node37</title>
<g id="a_Node000037"><a xlink:href="../../dd/dbb/class_c_fast_l_e_d_a54515910a8a244f2a9d4617d27a256ee.html#a54515910a8a244f2a9d4617d27a256ee" target="_top" xlink:title=" ">
<polygon fill="white" stroke="#666666" points="291.5,-19 147.5,-19 147.5,0 291.5,0 291.5,-19"/>
<text text-anchor="middle" x="219.5" y="-7" font-family="Helvetica,sans-Serif" font-size="10.00">CFastLED::removeListener</text>
</a>
</g>
</g>
<!-- Node32&#45;&gt;Node37 -->
<g id="edge34_Node000032_Node000037" class="edge">
<title>Node32&#45;&gt;Node37</title>
<g id="a_edge34_Node000032_Node000037"><a xlink:title=" ">
<path fill="none" stroke="#63b8ff" d="M412.19,-102.2C388.76,-80.08 349.84,-46.92 310,-28.5 301.64,-24.63 292.47,-21.54 283.29,-19.08"/>
<polygon fill="#63b8ff" stroke="#63b8ff" points="409.88,-104.83 419.52,-109.23 414.73,-99.78 409.88,-104.83"/>
</a>
</g>
</g>
</g>
</svg>

<g id="navigator" transform="translate(0 0)" fill="#404254">
  <rect fill="#f2f5e9" fill-opacity="0.5" stroke="#606060" stroke-width=".5" x="0" y="0" width="60" height="60"/>
  <use id="zoomplus" xlink:href="#zoomPlus" x="17" y="9" onmousedown="handleZoom(evt,'in')"/>
  <use id="zoomminus" xlink:href="#zoomMin" x="42" y="9" onmousedown="handleZoom(evt,'out')"/>
  <use id="reset" xlink:href="#resetDef" x="30" y="36" onmousedown="handleReset()"/>
   <use id="arrowup" xlink:href="#arrowUp" x="0" y="0" onmousedown="handlePan(0,-1)"/>
  <use id="arrowright" xlink:href="#arrowRight" x="0" y="0" onmousedown="handlePan(1,0)"/>
  <use id="arrowdown" xlink:href="#arrowDown" x="0" y="0" onmousedown="handlePan(0,1)"/>
  <use id="arrowleft" xlink:href="#arrowLeft" x="0" y="0" onmousedown="handlePan(-1,0)"/>
</g>
<svg viewBox="0 0 15 15" width="100%" height="30px" preserveAspectRatio="xMaxYMin meet">
 <g id="arrow_out" transform="scale(0.3 0.3)">
  <a xlink:href="classfl_1_1_engine_events_a0d7527af75982eb6037525e670aa26ec_a0d7527af75982eb6037525e670aa26ec_icgraph_org.svg" target="_base">
   <rect id="button" ry="5" rx="5" y="6" x="6" height="38" width="38"
        fill="#f2f5e9" fill-opacity="0.5" stroke="#606060" stroke-width="1.0"/>
   <path id="arrow"
     d="M 11.500037,31.436501 C 11.940474,20.09759 22.043105,11.32322 32.158766,21.979434 L 37.068811,17.246167 C 37.068811,17.246167 37.088388,32 37.088388,32 L 22.160133,31.978069 C 22.160133,31.978069 26.997745,27.140456 26.997745,27.140456 C 18.528582,18.264221 13.291696,25.230495 11.500037,31.436501 z"
     style="fill:#404040;"/>
  </a>
 </g>
</svg>

<style type='text/css'>
<![CDATA[
[data-mouse-over-selected='false'] { opacity: 0.7; }
[data-mouse-over-selected='true']  { opacity: 1.0; }
]]>
</style>
<script type="application/ecmascript"><![CDATA[
document.addEventListener('DOMContentLoaded', (event) => {
  highlightEdges();
  highlightAdjacentNodes();
});
]]></script>
</svg>
