<?xml version="1.0" encoding="UTF-8" standalone="no"?>
<!DOCTYPE svg PUBLIC "-//W3C//DTD SVG 1.1//EN"
 "http://www.w3.org/Graphics/SVG/1.1/DTD/svg11.dtd">
<!-- Generated by graphviz version 2.43.0 (0)
 -->
<!-- Title: fl::EngineEvents::onBeginFrame Pages: 1 -->
<svg width="512pt" height="106pt"
 viewBox="0.00 0.00 512.00 105.50" xmlns="http://www.w3.org/2000/svg" xmlns:xlink="http://www.w3.org/1999/xlink">
<g id="graph0" class="graph" transform="scale(1 1) rotate(0) translate(4 101.5)">
<title>fl::EngineEvents::onBeginFrame</title>
<!-- Node1 -->
<g id="Node000001" class="node">
<title>Node1</title>
<g id="a_Node000001"><a xlink:title=" ">
<polygon fill="#999999" stroke="#666666" points="140,-75.5 0,-75.5 0,-45.5 140,-45.5 140,-75.5"/>
<text text-anchor="start" x="8" y="-63.5" font-family="Helvetica,sans-Serif" font-size="10.00">fl::EngineEvents::onBegin</text>
<text text-anchor="middle" x="70" y="-52.5" font-family="Helvetica,sans-Serif" font-size="10.00">Frame</text>
</a>
</g>
</g>
<!-- Node2 -->
<g id="Node000002" class="node">
<title>Node2</title>
<g id="a_Node000002"><a xlink:href="../../de/dca/classfl_1_1_engine_events_a9dfab83407c4cb0c15065e242d49de62.html#a9dfab83407c4cb0c15065e242d49de62" target="_top" xlink:title=" ">
<polygon fill="white" stroke="#666666" points="305.5,-97.5 204.5,-97.5 204.5,-67.5 305.5,-67.5 305.5,-97.5"/>
<text text-anchor="start" x="212.5" y="-85.5" font-family="Helvetica,sans-Serif" font-size="10.00">fl::EngineEvents::</text>
<text text-anchor="middle" x="255" y="-74.5" font-family="Helvetica,sans-Serif" font-size="10.00">_onBeginFrame</text>
</a>
</g>
</g>
<!-- Node1&#45;&gt;Node2 -->
<g id="edge1_Node000001_Node000002" class="edge">
<title>Node1&#45;&gt;Node2</title>
<g id="a_edge1_Node000001_Node000002"><a xlink:title=" ">
<path fill="none" stroke="#63b8ff" d="M140.18,-68.82C158.04,-70.96 177.1,-73.25 194.41,-75.34"/>
<polygon fill="#63b8ff" stroke="#63b8ff" points="194.04,-78.82 204.39,-76.54 194.87,-71.87 194.04,-78.82"/>
</a>
</g>
</g>
<!-- Node3 -->
<g id="Node000003" class="node">
<title>Node3</title>
<g id="a_Node000003"><a xlink:href="../../de/dca/classfl_1_1_engine_events_a34a4625c4fbcf754f70820bc4f0e418b.html#a34a4625c4fbcf754f70820bc4f0e418b" target="_top" xlink:title=" ">
<polygon fill="white" stroke="#666666" points="334,-49 176,-49 176,-30 334,-30 334,-49"/>
<text text-anchor="middle" x="255" y="-37" font-family="Helvetica,sans-Serif" font-size="10.00">fl::EngineEvents::getInstance</text>
</a>
</g>
</g>
<!-- Node1&#45;&gt;Node3 -->
<g id="edge2_Node000001_Node000003" class="edge">
<title>Node1&#45;&gt;Node3</title>
<g id="a_edge2_Node000001_Node000003"><a xlink:title=" ">
<path fill="none" stroke="#63b8ff" d="M140.18,-52.56C148.55,-51.6 157.18,-50.61 165.77,-49.62"/>
<polygon fill="#63b8ff" stroke="#63b8ff" points="166.29,-53.09 175.83,-48.47 165.49,-46.13 166.29,-53.09"/>
</a>
</g>
</g>
<!-- Node4 -->
<g id="Node000004" class="node">
<title>Node4</title>
<g id="a_Node000004"><a xlink:href="../../de/dca/classfl_1_1_engine_events_a0d7527af75982eb6037525e670aa26ec.html#a0d7527af75982eb6037525e670aa26ec" target="_top" xlink:title=" ">
<polygon fill="white" stroke="#666666" points="504,-85.5 370,-85.5 370,-55.5 504,-55.5 504,-85.5"/>
<text text-anchor="start" x="378" y="-73.5" font-family="Helvetica,sans-Serif" font-size="10.00">fl::EngineEvents::Engine</text>
<text text-anchor="middle" x="437" y="-62.5" font-family="Helvetica,sans-Serif" font-size="10.00">Events</text>
</a>
</g>
</g>
<!-- Node3&#45;&gt;Node4 -->
<g id="edge3_Node000003_Node000004" class="edge">
<title>Node3&#45;&gt;Node4</title>
<g id="a_edge3_Node000003_Node000004"><a xlink:title=" ">
<path fill="none" stroke="#63b8ff" d="M311.47,-49.05C326.79,-51.69 343.67,-54.6 359.93,-57.4"/>
<polygon fill="#63b8ff" stroke="#63b8ff" points="359.51,-60.88 369.96,-59.13 360.7,-53.98 359.51,-60.88"/>
</a>
</g>
</g>
<!-- Node5 -->
<g id="Node000005" class="node">
<title>Node5</title>
<g id="a_Node000005"><a xlink:href="../../d9/d5b/classfl_1_1_singleton_a7e65fe8dee6b2a23a8b6138fa2c274cb.html#a7e65fe8dee6b2a23a8b6138fa2c274cb" target="_top" xlink:title=" ">
<polygon fill="white" stroke="#666666" points="498,-19 376,-19 376,0 498,0 498,-19"/>
<text text-anchor="middle" x="437" y="-7" font-family="Helvetica,sans-Serif" font-size="10.00">fl::Singleton::instance</text>
</a>
</g>
</g>
<!-- Node3&#45;&gt;Node5 -->
<g id="edge4_Node000003_Node000005" class="edge">
<title>Node3&#45;&gt;Node5</title>
<g id="a_edge4_Node000003_Node000005"><a xlink:title=" ">
<path fill="none" stroke="#63b8ff" d="M313.45,-29.93C331.07,-26.99 350.62,-23.73 368.83,-20.7"/>
<polygon fill="#63b8ff" stroke="#63b8ff" points="369.5,-24.13 378.79,-19.04 368.35,-17.23 369.5,-24.13"/>
</a>
</g>
</g>
<!-- Node5&#45;&gt;Node5 -->
<g id="edge5_Node000005_Node000005" class="edge">
<title>Node5&#45;&gt;Node5</title>
<g id="a_edge5_Node000005_Node000005"><a xlink:title=" ">
<path fill="none" stroke="#63b8ff" d="M408.95,-19.08C395.3,-27.73 404.65,-37 437,-37 459.24,-37 470.61,-32.62 471.11,-27.07"/>
<polygon fill="#63b8ff" stroke="#63b8ff" points="473.88,-24.94 465.05,-19.08 468.3,-29.17 473.88,-24.94"/>
</a>
</g>
</g>
</g>
</svg>
