<?xml version="1.0" encoding="UTF-8" standalone="no"?>
<!DOCTYPE svg PUBLIC "-//W3C//DTD SVG 1.1//EN"
 "http://www.w3.org/Graphics/SVG/1.1/DTD/svg11.dtd">
<!-- Generated by graphviz version 2.43.0 (0)
 -->
<!-- Title: fl::EngineEvents::EngineEvents Pages: 1 -->
<!--zoomable 428 -->

<svg id="main" version="1.1" xmlns="http://www.w3.org/2000/svg" xmlns:xlink="http://www.w3.org/1999/xlink" xml:space="preserve" onload="init(evt)">

<style type="text/css"><![CDATA[
.node, .edge {opacity: 0.7;}
.node.selected, .edge.selected {opacity: 1;}
.edge:hover path { stroke: red; }
.edge:hover polygon { stroke: red; fill: red; }
]]></style>

<defs>
  <circle id="rim" cx="0" cy="0" r="7"/>
  <circle id="rim2" cx="0" cy="0" r="3.5"/>
  <g id="zoomPlus">
    <use xlink:href="#rim" fill="#404040"><set attributeName="fill" to="#808080" begin="zoomplus.mouseover" end="zoomplus.mouseout"/></use>
    <path d="M-4,0h8M0,-4v8" fill="none" stroke="white" stroke-width="1.5" pointer-events="none"/>
  </g>
  <g id="zoomMin">
    <use xlink:href="#rim" fill="#404040"><set attributeName="fill" to="#808080" begin="zoomminus.mouseover" end="zoomminus.mouseout"/></use>
    <path d="M-4,0h8" fill="none" stroke="white" stroke-width="1.5" pointer-events="none"/>
  </g>
  <g id="arrowUp" transform="translate(30 24)">
    <use xlink:href="#rim"/>
    <path pointer-events="none" fill="none" stroke="white" stroke-width="1.5" d="M0,-3.0v7 M-2.5,-0.5L0,-3.0L2.5,-0.5"/>
  </g>
  <g id="arrowRight" transform="rotate(90) translate(36 -43)">
    <use xlink:href="#rim"/>
    <path pointer-events="none" fill="none" stroke="white" stroke-width="1.5" d="M0,-3.0v7 M-2.5,-0.5L0,-3.0L2.5,-0.5"/>
  </g>
  <g id="arrowDown" transform="rotate(180) translate(-30 -48)">
    <use xlink:href="#rim"/>
    <path pointer-events="none" fill="none" stroke="white" stroke-width="1.5" d="M0,-3.0v7 M-2.5,-0.5L0,-3.0L2.5,-0.5"/>
  </g>
  <g id="arrowLeft" transform="rotate(270) translate(-36 17)">
    <use xlink:href="#rim"/>
    <path pointer-events="none" fill="none" stroke="white" stroke-width="1.5" d="M0,-3.0v7 M-2.5,-0.5L0,-3.0L2.5,-0.5"/>
  </g>
  <g id="resetDef">
    <use xlink:href="#rim2" fill="#404040"><set attributeName="fill" to="#808080" begin="reset.mouseover" end="reset.mouseout"/></use>
  </g>
</defs>
<script type="application/ecmascript">
var viewWidth = 752;
var viewHeight = 428;
var sectionId = 'dynsection-1';
</script>
<script type="application/ecmascript" xlink:href="../../svg.min.js"/>
<svg id="graph" class="graph">
<g id="viewport">
<title>fl::EngineEvents::EngineEvents</title>
<!-- Node1 -->
<g id="Node000001" class="node">
<title>Node1</title>
<g id="a_Node000001"><a xlink:title=" ">
<polygon fill="#999999" stroke="#666666" points="744,-273 610,-273 610,-243 744,-243 744,-273"/>
<text text-anchor="start" x="618" y="-261" font-family="Helvetica,sans-Serif" font-size="10.00">fl::EngineEvents::Engine</text>
<text text-anchor="middle" x="677" y="-250" font-family="Helvetica,sans-Serif" font-size="10.00">Events</text>
</a>
</g>
</g>
<!-- Node1&#45;&gt;Node1 -->
<g id="edge1_Node000001_Node000001" class="edge">
<title>Node1&#45;&gt;Node1</title>
<g id="a_edge1_Node000001_Node000001"><a xlink:title=" ">
<path fill="none" stroke="#63b8ff" d="M708.86,-283.6C704.5,-287.97 693.88,-291 677,-291 648.56,-291 637.9,-282.41 645.01,-273.28"/>
<polygon fill="#63b8ff" stroke="#63b8ff" points="712.36,-283.32 708.99,-273.28 705.36,-283.23 712.36,-283.32"/>
</a>
</g>
</g>
<!-- Node2 -->
<g id="Node000002" class="node">
<title>Node2</title>
<g id="a_Node000002"><a xlink:href="../../db/da2/classfl_1_1_engine_events_1_1_listener_a02910c2cce73f7d39e39a6db29bb9ba4.html#a02910c2cce73f7d39e39a6db29bb9ba4" target="_top" xlink:title=" ">
<polygon fill="white" stroke="#666666" points="360.5,-420 220.5,-420 220.5,-390 360.5,-390 360.5,-420"/>
<text text-anchor="start" x="228.5" y="-408" font-family="Helvetica,sans-Serif" font-size="10.00">fl::EngineEvents::Listener</text>
<text text-anchor="middle" x="290.5" y="-397" font-family="Helvetica,sans-Serif" font-size="10.00">::~Listener</text>
</a>
</g>
</g>
<!-- Node1&#45;&gt;Node2 -->
<g id="edge2_Node000001_Node000002" class="edge">
<title>Node1&#45;&gt;Node2</title>
<g id="a_edge2_Node000001_Node000002"><a xlink:title=" ">
<path fill="none" stroke="#63b8ff" d="M634.33,-277.32C577.63,-303.16 472.59,-349.36 380,-381 370.81,-384.14 360.98,-387.15 351.33,-389.91"/>
<polygon fill="#63b8ff" stroke="#63b8ff" points="636.04,-280.39 643.68,-273.05 633.13,-274.03 636.04,-280.39"/>
</a>
</g>
</g>
<!-- Node3 -->
<g id="Node000003" class="node">
<title>Node3</title>
<g id="a_Node000003"><a xlink:href="../../de/dca/classfl_1_1_engine_events_a34a4625c4fbcf754f70820bc4f0e418b.html#a34a4625c4fbcf754f70820bc4f0e418b" target="_top" xlink:title=" ">
<polygon fill="white" stroke="#666666" points="574,-248.5 416,-248.5 416,-229.5 574,-229.5 574,-248.5"/>
<text text-anchor="middle" x="495" y="-236.5" font-family="Helvetica,sans-Serif" font-size="10.00">fl::EngineEvents::getInstance</text>
</a>
</g>
</g>
<!-- Node1&#45;&gt;Node3 -->
<g id="edge3_Node000001_Node000003" class="edge">
<title>Node1&#45;&gt;Node3</title>
<g id="a_edge3_Node000001_Node000003"><a xlink:title=" ">
<path fill="none" stroke="#63b8ff" d="M599.78,-249.95C591.32,-249.06 582.69,-248.15 574.21,-247.26"/>
<polygon fill="#63b8ff" stroke="#63b8ff" points="599.68,-253.46 610,-251.03 600.42,-246.5 599.68,-253.46"/>
</a>
</g>
</g>
<!-- Node3&#45;&gt;Node2 -->
<g id="edge4_Node000003_Node000002" class="edge">
<title>Node3&#45;&gt;Node2</title>
<g id="a_edge4_Node000003_Node000002"><a xlink:title=" ">
<path fill="none" stroke="#63b8ff" d="M477.42,-256.26C461.1,-273.57 435.81,-301.29 416,-327 398.39,-349.85 403.41,-364.15 380,-381 374.19,-385.18 367.68,-388.64 360.91,-391.49"/>
<polygon fill="#63b8ff" stroke="#63b8ff" points="480.3,-258.31 484.65,-248.65 475.22,-253.49 480.3,-258.31"/>
</a>
</g>
</g>
<!-- Node4 -->
<g id="Node000004" class="node">
<title>Node4</title>
<g id="a_Node000004"><a xlink:href="../../de/dca/classfl_1_1_engine_events_a0ec4bb952e2d965c309f69af153ce8d3.html#a0ec4bb952e2d965c309f69af153ce8d3" target="_top" xlink:title=" ">
<polygon fill="white" stroke="#666666" points="369.5,-371.5 211.5,-371.5 211.5,-352.5 369.5,-352.5 369.5,-371.5"/>
<text text-anchor="middle" x="290.5" y="-359.5" font-family="Helvetica,sans-Serif" font-size="10.00">fl::EngineEvents::addListener</text>
</a>
</g>
</g>
<!-- Node3&#45;&gt;Node4 -->
<g id="edge5_Node000003_Node000004" class="edge">
<title>Node3&#45;&gt;Node4</title>
<g id="a_edge5_Node000003_Node000004"><a xlink:title=" ">
<path fill="none" stroke="#63b8ff" d="M480.32,-256.54C460.77,-280.32 422.46,-322.3 380,-344 373.3,-347.43 366,-350.2 358.56,-352.44"/>
<polygon fill="#63b8ff" stroke="#63b8ff" points="483.11,-258.66 486.65,-248.67 477.66,-254.27 483.11,-258.66"/>
</a>
</g>
</g>
<!-- Node6 -->
<g id="Node000006" class="node">
<title>Node6</title>
<g id="a_Node000006"><a xlink:href="../../de/dca/classfl_1_1_engine_events_a9277949e9a6953aeae1ba54218d9f638.html#a9277949e9a6953aeae1ba54218d9f638" target="_top" xlink:title=" ">
<polygon fill="white" stroke="#666666" points="369,-334.5 212,-334.5 212,-315.5 369,-315.5 369,-334.5"/>
<text text-anchor="middle" x="290.5" y="-322.5" font-family="Helvetica,sans-Serif" font-size="10.00">fl::EngineEvents::hasListener</text>
</a>
</g>
</g>
<!-- Node3&#45;&gt;Node6 -->
<g id="edge7_Node000003_Node000006" class="edge">
<title>Node3&#45;&gt;Node6</title>
<g id="a_edge7_Node000003_Node000006"><a xlink:title=" ">
<path fill="none" stroke="#63b8ff" d="M472.72,-254.34C450.58,-269.59 414.41,-292.6 380,-306 370.19,-309.82 359.45,-312.94 348.94,-315.47"/>
<polygon fill="#63b8ff" stroke="#63b8ff" points="474.84,-257.12 481.03,-248.52 470.83,-251.39 474.84,-257.12"/>
</a>
</g>
</g>
<!-- Node7 -->
<g id="Node000007" class="node">
<title>Node7</title>
<g id="a_Node000007"><a xlink:href="../../de/dca/classfl_1_1_engine_events_a7147debfba714b8ab0925af1a7c935c0.html#a7147debfba714b8ab0925af1a7c935c0" target="_top" xlink:title=" ">
<polygon fill="white" stroke="#666666" points="360.5,-297 220.5,-297 220.5,-267 360.5,-267 360.5,-297"/>
<text text-anchor="start" x="228.5" y="-285" font-family="Helvetica,sans-Serif" font-size="10.00">fl::EngineEvents::onBegin</text>
<text text-anchor="middle" x="290.5" y="-274" font-family="Helvetica,sans-Serif" font-size="10.00">Frame</text>
</a>
</g>
</g>
<!-- Node3&#45;&gt;Node7 -->
<g id="edge8_Node000003_Node000007" class="edge">
<title>Node3&#45;&gt;Node7</title>
<g id="a_edge8_Node000003_Node000007"><a xlink:title=" ">
<path fill="none" stroke="#63b8ff" d="M439,-250.68C414.83,-255.81 386.18,-261.89 360.59,-267.33"/>
<polygon fill="#63b8ff" stroke="#63b8ff" points="440,-254.04 449.06,-248.54 438.55,-247.2 440,-254.04"/>
</a>
</g>
</g>
<!-- Node9 -->
<g id="Node000009" class="node">
<title>Node9</title>
<g id="a_Node000009"><a xlink:href="../../de/dca/classfl_1_1_engine_events_aeb85848268614982b022006bd41a2726.html#aeb85848268614982b022006bd41a2726" target="_top" xlink:title=" ">
<polygon fill="white" stroke="#666666" points="365,-174 216,-174 216,-144 365,-144 365,-174"/>
<text text-anchor="start" x="224" y="-162" font-family="Helvetica,sans-Serif" font-size="10.00">fl::EngineEvents::onCanvas</text>
<text text-anchor="middle" x="290.5" y="-151" font-family="Helvetica,sans-Serif" font-size="10.00">UiSet</text>
</a>
</g>
</g>
<!-- Node3&#45;&gt;Node9 -->
<g id="edge10_Node000003_Node000009" class="edge">
<title>Node3&#45;&gt;Node9</title>
<g id="a_edge10_Node000003_Node000009"><a xlink:title=" ">
<path fill="none" stroke="#63b8ff" d="M467.63,-224.65C444.89,-212.67 410.92,-195.73 380,-184 370.59,-180.43 360.46,-177.11 350.52,-174.12"/>
<polygon fill="#63b8ff" stroke="#63b8ff" points="466.18,-227.84 476.65,-229.45 469.46,-221.66 466.18,-227.84"/>
</a>
</g>
</g>
<!-- Node13 -->
<g id="Node000013" class="node">
<title>Node13</title>
<g id="a_Node000013"><a xlink:href="../../de/dca/classfl_1_1_engine_events_ab7d24c4783214392de84947cd7df5570.html#ab7d24c4783214392de84947cd7df5570" target="_top" xlink:title=" ">
<polygon fill="white" stroke="#666666" points="371,-248.5 210,-248.5 210,-229.5 371,-229.5 371,-248.5"/>
<text text-anchor="middle" x="290.5" y="-236.5" font-family="Helvetica,sans-Serif" font-size="10.00">fl::EngineEvents::onEndFrame</text>
</a>
</g>
</g>
<!-- Node3&#45;&gt;Node13 -->
<g id="edge13_Node000003_Node000013" class="edge">
<title>Node3&#45;&gt;Node13</title>
<g id="a_edge13_Node000003_Node000013"><a xlink:title=" ">
<path fill="none" stroke="#63b8ff" d="M405.91,-239C394.35,-239 382.55,-239 371.14,-239"/>
<polygon fill="#63b8ff" stroke="#63b8ff" points="406,-242.5 416,-239 406,-235.5 406,-242.5"/>
</a>
</g>
</g>
<!-- Node14 -->
<g id="Node000014" class="node">
<title>Node14</title>
<g id="a_Node000014"><a xlink:href="../../de/dca/classfl_1_1_engine_events_af1bb9a46fdc6694a1b5c87a49c516ae8.html#af1bb9a46fdc6694a1b5c87a49c516ae8" target="_top" xlink:title=" ">
<polygon fill="white" stroke="#666666" points="380,-211.5 201,-211.5 201,-192.5 380,-192.5 380,-211.5"/>
<text text-anchor="middle" x="290.5" y="-199.5" font-family="Helvetica,sans-Serif" font-size="10.00">fl::EngineEvents::onEndShowLeds</text>
</a>
</g>
</g>
<!-- Node3&#45;&gt;Node14 -->
<g id="edge15_Node000003_Node000014" class="edge">
<title>Node3&#45;&gt;Node14</title>
<g id="a_edge15_Node000003_Node000014"><a xlink:title=" ">
<path fill="none" stroke="#63b8ff" d="M431.71,-227.62C403.56,-222.48 370.67,-216.47 343.82,-211.56"/>
<polygon fill="#63b8ff" stroke="#63b8ff" points="431.38,-231.12 441.85,-229.47 432.64,-224.23 431.38,-231.12"/>
</a>
</g>
</g>
<!-- Node15 -->
<g id="Node000015" class="node">
<title>Node15</title>
<g id="a_Node000015"><a xlink:href="../../de/dca/classfl_1_1_engine_events_ad1c574b09857b0ebe90798cc83223b17.html#ad1c574b09857b0ebe90798cc83223b17" target="_top" xlink:title=" ">
<polygon fill="white" stroke="#666666" points="368,-126 213,-126 213,-96 368,-96 368,-126"/>
<text text-anchor="start" x="221" y="-114" font-family="Helvetica,sans-Serif" font-size="10.00">fl::EngineEvents::onPlatform</text>
<text text-anchor="middle" x="290.5" y="-103" font-family="Helvetica,sans-Serif" font-size="10.00">PreLoop</text>
</a>
</g>
</g>
<!-- Node3&#45;&gt;Node15 -->
<g id="edge17_Node000003_Node000015" class="edge">
<title>Node3&#45;&gt;Node15</title>
<g id="a_edge17_Node000003_Node000015"><a xlink:title=" ">
<path fill="none" stroke="#63b8ff" d="M479.78,-221.66C459.86,-198.5 421.41,-157.74 380,-135 373.72,-131.55 366.91,-128.57 359.96,-126.01"/>
<polygon fill="#63b8ff" stroke="#63b8ff" points="477.13,-223.95 486.26,-229.34 482.48,-219.44 477.13,-223.95"/>
</a>
</g>
</g>
<!-- Node16 -->
<g id="Node000016" class="node">
<title>Node16</title>
<g id="a_Node000016"><a xlink:href="../../de/dca/classfl_1_1_engine_events_a8ec266f9f7b35b9174d331cb6c338d80.html#a8ec266f9f7b35b9174d331cb6c338d80" target="_top" xlink:title=" ">
<polygon fill="white" stroke="#666666" points="358,-78 223,-78 223,-48 358,-48 358,-78"/>
<text text-anchor="start" x="231" y="-66" font-family="Helvetica,sans-Serif" font-size="10.00">fl::EngineEvents::onStrip</text>
<text text-anchor="middle" x="290.5" y="-55" font-family="Helvetica,sans-Serif" font-size="10.00">Added</text>
</a>
</g>
</g>
<!-- Node3&#45;&gt;Node16 -->
<g id="edge18_Node000003_Node000016" class="edge">
<title>Node3&#45;&gt;Node16</title>
<g id="a_edge18_Node000003_Node000016"><a xlink:title=" ">
<path fill="none" stroke="#63b8ff" d="M485.16,-220.2C468.98,-187.88 431.48,-121.92 380,-87 373.41,-82.53 366.02,-78.89 358.39,-75.93"/>
<polygon fill="#63b8ff" stroke="#63b8ff" points="482.13,-221.97 489.65,-229.42 488.42,-218.9 482.13,-221.97"/>
</a>
</g>
</g>
<!-- Node19 -->
<g id="Node000019" class="node">
<title>Node19</title>
<g id="a_Node000019"><a xlink:href="../../de/dca/classfl_1_1_engine_events_a34cf730bad7c6b5192b4747676f20881.html#a34cf730bad7c6b5192b4747676f20881" target="_top" xlink:title=" ">
<polygon fill="white" stroke="#666666" points="359.5,-30 221.5,-30 221.5,0 359.5,0 359.5,-30"/>
<text text-anchor="start" x="229.5" y="-18" font-family="Helvetica,sans-Serif" font-size="10.00">fl::EngineEvents::remove</text>
<text text-anchor="middle" x="290.5" y="-7" font-family="Helvetica,sans-Serif" font-size="10.00">Listener</text>
</a>
</g>
</g>
<!-- Node3&#45;&gt;Node19 -->
<g id="edge20_Node000003_Node000019" class="edge">
<title>Node3&#45;&gt;Node19</title>
<g id="a_edge20_Node000003_Node000019"><a xlink:title=" ">
<path fill="none" stroke="#63b8ff" d="M488.54,-219.67C476.19,-179.6 442.24,-87.18 380,-39 373.96,-34.32 367.07,-30.56 359.87,-27.52"/>
<polygon fill="#63b8ff" stroke="#63b8ff" points="485.19,-220.71 491.39,-229.3 491.9,-218.72 485.19,-220.71"/>
</a>
</g>
</g>
<!-- Node5 -->
<g id="Node000005" class="node">
<title>Node5</title>
<g id="a_Node000005"><a xlink:href="../../dd/dbb/class_c_fast_l_e_d_ac965b166635b9aca0c165a53eb0a474f.html#ac965b166635b9aca0c165a53eb0a474f" target="_top" xlink:title=" ">
<polygon fill="white" stroke="#666666" points="145,-371.5 20,-371.5 20,-352.5 145,-352.5 145,-371.5"/>
<text text-anchor="middle" x="82.5" y="-359.5" font-family="Helvetica,sans-Serif" font-size="10.00">CFastLED::addListener</text>
</a>
</g>
</g>
<!-- Node4&#45;&gt;Node5 -->
<g id="edge6_Node000004_Node000005" class="edge">
<title>Node4&#45;&gt;Node5</title>
<g id="a_edge6_Node000004_Node000005"><a xlink:title=" ">
<path fill="none" stroke="#63b8ff" d="M201.24,-362C182.39,-362 162.87,-362 145.27,-362"/>
<polygon fill="#63b8ff" stroke="#63b8ff" points="201.33,-365.5 211.33,-362 201.33,-358.5 201.33,-365.5"/>
</a>
</g>
</g>
<!-- Node8 -->
<g id="Node000008" class="node">
<title>Node8</title>
<g id="a_Node000008"><a xlink:href="../../dd/dbb/class_c_fast_l_e_d_a83afdd1e2a21f33ac4f8d2610d6e331b.html#a83afdd1e2a21f33ac4f8d2610d6e331b" target="_top" xlink:title="Update all our controllers with the current led colors, using the passed in brightness.">
<polygon fill="white" stroke="#666666" points="129,-248.5 36,-248.5 36,-229.5 129,-229.5 129,-248.5"/>
<text text-anchor="middle" x="82.5" y="-236.5" font-family="Helvetica,sans-Serif" font-size="10.00">CFastLED::show</text>
</a>
</g>
</g>
<!-- Node7&#45;&gt;Node8 -->
<g id="edge9_Node000007_Node000008" class="edge">
<title>Node7&#45;&gt;Node8</title>
<g id="a_edge9_Node000007_Node000008"><a xlink:title=" ">
<path fill="none" stroke="#63b8ff" d="M210.34,-265.48C182.87,-259.74 153.01,-253.51 129.16,-248.53"/>
<polygon fill="#63b8ff" stroke="#63b8ff" points="209.83,-268.94 220.33,-267.56 211.26,-262.09 209.83,-268.94"/>
</a>
</g>
</g>
<!-- Node10 -->
<g id="Node000010" class="node">
<title>Node10</title>
<g id="a_Node000010"><a xlink:href="../../d6/d2c/class_c_l_e_d_controller_af4d07297bf10f59dfec9e613cc7fff71.html#af4d07297bf10f59dfec9e613cc7fff71" target="_top" xlink:title=" ">
<polygon fill="white" stroke="#666666" points="165,-186.5 0,-186.5 0,-167.5 165,-167.5 165,-186.5"/>
<text text-anchor="middle" x="82.5" y="-174.5" font-family="Helvetica,sans-Serif" font-size="10.00">CLEDController::setScreenMap</text>
</a>
</g>
</g>
<!-- Node9&#45;&gt;Node10 -->
<g id="edge11_Node000009_Node000010" class="edge">
<title>Node9&#45;&gt;Node10</title>
<g id="a_edge11_Node000009_Node000010"><a xlink:title=" ">
<path fill="none" stroke="#63b8ff" d="M205.6,-166.33C192.25,-167.5 178.46,-168.7 165.16,-169.86"/>
<polygon fill="#63b8ff" stroke="#63b8ff" points="206.05,-169.8 215.71,-165.45 205.44,-162.83 206.05,-169.8"/>
</a>
</g>
</g>
<!-- Node11 -->
<g id="Node000011" class="node">
<title>Node11</title>
<g id="a_Node000011"><a xlink:href="../../d6/d2c/class_c_l_e_d_controller_a34a490a6be2f618ffe6ed7d60be5590a.html#a34a490a6be2f618ffe6ed7d60be5590a" target="_top" xlink:title=" ">
<polygon fill="#fff0f0" stroke="red" points="165,-149.5 0,-149.5 0,-130.5 165,-130.5 165,-149.5"/>
<text text-anchor="middle" x="82.5" y="-137.5" font-family="Helvetica,sans-Serif" font-size="10.00">CLEDController::setScreenMap</text>
</a>
</g>
</g>
<!-- Node9&#45;&gt;Node11 -->
<g id="edge12_Node000009_Node000011" class="edge">
<title>Node9&#45;&gt;Node11</title>
<g id="a_edge12_Node000009_Node000011"><a xlink:title=" ">
<path fill="none" stroke="#63b8ff" d="M205.6,-151.26C192.25,-150.03 178.46,-148.76 165.16,-147.53"/>
<polygon fill="#63b8ff" stroke="#63b8ff" points="205.43,-154.76 215.71,-152.19 206.07,-147.79 205.43,-154.76"/>
</a>
</g>
</g>
<!-- Node13&#45;&gt;Node8 -->
<g id="edge14_Node000013_Node000008" class="edge">
<title>Node13&#45;&gt;Node8</title>
<g id="a_edge14_Node000013_Node000008"><a xlink:title=" ">
<path fill="none" stroke="#63b8ff" d="M199.53,-239C175.26,-239 150.01,-239 129.29,-239"/>
<polygon fill="#63b8ff" stroke="#63b8ff" points="199.86,-242.5 209.86,-239 199.85,-235.5 199.86,-242.5"/>
</a>
</g>
</g>
<!-- Node14&#45;&gt;Node8 -->
<g id="edge16_Node000014_Node000008" class="edge">
<title>Node14&#45;&gt;Node8</title>
<g id="a_edge16_Node000014_Node000008"><a xlink:title=" ">
<path fill="none" stroke="#63b8ff" d="M226.46,-213.32C195.01,-218.97 157.66,-225.68 129.03,-230.82"/>
<polygon fill="#63b8ff" stroke="#63b8ff" points="227.23,-216.74 236.45,-211.53 225.99,-209.85 227.23,-216.74"/>
</a>
</g>
</g>
<!-- Node17 -->
<g id="Node000017" class="node">
<title>Node17</title>
<g id="a_Node000017"><a xlink:href="../../dd/dbb/class_c_fast_l_e_d_afd7928d822589740af6e23b2d510cf3f.html#afd7928d822589740af6e23b2d510cf3f" target="_top" xlink:title="Add a CLEDController instance to the world.">
<polygon fill="#fff0f0" stroke="red" points="136.5,-72.5 28.5,-72.5 28.5,-53.5 136.5,-53.5 136.5,-72.5"/>
<text text-anchor="middle" x="82.5" y="-60.5" font-family="Helvetica,sans-Serif" font-size="10.00">CFastLED::addLeds</text>
</a>
</g>
</g>
<!-- Node16&#45;&gt;Node17 -->
<g id="edge19_Node000016_Node000017" class="edge">
<title>Node16&#45;&gt;Node17</title>
<g id="a_edge19_Node000016_Node000017"><a xlink:title=" ">
<path fill="none" stroke="#63b8ff" d="M212.58,-63C187.24,-63 159.65,-63 136.5,-63"/>
<polygon fill="#63b8ff" stroke="#63b8ff" points="212.9,-66.5 222.9,-63 212.9,-59.5 212.9,-66.5"/>
</a>
</g>
</g>
<!-- Node20 -->
<g id="Node000020" class="node">
<title>Node20</title>
<g id="a_Node000020"><a xlink:href="../../dd/dbb/class_c_fast_l_e_d_a54515910a8a244f2a9d4617d27a256ee.html#a54515910a8a244f2a9d4617d27a256ee" target="_top" xlink:title=" ">
<polygon fill="white" stroke="#666666" points="154.5,-24.5 10.5,-24.5 10.5,-5.5 154.5,-5.5 154.5,-24.5"/>
<text text-anchor="middle" x="82.5" y="-12.5" font-family="Helvetica,sans-Serif" font-size="10.00">CFastLED::removeListener</text>
</a>
</g>
</g>
<!-- Node19&#45;&gt;Node20 -->
<g id="edge21_Node000019_Node000020" class="edge">
<title>Node19&#45;&gt;Node20</title>
<g id="a_edge21_Node000019_Node000020"><a xlink:title=" ">
<path fill="none" stroke="#63b8ff" d="M211.27,-15C192.66,-15 172.9,-15 154.63,-15"/>
<polygon fill="#63b8ff" stroke="#63b8ff" points="211.48,-18.5 221.48,-15 211.48,-11.5 211.48,-18.5"/>
</a>
</g>
</g>
</g>
</svg>

<g id="navigator" transform="translate(0 0)" fill="#404254">
  <rect fill="#f2f5e9" fill-opacity="0.5" stroke="#606060" stroke-width=".5" x="0" y="0" width="60" height="60"/>
  <use id="zoomplus" xlink:href="#zoomPlus" x="17" y="9" onmousedown="handleZoom(evt,'in')"/>
  <use id="zoomminus" xlink:href="#zoomMin" x="42" y="9" onmousedown="handleZoom(evt,'out')"/>
  <use id="reset" xlink:href="#resetDef" x="30" y="36" onmousedown="handleReset()"/>
   <use id="arrowup" xlink:href="#arrowUp" x="0" y="0" onmousedown="handlePan(0,-1)"/>
  <use id="arrowright" xlink:href="#arrowRight" x="0" y="0" onmousedown="handlePan(1,0)"/>
  <use id="arrowdown" xlink:href="#arrowDown" x="0" y="0" onmousedown="handlePan(0,1)"/>
  <use id="arrowleft" xlink:href="#arrowLeft" x="0" y="0" onmousedown="handlePan(-1,0)"/>
</g>
<svg viewBox="0 0 15 15" width="100%" height="30px" preserveAspectRatio="xMaxYMin meet">
 <g id="arrow_out" transform="scale(0.3 0.3)">
  <a xlink:href="classfl_1_1_engine_events_a0d7527af75982eb6037525e670aa26ec_a0d7527af75982eb6037525e670aa26ec_icgraph_org.svg" target="_base">
   <rect id="button" ry="5" rx="5" y="6" x="6" height="38" width="38"
        fill="#f2f5e9" fill-opacity="0.5" stroke="#606060" stroke-width="1.0"/>
   <path id="arrow"
     d="M 11.500037,31.436501 C 11.940474,20.09759 22.043105,11.32322 32.158766,21.979434 L 37.068811,17.246167 C 37.068811,17.246167 37.088388,32 37.088388,32 L 22.160133,31.978069 C 22.160133,31.978069 26.997745,27.140456 26.997745,27.140456 C 18.528582,18.264221 13.291696,25.230495 11.500037,31.436501 z"
     style="fill:#404040;"/>
  </a>
 </g>
</svg>

<style type='text/css'>
<![CDATA[
[data-mouse-over-selected='false'] { opacity: 0.7; }
[data-mouse-over-selected='true']  { opacity: 1.0; }
]]>
</style>
<script type="application/ecmascript"><![CDATA[
document.addEventListener('DOMContentLoaded', (event) => {
  highlightEdges();
  highlightAdjacentNodes();
});
]]></script>
</svg>
