<?xml version="1.0" encoding="UTF-8" standalone="no"?>
<!DOCTYPE svg PUBLIC "-//W3C//DTD SVG 1.1//EN"
 "http://www.w3.org/Graphics/SVG/1.1/DTD/svg11.dtd">
<!-- Generated by graphviz version 2.43.0 (0)
 -->
<!-- Title: fl/priority_queue.h Pages: 1 -->
<svg width="707pt" height="467pt"
 viewBox="0.00 0.00 707.00 467.00" xmlns="http://www.w3.org/2000/svg" xmlns:xlink="http://www.w3.org/1999/xlink">
<g id="graph0" class="graph" transform="scale(1 1) rotate(0) translate(4 463)">
<title>fl/priority_queue.h</title>
<!-- Node1 -->
<g id="Node000001" class="node">
<title>Node1</title>
<g id="a_Node000001"><a xlink:title=" ">
<polygon fill="#999999" stroke="#666666" points="224.5,-459 119.5,-459 119.5,-440 224.5,-440 224.5,-459"/>
<text text-anchor="middle" x="172" y="-447" font-family="Helvetica,sans-Serif" font-size="10.00">fl/priority_queue.h</text>
</a>
</g>
</g>
<!-- Node2 -->
<g id="Node000002" class="node">
<title>Node2</title>
<g id="a_Node000002"><a xlink:href="../../d8/dea/functional_8h.html" target="_top" xlink:title=" ">
<polygon fill="white" stroke="#666666" points="176.5,-294 93.5,-294 93.5,-275 176.5,-275 176.5,-294"/>
<text text-anchor="middle" x="135" y="-282" font-family="Helvetica,sans-Serif" font-size="10.00">fl/functional.h</text>
</a>
</g>
</g>
<!-- Node1&#45;&gt;Node2 -->
<g id="edge1_Node000001_Node000002" class="edge">
<title>Node1&#45;&gt;Node2</title>
<g id="a_edge1_Node000001_Node000002"><a xlink:title=" ">
<path fill="none" stroke="#63b8ff" d="M170.01,-439.74C164.21,-414.2 147.24,-339.43 139.25,-304.23"/>
<polygon fill="#63b8ff" stroke="#63b8ff" points="142.63,-303.28 137,-294.31 135.8,-304.83 142.63,-303.28"/>
</a>
</g>
</g>
<!-- Node10 -->
<g id="Node000010" class="node">
<title>Node10</title>
<g id="a_Node000010"><a xlink:href="../../d6/d68/vector_8h.html" target="_top" xlink:title=" ">
<polygon fill="white" stroke="#666666" points="439.5,-404 374.5,-404 374.5,-385 439.5,-385 439.5,-404"/>
<text text-anchor="middle" x="407" y="-392" font-family="Helvetica,sans-Serif" font-size="10.00">fl/vector.h</text>
</a>
</g>
</g>
<!-- Node1&#45;&gt;Node10 -->
<g id="edge17_Node000001_Node000010" class="edge">
<title>Node1&#45;&gt;Node10</title>
<g id="a_edge17_Node000001_Node000010"><a xlink:title=" ">
<path fill="none" stroke="#63b8ff" d="M209.76,-439.98C252.01,-430.46 320.3,-415.05 364.42,-405.1"/>
<polygon fill="#63b8ff" stroke="#63b8ff" points="365.28,-408.5 374.26,-402.88 363.74,-401.67 365.28,-408.5"/>
</a>
</g>
</g>
<!-- Node3 -->
<g id="Node000003" class="node">
<title>Node3</title>
<g id="a_Node000003"><a xlink:href="../../dd/d98/ptr_8h.html" target="_top" xlink:title=" ">
<polygon fill="white" stroke="#666666" points="132.5,-239 85.5,-239 85.5,-220 132.5,-220 132.5,-239"/>
<text text-anchor="middle" x="109" y="-227" font-family="Helvetica,sans-Serif" font-size="10.00">fl/ptr.h</text>
</a>
</g>
</g>
<!-- Node2&#45;&gt;Node3 -->
<g id="edge2_Node000002_Node000003" class="edge">
<title>Node2&#45;&gt;Node3</title>
<g id="a_edge2_Node000002_Node000003"><a xlink:title=" ">
<path fill="none" stroke="#63b8ff" d="M130.71,-274.75C127.19,-267.57 122.09,-257.18 117.72,-248.27"/>
<polygon fill="#63b8ff" stroke="#63b8ff" points="120.76,-246.53 113.21,-239.09 114.48,-249.61 120.76,-246.53"/>
</a>
</g>
</g>
<!-- Node8 -->
<g id="Node000008" class="node">
<title>Node8</title>
<g id="a_Node000008"><a xlink:href="../../d8/d0c/template__magic_8h.html" target="_top" xlink:title=" ">
<polygon fill="white" stroke="#666666" points="256,-184 142,-184 142,-165 256,-165 256,-184"/>
<text text-anchor="middle" x="199" y="-172" font-family="Helvetica,sans-Serif" font-size="10.00">fl/template_magic.h</text>
</a>
</g>
</g>
<!-- Node2&#45;&gt;Node8 -->
<g id="edge16_Node000002_Node000008" class="edge">
<title>Node2&#45;&gt;Node8</title>
<g id="a_edge16_Node000002_Node000008"><a xlink:title=" ">
<path fill="none" stroke="#63b8ff" d="M140.24,-274.66C150.79,-256.85 174.78,-216.37 188.63,-193.01"/>
<polygon fill="#63b8ff" stroke="#63b8ff" points="191.78,-194.55 193.87,-184.16 185.76,-190.98 191.78,-194.55"/>
</a>
</g>
</g>
<!-- Node4 -->
<g id="Node000004" class="node">
<title>Node4</title>
<g id="a_Node000004"><a xlink:title=" ">
<polygon fill="#e0e0e0" stroke="#999999" points="309,-19 253,-19 253,0 309,0 309,-19"/>
<text text-anchor="middle" x="281" y="-7" font-family="Helvetica,sans-Serif" font-size="10.00">stddef.h</text>
</a>
</g>
</g>
<!-- Node3&#45;&gt;Node4 -->
<g id="edge3_Node000003_Node000004" class="edge">
<title>Node3&#45;&gt;Node4</title>
<g id="a_edge3_Node000003_Node000004"><a xlink:title=" ">
<path fill="none" stroke="#63b8ff" d="M104.77,-219.77C95.43,-199.14 75.46,-146.41 96,-110 126.5,-55.93 198.25,-29.77 242.89,-18.31"/>
<polygon fill="#63b8ff" stroke="#63b8ff" points="243.92,-21.67 252.8,-15.9 242.26,-14.86 243.92,-21.67"/>
</a>
</g>
</g>
<!-- Node5 -->
<g id="Node000005" class="node">
<title>Node5</title>
<g id="a_Node000005"><a xlink:href="../../df/d2a/namespace_8h.html" target="_top" xlink:title="Implements the FastLED namespace macros.">
<polygon fill="white" stroke="#666666" points="318.5,-74 227.5,-74 227.5,-55 318.5,-55 318.5,-74"/>
<text text-anchor="middle" x="273" y="-62" font-family="Helvetica,sans-Serif" font-size="10.00">fl/namespace.h</text>
</a>
</g>
</g>
<!-- Node3&#45;&gt;Node5 -->
<g id="edge4_Node000003_Node000005" class="edge">
<title>Node3&#45;&gt;Node5</title>
<g id="a_edge4_Node000003_Node000005"><a xlink:title=" ">
<path fill="none" stroke="#63b8ff" d="M104.4,-219.94C93.71,-198.78 70.04,-143.3 96,-110 110.9,-90.89 171.16,-78.73 217.28,-72.04"/>
<polygon fill="#63b8ff" stroke="#63b8ff" points="218.05,-75.47 227.47,-70.61 217.08,-68.53 218.05,-75.47"/>
</a>
</g>
</g>
<!-- Node6 -->
<g id="Node000006" class="node">
<title>Node6</title>
<g id="a_Node000006"><a xlink:href="../../d0/d44/scoped__ptr_8h.html" target="_top" xlink:title=" ">
<polygon fill="white" stroke="#666666" points="191.5,-129 104.5,-129 104.5,-110 191.5,-110 191.5,-129"/>
<text text-anchor="middle" x="148" y="-117" font-family="Helvetica,sans-Serif" font-size="10.00">fl/scoped_ptr.h</text>
</a>
</g>
</g>
<!-- Node3&#45;&gt;Node6 -->
<g id="edge5_Node000003_Node000006" class="edge">
<title>Node3&#45;&gt;Node6</title>
<g id="a_edge5_Node000003_Node000006"><a xlink:title=" ">
<path fill="none" stroke="#63b8ff" d="M112.19,-219.66C118.57,-202.01 132.98,-162.09 141.45,-138.64"/>
<polygon fill="#63b8ff" stroke="#63b8ff" points="144.77,-139.75 144.87,-129.16 138.18,-137.38 144.77,-139.75"/>
</a>
</g>
</g>
<!-- Node3&#45;&gt;Node8 -->
<g id="edge11_Node000003_Node000008" class="edge">
<title>Node3&#45;&gt;Node8</title>
<g id="a_edge11_Node000003_Node000008"><a xlink:title=" ">
<path fill="none" stroke="#63b8ff" d="M123.46,-219.98C137.42,-211.77 158.79,-199.18 175.25,-189.49"/>
<polygon fill="#63b8ff" stroke="#63b8ff" points="177.44,-192.26 184.28,-184.17 173.88,-186.23 177.44,-192.26"/>
</a>
</g>
</g>
<!-- Node6&#45;&gt;Node4 -->
<g id="edge6_Node000006_Node000004" class="edge">
<title>Node6&#45;&gt;Node4</title>
<g id="a_edge6_Node000006_Node000004"><a xlink:title=" ">
<path fill="none" stroke="#63b8ff" d="M155.77,-109.7C167.32,-96.87 190.04,-72.65 212,-55 226.17,-43.61 243.35,-32.52 257.02,-24.26"/>
<polygon fill="#63b8ff" stroke="#63b8ff" points="259.03,-27.14 265.85,-19.03 255.46,-21.12 259.03,-27.14"/>
</a>
</g>
</g>
<!-- Node6&#45;&gt;Node5 -->
<g id="edge10_Node000006_Node000005" class="edge">
<title>Node6&#45;&gt;Node5</title>
<g id="a_edge10_Node000006_Node000005"><a xlink:title=" ">
<path fill="none" stroke="#63b8ff" d="M168.08,-109.98C188.37,-101.38 219.96,-87.99 243.17,-78.15"/>
<polygon fill="#63b8ff" stroke="#63b8ff" points="244.71,-81.3 252.55,-74.17 241.98,-74.85 244.71,-81.3"/>
</a>
</g>
</g>
<!-- Node7 -->
<g id="Node000007" class="node">
<title>Node7</title>
<g id="a_Node000007"><a xlink:href="../../df/dd8/stdint_8h.html" target="_top" xlink:title=" ">
<polygon fill="white" stroke="#666666" points="389.5,-74 336.5,-74 336.5,-55 389.5,-55 389.5,-74"/>
<text text-anchor="middle" x="363" y="-62" font-family="Helvetica,sans-Serif" font-size="10.00">stdint.h</text>
</a>
</g>
</g>
<!-- Node6&#45;&gt;Node7 -->
<g id="edge7_Node000006_Node000007" class="edge">
<title>Node6&#45;&gt;Node7</title>
<g id="a_edge7_Node000006_Node000007"><a xlink:title=" ">
<path fill="none" stroke="#63b8ff" d="M182.54,-109.98C221.96,-100.27 286.17,-84.44 326.42,-74.52"/>
<polygon fill="#63b8ff" stroke="#63b8ff" points="327.48,-77.86 336.35,-72.07 325.8,-71.06 327.48,-77.86"/>
</a>
</g>
</g>
<!-- Node7&#45;&gt;Node4 -->
<g id="edge8_Node000007_Node000004" class="edge">
<title>Node7&#45;&gt;Node4</title>
<g id="a_edge8_Node000007_Node000004"><a xlink:title=" ">
<path fill="none" stroke="#63b8ff" d="M349.83,-54.98C337.23,-46.84 318,-34.41 303.06,-24.76"/>
<polygon fill="#63b8ff" stroke="#63b8ff" points="304.71,-21.66 294.41,-19.17 300.91,-27.54 304.71,-21.66"/>
</a>
</g>
</g>
<!-- Node7&#45;&gt;Node7 -->
<g id="edge9_Node000007_Node000007" class="edge">
<title>Node7&#45;&gt;Node7</title>
<g id="a_edge9_Node000007_Node000007"><a xlink:title=" ">
<path fill="none" stroke="#63b8ff" d="M384.06,-74.07C396.2,-76.02 407.5,-72.83 407.5,-64.5 407.5,-58.58 401.79,-55.25 394.12,-54.53"/>
<polygon fill="#63b8ff" stroke="#63b8ff" points="393.91,-51.03 384.06,-54.93 394.19,-58.03 393.91,-51.03"/>
</a>
</g>
</g>
<!-- Node9 -->
<g id="Node000009" class="node">
<title>Node9</title>
<g id="a_Node000009"><a xlink:href="../../df/d63/type__traits_8h.html" target="_top" xlink:title=" ">
<polygon fill="white" stroke="#666666" points="296.5,-129 209.5,-129 209.5,-110 296.5,-110 296.5,-129"/>
<text text-anchor="middle" x="253" y="-117" font-family="Helvetica,sans-Serif" font-size="10.00">fl/type_traits.h</text>
</a>
</g>
</g>
<!-- Node8&#45;&gt;Node9 -->
<g id="edge12_Node000008_Node000009" class="edge">
<title>Node8&#45;&gt;Node9</title>
<g id="a_edge12_Node000008_Node000009"><a xlink:title=" ">
<path fill="none" stroke="#63b8ff" d="M207.92,-164.75C215.78,-157.03 227.43,-145.6 236.92,-136.28"/>
<polygon fill="#63b8ff" stroke="#63b8ff" points="239.56,-138.59 244.25,-129.09 234.66,-133.6 239.56,-138.59"/>
</a>
</g>
</g>
<!-- Node9&#45;&gt;Node4 -->
<g id="edge13_Node000009_Node000004" class="edge">
<title>Node9&#45;&gt;Node4</title>
<g id="a_edge13_Node000009_Node000004"><a xlink:title=" ">
<path fill="none" stroke="#63b8ff" d="M242.62,-109.92C229.24,-97.77 208.84,-74.8 219,-55 225.96,-41.44 239.19,-31.07 251.65,-23.78"/>
<polygon fill="#63b8ff" stroke="#63b8ff" points="253.35,-26.84 260.48,-19 250.02,-20.68 253.35,-26.84"/>
</a>
</g>
</g>
<!-- Node9&#45;&gt;Node5 -->
<g id="edge15_Node000009_Node000005" class="edge">
<title>Node9&#45;&gt;Node5</title>
<g id="a_edge15_Node000009_Node000005"><a xlink:title=" ">
<path fill="none" stroke="#63b8ff" d="M256.3,-109.75C258.98,-102.65 262.85,-92.4 266.19,-83.56"/>
<polygon fill="#63b8ff" stroke="#63b8ff" points="269.5,-84.68 269.76,-74.09 262.95,-82.21 269.5,-84.68"/>
</a>
</g>
</g>
<!-- Node9&#45;&gt;Node7 -->
<g id="edge14_Node000009_Node000007" class="edge">
<title>Node9&#45;&gt;Node7</title>
<g id="a_edge14_Node000009_Node000007"><a xlink:title=" ">
<path fill="none" stroke="#63b8ff" d="M270.67,-109.98C288.29,-101.5 315.58,-88.35 335.93,-78.54"/>
<polygon fill="#63b8ff" stroke="#63b8ff" points="337.52,-81.66 345.01,-74.17 334.48,-75.36 337.52,-81.66"/>
</a>
</g>
</g>
<!-- Node10&#45;&gt;Node2 -->
<g id="edge29_Node000010_Node000002" class="edge">
<title>Node10&#45;&gt;Node2</title>
<g id="a_edge29_Node000010_Node000002"><a xlink:title=" ">
<path fill="none" stroke="#63b8ff" d="M374.4,-387.67C340.06,-380.87 284.87,-368.08 240,-349 208.58,-335.64 175.34,-314.11 154.88,-299.89"/>
<polygon fill="#63b8ff" stroke="#63b8ff" points="156.87,-297.01 146.69,-294.1 152.84,-302.73 156.87,-297.01"/>
</a>
</g>
</g>
<!-- Node10&#45;&gt;Node4 -->
<g id="edge18_Node000010_Node000004" class="edge">
<title>Node10&#45;&gt;Node4</title>
<g id="a_edge18_Node000010_Node000004"><a xlink:title=" ">
<path fill="none" stroke="#63b8ff" d="M439.51,-391.45C496.84,-387.19 612.62,-375.48 642,-349 663.88,-329.28 661,-314.96 661,-285.5 661,-285.5 661,-285.5 661,-118.5 661,-48.01 416.03,-21.09 319.46,-13.22"/>
<polygon fill="#63b8ff" stroke="#63b8ff" points="319.5,-9.71 309.25,-12.41 318.94,-16.69 319.5,-9.71"/>
</a>
</g>
</g>
<!-- Node10&#45;&gt;Node5 -->
<g id="edge32_Node000010_Node000005" class="edge">
<title>Node10&#45;&gt;Node5</title>
<g id="a_edge32_Node000010_Node000005"><a xlink:title=" ">
<path fill="none" stroke="#63b8ff" d="M416.72,-384.74C434.62,-367.59 471,-327.56 471,-285.5 471,-285.5 471,-285.5 471,-228.5 471,-146.42 368.34,-98.03 310.86,-77.37"/>
<polygon fill="#63b8ff" stroke="#63b8ff" points="311.96,-74.05 301.37,-74.06 309.66,-80.66 311.96,-74.05"/>
</a>
</g>
</g>
<!-- Node10&#45;&gt;Node6 -->
<g id="edge33_Node000010_Node000006" class="edge">
<title>Node10&#45;&gt;Node6</title>
<g id="a_edge33_Node000010_Node000006"><a xlink:title=" ">
<path fill="none" stroke="#63b8ff" d="M374.38,-391.85C277.8,-386.09 0,-362.81 0,-285.5 0,-285.5 0,-285.5 0,-228.5 0,-176.31 60.81,-146.65 104.47,-132.08"/>
<polygon fill="#63b8ff" stroke="#63b8ff" points="105.58,-135.4 114.05,-129.03 103.46,-128.73 105.58,-135.4"/>
</a>
</g>
</g>
<!-- Node10&#45;&gt;Node7 -->
<g id="edge19_Node000010_Node000007" class="edge">
<title>Node10&#45;&gt;Node7</title>
<g id="a_edge19_Node000010_Node000007"><a xlink:title=" ">
<path fill="none" stroke="#63b8ff" d="M439.83,-392.07C503.26,-388.66 639.54,-378.09 675,-349 698.33,-329.87 699,-315.67 699,-285.5 699,-285.5 699,-285.5 699,-173.5 699,-111.16 486.73,-79.69 399.63,-69.4"/>
<polygon fill="#63b8ff" stroke="#63b8ff" points="399.98,-65.92 389.65,-68.25 399.18,-72.87 399.98,-65.92"/>
</a>
</g>
</g>
<!-- Node10&#45;&gt;Node9 -->
<g id="edge34_Node000010_Node000009" class="edge">
<title>Node10&#45;&gt;Node9</title>
<g id="a_edge34_Node000010_Node000009"><a xlink:title=" ">
<path fill="none" stroke="#63b8ff" d="M410.51,-384.99C417.6,-366.97 433,-323.49 433,-285.5 433,-285.5 433,-285.5 433,-228.5 433,-168.93 359.61,-141.4 306.55,-129.28"/>
<polygon fill="#63b8ff" stroke="#63b8ff" points="307.09,-125.82 296.57,-127.13 305.61,-132.66 307.09,-125.82"/>
</a>
</g>
</g>
<!-- Node11 -->
<g id="Node000011" class="node">
<title>Node11</title>
<g id="a_Node000011"><a xlink:href="../../da/d66/string_8h.html" target="_top" xlink:title=" ">
<polygon fill="white" stroke="#666666" points="301.5,-349 248.5,-349 248.5,-330 301.5,-330 301.5,-349"/>
<text text-anchor="middle" x="275" y="-337" font-family="Helvetica,sans-Serif" font-size="10.00">string.h</text>
</a>
</g>
</g>
<!-- Node10&#45;&gt;Node11 -->
<g id="edge20_Node000010_Node000011" class="edge">
<title>Node10&#45;&gt;Node11</title>
<g id="a_edge20_Node000010_Node000011"><a xlink:title=" ">
<path fill="none" stroke="#63b8ff" d="M385.79,-384.98C364.27,-376.34 330.72,-362.87 306.17,-353.02"/>
<polygon fill="#63b8ff" stroke="#63b8ff" points="307.18,-349.65 296.59,-349.17 304.57,-356.14 307.18,-349.65"/>
</a>
</g>
</g>
<!-- Node18 -->
<g id="Node000018" class="node">
<title>Node18</title>
<g id="a_Node000018"><a xlink:href="../../d8/db8/math__macros_8h.html" target="_top" xlink:title=" ">
<polygon fill="white" stroke="#666666" points="404.5,-239 303.5,-239 303.5,-220 404.5,-220 404.5,-239"/>
<text text-anchor="middle" x="354" y="-227" font-family="Helvetica,sans-Serif" font-size="10.00">fl/math_macros.h</text>
</a>
</g>
</g>
<!-- Node10&#45;&gt;Node18 -->
<g id="edge31_Node000010_Node000018" class="edge">
<title>Node10&#45;&gt;Node18</title>
<g id="a_edge31_Node000010_Node000018"><a xlink:title=" ">
<path fill="none" stroke="#63b8ff" d="M404.15,-384.74C395.85,-359.2 371.54,-284.43 360.09,-249.23"/>
<polygon fill="#63b8ff" stroke="#63b8ff" points="363.28,-247.73 356.86,-239.31 356.63,-249.9 363.28,-247.73"/>
</a>
</g>
</g>
<!-- Node19 -->
<g id="Node000019" class="node">
<title>Node19</title>
<g id="a_Node000019"><a xlink:href="../../d1/d22/insert__result_8h.html" target="_top" xlink:title=" ">
<polygon fill="white" stroke="#666666" points="632.5,-349 537.5,-349 537.5,-330 632.5,-330 632.5,-349"/>
<text text-anchor="middle" x="585" y="-337" font-family="Helvetica,sans-Serif" font-size="10.00">fl/insert_result.h</text>
</a>
</g>
</g>
<!-- Node10&#45;&gt;Node19 -->
<g id="edge30_Node000010_Node000019" class="edge">
<title>Node10&#45;&gt;Node19</title>
<g id="a_edge30_Node000010_Node000019"><a xlink:title=" ">
<path fill="none" stroke="#63b8ff" d="M435.6,-384.98C465.61,-376.05 512.98,-361.94 546.32,-352.02"/>
<polygon fill="#63b8ff" stroke="#63b8ff" points="547.59,-355.29 556.18,-349.08 545.59,-348.58 547.59,-355.29"/>
</a>
</g>
</g>
<!-- Node20 -->
<g id="Node000020" class="node">
<title>Node20</title>
<g id="a_Node000020"><a xlink:href="../../db/d36/inplacenew_8h.html" target="_top" xlink:title=" ">
<polygon fill="white" stroke="#666666" points="564,-129 484,-129 484,-110 564,-110 564,-129"/>
<text text-anchor="middle" x="524" y="-117" font-family="Helvetica,sans-Serif" font-size="10.00">inplacenew.h</text>
</a>
</g>
</g>
<!-- Node10&#45;&gt;Node20 -->
<g id="edge35_Node000010_Node000020" class="edge">
<title>Node10&#45;&gt;Node20</title>
<g id="a_edge35_Node000010_Node000020"><a xlink:title=" ">
<path fill="none" stroke="#63b8ff" d="M431.07,-384.9C448.2,-377.68 470.62,-365.83 485,-349 504.59,-326.06 509,-315.67 509,-285.5 509,-285.5 509,-285.5 509,-228.5 509,-196.89 515.38,-160.56 519.82,-139.13"/>
<polygon fill="#63b8ff" stroke="#63b8ff" points="523.29,-139.64 521.98,-129.12 516.45,-138.16 523.29,-139.64"/>
</a>
</g>
</g>
<!-- Node12 -->
<g id="Node000012" class="node">
<title>Node12</title>
<g id="a_Node000012"><a xlink:href="../../d1/d93/str_8h.html" target="_top" xlink:title=" ">
<polygon fill="#fff0f0" stroke="red" points="298.5,-294 251.5,-294 251.5,-275 298.5,-275 298.5,-294"/>
<text text-anchor="middle" x="275" y="-282" font-family="Helvetica,sans-Serif" font-size="10.00">fl/str.h</text>
</a>
</g>
</g>
<!-- Node11&#45;&gt;Node12 -->
<g id="edge21_Node000011_Node000012" class="edge">
<title>Node11&#45;&gt;Node12</title>
<g id="a_edge21_Node000011_Node000012"><a xlink:title=" ">
<path fill="none" stroke="#63b8ff" d="M269.83,-329.75C268.34,-322.8 267.9,-312.85 268.52,-304.13"/>
<polygon fill="#63b8ff" stroke="#63b8ff" points="272.01,-304.47 269.87,-294.09 265.07,-303.53 272.01,-304.47"/>
</a>
</g>
</g>
<!-- Node12&#45;&gt;Node3 -->
<g id="edge26_Node000012_Node000003" class="edge">
<title>Node12&#45;&gt;Node3</title>
<g id="a_edge26_Node000012_Node000003"><a xlink:title=" ">
<path fill="none" stroke="#63b8ff" d="M251.22,-275.91C222.74,-266.82 174.86,-251.53 142.62,-241.23"/>
<polygon fill="#63b8ff" stroke="#63b8ff" points="143.33,-237.79 132.74,-238.08 141.2,-244.46 143.33,-237.79"/>
</a>
</g>
</g>
<!-- Node12&#45;&gt;Node5 -->
<g id="edge25_Node000012_Node000005" class="edge">
<title>Node12&#45;&gt;Node5</title>
<g id="a_edge25_Node000012_Node000005"><a xlink:title=" ">
<path fill="none" stroke="#63b8ff" d="M270.62,-274.86C264.98,-262.62 256.43,-239.57 261,-220 273.02,-168.56 322.57,-160.16 306,-110 302.54,-99.54 295.57,-89.53 288.92,-81.66"/>
<polygon fill="#63b8ff" stroke="#63b8ff" points="291.33,-79.1 282.02,-74.04 286.14,-83.8 291.33,-79.1"/>
</a>
</g>
</g>
<!-- Node12&#45;&gt;Node7 -->
<g id="edge22_Node000012_Node000007" class="edge">
<title>Node12&#45;&gt;Node7</title>
<g id="a_edge22_Node000012_Node000007"><a xlink:title=" ">
<path fill="none" stroke="#63b8ff" d="M277.42,-274.77C280.92,-262.43 287.75,-239.26 295,-220 314.03,-169.43 340.92,-111.57 354.47,-83.15"/>
<polygon fill="#63b8ff" stroke="#63b8ff" points="357.66,-84.6 358.83,-74.07 351.35,-81.58 357.66,-84.6"/>
</a>
</g>
</g>
<!-- Node12&#45;&gt;Node8 -->
<g id="edge27_Node000012_Node000008" class="edge">
<title>Node12&#45;&gt;Node8</title>
<g id="a_edge27_Node000012_Node000008"><a xlink:title=" ">
<path fill="none" stroke="#63b8ff" d="M261.37,-274.75C249.76,-266.7 233.38,-253.78 223,-239 213.48,-225.44 207.17,-207.61 203.43,-194.3"/>
<polygon fill="#63b8ff" stroke="#63b8ff" points="206.75,-193.19 200.87,-184.38 199.98,-194.93 206.75,-193.19"/>
</a>
</g>
</g>
<!-- Node12&#45;&gt;Node10 -->
<g id="edge28_Node000012_Node000010" class="edge">
<title>Node12&#45;&gt;Node10</title>
<g id="a_edge28_Node000012_Node000010"><a xlink:title=" ">
<path fill="none" stroke="#63b8ff" d="M285.58,-294.16C307.93,-312.44 360.19,-355.2 388.31,-378.21"/>
<polygon fill="#63b8ff" stroke="#63b8ff" points="386.24,-381.04 396.2,-384.66 390.67,-375.62 386.24,-381.04"/>
</a>
</g>
</g>
<!-- Node12&#45;&gt;Node11 -->
<g id="edge23_Node000012_Node000011" class="edge">
<title>Node12&#45;&gt;Node11</title>
<g id="a_edge23_Node000012_Node000011"><a xlink:title=" ">
<path fill="none" stroke="#63b8ff" d="M280.13,-294.09C281.64,-300.99 282.09,-310.93 281.49,-319.66"/>
<polygon fill="#63b8ff" stroke="#63b8ff" points="278,-319.38 280.17,-329.75 284.94,-320.29 278,-319.38"/>
</a>
</g>
</g>
<!-- Node12&#45;&gt;Node18 -->
<g id="edge24_Node000012_Node000018" class="edge">
<title>Node12&#45;&gt;Node18</title>
<g id="a_edge24_Node000012_Node000018"><a xlink:title=" ">
<path fill="none" stroke="#63b8ff" d="M287.69,-274.98C299.83,-266.84 318.36,-254.41 332.75,-244.76"/>
<polygon fill="#63b8ff" stroke="#63b8ff" points="334.72,-247.65 341.08,-239.17 330.82,-241.84 334.72,-247.65"/>
</a>
</g>
</g>
<!-- Node20&#45;&gt;Node4 -->
<g id="edge36_Node000020_Node000004" class="edge">
<title>Node20&#45;&gt;Node4</title>
<g id="a_edge36_Node000020_Node000004"><a xlink:title=" ">
<path fill="none" stroke="#63b8ff" d="M511.64,-109.94C492.21,-96.76 453,-71.33 417,-55 384.86,-40.42 346.51,-28.32 318.74,-20.43"/>
<polygon fill="#63b8ff" stroke="#63b8ff" points="319.6,-17.04 309.02,-17.72 317.72,-23.78 319.6,-17.04"/>
</a>
</g>
</g>
<!-- Node20&#45;&gt;Node7 -->
<g id="edge37_Node000020_Node000007" class="edge">
<title>Node20&#45;&gt;Node7</title>
<g id="a_edge37_Node000020_Node000007"><a xlink:title=" ">
<path fill="none" stroke="#63b8ff" d="M498.13,-109.98C471.22,-101.13 428.88,-87.19 398.77,-77.28"/>
<polygon fill="#63b8ff" stroke="#63b8ff" points="399.66,-73.88 389.07,-74.08 397.47,-80.53 399.66,-73.88"/>
</a>
</g>
</g>
</g>
</svg>
