<?xml version="1.0" encoding="UTF-8" standalone="no"?>
<!DOCTYPE svg PUBLIC "-//W3C//DTD SVG 1.1//EN"
 "http://www.w3.org/Graphics/SVG/1.1/DTD/svg11.dtd">
<!-- Generated by graphviz version 2.43.0 (0)
 -->
<!-- Title: fl/channels/wave3.h Pages: 1 -->
<svg width="368pt" height="214pt"
 viewBox="0.00 0.00 367.50 214.00" xmlns="http://www.w3.org/2000/svg" xmlns:xlink="http://www.w3.org/1999/xlink">

<svg id="main" version="1.1" xmlns="http://www.w3.org/2000/svg" xmlns:xlink="http://www.w3.org/1999/xlink" xml:space="preserve">

<style type="text/css"><![CDATA[
.node, .edge {opacity: 0.7;}
.node.selected, .edge.selected {opacity: 1;}
.edge:hover path { stroke: red; }
.edge:hover polygon { stroke: red; fill: red; }
]]></style>
<script type="application/ecmascript" xlink:href="../../svg.min.js"/>
<svg id="graph" class="graph">
<g id="graph0" class="graph" transform="scale(1 1) rotate(0) translate(4 210)">
<title>fl/channels/wave3.h</title>
<!-- Node1 -->
<g id="Node000001" class="node">
<title>Node1</title>
<g id="a_Node000001"><a xlink:title=" ">
<polygon fill="#999999" stroke="#666666" points="304,-206 191,-206 191,-187 304,-187 304,-206"/>
<text text-anchor="middle" x="247.5" y="-194" font-family="Helvetica,sans-Serif" font-size="10.00">fl/channels/wave3.h</text>
</a>
</g>
</g>
<!-- Node2 -->
<g id="Node000002" class="node">
<title>Node2</title>
<g id="a_Node000002"><a xlink:href="../../d4/df9/_auto_research_test_8cpp.html" target="_top" xlink:title=" ">
<polygon fill="white" stroke="#666666" points="179,-151 0,-151 0,-110 179,-110 179,-151"/>
<text text-anchor="start" x="8" y="-139" font-family="Helvetica,sans-Serif" font-size="10.00">/home/runner/work/FastLED</text>
<text text-anchor="start" x="8" y="-128" font-family="Helvetica,sans-Serif" font-size="10.00">/FastLED/examples/AutoResearch</text>
<text text-anchor="middle" x="89.5" y="-117" font-family="Helvetica,sans-Serif" font-size="10.00">/AutoResearchTest.cpp</text>
</a>
</g>
</g>
<!-- Node1&#45;&gt;Node2 -->
<g id="edge1_Node000001_Node000002" class="edge">
<title>Node1&#45;&gt;Node2</title>
<g id="a_edge1_Node000001_Node000002"><a xlink:title=" ">
<path fill="none" stroke="#63b8ff" d="M216.82,-183.07C194.35,-173.97 163.41,-161.44 137.66,-151.01"/>
<polygon fill="#63b8ff" stroke="#63b8ff" points="215.61,-186.36 226.19,-186.87 218.24,-179.87 215.61,-186.36"/>
</a>
</g>
</g>
<!-- Node3 -->
<g id="Node000003" class="node">
<title>Node3</title>
<g id="a_Node000003"><a xlink:href="../../d9/d66/wave3_8hpp.html" target="_top" xlink:title="Inline implementation details for wave3 transposition.">
<polygon fill="white" stroke="#666666" points="297.5,-145.5 197.5,-145.5 197.5,-115.5 297.5,-115.5 297.5,-145.5"/>
<text text-anchor="start" x="205.5" y="-133.5" font-family="Helvetica,sans-Serif" font-size="10.00">fl/channels/detail</text>
<text text-anchor="middle" x="247.5" y="-122.5" font-family="Helvetica,sans-Serif" font-size="10.00">/wave3.hpp</text>
</a>
</g>
</g>
<!-- Node1&#45;&gt;Node3 -->
<g id="edge2_Node000001_Node000003" class="edge">
<title>Node1&#45;&gt;Node3</title>
<g id="a_edge2_Node000001_Node000003"><a xlink:title=" ">
<path fill="none" stroke="#63b8ff" d="M247.5,-176.85C247.5,-166.97 247.5,-155.01 247.5,-145.86"/>
<polygon fill="#63b8ff" stroke="#63b8ff" points="244,-176.87 247.5,-186.87 251,-176.87 244,-176.87"/>
</a>
</g>
</g>
<!-- Node4 -->
<g id="Node000004" class="node">
<title>Node4</title>
<g id="a_Node000004"><a xlink:href="../../db/d7a/wave3_8cpp_8hpp.html" target="_top" xlink:title="Wave3 waveform generation and transposition implementation.">
<polygon fill="white" stroke="#666666" points="359.5,-74 213.5,-74 213.5,-55 359.5,-55 359.5,-74"/>
<text text-anchor="middle" x="286.5" y="-62" font-family="Helvetica,sans-Serif" font-size="10.00">fl/channels/wave3.cpp.hpp</text>
</a>
</g>
</g>
<!-- Node1&#45;&gt;Node4 -->
<g id="edge5_Node000001_Node000004" class="edge">
<title>Node1&#45;&gt;Node4</title>
<g id="a_edge5_Node000001_Node000004"><a xlink:title=" ">
<path fill="none" stroke="#63b8ff" d="M275.57,-181.84C287.4,-174.48 299.93,-164.18 306.5,-151 319.49,-124.94 301.96,-90.17 292.22,-74.2"/>
<polygon fill="#63b8ff" stroke="#63b8ff" points="273.7,-178.88 266.77,-186.9 277.18,-184.95 273.7,-178.88"/>
</a>
</g>
</g>
<!-- Node3&#45;&gt;Node4 -->
<g id="edge3_Node000003_Node000004" class="edge">
<title>Node3&#45;&gt;Node4</title>
<g id="a_edge3_Node000003_Node000004"><a xlink:title=" ">
<path fill="none" stroke="#63b8ff" d="M261.55,-106.45C268.33,-95.31 276.07,-82.61 281.11,-74.34"/>
<polygon fill="#63b8ff" stroke="#63b8ff" points="258.37,-104.94 256.16,-115.3 264.35,-108.58 258.37,-104.94"/>
</a>
</g>
</g>
<!-- Node5 -->
<g id="Node000005" class="node">
<title>Node5</title>
<g id="a_Node000005"><a xlink:href="../../d1/d97/fl_2channels_2__build_8cpp_8hpp.html" target="_top" xlink:title=" ">
<polygon fill="#fff0f0" stroke="red" points="358,-19 215,-19 215,0 358,0 358,-19"/>
<text text-anchor="middle" x="286.5" y="-7" font-family="Helvetica,sans-Serif" font-size="10.00">fl/channels/_build.cpp.hpp</text>
</a>
</g>
</g>
<!-- Node4&#45;&gt;Node5 -->
<g id="edge4_Node000004_Node000005" class="edge">
<title>Node4&#45;&gt;Node5</title>
<g id="a_edge4_Node000004_Node000005"><a xlink:title=" ">
<path fill="none" stroke="#63b8ff" d="M286.5,-44.66C286.5,-35.93 286.5,-25.99 286.5,-19.09"/>
<polygon fill="#63b8ff" stroke="#63b8ff" points="283,-44.75 286.5,-54.75 290,-44.75 283,-44.75"/>
</a>
</g>
</g>
</g>
</svg>
</svg>

<style type='text/css'>
<![CDATA[
[data-mouse-over-selected='false'] { opacity: 0.7; }
[data-mouse-over-selected='true']  { opacity: 1.0; }
]]>
</style>
<script type="application/ecmascript"><![CDATA[
document.addEventListener('DOMContentLoaded', (event) => {
  highlightEdges();
  highlightAdjacentNodes();
});
]]></script>
</svg>
