<?xml version="1.0" encoding="UTF-8" standalone="no"?>
<!DOCTYPE svg PUBLIC "-//W3C//DTD SVG 1.1//EN"
 "http://www.w3.org/Graphics/SVG/1.1/DTD/svg11.dtd">
<!-- Generated by graphviz version 2.43.0 (0)
 -->
<!-- Title: fl/stl/istream.h Pages: 1 -->
<!--zoomable 192 -->

<svg id="main" version="1.1" xmlns="http://www.w3.org/2000/svg" xmlns:xlink="http://www.w3.org/1999/xlink" xml:space="preserve" onload="init(evt)">

<style type="text/css"><![CDATA[
.node, .edge {opacity: 0.7;}
.node.selected, .edge.selected {opacity: 1;}
.edge:hover path { stroke: red; }
.edge:hover polygon { stroke: red; fill: red; }
]]></style>

<defs>
  <circle id="rim" cx="0" cy="0" r="7"/>
  <circle id="rim2" cx="0" cy="0" r="3.5"/>
  <g id="zoomPlus">
    <use xlink:href="#rim" fill="#404040"><set attributeName="fill" to="#808080" begin="zoomplus.mouseover" end="zoomplus.mouseout"/></use>
    <path d="M-4,0h8M0,-4v8" fill="none" stroke="white" stroke-width="1.5" pointer-events="none"/>
  </g>
  <g id="zoomMin">
    <use xlink:href="#rim" fill="#404040"><set attributeName="fill" to="#808080" begin="zoomminus.mouseover" end="zoomminus.mouseout"/></use>
    <path d="M-4,0h8" fill="none" stroke="white" stroke-width="1.5" pointer-events="none"/>
  </g>
  <g id="arrowUp" transform="translate(30 24)">
    <use xlink:href="#rim"/>
    <path pointer-events="none" fill="none" stroke="white" stroke-width="1.5" d="M0,-3.0v7 M-2.5,-0.5L0,-3.0L2.5,-0.5"/>
  </g>
  <g id="arrowRight" transform="rotate(90) translate(36 -43)">
    <use xlink:href="#rim"/>
    <path pointer-events="none" fill="none" stroke="white" stroke-width="1.5" d="M0,-3.0v7 M-2.5,-0.5L0,-3.0L2.5,-0.5"/>
  </g>
  <g id="arrowDown" transform="rotate(180) translate(-30 -48)">
    <use xlink:href="#rim"/>
    <path pointer-events="none" fill="none" stroke="white" stroke-width="1.5" d="M0,-3.0v7 M-2.5,-0.5L0,-3.0L2.5,-0.5"/>
  </g>
  <g id="arrowLeft" transform="rotate(270) translate(-36 17)">
    <use xlink:href="#rim"/>
    <path pointer-events="none" fill="none" stroke="white" stroke-width="1.5" d="M0,-3.0v7 M-2.5,-0.5L0,-3.0L2.5,-0.5"/>
  </g>
  <g id="resetDef">
    <use xlink:href="#rim2" fill="#404040"><set attributeName="fill" to="#808080" begin="reset.mouseover" end="reset.mouseout"/></use>
  </g>
</defs>
<script type="application/ecmascript">
var viewWidth = 521;
var viewHeight = 192;
var sectionId = 'dynsection-0';
</script>
<script type="application/ecmascript" xlink:href="../../svg.min.js"/>
<svg id="graph" class="graph">
<g id="viewport">
<title>fl/stl/istream.h</title>
<!-- Node1 -->
<g id="Node000001" class="node">
<title>Node1</title>
<g id="a_Node000001"><a xlink:title=" ">
<polygon fill="#999999" stroke="#666666" points="327,-184 240,-184 240,-165 327,-165 327,-184"/>
<text text-anchor="middle" x="283.5" y="-172" font-family="Helvetica,sans-Serif" font-size="10.00">fl/stl/istream.h</text>
</a>
</g>
</g>
<!-- Node2 -->
<g id="Node000002" class="node">
<title>Node2</title>
<g id="a_Node000002"><a xlink:href="../../df/d63/type__traits_8h.html" target="_top" xlink:title=" ">
<polygon fill="white" stroke="#666666" points="295.5,-129 193.5,-129 193.5,-110 295.5,-110 295.5,-129"/>
<text text-anchor="middle" x="244.5" y="-117" font-family="Helvetica,sans-Serif" font-size="10.00">fl/stl/type_traits.h</text>
</a>
</g>
</g>
<!-- Node1&#45;&gt;Node2 -->
<g id="edge1_Node000001_Node000002" class="edge">
<title>Node1&#45;&gt;Node2</title>
<g id="a_edge1_Node000001_Node000002"><a xlink:title=" ">
<path fill="none" stroke="#63b8ff" d="M277.06,-164.75C271.61,-157.34 263.64,-146.5 256.94,-137.41"/>
<polygon fill="#63b8ff" stroke="#63b8ff" points="259.57,-135.07 250.82,-129.09 253.93,-139.22 259.57,-135.07"/>
</a>
</g>
</g>
<!-- Node4 -->
<g id="Node000004" class="node">
<title>Node4</title>
<g id="a_Node000004"><a xlink:href="../../db/d01/noexcept_8h.html" target="_top" xlink:title=" ">
<polygon fill="white" stroke="#666666" points="95,-19 0,-19 0,0 95,0 95,-19"/>
<text text-anchor="middle" x="47.5" y="-7" font-family="Helvetica,sans-Serif" font-size="10.00">fl/stl/noexcept.h</text>
</a>
</g>
</g>
<!-- Node1&#45;&gt;Node4 -->
<g id="edge11_Node000001_Node000004" class="edge">
<title>Node1&#45;&gt;Node4</title>
<g id="a_edge11_Node000001_Node000004"><a xlink:title=" ">
<path fill="none" stroke="#63b8ff" d="M239.93,-168.44C185.79,-159.62 95.2,-135.96 51.5,-74 42.45,-61.16 42.22,-43 43.8,-29.38"/>
<polygon fill="#63b8ff" stroke="#63b8ff" points="47.3,-29.66 45.4,-19.23 40.39,-28.56 47.3,-29.66"/>
</a>
</g>
</g>
<!-- Node5 -->
<g id="Node000005" class="node">
<title>Node5</title>
<g id="a_Node000005"><a xlink:href="../../d3/d7e/int_8h.html" target="_top" xlink:title=" ">
<polygon fill="white" stroke="#666666" points="363.5,-74 301.5,-74 301.5,-55 363.5,-55 363.5,-74"/>
<text text-anchor="middle" x="332.5" y="-62" font-family="Helvetica,sans-Serif" font-size="10.00">fl/stl/int.h</text>
</a>
</g>
</g>
<!-- Node1&#45;&gt;Node5 -->
<g id="edge10_Node000001_Node000005" class="edge">
<title>Node1&#45;&gt;Node5</title>
<g id="a_edge10_Node000001_Node000005"><a xlink:title=" ">
<path fill="none" stroke="#63b8ff" d="M287.59,-165C291.87,-156.07 298.75,-141.59 304.5,-129 311.46,-113.76 319.12,-96.34 324.66,-83.6"/>
<polygon fill="#63b8ff" stroke="#63b8ff" points="327.99,-84.73 328.77,-74.16 321.57,-81.94 327.99,-84.73"/>
</a>
</g>
</g>
<!-- Node9 -->
<g id="Node000009" class="node">
<title>Node9</title>
<g id="a_Node000009"><a xlink:href="../../d1/dbc/sketch__macros_8h.html" target="_top" xlink:title=" ">
<polygon fill="white" stroke="#666666" points="510.5,-129 364.5,-129 364.5,-110 510.5,-110 510.5,-129"/>
<text text-anchor="middle" x="437.5" y="-117" font-family="Helvetica,sans-Serif" font-size="10.00">fl/system/sketch_macros.h</text>
</a>
</g>
</g>
<!-- Node1&#45;&gt;Node9 -->
<g id="edge8_Node000001_Node000009" class="edge">
<title>Node1&#45;&gt;Node9</title>
<g id="a_edge8_Node000001_Node000009"><a xlink:title=" ">
<path fill="none" stroke="#63b8ff" d="M308.24,-164.98C333.87,-156.16 374.13,-142.31 402.91,-132.41"/>
<polygon fill="#63b8ff" stroke="#63b8ff" points="404.25,-135.65 412.56,-129.08 401.97,-129.03 404.25,-135.65"/>
</a>
</g>
</g>
<!-- Node3 -->
<g id="Node000003" class="node">
<title>Node3</title>
<g id="a_Node000003"><a xlink:href="../../d9/d83/move_8h.html" target="_top" xlink:title=" ">
<polygon fill="white" stroke="#666666" points="283,-74 206,-74 206,-55 283,-55 283,-74"/>
<text text-anchor="middle" x="244.5" y="-62" font-family="Helvetica,sans-Serif" font-size="10.00">fl/stl/move.h</text>
</a>
</g>
</g>
<!-- Node2&#45;&gt;Node3 -->
<g id="edge2_Node000002_Node000003" class="edge">
<title>Node2&#45;&gt;Node3</title>
<g id="a_edge2_Node000002_Node000003"><a xlink:title=" ">
<path fill="none" stroke="#63b8ff" d="M244.5,-109.75C244.5,-102.8 244.5,-92.85 244.5,-84.13"/>
<polygon fill="#63b8ff" stroke="#63b8ff" points="248,-84.09 244.5,-74.09 241,-84.09 248,-84.09"/>
</a>
</g>
</g>
<!-- Node2&#45;&gt;Node4 -->
<g id="edge6_Node000002_Node000004" class="edge">
<title>Node2&#45;&gt;Node4</title>
<g id="a_edge6_Node000002_Node000004"><a xlink:title=" ">
<path fill="none" stroke="#63b8ff" d="M193.34,-111.43C147.43,-104.1 84.58,-91.27 66.5,-74 54.42,-62.46 49.93,-43.58 48.31,-29.41"/>
<polygon fill="#63b8ff" stroke="#63b8ff" points="51.78,-28.98 47.53,-19.27 44.81,-29.51 51.78,-28.98"/>
</a>
</g>
</g>
<!-- Node2&#45;&gt;Node5 -->
<g id="edge4_Node000002_Node000005" class="edge">
<title>Node2&#45;&gt;Node5</title>
<g id="a_edge4_Node000002_Node000005"><a xlink:title=" ">
<path fill="none" stroke="#63b8ff" d="M258.64,-109.98C272.29,-101.77 293.19,-89.18 309.28,-79.49"/>
<polygon fill="#63b8ff" stroke="#63b8ff" points="311.34,-82.33 318.1,-74.17 307.73,-76.33 311.34,-82.33"/>
</a>
</g>
</g>
<!-- Node8 -->
<g id="Node000008" class="node">
<title>Node8</title>
<g id="a_Node000008"><a xlink:href="../../d0/d1b/static__assert_8h.html" target="_top" xlink:title="Portable compile&#45;time assertion wrapper.">
<polygon fill="white" stroke="#666666" points="187.5,-74 75.5,-74 75.5,-55 187.5,-55 187.5,-74"/>
<text text-anchor="middle" x="131.5" y="-62" font-family="Helvetica,sans-Serif" font-size="10.00">fl/stl/static_assert.h</text>
</a>
</g>
</g>
<!-- Node2&#45;&gt;Node8 -->
<g id="edge7_Node000002_Node000008" class="edge">
<title>Node2&#45;&gt;Node8</title>
<g id="a_edge7_Node000002_Node000008"><a xlink:title=" ">
<path fill="none" stroke="#63b8ff" d="M226.34,-109.98C208.25,-101.5 180.22,-88.35 159.31,-78.54"/>
<polygon fill="#63b8ff" stroke="#63b8ff" points="160.53,-75.25 149.99,-74.17 157.55,-81.59 160.53,-75.25"/>
</a>
</g>
</g>
<!-- Node3&#45;&gt;Node4 -->
<g id="edge3_Node000003_Node000004" class="edge">
<title>Node3&#45;&gt;Node4</title>
<g id="a_edge3_Node000003_Node000004"><a xlink:title=" ">
<path fill="none" stroke="#63b8ff" d="M212.85,-54.98C179.34,-45.97 126.3,-31.7 89.36,-21.76"/>
<polygon fill="#63b8ff" stroke="#63b8ff" points="89.97,-18.3 79.4,-19.08 88.15,-25.06 89.97,-18.3"/>
</a>
</g>
</g>
<!-- Node6 -->
<g id="Node000006" class="node">
<title>Node6</title>
<g id="a_Node000006"><a xlink:href="../../df/dd8/stdint_8h.html" target="_top" xlink:title=" ">
<polygon fill="#fff0f0" stroke="red" points="371,-19 294,-19 294,0 371,0 371,-19"/>
<text text-anchor="middle" x="332.5" y="-7" font-family="Helvetica,sans-Serif" font-size="10.00">fl/stl/stdint.h</text>
</a>
</g>
</g>
<!-- Node5&#45;&gt;Node6 -->
<g id="edge5_Node000005_Node000006" class="edge">
<title>Node5&#45;&gt;Node6</title>
<g id="a_edge5_Node000005_Node000006"><a xlink:title=" ">
<path fill="none" stroke="#63b8ff" d="M332.5,-54.75C332.5,-47.8 332.5,-37.85 332.5,-29.13"/>
<polygon fill="#63b8ff" stroke="#63b8ff" points="336,-29.09 332.5,-19.09 329,-29.09 336,-29.09"/>
</a>
</g>
</g>
<!-- Node10 -->
<g id="Node000010" class="node">
<title>Node10</title>
<g id="a_Node000010"><a xlink:title=" ">
<polygon fill="#e0e0e0" stroke="#999999" points="513,-74 382,-74 382,-55 513,-55 513,-74"/>
<text text-anchor="middle" x="447.5" y="-62" font-family="Helvetica,sans-Serif" font-size="10.00">platforms/is_platform.h</text>
</a>
</g>
</g>
<!-- Node9&#45;&gt;Node10 -->
<g id="edge9_Node000009_Node000010" class="edge">
<title>Node9&#45;&gt;Node10</title>
<g id="a_edge9_Node000009_Node000010"><a xlink:title=" ">
<path fill="none" stroke="#63b8ff" d="M439.15,-109.75C440.46,-102.8 442.34,-92.85 443.98,-84.13"/>
<polygon fill="#63b8ff" stroke="#63b8ff" points="447.46,-84.56 445.88,-74.09 440.59,-83.27 447.46,-84.56"/>
</a>
</g>
</g>
</g>
</svg>

<g id="navigator" transform="translate(0 0)" fill="#404254">
  <rect fill="#f2f5e9" fill-opacity="0.5" stroke="#606060" stroke-width=".5" x="0" y="0" width="60" height="60"/>
  <use id="zoomplus" xlink:href="#zoomPlus" x="17" y="9" onmousedown="handleZoom(evt,'in')"/>
  <use id="zoomminus" xlink:href="#zoomMin" x="42" y="9" onmousedown="handleZoom(evt,'out')"/>
  <use id="reset" xlink:href="#resetDef" x="30" y="36" onmousedown="handleReset()"/>
   <use id="arrowup" xlink:href="#arrowUp" x="0" y="0" onmousedown="handlePan(0,-1)"/>
  <use id="arrowright" xlink:href="#arrowRight" x="0" y="0" onmousedown="handlePan(1,0)"/>
  <use id="arrowdown" xlink:href="#arrowDown" x="0" y="0" onmousedown="handlePan(0,1)"/>
  <use id="arrowleft" xlink:href="#arrowLeft" x="0" y="0" onmousedown="handlePan(-1,0)"/>
</g>
<svg viewBox="0 0 15 15" width="100%" height="30px" preserveAspectRatio="xMaxYMin meet">
 <g id="arrow_out" transform="scale(0.3 0.3)">
  <a xlink:href="istream_8h__incl_org.svg" target="_base">
   <rect id="button" ry="5" rx="5" y="6" x="6" height="38" width="38"
        fill="#f2f5e9" fill-opacity="0.5" stroke="#606060" stroke-width="1.0"/>
   <path id="arrow"
     d="M 11.500037,31.436501 C 11.940474,20.09759 22.043105,11.32322 32.158766,21.979434 L 37.068811,17.246167 C 37.068811,17.246167 37.088388,32 37.088388,32 L 22.160133,31.978069 C 22.160133,31.978069 26.997745,27.140456 26.997745,27.140456 C 18.528582,18.264221 13.291696,25.230495 11.500037,31.436501 z"
     style="fill:#404040;"/>
  </a>
 </g>
</svg>

<style type='text/css'>
<![CDATA[
[data-mouse-over-selected='false'] { opacity: 0.7; }
[data-mouse-over-selected='true']  { opacity: 1.0; }
]]>
</style>
<script type="application/ecmascript"><![CDATA[
document.addEventListener('DOMContentLoaded', (event) => {
  highlightEdges();
  highlightAdjacentNodes();
});
]]></script>
</svg>
