<?xml version="1.0" encoding="UTF-8" standalone="no"?>
<!DOCTYPE svg PUBLIC "-//W3C//DTD SVG 1.1//EN"
 "http://www.w3.org/Graphics/SVG/1.1/DTD/svg11.dtd">
<!-- Generated by graphviz version 2.43.0 (0)
 -->
<!-- Title: animartrix_detail::ANIMartRIX::render_value Pages: 1 -->
<svg width="464pt" height="172pt"
 viewBox="0.00 0.00 464.00 171.50" xmlns="http://www.w3.org/2000/svg" xmlns:xlink="http://www.w3.org/1999/xlink">
<g id="graph0" class="graph" transform="scale(1 1) rotate(0) translate(4 167.5)">
<title>animartrix_detail::ANIMartRIX::render_value</title>
<!-- Node1 -->
<g id="Node000001" class="node">
<title>Node1</title>
<g id="a_Node000001"><a xlink:title=" ">
<polygon fill="#999999" stroke="#666666" points="143,-115.5 0,-115.5 0,-85.5 143,-85.5 143,-115.5"/>
<text text-anchor="start" x="8" y="-103.5" font-family="Helvetica,sans-Serif" font-size="10.00">animartrix_detail::</text>
<text text-anchor="middle" x="71.5" y="-92.5" font-family="Helvetica,sans-Serif" font-size="10.00">ANIMartRIX::render_value</text>
</a>
</g>
</g>
<!-- Node2 -->
<g id="Node000002" class="node">
<title>Node2</title>
<g id="a_Node000002"><a xlink:href="../../df/d5e/classanimartrix__detail_1_1_a_n_i_mart_r_i_x_a2006d9bb43b5840274de66a93529a29f.html#a2006d9bb43b5840274de66a93529a29f" target="_top" xlink:title=" ">
<polygon fill="white" stroke="#666666" points="307,-139.5 179,-139.5 179,-109.5 307,-109.5 307,-139.5"/>
<text text-anchor="start" x="187" y="-127.5" font-family="Helvetica,sans-Serif" font-size="10.00">animartrix_detail::</text>
<text text-anchor="middle" x="243" y="-116.5" font-family="Helvetica,sans-Serif" font-size="10.00">ANIMartRIX::map_float</text>
</a>
</g>
</g>
<!-- Node1&#45;&gt;Node2 -->
<g id="edge1_Node000001_Node000002" class="edge">
<title>Node1&#45;&gt;Node2</title>
<g id="a_edge1_Node000001_Node000002"><a xlink:title=" ">
<path fill="none" stroke="#63b8ff" d="M143.4,-110.54C151.79,-111.73 160.36,-112.94 168.77,-114.13"/>
<polygon fill="#63b8ff" stroke="#63b8ff" points="168.55,-117.63 178.94,-115.57 169.53,-110.7 168.55,-117.63"/>
</a>
</g>
</g>
<!-- Node3 -->
<g id="Node000003" class="node">
<title>Node3</title>
<g id="a_Node000003"><a xlink:href="../../df/d5e/classanimartrix__detail_1_1_a_n_i_mart_r_i_x_a4e599e324fb4f9bec1a113f1843f6058.html#a4e599e324fb4f9bec1a113f1843f6058" target="_top" xlink:title=" ">
<polygon fill="white" stroke="#666666" points="298.5,-91.5 187.5,-91.5 187.5,-61.5 298.5,-61.5 298.5,-91.5"/>
<text text-anchor="start" x="195.5" y="-79.5" font-family="Helvetica,sans-Serif" font-size="10.00">animartrix_detail::</text>
<text text-anchor="middle" x="243" y="-68.5" font-family="Helvetica,sans-Serif" font-size="10.00">ANIMartRIX::pnoise</text>
</a>
</g>
</g>
<!-- Node1&#45;&gt;Node3 -->
<g id="edge2_Node000001_Node000003" class="edge">
<title>Node1&#45;&gt;Node3</title>
<g id="a_edge2_Node000001_Node000003"><a xlink:title=" ">
<path fill="none" stroke="#63b8ff" d="M143.4,-90.46C154.65,-88.87 166.24,-87.23 177.34,-85.66"/>
<polygon fill="#63b8ff" stroke="#63b8ff" points="177.96,-89.1 187.37,-84.24 176.98,-82.17 177.96,-89.1"/>
</a>
</g>
</g>
<!-- Node4 -->
<g id="Node000004" class="node">
<title>Node4</title>
<g id="a_Node000004"><a xlink:href="../../df/d5e/classanimartrix__detail_1_1_a_n_i_mart_r_i_x_af3fb7d297afe35dea7078be3836aa994.html#af3fb7d297afe35dea7078be3836aa994" target="_top" xlink:title=" ">
<polygon fill="white" stroke="#666666" points="453,-163.5 346,-163.5 346,-133.5 453,-133.5 453,-163.5"/>
<text text-anchor="start" x="354" y="-151.5" font-family="Helvetica,sans-Serif" font-size="10.00">animartrix_detail::</text>
<text text-anchor="middle" x="399.5" y="-140.5" font-family="Helvetica,sans-Serif" font-size="10.00">ANIMartRIX::fade</text>
</a>
</g>
</g>
<!-- Node3&#45;&gt;Node4 -->
<g id="edge3_Node000003_Node000004" class="edge">
<title>Node3&#45;&gt;Node4</title>
<g id="a_edge3_Node000003_Node000004"><a xlink:title=" ">
<path fill="none" stroke="#63b8ff" d="M287.26,-91.5C293.98,-94.25 300.76,-97.28 307,-100.5 324.09,-109.31 326.11,-115.31 343,-124.5 345.86,-126.05 348.84,-127.58 351.87,-129.07"/>
<polygon fill="#63b8ff" stroke="#63b8ff" points="350.5,-132.3 361.04,-133.4 353.49,-125.97 350.5,-132.3"/>
</a>
</g>
</g>
<!-- Node5 -->
<g id="Node000005" class="node">
<title>Node5</title>
<g id="a_Node000005"><a xlink:href="../../df/d5e/classanimartrix__detail_1_1_a_n_i_mart_r_i_x_acb625b48d9c1beec3067e0c38b7a0b22.html#acb625b48d9c1beec3067e0c38b7a0b22" target="_top" xlink:title=" ">
<polygon fill="white" stroke="#666666" points="453,-115.5 346,-115.5 346,-85.5 453,-85.5 453,-115.5"/>
<text text-anchor="start" x="354" y="-103.5" font-family="Helvetica,sans-Serif" font-size="10.00">animartrix_detail::</text>
<text text-anchor="middle" x="399.5" y="-92.5" font-family="Helvetica,sans-Serif" font-size="10.00">ANIMartRIX::grad</text>
</a>
</g>
</g>
<!-- Node3&#45;&gt;Node5 -->
<g id="edge4_Node000003_Node000005" class="edge">
<title>Node3&#45;&gt;Node5</title>
<g id="a_edge4_Node000003_Node000005"><a xlink:title=" ">
<path fill="none" stroke="#63b8ff" d="M298.91,-85.03C310.83,-86.88 323.54,-88.85 335.74,-90.75"/>
<polygon fill="#63b8ff" stroke="#63b8ff" points="335.42,-94.24 345.84,-92.32 336.5,-87.33 335.42,-94.24"/>
</a>
</g>
</g>
<!-- Node6 -->
<g id="Node000006" class="node">
<title>Node6</title>
<g id="a_Node000006"><a xlink:href="../../df/d5e/classanimartrix__detail_1_1_a_n_i_mart_r_i_x_a7ce0a9b9405217a5b8bf71c88bcb571b.html#a7ce0a9b9405217a5b8bf71c88bcb571b" target="_top" xlink:title=" ">
<polygon fill="white" stroke="#666666" points="453,-67.5 346,-67.5 346,-37.5 453,-37.5 453,-67.5"/>
<text text-anchor="start" x="354" y="-55.5" font-family="Helvetica,sans-Serif" font-size="10.00">animartrix_detail::</text>
<text text-anchor="middle" x="399.5" y="-44.5" font-family="Helvetica,sans-Serif" font-size="10.00">ANIMartRIX::lerp</text>
</a>
</g>
</g>
<!-- Node3&#45;&gt;Node6 -->
<g id="edge5_Node000003_Node000006" class="edge">
<title>Node3&#45;&gt;Node6</title>
<g id="a_edge5_Node000003_Node000006"><a xlink:title=" ">
<path fill="none" stroke="#63b8ff" d="M298.91,-67.97C310.83,-66.12 323.54,-64.15 335.74,-62.25"/>
<polygon fill="#63b8ff" stroke="#63b8ff" points="336.5,-65.67 345.84,-60.68 335.42,-58.76 336.5,-65.67"/>
</a>
</g>
</g>
<!-- Node7 -->
<g id="Node000007" class="node">
<title>Node7</title>
<g id="a_Node000007"><a xlink:href="../../d6/d74/namespaceanimartrix__detail_a2c844e2153739ae517f8968d4087bb41.html#a2c844e2153739ae517f8968d4087bb41" target="_top" xlink:title=" ">
<polygon fill="white" stroke="#666666" points="456,-19 343,-19 343,0 456,0 456,-19"/>
<text text-anchor="middle" x="399.5" y="-7" font-family="Helvetica,sans-Serif" font-size="10.00">animartrix_detail::P</text>
</a>
</g>
</g>
<!-- Node3&#45;&gt;Node7 -->
<g id="edge6_Node000003_Node000007" class="edge">
<title>Node3&#45;&gt;Node7</title>
<g id="a_edge6_Node000003_Node000007"><a xlink:title=" ">
<path fill="none" stroke="#63b8ff" d="M272.6,-61.49C292.15,-51.51 318.8,-38.46 343,-28.5 348.06,-26.42 353.44,-24.37 358.79,-22.44"/>
<polygon fill="#63b8ff" stroke="#63b8ff" points="360.02,-25.71 368.3,-19.1 357.7,-19.11 360.02,-25.71"/>
</a>
</g>
</g>
</g>
</svg>
