<?xml version="1.0" encoding="UTF-8" standalone="no"?>
<!DOCTYPE svg PUBLIC "-//W3C//DTD SVG 1.1//EN"
 "http://www.w3.org/Graphics/SVG/1.1/DTD/svg11.dtd">
<!-- Generated by graphviz version 2.43.0 (0)
 -->
<!-- Title: fl::json_value::const_iterator::const_iterator Pages: 1 -->
<svg width="453pt" height="303pt"
 viewBox="0.00 0.00 453.00 302.50" xmlns="http://www.w3.org/2000/svg" xmlns:xlink="http://www.w3.org/1999/xlink">
<g id="graph0" class="graph" transform="scale(1 1) rotate(0) translate(4 298.5)">
<title>fl::json_value::const_iterator::const_iterator</title>
<!-- Node1 -->
<g id="Node000001" class="node">
<title>Node1</title>
<g id="a_Node000001"><a xlink:title=" ">
<polygon fill="#999999" stroke="#666666" points="445,-150 314,-150 314,-120 445,-120 445,-150"/>
<text text-anchor="start" x="322" y="-138" font-family="Helvetica,sans-Serif" font-size="10.00">fl::json_value::const</text>
<text text-anchor="middle" x="379.5" y="-127" font-family="Helvetica,sans-Serif" font-size="10.00">_iterator::const_iterator</text>
</a>
</g>
</g>
<!-- Node2 -->
<g id="Node000002" class="node">
<title>Node2</title>
<g id="a_Node000002"><a xlink:href="../../dd/d90/classfl_1_1json__value_1_1const__iterator_a513a07c0386b4ad92e2c7b08d7ef0475.html#a513a07c0386b4ad92e2c7b08d7ef0475" target="_top" xlink:title=" ">
<polygon fill="white" stroke="#666666" points="278,-282 150,-282 150,-252 278,-252 278,-282"/>
<text text-anchor="start" x="158" y="-270" font-family="Helvetica,sans-Serif" font-size="10.00">fl::json_value::const</text>
<text text-anchor="middle" x="214" y="-259" font-family="Helvetica,sans-Serif" font-size="10.00">_iterator::from_iterator</text>
</a>
</g>
</g>
<!-- Node1&#45;&gt;Node2 -->
<g id="edge1_Node000001_Node000002" class="edge">
<title>Node1&#45;&gt;Node2</title>
<g id="a_edge1_Node000001_Node000002"><a xlink:title=" ">
<path fill="none" stroke="#63b8ff" d="M361.64,-158.25C343.35,-182.06 312.16,-218.77 278,-242 272.55,-245.71 266.47,-248.99 260.3,-251.85"/>
<polygon fill="#63b8ff" stroke="#63b8ff" points="364.55,-160.21 367.78,-150.11 358.96,-155.99 364.55,-160.21"/>
</a>
</g>
</g>
<!-- Node5 -->
<g id="Node000005" class="node">
<title>Node5</title>
<g id="a_Node000005"><a xlink:href="../../dd/d90/classfl_1_1json__value_1_1const__iterator_a2361c1b04673a4cfccd429e361a67020.html#a2361c1b04673a4cfccd429e361a67020" target="_top" xlink:title=" ">
<polygon fill="white" stroke="#666666" points="275,-233.5 153,-233.5 153,-192.5 275,-192.5 275,-233.5"/>
<text text-anchor="start" x="161" y="-221.5" font-family="Helvetica,sans-Serif" font-size="10.00">fl::json_value::const</text>
<text text-anchor="start" x="161" y="-210.5" font-family="Helvetica,sans-Serif" font-size="10.00">_iterator::from_object</text>
<text text-anchor="middle" x="214" y="-199.5" font-family="Helvetica,sans-Serif" font-size="10.00">_iterator</text>
</a>
</g>
</g>
<!-- Node1&#45;&gt;Node5 -->
<g id="edge4_Node000001_Node000005" class="edge">
<title>Node1&#45;&gt;Node5</title>
<g id="a_edge4_Node000001_Node000005"><a xlink:title=" ">
<path fill="none" stroke="#63b8ff" d="M337.63,-154.53C319.38,-163.25 297.62,-173.64 278,-183 271.66,-186.02 264.96,-189.22 258.38,-192.35"/>
<polygon fill="#63b8ff" stroke="#63b8ff" points="339.31,-157.61 346.82,-150.14 336.29,-151.3 339.31,-157.61"/>
</a>
</g>
</g>
<!-- Node6 -->
<g id="Node000006" class="node">
<title>Node6</title>
<g id="a_Node000006"><a xlink:href="../../dd/d90/classfl_1_1json__value_1_1const__iterator_af0a394a4bacca38e6ed6a8d1b9779d84.html#af0a394a4bacca38e6ed6a8d1b9779d84" target="_top" xlink:title=" ">
<polygon fill="white" stroke="#666666" points="272.5,-174 155.5,-174 155.5,-144 272.5,-144 272.5,-174"/>
<text text-anchor="start" x="163.5" y="-162" font-family="Helvetica,sans-Serif" font-size="10.00">fl::json_value::const</text>
<text text-anchor="middle" x="214" y="-151" font-family="Helvetica,sans-Serif" font-size="10.00">_iterator::operator!=</text>
</a>
</g>
</g>
<!-- Node1&#45;&gt;Node6 -->
<g id="edge5_Node000001_Node000006" class="edge">
<title>Node1&#45;&gt;Node6</title>
<g id="a_edge5_Node000001_Node000006"><a xlink:title=" ">
<path fill="none" stroke="#63b8ff" d="M303.86,-145.96C293.34,-147.5 282.66,-149.07 272.53,-150.56"/>
<polygon fill="#63b8ff" stroke="#63b8ff" points="304.49,-149.4 313.88,-144.49 303.48,-142.47 304.49,-149.4"/>
</a>
</g>
</g>
<!-- Node7 -->
<g id="Node000007" class="node">
<title>Node7</title>
<g id="a_Node000007"><a xlink:href="../../dd/d90/classfl_1_1json__value_1_1const__iterator_ac4cdf0f97e5ed9b5cd38186bf7525d25.html#ac4cdf0f97e5ed9b5cd38186bf7525d25" target="_top" xlink:title=" ">
<polygon fill="white" stroke="#666666" points="275,-126 153,-126 153,-96 275,-96 275,-126"/>
<text text-anchor="start" x="161" y="-114" font-family="Helvetica,sans-Serif" font-size="10.00">fl::json_value::const</text>
<text text-anchor="middle" x="214" y="-103" font-family="Helvetica,sans-Serif" font-size="10.00">_iterator::operator++</text>
</a>
</g>
</g>
<!-- Node1&#45;&gt;Node7 -->
<g id="edge6_Node000001_Node000007" class="edge">
<title>Node1&#45;&gt;Node7</title>
<g id="a_edge6_Node000001_Node000007"><a xlink:title=" ">
<path fill="none" stroke="#63b8ff" d="M303.91,-124.05C294.28,-122.64 284.52,-121.2 275.16,-119.83"/>
<polygon fill="#63b8ff" stroke="#63b8ff" points="303.48,-127.53 313.88,-125.51 304.49,-120.6 303.48,-127.53"/>
</a>
</g>
</g>
<!-- Node8 -->
<g id="Node000008" class="node">
<title>Node8</title>
<g id="a_Node000008"><a xlink:href="../../dd/d90/classfl_1_1json__value_1_1const__iterator_ad0f776a6c698f391ac827f4d728c1a70.html#ad0f776a6c698f391ac827f4d728c1a70" target="_top" xlink:title=" ">
<polygon fill="white" stroke="#666666" points="275,-78 153,-78 153,-48 275,-48 275,-78"/>
<text text-anchor="start" x="161" y="-66" font-family="Helvetica,sans-Serif" font-size="10.00">fl::json_value::const</text>
<text text-anchor="middle" x="214" y="-55" font-family="Helvetica,sans-Serif" font-size="10.00">_iterator::operator++</text>
</a>
</g>
</g>
<!-- Node1&#45;&gt;Node8 -->
<g id="edge7_Node000001_Node000008" class="edge">
<title>Node1&#45;&gt;Node8</title>
<g id="a_edge7_Node000001_Node000008"><a xlink:title=" ">
<path fill="none" stroke="#63b8ff" d="M339.46,-115.44C320.99,-106.42 298.53,-95.79 278,-87 270.9,-83.96 263.27,-80.89 255.86,-78.01"/>
<polygon fill="#63b8ff" stroke="#63b8ff" points="337.93,-118.59 348.45,-119.86 341.02,-112.31 337.93,-118.59"/>
</a>
</g>
</g>
<!-- Node9 -->
<g id="Node000009" class="node">
<title>Node9</title>
<g id="a_Node000009"><a xlink:href="../../dd/d90/classfl_1_1json__value_1_1const__iterator_a898614fe93a13af8f251247ca95d0ba4.html#a898614fe93a13af8f251247ca95d0ba4" target="_top" xlink:title=" ">
<polygon fill="white" stroke="#666666" points="275,-30 153,-30 153,0 275,0 275,-30"/>
<text text-anchor="start" x="161" y="-18" font-family="Helvetica,sans-Serif" font-size="10.00">fl::json_value::const</text>
<text text-anchor="middle" x="214" y="-7" font-family="Helvetica,sans-Serif" font-size="10.00">_iterator::operator==</text>
</a>
</g>
</g>
<!-- Node1&#45;&gt;Node9 -->
<g id="edge8_Node000001_Node000009" class="edge">
<title>Node1&#45;&gt;Node9</title>
<g id="a_edge8_Node000001_Node000009"><a xlink:title=" ">
<path fill="none" stroke="#63b8ff" d="M359.39,-112.09C340.55,-90.73 310.02,-59.22 278,-39 272.75,-35.69 266.98,-32.72 261.12,-30.09"/>
<polygon fill="#63b8ff" stroke="#63b8ff" points="356.82,-114.47 366.01,-119.73 362.11,-109.88 356.82,-114.47"/>
</a>
</g>
</g>
<!-- Node3 -->
<g id="Node000003" class="node">
<title>Node3</title>
<g id="a_Node000003"><a xlink:href="../../dc/dec/structfl_1_1json__value_a3489ce69f9169da23c0ffb322d9916e4.html#a3489ce69f9169da23c0ffb322d9916e4" target="_top" xlink:title=" ">
<polygon fill="white" stroke="#666666" points="114,-294.5 0,-294.5 0,-275.5 114,-275.5 114,-294.5"/>
<text text-anchor="middle" x="57" y="-282.5" font-family="Helvetica,sans-Serif" font-size="10.00">fl::json_value::begin</text>
</a>
</g>
</g>
<!-- Node2&#45;&gt;Node3 -->
<g id="edge2_Node000002_Node000003" class="edge">
<title>Node2&#45;&gt;Node3</title>
<g id="a_edge2_Node000002_Node000003"><a xlink:title=" ">
<path fill="none" stroke="#63b8ff" d="M139.83,-275.5C131.15,-276.51 122.4,-277.52 114.01,-278.5"/>
<polygon fill="#63b8ff" stroke="#63b8ff" points="140.43,-278.95 149.96,-274.32 139.62,-272 140.43,-278.95"/>
</a>
</g>
</g>
<!-- Node4 -->
<g id="Node000004" class="node">
<title>Node4</title>
<g id="a_Node000004"><a xlink:href="../../dc/dec/structfl_1_1json__value_a08b5d358595ac97ff3aa5b12a15ddec6.html#a08b5d358595ac97ff3aa5b12a15ddec6" target="_top" xlink:title=" ">
<polygon fill="white" stroke="#666666" points="109.5,-257.5 4.5,-257.5 4.5,-238.5 109.5,-238.5 109.5,-257.5"/>
<text text-anchor="middle" x="57" y="-245.5" font-family="Helvetica,sans-Serif" font-size="10.00">fl::json_value::end</text>
</a>
</g>
</g>
<!-- Node2&#45;&gt;Node4 -->
<g id="edge3_Node000002_Node000004" class="edge">
<title>Node2&#45;&gt;Node4</title>
<g id="a_edge3_Node000002_Node000004"><a xlink:title=" ">
<path fill="none" stroke="#63b8ff" d="M139.81,-258.03C129.61,-256.78 119.31,-255.51 109.61,-254.33"/>
<polygon fill="#63b8ff" stroke="#63b8ff" points="139.6,-261.53 149.96,-259.27 140.46,-254.58 139.6,-261.53"/>
</a>
</g>
</g>
</g>
</svg>
