<?xml version="1.0" encoding="UTF-8" standalone="no"?>
<!DOCTYPE svg PUBLIC "-//W3C//DTD SVG 1.1//EN"
 "http://www.w3.org/Graphics/SVG/1.1/DTD/svg11.dtd">
<!-- Generated by graphviz version 2.43.0 (0)
 -->
<!-- Title: fl::FFT::HashMap Pages: 1 -->
<!--zoomable 370 -->

<svg id="main" version="1.1" xmlns="http://www.w3.org/2000/svg" xmlns:xlink="http://www.w3.org/1999/xlink" xml:space="preserve" onload="init(evt)">

<style type="text/css"><![CDATA[
.node, .edge {opacity: 0.7;}
.node.selected, .edge.selected {opacity: 1;}
.edge:hover path { stroke: red; }
.edge:hover polygon { stroke: red; fill: red; }
]]></style>

<defs>
  <circle id="rim" cx="0" cy="0" r="7"/>
  <circle id="rim2" cx="0" cy="0" r="3.5"/>
  <g id="zoomPlus">
    <use xlink:href="#rim" fill="#404040"><set attributeName="fill" to="#808080" begin="zoomplus.mouseover" end="zoomplus.mouseout"/></use>
    <path d="M-4,0h8M0,-4v8" fill="none" stroke="white" stroke-width="1.5" pointer-events="none"/>
  </g>
  <g id="zoomMin">
    <use xlink:href="#rim" fill="#404040"><set attributeName="fill" to="#808080" begin="zoomminus.mouseover" end="zoomminus.mouseout"/></use>
    <path d="M-4,0h8" fill="none" stroke="white" stroke-width="1.5" pointer-events="none"/>
  </g>
  <g id="arrowUp" transform="translate(30 24)">
    <use xlink:href="#rim"/>
    <path pointer-events="none" fill="none" stroke="white" stroke-width="1.5" d="M0,-3.0v7 M-2.5,-0.5L0,-3.0L2.5,-0.5"/>
  </g>
  <g id="arrowRight" transform="rotate(90) translate(36 -43)">
    <use xlink:href="#rim"/>
    <path pointer-events="none" fill="none" stroke="white" stroke-width="1.5" d="M0,-3.0v7 M-2.5,-0.5L0,-3.0L2.5,-0.5"/>
  </g>
  <g id="arrowDown" transform="rotate(180) translate(-30 -48)">
    <use xlink:href="#rim"/>
    <path pointer-events="none" fill="none" stroke="white" stroke-width="1.5" d="M0,-3.0v7 M-2.5,-0.5L0,-3.0L2.5,-0.5"/>
  </g>
  <g id="arrowLeft" transform="rotate(270) translate(-36 17)">
    <use xlink:href="#rim"/>
    <path pointer-events="none" fill="none" stroke="white" stroke-width="1.5" d="M0,-3.0v7 M-2.5,-0.5L0,-3.0L2.5,-0.5"/>
  </g>
  <g id="resetDef">
    <use xlink:href="#rim2" fill="#404040"><set attributeName="fill" to="#808080" begin="reset.mouseover" end="reset.mouseout"/></use>
  </g>
</defs>
<script type="application/ecmascript">
var viewWidth = 1470;
var viewHeight = 370;
var sectionId = 'dynsection-1';
</script>
<script type="application/ecmascript" xlink:href="../../svg.min.js"/>
<svg id="graph" class="graph">
<g id="viewport">
<title>fl::FFT::HashMap</title>
<!-- Node1 -->
<g id="Node000001" class="node">
<title>Node1</title>
<g id="a_Node000001"><a xlink:title=" ">
<polygon fill="#999999" stroke="#666666" points="1462,-143.04 1365,-143.04 1365,-124.04 1462,-124.04 1462,-143.04"/>
<text text-anchor="middle" x="1413.5" y="-131.04" font-family="Helvetica,sans-Serif" font-size="10.00">fl::FFT::HashMap</text>
</a>
</g>
</g>
<!-- Node2 -->
<g id="Node000002" class="node">
<title>Node2</title>
<g id="a_Node000002"><a xlink:href="../../d1/df3/classfl_1_1_hash_map_lru.html" target="_top" xlink:title=" ">
<polygon fill="white" stroke="#666666" points="1328,-148.54 1192,-148.54 1192,-118.54 1328,-118.54 1328,-148.54"/>
<text text-anchor="start" x="1200" y="-136.54" font-family="Helvetica,sans-Serif" font-size="10.00">fl::HashMapLru&lt; FFT</text>
<text text-anchor="middle" x="1260" y="-125.54" font-family="Helvetica,sans-Serif" font-size="10.00">_Args, Ptr&lt; FFTImpl &gt; &gt;</text>
</a>
</g>
</g>
<!-- Node2&#45;&gt;Node1 -->
<g id="edge1_Node000001_Node000002" class="edge">
<title>Node2&#45;&gt;Node1</title>
<g id="a_edge1_Node000001_Node000002"><a xlink:title=" ">
<path fill="none" stroke="#63b8ff" d="M1338.49,-133.54C1347.49,-133.54 1356.46,-133.54 1364.89,-133.54"/>
<polygon fill="#63b8ff" stroke="#63b8ff" points="1338.33,-130.04 1328.33,-133.54 1338.33,-137.04 1338.33,-130.04"/>
</a>
</g>
</g>
<!-- Node3 -->
<g id="Node000003" class="node">
<title>Node3</title>
<g id="a_Node000003"><a xlink:href="../../dc/de6/classfl_1_1_hash_map.html" target="_top" xlink:title=" ">
<polygon fill="white" stroke="#666666" points="813,-246.54 530,-246.54 530,-194.54 813,-194.54 813,-246.54"/>
<text text-anchor="start" x="538" y="-234.54" font-family="Helvetica,sans-Serif" font-size="10.00">fl::HashMap&lt; FFT_Args,</text>
<text text-anchor="start" x="538" y="-223.54" font-family="Helvetica,sans-Serif" font-size="10.00"> fl::HashMapLru::ValueWithTimestamp,</text>
<text text-anchor="start" x="538" y="-212.54" font-family="Helvetica,sans-Serif" font-size="10.00"> fl::Hash&lt; FFT_Args &gt;, EqualTo</text>
<text text-anchor="middle" x="671.5" y="-201.54" font-family="Helvetica,sans-Serif" font-size="10.00">&lt; FFT_Args &gt;, FASTLED_HASHMAP_INLINED_COUNT &gt;</text>
</a>
</g>
</g>
<!-- Node3&#45;&gt;Node2 -->
<g id="edge2_Node000002_Node000003" class="edge">
<title>Node3&#45;&gt;Node2</title>
<g id="a_edge2_Node000002_Node000003"><a xlink:title=" ">
<path fill="none" stroke="#9a32cd" stroke-dasharray="5,2" d="M823.29,-198.17C942.23,-180.53 1102.48,-156.76 1191.76,-143.51"/>
<polygon fill="#9a32cd" stroke="#9a32cd" points="822.73,-194.72 813.35,-199.65 823.76,-201.64 822.73,-194.72"/>
</a>
</g>
<text text-anchor="middle" x="944" y="-190.54" font-family="Helvetica,sans-Serif" font-size="10.00" fill="grey"> mMap</text>
</g>
<!-- Node4 -->
<g id="Node000004" class="node">
<title>Node4</title>
<g id="a_Node000004"><a xlink:href="../../da/d18/classfl_1_1_inlined_vector.html" target="_top" xlink:title=" ">
<polygon fill="#fff0f0" stroke="red" points="309.5,-264.04 197.5,-264.04 197.5,-223.04 309.5,-223.04 309.5,-264.04"/>
<text text-anchor="start" x="205.5" y="-252.04" font-family="Helvetica,sans-Serif" font-size="10.00">fl::InlinedVector&lt;</text>
<text text-anchor="start" x="205.5" y="-241.04" font-family="Helvetica,sans-Serif" font-size="10.00"> fl::HashMap::Entry,</text>
<text text-anchor="middle" x="253.5" y="-230.04" font-family="Helvetica,sans-Serif" font-size="10.00"> INLINED_COUNT &gt;</text>
</a>
</g>
</g>
<!-- Node4&#45;&gt;Node3 -->
<g id="edge3_Node000003_Node000004" class="edge">
<title>Node4&#45;&gt;Node3</title>
<g id="a_edge3_Node000003_Node000004"><a xlink:title=" ">
<path fill="none" stroke="#9a32cd" stroke-dasharray="5,2" d="M319.99,-252.68C327.4,-253.44 334.86,-254.09 342,-254.54 417.41,-259.26 436.87,-262.51 512,-254.54 528.93,-252.74 546.71,-249.9 564,-246.6"/>
<polygon fill="#9a32cd" stroke="#9a32cd" points="320.27,-249.19 309.95,-251.57 319.5,-256.14 320.27,-249.19"/>
</a>
</g>
<text text-anchor="middle" x="427" y="-261.54" font-family="Helvetica,sans-Serif" font-size="10.00" fill="grey"> _buckets</text>
</g>
<!-- Node33 -->
<g id="Node000033" class="node">
<title>Node33</title>
<g id="a_Node000033"><a xlink:href="../../dc/de6/classfl_1_1_hash_map.html" target="_top" xlink:title=" ">
<polygon fill="#fff0f0" stroke="red" points="785,-112.54 558,-112.54 558,-60.54 785,-60.54 785,-112.54"/>
<text text-anchor="start" x="566" y="-100.54" font-family="Helvetica,sans-Serif" font-size="10.00">fl::HashMap&lt; Key, fl</text>
<text text-anchor="start" x="566" y="-89.54" font-family="Helvetica,sans-Serif" font-size="10.00">::HashMapLru::ValueWithTimestamp,</text>
<text text-anchor="start" x="566" y="-78.54" font-family="Helvetica,sans-Serif" font-size="10.00"> fl::Hash&lt; Key &gt;, EqualTo&lt; Key</text>
<text text-anchor="middle" x="671.5" y="-67.54" font-family="Helvetica,sans-Serif" font-size="10.00"> &gt;, FASTLED_HASHMAP_INLINED_COUNT &gt;</text>
</a>
</g>
</g>
<!-- Node4&#45;&gt;Node33 -->
<g id="edge11_Node000033_Node000004" class="edge">
<title>Node4&#45;&gt;Node33</title>
<g id="a_edge11_Node000033_Node000004"><a xlink:title=" ">
<path fill="none" stroke="#9a32cd" stroke-dasharray="5,2" d="M319.94,-240.96C390.97,-237.64 496.41,-231.04 512,-220.54 526.51,-210.77 518.52,-198.74 530,-185.54 555.95,-155.71 592.68,-130.24 622.07,-112.6"/>
<polygon fill="#9a32cd" stroke="#9a32cd" points="319.55,-237.47 309.72,-241.42 319.87,-244.46 319.55,-237.47"/>
</a>
</g>
<text text-anchor="middle" x="427" y="-242.54" font-family="Helvetica,sans-Serif" font-size="10.00" fill="grey"> _buckets</text>
</g>
<!-- Node20 -->
<g id="Node000020" class="node">
<title>Node20</title>
<g id="a_Node000020"><a xlink:href="../../d6/d6a/classfl_1_1_bitset_inlined.html" target="_top" xlink:title=" ">
<polygon fill="#fff0f0" stroke="red" points="98,-108.54 0,-108.54 0,-78.54 98,-78.54 98,-108.54"/>
<text text-anchor="start" x="8" y="-96.54" font-family="Helvetica,sans-Serif" font-size="10.00">fl::BitsetInlined&lt;</text>
<text text-anchor="middle" x="49" y="-85.54" font-family="Helvetica,sans-Serif" font-size="10.00"> N &gt;&lt; 1024 &gt;</text>
</a>
</g>
</g>
<!-- Node20&#45;&gt;Node3 -->
<g id="edge4_Node000003_Node000020" class="edge">
<title>Node20&#45;&gt;Node3</title>
<g id="a_edge4_Node000003_Node000020"><a xlink:title=" ">
<path fill="none" stroke="#9a32cd" stroke-dasharray="5,2" d="M59.36,-117.93C76.63,-158.99 117.78,-240.64 183,-273.54 324,-344.67 516.63,-284.89 612.03,-246.57"/>
<polygon fill="#9a32cd" stroke="#9a32cd" points="62.6,-116.59 55.58,-108.65 56.11,-119.23 62.6,-116.59"/>
</a>
</g>
<text text-anchor="middle" x="253.5" y="-319.54" font-family="Helvetica,sans-Serif" font-size="10.00" fill="grey"> _deleted</text>
<text text-anchor="middle" x="253.5" y="-308.54" font-family="Helvetica,sans-Serif" font-size="10.00" fill="grey">_occupied</text>
</g>
<!-- Node28 -->
<g id="Node000028" class="node">
<title>Node28</title>
<g id="a_Node000028"><a xlink:href="../../dc/de6/classfl_1_1_hash_map.html" target="_top" xlink:title=" ">
<polygon fill="#fff0f0" stroke="red" points="324,-114.04 183,-114.04 183,-73.04 324,-73.04 324,-114.04"/>
<text text-anchor="start" x="191" y="-102.04" font-family="Helvetica,sans-Serif" font-size="10.00">fl::HashMap&lt; Key, T,</text>
<text text-anchor="start" x="191" y="-91.04" font-family="Helvetica,sans-Serif" font-size="10.00"> Hash, KeyEqual, INLINED</text>
<text text-anchor="middle" x="253.5" y="-80.04" font-family="Helvetica,sans-Serif" font-size="10.00">_COUNT &gt;</text>
</a>
</g>
</g>
<!-- Node20&#45;&gt;Node28 -->
<g id="edge8_Node000028_Node000020" class="edge">
<title>Node20&#45;&gt;Node28</title>
<g id="a_edge8_Node000028_Node000020"><a xlink:title=" ">
<path fill="none" stroke="#9a32cd" stroke-dasharray="5,2" d="M108.3,-93.54C131.55,-93.54 158.51,-93.54 182.78,-93.54"/>
<polygon fill="#9a32cd" stroke="#9a32cd" points="108.25,-90.04 98.25,-93.54 108.25,-97.04 108.25,-90.04"/>
</a>
</g>
<text text-anchor="middle" x="140.5" y="-107.54" font-family="Helvetica,sans-Serif" font-size="10.00" fill="grey"> _deleted</text>
<text text-anchor="middle" x="140.5" y="-96.54" font-family="Helvetica,sans-Serif" font-size="10.00" fill="grey">_occupied</text>
</g>
<!-- Node20&#45;&gt;Node33 -->
<g id="edge12_Node000033_Node000020" class="edge">
<title>Node20&#45;&gt;Node33</title>
<g id="a_edge12_Node000033_Node000020"><a xlink:title=" ">
<path fill="none" stroke="#9a32cd" stroke-dasharray="5,2" d="M72.97,-71.57C97.81,-49.47 139.71,-16.81 183,-3.54 206.09,3.54 493.99,-2.1 512,-6.54 555.4,-17.24 600.48,-41.48 631.42,-60.5"/>
<polygon fill="#9a32cd" stroke="#9a32cd" points="70.57,-69.03 65.52,-78.34 75.27,-74.21 70.57,-69.03"/>
</a>
</g>
<text text-anchor="middle" x="253.5" y="-17.54" font-family="Helvetica,sans-Serif" font-size="10.00" fill="grey"> _deleted</text>
<text text-anchor="middle" x="253.5" y="-6.54" font-family="Helvetica,sans-Serif" font-size="10.00" fill="grey">_occupied</text>
</g>
<!-- Node25 -->
<g id="Node000025" class="node">
<title>Node25</title>
<g id="a_Node000025"><a xlink:href="../../d6/dfd/structfl_1_1_hash.html" target="_top" xlink:title=" ">
<polygon fill="white" stroke="#666666" points="294.5,-54.04 212.5,-54.04 212.5,-35.04 294.5,-35.04 294.5,-54.04"/>
<text text-anchor="middle" x="253.5" y="-42.04" font-family="Helvetica,sans-Serif" font-size="10.00">fl::Hash&lt; T &gt;</text>
</a>
</g>
</g>
<!-- Node25&#45;&gt;Node3 -->
<g id="edge5_Node000003_Node000025" class="edge">
<title>Node25&#45;&gt;Node3</title>
<g id="a_edge5_Node000003_Node000025"><a xlink:title=" ">
<path fill="none" stroke="#9a32cd" stroke-dasharray="5,2" d="M304.76,-43.41C370.46,-42.97 480.86,-46.06 512,-70.54 530.9,-85.39 515.49,-102.38 530,-121.54 553.33,-152.35 589.01,-177.32 618.57,-194.48"/>
<polygon fill="#9a32cd" stroke="#9a32cd" points="304.58,-39.92 294.62,-43.51 304.65,-46.92 304.58,-39.92"/>
</a>
</g>
<text text-anchor="middle" x="427" y="-73.54" font-family="Helvetica,sans-Serif" font-size="10.00" fill="grey"> _hash</text>
</g>
<!-- Node25&#45;&gt;Node33 -->
<g id="edge13_Node000033_Node000025" class="edge">
<title>Node25&#45;&gt;Node33</title>
<g id="a_edge13_Node000033_Node000025"><a xlink:title=" ">
<path fill="none" stroke="#9a32cd" stroke-dasharray="5,2" d="M290.66,-31.76C306.24,-26.9 324.8,-21.95 342,-19.54 416.83,-9.06 437.95,-4.53 512,-19.54 550.94,-27.43 592.2,-45.21 622.86,-60.47"/>
<polygon fill="#9a32cd" stroke="#9a32cd" points="289.33,-28.51 280.89,-34.92 291.48,-35.17 289.33,-28.51"/>
</a>
</g>
<text text-anchor="middle" x="427" y="-22.54" font-family="Helvetica,sans-Serif" font-size="10.00" fill="grey"> _hash</text>
</g>
<!-- Node26 -->
<g id="Node000026" class="node">
<title>Node26</title>
<g id="a_Node000026"><a xlink:href="../../d3/de5/structfl_1_1_equal_to.html" target="_top" xlink:title=" ">
<polygon fill="#fff0f0" stroke="red" points="320,-362.04 187,-362.04 187,-343.04 320,-343.04 320,-362.04"/>
<text text-anchor="middle" x="253.5" y="-350.04" font-family="Helvetica,sans-Serif" font-size="10.00">fl::EqualTo&lt; FFT_Args &gt;</text>
</a>
</g>
</g>
<!-- Node26&#45;&gt;Node3 -->
<g id="edge6_Node000003_Node000026" class="edge">
<title>Node26&#45;&gt;Node3</title>
<g id="a_edge6_Node000003_Node000026"><a xlink:title=" ">
<path fill="none" stroke="#9a32cd" stroke-dasharray="5,2" d="M330.46,-349.97C382.78,-346.28 453.19,-337.46 512,-316.54 558.38,-300.04 605.93,-268.98 636.69,-246.65"/>
<polygon fill="#9a32cd" stroke="#9a32cd" points="330,-346.5 320.25,-350.65 330.46,-353.48 330,-346.5"/>
</a>
</g>
<text text-anchor="middle" x="427" y="-351.54" font-family="Helvetica,sans-Serif" font-size="10.00" fill="grey"> _equal</text>
</g>
<!-- Node28&#45;&gt;Node3 -->
<g id="edge7_Node000003_Node000028" class="edge">
<title>Node28&#45;&gt;Node3</title>
<g id="a_edge7_Node000003_Node000028"><a xlink:title=" ">
<path fill="none" stroke="orange" stroke-dasharray="5,2" d="M293.53,-119.54C308.17,-128.16 325.32,-136.97 342,-142.54 414.31,-166.7 437.84,-147.84 512,-165.54 543.16,-172.98 576.81,-184.18 605.05,-194.53"/>
<polygon fill="orange" stroke="orange" points="295.13,-116.42 284.76,-114.23 291.5,-122.4 295.13,-116.42"/>
</a>
</g>
<text text-anchor="start" x="342" y="-212.54" font-family="Helvetica,sans-Serif" font-size="10.00" fill="grey"> &lt; FFT_Args, fl::HashMapLru</text>
<text text-anchor="start" x="342" y="-201.54" font-family="Helvetica,sans-Serif" font-size="10.00" fill="grey">::ValueWithTimestamp, fl</text>
<text text-anchor="start" x="342" y="-190.54" font-family="Helvetica,sans-Serif" font-size="10.00" fill="grey">::Hash&lt; FFT_Args &gt;, EqualTo</text>
<text text-anchor="start" x="342" y="-179.54" font-family="Helvetica,sans-Serif" font-size="10.00" fill="grey">&lt; FFT_Args &gt;, FASTLED_HASHMAP</text>
<text text-anchor="middle" x="427" y="-168.54" font-family="Helvetica,sans-Serif" font-size="10.00" fill="grey">_INLINED_COUNT &gt;</text>
</g>
<!-- Node28&#45;&gt;Node33 -->
<g id="edge14_Node000033_Node000028" class="edge">
<title>Node28&#45;&gt;Node33</title>
<g id="a_edge14_Node000033_Node000028"><a xlink:title=" ">
<path fill="none" stroke="orange" stroke-dasharray="5,2" d="M334.31,-87.85C336.9,-87.73 339.47,-87.63 342,-87.54 413.81,-84.97 494.51,-84.69 557.96,-85.06"/>
<polygon fill="orange" stroke="orange" points="334.02,-84.36 324.21,-88.35 334.37,-91.35 334.02,-84.36"/>
</a>
</g>
<text text-anchor="start" x="355" y="-134.54" font-family="Helvetica,sans-Serif" font-size="10.00" fill="grey"> &lt; Key, fl::HashMapLru</text>
<text text-anchor="start" x="355" y="-123.54" font-family="Helvetica,sans-Serif" font-size="10.00" fill="grey">::ValueWithTimestamp,</text>
<text text-anchor="start" x="355" y="-112.54" font-family="Helvetica,sans-Serif" font-size="10.00" fill="grey"> fl::Hash&lt; Key &gt;, EqualTo</text>
<text text-anchor="start" x="355" y="-101.54" font-family="Helvetica,sans-Serif" font-size="10.00" fill="grey">&lt; Key &gt;, FASTLED_HASHMAP</text>
<text text-anchor="middle" x="427" y="-90.54" font-family="Helvetica,sans-Serif" font-size="10.00" fill="grey">_INLINED_COUNT &gt;</text>
</g>
<!-- Node32 -->
<g id="Node000032" class="node">
<title>Node32</title>
<g id="a_Node000032"><a xlink:href="../../d1/df3/classfl_1_1_hash_map_lru.html" target="_top" xlink:title=" ">
<polygon fill="white" stroke="#666666" points="1005,-122.04 883,-122.04 883,-81.04 1005,-81.04 1005,-122.04"/>
<text text-anchor="start" x="891" y="-110.04" font-family="Helvetica,sans-Serif" font-size="10.00">fl::HashMapLru&lt; Key,</text>
<text text-anchor="start" x="891" y="-99.04" font-family="Helvetica,sans-Serif" font-size="10.00"> T, Hash, KeyEqual,</text>
<text text-anchor="middle" x="944" y="-88.04" font-family="Helvetica,sans-Serif" font-size="10.00"> INLINED_COUNT &gt;</text>
</a>
</g>
</g>
<!-- Node32&#45;&gt;Node2 -->
<g id="edge9_Node000002_Node000032" class="edge">
<title>Node32&#45;&gt;Node2</title>
<g id="a_edge9_Node000002_Node000032"><a xlink:title=" ">
<path fill="none" stroke="orange" stroke-dasharray="5,2" d="M1015.13,-108.69C1067.95,-114.07 1139.91,-121.4 1191.96,-126.71"/>
<polygon fill="orange" stroke="orange" points="1015.47,-105.2 1005.17,-107.67 1014.76,-112.17 1015.47,-105.2"/>
</a>
</g>
<text text-anchor="middle" x="1098.5" y="-127.54" font-family="Helvetica,sans-Serif" font-size="10.00" fill="grey"> &lt; FFT_Args, Ptr&lt; FFTImpl &gt; &gt;</text>
</g>
<!-- Node33&#45;&gt;Node32 -->
<g id="edge10_Node000032_Node000033" class="edge">
<title>Node33&#45;&gt;Node32</title>
<g id="a_edge10_Node000032_Node000033"><a xlink:title=" ">
<path fill="none" stroke="#9a32cd" stroke-dasharray="5,2" d="M795.51,-93.36C825.86,-95.04 857.04,-96.77 882.87,-98.21"/>
<polygon fill="#9a32cd" stroke="#9a32cd" points="795.44,-89.85 785.26,-92.79 795.05,-96.84 795.44,-89.85"/>
</a>
</g>
<text text-anchor="middle" x="848" y="-100.54" font-family="Helvetica,sans-Serif" font-size="10.00" fill="grey"> mMap</text>
</g>
</g>
</svg>

<g id="navigator" transform="translate(0 0)" fill="#404254">
  <rect fill="#f2f5e9" fill-opacity="0.5" stroke="#606060" stroke-width=".5" x="0" y="0" width="60" height="60"/>
  <use id="zoomplus" xlink:href="#zoomPlus" x="17" y="9" onmousedown="handleZoom(evt,'in')"/>
  <use id="zoomminus" xlink:href="#zoomMin" x="42" y="9" onmousedown="handleZoom(evt,'out')"/>
  <use id="reset" xlink:href="#resetDef" x="30" y="36" onmousedown="handleReset()"/>
   <use id="arrowup" xlink:href="#arrowUp" x="0" y="0" onmousedown="handlePan(0,-1)"/>
  <use id="arrowright" xlink:href="#arrowRight" x="0" y="0" onmousedown="handlePan(1,0)"/>
  <use id="arrowdown" xlink:href="#arrowDown" x="0" y="0" onmousedown="handlePan(0,1)"/>
  <use id="arrowleft" xlink:href="#arrowLeft" x="0" y="0" onmousedown="handlePan(-1,0)"/>
</g>
<svg viewBox="0 0 15 15" width="100%" height="30px" preserveAspectRatio="xMaxYMin meet">
 <g id="arrow_out" transform="scale(0.3 0.3)">
  <a xlink:href="structfl_1_1_f_f_t_1_1_hash_map__coll__graph_org.svg" target="_base">
   <rect id="button" ry="5" rx="5" y="6" x="6" height="38" width="38"
        fill="#f2f5e9" fill-opacity="0.5" stroke="#606060" stroke-width="1.0"/>
   <path id="arrow"
     d="M 11.500037,31.436501 C 11.940474,20.09759 22.043105,11.32322 32.158766,21.979434 L 37.068811,17.246167 C 37.068811,17.246167 37.088388,32 37.088388,32 L 22.160133,31.978069 C 22.160133,31.978069 26.997745,27.140456 26.997745,27.140456 C 18.528582,18.264221 13.291696,25.230495 11.500037,31.436501 z"
     style="fill:#404040;"/>
  </a>
 </g>
</svg>

<style type='text/css'>
<![CDATA[
[data-mouse-over-selected='false'] { opacity: 0.7; }
[data-mouse-over-selected='true']  { opacity: 1.0; }
]]>
</style>
<script type="application/ecmascript"><![CDATA[
document.addEventListener('DOMContentLoaded', (event) => {
  highlightEdges();
  highlightAdjacentNodes();
});
]]></script>
</svg>
