<?xml version="1.0" encoding="UTF-8" standalone="no"?>
<!DOCTYPE svg PUBLIC "-//W3C//DTD SVG 1.1//EN"
 "http://www.w3.org/Graphics/SVG/1.1/DTD/svg11.dtd">
<!-- Generated by graphviz version 2.43.0 (0)
 -->
<!-- Title: fl::TaskImpl::TaskImpl Pages: 1 -->
<svg width="404pt" height="101pt"
 viewBox="0.00 0.00 404.00 101.00" xmlns="http://www.w3.org/2000/svg" xmlns:xlink="http://www.w3.org/1999/xlink">

<svg id="main" version="1.1" xmlns="http://www.w3.org/2000/svg" xmlns:xlink="http://www.w3.org/1999/xlink" xml:space="preserve">

<style type="text/css"><![CDATA[
.node, .edge {opacity: 0.7;}
.node.selected, .edge.selected {opacity: 1;}
.edge:hover path { stroke: red; }
.edge:hover polygon { stroke: red; fill: red; }
]]></style>
<script type="application/ecmascript" xlink:href="../../svg.min.js"/>
<svg id="graph" class="graph">
<g id="graph0" class="graph" transform="scale(1 1) rotate(0) translate(4 97)">
<title>fl::TaskImpl::TaskImpl</title>
<!-- Node1 -->
<g id="Node000001" class="node">
<title>Node1</title>
<g id="a_Node000001"><a xlink:title=" ">
<polygon fill="#999999" stroke="#666666" points="122,-56 0,-56 0,-37 122,-37 122,-56"/>
<text text-anchor="middle" x="61" y="-44" font-family="Helvetica,sans-Serif" font-size="10.00">fl::TaskImpl::TaskImpl</text>
</a>
</g>
</g>
<!-- Node2 -->
<g id="Node000002" class="node">
<title>Node2</title>
<g id="a_Node000002"><a xlink:href="../../d5/d24/classfl_1_1_task_impl_ade9d9584527a873807f7995a6e1b7b90.html#ade9d9584527a873807f7995a6e1b7b90" target="_top" xlink:title=" ">
<polygon fill="white" stroke="#666666" points="294,-93 158,-93 158,-74 294,-74 294,-93"/>
<text text-anchor="middle" x="226" y="-81" font-family="Helvetica,sans-Serif" font-size="10.00">fl::TaskImpl::interval_ms</text>
</a>
</g>
</g>
<!-- Node1&#45;&gt;Node2 -->
<g id="edge1_Node000001_Node000002" class="edge">
<title>Node1&#45;&gt;Node2</title>
<g id="a_edge1_Node000001_Node000002"><a xlink:title=" ">
<path fill="none" stroke="#63b8ff" d="M103.98,-56.03C125,-60.8 150.65,-66.62 172.92,-71.68"/>
<polygon fill="#63b8ff" stroke="#63b8ff" points="172.36,-75.14 182.88,-73.94 173.91,-68.31 172.36,-75.14"/>
</a>
</g>
</g>
<!-- Node3 -->
<g id="Node000003" class="node">
<title>Node3</title>
<g id="a_Node000003"><a xlink:href="../../d4/d36/namespacefl_a2db2912842971bc75bc5528219bedc95.html#a2db2912842971bc75bc5528219bedc95" target="_top" xlink:title=" ">
<polygon fill="white" stroke="#666666" points="273,-56 179,-56 179,-37 273,-37 273,-56"/>
<text text-anchor="middle" x="226" y="-44" font-family="Helvetica,sans-Serif" font-size="10.00">fl::make_unique</text>
</a>
</g>
</g>
<!-- Node1&#45;&gt;Node3 -->
<g id="edge2_Node000001_Node000003" class="edge">
<title>Node1&#45;&gt;Node3</title>
<g id="a_edge2_Node000001_Node000003"><a xlink:title=" ">
<path fill="none" stroke="#63b8ff" d="M122.23,-46.5C137.41,-46.5 153.65,-46.5 168.63,-46.5"/>
<polygon fill="#63b8ff" stroke="#63b8ff" points="168.77,-50 178.77,-46.5 168.77,-43 168.77,-50"/>
</a>
</g>
</g>
<!-- Node5 -->
<g id="Node000005" class="node">
<title>Node5</title>
<g id="a_Node000005"><a xlink:href="../../d5/d24/classfl_1_1_task_impl_a2fdc211d7827266a72d731c3779d49ea.html#a2fdc211d7827266a72d731c3779d49ea" target="_top" xlink:title=" ">
<polygon fill="white" stroke="#666666" points="276,-19 176,-19 176,0 276,0 276,-19"/>
<text text-anchor="middle" x="226" y="-7" font-family="Helvetica,sans-Serif" font-size="10.00">fl::TaskImpl::type</text>
</a>
</g>
</g>
<!-- Node1&#45;&gt;Node5 -->
<g id="edge4_Node000001_Node000005" class="edge">
<title>Node1&#45;&gt;Node5</title>
<g id="a_edge4_Node000001_Node000005"><a xlink:title=" ">
<path fill="none" stroke="#63b8ff" d="M103.98,-36.97C125,-32.2 150.65,-26.38 172.92,-21.32"/>
<polygon fill="#63b8ff" stroke="#63b8ff" points="173.91,-24.69 182.88,-19.06 172.36,-17.86 173.91,-24.69"/>
</a>
</g>
</g>
<!-- Node4 -->
<g id="Node000004" class="node">
<title>Node4</title>
<g id="a_Node000004"><a xlink:href="../../d4/d36/namespacefl_aed7245c077ae6f226d13c9ea795694a8.html#aed7245c077ae6f226d13c9ea795694a8" target="_top" xlink:title=" ">
<polygon fill="white" stroke="#666666" points="396,-56 330,-56 330,-37 396,-37 396,-56"/>
<text text-anchor="middle" x="363" y="-44" font-family="Helvetica,sans-Serif" font-size="10.00">fl::forward</text>
</a>
</g>
</g>
<!-- Node3&#45;&gt;Node4 -->
<g id="edge3_Node000003_Node000004" class="edge">
<title>Node3&#45;&gt;Node4</title>
<g id="a_edge3_Node000003_Node000004"><a xlink:title=" ">
<path fill="none" stroke="#63b8ff" d="M273.08,-46.5C288.08,-46.5 304.65,-46.5 319.38,-46.5"/>
<polygon fill="#63b8ff" stroke="#63b8ff" points="319.74,-50 329.74,-46.5 319.74,-43 319.74,-50"/>
</a>
</g>
</g>
</g>
</svg>
</svg>

<style type='text/css'>
<![CDATA[
[data-mouse-over-selected='false'] { opacity: 0.7; }
[data-mouse-over-selected='true']  { opacity: 1.0; }
]]>
</style>
<script type="application/ecmascript"><![CDATA[
document.addEventListener('DOMContentLoaded', (event) => {
  highlightEdges();
  highlightAdjacentNodes();
});
]]></script>
</svg>
