<?xml version="1.0" encoding="UTF-8" standalone="no"?>
<!DOCTYPE svg PUBLIC "-//W3C//DTD SVG 1.1//EN"
 "http://www.w3.org/Graphics/SVG/1.1/DTD/svg11.dtd">
<!-- Generated by graphviz version 2.43.0 (0)
 -->
<!-- Title: fl::unordered_map_small::unordered_map_small Pages: 1 -->
<svg width="318pt" height="326pt"
 viewBox="0.00 0.00 318.00 326.00" xmlns="http://www.w3.org/2000/svg" xmlns:xlink="http://www.w3.org/1999/xlink">
<g id="graph0" class="graph" transform="scale(1 1) rotate(0) translate(4 322)">
<title>fl::unordered_map_small::unordered_map_small</title>
<!-- Node1 -->
<g id="Node000001" class="node">
<title>Node1</title>
<g id="a_Node000001"><a xlink:title=" ">
<polygon fill="#999999" stroke="#666666" points="310,-174 173,-174 173,-144 310,-144 310,-174"/>
<text text-anchor="start" x="181" y="-162" font-family="Helvetica,sans-Serif" font-size="10.00">fl::unordered_map_small</text>
<text text-anchor="middle" x="241.5" y="-151" font-family="Helvetica,sans-Serif" font-size="10.00">::unordered_map_small</text>
</a>
</g>
</g>
<!-- Node2 -->
<g id="Node000002" class="node">
<title>Node2</title>
<g id="a_Node000002"><a xlink:href="../../d8/dd2/classfl_1_1unordered__map__small_a587cf79d2f797c2b9237c8a4b7fb0356.html#a587cf79d2f797c2b9237c8a4b7fb0356" target="_top" xlink:title=" ">
<polygon fill="white" stroke="#666666" points="137,-318 0,-318 0,-288 137,-288 137,-318"/>
<text text-anchor="start" x="8" y="-306" font-family="Helvetica,sans-Serif" font-size="10.00">fl::unordered_map_small</text>
<text text-anchor="middle" x="68.5" y="-295" font-family="Helvetica,sans-Serif" font-size="10.00">::unordered_map_small</text>
</a>
</g>
</g>
<!-- Node1&#45;&gt;Node2 -->
<g id="edge1_Node000001_Node000002" class="edge">
<title>Node1&#45;&gt;Node2</title>
<g id="a_edge1_Node000001_Node000002"><a xlink:title=" ">
<path fill="none" stroke="#63b8ff" d="M225.74,-182.53C207.8,-209.36 175.14,-252.89 137,-279 132.07,-282.37 126.62,-285.32 121.01,-287.89"/>
<polygon fill="#63b8ff" stroke="#63b8ff" points="228.7,-184.4 231.25,-174.12 222.84,-180.57 228.7,-184.4"/>
</a>
</g>
</g>
<!-- Node3 -->
<g id="Node000003" class="node">
<title>Node3</title>
<g id="a_Node000003"><a xlink:href="../../d8/dd2/classfl_1_1unordered__map__small_a13ec23fc0fe9dd197097cb8d0790b794.html#a13ec23fc0fe9dd197097cb8d0790b794" target="_top" xlink:title=" ">
<polygon fill="white" stroke="#666666" points="137,-270 0,-270 0,-240 137,-240 137,-270"/>
<text text-anchor="start" x="8" y="-258" font-family="Helvetica,sans-Serif" font-size="10.00">fl::unordered_map_small</text>
<text text-anchor="middle" x="68.5" y="-247" font-family="Helvetica,sans-Serif" font-size="10.00">::unordered_map_small</text>
</a>
</g>
</g>
<!-- Node1&#45;&gt;Node3 -->
<g id="edge2_Node000001_Node000003" class="edge">
<title>Node1&#45;&gt;Node3</title>
<g id="a_edge2_Node000001_Node000003"><a xlink:title=" ">
<path fill="none" stroke="#63b8ff" d="M213.92,-180.46C193.72,-196.01 164.77,-216.73 137,-231 130.69,-234.24 123.85,-237.23 117.02,-239.91"/>
<polygon fill="#63b8ff" stroke="#63b8ff" points="216.28,-183.06 222.01,-174.15 211.97,-177.54 216.28,-183.06"/>
</a>
</g>
</g>
<!-- Node4 -->
<g id="Node000004" class="node">
<title>Node4</title>
<g id="a_Node000004"><a xlink:href="../../d8/dd2/classfl_1_1unordered__map__small_aa1b7a572e798de21bb845d2639a93fa8.html#aa1b7a572e798de21bb845d2639a93fa8" target="_top" xlink:title=" ">
<polygon fill="white" stroke="#666666" points="137,-222 0,-222 0,-192 137,-192 137,-222"/>
<text text-anchor="start" x="8" y="-210" font-family="Helvetica,sans-Serif" font-size="10.00">fl::unordered_map_small</text>
<text text-anchor="middle" x="68.5" y="-199" font-family="Helvetica,sans-Serif" font-size="10.00">::operator!=</text>
</a>
</g>
</g>
<!-- Node1&#45;&gt;Node4 -->
<g id="edge3_Node000001_Node000004" class="edge">
<title>Node1&#45;&gt;Node4</title>
<g id="a_edge3_Node000001_Node000004"><a xlink:title=" ">
<path fill="none" stroke="#63b8ff" d="M177.13,-176.79C159.31,-181.79 140.12,-187.18 122.95,-192"/>
<polygon fill="#63b8ff" stroke="#63b8ff" points="178.18,-180.13 186.86,-174.06 176.29,-173.39 178.18,-180.13"/>
</a>
</g>
</g>
<!-- Node5 -->
<g id="Node000005" class="node">
<title>Node5</title>
<g id="a_Node000005"><a xlink:href="../../d8/dd2/classfl_1_1unordered__map__small_acd164f4620f490c12c41a757e2eb15a0.html#acd164f4620f490c12c41a757e2eb15a0" target="_top" xlink:title=" ">
<polygon fill="white" stroke="#666666" points="137,-174 0,-174 0,-144 137,-144 137,-174"/>
<text text-anchor="start" x="8" y="-162" font-family="Helvetica,sans-Serif" font-size="10.00">fl::unordered_map_small</text>
<text text-anchor="middle" x="68.5" y="-151" font-family="Helvetica,sans-Serif" font-size="10.00">::operator=</text>
</a>
</g>
</g>
<!-- Node1&#45;&gt;Node5 -->
<g id="edge4_Node000001_Node000005" class="edge">
<title>Node1&#45;&gt;Node5</title>
<g id="a_edge4_Node000001_Node000005"><a xlink:title=" ">
<path fill="none" stroke="#63b8ff" d="M162.9,-159C154.31,-159 145.61,-159 137.15,-159"/>
<polygon fill="#63b8ff" stroke="#63b8ff" points="162.92,-162.5 172.92,-159 162.92,-155.5 162.92,-162.5"/>
</a>
</g>
</g>
<!-- Node6 -->
<g id="Node000006" class="node">
<title>Node6</title>
<g id="a_Node000006"><a xlink:href="../../d8/dd2/classfl_1_1unordered__map__small_a672bec767cf267989cf8325525420aab.html#a672bec767cf267989cf8325525420aab" target="_top" xlink:title=" ">
<polygon fill="white" stroke="#666666" points="137,-126 0,-126 0,-96 137,-96 137,-126"/>
<text text-anchor="start" x="8" y="-114" font-family="Helvetica,sans-Serif" font-size="10.00">fl::unordered_map_small</text>
<text text-anchor="middle" x="68.5" y="-103" font-family="Helvetica,sans-Serif" font-size="10.00">::operator=</text>
</a>
</g>
</g>
<!-- Node1&#45;&gt;Node6 -->
<g id="edge5_Node000001_Node000006" class="edge">
<title>Node1&#45;&gt;Node6</title>
<g id="a_edge5_Node000001_Node000006"><a xlink:title=" ">
<path fill="none" stroke="#63b8ff" d="M177.13,-141.21C159.31,-136.21 140.12,-130.82 122.95,-126"/>
<polygon fill="#63b8ff" stroke="#63b8ff" points="176.29,-144.61 186.86,-143.94 178.18,-137.87 176.29,-144.61"/>
</a>
</g>
</g>
<!-- Node7 -->
<g id="Node000007" class="node">
<title>Node7</title>
<g id="a_Node000007"><a xlink:href="../../d8/dd2/classfl_1_1unordered__map__small_aa4297e0dd3ec89b94a741928d1b378fe.html#aa4297e0dd3ec89b94a741928d1b378fe" target="_top" xlink:title=" ">
<polygon fill="white" stroke="#666666" points="137,-78 0,-78 0,-48 137,-48 137,-78"/>
<text text-anchor="start" x="8" y="-66" font-family="Helvetica,sans-Serif" font-size="10.00">fl::unordered_map_small</text>
<text text-anchor="middle" x="68.5" y="-55" font-family="Helvetica,sans-Serif" font-size="10.00">::operator==</text>
</a>
</g>
</g>
<!-- Node1&#45;&gt;Node7 -->
<g id="edge6_Node000001_Node000007" class="edge">
<title>Node1&#45;&gt;Node7</title>
<g id="a_edge6_Node000001_Node000007"><a xlink:title=" ">
<path fill="none" stroke="#63b8ff" d="M213.92,-137.54C193.72,-121.99 164.77,-101.27 137,-87 130.69,-83.76 123.85,-80.77 117.02,-78.09"/>
<polygon fill="#63b8ff" stroke="#63b8ff" points="211.97,-140.46 222.01,-143.85 216.28,-134.94 211.97,-140.46"/>
</a>
</g>
</g>
<!-- Node8 -->
<g id="Node000008" class="node">
<title>Node8</title>
<g id="a_Node000008"><a xlink:href="../../d8/dd2/classfl_1_1unordered__map__small_a5720d971bb57e62ee712ac04fe9fb734.html#a5720d971bb57e62ee712ac04fe9fb734" target="_top" xlink:title=" ">
<polygon fill="white" stroke="#666666" points="137,-30 0,-30 0,0 137,0 137,-30"/>
<text text-anchor="start" x="8" y="-18" font-family="Helvetica,sans-Serif" font-size="10.00">fl::unordered_map_small</text>
<text text-anchor="middle" x="68.5" y="-7" font-family="Helvetica,sans-Serif" font-size="10.00">::swap</text>
</a>
</g>
</g>
<!-- Node1&#45;&gt;Node8 -->
<g id="edge7_Node000001_Node000008" class="edge">
<title>Node1&#45;&gt;Node8</title>
<g id="a_edge7_Node000001_Node000008"><a xlink:title=" ">
<path fill="none" stroke="#63b8ff" d="M225.74,-135.47C207.8,-108.64 175.14,-65.11 137,-39 132.07,-35.63 126.62,-32.68 121.01,-30.11"/>
<polygon fill="#63b8ff" stroke="#63b8ff" points="222.84,-137.43 231.25,-143.88 228.7,-133.6 222.84,-137.43"/>
</a>
</g>
</g>
</g>
</svg>
