<?xml version="1.0" encoding="UTF-8" standalone="no"?>
<!DOCTYPE svg PUBLIC "-//W3C//DTD SVG 1.1//EN"
 "http://www.w3.org/Graphics/SVG/1.1/DTD/svg11.dtd">
<!-- Generated by graphviz version 2.43.0 (0)
 -->
<!-- Title: fl/transform.h Pages: 1 -->
<!--zoomable 291 -->

<svg id="main" version="1.1" xmlns="http://www.w3.org/2000/svg" xmlns:xlink="http://www.w3.org/1999/xlink" xml:space="preserve" onload="init(evt)">

<style type="text/css"><![CDATA[
.node, .edge {opacity: 0.7;}
.node.selected, .edge.selected {opacity: 1;}
.edge:hover path { stroke: red; }
.edge:hover polygon { stroke: red; fill: red; }
]]></style>

<defs>
  <circle id="rim" cx="0" cy="0" r="7"/>
  <circle id="rim2" cx="0" cy="0" r="3.5"/>
  <g id="zoomPlus">
    <use xlink:href="#rim" fill="#404040"><set attributeName="fill" to="#808080" begin="zoomplus.mouseover" end="zoomplus.mouseout"/></use>
    <path d="M-4,0h8M0,-4v8" fill="none" stroke="white" stroke-width="1.5" pointer-events="none"/>
  </g>
  <g id="zoomMin">
    <use xlink:href="#rim" fill="#404040"><set attributeName="fill" to="#808080" begin="zoomminus.mouseover" end="zoomminus.mouseout"/></use>
    <path d="M-4,0h8" fill="none" stroke="white" stroke-width="1.5" pointer-events="none"/>
  </g>
  <g id="arrowUp" transform="translate(30 24)">
    <use xlink:href="#rim"/>
    <path pointer-events="none" fill="none" stroke="white" stroke-width="1.5" d="M0,-3.0v7 M-2.5,-0.5L0,-3.0L2.5,-0.5"/>
  </g>
  <g id="arrowRight" transform="rotate(90) translate(36 -43)">
    <use xlink:href="#rim"/>
    <path pointer-events="none" fill="none" stroke="white" stroke-width="1.5" d="M0,-3.0v7 M-2.5,-0.5L0,-3.0L2.5,-0.5"/>
  </g>
  <g id="arrowDown" transform="rotate(180) translate(-30 -48)">
    <use xlink:href="#rim"/>
    <path pointer-events="none" fill="none" stroke="white" stroke-width="1.5" d="M0,-3.0v7 M-2.5,-0.5L0,-3.0L2.5,-0.5"/>
  </g>
  <g id="arrowLeft" transform="rotate(270) translate(-36 17)">
    <use xlink:href="#rim"/>
    <path pointer-events="none" fill="none" stroke="white" stroke-width="1.5" d="M0,-3.0v7 M-2.5,-0.5L0,-3.0L2.5,-0.5"/>
  </g>
  <g id="resetDef">
    <use xlink:href="#rim2" fill="#404040"><set attributeName="fill" to="#808080" begin="reset.mouseover" end="reset.mouseout"/></use>
  </g>
</defs>
<script type="application/ecmascript">
var viewWidth = 1150;
var viewHeight = 291;
var sectionId = 'dynsection-1';
</script>
<script type="application/ecmascript" xlink:href="../../svg.min.js"/>
<svg id="graph" class="graph">
<g id="viewport">
<title>fl/transform.h</title>
<!-- Node1 -->
<g id="Node000001" class="node">
<title>Node1</title>
<g id="a_Node000001"><a xlink:title=" ">
<polygon fill="#999999" stroke="#666666" points="777.5,-283 694.5,-283 694.5,-264 777.5,-264 777.5,-283"/>
<text text-anchor="middle" x="736" y="-271" font-family="Helvetica,sans-Serif" font-size="10.00">fl/transform.h</text>
</a>
</g>
</g>
<!-- Node2 -->
<g id="Node000002" class="node">
<title>Node2</title>
<g id="a_Node000002"><a xlink:href="../../d8/d8c/transform_8cpp.html" target="_top" xlink:title=" ">
<polygon fill="white" stroke="#666666" points="669,-228 575,-228 575,-209 669,-209 669,-228"/>
<text text-anchor="middle" x="622" y="-216" font-family="Helvetica,sans-Serif" font-size="10.00">fl/transform.cpp</text>
</a>
</g>
</g>
<!-- Node1&#45;&gt;Node2 -->
<g id="edge1_Node000001_Node000002" class="edge">
<title>Node1&#45;&gt;Node2</title>
<g id="a_edge1_Node000001_Node000002"><a xlink:title=" ">
<path fill="none" stroke="#63b8ff" d="M708.61,-259.77C687.58,-249.99 659.11,-236.75 640.65,-228.17"/>
<polygon fill="#63b8ff" stroke="#63b8ff" points="707.14,-262.94 717.68,-263.98 710.09,-256.6 707.14,-262.94"/>
</a>
</g>
</g>
<!-- Node3 -->
<g id="Node000003" class="node">
<title>Node3</title>
<g id="a_Node000003"><a xlink:href="../../d5/df2/xypath_8h.html" target="_top" xlink:title=" ">
<polygon fill="white" stroke="#666666" points="702,-173 634,-173 634,-154 702,-154 702,-173"/>
<text text-anchor="middle" x="668" y="-161" font-family="Helvetica,sans-Serif" font-size="10.00">fl/xypath.h</text>
</a>
</g>
</g>
<!-- Node1&#45;&gt;Node3 -->
<g id="edge2_Node000001_Node000003" class="edge">
<title>Node1&#45;&gt;Node3</title>
<g id="a_edge2_Node000001_Node000003"><a xlink:title=" ">
<path fill="none" stroke="#63b8ff" d="M725.03,-255.07C710.28,-231.64 684.62,-190.89 673.45,-173.16"/>
<polygon fill="#63b8ff" stroke="#63b8ff" points="722.15,-257.06 730.44,-263.66 728.07,-253.33 722.15,-257.06"/>
</a>
</g>
</g>
<!-- Node15 -->
<g id="Node000015" class="node">
<title>Node15</title>
<g id="a_Node000015"><a xlink:href="../../d8/d5f/xypath__impls_8h.html" target="_top" xlink:title=" ">
<polygon fill="white" stroke="#666666" points="826.5,-228 725.5,-228 725.5,-209 826.5,-209 826.5,-228"/>
<text text-anchor="middle" x="776" y="-216" font-family="Helvetica,sans-Serif" font-size="10.00">fl/xypath_impls.h</text>
</a>
</g>
</g>
<!-- Node1&#45;&gt;Node15 -->
<g id="edge20_Node000001_Node000015" class="edge">
<title>Node1&#45;&gt;Node15</title>
<g id="a_edge20_Node000001_Node000015"><a xlink:title=" ">
<path fill="none" stroke="#63b8ff" d="M748.7,-255.67C755.63,-246.5 763.91,-235.52 769.52,-228.09"/>
<polygon fill="#63b8ff" stroke="#63b8ff" points="745.84,-253.66 742.61,-263.75 751.42,-257.87 745.84,-253.66"/>
</a>
</g>
</g>
<!-- Node17 -->
<g id="Node000017" class="node">
<title>Node17</title>
<g id="a_Node000017"><a xlink:href="../../d2/d88/xypath__renderer_8h.html" target="_top" xlink:title=" ">
<polygon fill="white" stroke="#666666" points="973,-228 859,-228 859,-209 973,-209 973,-228"/>
<text text-anchor="middle" x="916" y="-216" font-family="Helvetica,sans-Serif" font-size="10.00">fl/xypath_renderer.h</text>
</a>
</g>
</g>
<!-- Node1&#45;&gt;Node17 -->
<g id="edge23_Node000001_Node000017" class="edge">
<title>Node1&#45;&gt;Node17</title>
<g id="a_edge23_Node000001_Node000017"><a xlink:title=" ">
<path fill="none" stroke="#63b8ff" d="M774.87,-261.06C808.51,-251.15 856.42,-237.04 886.85,-228.08"/>
<polygon fill="#63b8ff" stroke="#63b8ff" points="773.52,-257.8 764.92,-263.98 775.5,-264.52 773.52,-257.8"/>
</a>
</g>
</g>
<!-- Node4 -->
<g id="Node000004" class="node">
<title>Node4</title>
<g id="a_Node000004"><a xlink:href="../../db/d49/_audio_2simple_2simple_8h.html" target="_top" xlink:title=" ">
<polygon fill="white" stroke="#666666" points="564,-118 414,-118 414,-77 564,-77 564,-118"/>
<text text-anchor="start" x="422" y="-106" font-family="Helvetica,sans-Serif" font-size="10.00">/home/runner/work/FastLED</text>
<text text-anchor="start" x="422" y="-95" font-family="Helvetica,sans-Serif" font-size="10.00">/FastLED/examples/Audio</text>
<text text-anchor="middle" x="489" y="-84" font-family="Helvetica,sans-Serif" font-size="10.00">/simple/simple.h</text>
</a>
</g>
</g>
<!-- Node3&#45;&gt;Node4 -->
<g id="edge3_Node000003_Node000004" class="edge">
<title>Node3&#45;&gt;Node4</title>
<g id="a_edge3_Node000003_Node000004"><a xlink:title=" ">
<path fill="none" stroke="#63b8ff" d="M634.26,-150.44C608.73,-141.31 573.13,-128.58 543.56,-118.01"/>
<polygon fill="#63b8ff" stroke="#63b8ff" points="633.26,-153.8 643.86,-153.87 635.62,-147.21 633.26,-153.8"/>
</a>
</g>
</g>
<!-- Node5 -->
<g id="Node000005" class="node">
<title>Node5</title>
<g id="a_Node000005"><a xlink:href="../../d6/d1a/examples_2_downscale_2downscale_8h.html" target="_top" xlink:title=" ">
<polygon fill="white" stroke="#666666" points="837.5,-41 672.5,-41 672.5,0 837.5,0 837.5,-41"/>
<text text-anchor="start" x="680.5" y="-29" font-family="Helvetica,sans-Serif" font-size="10.00">/home/runner/work/FastLED</text>
<text text-anchor="start" x="680.5" y="-18" font-family="Helvetica,sans-Serif" font-size="10.00">/FastLED/examples/Downscale</text>
<text text-anchor="middle" x="755" y="-7" font-family="Helvetica,sans-Serif" font-size="10.00">/Downscale.h</text>
</a>
</g>
</g>
<!-- Node3&#45;&gt;Node5 -->
<g id="edge4_Node000003_Node000005" class="edge">
<title>Node3&#45;&gt;Node5</title>
<g id="a_edge4_Node000003_Node000005"><a xlink:title=" ">
<path fill="none" stroke="#63b8ff" d="M668.97,-143.59C670.66,-125.34 675.3,-97.51 688,-77 696.83,-62.75 710.59,-50.42 723.36,-41.03"/>
<polygon fill="#63b8ff" stroke="#63b8ff" points="665.46,-143.58 668.24,-153.81 672.44,-144.08 665.46,-143.58"/>
</a>
</g>
</g>
<!-- Node6 -->
<g id="Node000006" class="node">
<title>Node6</title>
<g id="a_Node000006"><a xlink:href="../../dd/d96/_downscale_2src_2xypaths_8cpp.html" target="_top" xlink:title=" ">
<polygon fill="white" stroke="#666666" points="1020.5,-41 855.5,-41 855.5,0 1020.5,0 1020.5,-41"/>
<text text-anchor="start" x="863.5" y="-29" font-family="Helvetica,sans-Serif" font-size="10.00">/home/runner/work/FastLED</text>
<text text-anchor="start" x="863.5" y="-18" font-family="Helvetica,sans-Serif" font-size="10.00">/FastLED/examples/Downscale</text>
<text text-anchor="middle" x="938" y="-7" font-family="Helvetica,sans-Serif" font-size="10.00">/src/xypaths.cpp</text>
</a>
</g>
</g>
<!-- Node3&#45;&gt;Node6 -->
<g id="edge5_Node000003_Node000006" class="edge">
<title>Node3&#45;&gt;Node6</title>
<g id="a_edge5_Node000003_Node000006"><a xlink:title=" ">
<path fill="none" stroke="#63b8ff" d="M712.46,-156.62C764.1,-149.13 845.47,-135.09 871,-118 885.83,-108.07 911.69,-66.62 926.58,-41.39"/>
<polygon fill="#63b8ff" stroke="#63b8ff" points="711.65,-153.2 702.24,-158.07 712.63,-160.13 711.65,-153.2"/>
</a>
</g>
</g>
<!-- Node7 -->
<g id="Node000007" class="node">
<title>Node7</title>
<g id="a_Node000007"><a xlink:href="../../de/d75/_downscale_2src_2xypaths_8h.html" target="_top" xlink:title=" ">
<polygon fill="white" stroke="#666666" points="861.5,-118 696.5,-118 696.5,-77 861.5,-77 861.5,-118"/>
<text text-anchor="start" x="704.5" y="-106" font-family="Helvetica,sans-Serif" font-size="10.00">/home/runner/work/FastLED</text>
<text text-anchor="start" x="704.5" y="-95" font-family="Helvetica,sans-Serif" font-size="10.00">/FastLED/examples/Downscale</text>
<text text-anchor="middle" x="779" y="-84" font-family="Helvetica,sans-Serif" font-size="10.00">/src/xypaths.h</text>
</a>
</g>
</g>
<!-- Node3&#45;&gt;Node7 -->
<g id="edge6_Node000003_Node000007" class="edge">
<title>Node3&#45;&gt;Node7</title>
<g id="a_edge6_Node000003_Node000007"><a xlink:title=" ">
<path fill="none" stroke="#63b8ff" d="M691.93,-148.7C707.48,-139.74 727.97,-127.92 745.16,-118.01"/>
<polygon fill="#63b8ff" stroke="#63b8ff" points="689.88,-145.84 682.97,-153.87 693.38,-151.91 689.88,-145.84"/>
</a>
</g>
</g>
<!-- Node8 -->
<g id="Node000008" class="node">
<title>Node8</title>
<g id="a_Node000008"><a xlink:href="../../d7/d3b/complex_8h.html" target="_top" xlink:title=" ">
<polygon fill="white" stroke="#666666" points="486,-41 336,-41 336,0 486,0 486,-41"/>
<text text-anchor="start" x="344" y="-29" font-family="Helvetica,sans-Serif" font-size="10.00">/home/runner/work/FastLED</text>
<text text-anchor="start" x="344" y="-18" font-family="Helvetica,sans-Serif" font-size="10.00">/FastLED/examples/XYPath</text>
<text text-anchor="middle" x="411" y="-7" font-family="Helvetica,sans-Serif" font-size="10.00">/complex.h</text>
</a>
</g>
</g>
<!-- Node3&#45;&gt;Node8 -->
<g id="edge9_Node000003_Node000008" class="edge">
<title>Node3&#45;&gt;Node8</title>
<g id="a_edge9_Node000003_Node000008"><a xlink:title=" ">
<path fill="none" stroke="#63b8ff" d="M647.93,-147.63C637,-139.28 623.42,-128.45 612,-118 593.44,-101.02 594.17,-90.58 573,-77 546.72,-60.15 514.75,-47.78 486.17,-39.06"/>
<polygon fill="#63b8ff" stroke="#63b8ff" points="645.94,-150.52 656.03,-153.75 650.16,-144.93 645.94,-150.52"/>
</a>
</g>
</g>
<!-- Node9 -->
<g id="Node000009" class="node">
<title>Node9</title>
<g id="a_Node000009"><a xlink:href="../../d6/daf/direct_8h.html" target="_top" xlink:title=" ">
<polygon fill="white" stroke="#666666" points="654,-41 504,-41 504,0 654,0 654,-41"/>
<text text-anchor="start" x="512" y="-29" font-family="Helvetica,sans-Serif" font-size="10.00">/home/runner/work/FastLED</text>
<text text-anchor="start" x="512" y="-18" font-family="Helvetica,sans-Serif" font-size="10.00">/FastLED/examples/XYPath</text>
<text text-anchor="middle" x="579" y="-7" font-family="Helvetica,sans-Serif" font-size="10.00">/direct.h</text>
</a>
</g>
</g>
<!-- Node3&#45;&gt;Node9 -->
<g id="edge10_Node000003_Node000009" class="edge">
<title>Node3&#45;&gt;Node9</title>
<g id="a_edge10_Node000003_Node000009"><a xlink:title=" ">
<path fill="none" stroke="#63b8ff" d="M657.03,-145.12C640.4,-118.78 608.91,-68.88 591.44,-41.21"/>
<polygon fill="#63b8ff" stroke="#63b8ff" points="654.14,-147.09 662.43,-153.68 660.05,-143.36 654.14,-147.09"/>
</a>
</g>
</g>
<!-- Node10 -->
<g id="Node000010" class="node">
<title>Node10</title>
<g id="a_Node000010"><a xlink:href="../../d3/d52/_x_y_path_2simple_8h.html" target="_top" xlink:title=" ">
<polygon fill="white" stroke="#666666" points="150,-41 0,-41 0,0 150,0 150,-41"/>
<text text-anchor="start" x="8" y="-29" font-family="Helvetica,sans-Serif" font-size="10.00">/home/runner/work/FastLED</text>
<text text-anchor="start" x="8" y="-18" font-family="Helvetica,sans-Serif" font-size="10.00">/FastLED/examples/XYPath</text>
<text text-anchor="middle" x="75" y="-7" font-family="Helvetica,sans-Serif" font-size="10.00">/simple.h</text>
</a>
</g>
</g>
<!-- Node3&#45;&gt;Node10 -->
<g id="edge11_Node000003_Node000010" class="edge">
<title>Node3&#45;&gt;Node10</title>
<g id="a_edge11_Node000003_Node000010"><a xlink:title=" ">
<path fill="none" stroke="#63b8ff" d="M623.79,-160.77C526.23,-156.52 295.34,-143.96 222,-118 173.36,-100.79 124.88,-64.24 97.54,-41.4"/>
<polygon fill="#63b8ff" stroke="#63b8ff" points="623.77,-164.27 633.91,-161.2 624.07,-157.28 623.77,-164.27"/>
</a>
</g>
</g>
<!-- Node11 -->
<g id="Node000011" class="node">
<title>Node11</title>
<g id="a_Node000011"><a xlink:href="../../d8/d55/_x_y_path_2src_2xypaths_8cpp.html" target="_top" xlink:title=" ">
<polygon fill="white" stroke="#666666" points="318,-41 168,-41 168,0 318,0 318,-41"/>
<text text-anchor="start" x="176" y="-29" font-family="Helvetica,sans-Serif" font-size="10.00">/home/runner/work/FastLED</text>
<text text-anchor="start" x="176" y="-18" font-family="Helvetica,sans-Serif" font-size="10.00">/FastLED/examples/XYPath</text>
<text text-anchor="middle" x="243" y="-7" font-family="Helvetica,sans-Serif" font-size="10.00">/src/xypaths.cpp</text>
</a>
</g>
</g>
<!-- Node3&#45;&gt;Node11 -->
<g id="edge12_Node000003_Node000011" class="edge">
<title>Node3&#45;&gt;Node11</title>
<g id="a_edge12_Node000003_Node000011"><a xlink:title=" ">
<path fill="none" stroke="#63b8ff" d="M623.56,-161.21C518.67,-157.72 262.57,-146.35 237,-118 218.34,-97.31 226.4,-62.88 234.38,-41.22"/>
<polygon fill="#63b8ff" stroke="#63b8ff" points="623.71,-164.72 633.82,-161.55 623.93,-157.72 623.71,-164.72"/>
</a>
</g>
</g>
<!-- Node12 -->
<g id="Node000012" class="node">
<title>Node12</title>
<g id="a_Node000012"><a xlink:href="../../d7/d5e/_x_y_path_2src_2xypaths_8h.html" target="_top" xlink:title=" ">
<polygon fill="white" stroke="#666666" points="396,-118 246,-118 246,-77 396,-77 396,-118"/>
<text text-anchor="start" x="254" y="-106" font-family="Helvetica,sans-Serif" font-size="10.00">/home/runner/work/FastLED</text>
<text text-anchor="start" x="254" y="-95" font-family="Helvetica,sans-Serif" font-size="10.00">/FastLED/examples/XYPath</text>
<text text-anchor="middle" x="321" y="-84" font-family="Helvetica,sans-Serif" font-size="10.00">/src/xypaths.h</text>
</a>
</g>
</g>
<!-- Node3&#45;&gt;Node12 -->
<g id="edge13_Node000003_Node000012" class="edge">
<title>Node3&#45;&gt;Node12</title>
<g id="a_edge13_Node000003_Node000012"><a xlink:title=" ">
<path fill="none" stroke="#63b8ff" d="M623.88,-155.87C571.51,-147.81 481.62,-133.36 405,-118 402.06,-117.41 399.07,-116.8 396.06,-116.16"/>
<polygon fill="#63b8ff" stroke="#63b8ff" points="623.42,-159.34 633.83,-157.4 624.48,-152.42 623.42,-159.34"/>
</a>
</g>
</g>
<!-- Node13 -->
<g id="Node000013" class="node">
<title>Node13</title>
<g id="a_Node000013"><a xlink:href="../../d4/d78/xypath_8cpp.html" target="_top" xlink:title=" ">
<polygon fill="white" stroke="#666666" points="998,-107 918,-107 918,-88 998,-88 998,-107"/>
<text text-anchor="middle" x="958" y="-95" font-family="Helvetica,sans-Serif" font-size="10.00">fl/xypath.cpp</text>
</a>
</g>
</g>
<!-- Node3&#45;&gt;Node13 -->
<g id="edge18_Node000003_Node000013" class="edge">
<title>Node3&#45;&gt;Node13</title>
<g id="a_edge18_Node000003_Node000013"><a xlink:title=" ">
<path fill="none" stroke="#63b8ff" d="M712.41,-156.3C760.21,-149.12 838.23,-135.95 904,-118 914.96,-115.01 926.87,-110.81 936.71,-107.08"/>
<polygon fill="#63b8ff" stroke="#63b8ff" points="711.77,-152.86 702.39,-157.78 712.8,-159.78 711.77,-152.86"/>
</a>
</g>
</g>
<!-- Node14 -->
<g id="Node000014" class="node">
<title>Node14</title>
<g id="a_Node000014"><a xlink:href="../../d2/d31/xypath__renderer_8cpp.html" target="_top" xlink:title=" ">
<polygon fill="white" stroke="#666666" points="1141.5,-107 1016.5,-107 1016.5,-88 1141.5,-88 1141.5,-107"/>
<text text-anchor="middle" x="1079" y="-95" font-family="Helvetica,sans-Serif" font-size="10.00">fl/xypath_renderer.cpp</text>
</a>
</g>
</g>
<!-- Node3&#45;&gt;Node14 -->
<g id="edge19_Node000003_Node000014" class="edge">
<title>Node3&#45;&gt;Node14</title>
<g id="a_edge19_Node000003_Node000014"><a xlink:title=" ">
<path fill="none" stroke="#63b8ff" d="M712.22,-157.03C797.47,-146.44 978.68,-123.67 1007,-118 1021.6,-115.08 1037.62,-110.85 1050.82,-107.07"/>
<polygon fill="#63b8ff" stroke="#63b8ff" points="711.56,-153.59 702.07,-158.29 712.43,-160.53 711.56,-153.59"/>
</a>
</g>
</g>
<!-- Node7&#45;&gt;Node5 -->
<g id="edge7_Node000007_Node000005" class="edge">
<title>Node7&#45;&gt;Node5</title>
<g id="a_edge7_Node000007_Node000005"><a xlink:title=" ">
<path fill="none" stroke="#63b8ff" d="M769.64,-67.26C766.83,-58.48 763.82,-49.07 761.26,-41.07"/>
<polygon fill="#63b8ff" stroke="#63b8ff" points="766.31,-68.34 772.69,-76.79 772.98,-66.2 766.31,-68.34"/>
</a>
</g>
</g>
<!-- Node7&#45;&gt;Node6 -->
<g id="edge8_Node000007_Node000006" class="edge">
<title>Node7&#45;&gt;Node6</title>
<g id="a_edge8_Node000007_Node000006"><a xlink:title=" ">
<path fill="none" stroke="#63b8ff" d="M829.41,-72.72C851.05,-62.51 876.03,-50.73 896.57,-41.04"/>
<polygon fill="#63b8ff" stroke="#63b8ff" points="827.91,-69.56 820.36,-76.99 830.9,-75.89 827.91,-69.56"/>
</a>
</g>
</g>
<!-- Node12&#45;&gt;Node8 -->
<g id="edge14_Node000012_Node000008" class="edge">
<title>Node12&#45;&gt;Node8</title>
<g id="a_edge14_Node000012_Node000008"><a xlink:title=" ">
<path fill="none" stroke="#63b8ff" d="M352.38,-70.35C363.92,-60.73 376.78,-50.01 387.51,-41.07"/>
<polygon fill="#63b8ff" stroke="#63b8ff" points="350.09,-67.7 344.65,-76.79 354.57,-73.08 350.09,-67.7"/>
</a>
</g>
</g>
<!-- Node12&#45;&gt;Node9 -->
<g id="edge15_Node000012_Node000009" class="edge">
<title>Node12&#45;&gt;Node9</title>
<g id="a_edge15_Node000012_Node000009"><a xlink:title=" ">
<path fill="none" stroke="#63b8ff" d="M398.13,-74.08C434.28,-63.57 476.96,-51.16 511.78,-41.04"/>
<polygon fill="#63b8ff" stroke="#63b8ff" points="396.74,-70.84 388.11,-76.99 398.69,-77.56 396.74,-70.84"/>
</a>
</g>
</g>
<!-- Node12&#45;&gt;Node10 -->
<g id="edge16_Node000012_Node000010" class="edge">
<title>Node12&#45;&gt;Node10</title>
<g id="a_edge16_Node000012_Node000010"><a xlink:title=" ">
<path fill="none" stroke="#63b8ff" d="M247.02,-73.94C212.64,-63.46 172.15,-51.12 139.1,-41.04"/>
<polygon fill="#63b8ff" stroke="#63b8ff" points="246.42,-77.42 257.01,-76.99 248.46,-70.73 246.42,-77.42"/>
</a>
</g>
</g>
<!-- Node12&#45;&gt;Node11 -->
<g id="edge17_Node000012_Node000011" class="edge">
<title>Node12&#45;&gt;Node11</title>
<g id="a_edge17_Node000012_Node000011"><a xlink:title=" ">
<path fill="none" stroke="#63b8ff" d="M293.22,-69.79C283.37,-60.32 272.47,-49.84 263.36,-41.07"/>
<polygon fill="#63b8ff" stroke="#63b8ff" points="290.87,-72.39 300.51,-76.79 295.72,-67.34 290.87,-72.39"/>
</a>
</g>
</g>
<!-- Node15&#45;&gt;Node3 -->
<g id="edge21_Node000015_Node000003" class="edge">
<title>Node15&#45;&gt;Node3</title>
<g id="a_edge21_Node000015_Node000003"><a xlink:title=" ">
<path fill="none" stroke="#63b8ff" d="M749.51,-204.5C729.64,-194.75 703,-181.68 685.67,-173.17"/>
<polygon fill="#63b8ff" stroke="#63b8ff" points="748.13,-207.72 758.65,-208.98 751.21,-201.44 748.13,-207.72"/>
</a>
</g>
</g>
<!-- Node16 -->
<g id="Node000016" class="node">
<title>Node16</title>
<g id="a_Node000016"><a xlink:href="../../d4/db1/xypath__impls_8cpp.html" target="_top" xlink:title=" ">
<polygon fill="white" stroke="#666666" points="860,-173 748,-173 748,-154 860,-154 860,-173"/>
<text text-anchor="middle" x="804" y="-161" font-family="Helvetica,sans-Serif" font-size="10.00">fl/xypath_impls.cpp</text>
</a>
</g>
</g>
<!-- Node15&#45;&gt;Node16 -->
<g id="edge22_Node000015_Node000016" class="edge">
<title>Node15&#45;&gt;Node16</title>
<g id="a_edge22_Node000015_Node000016"><a xlink:title=" ">
<path fill="none" stroke="#63b8ff" d="M785.34,-199.82C790.09,-190.82 795.66,-180.29 799.46,-173.09"/>
<polygon fill="#63b8ff" stroke="#63b8ff" points="782.2,-198.27 780.62,-208.75 788.39,-201.54 782.2,-198.27"/>
</a>
</g>
</g>
<!-- Node17&#45;&gt;Node13 -->
<g id="edge24_Node000017_Node000013" class="edge">
<title>Node17&#45;&gt;Node13</title>
<g id="a_edge24_Node000017_Node000013"><a xlink:title=" ">
<path fill="none" stroke="#63b8ff" d="M922.46,-199.21C931.63,-173.23 948.06,-126.65 954.89,-107.3"/>
<polygon fill="#63b8ff" stroke="#63b8ff" points="919.05,-198.35 919.02,-208.94 925.65,-200.68 919.05,-198.35"/>
</a>
</g>
</g>
<!-- Node17&#45;&gt;Node14 -->
<g id="edge26_Node000017_Node000014" class="edge">
<title>Node17&#45;&gt;Node14</title>
<g id="a_edge26_Node000017_Node000014"><a xlink:title=" ">
<path fill="none" stroke="#63b8ff" d="M936.02,-202.88C970.28,-177.87 1039.14,-127.6 1066.94,-107.3"/>
<polygon fill="#63b8ff" stroke="#63b8ff" points="933.74,-200.22 927.72,-208.94 937.86,-205.87 933.74,-200.22"/>
</a>
</g>
</g>
<!-- Node17&#45;&gt;Node16 -->
<g id="edge25_Node000017_Node000016" class="edge">
<title>Node17&#45;&gt;Node16</title>
<g id="a_edge25_Node000017_Node000016"><a xlink:title=" ">
<path fill="none" stroke="#63b8ff" d="M888.81,-204.63C868.18,-194.87 840.38,-181.71 822.32,-173.17"/>
<polygon fill="#63b8ff" stroke="#63b8ff" points="887.47,-207.87 898.01,-208.98 890.46,-201.54 887.47,-207.87"/>
</a>
</g>
</g>
</g>
</svg>

<g id="navigator" transform="translate(0 0)" fill="#404254">
  <rect fill="#f2f5e9" fill-opacity="0.5" stroke="#606060" stroke-width=".5" x="0" y="0" width="60" height="60"/>
  <use id="zoomplus" xlink:href="#zoomPlus" x="17" y="9" onmousedown="handleZoom(evt,'in')"/>
  <use id="zoomminus" xlink:href="#zoomMin" x="42" y="9" onmousedown="handleZoom(evt,'out')"/>
  <use id="reset" xlink:href="#resetDef" x="30" y="36" onmousedown="handleReset()"/>
   <use id="arrowup" xlink:href="#arrowUp" x="0" y="0" onmousedown="handlePan(0,-1)"/>
  <use id="arrowright" xlink:href="#arrowRight" x="0" y="0" onmousedown="handlePan(1,0)"/>
  <use id="arrowdown" xlink:href="#arrowDown" x="0" y="0" onmousedown="handlePan(0,1)"/>
  <use id="arrowleft" xlink:href="#arrowLeft" x="0" y="0" onmousedown="handlePan(-1,0)"/>
</g>
<svg viewBox="0 0 15 15" width="100%" height="30px" preserveAspectRatio="xMaxYMin meet">
 <g id="arrow_out" transform="scale(0.3 0.3)">
  <a xlink:href="transform_8h__dep__incl_org.svg" target="_base">
   <rect id="button" ry="5" rx="5" y="6" x="6" height="38" width="38"
        fill="#f2f5e9" fill-opacity="0.5" stroke="#606060" stroke-width="1.0"/>
   <path id="arrow"
     d="M 11.500037,31.436501 C 11.940474,20.09759 22.043105,11.32322 32.158766,21.979434 L 37.068811,17.246167 C 37.068811,17.246167 37.088388,32 37.088388,32 L 22.160133,31.978069 C 22.160133,31.978069 26.997745,27.140456 26.997745,27.140456 C 18.528582,18.264221 13.291696,25.230495 11.500037,31.436501 z"
     style="fill:#404040;"/>
  </a>
 </g>
</svg>

<style type='text/css'>
<![CDATA[
[data-mouse-over-selected='false'] { opacity: 0.7; }
[data-mouse-over-selected='true']  { opacity: 1.0; }
]]>
</style>
<script type="application/ecmascript"><![CDATA[
document.addEventListener('DOMContentLoaded', (event) => {
  highlightEdges();
  highlightAdjacentNodes();
});
]]></script>
</svg>
