<?xml version="1.0" encoding="UTF-8" standalone="no"?>
<!DOCTYPE svg PUBLIC "-//W3C//DTD SVG 1.1//EN"
 "http://www.w3.org/Graphics/SVG/1.1/DTD/svg11.dtd">
<!-- Generated by graphviz version 2.43.0 (0)
 -->
<!-- Title: shapeProgress Pages: 1 -->
<svg width="319pt" height="103pt"
 viewBox="0.00 0.00 319.00 103.00" xmlns="http://www.w3.org/2000/svg" xmlns:xlink="http://www.w3.org/1999/xlink">
<g id="graph0" class="graph" transform="scale(1 1) rotate(0) translate(4 99)">
<title>shapeProgress</title>
<!-- Node1 -->
<g id="Node000001" class="node">
<title>Node1</title>
<g id="a_Node000001"><a xlink:title=" ">
<polygon fill="#999999" stroke="#666666" points="311,-57 223,-57 223,-38 311,-38 311,-57"/>
<text text-anchor="middle" x="267" y="-45" font-family="Helvetica,sans-Serif" font-size="10.00">shapeProgress</text>
</a>
</g>
</g>
<!-- Node2 -->
<g id="Node000002" class="node">
<title>Node2</title>
<g id="a_Node000002"><a xlink:href="../../da/d05/_bilinear_compression_8ino_a9e9c4518aa86f4040526926f5d275900.html#a9e9c4518aa86f4040526926f5d275900" target="_top" xlink:title=" ">
<polygon fill="white" stroke="#666666" points="187,-95 80,-95 80,-76 187,-76 187,-95"/>
<text text-anchor="middle" x="133.5" y="-83" font-family="Helvetica,sans-Serif" font-size="10.00">getAnimationTime</text>
</a>
</g>
</g>
<!-- Node1&#45;&gt;Node2 -->
<g id="edge1_Node000001_Node000002" class="edge">
<title>Node1&#45;&gt;Node2</title>
<g id="a_edge1_Node000001_Node000002"><a xlink:title=" ">
<path fill="none" stroke="#63b8ff" d="M223.12,-59.89C205.11,-65.09 184.49,-71.05 167.67,-75.91"/>
<polygon fill="#63b8ff" stroke="#63b8ff" points="224.18,-63.23 232.82,-57.09 222.24,-56.5 224.18,-63.23"/>
</a>
</g>
</g>
<!-- Node3 -->
<g id="Node000003" class="node">
<title>Node3</title>
<g id="a_Node000003"><a xlink:href="../../da/d05/_bilinear_compression_8ino_afe461d27b9c48d5921c00d521181f12f.html#afe461d27b9c48d5921c00d521181f12f" target="_top" xlink:title=" ">
<polygon fill="white" stroke="#666666" points="41,-76 3,-76 3,-57 41,-57 41,-76"/>
<text text-anchor="middle" x="22" y="-64" font-family="Helvetica,sans-Serif" font-size="10.00">loop</text>
</a>
</g>
</g>
<!-- Node1&#45;&gt;Node3 -->
<g id="edge3_Node000001_Node000003" class="edge">
<title>Node1&#45;&gt;Node3</title>
<g id="a_edge3_Node000001_Node000003"><a xlink:title=" ">
<path fill="none" stroke="#63b8ff" d="M212.68,-51.67C158.29,-55.92 76.96,-62.28 41.1,-65.08"/>
<polygon fill="#63b8ff" stroke="#63b8ff" points="213.14,-55.14 222.84,-50.87 212.59,-48.17 213.14,-55.14"/>
</a>
</g>
</g>
<!-- Node4 -->
<g id="Node000004" class="node">
<title>Node4</title>
<g id="a_Node000004"><a xlink:href="../../da/d05/_bilinear_compression_8ino_a893c59eb458bea800b5e5e5c1bf57fcd.html#a893c59eb458bea800b5e5e5c1bf57fcd" target="_top" xlink:title=" ">
<polygon fill="white" stroke="#666666" points="184,-19 83,-19 83,0 184,0 184,-19"/>
<text text-anchor="middle" x="133.5" y="-7" font-family="Helvetica,sans-Serif" font-size="10.00">setupUiCallbacks</text>
</a>
</g>
</g>
<!-- Node1&#45;&gt;Node4 -->
<g id="edge4_Node000001_Node000004" class="edge">
<title>Node1&#45;&gt;Node4</title>
<g id="a_edge4_Node000001_Node000004"><a xlink:title=" ">
<path fill="none" stroke="#63b8ff" d="M223.12,-35.11C205.11,-29.91 184.49,-23.95 167.67,-19.09"/>
<polygon fill="#63b8ff" stroke="#63b8ff" points="222.24,-38.5 232.82,-37.91 224.18,-31.77 222.24,-38.5"/>
</a>
</g>
</g>
<!-- Node2&#45;&gt;Node3 -->
<g id="edge2_Node000002_Node000003" class="edge">
<title>Node2&#45;&gt;Node3</title>
<g id="a_edge2_Node000002_Node000003"><a xlink:title=" ">
<path fill="none" stroke="#63b8ff" d="M69.88,-74.63C59.41,-72.82 49.32,-71.07 41.21,-69.66"/>
<polygon fill="#63b8ff" stroke="#63b8ff" points="69.54,-78.13 80,-76.39 70.74,-71.23 69.54,-78.13"/>
</a>
</g>
</g>
<!-- Node5 -->
<g id="Node000005" class="node">
<title>Node5</title>
<g id="a_Node000005"><a xlink:href="../../da/d05/_bilinear_compression_8ino_a4fc01d736fe50cf5b977f755b675f11d.html#a4fc01d736fe50cf5b977f755b675f11d" target="_top" xlink:title=" ">
<polygon fill="white" stroke="#666666" points="44,-19 0,-19 0,0 44,0 44,-19"/>
<text text-anchor="middle" x="22" y="-7" font-family="Helvetica,sans-Serif" font-size="10.00">setup</text>
</a>
</g>
</g>
<!-- Node4&#45;&gt;Node5 -->
<g id="edge5_Node000004_Node000005" class="edge">
<title>Node4&#45;&gt;Node5</title>
<g id="a_edge5_Node000004_Node000005"><a xlink:title=" ">
<path fill="none" stroke="#63b8ff" d="M72.66,-9.5C62.48,-9.5 52.53,-9.5 44.24,-9.5"/>
<polygon fill="#63b8ff" stroke="#63b8ff" points="72.88,-13 82.88,-9.5 72.88,-6 72.88,-13"/>
</a>
</g>
</g>
</g>
</svg>
