<?xml version="1.0" encoding="UTF-8" standalone="no"?>
<!DOCTYPE svg PUBLIC "-//W3C//DTD SVG 1.1//EN"
 "http://www.w3.org/Graphics/SVG/1.1/DTD/svg11.dtd">
<!-- Generated by graphviz version 2.43.0 (0)
 -->
<!-- Title: fl::istream_real::operator&gt;&gt; Pages: 1 -->
<svg width="655pt" height="150pt"
 viewBox="0.00 0.00 655.00 150.00" xmlns="http://www.w3.org/2000/svg" xmlns:xlink="http://www.w3.org/1999/xlink">
<g id="graph0" class="graph" transform="scale(1 1) rotate(0) translate(4 146)">
<title>fl::istream_real::operator&gt;&gt;</title>
<!-- Node1 -->
<g id="Node000001" class="node">
<title>Node1</title>
<g id="a_Node000001"><a xlink:title=" ">
<polygon fill="#999999" stroke="#666666" points="154,-76 0,-76 0,-57 154,-57 154,-76"/>
<text text-anchor="middle" x="77" y="-64" font-family="Helvetica,sans-Serif" font-size="10.00">fl::istream_real::operator&gt;&gt;</text>
</a>
</g>
</g>
<!-- Node2 -->
<g id="Node000002" class="node">
<title>Node2</title>
<g id="a_Node000002"><a xlink:href="../../dc/d4b/classfl_1_1istream__real_ab593846ff4a004fbc44ab28ac7a80e5f.html#ab593846ff4a004fbc44ab28ac7a80e5f" target="_top" xlink:title=" ">
<polygon fill="white" stroke="#666666" points="355.5,-142 197.5,-142 197.5,-123 355.5,-123 355.5,-142"/>
<text text-anchor="middle" x="276.5" y="-130" font-family="Helvetica,sans-Serif" font-size="10.00">fl::istream_real::istream_real</text>
</a>
</g>
</g>
<!-- Node1&#45;&gt;Node2 -->
<g id="edge1_Node000001_Node000002" class="edge">
<title>Node1&#45;&gt;Node2</title>
<g id="a_edge1_Node000001_Node000002"><a xlink:title=" ">
<path fill="none" stroke="#63b8ff" d="M101.82,-76.11C124.36,-85.03 159.21,-98.43 190,-108.5 202.49,-112.59 216.14,-116.61 228.79,-120.16"/>
<polygon fill="#63b8ff" stroke="#63b8ff" points="228.11,-123.61 238.68,-122.9 229.98,-116.86 228.11,-123.61"/>
</a>
</g>
</g>
<!-- Node3 -->
<g id="Node000003" class="node">
<title>Node3</title>
<g id="a_Node000003"><a xlink:href="../../d4/d36/namespacefl_a01186a22a1055c583d5408c116c84ffa.html#a01186a22a1055c583d5408c116c84ffa" target="_top" xlink:title=" ">
<polygon fill="white" stroke="#666666" points="647,-57 573,-57 573,-38 647,-38 647,-57"/>
<text text-anchor="middle" x="610" y="-45" font-family="Helvetica,sans-Serif" font-size="10.00">fl::available</text>
</a>
</g>
</g>
<!-- Node1&#45;&gt;Node3 -->
<g id="edge2_Node000001_Node000003" class="edge">
<title>Node1&#45;&gt;Node3</title>
<g id="a_edge2_Node000001_Node000003"><a xlink:title=" ">
<path fill="none" stroke="#63b8ff" d="M154.16,-73.45C166.15,-74.3 178.4,-75.03 190,-75.5 344.31,-81.69 383.69,-76.07 537,-57.5 545.28,-56.5 554.09,-55.34 562.6,-54.19"/>
<polygon fill="#63b8ff" stroke="#63b8ff" points="563.35,-57.62 572.77,-52.78 562.39,-50.68 563.35,-57.62"/>
</a>
</g>
</g>
<!-- Node4 -->
<g id="Node000004" class="node">
<title>Node4</title>
<g id="a_Node000004"><a xlink:href="../../dc/d4b/classfl_1_1istream__real_ab70ff31d4c958447b46066a17a55d047.html#ab70ff31d4c958447b46066a17a55d047" target="_top" xlink:title=" ">
<polygon fill="white" stroke="#666666" points="537,-19 399,-19 399,0 537,0 537,-19"/>
<text text-anchor="middle" x="468" y="-7" font-family="Helvetica,sans-Serif" font-size="10.00">fl::istream_real::readLine</text>
</a>
</g>
</g>
<!-- Node1&#45;&gt;Node4 -->
<g id="edge3_Node000001_Node000004" class="edge">
<title>Node1&#45;&gt;Node4</title>
<g id="a_edge3_Node000001_Node000004"><a xlink:title=" ">
<path fill="none" stroke="#63b8ff" d="M95.61,-56.99C117.15,-45.9 155.09,-28.11 190,-20.5 255.96,-6.12 332.8,-4.19 388.79,-5.39"/>
<polygon fill="#63b8ff" stroke="#63b8ff" points="388.91,-8.9 399,-5.65 389.09,-1.9 388.91,-8.9"/>
</a>
</g>
</g>
<!-- Node6 -->
<g id="Node000006" class="node">
<title>Node6</title>
<g id="a_Node000006"><a xlink:href="../../dc/d4b/classfl_1_1istream__real_a1896b88f9d1cb20dd178716dc97c60c7.html#a1896b88f9d1cb20dd178716dc97c60c7" target="_top" xlink:title=" ">
<polygon fill="white" stroke="#666666" points="363,-48 190,-48 190,-29 363,-29 363,-48"/>
<text text-anchor="middle" x="276.5" y="-36" font-family="Helvetica,sans-Serif" font-size="10.00">fl::istream_real::skipWhitespace</text>
</a>
</g>
</g>
<!-- Node1&#45;&gt;Node6 -->
<g id="edge6_Node000001_Node000006" class="edge">
<title>Node1&#45;&gt;Node6</title>
<g id="a_edge6_Node000001_Node000006"><a xlink:title=" ">
<path fill="none" stroke="#63b8ff" d="M145.14,-56.98C162.15,-54.57 180.57,-51.96 198.04,-49.48"/>
<polygon fill="#63b8ff" stroke="#63b8ff" points="198.8,-52.91 208.21,-48.04 197.82,-45.98 198.8,-52.91"/>
</a>
</g>
</g>
<!-- Node4&#45;&gt;Node3 -->
<g id="edge4_Node000004_Node000003" class="edge">
<title>Node4&#45;&gt;Node3</title>
<g id="a_edge4_Node000004_Node000003"><a xlink:title=" ">
<path fill="none" stroke="#63b8ff" d="M504.33,-19.09C522.4,-23.99 544.6,-30.02 563.89,-35.26"/>
<polygon fill="#63b8ff" stroke="#63b8ff" points="563.12,-38.67 573.68,-37.91 564.95,-31.92 563.12,-38.67"/>
</a>
</g>
</g>
<!-- Node5 -->
<g id="Node000005" class="node">
<title>Node5</title>
<g id="a_Node000005"><a xlink:href="../../d4/d36/namespacefl_a18e7608a302c3628c24710b27480641b.html#a18e7608a302c3628c24710b27480641b" target="_top" xlink:title=" ">
<polygon fill="white" stroke="#666666" points="635,-19 585,-19 585,0 635,0 635,-19"/>
<text text-anchor="middle" x="610" y="-7" font-family="Helvetica,sans-Serif" font-size="10.00">fl::read</text>
</a>
</g>
</g>
<!-- Node4&#45;&gt;Node5 -->
<g id="edge5_Node000004_Node000005" class="edge">
<title>Node4&#45;&gt;Node5</title>
<g id="a_edge5_Node000004_Node000005"><a xlink:title=" ">
<path fill="none" stroke="#63b8ff" d="M537.36,-9.5C550.3,-9.5 563.31,-9.5 574.63,-9.5"/>
<polygon fill="#63b8ff" stroke="#63b8ff" points="574.91,-13 584.91,-9.5 574.91,-6 574.91,-13"/>
</a>
</g>
</g>
<!-- Node6&#45;&gt;Node3 -->
<g id="edge7_Node000006_Node000003" class="edge">
<title>Node6&#45;&gt;Node3</title>
<g id="a_edge7_Node000006_Node000003"><a xlink:title=" ">
<path fill="none" stroke="#63b8ff" d="M363.3,-40.83C426.83,-42.55 510.98,-44.84 562.49,-46.24"/>
<polygon fill="#63b8ff" stroke="#63b8ff" points="562.56,-49.74 572.65,-46.51 562.75,-42.74 562.56,-49.74"/>
</a>
</g>
</g>
<!-- Node6&#45;&gt;Node4 -->
<g id="edge8_Node000006_Node000004" class="edge">
<title>Node6&#45;&gt;Node4</title>
<g id="a_edge8_Node000006_Node000004"><a xlink:title=" ">
<path fill="none" stroke="#63b8ff" d="M339.81,-28.96C357.38,-26.28 376.64,-23.33 394.73,-20.56"/>
<polygon fill="#63b8ff" stroke="#63b8ff" points="395.3,-24.01 404.65,-19.04 394.24,-17.09 395.3,-24.01"/>
</a>
</g>
</g>
<!-- Node6&#45;&gt;Node6 -->
<g id="edge9_Node000006_Node000006" class="edge">
<title>Node6&#45;&gt;Node6</title>
<g id="a_edge9_Node000006_Node000006"><a xlink:title=" ">
<path fill="none" stroke="#63b8ff" d="M247.22,-48.08C232.97,-56.73 242.73,-66 276.5,-66 299.72,-66 311.59,-61.62 312.11,-56.07"/>
<polygon fill="#63b8ff" stroke="#63b8ff" points="314.73,-53.75 305.78,-48.08 309.25,-58.1 314.73,-53.75"/>
</a>
</g>
</g>
</g>
</svg>
