<?xml version="1.0" encoding="UTF-8" standalone="no"?>
<!DOCTYPE svg PUBLIC "-//W3C//DTD SVG 1.1//EN"
 "http://www.w3.org/Graphics/SVG/1.1/DTD/svg11.dtd">
<!-- Generated by graphviz version 2.43.0 (0)
 -->
<!-- Title: fl::audio::detector::Backbeat::calculatePatternConfidence Pages: 1 -->
<svg width="656pt" height="62pt"
 viewBox="0.00 0.00 656.00 61.50" xmlns="http://www.w3.org/2000/svg" xmlns:xlink="http://www.w3.org/1999/xlink">
<g id="graph0" class="graph" transform="scale(1 1) rotate(0) translate(4 57.5)">
<title>fl::audio::detector::Backbeat::calculatePatternConfidence</title>
<!-- Node1 -->
<g id="Node000001" class="node">
<title>Node1</title>
<g id="a_Node000001"><a xlink:title=" ">
<polygon fill="#999999" stroke="#666666" points="648,-41 495,-41 495,0 648,0 648,-41"/>
<text text-anchor="start" x="503" y="-29" font-family="Helvetica,sans-Serif" font-size="10.00">fl::audio::detector</text>
<text text-anchor="start" x="503" y="-18" font-family="Helvetica,sans-Serif" font-size="10.00">::Backbeat::calculatePattern</text>
<text text-anchor="middle" x="571.5" y="-7" font-family="Helvetica,sans-Serif" font-size="10.00">Confidence</text>
</a>
</g>
</g>
<!-- Node2 -->
<g id="Node000002" class="node">
<title>Node2</title>
<g id="a_Node000002"><a xlink:href="../../d3/dd1/classfl_1_1audio_1_1detector_1_1_backbeat_a82bf97dd057d84089b5f6f8288c263b6.html#a82bf97dd057d84089b5f6f8288c263b6" target="_top" xlink:title=" ">
<polygon fill="white" stroke="#666666" points="459,-35.5 308,-35.5 308,-5.5 459,-5.5 459,-35.5"/>
<text text-anchor="start" x="316" y="-23.5" font-family="Helvetica,sans-Serif" font-size="10.00">fl::audio::detector</text>
<text text-anchor="middle" x="383.5" y="-12.5" font-family="Helvetica,sans-Serif" font-size="10.00">::Backbeat::detectBackbeat</text>
</a>
</g>
</g>
<!-- Node1&#45;&gt;Node2 -->
<g id="edge1_Node000001_Node000002" class="edge">
<title>Node1&#45;&gt;Node2</title>
<g id="a_edge1_Node000001_Node000002"><a xlink:title=" ">
<path fill="none" stroke="#63b8ff" d="M484.84,-20.5C476.28,-20.5 467.62,-20.5 459.18,-20.5"/>
<polygon fill="#63b8ff" stroke="#63b8ff" points="484.85,-24 494.85,-20.5 484.85,-17 484.85,-24"/>
</a>
</g>
</g>
<!-- Node3 -->
<g id="Node000003" class="node">
<title>Node3</title>
<g id="a_Node000003"><a xlink:href="../../d3/dd1/classfl_1_1audio_1_1detector_1_1_backbeat_a128515a9b1b491a4a3801ce743719b0c.html#a128515a9b1b491a4a3801ce743719b0c" target="_top" xlink:title=" ">
<polygon fill="white" stroke="#666666" points="272,-35.5 164,-35.5 164,-5.5 272,-5.5 272,-35.5"/>
<text text-anchor="start" x="172" y="-23.5" font-family="Helvetica,sans-Serif" font-size="10.00">fl::audio::detector</text>
<text text-anchor="middle" x="218" y="-12.5" font-family="Helvetica,sans-Serif" font-size="10.00">::Backbeat::update</text>
</a>
</g>
</g>
<!-- Node2&#45;&gt;Node3 -->
<g id="edge2_Node000002_Node000003" class="edge">
<title>Node2&#45;&gt;Node3</title>
<g id="a_edge2_Node000002_Node000003"><a xlink:title=" ">
<path fill="none" stroke="#63b8ff" d="M297.81,-20.5C289.19,-20.5 280.61,-20.5 272.46,-20.5"/>
<polygon fill="#63b8ff" stroke="#63b8ff" points="297.93,-24 307.93,-20.5 297.93,-17 297.93,-24"/>
</a>
</g>
</g>
<!-- Node3&#45;&gt;Node3 -->
<g id="edge4_Node000003_Node000003" class="edge">
<title>Node3&#45;&gt;Node3</title>
<g id="a_edge4_Node000003_Node000003"><a xlink:title=" ">
<path fill="none" stroke="#63b8ff" d="M244.96,-46.1C241.27,-50.47 232.29,-53.5 218,-53.5 193.94,-53.5 184.91,-44.91 190.93,-35.78"/>
<polygon fill="#63b8ff" stroke="#63b8ff" points="248.46,-45.81 245.07,-35.78 241.46,-45.74 248.46,-45.81"/>
</a>
</g>
</g>
<!-- Node4 -->
<g id="Node000004" class="node">
<title>Node4</title>
<g id="a_Node000004"><a xlink:href="../../d3/dd1/classfl_1_1audio_1_1detector_1_1_backbeat_ab80abe1a4f92cbd9fc5ee8a20244536a.html#ab80abe1a4f92cbd9fc5ee8a20244536a" target="_top" xlink:title=" ">
<polygon fill="white" stroke="#666666" points="128,-35.5 0,-35.5 0,-5.5 128,-5.5 128,-35.5"/>
<text text-anchor="start" x="8" y="-23.5" font-family="Helvetica,sans-Serif" font-size="10.00">fl::audio::detector</text>
<text text-anchor="middle" x="64" y="-12.5" font-family="Helvetica,sans-Serif" font-size="10.00">::Backbeat::~Backbeat</text>
</a>
</g>
</g>
<!-- Node3&#45;&gt;Node4 -->
<g id="edge3_Node000003_Node000004" class="edge">
<title>Node3&#45;&gt;Node4</title>
<g id="a_edge3_Node000003_Node000004"><a xlink:title=" ">
<path fill="none" stroke="#63b8ff" d="M153.65,-20.5C145.19,-20.5 136.51,-20.5 128.05,-20.5"/>
<polygon fill="#63b8ff" stroke="#63b8ff" points="153.84,-24 163.84,-20.5 153.84,-17 153.84,-24"/>
</a>
</g>
</g>
</g>
</svg>
