<?xml version="1.0" encoding="UTF-8" standalone="no"?>
<!DOCTYPE svg PUBLIC "-//W3C//DTD SVG 1.1//EN"
 "http://www.w3.org/Graphics/SVG/1.1/DTD/svg11.dtd">
<!-- Generated by graphviz version 2.43.0 (0)
 -->
<!-- Title: fl::HashMap::is_occupied Pages: 1 -->
<svg width="476pt" height="185pt"
 viewBox="0.00 0.00 476.00 185.00" xmlns="http://www.w3.org/2000/svg" xmlns:xlink="http://www.w3.org/1999/xlink">

<svg id="main" version="1.1" xmlns="http://www.w3.org/2000/svg" xmlns:xlink="http://www.w3.org/1999/xlink" xml:space="preserve">

<style type="text/css"><![CDATA[
.node, .edge {opacity: 0.7;}
.node.selected, .edge.selected {opacity: 1;}
.edge:hover path { stroke: red; }
.edge:hover polygon { stroke: red; fill: red; }
]]></style>
<script type="application/ecmascript" xlink:href="../../svg.min.js"/>
<svg id="graph" class="graph">
<g id="graph0" class="graph" transform="scale(1 1) rotate(0) translate(4 181)">
<title>fl::HashMap::is_occupied</title>
<!-- Node1 -->
<g id="Node000001" class="node">
<title>Node1</title>
<g id="a_Node000001"><a xlink:title=" ">
<polygon fill="#999999" stroke="#666666" points="468,-97.5 331,-97.5 331,-78.5 468,-78.5 468,-97.5"/>
<text text-anchor="middle" x="399.5" y="-85.5" font-family="Helvetica,sans-Serif" font-size="10.00">fl::HashMap::is_occupied</text>
</a>
</g>
</g>
<!-- Node2 -->
<g id="Node000002" class="node">
<title>Node2</title>
<g id="a_Node000002"><a xlink:href="../../d2/d92/structfl_1_1_hash_map_1_1const__iterator_a169578cc6aeb94a6de6e6cbd16ca8d55.html#a169578cc6aeb94a6de6e6cbd16ca8d55" target="_top" xlink:title=" ">
<polygon fill="white" stroke="#666666" points="291,-135.5 171,-135.5 171,-94.5 291,-94.5 291,-135.5"/>
<text text-anchor="start" x="179" y="-123.5" font-family="Helvetica,sans-Serif" font-size="10.00">fl::HashMap::const</text>
<text text-anchor="start" x="179" y="-112.5" font-family="Helvetica,sans-Serif" font-size="10.00">_iterator::advance_to</text>
<text text-anchor="middle" x="231" y="-101.5" font-family="Helvetica,sans-Serif" font-size="10.00">_occupied</text>
</a>
</g>
</g>
<!-- Node1&#45;&gt;Node2 -->
<g id="edge1_Node000001_Node000002" class="edge">
<title>Node1&#45;&gt;Node2</title>
<g id="a_edge1_Node000001_Node000002"><a xlink:title=" ">
<path fill="none" stroke="#63b8ff" d="M329.64,-99.17C316.81,-101.25 303.51,-103.4 291.01,-105.43"/>
<polygon fill="#63b8ff" stroke="#63b8ff" points="330.49,-102.57 339.8,-97.52 329.37,-95.67 330.49,-102.57"/>
</a>
</g>
</g>
<!-- Node5 -->
<g id="Node000005" class="node">
<title>Node5</title>
<g id="a_Node000005"><a xlink:href="../../db/d61/structfl_1_1_hash_map_1_1iterator_a1fb15ada58c6fd276ca4d2a49ec057da.html#a1fb15ada58c6fd276ca4d2a49ec057da" target="_top" xlink:title=" ">
<polygon fill="white" stroke="#666666" points="295,-76 167,-76 167,-46 295,-46 295,-76"/>
<text text-anchor="start" x="175" y="-64" font-family="Helvetica,sans-Serif" font-size="10.00">fl::HashMap::iterator</text>
<text text-anchor="middle" x="231" y="-53" font-family="Helvetica,sans-Serif" font-size="10.00">::advance_to_occupied</text>
</a>
</g>
</g>
<!-- Node1&#45;&gt;Node5 -->
<g id="edge4_Node000001_Node000005" class="edge">
<title>Node1&#45;&gt;Node5</title>
<g id="a_edge4_Node000001_Node000005"><a xlink:title=" ">
<path fill="none" stroke="#63b8ff" d="M329.85,-76.87C318.4,-75.01 306.57,-73.09 295.26,-71.26"/>
<polygon fill="#63b8ff" stroke="#63b8ff" points="329.37,-80.33 339.8,-78.48 330.49,-73.43 329.37,-80.33"/>
</a>
</g>
</g>
<!-- Node3 -->
<g id="Node000003" class="node">
<title>Node3</title>
<g id="a_Node000003"><a xlink:href="../../d2/d92/structfl_1_1_hash_map_1_1const__iterator_a46ce1b227237b26a09e03378ac11f0eb.html#a46ce1b227237b26a09e03378ac11f0eb" target="_top" xlink:title=" ">
<polygon fill="white" stroke="#666666" points="131,-177 0,-177 0,-147 131,-147 131,-177"/>
<text text-anchor="start" x="8" y="-165" font-family="Helvetica,sans-Serif" font-size="10.00">fl::HashMap::const</text>
<text text-anchor="middle" x="65.5" y="-154" font-family="Helvetica,sans-Serif" font-size="10.00">_iterator::const_iterator</text>
</a>
</g>
</g>
<!-- Node2&#45;&gt;Node3 -->
<g id="edge2_Node000002_Node000003" class="edge">
<title>Node2&#45;&gt;Node3</title>
<g id="a_edge2_Node000002_Node000003"><a xlink:title=" ">
<path fill="none" stroke="#63b8ff" d="M161.27,-134.76C147.11,-138.83 132.41,-143.05 118.94,-146.93"/>
<polygon fill="#63b8ff" stroke="#63b8ff" points="162.33,-138.09 170.97,-131.97 160.39,-131.37 162.33,-138.09"/>
</a>
</g>
</g>
<!-- Node4 -->
<g id="Node000004" class="node">
<title>Node4</title>
<g id="a_Node000004"><a xlink:href="../../d2/d92/structfl_1_1_hash_map_1_1const__iterator_a4a19002e54a043399fc342c13092457b.html#a4a19002e54a043399fc342c13092457b" target="_top" xlink:title=" ">
<polygon fill="white" stroke="#666666" points="126.5,-129 4.5,-129 4.5,-99 126.5,-99 126.5,-129"/>
<text text-anchor="start" x="12.5" y="-117" font-family="Helvetica,sans-Serif" font-size="10.00">fl::HashMap::const</text>
<text text-anchor="middle" x="65.5" y="-106" font-family="Helvetica,sans-Serif" font-size="10.00">_iterator::operator++</text>
</a>
</g>
</g>
<!-- Node2&#45;&gt;Node4 -->
<g id="edge3_Node000002_Node000004" class="edge">
<title>Node2&#45;&gt;Node4</title>
<g id="a_edge3_Node000002_Node000004"><a xlink:title=" ">
<path fill="none" stroke="#63b8ff" d="M160.67,-114.58C149.32,-114.51 137.64,-114.44 126.54,-114.37"/>
<polygon fill="#63b8ff" stroke="#63b8ff" points="160.95,-118.08 170.97,-114.64 160.99,-111.08 160.95,-118.08"/>
</a>
</g>
</g>
<!-- Node6 -->
<g id="Node000006" class="node">
<title>Node6</title>
<g id="a_Node000006"><a xlink:href="../../db/d61/structfl_1_1_hash_map_1_1iterator_ad835932cde41c1dfbd1c66e95371c28c.html#ad835932cde41c1dfbd1c66e95371c28c" target="_top" xlink:title=" ">
<polygon fill="white" stroke="#666666" points="123.5,-78 7.5,-78 7.5,-48 123.5,-48 123.5,-78"/>
<text text-anchor="start" x="15.5" y="-66" font-family="Helvetica,sans-Serif" font-size="10.00">fl::HashMap::iterator</text>
<text text-anchor="middle" x="65.5" y="-55" font-family="Helvetica,sans-Serif" font-size="10.00">::iterator</text>
</a>
</g>
</g>
<!-- Node5&#45;&gt;Node6 -->
<g id="edge5_Node000005_Node000006" class="edge">
<title>Node5&#45;&gt;Node6</title>
<g id="a_edge5_Node000005_Node000006"><a xlink:title=" ">
<path fill="none" stroke="#63b8ff" d="M156.7,-61.9C145.62,-62.03 134.34,-62.17 123.67,-62.3"/>
<polygon fill="#63b8ff" stroke="#63b8ff" points="156.83,-65.4 166.79,-61.77 156.74,-58.4 156.83,-65.4"/>
</a>
</g>
</g>
<!-- Node7 -->
<g id="Node000007" class="node">
<title>Node7</title>
<g id="a_Node000007"><a xlink:href="../../db/d61/structfl_1_1_hash_map_1_1iterator_a6c0db9e89fcc3f0cd6ebe5493610f504.html#a6c0db9e89fcc3f0cd6ebe5493610f504" target="_top" xlink:title=" ">
<polygon fill="white" stroke="#666666" points="123.5,-30 7.5,-30 7.5,0 123.5,0 123.5,-30"/>
<text text-anchor="start" x="15.5" y="-18" font-family="Helvetica,sans-Serif" font-size="10.00">fl::HashMap::iterator</text>
<text text-anchor="middle" x="65.5" y="-7" font-family="Helvetica,sans-Serif" font-size="10.00">::operator++</text>
</a>
</g>
</g>
<!-- Node5&#45;&gt;Node7 -->
<g id="edge6_Node000005_Node000007" class="edge">
<title>Node5&#45;&gt;Node7</title>
<g id="a_edge6_Node000005_Node000007"><a xlink:title=" ">
<path fill="none" stroke="#63b8ff" d="M166.49,-43.13C151.08,-38.8 134.76,-34.21 119.88,-30.02"/>
<polygon fill="#63b8ff" stroke="#63b8ff" points="165.89,-46.6 176.46,-45.94 167.79,-39.86 165.89,-46.6"/>
</a>
</g>
</g>
</g>
</svg>
</svg>

<style type='text/css'>
<![CDATA[
[data-mouse-over-selected='false'] { opacity: 0.7; }
[data-mouse-over-selected='true']  { opacity: 1.0; }
]]>
</style>
<script type="application/ecmascript"><![CDATA[
document.addEventListener('DOMContentLoaded', (event) => {
  highlightEdges();
  highlightAdjacentNodes();
});
]]></script>
</svg>
