<?xml version="1.0" encoding="UTF-8" standalone="no"?>
<!DOCTYPE svg PUBLIC "-//W3C//DTD SVG 1.1//EN"
 "http://www.w3.org/Graphics/SVG/1.1/DTD/svg11.dtd">
<!-- Generated by graphviz version 2.43.0 (0)
 -->
<!-- Title: fl::net::http::FetchOptions::FetchOptions Pages: 1 -->
<svg width="657pt" height="488pt"
 viewBox="0.00 0.00 657.00 488.37" xmlns="http://www.w3.org/2000/svg" xmlns:xlink="http://www.w3.org/1999/xlink">
<g id="graph0" class="graph" transform="scale(1 1) rotate(0) translate(4 484.37)">
<title>fl::net::http::FetchOptions::FetchOptions</title>
<!-- Node1 -->
<g id="Node000001" class="node">
<title>Node1</title>
<g id="a_Node000001"><a xlink:title=" ">
<polygon fill="#999999" stroke="#666666" points="649,-173.37 509,-173.37 509,-143.37 649,-143.37 649,-173.37"/>
<text text-anchor="start" x="517" y="-161.37" font-family="Helvetica,sans-Serif" font-size="10.00">fl::net::http::FetchOptions</text>
<text text-anchor="middle" x="579" y="-150.37" font-family="Helvetica,sans-Serif" font-size="10.00">::FetchOptions</text>
</a>
</g>
</g>
<!-- Node2 -->
<g id="Node000002" class="node">
<title>Node2</title>
<g id="a_Node000002"><a xlink:href="../../dd/d03/classfl_1_1net_1_1http_1_1_fetch_options_a921e92a7b887e568cef838ffe44cfe2c.html#a921e92a7b887e568cef838ffe44cfe2c" target="_top" xlink:title="Set request body.">
<polygon fill="white" stroke="#666666" points="473,-221.37 333,-221.37 333,-191.37 473,-191.37 473,-221.37"/>
<text text-anchor="start" x="341" y="-209.37" font-family="Helvetica,sans-Serif" font-size="10.00">fl::net::http::FetchOptions</text>
<text text-anchor="middle" x="403" y="-198.37" font-family="Helvetica,sans-Serif" font-size="10.00">::body</text>
</a>
</g>
</g>
<!-- Node1&#45;&gt;Node2 -->
<g id="edge1_Node000001_Node000002" class="edge">
<title>Node1&#45;&gt;Node2</title>
<g id="a_edge1_Node000001_Node000002"><a xlink:title=" ">
<path fill="none" stroke="#63b8ff" d="M513.77,-176.09C495.57,-181.11 475.94,-186.53 458.38,-191.37"/>
<polygon fill="#63b8ff" stroke="#63b8ff" points="514.71,-179.46 523.42,-173.43 512.85,-172.71 514.71,-179.46"/>
</a>
</g>
</g>
<!-- Node21 -->
<g id="Node000021" class="node">
<title>Node21</title>
<g id="a_Node000021"><a xlink:href="../../dd/d03/classfl_1_1net_1_1http_1_1_fetch_options_a4456fb4f6ddd306b5f519993080c9889.html#a4456fb4f6ddd306b5f519993080c9889" target="_top" xlink:title="Add header.">
<polygon fill="white" stroke="#666666" points="473,-269.37 333,-269.37 333,-239.37 473,-239.37 473,-269.37"/>
<text text-anchor="start" x="341" y="-257.37" font-family="Helvetica,sans-Serif" font-size="10.00">fl::net::http::FetchOptions</text>
<text text-anchor="middle" x="403" y="-246.37" font-family="Helvetica,sans-Serif" font-size="10.00">::header</text>
</a>
</g>
</g>
<!-- Node1&#45;&gt;Node21 -->
<g id="edge17_Node000001_Node000021" class="edge">
<title>Node1&#45;&gt;Node21</title>
<g id="a_edge17_Node000001_Node000021"><a xlink:title=" ">
<path fill="none" stroke="#63b8ff" d="M551.29,-179.66C530.78,-195.25 501.26,-216.09 473,-230.37 466.55,-233.63 459.55,-236.63 452.56,-239.32"/>
<polygon fill="#63b8ff" stroke="#63b8ff" points="553.44,-182.42 559.23,-173.54 549.17,-176.87 553.44,-182.42"/>
</a>
</g>
</g>
<!-- Node22 -->
<g id="Node000022" class="node">
<title>Node22</title>
<g id="a_Node000022"><a xlink:href="../../dd/d03/classfl_1_1net_1_1http_1_1_fetch_options_aa06e77ba00705b2187c31093c43ef4c7.html#aa06e77ba00705b2187c31093c43ef4c7" target="_top" xlink:title="Set JSON body with proper content type.">
<polygon fill="white" stroke="#666666" points="473,-173.37 333,-173.37 333,-143.37 473,-143.37 473,-173.37"/>
<text text-anchor="start" x="341" y="-161.37" font-family="Helvetica,sans-Serif" font-size="10.00">fl::net::http::FetchOptions</text>
<text text-anchor="middle" x="403" y="-150.37" font-family="Helvetica,sans-Serif" font-size="10.00">::json</text>
</a>
</g>
</g>
<!-- Node1&#45;&gt;Node22 -->
<g id="edge26_Node000001_Node000022" class="edge">
<title>Node1&#45;&gt;Node22</title>
<g id="a_edge26_Node000001_Node000022"><a xlink:title=" ">
<path fill="none" stroke="#63b8ff" d="M498.97,-158.37C490.38,-158.37 481.68,-158.37 473.22,-158.37"/>
<polygon fill="#63b8ff" stroke="#63b8ff" points="498.98,-161.87 508.98,-158.37 498.98,-154.87 498.98,-161.87"/>
</a>
</g>
</g>
<!-- Node23 -->
<g id="Node000023" class="node">
<title>Node23</title>
<g id="a_Node000023"><a xlink:href="../../dd/d03/classfl_1_1net_1_1http_1_1_fetch_options_a42e335bf0b3a42354a3014217fe9fd86.html#a42e335bf0b3a42354a3014217fe9fd86" target="_top" xlink:title="Set HTTP method.">
<polygon fill="white" stroke="#666666" points="473,-125.37 333,-125.37 333,-95.37 473,-95.37 473,-125.37"/>
<text text-anchor="start" x="341" y="-113.37" font-family="Helvetica,sans-Serif" font-size="10.00">fl::net::http::FetchOptions</text>
<text text-anchor="middle" x="403" y="-102.37" font-family="Helvetica,sans-Serif" font-size="10.00">::method</text>
</a>
</g>
</g>
<!-- Node1&#45;&gt;Node23 -->
<g id="edge27_Node000001_Node000023" class="edge">
<title>Node1&#45;&gt;Node23</title>
<g id="a_edge27_Node000001_Node000023"><a xlink:title=" ">
<path fill="none" stroke="#63b8ff" d="M513.77,-140.65C495.57,-135.63 475.94,-130.22 458.38,-125.37"/>
<polygon fill="#63b8ff" stroke="#63b8ff" points="512.85,-144.03 523.42,-143.32 514.71,-137.28 512.85,-144.03"/>
</a>
</g>
</g>
<!-- Node24 -->
<g id="Node000024" class="node">
<title>Node24</title>
<g id="a_Node000024"><a xlink:href="../../dd/d03/classfl_1_1net_1_1http_1_1_fetch_options_aaabc1d09931c784c5db43adff3355db1.html#aaabc1d09931c784c5db43adff3355db1" target="_top" xlink:title="Set timeout in milliseconds.">
<polygon fill="white" stroke="#666666" points="473,-77.37 333,-77.37 333,-47.37 473,-47.37 473,-77.37"/>
<text text-anchor="start" x="341" y="-65.37" font-family="Helvetica,sans-Serif" font-size="10.00">fl::net::http::FetchOptions</text>
<text text-anchor="middle" x="403" y="-54.37" font-family="Helvetica,sans-Serif" font-size="10.00">::timeout</text>
</a>
</g>
</g>
<!-- Node1&#45;&gt;Node24 -->
<g id="edge28_Node000001_Node000024" class="edge">
<title>Node1&#45;&gt;Node24</title>
<g id="a_edge28_Node000001_Node000024"><a xlink:title=" ">
<path fill="none" stroke="#63b8ff" d="M551.29,-137.09C530.78,-121.5 501.26,-100.65 473,-86.37 466.55,-83.11 459.55,-80.11 452.56,-77.42"/>
<polygon fill="#63b8ff" stroke="#63b8ff" points="549.17,-139.88 559.23,-143.2 553.44,-134.33 549.17,-139.88"/>
</a>
</g>
</g>
<!-- Node3 -->
<g id="Node000003" class="node">
<title>Node3</title>
<g id="a_Node000003"><a xlink:href="../../d1/d13/namespacefl_1_1net_1_1http_a37543eaa20f9c92c351514ff41568a79.html#a37543eaa20f9c92c351514ff41568a79" target="_top" xlink:title="HTTP DELETE request.">
<polygon fill="white" stroke="#666666" points="282.5,-189.37 181.5,-189.37 181.5,-159.37 282.5,-159.37 282.5,-189.37"/>
<text text-anchor="start" x="189.5" y="-177.37" font-family="Helvetica,sans-Serif" font-size="10.00">fl::net::http::fetch</text>
<text text-anchor="middle" x="232" y="-166.37" font-family="Helvetica,sans-Serif" font-size="10.00">_delete</text>
</a>
</g>
</g>
<!-- Node2&#45;&gt;Node3 -->
<g id="edge2_Node000002_Node000003" class="edge">
<title>Node2&#45;&gt;Node3</title>
<g id="a_edge2_Node000002_Node000003"><a xlink:title=" ">
<path fill="none" stroke="#63b8ff" d="M322.87,-191.39C309.2,-188.8 295.34,-186.18 282.73,-183.79"/>
<polygon fill="#63b8ff" stroke="#63b8ff" points="322.3,-194.84 332.77,-193.26 323.6,-187.97 322.3,-194.84"/>
</a>
</g>
</g>
<!-- Node4 -->
<g id="Node000004" class="node">
<title>Node4</title>
<g id="a_Node000004"><a xlink:href="../../d1/d13/namespacefl_1_1net_1_1http_aa69a7e5a3706b6fb7c8627f19c7b10d2.html#aa69a7e5a3706b6fb7c8627f19c7b10d2" target="_top" xlink:title="HTTP GET request.">
<polygon fill="white" stroke="#666666" points="293,-339.87 171,-339.87 171,-320.87 293,-320.87 293,-339.87"/>
<text text-anchor="middle" x="232" y="-327.87" font-family="Helvetica,sans-Serif" font-size="10.00">fl::net::http::fetch_get</text>
</a>
</g>
</g>
<!-- Node2&#45;&gt;Node4 -->
<g id="edge3_Node000002_Node000004" class="edge">
<title>Node2&#45;&gt;Node4</title>
<g id="a_edge3_Node000002_Node000004"><a xlink:title=" ">
<path fill="none" stroke="#63b8ff" d="M339.71,-226.17C337.39,-227.49 335.15,-228.89 333,-230.37 312.49,-244.53 314.35,-255.48 297,-273.37 279.8,-291.1 258,-309.81 244.79,-320.77"/>
<polygon fill="#63b8ff" stroke="#63b8ff" points="341.61,-229.13 348.93,-221.47 338.43,-222.9 341.61,-229.13"/>
</a>
</g>
</g>
<!-- Node16 -->
<g id="Node000016" class="node">
<title>Node16</title>
<g id="a_Node000016"><a xlink:href="../../d1/d13/namespacefl_1_1net_1_1http_a8fd6c6157ceab6f7c4c1f1549653ea2c.html#a8fd6c6157ceab6f7c4c1f1549653ea2c" target="_top" xlink:title="HTTP HEAD request.">
<polygon fill="white" stroke="#666666" points="297,-140.87 167,-140.87 167,-121.87 297,-121.87 297,-140.87"/>
<text text-anchor="middle" x="232" y="-128.87" font-family="Helvetica,sans-Serif" font-size="10.00">fl::net::http::fetch_head</text>
</a>
</g>
</g>
<!-- Node2&#45;&gt;Node16 -->
<g id="edge12_Node000002_Node000016" class="edge">
<title>Node2&#45;&gt;Node16</title>
<g id="a_edge12_Node000002_Node000016"><a xlink:title=" ">
<path fill="none" stroke="#63b8ff" d="M341.88,-187.11C338.82,-185.62 335.84,-184.04 333,-182.37 314.54,-171.54 315.71,-160.78 297,-150.37 290.21,-146.6 282.6,-143.5 275.05,-140.98"/>
<polygon fill="#63b8ff" stroke="#63b8ff" points="340.66,-190.4 351.22,-191.3 343.53,-184.01 340.66,-190.4"/>
</a>
</g>
</g>
<!-- Node17 -->
<g id="Node000017" class="node">
<title>Node17</title>
<g id="a_Node000017"><a xlink:href="../../d1/d13/namespacefl_1_1net_1_1http_a58acef491969d696249afd4238955ce2.html#a58acef491969d696249afd4238955ce2" target="_top" xlink:title="HTTP OPTIONS request.">
<polygon fill="white" stroke="#666666" points="282.5,-103.37 181.5,-103.37 181.5,-73.37 282.5,-73.37 282.5,-103.37"/>
<text text-anchor="start" x="189.5" y="-91.37" font-family="Helvetica,sans-Serif" font-size="10.00">fl::net::http::fetch</text>
<text text-anchor="middle" x="232" y="-80.37" font-family="Helvetica,sans-Serif" font-size="10.00">_http_options</text>
</a>
</g>
</g>
<!-- Node2&#45;&gt;Node17 -->
<g id="edge13_Node000002_Node000017" class="edge">
<title>Node2&#45;&gt;Node17</title>
<g id="a_edge13_Node000002_Node000017"><a xlink:title=" ">
<path fill="none" stroke="#63b8ff" d="M337.23,-185.71C335.77,-184.65 334.35,-183.54 333,-182.37 306.82,-159.76 322.75,-136.47 297,-113.37 292.74,-109.55 287.82,-106.28 282.65,-103.49"/>
<polygon fill="#63b8ff" stroke="#63b8ff" points="335.73,-188.9 346.07,-191.21 339.43,-182.96 335.73,-188.9"/>
</a>
</g>
</g>
<!-- Node18 -->
<g id="Node000018" class="node">
<title>Node18</title>
<g id="a_Node000018"><a xlink:href="../../d1/d13/namespacefl_1_1net_1_1http_a67b6378413e3219d107d2cc7d7af0f7e.html#a67b6378413e3219d107d2cc7d7af0f7e" target="_top" xlink:title="HTTP PATCH request.">
<polygon fill="white" stroke="#666666" points="282.5,-55.37 181.5,-55.37 181.5,-25.37 282.5,-25.37 282.5,-55.37"/>
<text text-anchor="start" x="189.5" y="-43.37" font-family="Helvetica,sans-Serif" font-size="10.00">fl::net::http::fetch</text>
<text text-anchor="middle" x="232" y="-32.37" font-family="Helvetica,sans-Serif" font-size="10.00">_patch</text>
</a>
</g>
</g>
<!-- Node2&#45;&gt;Node18 -->
<g id="edge14_Node000002_Node000018" class="edge">
<title>Node2&#45;&gt;Node18</title>
<g id="a_edge14_Node000002_Node000018"><a xlink:title=" ">
<path fill="none" stroke="#63b8ff" d="M336.28,-185.48C335.14,-184.49 334.04,-183.46 333,-182.37 294.98,-142.86 334.54,-104.34 297,-64.37 292.94,-60.05 288.02,-56.5 282.74,-53.58"/>
<polygon fill="#63b8ff" stroke="#63b8ff" points="334.23,-188.32 344.38,-191.36 338.34,-182.65 334.23,-188.32"/>
</a>
</g>
</g>
<!-- Node19 -->
<g id="Node000019" class="node">
<title>Node19</title>
<g id="a_Node000019"><a xlink:href="../../d1/d13/namespacefl_1_1net_1_1http_a6de7deb17882db5fd1eabb81a03a3065.html#a6de7deb17882db5fd1eabb81a03a3065" target="_top" xlink:title="HTTP POST request.">
<polygon fill="white" stroke="#666666" points="295.5,-263.87 168.5,-263.87 168.5,-244.87 295.5,-244.87 295.5,-263.87"/>
<text text-anchor="middle" x="232" y="-251.87" font-family="Helvetica,sans-Serif" font-size="10.00">fl::net::http::fetch_post</text>
</a>
</g>
</g>
<!-- Node2&#45;&gt;Node19 -->
<g id="edge15_Node000002_Node000019" class="edge">
<title>Node2&#45;&gt;Node19</title>
<g id="a_edge15_Node000002_Node000019"><a xlink:title=" ">
<path fill="none" stroke="#63b8ff" d="M339.4,-224.3C325.45,-228.29 310.72,-232.48 297,-236.37 287.23,-239.14 276.61,-242.14 266.89,-244.87"/>
<polygon fill="#63b8ff" stroke="#63b8ff" points="340.75,-227.56 349.4,-221.45 338.83,-220.83 340.75,-227.56"/>
</a>
</g>
</g>
<!-- Node20 -->
<g id="Node000020" class="node">
<title>Node20</title>
<g id="a_Node000020"><a xlink:href="../../d1/d13/namespacefl_1_1net_1_1http_ae7492b44a7b68c839fe0862d9f8b235e.html#ae7492b44a7b68c839fe0862d9f8b235e" target="_top" xlink:title="HTTP PUT request.">
<polygon fill="white" stroke="#666666" points="293,-226.87 171,-226.87 171,-207.87 293,-207.87 293,-226.87"/>
<text text-anchor="middle" x="232" y="-214.87" font-family="Helvetica,sans-Serif" font-size="10.00">fl::net::http::fetch_put</text>
</a>
</g>
</g>
<!-- Node2&#45;&gt;Node20 -->
<g id="edge16_Node000002_Node000020" class="edge">
<title>Node2&#45;&gt;Node20</title>
<g id="a_edge16_Node000002_Node000020"><a xlink:title=" ">
<path fill="none" stroke="#63b8ff" d="M322.54,-211.54C312.67,-212.19 302.71,-212.84 293.19,-213.45"/>
<polygon fill="#63b8ff" stroke="#63b8ff" points="323.02,-215.02 332.77,-210.88 322.57,-208.04 323.02,-215.02"/>
</a>
</g>
</g>
<!-- Node5 -->
<g id="Node000005" class="node">
<title>Node5</title>
<g id="a_Node000005"><a xlink:href="../../d7/d23/class_loopback_test_runner_a7bd648260e79e2d22cba532ed7bcc664.html#a7bd648260e79e2d22cba532ed7bcc664" target="_top" xlink:title=" ">
<polygon fill="#fff0f0" stroke="red" points="124,-480.37 7,-480.37 7,-450.37 124,-450.37 124,-480.37"/>
<text text-anchor="start" x="15" y="-468.37" font-family="Helvetica,sans-Serif" font-size="10.00">LoopbackTestRunner</text>
<text text-anchor="middle" x="65.5" y="-457.37" font-family="Helvetica,sans-Serif" font-size="10.00">::runTest</text>
</a>
</g>
</g>
<!-- Node4&#45;&gt;Node5 -->
<g id="edge4_Node000004_Node000005" class="edge">
<title>Node4&#45;&gt;Node5</title>
<g id="a_edge4_Node000004_Node000005"><a xlink:title=" ">
<path fill="none" stroke="#63b8ff" d="M219,-348.41C202.04,-372.65 168.86,-415.65 131,-441.37 126.06,-444.73 120.59,-447.69 114.98,-450.28"/>
<polygon fill="#63b8ff" stroke="#63b8ff" points="221.92,-350.34 224.68,-340.12 216.14,-346.39 221.92,-350.34"/>
</a>
</g>
</g>
<!-- Node7 -->
<g id="Node000007" class="node">
<title>Node7</title>
<g id="a_Node000007"><a xlink:href="../../df/d01/_client_real_8h_a75e6549812ad7bff897e0c92a225878a.html#a75e6549812ad7bff897e0c92a225878a" target="_top" xlink:title=" ">
<polygon fill="#fff0f0" stroke="red" points="124.5,-209.87 6.5,-209.87 6.5,-190.87 124.5,-190.87 124.5,-209.87"/>
<text text-anchor="middle" x="65.5" y="-197.87" font-family="Helvetica,sans-Serif" font-size="10.00">test_await_approach</text>
</a>
</g>
</g>
<!-- Node4&#45;&gt;Node7 -->
<g id="edge5_Node000004_Node000007" class="edge">
<title>Node4&#45;&gt;Node7</title>
<g id="a_edge5_Node000004_Node000007"><a xlink:title=" ">
<path fill="none" stroke="#63b8ff" d="M180.86,-316.34C175.8,-313.58 171.05,-310.29 167,-306.37 136.92,-277.28 162.11,-247.36 131,-219.37 126.66,-215.47 121.56,-212.37 116.15,-209.9"/>
<polygon fill="#63b8ff" stroke="#63b8ff" points="179.65,-319.64 190.19,-320.76 182.65,-313.32 179.65,-319.64"/>
</a>
</g>
</g>
<!-- Node9 -->
<g id="Node000009" class="node">
<title>Node9</title>
<g id="a_Node000009"><a xlink:href="../../d9/dce/_client_validation_real_8h_a48d1b41170d4da38b2d99148b76a9a22.html#a48d1b41170d4da38b2d99148b76a9a22" target="_top" xlink:title=" ">
<polygon fill="#fff0f0" stroke="red" points="117.5,-431.87 13.5,-431.87 13.5,-412.87 117.5,-412.87 117.5,-431.87"/>
<text text-anchor="middle" x="65.5" y="-419.87" font-family="Helvetica,sans-Serif" font-size="10.00">test_get_endpoint</text>
</a>
</g>
</g>
<!-- Node4&#45;&gt;Node9 -->
<g id="edge6_Node000004_Node000009" class="edge">
<title>Node4&#45;&gt;Node9</title>
<g id="a_edge6_Node000004_Node000009"><a xlink:title=" ">
<path fill="none" stroke="#63b8ff" d="M213.18,-346.76C194.14,-363.45 162.44,-389.01 131,-404.37 124.21,-407.69 116.71,-410.48 109.3,-412.81"/>
<polygon fill="#63b8ff" stroke="#63b8ff" points="215.63,-349.26 220.75,-339.99 210.96,-344.04 215.63,-349.26"/>
</a>
</g>
</g>
<!-- Node11 -->
<g id="Node000011" class="node">
<title>Node11</title>
<g id="a_Node000011"><a xlink:href="../../df/d01/_client_real_8h_a648cd3d90f8e240cbbfe5cb934057124.html#a648cd3d90f8e240cbbfe5cb934057124" target="_top" xlink:title="APPROACH 4: JSON Response with await pattern &#160;&#160;Same JSON handling but using await_top_level for synch...">
<polygon fill="#fff0f0" stroke="red" points="112,-394.87 19,-394.87 19,-375.87 112,-375.87 112,-394.87"/>
<text text-anchor="middle" x="65.5" y="-382.87" font-family="Helvetica,sans-Serif" font-size="10.00">test_json_await</text>
</a>
</g>
</g>
<!-- Node4&#45;&gt;Node11 -->
<g id="edge7_Node000004_Node000011" class="edge">
<title>Node4&#45;&gt;Node11</title>
<g id="a_edge7_Node000004_Node000011"><a xlink:title=" ">
<path fill="none" stroke="#63b8ff" d="M197.4,-343.59C178.11,-350.98 153.34,-360.13 131,-367.37 121.93,-370.31 112.05,-373.21 102.82,-375.8"/>
<polygon fill="#63b8ff" stroke="#63b8ff" points="198.88,-346.77 206.95,-339.91 196.36,-340.24 198.88,-346.77"/>
</a>
</g>
</g>
<!-- Node12 -->
<g id="Node000012" class="node">
<title>Node12</title>
<g id="a_Node000012"><a xlink:href="../../d9/dce/_client_validation_real_8h_ad90185b2a71aa34da786634a378ac25b.html#ad90185b2a71aa34da786634a378ac25b" target="_top" xlink:title=" ">
<polygon fill="#fff0f0" stroke="red" points="120,-357.87 11,-357.87 11,-338.87 120,-338.87 120,-357.87"/>
<text text-anchor="middle" x="65.5" y="-345.87" font-family="Helvetica,sans-Serif" font-size="10.00">test_json_endpoint</text>
</a>
</g>
</g>
<!-- Node4&#45;&gt;Node12 -->
<g id="edge8_Node000004_Node000012" class="edge">
<title>Node4&#45;&gt;Node12</title>
<g id="a_edge8_Node000004_Node000012"><a xlink:title=" ">
<path fill="none" stroke="#63b8ff" d="M160.43,-338.09C146.89,-339.58 132.91,-341.11 120.02,-342.52"/>
<polygon fill="#63b8ff" stroke="#63b8ff" points="161.12,-341.54 170.68,-336.97 160.36,-334.58 161.12,-341.54"/>
</a>
</g>
</g>
<!-- Node13 -->
<g id="Node000013" class="node">
<title>Node13</title>
<g id="a_Node000013"><a xlink:href="../../df/d01/_client_real_8h_ac300da999139e52ab96307f86d7fa84d.html#ac300da999139e52ab96307f86d7fa84d" target="_top" xlink:title="APPROACH 3: JSON Response Handling with FastLED&#39;s ideal JSON API This demonstrates fetch responses wi...">
<polygon fill="#fff0f0" stroke="red" points="120.5,-320.87 10.5,-320.87 10.5,-301.87 120.5,-301.87 120.5,-320.87"/>
<text text-anchor="middle" x="65.5" y="-308.87" font-family="Helvetica,sans-Serif" font-size="10.00">test_json_response</text>
</a>
</g>
</g>
<!-- Node4&#45;&gt;Node13 -->
<g id="edge9_Node000004_Node000013" class="edge">
<title>Node4&#45;&gt;Node13</title>
<g id="a_edge9_Node000004_Node000013"><a xlink:title=" ">
<path fill="none" stroke="#63b8ff" d="M160.55,-322.24C147.16,-320.69 133.34,-319.09 120.55,-317.62"/>
<polygon fill="#63b8ff" stroke="#63b8ff" points="160.34,-325.73 170.68,-323.41 161.15,-318.78 160.34,-325.73"/>
</a>
</g>
</g>
<!-- Node14 -->
<g id="Node000014" class="node">
<title>Node14</title>
<g id="a_Node000014"><a xlink:href="../../d9/dce/_client_validation_real_8h_a4a6f06023a5a6afd3efafcb856740c10.html#a4a6f06023a5a6afd3efafcb856740c10" target="_top" xlink:title=" ">
<polygon fill="#fff0f0" stroke="red" points="120.5,-283.87 10.5,-283.87 10.5,-264.87 120.5,-264.87 120.5,-283.87"/>
<text text-anchor="middle" x="65.5" y="-271.87" font-family="Helvetica,sans-Serif" font-size="10.00">test_ping_endpoint</text>
</a>
</g>
</g>
<!-- Node4&#45;&gt;Node14 -->
<g id="edge10_Node000004_Node000014" class="edge">
<title>Node4&#45;&gt;Node14</title>
<g id="a_edge10_Node000004_Node000014"><a xlink:title=" ">
<path fill="none" stroke="#63b8ff" d="M195.67,-317.17C169.56,-307.43 137.47,-295.52 131,-293.37 121.14,-290.1 110.34,-286.81 100.44,-283.9"/>
<polygon fill="#63b8ff" stroke="#63b8ff" points="194.72,-320.55 205.31,-320.77 197.17,-313.99 194.72,-320.55"/>
</a>
</g>
</g>
<!-- Node15 -->
<g id="Node000015" class="node">
<title>Node15</title>
<g id="a_Node000015"><a xlink:href="../../df/d01/_client_real_8h_a63e6ab1f58438832fe951d98467c6db1.html#a63e6ab1f58438832fe951d98467c6db1" target="_top" xlink:title=" ">
<polygon fill="#fff0f0" stroke="red" points="131,-246.87 0,-246.87 0,-227.87 131,-227.87 131,-246.87"/>
<text text-anchor="middle" x="65.5" y="-234.87" font-family="Helvetica,sans-Serif" font-size="10.00">test_promise_approach</text>
</a>
</g>
</g>
<!-- Node4&#45;&gt;Node15 -->
<g id="edge11_Node000004_Node000015" class="edge">
<title>Node4&#45;&gt;Node15</title>
<g id="a_edge11_Node000004_Node000015"><a xlink:title=" ">
<path fill="none" stroke="#63b8ff" d="M184.88,-316.88C178.55,-313.96 172.38,-310.49 167,-306.37 145.25,-289.74 153.34,-272.21 131,-256.37 125.57,-252.52 119.36,-249.45 112.99,-246.99"/>
<polygon fill="#63b8ff" stroke="#63b8ff" points="183.63,-320.15 194.21,-320.75 186.32,-313.68 183.63,-320.15"/>
</a>
</g>
</g>
<!-- Node21&#45;&gt;Node3 -->
<g id="edge18_Node000021_Node000003" class="edge">
<title>Node21&#45;&gt;Node3</title>
<g id="a_edge18_Node000021_Node000003"><a xlink:title=" ">
<path fill="none" stroke="#63b8ff" d="M342.38,-235.28C339.15,-233.74 336,-232.1 333,-230.37 314.71,-219.83 315.09,-210.26 297,-199.37 290.87,-195.68 284.09,-192.35 277.32,-189.41"/>
<polygon fill="#63b8ff" stroke="#63b8ff" points="341.07,-238.53 351.63,-239.36 343.9,-232.12 341.07,-238.53"/>
</a>
</g>
</g>
<!-- Node21&#45;&gt;Node4 -->
<g id="edge19_Node000021_Node000004" class="edge">
<title>Node21&#45;&gt;Node4</title>
<g id="a_edge19_Node000021_Node000004"><a xlink:title=" ">
<path fill="none" stroke="#63b8ff" d="M364.39,-274.15C344.57,-284.28 319.72,-296.52 297,-306.37 285.13,-311.52 271.77,-316.64 260.33,-320.81"/>
<polygon fill="#63b8ff" stroke="#63b8ff" points="366.11,-277.2 373.4,-269.51 362.91,-270.98 366.11,-277.2"/>
</a>
</g>
</g>
<!-- Node21&#45;&gt;Node7 -->
<g id="edge25_Node000021_Node000007" class="edge">
<title>Node21&#45;&gt;Node7</title>
<g id="a_edge25_Node000021_Node000007"><a xlink:title=" ">
<path fill="none" stroke="#63b8ff" d="M354.47,-272.64C304.68,-288.61 225.7,-304.79 167,-273.37 141.57,-259.76 154.23,-236.47 131,-219.37 125.74,-215.5 119.69,-212.41 113.45,-209.95"/>
<polygon fill="#63b8ff" stroke="#63b8ff" points="355.64,-275.94 364.02,-269.46 353.43,-269.3 355.64,-275.94"/>
</a>
</g>
</g>
<!-- Node21&#45;&gt;Node16 -->
<g id="edge20_Node000021_Node000016" class="edge">
<title>Node21&#45;&gt;Node16</title>
<g id="a_edge20_Node000021_Node000016"><a xlink:title=" ">
<path fill="none" stroke="#63b8ff" d="M337.03,-233.74C335.63,-232.67 334.29,-231.55 333,-230.37 304.24,-204.04 326.36,-176.03 297,-150.37 292.55,-146.48 287.33,-143.39 281.83,-140.93"/>
<polygon fill="#63b8ff" stroke="#63b8ff" points="335.23,-236.74 345.52,-239.26 339.05,-230.87 335.23,-236.74"/>
</a>
</g>
</g>
<!-- Node21&#45;&gt;Node17 -->
<g id="edge21_Node000021_Node000017" class="edge">
<title>Node21&#45;&gt;Node17</title>
<g id="a_edge21_Node000021_Node000017"><a xlink:title=" ">
<path fill="none" stroke="#63b8ff" d="M336.28,-233.48C335.14,-232.49 334.05,-231.46 333,-230.37 295.23,-191.21 334.02,-153.24 297,-113.37 292.94,-109 288.03,-105.39 282.75,-102.39"/>
<polygon fill="#63b8ff" stroke="#63b8ff" points="334.24,-236.32 344.39,-239.35 338.34,-230.65 334.24,-236.32"/>
</a>
</g>
</g>
<!-- Node21&#45;&gt;Node18 -->
<g id="edge22_Node000021_Node000018" class="edge">
<title>Node21&#45;&gt;Node18</title>
<g id="a_edge22_Node000021_Node000018"><a xlink:title=" ">
<path fill="none" stroke="#63b8ff" d="M335.36,-232.85C334.55,-232.05 333.76,-231.23 333,-230.37 282.95,-173.86 346.37,-121.49 297,-64.37 293.04,-59.79 288.12,-56.09 282.78,-53.09"/>
<polygon fill="#63b8ff" stroke="#63b8ff" points="333.41,-235.76 343.42,-239.24 337.76,-230.28 333.41,-235.76"/>
</a>
</g>
</g>
<!-- Node21&#45;&gt;Node19 -->
<g id="edge23_Node000021_Node000019" class="edge">
<title>Node21&#45;&gt;Node19</title>
<g id="a_edge23_Node000021_Node000019"><a xlink:title=" ">
<path fill="none" stroke="#63b8ff" d="M322.6,-254.37C313.54,-254.37 304.4,-254.37 295.61,-254.37"/>
<polygon fill="#63b8ff" stroke="#63b8ff" points="322.77,-257.87 332.77,-254.37 322.77,-250.87 322.77,-257.87"/>
</a>
</g>
</g>
<!-- Node21&#45;&gt;Node20 -->
<g id="edge24_Node000021_Node000020" class="edge">
<title>Node21&#45;&gt;Node20</title>
<g id="a_edge24_Node000021_Node000020"><a xlink:title=" ">
<path fill="none" stroke="#63b8ff" d="M323.29,-237.14C307.18,-233.61 290.78,-230.02 276.47,-226.89"/>
<polygon fill="#63b8ff" stroke="#63b8ff" points="322.74,-240.6 333.26,-239.32 324.24,-233.77 322.74,-240.6"/>
</a>
</g>
</g>
<!-- Node24&#45;&gt;Node3 -->
<g id="edge29_Node000024_Node000003" class="edge">
<title>Node24&#45;&gt;Node3</title>
<g id="a_edge29_Node000024_Node000003"><a xlink:title=" ">
<path fill="none" stroke="#63b8ff" d="M337.8,-82.72C336.14,-83.88 334.53,-85.09 333,-86.37 307.97,-107.31 321.78,-129.13 297,-150.37 292.68,-154.08 287.72,-157.24 282.53,-159.93"/>
<polygon fill="#63b8ff" stroke="#63b8ff" points="339.76,-85.63 346.53,-77.48 336.15,-79.63 339.76,-85.63"/>
</a>
</g>
</g>
<!-- Node24&#45;&gt;Node4 -->
<g id="edge30_Node000024_Node000004" class="edge">
<title>Node24&#45;&gt;Node4</title>
<g id="a_edge30_Node000024_Node000004"><a xlink:title=" ">
<path fill="none" stroke="#63b8ff" d="M335.34,-83.87C334.53,-84.68 333.75,-85.51 333,-86.37 277.63,-150.39 338.81,-199.78 297,-273.37 285.39,-293.81 263.73,-310.73 248.85,-320.69"/>
<polygon fill="#63b8ff" stroke="#63b8ff" points="337.74,-86.43 343.33,-77.43 333.35,-80.98 337.74,-86.43"/>
</a>
</g>
</g>
<!-- Node24&#45;&gt;Node7 -->
<g id="edge36_Node000024_Node000007" class="edge">
<title>Node24&#45;&gt;Node7</title>
<g id="a_edge36_Node000024_Node000007"><a xlink:title=" ">
<path fill="none" stroke="#63b8ff" d="M368.8,-42.32C320.92,-16.25 231.19,21.71 167,-16.37 99.7,-56.3 74.55,-158.94 68.23,-190.8"/>
<polygon fill="#63b8ff" stroke="#63b8ff" points="367.37,-45.52 377.8,-47.35 370.78,-39.41 367.37,-45.52"/>
</a>
</g>
</g>
<!-- Node24&#45;&gt;Node16 -->
<g id="edge31_Node000024_Node000016" class="edge">
<title>Node24&#45;&gt;Node16</title>
<g id="a_edge31_Node000024_Node000016"><a xlink:title=" ">
<path fill="none" stroke="#63b8ff" d="M343.74,-81.25C340.05,-82.87 336.45,-84.58 333,-86.37 315.49,-95.49 314.71,-103.66 297,-112.37 289.41,-116.11 280.94,-119.26 272.72,-121.85"/>
<polygon fill="#63b8ff" stroke="#63b8ff" points="345.09,-84.48 353,-77.42 342.42,-78.01 345.09,-84.48"/>
</a>
</g>
</g>
<!-- Node24&#45;&gt;Node17 -->
<g id="edge32_Node000024_Node000017" class="edge">
<title>Node24&#45;&gt;Node17</title>
<g id="a_edge32_Node000024_Node000017"><a xlink:title=" ">
<path fill="none" stroke="#63b8ff" d="M322.87,-74.55C309.2,-76.65 295.34,-78.78 282.73,-80.72"/>
<polygon fill="#63b8ff" stroke="#63b8ff" points="323.42,-78 332.77,-73.02 322.36,-71.08 323.42,-78"/>
</a>
</g>
</g>
<!-- Node24&#45;&gt;Node18 -->
<g id="edge33_Node000024_Node000018" class="edge">
<title>Node24&#45;&gt;Node18</title>
<g id="a_edge33_Node000024_Node000018"><a xlink:title=" ">
<path fill="none" stroke="#63b8ff" d="M322.47,-52.02C308.93,-50.26 295.21,-48.47 282.73,-46.85"/>
<polygon fill="#63b8ff" stroke="#63b8ff" points="322.41,-55.54 332.77,-53.36 323.31,-48.6 322.41,-55.54"/>
</a>
</g>
</g>
<!-- Node24&#45;&gt;Node19 -->
<g id="edge34_Node000024_Node000019" class="edge">
<title>Node24&#45;&gt;Node19</title>
<g id="a_edge34_Node000024_Node000019"><a xlink:title=" ">
<path fill="none" stroke="#63b8ff" d="M335.78,-83.56C334.81,-84.46 333.89,-85.39 333,-86.37 286.98,-137.2 344.53,-186.97 297,-236.37 293.72,-239.78 289.85,-242.56 285.66,-244.83"/>
<polygon fill="#63b8ff" stroke="#63b8ff" points="338.02,-86.24 343.82,-77.38 333.76,-80.69 338.02,-86.24"/>
</a>
</g>
</g>
<!-- Node24&#45;&gt;Node20 -->
<g id="edge35_Node000024_Node000020" class="edge">
<title>Node24&#45;&gt;Node20</title>
<g id="a_edge35_Node000024_Node000020"><a xlink:title=" ">
<path fill="none" stroke="#63b8ff" d="M336.3,-83.28C335.16,-84.27 334.05,-85.29 333,-86.37 296.47,-123.78 334.38,-161.82 297,-198.37 293.02,-202.26 288.29,-205.36 283.22,-207.83"/>
<polygon fill="#63b8ff" stroke="#63b8ff" points="338.35,-86.12 344.44,-77.44 334.27,-80.43 338.35,-86.12"/>
</a>
</g>
</g>
</g>
</svg>
