<?xml version="1.0" encoding="UTF-8" standalone="no"?>
<!DOCTYPE svg PUBLIC "-//W3C//DTD SVG 1.1//EN"
 "http://www.w3.org/Graphics/SVG/1.1/DTD/svg11.dtd">
<!-- Generated by graphviz version 2.43.0 (0)
 -->
<!-- Title: fl/math/fixed_point/s16x16x4.h Pages: 1 -->
<svg width="410pt" height="192pt"
 viewBox="0.00 0.00 410.00 192.00" xmlns="http://www.w3.org/2000/svg" xmlns:xlink="http://www.w3.org/1999/xlink">

<svg id="main" version="1.1" xmlns="http://www.w3.org/2000/svg" xmlns:xlink="http://www.w3.org/1999/xlink" xml:space="preserve">

<style type="text/css"><![CDATA[
.node, .edge {opacity: 0.7;}
.node.selected, .edge.selected {opacity: 1;}
.edge:hover path { stroke: red; }
.edge:hover polygon { stroke: red; fill: red; }
]]></style>
<script type="application/ecmascript" xlink:href="../../svg.min.js"/>
<svg id="graph" class="graph">
<g id="graph0" class="graph" transform="scale(1 1) rotate(0) translate(4 188)">
<title>fl/math/fixed_point/s16x16x4.h</title>
<!-- Node1 -->
<g id="Node000001" class="node">
<title>Node1</title>
<g id="a_Node000001"><a xlink:title="SIMD 4&#45;wide s16x16 fixed&#45;point vector type.">
<polygon fill="#999999" stroke="#666666" points="402,-184 295,-184 295,-154 402,-154 402,-184"/>
<text text-anchor="start" x="303" y="-172" font-family="Helvetica,sans-Serif" font-size="10.00">fl/math/fixed_point</text>
<text text-anchor="middle" x="348.5" y="-161" font-family="Helvetica,sans-Serif" font-size="10.00">/s16x16x4.h</text>
</a>
</g>
</g>
<!-- Node2 -->
<g id="Node000002" class="node">
<title>Node2</title>
<g id="a_Node000002"><a xlink:href="../../d7/dd1/_auto_research_simd_8h.html" target="_top" xlink:title=" ">
<polygon fill="white" stroke="#666666" points="277,-118 98,-118 98,-77 277,-77 277,-118"/>
<text text-anchor="start" x="106" y="-106" font-family="Helvetica,sans-Serif" font-size="10.00">/home/runner/work/FastLED</text>
<text text-anchor="start" x="106" y="-95" font-family="Helvetica,sans-Serif" font-size="10.00">/FastLED/examples/AutoResearch</text>
<text text-anchor="middle" x="187.5" y="-84" font-family="Helvetica,sans-Serif" font-size="10.00">/AutoResearchSimd.h</text>
</a>
</g>
</g>
<!-- Node1&#45;&gt;Node2 -->
<g id="edge1_Node000001_Node000002" class="edge">
<title>Node1&#45;&gt;Node2</title>
<g id="a_edge1_Node000001_Node000002"><a xlink:title=" ">
<path fill="none" stroke="#63b8ff" d="M306.58,-149.9C283.94,-140.13 255.98,-128.06 232.84,-118.07"/>
<polygon fill="#63b8ff" stroke="#63b8ff" points="305.35,-153.19 315.92,-153.94 308.13,-146.76 305.35,-153.19"/>
</a>
</g>
</g>
<!-- Node5 -->
<g id="Node000005" class="node">
<title>Node5</title>
<g id="a_Node000005"><a xlink:href="../../d1/d66/simd__ops_8h.html" target="_top" xlink:title="Cross&#45;type SIMD fixed&#45;point operations (implemented after all types are defined)">
<polygon fill="white" stroke="#666666" points="402,-112.5 295,-112.5 295,-82.5 402,-82.5 402,-112.5"/>
<text text-anchor="start" x="303" y="-100.5" font-family="Helvetica,sans-Serif" font-size="10.00">fl/math/fixed_point</text>
<text text-anchor="middle" x="348.5" y="-89.5" font-family="Helvetica,sans-Serif" font-size="10.00">/simd_ops.h</text>
</a>
</g>
</g>
<!-- Node1&#45;&gt;Node5 -->
<g id="edge4_Node000001_Node000005" class="edge">
<title>Node1&#45;&gt;Node5</title>
<g id="a_edge4_Node000001_Node000005"><a xlink:title=" ">
<path fill="none" stroke="#63b8ff" d="M342.03,-143.75C341.46,-133.31 341.76,-121.49 342.95,-112.54"/>
<polygon fill="#63b8ff" stroke="#63b8ff" points="338.57,-144.29 342.95,-153.94 345.54,-143.66 338.57,-144.29"/>
</a>
</g>
</g>
<!-- Node3 -->
<g id="Node000003" class="node">
<title>Node3</title>
<g id="a_Node000003"><a xlink:href="../../dd/dc8/_auto_research_8ino.html" target="_top" xlink:title=" ">
<polygon fill="white" stroke="#666666" points="179,-41 0,-41 0,0 179,0 179,-41"/>
<text text-anchor="start" x="8" y="-29" font-family="Helvetica,sans-Serif" font-size="10.00">/home/runner/work/FastLED</text>
<text text-anchor="start" x="8" y="-18" font-family="Helvetica,sans-Serif" font-size="10.00">/FastLED/examples/AutoResearch</text>
<text text-anchor="middle" x="89.5" y="-7" font-family="Helvetica,sans-Serif" font-size="10.00">/AutoResearch.ino</text>
</a>
</g>
</g>
<!-- Node2&#45;&gt;Node3 -->
<g id="edge2_Node000002_Node000003" class="edge">
<title>Node2&#45;&gt;Node3</title>
<g id="a_edge2_Node000002_Node000003"><a xlink:title=" ">
<path fill="none" stroke="#63b8ff" d="M153.94,-70.82C141.26,-61.11 127.05,-50.24 115.21,-41.17"/>
<polygon fill="#63b8ff" stroke="#63b8ff" points="151.94,-73.69 162.01,-76.99 156.19,-68.13 151.94,-73.69"/>
</a>
</g>
</g>
<!-- Node4 -->
<g id="Node000004" class="node">
<title>Node4</title>
<g id="a_Node000004"><a xlink:href="../../db/dfb/_auto_research_remote_8cpp.html" target="_top" xlink:title=" ">
<polygon fill="white" stroke="#666666" points="376,-41 197,-41 197,0 376,0 376,-41"/>
<text text-anchor="start" x="205" y="-29" font-family="Helvetica,sans-Serif" font-size="10.00">/home/runner/work/FastLED</text>
<text text-anchor="start" x="205" y="-18" font-family="Helvetica,sans-Serif" font-size="10.00">/FastLED/examples/AutoResearch</text>
<text text-anchor="middle" x="286.5" y="-7" font-family="Helvetica,sans-Serif" font-size="10.00">/AutoResearchRemote.cpp</text>
</a>
</g>
</g>
<!-- Node2&#45;&gt;Node4 -->
<g id="edge3_Node000002_Node000004" class="edge">
<title>Node2&#45;&gt;Node4</title>
<g id="a_edge3_Node000002_Node000004"><a xlink:title=" ">
<path fill="none" stroke="#63b8ff" d="M221.4,-70.82C234.21,-61.11 248.57,-50.24 260.53,-41.17"/>
<polygon fill="#63b8ff" stroke="#63b8ff" points="219.11,-68.16 213.25,-76.99 223.34,-73.74 219.11,-68.16"/>
</a>
</g>
</g>
<!-- Node5&#45;&gt;Node1 -->
<g id="edge5_Node000005_Node000001" class="edge">
<title>Node5&#45;&gt;Node1</title>
<g id="a_edge5_Node000005_Node000001"><a xlink:title=" ">
<path fill="none" stroke="#63b8ff" d="M354.97,-122.73C355.54,-133.16 355.24,-144.99 354.05,-153.94"/>
<polygon fill="#63b8ff" stroke="#63b8ff" points="358.43,-122.19 354.05,-112.54 351.46,-122.82 358.43,-122.19"/>
</a>
</g>
</g>
</g>
</svg>
</svg>

<style type='text/css'>
<![CDATA[
[data-mouse-over-selected='false'] { opacity: 0.7; }
[data-mouse-over-selected='true']  { opacity: 1.0; }
]]>
</style>
<script type="application/ecmascript"><![CDATA[
document.addEventListener('DOMContentLoaded', (event) => {
  highlightEdges();
  highlightAdjacentNodes();
});
]]></script>
</svg>
