<?xml version="1.0" encoding="UTF-8" standalone="no"?>
<!DOCTYPE svg PUBLIC "-//W3C//DTD SVG 1.1//EN"
 "http://www.w3.org/Graphics/SVG/1.1/DTD/svg11.dtd">
<!-- Generated by graphviz version 2.43.0 (0)
 -->
<!-- Title: fl::CircularBuffer::operator= Pages: 1 -->
<svg width="365pt" height="38pt"
 viewBox="0.00 0.00 365.00 38.00" xmlns="http://www.w3.org/2000/svg" xmlns:xlink="http://www.w3.org/1999/xlink">
<g id="graph0" class="graph" transform="scale(1 1) rotate(0) translate(4 34)">
<title>fl::CircularBuffer::operator=</title>
<!-- Node1 -->
<g id="Node000001" class="node">
<title>Node1</title>
<g id="a_Node000001"><a xlink:title=" ">
<polygon fill="#999999" stroke="#666666" points="95,-30 0,-30 0,0 95,0 95,-30"/>
<text text-anchor="start" x="8" y="-18" font-family="Helvetica,sans-Serif" font-size="10.00">fl::CircularBuffer</text>
<text text-anchor="middle" x="47.5" y="-7" font-family="Helvetica,sans-Serif" font-size="10.00">::operator=</text>
</a>
</g>
</g>
<!-- Node2 -->
<g id="Node000002" class="node">
<title>Node2</title>
<g id="a_Node000002"><a xlink:href="../../d2/d4f/classfl_1_1_circular_buffer_aba0b27f8dead3945fb0ad7069aa53323.html#aba0b27f8dead3945fb0ad7069aa53323" target="_top" xlink:title=" ">
<polygon fill="white" stroke="#666666" points="226,-30 131,-30 131,0 226,0 226,-30"/>
<text text-anchor="start" x="139" y="-18" font-family="Helvetica,sans-Serif" font-size="10.00">fl::CircularBuffer</text>
<text text-anchor="middle" x="178.5" y="-7" font-family="Helvetica,sans-Serif" font-size="10.00">::CircularBuffer</text>
</a>
</g>
</g>
<!-- Node1&#45;&gt;Node2 -->
<g id="edge1_Node000001_Node000002" class="edge">
<title>Node1&#45;&gt;Node2</title>
<g id="a_edge1_Node000001_Node000002"><a xlink:title=" ">
<path fill="none" stroke="#63b8ff" d="M95.07,-15C103.48,-15 112.32,-15 120.97,-15"/>
<polygon fill="#63b8ff" stroke="#63b8ff" points="121,-18.5 131,-15 121,-11.5 121,-18.5"/>
</a>
</g>
</g>
<!-- Node3 -->
<g id="Node000003" class="node">
<title>Node3</title>
<g id="a_Node000003"><a xlink:href="../../d2/d4f/classfl_1_1_circular_buffer_a61c5530adcc76b18b8ce74180511b934.html#a61c5530adcc76b18b8ce74180511b934" target="_top" xlink:title=" ">
<polygon fill="white" stroke="#666666" points="357,-30 262,-30 262,0 357,0 357,-30"/>
<text text-anchor="start" x="270" y="-18" font-family="Helvetica,sans-Serif" font-size="10.00">fl::CircularBuffer</text>
<text text-anchor="middle" x="309.5" y="-7" font-family="Helvetica,sans-Serif" font-size="10.00">::capacity</text>
</a>
</g>
</g>
<!-- Node2&#45;&gt;Node3 -->
<g id="edge2_Node000002_Node000003" class="edge">
<title>Node2&#45;&gt;Node3</title>
<g id="a_edge2_Node000002_Node000003"><a xlink:title=" ">
<path fill="none" stroke="#63b8ff" d="M226.07,-15C234.48,-15 243.32,-15 251.97,-15"/>
<polygon fill="#63b8ff" stroke="#63b8ff" points="252,-18.5 262,-15 252,-11.5 252,-18.5"/>
</a>
</g>
</g>
</g>
</svg>
