<?xml version="1.0" encoding="UTF-8" standalone="no"?>
<!DOCTYPE svg PUBLIC "-//W3C//DTD SVG 1.1//EN"
 "http://www.w3.org/Graphics/SVG/1.1/DTD/svg11.dtd">
<!-- Generated by graphviz version 2.43.0 (0)
 -->
<!-- Title: operator% Pages: 1 -->
<svg width="346pt" height="27pt"
 viewBox="0.00 0.00 346.00 27.00" xmlns="http://www.w3.org/2000/svg" xmlns:xlink="http://www.w3.org/1999/xlink">
<g id="graph0" class="graph" transform="scale(1 1) rotate(0) translate(4 23)">
<title>operator%</title>
<!-- Node1 -->
<g id="Node000001" class="node">
<title>Node1</title>
<g id="a_Node000001"><a xlink:title="Scale using CRGB::nscale8_video()">
<polygon fill="#999999" stroke="#666666" points="68,-19 0,-19 0,0 68,0 68,-19"/>
<text text-anchor="middle" x="34" y="-7" font-family="Helvetica,sans-Serif" font-size="10.00">operator%</text>
</a>
</g>
</g>
<!-- Node2 -->
<g id="Node000002" class="node">
<title>Node2</title>
<g id="a_Node000002"><a xlink:href="../../d7/d82/struct_c_r_g_b_af4cad72bcd9b925d527a3af3a8d956e6.html#af4cad72bcd9b925d527a3af3a8d956e6" target="_top" xlink:title="Scale down a RGB to N/256ths of it&#39;s current brightness using &quot;video&quot; dimming rules.">
<polygon fill="white" stroke="#666666" points="224,-19 104,-19 104,0 224,0 224,-19"/>
<text text-anchor="middle" x="164" y="-7" font-family="Helvetica,sans-Serif" font-size="10.00">CRGB::nscale8_video</text>
</a>
</g>
</g>
<!-- Node1&#45;&gt;Node2 -->
<g id="edge1_Node000001_Node000002" class="edge">
<title>Node1&#45;&gt;Node2</title>
<g id="a_edge1_Node000001_Node000002"><a xlink:title=" ">
<path fill="none" stroke="#63b8ff" d="M68.3,-9.5C76.07,-9.5 84.63,-9.5 93.34,-9.5"/>
<polygon fill="#63b8ff" stroke="#63b8ff" points="93.59,-13 103.59,-9.5 93.59,-6 93.59,-13"/>
</a>
</g>
</g>
<!-- Node3 -->
<g id="Node000003" class="node">
<title>Node3</title>
<g id="a_Node000003"><a xlink:href="../../d7/d82/struct_c_r_g_b_a4b0cc1cfefd9e0c66ea5c6583181df46.html#a4b0cc1cfefd9e0c66ea5c6583181df46" target="_top" xlink:title="Default constructor.">
<polygon fill="white" stroke="#666666" points="338,-19 260,-19 260,0 338,0 338,-19"/>
<text text-anchor="middle" x="299" y="-7" font-family="Helvetica,sans-Serif" font-size="10.00">CRGB::CRGB</text>
</a>
</g>
</g>
<!-- Node2&#45;&gt;Node3 -->
<g id="edge2_Node000002_Node000003" class="edge">
<title>Node2&#45;&gt;Node3</title>
<g id="a_edge2_Node000002_Node000003"><a xlink:title=" ">
<path fill="none" stroke="#63b8ff" d="M224.11,-9.5C232.6,-9.5 241.25,-9.5 249.5,-9.5"/>
<polygon fill="#63b8ff" stroke="#63b8ff" points="249.69,-13 259.69,-9.5 249.69,-6 249.69,-13"/>
</a>
</g>
</g>
</g>
</svg>
