<?xml version="1.0" encoding="UTF-8" standalone="no"?>
<!DOCTYPE svg PUBLIC "-//W3C//DTD SVG 1.1//EN"
 "http://www.w3.org/Graphics/SVG/1.1/DTD/svg11.dtd">
<!-- Generated by graphviz version 2.43.0 (0)
 -->
<!-- Title: colorutils.h Pages: 1 -->
<!--zoomable 368 -->

<svg id="main" version="1.1" xmlns="http://www.w3.org/2000/svg" xmlns:xlink="http://www.w3.org/1999/xlink" xml:space="preserve" onload="init(evt)">

<style type="text/css"><![CDATA[
.node, .edge {opacity: 0.7;}
.node.selected, .edge.selected {opacity: 1;}
.edge:hover path { stroke: red; }
.edge:hover polygon { stroke: red; fill: red; }
]]></style>

<defs>
  <circle id="rim" cx="0" cy="0" r="7"/>
  <circle id="rim2" cx="0" cy="0" r="3.5"/>
  <g id="zoomPlus">
    <use xlink:href="#rim" fill="#404040"><set attributeName="fill" to="#808080" begin="zoomplus.mouseover" end="zoomplus.mouseout"/></use>
    <path d="M-4,0h8M0,-4v8" fill="none" stroke="white" stroke-width="1.5" pointer-events="none"/>
  </g>
  <g id="zoomMin">
    <use xlink:href="#rim" fill="#404040"><set attributeName="fill" to="#808080" begin="zoomminus.mouseover" end="zoomminus.mouseout"/></use>
    <path d="M-4,0h8" fill="none" stroke="white" stroke-width="1.5" pointer-events="none"/>
  </g>
  <g id="arrowUp" transform="translate(30 24)">
    <use xlink:href="#rim"/>
    <path pointer-events="none" fill="none" stroke="white" stroke-width="1.5" d="M0,-3.0v7 M-2.5,-0.5L0,-3.0L2.5,-0.5"/>
  </g>
  <g id="arrowRight" transform="rotate(90) translate(36 -43)">
    <use xlink:href="#rim"/>
    <path pointer-events="none" fill="none" stroke="white" stroke-width="1.5" d="M0,-3.0v7 M-2.5,-0.5L0,-3.0L2.5,-0.5"/>
  </g>
  <g id="arrowDown" transform="rotate(180) translate(-30 -48)">
    <use xlink:href="#rim"/>
    <path pointer-events="none" fill="none" stroke="white" stroke-width="1.5" d="M0,-3.0v7 M-2.5,-0.5L0,-3.0L2.5,-0.5"/>
  </g>
  <g id="arrowLeft" transform="rotate(270) translate(-36 17)">
    <use xlink:href="#rim"/>
    <path pointer-events="none" fill="none" stroke="white" stroke-width="1.5" d="M0,-3.0v7 M-2.5,-0.5L0,-3.0L2.5,-0.5"/>
  </g>
  <g id="resetDef">
    <use xlink:href="#rim2" fill="#404040"><set attributeName="fill" to="#808080" begin="reset.mouseover" end="reset.mouseout"/></use>
  </g>
</defs>
<script type="application/ecmascript">
var viewWidth = 3151;
var viewHeight = 368;
var sectionId = 'dynsection-1';
</script>
<script type="application/ecmascript" xlink:href="../../svg.min.js"/>
<svg id="graph" class="graph">
<g id="viewport">
<title>colorutils.h</title>
<!-- Node1 -->
<g id="Node000001" class="node">
<title>Node1</title>
<g id="a_Node000001"><a xlink:title=" ">
<polygon fill="#999999" stroke="#666666" points="1680.26,-360 1609.26,-360 1609.26,-341 1680.26,-341 1680.26,-360"/>
<text text-anchor="middle" x="1644.76" y="-348" font-family="Helvetica,sans-Serif" font-size="10.00">colorutils.h</text>
</a>
</g>
</g>
<!-- Node2 -->
<g id="Node000002" class="node">
<title>Node2</title>
<g id="a_Node000002"><a xlink:href="../../db/d97/_fast_l_e_d_8h.html" target="_top" xlink:title="central include file for FastLED, defines the CFastLED class/object">
<polygon fill="white" stroke="#666666" points="2997.76,-129 2933.76,-129 2933.76,-110 2997.76,-110 2997.76,-129"/>
<text text-anchor="middle" x="2965.76" y="-117" font-family="Helvetica,sans-Serif" font-size="10.00">FastLED.h</text>
</a>
</g>
</g>
<!-- Node1&#45;&gt;Node2 -->
<g id="edge1_Node000001_Node000002" class="edge">
<title>Node1&#45;&gt;Node2</title>
<g id="a_edge1_Node000001_Node000002"><a xlink:title=" ">
<path fill="none" stroke="#63b8ff" d="M1690.31,-348.66C1928.03,-343.79 3018.67,-314.94 3099.76,-195 3127.2,-154.43 3045.97,-133.69 2998.11,-125.24"/>
<polygon fill="#63b8ff" stroke="#63b8ff" points="1690.2,-345.16 1680.28,-348.87 1690.35,-352.16 1690.2,-345.16"/>
</a>
</g>
</g>
<!-- Node6 -->
<g id="Node000006" class="node">
<title>Node6</title>
<g id="a_Node000006"><a xlink:href="../../d0/df9/colorpalettes_8cpp_8hpp.html" target="_top" xlink:title=" ">
<polygon fill="white" stroke="#666666" points="151.76,-189.5 29.76,-189.5 29.76,-170.5 151.76,-170.5 151.76,-189.5"/>
<text text-anchor="middle" x="90.76" y="-177.5" font-family="Helvetica,sans-Serif" font-size="10.00">colorpalettes.cpp.hpp</text>
</a>
</g>
</g>
<!-- Node1&#45;&gt;Node6 -->
<g id="edge5_Node000001_Node000006" class="edge">
<title>Node1&#45;&gt;Node6</title>
<g id="a_edge5_Node000001_Node000006"><a xlink:title=" ">
<path fill="none" stroke="#63b8ff" d="M1598.51,-346.44C1445.35,-336.06 940.82,-300.11 525.76,-250 365.07,-230.6 325.34,-222.08 165.76,-195 155.84,-193.32 145.2,-191.4 135.14,-189.53"/>
<polygon fill="#63b8ff" stroke="#63b8ff" points="1598.71,-349.96 1608.93,-347.14 1599.19,-342.97 1598.71,-349.96"/>
</a>
</g>
</g>
<!-- Node7 -->
<g id="Node000007" class="node">
<title>Node7</title>
<g id="a_Node000007"><a xlink:href="../../dc/dcc/colorpalettes_8h.html" target="_top" xlink:title="Declarations for the predefined color palettes supplied by FastLED.">
<polygon fill="white" stroke="#666666" points="1689.26,-305 1600.26,-305 1600.26,-286 1689.26,-286 1689.26,-305"/>
<text text-anchor="middle" x="1644.76" y="-293" font-family="Helvetica,sans-Serif" font-size="10.00">colorpalettes.h</text>
</a>
</g>
</g>
<!-- Node1&#45;&gt;Node7 -->
<g id="edge8_Node000001_Node000007" class="edge">
<title>Node1&#45;&gt;Node7</title>
<g id="a_edge8_Node000001_Node000007"><a xlink:title=" ">
<path fill="none" stroke="#63b8ff" d="M1644.76,-330.66C1644.76,-321.93 1644.76,-311.99 1644.76,-305.09"/>
<polygon fill="#63b8ff" stroke="#63b8ff" points="1641.26,-330.75 1644.76,-340.75 1648.26,-330.75 1641.26,-330.75"/>
</a>
</g>
</g>
<!-- Node3 -->
<g id="Node000003" class="node">
<title>Node3</title>
<g id="a_Node000003"><a xlink:href="../../d7/de5/_fast_l_e_d_8cpp_8hpp.html" target="_top" xlink:title=" ">
<polygon fill="white" stroke="#666666" points="987.76,-74 891.76,-74 891.76,-55 987.76,-55 987.76,-74"/>
<text text-anchor="middle" x="939.76" y="-62" font-family="Helvetica,sans-Serif" font-size="10.00">FastLED.cpp.hpp</text>
</a>
</g>
</g>
<!-- Node2&#45;&gt;Node3 -->
<g id="edge2_Node000002_Node000003" class="edge">
<title>Node2&#45;&gt;Node3</title>
<g id="a_edge2_Node000002_Node000003"><a xlink:title=" ">
<path fill="none" stroke="#63b8ff" d="M2923.53,-116.77C2877.77,-114.93 2802.59,-112.01 2737.76,-110 2042.95,-88.45 1196.85,-70.73 988.05,-66.47"/>
<polygon fill="#63b8ff" stroke="#63b8ff" points="2923.54,-120.27 2933.67,-117.18 2923.82,-113.28 2923.54,-120.27"/>
</a>
</g>
</g>
<!-- Node4 -->
<g id="Node000004" class="node">
<title>Node4</title>
<g id="a_Node000004"><a xlink:href="../../d7/dd5/__build_8cpp_8hpp.html" target="_top" xlink:title=" ">
<polygon fill="white" stroke="#666666" points="620.26,-19 533.26,-19 533.26,0 620.26,0 620.26,-19"/>
<text text-anchor="middle" x="576.76" y="-7" font-family="Helvetica,sans-Serif" font-size="10.00">_build.cpp.hpp</text>
</a>
</g>
</g>
<!-- Node3&#45;&gt;Node4 -->
<g id="edge3_Node000003_Node000004" class="edge">
<title>Node3&#45;&gt;Node4</title>
<g id="a_edge3_Node000003_Node000004"><a xlink:title=" ">
<path fill="none" stroke="#63b8ff" d="M881.65,-54.84C782.28,-40.22 677.8,-25.09 620.35,-16.79"/>
<polygon fill="#63b8ff" stroke="#63b8ff" points="881.16,-58.31 891.56,-56.3 882.18,-51.38 881.16,-58.31"/>
</a>
</g>
</g>
<!-- Node5 -->
<g id="Node000005" class="node">
<title>Node5</title>
<g id="a_Node000005"><a xlink:href="../../dd/de2/src_8cpp.html" target="_top" xlink:title="Unity build: flat includes from src/ root directory.">
<polygon fill="white" stroke="#666666" points="496.26,-19 409.26,-19 409.26,0 496.26,0 496.26,-19"/>
<text text-anchor="middle" x="452.76" y="-7" font-family="Helvetica,sans-Serif" font-size="10.00">fl/build/src.cpp</text>
</a>
</g>
</g>
<!-- Node3&#45;&gt;Node5 -->
<g id="edge4_Node000003_Node000005" class="edge">
<title>Node3&#45;&gt;Node5</title>
<g id="a_edge4_Node000003_Node000005"><a xlink:title=" ">
<path fill="none" stroke="#63b8ff" d="M881.41,-54.89C721.93,-35.22 679.89,-36.17 523.76,-19 514.88,-18.02 505.38,-16.92 496.3,-15.85"/>
<polygon fill="#63b8ff" stroke="#63b8ff" points="881.23,-58.39 891.58,-56.15 882.09,-51.44 881.23,-58.39"/>
</a>
</g>
</g>
<!-- Node6&#45;&gt;Node4 -->
<g id="edge6_Node000006_Node000004" class="edge">
<title>Node6&#45;&gt;Node4</title>
<g id="a_edge6_Node000006_Node000004"><a xlink:title=" ">
<path fill="none" stroke="#63b8ff" d="M122.69,-166.65C171.14,-147.73 265.93,-109.95 344.76,-74 361.94,-66.17 364.99,-61.38 382.76,-55 433.01,-36.97 493.27,-24.49 533.15,-17.43"/>
<polygon fill="#63b8ff" stroke="#63b8ff" points="121.12,-163.51 113.08,-170.4 123.66,-170.03 121.12,-163.51"/>
</a>
</g>
</g>
<!-- Node6&#45;&gt;Node5 -->
<g id="edge7_Node000006_Node000005" class="edge">
<title>Node6&#45;&gt;Node5</title>
<g id="a_edge7_Node000006_Node000005"><a xlink:title=" ">
<path fill="none" stroke="#63b8ff" d="M68.9,-164.35C35.19,-140.04 -22.38,-90.54 9.76,-55 36.24,-25.73 302.47,-14.84 409.02,-11.63"/>
<polygon fill="#63b8ff" stroke="#63b8ff" points="67.09,-167.35 77.28,-170.23 71.11,-161.62 67.09,-167.35"/>
</a>
</g>
</g>
<!-- Node7&#45;&gt;Node2 -->
<g id="edge9_Node000007_Node000002" class="edge">
<title>Node7&#45;&gt;Node2</title>
<g id="a_edge9_Node000007_Node000002"><a xlink:title=" ">
<path fill="none" stroke="#63b8ff" d="M1699.87,-295.01C1951.93,-296.79 2986.87,-297.75 3082.76,-195 3112.42,-163.22 3042.09,-139.22 2998.03,-127.83"/>
<polygon fill="#63b8ff" stroke="#63b8ff" points="1699.52,-291.51 1689.5,-294.94 1699.47,-298.51 1699.52,-291.51"/>
</a>
</g>
</g>
<!-- Node7&#45;&gt;Node6 -->
<g id="edge10_Node000007_Node000006" class="edge">
<title>Node7&#45;&gt;Node6</title>
<g id="a_edge10_Node000007_Node000006"><a xlink:title=" ">
<path fill="none" stroke="#63b8ff" d="M1589.85,-293.13C1395.01,-287.78 718.88,-264.98 165.76,-195 154.59,-193.59 142.57,-191.57 131.5,-189.5"/>
<polygon fill="#63b8ff" stroke="#63b8ff" points="1590.02,-296.64 1600.11,-293.41 1590.21,-289.64 1590.02,-296.64"/>
</a>
</g>
</g>
<!-- Node8 -->
<g id="Node000008" class="node">
<title>Node8</title>
<g id="a_Node000008"><a xlink:href="../../d7/dc2/fl_2system_2_fast_l_e_d_8h.html" target="_top" xlink:title="Internal FastLED header for implementation files.">
<polygon fill="white" stroke="#666666" points="1698.26,-250 1591.26,-250 1591.26,-231 1698.26,-231 1698.26,-250"/>
<text text-anchor="middle" x="1644.76" y="-238" font-family="Helvetica,sans-Serif" font-size="10.00">fl/system/fastled.h</text>
</a>
</g>
</g>
<!-- Node7&#45;&gt;Node8 -->
<g id="edge11_Node000007_Node000008" class="edge">
<title>Node7&#45;&gt;Node8</title>
<g id="a_edge11_Node000007_Node000008"><a xlink:title=" ">
<path fill="none" stroke="#63b8ff" d="M1644.76,-275.66C1644.76,-266.93 1644.76,-256.99 1644.76,-250.09"/>
<polygon fill="#63b8ff" stroke="#63b8ff" points="1641.26,-275.75 1644.76,-285.75 1648.26,-275.75 1641.26,-275.75"/>
</a>
</g>
</g>
<!-- Node8&#45;&gt;Node2 -->
<g id="edge12_Node000008_Node000002" class="edge">
<title>Node8&#45;&gt;Node2</title>
<g id="a_edge12_Node000008_Node000002"><a xlink:title=" ">
<path fill="none" stroke="#63b8ff" d="M1708.75,-238.7C1982.43,-235.12 3041.83,-219.69 3065.76,-195 3075.04,-185.43 3073.03,-176.18 3065.76,-165 3050.86,-142.05 3021.08,-130.84 2997.88,-125.42"/>
<polygon fill="#63b8ff" stroke="#63b8ff" points="1708.54,-235.2 1698.58,-238.83 1708.63,-242.2 1708.54,-235.2"/>
</a>
</g>
</g>
<!-- Node8&#45;&gt;Node6 -->
<g id="edge16_Node000008_Node000006" class="edge">
<title>Node8&#45;&gt;Node6</title>
<g id="a_edge16_Node000008_Node000006"><a xlink:title=" ">
<path fill="none" stroke="#63b8ff" d="M1580.61,-238.15C1314.83,-232.5 307.46,-210.26 165.76,-195 154.17,-193.75 141.69,-191.71 130.3,-189.56"/>
<polygon fill="#63b8ff" stroke="#63b8ff" points="1580.79,-241.66 1590.86,-238.37 1580.94,-234.66 1580.79,-241.66"/>
</a>
</g>
</g>
<!-- Node9 -->
<g id="Node000009" class="node">
<title>Node9</title>
<g id="a_Node000009"><a xlink:href="../../df/dcc/cled__controller_8cpp_8hpp.html" target="_top" xlink:title=" ">
<polygon fill="white" stroke="#666666" points="661.26,-74 532.26,-74 532.26,-55 661.26,-55 661.26,-74"/>
<text text-anchor="middle" x="596.76" y="-62" font-family="Helvetica,sans-Serif" font-size="10.00">cled_controller.cpp.hpp</text>
</a>
</g>
</g>
<!-- Node8&#45;&gt;Node9 -->
<g id="edge13_Node000008_Node000009" class="edge">
<title>Node8&#45;&gt;Node9</title>
<g id="a_edge13_Node000008_Node000009"><a xlink:title=" ">
<path fill="none" stroke="#63b8ff" d="M1581.02,-239.74C1326.39,-240.37 393.9,-239.64 350.76,-195 287.46,-129.49 451.24,-90.18 541.65,-74.05"/>
<polygon fill="#63b8ff" stroke="#63b8ff" points="1581.22,-243.24 1591.21,-239.71 1581.2,-236.24 1581.22,-243.24"/>
</a>
</g>
</g>
<!-- Node10 -->
<g id="Node000010" class="node">
<title>Node10</title>
<g id="a_Node000010"><a xlink:href="../../d3/dd8/crgb_8cpp_8hpp.html" target="_top" xlink:title=" ">
<polygon fill="white" stroke="#666666" points="758.26,-74 679.26,-74 679.26,-55 758.26,-55 758.26,-74"/>
<text text-anchor="middle" x="718.76" y="-62" font-family="Helvetica,sans-Serif" font-size="10.00">crgb.cpp.hpp</text>
</a>
</g>
</g>
<!-- Node8&#45;&gt;Node10 -->
<g id="edge17_Node000008_Node000010" class="edge">
<title>Node8&#45;&gt;Node10</title>
<g id="a_edge17_Node000008_Node000010"><a xlink:title=" ">
<path fill="none" stroke="#63b8ff" d="M1708.43,-239.12C1926.76,-237.53 2633.55,-229.69 2666.76,-195 2675.98,-185.37 2675.96,-174.65 2666.76,-165 2593.89,-88.55 872.75,-85.58 767.76,-74 764.67,-73.66 761.48,-73.25 758.28,-72.79"/>
<polygon fill="#63b8ff" stroke="#63b8ff" points="1708.38,-235.62 1698.41,-239.2 1708.43,-242.62 1708.38,-235.62"/>
</a>
</g>
</g>
<!-- Node11 -->
<g id="Node000011" class="node">
<title>Node11</title>
<g id="a_Node000011"><a xlink:href="../../d3/de1/dmx_8h.html" target="_top" xlink:title="Defines the DMX512&#45;based LED controllers.">
<polygon fill="white" stroke="#666666" points="2897.26,-189.5 2850.26,-189.5 2850.26,-170.5 2897.26,-170.5 2897.26,-189.5"/>
<text text-anchor="middle" x="2873.76" y="-177.5" font-family="Helvetica,sans-Serif" font-size="10.00">dmx.h</text>
</a>
</g>
</g>
<!-- Node8&#45;&gt;Node11 -->
<g id="edge20_Node000008_Node000011" class="edge">
<title>Node8&#45;&gt;Node11</title>
<g id="a_edge20_Node000008_Node000011"><a xlink:title=" ">
<path fill="none" stroke="#63b8ff" d="M1708.61,-238.48C1940.48,-234.58 2730.22,-219.63 2840.76,-195 2846.11,-193.81 2851.68,-191.78 2856.69,-189.64"/>
<polygon fill="#63b8ff" stroke="#63b8ff" points="1708.26,-234.98 1698.32,-238.65 1708.38,-241.98 1708.26,-234.98"/>
</a>
</g>
</g>
<!-- Node12 -->
<g id="Node000012" class="node">
<title>Node12</title>
<g id="a_Node000012"><a xlink:href="../../d0/d5b/fastled__delay_8cpp_8hpp.html" target="_top" xlink:title=" ">
<polygon fill="white" stroke="#666666" points="513.76,-74 391.76,-74 391.76,-55 513.76,-55 513.76,-74"/>
<text text-anchor="middle" x="452.76" y="-62" font-family="Helvetica,sans-Serif" font-size="10.00">fastled_delay.cpp.hpp</text>
</a>
</g>
</g>
<!-- Node8&#45;&gt;Node12 -->
<g id="edge22_Node000008_Node000012" class="edge">
<title>Node8&#45;&gt;Node12</title>
<g id="a_edge22_Node000008_Node000012"><a xlink:title=" ">
<path fill="none" stroke="#63b8ff" d="M1580.56,-239.77C1323.02,-240.54 376.53,-240.28 332.76,-195 308.47,-169.87 358.42,-114.17 362.76,-110 380.49,-92.97 405.99,-81.2 425.33,-74.06"/>
<polygon fill="#63b8ff" stroke="#63b8ff" points="1580.88,-243.27 1590.87,-239.74 1580.86,-236.27 1580.88,-243.27"/>
</a>
</g>
</g>
<!-- Node13 -->
<g id="Node000013" class="node">
<title>Node13</title>
<g id="a_Node000013"><a xlink:href="../../d6/ddc/fastspi_8h.html" target="_top" xlink:title="Serial peripheral interface (SPI) definitions per platform.">
<polygon fill="#fff0f0" stroke="red" points="2974.26,-189.5 2915.26,-189.5 2915.26,-170.5 2974.26,-170.5 2974.26,-189.5"/>
<text text-anchor="middle" x="2944.76" y="-177.5" font-family="Helvetica,sans-Serif" font-size="10.00">fastspi.h</text>
</a>
</g>
</g>
<!-- Node8&#45;&gt;Node13 -->
<g id="edge25_Node000008_Node000013" class="edge">
<title>Node8&#45;&gt;Node13</title>
<g id="a_edge25_Node000008_Node000013"><a xlink:title=" ">
<path fill="none" stroke="#63b8ff" d="M1708.8,-239.92C1931.88,-240.95 2673.83,-240.79 2906.76,-195 2912.83,-193.81 2919.22,-191.78 2924.99,-189.63"/>
<polygon fill="#63b8ff" stroke="#63b8ff" points="1708.59,-236.42 1698.58,-239.87 1708.56,-243.42 1708.59,-236.42"/>
</a>
</g>
</g>
<!-- Node17 -->
<g id="Node000017" class="node">
<title>Node17</title>
<g id="a_Node000017"><a xlink:href="../../d1/d36/fastspi__nop_8h.html" target="_top" xlink:title="Example of a NOP/stub class to show the SPI methods required by a chipset implementation.">
<polygon fill="white" stroke="#666666" points="441.76,-189.5 359.76,-189.5 359.76,-170.5 441.76,-170.5 441.76,-189.5"/>
<text text-anchor="middle" x="400.76" y="-177.5" font-family="Helvetica,sans-Serif" font-size="10.00">fastspi_nop.h</text>
</a>
</g>
</g>
<!-- Node8&#45;&gt;Node17 -->
<g id="edge27_Node000008_Node000017" class="edge">
<title>Node8&#45;&gt;Node17</title>
<g id="a_edge27_Node000008_Node000017"><a xlink:title=" ">
<path fill="none" stroke="#63b8ff" d="M1580.72,-238C1349.05,-232.44 562.41,-212.46 450.76,-195 442.84,-193.76 434.38,-191.69 426.72,-189.52"/>
<polygon fill="#63b8ff" stroke="#63b8ff" points="1580.92,-241.5 1591,-238.24 1581.09,-234.5 1580.92,-241.5"/>
</a>
</g>
</g>
<!-- Node18 -->
<g id="Node000018" class="node">
<title>Node18</title>
<g id="a_Node000018"><a xlink:href="../../d6/dde/fastspi__ref_8h.html" target="_top" xlink:title="Example of a hardware SPI support class.">
<polygon fill="white" stroke="#666666" points="537.26,-189.5 460.26,-189.5 460.26,-170.5 537.26,-170.5 537.26,-189.5"/>
<text text-anchor="middle" x="498.76" y="-177.5" font-family="Helvetica,sans-Serif" font-size="10.00">fastspi_ref.h</text>
</a>
</g>
</g>
<!-- Node8&#45;&gt;Node18 -->
<g id="edge28_Node000008_Node000018" class="edge">
<title>Node8&#45;&gt;Node18</title>
<g id="a_edge28_Node000008_Node000018"><a xlink:title=" ">
<path fill="none" stroke="#63b8ff" d="M1581.13,-237.82C1362.3,-231.94 648.58,-211.66 546.76,-195 539.22,-193.77 531.2,-191.73 523.91,-189.58"/>
<polygon fill="#63b8ff" stroke="#63b8ff" points="1581.08,-241.32 1591.17,-238.09 1581.27,-234.33 1581.08,-241.32"/>
</a>
</g>
</g>
<!-- Node19 -->
<g id="Node000019" class="node">
<title>Node19</title>
<g id="a_Node000019"><a xlink:href="../../d5/df1/fft__impl_8cpp_8hpp.html" target="_top" xlink:title=" ">
<polygon fill="#fff0f0" stroke="red" points="703.76,-189.5 555.76,-189.5 555.76,-170.5 703.76,-170.5 703.76,-189.5"/>
<text text-anchor="middle" x="629.76" y="-177.5" font-family="Helvetica,sans-Serif" font-size="10.00">fl/audio/fft/fft_impl.cpp.hpp</text>
</a>
</g>
</g>
<!-- Node8&#45;&gt;Node19 -->
<g id="edge29_Node000008_Node000019" class="edge">
<title>Node8&#45;&gt;Node19</title>
<g id="a_edge29_Node000008_Node000019"><a xlink:title=" ">
<path fill="none" stroke="#63b8ff" d="M1580.97,-239.07C1429.76,-237.49 1037.87,-230.05 712.76,-195 700.27,-193.65 686.8,-191.63 674.43,-189.54"/>
<polygon fill="#63b8ff" stroke="#63b8ff" points="1580.97,-242.57 1591.01,-239.17 1581.04,-235.57 1580.97,-242.57"/>
</a>
</g>
</g>
<!-- Node24 -->
<g id="Node000024" class="node">
<title>Node24</title>
<g id="a_Node000024"><a xlink:href="../../db/d59/validation_8cpp_8hpp.html" target="_top" xlink:title=" ">
<polygon fill="#fff0f0" stroke="red" points="883.76,-189.5 721.76,-189.5 721.76,-170.5 883.76,-170.5 883.76,-189.5"/>
<text text-anchor="middle" x="802.76" y="-177.5" font-family="Helvetica,sans-Serif" font-size="10.00">fl/channels/validation.cpp.hpp</text>
</a>
</g>
</g>
<!-- Node8&#45;&gt;Node24 -->
<g id="edge30_Node000008_Node000024" class="edge">
<title>Node8&#45;&gt;Node24</title>
<g id="a_edge30_Node000008_Node000024"><a xlink:title=" ">
<path fill="none" stroke="#63b8ff" d="M1580.73,-237.72C1450.86,-233.68 1147.3,-221.96 893.76,-195 880.41,-193.58 866.02,-191.59 852.72,-189.54"/>
<polygon fill="#63b8ff" stroke="#63b8ff" points="1580.79,-241.23 1590.89,-238.04 1581.01,-234.23 1580.79,-241.23"/>
</a>
</g>
</g>
<!-- Node27 -->
<g id="Node000027" class="node">
<title>Node27</title>
<g id="a_Node000027"><a xlink:href="../../df/da5/particles_8cpp_8hpp.html" target="_top" xlink:title=" ">
<polygon fill="#fff0f0" stroke="red" points="1039.26,-189.5 902.26,-189.5 902.26,-170.5 1039.26,-170.5 1039.26,-189.5"/>
<text text-anchor="middle" x="970.76" y="-177.5" font-family="Helvetica,sans-Serif" font-size="10.00">fl/fx/1d/particles.cpp.hpp</text>
</a>
</g>
</g>
<!-- Node8&#45;&gt;Node27 -->
<g id="edge31_Node000008_Node000027" class="edge">
<title>Node8&#45;&gt;Node27</title>
<g id="a_edge31_Node000008_Node000027"><a xlink:title=" ">
<path fill="none" stroke="#63b8ff" d="M1580.96,-236.9C1471.66,-231.96 1241.72,-219.45 1048.76,-195 1037.43,-193.56 1025.25,-191.59 1013.96,-189.57"/>
<polygon fill="#63b8ff" stroke="#63b8ff" points="1581.01,-240.4 1591.15,-237.35 1581.32,-233.41 1581.01,-240.4"/>
</a>
</g>
</g>
<!-- Node31 -->
<g id="Node000031" class="node">
<title>Node31</title>
<g id="a_Node000031"><a xlink:href="../../db/dfe/luminova_8cpp_8hpp.html" target="_top" xlink:title=" ">
<polygon fill="#fff0f0" stroke="red" points="1197.76,-189.5 1057.76,-189.5 1057.76,-170.5 1197.76,-170.5 1197.76,-189.5"/>
<text text-anchor="middle" x="1127.76" y="-177.5" font-family="Helvetica,sans-Serif" font-size="10.00">fl/fx/2d/luminova.cpp.hpp</text>
</a>
</g>
</g>
<!-- Node8&#45;&gt;Node31 -->
<g id="edge32_Node000008_Node000031" class="edge">
<title>Node8&#45;&gt;Node31</title>
<g id="a_edge32_Node000008_Node000031"><a xlink:title=" ">
<path fill="none" stroke="#63b8ff" d="M1581.1,-234.46C1495.86,-227.38 1340.06,-213.29 1207.76,-195 1196.59,-193.46 1184.59,-191.51 1173.36,-189.56"/>
<polygon fill="#63b8ff" stroke="#63b8ff" points="1580.88,-237.95 1591.13,-235.29 1581.46,-230.98 1580.88,-237.95"/>
</a>
</g>
</g>
<!-- Node33 -->
<g id="Node000033" class="node">
<title>Node33</title>
<g id="a_Node000033"><a xlink:href="../../df/da2/noisepalette_8cpp_8hpp.html" target="_top" xlink:title=" ">
<polygon fill="#fff0f0" stroke="red" points="1371.26,-189.5 1216.26,-189.5 1216.26,-170.5 1371.26,-170.5 1371.26,-189.5"/>
<text text-anchor="middle" x="1293.76" y="-177.5" font-family="Helvetica,sans-Serif" font-size="10.00">fl/fx/2d/noisepalette.cpp.hpp</text>
</a>
</g>
</g>
<!-- Node8&#45;&gt;Node33 -->
<g id="edge33_Node000008_Node000033" class="edge">
<title>Node8&#45;&gt;Node33</title>
<g id="a_edge33_Node000008_Node000033"><a xlink:title=" ">
<path fill="none" stroke="#63b8ff" d="M1583.64,-229.31C1515.99,-218.04 1408.19,-200.07 1344.86,-189.52"/>
<polygon fill="#63b8ff" stroke="#63b8ff" points="1583.29,-232.8 1593.72,-230.99 1584.44,-225.9 1583.29,-232.8"/>
</a>
</g>
</g>
<!-- Node34 -->
<g id="Node000034" class="node">
<title>Node34</title>
<g id="a_Node000034"><a xlink:href="../../db/d8a/blur_8cpp_8hpp.html" target="_top" xlink:title=" ">
<polygon fill="#fff0f0" stroke="red" points="1493.76,-189.5 1389.76,-189.5 1389.76,-170.5 1493.76,-170.5 1493.76,-189.5"/>
<text text-anchor="middle" x="1441.76" y="-177.5" font-family="Helvetica,sans-Serif" font-size="10.00">fl/gfx/blur.cpp.hpp</text>
</a>
</g>
</g>
<!-- Node8&#45;&gt;Node34 -->
<g id="edge34_Node000008_Node000034" class="edge">
<title>Node8&#45;&gt;Node34</title>
<g id="a_edge34_Node000008_Node000034"><a xlink:title=" ">
<path fill="none" stroke="#63b8ff" d="M1605.48,-228.18C1566.22,-216.87 1506.74,-199.72 1471.32,-189.52"/>
<polygon fill="#63b8ff" stroke="#63b8ff" points="1604.67,-231.59 1615.25,-230.99 1606.61,-224.86 1604.67,-231.59"/>
</a>
</g>
</g>
<!-- Node37 -->
<g id="Node000037" class="node">
<title>Node37</title>
<g id="a_Node000037"><a xlink:href="../../db/d4e/colorutils_8cpp_8hpp.html" target="_top" xlink:title=" ">
<polygon fill="#fff0f0" stroke="red" points="1643.26,-189.5 1512.26,-189.5 1512.26,-170.5 1643.26,-170.5 1643.26,-189.5"/>
<text text-anchor="middle" x="1577.76" y="-177.5" font-family="Helvetica,sans-Serif" font-size="10.00">fl/gfx/colorutils.cpp.hpp</text>
</a>
</g>
</g>
<!-- Node8&#45;&gt;Node37 -->
<g id="edge35_Node000008_Node000037" class="edge">
<title>Node8&#45;&gt;Node37</title>
<g id="a_edge35_Node000008_Node000037"><a xlink:title=" ">
<path fill="none" stroke="#63b8ff" d="M1627.27,-224.22C1614.66,-213.21 1598.1,-198.75 1587.69,-189.67"/>
<polygon fill="#63b8ff" stroke="#63b8ff" points="1625.04,-226.93 1634.88,-230.87 1629.65,-221.65 1625.04,-226.93"/>
</a>
</g>
</g>
<!-- Node38 -->
<g id="Node000038" class="node">
<title>Node38</title>
<g id="a_Node000038"><a xlink:href="../../d8/d89/five__bit__hd__gamma_8cpp_8hpp.html" target="_top" xlink:title=" ">
<polygon fill="#fff0f0" stroke="red" points="1762.26,-195 1661.26,-195 1661.26,-165 1762.26,-165 1762.26,-195"/>
<text text-anchor="start" x="1669.26" y="-183" font-family="Helvetica,sans-Serif" font-size="10.00">fl/gfx/five_bit_hd</text>
<text text-anchor="middle" x="1711.76" y="-172" font-family="Helvetica,sans-Serif" font-size="10.00">_gamma.cpp.hpp</text>
</a>
</g>
</g>
<!-- Node8&#45;&gt;Node38 -->
<g id="edge36_Node000008_Node000038" class="edge">
<title>Node8&#45;&gt;Node38</title>
<g id="a_edge36_Node000008_Node000038"><a xlink:title=" ">
<path fill="none" stroke="#63b8ff" d="M1662.25,-224.23C1672.56,-215.23 1685.52,-203.91 1695.6,-195.11"/>
<polygon fill="#63b8ff" stroke="#63b8ff" points="1659.88,-221.65 1654.65,-230.87 1664.48,-226.93 1659.88,-221.65"/>
</a>
</g>
</g>
<!-- Node39 -->
<g id="Node000039" class="node">
<title>Node39</title>
<g id="a_Node000039"><a xlink:href="../../d4/d61/fl_2gfx_2noise_2noise_8cpp_8hpp.html" target="_top" xlink:title=" ">
<polygon fill="#fff0f0" stroke="red" points="1921.26,-189.5 1780.26,-189.5 1780.26,-170.5 1921.26,-170.5 1921.26,-189.5"/>
<text text-anchor="middle" x="1850.76" y="-177.5" font-family="Helvetica,sans-Serif" font-size="10.00">fl/gfx/noise/noise.cpp.hpp</text>
</a>
</g>
</g>
<!-- Node8&#45;&gt;Node39 -->
<g id="edge37_Node000008_Node000039" class="edge">
<title>Node8&#45;&gt;Node39</title>
<g id="a_edge37_Node000008_Node000039"><a xlink:title=" ">
<path fill="none" stroke="#63b8ff" d="M1684.37,-228.25C1724.21,-216.94 1784.75,-199.75 1820.77,-189.52"/>
<polygon fill="#63b8ff" stroke="#63b8ff" points="1683.38,-224.89 1674.72,-230.99 1685.29,-231.63 1683.38,-224.89"/>
</a>
</g>
</g>
<!-- Node41 -->
<g id="Node000041" class="node">
<title>Node41</title>
<g id="a_Node000041"><a xlink:href="../../df/d5d/rgbw_8cpp_8hpp.html" target="_top" xlink:title=" ">
<polygon fill="#fff0f0" stroke="red" points="2048.26,-189.5 1939.26,-189.5 1939.26,-170.5 2048.26,-170.5 2048.26,-189.5"/>
<text text-anchor="middle" x="1993.76" y="-177.5" font-family="Helvetica,sans-Serif" font-size="10.00">fl/gfx/rgbw.cpp.hpp</text>
</a>
</g>
</g>
<!-- Node8&#45;&gt;Node41 -->
<g id="edge38_Node000008_Node000041" class="edge">
<title>Node8&#45;&gt;Node41</title>
<g id="a_edge38_Node000008_Node000041"><a xlink:title=" ">
<path fill="none" stroke="#63b8ff" d="M1708.57,-230.77C1766.67,-222.54 1854.72,-209.35 1930.76,-195 1939.35,-193.38 1948.55,-191.45 1957.2,-189.54"/>
<polygon fill="#63b8ff" stroke="#63b8ff" points="1707.85,-227.34 1698.44,-232.2 1708.83,-234.27 1707.85,-227.34"/>
</a>
</g>
</g>
<!-- Node42 -->
<g id="Node000042" class="node">
<title>Node42</title>
<g id="a_Node000042"><a xlink:href="../../df/d0b/rgbww_8cpp_8hpp.html" target="_top" xlink:title="Dispatch + implementations for the 5&#45;channel RGB&#45;&gt;RGBWW path (issue #2558, Phase 3 of #2545).">
<polygon fill="#fff0f0" stroke="red" points="2183.26,-189.5 2066.26,-189.5 2066.26,-170.5 2183.26,-170.5 2183.26,-189.5"/>
<text text-anchor="middle" x="2124.76" y="-177.5" font-family="Helvetica,sans-Serif" font-size="10.00">fl/gfx/rgbww.cpp.hpp</text>
</a>
</g>
</g>
<!-- Node8&#45;&gt;Node42 -->
<g id="edge39_Node000008_Node000042" class="edge">
<title>Node8&#45;&gt;Node42</title>
<g id="a_edge39_Node000008_Node000042"><a xlink:title=" ">
<path fill="none" stroke="#63b8ff" d="M1708.53,-234.59C1789.89,-227.88 1934.8,-214.42 2057.76,-195 2067.39,-193.48 2077.72,-191.5 2087.32,-189.5"/>
<polygon fill="#63b8ff" stroke="#63b8ff" points="1708.13,-231.12 1698.45,-235.42 1708.7,-238.09 1708.13,-231.12"/>
</a>
</g>
</g>
<!-- Node43 -->
<g id="Node000043" class="node">
<title>Node43</title>
<g id="a_Node000043"><a xlink:href="../../df/d60/ease_8cpp_8hpp.html" target="_top" xlink:title=" ">
<polygon fill="#fff0f0" stroke="red" points="2320.26,-189.5 2201.26,-189.5 2201.26,-170.5 2320.26,-170.5 2320.26,-189.5"/>
<text text-anchor="middle" x="2260.76" y="-177.5" font-family="Helvetica,sans-Serif" font-size="10.00">fl/math/ease.cpp.hpp</text>
</a>
</g>
</g>
<!-- Node8&#45;&gt;Node43 -->
<g id="edge40_Node000008_Node000043" class="edge">
<title>Node8&#45;&gt;Node43</title>
<g id="a_edge40_Node000008_Node000043"><a xlink:title=" ">
<path fill="none" stroke="#63b8ff" d="M1708.47,-236.85C1810.93,-232.03 2018.51,-219.92 2192.76,-195 2202.79,-193.57 2213.55,-191.57 2223.5,-189.53"/>
<polygon fill="#63b8ff" stroke="#63b8ff" points="1708.12,-233.37 1698.29,-237.32 1708.44,-240.36 1708.12,-233.37"/>
</a>
</g>
</g>
<!-- Node46 -->
<g id="Node000046" class="node">
<title>Node46</title>
<g id="a_Node000046"><a xlink:href="../../df/d40/pir_8cpp_8hpp.html" target="_top" xlink:title=" ">
<polygon fill="#fff0f0" stroke="red" points="2457.26,-189.5 2338.26,-189.5 2338.26,-170.5 2457.26,-170.5 2457.26,-189.5"/>
<text text-anchor="middle" x="2397.76" y="-177.5" font-family="Helvetica,sans-Serif" font-size="10.00">fl/sensors/pir.cpp.hpp</text>
</a>
</g>
</g>
<!-- Node8&#45;&gt;Node46 -->
<g id="edge41_Node000008_Node000046" class="edge">
<title>Node8&#45;&gt;Node46</title>
<g id="a_edge41_Node000008_Node000046"><a xlink:title=" ">
<path fill="none" stroke="#63b8ff" d="M1708.53,-238.3C1829.96,-235.35 2102.53,-225.62 2329.76,-195 2339.92,-193.63 2350.82,-191.63 2360.87,-189.56"/>
<polygon fill="#63b8ff" stroke="#63b8ff" points="1708.22,-234.8 1698.3,-238.54 1708.38,-241.8 1708.22,-234.8"/>
</a>
</g>
</g>
<!-- Node49 -->
<g id="Node000049" class="node">
<title>Node49</title>
<g id="a_Node000049"><a xlink:href="../../db/d51/fastled__internal_8cpp_8hpp.html" target="_top" xlink:title=" ">
<polygon fill="#fff0f0" stroke="red" points="2657.76,-189.5 2475.76,-189.5 2475.76,-170.5 2657.76,-170.5 2657.76,-189.5"/>
<text text-anchor="middle" x="2566.76" y="-177.5" font-family="Helvetica,sans-Serif" font-size="10.00">fl/system/fastled_internal.cpp.hpp</text>
</a>
</g>
</g>
<!-- Node8&#45;&gt;Node49 -->
<g id="edge42_Node000008_Node000049" class="edge">
<title>Node8&#45;&gt;Node49</title>
<g id="a_edge42_Node000008_Node000049"><a xlink:title=" ">
<path fill="none" stroke="#63b8ff" d="M1708.76,-237.89C1847.26,-233.99 2185.04,-222.3 2466.76,-195 2481.51,-193.57 2497.41,-191.56 2512.11,-189.51"/>
<polygon fill="#63b8ff" stroke="#63b8ff" points="1708.64,-234.39 1698.74,-238.17 1708.83,-241.39 1708.64,-234.39"/>
</a>
</g>
</g>
<!-- Node52 -->
<g id="Node000052" class="node">
<title>Node52</title>
<g id="a_Node000052"><a xlink:href="../../d6/db5/hsv2rgb_8cpp_8hpp.html" target="_top" xlink:title=" ">
<polygon fill="white" stroke="#666666" points="873.26,-74 776.26,-74 776.26,-55 873.26,-55 873.26,-74"/>
<text text-anchor="middle" x="824.76" y="-62" font-family="Helvetica,sans-Serif" font-size="10.00">hsv2rgb.cpp.hpp</text>
</a>
</g>
</g>
<!-- Node8&#45;&gt;Node52 -->
<g id="edge43_Node000008_Node000052" class="edge">
<title>Node8&#45;&gt;Node52</title>
<g id="a_edge43_Node000008_Node000052"><a xlink:title=" ">
<path fill="none" stroke="#63b8ff" d="M1708.57,-239.21C1931.7,-237.91 2665.36,-230.88 2699.76,-195 2725.91,-167.73 2726.21,-136.98 2699.76,-110 2664.42,-73.95 933.07,-78.17 882.76,-74 879.72,-73.75 876.59,-73.44 873.45,-73.09"/>
<polygon fill="#63b8ff" stroke="#63b8ff" points="1708.32,-235.72 1698.34,-239.27 1708.36,-242.72 1708.32,-235.72"/>
</a>
</g>
</g>
<!-- Node53 -->
<g id="Node000053" class="node">
<title>Node53</title>
<g id="a_Node000053"><a xlink:href="../../dd/dfe/lib8tion_8cpp_8hpp.html" target="_top" xlink:title=" ">
<polygon fill="white" stroke="#666666" points="229.26,-74 134.26,-74 134.26,-55 229.26,-55 229.26,-74"/>
<text text-anchor="middle" x="181.76" y="-62" font-family="Helvetica,sans-Serif" font-size="10.00">lib8tion.cpp.hpp</text>
</a>
</g>
</g>
<!-- Node8&#45;&gt;Node53 -->
<g id="edge46_Node000008_Node000053" class="edge">
<title>Node8&#45;&gt;Node53</title>
<g id="a_edge46_Node000008_Node000053"><a xlink:title=" ">
<path fill="none" stroke="#63b8ff" d="M1580.92,-238.77C1321.52,-235.65 357.46,-222.24 298.76,-195 241.32,-168.34 199.69,-98.9 186.34,-74.3"/>
<polygon fill="#63b8ff" stroke="#63b8ff" points="1580.9,-242.27 1590.94,-238.89 1580.98,-235.28 1580.9,-242.27"/>
</a>
</g>
</g>
<!-- Node54 -->
<g id="Node000054" class="node">
<title>Node54</title>
<g id="a_Node000054"><a xlink:href="../../da/dca/noise_8cpp_8hpp.html" target="_top" xlink:title=" ">
<polygon fill="white" stroke="#666666" points="3142.76,-129 3058.76,-129 3058.76,-110 3142.76,-110 3142.76,-129"/>
<text text-anchor="middle" x="3100.76" y="-117" font-family="Helvetica,sans-Serif" font-size="10.00">noise.cpp.hpp</text>
</a>
</g>
</g>
<!-- Node8&#45;&gt;Node54 -->
<g id="edge49_Node000008_Node000054" class="edge">
<title>Node8&#45;&gt;Node54</title>
<g id="a_edge49_Node000008_Node000054"><a xlink:title=" ">
<path fill="none" stroke="#63b8ff" d="M1708.47,-239.66C1979.93,-240.08 3028.79,-238.86 3082.76,-195 3102.59,-178.89 3102.8,-145.04 3101.67,-129.12"/>
<polygon fill="#63b8ff" stroke="#63b8ff" points="1708.39,-236.16 1698.38,-239.65 1708.38,-243.16 1708.39,-236.16"/>
</a>
</g>
</g>
<!-- Node55 -->
<g id="Node000055" class="node">
<title>Node55</title>
<g id="a_Node000055"><a xlink:href="../../d4/d46/pixelset_8h.html" target="_top" xlink:title="Declares classes for managing logical groups of LEDs.">
<polygon fill="white" stroke="#666666" points="3056.76,-189.5 2992.76,-189.5 2992.76,-170.5 3056.76,-170.5 3056.76,-189.5"/>
<text text-anchor="middle" x="3024.76" y="-177.5" font-family="Helvetica,sans-Serif" font-size="10.00">pixelset.h</text>
</a>
</g>
</g>
<!-- Node8&#45;&gt;Node55 -->
<g id="edge51_Node000008_Node000055" class="edge">
<title>Node8&#45;&gt;Node55</title>
<g id="a_edge51_Node000008_Node000055"><a xlink:title=" ">
<path fill="none" stroke="#63b8ff" d="M1708.74,-239.87C1940.36,-240.83 2734.64,-240.63 2983.76,-195 2990.27,-193.81 2997.15,-191.78 3003.38,-189.63"/>
<polygon fill="#63b8ff" stroke="#63b8ff" points="1708.47,-236.37 1698.46,-239.83 1708.44,-243.37 1708.47,-236.37"/>
</a>
</g>
</g>
<!-- Node56 -->
<g id="Node000056" class="node">
<title>Node56</title>
<g id="a_Node000056"><a xlink:href="../../dc/d5b/power__mgt_8h.html" target="_top" xlink:title="Functions to limit the power used by FastLED.">
<polygon fill="#fff0f0" stroke="red" points="2831.76,-189.5 2751.76,-189.5 2751.76,-170.5 2831.76,-170.5 2831.76,-189.5"/>
<text text-anchor="middle" x="2791.76" y="-177.5" font-family="Helvetica,sans-Serif" font-size="10.00">power_mgt.h</text>
</a>
</g>
</g>
<!-- Node8&#45;&gt;Node56 -->
<g id="edge53_Node000008_Node000056" class="edge">
<title>Node8&#45;&gt;Node56</title>
<g id="a_edge53_Node000008_Node000056"><a xlink:title=" ">
<path fill="none" stroke="#63b8ff" d="M1708.45,-238.69C1910.74,-235.83 2537.19,-224.74 2737.76,-195 2746.19,-193.75 2755.21,-191.71 2763.41,-189.56"/>
<polygon fill="#63b8ff" stroke="#63b8ff" points="1708.23,-235.19 1698.28,-238.83 1708.33,-242.19 1708.23,-235.19"/>
</a>
</g>
</g>
<!-- Node58 -->
<g id="Node000058" class="node">
<title>Node58</title>
<g id="a_Node000058"><a xlink:href="../../da/deb/simplex_8cpp_8hpp.html" target="_top" xlink:title=" ">
<polygon fill="white" stroke="#666666" points="116.26,-74 19.26,-74 19.26,-55 116.26,-55 116.26,-74"/>
<text text-anchor="middle" x="67.76" y="-62" font-family="Helvetica,sans-Serif" font-size="10.00">simplex.cpp.hpp</text>
</a>
</g>
</g>
<!-- Node8&#45;&gt;Node58 -->
<g id="edge55_Node000008_Node000058" class="edge">
<title>Node8&#45;&gt;Node58</title>
<g id="a_edge55_Node000008_Node000058"><a xlink:title=" ">
<path fill="none" stroke="#63b8ff" d="M1580.76,-239.59C1324.53,-239.65 380.44,-236.99 253.76,-195 175.33,-169 100.41,-98.51 76.02,-74.02"/>
<polygon fill="#63b8ff" stroke="#63b8ff" points="1581.02,-243.09 1591.01,-239.58 1581.01,-236.09 1581.02,-243.09"/>
</a>
</g>
</g>
<!-- Node59 -->
<g id="Node000059" class="node">
<title>Node59</title>
<g id="a_Node000059"><a xlink:href="../../dc/d63/wiring_8cpp_8hpp.html" target="_top" xlink:title=" ">
<polygon fill="white" stroke="#666666" points="335.76,-74 247.76,-74 247.76,-55 335.76,-55 335.76,-74"/>
<text text-anchor="middle" x="291.76" y="-62" font-family="Helvetica,sans-Serif" font-size="10.00">wiring.cpp.hpp</text>
</a>
</g>
</g>
<!-- Node8&#45;&gt;Node59 -->
<g id="edge58_Node000008_Node000059" class="edge">
<title>Node8&#45;&gt;Node59</title>
<g id="a_edge58_Node000008_Node000059"><a xlink:title=" ">
<path fill="none" stroke="#63b8ff" d="M1580.79,-239.48C1323.01,-239.14 371.94,-235.16 322.76,-195 285.52,-164.59 288.33,-98.11 290.7,-74.24"/>
<polygon fill="#63b8ff" stroke="#63b8ff" points="1581.1,-242.98 1591.1,-239.5 1581.11,-235.98 1581.1,-242.98"/>
</a>
</g>
</g>
<!-- Node9&#45;&gt;Node4 -->
<g id="edge14_Node000009_Node000004" class="edge">
<title>Node9&#45;&gt;Node4</title>
<g id="a_edge14_Node000009_Node000004"><a xlink:title=" ">
<path fill="none" stroke="#63b8ff" d="M589.87,-45.24C586.53,-36.37 582.67,-26.14 580,-19.09"/>
<polygon fill="#63b8ff" stroke="#63b8ff" points="586.66,-46.63 593.46,-54.75 593.2,-44.16 586.66,-46.63"/>
</a>
</g>
</g>
<!-- Node9&#45;&gt;Node5 -->
<g id="edge15_Node000009_Node000005" class="edge">
<title>Node9&#45;&gt;Node5</title>
<g id="a_edge15_Node000009_Node000005"><a xlink:title=" ">
<path fill="none" stroke="#63b8ff" d="M563.94,-51.42C537.23,-41.59 500.16,-27.95 476.32,-19.17"/>
<polygon fill="#63b8ff" stroke="#63b8ff" points="563.03,-54.82 573.63,-54.98 565.45,-48.25 563.03,-54.82"/>
</a>
</g>
</g>
<!-- Node10&#45;&gt;Node4 -->
<g id="edge18_Node000010_Node000004" class="edge">
<title>Node10&#45;&gt;Node4</title>
<g id="a_edge18_Node000010_Node000004"><a xlink:title=" ">
<path fill="none" stroke="#63b8ff" d="M686.4,-51.42C660.06,-41.59 623.51,-27.95 599.99,-19.17"/>
<polygon fill="#63b8ff" stroke="#63b8ff" points="685.36,-54.77 695.95,-54.98 687.8,-48.21 685.36,-54.77"/>
</a>
</g>
</g>
<!-- Node10&#45;&gt;Node5 -->
<g id="edge19_Node000010_Node000005" class="edge">
<title>Node10&#45;&gt;Node5</title>
<g id="a_edge19_Node000010_Node000005"><a xlink:title=" ">
<path fill="none" stroke="#63b8ff" d="M669.3,-53.64C619.37,-43.7 543.03,-28.49 495.6,-19.04"/>
<polygon fill="#63b8ff" stroke="#63b8ff" points="668.74,-57.1 679.23,-55.62 670.1,-50.24 668.74,-57.1"/>
</a>
</g>
</g>
<!-- Node11&#45;&gt;Node2 -->
<g id="edge21_Node000011_Node000002" class="edge">
<title>Node11&#45;&gt;Node2</title>
<g id="a_edge21_Node000011_Node000002"><a xlink:title=" ">
<path fill="none" stroke="#63b8ff" d="M2895.83,-164.97C2913.36,-153.82 2937.3,-138.6 2952.13,-129.17"/>
<polygon fill="#63b8ff" stroke="#63b8ff" points="2893.9,-162.05 2887.34,-170.37 2897.65,-167.96 2893.9,-162.05"/>
</a>
</g>
</g>
<!-- Node12&#45;&gt;Node4 -->
<g id="edge23_Node000012_Node000004" class="edge">
<title>Node12&#45;&gt;Node4</title>
<g id="a_edge23_Node000012_Node000004"><a xlink:title=" ">
<path fill="none" stroke="#63b8ff" d="M481.94,-51.03C504.87,-41.23 536.22,-27.83 556.48,-19.17"/>
<polygon fill="#63b8ff" stroke="#63b8ff" points="480.51,-47.84 472.69,-54.98 483.26,-54.27 480.51,-47.84"/>
</a>
</g>
</g>
<!-- Node12&#45;&gt;Node5 -->
<g id="edge24_Node000012_Node000005" class="edge">
<title>Node12&#45;&gt;Node5</title>
<g id="a_edge24_Node000012_Node000005"><a xlink:title=" ">
<path fill="none" stroke="#63b8ff" d="M452.76,-44.66C452.76,-35.93 452.76,-25.99 452.76,-19.09"/>
<polygon fill="#63b8ff" stroke="#63b8ff" points="449.26,-44.75 452.76,-54.75 456.26,-44.75 449.26,-44.75"/>
</a>
</g>
</g>
<!-- Node13&#45;&gt;Node2 -->
<g id="edge26_Node000013_Node000002" class="edge">
<title>Node13&#45;&gt;Node2</title>
<g id="a_edge26_Node000013_Node000002"><a xlink:title=" ">
<path fill="none" stroke="#63b8ff" d="M2951.29,-160.82C2955.07,-150.28 2959.67,-137.48 2962.65,-129.17"/>
<polygon fill="#63b8ff" stroke="#63b8ff" points="2947.95,-159.77 2947.86,-170.37 2954.53,-162.14 2947.95,-159.77"/>
</a>
</g>
</g>
<!-- Node52&#45;&gt;Node4 -->
<g id="edge44_Node000052_Node000004" class="edge">
<title>Node52&#45;&gt;Node4</title>
<g id="a_edge44_Node000052_Node000004"><a xlink:title=" ">
<path fill="none" stroke="#63b8ff" d="M775.06,-52.88C728.58,-42.94 660.03,-28.3 616.92,-19.08"/>
<polygon fill="#63b8ff" stroke="#63b8ff" points="774.41,-56.32 784.92,-54.98 775.87,-49.47 774.41,-56.32"/>
</a>
</g>
</g>
<!-- Node52&#45;&gt;Node5 -->
<g id="edge45_Node000052_Node000005" class="edge">
<title>Node52&#45;&gt;Node5</title>
<g id="a_edge45_Node000052_Node000005"><a xlink:title=" ">
<path fill="none" stroke="#63b8ff" d="M766.1,-54.91C663.28,-40.11 555.23,-24.88 496.46,-16.63"/>
<polygon fill="#63b8ff" stroke="#63b8ff" points="765.63,-58.38 776.03,-56.34 766.63,-51.45 765.63,-58.38"/>
</a>
</g>
</g>
<!-- Node53&#45;&gt;Node4 -->
<g id="edge47_Node000053_Node000004" class="edge">
<title>Node53&#45;&gt;Node4</title>
<g id="a_edge47_Node000053_Node000004"><a xlink:title=" ">
<path fill="none" stroke="#63b8ff" d="M239.48,-54.92C351.65,-39.24 470.74,-23.92 533.25,-15.99"/>
<polygon fill="#63b8ff" stroke="#63b8ff" points="238.76,-51.49 229.34,-56.34 239.73,-58.42 238.76,-51.49"/>
</a>
</g>
</g>
<!-- Node53&#45;&gt;Node5 -->
<g id="edge48_Node000053_Node000005" class="edge">
<title>Node53&#45;&gt;Node5</title>
<g id="a_edge48_Node000053_Node000005"><a xlink:title=" ">
<path fill="none" stroke="#63b8ff" d="M235.12,-53.07C285.92,-43.13 361.47,-28.35 408.88,-19.08"/>
<polygon fill="#63b8ff" stroke="#63b8ff" points="234.45,-49.63 225.3,-54.98 235.79,-56.5 234.45,-49.63"/>
</a>
</g>
</g>
<!-- Node54&#45;&gt;Node4 -->
<g id="edge50_Node000054_Node000004" class="edge">
<title>Node54&#45;&gt;Node4</title>
<g id="a_edge50_Node000054_Node000004"><a xlink:title=" ">
<path fill="none" stroke="#63b8ff" d="M3048.53,-113.32C3034.94,-112.09 3020.31,-110.89 3006.76,-110 2042.46,-46.7 860.08,-17.05 620.35,-11.48"/>
<polygon fill="#63b8ff" stroke="#63b8ff" points="3048.41,-116.82 3058.68,-114.25 3049.05,-109.85 3048.41,-116.82"/>
</a>
</g>
</g>
<!-- Node55&#45;&gt;Node2 -->
<g id="edge52_Node000055_Node000002" class="edge">
<title>Node55&#45;&gt;Node2</title>
<g id="a_edge52_Node000055_Node000002"><a xlink:title=" ">
<path fill="none" stroke="#63b8ff" d="M3008.72,-163.09C2997.7,-152.17 2983.49,-138.08 2974.5,-129.17"/>
<polygon fill="#63b8ff" stroke="#63b8ff" points="3006.49,-165.81 3016.06,-170.37 3011.42,-160.84 3006.49,-165.81"/>
</a>
</g>
</g>
<!-- Node56&#45;&gt;Node2 -->
<g id="edge54_Node000056_Node000002" class="edge">
<title>Node56&#45;&gt;Node2</title>
<g id="a_edge54_Node000056_Node000002"><a xlink:title=" ">
<path fill="none" stroke="#63b8ff" d="M2826.95,-167.17C2860.6,-155.86 2910.52,-139.07 2940.43,-129.02"/>
<polygon fill="#63b8ff" stroke="#63b8ff" points="2825.43,-163.99 2817.06,-170.49 2827.66,-170.62 2825.43,-163.99"/>
</a>
</g>
</g>
<!-- Node58&#45;&gt;Node4 -->
<g id="edge56_Node000058_Node000004" class="edge">
<title>Node58&#45;&gt;Node4</title>
<g id="a_edge56_Node000058_Node000004"><a xlink:title=" ">
<path fill="none" stroke="#63b8ff" d="M126.5,-54.84C294.84,-34.57 339.28,-36.6 504.76,-19 513.9,-18.03 523.68,-16.92 532.99,-15.83"/>
<polygon fill="#63b8ff" stroke="#63b8ff" points="126.06,-51.37 116.56,-56.05 126.91,-58.32 126.06,-51.37"/>
</a>
</g>
</g>
<!-- Node58&#45;&gt;Node5 -->
<g id="edge57_Node000058_Node000005" class="edge">
<title>Node58&#45;&gt;Node5</title>
<g id="a_edge57_Node000058_Node000005"><a xlink:title=" ">
<path fill="none" stroke="#63b8ff" d="M126.31,-54.79C233.8,-39.54 348.29,-24.27 409.23,-16.22"/>
<polygon fill="#63b8ff" stroke="#63b8ff" points="125.67,-51.35 116.27,-56.22 126.66,-58.28 125.67,-51.35"/>
</a>
</g>
</g>
<!-- Node59&#45;&gt;Node4 -->
<g id="edge59_Node000059_Node000004" class="edge">
<title>Node59&#45;&gt;Node4</title>
<g id="a_edge59_Node000059_Node000004"><a xlink:title=" ">
<path fill="none" stroke="#63b8ff" d="M346.1,-53.39C400.36,-43.31 482.68,-28 532.91,-18.66"/>
<polygon fill="#63b8ff" stroke="#63b8ff" points="345.17,-50.01 335.98,-55.28 346.45,-56.89 345.17,-50.01"/>
</a>
</g>
</g>
<!-- Node59&#45;&gt;Node5 -->
<g id="edge60_Node000059_Node000005" class="edge">
<title>Node59&#45;&gt;Node5</title>
<g id="a_edge60_Node000059_Node000005"><a xlink:title=" ">
<path fill="none" stroke="#63b8ff" d="M327.31,-51.8C357.36,-41.91 399.7,-27.97 426.69,-19.08"/>
<polygon fill="#63b8ff" stroke="#63b8ff" points="326.03,-48.53 317.63,-54.98 328.22,-55.18 326.03,-48.53"/>
</a>
</g>
</g>
</g>
</svg>

<g id="navigator" transform="translate(0 0)" fill="#404254">
  <rect fill="#f2f5e9" fill-opacity="0.5" stroke="#606060" stroke-width=".5" x="0" y="0" width="60" height="60"/>
  <use id="zoomplus" xlink:href="#zoomPlus" x="17" y="9" onmousedown="handleZoom(evt,'in')"/>
  <use id="zoomminus" xlink:href="#zoomMin" x="42" y="9" onmousedown="handleZoom(evt,'out')"/>
  <use id="reset" xlink:href="#resetDef" x="30" y="36" onmousedown="handleReset()"/>
   <use id="arrowup" xlink:href="#arrowUp" x="0" y="0" onmousedown="handlePan(0,-1)"/>
  <use id="arrowright" xlink:href="#arrowRight" x="0" y="0" onmousedown="handlePan(1,0)"/>
  <use id="arrowdown" xlink:href="#arrowDown" x="0" y="0" onmousedown="handlePan(0,1)"/>
  <use id="arrowleft" xlink:href="#arrowLeft" x="0" y="0" onmousedown="handlePan(-1,0)"/>
</g>
<svg viewBox="0 0 15 15" width="100%" height="30px" preserveAspectRatio="xMaxYMin meet">
 <g id="arrow_out" transform="scale(0.3 0.3)">
  <a xlink:href="colorutils_8h__dep__incl_org.svg" target="_base">
   <rect id="button" ry="5" rx="5" y="6" x="6" height="38" width="38"
        fill="#f2f5e9" fill-opacity="0.5" stroke="#606060" stroke-width="1.0"/>
   <path id="arrow"
     d="M 11.500037,31.436501 C 11.940474,20.09759 22.043105,11.32322 32.158766,21.979434 L 37.068811,17.246167 C 37.068811,17.246167 37.088388,32 37.088388,32 L 22.160133,31.978069 C 22.160133,31.978069 26.997745,27.140456 26.997745,27.140456 C 18.528582,18.264221 13.291696,25.230495 11.500037,31.436501 z"
     style="fill:#404040;"/>
  </a>
 </g>
</svg>

<style type='text/css'>
<![CDATA[
[data-mouse-over-selected='false'] { opacity: 0.7; }
[data-mouse-over-selected='true']  { opacity: 1.0; }
]]>
</style>
<script type="application/ecmascript"><![CDATA[
document.addEventListener('DOMContentLoaded', (event) => {
  highlightEdges();
  highlightAdjacentNodes();
});
]]></script>
</svg>
