<?xml version="1.0" encoding="UTF-8" standalone="no"?>
<!DOCTYPE svg PUBLIC "-//W3C//DTD SVG 1.1//EN"
 "http://www.w3.org/Graphics/SVG/1.1/DTD/svg11.dtd">
<!-- Generated by graphviz version 2.43.0 (0)
 -->
<!-- Title: fl::Blend2d::draw Pages: 1 -->
<!--zoomable 138 -->

<svg id="main" version="1.1" xmlns="http://www.w3.org/2000/svg" xmlns:xlink="http://www.w3.org/1999/xlink" xml:space="preserve" onload="init(evt)">

<style type="text/css"><![CDATA[
.node, .edge {opacity: 0.7;}
.node.selected, .edge.selected {opacity: 1;}
.edge:hover path { stroke: red; }
.edge:hover polygon { stroke: red; fill: red; }
]]></style>

<defs>
  <circle id="rim" cx="0" cy="0" r="7"/>
  <circle id="rim2" cx="0" cy="0" r="3.5"/>
  <g id="zoomPlus">
    <use xlink:href="#rim" fill="#404040"><set attributeName="fill" to="#808080" begin="zoomplus.mouseover" end="zoomplus.mouseout"/></use>
    <path d="M-4,0h8M0,-4v8" fill="none" stroke="white" stroke-width="1.5" pointer-events="none"/>
  </g>
  <g id="zoomMin">
    <use xlink:href="#rim" fill="#404040"><set attributeName="fill" to="#808080" begin="zoomminus.mouseover" end="zoomminus.mouseout"/></use>
    <path d="M-4,0h8" fill="none" stroke="white" stroke-width="1.5" pointer-events="none"/>
  </g>
  <g id="arrowUp" transform="translate(30 24)">
    <use xlink:href="#rim"/>
    <path pointer-events="none" fill="none" stroke="white" stroke-width="1.5" d="M0,-3.0v7 M-2.5,-0.5L0,-3.0L2.5,-0.5"/>
  </g>
  <g id="arrowRight" transform="rotate(90) translate(36 -43)">
    <use xlink:href="#rim"/>
    <path pointer-events="none" fill="none" stroke="white" stroke-width="1.5" d="M0,-3.0v7 M-2.5,-0.5L0,-3.0L2.5,-0.5"/>
  </g>
  <g id="arrowDown" transform="rotate(180) translate(-30 -48)">
    <use xlink:href="#rim"/>
    <path pointer-events="none" fill="none" stroke="white" stroke-width="1.5" d="M0,-3.0v7 M-2.5,-0.5L0,-3.0L2.5,-0.5"/>
  </g>
  <g id="arrowLeft" transform="rotate(270) translate(-36 17)">
    <use xlink:href="#rim"/>
    <path pointer-events="none" fill="none" stroke="white" stroke-width="1.5" d="M0,-3.0v7 M-2.5,-0.5L0,-3.0L2.5,-0.5"/>
  </g>
  <g id="resetDef">
    <use xlink:href="#rim2" fill="#404040"><set attributeName="fill" to="#808080" begin="reset.mouseover" end="reset.mouseout"/></use>
  </g>
</defs>
<script type="application/ecmascript">
var viewWidth = 596;
var viewHeight = 138;
var sectionId = 'dynsection-0';
</script>
<script type="application/ecmascript" xlink:href="../../svg.min.js"/>
<svg id="graph" class="graph">
<g id="viewport">
<title>fl::Blend2d::draw</title>
<!-- Node1 -->
<g id="Node000001" class="node">
<title>Node1</title>
<g id="a_Node000001"><a xlink:title=" ">
<polygon fill="#999999" stroke="#666666" points="98,-56 0,-56 0,-37 98,-37 98,-56"/>
<text text-anchor="middle" x="49" y="-44" font-family="Helvetica,sans-Serif" font-size="10.00">fl::Blend2d::draw</text>
</a>
</g>
</g>
<!-- Node2 -->
<g id="Node000002" class="node">
<title>Node2</title>
<g id="a_Node000002"><a xlink:href="../../d5/d3d/group___color_blurs_gadfd6e9dc2b0c79922d8d4be9d94cf5f5.html#gadfd6e9dc2b0c79922d8d4be9d94cf5f5" target="_top" xlink:title="Two&#45;dimensional blur filter.">
<polygon fill="white" stroke="#666666" points="253.5,-93 206.5,-93 206.5,-74 253.5,-74 253.5,-93"/>
<text text-anchor="middle" x="230" y="-81" font-family="Helvetica,sans-Serif" font-size="10.00">blur2d</text>
</a>
</g>
</g>
<!-- Node1&#45;&gt;Node2 -->
<g id="edge1_Node000001_Node000002" class="edge">
<title>Node1&#45;&gt;Node2</title>
<g id="a_edge1_Node000001_Node000002"><a xlink:title=" ">
<path fill="none" stroke="#63b8ff" d="M94.01,-56.05C106.89,-58.81 121,-61.81 134,-64.5 154.75,-68.8 178.08,-73.47 196.43,-77.1"/>
<polygon fill="#63b8ff" stroke="#63b8ff" points="195.84,-80.55 206.33,-79.06 197.2,-73.69 195.84,-80.55"/>
</a>
</g>
</g>
<!-- Node10 -->
<g id="Node000010" class="node">
<title>Node10</title>
<g id="a_Node000010"><a xlink:href="../../d0/dce/classfl_1_1_x_y_map_ab9c11882da60bac8e6cec1fde421b14e.html#ab9c11882da60bac8e6cec1fde421b14e" target="_top" xlink:title=" ">
<polygon fill="white" stroke="#666666" points="326,-56 134,-56 134,-37 326,-37 326,-56"/>
<text text-anchor="middle" x="230" y="-44" font-family="Helvetica,sans-Serif" font-size="10.00">fl::XYMap::constructRectangularGrid</text>
</a>
</g>
</g>
<!-- Node1&#45;&gt;Node10 -->
<g id="edge6_Node000001_Node000010" class="edge">
<title>Node1&#45;&gt;Node10</title>
<g id="a_edge6_Node000001_Node000010"><a xlink:title=" ">
<path fill="none" stroke="#63b8ff" d="M98.44,-46.5C106.49,-46.5 115.1,-46.5 123.93,-46.5"/>
<polygon fill="#63b8ff" stroke="#63b8ff" points="123.96,-50 133.96,-46.5 123.96,-43 123.96,-50"/>
</a>
</g>
</g>
<!-- Node12 -->
<g id="Node000012" class="node">
<title>Node12</title>
<g id="a_Node000012"><a xlink:href="../../d7/d3e/classfl_1_1_fx2d_a96dec159104519d347041d11509b72f3.html#a96dec159104519d347041d11509b72f3" target="_top" xlink:title=" ">
<polygon fill="white" stroke="#666666" points="276,-19 184,-19 184,0 276,0 276,-19"/>
<text text-anchor="middle" x="230" y="-7" font-family="Helvetica,sans-Serif" font-size="10.00">fl::Fx2d::xyMap</text>
</a>
</g>
</g>
<!-- Node1&#45;&gt;Node12 -->
<g id="edge8_Node000001_Node000012" class="edge">
<title>Node1&#45;&gt;Node12</title>
<g id="a_edge8_Node000001_Node000012"><a xlink:title=" ">
<path fill="none" stroke="#63b8ff" d="M90.95,-36.93C104.62,-33.82 119.95,-30.42 134,-27.5 146.97,-24.81 160.96,-22.06 174.12,-19.56"/>
<polygon fill="#63b8ff" stroke="#63b8ff" points="174.82,-22.99 183.99,-17.69 173.52,-16.11 174.82,-22.99"/>
</a>
</g>
</g>
<!-- Node3 -->
<g id="Node000003" class="node">
<title>Node3</title>
<g id="a_Node000003"><a xlink:href="../../d5/d3d/group___color_blurs_ga33ce178f76009348d3a0f0723b22d4de.html#ga33ce178f76009348d3a0f0723b22d4de" target="_top" xlink:title="Perform a blur1d() on every column of a rectangular matrix.">
<polygon fill="white" stroke="#666666" points="452,-130 374,-130 374,-111 452,-111 452,-130"/>
<text text-anchor="middle" x="413" y="-118" font-family="Helvetica,sans-Serif" font-size="10.00">blurColumns</text>
</a>
</g>
</g>
<!-- Node2&#45;&gt;Node3 -->
<g id="edge2_Node000002_Node000003" class="edge">
<title>Node2&#45;&gt;Node3</title>
<g id="a_edge2_Node000002_Node000003"><a xlink:title=" ">
<path fill="none" stroke="#63b8ff" d="M253.56,-88.11C280.99,-93.72 328.04,-103.34 363.76,-110.64"/>
<polygon fill="#63b8ff" stroke="#63b8ff" points="363.48,-114.15 373.98,-112.73 364.88,-107.3 363.48,-114.15"/>
</a>
</g>
</g>
<!-- Node9 -->
<g id="Node000009" class="node">
<title>Node9</title>
<g id="a_Node000009"><a xlink:href="../../d5/d3d/group___color_blurs_ga3000f2662fe45e9424c02b0d35f40b21.html#ga3000f2662fe45e9424c02b0d35f40b21" target="_top" xlink:title="Perform a blur1d() on every row of a rectangular matrix.">
<polygon fill="white" stroke="#666666" points="444,-93 382,-93 382,-74 444,-74 444,-93"/>
<text text-anchor="middle" x="413" y="-81" font-family="Helvetica,sans-Serif" font-size="10.00">blurRows</text>
</a>
</g>
</g>
<!-- Node2&#45;&gt;Node9 -->
<g id="edge4_Node000002_Node000009" class="edge">
<title>Node2&#45;&gt;Node9</title>
<g id="a_edge4_Node000002_Node000009"><a xlink:title=" ">
<path fill="none" stroke="#63b8ff" d="M253.56,-83.5C283.06,-83.5 335.25,-83.5 371.64,-83.5"/>
<polygon fill="#63b8ff" stroke="#63b8ff" points="371.92,-87 381.92,-83.5 371.92,-80 371.92,-87"/>
</a>
</g>
</g>
<!-- Node4 -->
<g id="Node000004" class="node">
<title>Node4</title>
<g id="a_Node000004"><a xlink:href="../../d7/d82/struct_c_r_g_b_a5a3c3370a7de840ac31c07f6dc9bdb63.html#a5a3c3370a7de840ac31c07f6dc9bdb63" target="_top" xlink:title="Scale down a RGB to N/256ths of its current brightness, using &quot;plain math&quot; dimming rules.">
<polygon fill="#fff0f0" stroke="red" points="588,-111 500,-111 500,-92 588,-92 588,-111"/>
<text text-anchor="middle" x="544" y="-99" font-family="Helvetica,sans-Serif" font-size="10.00">CRGB::nscale8</text>
</a>
</g>
</g>
<!-- Node3&#45;&gt;Node4 -->
<g id="edge3_Node000003_Node000004" class="edge">
<title>Node3&#45;&gt;Node4</title>
<g id="a_edge3_Node000003_Node000004"><a xlink:title=" ">
<path fill="none" stroke="#63b8ff" d="M452.01,-114.9C463.85,-113.16 477.14,-111.2 489.83,-109.33"/>
<polygon fill="#63b8ff" stroke="#63b8ff" points="490.45,-112.78 499.83,-107.86 489.43,-105.85 490.45,-112.78"/>
</a>
</g>
</g>
<!-- Node9&#45;&gt;Node4 -->
<g id="edge5_Node000009_Node000004" class="edge">
<title>Node9&#45;&gt;Node4</title>
<g id="a_edge5_Node000009_Node000004"><a xlink:title=" ">
<path fill="none" stroke="#63b8ff" d="M444.24,-87.72C457.81,-89.61 474.21,-91.9 489.73,-94.07"/>
<polygon fill="#63b8ff" stroke="#63b8ff" points="489.37,-97.55 499.75,-95.47 490.33,-90.62 489.37,-97.55"/>
</a>
</g>
</g>
<!-- Node11 -->
<g id="Node000011" class="node">
<title>Node11</title>
<g id="a_Node000011"><a xlink:href="../../d0/dce/classfl_1_1_x_y_map_a9985d6fbdcedd16a68209f204164b04f.html#a9985d6fbdcedd16a68209f204164b04f" target="_top" xlink:title=" ">
<polygon fill="white" stroke="#666666" points="464,-56 362,-56 362,-37 464,-37 464,-56"/>
<text text-anchor="middle" x="413" y="-44" font-family="Helvetica,sans-Serif" font-size="10.00">fl::XYMap::XYMap</text>
</a>
</g>
</g>
<!-- Node10&#45;&gt;Node11 -->
<g id="edge7_Node000010_Node000011" class="edge">
<title>Node10&#45;&gt;Node11</title>
<g id="a_edge7_Node000010_Node000011"><a xlink:title=" ">
<path fill="none" stroke="#63b8ff" d="M326.01,-46.5C334.65,-46.5 343.23,-46.5 351.45,-46.5"/>
<polygon fill="#63b8ff" stroke="#63b8ff" points="351.63,-50 361.63,-46.5 351.63,-43 351.63,-50"/>
</a>
</g>
</g>
</g>
</svg>

<g id="navigator" transform="translate(0 0)" fill="#404254">
  <rect fill="#f2f5e9" fill-opacity="0.5" stroke="#606060" stroke-width=".5" x="0" y="0" width="60" height="60"/>
  <use id="zoomplus" xlink:href="#zoomPlus" x="17" y="9" onmousedown="handleZoom(evt,'in')"/>
  <use id="zoomminus" xlink:href="#zoomMin" x="42" y="9" onmousedown="handleZoom(evt,'out')"/>
  <use id="reset" xlink:href="#resetDef" x="30" y="36" onmousedown="handleReset()"/>
   <use id="arrowup" xlink:href="#arrowUp" x="0" y="0" onmousedown="handlePan(0,-1)"/>
  <use id="arrowright" xlink:href="#arrowRight" x="0" y="0" onmousedown="handlePan(1,0)"/>
  <use id="arrowdown" xlink:href="#arrowDown" x="0" y="0" onmousedown="handlePan(0,1)"/>
  <use id="arrowleft" xlink:href="#arrowLeft" x="0" y="0" onmousedown="handlePan(-1,0)"/>
</g>
<svg viewBox="0 0 15 15" width="100%" height="30px" preserveAspectRatio="xMaxYMin meet">
 <g id="arrow_out" transform="scale(0.3 0.3)">
  <a xlink:href="classfl_1_1_blend2d_ad965648c61fd795366282d3b797a612f_ad965648c61fd795366282d3b797a612f_cgraph_org.svg" target="_base">
   <rect id="button" ry="5" rx="5" y="6" x="6" height="38" width="38"
        fill="#f2f5e9" fill-opacity="0.5" stroke="#606060" stroke-width="1.0"/>
   <path id="arrow"
     d="M 11.500037,31.436501 C 11.940474,20.09759 22.043105,11.32322 32.158766,21.979434 L 37.068811,17.246167 C 37.068811,17.246167 37.088388,32 37.088388,32 L 22.160133,31.978069 C 22.160133,31.978069 26.997745,27.140456 26.997745,27.140456 C 18.528582,18.264221 13.291696,25.230495 11.500037,31.436501 z"
     style="fill:#404040;"/>
  </a>
 </g>
</svg>

<style type='text/css'>
<![CDATA[
[data-mouse-over-selected='false'] { opacity: 0.7; }
[data-mouse-over-selected='true']  { opacity: 1.0; }
]]>
</style>
<script type="application/ecmascript"><![CDATA[
document.addEventListener('DOMContentLoaded', (event) => {
  highlightEdges();
  highlightAdjacentNodes();
});
]]></script>
</svg>
