<?xml version="1.0" encoding="UTF-8" standalone="no"?>
<!DOCTYPE svg PUBLIC "-//W3C//DTD SVG 1.1//EN"
 "http://www.w3.org/Graphics/SVG/1.1/DTD/svg11.dtd">
<!-- Generated by graphviz version 2.43.0 (0)
 -->
<!-- Title: fl::Blend2d::add Pages: 1 -->
<!--zoomable 150 -->

<svg id="main" version="1.1" xmlns="http://www.w3.org/2000/svg" xmlns:xlink="http://www.w3.org/1999/xlink" xml:space="preserve" onload="init(evt)">

<style type="text/css"><![CDATA[
.node, .edge {opacity: 0.7;}
.node.selected, .edge.selected {opacity: 1;}
.edge:hover path { stroke: red; }
.edge:hover polygon { stroke: red; fill: red; }
]]></style>

<defs>
  <circle id="rim" cx="0" cy="0" r="7"/>
  <circle id="rim2" cx="0" cy="0" r="3.5"/>
  <g id="zoomPlus">
    <use xlink:href="#rim" fill="#404040"><set attributeName="fill" to="#808080" begin="zoomplus.mouseover" end="zoomplus.mouseout"/></use>
    <path d="M-4,0h8M0,-4v8" fill="none" stroke="white" stroke-width="1.5" pointer-events="none"/>
  </g>
  <g id="zoomMin">
    <use xlink:href="#rim" fill="#404040"><set attributeName="fill" to="#808080" begin="zoomminus.mouseover" end="zoomminus.mouseout"/></use>
    <path d="M-4,0h8" fill="none" stroke="white" stroke-width="1.5" pointer-events="none"/>
  </g>
  <g id="arrowUp" transform="translate(30 24)">
    <use xlink:href="#rim"/>
    <path pointer-events="none" fill="none" stroke="white" stroke-width="1.5" d="M0,-3.0v7 M-2.5,-0.5L0,-3.0L2.5,-0.5"/>
  </g>
  <g id="arrowRight" transform="rotate(90) translate(36 -43)">
    <use xlink:href="#rim"/>
    <path pointer-events="none" fill="none" stroke="white" stroke-width="1.5" d="M0,-3.0v7 M-2.5,-0.5L0,-3.0L2.5,-0.5"/>
  </g>
  <g id="arrowDown" transform="rotate(180) translate(-30 -48)">
    <use xlink:href="#rim"/>
    <path pointer-events="none" fill="none" stroke="white" stroke-width="1.5" d="M0,-3.0v7 M-2.5,-0.5L0,-3.0L2.5,-0.5"/>
  </g>
  <g id="arrowLeft" transform="rotate(270) translate(-36 17)">
    <use xlink:href="#rim"/>
    <path pointer-events="none" fill="none" stroke="white" stroke-width="1.5" d="M0,-3.0v7 M-2.5,-0.5L0,-3.0L2.5,-0.5"/>
  </g>
  <g id="resetDef">
    <use xlink:href="#rim2" fill="#404040"><set attributeName="fill" to="#808080" begin="reset.mouseover" end="reset.mouseout"/></use>
  </g>
</defs>
<script type="application/ecmascript">
var viewWidth = 693;
var viewHeight = 150;
var sectionId = 'dynsection-0';
</script>
<script type="application/ecmascript" xlink:href="../../svg.min.js"/>
<svg id="graph" class="graph">
<g id="viewport">
<title>fl::Blend2d::add</title>
<!-- Node1 -->
<g id="Node000001" class="node">
<title>Node1</title>
<g id="a_Node000001"><a xlink:title=" ">
<polygon fill="#999999" stroke="#666666" points="92,-67.5 0,-67.5 0,-48.5 92,-48.5 92,-67.5"/>
<text text-anchor="middle" x="46" y="-55.5" font-family="Helvetica,sans-Serif" font-size="10.00">fl::Blend2d::add</text>
</a>
</g>
</g>
<!-- Node2 -->
<g id="Node000002" class="node">
<title>Node2</title>
<g id="a_Node000002"><a xlink:href="../../d7/d3e/classfl_1_1_fx2d_a98879bee7a7a97ceb2cc34ea2eefc7fe.html#a98879bee7a7a97ceb2cc34ea2eefc7fe" target="_top" xlink:title=" ">
<polygon fill="white" stroke="#666666" points="225,-104.5 142,-104.5 142,-85.5 225,-85.5 225,-104.5"/>
<text text-anchor="middle" x="183.5" y="-92.5" font-family="Helvetica,sans-Serif" font-size="10.00">fl::Fx2d::Fx2d</text>
</a>
</g>
</g>
<!-- Node1&#45;&gt;Node2 -->
<g id="edge1_Node000001_Node000002" class="edge">
<title>Node1&#45;&gt;Node2</title>
<g id="a_edge1_Node000001_Node000002"><a xlink:title=" ">
<path fill="none" stroke="#63b8ff" d="M81.89,-67.53C98.83,-72.15 119.38,-77.77 137.49,-82.71"/>
<polygon fill="#63b8ff" stroke="#63b8ff" points="136.68,-86.12 147.25,-85.38 138.53,-79.36 136.68,-86.12"/>
</a>
</g>
</g>
<!-- Node5 -->
<g id="Node000005" class="node">
<title>Node5</title>
<g id="a_Node000005"><a xlink:href="../../dc/d2b/classfl_1_1_blend2d_a5ee229ce7c02bd25ae86ef184dbccbcc.html#a5ee229ce7c02bd25ae86ef184dbccbcc" target="_top" xlink:title=" ">
<polygon fill="white" stroke="#666666" points="229.5,-67.5 137.5,-67.5 137.5,-48.5 229.5,-48.5 229.5,-67.5"/>
<text text-anchor="middle" x="183.5" y="-55.5" font-family="Helvetica,sans-Serif" font-size="10.00">fl::Blend2d::add</text>
</a>
</g>
</g>
<!-- Node1&#45;&gt;Node5 -->
<g id="edge4_Node000001_Node000005" class="edge">
<title>Node1&#45;&gt;Node5</title>
<g id="a_edge4_Node000001_Node000005"><a xlink:title=" ">
<path fill="none" stroke="#63b8ff" d="M92.12,-58C103.31,-58 115.44,-58 127.06,-58"/>
<polygon fill="#63b8ff" stroke="#63b8ff" points="127.12,-61.5 137.12,-58 127.12,-54.5 127.12,-61.5"/>
</a>
</g>
</g>
<!-- Node10 -->
<g id="Node000010" class="node">
<title>Node10</title>
<g id="a_Node000010"><a xlink:href="../../d4/d36/namespacefl_a24e2fed3f1ee8978d3ebbca27a550f29.html#a24e2fed3f1ee8978d3ebbca27a550f29" target="_top" xlink:title=" ">
<polygon fill="white" stroke="#666666" points="239,-30 128,-30 128,0 239,0 239,-30"/>
<text text-anchor="start" x="136" y="-18" font-family="Helvetica,sans-Serif" font-size="10.00">fl::make_shared_no</text>
<text text-anchor="middle" x="183.5" y="-7" font-family="Helvetica,sans-Serif" font-size="10.00">_tracking</text>
</a>
</g>
</g>
<!-- Node1&#45;&gt;Node10 -->
<g id="edge10_Node000001_Node000010" class="edge">
<title>Node1&#45;&gt;Node10</title>
<g id="a_edge10_Node000001_Node000010"><a xlink:title=" ">
<path fill="none" stroke="#63b8ff" d="M77.07,-48.46C91.35,-43.93 108.89,-38.36 125.54,-33.07"/>
<polygon fill="#63b8ff" stroke="#63b8ff" points="126.74,-36.37 135.21,-30.01 124.62,-29.7 126.74,-36.37"/>
</a>
</g>
</g>
<!-- Node3 -->
<g id="Node000003" class="node">
<title>Node3</title>
<g id="a_Node000003"><a xlink:href="../../da/d5d/classfl_1_1_fx_aa4a990c2a2d04e57046cf8b0f64ce4e7.html#aa4a990c2a2d04e57046cf8b0f64ce4e7" target="_top" xlink:title=" ">
<polygon fill="white" stroke="#666666" points="400.5,-141.5 341.5,-141.5 341.5,-122.5 400.5,-122.5 400.5,-141.5"/>
<text text-anchor="middle" x="371" y="-129.5" font-family="Helvetica,sans-Serif" font-size="10.00">fl::Fx::Fx</text>
</a>
</g>
</g>
<!-- Node2&#45;&gt;Node3 -->
<g id="edge2_Node000002_Node000003" class="edge">
<title>Node2&#45;&gt;Node3</title>
<g id="a_edge2_Node000002_Node000003"><a xlink:title=" ">
<path fill="none" stroke="#63b8ff" d="M225.01,-103.68C240.62,-106.98 258.63,-110.73 275,-114 293.4,-117.67 313.85,-121.57 331.05,-124.8"/>
<polygon fill="#63b8ff" stroke="#63b8ff" points="330.81,-128.32 341.29,-126.71 332.1,-121.43 330.81,-128.32"/>
</a>
</g>
</g>
<!-- Node4 -->
<g id="Node000004" class="node">
<title>Node4</title>
<g id="a_Node000004"><a xlink:href="../../d7/d3e/classfl_1_1_fx2d_a96dec159104519d347041d11509b72f3.html#a96dec159104519d347041d11509b72f3" target="_top" xlink:title=" ">
<polygon fill="white" stroke="#666666" points="417,-104.5 325,-104.5 325,-85.5 417,-85.5 417,-104.5"/>
<text text-anchor="middle" x="371" y="-92.5" font-family="Helvetica,sans-Serif" font-size="10.00">fl::Fx2d::xyMap</text>
</a>
</g>
</g>
<!-- Node2&#45;&gt;Node4 -->
<g id="edge3_Node000002_Node000004" class="edge">
<title>Node2&#45;&gt;Node4</title>
<g id="a_edge3_Node000002_Node000004"><a xlink:title=" ">
<path fill="none" stroke="#63b8ff" d="M225.21,-95C251.42,-95 285.84,-95 314.54,-95"/>
<polygon fill="#63b8ff" stroke="#63b8ff" points="314.83,-98.5 324.83,-95 314.83,-91.5 314.83,-98.5"/>
</a>
</g>
</g>
<!-- Node6 -->
<g id="Node000006" class="node">
<title>Node6</title>
<g id="a_Node000006"><a xlink:href="../../d0/dce/classfl_1_1_x_y_map_a6faeccfa39121c788943e3dc1ae6507c.html#a6faeccfa39121c788943e3dc1ae6507c" target="_top" xlink:title=" ">
<polygon fill="white" stroke="#666666" points="467,-67.5 275,-67.5 275,-48.5 467,-48.5 467,-67.5"/>
<text text-anchor="middle" x="371" y="-55.5" font-family="Helvetica,sans-Serif" font-size="10.00">fl::XYMap::constructRectangularGrid</text>
</a>
</g>
</g>
<!-- Node5&#45;&gt;Node6 -->
<g id="edge5_Node000005_Node000006" class="edge">
<title>Node5&#45;&gt;Node6</title>
<g id="a_edge5_Node000005_Node000006"><a xlink:title=" ">
<path fill="none" stroke="#63b8ff" d="M229.88,-58C240.6,-58 252.49,-58 264.66,-58"/>
<polygon fill="#63b8ff" stroke="#63b8ff" points="264.94,-61.5 274.94,-58 264.94,-54.5 264.94,-61.5"/>
</a>
</g>
</g>
<!-- Node9 -->
<g id="Node000009" class="node">
<title>Node9</title>
<g id="a_Node000009"><a xlink:href="../../d7/d3e/classfl_1_1_fx2d_a452644c932e5fe45b781078d471370a3.html#a452644c932e5fe45b781078d471370a3" target="_top" xlink:title=" ">
<polygon fill="white" stroke="#666666" points="425,-30.5 317,-30.5 317,-11.5 425,-11.5 425,-30.5"/>
<text text-anchor="middle" x="371" y="-18.5" font-family="Helvetica,sans-Serif" font-size="10.00">fl::Fx2d::getXYMap</text>
</a>
</g>
</g>
<!-- Node5&#45;&gt;Node9 -->
<g id="edge9_Node000005_Node000009" class="edge">
<title>Node5&#45;&gt;Node9</title>
<g id="a_edge9_Node000005_Node000009"><a xlink:title=" ">
<path fill="none" stroke="#63b8ff" d="M229.88,-48.95C254.7,-44 285.71,-37.81 312.25,-32.52"/>
<polygon fill="#63b8ff" stroke="#63b8ff" points="313.05,-35.93 322.18,-30.54 311.68,-29.06 313.05,-35.93"/>
</a>
</g>
</g>
<!-- Node7 -->
<g id="Node000007" class="node">
<title>Node7</title>
<g id="a_Node000007"><a xlink:href="../../d0/dce/classfl_1_1_x_y_map_abdbc76293c26157ec67716a365bd5460.html#abdbc76293c26157ec67716a365bd5460" target="_top" xlink:title=" ">
<polygon fill="white" stroke="#666666" points="605,-86.5 503,-86.5 503,-67.5 605,-67.5 605,-86.5"/>
<text text-anchor="middle" x="554" y="-74.5" font-family="Helvetica,sans-Serif" font-size="10.00">fl::XYMap::XYMap</text>
</a>
</g>
</g>
<!-- Node6&#45;&gt;Node7 -->
<g id="edge6_Node000006_Node000007" class="edge">
<title>Node6&#45;&gt;Node7</title>
<g id="a_edge6_Node000006_Node000007"><a xlink:title=" ">
<path fill="none" stroke="#63b8ff" d="M462.77,-67.53C472.87,-68.59 482.97,-69.65 492.56,-70.66"/>
<polygon fill="#63b8ff" stroke="#63b8ff" points="492.44,-74.16 502.75,-71.72 493.17,-67.2 492.44,-74.16"/>
</a>
</g>
</g>
<!-- Node8 -->
<g id="Node000008" class="node">
<title>Node8</title>
<g id="a_Node000008"><a xlink:href="../../d6/daf/direct_8h_a0b3fd115c40d6ac683a810a572fc6104.html#a0b3fd115c40d6ac683a810a572fc6104" target="_top" xlink:title=" ">
<polygon fill="white" stroke="#666666" points="685,-67.5 641,-67.5 641,-48.5 685,-48.5 685,-67.5"/>
<text text-anchor="middle" x="663" y="-55.5" font-family="Helvetica,sans-Serif" font-size="10.00">offset</text>
</a>
</g>
</g>
<!-- Node6&#45;&gt;Node8 -->
<g id="edge8_Node000006_Node000008" class="edge">
<title>Node6&#45;&gt;Node8</title>
<g id="a_edge8_Node000006_Node000008"><a xlink:title=" ">
<path fill="none" stroke="#63b8ff" d="M467.36,-58C523.95,-58 592,-58 630.81,-58"/>
<polygon fill="#63b8ff" stroke="#63b8ff" points="630.95,-61.5 640.95,-58 630.95,-54.5 630.95,-61.5"/>
</a>
</g>
</g>
<!-- Node7&#45;&gt;Node8 -->
<g id="edge7_Node000007_Node000008" class="edge">
<title>Node7&#45;&gt;Node8</title>
<g id="a_edge7_Node000007_Node000008"><a xlink:title=" ">
<path fill="none" stroke="#63b8ff" d="M605.05,-68.11C613.83,-66.55 622.73,-64.97 630.8,-63.54"/>
<polygon fill="#63b8ff" stroke="#63b8ff" points="631.62,-66.95 640.86,-61.75 630.4,-60.06 631.62,-66.95"/>
</a>
</g>
</g>
</g>
</svg>

<g id="navigator" transform="translate(0 0)" fill="#404254">
  <rect fill="#f2f5e9" fill-opacity="0.5" stroke="#606060" stroke-width=".5" x="0" y="0" width="60" height="60"/>
  <use id="zoomplus" xlink:href="#zoomPlus" x="17" y="9" onmousedown="handleZoom(evt,'in')"/>
  <use id="zoomminus" xlink:href="#zoomMin" x="42" y="9" onmousedown="handleZoom(evt,'out')"/>
  <use id="reset" xlink:href="#resetDef" x="30" y="36" onmousedown="handleReset()"/>
   <use id="arrowup" xlink:href="#arrowUp" x="0" y="0" onmousedown="handlePan(0,-1)"/>
  <use id="arrowright" xlink:href="#arrowRight" x="0" y="0" onmousedown="handlePan(1,0)"/>
  <use id="arrowdown" xlink:href="#arrowDown" x="0" y="0" onmousedown="handlePan(0,1)"/>
  <use id="arrowleft" xlink:href="#arrowLeft" x="0" y="0" onmousedown="handlePan(-1,0)"/>
</g>
<svg viewBox="0 0 15 15" width="100%" height="30px" preserveAspectRatio="xMaxYMin meet">
 <g id="arrow_out" transform="scale(0.3 0.3)">
  <a xlink:href="classfl_1_1_blend2d_aa6b753d9f7a72e49bb11b0e25a6a2948_aa6b753d9f7a72e49bb11b0e25a6a2948_cgraph_org.svg" target="_base">
   <rect id="button" ry="5" rx="5" y="6" x="6" height="38" width="38"
        fill="#f2f5e9" fill-opacity="0.5" stroke="#606060" stroke-width="1.0"/>
   <path id="arrow"
     d="M 11.500037,31.436501 C 11.940474,20.09759 22.043105,11.32322 32.158766,21.979434 L 37.068811,17.246167 C 37.068811,17.246167 37.088388,32 37.088388,32 L 22.160133,31.978069 C 22.160133,31.978069 26.997745,27.140456 26.997745,27.140456 C 18.528582,18.264221 13.291696,25.230495 11.500037,31.436501 z"
     style="fill:#404040;"/>
  </a>
 </g>
</svg>

<style type='text/css'>
<![CDATA[
[data-mouse-over-selected='false'] { opacity: 0.7; }
[data-mouse-over-selected='true']  { opacity: 1.0; }
]]>
</style>
<script type="application/ecmascript"><![CDATA[
document.addEventListener('DOMContentLoaded', (event) => {
  highlightEdges();
  highlightAdjacentNodes();
});
]]></script>
</svg>
