<?xml version="1.0" encoding="UTF-8" standalone="no"?>
<!DOCTYPE svg PUBLIC "-//W3C//DTD SVG 1.1//EN"
 "http://www.w3.org/Graphics/SVG/1.1/DTD/svg11.dtd">
<!-- Generated by graphviz version 2.43.0 (0)
 -->
<!-- Title: fl::detail::ScaledPixelIteratorRGB16::operator!= Pages: 1 -->
<svg width="568pt" height="38pt"
 viewBox="0.00 0.00 568.00 38.00" xmlns="http://www.w3.org/2000/svg" xmlns:xlink="http://www.w3.org/1999/xlink">
<g id="graph0" class="graph" transform="scale(1 1) rotate(0) translate(4 34)">
<title>fl::detail::ScaledPixelIteratorRGB16::operator!=</title>
<!-- Node1 -->
<g id="Node000001" class="node">
<title>Node1</title>
<g id="a_Node000001"><a xlink:title="Inequality comparison.">
<polygon fill="#999999" stroke="#666666" points="154,-30 0,-30 0,0 154,0 154,-30"/>
<text text-anchor="start" x="8" y="-18" font-family="Helvetica,sans-Serif" font-size="10.00">fl::detail::ScaledPixelIterator</text>
<text text-anchor="middle" x="77" y="-7" font-family="Helvetica,sans-Serif" font-size="10.00">RGB16::operator!=</text>
</a>
</g>
</g>
<!-- Node2 -->
<g id="Node000002" class="node">
<title>Node2</title>
<g id="a_Node000002"><a xlink:href="../../d7/d4d/classfl_1_1detail_1_1_scaled_pixel_iterator_r_g_b16_ab3926c2cf83169870bb4e03c29801c36.html#ab3926c2cf83169870bb4e03c29801c36" target="_top" xlink:title="Construct from PixelIterator.">
<polygon fill="white" stroke="#666666" points="370,-30 190,-30 190,0 370,0 370,-30"/>
<text text-anchor="start" x="198" y="-18" font-family="Helvetica,sans-Serif" font-size="10.00">fl::detail::ScaledPixelIterator</text>
<text text-anchor="middle" x="280" y="-7" font-family="Helvetica,sans-Serif" font-size="10.00">RGB16::ScaledPixelIteratorRGB16</text>
</a>
</g>
</g>
<!-- Node1&#45;&gt;Node2 -->
<g id="edge1_Node000001_Node000002" class="edge">
<title>Node1&#45;&gt;Node2</title>
<g id="a_edge1_Node000001_Node000002"><a xlink:title=" ">
<path fill="none" stroke="#63b8ff" d="M154.28,-15C162.66,-15 171.28,-15 179.88,-15"/>
<polygon fill="#63b8ff" stroke="#63b8ff" points="179.97,-18.5 189.97,-15 179.97,-11.5 179.97,-18.5"/>
</a>
</g>
</g>
<!-- Node3 -->
<g id="Node000003" class="node">
<title>Node3</title>
<g id="a_Node000003"><a xlink:href="../../dd/d80/classfl_1_1detail_1_1_scaled_pixel_iterator_r_g_b_a8cb2a98fcda78aab43f3a5b74b0ae6b5.html#a8cb2a98fcda78aab43f3a5b74b0ae6b5" target="_top" xlink:title="Advance to next pixel (or mark as end)">
<polygon fill="white" stroke="#666666" points="560,-30 406,-30 406,0 560,0 560,-30"/>
<text text-anchor="start" x="414" y="-18" font-family="Helvetica,sans-Serif" font-size="10.00">fl::detail::ScaledPixelIterator</text>
<text text-anchor="middle" x="483" y="-7" font-family="Helvetica,sans-Serif" font-size="10.00">RGB::advance</text>
</a>
</g>
</g>
<!-- Node2&#45;&gt;Node3 -->
<g id="edge2_Node000002_Node000003" class="edge">
<title>Node2&#45;&gt;Node3</title>
<g id="a_edge2_Node000002_Node000003"><a xlink:title=" ">
<path fill="none" stroke="#63b8ff" d="M370.04,-15C378.55,-15 387.17,-15 395.66,-15"/>
<polygon fill="#63b8ff" stroke="#63b8ff" points="395.92,-18.5 405.92,-15 395.92,-11.5 395.92,-18.5"/>
</a>
</g>
</g>
</g>
</svg>
