<?xml version="1.0" encoding="UTF-8" standalone="no"?>
<!DOCTYPE svg PUBLIC "-//W3C//DTD SVG 1.1//EN"
 "http://www.w3.org/Graphics/SVG/1.1/DTD/svg11.dtd">
<!-- Generated by graphviz version 2.43.0 (0)
 -->
<!-- Title: fl::CLEDController::setDither Pages: 1 -->
<!--zoomable 263 -->

<svg id="main" version="1.1" xmlns="http://www.w3.org/2000/svg" xmlns:xlink="http://www.w3.org/1999/xlink" xml:space="preserve" onload="init(evt)">

<style type="text/css"><![CDATA[
.node, .edge {opacity: 0.7;}
.node.selected, .edge.selected {opacity: 1;}
.edge:hover path { stroke: red; }
.edge:hover polygon { stroke: red; fill: red; }
]]></style>

<defs>
  <circle id="rim" cx="0" cy="0" r="7"/>
  <circle id="rim2" cx="0" cy="0" r="3.5"/>
  <g id="zoomPlus">
    <use xlink:href="#rim" fill="#404040"><set attributeName="fill" to="#808080" begin="zoomplus.mouseover" end="zoomplus.mouseout"/></use>
    <path d="M-4,0h8M0,-4v8" fill="none" stroke="white" stroke-width="1.5" pointer-events="none"/>
  </g>
  <g id="zoomMin">
    <use xlink:href="#rim" fill="#404040"><set attributeName="fill" to="#808080" begin="zoomminus.mouseover" end="zoomminus.mouseout"/></use>
    <path d="M-4,0h8" fill="none" stroke="white" stroke-width="1.5" pointer-events="none"/>
  </g>
  <g id="arrowUp" transform="translate(30 24)">
    <use xlink:href="#rim"/>
    <path pointer-events="none" fill="none" stroke="white" stroke-width="1.5" d="M0,-3.0v7 M-2.5,-0.5L0,-3.0L2.5,-0.5"/>
  </g>
  <g id="arrowRight" transform="rotate(90) translate(36 -43)">
    <use xlink:href="#rim"/>
    <path pointer-events="none" fill="none" stroke="white" stroke-width="1.5" d="M0,-3.0v7 M-2.5,-0.5L0,-3.0L2.5,-0.5"/>
  </g>
  <g id="arrowDown" transform="rotate(180) translate(-30 -48)">
    <use xlink:href="#rim"/>
    <path pointer-events="none" fill="none" stroke="white" stroke-width="1.5" d="M0,-3.0v7 M-2.5,-0.5L0,-3.0L2.5,-0.5"/>
  </g>
  <g id="arrowLeft" transform="rotate(270) translate(-36 17)">
    <use xlink:href="#rim"/>
    <path pointer-events="none" fill="none" stroke="white" stroke-width="1.5" d="M0,-3.0v7 M-2.5,-0.5L0,-3.0L2.5,-0.5"/>
  </g>
  <g id="resetDef">
    <use xlink:href="#rim2" fill="#404040"><set attributeName="fill" to="#808080" begin="reset.mouseover" end="reset.mouseout"/></use>
  </g>
</defs>
<script type="application/ecmascript">
var viewWidth = 591;
var viewHeight = 263;
var sectionId = 'dynsection-1';
</script>
<script type="application/ecmascript" xlink:href="../../svg.min.js"/>
<svg id="graph" class="graph">
<g id="viewport">
<title>fl::CLEDController::setDither</title>
<!-- Node1 -->
<g id="Node000001" class="node">
<title>Node1</title>
<g id="a_Node000001"><a xlink:title="Set the dithering mode for this controller to use.">
<polygon fill="#999999" stroke="#666666" points="583,-148.5 481,-148.5 481,-118.5 583,-118.5 583,-148.5"/>
<text text-anchor="start" x="489" y="-136.5" font-family="Helvetica,sans-Serif" font-size="10.00">fl::CLEDController</text>
<text text-anchor="middle" x="532" y="-125.5" font-family="Helvetica,sans-Serif" font-size="10.00">::setDither</text>
</a>
</g>
</g>
<!-- Node2 -->
<g id="Node000002" class="node">
<title>Node2</title>
<g id="a_Node000002"><a xlink:href="../../d5/d8b/classfl_1_1_channel_a73b662986c55cfb31ff1e72065df03dd.html#a73b662986c55cfb31ff1e72065df03dd" target="_top" xlink:title="Private constructor (use create() factory method)">
<polygon fill="white" stroke="#666666" points="436,-255 322,-255 322,-236 436,-236 436,-255"/>
<text text-anchor="middle" x="379" y="-243" font-family="Helvetica,sans-Serif" font-size="10.00">fl::Channel::Channel</text>
</a>
</g>
</g>
<!-- Node1&#45;&gt;Node2 -->
<g id="edge1_Node000001_Node000002" class="edge">
<title>Node1&#45;&gt;Node2</title>
<g id="a_edge1_Node000001_Node000002"><a xlink:title=" ">
<path fill="none" stroke="#63b8ff" d="M515.48,-156.88C500.06,-178.33 474.5,-209.41 445,-227.5 439.41,-230.93 433.15,-233.72 426.79,-235.98"/>
<polygon fill="#63b8ff" stroke="#63b8ff" points="518.39,-158.83 521.26,-148.63 512.66,-154.81 518.39,-158.83"/>
</a>
</g>
</g>
<!-- Node3 -->
<g id="Node000003" class="node">
<title>Node3</title>
<g id="a_Node000003"><a xlink:href="../../d5/d8b/classfl_1_1_channel_a547ccb4c09f235fdad54564198d19028.html#a547ccb4c09f235fdad54564198d19028" target="_top" xlink:title="Backwards&#45;compatible constructor (deprecated)">
<polygon fill="white" stroke="#666666" points="436,-218 322,-218 322,-199 436,-199 436,-218"/>
<text text-anchor="middle" x="379" y="-206" font-family="Helvetica,sans-Serif" font-size="10.00">fl::Channel::Channel</text>
</a>
</g>
</g>
<!-- Node1&#45;&gt;Node3 -->
<g id="edge2_Node000001_Node000003" class="edge">
<title>Node1&#45;&gt;Node3</title>
<g id="a_edge2_Node000001_Node000003"><a xlink:title=" ">
<path fill="none" stroke="#63b8ff" d="M503.42,-155.03C487.16,-166.87 465.77,-181.03 445,-190.5 437.75,-193.8 429.77,-196.62 421.96,-198.98"/>
<polygon fill="#63b8ff" stroke="#63b8ff" points="505.95,-157.51 511.89,-148.74 501.77,-151.9 505.95,-157.51"/>
</a>
</g>
</g>
<!-- Node4 -->
<g id="Node000004" class="node">
<title>Node4</title>
<g id="a_Node000004"><a xlink:href="../../d5/d8b/classfl_1_1_channel_a4fd9736141ec00c1a8f5db47a0af1882.html#a4fd9736141ec00c1a8f5db47a0af1882" target="_top" xlink:title="Apply reconfigurable settings from a ChannelConfig.">
<polygon fill="white" stroke="#666666" points="445,-181 313,-181 313,-162 445,-162 445,-181"/>
<text text-anchor="middle" x="379" y="-169" font-family="Helvetica,sans-Serif" font-size="10.00">fl::Channel::applyConfig</text>
</a>
</g>
</g>
<!-- Node1&#45;&gt;Node4 -->
<g id="edge3_Node000001_Node000004" class="edge">
<title>Node1&#45;&gt;Node4</title>
<g id="a_edge3_Node000001_Node000004"><a xlink:title=" ">
<path fill="none" stroke="#63b8ff" d="M470.97,-148.61C453.15,-153.09 434.14,-157.88 418.12,-161.91"/>
<polygon fill="#63b8ff" stroke="#63b8ff" points="471.88,-151.99 480.72,-146.15 470.17,-145.2 471.88,-151.99"/>
</a>
</g>
</g>
<!-- Node5 -->
<g id="Node000005" class="node">
<title>Node5</title>
<g id="a_Node000005"><a xlink:href="../../d8/da0/classfl_1_1_c_l_e_d_controller_a23aa5d45072b3359bfa897d4bc60272f.html#a23aa5d45072b3359bfa897d4bc60272f" target="_top" xlink:title=" ">
<polygon fill="white" stroke="#666666" points="430,-105.5 328,-105.5 328,-75.5 430,-75.5 430,-105.5"/>
<text text-anchor="start" x="336" y="-93.5" font-family="Helvetica,sans-Serif" font-size="10.00">fl::CLEDController</text>
<text text-anchor="middle" x="379" y="-82.5" font-family="Helvetica,sans-Serif" font-size="10.00">::endShowLeds</text>
</a>
</g>
</g>
<!-- Node1&#45;&gt;Node5 -->
<g id="edge4_Node000001_Node000005" class="edge">
<title>Node1&#45;&gt;Node5</title>
<g id="a_edge4_Node000001_Node000005"><a xlink:title=" ">
<path fill="none" stroke="#63b8ff" d="M470.99,-116.41C457.43,-112.55 443.17,-108.49 430.06,-104.76"/>
<polygon fill="#63b8ff" stroke="#63b8ff" points="470.14,-119.81 480.72,-119.18 472.06,-113.08 470.14,-119.81"/>
</a>
</g>
</g>
<!-- Node6 -->
<g id="Node000006" class="node">
<title>Node6</title>
<g id="a_Node000006"><a xlink:href="../../dd/dbb/class_c_fast_l_e_d_a93471b4babe96100496e8e25062cba3f.html#a93471b4babe96100496e8e25062cba3f" target="_top" xlink:title="Update all our controllers with the current led colors, using the passed in brightness.">
<polygon fill="white" stroke="#666666" points="264,-143 171,-143 171,-124 264,-124 264,-143"/>
<text text-anchor="middle" x="217.5" y="-131" font-family="Helvetica,sans-Serif" font-size="10.00">CFastLED::show</text>
</a>
</g>
</g>
<!-- Node1&#45;&gt;Node6 -->
<g id="edge13_Node000001_Node000006" class="edge">
<title>Node1&#45;&gt;Node6</title>
<g id="a_edge13_Node000001_Node000006"><a xlink:title=" ">
<path fill="none" stroke="#63b8ff" d="M470.63,-133.5C410.2,-133.5 318.57,-133.5 264.01,-133.5"/>
<polygon fill="#63b8ff" stroke="#63b8ff" points="470.79,-137 480.79,-133.5 470.79,-130 470.79,-137"/>
</a>
</g>
</g>
<!-- Node7 -->
<g id="Node000007" class="node">
<title>Node7</title>
<g id="a_Node000007"><a xlink:href="../../dd/dbb/class_c_fast_l_e_d_a50e30222e81562a7ef334dbe4fdfa856.html#a50e30222e81562a7ef334dbe4fdfa856" target="_top" xlink:title="Set all leds on all controllers to the given color/scale.">
<polygon fill="white" stroke="#666666" points="277,-57 158,-57 158,-38 277,-38 277,-57"/>
<text text-anchor="middle" x="217.5" y="-45" font-family="Helvetica,sans-Serif" font-size="10.00">CFastLED::showColor</text>
</a>
</g>
</g>
<!-- Node1&#45;&gt;Node7 -->
<g id="edge14_Node000001_Node000007" class="edge">
<title>Node1&#45;&gt;Node7</title>
<g id="a_edge14_Node000001_Node000007"><a xlink:title=" ">
<path fill="none" stroke="#63b8ff" d="M509.85,-111.23C493.69,-95.78 469.99,-76.27 445,-66.5 390.98,-45.37 324.31,-42.24 277.34,-43.41"/>
<polygon fill="#63b8ff" stroke="#63b8ff" points="507.57,-113.9 517.15,-118.43 512.49,-108.92 507.57,-113.9"/>
</a>
</g>
</g>
<!-- Node12 -->
<g id="Node000012" class="node">
<title>Node12</title>
<g id="a_Node000012"><a xlink:href="../../dd/dbb/class_c_fast_l_e_d_aa48b30165c438b30b06d7edc964389f2.html#aa48b30165c438b30b06d7edc964389f2" target="_top" xlink:title="Set the dithering mode.">
<polygon fill="white" stroke="#666666" points="435.5,-19 322.5,-19 322.5,0 435.5,0 435.5,-19"/>
<text text-anchor="middle" x="379" y="-7" font-family="Helvetica,sans-Serif" font-size="10.00">CFastLED::setDither</text>
</a>
</g>
</g>
<!-- Node1&#45;&gt;Node12 -->
<g id="edge12_Node000001_Node000012" class="edge">
<title>Node1&#45;&gt;Node12</title>
<g id="a_edge12_Node000001_Node000012"><a xlink:title=" ">
<path fill="none" stroke="#63b8ff" d="M515.71,-109.54C500.29,-87.11 474.59,-54.05 445,-33.5 436.21,-27.39 425.67,-22.63 415.67,-19.02"/>
<polygon fill="#63b8ff" stroke="#63b8ff" points="513,-111.79 521.48,-118.15 518.81,-107.89 513,-111.79"/>
</a>
</g>
</g>
<!-- Node5&#45;&gt;Node6 -->
<g id="edge5_Node000005_Node000006" class="edge">
<title>Node5&#45;&gt;Node6</title>
<g id="a_edge5_Node000005_Node000006"><a xlink:title=" ">
<path fill="none" stroke="#63b8ff" d="M318.24,-106.61C296.68,-112.42 273.04,-118.8 254.19,-123.88"/>
<polygon fill="#63b8ff" stroke="#63b8ff" points="319.23,-109.97 327.97,-103.99 317.4,-103.21 319.23,-109.97"/>
</a>
</g>
</g>
<!-- Node5&#45;&gt;Node7 -->
<g id="edge6_Node000005_Node000007" class="edge">
<title>Node5&#45;&gt;Node7</title>
<g id="a_edge6_Node000005_Node000007"><a xlink:title=" ">
<path fill="none" stroke="#63b8ff" d="M318.24,-74.39C296.68,-68.58 273.04,-62.2 254.19,-57.12"/>
<polygon fill="#63b8ff" stroke="#63b8ff" points="317.4,-77.79 327.97,-77.01 319.23,-71.03 317.4,-77.79"/>
</a>
</g>
</g>
<!-- Node9 -->
<g id="Node000009" class="node">
<title>Node9</title>
<g id="a_Node000009"><a xlink:href="../../d8/da0/classfl_1_1_c_l_e_d_controller_a0fc5830eb1815a9268986bb46cb95972.html#a0fc5830eb1815a9268986bb46cb95972" target="_top" xlink:title=" ">
<polygon fill="white" stroke="#666666" points="268.5,-105.5 166.5,-105.5 166.5,-75.5 268.5,-75.5 268.5,-105.5"/>
<text text-anchor="start" x="174.5" y="-93.5" font-family="Helvetica,sans-Serif" font-size="10.00">fl::CLEDController</text>
<text text-anchor="middle" x="217.5" y="-82.5" font-family="Helvetica,sans-Serif" font-size="10.00">::showLeds</text>
</a>
</g>
</g>
<!-- Node5&#45;&gt;Node9 -->
<g id="edge8_Node000005_Node000009" class="edge">
<title>Node5&#45;&gt;Node9</title>
<g id="a_edge8_Node000005_Node000009"><a xlink:title=" ">
<path fill="none" stroke="#63b8ff" d="M317.55,-90.5C301.41,-90.5 284.15,-90.5 268.63,-90.5"/>
<polygon fill="#63b8ff" stroke="#63b8ff" points="317.97,-94 327.97,-90.5 317.97,-87 317.97,-94"/>
</a>
</g>
</g>
<!-- Node8 -->
<g id="Node000008" class="node">
<title>Node8</title>
<g id="a_Node000008"><a xlink:href="../../dd/dbb/class_c_fast_l_e_d_aeb7bd3e8f2dbced6284a2182191d5fcb.html#aeb7bd3e8f2dbced6284a2182191d5fcb" target="_top" xlink:title="Clear the leds, wiping the local array of data.">
<polygon fill="white" stroke="#666666" points="107,-57 15,-57 15,-38 107,-38 107,-57"/>
<text text-anchor="middle" x="61" y="-45" font-family="Helvetica,sans-Serif" font-size="10.00">CFastLED::clear</text>
</a>
</g>
</g>
<!-- Node7&#45;&gt;Node8 -->
<g id="edge7_Node000007_Node000008" class="edge">
<title>Node7&#45;&gt;Node8</title>
<g id="a_edge7_Node000007_Node000008"><a xlink:title=" ">
<path fill="none" stroke="#63b8ff" d="M147.34,-47.5C133.74,-47.5 119.8,-47.5 107.23,-47.5"/>
<polygon fill="#63b8ff" stroke="#63b8ff" points="147.65,-51 157.65,-47.5 147.65,-44 147.65,-51"/>
</a>
</g>
</g>
<!-- Node10 -->
<g id="Node000010" class="node">
<title>Node10</title>
<g id="a_Node000010"><a xlink:href="../../d8/da0/classfl_1_1_c_l_e_d_controller_aefe2d04448733f36909d1dab7c5cb3e3.html#aefe2d04448733f36909d1dab7c5cb3e3" target="_top" xlink:title="Clear out/zero out the given number of LEDs.">
<polygon fill="white" stroke="#666666" points="112,-105.5 10,-105.5 10,-75.5 112,-75.5 112,-105.5"/>
<text text-anchor="start" x="18" y="-93.5" font-family="Helvetica,sans-Serif" font-size="10.00">fl::CLEDController</text>
<text text-anchor="middle" x="61" y="-82.5" font-family="Helvetica,sans-Serif" font-size="10.00">::clearLeds</text>
</a>
</g>
</g>
<!-- Node9&#45;&gt;Node10 -->
<g id="edge9_Node000009_Node000010" class="edge">
<title>Node9&#45;&gt;Node10</title>
<g id="a_edge9_Node000009_Node000010"><a xlink:title=" ">
<path fill="none" stroke="#63b8ff" d="M155.96,-90.5C141.46,-90.5 126.14,-90.5 112.17,-90.5"/>
<polygon fill="#63b8ff" stroke="#63b8ff" points="156.34,-94 166.34,-90.5 156.34,-87 156.34,-94"/>
</a>
</g>
</g>
<!-- Node11 -->
<g id="Node000011" class="node">
<title>Node11</title>
<g id="a_Node000011"><a xlink:href="../../d5/d8b/classfl_1_1_channel_a56c6fceae41ac78584e120f7e01f7aff.html#a56c6fceae41ac78584e120f7e01f7aff" target="_top" xlink:title="Show the LEDs with optional brightness scaling.">
<polygon fill="white" stroke="#666666" points="122,-161 0,-161 0,-142 122,-142 122,-161"/>
<text text-anchor="middle" x="61" y="-149" font-family="Helvetica,sans-Serif" font-size="10.00">fl::Channel::showLeds</text>
</a>
</g>
</g>
<!-- Node9&#45;&gt;Node11 -->
<g id="edge11_Node000009_Node000011" class="edge">
<title>Node9&#45;&gt;Node11</title>
<g id="a_edge11_Node000009_Node000011"><a xlink:title=" ">
<path fill="none" stroke="#63b8ff" d="M171.31,-109.61C166.81,-111.58 162.31,-113.56 158,-115.5 141.86,-122.76 138.47,-126.04 122,-132.5 113.35,-135.89 103.84,-139.13 94.98,-141.93"/>
<polygon fill="#63b8ff" stroke="#63b8ff" points="172.73,-112.81 180.52,-105.63 169.95,-106.39 172.73,-112.81"/>
</a>
</g>
</g>
<!-- Node10&#45;&gt;Node10 -->
<g id="edge10_Node000010_Node000010" class="edge">
<title>Node10&#45;&gt;Node10</title>
<g id="a_edge10_Node000010_Node000010"><a xlink:title=" ">
<path fill="none" stroke="#63b8ff" d="M88.31,-116.1C84.57,-120.47 75.47,-123.5 61,-123.5 36.62,-123.5 27.48,-114.91 33.58,-105.78"/>
<polygon fill="#63b8ff" stroke="#63b8ff" points="91.81,-115.81 88.42,-105.78 84.81,-115.74 91.81,-115.81"/>
</a>
</g>
</g>
</g>
</svg>

<g id="navigator" transform="translate(0 0)" fill="#404254">
  <rect fill="#f2f5e9" fill-opacity="0.5" stroke="#606060" stroke-width=".5" x="0" y="0" width="60" height="60"/>
  <use id="zoomplus" xlink:href="#zoomPlus" x="17" y="9" onmousedown="handleZoom(evt,'in')"/>
  <use id="zoomminus" xlink:href="#zoomMin" x="42" y="9" onmousedown="handleZoom(evt,'out')"/>
  <use id="reset" xlink:href="#resetDef" x="30" y="36" onmousedown="handleReset()"/>
   <use id="arrowup" xlink:href="#arrowUp" x="0" y="0" onmousedown="handlePan(0,-1)"/>
  <use id="arrowright" xlink:href="#arrowRight" x="0" y="0" onmousedown="handlePan(1,0)"/>
  <use id="arrowdown" xlink:href="#arrowDown" x="0" y="0" onmousedown="handlePan(0,1)"/>
  <use id="arrowleft" xlink:href="#arrowLeft" x="0" y="0" onmousedown="handlePan(-1,0)"/>
</g>
<svg viewBox="0 0 15 15" width="100%" height="30px" preserveAspectRatio="xMaxYMin meet">
 <g id="arrow_out" transform="scale(0.3 0.3)">
  <a xlink:href="classfl_1_1_c_l_e_d_controller_a83f37ea29f9b1009fadddb18c50c30c2_a83f37ea29f9b1009fadddb18c50c30c2_icgraph_org.svg" target="_base">
   <rect id="button" ry="5" rx="5" y="6" x="6" height="38" width="38"
        fill="#f2f5e9" fill-opacity="0.5" stroke="#606060" stroke-width="1.0"/>
   <path id="arrow"
     d="M 11.500037,31.436501 C 11.940474,20.09759 22.043105,11.32322 32.158766,21.979434 L 37.068811,17.246167 C 37.068811,17.246167 37.088388,32 37.088388,32 L 22.160133,31.978069 C 22.160133,31.978069 26.997745,27.140456 26.997745,27.140456 C 18.528582,18.264221 13.291696,25.230495 11.500037,31.436501 z"
     style="fill:#404040;"/>
  </a>
 </g>
</svg>

<style type='text/css'>
<![CDATA[
[data-mouse-over-selected='false'] { opacity: 0.7; }
[data-mouse-over-selected='true']  { opacity: 1.0; }
]]>
</style>
<script type="application/ecmascript"><![CDATA[
document.addEventListener('DOMContentLoaded', (event) => {
  highlightEdges();
  highlightAdjacentNodes();
});
]]></script>
</svg>
