<?xml version="1.0" encoding="UTF-8" standalone="no"?>
<!DOCTYPE svg PUBLIC "-//W3C//DTD SVG 1.1//EN"
 "http://www.w3.org/Graphics/SVG/1.1/DTD/svg11.dtd">
<!-- Generated by graphviz version 2.43.0 (0)
 -->
<!-- Title: fl::Engine::run_default_oscillators Pages: 1 -->
<svg width="568pt" height="120pt"
 viewBox="0.00 0.00 568.00 120.00" xmlns="http://www.w3.org/2000/svg" xmlns:xlink="http://www.w3.org/1999/xlink">
<g id="graph0" class="graph" transform="scale(1 1) rotate(0) translate(4 116)">
<title>fl::Engine::run_default_oscillators</title>
<!-- Node1 -->
<g id="Node000001" class="node">
<title>Node1</title>
<g id="a_Node000001"><a xlink:title=" ">
<polygon fill="#999999" stroke="#666666" points="123,-80.5 0,-80.5 0,-50.5 123,-50.5 123,-80.5"/>
<text text-anchor="start" x="8" y="-68.5" font-family="Helvetica,sans-Serif" font-size="10.00">fl::Engine::run_default</text>
<text text-anchor="middle" x="61.5" y="-57.5" font-family="Helvetica,sans-Serif" font-size="10.00">_oscillators</text>
</a>
</g>
</g>
<!-- Node2 -->
<g id="Node000002" class="node">
<title>Node2</title>
<g id="a_Node000002"><a xlink:href="../../d5/d77/structfl_1_1_engine_ae507aa768643da6221936bc8902f484d.html#ae507aa768643da6221936bc8902f484d" target="_top" xlink:title=" ">
<polygon fill="white" stroke="#666666" points="283,-94 175,-94 175,-75 283,-75 283,-94"/>
<text text-anchor="middle" x="229" y="-82" font-family="Helvetica,sans-Serif" font-size="10.00">fl::Engine::getTime</text>
</a>
</g>
</g>
<!-- Node1&#45;&gt;Node2 -->
<g id="edge1_Node000001_Node000002" class="edge">
<title>Node1&#45;&gt;Node2</title>
<g id="a_edge1_Node000001_Node000002"><a xlink:title=" ">
<path fill="none" stroke="#63b8ff" d="M123.19,-72.47C136.71,-74.02 151.09,-75.67 164.72,-77.23"/>
<polygon fill="#63b8ff" stroke="#63b8ff" points="164.63,-80.75 174.97,-78.41 165.43,-73.79 164.63,-80.75"/>
</a>
</g>
</g>
<!-- Node4 -->
<g id="Node000004" class="node">
<title>Node4</title>
<g id="a_Node000004"><a xlink:href="../../d4/d36/namespacefl_a8e2924a60c9ef6ca659be941211a6372.html#a8e2924a60c9ef6ca659be941211a6372" target="_top" xlink:title=" ">
<polygon fill="white" stroke="#666666" points="299,-57 159,-57 159,-38 299,-38 299,-57"/>
<text text-anchor="middle" x="229" y="-45" font-family="Helvetica,sans-Serif" font-size="10.00">fl::run_default_oscillators</text>
</a>
</g>
</g>
<!-- Node1&#45;&gt;Node4 -->
<g id="edge4_Node000001_Node000004" class="edge">
<title>Node1&#45;&gt;Node4</title>
<g id="a_edge4_Node000001_Node000004"><a xlink:title=" ">
<path fill="none" stroke="#63b8ff" d="M123.19,-58.9C131.54,-57.99 140.22,-57.05 148.85,-56.11"/>
<polygon fill="#63b8ff" stroke="#63b8ff" points="149.36,-59.57 158.93,-55.01 148.61,-52.61 149.36,-59.57"/>
</a>
</g>
</g>
<!-- Node3 -->
<g id="Node000003" class="node">
<title>Node3</title>
<g id="a_Node000003"><a xlink:href="../../d4/d36/namespacefl_a335fa6e4af7f0a011997ea0137d49b5a.html#a335fa6e4af7f0a011997ea0137d49b5a" target="_top" xlink:title="Universal millisecond timer &#45; returns milliseconds since system startup.">
<polygon fill="white" stroke="#666666" points="427,-94 371,-94 371,-75 427,-75 427,-94"/>
<text text-anchor="middle" x="399" y="-82" font-family="Helvetica,sans-Serif" font-size="10.00">fl::millis</text>
</a>
</g>
</g>
<!-- Node2&#45;&gt;Node3 -->
<g id="edge2_Node000002_Node000003" class="edge">
<title>Node2&#45;&gt;Node3</title>
<g id="a_edge2_Node000002_Node000003"><a xlink:title=" ">
<path fill="none" stroke="#63b8ff" d="M283.16,-84.5C308.22,-84.5 337.53,-84.5 360.27,-84.5"/>
<polygon fill="#63b8ff" stroke="#63b8ff" points="360.54,-88 370.54,-84.5 360.54,-81 360.54,-88"/>
</a>
</g>
</g>
<!-- Node3&#45;&gt;Node3 -->
<g id="edge3_Node000003_Node000003" class="edge">
<title>Node3&#45;&gt;Node3</title>
<g id="a_edge3_Node000003_Node000003"><a xlink:title=" ">
<path fill="none" stroke="#63b8ff" d="M378.96,-94.08C369.22,-102.73 375.89,-112 399,-112 413.8,-112 421.86,-108.2 423.18,-103.19"/>
<polygon fill="#63b8ff" stroke="#63b8ff" points="426.36,-101.73 419.04,-94.08 419.99,-104.63 426.36,-101.73"/>
</a>
</g>
</g>
<!-- Node5 -->
<g id="Node000005" class="node">
<title>Node5</title>
<g id="a_Node000005"><a xlink:href="../../d4/d36/namespacefl_a3e7a8e90bb943adffdce5492a6e38f7b.html#a3e7a8e90bb943adffdce5492a6e38f7b" target="_top" xlink:title=" ">
<polygon fill="white" stroke="#666666" points="463,-57 335,-57 335,-38 463,-38 463,-57"/>
<text text-anchor="middle" x="399" y="-45" font-family="Helvetica,sans-Serif" font-size="10.00">fl::calculate_oscillators</text>
</a>
</g>
</g>
<!-- Node4&#45;&gt;Node5 -->
<g id="edge5_Node000004_Node000005" class="edge">
<title>Node4&#45;&gt;Node5</title>
<g id="a_edge5_Node000004_Node000005"><a xlink:title=" ">
<path fill="none" stroke="#63b8ff" d="M299.3,-47.5C307.66,-47.5 316.21,-47.5 324.62,-47.5"/>
<polygon fill="#63b8ff" stroke="#63b8ff" points="324.78,-51 334.78,-47.5 324.78,-44 324.78,-51"/>
</a>
</g>
</g>
<!-- Node10 -->
<g id="Node000010" class="node">
<title>Node10</title>
<g id="a_Node000010"><a xlink:href="../../d4/d36/namespacefl_a03eeb690d9582a74cb2e4a1f5a806e80.html#a03eeb690d9582a74cb2e4a1f5a806e80" target="_top" xlink:title=" ">
<polygon fill="white" stroke="#666666" points="557.5,-19 501.5,-19 501.5,0 557.5,0 557.5,-19"/>
<text text-anchor="middle" x="529.5" y="-7" font-family="Helvetica,sans-Serif" font-size="10.00">fl::move</text>
</a>
</g>
</g>
<!-- Node4&#45;&gt;Node10 -->
<g id="edge9_Node000004_Node000010" class="edge">
<title>Node4&#45;&gt;Node10</title>
<g id="a_edge9_Node000004_Node000010"><a xlink:title=" ">
<path fill="none" stroke="#63b8ff" d="M277.96,-37.98C295.81,-34.65 316.29,-31.11 335,-28.5 389.09,-20.96 452.1,-15.36 491.15,-12.26"/>
<polygon fill="#63b8ff" stroke="#63b8ff" points="491.8,-15.72 501.5,-11.46 491.26,-8.74 491.8,-15.72"/>
</a>
</g>
</g>
<!-- Node6 -->
<g id="Node000006" class="node">
<title>Node6</title>
<g id="a_Node000006"><a xlink:href="../../d4/d36/namespacefl_a82abb457c658bd2a01ace4c815407143.html#a82abb457c658bd2a01ace4c815407143" target="_top" xlink:title=" ">
<polygon fill="#fff0f0" stroke="red" points="558.5,-93 500.5,-93 500.5,-74 558.5,-74 558.5,-93"/>
<text text-anchor="middle" x="529.5" y="-81" font-family="Helvetica,sans-Serif" font-size="10.00">fl::fmodf</text>
</a>
</g>
</g>
<!-- Node5&#45;&gt;Node6 -->
<g id="edge6_Node000005_Node000006" class="edge">
<title>Node5&#45;&gt;Node6</title>
<g id="a_edge6_Node000005_Node000006"><a xlink:title=" ">
<path fill="none" stroke="#63b8ff" d="M434.1,-57.05C451.46,-61.92 472.62,-67.84 490.5,-72.85"/>
<polygon fill="#63b8ff" stroke="#63b8ff" points="489.75,-76.28 500.32,-75.61 491.64,-69.54 489.75,-76.28"/>
</a>
</g>
</g>
<!-- Node5&#45;&gt;Node10 -->
<g id="edge7_Node000005_Node000010" class="edge">
<title>Node5&#45;&gt;Node10</title>
<g id="a_edge7_Node000005_Node000010"><a xlink:title=" ">
<path fill="none" stroke="#63b8ff" d="M432.43,-37.91C450.45,-32.58 472.95,-25.93 491.64,-20.4"/>
<polygon fill="#63b8ff" stroke="#63b8ff" points="492.7,-23.74 501.3,-17.54 490.72,-17.02 492.7,-23.74"/>
</a>
</g>
</g>
<!-- Node11 -->
<g id="Node000011" class="node">
<title>Node11</title>
<g id="a_Node000011"><a xlink:href="../../d4/d36/namespacefl_ac14df5b3d038746df367fe64abaaa935.html#ac14df5b3d038746df367fe64abaaa935" target="_top" xlink:title=" ">
<polygon fill="#fff0f0" stroke="red" points="560,-56 499,-56 499,-37 560,-37 560,-56"/>
<text text-anchor="middle" x="529.5" y="-44" font-family="Helvetica,sans-Serif" font-size="10.00">fl::pnoise</text>
</a>
</g>
</g>
<!-- Node5&#45;&gt;Node11 -->
<g id="edge8_Node000005_Node000011" class="edge">
<title>Node5&#45;&gt;Node11</title>
<g id="a_edge8_Node000005_Node000011"><a xlink:title=" ">
<path fill="none" stroke="#63b8ff" d="M463.12,-47.01C471.77,-46.94 480.45,-46.87 488.52,-46.81"/>
<polygon fill="#63b8ff" stroke="#63b8ff" points="488.77,-50.31 498.74,-46.73 488.72,-43.31 488.77,-50.31"/>
</a>
</g>
</g>
</g>
</svg>
