<?xml version="1.0" encoding="UTF-8" standalone="no"?>
<!DOCTYPE svg PUBLIC "-//W3C//DTD SVG 1.1//EN"
 "http://www.w3.org/Graphics/SVG/1.1/DTD/svg11.dtd">
<!-- Generated by graphviz version 2.43.0 (0)
 -->
<!-- Title: fl::Engine::calculate_oscillators Pages: 1 -->
<svg width="525pt" height="212pt"
 viewBox="0.00 0.00 525.00 212.00" xmlns="http://www.w3.org/2000/svg" xmlns:xlink="http://www.w3.org/1999/xlink">
<g id="graph0" class="graph" transform="scale(1 1) rotate(0) translate(4 208)">
<title>fl::Engine::calculate_oscillators</title>
<!-- Node1 -->
<g id="Node000001" class="node">
<title>Node1</title>
<g id="a_Node000001"><a xlink:title=" ">
<polygon fill="#999999" stroke="#666666" points="112,-106.5 0,-106.5 0,-76.5 112,-76.5 112,-106.5"/>
<text text-anchor="start" x="8" y="-94.5" font-family="Helvetica,sans-Serif" font-size="10.00">fl::Engine::calculate</text>
<text text-anchor="middle" x="56" y="-83.5" font-family="Helvetica,sans-Serif" font-size="10.00">_oscillators</text>
</a>
</g>
</g>
<!-- Node2 -->
<g id="Node000002" class="node">
<title>Node2</title>
<g id="a_Node000002"><a xlink:href="../../d4/d36/namespacefl_a3e7a8e90bb943adffdce5492a6e38f7b.html#a3e7a8e90bb943adffdce5492a6e38f7b" target="_top" xlink:title=" ">
<polygon fill="white" stroke="#666666" points="276,-129 148,-129 148,-110 276,-110 276,-129"/>
<text text-anchor="middle" x="212" y="-117" font-family="Helvetica,sans-Serif" font-size="10.00">fl::calculate_oscillators</text>
</a>
</g>
</g>
<!-- Node1&#45;&gt;Node2 -->
<g id="edge1_Node000001_Node000002" class="edge">
<title>Node1&#45;&gt;Node2</title>
<g id="a_edge1_Node000001_Node000002"><a xlink:title=" ">
<path fill="none" stroke="#63b8ff" d="M112.16,-101.53C123.96,-103.67 136.51,-105.96 148.56,-108.15"/>
<polygon fill="#63b8ff" stroke="#63b8ff" points="148.07,-111.62 158.54,-109.96 149.33,-104.73 148.07,-111.62"/>
</a>
</g>
</g>
<!-- Node14 -->
<g id="Node000014" class="node">
<title>Node14</title>
<g id="a_Node000014"><a xlink:href="../../d5/d77/structfl_1_1_engine_ae507aa768643da6221936bc8902f484d.html#ae507aa768643da6221936bc8902f484d" target="_top" xlink:title=" ">
<polygon fill="white" stroke="#666666" points="266,-83 158,-83 158,-64 266,-64 266,-83"/>
<text text-anchor="middle" x="212" y="-71" font-family="Helvetica,sans-Serif" font-size="10.00">fl::Engine::getTime</text>
</a>
</g>
</g>
<!-- Node1&#45;&gt;Node14 -->
<g id="edge11_Node000001_Node000014" class="edge">
<title>Node1&#45;&gt;Node14</title>
<g id="a_edge11_Node000001_Node000014"><a xlink:title=" ">
<path fill="none" stroke="#63b8ff" d="M112.16,-85.05C123.64,-83.71 135.83,-82.29 147.58,-80.91"/>
<polygon fill="#63b8ff" stroke="#63b8ff" points="148.24,-84.36 157.77,-79.72 147.43,-77.41 148.24,-84.36"/>
</a>
</g>
</g>
<!-- Node3 -->
<g id="Node000003" class="node">
<title>Node3</title>
<g id="a_Node000003"><a xlink:href="../../d4/d36/namespacefl_a82abb457c658bd2a01ace4c815407143.html#a82abb457c658bd2a01ace4c815407143" target="_top" xlink:title=" ">
<polygon fill="white" stroke="#666666" points="371.5,-194 313.5,-194 313.5,-175 371.5,-175 371.5,-194"/>
<text text-anchor="middle" x="342.5" y="-182" font-family="Helvetica,sans-Serif" font-size="10.00">fl::fmodf</text>
</a>
</g>
</g>
<!-- Node2&#45;&gt;Node3 -->
<g id="edge2_Node000002_Node000003" class="edge">
<title>Node2&#45;&gt;Node3</title>
<g id="a_edge2_Node000002_Node000003"><a xlink:title=" ">
<path fill="none" stroke="#63b8ff" d="M231.96,-129.09C253.41,-139.94 288.56,-157.72 313.24,-170.21"/>
<polygon fill="#63b8ff" stroke="#63b8ff" points="311.96,-173.48 322.46,-174.87 315.12,-167.23 311.96,-173.48"/>
</a>
</g>
</g>
<!-- Node7 -->
<g id="Node000007" class="node">
<title>Node7</title>
<g id="a_Node000007"><a xlink:href="../../d4/d36/namespacefl_a03eeb690d9582a74cb2e4a1f5a806e80.html#a03eeb690d9582a74cb2e4a1f5a806e80" target="_top" xlink:title=" ">
<polygon fill="white" stroke="#666666" points="370.5,-148 314.5,-148 314.5,-129 370.5,-129 370.5,-148"/>
<text text-anchor="middle" x="342.5" y="-136" font-family="Helvetica,sans-Serif" font-size="10.00">fl::move</text>
</a>
</g>
</g>
<!-- Node2&#45;&gt;Node7 -->
<g id="edge4_Node000002_Node000007" class="edge">
<title>Node2&#45;&gt;Node7</title>
<g id="a_edge4_Node000002_Node000007"><a xlink:title=" ">
<path fill="none" stroke="#63b8ff" d="M276.12,-128.83C285.79,-130.26 295.5,-131.7 304.36,-133.01"/>
<polygon fill="#63b8ff" stroke="#63b8ff" points="303.92,-136.48 314.32,-134.48 304.94,-129.56 303.92,-136.48"/>
</a>
</g>
</g>
<!-- Node8 -->
<g id="Node000008" class="node">
<title>Node8</title>
<g id="a_Node000008"><a xlink:href="../../d4/d36/namespacefl_ac14df5b3d038746df367fe64abaaa935.html#ac14df5b3d038746df367fe64abaaa935" target="_top" xlink:title=" ">
<polygon fill="white" stroke="#666666" points="373,-111 312,-111 312,-92 373,-92 373,-111"/>
<text text-anchor="middle" x="342.5" y="-99" font-family="Helvetica,sans-Serif" font-size="10.00">fl::pnoise</text>
</a>
</g>
</g>
<!-- Node2&#45;&gt;Node8 -->
<g id="edge5_Node000002_Node000008" class="edge">
<title>Node2&#45;&gt;Node8</title>
<g id="a_edge5_Node000002_Node000008"><a xlink:title=" ">
<path fill="none" stroke="#63b8ff" d="M276.12,-110.66C284.87,-109.43 293.64,-108.2 301.8,-107.06"/>
<polygon fill="#63b8ff" stroke="#63b8ff" points="302.33,-110.52 311.74,-105.67 301.36,-103.59 302.33,-110.52"/>
</a>
</g>
</g>
<!-- Node4 -->
<g id="Node000004" class="node">
<title>Node4</title>
<g id="a_Node000004"><a xlink:href="../../d4/d36/namespacefl_a47ce5fc43140ea5a3a0700964e1552b6.html#a47ce5fc43140ea5a3a0700964e1552b6" target="_top" xlink:title=" ">
<polygon fill="#fff0f0" stroke="red" points="517,-204 409,-204 409,-185 517,-185 517,-204"/>
<text text-anchor="middle" x="463" y="-192" font-family="Helvetica,sans-Serif" font-size="10.00">fl::fmod_impl_float</text>
</a>
</g>
</g>
<!-- Node3&#45;&gt;Node4 -->
<g id="edge3_Node000003_Node000004" class="edge">
<title>Node3&#45;&gt;Node4</title>
<g id="a_edge3_Node000003_Node000004"><a xlink:title=" ">
<path fill="none" stroke="#63b8ff" d="M371.58,-186.87C379.73,-187.56 388.97,-188.34 398.35,-189.13"/>
<polygon fill="#63b8ff" stroke="#63b8ff" points="398.3,-192.64 408.55,-189.99 398.88,-185.66 398.3,-192.64"/>
</a>
</g>
</g>
<!-- Node9 -->
<g id="Node000009" class="node">
<title>Node9</title>
<g id="a_Node000009"><a xlink:href="../../d4/d36/namespacefl_a6532d8b65ffeae2b9129381290412769.html#a6532d8b65ffeae2b9129381290412769" target="_top" xlink:title=" ">
<polygon fill="white" stroke="#666666" points="488,-167 438,-167 438,-148 488,-148 488,-167"/>
<text text-anchor="middle" x="463" y="-155" font-family="Helvetica,sans-Serif" font-size="10.00">fl::fade</text>
</a>
</g>
</g>
<!-- Node8&#45;&gt;Node9 -->
<g id="edge6_Node000008_Node000009" class="edge">
<title>Node8&#45;&gt;Node9</title>
<g id="a_edge6_Node000008_Node000009"><a xlink:title=" ">
<path fill="none" stroke="#63b8ff" d="M358.14,-111.13C371.13,-119.39 390.81,-131.23 409,-139.5 415.04,-142.24 421.62,-144.8 428.04,-147.08"/>
<polygon fill="#63b8ff" stroke="#63b8ff" points="427.27,-150.52 437.87,-150.42 429.52,-143.89 427.27,-150.52"/>
</a>
</g>
</g>
<!-- Node10 -->
<g id="Node000010" class="node">
<title>Node10</title>
<g id="a_Node000010"><a xlink:href="../../d4/d36/namespacefl_a2e35dfe73de1a16365fb9ff78ad5230a.html#a2e35dfe73de1a16365fb9ff78ad5230a" target="_top" xlink:title=" ">
<polygon fill="#fff0f0" stroke="red" points="490,-130 436,-130 436,-111 490,-111 490,-130"/>
<text text-anchor="middle" x="463" y="-118" font-family="Helvetica,sans-Serif" font-size="10.00">fl::floorf</text>
</a>
</g>
</g>
<!-- Node8&#45;&gt;Node10 -->
<g id="edge7_Node000008_Node000010" class="edge">
<title>Node8&#45;&gt;Node10</title>
<g id="a_edge7_Node000008_Node000010"><a xlink:title=" ">
<path fill="none" stroke="#63b8ff" d="M373.1,-106.25C388.99,-108.79 408.72,-111.96 425.56,-114.66"/>
<polygon fill="#63b8ff" stroke="#63b8ff" points="425.18,-118.14 435.6,-116.27 426.28,-111.23 425.18,-118.14"/>
</a>
</g>
</g>
<!-- Node11 -->
<g id="Node000011" class="node">
<title>Node11</title>
<g id="a_Node000011"><a xlink:href="../../d4/d36/namespacefl_aca672c563badcf9e2ad222ecb87f53bc.html#aca672c563badcf9e2ad222ecb87f53bc" target="_top" xlink:title=" ">
<polygon fill="white" stroke="#666666" points="488,-93 438,-93 438,-74 488,-74 488,-93"/>
<text text-anchor="middle" x="463" y="-81" font-family="Helvetica,sans-Serif" font-size="10.00">fl::grad</text>
</a>
</g>
</g>
<!-- Node8&#45;&gt;Node11 -->
<g id="edge8_Node000008_Node000011" class="edge">
<title>Node8&#45;&gt;Node11</title>
<g id="a_edge8_Node000008_Node000011"><a xlink:title=" ">
<path fill="none" stroke="#63b8ff" d="M373.1,-97C389.67,-94.49 410.42,-91.33 427.71,-88.71"/>
<polygon fill="#63b8ff" stroke="#63b8ff" points="428.59,-92.12 437.95,-87.15 427.54,-85.19 428.59,-92.12"/>
</a>
</g>
</g>
<!-- Node12 -->
<g id="Node000012" class="node">
<title>Node12</title>
<g id="a_Node000012"><a xlink:href="../../d4/d36/namespacefl_afedf8c141bccc0f156238153a61fbb9f.html#afedf8c141bccc0f156238153a61fbb9f" target="_top" xlink:title=" ">
<polygon fill="white" stroke="#666666" points="486.5,-56 439.5,-56 439.5,-37 486.5,-37 486.5,-56"/>
<text text-anchor="middle" x="463" y="-44" font-family="Helvetica,sans-Serif" font-size="10.00">fl::lerp</text>
</a>
</g>
</g>
<!-- Node8&#45;&gt;Node12 -->
<g id="edge9_Node000008_Node000012" class="edge">
<title>Node8&#45;&gt;Node12</title>
<g id="a_edge9_Node000008_Node000012"><a xlink:title=" ">
<path fill="none" stroke="#63b8ff" d="M359.29,-91.9C372.34,-84.19 391.49,-73.39 409,-65.5 415.53,-62.56 422.66,-59.75 429.51,-57.23"/>
<polygon fill="#63b8ff" stroke="#63b8ff" points="431,-60.41 439.25,-53.77 428.66,-53.82 431,-60.41"/>
</a>
</g>
</g>
<!-- Node13 -->
<g id="Node000013" class="node">
<title>Node13</title>
<g id="a_Node000013"><a xlink:href="../../d4/d36/namespacefl_a715b655d8ee6017d3c827c5de110d59e.html#a715b655d8ee6017d3c827c5de110d59e" target="_top" xlink:title=" ">
<polygon fill="white" stroke="#666666" points="480.5,-19 445.5,-19 445.5,0 480.5,0 480.5,-19"/>
<text text-anchor="middle" x="463" y="-7" font-family="Helvetica,sans-Serif" font-size="10.00">fl::P</text>
</a>
</g>
</g>
<!-- Node8&#45;&gt;Node13 -->
<g id="edge10_Node000008_Node000013" class="edge">
<title>Node8&#45;&gt;Node13</title>
<g id="a_edge10_Node000008_Node000013"><a xlink:title=" ">
<path fill="none" stroke="#63b8ff" d="M362.21,-91.85C366.02,-89.42 369.82,-86.6 373,-83.5 394.17,-62.83 385.69,-45.72 409,-27.5 416.68,-21.5 426.47,-17.44 435.54,-14.72"/>
<polygon fill="#63b8ff" stroke="#63b8ff" points="436.53,-18.08 445.33,-12.18 434.78,-11.3 436.53,-18.08"/>
</a>
</g>
</g>
<!-- Node15 -->
<g id="Node000015" class="node">
<title>Node15</title>
<g id="a_Node000015"><a xlink:href="../../d4/d36/namespacefl_a335fa6e4af7f0a011997ea0137d49b5a.html#a335fa6e4af7f0a011997ea0137d49b5a" target="_top" xlink:title="Universal millisecond timer &#45; returns milliseconds since system startup.">
<polygon fill="white" stroke="#666666" points="370.5,-56 314.5,-56 314.5,-37 370.5,-37 370.5,-56"/>
<text text-anchor="middle" x="342.5" y="-44" font-family="Helvetica,sans-Serif" font-size="10.00">fl::millis</text>
</a>
</g>
</g>
<!-- Node14&#45;&gt;Node15 -->
<g id="edge12_Node000014_Node000015" class="edge">
<title>Node14&#45;&gt;Node15</title>
<g id="a_edge12_Node000014_Node000015"><a xlink:title=" ">
<path fill="none" stroke="#63b8ff" d="M258.3,-63.98C273.31,-60.83 289.82,-57.36 304.15,-54.35"/>
<polygon fill="#63b8ff" stroke="#63b8ff" points="305.09,-57.73 314.15,-52.25 303.65,-50.88 305.09,-57.73"/>
</a>
</g>
</g>
<!-- Node15&#45;&gt;Node15 -->
<g id="edge13_Node000015_Node000015" class="edge">
<title>Node15&#45;&gt;Node15</title>
<g id="a_edge13_Node000015_Node000015"><a xlink:title=" ">
<path fill="none" stroke="#63b8ff" d="M324,-56.08C315.01,-64.73 321.17,-74 342.5,-74 355.83,-74 363.24,-70.38 364.72,-65.55"/>
<polygon fill="#63b8ff" stroke="#63b8ff" points="367.91,-64.11 361,-56.08 361.4,-66.67 367.91,-64.11"/>
</a>
</g>
</g>
</g>
</svg>
