<?xml version="1.0" encoding="UTF-8" standalone="no"?>
<!DOCTYPE svg PUBLIC "-//W3C//DTD SVG 1.1//EN"
 "http://www.w3.org/Graphics/SVG/1.1/DTD/svg11.dtd">
<!-- Generated by graphviz version 2.43.0 (0)
 -->
<!-- Title: fl::RxChannel Pages: 1 -->
<!--zoomable 215 -->

<svg id="main" version="1.1" xmlns="http://www.w3.org/2000/svg" xmlns:xlink="http://www.w3.org/1999/xlink" xml:space="preserve" onload="init(evt)">

<style type="text/css"><![CDATA[
.node, .edge {opacity: 0.7;}
.node.selected, .edge.selected {opacity: 1;}
.edge:hover path { stroke: red; }
.edge:hover polygon { stroke: red; fill: red; }
]]></style>

<defs>
  <circle id="rim" cx="0" cy="0" r="7"/>
  <circle id="rim2" cx="0" cy="0" r="3.5"/>
  <g id="zoomPlus">
    <use xlink:href="#rim" fill="#404040"><set attributeName="fill" to="#808080" begin="zoomplus.mouseover" end="zoomplus.mouseout"/></use>
    <path d="M-4,0h8M0,-4v8" fill="none" stroke="white" stroke-width="1.5" pointer-events="none"/>
  </g>
  <g id="zoomMin">
    <use xlink:href="#rim" fill="#404040"><set attributeName="fill" to="#808080" begin="zoomminus.mouseover" end="zoomminus.mouseout"/></use>
    <path d="M-4,0h8" fill="none" stroke="white" stroke-width="1.5" pointer-events="none"/>
  </g>
  <g id="arrowUp" transform="translate(30 24)">
    <use xlink:href="#rim"/>
    <path pointer-events="none" fill="none" stroke="white" stroke-width="1.5" d="M0,-3.0v7 M-2.5,-0.5L0,-3.0L2.5,-0.5"/>
  </g>
  <g id="arrowRight" transform="rotate(90) translate(36 -43)">
    <use xlink:href="#rim"/>
    <path pointer-events="none" fill="none" stroke="white" stroke-width="1.5" d="M0,-3.0v7 M-2.5,-0.5L0,-3.0L2.5,-0.5"/>
  </g>
  <g id="arrowDown" transform="rotate(180) translate(-30 -48)">
    <use xlink:href="#rim"/>
    <path pointer-events="none" fill="none" stroke="white" stroke-width="1.5" d="M0,-3.0v7 M-2.5,-0.5L0,-3.0L2.5,-0.5"/>
  </g>
  <g id="arrowLeft" transform="rotate(270) translate(-36 17)">
    <use xlink:href="#rim"/>
    <path pointer-events="none" fill="none" stroke="white" stroke-width="1.5" d="M0,-3.0v7 M-2.5,-0.5L0,-3.0L2.5,-0.5"/>
  </g>
  <g id="resetDef">
    <use xlink:href="#rim2" fill="#404040"><set attributeName="fill" to="#808080" begin="reset.mouseover" end="reset.mouseout"/></use>
  </g>
</defs>
<script type="application/ecmascript">
var viewWidth = 1164;
var viewHeight = 215;
var sectionId = 'dynsection-0';
</script>
<script type="application/ecmascript" xlink:href="../../svg.min.js"/>
<svg id="graph" class="graph">
<g id="viewport">
<title>fl::RxChannel</title>
<!-- Node1 -->
<g id="Node000001" class="node">
<title>Node1</title>
<g id="a_Node000001"><a xlink:title=" ">
<polygon fill="#999999" stroke="#666666" points="1156,-127 1075,-127 1075,-108 1156,-108 1156,-127"/>
<text text-anchor="middle" x="1115.5" y="-115" font-family="Helvetica,sans-Serif" font-size="10.00">fl::RxChannel</text>
</a>
</g>
</g>
<!-- Node2 -->
<g id="Node000002" class="node">
<title>Node2</title>
<g id="a_Node000002"><a xlink:href="../../d2/db2/classfl_1_1string.html" target="_top" xlink:title=" ">
<polygon fill="white" stroke="#666666" points="732,-151 676,-151 676,-132 732,-132 732,-151"/>
<text text-anchor="middle" x="704" y="-139" font-family="Helvetica,sans-Serif" font-size="10.00">fl::string</text>
</a>
</g>
</g>
<!-- Node2&#45;&gt;Node1 -->
<g id="edge1_Node000001_Node000002" class="edge">
<title>Node2&#45;&gt;Node1</title>
<g id="a_edge1_Node000001_Node000002"><a xlink:title=" ">
<path fill="none" stroke="#9a32cd" stroke-dasharray="5,2" d="M742.61,-138.08C778.03,-134.96 832.58,-130.41 880,-127.5 948.33,-123.31 1027.97,-120.31 1074.64,-118.75"/>
<polygon fill="#9a32cd" stroke="#9a32cd" points="741.91,-134.63 732.26,-139 742.53,-141.61 741.91,-134.63"/>
</a>
</g>
<text text-anchor="middle" x="936" y="-130.5" font-family="Helvetica,sans-Serif" font-size="10.00" fill="grey"> mName</text>
</g>
<!-- Node6 -->
<g id="Node000006" class="node">
<title>Node6</title>
<g id="a_Node000006"><a xlink:href="../../d0/ddd/structfl_1_1_rx_channel_config.html" target="_top" xlink:title=" ">
<polygon fill="white" stroke="#666666" points="992,-166 880,-166 880,-147 992,-147 992,-166"/>
<text text-anchor="middle" x="936" y="-154" font-family="Helvetica,sans-Serif" font-size="10.00">fl::RxChannelConfig</text>
</a>
</g>
</g>
<!-- Node2&#45;&gt;Node6 -->
<g id="edge7_Node000006_Node000002" class="edge">
<title>Node2&#45;&gt;Node6</title>
<g id="a_edge7_Node000006_Node000002"><a xlink:title=" ">
<path fill="none" stroke="#9a32cd" stroke-dasharray="5,2" d="M742.41,-143.83C774.22,-145.83 821.11,-148.8 862,-151.5 867.83,-151.89 873.92,-152.29 879.99,-152.7"/>
<polygon fill="#9a32cd" stroke="#9a32cd" points="742.43,-140.33 732.23,-143.19 741.99,-147.31 742.43,-140.33"/>
</a>
</g>
<text text-anchor="middle" x="819.5" y="-165.5" font-family="Helvetica,sans-Serif" font-size="10.00" fill="grey"> affinity</text>
<text text-anchor="middle" x="819.5" y="-154.5" font-family="Helvetica,sans-Serif" font-size="10.00" fill="grey">name</text>
</g>
<!-- Node3 -->
<g id="Node000003" class="node">
<title>Node3</title>
<g id="a_Node000003"><a xlink:href="../../d6/d2d/classfl_1_1string__n.html" target="_top" xlink:title=" ">
<polygon fill="white" stroke="#666666" points="524.5,-156.5 400.5,-156.5 400.5,-126.5 524.5,-126.5 524.5,-156.5"/>
<text text-anchor="start" x="408.5" y="-144.5" font-family="Helvetica,sans-Serif" font-size="10.00">fl::string_n&lt; FASTLED</text>
<text text-anchor="middle" x="462.5" y="-133.5" font-family="Helvetica,sans-Serif" font-size="10.00">_STR_INLINED_SIZE &gt;</text>
</a>
</g>
</g>
<!-- Node3&#45;&gt;Node2 -->
<g id="edge2_Node000002_Node000003" class="edge">
<title>Node3&#45;&gt;Node2</title>
<g id="a_edge2_Node000002_Node000003"><a xlink:title=" ">
<path fill="none" stroke="#63b8ff" d="M534.79,-141.5C582.23,-141.5 641.88,-141.5 675.9,-141.5"/>
<polygon fill="#63b8ff" stroke="#63b8ff" points="534.56,-138 524.56,-141.5 534.56,-145 534.56,-138"/>
</a>
</g>
</g>
<!-- Node4 -->
<g id="Node000004" class="node">
<title>Node4</title>
<g id="a_Node000004"><a xlink:href="../../de/d66/classfl_1_1basic__string.html" target="_top" xlink:title="Concrete type&#45;erased string class.">
<polygon fill="white" stroke="#666666" points="87,-151 0,-151 0,-132 87,-132 87,-151"/>
<text text-anchor="middle" x="43.5" y="-139" font-family="Helvetica,sans-Serif" font-size="10.00">fl::basic_string</text>
</a>
</g>
</g>
<!-- Node4&#45;&gt;Node3 -->
<g id="edge3_Node000003_Node000004" class="edge">
<title>Node4&#45;&gt;Node3</title>
<g id="a_edge3_Node000003_Node000004"><a xlink:title=" ">
<path fill="none" stroke="#63b8ff" d="M97.26,-146.12C99.87,-146.27 102.47,-146.4 105,-146.5 222.68,-151.35 252.27,-149.71 370,-146.5 379.86,-146.23 390.31,-145.8 400.49,-145.3"/>
<polygon fill="#63b8ff" stroke="#63b8ff" points="97.32,-142.61 87.11,-145.46 96.87,-149.6 97.32,-142.61"/>
</a>
</g>
</g>
<!-- Node5 -->
<g id="Node000005" class="node">
<title>Node5</title>
<g id="a_Node000005"><a xlink:href="../../d6/d2d/classfl_1_1string__n.html" target="_top" xlink:title=" ">
<polygon fill="white" stroke="#666666" points="224,-132 126,-132 126,-113 224,-113 224,-132"/>
<text text-anchor="middle" x="175" y="-120" font-family="Helvetica,sans-Serif" font-size="10.00">fl::string_n&lt; N &gt;</text>
</a>
</g>
</g>
<!-- Node4&#45;&gt;Node5 -->
<g id="edge5_Node000005_Node000004" class="edge">
<title>Node4&#45;&gt;Node5</title>
<g id="a_edge5_Node000005_Node000004"><a xlink:title=" ">
<path fill="none" stroke="#63b8ff" d="M97.34,-133.75C106.8,-132.36 116.6,-130.92 125.91,-129.56"/>
<polygon fill="#63b8ff" stroke="#63b8ff" points="96.65,-130.31 87.26,-135.23 97.66,-137.24 96.65,-130.31"/>
</a>
</g>
</g>
<!-- Node5&#45;&gt;Node3 -->
<g id="edge4_Node000003_Node000005" class="edge">
<title>Node5&#45;&gt;Node3</title>
<g id="a_edge4_Node000003_Node000005"><a xlink:title=" ">
<path fill="none" stroke="orange" stroke-dasharray="5,2" d="M234.38,-120.47C272.96,-119.78 324.61,-120.08 370,-124.5 379.81,-125.45 390.14,-126.92 400.18,-128.6"/>
<polygon fill="orange" stroke="orange" points="234.28,-116.97 224.36,-120.68 234.43,-123.97 234.28,-116.97"/>
</a>
</g>
<text text-anchor="start" x="244" y="-138.5" font-family="Helvetica,sans-Serif" font-size="10.00" fill="grey"> &lt; FASTLED_STR_INLINED</text>
<text text-anchor="middle" x="307" y="-127.5" font-family="Helvetica,sans-Serif" font-size="10.00" fill="grey">_SIZE &gt;</text>
</g>
<!-- Node6&#45;&gt;Node1 -->
<g id="edge6_Node000001_Node000006" class="edge">
<title>Node6&#45;&gt;Node1</title>
<g id="a_edge6_Node000001_Node000006"><a xlink:title=" ">
<path fill="none" stroke="#9a32cd" stroke-dasharray="5,2" d="M994.49,-144.93C1014.33,-140.83 1036.67,-136.09 1057,-131.5 1063.21,-130.1 1069.79,-128.55 1076.19,-127.02"/>
<polygon fill="#9a32cd" stroke="#9a32cd" points="993.76,-141.51 984.67,-146.95 995.17,-148.36 993.76,-141.51"/>
</a>
</g>
<text text-anchor="middle" x="1033.5" y="-144.5" font-family="Helvetica,sans-Serif" font-size="10.00" fill="grey"> mConfig</text>
</g>
<!-- Node7 -->
<g id="Node000007" class="node">
<title>Node7</title>
<g id="a_Node000007"><a xlink:href="../../dd/dd8/classfl_1_1_optional.html" target="_top" xlink:title=" ">
<polygon fill="white" stroke="#666666" points="759,-205 649,-205 649,-186 759,-186 759,-205"/>
<text text-anchor="middle" x="704" y="-193" font-family="Helvetica,sans-Serif" font-size="10.00">fl::Optional&lt; u32 &gt;</text>
</a>
</g>
</g>
<!-- Node7&#45;&gt;Node6 -->
<g id="edge8_Node000006_Node000007" class="edge">
<title>Node7&#45;&gt;Node6</title>
<g id="a_edge8_Node000006_Node000007"><a xlink:title=" ">
<path fill="none" stroke="#9a32cd" stroke-dasharray="5,2" d="M769.55,-187.78C797.99,-184.04 831.76,-179.13 862,-173.5 873.39,-171.38 885.68,-168.68 896.87,-166.06"/>
<polygon fill="#9a32cd" stroke="#9a32cd" points="768.79,-184.35 759.33,-189.1 769.69,-191.29 768.79,-184.35"/>
</a>
</g>
<text text-anchor="middle" x="819.5" y="-188.5" font-family="Helvetica,sans-Serif" font-size="10.00" fill="grey"> hz</text>
</g>
<!-- Node8 -->
<g id="Node000008" class="node">
<title>Node8</title>
<g id="a_Node000008"><a xlink:href="../../dd/dd8/classfl_1_1_optional.html" target="_top" xlink:title=" ">
<polygon fill="white" stroke="#666666" points="511.5,-205 413.5,-205 413.5,-186 511.5,-186 511.5,-205"/>
<text text-anchor="middle" x="462.5" y="-193" font-family="Helvetica,sans-Serif" font-size="10.00">fl::Optional&lt; T &gt;</text>
</a>
</g>
</g>
<!-- Node8&#45;&gt;Node7 -->
<g id="edge9_Node000007_Node000008" class="edge">
<title>Node8&#45;&gt;Node7</title>
<g id="a_edge9_Node000007_Node000008"><a xlink:title=" ">
<path fill="none" stroke="orange" stroke-dasharray="5,2" d="M521.74,-195.5C560.4,-195.5 610.79,-195.5 648.63,-195.5"/>
<polygon fill="orange" stroke="orange" points="521.68,-192 511.68,-195.5 521.68,-199 521.68,-192"/>
</a>
</g>
<text text-anchor="middle" x="593" y="-198.5" font-family="Helvetica,sans-Serif" font-size="10.00" fill="grey"> &lt; u32 &gt;</text>
</g>
<!-- Node9 -->
<g id="Node000009" class="node">
<title>Node9</title>
<g id="a_Node000009"><a xlink:href="../../d1/d74/classfl_1_1shared__ptr.html" target="_top" xlink:title=" ">
<polygon fill="white" stroke="#666666" points="985,-77.5 887,-77.5 887,-47.5 985,-47.5 985,-77.5"/>
<text text-anchor="start" x="895" y="-65.5" font-family="Helvetica,sans-Serif" font-size="10.00">fl::shared_ptr&lt; fl</text>
<text text-anchor="middle" x="936" y="-54.5" font-family="Helvetica,sans-Serif" font-size="10.00">::RxDevice &gt;</text>
</a>
</g>
</g>
<!-- Node9&#45;&gt;Node1 -->
<g id="edge10_Node000001_Node000009" class="edge">
<title>Node9&#45;&gt;Node1</title>
<g id="a_edge10_Node000001_Node000009"><a xlink:title=" ">
<path fill="none" stroke="#9a32cd" stroke-dasharray="5,2" d="M994.97,-74.95C1014.84,-79.75 1037.08,-85.73 1057,-92.5 1069.88,-96.88 1083.89,-102.94 1094.86,-108"/>
<polygon fill="#9a32cd" stroke="#9a32cd" points="995.66,-71.51 985.12,-72.61 994.04,-78.32 995.66,-71.51"/>
</a>
</g>
<text text-anchor="middle" x="1033.5" y="-95.5" font-family="Helvetica,sans-Serif" font-size="10.00" fill="grey"> mDevice</text>
</g>
<!-- Node10 -->
<g id="Node000010" class="node">
<title>Node10</title>
<g id="a_Node000010"><a xlink:href="../../d2/df6/classfl_1_1_rx_device.html" target="_top" xlink:title="Common interface for RX devices.">
<polygon fill="white" stroke="#666666" points="741.5,-104 666.5,-104 666.5,-85 741.5,-85 741.5,-104"/>
<text text-anchor="middle" x="704" y="-92" font-family="Helvetica,sans-Serif" font-size="10.00">fl::RxDevice</text>
</a>
</g>
</g>
<!-- Node10&#45;&gt;Node9 -->
<g id="edge11_Node000009_Node000010" class="edge">
<title>Node10&#45;&gt;Node9</title>
<g id="a_edge11_Node000009_Node000010"><a xlink:title=" ">
<path fill="none" stroke="#9a32cd" stroke-dasharray="5,2" d="M751.82,-87.99C791.15,-82.51 847.13,-74.73 886.84,-69.2"/>
<polygon fill="#9a32cd" stroke="#9a32cd" points="751.12,-84.55 741.7,-89.39 752.09,-91.48 751.12,-84.55"/>
</a>
</g>
<text text-anchor="middle" x="819.5" y="-86.5" font-family="Helvetica,sans-Serif" font-size="10.00" fill="grey"> mPtr</text>
</g>
<!-- Node11 -->
<g id="Node000011" class="node">
<title>Node11</title>
<g id="a_Node000011"><a xlink:href="../../d4/dc0/structfl_1_1detail_1_1_control_block_base.html" target="_top" xlink:title=" ">
<polygon fill="white" stroke="#666666" points="537,-47 388,-47 388,-28 537,-28 537,-47"/>
<text text-anchor="middle" x="462.5" y="-35" font-family="Helvetica,sans-Serif" font-size="10.00">fl::detail::ControlBlockBase</text>
</a>
</g>
</g>
<!-- Node11&#45;&gt;Node9 -->
<g id="edge12_Node000009_Node000011" class="edge">
<title>Node11&#45;&gt;Node9</title>
<g id="a_edge12_Node000009_Node000011"><a xlink:title=" ">
<path fill="none" stroke="#9a32cd" stroke-dasharray="5,2" d="M547.43,-41.95C646.3,-47.19 807.18,-55.72 886.98,-59.95"/>
<polygon fill="#9a32cd" stroke="#9a32cd" points="547.34,-38.44 537.17,-41.41 546.97,-45.43 547.34,-38.44"/>
</a>
</g>
<text text-anchor="middle" x="704" y="-56.5" font-family="Helvetica,sans-Serif" font-size="10.00" fill="grey"> mControlBlock</text>
</g>
<!-- Node14 -->
<g id="Node000014" class="node">
<title>Node14</title>
<g id="a_Node000014"><a xlink:href="../../d1/d74/classfl_1_1shared__ptr.html" target="_top" xlink:title=" ">
<polygon fill="white" stroke="#666666" points="758.5,-19 649.5,-19 649.5,0 758.5,0 758.5,-19"/>
<text text-anchor="middle" x="704" y="-7" font-family="Helvetica,sans-Serif" font-size="10.00">fl::shared_ptr&lt; T &gt;</text>
</a>
</g>
</g>
<!-- Node11&#45;&gt;Node14 -->
<g id="edge15_Node000014_Node000011" class="edge">
<title>Node11&#45;&gt;Node14</title>
<g id="a_edge15_Node000014_Node000011"><a xlink:title=" ">
<path fill="none" stroke="#9a32cd" stroke-dasharray="5,2" d="M547.64,-27.66C581.39,-23.72 619.28,-19.29 649.2,-15.79"/>
<polygon fill="#9a32cd" stroke="#9a32cd" points="546.84,-24.23 537.31,-28.87 547.65,-31.19 546.84,-24.23"/>
</a>
</g>
<text text-anchor="middle" x="593" y="-29.5" font-family="Helvetica,sans-Serif" font-size="10.00" fill="grey"> mControlBlock</text>
</g>
<!-- Node12 -->
<g id="Node000012" class="node">
<title>Node12</title>
<g id="a_Node000012"><a xlink:href="../../da/d98/classfl_1_1_atomic_fake.html" target="_top" xlink:title=" ">
<polygon fill="#fff0f0" stroke="red" points="226,-52.5 124,-52.5 124,-22.5 226,-22.5 226,-52.5"/>
<text text-anchor="start" x="132" y="-40.5" font-family="Helvetica,sans-Serif" font-size="10.00">fl::AtomicFake&lt; fl</text>
<text text-anchor="middle" x="175" y="-29.5" font-family="Helvetica,sans-Serif" font-size="10.00">::u32 &gt;</text>
</a>
</g>
</g>
<!-- Node12&#45;&gt;Node11 -->
<g id="edge13_Node000011_Node000012" class="edge">
<title>Node12&#45;&gt;Node11</title>
<g id="a_edge13_Node000011_Node000012"><a xlink:title=" ">
<path fill="none" stroke="#9a32cd" stroke-dasharray="5,2" d="M236.09,-37.5C280.33,-37.5 340.72,-37.5 387.87,-37.5"/>
<polygon fill="#9a32cd" stroke="#9a32cd" points="236.06,-34 226.06,-37.5 236.06,-41 236.06,-34"/>
</a>
</g>
<text text-anchor="middle" x="307" y="-51.5" font-family="Helvetica,sans-Serif" font-size="10.00" fill="grey"> shared_count</text>
<text text-anchor="middle" x="307" y="-40.5" font-family="Helvetica,sans-Serif" font-size="10.00" fill="grey">weak_count</text>
</g>
<!-- Node14&#45;&gt;Node9 -->
<g id="edge14_Node000009_Node000014" class="edge">
<title>Node14&#45;&gt;Node9</title>
<g id="a_edge14_Node000009_Node000014"><a xlink:title=" ">
<path fill="none" stroke="orange" stroke-dasharray="5,2" d="M768.76,-13.94C797.61,-16.99 831.92,-22.08 862,-30.5 876.92,-34.68 892.76,-41.33 905.86,-47.48"/>
<polygon fill="orange" stroke="orange" points="769.1,-10.46 758.8,-12.95 768.4,-17.43 769.1,-10.46"/>
</a>
</g>
<text text-anchor="middle" x="819.5" y="-33.5" font-family="Helvetica,sans-Serif" font-size="10.00" fill="grey"> &lt; fl::RxDevice &gt;</text>
</g>
</g>
</svg>

<g id="navigator" transform="translate(0 0)" fill="#404254">
  <rect fill="#f2f5e9" fill-opacity="0.5" stroke="#606060" stroke-width=".5" x="0" y="0" width="60" height="60"/>
  <use id="zoomplus" xlink:href="#zoomPlus" x="17" y="9" onmousedown="handleZoom(evt,'in')"/>
  <use id="zoomminus" xlink:href="#zoomMin" x="42" y="9" onmousedown="handleZoom(evt,'out')"/>
  <use id="reset" xlink:href="#resetDef" x="30" y="36" onmousedown="handleReset()"/>
   <use id="arrowup" xlink:href="#arrowUp" x="0" y="0" onmousedown="handlePan(0,-1)"/>
  <use id="arrowright" xlink:href="#arrowRight" x="0" y="0" onmousedown="handlePan(1,0)"/>
  <use id="arrowdown" xlink:href="#arrowDown" x="0" y="0" onmousedown="handlePan(0,1)"/>
  <use id="arrowleft" xlink:href="#arrowLeft" x="0" y="0" onmousedown="handlePan(-1,0)"/>
</g>
<svg viewBox="0 0 15 15" width="100%" height="30px" preserveAspectRatio="xMaxYMin meet">
 <g id="arrow_out" transform="scale(0.3 0.3)">
  <a xlink:href="classfl_1_1_rx_channel__coll__graph_org.svg" target="_base">
   <rect id="button" ry="5" rx="5" y="6" x="6" height="38" width="38"
        fill="#f2f5e9" fill-opacity="0.5" stroke="#606060" stroke-width="1.0"/>
   <path id="arrow"
     d="M 11.500037,31.436501 C 11.940474,20.09759 22.043105,11.32322 32.158766,21.979434 L 37.068811,17.246167 C 37.068811,17.246167 37.088388,32 37.088388,32 L 22.160133,31.978069 C 22.160133,31.978069 26.997745,27.140456 26.997745,27.140456 C 18.528582,18.264221 13.291696,25.230495 11.500037,31.436501 z"
     style="fill:#404040;"/>
  </a>
 </g>
</svg>

<style type='text/css'>
<![CDATA[
[data-mouse-over-selected='false'] { opacity: 0.7; }
[data-mouse-over-selected='true']  { opacity: 1.0; }
]]>
</style>
<script type="application/ecmascript"><![CDATA[
document.addEventListener('DOMContentLoaded', (event) => {
  highlightEdges();
  highlightAdjacentNodes();
});
]]></script>
</svg>
