<?xml version="1.0" encoding="UTF-8" standalone="no"?>
<!DOCTYPE svg PUBLIC "-//W3C//DTD SVG 1.1//EN"
 "http://www.w3.org/Graphics/SVG/1.1/DTD/svg11.dtd">
<!-- Generated by graphviz version 2.43.0 (0)
 -->
<!-- Title: fl::third_party::TJpgInstanceDecoder::shouldYield Pages: 1 -->
<svg width="249pt" height="51pt"
 viewBox="0.00 0.00 249.00 50.50" xmlns="http://www.w3.org/2000/svg" xmlns:xlink="http://www.w3.org/1999/xlink">
<g id="graph0" class="graph" transform="scale(1 1) rotate(0) translate(4 46.5)">
<title>fl::third_party::TJpgInstanceDecoder::shouldYield</title>
<!-- Node1 -->
<g id="Node000001" class="node">
<title>Node1</title>
<g id="a_Node000001"><a xlink:title=" ">
<polygon fill="#999999" stroke="#666666" points="149,-30 0,-30 0,0 149,0 149,-30"/>
<text text-anchor="start" x="8" y="-18" font-family="Helvetica,sans-Serif" font-size="10.00">fl::third_party::TJpgInstance</text>
<text text-anchor="middle" x="74.5" y="-7" font-family="Helvetica,sans-Serif" font-size="10.00">Decoder::shouldYield</text>
</a>
</g>
</g>
<!-- Node2 -->
<g id="Node000002" class="node">
<title>Node2</title>
<g id="a_Node000002"><a xlink:href="../../d4/d36/namespacefl_a335fa6e4af7f0a011997ea0137d49b5a.html#a335fa6e4af7f0a011997ea0137d49b5a" target="_top" xlink:title="Universal millisecond timer &#45; returns milliseconds since system startup.">
<polygon fill="white" stroke="#666666" points="241,-24.5 185,-24.5 185,-5.5 241,-5.5 241,-24.5"/>
<text text-anchor="middle" x="213" y="-12.5" font-family="Helvetica,sans-Serif" font-size="10.00">fl::millis</text>
</a>
</g>
</g>
<!-- Node1&#45;&gt;Node2 -->
<g id="edge1_Node000001_Node000002" class="edge">
<title>Node1&#45;&gt;Node2</title>
<g id="a_edge1_Node000001_Node000002"><a xlink:title=" ">
<path fill="none" stroke="#63b8ff" d="M149.34,-15C158.17,-15 166.86,-15 174.84,-15"/>
<polygon fill="#63b8ff" stroke="#63b8ff" points="174.86,-18.5 184.86,-15 174.86,-11.5 174.86,-18.5"/>
</a>
</g>
</g>
<!-- Node2&#45;&gt;Node2 -->
<g id="edge2_Node000002_Node000002" class="edge">
<title>Node2&#45;&gt;Node2</title>
<g id="a_edge2_Node000002_Node000002"><a xlink:title=" ">
<path fill="none" stroke="#63b8ff" d="M191.73,-24.58C181.38,-33.23 188.47,-42.5 213,-42.5 228.71,-42.5 237.27,-38.7 238.67,-33.69"/>
<polygon fill="#63b8ff" stroke="#63b8ff" points="241.77,-32.06 234.27,-24.58 235.47,-35.11 241.77,-32.06"/>
</a>
</g>
</g>
</g>
</svg>
