<?xml version="1.0" encoding="UTF-8" standalone="no"?>
<!DOCTYPE svg PUBLIC "-//W3C//DTD SVG 1.1//EN"
 "http://www.w3.org/Graphics/SVG/1.1/DTD/svg11.dtd">
<!-- Generated by graphviz version 2.43.0 (0)
 -->
<!-- Title: fl/xypath.h Pages: 1 -->
<svg width="1440pt" height="522pt"
 viewBox="0.00 0.00 1439.50 522.00" xmlns="http://www.w3.org/2000/svg" xmlns:xlink="http://www.w3.org/1999/xlink">
<g id="graph0" class="graph" transform="scale(1 1) rotate(0) translate(4 518)">
<title>fl/xypath.h</title>
<!-- Node1 -->
<g id="Node000001" class="node">
<title>Node1</title>
<g id="a_Node000001"><a xlink:title=" ">
<polygon fill="#999999" stroke="#666666" points="962,-514 894,-514 894,-495 962,-495 962,-514"/>
<text text-anchor="middle" x="928" y="-502" font-family="Helvetica,sans-Serif" font-size="10.00">fl/xypath.h</text>
</a>
</g>
</g>
<!-- Node2 -->
<g id="Node000002" class="node">
<title>Node2</title>
<g id="a_Node000002"><a xlink:href="../../dd/d67/function_8h.html" target="_top" xlink:title=" ">
<polygon fill="white" stroke="#666666" points="966,-239 892,-239 892,-220 966,-220 966,-239"/>
<text text-anchor="middle" x="929" y="-227" font-family="Helvetica,sans-Serif" font-size="10.00">fl/function.h</text>
</a>
</g>
</g>
<!-- Node1&#45;&gt;Node2 -->
<g id="edge1_Node000001_Node000002" class="edge">
<title>Node1&#45;&gt;Node2</title>
<g id="a_edge1_Node000001_Node000002"><a xlink:title=" ">
<path fill="none" stroke="#63b8ff" d="M931.89,-494.74C939.59,-476.6 956,-433.46 956,-395.5 956,-395.5 956,-395.5 956,-338.5 956,-306.09 944.42,-269.81 936.42,-248.63"/>
<polygon fill="#63b8ff" stroke="#63b8ff" points="939.67,-247.3 932.75,-239.27 933.15,-249.86 939.67,-247.3"/>
</a>
</g>
</g>
<!-- Node3 -->
<g id="Node000003" class="node">
<title>Node3</title>
<g id="a_Node000003"><a xlink:href="../../dd/d98/ptr_8h.html" target="_top" xlink:title=" ">
<polygon fill="white" stroke="#666666" points="1017.5,-184 970.5,-184 970.5,-165 1017.5,-165 1017.5,-184"/>
<text text-anchor="middle" x="994" y="-172" font-family="Helvetica,sans-Serif" font-size="10.00">fl/ptr.h</text>
</a>
</g>
</g>
<!-- Node1&#45;&gt;Node3 -->
<g id="edge51_Node000001_Node000003" class="edge">
<title>Node1&#45;&gt;Node3</title>
<g id="a_edge51_Node000001_Node000003"><a xlink:title=" ">
<path fill="none" stroke="#63b8ff" d="M936.82,-494.83C944.78,-486.45 956.12,-472.98 962,-459 1001.15,-365.99 998.25,-241.47 995.44,-194.5"/>
<polygon fill="#63b8ff" stroke="#63b8ff" points="998.92,-194.03 994.75,-184.29 991.93,-194.5 998.92,-194.03"/>
</a>
</g>
</g>
<!-- Node10 -->
<g id="Node000010" class="node">
<title>Node10</title>
<g id="a_Node000010"><a xlink:href="../../da/d78/leds_8h.html" target="_top" xlink:title=" ">
<polygon fill="white" stroke="#666666" points="777.5,-404 722.5,-404 722.5,-385 777.5,-385 777.5,-404"/>
<text text-anchor="middle" x="750" y="-392" font-family="Helvetica,sans-Serif" font-size="10.00">fl/leds.h</text>
</a>
</g>
</g>
<!-- Node1&#45;&gt;Node10 -->
<g id="edge13_Node000001_Node000010" class="edge">
<title>Node1&#45;&gt;Node10</title>
<g id="a_edge13_Node000001_Node000010"><a xlink:title=" ">
<path fill="none" stroke="#63b8ff" d="M913.08,-494.92C897.7,-486.05 873.07,-471.73 852,-459 824.28,-442.26 792.68,-422.48 772.09,-409.49"/>
<polygon fill="#63b8ff" stroke="#63b8ff" points="773.78,-406.42 763.46,-404.04 770.04,-412.34 773.78,-406.42"/>
</a>
</g>
</g>
<!-- Node31 -->
<g id="Node000031" class="node">
<title>Node31</title>
<g id="a_Node000031"><a xlink:href="../../d3/d41/pair_8h.html" target="_top" xlink:title=" ">
<polygon fill="white" stroke="#666666" points="927.5,-459 874.5,-459 874.5,-440 927.5,-440 927.5,-459"/>
<text text-anchor="middle" x="901" y="-447" font-family="Helvetica,sans-Serif" font-size="10.00">fl/pair.h</text>
</a>
</g>
</g>
<!-- Node1&#45;&gt;Node31 -->
<g id="edge50_Node000001_Node000031" class="edge">
<title>Node1&#45;&gt;Node31</title>
<g id="a_edge50_Node000001_Node000031"><a xlink:title=" ">
<path fill="none" stroke="#63b8ff" d="M923.54,-494.75C919.88,-487.57 914.59,-477.18 910.05,-468.27"/>
<polygon fill="#63b8ff" stroke="#63b8ff" points="913.03,-466.41 905.38,-459.09 906.8,-469.59 913.03,-466.41"/>
</a>
</g>
</g>
<!-- Node32 -->
<g id="Node000032" class="node">
<title>Node32</title>
<g id="a_Node000032"><a xlink:href="../../d2/db4/tile2x2_8h.html" target="_top" xlink:title=" ">
<polygon fill="white" stroke="#666666" points="230,-404 162,-404 162,-385 230,-385 230,-404"/>
<text text-anchor="middle" x="196" y="-392" font-family="Helvetica,sans-Serif" font-size="10.00">fl/tile2x2.h</text>
</a>
</g>
</g>
<!-- Node1&#45;&gt;Node32 -->
<g id="edge52_Node000001_Node000032" class="edge">
<title>Node1&#45;&gt;Node32</title>
<g id="a_edge52_Node000001_Node000032"><a xlink:title=" ">
<path fill="none" stroke="#63b8ff" d="M893.78,-498.9C793.68,-485.37 492.79,-444.11 244,-404 242.73,-403.8 241.44,-403.59 240.14,-403.37"/>
<polygon fill="#63b8ff" stroke="#63b8ff" points="240.51,-399.88 230.07,-401.67 239.34,-406.78 240.51,-399.88"/>
</a>
</g>
</g>
<!-- Node34 -->
<g id="Node000034" class="node">
<title>Node34</title>
<g id="a_Node000034"><a xlink:href="../../d2/d80/transform_8h.html" target="_top" xlink:title=" ">
<polygon fill="white" stroke="#666666" points="887.5,-404 804.5,-404 804.5,-385 887.5,-385 887.5,-404"/>
<text text-anchor="middle" x="846" y="-392" font-family="Helvetica,sans-Serif" font-size="10.00">fl/transform.h</text>
</a>
</g>
</g>
<!-- Node1&#45;&gt;Node34 -->
<g id="edge62_Node000001_Node000034" class="edge">
<title>Node1&#45;&gt;Node34</title>
<g id="a_edge62_Node000001_Node000034"><a xlink:title=" ">
<path fill="none" stroke="#63b8ff" d="M909.71,-494.86C895.56,-487.28 876.49,-474.98 865,-459 855.45,-445.71 850.65,-427.6 848.26,-414.12"/>
<polygon fill="#63b8ff" stroke="#63b8ff" points="851.71,-413.47 846.78,-404.09 844.78,-414.49 851.71,-413.47"/>
</a>
</g>
</g>
<!-- Node35 -->
<g id="Node000035" class="node">
<title>Node35</title>
<g id="a_Node000035"><a xlink:href="../../d8/d5f/xypath__impls_8h.html" target="_top" xlink:title=" ">
<polygon fill="white" stroke="#666666" points="1196.5,-459 1095.5,-459 1095.5,-440 1196.5,-440 1196.5,-459"/>
<text text-anchor="middle" x="1146" y="-447" font-family="Helvetica,sans-Serif" font-size="10.00">fl/xypath_impls.h</text>
</a>
</g>
</g>
<!-- Node1&#45;&gt;Node35 -->
<g id="edge68_Node000001_Node000035" class="edge">
<title>Node1&#45;&gt;Node35</title>
<g id="a_edge68_Node000001_Node000035"><a xlink:title=" ">
<path fill="none" stroke="#63b8ff" d="M962.06,-495.22C999.46,-486.13 1059.65,-471.49 1100.93,-461.46"/>
<polygon fill="#63b8ff" stroke="#63b8ff" points="1101.84,-464.84 1110.73,-459.07 1100.19,-458.04 1101.84,-464.84"/>
</a>
</g>
</g>
<!-- Node40 -->
<g id="Node000040" class="node">
<title>Node40</title>
<g id="a_Node000040"><a xlink:href="../../d5/dd1/avr__disallowed_8h.html" target="_top" xlink:title=" ">
<polygon fill="white" stroke="#666666" points="1323,-459 1215,-459 1215,-440 1323,-440 1323,-459"/>
<text text-anchor="middle" x="1269" y="-447" font-family="Helvetica,sans-Serif" font-size="10.00">fl/avr_disallowed.h</text>
</a>
</g>
</g>
<!-- Node1&#45;&gt;Node40 -->
<g id="edge84_Node000001_Node000040" class="edge">
<title>Node1&#45;&gt;Node40</title>
<g id="a_edge84_Node000001_Node000040"><a xlink:title=" ">
<path fill="none" stroke="#63b8ff" d="M962.26,-498.18C1018.84,-489.38 1132.71,-471.68 1204.67,-460.5"/>
<polygon fill="#63b8ff" stroke="#63b8ff" points="1205.63,-463.89 1214.97,-458.9 1204.55,-456.97 1205.63,-463.89"/>
</a>
</g>
</g>
<!-- Node2&#45;&gt;Node3 -->
<g id="edge2_Node000002_Node000003" class="edge">
<title>Node2&#45;&gt;Node3</title>
<g id="a_edge2_Node000002_Node000003"><a xlink:title=" ">
<path fill="none" stroke="#63b8ff" d="M939.44,-219.98C949.15,-212.07 963.82,-200.11 975.5,-190.58"/>
<polygon fill="#63b8ff" stroke="#63b8ff" points="977.83,-193.2 983.37,-184.17 973.4,-187.78 977.83,-193.2"/>
</a>
</g>
</g>
<!-- Node8 -->
<g id="Node000008" class="node">
<title>Node8</title>
<g id="a_Node000008"><a xlink:href="../../d8/d0c/template__magic_8h.html" target="_top" xlink:title=" ">
<polygon fill="#fff0f0" stroke="red" points="1016,-129 902,-129 902,-110 1016,-110 1016,-129"/>
<text text-anchor="middle" x="959" y="-117" font-family="Helvetica,sans-Serif" font-size="10.00">fl/template_magic.h</text>
</a>
</g>
</g>
<!-- Node2&#45;&gt;Node8 -->
<g id="edge12_Node000002_Node000008" class="edge">
<title>Node2&#45;&gt;Node8</title>
<g id="a_edge12_Node000002_Node000008"><a xlink:title=" ">
<path fill="none" stroke="#63b8ff" d="M931.46,-219.66C936.34,-202.09 947.35,-162.45 953.87,-138.95"/>
<polygon fill="#63b8ff" stroke="#63b8ff" points="957.29,-139.73 956.59,-129.16 950.55,-137.86 957.29,-139.73"/>
</a>
</g>
</g>
<!-- Node4 -->
<g id="Node000004" class="node">
<title>Node4</title>
<g id="a_Node000004"><a xlink:title=" ">
<polygon fill="#e0e0e0" stroke="#999999" points="1182,-19 1126,-19 1126,0 1182,0 1182,-19"/>
<text text-anchor="middle" x="1154" y="-7" font-family="Helvetica,sans-Serif" font-size="10.00">stddef.h</text>
</a>
</g>
</g>
<!-- Node3&#45;&gt;Node4 -->
<g id="edge3_Node000003_Node000004" class="edge">
<title>Node3&#45;&gt;Node4</title>
<g id="a_edge3_Node000003_Node000004"><a xlink:title=" ">
<path fill="none" stroke="#63b8ff" d="M1017.83,-172.18C1068.32,-168.83 1183.35,-158.1 1207,-129 1232.92,-97.1 1195.01,-50.51 1171.06,-26.35"/>
<polygon fill="#63b8ff" stroke="#63b8ff" points="1173.19,-23.54 1163.58,-19.07 1168.31,-28.55 1173.19,-23.54"/>
</a>
</g>
</g>
<!-- Node5 -->
<g id="Node000005" class="node">
<title>Node5</title>
<g id="a_Node000005"><a xlink:href="../../df/d2a/namespace_8h.html" target="_top" xlink:title="Implements the FastLED namespace macros.">
<polygon fill="white" stroke="#666666" points="881.5,-74 790.5,-74 790.5,-55 881.5,-55 881.5,-74"/>
<text text-anchor="middle" x="836" y="-62" font-family="Helvetica,sans-Serif" font-size="10.00">fl/namespace.h</text>
</a>
</g>
</g>
<!-- Node3&#45;&gt;Node5 -->
<g id="edge4_Node000003_Node000005" class="edge">
<title>Node3&#45;&gt;Node5</title>
<g id="a_edge4_Node000003_Node000005"><a xlink:title=" ">
<path fill="none" stroke="#63b8ff" d="M1004.2,-164.61C1017.81,-151.67 1038.71,-127.31 1025,-110 1008.6,-89.29 941.46,-77.26 891.84,-71.05"/>
<polygon fill="#63b8ff" stroke="#63b8ff" points="892.21,-67.56 881.86,-69.84 891.37,-74.51 892.21,-67.56"/>
</a>
</g>
</g>
<!-- Node6 -->
<g id="Node000006" class="node">
<title>Node6</title>
<g id="a_Node000006"><a xlink:href="../../d0/d44/scoped__ptr_8h.html" target="_top" xlink:title=" ">
<polygon fill="white" stroke="#666666" points="1197.5,-129 1110.5,-129 1110.5,-110 1197.5,-110 1197.5,-129"/>
<text text-anchor="middle" x="1154" y="-117" font-family="Helvetica,sans-Serif" font-size="10.00">fl/scoped_ptr.h</text>
</a>
</g>
</g>
<!-- Node3&#45;&gt;Node6 -->
<g id="edge5_Node000003_Node000006" class="edge">
<title>Node3&#45;&gt;Node6</title>
<g id="a_edge5_Node000003_Node000006"><a xlink:title=" ">
<path fill="none" stroke="#63b8ff" d="M1017.61,-165.68C1044.16,-156.88 1087.58,-142.5 1118.29,-132.33"/>
<polygon fill="#63b8ff" stroke="#63b8ff" points="1119.78,-135.52 1128.17,-129.06 1117.58,-128.88 1119.78,-135.52"/>
</a>
</g>
</g>
<!-- Node3&#45;&gt;Node8 -->
<g id="edge11_Node000003_Node000008" class="edge">
<title>Node3&#45;&gt;Node8</title>
<g id="a_edge11_Node000003_Node000008"><a xlink:title=" ">
<path fill="none" stroke="#63b8ff" d="M988.22,-164.75C983.38,-157.42 976.32,-146.73 970.36,-137.7"/>
<polygon fill="#63b8ff" stroke="#63b8ff" points="973.1,-135.5 964.67,-129.09 967.26,-139.36 973.1,-135.5"/>
</a>
</g>
</g>
<!-- Node6&#45;&gt;Node4 -->
<g id="edge6_Node000006_Node000004" class="edge">
<title>Node6&#45;&gt;Node4</title>
<g id="a_edge6_Node000006_Node000004"><a xlink:title=" ">
<path fill="none" stroke="#63b8ff" d="M1154,-109.66C1154,-92.17 1154,-52.8 1154,-29.27"/>
<polygon fill="#63b8ff" stroke="#63b8ff" points="1157.5,-29.16 1154,-19.16 1150.5,-29.16 1157.5,-29.16"/>
</a>
</g>
</g>
<!-- Node6&#45;&gt;Node5 -->
<g id="edge10_Node000006_Node000005" class="edge">
<title>Node6&#45;&gt;Node5</title>
<g id="a_edge10_Node000006_Node000005"><a xlink:title=" ">
<path fill="none" stroke="#63b8ff" d="M1110.45,-111.24C1053.57,-101.76 953.92,-85.15 891.63,-74.77"/>
<polygon fill="#63b8ff" stroke="#63b8ff" points="892.03,-71.29 881.59,-73.1 890.88,-78.2 892.03,-71.29"/>
</a>
</g>
</g>
<!-- Node7 -->
<g id="Node000007" class="node">
<title>Node7</title>
<g id="a_Node000007"><a xlink:href="../../df/dd8/stdint_8h.html" target="_top" xlink:title=" ">
<polygon fill="white" stroke="#666666" points="447.5,-74 394.5,-74 394.5,-55 447.5,-55 447.5,-74"/>
<text text-anchor="middle" x="421" y="-62" font-family="Helvetica,sans-Serif" font-size="10.00">stdint.h</text>
</a>
</g>
</g>
<!-- Node6&#45;&gt;Node7 -->
<g id="edge7_Node000006_Node000007" class="edge">
<title>Node6&#45;&gt;Node7</title>
<g id="a_edge7_Node000006_Node000007"><a xlink:title=" ">
<path fill="none" stroke="#63b8ff" d="M1110.34,-115.34C977.67,-105.75 580.84,-77.06 457.79,-68.16"/>
<polygon fill="#63b8ff" stroke="#63b8ff" points="457.97,-64.66 447.75,-67.43 457.47,-71.65 457.97,-64.66"/>
</a>
</g>
</g>
<!-- Node7&#45;&gt;Node4 -->
<g id="edge8_Node000007_Node000004" class="edge">
<title>Node7&#45;&gt;Node4</title>
<g id="a_edge8_Node000007_Node000004"><a xlink:title=" ">
<path fill="none" stroke="#63b8ff" d="M447.52,-61.58C558.36,-53.57 984.85,-22.73 1115.64,-13.27"/>
<polygon fill="#63b8ff" stroke="#63b8ff" points="1116.23,-16.74 1125.96,-12.53 1115.73,-9.76 1116.23,-16.74"/>
</a>
</g>
</g>
<!-- Node7&#45;&gt;Node7 -->
<g id="edge9_Node000007_Node000007" class="edge">
<title>Node7&#45;&gt;Node7</title>
<g id="a_edge9_Node000007_Node000007"><a xlink:title=" ">
<path fill="none" stroke="#63b8ff" d="M442.06,-74.07C454.2,-76.02 465.5,-72.83 465.5,-64.5 465.5,-58.58 459.79,-55.25 452.12,-54.53"/>
<polygon fill="#63b8ff" stroke="#63b8ff" points="451.91,-51.03 442.06,-54.93 452.19,-58.03 451.91,-51.03"/>
</a>
</g>
</g>
<!-- Node11 -->
<g id="Node000011" class="node">
<title>Node11</title>
<g id="a_Node000011"><a xlink:href="../../db/dd1/crgb_8h.html" target="_top" xlink:title="Defines the red, green, and blue (RGB) pixel struct.">
<polygon fill="white" stroke="#666666" points="641.5,-184 594.5,-184 594.5,-165 641.5,-165 641.5,-184"/>
<text text-anchor="middle" x="618" y="-172" font-family="Helvetica,sans-Serif" font-size="10.00">crgb.h</text>
</a>
</g>
</g>
<!-- Node10&#45;&gt;Node11 -->
<g id="edge14_Node000010_Node000011" class="edge">
<title>Node10&#45;&gt;Node11</title>
<g id="a_edge14_Node000010_Node000011"><a xlink:title=" ">
<path fill="none" stroke="#63b8ff" d="M745.91,-384.89C733.48,-359.04 694.58,-280.24 654,-220 647.41,-210.21 639.18,-199.93 632.26,-191.72"/>
<polygon fill="#63b8ff" stroke="#63b8ff" points="634.82,-189.32 625.64,-184.02 629.51,-193.88 634.82,-189.32"/>
</a>
</g>
</g>
<!-- Node16 -->
<g id="Node000016" class="node">
<title>Node16</title>
<g id="a_Node000016"><a xlink:href="../../da/d61/xymap_8h.html" target="_top" xlink:title=" ">
<polygon fill="white" stroke="#666666" points="566,-349 498,-349 498,-330 566,-330 566,-349"/>
<text text-anchor="middle" x="532" y="-337" font-family="Helvetica,sans-Serif" font-size="10.00">fl/xymap.h</text>
</a>
</g>
</g>
<!-- Node10&#45;&gt;Node16 -->
<g id="edge27_Node000010_Node000016" class="edge">
<title>Node10&#45;&gt;Node16</title>
<g id="a_edge27_Node000010_Node000016"><a xlink:title=" ">
<path fill="none" stroke="#63b8ff" d="M722.39,-386.79C685.51,-377.82 619.74,-361.83 575.99,-351.19"/>
<polygon fill="#63b8ff" stroke="#63b8ff" points="576.73,-347.77 566.19,-348.81 575.08,-354.58 576.73,-347.77"/>
</a>
</g>
</g>
<!-- Node11&#45;&gt;Node5 -->
<g id="edge19_Node000011_Node000005" class="edge">
<title>Node11&#45;&gt;Node5</title>
<g id="a_edge19_Node000011_Node000005"><a xlink:title=" ">
<path fill="none" stroke="#63b8ff" d="M641.61,-166.7C666.7,-159.06 707.19,-145.55 740,-129 768.19,-114.79 798.14,-93.93 816.95,-80.05"/>
<polygon fill="#63b8ff" stroke="#63b8ff" points="819.09,-82.82 825,-74.03 814.89,-77.22 819.09,-82.82"/>
</a>
</g>
</g>
<!-- Node11&#45;&gt;Node7 -->
<g id="edge15_Node000011_Node000007" class="edge">
<title>Node11&#45;&gt;Node7</title>
<g id="a_edge15_Node000011_Node000007"><a xlink:title=" ">
<path fill="none" stroke="#63b8ff" d="M594.2,-167.38C569,-160.31 528.58,-147.26 497,-129 474.14,-115.78 451.36,-95.57 436.79,-81.52"/>
<polygon fill="#63b8ff" stroke="#63b8ff" points="439.17,-78.95 429.59,-74.42 434.26,-83.94 439.17,-78.95"/>
</a>
</g>
</g>
<!-- Node11&#45;&gt;Node8 -->
<g id="edge26_Node000011_Node000008" class="edge">
<title>Node11&#45;&gt;Node8</title>
<g id="a_edge26_Node000011_Node000008"><a xlink:title=" ">
<path fill="none" stroke="#63b8ff" d="M641.71,-169.82C693.31,-161.79 817.33,-142.52 894.14,-130.58"/>
<polygon fill="#63b8ff" stroke="#63b8ff" points="894.85,-134.01 904.19,-129.02 893.78,-127.1 894.85,-134.01"/>
</a>
</g>
</g>
<!-- Node12 -->
<g id="Node000012" class="node">
<title>Node12</title>
<g id="a_Node000012"><a xlink:href="../../d8/dd0/chsv_8h.html" target="_top" xlink:title="Defines the hue, saturation, and value (HSV) pixel struct.">
<polygon fill="white" stroke="#666666" points="553.5,-129 506.5,-129 506.5,-110 553.5,-110 553.5,-129"/>
<text text-anchor="middle" x="530" y="-117" font-family="Helvetica,sans-Serif" font-size="10.00">chsv.h</text>
</a>
</g>
</g>
<!-- Node11&#45;&gt;Node12 -->
<g id="edge16_Node000011_Node000012" class="edge">
<title>Node11&#45;&gt;Node12</title>
<g id="a_edge16_Node000011_Node000012"><a xlink:title=" ">
<path fill="none" stroke="#63b8ff" d="M603.86,-164.98C590.21,-156.77 569.31,-144.18 553.22,-134.49"/>
<polygon fill="#63b8ff" stroke="#63b8ff" points="554.77,-131.33 544.4,-129.17 551.16,-137.33 554.77,-131.33"/>
</a>
</g>
</g>
<!-- Node13 -->
<g id="Node000013" class="node">
<title>Node13</title>
<g id="a_Node000013"><a xlink:href="../../d2/d6b/src_2color_8h.html" target="_top" xlink:title="Contains definitions for color correction and temperature.">
<polygon fill="white" stroke="#666666" points="731.5,-129 682.5,-129 682.5,-110 731.5,-110 731.5,-129"/>
<text text-anchor="middle" x="707" y="-117" font-family="Helvetica,sans-Serif" font-size="10.00">color.h</text>
</a>
</g>
</g>
<!-- Node11&#45;&gt;Node13 -->
<g id="edge20_Node000011_Node000013" class="edge">
<title>Node11&#45;&gt;Node13</title>
<g id="a_edge20_Node000011_Node000013"><a xlink:title=" ">
<path fill="none" stroke="#63b8ff" d="M632.3,-164.98C646.1,-156.77 667.24,-144.18 683.51,-134.49"/>
<polygon fill="#63b8ff" stroke="#63b8ff" points="685.64,-137.29 692.44,-129.17 682.06,-131.28 685.64,-137.29"/>
</a>
</g>
</g>
<!-- Node14 -->
<g id="Node000014" class="node">
<title>Node14</title>
<g id="a_Node000014"><a xlink:href="../../d9/ddf/lib8tion_2types_8h.html" target="_top" xlink:title="Defines fractional types used for lib8tion functions.">
<polygon fill="white" stroke="#666666" points="664,-129 572,-129 572,-110 664,-110 664,-129"/>
<text text-anchor="middle" x="618" y="-117" font-family="Helvetica,sans-Serif" font-size="10.00">lib8tion/types.h</text>
</a>
</g>
</g>
<!-- Node11&#45;&gt;Node14 -->
<g id="edge22_Node000011_Node000014" class="edge">
<title>Node11&#45;&gt;Node14</title>
<g id="a_edge22_Node000011_Node000014"><a xlink:title=" ">
<path fill="none" stroke="#63b8ff" d="M618,-164.75C618,-157.8 618,-147.85 618,-139.13"/>
<polygon fill="#63b8ff" stroke="#63b8ff" points="621.5,-139.09 618,-129.09 614.5,-139.09 621.5,-139.09"/>
</a>
</g>
</g>
<!-- Node15 -->
<g id="Node000015" class="node">
<title>Node15</title>
<g id="a_Node000015"><a xlink:href="../../d4/d64/force__inline_8h.html" target="_top" xlink:title=" ">
<polygon fill="white" stroke="#666666" points="374,-129 282,-129 282,-110 374,-110 374,-129"/>
<text text-anchor="middle" x="328" y="-117" font-family="Helvetica,sans-Serif" font-size="10.00">fl/force_inline.h</text>
</a>
</g>
</g>
<!-- Node11&#45;&gt;Node15 -->
<g id="edge25_Node000011_Node000015" class="edge">
<title>Node11&#45;&gt;Node15</title>
<g id="a_edge25_Node000011_Node000015"><a xlink:title=" ">
<path fill="none" stroke="#63b8ff" d="M594.27,-169.16C548.68,-160.83 447.77,-142.39 384.09,-130.75"/>
<polygon fill="#63b8ff" stroke="#63b8ff" points="384.68,-127.3 374.21,-128.95 383.42,-134.19 384.68,-127.3"/>
</a>
</g>
</g>
<!-- Node12&#45;&gt;Node5 -->
<g id="edge18_Node000012_Node000005" class="edge">
<title>Node12&#45;&gt;Node5</title>
<g id="a_edge18_Node000012_Node000005"><a xlink:title=" ">
<path fill="none" stroke="#63b8ff" d="M553.73,-112.11C556.84,-111.36 559.99,-110.63 563,-110 637.77,-94.31 725.05,-80.93 780.41,-73.06"/>
<polygon fill="#63b8ff" stroke="#63b8ff" points="780.95,-76.51 790.36,-71.65 779.97,-69.58 780.95,-76.51"/>
</a>
</g>
</g>
<!-- Node12&#45;&gt;Node7 -->
<g id="edge17_Node000012_Node000007" class="edge">
<title>Node12&#45;&gt;Node7</title>
<g id="a_edge17_Node000012_Node000007"><a xlink:title=" ">
<path fill="none" stroke="#63b8ff" d="M512.49,-109.98C495.03,-101.5 467.99,-88.35 447.83,-78.54"/>
<polygon fill="#63b8ff" stroke="#63b8ff" points="449.36,-75.4 438.83,-74.17 446.29,-81.69 449.36,-75.4"/>
</a>
</g>
</g>
<!-- Node13&#45;&gt;Node5 -->
<g id="edge21_Node000013_Node000005" class="edge">
<title>Node13&#45;&gt;Node5</title>
<g id="a_edge21_Node000013_Node000005"><a xlink:title=" ">
<path fill="none" stroke="#63b8ff" d="M727.73,-109.98C748.76,-101.34 781.55,-87.87 805.54,-78.02"/>
<polygon fill="#63b8ff" stroke="#63b8ff" points="806.98,-81.21 814.9,-74.17 804.32,-74.73 806.98,-81.21"/>
</a>
</g>
</g>
<!-- Node14&#45;&gt;Node5 -->
<g id="edge24_Node000014_Node000005" class="edge">
<title>Node14&#45;&gt;Node5</title>
<g id="a_edge24_Node000014_Node000005"><a xlink:title=" ">
<path fill="none" stroke="#63b8ff" d="M653.03,-109.98C690.5,-100.87 750.05,-86.4 790.98,-76.45"/>
<polygon fill="#63b8ff" stroke="#63b8ff" points="791.81,-79.85 800.7,-74.08 790.16,-73.04 791.81,-79.85"/>
</a>
</g>
</g>
<!-- Node14&#45;&gt;Node7 -->
<g id="edge23_Node000014_Node000007" class="edge">
<title>Node14&#45;&gt;Node7</title>
<g id="a_edge23_Node000014_Node000007"><a xlink:title=" ">
<path fill="none" stroke="#63b8ff" d="M586.35,-109.98C551.15,-100.52 494.4,-85.25 457.4,-75.29"/>
<polygon fill="#63b8ff" stroke="#63b8ff" points="458.09,-71.85 447.52,-72.63 456.27,-78.61 458.09,-71.85"/>
</a>
</g>
</g>
<!-- Node16&#45;&gt;Node3 -->
<g id="edge42_Node000016_Node000003" class="edge">
<title>Node16&#45;&gt;Node3</title>
<g id="a_edge42_Node000016_Node000003"><a xlink:title=" ">
<path fill="none" stroke="#63b8ff" d="M565.14,-329.99C596.9,-321.61 646.08,-308.06 688,-294 741.69,-275.99 896.52,-214.49 963.03,-187.91"/>
<polygon fill="#63b8ff" stroke="#63b8ff" points="964.57,-191.06 972.55,-184.1 961.97,-184.57 964.57,-191.06"/>
</a>
</g>
</g>
<!-- Node16&#45;&gt;Node5 -->
<g id="edge41_Node000016_Node000005" class="edge">
<title>Node16&#45;&gt;Node5</title>
<g id="a_edge41_Node000016_Node000005"><a xlink:title=" ">
<path fill="none" stroke="#63b8ff" d="M552.64,-329.84C606.12,-306.28 749.77,-235.57 819,-129 827.74,-115.54 832.01,-97.71 834.08,-84.37"/>
<polygon fill="#63b8ff" stroke="#63b8ff" points="837.56,-84.78 835.35,-74.41 830.61,-83.89 837.56,-84.78"/>
</a>
</g>
</g>
<!-- Node16&#45;&gt;Node7 -->
<g id="edge28_Node000016_Node000007" class="edge">
<title>Node16&#45;&gt;Node7</title>
<g id="a_edge28_Node000016_Node000007"><a xlink:title=" ">
<path fill="none" stroke="#63b8ff" d="M497.87,-335.31C441.44,-329.49 331.73,-315.71 300,-294 252.37,-261.41 246.96,-239.46 231,-184 226.3,-167.66 219.87,-125.03 232,-110 250.82,-86.67 334.71,-74.28 384.18,-68.89"/>
<polygon fill="#63b8ff" stroke="#63b8ff" points="384.59,-72.36 394.17,-67.84 383.86,-65.4 384.59,-72.36"/>
</a>
</g>
</g>
<!-- Node16&#45;&gt;Node11 -->
<g id="edge30_Node000016_Node000011" class="edge">
<title>Node16&#45;&gt;Node11</title>
<g id="a_edge30_Node000016_Node000011"><a xlink:title=" ">
<path fill="none" stroke="#63b8ff" d="M534.86,-329.8C541.67,-309.68 559.99,-258.7 583,-220 588.89,-210.09 596.73,-199.92 603.49,-191.81"/>
<polygon fill="#63b8ff" stroke="#63b8ff" points="606.17,-194.07 610.03,-184.2 600.86,-189.51 606.17,-194.07"/>
</a>
</g>
</g>
<!-- Node16&#45;&gt;Node15 -->
<g id="edge34_Node000016_Node000015" class="edge">
<title>Node16&#45;&gt;Node15</title>
<g id="a_edge34_Node000016_Node000015"><a xlink:title=" ">
<path fill="none" stroke="#63b8ff" d="M503.36,-329.93C483.1,-322.78 456.24,-311.01 437,-294 385.56,-248.52 349.72,-172.98 335.2,-138.57"/>
<polygon fill="#63b8ff" stroke="#63b8ff" points="338.43,-137.21 331.39,-129.29 331.95,-139.87 338.43,-137.21"/>
</a>
</g>
</g>
<!-- Node17 -->
<g id="Node000017" class="node">
<title>Node17</title>
<g id="a_Node000017"><a xlink:href="../../da/d66/string_8h.html" target="_top" xlink:title=" ">
<polygon fill="#fff0f0" stroke="red" points="645.5,-239 592.5,-239 592.5,-220 645.5,-220 645.5,-239"/>
<text text-anchor="middle" x="619" y="-227" font-family="Helvetica,sans-Serif" font-size="10.00">string.h</text>
</a>
</g>
</g>
<!-- Node16&#45;&gt;Node17 -->
<g id="edge29_Node000016_Node000017" class="edge">
<title>Node16&#45;&gt;Node17</title>
<g id="a_edge29_Node000016_Node000017"><a xlink:title=" ">
<path fill="none" stroke="#63b8ff" d="M549.42,-329.95C563.45,-322.27 582.79,-309.78 595,-294 605.26,-280.75 611.52,-262.63 615.07,-249.13"/>
<polygon fill="#63b8ff" stroke="#63b8ff" points="618.55,-249.63 617.43,-239.1 611.73,-248.03 618.55,-249.63"/>
</a>
</g>
</g>
<!-- Node21 -->
<g id="Node000021" class="node">
<title>Node21</title>
<g id="a_Node000021"><a xlink:href="../../d6/dd3/clamp_8h.html" target="_top" xlink:title=" ">
<polygon fill="white" stroke="#666666" points="305.5,-184 240.5,-184 240.5,-165 305.5,-165 305.5,-184"/>
<text text-anchor="middle" x="273" y="-172" font-family="Helvetica,sans-Serif" font-size="10.00">fl/clamp.h</text>
</a>
</g>
</g>
<!-- Node16&#45;&gt;Node21 -->
<g id="edge31_Node000016_Node000021" class="edge">
<title>Node16&#45;&gt;Node21</title>
<g id="a_edge31_Node000016_Node000021"><a xlink:title=" ">
<path fill="none" stroke="#63b8ff" d="M497.83,-335.26C444.94,-329.6 346.53,-316.35 320,-294 289.77,-268.54 278.85,-220.94 275,-194.47"/>
<polygon fill="#63b8ff" stroke="#63b8ff" points="278.44,-193.74 273.72,-184.25 271.49,-194.61 278.44,-193.74"/>
</a>
</g>
</g>
<!-- Node28 -->
<g id="Node000028" class="node">
<title>Node28</title>
<g id="a_Node000028"><a xlink:href="../../db/d54/lut_8h.html" target="_top" xlink:title=" ">
<polygon fill="#fff0f0" stroke="red" points="497.5,-239 450.5,-239 450.5,-220 497.5,-220 497.5,-239"/>
<text text-anchor="middle" x="474" y="-227" font-family="Helvetica,sans-Serif" font-size="10.00">fl/lut.h</text>
</a>
</g>
</g>
<!-- Node16&#45;&gt;Node28 -->
<g id="edge35_Node000016_Node000028" class="edge">
<title>Node16&#45;&gt;Node28</title>
<g id="a_edge35_Node000016_Node000028"><a xlink:title=" ">
<path fill="none" stroke="#63b8ff" d="M497.95,-330.7C478.52,-324.31 455.75,-313.1 444,-294 434.48,-278.52 446.22,-259.54 457.69,-246.38"/>
<polygon fill="#63b8ff" stroke="#63b8ff" points="460.3,-248.71 464.6,-239.02 455.2,-243.91 460.3,-248.71"/>
</a>
</g>
</g>
<!-- Node30 -->
<g id="Node000030" class="node">
<title>Node30</title>
<g id="a_Node000030"><a xlink:href="../../dd/dcc/xmap_8h.html" target="_top" xlink:title=" ">
<polygon fill="white" stroke="#666666" points="515,-294 453,-294 453,-275 515,-275 515,-294"/>
<text text-anchor="middle" x="484" y="-282" font-family="Helvetica,sans-Serif" font-size="10.00">fl/xmap.h</text>
</a>
</g>
</g>
<!-- Node16&#45;&gt;Node30 -->
<g id="edge43_Node000016_Node000030" class="edge">
<title>Node16&#45;&gt;Node30</title>
<g id="a_edge43_Node000016_Node000030"><a xlink:title=" ">
<path fill="none" stroke="#63b8ff" d="M524.07,-329.75C517.15,-322.11 506.93,-310.82 498.55,-301.56"/>
<polygon fill="#63b8ff" stroke="#63b8ff" points="501.09,-299.15 491.78,-294.09 495.9,-303.85 501.09,-299.15"/>
</a>
</g>
</g>
<!-- Node21&#45;&gt;Node7 -->
<g id="edge32_Node000021_Node000007" class="edge">
<title>Node21&#45;&gt;Node7</title>
<g id="a_edge32_Node000021_Node000007"><a xlink:title=" ">
<path fill="none" stroke="#63b8ff" d="M262.35,-164.69C248.12,-151.84 226.2,-127.6 240,-110 257.58,-87.58 336.6,-74.95 384.23,-69.25"/>
<polygon fill="#63b8ff" stroke="#63b8ff" points="384.64,-72.72 394.17,-68.1 383.84,-65.77 384.64,-72.72"/>
</a>
</g>
</g>
<!-- Node21&#45;&gt;Node15 -->
<g id="edge33_Node000021_Node000015" class="edge">
<title>Node21&#45;&gt;Node15</title>
<g id="a_edge33_Node000021_Node000015"><a xlink:title=" ">
<path fill="none" stroke="#63b8ff" d="M282.08,-164.75C290.09,-157.03 301.96,-145.6 311.62,-136.28"/>
<polygon fill="#63b8ff" stroke="#63b8ff" points="314.31,-138.55 319.09,-129.09 309.46,-133.51 314.31,-138.55"/>
</a>
</g>
</g>
<!-- Node28&#45;&gt;Node3 -->
<g id="edge37_Node000028_Node000003" class="edge">
<title>Node28&#45;&gt;Node3</title>
<g id="a_edge37_Node000028_Node000003"><a xlink:title=" ">
<path fill="none" stroke="#63b8ff" d="M497.69,-226.08C581.29,-217.56 862.63,-188.89 960.28,-178.94"/>
<polygon fill="#63b8ff" stroke="#63b8ff" points="960.87,-182.39 970.46,-177.9 960.16,-175.43 960.87,-182.39"/>
</a>
</g>
</g>
<!-- Node28&#45;&gt;Node5 -->
<g id="edge40_Node000028_Node000005" class="edge">
<title>Node28&#45;&gt;Node5</title>
<g id="a_edge40_Node000028_Node000005"><a xlink:title=" ">
<path fill="none" stroke="#63b8ff" d="M497.53,-225.12C550.46,-216.6 681.25,-190.43 771,-129 790.62,-115.57 809.67,-95.94 822.02,-82.07"/>
<polygon fill="#63b8ff" stroke="#63b8ff" points="824.87,-84.13 828.79,-74.29 819.58,-79.54 824.87,-84.13"/>
</a>
</g>
</g>
<!-- Node28&#45;&gt;Node7 -->
<g id="edge38_Node000028_Node000007" class="edge">
<title>Node28&#45;&gt;Node7</title>
<g id="a_edge38_Node000028_Node000007"><a xlink:title=" ">
<path fill="none" stroke="#63b8ff" d="M470.9,-219.68C466.41,-207.23 457.58,-183.92 448,-165 439.53,-148.27 431.78,-146.84 426,-129 421.3,-114.52 420.21,-97.25 420.21,-84.38"/>
<polygon fill="#63b8ff" stroke="#63b8ff" points="423.71,-84.45 420.42,-74.38 416.71,-84.3 423.71,-84.45"/>
</a>
</g>
</g>
<!-- Node28&#45;&gt;Node15 -->
<g id="edge36_Node000028_Node000015" class="edge">
<title>Node28&#45;&gt;Node15</title>
<g id="a_edge36_Node000028_Node000015"><a xlink:title=" ">
<path fill="none" stroke="#63b8ff" d="M468.9,-219.62C460.85,-206.25 444.03,-180.84 424,-165 406.21,-150.93 383.24,-140.08 364.24,-132.62"/>
<polygon fill="#63b8ff" stroke="#63b8ff" points="365.3,-129.28 354.71,-129.03 362.83,-135.83 365.3,-129.28"/>
</a>
</g>
</g>
<!-- Node19 -->
<g id="Node000019" class="node">
<title>Node19</title>
<g id="a_Node000019"><a xlink:href="../../d4/d67/geometry_8h.html" target="_top" xlink:title=" ">
<polygon fill="#fff0f0" stroke="red" points="184,-184 104,-184 104,-165 184,-165 184,-184"/>
<text text-anchor="middle" x="144" y="-172" font-family="Helvetica,sans-Serif" font-size="10.00">fl/geometry.h</text>
</a>
</g>
</g>
<!-- Node28&#45;&gt;Node19 -->
<g id="edge39_Node000028_Node000019" class="edge">
<title>Node28&#45;&gt;Node19</title>
<g id="a_edge39_Node000028_Node000019"><a xlink:title=" ">
<path fill="none" stroke="#63b8ff" d="M450.27,-224.69C396.95,-216.13 266.72,-195.21 194.43,-183.6"/>
<polygon fill="#63b8ff" stroke="#63b8ff" points="194.63,-180.09 184.2,-181.96 193.52,-187 194.63,-180.09"/>
</a>
</g>
</g>
<!-- Node30&#45;&gt;Node3 -->
<g id="edge48_Node000030_Node000003" class="edge">
<title>Node30&#45;&gt;Node3</title>
<g id="a_edge48_Node000030_Node000003"><a xlink:title=" ">
<path fill="none" stroke="#63b8ff" d="M515.43,-275.26C573.06,-260.21 693.63,-228.98 736,-220 815.95,-203.06 910.87,-187.96 960.29,-180.48"/>
<polygon fill="#63b8ff" stroke="#63b8ff" points="961.04,-183.9 970.41,-178.95 960,-176.98 961.04,-183.9"/>
</a>
</g>
</g>
<!-- Node30&#45;&gt;Node5 -->
<g id="edge49_Node000030_Node000005" class="edge">
<title>Node30&#45;&gt;Node5</title>
<g id="a_edge49_Node000030_Node000005"><a xlink:title=" ">
<path fill="none" stroke="#63b8ff" d="M495.31,-274.83C513.12,-261.51 549.18,-235.89 583,-220 676.54,-176.04 722.04,-200.15 797,-129 810.61,-116.08 821.32,-97.42 828.04,-83.67"/>
<polygon fill="#63b8ff" stroke="#63b8ff" points="831.36,-84.83 832.39,-74.29 825.01,-81.89 831.36,-84.83"/>
</a>
</g>
</g>
<!-- Node30&#45;&gt;Node7 -->
<g id="edge44_Node000030_Node000007" class="edge">
<title>Node30&#45;&gt;Node7</title>
<g id="a_edge44_Node000030_Node000007"><a xlink:title=" ">
<path fill="none" stroke="#63b8ff" d="M471.5,-274.81C426.99,-243.83 278.58,-140.01 273,-129 250.11,-83.86 333.6,-70.81 384.46,-67.03"/>
<polygon fill="#63b8ff" stroke="#63b8ff" points="384.72,-70.52 394.47,-66.38 384.26,-63.54 384.72,-70.52"/>
</a>
</g>
</g>
<!-- Node30&#45;&gt;Node15 -->
<g id="edge46_Node000030_Node000015" class="edge">
<title>Node30&#45;&gt;Node15</title>
<g id="a_edge46_Node000030_Node000015"><a xlink:title=" ">
<path fill="none" stroke="#63b8ff" d="M475.09,-274.95C466.14,-266.21 452.12,-252.11 441,-239 414.49,-207.76 414.75,-194.2 386,-165 375.04,-153.87 361.21,-143.15 349.8,-135.03"/>
<polygon fill="#63b8ff" stroke="#63b8ff" points="351.49,-131.94 341.28,-129.11 347.49,-137.69 351.49,-131.94"/>
</a>
</g>
</g>
<!-- Node30&#45;&gt;Node17 -->
<g id="edge45_Node000030_Node000017" class="edge">
<title>Node30&#45;&gt;Node17</title>
<g id="a_edge45_Node000030_Node000017"><a xlink:title=" ">
<path fill="none" stroke="#63b8ff" d="M505.69,-274.98C527.8,-266.3 562.32,-252.75 587.45,-242.88"/>
<polygon fill="#63b8ff" stroke="#63b8ff" points="588.89,-246.08 596.92,-239.17 586.33,-239.57 588.89,-246.08"/>
</a>
</g>
</g>
<!-- Node30&#45;&gt;Node28 -->
<g id="edge47_Node000030_Node000028" class="edge">
<title>Node30&#45;&gt;Node28</title>
<g id="a_edge47_Node000030_Node000028"><a xlink:title=" ">
<path fill="none" stroke="#63b8ff" d="M482.35,-274.75C481.04,-267.8 479.16,-257.85 477.52,-249.13"/>
<polygon fill="#63b8ff" stroke="#63b8ff" points="480.91,-248.27 475.62,-239.09 474.04,-249.56 480.91,-248.27"/>
</a>
</g>
</g>
<!-- Node32&#45;&gt;Node5 -->
<g id="edge55_Node000032_Node000005" class="edge">
<title>Node32&#45;&gt;Node5</title>
<g id="a_edge55_Node000032_Node000005"><a xlink:title=" ">
<path fill="none" stroke="#63b8ff" d="M230.24,-391.23C297.03,-386.41 449.18,-373.54 575,-349 755.97,-313.7 817.4,-334.7 975,-239 1030.22,-205.47 1082.57,-160.27 1042,-110 1023.43,-87 946.23,-75.3 891.82,-69.81"/>
<polygon fill="#63b8ff" stroke="#63b8ff" points="891.89,-66.3 881.6,-68.82 891.22,-73.27 891.89,-66.3"/>
</a>
</g>
</g>
<!-- Node32&#45;&gt;Node7 -->
<g id="edge53_Node000032_Node000007" class="edge">
<title>Node32&#45;&gt;Node7</title>
<g id="a_edge53_Node000032_Node000007"><a xlink:title=" ">
<path fill="none" stroke="#63b8ff" d="M161.86,-390.15C105.7,-382.55 0,-358.54 0,-285.5 0,-285.5 0,-285.5 0,-173.5 0,-94.52 281.52,-72.49 384.14,-67.08"/>
<polygon fill="#63b8ff" stroke="#63b8ff" points="384.53,-70.57 394.35,-66.57 384.18,-63.58 384.53,-70.57"/>
</a>
</g>
</g>
<!-- Node32&#45;&gt;Node16 -->
<g id="edge61_Node000032_Node000016" class="edge">
<title>Node32&#45;&gt;Node16</title>
<g id="a_edge61_Node000032_Node000016"><a xlink:title=" ">
<path fill="none" stroke="#63b8ff" d="M230.07,-388.13C291.32,-378.46 419.99,-358.17 487.88,-347.46"/>
<polygon fill="#63b8ff" stroke="#63b8ff" points="488.51,-350.9 497.84,-345.89 487.42,-343.99 488.51,-350.9"/>
</a>
</g>
</g>
<!-- Node32&#45;&gt;Node19 -->
<g id="edge54_Node000032_Node000019" class="edge">
<title>Node32&#45;&gt;Node19</title>
<g id="a_edge54_Node000032_Node000019"><a xlink:title=" ">
<path fill="none" stroke="#63b8ff" d="M193.96,-384.95C186.31,-352.88 159.19,-239.2 148.44,-194.12"/>
<polygon fill="#63b8ff" stroke="#63b8ff" points="151.81,-193.14 146.08,-184.22 145,-194.76 151.81,-193.14"/>
</a>
</g>
</g>
<!-- Node33 -->
<g id="Node000033" class="node">
<title>Node33</title>
<g id="a_Node000033"><a xlink:href="../../d0/d48/slice_8h.html" target="_top" xlink:title=" ">
<polygon fill="white" stroke="#666666" points="145.5,-239 88.5,-239 88.5,-220 145.5,-220 145.5,-239"/>
<text text-anchor="middle" x="117" y="-227" font-family="Helvetica,sans-Serif" font-size="10.00">fl/slice.h</text>
</a>
</g>
</g>
<!-- Node32&#45;&gt;Node33 -->
<g id="edge56_Node000032_Node000033" class="edge">
<title>Node32&#45;&gt;Node33</title>
<g id="a_edge56_Node000032_Node000033"><a xlink:title=" ">
<path fill="none" stroke="#63b8ff" d="M187.61,-384.94C179.62,-376.42 167.72,-362.67 160,-349 141.32,-315.93 128.21,-273.25 121.7,-249.18"/>
<polygon fill="#63b8ff" stroke="#63b8ff" points="125.02,-248.05 119.11,-239.25 118.25,-249.81 125.02,-248.05"/>
</a>
</g>
</g>
<!-- Node33&#45;&gt;Node4 -->
<g id="edge57_Node000033_Node000004" class="edge">
<title>Node33&#45;&gt;Node4</title>
<g id="a_edge57_Node000033_Node000004"><a xlink:title=" ">
<path fill="none" stroke="#63b8ff" d="M109.33,-219.7C102.48,-211.21 92.95,-197.68 89,-184 79.02,-149.4 92.66,-130.87 122,-110 219.31,-40.78 266.62,-70.71 385,-55 663.68,-18 1003.22,-11.76 1115.75,-10.71"/>
<polygon fill="#63b8ff" stroke="#63b8ff" points="1115.96,-14.21 1125.92,-10.62 1115.9,-7.21 1115.96,-14.21"/>
</a>
</g>
</g>
<!-- Node33&#45;&gt;Node7 -->
<g id="edge58_Node000033_Node000007" class="edge">
<title>Node33&#45;&gt;Node7</title>
<g id="a_edge58_Node000033_Node000007"><a xlink:title=" ">
<path fill="none" stroke="#63b8ff" d="M109.61,-219.62C100.14,-207.1 85.99,-183.71 95,-165 112.02,-129.67 128.23,-126.07 164,-110 237.27,-77.09 332.39,-68.42 383.9,-66.2"/>
<polygon fill="#63b8ff" stroke="#63b8ff" points="384.35,-69.69 394.21,-65.82 384.09,-62.69 384.35,-69.69"/>
</a>
</g>
</g>
<!-- Node33&#45;&gt;Node21 -->
<g id="edge59_Node000033_Node000021" class="edge">
<title>Node33&#45;&gt;Node21</title>
<g id="a_edge59_Node000033_Node000021"><a xlink:title=" ">
<path fill="none" stroke="#63b8ff" d="M142.06,-219.98C168.03,-211.16 208.81,-197.31 237.96,-187.41"/>
<polygon fill="#63b8ff" stroke="#63b8ff" points="239.4,-190.61 247.74,-184.08 237.15,-183.99 239.4,-190.61"/>
</a>
</g>
</g>
<!-- Node33&#45;&gt;Node19 -->
<g id="edge60_Node000033_Node000019" class="edge">
<title>Node33&#45;&gt;Node19</title>
<g id="a_edge60_Node000033_Node000019"><a xlink:title=" ">
<path fill="none" stroke="#63b8ff" d="M121.46,-219.75C125.12,-212.57 130.41,-202.18 134.95,-193.27"/>
<polygon fill="#63b8ff" stroke="#63b8ff" points="138.2,-194.59 139.62,-184.09 131.97,-191.41 138.2,-194.59"/>
</a>
</g>
</g>
<!-- Node34&#45;&gt;Node3 -->
<g id="edge65_Node000034_Node000003" class="edge">
<title>Node34&#45;&gt;Node3</title>
<g id="a_edge65_Node000034_Node000003"><a xlink:title=" ">
<path fill="none" stroke="#63b8ff" d="M855.63,-384.74C879.37,-362.62 941.25,-301.79 975,-239 982.58,-224.89 987.54,-207.35 990.48,-194.28"/>
<polygon fill="#63b8ff" stroke="#63b8ff" points="993.98,-194.64 992.56,-184.14 987.12,-193.23 993.98,-194.64"/>
</a>
</g>
</g>
<!-- Node34&#45;&gt;Node14 -->
<g id="edge67_Node000034_Node000014" class="edge">
<title>Node34&#45;&gt;Node14</title>
<g id="a_edge67_Node000034_Node000014"><a xlink:title=" ">
<path fill="none" stroke="#63b8ff" d="M838.67,-384.73C806.18,-345.82 674.79,-188.5 631.74,-136.95"/>
<polygon fill="#63b8ff" stroke="#63b8ff" points="634.28,-134.54 625.19,-129.11 628.91,-139.02 634.28,-134.54"/>
</a>
</g>
</g>
<!-- Node34&#45;&gt;Node16 -->
<g id="edge66_Node000034_Node000016" class="edge">
<title>Node34&#45;&gt;Node16</title>
<g id="a_edge66_Node000034_Node000016"><a xlink:title=" ">
<path fill="none" stroke="#63b8ff" d="M804.3,-386.46C745.01,-376.45 636.81,-358.19 576.18,-347.96"/>
<polygon fill="#63b8ff" stroke="#63b8ff" points="576.6,-344.48 566.15,-346.26 575.43,-351.38 576.6,-344.48"/>
</a>
</g>
</g>
<!-- Node34&#45;&gt;Node28 -->
<g id="edge63_Node000034_Node000028" class="edge">
<title>Node34&#45;&gt;Node28</title>
<g id="a_edge63_Node000034_Node000028"><a xlink:title=" ">
<path fill="none" stroke="#63b8ff" d="M826.52,-384.97C765.27,-358.13 576.3,-275.32 503.25,-243.31"/>
<polygon fill="#63b8ff" stroke="#63b8ff" points="504.3,-239.95 493.73,-239.15 501.49,-246.37 504.3,-239.95"/>
</a>
</g>
</g>
<!-- Node23 -->
<g id="Node000023" class="node">
<title>Node23</title>
<g id="a_Node000023"><a xlink:href="../../d8/db8/math__macros_8h.html" target="_top" xlink:title=" ">
<polygon fill="white" stroke="#666666" points="1431.5,-239 1330.5,-239 1330.5,-220 1431.5,-220 1431.5,-239"/>
<text text-anchor="middle" x="1381" y="-227" font-family="Helvetica,sans-Serif" font-size="10.00">fl/math_macros.h</text>
</a>
</g>
</g>
<!-- Node34&#45;&gt;Node23 -->
<g id="edge64_Node000034_Node000023" class="edge">
<title>Node34&#45;&gt;Node23</title>
<g id="a_edge64_Node000034_Node000023"><a xlink:title=" ">
<path fill="none" stroke="#63b8ff" d="M881.55,-384.96C947.19,-368.93 1091.6,-332.49 1211,-294 1260.54,-278.03 1316.93,-256.23 1350.7,-242.77"/>
<polygon fill="#63b8ff" stroke="#63b8ff" points="1352.03,-246.01 1360.02,-239.05 1349.43,-239.51 1352.03,-246.01"/>
</a>
</g>
</g>
<!-- Node35&#45;&gt;Node3 -->
<g id="edge71_Node000035_Node000003" class="edge">
<title>Node35&#45;&gt;Node3</title>
<g id="a_edge71_Node000035_Node000003"><a xlink:title=" ">
<path fill="none" stroke="#63b8ff" d="M1140.72,-439.9C1130.27,-422.07 1108,-379.46 1108,-340.5 1108,-340.5 1108,-340.5 1108,-283.5 1108,-237.47 1058.42,-205.18 1024.65,-188.53"/>
<polygon fill="#63b8ff" stroke="#63b8ff" points="1025.71,-185.16 1015.18,-184.05 1022.72,-191.49 1025.71,-185.16"/>
</a>
</g>
</g>
<!-- Node35&#45;&gt;Node28 -->
<g id="edge69_Node000035_Node000028" class="edge">
<title>Node35&#45;&gt;Node28</title>
<g id="a_edge69_Node000035_Node000028"><a xlink:title=" ">
<path fill="none" stroke="#63b8ff" d="M1095.33,-445.62C959.84,-437.18 592.44,-409.21 489,-349 459.93,-332.08 449.44,-325.26 437,-294 430.12,-276.72 443.07,-258.53 455.5,-246.07"/>
<polygon fill="#63b8ff" stroke="#63b8ff" points="458.04,-248.49 462.99,-239.11 453.28,-243.36 458.04,-248.49"/>
</a>
</g>
</g>
<!-- Node35&#45;&gt;Node32 -->
<g id="edge72_Node000035_Node000032" class="edge">
<title>Node35&#45;&gt;Node32</title>
<g id="a_edge72_Node000035_Node000032"><a xlink:title=" ">
<path fill="none" stroke="#63b8ff" d="M1095.46,-446.38C917.86,-438.88 328.52,-413.53 244,-404 242.72,-403.86 241.43,-403.7 240.12,-403.53"/>
<polygon fill="#63b8ff" stroke="#63b8ff" points="240.41,-400.04 230.01,-402.07 239.41,-406.96 240.41,-400.04"/>
</a>
</g>
</g>
<!-- Node35&#45;&gt;Node34 -->
<g id="edge73_Node000035_Node000034" class="edge">
<title>Node35&#45;&gt;Node34</title>
<g id="a_edge73_Node000035_Node000034"><a xlink:title=" ">
<path fill="none" stroke="#63b8ff" d="M1097.8,-439.98C1043.07,-430.32 954.11,-414.6 897.89,-404.67"/>
<polygon fill="#63b8ff" stroke="#63b8ff" points="898.25,-401.18 887.79,-402.88 897.03,-408.07 898.25,-401.18"/>
</a>
</g>
</g>
<!-- Node35&#45;&gt;Node23 -->
<g id="edge70_Node000035_Node000023" class="edge">
<title>Node35&#45;&gt;Node23</title>
<g id="a_edge70_Node000035_Node000023"><a xlink:title=" ">
<path fill="none" stroke="#63b8ff" d="M1192.08,-439.92C1243.52,-429.95 1320.91,-413.65 1331,-404 1374.56,-362.34 1380.89,-285.39 1381.34,-249.66"/>
<polygon fill="#63b8ff" stroke="#63b8ff" points="1384.84,-249.22 1381.32,-239.23 1377.84,-249.24 1384.84,-249.22"/>
</a>
</g>
</g>
<!-- Node36 -->
<g id="Node000036" class="node">
<title>Node36</title>
<g id="a_Node000036"><a xlink:href="../../d8/d4b/unused_8h.html" target="_top" xlink:title=" ">
<polygon fill="white" stroke="#666666" points="1322,-404 1252,-404 1252,-385 1322,-385 1322,-404"/>
<text text-anchor="middle" x="1287" y="-392" font-family="Helvetica,sans-Serif" font-size="10.00">fl/unused.h</text>
</a>
</g>
</g>
<!-- Node35&#45;&gt;Node36 -->
<g id="edge74_Node000035_Node000036" class="edge">
<title>Node35&#45;&gt;Node36</title>
<g id="a_edge74_Node000035_Node000036"><a xlink:title=" ">
<path fill="none" stroke="#63b8ff" d="M1168.65,-439.98C1191.85,-431.27 1228.12,-417.63 1254.4,-407.75"/>
<polygon fill="#63b8ff" stroke="#63b8ff" points="1255.8,-410.97 1263.93,-404.17 1253.34,-404.41 1255.8,-410.97"/>
</a>
</g>
</g>
<!-- Node24 -->
<g id="Node000024" class="node">
<title>Node24</title>
<g id="a_Node000024"><a xlink:href="../../d6/d68/vector_8h.html" target="_top" xlink:title=" ">
<polygon fill="#fff0f0" stroke="red" points="1201.5,-294 1136.5,-294 1136.5,-275 1201.5,-275 1201.5,-294"/>
<text text-anchor="middle" x="1169" y="-282" font-family="Helvetica,sans-Serif" font-size="10.00">fl/vector.h</text>
</a>
</g>
</g>
<!-- Node35&#45;&gt;Node24 -->
<g id="edge75_Node000035_Node000024" class="edge">
<title>Node35&#45;&gt;Node24</title>
<g id="a_edge75_Node000035_Node000024"><a xlink:title=" ">
<path fill="none" stroke="#63b8ff" d="M1147.24,-439.74C1150.84,-414.2 1161.39,-339.43 1166.36,-304.23"/>
<polygon fill="#63b8ff" stroke="#63b8ff" points="1169.83,-304.7 1167.76,-294.31 1162.89,-303.72 1169.83,-304.7"/>
</a>
</g>
</g>
<!-- Node37 -->
<g id="Node000037" class="node">
<title>Node37</title>
<g id="a_Node000037"><a xlink:href="../../de/d77/warn_8h.html" target="_top" xlink:title=" ">
<polygon fill="white" stroke="#666666" points="1233.5,-404 1174.5,-404 1174.5,-385 1233.5,-385 1233.5,-404"/>
<text text-anchor="middle" x="1204" y="-392" font-family="Helvetica,sans-Serif" font-size="10.00">fl/warn.h</text>
</a>
</g>
</g>
<!-- Node35&#45;&gt;Node37 -->
<g id="edge82_Node000035_Node000037" class="edge">
<title>Node35&#45;&gt;Node37</title>
<g id="a_edge82_Node000035_Node000037"><a xlink:title=" ">
<path fill="none" stroke="#63b8ff" d="M1155.32,-439.98C1163.81,-432.23 1176.56,-420.58 1186.88,-411.14"/>
<polygon fill="#63b8ff" stroke="#63b8ff" points="1189.49,-413.5 1194.51,-404.17 1184.77,-408.33 1189.49,-413.5"/>
</a>
</g>
</g>
<!-- Node24&#45;&gt;Node4 -->
<g id="edge76_Node000024_Node000004" class="edge">
<title>Node24&#45;&gt;Node4</title>
<g id="a_edge76_Node000024_Node000004"><a xlink:title=" ">
<path fill="none" stroke="#63b8ff" d="M1196.56,-274.98C1235.51,-261.03 1302,-229.34 1302,-175.5 1302,-175.5 1302,-175.5 1302,-118.5 1302,-64.05 1235.84,-34.13 1191.99,-20.28"/>
<polygon fill="#63b8ff" stroke="#63b8ff" points="1192.77,-16.86 1182.19,-17.33 1190.75,-23.57 1192.77,-16.86"/>
</a>
</g>
</g>
<!-- Node24&#45;&gt;Node5 -->
<g id="edge80_Node000024_Node000005" class="edge">
<title>Node24&#45;&gt;Node5</title>
<g id="a_edge80_Node000024_Node000005"><a xlink:title=" ">
<path fill="none" stroke="#63b8ff" d="M1175.55,-274.62C1195.34,-246.61 1250.59,-159.13 1207,-110 1186.44,-86.83 990.06,-73.46 891.65,-68.17"/>
<polygon fill="#63b8ff" stroke="#63b8ff" points="891.75,-64.67 881.58,-67.64 891.38,-71.66 891.75,-64.67"/>
</a>
</g>
</g>
<!-- Node24&#45;&gt;Node6 -->
<g id="edge81_Node000024_Node000006" class="edge">
<title>Node24&#45;&gt;Node6</title>
<g id="a_edge81_Node000024_Node000006"><a xlink:title=" ">
<path fill="none" stroke="#63b8ff" d="M1168.19,-274.74C1165.85,-249.31 1159.02,-175.08 1155.77,-139.69"/>
<polygon fill="#63b8ff" stroke="#63b8ff" points="1159.21,-138.94 1154.81,-129.31 1152.24,-139.59 1159.21,-138.94"/>
</a>
</g>
</g>
<!-- Node24&#45;&gt;Node7 -->
<g id="edge77_Node000024_Node000007" class="edge">
<title>Node24&#45;&gt;Node7</title>
<g id="a_edge77_Node000024_Node000007"><a xlink:title=" ">
<path fill="none" stroke="#63b8ff" d="M1136.27,-281.16C1046.33,-274.05 788.53,-249.05 585,-184 529.88,-166.39 511.62,-165.83 467,-129 451.62,-116.31 438.79,-97.36 430.61,-83.46"/>
<polygon fill="#63b8ff" stroke="#63b8ff" points="433.47,-81.4 425.52,-74.4 427.37,-84.83 433.47,-81.4"/>
</a>
</g>
</g>
<!-- Node24&#45;&gt;Node17 -->
<g id="edge78_Node000024_Node000017" class="edge">
<title>Node24&#45;&gt;Node17</title>
<g id="a_edge78_Node000024_Node000017"><a xlink:title=" ">
<path fill="none" stroke="#63b8ff" d="M1136.24,-280.34C1039.75,-271.05 757.03,-243.8 655.68,-234.03"/>
<polygon fill="#63b8ff" stroke="#63b8ff" points="655.91,-230.54 645.62,-233.07 655.24,-237.51 655.91,-230.54"/>
</a>
</g>
</g>
<!-- Node24&#45;&gt;Node23 -->
<g id="edge79_Node000024_Node000023" class="edge">
<title>Node24&#45;&gt;Node23</title>
<g id="a_edge79_Node000024_Node000023"><a xlink:title=" ">
<path fill="none" stroke="#63b8ff" d="M1201.66,-275.33C1237.96,-266.26 1296.76,-251.56 1337.07,-241.48"/>
<polygon fill="#63b8ff" stroke="#63b8ff" points="1338.04,-244.85 1346.9,-239.03 1336.35,-238.06 1338.04,-244.85"/>
</a>
</g>
</g>
<!-- Node38 -->
<g id="Node000038" class="node">
<title>Node38</title>
<g id="a_Node000038"><a xlink:href="../../d6/d01/dbg_8h.html" target="_top" xlink:title=" ">
<polygon fill="#fff0f0" stroke="red" points="1230.5,-349 1177.5,-349 1177.5,-330 1230.5,-330 1230.5,-349"/>
<text text-anchor="middle" x="1204" y="-337" font-family="Helvetica,sans-Serif" font-size="10.00">fl/dbg.h</text>
</a>
</g>
</g>
<!-- Node37&#45;&gt;Node38 -->
<g id="edge83_Node000037_Node000038" class="edge">
<title>Node37&#45;&gt;Node38</title>
<g id="a_edge83_Node000037_Node000038"><a xlink:title=" ">
<path fill="none" stroke="#63b8ff" d="M1204,-384.75C1204,-377.8 1204,-367.85 1204,-359.13"/>
<polygon fill="#63b8ff" stroke="#63b8ff" points="1207.5,-359.09 1204,-349.09 1200.5,-359.09 1207.5,-359.09"/>
</a>
</g>
</g>
</g>
</svg>
