<?xml version="1.0" encoding="UTF-8" standalone="no"?>
<!DOCTYPE svg PUBLIC "-//W3C//DTD SVG 1.1//EN"
 "http://www.w3.org/Graphics/SVG/1.1/DTD/svg11.dtd">
<!-- Generated by graphviz version 2.43.0 (0)
 -->
<!-- Title: fx/video/frame_interpolator.h Pages: 1 -->
<!--zoomable 412 -->

<svg id="main" version="1.1" xmlns="http://www.w3.org/2000/svg" xmlns:xlink="http://www.w3.org/1999/xlink" xml:space="preserve" onload="init(evt)">

<style type="text/css"><![CDATA[
.node, .edge {opacity: 0.7;}
.node.selected, .edge.selected {opacity: 1;}
.edge:hover path { stroke: red; }
.edge:hover polygon { stroke: red; fill: red; }
]]></style>

<defs>
  <circle id="rim" cx="0" cy="0" r="7"/>
  <circle id="rim2" cx="0" cy="0" r="3.5"/>
  <g id="zoomPlus">
    <use xlink:href="#rim" fill="#404040"><set attributeName="fill" to="#808080" begin="zoomplus.mouseover" end="zoomplus.mouseout"/></use>
    <path d="M-4,0h8M0,-4v8" fill="none" stroke="white" stroke-width="1.5" pointer-events="none"/>
  </g>
  <g id="zoomMin">
    <use xlink:href="#rim" fill="#404040"><set attributeName="fill" to="#808080" begin="zoomminus.mouseover" end="zoomminus.mouseout"/></use>
    <path d="M-4,0h8" fill="none" stroke="white" stroke-width="1.5" pointer-events="none"/>
  </g>
  <g id="arrowUp" transform="translate(30 24)">
    <use xlink:href="#rim"/>
    <path pointer-events="none" fill="none" stroke="white" stroke-width="1.5" d="M0,-3.0v7 M-2.5,-0.5L0,-3.0L2.5,-0.5"/>
  </g>
  <g id="arrowRight" transform="rotate(90) translate(36 -43)">
    <use xlink:href="#rim"/>
    <path pointer-events="none" fill="none" stroke="white" stroke-width="1.5" d="M0,-3.0v7 M-2.5,-0.5L0,-3.0L2.5,-0.5"/>
  </g>
  <g id="arrowDown" transform="rotate(180) translate(-30 -48)">
    <use xlink:href="#rim"/>
    <path pointer-events="none" fill="none" stroke="white" stroke-width="1.5" d="M0,-3.0v7 M-2.5,-0.5L0,-3.0L2.5,-0.5"/>
  </g>
  <g id="arrowLeft" transform="rotate(270) translate(-36 17)">
    <use xlink:href="#rim"/>
    <path pointer-events="none" fill="none" stroke="white" stroke-width="1.5" d="M0,-3.0v7 M-2.5,-0.5L0,-3.0L2.5,-0.5"/>
  </g>
  <g id="resetDef">
    <use xlink:href="#rim2" fill="#404040"><set attributeName="fill" to="#808080" begin="reset.mouseover" end="reset.mouseout"/></use>
  </g>
</defs>
<script type="application/ecmascript">
var viewWidth = 1562;
var viewHeight = 412;
var sectionId = 'dynsection-0';
</script>
<script type="application/ecmascript" xlink:href="../../svg.min.js"/>
<svg id="graph" class="graph">
<g id="viewport">
<title>fx/video/frame_interpolator.h</title>
<!-- Node1 -->
<g id="Node000001" class="node">
<title>Node1</title>
<g id="a_Node000001"><a xlink:title=" ">
<polygon fill="#999999" stroke="#666666" points="1519.5,-404 1360.5,-404 1360.5,-385 1519.5,-385 1519.5,-404"/>
<text text-anchor="middle" x="1440" y="-392" font-family="Helvetica,sans-Serif" font-size="10.00">fx/video/frame_interpolator.h</text>
</a>
</g>
</g>
<!-- Node2 -->
<g id="Node000002" class="node">
<title>Node2</title>
<g id="a_Node000002"><a xlink:href="../../dc/db7/map_8h.html" target="_top" xlink:title=" ">
<polygon fill="white" stroke="#666666" points="349,-349 293,-349 293,-330 349,-330 349,-349"/>
<text text-anchor="middle" x="321" y="-337" font-family="Helvetica,sans-Serif" font-size="10.00">fl/map.h</text>
</a>
</g>
</g>
<!-- Node1&#45;&gt;Node2 -->
<g id="edge1_Node000001_Node000002" class="edge">
<title>Node1&#45;&gt;Node2</title>
<g id="a_edge1_Node000001_Node000002"><a xlink:title=" ">
<path fill="none" stroke="#63b8ff" d="M1360.42,-389.73C1138.83,-379.24 520.42,-349.95 359.62,-342.33"/>
<polygon fill="#63b8ff" stroke="#63b8ff" points="359.42,-338.82 349.27,-341.84 359.09,-345.81 359.42,-338.82"/>
</a>
</g>
</g>
<!-- Node5 -->
<g id="Node000005" class="node">
<title>Node5</title>
<g id="a_Node000005"><a xlink:href="../../df/d2a/namespace_8h.html" target="_top" xlink:title="Implements the FastLED namespace macros.">
<polygon fill="white" stroke="#666666" points="1217.5,-19 1126.5,-19 1126.5,0 1217.5,0 1217.5,-19"/>
<text text-anchor="middle" x="1172" y="-7" font-family="Helvetica,sans-Serif" font-size="10.00">fl/namespace.h</text>
</a>
</g>
</g>
<!-- Node1&#45;&gt;Node5 -->
<g id="edge76_Node000001_Node000005" class="edge">
<title>Node1&#45;&gt;Node5</title>
<g id="a_edge76_Node000001_Node000005"><a xlink:title=" ">
<path fill="none" stroke="#63b8ff" d="M1461.18,-384.95C1494.14,-370.06 1554,-336.07 1554,-285.5 1554,-285.5 1554,-285.5 1554,-118.5 1554,-85.15 1542.1,-72.97 1514,-55 1467.76,-25.42 1312.32,-15.39 1227.82,-12.07"/>
<polygon fill="#63b8ff" stroke="#63b8ff" points="1227.76,-8.57 1217.63,-11.69 1227.49,-15.56 1227.76,-8.57"/>
</a>
</g>
</g>
<!-- Node25 -->
<g id="Node000025" class="node">
<title>Node25</title>
<g id="a_Node000025"><a xlink:href="../../d3/dfa/pixel__stream_8h.html" target="_top" xlink:title=" ">
<polygon fill="white" stroke="#666666" points="1095.5,-349 964.5,-349 964.5,-330 1095.5,-330 1095.5,-349"/>
<text text-anchor="middle" x="1030" y="-337" font-family="Helvetica,sans-Serif" font-size="10.00">fx/video/pixel_stream.h</text>
</a>
</g>
</g>
<!-- Node1&#45;&gt;Node25 -->
<g id="edge37_Node000001_Node000025" class="edge">
<title>Node1&#45;&gt;Node25</title>
<g id="a_edge37_Node000001_Node000025"><a xlink:title=" ">
<path fill="none" stroke="#63b8ff" d="M1374.13,-384.98C1300.9,-375.52 1182.84,-360.26 1105.83,-350.3"/>
<polygon fill="#63b8ff" stroke="#63b8ff" points="1106.08,-346.81 1095.71,-348.99 1105.18,-353.75 1106.08,-346.81"/>
</a>
</g>
</g>
<!-- Node39 -->
<g id="Node000039" class="node">
<title>Node39</title>
<g id="a_Node000039"><a xlink:href="../../df/d7d/frame_8h.html" target="_top" xlink:title=" ">
<polygon fill="white" stroke="#666666" points="1203,-239 1135,-239 1135,-220 1203,-220 1203,-239"/>
<text text-anchor="middle" x="1169" y="-227" font-family="Helvetica,sans-Serif" font-size="10.00">fx/frame.h</text>
</a>
</g>
</g>
<!-- Node1&#45;&gt;Node39 -->
<g id="edge72_Node000001_Node000039" class="edge">
<title>Node1&#45;&gt;Node39</title>
<g id="a_edge72_Node000001_Node000039"><a xlink:title=" ">
<path fill="none" stroke="#63b8ff" d="M1425.81,-384.97C1381.65,-358.4 1246.33,-277.01 1191.96,-244.31"/>
<polygon fill="#63b8ff" stroke="#63b8ff" points="1193.75,-241.3 1183.38,-239.15 1190.14,-247.3 1193.75,-241.3"/>
</a>
</g>
</g>
<!-- Node41 -->
<g id="Node000041" class="node">
<title>Node41</title>
<g id="a_Node000041"><a xlink:href="../../d2/df7/frame__tracker_8h.html" target="_top" xlink:title=" ">
<polygon fill="white" stroke="#666666" points="1336,-74 1200,-74 1200,-55 1336,-55 1336,-74"/>
<text text-anchor="middle" x="1268" y="-62" font-family="Helvetica,sans-Serif" font-size="10.00">fx/video/frame_tracker.h</text>
</a>
</g>
</g>
<!-- Node1&#45;&gt;Node41 -->
<g id="edge73_Node000001_Node000041" class="edge">
<title>Node1&#45;&gt;Node41</title>
<g id="a_edge73_Node000001_Node000041"><a xlink:title=" ">
<path fill="none" stroke="#63b8ff" d="M1435.4,-384.73C1412.32,-340.71 1309.01,-143.7 1277.29,-83.22"/>
<polygon fill="#63b8ff" stroke="#63b8ff" points="1280.28,-81.38 1272.53,-74.15 1274.08,-84.63 1280.28,-81.38"/>
</a>
</g>
</g>
<!-- Node3 -->
<g id="Node000003" class="node">
<title>Node3</title>
<g id="a_Node000003"><a xlink:title=" ">
<polygon fill="#e0e0e0" stroke="#999999" points="785.5,-19 732.5,-19 732.5,0 785.5,0 785.5,-19"/>
<text text-anchor="middle" x="759" y="-7" font-family="Helvetica,sans-Serif" font-size="10.00">stdint.h</text>
</a>
</g>
</g>
<!-- Node2&#45;&gt;Node3 -->
<g id="edge2_Node000002_Node000003" class="edge">
<title>Node2&#45;&gt;Node3</title>
<g id="a_edge2_Node000002_Node000003"><a xlink:title=" ">
<path fill="none" stroke="#63b8ff" d="M292.65,-336.62C235.96,-331.16 114,-310.15 114,-230.5 114,-230.5 114,-230.5 114,-118.5 114,-89.04 110.01,-73.42 133,-55 179.05,-18.1 595.54,-11.78 722.46,-10.72"/>
<polygon fill="#63b8ff" stroke="#63b8ff" points="722.49,-14.22 732.46,-10.64 722.43,-7.22 722.49,-14.22"/>
</a>
</g>
</g>
<!-- Node4 -->
<g id="Node000004" class="node">
<title>Node4</title>
<g id="a_Node000004"><a xlink:title=" ">
<polygon fill="#e0e0e0" stroke="#999999" points="294,-19 238,-19 238,0 294,0 294,-19"/>
<text text-anchor="middle" x="266" y="-7" font-family="Helvetica,sans-Serif" font-size="10.00">stddef.h</text>
</a>
</g>
</g>
<!-- Node2&#45;&gt;Node4 -->
<g id="edge3_Node000002_Node000004" class="edge">
<title>Node2&#45;&gt;Node4</title>
<g id="a_edge3_Node000002_Node000004"><a xlink:title=" ">
<path fill="none" stroke="#63b8ff" d="M292.79,-335.17C214.46,-325.12 0,-292.02 0,-230.5 0,-230.5 0,-230.5 0,-118.5 0,-69.95 154.08,-32.74 227.7,-17.73"/>
<polygon fill="#63b8ff" stroke="#63b8ff" points="228.42,-21.16 237.53,-15.77 227.04,-14.3 228.42,-21.16"/>
</a>
</g>
</g>
<!-- Node2&#45;&gt;Node5 -->
<g id="edge4_Node000002_Node000005" class="edge">
<title>Node2&#45;&gt;Node5</title>
<g id="a_edge4_Node000002_Node000005"><a xlink:title=" ">
<path fill="none" stroke="#63b8ff" d="M349.03,-337.59C525.72,-331.51 1478,-293.28 1478,-175.5 1478,-175.5 1478,-175.5 1478,-118.5 1478,-79.37 1451.48,-73.51 1417,-55 1357.54,-23.09 1279.5,-13.55 1227.65,-10.96"/>
<polygon fill="#63b8ff" stroke="#63b8ff" points="1227.78,-7.46 1217.64,-10.53 1227.48,-14.46 1227.78,-7.46"/>
</a>
</g>
</g>
<!-- Node6 -->
<g id="Node000006" class="node">
<title>Node6</title>
<g id="a_Node000006"><a xlink:href="../../d6/d68/vector_8h.html" target="_top" xlink:title=" ">
<polygon fill="white" stroke="#666666" points="389.5,-129 324.5,-129 324.5,-110 389.5,-110 389.5,-129"/>
<text text-anchor="middle" x="357" y="-117" font-family="Helvetica,sans-Serif" font-size="10.00">fl/vector.h</text>
</a>
</g>
</g>
<!-- Node2&#45;&gt;Node6 -->
<g id="edge5_Node000002_Node000006" class="edge">
<title>Node2&#45;&gt;Node6</title>
<g id="a_edge5_Node000002_Node000006"><a xlink:title=" ">
<path fill="none" stroke="#63b8ff" d="M311.12,-329.75C302.61,-321.5 290.95,-308.3 286,-294 275.24,-262.92 275.97,-251.32 286,-220 296.72,-186.52 323.29,-154.71 340.71,-136.43"/>
<polygon fill="#63b8ff" stroke="#63b8ff" points="343.48,-138.61 347.98,-129.02 338.48,-133.71 343.48,-138.61"/>
</a>
</g>
</g>
<!-- Node9 -->
<g id="Node000009" class="node">
<title>Node9</title>
<g id="a_Node000009"><a xlink:href="../../d1/d22/insert__result_8h.html" target="_top" xlink:title=" ">
<polygon fill="white" stroke="#666666" points="237.5,-74 142.5,-74 142.5,-55 237.5,-55 237.5,-74"/>
<text text-anchor="middle" x="190" y="-62" font-family="Helvetica,sans-Serif" font-size="10.00">fl/insert_result.h</text>
</a>
</g>
</g>
<!-- Node2&#45;&gt;Node9 -->
<g id="edge17_Node000002_Node000009" class="edge">
<title>Node2&#45;&gt;Node9</title>
<g id="a_edge17_Node000002_Node000009"><a xlink:title=" ">
<path fill="none" stroke="#63b8ff" d="M305.22,-329.79C278.69,-313.85 228,-277.27 228,-230.5 228,-230.5 228,-230.5 228,-173.5 228,-140.02 211.55,-103.84 200.3,-83.01"/>
<polygon fill="#63b8ff" stroke="#63b8ff" points="203.24,-81.1 195.28,-74.1 197.13,-84.53 203.24,-81.1"/>
</a>
</g>
</g>
<!-- Node10 -->
<g id="Node000010" class="node">
<title>Node10</title>
<g id="a_Node000010"><a xlink:href="../../d8/d0c/template__magic_8h.html" target="_top" xlink:title=" ">
<polygon fill="white" stroke="#666666" points="878,-74 764,-74 764,-55 878,-55 878,-74"/>
<text text-anchor="middle" x="821" y="-62" font-family="Helvetica,sans-Serif" font-size="10.00">fl/template_magic.h</text>
</a>
</g>
</g>
<!-- Node2&#45;&gt;Node10 -->
<g id="edge14_Node000002_Node000010" class="edge">
<title>Node2&#45;&gt;Node10</title>
<g id="a_edge14_Node000002_Node000010"><a xlink:title=" ">
<path fill="none" stroke="#63b8ff" d="M349.18,-337.16C405.32,-333.92 534.7,-323.63 639,-294 697.39,-277.41 723.21,-283.95 764,-239 804.77,-194.07 816.44,-119.36 819.73,-84.5"/>
<polygon fill="#63b8ff" stroke="#63b8ff" points="823.24,-84.56 820.56,-74.31 816.26,-83.99 823.24,-84.56"/>
</a>
</g>
</g>
<!-- Node11 -->
<g id="Node000011" class="node">
<title>Node11</title>
<g id="a_Node000011"><a xlink:href="../../d3/d41/pair_8h.html" target="_top" xlink:title=" ">
<polygon fill="white" stroke="#666666" points="347.5,-294 294.5,-294 294.5,-275 347.5,-275 347.5,-294"/>
<text text-anchor="middle" x="321" y="-282" font-family="Helvetica,sans-Serif" font-size="10.00">fl/pair.h</text>
</a>
</g>
</g>
<!-- Node2&#45;&gt;Node11 -->
<g id="edge18_Node000002_Node000011" class="edge">
<title>Node2&#45;&gt;Node11</title>
<g id="a_edge18_Node000002_Node000011"><a xlink:title=" ">
<path fill="none" stroke="#63b8ff" d="M321,-329.75C321,-322.8 321,-312.85 321,-304.13"/>
<polygon fill="#63b8ff" stroke="#63b8ff" points="324.5,-304.09 321,-294.09 317.5,-304.09 324.5,-304.09"/>
</a>
</g>
</g>
<!-- Node12 -->
<g id="Node000012" class="node">
<title>Node12</title>
<g id="a_Node000012"><a xlink:href="../../dc/da7/assert_8h.html" target="_top" xlink:title=" ">
<polygon fill="white" stroke="#666666" points="430.5,-294 365.5,-294 365.5,-275 430.5,-275 430.5,-294"/>
<text text-anchor="middle" x="398" y="-282" font-family="Helvetica,sans-Serif" font-size="10.00">fl/assert.h</text>
</a>
</g>
</g>
<!-- Node2&#45;&gt;Node12 -->
<g id="edge19_Node000002_Node000012" class="edge">
<title>Node2&#45;&gt;Node12</title>
<g id="a_edge19_Node000002_Node000012"><a xlink:title=" ">
<path fill="none" stroke="#63b8ff" d="M333.37,-329.98C345.09,-321.92 362.92,-309.65 376.89,-300.03"/>
<polygon fill="#63b8ff" stroke="#63b8ff" points="379.15,-302.72 385.4,-294.17 375.18,-296.96 379.15,-302.72"/>
</a>
</g>
</g>
<!-- Node6&#45;&gt;Node3 -->
<g id="edge6_Node000006_Node000003" class="edge">
<title>Node6&#45;&gt;Node3</title>
<g id="a_edge6_Node000006_Node000003"><a xlink:title=" ">
<path fill="none" stroke="#63b8ff" d="M363.51,-109.74C374.58,-95.55 398.58,-67.85 426,-55 477.95,-30.64 646.74,-17.44 722.09,-12.63"/>
<polygon fill="#63b8ff" stroke="#63b8ff" points="722.32,-16.13 732.08,-12.01 721.88,-9.14 722.32,-16.13"/>
</a>
</g>
</g>
<!-- Node6&#45;&gt;Node4 -->
<g id="edge7_Node000006_Node000004" class="edge">
<title>Node6&#45;&gt;Node4</title>
<g id="a_edge7_Node000006_Node000004"><a xlink:title=" ">
<path fill="none" stroke="#63b8ff" d="M334.77,-109.89C318.75,-102.61 297.78,-90.68 285,-74 275.05,-61.01 270.29,-42.86 268.02,-29.29"/>
<polygon fill="#63b8ff" stroke="#63b8ff" points="271.47,-28.62 266.65,-19.18 264.53,-29.56 271.47,-28.62"/>
</a>
</g>
</g>
<!-- Node6&#45;&gt;Node5 -->
<g id="edge9_Node000006_Node000005" class="edge">
<title>Node6&#45;&gt;Node5</title>
<g id="a_edge9_Node000006_Node000005"><a xlink:title=" ">
<path fill="none" stroke="#63b8ff" d="M389.51,-112.37C455.18,-100.15 608.4,-72.43 738,-55 873.34,-36.8 1033.3,-22.17 1116.08,-15.1"/>
<polygon fill="#63b8ff" stroke="#63b8ff" points="1116.61,-18.57 1126.27,-14.23 1116.01,-11.59 1116.61,-18.57"/>
</a>
</g>
</g>
<!-- Node7 -->
<g id="Node000007" class="node">
<title>Node7</title>
<g id="a_Node000007"><a xlink:href="../../db/d36/inplacenew_8h.html" target="_top" xlink:title=" ">
<polygon fill="white" stroke="#666666" points="374,-74 294,-74 294,-55 374,-55 374,-74"/>
<text text-anchor="middle" x="334" y="-62" font-family="Helvetica,sans-Serif" font-size="10.00">inplacenew.h</text>
</a>
</g>
</g>
<!-- Node6&#45;&gt;Node7 -->
<g id="edge8_Node000006_Node000007" class="edge">
<title>Node6&#45;&gt;Node7</title>
<g id="a_edge8_Node000006_Node000007"><a xlink:title=" ">
<path fill="none" stroke="#63b8ff" d="M353.2,-109.75C350.09,-102.57 345.58,-92.18 341.71,-83.27"/>
<polygon fill="#63b8ff" stroke="#63b8ff" points="344.92,-81.87 337.73,-74.09 338.5,-84.66 344.92,-81.87"/>
</a>
</g>
</g>
<!-- Node8 -->
<g id="Node000008" class="node">
<title>Node8</title>
<g id="a_Node000008"><a xlink:href="../../df/d28/fl_2scoped__ptr_8h.html" target="_top" xlink:title=" ">
<polygon fill="white" stroke="#666666" points="555.5,-74 468.5,-74 468.5,-55 555.5,-55 555.5,-74"/>
<text text-anchor="middle" x="512" y="-62" font-family="Helvetica,sans-Serif" font-size="10.00">fl/scoped_ptr.h</text>
</a>
</g>
</g>
<!-- Node6&#45;&gt;Node8 -->
<g id="edge10_Node000006_Node000008" class="edge">
<title>Node6&#45;&gt;Node8</title>
<g id="a_edge10_Node000006_Node000008"><a xlink:title=" ">
<path fill="none" stroke="#63b8ff" d="M381.9,-109.98C407.7,-101.16 448.22,-87.31 477.18,-77.41"/>
<polygon fill="#63b8ff" stroke="#63b8ff" points="478.57,-80.63 486.9,-74.08 476.31,-74.01 478.57,-80.63"/>
</a>
</g>
</g>
<!-- Node6&#45;&gt;Node9 -->
<g id="edge13_Node000006_Node000009" class="edge">
<title>Node6&#45;&gt;Node9</title>
<g id="a_edge13_Node000006_Node000009"><a xlink:title=" ">
<path fill="none" stroke="#63b8ff" d="M330.17,-109.98C302.13,-101.09 257.95,-87.07 226.7,-77.15"/>
<polygon fill="#63b8ff" stroke="#63b8ff" points="227.63,-73.77 217.04,-74.08 225.51,-80.44 227.63,-73.77"/>
</a>
</g>
</g>
<!-- Node8&#45;&gt;Node4 -->
<g id="edge11_Node000008_Node000004" class="edge">
<title>Node8&#45;&gt;Node4</title>
<g id="a_edge11_Node000008_Node000004"><a xlink:title=" ">
<path fill="none" stroke="#63b8ff" d="M472.48,-54.98C426.14,-45 349.86,-28.57 304.13,-18.72"/>
<polygon fill="#63b8ff" stroke="#63b8ff" points="304.82,-15.28 294.31,-16.6 303.35,-22.13 304.82,-15.28"/>
</a>
</g>
</g>
<!-- Node8&#45;&gt;Node5 -->
<g id="edge12_Node000008_Node000005" class="edge">
<title>Node8&#45;&gt;Node5</title>
<g id="a_edge12_Node000008_Node000005"><a xlink:title=" ">
<path fill="none" stroke="#63b8ff" d="M555.96,-59.52C572.3,-58.06 590.99,-56.42 608,-55 794.18,-39.41 1015.07,-22.42 1116.3,-14.72"/>
<polygon fill="#63b8ff" stroke="#63b8ff" points="1116.59,-18.21 1126.3,-13.96 1116.06,-11.23 1116.59,-18.21"/>
</a>
</g>
</g>
<!-- Node10&#45;&gt;Node3 -->
<g id="edge15_Node000010_Node000003" class="edge">
<title>Node10&#45;&gt;Node3</title>
<g id="a_edge15_Node000010_Node000003"><a xlink:title=" ">
<path fill="none" stroke="#63b8ff" d="M811.04,-54.98C801.87,-47.15 788.06,-35.34 776.97,-25.86"/>
<polygon fill="#63b8ff" stroke="#63b8ff" points="779.02,-23.01 769.14,-19.17 774.47,-28.33 779.02,-23.01"/>
</a>
</g>
</g>
<!-- Node10&#45;&gt;Node5 -->
<g id="edge16_Node000010_Node000005" class="edge">
<title>Node10&#45;&gt;Node5</title>
<g id="a_edge16_Node000010_Node000005"><a xlink:title=" ">
<path fill="none" stroke="#63b8ff" d="M877.39,-54.98C943.06,-45.07 1050.86,-28.79 1116.25,-18.92"/>
<polygon fill="#63b8ff" stroke="#63b8ff" points="1117,-22.34 1126.37,-17.39 1115.96,-15.42 1117,-22.34"/>
</a>
</g>
</g>
<!-- Node13 -->
<g id="Node000013" class="node">
<title>Node13</title>
<g id="a_Node000013"><a xlink:href="../../de/d77/warn_8h.html" target="_top" xlink:title=" ">
<polygon fill="#fff0f0" stroke="red" points="353.5,-239 294.5,-239 294.5,-220 353.5,-220 353.5,-239"/>
<text text-anchor="middle" x="324" y="-227" font-family="Helvetica,sans-Serif" font-size="10.00">fl/warn.h</text>
</a>
</g>
</g>
<!-- Node12&#45;&gt;Node13 -->
<g id="edge20_Node000012_Node000013" class="edge">
<title>Node12&#45;&gt;Node13</title>
<g id="a_edge20_Node000012_Node000013"><a xlink:title=" ">
<path fill="none" stroke="#63b8ff" d="M386.11,-274.98C374.85,-266.92 357.71,-254.65 344.29,-245.03"/>
<polygon fill="#63b8ff" stroke="#63b8ff" points="346.27,-242.15 336.11,-239.17 342.2,-247.84 346.27,-242.15"/>
</a>
</g>
</g>
<!-- Node15 -->
<g id="Node000015" class="node">
<title>Node15</title>
<g id="a_Node000015"><a xlink:href="../../d8/d00/strstream_8h.html" target="_top" xlink:title=" ">
<polygon fill="white" stroke="#666666" points="755,-239 673,-239 673,-220 755,-220 755,-239"/>
<text text-anchor="middle" x="714" y="-227" font-family="Helvetica,sans-Serif" font-size="10.00">fl/strstream.h</text>
</a>
</g>
</g>
<!-- Node12&#45;&gt;Node15 -->
<g id="edge21_Node000012_Node000015" class="edge">
<title>Node12&#45;&gt;Node15</title>
<g id="a_edge21_Node000012_Node000015"><a xlink:title=" ">
<path fill="none" stroke="#63b8ff" d="M430.63,-278.03C485.64,-268.8 597.23,-250.08 662.77,-239.09"/>
<polygon fill="#63b8ff" stroke="#63b8ff" points="663.59,-242.5 672.87,-237.4 662.43,-235.6 663.59,-242.5"/>
</a>
</g>
</g>
<!-- Node16 -->
<g id="Node000016" class="node">
<title>Node16</title>
<g id="a_Node000016"><a xlink:href="../../db/dd1/crgb_8h.html" target="_top" xlink:title="Defines the red, green, and blue (RGB) pixel struct.">
<polygon fill="#fff0f0" stroke="red" points="1052.5,-129 1005.5,-129 1005.5,-110 1052.5,-110 1052.5,-129"/>
<text text-anchor="middle" x="1029" y="-117" font-family="Helvetica,sans-Serif" font-size="10.00">crgb.h</text>
</a>
</g>
</g>
<!-- Node15&#45;&gt;Node16 -->
<g id="edge22_Node000015_Node000016" class="edge">
<title>Node15&#45;&gt;Node16</title>
<g id="a_edge22_Node000015_Node000016"><a xlink:title=" ">
<path fill="none" stroke="#63b8ff" d="M755.24,-224.77C818.58,-218.5 936.35,-204.46 973,-184 992.58,-173.07 1008.72,-152.61 1018.55,-137.87"/>
<polygon fill="#63b8ff" stroke="#63b8ff" points="1021.68,-139.48 1024.08,-129.16 1015.77,-135.72 1021.68,-139.48"/>
</a>
</g>
</g>
<!-- Node21 -->
<g id="Node000021" class="node">
<title>Node21</title>
<g id="a_Node000021"><a xlink:href="../../dc/d0e/fl_2str_8h.html" target="_top" xlink:title=" ">
<polygon fill="#fff0f0" stroke="red" points="733,-184 695,-184 695,-165 733,-165 733,-184"/>
<text text-anchor="middle" x="714" y="-172" font-family="Helvetica,sans-Serif" font-size="10.00">str.h</text>
</a>
</g>
</g>
<!-- Node15&#45;&gt;Node21 -->
<g id="edge26_Node000015_Node000021" class="edge">
<title>Node15&#45;&gt;Node21</title>
<g id="a_edge26_Node000015_Node000021"><a xlink:title=" ">
<path fill="none" stroke="#63b8ff" d="M714,-219.75C714,-212.8 714,-202.85 714,-194.13"/>
<polygon fill="#63b8ff" stroke="#63b8ff" points="717.5,-194.09 714,-184.09 710.5,-194.09 717.5,-194.09"/>
</a>
</g>
</g>
<!-- Node16&#45;&gt;Node3 -->
<g id="edge23_Node000016_Node000003" class="edge">
<title>Node16&#45;&gt;Node3</title>
<g id="a_edge23_Node000016_Node000003"><a xlink:title=" ">
<path fill="none" stroke="#63b8ff" d="M1021.73,-109.56C1009.9,-95.63 985.06,-68.91 958,-55 905.58,-28.05 837.16,-17.33 795.74,-13.13"/>
<polygon fill="#63b8ff" stroke="#63b8ff" points="795.84,-9.63 785.56,-12.18 795.19,-16.6 795.84,-9.63"/>
</a>
</g>
</g>
<!-- Node16&#45;&gt;Node5 -->
<g id="edge24_Node000016_Node000005" class="edge">
<title>Node16&#45;&gt;Node5</title>
<g id="a_edge24_Node000016_Node000005"><a xlink:title=" ">
<path fill="none" stroke="#63b8ff" d="M1040.7,-109.66C1065.23,-91.14 1122.25,-48.08 1152.44,-25.28"/>
<polygon fill="#63b8ff" stroke="#63b8ff" points="1154.67,-27.98 1160.54,-19.16 1150.45,-22.39 1154.67,-27.98"/>
</a>
</g>
</g>
<!-- Node16&#45;&gt;Node10 -->
<g id="edge25_Node000016_Node000010" class="edge">
<title>Node16&#45;&gt;Node10</title>
<g id="a_edge25_Node000016_Node000010"><a xlink:title=" ">
<path fill="none" stroke="#63b8ff" d="M1005.14,-112.42C970.86,-103.69 907.11,-87.44 864.36,-76.55"/>
<polygon fill="#63b8ff" stroke="#63b8ff" points="865.06,-73.12 854.51,-74.04 863.34,-79.9 865.06,-73.12"/>
</a>
</g>
</g>
<!-- Node21&#45;&gt;Node3 -->
<g id="edge28_Node000021_Node000003" class="edge">
<title>Node21&#45;&gt;Node3</title>
<g id="a_edge28_Node000021_Node000003"><a xlink:title=" ">
<path fill="none" stroke="#63b8ff" d="M710.4,-164.76C705.81,-152.42 699.04,-129.24 704,-110 712.14,-78.47 732.63,-46.25 746.18,-27.33"/>
<polygon fill="#63b8ff" stroke="#63b8ff" points="749.07,-29.29 752.18,-19.17 743.43,-25.15 749.07,-29.29"/>
</a>
</g>
</g>
<!-- Node21&#45;&gt;Node5 -->
<g id="edge36_Node000021_Node000005" class="edge">
<title>Node21&#45;&gt;Node5</title>
<g id="a_edge36_Node000021_Node000005"><a xlink:title=" ">
<path fill="none" stroke="#63b8ff" d="M733.1,-166.7C803.43,-141.67 1048.57,-54.43 1138.55,-22.4"/>
<polygon fill="#63b8ff" stroke="#63b8ff" points="1139.75,-25.69 1148,-19.04 1137.4,-19.1 1139.75,-25.69"/>
</a>
</g>
</g>
<!-- Node21&#45;&gt;Node6 -->
<g id="edge35_Node000021_Node000006" class="edge">
<title>Node21&#45;&gt;Node6</title>
<g id="a_edge35_Node000021_Node000006"><a xlink:title=" ">
<path fill="none" stroke="#63b8ff" d="M694.81,-170.65C639.23,-162.4 477.18,-138.34 399.49,-126.81"/>
<polygon fill="#63b8ff" stroke="#63b8ff" points="399.96,-123.34 389.56,-125.33 398.94,-130.26 399.96,-123.34"/>
</a>
</g>
</g>
<!-- Node21&#45;&gt;Node10 -->
<g id="edge34_Node000021_Node000010" class="edge">
<title>Node21&#45;&gt;Node10</title>
<g id="a_edge34_Node000021_Node000010"><a xlink:title=" ">
<path fill="none" stroke="#63b8ff" d="M725.96,-164.94C737.51,-156.43 755.24,-142.68 769,-129 783.78,-114.31 798.64,-95.68 808.67,-82.4"/>
<polygon fill="#63b8ff" stroke="#63b8ff" points="811.62,-84.3 814.78,-74.19 806.01,-80.12 811.62,-84.3"/>
</a>
</g>
</g>
<!-- Node22 -->
<g id="Node000022" class="node">
<title>Node22</title>
<g id="a_Node000022"><a xlink:title=" ">
<polygon fill="#e0e0e0" stroke="#999999" points="1162.5,-129 1109.5,-129 1109.5,-110 1162.5,-110 1162.5,-129"/>
<text text-anchor="middle" x="1136" y="-117" font-family="Helvetica,sans-Serif" font-size="10.00">string.h</text>
</a>
</g>
</g>
<!-- Node21&#45;&gt;Node22 -->
<g id="edge27_Node000021_Node000022" class="edge">
<title>Node21&#45;&gt;Node22</title>
<g id="a_edge27_Node000021_Node000022"><a xlink:title=" ">
<path fill="none" stroke="#63b8ff" d="M733.23,-171.08C798.55,-162.88 1012.65,-135.99 1099.2,-125.12"/>
<polygon fill="#63b8ff" stroke="#63b8ff" points="1099.86,-128.57 1109.35,-123.85 1098.99,-121.62 1099.86,-128.57"/>
</a>
</g>
</g>
<!-- Node23 -->
<g id="Node000023" class="node">
<title>Node23</title>
<g id="a_Node000023"><a xlink:href="../../d7/df1/fl_2ptr_8h.html" target="_top" xlink:title=" ">
<polygon fill="white" stroke="#666666" points="759.5,-129 712.5,-129 712.5,-110 759.5,-110 759.5,-129"/>
<text text-anchor="middle" x="736" y="-117" font-family="Helvetica,sans-Serif" font-size="10.00">fl/ptr.h</text>
</a>
</g>
</g>
<!-- Node21&#45;&gt;Node23 -->
<g id="edge29_Node000021_Node000023" class="edge">
<title>Node21&#45;&gt;Node23</title>
<g id="a_edge29_Node000021_Node000023"><a xlink:title=" ">
<path fill="none" stroke="#63b8ff" d="M717.63,-164.75C720.58,-157.65 724.83,-147.4 728.51,-138.56"/>
<polygon fill="#63b8ff" stroke="#63b8ff" points="731.83,-139.67 732.43,-129.09 725.37,-136.98 731.83,-139.67"/>
</a>
</g>
</g>
<!-- Node23&#45;&gt;Node4 -->
<g id="edge30_Node000023_Node000004" class="edge">
<title>Node23&#45;&gt;Node4</title>
<g id="a_edge30_Node000023_Node000004"><a xlink:title=" ">
<path fill="none" stroke="#63b8ff" d="M716.93,-109.92C685.78,-96.25 621.74,-69.59 565,-55 472.89,-31.32 361.35,-18.86 304.05,-13.61"/>
<polygon fill="#63b8ff" stroke="#63b8ff" points="304.28,-10.12 294,-12.71 303.65,-17.09 304.28,-10.12"/>
</a>
</g>
</g>
<!-- Node23&#45;&gt;Node5 -->
<g id="edge31_Node000023_Node000005" class="edge">
<title>Node23&#45;&gt;Node5</title>
<g id="a_edge31_Node000023_Node000005"><a xlink:title=" ">
<path fill="none" stroke="#63b8ff" d="M735.79,-109.92C735.97,-96 738.54,-68.68 755,-55 782.24,-32.38 1008.85,-18.44 1116.12,-13.05"/>
<polygon fill="#63b8ff" stroke="#63b8ff" points="1116.61,-16.53 1126.42,-12.54 1116.26,-9.54 1116.61,-16.53"/>
</a>
</g>
</g>
<!-- Node23&#45;&gt;Node8 -->
<g id="edge32_Node000023_Node000008" class="edge">
<title>Node23&#45;&gt;Node8</title>
<g id="a_edge32_Node000023_Node000008"><a xlink:title=" ">
<path fill="none" stroke="#63b8ff" d="M712.45,-112.93C675.93,-104.29 604.96,-87.49 558.01,-76.39"/>
<polygon fill="#63b8ff" stroke="#63b8ff" points="558.63,-72.94 548.09,-74.04 557.02,-79.75 558.63,-72.94"/>
</a>
</g>
</g>
<!-- Node23&#45;&gt;Node10 -->
<g id="edge33_Node000023_Node000010" class="edge">
<title>Node23&#45;&gt;Node10</title>
<g id="a_edge33_Node000023_Node000010"><a xlink:title=" ">
<path fill="none" stroke="#63b8ff" d="M749.66,-109.98C762.84,-101.77 783.03,-89.18 798.57,-79.49"/>
<polygon fill="#63b8ff" stroke="#63b8ff" points="800.46,-82.43 807.09,-74.17 796.76,-76.49 800.46,-82.43"/>
</a>
</g>
</g>
<!-- Node25&#45;&gt;Node5 -->
<g id="edge38_Node000025_Node000005" class="edge">
<title>Node25&#45;&gt;Node5</title>
<g id="a_edge38_Node000025_Node000005"><a xlink:title=" ">
<path fill="none" stroke="#63b8ff" d="M1095.75,-336.38C1166.7,-332.65 1282.38,-322.36 1378,-294 1455.51,-271.01 1516,-256.34 1516,-175.5 1516,-175.5 1516,-175.5 1516,-118.5 1516,-88.33 1515.58,-73.83 1492,-55 1452.36,-23.35 1308.98,-14.21 1228.25,-11.57"/>
<polygon fill="#63b8ff" stroke="#63b8ff" points="1227.87,-8.06 1217.77,-11.25 1227.66,-15.05 1227.87,-8.06"/>
</a>
</g>
</g>
<!-- Node25&#45;&gt;Node16 -->
<g id="edge39_Node000025_Node000016" class="edge">
<title>Node25&#45;&gt;Node16</title>
<g id="a_edge39_Node000025_Node000016"><a xlink:title=" ">
<path fill="none" stroke="#63b8ff" d="M1029.96,-329.95C1029.81,-297.95 1029.29,-184.68 1029.09,-139.4"/>
<polygon fill="#63b8ff" stroke="#63b8ff" points="1032.59,-139.21 1029.04,-129.22 1025.59,-139.24 1032.59,-139.21"/>
</a>
</g>
</g>
<!-- Node25&#45;&gt;Node23 -->
<g id="edge40_Node000025_Node000023" class="edge">
<title>Node25&#45;&gt;Node23</title>
<g id="a_edge40_Node000025_Node000023"><a xlink:title=" ">
<path fill="none" stroke="#63b8ff" d="M1016.96,-329.79C982.73,-306.82 887.71,-242.31 812,-184 791.54,-168.24 768.93,-149.12 753.73,-136"/>
<polygon fill="#63b8ff" stroke="#63b8ff" points="755.96,-133.3 746.11,-129.39 751.37,-138.59 755.96,-133.3"/>
</a>
</g>
</g>
<!-- Node26 -->
<g id="Node000026" class="node">
<title>Node26</title>
<g id="a_Node000026"><a xlink:href="../../dd/d2b/bytestream_8h.html" target="_top" xlink:title=" ">
<polygon fill="white" stroke="#666666" points="963.5,-184 872.5,-184 872.5,-165 963.5,-165 963.5,-184"/>
<text text-anchor="middle" x="918" y="-172" font-family="Helvetica,sans-Serif" font-size="10.00">fl/bytestream.h</text>
</a>
</g>
</g>
<!-- Node25&#45;&gt;Node26 -->
<g id="edge41_Node000025_Node000026" class="edge">
<title>Node25&#45;&gt;Node26</title>
<g id="a_edge41_Node000025_Node000026"><a xlink:title=" ">
<path fill="none" stroke="#63b8ff" d="M1023.98,-329.74C1006.2,-303.87 953.72,-227.48 929.94,-192.88"/>
<polygon fill="#63b8ff" stroke="#63b8ff" points="932.6,-190.57 924.05,-184.31 926.83,-194.53 932.6,-190.57"/>
</a>
</g>
</g>
<!-- Node27 -->
<g id="Node000027" class="node">
<title>Node27</title>
<g id="a_Node000027"><a xlink:href="../../d9/d28/fl_2file__system_8h.html" target="_top" xlink:title=" ">
<polygon fill="white" stroke="#666666" points="629.5,-294 538.5,-294 538.5,-275 629.5,-275 629.5,-294"/>
<text text-anchor="middle" x="584" y="-282" font-family="Helvetica,sans-Serif" font-size="10.00">fl/file_system.h</text>
</a>
</g>
</g>
<!-- Node25&#45;&gt;Node27 -->
<g id="edge47_Node000025_Node000027" class="edge">
<title>Node25&#45;&gt;Node27</title>
<g id="a_edge47_Node000025_Node000027"><a xlink:title=" ">
<path fill="none" stroke="#63b8ff" d="M964.19,-330.68C876.35,-320.24 722.32,-301.94 639.85,-292.14"/>
<polygon fill="#63b8ff" stroke="#63b8ff" points="640.02,-288.63 629.67,-290.93 639.19,-295.58 640.02,-288.63"/>
</a>
</g>
</g>
<!-- Node25&#45;&gt;Node39 -->
<g id="edge58_Node000025_Node000039" class="edge">
<title>Node25&#45;&gt;Node39</title>
<g id="a_edge58_Node000025_Node000039"><a xlink:title=" ">
<path fill="none" stroke="#63b8ff" d="M1041.37,-329.66C1065.11,-311.22 1120.16,-268.45 1149.6,-245.57"/>
<polygon fill="#63b8ff" stroke="#63b8ff" points="1152.11,-248.06 1157.86,-239.16 1147.81,-242.53 1152.11,-248.06"/>
</a>
</g>
</g>
<!-- Node26&#45;&gt;Node3 -->
<g id="edge43_Node000026_Node000003" class="edge">
<title>Node26&#45;&gt;Node3</title>
<g id="a_edge43_Node000026_Node000003"><a xlink:title=" ">
<path fill="none" stroke="#63b8ff" d="M918.33,-164.76C918.65,-143.19 916.44,-86.86 887,-55 863.39,-29.46 824.36,-18.57 795.59,-13.94"/>
<polygon fill="#63b8ff" stroke="#63b8ff" points="795.9,-10.45 785.51,-12.5 794.91,-17.38 795.9,-10.45"/>
</a>
</g>
</g>
<!-- Node26&#45;&gt;Node4 -->
<g id="edge42_Node000026_Node000004" class="edge">
<title>Node26&#45;&gt;Node4</title>
<g id="a_edge42_Node000026_Node000004"><a xlink:title=" ">
<path fill="none" stroke="#63b8ff" d="M872.44,-171.42C751.22,-165.69 422.79,-148.75 316,-129 232.49,-113.56 183.68,-142.15 133,-74 106.04,-37.75 179.52,-21.3 227.73,-14.58"/>
<polygon fill="#63b8ff" stroke="#63b8ff" points="228.42,-18.02 237.88,-13.25 227.51,-11.08 228.42,-18.02"/>
</a>
</g>
</g>
<!-- Node26&#45;&gt;Node5 -->
<g id="edge44_Node000026_Node000005" class="edge">
<title>Node26&#45;&gt;Node5</title>
<g id="a_edge44_Node000026_Node000005"><a xlink:title=" ">
<path fill="none" stroke="#63b8ff" d="M927.9,-164.85C942.56,-152.21 971.09,-128.22 997,-110 1035.35,-83.04 1046.21,-78.11 1087,-55 1106.38,-44.02 1128.72,-32.37 1145.62,-23.74"/>
<polygon fill="#63b8ff" stroke="#63b8ff" points="1147.55,-26.68 1154.89,-19.04 1144.39,-20.44 1147.55,-26.68"/>
</a>
</g>
</g>
<!-- Node26&#45;&gt;Node16 -->
<g id="edge46_Node000026_Node000016" class="edge">
<title>Node26&#45;&gt;Node16</title>
<g id="a_edge46_Node000026_Node000016"><a xlink:title=" ">
<path fill="none" stroke="#63b8ff" d="M935.83,-164.98C953.61,-156.5 981.15,-143.35 1001.68,-133.54"/>
<polygon fill="#63b8ff" stroke="#63b8ff" points="1003.33,-136.64 1010.84,-129.17 1000.31,-130.32 1003.33,-136.64"/>
</a>
</g>
</g>
<!-- Node26&#45;&gt;Node23 -->
<g id="edge45_Node000026_Node000023" class="edge">
<title>Node26&#45;&gt;Node23</title>
<g id="a_edge45_Node000026_Node000023"><a xlink:title=" ">
<path fill="none" stroke="#63b8ff" d="M888.76,-164.98C856.25,-155.52 803.83,-140.25 769.64,-130.3"/>
<polygon fill="#63b8ff" stroke="#63b8ff" points="770.24,-126.83 759.66,-127.39 768.28,-133.55 770.24,-126.83"/>
</a>
</g>
</g>
<!-- Node27&#45;&gt;Node3 -->
<g id="edge48_Node000027_Node000003" class="edge">
<title>Node27&#45;&gt;Node3</title>
<g id="a_edge48_Node000027_Node000003"><a xlink:title=" ">
<path fill="none" stroke="#63b8ff" d="M551.68,-274.91C509.23,-261.44 440,-230.97 440,-175.5 440,-175.5 440,-175.5 440,-118.5 440,-88.91 437.5,-74.21 460,-55 498.72,-21.94 650.52,-13.43 721.74,-11.25"/>
<polygon fill="#63b8ff" stroke="#63b8ff" points="722.14,-14.74 732.04,-10.96 721.95,-7.74 722.14,-14.74"/>
</a>
</g>
</g>
<!-- Node27&#45;&gt;Node4 -->
<g id="edge49_Node000027_Node000004" class="edge">
<title>Node27&#45;&gt;Node4</title>
<g id="a_edge49_Node000027_Node000004"><a xlink:title=" ">
<path fill="none" stroke="#63b8ff" d="M557.78,-274.97C531.25,-266.26 489.11,-252.17 453,-239 299.32,-182.96 180.64,-227.46 124,-74 107.58,-29.51 180.51,-16.18 227.93,-12.19"/>
<polygon fill="#63b8ff" stroke="#63b8ff" points="228.2,-15.68 237.91,-11.46 227.68,-8.7 228.2,-15.68"/>
</a>
</g>
</g>
<!-- Node27&#45;&gt;Node5 -->
<g id="edge50_Node000027_Node000005" class="edge">
<title>Node27&#45;&gt;Node5</title>
<g id="a_edge50_Node000027_Node000005"><a xlink:title=" ">
<path fill="none" stroke="#63b8ff" d="M629.78,-281.91C754.9,-277.3 1100.69,-262.73 1212,-239 1281.85,-224.11 1305.95,-226.98 1363,-184 1410.36,-148.32 1437.07,-98.7 1397,-55 1374.72,-30.71 1287.16,-19.22 1228.06,-14.14"/>
<polygon fill="#63b8ff" stroke="#63b8ff" points="1228,-10.62 1217.75,-13.29 1227.43,-17.6 1228,-10.62"/>
</a>
</g>
</g>
<!-- Node27&#45;&gt;Node21 -->
<g id="edge57_Node000027_Node000021" class="edge">
<title>Node27&#45;&gt;Node21</title>
<g id="a_edge57_Node000027_Node000021"><a xlink:title=" ">
<path fill="none" stroke="#63b8ff" d="M594.64,-274.66C616.84,-256.22 668.33,-213.45 695.86,-190.57"/>
<polygon fill="#63b8ff" stroke="#63b8ff" points="698.12,-193.24 703.58,-184.16 693.65,-187.86 698.12,-193.24"/>
</a>
</g>
</g>
<!-- Node27&#45;&gt;Node23 -->
<g id="edge51_Node000027_Node000023" class="edge">
<title>Node27&#45;&gt;Node23</title>
<g id="a_edge51_Node000027_Node000023"><a xlink:title=" ">
<path fill="none" stroke="#63b8ff" d="M571.56,-274.99C555.5,-262.91 530.99,-240.03 543,-220 577.44,-162.56 657.03,-136.93 702.52,-126.61"/>
<polygon fill="#63b8ff" stroke="#63b8ff" points="703.45,-129.99 712.49,-124.48 701.98,-123.15 703.45,-129.99"/>
</a>
</g>
</g>
<!-- Node28 -->
<g id="Node000028" class="node">
<title>Node28</title>
<g id="a_Node000028"><a xlink:href="../../dd/d78/video_8h.html" target="_top" xlink:title=" ">
<polygon fill="#fff0f0" stroke="red" points="616.5,-239 551.5,-239 551.5,-220 616.5,-220 616.5,-239"/>
<text text-anchor="middle" x="584" y="-227" font-family="Helvetica,sans-Serif" font-size="10.00">fx/video.h</text>
</a>
</g>
</g>
<!-- Node27&#45;&gt;Node28 -->
<g id="edge52_Node000027_Node000028" class="edge">
<title>Node27&#45;&gt;Node28</title>
<g id="a_edge52_Node000027_Node000028"><a xlink:title=" ">
<path fill="none" stroke="#63b8ff" d="M584,-274.75C584,-267.8 584,-257.85 584,-249.13"/>
<polygon fill="#63b8ff" stroke="#63b8ff" points="587.5,-249.09 584,-239.09 580.5,-249.09 587.5,-249.09"/>
</a>
</g>
</g>
<!-- Node28&#45;&gt;Node3 -->
<g id="edge53_Node000028_Node000003" class="edge">
<title>Node28&#45;&gt;Node3</title>
<g id="a_edge53_Node000028_Node000003"><a xlink:title=" ">
<path fill="none" stroke="#63b8ff" d="M589.8,-219.85C607.34,-193.91 661.81,-114.86 714,-55 722.73,-44.98 733.26,-34.49 741.94,-26.22"/>
<polygon fill="#63b8ff" stroke="#63b8ff" points="744.39,-28.72 749.28,-19.32 739.6,-23.62 744.39,-28.72"/>
</a>
</g>
</g>
<!-- Node28&#45;&gt;Node5 -->
<g id="edge54_Node000028_Node000005" class="edge">
<title>Node28&#45;&gt;Node5</title>
<g id="a_edge54_Node000028_Node000005"><a xlink:title=" ">
<path fill="none" stroke="#63b8ff" d="M616.66,-224.66C631.15,-223.05 648.41,-221.26 664,-220 735.32,-214.22 1249.91,-227.14 1307,-184 1354.69,-147.97 1381.62,-102.23 1345,-55 1330.6,-36.43 1272.63,-24.25 1227.72,-17.41"/>
<polygon fill="#63b8ff" stroke="#63b8ff" points="1228.18,-13.94 1217.77,-15.94 1227.16,-20.86 1228.18,-13.94"/>
</a>
</g>
</g>
<!-- Node28&#45;&gt;Node21 -->
<g id="edge56_Node000028_Node000021" class="edge">
<title>Node28&#45;&gt;Node21</title>
<g id="a_edge56_Node000028_Node000021"><a xlink:title=" ">
<path fill="none" stroke="#63b8ff" d="M604.89,-219.98C626.71,-211.09 661.1,-197.07 685.44,-187.15"/>
<polygon fill="#63b8ff" stroke="#63b8ff" points="686.92,-190.32 694.86,-183.3 684.28,-183.84 686.92,-190.32"/>
</a>
</g>
</g>
<!-- Node28&#45;&gt;Node23 -->
<g id="edge55_Node000028_Node000023" class="edge">
<title>Node28&#45;&gt;Node23</title>
<g id="a_edge55_Node000028_Node000023"><a xlink:title=" ">
<path fill="none" stroke="#63b8ff" d="M596.18,-219.84C622.2,-201.36 683.42,-157.86 715.53,-135.05"/>
<polygon fill="#63b8ff" stroke="#63b8ff" points="717.64,-137.84 723.76,-129.2 713.58,-132.14 717.64,-137.84"/>
</a>
</g>
</g>
<!-- Node39&#45;&gt;Node5 -->
<g id="edge60_Node000039_Node000005" class="edge">
<title>Node39&#45;&gt;Node5</title>
<g id="a_edge60_Node000039_Node000005"><a xlink:title=" ">
<path fill="none" stroke="#63b8ff" d="M1203.34,-228.7C1241.45,-227.07 1302.5,-218.68 1340,-184 1383.88,-143.42 1415.54,-101.51 1378,-55 1359.43,-32 1282.23,-20.3 1227.82,-14.81"/>
<polygon fill="#63b8ff" stroke="#63b8ff" points="1227.89,-11.3 1217.6,-13.82 1227.22,-18.27 1227.89,-11.3"/>
</a>
</g>
</g>
<!-- Node39&#45;&gt;Node16 -->
<g id="edge61_Node000039_Node000016" class="edge">
<title>Node39&#45;&gt;Node16</title>
<g id="a_edge61_Node000039_Node000016"><a xlink:title=" ">
<path fill="none" stroke="#63b8ff" d="M1149.28,-219.86C1132.18,-211.87 1107.23,-199 1088,-184 1070.28,-170.19 1053.16,-150.89 1041.97,-137.2"/>
<polygon fill="#63b8ff" stroke="#63b8ff" points="1044.5,-134.76 1035.53,-129.13 1039.03,-139.13 1044.5,-134.76"/>
</a>
</g>
</g>
<!-- Node39&#45;&gt;Node22 -->
<g id="edge59_Node000039_Node000022" class="edge">
<title>Node39&#45;&gt;Node22</title>
<g id="a_edge59_Node000039_Node000022"><a xlink:title=" ">
<path fill="none" stroke="#63b8ff" d="M1174.09,-219.97C1180.85,-207.48 1191.03,-183.67 1183,-165 1177.85,-153.03 1167.71,-142.76 1158.17,-135.12"/>
<polygon fill="#63b8ff" stroke="#63b8ff" points="1160.19,-132.26 1150.07,-129.11 1156.01,-137.88 1160.19,-132.26"/>
</a>
</g>
</g>
<!-- Node39&#45;&gt;Node23 -->
<g id="edge62_Node000039_Node000023" class="edge">
<title>Node39&#45;&gt;Node23</title>
<g id="a_edge62_Node000039_Node000023"><a xlink:title=" ">
<path fill="none" stroke="#63b8ff" d="M1134.83,-227.02C1077.6,-223.77 959.26,-213.75 864,-184 824.95,-171.8 783.09,-148.97 758.24,-134.26"/>
<polygon fill="#63b8ff" stroke="#63b8ff" points="759.97,-131.22 749.6,-129.06 756.36,-137.21 759.97,-131.22"/>
</a>
</g>
</g>
<!-- Node40 -->
<g id="Node000040" class="node">
<title>Node40</title>
<g id="a_Node000040"><a xlink:href="../../d6/dc9/fl_2xymap_8h.html" target="_top" xlink:title=" ">
<polygon fill="#fff0f0" stroke="red" points="1298,-184 1230,-184 1230,-165 1298,-165 1298,-184"/>
<text text-anchor="middle" x="1264" y="-172" font-family="Helvetica,sans-Serif" font-size="10.00">fl/xymap.h</text>
</a>
</g>
</g>
<!-- Node39&#45;&gt;Node40 -->
<g id="edge63_Node000039_Node000040" class="edge">
<title>Node39&#45;&gt;Node40</title>
<g id="a_edge63_Node000039_Node000040"><a xlink:title=" ">
<path fill="none" stroke="#63b8ff" d="M1184.26,-219.98C1199.13,-211.69 1221.98,-198.94 1239.42,-189.22"/>
<polygon fill="#63b8ff" stroke="#63b8ff" points="1241.43,-192.1 1248.46,-184.17 1238.02,-185.99 1241.43,-192.1"/>
</a>
</g>
</g>
<!-- Node32 -->
<g id="Node000032" class="node">
<title>Node32</title>
<g id="a_Node000032"><a xlink:href="../../d2/d6f/fl_2allocator_8h.html" target="_top" xlink:title=" ">
<polygon fill="white" stroke="#666666" points="1173.5,-184 1096.5,-184 1096.5,-165 1173.5,-165 1173.5,-184"/>
<text text-anchor="middle" x="1135" y="-172" font-family="Helvetica,sans-Serif" font-size="10.00">fl/allocator.h</text>
</a>
</g>
</g>
<!-- Node39&#45;&gt;Node32 -->
<g id="edge69_Node000039_Node000032" class="edge">
<title>Node39&#45;&gt;Node32</title>
<g id="a_edge69_Node000039_Node000032"><a xlink:title=" ">
<path fill="none" stroke="#63b8ff" d="M1163.39,-219.75C1158.68,-212.42 1151.83,-201.73 1146.03,-192.7"/>
<polygon fill="#63b8ff" stroke="#63b8ff" points="1148.86,-190.62 1140.51,-184.09 1142.96,-194.4 1148.86,-190.62"/>
</a>
</g>
</g>
<!-- Node40&#45;&gt;Node3 -->
<g id="edge64_Node000040_Node000003" class="edge">
<title>Node40&#45;&gt;Node3</title>
<g id="a_edge64_Node000040_Node000003"><a xlink:title=" ">
<path fill="none" stroke="#63b8ff" d="M1253.91,-164.9C1237.66,-151.45 1204.23,-125.37 1172,-110 1042.25,-48.11 870.66,-22.78 796.16,-14.22"/>
<polygon fill="#63b8ff" stroke="#63b8ff" points="796.22,-10.7 785.89,-13.08 795.44,-17.66 796.22,-10.7"/>
</a>
</g>
</g>
<!-- Node40&#45;&gt;Node5 -->
<g id="edge67_Node000040_Node000005" class="edge">
<title>Node40&#45;&gt;Node5</title>
<g id="a_edge67_Node000040_Node000005"><a xlink:title=" ">
<path fill="none" stroke="#63b8ff" d="M1256.03,-164.86C1241.23,-148.38 1209.33,-110.83 1191,-74 1183.86,-59.66 1178.87,-42.14 1175.8,-29.13"/>
<polygon fill="#63b8ff" stroke="#63b8ff" points="1179.15,-28.08 1173.59,-19.06 1172.31,-29.58 1179.15,-28.08"/>
</a>
</g>
</g>
<!-- Node40&#45;&gt;Node16 -->
<g id="edge66_Node000040_Node000016" class="edge">
<title>Node40&#45;&gt;Node16</title>
<g id="a_edge66_Node000040_Node000016"><a xlink:title=" ">
<path fill="none" stroke="#63b8ff" d="M1229.83,-165.79C1185.05,-155.69 1106.99,-138.09 1062.53,-128.06"/>
<polygon fill="#63b8ff" stroke="#63b8ff" points="1063.04,-124.59 1052.52,-125.8 1061.5,-131.42 1063.04,-124.59"/>
</a>
</g>
</g>
<!-- Node40&#45;&gt;Node22 -->
<g id="edge65_Node000040_Node000022" class="edge">
<title>Node40&#45;&gt;Node22</title>
<g id="a_edge65_Node000040_Node000022"><a xlink:title=" ">
<path fill="none" stroke="#63b8ff" d="M1243.43,-164.98C1222.57,-156.34 1190.03,-142.87 1166.23,-133.02"/>
<polygon fill="#63b8ff" stroke="#63b8ff" points="1167.52,-129.76 1156.94,-129.17 1164.84,-136.23 1167.52,-129.76"/>
</a>
</g>
</g>
<!-- Node40&#45;&gt;Node23 -->
<g id="edge68_Node000040_Node000023" class="edge">
<title>Node40&#45;&gt;Node23</title>
<g id="a_edge68_Node000040_Node000023"><a xlink:title=" ">
<path fill="none" stroke="#63b8ff" d="M1229.72,-169.86C1215.29,-168.34 1198.33,-166.57 1183,-165 1028.82,-149.24 844.65,-131.13 769.96,-123.82"/>
<polygon fill="#63b8ff" stroke="#63b8ff" points="770.04,-120.31 759.75,-122.82 769.36,-127.28 770.04,-120.31"/>
</a>
</g>
</g>
<!-- Node32&#45;&gt;Node4 -->
<g id="edge70_Node000032_Node000004" class="edge">
<title>Node32&#45;&gt;Node4</title>
<g id="a_edge70_Node000032_Node000004"><a xlink:title=" ">
<path fill="none" stroke="#63b8ff" d="M1127.33,-164.84C1114.88,-151.29 1088.97,-125.09 1062,-110 990.85,-70.18 967.09,-70.24 887,-55 669.29,-13.58 401.98,-9.96 304.16,-10.16"/>
<polygon fill="#63b8ff" stroke="#63b8ff" points="304.14,-6.66 294.15,-10.2 304.17,-13.66 304.14,-6.66"/>
</a>
</g>
</g>
<!-- Node32&#45;&gt;Node22 -->
<g id="edge71_Node000032_Node000022" class="edge">
<title>Node32&#45;&gt;Node22</title>
<g id="a_edge71_Node000032_Node000022"><a xlink:title=" ">
<path fill="none" stroke="#63b8ff" d="M1135.17,-164.75C1135.3,-157.8 1135.48,-147.85 1135.65,-139.13"/>
<polygon fill="#63b8ff" stroke="#63b8ff" points="1139.15,-139.15 1135.84,-129.09 1132.15,-139.02 1139.15,-139.15"/>
</a>
</g>
</g>
<!-- Node41&#45;&gt;Node3 -->
<g id="edge74_Node000041_Node000003" class="edge">
<title>Node41&#45;&gt;Node3</title>
<g id="a_edge74_Node000041_Node000003"><a xlink:title=" ">
<path fill="none" stroke="#63b8ff" d="M1199.88,-56.41C1090.77,-45.05 880.49,-23.15 795.74,-14.33"/>
<polygon fill="#63b8ff" stroke="#63b8ff" points="795.88,-10.82 785.57,-13.27 795.15,-17.78 795.88,-10.82"/>
</a>
</g>
</g>
<!-- Node41&#45;&gt;Node5 -->
<g id="edge75_Node000041_Node000005" class="edge">
<title>Node41&#45;&gt;Node5</title>
<g id="a_edge75_Node000041_Node000005"><a xlink:title=" ">
<path fill="none" stroke="#63b8ff" d="M1252.58,-54.98C1237.55,-46.69 1214.46,-33.94 1196.84,-24.22"/>
<polygon fill="#63b8ff" stroke="#63b8ff" points="1198.15,-20.94 1187.7,-19.17 1194.77,-27.07 1198.15,-20.94"/>
</a>
</g>
</g>
</g>
</svg>

<g id="navigator" transform="translate(0 0)" fill="#404254">
  <rect fill="#f2f5e9" fill-opacity="0.5" stroke="#606060" stroke-width=".5" x="0" y="0" width="60" height="60"/>
  <use id="zoomplus" xlink:href="#zoomPlus" x="17" y="9" onmousedown="handleZoom(evt,'in')"/>
  <use id="zoomminus" xlink:href="#zoomMin" x="42" y="9" onmousedown="handleZoom(evt,'out')"/>
  <use id="reset" xlink:href="#resetDef" x="30" y="36" onmousedown="handleReset()"/>
   <use id="arrowup" xlink:href="#arrowUp" x="0" y="0" onmousedown="handlePan(0,-1)"/>
  <use id="arrowright" xlink:href="#arrowRight" x="0" y="0" onmousedown="handlePan(1,0)"/>
  <use id="arrowdown" xlink:href="#arrowDown" x="0" y="0" onmousedown="handlePan(0,1)"/>
  <use id="arrowleft" xlink:href="#arrowLeft" x="0" y="0" onmousedown="handlePan(-1,0)"/>
</g>
<svg viewBox="0 0 15 15" width="100%" height="30px" preserveAspectRatio="xMaxYMin meet">
 <g id="arrow_out" transform="scale(0.3 0.3)">
  <a xlink:href="frame__interpolator_8h__incl_org.svg" target="_base">
   <rect id="button" ry="5" rx="5" y="6" x="6" height="38" width="38"
        fill="#f2f5e9" fill-opacity="0.5" stroke="#606060" stroke-width="1.0"/>
   <path id="arrow"
     d="M 11.500037,31.436501 C 11.940474,20.09759 22.043105,11.32322 32.158766,21.979434 L 37.068811,17.246167 C 37.068811,17.246167 37.088388,32 37.088388,32 L 22.160133,31.978069 C 22.160133,31.978069 26.997745,27.140456 26.997745,27.140456 C 18.528582,18.264221 13.291696,25.230495 11.500037,31.436501 z"
     style="fill:#404040;"/>
  </a>
 </g>
</svg>

<style type='text/css'>
<![CDATA[
[data-mouse-over-selected='false'] { opacity: 0.7; }
[data-mouse-over-selected='true']  { opacity: 1.0; }
]]>
</style>
<script type="application/ecmascript"><![CDATA[
document.addEventListener('DOMContentLoaded', (event) => {
  highlightEdges();
  highlightAdjacentNodes();
});
]]></script>
</svg>
