<?xml version="1.0" encoding="UTF-8" standalone="no"?>
<!DOCTYPE svg PUBLIC "-//W3C//DTD SVG 1.1//EN"
 "http://www.w3.org/Graphics/SVG/1.1/DTD/svg11.dtd">
<!-- Generated by graphviz version 2.43.0 (0)
 -->
<!-- Title: fl::Remote::has Pages: 1 -->
<!--zoomable 260 -->

<svg id="main" version="1.1" xmlns="http://www.w3.org/2000/svg" xmlns:xlink="http://www.w3.org/1999/xlink" xml:space="preserve" onload="init(evt)">

<style type="text/css"><![CDATA[
.node, .edge {opacity: 0.7;}
.node.selected, .edge.selected {opacity: 1;}
.edge:hover path { stroke: red; }
.edge:hover polygon { stroke: red; fill: red; }
]]></style>

<defs>
  <circle id="rim" cx="0" cy="0" r="7"/>
  <circle id="rim2" cx="0" cy="0" r="3.5"/>
  <g id="zoomPlus">
    <use xlink:href="#rim" fill="#404040"><set attributeName="fill" to="#808080" begin="zoomplus.mouseover" end="zoomplus.mouseout"/></use>
    <path d="M-4,0h8M0,-4v8" fill="none" stroke="white" stroke-width="1.5" pointer-events="none"/>
  </g>
  <g id="zoomMin">
    <use xlink:href="#rim" fill="#404040"><set attributeName="fill" to="#808080" begin="zoomminus.mouseover" end="zoomminus.mouseout"/></use>
    <path d="M-4,0h8" fill="none" stroke="white" stroke-width="1.5" pointer-events="none"/>
  </g>
  <g id="arrowUp" transform="translate(30 24)">
    <use xlink:href="#rim"/>
    <path pointer-events="none" fill="none" stroke="white" stroke-width="1.5" d="M0,-3.0v7 M-2.5,-0.5L0,-3.0L2.5,-0.5"/>
  </g>
  <g id="arrowRight" transform="rotate(90) translate(36 -43)">
    <use xlink:href="#rim"/>
    <path pointer-events="none" fill="none" stroke="white" stroke-width="1.5" d="M0,-3.0v7 M-2.5,-0.5L0,-3.0L2.5,-0.5"/>
  </g>
  <g id="arrowDown" transform="rotate(180) translate(-30 -48)">
    <use xlink:href="#rim"/>
    <path pointer-events="none" fill="none" stroke="white" stroke-width="1.5" d="M0,-3.0v7 M-2.5,-0.5L0,-3.0L2.5,-0.5"/>
  </g>
  <g id="arrowLeft" transform="rotate(270) translate(-36 17)">
    <use xlink:href="#rim"/>
    <path pointer-events="none" fill="none" stroke="white" stroke-width="1.5" d="M0,-3.0v7 M-2.5,-0.5L0,-3.0L2.5,-0.5"/>
  </g>
  <g id="resetDef">
    <use xlink:href="#rim2" fill="#404040"><set attributeName="fill" to="#808080" begin="reset.mouseover" end="reset.mouseout"/></use>
  </g>
</defs>
<script type="application/ecmascript">
var viewWidth = 599;
var viewHeight = 260;
var sectionId = 'dynsection-0';
</script>
<script type="application/ecmascript" xlink:href="../../svg.min.js"/>
<svg id="graph" class="graph">
<g id="viewport">
<title>fl::Remote::has</title>
<!-- Node1 -->
<g id="Node000001" class="node">
<title>Node1</title>
<g id="a_Node000001"><a xlink:title="Check if method is registered.">
<polygon fill="#999999" stroke="#666666" points="90,-135 0,-135 0,-116 90,-116 90,-135"/>
<text text-anchor="middle" x="45" y="-123" font-family="Helvetica,sans-Serif" font-size="10.00">fl::Remote::has</text>
</a>
</g>
</g>
<!-- Node2 -->
<g id="Node000002" class="node">
<title>Node2</title>
<g id="a_Node000002"><a xlink:href="../../de/d66/classfl_1_1basic__string_adc70863b5a29972d3e45c5e5b31e6686.html#adc70863b5a29972d3e45c5e5b31e6686" target="_top" xlink:title=" ">
<polygon fill="white" stroke="#666666" points="242,-135 126,-135 126,-116 242,-116 242,-135"/>
<text text-anchor="middle" x="184" y="-123" font-family="Helvetica,sans-Serif" font-size="10.00">fl::basic_string::c_str</text>
</a>
</g>
</g>
<!-- Node1&#45;&gt;Node2 -->
<g id="edge1_Node000001_Node000002" class="edge">
<title>Node1&#45;&gt;Node2</title>
<g id="a_edge1_Node000001_Node000002"><a xlink:title=" ">
<path fill="none" stroke="#63b8ff" d="M90.1,-125.5C98.31,-125.5 107.06,-125.5 115.77,-125.5"/>
<polygon fill="#63b8ff" stroke="#63b8ff" points="115.96,-129 125.96,-125.5 115.96,-122 115.96,-129"/>
</a>
</g>
</g>
<!-- Node3 -->
<g id="Node000003" class="node">
<title>Node3</title>
<g id="a_Node000003"><a xlink:href="../../de/d66/classfl_1_1basic__string_ab760f9d7335a2653ad300172b1443599.html#ab760f9d7335a2653ad300172b1443599" target="_top" xlink:title=" ">
<polygon fill="white" stroke="#666666" points="412,-229.5 293,-229.5 293,-199.5 412,-199.5 412,-229.5"/>
<text text-anchor="start" x="301" y="-217.5" font-family="Helvetica,sans-Serif" font-size="10.00">fl::basic_string::basic</text>
<text text-anchor="middle" x="352.5" y="-206.5" font-family="Helvetica,sans-Serif" font-size="10.00">_string</text>
</a>
</g>
</g>
<!-- Node2&#45;&gt;Node3 -->
<g id="edge2_Node000002_Node000003" class="edge">
<title>Node2&#45;&gt;Node3</title>
<g id="a_edge2_Node000002_Node000003"><a xlink:title=" ">
<path fill="none" stroke="#63b8ff" d="M202.82,-135.02C229.31,-149.19 279.68,-176.11 314.4,-194.67"/>
<polygon fill="#63b8ff" stroke="#63b8ff" points="312.83,-197.8 323.3,-199.43 316.13,-191.63 312.83,-197.8"/>
</a>
</g>
</g>
<!-- Node5 -->
<g id="Node000005" class="node">
<title>Node5</title>
<g id="a_Node000005"><a xlink:href="../../de/d66/classfl_1_1basic__string_ad8cf512fb8663f75c77312c6fab902ad.html#ad8cf512fb8663f75c77312c6fab902ad" target="_top" xlink:title=" ">
<polygon fill="white" stroke="#666666" points="424,-154 281,-154 281,-135 424,-135 424,-154"/>
<text text-anchor="middle" x="352.5" y="-142" font-family="Helvetica,sans-Serif" font-size="10.00">fl::basic_string::constData</text>
</a>
</g>
</g>
<!-- Node2&#45;&gt;Node5 -->
<g id="edge5_Node000002_Node000005" class="edge">
<title>Node2&#45;&gt;Node5</title>
<g id="a_edge5_Node000002_Node000005"><a xlink:title=" ">
<path fill="none" stroke="#63b8ff" d="M242.3,-132.04C251.52,-133.09 261.2,-134.2 270.84,-135.3"/>
<polygon fill="#63b8ff" stroke="#63b8ff" points="270.52,-138.78 280.85,-136.44 271.31,-131.83 270.52,-138.78"/>
</a>
</g>
</g>
<!-- Node9 -->
<g id="Node000009" class="node">
<title>Node9</title>
<g id="a_Node000009"><a xlink:href="../../de/d66/classfl_1_1basic__string_a504b37116b93044654059cacba256510.html#a504b37116b93044654059cacba256510" target="_top" xlink:title=" ">
<polygon fill="white" stroke="#666666" points="427,-78 278,-78 278,-59 427,-59 427,-78"/>
<text text-anchor="middle" x="352.5" y="-66" font-family="Helvetica,sans-Serif" font-size="10.00">fl::basic_string::materialize</text>
</a>
</g>
</g>
<!-- Node2&#45;&gt;Node9 -->
<g id="edge12_Node000002_Node000009" class="edge">
<title>Node2&#45;&gt;Node9</title>
<g id="a_edge12_Node000002_Node000009"><a xlink:title=" ">
<path fill="none" stroke="#63b8ff" d="M211.4,-115.93C229.98,-109.25 255.46,-100.18 278,-92.5 288.99,-88.76 300.95,-84.8 311.96,-81.21"/>
<polygon fill="#63b8ff" stroke="#63b8ff" points="313.33,-84.44 321.76,-78.02 311.17,-77.78 313.33,-84.44"/>
</a>
</g>
</g>
<!-- Node3&#45;&gt;Node3 -->
<g id="edge3_Node000003_Node000003" class="edge">
<title>Node3&#45;&gt;Node3</title>
<g id="a_edge3_Node000003_Node000003"><a xlink:title=" ">
<path fill="none" stroke="#63b8ff" d="M322.97,-229.78C316.41,-238.91 326.25,-247.5 352.5,-247.5 368.09,-247.5 377.89,-244.47 381.91,-240.1"/>
<polygon fill="#63b8ff" stroke="#63b8ff" points="385.41,-239.82 382.03,-229.78 378.41,-239.73 385.41,-239.82"/>
</a>
</g>
</g>
<!-- Node4 -->
<g id="Node000004" class="node">
<title>Node4</title>
<g id="a_Node000004"><a xlink:href="../../de/d66/classfl_1_1basic__string_af4d95d1e9905eb5fb76e12c2c2bd7ebc.html#af4d95d1e9905eb5fb76e12c2c2bd7ebc" target="_top" xlink:title=" ">
<polygon fill="white" stroke="#666666" points="583.5,-252 470.5,-252 470.5,-233 583.5,-233 583.5,-252"/>
<text text-anchor="middle" x="527" y="-240" font-family="Helvetica,sans-Serif" font-size="10.00">fl::basic_string::size</text>
</a>
</g>
</g>
<!-- Node3&#45;&gt;Node4 -->
<g id="edge4_Node000003_Node000004" class="edge">
<title>Node3&#45;&gt;Node4</title>
<g id="a_edge4_Node000003_Node000004"><a xlink:title=" ">
<path fill="none" stroke="#63b8ff" d="M412.38,-224.06C427.75,-226.55 444.42,-229.26 460.13,-231.81"/>
<polygon fill="#63b8ff" stroke="#63b8ff" points="459.86,-235.31 470.29,-233.46 460.98,-228.4 459.86,-235.31"/>
</a>
</g>
</g>
<!-- Node6 -->
<g id="Node000006" class="node">
<title>Node6</title>
<g id="a_Node000006"><a xlink:href="../../de/d66/classfl_1_1basic__string_aa1a0710da50d0c96c08a13f5a0738ca5.html#aa1a0710da50d0c96c08a13f5a0738ca5" target="_top" xlink:title=" ">
<polygon fill="white" stroke="#666666" points="584.5,-93 469.5,-93 469.5,-74 584.5,-74 584.5,-93"/>
<text text-anchor="middle" x="527" y="-81" font-family="Helvetica,sans-Serif" font-size="10.00">fl::basic_string::data</text>
</a>
</g>
</g>
<!-- Node5&#45;&gt;Node6 -->
<g id="edge6_Node000005_Node000006" class="edge">
<title>Node5&#45;&gt;Node6</title>
<g id="a_edge6_Node000005_Node000006"><a xlink:title=" ">
<path fill="none" stroke="#63b8ff" d="M383.63,-134.98C396.97,-130.68 412.81,-125.47 427,-120.5 448.68,-112.91 472.83,-103.9 491.85,-96.67"/>
<polygon fill="#63b8ff" stroke="#63b8ff" points="493.19,-99.9 501.29,-93.07 490.7,-93.36 493.19,-99.9"/>
</a>
</g>
</g>
<!-- Node7 -->
<g id="Node000007" class="node">
<title>Node7</title>
<g id="a_Node000007"><a xlink:href="../../de/d66/classfl_1_1basic__string_ab069d754c930a7557d1eb72ab925c7db.html#ab069d754c930a7557d1eb72ab925c7db" target="_top" xlink:title=" ">
<polygon fill="white" stroke="#666666" points="587,-159.5 467,-159.5 467,-129.5 587,-129.5 587,-159.5"/>
<text text-anchor="start" x="475" y="-147.5" font-family="Helvetica,sans-Serif" font-size="10.00">fl::basic_string::inline</text>
<text text-anchor="middle" x="527" y="-136.5" font-family="Helvetica,sans-Serif" font-size="10.00">BufferPtr</text>
</a>
</g>
</g>
<!-- Node5&#45;&gt;Node7 -->
<g id="edge9_Node000005_Node000007" class="edge">
<title>Node5&#45;&gt;Node7</title>
<g id="a_edge9_Node000005_Node000007"><a xlink:title=" ">
<path fill="none" stroke="#63b8ff" d="M424.16,-144.5C434.88,-144.5 445.93,-144.5 456.62,-144.5"/>
<polygon fill="#63b8ff" stroke="#63b8ff" points="456.73,-148 466.73,-144.5 456.73,-141 456.73,-148"/>
</a>
</g>
</g>
<!-- Node8 -->
<g id="Node000008" class="node">
<title>Node8</title>
<g id="a_Node000008"><a xlink:href="../../de/d66/classfl_1_1basic__string_a200eb5a16645bf60a46bf1aec11a661a.html#a200eb5a16645bf60a46bf1aec11a661a" target="_top" xlink:title=" ">
<polygon fill="white" stroke="#666666" points="591,-215 463,-215 463,-196 591,-196 591,-215"/>
<text text-anchor="middle" x="527" y="-203" font-family="Helvetica,sans-Serif" font-size="10.00">fl::basic_string::isInline</text>
</a>
</g>
</g>
<!-- Node5&#45;&gt;Node8 -->
<g id="edge11_Node000005_Node000008" class="edge">
<title>Node5&#45;&gt;Node8</title>
<g id="a_edge11_Node000005_Node000008"><a xlink:title=" ">
<path fill="none" stroke="#63b8ff" d="M376.81,-154.01C398.86,-162.87 432.95,-176.22 463,-186.5 469.46,-188.71 476.34,-190.93 483.1,-193.02"/>
<polygon fill="#63b8ff" stroke="#63b8ff" points="482.24,-196.42 492.83,-195.99 484.29,-189.73 482.24,-196.42"/>
</a>
</g>
</g>
<!-- Node6&#45;&gt;Node2 -->
<g id="edge7_Node000006_Node000002" class="edge">
<title>Node6&#45;&gt;Node2</title>
<g id="a_edge7_Node000006_Node000002"><a xlink:title=" ">
<path fill="none" stroke="#63b8ff" d="M469.31,-90.48C409.65,-97.83 315.77,-109.39 252.37,-117.2"/>
<polygon fill="#63b8ff" stroke="#63b8ff" points="251.57,-113.77 242.08,-118.47 252.43,-120.72 251.57,-113.77"/>
</a>
</g>
</g>
<!-- Node6&#45;&gt;Node6 -->
<g id="edge8_Node000006_Node000006" class="edge">
<title>Node6&#45;&gt;Node6</title>
<g id="a_edge8_Node000006_Node000006"><a xlink:title=" ">
<path fill="none" stroke="#63b8ff" d="M500.18,-93.08C487.13,-101.73 496.07,-111 527,-111 547.78,-111 558.63,-106.82 559.56,-101.45"/>
<polygon fill="#63b8ff" stroke="#63b8ff" points="562.36,-99.35 553.82,-93.08 556.59,-103.31 562.36,-99.35"/>
</a>
</g>
</g>
<!-- Node7&#45;&gt;Node7 -->
<g id="edge10_Node000007_Node000007" class="edge">
<title>Node7&#45;&gt;Node7</title>
<g id="a_edge10_Node000007_Node000007"><a xlink:title=" ">
<path fill="none" stroke="#63b8ff" d="M496.41,-159.78C489.62,-168.91 499.81,-177.5 527,-177.5 543.14,-177.5 553.29,-174.47 557.46,-170.1"/>
<polygon fill="#63b8ff" stroke="#63b8ff" points="560.96,-169.82 557.59,-159.78 553.96,-169.73 560.96,-169.82"/>
</a>
</g>
</g>
<!-- Node9&#45;&gt;Node6 -->
<g id="edge13_Node000009_Node000006" class="edge">
<title>Node9&#45;&gt;Node6</title>
<g id="a_edge13_Node000009_Node000006"><a xlink:title=" ">
<path fill="none" stroke="#63b8ff" d="M427.16,-74.9C437.73,-75.82 448.57,-76.77 459.01,-77.67"/>
<polygon fill="#63b8ff" stroke="#63b8ff" points="459.02,-81.19 469.29,-78.57 459.63,-74.22 459.02,-81.19"/>
</a>
</g>
</g>
<!-- Node9&#45;&gt;Node7 -->
<g id="edge14_Node000009_Node000007" class="edge">
<title>Node9&#45;&gt;Node7</title>
<g id="a_edge14_Node000009_Node000007"><a xlink:title=" ">
<path fill="none" stroke="#63b8ff" d="M372.67,-78.17C394.37,-88.99 430.87,-106.78 463,-120.5 467.11,-122.25 471.39,-124.02 475.7,-125.75"/>
<polygon fill="#63b8ff" stroke="#63b8ff" points="474.56,-129.06 485.14,-129.48 477.13,-122.55 474.56,-129.06"/>
</a>
</g>
</g>
<!-- Node10 -->
<g id="Node000010" class="node">
<title>Node10</title>
<g id="a_Node000010"><a xlink:href="../../d4/d36/namespacefl_a87ae8a24cc8b709a64f39370e71846af.html#a87ae8a24cc8b709a64f39370e71846af" target="_top" xlink:title=" ">
<polygon fill="white" stroke="#666666" points="574,-56 480,-56 480,-37 574,-37 574,-56"/>
<text text-anchor="middle" x="527" y="-44" font-family="Helvetica,sans-Serif" font-size="10.00">fl::make_shared</text>
</a>
</g>
</g>
<!-- Node9&#45;&gt;Node10 -->
<g id="edge15_Node000009_Node000010" class="edge">
<title>Node9&#45;&gt;Node10</title>
<g id="a_edge15_Node000009_Node000010"><a xlink:title=" ">
<path fill="none" stroke="#63b8ff" d="M427.16,-59.11C441.31,-57.3 455.93,-55.44 469.44,-53.71"/>
<polygon fill="#63b8ff" stroke="#63b8ff" points="470.06,-57.16 479.53,-52.43 469.17,-50.22 470.06,-57.16"/>
</a>
</g>
</g>
<!-- Node11 -->
<g id="Node000011" class="node">
<title>Node11</title>
<g id="a_Node000011"><a xlink:href="../../d4/d36/namespacefl_a0393d1d09fff5bccc427802cc22e756d.html#a0393d1d09fff5bccc427802cc22e756d" target="_top" xlink:title=" ">
<polygon fill="white" stroke="#666666" points="562.5,-19 491.5,-19 491.5,0 562.5,0 562.5,-19"/>
<text text-anchor="middle" x="527" y="-7" font-family="Helvetica,sans-Serif" font-size="10.00">fl::memcpy</text>
</a>
</g>
</g>
<!-- Node9&#45;&gt;Node11 -->
<g id="edge16_Node000009_Node000011" class="edge">
<title>Node9&#45;&gt;Node11</title>
<g id="a_edge16_Node000009_Node000011"><a xlink:title=" ">
<path fill="none" stroke="#63b8ff" d="M377.23,-58.99C399.28,-50.3 433.12,-37.35 463,-27.5 468.96,-25.54 475.27,-23.59 481.51,-21.73"/>
<polygon fill="#63b8ff" stroke="#63b8ff" points="482.57,-25.07 491.19,-18.91 480.61,-18.35 482.57,-25.07"/>
</a>
</g>
</g>
</g>
</svg>

<g id="navigator" transform="translate(0 0)" fill="#404254">
  <rect fill="#f2f5e9" fill-opacity="0.5" stroke="#606060" stroke-width=".5" x="0" y="0" width="60" height="60"/>
  <use id="zoomplus" xlink:href="#zoomPlus" x="17" y="9" onmousedown="handleZoom(evt,'in')"/>
  <use id="zoomminus" xlink:href="#zoomMin" x="42" y="9" onmousedown="handleZoom(evt,'out')"/>
  <use id="reset" xlink:href="#resetDef" x="30" y="36" onmousedown="handleReset()"/>
   <use id="arrowup" xlink:href="#arrowUp" x="0" y="0" onmousedown="handlePan(0,-1)"/>
  <use id="arrowright" xlink:href="#arrowRight" x="0" y="0" onmousedown="handlePan(1,0)"/>
  <use id="arrowdown" xlink:href="#arrowDown" x="0" y="0" onmousedown="handlePan(0,1)"/>
  <use id="arrowleft" xlink:href="#arrowLeft" x="0" y="0" onmousedown="handlePan(-1,0)"/>
</g>
<svg viewBox="0 0 15 15" width="100%" height="30px" preserveAspectRatio="xMaxYMin meet">
 <g id="arrow_out" transform="scale(0.3 0.3)">
  <a xlink:href="classfl_1_1_remote_a6c414785a0ff6f0b7cb2122049b81657_a6c414785a0ff6f0b7cb2122049b81657_cgraph_org.svg" target="_base">
   <rect id="button" ry="5" rx="5" y="6" x="6" height="38" width="38"
        fill="#f2f5e9" fill-opacity="0.5" stroke="#606060" stroke-width="1.0"/>
   <path id="arrow"
     d="M 11.500037,31.436501 C 11.940474,20.09759 22.043105,11.32322 32.158766,21.979434 L 37.068811,17.246167 C 37.068811,17.246167 37.088388,32 37.088388,32 L 22.160133,31.978069 C 22.160133,31.978069 26.997745,27.140456 26.997745,27.140456 C 18.528582,18.264221 13.291696,25.230495 11.500037,31.436501 z"
     style="fill:#404040;"/>
  </a>
 </g>
</svg>

<style type='text/css'>
<![CDATA[
[data-mouse-over-selected='false'] { opacity: 0.7; }
[data-mouse-over-selected='true']  { opacity: 1.0; }
]]>
</style>
<script type="application/ecmascript"><![CDATA[
document.addEventListener('DOMContentLoaded', (event) => {
  highlightEdges();
  highlightAdjacentNodes();
});
]]></script>
</svg>
