<?xml version="1.0" encoding="UTF-8" standalone="no"?>
<!DOCTYPE svg PUBLIC "-//W3C//DTD SVG 1.1//EN"
 "http://www.w3.org/Graphics/SVG/1.1/DTD/svg11.dtd">
<!-- Generated by graphviz version 2.43.0 (0)
 -->
<!-- Title: REFHardwareSPIOutput::waitFully Pages: 1 -->
<svg width="473pt" height="86pt"
 viewBox="0.00 0.00 473.00 86.00" xmlns="http://www.w3.org/2000/svg" xmlns:xlink="http://www.w3.org/1999/xlink">
<g id="graph0" class="graph" transform="scale(1 1) rotate(0) translate(4 82)">
<title>REFHardwareSPIOutput::waitFully</title>
<!-- Node1 -->
<g id="Node000001" class="node">
<title>Node1</title>
<g id="a_Node000001"><a xlink:title="wait until all queued up data has been written">
<polygon fill="#999999" stroke="#666666" points="465,-54 334,-54 334,-24 465,-24 465,-54"/>
<text text-anchor="start" x="342" y="-42" font-family="Helvetica,sans-Serif" font-size="10.00">REFHardwareSPIOutput</text>
<text text-anchor="middle" x="399.5" y="-31" font-family="Helvetica,sans-Serif" font-size="10.00">::waitFully</text>
</a>
</g>
</g>
<!-- Node2 -->
<g id="Node000002" class="node">
<title>Node2</title>
<g id="a_Node000002"><a xlink:href="../../d6/dd4/class_r_e_f_hardware_s_p_i_output_aa31d484d62ff4a70c0a9e78440adfe39.html#aa31d484d62ff4a70c0a9e78440adfe39" target="_top" xlink:title=" ">
<polygon fill="white" stroke="#666666" points="298,-78 167,-78 167,-48 298,-48 298,-78"/>
<text text-anchor="start" x="175" y="-66" font-family="Helvetica,sans-Serif" font-size="10.00">REFHardwareSPIOutput</text>
<text text-anchor="middle" x="232.5" y="-55" font-family="Helvetica,sans-Serif" font-size="10.00">::endTransaction</text>
</a>
</g>
</g>
<!-- Node1&#45;&gt;Node2 -->
<g id="edge1_Node000001_Node000002" class="edge">
<title>Node1&#45;&gt;Node2</title>
<g id="a_edge1_Node000001_Node000002"><a xlink:title=" ">
<path fill="none" stroke="#63b8ff" d="M323.76,-49.87C315.18,-51.12 306.48,-52.38 298.05,-53.61"/>
<polygon fill="#63b8ff" stroke="#63b8ff" points="324.37,-53.32 333.76,-48.42 323.36,-46.39 324.37,-53.32"/>
</a>
</g>
</g>
<!-- Node3 -->
<g id="Node000003" class="node">
<title>Node3</title>
<g id="a_Node000003"><a xlink:href="../../d6/dd4/class_r_e_f_hardware_s_p_i_output_afd6e4dc4be2499c9657b369a4db99f7f.html#afd6e4dc4be2499c9657b369a4db99f7f" target="_top" xlink:title="A full cycle of writing a value for len bytes, including select, release, and waiting.">
<polygon fill="white" stroke="#666666" points="298,-30 167,-30 167,0 298,0 298,-30"/>
<text text-anchor="start" x="175" y="-18" font-family="Helvetica,sans-Serif" font-size="10.00">REFHardwareSPIOutput</text>
<text text-anchor="middle" x="232.5" y="-7" font-family="Helvetica,sans-Serif" font-size="10.00">::writeBytes</text>
</a>
</g>
</g>
<!-- Node1&#45;&gt;Node3 -->
<g id="edge2_Node000001_Node000003" class="edge">
<title>Node1&#45;&gt;Node3</title>
<g id="a_edge2_Node000001_Node000003"><a xlink:title=" ">
<path fill="none" stroke="#63b8ff" d="M323.76,-28.13C315.18,-26.88 306.48,-25.62 298.05,-24.39"/>
<polygon fill="#63b8ff" stroke="#63b8ff" points="323.36,-31.61 333.76,-29.58 324.37,-24.68 323.36,-31.61"/>
</a>
</g>
</g>
<!-- Node4 -->
<g id="Node000004" class="node">
<title>Node4</title>
<g id="a_Node000004"><a xlink:href="../../d6/dd4/class_r_e_f_hardware_s_p_i_output_a006f0c4c224b739dea4caa19def41bc0.html#a006f0c4c224b739dea4caa19def41bc0" target="_top" xlink:title="A full cycle of writing a value for len bytes, including select, release, and waiting.">
<polygon fill="white" stroke="#666666" points="131,-30 0,-30 0,0 131,0 131,-30"/>
<text text-anchor="start" x="8" y="-18" font-family="Helvetica,sans-Serif" font-size="10.00">REFHardwareSPIOutput</text>
<text text-anchor="middle" x="65.5" y="-7" font-family="Helvetica,sans-Serif" font-size="10.00">::writeBytes</text>
</a>
</g>
</g>
<!-- Node3&#45;&gt;Node4 -->
<g id="edge3_Node000003_Node000004" class="edge">
<title>Node3&#45;&gt;Node4</title>
<g id="a_edge3_Node000003_Node000004"><a xlink:title=" ">
<path fill="none" stroke="#63b8ff" d="M156.76,-15C148.18,-15 139.48,-15 131.05,-15"/>
<polygon fill="#63b8ff" stroke="#63b8ff" points="156.76,-18.5 166.76,-15 156.76,-11.5 156.76,-18.5"/>
</a>
</g>
</g>
</g>
</svg>
