<?xml version="1.0" encoding="UTF-8" standalone="no"?>
<!DOCTYPE svg PUBLIC "-//W3C//DTD SVG 1.1//EN"
 "http://www.w3.org/Graphics/SVG/1.1/DTD/svg11.dtd">
<!-- Generated by graphviz version 2.43.0 (0)
 -->
<!-- Title: fl/stl/hash.h Pages: 1 -->
<!--zoomable 368 -->

<svg id="main" version="1.1" xmlns="http://www.w3.org/2000/svg" xmlns:xlink="http://www.w3.org/1999/xlink" xml:space="preserve" onload="init(evt)">

<style type="text/css"><![CDATA[
.node, .edge {opacity: 0.7;}
.node.selected, .edge.selected {opacity: 1;}
.edge:hover path { stroke: red; }
.edge:hover polygon { stroke: red; fill: red; }
]]></style>

<defs>
  <circle id="rim" cx="0" cy="0" r="7"/>
  <circle id="rim2" cx="0" cy="0" r="3.5"/>
  <g id="zoomPlus">
    <use xlink:href="#rim" fill="#404040"><set attributeName="fill" to="#808080" begin="zoomplus.mouseover" end="zoomplus.mouseout"/></use>
    <path d="M-4,0h8M0,-4v8" fill="none" stroke="white" stroke-width="1.5" pointer-events="none"/>
  </g>
  <g id="zoomMin">
    <use xlink:href="#rim" fill="#404040"><set attributeName="fill" to="#808080" begin="zoomminus.mouseover" end="zoomminus.mouseout"/></use>
    <path d="M-4,0h8" fill="none" stroke="white" stroke-width="1.5" pointer-events="none"/>
  </g>
  <g id="arrowUp" transform="translate(30 24)">
    <use xlink:href="#rim"/>
    <path pointer-events="none" fill="none" stroke="white" stroke-width="1.5" d="M0,-3.0v7 M-2.5,-0.5L0,-3.0L2.5,-0.5"/>
  </g>
  <g id="arrowRight" transform="rotate(90) translate(36 -43)">
    <use xlink:href="#rim"/>
    <path pointer-events="none" fill="none" stroke="white" stroke-width="1.5" d="M0,-3.0v7 M-2.5,-0.5L0,-3.0L2.5,-0.5"/>
  </g>
  <g id="arrowDown" transform="rotate(180) translate(-30 -48)">
    <use xlink:href="#rim"/>
    <path pointer-events="none" fill="none" stroke="white" stroke-width="1.5" d="M0,-3.0v7 M-2.5,-0.5L0,-3.0L2.5,-0.5"/>
  </g>
  <g id="arrowLeft" transform="rotate(270) translate(-36 17)">
    <use xlink:href="#rim"/>
    <path pointer-events="none" fill="none" stroke="white" stroke-width="1.5" d="M0,-3.0v7 M-2.5,-0.5L0,-3.0L2.5,-0.5"/>
  </g>
  <g id="resetDef">
    <use xlink:href="#rim2" fill="#404040"><set attributeName="fill" to="#808080" begin="reset.mouseover" end="reset.mouseout"/></use>
  </g>
</defs>
<script type="application/ecmascript">
var viewWidth = 2232;
var viewHeight = 368;
var sectionId = 'dynsection-1';
</script>
<script type="application/ecmascript" xlink:href="../../svg.min.js"/>
<svg id="graph" class="graph">
<g id="viewport">
<title>fl/stl/hash.h</title>
<!-- Node1 -->
<g id="Node000001" class="node">
<title>Node1</title>
<g id="a_Node000001"><a xlink:title=" ">
<polygon fill="#999999" stroke="#666666" points="1894.5,-360 1821.5,-360 1821.5,-341 1894.5,-341 1894.5,-360"/>
<text text-anchor="middle" x="1858" y="-348" font-family="Helvetica,sans-Serif" font-size="10.00">fl/stl/hash.h</text>
</a>
</g>
</g>
<!-- Node2 -->
<g id="Node000002" class="node">
<title>Node2</title>
<g id="a_Node000002"><a xlink:href="../../db/daa/unordered__map_8h.html" target="_top" xlink:title=" ">
<polygon fill="white" stroke="#666666" points="1387,-305 1261,-305 1261,-286 1387,-286 1387,-305"/>
<text text-anchor="middle" x="1324" y="-293" font-family="Helvetica,sans-Serif" font-size="10.00">fl/stl/unordered_map.h</text>
</a>
</g>
</g>
<!-- Node1&#45;&gt;Node2 -->
<g id="edge1_Node000001_Node000002" class="edge">
<title>Node1&#45;&gt;Node2</title>
<g id="a_edge1_Node000001_Node000002"><a xlink:title=" ">
<path fill="none" stroke="#63b8ff" d="M1811.31,-344.87C1715.39,-335.35 1496.02,-313.57 1387.37,-302.79"/>
<polygon fill="#63b8ff" stroke="#63b8ff" points="1811,-348.35 1821.3,-345.86 1811.69,-341.39 1811,-348.35"/>
</a>
</g>
</g>
<!-- Node60 -->
<g id="Node000060" class="node">
<title>Node60</title>
<g id="a_Node000060"><a xlink:href="../../d4/d80/unordered__map__lru_8h.html" target="_top" xlink:title=" ">
<polygon fill="white" stroke="#666666" points="1916.5,-250 1799.5,-250 1799.5,-220 1916.5,-220 1916.5,-250"/>
<text text-anchor="start" x="1807.5" y="-238" font-family="Helvetica,sans-Serif" font-size="10.00">fl/stl/unordered_map</text>
<text text-anchor="middle" x="1858" y="-227" font-family="Helvetica,sans-Serif" font-size="10.00">_lru.h</text>
</a>
</g>
</g>
<!-- Node1&#45;&gt;Node60 -->
<g id="edge42_Node000001_Node000060" class="edge">
<title>Node1&#45;&gt;Node60</title>
<g id="a_edge42_Node000001_Node000060"><a xlink:title=" ">
<path fill="none" stroke="#63b8ff" d="M1858,-330.96C1858,-308.34 1858,-270.61 1858,-250.18"/>
<polygon fill="#63b8ff" stroke="#63b8ff" points="1854.5,-330.97 1858,-340.97 1861.5,-330.97 1854.5,-330.97"/>
</a>
</g>
</g>
<!-- Node65 -->
<g id="Node000065" class="node">
<title>Node65</title>
<g id="a_Node000065"><a xlink:href="../../df/d26/unordered__set_8h.html" target="_top" xlink:title=" ">
<polygon fill="white" stroke="#666666" points="2053.5,-244.5 1934.5,-244.5 1934.5,-225.5 2053.5,-225.5 2053.5,-244.5"/>
<text text-anchor="middle" x="1994" y="-232.5" font-family="Helvetica,sans-Serif" font-size="10.00">fl/stl/unordered_set.h</text>
</a>
</g>
</g>
<!-- Node1&#45;&gt;Node65 -->
<g id="edge43_Node000001_Node000065" class="edge">
<title>Node1&#45;&gt;Node65</title>
<g id="a_edge43_Node000001_Node000065"><a xlink:title=" ">
<path fill="none" stroke="#63b8ff" d="M1875.92,-334.55C1904.77,-310.47 1960.61,-263.87 1983.66,-244.63"/>
<polygon fill="#63b8ff" stroke="#63b8ff" points="1873.66,-331.87 1868.22,-340.97 1878.14,-337.25 1873.66,-331.87"/>
</a>
</g>
</g>
<!-- Node3 -->
<g id="Node000003" class="node">
<title>Node3</title>
<g id="a_Node000003"><a xlink:href="../../d4/df9/raster__sparse_8h.html" target="_top" xlink:title=" ">
<polygon fill="white" stroke="#666666" points="733.5,-244.5 614.5,-244.5 614.5,-225.5 733.5,-225.5 733.5,-244.5"/>
<text text-anchor="middle" x="674" y="-232.5" font-family="Helvetica,sans-Serif" font-size="10.00">fl/gfx/raster_sparse.h</text>
</a>
</g>
</g>
<!-- Node2&#45;&gt;Node3 -->
<g id="edge2_Node000002_Node000003" class="edge">
<title>Node2&#45;&gt;Node3</title>
<g id="a_edge2_Node000002_Node000003"><a xlink:title=" ">
<path fill="none" stroke="#63b8ff" d="M1250.54,-287.89C1120.64,-276.2 852.85,-252.1 733.57,-241.36"/>
<polygon fill="#63b8ff" stroke="#63b8ff" points="1250.51,-291.4 1260.79,-288.81 1251.14,-284.43 1250.51,-291.4"/>
</a>
</g>
</g>
<!-- Node23 -->
<g id="Node000023" class="node">
<title>Node23</title>
<g id="a_Node000023"><a xlink:href="../../d6/d6a/fetch_8h.html" target="_top" xlink:title="Unified HTTP fetch API for FastLED (cross&#45;platform)">
<polygon fill="white" stroke="#666666" points="1374.5,-244.5 1273.5,-244.5 1273.5,-225.5 1374.5,-225.5 1374.5,-244.5"/>
<text text-anchor="middle" x="1324" y="-232.5" font-family="Helvetica,sans-Serif" font-size="10.00">fl/net/http/fetch.h</text>
</a>
</g>
</g>
<!-- Node2&#45;&gt;Node23 -->
<g id="edge7_Node000002_Node000023" class="edge">
<title>Node2&#45;&gt;Node23</title>
<g id="a_edge7_Node000002_Node000023"><a xlink:title=" ">
<path fill="none" stroke="#63b8ff" d="M1324,-275.66C1324,-265.24 1324,-252.8 1324,-244.67"/>
<polygon fill="#63b8ff" stroke="#63b8ff" points="1320.5,-275.87 1324,-285.87 1327.5,-275.87 1320.5,-275.87"/>
</a>
</g>
</g>
<!-- Node38 -->
<g id="Node000038" class="node">
<title>Node38</title>
<g id="a_Node000038"><a xlink:href="../../d6/d06/remote_8h.html" target="_top" xlink:title=" ">
<polygon fill="white" stroke="#666666" points="541,-96 433,-96 433,-77 541,-77 541,-96"/>
<text text-anchor="middle" x="487" y="-84" font-family="Helvetica,sans-Serif" font-size="10.00">fl/remote/remote.h</text>
</a>
</g>
</g>
<!-- Node2&#45;&gt;Node38 -->
<g id="edge15_Node000002_Node000038" class="edge">
<title>Node2&#45;&gt;Node38</title>
<g id="a_edge15_Node000002_Node000038"><a xlink:title=" ">
<path fill="none" stroke="#63b8ff" d="M1250.69,-293.05C1079.24,-289.21 662.23,-277.17 605,-250 537.28,-217.85 500.08,-125.08 489.9,-96.2"/>
<polygon fill="#63b8ff" stroke="#63b8ff" points="1250.81,-296.55 1260.89,-293.27 1250.97,-289.55 1250.81,-296.55"/>
</a>
</g>
</g>
<!-- Node50 -->
<g id="Node000050" class="node">
<title>Node50</title>
<g id="a_Node000050"><a xlink:href="../../d5/d8f/rpc_8cpp_8hpp.html" target="_top" xlink:title=" ">
<polygon fill="white" stroke="#666666" points="337,-96 199,-96 199,-77 337,-77 337,-96"/>
<text text-anchor="middle" x="268" y="-84" font-family="Helvetica,sans-Serif" font-size="10.00">fl/remote/rpc/rpc.cpp.hpp</text>
</a>
</g>
</g>
<!-- Node2&#45;&gt;Node50 -->
<g id="edge22_Node000002_Node000050" class="edge">
<title>Node2&#45;&gt;Node50</title>
<g id="a_edge22_Node000002_Node000050"><a xlink:title=" ">
<path fill="none" stroke="#63b8ff" d="M1250.84,-294.07C1018.49,-292.35 310.53,-284.3 276,-250 233.31,-207.6 256.12,-123.26 264.99,-96.13"/>
<polygon fill="#63b8ff" stroke="#63b8ff" points="1250.86,-297.57 1260.88,-294.14 1250.91,-290.57 1250.86,-297.57"/>
</a>
</g>
</g>
<!-- Node52 -->
<g id="Node000052" class="node">
<title>Node52</title>
<g id="a_Node000052"><a xlink:href="../../df/d16/remote_2rpc_2rpc_8h.html" target="_top" xlink:title=" ">
<polygon fill="white" stroke="#666666" points="429,-167.5 323,-167.5 323,-148.5 429,-148.5 429,-167.5"/>
<text text-anchor="middle" x="376" y="-155.5" font-family="Helvetica,sans-Serif" font-size="10.00">fl/remote/rpc/rpc.h</text>
</a>
</g>
</g>
<!-- Node2&#45;&gt;Node52 -->
<g id="edge24_Node000002_Node000052" class="edge">
<title>Node2&#45;&gt;Node52</title>
<g id="a_edge24_Node000002_Node000052"><a xlink:title=" ">
<path fill="none" stroke="#63b8ff" d="M1250.44,-293.25C1058.98,-289.63 555.16,-277.56 485,-250 461.6,-240.81 406.28,-188.48 384.77,-167.6"/>
<polygon fill="#63b8ff" stroke="#63b8ff" points="1250.62,-296.75 1260.68,-293.44 1250.75,-289.76 1250.62,-296.75"/>
</a>
</g>
</g>
<!-- Node53 -->
<g id="Node000053" class="node">
<title>Node53</title>
<g id="a_Node000053"><a xlink:href="../../df/d30/rpc__registry_8h.html" target="_top" xlink:title=" ">
<polygon fill="white" stroke="#666666" points="432.5,-244.5 285.5,-244.5 285.5,-225.5 432.5,-225.5 432.5,-244.5"/>
<text text-anchor="middle" x="359" y="-232.5" font-family="Helvetica,sans-Serif" font-size="10.00">fl/remote/rpc/rpc_registry.h</text>
</a>
</g>
</g>
<!-- Node2&#45;&gt;Node53 -->
<g id="edge28_Node000002_Node000053" class="edge">
<title>Node2&#45;&gt;Node53</title>
<g id="a_edge28_Node000002_Node000053"><a xlink:title=" ">
<path fill="none" stroke="#63b8ff" d="M1250.74,-293.43C1099.93,-290.65 744,-281.07 447,-250 433.92,-248.63 419.83,-246.63 406.83,-244.56"/>
<polygon fill="#63b8ff" stroke="#63b8ff" points="1250.75,-296.93 1260.81,-293.61 1250.87,-289.93 1250.75,-296.93"/>
</a>
</g>
</g>
<!-- Node54 -->
<g id="Node000054" class="node">
<title>Node54</title>
<g id="a_Node000054"><a xlink:href="../../d8/d04/string__interner_8cpp_8hpp.html" target="_top" xlink:title=" ">
<polygon fill="white" stroke="#666666" points="1836,-167.5 1684,-167.5 1684,-148.5 1836,-148.5 1836,-167.5"/>
<text text-anchor="middle" x="1760" y="-155.5" font-family="Helvetica,sans-Serif" font-size="10.00">fl/stl/string_interner.cpp.hpp</text>
</a>
</g>
</g>
<!-- Node2&#45;&gt;Node54 -->
<g id="edge31_Node000002_Node000054" class="edge">
<title>Node2&#45;&gt;Node54</title>
<g id="a_edge31_Node000002_Node000054"><a xlink:title=" ">
<path fill="none" stroke="#63b8ff" d="M1361.19,-282.94C1446.98,-256.28 1657.12,-190.97 1732.52,-167.54"/>
<polygon fill="#63b8ff" stroke="#63b8ff" points="1360.12,-279.61 1351.6,-285.92 1362.19,-286.3 1360.12,-279.61"/>
</a>
</g>
</g>
<!-- Node57 -->
<g id="Node000057" class="node">
<title>Node57</title>
<g id="a_Node000057"><a xlink:href="../../dd/daa/string__interner_8h.html" target="_top" xlink:title=" ">
<polygon fill="white" stroke="#666666" points="1781,-244.5 1661,-244.5 1661,-225.5 1781,-225.5 1781,-244.5"/>
<text text-anchor="middle" x="1721" y="-232.5" font-family="Helvetica,sans-Serif" font-size="10.00">fl/stl/string_interner.h</text>
</a>
</g>
</g>
<!-- Node2&#45;&gt;Node57 -->
<g id="edge33_Node000002_Node000057" class="edge">
<title>Node2&#45;&gt;Node57</title>
<g id="a_edge33_Node000002_Node000057"><a xlink:title=" ">
<path fill="none" stroke="#63b8ff" d="M1391.73,-284.52C1468.14,-273.26 1591.14,-255.14 1663.2,-244.52"/>
<polygon fill="#63b8ff" stroke="#63b8ff" points="1391.11,-281.07 1381.73,-285.99 1392.13,-288 1391.11,-281.07"/>
</a>
</g>
</g>
<!-- Node2&#45;&gt;Node60 -->
<g id="edge39_Node000002_Node000060" class="edge">
<title>Node2&#45;&gt;Node60</title>
<g id="a_edge39_Node000002_Node000060"><a xlink:title=" ">
<path fill="none" stroke="#63b8ff" d="M1397.25,-289.96C1489.28,-283.69 1651.92,-270.75 1790,-250 1793.1,-249.53 1796.27,-249.02 1799.47,-248.47"/>
<polygon fill="#63b8ff" stroke="#63b8ff" points="1396.94,-286.47 1387.2,-290.64 1397.41,-293.45 1396.94,-286.47"/>
</a>
</g>
</g>
<!-- Node2&#45;&gt;Node65 -->
<g id="edge41_Node000002_Node000065" class="edge">
<title>Node2&#45;&gt;Node65</title>
<g id="a_edge41_Node000002_Node000065"><a xlink:title=" ">
<path fill="none" stroke="#63b8ff" d="M1397.44,-292.13C1511.16,-287.77 1736.52,-276.4 1926,-250 1936.15,-248.59 1947.05,-246.57 1957.09,-244.5"/>
<polygon fill="#63b8ff" stroke="#63b8ff" points="1396.98,-288.65 1387.12,-292.52 1397.24,-295.64 1396.98,-288.65"/>
</a>
</g>
</g>
<!-- Node4 -->
<g id="Node000004" class="node">
<title>Node4</title>
<g id="a_Node000004"><a xlink:href="../../d1/d1e/raster_8h.html" target="_top" xlink:title=" ">
<polygon fill="#fff0f0" stroke="red" points="646.5,-167.5 565.5,-167.5 565.5,-148.5 646.5,-148.5 646.5,-167.5"/>
<text text-anchor="middle" x="606" y="-155.5" font-family="Helvetica,sans-Serif" font-size="10.00">fl/gfx/raster.h</text>
</a>
</g>
</g>
<!-- Node3&#45;&gt;Node4 -->
<g id="edge3_Node000003_Node000004" class="edge">
<title>Node3&#45;&gt;Node4</title>
<g id="a_edge3_Node000003_Node000004"><a xlink:title=" ">
<path fill="none" stroke="#63b8ff" d="M659.19,-217.66C645.18,-202.22 624.73,-179.65 613.71,-167.5"/>
<polygon fill="#63b8ff" stroke="#63b8ff" points="656.89,-220.34 666.2,-225.4 662.08,-215.64 656.89,-220.34"/>
</a>
</g>
</g>
<!-- Node16 -->
<g id="Node000016" class="node">
<title>Node16</title>
<g id="a_Node000016"><a xlink:href="../../d9/d7d/tile2x2_8cpp_8hpp.html" target="_top" xlink:title=" ">
<polygon fill="#fff0f0" stroke="red" points="678.5,-96 559.5,-96 559.5,-77 678.5,-77 678.5,-96"/>
<text text-anchor="middle" x="619" y="-84" font-family="Helvetica,sans-Serif" font-size="10.00">fl/gfx/tile2x2.cpp.hpp</text>
</a>
</g>
</g>
<!-- Node3&#45;&gt;Node16 -->
<g id="edge6_Node000003_Node000016" class="edge">
<title>Node3&#45;&gt;Node16</title>
<g id="a_edge6_Node000003_Node000016"><a xlink:title=" ">
<path fill="none" stroke="#63b8ff" d="M611.88,-222.38C590.49,-215.08 568.73,-203.22 556,-184 543.24,-164.73 545.37,-152.52 556,-132 564.75,-115.12 583.17,-103.27 597.85,-96.07"/>
<polygon fill="#63b8ff" stroke="#63b8ff" points="611.07,-225.79 621.65,-225.42 613.15,-219.1 611.07,-225.79"/>
</a>
</g>
</g>
<!-- Node22 -->
<g id="Node000022" class="node">
<title>Node22</title>
<g id="a_Node000022"><a xlink:href="../../d7/de9/raster__sparse_8cpp_8hpp.html" target="_top" xlink:title=" ">
<polygon fill="#fff0f0" stroke="red" points="817,-167.5 665,-167.5 665,-148.5 817,-148.5 817,-167.5"/>
<text text-anchor="middle" x="741" y="-155.5" font-family="Helvetica,sans-Serif" font-size="10.00">fl/gfx/raster_sparse.cpp.hpp</text>
</a>
</g>
</g>
<!-- Node3&#45;&gt;Node22 -->
<g id="edge5_Node000003_Node000022" class="edge">
<title>Node3&#45;&gt;Node22</title>
<g id="a_edge5_Node000003_Node000022"><a xlink:title=" ">
<path fill="none" stroke="#63b8ff" d="M688.6,-217.66C702.39,-202.22 722.55,-179.65 733.4,-167.5"/>
<polygon fill="#63b8ff" stroke="#63b8ff" points="685.74,-215.61 681.69,-225.4 690.96,-220.27 685.74,-215.61"/>
</a>
</g>
</g>
<!-- Node4&#45;&gt;Node16 -->
<g id="edge4_Node000004_Node000016" class="edge">
<title>Node4&#45;&gt;Node16</title>
<g id="a_edge4_Node000004_Node000016"><a xlink:title=" ">
<path fill="none" stroke="#63b8ff" d="M609.44,-138.62C612.01,-124.86 615.42,-106.65 617.39,-96.09"/>
<polygon fill="#63b8ff" stroke="#63b8ff" points="605.99,-138 607.59,-148.48 612.87,-139.29 605.99,-138"/>
</a>
</g>
</g>
<!-- Node24 -->
<g id="Node000024" class="node">
<title>Node24</title>
<g id="a_Node000024"><a xlink:href="../../df/d01/_client_real_8h.html" target="_top" xlink:title=" ">
<polygon fill="#fff0f0" stroke="red" points="985,-178.5 835,-178.5 835,-137.5 985,-137.5 985,-178.5"/>
<text text-anchor="start" x="843" y="-166.5" font-family="Helvetica,sans-Serif" font-size="10.00">/home/runner/work/FastLED</text>
<text text-anchor="start" x="843" y="-155.5" font-family="Helvetica,sans-Serif" font-size="10.00">/FastLED/examples/Asio</text>
<text text-anchor="middle" x="910" y="-144.5" font-family="Helvetica,sans-Serif" font-size="10.00">/Client/ClientReal.h</text>
</a>
</g>
</g>
<!-- Node23&#45;&gt;Node24 -->
<g id="edge8_Node000023_Node000024" class="edge">
<title>Node23&#45;&gt;Node24</title>
<g id="a_edge8_Node000023_Node000024"><a xlink:title=" ">
<path fill="none" stroke="#63b8ff" d="M1263.06,-227.44C1196.28,-219.63 1086.25,-204.97 993,-184 985.95,-182.41 978.63,-180.55 971.38,-178.55"/>
<polygon fill="#63b8ff" stroke="#63b8ff" points="1263.06,-230.96 1273.4,-228.63 1263.86,-224.01 1263.06,-230.96"/>
</a>
</g>
</g>
<!-- Node26 -->
<g id="Node000026" class="node">
<title>Node26</title>
<g id="a_Node000026"><a xlink:href="../../d9/dce/_client_validation_real_8h.html" target="_top" xlink:title=" ">
<polygon fill="#fff0f0" stroke="red" points="1179.5,-184 1002.5,-184 1002.5,-132 1179.5,-132 1179.5,-184"/>
<text text-anchor="start" x="1010.5" y="-172" font-family="Helvetica,sans-Serif" font-size="10.00">/home/runner/work/FastLED</text>
<text text-anchor="start" x="1010.5" y="-161" font-family="Helvetica,sans-Serif" font-size="10.00">/FastLED/examples/Asio</text>
<text text-anchor="start" x="1010.5" y="-150" font-family="Helvetica,sans-Serif" font-size="10.00">/ClientValidation/ClientValidation</text>
<text text-anchor="middle" x="1091" y="-139" font-family="Helvetica,sans-Serif" font-size="10.00">Real.h</text>
</a>
</g>
</g>
<!-- Node23&#45;&gt;Node26 -->
<g id="edge9_Node000023_Node000026" class="edge">
<title>Node23&#45;&gt;Node26</title>
<g id="a_edge9_Node000023_Node000026"><a xlink:title=" ">
<path fill="none" stroke="#63b8ff" d="M1287.56,-222.27C1255.89,-212.08 1208.95,-196.97 1168.88,-184.07"/>
<polygon fill="#63b8ff" stroke="#63b8ff" points="1286.68,-225.66 1297.27,-225.4 1288.83,-219 1286.68,-225.66"/>
</a>
</g>
</g>
<!-- Node28 -->
<g id="Node000028" class="node">
<title>Node28</title>
<g id="a_Node000028"><a xlink:href="../../d3/d25/_loopback_test_runner_8h.html" target="_top" xlink:title="Non&#45;blocking HTTP test runner for FastLED loopback testing.">
<polygon fill="#fff0f0" stroke="red" points="1375,-178.5 1197,-178.5 1197,-137.5 1375,-137.5 1375,-178.5"/>
<text text-anchor="start" x="1205" y="-166.5" font-family="Helvetica,sans-Serif" font-size="10.00">/home/runner/work/FastLED</text>
<text text-anchor="start" x="1205" y="-155.5" font-family="Helvetica,sans-Serif" font-size="10.00">/FastLED/examples/Asio</text>
<text text-anchor="middle" x="1286" y="-144.5" font-family="Helvetica,sans-Serif" font-size="10.00">/Loopback/LoopbackTestRunner.h</text>
</a>
</g>
</g>
<!-- Node23&#45;&gt;Node28 -->
<g id="edge10_Node000023_Node000028" class="edge">
<title>Node23&#45;&gt;Node28</title>
<g id="a_edge10_Node000023_Node000028"><a xlink:title=" ">
<path fill="none" stroke="#63b8ff" d="M1314.96,-216.16C1309.25,-204.89 1301.87,-190.32 1295.99,-178.71"/>
<polygon fill="#63b8ff" stroke="#63b8ff" points="1312,-218.06 1319.64,-225.4 1318.24,-214.89 1312,-218.06"/>
</a>
</g>
</g>
<!-- Node30 -->
<g id="Node000030" class="node">
<title>Node30</title>
<g id="a_Node000030"><a xlink:href="../../dd/d56/http_8h.html" target="_top" xlink:title="fl::net::http — High&#45;level HTTP client and server facade">
<polygon fill="#fff0f0" stroke="red" points="1504.5,-167.5 1431.5,-167.5 1431.5,-148.5 1504.5,-148.5 1504.5,-167.5"/>
<text text-anchor="middle" x="1468" y="-155.5" font-family="Helvetica,sans-Serif" font-size="10.00">fl/net/http.h</text>
</a>
</g>
</g>
<!-- Node23&#45;&gt;Node30 -->
<g id="edge11_Node000023_Node000030" class="edge">
<title>Node23&#45;&gt;Node30</title>
<g id="a_edge11_Node000023_Node000030"><a xlink:title=" ">
<path fill="none" stroke="#63b8ff" d="M1349.4,-220.77C1378.91,-205.4 1426.73,-180.5 1451.67,-167.5"/>
<polygon fill="#63b8ff" stroke="#63b8ff" points="1347.77,-217.67 1340.52,-225.4 1351,-223.88 1347.77,-217.67"/>
</a>
</g>
</g>
<!-- Node32 -->
<g id="Node000032" class="node">
<title>Node32</title>
<g id="a_Node000032"><a xlink:href="../../de/daa/fetch_8cpp_8hpp.html" target="_top" xlink:title=" ">
<polygon fill="#fff0f0" stroke="red" points="1564.5,-96 1431.5,-96 1431.5,-77 1564.5,-77 1564.5,-96"/>
<text text-anchor="middle" x="1498" y="-84" font-family="Helvetica,sans-Serif" font-size="10.00">fl/net/http/fetch.cpp.hpp</text>
</a>
</g>
</g>
<!-- Node23&#45;&gt;Node32 -->
<g id="edge12_Node000023_Node000032" class="edge">
<title>Node23&#45;&gt;Node32</title>
<g id="a_edge12_Node000023_Node000032"><a xlink:title=" ">
<path fill="none" stroke="#63b8ff" d="M1344.43,-219.01C1356.57,-209.62 1371.91,-196.89 1384,-184 1403.59,-163.13 1400.76,-151.19 1422,-132 1439.13,-116.52 1462.49,-103.82 1478.78,-96.01"/>
<polygon fill="#63b8ff" stroke="#63b8ff" points="1342.1,-216.38 1336.25,-225.21 1346.33,-221.96 1342.1,-216.38"/>
</a>
</g>
</g>
<!-- Node36 -->
<g id="Node000036" class="node">
<title>Node36</title>
<g id="a_Node000036"><a xlink:href="../../d2/d83/fetch__request_8h.html" target="_top" xlink:title=" ">
<polygon fill="#fff0f0" stroke="red" points="1665.5,-167.5 1522.5,-167.5 1522.5,-148.5 1665.5,-148.5 1665.5,-167.5"/>
<text text-anchor="middle" x="1594" y="-155.5" font-family="Helvetica,sans-Serif" font-size="10.00">fl/net/http/fetch_request.h</text>
</a>
</g>
</g>
<!-- Node23&#45;&gt;Node36 -->
<g id="edge13_Node000023_Node000036" class="edge">
<title>Node23&#45;&gt;Node36</title>
<g id="a_edge13_Node000023_Node000036"><a xlink:title=" ">
<path fill="none" stroke="#63b8ff" d="M1367.74,-222.97C1406.13,-213.16 1463.43,-198.2 1513,-184 1531.11,-178.81 1551.36,-172.56 1567.08,-167.61"/>
<polygon fill="#63b8ff" stroke="#63b8ff" points="1366.74,-219.61 1357.91,-225.47 1368.47,-226.39 1366.74,-219.61"/>
</a>
</g>
</g>
<!-- Node36&#45;&gt;Node32 -->
<g id="edge14_Node000036_Node000032" class="edge">
<title>Node36&#45;&gt;Node32</title>
<g id="a_edge14_Node000036_Node000032"><a xlink:title=" ">
<path fill="none" stroke="#63b8ff" d="M1574.07,-142.57C1554.69,-128.54 1525.9,-107.7 1509.87,-96.09"/>
<polygon fill="#63b8ff" stroke="#63b8ff" points="1572.08,-145.45 1582.23,-148.48 1576.18,-139.78 1572.08,-145.45"/>
</a>
</g>
</g>
<!-- Node39 -->
<g id="Node000039" class="node">
<title>Node39</title>
<g id="a_Node000039"><a xlink:href="../../d7/d08/_rpc_bidirectional_8ino.html" target="_top" xlink:title="Example demonstrating bidirectional HTTP streaming RPC (server + client in same process)">
<polygon fill="white" stroke="#666666" points="1151,-41 951,-41 951,0 1151,0 1151,-41"/>
<text text-anchor="start" x="959" y="-29" font-family="Helvetica,sans-Serif" font-size="10.00">/home/runner/work/FastLED</text>
<text text-anchor="start" x="959" y="-18" font-family="Helvetica,sans-Serif" font-size="10.00">/FastLED/examples/Asio</text>
<text text-anchor="middle" x="1051" y="-7" font-family="Helvetica,sans-Serif" font-size="10.00">/RpcBidirectional/RpcBidirectional.ino</text>
</a>
</g>
</g>
<!-- Node38&#45;&gt;Node39 -->
<g id="edge16_Node000038_Node000039" class="edge">
<title>Node38&#45;&gt;Node39</title>
<g id="a_edge16_Node000038_Node000039"><a xlink:title=" ">
<path fill="none" stroke="#63b8ff" d="M551.28,-76.9C725.1,-57.58 771.25,-63.82 941,-41 944.27,-40.56 947.59,-40.09 950.94,-39.6"/>
<polygon fill="#63b8ff" stroke="#63b8ff" points="550.82,-73.43 541.28,-78.03 551.61,-80.39 550.82,-73.43"/>
</a>
</g>
</g>
<!-- Node40 -->
<g id="Node000040" class="node">
<title>Node40</title>
<g id="a_Node000040"><a xlink:href="../../d8/db9/_rpc_client_8ino.html" target="_top" xlink:title="Example demonstrating HTTP streaming RPC client.">
<polygon fill="white" stroke="#666666" points="478,-41 328,-41 328,0 478,0 478,-41"/>
<text text-anchor="start" x="336" y="-29" font-family="Helvetica,sans-Serif" font-size="10.00">/home/runner/work/FastLED</text>
<text text-anchor="start" x="336" y="-18" font-family="Helvetica,sans-Serif" font-size="10.00">/FastLED/examples/Asio</text>
<text text-anchor="middle" x="403" y="-7" font-family="Helvetica,sans-Serif" font-size="10.00">/RpcClient/RpcClient.ino</text>
</a>
</g>
</g>
<!-- Node38&#45;&gt;Node40 -->
<g id="edge17_Node000038_Node000040" class="edge">
<title>Node38&#45;&gt;Node40</title>
<g id="a_edge17_Node000038_Node000040"><a xlink:title=" ">
<path fill="none" stroke="#63b8ff" d="M467.54,-70.67C455.96,-61.85 441.13,-50.55 428.61,-41.01"/>
<polygon fill="#63b8ff" stroke="#63b8ff" points="465.6,-73.59 475.67,-76.87 469.84,-68.02 465.6,-73.59"/>
</a>
</g>
</g>
<!-- Node41 -->
<g id="Node000041" class="node">
<title>Node41</title>
<g id="a_Node000041"><a xlink:href="../../d2/df2/_rpc_server_8ino.html" target="_top" xlink:title="Example demonstrating fl::Remote with HTTP streaming transport (server side)">
<polygon fill="white" stroke="#666666" points="646,-41 496,-41 496,0 646,0 646,-41"/>
<text text-anchor="start" x="504" y="-29" font-family="Helvetica,sans-Serif" font-size="10.00">/home/runner/work/FastLED</text>
<text text-anchor="start" x="504" y="-18" font-family="Helvetica,sans-Serif" font-size="10.00">/FastLED/examples/Asio</text>
<text text-anchor="middle" x="571" y="-7" font-family="Helvetica,sans-Serif" font-size="10.00">/RpcServer/RpcServer.ino</text>
</a>
</g>
</g>
<!-- Node38&#45;&gt;Node41 -->
<g id="edge18_Node000038_Node000041" class="edge">
<title>Node38&#45;&gt;Node41</title>
<g id="a_edge18_Node000038_Node000041"><a xlink:title=" ">
<path fill="none" stroke="#63b8ff" d="M506.46,-70.67C518.04,-61.85 532.87,-50.55 545.39,-41.01"/>
<polygon fill="#63b8ff" stroke="#63b8ff" points="504.16,-68.02 498.33,-76.87 508.4,-73.59 504.16,-68.02"/>
</a>
</g>
</g>
<!-- Node42 -->
<g id="Node000042" class="node">
<title>Node42</title>
<g id="a_Node000042"><a xlink:href="../../d1/df2/_auto_research_low_memory_8h.html" target="_top" xlink:title=" ">
<polygon fill="white" stroke="#666666" points="843.5,-41 664.5,-41 664.5,0 843.5,0 843.5,-41"/>
<text text-anchor="start" x="672.5" y="-29" font-family="Helvetica,sans-Serif" font-size="10.00">/home/runner/work/FastLED</text>
<text text-anchor="start" x="672.5" y="-18" font-family="Helvetica,sans-Serif" font-size="10.00">/FastLED/examples/AutoResearch</text>
<text text-anchor="middle" x="754" y="-7" font-family="Helvetica,sans-Serif" font-size="10.00">/AutoResearchLowMemory.h</text>
</a>
</g>
</g>
<!-- Node38&#45;&gt;Node42 -->
<g id="edge19_Node000038_Node000042" class="edge">
<title>Node38&#45;&gt;Node42</title>
<g id="a_edge19_Node000038_Node000042"><a xlink:title=" ">
<path fill="none" stroke="#63b8ff" d="M532.56,-74.58C570.84,-65.4 626.5,-52.06 672.44,-41.05"/>
<polygon fill="#63b8ff" stroke="#63b8ff" points="531.64,-71.2 522.73,-76.94 533.27,-78.01 531.64,-71.2"/>
</a>
</g>
</g>
<!-- Node43 -->
<g id="Node000043" class="node">
<title>Node43</title>
<g id="a_Node000043"><a xlink:href="../../dd/df9/wled_8h.html" target="_top" xlink:title=" ">
<polygon fill="#fff0f0" stroke="red" points="932.5,-30 861.5,-30 861.5,-11 932.5,-11 932.5,-30"/>
<text text-anchor="middle" x="897" y="-18" font-family="Helvetica,sans-Serif" font-size="10.00">fl/fx/wled.h</text>
</a>
</g>
</g>
<!-- Node38&#45;&gt;Node43 -->
<g id="edge20_Node000038_Node000043" class="edge">
<title>Node38&#45;&gt;Node43</title>
<g id="a_edge20_Node000038_Node000043"><a xlink:title=" ">
<path fill="none" stroke="#63b8ff" d="M551.56,-76.85C685.98,-60.73 724.69,-75.38 852,-41 861.7,-38.38 872.02,-34.03 880.32,-30.11"/>
<polygon fill="#63b8ff" stroke="#63b8ff" points="550.78,-73.42 541.29,-78.12 551.64,-80.37 550.78,-73.42"/>
</a>
</g>
</g>
<!-- Node47 -->
<g id="Node000047" class="node">
<title>Node47</title>
<g id="a_Node000047"><a xlink:href="../../db/d04/remote_8cpp_8hpp.html" target="_top" xlink:title=" ">
<polygon fill="#fff0f0" stroke="red" points="310,-30 170,-30 170,-11 310,-11 310,-30"/>
<text text-anchor="middle" x="240" y="-18" font-family="Helvetica,sans-Serif" font-size="10.00">fl/remote/remote.cpp.hpp</text>
</a>
</g>
</g>
<!-- Node38&#45;&gt;Node47 -->
<g id="edge21_Node000038_Node000047" class="edge">
<title>Node38&#45;&gt;Node47</title>
<g id="a_edge21_Node000038_Node000047"><a xlink:title=" ">
<path fill="none" stroke="#63b8ff" d="M444.02,-74.36C395.3,-61.74 316.94,-41.44 272.86,-30.01"/>
<polygon fill="#63b8ff" stroke="#63b8ff" points="443.39,-77.81 453.94,-76.94 445.14,-71.04 443.39,-77.81"/>
</a>
</g>
</g>
<!-- Node51 -->
<g id="Node000051" class="node">
<title>Node51</title>
<g id="a_Node000051"><a xlink:href="../../de/d1e/fl_2remote_2rpc_2__build_8cpp_8hpp.html" target="_top" xlink:title=" ">
<polygon fill="#fff0f0" stroke="red" points="152,-30 0,-30 0,-11 152,-11 152,-30"/>
<text text-anchor="middle" x="76" y="-18" font-family="Helvetica,sans-Serif" font-size="10.00">fl/remote/rpc/_build.cpp.hpp</text>
</a>
</g>
</g>
<!-- Node50&#45;&gt;Node51 -->
<g id="edge23_Node000050_Node000051" class="edge">
<title>Node50&#45;&gt;Node51</title>
<g id="a_edge23_Node000050_Node000051"><a xlink:title=" ">
<path fill="none" stroke="#63b8ff" d="M232.49,-73.66C194.59,-61.03 135.47,-41.32 101.79,-30.1"/>
<polygon fill="#63b8ff" stroke="#63b8ff" points="231.51,-77.03 242.11,-76.87 233.73,-70.39 231.51,-77.03"/>
</a>
</g>
</g>
<!-- Node52&#45;&gt;Node38 -->
<g id="edge26_Node000052_Node000038" class="edge">
<title>Node52&#45;&gt;Node38</title>
<g id="a_edge26_Node000052_Node000038"><a xlink:title=" ">
<path fill="none" stroke="#63b8ff" d="M398.15,-143.13C420.55,-129.1 454.49,-107.85 473.28,-96.09"/>
<polygon fill="#63b8ff" stroke="#63b8ff" points="396.23,-140.2 389.61,-148.48 399.94,-146.14 396.23,-140.2"/>
</a>
</g>
</g>
<!-- Node52&#45;&gt;Node47 -->
<g id="edge25_Node000052_Node000047" class="edge">
<title>Node52&#45;&gt;Node47</title>
<g id="a_edge25_Node000052_Node000047"><a xlink:title=" ">
<path fill="none" stroke="#63b8ff" d="M372.96,-138.33C369.25,-120.73 361.46,-94.5 346,-77 325.37,-53.65 292.52,-38.61 268.86,-30.16"/>
<polygon fill="#63b8ff" stroke="#63b8ff" points="369.53,-139.06 374.81,-148.25 376.42,-137.78 369.53,-139.06"/>
</a>
</g>
</g>
<!-- Node52&#45;&gt;Node50 -->
<g id="edge27_Node000052_Node000050" class="edge">
<title>Node52&#45;&gt;Node50</title>
<g id="a_edge27_Node000052_Node000050"><a xlink:title=" ">
<path fill="none" stroke="#63b8ff" d="M354.16,-142.95C332.36,-128.91 299.55,-107.8 281.35,-96.09"/>
<polygon fill="#63b8ff" stroke="#63b8ff" points="352.45,-146.01 362.76,-148.48 356.24,-140.12 352.45,-146.01"/>
</a>
</g>
</g>
<!-- Node53&#45;&gt;Node50 -->
<g id="edge29_Node000053_Node000050" class="edge">
<title>Node53&#45;&gt;Node50</title>
<g id="a_edge29_Node000053_Node000050"><a xlink:title=" ">
<path fill="none" stroke="#63b8ff" d="M342.75,-218.35C333.57,-208.96 322.31,-196.44 314,-184 293.9,-153.9 277.73,-113.67 271.17,-96.2"/>
<polygon fill="#63b8ff" stroke="#63b8ff" points="340.31,-220.86 349.86,-225.44 345.25,-215.9 340.31,-220.86"/>
</a>
</g>
</g>
<!-- Node53&#45;&gt;Node52 -->
<g id="edge30_Node000053_Node000052" class="edge">
<title>Node53&#45;&gt;Node52</title>
<g id="a_edge30_Node000053_Node000052"><a xlink:title=" ">
<path fill="none" stroke="#63b8ff" d="M363.2,-215.47C366.67,-200.15 371.45,-179.09 374.07,-167.5"/>
<polygon fill="#63b8ff" stroke="#63b8ff" points="359.75,-214.87 360.95,-225.4 366.57,-216.42 359.75,-214.87"/>
</a>
</g>
</g>
<!-- Node55 -->
<g id="Node000055" class="node">
<title>Node55</title>
<g id="a_Node000055"><a xlink:href="../../dc/d07/fl_2stl_2__build_8cpp_8hpp.html" target="_top" xlink:title=" ">
<polygon fill="#fff0f0" stroke="red" points="1964.5,-96 1853.5,-96 1853.5,-77 1964.5,-77 1964.5,-96"/>
<text text-anchor="middle" x="1909" y="-84" font-family="Helvetica,sans-Serif" font-size="10.00">fl/stl/_build.cpp.hpp</text>
</a>
</g>
</g>
<!-- Node54&#45;&gt;Node55 -->
<g id="edge32_Node000054_Node000055" class="edge">
<title>Node54&#45;&gt;Node55</title>
<g id="a_edge32_Node000054_Node000055"><a xlink:title=" ">
<path fill="none" stroke="#63b8ff" d="M1787.36,-144.24C1817.36,-130.24 1864.69,-108.17 1890.58,-96.09"/>
<polygon fill="#63b8ff" stroke="#63b8ff" points="1785.85,-141.08 1778.27,-148.48 1788.81,-147.42 1785.85,-141.08"/>
</a>
</g>
</g>
<!-- Node57&#45;&gt;Node54 -->
<g id="edge38_Node000057_Node000054" class="edge">
<title>Node57&#45;&gt;Node54</title>
<g id="a_edge38_Node000057_Node000054"><a xlink:title=" ">
<path fill="none" stroke="#63b8ff" d="M1730.17,-216.36C1738.18,-200.97 1749.44,-179.32 1755.58,-167.5"/>
<polygon fill="#63b8ff" stroke="#63b8ff" points="1726.98,-214.91 1725.47,-225.4 1733.19,-218.14 1726.98,-214.91"/>
</a>
</g>
</g>
<!-- Node58 -->
<g id="Node000058" class="node">
<title>Node58</title>
<g id="a_Node000058"><a xlink:href="../../db/da5/json_8cpp_8hpp.html" target="_top" xlink:title=" ">
<polygon fill="white" stroke="#666666" points="2084,-167.5 1982,-167.5 1982,-148.5 2084,-148.5 2084,-167.5"/>
<text text-anchor="middle" x="2033" y="-155.5" font-family="Helvetica,sans-Serif" font-size="10.00">fl/stl/json.cpp.hpp</text>
</a>
</g>
</g>
<!-- Node57&#45;&gt;Node58 -->
<g id="edge34_Node000057_Node000058" class="edge">
<title>Node57&#45;&gt;Node58</title>
<g id="a_edge34_Node000057_Node000058"><a xlink:title=" ">
<path fill="none" stroke="#63b8ff" d="M1773.13,-223.39C1778.82,-222.24 1784.53,-221.09 1790,-220 1871.29,-203.76 1893.68,-208.06 1973,-184 1987.58,-179.58 2003.47,-172.87 2015.23,-167.51"/>
<polygon fill="#63b8ff" stroke="#63b8ff" points="1772.06,-220.03 1762.95,-225.45 1773.45,-226.89 1772.06,-220.03"/>
</a>
</g>
</g>
<!-- Node59 -->
<g id="Node000059" class="node">
<title>Node59</title>
<g id="a_Node000059"><a xlink:href="../../d3/d61/stl_2string_8cpp_8hpp.html" target="_top" xlink:title=" ">
<polygon fill="white" stroke="#666666" points="1964,-167.5 1854,-167.5 1854,-148.5 1964,-148.5 1964,-167.5"/>
<text text-anchor="middle" x="1909" y="-155.5" font-family="Helvetica,sans-Serif" font-size="10.00">fl/stl/string.cpp.hpp</text>
</a>
</g>
</g>
<!-- Node57&#45;&gt;Node59 -->
<g id="edge36_Node000057_Node000059" class="edge">
<title>Node57&#45;&gt;Node59</title>
<g id="a_edge36_Node000057_Node000059"><a xlink:title=" ">
<path fill="none" stroke="#63b8ff" d="M1752.19,-221.56C1790.52,-206.27 1854.55,-180.72 1887.69,-167.5"/>
<polygon fill="#63b8ff" stroke="#63b8ff" points="1750.56,-218.44 1742.57,-225.4 1753.15,-224.94 1750.56,-218.44"/>
</a>
</g>
</g>
<!-- Node58&#45;&gt;Node55 -->
<g id="edge35_Node000058_Node000055" class="edge">
<title>Node58&#45;&gt;Node55</title>
<g id="a_edge35_Node000058_Node000055"><a xlink:title=" ">
<path fill="none" stroke="#63b8ff" d="M2008.92,-143.51C1983.9,-129.48 1945.5,-107.96 1924.33,-96.09"/>
<polygon fill="#63b8ff" stroke="#63b8ff" points="2007.36,-146.64 2017.8,-148.48 2010.78,-140.54 2007.36,-146.64"/>
</a>
</g>
</g>
<!-- Node59&#45;&gt;Node55 -->
<g id="edge37_Node000059_Node000055" class="edge">
<title>Node59&#45;&gt;Node55</title>
<g id="a_edge37_Node000059_Node000055"><a xlink:title=" ">
<path fill="none" stroke="#63b8ff" d="M1909,-138.21C1909,-124.5 1909,-106.55 1909,-96.09"/>
<polygon fill="#63b8ff" stroke="#63b8ff" points="1905.5,-138.48 1909,-148.48 1912.5,-138.48 1905.5,-138.48"/>
</a>
</g>
</g>
<!-- Node61 -->
<g id="Node000061" class="node">
<title>Node61</title>
<g id="a_Node000061"><a xlink:href="../../d1/dcf/fft_8cpp_8hpp.html" target="_top" xlink:title=" ">
<polygon fill="#fff0f0" stroke="red" points="2223.5,-167.5 2102.5,-167.5 2102.5,-148.5 2223.5,-148.5 2223.5,-167.5"/>
<text text-anchor="middle" x="2163" y="-155.5" font-family="Helvetica,sans-Serif" font-size="10.00">fl/audio/fft/fft.cpp.hpp</text>
</a>
</g>
</g>
<!-- Node60&#45;&gt;Node61 -->
<g id="edge40_Node000060_Node000061" class="edge">
<title>Node60&#45;&gt;Node61</title>
<g id="a_edge40_Node000060_Node000061"><a xlink:title=" ">
<path fill="none" stroke="#63b8ff" d="M1926.58,-219.64C1993,-205.7 2084.88,-186.3 2093,-184 2109.51,-179.32 2127.76,-172.75 2141.49,-167.53"/>
<polygon fill="#63b8ff" stroke="#63b8ff" points="1925.63,-216.26 1916.56,-221.74 1927.07,-223.12 1925.63,-216.26"/>
</a>
</g>
</g>
</g>
</svg>

<g id="navigator" transform="translate(0 0)" fill="#404254">
  <rect fill="#f2f5e9" fill-opacity="0.5" stroke="#606060" stroke-width=".5" x="0" y="0" width="60" height="60"/>
  <use id="zoomplus" xlink:href="#zoomPlus" x="17" y="9" onmousedown="handleZoom(evt,'in')"/>
  <use id="zoomminus" xlink:href="#zoomMin" x="42" y="9" onmousedown="handleZoom(evt,'out')"/>
  <use id="reset" xlink:href="#resetDef" x="30" y="36" onmousedown="handleReset()"/>
   <use id="arrowup" xlink:href="#arrowUp" x="0" y="0" onmousedown="handlePan(0,-1)"/>
  <use id="arrowright" xlink:href="#arrowRight" x="0" y="0" onmousedown="handlePan(1,0)"/>
  <use id="arrowdown" xlink:href="#arrowDown" x="0" y="0" onmousedown="handlePan(0,1)"/>
  <use id="arrowleft" xlink:href="#arrowLeft" x="0" y="0" onmousedown="handlePan(-1,0)"/>
</g>
<svg viewBox="0 0 15 15" width="100%" height="30px" preserveAspectRatio="xMaxYMin meet">
 <g id="arrow_out" transform="scale(0.3 0.3)">
  <a xlink:href="hash_8h__dep__incl_org.svg" target="_base">
   <rect id="button" ry="5" rx="5" y="6" x="6" height="38" width="38"
        fill="#f2f5e9" fill-opacity="0.5" stroke="#606060" stroke-width="1.0"/>
   <path id="arrow"
     d="M 11.500037,31.436501 C 11.940474,20.09759 22.043105,11.32322 32.158766,21.979434 L 37.068811,17.246167 C 37.068811,17.246167 37.088388,32 37.088388,32 L 22.160133,31.978069 C 22.160133,31.978069 26.997745,27.140456 26.997745,27.140456 C 18.528582,18.264221 13.291696,25.230495 11.500037,31.436501 z"
     style="fill:#404040;"/>
  </a>
 </g>
</svg>

<style type='text/css'>
<![CDATA[
[data-mouse-over-selected='false'] { opacity: 0.7; }
[data-mouse-over-selected='true']  { opacity: 1.0; }
]]>
</style>
<script type="application/ecmascript"><![CDATA[
document.addEventListener('DOMContentLoaded', (event) => {
  highlightEdges();
  highlightAdjacentNodes();
});
]]></script>
</svg>
