<?xml version="1.0" encoding="UTF-8" standalone="no"?>
<!DOCTYPE svg PUBLIC "-//W3C//DTD SVG 1.1//EN"
 "http://www.w3.org/Graphics/SVG/1.1/DTD/svg11.dtd">
<!-- Generated by graphviz version 2.43.0 (0)
 -->
<!-- Title: fl::memory_resource::do_allocate Pages: 1 -->
<!--zoomable 123 -->

<svg id="main" version="1.1" xmlns="http://www.w3.org/2000/svg" xmlns:xlink="http://www.w3.org/1999/xlink" xml:space="preserve" onload="init(evt)">

<style type="text/css"><![CDATA[
.node, .edge {opacity: 0.7;}
.node.selected, .edge.selected {opacity: 1;}
.edge:hover path { stroke: red; }
.edge:hover polygon { stroke: red; fill: red; }
]]></style>

<defs>
  <circle id="rim" cx="0" cy="0" r="7"/>
  <circle id="rim2" cx="0" cy="0" r="3.5"/>
  <g id="zoomPlus">
    <use xlink:href="#rim" fill="#404040"><set attributeName="fill" to="#808080" begin="zoomplus.mouseover" end="zoomplus.mouseout"/></use>
    <path d="M-4,0h8M0,-4v8" fill="none" stroke="white" stroke-width="1.5" pointer-events="none"/>
  </g>
  <g id="zoomMin">
    <use xlink:href="#rim" fill="#404040"><set attributeName="fill" to="#808080" begin="zoomminus.mouseover" end="zoomminus.mouseout"/></use>
    <path d="M-4,0h8" fill="none" stroke="white" stroke-width="1.5" pointer-events="none"/>
  </g>
  <g id="arrowUp" transform="translate(30 24)">
    <use xlink:href="#rim"/>
    <path pointer-events="none" fill="none" stroke="white" stroke-width="1.5" d="M0,-3.0v7 M-2.5,-0.5L0,-3.0L2.5,-0.5"/>
  </g>
  <g id="arrowRight" transform="rotate(90) translate(36 -43)">
    <use xlink:href="#rim"/>
    <path pointer-events="none" fill="none" stroke="white" stroke-width="1.5" d="M0,-3.0v7 M-2.5,-0.5L0,-3.0L2.5,-0.5"/>
  </g>
  <g id="arrowDown" transform="rotate(180) translate(-30 -48)">
    <use xlink:href="#rim"/>
    <path pointer-events="none" fill="none" stroke="white" stroke-width="1.5" d="M0,-3.0v7 M-2.5,-0.5L0,-3.0L2.5,-0.5"/>
  </g>
  <g id="arrowLeft" transform="rotate(270) translate(-36 17)">
    <use xlink:href="#rim"/>
    <path pointer-events="none" fill="none" stroke="white" stroke-width="1.5" d="M0,-3.0v7 M-2.5,-0.5L0,-3.0L2.5,-0.5"/>
  </g>
  <g id="resetDef">
    <use xlink:href="#rim2" fill="#404040"><set attributeName="fill" to="#808080" begin="reset.mouseover" end="reset.mouseout"/></use>
  </g>
</defs>
<script type="application/ecmascript">
var viewWidth = 597;
var viewHeight = 123;
var sectionId = 'dynsection-0';
</script>
<script type="application/ecmascript" xlink:href="../../svg.min.js"/>
<svg id="graph" class="graph">
<g id="viewport">
<title>fl::memory_resource::do_allocate</title>
<!-- Node1 -->
<g id="Node000001" class="node">
<title>Node1</title>
<g id="a_Node000001"><a xlink:title=" ">
<polygon fill="#999999" stroke="#666666" points="589,-84 472,-84 472,-54 589,-54 589,-84"/>
<text text-anchor="start" x="480" y="-72" font-family="Helvetica,sans-Serif" font-size="10.00">fl::memory_resource</text>
<text text-anchor="middle" x="530.5" y="-61" font-family="Helvetica,sans-Serif" font-size="10.00">::do_allocate</text>
</a>
</g>
</g>
<!-- Node2 -->
<g id="Node000002" class="node">
<title>Node2</title>
<g id="a_Node000002"><a xlink:href="../../db/d13/classfl_1_1memory__resource_a751094b91ee25add8cba2ce055124234.html#a751094b91ee25add8cba2ce055124234" target="_top" xlink:title=" ">
<polygon fill="white" stroke="#666666" points="436,-84 319,-84 319,-54 436,-54 436,-84"/>
<text text-anchor="start" x="327" y="-72" font-family="Helvetica,sans-Serif" font-size="10.00">fl::memory_resource</text>
<text text-anchor="middle" x="377.5" y="-61" font-family="Helvetica,sans-Serif" font-size="10.00">::allocate</text>
</a>
</g>
</g>
<!-- Node1&#45;&gt;Node2 -->
<g id="edge1_Node000001_Node000002" class="edge">
<title>Node1&#45;&gt;Node2</title>
<g id="a_edge1_Node000001_Node000002"><a xlink:title=" ">
<path fill="none" stroke="#63b8ff" d="M461.95,-69C453.32,-69 444.56,-69 436.11,-69"/>
<polygon fill="#63b8ff" stroke="#63b8ff" points="461.98,-72.5 471.98,-69 461.98,-65.5 461.98,-72.5"/>
</a>
</g>
</g>
<!-- Node2&#45;&gt;Node2 -->
<g id="edge2_Node000002_Node000002" class="edge">
<title>Node2&#45;&gt;Node2</title>
<g id="a_edge2_Node000002_Node000002"><a xlink:title=" ">
<path fill="none" stroke="#63b8ff" d="M404.11,-94.6C400.47,-98.97 391.6,-102 377.5,-102 353.75,-102 344.84,-93.41 350.78,-84.28"/>
<polygon fill="#63b8ff" stroke="#63b8ff" points="407.61,-94.31 404.22,-84.28 400.61,-94.24 407.61,-94.31"/>
</a>
</g>
</g>
<!-- Node3 -->
<g id="Node000003" class="node">
<title>Node3</title>
<g id="a_Node000003"><a xlink:href="../../db/d13/classfl_1_1memory__resource_af956deb8f5f6913c9f20be1b8ac0d284.html#af956deb8f5f6913c9f20be1b8ac0d284" target="_top" xlink:title="Try to resize in&#45;place.">
<polygon fill="white" stroke="#666666" points="267,-115 150,-115 150,-85 267,-85 267,-115"/>
<text text-anchor="start" x="158" y="-103" font-family="Helvetica,sans-Serif" font-size="10.00">fl::memory_resource</text>
<text text-anchor="middle" x="208.5" y="-92" font-family="Helvetica,sans-Serif" font-size="10.00">::reallocate</text>
</a>
</g>
</g>
<!-- Node2&#45;&gt;Node3 -->
<g id="edge3_Node000002_Node000003" class="edge">
<title>Node2&#45;&gt;Node3</title>
<g id="a_edge3_Node000002_Node000003"><a xlink:title=" ">
<path fill="none" stroke="#63b8ff" d="M308.64,-81.6C294.84,-84.16 280.45,-86.83 267.06,-89.32"/>
<polygon fill="#63b8ff" stroke="#63b8ff" points="309.37,-85.02 318.56,-79.76 308.09,-78.14 309.37,-85.02"/>
</a>
</g>
</g>
<!-- Node4 -->
<g id="Node000004" class="node">
<title>Node4</title>
<g id="a_Node000004"><a xlink:href="../../d4/dad/classfl_1_1vector__basic_af883d2217b11ac6ea91134588f181acf.html#af883d2217b11ac6ea91134588f181acf" target="_top" xlink:title="Swap contents with another vector_basic.">
<polygon fill="white" stroke="#666666" points="283,-48.5 134,-48.5 134,-29.5 283,-29.5 283,-48.5"/>
<text text-anchor="middle" x="208.5" y="-36.5" font-family="Helvetica,sans-Serif" font-size="10.00">fl::vector_basic::swap_impl</text>
</a>
</g>
</g>
<!-- Node2&#45;&gt;Node4 -->
<g id="edge4_Node000002_Node000004" class="edge">
<title>Node2&#45;&gt;Node4</title>
<g id="a_edge4_Node000002_Node000004"><a xlink:title=" ">
<path fill="none" stroke="#63b8ff" d="M308.61,-56.8C293.27,-54.05 277.2,-51.16 262.58,-48.54"/>
<polygon fill="#63b8ff" stroke="#63b8ff" points="308.1,-60.27 318.56,-58.59 309.34,-53.38 308.1,-60.27"/>
</a>
</g>
</g>
<!-- Node4&#45;&gt;Node4 -->
<g id="edge7_Node000004_Node000004" class="edge">
<title>Node4&#45;&gt;Node4</title>
<g id="a_edge7_Node000004_Node000004"><a xlink:title=" ">
<path fill="none" stroke="#63b8ff" d="M237.99,-57.32C236.76,-62.51 226.93,-66.5 208.5,-66.5 180.42,-66.5 172.3,-57.23 184.15,-48.58"/>
<polygon fill="#63b8ff" stroke="#63b8ff" points="240.94,-55.43 232.85,-48.58 234.91,-58.98 240.94,-55.43"/>
</a>
</g>
</g>
<!-- Node5 -->
<g id="Node000005" class="node">
<title>Node5</title>
<g id="a_Node000005"><a xlink:href="../../d2/d24/classfl_1_1vector_aa3ae32a9c2f09eab87fcff68a8ea78e2.html#aa3ae32a9c2f09eab87fcff68a8ea78e2" target="_top" xlink:title=" ">
<polygon fill="white" stroke="#666666" points="98,-78 0,-78 0,-48 98,-48 98,-78"/>
<text text-anchor="start" x="8" y="-66" font-family="Helvetica,sans-Serif" font-size="10.00">fl::vector&lt; fl::i16</text>
<text text-anchor="middle" x="49" y="-55" font-family="Helvetica,sans-Serif" font-size="10.00"> &gt;::swap</text>
</a>
</g>
</g>
<!-- Node4&#45;&gt;Node5 -->
<g id="edge5_Node000004_Node000005" class="edge">
<title>Node4&#45;&gt;Node5</title>
<g id="a_edge5_Node000004_Node000005"><a xlink:title=" ">
<path fill="none" stroke="#63b8ff" d="M134.57,-50.11C122.31,-51.98 109.85,-53.88 98.41,-55.62"/>
<polygon fill="#63b8ff" stroke="#63b8ff" points="135.44,-53.52 144.8,-48.55 134.39,-46.6 135.44,-53.52"/>
</a>
</g>
</g>
<!-- Node6 -->
<g id="Node000006" class="node">
<title>Node6</title>
<g id="a_Node000006"><a xlink:href="../../d2/d24/classfl_1_1vector_a7dd86cddda96caea12150c0f0cb87618.html#a7dd86cddda96caea12150c0f0cb87618" target="_top" xlink:title=" ">
<polygon fill="white" stroke="#666666" points="98,-30 0,-30 0,0 98,0 98,-30"/>
<text text-anchor="start" x="8" y="-18" font-family="Helvetica,sans-Serif" font-size="10.00">fl::vector&lt; fl::i16</text>
<text text-anchor="middle" x="49" y="-7" font-family="Helvetica,sans-Serif" font-size="10.00"> &gt;::swap</text>
</a>
</g>
</g>
<!-- Node4&#45;&gt;Node6 -->
<g id="edge6_Node000004_Node000006" class="edge">
<title>Node4&#45;&gt;Node6</title>
<g id="a_edge6_Node000004_Node000006"><a xlink:title=" ">
<path fill="none" stroke="#63b8ff" d="M134.57,-27.89C122.31,-26.02 109.85,-24.12 98.41,-22.38"/>
<polygon fill="#63b8ff" stroke="#63b8ff" points="134.39,-31.4 144.8,-29.45 135.44,-24.48 134.39,-31.4"/>
</a>
</g>
</g>
</g>
</svg>

<g id="navigator" transform="translate(0 0)" fill="#404254">
  <rect fill="#f2f5e9" fill-opacity="0.5" stroke="#606060" stroke-width=".5" x="0" y="0" width="60" height="60"/>
  <use id="zoomplus" xlink:href="#zoomPlus" x="17" y="9" onmousedown="handleZoom(evt,'in')"/>
  <use id="zoomminus" xlink:href="#zoomMin" x="42" y="9" onmousedown="handleZoom(evt,'out')"/>
  <use id="reset" xlink:href="#resetDef" x="30" y="36" onmousedown="handleReset()"/>
   <use id="arrowup" xlink:href="#arrowUp" x="0" y="0" onmousedown="handlePan(0,-1)"/>
  <use id="arrowright" xlink:href="#arrowRight" x="0" y="0" onmousedown="handlePan(1,0)"/>
  <use id="arrowdown" xlink:href="#arrowDown" x="0" y="0" onmousedown="handlePan(0,1)"/>
  <use id="arrowleft" xlink:href="#arrowLeft" x="0" y="0" onmousedown="handlePan(-1,0)"/>
</g>
<svg viewBox="0 0 15 15" width="100%" height="30px" preserveAspectRatio="xMaxYMin meet">
 <g id="arrow_out" transform="scale(0.3 0.3)">
  <a xlink:href="classfl_1_1memory__resource_ab582069827c02cc55e41275945aca485_ab582069827c02cc55e41275945aca485_icgraph_org.svg" target="_base">
   <rect id="button" ry="5" rx="5" y="6" x="6" height="38" width="38"
        fill="#f2f5e9" fill-opacity="0.5" stroke="#606060" stroke-width="1.0"/>
   <path id="arrow"
     d="M 11.500037,31.436501 C 11.940474,20.09759 22.043105,11.32322 32.158766,21.979434 L 37.068811,17.246167 C 37.068811,17.246167 37.088388,32 37.088388,32 L 22.160133,31.978069 C 22.160133,31.978069 26.997745,27.140456 26.997745,27.140456 C 18.528582,18.264221 13.291696,25.230495 11.500037,31.436501 z"
     style="fill:#404040;"/>
  </a>
 </g>
</svg>

<style type='text/css'>
<![CDATA[
[data-mouse-over-selected='false'] { opacity: 0.7; }
[data-mouse-over-selected='true']  { opacity: 1.0; }
]]>
</style>
<script type="application/ecmascript"><![CDATA[
document.addEventListener('DOMContentLoaded', (event) => {
  highlightEdges();
  highlightAdjacentNodes();
});
]]></script>
</svg>
