<?xml version="1.0" encoding="UTF-8" standalone="no"?>
<!DOCTYPE svg PUBLIC "-//W3C//DTD SVG 1.1//EN"
 "http://www.w3.org/Graphics/SVG/1.1/DTD/svg11.dtd">
<!-- Generated by graphviz version 2.43.0 (0)
 -->
<!-- Title: fl::tuple_size&lt; tuple&lt; Ts... &gt; &gt; Pages: 1 -->
<svg width="282pt" height="192pt"
 viewBox="0.00 0.00 281.50 192.00" xmlns="http://www.w3.org/2000/svg" xmlns:xlink="http://www.w3.org/1999/xlink">
<g id="graph0" class="graph" transform="scale(1 1) rotate(0) translate(4 188)">
<title>fl::tuple_size&lt; tuple&lt; Ts... &gt; &gt;</title>
<!-- Node1 -->
<g id="Node000001" class="node">
<title>Node1</title>
<g id="a_Node000001"><a xlink:title=" ">
<polygon fill="#999999" stroke="#666666" points="219.5,-30 105.5,-30 105.5,0 219.5,0 219.5,-30"/>
<text text-anchor="start" x="113.5" y="-18" font-family="Helvetica,sans-Serif" font-size="10.00">fl::tuple_size&lt; tuple</text>
<text text-anchor="middle" x="162.5" y="-7" font-family="Helvetica,sans-Serif" font-size="10.00">&lt; Ts... &gt; &gt;</text>
</a>
</g>
</g>
<!-- Node2 -->
<g id="Node000002" class="node">
<title>Node2</title>
<g id="a_Node000002"><a xlink:href="../../d1/d55/structfl_1_1integral__constant.html" target="_top" xlink:title=" ">
<polygon fill="white" stroke="#666666" points="125,-107 0,-107 0,-77 125,-77 125,-107"/>
<text text-anchor="start" x="8" y="-95" font-family="Helvetica,sans-Serif" font-size="10.00">fl::integral_constant</text>
<text text-anchor="middle" x="62.5" y="-84" font-family="Helvetica,sans-Serif" font-size="10.00">&lt; size_t, sizeof...(Ts)&gt;</text>
</a>
</g>
</g>
<!-- Node2&#45;&gt;Node1 -->
<g id="edge1_Node000001_Node000002" class="edge">
<title>Node2&#45;&gt;Node1</title>
<g id="a_edge1_Node000001_Node000002"><a xlink:title=" ">
<path fill="none" stroke="#63b8ff" d="M89.33,-70.88C106.53,-57.98 128.43,-41.55 143.78,-30.04"/>
<polygon fill="#63b8ff" stroke="#63b8ff" points="87.21,-68.09 81.31,-76.89 91.41,-73.69 87.21,-68.09"/>
</a>
</g>
</g>
<!-- Node3 -->
<g id="Node000003" class="node">
<title>Node3</title>
<g id="a_Node000003"><a xlink:href="../../d1/d55/structfl_1_1integral__constant.html" target="_top" xlink:title=" ">
<polygon fill="white" stroke="#666666" points="119,-184 6,-184 6,-154 119,-154 119,-184"/>
<text text-anchor="start" x="14" y="-172" font-family="Helvetica,sans-Serif" font-size="10.00">fl::integral_constant</text>
<text text-anchor="middle" x="62.5" y="-161" font-family="Helvetica,sans-Serif" font-size="10.00">&lt; T, v &gt;</text>
</a>
</g>
</g>
<!-- Node3&#45;&gt;Node2 -->
<g id="edge2_Node000002_Node000003" class="edge">
<title>Node3&#45;&gt;Node2</title>
<g id="a_edge2_Node000002_Node000003"><a xlink:title=" ">
<path fill="none" stroke="orange" stroke-dasharray="5,2" d="M62.5,-143.54C62.5,-131.45 62.5,-117.29 62.5,-107.04"/>
<polygon fill="orange" stroke="orange" points="59,-143.89 62.5,-153.89 66,-143.89 59,-143.89"/>
</a>
</g>
<text text-anchor="middle" x="118.5" y="-128" font-family="Helvetica,sans-Serif" font-size="10.00" fill="grey"> &lt; size_t, sizeof...(Ts)&gt;</text>
</g>
<!-- Node4 -->
<g id="Node000004" class="node">
<title>Node4</title>
<g id="a_Node000004"><a xlink:href="../../d4/d36/namespacefl.html#d5/dd1/structfl_1_1tuple__size" target="_top" xlink:title=" ">
<polygon fill="white" stroke="#666666" points="250,-101.5 143,-101.5 143,-82.5 250,-82.5 250,-101.5"/>
<text text-anchor="middle" x="196.5" y="-89.5" font-family="Helvetica,sans-Serif" font-size="10.00">fl::tuple_size&lt; T &gt;</text>
</a>
</g>
</g>
<!-- Node4&#45;&gt;Node1 -->
<g id="edge3_Node000001_Node000004" class="edge">
<title>Node4&#45;&gt;Node1</title>
<g id="a_edge3_Node000001_Node000004"><a xlink:title=" ">
<path fill="none" stroke="orange" stroke-dasharray="5,2" d="M188.33,-72.99C182.37,-59.83 174.4,-42.25 168.9,-30.11"/>
<polygon fill="orange" stroke="orange" points="185.28,-74.73 192.6,-82.4 191.66,-71.84 185.28,-74.73"/>
</a>
</g>
<text text-anchor="middle" x="227.5" y="-51" font-family="Helvetica,sans-Serif" font-size="10.00" fill="grey"> &lt; tuple&lt; Ts... &gt; &gt;</text>
</g>
</g>
</svg>
