<?xml version="1.0" encoding="UTF-8" standalone="no"?>
<!DOCTYPE svg PUBLIC "-//W3C//DTD SVG 1.1//EN"
 "http://www.w3.org/Graphics/SVG/1.1/DTD/svg11.dtd">
<!-- Generated by graphviz version 2.43.0 (0)
 -->
<!-- Title: fl::gfx::Canvas::drawStrokeLine Pages: 1 -->
<svg width="714pt" height="204pt"
 viewBox="0.00 0.00 714.00 203.50" xmlns="http://www.w3.org/2000/svg" xmlns:xlink="http://www.w3.org/1999/xlink">
<g id="graph0" class="graph" transform="scale(1 1) rotate(0) translate(4 199.5)">
<title>fl::gfx::Canvas::drawStrokeLine</title>
<!-- Node1 -->
<g id="Node000001" class="node">
<title>Node1</title>
<g id="a_Node000001"><a xlink:title=" ">
<polygon fill="#999999" stroke="#666666" points="167,-101 0,-101 0,-82 167,-82 167,-101"/>
<text text-anchor="middle" x="83.5" y="-89" font-family="Helvetica,sans-Serif" font-size="10.00">fl::gfx::Canvas::drawStrokeLine</text>
</a>
</g>
</g>
<!-- Node2 -->
<g id="Node000002" class="node">
<title>Node2</title>
<g id="a_Node000002"><a xlink:href="../../d0/d8b/namespacefl_1_1gfx_abe30294359092a06f52b99a369bca3ec.html#abe30294359092a06f52b99a369bca3ec" target="_top" xlink:title=" ">
<polygon fill="white" stroke="#666666" points="328,-101 203,-101 203,-82 328,-82 328,-101"/>
<text text-anchor="middle" x="265.5" y="-89" font-family="Helvetica,sans-Serif" font-size="10.00">fl::gfx::drawStrokeLine</text>
</a>
</g>
</g>
<!-- Node1&#45;&gt;Node2 -->
<g id="edge1_Node000001_Node000002" class="edge">
<title>Node1&#45;&gt;Node2</title>
<g id="a_edge1_Node000001_Node000002"><a xlink:title=" ">
<path fill="none" stroke="#63b8ff" d="M167.12,-91.5C175.67,-91.5 184.3,-91.5 192.71,-91.5"/>
<polygon fill="#63b8ff" stroke="#63b8ff" points="192.83,-95 202.83,-91.5 192.83,-88 192.83,-95"/>
</a>
</g>
</g>
<!-- Node3 -->
<g id="Node000003" class="node">
<title>Node3</title>
<g id="a_Node000003"><a xlink:href="../../d6/d9a/namespacefl_1_1gfx_1_1detail_a0ed31accfda46ef3ddc9a0eb3ad5ef04.html#a0ed31accfda46ef3ddc9a0eb3ad5ef04" target="_top" xlink:title=" ">
<polygon fill="white" stroke="#666666" points="503,-106.5 364,-106.5 364,-76.5 503,-76.5 503,-106.5"/>
<text text-anchor="start" x="372" y="-94.5" font-family="Helvetica,sans-Serif" font-size="10.00">fl::gfx::detail::drawStroke</text>
<text text-anchor="middle" x="433.5" y="-83.5" font-family="Helvetica,sans-Serif" font-size="10.00">LineCore</text>
</a>
</g>
</g>
<!-- Node2&#45;&gt;Node3 -->
<g id="edge2_Node000002_Node000003" class="edge">
<title>Node2&#45;&gt;Node3</title>
<g id="a_edge2_Node000002_Node000003"><a xlink:title=" ">
<path fill="none" stroke="#63b8ff" d="M328.31,-91.5C336.66,-91.5 345.31,-91.5 353.91,-91.5"/>
<polygon fill="#63b8ff" stroke="#63b8ff" points="353.94,-95 363.94,-91.5 353.94,-88 353.94,-95"/>
</a>
</g>
</g>
<!-- Node4 -->
<g id="Node000004" class="node">
<title>Node4</title>
<g id="a_Node000004"><a xlink:href="../../d6/d9a/namespacefl_1_1gfx_1_1detail_ace632a8bd8b1b176f9f882b536fc486c.html#ace632a8bd8b1b176f9f882b536fc486c" target="_top" xlink:title="Precompute right&#45;shift and reciprocal multiplier for AA division.">
<polygon fill="white" stroke="#666666" points="686,-177.5 559,-177.5 559,-147.5 686,-147.5 686,-177.5"/>
<text text-anchor="start" x="567" y="-165.5" font-family="Helvetica,sans-Serif" font-size="10.00">fl::gfx::detail::compute</text>
<text text-anchor="middle" x="622.5" y="-154.5" font-family="Helvetica,sans-Serif" font-size="10.00">BandShift</text>
</a>
</g>
</g>
<!-- Node3&#45;&gt;Node4 -->
<g id="edge3_Node000003_Node000004" class="edge">
<title>Node3&#45;&gt;Node4</title>
<g id="a_edge3_Node000003_Node000004"><a xlink:title=" ">
<path fill="none" stroke="#63b8ff" d="M465.12,-106.64C485.71,-116.47 513.61,-129.15 539,-138.5 544.47,-140.51 550.19,-142.47 555.96,-144.35"/>
<polygon fill="#63b8ff" stroke="#63b8ff" points="555.09,-147.74 565.68,-147.41 557.2,-141.07 555.09,-147.74"/>
</a>
</g>
</g>
<!-- Node5 -->
<g id="Node000005" class="node">
<title>Node5</title>
<g id="a_Node000005"><a xlink:href="../../d4/d36/namespacefl_aef88a9667b8b893abab1e0e41a3e81d3.html#aef88a9667b8b893abab1e0e41a3e81d3" target="_top" xlink:title=" ">
<polygon fill="#fff0f0" stroke="red" points="653.5,-129 591.5,-129 591.5,-110 653.5,-110 653.5,-129"/>
<text text-anchor="middle" x="622.5" y="-117" font-family="Helvetica,sans-Serif" font-size="10.00">fl::isqrt32</text>
</a>
</g>
</g>
<!-- Node3&#45;&gt;Node5 -->
<g id="edge5_Node000003_Node000005" class="edge">
<title>Node3&#45;&gt;Node5</title>
<g id="a_edge5_Node000003_Node000005"><a xlink:title=" ">
<path fill="none" stroke="#63b8ff" d="M503.07,-101.77C529.28,-105.69 558.32,-110.04 581.08,-113.45"/>
<polygon fill="#63b8ff" stroke="#63b8ff" points="580.65,-116.92 591.06,-114.94 581.69,-110 580.65,-116.92"/>
</a>
</g>
</g>
<!-- Node8 -->
<g id="Node000008" class="node">
<title>Node8</title>
<g id="a_Node000008"><a xlink:href="../../d6/d9a/namespacefl_1_1gfx_1_1detail_a57e26c64aa843c6d1d1080fa16f4306a.html#a57e26c64aa843c6d1d1080fa16f4306a" target="_top" xlink:title="Render one scanline of a stroke line using phase&#45;based scanning.">
<polygon fill="white" stroke="#666666" points="706,-74 539,-74 539,-55 706,-55 706,-74"/>
<text text-anchor="middle" x="622.5" y="-62" font-family="Helvetica,sans-Serif" font-size="10.00">fl::gfx::detail::renderStrokeRow</text>
</a>
</g>
</g>
<!-- Node3&#45;&gt;Node8 -->
<g id="edge6_Node000003_Node000008" class="edge">
<title>Node3&#45;&gt;Node8</title>
<g id="a_edge6_Node000003_Node000008"><a xlink:title=" ">
<path fill="none" stroke="#63b8ff" d="M503.07,-81.6C516.83,-79.61 531.36,-77.52 545.35,-75.49"/>
<polygon fill="#63b8ff" stroke="#63b8ff" points="546.03,-78.93 555.43,-74.04 545.03,-72 546.03,-78.93"/>
</a>
</g>
</g>
<!-- Node9 -->
<g id="Node000009" class="node">
<title>Node9</title>
<g id="a_Node000009"><a xlink:href="../../d6/d9a/namespacefl_1_1gfx_1_1detail_ab04a22e2927673d2692b4f3e354af564.html#ab04a22e2927673d2692b4f3e354af564" target="_top" xlink:title="Convert any Coord type to 8.8 fixed&#45;point (fl::i32).">
<polygon fill="white" stroke="#666666" points="685,-19 560,-19 560,0 685,0 685,-19"/>
<text text-anchor="middle" x="622.5" y="-7" font-family="Helvetica,sans-Serif" font-size="10.00">fl::gfx::detail::toFixed8</text>
</a>
</g>
</g>
<!-- Node3&#45;&gt;Node9 -->
<g id="edge8_Node000003_Node000009" class="edge">
<title>Node3&#45;&gt;Node9</title>
<g id="a_edge8_Node000003_Node000009"><a xlink:title=" ">
<path fill="none" stroke="#63b8ff" d="M468.8,-76.46C503.54,-61.23 556.8,-37.87 590.36,-23.15"/>
<polygon fill="#63b8ff" stroke="#63b8ff" points="591.94,-26.29 599.69,-19.06 589.12,-19.87 591.94,-26.29"/>
</a>
</g>
</g>
<!-- Node4&#45;&gt;Node4 -->
<g id="edge4_Node000004_Node000004" class="edge">
<title>Node4&#45;&gt;Node4</title>
<g id="a_edge4_Node000004_Node000004"><a xlink:title=" ">
<path fill="none" stroke="#63b8ff" d="M589.45,-177.78C582.11,-186.91 593.12,-195.5 622.5,-195.5 639.94,-195.5 650.91,-192.47 655.41,-188.1"/>
<polygon fill="#63b8ff" stroke="#63b8ff" points="658.91,-187.82 655.55,-177.78 651.91,-187.73 658.91,-187.82"/>
</a>
</g>
</g>
<!-- Node8&#45;&gt;Node8 -->
<g id="edge7_Node000008_Node000008" class="edge">
<title>Node8&#45;&gt;Node8</title>
<g id="a_edge7_Node000008_Node000008"><a xlink:title=" ">
<path fill="none" stroke="#63b8ff" d="M593.52,-74.08C579.43,-82.73 589.09,-92 622.5,-92 645.47,-92 657.22,-87.62 657.73,-82.07"/>
<polygon fill="#63b8ff" stroke="#63b8ff" points="660.4,-79.8 651.48,-74.08 654.89,-84.11 660.4,-79.8"/>
</a>
</g>
</g>
<!-- Node9&#45;&gt;Node9 -->
<g id="edge9_Node000009_Node000009" class="edge">
<title>Node9&#45;&gt;Node9</title>
<g id="a_edge9_Node000009_Node000009"><a xlink:title=" ">
<path fill="none" stroke="#63b8ff" d="M593.52,-19.08C579.43,-27.73 589.09,-37 622.5,-37 645.47,-37 657.22,-32.62 657.73,-27.07"/>
<polygon fill="#63b8ff" stroke="#63b8ff" points="660.4,-24.8 651.48,-19.08 654.89,-29.11 660.4,-24.8"/>
</a>
</g>
</g>
</g>
</svg>
