<?xml version="1.0" encoding="UTF-8" standalone="no"?>
<!DOCTYPE svg PUBLIC "-//W3C//DTD SVG 1.1//EN"
 "http://www.w3.org/Graphics/SVG/1.1/DTD/svg11.dtd">
<!-- Generated by graphviz version 2.43.0 (0)
 -->
<!-- Title: fl/fx/2d/animartrix_detail/perlin_s16x16.h Pages: 1 -->
<!--zoomable 291 -->

<svg id="main" version="1.1" xmlns="http://www.w3.org/2000/svg" xmlns:xlink="http://www.w3.org/1999/xlink" xml:space="preserve" onload="init(evt)">

<style type="text/css"><![CDATA[
.node, .edge {opacity: 0.7;}
.node.selected, .edge.selected {opacity: 1;}
.edge:hover path { stroke: red; }
.edge:hover polygon { stroke: red; fill: red; }
]]></style>

<defs>
  <circle id="rim" cx="0" cy="0" r="7"/>
  <circle id="rim2" cx="0" cy="0" r="3.5"/>
  <g id="zoomPlus">
    <use xlink:href="#rim" fill="#404040"><set attributeName="fill" to="#808080" begin="zoomplus.mouseover" end="zoomplus.mouseout"/></use>
    <path d="M-4,0h8M0,-4v8" fill="none" stroke="white" stroke-width="1.5" pointer-events="none"/>
  </g>
  <g id="zoomMin">
    <use xlink:href="#rim" fill="#404040"><set attributeName="fill" to="#808080" begin="zoomminus.mouseover" end="zoomminus.mouseout"/></use>
    <path d="M-4,0h8" fill="none" stroke="white" stroke-width="1.5" pointer-events="none"/>
  </g>
  <g id="arrowUp" transform="translate(30 24)">
    <use xlink:href="#rim"/>
    <path pointer-events="none" fill="none" stroke="white" stroke-width="1.5" d="M0,-3.0v7 M-2.5,-0.5L0,-3.0L2.5,-0.5"/>
  </g>
  <g id="arrowRight" transform="rotate(90) translate(36 -43)">
    <use xlink:href="#rim"/>
    <path pointer-events="none" fill="none" stroke="white" stroke-width="1.5" d="M0,-3.0v7 M-2.5,-0.5L0,-3.0L2.5,-0.5"/>
  </g>
  <g id="arrowDown" transform="rotate(180) translate(-30 -48)">
    <use xlink:href="#rim"/>
    <path pointer-events="none" fill="none" stroke="white" stroke-width="1.5" d="M0,-3.0v7 M-2.5,-0.5L0,-3.0L2.5,-0.5"/>
  </g>
  <g id="arrowLeft" transform="rotate(270) translate(-36 17)">
    <use xlink:href="#rim"/>
    <path pointer-events="none" fill="none" stroke="white" stroke-width="1.5" d="M0,-3.0v7 M-2.5,-0.5L0,-3.0L2.5,-0.5"/>
  </g>
  <g id="resetDef">
    <use xlink:href="#rim2" fill="#404040"><set attributeName="fill" to="#808080" begin="reset.mouseover" end="reset.mouseout"/></use>
  </g>
</defs>
<script type="application/ecmascript">
var viewWidth = 535;
var viewHeight = 291;
var sectionId = 'dynsection-0';
</script>
<script type="application/ecmascript" xlink:href="../../svg.min.js"/>
<svg id="graph" class="graph">
<g id="viewport">
<title>fl/fx/2d/animartrix_detail/perlin_s16x16.h</title>
<!-- Node1 -->
<g id="Node000001" class="node">
<title>Node1</title>
<g id="a_Node000001"><a xlink:title=" ">
<polygon fill="#999999" stroke="#666666" points="297.39,-283 167.39,-283 167.39,-253 297.39,-253 297.39,-283"/>
<text text-anchor="start" x="175.39" y="-271" font-family="Helvetica,sans-Serif" font-size="10.00">fl/fx/2d/animartrix</text>
<text text-anchor="middle" x="232.39" y="-260" font-family="Helvetica,sans-Serif" font-size="10.00">_detail/perlin_s16x16.h</text>
</a>
</g>
</g>
<!-- Node2 -->
<g id="Node000002" class="node">
<title>Node2</title>
<g id="a_Node000002"><a xlink:href="../../db/d65/math_2noise_2perlin__s16x16_8h.html" target="_top" xlink:title=" ">
<polygon fill="white" stroke="#666666" points="287.89,-217 176.89,-217 176.89,-187 287.89,-187 287.89,-217"/>
<text text-anchor="start" x="184.89" y="-205" font-family="Helvetica,sans-Serif" font-size="10.00">fl/math/noise/perlin</text>
<text text-anchor="middle" x="232.39" y="-194" font-family="Helvetica,sans-Serif" font-size="10.00">_s16x16.h</text>
</a>
</g>
</g>
<!-- Node1&#45;&gt;Node2 -->
<g id="edge1_Node000001_Node000002" class="edge">
<title>Node1&#45;&gt;Node2</title>
<g id="a_edge1_Node000001_Node000002"><a xlink:title=" ">
<path fill="none" stroke="#63b8ff" d="M232.39,-252.8C232.39,-245.34 232.39,-235.99 232.39,-227.41"/>
<polygon fill="#63b8ff" stroke="#63b8ff" points="235.89,-227.16 232.39,-217.16 228.89,-227.16 235.89,-227.16"/>
</a>
</g>
</g>
<!-- Node3 -->
<g id="Node000003" class="node">
<title>Node3</title>
<g id="a_Node000003"><a xlink:href="../../d7/d64/s16x16_8h.html" target="_top" xlink:title=" ">
<polygon fill="white" stroke="#666666" points="285.89,-151 178.89,-151 178.89,-121 285.89,-121 285.89,-151"/>
<text text-anchor="start" x="186.89" y="-139" font-family="Helvetica,sans-Serif" font-size="10.00">fl/math/fixed_point</text>
<text text-anchor="middle" x="232.39" y="-128" font-family="Helvetica,sans-Serif" font-size="10.00">/s16x16.h</text>
</a>
</g>
</g>
<!-- Node2&#45;&gt;Node3 -->
<g id="edge2_Node000002_Node000003" class="edge">
<title>Node2&#45;&gt;Node3</title>
<g id="a_edge2_Node000002_Node000003"><a xlink:title=" ">
<path fill="none" stroke="#63b8ff" d="M232.39,-186.8C232.39,-179.34 232.39,-169.99 232.39,-161.41"/>
<polygon fill="#63b8ff" stroke="#63b8ff" points="235.89,-161.16 232.39,-151.16 228.89,-161.16 235.89,-161.16"/>
</a>
</g>
</g>
<!-- Node4 -->
<g id="Node000004" class="node">
<title>Node4</title>
<g id="a_Node000004"><a xlink:href="../../df/dd8/stdint_8h.html" target="_top" xlink:title=" ">
<polygon fill="#fff0f0" stroke="red" points="80.89,-19 3.89,-19 3.89,0 80.89,0 80.89,-19"/>
<text text-anchor="middle" x="42.39" y="-7" font-family="Helvetica,sans-Serif" font-size="10.00">fl/stl/stdint.h</text>
</a>
</g>
</g>
<!-- Node3&#45;&gt;Node4 -->
<g id="edge3_Node000003_Node000004" class="edge">
<title>Node3&#45;&gt;Node4</title>
<g id="a_edge3_Node000003_Node000004"><a xlink:title=" ">
<path fill="none" stroke="#63b8ff" d="M178.69,-130.78C118.56,-124.82 26.72,-111.54 5.39,-85 -9.15,-66.91 9.14,-42.17 24.78,-26.26"/>
<polygon fill="#63b8ff" stroke="#63b8ff" points="27.31,-28.69 32.09,-19.23 22.45,-23.65 27.31,-28.69"/>
</a>
</g>
</g>
<!-- Node6 -->
<g id="Node000006" class="node">
<title>Node6</title>
<g id="a_Node000006"><a xlink:href="../../d3/d84/sin32_8h.html" target="_top" xlink:title=" ">
<polygon fill="#fff0f0" stroke="red" points="392.89,-79.5 303.89,-79.5 303.89,-60.5 392.89,-60.5 392.89,-79.5"/>
<text text-anchor="middle" x="348.39" y="-67.5" font-family="Helvetica,sans-Serif" font-size="10.00">fl/math/sin32.h</text>
</a>
</g>
</g>
<!-- Node3&#45;&gt;Node6 -->
<g id="edge4_Node000003_Node000006" class="edge">
<title>Node3&#45;&gt;Node6</title>
<g id="a_edge4_Node000003_Node000006"><a xlink:title=" ">
<path fill="none" stroke="#63b8ff" d="M257.84,-120.95C277.56,-110.08 304.69,-95.11 324.11,-84.4"/>
<polygon fill="#63b8ff" stroke="#63b8ff" points="325.88,-87.41 332.95,-79.52 322.5,-81.28 325.88,-87.41"/>
</a>
</g>
</g>
<!-- Node8 -->
<g id="Node000008" class="node">
<title>Node8</title>
<g id="a_Node000008"><a xlink:href="../../d4/d54/compiler__control_8h.html" target="_top" xlink:title=" ">
<polygon fill="#fff0f0" stroke="red" points="413.89,-19 282.89,-19 282.89,0 413.89,0 413.89,-19"/>
<text text-anchor="middle" x="348.39" y="-7" font-family="Helvetica,sans-Serif" font-size="10.00">fl/stl/compiler_control.h</text>
</a>
</g>
</g>
<!-- Node3&#45;&gt;Node8 -->
<g id="edge10_Node000003_Node000008" class="edge">
<title>Node3&#45;&gt;Node8</title>
<g id="a_edge10_Node000003_Node000008"><a xlink:title=" ">
<path fill="none" stroke="#63b8ff" d="M285.95,-126.38C330.32,-118.02 388.29,-103.84 402.39,-85 410.38,-74.32 408.08,-67.06 402.39,-55 396.38,-42.26 384.73,-31.92 373.78,-24.44"/>
<polygon fill="#63b8ff" stroke="#63b8ff" points="375.6,-21.44 365.28,-19.05 371.85,-27.36 375.6,-21.44"/>
</a>
</g>
</g>
<!-- Node12 -->
<g id="Node000012" class="node">
<title>Node12</title>
<g id="a_Node000012"><a xlink:href="../../db/d01/noexcept_8h.html" target="_top" xlink:title=" ">
<polygon fill="white" stroke="#666666" points="223.89,-19 128.89,-19 128.89,0 223.89,0 223.89,-19"/>
<text text-anchor="middle" x="176.39" y="-7" font-family="Helvetica,sans-Serif" font-size="10.00">fl/stl/noexcept.h</text>
</a>
</g>
</g>
<!-- Node3&#45;&gt;Node12 -->
<g id="edge14_Node000003_Node000012" class="edge">
<title>Node3&#45;&gt;Node12</title>
<g id="a_edge14_Node000003_Node000012"><a xlink:title=" ">
<path fill="none" stroke="#63b8ff" d="M204.76,-120.85C191.45,-112.41 176.8,-100.34 169.39,-85 160.85,-67.32 164.83,-44.55 169.53,-28.86"/>
<polygon fill="#63b8ff" stroke="#63b8ff" points="172.88,-29.88 172.75,-19.28 166.24,-27.65 172.88,-29.88"/>
</a>
</g>
</g>
<!-- Node23 -->
<g id="Node000023" class="node">
<title>Node23</title>
<g id="a_Node000023"><a xlink:href="../../d7/dac/isqrt_8h.html" target="_top" xlink:title=" ">
<polygon fill="#fff0f0" stroke="red" points="285.89,-85 178.89,-85 178.89,-55 285.89,-55 285.89,-85"/>
<text text-anchor="start" x="186.89" y="-73" font-family="Helvetica,sans-Serif" font-size="10.00">fl/math/fixed_point</text>
<text text-anchor="middle" x="232.39" y="-62" font-family="Helvetica,sans-Serif" font-size="10.00">/isqrt.h</text>
</a>
</g>
</g>
<!-- Node3&#45;&gt;Node23 -->
<g id="edge7_Node000003_Node000023" class="edge">
<title>Node3&#45;&gt;Node23</title>
<g id="a_edge7_Node000003_Node000023"><a xlink:title=" ">
<path fill="none" stroke="#63b8ff" d="M232.39,-120.8C232.39,-113.34 232.39,-103.99 232.39,-95.41"/>
<polygon fill="#63b8ff" stroke="#63b8ff" points="235.89,-95.16 232.39,-85.16 228.89,-95.16 235.89,-95.16"/>
</a>
</g>
</g>
<!-- Node24 -->
<g id="Node000024" class="node">
<title>Node24</title>
<g id="a_Node000024"><a xlink:href="../../dd/dff/traits_8h.html" target="_top" xlink:title=" ">
<polygon fill="#fff0f0" stroke="red" points="121.89,-85 14.89,-85 14.89,-55 121.89,-55 121.89,-85"/>
<text text-anchor="start" x="22.89" y="-73" font-family="Helvetica,sans-Serif" font-size="10.00">fl/math/fixed_point</text>
<text text-anchor="middle" x="68.39" y="-62" font-family="Helvetica,sans-Serif" font-size="10.00">/traits.h</text>
</a>
</g>
</g>
<!-- Node3&#45;&gt;Node24 -->
<g id="edge11_Node000003_Node000024" class="edge">
<title>Node3&#45;&gt;Node24</title>
<g id="a_edge11_Node000003_Node000024"><a xlink:title=" ">
<path fill="none" stroke="#63b8ff" d="M196.4,-120.95C172.15,-111.49 139.97,-98.93 113.94,-88.78"/>
<polygon fill="#63b8ff" stroke="#63b8ff" points="114.88,-85.39 104.29,-85.01 112.34,-91.91 114.88,-85.39"/>
</a>
</g>
</g>
<!-- Node28 -->
<g id="Node000028" class="node">
<title>Node28</title>
<g id="a_Node000028"><a xlink:href="../../da/ded/undef_8h.html" target="_top" xlink:title=" ">
<polygon fill="#fff0f0" stroke="red" points="526.89,-79.5 449.89,-79.5 449.89,-60.5 526.89,-60.5 526.89,-79.5"/>
<text text-anchor="middle" x="488.39" y="-67.5" font-family="Helvetica,sans-Serif" font-size="10.00">fl/stl/undef.h</text>
</a>
</g>
</g>
<!-- Node3&#45;&gt;Node28 -->
<g id="edge15_Node000003_Node000028" class="edge">
<title>Node3&#45;&gt;Node28</title>
<g id="a_edge15_Node000003_Node000028"><a xlink:title=" ">
<path fill="none" stroke="#63b8ff" d="M286.3,-121.98C327.25,-112.03 384.92,-97.88 435.39,-85 439.01,-84.07 442.77,-83.1 446.54,-82.12"/>
<polygon fill="#63b8ff" stroke="#63b8ff" points="447.67,-85.45 456.46,-79.53 445.9,-78.67 447.67,-85.45"/>
</a>
</g>
</g>
<!-- Node6&#45;&gt;Node8 -->
<g id="edge5_Node000006_Node000008" class="edge">
<title>Node6&#45;&gt;Node8</title>
<g id="a_edge5_Node000006_Node000008"><a xlink:title=" ">
<path fill="none" stroke="#63b8ff" d="M348.39,-60.37C348.39,-52.25 348.39,-39.81 348.39,-29.39"/>
<polygon fill="#63b8ff" stroke="#63b8ff" points="351.89,-29.17 348.39,-19.17 344.89,-29.17 351.89,-29.17"/>
</a>
</g>
</g>
<!-- Node6&#45;&gt;Node12 -->
<g id="edge6_Node000006_Node000012" class="edge">
<title>Node6&#45;&gt;Node12</title>
<g id="a_edge6_Node000006_Node000012"><a xlink:title=" ">
<path fill="none" stroke="#63b8ff" d="M323.38,-60.49C293.82,-50.44 244.47,-33.66 211.2,-22.34"/>
<polygon fill="#63b8ff" stroke="#63b8ff" points="212.02,-18.92 201.43,-19.02 209.77,-25.55 212.02,-18.92"/>
</a>
</g>
</g>
<!-- Node23&#45;&gt;Node8 -->
<g id="edge8_Node000023_Node000008" class="edge">
<title>Node23&#45;&gt;Node8</title>
<g id="a_edge8_Node000023_Node000008"><a xlink:title=" ">
<path fill="none" stroke="#63b8ff" d="M260.17,-54.99C279.01,-45.49 303.74,-33.02 322.22,-23.69"/>
<polygon fill="#63b8ff" stroke="#63b8ff" points="323.9,-26.77 331.26,-19.14 320.75,-20.52 323.9,-26.77"/>
</a>
</g>
</g>
<!-- Node23&#45;&gt;Node12 -->
<g id="edge9_Node000023_Node000012" class="edge">
<title>Node23&#45;&gt;Node12</title>
<g id="a_edge9_Node000023_Node000012"><a xlink:title=" ">
<path fill="none" stroke="#63b8ff" d="M218.83,-54.84C210.7,-46.35 200.34,-35.52 191.88,-26.69"/>
<polygon fill="#63b8ff" stroke="#63b8ff" points="194.22,-24.07 184.78,-19.27 189.17,-28.91 194.22,-24.07"/>
</a>
</g>
</g>
<!-- Node24&#45;&gt;Node4 -->
<g id="edge12_Node000024_Node000004" class="edge">
<title>Node24&#45;&gt;Node4</title>
<g id="a_edge12_Node000024_Node000004"><a xlink:title=" ">
<path fill="none" stroke="#63b8ff" d="M62.09,-54.84C58.59,-46.95 54.19,-37.05 50.44,-28.61"/>
<polygon fill="#63b8ff" stroke="#63b8ff" points="53.54,-26.98 46.28,-19.27 47.15,-29.83 53.54,-26.98"/>
</a>
</g>
</g>
<!-- Node24&#45;&gt;Node12 -->
<g id="edge13_Node000024_Node000012" class="edge">
<title>Node24&#45;&gt;Node12</title>
<g id="a_edge13_Node000024_Node000012"><a xlink:title=" ">
<path fill="none" stroke="#63b8ff" d="M94.26,-54.99C111.63,-45.58 134.4,-33.24 151.55,-23.95"/>
<polygon fill="#63b8ff" stroke="#63b8ff" points="153.31,-26.98 160.44,-19.14 149.98,-20.82 153.31,-26.98"/>
</a>
</g>
</g>
</g>
</svg>

<g id="navigator" transform="translate(0 0)" fill="#404254">
  <rect fill="#f2f5e9" fill-opacity="0.5" stroke="#606060" stroke-width=".5" x="0" y="0" width="60" height="60"/>
  <use id="zoomplus" xlink:href="#zoomPlus" x="17" y="9" onmousedown="handleZoom(evt,'in')"/>
  <use id="zoomminus" xlink:href="#zoomMin" x="42" y="9" onmousedown="handleZoom(evt,'out')"/>
  <use id="reset" xlink:href="#resetDef" x="30" y="36" onmousedown="handleReset()"/>
   <use id="arrowup" xlink:href="#arrowUp" x="0" y="0" onmousedown="handlePan(0,-1)"/>
  <use id="arrowright" xlink:href="#arrowRight" x="0" y="0" onmousedown="handlePan(1,0)"/>
  <use id="arrowdown" xlink:href="#arrowDown" x="0" y="0" onmousedown="handlePan(0,1)"/>
  <use id="arrowleft" xlink:href="#arrowLeft" x="0" y="0" onmousedown="handlePan(-1,0)"/>
</g>
<svg viewBox="0 0 15 15" width="100%" height="30px" preserveAspectRatio="xMaxYMin meet">
 <g id="arrow_out" transform="scale(0.3 0.3)">
  <a xlink:href="fx_22d_2animartrix__detail_2perlin__s16x16_8h__incl_org.svg" target="_base">
   <rect id="button" ry="5" rx="5" y="6" x="6" height="38" width="38"
        fill="#f2f5e9" fill-opacity="0.5" stroke="#606060" stroke-width="1.0"/>
   <path id="arrow"
     d="M 11.500037,31.436501 C 11.940474,20.09759 22.043105,11.32322 32.158766,21.979434 L 37.068811,17.246167 C 37.068811,17.246167 37.088388,32 37.088388,32 L 22.160133,31.978069 C 22.160133,31.978069 26.997745,27.140456 26.997745,27.140456 C 18.528582,18.264221 13.291696,25.230495 11.500037,31.436501 z"
     style="fill:#404040;"/>
  </a>
 </g>
</svg>

<style type='text/css'>
<![CDATA[
[data-mouse-over-selected='false'] { opacity: 0.7; }
[data-mouse-over-selected='true']  { opacity: 1.0; }
]]>
</style>
<script type="application/ecmascript"><![CDATA[
document.addEventListener('DOMContentLoaded', (event) => {
  highlightEdges();
  highlightAdjacentNodes();
});
]]></script>
</svg>
