<?xml version="1.0" encoding="UTF-8" standalone="no"?>
<!DOCTYPE svg PUBLIC "-//W3C//DTD SVG 1.1//EN"
 "http://www.w3.org/Graphics/SVG/1.1/DTD/svg11.dtd">
<!-- Generated by graphviz version 2.43.0 (0)
 -->
<!-- Title: fl::UICheckbox::Listener Pages: 1 -->
<svg width="428pt" height="248pt"
 viewBox="0.00 0.00 427.50 248.00" xmlns="http://www.w3.org/2000/svg" xmlns:xlink="http://www.w3.org/1999/xlink">

<svg id="main" version="1.1" xmlns="http://www.w3.org/2000/svg" xmlns:xlink="http://www.w3.org/1999/xlink" xml:space="preserve">

<style type="text/css"><![CDATA[
.node, .edge {opacity: 0.7;}
.node.selected, .edge.selected {opacity: 1;}
.edge:hover path { stroke: red; }
.edge:hover polygon { stroke: red; fill: red; }
]]></style>
<script type="application/ecmascript" xlink:href="../../svg.min.js"/>
<svg id="graph" class="graph">
<g id="graph0" class="graph" transform="scale(1 1) rotate(0) translate(4 244)">
<title>fl::UICheckbox::Listener</title>
<!-- Node1 -->
<g id="Node000001" class="node">
<title>Node1</title>
<g id="a_Node000001"><a xlink:title=" ">
<polygon fill="#999999" stroke="#666666" points="415.5,-90.5 283.5,-90.5 283.5,-71.5 415.5,-71.5 415.5,-90.5"/>
<text text-anchor="middle" x="349.5" y="-78.5" font-family="Helvetica,sans-Serif" font-size="10.00">fl::UICheckbox::Listener</text>
</a>
</g>
</g>
<!-- Node3 -->
<g id="Node000003" class="node">
<title>Node3</title>
<g id="a_Node000003"><a xlink:href="../../d7/dfe/classfl_1_1_u_i_checkbox.html" target="_top" xlink:title=" ">
<polygon fill="white" stroke="#666666" points="277,-19 190,-19 190,0 277,0 277,-19"/>
<text text-anchor="middle" x="233.5" y="-7" font-family="Helvetica,sans-Serif" font-size="10.00">fl::UICheckbox</text>
</a>
</g>
</g>
<!-- Node1&#45;&gt;Node3 -->
<g id="edge8_Node000003_Node000001" class="edge">
<title>Node1&#45;&gt;Node3</title>
<g id="a_edge8_Node000003_Node000001"><a xlink:title=" ">
<path fill="none" stroke="#9a32cd" stroke-dasharray="5,2" d="M312.53,-67.85C299.36,-62.71 284.76,-56.03 272.5,-48 260.08,-39.87 248.14,-27.49 240.81,-19.2"/>
<polygon fill="#9a32cd" stroke="#9a32cd" points="311.67,-71.27 322.26,-71.49 314.12,-64.71 311.67,-71.27"/>
</a>
</g>
<text text-anchor="middle" x="298.5" y="-40" font-family="Helvetica,sans-Serif" font-size="10.00" fill="grey"> mListener</text>
</g>
<!-- Node2 -->
<g id="Node000002" class="node">
<title>Node2</title>
<g id="a_Node000002"><a xlink:href="../../db/da2/classfl_1_1_engine_events_1_1_listener.html" target="_top" xlink:title=" ">
<polygon fill="white" stroke="#666666" points="419.5,-173 279.5,-173 279.5,-154 419.5,-154 419.5,-173"/>
<text text-anchor="middle" x="349.5" y="-161" font-family="Helvetica,sans-Serif" font-size="10.00">fl::EngineEvents::Listener</text>
</a>
</g>
</g>
<!-- Node2&#45;&gt;Node1 -->
<g id="edge1_Node000001_Node000002" class="edge">
<title>Node2&#45;&gt;Node1</title>
<g id="a_edge1_Node000001_Node000002"><a xlink:title=" ">
<path fill="none" stroke="#63b8ff" d="M349.5,-143.67C349.5,-127.01 349.5,-103.43 349.5,-90.8"/>
<polygon fill="#63b8ff" stroke="#63b8ff" points="346,-143.89 349.5,-153.89 353,-143.89 346,-143.89"/>
</a>
</g>
</g>
<!-- Node3&#45;&gt;Node1 -->
<g id="edge2_Node000001_Node000003" class="edge">
<title>Node3&#45;&gt;Node1</title>
<g id="a_edge2_Node000001_Node000003"><a xlink:title=" ">
<path fill="none" stroke="#9a32cd" stroke-dasharray="5,2" d="M287.3,-17.23C301.89,-21.14 316.85,-27.3 328.5,-37 339.23,-45.93 344.92,-61.66 347.56,-71.42"/>
<polygon fill="#9a32cd" stroke="#9a32cd" points="287.85,-13.76 277.31,-14.87 286.24,-20.57 287.85,-13.76"/>
</a>
</g>
<text text-anchor="middle" x="361" y="-40" font-family="Helvetica,sans-Serif" font-size="10.00" fill="grey"> mOwner</text>
</g>
<!-- Node4 -->
<g id="Node000004" class="node">
<title>Node4</title>
<g id="a_Node000004"><a xlink:href="../../d1/d2e/classfl_1_1_u_i_checkbox_impl.html" target="_top" xlink:title=" ">
<polygon fill="white" stroke="#666666" points="109,-90.5 0,-90.5 0,-71.5 109,-71.5 109,-90.5"/>
<text text-anchor="middle" x="54.5" y="-78.5" font-family="Helvetica,sans-Serif" font-size="10.00">fl::UICheckboxImpl</text>
</a>
</g>
</g>
<!-- Node4&#45;&gt;Node3 -->
<g id="edge3_Node000003_Node000004" class="edge">
<title>Node4&#45;&gt;Node3</title>
<g id="a_edge3_Node000003_Node000004"><a xlink:title=" ">
<path fill="none" stroke="#63b8ff" d="M85.97,-67.78C121.93,-53.82 179.87,-31.32 211.37,-19.09"/>
<polygon fill="#63b8ff" stroke="#63b8ff" points="84.5,-64.6 76.45,-71.48 87.04,-71.12 84.5,-64.6"/>
</a>
</g>
</g>
<!-- Node5 -->
<g id="Node000005" class="node">
<title>Node5</title>
<g id="a_Node000005"><a xlink:href="../../d1/d5d/classfl_1_1_function_list.html" target="_top" xlink:title=" ">
<polygon fill="white" stroke="#666666" points="257.5,-96 127.5,-96 127.5,-66 257.5,-66 257.5,-96"/>
<text text-anchor="start" x="135.5" y="-84" font-family="Helvetica,sans-Serif" font-size="10.00">fl::FunctionList&lt; fl</text>
<text text-anchor="middle" x="192.5" y="-73" font-family="Helvetica,sans-Serif" font-size="10.00">::UICheckbox &amp;, bool &gt;</text>
</a>
</g>
</g>
<!-- Node5&#45;&gt;Node3 -->
<g id="edge4_Node000003_Node000005" class="edge">
<title>Node5&#45;&gt;Node3</title>
<g id="a_edge4_Node000003_Node000005"><a xlink:title=" ">
<path fill="none" stroke="#9a32cd" stroke-dasharray="5,2" d="M188.44,-55.72C188.43,-49.32 189.44,-42.63 192.5,-37 196.8,-29.11 204.56,-23.21 212.19,-19.01"/>
<polygon fill="#9a32cd" stroke="#9a32cd" points="184.97,-56.3 189.24,-66 191.95,-55.75 184.97,-56.3"/>
</a>
</g>
<text text-anchor="middle" x="223" y="-40" font-family="Helvetica,sans-Serif" font-size="10.00" fill="grey"> mCallbacks</text>
</g>
<!-- Node6 -->
<g id="Node000006" class="node">
<title>Node6</title>
<g id="a_Node000006"><a xlink:href="../../d7/de3/classfl_1_1_function_list_base.html" target="_top" xlink:title=" ">
<polygon fill="#fff0f0" stroke="red" points="190.5,-240 32.5,-240 32.5,-210 190.5,-210 190.5,-240"/>
<text text-anchor="start" x="40.5" y="-228" font-family="Helvetica,sans-Serif" font-size="10.00">fl::FunctionListBase</text>
<text text-anchor="middle" x="111.5" y="-217" font-family="Helvetica,sans-Serif" font-size="10.00">&lt; function&lt; void(Args...)&gt; &gt;</text>
</a>
</g>
</g>
<!-- Node6&#45;&gt;Node5 -->
<g id="edge5_Node000005_Node000006" class="edge">
<title>Node6&#45;&gt;Node5</title>
<g id="a_edge5_Node000005_Node000006"><a xlink:title=" ">
<path fill="none" stroke="#63b8ff" d="M109.91,-199.5C109.96,-185.53 111.72,-168.06 118.5,-154 130.26,-129.62 153.89,-108.95 171.3,-96.1"/>
<polygon fill="#63b8ff" stroke="#63b8ff" points="106.42,-199.92 110.16,-209.83 113.41,-199.74 106.42,-199.92"/>
</a>
</g>
</g>
<!-- Node24 -->
<g id="Node000024" class="node">
<title>Node24</title>
<g id="a_Node000024"><a xlink:href="../../d1/d5d/classfl_1_1_function_list.html" target="_top" xlink:title=" ">
<polygon fill="white" stroke="#666666" points="259,-173 128,-173 128,-154 259,-154 259,-173"/>
<text text-anchor="middle" x="193.5" y="-161" font-family="Helvetica,sans-Serif" font-size="10.00">fl::FunctionList&lt; Args &gt;</text>
</a>
</g>
</g>
<!-- Node6&#45;&gt;Node24 -->
<g id="edge7_Node000024_Node000006" class="edge">
<title>Node6&#45;&gt;Node24</title>
<g id="a_edge7_Node000024_Node000006"><a xlink:title=" ">
<path fill="none" stroke="#63b8ff" d="M139.09,-203.98C153.53,-193.5 170.47,-181.21 181.57,-173.16"/>
<polygon fill="#63b8ff" stroke="#63b8ff" points="136.97,-201.19 130.93,-209.9 141.08,-206.86 136.97,-201.19"/>
</a>
</g>
</g>
<!-- Node24&#45;&gt;Node5 -->
<g id="edge6_Node000005_Node000024" class="edge">
<title>Node24&#45;&gt;Node5</title>
<g id="a_edge6_Node000005_Node000024"><a xlink:title=" ">
<path fill="none" stroke="orange" stroke-dasharray="5,2" d="M193.27,-143.6C193.09,-129.1 192.84,-109.4 192.68,-96.22"/>
<polygon fill="orange" stroke="orange" points="189.77,-143.93 193.39,-153.89 196.77,-143.84 189.77,-143.93"/>
</a>
</g>
<text text-anchor="start" x="193.5" y="-128" font-family="Helvetica,sans-Serif" font-size="10.00" fill="grey"> &lt; fl::UICheckbox &amp;,</text>
<text text-anchor="middle" x="243" y="-117" font-family="Helvetica,sans-Serif" font-size="10.00" fill="grey"> bool &gt;</text>
</g>
</g>
</svg>
</svg>

<style type='text/css'>
<![CDATA[
[data-mouse-over-selected='false'] { opacity: 0.7; }
[data-mouse-over-selected='true']  { opacity: 1.0; }
]]>
</style>
<script type="application/ecmascript"><![CDATA[
document.addEventListener('DOMContentLoaded', (event) => {
  highlightEdges();
  highlightAdjacentNodes();
});
]]></script>
</svg>
