<?xml version="1.0" encoding="UTF-8" standalone="no"?>
<!DOCTYPE svg PUBLIC "-//W3C//DTD SVG 1.1//EN"
 "http://www.w3.org/Graphics/SVG/1.1/DTD/svg11.dtd">
<!-- Generated by graphviz version 2.43.0 (0)
 -->
<!-- Title: fx/detail/transition.h Pages: 1 -->
<!--zoomable 412 -->

<svg id="main" version="1.1" xmlns="http://www.w3.org/2000/svg" xmlns:xlink="http://www.w3.org/1999/xlink" xml:space="preserve" onload="init(evt)">

<style type="text/css"><![CDATA[
.node, .edge {opacity: 0.7;}
.node.selected, .edge.selected {opacity: 1;}
.edge:hover path { stroke: red; }
.edge:hover polygon { stroke: red; fill: red; }
]]></style>

<defs>
  <circle id="rim" cx="0" cy="0" r="7"/>
  <circle id="rim2" cx="0" cy="0" r="3.5"/>
  <g id="zoomPlus">
    <use xlink:href="#rim" fill="#404040"><set attributeName="fill" to="#808080" begin="zoomplus.mouseover" end="zoomplus.mouseout"/></use>
    <path d="M-4,0h8M0,-4v8" fill="none" stroke="white" stroke-width="1.5" pointer-events="none"/>
  </g>
  <g id="zoomMin">
    <use xlink:href="#rim" fill="#404040"><set attributeName="fill" to="#808080" begin="zoomminus.mouseover" end="zoomminus.mouseout"/></use>
    <path d="M-4,0h8" fill="none" stroke="white" stroke-width="1.5" pointer-events="none"/>
  </g>
  <g id="arrowUp" transform="translate(30 24)">
    <use xlink:href="#rim"/>
    <path pointer-events="none" fill="none" stroke="white" stroke-width="1.5" d="M0,-3.0v7 M-2.5,-0.5L0,-3.0L2.5,-0.5"/>
  </g>
  <g id="arrowRight" transform="rotate(90) translate(36 -43)">
    <use xlink:href="#rim"/>
    <path pointer-events="none" fill="none" stroke="white" stroke-width="1.5" d="M0,-3.0v7 M-2.5,-0.5L0,-3.0L2.5,-0.5"/>
  </g>
  <g id="arrowDown" transform="rotate(180) translate(-30 -48)">
    <use xlink:href="#rim"/>
    <path pointer-events="none" fill="none" stroke="white" stroke-width="1.5" d="M0,-3.0v7 M-2.5,-0.5L0,-3.0L2.5,-0.5"/>
  </g>
  <g id="arrowLeft" transform="rotate(270) translate(-36 17)">
    <use xlink:href="#rim"/>
    <path pointer-events="none" fill="none" stroke="white" stroke-width="1.5" d="M0,-3.0v7 M-2.5,-0.5L0,-3.0L2.5,-0.5"/>
  </g>
  <g id="resetDef">
    <use xlink:href="#rim2" fill="#404040"><set attributeName="fill" to="#808080" begin="reset.mouseover" end="reset.mouseout"/></use>
  </g>
</defs>
<script type="application/ecmascript">
var viewWidth = 2216;
var viewHeight = 412;
var sectionId = 'dynsection-1';
</script>
<script type="application/ecmascript" xlink:href="../../svg.min.js"/>
<svg id="graph" class="graph">
<g id="viewport">
<title>fx/detail/transition.h</title>
<!-- Node1 -->
<g id="Node000001" class="node">
<title>Node1</title>
<g id="a_Node000001"><a xlink:title=" ">
<polygon fill="#999999" stroke="#666666" points="890,-404 774,-404 774,-385 890,-385 890,-404"/>
<text text-anchor="middle" x="832" y="-392" font-family="Helvetica,sans-Serif" font-size="10.00">fx/detail/transition.h</text>
</a>
</g>
</g>
<!-- Node2 -->
<g id="Node000002" class="node">
<title>Node2</title>
<g id="a_Node000002"><a xlink:href="../../d2/d0c/fx_8h.html" target="_top" xlink:title=" ">
<polygon fill="white" stroke="#666666" points="856,-349 808,-349 808,-330 856,-330 856,-349"/>
<text text-anchor="middle" x="832" y="-337" font-family="Helvetica,sans-Serif" font-size="10.00">fx/fx.h</text>
</a>
</g>
</g>
<!-- Node1&#45;&gt;Node2 -->
<g id="edge1_Node000001_Node000002" class="edge">
<title>Node1&#45;&gt;Node2</title>
<g id="a_edge1_Node000001_Node000002"><a xlink:title=" ">
<path fill="none" stroke="#63b8ff" d="M832,-374.66C832,-365.93 832,-355.99 832,-349.09"/>
<polygon fill="#63b8ff" stroke="#63b8ff" points="828.5,-374.75 832,-384.75 835.5,-374.75 828.5,-374.75"/>
</a>
</g>
</g>
<!-- Node3 -->
<g id="Node000003" class="node">
<title>Node3</title>
<g id="a_Node000003"><a xlink:href="../../dc/d36/wave__simulation_8h.html" target="_top" xlink:title=" ">
<polygon fill="white" stroke="#666666" points="1335,-167.5 1217,-167.5 1217,-148.5 1335,-148.5 1335,-167.5"/>
<text text-anchor="middle" x="1276" y="-155.5" font-family="Helvetica,sans-Serif" font-size="10.00">fl/wave_simulation.h</text>
</a>
</g>
</g>
<!-- Node2&#45;&gt;Node3 -->
<g id="edge2_Node000002_Node000003" class="edge">
<title>Node2&#45;&gt;Node3</title>
<g id="a_edge2_Node000002_Node000003"><a xlink:title=" ">
<path fill="none" stroke="#63b8ff" d="M797.7,-337.26C692.77,-332.35 388.8,-309.32 483,-209 508.07,-182.3 1037.3,-165.49 1216.95,-160.54"/>
<polygon fill="#63b8ff" stroke="#63b8ff" points="797.64,-340.76 807.78,-337.7 797.95,-333.76 797.64,-340.76"/>
</a>
</g>
</g>
<!-- Node6 -->
<g id="Node000006" class="node">
<title>Node6</title>
<g id="a_Node000006"><a xlink:href="../../de/de9/src_2fx_22d_2wave_8h.html" target="_top" xlink:title=" ">
<polygon fill="#fff0f0" stroke="red" points="1629,-101.5 1549,-101.5 1549,-82.5 1629,-82.5 1629,-101.5"/>
<text text-anchor="middle" x="1589" y="-89.5" font-family="Helvetica,sans-Serif" font-size="10.00">fx/2d/wave.h</text>
</a>
</g>
</g>
<!-- Node2&#45;&gt;Node6 -->
<g id="edge17_Node000002_Node000006" class="edge">
<title>Node2&#45;&gt;Node6</title>
<g id="a_edge17_Node000002_Node000006"><a xlink:title=" ">
<path fill="none" stroke="#63b8ff" d="M866.12,-335.47C977.82,-325.15 1331.23,-289.19 1433,-239 1503.2,-204.38 1563.65,-127.65 1582.74,-101.74"/>
<polygon fill="#63b8ff" stroke="#63b8ff" points="865.72,-331.99 856.08,-336.39 866.36,-338.96 865.72,-331.99"/>
</a>
</g>
</g>
<!-- Node18 -->
<g id="Node000018" class="node">
<title>Node18</title>
<g id="a_Node000018"><a xlink:href="../../dd/d8e/wave__simulation__real_8h.html" target="_top" xlink:title=" ">
<polygon fill="white" stroke="#666666" points="1424.5,-239 1315.5,-239 1315.5,-209 1424.5,-209 1424.5,-239"/>
<text text-anchor="start" x="1323.5" y="-227" font-family="Helvetica,sans-Serif" font-size="10.00">fl/wave_simulation</text>
<text text-anchor="middle" x="1370" y="-216" font-family="Helvetica,sans-Serif" font-size="10.00">_real.h</text>
</a>
</g>
</g>
<!-- Node2&#45;&gt;Node18 -->
<g id="edge9_Node000002_Node000018" class="edge">
<title>Node2&#45;&gt;Node18</title>
<g id="a_edge9_Node000002_Node000018"><a xlink:title=" ">
<path fill="none" stroke="#63b8ff" d="M866.41,-331.38C944.58,-315.19 1141.49,-274.26 1306,-239 1309,-238.36 1312.08,-237.69 1315.19,-237.02"/>
<polygon fill="#63b8ff" stroke="#63b8ff" points="865.27,-328.04 856.19,-333.5 866.69,-334.9 865.27,-328.04"/>
</a>
</g>
</g>
<!-- Node20 -->
<g id="Node000020" class="node">
<title>Node20</title>
<g id="a_Node000020"><a xlink:href="../../d8/d4e/blend_8h.html" target="_top" xlink:title=" ">
<polygon fill="white" stroke="#666666" points="2091,-101.5 2011,-101.5 2011,-82.5 2091,-82.5 2091,-101.5"/>
<text text-anchor="middle" x="2051" y="-89.5" font-family="Helvetica,sans-Serif" font-size="10.00">fx/2d/blend.h</text>
</a>
</g>
</g>
<!-- Node2&#45;&gt;Node20 -->
<g id="edge12_Node000002_Node000020" class="edge">
<title>Node2&#45;&gt;Node20</title>
<g id="a_edge12_Node000002_Node000020"><a xlink:title=" ">
<path fill="none" stroke="#63b8ff" d="M866.26,-338.73C1067.94,-339.71 2094.66,-339.72 2186,-239 2214.68,-207.38 2213.51,-177.95 2189,-143 2167.05,-111.71 2123.45,-99.92 2091.1,-95.52"/>
<polygon fill="#63b8ff" stroke="#63b8ff" points="866.26,-335.23 856.24,-338.67 866.22,-342.23 866.26,-335.23"/>
</a>
</g>
</g>
<!-- Node22 -->
<g id="Node000022" class="node">
<title>Node22</title>
<g id="a_Node000022"><a xlink:href="../../d5/d6b/fx__compositor_8h.html" target="_top" xlink:title=" ">
<polygon fill="white" stroke="#666666" points="138,-233.5 0,-233.5 0,-214.5 138,-214.5 138,-233.5"/>
<text text-anchor="middle" x="69" y="-221.5" font-family="Helvetica,sans-Serif" font-size="10.00">fx/detail/fx_compositor.h</text>
</a>
</g>
</g>
<!-- Node2&#45;&gt;Node22 -->
<g id="edge18_Node000002_Node000022" class="edge">
<title>Node2&#45;&gt;Node22</title>
<g id="a_edge18_Node000002_Node000022"><a xlink:title=" ">
<path fill="none" stroke="#63b8ff" d="M797.65,-338.68C678.41,-338.93 283.21,-336.47 165,-294 128.11,-280.75 92.83,-248.86 77.29,-233.52"/>
<polygon fill="#63b8ff" stroke="#63b8ff" points="797.69,-342.18 807.68,-338.65 797.67,-335.18 797.69,-342.18"/>
</a>
</g>
</g>
<!-- Node23 -->
<g id="Node000023" class="node">
<title>Node23</title>
<g id="a_Node000023"><a xlink:href="../../d9/d3c/fx__engine_8h.html" target="_top" xlink:title=" ">
<polygon fill="#fff0f0" stroke="red" points="385,-167.5 299,-167.5 299,-148.5 385,-148.5 385,-167.5"/>
<text text-anchor="middle" x="342" y="-155.5" font-family="Helvetica,sans-Serif" font-size="10.00">fx/fx_engine.h</text>
</a>
</g>
</g>
<!-- Node2&#45;&gt;Node23 -->
<g id="edge52_Node000002_Node000023" class="edge">
<title>Node2&#45;&gt;Node23</title>
<g id="a_edge52_Node000002_Node000023"><a xlink:title=" ">
<path fill="none" stroke="#63b8ff" d="M797.27,-337.62C733.3,-335.24 593.06,-326.43 480,-294 423.99,-277.93 397.89,-284.1 361,-239 343.65,-217.78 341.64,-183.39 341.72,-167.52"/>
<polygon fill="#63b8ff" stroke="#63b8ff" points="797.47,-341.13 807.59,-337.97 797.71,-334.14 797.47,-341.13"/>
</a>
</g>
</g>
<!-- Node27 -->
<g id="Node000027" class="node">
<title>Node27</title>
<g id="a_Node000027"><a xlink:href="../../d7/d2f/fx__layer_8h.html" target="_top" xlink:title=" ">
<polygon fill="white" stroke="#666666" points="282,-294 174,-294 174,-275 282,-275 282,-294"/>
<text text-anchor="middle" x="228" y="-282" font-family="Helvetica,sans-Serif" font-size="10.00">fx/detail/fx_layer.h</text>
</a>
</g>
</g>
<!-- Node2&#45;&gt;Node27 -->
<g id="edge21_Node000002_Node000027" class="edge">
<title>Node2&#45;&gt;Node27</title>
<g id="a_edge21_Node000002_Node000027"><a xlink:title=" ">
<path fill="none" stroke="#63b8ff" d="M797.78,-335.5C697.59,-326.71 404.25,-300.97 282.23,-290.26"/>
<polygon fill="#63b8ff" stroke="#63b8ff" points="797.68,-339 807.95,-336.39 798.29,-332.03 797.68,-339"/>
</a>
</g>
</g>
<!-- Node29 -->
<g id="Node000029" class="node">
<title>Node29</title>
<g id="a_Node000029"><a xlink:href="../../da/d81/fx1d_8h.html" target="_top" xlink:title=" ">
<polygon fill="white" stroke="#666666" points="862,-294 802,-294 802,-275 862,-275 862,-294"/>
<text text-anchor="middle" x="832" y="-282" font-family="Helvetica,sans-Serif" font-size="10.00">fx/fx1d.h</text>
</a>
</g>
</g>
<!-- Node2&#45;&gt;Node29 -->
<g id="edge25_Node000002_Node000029" class="edge">
<title>Node2&#45;&gt;Node29</title>
<g id="a_edge25_Node000002_Node000029"><a xlink:title=" ">
<path fill="none" stroke="#63b8ff" d="M832,-319.66C832,-310.93 832,-300.99 832,-294.09"/>
<polygon fill="#63b8ff" stroke="#63b8ff" points="828.5,-319.75 832,-329.75 835.5,-319.75 828.5,-319.75"/>
</a>
</g>
</g>
<!-- Node53 -->
<g id="Node000053" class="node">
<title>Node53</title>
<g id="a_Node000053"><a xlink:href="../../d9/d43/fx2d_8h.html" target="_top" xlink:title=" ">
<polygon fill="white" stroke="#666666" points="1795,-294 1735,-294 1735,-275 1795,-275 1795,-294"/>
<text text-anchor="middle" x="1765" y="-282" font-family="Helvetica,sans-Serif" font-size="10.00">fx/fx2d.h</text>
</a>
</g>
</g>
<!-- Node2&#45;&gt;Node53 -->
<g id="edge35_Node000002_Node000053" class="edge">
<title>Node2&#45;&gt;Node53</title>
<g id="a_edge35_Node000002_Node000053"><a xlink:title=" ">
<path fill="none" stroke="#63b8ff" d="M866.26,-336.55C1014.02,-328.16 1595.45,-295.13 1734.84,-287.21"/>
<polygon fill="#63b8ff" stroke="#63b8ff" points="865.79,-333.08 856,-337.14 866.18,-340.06 865.79,-333.08"/>
</a>
</g>
</g>
<!-- Node4 -->
<g id="Node000004" class="node">
<title>Node4</title>
<g id="a_Node000004"><a xlink:href="../../d8/d78/examples_2_wave_2wave_8h.html" target="_top" xlink:title=" ">
<polygon fill="white" stroke="#666666" points="1212,-107 1034,-107 1034,-77 1212,-77 1212,-107"/>
<text text-anchor="start" x="1042" y="-95" font-family="Helvetica,sans-Serif" font-size="10.00">/home/runner/work/FastLED</text>
<text text-anchor="middle" x="1123" y="-84" font-family="Helvetica,sans-Serif" font-size="10.00">/FastLED/examples/Wave/Wave.h</text>
</a>
</g>
</g>
<!-- Node3&#45;&gt;Node4 -->
<g id="edge3_Node000003_Node000004" class="edge">
<title>Node3&#45;&gt;Node4</title>
<g id="a_edge3_Node000003_Node000004"><a xlink:title=" ">
<path fill="none" stroke="#63b8ff" d="M1246.13,-144.5C1220.46,-133.77 1183.47,-118.3 1156.75,-107.12"/>
<polygon fill="#63b8ff" stroke="#63b8ff" points="1244.79,-147.74 1255.37,-148.37 1247.49,-141.28 1244.79,-147.74"/>
</a>
</g>
</g>
<!-- Node5 -->
<g id="Node000005" class="node">
<title>Node5</title>
<g id="a_Node000005"><a xlink:href="../../de/d8c/wave__simulation_8cpp.html" target="_top" xlink:title=" ">
<polygon fill="white" stroke="#666666" points="1359.5,-101.5 1230.5,-101.5 1230.5,-82.5 1359.5,-82.5 1359.5,-101.5"/>
<text text-anchor="middle" x="1295" y="-89.5" font-family="Helvetica,sans-Serif" font-size="10.00">fl/wave_simulation.cpp</text>
</a>
</g>
</g>
<!-- Node3&#45;&gt;Node5 -->
<g id="edge4_Node000003_Node000005" class="edge">
<title>Node3&#45;&gt;Node5</title>
<g id="a_edge4_Node000003_Node000005"><a xlink:title=" ">
<path fill="none" stroke="#63b8ff" d="M1281.51,-138.45C1285.07,-126.43 1289.56,-111.32 1292.36,-101.91"/>
<polygon fill="#63b8ff" stroke="#63b8ff" points="1278.05,-137.79 1278.56,-148.37 1284.76,-139.78 1278.05,-137.79"/>
</a>
</g>
</g>
<!-- Node3&#45;&gt;Node6 -->
<g id="edge5_Node000003_Node000006" class="edge">
<title>Node3&#45;&gt;Node6</title>
<g id="a_edge5_Node000003_Node000006"><a xlink:title=" ">
<path fill="none" stroke="#63b8ff" d="M1326.46,-146.49C1332.37,-145.29 1338.32,-144.11 1344,-143 1430.93,-126.07 1453.76,-127.19 1540,-107 1546.81,-105.41 1554.08,-103.46 1560.88,-101.54"/>
<polygon fill="#63b8ff" stroke="#63b8ff" points="1325.7,-143.07 1316.6,-148.49 1327.1,-149.93 1325.7,-143.07"/>
</a>
</g>
</g>
<!-- Node7 -->
<g id="Node000007" class="node">
<title>Node7</title>
<g id="a_Node000007"><a xlink:href="../../de/d79/examples_2_downscale_2src_2wave_8h.html" target="_top" xlink:title=" ">
<polygon fill="#fff0f0" stroke="red" points="2059.5,-41 1894.5,-41 1894.5,0 2059.5,0 2059.5,-41"/>
<text text-anchor="start" x="1902.5" y="-29" font-family="Helvetica,sans-Serif" font-size="10.00">/home/runner/work/FastLED</text>
<text text-anchor="start" x="1902.5" y="-18" font-family="Helvetica,sans-Serif" font-size="10.00">/FastLED/examples/Downscale</text>
<text text-anchor="middle" x="1977" y="-7" font-family="Helvetica,sans-Serif" font-size="10.00">/src/wave.h</text>
</a>
</g>
</g>
<!-- Node6&#45;&gt;Node7 -->
<g id="edge6_Node000006_Node000007" class="edge">
<title>Node6&#45;&gt;Node7</title>
<g id="a_edge6_Node000006_Node000007"><a xlink:title=" ">
<path fill="none" stroke="#63b8ff" d="M1638.99,-82.05C1703.52,-70.49 1816.72,-50.21 1894.19,-36.33"/>
<polygon fill="#63b8ff" stroke="#63b8ff" points="1638.29,-78.62 1629.06,-83.82 1639.52,-85.51 1638.29,-78.62"/>
</a>
</g>
</g>
<!-- Node10 -->
<g id="Node000010" class="node">
<title>Node10</title>
<g id="a_Node000010"><a xlink:href="../../d4/d06/curr_8h.html" target="_top" xlink:title=" ">
<polygon fill="white" stroke="#666666" points="1612,-35.5 1408,-35.5 1408,-5.5 1612,-5.5 1612,-35.5"/>
<text text-anchor="start" x="1416" y="-23.5" font-family="Helvetica,sans-Serif" font-size="10.00">/home/runner/work/FastLED</text>
<text text-anchor="middle" x="1510" y="-12.5" font-family="Helvetica,sans-Serif" font-size="10.00">/FastLED/examples/FestivalStick/curr.h</text>
</a>
</g>
</g>
<!-- Node6&#45;&gt;Node10 -->
<g id="edge7_Node000006_Node000010" class="edge">
<title>Node6&#45;&gt;Node10</title>
<g id="a_edge7_Node000006_Node000010"><a xlink:title=" ">
<path fill="none" stroke="#63b8ff" d="M1571.62,-75.71C1558.03,-63.76 1539.3,-47.28 1526.07,-35.64"/>
<polygon fill="#63b8ff" stroke="#63b8ff" points="1569.49,-78.5 1579.31,-82.48 1574.12,-73.24 1569.49,-78.5"/>
</a>
</g>
</g>
<!-- Node12 -->
<g id="Node000012" class="node">
<title>Node12</title>
<g id="a_Node000012"><a xlink:href="../../db/dd3/examples_2_x_y_path_2src_2wave_8h.html" target="_top" xlink:title=" ">
<polygon fill="#fff0f0" stroke="red" points="1798,-41 1648,-41 1648,0 1798,0 1798,-41"/>
<text text-anchor="start" x="1656" y="-29" font-family="Helvetica,sans-Serif" font-size="10.00">/home/runner/work/FastLED</text>
<text text-anchor="start" x="1656" y="-18" font-family="Helvetica,sans-Serif" font-size="10.00">/FastLED/examples/XYPath</text>
<text text-anchor="middle" x="1723" y="-7" font-family="Helvetica,sans-Serif" font-size="10.00">/src/wave.h</text>
</a>
</g>
</g>
<!-- Node6&#45;&gt;Node12 -->
<g id="edge8_Node000006_Node000012" class="edge">
<title>Node6&#45;&gt;Node12</title>
<g id="a_edge8_Node000006_Node000012"><a xlink:title=" ">
<path fill="none" stroke="#63b8ff" d="M1614.55,-77.75C1634.58,-67.36 1662.74,-52.75 1685.35,-41.03"/>
<polygon fill="#63b8ff" stroke="#63b8ff" points="1612.7,-74.77 1605.43,-82.48 1615.92,-80.98 1612.7,-74.77"/>
</a>
</g>
</g>
<!-- Node18&#45;&gt;Node3 -->
<g id="edge10_Node000018_Node000003" class="edge">
<title>Node18&#45;&gt;Node3</title>
<g id="a_edge10_Node000018_Node000003"><a xlink:title=" ">
<path fill="none" stroke="#63b8ff" d="M1340.44,-202.87C1323.04,-191.03 1301.92,-176.65 1288.72,-167.66"/>
<polygon fill="#63b8ff" stroke="#63b8ff" points="1338.9,-206.06 1349.14,-208.8 1342.84,-200.28 1338.9,-206.06"/>
</a>
</g>
</g>
<!-- Node19 -->
<g id="Node000019" class="node">
<title>Node19</title>
<g id="a_Node000019"><a xlink:href="../../d8/da2/wave__simulation__real_8cpp.html" target="_top" xlink:title=" ">
<polygon fill="white" stroke="#666666" points="1462.5,-173 1353.5,-173 1353.5,-143 1462.5,-143 1462.5,-173"/>
<text text-anchor="start" x="1361.5" y="-161" font-family="Helvetica,sans-Serif" font-size="10.00">fl/wave_simulation</text>
<text text-anchor="middle" x="1408" y="-150" font-family="Helvetica,sans-Serif" font-size="10.00">_real.cpp</text>
</a>
</g>
</g>
<!-- Node18&#45;&gt;Node19 -->
<g id="edge11_Node000018_Node000019" class="edge">
<title>Node18&#45;&gt;Node19</title>
<g id="a_edge11_Node000018_Node000019"><a xlink:title=" ">
<path fill="none" stroke="#63b8ff" d="M1383.68,-199.96C1389,-191 1394.92,-181.03 1399.59,-173.16"/>
<polygon fill="#63b8ff" stroke="#63b8ff" points="1380.53,-198.41 1378.43,-208.8 1386.55,-201.98 1380.53,-198.41"/>
</a>
</g>
</g>
<!-- Node20&#45;&gt;Node7 -->
<g id="edge13_Node000020_Node000007" class="edge">
<title>Node20&#45;&gt;Node7</title>
<g id="a_edge13_Node000020_Node000007"><a xlink:title=" ">
<path fill="none" stroke="#63b8ff" d="M2034.44,-75.45C2023.66,-65.32 2009.51,-52.03 1997.95,-41.17"/>
<polygon fill="#63b8ff" stroke="#63b8ff" points="2032.24,-78.18 2041.93,-82.48 2037.03,-73.08 2032.24,-78.18"/>
</a>
</g>
</g>
<!-- Node20&#45;&gt;Node10 -->
<g id="edge14_Node000020_Node000010" class="edge">
<title>Node20&#45;&gt;Node10</title>
<g id="a_edge14_Node000020_Node000010"><a xlink:title=" ">
<path fill="none" stroke="#63b8ff" d="M2000.91,-85.4C1923.29,-76.61 1769.33,-58.76 1639,-41 1626.54,-39.3 1613.43,-37.43 1600.52,-35.53"/>
<polygon fill="#63b8ff" stroke="#63b8ff" points="2000.56,-88.88 2010.89,-86.53 2001.34,-81.93 2000.56,-88.88"/>
</a>
</g>
</g>
<!-- Node20&#45;&gt;Node12 -->
<g id="edge15_Node000020_Node000012" class="edge">
<title>Node20&#45;&gt;Node12</title>
<g id="a_edge15_Node000020_Node000012"><a xlink:title=" ">
<path fill="none" stroke="#63b8ff" d="M2000.76,-80.35C1946.77,-68.91 1860.35,-50.6 1798.24,-37.44"/>
<polygon fill="#63b8ff" stroke="#63b8ff" points="2000.27,-83.83 2010.78,-82.48 2001.72,-76.98 2000.27,-83.83"/>
</a>
</g>
</g>
<!-- Node21 -->
<g id="Node000021" class="node">
<title>Node21</title>
<g id="a_Node000021"><a xlink:href="../../d7/d68/blend_8cpp.html" target="_top" xlink:title=" ">
<polygon fill="white" stroke="#666666" points="2170,-30 2078,-30 2078,-11 2170,-11 2170,-30"/>
<text text-anchor="middle" x="2124" y="-18" font-family="Helvetica,sans-Serif" font-size="10.00">fx/2d/blend.cpp</text>
</a>
</g>
</g>
<!-- Node20&#45;&gt;Node21 -->
<g id="edge16_Node000020_Node000021" class="edge">
<title>Node20&#45;&gt;Node21</title>
<g id="a_edge16_Node000020_Node000021"><a xlink:title=" ">
<path fill="none" stroke="#63b8ff" d="M2067.37,-75.42C2082.07,-61.42 2103.12,-41.38 2114.98,-30.09"/>
<polygon fill="#63b8ff" stroke="#63b8ff" points="2064.78,-73.05 2059.95,-82.48 2069.61,-78.12 2064.78,-73.05"/>
</a>
</g>
</g>
<!-- Node22&#45;&gt;Node23 -->
<g id="edge19_Node000022_Node000023" class="edge">
<title>Node22&#45;&gt;Node23</title>
<g id="a_edge19_Node000022_Node000023"><a xlink:title=" ">
<path fill="none" stroke="#63b8ff" d="M115.49,-212.1C169.26,-199.49 256.66,-179.01 305.68,-167.51"/>
<polygon fill="#63b8ff" stroke="#63b8ff" points="114.47,-208.74 105.53,-214.44 116.07,-215.56 114.47,-208.74"/>
</a>
</g>
</g>
<!-- Node23&#45;&gt;Node10 -->
<g id="edge20_Node000023_Node000010" class="edge">
<title>Node23&#45;&gt;Node10</title>
<g id="a_edge20_Node000023_Node000010"><a xlink:title=" ">
<path fill="none" stroke="#63b8ff" d="M395.09,-150.73C509.96,-137.18 790.15,-104.19 1025,-77 1157.18,-61.7 1309.65,-44.29 1407.8,-33.11"/>
<polygon fill="#63b8ff" stroke="#63b8ff" points="394.67,-147.26 385.15,-151.91 395.49,-154.21 394.67,-147.26"/>
</a>
</g>
</g>
<!-- Node27&#45;&gt;Node22 -->
<g id="edge22_Node000027_Node000022" class="edge">
<title>Node27&#45;&gt;Node22</title>
<g id="a_edge22_Node000027_Node000022"><a xlink:title=" ">
<path fill="none" stroke="#63b8ff" d="M195.45,-271.52C164.71,-260.21 119.36,-243.53 92.15,-233.52"/>
<polygon fill="#63b8ff" stroke="#63b8ff" points="194.29,-274.83 204.88,-274.99 196.7,-268.26 194.29,-274.83"/>
</a>
</g>
</g>
<!-- Node27&#45;&gt;Node23 -->
<g id="edge24_Node000027_Node000023" class="edge">
<title>Node27&#45;&gt;Node23</title>
<g id="a_edge24_Node000027_Node000023"><a xlink:title=" ">
<path fill="none" stroke="#63b8ff" d="M208.4,-268.02C191.18,-252.52 170.91,-228.27 185,-209 210.83,-173.67 261.86,-162.71 298.75,-159.61"/>
<polygon fill="#63b8ff" stroke="#63b8ff" points="206.55,-271.05 216.44,-274.87 211.09,-265.72 206.55,-271.05"/>
</a>
</g>
</g>
<!-- Node28 -->
<g id="Node000028" class="node">
<title>Node28</title>
<g id="a_Node000028"><a xlink:href="../../dc/dcf/fx__layer_8cpp.html" target="_top" xlink:title=" ">
<polygon fill="white" stroke="#666666" points="313.5,-233.5 194.5,-233.5 194.5,-214.5 313.5,-214.5 313.5,-233.5"/>
<text text-anchor="middle" x="254" y="-221.5" font-family="Helvetica,sans-Serif" font-size="10.00">fx/detail/fx_layer.cpp</text>
</a>
</g>
</g>
<!-- Node27&#45;&gt;Node28 -->
<g id="edge23_Node000027_Node000028" class="edge">
<title>Node27&#45;&gt;Node28</title>
<g id="a_edge23_Node000027_Node000028"><a xlink:title=" ">
<path fill="none" stroke="#63b8ff" d="M235.93,-265.65C240.65,-255.04 246.42,-242.06 250.15,-233.67"/>
<polygon fill="#63b8ff" stroke="#63b8ff" points="232.7,-264.31 231.84,-274.87 239.1,-267.15 232.7,-264.31"/>
</a>
</g>
</g>
<!-- Node30 -->
<g id="Node000030" class="node">
<title>Node30</title>
<g id="a_Node000030"><a xlink:href="../../db/d31/cylon_8h.html" target="_top" xlink:title=" ">
<polygon fill="#fff0f0" stroke="red" points="572,-233.5 492,-233.5 492,-214.5 572,-214.5 572,-233.5"/>
<text text-anchor="middle" x="532" y="-221.5" font-family="Helvetica,sans-Serif" font-size="10.00">fx/1d/cylon.h</text>
</a>
</g>
</g>
<!-- Node29&#45;&gt;Node30 -->
<g id="edge26_Node000029_Node000030" class="edge">
<title>Node29&#45;&gt;Node30</title>
<g id="a_edge26_Node000029_Node000030"><a xlink:title=" ">
<path fill="none" stroke="#63b8ff" d="M791.62,-277.65C741.8,-270.13 654.67,-256.01 581,-239 574.19,-237.43 566.92,-235.49 560.11,-233.57"/>
<polygon fill="#63b8ff" stroke="#63b8ff" points="791.25,-281.13 801.66,-279.15 792.29,-274.21 791.25,-281.13"/>
</a>
</g>
</g>
<!-- Node32 -->
<g id="Node000032" class="node">
<title>Node32</title>
<g id="a_Node000032"><a xlink:href="../../d4/dc0/demoreel100_8h.html" target="_top" xlink:title=" ">
<polygon fill="#fff0f0" stroke="red" points="708,-233.5 590,-233.5 590,-214.5 708,-214.5 708,-233.5"/>
<text text-anchor="middle" x="649" y="-221.5" font-family="Helvetica,sans-Serif" font-size="10.00">fx/1d/demoreel100.h</text>
</a>
</g>
</g>
<!-- Node29&#45;&gt;Node32 -->
<g id="edge27_Node000029_Node000032" class="edge">
<title>Node29&#45;&gt;Node32</title>
<g id="a_edge27_Node000029_Node000032"><a xlink:title=" ">
<path fill="none" stroke="#63b8ff" d="M795.45,-271.82C760.06,-260.5 707.23,-243.62 675.64,-233.52"/>
<polygon fill="#63b8ff" stroke="#63b8ff" points="794.8,-275.28 805.39,-274.99 796.93,-268.61 794.8,-275.28"/>
</a>
</g>
</g>
<!-- Node34 -->
<g id="Node000034" class="node">
<title>Node34</title>
<g id="a_Node000034"><a xlink:href="../../d5/dcb/fire2012_8h.html" target="_top" xlink:title=" ">
<polygon fill="#fff0f0" stroke="red" points="819.5,-233.5 726.5,-233.5 726.5,-214.5 819.5,-214.5 819.5,-233.5"/>
<text text-anchor="middle" x="773" y="-221.5" font-family="Helvetica,sans-Serif" font-size="10.00">fx/1d/fire2012.h</text>
</a>
</g>
</g>
<!-- Node29&#45;&gt;Node34 -->
<g id="edge28_Node000029_Node000034" class="edge">
<title>Node29&#45;&gt;Node34</title>
<g id="a_edge28_Node000029_Node000034"><a xlink:title=" ">
<path fill="none" stroke="#63b8ff" d="M815.95,-267.59C804.94,-256.67 790.73,-242.58 781.74,-233.67"/>
<polygon fill="#63b8ff" stroke="#63b8ff" points="813.73,-270.31 823.29,-274.87 818.66,-265.34 813.73,-270.31"/>
</a>
</g>
</g>
<!-- Node36 -->
<g id="Node000036" class="node">
<title>Node36</title>
<g id="a_Node000036"><a xlink:href="../../d9/d2c/noisewave_8h.html" target="_top" xlink:title=" ">
<polygon fill="white" stroke="#666666" points="944,-233.5 838,-233.5 838,-214.5 944,-214.5 944,-233.5"/>
<text text-anchor="middle" x="891" y="-221.5" font-family="Helvetica,sans-Serif" font-size="10.00">fx/1d/noisewave.h</text>
</a>
</g>
</g>
<!-- Node29&#45;&gt;Node36 -->
<g id="edge29_Node000029_Node000036" class="edge">
<title>Node29&#45;&gt;Node36</title>
<g id="a_edge29_Node000029_Node000036"><a xlink:title=" ">
<path fill="none" stroke="#63b8ff" d="M848.05,-267.59C859.06,-256.67 873.27,-242.58 882.26,-233.67"/>
<polygon fill="#63b8ff" stroke="#63b8ff" points="845.34,-265.34 840.71,-274.87 850.27,-270.31 845.34,-265.34"/>
</a>
</g>
</g>
<!-- Node37 -->
<g id="Node000037" class="node">
<title>Node37</title>
<g id="a_Node000037"><a xlink:href="../../dc/d70/pacifica_8h.html" target="_top" xlink:title=" ">
<polygon fill="#fff0f0" stroke="red" points="1053.5,-233.5 962.5,-233.5 962.5,-214.5 1053.5,-214.5 1053.5,-233.5"/>
<text text-anchor="middle" x="1008" y="-221.5" font-family="Helvetica,sans-Serif" font-size="10.00">fx/1d/pacifica.h</text>
</a>
</g>
</g>
<!-- Node29&#45;&gt;Node37 -->
<g id="edge30_Node000029_Node000037" class="edge">
<title>Node29&#45;&gt;Node37</title>
<g id="a_edge30_Node000029_Node000037"><a xlink:title=" ">
<path fill="none" stroke="#63b8ff" d="M867.15,-271.82C901.19,-260.5 951.99,-243.62 982.38,-233.52"/>
<polygon fill="#63b8ff" stroke="#63b8ff" points="865.98,-268.52 857.59,-274.99 868.19,-275.16 865.98,-268.52"/>
</a>
</g>
</g>
<!-- Node39 -->
<g id="Node000039" class="node">
<title>Node39</title>
<g id="a_Node000039"><a xlink:href="../../d7/dc4/pride2015_8h.html" target="_top" xlink:title=" ">
<polygon fill="#fff0f0" stroke="red" points="1174,-233.5 1072,-233.5 1072,-214.5 1174,-214.5 1174,-233.5"/>
<text text-anchor="middle" x="1123" y="-221.5" font-family="Helvetica,sans-Serif" font-size="10.00">fx/1d/pride2015.h</text>
</a>
</g>
</g>
<!-- Node29&#45;&gt;Node39 -->
<g id="edge31_Node000029_Node000039" class="edge">
<title>Node29&#45;&gt;Node39</title>
<g id="a_edge31_Node000029_Node000039"><a xlink:title=" ">
<path fill="none" stroke="#63b8ff" d="M872.07,-276.18C918.03,-267.68 995.6,-253.04 1062,-239 1069.97,-237.31 1078.51,-235.41 1086.6,-233.57"/>
<polygon fill="#63b8ff" stroke="#63b8ff" points="871.41,-272.74 862.21,-278 872.68,-279.63 871.41,-272.74"/>
</a>
</g>
</g>
<!-- Node41 -->
<g id="Node000041" class="node">
<title>Node41</title>
<g id="a_Node000041"><a xlink:href="../../d1/df6/twinklefox_8h.html" target="_top" xlink:title=" ">
<polygon fill="#fff0f0" stroke="red" points="1297.5,-233.5 1192.5,-233.5 1192.5,-214.5 1297.5,-214.5 1297.5,-233.5"/>
<text text-anchor="middle" x="1245" y="-221.5" font-family="Helvetica,sans-Serif" font-size="10.00">fx/1d/twinklefox.h</text>
</a>
</g>
</g>
<!-- Node29&#45;&gt;Node41 -->
<g id="edge32_Node000029_Node000041" class="edge">
<title>Node29&#45;&gt;Node41</title>
<g id="a_edge32_Node000029_Node000041"><a xlink:title=" ">
<path fill="none" stroke="#63b8ff" d="M872.5,-279.64C938.03,-273.11 1071.25,-258.65 1183,-239 1191.8,-237.45 1201.24,-235.48 1210.03,-233.51"/>
<polygon fill="#63b8ff" stroke="#63b8ff" points="871.8,-276.19 862.2,-280.66 872.49,-283.16 871.8,-276.19"/>
</a>
</g>
</g>
<!-- Node43 -->
<g id="Node000043" class="node">
<title>Node43</title>
<g id="a_Node000043"><a xlink:href="../../dd/d78/video_8h.html" target="_top" xlink:title=" ">
<polygon fill="#fff0f0" stroke="red" points="435.5,-233.5 370.5,-233.5 370.5,-214.5 435.5,-214.5 435.5,-233.5"/>
<text text-anchor="middle" x="403" y="-221.5" font-family="Helvetica,sans-Serif" font-size="10.00">fx/video.h</text>
</a>
</g>
</g>
<!-- Node29&#45;&gt;Node43 -->
<g id="edge33_Node000029_Node000043" class="edge">
<title>Node29&#45;&gt;Node43</title>
<g id="a_edge33_Node000029_Node000043"><a xlink:title=" ">
<path fill="none" stroke="#63b8ff" d="M791.34,-278.94C726.15,-271.48 594.27,-255.82 483,-239 467.39,-236.64 450.12,-233.66 435.64,-231.07"/>
<polygon fill="#63b8ff" stroke="#63b8ff" points="791.26,-282.45 801.59,-280.1 792.05,-275.49 791.26,-282.45"/>
</a>
</g>
</g>
<!-- Node43&#45;&gt;Node23 -->
<g id="edge34_Node000043_Node000023" class="edge">
<title>Node43&#45;&gt;Node23</title>
<g id="a_edge34_Node000043_Node000023"><a xlink:title=" ">
<path fill="none" stroke="#63b8ff" d="M387.73,-206.98C375.95,-194.62 360.1,-177.99 350.49,-167.91"/>
<polygon fill="#63b8ff" stroke="#63b8ff" points="385.34,-209.54 394.77,-214.37 390.41,-204.72 385.34,-209.54"/>
</a>
</g>
</g>
<!-- Node53&#45;&gt;Node3 -->
<g id="edge38_Node000053_Node000003" class="edge">
<title>Node53&#45;&gt;Node3</title>
<g id="a_edge38_Node000053_Node000003"><a xlink:title=" ">
<path fill="none" stroke="#63b8ff" d="M1724.97,-278.57C1675.2,-271.94 1587.92,-258.67 1515,-239 1477.53,-228.89 1469.72,-221.56 1433,-209 1388.2,-193.68 1335.71,-177.27 1304.2,-167.58"/>
<polygon fill="#63b8ff" stroke="#63b8ff" points="1724.63,-282.05 1735,-279.88 1725.54,-275.11 1724.63,-282.05"/>
</a>
</g>
</g>
<!-- Node53&#45;&gt;Node6 -->
<g id="edge51_Node000053_Node000006" class="edge">
<title>Node53&#45;&gt;Node6</title>
<g id="a_edge51_Node000053_Node000006"><a xlink:title=" ">
<path fill="none" stroke="#63b8ff" d="M1724.76,-279.15C1677.6,-273.12 1603.77,-260.47 1587,-239 1554.4,-197.24 1576.36,-126.35 1585.53,-101.73"/>
<polygon fill="#63b8ff" stroke="#63b8ff" points="1724.61,-282.65 1734.96,-280.4 1725.46,-275.71 1724.61,-282.65"/>
</a>
</g>
</g>
<!-- Node53&#45;&gt;Node7 -->
<g id="edge36_Node000053_Node000007" class="edge">
<title>Node53&#45;&gt;Node7</title>
<g id="a_edge36_Node000053_Node000007"><a xlink:title=" ">
<path fill="none" stroke="#63b8ff" d="M1805.05,-282.18C1905.16,-278.49 2160.14,-266.45 2186,-239 2215.27,-207.93 2208.19,-181.13 2189,-143 2162.3,-89.95 2101.4,-58.59 2051.69,-41.06"/>
<polygon fill="#63b8ff" stroke="#63b8ff" points="1804.88,-278.69 1795.02,-282.54 1805.14,-285.68 1804.88,-278.69"/>
</a>
</g>
</g>
<!-- Node53&#45;&gt;Node12 -->
<g id="edge37_Node000053_Node000012" class="edge">
<title>Node53&#45;&gt;Node12</title>
<g id="a_edge37_Node000053_Node000012"><a xlink:title=" ">
<path fill="none" stroke="#63b8ff" d="M1753.97,-266.05C1749.48,-258.1 1744.72,-248.38 1742,-239 1721.53,-168.37 1721.17,-79.88 1722.2,-41.16"/>
<polygon fill="#63b8ff" stroke="#63b8ff" points="1751.02,-267.94 1759.15,-274.73 1757.03,-264.35 1751.02,-267.94"/>
</a>
</g>
</g>
<!-- Node53&#45;&gt;Node18 -->
<g id="edge39_Node000053_Node000018" class="edge">
<title>Node53&#45;&gt;Node18</title>
<g id="a_edge39_Node000053_Node000018"><a xlink:title=" ">
<path fill="none" stroke="#63b8ff" d="M1725.07,-277.59C1653.94,-267.05 1505.2,-245.02 1424.65,-233.09"/>
<polygon fill="#63b8ff" stroke="#63b8ff" points="1724.58,-281.05 1734.99,-279.05 1725.61,-274.13 1724.58,-281.05"/>
</a>
</g>
</g>
<!-- Node53&#45;&gt;Node20 -->
<g id="edge42_Node000053_Node000020" class="edge">
<title>Node53&#45;&gt;Node20</title>
<g id="a_edge42_Node000053_Node000020"><a xlink:title=" ">
<path fill="none" stroke="#63b8ff" d="M1805.43,-281.86C1901.72,-277.54 2138.45,-264.44 2163,-239 2192.67,-208.25 2191.54,-178.66 2168,-143 2151.02,-117.28 2117.81,-104.75 2091.09,-98.66"/>
<polygon fill="#63b8ff" stroke="#63b8ff" points="1805.05,-278.37 1795.21,-282.3 1805.35,-285.36 1805.05,-278.37"/>
</a>
</g>
</g>
<!-- Node54 -->
<g id="Node000054" class="node">
<title>Node54</title>
<g id="a_Node000054"><a xlink:href="../../d3/dc3/animartrix_8hpp.html" target="_top" xlink:title=" ">
<polygon fill="#fff0f0" stroke="red" points="1531,-101.5 1415,-101.5 1415,-82.5 1531,-82.5 1531,-101.5"/>
<text text-anchor="middle" x="1473" y="-89.5" font-family="Helvetica,sans-Serif" font-size="10.00">fx/2d/animartrix.hpp</text>
</a>
</g>
</g>
<!-- Node53&#45;&gt;Node54 -->
<g id="edge40_Node000053_Node000054" class="edge">
<title>Node53&#45;&gt;Node54</title>
<g id="a_edge40_Node000053_Node000054"><a xlink:title=" ">
<path fill="none" stroke="#63b8ff" d="M1724.47,-282.97C1682.19,-280.55 1615.66,-271.35 1569,-239 1516.4,-202.53 1485.29,-127 1475.98,-101.57"/>
<polygon fill="#63b8ff" stroke="#63b8ff" points="1724.52,-286.47 1734.68,-283.44 1724.85,-279.48 1724.52,-286.47"/>
</a>
</g>
</g>
<!-- Node55 -->
<g id="Node000055" class="node">
<title>Node55</title>
<g id="a_Node000055"><a xlink:href="../../d4/dd9/src_2fx_22d_2luminova_8h.html" target="_top" xlink:title=" ">
<polygon fill="#fff0f0" stroke="red" points="1694.5,-233.5 1595.5,-233.5 1595.5,-214.5 1694.5,-214.5 1694.5,-233.5"/>
<text text-anchor="middle" x="1645" y="-221.5" font-family="Helvetica,sans-Serif" font-size="10.00">fx/2d/luminova.h</text>
</a>
</g>
</g>
<!-- Node53&#45;&gt;Node55 -->
<g id="edge43_Node000053_Node000055" class="edge">
<title>Node53&#45;&gt;Node55</title>
<g id="a_edge43_Node000053_Node000055"><a xlink:title=" ">
<path fill="none" stroke="#63b8ff" d="M1738.3,-270.48C1715.17,-259.21 1682.39,-243.23 1662.47,-233.52"/>
<polygon fill="#63b8ff" stroke="#63b8ff" points="1737.03,-273.76 1747.55,-274.99 1740.1,-267.47 1737.03,-273.76"/>
</a>
</g>
</g>
<!-- Node57 -->
<g id="Node000057" class="node">
<title>Node57</title>
<g id="a_Node000057"><a xlink:href="../../d6/d66/noisepalette_8cpp.html" target="_top" xlink:title=" ">
<polygon fill="white" stroke="#666666" points="1963.5,-167.5 1838.5,-167.5 1838.5,-148.5 1963.5,-148.5 1963.5,-167.5"/>
<text text-anchor="middle" x="1901" y="-155.5" font-family="Helvetica,sans-Serif" font-size="10.00">fx/2d/noisepalette.cpp</text>
</a>
</g>
</g>
<!-- Node53&#45;&gt;Node57 -->
<g id="edge44_Node000053_Node000057" class="edge">
<title>Node53&#45;&gt;Node57</title>
<g id="a_edge44_Node000053_Node000057"><a xlink:title=" ">
<path fill="none" stroke="#63b8ff" d="M1805.4,-281.63C1864.62,-277.94 1970.55,-267.45 1994,-239 2018.72,-209.01 1960.93,-181.12 1925.71,-167.58"/>
<polygon fill="#63b8ff" stroke="#63b8ff" points="1805.04,-278.14 1795.26,-282.22 1805.45,-285.13 1805.04,-278.14"/>
</a>
</g>
</g>
<!-- Node58 -->
<g id="Node000058" class="node">
<title>Node58</title>
<g id="a_Node000058"><a xlink:href="../../d6/dc7/noisepalette_8h.html" target="_top" xlink:title="Demonstrates how to mix noise generation with color palettes on a 2D LED matrix.">
<polygon fill="#fff0f0" stroke="red" points="1865,-233.5 1751,-233.5 1751,-214.5 1865,-214.5 1865,-233.5"/>
<text text-anchor="middle" x="1808" y="-221.5" font-family="Helvetica,sans-Serif" font-size="10.00">fx/2d/noisepalette.h</text>
</a>
</g>
</g>
<!-- Node53&#45;&gt;Node58 -->
<g id="edge45_Node000053_Node000058" class="edge">
<title>Node53&#45;&gt;Node58</title>
<g id="a_edge45_Node000053_Node000058"><a xlink:title=" ">
<path fill="none" stroke="#63b8ff" d="M1777.4,-266.63C1785.32,-255.85 1795.27,-242.32 1801.63,-233.67"/>
<polygon fill="#63b8ff" stroke="#63b8ff" points="1774.45,-264.74 1771.34,-274.87 1780.09,-268.88 1774.45,-264.74"/>
</a>
</g>
</g>
<!-- Node59 -->
<g id="Node000059" class="node">
<title>Node59</title>
<g id="a_Node000059"><a xlink:href="../../d3/db8/redsquare_8h.html" target="_top" xlink:title=" ">
<polygon fill="white" stroke="#666666" points="1985,-233.5 1883,-233.5 1883,-214.5 1985,-214.5 1985,-233.5"/>
<text text-anchor="middle" x="1934" y="-221.5" font-family="Helvetica,sans-Serif" font-size="10.00">fx/2d/redsquare.h</text>
</a>
</g>
</g>
<!-- Node53&#45;&gt;Node59 -->
<g id="edge47_Node000053_Node000059" class="edge">
<title>Node53&#45;&gt;Node59</title>
<g id="a_edge47_Node000053_Node000059"><a xlink:title=" ">
<path fill="none" stroke="#63b8ff" d="M1799.17,-271.67C1831.86,-260.36 1880.35,-243.57 1909.4,-233.52"/>
<polygon fill="#63b8ff" stroke="#63b8ff" points="1797.88,-268.41 1789.57,-274.99 1800.17,-275.03 1797.88,-268.41"/>
</a>
</g>
</g>
<!-- Node60 -->
<g id="Node000060" class="node">
<title>Node60</title>
<g id="a_Node000060"><a xlink:href="../../dc/d8c/scale__up_8cpp.html" target="_top" xlink:title=" ">
<polygon fill="white" stroke="#666666" points="2158.5,-167.5 2051.5,-167.5 2051.5,-148.5 2158.5,-148.5 2158.5,-167.5"/>
<text text-anchor="middle" x="2105" y="-155.5" font-family="Helvetica,sans-Serif" font-size="10.00">fx/2d/scale_up.cpp</text>
</a>
</g>
</g>
<!-- Node53&#45;&gt;Node60 -->
<g id="edge48_Node000053_Node000060" class="edge">
<title>Node53&#45;&gt;Node60</title>
<g id="a_edge48_Node000053_Node000060"><a xlink:title=" ">
<path fill="none" stroke="#63b8ff" d="M1805.43,-281.76C1898.89,-277.33 2123.62,-264.15 2146,-239 2165.82,-216.73 2133.24,-183.16 2115.42,-167.55"/>
<polygon fill="#63b8ff" stroke="#63b8ff" points="1805.06,-278.28 1795.23,-282.24 1805.38,-285.27 1805.06,-278.28"/>
</a>
</g>
</g>
<!-- Node61 -->
<g id="Node000061" class="node">
<title>Node61</title>
<g id="a_Node000061"><a xlink:href="../../d2/d74/scale__up_8h.html" target="_top" xlink:title="Expands a grid using bilinear interpolation and scaling up.">
<polygon fill="white" stroke="#666666" points="2137,-233.5 2041,-233.5 2041,-214.5 2137,-214.5 2137,-233.5"/>
<text text-anchor="middle" x="2089" y="-221.5" font-family="Helvetica,sans-Serif" font-size="10.00">fx/2d/scale_up.h</text>
</a>
</g>
</g>
<!-- Node53&#45;&gt;Node61 -->
<g id="edge49_Node000053_Node000061" class="edge">
<title>Node53&#45;&gt;Node61</title>
<g id="a_edge49_Node000053_Node000061"><a xlink:title=" ">
<path fill="none" stroke="#63b8ff" d="M1805.42,-277.33C1856.99,-269.29 1948.87,-254.44 2027,-239 2035.34,-237.35 2044.27,-235.43 2052.68,-233.55"/>
<polygon fill="#63b8ff" stroke="#63b8ff" points="1804.7,-273.9 1795.35,-278.89 1805.77,-280.81 1804.7,-273.9"/>
</a>
</g>
</g>
<!-- Node54&#45;&gt;Node10 -->
<g id="edge41_Node000054_Node000010" class="edge">
<title>Node54&#45;&gt;Node10</title>
<g id="a_edge41_Node000054_Node000010"><a xlink:title=" ">
<path fill="none" stroke="#63b8ff" d="M1482.24,-73.64C1488.49,-61.91 1496.63,-46.62 1502.47,-35.64"/>
<polygon fill="#63b8ff" stroke="#63b8ff" points="1479.15,-72.01 1477.54,-82.48 1485.33,-75.3 1479.15,-72.01"/>
</a>
</g>
</g>
<!-- Node58&#45;&gt;Node57 -->
<g id="edge46_Node000058_Node000057" class="edge">
<title>Node58&#45;&gt;Node57</title>
<g id="a_edge46_Node000058_Node000057"><a xlink:title=" ">
<path fill="none" stroke="#63b8ff" d="M1828.81,-208.68C1847.08,-196.11 1873.06,-178.23 1888.36,-167.7"/>
<polygon fill="#63b8ff" stroke="#63b8ff" points="1826.8,-205.82 1820.54,-214.37 1830.76,-211.58 1826.8,-205.82"/>
</a>
</g>
</g>
<!-- Node61&#45;&gt;Node60 -->
<g id="edge50_Node000061_Node000060" class="edge">
<title>Node61&#45;&gt;Node60</title>
<g id="a_edge50_Node000061_Node000060"><a xlink:title=" ">
<path fill="none" stroke="#63b8ff" d="M2093.64,-204.45C2096.64,-192.43 2100.42,-177.32 2102.77,-167.91"/>
<polygon fill="#63b8ff" stroke="#63b8ff" points="2090.19,-203.82 2091.16,-214.37 2096.98,-205.52 2090.19,-203.82"/>
</a>
</g>
</g>
</g>
</svg>

<g id="navigator" transform="translate(0 0)" fill="#404254">
  <rect fill="#f2f5e9" fill-opacity="0.5" stroke="#606060" stroke-width=".5" x="0" y="0" width="60" height="60"/>
  <use id="zoomplus" xlink:href="#zoomPlus" x="17" y="9" onmousedown="handleZoom(evt,'in')"/>
  <use id="zoomminus" xlink:href="#zoomMin" x="42" y="9" onmousedown="handleZoom(evt,'out')"/>
  <use id="reset" xlink:href="#resetDef" x="30" y="36" onmousedown="handleReset()"/>
   <use id="arrowup" xlink:href="#arrowUp" x="0" y="0" onmousedown="handlePan(0,-1)"/>
  <use id="arrowright" xlink:href="#arrowRight" x="0" y="0" onmousedown="handlePan(1,0)"/>
  <use id="arrowdown" xlink:href="#arrowDown" x="0" y="0" onmousedown="handlePan(0,1)"/>
  <use id="arrowleft" xlink:href="#arrowLeft" x="0" y="0" onmousedown="handlePan(-1,0)"/>
</g>
<svg viewBox="0 0 15 15" width="100%" height="30px" preserveAspectRatio="xMaxYMin meet">
 <g id="arrow_out" transform="scale(0.3 0.3)">
  <a xlink:href="transition_8h__dep__incl_org.svg" target="_base">
   <rect id="button" ry="5" rx="5" y="6" x="6" height="38" width="38"
        fill="#f2f5e9" fill-opacity="0.5" stroke="#606060" stroke-width="1.0"/>
   <path id="arrow"
     d="M 11.500037,31.436501 C 11.940474,20.09759 22.043105,11.32322 32.158766,21.979434 L 37.068811,17.246167 C 37.068811,17.246167 37.088388,32 37.088388,32 L 22.160133,31.978069 C 22.160133,31.978069 26.997745,27.140456 26.997745,27.140456 C 18.528582,18.264221 13.291696,25.230495 11.500037,31.436501 z"
     style="fill:#404040;"/>
  </a>
 </g>
</svg>

<style type='text/css'>
<![CDATA[
[data-mouse-over-selected='false'] { opacity: 0.7; }
[data-mouse-over-selected='true']  { opacity: 1.0; }
]]>
</style>
<script type="application/ecmascript"><![CDATA[
document.addEventListener('DOMContentLoaded', (event) => {
  highlightEdges();
  highlightAdjacentNodes();
});
]]></script>
</svg>
