<?xml version="1.0" encoding="UTF-8" standalone="no"?>
<!DOCTYPE svg PUBLIC "-//W3C//DTD SVG 1.1//EN"
 "http://www.w3.org/Graphics/SVG/1.1/DTD/svg11.dtd">
<!-- Generated by graphviz version 2.43.0 (0)
 -->
<!-- Title: fl::response::json Pages: 1 -->
<svg width="741pt" height="138pt"
 viewBox="0.00 0.00 741.00 138.00" xmlns="http://www.w3.org/2000/svg" xmlns:xlink="http://www.w3.org/1999/xlink">
<g id="graph0" class="graph" transform="scale(1 1) rotate(0) translate(4 134)">
<title>fl::response::json</title>
<!-- Node1 -->
<g id="Node000001" class="node">
<title>Node1</title>
<g id="a_Node000001"><a xlink:title="Response body parsed as JSON (JavaScript&#45;like API)">
<polygon fill="#999999" stroke="#666666" points="99,-74 0,-74 0,-55 99,-55 99,-74"/>
<text text-anchor="middle" x="49.5" y="-62" font-family="Helvetica,sans-Serif" font-size="10.00">fl::response::json</text>
</a>
</g>
</g>
<!-- Node2 -->
<g id="Node000002" class="node">
<title>Node2</title>
<g id="a_Node000002"><a xlink:href="../../d5/d4b/classfl_1_1response_af79b281c20f6d54c717321b329787401.html#af79b281c20f6d54c717321b329787401" target="_top" xlink:title="Check if response appears to contain JSON content.">
<polygon fill="white" stroke="#666666" points="248,-96 135,-96 135,-77 248,-77 248,-96"/>
<text text-anchor="middle" x="191.5" y="-84" font-family="Helvetica,sans-Serif" font-size="10.00">fl::response::is_json</text>
</a>
</g>
</g>
<!-- Node1&#45;&gt;Node2 -->
<g id="edge1_Node000001_Node000002" class="edge">
<title>Node1&#45;&gt;Node2</title>
<g id="a_edge1_Node000001_Node000002"><a xlink:title=" ">
<path fill="none" stroke="#63b8ff" d="M99.07,-72.13C107.36,-73.44 116.09,-74.81 124.74,-76.17"/>
<polygon fill="#63b8ff" stroke="#63b8ff" points="124.39,-79.65 134.81,-77.75 125.48,-72.74 124.39,-79.65"/>
</a>
</g>
</g>
<!-- Node8 -->
<g id="Node000008" class="node">
<title>Node8</title>
<g id="a_Node000008"><a xlink:href="../../d5/d4b/classfl_1_1response_a913de93f1614c93e29ae0c1b3219a0b1.html#a913de93f1614c93e29ae0c1b3219a0b1" target="_top" xlink:title="Parse JSON from response body with error handling.">
<polygon fill="white" stroke="#666666" points="244.5,-58.5 138.5,-58.5 138.5,-28.5 244.5,-28.5 244.5,-58.5"/>
<text text-anchor="start" x="146.5" y="-46.5" font-family="Helvetica,sans-Serif" font-size="10.00">fl::response::parse</text>
<text text-anchor="middle" x="191.5" y="-35.5" font-family="Helvetica,sans-Serif" font-size="10.00">_json_body</text>
</a>
</g>
</g>
<!-- Node1&#45;&gt;Node8 -->
<g id="edge6_Node000001_Node000008" class="edge">
<title>Node1&#45;&gt;Node8</title>
<g id="a_edge6_Node000001_Node000008"><a xlink:title=" ">
<path fill="none" stroke="#63b8ff" d="M99.07,-57.21C108.45,-55.81 118.4,-54.32 128.14,-52.85"/>
<polygon fill="#63b8ff" stroke="#63b8ff" points="128.82,-56.29 138.19,-51.35 127.79,-49.37 128.82,-56.29"/>
</a>
</g>
</g>
<!-- Node3 -->
<g id="Node000003" class="node">
<title>Node3</title>
<g id="a_Node000003"><a xlink:href="../../dc/d96/classfl_1_1_str_n_a3d66ea4272adeb310d727edb78ceac91.html#a3d66ea4272adeb310d727edb78ceac91" target="_top" xlink:title=" ">
<polygon fill="white" stroke="#666666" points="588,-130 514,-130 514,-111 588,-111 588,-130"/>
<text text-anchor="middle" x="551" y="-118" font-family="Helvetica,sans-Serif" font-size="10.00">fl::StrN::find</text>
</a>
</g>
</g>
<!-- Node2&#45;&gt;Node3 -->
<g id="edge2_Node000002_Node000003" class="edge">
<title>Node2&#45;&gt;Node3</title>
<g id="a_edge2_Node000002_Node000003"><a xlink:title=" ">
<path fill="none" stroke="#63b8ff" d="M241.27,-96.01C255.04,-98.43 270.07,-100.82 284,-102.5 360.68,-111.77 450.42,-116.6 503.61,-118.85"/>
<polygon fill="#63b8ff" stroke="#63b8ff" points="503.61,-122.35 513.75,-119.26 503.9,-115.35 503.61,-122.35"/>
</a>
</g>
</g>
<!-- Node5 -->
<g id="Node000005" class="node">
<title>Node5</title>
<g id="a_Node000005"><a xlink:href="../../d5/d4b/classfl_1_1response_a330eca0371b3740387f8a8ffbbf01323.html#a330eca0371b3740387f8a8ffbbf01323" target="_top" xlink:title="Get content type convenience method.">
<polygon fill="white" stroke="#666666" points="448,-93 284,-93 284,-74 448,-74 448,-93"/>
<text text-anchor="middle" x="366" y="-81" font-family="Helvetica,sans-Serif" font-size="10.00">fl::response::get_content_type</text>
</a>
</g>
</g>
<!-- Node2&#45;&gt;Node5 -->
<g id="edge4_Node000002_Node000005" class="edge">
<title>Node2&#45;&gt;Node5</title>
<g id="a_edge4_Node000002_Node000005"><a xlink:title=" ">
<path fill="none" stroke="#63b8ff" d="M248.03,-85.53C256.24,-85.39 264.88,-85.24 273.59,-85.09"/>
<polygon fill="#63b8ff" stroke="#63b8ff" points="273.89,-88.59 283.82,-84.91 273.77,-81.59 273.89,-88.59"/>
</a>
</g>
</g>
<!-- Node4 -->
<g id="Node000004" class="node">
<title>Node4</title>
<g id="a_Node000004"><a xlink:href="../../dc/d96/classfl_1_1_str_n_a67296b774f8201293edbbabbd1b642cb.html#a67296b774f8201293edbbabbd1b642cb" target="_top" xlink:title=" ">
<polygon fill="white" stroke="#666666" points="733,-74 654,-74 654,-55 733,-55 733,-74"/>
<text text-anchor="middle" x="693.5" y="-62" font-family="Helvetica,sans-Serif" font-size="10.00">fl::StrN::c_str</text>
</a>
</g>
</g>
<!-- Node3&#45;&gt;Node4 -->
<g id="edge3_Node000003_Node000004" class="edge">
<title>Node3&#45;&gt;Node4</title>
<g id="a_edge3_Node000003_Node000004"><a xlink:title=" ">
<path fill="none" stroke="#63b8ff" d="M588.06,-112.1C597.9,-109.42 608.47,-106.18 618,-102.5 634.83,-95.99 652.89,-86.84 667,-79.15"/>
<polygon fill="#63b8ff" stroke="#63b8ff" points="669.04,-82.03 676.09,-74.11 665.64,-75.91 669.04,-82.03"/>
</a>
</g>
</g>
<!-- Node6 -->
<g id="Node000006" class="node">
<title>Node6</title>
<g id="a_Node000006"><a xlink:href="../../d5/d4b/classfl_1_1response_a589fee303b366ab7853c5460832adf13.html#a589fee303b366ab7853c5460832adf13" target="_top" xlink:title="Get header value (like JavaScript response.headers.get())">
<polygon fill="#fff0f0" stroke="red" points="618,-93 484,-93 484,-74 618,-74 618,-93"/>
<text text-anchor="middle" x="551" y="-81" font-family="Helvetica,sans-Serif" font-size="10.00">fl::response::get_header</text>
</a>
</g>
</g>
<!-- Node5&#45;&gt;Node6 -->
<g id="edge5_Node000005_Node000006" class="edge">
<title>Node5&#45;&gt;Node6</title>
<g id="a_edge5_Node000005_Node000006"><a xlink:title=" ">
<path fill="none" stroke="#63b8ff" d="M448.07,-83.5C456.56,-83.5 465.18,-83.5 473.62,-83.5"/>
<polygon fill="#63b8ff" stroke="#63b8ff" points="473.81,-87 483.81,-83.5 473.81,-80 473.81,-87"/>
</a>
</g>
</g>
<!-- Node9 -->
<g id="Node000009" class="node">
<title>Node9</title>
<g id="a_Node000009"><a xlink:href="../../d4/d13/classfl_1_1_json_a2b6bdd94f6d1444281b4fec156edc3a8.html#a2b6bdd94f6d1444281b4fec156edc3a8" target="_top" xlink:title=" ">
<polygon fill="white" stroke="#666666" points="409,-56 323,-56 323,-37 409,-37 409,-56"/>
<text text-anchor="middle" x="366" y="-44" font-family="Helvetica,sans-Serif" font-size="10.00">fl::Json::is_null</text>
</a>
</g>
</g>
<!-- Node8&#45;&gt;Node9 -->
<g id="edge7_Node000008_Node000009" class="edge">
<title>Node8&#45;&gt;Node9</title>
<g id="a_edge7_Node000008_Node000009"><a xlink:title=" ">
<path fill="none" stroke="#63b8ff" d="M244.72,-44.41C266.2,-44.78 291.03,-45.21 312.53,-45.59"/>
<polygon fill="#63b8ff" stroke="#63b8ff" points="312.73,-49.09 322.78,-45.77 312.85,-42.09 312.73,-49.09"/>
</a>
</g>
</g>
<!-- Node10 -->
<g id="Node000010" class="node">
<title>Node10</title>
<g id="a_Node000010"><a xlink:href="../../d4/d13/classfl_1_1_json_acba319cd1a600f1a88beeecab57d4e7c.html#acba319cd1a600f1a88beeecab57d4e7c" target="_top" xlink:title=" ">
<polygon fill="white" stroke="#666666" points="407,-19 325,-19 325,0 407,0 407,-19"/>
<text text-anchor="middle" x="366" y="-7" font-family="Helvetica,sans-Serif" font-size="10.00">fl::Json::parse</text>
</a>
</g>
</g>
<!-- Node8&#45;&gt;Node10 -->
<g id="edge8_Node000008_Node000010" class="edge">
<title>Node8&#45;&gt;Node10</title>
<g id="a_edge8_Node000008_Node000010"><a xlink:title=" ">
<path fill="none" stroke="#63b8ff" d="M244.72,-33.21C267,-28.82 292.87,-23.72 314.91,-19.37"/>
<polygon fill="#63b8ff" stroke="#63b8ff" points="315.6,-22.8 324.73,-17.44 314.24,-15.94 315.6,-22.8"/>
</a>
</g>
</g>
<!-- Node11 -->
<g id="Node000011" class="node">
<title>Node11</title>
<g id="a_Node000011"><a xlink:href="../../d4/d13/classfl_1_1_json_a91ccda816a6cc752c1ce0379579ab2f7.html#a91ccda816a6cc752c1ce0379579ab2f7" target="_top" xlink:title=" ">
<polygon fill="white" stroke="#666666" points="588.5,-56 513.5,-56 513.5,-37 588.5,-37 588.5,-56"/>
<text text-anchor="middle" x="551" y="-44" font-family="Helvetica,sans-Serif" font-size="10.00">fl::Json::Json</text>
</a>
</g>
</g>
<!-- Node10&#45;&gt;Node11 -->
<g id="edge9_Node000010_Node000011" class="edge">
<title>Node10&#45;&gt;Node11</title>
<g id="a_edge9_Node000010_Node000011"><a xlink:title=" ">
<path fill="none" stroke="#63b8ff" d="M407.16,-17.62C435.49,-23.35 473.53,-31.04 503.23,-37.04"/>
<polygon fill="#63b8ff" stroke="#63b8ff" points="502.86,-40.54 513.35,-39.09 504.24,-33.68 502.86,-40.54"/>
</a>
</g>
</g>
<!-- Node12 -->
<g id="Node000012" class="node">
<title>Node12</title>
<g id="a_Node000012"><a xlink:href="../../da/dd6/structfl_1_1_json_value_a9015afeea1506f27937b06e8101377e7.html#a9015afeea1506f27937b06e8101377e7" target="_top" xlink:title=" ">
<polygon fill="#fff0f0" stroke="red" points="605.5,-19 496.5,-19 496.5,0 605.5,0 605.5,-19"/>
<text text-anchor="middle" x="551" y="-7" font-family="Helvetica,sans-Serif" font-size="10.00">fl::JsonValue::parse</text>
</a>
</g>
</g>
<!-- Node10&#45;&gt;Node12 -->
<g id="edge10_Node000010_Node000012" class="edge">
<title>Node10&#45;&gt;Node12</title>
<g id="a_edge10_Node000010_Node000012"><a xlink:title=" ">
<path fill="none" stroke="#63b8ff" d="M407.16,-9.5C430.29,-9.5 459.89,-9.5 486.14,-9.5"/>
<polygon fill="#63b8ff" stroke="#63b8ff" points="486.39,-13 496.39,-9.5 486.39,-6 486.39,-13"/>
</a>
</g>
</g>
<!-- Node12&#45;&gt;Node4 -->
<g id="edge11_Node000012_Node000004" class="edge">
<title>Node12&#45;&gt;Node4</title>
<g id="a_edge11_Node000012_Node000004"><a xlink:title=" ">
<path fill="none" stroke="#63b8ff" d="M589.37,-19.06C598.81,-21.8 608.87,-25.01 618,-28.5 634.24,-34.71 651.78,-43.1 665.76,-50.21"/>
<polygon fill="#63b8ff" stroke="#63b8ff" points="664.32,-53.41 674.81,-54.9 667.54,-47.19 664.32,-53.41"/>
</a>
</g>
</g>
</g>
</svg>
