<?xml version="1.0" encoding="UTF-8" standalone="no"?>
<!DOCTYPE svg PUBLIC "-//W3C//DTD SVG 1.1//EN"
 "http://www.w3.org/Graphics/SVG/1.1/DTD/svg11.dtd">
<!-- Generated by graphviz version 2.43.0 (0)
 -->
<!-- Title: fl::StrStreamHelper&lt; char &gt;::append Pages: 1 -->
<!--zoomable 81 -->

<svg id="main" version="1.1" xmlns="http://www.w3.org/2000/svg" xmlns:xlink="http://www.w3.org/1999/xlink" xml:space="preserve" onload="init(evt)">

<style type="text/css"><![CDATA[
.node, .edge {opacity: 0.7;}
.node.selected, .edge.selected {opacity: 1;}
.edge:hover path { stroke: red; }
.edge:hover polygon { stroke: red; fill: red; }
]]></style>

<defs>
  <circle id="rim" cx="0" cy="0" r="7"/>
  <circle id="rim2" cx="0" cy="0" r="3.5"/>
  <g id="zoomPlus">
    <use xlink:href="#rim" fill="#404040"><set attributeName="fill" to="#808080" begin="zoomplus.mouseover" end="zoomplus.mouseout"/></use>
    <path d="M-4,0h8M0,-4v8" fill="none" stroke="white" stroke-width="1.5" pointer-events="none"/>
  </g>
  <g id="zoomMin">
    <use xlink:href="#rim" fill="#404040"><set attributeName="fill" to="#808080" begin="zoomminus.mouseover" end="zoomminus.mouseout"/></use>
    <path d="M-4,0h8" fill="none" stroke="white" stroke-width="1.5" pointer-events="none"/>
  </g>
  <g id="arrowUp" transform="translate(30 24)">
    <use xlink:href="#rim"/>
    <path pointer-events="none" fill="none" stroke="white" stroke-width="1.5" d="M0,-3.0v7 M-2.5,-0.5L0,-3.0L2.5,-0.5"/>
  </g>
  <g id="arrowRight" transform="rotate(90) translate(36 -43)">
    <use xlink:href="#rim"/>
    <path pointer-events="none" fill="none" stroke="white" stroke-width="1.5" d="M0,-3.0v7 M-2.5,-0.5L0,-3.0L2.5,-0.5"/>
  </g>
  <g id="arrowDown" transform="rotate(180) translate(-30 -48)">
    <use xlink:href="#rim"/>
    <path pointer-events="none" fill="none" stroke="white" stroke-width="1.5" d="M0,-3.0v7 M-2.5,-0.5L0,-3.0L2.5,-0.5"/>
  </g>
  <g id="arrowLeft" transform="rotate(270) translate(-36 17)">
    <use xlink:href="#rim"/>
    <path pointer-events="none" fill="none" stroke="white" stroke-width="1.5" d="M0,-3.0v7 M-2.5,-0.5L0,-3.0L2.5,-0.5"/>
  </g>
  <g id="resetDef">
    <use xlink:href="#rim2" fill="#404040"><set attributeName="fill" to="#808080" begin="reset.mouseover" end="reset.mouseout"/></use>
  </g>
</defs>
<script type="application/ecmascript">
var viewWidth = 568;
var viewHeight = 81;
var sectionId = 'dynsection-0';
</script>
<script type="application/ecmascript" xlink:href="../../svg.min.js"/>
<svg id="graph" class="graph">
<g id="viewport">
<title>fl::StrStreamHelper&lt; char &gt;::append</title>
<!-- Node1 -->
<g id="Node000001" class="node">
<title>Node1</title>
<g id="a_Node000001"><a xlink:title=" ">
<polygon fill="#999999" stroke="#666666" points="110,-51 0,-51 0,-21 110,-21 110,-51"/>
<text text-anchor="start" x="8" y="-39" font-family="Helvetica,sans-Serif" font-size="10.00">fl::StrStreamHelper</text>
<text text-anchor="middle" x="55" y="-28" font-family="Helvetica,sans-Serif" font-size="10.00">&lt; char &gt;::append</text>
</a>
</g>
</g>
<!-- Node2 -->
<g id="Node000002" class="node">
<title>Node2</title>
<g id="a_Node000002"><a xlink:href="../../d2/d24/classfl_1_1_str_a6d0c70299b2bd0c61da99ad9cecea0f1.html#a6d0c70299b2bd0c61da99ad9cecea0f1" target="_top" xlink:title=" ">
<polygon fill="white" stroke="#666666" points="230,-45.5 146,-45.5 146,-26.5 230,-26.5 230,-45.5"/>
<text text-anchor="middle" x="188" y="-33.5" font-family="Helvetica,sans-Serif" font-size="10.00">fl::Str::append</text>
</a>
</g>
</g>
<!-- Node1&#45;&gt;Node2 -->
<g id="edge1_Node000001_Node000002" class="edge">
<title>Node1&#45;&gt;Node2</title>
<g id="a_edge1_Node000001_Node000002"><a xlink:title=" ">
<path fill="none" stroke="#63b8ff" d="M110.04,-36C118.56,-36 127.34,-36 135.79,-36"/>
<polygon fill="#63b8ff" stroke="#63b8ff" points="135.9,-39.5 145.9,-36 135.9,-32.5 135.9,-39.5"/>
</a>
</g>
</g>
<!-- Node3 -->
<g id="Node000003" class="node">
<title>Node3</title>
<g id="a_Node000003"><a xlink:href="../../d2/d24/classfl_1_1_str_add9a817220bd29c8335d04d8c466cf04.html#add9a817220bd29c8335d04d8c466cf04" target="_top" xlink:title=" ">
<polygon fill="white" stroke="#666666" points="362.5,-67.5 300.5,-67.5 300.5,-48.5 362.5,-48.5 362.5,-67.5"/>
<text text-anchor="middle" x="331.5" y="-55.5" font-family="Helvetica,sans-Serif" font-size="10.00">fl::Str::Str</text>
</a>
</g>
</g>
<!-- Node2&#45;&gt;Node3 -->
<g id="edge2_Node000002_Node000003" class="edge">
<title>Node2&#45;&gt;Node3</title>
<g id="a_edge2_Node000002_Node000003"><a xlink:title=" ">
<path fill="none" stroke="#63b8ff" d="M230.31,-42.42C249.17,-45.35 271.42,-48.81 290.16,-51.73"/>
<polygon fill="#63b8ff" stroke="#63b8ff" points="289.75,-55.21 300.17,-53.28 290.82,-48.29 289.75,-55.21"/>
</a>
</g>
</g>
<!-- Node5 -->
<g id="Node000005" class="node">
<title>Node5</title>
<g id="a_Node000005"><a xlink:href="../../dc/d96/classfl_1_1_str_n_a270fb921e74601bc45cc8513e8a075f7.html#a270fb921e74601bc45cc8513e8a075f7" target="_top" xlink:title=" ">
<polygon fill="white" stroke="#666666" points="397,-30 266,-30 266,0 397,0 397,-30"/>
<text text-anchor="start" x="274" y="-18" font-family="Helvetica,sans-Serif" font-size="10.00">fl::StrN&lt; FASTLED_STR</text>
<text text-anchor="middle" x="331.5" y="-7" font-family="Helvetica,sans-Serif" font-size="10.00">_INLINED_SIZE &gt;::write</text>
</a>
</g>
</g>
<!-- Node2&#45;&gt;Node5 -->
<g id="edge4_Node000002_Node000005" class="edge">
<title>Node2&#45;&gt;Node5</title>
<g id="a_edge4_Node000002_Node000005"><a xlink:title=" ">
<path fill="none" stroke="#63b8ff" d="M230.31,-29.87C238.43,-28.66 247.18,-27.37 256,-26.06"/>
<polygon fill="#63b8ff" stroke="#63b8ff" points="256.6,-29.51 265.97,-24.58 255.57,-22.58 256.6,-29.51"/>
</a>
</g>
</g>
<!-- Node4 -->
<g id="Node000004" class="node">
<title>Node4</title>
<g id="a_Node000004"><a xlink:href="../../dc/d96/classfl_1_1_str_n_ae1303fb18c4230406d75f3649da8711d.html#ae1303fb18c4230406d75f3649da8711d" target="_top" xlink:title=" ">
<polygon fill="white" stroke="#666666" points="560,-73 433,-73 433,-43 560,-43 560,-73"/>
<text text-anchor="start" x="441" y="-61" font-family="Helvetica,sans-Serif" font-size="10.00">fl::StrN&lt; FASTLED_STR</text>
<text text-anchor="middle" x="496.5" y="-50" font-family="Helvetica,sans-Serif" font-size="10.00">_INLINED_SIZE &gt;::StrN</text>
</a>
</g>
</g>
<!-- Node3&#45;&gt;Node4 -->
<g id="edge3_Node000003_Node000004" class="edge">
<title>Node3&#45;&gt;Node4</title>
<g id="a_edge3_Node000003_Node000004"><a xlink:title=" ">
<path fill="none" stroke="#63b8ff" d="M362.78,-58C379.71,-58 401.6,-58 422.71,-58"/>
<polygon fill="#63b8ff" stroke="#63b8ff" points="422.98,-61.5 432.98,-58 422.98,-54.5 422.98,-61.5"/>
</a>
</g>
</g>
</g>
</svg>

<g id="navigator" transform="translate(0 0)" fill="#404254">
  <rect fill="#f2f5e9" fill-opacity="0.5" stroke="#606060" stroke-width=".5" x="0" y="0" width="60" height="60"/>
  <use id="zoomplus" xlink:href="#zoomPlus" x="17" y="9" onmousedown="handleZoom(evt,'in')"/>
  <use id="zoomminus" xlink:href="#zoomMin" x="42" y="9" onmousedown="handleZoom(evt,'out')"/>
  <use id="reset" xlink:href="#resetDef" x="30" y="36" onmousedown="handleReset()"/>
   <use id="arrowup" xlink:href="#arrowUp" x="0" y="0" onmousedown="handlePan(0,-1)"/>
  <use id="arrowright" xlink:href="#arrowRight" x="0" y="0" onmousedown="handlePan(1,0)"/>
  <use id="arrowdown" xlink:href="#arrowDown" x="0" y="0" onmousedown="handlePan(0,1)"/>
  <use id="arrowleft" xlink:href="#arrowLeft" x="0" y="0" onmousedown="handlePan(-1,0)"/>
</g>
<svg viewBox="0 0 15 15" width="100%" height="30px" preserveAspectRatio="xMaxYMin meet">
 <g id="arrow_out" transform="scale(0.3 0.3)">
  <a xlink:href="structfl_1_1_str_stream_helper_3_01char_01_4_a5325c0731466e2503ea3fdb0615662ff_a5325c0731466e2503ea3fdb0615662ff_cgraph_org.svg" target="_base">
   <rect id="button" ry="5" rx="5" y="6" x="6" height="38" width="38"
        fill="#f2f5e9" fill-opacity="0.5" stroke="#606060" stroke-width="1.0"/>
   <path id="arrow"
     d="M 11.500037,31.436501 C 11.940474,20.09759 22.043105,11.32322 32.158766,21.979434 L 37.068811,17.246167 C 37.068811,17.246167 37.088388,32 37.088388,32 L 22.160133,31.978069 C 22.160133,31.978069 26.997745,27.140456 26.997745,27.140456 C 18.528582,18.264221 13.291696,25.230495 11.500037,31.436501 z"
     style="fill:#404040;"/>
  </a>
 </g>
</svg>

<style type='text/css'>
<![CDATA[
[data-mouse-over-selected='false'] { opacity: 0.7; }
[data-mouse-over-selected='true']  { opacity: 1.0; }
]]>
</style>
<script type="application/ecmascript"><![CDATA[
document.addEventListener('DOMContentLoaded', (event) => {
  highlightEdges();
  highlightAdjacentNodes();
});
]]></script>
</svg>
