<?xml version="1.0" encoding="UTF-8" standalone="no"?>
<!DOCTYPE svg PUBLIC "-//W3C//DTD SVG 1.1//EN"
 "http://www.w3.org/Graphics/SVG/1.1/DTD/svg11.dtd">
<!-- Generated by graphviz version 2.43.0 (0)
 -->
<!-- Title: fl::Rpc::schema Pages: 1 -->
<!--zoomable 139 -->

<svg id="main" version="1.1" xmlns="http://www.w3.org/2000/svg" xmlns:xlink="http://www.w3.org/1999/xlink" xml:space="preserve" onload="init(evt)">

<style type="text/css"><![CDATA[
.node, .edge {opacity: 0.7;}
.node.selected, .edge.selected {opacity: 1;}
.edge:hover path { stroke: red; }
.edge:hover polygon { stroke: red; fill: red; }
]]></style>

<defs>
  <circle id="rim" cx="0" cy="0" r="7"/>
  <circle id="rim2" cx="0" cy="0" r="3.5"/>
  <g id="zoomPlus">
    <use xlink:href="#rim" fill="#404040"><set attributeName="fill" to="#808080" begin="zoomplus.mouseover" end="zoomplus.mouseout"/></use>
    <path d="M-4,0h8M0,-4v8" fill="none" stroke="white" stroke-width="1.5" pointer-events="none"/>
  </g>
  <g id="zoomMin">
    <use xlink:href="#rim" fill="#404040"><set attributeName="fill" to="#808080" begin="zoomminus.mouseover" end="zoomminus.mouseout"/></use>
    <path d="M-4,0h8" fill="none" stroke="white" stroke-width="1.5" pointer-events="none"/>
  </g>
  <g id="arrowUp" transform="translate(30 24)">
    <use xlink:href="#rim"/>
    <path pointer-events="none" fill="none" stroke="white" stroke-width="1.5" d="M0,-3.0v7 M-2.5,-0.5L0,-3.0L2.5,-0.5"/>
  </g>
  <g id="arrowRight" transform="rotate(90) translate(36 -43)">
    <use xlink:href="#rim"/>
    <path pointer-events="none" fill="none" stroke="white" stroke-width="1.5" d="M0,-3.0v7 M-2.5,-0.5L0,-3.0L2.5,-0.5"/>
  </g>
  <g id="arrowDown" transform="rotate(180) translate(-30 -48)">
    <use xlink:href="#rim"/>
    <path pointer-events="none" fill="none" stroke="white" stroke-width="1.5" d="M0,-3.0v7 M-2.5,-0.5L0,-3.0L2.5,-0.5"/>
  </g>
  <g id="arrowLeft" transform="rotate(270) translate(-36 17)">
    <use xlink:href="#rim"/>
    <path pointer-events="none" fill="none" stroke="white" stroke-width="1.5" d="M0,-3.0v7 M-2.5,-0.5L0,-3.0L2.5,-0.5"/>
  </g>
  <g id="resetDef">
    <use xlink:href="#rim2" fill="#404040"><set attributeName="fill" to="#808080" begin="reset.mouseover" end="reset.mouseout"/></use>
  </g>
</defs>
<script type="application/ecmascript">
var viewWidth = 503;
var viewHeight = 139;
var sectionId = 'dynsection-0';
</script>
<script type="application/ecmascript" xlink:href="../../svg.min.js"/>
<svg id="graph" class="graph">
<g id="viewport">
<title>fl::Rpc::schema</title>
<!-- Node1 -->
<g id="Node000001" class="node">
<title>Node1</title>
<g id="a_Node000001"><a xlink:title="Returns flat schema document.">
<polygon fill="#999999" stroke="#666666" points="91,-57 0,-57 0,-38 91,-38 91,-57"/>
<text text-anchor="middle" x="45.5" y="-45" font-family="Helvetica,sans-Serif" font-size="10.00">fl::Rpc::schema</text>
</a>
</g>
</g>
<!-- Node2 -->
<g id="Node000002" class="node">
<title>Node2</title>
<g id="a_Node000002"><a xlink:href="../../d7/dd1/classfl_1_1_rpc_ad04541979c3a782a0612b3dbdb1c203c.html#ad04541979c3a782a0612b3dbdb1c203c" target="_top" xlink:title="Returns flat method array: [[&quot;name&quot;, &quot;returnType&quot;, [[&quot;param1&quot;, &quot;type1&quot;], ...]], .....">
<polygon fill="white" stroke="#666666" points="222,-95 127,-95 127,-76 222,-76 222,-95"/>
<text text-anchor="middle" x="174.5" y="-83" font-family="Helvetica,sans-Serif" font-size="10.00">fl::Rpc::methods</text>
</a>
</g>
</g>
<!-- Node1&#45;&gt;Node2 -->
<g id="edge1_Node000001_Node000002" class="edge">
<title>Node1&#45;&gt;Node2</title>
<g id="a_edge1_Node000001_Node000002"><a xlink:title=" ">
<path fill="none" stroke="#63b8ff" d="M78.55,-57.09C94.64,-61.9 114.34,-67.8 131.62,-72.97"/>
<polygon fill="#63b8ff" stroke="#63b8ff" points="130.88,-76.4 141.46,-75.91 132.89,-69.69 130.88,-76.4"/>
</a>
</g>
</g>
<!-- Node13 -->
<g id="Node000013" class="node">
<title>Node13</title>
<g id="a_Node000013"><a xlink:href="../../de/d40/classfl_1_1json_af8bc0968107152344bfa8468bba76f54.html#af8bc0968107152344bfa8468bba76f54" target="_top" xlink:title=" ">
<polygon fill="white" stroke="#666666" points="217,-19 132,-19 132,0 217,0 217,-19"/>
<text text-anchor="middle" x="174.5" y="-7" font-family="Helvetica,sans-Serif" font-size="10.00">fl::json::object</text>
</a>
</g>
</g>
<!-- Node1&#45;&gt;Node13 -->
<g id="edge9_Node000001_Node000013" class="edge">
<title>Node1&#45;&gt;Node13</title>
<g id="a_edge9_Node000001_Node000013"><a xlink:title=" ">
<path fill="none" stroke="#63b8ff" d="M78.55,-37.91C94.64,-33.1 114.34,-27.2 131.62,-22.03"/>
<polygon fill="#63b8ff" stroke="#63b8ff" points="132.89,-25.31 141.46,-19.09 130.88,-18.6 132.89,-25.31"/>
</a>
</g>
</g>
<!-- Node14 -->
<g id="Node000014" class="node">
<title>Node14</title>
<g id="a_Node000014"><a xlink:href="../../de/d40/classfl_1_1json_af272c33451fcfba68454595a4f6d8444.html#af272c33451fcfba68454595a4f6d8444" target="_top" xlink:title=" ">
<polygon fill="white" stroke="#666666" points="346.5,-57 276.5,-57 276.5,-38 346.5,-38 346.5,-57"/>
<text text-anchor="middle" x="311.5" y="-45" font-family="Helvetica,sans-Serif" font-size="10.00">fl::json::set</text>
</a>
</g>
</g>
<!-- Node1&#45;&gt;Node14 -->
<g id="edge10_Node000001_Node000014" class="edge">
<title>Node1&#45;&gt;Node14</title>
<g id="a_edge10_Node000001_Node000014"><a xlink:title=" ">
<path fill="none" stroke="#63b8ff" d="M91.28,-47.5C140.08,-47.5 217.64,-47.5 266.23,-47.5"/>
<polygon fill="#63b8ff" stroke="#63b8ff" points="266.43,-51 276.43,-47.5 266.43,-44 266.43,-51"/>
</a>
</g>
</g>
<!-- Node3 -->
<g id="Node000003" class="node">
<title>Node3</title>
<g id="a_Node000003"><a xlink:href="../../de/d40/classfl_1_1json_afca018d3ad491a4e38a8f91b021dd1fc.html#afca018d3ad491a4e38a8f91b021dd1fc" target="_top" xlink:title=" ">
<polygon fill="white" stroke="#666666" points="351.5,-131 271.5,-131 271.5,-112 351.5,-112 351.5,-131"/>
<text text-anchor="middle" x="311.5" y="-119" font-family="Helvetica,sans-Serif" font-size="10.00">fl::json::array</text>
</a>
</g>
</g>
<!-- Node2&#45;&gt;Node3 -->
<g id="edge2_Node000002_Node000003" class="edge">
<title>Node2&#45;&gt;Node3</title>
<g id="a_edge2_Node000002_Node000003"><a xlink:title=" ">
<path fill="none" stroke="#63b8ff" d="M211.32,-95.05C227.65,-99.41 247.17,-104.61 264.56,-109.25"/>
<polygon fill="#63b8ff" stroke="#63b8ff" points="263.95,-112.71 274.51,-111.9 265.75,-105.94 263.95,-112.71"/>
</a>
</g>
</g>
<!-- Node5 -->
<g id="Node000005" class="node">
<title>Node5</title>
<g id="a_Node000005"><a xlink:href="../../de/d40/classfl_1_1json_a05e3159bee45dc58a1ac103f64697368.html#a05e3159bee45dc58a1ac103f64697368" target="_top" xlink:title=" ">
<polygon fill="white" stroke="#666666" points="365,-94 258,-94 258,-75 365,-75 365,-94"/>
<text text-anchor="middle" x="311.5" y="-82" font-family="Helvetica,sans-Serif" font-size="10.00">fl::json::push_back</text>
</a>
</g>
</g>
<!-- Node2&#45;&gt;Node5 -->
<g id="edge4_Node000002_Node000005" class="edge">
<title>Node2&#45;&gt;Node5</title>
<g id="a_edge4_Node000002_Node000005"><a xlink:title=" ">
<path fill="none" stroke="#63b8ff" d="M222.34,-85.15C230.46,-85.09 239.02,-85.03 247.49,-84.97"/>
<polygon fill="#63b8ff" stroke="#63b8ff" points="247.76,-88.46 257.74,-84.89 247.71,-81.47 247.76,-88.46"/>
</a>
</g>
</g>
<!-- Node4 -->
<g id="Node000004" class="node">
<title>Node4</title>
<g id="a_Node000004"><a xlink:href="../../de/d40/classfl_1_1json_a08247deaa089c843eae1e64655e2d761.html#a08247deaa089c843eae1e64655e2d761" target="_top" xlink:title=" ">
<polygon fill="white" stroke="#666666" points="485.5,-131 410.5,-131 410.5,-112 485.5,-112 485.5,-131"/>
<text text-anchor="middle" x="448" y="-119" font-family="Helvetica,sans-Serif" font-size="10.00">fl::json::json</text>
</a>
</g>
</g>
<!-- Node3&#45;&gt;Node4 -->
<g id="edge3_Node000003_Node000004" class="edge">
<title>Node3&#45;&gt;Node4</title>
<g id="a_edge3_Node000003_Node000004"><a xlink:title=" ">
<path fill="none" stroke="#63b8ff" d="M351.76,-121.5C366.9,-121.5 384.34,-121.5 400.13,-121.5"/>
<polygon fill="#63b8ff" stroke="#63b8ff" points="400.22,-125 410.22,-121.5 400.22,-118 400.22,-125"/>
</a>
</g>
</g>
<!-- Node5&#45;&gt;Node4 -->
<g id="edge5_Node000005_Node000004" class="edge">
<title>Node5&#45;&gt;Node4</title>
<g id="a_edge5_Node000005_Node000004"><a xlink:title=" ">
<path fill="none" stroke="#63b8ff" d="M347.14,-94.03C363.95,-98.65 384.35,-104.27 402.32,-109.21"/>
<polygon fill="#63b8ff" stroke="#63b8ff" points="401.44,-112.6 412.01,-111.88 403.3,-105.85 401.44,-112.6"/>
</a>
</g>
</g>
<!-- Node6 -->
<g id="Node000006" class="node">
<title>Node6</title>
<g id="a_Node000006"><a xlink:href="../../d4/d36/namespacefl_a87ae8a24cc8b709a64f39370e71846af.html#a87ae8a24cc8b709a64f39370e71846af" target="_top" xlink:title=" ">
<polygon fill="white" stroke="#666666" points="495,-20 401,-20 401,-1 495,-1 495,-20"/>
<text text-anchor="middle" x="448" y="-8" font-family="Helvetica,sans-Serif" font-size="10.00">fl::make_shared</text>
</a>
</g>
</g>
<!-- Node5&#45;&gt;Node6 -->
<g id="edge6_Node000005_Node000006" class="edge">
<title>Node5&#45;&gt;Node6</title>
<g id="a_edge6_Node000005_Node000006"><a xlink:title=" ">
<path fill="none" stroke="#63b8ff" d="M346.07,-74.92C352.6,-72.36 359.22,-69.23 365,-65.5 384.28,-53.06 381.88,-41.19 401,-28.5 403.13,-27.09 405.38,-25.76 407.7,-24.52"/>
<polygon fill="#63b8ff" stroke="#63b8ff" points="409.35,-27.61 416.87,-20.15 406.34,-21.29 409.35,-27.61"/>
</a>
</g>
</g>
<!-- Node7 -->
<g id="Node000007" class="node">
<title>Node7</title>
<g id="a_Node000007"><a xlink:href="../../da/d3c/namespacefl_1_1fl_a14315b21314f12a4c40dde841fcc4c8a.html#a14315b21314f12a4c40dde841fcc4c8a" target="_top" xlink:title=" ">
<polygon fill="white" stroke="#666666" points="482,-94 414,-94 414,-75 482,-75 482,-94"/>
<text text-anchor="middle" x="448" y="-82" font-family="Helvetica,sans-Serif" font-size="10.00">fl::fl::move</text>
</a>
</g>
</g>
<!-- Node5&#45;&gt;Node7 -->
<g id="edge7_Node000005_Node000007" class="edge">
<title>Node5&#45;&gt;Node7</title>
<g id="a_edge7_Node000005_Node000007"><a xlink:title=" ">
<path fill="none" stroke="#63b8ff" d="M365.27,-84.5C377.91,-84.5 391.26,-84.5 403.43,-84.5"/>
<polygon fill="#63b8ff" stroke="#63b8ff" points="403.77,-88 413.77,-84.5 403.77,-81 403.77,-88"/>
</a>
</g>
</g>
<!-- Node8 -->
<g id="Node000008" class="node">
<title>Node8</title>
<g id="a_Node000008"><a xlink:href="../../de/d40/classfl_1_1json_ad617704f72b6ca9c33c996466fde27b5.html#ad617704f72b6ca9c33c996466fde27b5" target="_top" xlink:title=" ">
<polygon fill="#fff0f0" stroke="red" points="489,-57 407,-57 407,-38 489,-38 489,-57"/>
<text text-anchor="middle" x="448" y="-45" font-family="Helvetica,sans-Serif" font-size="10.00">fl::json::value</text>
</a>
</g>
</g>
<!-- Node5&#45;&gt;Node8 -->
<g id="edge8_Node000005_Node000008" class="edge">
<title>Node5&#45;&gt;Node8</title>
<g id="a_edge8_Node000005_Node000008"><a xlink:title=" ">
<path fill="none" stroke="#63b8ff" d="M347.14,-74.97C363.95,-70.35 384.35,-64.73 402.32,-59.79"/>
<polygon fill="#63b8ff" stroke="#63b8ff" points="403.3,-63.15 412.01,-57.12 401.44,-56.4 403.3,-63.15"/>
</a>
</g>
</g>
<!-- Node14&#45;&gt;Node4 -->
<g id="edge11_Node000014_Node000004" class="edge">
<title>Node14&#45;&gt;Node4</title>
<g id="a_edge11_Node000014_Node000004"><a xlink:title=" ">
<path fill="none" stroke="#63b8ff" d="M346.66,-56.53C353.02,-58.94 359.41,-61.9 365,-65.5 384.57,-78.08 381.7,-90.5 401,-103.5 403.12,-104.93 405.36,-106.26 407.68,-107.51"/>
<polygon fill="#63b8ff" stroke="#63b8ff" points="406.31,-110.74 416.84,-111.91 409.34,-104.43 406.31,-110.74"/>
</a>
</g>
</g>
<!-- Node14&#45;&gt;Node6 -->
<g id="edge12_Node000014_Node000006" class="edge">
<title>Node14&#45;&gt;Node6</title>
<g id="a_edge12_Node000014_Node000006"><a xlink:title=" ">
<path fill="none" stroke="#63b8ff" d="M346.79,-38.07C363.73,-33.41 384.38,-27.73 402.52,-22.73"/>
<polygon fill="#63b8ff" stroke="#63b8ff" points="403.59,-26.07 412.31,-20.04 401.74,-19.32 403.59,-26.07"/>
</a>
</g>
</g>
<!-- Node14&#45;&gt;Node8 -->
<g id="edge13_Node000014_Node000008" class="edge">
<title>Node14&#45;&gt;Node8</title>
<g id="a_edge13_Node000014_Node000008"><a xlink:title=" ">
<path fill="none" stroke="#63b8ff" d="M346.79,-47.5C361.87,-47.5 379.89,-47.5 396.46,-47.5"/>
<polygon fill="#63b8ff" stroke="#63b8ff" points="396.56,-51 406.56,-47.5 396.56,-44 396.56,-51"/>
</a>
</g>
</g>
</g>
</svg>

<g id="navigator" transform="translate(0 0)" fill="#404254">
  <rect fill="#f2f5e9" fill-opacity="0.5" stroke="#606060" stroke-width=".5" x="0" y="0" width="60" height="60"/>
  <use id="zoomplus" xlink:href="#zoomPlus" x="17" y="9" onmousedown="handleZoom(evt,'in')"/>
  <use id="zoomminus" xlink:href="#zoomMin" x="42" y="9" onmousedown="handleZoom(evt,'out')"/>
  <use id="reset" xlink:href="#resetDef" x="30" y="36" onmousedown="handleReset()"/>
   <use id="arrowup" xlink:href="#arrowUp" x="0" y="0" onmousedown="handlePan(0,-1)"/>
  <use id="arrowright" xlink:href="#arrowRight" x="0" y="0" onmousedown="handlePan(1,0)"/>
  <use id="arrowdown" xlink:href="#arrowDown" x="0" y="0" onmousedown="handlePan(0,1)"/>
  <use id="arrowleft" xlink:href="#arrowLeft" x="0" y="0" onmousedown="handlePan(-1,0)"/>
</g>
<svg viewBox="0 0 15 15" width="100%" height="30px" preserveAspectRatio="xMaxYMin meet">
 <g id="arrow_out" transform="scale(0.3 0.3)">
  <a xlink:href="classfl_1_1_rpc_ac6f18db558acd4d13a36f34f6c26cd2d_ac6f18db558acd4d13a36f34f6c26cd2d_cgraph_org.svg" target="_base">
   <rect id="button" ry="5" rx="5" y="6" x="6" height="38" width="38"
        fill="#f2f5e9" fill-opacity="0.5" stroke="#606060" stroke-width="1.0"/>
   <path id="arrow"
     d="M 11.500037,31.436501 C 11.940474,20.09759 22.043105,11.32322 32.158766,21.979434 L 37.068811,17.246167 C 37.068811,17.246167 37.088388,32 37.088388,32 L 22.160133,31.978069 C 22.160133,31.978069 26.997745,27.140456 26.997745,27.140456 C 18.528582,18.264221 13.291696,25.230495 11.500037,31.436501 z"
     style="fill:#404040;"/>
  </a>
 </g>
</svg>

<style type='text/css'>
<![CDATA[
[data-mouse-over-selected='false'] { opacity: 0.7; }
[data-mouse-over-selected='true']  { opacity: 1.0; }
]]>
</style>
<script type="application/ecmascript"><![CDATA[
document.addEventListener('DOMContentLoaded', (event) => {
  highlightEdges();
  highlightAdjacentNodes();
});
]]></script>
</svg>
