<?xml version="1.0" encoding="UTF-8" standalone="no"?>
<!DOCTYPE svg PUBLIC "-//W3C//DTD SVG 1.1//EN"
 "http://www.w3.org/Graphics/SVG/1.1/DTD/svg11.dtd">
<!-- Generated by graphviz version 2.43.0 (0)
 -->
<!-- Title: /home/runner/work/FastLED/FastLED/examples/LuminescentGrand/arduino/ui_state.h Pages: 1 -->
<svg width="877pt" height="324pt"
 viewBox="0.00 0.00 876.90 324.47" xmlns="http://www.w3.org/2000/svg" xmlns:xlink="http://www.w3.org/1999/xlink">
<g id="graph0" class="graph" transform="scale(1 1) rotate(0) translate(4 320.47)">
<title>/home/runner/work/FastLED/FastLED/examples/LuminescentGrand/arduino/ui_state.h</title>
<!-- Node1 -->
<g id="Node000001" class="node">
<title>Node1</title>
<g id="a_Node000001"><a xlink:title=" ">
<polygon fill="#999999" stroke="#666666" points="447,-316.47 244,-316.47 244,-275.47 447,-275.47 447,-316.47"/>
<text text-anchor="start" x="252" y="-304.47" font-family="Helvetica,sans-Serif" font-size="10.00">/home/runner/work/FastLED</text>
<text text-anchor="start" x="252" y="-293.47" font-family="Helvetica,sans-Serif" font-size="10.00">/FastLED/examples/LuminescentGrand</text>
<text text-anchor="middle" x="345.5" y="-282.47" font-family="Helvetica,sans-Serif" font-size="10.00">/arduino/ui_state.h</text>
</a>
</g>
</g>
<!-- Node2 -->
<g id="Node000002" class="node">
<title>Node2</title>
<g id="a_Node000002"><a xlink:title=" ">
<polygon fill="#e0e0e0" stroke="#999999" points="342,-184.47 279,-184.47 279,-165.47 342,-165.47 342,-184.47"/>
<text text-anchor="middle" x="310.5" y="-172.47" font-family="Helvetica,sans-Serif" font-size="10.00">Arduino.h</text>
</a>
</g>
</g>
<!-- Node1&#45;&gt;Node2 -->
<g id="edge1_Node000001_Node000002" class="edge">
<title>Node1&#45;&gt;Node2</title>
<g id="a_edge1_Node000001_Node000002"><a xlink:title=" ">
<path fill="none" stroke="#63b8ff" d="M339.72,-275.32C333.11,-252.85 322.37,-216.33 315.92,-194.38"/>
<polygon fill="#63b8ff" stroke="#63b8ff" points="319.23,-193.25 313.05,-184.65 312.52,-195.23 319.23,-193.25"/>
</a>
</g>
</g>
<!-- Node3 -->
<g id="Node000003" class="node">
<title>Node3</title>
<g id="a_Node000003"><a xlink:href="../../de/d05/buttons_8h.html" target="_top" xlink:title=" ">
<polygon fill="white" stroke="#666666" points="409.5,-239.47 347.5,-239.47 347.5,-220.47 409.5,-220.47 409.5,-239.47"/>
<text text-anchor="middle" x="378.5" y="-227.47" font-family="Helvetica,sans-Serif" font-size="10.00">buttons.h</text>
</a>
</g>
</g>
<!-- Node1&#45;&gt;Node3 -->
<g id="edge2_Node000001_Node000003" class="edge">
<title>Node1&#45;&gt;Node3</title>
<g id="a_edge2_Node000001_Node000003"><a xlink:title=" ">
<path fill="none" stroke="#63b8ff" d="M355.58,-275.42C359.95,-266.96 365.02,-257.11 369.29,-248.84"/>
<polygon fill="#63b8ff" stroke="#63b8ff" points="372.51,-250.23 373.98,-239.73 366.29,-247.02 372.51,-250.23"/>
</a>
</g>
</g>
<!-- Node3&#45;&gt;Node2 -->
<g id="edge3_Node000003_Node000002" class="edge">
<title>Node3&#45;&gt;Node2</title>
<g id="a_edge3_Node000003_Node000002"><a xlink:title=" ">
<path fill="none" stroke="#63b8ff" d="M367.57,-220.46C357.42,-212.55 342.08,-200.59 329.85,-191.06"/>
<polygon fill="#63b8ff" stroke="#63b8ff" points="331.66,-188.03 321.62,-184.64 327.36,-193.55 331.66,-188.03"/>
</a>
</g>
</g>
<!-- Node4 -->
<g id="Node000004" class="node">
<title>Node4</title>
<g id="a_Node000004"><a xlink:href="../../d9/d3b/ui_8h.html" target="_top" xlink:title=" ">
<polygon fill="white" stroke="#666666" points="404.5,-184.47 360.5,-184.47 360.5,-165.47 404.5,-165.47 404.5,-184.47"/>
<text text-anchor="middle" x="382.5" y="-172.47" font-family="Helvetica,sans-Serif" font-size="10.00">fl/ui.h</text>
</a>
</g>
</g>
<!-- Node3&#45;&gt;Node4 -->
<g id="edge4_Node000003_Node000004" class="edge">
<title>Node3&#45;&gt;Node4</title>
<g id="a_edge4_Node000003_Node000004"><a xlink:title=" ">
<path fill="none" stroke="#63b8ff" d="M379.16,-220.22C379.68,-213.28 380.44,-203.32 381.09,-194.61"/>
<polygon fill="#63b8ff" stroke="#63b8ff" points="384.59,-194.8 381.85,-184.56 377.61,-194.27 384.59,-194.8"/>
</a>
</g>
</g>
<!-- Node49 -->
<g id="Node000049" class="node">
<title>Node49</title>
<g id="a_Node000049"><a xlink:href="../../d6/d01/dbg_8h.html" target="_top" xlink:title=" ">
<polygon fill="#fff0f0" stroke="red" points="476,-184.47 423,-184.47 423,-165.47 476,-165.47 476,-184.47"/>
<text text-anchor="middle" x="449.5" y="-172.47" font-family="Helvetica,sans-Serif" font-size="10.00">fl/dbg.h</text>
</a>
</g>
</g>
<!-- Node3&#45;&gt;Node49 -->
<g id="edge30_Node000003_Node000049" class="edge">
<title>Node3&#45;&gt;Node49</title>
<g id="a_edge30_Node000003_Node000049"><a xlink:title=" ">
<path fill="none" stroke="#63b8ff" d="M389.91,-220.46C400.61,-212.47 416.84,-200.35 429.66,-190.78"/>
<polygon fill="#63b8ff" stroke="#63b8ff" points="431.97,-193.43 437.89,-184.64 427.78,-187.82 431.97,-193.43"/>
</a>
</g>
</g>
<!-- Node5 -->
<g id="Node000005" class="node">
<title>Node5</title>
<g id="a_Node000005"><a xlink:href="../../df/dd8/stdint_8h.html" target="_top" xlink:title=" ">
<polygon fill="#fff0f0" stroke="red" points="408,-19.47 355,-19.47 355,-0.47 408,-0.47 408,-19.47"/>
<text text-anchor="middle" x="381.5" y="-7.47" font-family="Helvetica,sans-Serif" font-size="10.00">stdint.h</text>
</a>
</g>
</g>
<!-- Node4&#45;&gt;Node5 -->
<g id="edge5_Node000004_Node000005" class="edge">
<title>Node4&#45;&gt;Node5</title>
<g id="a_edge5_Node000004_Node000005"><a xlink:title=" ">
<path fill="none" stroke="#63b8ff" d="M404.79,-167.6C407.71,-166.84 410.67,-166.11 413.5,-165.47 604.7,-122.49 972.22,-200.58 840.5,-55.47 812.28,-24.38 522.05,-14.36 418.2,-11.76"/>
<polygon fill="#63b8ff" stroke="#63b8ff" points="418.26,-8.26 408.18,-11.52 418.09,-15.26 418.26,-8.26"/>
</a>
</g>
</g>
<!-- Node7 -->
<g id="Node000007" class="node">
<title>Node7</title>
<g id="a_Node000007"><a xlink:href="../../da/d09/audio_8h.html" target="_top" xlink:title=" ">
<polygon fill="#fff0f0" stroke="red" points="323.5,-74.47 261.5,-74.47 261.5,-55.47 323.5,-55.47 323.5,-74.47"/>
<text text-anchor="middle" x="292.5" y="-62.47" font-family="Helvetica,sans-Serif" font-size="10.00">fl/audio.h</text>
</a>
</g>
</g>
<!-- Node4&#45;&gt;Node7 -->
<g id="edge7_Node000004_Node000007" class="edge">
<title>Node4&#45;&gt;Node7</title>
<g id="a_edge7_Node000004_Node000007"><a xlink:title=" ">
<path fill="none" stroke="#63b8ff" d="M377.48,-165.34C369.97,-152.71 355.01,-128.74 339.5,-110.47 330.7,-100.11 319.72,-89.61 310.59,-81.41"/>
<polygon fill="#63b8ff" stroke="#63b8ff" points="312.66,-78.57 302.84,-74.59 308.04,-83.82 312.66,-78.57"/>
</a>
</g>
</g>
<!-- Node31 -->
<g id="Node000031" class="node">
<title>Node31</title>
<g id="a_Node000031"><a xlink:href="../../db/dc0/engine__events_8h.html" target="_top" xlink:title=" ">
<polygon fill="#fff0f0" stroke="red" points="297.5,-129.47 191.5,-129.47 191.5,-110.47 297.5,-110.47 297.5,-129.47"/>
<text text-anchor="middle" x="244.5" y="-117.47" font-family="Helvetica,sans-Serif" font-size="10.00">fl/engine_events.h</text>
</a>
</g>
</g>
<!-- Node4&#45;&gt;Node31 -->
<g id="edge9_Node000004_Node000031" class="edge">
<title>Node4&#45;&gt;Node31</title>
<g id="a_edge9_Node000004_Node000031"><a xlink:title=" ">
<path fill="none" stroke="#63b8ff" d="M360.33,-165.46C337.73,-156.78 302.44,-143.22 276.75,-133.36"/>
<polygon fill="#63b8ff" stroke="#63b8ff" points="277.67,-129.96 267.08,-129.64 275.16,-136.5 277.67,-129.96"/>
</a>
</g>
</g>
<!-- Node20 -->
<g id="Node000020" class="node">
<title>Node20</title>
<g id="a_Node000020"><a xlink:href="../../df/d2a/namespace_8h.html" target="_top" xlink:title="Implements the FastLED namespace macros.">
<polygon fill="white" stroke="#666666" points="243,-74.47 152,-74.47 152,-55.47 243,-55.47 243,-74.47"/>
<text text-anchor="middle" x="197.5" y="-62.47" font-family="Helvetica,sans-Serif" font-size="10.00">fl/namespace.h</text>
</a>
</g>
</g>
<!-- Node4&#45;&gt;Node20 -->
<g id="edge13_Node000004_Node000020" class="edge">
<title>Node4&#45;&gt;Node20</title>
<g id="a_edge13_Node000004_Node000020"><a xlink:title=" ">
<path fill="none" stroke="#63b8ff" d="M373.84,-165.17C360.41,-151.9 333.31,-126.61 306.5,-110.47 283.87,-96.85 256.32,-85.65 234.58,-77.89"/>
<polygon fill="#63b8ff" stroke="#63b8ff" points="235.63,-74.55 225.03,-74.57 233.33,-81.16 235.63,-74.55"/>
</a>
</g>
</g>
<!-- Node45 -->
<g id="Node000045" class="node">
<title>Node45</title>
<g id="a_Node000045"><a xlink:href="../../d0/d64/function__list_8h.html" target="_top" xlink:title=" ">
<polygon fill="#fff0f0" stroke="red" points="95,-74.47 0,-74.47 0,-55.47 95,-55.47 95,-74.47"/>
<text text-anchor="middle" x="47.5" y="-62.47" font-family="Helvetica,sans-Serif" font-size="10.00">fl/function_list.h</text>
</a>
</g>
</g>
<!-- Node4&#45;&gt;Node45 -->
<g id="edge11_Node000004_Node000045" class="edge">
<title>Node4&#45;&gt;Node45</title>
<g id="a_edge11_Node000004_Node000045"><a xlink:title=" ">
<path fill="none" stroke="#63b8ff" d="M360.21,-167.65C356.97,-166.84 353.66,-166.09 350.5,-165.47 288.06,-153.28 115.03,-170.61 66.5,-129.47 53.62,-118.55 49.26,-99.28 47.89,-84.83"/>
<polygon fill="#63b8ff" stroke="#63b8ff" points="51.37,-84.31 47.32,-74.52 44.38,-84.69 51.37,-84.31"/>
</a>
</g>
</g>
<!-- Node19 -->
<g id="Node000019" class="node">
<title>Node19</title>
<g id="a_Node000019"><a xlink:href="../../d8/db8/math__macros_8h.html" target="_top" xlink:title=" ">
<polygon fill="white" stroke="#666666" points="443,-74.47 342,-74.47 342,-55.47 443,-55.47 443,-74.47"/>
<text text-anchor="middle" x="392.5" y="-62.47" font-family="Helvetica,sans-Serif" font-size="10.00">fl/math_macros.h</text>
</a>
</g>
</g>
<!-- Node4&#45;&gt;Node19 -->
<g id="edge12_Node000004_Node000019" class="edge">
<title>Node4&#45;&gt;Node19</title>
<g id="a_edge12_Node000004_Node000019"><a xlink:title=" ">
<path fill="none" stroke="#63b8ff" d="M383.32,-165.14C384.94,-147.64 388.58,-108.28 390.76,-84.75"/>
<polygon fill="#63b8ff" stroke="#63b8ff" points="394.26,-84.91 391.7,-74.63 387.29,-84.27 394.26,-84.91"/>
</a>
</g>
</g>
<!-- Node22 -->
<g id="Node000022" class="node">
<title>Node22</title>
<g id="a_Node000022"><a xlink:href="../../d8/d0c/template__magic_8h.html" target="_top" xlink:title=" ">
<polygon fill="#fff0f0" stroke="red" points="613.5,-74.47 499.5,-74.47 499.5,-55.47 613.5,-55.47 613.5,-74.47"/>
<text text-anchor="middle" x="556.5" y="-62.47" font-family="Helvetica,sans-Serif" font-size="10.00">fl/template_magic.h</text>
</a>
</g>
</g>
<!-- Node4&#45;&gt;Node22 -->
<g id="edge14_Node000004_Node000022" class="edge">
<title>Node4&#45;&gt;Node22</title>
<g id="a_edge14_Node000004_Node000022"><a xlink:title=" ">
<path fill="none" stroke="#63b8ff" d="M404.64,-167.23C439.38,-156.51 503.68,-136.14 512.5,-129.47 528.34,-117.5 540.58,-98.13 548.08,-83.93"/>
<polygon fill="#63b8ff" stroke="#63b8ff" points="551.36,-85.2 552.69,-74.68 545.09,-82.07 551.36,-85.2"/>
</a>
</g>
</g>
<!-- Node47 -->
<g id="Node000047" class="node">
<title>Node47</title>
<g id="a_Node000047"><a xlink:href="../../d6/dc0/ui__impl_8h.html" target="_top" xlink:title=" ">
<polygon fill="#fff0f0" stroke="red" points="504,-129.47 433,-129.47 433,-110.47 504,-110.47 504,-129.47"/>
<text text-anchor="middle" x="468.5" y="-117.47" font-family="Helvetica,sans-Serif" font-size="10.00">fl/ui_impl.h</text>
</a>
</g>
</g>
<!-- Node4&#45;&gt;Node47 -->
<g id="edge15_Node000004_Node000047" class="edge">
<title>Node4&#45;&gt;Node47</title>
<g id="a_edge15_Node000004_Node000047"><a xlink:title=" ">
<path fill="none" stroke="#63b8ff" d="M396.32,-165.46C409.65,-157.24 430.08,-144.65 445.81,-134.96"/>
<polygon fill="#63b8ff" stroke="#63b8ff" points="447.75,-137.87 454.43,-129.64 444.08,-131.91 447.75,-137.87"/>
</a>
</g>
</g>
<!-- Node28 -->
<g id="Node000028" class="node">
<title>Node28</title>
<g id="a_Node000028"><a xlink:href="../../d8/d4b/unused_8h.html" target="_top" xlink:title=" ">
<polygon fill="white" stroke="#666666" points="701.5,-74.47 631.5,-74.47 631.5,-55.47 701.5,-55.47 701.5,-74.47"/>
<text text-anchor="middle" x="666.5" y="-62.47" font-family="Helvetica,sans-Serif" font-size="10.00">fl/unused.h</text>
</a>
</g>
</g>
<!-- Node4&#45;&gt;Node28 -->
<g id="edge23_Node000004_Node000028" class="edge">
<title>Node4&#45;&gt;Node28</title>
<g id="a_edge23_Node000004_Node000028"><a xlink:title=" ">
<path fill="none" stroke="#63b8ff" d="M404.7,-167.74C444.07,-156.65 523.17,-134.22 535.5,-129.47 573.57,-114.83 615.7,-93.41 641.64,-79.58"/>
<polygon fill="#63b8ff" stroke="#63b8ff" points="643.6,-82.5 650.75,-74.68 640.29,-76.34 643.6,-82.5"/>
</a>
</g>
</g>
<!-- Node51 -->
<g id="Node000051" class="node">
<title>Node51</title>
<g id="a_Node000051"><a xlink:title=" ">
<polygon fill="#e0e0e0" stroke="#999999" points="831,-74.47 720,-74.47 720,-55.47 831,-55.47 831,-74.47"/>
<text text-anchor="middle" x="775.5" y="-62.47" font-family="Helvetica,sans-Serif" font-size="10.00">platforms/ui_defs.h</text>
</a>
</g>
</g>
<!-- Node4&#45;&gt;Node51 -->
<g id="edge24_Node000004_Node000051" class="edge">
<title>Node4&#45;&gt;Node51</title>
<g id="a_edge24_Node000004_Node000051"><a xlink:title=" ">
<path fill="none" stroke="#63b8ff" d="M404.82,-167.72C407.73,-166.95 410.68,-166.18 413.5,-165.47 483.79,-147.89 502.53,-148.3 572.5,-129.47 632.16,-113.42 700.55,-91.22 740.78,-77.77"/>
<polygon fill="#63b8ff" stroke="#63b8ff" points="742.01,-81.05 750.37,-74.55 739.78,-74.42 742.01,-81.05"/>
</a>
</g>
</g>
<!-- Node52 -->
<g id="Node000052" class="node">
<title>Node52</title>
<g id="a_Node000052"><a xlink:href="../../d7/d0e/button_8h.html" target="_top" xlink:title=" ">
<polygon fill="#fff0f0" stroke="red" points="173.5,-129.47 75.5,-129.47 75.5,-110.47 173.5,-110.47 173.5,-129.47"/>
<text text-anchor="middle" x="124.5" y="-117.47" font-family="Helvetica,sans-Serif" font-size="10.00">sensors/button.h</text>
</a>
</g>
</g>
<!-- Node4&#45;&gt;Node52 -->
<g id="edge25_Node000004_Node000052" class="edge">
<title>Node4&#45;&gt;Node52</title>
<g id="a_edge25_Node000004_Node000052"><a xlink:title=" ">
<path fill="none" stroke="#63b8ff" d="M360.17,-170.05C353.94,-168.54 347.44,-166.84 341.5,-165.47 284.93,-152.41 219.83,-139.85 175.72,-131.42"/>
<polygon fill="#63b8ff" stroke="#63b8ff" points="176.28,-127.97 165.8,-129.53 174.97,-134.84 176.28,-127.97"/>
</a>
</g>
</g>
<!-- Node5&#45;&gt;Node5 -->
<g id="edge6_Node000005_Node000005" class="edge">
<title>Node5&#45;&gt;Node5</title>
<g id="a_edge6_Node000005_Node000005"><a xlink:title=" ">
<path fill="none" stroke="#63b8ff" d="M402.56,-19.54C414.7,-21.49 426,-18.31 426,-9.97 426,-4.05 420.29,-0.73 412.62,0"/>
<polygon fill="#63b8ff" stroke="#63b8ff" points="412.41,3.49 402.56,-0.4 412.69,-3.5 412.41,3.49"/>
</a>
</g>
</g>
<!-- Node7&#45;&gt;Node5 -->
<g id="edge8_Node000007_Node000005" class="edge">
<title>Node7&#45;&gt;Node5</title>
<g id="a_edge8_Node000007_Node000005"><a xlink:title=" ">
<path fill="none" stroke="#63b8ff" d="M306.8,-55.46C320.6,-47.24 341.74,-34.65 358.01,-24.96"/>
<polygon fill="#63b8ff" stroke="#63b8ff" points="360.14,-27.77 366.94,-19.64 356.56,-21.75 360.14,-27.77"/>
</a>
</g>
</g>
<!-- Node31&#45;&gt;Node20 -->
<g id="edge10_Node000031_Node000020" class="edge">
<title>Node31&#45;&gt;Node20</title>
<g id="a_edge10_Node000031_Node000020"><a xlink:title=" ">
<path fill="none" stroke="#63b8ff" d="M236.74,-110.22C230.03,-102.66 220.16,-91.52 211.99,-82.32"/>
<polygon fill="#63b8ff" stroke="#63b8ff" points="214.37,-79.72 205.12,-74.56 209.13,-84.37 214.37,-79.72"/>
</a>
</g>
</g>
<!-- Node47&#45;&gt;Node5 -->
<g id="edge16_Node000047_Node000005" class="edge">
<title>Node47&#45;&gt;Node5</title>
<g id="a_edge16_Node000047_Node000005"><a xlink:title=" ">
<path fill="none" stroke="#63b8ff" d="M468.14,-110.32C467.2,-97.25 463.79,-72.22 451.5,-55.47 441.6,-41.98 426.27,-31.57 412.47,-24.22"/>
<polygon fill="#63b8ff" stroke="#63b8ff" points="413.77,-20.96 403.25,-19.63 410.64,-27.22 413.77,-20.96"/>
</a>
</g>
</g>
<!-- Node47&#45;&gt;Node7 -->
<g id="edge17_Node000047_Node000007" class="edge">
<title>Node47&#45;&gt;Node7</title>
<g id="a_edge17_Node000047_Node000007"><a xlink:title=" ">
<path fill="none" stroke="#63b8ff" d="M440.22,-110.46C410.55,-101.52 363.71,-87.42 330.75,-77.49"/>
<polygon fill="#63b8ff" stroke="#63b8ff" points="331.58,-74.09 321,-74.56 329.57,-80.79 331.58,-74.09"/>
</a>
</g>
</g>
<!-- Node47&#45;&gt;Node20 -->
<g id="edge19_Node000047_Node000020" class="edge">
<title>Node47&#45;&gt;Node20</title>
<g id="a_edge19_Node000047_Node000020"><a xlink:title=" ">
<path fill="none" stroke="#63b8ff" d="M432.79,-111.99C386.48,-102.93 305.26,-87.05 251.42,-76.52"/>
<polygon fill="#63b8ff" stroke="#63b8ff" points="251.86,-73.04 241.37,-74.55 250.51,-79.91 251.86,-73.04"/>
</a>
</g>
</g>
<!-- Node47&#45;&gt;Node19 -->
<g id="edge18_Node000047_Node000019" class="edge">
<title>Node47&#45;&gt;Node19</title>
<g id="a_edge18_Node000047_Node000019"><a xlink:title=" ">
<path fill="none" stroke="#63b8ff" d="M456.29,-110.46C444.72,-102.39 427.12,-90.12 413.34,-80.51"/>
<polygon fill="#63b8ff" stroke="#63b8ff" points="415.14,-77.49 404.93,-74.64 411.13,-83.23 415.14,-77.49"/>
</a>
</g>
</g>
<!-- Node47&#45;&gt;Node22 -->
<g id="edge20_Node000047_Node000022" class="edge">
<title>Node47&#45;&gt;Node22</title>
<g id="a_edge20_Node000047_Node000022"><a xlink:title=" ">
<path fill="none" stroke="#63b8ff" d="M482.64,-110.46C496.29,-102.24 517.19,-89.65 533.28,-79.96"/>
<polygon fill="#63b8ff" stroke="#63b8ff" points="535.34,-82.8 542.1,-74.64 531.73,-76.8 535.34,-82.8"/>
</a>
</g>
</g>
<!-- Node47&#45;&gt;Node28 -->
<g id="edge21_Node000047_Node000028" class="edge">
<title>Node47&#45;&gt;Node28</title>
<g id="a_edge21_Node000047_Node000028"><a xlink:title=" ">
<path fill="none" stroke="#63b8ff" d="M500.31,-110.46C533.99,-101.44 587.3,-87.17 624.42,-77.24"/>
<polygon fill="#63b8ff" stroke="#63b8ff" points="625.68,-80.52 634.44,-74.56 623.87,-73.76 625.68,-80.52"/>
</a>
</g>
</g>
<!-- Node47&#45;&gt;Node51 -->
<g id="edge22_Node000047_Node000051" class="edge">
<title>Node47&#45;&gt;Node51</title>
<g id="a_edge22_Node000047_Node000051"><a xlink:title=" ">
<path fill="none" stroke="#63b8ff" d="M504.02,-112.84C555.9,-103.89 653.06,-87.11 715.98,-76.25"/>
<polygon fill="#63b8ff" stroke="#63b8ff" points="716.89,-79.64 726.15,-74.49 715.7,-72.74 716.89,-79.64"/>
</a>
</g>
</g>
<!-- Node52&#45;&gt;Node4 -->
<g id="edge29_Node000052_Node000004" class="edge">
<title>Node52&#45;&gt;Node4</title>
<g id="a_edge29_Node000052_Node000004"><a xlink:title=" ">
<path fill="none" stroke="#63b8ff" d="M173.84,-128.52C219.3,-136.35 288.52,-149.39 350.32,-163.38"/>
<polygon fill="#63b8ff" stroke="#63b8ff" points="349.65,-166.81 360.17,-165.63 351.21,-159.99 349.65,-166.81"/>
</a>
</g>
</g>
<!-- Node52&#45;&gt;Node5 -->
<g id="edge26_Node000052_Node000005" class="edge">
<title>Node52&#45;&gt;Node5</title>
<g id="a_edge26_Node000052_Node000005"><a xlink:title=" ">
<path fill="none" stroke="#63b8ff" d="M124.27,-110.1C124.44,-96.27 126.92,-69.68 142.5,-55.47 171.55,-28.98 284.91,-17.48 344.47,-13.18"/>
<polygon fill="#63b8ff" stroke="#63b8ff" points="344.85,-16.66 354.59,-12.48 344.37,-9.68 344.85,-16.66"/>
</a>
</g>
</g>
<!-- Node52&#45;&gt;Node20 -->
<g id="edge28_Node000052_Node000020" class="edge">
<title>Node52&#45;&gt;Node20</title>
<g id="a_edge28_Node000052_Node000020"><a xlink:title=" ">
<path fill="none" stroke="#63b8ff" d="M136.23,-110.46C147.23,-102.47 163.92,-90.35 177.1,-80.78"/>
<polygon fill="#63b8ff" stroke="#63b8ff" points="179.52,-83.35 185.56,-74.64 175.41,-77.69 179.52,-83.35"/>
</a>
</g>
</g>
<!-- Node52&#45;&gt;Node45 -->
<g id="edge27_Node000052_Node000045" class="edge">
<title>Node52&#45;&gt;Node45</title>
<g id="a_edge27_Node000052_Node000045"><a xlink:title=" ">
<path fill="none" stroke="#63b8ff" d="M112.13,-110.46C100.41,-102.39 82.58,-90.12 68.61,-80.51"/>
<polygon fill="#63b8ff" stroke="#63b8ff" points="70.32,-77.43 60.1,-74.64 66.35,-83.2 70.32,-77.43"/>
</a>
</g>
</g>
</g>
</svg>
