<?xml version="1.0" encoding="UTF-8" standalone="no"?>
<!DOCTYPE svg PUBLIC "-//W3C//DTD SVG 1.1//EN"
 "http://www.w3.org/Graphics/SVG/1.1/DTD/svg11.dtd">
<!-- Generated by graphviz version 2.43.0 (0)
 -->
<!-- Title: fl::NoisePalette::draw Pages: 1 -->
<!--zoomable 354 -->

<svg id="main" version="1.1" xmlns="http://www.w3.org/2000/svg" xmlns:xlink="http://www.w3.org/1999/xlink" xml:space="preserve" onload="init(evt)">

<style type="text/css"><![CDATA[
.node, .edge {opacity: 0.7;}
.node.selected, .edge.selected {opacity: 1;}
.edge:hover path { stroke: red; }
.edge:hover polygon { stroke: red; fill: red; }
]]></style>

<defs>
  <circle id="rim" cx="0" cy="0" r="7"/>
  <circle id="rim2" cx="0" cy="0" r="3.5"/>
  <g id="zoomPlus">
    <use xlink:href="#rim" fill="#404040"><set attributeName="fill" to="#808080" begin="zoomplus.mouseover" end="zoomplus.mouseout"/></use>
    <path d="M-4,0h8M0,-4v8" fill="none" stroke="white" stroke-width="1.5" pointer-events="none"/>
  </g>
  <g id="zoomMin">
    <use xlink:href="#rim" fill="#404040"><set attributeName="fill" to="#808080" begin="zoomminus.mouseover" end="zoomminus.mouseout"/></use>
    <path d="M-4,0h8" fill="none" stroke="white" stroke-width="1.5" pointer-events="none"/>
  </g>
  <g id="arrowUp" transform="translate(30 24)">
    <use xlink:href="#rim"/>
    <path pointer-events="none" fill="none" stroke="white" stroke-width="1.5" d="M0,-3.0v7 M-2.5,-0.5L0,-3.0L2.5,-0.5"/>
  </g>
  <g id="arrowRight" transform="rotate(90) translate(36 -43)">
    <use xlink:href="#rim"/>
    <path pointer-events="none" fill="none" stroke="white" stroke-width="1.5" d="M0,-3.0v7 M-2.5,-0.5L0,-3.0L2.5,-0.5"/>
  </g>
  <g id="arrowDown" transform="rotate(180) translate(-30 -48)">
    <use xlink:href="#rim"/>
    <path pointer-events="none" fill="none" stroke="white" stroke-width="1.5" d="M0,-3.0v7 M-2.5,-0.5L0,-3.0L2.5,-0.5"/>
  </g>
  <g id="arrowLeft" transform="rotate(270) translate(-36 17)">
    <use xlink:href="#rim"/>
    <path pointer-events="none" fill="none" stroke="white" stroke-width="1.5" d="M0,-3.0v7 M-2.5,-0.5L0,-3.0L2.5,-0.5"/>
  </g>
  <g id="resetDef">
    <use xlink:href="#rim2" fill="#404040"><set attributeName="fill" to="#808080" begin="reset.mouseover" end="reset.mouseout"/></use>
  </g>
</defs>
<script type="application/ecmascript">
var viewWidth = 726;
var viewHeight = 354;
var sectionId = 'dynsection-0';
</script>
<script type="application/ecmascript" xlink:href="../../svg.min.js"/>
<svg id="graph" class="graph">
<g id="viewport">
<title>fl::NoisePalette::draw</title>
<!-- Node1 -->
<g id="Node000001" class="node">
<title>Node1</title>
<g id="a_Node000001"><a xlink:title=" ">
<polygon fill="#999999" stroke="#666666" points="120,-177.1 0,-177.1 0,-158.1 120,-158.1 120,-177.1"/>
<text text-anchor="middle" x="60" y="-165.1" font-family="Helvetica,sans-Serif" font-size="10.00">fl::NoisePalette::draw</text>
</a>
</g>
</g>
<!-- Node2 -->
<g id="Node000002" class="node">
<title>Node2</title>
<g id="a_Node000002"><a xlink:href="../../d9/d41/classfl_1_1_noise_palette_a22d1820b5a78e9ccfb4123ef9161f738.html#a22d1820b5a78e9ccfb4123ef9161f738" target="_top" xlink:title=" ">
<polygon fill="white" stroke="#666666" points="299,-270.1 159,-270.1 159,-251.1 299,-251.1 299,-270.1"/>
<text text-anchor="middle" x="229" y="-258.1" font-family="Helvetica,sans-Serif" font-size="10.00">fl::NoisePalette::fillnoise8</text>
</a>
</g>
</g>
<!-- Node1&#45;&gt;Node2 -->
<g id="edge1_Node000001_Node000002" class="edge">
<title>Node1&#45;&gt;Node2</title>
<g id="a_edge1_Node000001_Node000002"><a xlink:title=" ">
<path fill="none" stroke="#63b8ff" d="M78.24,-177.2C107.49,-193.49 167.02,-226.64 201.57,-245.88"/>
<polygon fill="#63b8ff" stroke="#63b8ff" points="200.16,-249.1 210.6,-250.91 203.57,-242.99 200.16,-249.1"/>
</a>
</g>
</g>
<!-- Node12 -->
<g id="Node000012" class="node">
<title>Node12</title>
<g id="a_Node000012"><a xlink:href="../../d9/d41/classfl_1_1_noise_palette_a546f14f524f7a1b965c872ddad7be8a4.html#a546f14f524f7a1b965c872ddad7be8a4" target="_top" xlink:title=" ">
<polygon fill="white" stroke="#666666" points="302,-107.6 156,-107.6 156,-77.6 302,-77.6 302,-107.6"/>
<text text-anchor="start" x="164" y="-95.6" font-family="Helvetica,sans-Serif" font-size="10.00">fl::NoisePalette::mapNoise</text>
<text text-anchor="middle" x="229" y="-84.6" font-family="Helvetica,sans-Serif" font-size="10.00">ToLEDsUsingPalette</text>
</a>
</g>
</g>
<!-- Node1&#45;&gt;Node12 -->
<g id="edge8_Node000001_Node000012" class="edge">
<title>Node1&#45;&gt;Node12</title>
<g id="a_edge8_Node000001_Node000012"><a xlink:title=" ">
<path fill="none" stroke="#63b8ff" d="M82.49,-157.95C108.31,-146.35 152.25,-126.62 185.1,-111.87"/>
<polygon fill="#63b8ff" stroke="#63b8ff" points="186.79,-114.95 194.48,-107.66 183.92,-108.56 186.79,-114.95"/>
</a>
</g>
</g>
<!-- Node3 -->
<g id="Node000003" class="node">
<title>Node3</title>
<g id="a_Node000003"><a xlink:href="../../d8/df9/group___noise_generation_gaa521ccca6038d7b5e881fe2e8f35d3bc.html#gaa521ccca6038d7b5e881fe2e8f35d3bc" target="_top" xlink:title="8&#45;Bit, fixed point implementation of Perlin&#39;s noise.">
<polygon fill="white" stroke="#666666" points="420.5,-346.1 368.5,-346.1 368.5,-327.1 420.5,-327.1 420.5,-346.1"/>
<text text-anchor="middle" x="394.5" y="-334.1" font-family="Helvetica,sans-Serif" font-size="10.00">inoise8</text>
</a>
</g>
</g>
<!-- Node2&#45;&gt;Node3 -->
<g id="edge2_Node000002_Node000003" class="edge">
<title>Node2&#45;&gt;Node3</title>
<g id="a_edge2_Node000002_Node000003"><a xlink:title=" ">
<path fill="none" stroke="#63b8ff" d="M249.4,-270.23C270.93,-280.86 306.77,-298.33 338,-312.6 345.52,-316.03 353.66,-319.63 361.34,-322.96"/>
<polygon fill="#63b8ff" stroke="#63b8ff" points="360.16,-326.26 370.73,-327 362.93,-319.83 360.16,-326.26"/>
</a>
</g>
</g>
<!-- Node10 -->
<g id="Node000010" class="node">
<title>Node10</title>
<g id="a_Node000010"><a xlink:href="../../d5/d98/group___math_ga07133b3085824d0fcd4f5086d286c4b5.html#ga07133b3085824d0fcd4f5086d286c4b5" target="_top" xlink:title="Add one byte to another, saturating at 0xFF.">
<polygon fill="white" stroke="#666666" points="584,-309.1 537,-309.1 537,-290.1 584,-290.1 584,-309.1"/>
<text text-anchor="middle" x="560.5" y="-297.1" font-family="Helvetica,sans-Serif" font-size="10.00">qadd8</text>
</a>
</g>
</g>
<!-- Node2&#45;&gt;Node10 -->
<g id="edge5_Node000002_Node000010" class="edge">
<title>Node2&#45;&gt;Node10</title>
<g id="a_edge5_Node000002_Node000010"><a xlink:title=" ">
<path fill="none" stroke="#63b8ff" d="M279.06,-270.13C297.49,-273.47 318.66,-277.03 338,-279.6 404.69,-288.46 483.2,-294.52 526.56,-297.49"/>
<polygon fill="#63b8ff" stroke="#63b8ff" points="526.58,-301 536.79,-298.18 527.05,-294.02 526.58,-301"/>
</a>
</g>
</g>
<!-- Node11 -->
<g id="Node000011" class="node">
<title>Node11</title>
<g id="a_Node000011"><a xlink:href="../../d5/d98/group___math_gae261576a4c8155d6c0ba8615b2d2ecb3.html#gae261576a4c8155d6c0ba8615b2d2ecb3" target="_top" xlink:title="Subtract one byte from another, saturating at 0x00.">
<polygon fill="white" stroke="#666666" points="417.5,-270.1 371.5,-270.1 371.5,-251.1 417.5,-251.1 417.5,-270.1"/>
<text text-anchor="middle" x="394.5" y="-258.1" font-family="Helvetica,sans-Serif" font-size="10.00">qsub8</text>
</a>
</g>
</g>
<!-- Node2&#45;&gt;Node11 -->
<g id="edge6_Node000002_Node000011" class="edge">
<title>Node2&#45;&gt;Node11</title>
<g id="a_edge6_Node000002_Node000011"><a xlink:title=" ">
<path fill="none" stroke="#63b8ff" d="M299.34,-260.6C320.82,-260.6 343.47,-260.6 361.17,-260.6"/>
<polygon fill="#63b8ff" stroke="#63b8ff" points="361.49,-264.1 371.49,-260.6 361.49,-257.1 361.49,-264.1"/>
</a>
</g>
</g>
<!-- Node9 -->
<g id="Node000009" class="node">
<title>Node9</title>
<g id="a_Node000009"><a xlink:href="../../d0/da8/group___scaling_gad7535ccda9c92470c4e6ee0265585555.html#gad7535ccda9c92470c4e6ee0265585555" target="_top" xlink:title="Scale one byte by a second one, which is treated as the numerator of a fraction whose denominator is ...">
<polygon fill="white" stroke="#666666" points="718,-83.1 670,-83.1 670,-64.1 718,-64.1 718,-83.1"/>
<text text-anchor="middle" x="694" y="-71.1" font-family="Helvetica,sans-Serif" font-size="10.00">scale8</text>
</a>
</g>
</g>
<!-- Node2&#45;&gt;Node9 -->
<g id="edge7_Node000002_Node000009" class="edge">
<title>Node2&#45;&gt;Node9</title>
<g id="a_edge7_Node000002_Node000009"><a xlink:title=" ">
<path fill="none" stroke="#63b8ff" d="M284.89,-251.08C301.89,-248.23 320.7,-245.18 338,-242.6 469.24,-223.02 527.4,-282.62 634,-203.6 670.03,-176.89 684.61,-122.98 690.05,-93.67"/>
<polygon fill="#63b8ff" stroke="#63b8ff" points="693.57,-93.86 691.77,-83.42 686.67,-92.71 693.57,-93.86"/>
</a>
</g>
</g>
<!-- Node4 -->
<g id="Node000004" class="node">
<title>Node4</title>
<g id="a_Node000004"><a xlink:href="../../d8/df9/group___noise_generation_ga6c57ed3ea69e819c29602578ecbabd71.html#ga6c57ed3ea69e819c29602578ecbabd71" target="_top" xlink:title="8&#45;bit, fixed point implementation of Perlin&#39;s noise without scaling.">
<polygon fill="#fff0f0" stroke="red" points="598,-346.1 523,-346.1 523,-327.1 598,-327.1 598,-346.1"/>
<text text-anchor="middle" x="560.5" y="-334.1" font-family="Helvetica,sans-Serif" font-size="10.00">inoise8_raw</text>
</a>
</g>
</g>
<!-- Node3&#45;&gt;Node4 -->
<g id="edge3_Node000003_Node000004" class="edge">
<title>Node3&#45;&gt;Node4</title>
<g id="a_edge3_Node000003_Node000004"><a xlink:title=" ">
<path fill="none" stroke="#63b8ff" d="M420.77,-336.6C445.2,-336.6 482.81,-336.6 512.72,-336.6"/>
<polygon fill="#63b8ff" stroke="#63b8ff" points="512.94,-340.1 522.94,-336.6 512.94,-333.1 512.94,-340.1"/>
</a>
</g>
</g>
<!-- Node3&#45;&gt;Node10 -->
<g id="edge4_Node000003_Node000010" class="edge">
<title>Node3&#45;&gt;Node10</title>
<g id="a_edge4_Node000003_Node000010"><a xlink:title=" ">
<path fill="none" stroke="#63b8ff" d="M420.77,-330.9C449.26,-324.47 495.69,-314 526.9,-306.96"/>
<polygon fill="#63b8ff" stroke="#63b8ff" points="527.86,-310.33 536.85,-304.71 526.32,-303.5 527.86,-310.33"/>
</a>
</g>
</g>
<!-- Node13 -->
<g id="Node000013" class="node">
<title>Node13</title>
<g id="a_Node000013"><a xlink:href="../../d4/d36/namespacefl_a74e1895d1234ab29fef4458532e91090.html#a74e1895d1234ab29fef4458532e91090" target="_top" xlink:title=" ">
<polygon fill="white" stroke="#666666" points="451,-120.1 338,-120.1 338,-101.1 451,-101.1 451,-120.1"/>
<text text-anchor="middle" x="394.5" y="-108.1" font-family="Helvetica,sans-Serif" font-size="10.00">fl::ColorFromPalette</text>
</a>
</g>
</g>
<!-- Node12&#45;&gt;Node13 -->
<g id="edge9_Node000012_Node000013" class="edge">
<title>Node12&#45;&gt;Node13</title>
<g id="a_edge9_Node000012_Node000013"><a xlink:title=" ">
<path fill="none" stroke="#63b8ff" d="M302.19,-100.55C310.7,-101.48 319.36,-102.44 327.78,-103.36"/>
<polygon fill="#63b8ff" stroke="#63b8ff" points="327.58,-106.86 337.9,-104.48 328.35,-99.91 327.58,-106.86"/>
</a>
</g>
</g>
<!-- Node21 -->
<g id="Node000021" class="node">
<title>Node21</title>
<g id="a_Node000021"><a xlink:href="../../dc/d3e/group___dimming_gae51352a3522bb8eae5e17dbee97aa1aa.html#gae51352a3522bb8eae5e17dbee97aa1aa" target="_top" xlink:title="Adjust a scaling value for dimming.">
<polygon fill="white" stroke="#666666" points="427,-83.1 362,-83.1 362,-64.1 427,-64.1 427,-83.1"/>
<text text-anchor="middle" x="394.5" y="-71.1" font-family="Helvetica,sans-Serif" font-size="10.00">dim8_raw</text>
</a>
</g>
</g>
<!-- Node12&#45;&gt;Node21 -->
<g id="edge16_Node000012_Node000021" class="edge">
<title>Node12&#45;&gt;Node21</title>
<g id="a_edge16_Node000012_Node000021"><a xlink:title=" ">
<path fill="none" stroke="#63b8ff" d="M302.19,-84.21C319.15,-82.24 336.66,-80.2 351.76,-78.45"/>
<polygon fill="#63b8ff" stroke="#63b8ff" points="352.26,-81.92 361.79,-77.28 351.46,-74.96 352.26,-81.92"/>
</a>
</g>
</g>
<!-- Node22 -->
<g id="Node000022" class="node">
<title>Node22</title>
<g id="a_Node000022"><a xlink:href="../../d9/d41/classfl_1_1_noise_palette_a56d8e189481f0cad03ce451fb5d0d939.html#a56d8e189481f0cad03ce451fb5d0d939" target="_top" xlink:title=" ">
<polygon fill="white" stroke="#666666" points="449,-46.1 340,-46.1 340,-27.1 449,-27.1 449,-46.1"/>
<text text-anchor="middle" x="394.5" y="-34.1" font-family="Helvetica,sans-Serif" font-size="10.00">fl::NoisePalette::XY</text>
</a>
</g>
</g>
<!-- Node12&#45;&gt;Node22 -->
<g id="edge18_Node000012_Node000022" class="edge">
<title>Node12&#45;&gt;Node22</title>
<g id="a_edge18_Node000012_Node000022"><a xlink:title=" ">
<path fill="none" stroke="#63b8ff" d="M273.81,-77.59C299.42,-68.82 331.41,-57.87 355.87,-49.49"/>
<polygon fill="#63b8ff" stroke="#63b8ff" points="357.19,-52.74 365.52,-46.19 354.92,-46.11 357.19,-52.74"/>
</a>
</g>
</g>
<!-- Node14 -->
<g id="Node000014" class="node">
<title>Node14</title>
<g id="a_Node000014"><a xlink:href="../../d4/d36/namespacefl_a924fc8748f53389e55fdc63bfc14b805.html#a924fc8748f53389e55fdc63bfc14b805" target="_top" xlink:title=" ">
<polygon fill="#fff0f0" stroke="red" points="588.5,-194.1 532.5,-194.1 532.5,-175.1 588.5,-175.1 588.5,-194.1"/>
<text text-anchor="middle" x="560.5" y="-182.1" font-family="Helvetica,sans-Serif" font-size="10.00">fl::blend</text>
</a>
</g>
</g>
<!-- Node13&#45;&gt;Node14 -->
<g id="edge10_Node000013_Node000014" class="edge">
<title>Node13&#45;&gt;Node14</title>
<g id="a_edge10_Node000013_Node000014"><a xlink:title=" ">
<path fill="none" stroke="#63b8ff" d="M408.45,-120.31C425.58,-132.72 457.1,-154.09 487,-166.6 498.2,-171.28 510.9,-174.95 522.5,-177.71"/>
<polygon fill="#63b8ff" stroke="#63b8ff" points="521.83,-181.15 532.36,-179.92 523.36,-174.32 521.83,-181.15"/>
</a>
</g>
</g>
<!-- Node17 -->
<g id="Node000017" class="node">
<title>Node17</title>
<g id="a_Node000017"><a xlink:href="../../d0/da5/group___scaling_dirty_ga3fade00fb4cf5b937b973128198a7a79.html#ga3fade00fb4cf5b937b973128198a7a79" target="_top" xlink:title="Clean up the r1 register after a series of *LEAVING_R1_DIRTY calls.">
<polygon fill="white" stroke="#666666" points="597,-157.1 524,-157.1 524,-138.1 597,-138.1 597,-157.1"/>
<text text-anchor="middle" x="560.5" y="-145.1" font-family="Helvetica,sans-Serif" font-size="10.00">cleanup_R1</text>
</a>
</g>
</g>
<!-- Node13&#45;&gt;Node17 -->
<g id="edge11_Node000013_Node000017" class="edge">
<title>Node13&#45;&gt;Node17</title>
<g id="a_edge11_Node000013_Node000017"><a xlink:title=" ">
<path fill="none" stroke="#63b8ff" d="M437.73,-120.13C461.07,-125.39 490.07,-131.94 513.92,-137.32"/>
<polygon fill="#63b8ff" stroke="#63b8ff" points="513.27,-140.76 523.79,-139.54 514.81,-133.93 513.27,-140.76"/>
</a>
</g>
</g>
<!-- Node19 -->
<g id="Node000019" class="node">
<title>Node19</title>
<g id="a_Node000019"><a xlink:href="../../d4/d36/namespacefl_a8ef00cea89dd1023f79e4d6d33883a40.html#a8ef00cea89dd1023f79e4d6d33883a40" target="_top" xlink:title="Helper function to divide a number by 16, aka four logical shift right (LSR)&#39;s.">
<polygon fill="white" stroke="#666666" points="587,-120.1 534,-120.1 534,-101.1 587,-101.1 587,-120.1"/>
<text text-anchor="middle" x="560.5" y="-108.1" font-family="Helvetica,sans-Serif" font-size="10.00">fl::lsrX4</text>
</a>
</g>
</g>
<!-- Node13&#45;&gt;Node19 -->
<g id="edge12_Node000013_Node000019" class="edge">
<title>Node13&#45;&gt;Node19</title>
<g id="a_edge12_Node000013_Node000019"><a xlink:title=" ">
<path fill="none" stroke="#63b8ff" d="M451.02,-110.6C475.03,-110.6 502.43,-110.6 523.69,-110.6"/>
<polygon fill="#63b8ff" stroke="#63b8ff" points="523.89,-114.1 533.89,-110.6 523.89,-107.1 523.89,-114.1"/>
</a>
</g>
</g>
<!-- Node20 -->
<g id="Node000020" class="node">
<title>Node20</title>
<g id="a_Node000020"><a xlink:href="../../d6/d19/group___linear_interpolation_gaf65357c7aeca9778e5a2f80a6bac2b5d.html#gaf65357c7aeca9778e5a2f80a6bac2b5d" target="_top" xlink:title="Map from one full&#45;range 8&#45;bit value into a narrower range of 8&#45;bit values, possibly a range of hues.">
<polygon fill="white" stroke="#666666" points="582.5,-83.1 538.5,-83.1 538.5,-64.1 582.5,-64.1 582.5,-83.1"/>
<text text-anchor="middle" x="560.5" y="-71.1" font-family="Helvetica,sans-Serif" font-size="10.00">map8</text>
</a>
</g>
</g>
<!-- Node13&#45;&gt;Node20 -->
<g id="edge13_Node000013_Node000020" class="edge">
<title>Node13&#45;&gt;Node20</title>
<g id="a_edge13_Node000013_Node000020"><a xlink:title=" ">
<path fill="none" stroke="#63b8ff" d="M437.73,-101.07C466.09,-94.67 502.83,-86.39 528.5,-80.59"/>
<polygon fill="#63b8ff" stroke="#63b8ff" points="529.45,-83.97 538.43,-78.35 527.91,-77.14 529.45,-83.97"/>
</a>
</g>
</g>
<!-- Node18 -->
<g id="Node000018" class="node">
<title>Node18</title>
<g id="a_Node000018"><a xlink:href="../../d0/da5/group___scaling_dirty_ga7386235cada3aca429b189681d2ec56d.html#ga7386235cada3aca429b189681d2ec56d" target="_top" xlink:title="This version of scale8() does not clean up the R1 register on AVR.">
<polygon fill="white" stroke="#666666" points="634,-46.1 487,-46.1 487,-27.1 634,-27.1 634,-46.1"/>
<text text-anchor="middle" x="560.5" y="-34.1" font-family="Helvetica,sans-Serif" font-size="10.00">scale8_LEAVING_R1_DIRTY</text>
</a>
</g>
</g>
<!-- Node13&#45;&gt;Node18 -->
<g id="edge15_Node000013_Node000018" class="edge">
<title>Node13&#45;&gt;Node18</title>
<g id="a_edge15_Node000013_Node000018"><a xlink:title=" ">
<path fill="none" stroke="#63b8ff" d="M433.33,-101.08C439.47,-98.77 445.58,-95.97 451,-92.6 470.48,-80.48 467.18,-67.15 487,-55.6 490.83,-53.37 494.93,-51.39 499.16,-49.64"/>
<polygon fill="#63b8ff" stroke="#63b8ff" points="500.39,-52.92 508.56,-46.17 497.97,-46.35 500.39,-52.92"/>
</a>
</g>
</g>
<!-- Node20&#45;&gt;Node9 -->
<g id="edge14_Node000020_Node000009" class="edge">
<title>Node20&#45;&gt;Node9</title>
<g id="a_edge14_Node000020_Node000009"><a xlink:title=" ">
<path fill="none" stroke="#63b8ff" d="M582.63,-73.6C603.37,-73.6 635.33,-73.6 659.54,-73.6"/>
<polygon fill="#63b8ff" stroke="#63b8ff" points="659.71,-77.1 669.71,-73.6 659.71,-70.1 659.71,-77.1"/>
</a>
</g>
</g>
<!-- Node21&#45;&gt;Node9 -->
<g id="edge17_Node000021_Node000009" class="edge">
<title>Node21&#45;&gt;Node9</title>
<g id="a_edge17_Node000021_Node000009"><a xlink:title=" ">
<path fill="none" stroke="#63b8ff" d="M427.21,-66.23C435.32,-63.58 443.77,-60.09 451,-55.6 470.48,-43.48 465.86,-27.53 487,-18.6 547.19,6.81 573.21,5.34 634,-18.6 653.03,-26.09 669.54,-42.93 680.22,-56.02"/>
<polygon fill="#63b8ff" stroke="#63b8ff" points="677.47,-58.18 686.37,-63.94 683,-53.89 677.47,-58.18"/>
</a>
</g>
</g>
</g>
</svg>

<g id="navigator" transform="translate(0 0)" fill="#404254">
  <rect fill="#f2f5e9" fill-opacity="0.5" stroke="#606060" stroke-width=".5" x="0" y="0" width="60" height="60"/>
  <use id="zoomplus" xlink:href="#zoomPlus" x="17" y="9" onmousedown="handleZoom(evt,'in')"/>
  <use id="zoomminus" xlink:href="#zoomMin" x="42" y="9" onmousedown="handleZoom(evt,'out')"/>
  <use id="reset" xlink:href="#resetDef" x="30" y="36" onmousedown="handleReset()"/>
   <use id="arrowup" xlink:href="#arrowUp" x="0" y="0" onmousedown="handlePan(0,-1)"/>
  <use id="arrowright" xlink:href="#arrowRight" x="0" y="0" onmousedown="handlePan(1,0)"/>
  <use id="arrowdown" xlink:href="#arrowDown" x="0" y="0" onmousedown="handlePan(0,1)"/>
  <use id="arrowleft" xlink:href="#arrowLeft" x="0" y="0" onmousedown="handlePan(-1,0)"/>
</g>
<svg viewBox="0 0 15 15" width="100%" height="30px" preserveAspectRatio="xMaxYMin meet">
 <g id="arrow_out" transform="scale(0.3 0.3)">
  <a xlink:href="classfl_1_1_noise_palette_afc6cd594830dfdd146c45e7ab1d1905d_afc6cd594830dfdd146c45e7ab1d1905d_cgraph_org.svg" target="_base">
   <rect id="button" ry="5" rx="5" y="6" x="6" height="38" width="38"
        fill="#f2f5e9" fill-opacity="0.5" stroke="#606060" stroke-width="1.0"/>
   <path id="arrow"
     d="M 11.500037,31.436501 C 11.940474,20.09759 22.043105,11.32322 32.158766,21.979434 L 37.068811,17.246167 C 37.068811,17.246167 37.088388,32 37.088388,32 L 22.160133,31.978069 C 22.160133,31.978069 26.997745,27.140456 26.997745,27.140456 C 18.528582,18.264221 13.291696,25.230495 11.500037,31.436501 z"
     style="fill:#404040;"/>
  </a>
 </g>
</svg>

<style type='text/css'>
<![CDATA[
[data-mouse-over-selected='false'] { opacity: 0.7; }
[data-mouse-over-selected='true']  { opacity: 1.0; }
]]>
</style>
<script type="application/ecmascript"><![CDATA[
document.addEventListener('DOMContentLoaded', (event) => {
  highlightEdges();
  highlightAdjacentNodes();
});
]]></script>
</svg>
