<?xml version="1.0" encoding="UTF-8" standalone="no"?>
<!DOCTYPE svg PUBLIC "-//W3C//DTD SVG 1.1//EN"
 "http://www.w3.org/Graphics/SVG/1.1/DTD/svg11.dtd">
<!-- Generated by graphviz version 2.43.0 (0)
 -->
<!-- Title: fl::default_delete&lt; T &gt; Pages: 1 -->
<svg width="457pt" height="349pt"
 viewBox="0.00 0.00 457.00 349.00" xmlns="http://www.w3.org/2000/svg" xmlns:xlink="http://www.w3.org/1999/xlink">

<svg id="main" version="1.1" xmlns="http://www.w3.org/2000/svg" xmlns:xlink="http://www.w3.org/1999/xlink" xml:space="preserve">

<style type="text/css"><![CDATA[
.node, .edge {opacity: 0.7;}
.node.selected, .edge.selected {opacity: 1;}
.edge:hover path { stroke: red; }
.edge:hover polygon { stroke: red; fill: red; }
]]></style>
<script type="application/ecmascript" xlink:href="../../svg.min.js"/>
<svg id="graph" class="graph">
<g id="graph0" class="graph" transform="scale(1 1) rotate(0) translate(4 345)">
<title>fl::default_delete&lt; T &gt;</title>
<!-- Node1 -->
<g id="Node000001" class="node">
<title>Node1</title>
<g id="a_Node000001"><a xlink:title=" ">
<polygon fill="#999999" stroke="#666666" points="128,-191.5 0,-191.5 0,-172.5 128,-172.5 128,-191.5"/>
<text text-anchor="middle" x="64" y="-179.5" font-family="Helvetica,sans-Serif" font-size="10.00">fl::default_delete&lt; T &gt;</text>
</a>
</g>
</g>
<!-- Node2 -->
<g id="Node000002" class="node">
<title>Node2</title>
<g id="a_Node000002"><a xlink:href="../../d5/d2b/structfl_1_1default__delete.html" target="_top" xlink:title=" ">
<polygon fill="white" stroke="#666666" points="447.5,-341 301.5,-341 301.5,-311 447.5,-311 447.5,-341"/>
<text text-anchor="start" x="309.5" y="-329" font-family="Helvetica,sans-Serif" font-size="10.00">fl::default_delete</text>
<text text-anchor="middle" x="374.5" y="-318" font-family="Helvetica,sans-Serif" font-size="10.00">&lt; fl::FastLEDANIMartRIX &gt;</text>
</a>
</g>
</g>
<!-- Node1&#45;&gt;Node2 -->
<g id="edge1_Node000001_Node000002" class="edge">
<title>Node1&#45;&gt;Node2</title>
<g id="a_edge1_Node000001_Node000002"><a xlink:title=" ">
<path fill="none" stroke="orange" stroke-dasharray="5,2" d="M74.95,-200.79C88.05,-223.59 113.32,-261.4 146,-281 192.96,-309.16 254.23,-320.1 301.36,-324.17"/>
<polygon fill="orange" stroke="orange" points="77.85,-198.82 69.95,-191.77 71.73,-202.21 77.85,-198.82"/>
</a>
</g>
<text text-anchor="middle" x="214" y="-325" font-family="Helvetica,sans-Serif" font-size="10.00" fill="grey"> &lt; fl::FastLEDANIMartRIX &gt;</text>
</g>
<!-- Node3 -->
<g id="Node000003" class="node">
<title>Node3</title>
<g id="a_Node000003"><a xlink:href="../../d5/d2b/structfl_1_1default__delete.html" target="_top" xlink:title=" ">
<polygon fill="white" stroke="#666666" points="427.5,-293 321.5,-293 321.5,-263 427.5,-263 427.5,-293"/>
<text text-anchor="start" x="329.5" y="-281" font-family="Helvetica,sans-Serif" font-size="10.00">fl::default_delete</text>
<text text-anchor="middle" x="374.5" y="-270" font-family="Helvetica,sans-Serif" font-size="10.00">&lt; fl::FFTContext &gt;</text>
</a>
</g>
</g>
<!-- Node1&#45;&gt;Node3 -->
<g id="edge2_Node000001_Node000003" class="edge">
<title>Node1&#45;&gt;Node3</title>
<g id="a_edge2_Node000001_Node000003"><a xlink:title=" ">
<path fill="none" stroke="orange" stroke-dasharray="5,2" d="M85.86,-197.76C101.61,-208.91 124.16,-223.37 146,-232 203.71,-254.8 274.32,-266.82 321.42,-272.77"/>
<polygon fill="orange" stroke="orange" points="87.58,-194.68 77.44,-191.64 83.47,-200.35 87.58,-194.68"/>
</a>
</g>
<text text-anchor="middle" x="214" y="-269" font-family="Helvetica,sans-Serif" font-size="10.00" fill="grey"> &lt; fl::FFTContext &gt;</text>
</g>
<!-- Node4 -->
<g id="Node000004" class="node">
<title>Node4</title>
<g id="a_Node000004"><a xlink:href="../../d5/d2b/structfl_1_1default__delete.html" target="_top" xlink:title=" ">
<polygon fill="white" stroke="#666666" points="449,-245 300,-245 300,-215 449,-215 449,-245"/>
<text text-anchor="start" x="308" y="-233" font-family="Helvetica,sans-Serif" font-size="10.00">fl::default_delete</text>
<text text-anchor="middle" x="374.5" y="-222" font-family="Helvetica,sans-Serif" font-size="10.00">&lt; fl::FetchEngineListener &gt;</text>
</a>
</g>
</g>
<!-- Node1&#45;&gt;Node4 -->
<g id="edge3_Node000001_Node000004" class="edge">
<title>Node1&#45;&gt;Node4</title>
<g id="a_edge3_Node000001_Node000004"><a xlink:title=" ">
<path fill="none" stroke="orange" stroke-dasharray="5,2" d="M124.95,-193.37C132.04,-194.64 139.17,-195.87 146,-197 197.29,-205.47 255.28,-213.86 299.88,-220.06"/>
<polygon fill="orange" stroke="orange" points="125.1,-189.84 114.64,-191.51 123.85,-196.73 125.1,-189.84"/>
</a>
</g>
<text text-anchor="middle" x="214" y="-220" font-family="Helvetica,sans-Serif" font-size="10.00" fill="grey"> &lt; fl::FetchEngineListener &gt;</text>
</g>
<!-- Node5 -->
<g id="Node000005" class="node">
<title>Node5</title>
<g id="a_Node000005"><a xlink:href="../../d5/d2b/structfl_1_1default__delete.html" target="_top" xlink:title=" ">
<polygon fill="white" stroke="#666666" points="424,-197 325,-197 325,-167 424,-167 424,-197"/>
<text text-anchor="start" x="333" y="-185" font-family="Helvetica,sans-Serif" font-size="10.00">fl::default_delete</text>
<text text-anchor="middle" x="374.5" y="-174" font-family="Helvetica,sans-Serif" font-size="10.00">&lt; fl::string &gt;</text>
</a>
</g>
</g>
<!-- Node1&#45;&gt;Node5 -->
<g id="edge4_Node000001_Node000005" class="edge">
<title>Node1&#45;&gt;Node5</title>
<g id="a_edge4_Node000001_Node000005"><a xlink:title=" ">
<path fill="none" stroke="orange" stroke-dasharray="5,2" d="M138.31,-182C195.88,-182 274.45,-182 324.59,-182"/>
<polygon fill="orange" stroke="orange" points="138.17,-178.5 128.17,-182 138.17,-185.5 138.17,-178.5"/>
</a>
</g>
<text text-anchor="middle" x="214" y="-185" font-family="Helvetica,sans-Serif" font-size="10.00" fill="grey"> &lt; fl::string &gt;</text>
</g>
<!-- Node6 -->
<g id="Node000006" class="node">
<title>Node6</title>
<g id="a_Node000006"><a xlink:href="../../d5/d2b/structfl_1_1default__delete.html" target="_top" xlink:title=" ">
<polygon fill="white" stroke="#666666" points="441,-148.5 308,-148.5 308,-107.5 441,-107.5 441,-148.5"/>
<text text-anchor="start" x="316" y="-136.5" font-family="Helvetica,sans-Serif" font-size="10.00">fl::default_delete</text>
<text text-anchor="start" x="316" y="-125.5" font-family="Helvetica,sans-Serif" font-size="10.00">&lt; fl::WaveSimulation1D</text>
<text text-anchor="middle" x="374.5" y="-114.5" font-family="Helvetica,sans-Serif" font-size="10.00">_Real &gt;</text>
</a>
</g>
</g>
<!-- Node1&#45;&gt;Node6 -->
<g id="edge5_Node000001_Node000006" class="edge">
<title>Node1&#45;&gt;Node6</title>
<g id="a_edge5_Node000001_Node000006"><a xlink:title=" ">
<path fill="none" stroke="orange" stroke-dasharray="5,2" d="M100.32,-169.07C114.38,-164.34 130.79,-159.34 146,-156 199.83,-144.16 262,-136.93 307.73,-132.8"/>
<polygon fill="orange" stroke="orange" points="98.88,-165.86 90.56,-172.43 101.16,-172.48 98.88,-165.86"/>
</a>
</g>
<text text-anchor="start" x="154" y="-170" font-family="Helvetica,sans-Serif" font-size="10.00" fill="grey"> &lt; fl::WaveSimulation1D</text>
<text text-anchor="middle" x="214" y="-159" font-family="Helvetica,sans-Serif" font-size="10.00" fill="grey">_Real &gt;</text>
</g>
<!-- Node7 -->
<g id="Node000007" class="node">
<title>Node7</title>
<g id="a_Node000007"><a xlink:href="../../d5/d2b/structfl_1_1default__delete.html" target="_top" xlink:title=" ">
<polygon fill="white" stroke="#666666" points="441,-89.5 308,-89.5 308,-48.5 441,-48.5 441,-89.5"/>
<text text-anchor="start" x="316" y="-77.5" font-family="Helvetica,sans-Serif" font-size="10.00">fl::default_delete</text>
<text text-anchor="start" x="316" y="-66.5" font-family="Helvetica,sans-Serif" font-size="10.00">&lt; fl::WaveSimulation2D</text>
<text text-anchor="middle" x="374.5" y="-55.5" font-family="Helvetica,sans-Serif" font-size="10.00">_Real &gt;</text>
</a>
</g>
</g>
<!-- Node1&#45;&gt;Node7 -->
<g id="edge6_Node000001_Node000007" class="edge">
<title>Node1&#45;&gt;Node7</title>
<g id="a_edge6_Node000001_Node000007"><a xlink:title=" ">
<path fill="none" stroke="orange" stroke-dasharray="5,2" d="M79.35,-164.26C94.18,-147.24 118.9,-122.21 146,-109 196.82,-84.21 260.67,-74.6 307.79,-70.96"/>
<polygon fill="orange" stroke="orange" points="76.32,-162.43 72.55,-172.33 81.67,-166.94 76.32,-162.43"/>
</a>
</g>
<text text-anchor="start" x="154" y="-123" font-family="Helvetica,sans-Serif" font-size="10.00" fill="grey"> &lt; fl::WaveSimulation2D</text>
<text text-anchor="middle" x="214" y="-112" font-family="Helvetica,sans-Serif" font-size="10.00" fill="grey">_Real &gt;</text>
</g>
<!-- Node8 -->
<g id="Node000008" class="node">
<title>Node8</title>
<g id="a_Node000008"><a xlink:href="../../da/ddc/structfl_1_1default__delete_3_01_t_0f_0e_4.html" target="_top" xlink:title=" ">
<polygon fill="white" stroke="#666666" points="424,-30 325,-30 325,0 424,0 424,-30"/>
<text text-anchor="start" x="333" y="-18" font-family="Helvetica,sans-Serif" font-size="10.00">fl::default_delete</text>
<text text-anchor="middle" x="374.5" y="-7" font-family="Helvetica,sans-Serif" font-size="10.00">&lt; T[]&gt;</text>
</a>
</g>
</g>
<!-- Node1&#45;&gt;Node8 -->
<g id="edge7_Node000001_Node000008" class="edge">
<title>Node1&#45;&gt;Node8</title>
<g id="a_edge7_Node000001_Node000008"><a xlink:title=" ">
<path fill="none" stroke="orange" stroke-dasharray="5,2" d="M71.84,-162.92C82.87,-135.09 107.34,-83.86 146,-58 199.79,-22.02 275.91,-14.29 324.99,-13.51"/>
<polygon fill="orange" stroke="orange" points="68.54,-161.75 68.27,-172.34 75.09,-164.23 68.54,-161.75"/>
</a>
</g>
<text text-anchor="middle" x="214" y="-61" font-family="Helvetica,sans-Serif" font-size="10.00" fill="grey"> &lt; T[]&gt;</text>
</g>
</g>
</svg>
</svg>

<style type='text/css'>
<![CDATA[
[data-mouse-over-selected='false'] { opacity: 0.7; }
[data-mouse-over-selected='true']  { opacity: 1.0; }
]]>
</style>
<script type="application/ecmascript"><![CDATA[
document.addEventListener('DOMContentLoaded', (event) => {
  highlightEdges();
  highlightAdjacentNodes();
});
]]></script>
</svg>
