<?xml version="1.0" encoding="UTF-8" standalone="no"?>
<!DOCTYPE svg PUBLIC "-//W3C//DTD SVG 1.1//EN"
 "http://www.w3.org/Graphics/SVG/1.1/DTD/svg11.dtd">
<!-- Generated by graphviz version 2.43.0 (0)
 -->
<!-- Title: PixelController::loadAndScale2 Pages: 1 -->
<!--zoomable 159 -->

<svg id="main" version="1.1" xmlns="http://www.w3.org/2000/svg" xmlns:xlink="http://www.w3.org/1999/xlink" xml:space="preserve" onload="init(evt)">

<style type="text/css"><![CDATA[
.node, .edge {opacity: 0.7;}
.node.selected, .edge.selected {opacity: 1;}
.edge:hover path { stroke: red; }
.edge:hover polygon { stroke: red; fill: red; }
]]></style>

<defs>
  <circle id="rim" cx="0" cy="0" r="7"/>
  <circle id="rim2" cx="0" cy="0" r="3.5"/>
  <g id="zoomPlus">
    <use xlink:href="#rim" fill="#404040"><set attributeName="fill" to="#808080" begin="zoomplus.mouseover" end="zoomplus.mouseout"/></use>
    <path d="M-4,0h8M0,-4v8" fill="none" stroke="white" stroke-width="1.5" pointer-events="none"/>
  </g>
  <g id="zoomMin">
    <use xlink:href="#rim" fill="#404040"><set attributeName="fill" to="#808080" begin="zoomminus.mouseover" end="zoomminus.mouseout"/></use>
    <path d="M-4,0h8" fill="none" stroke="white" stroke-width="1.5" pointer-events="none"/>
  </g>
  <g id="arrowUp" transform="translate(30 24)">
    <use xlink:href="#rim"/>
    <path pointer-events="none" fill="none" stroke="white" stroke-width="1.5" d="M0,-3.0v7 M-2.5,-0.5L0,-3.0L2.5,-0.5"/>
  </g>
  <g id="arrowRight" transform="rotate(90) translate(36 -43)">
    <use xlink:href="#rim"/>
    <path pointer-events="none" fill="none" stroke="white" stroke-width="1.5" d="M0,-3.0v7 M-2.5,-0.5L0,-3.0L2.5,-0.5"/>
  </g>
  <g id="arrowDown" transform="rotate(180) translate(-30 -48)">
    <use xlink:href="#rim"/>
    <path pointer-events="none" fill="none" stroke="white" stroke-width="1.5" d="M0,-3.0v7 M-2.5,-0.5L0,-3.0L2.5,-0.5"/>
  </g>
  <g id="arrowLeft" transform="rotate(270) translate(-36 17)">
    <use xlink:href="#rim"/>
    <path pointer-events="none" fill="none" stroke="white" stroke-width="1.5" d="M0,-3.0v7 M-2.5,-0.5L0,-3.0L2.5,-0.5"/>
  </g>
  <g id="resetDef">
    <use xlink:href="#rim2" fill="#404040"><set attributeName="fill" to="#808080" begin="reset.mouseover" end="reset.mouseout"/></use>
  </g>
</defs>
<script type="application/ecmascript">
var viewWidth = 839;
var viewHeight = 159;
var sectionId = 'dynsection-0';
</script>
<script type="application/ecmascript" xlink:href="../../svg.min.js"/>
<svg id="graph" class="graph">
<g id="viewport">
<title>PixelController::loadAndScale2</title>
<!-- Node1 -->
<g id="Node000001" class="node">
<title>Node1</title>
<g id="a_Node000001"><a xlink:title="non&#45;template alias of loadAndScale&lt;2&gt;()">
<polygon fill="#999999" stroke="#666666" points="134,-64.12 0,-64.12 0,-34.12 134,-34.12 134,-64.12"/>
<text text-anchor="start" x="8" y="-52.12" font-family="Helvetica,sans-Serif" font-size="10.00">PixelController::loadAnd</text>
<text text-anchor="middle" x="67" y="-41.12" font-family="Helvetica,sans-Serif" font-size="10.00">Scale2</text>
</a>
</g>
</g>
<!-- Node2 -->
<g id="Node000002" class="node">
<title>Node2</title>
<g id="a_Node000002"><a xlink:href="../../d0/dee/struct_pixel_controller_a56fc5e5bf305e1760198c0a69ac85ff9.html#a56fc5e5bf305e1760198c0a69ac85ff9" target="_top" xlink:title="Loads, dithers, and scales a single byte for a given output slot, using class dither and scale values...">
<polygon fill="white" stroke="#666666" points="304,-102.12 170,-102.12 170,-72.12 304,-72.12 304,-102.12"/>
<text text-anchor="start" x="178" y="-90.12" font-family="Helvetica,sans-Serif" font-size="10.00">PixelController::loadAnd</text>
<text text-anchor="middle" x="237" y="-79.12" font-family="Helvetica,sans-Serif" font-size="10.00">Scale</text>
</a>
</g>
</g>
<!-- Node1&#45;&gt;Node2 -->
<g id="edge1_Node000001_Node000002" class="edge">
<title>Node1&#45;&gt;Node2</title>
<g id="a_edge1_Node000001_Node000002"><a xlink:title=" ">
<path fill="none" stroke="#63b8ff" d="M134.4,-64.14C142.77,-66.04 151.39,-67.98 159.89,-69.91"/>
<polygon fill="#63b8ff" stroke="#63b8ff" points="159.28,-73.36 169.81,-72.15 160.83,-66.53 159.28,-73.36"/>
</a>
</g>
</g>
<!-- Node8 -->
<g id="Node000008" class="node">
<title>Node8</title>
<g id="a_Node000008"><a xlink:href="../../d0/dee/struct_pixel_controller_a060678fc5a4cf518e155ed3a6145b8d4.html#a060678fc5a4cf518e155ed3a6145b8d4" target="_top" xlink:title="Scale a value using the per&#45;channel scale data.">
<polygon fill="white" stroke="#666666" points="296.5,-37.62 177.5,-37.62 177.5,-18.62 296.5,-18.62 296.5,-37.62"/>
<text text-anchor="middle" x="237" y="-25.62" font-family="Helvetica,sans-Serif" font-size="10.00">PixelController::scale</text>
</a>
</g>
</g>
<!-- Node1&#45;&gt;Node8 -->
<g id="edge10_Node000001_Node000008" class="edge">
<title>Node1&#45;&gt;Node8</title>
<g id="a_edge10_Node000001_Node000008"><a xlink:title=" ">
<path fill="none" stroke="#63b8ff" d="M134.4,-40.82C145.17,-39.48 156.35,-38.08 167.18,-36.73"/>
<polygon fill="#63b8ff" stroke="#63b8ff" points="167.94,-40.16 177.43,-35.44 167.07,-33.21 167.94,-40.16"/>
</a>
</g>
</g>
<!-- Node3 -->
<g id="Node000003" class="node">
<title>Node3</title>
<g id="a_Node000003"><a xlink:href="../../d0/dee/struct_pixel_controller_ae44229e20fb4ba4473b057dcda87122e.html#ae44229e20fb4ba4473b057dcda87122e" target="_top" xlink:title="Copy constructor.">
<polygon fill="white" stroke="#666666" points="678,-85.62 513,-85.62 513,-66.62 678,-66.62 678,-85.62"/>
<text text-anchor="middle" x="595.5" y="-73.62" font-family="Helvetica,sans-Serif" font-size="10.00">PixelController::PixelController</text>
</a>
</g>
</g>
<!-- Node2&#45;&gt;Node3 -->
<g id="edge2_Node000002_Node000003" class="edge">
<title>Node2&#45;&gt;Node3</title>
<g id="a_edge2_Node000002_Node000003"><a xlink:title=" ">
<path fill="none" stroke="#63b8ff" d="M304.22,-85.08C360.11,-83.36 440.7,-80.87 502.8,-78.95"/>
<polygon fill="#63b8ff" stroke="#63b8ff" points="503.1,-82.45 512.99,-78.64 502.89,-75.45 503.1,-82.45"/>
</a>
</g>
</g>
<!-- Node5 -->
<g id="Node000005" class="node">
<title>Node5</title>
<g id="a_Node000005"><a xlink:href="../../d0/dee/struct_pixel_controller_aa2a1b38058a62a4337605425e482202f.html#aa2a1b38058a62a4337605425e482202f" target="_top" xlink:title="Calculate a dither value using the per&#45;channel dither data.">
<polygon fill="white" stroke="#666666" points="469.5,-150.62 347.5,-150.62 347.5,-131.62 469.5,-131.62 469.5,-150.62"/>
<text text-anchor="middle" x="408.5" y="-138.62" font-family="Helvetica,sans-Serif" font-size="10.00">PixelController::dither</text>
</a>
</g>
</g>
<!-- Node2&#45;&gt;Node5 -->
<g id="edge5_Node000002_Node000005" class="edge">
<title>Node2&#45;&gt;Node5</title>
<g id="a_edge5_Node000002_Node000005"><a xlink:title=" ">
<path fill="none" stroke="#63b8ff" d="M278.46,-102.23C297.08,-108.97 319.55,-116.8 340,-123.12 346.38,-125.1 353.15,-127.06 359.83,-128.91"/>
<polygon fill="#63b8ff" stroke="#63b8ff" points="358.94,-132.3 369.51,-131.55 360.78,-125.55 358.94,-132.3"/>
</a>
</g>
</g>
<!-- Node7 -->
<g id="Node000007" class="node">
<title>Node7</title>
<g id="a_Node000007"><a xlink:href="../../d0/dee/struct_pixel_controller_a75ef76fbecdc9b39b01eeab216845d9d.html#a75ef76fbecdc9b39b01eeab216845d9d" target="_top" xlink:title="Read a byte of LED data.">
<polygon fill="white" stroke="#666666" points="477,-113.62 340,-113.62 340,-94.62 477,-94.62 477,-113.62"/>
<text text-anchor="middle" x="408.5" y="-101.62" font-family="Helvetica,sans-Serif" font-size="10.00">PixelController::loadByte</text>
</a>
</g>
</g>
<!-- Node2&#45;&gt;Node7 -->
<g id="edge8_Node000002_Node000007" class="edge">
<title>Node2&#45;&gt;Node7</title>
<g id="a_edge8_Node000002_Node000007"><a xlink:title=" ">
<path fill="none" stroke="#63b8ff" d="M304.02,-93.74C312.5,-94.6 321.25,-95.47 329.9,-96.34"/>
<polygon fill="#63b8ff" stroke="#63b8ff" points="329.69,-99.84 339.99,-97.35 330.39,-92.87 329.69,-99.84"/>
</a>
</g>
</g>
<!-- Node3&#45;&gt;Node3 -->
<g id="edge3_Node000003_Node000003" class="edge">
<title>Node3&#45;&gt;Node3</title>
<g id="a_edge3_Node000003_Node000003"><a xlink:title=" ">
<path fill="none" stroke="#63b8ff" d="M568.37,-85.71C555.18,-94.36 564.22,-103.62 595.5,-103.62 616.52,-103.62 627.5,-99.44 628.43,-94.07"/>
<polygon fill="#63b8ff" stroke="#63b8ff" points="631.2,-91.92 622.63,-85.71 625.45,-95.92 631.2,-91.92"/>
</a>
</g>
</g>
<!-- Node4 -->
<g id="Node000004" class="node">
<title>Node4</title>
<g id="a_Node000004"><a xlink:href="../../d0/dee/struct_pixel_controller_af3310e3a869dfeafae981291b76b572d.html#af3310e3a869dfeafae981291b76b572d" target="_top" xlink:title=" ">
<polygon fill="white" stroke="#666666" points="831,-85.62 714,-85.62 714,-66.62 831,-66.62 831,-85.62"/>
<text text-anchor="middle" x="772.5" y="-73.62" font-family="Helvetica,sans-Serif" font-size="10.00">PixelController::copy</text>
</a>
</g>
</g>
<!-- Node3&#45;&gt;Node4 -->
<g id="edge4_Node000003_Node000004" class="edge">
<title>Node3&#45;&gt;Node4</title>
<g id="a_edge4_Node000003_Node000004"><a xlink:title=" ">
<path fill="none" stroke="#63b8ff" d="M678.11,-76.12C686.72,-76.12 695.42,-76.12 703.85,-76.12"/>
<polygon fill="#63b8ff" stroke="#63b8ff" points="703.98,-79.62 713.98,-76.12 703.98,-72.62 703.98,-79.62"/>
</a>
</g>
</g>
<!-- Node5&#45;&gt;Node3 -->
<g id="edge6_Node000005_Node000003" class="edge">
<title>Node5&#45;&gt;Node3</title>
<g id="a_edge6_Node000005_Node000003"><a xlink:title=" ">
<path fill="none" stroke="#63b8ff" d="M448.64,-131.54C458,-129.01 467.91,-126.14 477,-123.12 506.74,-113.25 539.81,-99.79 563.27,-89.8"/>
<polygon fill="#63b8ff" stroke="#63b8ff" points="564.89,-92.92 572.7,-85.76 562.13,-86.48 564.89,-92.92"/>
</a>
</g>
</g>
<!-- Node6 -->
<g id="Node000006" class="node">
<title>Node6</title>
<g id="a_Node000006"><a xlink:href="../../d5/d98/group___math_ga07133b3085824d0fcd4f5086d286c4b5.html#ga07133b3085824d0fcd4f5086d286c4b5" target="_top" xlink:title="Add one byte to another, saturating at 0xFF.">
<polygon fill="white" stroke="#666666" points="619,-150.62 572,-150.62 572,-131.62 619,-131.62 619,-150.62"/>
<text text-anchor="middle" x="595.5" y="-138.62" font-family="Helvetica,sans-Serif" font-size="10.00">qadd8</text>
</a>
</g>
</g>
<!-- Node5&#45;&gt;Node6 -->
<g id="edge7_Node000005_Node000006" class="edge">
<title>Node5&#45;&gt;Node6</title>
<g id="a_edge7_Node000005_Node000006"><a xlink:title=" ">
<path fill="none" stroke="#63b8ff" d="M469.56,-141.12C500.03,-141.12 535.87,-141.12 561.33,-141.12"/>
<polygon fill="#63b8ff" stroke="#63b8ff" points="561.56,-144.62 571.56,-141.12 561.56,-137.62 561.56,-144.62"/>
</a>
</g>
</g>
<!-- Node7&#45;&gt;Node3 -->
<g id="edge9_Node000007_Node000003" class="edge">
<title>Node7&#45;&gt;Node3</title>
<g id="a_edge9_Node000007_Node000003"><a xlink:title=" ">
<path fill="none" stroke="#63b8ff" d="M472.39,-94.6C488.18,-92.22 505.25,-89.63 521.49,-87.17"/>
<polygon fill="#63b8ff" stroke="#63b8ff" points="522.11,-90.62 531.47,-85.66 521.06,-83.7 522.11,-90.62"/>
</a>
</g>
</g>
<!-- Node8&#45;&gt;Node3 -->
<g id="edge11_Node000008_Node000003" class="edge">
<title>Node8&#45;&gt;Node3</title>
<g id="a_edge11_Node000008_Node000003"><a xlink:title=" ">
<path fill="none" stroke="#63b8ff" d="M271.1,-18.62C317.81,-6.74 405.38,9.86 477,-9.12 514.47,-19.06 552.48,-44.04 574.75,-60.53"/>
<polygon fill="#63b8ff" stroke="#63b8ff" points="572.66,-63.34 582.74,-66.6 576.89,-57.77 572.66,-63.34"/>
</a>
</g>
</g>
<!-- Node9 -->
<g id="Node000009" class="node">
<title>Node9</title>
<g id="a_Node000009"><a xlink:href="../../d0/da8/group___scaling_gad7535ccda9c92470c4e6ee0265585555.html#gad7535ccda9c92470c4e6ee0265585555" target="_top" xlink:title="Scale one byte by a second one, which is treated as the numerator of a fraction whose denominator is ...">
<polygon fill="white" stroke="#666666" points="432.5,-37.62 384.5,-37.62 384.5,-18.62 432.5,-18.62 432.5,-37.62"/>
<text text-anchor="middle" x="408.5" y="-25.62" font-family="Helvetica,sans-Serif" font-size="10.00">scale8</text>
</a>
</g>
</g>
<!-- Node8&#45;&gt;Node9 -->
<g id="edge12_Node000008_Node000009" class="edge">
<title>Node8&#45;&gt;Node9</title>
<g id="a_edge12_Node000008_Node000009"><a xlink:title=" ">
<path fill="none" stroke="#63b8ff" d="M296.81,-28.12C322.61,-28.12 351.96,-28.12 373.95,-28.12"/>
<polygon fill="#63b8ff" stroke="#63b8ff" points="374.11,-31.62 384.11,-28.12 374.11,-24.62 374.11,-31.62"/>
</a>
</g>
</g>
</g>
</svg>

<g id="navigator" transform="translate(0 0)" fill="#404254">
  <rect fill="#f2f5e9" fill-opacity="0.5" stroke="#606060" stroke-width=".5" x="0" y="0" width="60" height="60"/>
  <use id="zoomplus" xlink:href="#zoomPlus" x="17" y="9" onmousedown="handleZoom(evt,'in')"/>
  <use id="zoomminus" xlink:href="#zoomMin" x="42" y="9" onmousedown="handleZoom(evt,'out')"/>
  <use id="reset" xlink:href="#resetDef" x="30" y="36" onmousedown="handleReset()"/>
   <use id="arrowup" xlink:href="#arrowUp" x="0" y="0" onmousedown="handlePan(0,-1)"/>
  <use id="arrowright" xlink:href="#arrowRight" x="0" y="0" onmousedown="handlePan(1,0)"/>
  <use id="arrowdown" xlink:href="#arrowDown" x="0" y="0" onmousedown="handlePan(0,1)"/>
  <use id="arrowleft" xlink:href="#arrowLeft" x="0" y="0" onmousedown="handlePan(-1,0)"/>
</g>
<svg viewBox="0 0 15 15" width="100%" height="30px" preserveAspectRatio="xMaxYMin meet">
 <g id="arrow_out" transform="scale(0.3 0.3)">
  <a xlink:href="struct_pixel_controller_a33c22b408cbc9eb8b9d98993fe985264_a33c22b408cbc9eb8b9d98993fe985264_cgraph_org.svg" target="_base">
   <rect id="button" ry="5" rx="5" y="6" x="6" height="38" width="38"
        fill="#f2f5e9" fill-opacity="0.5" stroke="#606060" stroke-width="1.0"/>
   <path id="arrow"
     d="M 11.500037,31.436501 C 11.940474,20.09759 22.043105,11.32322 32.158766,21.979434 L 37.068811,17.246167 C 37.068811,17.246167 37.088388,32 37.088388,32 L 22.160133,31.978069 C 22.160133,31.978069 26.997745,27.140456 26.997745,27.140456 C 18.528582,18.264221 13.291696,25.230495 11.500037,31.436501 z"
     style="fill:#404040;"/>
  </a>
 </g>
</svg>

<style type='text/css'>
<![CDATA[
[data-mouse-over-selected='false'] { opacity: 0.7; }
[data-mouse-over-selected='true']  { opacity: 1.0; }
]]>
</style>
<script type="application/ecmascript"><![CDATA[
document.addEventListener('DOMContentLoaded', (event) => {
  highlightEdges();
  highlightAdjacentNodes();
});
]]></script>
</svg>
