<?xml version="1.0" encoding="UTF-8" standalone="no"?>
<!DOCTYPE svg PUBLIC "-//W3C//DTD SVG 1.1//EN"
 "http://www.w3.org/Graphics/SVG/1.1/DTD/svg11.dtd">
<!-- Generated by graphviz version 2.43.0 (0)
 -->
<!-- Title: PixelController::loadAndScale Pages: 1 -->
<svg width="669pt" height="82pt"
 viewBox="0.00 0.00 669.00 82.00" xmlns="http://www.w3.org/2000/svg" xmlns:xlink="http://www.w3.org/1999/xlink">
<g id="graph0" class="graph" transform="scale(1 1) rotate(0) translate(4 78)">
<title>PixelController::loadAndScale</title>
<!-- Node1 -->
<g id="Node000001" class="node">
<title>Node1</title>
<g id="a_Node000001"><a xlink:title="Loads, dithers, and scales a single byte for a given output slot and lane, using class dither and sca...">
<polygon fill="#999999" stroke="#666666" points="134,-61.5 0,-61.5 0,-31.5 134,-31.5 134,-61.5"/>
<text text-anchor="start" x="8" y="-49.5" font-family="Helvetica,sans-Serif" font-size="10.00">PixelController::loadAnd</text>
<text text-anchor="middle" x="67" y="-38.5" font-family="Helvetica,sans-Serif" font-size="10.00">Scale</text>
</a>
</g>
</g>
<!-- Node2 -->
<g id="Node000002" class="node">
<title>Node2</title>
<g id="a_Node000002"><a xlink:href="../../d0/dee/struct_pixel_controller_ae44229e20fb4ba4473b057dcda87122e.html#ae44229e20fb4ba4473b057dcda87122e" target="_top" xlink:title="Copy constructor.">
<polygon fill="white" stroke="#666666" points="508,-56 343,-56 343,-37 508,-37 508,-56"/>
<text text-anchor="middle" x="425.5" y="-44" font-family="Helvetica,sans-Serif" font-size="10.00">PixelController::PixelController</text>
</a>
</g>
</g>
<!-- Node1&#45;&gt;Node2 -->
<g id="edge1_Node000001_Node000002" class="edge">
<title>Node1&#45;&gt;Node2</title>
<g id="a_edge1_Node000001_Node000002"><a xlink:title=" ">
<path fill="none" stroke="#63b8ff" d="M134.14,-60.65C146.03,-62.67 158.34,-64.42 170,-65.5 230.63,-71.1 246.31,-70.38 307,-65.5 326.56,-63.93 347.77,-60.91 366.72,-57.73"/>
<polygon fill="#63b8ff" stroke="#63b8ff" points="367.43,-61.16 376.69,-56.01 366.24,-54.26 367.43,-61.16"/>
</a>
</g>
</g>
<!-- Node4 -->
<g id="Node000004" class="node">
<title>Node4</title>
<g id="a_Node000004"><a xlink:href="../../d0/dee/struct_pixel_controller_aa2a1b38058a62a4337605425e482202f.html#aa2a1b38058a62a4337605425e482202f" target="_top" xlink:title="Calculate a dither value using the per&#45;channel dither data.">
<polygon fill="white" stroke="#666666" points="299.5,-19 177.5,-19 177.5,0 299.5,0 299.5,-19"/>
<text text-anchor="middle" x="238.5" y="-7" font-family="Helvetica,sans-Serif" font-size="10.00">PixelController::dither</text>
</a>
</g>
</g>
<!-- Node1&#45;&gt;Node4 -->
<g id="edge4_Node000001_Node000004" class="edge">
<title>Node1&#45;&gt;Node4</title>
<g id="a_edge4_Node000001_Node000004"><a xlink:title=" ">
<path fill="none" stroke="#63b8ff" d="M134.02,-32.09C150.49,-28.49 167.95,-24.68 183.75,-21.23"/>
<polygon fill="#63b8ff" stroke="#63b8ff" points="184.84,-24.58 193.86,-19.03 183.35,-17.74 184.84,-24.58"/>
</a>
</g>
</g>
<!-- Node6 -->
<g id="Node000006" class="node">
<title>Node6</title>
<g id="a_Node000006"><a xlink:href="../../d0/dee/struct_pixel_controller_a75ef76fbecdc9b39b01eeab216845d9d.html#a75ef76fbecdc9b39b01eeab216845d9d" target="_top" xlink:title="Read a byte of LED data.">
<polygon fill="white" stroke="#666666" points="307,-56 170,-56 170,-37 307,-37 307,-56"/>
<text text-anchor="middle" x="238.5" y="-44" font-family="Helvetica,sans-Serif" font-size="10.00">PixelController::loadByte</text>
</a>
</g>
</g>
<!-- Node1&#45;&gt;Node6 -->
<g id="edge7_Node000001_Node000006" class="edge">
<title>Node1&#45;&gt;Node6</title>
<g id="a_edge7_Node000001_Node000006"><a xlink:title=" ">
<path fill="none" stroke="#63b8ff" d="M134.02,-46.5C142.5,-46.5 151.25,-46.5 159.9,-46.5"/>
<polygon fill="#63b8ff" stroke="#63b8ff" points="159.99,-50 169.99,-46.5 159.99,-43 159.99,-50"/>
</a>
</g>
</g>
<!-- Node2&#45;&gt;Node2 -->
<g id="edge2_Node000002_Node000002" class="edge">
<title>Node2&#45;&gt;Node2</title>
<g id="a_edge2_Node000002_Node000002"><a xlink:title=" ">
<path fill="none" stroke="#63b8ff" d="M398.37,-56.08C385.18,-64.73 394.22,-74 425.5,-74 446.52,-74 457.5,-69.82 458.43,-64.45"/>
<polygon fill="#63b8ff" stroke="#63b8ff" points="461.2,-62.3 452.63,-56.08 455.45,-66.29 461.2,-62.3"/>
</a>
</g>
</g>
<!-- Node3 -->
<g id="Node000003" class="node">
<title>Node3</title>
<g id="a_Node000003"><a xlink:href="../../d0/dee/struct_pixel_controller_af3310e3a869dfeafae981291b76b572d.html#af3310e3a869dfeafae981291b76b572d" target="_top" xlink:title=" ">
<polygon fill="white" stroke="#666666" points="661,-56 544,-56 544,-37 661,-37 661,-56"/>
<text text-anchor="middle" x="602.5" y="-44" font-family="Helvetica,sans-Serif" font-size="10.00">PixelController::copy</text>
</a>
</g>
</g>
<!-- Node2&#45;&gt;Node3 -->
<g id="edge3_Node000002_Node000003" class="edge">
<title>Node2&#45;&gt;Node3</title>
<g id="a_edge3_Node000002_Node000003"><a xlink:title=" ">
<path fill="none" stroke="#63b8ff" d="M508.11,-46.5C516.72,-46.5 525.42,-46.5 533.85,-46.5"/>
<polygon fill="#63b8ff" stroke="#63b8ff" points="533.98,-50 543.98,-46.5 533.98,-43 533.98,-50"/>
</a>
</g>
</g>
<!-- Node4&#45;&gt;Node2 -->
<g id="edge5_Node000004_Node000002" class="edge">
<title>Node4&#45;&gt;Node2</title>
<g id="a_edge5_Node000004_Node000002"><a xlink:title=" ">
<path fill="none" stroke="#63b8ff" d="M287.14,-19.03C311.43,-23.89 341.17,-29.83 366.75,-34.95"/>
<polygon fill="#63b8ff" stroke="#63b8ff" points="366.21,-38.41 376.7,-36.94 367.58,-31.55 366.21,-38.41"/>
</a>
</g>
</g>
<!-- Node5 -->
<g id="Node000005" class="node">
<title>Node5</title>
<g id="a_Node000005"><a xlink:href="../../d5/d98/group___math_ga07133b3085824d0fcd4f5086d286c4b5.html#ga07133b3085824d0fcd4f5086d286c4b5" target="_top" xlink:title="Add one byte to another, saturating at 0xFF.">
<polygon fill="white" stroke="#666666" points="449,-19 402,-19 402,0 449,0 449,-19"/>
<text text-anchor="middle" x="425.5" y="-7" font-family="Helvetica,sans-Serif" font-size="10.00">qadd8</text>
</a>
</g>
</g>
<!-- Node4&#45;&gt;Node5 -->
<g id="edge6_Node000004_Node000005" class="edge">
<title>Node4&#45;&gt;Node5</title>
<g id="a_edge6_Node000004_Node000005"><a xlink:title=" ">
<path fill="none" stroke="#63b8ff" d="M299.56,-9.5C330.03,-9.5 365.87,-9.5 391.33,-9.5"/>
<polygon fill="#63b8ff" stroke="#63b8ff" points="391.56,-13 401.56,-9.5 391.56,-6 391.56,-13"/>
</a>
</g>
</g>
<!-- Node6&#45;&gt;Node2 -->
<g id="edge8_Node000006_Node000002" class="edge">
<title>Node6&#45;&gt;Node2</title>
<g id="a_edge8_Node000006_Node000002"><a xlink:title=" ">
<path fill="none" stroke="#63b8ff" d="M307.07,-46.5C315.46,-46.5 324.14,-46.5 332.81,-46.5"/>
<polygon fill="#63b8ff" stroke="#63b8ff" points="332.96,-50 342.96,-46.5 332.96,-43 332.96,-50"/>
</a>
</g>
</g>
</g>
</svg>
