<?xml version="1.0" encoding="UTF-8" standalone="no"?>
<!DOCTYPE svg PUBLIC "-//W3C//DTD SVG 1.1//EN"
 "http://www.w3.org/Graphics/SVG/1.1/DTD/svg11.dtd">
<!-- Generated by graphviz version 2.43.0 (0)
 -->
<!-- Title: AVRSoftwareSPIOutput::writeBytePostWait Pages: 1 -->
<svg width="585pt" height="118pt"
 viewBox="0.00 0.00 585.00 117.50" xmlns="http://www.w3.org/2000/svg" xmlns:xlink="http://www.w3.org/1999/xlink">
<g id="graph0" class="graph" transform="scale(1 1) rotate(0) translate(4 113.5)">
<title>AVRSoftwareSPIOutput::writeBytePostWait</title>
<!-- Node1 -->
<g id="Node000001" class="node">
<title>Node1</title>
<g id="a_Node000001"><a xlink:title="Write a single byte over SPI and wait afterwards.">
<polygon fill="#999999" stroke="#666666" points="127,-85.5 0,-85.5 0,-55.5 127,-55.5 127,-85.5"/>
<text text-anchor="start" x="8" y="-73.5" font-family="Helvetica,sans-Serif" font-size="10.00">AVRSoftwareSPIOutput</text>
<text text-anchor="middle" x="63.5" y="-62.5" font-family="Helvetica,sans-Serif" font-size="10.00">::writeBytePostWait</text>
</a>
</g>
</g>
<!-- Node2 -->
<g id="Node000002" class="node">
<title>Node2</title>
<g id="a_Node000002"><a xlink:href="../../dc/d57/class_a_v_r_software_s_p_i_output_a15951c5c76cc43be5b8812d29da716dc.html#a15951c5c76cc43be5b8812d29da716dc" target="_top" xlink:title="Wait until the SPI subsystem is ready for more data to write.">
<polygon fill="white" stroke="#666666" points="290,-109.5 163,-109.5 163,-79.5 290,-79.5 290,-109.5"/>
<text text-anchor="start" x="171" y="-97.5" font-family="Helvetica,sans-Serif" font-size="10.00">AVRSoftwareSPIOutput</text>
<text text-anchor="middle" x="226.5" y="-86.5" font-family="Helvetica,sans-Serif" font-size="10.00">::wait</text>
</a>
</g>
</g>
<!-- Node1&#45;&gt;Node2 -->
<g id="edge1_Node000001_Node000002" class="edge">
<title>Node1&#45;&gt;Node2</title>
<g id="a_edge1_Node000001_Node000002"><a xlink:title=" ">
<path fill="none" stroke="#63b8ff" d="M127.21,-79.85C135.65,-81.11 144.36,-82.41 152.96,-83.69"/>
<polygon fill="#63b8ff" stroke="#63b8ff" points="152.56,-87.17 162.96,-85.18 153.59,-80.24 152.56,-87.17"/>
</a>
</g>
</g>
<!-- Node3 -->
<g id="Node000003" class="node">
<title>Node3</title>
<g id="a_Node000003"><a xlink:href="../../dc/d57/class_a_v_r_software_s_p_i_output_a58393081ec8c54bd6968642b89e8bd43.html#a58393081ec8c54bd6968642b89e8bd43" target="_top" xlink:title="Write a single byte over SPI.">
<polygon fill="white" stroke="#666666" points="290,-61.5 163,-61.5 163,-31.5 290,-31.5 290,-61.5"/>
<text text-anchor="start" x="171" y="-49.5" font-family="Helvetica,sans-Serif" font-size="10.00">AVRSoftwareSPIOutput</text>
<text text-anchor="middle" x="226.5" y="-38.5" font-family="Helvetica,sans-Serif" font-size="10.00">::writeByte</text>
</a>
</g>
</g>
<!-- Node1&#45;&gt;Node3 -->
<g id="edge2_Node000001_Node000003" class="edge">
<title>Node1&#45;&gt;Node3</title>
<g id="a_edge2_Node000001_Node000003"><a xlink:title=" ">
<path fill="none" stroke="#63b8ff" d="M127.21,-61.15C135.65,-59.89 144.36,-58.59 152.96,-57.31"/>
<polygon fill="#63b8ff" stroke="#63b8ff" points="153.59,-60.76 162.96,-55.82 152.56,-53.83 153.59,-60.76"/>
</a>
</g>
</g>
<!-- Node4 -->
<g id="Node000004" class="node">
<title>Node4</title>
<g id="a_Node000004"><a xlink:href="../../dc/d57/class_a_v_r_software_s_p_i_output_ad13d8cd559302413e8c885aab5ad7497.html#ad13d8cd559302413e8c885aab5ad7497" target="_top" xlink:title="Write the BIT&#39;th bit out via SPI, setting the data pin then strobing the clock.">
<polygon fill="white" stroke="#666666" points="453,-61.5 326,-61.5 326,-31.5 453,-31.5 453,-61.5"/>
<text text-anchor="start" x="334" y="-49.5" font-family="Helvetica,sans-Serif" font-size="10.00">AVRSoftwareSPIOutput</text>
<text text-anchor="middle" x="389.5" y="-38.5" font-family="Helvetica,sans-Serif" font-size="10.00">::writeBit</text>
</a>
</g>
</g>
<!-- Node3&#45;&gt;Node4 -->
<g id="edge3_Node000003_Node000004" class="edge">
<title>Node3&#45;&gt;Node4</title>
<g id="a_edge3_Node000003_Node000004"><a xlink:title=" ">
<path fill="none" stroke="#63b8ff" d="M290.21,-46.5C298.65,-46.5 307.36,-46.5 315.96,-46.5"/>
<polygon fill="#63b8ff" stroke="#63b8ff" points="315.96,-50 325.96,-46.5 315.96,-43 315.96,-50"/>
</a>
</g>
</g>
<!-- Node5 -->
<g id="Node000005" class="node">
<title>Node5</title>
<g id="a_Node000005"><a xlink:href="../../db/d3b/class_fast_pin_add52474362013eb37903fc832e2abdc2.html#add52474362013eb37903fc832e2abdc2" target="_top" xlink:title="Set the pin state to HIGH">
<polygon fill="white" stroke="#666666" points="566,-93 500,-93 500,-74 566,-74 566,-93"/>
<text text-anchor="middle" x="533" y="-81" font-family="Helvetica,sans-Serif" font-size="10.00">FastPin::hi</text>
</a>
</g>
</g>
<!-- Node4&#45;&gt;Node5 -->
<g id="edge4_Node000004_Node000005" class="edge">
<title>Node4&#45;&gt;Node5</title>
<g id="a_edge4_Node000004_Node000005"><a xlink:title=" ">
<path fill="none" stroke="#63b8ff" d="M448.05,-61.55C462.08,-65.22 476.82,-69.07 489.97,-72.51"/>
<polygon fill="#63b8ff" stroke="#63b8ff" points="489.11,-75.9 499.67,-75.05 490.88,-69.13 489.11,-75.9"/>
</a>
</g>
</g>
<!-- Node6 -->
<g id="Node000006" class="node">
<title>Node6</title>
<g id="a_Node000006"><a xlink:href="../../db/d3b/class_fast_pin_aa7420ec06218b5201f7f54cf6f4bfb86.html#aa7420ec06218b5201f7f54cf6f4bfb86" target="_top" xlink:title="Set the pin state to LOW">
<polygon fill="white" stroke="#666666" points="566,-56 500,-56 500,-37 566,-37 566,-56"/>
<text text-anchor="middle" x="533" y="-44" font-family="Helvetica,sans-Serif" font-size="10.00">FastPin::lo</text>
</a>
</g>
</g>
<!-- Node4&#45;&gt;Node6 -->
<g id="edge5_Node000004_Node000006" class="edge">
<title>Node4&#45;&gt;Node6</title>
<g id="a_edge5_Node000004_Node000006"><a xlink:title=" ">
<path fill="none" stroke="#63b8ff" d="M453.39,-46.5C465.71,-46.5 478.35,-46.5 489.79,-46.5"/>
<polygon fill="#63b8ff" stroke="#63b8ff" points="489.92,-50 499.92,-46.5 489.92,-43 489.92,-50"/>
</a>
</g>
</g>
<!-- Node7 -->
<g id="Node000007" class="node">
<title>Node7</title>
<g id="a_Node000007"><a xlink:href="../../db/d3b/class_fast_pin_a25b537b13a05155051cc663b4877f79f.html#a25b537b13a05155051cc663b4877f79f" target="_top" xlink:title="Toggle the pin.">
<polygon fill="white" stroke="#666666" points="577,-19 489,-19 489,0 577,0 577,-19"/>
<text text-anchor="middle" x="533" y="-7" font-family="Helvetica,sans-Serif" font-size="10.00">FastPin::toggle</text>
</a>
</g>
</g>
<!-- Node4&#45;&gt;Node7 -->
<g id="edge6_Node000004_Node000007" class="edge">
<title>Node4&#45;&gt;Node7</title>
<g id="a_edge6_Node000004_Node000007"><a xlink:title=" ">
<path fill="none" stroke="#63b8ff" d="M448.05,-31.45C460.61,-28.17 473.73,-24.74 485.78,-21.59"/>
<polygon fill="#63b8ff" stroke="#63b8ff" points="486.82,-24.93 495.61,-19.02 485.05,-18.16 486.82,-24.93"/>
</a>
</g>
</g>
</g>
</svg>
