<?xml version="1.0" encoding="UTF-8" standalone="no"?>
<!DOCTYPE svg PUBLIC "-//W3C//DTD SVG 1.1//EN"
 "http://www.w3.org/Graphics/SVG/1.1/DTD/svg11.dtd">
<!-- Generated by graphviz version 2.43.0 (0)
 -->
<!-- Title: AVRSoftwareSPIOutput::writeBytesValue Pages: 1 -->
<!--zoomable 214 -->

<svg id="main" version="1.1" xmlns="http://www.w3.org/2000/svg" xmlns:xlink="http://www.w3.org/1999/xlink" xml:space="preserve" onload="init(evt)">

<style type="text/css"><![CDATA[
.node, .edge {opacity: 0.7;}
.node.selected, .edge.selected {opacity: 1;}
.edge:hover path { stroke: red; }
.edge:hover polygon { stroke: red; fill: red; }
]]></style>

<defs>
  <circle id="rim" cx="0" cy="0" r="7"/>
  <circle id="rim2" cx="0" cy="0" r="3.5"/>
  <g id="zoomPlus">
    <use xlink:href="#rim" fill="#404040"><set attributeName="fill" to="#808080" begin="zoomplus.mouseover" end="zoomplus.mouseout"/></use>
    <path d="M-4,0h8M0,-4v8" fill="none" stroke="white" stroke-width="1.5" pointer-events="none"/>
  </g>
  <g id="zoomMin">
    <use xlink:href="#rim" fill="#404040"><set attributeName="fill" to="#808080" begin="zoomminus.mouseover" end="zoomminus.mouseout"/></use>
    <path d="M-4,0h8" fill="none" stroke="white" stroke-width="1.5" pointer-events="none"/>
  </g>
  <g id="arrowUp" transform="translate(30 24)">
    <use xlink:href="#rim"/>
    <path pointer-events="none" fill="none" stroke="white" stroke-width="1.5" d="M0,-3.0v7 M-2.5,-0.5L0,-3.0L2.5,-0.5"/>
  </g>
  <g id="arrowRight" transform="rotate(90) translate(36 -43)">
    <use xlink:href="#rim"/>
    <path pointer-events="none" fill="none" stroke="white" stroke-width="1.5" d="M0,-3.0v7 M-2.5,-0.5L0,-3.0L2.5,-0.5"/>
  </g>
  <g id="arrowDown" transform="rotate(180) translate(-30 -48)">
    <use xlink:href="#rim"/>
    <path pointer-events="none" fill="none" stroke="white" stroke-width="1.5" d="M0,-3.0v7 M-2.5,-0.5L0,-3.0L2.5,-0.5"/>
  </g>
  <g id="arrowLeft" transform="rotate(270) translate(-36 17)">
    <use xlink:href="#rim"/>
    <path pointer-events="none" fill="none" stroke="white" stroke-width="1.5" d="M0,-3.0v7 M-2.5,-0.5L0,-3.0L2.5,-0.5"/>
  </g>
  <g id="resetDef">
    <use xlink:href="#rim2" fill="#404040"><set attributeName="fill" to="#808080" begin="reset.mouseover" end="reset.mouseout"/></use>
  </g>
</defs>
<script type="application/ecmascript">
var viewWidth = 624;
var viewHeight = 214;
var sectionId = 'dynsection-0';
</script>
<script type="application/ecmascript" xlink:href="../../svg.min.js"/>
<svg id="graph" class="graph">
<g id="viewport">
<title>AVRSoftwareSPIOutput::writeBytesValue</title>
<!-- Node1 -->
<g id="Node000001" class="node">
<title>Node1</title>
<g id="a_Node000001"><a xlink:title="Write multiple bytes of the given value over SPI.">
<polygon fill="#999999" stroke="#666666" points="127,-158 0,-158 0,-128 127,-128 127,-158"/>
<text text-anchor="start" x="8" y="-146" font-family="Helvetica,sans-Serif" font-size="10.00">AVRSoftwareSPIOutput</text>
<text text-anchor="middle" x="63.5" y="-135" font-family="Helvetica,sans-Serif" font-size="10.00">::writeBytesValue</text>
</a>
</g>
</g>
<!-- Node2 -->
<g id="Node000002" class="node">
<title>Node2</title>
<g id="a_Node000002"><a xlink:href="../../dc/d57/class_a_v_r_software_s_p_i_output_a677ab5b52bbd6011d48c3a14e3ebdcb2.html#a677ab5b52bbd6011d48c3a14e3ebdcb2" target="_top" xlink:title="Release the SPI chip select line.">
<polygon fill="white" stroke="#666666" points="290,-206 163,-206 163,-176 290,-176 290,-206"/>
<text text-anchor="start" x="171" y="-194" font-family="Helvetica,sans-Serif" font-size="10.00">AVRSoftwareSPIOutput</text>
<text text-anchor="middle" x="226.5" y="-183" font-family="Helvetica,sans-Serif" font-size="10.00">::release</text>
</a>
</g>
</g>
<!-- Node1&#45;&gt;Node2 -->
<g id="edge1_Node000001_Node000002" class="edge">
<title>Node1&#45;&gt;Node2</title>
<g id="a_edge1_Node000001_Node000002"><a xlink:title=" ">
<path fill="none" stroke="#63b8ff" d="M115,-158.06C131.03,-162.84 148.92,-168.17 165.55,-173.13"/>
<polygon fill="#63b8ff" stroke="#63b8ff" points="164.6,-176.49 175.18,-176 166.6,-169.79 164.6,-176.49"/>
</a>
</g>
</g>
<!-- Node3 -->
<g id="Node000003" class="node">
<title>Node3</title>
<g id="a_Node000003"><a xlink:href="../../dc/d57/class_a_v_r_software_s_p_i_output_a15872bb6ae69fd5a5c04b246fe73740e.html#a15872bb6ae69fd5a5c04b246fe73740e" target="_top" xlink:title="Select the SPI output (chip select)">
<polygon fill="white" stroke="#666666" points="290,-158 163,-158 163,-128 290,-128 290,-158"/>
<text text-anchor="start" x="171" y="-146" font-family="Helvetica,sans-Serif" font-size="10.00">AVRSoftwareSPIOutput</text>
<text text-anchor="middle" x="226.5" y="-135" font-family="Helvetica,sans-Serif" font-size="10.00">::select</text>
</a>
</g>
</g>
<!-- Node1&#45;&gt;Node3 -->
<g id="edge2_Node000001_Node000003" class="edge">
<title>Node1&#45;&gt;Node3</title>
<g id="a_edge2_Node000001_Node000003"><a xlink:title=" ">
<path fill="none" stroke="#63b8ff" d="M127.21,-143C135.65,-143 144.36,-143 152.96,-143"/>
<polygon fill="#63b8ff" stroke="#63b8ff" points="152.96,-146.5 162.96,-143 152.96,-139.5 152.96,-146.5"/>
</a>
</g>
</g>
<!-- Node4 -->
<g id="Node000004" class="node">
<title>Node4</title>
<g id="a_Node000004"><a xlink:href="../../dc/d57/class_a_v_r_software_s_p_i_output_abada62794ed922c2798bf462a98b57f0.html#abada62794ed922c2798bf462a98b57f0" target="_top" xlink:title="Write multiple bytes of the given value over SPI, without selecting the interface.">
<polygon fill="white" stroke="#666666" points="290,-110 163,-110 163,-80 290,-80 290,-110"/>
<text text-anchor="start" x="171" y="-98" font-family="Helvetica,sans-Serif" font-size="10.00">AVRSoftwareSPIOutput</text>
<text text-anchor="middle" x="226.5" y="-87" font-family="Helvetica,sans-Serif" font-size="10.00">::writeBytesValueRaw</text>
</a>
</g>
</g>
<!-- Node1&#45;&gt;Node4 -->
<g id="edge3_Node000001_Node000004" class="edge">
<title>Node1&#45;&gt;Node4</title>
<g id="a_edge3_Node000001_Node000004"><a xlink:title=" ">
<path fill="none" stroke="#63b8ff" d="M115,-127.94C131.03,-123.16 148.92,-117.83 165.55,-112.87"/>
<polygon fill="#63b8ff" stroke="#63b8ff" points="166.6,-116.21 175.18,-110 164.6,-109.51 166.6,-116.21"/>
</a>
</g>
</g>
<!-- Node5 -->
<g id="Node000005" class="node">
<title>Node5</title>
<g id="a_Node000005"><a xlink:href="../../db/d3b/class_fast_pin_a2270a3882cf8646ce8abcae29cf6923a.html#a2270a3882cf8646ce8abcae29cf6923a" target="_top" xlink:title="Gets the state of the port with this pin HIGH">
<polygon fill="white" stroke="#666666" points="430,-178.5 349,-178.5 349,-159.5 430,-159.5 430,-178.5"/>
<text text-anchor="middle" x="389.5" y="-166.5" font-family="Helvetica,sans-Serif" font-size="10.00">FastPin::hival</text>
</a>
</g>
</g>
<!-- Node4&#45;&gt;Node5 -->
<g id="edge4_Node000004_Node000005" class="edge">
<title>Node4&#45;&gt;Node5</title>
<g id="a_edge4_Node000004_Node000005"><a xlink:title=" ">
<path fill="none" stroke="#63b8ff" d="M272.49,-110.01C278.54,-112.67 284.54,-115.68 290,-119 308.29,-130.13 307.25,-140.67 326,-151 330.17,-153.3 334.66,-155.33 339.25,-157.11"/>
<polygon fill="#63b8ff" stroke="#63b8ff" points="338.16,-160.44 348.76,-160.45 340.48,-153.83 338.16,-160.44"/>
</a>
</g>
</g>
<!-- Node6 -->
<g id="Node000006" class="node">
<title>Node6</title>
<g id="a_Node000006"><a xlink:href="../../db/d3b/class_fast_pin_a5148b7a0cd5fd551da455c03afc09003.html#a5148b7a0cd5fd551da455c03afc09003" target="_top" xlink:title="Gets the state of the port with this pin LOW">
<polygon fill="white" stroke="#666666" points="430,-141.5 349,-141.5 349,-122.5 430,-122.5 430,-141.5"/>
<text text-anchor="middle" x="389.5" y="-129.5" font-family="Helvetica,sans-Serif" font-size="10.00">FastPin::loval</text>
</a>
</g>
</g>
<!-- Node4&#45;&gt;Node6 -->
<g id="edge5_Node000004_Node000006" class="edge">
<title>Node4&#45;&gt;Node6</title>
<g id="a_edge5_Node000004_Node000006"><a xlink:title=" ">
<path fill="none" stroke="#63b8ff" d="M290.21,-109.41C306.43,-113.14 323.67,-117.1 339.11,-120.65"/>
<polygon fill="#63b8ff" stroke="#63b8ff" points="338.43,-124.08 348.96,-122.91 340,-117.26 338.43,-124.08"/>
</a>
</g>
</g>
<!-- Node7 -->
<g id="Node000007" class="node">
<title>Node7</title>
<g id="a_Node000007"><a xlink:href="../../db/d3b/class_fast_pin_a97fd678e7bc05979582254783a1b5e57.html#a97fd678e7bc05979582254783a1b5e57" target="_top" xlink:title="Get the pin mask.">
<polygon fill="white" stroke="#666666" points="431.5,-104.5 347.5,-104.5 347.5,-85.5 431.5,-85.5 431.5,-104.5"/>
<text text-anchor="middle" x="389.5" y="-92.5" font-family="Helvetica,sans-Serif" font-size="10.00">FastPin::mask</text>
</a>
</g>
</g>
<!-- Node4&#45;&gt;Node7 -->
<g id="edge6_Node000004_Node000007" class="edge">
<title>Node4&#45;&gt;Node7</title>
<g id="a_edge6_Node000004_Node000007"><a xlink:title=" ">
<path fill="none" stroke="#63b8ff" d="M290.21,-95C305.7,-95 322.12,-95 337.02,-95"/>
<polygon fill="#63b8ff" stroke="#63b8ff" points="337.05,-98.5 347.05,-95 337.05,-91.5 337.05,-98.5"/>
</a>
</g>
</g>
<!-- Node8 -->
<g id="Node000008" class="node">
<title>Node8</title>
<g id="a_Node000008"><a xlink:href="../../db/d3b/class_fast_pin_ab005abe848eadb60051daccb4eb7dbe8.html#ab005abe848eadb60051daccb4eb7dbe8" target="_top" xlink:title="Get the output state of the port.">
<polygon fill="white" stroke="#666666" points="428,-67.5 351,-67.5 351,-48.5 428,-48.5 428,-67.5"/>
<text text-anchor="middle" x="389.5" y="-55.5" font-family="Helvetica,sans-Serif" font-size="10.00">FastPin::port</text>
</a>
</g>
</g>
<!-- Node4&#45;&gt;Node8 -->
<g id="edge7_Node000004_Node000008" class="edge">
<title>Node4&#45;&gt;Node8</title>
<g id="a_edge7_Node000004_Node000008"><a xlink:title=" ">
<path fill="none" stroke="#63b8ff" d="M290.21,-80.59C307.01,-76.73 324.9,-72.62 340.75,-68.97"/>
<polygon fill="#63b8ff" stroke="#63b8ff" points="341.88,-72.31 350.84,-66.65 340.31,-65.48 341.88,-72.31"/>
</a>
</g>
</g>
<!-- Node9 -->
<g id="Node000009" class="node">
<title>Node9</title>
<g id="a_Node000009"><a xlink:href="../../dc/d57/class_a_v_r_software_s_p_i_output_a58393081ec8c54bd6968642b89e8bd43.html#a58393081ec8c54bd6968642b89e8bd43" target="_top" xlink:title="Write a single byte over SPI.">
<polygon fill="white" stroke="#666666" points="453,-30 326,-30 326,0 453,0 453,-30"/>
<text text-anchor="start" x="334" y="-18" font-family="Helvetica,sans-Serif" font-size="10.00">AVRSoftwareSPIOutput</text>
<text text-anchor="middle" x="389.5" y="-7" font-family="Helvetica,sans-Serif" font-size="10.00">::writeByte</text>
</a>
</g>
</g>
<!-- Node4&#45;&gt;Node9 -->
<g id="edge8_Node000004_Node000009" class="edge">
<title>Node4&#45;&gt;Node9</title>
<g id="a_edge8_Node000004_Node000009"><a xlink:title=" ">
<path fill="none" stroke="#63b8ff" d="M252.54,-79.84C272.17,-68.24 300.36,-52.22 326,-40 330.26,-37.97 334.73,-35.96 339.24,-34.01"/>
<polygon fill="#63b8ff" stroke="#63b8ff" points="340.63,-37.22 348.49,-30.11 337.92,-30.77 340.63,-37.22"/>
</a>
</g>
</g>
<!-- Node10 -->
<g id="Node000010" class="node">
<title>Node10</title>
<g id="a_Node000010"><a xlink:href="../../dc/d57/class_a_v_r_software_s_p_i_output_ad13d8cd559302413e8c885aab5ad7497.html#ad13d8cd559302413e8c885aab5ad7497" target="_top" xlink:title="Write the BIT&#39;th bit out via SPI, setting the data pin then strobing the clock.">
<polygon fill="#fff0f0" stroke="red" points="616,-30 489,-30 489,0 616,0 616,-30"/>
<text text-anchor="start" x="497" y="-18" font-family="Helvetica,sans-Serif" font-size="10.00">AVRSoftwareSPIOutput</text>
<text text-anchor="middle" x="552.5" y="-7" font-family="Helvetica,sans-Serif" font-size="10.00">::writeBit</text>
</a>
</g>
</g>
<!-- Node9&#45;&gt;Node10 -->
<g id="edge9_Node000009_Node000010" class="edge">
<title>Node9&#45;&gt;Node10</title>
<g id="a_edge9_Node000009_Node000010"><a xlink:title=" ">
<path fill="none" stroke="#63b8ff" d="M453.21,-15C461.65,-15 470.36,-15 478.96,-15"/>
<polygon fill="#63b8ff" stroke="#63b8ff" points="478.96,-18.5 488.96,-15 478.96,-11.5 478.96,-18.5"/>
</a>
</g>
</g>
</g>
</svg>

<g id="navigator" transform="translate(0 0)" fill="#404254">
  <rect fill="#f2f5e9" fill-opacity="0.5" stroke="#606060" stroke-width=".5" x="0" y="0" width="60" height="60"/>
  <use id="zoomplus" xlink:href="#zoomPlus" x="17" y="9" onmousedown="handleZoom(evt,'in')"/>
  <use id="zoomminus" xlink:href="#zoomMin" x="42" y="9" onmousedown="handleZoom(evt,'out')"/>
  <use id="reset" xlink:href="#resetDef" x="30" y="36" onmousedown="handleReset()"/>
   <use id="arrowup" xlink:href="#arrowUp" x="0" y="0" onmousedown="handlePan(0,-1)"/>
  <use id="arrowright" xlink:href="#arrowRight" x="0" y="0" onmousedown="handlePan(1,0)"/>
  <use id="arrowdown" xlink:href="#arrowDown" x="0" y="0" onmousedown="handlePan(0,1)"/>
  <use id="arrowleft" xlink:href="#arrowLeft" x="0" y="0" onmousedown="handlePan(-1,0)"/>
</g>
<svg viewBox="0 0 15 15" width="100%" height="30px" preserveAspectRatio="xMaxYMin meet">
 <g id="arrow_out" transform="scale(0.3 0.3)">
  <a xlink:href="class_a_v_r_software_s_p_i_output_ac4ffa7160697ac63bbd7734b480308bc_ac4ffa7160697ac63bbd7734b480308bc_cgraph_org.svg" target="_base">
   <rect id="button" ry="5" rx="5" y="6" x="6" height="38" width="38"
        fill="#f2f5e9" fill-opacity="0.5" stroke="#606060" stroke-width="1.0"/>
   <path id="arrow"
     d="M 11.500037,31.436501 C 11.940474,20.09759 22.043105,11.32322 32.158766,21.979434 L 37.068811,17.246167 C 37.068811,17.246167 37.088388,32 37.088388,32 L 22.160133,31.978069 C 22.160133,31.978069 26.997745,27.140456 26.997745,27.140456 C 18.528582,18.264221 13.291696,25.230495 11.500037,31.436501 z"
     style="fill:#404040;"/>
  </a>
 </g>
</svg>

<style type='text/css'>
<![CDATA[
[data-mouse-over-selected='false'] { opacity: 0.7; }
[data-mouse-over-selected='true']  { opacity: 1.0; }
]]>
</style>
<script type="application/ecmascript"><![CDATA[
document.addEventListener('DOMContentLoaded', (event) => {
  highlightEdges();
  highlightAdjacentNodes();
});
]]></script>
</svg>
