<?xml version="1.0" encoding="UTF-8" standalone="no"?>
<!DOCTYPE svg PUBLIC "-//W3C//DTD SVG 1.1//EN"
 "http://www.w3.org/Graphics/SVG/1.1/DTD/svg11.dtd">
<!-- Generated by graphviz version 2.43.0 (0)
 -->
<!-- Title: AVRSoftwareSPIOutput::writeBytes Pages: 1 -->
<svg width="624pt" height="283pt"
 viewBox="0.00 0.00 624.00 282.50" xmlns="http://www.w3.org/2000/svg" xmlns:xlink="http://www.w3.org/1999/xlink">
<g id="graph0" class="graph" transform="scale(1 1) rotate(0) translate(4 278.5)">
<title>AVRSoftwareSPIOutput::writeBytes</title>
<!-- Node1 -->
<g id="Node000001" class="node">
<title>Node1</title>
<g id="a_Node000001"><a xlink:title="Write an array of data to the SPI interface.">
<polygon fill="#999999" stroke="#666666" points="127,-169 0,-169 0,-139 127,-139 127,-169"/>
<text text-anchor="start" x="8" y="-157" font-family="Helvetica,sans-Serif" font-size="10.00">AVRSoftwareSPIOutput</text>
<text text-anchor="middle" x="63.5" y="-146" font-family="Helvetica,sans-Serif" font-size="10.00">::writeBytes</text>
</a>
</g>
</g>
<!-- Node2 -->
<g id="Node000002" class="node">
<title>Node2</title>
<g id="a_Node000002"><a xlink:href="../../dc/d57/class_a_v_r_software_s_p_i_output_af543930d08c9ce5c8229e45be97980e9.html#af543930d08c9ce5c8229e45be97980e9" target="_top" xlink:title="Write an array of data to the SPI interface.">
<polygon fill="white" stroke="#666666" points="290,-169 163,-169 163,-139 290,-139 290,-169"/>
<text text-anchor="start" x="171" y="-157" font-family="Helvetica,sans-Serif" font-size="10.00">AVRSoftwareSPIOutput</text>
<text text-anchor="middle" x="226.5" y="-146" font-family="Helvetica,sans-Serif" font-size="10.00">::writeBytes</text>
</a>
</g>
</g>
<!-- Node1&#45;&gt;Node2 -->
<g id="edge1_Node000001_Node000002" class="edge">
<title>Node1&#45;&gt;Node2</title>
<g id="a_edge1_Node000001_Node000002"><a xlink:title=" ">
<path fill="none" stroke="#63b8ff" d="M127.21,-154C135.65,-154 144.36,-154 152.96,-154"/>
<polygon fill="#63b8ff" stroke="#63b8ff" points="152.96,-157.5 162.96,-154 152.96,-150.5 152.96,-157.5"/>
</a>
</g>
</g>
<!-- Node3 -->
<g id="Node000003" class="node">
<title>Node3</title>
<g id="a_Node000003"><a xlink:href="../../db/d3b/class_fast_pin_a2270a3882cf8646ce8abcae29cf6923a.html#a2270a3882cf8646ce8abcae29cf6923a" target="_top" xlink:title="Gets the state of the port with this pin HIGH">
<polygon fill="white" stroke="#666666" points="430,-274.5 349,-274.5 349,-255.5 430,-255.5 430,-274.5"/>
<text text-anchor="middle" x="389.5" y="-262.5" font-family="Helvetica,sans-Serif" font-size="10.00">FastPin::hival</text>
</a>
</g>
</g>
<!-- Node2&#45;&gt;Node3 -->
<g id="edge2_Node000002_Node000003" class="edge">
<title>Node2&#45;&gt;Node3</title>
<g id="a_edge2_Node000002_Node000003"><a xlink:title=" ">
<path fill="none" stroke="#63b8ff" d="M239.52,-169.21C256.6,-189.81 289.84,-226.37 326,-247 330.19,-249.39 334.73,-251.49 339.37,-253.32"/>
<polygon fill="#63b8ff" stroke="#63b8ff" points="338.4,-256.69 348.99,-256.72 340.73,-250.09 338.4,-256.69"/>
</a>
</g>
</g>
<!-- Node4 -->
<g id="Node000004" class="node">
<title>Node4</title>
<g id="a_Node000004"><a xlink:href="../../db/d3b/class_fast_pin_a5148b7a0cd5fd551da455c03afc09003.html#a5148b7a0cd5fd551da455c03afc09003" target="_top" xlink:title="Gets the state of the port with this pin LOW">
<polygon fill="white" stroke="#666666" points="430,-237.5 349,-237.5 349,-218.5 430,-218.5 430,-237.5"/>
<text text-anchor="middle" x="389.5" y="-225.5" font-family="Helvetica,sans-Serif" font-size="10.00">FastPin::loval</text>
</a>
</g>
</g>
<!-- Node2&#45;&gt;Node4 -->
<g id="edge3_Node000002_Node000004" class="edge">
<title>Node2&#45;&gt;Node4</title>
<g id="a_edge3_Node000002_Node000004"><a xlink:title=" ">
<path fill="none" stroke="#63b8ff" d="M250.58,-169.21C270.05,-181.52 298.99,-198.62 326,-210 330.51,-211.9 335.29,-213.67 340.11,-215.31"/>
<polygon fill="#63b8ff" stroke="#63b8ff" points="339.4,-218.76 349.99,-218.46 341.53,-212.09 339.4,-218.76"/>
</a>
</g>
</g>
<!-- Node5 -->
<g id="Node000005" class="node">
<title>Node5</title>
<g id="a_Node000005"><a xlink:href="../../db/d3b/class_fast_pin_a97fd678e7bc05979582254783a1b5e57.html#a97fd678e7bc05979582254783a1b5e57" target="_top" xlink:title="Get the pin mask.">
<polygon fill="white" stroke="#666666" points="431.5,-200.5 347.5,-200.5 347.5,-181.5 431.5,-181.5 431.5,-200.5"/>
<text text-anchor="middle" x="389.5" y="-188.5" font-family="Helvetica,sans-Serif" font-size="10.00">FastPin::mask</text>
</a>
</g>
</g>
<!-- Node2&#45;&gt;Node5 -->
<g id="edge4_Node000002_Node000005" class="edge">
<title>Node2&#45;&gt;Node5</title>
<g id="a_edge4_Node000002_Node000005"><a xlink:title=" ">
<path fill="none" stroke="#63b8ff" d="M290.21,-168.41C305.7,-171.97 322.12,-175.75 337.02,-179.17"/>
<polygon fill="#63b8ff" stroke="#63b8ff" points="336.52,-182.65 347.05,-181.47 338.09,-175.82 336.52,-182.65"/>
</a>
</g>
</g>
<!-- Node6 -->
<g id="Node000006" class="node">
<title>Node6</title>
<g id="a_Node000006"><a xlink:href="../../db/d3b/class_fast_pin_ab005abe848eadb60051daccb4eb7dbe8.html#ab005abe848eadb60051daccb4eb7dbe8" target="_top" xlink:title="Get the output state of the port.">
<polygon fill="white" stroke="#666666" points="428,-163.5 351,-163.5 351,-144.5 428,-144.5 428,-163.5"/>
<text text-anchor="middle" x="389.5" y="-151.5" font-family="Helvetica,sans-Serif" font-size="10.00">FastPin::port</text>
</a>
</g>
</g>
<!-- Node2&#45;&gt;Node6 -->
<g id="edge5_Node000002_Node000006" class="edge">
<title>Node2&#45;&gt;Node6</title>
<g id="a_edge5_Node000002_Node000006"><a xlink:title=" ">
<path fill="none" stroke="#63b8ff" d="M290.21,-154C307.01,-154 324.9,-154 340.75,-154"/>
<polygon fill="#63b8ff" stroke="#63b8ff" points="340.84,-157.5 350.84,-154 340.84,-150.5 340.84,-157.5"/>
</a>
</g>
</g>
<!-- Node7 -->
<g id="Node000007" class="node">
<title>Node7</title>
<g id="a_Node000007"><a xlink:href="../../dc/d57/class_a_v_r_software_s_p_i_output_a677ab5b52bbd6011d48c3a14e3ebdcb2.html#a677ab5b52bbd6011d48c3a14e3ebdcb2" target="_top" xlink:title="Release the SPI chip select line.">
<polygon fill="white" stroke="#666666" points="453,-126 326,-126 326,-96 453,-96 453,-126"/>
<text text-anchor="start" x="334" y="-114" font-family="Helvetica,sans-Serif" font-size="10.00">AVRSoftwareSPIOutput</text>
<text text-anchor="middle" x="389.5" y="-103" font-family="Helvetica,sans-Serif" font-size="10.00">::release</text>
</a>
</g>
</g>
<!-- Node2&#45;&gt;Node7 -->
<g id="edge6_Node000002_Node000007" class="edge">
<title>Node2&#45;&gt;Node7</title>
<g id="a_edge6_Node000002_Node000007"><a xlink:title=" ">
<path fill="none" stroke="#63b8ff" d="M283.81,-138.96C296.31,-135.62 309.67,-132.05 322.52,-128.62"/>
<polygon fill="#63b8ff" stroke="#63b8ff" points="323.46,-131.99 332.22,-126.03 321.66,-125.23 323.46,-131.99"/>
</a>
</g>
</g>
<!-- Node8 -->
<g id="Node000008" class="node">
<title>Node8</title>
<g id="a_Node000008"><a xlink:href="../../dc/d57/class_a_v_r_software_s_p_i_output_a15872bb6ae69fd5a5c04b246fe73740e.html#a15872bb6ae69fd5a5c04b246fe73740e" target="_top" xlink:title="Select the SPI output (chip select)">
<polygon fill="white" stroke="#666666" points="453,-78 326,-78 326,-48 453,-48 453,-78"/>
<text text-anchor="start" x="334" y="-66" font-family="Helvetica,sans-Serif" font-size="10.00">AVRSoftwareSPIOutput</text>
<text text-anchor="middle" x="389.5" y="-55" font-family="Helvetica,sans-Serif" font-size="10.00">::select</text>
</a>
</g>
</g>
<!-- Node2&#45;&gt;Node8 -->
<g id="edge7_Node000002_Node000008" class="edge">
<title>Node2&#45;&gt;Node8</title>
<g id="a_edge7_Node000002_Node000008"><a xlink:title=" ">
<path fill="none" stroke="#63b8ff" d="M246.66,-139C265.92,-124.4 296.86,-102.24 326,-87 329.23,-85.31 332.6,-83.68 336.04,-82.11"/>
<polygon fill="#63b8ff" stroke="#63b8ff" points="337.45,-85.31 345.22,-78.12 334.66,-78.89 337.45,-85.31"/>
</a>
</g>
</g>
<!-- Node9 -->
<g id="Node000009" class="node">
<title>Node9</title>
<g id="a_Node000009"><a xlink:href="../../dc/d57/class_a_v_r_software_s_p_i_output_a58393081ec8c54bd6968642b89e8bd43.html#a58393081ec8c54bd6968642b89e8bd43" target="_top" xlink:title="Write a single byte over SPI.">
<polygon fill="white" stroke="#666666" points="453,-30 326,-30 326,0 453,0 453,-30"/>
<text text-anchor="start" x="334" y="-18" font-family="Helvetica,sans-Serif" font-size="10.00">AVRSoftwareSPIOutput</text>
<text text-anchor="middle" x="389.5" y="-7" font-family="Helvetica,sans-Serif" font-size="10.00">::writeByte</text>
</a>
</g>
</g>
<!-- Node2&#45;&gt;Node9 -->
<g id="edge8_Node000002_Node000009" class="edge">
<title>Node2&#45;&gt;Node9</title>
<g id="a_edge8_Node000002_Node000009"><a xlink:title=" ">
<path fill="none" stroke="#63b8ff" d="M236.86,-138.84C252.52,-114.61 286.27,-67.04 326,-39 328.08,-37.53 330.26,-36.14 332.5,-34.83"/>
<polygon fill="#63b8ff" stroke="#63b8ff" points="334.24,-37.87 341.44,-30.1 330.97,-31.68 334.24,-37.87"/>
</a>
</g>
</g>
<!-- Node10 -->
<g id="Node000010" class="node">
<title>Node10</title>
<g id="a_Node000010"><a xlink:href="../../dc/d57/class_a_v_r_software_s_p_i_output_ad13d8cd559302413e8c885aab5ad7497.html#ad13d8cd559302413e8c885aab5ad7497" target="_top" xlink:title="Write the BIT&#39;th bit out via SPI, setting the data pin then strobing the clock.">
<polygon fill="#fff0f0" stroke="red" points="616,-30 489,-30 489,0 616,0 616,-30"/>
<text text-anchor="start" x="497" y="-18" font-family="Helvetica,sans-Serif" font-size="10.00">AVRSoftwareSPIOutput</text>
<text text-anchor="middle" x="552.5" y="-7" font-family="Helvetica,sans-Serif" font-size="10.00">::writeBit</text>
</a>
</g>
</g>
<!-- Node9&#45;&gt;Node10 -->
<g id="edge9_Node000009_Node000010" class="edge">
<title>Node9&#45;&gt;Node10</title>
<g id="a_edge9_Node000009_Node000010"><a xlink:title=" ">
<path fill="none" stroke="#63b8ff" d="M453.21,-15C461.65,-15 470.36,-15 478.96,-15"/>
<polygon fill="#63b8ff" stroke="#63b8ff" points="478.96,-18.5 488.96,-15 478.96,-11.5 478.96,-18.5"/>
</a>
</g>
</g>
</g>
</svg>
