<?xml version="1.0" encoding="UTF-8" standalone="no"?>
<!DOCTYPE svg PUBLIC "-//W3C//DTD SVG 1.1//EN"
 "http://www.w3.org/Graphics/SVG/1.1/DTD/svg11.dtd">
<!-- Generated by graphviz version 2.43.0 (0)
 -->
<!-- Title: fl/circular_buffer.h Pages: 1 -->
<svg width="641pt" height="357pt"
 viewBox="0.00 0.00 640.50 357.00" xmlns="http://www.w3.org/2000/svg" xmlns:xlink="http://www.w3.org/1999/xlink">
<g id="graph0" class="graph" transform="scale(1 1) rotate(0) translate(4 353)">
<title>fl/circular_buffer.h</title>
<!-- Node1 -->
<g id="Node000001" class="node">
<title>Node1</title>
<g id="a_Node000001"><a xlink:title=" ">
<polygon fill="#999999" stroke="#666666" points="219.5,-349 115.5,-349 115.5,-330 219.5,-330 219.5,-349"/>
<text text-anchor="middle" x="167.5" y="-337" font-family="Helvetica,sans-Serif" font-size="10.00">fl/circular_buffer.h</text>
</a>
</g>
</g>
<!-- Node2 -->
<g id="Node000002" class="node">
<title>Node2</title>
<g id="a_Node000002"><a xlink:href="../../d8/db8/math__macros_8h.html" target="_top" xlink:title=" ">
<polygon fill="white" stroke="#666666" points="101,-294 0,-294 0,-275 101,-275 101,-294"/>
<text text-anchor="middle" x="50.5" y="-282" font-family="Helvetica,sans-Serif" font-size="10.00">fl/math_macros.h</text>
</a>
</g>
</g>
<!-- Node1&#45;&gt;Node2 -->
<g id="edge1_Node000001_Node000002" class="edge">
<title>Node1&#45;&gt;Node2</title>
<g id="a_edge1_Node000001_Node000002"><a xlink:title=" ">
<path fill="none" stroke="#63b8ff" d="M148.7,-329.98C129.88,-321.46 100.68,-308.23 79,-298.41"/>
<polygon fill="#63b8ff" stroke="#63b8ff" points="80.19,-295.11 69.64,-294.17 77.3,-301.48 80.19,-295.11"/>
</a>
</g>
</g>
<!-- Node3 -->
<g id="Node000003" class="node">
<title>Node3</title>
<g id="a_Node000003"><a xlink:href="../../df/d2a/namespace_8h.html" target="_top" xlink:title="Implements the FastLED namespace macros.">
<polygon fill="white" stroke="#666666" points="287,-184 196,-184 196,-165 287,-165 287,-184"/>
<text text-anchor="middle" x="241.5" y="-172" font-family="Helvetica,sans-Serif" font-size="10.00">fl/namespace.h</text>
</a>
</g>
</g>
<!-- Node1&#45;&gt;Node3 -->
<g id="edge2_Node000001_Node000003" class="edge">
<title>Node1&#45;&gt;Node3</title>
<g id="a_edge2_Node000001_Node000003"><a xlink:title=" ">
<path fill="none" stroke="#63b8ff" d="M171.48,-329.74C183.12,-304.09 217.31,-228.78 233.2,-193.78"/>
<polygon fill="#63b8ff" stroke="#63b8ff" points="236.55,-194.86 237.5,-184.31 230.18,-191.97 236.55,-194.86"/>
</a>
</g>
</g>
<!-- Node4 -->
<g id="Node000004" class="node">
<title>Node4</title>
<g id="a_Node000004"><a xlink:href="../../dd/d98/ptr_8h.html" target="_top" xlink:title=" ">
<polygon fill="white" stroke="#666666" points="352,-294 305,-294 305,-275 352,-275 352,-294"/>
<text text-anchor="middle" x="328.5" y="-282" font-family="Helvetica,sans-Serif" font-size="10.00">fl/ptr.h</text>
</a>
</g>
</g>
<!-- Node1&#45;&gt;Node4 -->
<g id="edge3_Node000001_Node000004" class="edge">
<title>Node1&#45;&gt;Node4</title>
<g id="a_edge3_Node000001_Node000004"><a xlink:title=" ">
<path fill="none" stroke="#63b8ff" d="M193.37,-329.98C221,-320.89 264.89,-306.44 295.11,-296.49"/>
<polygon fill="#63b8ff" stroke="#63b8ff" points="296.39,-299.75 304.8,-293.3 294.2,-293.11 296.39,-299.75"/>
</a>
</g>
</g>
<!-- Node5 -->
<g id="Node000005" class="node">
<title>Node5</title>
<g id="a_Node000005"><a xlink:title=" ">
<polygon fill="#e0e0e0" stroke="#999999" points="486.5,-19 430.5,-19 430.5,0 486.5,0 486.5,-19"/>
<text text-anchor="middle" x="458.5" y="-7" font-family="Helvetica,sans-Serif" font-size="10.00">stddef.h</text>
</a>
</g>
</g>
<!-- Node1&#45;&gt;Node5 -->
<g id="edge20_Node000001_Node000005" class="edge">
<title>Node1&#45;&gt;Node5</title>
<g id="a_edge20_Node000001_Node000005"><a xlink:title=" ">
<path fill="none" stroke="#63b8ff" d="M162.22,-329.9C151.77,-312.07 129.5,-269.46 129.5,-230.5 129.5,-230.5 129.5,-230.5 129.5,-118.5 129.5,-57.84 333.93,-25.71 420.5,-14.82"/>
<polygon fill="#63b8ff" stroke="#63b8ff" points="420.95,-18.29 430.45,-13.59 420.1,-11.34 420.95,-18.29"/>
</a>
</g>
</g>
<!-- Node7 -->
<g id="Node000007" class="node">
<title>Node7</title>
<g id="a_Node000007"><a xlink:href="../../df/dd8/stdint_8h.html" target="_top" xlink:title=" ">
<polygon fill="white" stroke="#666666" points="351,-74 298,-74 298,-55 351,-55 351,-74"/>
<text text-anchor="middle" x="324.5" y="-62" font-family="Helvetica,sans-Serif" font-size="10.00">stdint.h</text>
</a>
</g>
</g>
<!-- Node1&#45;&gt;Node7 -->
<g id="edge21_Node000001_Node000007" class="edge">
<title>Node1&#45;&gt;Node7</title>
<g id="a_edge21_Node000001_Node000007"><a xlink:title=" ">
<path fill="none" stroke="#63b8ff" d="M167.5,-329.82C167.5,-311.48 167.5,-267.44 167.5,-230.5 167.5,-230.5 167.5,-230.5 167.5,-173.5 167.5,-115.25 241.77,-86.03 288.15,-73.47"/>
<polygon fill="#63b8ff" stroke="#63b8ff" points="289.06,-76.85 297.87,-70.97 287.31,-70.08 289.06,-76.85"/>
</a>
</g>
</g>
<!-- Node4&#45;&gt;Node3 -->
<g id="edge5_Node000004_Node000003" class="edge">
<title>Node4&#45;&gt;Node3</title>
<g id="a_edge5_Node000004_Node000003"><a xlink:title=" ">
<path fill="none" stroke="#63b8ff" d="M309.47,-274.97C294.71,-267.46 274.77,-255.19 262.5,-239 252.53,-225.84 247.16,-207.71 244.35,-194.19"/>
<polygon fill="#63b8ff" stroke="#63b8ff" points="247.76,-193.36 242.55,-184.13 240.86,-194.59 247.76,-193.36"/>
</a>
</g>
</g>
<!-- Node4&#45;&gt;Node5 -->
<g id="edge4_Node000004_Node000005" class="edge">
<title>Node4&#45;&gt;Node5</title>
<g id="a_edge4_Node000004_Node000005"><a xlink:title=" ">
<path fill="none" stroke="#63b8ff" d="M352.1,-280.32C423.53,-270.06 632.5,-234.94 632.5,-175.5 632.5,-175.5 632.5,-175.5 632.5,-118.5 632.5,-55.13 548.17,-27.65 496.92,-16.8"/>
<polygon fill="#63b8ff" stroke="#63b8ff" points="497.33,-13.32 486.84,-14.79 495.96,-20.18 497.33,-13.32"/>
</a>
</g>
</g>
<!-- Node6 -->
<g id="Node000006" class="node">
<title>Node6</title>
<g id="a_Node000006"><a xlink:href="../../d0/d44/scoped__ptr_8h.html" target="_top" xlink:title=" ">
<polygon fill="white" stroke="#666666" points="491,-239 404,-239 404,-220 491,-220 491,-239"/>
<text text-anchor="middle" x="447.5" y="-227" font-family="Helvetica,sans-Serif" font-size="10.00">fl/scoped_ptr.h</text>
</a>
</g>
</g>
<!-- Node4&#45;&gt;Node6 -->
<g id="edge6_Node000004_Node000006" class="edge">
<title>Node4&#45;&gt;Node6</title>
<g id="a_edge6_Node000004_Node000006"><a xlink:title=" ">
<path fill="none" stroke="#63b8ff" d="M347.62,-274.98C366.85,-266.42 396.73,-253.11 418.81,-243.28"/>
<polygon fill="#63b8ff" stroke="#63b8ff" points="420.32,-246.44 428.03,-239.17 417.47,-240.04 420.32,-246.44"/>
</a>
</g>
</g>
<!-- Node17 -->
<g id="Node000017" class="node">
<title>Node17</title>
<g id="a_Node000017"><a xlink:href="../../d8/d0c/template__magic_8h.html" target="_top" xlink:title=" ">
<polygon fill="#fff0f0" stroke="red" points="385.5,-239 271.5,-239 271.5,-220 385.5,-220 385.5,-239"/>
<text text-anchor="middle" x="328.5" y="-227" font-family="Helvetica,sans-Serif" font-size="10.00">fl/template_magic.h</text>
</a>
</g>
</g>
<!-- Node4&#45;&gt;Node17 -->
<g id="edge19_Node000004_Node000017" class="edge">
<title>Node4&#45;&gt;Node17</title>
<g id="a_edge19_Node000004_Node000017"><a xlink:title=" ">
<path fill="none" stroke="#63b8ff" d="M328.5,-274.75C328.5,-267.8 328.5,-257.85 328.5,-249.13"/>
<polygon fill="#63b8ff" stroke="#63b8ff" points="332,-249.09 328.5,-239.09 325,-249.09 332,-249.09"/>
</a>
</g>
</g>
<!-- Node6&#45;&gt;Node3 -->
<g id="edge17_Node000006_Node000003" class="edge">
<title>Node6&#45;&gt;Node3</title>
<g id="a_edge17_Node000006_Node000003"><a xlink:title=" ">
<path fill="none" stroke="#63b8ff" d="M414.4,-219.98C379.22,-210.93 323.43,-196.58 284.78,-186.64"/>
<polygon fill="#63b8ff" stroke="#63b8ff" points="285.41,-183.18 274.86,-184.08 283.67,-189.96 285.41,-183.18"/>
</a>
</g>
</g>
<!-- Node6&#45;&gt;Node5 -->
<g id="edge7_Node000006_Node000005" class="edge">
<title>Node6&#45;&gt;Node5</title>
<g id="a_edge7_Node000006_Node000005"><a xlink:title=" ">
<path fill="none" stroke="#63b8ff" d="M491.06,-225.71C519.89,-221.33 555.71,-210.49 574.5,-184 615.78,-125.8 524.9,-54.47 480.77,-24.65"/>
<polygon fill="#63b8ff" stroke="#63b8ff" points="482.64,-21.7 472.37,-19.1 478.78,-27.53 482.64,-21.7"/>
</a>
</g>
</g>
<!-- Node6&#45;&gt;Node7 -->
<g id="edge8_Node000006_Node000007" class="edge">
<title>Node6&#45;&gt;Node7</title>
<g id="a_edge8_Node000006_Node000007"><a xlink:title=" ">
<path fill="none" stroke="#63b8ff" d="M420.9,-219.87C402.99,-212.81 380.06,-201.17 365.5,-184 340.71,-154.77 330.63,-109.71 326.75,-84.41"/>
<polygon fill="#63b8ff" stroke="#63b8ff" points="330.19,-83.74 325.37,-74.3 323.25,-84.68 330.19,-83.74"/>
</a>
</g>
</g>
<!-- Node8 -->
<g id="Node000008" class="node">
<title>Node8</title>
<g id="a_Node000008"><a xlink:href="../../da/da9/allocator_8h.html" target="_top" xlink:title=" ">
<polygon fill="#fff0f0" stroke="red" points="566,-184 489,-184 489,-165 566,-165 566,-184"/>
<text text-anchor="middle" x="527.5" y="-172" font-family="Helvetica,sans-Serif" font-size="10.00">fl/allocator.h</text>
</a>
</g>
</g>
<!-- Node6&#45;&gt;Node8 -->
<g id="edge11_Node000006_Node000008" class="edge">
<title>Node6&#45;&gt;Node8</title>
<g id="a_edge11_Node000006_Node000008"><a xlink:title=" ">
<path fill="none" stroke="#63b8ff" d="M460.35,-219.98C472.64,-211.84 491.41,-199.41 505.98,-189.76"/>
<polygon fill="#63b8ff" stroke="#63b8ff" points="508.01,-192.61 514.41,-184.17 504.14,-186.78 508.01,-192.61"/>
</a>
</g>
</g>
<!-- Node22 -->
<g id="Node000022" class="node">
<title>Node22</title>
<g id="a_Node000022"><a xlink:href="../../db/d36/inplacenew_8h.html" target="_top" xlink:title=" ">
<polygon fill="white" stroke="#666666" points="439.5,-129 359.5,-129 359.5,-110 439.5,-110 439.5,-129"/>
<text text-anchor="middle" x="399.5" y="-117" font-family="Helvetica,sans-Serif" font-size="10.00">inplacenew.h</text>
</a>
</g>
</g>
<!-- Node6&#45;&gt;Node22 -->
<g id="edge16_Node000006_Node000022" class="edge">
<title>Node6&#45;&gt;Node22</title>
<g id="a_edge16_Node000006_Node000022"><a xlink:title=" ">
<path fill="none" stroke="#63b8ff" d="M419.85,-219.98C402.92,-213.17 382.61,-201.76 372.5,-184 363.75,-168.63 374.07,-149.86 384.38,-136.73"/>
<polygon fill="#63b8ff" stroke="#63b8ff" points="387.14,-138.9 390.95,-129.01 381.81,-134.36 387.14,-138.9"/>
</a>
</g>
</g>
<!-- Node24 -->
<g id="Node000024" class="node">
<title>Node24</title>
<g id="a_Node000024"><a xlink:href="../../d4/dce/deprecated_8h.html" target="_top" xlink:title=" ">
<polygon fill="white" stroke="#666666" points="471,-184 382,-184 382,-165 471,-165 471,-184"/>
<text text-anchor="middle" x="426.5" y="-172" font-family="Helvetica,sans-Serif" font-size="10.00">fl/deprecated.h</text>
</a>
</g>
</g>
<!-- Node6&#45;&gt;Node24 -->
<g id="edge18_Node000006_Node000024" class="edge">
<title>Node6&#45;&gt;Node24</title>
<g id="a_edge18_Node000006_Node000024"><a xlink:title=" ">
<path fill="none" stroke="#63b8ff" d="M444.03,-219.75C441.22,-212.65 437.16,-202.4 433.65,-193.56"/>
<polygon fill="#63b8ff" stroke="#63b8ff" points="436.84,-192.1 429.9,-184.09 430.33,-194.68 436.84,-192.1"/>
</a>
</g>
</g>
<!-- Node7&#45;&gt;Node5 -->
<g id="edge9_Node000007_Node000005" class="edge">
<title>Node7&#45;&gt;Node5</title>
<g id="a_edge9_Node000007_Node000005"><a xlink:title=" ">
<path fill="none" stroke="#63b8ff" d="M346.03,-54.98C367.97,-46.3 402.24,-32.75 427.19,-22.88"/>
<polygon fill="#63b8ff" stroke="#63b8ff" points="428.57,-26.1 436.58,-19.17 425.99,-19.59 428.57,-26.1"/>
</a>
</g>
</g>
<!-- Node7&#45;&gt;Node7 -->
<g id="edge10_Node000007_Node000007" class="edge">
<title>Node7&#45;&gt;Node7</title>
<g id="a_edge10_Node000007_Node000007"><a xlink:title=" ">
<path fill="none" stroke="#63b8ff" d="M345.56,-74.07C357.7,-76.02 369,-72.83 369,-64.5 369,-58.58 363.29,-55.25 355.62,-54.53"/>
<polygon fill="#63b8ff" stroke="#63b8ff" points="355.41,-51.03 345.56,-54.93 355.69,-58.03 355.41,-51.03"/>
</a>
</g>
</g>
<!-- Node8&#45;&gt;Node5 -->
<g id="edge12_Node000008_Node000005" class="edge">
<title>Node8&#45;&gt;Node5</title>
<g id="a_edge12_Node000008_Node000005"><a xlink:title=" ">
<path fill="none" stroke="#63b8ff" d="M523.79,-164.74C512.93,-139.09 481.06,-63.78 466.24,-28.78"/>
<polygon fill="#63b8ff" stroke="#63b8ff" points="469.35,-27.15 462.23,-19.31 462.9,-29.88 469.35,-27.15"/>
</a>
</g>
</g>
<!-- Node8&#45;&gt;Node22 -->
<g id="edge13_Node000008_Node000022" class="edge">
<title>Node8&#45;&gt;Node22</title>
<g id="a_edge13_Node000008_Node000022"><a xlink:title=" ">
<path fill="none" stroke="#63b8ff" d="M506.93,-164.98C486.07,-156.34 453.53,-142.87 429.73,-133.02"/>
<polygon fill="#63b8ff" stroke="#63b8ff" points="431.02,-129.76 420.44,-129.17 428.34,-136.23 431.02,-129.76"/>
</a>
</g>
</g>
<!-- Node22&#45;&gt;Node5 -->
<g id="edge14_Node000022_Node000005" class="edge">
<title>Node22&#45;&gt;Node5</title>
<g id="a_edge14_Node000022_Node000005"><a xlink:title=" ">
<path fill="none" stroke="#63b8ff" d="M404.33,-109.66C414.06,-91.85 436.18,-51.37 448.94,-28.01"/>
<polygon fill="#63b8ff" stroke="#63b8ff" points="452.05,-29.61 453.77,-19.16 445.9,-26.26 452.05,-29.61"/>
</a>
</g>
</g>
<!-- Node22&#45;&gt;Node7 -->
<g id="edge15_Node000022_Node000007" class="edge">
<title>Node22&#45;&gt;Node7</title>
<g id="a_edge15_Node000022_Node000007"><a xlink:title=" ">
<path fill="none" stroke="#63b8ff" d="M387.45,-109.98C376.04,-101.92 358.67,-89.65 345.07,-80.03"/>
<polygon fill="#63b8ff" stroke="#63b8ff" points="346.96,-77.08 336.77,-74.17 342.92,-82.8 346.96,-77.08"/>
</a>
</g>
</g>
</g>
</svg>
