<?xml version="1.0" encoding="UTF-8" standalone="no"?>
<!DOCTYPE svg PUBLIC "-//W3C//DTD SVG 1.1//EN"
 "http://www.w3.org/Graphics/SVG/1.1/DTD/svg11.dtd">
<!-- Generated by graphviz version 2.43.0 (0)
 -->
<!-- Title: fl::anonymous_namespace{mp4_parser::cpp::hpp}::findBox Pages: 1 -->
<svg width="451pt" height="181pt"
 viewBox="0.00 0.00 451.00 181.00" xmlns="http://www.w3.org/2000/svg" xmlns:xlink="http://www.w3.org/1999/xlink">
<g id="graph0" class="graph" transform="scale(1 1) rotate(0) translate(4 177)">
<title>fl::anonymous_namespace{mp4_parser::cpp::hpp}::findBox</title>
<!-- Node1 -->
<g id="Node000001" class="node">
<title>Node1</title>
<g id="a_Node000001"><a xlink:title=" ">
<polygon fill="#999999" stroke="#666666" points="147,-78 0,-78 0,-37 147,-37 147,-78"/>
<text text-anchor="start" x="8" y="-66" font-family="Helvetica,sans-Serif" font-size="10.00">fl::anonymous_namespace</text>
<text text-anchor="start" x="8" y="-55" font-family="Helvetica,sans-Serif" font-size="10.00">{mp4_parser::cpp::hpp}</text>
<text text-anchor="middle" x="73.5" y="-44" font-family="Helvetica,sans-Serif" font-size="10.00">::findBox</text>
</a>
</g>
</g>
<!-- Node1&#45;&gt;Node1 -->
<g id="edge6_Node000001_Node000001" class="edge">
<title>Node1&#45;&gt;Node1</title>
<g id="a_edge6_Node000001_Node000001"><a xlink:title=" ">
<path fill="none" stroke="#63b8ff" d="M40.05,-78.1C36.4,-87.65 47.55,-96 73.5,-96 89.72,-96 100.16,-92.74 104.81,-87.96"/>
<polygon fill="#63b8ff" stroke="#63b8ff" points="108.25,-88.61 106.95,-78.1 101.41,-87.13 108.25,-88.61"/>
</a>
</g>
</g>
<!-- Node2 -->
<g id="Node000002" class="node">
<title>Node2</title>
<g id="a_Node000002"><a xlink:href="../../d5/db0/namespacefl_1_1anonymous__namespace_02mp4__parser_8cpp_8hpp_03_a20ba5d0402c957bfc616d2058edb00c4.html#a20ba5d0402c957bfc616d2058edb00c4" target="_top" xlink:title=" ">
<polygon fill="white" stroke="#666666" points="330,-78 183,-78 183,-37 330,-37 330,-78"/>
<text text-anchor="start" x="191" y="-66" font-family="Helvetica,sans-Serif" font-size="10.00">fl::anonymous_namespace</text>
<text text-anchor="start" x="191" y="-55" font-family="Helvetica,sans-Serif" font-size="10.00">{mp4_parser::cpp::hpp}</text>
<text text-anchor="middle" x="256.5" y="-44" font-family="Helvetica,sans-Serif" font-size="10.00">::boxIs</text>
</a>
</g>
</g>
<!-- Node1&#45;&gt;Node2 -->
<g id="edge1_Node000001_Node000002" class="edge">
<title>Node1&#45;&gt;Node2</title>
<g id="a_edge1_Node000001_Node000002"><a xlink:title=" ">
<path fill="none" stroke="#63b8ff" d="M147.08,-57.5C155.56,-57.5 164.26,-57.5 172.87,-57.5"/>
<polygon fill="#63b8ff" stroke="#63b8ff" points="172.91,-61 182.91,-57.5 172.91,-54 172.91,-61"/>
</a>
</g>
</g>
<!-- Node5 -->
<g id="Node000005" class="node">
<title>Node5</title>
<g id="a_Node000005"><a xlink:href="../../d4/d36/namespacefl_a3cdd970ae1ac06323addaec93ae7d4b9.html#a3cdd970ae1ac06323addaec93ae7d4b9" target="_top" xlink:title=" ">
<polygon fill="white" stroke="#666666" points="280,-19 233,-19 233,0 280,0 280,-19"/>
<text text-anchor="middle" x="256.5" y="-7" font-family="Helvetica,sans-Serif" font-size="10.00">fl::end</text>
</a>
</g>
</g>
<!-- Node1&#45;&gt;Node5 -->
<g id="edge5_Node000001_Node000005" class="edge">
<title>Node1&#45;&gt;Node5</title>
<g id="a_edge5_Node000001_Node000005"><a xlink:title=" ">
<path fill="none" stroke="#63b8ff" d="M147.09,-37.14C159.07,-33.87 171.37,-30.55 183,-27.5 196.03,-24.08 210.43,-20.47 222.94,-17.39"/>
<polygon fill="#63b8ff" stroke="#63b8ff" points="224.05,-20.72 232.93,-14.94 222.38,-13.92 224.05,-20.72"/>
</a>
</g>
</g>
<!-- Node6 -->
<g id="Node000006" class="node">
<title>Node6</title>
<g id="a_Node000006"><a xlink:href="../../d5/db0/namespacefl_1_1anonymous__namespace_02mp4__parser_8cpp_8hpp_03_a1f7e432a75b3f4145be483642b478825.html#a1f7e432a75b3f4145be483642b478825" target="_top" xlink:title=" ">
<polygon fill="white" stroke="#666666" points="330,-155 183,-155 183,-114 330,-114 330,-155"/>
<text text-anchor="start" x="191" y="-143" font-family="Helvetica,sans-Serif" font-size="10.00">fl::anonymous_namespace</text>
<text text-anchor="start" x="191" y="-132" font-family="Helvetica,sans-Serif" font-size="10.00">{mp4_parser::cpp::hpp}</text>
<text text-anchor="middle" x="256.5" y="-121" font-family="Helvetica,sans-Serif" font-size="10.00">::readU32BE</text>
</a>
</g>
</g>
<!-- Node1&#45;&gt;Node6 -->
<g id="edge7_Node000001_Node000006" class="edge">
<title>Node1&#45;&gt;Node6</title>
<g id="a_edge7_Node000001_Node000006"><a xlink:title=" ">
<path fill="none" stroke="#63b8ff" d="M120.01,-78.07C139.36,-86.7 162.21,-96.75 183,-105.5 186.62,-107.02 190.35,-108.58 194.12,-110.13"/>
<polygon fill="#63b8ff" stroke="#63b8ff" points="192.95,-113.43 203.53,-113.97 195.6,-106.95 192.95,-113.43"/>
</a>
</g>
</g>
<!-- Node2&#45;&gt;Node2 -->
<g id="edge2_Node000002_Node000002" class="edge">
<title>Node2&#45;&gt;Node2</title>
<g id="a_edge2_Node000002_Node000002"><a xlink:title=" ">
<path fill="none" stroke="#63b8ff" d="M229.3,-78.1C226.33,-87.65 235.4,-96 256.5,-96 269.69,-96 278.18,-92.74 281.96,-87.96"/>
<polygon fill="#63b8ff" stroke="#63b8ff" points="285.41,-88.55 283.7,-78.1 278.52,-87.34 285.41,-88.55"/>
</a>
</g>
</g>
<!-- Node3 -->
<g id="Node000003" class="node">
<title>Node3</title>
<g id="a_Node000003"><a xlink:href="../../d6/daf/direct_8h_ae2738c620ee3ab857c9656b3bf86a24d.html#ae2738c620ee3ab857c9656b3bf86a24d" target="_top" xlink:title=" ">
<polygon fill="white" stroke="#666666" points="426.5,-134 382.5,-134 382.5,-115 426.5,-115 426.5,-134"/>
<text text-anchor="middle" x="404.5" y="-122" font-family="Helvetica,sans-Serif" font-size="10.00">offset</text>
</a>
</g>
</g>
<!-- Node2&#45;&gt;Node3 -->
<g id="edge3_Node000002_Node000003" class="edge">
<title>Node2&#45;&gt;Node3</title>
<g id="a_edge3_Node000002_Node000003"><a xlink:title=" ">
<path fill="none" stroke="#63b8ff" d="M302.5,-78.15C325.5,-88.7 352.87,-101.27 373.31,-110.65"/>
<polygon fill="#63b8ff" stroke="#63b8ff" points="371.91,-113.86 382.46,-114.85 374.83,-107.49 371.91,-113.86"/>
</a>
</g>
</g>
<!-- Node4 -->
<g id="Node000004" class="node">
<title>Node4</title>
<g id="a_Node000004"><a xlink:href="../../d0/d08/classfl_1_1span_aef7ee7eb5254da1ba1eb4f3e0173d0ac.html#aef7ee7eb5254da1ba1eb4f3e0173d0ac" target="_top" xlink:title=" ">
<polygon fill="white" stroke="#666666" points="443,-87 366,-87 366,-68 443,-68 443,-87"/>
<text text-anchor="middle" x="404.5" y="-75" font-family="Helvetica,sans-Serif" font-size="10.00">fl::span::size</text>
</a>
</g>
</g>
<!-- Node2&#45;&gt;Node4 -->
<g id="edge4_Node000002_Node000004" class="edge">
<title>Node2&#45;&gt;Node4</title>
<g id="a_edge4_Node000002_Node000004"><a xlink:title=" ">
<path fill="none" stroke="#63b8ff" d="M330.07,-67.44C338.73,-68.63 347.39,-69.81 355.57,-70.93"/>
<polygon fill="#63b8ff" stroke="#63b8ff" points="355.27,-74.43 365.65,-72.31 356.22,-67.49 355.27,-74.43"/>
</a>
</g>
</g>
<!-- Node6&#45;&gt;Node3 -->
<g id="edge8_Node000006_Node000003" class="edge">
<title>Node6&#45;&gt;Node3</title>
<g id="a_edge8_Node000006_Node000003"><a xlink:title=" ">
<path fill="none" stroke="#63b8ff" d="M330.07,-129.53C344.91,-128.51 359.76,-127.5 372.2,-126.64"/>
<polygon fill="#63b8ff" stroke="#63b8ff" points="372.7,-130.12 382.43,-125.94 372.22,-123.13 372.7,-130.12"/>
</a>
</g>
</g>
<!-- Node6&#45;&gt;Node4 -->
<g id="edge10_Node000006_Node000004" class="edge">
<title>Node6&#45;&gt;Node4</title>
<g id="a_edge10_Node000006_Node000004"><a xlink:title=" ">
<path fill="none" stroke="#63b8ff" d="M310.21,-113.92C330.06,-106.17 352.08,-97.58 369.74,-90.68"/>
<polygon fill="#63b8ff" stroke="#63b8ff" points="371.02,-93.94 379.06,-87.04 368.47,-87.42 371.02,-93.94"/>
</a>
</g>
</g>
<!-- Node6&#45;&gt;Node6 -->
<g id="edge9_Node000006_Node000006" class="edge">
<title>Node6&#45;&gt;Node6</title>
<g id="a_edge9_Node000006_Node000006"><a xlink:title=" ">
<path fill="none" stroke="#63b8ff" d="M229.3,-155.1C226.33,-164.65 235.4,-173 256.5,-173 269.69,-173 278.18,-169.74 281.96,-164.96"/>
<polygon fill="#63b8ff" stroke="#63b8ff" points="285.41,-165.55 283.7,-155.1 278.52,-164.34 285.41,-165.55"/>
</a>
</g>
</g>
</g>
</svg>
