<?xml version="1.0" encoding="UTF-8" standalone="no"?>
<!DOCTYPE svg PUBLIC "-//W3C//DTD SVG 1.1//EN"
 "http://www.w3.org/Graphics/SVG/1.1/DTD/svg11.dtd">
<!-- Generated by graphviz version 2.43.0 (0)
 -->
<!-- Title: fl::XYRasterSparse_CRGB Pages: 1 -->
<svg width="1335pt" height="329pt"
 viewBox="0.00 0.00 1335.00 328.50" xmlns="http://www.w3.org/2000/svg" xmlns:xlink="http://www.w3.org/1999/xlink">
<g id="graph0" class="graph" transform="scale(1 1) rotate(0) translate(4 324.5)">
<title>fl::XYRasterSparse_CRGB</title>
<!-- Node1 -->
<g id="Node000001" class="node">
<title>Node1</title>
<g id="a_Node000001"><a xlink:title=" ">
<polygon fill="#999999" stroke="#666666" points="1327,-158 1188,-158 1188,-139 1327,-139 1327,-158"/>
<text text-anchor="middle" x="1257.5" y="-146" font-family="Helvetica,sans-Serif" font-size="10.00">fl::XYRasterSparse_CRGB</text>
</a>
</g>
</g>
<!-- Node2 -->
<g id="Node000002" class="node">
<title>Node2</title>
<g id="a_Node000002"><a xlink:href="../../dc/de6/classfl_1_1_hash_map.html" target="_top" xlink:title=" ">
<polygon fill="white" stroke="#666666" points="1060,-282.5 899,-282.5 899,-230.5 1060,-230.5 1060,-282.5"/>
<text text-anchor="start" x="907" y="-270.5" font-family="Helvetica,sans-Serif" font-size="10.00">fl::HashMap&lt; Key, Value,</text>
<text text-anchor="start" x="907" y="-259.5" font-family="Helvetica,sans-Serif" font-size="10.00"> HashKey, EqualToKey,</text>
<text text-anchor="start" x="907" y="-248.5" font-family="Helvetica,sans-Serif" font-size="10.00"> FASTLED_HASHMAP_INLINED</text>
<text text-anchor="middle" x="979.5" y="-237.5" font-family="Helvetica,sans-Serif" font-size="10.00">_COUNT &gt;</text>
</a>
</g>
</g>
<!-- Node2&#45;&gt;Node1 -->
<g id="edge1_Node000001_Node000002" class="edge">
<title>Node2&#45;&gt;Node1</title>
<g id="a_edge1_Node000001_Node000002"><a xlink:title=" ">
<path fill="none" stroke="#9a32cd" stroke-dasharray="5,2" d="M1056.59,-226.72C1115.39,-203.72 1193.09,-173.31 1232.04,-158.07"/>
<polygon fill="#9a32cd" stroke="#9a32cd" points="1055,-223.59 1046.96,-230.49 1057.55,-230.11 1055,-223.59"/>
</a>
</g>
<text text-anchor="middle" x="1124" y="-217.5" font-family="Helvetica,sans-Serif" font-size="10.00" fill="grey"> mSparseGrid</text>
</g>
<!-- Node3 -->
<g id="Node000003" class="node">
<title>Node3</title>
<g id="a_Node000003"><a xlink:href="../../dc/de6/classfl_1_1_hash_map.html" target="_top" xlink:title=" ">
<polygon fill="white" stroke="#666666" points="711,-264 570,-264 570,-223 711,-223 711,-264"/>
<text text-anchor="start" x="578" y="-252" font-family="Helvetica,sans-Serif" font-size="10.00">fl::HashMap&lt; Key, T,</text>
<text text-anchor="start" x="578" y="-241" font-family="Helvetica,sans-Serif" font-size="10.00"> Hash, KeyEqual, INLINED</text>
<text text-anchor="middle" x="640.5" y="-230" font-family="Helvetica,sans-Serif" font-size="10.00">_COUNT &gt;</text>
</a>
</g>
</g>
<!-- Node3&#45;&gt;Node2 -->
<g id="edge2_Node000002_Node000003" class="edge">
<title>Node3&#45;&gt;Node2</title>
<g id="a_edge2_Node000002_Node000003"><a xlink:title=" ">
<path fill="none" stroke="orange" stroke-dasharray="5,2" d="M721.28,-253.92C723.88,-254.14 726.46,-254.33 729,-254.5 785.73,-258.28 849.87,-258.71 898.91,-258.23"/>
<polygon fill="orange" stroke="orange" points="721.44,-250.42 711.16,-253 720.8,-257.39 721.44,-250.42"/>
</a>
</g>
<text text-anchor="start" x="729" y="-282.5" font-family="Helvetica,sans-Serif" font-size="10.00" fill="grey"> &lt; Key, Value, HashKey,</text>
<text text-anchor="start" x="729" y="-271.5" font-family="Helvetica,sans-Serif" font-size="10.00" fill="grey"> EqualToKey, FASTLED</text>
<text text-anchor="middle" x="805" y="-260.5" font-family="Helvetica,sans-Serif" font-size="10.00" fill="grey">_HASHMAP_INLINED_COUNT &gt;</text>
</g>
<!-- Node22 -->
<g id="Node000022" class="node">
<title>Node22</title>
<g id="a_Node000022"><a xlink:href="../../dc/de6/classfl_1_1_hash_map.html" target="_top" xlink:title=" ">
<polygon fill="white" stroke="#666666" points="1058,-174.5 901,-174.5 901,-122.5 1058,-122.5 1058,-174.5"/>
<text text-anchor="start" x="909" y="-162.5" font-family="Helvetica,sans-Serif" font-size="10.00">fl::HashMap&lt; fl::vec2</text>
<text text-anchor="start" x="909" y="-151.5" font-family="Helvetica,sans-Serif" font-size="10.00">&lt; u16 &gt;, CRGB *, fl::</text>
<text text-anchor="start" x="909" y="-140.5" font-family="Helvetica,sans-Serif" font-size="10.00">FastHash&lt; Key &gt;, fl::EqualTo</text>
<text text-anchor="middle" x="979.5" y="-129.5" font-family="Helvetica,sans-Serif" font-size="10.00">&lt; Key &gt;, kMaxCacheSize &gt;</text>
</a>
</g>
</g>
<!-- Node3&#45;&gt;Node22 -->
<g id="edge17_Node000022_Node000003" class="edge">
<title>Node3&#45;&gt;Node22</title>
<g id="a_edge17_Node000022_Node000003"><a xlink:title=" ">
<path fill="none" stroke="orange" stroke-dasharray="5,2" d="M693.32,-218.83C704.86,-214.12 717.18,-209.67 729,-206.5 794.75,-188.85 815.08,-204.5 881,-187.5 893.98,-184.15 907.54,-179.51 920.28,-174.6"/>
<polygon fill="orange" stroke="orange" points="691.69,-215.71 683.84,-222.82 694.41,-222.16 691.69,-215.71"/>
</a>
</g>
<text text-anchor="start" x="741.5" y="-242.5" font-family="Helvetica,sans-Serif" font-size="10.00" fill="grey"> &lt; fl::vec2&lt; u16 &gt;,</text>
<text text-anchor="start" x="741.5" y="-231.5" font-family="Helvetica,sans-Serif" font-size="10.00" fill="grey"> CRGB *, fl::FastHash</text>
<text text-anchor="start" x="741.5" y="-220.5" font-family="Helvetica,sans-Serif" font-size="10.00" fill="grey">&lt; Key &gt;, fl::EqualTo&lt;</text>
<text text-anchor="middle" x="805" y="-209.5" font-family="Helvetica,sans-Serif" font-size="10.00" fill="grey"> Key &gt;, kMaxCacheSize &gt;</text>
</g>
<!-- Node4 -->
<g id="Node000004" class="node">
<title>Node4</title>
<g id="a_Node000004"><a xlink:href="../../da/d18/classfl_1_1_inlined_vector.html" target="_top" xlink:title=" ">
<polygon fill="white" stroke="#666666" points="488,-320.5 327,-320.5 327,-268.5 488,-268.5 488,-320.5"/>
<text text-anchor="start" x="335" y="-308.5" font-family="Helvetica,sans-Serif" font-size="10.00">fl::InlinedVector&lt;</text>
<text text-anchor="start" x="335" y="-297.5" font-family="Helvetica,sans-Serif" font-size="10.00"> fl::HashMap::Entry,</text>
<text text-anchor="start" x="335" y="-286.5" font-family="Helvetica,sans-Serif" font-size="10.00"> FASTLED_HASHMAP_INLINED</text>
<text text-anchor="middle" x="407.5" y="-275.5" font-family="Helvetica,sans-Serif" font-size="10.00">_COUNT &gt;</text>
</a>
</g>
</g>
<!-- Node4&#45;&gt;Node3 -->
<g id="edge3_Node000003_Node000004" class="edge">
<title>Node4&#45;&gt;Node3</title>
<g id="a_edge3_Node000003_Node000004"><a xlink:title=" ">
<path fill="none" stroke="#9a32cd" stroke-dasharray="5,2" d="M498.37,-274.66C522.05,-269.43 547.25,-263.87 569.7,-258.91"/>
<polygon fill="#9a32cd" stroke="#9a32cd" points="497.33,-271.3 488.32,-276.88 498.84,-278.14 497.33,-271.3"/>
</a>
</g>
<text text-anchor="middle" x="529" y="-274.5" font-family="Helvetica,sans-Serif" font-size="10.00" fill="grey"> _buckets</text>
</g>
<!-- Node5 -->
<g id="Node000005" class="node">
<title>Node5</title>
<g id="a_Node000005"><a xlink:href="../../d3/d73/classfl_1_1_fixed_vector.html" target="_top" xlink:title=" ">
<polygon fill="#fff0f0" stroke="red" points="146,-320 0,-320 0,-279 146,-279 146,-320"/>
<text text-anchor="start" x="8" y="-308" font-family="Helvetica,sans-Serif" font-size="10.00">fl::FixedVector&lt; fl</text>
<text text-anchor="start" x="8" y="-297" font-family="Helvetica,sans-Serif" font-size="10.00">::HashMap::Entry, INLINED</text>
<text text-anchor="middle" x="73" y="-286" font-family="Helvetica,sans-Serif" font-size="10.00">_SIZE &gt;</text>
</a>
</g>
</g>
<!-- Node5&#45;&gt;Node4 -->
<g id="edge4_Node000004_Node000005" class="edge">
<title>Node5&#45;&gt;Node4</title>
<g id="a_edge4_Node000004_Node000005"><a xlink:title=" ">
<path fill="none" stroke="#9a32cd" stroke-dasharray="5,2" d="M156.36,-298.26C208.43,-297.48 275.39,-296.47 326.93,-295.7"/>
<polygon fill="#9a32cd" stroke="#9a32cd" points="156.09,-294.77 146.15,-298.42 156.2,-301.76 156.09,-294.77"/>
</a>
</g>
<text text-anchor="middle" x="236.5" y="-300.5" font-family="Helvetica,sans-Serif" font-size="10.00" fill="grey"> mFixed</text>
</g>
<!-- Node23 -->
<g id="Node000023" class="node">
<title>Node23</title>
<g id="a_Node000023"><a xlink:href="../../da/d18/classfl_1_1_inlined_vector.html" target="_top" xlink:title=" ">
<polygon fill="white" stroke="#666666" points="463.5,-156 351.5,-156 351.5,-115 463.5,-115 463.5,-156"/>
<text text-anchor="start" x="359.5" y="-144" font-family="Helvetica,sans-Serif" font-size="10.00">fl::InlinedVector&lt;</text>
<text text-anchor="start" x="359.5" y="-133" font-family="Helvetica,sans-Serif" font-size="10.00"> fl::HashMap::Entry,</text>
<text text-anchor="middle" x="407.5" y="-122" font-family="Helvetica,sans-Serif" font-size="10.00"> INLINED_COUNT &gt;</text>
</a>
</g>
</g>
<!-- Node5&#45;&gt;Node23 -->
<g id="edge11_Node000023_Node000005" class="edge">
<title>Node5&#45;&gt;Node23</title>
<g id="a_edge11_Node000023_Node000005"><a xlink:title=" ">
<path fill="none" stroke="#9a32cd" stroke-dasharray="5,2" d="M155.99,-282.91C158.69,-282.42 161.37,-281.95 164,-281.5 196.09,-275.97 285.16,-282.68 309,-260.5 336.32,-235.09 304.55,-208.3 327,-178.5 333.8,-169.48 343.06,-162.13 352.86,-156.22"/>
<polygon fill="#9a32cd" stroke="#9a32cd" points="155.35,-279.47 146.15,-284.72 156.61,-286.35 155.35,-279.47"/>
</a>
</g>
<text text-anchor="middle" x="236.5" y="-284.5" font-family="Helvetica,sans-Serif" font-size="10.00" fill="grey"> mFixed</text>
</g>
<!-- Node9 -->
<g id="Node000009" class="node">
<title>Node9</title>
<g id="a_Node000009"><a xlink:href="../../db/ddd/classfl_1_1_heap_vector.html" target="_top" xlink:title=" ">
<polygon fill="#fff0f0" stroke="red" points="128.5,-244.5 17.5,-244.5 17.5,-214.5 128.5,-214.5 128.5,-244.5"/>
<text text-anchor="start" x="25.5" y="-232.5" font-family="Helvetica,sans-Serif" font-size="10.00">fl::HeapVector&lt; fl</text>
<text text-anchor="middle" x="73" y="-221.5" font-family="Helvetica,sans-Serif" font-size="10.00">::HashMap::Entry &gt;</text>
</a>
</g>
</g>
<!-- Node9&#45;&gt;Node4 -->
<g id="edge5_Node000004_Node000009" class="edge">
<title>Node9&#45;&gt;Node4</title>
<g id="a_edge5_Node000004_Node000009"><a xlink:title=" ">
<path fill="none" stroke="#9a32cd" stroke-dasharray="5,2" d="M139.14,-227.78C187.09,-228.24 253.36,-232.53 309,-249.5 317.75,-252.17 318.8,-255.43 327,-259.5 332.94,-262.45 339.19,-265.42 345.47,-268.32"/>
<polygon fill="#9a32cd" stroke="#9a32cd" points="138.9,-224.27 128.89,-227.73 138.87,-231.27 138.9,-224.27"/>
</a>
</g>
<text text-anchor="middle" x="236.5" y="-252.5" font-family="Helvetica,sans-Serif" font-size="10.00" fill="grey"> mHeap</text>
</g>
<!-- Node9&#45;&gt;Node23 -->
<g id="edge12_Node000023_Node000009" class="edge">
<title>Node9&#45;&gt;Node23</title>
<g id="a_edge12_Node000023_Node000009"><a xlink:title=" ">
<path fill="none" stroke="#9a32cd" stroke-dasharray="5,2" d="M138.62,-217.75C147.15,-216.28 155.78,-214.83 164,-213.5 228.29,-203.13 249.09,-218 309,-192.5 318.33,-188.53 318.51,-184.04 327,-178.5 339.09,-170.61 352.76,-162.83 365.31,-156.11"/>
<polygon fill="#9a32cd" stroke="#9a32cd" points="137.93,-214.32 128.69,-219.49 139.14,-221.22 137.93,-214.32"/>
</a>
</g>
<text text-anchor="middle" x="236.5" y="-216.5" font-family="Helvetica,sans-Serif" font-size="10.00" fill="grey"> mHeap</text>
</g>
<!-- Node16 -->
<g id="Node000016" class="node">
<title>Node16</title>
<g id="a_Node000016"><a xlink:href="../../da/d18/classfl_1_1_inlined_vector.html" target="_top" xlink:title=" ">
<polygon fill="#fff0f0" stroke="red" points="128,-151.5 18,-151.5 18,-121.5 128,-121.5 128,-151.5"/>
<text text-anchor="start" x="26" y="-139.5" font-family="Helvetica,sans-Serif" font-size="10.00">fl::InlinedVector&lt;</text>
<text text-anchor="middle" x="73" y="-128.5" font-family="Helvetica,sans-Serif" font-size="10.00"> T, INLINED_SIZE &gt;</text>
</a>
</g>
</g>
<!-- Node16&#45;&gt;Node4 -->
<g id="edge6_Node000004_Node000016" class="edge">
<title>Node16&#45;&gt;Node4</title>
<g id="a_edge6_Node000004_Node000016"><a xlink:title=" ">
<path fill="none" stroke="orange" stroke-dasharray="5,2" d="M138.46,-137.71C203.67,-139.57 296.61,-144.19 309,-155.5 343.64,-187.13 298.1,-222.55 327,-259.5 329.51,-262.71 332.37,-265.63 335.49,-268.29"/>
<polygon fill="orange" stroke="orange" points="138.34,-134.21 128.25,-137.44 138.15,-141.21 138.34,-134.21"/>
</a>
</g>
<text text-anchor="start" x="164" y="-180.5" font-family="Helvetica,sans-Serif" font-size="10.00" fill="grey"> &lt; fl::HashMap::Entry,</text>
<text text-anchor="start" x="164" y="-169.5" font-family="Helvetica,sans-Serif" font-size="10.00" fill="grey"> FASTLED_HASHMAP_INLINED</text>
<text text-anchor="middle" x="236.5" y="-158.5" font-family="Helvetica,sans-Serif" font-size="10.00" fill="grey">_COUNT &gt;</text>
</g>
<!-- Node16&#45;&gt;Node23 -->
<g id="edge13_Node000023_Node000016" class="edge">
<title>Node16&#45;&gt;Node23</title>
<g id="a_edge13_Node000023_Node000016"><a xlink:title=" ">
<path fill="none" stroke="orange" stroke-dasharray="5,2" d="M136.32,-119.23C145.54,-117.27 154.97,-115.59 164,-114.5 227.98,-106.79 244.92,-107.68 309,-114.5 322.86,-115.98 337.64,-118.6 351.4,-121.5"/>
<polygon fill="orange" stroke="orange" points="135.43,-115.84 126.44,-121.45 136.96,-122.67 135.43,-115.84"/>
</a>
</g>
<text text-anchor="start" x="183" y="-128.5" font-family="Helvetica,sans-Serif" font-size="10.00" fill="grey"> &lt; fl::HashMap::Entry,</text>
<text text-anchor="middle" x="236.5" y="-117.5" font-family="Helvetica,sans-Serif" font-size="10.00" fill="grey"> INLINED_COUNT &gt;</text>
</g>
<!-- Node18 -->
<g id="Node000018" class="node">
<title>Node18</title>
<g id="a_Node000018"><a xlink:href="../../d6/dfd/structfl_1_1_hash.html" target="_top" xlink:title=" ">
<polygon fill="#fff0f0" stroke="red" points="454.5,-250 360.5,-250 360.5,-231 454.5,-231 454.5,-250"/>
<text text-anchor="middle" x="407.5" y="-238" font-family="Helvetica,sans-Serif" font-size="10.00">fl::Hash&lt; Key &gt;</text>
</a>
</g>
</g>
<!-- Node18&#45;&gt;Node3 -->
<g id="edge7_Node000003_Node000018" class="edge">
<title>Node18&#45;&gt;Node3</title>
<g id="a_edge7_Node000003_Node000018"><a xlink:title=" ">
<path fill="none" stroke="#9a32cd" stroke-dasharray="5,2" d="M465.07,-241.23C496.64,-241.64 536.23,-242.16 569.71,-242.59"/>
<polygon fill="#9a32cd" stroke="#9a32cd" points="464.74,-237.73 454.69,-241.1 464.64,-244.73 464.74,-237.73"/>
</a>
</g>
<text text-anchor="middle" x="529" y="-244.5" font-family="Helvetica,sans-Serif" font-size="10.00" fill="grey"> _hash</text>
</g>
<!-- Node20 -->
<g id="Node000020" class="node">
<title>Node20</title>
<g id="a_Node000020"><a xlink:href="../../d3/de5/structfl_1_1_equal_to.html" target="_top" xlink:title=" ">
<polygon fill="#fff0f0" stroke="red" points="461,-206 354,-206 354,-187 461,-187 461,-206"/>
<text text-anchor="middle" x="407.5" y="-194" font-family="Helvetica,sans-Serif" font-size="10.00">fl::EqualTo&lt; Key &gt;</text>
</a>
</g>
</g>
<!-- Node20&#45;&gt;Node3 -->
<g id="edge8_Node000003_Node000020" class="edge">
<title>Node20&#45;&gt;Node3</title>
<g id="a_edge8_Node000003_Node000020"><a xlink:title=" ">
<path fill="none" stroke="#9a32cd" stroke-dasharray="5,2" d="M465.18,-208.03C496.69,-214.44 536.17,-222.48 569.58,-229.27"/>
<polygon fill="#9a32cd" stroke="#9a32cd" points="465.74,-204.58 455.25,-206.01 464.35,-211.43 465.74,-204.58"/>
</a>
</g>
<text text-anchor="middle" x="529" y="-228.5" font-family="Helvetica,sans-Serif" font-size="10.00" fill="grey"> _equal</text>
</g>
<!-- Node20&#45;&gt;Node22 -->
<g id="edge16_Node000022_Node000020" class="edge">
<title>Node20&#45;&gt;Node22</title>
<g id="a_edge16_Node000022_Node000020"><a xlink:title=" ">
<path fill="none" stroke="#9a32cd" stroke-dasharray="5,2" d="M471.43,-191.88C562.02,-185.13 734.42,-171.91 881,-158.5 887.44,-157.91 894.11,-157.28 900.82,-156.62"/>
<polygon fill="#9a32cd" stroke="#9a32cd" points="471.04,-188.4 461.32,-192.63 471.56,-195.38 471.04,-188.4"/>
</a>
</g>
<text text-anchor="middle" x="640.5" y="-186.5" font-family="Helvetica,sans-Serif" font-size="10.00" fill="grey"> _equal</text>
</g>
<!-- Node22&#45;&gt;Node1 -->
<g id="edge9_Node000001_Node000022" class="edge">
<title>Node22&#45;&gt;Node1</title>
<g id="a_edge9_Node000001_Node000022"><a xlink:title=" ">
<path fill="none" stroke="#9a32cd" stroke-dasharray="5,2" d="M1068.33,-148.5C1107,-148.5 1151.76,-148.5 1187.92,-148.5"/>
<polygon fill="#9a32cd" stroke="#9a32cd" points="1068.12,-145 1058.12,-148.5 1068.12,-152 1068.12,-145"/>
</a>
</g>
<text text-anchor="middle" x="1124" y="-151.5" font-family="Helvetica,sans-Serif" font-size="10.00" fill="grey"> mCache</text>
</g>
<!-- Node23&#45;&gt;Node22 -->
<g id="edge10_Node000022_Node000023" class="edge">
<title>Node23&#45;&gt;Node22</title>
<g id="a_edge10_Node000022_Node000023"><a xlink:title=" ">
<path fill="none" stroke="#9a32cd" stroke-dasharray="5,2" d="M473.89,-136.99C579.61,-139.4 787.64,-144.15 900.77,-146.73"/>
<polygon fill="#9a32cd" stroke="#9a32cd" points="473.75,-133.49 463.67,-136.76 473.59,-140.49 473.75,-133.49"/>
</a>
</g>
<text text-anchor="middle" x="640.5" y="-144.5" font-family="Helvetica,sans-Serif" font-size="10.00" fill="grey"> _buckets</text>
</g>
<!-- Node24 -->
<g id="Node000024" class="node">
<title>Node24</title>
<g id="a_Node000024"><a xlink:href="../../d8/d95/structfl_1_1_fast_hash.html" target="_top" xlink:title=" ">
<polygon fill="white" stroke="#666666" points="697,-93 584,-93 584,-74 697,-74 697,-93"/>
<text text-anchor="middle" x="640.5" y="-81" font-family="Helvetica,sans-Serif" font-size="10.00">fl::FastHash&lt; Key &gt;</text>
</a>
</g>
</g>
<!-- Node24&#45;&gt;Node22 -->
<g id="edge14_Node000022_Node000024" class="edge">
<title>Node24&#45;&gt;Node22</title>
<g id="a_edge14_Node000022_Node000024"><a xlink:title=" ">
<path fill="none" stroke="#9a32cd" stroke-dasharray="5,2" d="M707.18,-83.36C755.89,-84.66 823.51,-89.47 881,-104.5 897.26,-108.75 914.21,-115.49 929.33,-122.44"/>
<polygon fill="#9a32cd" stroke="#9a32cd" points="707.17,-79.85 697.09,-83.13 707.01,-86.85 707.17,-79.85"/>
</a>
</g>
<text text-anchor="middle" x="805" y="-107.5" font-family="Helvetica,sans-Serif" font-size="10.00" fill="grey"> _hash</text>
</g>
<!-- Node25 -->
<g id="Node000025" class="node">
<title>Node25</title>
<g id="a_Node000025"><a xlink:href="../../d8/d95/structfl_1_1_fast_hash.html" target="_top" xlink:title=" ">
<polygon fill="white" stroke="#666666" points="458,-93 357,-93 357,-74 458,-74 458,-93"/>
<text text-anchor="middle" x="407.5" y="-81" font-family="Helvetica,sans-Serif" font-size="10.00">fl::FastHash&lt; T &gt;</text>
</a>
</g>
</g>
<!-- Node25&#45;&gt;Node24 -->
<g id="edge15_Node000024_Node000025" class="edge">
<title>Node25&#45;&gt;Node24</title>
<g id="a_edge15_Node000024_Node000025"><a xlink:title=" ">
<path fill="none" stroke="orange" stroke-dasharray="5,2" d="M468.33,-83.5C504.03,-83.5 549.04,-83.5 583.95,-83.5"/>
<polygon fill="orange" stroke="orange" points="468.06,-80 458.06,-83.5 468.06,-87 468.06,-80"/>
</a>
</g>
<text text-anchor="middle" x="529" y="-86.5" font-family="Helvetica,sans-Serif" font-size="10.00" fill="grey"> &lt; Key &gt;</text>
</g>
<!-- Node26 -->
<g id="Node000026" class="node">
<title>Node26</title>
<g id="a_Node000026"><a xlink:href="../../d2/d48/structfl_1_1rect.html" target="_top" xlink:title=" ">
<polygon fill="white" stroke="#666666" points="1023.5,-56 935.5,-56 935.5,-37 1023.5,-37 1023.5,-56"/>
<text text-anchor="middle" x="979.5" y="-44" font-family="Helvetica,sans-Serif" font-size="10.00">fl::rect&lt; u16 &gt;</text>
</a>
</g>
</g>
<!-- Node26&#45;&gt;Node1 -->
<g id="edge18_Node000001_Node000026" class="edge">
<title>Node26&#45;&gt;Node1</title>
<g id="a_edge18_Node000001_Node000026"><a xlink:title=" ">
<path fill="none" stroke="#9a32cd" stroke-dasharray="5,2" d="M1016.02,-59.63C1072.29,-80.42 1180.67,-120.48 1230.4,-138.86"/>
<polygon fill="#9a32cd" stroke="#9a32cd" points="1017.06,-56.28 1006.47,-56.1 1014.63,-62.85 1017.06,-56.28"/>
</a>
</g>
<text text-anchor="middle" x="1124" y="-118.5" font-family="Helvetica,sans-Serif" font-size="10.00" fill="grey"> mAbsoluteBounds</text>
</g>
<!-- Node27 -->
<g id="Node000027" class="node">
<title>Node27</title>
<g id="a_Node000027"><a xlink:href="../../d5/d5d/structfl_1_1vec2.html" target="_top" xlink:title=" ">
<polygon fill="white" stroke="#666666" points="686.5,-56 594.5,-56 594.5,-37 686.5,-37 686.5,-56"/>
<text text-anchor="middle" x="640.5" y="-44" font-family="Helvetica,sans-Serif" font-size="10.00">fl::vec2&lt; u16 &gt;</text>
</a>
</g>
</g>
<!-- Node27&#45;&gt;Node26 -->
<g id="edge19_Node000026_Node000027" class="edge">
<title>Node27&#45;&gt;Node26</title>
<g id="a_edge19_Node000026_Node000027"><a xlink:title=" ">
<path fill="none" stroke="#9a32cd" stroke-dasharray="5,2" d="M696.92,-46.5C763.7,-46.5 874.47,-46.5 935.27,-46.5"/>
<polygon fill="#9a32cd" stroke="#9a32cd" points="696.6,-43 686.6,-46.5 696.6,-50 696.6,-43"/>
</a>
</g>
<text text-anchor="middle" x="805" y="-60.5" font-family="Helvetica,sans-Serif" font-size="10.00" fill="grey"> mMax</text>
<text text-anchor="middle" x="805" y="-49.5" font-family="Helvetica,sans-Serif" font-size="10.00" fill="grey">mMin</text>
</g>
<!-- Node28 -->
<g id="Node000028" class="node">
<title>Node28</title>
<g id="a_Node000028"><a xlink:href="../../d5/d5d/structfl_1_1vec2.html" target="_top" xlink:title=" ">
<polygon fill="white" stroke="#666666" points="447.5,-56 367.5,-56 367.5,-37 447.5,-37 447.5,-56"/>
<text text-anchor="middle" x="407.5" y="-44" font-family="Helvetica,sans-Serif" font-size="10.00">fl::vec2&lt; T &gt;</text>
</a>
</g>
</g>
<!-- Node28&#45;&gt;Node27 -->
<g id="edge20_Node000027_Node000028" class="edge">
<title>Node28&#45;&gt;Node27</title>
<g id="a_edge20_Node000027_Node000028"><a xlink:title=" ">
<path fill="none" stroke="orange" stroke-dasharray="5,2" d="M457.84,-46.5C498.23,-46.5 554.91,-46.5 594.17,-46.5"/>
<polygon fill="orange" stroke="orange" points="457.69,-43 447.69,-46.5 457.69,-50 457.69,-43"/>
</a>
</g>
<text text-anchor="middle" x="529" y="-49.5" font-family="Helvetica,sans-Serif" font-size="10.00" fill="grey"> &lt; u16 &gt;</text>
</g>
<!-- Node29 -->
<g id="Node000029" class="node">
<title>Node29</title>
<g id="a_Node000029"><a xlink:href="../../d2/d48/structfl_1_1rect.html" target="_top" xlink:title=" ">
<polygon fill="white" stroke="#666666" points="678.5,-19 602.5,-19 602.5,0 678.5,0 678.5,-19"/>
<text text-anchor="middle" x="640.5" y="-7" font-family="Helvetica,sans-Serif" font-size="10.00">fl::rect&lt; T &gt;</text>
</a>
</g>
</g>
<!-- Node29&#45;&gt;Node26 -->
<g id="edge21_Node000026_Node000029" class="edge">
<title>Node29&#45;&gt;Node26</title>
<g id="a_edge21_Node000026_Node000029"><a xlink:title=" ">
<path fill="none" stroke="orange" stroke-dasharray="5,2" d="M688.66,-12.98C737.03,-16.74 814.4,-23.33 881,-31.5 898.85,-33.69 918.46,-36.61 935.38,-39.29"/>
<polygon fill="orange" stroke="orange" points="688.74,-9.47 678.5,-12.19 688.2,-16.45 688.74,-9.47"/>
</a>
</g>
<text text-anchor="middle" x="805" y="-34.5" font-family="Helvetica,sans-Serif" font-size="10.00" fill="grey"> &lt; u16 &gt;</text>
</g>
</g>
</svg>
