<?xml version="1.0" encoding="UTF-8" standalone="no"?>
<!DOCTYPE svg PUBLIC "-//W3C//DTD SVG 1.1//EN"
 "http://www.w3.org/Graphics/SVG/1.1/DTD/svg11.dtd">
<!-- Generated by graphviz version 2.43.0 (0)
 -->
<!-- Title: fl::SerialPort::available Pages: 1 -->
<svg width="305pt" height="236pt"
 viewBox="0.00 0.00 305.00 235.50" xmlns="http://www.w3.org/2000/svg" xmlns:xlink="http://www.w3.org/1999/xlink">

<svg id="main" version="1.1" xmlns="http://www.w3.org/2000/svg" xmlns:xlink="http://www.w3.org/1999/xlink" xml:space="preserve">

<style type="text/css"><![CDATA[
.node, .edge {opacity: 0.7;}
.node.selected, .edge.selected {opacity: 1;}
.edge:hover path { stroke: red; }
.edge:hover polygon { stroke: red; fill: red; }
]]></style>
<script type="application/ecmascript" xlink:href="../../svg.min.js"/>
<svg id="graph" class="graph">
<g id="graph0" class="graph" transform="scale(1 1) rotate(0) translate(4 231.5)">
<title>fl::SerialPort::available</title>
<!-- Node1 -->
<g id="Node000001" class="node">
<title>Node1</title>
<g id="a_Node000001"><a xlink:title="Check how many bytes are available to read.">
<polygon fill="#999999" stroke="#666666" points="297,-131.5 170,-131.5 170,-112.5 297,-112.5 297,-131.5"/>
<text text-anchor="middle" x="233.5" y="-119.5" font-family="Helvetica,sans-Serif" font-size="10.00">fl::SerialPort::available</text>
</a>
</g>
</g>
<!-- Node2 -->
<g id="Node000002" class="node">
<title>Node2</title>
<g id="a_Node000002"><a xlink:href="../../de/d67/classfl_1_1_serial_port_a591146c4165eaf7b8c3403091ca8722f.html#a591146c4165eaf7b8c3403091ca8722f" target="_top" xlink:title="Parse floating&#45;point number from serial input.">
<polygon fill="white" stroke="#666666" points="134,-227.5 0,-227.5 0,-208.5 134,-208.5 134,-227.5"/>
<text text-anchor="middle" x="67" y="-215.5" font-family="Helvetica,sans-Serif" font-size="10.00">fl::SerialPort::parseFloat</text>
</a>
</g>
</g>
<!-- Node1&#45;&gt;Node2 -->
<g id="edge1_Node000001_Node000002" class="edge">
<title>Node1&#45;&gt;Node2</title>
<g id="a_edge1_Node000001_Node000002"><a xlink:title=" ">
<path fill="none" stroke="#63b8ff" d="M215.77,-138.8C197.28,-156.47 165.88,-183.89 134,-200 127.32,-203.38 119.93,-206.18 112.59,-208.49"/>
<polygon fill="#63b8ff" stroke="#63b8ff" points="218.37,-141.16 223.09,-131.67 213.49,-136.14 218.37,-141.16"/>
</a>
</g>
</g>
<!-- Node3 -->
<g id="Node000003" class="node">
<title>Node3</title>
<g id="a_Node000003"><a xlink:href="../../de/d67/classfl_1_1_serial_port_a81d980e22fa592957c7e16eb3e46226e.html#a81d980e22fa592957c7e16eb3e46226e" target="_top" xlink:title="Parse integer from serial input.">
<polygon fill="white" stroke="#666666" points="128,-190.5 6,-190.5 6,-171.5 128,-171.5 128,-190.5"/>
<text text-anchor="middle" x="67" y="-178.5" font-family="Helvetica,sans-Serif" font-size="10.00">fl::SerialPort::parseInt</text>
</a>
</g>
</g>
<!-- Node1&#45;&gt;Node3 -->
<g id="edge2_Node000001_Node000003" class="edge">
<title>Node1&#45;&gt;Node3</title>
<g id="a_edge2_Node000001_Node000003"><a xlink:title=" ">
<path fill="none" stroke="#63b8ff" d="M202.47,-135.68C183.15,-144.18 157.38,-154.98 134,-163 125.12,-166.04 115.44,-168.92 106.3,-171.45"/>
<polygon fill="#63b8ff" stroke="#63b8ff" points="203.95,-138.85 211.66,-131.59 201.11,-132.46 203.95,-138.85"/>
</a>
</g>
</g>
<!-- Node4 -->
<g id="Node000004" class="node">
<title>Node4</title>
<g id="a_Node000004"><a xlink:href="../../de/d67/classfl_1_1_serial_port_afd568b343586725745bafc10d4b82e55.html#afd568b343586725745bafc10d4b82e55" target="_top" xlink:title="Read fixed number of bytes into buffer.">
<polygon fill="white" stroke="#666666" points="132.5,-153.5 1.5,-153.5 1.5,-134.5 132.5,-134.5 132.5,-153.5"/>
<text text-anchor="middle" x="67" y="-141.5" font-family="Helvetica,sans-Serif" font-size="10.00">fl::SerialPort::readBytes</text>
</a>
</g>
</g>
<!-- Node1&#45;&gt;Node4 -->
<g id="edge3_Node000001_Node000004" class="edge">
<title>Node1&#45;&gt;Node4</title>
<g id="a_edge3_Node000001_Node000004"><a xlink:title=" ">
<path fill="none" stroke="#63b8ff" d="M159.75,-131.73C150.73,-132.94 141.56,-134.16 132.67,-135.35"/>
<polygon fill="#63b8ff" stroke="#63b8ff" points="160.39,-135.17 169.84,-130.38 159.46,-128.24 160.39,-135.17"/>
</a>
</g>
</g>
<!-- Node5 -->
<g id="Node000005" class="node">
<title>Node5</title>
<g id="a_Node000005"><a xlink:href="../../de/d67/classfl_1_1_serial_port_a7b1626b36b6275180d235263302bfb94.html#a7b1626b36b6275180d235263302bfb94" target="_top" xlink:title="Read bytes until delimiter is found.">
<polygon fill="white" stroke="#666666" points="132.5,-116 1.5,-116 1.5,-86 132.5,-86 132.5,-116"/>
<text text-anchor="start" x="9.5" y="-104" font-family="Helvetica,sans-Serif" font-size="10.00">fl::SerialPort::readBytes</text>
<text text-anchor="middle" x="67" y="-93" font-family="Helvetica,sans-Serif" font-size="10.00">Until</text>
</a>
</g>
</g>
<!-- Node1&#45;&gt;Node5 -->
<g id="edge4_Node000001_Node000005" class="edge">
<title>Node1&#45;&gt;Node5</title>
<g id="a_edge4_Node000001_Node000005"><a xlink:title=" ">
<path fill="none" stroke="#63b8ff" d="M159.75,-112.71C150.73,-111.56 141.56,-110.39 132.67,-109.26"/>
<polygon fill="#63b8ff" stroke="#63b8ff" points="159.48,-116.21 169.84,-114 160.36,-109.26 159.48,-116.21"/>
</a>
</g>
</g>
<!-- Node6 -->
<g id="Node000006" class="node">
<title>Node6</title>
<g id="a_Node000006"><a xlink:href="../../de/d67/classfl_1_1_serial_port_a2220dbbe44b8f2d3fefe23a7054e7d93.html#a2220dbbe44b8f2d3fefe23a7054e7d93" target="_top" xlink:title="Read all available bytes into a string.">
<polygon fill="white" stroke="#666666" points="133,-67.5 1,-67.5 1,-48.5 133,-48.5 133,-67.5"/>
<text text-anchor="middle" x="67" y="-55.5" font-family="Helvetica,sans-Serif" font-size="10.00">fl::SerialPort::readString</text>
</a>
</g>
</g>
<!-- Node1&#45;&gt;Node6 -->
<g id="edge5_Node000001_Node000006" class="edge">
<title>Node1&#45;&gt;Node6</title>
<g id="a_edge5_Node000001_Node000006"><a xlink:title=" ">
<path fill="none" stroke="#63b8ff" d="M204.4,-107.81C184.95,-98.33 158.29,-85.99 134,-77 124.72,-73.57 114.52,-70.36 104.97,-67.6"/>
<polygon fill="#63b8ff" stroke="#63b8ff" points="203.08,-111.07 213.6,-112.35 206.18,-104.79 203.08,-111.07"/>
</a>
</g>
</g>
<!-- Node7 -->
<g id="Node000007" class="node">
<title>Node7</title>
<g id="a_Node000007"><a xlink:href="../../de/d67/classfl_1_1_serial_port_a668716880b6b01ca60528265efda5b21.html#a668716880b6b01ca60528265efda5b21" target="_top" xlink:title="Read characters until delimiter is found.">
<polygon fill="white" stroke="#666666" points="133,-30 1,-30 1,0 133,0 133,-30"/>
<text text-anchor="start" x="9" y="-18" font-family="Helvetica,sans-Serif" font-size="10.00">fl::SerialPort::readString</text>
<text text-anchor="middle" x="67" y="-7" font-family="Helvetica,sans-Serif" font-size="10.00">Until</text>
</a>
</g>
</g>
<!-- Node1&#45;&gt;Node7 -->
<g id="edge6_Node000001_Node000007" class="edge">
<title>Node1&#45;&gt;Node7</title>
<g id="a_edge6_Node000001_Node000007"><a xlink:title=" ">
<path fill="none" stroke="#63b8ff" d="M215.91,-105.18C197.32,-87.09 165.64,-58.46 134,-40 127.65,-36.3 120.65,-32.95 113.66,-30.01"/>
<polygon fill="#63b8ff" stroke="#63b8ff" points="213.68,-107.9 223.25,-112.44 218.61,-102.92 213.68,-107.9"/>
</a>
</g>
</g>
</g>
</svg>
</svg>

<style type='text/css'>
<![CDATA[
[data-mouse-over-selected='false'] { opacity: 0.7; }
[data-mouse-over-selected='true']  { opacity: 1.0; }
]]>
</style>
<script type="application/ecmascript"><![CDATA[
document.addEventListener('DOMContentLoaded', (event) => {
  highlightEdges();
  highlightAdjacentNodes();
});
]]></script>
</svg>
