<?xml version="1.0" encoding="UTF-8" standalone="no"?>
<!DOCTYPE svg PUBLIC "-//W3C//DTD SVG 1.1//EN"
 "http://www.w3.org/Graphics/SVG/1.1/DTD/svg11.dtd">
<!-- Generated by graphviz version 2.43.0 (0)
 -->
<!-- Title: fl::third_party::SoftwareMpeg1Decoder::Mpeg1DecoderData Pages: 1 -->
<!--zoomable 440 -->

<svg id="main" version="1.1" xmlns="http://www.w3.org/2000/svg" xmlns:xlink="http://www.w3.org/1999/xlink" xml:space="preserve" onload="init(evt)">

<style type="text/css"><![CDATA[
.node, .edge {opacity: 0.7;}
.node.selected, .edge.selected {opacity: 1;}
.edge:hover path { stroke: red; }
.edge:hover polygon { stroke: red; fill: red; }
]]></style>

<defs>
  <circle id="rim" cx="0" cy="0" r="7"/>
  <circle id="rim2" cx="0" cy="0" r="3.5"/>
  <g id="zoomPlus">
    <use xlink:href="#rim" fill="#404040"><set attributeName="fill" to="#808080" begin="zoomplus.mouseover" end="zoomplus.mouseout"/></use>
    <path d="M-4,0h8M0,-4v8" fill="none" stroke="white" stroke-width="1.5" pointer-events="none"/>
  </g>
  <g id="zoomMin">
    <use xlink:href="#rim" fill="#404040"><set attributeName="fill" to="#808080" begin="zoomminus.mouseover" end="zoomminus.mouseout"/></use>
    <path d="M-4,0h8" fill="none" stroke="white" stroke-width="1.5" pointer-events="none"/>
  </g>
  <g id="arrowUp" transform="translate(30 24)">
    <use xlink:href="#rim"/>
    <path pointer-events="none" fill="none" stroke="white" stroke-width="1.5" d="M0,-3.0v7 M-2.5,-0.5L0,-3.0L2.5,-0.5"/>
  </g>
  <g id="arrowRight" transform="rotate(90) translate(36 -43)">
    <use xlink:href="#rim"/>
    <path pointer-events="none" fill="none" stroke="white" stroke-width="1.5" d="M0,-3.0v7 M-2.5,-0.5L0,-3.0L2.5,-0.5"/>
  </g>
  <g id="arrowDown" transform="rotate(180) translate(-30 -48)">
    <use xlink:href="#rim"/>
    <path pointer-events="none" fill="none" stroke="white" stroke-width="1.5" d="M0,-3.0v7 M-2.5,-0.5L0,-3.0L2.5,-0.5"/>
  </g>
  <g id="arrowLeft" transform="rotate(270) translate(-36 17)">
    <use xlink:href="#rim"/>
    <path pointer-events="none" fill="none" stroke="white" stroke-width="1.5" d="M0,-3.0v7 M-2.5,-0.5L0,-3.0L2.5,-0.5"/>
  </g>
  <g id="resetDef">
    <use xlink:href="#rim2" fill="#404040"><set attributeName="fill" to="#808080" begin="reset.mouseover" end="reset.mouseout"/></use>
  </g>
</defs>
<script type="application/ecmascript">
var viewWidth = 900;
var viewHeight = 440;
var sectionId = 'dynsection-2';
</script>
<script type="application/ecmascript" xlink:href="../../svg.min.js"/>
<svg id="graph" class="graph">
<g id="viewport">
<title>fl::third_party::SoftwareMpeg1Decoder::Mpeg1DecoderData</title>
<!-- Node1 -->
<g id="Node000001" class="node">
<title>Node1</title>
<g id="a_Node000001"><a xlink:title=" ">
<polygon fill="#999999" stroke="#666666" points="892,-132 699,-132 699,-102 892,-102 892,-132"/>
<text text-anchor="start" x="707" y="-120" font-family="Helvetica,sans-Serif" font-size="10.00">fl::third_party::Software</text>
<text text-anchor="middle" x="795.5" y="-109" font-family="Helvetica,sans-Serif" font-size="10.00">Mpeg1Decoder::Mpeg1DecoderData</text>
</a>
</g>
</g>
<!-- Node2 -->
<g id="Node000002" class="node">
<title>Node2</title>
<g id="a_Node000002"><a xlink:href="../../d1/d86/namespacefl_1_1third__party.html#de/df4/structfl_1_1third__party_1_1plm__t" target="_top" xlink:title=" ">
<polygon fill="white" stroke="#666666" points="587,-244.5 472,-244.5 472,-225.5 587,-225.5 587,-244.5"/>
<text text-anchor="middle" x="529.5" y="-232.5" font-family="Helvetica,sans-Serif" font-size="10.00">fl::third_party::plm_t</text>
</a>
</g>
</g>
<!-- Node2&#45;&gt;Node1 -->
<g id="edge1_Node000001_Node000002" class="edge">
<title>Node2&#45;&gt;Node1</title>
<g id="a_edge1_Node000001_Node000002"><a xlink:title=" ">
<path fill="none" stroke="#9a32cd" stroke-dasharray="5,2" d="M561.41,-221.18C611.29,-198.89 709.13,-155.16 760.76,-132.08"/>
<polygon fill="#9a32cd" stroke="#9a32cd" points="559.81,-218.07 552.1,-225.34 562.66,-224.46 559.81,-218.07"/>
</a>
</g>
<text text-anchor="middle" x="643" y="-203" font-family="Helvetica,sans-Serif" font-size="10.00" fill="grey"> plmpeg</text>
</g>
<!-- Node2&#45;&gt;Node2 -->
<g id="edge15_Node000002_Node000002" class="edge">
<title>Node2&#45;&gt;Node2</title>
<g id="a_edge15_Node000002_Node000002"><a xlink:title=" ">
<path fill="none" stroke="#9a32cd" stroke-dasharray="5,2" d="M508.76,-254.05C510.15,-258.88 517.06,-262.5 529.5,-262.5 549.41,-262.5 555.16,-253.23 546.76,-244.58"/>
<polygon fill="#9a32cd" stroke="#9a32cd" points="512.08,-255.18 512.24,-244.58 505.51,-252.76 512.08,-255.18"/>
</a>
</g>
<text text-anchor="middle" x="529.5" y="-276.5" font-family="Helvetica,sans-Serif" font-size="10.00" fill="grey"> audio_decode_callback</text>
<text text-anchor="middle" x="529.5" y="-265.5" font-family="Helvetica,sans-Serif" font-size="10.00" fill="grey">video_decode_callback</text>
</g>
<!-- Node3 -->
<g id="Node000003" class="node">
<title>Node3</title>
<g id="a_Node000003"><a xlink:href="../../d1/d86/namespacefl_1_1third__party.html#d8/d38/structfl_1_1third__party_1_1plm__demux__t" target="_top" xlink:title=" ">
<polygon fill="white" stroke="#666666" points="361,-250 255,-250 255,-220 361,-220 361,-250"/>
<text text-anchor="start" x="263" y="-238" font-family="Helvetica,sans-Serif" font-size="10.00">fl::third_party::plm</text>
<text text-anchor="middle" x="308" y="-227" font-family="Helvetica,sans-Serif" font-size="10.00">_demux_t</text>
</a>
</g>
</g>
<!-- Node3&#45;&gt;Node2 -->
<g id="edge2_Node000002_Node000003" class="edge">
<title>Node3&#45;&gt;Node2</title>
<g id="a_edge2_Node000002_Node000003"><a xlink:title=" ">
<path fill="none" stroke="#9a32cd" stroke-dasharray="5,2" d="M371.05,-235C402.73,-235 440.98,-235 471.85,-235"/>
<polygon fill="#9a32cd" stroke="#9a32cd" points="371.02,-231.5 361.02,-235 371.02,-238.5 371.02,-231.5"/>
</a>
</g>
<text text-anchor="middle" x="416.5" y="-238" font-family="Helvetica,sans-Serif" font-size="10.00" fill="grey"> demux</text>
</g>
<!-- Node4 -->
<g id="Node000004" class="node">
<title>Node4</title>
<g id="a_Node000004"><a xlink:href="../../d1/d86/namespacefl_1_1third__party.html#d3/da0/structfl_1_1third__party_1_1plm__buffer__t" target="_top" xlink:title=" ">
<polygon fill="white" stroke="#666666" points="117,-285 11,-285 11,-255 117,-255 117,-285"/>
<text text-anchor="start" x="19" y="-273" font-family="Helvetica,sans-Serif" font-size="10.00">fl::third_party::plm</text>
<text text-anchor="middle" x="64" y="-262" font-family="Helvetica,sans-Serif" font-size="10.00">_buffer_t</text>
</a>
</g>
</g>
<!-- Node4&#45;&gt;Node2 -->
<g id="edge6_Node000002_Node000004" class="edge">
<title>Node4&#45;&gt;Node2</title>
<g id="a_edge6_Node000002_Node000004"><a xlink:title=" ">
<path fill="none" stroke="#9a32cd" stroke-dasharray="5,2" d="M127.63,-275.95C133.84,-276.38 140.04,-276.74 146,-277 283.29,-282.92 318.37,-272.06 454,-250 463.77,-248.41 474.21,-246.47 484.08,-244.51"/>
<polygon fill="#9a32cd" stroke="#9a32cd" points="127.48,-272.43 117.24,-275.18 126.96,-279.41 127.48,-272.43"/>
</a>
</g>
<text text-anchor="middle" x="308" y="-291" font-family="Helvetica,sans-Serif" font-size="10.00" fill="grey"> audio_buffer</text>
<text text-anchor="middle" x="308" y="-280" font-family="Helvetica,sans-Serif" font-size="10.00" fill="grey">video_buffer</text>
</g>
<!-- Node4&#45;&gt;Node3 -->
<g id="edge3_Node000003_Node000004" class="edge">
<title>Node4&#45;&gt;Node3</title>
<g id="a_edge3_Node000003_Node000004"><a xlink:title=" ">
<path fill="none" stroke="#9a32cd" stroke-dasharray="5,2" d="M127.48,-264.84C160.23,-261.69 200.91,-257.1 237,-251 242.78,-250.02 248.79,-248.87 254.76,-247.63"/>
<polygon fill="#9a32cd" stroke="#9a32cd" points="126.78,-261.39 117.15,-265.81 127.43,-268.36 126.78,-261.39"/>
</a>
</g>
<text text-anchor="middle" x="191.5" y="-265" font-family="Helvetica,sans-Serif" font-size="10.00" fill="grey"> buffer</text>
</g>
<!-- Node4&#45;&gt;Node4 -->
<g id="edge4_Node000004_Node000004" class="edge">
<title>Node4&#45;&gt;Node4</title>
<g id="a_edge4_Node000004_Node000004"><a xlink:title=" ">
<path fill="none" stroke="#9a32cd" stroke-dasharray="5,2" d="M41.95,-295.6C44.96,-299.97 52.31,-303 64,-303 83.69,-303 91.07,-294.41 86.15,-285.28"/>
<polygon fill="#9a32cd" stroke="#9a32cd" points="45.44,-295.24 41.85,-285.28 38.44,-295.31 45.44,-295.24"/>
</a>
</g>
<text text-anchor="middle" x="64" y="-328" font-family="Helvetica,sans-Serif" font-size="10.00" fill="grey"> load_callback</text>
<text text-anchor="middle" x="64" y="-317" font-family="Helvetica,sans-Serif" font-size="10.00" fill="grey">seek_callback</text>
<text text-anchor="middle" x="64" y="-306" font-family="Helvetica,sans-Serif" font-size="10.00" fill="grey">tell_callback</text>
</g>
<!-- Node6 -->
<g id="Node000006" class="node">
<title>Node6</title>
<g id="a_Node000006"><a xlink:href="../../d1/d86/namespacefl_1_1third__party.html#df/d05/structfl_1_1third__party_1_1plm__video__t" target="_top" xlink:title=" ">
<polygon fill="white" stroke="#666666" points="361,-177 255,-177 255,-147 361,-147 361,-177"/>
<text text-anchor="start" x="263" y="-165" font-family="Helvetica,sans-Serif" font-size="10.00">fl::third_party::plm</text>
<text text-anchor="middle" x="308" y="-154" font-family="Helvetica,sans-Serif" font-size="10.00">_video_t</text>
</a>
</g>
</g>
<!-- Node4&#45;&gt;Node6 -->
<g id="edge9_Node000006_Node000004" class="edge">
<title>Node4&#45;&gt;Node6</title>
<g id="a_edge9_Node000006_Node000004"><a xlink:title=" ">
<path fill="none" stroke="#9a32cd" stroke-dasharray="5,2" d="M109.31,-251.12C121.11,-246.47 133.93,-241.75 146,-238 185.63,-225.67 199.56,-234.92 237,-217 258.05,-206.93 278.62,-189.6 291.96,-177.08"/>
<polygon fill="#9a32cd" stroke="#9a32cd" points="107.65,-248.01 99.68,-254.98 110.26,-254.5 107.65,-248.01"/>
</a>
</g>
<text text-anchor="middle" x="191.5" y="-241" font-family="Helvetica,sans-Serif" font-size="10.00" fill="grey"> buffer</text>
</g>
<!-- Node10 -->
<g id="Node000010" class="node">
<title>Node10</title>
<g id="a_Node000010"><a xlink:href="../../d1/d86/namespacefl_1_1third__party.html#d8/ddd/structfl_1_1third__party_1_1plm__audio__t" target="_top" xlink:title=" ">
<polygon fill="white" stroke="#666666" points="361,-378 255,-378 255,-348 361,-348 361,-378"/>
<text text-anchor="start" x="263" y="-366" font-family="Helvetica,sans-Serif" font-size="10.00">fl::third_party::plm</text>
<text text-anchor="middle" x="308" y="-355" font-family="Helvetica,sans-Serif" font-size="10.00">_audio_t</text>
</a>
</g>
</g>
<!-- Node4&#45;&gt;Node10 -->
<g id="edge12_Node000010_Node000004" class="edge">
<title>Node4&#45;&gt;Node10</title>
<g id="a_edge12_Node000010_Node000004"><a xlink:title=" ">
<path fill="none" stroke="#9a32cd" stroke-dasharray="5,2" d="M100.26,-289.96C114.24,-297.43 130.63,-305.64 146,-312 181.49,-326.69 222.81,-339.7 254.71,-348.91"/>
<polygon fill="#9a32cd" stroke="#9a32cd" points="101.91,-286.87 91.45,-285.18 98.57,-293.03 101.91,-286.87"/>
</a>
</g>
<text text-anchor="middle" x="191.5" y="-346" font-family="Helvetica,sans-Serif" font-size="10.00" fill="grey"> buffer</text>
</g>
<!-- Node5 -->
<g id="Node000005" class="node">
<title>Node5</title>
<g id="a_Node000005"><a xlink:href="../../d1/d86/namespacefl_1_1third__party.html#dc/db8/structfl_1_1third__party_1_1plm__packet__t" target="_top" xlink:title=" ">
<polygon fill="white" stroke="#666666" points="117,-211 11,-211 11,-181 117,-181 117,-211"/>
<text text-anchor="start" x="19" y="-199" font-family="Helvetica,sans-Serif" font-size="10.00">fl::third_party::plm</text>
<text text-anchor="middle" x="64" y="-188" font-family="Helvetica,sans-Serif" font-size="10.00">_packet_t</text>
</a>
</g>
</g>
<!-- Node5&#45;&gt;Node3 -->
<g id="edge5_Node000003_Node000005" class="edge">
<title>Node5&#45;&gt;Node3</title>
<g id="a_edge5_Node000003_Node000005"><a xlink:title=" ">
<path fill="none" stroke="#9a32cd" stroke-dasharray="5,2" d="M127.09,-187.85C160.24,-185.43 201.43,-185.55 237,-195 255.26,-199.85 273.73,-210.71 287.11,-219.89"/>
<polygon fill="#9a32cd" stroke="#9a32cd" points="126.75,-184.37 117.07,-188.68 127.33,-191.34 126.75,-184.37"/>
</a>
</g>
<text text-anchor="middle" x="191.5" y="-209" font-family="Helvetica,sans-Serif" font-size="10.00" fill="grey"> current_packet</text>
<text text-anchor="middle" x="191.5" y="-198" font-family="Helvetica,sans-Serif" font-size="10.00" fill="grey">next_packet</text>
</g>
<!-- Node6&#45;&gt;Node2 -->
<g id="edge7_Node000002_Node000006" class="edge">
<title>Node6&#45;&gt;Node2</title>
<g id="a_edge7_Node000002_Node000006"><a xlink:title=" ">
<path fill="none" stroke="#9a32cd" stroke-dasharray="5,2" d="M363.72,-180.2C406.87,-194.55 465.31,-213.99 499.75,-225.44"/>
<polygon fill="#9a32cd" stroke="#9a32cd" points="364.81,-176.87 354.21,-177.04 362.6,-183.51 364.81,-176.87"/>
</a>
</g>
<text text-anchor="middle" x="416.5" y="-212" font-family="Helvetica,sans-Serif" font-size="10.00" fill="grey"> video_decoder</text>
</g>
<!-- Node7 -->
<g id="Node000007" class="node">
<title>Node7</title>
<g id="a_Node000007"><a xlink:href="../../d1/d86/namespacefl_1_1third__party.html#d9/daf/structfl_1_1third__party_1_1plm__video__motion__t" target="_top" xlink:title=" ">
<polygon fill="white" stroke="#666666" points="117,-163 11,-163 11,-133 117,-133 117,-163"/>
<text text-anchor="start" x="19" y="-151" font-family="Helvetica,sans-Serif" font-size="10.00">fl::third_party::plm</text>
<text text-anchor="middle" x="64" y="-140" font-family="Helvetica,sans-Serif" font-size="10.00">_video_motion_t</text>
</a>
</g>
</g>
<!-- Node7&#45;&gt;Node6 -->
<g id="edge8_Node000006_Node000007" class="edge">
<title>Node7&#45;&gt;Node6</title>
<g id="a_edge8_Node000006_Node000007"><a xlink:title=" ">
<path fill="none" stroke="#9a32cd" stroke-dasharray="5,2" d="M127.37,-146.36C160.08,-146.09 200.77,-146.7 237,-150 242.77,-150.52 248.78,-151.26 254.75,-152.11"/>
<polygon fill="#9a32cd" stroke="#9a32cd" points="127,-142.86 117.04,-146.47 127.08,-149.86 127,-142.86"/>
</a>
</g>
<text text-anchor="middle" x="191.5" y="-164" font-family="Helvetica,sans-Serif" font-size="10.00" fill="grey"> motion_backward</text>
<text text-anchor="middle" x="191.5" y="-153" font-family="Helvetica,sans-Serif" font-size="10.00" fill="grey">motion_forward</text>
</g>
<!-- Node8 -->
<g id="Node000008" class="node">
<title>Node8</title>
<g id="a_Node000008"><a xlink:href="../../d1/d86/namespacefl_1_1third__party.html#d3/d85/structfl_1_1third__party_1_1plm__frame__t" target="_top" xlink:title=" ">
<polygon fill="#fff0f0" stroke="red" points="117,-108 11,-108 11,-78 117,-78 117,-108"/>
<text text-anchor="start" x="19" y="-96" font-family="Helvetica,sans-Serif" font-size="10.00">fl::third_party::plm</text>
<text text-anchor="middle" x="64" y="-85" font-family="Helvetica,sans-Serif" font-size="10.00">_frame_t</text>
</a>
</g>
</g>
<!-- Node8&#45;&gt;Node6 -->
<g id="edge10_Node000006_Node000008" class="edge">
<title>Node8&#45;&gt;Node6</title>
<g id="a_edge10_Node000006_Node000008"><a xlink:title=" ">
<path fill="none" stroke="#9a32cd" stroke-dasharray="5,2" d="M127.25,-90.63C160.79,-91.35 202.29,-95.52 237,-109 258.46,-117.33 278.95,-134.27 292.16,-146.77"/>
<polygon fill="#9a32cd" stroke="#9a32cd" points="127.16,-87.13 117.12,-90.52 127.08,-94.13 127.16,-87.13"/>
</a>
</g>
<text text-anchor="middle" x="191.5" y="-134" font-family="Helvetica,sans-Serif" font-size="10.00" fill="grey"> frame_backward</text>
<text text-anchor="middle" x="191.5" y="-123" font-family="Helvetica,sans-Serif" font-size="10.00" fill="grey">frame_current</text>
<text text-anchor="middle" x="191.5" y="-112" font-family="Helvetica,sans-Serif" font-size="10.00" fill="grey">frame_forward</text>
</g>
<!-- Node10&#45;&gt;Node2 -->
<g id="edge11_Node000002_Node000010" class="edge">
<title>Node10&#45;&gt;Node2</title>
<g id="a_edge11_Node000002_Node000010"><a xlink:title=" ">
<path fill="none" stroke="#9a32cd" stroke-dasharray="5,2" d="M370.72,-348.76C397.64,-340.82 428.75,-329.19 454,-313 483.64,-294 509.92,-260.84 521.8,-244.56"/>
<polygon fill="#9a32cd" stroke="#9a32cd" points="369.67,-345.42 361.01,-351.52 371.58,-352.15 369.67,-345.42"/>
</a>
</g>
<text text-anchor="middle" x="416.5" y="-348" font-family="Helvetica,sans-Serif" font-size="10.00" fill="grey"> audio_decoder</text>
</g>
<!-- Node11 -->
<g id="Node000011" class="node">
<title>Node11</title>
<g id="a_Node000011"><a xlink:href="../../d1/d86/namespacefl_1_1third__party.html#d2/da7/structfl_1_1third__party_1_1plm__quantizer__spec__t" target="_top" xlink:title=" ">
<polygon fill="white" stroke="#666666" points="117,-384 11,-384 11,-354 117,-354 117,-384"/>
<text text-anchor="start" x="19" y="-372" font-family="Helvetica,sans-Serif" font-size="10.00">fl::third_party::plm</text>
<text text-anchor="middle" x="64" y="-361" font-family="Helvetica,sans-Serif" font-size="10.00">_quantizer_spec_t</text>
</a>
</g>
</g>
<!-- Node11&#45;&gt;Node10 -->
<g id="edge13_Node000010_Node000011" class="edge">
<title>Node11&#45;&gt;Node10</title>
<g id="a_edge13_Node000010_Node000011"><a xlink:title=" ">
<path fill="none" stroke="#9a32cd" stroke-dasharray="5,2" d="M127.28,-367.46C166.84,-366.48 217.45,-365.22 254.88,-364.29"/>
<polygon fill="#9a32cd" stroke="#9a32cd" points="127.12,-363.96 117.21,-367.71 127.3,-370.96 127.12,-363.96"/>
</a>
</g>
<text text-anchor="middle" x="191.5" y="-369" font-family="Helvetica,sans-Serif" font-size="10.00" fill="grey"> allocation</text>
</g>
<!-- Node12 -->
<g id="Node000012" class="node">
<title>Node12</title>
<g id="a_Node000012"><a xlink:href="../../d1/d86/namespacefl_1_1third__party.html#da/d8c/structfl_1_1third__party_1_1plm__samples__t" target="_top" xlink:title=" ">
<polygon fill="white" stroke="#666666" points="117,-432 11,-432 11,-402 117,-402 117,-432"/>
<text text-anchor="start" x="19" y="-420" font-family="Helvetica,sans-Serif" font-size="10.00">fl::third_party::plm</text>
<text text-anchor="middle" x="64" y="-409" font-family="Helvetica,sans-Serif" font-size="10.00">_samples_t</text>
</a>
</g>
</g>
<!-- Node12&#45;&gt;Node10 -->
<g id="edge14_Node000010_Node000012" class="edge">
<title>Node12&#45;&gt;Node10</title>
<g id="a_edge14_Node000010_Node000012"><a xlink:title=" ">
<path fill="none" stroke="#9a32cd" stroke-dasharray="5,2" d="M126.97,-404.74C159.76,-398.07 200.65,-389.47 237,-381 242.74,-379.66 248.74,-378.21 254.7,-376.73"/>
<polygon fill="#9a32cd" stroke="#9a32cd" points="126.18,-401.33 117.07,-406.74 127.57,-408.19 126.18,-401.33"/>
</a>
</g>
<text text-anchor="middle" x="191.5" y="-403" font-family="Helvetica,sans-Serif" font-size="10.00" fill="grey"> samples</text>
</g>
<!-- Node13 -->
<g id="Node000013" class="node">
<title>Node13</title>
<g id="a_Node000013"><a xlink:href="../../d6/d2e/classfl_1_1unique__ptr.html" target="_top" xlink:title=" ">
<polygon fill="white" stroke="#666666" points="578.5,-78 480.5,-78 480.5,-48 578.5,-48 578.5,-78"/>
<text text-anchor="start" x="488.5" y="-66" font-family="Helvetica,sans-Serif" font-size="10.00">fl::unique_ptr&lt; fl</text>
<text text-anchor="middle" x="529.5" y="-55" font-family="Helvetica,sans-Serif" font-size="10.00">::u8[]&gt;</text>
</a>
</g>
</g>
<!-- Node13&#45;&gt;Node1 -->
<g id="edge16_Node000001_Node000013" class="edge">
<title>Node13&#45;&gt;Node1</title>
<g id="a_edge16_Node000001_Node000013"><a xlink:title=" ">
<path fill="none" stroke="#9a32cd" stroke-dasharray="5,2" d="M588.74,-74.91C627.69,-82.88 679.27,-93.43 721.04,-101.97"/>
<polygon fill="#9a32cd" stroke="#9a32cd" points="589.11,-71.42 578.61,-72.84 587.71,-78.27 589.11,-71.42"/>
</a>
</g>
<text text-anchor="middle" x="643" y="-107" font-family="Helvetica,sans-Serif" font-size="10.00" fill="grey"> inputBuffer</text>
<text text-anchor="middle" x="643" y="-96" font-family="Helvetica,sans-Serif" font-size="10.00" fill="grey">rgbFrameBuffer</text>
</g>
<!-- Node14 -->
<g id="Node000014" class="node">
<title>Node14</title>
<g id="a_Node000014"><a xlink:href="../../d5/d2b/structfl_1_1default__delete.html" target="_top" xlink:title=" ">
<polygon fill="white" stroke="#666666" points="357.5,-78 258.5,-78 258.5,-48 357.5,-48 357.5,-78"/>
<text text-anchor="start" x="266.5" y="-66" font-family="Helvetica,sans-Serif" font-size="10.00">fl::default_delete</text>
<text text-anchor="middle" x="308" y="-55" font-family="Helvetica,sans-Serif" font-size="10.00">&lt; fl::u8 &gt;</text>
</a>
</g>
</g>
<!-- Node14&#45;&gt;Node13 -->
<g id="edge17_Node000013_Node000014" class="edge">
<title>Node14&#45;&gt;Node13</title>
<g id="a_edge17_Node000013_Node000014"><a xlink:title=" ">
<path fill="none" stroke="#9a32cd" stroke-dasharray="5,2" d="M367.85,-63C403.04,-63 447.19,-63 480.3,-63"/>
<polygon fill="#9a32cd" stroke="#9a32cd" points="367.71,-59.5 357.71,-63 367.71,-66.5 367.71,-59.5"/>
</a>
</g>
<text text-anchor="middle" x="416.5" y="-66" font-family="Helvetica,sans-Serif" font-size="10.00" fill="grey"> mDeleter</text>
</g>
<!-- Node15 -->
<g id="Node000015" class="node">
<title>Node15</title>
<g id="a_Node000015"><a xlink:href="../../d5/d2b/structfl_1_1default__delete.html" target="_top" xlink:title=" ">
<polygon fill="white" stroke="#666666" points="128,-59.5 0,-59.5 0,-40.5 128,-40.5 128,-59.5"/>
<text text-anchor="middle" x="64" y="-47.5" font-family="Helvetica,sans-Serif" font-size="10.00">fl::default_delete&lt; T &gt;</text>
</a>
</g>
</g>
<!-- Node15&#45;&gt;Node14 -->
<g id="edge18_Node000014_Node000015" class="edge">
<title>Node15&#45;&gt;Node14</title>
<g id="a_edge18_Node000014_Node000015"><a xlink:title=" ">
<path fill="none" stroke="orange" stroke-dasharray="5,2" d="M138.48,-53.95C177.3,-56.03 223.89,-58.54 258.24,-60.38"/>
<polygon fill="orange" stroke="orange" points="138.44,-50.44 128.27,-53.4 138.06,-57.43 138.44,-50.44"/>
</a>
</g>
<text text-anchor="middle" x="191.5" y="-62" font-family="Helvetica,sans-Serif" font-size="10.00" fill="grey"> &lt; fl::u8 &gt;</text>
</g>
<!-- Node16 -->
<g id="Node000016" class="node">
<title>Node16</title>
<g id="a_Node000016"><a xlink:href="../../d6/d2e/classfl_1_1unique__ptr.html" target="_top" xlink:title=" ">
<polygon fill="white" stroke="#666666" points="358.5,-30 257.5,-30 257.5,0 358.5,0 358.5,-30"/>
<text text-anchor="start" x="265.5" y="-18" font-family="Helvetica,sans-Serif" font-size="10.00">fl::unique_ptr&lt; T,</text>
<text text-anchor="middle" x="308" y="-7" font-family="Helvetica,sans-Serif" font-size="10.00"> Deleter &gt;</text>
</a>
</g>
</g>
<!-- Node16&#45;&gt;Node13 -->
<g id="edge19_Node000013_Node000016" class="edge">
<title>Node16&#45;&gt;Node13</title>
<g id="a_edge19_Node000013_Node000016"><a xlink:title=" ">
<path fill="none" stroke="orange" stroke-dasharray="5,2" d="M368.64,-28.04C403.69,-35.71 447.42,-45.27 480.28,-52.46"/>
<polygon fill="orange" stroke="orange" points="369.05,-24.55 358.53,-25.83 367.56,-31.39 369.05,-24.55"/>
</a>
</g>
<text text-anchor="middle" x="416.5" y="-49" font-family="Helvetica,sans-Serif" font-size="10.00" fill="grey"> &lt; fl::u8[]&gt;</text>
</g>
</g>
</svg>

<g id="navigator" transform="translate(0 0)" fill="#404254">
  <rect fill="#f2f5e9" fill-opacity="0.5" stroke="#606060" stroke-width=".5" x="0" y="0" width="60" height="60"/>
  <use id="zoomplus" xlink:href="#zoomPlus" x="17" y="9" onmousedown="handleZoom(evt,'in')"/>
  <use id="zoomminus" xlink:href="#zoomMin" x="42" y="9" onmousedown="handleZoom(evt,'out')"/>
  <use id="reset" xlink:href="#resetDef" x="30" y="36" onmousedown="handleReset()"/>
   <use id="arrowup" xlink:href="#arrowUp" x="0" y="0" onmousedown="handlePan(0,-1)"/>
  <use id="arrowright" xlink:href="#arrowRight" x="0" y="0" onmousedown="handlePan(1,0)"/>
  <use id="arrowdown" xlink:href="#arrowDown" x="0" y="0" onmousedown="handlePan(0,1)"/>
  <use id="arrowleft" xlink:href="#arrowLeft" x="0" y="0" onmousedown="handlePan(-1,0)"/>
</g>
<svg viewBox="0 0 15 15" width="100%" height="30px" preserveAspectRatio="xMaxYMin meet">
 <g id="arrow_out" transform="scale(0.3 0.3)">
  <a xlink:href="structfl_1_1third__party_1_1_software_mpeg1_decoder_1_1_mpeg1_decoder_data__coll__graph_org.svg" target="_base">
   <rect id="button" ry="5" rx="5" y="6" x="6" height="38" width="38"
        fill="#f2f5e9" fill-opacity="0.5" stroke="#606060" stroke-width="1.0"/>
   <path id="arrow"
     d="M 11.500037,31.436501 C 11.940474,20.09759 22.043105,11.32322 32.158766,21.979434 L 37.068811,17.246167 C 37.068811,17.246167 37.088388,32 37.088388,32 L 22.160133,31.978069 C 22.160133,31.978069 26.997745,27.140456 26.997745,27.140456 C 18.528582,18.264221 13.291696,25.230495 11.500037,31.436501 z"
     style="fill:#404040;"/>
  </a>
 </g>
</svg>

<style type='text/css'>
<![CDATA[
[data-mouse-over-selected='false'] { opacity: 0.7; }
[data-mouse-over-selected='true']  { opacity: 1.0; }
]]>
</style>
<script type="application/ecmascript"><![CDATA[
document.addEventListener('DOMContentLoaded', (event) => {
  highlightEdges();
  highlightAdjacentNodes();
});
]]></script>
</svg>
