<?xml version="1.0" encoding="UTF-8" standalone="no"?>
<!DOCTYPE svg PUBLIC "-//W3C//DTD SVG 1.1//EN"
 "http://www.w3.org/Graphics/SVG/1.1/DTD/svg11.dtd">
<!-- Generated by graphviz version 2.43.0 (0)
 -->
<!-- Title: fl::audio::Reactive::getMoodValence Pages: 1 -->
<svg width="594pt" height="180pt"
 viewBox="0.00 0.00 594.00 180.00" xmlns="http://www.w3.org/2000/svg" xmlns:xlink="http://www.w3.org/1999/xlink">
<g id="graph0" class="graph" transform="scale(1 1) rotate(0) translate(4 176)">
<title>fl::audio::Reactive::getMoodValence</title>
<!-- Node1 -->
<g id="Node000001" class="node">
<title>Node1</title>
<g id="a_Node000001"><a xlink:title=" ">
<polygon fill="#999999" stroke="#666666" points="104,-139 0,-139 0,-109 104,-109 104,-139"/>
<text text-anchor="start" x="8" y="-127" font-family="Helvetica,sans-Serif" font-size="10.00">fl::audio::Reactive</text>
<text text-anchor="middle" x="52" y="-116" font-family="Helvetica,sans-Serif" font-size="10.00">::getMoodValence</text>
</a>
</g>
</g>
<!-- Node2 -->
<g id="Node000002" class="node">
<title>Node2</title>
<g id="a_Node000002"><a xlink:href="../../d8/dea/classfl_1_1audio_1_1_reactive_a657550d3cb28de4e06dea26c86ba83ae.html#a657550d3cb28de4e06dea26c86ba83ae" target="_top" xlink:title=" ">
<polygon fill="white" stroke="#666666" points="271,-172 140,-172 140,-142 271,-142 271,-172"/>
<text text-anchor="start" x="148" y="-160" font-family="Helvetica,sans-Serif" font-size="10.00">fl::audio::Reactive</text>
<text text-anchor="middle" x="205.5" y="-149" font-family="Helvetica,sans-Serif" font-size="10.00">::ensureAudioProcessor</text>
</a>
</g>
</g>
<!-- Node1&#45;&gt;Node2 -->
<g id="edge1_Node000001_Node000002" class="edge">
<title>Node1&#45;&gt;Node2</title>
<g id="a_edge1_Node000001_Node000002"><a xlink:title=" ">
<path fill="none" stroke="#63b8ff" d="M104.29,-135.17C112.59,-136.98 121.32,-138.88 130.03,-140.78"/>
<polygon fill="#63b8ff" stroke="#63b8ff" points="129.32,-144.21 139.83,-142.91 130.81,-137.37 129.32,-144.21"/>
</a>
</g>
</g>
<!-- Node5 -->
<g id="Node000005" class="node">
<title>Node5</title>
<g id="a_Node000005"><a xlink:href="../../d3/d6b/classfl_1_1audio_1_1_processor_a70b7cf2e7f4ea16c5d49f8f9536d54e1.html#a70b7cf2e7f4ea16c5d49f8f9536d54e1" target="_top" xlink:title=" ">
<polygon fill="white" stroke="#666666" points="260,-106 151,-106 151,-76 260,-76 260,-106"/>
<text text-anchor="start" x="159" y="-94" font-family="Helvetica,sans-Serif" font-size="10.00">fl::audio::Processor</text>
<text text-anchor="middle" x="205.5" y="-83" font-family="Helvetica,sans-Serif" font-size="10.00">::getMoodValence</text>
</a>
</g>
</g>
<!-- Node1&#45;&gt;Node5 -->
<g id="edge4_Node000001_Node000005" class="edge">
<title>Node1&#45;&gt;Node5</title>
<g id="a_edge4_Node000001_Node000005"><a xlink:title=" ">
<path fill="none" stroke="#63b8ff" d="M104.29,-112.83C116.03,-110.27 128.64,-107.52 140.83,-104.87"/>
<polygon fill="#63b8ff" stroke="#63b8ff" points="141.91,-108.22 150.93,-102.67 140.42,-101.38 141.91,-108.22"/>
</a>
</g>
</g>
<!-- Node3 -->
<g id="Node000003" class="node">
<title>Node3</title>
<g id="a_Node000003"><a xlink:href="../../d4/d36/namespacefl_a3fd92c727664a77396403265415789d3.html#a3fd92c727664a77396403265415789d3" target="_top" xlink:title=" ">
<polygon fill="white" stroke="#666666" points="421,-166.5 327,-166.5 327,-147.5 421,-147.5 421,-166.5"/>
<text text-anchor="middle" x="374" y="-154.5" font-family="Helvetica,sans-Serif" font-size="10.00">fl::make_unique</text>
</a>
</g>
</g>
<!-- Node2&#45;&gt;Node3 -->
<g id="edge2_Node000002_Node000003" class="edge">
<title>Node2&#45;&gt;Node3</title>
<g id="a_edge2_Node000002_Node000003"><a xlink:title=" ">
<path fill="none" stroke="#63b8ff" d="M271.35,-157C286.27,-157 302.01,-157 316.54,-157"/>
<polygon fill="#63b8ff" stroke="#63b8ff" points="316.87,-160.5 326.87,-157 316.87,-153.5 316.87,-160.5"/>
</a>
</g>
</g>
<!-- Node4 -->
<g id="Node000004" class="node">
<title>Node4</title>
<g id="a_Node000004"><a xlink:href="../../da/d3c/namespacefl_1_1fl_a0bddf371925d8c4e94b88e9d7b35d259.html#a0bddf371925d8c4e94b88e9d7b35d259" target="_top" xlink:title=" ">
<polygon fill="white" stroke="#666666" points="570.5,-166.5 492.5,-166.5 492.5,-147.5 570.5,-147.5 570.5,-166.5"/>
<text text-anchor="middle" x="531.5" y="-154.5" font-family="Helvetica,sans-Serif" font-size="10.00">fl::fl::forward</text>
</a>
</g>
</g>
<!-- Node3&#45;&gt;Node4 -->
<g id="edge3_Node000003_Node000004" class="edge">
<title>Node3&#45;&gt;Node4</title>
<g id="a_edge3_Node000003_Node000004"><a xlink:title=" ">
<path fill="none" stroke="#63b8ff" d="M421.23,-157C440.43,-157 462.72,-157 482.14,-157"/>
<polygon fill="#63b8ff" stroke="#63b8ff" points="482.29,-160.5 492.29,-157 482.29,-153.5 482.29,-160.5"/>
</a>
</g>
</g>
<!-- Node5&#45;&gt;Node5 -->
<g id="edge11_Node000005_Node000005" class="edge">
<title>Node5&#45;&gt;Node5</title>
<g id="a_edge11_Node000005_Node000005"><a xlink:title=" ">
<path fill="none" stroke="#63b8ff" d="M178.78,-106.28C172.84,-115.41 181.75,-124 205.5,-124 219.6,-124 228.47,-120.97 232.11,-116.6"/>
<polygon fill="#63b8ff" stroke="#63b8ff" points="235.61,-116.31 232.22,-106.28 228.61,-116.24 235.61,-116.31"/>
</a>
</g>
</g>
<!-- Node6 -->
<g id="Node000006" class="node">
<title>Node6</title>
<g id="a_Node000006"><a xlink:href="../../db/dbf/namespacefl_1_1audio_a9b850f6d4dcc78d8d7ffbcea50896411.html#a9b850f6d4dcc78d8d7ffbcea50896411" target="_top" xlink:title=" ">
<polygon fill="white" stroke="#666666" points="441,-106.5 307,-106.5 307,-87.5 441,-87.5 441,-106.5"/>
<text text-anchor="middle" x="374" y="-94.5" font-family="Helvetica,sans-Serif" font-size="10.00">fl::audio::clampNeg1To1</text>
</a>
</g>
</g>
<!-- Node5&#45;&gt;Node6 -->
<g id="edge5_Node000005_Node000006" class="edge">
<title>Node5&#45;&gt;Node6</title>
<g id="a_edge5_Node000005_Node000006"><a xlink:title=" ">
<path fill="none" stroke="#63b8ff" d="M260.1,-92.93C271.76,-93.35 284.31,-93.8 296.66,-94.25"/>
<polygon fill="#63b8ff" stroke="#63b8ff" points="296.84,-97.76 306.96,-94.62 297.09,-90.76 296.84,-97.76"/>
</a>
</g>
</g>
<!-- Node7 -->
<g id="Node000007" class="node">
<title>Node7</title>
<g id="a_Node000007"><a xlink:href="../../d3/d6b/classfl_1_1audio_1_1_processor_ad5ca4ecf97015b91141efddfb413693f.html#ad5ca4ecf97015b91141efddfb413693f" target="_top" xlink:title=" ">
<polygon fill="white" stroke="#666666" points="428.5,-51 319.5,-51 319.5,-21 428.5,-21 428.5,-51"/>
<text text-anchor="start" x="327.5" y="-39" font-family="Helvetica,sans-Serif" font-size="10.00">fl::audio::Processor</text>
<text text-anchor="middle" x="374" y="-28" font-family="Helvetica,sans-Serif" font-size="10.00">::getMoodAnalyzer</text>
</a>
</g>
</g>
<!-- Node5&#45;&gt;Node7 -->
<g id="edge7_Node000005_Node000007" class="edge">
<title>Node5&#45;&gt;Node7</title>
<g id="a_edge7_Node000005_Node000007"><a xlink:title=" ">
<path fill="none" stroke="#63b8ff" d="M252,-75.97C272.37,-69.24 296.57,-61.25 317.95,-54.18"/>
<polygon fill="#63b8ff" stroke="#63b8ff" points="319.16,-57.47 327.56,-51.01 316.96,-50.82 319.16,-57.47"/>
</a>
</g>
</g>
<!-- Node6&#45;&gt;Node6 -->
<g id="edge6_Node000006_Node000006" class="edge">
<title>Node6&#45;&gt;Node6</title>
<g id="a_edge6_Node000006_Node000006"><a xlink:title=" ">
<path fill="none" stroke="#63b8ff" d="M349.96,-106.58C338.26,-115.23 346.27,-124.5 374,-124.5 392.2,-124.5 401.9,-120.51 403.12,-115.32"/>
<polygon fill="#63b8ff" stroke="#63b8ff" points="406.09,-113.47 398.04,-106.58 400.04,-116.99 406.09,-113.47"/>
</a>
</g>
</g>
<!-- Node7&#45;&gt;Node7 -->
<g id="edge8_Node000007_Node000007" class="edge">
<title>Node7&#45;&gt;Node7</title>
<g id="a_edge8_Node000007_Node000007"><a xlink:title=" ">
<path fill="none" stroke="#63b8ff" d="M346.58,-51.28C340.48,-60.41 349.62,-69 374,-69 388.47,-69 397.57,-65.97 401.31,-61.6"/>
<polygon fill="#63b8ff" stroke="#63b8ff" points="404.81,-61.31 401.42,-51.28 397.81,-61.24 404.81,-61.31"/>
</a>
</g>
</g>
<!-- Node8 -->
<g id="Node000008" class="node">
<title>Node8</title>
<g id="a_Node000008"><a xlink:href="../../d4/d36/namespacefl_a87ae8a24cc8b709a64f39370e71846af.html#a87ae8a24cc8b709a64f39370e71846af" target="_top" xlink:title=" ">
<polygon fill="white" stroke="#666666" points="578.5,-67.5 484.5,-67.5 484.5,-48.5 578.5,-48.5 578.5,-67.5"/>
<text text-anchor="middle" x="531.5" y="-55.5" font-family="Helvetica,sans-Serif" font-size="10.00">fl::make_shared</text>
</a>
</g>
</g>
<!-- Node7&#45;&gt;Node8 -->
<g id="edge9_Node000007_Node000008" class="edge">
<title>Node7&#45;&gt;Node8</title>
<g id="a_edge9_Node000007_Node000008"><a xlink:title=" ">
<path fill="none" stroke="#63b8ff" d="M428.51,-43.57C443.29,-45.66 459.36,-47.94 474.29,-50.05"/>
<polygon fill="#63b8ff" stroke="#63b8ff" points="474.01,-53.54 484.41,-51.48 474.99,-46.61 474.01,-53.54"/>
</a>
</g>
</g>
<!-- Node9 -->
<g id="Node000009" class="node">
<title>Node9</title>
<g id="a_Node000009"><a xlink:href="../../d3/d6b/classfl_1_1audio_1_1_processor_ade806d07af52e3d281939cebce7643d5.html#ade806d07af52e3d281939cebce7643d5" target="_top" xlink:title=" ">
<polygon fill="white" stroke="#666666" points="586,-30 477,-30 477,0 586,0 586,-30"/>
<text text-anchor="start" x="485" y="-18" font-family="Helvetica,sans-Serif" font-size="10.00">fl::audio::Processor</text>
<text text-anchor="middle" x="531.5" y="-7" font-family="Helvetica,sans-Serif" font-size="10.00">::registerDetector</text>
</a>
</g>
</g>
<!-- Node7&#45;&gt;Node9 -->
<g id="edge10_Node000007_Node000009" class="edge">
<title>Node7&#45;&gt;Node9</title>
<g id="a_edge10_Node000007_Node000009"><a xlink:title=" ">
<path fill="none" stroke="#63b8ff" d="M428.51,-28.77C440.85,-27.11 454.1,-25.32 466.82,-23.6"/>
<polygon fill="#63b8ff" stroke="#63b8ff" points="467.45,-27.05 476.89,-22.24 466.51,-20.11 467.45,-27.05"/>
</a>
</g>
</g>
</g>
</svg>
