<?xml version="1.0" encoding="UTF-8" standalone="no"?>
<!DOCTYPE svg PUBLIC "-//W3C//DTD SVG 1.1//EN"
 "http://www.w3.org/Graphics/SVG/1.1/DTD/svg11.dtd">
<!-- Generated by graphviz version 2.43.0 (0)
 -->
<!-- Title: fl::audio::Reactive::setGain Pages: 1 -->
<svg width="523pt" height="104pt"
 viewBox="0.00 0.00 523.00 104.00" xmlns="http://www.w3.org/2000/svg" xmlns:xlink="http://www.w3.org/1999/xlink">
<g id="graph0" class="graph" transform="scale(1 1) rotate(0) translate(4 100)">
<title>fl::audio::Reactive::setGain</title>
<!-- Node1 -->
<g id="Node000001" class="node">
<title>Node1</title>
<g id="a_Node000001"><a xlink:title=" ">
<polygon fill="#999999" stroke="#666666" points="104,-63 0,-63 0,-33 104,-33 104,-63"/>
<text text-anchor="start" x="8" y="-51" font-family="Helvetica,sans-Serif" font-size="10.00">fl::audio::Reactive</text>
<text text-anchor="middle" x="52" y="-40" font-family="Helvetica,sans-Serif" font-size="10.00">::setGain</text>
</a>
</g>
</g>
<!-- Node2 -->
<g id="Node000002" class="node">
<title>Node2</title>
<g id="a_Node000002"><a xlink:href="../../d8/dea/classfl_1_1audio_1_1_reactive_a657550d3cb28de4e06dea26c86ba83ae.html#a657550d3cb28de4e06dea26c86ba83ae" target="_top" xlink:title=" ">
<polygon fill="white" stroke="#666666" points="271,-96 140,-96 140,-66 271,-66 271,-96"/>
<text text-anchor="start" x="148" y="-84" font-family="Helvetica,sans-Serif" font-size="10.00">fl::audio::Reactive</text>
<text text-anchor="middle" x="205.5" y="-73" font-family="Helvetica,sans-Serif" font-size="10.00">::ensureAudioProcessor</text>
</a>
</g>
</g>
<!-- Node1&#45;&gt;Node2 -->
<g id="edge1_Node000001_Node000002" class="edge">
<title>Node1&#45;&gt;Node2</title>
<g id="a_edge1_Node000001_Node000002"><a xlink:title=" ">
<path fill="none" stroke="#63b8ff" d="M104.29,-59.17C112.59,-60.98 121.32,-62.88 130.03,-64.78"/>
<polygon fill="#63b8ff" stroke="#63b8ff" points="129.32,-68.21 139.83,-66.91 130.81,-61.37 129.32,-68.21"/>
</a>
</g>
</g>
<!-- Node5 -->
<g id="Node000005" class="node">
<title>Node5</title>
<g id="a_Node000005"><a xlink:href="../../d3/d6b/classfl_1_1audio_1_1_processor_a7b85f26406c67fb4f57f2a6f49df3abb.html#a7b85f26406c67fb4f57f2a6f49df3abb" target="_top" xlink:title="Set a simple digital gain multiplier applied to each sample before detector.">
<polygon fill="white" stroke="#666666" points="260,-30 151,-30 151,0 260,0 260,-30"/>
<text text-anchor="start" x="159" y="-18" font-family="Helvetica,sans-Serif" font-size="10.00">fl::audio::Processor</text>
<text text-anchor="middle" x="205.5" y="-7" font-family="Helvetica,sans-Serif" font-size="10.00">::setGain</text>
</a>
</g>
</g>
<!-- Node1&#45;&gt;Node5 -->
<g id="edge4_Node000001_Node000005" class="edge">
<title>Node1&#45;&gt;Node5</title>
<g id="a_edge4_Node000001_Node000005"><a xlink:title=" ">
<path fill="none" stroke="#63b8ff" d="M104.29,-36.83C116.03,-34.27 128.64,-31.52 140.83,-28.87"/>
<polygon fill="#63b8ff" stroke="#63b8ff" points="141.91,-32.22 150.93,-26.67 140.42,-25.38 141.91,-32.22"/>
</a>
</g>
</g>
<!-- Node3 -->
<g id="Node000003" class="node">
<title>Node3</title>
<g id="a_Node000003"><a xlink:href="../../d4/d36/namespacefl_a3fd92c727664a77396403265415789d3.html#a3fd92c727664a77396403265415789d3" target="_top" xlink:title=" ">
<polygon fill="white" stroke="#666666" points="401,-90.5 307,-90.5 307,-71.5 401,-71.5 401,-90.5"/>
<text text-anchor="middle" x="354" y="-78.5" font-family="Helvetica,sans-Serif" font-size="10.00">fl::make_unique</text>
</a>
</g>
</g>
<!-- Node2&#45;&gt;Node3 -->
<g id="edge2_Node000002_Node000003" class="edge">
<title>Node2&#45;&gt;Node3</title>
<g id="a_edge2_Node000002_Node000003"><a xlink:title=" ">
<path fill="none" stroke="#63b8ff" d="M271.18,-81C279.59,-81 288.15,-81 296.41,-81"/>
<polygon fill="#63b8ff" stroke="#63b8ff" points="296.68,-84.5 306.68,-81 296.68,-77.5 296.68,-84.5"/>
</a>
</g>
</g>
<!-- Node4 -->
<g id="Node000004" class="node">
<title>Node4</title>
<g id="a_Node000004"><a xlink:href="../../da/d3c/namespacefl_1_1fl_a0bddf371925d8c4e94b88e9d7b35d259.html#a0bddf371925d8c4e94b88e9d7b35d259" target="_top" xlink:title=" ">
<polygon fill="white" stroke="#666666" points="515,-90.5 437,-90.5 437,-71.5 515,-71.5 515,-90.5"/>
<text text-anchor="middle" x="476" y="-78.5" font-family="Helvetica,sans-Serif" font-size="10.00">fl::fl::forward</text>
</a>
</g>
</g>
<!-- Node3&#45;&gt;Node4 -->
<g id="edge3_Node000003_Node000004" class="edge">
<title>Node3&#45;&gt;Node4</title>
<g id="a_edge3_Node000003_Node000004"><a xlink:title=" ">
<path fill="none" stroke="#63b8ff" d="M401.05,-81C409.42,-81 418.16,-81 426.59,-81"/>
<polygon fill="#63b8ff" stroke="#63b8ff" points="426.67,-84.5 436.67,-81 426.67,-77.5 426.67,-84.5"/>
</a>
</g>
</g>
<!-- Node5&#45;&gt;Node5 -->
<g id="edge5_Node000005_Node000005" class="edge">
<title>Node5&#45;&gt;Node5</title>
<g id="a_edge5_Node000005_Node000005"><a xlink:title=" ">
<path fill="none" stroke="#63b8ff" d="M179.48,-30.28C173.7,-39.41 182.38,-48 205.5,-48 219.23,-48 227.87,-44.97 231.41,-40.6"/>
<polygon fill="#63b8ff" stroke="#63b8ff" points="234.91,-40.31 231.52,-30.28 227.91,-40.24 234.91,-40.31"/>
</a>
</g>
</g>
</g>
</svg>
