<?xml version="1.0" encoding="UTF-8" standalone="no"?>
<!DOCTYPE svg PUBLIC "-//W3C//DTD SVG 1.1//EN"
 "http://www.w3.org/Graphics/SVG/1.1/DTD/svg11.dtd">
<!-- Generated by graphviz version 2.43.0 (0)
 -->
<!-- Title: fl::Ptr&lt; T &gt; Pages: 1 -->
<svg width="387pt" height="149pt"
 viewBox="0.00 0.00 386.50 149.00" xmlns="http://www.w3.org/2000/svg" xmlns:xlink="http://www.w3.org/1999/xlink">

<svg id="main" version="1.1" xmlns="http://www.w3.org/2000/svg" xmlns:xlink="http://www.w3.org/1999/xlink" xml:space="preserve">

<style type="text/css"><![CDATA[
.node, .edge {opacity: 0.7;}
.node.selected, .edge.selected {opacity: 1;}
.edge:hover path { stroke: red; }
.edge:hover polygon { stroke: red; fill: red; }
]]></style>
<script type="application/ecmascript" xlink:href="../../svg.min.js"/>
<svg id="graph" class="graph">
<g id="graph0" class="graph" transform="scale(1 1) rotate(0) translate(4 145)">
<title>fl::Ptr&lt; T &gt;</title>
<!-- Node1 -->
<g id="Node000001" class="node">
<title>Node1</title>
<g id="a_Node000001"><a xlink:title=" ">
<polygon fill="#999999" stroke="#666666" points="205,-85 134,-85 134,-66 205,-66 205,-85"/>
<text text-anchor="middle" x="169.5" y="-73" font-family="Helvetica,sans-Serif" font-size="10.00">fl::Ptr&lt; T &gt;</text>
</a>
</g>
</g>
<!-- Node3 -->
<g id="Node000003" class="node">
<title>Node3</title>
<g id="a_Node000003"><a xlink:href="../../d1/d56/classfl_1_1_ptr.html" target="_top" xlink:title=" ">
<polygon fill="white" stroke="#666666" points="107,-19 0,-19 0,0 107,0 107,-19"/>
<text text-anchor="middle" x="53.5" y="-7" font-family="Helvetica,sans-Serif" font-size="10.00">fl::Ptr&lt; fl::Frame &gt;</text>
</a>
</g>
</g>
<!-- Node1&#45;&gt;Node3 -->
<g id="edge2_Node000001_Node000003" class="edge">
<title>Node1&#45;&gt;Node3</title>
<g id="a_edge2_Node000001_Node000003"><a xlink:title=" ">
<path fill="none" stroke="orange" stroke-dasharray="5,2" d="M128.51,-62.61C117.73,-58.7 106.37,-53.82 96.5,-48 83.02,-40.05 69.8,-27.63 61.65,-19.28"/>
<polygon fill="orange" stroke="orange" points="127.58,-66 138.18,-65.94 129.86,-59.38 127.58,-66"/>
</a>
</g>
<text text-anchor="middle" x="131" y="-40" font-family="Helvetica,sans-Serif" font-size="10.00" fill="grey"> &lt; fl::Frame &gt;</text>
</g>
<!-- Node4 -->
<g id="Node000004" class="node">
<title>Node4</title>
<g id="a_Node000004"><a xlink:href="../../d1/d56/classfl_1_1_ptr.html" target="_top" xlink:title=" ">
<polygon fill="white" stroke="#666666" points="214,-19 125,-19 125,0 214,0 214,-19"/>
<text text-anchor="middle" x="169.5" y="-7" font-family="Helvetica,sans-Serif" font-size="10.00">fl::Ptr&lt; fl::Fx &gt;</text>
</a>
</g>
</g>
<!-- Node1&#45;&gt;Node4 -->
<g id="edge3_Node000001_Node000004" class="edge">
<title>Node1&#45;&gt;Node4</title>
<g id="a_edge3_Node000001_Node000004"><a xlink:title=" ">
<path fill="none" stroke="orange" stroke-dasharray="5,2" d="M169.5,-55.58C169.5,-43.63 169.5,-28.72 169.5,-19.41"/>
<polygon fill="orange" stroke="orange" points="166,-55.87 169.5,-65.87 173,-55.87 166,-55.87"/>
</a>
</g>
<text text-anchor="middle" x="194.5" y="-40" font-family="Helvetica,sans-Serif" font-size="10.00" fill="grey"> &lt; fl::Fx &gt;</text>
</g>
<!-- Node5 -->
<g id="Node000005" class="node">
<title>Node5</title>
<g id="a_Node000005"><a xlink:href="../../d1/d56/classfl_1_1_ptr.html" target="_top" xlink:title=" ">
<polygon fill="white" stroke="#666666" points="378.5,-19 232.5,-19 232.5,0 378.5,0 378.5,-19"/>
<text text-anchor="middle" x="305.5" y="-7" font-family="Helvetica,sans-Serif" font-size="10.00">fl::Ptr&lt; fl::WeakReferent &gt;</text>
</a>
</g>
</g>
<!-- Node1&#45;&gt;Node5 -->
<g id="edge4_Node000001_Node000005" class="edge">
<title>Node1&#45;&gt;Node5</title>
<g id="a_edge4_Node000001_Node000005"><a xlink:title=" ">
<path fill="none" stroke="orange" stroke-dasharray="5,2" d="M197.06,-61.53C223.87,-48.92 263.83,-30.11 287.01,-19.2"/>
<polygon fill="orange" stroke="orange" points="195.4,-58.44 187.84,-65.87 198.38,-64.78 195.4,-58.44"/>
</a>
</g>
<text text-anchor="middle" x="300" y="-40" font-family="Helvetica,sans-Serif" font-size="10.00" fill="grey"> &lt; fl::WeakReferent &gt;</text>
</g>
<!-- Node2 -->
<g id="Node000002" class="node">
<title>Node2</title>
<g id="a_Node000002"><a xlink:href="../../da/d84/classfl_1_1_ptr_traits.html" target="_top" xlink:title=" ">
<polygon fill="white" stroke="#666666" points="218,-141 121,-141 121,-122 218,-122 218,-141"/>
<text text-anchor="middle" x="169.5" y="-129" font-family="Helvetica,sans-Serif" font-size="10.00">fl::PtrTraits&lt; T &gt;</text>
</a>
</g>
</g>
<!-- Node2&#45;&gt;Node1 -->
<g id="edge1_Node000001_Node000002" class="edge">
<title>Node2&#45;&gt;Node1</title>
<g id="a_edge1_Node000001_Node000002"><a xlink:title=" ">
<path fill="none" stroke="#63b8ff" d="M169.5,-111.3C169.5,-102.41 169.5,-92.28 169.5,-85.25"/>
<polygon fill="#63b8ff" stroke="#63b8ff" points="166,-111.58 169.5,-121.58 173,-111.58 166,-111.58"/>
</a>
</g>
</g>
</g>
</svg>
</svg>

<style type='text/css'>
<![CDATA[
[data-mouse-over-selected='false'] { opacity: 0.7; }
[data-mouse-over-selected='true']  { opacity: 1.0; }
]]>
</style>
<script type="application/ecmascript"><![CDATA[
document.addEventListener('DOMContentLoaded', (event) => {
  highlightEdges();
  highlightAdjacentNodes();
});
]]></script>
</svg>
