<?xml version="1.0" encoding="UTF-8" standalone="no"?>
<!DOCTYPE svg PUBLIC "-//W3C//DTD SVG 1.1//EN"
 "http://www.w3.org/Graphics/SVG/1.1/DTD/svg11.dtd">
<!-- Generated by graphviz version 2.43.0 (0)
 -->
<!-- Title: rgb_2_rgbw_exact Pages: 1 -->
<svg width="635pt" height="91pt"
 viewBox="0.00 0.00 635.00 90.50" xmlns="http://www.w3.org/2000/svg" xmlns:xlink="http://www.w3.org/1999/xlink">
<g id="graph0" class="graph" transform="scale(1 1) rotate(0) translate(4 86.5)">
<title>rgb_2_rgbw_exact</title>
<!-- Node1 -->
<g id="Node000001" class="node">
<title>Node1</title>
<g id="a_Node000001"><a xlink:title="Converts RGB to RGBW using a color transfer method from saturated color channels to white.">
<polygon fill="#999999" stroke="#666666" points="627,-37 522,-37 522,-18 627,-18 627,-37"/>
<text text-anchor="middle" x="574.5" y="-25" font-family="Helvetica,sans-Serif" font-size="10.00">rgb_2_rgbw_exact</text>
</a>
</g>
</g>
<!-- Node2 -->
<g id="Node000002" class="node">
<title>Node2</title>
<g id="a_Node000002"><a xlink:href="../../d7/dbb/rgbw_8h_ae9cf94c7bddcd484c4f03b0c69b7770a.html#ae9cf94c7bddcd484c4f03b0c69b7770a" target="_top" xlink:title="Converts RGB to RGBW using one of the functions.">
<polygon fill="white" stroke="#666666" points="453.5,-56 380.5,-56 380.5,-37 453.5,-37 453.5,-56"/>
<text text-anchor="middle" x="417" y="-44" font-family="Helvetica,sans-Serif" font-size="10.00">rgb_2_rgbw</text>
</a>
</g>
</g>
<!-- Node1&#45;&gt;Node2 -->
<g id="edge1_Node000001_Node000002" class="edge">
<title>Node1&#45;&gt;Node2</title>
<g id="a_edge1_Node000001_Node000002"><a xlink:title=" ">
<path fill="none" stroke="#63b8ff" d="M511.62,-35.06C492.01,-37.46 470.99,-40.02 453.85,-42.12"/>
<polygon fill="#63b8ff" stroke="#63b8ff" points="512.22,-38.51 521.72,-33.83 511.37,-31.57 512.22,-38.51"/>
</a>
</g>
</g>
<!-- Node6 -->
<g id="Node000006" class="node">
<title>Node6</title>
<g id="a_Node000006"><a xlink:href="../../d1/d8d/rgbw_8cpp_a5a950c9d5ca9521e266c8d97ffdf1aeb.html#a5a950c9d5ca9521e266c8d97ffdf1aeb" target="_top" xlink:title=" ">
<polygon fill="white" stroke="#666666" points="486,-19 348,-19 348,0 486,0 486,-19"/>
<text text-anchor="middle" x="417" y="-7" font-family="Helvetica,sans-Serif" font-size="10.00">set_rgb_2_rgbw_function</text>
</a>
</g>
</g>
<!-- Node1&#45;&gt;Node6 -->
<g id="edge5_Node000001_Node000006" class="edge">
<title>Node1&#45;&gt;Node6</title>
<g id="a_edge5_Node000001_Node000006"><a xlink:title=" ">
<path fill="none" stroke="#63b8ff" d="M511.65,-20.34C503.27,-19.37 494.64,-18.37 486.15,-17.39"/>
<polygon fill="#63b8ff" stroke="#63b8ff" points="511.38,-23.83 521.72,-21.51 512.19,-16.88 511.38,-23.83"/>
</a>
</g>
</g>
<!-- Node3 -->
<g id="Node000003" class="node">
<title>Node3</title>
<g id="a_Node000003"><a xlink:href="../../d0/dee/struct_pixel_controller_aa75c347910343e54b608faf4f4a002bd.html#aa75c347910343e54b608faf4f4a002bd" target="_top" xlink:title=" ">
<polygon fill="white" stroke="#666666" points="312,-82.5 178,-82.5 178,-52.5 312,-52.5 312,-82.5"/>
<text text-anchor="start" x="186" y="-70.5" font-family="Helvetica,sans-Serif" font-size="10.00">PixelController::loadAnd</text>
<text text-anchor="middle" x="245" y="-59.5" font-family="Helvetica,sans-Serif" font-size="10.00">ScaleRGBW</text>
</a>
</g>
</g>
<!-- Node2&#45;&gt;Node3 -->
<g id="edge2_Node000002_Node000003" class="edge">
<title>Node2&#45;&gt;Node3</title>
<g id="a_edge2_Node000002_Node000003"><a xlink:title=" ">
<path fill="none" stroke="#63b8ff" d="M370.23,-52.15C352.38,-54.36 331.57,-56.93 312.15,-59.33"/>
<polygon fill="#63b8ff" stroke="#63b8ff" points="370.87,-55.6 380.36,-50.9 370.01,-48.65 370.87,-55.6"/>
</a>
</g>
</g>
<!-- Node5 -->
<g id="Node000005" class="node">
<title>Node5</title>
<g id="a_Node000005"><a xlink:href="../../d7/dbb/rgbw_8h_a805fb8e51eafd6f8bd25ea28e0f0990c.html#a805fb8e51eafd6f8bd25ea28e0f0990c" target="_top" xlink:title=" ">
<polygon fill="white" stroke="#666666" points="281.5,-34 208.5,-34 208.5,-15 281.5,-15 281.5,-34"/>
<text text-anchor="middle" x="245" y="-22" font-family="Helvetica,sans-Serif" font-size="10.00">rgb_2_rgbw</text>
</a>
</g>
</g>
<!-- Node2&#45;&gt;Node5 -->
<g id="edge4_Node000002_Node000005" class="edge">
<title>Node2&#45;&gt;Node5</title>
<g id="a_edge4_Node000002_Node000005"><a xlink:title=" ">
<path fill="none" stroke="#63b8ff" d="M370.08,-40.56C342.27,-36.96 307.31,-32.43 281.59,-29.11"/>
<polygon fill="#63b8ff" stroke="#63b8ff" points="370,-44.08 380.36,-41.89 370.89,-37.13 370,-44.08"/>
</a>
</g>
</g>
<!-- Node4 -->
<g id="Node000004" class="node">
<title>Node4</title>
<g id="a_Node000004"><a xlink:href="../../d5/d83/class_r_g_b_w_emulated_controller_aba9a2f023f2950dbcdf3c2482f765350.html#aba9a2f023f2950dbcdf3c2482f765350" target="_top" xlink:title="Send the LED data to the strip.">
<polygon fill="white" stroke="#666666" points="142,-82.5 0,-82.5 0,-52.5 142,-52.5 142,-82.5"/>
<text text-anchor="start" x="8" y="-70.5" font-family="Helvetica,sans-Serif" font-size="10.00">RGBWEmulatedController</text>
<text text-anchor="middle" x="71" y="-59.5" font-family="Helvetica,sans-Serif" font-size="10.00">::showPixels</text>
</a>
</g>
</g>
<!-- Node3&#45;&gt;Node4 -->
<g id="edge3_Node000003_Node000004" class="edge">
<title>Node3&#45;&gt;Node4</title>
<g id="a_edge3_Node000003_Node000004"><a xlink:title=" ">
<path fill="none" stroke="#63b8ff" d="M167.98,-67.5C159.37,-67.5 150.64,-67.5 142.11,-67.5"/>
<polygon fill="#63b8ff" stroke="#63b8ff" points="167.99,-71 177.99,-67.5 167.99,-64 167.99,-71"/>
</a>
</g>
</g>
</g>
</svg>
