<?xml version="1.0" encoding="UTF-8" standalone="no"?>
<!DOCTYPE svg PUBLIC "-//W3C//DTD SVG 1.1//EN"
 "http://www.w3.org/Graphics/SVG/1.1/DTD/svg11.dtd">
<!-- Generated by graphviz version 2.43.0 (0)
 -->
<!-- Title: fl::third_party::plm_demux_get_num_video_streams Pages: 1 -->
<svg width="939pt" height="622pt"
 viewBox="0.00 0.00 939.00 622.37" xmlns="http://www.w3.org/2000/svg" xmlns:xlink="http://www.w3.org/1999/xlink">
<g id="graph0" class="graph" transform="scale(1 1) rotate(0) translate(4 618.37)">
<title>fl::third_party::plm_demux_get_num_video_streams</title>
<!-- Node1 -->
<g id="Node000001" class="node">
<title>Node1</title>
<g id="a_Node000001"><a xlink:title=" ">
<polygon fill="#999999" stroke="#666666" points="931,-371.5 795,-371.5 795,-330.5 931,-330.5 931,-371.5"/>
<text text-anchor="start" x="803" y="-359.5" font-family="Helvetica,sans-Serif" font-size="10.00">fl::third_party::plm</text>
<text text-anchor="start" x="803" y="-348.5" font-family="Helvetica,sans-Serif" font-size="10.00">_demux_get_num_video</text>
<text text-anchor="middle" x="863" y="-337.5" font-family="Helvetica,sans-Serif" font-size="10.00">_streams</text>
</a>
</g>
</g>
<!-- Node2 -->
<g id="Node000002" class="node">
<title>Node2</title>
<g id="a_Node000002"><a xlink:href="../../d1/d86/namespacefl_1_1third__party_a1b15c3630555d17491f88d40d5daa8d7.html#a1b15c3630555d17491f88d40d5daa8d7" target="_top" xlink:title=" ">
<polygon fill="white" stroke="#666666" points="759,-390 617,-390 617,-360 759,-360 759,-390"/>
<text text-anchor="start" x="625" y="-378" font-family="Helvetica,sans-Serif" font-size="10.00">fl::third_party::plm</text>
<text text-anchor="middle" x="688" y="-367" font-family="Helvetica,sans-Serif" font-size="10.00">_get_num_video_streams</text>
</a>
</g>
</g>
<!-- Node1&#45;&gt;Node2 -->
<g id="edge1_Node000001_Node000002" class="edge">
<title>Node1&#45;&gt;Node2</title>
<g id="a_edge1_Node000001_Node000002"><a xlink:title=" ">
<path fill="none" stroke="#63b8ff" d="M784.68,-361.73C776.14,-362.91 767.49,-364.11 759.05,-365.28"/>
<polygon fill="#63b8ff" stroke="#63b8ff" points="785.19,-365.19 794.62,-360.35 784.23,-358.26 785.19,-365.19"/>
</a>
</g>
</g>
<!-- Node3 -->
<g id="Node000003" class="node">
<title>Node3</title>
<g id="a_Node000003"><a xlink:href="../../d1/d86/namespacefl_1_1third__party_aa149e6820de9a778f137e251623538b2.html#aa149e6820de9a778f137e251623538b2" target="_top" xlink:title=" ">
<polygon fill="white" stroke="#666666" points="741,-342 635,-342 635,-312 741,-312 741,-342"/>
<text text-anchor="start" x="643" y="-330" font-family="Helvetica,sans-Serif" font-size="10.00">fl::third_party::plm</text>
<text text-anchor="middle" x="688" y="-319" font-family="Helvetica,sans-Serif" font-size="10.00">_init_decoders</text>
</a>
</g>
</g>
<!-- Node1&#45;&gt;Node3 -->
<g id="edge2_Node000001_Node000003" class="edge">
<title>Node1&#45;&gt;Node3</title>
<g id="a_edge2_Node000001_Node000003"><a xlink:title=" ">
<path fill="none" stroke="#63b8ff" d="M784.54,-340.25C769.87,-338.22 754.85,-336.14 741.2,-334.24"/>
<polygon fill="#63b8ff" stroke="#63b8ff" points="784.23,-343.74 794.62,-341.65 785.19,-336.81 784.23,-343.74"/>
</a>
</g>
</g>
<!-- Node4 -->
<g id="Node000004" class="node">
<title>Node4</title>
<g id="a_Node000004"><a xlink:href="../../d1/d86/namespacefl_1_1third__party_a227876d827a01dbceacb287db591e0ba.html#a227876d827a01dbceacb287db591e0ba" target="_top" xlink:title=" ">
<polygon fill="white" stroke="#666666" points="572,-126 459,-126 459,-96 572,-96 572,-126"/>
<text text-anchor="start" x="467" y="-114" font-family="Helvetica,sans-Serif" font-size="10.00">fl::third_party::plm</text>
<text text-anchor="middle" x="515.5" y="-103" font-family="Helvetica,sans-Serif" font-size="10.00">_create_with_buffer</text>
</a>
</g>
</g>
<!-- Node3&#45;&gt;Node4 -->
<g id="edge3_Node000003_Node000004" class="edge">
<title>Node3&#45;&gt;Node4</title>
<g id="a_edge3_Node000003_Node000004"><a xlink:title=" ">
<path fill="none" stroke="#63b8ff" d="M679.65,-302.34C666.39,-261.88 634.73,-181.3 581,-135 577.02,-131.57 572.5,-128.61 567.75,-126.06"/>
<polygon fill="#63b8ff" stroke="#63b8ff" points="676.34,-303.47 682.7,-311.94 683.01,-301.35 676.34,-303.47"/>
</a>
</g>
</g>
<!-- Node8 -->
<g id="Node000008" class="node">
<title>Node8</title>
<g id="a_Node000008"><a xlink:href="../../d1/d86/namespacefl_1_1third__party_a1bc503e63614eaf98e85554637d466a6.html#a1bc503e63614eaf98e85554637d466a6" target="_top" xlink:title=" ">
<polygon fill="white" stroke="#666666" points="568.5,-318 462.5,-318 462.5,-288 568.5,-288 568.5,-318"/>
<text text-anchor="start" x="470.5" y="-306" font-family="Helvetica,sans-Serif" font-size="10.00">fl::third_party::plm</text>
<text text-anchor="middle" x="515.5" y="-295" font-family="Helvetica,sans-Serif" font-size="10.00">_decode</text>
</a>
</g>
</g>
<!-- Node3&#45;&gt;Node8 -->
<g id="edge6_Node000003_Node000008" class="edge">
<title>Node3&#45;&gt;Node8</title>
<g id="a_edge6_Node000003_Node000008"><a xlink:title=" ">
<path fill="none" stroke="#63b8ff" d="M624.84,-318.25C606.36,-315.65 586.32,-312.83 568.56,-310.33"/>
<polygon fill="#63b8ff" stroke="#63b8ff" points="624.53,-321.74 634.92,-319.67 625.5,-314.81 624.53,-321.74"/>
</a>
</g>
</g>
<!-- Node12 -->
<g id="Node000012" class="node">
<title>Node12</title>
<g id="a_Node000012"><a xlink:href="../../d1/d86/namespacefl_1_1third__party_aa7b11e1dc577179ef042262cc10d6262.html#aa7b11e1dc577179ef042262cc10d6262" target="_top" xlink:title=" ">
<polygon fill="white" stroke="#666666" points="568.5,-538 462.5,-538 462.5,-508 568.5,-508 568.5,-538"/>
<text text-anchor="start" x="470.5" y="-526" font-family="Helvetica,sans-Serif" font-size="10.00">fl::third_party::plm</text>
<text text-anchor="middle" x="515.5" y="-515" font-family="Helvetica,sans-Serif" font-size="10.00">_decode_audio</text>
</a>
</g>
</g>
<!-- Node3&#45;&gt;Node12 -->
<g id="edge10_Node000003_Node000012" class="edge">
<title>Node3&#45;&gt;Node12</title>
<g id="a_edge10_Node000003_Node000012"><a xlink:title=" ">
<path fill="none" stroke="#63b8ff" d="M626.11,-343.17C622.78,-345.45 619.7,-348.04 617,-351 571.38,-401.01 625.97,-448.4 581,-499 577.51,-502.93 573.31,-506.22 568.75,-508.97"/>
<polygon fill="#63b8ff" stroke="#63b8ff" points="627.9,-346.18 634.81,-338.15 624.4,-340.12 627.9,-346.18"/>
</a>
</g>
</g>
<!-- Node13 -->
<g id="Node000013" class="node">
<title>Node13</title>
<g id="a_Node000013"><a xlink:href="../../d1/d86/namespacefl_1_1third__party_a7042233986b49166564a225db6689dab.html#a7042233986b49166564a225db6689dab" target="_top" xlink:title=" ">
<polygon fill="white" stroke="#666666" points="568.5,-490 462.5,-490 462.5,-460 568.5,-460 568.5,-490"/>
<text text-anchor="start" x="470.5" y="-478" font-family="Helvetica,sans-Serif" font-size="10.00">fl::third_party::plm</text>
<text text-anchor="middle" x="515.5" y="-467" font-family="Helvetica,sans-Serif" font-size="10.00">_decode_video</text>
</a>
</g>
</g>
<!-- Node3&#45;&gt;Node13 -->
<g id="edge11_Node000003_Node000013" class="edge">
<title>Node3&#45;&gt;Node13</title>
<g id="a_edge11_Node000003_Node000013"><a xlink:title=" ">
<path fill="none" stroke="#63b8ff" d="M625.88,-343.98C622.69,-346.06 619.7,-348.39 617,-351 584.57,-382.41 611.95,-413.12 581,-446 575.78,-451.54 569.31,-456.1 562.49,-459.83"/>
<polygon fill="#63b8ff" stroke="#63b8ff" points="627.67,-346.99 634.69,-339.06 624.25,-340.88 627.67,-346.99"/>
</a>
</g>
</g>
<!-- Node14 -->
<g id="Node000014" class="node">
<title>Node14</title>
<g id="a_Node000014"><a xlink:href="../../d1/d86/namespacefl_1_1third__party_abf70334b8b2eaf5bea7d9639a42f9346.html#abf70334b8b2eaf5bea7d9639a42f9346" target="_top" xlink:title=" ">
<polygon fill="white" stroke="#666666" points="367.5,-603 261.5,-603 261.5,-573 367.5,-573 367.5,-603"/>
<text text-anchor="start" x="269.5" y="-591" font-family="Helvetica,sans-Serif" font-size="10.00">fl::third_party::plm</text>
<text text-anchor="middle" x="314.5" y="-580" font-family="Helvetica,sans-Serif" font-size="10.00">_get_framerate</text>
</a>
</g>
</g>
<!-- Node3&#45;&gt;Node14 -->
<g id="edge12_Node000003_Node000014" class="edge">
<title>Node3&#45;&gt;Node14</title>
<g id="a_edge12_Node000003_Node000014"><a xlink:title=" ">
<path fill="none" stroke="#63b8ff" d="M626,-342.81C622.67,-345.17 619.62,-347.88 617,-351 552.05,-428.13 656.13,-507.74 581,-575 523.24,-626.71 426.95,-616.15 367.57,-602.78"/>
<polygon fill="#63b8ff" stroke="#63b8ff" points="627.93,-345.73 634.77,-337.63 624.37,-339.7 627.93,-345.73"/>
</a>
</g>
</g>
<!-- Node15 -->
<g id="Node000015" class="node">
<title>Node15</title>
<g id="a_Node000015"><a xlink:href="../../d1/d86/namespacefl_1_1third__party_a6ca84cc387c6317dd72d0b558f5d59b0.html#a6ca84cc387c6317dd72d0b558f5d59b0" target="_top" xlink:title=" ">
<polygon fill="white" stroke="#666666" points="367.5,-537 261.5,-537 261.5,-507 367.5,-507 367.5,-537"/>
<text text-anchor="start" x="269.5" y="-525" font-family="Helvetica,sans-Serif" font-size="10.00">fl::third_party::plm</text>
<text text-anchor="middle" x="314.5" y="-514" font-family="Helvetica,sans-Serif" font-size="10.00">_get_height</text>
</a>
</g>
</g>
<!-- Node3&#45;&gt;Node15 -->
<g id="edge14_Node000003_Node000015" class="edge">
<title>Node3&#45;&gt;Node15</title>
<g id="a_edge14_Node000003_Node000015"><a xlink:title=" ">
<path fill="none" stroke="#63b8ff" d="M626.08,-342.88C622.73,-345.22 619.66,-347.91 617,-351 559.2,-418.1 649.05,-490.31 581,-547 513.24,-603.45 399.3,-562.04 345.44,-537.16"/>
<polygon fill="#63b8ff" stroke="#63b8ff" points="628.01,-345.8 634.88,-337.73 624.48,-339.76 628.01,-345.8"/>
</a>
</g>
</g>
<!-- Node16 -->
<g id="Node000016" class="node">
<title>Node16</title>
<g id="a_Node000016"><a xlink:href="../../d1/d86/namespacefl_1_1third__party_ac5363930c9135c862c0f6a6c77dd664a.html#ac5363930c9135c862c0f6a6c77dd664a" target="_top" xlink:title=" ">
<polygon fill="white" stroke="#666666" points="581,-366 450,-366 450,-336 581,-336 581,-366"/>
<text text-anchor="start" x="458" y="-354" font-family="Helvetica,sans-Serif" font-size="10.00">fl::third_party::plm</text>
<text text-anchor="middle" x="515.5" y="-343" font-family="Helvetica,sans-Serif" font-size="10.00">_get_pixel_aspect_ratio</text>
</a>
</g>
</g>
<!-- Node3&#45;&gt;Node16 -->
<g id="edge16_Node000003_Node000016" class="edge">
<title>Node3&#45;&gt;Node16</title>
<g id="a_edge16_Node000003_Node000016"><a xlink:title=" ">
<path fill="none" stroke="#63b8ff" d="M624.78,-335.76C610.6,-337.75 595.5,-339.88 581.21,-341.89"/>
<polygon fill="#63b8ff" stroke="#63b8ff" points="625.5,-339.19 634.92,-334.33 624.53,-332.26 625.5,-339.19"/>
</a>
</g>
</g>
<!-- Node17 -->
<g id="Node000017" class="node">
<title>Node17</title>
<g id="a_Node000017"><a xlink:href="../../d1/d86/namespacefl_1_1third__party_a240d8cac4b0427331bf7341f4c398922.html#a240d8cac4b0427331bf7341f4c398922" target="_top" xlink:title=" ">
<polygon fill="white" stroke="#666666" points="568.5,-222 462.5,-222 462.5,-192 568.5,-192 568.5,-222"/>
<text text-anchor="start" x="470.5" y="-210" font-family="Helvetica,sans-Serif" font-size="10.00">fl::third_party::plm</text>
<text text-anchor="middle" x="515.5" y="-199" font-family="Helvetica,sans-Serif" font-size="10.00">_get_samplerate</text>
</a>
</g>
</g>
<!-- Node3&#45;&gt;Node17 -->
<g id="edge17_Node000003_Node000017" class="edge">
<title>Node3&#45;&gt;Node17</title>
<g id="a_edge17_Node000003_Node000017"><a xlink:title=" ">
<path fill="none" stroke="#63b8ff" d="M666.89,-304.38C646.9,-283.02 614.45,-251.33 581,-231 575.59,-227.71 569.65,-224.76 563.64,-222.14"/>
<polygon fill="#63b8ff" stroke="#63b8ff" points="664.33,-306.75 673.68,-311.74 669.47,-302.01 664.33,-306.75"/>
</a>
</g>
</g>
<!-- Node19 -->
<g id="Node000019" class="node">
<title>Node19</title>
<g id="a_Node000019"><a xlink:href="../../d1/d86/namespacefl_1_1third__party_a6432ecaf882a9a7b2e28e8c44fcee9b9.html#a6432ecaf882a9a7b2e28e8c44fcee9b9" target="_top" xlink:title=" ">
<polygon fill="white" stroke="#666666" points="367.5,-454 261.5,-454 261.5,-424 367.5,-424 367.5,-454"/>
<text text-anchor="start" x="269.5" y="-442" font-family="Helvetica,sans-Serif" font-size="10.00">fl::third_party::plm</text>
<text text-anchor="middle" x="314.5" y="-431" font-family="Helvetica,sans-Serif" font-size="10.00">_get_width</text>
</a>
</g>
</g>
<!-- Node3&#45;&gt;Node19 -->
<g id="edge19_Node000003_Node000019" class="edge">
<title>Node3&#45;&gt;Node19</title>
<g id="a_edge19_Node000003_Node000019"><a xlink:title=" ">
<path fill="none" stroke="#63b8ff" d="M625.56,-345.55C622.58,-347.22 619.7,-349.04 617,-351 595.43,-366.68 603.89,-385.33 581,-399 515.07,-438.38 424.04,-443.64 367.52,-442.39"/>
<polygon fill="#63b8ff" stroke="#63b8ff" points="627.4,-348.54 634.78,-340.95 624.27,-342.28 627.4,-348.54"/>
</a>
</g>
</g>
<!-- Node20 -->
<g id="Node000020" class="node">
<title>Node20</title>
<g id="a_Node000020"><a xlink:href="../../d1/d86/namespacefl_1_1third__party_aebf4f33bb1a89793cc43decc58e863e4.html#aebf4f33bb1a89793cc43decc58e863e4" target="_top" xlink:title=" ">
<polygon fill="white" stroke="#666666" points="367.5,-406 261.5,-406 261.5,-376 367.5,-376 367.5,-406"/>
<text text-anchor="start" x="269.5" y="-394" font-family="Helvetica,sans-Serif" font-size="10.00">fl::third_party::plm</text>
<text text-anchor="middle" x="314.5" y="-383" font-family="Helvetica,sans-Serif" font-size="10.00">_has_headers</text>
</a>
</g>
</g>
<!-- Node3&#45;&gt;Node20 -->
<g id="edge21_Node000003_Node000020" class="edge">
<title>Node3&#45;&gt;Node20</title>
<g id="a_edge21_Node000003_Node000020"><a xlink:title=" ">
<path fill="none" stroke="#63b8ff" d="M628.17,-345.91C624.34,-347.53 620.59,-349.23 617,-351 599.76,-359.52 599.23,-368.88 581,-375 509.98,-398.86 422.33,-398.9 367.67,-395.73"/>
<polygon fill="#63b8ff" stroke="#63b8ff" points="629.78,-349.04 637.77,-342.08 627.18,-342.54 629.78,-349.04"/>
</a>
</g>
</g>
<!-- Node21 -->
<g id="Node000021" class="node">
<title>Node21</title>
<g id="a_Node000021"><a xlink:href="../../d1/d86/namespacefl_1_1third__party_a1a6ed4c03387fe8a2259fd35cb8483e3.html#a1a6ed4c03387fe8a2259fd35cb8483e3" target="_top" xlink:title=" ">
<polygon fill="white" stroke="#666666" points="568.5,-174 462.5,-174 462.5,-144 568.5,-144 568.5,-174"/>
<text text-anchor="start" x="470.5" y="-162" font-family="Helvetica,sans-Serif" font-size="10.00">fl::third_party::plm</text>
<text text-anchor="middle" x="515.5" y="-151" font-family="Helvetica,sans-Serif" font-size="10.00">_probe</text>
</a>
</g>
</g>
<!-- Node3&#45;&gt;Node21 -->
<g id="edge23_Node000003_Node000021" class="edge">
<title>Node3&#45;&gt;Node21</title>
<g id="a_edge23_Node000003_Node000021"><a xlink:title=" ">
<path fill="none" stroke="#63b8ff" d="M674.88,-302.65C657.94,-270.93 624.35,-215.7 581,-183 576.52,-179.62 571.51,-176.67 566.31,-174.11"/>
<polygon fill="#63b8ff" stroke="#63b8ff" points="671.86,-304.44 679.59,-311.68 678.07,-301.2 671.86,-304.44"/>
</a>
</g>
</g>
<!-- Node22 -->
<g id="Node000022" class="node">
<title>Node22</title>
<g id="a_Node000022"><a xlink:href="../../d1/d86/namespacefl_1_1third__party_afe3f3b7f1f7826ec14abbbf7dbd9da3b.html#afe3f3b7f1f7826ec14abbbf7dbd9da3b" target="_top" xlink:title=" ">
<polygon fill="white" stroke="#666666" points="568.5,-270 462.5,-270 462.5,-240 568.5,-240 568.5,-270"/>
<text text-anchor="start" x="470.5" y="-258" font-family="Helvetica,sans-Serif" font-size="10.00">fl::third_party::plm</text>
<text text-anchor="middle" x="515.5" y="-247" font-family="Helvetica,sans-Serif" font-size="10.00">_seek_frame</text>
</a>
</g>
</g>
<!-- Node3&#45;&gt;Node22 -->
<g id="edge24_Node000003_Node000022" class="edge">
<title>Node3&#45;&gt;Node22</title>
<g id="a_edge24_Node000003_Node000022"><a xlink:title=" ">
<path fill="none" stroke="#63b8ff" d="M646.02,-307.65C626.47,-298.62 602.67,-287.93 581,-279 573.71,-276 565.89,-272.95 558.3,-270.07"/>
<polygon fill="#63b8ff" stroke="#63b8ff" points="644.7,-310.89 655.24,-311.93 647.65,-304.54 644.7,-310.89"/>
</a>
</g>
</g>
<!-- Node23 -->
<g id="Node000023" class="node">
<title>Node23</title>
<g id="a_Node000023"><a xlink:href="../../d1/d86/namespacefl_1_1third__party_a77641b20783a3e6975e2a95e913ea304.html#a77641b20783a3e6975e2a95e913ea304" target="_top" xlink:title=" ">
<polygon fill="white" stroke="#666666" points="572,-78 459,-78 459,-48 572,-48 572,-78"/>
<text text-anchor="start" x="467" y="-66" font-family="Helvetica,sans-Serif" font-size="10.00">fl::third_party::plm</text>
<text text-anchor="middle" x="515.5" y="-55" font-family="Helvetica,sans-Serif" font-size="10.00">_set_audio_enabled</text>
</a>
</g>
</g>
<!-- Node3&#45;&gt;Node23 -->
<g id="edge26_Node000003_Node000023" class="edge">
<title>Node3&#45;&gt;Node23</title>
<g id="a_edge26_Node000003_Node000023"><a xlink:title=" ">
<path fill="none" stroke="#63b8ff" d="M682.58,-301.78C672.85,-253.49 645.11,-147.4 581,-87 577.35,-83.56 573.16,-80.6 568.7,-78.06"/>
<polygon fill="#63b8ff" stroke="#63b8ff" points="679.17,-302.54 684.49,-311.7 686.04,-301.22 679.17,-302.54"/>
</a>
</g>
</g>
<!-- Node26 -->
<g id="Node000026" class="node">
<title>Node26</title>
<g id="a_Node000026"><a xlink:href="../../d1/d86/namespacefl_1_1third__party_ae88362a2a9d89cdf5f341e69a99f3d52.html#ae88362a2a9d89cdf5f341e69a99f3d52" target="_top" xlink:title=" ">
<polygon fill="white" stroke="#666666" points="572,-30 459,-30 459,0 572,0 572,-30"/>
<text text-anchor="start" x="467" y="-18" font-family="Helvetica,sans-Serif" font-size="10.00">fl::third_party::plm</text>
<text text-anchor="middle" x="515.5" y="-7" font-family="Helvetica,sans-Serif" font-size="10.00">_set_video_enabled</text>
</a>
</g>
</g>
<!-- Node3&#45;&gt;Node26 -->
<g id="edge30_Node000003_Node000026" class="edge">
<title>Node3&#45;&gt;Node26</title>
<g id="a_edge30_Node000003_Node000026"><a xlink:title=" ">
<path fill="none" stroke="#63b8ff" d="M684.73,-301.88C678.43,-246.76 655.92,-114.19 581,-39 577.54,-35.53 573.54,-32.56 569.25,-30.01"/>
<polygon fill="#63b8ff" stroke="#63b8ff" points="681.25,-302.25 685.78,-311.83 688.21,-301.51 681.25,-302.25"/>
</a>
</g>
</g>
<!-- Node5 -->
<g id="Node000005" class="node">
<title>Node5</title>
<g id="a_Node000005"><a xlink:href="../../d1/d86/namespacefl_1_1third__party_a7340787a27a3d396d64687a980b1be92.html#a7340787a27a3d396d64687a980b1be92" target="_top" xlink:title=" ">
<polygon fill="white" stroke="#666666" points="377,-172 252,-172 252,-142 377,-142 377,-172"/>
<text text-anchor="start" x="260" y="-160" font-family="Helvetica,sans-Serif" font-size="10.00">fl::third_party::plm</text>
<text text-anchor="middle" x="314.5" y="-149" font-family="Helvetica,sans-Serif" font-size="10.00">_create_with_memory</text>
</a>
</g>
</g>
<!-- Node4&#45;&gt;Node5 -->
<g id="edge4_Node000004_Node000005" class="edge">
<title>Node4&#45;&gt;Node5</title>
<g id="a_edge4_Node000004_Node000005"><a xlink:title=" ">
<path fill="none" stroke="#63b8ff" d="M448.76,-126.2C425.68,-131.53 399.85,-137.5 377.13,-142.75"/>
<polygon fill="#63b8ff" stroke="#63b8ff" points="449.85,-129.54 458.8,-123.87 448.27,-122.72 449.85,-129.54"/>
</a>
</g>
</g>
<!-- Node6 -->
<g id="Node000006" class="node">
<title>Node6</title>
<g id="a_Node000006"><a xlink:href="../../d4/dd1/classfl_1_1third__party_1_1_software_mpeg1_decoder_acf914e476927964b30c78a9481e6078b.html#acf914e476927964b30c78a9481e6078b" target="_top" xlink:title=" ">
<polygon fill="#fff0f0" stroke="red" points="179,-406 0,-406 0,-376 179,-376 179,-406"/>
<text text-anchor="start" x="8" y="-394" font-family="Helvetica,sans-Serif" font-size="10.00">fl::third_party::Software</text>
<text text-anchor="middle" x="89.5" y="-383" font-family="Helvetica,sans-Serif" font-size="10.00">Mpeg1Decoder::initializeDecoder</text>
</a>
</g>
</g>
<!-- Node5&#45;&gt;Node6 -->
<g id="edge5_Node000005_Node000006" class="edge">
<title>Node5&#45;&gt;Node6</title>
<g id="a_edge5_Node000005_Node000006"><a xlink:title=" ">
<path fill="none" stroke="#63b8ff" d="M242.08,-168.72C232.41,-172.29 223.06,-176.94 215,-183 145.88,-234.98 107.5,-337.54 95.05,-375.98"/>
<polygon fill="#63b8ff" stroke="#63b8ff" points="243.43,-171.97 251.82,-165.5 241.23,-165.32 243.43,-171.97"/>
</a>
</g>
</g>
<!-- Node8&#45;&gt;Node6 -->
<g id="edge8_Node000008_Node000006" class="edge">
<title>Node8&#45;&gt;Node6</title>
<g id="a_edge8_Node000008_Node000006"><a xlink:title=" ">
<path fill="none" stroke="#63b8ff" d="M452.05,-297.98C390.45,-294.96 294.27,-295.44 215,-319 174.55,-331.02 133.25,-358.55 109.85,-375.87"/>
<polygon fill="#63b8ff" stroke="#63b8ff" points="452.21,-301.5 462.39,-298.54 452.59,-294.51 452.21,-301.5"/>
</a>
</g>
</g>
<!-- Node9 -->
<g id="Node000009" class="node">
<title>Node9</title>
<g id="a_Node000009"><a xlink:href="../../d4/dd1/classfl_1_1third__party_1_1_software_mpeg1_decoder_a35d1b94d48e69e75c281e0762343ce01.html#a35d1b94d48e69e75c281e0762343ce01" target="_top" xlink:title=" ">
<polygon fill="#fff0f0" stroke="red" points="407,-358 222,-358 222,-328 407,-328 407,-358"/>
<text text-anchor="start" x="230" y="-346" font-family="Helvetica,sans-Serif" font-size="10.00">fl::third_party::Software</text>
<text text-anchor="middle" x="314.5" y="-335" font-family="Helvetica,sans-Serif" font-size="10.00">Mpeg1Decoder::decodeNextFrame</text>
</a>
</g>
</g>
<!-- Node8&#45;&gt;Node9 -->
<g id="edge7_Node000008_Node000009" class="edge">
<title>Node8&#45;&gt;Node9</title>
<g id="a_edge7_Node000008_Node000009"><a xlink:title=" ">
<path fill="none" stroke="#63b8ff" d="M452.43,-315.48C432.79,-319.42 410.88,-323.83 390.44,-327.94"/>
<polygon fill="#63b8ff" stroke="#63b8ff" points="453.36,-318.86 462.48,-313.46 451.98,-312 453.36,-318.86"/>
</a>
</g>
</g>
<!-- Node11 -->
<g id="Node000011" class="node">
<title>Node11</title>
<g id="a_Node000011"><a xlink:href="../../d1/d86/namespacefl_1_1third__party_a2052954d657f0fa787318f80296ed52f.html#a2052954d657f0fa787318f80296ed52f" target="_top" xlink:title=" ">
<polygon fill="white" stroke="#666666" points="381.5,-266.5 247.5,-266.5 247.5,-247.5 381.5,-247.5 381.5,-266.5"/>
<text text-anchor="middle" x="314.5" y="-254.5" font-family="Helvetica,sans-Serif" font-size="10.00">fl::third_party::plm_seek</text>
</a>
</g>
</g>
<!-- Node8&#45;&gt;Node11 -->
<g id="edge9_Node000008_Node000011" class="edge">
<title>Node8&#45;&gt;Node11</title>
<g id="a_edge9_Node000008_Node000011"><a xlink:title=" ">
<path fill="none" stroke="#63b8ff" d="M452.59,-288.69C421.44,-281.49 384.54,-272.96 356.88,-266.56"/>
<polygon fill="#63b8ff" stroke="#63b8ff" points="451.94,-292.13 462.48,-290.97 453.52,-285.31 451.94,-292.13"/>
</a>
</g>
</g>
<!-- Node14&#45;&gt;Node6 -->
<g id="edge13_Node000014_Node000006" class="edge">
<title>Node14&#45;&gt;Node6</title>
<g id="a_edge13_Node000014_Node000006"><a xlink:title=" ">
<path fill="none" stroke="#63b8ff" d="M255.71,-568.94C241.64,-562.84 227.16,-555.22 215,-546 161.36,-505.34 117.2,-436.69 99.2,-406.28"/>
<polygon fill="#63b8ff" stroke="#63b8ff" points="254.78,-572.34 265.35,-572.93 257.45,-565.87 254.78,-572.34"/>
</a>
</g>
</g>
<!-- Node15&#45;&gt;Node6 -->
<g id="edge15_Node000015_Node000006" class="edge">
<title>Node15&#45;&gt;Node6</title>
<g id="a_edge15_Node000015_Node000006"><a xlink:title=" ">
<path fill="none" stroke="#63b8ff" d="M279.11,-501.8C234.12,-475.37 156.29,-429.65 116.13,-406.05"/>
<polygon fill="#63b8ff" stroke="#63b8ff" points="277.52,-504.93 287.92,-506.97 281.07,-498.89 277.52,-504.93"/>
</a>
</g>
</g>
<!-- Node18 -->
<g id="Node000018" class="node">
<title>Node18</title>
<g id="a_Node000018"><a xlink:href="../../d4/dd1/classfl_1_1third__party_1_1_software_mpeg1_decoder_a217d2259da69ada22cbe7f9fa6da60fb.html#a217d2259da69ada22cbe7f9fa6da60fb" target="_top" xlink:title=" ">
<polygon fill="white" stroke="#666666" points="414,-222 215,-222 215,-192 414,-192 414,-222"/>
<text text-anchor="start" x="223" y="-210" font-family="Helvetica,sans-Serif" font-size="10.00">fl::third_party::Software</text>
<text text-anchor="middle" x="314.5" y="-199" font-family="Helvetica,sans-Serif" font-size="10.00">Mpeg1Decoder::getAudioSampleRate</text>
</a>
</g>
</g>
<!-- Node17&#45;&gt;Node18 -->
<g id="edge18_Node000017_Node000018" class="edge">
<title>Node17&#45;&gt;Node18</title>
<g id="a_edge18_Node000017_Node000018"><a xlink:title=" ">
<path fill="none" stroke="#63b8ff" d="M452.12,-207C440.05,-207 427.14,-207 414.25,-207"/>
<polygon fill="#63b8ff" stroke="#63b8ff" points="452.48,-210.5 462.48,-207 452.47,-203.5 452.48,-210.5"/>
</a>
</g>
</g>
<!-- Node19&#45;&gt;Node6 -->
<g id="edge20_Node000019_Node000006" class="edge">
<title>Node19&#45;&gt;Node6</title>
<g id="a_edge20_Node000019_Node000006"><a xlink:title=" ">
<path fill="none" stroke="#63b8ff" d="M251.71,-425.7C223.36,-419.6 189.63,-412.34 160.36,-406.04"/>
<polygon fill="#63b8ff" stroke="#63b8ff" points="250.99,-429.12 261.5,-427.81 252.46,-422.28 250.99,-429.12"/>
</a>
</g>
</g>
<!-- Node20&#45;&gt;Node6 -->
<g id="edge22_Node000020_Node000006" class="edge">
<title>Node20&#45;&gt;Node6</title>
<g id="a_edge22_Node000020_Node000006"><a xlink:title=" ">
<path fill="none" stroke="#63b8ff" d="M251.49,-391C229.15,-391 203.49,-391 179.32,-391"/>
<polygon fill="#63b8ff" stroke="#63b8ff" points="251.5,-394.5 261.5,-391 251.5,-387.5 251.5,-394.5"/>
</a>
</g>
</g>
<!-- Node22&#45;&gt;Node11 -->
<g id="edge25_Node000022_Node000011" class="edge">
<title>Node22&#45;&gt;Node11</title>
<g id="a_edge25_Node000022_Node000011"><a xlink:title=" ">
<path fill="none" stroke="#63b8ff" d="M452.41,-255.62C430,-255.85 404.63,-256.1 381.86,-256.33"/>
<polygon fill="#63b8ff" stroke="#63b8ff" points="452.51,-259.12 462.48,-255.52 452.44,-252.12 452.51,-259.12"/>
</a>
</g>
</g>
<!-- Node23&#45;&gt;Node6 -->
<g id="edge27_Node000023_Node000006" class="edge">
<title>Node23&#45;&gt;Node6</title>
<g id="a_edge27_Node000023_Node000006"><a xlink:title=" ">
<path fill="none" stroke="#63b8ff" d="M449.26,-79.44C437.53,-82.34 425.41,-85.29 414,-88 325.77,-108.95 285.97,-76.56 215,-133 132.86,-198.31 101.55,-331.23 93.07,-375.94"/>
<polygon fill="#63b8ff" stroke="#63b8ff" points="450.13,-82.83 459,-77.03 448.45,-76.04 450.13,-82.83"/>
</a>
</g>
</g>
<!-- Node24 -->
<g id="Node000024" class="node">
<title>Node24</title>
<g id="a_Node000024"><a xlink:href="../../d1/d86/namespacefl_1_1third__party_aea7f116425c719429b102abaea3a1e7f.html#aea7f116425c719429b102abaea3a1e7f" target="_top" xlink:title=" ">
<polygon fill="white" stroke="#666666" points="369,-79 260,-79 260,-49 369,-49 369,-79"/>
<text text-anchor="start" x="268" y="-67" font-family="Helvetica,sans-Serif" font-size="10.00">fl::third_party::plm</text>
<text text-anchor="middle" x="314.5" y="-56" font-family="Helvetica,sans-Serif" font-size="10.00">_set_audio_stream</text>
</a>
</g>
</g>
<!-- Node23&#45;&gt;Node24 -->
<g id="edge28_Node000023_Node000024" class="edge">
<title>Node23&#45;&gt;Node24</title>
<g id="a_edge28_Node000023_Node000024"><a xlink:title=" ">
<path fill="none" stroke="#63b8ff" d="M448.72,-63.33C422.89,-63.46 393.63,-63.61 369.12,-63.73"/>
<polygon fill="#63b8ff" stroke="#63b8ff" points="448.82,-66.83 458.8,-63.28 448.79,-59.83 448.82,-66.83"/>
</a>
</g>
</g>
<!-- Node25 -->
<g id="Node000025" class="node">
<title>Node25</title>
<g id="a_Node000025"><a xlink:href="../../d4/dd1/classfl_1_1third__party_1_1_software_mpeg1_decoder_aace4814177de5661ac26415404777c06.html#aace4814177de5661ac26415404777c06" target="_top" xlink:title=" ">
<polygon fill="white" stroke="#666666" points="405,-31 224,-31 224,-1 405,-1 405,-31"/>
<text text-anchor="start" x="232" y="-19" font-family="Helvetica,sans-Serif" font-size="10.00">fl::third_party::Software</text>
<text text-anchor="middle" x="314.5" y="-8" font-family="Helvetica,sans-Serif" font-size="10.00">Mpeg1Decoder::setAudioCallback</text>
</a>
</g>
</g>
<!-- Node23&#45;&gt;Node25 -->
<g id="edge29_Node000023_Node000025" class="edge">
<title>Node23&#45;&gt;Node25</title>
<g id="a_edge29_Node000023_Node000025"><a xlink:title=" ">
<path fill="none" stroke="#63b8ff" d="M449.04,-47.54C426.61,-42.24 401.55,-36.32 379.26,-31.06"/>
<polygon fill="#63b8ff" stroke="#63b8ff" points="448.27,-50.95 458.8,-49.85 449.88,-44.14 448.27,-50.95"/>
</a>
</g>
</g>
</g>
</svg>
