<?xml version="1.0" encoding="UTF-8" standalone="no"?>
<!DOCTYPE svg PUBLIC "-//W3C//DTD SVG 1.1//EN"
 "http://www.w3.org/Graphics/SVG/1.1/DTD/svg11.dtd">
<!-- Generated by graphviz version 2.43.0 (0)
 -->
<!-- Title: fl::third_party::nsgif__initialise_sprite Pages: 1 -->
<svg width="560pt" height="60pt"
 viewBox="0.00 0.00 560.00 60.00" xmlns="http://www.w3.org/2000/svg" xmlns:xlink="http://www.w3.org/1999/xlink">
<g id="graph0" class="graph" transform="scale(1 1) rotate(0) translate(4 56)">
<title>fl::third_party::nsgif__initialise_sprite</title>
<!-- Node1 -->
<g id="Node000001" class="node">
<title>Node1</title>
<g id="a_Node000001"><a xlink:title="Updates the sprite memory size.">
<polygon fill="#999999" stroke="#666666" points="552,-30 441,-30 441,0 552,0 552,-30"/>
<text text-anchor="start" x="449" y="-18" font-family="Helvetica,sans-Serif" font-size="10.00">fl::third_party::nsgif</text>
<text text-anchor="middle" x="496.5" y="-7" font-family="Helvetica,sans-Serif" font-size="10.00">__initialise_sprite</text>
</a>
</g>
</g>
<!-- Node2 -->
<g id="Node000002" class="node">
<title>Node2</title>
<g id="a_Node000002"><a xlink:href="../../d1/d86/namespacefl_1_1third__party_a16ccbeb5958b1d4b1dadd0d004f4a056.html#a16ccbeb5958b1d4b1dadd0d004f4a056" target="_top" xlink:title="Helper to get the rendering bitmap for a gif.">
<polygon fill="white" stroke="#666666" points="405,-30 294,-30 294,0 405,0 405,-30"/>
<text text-anchor="start" x="302" y="-18" font-family="Helvetica,sans-Serif" font-size="10.00">fl::third_party::nsgif</text>
<text text-anchor="middle" x="349.5" y="-7" font-family="Helvetica,sans-Serif" font-size="10.00">__bitmap_get</text>
</a>
</g>
</g>
<!-- Node1&#45;&gt;Node2 -->
<g id="edge1_Node000001_Node000002" class="edge">
<title>Node1&#45;&gt;Node2</title>
<g id="a_edge1_Node000001_Node000002"><a xlink:title=" ">
<path fill="none" stroke="#63b8ff" d="M430.54,-15C422.14,-15 413.61,-15 405.4,-15"/>
<polygon fill="#63b8ff" stroke="#63b8ff" points="430.68,-18.5 440.68,-15 430.68,-11.5 430.68,-18.5"/>
</a>
</g>
</g>
<!-- Node3 -->
<g id="Node000003" class="node">
<title>Node3</title>
<g id="a_Node000003"><a xlink:href="../../d1/d86/namespacefl_1_1third__party_a17e7cbf4c06570cddcfcb56e99bd626a.html#a17e7cbf4c06570cddcfcb56e99bd626a" target="_top" xlink:title=" ">
<polygon fill="white" stroke="#666666" points="258,-52 147,-52 147,-22 258,-22 258,-52"/>
<text text-anchor="start" x="155" y="-40" font-family="Helvetica,sans-Serif" font-size="10.00">fl::third_party::nsgif</text>
<text text-anchor="middle" x="202.5" y="-29" font-family="Helvetica,sans-Serif" font-size="10.00">__record_frame</text>
</a>
</g>
</g>
<!-- Node2&#45;&gt;Node3 -->
<g id="edge2_Node000002_Node000003" class="edge">
<title>Node2&#45;&gt;Node3</title>
<g id="a_edge2_Node000002_Node000003"><a xlink:title=" ">
<path fill="none" stroke="#63b8ff" d="M283.54,-24.86C275.14,-26.13 266.61,-27.42 258.4,-28.67"/>
<polygon fill="#63b8ff" stroke="#63b8ff" points="284.32,-28.28 293.68,-23.32 283.27,-21.36 284.32,-28.28"/>
</a>
</g>
</g>
<!-- Node4 -->
<g id="Node000004" class="node">
<title>Node4</title>
<g id="a_Node000004"><a xlink:href="../../d1/d86/namespacefl_1_1third__party_aa9b6d03b719534d98113784d4ad52b3f.html#aa9b6d03b719534d98113784d4ad52b3f" target="_top" xlink:title=" ">
<polygon fill="#fff0f0" stroke="red" points="111,-30 0,-30 0,0 111,0 111,-30"/>
<text text-anchor="start" x="8" y="-18" font-family="Helvetica,sans-Serif" font-size="10.00">fl::third_party::nsgif</text>
<text text-anchor="middle" x="55.5" y="-7" font-family="Helvetica,sans-Serif" font-size="10.00">__update_bitmap</text>
</a>
</g>
</g>
<!-- Node2&#45;&gt;Node4 -->
<g id="edge4_Node000002_Node000004" class="edge">
<title>Node2&#45;&gt;Node4</title>
<g id="a_edge4_Node000002_Node000004"><a xlink:title=" ">
<path fill="none" stroke="#63b8ff" d="M283.83,-13.4C275.15,-13.23 266.36,-13.09 258,-13 208.67,-12.45 196.33,-12.45 147,-13 135.37,-13.13 122.9,-13.35 111.05,-13.6"/>
<polygon fill="#63b8ff" stroke="#63b8ff" points="283.88,-16.9 293.95,-13.6 284.02,-9.9 283.88,-16.9"/>
</a>
</g>
</g>
<!-- Node3&#45;&gt;Node4 -->
<g id="edge3_Node000003_Node000004" class="edge">
<title>Node3&#45;&gt;Node4</title>
<g id="a_edge3_Node000003_Node000004"><a xlink:title=" ">
<path fill="none" stroke="#63b8ff" d="M136.54,-27.14C128.14,-25.87 119.61,-24.58 111.4,-23.33"/>
<polygon fill="#63b8ff" stroke="#63b8ff" points="136.27,-30.64 146.68,-28.68 137.32,-23.72 136.27,-30.64"/>
</a>
</g>
</g>
</g>
</svg>
