<?xml version="1.0" encoding="UTF-8" standalone="no"?>
<!DOCTYPE svg PUBLIC "-//W3C//DTD SVG 1.1//EN"
 "http://www.w3.org/Graphics/SVG/1.1/DTD/svg11.dtd">
<!-- Generated by graphviz version 2.43.0 (0)
 -->
<!-- Title: fl::third_party::UnpackSideInfo Pages: 1 -->
<svg width="556pt" height="113pt"
 viewBox="0.00 0.00 556.00 112.50" xmlns="http://www.w3.org/2000/svg" xmlns:xlink="http://www.w3.org/1999/xlink">
<g id="graph0" class="graph" transform="scale(1 1) rotate(0) translate(4 108.5)">
<title>fl::third_party::UnpackSideInfo</title>
<!-- Node1 -->
<g id="Node000001" class="node">
<title>Node1</title>
<g id="a_Node000001"><a xlink:title=" ">
<polygon fill="#999999" stroke="#666666" points="164,-67.5 0,-67.5 0,-48.5 164,-48.5 164,-67.5"/>
<text text-anchor="middle" x="82" y="-55.5" font-family="Helvetica,sans-Serif" font-size="10.00">fl::third_party::UnpackSideInfo</text>
</a>
</g>
</g>
<!-- Node2 -->
<g id="Node000002" class="node">
<title>Node2</title>
<g id="a_Node000002"><a xlink:href="../../d1/d86/namespacefl_1_1third__party_afd94d136da7d92853370ac0fdccaaa1d.html#afd94d136da7d92853370ac0fdccaaa1d" target="_top" xlink:title=" ">
<polygon fill="white" stroke="#666666" points="352,-104.5 200,-104.5 200,-85.5 352,-85.5 352,-104.5"/>
<text text-anchor="middle" x="276" y="-92.5" font-family="Helvetica,sans-Serif" font-size="10.00">fl::third_party::CalcBitsUsed</text>
</a>
</g>
</g>
<!-- Node1&#45;&gt;Node2 -->
<g id="edge1_Node000001_Node000002" class="edge">
<title>Node1&#45;&gt;Node2</title>
<g id="a_edge1_Node000001_Node000002"><a xlink:title=" ">
<path fill="none" stroke="#63b8ff" d="M132.44,-67.53C157.77,-72.41 188.79,-78.39 215.42,-83.52"/>
<polygon fill="#63b8ff" stroke="#63b8ff" points="214.91,-86.98 225.39,-85.44 216.23,-80.11 214.91,-86.98"/>
</a>
</g>
</g>
<!-- Node3 -->
<g id="Node000003" class="node">
<title>Node3</title>
<g id="a_Node000003"><a xlink:href="../../d1/d86/namespacefl_1_1third__party_a614951d2f2045cf15780da053191bef2.html#a614951d2f2045cf15780da053191bef2" target="_top" xlink:title=" ">
<polygon fill="white" stroke="#666666" points="337.5,-67.5 214.5,-67.5 214.5,-48.5 337.5,-48.5 337.5,-67.5"/>
<text text-anchor="middle" x="276" y="-55.5" font-family="Helvetica,sans-Serif" font-size="10.00">fl::third_party::GetBits</text>
</a>
</g>
</g>
<!-- Node1&#45;&gt;Node3 -->
<g id="edge2_Node000001_Node000003" class="edge">
<title>Node1&#45;&gt;Node3</title>
<g id="a_edge2_Node000001_Node000003"><a xlink:title=" ">
<path fill="none" stroke="#63b8ff" d="M164.15,-58C177.39,-58 191.02,-58 204,-58"/>
<polygon fill="#63b8ff" stroke="#63b8ff" points="204.24,-61.5 214.24,-58 204.24,-54.5 204.24,-61.5"/>
</a>
</g>
</g>
<!-- Node5 -->
<g id="Node000005" class="node">
<title>Node5</title>
<g id="a_Node000005"><a xlink:href="../../d1/d86/namespacefl_1_1third__party_a61f4a9ff024a8f993376d2966c43c0fd.html#a61f4a9ff024a8f993376d2966c43c0fd" target="_top" xlink:title=" ">
<polygon fill="white" stroke="#666666" points="351.5,-30 200.5,-30 200.5,0 351.5,0 351.5,-30"/>
<text text-anchor="start" x="208.5" y="-18" font-family="Helvetica,sans-Serif" font-size="10.00">fl::third_party::SetBitstream</text>
<text text-anchor="middle" x="276" y="-7" font-family="Helvetica,sans-Serif" font-size="10.00">Pointer</text>
</a>
</g>
</g>
<!-- Node1&#45;&gt;Node5 -->
<g id="edge4_Node000001_Node000005" class="edge">
<title>Node1&#45;&gt;Node5</title>
<g id="a_edge4_Node000001_Node000005"><a xlink:title=" ">
<path fill="none" stroke="#63b8ff" d="M125.61,-48.46C146.88,-43.69 173.27,-37.78 197.92,-32.26"/>
<polygon fill="#63b8ff" stroke="#63b8ff" points="199,-35.61 208,-30.01 197.47,-28.78 199,-35.61"/>
</a>
</g>
</g>
<!-- Node4 -->
<g id="Node000004" class="node">
<title>Node4</title>
<g id="a_Node000004"><a xlink:href="../../d1/d86/namespacefl_1_1third__party_afc1a01417b4b8c89b702ceda01954861.html#afc1a01417b4b8c89b702ceda01954861" target="_top" xlink:title=" ">
<polygon fill="white" stroke="#666666" points="548,-73 388,-73 388,-43 548,-43 548,-73"/>
<text text-anchor="start" x="396" y="-61" font-family="Helvetica,sans-Serif" font-size="10.00">fl::third_party::RefillBitstream</text>
<text text-anchor="middle" x="468" y="-50" font-family="Helvetica,sans-Serif" font-size="10.00">Cache</text>
</a>
</g>
</g>
<!-- Node3&#45;&gt;Node4 -->
<g id="edge3_Node000003_Node000004" class="edge">
<title>Node3&#45;&gt;Node4</title>
<g id="a_edge3_Node000003_Node000004"><a xlink:title=" ">
<path fill="none" stroke="#63b8ff" d="M337.64,-58C350.36,-58 364.03,-58 377.55,-58"/>
<polygon fill="#63b8ff" stroke="#63b8ff" points="377.85,-61.5 387.85,-58 377.85,-54.5 377.85,-61.5"/>
</a>
</g>
</g>
</g>
</svg>
