<?xml version="1.0" encoding="UTF-8" standalone="no"?>
<!DOCTYPE svg PUBLIC "-//W3C//DTD SVG 1.1//EN"
 "http://www.w3.org/Graphics/SVG/1.1/DTD/svg11.dtd">
<!-- Generated by graphviz version 2.43.0 (0)
 -->
<!-- Title: fl::third_party::plm_buffer_discard_read_bytes Pages: 1 -->
<!--zoomable 246 -->

<svg id="main" version="1.1" xmlns="http://www.w3.org/2000/svg" xmlns:xlink="http://www.w3.org/1999/xlink" xml:space="preserve" onload="init(evt)">

<style type="text/css"><![CDATA[
.node, .edge {opacity: 0.7;}
.node.selected, .edge.selected {opacity: 1;}
.edge:hover path { stroke: red; }
.edge:hover polygon { stroke: red; fill: red; }
]]></style>

<defs>
  <circle id="rim" cx="0" cy="0" r="7"/>
  <circle id="rim2" cx="0" cy="0" r="3.5"/>
  <g id="zoomPlus">
    <use xlink:href="#rim" fill="#404040"><set attributeName="fill" to="#808080" begin="zoomplus.mouseover" end="zoomplus.mouseout"/></use>
    <path d="M-4,0h8M0,-4v8" fill="none" stroke="white" stroke-width="1.5" pointer-events="none"/>
  </g>
  <g id="zoomMin">
    <use xlink:href="#rim" fill="#404040"><set attributeName="fill" to="#808080" begin="zoomminus.mouseover" end="zoomminus.mouseout"/></use>
    <path d="M-4,0h8" fill="none" stroke="white" stroke-width="1.5" pointer-events="none"/>
  </g>
  <g id="arrowUp" transform="translate(30 24)">
    <use xlink:href="#rim"/>
    <path pointer-events="none" fill="none" stroke="white" stroke-width="1.5" d="M0,-3.0v7 M-2.5,-0.5L0,-3.0L2.5,-0.5"/>
  </g>
  <g id="arrowRight" transform="rotate(90) translate(36 -43)">
    <use xlink:href="#rim"/>
    <path pointer-events="none" fill="none" stroke="white" stroke-width="1.5" d="M0,-3.0v7 M-2.5,-0.5L0,-3.0L2.5,-0.5"/>
  </g>
  <g id="arrowDown" transform="rotate(180) translate(-30 -48)">
    <use xlink:href="#rim"/>
    <path pointer-events="none" fill="none" stroke="white" stroke-width="1.5" d="M0,-3.0v7 M-2.5,-0.5L0,-3.0L2.5,-0.5"/>
  </g>
  <g id="arrowLeft" transform="rotate(270) translate(-36 17)">
    <use xlink:href="#rim"/>
    <path pointer-events="none" fill="none" stroke="white" stroke-width="1.5" d="M0,-3.0v7 M-2.5,-0.5L0,-3.0L2.5,-0.5"/>
  </g>
  <g id="resetDef">
    <use xlink:href="#rim2" fill="#404040"><set attributeName="fill" to="#808080" begin="reset.mouseover" end="reset.mouseout"/></use>
  </g>
</defs>
<script type="application/ecmascript">
var viewWidth = 612;
var viewHeight = 246;
var sectionId = 'dynsection-1';
</script>
<script type="application/ecmascript" xlink:href="../../svg.min.js"/>
<svg id="graph" class="graph">
<g id="viewport">
<title>fl::third_party::plm_buffer_discard_read_bytes</title>
<!-- Node1 -->
<g id="Node000001" class="node">
<title>Node1</title>
<g id="a_Node000001"><a xlink:title=" ">
<polygon fill="#999999" stroke="#666666" points="604,-123 454,-123 454,-93 604,-93 604,-123"/>
<text text-anchor="start" x="462" y="-111" font-family="Helvetica,sans-Serif" font-size="10.00">fl::third_party::plm</text>
<text text-anchor="middle" x="529" y="-100" font-family="Helvetica,sans-Serif" font-size="10.00">_buffer_discard_read_bytes</text>
</a>
</g>
</g>
<!-- Node2 -->
<g id="Node000002" class="node">
<title>Node2</title>
<g id="a_Node000002"><a xlink:href="../../d1/d86/namespacefl_1_1third__party_adc376efafbcc8436df760a3627fc16a2.html#adc376efafbcc8436df760a3627fc16a2" target="_top" xlink:title=" ">
<polygon fill="white" stroke="#666666" points="418,-158 312,-158 312,-128 418,-128 418,-158"/>
<text text-anchor="start" x="320" y="-146" font-family="Helvetica,sans-Serif" font-size="10.00">fl::third_party::plm</text>
<text text-anchor="middle" x="365" y="-135" font-family="Helvetica,sans-Serif" font-size="10.00">_buffer_write</text>
</a>
</g>
</g>
<!-- Node1&#45;&gt;Node2 -->
<g id="edge1_Node000001_Node000002" class="edge">
<title>Node1&#45;&gt;Node2</title>
<g id="a_edge1_Node000001_Node000002"><a xlink:title=" ">
<path fill="none" stroke="#63b8ff" d="M448.27,-125.23C438.15,-127.41 428,-129.61 418.46,-131.67"/>
<polygon fill="#63b8ff" stroke="#63b8ff" points="449.32,-128.58 458.36,-123.05 447.84,-121.74 449.32,-128.58"/>
</a>
</g>
</g>
<!-- Node30 -->
<g id="Node000030" class="node">
<title>Node30</title>
<g id="a_Node000030"><a xlink:href="../../d1/d86/namespacefl_1_1third__party_adf7900b3de716b218997bcf1580f3282.html#adf7900b3de716b218997bcf1580f3282" target="_top" xlink:title=" ">
<polygon fill="white" stroke="#666666" points="418,-99 312,-99 312,-69 418,-69 418,-99"/>
<text text-anchor="start" x="320" y="-87" font-family="Helvetica,sans-Serif" font-size="10.00">fl::third_party::plm</text>
<text text-anchor="middle" x="365" y="-76" font-family="Helvetica,sans-Serif" font-size="10.00">_video_decode</text>
</a>
</g>
</g>
<!-- Node1&#45;&gt;Node30 -->
<g id="edge8_Node000001_Node000030" class="edge">
<title>Node1&#45;&gt;Node30</title>
<g id="a_edge8_Node000001_Node000030"><a xlink:title=" ">
<path fill="none" stroke="#63b8ff" d="M443.51,-95.48C434.88,-94.2 426.31,-92.93 418.18,-91.73"/>
<polygon fill="#63b8ff" stroke="#63b8ff" points="443.23,-98.98 453.64,-96.98 444.26,-92.06 443.23,-98.98"/>
</a>
</g>
</g>
<!-- Node3 -->
<g id="Node000003" class="node">
<title>Node3</title>
<g id="a_Node000003"><a xlink:href="../../d1/d86/namespacefl_1_1third__party_a02a042d794880f6ca8e8c023ba9c80b3.html#a02a042d794880f6ca8e8c023ba9c80b3" target="_top" xlink:title=" ">
<polygon fill="white" stroke="#666666" points="276,-212 170,-212 170,-182 276,-182 276,-212"/>
<text text-anchor="start" x="178" y="-200" font-family="Helvetica,sans-Serif" font-size="10.00">fl::third_party::plm</text>
<text text-anchor="middle" x="223" y="-189" font-family="Helvetica,sans-Serif" font-size="10.00">_read_packets</text>
</a>
</g>
</g>
<!-- Node2&#45;&gt;Node3 -->
<g id="edge2_Node000002_Node000003" class="edge">
<title>Node2&#45;&gt;Node3</title>
<g id="a_edge2_Node000002_Node000003"><a xlink:title=" ">
<path fill="none" stroke="#63b8ff" d="M315.24,-161.81C298.25,-168.36 279.4,-175.63 263.27,-181.85"/>
<polygon fill="#63b8ff" stroke="#63b8ff" points="316.93,-164.91 325,-158.04 314.41,-158.38 316.93,-164.91"/>
</a>
</g>
</g>
<!-- Node13 -->
<g id="Node000013" class="node">
<title>Node13</title>
<g id="a_Node000013"><a xlink:href="../../d1/d86/namespacefl_1_1third__party_a2052954d657f0fa787318f80296ed52f.html#a2052954d657f0fa787318f80296ed52f" target="_top" xlink:title=" ">
<polygon fill="white" stroke="#666666" points="134,-120.5 0,-120.5 0,-101.5 134,-101.5 134,-120.5"/>
<text text-anchor="middle" x="67" y="-108.5" font-family="Helvetica,sans-Serif" font-size="10.00">fl::third_party::plm_seek</text>
</a>
</g>
</g>
<!-- Node2&#45;&gt;Node13 -->
<g id="edge5_Node000002_Node000013" class="edge">
<title>Node2&#45;&gt;Node13</title>
<g id="a_edge5_Node000002_Node000013"><a xlink:title=" ">
<path fill="none" stroke="#63b8ff" d="M301.45,-143.42C263.31,-142.94 213.65,-140.98 170,-135 146.75,-131.81 121.03,-125.75 101.24,-120.51"/>
<polygon fill="#63b8ff" stroke="#63b8ff" points="301.86,-146.93 311.89,-143.52 301.92,-139.93 301.86,-146.93"/>
</a>
</g>
</g>
<!-- Node24 -->
<g id="Node000024" class="node">
<title>Node24</title>
<g id="a_Node000024"><a xlink:href="../../d1/d86/namespacefl_1_1third__party_afe3f3b7f1f7826ec14abbbf7dbd9da3b.html#afe3f3b7f1f7826ec14abbbf7dbd9da3b" target="_top" xlink:title=" ">
<polygon fill="white" stroke="#666666" points="276,-126 170,-126 170,-96 276,-96 276,-126"/>
<text text-anchor="start" x="178" y="-114" font-family="Helvetica,sans-Serif" font-size="10.00">fl::third_party::plm</text>
<text text-anchor="middle" x="223" y="-103" font-family="Helvetica,sans-Serif" font-size="10.00">_seek_frame</text>
</a>
</g>
</g>
<!-- Node2&#45;&gt;Node24 -->
<g id="edge6_Node000002_Node000024" class="edge">
<title>Node2&#45;&gt;Node24</title>
<g id="a_edge6_Node000002_Node000024"><a xlink:title=" ">
<path fill="none" stroke="#63b8ff" d="M301.89,-128.8C293.31,-126.84 284.56,-124.84 276.17,-122.93"/>
<polygon fill="#63b8ff" stroke="#63b8ff" points="301.34,-132.27 311.87,-131.08 302.9,-125.44 301.34,-132.27"/>
</a>
</g>
</g>
<!-- Node4 -->
<g id="Node000004" class="node">
<title>Node4</title>
<g id="a_Node000004"><a xlink:href="../../d1/d86/namespacefl_1_1third__party_ab77781b9575f2dfffe22f43e8753a6e5.html#ab77781b9575f2dfffe22f43e8753a6e5" target="_top" xlink:title=" ">
<polygon fill="#fff0f0" stroke="red" points="123.5,-238 10.5,-238 10.5,-208 123.5,-208 123.5,-238"/>
<text text-anchor="start" x="18.5" y="-226" font-family="Helvetica,sans-Serif" font-size="10.00">fl::third_party::plm</text>
<text text-anchor="middle" x="67" y="-215" font-family="Helvetica,sans-Serif" font-size="10.00">_read_audio_packet</text>
</a>
</g>
</g>
<!-- Node3&#45;&gt;Node4 -->
<g id="edge3_Node000003_Node000004" class="edge">
<title>Node3&#45;&gt;Node4</title>
<g id="a_edge3_Node000003_Node000004"><a xlink:title=" ">
<path fill="none" stroke="#63b8ff" d="M159.9,-207.48C147.86,-209.52 135.32,-211.63 123.51,-213.63"/>
<polygon fill="#63b8ff" stroke="#63b8ff" points="160.58,-210.92 169.86,-205.8 159.42,-204.02 160.58,-210.92"/>
</a>
</g>
</g>
<!-- Node29 -->
<g id="Node000029" class="node">
<title>Node29</title>
<g id="a_Node000029"><a xlink:href="../../d1/d86/namespacefl_1_1third__party_a945d9199d34dab315b884bf2861860fb.html#a945d9199d34dab315b884bf2861860fb" target="_top" xlink:title=" ">
<polygon fill="#fff0f0" stroke="red" points="123.5,-190 10.5,-190 10.5,-160 123.5,-160 123.5,-190"/>
<text text-anchor="start" x="18.5" y="-178" font-family="Helvetica,sans-Serif" font-size="10.00">fl::third_party::plm</text>
<text text-anchor="middle" x="67" y="-167" font-family="Helvetica,sans-Serif" font-size="10.00">_read_video_packet</text>
</a>
</g>
</g>
<!-- Node3&#45;&gt;Node29 -->
<g id="edge4_Node000003_Node000029" class="edge">
<title>Node3&#45;&gt;Node29</title>
<g id="a_edge4_Node000003_Node000029"><a xlink:title=" ">
<path fill="none" stroke="#63b8ff" d="M159.9,-188.13C147.86,-186.41 135.32,-184.62 123.51,-182.93"/>
<polygon fill="#63b8ff" stroke="#63b8ff" points="159.47,-191.6 169.86,-189.55 160.46,-184.67 159.47,-191.6"/>
</a>
</g>
</g>
<!-- Node24&#45;&gt;Node13 -->
<g id="edge7_Node000024_Node000013" class="edge">
<title>Node24&#45;&gt;Node13</title>
<g id="a_edge7_Node000024_Node000013"><a xlink:title=" ">
<path fill="none" stroke="#63b8ff" d="M159.69,-111C151.24,-111 142.53,-111 134.01,-111"/>
<polygon fill="#63b8ff" stroke="#63b8ff" points="159.86,-114.5 169.86,-111 159.86,-107.5 159.86,-114.5"/>
</a>
</g>
</g>
<!-- Node30&#45;&gt;Node24 -->
<g id="edge12_Node000030_Node000024" class="edge">
<title>Node30&#45;&gt;Node24</title>
<g id="a_edge12_Node000030_Node000024"><a xlink:title=" ">
<path fill="none" stroke="#63b8ff" d="M301.89,-95.98C293.31,-97.63 284.56,-99.32 276.17,-100.94"/>
<polygon fill="#63b8ff" stroke="#63b8ff" points="302.71,-99.38 311.87,-94.05 301.39,-92.51 302.71,-99.38"/>
</a>
</g>
</g>
<!-- Node10 -->
<g id="Node000010" class="node">
<title>Node10</title>
<g id="a_Node000010"><a xlink:href="../../d1/d86/namespacefl_1_1third__party_a1bc503e63614eaf98e85554637d466a6.html#a1bc503e63614eaf98e85554637d466a6" target="_top" xlink:title=" ">
<polygon fill="#fff0f0" stroke="red" points="276,-78 170,-78 170,-48 276,-48 276,-78"/>
<text text-anchor="start" x="178" y="-66" font-family="Helvetica,sans-Serif" font-size="10.00">fl::third_party::plm</text>
<text text-anchor="middle" x="223" y="-55" font-family="Helvetica,sans-Serif" font-size="10.00">_decode</text>
</a>
</g>
</g>
<!-- Node30&#45;&gt;Node10 -->
<g id="edge9_Node000030_Node000010" class="edge">
<title>Node30&#45;&gt;Node10</title>
<g id="a_edge9_Node000030_Node000010"><a xlink:title=" ">
<path fill="none" stroke="#63b8ff" d="M301.89,-74.68C293.31,-73.4 284.56,-72.08 276.17,-70.83"/>
<polygon fill="#63b8ff" stroke="#63b8ff" points="301.46,-78.16 311.87,-76.18 302.5,-71.24 301.46,-78.16"/>
</a>
</g>
</g>
<!-- Node15 -->
<g id="Node000015" class="node">
<title>Node15</title>
<g id="a_Node000015"><a xlink:href="../../d1/d86/namespacefl_1_1third__party_a7042233986b49166564a225db6689dab.html#a7042233986b49166564a225db6689dab" target="_top" xlink:title=" ">
<polygon fill="white" stroke="#666666" points="276,-30 170,-30 170,0 276,0 276,-30"/>
<text text-anchor="start" x="178" y="-18" font-family="Helvetica,sans-Serif" font-size="10.00">fl::third_party::plm</text>
<text text-anchor="middle" x="223" y="-7" font-family="Helvetica,sans-Serif" font-size="10.00">_decode_video</text>
</a>
</g>
</g>
<!-- Node30&#45;&gt;Node15 -->
<g id="edge11_Node000030_Node000015" class="edge">
<title>Node30&#45;&gt;Node15</title>
<g id="a_edge11_Node000030_Node000015"><a xlink:title=" ">
<path fill="none" stroke="#63b8ff" d="M325.98,-64.13C310.54,-56.18 292.49,-47.02 276,-39 269.92,-36.04 263.4,-32.96 257.1,-30.04"/>
<polygon fill="#63b8ff" stroke="#63b8ff" points="324.72,-67.43 335.21,-68.91 327.94,-61.21 324.72,-67.43"/>
</a>
</g>
</g>
<!-- Node10&#45;&gt;Node13 -->
<g id="edge10_Node000010_Node000013" class="edge">
<title>Node10&#45;&gt;Node13</title>
<g id="a_edge10_Node000010_Node000013"><a xlink:title=" ">
<path fill="none" stroke="#63b8ff" d="M164.01,-81.07C141.81,-87.99 117.36,-95.62 98.69,-101.44"/>
<polygon fill="#63b8ff" stroke="#63b8ff" points="165.19,-84.37 173.7,-78.06 163.11,-77.69 165.19,-84.37"/>
</a>
</g>
</g>
</g>
</svg>

<g id="navigator" transform="translate(0 0)" fill="#404254">
  <rect fill="#f2f5e9" fill-opacity="0.5" stroke="#606060" stroke-width=".5" x="0" y="0" width="60" height="60"/>
  <use id="zoomplus" xlink:href="#zoomPlus" x="17" y="9" onmousedown="handleZoom(evt,'in')"/>
  <use id="zoomminus" xlink:href="#zoomMin" x="42" y="9" onmousedown="handleZoom(evt,'out')"/>
  <use id="reset" xlink:href="#resetDef" x="30" y="36" onmousedown="handleReset()"/>
   <use id="arrowup" xlink:href="#arrowUp" x="0" y="0" onmousedown="handlePan(0,-1)"/>
  <use id="arrowright" xlink:href="#arrowRight" x="0" y="0" onmousedown="handlePan(1,0)"/>
  <use id="arrowdown" xlink:href="#arrowDown" x="0" y="0" onmousedown="handlePan(0,1)"/>
  <use id="arrowleft" xlink:href="#arrowLeft" x="0" y="0" onmousedown="handlePan(-1,0)"/>
</g>
<svg viewBox="0 0 15 15" width="100%" height="30px" preserveAspectRatio="xMaxYMin meet">
 <g id="arrow_out" transform="scale(0.3 0.3)">
  <a xlink:href="namespacefl_1_1third__party_a5db5dc9e011e934c3a241ecceb5bdb6b_a5db5dc9e011e934c3a241ecceb5bdb6b_icgraph_org.svg" target="_base">
   <rect id="button" ry="5" rx="5" y="6" x="6" height="38" width="38"
        fill="#f2f5e9" fill-opacity="0.5" stroke="#606060" stroke-width="1.0"/>
   <path id="arrow"
     d="M 11.500037,31.436501 C 11.940474,20.09759 22.043105,11.32322 32.158766,21.979434 L 37.068811,17.246167 C 37.068811,17.246167 37.088388,32 37.088388,32 L 22.160133,31.978069 C 22.160133,31.978069 26.997745,27.140456 26.997745,27.140456 C 18.528582,18.264221 13.291696,25.230495 11.500037,31.436501 z"
     style="fill:#404040;"/>
  </a>
 </g>
</svg>

<style type='text/css'>
<![CDATA[
[data-mouse-over-selected='false'] { opacity: 0.7; }
[data-mouse-over-selected='true']  { opacity: 1.0; }
]]>
</style>
<script type="application/ecmascript"><![CDATA[
document.addEventListener('DOMContentLoaded', (event) => {
  highlightEdges();
  highlightAdjacentNodes();
});
]]></script>
</svg>
