<?xml version="1.0" encoding="UTF-8" standalone="no"?>
<!DOCTYPE svg PUBLIC "-//W3C//DTD SVG 1.1//EN"
 "http://www.w3.org/Graphics/SVG/1.1/DTD/svg11.dtd">
<!-- Generated by graphviz version 2.43.0 (0)
 -->
<!-- Title: fl::third_party::plm_video_init_frame Pages: 1 -->
<svg width="814pt" height="316pt"
 viewBox="0.00 0.00 814.00 316.00" xmlns="http://www.w3.org/2000/svg" xmlns:xlink="http://www.w3.org/1999/xlink">
<g id="graph0" class="graph" transform="scale(1 1) rotate(0) translate(4 312)">
<title>fl::third_party::plm_video_init_frame</title>
<!-- Node1 -->
<g id="Node000001" class="node">
<title>Node1</title>
<g id="a_Node000001"><a xlink:title=" ">
<polygon fill="#999999" stroke="#666666" points="806,-198 700,-198 700,-168 806,-168 806,-198"/>
<text text-anchor="start" x="708" y="-186" font-family="Helvetica,sans-Serif" font-size="10.00">fl::third_party::plm</text>
<text text-anchor="middle" x="753" y="-175" font-family="Helvetica,sans-Serif" font-size="10.00">_video_init_frame</text>
</a>
</g>
</g>
<!-- Node2 -->
<g id="Node000002" class="node">
<title>Node2</title>
<g id="a_Node000002"><a xlink:href="../../d1/d86/namespacefl_1_1third__party_aa3340f05c60585d3467a43b7911db03c.html#aa3340f05c60585d3467a43b7911db03c" target="_top" xlink:title=" ">
<polygon fill="white" stroke="#666666" points="664,-203.5 523,-203.5 523,-162.5 664,-162.5 664,-203.5"/>
<text text-anchor="start" x="531" y="-191.5" font-family="Helvetica,sans-Serif" font-size="10.00">fl::third_party::plm</text>
<text text-anchor="start" x="531" y="-180.5" font-family="Helvetica,sans-Serif" font-size="10.00">_video_decode_sequence</text>
<text text-anchor="middle" x="593.5" y="-169.5" font-family="Helvetica,sans-Serif" font-size="10.00">_header</text>
</a>
</g>
</g>
<!-- Node1&#45;&gt;Node2 -->
<g id="edge1_Node000001_Node000002" class="edge">
<title>Node1&#45;&gt;Node2</title>
<g id="a_edge1_Node000001_Node000002"><a xlink:title=" ">
<path fill="none" stroke="#63b8ff" d="M689.86,-183C681.42,-183 672.71,-183 664.15,-183"/>
<polygon fill="#63b8ff" stroke="#63b8ff" points="689.99,-186.5 699.99,-183 689.99,-179.5 689.99,-186.5"/>
</a>
</g>
</g>
<!-- Node3 -->
<g id="Node000003" class="node">
<title>Node3</title>
<g id="a_Node000003"><a xlink:href="../../d1/d86/namespacefl_1_1third__party_a1e0f03e48c61787e0bde491a6f9ced7d.html#a1e0f03e48c61787e0bde491a6f9ced7d" target="_top" xlink:title=" ">
<polygon fill="white" stroke="#666666" points="487,-265 342,-265 342,-235 487,-235 487,-265"/>
<text text-anchor="start" x="350" y="-253" font-family="Helvetica,sans-Serif" font-size="10.00">fl::third_party::plm</text>
<text text-anchor="middle" x="414.5" y="-242" font-family="Helvetica,sans-Serif" font-size="10.00">_video_create_with_buffer</text>
</a>
</g>
</g>
<!-- Node2&#45;&gt;Node3 -->
<g id="edge2_Node000002_Node000003" class="edge">
<title>Node2&#45;&gt;Node3</title>
<g id="a_edge2_Node000002_Node000003"><a xlink:title=" ">
<path fill="none" stroke="#63b8ff" d="M528.38,-207.27C503.93,-216.53 476.8,-226.8 455.26,-234.95"/>
<polygon fill="#63b8ff" stroke="#63b8ff" points="529.84,-210.46 537.95,-203.65 527.36,-203.92 529.84,-210.46"/>
</a>
</g>
</g>
<!-- Node28 -->
<g id="Node000028" class="node">
<title>Node28</title>
<g id="a_Node000028"><a xlink:href="../../d1/d86/namespacefl_1_1third__party_af5b5e570631dea32f31ca9d62231ab0d.html#af5b5e570631dea32f31ca9d62231ab0d" target="_top" xlink:title=" ">
<polygon fill="white" stroke="#666666" points="469.5,-174 359.5,-174 359.5,-144 469.5,-144 469.5,-174"/>
<text text-anchor="start" x="367.5" y="-162" font-family="Helvetica,sans-Serif" font-size="10.00">fl::third_party::plm</text>
<text text-anchor="middle" x="414.5" y="-151" font-family="Helvetica,sans-Serif" font-size="10.00">_video_has_header</text>
</a>
</g>
</g>
<!-- Node2&#45;&gt;Node28 -->
<g id="edge5_Node000002_Node000028" class="edge">
<title>Node2&#45;&gt;Node28</title>
<g id="a_edge5_Node000002_Node000028"><a xlink:title=" ">
<path fill="none" stroke="#63b8ff" d="M512.75,-172.19C498.13,-170.2 483.19,-168.18 469.55,-166.33"/>
<polygon fill="#63b8ff" stroke="#63b8ff" points="512.42,-175.67 522.8,-173.55 513.36,-168.74 512.42,-175.67"/>
</a>
</g>
</g>
<!-- Node4 -->
<g id="Node000004" class="node">
<title>Node4</title>
<g id="a_Node000004"><a xlink:href="../../d1/d86/namespacefl_1_1third__party_aa149e6820de9a778f137e251623538b2.html#aa149e6820de9a778f137e251623538b2" target="_top" xlink:title=" ">
<polygon fill="#fff0f0" stroke="red" points="277,-308 171,-308 171,-278 277,-278 277,-308"/>
<text text-anchor="start" x="179" y="-296" font-family="Helvetica,sans-Serif" font-size="10.00">fl::third_party::plm</text>
<text text-anchor="middle" x="224" y="-285" font-family="Helvetica,sans-Serif" font-size="10.00">_init_decoders</text>
</a>
</g>
</g>
<!-- Node3&#45;&gt;Node4 -->
<g id="edge3_Node000003_Node000004" class="edge">
<title>Node3&#45;&gt;Node4</title>
<g id="a_edge3_Node000003_Node000004"><a xlink:title=" ">
<path fill="none" stroke="#63b8ff" d="M337.72,-267.29C317.43,-271.92 295.94,-276.82 277.24,-281.08"/>
<polygon fill="#63b8ff" stroke="#63b8ff" points="338.6,-270.68 347.57,-265.04 337.04,-263.85 338.6,-270.68"/>
</a>
</g>
</g>
<!-- Node21 -->
<g id="Node000021" class="node">
<title>Node21</title>
<g id="a_Node000021"><a xlink:href="../../d1/d86/namespacefl_1_1third__party_aebf4f33bb1a89793cc43decc58e863e4.html#aebf4f33bb1a89793cc43decc58e863e4" target="_top" xlink:title=" ">
<polygon fill="#fff0f0" stroke="red" points="106,-286 0,-286 0,-256 106,-256 106,-286"/>
<text text-anchor="start" x="8" y="-274" font-family="Helvetica,sans-Serif" font-size="10.00">fl::third_party::plm</text>
<text text-anchor="middle" x="53" y="-263" font-family="Helvetica,sans-Serif" font-size="10.00">_has_headers</text>
</a>
</g>
</g>
<!-- Node4&#45;&gt;Node21 -->
<g id="edge4_Node000004_Node000021" class="edge">
<title>Node4&#45;&gt;Node21</title>
<g id="a_edge4_Node000004_Node000021"><a xlink:title=" ">
<path fill="none" stroke="#63b8ff" d="M160.83,-284.91C142.88,-282.57 123.48,-280.04 106.2,-277.8"/>
<polygon fill="#63b8ff" stroke="#63b8ff" points="160.55,-288.4 170.92,-286.22 161.45,-281.46 160.55,-288.4"/>
</a>
</g>
</g>
<!-- Node28&#45;&gt;Node21 -->
<g id="edge6_Node000028_Node000021" class="edge">
<title>Node28&#45;&gt;Node21</title>
<g id="a_edge6_Node000028_Node000021"><a xlink:title=" ">
<path fill="none" stroke="#63b8ff" d="M388.25,-180.56C367.53,-197.06 336.69,-218.96 306,-231 240.22,-256.8 158.59,-265.98 106.39,-269.23"/>
<polygon fill="#63b8ff" stroke="#63b8ff" points="390.66,-183.11 396.22,-174.09 386.25,-177.68 390.66,-183.11"/>
</a>
</g>
</g>
<!-- Node29 -->
<g id="Node000029" class="node">
<title>Node29</title>
<g id="a_Node000029"><a xlink:href="../../d1/d86/namespacefl_1_1third__party_adf7900b3de716b218997bcf1580f3282.html#adf7900b3de716b218997bcf1580f3282" target="_top" xlink:title=" ">
<polygon fill="#fff0f0" stroke="red" points="277,-222 171,-222 171,-192 277,-192 277,-222"/>
<text text-anchor="start" x="179" y="-210" font-family="Helvetica,sans-Serif" font-size="10.00">fl::third_party::plm</text>
<text text-anchor="middle" x="224" y="-199" font-family="Helvetica,sans-Serif" font-size="10.00">_video_decode</text>
</a>
</g>
</g>
<!-- Node28&#45;&gt;Node29 -->
<g id="edge7_Node000028_Node000029" class="edge">
<title>Node28&#45;&gt;Node29</title>
<g id="a_edge7_Node000028_Node000029"><a xlink:title=" ">
<path fill="none" stroke="#63b8ff" d="M349.56,-175.28C325.95,-181.29 299.51,-188.03 277.08,-193.74"/>
<polygon fill="#63b8ff" stroke="#63b8ff" points="350.66,-178.61 359.48,-172.75 348.93,-171.83 350.66,-178.61"/>
</a>
</g>
</g>
<!-- Node30 -->
<g id="Node000030" class="node">
<title>Node30</title>
<g id="a_Node000030"><a xlink:href="../../d1/d86/namespacefl_1_1third__party_ab047db8935e95be2ad0a043e1b7b12e6.html#ab047db8935e95be2ad0a043e1b7b12e6" target="_top" xlink:title=" ">
<polygon fill="#fff0f0" stroke="red" points="286,-174 162,-174 162,-144 286,-144 286,-174"/>
<text text-anchor="start" x="170" y="-162" font-family="Helvetica,sans-Serif" font-size="10.00">fl::third_party::plm</text>
<text text-anchor="middle" x="224" y="-151" font-family="Helvetica,sans-Serif" font-size="10.00">_video_get_framerate</text>
</a>
</g>
</g>
<!-- Node28&#45;&gt;Node30 -->
<g id="edge8_Node000028_Node000030" class="edge">
<title>Node28&#45;&gt;Node30</title>
<g id="a_edge8_Node000028_Node000030"><a xlink:title=" ">
<path fill="none" stroke="#63b8ff" d="M349.36,-159C328.98,-159 306.5,-159 286.32,-159"/>
<polygon fill="#63b8ff" stroke="#63b8ff" points="349.48,-162.5 359.48,-159 349.48,-155.5 349.48,-162.5"/>
</a>
</g>
</g>
<!-- Node31 -->
<g id="Node000031" class="node">
<title>Node31</title>
<g id="a_Node000031"><a xlink:href="../../d1/d86/namespacefl_1_1third__party_a7c847b700ac930319e03835a3e34d123.html#a7c847b700ac930319e03835a3e34d123" target="_top" xlink:title=" ">
<polygon fill="#fff0f0" stroke="red" points="277,-126 171,-126 171,-96 277,-96 277,-126"/>
<text text-anchor="start" x="179" y="-114" font-family="Helvetica,sans-Serif" font-size="10.00">fl::third_party::plm</text>
<text text-anchor="middle" x="224" y="-103" font-family="Helvetica,sans-Serif" font-size="10.00">_video_get_height</text>
</a>
</g>
</g>
<!-- Node28&#45;&gt;Node31 -->
<g id="edge9_Node000028_Node000031" class="edge">
<title>Node28&#45;&gt;Node31</title>
<g id="a_edge9_Node000028_Node000031"><a xlink:title=" ">
<path fill="none" stroke="#63b8ff" d="M349.56,-142.72C325.95,-136.71 299.51,-129.97 277.08,-124.26"/>
<polygon fill="#63b8ff" stroke="#63b8ff" points="348.93,-146.17 359.48,-145.25 350.66,-139.39 348.93,-146.17"/>
</a>
</g>
</g>
<!-- Node32 -->
<g id="Node000032" class="node">
<title>Node32</title>
<g id="a_Node000032"><a xlink:href="../../d1/d86/namespacefl_1_1third__party_a9962a30b13b5d862cd923157d01bd579.html#a9962a30b13b5d862cd923157d01bd579" target="_top" xlink:title=" ">
<polygon fill="#fff0f0" stroke="red" points="306,-78 142,-78 142,-48 306,-48 306,-78"/>
<text text-anchor="start" x="150" y="-66" font-family="Helvetica,sans-Serif" font-size="10.00">fl::third_party::plm</text>
<text text-anchor="middle" x="224" y="-55" font-family="Helvetica,sans-Serif" font-size="10.00">_video_get_pixel_aspect_ratio</text>
</a>
</g>
</g>
<!-- Node28&#45;&gt;Node32 -->
<g id="edge10_Node000028_Node000032" class="edge">
<title>Node28&#45;&gt;Node32</title>
<g id="a_edge10_Node000028_Node000032"><a xlink:title=" ">
<path fill="none" stroke="#63b8ff" d="M386.65,-137.66C365.69,-121.85 335.31,-100.76 306,-87 298.96,-83.7 291.37,-80.73 283.75,-78.11"/>
<polygon fill="#63b8ff" stroke="#63b8ff" points="384.68,-140.56 394.75,-143.85 388.93,-135 384.68,-140.56"/>
</a>
</g>
</g>
<!-- Node33 -->
<g id="Node000033" class="node">
<title>Node33</title>
<g id="a_Node000033"><a xlink:href="../../d1/d86/namespacefl_1_1third__party_aa5a3f25817fb7bf3b922750a5e18c8be.html#aa5a3f25817fb7bf3b922750a5e18c8be" target="_top" xlink:title=" ">
<polygon fill="#fff0f0" stroke="red" points="277,-30 171,-30 171,0 277,0 277,-30"/>
<text text-anchor="start" x="179" y="-18" font-family="Helvetica,sans-Serif" font-size="10.00">fl::third_party::plm</text>
<text text-anchor="middle" x="224" y="-7" font-family="Helvetica,sans-Serif" font-size="10.00">_video_get_width</text>
</a>
</g>
</g>
<!-- Node28&#45;&gt;Node33 -->
<g id="edge11_Node000028_Node000033" class="edge">
<title>Node28&#45;&gt;Node33</title>
<g id="a_edge11_Node000028_Node000033"><a xlink:title=" ">
<path fill="none" stroke="#63b8ff" d="M398.2,-135.12C379.6,-107.96 345.71,-64.13 306,-39 297.32,-33.51 287.34,-29.23 277.4,-25.9"/>
<polygon fill="#63b8ff" stroke="#63b8ff" points="395.44,-137.28 403.91,-143.64 401.25,-133.39 395.44,-137.28"/>
</a>
</g>
</g>
</g>
</svg>
