<?xml version="1.0" encoding="UTF-8" standalone="no"?>
<!DOCTYPE svg PUBLIC "-//W3C//DTD SVG 1.1//EN"
 "http://www.w3.org/Graphics/SVG/1.1/DTD/svg11.dtd">
<!-- Generated by graphviz version 2.43.0 (0)
 -->
<!-- Title: fl::third_party::plm_buffer_align Pages: 1 -->
<!--zoomable 507 -->

<svg id="main" version="1.1" xmlns="http://www.w3.org/2000/svg" xmlns:xlink="http://www.w3.org/1999/xlink" xml:space="preserve" onload="init(evt)">

<style type="text/css"><![CDATA[
.node, .edge {opacity: 0.7;}
.node.selected, .edge.selected {opacity: 1;}
.edge:hover path { stroke: red; }
.edge:hover polygon { stroke: red; fill: red; }
]]></style>

<defs>
  <circle id="rim" cx="0" cy="0" r="7"/>
  <circle id="rim2" cx="0" cy="0" r="3.5"/>
  <g id="zoomPlus">
    <use xlink:href="#rim" fill="#404040"><set attributeName="fill" to="#808080" begin="zoomplus.mouseover" end="zoomplus.mouseout"/></use>
    <path d="M-4,0h8M0,-4v8" fill="none" stroke="white" stroke-width="1.5" pointer-events="none"/>
  </g>
  <g id="zoomMin">
    <use xlink:href="#rim" fill="#404040"><set attributeName="fill" to="#808080" begin="zoomminus.mouseover" end="zoomminus.mouseout"/></use>
    <path d="M-4,0h8" fill="none" stroke="white" stroke-width="1.5" pointer-events="none"/>
  </g>
  <g id="arrowUp" transform="translate(30 24)">
    <use xlink:href="#rim"/>
    <path pointer-events="none" fill="none" stroke="white" stroke-width="1.5" d="M0,-3.0v7 M-2.5,-0.5L0,-3.0L2.5,-0.5"/>
  </g>
  <g id="arrowRight" transform="rotate(90) translate(36 -43)">
    <use xlink:href="#rim"/>
    <path pointer-events="none" fill="none" stroke="white" stroke-width="1.5" d="M0,-3.0v7 M-2.5,-0.5L0,-3.0L2.5,-0.5"/>
  </g>
  <g id="arrowDown" transform="rotate(180) translate(-30 -48)">
    <use xlink:href="#rim"/>
    <path pointer-events="none" fill="none" stroke="white" stroke-width="1.5" d="M0,-3.0v7 M-2.5,-0.5L0,-3.0L2.5,-0.5"/>
  </g>
  <g id="arrowLeft" transform="rotate(270) translate(-36 17)">
    <use xlink:href="#rim"/>
    <path pointer-events="none" fill="none" stroke="white" stroke-width="1.5" d="M0,-3.0v7 M-2.5,-0.5L0,-3.0L2.5,-0.5"/>
  </g>
  <g id="resetDef">
    <use xlink:href="#rim2" fill="#404040"><set attributeName="fill" to="#808080" begin="reset.mouseover" end="reset.mouseout"/></use>
  </g>
</defs>
<script type="application/ecmascript">
var viewWidth = 954;
var viewHeight = 507;
var sectionId = 'dynsection-0';
</script>
<script type="application/ecmascript" xlink:href="../../svg.min.js"/>
<svg id="graph" class="graph">
<g id="viewport">
<title>fl::third_party::plm_buffer_align</title>
<!-- Node1 -->
<g id="Node000001" class="node">
<title>Node1</title>
<g id="a_Node000001"><a xlink:title=" ">
<polygon fill="#999999" stroke="#666666" points="946,-417.26 840,-417.26 840,-387.26 946,-387.26 946,-417.26"/>
<text text-anchor="start" x="848" y="-405.26" font-family="Helvetica,sans-Serif" font-size="10.00">fl::third_party::plm</text>
<text text-anchor="middle" x="893" y="-394.26" font-family="Helvetica,sans-Serif" font-size="10.00">_buffer_align</text>
</a>
</g>
</g>
<!-- Node2 -->
<g id="Node000002" class="node">
<title>Node2</title>
<g id="a_Node000002"><a xlink:href="../../d1/d86/namespacefl_1_1third__party_aaec30f070f620ba0c806afc65938f053.html#aaec30f070f620ba0c806afc65938f053" target="_top" xlink:title=" ">
<polygon fill="white" stroke="#666666" points="799,-484.26 675,-484.26 675,-454.26 799,-454.26 799,-484.26"/>
<text text-anchor="start" x="683" y="-472.26" font-family="Helvetica,sans-Serif" font-size="10.00">fl::third_party::plm</text>
<text text-anchor="middle" x="737" y="-461.26" font-family="Helvetica,sans-Serif" font-size="10.00">_audio_decode_frame</text>
</a>
</g>
</g>
<!-- Node1&#45;&gt;Node2 -->
<g id="edge1_Node000001_Node000002" class="edge">
<title>Node1&#45;&gt;Node2</title>
<g id="a_edge1_Node000001_Node000002"><a xlink:title=" ">
<path fill="none" stroke="#63b8ff" d="M848.22,-421.31C824.28,-431.72 795.05,-444.44 772.71,-454.16"/>
<polygon fill="#63b8ff" stroke="#63b8ff" points="849.67,-424.5 857.44,-417.3 846.87,-418.08 849.67,-424.5"/>
</a>
</g>
</g>
<!-- Node11 -->
<g id="Node000011" class="node">
<title>Node11</title>
<g id="a_Node000011"><a xlink:href="../../d1/d86/namespacefl_1_1third__party_ab5875a54f6bc6c78ab1901bf898e6ff5.html#ab5875a54f6bc6c78ab1901bf898e6ff5" target="_top" xlink:title=" ">
<polygon fill="white" stroke="#666666" points="804,-319.26 670,-319.26 670,-289.26 804,-289.26 804,-319.26"/>
<text text-anchor="start" x="678" y="-307.26" font-family="Helvetica,sans-Serif" font-size="10.00">fl::third_party::plm</text>
<text text-anchor="middle" x="737" y="-296.26" font-family="Helvetica,sans-Serif" font-size="10.00">_buffer_next_start_code</text>
</a>
</g>
</g>
<!-- Node1&#45;&gt;Node11 -->
<g id="edge5_Node000001_Node000011" class="edge">
<title>Node1&#45;&gt;Node11</title>
<g id="a_edge5_Node000001_Node000011"><a xlink:title=" ">
<path fill="none" stroke="#63b8ff" d="M859.65,-381.67C830.39,-363.05 787.99,-336.07 761.75,-319.38"/>
<polygon fill="#63b8ff" stroke="#63b8ff" points="857.96,-384.75 868.27,-387.16 861.72,-378.84 857.96,-384.75"/>
</a>
</g>
</g>
<!-- Node55 -->
<g id="Node000055" class="node">
<title>Node55</title>
<g id="a_Node000055"><a xlink:href="../../d1/d86/namespacefl_1_1third__party_a0c8e82d178eb961a4a4c07470efd1bf4.html#a0c8e82d178eb961a4a4c07470efd1bf4" target="_top" xlink:title=" ">
<polygon fill="white" stroke="#666666" points="623,-417.26 515,-417.26 515,-387.26 623,-387.26 623,-417.26"/>
<text text-anchor="start" x="523" y="-405.26" font-family="Helvetica,sans-Serif" font-size="10.00">fl::third_party::plm</text>
<text text-anchor="middle" x="569" y="-394.26" font-family="Helvetica,sans-Serif" font-size="10.00">_buffer_skip_bytes</text>
</a>
</g>
</g>
<!-- Node1&#45;&gt;Node55 -->
<g id="edge23_Node000001_Node000055" class="edge">
<title>Node1&#45;&gt;Node55</title>
<g id="a_edge23_Node000001_Node000055"><a xlink:title=" ">
<path fill="none" stroke="#63b8ff" d="M829.8,-402.26C769.76,-402.26 679.85,-402.26 623.09,-402.26"/>
<polygon fill="#63b8ff" stroke="#63b8ff" points="829.91,-405.76 839.91,-402.26 829.91,-398.76 829.91,-405.76"/>
</a>
</g>
</g>
<!-- Node3 -->
<g id="Node000003" class="node">
<title>Node3</title>
<g id="a_Node000003"><a xlink:href="../../d1/d86/namespacefl_1_1third__party_a3d7ef083db4963516ccc0163a8c3784b.html#a3d7ef083db4963516ccc0163a8c3784b" target="_top" xlink:title=" ">
<polygon fill="white" stroke="#666666" points="267.5,-499.26 161.5,-499.26 161.5,-469.26 267.5,-469.26 267.5,-499.26"/>
<text text-anchor="start" x="169.5" y="-487.26" font-family="Helvetica,sans-Serif" font-size="10.00">fl::third_party::plm</text>
<text text-anchor="middle" x="214.5" y="-476.26" font-family="Helvetica,sans-Serif" font-size="10.00">_audio_decode</text>
</a>
</g>
</g>
<!-- Node2&#45;&gt;Node3 -->
<g id="edge2_Node000002_Node000003" class="edge">
<title>Node2&#45;&gt;Node3</title>
<g id="a_edge2_Node000002_Node000003"><a xlink:title=" ">
<path fill="none" stroke="#63b8ff" d="M664.46,-471.32C558.2,-474.38 361.17,-480.06 267.53,-482.76"/>
<polygon fill="#63b8ff" stroke="#63b8ff" points="664.87,-474.81 674.76,-471.03 664.66,-467.81 664.87,-474.81"/>
</a>
</g>
</g>
<!-- Node4 -->
<g id="Node000004" class="node">
<title>Node4</title>
<g id="a_Node000004"><a xlink:href="../../d1/d86/namespacefl_1_1third__party_a1bc503e63614eaf98e85554637d466a6.html#a1bc503e63614eaf98e85554637d466a6" target="_top" xlink:title=" ">
<polygon fill="#fff0f0" stroke="red" points="106,-277.26 0,-277.26 0,-247.26 106,-247.26 106,-277.26"/>
<text text-anchor="start" x="8" y="-265.26" font-family="Helvetica,sans-Serif" font-size="10.00">fl::third_party::plm</text>
<text text-anchor="middle" x="53" y="-254.26" font-family="Helvetica,sans-Serif" font-size="10.00">_decode</text>
</a>
</g>
</g>
<!-- Node3&#45;&gt;Node4 -->
<g id="edge3_Node000003_Node000004" class="edge">
<title>Node3&#45;&gt;Node4</title>
<g id="a_edge3_Node000003_Node000004"><a xlink:title=" ">
<path fill="none" stroke="#63b8ff" d="M152.4,-467.9C148.68,-465.67 145.16,-463.14 142,-460.26 85.38,-408.74 63.17,-314.01 56.44,-277.33"/>
<polygon fill="#63b8ff" stroke="#63b8ff" points="150.94,-471.08 161.43,-472.57 154.16,-464.86 150.94,-471.08"/>
</a>
</g>
</g>
<!-- Node10 -->
<g id="Node000010" class="node">
<title>Node10</title>
<g id="a_Node000010"><a xlink:href="../../d1/d86/namespacefl_1_1third__party_aa7b11e1dc577179ef042262cc10d6262.html#aa7b11e1dc577179ef042262cc10d6262" target="_top" xlink:title=" ">
<polygon fill="white" stroke="#666666" points="106,-499.26 0,-499.26 0,-469.26 106,-469.26 106,-499.26"/>
<text text-anchor="start" x="8" y="-487.26" font-family="Helvetica,sans-Serif" font-size="10.00">fl::third_party::plm</text>
<text text-anchor="middle" x="53" y="-476.26" font-family="Helvetica,sans-Serif" font-size="10.00">_decode_audio</text>
</a>
</g>
</g>
<!-- Node3&#45;&gt;Node10 -->
<g id="edge4_Node000003_Node000010" class="edge">
<title>Node3&#45;&gt;Node10</title>
<g id="a_edge4_Node000003_Node000010"><a xlink:title=" ">
<path fill="none" stroke="#63b8ff" d="M151.12,-484.26C136.21,-484.26 120.46,-484.26 106.07,-484.26"/>
<polygon fill="#63b8ff" stroke="#63b8ff" points="151.27,-487.76 161.27,-484.26 151.27,-480.76 151.27,-487.76"/>
</a>
</g>
</g>
<!-- Node12 -->
<g id="Node000012" class="node">
<title>Node12</title>
<g id="a_Node000012"><a xlink:href="../../d1/d86/namespacefl_1_1third__party_ab47b23979c1d1fc3ba17e75ca367daa0.html#ab47b23979c1d1fc3ba17e75ca367daa0" target="_top" xlink:title=" ">
<polygon fill="white" stroke="#666666" points="634,-180.26 504,-180.26 504,-150.26 634,-150.26 634,-180.26"/>
<text text-anchor="start" x="512" y="-168.26" font-family="Helvetica,sans-Serif" font-size="10.00">fl::third_party::plm</text>
<text text-anchor="middle" x="569" y="-157.26" font-family="Helvetica,sans-Serif" font-size="10.00">_buffer_find_start_code</text>
</a>
</g>
</g>
<!-- Node11&#45;&gt;Node12 -->
<g id="edge6_Node000011_Node000012" class="edge">
<title>Node11&#45;&gt;Node12</title>
<g id="a_edge6_Node000011_Node000012"><a xlink:title=" ">
<path fill="none" stroke="#63b8ff" d="M709.84,-282.36C675.88,-253.92 617.48,-205.02 588.06,-180.38"/>
<polygon fill="#63b8ff" stroke="#63b8ff" points="708.01,-285.38 717.92,-289.12 712.5,-280.02 708.01,-285.38"/>
</a>
</g>
</g>
<!-- Node21 -->
<g id="Node000021" class="node">
<title>Node21</title>
<g id="a_Node000021"><a xlink:href="../../d1/d86/namespacefl_1_1third__party_a1d83abaf74242ff440d5d50c8bccf366.html#a1d83abaf74242ff440d5d50c8bccf366" target="_top" xlink:title=" ">
<polygon fill="#fff0f0" stroke="red" points="267.5,-355.26 161.5,-355.26 161.5,-325.26 267.5,-325.26 267.5,-355.26"/>
<text text-anchor="start" x="169.5" y="-343.26" font-family="Helvetica,sans-Serif" font-size="10.00">fl::third_party::plm</text>
<text text-anchor="middle" x="214.5" y="-332.26" font-family="Helvetica,sans-Serif" font-size="10.00">_demux_decode</text>
</a>
</g>
</g>
<!-- Node11&#45;&gt;Node21 -->
<g id="edge18_Node000011_Node000021" class="edge">
<title>Node11&#45;&gt;Node21</title>
<g id="a_edge18_Node000011_Node000021"><a xlink:title=" ">
<path fill="none" stroke="#63b8ff" d="M671.54,-321.5C659.16,-324.22 646.24,-326.66 634,-328.26 503.01,-345.37 347.07,-344.23 267.64,-342.14"/>
<polygon fill="#63b8ff" stroke="#63b8ff" points="672.35,-324.91 681.32,-319.27 670.79,-318.08 672.35,-324.91"/>
</a>
</g>
</g>
<!-- Node53 -->
<g id="Node000053" class="node">
<title>Node53</title>
<g id="a_Node000053"><a xlink:href="../../d1/d86/namespacefl_1_1third__party_af21e9e029d37fa60354efbb8ef27cfd8.html#af21e9e029d37fa60354efbb8ef27cfd8" target="_top" xlink:title=" ">
<polygon fill="white" stroke="#666666" points="622,-319.26 516,-319.26 516,-289.26 622,-289.26 622,-319.26"/>
<text text-anchor="start" x="524" y="-307.26" font-family="Helvetica,sans-Serif" font-size="10.00">fl::third_party::plm</text>
<text text-anchor="middle" x="569" y="-296.26" font-family="Helvetica,sans-Serif" font-size="10.00">_demux_probe</text>
</a>
</g>
</g>
<!-- Node11&#45;&gt;Node53 -->
<g id="edge19_Node000011_Node000053" class="edge">
<title>Node11&#45;&gt;Node53</title>
<g id="a_edge19_Node000011_Node000053"><a xlink:title=" ">
<path fill="none" stroke="#63b8ff" d="M659.75,-304.26C647,-304.26 634.02,-304.26 622.05,-304.26"/>
<polygon fill="#63b8ff" stroke="#63b8ff" points="659.92,-307.76 669.92,-304.26 659.92,-300.76 659.92,-307.76"/>
</a>
</g>
</g>
<!-- Node54 -->
<g id="Node000054" class="node">
<title>Node54</title>
<g id="a_Node000054"><a xlink:href="../../d1/d86/namespacefl_1_1third__party_a6084292855a1fd1dd6077089e2e028e9.html#a6084292855a1fd1dd6077089e2e028e9" target="_top" xlink:title=" ">
<polygon fill="white" stroke="#666666" points="633,-70.26 505,-70.26 505,-40.26 633,-40.26 633,-70.26"/>
<text text-anchor="start" x="513" y="-58.26" font-family="Helvetica,sans-Serif" font-size="10.00">fl::third_party::plm</text>
<text text-anchor="middle" x="569" y="-47.26" font-family="Helvetica,sans-Serif" font-size="10.00">_video_decode_picture</text>
</a>
</g>
</g>
<!-- Node11&#45;&gt;Node54 -->
<g id="edge21_Node000011_Node000054" class="edge">
<title>Node11&#45;&gt;Node54</title>
<g id="a_edge21_Node000011_Node000054"><a xlink:title=" ">
<path fill="none" stroke="#63b8ff" d="M721.94,-280.48C702.79,-248.39 667.08,-189.68 634,-141.26 616.67,-115.91 595.1,-87.51 581.94,-70.52"/>
<polygon fill="#63b8ff" stroke="#63b8ff" points="718.99,-282.36 727.11,-289.17 725.01,-278.79 718.99,-282.36"/>
</a>
</g>
</g>
<!-- Node13 -->
<g id="Node000013" class="node">
<title>Node13</title>
<g id="a_Node000013"><a xlink:href="../../d1/d86/namespacefl_1_1third__party_ac7ac1c9009ea94e8a7f9837864de50cd.html#ac7ac1c9009ea94e8a7f9837864de50cd" target="_top" xlink:title=" ">
<polygon fill="white" stroke="#666666" points="460,-99.26 331,-99.26 331,-69.26 460,-69.26 460,-99.26"/>
<text text-anchor="start" x="339" y="-87.26" font-family="Helvetica,sans-Serif" font-size="10.00">fl::third_party::plm</text>
<text text-anchor="middle" x="395.5" y="-76.26" font-family="Helvetica,sans-Serif" font-size="10.00">_buffer_has_start_code</text>
</a>
</g>
</g>
<!-- Node12&#45;&gt;Node13 -->
<g id="edge7_Node000012_Node000013" class="edge">
<title>Node12&#45;&gt;Node13</title>
<g id="a_edge7_Node000012_Node000013"><a xlink:title=" ">
<path fill="none" stroke="#63b8ff" d="M531.92,-145.45C513.08,-135.38 489.53,-123.2 468,-113.26 457.66,-108.49 446.31,-103.69 435.75,-99.41"/>
<polygon fill="#63b8ff" stroke="#63b8ff" points="530.29,-148.55 540.76,-150.21 533.61,-142.39 530.29,-148.55"/>
</a>
</g>
</g>
<!-- Node14 -->
<g id="Node000014" class="node">
<title>Node14</title>
<g id="a_Node000014"><a xlink:href="../../d1/d86/namespacefl_1_1third__party_adf7900b3de716b218997bcf1580f3282.html#adf7900b3de716b218997bcf1580f3282" target="_top" xlink:title=" ">
<polygon fill="#fff0f0" stroke="red" points="267.5,-99.26 161.5,-99.26 161.5,-69.26 267.5,-69.26 267.5,-99.26"/>
<text text-anchor="start" x="169.5" y="-87.26" font-family="Helvetica,sans-Serif" font-size="10.00">fl::third_party::plm</text>
<text text-anchor="middle" x="214.5" y="-76.26" font-family="Helvetica,sans-Serif" font-size="10.00">_video_decode</text>
</a>
</g>
</g>
<!-- Node12&#45;&gt;Node14 -->
<g id="edge15_Node000012_Node000014" class="edge">
<title>Node12&#45;&gt;Node14</title>
<g id="a_edge15_Node000012_Node000014"><a xlink:title=" ">
<path fill="none" stroke="#63b8ff" d="M493.98,-148.25C426.14,-132.66 327.41,-109.98 267.55,-96.22"/>
<polygon fill="#63b8ff" stroke="#63b8ff" points="493.23,-151.67 503.76,-150.5 494.79,-144.85 493.23,-151.67"/>
</a>
</g>
</g>
<!-- Node17 -->
<g id="Node000017" class="node">
<title>Node17</title>
<g id="a_Node000017"><a xlink:href="../../d1/d86/namespacefl_1_1third__party_ad4a7ab1c3d50cd610b01d919a7674f5c.html#ad4a7ab1c3d50cd610b01d919a7674f5c" target="_top" xlink:title=" ">
<polygon fill="#fff0f0" stroke="red" points="456.5,-271.26 334.5,-271.26 334.5,-241.26 456.5,-241.26 456.5,-271.26"/>
<text text-anchor="start" x="342.5" y="-259.26" font-family="Helvetica,sans-Serif" font-size="10.00">fl::third_party::plm</text>
<text text-anchor="middle" x="395.5" y="-248.26" font-family="Helvetica,sans-Serif" font-size="10.00">_demux_has_headers</text>
</a>
</g>
</g>
<!-- Node12&#45;&gt;Node17 -->
<g id="edge10_Node000012_Node000017" class="edge">
<title>Node12&#45;&gt;Node17</title>
<g id="a_edge10_Node000012_Node000017"><a xlink:title=" ">
<path fill="none" stroke="#63b8ff" d="M540.55,-186.57C521.11,-200.92 493.97,-219.49 468,-232.26 461.42,-235.5 454.3,-238.47 447.18,-241.13"/>
<polygon fill="#63b8ff" stroke="#63b8ff" points="542.74,-189.31 548.65,-180.51 538.55,-183.7 542.74,-189.31"/>
</a>
</g>
</g>
<!-- Node23 -->
<g id="Node000023" class="node">
<title>Node23</title>
<g id="a_Node000023"><a xlink:href="../../d1/d86/namespacefl_1_1third__party_a4efc7223bb4f22fcc64bf8052e1fe3c4.html#a4efc7223bb4f22fcc64bf8052e1fe3c4" target="_top" xlink:title=" ">
<polygon fill="#fff0f0" stroke="red" points="267.5,-271.26 161.5,-271.26 161.5,-241.26 267.5,-241.26 267.5,-271.26"/>
<text text-anchor="start" x="169.5" y="-259.26" font-family="Helvetica,sans-Serif" font-size="10.00">fl::third_party::plm</text>
<text text-anchor="middle" x="214.5" y="-248.26" font-family="Helvetica,sans-Serif" font-size="10.00">_demux_seek</text>
</a>
</g>
</g>
<!-- Node12&#45;&gt;Node23 -->
<g id="edge13_Node000012_Node000023" class="edge">
<title>Node12&#45;&gt;Node23</title>
<g id="a_edge13_Node000012_Node000023"><a xlink:title=" ">
<path fill="none" stroke="#63b8ff" d="M493.75,-161.34C444.11,-161.04 378.06,-165.17 323,-184.26 287.35,-196.62 252.19,-223.77 232.24,-240.97"/>
<polygon fill="#63b8ff" stroke="#63b8ff" points="493.72,-164.84 503.77,-161.47 493.81,-157.85 493.72,-164.84"/>
</a>
</g>
</g>
<!-- Node47 -->
<g id="Node000047" class="node">
<title>Node47</title>
<g id="a_Node000047"><a xlink:href="../../d1/d86/namespacefl_1_1third__party_a1e0f03e48c61787e0bde491a6f9ced7d.html#a1e0f03e48c61787e0bde491a6f9ced7d" target="_top" xlink:title=" ">
<polygon fill="#fff0f0" stroke="red" points="468,-223.26 323,-223.26 323,-193.26 468,-193.26 468,-223.26"/>
<text text-anchor="start" x="331" y="-211.26" font-family="Helvetica,sans-Serif" font-size="10.00">fl::third_party::plm</text>
<text text-anchor="middle" x="395.5" y="-200.26" font-family="Helvetica,sans-Serif" font-size="10.00">_video_create_with_buffer</text>
</a>
</g>
</g>
<!-- Node12&#45;&gt;Node47 -->
<g id="edge14_Node000012_Node000047" class="edge">
<title>Node12&#45;&gt;Node47</title>
<g id="a_edge14_Node000012_Node000047"><a xlink:title=" ">
<path fill="none" stroke="#63b8ff" d="M498.08,-182.79C484.27,-186.25 469.89,-189.86 456.45,-193.23"/>
<polygon fill="#63b8ff" stroke="#63b8ff" points="499.17,-186.13 508.02,-180.3 497.47,-179.34 499.17,-186.13"/>
</a>
</g>
</g>
<!-- Node48 -->
<g id="Node000048" class="node">
<title>Node48</title>
<g id="a_Node000048"><a xlink:href="../../d1/d86/namespacefl_1_1third__party_af5b5e570631dea32f31ca9d62231ab0d.html#af5b5e570631dea32f31ca9d62231ab0d" target="_top" xlink:title=" ">
<polygon fill="#fff0f0" stroke="red" points="450.5,-51.26 340.5,-51.26 340.5,-21.26 450.5,-21.26 450.5,-51.26"/>
<text text-anchor="start" x="348.5" y="-39.26" font-family="Helvetica,sans-Serif" font-size="10.00">fl::third_party::plm</text>
<text text-anchor="middle" x="395.5" y="-28.26" font-family="Helvetica,sans-Serif" font-size="10.00">_video_has_header</text>
</a>
</g>
</g>
<!-- Node12&#45;&gt;Node48 -->
<g id="edge16_Node000012_Node000048" class="edge">
<title>Node12&#45;&gt;Node48</title>
<g id="a_edge16_Node000012_Node000048"><a xlink:title=" ">
<path fill="none" stroke="#63b8ff" d="M551.4,-142.08C533.35,-118.43 502.42,-82.17 468,-60.26 462.59,-56.82 456.63,-53.81 450.53,-51.2"/>
<polygon fill="#63b8ff" stroke="#63b8ff" points="548.66,-144.27 557.45,-150.18 554.27,-140.07 548.66,-144.27"/>
</a>
</g>
</g>
<!-- Node13&#45;&gt;Node14 -->
<g id="edge8_Node000013_Node000014" class="edge">
<title>Node13&#45;&gt;Node14</title>
<g id="a_edge8_Node000013_Node000014"><a xlink:title=" ">
<path fill="none" stroke="#63b8ff" d="M320.56,-84.26C302.81,-84.26 284.22,-84.26 267.7,-84.26"/>
<polygon fill="#63b8ff" stroke="#63b8ff" points="320.89,-87.76 330.89,-84.26 320.89,-80.76 320.89,-87.76"/>
</a>
</g>
</g>
<!-- Node14&#45;&gt;Node4 -->
<g id="edge9_Node000014_Node000004" class="edge">
<title>Node14&#45;&gt;Node4</title>
<g id="a_edge9_Node000014_Node000004"><a xlink:title=" ">
<path fill="none" stroke="#63b8ff" d="M192.95,-107.19C159.84,-144.15 95.55,-215.89 67.56,-247.12"/>
<polygon fill="#63b8ff" stroke="#63b8ff" points="195.83,-109.22 199.9,-99.44 190.62,-104.55 195.83,-109.22"/>
</a>
</g>
</g>
<!-- Node17&#45;&gt;Node21 -->
<g id="edge11_Node000017_Node000021" class="edge">
<title>Node17&#45;&gt;Node21</title>
<g id="a_edge11_Node000017_Node000021"><a xlink:title=" ">
<path fill="none" stroke="#63b8ff" d="M335.9,-274.94C331.49,-276.64 327.15,-278.42 323,-280.26 293.29,-293.4 260.96,-312.09 239.6,-325.11"/>
<polygon fill="#63b8ff" stroke="#63b8ff" points="337.43,-278.1 345.58,-271.33 334.98,-271.54 337.43,-278.1"/>
</a>
</g>
</g>
<!-- Node17&#45;&gt;Node23 -->
<g id="edge12_Node000017_Node000023" class="edge">
<title>Node17&#45;&gt;Node23</title>
<g id="a_edge12_Node000017_Node000023"><a xlink:title=" ">
<path fill="none" stroke="#63b8ff" d="M324.35,-256.26C305.46,-256.26 285.37,-256.26 267.65,-256.26"/>
<polygon fill="#63b8ff" stroke="#63b8ff" points="324.4,-259.76 334.4,-256.26 324.4,-252.76 324.4,-259.76"/>
</a>
</g>
</g>
<!-- Node48&#45;&gt;Node14 -->
<g id="edge17_Node000048_Node000014" class="edge">
<title>Node48&#45;&gt;Node14</title>
<g id="a_edge17_Node000048_Node000014"><a xlink:title=" ">
<path fill="none" stroke="#63b8ff" d="M330.38,-53.45C309.81,-58.97 287.28,-65.01 267.67,-70.27"/>
<polygon fill="#63b8ff" stroke="#63b8ff" points="331.56,-56.76 340.31,-50.79 329.74,-50 331.56,-56.76"/>
</a>
</g>
</g>
<!-- Node36 -->
<g id="Node000036" class="node">
<title>Node36</title>
<g id="a_Node000036"><a xlink:href="../../d1/d86/namespacefl_1_1third__party_a1a6ed4c03387fe8a2259fd35cb8483e3.html#a1a6ed4c03387fe8a2259fd35cb8483e3" target="_top" xlink:title=" ">
<polygon fill="white" stroke="#666666" points="448.5,-319.26 342.5,-319.26 342.5,-289.26 448.5,-289.26 448.5,-319.26"/>
<text text-anchor="start" x="350.5" y="-307.26" font-family="Helvetica,sans-Serif" font-size="10.00">fl::third_party::plm</text>
<text text-anchor="middle" x="395.5" y="-296.26" font-family="Helvetica,sans-Serif" font-size="10.00">_probe</text>
</a>
</g>
</g>
<!-- Node53&#45;&gt;Node36 -->
<g id="edge20_Node000053_Node000036" class="edge">
<title>Node53&#45;&gt;Node36</title>
<g id="a_edge20_Node000053_Node000036"><a xlink:title=" ">
<path fill="none" stroke="#63b8ff" d="M505.43,-304.26C486.75,-304.26 466.49,-304.26 448.57,-304.26"/>
<polygon fill="#63b8ff" stroke="#63b8ff" points="505.61,-307.76 515.61,-304.26 505.61,-300.76 505.61,-307.76"/>
</a>
</g>
</g>
<!-- Node54&#45;&gt;Node14 -->
<g id="edge22_Node000054_Node000014" class="edge">
<title>Node54&#45;&gt;Node14</title>
<g id="a_edge22_Node000054_Node000014"><a xlink:title=" ">
<path fill="none" stroke="#63b8ff" d="M532.02,-35.57C513.48,-26.53 490.17,-16.82 468,-12.26 404.88,0.74 384.66,6.48 323,-12.26 286.46,-23.37 251.05,-51.47 231.37,-69.1"/>
<polygon fill="#63b8ff" stroke="#63b8ff" points="530.47,-38.7 540.97,-40.06 533.61,-32.45 530.47,-38.7"/>
</a>
</g>
</g>
<!-- Node56 -->
<g id="Node000056" class="node">
<title>Node56</title>
<g id="a_Node000056"><a xlink:href="../../d1/d86/namespacefl_1_1third__party_a6a6c69ea774c25445183b9408db4f638.html#a6a6c69ea774c25445183b9408db4f638" target="_top" xlink:title=" ">
<polygon fill="white" stroke="#666666" points="459.5,-453.26 331.5,-453.26 331.5,-423.26 459.5,-423.26 459.5,-453.26"/>
<text text-anchor="start" x="339.5" y="-441.26" font-family="Helvetica,sans-Serif" font-size="10.00">fl::third_party::plm</text>
<text text-anchor="middle" x="395.5" y="-430.26" font-family="Helvetica,sans-Serif" font-size="10.00">_audio_decode_header</text>
</a>
</g>
</g>
<!-- Node55&#45;&gt;Node56 -->
<g id="edge24_Node000055_Node000056" class="edge">
<title>Node55&#45;&gt;Node56</title>
<g id="a_edge24_Node000055_Node000056"><a xlink:title=" ">
<path fill="none" stroke="#63b8ff" d="M504.69,-415.55C490.01,-418.63 474.39,-421.91 459.72,-424.99"/>
<polygon fill="#63b8ff" stroke="#63b8ff" points="505.61,-418.93 514.68,-413.45 504.17,-412.08 505.61,-418.93"/>
</a>
</g>
</g>
<!-- Node60 -->
<g id="Node000060" class="node">
<title>Node60</title>
<g id="a_Node000060"><a xlink:href="../../d1/d86/namespacefl_1_1third__party_ad0749fd71293fbafdda6f056790f86ce.html#ad0749fd71293fbafdda6f056790f86ce" target="_top" xlink:title=" ">
<polygon fill="white" stroke="#666666" points="462.5,-405.26 328.5,-405.26 328.5,-375.26 462.5,-375.26 462.5,-405.26"/>
<text text-anchor="start" x="336.5" y="-393.26" font-family="Helvetica,sans-Serif" font-size="10.00">fl::third_party::plm</text>
<text text-anchor="middle" x="395.5" y="-382.26" font-family="Helvetica,sans-Serif" font-size="10.00">_demux_decode_packet</text>
</a>
</g>
</g>
<!-- Node55&#45;&gt;Node60 -->
<g id="edge28_Node000055_Node000060" class="edge">
<title>Node55&#45;&gt;Node60</title>
<g id="a_edge28_Node000055_Node000060"><a xlink:title=" ">
<path fill="none" stroke="#63b8ff" d="M504.46,-397.81C490.87,-396.86 476.48,-395.86 462.79,-394.9"/>
<polygon fill="#63b8ff" stroke="#63b8ff" points="504.46,-401.32 514.68,-398.53 504.95,-394.34 504.46,-401.32"/>
</a>
</g>
</g>
<!-- Node56&#45;&gt;Node3 -->
<g id="edge26_Node000056_Node000003" class="edge">
<title>Node56&#45;&gt;Node3</title>
<g id="a_edge26_Node000056_Node000003"><a xlink:title=" ">
<path fill="none" stroke="#63b8ff" d="M326.18,-455.82C306.75,-460.81 285.91,-466.17 267.6,-470.87"/>
<polygon fill="#63b8ff" stroke="#63b8ff" points="327.07,-459.2 335.89,-453.32 325.33,-452.42 327.07,-459.2"/>
</a>
</g>
</g>
<!-- Node57 -->
<g id="Node000057" class="node">
<title>Node57</title>
<g id="a_Node000057"><a xlink:href="../../d1/d86/namespacefl_1_1third__party_acec4eccbe65bc24667c4dfbd55e1f994.html#acec4eccbe65bc24667c4dfbd55e1f994" target="_top" xlink:title=" ">
<polygon fill="#fff0f0" stroke="red" points="287,-451.26 142,-451.26 142,-421.26 287,-421.26 287,-451.26"/>
<text text-anchor="start" x="150" y="-439.26" font-family="Helvetica,sans-Serif" font-size="10.00">fl::third_party::plm</text>
<text text-anchor="middle" x="214.5" y="-428.26" font-family="Helvetica,sans-Serif" font-size="10.00">_audio_create_with_buffer</text>
</a>
</g>
</g>
<!-- Node56&#45;&gt;Node57 -->
<g id="edge25_Node000056_Node000057" class="edge">
<title>Node56&#45;&gt;Node57</title>
<g id="a_edge25_Node000056_Node000057"><a xlink:title=" ">
<path fill="none" stroke="#63b8ff" d="M321.2,-437.44C309.97,-437.32 298.39,-437.19 287.2,-437.06"/>
<polygon fill="#63b8ff" stroke="#63b8ff" points="321.35,-440.94 331.39,-437.56 321.43,-433.94 321.35,-440.94"/>
</a>
</g>
</g>
<!-- Node58 -->
<g id="Node000058" class="node">
<title>Node58</title>
<g id="a_Node000058"><a xlink:href="../../d1/d86/namespacefl_1_1third__party_a2bbc40f13ba9103ddf0fe76660e5f0b7.html#a2bbc40f13ba9103ddf0fe76660e5f0b7" target="_top" xlink:title=" ">
<polygon fill="#fff0f0" stroke="red" points="269.5,-403.26 159.5,-403.26 159.5,-373.26 269.5,-373.26 269.5,-403.26"/>
<text text-anchor="start" x="167.5" y="-391.26" font-family="Helvetica,sans-Serif" font-size="10.00">fl::third_party::plm</text>
<text text-anchor="middle" x="214.5" y="-380.26" font-family="Helvetica,sans-Serif" font-size="10.00">_audio_has_header</text>
</a>
</g>
</g>
<!-- Node56&#45;&gt;Node58 -->
<g id="edge27_Node000056_Node000058" class="edge">
<title>Node56&#45;&gt;Node58</title>
<g id="a_edge27_Node000056_Node000058"><a xlink:title=" ">
<path fill="none" stroke="#63b8ff" d="M331.08,-420.55C310.95,-414.92 288.88,-408.76 269.48,-403.34"/>
<polygon fill="#63b8ff" stroke="#63b8ff" points="330.22,-423.94 340.79,-423.26 332.1,-417.2 330.22,-423.94"/>
</a>
</g>
</g>
<!-- Node60&#45;&gt;Node21 -->
<g id="edge29_Node000060_Node000021" class="edge">
<title>Node60&#45;&gt;Node21</title>
<g id="a_edge29_Node000060_Node000021"><a xlink:title=" ">
<path fill="none" stroke="#63b8ff" d="M331.1,-372.55C310.32,-366.75 287.48,-360.37 267.63,-354.82"/>
<polygon fill="#63b8ff" stroke="#63b8ff" points="330.22,-375.94 340.79,-375.26 332.1,-369.2 330.22,-375.94"/>
</a>
</g>
</g>
<!-- Node60&#45;&gt;Node23 -->
<g id="edge30_Node000060_Node000023" class="edge">
<title>Node60&#45;&gt;Node23</title>
<g id="a_edge30_Node000060_Node000023"><a xlink:title=" ">
<path fill="none" stroke="#63b8ff" d="M366.08,-368.99C329.68,-341.73 267.48,-295.17 235.61,-271.32"/>
<polygon fill="#63b8ff" stroke="#63b8ff" points="364.21,-371.96 374.31,-375.15 368.41,-366.35 364.21,-371.96"/>
</a>
</g>
</g>
</g>
</svg>

<g id="navigator" transform="translate(0 0)" fill="#404254">
  <rect fill="#f2f5e9" fill-opacity="0.5" stroke="#606060" stroke-width=".5" x="0" y="0" width="60" height="60"/>
  <use id="zoomplus" xlink:href="#zoomPlus" x="17" y="9" onmousedown="handleZoom(evt,'in')"/>
  <use id="zoomminus" xlink:href="#zoomMin" x="42" y="9" onmousedown="handleZoom(evt,'out')"/>
  <use id="reset" xlink:href="#resetDef" x="30" y="36" onmousedown="handleReset()"/>
   <use id="arrowup" xlink:href="#arrowUp" x="0" y="0" onmousedown="handlePan(0,-1)"/>
  <use id="arrowright" xlink:href="#arrowRight" x="0" y="0" onmousedown="handlePan(1,0)"/>
  <use id="arrowdown" xlink:href="#arrowDown" x="0" y="0" onmousedown="handlePan(0,1)"/>
  <use id="arrowleft" xlink:href="#arrowLeft" x="0" y="0" onmousedown="handlePan(-1,0)"/>
</g>
<svg viewBox="0 0 15 15" width="100%" height="30px" preserveAspectRatio="xMaxYMin meet">
 <g id="arrow_out" transform="scale(0.3 0.3)">
  <a xlink:href="namespacefl_1_1third__party_acefdd0d666a85945145b354235a085e5_acefdd0d666a85945145b354235a085e5_icgraph_org.svg" target="_base">
   <rect id="button" ry="5" rx="5" y="6" x="6" height="38" width="38"
        fill="#f2f5e9" fill-opacity="0.5" stroke="#606060" stroke-width="1.0"/>
   <path id="arrow"
     d="M 11.500037,31.436501 C 11.940474,20.09759 22.043105,11.32322 32.158766,21.979434 L 37.068811,17.246167 C 37.068811,17.246167 37.088388,32 37.088388,32 L 22.160133,31.978069 C 22.160133,31.978069 26.997745,27.140456 26.997745,27.140456 C 18.528582,18.264221 13.291696,25.230495 11.500037,31.436501 z"
     style="fill:#404040;"/>
  </a>
 </g>
</svg>

<style type='text/css'>
<![CDATA[
[data-mouse-over-selected='false'] { opacity: 0.7; }
[data-mouse-over-selected='true']  { opacity: 1.0; }
]]>
</style>
<script type="application/ecmascript"><![CDATA[
document.addEventListener('DOMContentLoaded', (event) => {
  highlightEdges();
  highlightAdjacentNodes();
});
]]></script>
</svg>
