<?xml version="1.0" encoding="UTF-8" standalone="no"?>
<!DOCTYPE svg PUBLIC "-//W3C//DTD SVG 1.1//EN"
 "http://www.w3.org/Graphics/SVG/1.1/DTD/svg11.dtd">
<!-- Generated by graphviz version 2.43.0 (0)
 -->
<!-- Title: fl::Channel::create Pages: 1 -->
<!--zoomable 160 -->

<svg id="main" version="1.1" xmlns="http://www.w3.org/2000/svg" xmlns:xlink="http://www.w3.org/1999/xlink" xml:space="preserve" onload="init(evt)">

<style type="text/css"><![CDATA[
.node, .edge {opacity: 0.7;}
.node.selected, .edge.selected {opacity: 1;}
.edge:hover path { stroke: red; }
.edge:hover polygon { stroke: red; fill: red; }
]]></style>

<defs>
  <circle id="rim" cx="0" cy="0" r="7"/>
  <circle id="rim2" cx="0" cy="0" r="3.5"/>
  <g id="zoomPlus">
    <use xlink:href="#rim" fill="#404040"><set attributeName="fill" to="#808080" begin="zoomplus.mouseover" end="zoomplus.mouseout"/></use>
    <path d="M-4,0h8M0,-4v8" fill="none" stroke="white" stroke-width="1.5" pointer-events="none"/>
  </g>
  <g id="zoomMin">
    <use xlink:href="#rim" fill="#404040"><set attributeName="fill" to="#808080" begin="zoomminus.mouseover" end="zoomminus.mouseout"/></use>
    <path d="M-4,0h8" fill="none" stroke="white" stroke-width="1.5" pointer-events="none"/>
  </g>
  <g id="arrowUp" transform="translate(30 24)">
    <use xlink:href="#rim"/>
    <path pointer-events="none" fill="none" stroke="white" stroke-width="1.5" d="M0,-3.0v7 M-2.5,-0.5L0,-3.0L2.5,-0.5"/>
  </g>
  <g id="arrowRight" transform="rotate(90) translate(36 -43)">
    <use xlink:href="#rim"/>
    <path pointer-events="none" fill="none" stroke="white" stroke-width="1.5" d="M0,-3.0v7 M-2.5,-0.5L0,-3.0L2.5,-0.5"/>
  </g>
  <g id="arrowDown" transform="rotate(180) translate(-30 -48)">
    <use xlink:href="#rim"/>
    <path pointer-events="none" fill="none" stroke="white" stroke-width="1.5" d="M0,-3.0v7 M-2.5,-0.5L0,-3.0L2.5,-0.5"/>
  </g>
  <g id="arrowLeft" transform="rotate(270) translate(-36 17)">
    <use xlink:href="#rim"/>
    <path pointer-events="none" fill="none" stroke="white" stroke-width="1.5" d="M0,-3.0v7 M-2.5,-0.5L0,-3.0L2.5,-0.5"/>
  </g>
  <g id="resetDef">
    <use xlink:href="#rim2" fill="#404040"><set attributeName="fill" to="#808080" begin="reset.mouseover" end="reset.mouseout"/></use>
  </g>
</defs>
<script type="application/ecmascript">
var viewWidth = 584;
var viewHeight = 160;
var sectionId = 'dynsection-0';
</script>
<script type="application/ecmascript" xlink:href="../../svg.min.js"/>
<svg id="graph" class="graph">
<g id="viewport">
<title>fl::Channel::create</title>
<!-- Node1 -->
<g id="Node000001" class="node">
<title>Node1</title>
<g id="a_Node000001"><a xlink:title="Create a new channel with optional mBus driver pinning.">
<polygon fill="#999999" stroke="#666666" points="105,-102 0,-102 0,-83 105,-83 105,-102"/>
<text text-anchor="middle" x="52.5" y="-90" font-family="Helvetica,sans-Serif" font-size="10.00">fl::Channel::create</text>
</a>
</g>
</g>
<!-- Node2 -->
<g id="Node000002" class="node">
<title>Node2</title>
<g id="a_Node000002"><a xlink:href="../../da/db7/structfl_1_1_channel_events_aa02eba6c71d0300625657d33cefceab9.html#aa02eba6c71d0300625657d33cefceab9" target="_top" xlink:title=" ">
<polygon fill="white" stroke="#666666" points="260,-151.5 153,-151.5 153,-121.5 260,-121.5 260,-151.5"/>
<text text-anchor="start" x="161" y="-139.5" font-family="Helvetica,sans-Serif" font-size="10.00">fl::ChannelEvents::</text>
<text text-anchor="middle" x="206.5" y="-128.5" font-family="Helvetica,sans-Serif" font-size="10.00">instance</text>
</a>
</g>
</g>
<!-- Node1&#45;&gt;Node2 -->
<g id="edge1_Node000001_Node000002" class="edge">
<title>Node1&#45;&gt;Node2</title>
<g id="a_edge1_Node000001_Node000002"><a xlink:title=" ">
<path fill="none" stroke="#63b8ff" d="M86.48,-102.05C103.21,-106.89 124.09,-112.93 143.67,-118.6"/>
<polygon fill="#63b8ff" stroke="#63b8ff" points="142.88,-122.02 153.46,-121.43 144.82,-115.29 142.88,-122.02"/>
</a>
</g>
</g>
<!-- Node4 -->
<g id="Node000004" class="node">
<title>Node4</title>
<g id="a_Node000004"><a xlink:href="../../d4/d36/namespacefl_a87ae8a24cc8b709a64f39370e71846af.html#a87ae8a24cc8b709a64f39370e71846af" target="_top" xlink:title=" ">
<polygon fill="white" stroke="#666666" points="253.5,-102 159.5,-102 159.5,-83 253.5,-83 253.5,-102"/>
<text text-anchor="middle" x="206.5" y="-90" font-family="Helvetica,sans-Serif" font-size="10.00">fl::make_shared</text>
</a>
</g>
</g>
<!-- Node1&#45;&gt;Node4 -->
<g id="edge3_Node000001_Node000004" class="edge">
<title>Node1&#45;&gt;Node4</title>
<g id="a_edge3_Node000001_Node000004"><a xlink:title=" ">
<path fill="none" stroke="#63b8ff" d="M105.38,-92.5C119.5,-92.5 134.86,-92.5 149.21,-92.5"/>
<polygon fill="#63b8ff" stroke="#63b8ff" points="149.45,-96 159.45,-92.5 149.45,-89 149.45,-96"/>
</a>
</g>
</g>
<!-- Node5 -->
<g id="Node000005" class="node">
<title>Node5</title>
<g id="a_Node000005"><a xlink:href="../../d5/d8b/classfl_1_1_channel_a27ac9770da107f25ff6b2e3cbabd4f2a.html#a27ac9770da107f25ff6b2e3cbabd4f2a" target="_top" xlink:title=" ">
<polygon fill="white" stroke="#666666" points="272,-62 141,-62 141,-43 272,-43 272,-62"/>
<text text-anchor="middle" x="206.5" y="-50" font-family="Helvetica,sans-Serif" font-size="10.00">fl::Channel::makeName</text>
</a>
</g>
</g>
<!-- Node1&#45;&gt;Node5 -->
<g id="edge4_Node000001_Node000005" class="edge">
<title>Node1&#45;&gt;Node5</title>
<g id="a_edge4_Node000001_Node000005"><a xlink:title=" ">
<path fill="none" stroke="#63b8ff" d="M89.91,-82.92C110.78,-77.43 137.17,-70.48 159.47,-64.61"/>
<polygon fill="#63b8ff" stroke="#63b8ff" points="160.61,-67.93 169.39,-62 158.83,-61.16 160.61,-67.93"/>
</a>
</g>
</g>
<!-- Node3 -->
<g id="Node000003" class="node">
<title>Node3</title>
<g id="a_Node000003"><a xlink:href="../../d9/d5b/classfl_1_1_singleton_a47fdc044003ec27f9e9833f7f5418e01.html#a47fdc044003ec27f9e9833f7f5418e01" target="_top" xlink:title=" ">
<polygon fill="white" stroke="#666666" points="431.5,-148 309.5,-148 309.5,-129 431.5,-129 431.5,-148"/>
<text text-anchor="middle" x="370.5" y="-136" font-family="Helvetica,sans-Serif" font-size="10.00">fl::Singleton::instance</text>
</a>
</g>
</g>
<!-- Node2&#45;&gt;Node3 -->
<g id="edge2_Node000002_Node000003" class="edge">
<title>Node2&#45;&gt;Node3</title>
<g id="a_edge2_Node000002_Node000003"><a xlink:title=" ">
<path fill="none" stroke="#63b8ff" d="M260.1,-137.15C272.49,-137.3 285.9,-137.47 298.94,-137.63"/>
<polygon fill="#63b8ff" stroke="#63b8ff" points="299.25,-141.13 309.29,-137.76 299.34,-134.13 299.25,-141.13"/>
</a>
</g>
</g>
<!-- Node6 -->
<g id="Node000006" class="node">
<title>Node6</title>
<g id="a_Node000006"><a xlink:href="../../dd/dd8/classfl_1_1_optional_ad5f53bf55f59f43884a71b107dee14c7.html#ad5f53bf55f59f43884a71b107dee14c7" target="_top" xlink:title=" ">
<polygon fill="white" stroke="#666666" points="433,-111 308,-111 308,-92 433,-92 433,-111"/>
<text text-anchor="middle" x="370.5" y="-99" font-family="Helvetica,sans-Serif" font-size="10.00">fl::Optional::has_value</text>
</a>
</g>
</g>
<!-- Node5&#45;&gt;Node6 -->
<g id="edge5_Node000005_Node000006" class="edge">
<title>Node5&#45;&gt;Node6</title>
<g id="a_edge5_Node000005_Node000006"><a xlink:title=" ">
<path fill="none" stroke="#63b8ff" d="M238.25,-62.11C258.13,-68.29 284.57,-76.46 308,-83.5 314.08,-85.33 320.51,-87.24 326.83,-89.1"/>
<polygon fill="#63b8ff" stroke="#63b8ff" points="326.02,-92.51 336.6,-91.97 327.99,-85.79 326.02,-92.51"/>
</a>
</g>
</g>
<!-- Node8 -->
<g id="Node000008" class="node">
<title>Node8</title>
<g id="a_Node000008"><a xlink:href="../../d4/d36/namespacefl_a00be5c89d851d3cf8f72d28097905f42.html#a00be5c89d851d3cf8f72d28097905f42" target="_top" xlink:title=" ">
<polygon fill="white" stroke="#666666" points="406,-56 335,-56 335,-37 406,-37 406,-56"/>
<text text-anchor="middle" x="370.5" y="-44" font-family="Helvetica,sans-Serif" font-size="10.00">fl::to_string</text>
</a>
</g>
</g>
<!-- Node5&#45;&gt;Node8 -->
<g id="edge7_Node000005_Node000008" class="edge">
<title>Node5&#45;&gt;Node8</title>
<g id="a_edge7_Node000005_Node000008"><a xlink:title=" ">
<path fill="none" stroke="#63b8ff" d="M272.46,-50.09C289.93,-49.45 308.45,-48.76 324.56,-48.16"/>
<polygon fill="#63b8ff" stroke="#63b8ff" points="324.91,-51.65 334.77,-47.79 324.65,-44.66 324.91,-51.65"/>
</a>
</g>
</g>
<!-- Node9 -->
<g id="Node000009" class="node">
<title>Node9</title>
<g id="a_Node000009"><a xlink:href="../../dd/dd8/classfl_1_1_optional_a1a7216013ea48bf987511dae97d2915f.html#a1a7216013ea48bf987511dae97d2915f" target="_top" xlink:title=" ">
<polygon fill="white" stroke="#666666" points="422,-19 319,-19 319,0 422,0 422,-19"/>
<text text-anchor="middle" x="370.5" y="-7" font-family="Helvetica,sans-Serif" font-size="10.00">fl::Optional::value</text>
</a>
</g>
</g>
<!-- Node5&#45;&gt;Node9 -->
<g id="edge9_Node000005_Node000009" class="edge">
<title>Node5&#45;&gt;Node9</title>
<g id="a_edge9_Node000005_Node000009"><a xlink:title=" ">
<path fill="none" stroke="#63b8ff" d="M243.45,-42.96C267.15,-36.67 298.4,-28.37 323.85,-21.62"/>
<polygon fill="#63b8ff" stroke="#63b8ff" points="324.88,-24.96 333.65,-19.02 323.08,-18.2 324.88,-24.96"/>
</a>
</g>
</g>
<!-- Node7 -->
<g id="Node000007" class="node">
<title>Node7</title>
<g id="a_Node000007"><a xlink:href="../../dd/dd8/classfl_1_1_optional_a1c6d194efbcfda4ab12e09305999b667.html#a1c6d194efbcfda4ab12e09305999b667" target="_top" xlink:title=" ">
<polygon fill="white" stroke="#666666" points="576,-111 469,-111 469,-92 576,-92 576,-111"/>
<text text-anchor="middle" x="522.5" y="-99" font-family="Helvetica,sans-Serif" font-size="10.00">fl::Optional::empty</text>
</a>
</g>
</g>
<!-- Node6&#45;&gt;Node7 -->
<g id="edge6_Node000006_Node000007" class="edge">
<title>Node6&#45;&gt;Node7</title>
<g id="a_edge6_Node000006_Node000007"><a xlink:title=" ">
<path fill="none" stroke="#63b8ff" d="M433.38,-101.5C441.75,-101.5 450.36,-101.5 458.75,-101.5"/>
<polygon fill="#63b8ff" stroke="#63b8ff" points="458.85,-105 468.85,-101.5 458.85,-98 458.85,-105"/>
</a>
</g>
</g>
<!-- Node8&#45;&gt;Node8 -->
<g id="edge8_Node000008_Node000008" class="edge">
<title>Node8&#45;&gt;Node8</title>
<g id="a_edge8_Node000008_Node000008"><a xlink:title=" ">
<path fill="none" stroke="#63b8ff" d="M347.07,-56.08C335.68,-64.73 343.48,-74 370.5,-74 388.23,-74 397.69,-70.01 398.87,-64.82"/>
<polygon fill="#63b8ff" stroke="#63b8ff" points="401.9,-63.06 393.93,-56.08 395.81,-66.51 401.9,-63.06"/>
</a>
</g>
</g>
<!-- Node10 -->
<g id="Node000010" class="node">
<title>Node10</title>
<g id="a_Node000010"><a xlink:href="../../dd/dd8/classfl_1_1_optional_a0c3fe141556cad218a68e49c72ac139a.html#a0c3fe141556cad218a68e49c72ac139a" target="_top" xlink:title=" ">
<polygon fill="white" stroke="#666666" points="567,-19 478,-19 478,0 567,0 567,-19"/>
<text text-anchor="middle" x="522.5" y="-7" font-family="Helvetica,sans-Serif" font-size="10.00">fl::Optional::ptr</text>
</a>
</g>
</g>
<!-- Node9&#45;&gt;Node10 -->
<g id="edge10_Node000009_Node000010" class="edge">
<title>Node9&#45;&gt;Node10</title>
<g id="a_edge10_Node000009_Node000010"><a xlink:title=" ">
<path fill="none" stroke="#63b8ff" d="M422.28,-9.5C436.92,-9.5 452.94,-9.5 467.76,-9.5"/>
<polygon fill="#63b8ff" stroke="#63b8ff" points="467.79,-13 477.79,-9.5 467.79,-6 467.79,-13"/>
</a>
</g>
</g>
<!-- Node10&#45;&gt;Node10 -->
<g id="edge11_Node000010_Node000010" class="edge">
<title>Node10&#45;&gt;Node10</title>
<g id="a_edge11_Node000010_Node000010"><a xlink:title=" ">
<path fill="none" stroke="#63b8ff" d="M499.07,-19.08C487.68,-27.73 495.48,-37 522.5,-37 540.23,-37 549.69,-33.01 550.87,-27.82"/>
<polygon fill="#63b8ff" stroke="#63b8ff" points="553.9,-26.06 545.93,-19.08 547.81,-29.51 553.9,-26.06"/>
</a>
</g>
</g>
</g>
</svg>

<g id="navigator" transform="translate(0 0)" fill="#404254">
  <rect fill="#f2f5e9" fill-opacity="0.5" stroke="#606060" stroke-width=".5" x="0" y="0" width="60" height="60"/>
  <use id="zoomplus" xlink:href="#zoomPlus" x="17" y="9" onmousedown="handleZoom(evt,'in')"/>
  <use id="zoomminus" xlink:href="#zoomMin" x="42" y="9" onmousedown="handleZoom(evt,'out')"/>
  <use id="reset" xlink:href="#resetDef" x="30" y="36" onmousedown="handleReset()"/>
   <use id="arrowup" xlink:href="#arrowUp" x="0" y="0" onmousedown="handlePan(0,-1)"/>
  <use id="arrowright" xlink:href="#arrowRight" x="0" y="0" onmousedown="handlePan(1,0)"/>
  <use id="arrowdown" xlink:href="#arrowDown" x="0" y="0" onmousedown="handlePan(0,1)"/>
  <use id="arrowleft" xlink:href="#arrowLeft" x="0" y="0" onmousedown="handlePan(-1,0)"/>
</g>
<svg viewBox="0 0 15 15" width="100%" height="30px" preserveAspectRatio="xMaxYMin meet">
 <g id="arrow_out" transform="scale(0.3 0.3)">
  <a xlink:href="classfl_1_1_channel_acb0aa97ad60c6c8a739a60610b2bc1f9_acb0aa97ad60c6c8a739a60610b2bc1f9_cgraph_org.svg" target="_base">
   <rect id="button" ry="5" rx="5" y="6" x="6" height="38" width="38"
        fill="#f2f5e9" fill-opacity="0.5" stroke="#606060" stroke-width="1.0"/>
   <path id="arrow"
     d="M 11.500037,31.436501 C 11.940474,20.09759 22.043105,11.32322 32.158766,21.979434 L 37.068811,17.246167 C 37.068811,17.246167 37.088388,32 37.088388,32 L 22.160133,31.978069 C 22.160133,31.978069 26.997745,27.140456 26.997745,27.140456 C 18.528582,18.264221 13.291696,25.230495 11.500037,31.436501 z"
     style="fill:#404040;"/>
  </a>
 </g>
</svg>

<style type='text/css'>
<![CDATA[
[data-mouse-over-selected='false'] { opacity: 0.7; }
[data-mouse-over-selected='true']  { opacity: 1.0; }
]]>
</style>
<script type="application/ecmascript"><![CDATA[
document.addEventListener('DOMContentLoaded', (event) => {
  highlightEdges();
  highlightAdjacentNodes();
});
]]></script>
</svg>
