<?xml version="1.0" encoding="UTF-8" standalone="no"?>
<!DOCTYPE svg PUBLIC "-//W3C//DTD SVG 1.1//EN"
 "http://www.w3.org/Graphics/SVG/1.1/DTD/svg11.dtd">
<!-- Generated by graphviz version 2.43.0 (0)
 -->
<!-- Title: loop Pages: 1 -->
<svg width="295pt" height="362pt"
 viewBox="0.00 0.00 295.00 362.00" xmlns="http://www.w3.org/2000/svg" xmlns:xlink="http://www.w3.org/1999/xlink">

<svg id="main" version="1.1" xmlns="http://www.w3.org/2000/svg" xmlns:xlink="http://www.w3.org/1999/xlink" xml:space="preserve">

<style type="text/css"><![CDATA[
.node, .edge {opacity: 0.7;}
.node.selected, .edge.selected {opacity: 1;}
.edge:hover path { stroke: red; }
.edge:hover polygon { stroke: red; fill: red; }
]]></style>
<script type="application/ecmascript" xlink:href="../../svg.min.js"/>
<svg id="graph" class="graph">
<g id="graph0" class="graph" transform="scale(1 1) rotate(0) translate(4 358)">
<title>loop</title>
<!-- Node1 -->
<g id="Node000001" class="node">
<title>Node1</title>
<g id="a_Node000001"><a xlink:title=" ">
<polygon fill="#999999" stroke="#666666" points="38,-187 0,-187 0,-168 38,-168 38,-187"/>
<text text-anchor="middle" x="19" y="-175" font-family="Helvetica,sans-Serif" font-size="10.00">loop</text>
</a>
</g>
</g>
<!-- Node2 -->
<g id="Node000002" class="node">
<title>Node2</title>
<g id="a_Node000002"><a xlink:href="../../d5/d94/_wave2d_8h_a0e5aae22e215ee9525204ca21e7201b9.html#a0e5aae22e215ee9525204ca21e7201b9" target="_top" xlink:title=" ">
<polygon fill="white" stroke="#666666" points="158,-354 87,-354 87,-335 158,-335 158,-354"/>
<text text-anchor="middle" x="122.5" y="-342" font-family="Helvetica,sans-Serif" font-size="10.00">autoTrigger</text>
</a>
</g>
</g>
<!-- Node1&#45;&gt;Node2 -->
<g id="edge1_Node000001_Node000002" class="edge">
<title>Node1&#45;&gt;Node2</title>
<g id="a_edge1_Node000001_Node000002"><a xlink:title=" ">
<path fill="none" stroke="#63b8ff" d="M20.78,-187.33C23.39,-213.55 34.02,-285.94 74,-326.5 75.23,-327.75 76.56,-328.92 77.97,-330"/>
<polygon fill="#63b8ff" stroke="#63b8ff" points="76.31,-333.1 86.65,-335.39 80,-327.15 76.31,-333.1"/>
</a>
</g>
</g>
<!-- Node3 -->
<g id="Node000003" class="node">
<title>Node3</title>
<g id="a_Node000003"><a xlink:href="../../d7/da1/old_8h_a27aa0b8d93d6d43df1c3402debc4cdb8.html#a27aa0b8d93d6d43df1c3402debc4cdb8" target="_top" xlink:title=" ">
<polygon fill="white" stroke="#666666" points="146.5,-317 98.5,-317 98.5,-298 146.5,-298 146.5,-317"/>
<text text-anchor="middle" x="122.5" y="-305" font-family="Helvetica,sans-Serif" font-size="10.00">button</text>
</a>
</g>
</g>
<!-- Node1&#45;&gt;Node3 -->
<g id="edge2_Node000001_Node000003" class="edge">
<title>Node1&#45;&gt;Node3</title>
<g id="a_edge2_Node000001_Node000003"><a xlink:title=" ">
<path fill="none" stroke="#63b8ff" d="M22.05,-187.05C27.12,-208.38 42.17,-260.33 74,-289.5 78.23,-293.37 83.37,-296.44 88.69,-298.86"/>
<polygon fill="#63b8ff" stroke="#63b8ff" points="87.71,-302.23 98.3,-302.55 90.22,-295.7 87.71,-302.23"/>
</a>
</g>
</g>
<!-- Node4 -->
<g id="Node000004" class="node">
<title>Node4</title>
<g id="a_Node000004"><a xlink:href="../../d8/d78/examples_2_wave_2wave_8h_ad4492f55d142b7728a4221681c440b30.html#ad4492f55d142b7728a4221681c440b30" target="_top" xlink:title=" ">
<polygon fill="white" stroke="#666666" points="158,-280 87,-280 87,-261 158,-261 158,-280"/>
<text text-anchor="middle" x="122.5" y="-268" font-family="Helvetica,sans-Serif" font-size="10.00">dampening</text>
</a>
</g>
</g>
<!-- Node1&#45;&gt;Node4 -->
<g id="edge3_Node000001_Node000004" class="edge">
<title>Node1&#45;&gt;Node4</title>
<g id="a_edge3_Node000001_Node000004"><a xlink:title=" ">
<path fill="none" stroke="#63b8ff" d="M24.59,-187.18C32.55,-202.97 50.32,-234.33 74,-252.5 75.76,-253.85 77.64,-255.11 79.59,-256.29"/>
<polygon fill="#63b8ff" stroke="#63b8ff" points="77.99,-259.4 88.48,-260.89 81.21,-253.19 77.99,-259.4"/>
</a>
</g>
</g>
<!-- Node5 -->
<g id="Node000005" class="node">
<title>Node5</title>
<g id="a_Node000005"><a xlink:href="../../d5/d94/_wave2d_8h_ae7b6cef8ead35f1e5f23eb0187801156.html#ae7b6cef8ead35f1e5f23eb0187801156" target="_top" xlink:title=" ">
<polygon fill="white" stroke="#666666" points="171,-243 74,-243 74,-224 171,-224 171,-243"/>
<text text-anchor="middle" x="122.5" y="-231" font-family="Helvetica,sans-Serif" font-size="10.00">getSuperSample</text>
</a>
</g>
</g>
<!-- Node1&#45;&gt;Node5 -->
<g id="edge4_Node000001_Node000005" class="edge">
<title>Node1&#45;&gt;Node5</title>
<g id="a_edge4_Node000001_Node000005"><a xlink:title=" ">
<path fill="none" stroke="#63b8ff" d="M31.87,-187.18C42.46,-195.47 58.61,-207.33 74,-215.5 77.05,-217.12 80.28,-218.66 83.57,-220.12"/>
<polygon fill="#63b8ff" stroke="#63b8ff" points="82.28,-223.37 92.86,-223.98 84.96,-216.91 82.28,-223.37"/>
</a>
</g>
</g>
<!-- Node7 -->
<g id="Node000007" class="node">
<title>Node7</title>
<g id="a_Node000007"><a xlink:href="../../d8/d78/examples_2_wave_2wave_8h_a1f19bc50cf6a9106b308933175a0423b.html#a1f19bc50cf6a9106b308933175a0423b" target="_top" xlink:title=" ">
<polygon fill="white" stroke="#666666" points="157.5,-206 87.5,-206 87.5,-187 157.5,-187 157.5,-206"/>
<text text-anchor="middle" x="122.5" y="-194" font-family="Helvetica,sans-Serif" font-size="10.00">halfDuplex</text>
</a>
</g>
</g>
<!-- Node1&#45;&gt;Node7 -->
<g id="edge6_Node000001_Node000007" class="edge">
<title>Node1&#45;&gt;Node7</title>
<g id="a_edge6_Node000001_Node000007"><a xlink:title=" ">
<path fill="none" stroke="#63b8ff" d="M38.15,-180.9C49.07,-182.94 63.48,-185.64 77.25,-188.22"/>
<polygon fill="#63b8ff" stroke="#63b8ff" points="76.62,-191.66 87.09,-190.06 77.91,-184.78 76.62,-191.66"/>
</a>
</g>
</g>
<!-- Node8 -->
<g id="Node000008" class="node">
<title>Node8</title>
<g id="a_Node000008"><a xlink:href="../../d6/d1a/examples_2_downscale_2downscale_8h_aaed1fe34c3d233ba3f15ba6070c35243.html#aaed1fe34c3d233ba3f15ba6070c35243" target="_top" xlink:title=" ">
<polygon fill="white" stroke="#666666" points="168.5,-169 76.5,-169 76.5,-150 168.5,-150 168.5,-169"/>
<text text-anchor="middle" x="122.5" y="-157" font-family="Helvetica,sans-Serif" font-size="10.00">isotropicStencil</text>
</a>
</g>
</g>
<!-- Node1&#45;&gt;Node8 -->
<g id="edge7_Node000001_Node000008" class="edge">
<title>Node1&#45;&gt;Node8</title>
<g id="a_edge7_Node000001_Node000008"><a xlink:title=" ">
<path fill="none" stroke="#63b8ff" d="M38.15,-174.28C46.27,-172.84 56.33,-171.06 66.61,-169.23"/>
<polygon fill="#63b8ff" stroke="#63b8ff" points="67.25,-172.68 76.49,-167.48 66.03,-165.78 67.25,-172.68"/>
</a>
</g>
</g>
<!-- Node9 -->
<g id="Node000009" class="node">
<title>Node9</title>
<g id="a_Node000009"><a xlink:href="../../d8/d78/examples_2_wave_2wave_8h_a39b55aa940034f3984cb60571091f474.html#a39b55aa940034f3984cb60571091f474" target="_top" xlink:title=" ">
<polygon fill="white" stroke="#666666" points="144.5,-132 100.5,-132 100.5,-113 144.5,-113 144.5,-132"/>
<text text-anchor="middle" x="122.5" y="-120" font-family="Helvetica,sans-Serif" font-size="10.00">slider</text>
</a>
</g>
</g>
<!-- Node1&#45;&gt;Node9 -->
<g id="edge8_Node000001_Node000009" class="edge">
<title>Node1&#45;&gt;Node9</title>
<g id="a_edge8_Node000001_Node000009"><a xlink:title=" ">
<path fill="none" stroke="#63b8ff" d="M32.84,-167.83C43.5,-160.08 59.24,-149.26 74,-141.5 79.34,-138.69 85.19,-136.04 90.9,-133.65"/>
<polygon fill="#63b8ff" stroke="#63b8ff" points="92.28,-136.87 100.27,-129.91 89.68,-130.37 92.28,-136.87"/>
</a>
</g>
</g>
<!-- Node10 -->
<g id="Node000010" class="node">
<title>Node10</title>
<g id="a_Node000010"><a xlink:href="../../d5/d94/_wave2d_8h_af529816ccc3636ce2784f04170fe856b.html#af529816ccc3636ce2784f04170fe856b" target="_top" xlink:title=" ">
<polygon fill="white" stroke="#666666" points="162.5,-95 82.5,-95 82.5,-76 162.5,-76 162.5,-95"/>
<text text-anchor="middle" x="122.5" y="-83" font-family="Helvetica,sans-Serif" font-size="10.00">triggerRipple</text>
</a>
</g>
</g>
<!-- Node1&#45;&gt;Node10 -->
<g id="edge9_Node000001_Node000010" class="edge">
<title>Node1&#45;&gt;Node10</title>
<g id="a_edge9_Node000001_Node000010"><a xlink:title=" ">
<path fill="none" stroke="#63b8ff" d="M24.96,-167.63C33.19,-152.18 51.04,-122.22 74,-104.5 76.31,-102.72 78.8,-101.08 81.4,-99.58"/>
<polygon fill="#63b8ff" stroke="#63b8ff" points="83.15,-102.62 90.51,-95 80,-96.37 83.15,-102.62"/>
</a>
</g>
</g>
<!-- Node11 -->
<g id="Node000011" class="node">
<title>Node11</title>
<g id="a_Node000011"><a xlink:href="../../d8/d78/examples_2_wave_2wave_8h_a2f7384c6694b02c64c672b7bfe08e968.html#a2f7384c6694b02c64c672b7bfe08e968" target="_top" xlink:title=" ">
<polygon fill="white" stroke="#666666" points="278,-76 216,-76 216,-57 278,-57 278,-76"/>
<text text-anchor="middle" x="247" y="-64" font-family="Helvetica,sans-Serif" font-size="10.00">waveSim</text>
</a>
</g>
</g>
<!-- Node1&#45;&gt;Node11 -->
<g id="edge11_Node000001_Node000011" class="edge">
<title>Node1&#45;&gt;Node11</title>
<g id="a_edge11_Node000001_Node000011"><a xlink:title=" ">
<path fill="none" stroke="#63b8ff" d="M21.3,-167.83C24.9,-145.3 37.3,-89.46 74,-66.5 113.45,-41.82 168.62,-47.19 205.74,-55.17"/>
<polygon fill="#63b8ff" stroke="#63b8ff" points="205.17,-58.63 215.7,-57.46 206.74,-51.81 205.17,-58.63"/>
</a>
</g>
</g>
<!-- Node12 -->
<g id="Node000012" class="node">
<title>Node12</title>
<g id="a_Node000012"><a xlink:href="../../d5/d94/_wave2d_8h_adb3d287c55ebd86bc1ecd0e07de674d0.html#adb3d287c55ebd86bc1ecd0e07de674d0" target="_top" xlink:title=" ">
<polygon fill="white" stroke="#666666" points="153,-19 92,-19 92,0 153,0 153,-19"/>
<text text-anchor="middle" x="122.5" y="-7" font-family="Helvetica,sans-Serif" font-size="10.00">xCyclical</text>
</a>
</g>
</g>
<!-- Node1&#45;&gt;Node12 -->
<g id="edge12_Node000001_Node000012" class="edge">
<title>Node1&#45;&gt;Node12</title>
<g id="a_edge12_Node000001_Node000012"><a xlink:title=" ">
<path fill="none" stroke="#63b8ff" d="M21.17,-167.85C24.69,-142.74 37.29,-74.45 74,-33.5 77.22,-29.91 81.11,-26.78 85.25,-24.08"/>
<polygon fill="#63b8ff" stroke="#63b8ff" points="87.02,-27.1 93.99,-19.12 83.57,-21.01 87.02,-27.1"/>
</a>
</g>
</g>
<!-- Node6 -->
<g id="Node000006" class="node">
<title>Node6</title>
<g id="a_Node000006"><a xlink:href="../../d8/d78/examples_2_wave_2wave_8h_a75a5cc9c11e7a355e665460a0cfb6c42.html#a75a5cc9c11e7a355e665460a0cfb6c42" target="_top" xlink:title=" ">
<polygon fill="white" stroke="#666666" points="287,-243 207,-243 207,-224 287,-224 287,-243"/>
<text text-anchor="middle" x="247" y="-231" font-family="Helvetica,sans-Serif" font-size="10.00">superSample</text>
</a>
</g>
</g>
<!-- Node5&#45;&gt;Node6 -->
<g id="edge5_Node000005_Node000006" class="edge">
<title>Node5&#45;&gt;Node6</title>
<g id="a_edge5_Node000005_Node000006"><a xlink:title=" ">
<path fill="none" stroke="#63b8ff" d="M171.21,-233.5C179.62,-233.5 188.38,-233.5 196.83,-233.5"/>
<polygon fill="#63b8ff" stroke="#63b8ff" points="196.92,-237 206.92,-233.5 196.92,-230 196.92,-237"/>
</a>
</g>
</g>
<!-- Node10&#45;&gt;Node11 -->
<g id="edge10_Node000010_Node000011" class="edge">
<title>Node10&#45;&gt;Node11</title>
<g id="a_edge10_Node000010_Node000011"><a xlink:title=" ">
<path fill="none" stroke="#63b8ff" d="M162.6,-79.44C176.32,-77.31 191.76,-74.91 205.6,-72.77"/>
<polygon fill="#63b8ff" stroke="#63b8ff" points="206.46,-76.17 215.8,-71.18 205.39,-69.26 206.46,-76.17"/>
</a>
</g>
</g>
</g>
</svg>
</svg>

<style type='text/css'>
<![CDATA[
[data-mouse-over-selected='false'] { opacity: 0.7; }
[data-mouse-over-selected='true']  { opacity: 1.0; }
]]>
</style>
<script type="application/ecmascript"><![CDATA[
document.addEventListener('DOMContentLoaded', (event) => {
  highlightEdges();
  highlightAdjacentNodes();
});
]]></script>
</svg>
