<?xml version="1.0" encoding="UTF-8" standalone="no"?>
<!DOCTYPE svg PUBLIC "-//W3C//DTD SVG 1.1//EN"
 "http://www.w3.org/Graphics/SVG/1.1/DTD/svg11.dtd">
<!-- Generated by graphviz version 2.43.0 (0)
 -->
<!-- Title: autoTrigger Pages: 1 -->
<svg width="204pt" height="64pt"
 viewBox="0.00 0.00 204.00 64.00" xmlns="http://www.w3.org/2000/svg" xmlns:xlink="http://www.w3.org/1999/xlink">
<g id="graph0" class="graph" transform="scale(1 1) rotate(0) translate(4 60)">
<title>autoTrigger</title>
<!-- Node1 -->
<g id="Node000001" class="node">
<title>Node1</title>
<g id="a_Node000001"><a xlink:title=" ">
<polygon fill="#999999" stroke="#666666" points="196,-37 125,-37 125,-18 196,-18 196,-37"/>
<text text-anchor="middle" x="160.5" y="-25" font-family="Helvetica,sans-Serif" font-size="10.00">autoTrigger</text>
</a>
</g>
</g>
<!-- Node2 -->
<g id="Node000002" class="node">
<title>Node2</title>
<g id="a_Node000002"><a xlink:href="../../d5/d94/_wave2d_8h_afe461d27b9c48d5921c00d521181f12f.html#afe461d27b9c48d5921c00d521181f12f" target="_top" xlink:title=" ">
<polygon fill="white" stroke="#666666" points="63.5,-56 25.5,-56 25.5,-37 63.5,-37 63.5,-56"/>
<text text-anchor="middle" x="44.5" y="-44" font-family="Helvetica,sans-Serif" font-size="10.00">loop</text>
</a>
</g>
</g>
<!-- Node1&#45;&gt;Node2 -->
<g id="edge1_Node000001_Node000002" class="edge">
<title>Node1&#45;&gt;Node2</title>
<g id="a_edge1_Node000001_Node000002"><a xlink:title=" ">
<path fill="none" stroke="#63b8ff" d="M114.75,-34.96C96.93,-37.93 77.44,-41.18 63.69,-43.47"/>
<polygon fill="#63b8ff" stroke="#63b8ff" points="115.7,-38.35 124.99,-33.25 114.55,-31.44 115.7,-38.35"/>
</a>
</g>
</g>
<!-- Node3 -->
<g id="Node000003" class="node">
<title>Node3</title>
<g id="a_Node000003"><a xlink:href="../../d5/d94/_wave2d_8h_ae06edcfdcb1fee8bdaffd23b472b1cbb.html#ae06edcfdcb1fee8bdaffd23b472b1cbb" target="_top" xlink:title=" ">
<polygon fill="white" stroke="#666666" points="89,-19 0,-19 0,0 89,0 89,-19"/>
<text text-anchor="middle" x="44.5" y="-7" font-family="Helvetica,sans-Serif" font-size="10.00">triggerControls</text>
</a>
</g>
</g>
<!-- Node1&#45;&gt;Node3 -->
<g id="edge2_Node000001_Node000003" class="edge">
<title>Node1&#45;&gt;Node3</title>
<g id="a_edge2_Node000001_Node000003"><a xlink:title=" ">
<path fill="none" stroke="#63b8ff" d="M114.92,-20.46C106.46,-19.13 97.62,-17.73 89.19,-16.4"/>
<polygon fill="#63b8ff" stroke="#63b8ff" points="114.56,-23.95 124.99,-22.05 115.66,-17.03 114.56,-23.95"/>
</a>
</g>
</g>
</g>
</svg>
