<?xml version="1.0" encoding="UTF-8" standalone="no"?>
<!DOCTYPE svg PUBLIC "-//W3C//DTD SVG 1.1//EN"
 "http://www.w3.org/Graphics/SVG/1.1/DTD/svg11.dtd">
<!-- Generated by graphviz version 2.43.0 (0)
 -->
<!-- Title: rgb2hsv_approximate Pages: 1 -->
<svg width="215pt" height="138pt"
 viewBox="0.00 0.00 215.00 138.00" xmlns="http://www.w3.org/2000/svg" xmlns:xlink="http://www.w3.org/1999/xlink">
<g id="graph0" class="graph" transform="scale(1 1) rotate(0) translate(4 134)">
<title>rgb2hsv_approximate</title>
<!-- Node1 -->
<g id="Node000001" class="node">
<title>Node1</title>
<g id="a_Node000001"><a xlink:title="Recover approximate HSV values from RGB.">
<polygon fill="#999999" stroke="#666666" points="123,-74 0,-74 0,-55 123,-55 123,-74"/>
<text text-anchor="middle" x="61.5" y="-62" font-family="Helvetica,sans-Serif" font-size="10.00">rgb2hsv_approximate</text>
</a>
</g>
</g>
<!-- Node2 -->
<g id="Node000002" class="node">
<title>Node2</title>
<g id="a_Node000002"><a xlink:href="../../d5/d98/group___math_ga07133b3085824d0fcd4f5086d286c4b5.html#ga07133b3085824d0fcd4f5086d286c4b5" target="_top" xlink:title="Add one byte to another, saturating at 0xFF.">
<polygon fill="white" stroke="#666666" points="206.5,-130 159.5,-130 159.5,-111 206.5,-111 206.5,-130"/>
<text text-anchor="middle" x="183" y="-118" font-family="Helvetica,sans-Serif" font-size="10.00">qadd8</text>
</a>
</g>
</g>
<!-- Node1&#45;&gt;Node2 -->
<g id="edge1_Node000001_Node000002" class="edge">
<title>Node1&#45;&gt;Node2</title>
<g id="a_edge1_Node000001_Node000002"><a xlink:title=" ">
<path fill="none" stroke="#63b8ff" d="M83.04,-74.13C102.23,-83.12 131.06,-96.63 152.66,-106.75"/>
<polygon fill="#63b8ff" stroke="#63b8ff" points="151.19,-109.92 161.73,-111 154.16,-103.59 151.19,-109.92"/>
</a>
</g>
</g>
<!-- Node3 -->
<g id="Node000003" class="node">
<title>Node3</title>
<g id="a_Node000003"><a xlink:href="../../d5/d98/group___math_gae261576a4c8155d6c0ba8615b2d2ecb3.html#gae261576a4c8155d6c0ba8615b2d2ecb3" target="_top" xlink:title="Subtract one byte from another, saturating at 0x00.">
<polygon fill="white" stroke="#666666" points="206,-93 160,-93 160,-74 206,-74 206,-93"/>
<text text-anchor="middle" x="183" y="-81" font-family="Helvetica,sans-Serif" font-size="10.00">qsub8</text>
</a>
</g>
</g>
<!-- Node1&#45;&gt;Node3 -->
<g id="edge2_Node000001_Node000003" class="edge">
<title>Node1&#45;&gt;Node3</title>
<g id="a_edge2_Node000001_Node000003"><a xlink:title=" ">
<path fill="none" stroke="#63b8ff" d="M122.6,-74.06C132,-75.55 141.39,-77.04 149.83,-78.39"/>
<polygon fill="#63b8ff" stroke="#63b8ff" points="149.53,-81.88 159.96,-80 150.63,-74.97 149.53,-81.88"/>
</a>
</g>
</g>
<!-- Node4 -->
<g id="Node000004" class="node">
<title>Node4</title>
<g id="a_Node000004"><a xlink:href="../../d0/da8/group___scaling_gad7535ccda9c92470c4e6ee0265585555.html#gad7535ccda9c92470c4e6ee0265585555" target="_top" xlink:title="Scale one byte by a second one, which is treated as the numerator of a fraction whose denominator is ...">
<polygon fill="white" stroke="#666666" points="207,-56 159,-56 159,-37 207,-37 207,-56"/>
<text text-anchor="middle" x="183" y="-44" font-family="Helvetica,sans-Serif" font-size="10.00">scale8</text>
</a>
</g>
</g>
<!-- Node1&#45;&gt;Node4 -->
<g id="edge3_Node000001_Node000004" class="edge">
<title>Node1&#45;&gt;Node4</title>
<g id="a_edge3_Node000001_Node000004"><a xlink:title=" ">
<path fill="none" stroke="#63b8ff" d="M123.3,-55.34C132.12,-54.01 140.91,-52.69 148.9,-51.49"/>
<polygon fill="#63b8ff" stroke="#63b8ff" points="149.51,-54.93 158.88,-49.98 148.47,-48.01 149.51,-54.93"/>
</a>
</g>
</g>
<!-- Node5 -->
<g id="Node000005" class="node">
<title>Node5</title>
<g id="a_Node000005"><a xlink:href="../../d5/d98/group___math_ga66ecef97faa5f9b92c49766651c5afe9.html#ga66ecef97faa5f9b92c49766651c5afe9" target="_top" xlink:title="Square root for 16&#45;bit integers.">
<polygon fill="white" stroke="#666666" points="206.5,-19 159.5,-19 159.5,0 206.5,0 206.5,-19"/>
<text text-anchor="middle" x="183" y="-7" font-family="Helvetica,sans-Serif" font-size="10.00">sqrt16</text>
</a>
</g>
</g>
<!-- Node1&#45;&gt;Node5 -->
<g id="edge4_Node000001_Node000005" class="edge">
<title>Node1&#45;&gt;Node5</title>
<g id="a_edge4_Node000001_Node000005"><a xlink:title=" ">
<path fill="none" stroke="#63b8ff" d="M83.32,-54.92C102.22,-46.22 130.33,-33.28 151.72,-23.43"/>
<polygon fill="#63b8ff" stroke="#63b8ff" points="153.4,-26.52 161.02,-19.16 150.47,-20.16 153.4,-26.52"/>
</a>
</g>
</g>
</g>
</svg>
