<?xml version="1.0" encoding="UTF-8" standalone="no"?>
<!DOCTYPE svg PUBLIC "-//W3C//DTD SVG 1.1//EN"
 "http://www.w3.org/Graphics/SVG/1.1/DTD/svg11.dtd">
<!-- Generated by graphviz version 2.43.0 (0)
 -->
<!-- Title: fl::audio::SampleImpl::initRms Pages: 1 -->
<svg width="516pt" height="38pt"
 viewBox="0.00 0.00 516.00 38.00" xmlns="http://www.w3.org/2000/svg" xmlns:xlink="http://www.w3.org/1999/xlink">
<g id="graph0" class="graph" transform="scale(1 1) rotate(0) translate(4 34)">
<title>fl::audio::SampleImpl::initRms</title>
<!-- Node1 -->
<g id="Node000001" class="node">
<title>Node1</title>
<g id="a_Node000001"><a xlink:title=" ">
<polygon fill="#999999" stroke="#666666" points="120,-30 0,-30 0,0 120,0 120,-30"/>
<text text-anchor="start" x="8" y="-18" font-family="Helvetica,sans-Serif" font-size="10.00">fl::audio::SampleImpl</text>
<text text-anchor="middle" x="60" y="-7" font-family="Helvetica,sans-Serif" font-size="10.00">::initRms</text>
</a>
</g>
</g>
<!-- Node2 -->
<g id="Node000002" class="node">
<title>Node2</title>
<g id="a_Node000002"><a xlink:href="../../d4/d36/namespacefl_a0b5da884257d0f4003ead08f27915a2b.html#a0b5da884257d0f4003ead08f27915a2b" target="_top" xlink:title=" ">
<polygon fill="white" stroke="#666666" points="207,-24.5 156,-24.5 156,-5.5 207,-5.5 207,-24.5"/>
<text text-anchor="middle" x="181.5" y="-12.5" font-family="Helvetica,sans-Serif" font-size="10.00">fl::sqrtf</text>
</a>
</g>
</g>
<!-- Node1&#45;&gt;Node2 -->
<g id="edge1_Node000001_Node000002" class="edge">
<title>Node1&#45;&gt;Node2</title>
<g id="a_edge1_Node000001_Node000002"><a xlink:title=" ">
<path fill="none" stroke="#63b8ff" d="M120.05,-15C128.88,-15 137.73,-15 145.83,-15"/>
<polygon fill="#63b8ff" stroke="#63b8ff" points="145.98,-18.5 155.98,-15 145.98,-11.5 145.98,-18.5"/>
</a>
</g>
</g>
<!-- Node3 -->
<g id="Node000003" class="node">
<title>Node3</title>
<g id="a_Node000003"><a xlink:href="../../d4/d36/namespacefl_aaa77b1626998d6dc47d0e3245b1a3e4a.html#aaa77b1626998d6dc47d0e3245b1a3e4a" target="_top" xlink:title=" ">
<polygon fill="white" stroke="#666666" points="344,-24.5 243,-24.5 243,-5.5 344,-5.5 344,-24.5"/>
<text text-anchor="middle" x="293.5" y="-12.5" font-family="Helvetica,sans-Serif" font-size="10.00">fl::sqrt_impl_float</text>
</a>
</g>
</g>
<!-- Node2&#45;&gt;Node3 -->
<g id="edge2_Node000002_Node000003" class="edge">
<title>Node2&#45;&gt;Node3</title>
<g id="a_edge2_Node000002_Node000003"><a xlink:title=" ">
<path fill="none" stroke="#63b8ff" d="M207.19,-15C214.83,-15 223.6,-15 232.55,-15"/>
<polygon fill="#63b8ff" stroke="#63b8ff" points="232.68,-18.5 242.68,-15 232.68,-11.5 232.68,-18.5"/>
</a>
</g>
</g>
<!-- Node4 -->
<g id="Node000004" class="node">
<title>Node4</title>
<g id="a_Node000004"><a xlink:href="../../df/d9e/namespacefl_1_1detail_af564e0d482e4925c603cb299c623c312.html#af564e0d482e4925c603cb299c623c312" target="_top" xlink:title=" ">
<polygon fill="white" stroke="#666666" points="508,-24.5 380,-24.5 380,-5.5 508,-5.5 508,-24.5"/>
<text text-anchor="middle" x="444" y="-12.5" font-family="Helvetica,sans-Serif" font-size="10.00">fl::detail::sqrt_newton_</text>
</a>
</g>
</g>
<!-- Node3&#45;&gt;Node4 -->
<g id="edge3_Node000003_Node000004" class="edge">
<title>Node3&#45;&gt;Node4</title>
<g id="a_edge3_Node000003_Node000004"><a xlink:title=" ">
<path fill="none" stroke="#63b8ff" d="M344.36,-15C352.54,-15 361.16,-15 369.76,-15"/>
<polygon fill="#63b8ff" stroke="#63b8ff" points="369.82,-18.5 379.82,-15 369.82,-11.5 369.82,-18.5"/>
</a>
</g>
</g>
</g>
</svg>
