<?xml version="1.0" encoding="UTF-8" standalone="no"?>
<!DOCTYPE svg PUBLIC "-//W3C//DTD SVG 1.1//EN"
 "http://www.w3.org/Graphics/SVG/1.1/DTD/svg11.dtd">
<!-- Generated by graphviz version 2.43.0 (0)
 -->
<!-- Title: fl::LUT::getDataMutable Pages: 1 -->
<!--zoomable 239 -->

<svg id="main" version="1.1" xmlns="http://www.w3.org/2000/svg" xmlns:xlink="http://www.w3.org/1999/xlink" xml:space="preserve" onload="init(evt)">

<style type="text/css"><![CDATA[
.node, .edge {opacity: 0.7;}
.node.selected, .edge.selected {opacity: 1;}
.edge:hover path { stroke: red; }
.edge:hover polygon { stroke: red; fill: red; }
]]></style>

<defs>
  <circle id="rim" cx="0" cy="0" r="7"/>
  <circle id="rim2" cx="0" cy="0" r="3.5"/>
  <g id="zoomPlus">
    <use xlink:href="#rim" fill="#404040"><set attributeName="fill" to="#808080" begin="zoomplus.mouseover" end="zoomplus.mouseout"/></use>
    <path d="M-4,0h8M0,-4v8" fill="none" stroke="white" stroke-width="1.5" pointer-events="none"/>
  </g>
  <g id="zoomMin">
    <use xlink:href="#rim" fill="#404040"><set attributeName="fill" to="#808080" begin="zoomminus.mouseover" end="zoomminus.mouseout"/></use>
    <path d="M-4,0h8" fill="none" stroke="white" stroke-width="1.5" pointer-events="none"/>
  </g>
  <g id="arrowUp" transform="translate(30 24)">
    <use xlink:href="#rim"/>
    <path pointer-events="none" fill="none" stroke="white" stroke-width="1.5" d="M0,-3.0v7 M-2.5,-0.5L0,-3.0L2.5,-0.5"/>
  </g>
  <g id="arrowRight" transform="rotate(90) translate(36 -43)">
    <use xlink:href="#rim"/>
    <path pointer-events="none" fill="none" stroke="white" stroke-width="1.5" d="M0,-3.0v7 M-2.5,-0.5L0,-3.0L2.5,-0.5"/>
  </g>
  <g id="arrowDown" transform="rotate(180) translate(-30 -48)">
    <use xlink:href="#rim"/>
    <path pointer-events="none" fill="none" stroke="white" stroke-width="1.5" d="M0,-3.0v7 M-2.5,-0.5L0,-3.0L2.5,-0.5"/>
  </g>
  <g id="arrowLeft" transform="rotate(270) translate(-36 17)">
    <use xlink:href="#rim"/>
    <path pointer-events="none" fill="none" stroke="white" stroke-width="1.5" d="M0,-3.0v7 M-2.5,-0.5L0,-3.0L2.5,-0.5"/>
  </g>
  <g id="resetDef">
    <use xlink:href="#rim2" fill="#404040"><set attributeName="fill" to="#808080" begin="reset.mouseover" end="reset.mouseout"/></use>
  </g>
</defs>
<script type="application/ecmascript">
var viewWidth = 695;
var viewHeight = 239;
var sectionId = 'dynsection-0';
</script>
<script type="application/ecmascript" xlink:href="../../svg.min.js"/>
<svg id="graph" class="graph">
<g id="viewport">
<title>fl::LUT::getDataMutable</title>
<!-- Node1 -->
<g id="Node000001" class="node">
<title>Node1</title>
<g id="a_Node000001"><a xlink:title=" ">
<polygon fill="#999999" stroke="#666666" points="687,-157 556,-157 556,-138 687,-138 687,-157"/>
<text text-anchor="middle" x="621.5" y="-145" font-family="Helvetica,sans-Serif" font-size="10.00">fl::LUT::getDataMutable</text>
</a>
</g>
</g>
<!-- Node2 -->
<g id="Node000002" class="node">
<title>Node2</title>
<g id="a_Node000002"><a xlink:href="../../d2/d78/classfl_1_1_screen_map_a7a2bc20a3c077b2e64df1e1e453ea332.html#a7a2bc20a3c077b2e64df1e1e453ea332" target="_top" xlink:title=" ">
<polygon fill="white" stroke="#666666" points="520,-231 377,-231 377,-212 520,-212 520,-231"/>
<text text-anchor="middle" x="448.5" y="-219" font-family="Helvetica,sans-Serif" font-size="10.00">fl::ScreenMap::ScreenMap</text>
</a>
</g>
</g>
<!-- Node1&#45;&gt;Node2 -->
<g id="edge1_Node000001_Node000002" class="edge">
<title>Node1&#45;&gt;Node2</title>
<g id="a_edge1_Node000001_Node000002"><a xlink:title=" ">
<path fill="none" stroke="#63b8ff" d="M597.48,-162.6C577.64,-175.04 547.87,-192.39 520,-203.5 511.79,-206.77 502.79,-209.6 494.06,-211.98"/>
<polygon fill="#63b8ff" stroke="#63b8ff" points="599.56,-165.42 606.11,-157.1 595.79,-159.52 599.56,-165.42"/>
</a>
</g>
</g>
<!-- Node3 -->
<g id="Node000003" class="node">
<title>Node3</title>
<g id="a_Node000003"><a xlink:href="../../d2/d78/classfl_1_1_screen_map_aa69b09353d69748f11ecc49ffc81769b.html#aa69b09353d69748f11ecc49ffc81769b" target="_top" xlink:title=" ">
<polygon fill="white" stroke="#666666" points="520,-194 377,-194 377,-175 520,-175 520,-194"/>
<text text-anchor="middle" x="448.5" y="-182" font-family="Helvetica,sans-Serif" font-size="10.00">fl::ScreenMap::ScreenMap</text>
</a>
</g>
</g>
<!-- Node1&#45;&gt;Node3 -->
<g id="edge2_Node000001_Node000003" class="edge">
<title>Node1&#45;&gt;Node3</title>
<g id="a_edge2_Node000001_Node000003"><a xlink:title=" ">
<path fill="none" stroke="#63b8ff" d="M566.65,-159.15C543.16,-164.23 515.96,-170.12 493.68,-174.94"/>
<polygon fill="#63b8ff" stroke="#63b8ff" points="567.43,-162.56 576.46,-157.03 565.95,-155.72 567.43,-162.56"/>
</a>
</g>
</g>
<!-- Node4 -->
<g id="Node000004" class="node">
<title>Node4</title>
<g id="a_Node000004"><a xlink:href="../../d2/d78/classfl_1_1_screen_map_acdd1f6476a583ced7a15c184f5696992.html#acdd1f6476a583ced7a15c184f5696992" target="_top" xlink:title=" ">
<polygon fill="white" stroke="#666666" points="518.5,-157 378.5,-157 378.5,-138 518.5,-138 518.5,-157"/>
<text text-anchor="middle" x="448.5" y="-145" font-family="Helvetica,sans-Serif" font-size="10.00">fl::ScreenMap::getBounds</text>
</a>
</g>
</g>
<!-- Node1&#45;&gt;Node4 -->
<g id="edge3_Node000001_Node000004" class="edge">
<title>Node1&#45;&gt;Node4</title>
<g id="a_edge3_Node000001_Node000004"><a xlink:title=" ">
<path fill="none" stroke="#63b8ff" d="M545.73,-147.5C536.68,-147.5 527.48,-147.5 518.52,-147.5"/>
<polygon fill="#63b8ff" stroke="#63b8ff" points="545.85,-151 555.85,-147.5 545.85,-144 545.85,-151"/>
</a>
</g>
</g>
<!-- Node5 -->
<g id="Node000005" class="node">
<title>Node5</title>
<g id="a_Node000005"><a xlink:href="../../d2/d78/classfl_1_1_screen_map_adcd1c9b1f67f3f75a6c9634208c8ed38.html#adcd1c9b1f67f3f75a6c9634208c8ed38" target="_top" xlink:title=" ">
<polygon fill="white" stroke="#666666" points="517,-120 380,-120 380,-101 517,-101 517,-120"/>
<text text-anchor="middle" x="448.5" y="-108" font-family="Helvetica,sans-Serif" font-size="10.00">fl::ScreenMap::operator[]</text>
</a>
</g>
</g>
<!-- Node1&#45;&gt;Node5 -->
<g id="edge4_Node000001_Node000005" class="edge">
<title>Node1&#45;&gt;Node5</title>
<g id="a_edge4_Node000001_Node000005"><a xlink:title=" ">
<path fill="none" stroke="#63b8ff" d="M566.65,-135.85C543.16,-130.77 515.96,-124.88 493.68,-120.06"/>
<polygon fill="#63b8ff" stroke="#63b8ff" points="565.95,-139.28 576.46,-137.97 567.43,-132.44 565.95,-139.28"/>
</a>
</g>
</g>
<!-- Node6 -->
<g id="Node000006" class="node">
<title>Node6</title>
<g id="a_Node000006"><a xlink:href="../../d2/d78/classfl_1_1_screen_map_a51b18d760799048d6551af6a28f0f1cf.html#a51b18d760799048d6551af6a28f0f1cf" target="_top" xlink:title=" ">
<polygon fill="white" stroke="#666666" points="500.5,-83 396.5,-83 396.5,-64 500.5,-64 500.5,-83"/>
<text text-anchor="middle" x="448.5" y="-71" font-family="Helvetica,sans-Serif" font-size="10.00">fl::ScreenMap::set</text>
</a>
</g>
</g>
<!-- Node1&#45;&gt;Node6 -->
<g id="edge5_Node000001_Node000006" class="edge">
<title>Node1&#45;&gt;Node6</title>
<g id="a_edge5_Node000001_Node000006"><a xlink:title=" ">
<path fill="none" stroke="#63b8ff" d="M597.06,-132.58C577.17,-120.45 547.56,-103.57 520,-92.5 510.94,-88.86 500.96,-85.69 491.42,-83.04"/>
<polygon fill="#63b8ff" stroke="#63b8ff" points="595.38,-135.66 605.73,-137.95 599.07,-129.71 595.38,-135.66"/>
</a>
</g>
</g>
<!-- Node7 -->
<g id="Node000007" class="node">
<title>Node7</title>
<g id="a_Node000007"><a xlink:href="../../d3/d78/namespaceanonymous__namespace_02_led_rope_t_c_l_8cpp_03_a47e8fc2af72127dbc485073a2248dfd2.html#a47e8fc2af72127dbc485073a2248dfd2" target="_top" xlink:title=" ">
<polygon fill="white" stroke="#666666" points="341,-142 206,-142 206,-101 341,-101 341,-142"/>
<text text-anchor="start" x="214" y="-130" font-family="Helvetica,sans-Serif" font-size="10.00">anonymous_namespace</text>
<text text-anchor="start" x="214" y="-119" font-family="Helvetica,sans-Serif" font-size="10.00">{LedRopeTCL::cpp}::init</text>
<text text-anchor="middle" x="273.5" y="-108" font-family="Helvetica,sans-Serif" font-size="10.00">_screenmap</text>
</a>
</g>
</g>
<!-- Node6&#45;&gt;Node7 -->
<g id="edge6_Node000006_Node000007" class="edge">
<title>Node6&#45;&gt;Node7</title>
<g id="a_edge6_Node000006_Node000007"><a xlink:title=" ">
<path fill="none" stroke="#63b8ff" d="M401.74,-85.74C393.5,-87.97 384.99,-90.29 377,-92.5 365.41,-95.7 353.1,-99.15 341.18,-102.5"/>
<polygon fill="#63b8ff" stroke="#63b8ff" points="402.87,-89.06 411.61,-83.08 401.04,-82.31 402.87,-89.06"/>
</a>
</g>
</g>
<!-- Node8 -->
<g id="Node000008" class="node">
<title>Node8</title>
<g id="a_Node000008"><a xlink:href="../../d2/d78/classfl_1_1_screen_map_a00aec6179fcbe0275fe7ca8770540b3c.html#a00aec6179fcbe0275fe7ca8770540b3c" target="_top" xlink:title=" ">
<polygon fill="white" stroke="#666666" points="341,-83 206,-83 206,-64 341,-64 341,-83"/>
<text text-anchor="middle" x="273.5" y="-71" font-family="Helvetica,sans-Serif" font-size="10.00">fl::ScreenMap::ParseJson</text>
</a>
</g>
</g>
<!-- Node6&#45;&gt;Node8 -->
<g id="edge7_Node000006_Node000008" class="edge">
<title>Node6&#45;&gt;Node8</title>
<g id="a_edge7_Node000006_Node000008"><a xlink:title=" ">
<path fill="none" stroke="#63b8ff" d="M385.74,-73.5C371.28,-73.5 355.81,-73.5 341.14,-73.5"/>
<polygon fill="#63b8ff" stroke="#63b8ff" points="386.06,-77 396.06,-73.5 386.06,-70 386.06,-77"/>
</a>
</g>
</g>
<!-- Node12 -->
<g id="Node000012" class="node">
<title>Node12</title>
<g id="a_Node000012"><a xlink:href="../../d0/dce/classfl_1_1_x_y_map_a464acdd5a6ce465a32fba1fda9862fa5.html#a464acdd5a6ce465a32fba1fda9862fa5" target="_top" xlink:title=" ">
<polygon fill="white" stroke="#666666" points="339.5,-37 207.5,-37 207.5,-18 339.5,-18 339.5,-37"/>
<text text-anchor="middle" x="273.5" y="-25" font-family="Helvetica,sans-Serif" font-size="10.00">fl::XYMap::toScreenMap</text>
</a>
</g>
</g>
<!-- Node6&#45;&gt;Node12 -->
<g id="edge11_Node000006_Node000012" class="edge">
<title>Node6&#45;&gt;Node12</title>
<g id="a_edge11_Node000006_Node000012"><a xlink:title=" ">
<path fill="none" stroke="#63b8ff" d="M401.88,-61.37C373.24,-53.76 336.85,-44.08 310.3,-37.02"/>
<polygon fill="#63b8ff" stroke="#63b8ff" points="401.09,-64.78 411.65,-63.97 402.89,-58.02 401.09,-64.78"/>
</a>
</g>
</g>
<!-- Node9 -->
<g id="Node000009" class="node">
<title>Node9</title>
<g id="a_Node000009"><a xlink:href="../../d2/d78/classfl_1_1_screen_map_a514190d17695adf603d1e2bc0eb56c23.html#a514190d17695adf603d1e2bc0eb56c23" target="_top" xlink:title=" ">
<polygon fill="white" stroke="#666666" points="152.5,-130 17.5,-130 17.5,-111 152.5,-111 152.5,-130"/>
<text text-anchor="middle" x="85" y="-118" font-family="Helvetica,sans-Serif" font-size="10.00">fl::ScreenMap::ParseJson</text>
</a>
</g>
</g>
<!-- Node8&#45;&gt;Node9 -->
<g id="edge8_Node000008_Node000009" class="edge">
<title>Node8&#45;&gt;Node9</title>
<g id="a_edge8_Node000008_Node000009"><a xlink:title=" ">
<path fill="none" stroke="#63b8ff" d="M229.3,-85.86C204.08,-93.06 176.04,-101 170,-102.5 158.13,-105.45 145.25,-108.35 133.22,-110.94"/>
<polygon fill="#63b8ff" stroke="#63b8ff" points="230.49,-89.16 239.14,-83.05 228.56,-82.43 230.49,-89.16"/>
</a>
</g>
</g>
<!-- Node10 -->
<g id="Node000010" class="node">
<title>Node10</title>
<g id="a_Node000010"><a xlink:href="../../df/d37/classfl_1_1_file_system_a76449b10863a3dee0631213504e817cc.html#a76449b10863a3dee0631213504e817cc" target="_top" xlink:title=" ">
<polygon fill="white" stroke="#666666" points="167,-93 3,-93 3,-74 167,-74 167,-93"/>
<text text-anchor="middle" x="85" y="-81" font-family="Helvetica,sans-Serif" font-size="10.00">fl::FileSystem::readScreenMap</text>
</a>
</g>
</g>
<!-- Node8&#45;&gt;Node10 -->
<g id="edge9_Node000008_Node000010" class="edge">
<title>Node8&#45;&gt;Node10</title>
<g id="a_edge9_Node000008_Node000010"><a xlink:title=" ">
<path fill="none" stroke="#63b8ff" d="M195.83,-77.61C186.38,-78.12 176.71,-78.64 167.2,-79.15"/>
<polygon fill="#63b8ff" stroke="#63b8ff" points="196.16,-81.1 205.96,-77.07 195.79,-74.11 196.16,-81.1"/>
</a>
</g>
</g>
<!-- Node11 -->
<g id="Node000011" class="node">
<title>Node11</title>
<g id="a_Node000011"><a xlink:href="../../df/d37/classfl_1_1_file_system_a6f25f4c4319520cf79e1251de46d91c3.html#a6f25f4c4319520cf79e1251de46d91c3" target="_top" xlink:title=" ">
<polygon fill="white" stroke="#666666" points="170,-56 0,-56 0,-37 170,-37 170,-56"/>
<text text-anchor="middle" x="85" y="-44" font-family="Helvetica,sans-Serif" font-size="10.00">fl::FileSystem::readScreenMaps</text>
</a>
</g>
</g>
<!-- Node8&#45;&gt;Node11 -->
<g id="edge10_Node000008_Node000011" class="edge">
<title>Node8&#45;&gt;Node11</title>
<g id="a_edge10_Node000008_Node000011"><a xlink:title=" ">
<path fill="none" stroke="#63b8ff" d="M196.58,-62.51C181.73,-60.36 166.27,-58.12 151.79,-56.02"/>
<polygon fill="#63b8ff" stroke="#63b8ff" points="196.35,-66.01 206.75,-63.98 197.35,-59.08 196.35,-66.01"/>
</a>
</g>
</g>
<!-- Node13 -->
<g id="Node000013" class="node">
<title>Node13</title>
<g id="a_Node000013"><a xlink:href="../../d6/d2c/class_c_l_e_d_controller_aec9132a980f2049f3e8acae28c77425a.html#aec9132a980f2049f3e8acae28c77425a" target="_top" xlink:title=" ">
<polygon fill="#fff0f0" stroke="red" points="167.5,-19 2.5,-19 2.5,0 167.5,0 167.5,-19"/>
<text text-anchor="middle" x="85" y="-7" font-family="Helvetica,sans-Serif" font-size="10.00">CLEDController::setScreenMap</text>
</a>
</g>
</g>
<!-- Node12&#45;&gt;Node13 -->
<g id="edge12_Node000012_Node000013" class="edge">
<title>Node12&#45;&gt;Node13</title>
<g id="a_edge12_Node000012_Node000013"><a xlink:title=" ">
<path fill="none" stroke="#63b8ff" d="M197.22,-20.23C187.47,-19.29 177.44,-18.33 167.59,-17.37"/>
<polygon fill="#63b8ff" stroke="#63b8ff" points="196.98,-23.73 207.27,-21.2 197.65,-16.76 196.98,-23.73"/>
</a>
</g>
</g>
</g>
</svg>

<g id="navigator" transform="translate(0 0)" fill="#404254">
  <rect fill="#f2f5e9" fill-opacity="0.5" stroke="#606060" stroke-width=".5" x="0" y="0" width="60" height="60"/>
  <use id="zoomplus" xlink:href="#zoomPlus" x="17" y="9" onmousedown="handleZoom(evt,'in')"/>
  <use id="zoomminus" xlink:href="#zoomMin" x="42" y="9" onmousedown="handleZoom(evt,'out')"/>
  <use id="reset" xlink:href="#resetDef" x="30" y="36" onmousedown="handleReset()"/>
   <use id="arrowup" xlink:href="#arrowUp" x="0" y="0" onmousedown="handlePan(0,-1)"/>
  <use id="arrowright" xlink:href="#arrowRight" x="0" y="0" onmousedown="handlePan(1,0)"/>
  <use id="arrowdown" xlink:href="#arrowDown" x="0" y="0" onmousedown="handlePan(0,1)"/>
  <use id="arrowleft" xlink:href="#arrowLeft" x="0" y="0" onmousedown="handlePan(-1,0)"/>
</g>
<svg viewBox="0 0 15 15" width="100%" height="30px" preserveAspectRatio="xMaxYMin meet">
 <g id="arrow_out" transform="scale(0.3 0.3)">
  <a xlink:href="classfl_1_1_l_u_t_a2335f0dda4203113d90a21cec5f92351_a2335f0dda4203113d90a21cec5f92351_icgraph_org.svg" target="_base">
   <rect id="button" ry="5" rx="5" y="6" x="6" height="38" width="38"
        fill="#f2f5e9" fill-opacity="0.5" stroke="#606060" stroke-width="1.0"/>
   <path id="arrow"
     d="M 11.500037,31.436501 C 11.940474,20.09759 22.043105,11.32322 32.158766,21.979434 L 37.068811,17.246167 C 37.068811,17.246167 37.088388,32 37.088388,32 L 22.160133,31.978069 C 22.160133,31.978069 26.997745,27.140456 26.997745,27.140456 C 18.528582,18.264221 13.291696,25.230495 11.500037,31.436501 z"
     style="fill:#404040;"/>
  </a>
 </g>
</svg>

<style type='text/css'>
<![CDATA[
[data-mouse-over-selected='false'] { opacity: 0.7; }
[data-mouse-over-selected='true']  { opacity: 1.0; }
]]>
</style>
<script type="application/ecmascript"><![CDATA[
document.addEventListener('DOMContentLoaded', (event) => {
  highlightEdges();
  highlightAdjacentNodes();
});
]]></script>
</svg>
