<?xml version="1.0" encoding="UTF-8" standalone="no"?>
<!DOCTYPE svg PUBLIC "-//W3C//DTD SVG 1.1//EN"
 "http://www.w3.org/Graphics/SVG/1.1/DTD/svg11.dtd">
<!-- Generated by graphviz version 2.43.0 (0)
 -->
<!-- Title: fl::Fx::Fx Pages: 1 -->
<!--zoomable 656 -->

<svg id="main" version="1.1" xmlns="http://www.w3.org/2000/svg" xmlns:xlink="http://www.w3.org/1999/xlink" xml:space="preserve" onload="init(evt)">

<style type="text/css"><![CDATA[
.node, .edge {opacity: 0.7;}
.node.selected, .edge.selected {opacity: 1;}
.edge:hover path { stroke: red; }
.edge:hover polygon { stroke: red; fill: red; }
]]></style>

<defs>
  <circle id="rim" cx="0" cy="0" r="7"/>
  <circle id="rim2" cx="0" cy="0" r="3.5"/>
  <g id="zoomPlus">
    <use xlink:href="#rim" fill="#404040"><set attributeName="fill" to="#808080" begin="zoomplus.mouseover" end="zoomplus.mouseout"/></use>
    <path d="M-4,0h8M0,-4v8" fill="none" stroke="white" stroke-width="1.5" pointer-events="none"/>
  </g>
  <g id="zoomMin">
    <use xlink:href="#rim" fill="#404040"><set attributeName="fill" to="#808080" begin="zoomminus.mouseover" end="zoomminus.mouseout"/></use>
    <path d="M-4,0h8" fill="none" stroke="white" stroke-width="1.5" pointer-events="none"/>
  </g>
  <g id="arrowUp" transform="translate(30 24)">
    <use xlink:href="#rim"/>
    <path pointer-events="none" fill="none" stroke="white" stroke-width="1.5" d="M0,-3.0v7 M-2.5,-0.5L0,-3.0L2.5,-0.5"/>
  </g>
  <g id="arrowRight" transform="rotate(90) translate(36 -43)">
    <use xlink:href="#rim"/>
    <path pointer-events="none" fill="none" stroke="white" stroke-width="1.5" d="M0,-3.0v7 M-2.5,-0.5L0,-3.0L2.5,-0.5"/>
  </g>
  <g id="arrowDown" transform="rotate(180) translate(-30 -48)">
    <use xlink:href="#rim"/>
    <path pointer-events="none" fill="none" stroke="white" stroke-width="1.5" d="M0,-3.0v7 M-2.5,-0.5L0,-3.0L2.5,-0.5"/>
  </g>
  <g id="arrowLeft" transform="rotate(270) translate(-36 17)">
    <use xlink:href="#rim"/>
    <path pointer-events="none" fill="none" stroke="white" stroke-width="1.5" d="M0,-3.0v7 M-2.5,-0.5L0,-3.0L2.5,-0.5"/>
  </g>
  <g id="resetDef">
    <use xlink:href="#rim2" fill="#404040"><set attributeName="fill" to="#808080" begin="reset.mouseover" end="reset.mouseout"/></use>
  </g>
</defs>
<script type="application/ecmascript">
var viewWidth = 592;
var viewHeight = 656;
var sectionId = 'dynsection-0';
</script>
<script type="application/ecmascript" xlink:href="../../svg.min.js"/>
<svg id="graph" class="graph">
<g id="viewport">
<title>fl::Fx::Fx</title>
<!-- Node1 -->
<g id="Node000001" class="node">
<title>Node1</title>
<g id="a_Node000001"><a xlink:title=" ">
<polygon fill="#999999" stroke="#666666" points="584,-315 525,-315 525,-296 584,-296 584,-315"/>
<text text-anchor="middle" x="554.5" y="-303" font-family="Helvetica,sans-Serif" font-size="10.00">fl::Fx::Fx</text>
</a>
</g>
</g>
<!-- Node2 -->
<g id="Node000002" class="node">
<title>Node2</title>
<g id="a_Node000002"><a xlink:href="../../d4/d1c/classfl_1_1_fx1d_ab7fbbc350f5c43865846e2338b502c41.html#ab7fbbc350f5c43865846e2338b502c41" target="_top" xlink:title=" ">
<polygon fill="white" stroke="#666666" points="489,-481 406,-481 406,-462 489,-462 489,-481"/>
<text text-anchor="middle" x="447.5" y="-469" font-family="Helvetica,sans-Serif" font-size="10.00">fl::Fx1d::Fx1d</text>
</a>
</g>
</g>
<!-- Node1&#45;&gt;Node2 -->
<g id="edge1_Node000001_Node000002" class="edge">
<title>Node1&#45;&gt;Node2</title>
<g id="a_edge1_Node000001_Node000002"><a xlink:title=" ">
<path fill="none" stroke="#63b8ff" d="M541.65,-324.23C519.27,-359.61 471.5,-435.13 454.59,-461.87"/>
<polygon fill="#63b8ff" stroke="#63b8ff" points="544.86,-325.71 547.25,-315.39 538.94,-321.97 544.86,-325.71"/>
</a>
</g>
</g>
<!-- Node14 -->
<g id="Node000014" class="node">
<title>Node14</title>
<g id="a_Node000014"><a xlink:href="../../d7/d3e/classfl_1_1_fx2d_a98879bee7a7a97ceb2cc34ea2eefc7fe.html#a98879bee7a7a97ceb2cc34ea2eefc7fe" target="_top" xlink:title=" ">
<polygon fill="white" stroke="#666666" points="489,-186 406,-186 406,-167 489,-167 489,-186"/>
<text text-anchor="middle" x="447.5" y="-174" font-family="Helvetica,sans-Serif" font-size="10.00">fl::Fx2d::Fx2d</text>
</a>
</g>
</g>
<!-- Node1&#45;&gt;Node14 -->
<g id="edge13_Node000001_Node000014" class="edge">
<title>Node1&#45;&gt;Node14</title>
<g id="a_edge13_Node000001_Node000014"><a xlink:title=" ">
<path fill="none" stroke="#63b8ff" d="M539.09,-287.79C516.65,-260.23 474.13,-207.99 456.48,-186.31"/>
<polygon fill="#63b8ff" stroke="#63b8ff" points="536.58,-290.26 545.61,-295.8 542.01,-285.84 536.58,-290.26"/>
</a>
</g>
</g>
<!-- Node3 -->
<g id="Node000003" class="node">
<title>Node3</title>
<g id="a_Node000003"><a xlink:href="../../dc/dd6/classfl_1_1_cylon_a47abb4edcba00b2f66498ae3b7e0bac9.html#a47abb4edcba00b2f66498ae3b7e0bac9" target="_top" xlink:title=" ">
<polygon fill="white" stroke="#666666" points="328.5,-648 238.5,-648 238.5,-629 328.5,-629 328.5,-648"/>
<text text-anchor="middle" x="283.5" y="-636" font-family="Helvetica,sans-Serif" font-size="10.00">fl::Cylon::Cylon</text>
</a>
</g>
</g>
<!-- Node2&#45;&gt;Node3 -->
<g id="edge2_Node000002_Node000003" class="edge">
<title>Node2&#45;&gt;Node3</title>
<g id="a_edge2_Node000002_Node000003"><a xlink:title=" ">
<path fill="none" stroke="#63b8ff" d="M442.12,-491.44C433.91,-523.85 413.01,-587.67 370,-620.5 358.18,-629.52 342.88,-634.27 328.5,-636.7"/>
<polygon fill="#63b8ff" stroke="#63b8ff" points="445.6,-491.92 444.51,-481.38 438.79,-490.3 445.6,-491.92"/>
</a>
</g>
</g>
<!-- Node4 -->
<g id="Node000004" class="node">
<title>Node4</title>
<g id="a_Node000004"><a xlink:href="../../d1/d60/classfl_1_1_demo_reel100_a52204ee48ff3ea4e5243c26a50802f2a.html#a52204ee48ff3ea4e5243c26a50802f2a" target="_top" xlink:title=" ">
<polygon fill="white" stroke="#666666" points="370,-611 197,-611 197,-592 370,-592 370,-611"/>
<text text-anchor="middle" x="283.5" y="-599" font-family="Helvetica,sans-Serif" font-size="10.00">fl::DemoReel100::DemoReel100</text>
</a>
</g>
</g>
<!-- Node2&#45;&gt;Node4 -->
<g id="edge3_Node000002_Node000004" class="edge">
<title>Node2&#45;&gt;Node4</title>
<g id="a_edge3_Node000002_Node000004"><a xlink:title=" ">
<path fill="none" stroke="#63b8ff" d="M438.97,-490.44C427.86,-515.83 404.58,-560.37 370,-583.5 364.96,-586.87 359.4,-589.63 353.62,-591.89"/>
<polygon fill="#63b8ff" stroke="#63b8ff" points="442.23,-491.72 442.87,-481.14 435.78,-489.01 442.23,-491.72"/>
</a>
</g>
</g>
<!-- Node5 -->
<g id="Node000005" class="node">
<title>Node5</title>
<g id="a_Node000005"><a xlink:href="../../d5/d9b/classfl_1_1_fire2012_ae1177dfd43990cfaa4eb7ffb1b9b7a5e.html#ae1177dfd43990cfaa4eb7ffb1b9b7a5e" target="_top" xlink:title=" ">
<polygon fill="white" stroke="#666666" points="343,-574 224,-574 224,-555 343,-555 343,-574"/>
<text text-anchor="middle" x="283.5" y="-562" font-family="Helvetica,sans-Serif" font-size="10.00">fl::Fire2012::Fire2012</text>
</a>
</g>
</g>
<!-- Node2&#45;&gt;Node5 -->
<g id="edge4_Node000002_Node000005" class="edge">
<title>Node2&#45;&gt;Node5</title>
<g id="a_edge4_Node000002_Node000005"><a xlink:title=" ">
<path fill="none" stroke="#63b8ff" d="M433.39,-489.27C419.59,-506.64 396.25,-532.45 370,-546.5 361.71,-550.94 352.42,-554.28 343.1,-556.8"/>
<polygon fill="#63b8ff" stroke="#63b8ff" points="436.38,-491.13 439.7,-481.07 430.83,-486.86 436.38,-491.13"/>
</a>
</g>
</g>
<!-- Node6 -->
<g id="Node000006" class="node">
<title>Node6</title>
<g id="a_Node000006"><a xlink:href="../../d5/d3c/classfl_1_1_noise_wave_a61c2165ace51038aafb7338b76fb672d.html#a61c2165ace51038aafb7338b76fb672d" target="_top" xlink:title=" ">
<polygon fill="white" stroke="#666666" points="355.5,-537 211.5,-537 211.5,-518 355.5,-518 355.5,-537"/>
<text text-anchor="middle" x="283.5" y="-525" font-family="Helvetica,sans-Serif" font-size="10.00">fl::NoiseWave::NoiseWave</text>
</a>
</g>
</g>
<!-- Node2&#45;&gt;Node6 -->
<g id="edge5_Node000002_Node000006" class="edge">
<title>Node2&#45;&gt;Node6</title>
<g id="a_edge5_Node000002_Node000006"><a xlink:title=" ">
<path fill="none" stroke="#63b8ff" d="M421.41,-485.99C406.8,-493.9 387.81,-503.31 370,-509.5 360.54,-512.78 350.28,-515.57 340.25,-517.9"/>
<polygon fill="#63b8ff" stroke="#63b8ff" points="423.26,-488.96 430.31,-481.06 419.87,-482.84 423.26,-488.96"/>
</a>
</g>
</g>
<!-- Node7 -->
<g id="Node000007" class="node">
<title>Node7</title>
<g id="a_Node000007"><a xlink:href="../../d2/db2/classfl_1_1_pacifica_a1cb67ac88a3d744f84ff82ba057be45c.html#a1cb67ac88a3d744f84ff82ba057be45c" target="_top" xlink:title=" ">
<polygon fill="white" stroke="#666666" points="337.5,-500 229.5,-500 229.5,-481 337.5,-481 337.5,-500"/>
<text text-anchor="middle" x="283.5" y="-488" font-family="Helvetica,sans-Serif" font-size="10.00">fl::Pacifica::Pacifica</text>
</a>
</g>
</g>
<!-- Node2&#45;&gt;Node7 -->
<g id="edge6_Node000002_Node000007" class="edge">
<title>Node2&#45;&gt;Node7</title>
<g id="a_edge6_Node000002_Node000007"><a xlink:title=" ">
<path fill="none" stroke="#63b8ff" d="M395.64,-477.46C377.18,-479.63 356.28,-482.08 337.63,-484.27"/>
<polygon fill="#63b8ff" stroke="#63b8ff" points="396.1,-480.94 405.62,-476.29 395.28,-473.98 396.1,-480.94"/>
</a>
</g>
</g>
<!-- Node8 -->
<g id="Node000008" class="node">
<title>Node8</title>
<g id="a_Node000008"><a xlink:href="../../df/d11/classfl_1_1_pride2015_a2d132ed65d49974a9528488f888f4b27.html#a2d132ed65d49974a9528488f888f4b27" target="_top" xlink:title=" ">
<polygon fill="white" stroke="#666666" points="349.5,-463 217.5,-463 217.5,-444 349.5,-444 349.5,-463"/>
<text text-anchor="middle" x="283.5" y="-451" font-family="Helvetica,sans-Serif" font-size="10.00">fl::Pride2015::Pride2015</text>
</a>
</g>
</g>
<!-- Node2&#45;&gt;Node8 -->
<g id="edge7_Node000002_Node000008" class="edge">
<title>Node2&#45;&gt;Node8</title>
<g id="a_edge7_Node000002_Node000008"><a xlink:title=" ">
<path fill="none" stroke="#63b8ff" d="M395.35,-465.82C380.85,-464.21 364.85,-462.43 349.64,-460.74"/>
<polygon fill="#63b8ff" stroke="#63b8ff" points="395.3,-469.33 405.62,-466.96 396.07,-462.37 395.3,-469.33"/>
</a>
</g>
</g>
<!-- Node9 -->
<g id="Node000009" class="node">
<title>Node9</title>
<g id="a_Node000009"><a xlink:href="../../de/db5/classfl_1_1_twinkle_fox_a99aa1e90fbd791186b6fc4708dabad80.html#a99aa1e90fbd791186b6fc4708dabad80" target="_top" xlink:title=" ">
<polygon fill="white" stroke="#666666" points="355,-426 212,-426 212,-407 355,-407 355,-426"/>
<text text-anchor="middle" x="283.5" y="-414" font-family="Helvetica,sans-Serif" font-size="10.00">fl::TwinkleFox::TwinkleFox</text>
</a>
</g>
</g>
<!-- Node2&#45;&gt;Node9 -->
<g id="edge8_Node000002_Node000009" class="edge">
<title>Node2&#45;&gt;Node9</title>
<g id="a_edge8_Node000002_Node000009"><a xlink:title=" ">
<path fill="none" stroke="#63b8ff" d="M420.15,-457.33C405.67,-450 387.21,-441.38 370,-435.5 359.21,-431.81 347.4,-428.65 336.1,-426.03"/>
<polygon fill="#63b8ff" stroke="#63b8ff" points="418.54,-460.44 429.03,-461.92 421.76,-454.22 418.54,-460.44"/>
</a>
</g>
</g>
<!-- Node10 -->
<g id="Node000010" class="node">
<title>Node10</title>
<g id="a_Node000010"><a xlink:href="../../d0/d4b/classfl_1_1_video_ae45eb5d3600200e3e848dc38f95db8dc.html#ae45eb5d3600200e3e848dc38f95db8dc" target="_top" xlink:title=" ">
<polygon fill="white" stroke="#666666" points="328.5,-389 238.5,-389 238.5,-370 328.5,-370 328.5,-389"/>
<text text-anchor="middle" x="283.5" y="-377" font-family="Helvetica,sans-Serif" font-size="10.00">fl::Video::Video</text>
</a>
</g>
</g>
<!-- Node2&#45;&gt;Node10 -->
<g id="edge9_Node000002_Node000010" class="edge">
<title>Node2&#45;&gt;Node10</title>
<g id="a_edge9_Node000002_Node000010"><a xlink:title=" ">
<path fill="none" stroke="#63b8ff" d="M433.03,-454C419.09,-437.15 395.79,-412.27 370,-398.5 357.39,-391.77 342.51,-387.42 328.73,-384.61"/>
<polygon fill="#63b8ff" stroke="#63b8ff" points="430.44,-456.36 439.42,-461.97 435.9,-451.98 430.44,-456.36"/>
</a>
</g>
</g>
<!-- Node13 -->
<g id="Node000013" class="node">
<title>Node13</title>
<g id="a_Node000013"><a xlink:href="../../d0/d4b/classfl_1_1_video_adc8d138c469b77124a2a23e49f15567c.html#adc8d138c469b77124a2a23e49f15567c" target="_top" xlink:title=" ">
<polygon fill="white" stroke="#666666" points="328.5,-352 238.5,-352 238.5,-333 328.5,-333 328.5,-352"/>
<text text-anchor="middle" x="283.5" y="-340" font-family="Helvetica,sans-Serif" font-size="10.00">fl::Video::Video</text>
</a>
</g>
</g>
<!-- Node2&#45;&gt;Node13 -->
<g id="edge12_Node000002_Node000013" class="edge">
<title>Node2&#45;&gt;Node13</title>
<g id="a_edge12_Node000002_Node000013"><a xlink:title=" ">
<path fill="none" stroke="#63b8ff" d="M438.52,-452.24C427.14,-427.25 403.81,-384.18 370,-361.5 357.88,-353.37 342.82,-348.66 328.74,-345.96"/>
<polygon fill="#63b8ff" stroke="#63b8ff" points="435.46,-453.97 442.67,-461.73 441.87,-451.17 435.46,-453.97"/>
</a>
</g>
</g>
<!-- Node11 -->
<g id="Node000011" class="node">
<title>Node11</title>
<g id="a_Node000011"><a xlink:href="../../d0/d4b/classfl_1_1_video_a4207ab0c7a5a8e9a7df579ce98846fb7.html#a4207ab0c7a5a8e9a7df579ce98846fb7" target="_top" xlink:title=" ">
<polygon fill="white" stroke="#666666" points="125.5,-416 35.5,-416 35.5,-397 125.5,-397 125.5,-416"/>
<text text-anchor="middle" x="80.5" y="-404" font-family="Helvetica,sans-Serif" font-size="10.00">fl::Video::Video</text>
</a>
</g>
</g>
<!-- Node10&#45;&gt;Node11 -->
<g id="edge10_Node000010_Node000011" class="edge">
<title>Node10&#45;&gt;Node11</title>
<g id="a_edge10_Node000010_Node000011"><a xlink:title=" ">
<path fill="none" stroke="#63b8ff" d="M228.24,-386.79C196.03,-391.11 155.72,-396.53 125.51,-400.59"/>
<polygon fill="#63b8ff" stroke="#63b8ff" points="228.94,-390.23 238.39,-385.43 228.01,-383.29 228.94,-390.23"/>
</a>
</g>
</g>
<!-- Node12 -->
<g id="Node000012" class="node">
<title>Node12</title>
<g id="a_Node000012"><a xlink:href="../../d0/d4b/classfl_1_1_video_ab89d0f4548bf53c6fea0025cda03f970.html#ab89d0f4548bf53c6fea0025cda03f970" target="_top" xlink:title=" ">
<polygon fill="white" stroke="#666666" points="136.5,-379 24.5,-379 24.5,-360 136.5,-360 136.5,-379"/>
<text text-anchor="middle" x="80.5" y="-367" font-family="Helvetica,sans-Serif" font-size="10.00">fl::Video::operator=</text>
</a>
</g>
</g>
<!-- Node10&#45;&gt;Node12 -->
<g id="edge11_Node000010_Node000012" class="edge">
<title>Node10&#45;&gt;Node12</title>
<g id="a_edge11_Node000010_Node000012"><a xlink:title=" ">
<path fill="none" stroke="#63b8ff" d="M228.24,-376.8C199.85,-375.39 165.16,-373.66 136.64,-372.24"/>
<polygon fill="#63b8ff" stroke="#63b8ff" points="228.23,-380.3 238.39,-377.31 228.58,-373.31 228.23,-380.3"/>
</a>
</g>
</g>
<!-- Node15 -->
<g id="Node000015" class="node">
<title>Node15</title>
<g id="a_Node000015"><a xlink:href="../../d8/df5/classfl_1_1_animartrix_a8ba7b7c451c37ad1ae58a135b2486657.html#a8ba7b7c451c37ad1ae58a135b2486657" target="_top" xlink:title=" ">
<polygon fill="white" stroke="#666666" points="352.5,-315 214.5,-315 214.5,-296 352.5,-296 352.5,-315"/>
<text text-anchor="middle" x="283.5" y="-303" font-family="Helvetica,sans-Serif" font-size="10.00">fl::Animartrix::Animartrix</text>
</a>
</g>
</g>
<!-- Node14&#45;&gt;Node15 -->
<g id="edge14_Node000014_Node000015" class="edge">
<title>Node14&#45;&gt;Node15</title>
<g id="a_edge14_Node000014_Node000015"><a xlink:title=" ">
<path fill="none" stroke="#63b8ff" d="M438.93,-195.27C427.76,-220.44 404.42,-264.59 370,-287.5 364.7,-291.03 358.83,-293.89 352.73,-296.2"/>
<polygon fill="#63b8ff" stroke="#63b8ff" points="442.15,-196.63 442.85,-186.06 435.71,-193.89 442.15,-196.63"/>
</a>
</g>
</g>
<!-- Node19 -->
<g id="Node000019" class="node">
<title>Node19</title>
<g id="a_Node000019"><a xlink:href="../../dc/d2b/classfl_1_1_blend2d_a46d2a049e57d4d91790eb93371972702.html#a46d2a049e57d4d91790eb93371972702" target="_top" xlink:title=" ">
<polygon fill="white" stroke="#666666" points="340.5,-278 226.5,-278 226.5,-259 340.5,-259 340.5,-278"/>
<text text-anchor="middle" x="283.5" y="-266" font-family="Helvetica,sans-Serif" font-size="10.00">fl::Blend2d::Blend2d</text>
</a>
</g>
</g>
<!-- Node14&#45;&gt;Node19 -->
<g id="edge17_Node000014_Node000019" class="edge">
<title>Node14&#45;&gt;Node19</title>
<g id="a_edge17_Node000014_Node000019"><a xlink:title=" ">
<path fill="none" stroke="#63b8ff" d="M433.11,-194.31C419.25,-211.44 395.99,-236.7 370,-250.5 361.02,-255.27 350.89,-258.77 340.82,-261.35"/>
<polygon fill="#63b8ff" stroke="#63b8ff" points="436.06,-196.23 439.47,-186.2 430.55,-191.91 436.06,-196.23"/>
</a>
</g>
</g>
<!-- Node20 -->
<g id="Node000020" class="node">
<title>Node20</title>
<g id="a_Node000020"><a xlink:href="../../d4/df2/classfl_1_1_luminova_a5dcd3944fec8382bae2f41921495f6ca.html#a5dcd3944fec8382bae2f41921495f6ca" target="_top" xlink:title=" ">
<polygon fill="white" stroke="#666666" points="349,-241 218,-241 218,-222 349,-222 349,-241"/>
<text text-anchor="middle" x="283.5" y="-229" font-family="Helvetica,sans-Serif" font-size="10.00">fl::Luminova::Luminova</text>
</a>
</g>
</g>
<!-- Node14&#45;&gt;Node20 -->
<g id="edge18_Node000014_Node000020" class="edge">
<title>Node14&#45;&gt;Node20</title>
<g id="a_edge18_Node000014_Node000020"><a xlink:title=" ">
<path fill="none" stroke="#63b8ff" d="M420.79,-190.88C406.25,-198.51 387.52,-207.52 370,-213.5 360.38,-216.78 349.94,-219.58 339.77,-221.92"/>
<polygon fill="#63b8ff" stroke="#63b8ff" points="422.53,-193.92 429.69,-186.11 419.22,-187.75 422.53,-193.92"/>
</a>
</g>
</g>
<!-- Node21 -->
<g id="Node000021" class="node">
<title>Node21</title>
<g id="a_Node000021"><a xlink:href="../../d9/d41/classfl_1_1_noise_palette_ace0d9f2e7767ae3fb89dc47434024244.html#ace0d9f2e7767ae3fb89dc47434024244" target="_top" xlink:title=" ">
<polygon fill="white" stroke="#666666" points="362.5,-204 204.5,-204 204.5,-185 362.5,-185 362.5,-204"/>
<text text-anchor="middle" x="283.5" y="-192" font-family="Helvetica,sans-Serif" font-size="10.00">fl::NoisePalette::NoisePalette</text>
</a>
</g>
</g>
<!-- Node14&#45;&gt;Node21 -->
<g id="edge19_Node000014_Node000021" class="edge">
<title>Node14&#45;&gt;Node21</title>
<g id="a_edge19_Node000014_Node000021"><a xlink:title=" ">
<path fill="none" stroke="#63b8ff" d="M395.46,-182.17C385.01,-183.33 373.78,-184.58 362.62,-185.82"/>
<polygon fill="#63b8ff" stroke="#63b8ff" points="396.07,-185.63 405.62,-181.04 395.3,-178.67 396.07,-185.63"/>
</a>
</g>
</g>
<!-- Node22 -->
<g id="Node000022" class="node">
<title>Node22</title>
<g id="a_Node000022"><a xlink:href="../../d0/d3e/classfl_1_1_red_square_a28c5b0aa9c2bba25daf125e7ba3322b3.html#a28c5b0aa9c2bba25daf125e7ba3322b3" target="_top" xlink:title=" ">
<polygon fill="white" stroke="#666666" points="353.5,-167 213.5,-167 213.5,-148 353.5,-148 353.5,-167"/>
<text text-anchor="middle" x="283.5" y="-155" font-family="Helvetica,sans-Serif" font-size="10.00">fl::RedSquare::RedSquare</text>
</a>
</g>
</g>
<!-- Node14&#45;&gt;Node22 -->
<g id="edge20_Node000014_Node000022" class="edge">
<title>Node14&#45;&gt;Node22</title>
<g id="a_edge20_Node000014_Node000022"><a xlink:title=" ">
<path fill="none" stroke="#63b8ff" d="M395.33,-170.5C382.12,-168.95 367.69,-167.26 353.73,-165.62"/>
<polygon fill="#63b8ff" stroke="#63b8ff" points="395.28,-174.02 405.62,-171.71 396.1,-167.06 395.28,-174.02"/>
</a>
</g>
</g>
<!-- Node23 -->
<g id="Node000023" class="node">
<title>Node23</title>
<g id="a_Node000023"><a xlink:href="../../d5/d79/classfl_1_1_scale_up_a480a45f04c956116dad175f978daebc5.html#a480a45f04c956116dad175f978daebc5" target="_top" xlink:title=" ">
<polygon fill="white" stroke="#666666" points="340.5,-130 226.5,-130 226.5,-111 340.5,-111 340.5,-130"/>
<text text-anchor="middle" x="283.5" y="-118" font-family="Helvetica,sans-Serif" font-size="10.00">fl::ScaleUp::ScaleUp</text>
</a>
</g>
</g>
<!-- Node14&#45;&gt;Node23 -->
<g id="edge21_Node000014_Node000023" class="edge">
<title>Node14&#45;&gt;Node23</title>
<g id="a_edge21_Node000014_Node000023"><a xlink:title=" ">
<path fill="none" stroke="#63b8ff" d="M420.77,-162.2C406.22,-154.59 387.49,-145.58 370,-139.5 359.37,-135.81 347.74,-132.66 336.58,-130.05"/>
<polygon fill="#63b8ff" stroke="#63b8ff" points="419.2,-165.33 429.67,-166.95 422.49,-159.15 419.2,-165.33"/>
</a>
</g>
</g>
<!-- Node24 -->
<g id="Node000024" class="node">
<title>Node24</title>
<g id="a_Node000024"><a xlink:href="../../d6/d5f/classfl_1_1_wave_fx_a6cee8ec0838deb4d3842f47e672b9395.html#a6cee8ec0838deb4d3842f47e672b9395" target="_top" xlink:title=" ">
<polygon fill="white" stroke="#666666" points="340,-93 227,-93 227,-74 340,-74 340,-93"/>
<text text-anchor="middle" x="283.5" y="-81" font-family="Helvetica,sans-Serif" font-size="10.00">fl::WaveFx::WaveFx</text>
</a>
</g>
</g>
<!-- Node14&#45;&gt;Node24 -->
<g id="edge22_Node000014_Node000024" class="edge">
<title>Node14&#45;&gt;Node24</title>
<g id="a_edge22_Node000014_Node000024"><a xlink:title=" ">
<path fill="none" stroke="#63b8ff" d="M433.08,-158.75C419.19,-141.67 395.91,-116.44 370,-102.5 360.89,-97.6 350.59,-93.96 340.38,-91.26"/>
<polygon fill="#63b8ff" stroke="#63b8ff" points="430.52,-161.15 439.45,-166.84 436.01,-156.82 430.52,-161.15"/>
</a>
</g>
</g>
<!-- Node25 -->
<g id="Node000025" class="node">
<title>Node25</title>
<g id="a_Node000025"><a xlink:href="../../dc/d2b/classfl_1_1_blend2d_aa6b753d9f7a72e49bb11b0e25a6a2948.html#aa6b753d9f7a72e49bb11b0e25a6a2948" target="_top" xlink:title=" ">
<polygon fill="white" stroke="#666666" points="329.5,-56 237.5,-56 237.5,-37 329.5,-37 329.5,-56"/>
<text text-anchor="middle" x="283.5" y="-44" font-family="Helvetica,sans-Serif" font-size="10.00">fl::Blend2d::add</text>
</a>
</g>
</g>
<!-- Node14&#45;&gt;Node25 -->
<g id="edge23_Node000014_Node000025" class="edge">
<title>Node14&#45;&gt;Node25</title>
<g id="a_edge23_Node000014_Node000025"><a xlink:title=" ">
<path fill="none" stroke="#63b8ff" d="M438.74,-157.45C427.47,-132.29 404.13,-88.5 370,-65.5 358.15,-57.51 343.47,-52.83 329.64,-50.1"/>
<polygon fill="#63b8ff" stroke="#63b8ff" points="435.67,-159.16 442.83,-166.97 442.1,-156.4 435.67,-159.16"/>
</a>
</g>
</g>
<!-- Node26 -->
<g id="Node000026" class="node">
<title>Node26</title>
<g id="a_Node000026"><a xlink:href="../../dc/d2b/classfl_1_1_blend2d_aad17ffdf04279a43a6f3825c910ccb13.html#aad17ffdf04279a43a6f3825c910ccb13" target="_top" xlink:title=" ">
<polygon fill="white" stroke="#666666" points="346,-19 221,-19 221,0 346,0 346,-19"/>
<text text-anchor="middle" x="283.5" y="-7" font-family="Helvetica,sans-Serif" font-size="10.00">fl::Blend2d::setParams</text>
</a>
</g>
</g>
<!-- Node14&#45;&gt;Node26 -->
<g id="edge24_Node000014_Node000026" class="edge">
<title>Node14&#45;&gt;Node26</title>
<g id="a_edge24_Node000014_Node000026"><a xlink:title=" ">
<path fill="none" stroke="#63b8ff" d="M442.04,-156.75C433.71,-124.62 412.64,-61.33 370,-28.5 363.01,-23.12 354.8,-19.2 346.28,-16.36"/>
<polygon fill="#63b8ff" stroke="#63b8ff" points="438.7,-157.83 444.47,-166.71 445.5,-156.17 438.7,-157.83"/>
</a>
</g>
</g>
<!-- Node16 -->
<g id="Node000016" class="node">
<title>Node16</title>
<g id="a_Node000016"><a xlink:href="../../d8/df5/classfl_1_1_animartrix_a0367c7d86dc3d18aec76957a073edb8c.html#a0367c7d86dc3d18aec76957a073edb8c" target="_top" xlink:title=" ">
<polygon fill="white" stroke="#666666" points="149.5,-333 11.5,-333 11.5,-314 149.5,-314 149.5,-333"/>
<text text-anchor="middle" x="80.5" y="-321" font-family="Helvetica,sans-Serif" font-size="10.00">fl::Animartrix::Animartrix</text>
</a>
</g>
</g>
<!-- Node15&#45;&gt;Node16 -->
<g id="edge15_Node000015_Node000016" class="edge">
<title>Node15&#45;&gt;Node16</title>
<g id="a_edge15_Node000015_Node000016"><a xlink:title=" ">
<path fill="none" stroke="#63b8ff" d="M204.29,-312.5C186.32,-314.11 167.34,-315.81 149.82,-317.38"/>
<polygon fill="#63b8ff" stroke="#63b8ff" points="204.8,-315.97 214.45,-311.59 204.18,-309 204.8,-315.97"/>
</a>
</g>
</g>
<!-- Node17 -->
<g id="Node000017" class="node">
<title>Node17</title>
<g id="a_Node000017"><a xlink:href="../../d8/df5/classfl_1_1_animartrix_a3ff6faa76b9c2bd63e399f1f9d390d4e.html#a3ff6faa76b9c2bd63e399f1f9d390d4e" target="_top" xlink:title=" ">
<polygon fill="#fff0f0" stroke="red" points="161,-296 0,-296 0,-277 161,-277 161,-296"/>
<text text-anchor="middle" x="80.5" y="-284" font-family="Helvetica,sans-Serif" font-size="10.00">fl::Animartrix::AnimartrixLoop</text>
</a>
</g>
</g>
<!-- Node15&#45;&gt;Node17 -->
<g id="edge16_Node000015_Node000017" class="edge">
<title>Node15&#45;&gt;Node17</title>
<g id="a_edge16_Node000015_Node000017"><a xlink:title=" ">
<path fill="none" stroke="#63b8ff" d="M204.3,-298.11C190.18,-296.77 175.44,-295.38 161.28,-294.04"/>
<polygon fill="#63b8ff" stroke="#63b8ff" points="204.17,-301.61 214.45,-299.07 204.82,-294.64 204.17,-301.61"/>
</a>
</g>
</g>
</g>
</svg>

<g id="navigator" transform="translate(0 0)" fill="#404254">
  <rect fill="#f2f5e9" fill-opacity="0.5" stroke="#606060" stroke-width=".5" x="0" y="0" width="60" height="60"/>
  <use id="zoomplus" xlink:href="#zoomPlus" x="17" y="9" onmousedown="handleZoom(evt,'in')"/>
  <use id="zoomminus" xlink:href="#zoomMin" x="42" y="9" onmousedown="handleZoom(evt,'out')"/>
  <use id="reset" xlink:href="#resetDef" x="30" y="36" onmousedown="handleReset()"/>
   <use id="arrowup" xlink:href="#arrowUp" x="0" y="0" onmousedown="handlePan(0,-1)"/>
  <use id="arrowright" xlink:href="#arrowRight" x="0" y="0" onmousedown="handlePan(1,0)"/>
  <use id="arrowdown" xlink:href="#arrowDown" x="0" y="0" onmousedown="handlePan(0,1)"/>
  <use id="arrowleft" xlink:href="#arrowLeft" x="0" y="0" onmousedown="handlePan(-1,0)"/>
</g>
<svg viewBox="0 0 15 15" width="100%" height="30px" preserveAspectRatio="xMaxYMin meet">
 <g id="arrow_out" transform="scale(0.3 0.3)">
  <a xlink:href="classfl_1_1_fx_aa4a990c2a2d04e57046cf8b0f64ce4e7_aa4a990c2a2d04e57046cf8b0f64ce4e7_icgraph_org.svg" target="_base">
   <rect id="button" ry="5" rx="5" y="6" x="6" height="38" width="38"
        fill="#f2f5e9" fill-opacity="0.5" stroke="#606060" stroke-width="1.0"/>
   <path id="arrow"
     d="M 11.500037,31.436501 C 11.940474,20.09759 22.043105,11.32322 32.158766,21.979434 L 37.068811,17.246167 C 37.068811,17.246167 37.088388,32 37.088388,32 L 22.160133,31.978069 C 22.160133,31.978069 26.997745,27.140456 26.997745,27.140456 C 18.528582,18.264221 13.291696,25.230495 11.500037,31.436501 z"
     style="fill:#404040;"/>
  </a>
 </g>
</svg>

<style type='text/css'>
<![CDATA[
[data-mouse-over-selected='false'] { opacity: 0.7; }
[data-mouse-over-selected='true']  { opacity: 1.0; }
]]>
</style>
<script type="application/ecmascript"><![CDATA[
document.addEventListener('DOMContentLoaded', (event) => {
  highlightEdges();
  highlightAdjacentNodes();
});
]]></script>
</svg>
