<?xml version="1.0" encoding="UTF-8" standalone="no"?>
<!DOCTYPE svg PUBLIC "-//W3C//DTD SVG 1.1//EN"
 "http://www.w3.org/Graphics/SVG/1.1/DTD/svg11.dtd">
<!-- Generated by graphviz version 2.43.0 (0)
 -->
<!-- Title: fl::LineSimplifierExact::estimateMaxDistance Pages: 1 -->
<svg width="251pt" height="64pt"
 viewBox="0.00 0.00 251.00 64.00" xmlns="http://www.w3.org/2000/svg" xmlns:xlink="http://www.w3.org/1999/xlink">
<g id="graph0" class="graph" transform="scale(1 1) rotate(0) translate(4 60)">
<title>fl::LineSimplifierExact::estimateMaxDistance</title>
<!-- Node1 -->
<g id="Node000001" class="node">
<title>Node1</title>
<g id="a_Node000001"><a xlink:title=" ">
<polygon fill="#999999" stroke="#666666" points="130,-42.5 0,-42.5 0,-12.5 130,-12.5 130,-42.5"/>
<text text-anchor="start" x="8" y="-30.5" font-family="Helvetica,sans-Serif" font-size="10.00">fl::LineSimplifierExact</text>
<text text-anchor="middle" x="65" y="-19.5" font-family="Helvetica,sans-Serif" font-size="10.00">::estimateMaxDistance</text>
</a>
</g>
</g>
<!-- Node2 -->
<g id="Node000002" class="node">
<title>Node2</title>
<g id="a_Node000002"><a xlink:href="../../d0/d08/classfl_1_1span_aef7ee7eb5254da1ba1eb4f3e0173d0ac.html#aef7ee7eb5254da1ba1eb4f3e0173d0ac" target="_top" xlink:title=" ">
<polygon fill="white" stroke="#666666" points="243,-56 166,-56 166,-37 243,-37 243,-56"/>
<text text-anchor="middle" x="204.5" y="-44" font-family="Helvetica,sans-Serif" font-size="10.00">fl::span::size</text>
</a>
</g>
</g>
<!-- Node1&#45;&gt;Node2 -->
<g id="edge1_Node000001_Node000002" class="edge">
<title>Node1&#45;&gt;Node2</title>
<g id="a_edge1_Node000001_Node000002"><a xlink:title=" ">
<path fill="none" stroke="#63b8ff" d="M130.32,-36.39C138.87,-37.57 147.52,-38.76 155.72,-39.9"/>
<polygon fill="#63b8ff" stroke="#63b8ff" points="155.45,-43.39 165.83,-41.3 156.41,-36.46 155.45,-43.39"/>
</a>
</g>
</g>
<!-- Node3 -->
<g id="Node000003" class="node">
<title>Node3</title>
<g id="a_Node000003"><a xlink:href="../../d4/d36/namespacefl_a40c15aab45d44b7ca11f148cc2e997c1.html#a40c15aab45d44b7ca11f148cc2e997c1" target="_top" xlink:title=" ">
<polygon fill="white" stroke="#666666" points="228,-19 181,-19 181,0 228,0 228,-19"/>
<text text-anchor="middle" x="204.5" y="-7" font-family="Helvetica,sans-Serif" font-size="10.00">fl::sqrt</text>
</a>
</g>
</g>
<!-- Node1&#45;&gt;Node3 -->
<g id="edge2_Node000001_Node000003" class="edge">
<title>Node1&#45;&gt;Node3</title>
<g id="a_edge2_Node000001_Node000003"><a xlink:title=" ">
<path fill="none" stroke="#63b8ff" d="M130.32,-19.08C144.38,-17.24 158.68,-15.37 170.87,-13.77"/>
<polygon fill="#63b8ff" stroke="#63b8ff" points="171.51,-17.22 180.98,-12.45 170.61,-10.28 171.51,-17.22"/>
</a>
</g>
</g>
</g>
</svg>
