<?xml version="1.0" encoding="UTF-8" standalone="no"?>
<!DOCTYPE svg PUBLIC "-//W3C//DTD SVG 1.1//EN"
 "http://www.w3.org/Graphics/SVG/1.1/DTD/svg11.dtd">
<!-- Generated by graphviz version 2.43.0 (0)
 -->
<!-- Title: fl::Animartrix::Animartrix Pages: 1 -->
<svg width="567pt" height="64pt"
 viewBox="0.00 0.00 567.00 64.00" xmlns="http://www.w3.org/2000/svg" xmlns:xlink="http://www.w3.org/1999/xlink">
<g id="graph0" class="graph" transform="scale(1 1) rotate(0) translate(4 60)">
<title>fl::Animartrix::Animartrix</title>
<!-- Node1 -->
<g id="Node000001" class="node">
<title>Node1</title>
<g id="a_Node000001"><a xlink:title=" ">
<polygon fill="#999999" stroke="#666666" points="138,-37 0,-37 0,-18 138,-18 138,-37"/>
<text text-anchor="middle" x="69" y="-25" font-family="Helvetica,sans-Serif" font-size="10.00">fl::Animartrix::Animartrix</text>
</a>
</g>
</g>
<!-- Node2 -->
<g id="Node000002" class="node">
<title>Node2</title>
<g id="a_Node000002"><a xlink:href="../../d8/df5/classfl_1_1_animartrix_aa0f29e564cc715909772fd198e18321b.html#aa0f29e564cc715909772fd198e18321b" target="_top" xlink:title=" ">
<polygon fill="white" stroke="#666666" points="312,-37 174,-37 174,-18 312,-18 312,-37"/>
<text text-anchor="middle" x="243" y="-25" font-family="Helvetica,sans-Serif" font-size="10.00">fl::Animartrix::Animartrix</text>
</a>
</g>
</g>
<!-- Node1&#45;&gt;Node2 -->
<g id="edge1_Node000001_Node000002" class="edge">
<title>Node1&#45;&gt;Node2</title>
<g id="a_edge1_Node000001_Node000002"><a xlink:title=" ">
<path fill="none" stroke="#63b8ff" d="M138.47,-27.5C146.73,-27.5 155.22,-27.5 163.6,-27.5"/>
<polygon fill="#63b8ff" stroke="#63b8ff" points="163.76,-31 173.76,-27.5 163.76,-24 163.76,-31"/>
</a>
</g>
</g>
<!-- Node3 -->
<g id="Node000003" class="node">
<title>Node3</title>
<g id="a_Node000003"><a xlink:href="../../d7/d3e/classfl_1_1_fx2d_a98879bee7a7a97ceb2cc34ea2eefc7fe.html#a98879bee7a7a97ceb2cc34ea2eefc7fe" target="_top" xlink:title=" ">
<polygon fill="white" stroke="#666666" points="431,-56 348,-56 348,-37 431,-37 431,-56"/>
<text text-anchor="middle" x="389.5" y="-44" font-family="Helvetica,sans-Serif" font-size="10.00">fl::Fx2d::Fx2d</text>
</a>
</g>
</g>
<!-- Node2&#45;&gt;Node3 -->
<g id="edge2_Node000002_Node000003" class="edge">
<title>Node2&#45;&gt;Node3</title>
<g id="a_edge2_Node000002_Node000003"><a xlink:title=" ">
<path fill="none" stroke="#63b8ff" d="M312.02,-36.44C320.76,-37.59 329.59,-38.75 337.98,-39.86"/>
<polygon fill="#63b8ff" stroke="#63b8ff" points="337.6,-43.34 347.97,-41.17 338.51,-36.4 337.6,-43.34"/>
</a>
</g>
</g>
<!-- Node5 -->
<g id="Node000005" class="node">
<title>Node5</title>
<g id="a_Node000005"><a xlink:href="../../d7/d3e/classfl_1_1_fx2d_a96dec159104519d347041d11509b72f3.html#a96dec159104519d347041d11509b72f3" target="_top" xlink:title=" ">
<polygon fill="white" stroke="#666666" points="559,-19 467,-19 467,0 559,0 559,-19"/>
<text text-anchor="middle" x="513" y="-7" font-family="Helvetica,sans-Serif" font-size="10.00">fl::Fx2d::xyMap</text>
</a>
</g>
</g>
<!-- Node2&#45;&gt;Node5 -->
<g id="edge5_Node000002_Node000005" class="edge">
<title>Node2&#45;&gt;Node5</title>
<g id="a_edge5_Node000002_Node000005"><a xlink:title=" ">
<path fill="none" stroke="#63b8ff" d="M312.32,-22.91C357.16,-19.9 415.04,-16.01 456.93,-13.2"/>
<polygon fill="#63b8ff" stroke="#63b8ff" points="457.21,-16.69 466.95,-12.53 456.74,-9.7 457.21,-16.69"/>
</a>
</g>
</g>
<!-- Node4 -->
<g id="Node000004" class="node">
<title>Node4</title>
<g id="a_Node000004"><a xlink:href="../../da/d5d/classfl_1_1_fx_aa4a990c2a2d04e57046cf8b0f64ce4e7.html#aa4a990c2a2d04e57046cf8b0f64ce4e7" target="_top" xlink:title=" ">
<polygon fill="white" stroke="#666666" points="542.5,-56 483.5,-56 483.5,-37 542.5,-37 542.5,-56"/>
<text text-anchor="middle" x="513" y="-44" font-family="Helvetica,sans-Serif" font-size="10.00">fl::Fx::Fx</text>
</a>
</g>
</g>
<!-- Node3&#45;&gt;Node4 -->
<g id="edge3_Node000003_Node000004" class="edge">
<title>Node3&#45;&gt;Node4</title>
<g id="a_edge3_Node000003_Node000004"><a xlink:title=" ">
<path fill="none" stroke="#63b8ff" d="M431.3,-46.5C444.79,-46.5 459.75,-46.5 473.1,-46.5"/>
<polygon fill="#63b8ff" stroke="#63b8ff" points="473.39,-50 483.39,-46.5 473.39,-43 473.39,-50"/>
</a>
</g>
</g>
<!-- Node3&#45;&gt;Node5 -->
<g id="edge4_Node000003_Node000005" class="edge">
<title>Node3&#45;&gt;Node5</title>
<g id="a_edge4_Node000003_Node000005"><a xlink:title=" ">
<path fill="none" stroke="#63b8ff" d="M421.79,-36.97C436.7,-32.43 454.72,-26.94 470.73,-22.07"/>
<polygon fill="#63b8ff" stroke="#63b8ff" points="471.85,-25.39 480.39,-19.12 469.81,-18.69 471.85,-25.39"/>
</a>
</g>
</g>
</g>
</svg>
