<?xml version="1.0" encoding="UTF-8" standalone="no"?>
<!DOCTYPE svg PUBLIC "-//W3C//DTD SVG 1.1//EN"
 "http://www.w3.org/Graphics/SVG/1.1/DTD/svg11.dtd">
<!-- Generated by graphviz version 2.43.0 (0)
 -->
<!-- Title: fl::Animartrix::fxNext Pages: 1 -->
<svg width="436pt" height="64pt"
 viewBox="0.00 0.00 436.00 64.00" xmlns="http://www.w3.org/2000/svg" xmlns:xlink="http://www.w3.org/1999/xlink">
<g id="graph0" class="graph" transform="scale(1 1) rotate(0) translate(4 60)">
<title>fl::Animartrix::fxNext</title>
<!-- Node1 -->
<g id="Node000001" class="node">
<title>Node1</title>
<g id="a_Node000001"><a xlink:title=" ">
<polygon fill="#999999" stroke="#666666" points="119,-38 0,-38 0,-19 119,-19 119,-38"/>
<text text-anchor="middle" x="59.5" y="-26" font-family="Helvetica,sans-Serif" font-size="10.00">fl::Animartrix::fxNext</text>
</a>
</g>
</g>
<!-- Node2 -->
<g id="Node000002" class="node">
<title>Node2</title>
<g id="a_Node000002"><a xlink:href="../../d8/df5/classfl_1_1_animartrix_abaf7df331465ceed41d6d2e39699d22e.html#abaf7df331465ceed41d6d2e39699d22e" target="_top" xlink:title=" ">
<polygon fill="white" stroke="#666666" points="422,-56 309,-56 309,-37 422,-37 422,-56"/>
<text text-anchor="middle" x="365.5" y="-44" font-family="Helvetica,sans-Serif" font-size="10.00">fl::Animartrix::fxGet</text>
</a>
</g>
</g>
<!-- Node1&#45;&gt;Node2 -->
<g id="edge1_Node000001_Node000002" class="edge">
<title>Node1&#45;&gt;Node2</title>
<g id="a_edge1_Node000001_Node000002"><a xlink:title=" ">
<path fill="none" stroke="#63b8ff" d="M119.11,-31.97C170.58,-35.02 245.36,-39.45 298.83,-42.61"/>
<polygon fill="#63b8ff" stroke="#63b8ff" points="298.7,-46.11 308.89,-43.21 299.11,-39.12 298.7,-46.11"/>
</a>
</g>
</g>
<!-- Node3 -->
<g id="Node000003" class="node">
<title>Node3</title>
<g id="a_Node000003"><a xlink:href="../../d8/df5/classfl_1_1_animartrix_ad444f074926b414d014fcd4eff21e1bc.html#ad444f074926b414d014fcd4eff21e1bc" target="_top" xlink:title=" ">
<polygon fill="white" stroke="#666666" points="267,-19 155,-19 155,0 267,0 267,-19"/>
<text text-anchor="middle" x="211" y="-7" font-family="Helvetica,sans-Serif" font-size="10.00">fl::Animartrix::fxSet</text>
</a>
</g>
</g>
<!-- Node1&#45;&gt;Node3 -->
<g id="edge2_Node000001_Node000003" class="edge">
<title>Node1&#45;&gt;Node3</title>
<g id="a_edge2_Node000001_Node000003"><a xlink:title=" ">
<path fill="none" stroke="#63b8ff" d="M119.16,-21.05C127.62,-19.97 136.38,-18.86 144.96,-17.77"/>
<polygon fill="#63b8ff" stroke="#63b8ff" points="145.45,-21.23 154.93,-16.5 144.57,-14.29 145.45,-21.23"/>
</a>
</g>
</g>
<!-- Node3&#45;&gt;Node2 -->
<g id="edge3_Node000003_Node000002" class="edge">
<title>Node3&#45;&gt;Node2</title>
<g id="a_edge3_Node000003_Node000002"><a xlink:title=" ">
<path fill="none" stroke="#63b8ff" d="M251.27,-19.03C270.76,-23.76 294.51,-29.52 315.21,-34.54"/>
<polygon fill="#63b8ff" stroke="#63b8ff" points="314.55,-37.98 325.1,-36.94 316.2,-31.18 314.55,-37.98"/>
</a>
</g>
</g>
<!-- Node4 -->
<g id="Node000004" class="node">
<title>Node4</title>
<g id="a_Node000004"><a xlink:href="../../d4/d36/namespacefl_a00ade097fdc81c8144ac4478410aa5dd.html#a00ade097fdc81c8144ac4478410aa5dd" target="_top" xlink:title=" ">
<polygon fill="white" stroke="#666666" points="428,-19 303,-19 303,0 428,0 428,-19"/>
<text text-anchor="middle" x="365.5" y="-7" font-family="Helvetica,sans-Serif" font-size="10.00">fl::getAnimartrixName</text>
</a>
</g>
</g>
<!-- Node3&#45;&gt;Node4 -->
<g id="edge4_Node000003_Node000004" class="edge">
<title>Node3&#45;&gt;Node4</title>
<g id="a_edge4_Node000003_Node000004"><a xlink:title=" ">
<path fill="none" stroke="#63b8ff" d="M267.06,-9.5C275.4,-9.5 284.1,-9.5 292.73,-9.5"/>
<polygon fill="#63b8ff" stroke="#63b8ff" points="292.8,-13 302.8,-9.5 292.8,-6 292.8,-13"/>
</a>
</g>
</g>
</g>
</svg>
