<?xml version="1.0" encoding="UTF-8" standalone="no"?>
<!DOCTYPE svg PUBLIC "-//W3C//DTD SVG 1.1//EN"
 "http://www.w3.org/Graphics/SVG/1.1/DTD/svg11.dtd">
<!-- Generated by graphviz version 2.43.0 (0)
 -->
<!-- Title: third_party/libhelix_mp3/pub/mp3common.h Pages: 1 -->
<svg width="336pt" height="148pt"
 viewBox="0.00 0.00 335.50 148.00" xmlns="http://www.w3.org/2000/svg" xmlns:xlink="http://www.w3.org/1999/xlink">
<g id="graph0" class="graph" transform="scale(1 1) rotate(0) translate(4 144)">
<title>third_party/libhelix_mp3/pub/mp3common.h</title>
<!-- Node1 -->
<g id="Node000001" class="node">
<title>Node1</title>
<g id="a_Node000001"><a xlink:title=" ">
<polygon fill="#999999" stroke="#666666" points="244,-140 103,-140 103,-110 244,-110 244,-140"/>
<text text-anchor="start" x="111" y="-128" font-family="Helvetica,sans-Serif" font-size="10.00">third_party/libhelix</text>
<text text-anchor="middle" x="173.5" y="-117" font-family="Helvetica,sans-Serif" font-size="10.00">_mp3/pub/mp3common.h</text>
</a>
</g>
</g>
<!-- Node2 -->
<g id="Node000002" class="node">
<title>Node2</title>
<g id="a_Node000002"><a xlink:href="../../df/dd8/stdint_8h.html" target="_top" xlink:title=" ">
<polygon fill="white" stroke="#666666" points="104,-74 27,-74 27,-55 104,-55 104,-74"/>
<text text-anchor="middle" x="65.5" y="-62" font-family="Helvetica,sans-Serif" font-size="10.00">fl/stl/stdint.h</text>
</a>
</g>
</g>
<!-- Node1&#45;&gt;Node2 -->
<g id="edge1_Node000001_Node000002" class="edge">
<title>Node1&#45;&gt;Node2</title>
<g id="a_edge1_Node000001_Node000002"><a xlink:title=" ">
<path fill="none" stroke="#63b8ff" d="M147.63,-109.99C130.26,-100.58 107.49,-88.24 90.33,-78.95"/>
<polygon fill="#63b8ff" stroke="#63b8ff" points="91.91,-75.82 81.45,-74.14 88.58,-81.98 91.91,-75.82"/>
</a>
</g>
</g>
<!-- Node4 -->
<g id="Node000004" class="node">
<title>Node4</title>
<g id="a_Node000004"><a xlink:href="../../db/d01/noexcept_8h.html" target="_top" xlink:title=" ">
<polygon fill="white" stroke="#666666" points="202,-19 107,-19 107,0 202,0 202,-19"/>
<text text-anchor="middle" x="154.5" y="-7" font-family="Helvetica,sans-Serif" font-size="10.00">fl/stl/noexcept.h</text>
</a>
</g>
</g>
<!-- Node1&#45;&gt;Node4 -->
<g id="edge3_Node000001_Node000004" class="edge">
<title>Node1&#45;&gt;Node4</title>
<g id="a_edge3_Node000001_Node000004"><a xlink:title=" ">
<path fill="none" stroke="#63b8ff" d="M169.97,-109.63C167.62,-99.67 164.59,-86.09 162.5,-74 159.92,-59.08 157.82,-42.05 156.42,-29.38"/>
<polygon fill="#63b8ff" stroke="#63b8ff" points="159.87,-28.74 155.34,-19.16 152.91,-29.48 159.87,-28.74"/>
</a>
</g>
</g>
<!-- Node5 -->
<g id="Node000005" class="node">
<title>Node5</title>
<g id="a_Node000005"><a xlink:href="../../d5/db1/mp3dec_8h.html" target="_top" xlink:title=" ">
<polygon fill="white" stroke="#666666" points="237,-74 172,-74 172,-55 237,-55 237,-74"/>
<text text-anchor="middle" x="204.5" y="-62" font-family="Helvetica,sans-Serif" font-size="10.00">mp3dec.h</text>
</a>
</g>
</g>
<!-- Node1&#45;&gt;Node5 -->
<g id="edge4_Node000001_Node000005" class="edge">
<title>Node1&#45;&gt;Node5</title>
<g id="a_edge4_Node000001_Node000005"><a xlink:title=" ">
<path fill="none" stroke="#63b8ff" d="M181,-109.84C185.23,-101.87 190.54,-91.84 195.05,-83.33"/>
<polygon fill="#63b8ff" stroke="#63b8ff" points="198.27,-84.74 199.85,-74.27 192.08,-81.46 198.27,-84.74"/>
</a>
</g>
</g>
<!-- Node7 -->
<g id="Node000007" class="node">
<title>Node7</title>
<g id="a_Node000007"><a xlink:href="../../d9/d4b/statname_8h.html" target="_top" xlink:title=" ">
<polygon fill="white" stroke="#666666" points="327.5,-74 255.5,-74 255.5,-55 327.5,-55 327.5,-74"/>
<text text-anchor="middle" x="291.5" y="-62" font-family="Helvetica,sans-Serif" font-size="10.00">statname.h</text>
</a>
</g>
</g>
<!-- Node1&#45;&gt;Node7 -->
<g id="edge7_Node000001_Node000007" class="edge">
<title>Node1&#45;&gt;Node7</title>
<g id="a_edge7_Node000001_Node000007"><a xlink:title=" ">
<path fill="none" stroke="#63b8ff" d="M201.76,-109.99C220.92,-100.49 246.08,-88.02 264.89,-78.69"/>
<polygon fill="#63b8ff" stroke="#63b8ff" points="266.67,-81.72 274.07,-74.14 263.56,-75.45 266.67,-81.72"/>
</a>
</g>
</g>
<!-- Node3 -->
<g id="Node000003" class="node">
<title>Node3</title>
<g id="a_Node000003"><a xlink:title=" ">
<polygon fill="#e0e0e0" stroke="#999999" points="89,-19 0,-19 0,0 89,0 89,-19"/>
<text text-anchor="middle" x="44.5" y="-7" font-family="Helvetica,sans-Serif" font-size="10.00">platforms/int.h</text>
</a>
</g>
</g>
<!-- Node2&#45;&gt;Node3 -->
<g id="edge2_Node000002_Node000003" class="edge">
<title>Node2&#45;&gt;Node3</title>
<g id="a_edge2_Node000002_Node000003"><a xlink:title=" ">
<path fill="none" stroke="#63b8ff" d="M62.03,-54.75C59.22,-47.65 55.16,-37.4 51.65,-28.56"/>
<polygon fill="#63b8ff" stroke="#63b8ff" points="54.84,-27.1 47.9,-19.09 48.33,-29.68 54.84,-27.1"/>
</a>
</g>
</g>
<!-- Node5&#45;&gt;Node4 -->
<g id="edge6_Node000005_Node000004" class="edge">
<title>Node5&#45;&gt;Node4</title>
<g id="a_edge6_Node000005_Node000004"><a xlink:title=" ">
<path fill="none" stroke="#63b8ff" d="M196.24,-54.75C189.04,-47.11 178.39,-35.82 169.65,-26.56"/>
<polygon fill="#63b8ff" stroke="#63b8ff" points="172.01,-23.96 162.6,-19.09 166.92,-28.76 172.01,-23.96"/>
</a>
</g>
</g>
<!-- Node6 -->
<g id="Node000006" class="node">
<title>Node6</title>
<g id="a_Node000006"><a xlink:href="../../d7/d84/cstddef_8h.html" target="_top" xlink:title=" ">
<polygon fill="white" stroke="#666666" points="305,-19 220,-19 220,0 305,0 305,-19"/>
<text text-anchor="middle" x="262.5" y="-7" font-family="Helvetica,sans-Serif" font-size="10.00">fl/stl/cstddef.h</text>
</a>
</g>
</g>
<!-- Node5&#45;&gt;Node6 -->
<g id="edge5_Node000005_Node000006" class="edge">
<title>Node5&#45;&gt;Node6</title>
<g id="a_edge5_Node000005_Node000006"><a xlink:title=" ">
<path fill="none" stroke="#63b8ff" d="M213.82,-54.98C222.31,-47.23 235.06,-35.58 245.38,-26.14"/>
<polygon fill="#63b8ff" stroke="#63b8ff" points="247.99,-28.5 253.01,-19.17 243.27,-23.33 247.99,-28.5"/>
</a>
</g>
</g>
</g>
</svg>
