<?xml version="1.0" encoding="UTF-8" standalone="no"?>
<!DOCTYPE svg PUBLIC "-//W3C//DTD SVG 1.1//EN"
 "http://www.w3.org/Graphics/SVG/1.1/DTD/svg11.dtd">
<!-- Generated by graphviz version 2.43.0 (0)
 -->
<!-- Title: fl::function&lt; T &gt; Pages: 1 -->
<svg width="451pt" height="1361pt"
 viewBox="0.00 0.00 451.00 1360.53" xmlns="http://www.w3.org/2000/svg" xmlns:xlink="http://www.w3.org/1999/xlink">
<g id="graph0" class="graph" transform="scale(1 1) rotate(0) translate(4 1356.53)">
<title>fl::function&lt; T &gt;</title>
<!-- Node1 -->
<g id="Node000001" class="node">
<title>Node1</title>
<g id="a_Node000001"><a xlink:title=" ">
<polygon fill="#999999" stroke="#666666" points="97,-720.03 0,-720.03 0,-701.03 97,-701.03 97,-720.03"/>
<text text-anchor="middle" x="48.5" y="-708.03" font-family="Helvetica,sans-Serif" font-size="10.00">fl::function&lt; T &gt;</text>
</a>
</g>
</g>
<!-- Node2 -->
<g id="Node000002" class="node">
<title>Node2</title>
<g id="a_Node000002"><a xlink:href="../../d4/d36/namespacefl.html#d4/d36/namespacefl" target="_top" xlink:title=" ">
<polygon fill="white" stroke="#666666" points="421.5,-1331.53 311.5,-1331.53 311.5,-1279.53 421.5,-1279.53 421.5,-1331.53"/>
<text text-anchor="start" x="319.5" y="-1319.53" font-family="Helvetica,sans-Serif" font-size="10.00">fl::function&lt; void</text>
<text text-anchor="start" x="319.5" y="-1308.53" font-family="Helvetica,sans-Serif" font-size="10.00">(fl::span&lt; const u8</text>
<text text-anchor="start" x="319.5" y="-1297.53" font-family="Helvetica,sans-Serif" font-size="10.00"> &gt; src, fl::span&lt; u8</text>
<text text-anchor="middle" x="366.5" y="-1286.53" font-family="Helvetica,sans-Serif" font-size="10.00"> &gt; dst)&gt;</text>
</a>
</g>
</g>
<!-- Node1&#45;&gt;Node2 -->
<g id="edge1_Node000001_Node000002" class="edge">
<title>Node1&#45;&gt;Node2</title>
<g id="a_edge1_Node000001_Node000002"><a xlink:title=" ">
<path fill="none" stroke="orange" stroke-dasharray="5,2" d="M50.39,-730.52C54.82,-826.14 75.94,-1234.03 115,-1273.53 165.56,-1324.66 254.14,-1323.41 311.28,-1315.91"/>
<polygon fill="orange" stroke="orange" points="53.88,-730.28 49.93,-720.45 46.89,-730.6 53.88,-730.28"/>
</a>
</g>
<text text-anchor="start" x="137.5" y="-1344.53" font-family="Helvetica,sans-Serif" font-size="10.00" fill="grey"> &lt; void(fl::span&lt; const</text>
<text text-anchor="start" x="137.5" y="-1333.53" font-family="Helvetica,sans-Serif" font-size="10.00" fill="grey"> u8 &gt; src, fl::span&lt; u8</text>
<text text-anchor="middle" x="193.5" y="-1322.53" font-family="Helvetica,sans-Serif" font-size="10.00" fill="grey"> &gt; dst)&gt;</text>
</g>
<!-- Node3 -->
<g id="Node000003" class="node">
<title>Node3</title>
<g id="a_Node000003"><a xlink:href="../../d4/d36/namespacefl.html#d4/d36/namespacefl" target="_top" xlink:title=" ">
<polygon fill="white" stroke="#666666" points="437.5,-1261.53 295.5,-1261.53 295.5,-1231.53 437.5,-1231.53 437.5,-1261.53"/>
<text text-anchor="start" x="303.5" y="-1249.53" font-family="Helvetica,sans-Serif" font-size="10.00">fl::function&lt; void</text>
<text text-anchor="middle" x="366.5" y="-1238.53" font-family="Helvetica,sans-Serif" font-size="10.00">(const audio::Sample &amp;)&gt;</text>
</a>
</g>
</g>
<!-- Node1&#45;&gt;Node3 -->
<g id="edge2_Node000001_Node000003" class="edge">
<title>Node1&#45;&gt;Node3</title>
<g id="a_edge2_Node000001_Node000003"><a xlink:title=" ">
<path fill="none" stroke="orange" stroke-dasharray="5,2" d="M50.63,-730.56C55.9,-820.54 79.33,-1184.59 115,-1219.53 139.8,-1243.83 230.17,-1248.38 295.25,-1248.32"/>
<polygon fill="orange" stroke="orange" points="54.11,-730.14 50.04,-720.36 47.12,-730.54 54.11,-730.14"/>
</a>
</g>
<text text-anchor="start" x="145.5" y="-1261.53" font-family="Helvetica,sans-Serif" font-size="10.00" fill="grey"> &lt; void(const audio</text>
<text text-anchor="middle" x="193.5" y="-1250.53" font-family="Helvetica,sans-Serif" font-size="10.00" fill="grey">::Sample &amp;)&gt;</text>
</g>
<!-- Node4 -->
<g id="Node000004" class="node">
<title>Node4</title>
<g id="a_Node000004"><a xlink:href="../../d4/d36/namespacefl.html#d4/d36/namespacefl" target="_top" xlink:title=" ">
<polygon fill="white" stroke="#666666" points="424.5,-1213.03 308.5,-1213.03 308.5,-1194.03 424.5,-1194.03 424.5,-1213.03"/>
<text text-anchor="middle" x="366.5" y="-1201.03" font-family="Helvetica,sans-Serif" font-size="10.00">fl::function&lt; bool()&gt;</text>
</a>
</g>
</g>
<!-- Node1&#45;&gt;Node4 -->
<g id="edge3_Node000001_Node000004" class="edge">
<title>Node1&#45;&gt;Node4</title>
<g id="a_edge3_Node000001_Node000004"><a xlink:title=" ">
<path fill="none" stroke="orange" stroke-dasharray="5,2" d="M49.2,-730.62C48.45,-811.73 50.11,-1113.7 115,-1176.53 141.67,-1202.36 243.11,-1205.81 308.44,-1205.2"/>
<polygon fill="orange" stroke="orange" points="52.71,-730.35 49.32,-720.31 45.71,-730.27 52.71,-730.35"/>
</a>
</g>
<text text-anchor="middle" x="193.5" y="-1207.53" font-family="Helvetica,sans-Serif" font-size="10.00" fill="grey"> &lt; bool()&gt;</text>
</g>
<!-- Node5 -->
<g id="Node000005" class="node">
<title>Node5</title>
<g id="a_Node000005"><a xlink:href="../../d4/d36/namespacefl.html#d4/d36/namespacefl" target="_top" xlink:title=" ">
<polygon fill="white" stroke="#666666" points="420,-1175.53 313,-1175.53 313,-1145.53 420,-1145.53 420,-1175.53"/>
<text text-anchor="start" x="321" y="-1163.53" font-family="Helvetica,sans-Serif" font-size="10.00">fl::function&lt; CRGB</text>
<text text-anchor="middle" x="366.5" y="-1152.53" font-family="Helvetica,sans-Serif" font-size="10.00">(u8 index)&gt;</text>
</a>
</g>
</g>
<!-- Node1&#45;&gt;Node5 -->
<g id="edge4_Node000001_Node000005" class="edge">
<title>Node1&#45;&gt;Node5</title>
<g id="a_edge4_Node000001_Node000005"><a xlink:title=" ">
<path fill="none" stroke="orange" stroke-dasharray="5,2" d="M49.52,-730.21C50.01,-805.95 55.95,-1077.16 115,-1133.53 142.45,-1159.74 247.75,-1162.82 312.77,-1162.09"/>
<polygon fill="orange" stroke="orange" points="53.02,-730.14 49.48,-720.15 46.02,-730.17 53.02,-730.14"/>
</a>
</g>
<text text-anchor="middle" x="193.5" y="-1164.53" font-family="Helvetica,sans-Serif" font-size="10.00" fill="grey"> &lt; CRGB(u8 index)&gt;</text>
</g>
<!-- Node6 -->
<g id="Node000006" class="node">
<title>Node6</title>
<g id="a_Node000006"><a xlink:href="../../d4/d36/namespacefl.html#d4/d36/namespacefl" target="_top" xlink:title=" ">
<polygon fill="white" stroke="#666666" points="431,-1127.03 302,-1127.03 302,-1108.03 431,-1108.03 431,-1127.03"/>
<text text-anchor="middle" x="366.5" y="-1115.03" font-family="Helvetica,sans-Serif" font-size="10.00">fl::function&lt; u8(float)&gt;</text>
</a>
</g>
</g>
<!-- Node1&#45;&gt;Node6 -->
<g id="edge5_Node000001_Node000006" class="edge">
<title>Node1&#45;&gt;Node6</title>
<g id="a_edge5_Node000001_Node000006"><a xlink:title=" ">
<path fill="none" stroke="orange" stroke-dasharray="5,2" d="M49.9,-730.45C51.76,-801.48 61.94,-1040.73 115,-1090.53 141.15,-1115.08 236.6,-1119.26 301.83,-1119.09"/>
<polygon fill="orange" stroke="orange" points="53.39,-730.13 49.66,-720.22 46.4,-730.3 53.39,-730.13"/>
</a>
</g>
<text text-anchor="middle" x="193.5" y="-1121.53" font-family="Helvetica,sans-Serif" font-size="10.00" fill="grey"> &lt; u8(float)&gt;</text>
</g>
<!-- Node7 -->
<g id="Node000007" class="node">
<title>Node7</title>
<g id="a_Node000007"><a xlink:href="../../d4/d36/namespacefl.html#d4/d36/namespacefl" target="_top" xlink:title=" ">
<polygon fill="white" stroke="#666666" points="426,-1089.53 307,-1089.53 307,-1059.53 426,-1059.53 426,-1089.53"/>
<text text-anchor="start" x="315" y="-1077.53" font-family="Helvetica,sans-Serif" font-size="10.00">fl::function&lt; void</text>
<text text-anchor="middle" x="366.5" y="-1066.53" font-family="Helvetica,sans-Serif" font-size="10.00">(const Response &amp;)&gt;</text>
</a>
</g>
</g>
<!-- Node1&#45;&gt;Node7 -->
<g id="edge6_Node000001_Node000007" class="edge">
<title>Node1&#45;&gt;Node7</title>
<g id="a_edge6_Node000001_Node000007"><a xlink:title=" ">
<path fill="none" stroke="orange" stroke-dasharray="5,2" d="M50.35,-730.35C53.61,-796.06 67.59,-1005.12 115,-1048.53 142.13,-1073.37 241.8,-1076.79 306.94,-1076.22"/>
<polygon fill="orange" stroke="orange" points="53.84,-729.95 49.88,-720.13 46.84,-730.28 53.84,-729.95"/>
</a>
</g>
<text text-anchor="middle" x="193.5" y="-1078.53" font-family="Helvetica,sans-Serif" font-size="10.00" fill="grey"> &lt; void(const Response &amp;)&gt;</text>
</g>
<!-- Node8 -->
<g id="Node000008" class="node">
<title>Node8</title>
<g id="a_Node000008"><a xlink:href="../../d4/d36/namespacefl.html#d4/d36/namespacefl" target="_top" xlink:title=" ">
<polygon fill="white" stroke="#666666" points="424.5,-1041.03 308.5,-1041.03 308.5,-1022.03 424.5,-1022.03 424.5,-1041.03"/>
<text text-anchor="middle" x="366.5" y="-1029.03" font-family="Helvetica,sans-Serif" font-size="10.00">fl::function&lt; void()&gt;</text>
</a>
</g>
</g>
<!-- Node1&#45;&gt;Node8 -->
<g id="edge7_Node000001_Node000008" class="edge">
<title>Node1&#45;&gt;Node8</title>
<g id="a_edge7_Node000001_Node000008"><a xlink:title=" ">
<path fill="none" stroke="orange" stroke-dasharray="5,2" d="M50.87,-730.43C55.49,-791.15 72.64,-972.28 115,-1009.53 142.74,-1033.93 243.29,-1035.69 308.26,-1034.07"/>
<polygon fill="orange" stroke="orange" points="54.35,-729.98 50.13,-720.26 47.37,-730.48 54.35,-729.98"/>
</a>
</g>
<text text-anchor="middle" x="193.5" y="-1036.53" font-family="Helvetica,sans-Serif" font-size="10.00" fill="grey"> &lt; void()&gt;</text>
</g>
<!-- Node9 -->
<g id="Node000009" class="node">
<title>Node9</title>
<g id="a_Node000009"><a xlink:href="../../d4/d36/namespacefl.html#d4/d36/namespacefl" target="_top" xlink:title=" ">
<polygon fill="white" stroke="#666666" points="422.5,-1004.03 310.5,-1004.03 310.5,-963.03 422.5,-963.03 422.5,-1004.03"/>
<text text-anchor="start" x="318.5" y="-992.03" font-family="Helvetica,sans-Serif" font-size="10.00">fl::function&lt; void</text>
<text text-anchor="start" x="318.5" y="-981.03" font-family="Helvetica,sans-Serif" font-size="10.00">(size_t written, size</text>
<text text-anchor="middle" x="366.5" y="-970.03" font-family="Helvetica,sans-Serif" font-size="10.00">_t total)&gt;</text>
</a>
</g>
</g>
<!-- Node1&#45;&gt;Node9 -->
<g id="edge8_Node000001_Node000009" class="edge">
<title>Node1&#45;&gt;Node9</title>
<g id="a_edge8_Node000001_Node000009"><a xlink:title=" ">
<path fill="none" stroke="orange" stroke-dasharray="5,2" d="M51.83,-730.53C58.53,-784.2 79.62,-929.46 115,-959.53 143.46,-983.73 245.67,-986.31 310.4,-985.35"/>
<polygon fill="orange" stroke="orange" points="55.27,-729.78 50.59,-720.27 48.32,-730.62 55.27,-729.78"/>
</a>
</g>
<text text-anchor="start" x="139" y="-998.53" font-family="Helvetica,sans-Serif" font-size="10.00" fill="grey"> &lt; void(size_t written,</text>
<text text-anchor="middle" x="193.5" y="-987.53" font-family="Helvetica,sans-Serif" font-size="10.00" fill="grey"> size_t total)&gt;</text>
</g>
<!-- Node10 -->
<g id="Node000010" class="node">
<title>Node10</title>
<g id="a_Node000010"><a xlink:href="../../d4/d36/namespacefl.html#d4/d36/namespacefl" target="_top" xlink:title=" ">
<polygon fill="white" stroke="#666666" points="434,-944.53 299,-944.53 299,-914.53 434,-914.53 434,-944.53"/>
<text text-anchor="start" x="307" y="-932.53" font-family="Helvetica,sans-Serif" font-size="10.00">fl::function&lt; void</text>
<text text-anchor="middle" x="366.5" y="-921.53" font-family="Helvetica,sans-Serif" font-size="10.00">(const char *message)&gt;</text>
</a>
</g>
</g>
<!-- Node1&#45;&gt;Node10 -->
<g id="edge9_Node000001_Node000010" class="edge">
<title>Node1&#45;&gt;Node10</title>
<g id="a_edge9_Node000001_Node000010"><a xlink:title=" ">
<path fill="none" stroke="orange" stroke-dasharray="5,2" d="M49.52,-730.53C50.76,-771.08 59.85,-862.85 115,-906.53 166.44,-947.28 243.78,-948.12 298.91,-941.86"/>
<polygon fill="orange" stroke="orange" points="53.02,-730.26 49.35,-720.32 46.02,-730.38 53.02,-730.26"/>
</a>
</g>
<text text-anchor="middle" x="193.5" y="-947.53" font-family="Helvetica,sans-Serif" font-size="10.00" fill="grey"> &lt; void(const char *message)&gt;</text>
</g>
<!-- Node11 -->
<g id="Node000011" class="node">
<title>Node11</title>
<g id="a_Node000011"><a xlink:href="../../d4/d36/namespacefl.html#d4/d36/namespacefl" target="_top" xlink:title=" ">
<polygon fill="white" stroke="#666666" points="417,-896.53 316,-896.53 316,-866.53 417,-866.53 417,-896.53"/>
<text text-anchor="start" x="324" y="-884.53" font-family="Helvetica,sans-Serif" font-size="10.00">fl::function&lt; void</text>
<text text-anchor="middle" x="366.5" y="-873.53" font-family="Helvetica,sans-Serif" font-size="10.00">(u8 state)&gt;</text>
</a>
</g>
</g>
<!-- Node1&#45;&gt;Node11 -->
<g id="edge10_Node000001_Node000011" class="edge">
<title>Node1&#45;&gt;Node11</title>
<g id="a_edge10_Node000001_Node000011"><a xlink:title=" ">
<path fill="none" stroke="orange" stroke-dasharray="5,2" d="M52.35,-730.47C58.05,-762.26 74.02,-823.88 115,-853.53 173.68,-895.98 261.18,-895.25 315.72,-889.43"/>
<polygon fill="orange" stroke="orange" points="55.75,-729.53 50.69,-720.22 48.84,-730.65 55.75,-729.53"/>
</a>
</g>
<text text-anchor="middle" x="193.5" y="-894.53" font-family="Helvetica,sans-Serif" font-size="10.00" fill="grey"> &lt; void(u8 state)&gt;</text>
</g>
<!-- Node12 -->
<g id="Node000012" class="node">
<title>Node12</title>
<g id="a_Node000012"><a xlink:href="../../d4/d36/namespacefl.html#d4/d36/namespacefl" target="_top" xlink:title=" ">
<polygon fill="white" stroke="#666666" points="419.5,-848.03 313.5,-848.03 313.5,-829.03 419.5,-829.03 419.5,-848.03"/>
<text text-anchor="middle" x="366.5" y="-836.03" font-family="Helvetica,sans-Serif" font-size="10.00">fl::function&lt; Sig &gt;</text>
</a>
</g>
</g>
<!-- Node1&#45;&gt;Node12 -->
<g id="edge11_Node000001_Node000012" class="edge">
<title>Node1&#45;&gt;Node12</title>
<g id="a_edge11_Node000001_Node000012"><a xlink:title=" ">
<path fill="none" stroke="orange" stroke-dasharray="5,2" d="M55.46,-730.02C64.17,-754.8 82.92,-796.76 115,-816.53 147.1,-836.32 249.95,-839.42 313.44,-839.34"/>
<polygon fill="orange" stroke="orange" points="58.7,-728.67 52.24,-720.27 52.05,-730.86 58.7,-728.67"/>
</a>
</g>
<text text-anchor="middle" x="193.5" y="-841.53" font-family="Helvetica,sans-Serif" font-size="10.00" fill="grey"> &lt; Sig &gt;</text>
</g>
<!-- Node13 -->
<g id="Node000013" class="node">
<title>Node13</title>
<g id="a_Node000013"><a xlink:href="../../d4/d36/namespacefl.html#d4/d36/namespacefl" target="_top" xlink:title=" ">
<polygon fill="white" stroke="#666666" points="433,-811.03 300,-811.03 300,-792.03 433,-792.03 433,-811.03"/>
<text text-anchor="middle" x="366.5" y="-799.03" font-family="Helvetica,sans-Serif" font-size="10.00">fl::function&lt; R(Args...)&gt;</text>
</a>
</g>
</g>
<!-- Node1&#45;&gt;Node13 -->
<g id="edge12_Node000001_Node000013" class="edge">
<title>Node1&#45;&gt;Node13</title>
<g id="a_edge12_Node000001_Node000013"><a xlink:title=" ">
<path fill="none" stroke="orange" stroke-dasharray="5,2" d="M62.36,-728.19C74.23,-743.01 93.27,-763.34 115,-773.53 173.34,-800.9 247.44,-806.05 299.87,-805.48"/>
<polygon fill="orange" stroke="orange" points="65.11,-726.02 56.24,-720.23 59.56,-730.29 65.11,-726.02"/>
</a>
</g>
<text text-anchor="middle" x="193.5" y="-807.53" font-family="Helvetica,sans-Serif" font-size="10.00" fill="grey"> &lt; R(Args...)&gt;</text>
</g>
<!-- Node14 -->
<g id="Node000014" class="node">
<title>Node14</title>
<g id="a_Node000014"><a xlink:href="../../d4/d36/namespacefl.html#d4/d36/namespacefl" target="_top" xlink:title=" ">
<polygon fill="white" stroke="#666666" points="432,-773.53 301,-773.53 301,-743.53 432,-743.53 432,-773.53"/>
<text text-anchor="start" x="309" y="-761.53" font-family="Helvetica,sans-Serif" font-size="10.00">fl::function&lt; fl::optional</text>
<text text-anchor="middle" x="366.5" y="-750.53" font-family="Helvetica,sans-Serif" font-size="10.00">&lt; fl::json &gt;()&gt;</text>
</a>
</g>
</g>
<!-- Node1&#45;&gt;Node14 -->
<g id="edge13_Node000001_Node000014" class="edge">
<title>Node1&#45;&gt;Node14</title>
<g id="a_edge13_Node000001_Node000014"><a xlink:title=" ">
<path fill="none" stroke="orange" stroke-dasharray="5,2" d="M98.44,-722.27C104.01,-723.45 109.62,-724.56 115,-725.53 177.82,-736.84 250.15,-745.95 300.89,-751.71"/>
<polygon fill="orange" stroke="orange" points="99.03,-718.82 88.51,-720.1 97.54,-725.65 99.03,-718.82"/>
</a>
</g>
<text text-anchor="start" x="151.5" y="-761.53" font-family="Helvetica,sans-Serif" font-size="10.00" fill="grey"> &lt; fl::optional&lt; fl</text>
<text text-anchor="middle" x="193.5" y="-750.53" font-family="Helvetica,sans-Serif" font-size="10.00" fill="grey">::json &gt;()&gt;</text>
</g>
<!-- Node15 -->
<g id="Node000015" class="node">
<title>Node15</title>
<g id="a_Node000015"><a xlink:href="../../d4/d36/namespacefl.html#d4/d36/namespacefl" target="_top" xlink:title=" ">
<polygon fill="white" stroke="#666666" points="418.5,-725.53 314.5,-725.53 314.5,-695.53 418.5,-695.53 418.5,-725.53"/>
<text text-anchor="start" x="322.5" y="-713.53" font-family="Helvetica,sans-Serif" font-size="10.00">fl::function&lt; void</text>
<text text-anchor="middle" x="366.5" y="-702.53" font-family="Helvetica,sans-Serif" font-size="10.00">(const fl::json &amp;)&gt;</text>
</a>
</g>
</g>
<!-- Node1&#45;&gt;Node15 -->
<g id="edge14_Node000001_Node000015" class="edge">
<title>Node1&#45;&gt;Node15</title>
<g id="a_edge14_Node000001_Node000015"><a xlink:title=" ">
<path fill="none" stroke="orange" stroke-dasharray="5,2" d="M107.46,-710.53C166.66,-710.53 257.69,-710.53 314.31,-710.53"/>
<polygon fill="orange" stroke="orange" points="107.15,-707.03 97.15,-710.53 107.15,-714.03 107.15,-707.03"/>
</a>
</g>
<text text-anchor="middle" x="193.5" y="-713.53" font-family="Helvetica,sans-Serif" font-size="10.00" fill="grey"> &lt; void(const fl::json &amp;)&gt;</text>
</g>
<!-- Node16 -->
<g id="Node000016" class="node">
<title>Node16</title>
<g id="a_Node000016"><a xlink:href="../../d4/d36/namespacefl.html#d4/d36/namespacefl" target="_top" xlink:title=" ">
<polygon fill="white" stroke="#666666" points="422.5,-677.53 310.5,-677.53 310.5,-647.53 422.5,-647.53 422.5,-677.53"/>
<text text-anchor="start" x="318.5" y="-665.53" font-family="Helvetica,sans-Serif" font-size="10.00">fl::function&lt; fl::json</text>
<text text-anchor="middle" x="366.5" y="-654.53" font-family="Helvetica,sans-Serif" font-size="10.00">(const fl::json &amp;)&gt;</text>
</a>
</g>
</g>
<!-- Node1&#45;&gt;Node16 -->
<g id="edge15_Node000001_Node000016" class="edge">
<title>Node1&#45;&gt;Node16</title>
<g id="a_edge15_Node000001_Node000016"><a xlink:title=" ">
<path fill="none" stroke="orange" stroke-dasharray="5,2" d="M78.38,-696.97C89.58,-692.28 102.66,-687.46 115,-684.53 180.84,-668.93 258.79,-664.15 310.04,-662.82"/>
<polygon fill="orange" stroke="orange" points="76.85,-693.82 69.08,-701.02 79.65,-700.24 76.85,-693.82"/>
</a>
</g>
<text text-anchor="start" x="150.5" y="-698.53" font-family="Helvetica,sans-Serif" font-size="10.00" fill="grey"> &lt; fl::json(const fl</text>
<text text-anchor="middle" x="193.5" y="-687.53" font-family="Helvetica,sans-Serif" font-size="10.00" fill="grey">::json &amp;)&gt;</text>
</g>
<!-- Node17 -->
<g id="Node000017" class="node">
<title>Node17</title>
<g id="a_Node000017"><a xlink:href="../../d4/d36/namespacefl.html#d4/d36/namespacefl" target="_top" xlink:title=" ">
<polygon fill="white" stroke="#666666" points="417,-629.53 316,-629.53 316,-599.53 417,-599.53 417,-629.53"/>
<text text-anchor="start" x="324" y="-617.53" font-family="Helvetica,sans-Serif" font-size="10.00">fl::function&lt; void</text>
<text text-anchor="middle" x="366.5" y="-606.53" font-family="Helvetica,sans-Serif" font-size="10.00">(Args...)&gt;</text>
</a>
</g>
</g>
<!-- Node1&#45;&gt;Node17 -->
<g id="edge16_Node000001_Node000017" class="edge">
<title>Node1&#45;&gt;Node17</title>
<g id="a_edge16_Node000001_Node000017"><a xlink:title=" ">
<path fill="none" stroke="orange" stroke-dasharray="5,2" d="M63.22,-692.39C75.2,-677.97 93.95,-658.61 115,-648.53 179.53,-617.65 263.44,-612.31 315.89,-612.51"/>
<polygon fill="orange" stroke="orange" points="60.17,-690.6 56.67,-700.6 65.64,-694.97 60.17,-690.6"/>
</a>
</g>
<text text-anchor="middle" x="193.5" y="-651.53" font-family="Helvetica,sans-Serif" font-size="10.00" fill="grey"> &lt; void(Args...)&gt;</text>
</g>
<!-- Node18 -->
<g id="Node000018" class="node">
<title>Node18</title>
<g id="a_Node000018"><a xlink:href="../../d4/d36/namespacefl.html#d4/d36/namespacefl" target="_top" xlink:title=" ">
<polygon fill="white" stroke="#666666" points="441,-581.03 292,-581.03 292,-540.03 441,-540.03 441,-581.03"/>
<text text-anchor="start" x="300" y="-569.03" font-family="Helvetica,sans-Serif" font-size="10.00">fl::function&lt; void</text>
<text text-anchor="start" x="300" y="-558.03" font-family="Helvetica,sans-Serif" font-size="10.00">(const error_code &amp;ec,</text>
<text text-anchor="middle" x="366.5" y="-547.03" font-family="Helvetica,sans-Serif" font-size="10.00"> size_t bytes_transferred)&gt;</text>
</a>
</g>
</g>
<!-- Node1&#45;&gt;Node18 -->
<g id="edge17_Node000001_Node000018" class="edge">
<title>Node1&#45;&gt;Node18</title>
<g id="a_edge17_Node000001_Node000018"><a xlink:title=" ">
<path fill="none" stroke="orange" stroke-dasharray="5,2" d="M52.78,-690.76C58.97,-660.39 75.5,-602.98 115,-576.53 166.6,-541.99 238.37,-540.94 291.87,-546.81"/>
<polygon fill="orange" stroke="orange" points="49.27,-690.49 50.88,-700.96 56.15,-691.77 49.27,-690.49"/>
</a>
</g>
<text text-anchor="start" x="136" y="-601.53" font-family="Helvetica,sans-Serif" font-size="10.00" fill="grey"> &lt; void(const error</text>
<text text-anchor="start" x="136" y="-590.53" font-family="Helvetica,sans-Serif" font-size="10.00" fill="grey">_code &amp;ec, size_t bytes</text>
<text text-anchor="middle" x="193.5" y="-579.53" font-family="Helvetica,sans-Serif" font-size="10.00" fill="grey">_transferred)&gt;</text>
</g>
<!-- Node19 -->
<g id="Node000019" class="node">
<title>Node19</title>
<g id="a_Node000019"><a xlink:href="../../d4/d36/namespacefl.html#d4/d36/namespacefl" target="_top" xlink:title=" ">
<polygon fill="white" stroke="#666666" points="434,-521.53 299,-521.53 299,-491.53 434,-491.53 434,-521.53"/>
<text text-anchor="start" x="307" y="-509.53" font-family="Helvetica,sans-Serif" font-size="10.00">fl::function&lt; void</text>
<text text-anchor="middle" x="366.5" y="-498.53" font-family="Helvetica,sans-Serif" font-size="10.00">(const error_code &amp;ec)&gt;</text>
</a>
</g>
</g>
<!-- Node1&#45;&gt;Node19 -->
<g id="edge18_Node000001_Node000019" class="edge">
<title>Node1&#45;&gt;Node19</title>
<g id="a_edge18_Node000001_Node000019"><a xlink:title=" ">
<path fill="none" stroke="orange" stroke-dasharray="5,2" d="M49.46,-690.62C50.59,-650.27 59.5,-559.18 115,-517.53 169.14,-476.9 249.94,-481.58 305.03,-491.5"/>
<polygon fill="orange" stroke="orange" points="45.96,-690.73 49.32,-700.78 52.96,-690.83 45.96,-690.73"/>
</a>
</g>
<text text-anchor="start" x="147.5" y="-531.53" font-family="Helvetica,sans-Serif" font-size="10.00" fill="grey"> &lt; void(const error</text>
<text text-anchor="middle" x="193.5" y="-520.53" font-family="Helvetica,sans-Serif" font-size="10.00" fill="grey">_code &amp;ec)&gt;</text>
</g>
<!-- Node20 -->
<g id="Node000020" class="node">
<title>Node20</title>
<g id="a_Node000020"><a xlink:href="../../d4/d36/namespacefl.html#d4/d36/namespacefl" target="_top" xlink:title=" ">
<polygon fill="white" stroke="#666666" points="430,-473.53 303,-473.53 303,-443.53 430,-443.53 430,-473.53"/>
<text text-anchor="start" x="311" y="-461.53" font-family="Helvetica,sans-Serif" font-size="10.00">fl::function&lt; Response</text>
<text text-anchor="middle" x="366.5" y="-450.53" font-family="Helvetica,sans-Serif" font-size="10.00">(const Request &amp;)&gt;</text>
</a>
</g>
</g>
<!-- Node1&#45;&gt;Node20 -->
<g id="edge19_Node000001_Node000020" class="edge">
<title>Node1&#45;&gt;Node20</title>
<g id="a_edge19_Node000001_Node000020"><a xlink:title=" ">
<path fill="none" stroke="orange" stroke-dasharray="5,2" d="M51.9,-690.73C58.7,-638.23 79.91,-497.6 115,-469.53 169.14,-426.23 252.86,-432.55 308.4,-443.5"/>
<polygon fill="orange" stroke="orange" points="48.41,-690.42 50.64,-700.78 55.36,-691.3 48.41,-690.42"/>
</a>
</g>
<text text-anchor="middle" x="193.5" y="-472.53" font-family="Helvetica,sans-Serif" font-size="10.00" fill="grey"> &lt; Response(const Request &amp;)&gt;</text>
</g>
<!-- Node21 -->
<g id="Node000021" class="node">
<title>Node21</title>
<g id="a_Node000021"><a xlink:href="../../d4/d36/namespacefl.html#d4/d36/namespacefl" target="_top" xlink:title=" ">
<polygon fill="white" stroke="#666666" points="437.5,-425.03 295.5,-425.03 295.5,-384.03 437.5,-384.03 437.5,-425.03"/>
<text text-anchor="start" x="303.5" y="-413.03" font-family="Helvetica,sans-Serif" font-size="10.00">fl::function&lt; void</text>
<text text-anchor="start" x="303.5" y="-402.03" font-family="Helvetica,sans-Serif" font-size="10.00">(bool success, int passed,</text>
<text text-anchor="middle" x="366.5" y="-391.03" font-family="Helvetica,sans-Serif" font-size="10.00"> int total)&gt;</text>
</a>
</g>
</g>
<!-- Node1&#45;&gt;Node21 -->
<g id="edge20_Node000001_Node000021" class="edge">
<title>Node1&#45;&gt;Node21</title>
<g id="a_edge20_Node000001_Node000021"><a xlink:title=" ">
<path fill="none" stroke="orange" stroke-dasharray="5,2" d="M50.7,-690.72C54.84,-629.4 70.85,-444.72 115,-408.53 141.62,-386.72 231.05,-390.34 295.47,-396.3"/>
<polygon fill="orange" stroke="orange" points="47.19,-690.76 50.04,-700.96 54.17,-691.21 47.19,-690.76"/>
</a>
</g>
<text text-anchor="start" x="138.5" y="-422.53" font-family="Helvetica,sans-Serif" font-size="10.00" fill="grey"> &lt; void(bool success,</text>
<text text-anchor="middle" x="193.5" y="-411.53" font-family="Helvetica,sans-Serif" font-size="10.00" fill="grey"> int passed, int total)&gt;</text>
</g>
<!-- Node22 -->
<g id="Node000022" class="node">
<title>Node22</title>
<g id="a_Node000022"><a xlink:href="../../d4/d36/namespacefl.html#d4/d36/namespacefl" target="_top" xlink:title=" ">
<polygon fill="white" stroke="#666666" points="424,-365.53 309,-365.53 309,-335.53 424,-335.53 424,-365.53"/>
<text text-anchor="start" x="317" y="-353.53" font-family="Helvetica,sans-Serif" font-size="10.00">fl::function&lt; fl::vec2</text>
<text text-anchor="middle" x="366.5" y="-342.53" font-family="Helvetica,sans-Serif" font-size="10.00">&lt; float &gt;(float)&gt;</text>
</a>
</g>
</g>
<!-- Node1&#45;&gt;Node22 -->
<g id="edge21_Node000001_Node000022" class="edge">
<title>Node1&#45;&gt;Node22</title>
<g id="a_edge21_Node000001_Node000022"><a xlink:title=" ">
<path fill="none" stroke="orange" stroke-dasharray="5,2" d="M50.19,-690.65C52.98,-623.8 65.67,-408.93 115,-365.53 142.76,-341.11 243.85,-342.48 308.81,-346.18"/>
<polygon fill="orange" stroke="orange" points="46.7,-690.57 49.81,-700.7 53.69,-690.84 46.7,-690.57"/>
</a>
</g>
<text text-anchor="start" x="146.5" y="-379.53" font-family="Helvetica,sans-Serif" font-size="10.00" fill="grey"> &lt; fl::vec2&lt; float &gt;</text>
<text text-anchor="middle" x="193.5" y="-368.53" font-family="Helvetica,sans-Serif" font-size="10.00" fill="grey">(float)&gt;</text>
</g>
<!-- Node23 -->
<g id="Node000023" class="node">
<title>Node23</title>
<g id="a_Node000023"><a xlink:href="../../d4/d36/namespacefl.html#d4/d36/namespacefl" target="_top" xlink:title=" ">
<polygon fill="white" stroke="#666666" points="443,-317.53 290,-317.53 290,-287.53 443,-287.53 443,-317.53"/>
<text text-anchor="start" x="298" y="-305.53" font-family="Helvetica,sans-Serif" font-size="10.00">fl::function&lt; R(fl</text>
<text text-anchor="middle" x="366.5" y="-294.53" font-family="Helvetica,sans-Serif" font-size="10.00">::ResponseSend &amp;, Args...)&gt;</text>
</a>
</g>
</g>
<!-- Node1&#45;&gt;Node23 -->
<g id="edge22_Node000001_Node000023" class="edge">
<title>Node1&#45;&gt;Node23</title>
<g id="a_edge22_Node000001_Node000023"><a xlink:title=" ">
<path fill="none" stroke="orange" stroke-dasharray="5,2" d="M49.69,-690.78C50.84,-618.23 58.87,-368.04 115,-317.53 166.66,-271.05 251.18,-276.67 307.57,-287.51"/>
<polygon fill="orange" stroke="orange" points="46.19,-690.8 49.56,-700.84 53.19,-690.89 46.19,-690.8"/>
</a>
</g>
<text text-anchor="start" x="139" y="-331.53" font-family="Helvetica,sans-Serif" font-size="10.00" fill="grey"> &lt; R(fl::ResponseSend</text>
<text text-anchor="middle" x="193.5" y="-320.53" font-family="Helvetica,sans-Serif" font-size="10.00" fill="grey"> &amp;, Args...)&gt;</text>
</g>
<!-- Node24 -->
<g id="Node000024" class="node">
<title>Node24</title>
<g id="a_Node000024"><a xlink:href="../../d4/d36/namespacefl.html#d4/d36/namespacefl" target="_top" xlink:title=" ">
<polygon fill="white" stroke="#666666" points="425,-269.03 308,-269.03 308,-228.03 425,-228.03 425,-269.03"/>
<text text-anchor="start" x="316" y="-257.03" font-family="Helvetica,sans-Serif" font-size="10.00">fl::function&lt; void</text>
<text text-anchor="start" x="316" y="-246.03" font-family="Helvetica,sans-Serif" font-size="10.00">(fl::ResponseSend &amp;,</text>
<text text-anchor="middle" x="366.5" y="-235.03" font-family="Helvetica,sans-Serif" font-size="10.00"> Args...)&gt;</text>
</a>
</g>
</g>
<!-- Node1&#45;&gt;Node24 -->
<g id="edge23_Node000001_Node000024" class="edge">
<title>Node1&#45;&gt;Node24</title>
<g id="a_edge23_Node000001_Node000024"><a xlink:title=" ">
<path fill="none" stroke="orange" stroke-dasharray="5,2" d="M49.12,-690.67C48.05,-610.5 48.62,-312.25 115,-253.53 167.05,-207.49 251.68,-216.97 307.97,-230.6"/>
<polygon fill="orange" stroke="orange" points="45.62,-690.92 49.28,-700.86 52.62,-690.81 45.62,-690.92"/>
</a>
</g>
<text text-anchor="start" x="132" y="-267.53" font-family="Helvetica,sans-Serif" font-size="10.00" fill="grey"> &lt; void(fl::ResponseSend</text>
<text text-anchor="middle" x="193.5" y="-256.53" font-family="Helvetica,sans-Serif" font-size="10.00" fill="grey"> &amp;, Args...)&gt;</text>
</g>
<!-- Node25 -->
<g id="Node000025" class="node">
<title>Node25</title>
<g id="a_Node000025"><a xlink:href="../../d4/d36/namespacefl.html#d4/d36/namespacefl" target="_top" xlink:title=" ">
<polygon fill="white" stroke="#666666" points="425,-210.03 308,-210.03 308,-169.03 425,-169.03 425,-210.03"/>
<text text-anchor="start" x="316" y="-198.03" font-family="Helvetica,sans-Serif" font-size="10.00">fl::function&lt; void</text>
<text text-anchor="start" x="316" y="-187.03" font-family="Helvetica,sans-Serif" font-size="10.00">(fl::ResponseSend &amp;,</text>
<text text-anchor="middle" x="366.5" y="-176.03" font-family="Helvetica,sans-Serif" font-size="10.00"> const fl::json &amp;)&gt;</text>
</a>
</g>
</g>
<!-- Node1&#45;&gt;Node25 -->
<g id="edge24_Node000001_Node000025" class="edge">
<title>Node1&#45;&gt;Node25</title>
<g id="a_edge24_Node000001_Node000025"><a xlink:title=" ">
<path fill="none" stroke="orange" stroke-dasharray="5,2" d="M50.48,-690.94C55.21,-600.5 76.97,-226.46 115,-192.53 166.84,-146.28 251.53,-156.58 307.88,-170.87"/>
<polygon fill="orange" stroke="orange" points="46.99,-690.77 49.97,-700.93 53.98,-691.13 46.99,-690.77"/>
</a>
</g>
<text text-anchor="start" x="132" y="-206.53" font-family="Helvetica,sans-Serif" font-size="10.00" fill="grey"> &lt; void(fl::ResponseSend</text>
<text text-anchor="middle" x="193.5" y="-195.53" font-family="Helvetica,sans-Serif" font-size="10.00" fill="grey"> &amp;, const fl::json &amp;)&gt;</text>
</g>
<!-- Node26 -->
<g id="Node000026" class="node">
<title>Node26</title>
<g id="a_Node000026"><a xlink:href="../../d4/d36/namespacefl.html#d4/d36/namespacefl" target="_top" xlink:title=" ">
<polygon fill="white" stroke="#666666" points="418,-151.03 315,-151.03 315,-110.03 418,-110.03 418,-151.03"/>
<text text-anchor="start" x="323" y="-139.03" font-family="Helvetica,sans-Serif" font-size="10.00">fl::function&lt; void</text>
<text text-anchor="start" x="323" y="-128.03" font-family="Helvetica,sans-Serif" font-size="10.00">(const fl::net::http</text>
<text text-anchor="middle" x="366.5" y="-117.03" font-family="Helvetica,sans-Serif" font-size="10.00">::Response &amp;)&gt;</text>
</a>
</g>
</g>
<!-- Node1&#45;&gt;Node26 -->
<g id="edge25_Node000001_Node000026" class="edge">
<title>Node1&#45;&gt;Node26</title>
<g id="a_edge25_Node000001_Node000026"><a xlink:title=" ">
<path fill="none" stroke="orange" stroke-dasharray="5,2" d="M50.23,-690.54C53.96,-593.07 72.54,-170.76 115,-132.53 143.32,-107.04 250.26,-115.51 314.91,-123.39"/>
<polygon fill="orange" stroke="orange" points="46.72,-690.65 49.84,-700.77 53.71,-690.91 46.72,-690.65"/>
</a>
</g>
<text text-anchor="start" x="142.5" y="-146.53" font-family="Helvetica,sans-Serif" font-size="10.00" fill="grey"> &lt; void(const fl::net</text>
<text text-anchor="middle" x="193.5" y="-135.53" font-family="Helvetica,sans-Serif" font-size="10.00" fill="grey">::http::Response &amp;)&gt;</text>
</g>
<!-- Node27 -->
<g id="Node000027" class="node">
<title>Node27</title>
<g id="a_Node000027"><a xlink:href="../../d4/d36/namespacefl.html#d4/d36/namespacefl" target="_top" xlink:title=" ">
<polygon fill="white" stroke="#666666" points="433.5,-91.53 299.5,-91.53 299.5,-61.53 433.5,-61.53 433.5,-91.53"/>
<text text-anchor="start" x="307.5" y="-79.53" font-family="Helvetica,sans-Serif" font-size="10.00">fl::function&lt; void</text>
<text text-anchor="middle" x="366.5" y="-68.53" font-family="Helvetica,sans-Serif" font-size="10.00">(const fl::task::Error &amp;)&gt;</text>
</a>
</g>
</g>
<!-- Node1&#45;&gt;Node27 -->
<g id="edge26_Node000001_Node000027" class="edge">
<title>Node1&#45;&gt;Node27</title>
<g id="a_edge26_Node000001_Node000027"><a xlink:title=" ">
<path fill="none" stroke="orange" stroke-dasharray="5,2" d="M50.08,-691C53.24,-590.09 70.06,-130.98 115,-88.53 167.46,-38.98 257,-48.56 313.61,-61.48"/>
<polygon fill="orange" stroke="orange" points="46.58,-690.92 49.77,-701.02 53.57,-691.14 46.58,-690.92"/>
</a>
</g>
<text text-anchor="start" x="142.5" y="-102.53" font-family="Helvetica,sans-Serif" font-size="10.00" fill="grey"> &lt; void(const fl::task</text>
<text text-anchor="middle" x="193.5" y="-91.53" font-family="Helvetica,sans-Serif" font-size="10.00" fill="grey">::Error &amp;)&gt;</text>
</g>
<!-- Node28 -->
<g id="Node000028" class="node">
<title>Node28</title>
<g id="a_Node000028"><a xlink:href="../../d4/d36/namespacefl.html#d4/d36/namespacefl" target="_top" xlink:title=" ">
<polygon fill="white" stroke="#666666" points="417,-43.53 316,-43.53 316,-13.53 417,-13.53 417,-43.53"/>
<text text-anchor="start" x="324" y="-31.53" font-family="Helvetica,sans-Serif" font-size="10.00">fl::function&lt; void</text>
<text text-anchor="middle" x="366.5" y="-20.53" font-family="Helvetica,sans-Serif" font-size="10.00">(const T &amp;)&gt;</text>
</a>
</g>
</g>
<!-- Node1&#45;&gt;Node28 -->
<g id="edge27_Node000001_Node000028" class="edge">
<title>Node1&#45;&gt;Node28</title>
<g id="a_edge27_Node000001_Node000028"><a xlink:title=" ">
<path fill="none" stroke="orange" stroke-dasharray="5,2" d="M49.9,-690.7C52.27,-584.11 65.96,-82.49 115,-36.53 168.98,14.05 261.73,0.98 317.96,-13.51"/>
<polygon fill="orange" stroke="orange" points="46.4,-690.66 49.69,-700.73 53.4,-690.81 46.4,-690.66"/>
</a>
</g>
<text text-anchor="middle" x="193.5" y="-39.53" font-family="Helvetica,sans-Serif" font-size="10.00" fill="grey"> &lt; void(const T &amp;)&gt;</text>
</g>
</g>
</svg>
