<?xml version="1.0" encoding="UTF-8" standalone="no"?>
<!DOCTYPE svg PUBLIC "-//W3C//DTD SVG 1.1//EN"
 "http://www.w3.org/Graphics/SVG/1.1/DTD/svg11.dtd">
<!-- Generated by graphviz version 2.43.0 (0)
 -->
<!-- Title: fl/net/http/fetch_request.cpp.hpp Pages: 1 -->
<!--zoomable 467 -->

<svg id="main" version="1.1" xmlns="http://www.w3.org/2000/svg" xmlns:xlink="http://www.w3.org/1999/xlink" xml:space="preserve" onload="init(evt)">

<style type="text/css"><![CDATA[
.node, .edge {opacity: 0.7;}
.node.selected, .edge.selected {opacity: 1;}
.edge:hover path { stroke: red; }
.edge:hover polygon { stroke: red; fill: red; }
]]></style>

<defs>
  <circle id="rim" cx="0" cy="0" r="7"/>
  <circle id="rim2" cx="0" cy="0" r="3.5"/>
  <g id="zoomPlus">
    <use xlink:href="#rim" fill="#404040"><set attributeName="fill" to="#808080" begin="zoomplus.mouseover" end="zoomplus.mouseout"/></use>
    <path d="M-4,0h8M0,-4v8" fill="none" stroke="white" stroke-width="1.5" pointer-events="none"/>
  </g>
  <g id="zoomMin">
    <use xlink:href="#rim" fill="#404040"><set attributeName="fill" to="#808080" begin="zoomminus.mouseover" end="zoomminus.mouseout"/></use>
    <path d="M-4,0h8" fill="none" stroke="white" stroke-width="1.5" pointer-events="none"/>
  </g>
  <g id="arrowUp" transform="translate(30 24)">
    <use xlink:href="#rim"/>
    <path pointer-events="none" fill="none" stroke="white" stroke-width="1.5" d="M0,-3.0v7 M-2.5,-0.5L0,-3.0L2.5,-0.5"/>
  </g>
  <g id="arrowRight" transform="rotate(90) translate(36 -43)">
    <use xlink:href="#rim"/>
    <path pointer-events="none" fill="none" stroke="white" stroke-width="1.5" d="M0,-3.0v7 M-2.5,-0.5L0,-3.0L2.5,-0.5"/>
  </g>
  <g id="arrowDown" transform="rotate(180) translate(-30 -48)">
    <use xlink:href="#rim"/>
    <path pointer-events="none" fill="none" stroke="white" stroke-width="1.5" d="M0,-3.0v7 M-2.5,-0.5L0,-3.0L2.5,-0.5"/>
  </g>
  <g id="arrowLeft" transform="rotate(270) translate(-36 17)">
    <use xlink:href="#rim"/>
    <path pointer-events="none" fill="none" stroke="white" stroke-width="1.5" d="M0,-3.0v7 M-2.5,-0.5L0,-3.0L2.5,-0.5"/>
  </g>
  <g id="resetDef">
    <use xlink:href="#rim2" fill="#404040"><set attributeName="fill" to="#808080" begin="reset.mouseover" end="reset.mouseout"/></use>
  </g>
</defs>
<script type="application/ecmascript">
var viewWidth = 1201;
var viewHeight = 467;
var sectionId = 'dynsection-0';
</script>
<script type="application/ecmascript" xlink:href="../../svg.min.js"/>
<svg id="graph" class="graph">
<g id="viewport">
<title>fl/net/http/fetch_request.cpp.hpp</title>
<!-- Node1 -->
<g id="Node000001" class="node">
<title>Node1</title>
<g id="a_Node000001"><a xlink:title=" ">
<polygon fill="#999999" stroke="#666666" points="980.5,-459 805.5,-459 805.5,-440 980.5,-440 980.5,-459"/>
<text text-anchor="middle" x="893" y="-447" font-family="Helvetica,sans-Serif" font-size="10.00">fl/net/http/fetch_request.cpp.hpp</text>
</a>
</g>
</g>
<!-- Node2 -->
<g id="Node000002" class="node">
<title>Node2</title>
<g id="a_Node000002"><a xlink:href="../../d2/d83/fetch__request_8h.html" target="_top" xlink:title=" ">
<polygon fill="white" stroke="#666666" points="1014.5,-404 871.5,-404 871.5,-385 1014.5,-385 1014.5,-404"/>
<text text-anchor="middle" x="943" y="-392" font-family="Helvetica,sans-Serif" font-size="10.00">fl/net/http/fetch_request.h</text>
</a>
</g>
</g>
<!-- Node1&#45;&gt;Node2 -->
<g id="edge1_Node000001_Node000002" class="edge">
<title>Node1&#45;&gt;Node2</title>
<g id="a_edge1_Node000001_Node000002"><a xlink:title=" ">
<path fill="none" stroke="#63b8ff" d="M901.26,-439.75C908.46,-432.11 919.11,-420.82 927.85,-411.56"/>
<polygon fill="#63b8ff" stroke="#63b8ff" points="930.58,-413.76 934.9,-404.09 925.49,-408.96 930.58,-413.76"/>
</a>
</g>
</g>
<!-- Node9 -->
<g id="Node000009" class="node">
<title>Node9</title>
<g id="a_Node000009"><a xlink:href="../../d3/d7e/int_8h.html" target="_top" xlink:title=" ">
<polygon fill="#fff0f0" stroke="red" points="967,-19 905,-19 905,0 967,0 967,-19"/>
<text text-anchor="middle" x="936" y="-7" font-family="Helvetica,sans-Serif" font-size="10.00">fl/stl/int.h</text>
</a>
</g>
</g>
<!-- Node1&#45;&gt;Node9 -->
<g id="edge64_Node000001_Node000009" class="edge">
<title>Node1&#45;&gt;Node9</title>
<g id="a_edge64_Node000001_Node000009"><a xlink:title=" ">
<path fill="none" stroke="#63b8ff" d="M949.78,-439.94C1036.75,-425.21 1193,-391.63 1193,-340.5 1193,-340.5 1193,-340.5 1193,-118.5 1193,-26.01 1049.79,-11.42 977.18,-9.97"/>
<polygon fill="#63b8ff" stroke="#63b8ff" points="977.04,-6.47 967,-9.84 976.96,-13.47 977.04,-6.47"/>
</a>
</g>
</g>
<!-- Node67 -->
<g id="Node000067" class="node">
<title>Node67</title>
<g id="a_Node000067"><a xlink:href="../../dd/d40/executor_8h.html" target="_top" xlink:title="Task executor — runs registered task runners and manages the run loop.">
<polygon fill="#fff0f0" stroke="red" points="380,-294 280,-294 280,-275 380,-275 380,-294"/>
<text text-anchor="middle" x="330" y="-282" font-family="Helvetica,sans-Serif" font-size="10.00">fl/task/executor.h</text>
</a>
</g>
</g>
<!-- Node1&#45;&gt;Node67 -->
<g id="edge62_Node000001_Node000067" class="edge">
<title>Node1&#45;&gt;Node67</title>
<g id="a_edge62_Node000001_Node000067"><a xlink:title=" ">
<path fill="none" stroke="#63b8ff" d="M837.02,-439.95C753.2,-426.19 590.84,-395.84 459,-349 420.62,-335.36 378.77,-313.32 353.45,-299.12"/>
<polygon fill="#63b8ff" stroke="#63b8ff" points="355.03,-295.99 344.6,-294.09 351.57,-302.07 355.03,-295.99"/>
</a>
</g>
</g>
<!-- Node82 -->
<g id="Node000082" class="node">
<title>Node82</title>
<g id="a_Node000082"><a xlink:href="../../d7/d7f/log_8h.html" target="_top" xlink:title="Centralized logging categories for FastLED hardware interfaces and subsystems.">
<polygon fill="#fff0f0" stroke="red" points="877,-294 809,-294 809,-275 877,-275 877,-294"/>
<text text-anchor="middle" x="843" y="-282" font-family="Helvetica,sans-Serif" font-size="10.00">fl/log/log.h</text>
</a>
</g>
</g>
<!-- Node1&#45;&gt;Node82 -->
<g id="edge63_Node000001_Node000082" class="edge">
<title>Node1&#45;&gt;Node82</title>
<g id="a_edge63_Node000001_Node000082"><a xlink:title=" ">
<path fill="none" stroke="#63b8ff" d="M885.3,-439.99C878.07,-431.51 867.57,-417.79 862,-404 848.53,-370.63 844.58,-328.34 843.45,-304.36"/>
<polygon fill="#63b8ff" stroke="#63b8ff" points="846.94,-304.05 843.08,-294.18 839.94,-304.3 846.94,-304.05"/>
</a>
</g>
</g>
<!-- Node3 -->
<g id="Node000003" class="node">
<title>Node3</title>
<g id="a_Node000003"><a xlink:href="../../d6/d17/promise_8h.html" target="_top" xlink:title="Promise&#45;based fluent API for FastLED &#45; standalone async primitives.">
<polygon fill="white" stroke="#666666" points="715,-239 617,-239 617,-220 715,-220 715,-239"/>
<text text-anchor="middle" x="666" y="-227" font-family="Helvetica,sans-Serif" font-size="10.00">fl/task/promise.h</text>
</a>
</g>
</g>
<!-- Node2&#45;&gt;Node3 -->
<g id="edge2_Node000002_Node000003" class="edge">
<title>Node2&#45;&gt;Node3</title>
<g id="a_edge2_Node000002_Node000003"><a xlink:title=" ">
<path fill="none" stroke="#63b8ff" d="M939.97,-384.82C931.16,-360.03 904.92,-289.72 886,-275 861.42,-255.88 781.8,-243.29 725.44,-236.53"/>
<polygon fill="#63b8ff" stroke="#63b8ff" points="725.54,-233.02 715.2,-235.34 724.73,-239.97 725.54,-233.02"/>
</a>
</g>
</g>
<!-- Node2&#45;&gt;Node9 -->
<g id="edge60_Node000002_Node000009" class="edge">
<title>Node2&#45;&gt;Node9</title>
<g id="a_edge60_Node000002_Node000009"><a xlink:title=" ">
<path fill="none" stroke="#63b8ff" d="M1006.63,-384.94C1053.64,-377.45 1112.54,-365.22 1131,-349 1153.66,-329.08 1155,-315.67 1155,-285.5 1155,-285.5 1155,-285.5 1155,-118.5 1155,-40.19 1040.98,-18.66 977.48,-12.74"/>
<polygon fill="#63b8ff" stroke="#63b8ff" points="977.64,-9.24 967.38,-11.89 977.05,-16.22 977.64,-9.24"/>
</a>
</g>
</g>
<!-- Node8 -->
<g id="Node000008" class="node">
<title>Node8</title>
<g id="a_Node000008"><a xlink:href="../../db/d01/noexcept_8h.html" target="_top" xlink:title=" ">
<polygon fill="white" stroke="#666666" points="548.5,-19 453.5,-19 453.5,0 548.5,0 548.5,-19"/>
<text text-anchor="middle" x="501" y="-7" font-family="Helvetica,sans-Serif" font-size="10.00">fl/stl/noexcept.h</text>
</a>
</g>
</g>
<!-- Node2&#45;&gt;Node8 -->
<g id="edge61_Node000002_Node000008" class="edge">
<title>Node2&#45;&gt;Node8</title>
<g id="a_edge61_Node000002_Node000008"><a xlink:title=" ">
<path fill="none" stroke="#63b8ff" d="M991.47,-384.95C1042.95,-372.74 1117,-344.88 1117,-285.5 1117,-285.5 1117,-285.5 1117,-228.5 1117,-144.32 1109.51,-103.92 1041,-55 1002.47,-27.49 690.65,-15.73 559.15,-11.96"/>
<polygon fill="#63b8ff" stroke="#63b8ff" points="558.97,-8.45 548.87,-11.67 558.77,-15.45 558.97,-8.45"/>
</a>
</g>
</g>
<!-- Node47 -->
<g id="Node000047" class="node">
<title>Node47</title>
<g id="a_Node000047"><a xlink:href="../../da/d66/string_8h.html" target="_top" xlink:title=" ">
<polygon fill="#fff0f0" stroke="red" points="773.5,-184 696.5,-184 696.5,-165 773.5,-165 773.5,-184"/>
<text text-anchor="middle" x="735" y="-172" font-family="Helvetica,sans-Serif" font-size="10.00">fl/stl/string.h</text>
</a>
</g>
</g>
<!-- Node2&#45;&gt;Node47 -->
<g id="edge54_Node000002_Node000047" class="edge">
<title>Node2&#45;&gt;Node47</title>
<g id="a_edge54_Node000002_Node000047"><a xlink:title=" ">
<path fill="none" stroke="#63b8ff" d="M942.7,-384.92C941.52,-363.72 935.7,-308.17 907,-275 869.59,-231.78 808.55,-202.82 770.15,-187.77"/>
<polygon fill="#63b8ff" stroke="#63b8ff" points="771.01,-184.36 760.42,-184.07 768.52,-190.9 771.01,-184.36"/>
</a>
</g>
</g>
<!-- Node58 -->
<g id="Node000058" class="node">
<title>Node58</title>
<g id="a_Node000058"><a xlink:href="../../d6/d6a/fetch_8h.html" target="_top" xlink:title="Unified HTTP fetch API for FastLED (cross&#45;platform)">
<polygon fill="white" stroke="#666666" points="569.5,-349 468.5,-349 468.5,-330 569.5,-330 569.5,-349"/>
<text text-anchor="middle" x="519" y="-337" font-family="Helvetica,sans-Serif" font-size="10.00">fl/net/http/fetch.h</text>
</a>
</g>
</g>
<!-- Node2&#45;&gt;Node58 -->
<g id="edge29_Node000002_Node000058" class="edge">
<title>Node2&#45;&gt;Node58</title>
<g id="a_edge29_Node000002_Node000058"><a xlink:title=" ">
<path fill="none" stroke="#63b8ff" d="M874.88,-384.98C793.33,-374.79 658,-357.88 579.83,-348.1"/>
<polygon fill="#63b8ff" stroke="#63b8ff" points="580.01,-344.6 569.66,-346.83 579.15,-351.55 580.01,-344.6"/>
</a>
</g>
</g>
<!-- Node90 -->
<g id="Node000090" class="node">
<title>Node90</title>
<g id="a_Node000090"><a xlink:href="../../df/db8/url_8h.html" target="_top" xlink:title="Lightweight URL parser for embedded environments.">
<polygon fill="white" stroke="#666666" points="1012,-239 950,-239 950,-220 1012,-220 1012,-239"/>
<text text-anchor="middle" x="981" y="-227" font-family="Helvetica,sans-Serif" font-size="10.00">fl/stl/url.h</text>
</a>
</g>
</g>
<!-- Node2&#45;&gt;Node90 -->
<g id="edge55_Node000002_Node000090" class="edge">
<title>Node2&#45;&gt;Node90</title>
<g id="a_edge55_Node000002_Node000090"><a xlink:title=" ">
<path fill="none" stroke="#63b8ff" d="M946.06,-384.71C949.1,-375.79 953.76,-361.55 957,-349 966.01,-314.06 973.74,-272.62 977.85,-249.16"/>
<polygon fill="#63b8ff" stroke="#63b8ff" points="981.31,-249.64 979.56,-239.19 974.42,-248.46 981.31,-249.64"/>
</a>
</g>
</g>
<!-- Node4 -->
<g id="Node000004" class="node">
<title>Node4</title>
<g id="a_Node000004"><a xlink:href="../../dd/d67/function_8h.html" target="_top" xlink:title=" ">
<polygon fill="#fff0f0" stroke="red" points="601.5,-184 512.5,-184 512.5,-165 601.5,-165 601.5,-184"/>
<text text-anchor="middle" x="557" y="-172" font-family="Helvetica,sans-Serif" font-size="10.00">fl/stl/function.h</text>
</a>
</g>
</g>
<!-- Node3&#45;&gt;Node4 -->
<g id="edge3_Node000003_Node000004" class="edge">
<title>Node3&#45;&gt;Node4</title>
<g id="a_edge3_Node000003_Node000004"><a xlink:title=" ">
<path fill="none" stroke="#63b8ff" d="M648.49,-219.98C631.03,-211.5 603.99,-198.35 583.83,-188.54"/>
<polygon fill="#63b8ff" stroke="#63b8ff" points="585.36,-185.4 574.83,-184.17 582.29,-191.69 585.36,-185.4"/>
</a>
</g>
</g>
<!-- Node5 -->
<g id="Node000005" class="node">
<title>Node5</title>
<g id="a_Node000005"><a xlink:href="../../df/d6a/shared__ptr_8h.html" target="_top" xlink:title=" ">
<polygon fill="#fff0f0" stroke="red" points="974.5,-129 873.5,-129 873.5,-110 974.5,-110 974.5,-129"/>
<text text-anchor="middle" x="924" y="-117" font-family="Helvetica,sans-Serif" font-size="10.00">fl/stl/shared_ptr.h</text>
</a>
</g>
</g>
<!-- Node3&#45;&gt;Node5 -->
<g id="edge25_Node000003_Node000005" class="edge">
<title>Node3&#45;&gt;Node5</title>
<g id="a_edge25_Node000003_Node000005"><a xlink:title=" ">
<path fill="none" stroke="#63b8ff" d="M689.7,-219.84C713.25,-211.13 750.32,-197.15 782,-184 822.16,-167.33 867.98,-146.51 896.45,-133.35"/>
<polygon fill="#63b8ff" stroke="#63b8ff" points="898.16,-136.42 905.76,-129.04 895.21,-130.07 898.16,-136.42"/>
</a>
</g>
</g>
<!-- Node16 -->
<g id="Node000016" class="node">
<title>Node16</title>
<g id="a_Node000016"><a xlink:href="../../dd/d02/atomic_8h.html" target="_top" xlink:title=" ">
<polygon fill="#fff0f0" stroke="red" points="1012.5,-74 929.5,-74 929.5,-55 1012.5,-55 1012.5,-74"/>
<text text-anchor="middle" x="971" y="-62" font-family="Helvetica,sans-Serif" font-size="10.00">fl/stl/atomic.h</text>
</a>
</g>
</g>
<!-- Node3&#45;&gt;Node16 -->
<g id="edge27_Node000003_Node000016" class="edge">
<title>Node3&#45;&gt;Node16</title>
<g id="a_edge27_Node000003_Node000016"><a xlink:title=" ">
<path fill="none" stroke="#63b8ff" d="M715.3,-220.38C796.42,-205.91 952.25,-172.97 984,-129 993.65,-115.64 988,-96.78 981.4,-83.09"/>
<polygon fill="#63b8ff" stroke="#63b8ff" points="984.44,-81.35 976.64,-74.19 978.27,-84.66 984.44,-81.35"/>
</a>
</g>
</g>
<!-- Node3&#45;&gt;Node8 -->
<g id="edge28_Node000003_Node000008" class="edge">
<title>Node3&#45;&gt;Node8</title>
<g id="a_edge28_Node000003_Node000008"><a xlink:title=" ">
<path fill="none" stroke="#63b8ff" d="M662.65,-219.63C652.01,-192.37 616.71,-108.49 566,-55 554.49,-42.86 539.14,-32.16 526.25,-24.3"/>
<polygon fill="#63b8ff" stroke="#63b8ff" points="527.78,-21.14 517.39,-19.1 524.24,-27.18 527.78,-21.14"/>
</a>
</g>
</g>
<!-- Node7 -->
<g id="Node000007" class="node">
<title>Node7</title>
<g id="a_Node000007"><a xlink:href="../../d9/d83/move_8h.html" target="_top" xlink:title=" ">
<polygon fill="white" stroke="#666666" points="539.5,-74 462.5,-74 462.5,-55 539.5,-55 539.5,-74"/>
<text text-anchor="middle" x="501" y="-62" font-family="Helvetica,sans-Serif" font-size="10.00">fl/stl/move.h</text>
</a>
</g>
</g>
<!-- Node3&#45;&gt;Node7 -->
<g id="edge26_Node000003_Node000007" class="edge">
<title>Node3&#45;&gt;Node7</title>
<g id="a_edge26_Node000003_Node000007"><a xlink:title=" ">
<path fill="none" stroke="#63b8ff" d="M658.68,-219.6C648.25,-207.07 628.34,-183.66 610,-165 579.26,-133.73 540.91,-99.8 518.86,-80.74"/>
<polygon fill="#63b8ff" stroke="#63b8ff" points="521.12,-78.07 511.26,-74.2 516.56,-83.38 521.12,-78.07"/>
</a>
</g>
</g>
<!-- Node3&#45;&gt;Node47 -->
<g id="edge15_Node000003_Node000047" class="edge">
<title>Node3&#45;&gt;Node47</title>
<g id="a_edge15_Node000003_Node000047"><a xlink:title=" ">
<path fill="none" stroke="#63b8ff" d="M677.09,-219.98C687.49,-212 703.26,-199.88 715.72,-190.31"/>
<polygon fill="#63b8ff" stroke="#63b8ff" points="717.91,-193.04 723.71,-184.17 713.65,-187.49 717.91,-193.04"/>
</a>
</g>
</g>
<!-- Node4&#45;&gt;Node5 -->
<g id="edge4_Node000004_Node000005" class="edge">
<title>Node4&#45;&gt;Node5</title>
<g id="a_edge4_Node000004_Node000005"><a xlink:title=" ">
<path fill="none" stroke="#63b8ff" d="M601.63,-167.05C667.13,-157.6 789.48,-139.93 863.15,-129.29"/>
<polygon fill="#63b8ff" stroke="#63b8ff" points="863.82,-132.73 873.22,-127.83 862.82,-125.8 863.82,-132.73"/>
</a>
</g>
</g>
<!-- Node4&#45;&gt;Node8 -->
<g id="edge14_Node000004_Node000008" class="edge">
<title>Node4&#45;&gt;Node8</title>
<g id="a_edge14_Node000004_Node000008"><a xlink:title=" ">
<path fill="none" stroke="#63b8ff" d="M558.36,-164.93C561.16,-144.66 565.91,-92.63 548,-55 542.4,-43.23 532.22,-32.99 522.76,-25.31"/>
<polygon fill="#63b8ff" stroke="#63b8ff" points="524.86,-22.5 514.78,-19.24 520.62,-28.08 524.86,-22.5"/>
</a>
</g>
</g>
<!-- Node27 -->
<g id="Node000027" class="node">
<title>Node27</title>
<g id="a_Node000027"><a xlink:href="../../d6/d68/vector_8h.html" target="_top" xlink:title=" ">
<polygon fill="#fff0f0" stroke="red" points="504,-129 424,-129 424,-110 504,-110 504,-129"/>
<text text-anchor="middle" x="464" y="-117" font-family="Helvetica,sans-Serif" font-size="10.00">fl/stl/vector.h</text>
</a>
</g>
</g>
<!-- Node4&#45;&gt;Node27 -->
<g id="edge9_Node000004_Node000027" class="edge">
<title>Node4&#45;&gt;Node27</title>
<g id="a_edge9_Node000004_Node000027"><a xlink:title=" ">
<path fill="none" stroke="#63b8ff" d="M542.06,-164.98C527.5,-156.69 505.13,-143.94 488.07,-134.22"/>
<polygon fill="#63b8ff" stroke="#63b8ff" points="489.64,-131.08 479.21,-129.17 486.17,-137.16 489.64,-131.08"/>
</a>
</g>
</g>
<!-- Node5&#45;&gt;Node16 -->
<g id="edge5_Node000005_Node000016" class="edge">
<title>Node5&#45;&gt;Node16</title>
<g id="a_edge5_Node000005_Node000016"><a xlink:title=" ">
<path fill="none" stroke="#63b8ff" d="M931.76,-109.75C938.47,-102.18 948.34,-91.05 956.51,-81.84"/>
<polygon fill="#63b8ff" stroke="#63b8ff" points="959.37,-83.89 963.38,-74.09 954.13,-79.25 959.37,-83.89"/>
</a>
</g>
</g>
<!-- Node5&#45;&gt;Node9 -->
<g id="edge7_Node000005_Node000009" class="edge">
<title>Node5&#45;&gt;Node9</title>
<g id="a_edge7_Node000005_Node000009"><a xlink:title=" ">
<path fill="none" stroke="#63b8ff" d="M922.17,-109.8C919.88,-97.5 916.62,-74.37 920,-55 921.57,-46 924.8,-36.42 927.94,-28.46"/>
<polygon fill="#63b8ff" stroke="#63b8ff" points="931.22,-29.69 931.89,-19.12 924.77,-26.97 931.22,-29.69"/>
</a>
</g>
</g>
<!-- Node5&#45;&gt;Node8 -->
<g id="edge8_Node000005_Node000008" class="edge">
<title>Node5&#45;&gt;Node8</title>
<g id="a_edge8_Node000005_Node000008"><a xlink:title=" ">
<path fill="none" stroke="#63b8ff" d="M905.47,-109.79C875.81,-96.18 815.55,-69.89 762,-55 693.35,-35.91 612.15,-23.62 558.76,-16.9"/>
<polygon fill="#63b8ff" stroke="#63b8ff" points="559.15,-13.42 548.79,-15.67 558.29,-20.37 559.15,-13.42"/>
</a>
</g>
</g>
<!-- Node16&#45;&gt;Node9 -->
<g id="edge6_Node000016_Node000009" class="edge">
<title>Node16&#45;&gt;Node9</title>
<g id="a_edge6_Node000016_Node000009"><a xlink:title=" ">
<path fill="none" stroke="#63b8ff" d="M965.22,-54.75C960.38,-47.42 953.32,-36.73 947.36,-27.7"/>
<polygon fill="#63b8ff" stroke="#63b8ff" points="950.1,-25.5 941.67,-19.09 944.26,-29.36 950.1,-25.5"/>
</a>
</g>
</g>
<!-- Node27&#45;&gt;Node9 -->
<g id="edge10_Node000027_Node000009" class="edge">
<title>Node27&#45;&gt;Node9</title>
<g id="a_edge10_Node000027_Node000009"><a xlink:title=" ">
<path fill="none" stroke="#63b8ff" d="M501.43,-109.94C588.56,-90 804.4,-40.61 894.96,-19.89"/>
<polygon fill="#63b8ff" stroke="#63b8ff" points="895.89,-23.27 904.86,-17.63 894.33,-16.44 895.89,-23.27"/>
</a>
</g>
</g>
<!-- Node27&#45;&gt;Node8 -->
<g id="edge13_Node000027_Node000008" class="edge">
<title>Node27&#45;&gt;Node8</title>
<g id="a_edge13_Node000027_Node000008"><a xlink:title=" ">
<path fill="none" stroke="#63b8ff" d="M459.54,-109.91C453.65,-97.35 444.94,-73.46 453,-55 458.27,-42.92 468.63,-32.65 478.37,-25.03"/>
<polygon fill="#63b8ff" stroke="#63b8ff" points="480.59,-27.74 486.63,-19.04 476.48,-22.07 480.59,-27.74"/>
</a>
</g>
</g>
<!-- Node27&#45;&gt;Node7 -->
<g id="edge11_Node000027_Node000007" class="edge">
<title>Node27&#45;&gt;Node7</title>
<g id="a_edge11_Node000027_Node000007"><a xlink:title=" ">
<path fill="none" stroke="#63b8ff" d="M470.11,-109.75C475.28,-102.34 482.85,-91.5 489.19,-82.41"/>
<polygon fill="#63b8ff" stroke="#63b8ff" points="492.15,-84.29 495,-74.09 486.41,-80.29 492.15,-84.29"/>
</a>
</g>
</g>
<!-- Node7&#45;&gt;Node8 -->
<g id="edge12_Node000007_Node000008" class="edge">
<title>Node7&#45;&gt;Node8</title>
<g id="a_edge12_Node000007_Node000008"><a xlink:title=" ">
<path fill="none" stroke="#63b8ff" d="M501,-54.75C501,-47.8 501,-37.85 501,-29.13"/>
<polygon fill="#63b8ff" stroke="#63b8ff" points="504.5,-29.09 501,-19.09 497.5,-29.09 504.5,-29.09"/>
</a>
</g>
</g>
<!-- Node47&#45;&gt;Node5 -->
<g id="edge17_Node000047_Node000005" class="edge">
<title>Node47&#45;&gt;Node5</title>
<g id="a_edge17_Node000047_Node000005"><a xlink:title=" ">
<path fill="none" stroke="#63b8ff" d="M765.37,-164.98C797.37,-156.01 847.96,-141.82 883.38,-131.89"/>
<polygon fill="#63b8ff" stroke="#63b8ff" points="884.71,-135.15 893.4,-129.08 882.82,-128.41 884.71,-135.15"/>
</a>
</g>
</g>
<!-- Node47&#45;&gt;Node9 -->
<g id="edge16_Node000047_Node000009" class="edge">
<title>Node47&#45;&gt;Node9</title>
<g id="a_edge16_Node000047_Node000009"><a xlink:title=" ">
<path fill="none" stroke="#63b8ff" d="M733.38,-164.83C731.42,-151.73 729.68,-126.67 741,-110 776.73,-57.39 849.07,-31.04 894.89,-19.1"/>
<polygon fill="#63b8ff" stroke="#63b8ff" points="895.95,-22.45 904.81,-16.64 894.26,-15.66 895.95,-22.45"/>
</a>
</g>
</g>
<!-- Node47&#45;&gt;Node8 -->
<g id="edge24_Node000047_Node000008" class="edge">
<title>Node47&#45;&gt;Node8</title>
<g id="a_edge24_Node000047_Node000008"><a xlink:title=" ">
<path fill="none" stroke="#63b8ff" d="M728.75,-164.78C712.91,-143.25 668.95,-87.01 620,-55 597.22,-40.11 568.76,-29.23 545.38,-21.96"/>
<polygon fill="#63b8ff" stroke="#63b8ff" points="546.29,-18.58 535.71,-19.07 544.29,-25.29 546.29,-18.58"/>
</a>
</g>
</g>
<!-- Node47&#45;&gt;Node27 -->
<g id="edge20_Node000047_Node000027" class="edge">
<title>Node47&#45;&gt;Node27</title>
<g id="a_edge20_Node000047_Node000027"><a xlink:title=" ">
<path fill="none" stroke="#63b8ff" d="M696.46,-165.96C648.65,-156.61 567.01,-140.65 514.31,-130.34"/>
<polygon fill="#63b8ff" stroke="#63b8ff" points="514.66,-126.84 504.17,-128.36 513.32,-133.71 514.66,-126.84"/>
</a>
</g>
</g>
<!-- Node47&#45;&gt;Node7 -->
<g id="edge23_Node000047_Node000007" class="edge">
<title>Node47&#45;&gt;Node7</title>
<g id="a_edge23_Node000047_Node000007"><a xlink:title=" ">
<path fill="none" stroke="#63b8ff" d="M716.25,-164.84C675.15,-145.88 577,-100.58 528.75,-78.31"/>
<polygon fill="#63b8ff" stroke="#63b8ff" points="530.06,-75.06 519.52,-74.05 527.13,-81.42 530.06,-75.06"/>
</a>
</g>
</g>
<!-- Node54 -->
<g id="Node000054" class="node">
<title>Node54</title>
<g id="a_Node000054"><a xlink:href="../../dc/d62/optional_8h.html" target="_top" xlink:title=" ">
<polygon fill="#fff0f0" stroke="red" points="253.5,-129 164.5,-129 164.5,-110 253.5,-110 253.5,-129"/>
<text text-anchor="middle" x="209" y="-117" font-family="Helvetica,sans-Serif" font-size="10.00">fl/stl/optional.h</text>
</a>
</g>
</g>
<!-- Node47&#45;&gt;Node54 -->
<g id="edge18_Node000047_Node000054" class="edge">
<title>Node47&#45;&gt;Node54</title>
<g id="a_edge18_Node000047_Node000054"><a xlink:title=" ">
<path fill="none" stroke="#63b8ff" d="M696.32,-169.6C604.02,-160.3 370.62,-136.79 263.84,-126.03"/>
<polygon fill="#63b8ff" stroke="#63b8ff" points="263.91,-122.52 253.61,-124.99 263.21,-129.48 263.91,-122.52"/>
</a>
</g>
</g>
<!-- Node57 -->
<g id="Node000057" class="node">
<title>Node57</title>
<g id="a_Node000057"><a xlink:href="../../d2/d1d/string__view_8h.html" target="_top" xlink:title=" ">
<polygon fill="#fff0f0" stroke="red" points="855.5,-129 750.5,-129 750.5,-110 855.5,-110 855.5,-129"/>
<text text-anchor="middle" x="803" y="-117" font-family="Helvetica,sans-Serif" font-size="10.00">fl/stl/string_view.h</text>
</a>
</g>
</g>
<!-- Node47&#45;&gt;Node57 -->
<g id="edge21_Node000047_Node000057" class="edge">
<title>Node47&#45;&gt;Node57</title>
<g id="a_edge21_Node000047_Node000057"><a xlink:title=" ">
<path fill="none" stroke="#63b8ff" d="M745.93,-164.98C756.08,-157.07 771.42,-145.11 783.65,-135.58"/>
<polygon fill="#63b8ff" stroke="#63b8ff" points="786.14,-138.08 791.88,-129.17 781.84,-132.56 786.14,-138.08"/>
</a>
</g>
</g>
<!-- Node54&#45;&gt;Node8 -->
<g id="edge19_Node000054_Node000008" class="edge">
<title>Node54&#45;&gt;Node8</title>
<g id="a_edge19_Node000054_Node000008"><a xlink:title=" ">
<path fill="none" stroke="#63b8ff" d="M214.33,-109.89C223.46,-95.93 243.51,-68.55 268,-55 322.5,-24.84 393.93,-14.79 443.26,-11.61"/>
<polygon fill="#63b8ff" stroke="#63b8ff" points="443.65,-15.09 453.44,-11.03 443.25,-8.1 443.65,-15.09"/>
</a>
</g>
</g>
<!-- Node57&#45;&gt;Node8 -->
<g id="edge22_Node000057_Node000008" class="edge">
<title>Node57&#45;&gt;Node8</title>
<g id="a_edge22_Node000057_Node000008"><a xlink:title=" ">
<path fill="none" stroke="#63b8ff" d="M796.41,-109.91C785.22,-95.97 761.05,-68.61 734,-55 678.54,-27.08 607.58,-16.61 558.62,-12.72"/>
<polygon fill="#63b8ff" stroke="#63b8ff" points="558.75,-9.22 548.52,-11.99 558.24,-16.21 558.75,-9.22"/>
</a>
</g>
</g>
<!-- Node58&#45;&gt;Node3 -->
<g id="edge30_Node000058_Node000003" class="edge">
<title>Node58&#45;&gt;Node3</title>
<g id="a_edge30_Node000058_Node000003"><a xlink:title=" ">
<path fill="none" stroke="#63b8ff" d="M563.89,-329.96C587.7,-323.49 616.06,-312.45 636,-294 649,-281.98 656.9,-263.17 661.31,-249.14"/>
<polygon fill="#63b8ff" stroke="#63b8ff" points="664.78,-249.7 664.12,-239.13 658.05,-247.81 664.78,-249.7"/>
</a>
</g>
</g>
<!-- Node58&#45;&gt;Node4 -->
<g id="edge43_Node000058_Node000004" class="edge">
<title>Node58&#45;&gt;Node4</title>
<g id="a_edge43_Node000058_Node000004"><a xlink:title=" ">
<path fill="none" stroke="#63b8ff" d="M552.02,-329.87C570.18,-323.26 591.17,-312.1 602,-294 622.33,-260.03 591.86,-215.28 571.95,-191.68"/>
<polygon fill="#63b8ff" stroke="#63b8ff" points="574.44,-189.21 565.21,-184 569.18,-193.83 574.44,-189.21"/>
</a>
</g>
</g>
<!-- Node58&#45;&gt;Node5 -->
<g id="edge44_Node000058_Node000005" class="edge">
<title>Node58&#45;&gt;Node5</title>
<g id="a_edge44_Node000058_Node000005"><a xlink:title=" ">
<path fill="none" stroke="#63b8ff" d="M569.85,-330.43C604.58,-323.67 651.02,-312.16 689,-294 779.64,-250.66 870.73,-170.49 907.29,-136.45"/>
<polygon fill="#63b8ff" stroke="#63b8ff" points="910.12,-138.6 915.01,-129.2 905.32,-133.5 910.12,-138.6"/>
</a>
</g>
</g>
<!-- Node58&#45;&gt;Node8 -->
<g id="edge53_Node000058_Node000008" class="edge">
<title>Node58&#45;&gt;Node8</title>
<g id="a_edge53_Node000058_Node000008"><a xlink:title=" ">
<path fill="none" stroke="#63b8ff" d="M468.22,-336.14C356.24,-329.55 98,-306.15 98,-230.5 98,-230.5 98,-230.5 98,-118.5 98,-47.91 331.62,-22.2 443.11,-13.96"/>
<polygon fill="#63b8ff" stroke="#63b8ff" points="443.46,-17.44 453.19,-13.23 442.96,-10.46 443.46,-17.44"/>
</a>
</g>
</g>
<!-- Node58&#45;&gt;Node27 -->
<g id="edge32_Node000058_Node000027" class="edge">
<title>Node58&#45;&gt;Node27</title>
<g id="a_edge32_Node000058_Node000027"><a xlink:title=" ">
<path fill="none" stroke="#63b8ff" d="M515.49,-329.74C512,-320.84 506.67,-306.61 503,-294 486.87,-238.56 473.49,-171.52 467.45,-139.42"/>
<polygon fill="#63b8ff" stroke="#63b8ff" points="470.84,-138.46 465.57,-129.26 463.95,-139.73 470.84,-138.46"/>
</a>
</g>
</g>
<!-- Node58&#45;&gt;Node47 -->
<g id="edge31_Node000058_Node000047" class="edge">
<title>Node58&#45;&gt;Node47</title>
<g id="a_edge31_Node000058_Node000047"><a xlink:title=" ">
<path fill="none" stroke="#63b8ff" d="M558.36,-330C586.87,-322.86 625.73,-311.07 657,-294 690.82,-275.54 704.61,-272.29 724,-239 731.84,-225.54 734.41,-207.94 735.12,-194.68"/>
<polygon fill="#63b8ff" stroke="#63b8ff" points="738.62,-194.44 735.35,-184.37 731.62,-194.28 738.62,-194.44"/>
</a>
</g>
</g>
<!-- Node58&#45;&gt;Node54 -->
<g id="edge42_Node000058_Node000054" class="edge">
<title>Node58&#45;&gt;Node54</title>
<g id="a_edge42_Node000058_Node000054"><a xlink:title=" ">
<path fill="none" stroke="#63b8ff" d="M468.31,-333.95C405.56,-327.55 303.03,-314.34 271,-294 220.41,-261.87 211.19,-241.1 193,-184 188.15,-168.79 193.44,-151.15 199.2,-138.33"/>
<polygon fill="#63b8ff" stroke="#63b8ff" points="202.41,-139.73 203.74,-129.22 196.15,-136.61 202.41,-139.73"/>
</a>
</g>
</g>
<!-- Node59 -->
<g id="Node000059" class="node">
<title>Node59</title>
<g id="a_Node000059"><a xlink:href="../../dc/db7/map_8h.html" target="_top" xlink:title=" ">
<polygon fill="#fff0f0" stroke="red" points="417.5,-184 346.5,-184 346.5,-165 417.5,-165 417.5,-184"/>
<text text-anchor="middle" x="382" y="-172" font-family="Helvetica,sans-Serif" font-size="10.00">fl/stl/map.h</text>
</a>
</g>
</g>
<!-- Node58&#45;&gt;Node59 -->
<g id="edge33_Node000058_Node000059" class="edge">
<title>Node58&#45;&gt;Node59</title>
<g id="a_edge33_Node000058_Node000059"><a xlink:title=" ">
<path fill="none" stroke="#63b8ff" d="M507.73,-329.69C497.27,-321.2 481.61,-307.66 470,-294 444.61,-264.13 445.84,-251.12 422,-220 414.42,-210.11 405.16,-199.71 397.45,-191.46"/>
<polygon fill="#63b8ff" stroke="#63b8ff" points="399.81,-188.86 390.39,-184.01 394.74,-193.68 399.81,-188.86"/>
</a>
</g>
</g>
<!-- Node64 -->
<g id="Node000064" class="node">
<title>Node64</title>
<g id="a_Node000064"><a xlink:href="../../db/daa/unordered__map_8h.html" target="_top" xlink:title=" ">
<polygon fill="#fff0f0" stroke="red" points="328,-184 202,-184 202,-165 328,-165 328,-184"/>
<text text-anchor="middle" x="265" y="-172" font-family="Helvetica,sans-Serif" font-size="10.00">fl/stl/unordered_map.h</text>
</a>
</g>
</g>
<!-- Node58&#45;&gt;Node64 -->
<g id="edge36_Node000058_Node000064" class="edge">
<title>Node58&#45;&gt;Node64</title>
<g id="a_edge36_Node000058_Node000064"><a xlink:title=" ">
<path fill="none" stroke="#63b8ff" d="M505.7,-329.97C464.48,-303.51 338.52,-222.68 287.16,-189.72"/>
<polygon fill="#63b8ff" stroke="#63b8ff" points="288.78,-186.6 278.47,-184.15 285,-192.49 288.78,-186.6"/>
</a>
</g>
</g>
<!-- Node58&#45;&gt;Node67 -->
<g id="edge45_Node000058_Node000067" class="edge">
<title>Node58&#45;&gt;Node67</title>
<g id="a_edge45_Node000058_Node000067"><a xlink:title=" ">
<path fill="none" stroke="#63b8ff" d="M488.63,-329.98C456.63,-321.01 406.04,-306.82 370.62,-296.89"/>
<polygon fill="#63b8ff" stroke="#63b8ff" points="371.18,-293.41 360.6,-294.08 369.29,-300.15 371.18,-293.41"/>
</a>
</g>
</g>
<!-- Node80 -->
<g id="Node000080" class="node">
<title>Node80</title>
<g id="a_Node000080"><a xlink:href="../../d0/df8/mutex_8h.html" target="_top" xlink:title="Platform&#45;independent mutex interface.">
<polygon fill="#fff0f0" stroke="red" points="593.5,-294 512.5,-294 512.5,-275 593.5,-275 593.5,-294"/>
<text text-anchor="middle" x="553" y="-282" font-family="Helvetica,sans-Serif" font-size="10.00">fl/stl/mutex.h</text>
</a>
</g>
</g>
<!-- Node58&#45;&gt;Node80 -->
<g id="edge49_Node000058_Node000080" class="edge">
<title>Node58&#45;&gt;Node80</title>
<g id="a_edge49_Node000058_Node000080"><a xlink:title=" ">
<path fill="none" stroke="#63b8ff" d="M524.61,-329.75C529.32,-322.42 536.17,-311.73 541.97,-302.7"/>
<polygon fill="#63b8ff" stroke="#63b8ff" points="545.04,-304.4 547.49,-294.09 539.14,-300.62 545.04,-304.4"/>
</a>
</g>
</g>
<!-- Node58&#45;&gt;Node82 -->
<g id="edge50_Node000058_Node000082" class="edge">
<title>Node58&#45;&gt;Node82</title>
<g id="a_edge50_Node000058_Node000082"><a xlink:title=" ">
<path fill="none" stroke="#63b8ff" d="M569.65,-330.57C625.04,-321.85 716.4,-307.3 795,-294 796.27,-293.79 797.55,-293.57 798.85,-293.34"/>
<polygon fill="#63b8ff" stroke="#63b8ff" points="799.67,-296.76 808.92,-291.6 798.47,-289.86 799.67,-296.76"/>
</a>
</g>
</g>
<!-- Node86 -->
<g id="Node000086" class="node">
<title>Node86</title>
<g id="a_Node000086"><a xlink:href="../../d4/d05/json_8h.html" target="_top" xlink:title="FastLED&#39;s Elegant JSON Library: fl::json">
<polygon fill="#fff0f0" stroke="red" points="70,-239 0,-239 0,-220 70,-220 70,-239"/>
<text text-anchor="middle" x="35" y="-227" font-family="Helvetica,sans-Serif" font-size="10.00">fl/stl/json.h</text>
</a>
</g>
</g>
<!-- Node58&#45;&gt;Node86 -->
<g id="edge51_Node000058_Node000086" class="edge">
<title>Node58&#45;&gt;Node86</title>
<g id="a_edge51_Node000058_Node000086"><a xlink:title=" ">
<path fill="none" stroke="#63b8ff" d="M468.46,-338.26C368.34,-337.01 148.84,-330.08 84,-294 65.61,-283.77 51.86,-263.49 43.67,-248.59"/>
<polygon fill="#63b8ff" stroke="#63b8ff" points="46.6,-246.62 38.91,-239.32 40.37,-249.82 46.6,-246.62"/>
</a>
</g>
</g>
<!-- Node59&#45;&gt;Node8 -->
<g id="edge35_Node000059_Node000008" class="edge">
<title>Node59&#45;&gt;Node8</title>
<g id="a_edge35_Node000059_Node000008"><a xlink:title=" ">
<path fill="none" stroke="#63b8ff" d="M385.27,-164.72C393.29,-144 415.5,-91.07 446,-55 455.64,-43.6 468.52,-33 479.39,-25"/>
<polygon fill="#63b8ff" stroke="#63b8ff" points="481.46,-27.83 487.58,-19.18 477.4,-22.12 481.46,-27.83"/>
</a>
</g>
</g>
<!-- Node59&#45;&gt;Node27 -->
<g id="edge34_Node000059_Node000027" class="edge">
<title>Node59&#45;&gt;Node27</title>
<g id="a_edge34_Node000059_Node000027"><a xlink:title=" ">
<path fill="none" stroke="#63b8ff" d="M395.17,-164.98C407.77,-156.84 427,-144.41 441.94,-134.76"/>
<polygon fill="#63b8ff" stroke="#63b8ff" points="444.09,-137.54 450.59,-129.17 440.29,-131.66 444.09,-137.54"/>
</a>
</g>
</g>
<!-- Node64&#45;&gt;Node9 -->
<g id="edge37_Node000064_Node000009" class="edge">
<title>Node64&#45;&gt;Node9</title>
<g id="a_edge37_Node000064_Node000009"><a xlink:title=" ">
<path fill="none" stroke="#63b8ff" d="M282.15,-164.99C309.61,-151.66 365.4,-125.74 415,-110 588.93,-54.81 805.75,-25.45 894.86,-14.99"/>
<polygon fill="#63b8ff" stroke="#63b8ff" points="895.3,-18.46 904.83,-13.84 894.5,-11.51 895.3,-18.46"/>
</a>
</g>
</g>
<!-- Node64&#45;&gt;Node8 -->
<g id="edge41_Node000064_Node000008" class="edge">
<title>Node64&#45;&gt;Node8</title>
<g id="a_edge41_Node000064_Node000008"><a xlink:title=" ">
<path fill="none" stroke="#63b8ff" d="M269.76,-164.72C277.29,-151.49 293.05,-126.25 312,-110 359.87,-68.93 427.56,-38.51 467.6,-22.72"/>
<polygon fill="#63b8ff" stroke="#63b8ff" points="469.09,-25.9 477.16,-19.02 466.57,-19.37 469.09,-25.9"/>
</a>
</g>
</g>
<!-- Node64&#45;&gt;Node27 -->
<g id="edge40_Node000064_Node000027" class="edge">
<title>Node64&#45;&gt;Node27</title>
<g id="a_edge40_Node000064_Node000027"><a xlink:title=" ">
<path fill="none" stroke="#63b8ff" d="M296.97,-164.98C330.82,-155.97 384.4,-141.7 421.71,-131.76"/>
<polygon fill="#63b8ff" stroke="#63b8ff" points="423.01,-135.04 431.78,-129.08 421.21,-128.27 423.01,-135.04"/>
</a>
</g>
</g>
<!-- Node64&#45;&gt;Node7 -->
<g id="edge38_Node000064_Node000007" class="edge">
<title>Node64&#45;&gt;Node7</title>
<g id="a_edge38_Node000064_Node000007"><a xlink:title=" ">
<path fill="none" stroke="#63b8ff" d="M273.4,-164.78C287.01,-151.16 315.23,-124.85 344,-110 378.19,-92.35 420.28,-80.9 452.28,-74.04"/>
<polygon fill="#63b8ff" stroke="#63b8ff" points="453.2,-77.43 462.29,-71.98 451.79,-70.57 453.2,-77.43"/>
</a>
</g>
</g>
<!-- Node64&#45;&gt;Node54 -->
<g id="edge39_Node000064_Node000054" class="edge">
<title>Node64&#45;&gt;Node54</title>
<g id="a_edge39_Node000064_Node000054"><a xlink:title=" ">
<path fill="none" stroke="#63b8ff" d="M256,-164.98C247.81,-157.23 235.49,-145.58 225.53,-136.14"/>
<polygon fill="#63b8ff" stroke="#63b8ff" points="227.83,-133.5 218.16,-129.17 223.02,-138.59 227.83,-133.5"/>
</a>
</g>
</g>
<!-- Node67&#45;&gt;Node3 -->
<g id="edge46_Node000067_Node000003" class="edge">
<title>Node67&#45;&gt;Node3</title>
<g id="a_edge46_Node000067_Node000003"><a xlink:title=" ">
<path fill="none" stroke="#63b8ff" d="M380.3,-275.57C440.95,-266 542.72,-249.95 607.01,-239.8"/>
<polygon fill="#63b8ff" stroke="#63b8ff" points="607.66,-243.25 617,-238.23 606.57,-236.33 607.66,-243.25"/>
</a>
</g>
</g>
<!-- Node67&#45;&gt;Node8 -->
<g id="edge48_Node000067_Node000008" class="edge">
<title>Node67&#45;&gt;Node8</title>
<g id="a_edge48_Node000067_Node000008"><a xlink:title=" ">
<path fill="none" stroke="#63b8ff" d="M307.35,-274.92C251.19,-252.27 112.98,-187.23 155,-110 176.5,-70.47 198.07,-71.34 240,-55 306.79,-28.97 389.06,-18.14 443.17,-13.65"/>
<polygon fill="#63b8ff" stroke="#63b8ff" points="443.57,-17.13 453.27,-12.86 443.02,-10.15 443.57,-17.13"/>
</a>
</g>
</g>
<!-- Node67&#45;&gt;Node27 -->
<g id="edge47_Node000067_Node000027" class="edge">
<title>Node67&#45;&gt;Node27</title>
<g id="a_edge47_Node000067_Node000027"><a xlink:title=" ">
<path fill="none" stroke="#63b8ff" d="M339.75,-274.81C357.99,-258.27 397.98,-220.59 426,-184 437.2,-169.37 447.78,-151.2 454.92,-138.05"/>
<polygon fill="#63b8ff" stroke="#63b8ff" points="458.06,-139.59 459.66,-129.11 451.88,-136.31 458.06,-139.59"/>
</a>
</g>
</g>
<!-- Node86&#45;&gt;Node8 -->
<g id="edge52_Node000086_Node000008" class="edge">
<title>Node86&#45;&gt;Node8</title>
<g id="a_edge52_Node000086_Node000008"><a xlink:title=" ">
<path fill="none" stroke="#63b8ff" d="M34.41,-219.91C32.96,-191.28 32.57,-98.4 84,-55 110.92,-32.28 335.4,-18.48 443.4,-13.1"/>
<polygon fill="#63b8ff" stroke="#63b8ff" points="443.66,-16.59 453.47,-12.6 443.31,-9.6 443.66,-16.59"/>
</a>
</g>
</g>
<!-- Node90&#45;&gt;Node9 -->
<g id="edge56_Node000090_Node000009" class="edge">
<title>Node90&#45;&gt;Node9</title>
<g id="a_edge56_Node000090_Node000009"><a xlink:title=" ">
<path fill="none" stroke="#63b8ff" d="M1008.29,-219.88C1025,-213.03 1045.04,-201.62 1055,-184 1083.22,-134.09 1087.68,-102.11 1055,-55 1037.55,-29.85 1004.05,-18.89 977.03,-14.13"/>
<polygon fill="#63b8ff" stroke="#63b8ff" points="977.46,-10.65 967.04,-12.59 976.39,-17.57 977.46,-10.65"/>
</a>
</g>
</g>
<!-- Node90&#45;&gt;Node8 -->
<g id="edge59_Node000090_Node000008" class="edge">
<title>Node90&#45;&gt;Node8</title>
<g id="a_edge59_Node000090_Node000008"><a xlink:title=" ">
<path fill="none" stroke="#63b8ff" d="M987.57,-219.96C1008.05,-192.25 1066.8,-103.79 1022,-55 991.18,-21.43 688.13,-13.14 558.9,-11.13"/>
<polygon fill="#63b8ff" stroke="#63b8ff" points="558.85,-7.63 548.79,-10.98 558.74,-14.63 558.85,-7.63"/>
</a>
</g>
</g>
<!-- Node90&#45;&gt;Node47 -->
<g id="edge57_Node000090_Node000047" class="edge">
<title>Node90&#45;&gt;Node47</title>
<g id="a_edge57_Node000090_Node000047"><a xlink:title=" ">
<path fill="none" stroke="#63b8ff" d="M949.84,-221.79C907.87,-212.74 832.75,-196.56 783.39,-185.93"/>
<polygon fill="#63b8ff" stroke="#63b8ff" points="784.09,-182.5 773.58,-183.81 782.62,-189.34 784.09,-182.5"/>
</a>
</g>
</g>
<!-- Node90&#45;&gt;Node57 -->
<g id="edge58_Node000090_Node000057" class="edge">
<title>Node90&#45;&gt;Node57</title>
<g id="a_edge58_Node000090_Node000057"><a xlink:title=" ">
<path fill="none" stroke="#63b8ff" d="M966.73,-219.84C936.01,-201.2 863.35,-157.11 826.02,-134.46"/>
<polygon fill="#63b8ff" stroke="#63b8ff" points="827.7,-131.39 817.33,-129.2 824.07,-137.38 827.7,-131.39"/>
</a>
</g>
</g>
</g>
</svg>

<g id="navigator" transform="translate(0 0)" fill="#404254">
  <rect fill="#f2f5e9" fill-opacity="0.5" stroke="#606060" stroke-width=".5" x="0" y="0" width="60" height="60"/>
  <use id="zoomplus" xlink:href="#zoomPlus" x="17" y="9" onmousedown="handleZoom(evt,'in')"/>
  <use id="zoomminus" xlink:href="#zoomMin" x="42" y="9" onmousedown="handleZoom(evt,'out')"/>
  <use id="reset" xlink:href="#resetDef" x="30" y="36" onmousedown="handleReset()"/>
   <use id="arrowup" xlink:href="#arrowUp" x="0" y="0" onmousedown="handlePan(0,-1)"/>
  <use id="arrowright" xlink:href="#arrowRight" x="0" y="0" onmousedown="handlePan(1,0)"/>
  <use id="arrowdown" xlink:href="#arrowDown" x="0" y="0" onmousedown="handlePan(0,1)"/>
  <use id="arrowleft" xlink:href="#arrowLeft" x="0" y="0" onmousedown="handlePan(-1,0)"/>
</g>
<svg viewBox="0 0 15 15" width="100%" height="30px" preserveAspectRatio="xMaxYMin meet">
 <g id="arrow_out" transform="scale(0.3 0.3)">
  <a xlink:href="fetch__request_8cpp_8hpp__incl_org.svg" target="_base">
   <rect id="button" ry="5" rx="5" y="6" x="6" height="38" width="38"
        fill="#f2f5e9" fill-opacity="0.5" stroke="#606060" stroke-width="1.0"/>
   <path id="arrow"
     d="M 11.500037,31.436501 C 11.940474,20.09759 22.043105,11.32322 32.158766,21.979434 L 37.068811,17.246167 C 37.068811,17.246167 37.088388,32 37.088388,32 L 22.160133,31.978069 C 22.160133,31.978069 26.997745,27.140456 26.997745,27.140456 C 18.528582,18.264221 13.291696,25.230495 11.500037,31.436501 z"
     style="fill:#404040;"/>
  </a>
 </g>
</svg>

<style type='text/css'>
<![CDATA[
[data-mouse-over-selected='false'] { opacity: 0.7; }
[data-mouse-over-selected='true']  { opacity: 1.0; }
]]>
</style>
<script type="application/ecmascript"><![CDATA[
document.addEventListener('DOMContentLoaded', (event) => {
  highlightEdges();
  highlightAdjacentNodes();
});
]]></script>
</svg>
