<?xml version="1.0" encoding="UTF-8" standalone="no"?>
<!DOCTYPE svg PUBLIC "-//W3C//DTD SVG 1.1//EN"
 "http://www.w3.org/Graphics/SVG/1.1/DTD/svg11.dtd">
<!-- Generated by graphviz version 2.43.0 (0)
 -->
<!-- Title: fl::task::make_rejected_promise Pages: 1 -->
<!--zoomable 129 -->

<svg id="main" version="1.1" xmlns="http://www.w3.org/2000/svg" xmlns:xlink="http://www.w3.org/1999/xlink" xml:space="preserve" onload="init(evt)">

<style type="text/css"><![CDATA[
.node, .edge {opacity: 0.7;}
.node.selected, .edge.selected {opacity: 1;}
.edge:hover path { stroke: red; }
.edge:hover polygon { stroke: red; fill: red; }
]]></style>

<defs>
  <circle id="rim" cx="0" cy="0" r="7"/>
  <circle id="rim2" cx="0" cy="0" r="3.5"/>
  <g id="zoomPlus">
    <use xlink:href="#rim" fill="#404040"><set attributeName="fill" to="#808080" begin="zoomplus.mouseover" end="zoomplus.mouseout"/></use>
    <path d="M-4,0h8M0,-4v8" fill="none" stroke="white" stroke-width="1.5" pointer-events="none"/>
  </g>
  <g id="zoomMin">
    <use xlink:href="#rim" fill="#404040"><set attributeName="fill" to="#808080" begin="zoomminus.mouseover" end="zoomminus.mouseout"/></use>
    <path d="M-4,0h8" fill="none" stroke="white" stroke-width="1.5" pointer-events="none"/>
  </g>
  <g id="arrowUp" transform="translate(30 24)">
    <use xlink:href="#rim"/>
    <path pointer-events="none" fill="none" stroke="white" stroke-width="1.5" d="M0,-3.0v7 M-2.5,-0.5L0,-3.0L2.5,-0.5"/>
  </g>
  <g id="arrowRight" transform="rotate(90) translate(36 -43)">
    <use xlink:href="#rim"/>
    <path pointer-events="none" fill="none" stroke="white" stroke-width="1.5" d="M0,-3.0v7 M-2.5,-0.5L0,-3.0L2.5,-0.5"/>
  </g>
  <g id="arrowDown" transform="rotate(180) translate(-30 -48)">
    <use xlink:href="#rim"/>
    <path pointer-events="none" fill="none" stroke="white" stroke-width="1.5" d="M0,-3.0v7 M-2.5,-0.5L0,-3.0L2.5,-0.5"/>
  </g>
  <g id="arrowLeft" transform="rotate(270) translate(-36 17)">
    <use xlink:href="#rim"/>
    <path pointer-events="none" fill="none" stroke="white" stroke-width="1.5" d="M0,-3.0v7 M-2.5,-0.5L0,-3.0L2.5,-0.5"/>
  </g>
  <g id="resetDef">
    <use xlink:href="#rim2" fill="#404040"><set attributeName="fill" to="#808080" begin="reset.mouseover" end="reset.mouseout"/></use>
  </g>
</defs>
<script type="application/ecmascript">
var viewWidth = 547;
var viewHeight = 129;
var sectionId = 'dynsection-0';
</script>
<script type="application/ecmascript" xlink:href="../../svg.min.js"/>
<svg id="graph" class="graph">
<g id="viewport">
<title>fl::task::make_rejected_promise</title>
<!-- Node1 -->
<g id="Node000001" class="node">
<title>Node1</title>
<g id="a_Node000001"><a xlink:title="Convenience function to create a rejected Promise (const char* overload)">
<polygon fill="#999999" stroke="#666666" points="128,-78 0,-78 0,-48 128,-48 128,-78"/>
<text text-anchor="start" x="8" y="-66" font-family="Helvetica,sans-Serif" font-size="10.00">fl::task::make_rejected</text>
<text text-anchor="middle" x="64" y="-55" font-family="Helvetica,sans-Serif" font-size="10.00">_promise</text>
</a>
</g>
</g>
<!-- Node2 -->
<g id="Node000002" class="node">
<title>Node2</title>
<g id="a_Node000002"><a xlink:href="../../d0/d34/classfl_1_1task_1_1_promise_a9af1464fc77b450d7f501f9a9caddf8a.html#a9af1464fc77b450d7f501f9a9caddf8a" target="_top" xlink:title="Create a rejected Promise with error.">
<polygon fill="white" stroke="#666666" points="265,-78 164,-78 164,-48 265,-48 265,-78"/>
<text text-anchor="start" x="172" y="-66" font-family="Helvetica,sans-Serif" font-size="10.00">fl::task::Promise::</text>
<text text-anchor="middle" x="214.5" y="-55" font-family="Helvetica,sans-Serif" font-size="10.00">reject</text>
</a>
</g>
</g>
<!-- Node1&#45;&gt;Node2 -->
<g id="edge1_Node000001_Node000002" class="edge">
<title>Node1&#45;&gt;Node2</title>
<g id="a_edge1_Node000001_Node000002"><a xlink:title=" ">
<path fill="none" stroke="#63b8ff" d="M128.41,-63C136.81,-63 145.41,-63 153.75,-63"/>
<polygon fill="#63b8ff" stroke="#63b8ff" points="153.77,-66.5 163.77,-63 153.77,-59.5 153.77,-66.5"/>
</a>
</g>
</g>
<!-- Node3 -->
<g id="Node000003" class="node">
<title>Node3</title>
<g id="a_Node000003"><a xlink:href="../../d0/d34/classfl_1_1task_1_1_promise_a4ae6da8172cc69a1dbbc7a01bc86f959.html#a4ae6da8172cc69a1dbbc7a01bc86f959" target="_top" xlink:title="Default constructor &#45; creates invalid Promise.">
<polygon fill="white" stroke="#666666" points="539,-121 438,-121 438,-91 539,-91 539,-121"/>
<text text-anchor="start" x="446" y="-109" font-family="Helvetica,sans-Serif" font-size="10.00">fl::task::Promise::</text>
<text text-anchor="middle" x="488.5" y="-98" font-family="Helvetica,sans-Serif" font-size="10.00">Promise</text>
</a>
</g>
</g>
<!-- Node2&#45;&gt;Node3 -->
<g id="edge2_Node000002_Node000003" class="edge">
<title>Node2&#45;&gt;Node3</title>
<g id="a_edge2_Node000002_Node000003"><a xlink:title=" ">
<path fill="none" stroke="#63b8ff" d="M263.54,-78.05C275.67,-81.41 288.73,-84.67 301,-87 342.94,-94.96 390.86,-99.75 427.63,-102.53"/>
<polygon fill="#63b8ff" stroke="#63b8ff" points="427.46,-106.03 437.69,-103.26 427.97,-99.05 427.46,-106.03"/>
</a>
</g>
</g>
<!-- Node4 -->
<g id="Node000004" class="node">
<title>Node4</title>
<g id="a_Node000004"><a xlink:href="../../d0/d34/classfl_1_1task_1_1_promise_a9fd2b38e45453a1061acc972d64a2bed.html#a9fd2b38e45453a1061acc972d64a2bed" target="_top" xlink:title="Create a pending Promise.">
<polygon fill="white" stroke="#666666" points="402,-78 301,-78 301,-48 402,-48 402,-78"/>
<text text-anchor="start" x="309" y="-66" font-family="Helvetica,sans-Serif" font-size="10.00">fl::task::Promise::</text>
<text text-anchor="middle" x="351.5" y="-55" font-family="Helvetica,sans-Serif" font-size="10.00">create</text>
</a>
</g>
</g>
<!-- Node2&#45;&gt;Node4 -->
<g id="edge3_Node000002_Node000004" class="edge">
<title>Node2&#45;&gt;Node4</title>
<g id="a_edge3_Node000002_Node000004"><a xlink:title=" ">
<path fill="none" stroke="#63b8ff" d="M265,-63C273.24,-63 281.87,-63 290.34,-63"/>
<polygon fill="#63b8ff" stroke="#63b8ff" points="290.55,-66.5 300.55,-63 290.55,-59.5 290.55,-66.5"/>
</a>
</g>
</g>
<!-- Node6 -->
<g id="Node000006" class="node">
<title>Node6</title>
<g id="a_Node000006"><a xlink:href="../../d0/d34/classfl_1_1task_1_1_promise_a51a1be9fd686089d804cec834abd6ccc.html#a51a1be9fd686089d804cec834abd6ccc" target="_top" xlink:title="Get the error (only valid if is_rejected() returns true)">
<polygon fill="white" stroke="#666666" points="402,-30 301,-30 301,0 402,0 402,-30"/>
<text text-anchor="start" x="309" y="-18" font-family="Helvetica,sans-Serif" font-size="10.00">fl::task::Promise::</text>
<text text-anchor="middle" x="351.5" y="-7" font-family="Helvetica,sans-Serif" font-size="10.00">error</text>
</a>
</g>
</g>
<!-- Node2&#45;&gt;Node6 -->
<g id="edge6_Node000002_Node000006" class="edge">
<title>Node2&#45;&gt;Node6</title>
<g id="a_edge6_Node000002_Node000006"><a xlink:title=" ">
<path fill="none" stroke="#63b8ff" d="M257.84,-47.94C270.79,-43.34 285.17,-38.23 298.67,-33.43"/>
<polygon fill="#63b8ff" stroke="#63b8ff" points="300.06,-36.65 308.31,-30 297.71,-30.05 300.06,-36.65"/>
</a>
</g>
</g>
<!-- Node4&#45;&gt;Node3 -->
<g id="edge4_Node000004_Node000003" class="edge">
<title>Node4&#45;&gt;Node3</title>
<g id="a_edge4_Node000004_Node000003"><a xlink:title=" ">
<path fill="none" stroke="#63b8ff" d="M399.72,-78.04C409.63,-81.2 420.18,-84.56 430.41,-87.82"/>
<polygon fill="#63b8ff" stroke="#63b8ff" points="429.49,-91.2 440.08,-90.9 431.62,-84.53 429.49,-91.2"/>
</a>
</g>
</g>
<!-- Node5 -->
<g id="Node000005" class="node">
<title>Node5</title>
<g id="a_Node000005"><a xlink:href="../../d4/d36/namespacefl_a87ae8a24cc8b709a64f39370e71846af.html#a87ae8a24cc8b709a64f39370e71846af" target="_top" xlink:title=" ">
<polygon fill="white" stroke="#666666" points="535.5,-72.5 441.5,-72.5 441.5,-53.5 535.5,-53.5 535.5,-72.5"/>
<text text-anchor="middle" x="488.5" y="-60.5" font-family="Helvetica,sans-Serif" font-size="10.00">fl::make_shared</text>
</a>
</g>
</g>
<!-- Node4&#45;&gt;Node5 -->
<g id="edge5_Node000004_Node000005" class="edge">
<title>Node4&#45;&gt;Node5</title>
<g id="a_edge5_Node000004_Node000005"><a xlink:title=" ">
<path fill="none" stroke="#63b8ff" d="M402,-63C411.4,-63 421.29,-63 430.89,-63"/>
<polygon fill="#63b8ff" stroke="#63b8ff" points="431.14,-66.5 441.14,-63 431.14,-59.5 431.14,-66.5"/>
</a>
</g>
</g>
<!-- Node7 -->
<g id="Node000007" class="node">
<title>Node7</title>
<g id="a_Node000007"><a xlink:href="../../d0/d34/classfl_1_1task_1_1_promise_aa4a0fc861a1271cbb04a46aa7628c611.html#aa4a0fc861a1271cbb04a46aa7628c611" target="_top" xlink:title="Check if Promise is valid.">
<polygon fill="white" stroke="#666666" points="539,-30 438,-30 438,0 539,0 539,-30"/>
<text text-anchor="start" x="446" y="-18" font-family="Helvetica,sans-Serif" font-size="10.00">fl::task::Promise::</text>
<text text-anchor="middle" x="488.5" y="-7" font-family="Helvetica,sans-Serif" font-size="10.00">valid</text>
</a>
</g>
</g>
<!-- Node6&#45;&gt;Node7 -->
<g id="edge7_Node000006_Node000007" class="edge">
<title>Node6&#45;&gt;Node7</title>
<g id="a_edge7_Node000006_Node000007"><a xlink:title=" ">
<path fill="none" stroke="#63b8ff" d="M402,-15C410.24,-15 418.87,-15 427.34,-15"/>
<polygon fill="#63b8ff" stroke="#63b8ff" points="427.55,-18.5 437.55,-15 427.55,-11.5 427.55,-18.5"/>
</a>
</g>
</g>
</g>
</svg>

<g id="navigator" transform="translate(0 0)" fill="#404254">
  <rect fill="#f2f5e9" fill-opacity="0.5" stroke="#606060" stroke-width=".5" x="0" y="0" width="60" height="60"/>
  <use id="zoomplus" xlink:href="#zoomPlus" x="17" y="9" onmousedown="handleZoom(evt,'in')"/>
  <use id="zoomminus" xlink:href="#zoomMin" x="42" y="9" onmousedown="handleZoom(evt,'out')"/>
  <use id="reset" xlink:href="#resetDef" x="30" y="36" onmousedown="handleReset()"/>
   <use id="arrowup" xlink:href="#arrowUp" x="0" y="0" onmousedown="handlePan(0,-1)"/>
  <use id="arrowright" xlink:href="#arrowRight" x="0" y="0" onmousedown="handlePan(1,0)"/>
  <use id="arrowdown" xlink:href="#arrowDown" x="0" y="0" onmousedown="handlePan(0,1)"/>
  <use id="arrowleft" xlink:href="#arrowLeft" x="0" y="0" onmousedown="handlePan(-1,0)"/>
</g>
<svg viewBox="0 0 15 15" width="100%" height="30px" preserveAspectRatio="xMaxYMin meet">
 <g id="arrow_out" transform="scale(0.3 0.3)">
  <a xlink:href="namespacefl_1_1task_a0b58138871d6ab845d072723971b393d_a0b58138871d6ab845d072723971b393d_cgraph_org.svg" target="_base">
   <rect id="button" ry="5" rx="5" y="6" x="6" height="38" width="38"
        fill="#f2f5e9" fill-opacity="0.5" stroke="#606060" stroke-width="1.0"/>
   <path id="arrow"
     d="M 11.500037,31.436501 C 11.940474,20.09759 22.043105,11.32322 32.158766,21.979434 L 37.068811,17.246167 C 37.068811,17.246167 37.088388,32 37.088388,32 L 22.160133,31.978069 C 22.160133,31.978069 26.997745,27.140456 26.997745,27.140456 C 18.528582,18.264221 13.291696,25.230495 11.500037,31.436501 z"
     style="fill:#404040;"/>
  </a>
 </g>
</svg>

<style type='text/css'>
<![CDATA[
[data-mouse-over-selected='false'] { opacity: 0.7; }
[data-mouse-over-selected='true']  { opacity: 1.0; }
]]>
</style>
<script type="application/ecmascript"><![CDATA[
document.addEventListener('DOMContentLoaded', (event) => {
  highlightEdges();
  highlightAdjacentNodes();
});
]]></script>
</svg>
