<?xml version="1.0" encoding="UTF-8" standalone="no"?>
<!DOCTYPE svg PUBLIC "-//W3C//DTD SVG 1.1//EN"
 "http://www.w3.org/Graphics/SVG/1.1/DTD/svg11.dtd">
<!-- Generated by graphviz version 2.43.0 (0)
 -->
<!-- Title: fl/leds.cpp Pages: 1 -->
<svg width="861pt" height="357pt"
 viewBox="0.00 0.00 861.50 357.00" xmlns="http://www.w3.org/2000/svg" xmlns:xlink="http://www.w3.org/1999/xlink">
<g id="graph0" class="graph" transform="scale(1 1) rotate(0) translate(4 353)">
<title>fl/leds.cpp</title>
<!-- Node1 -->
<g id="Node000001" class="node">
<title>Node1</title>
<g id="a_Node000001"><a xlink:title=" ">
<polygon fill="#999999" stroke="#666666" points="507,-349 441,-349 441,-330 507,-330 507,-349"/>
<text text-anchor="middle" x="474" y="-337" font-family="Helvetica,sans-Serif" font-size="10.00">fl/leds.cpp</text>
</a>
</g>
</g>
<!-- Node2 -->
<g id="Node000002" class="node">
<title>Node2</title>
<g id="a_Node000002"><a xlink:href="../../da/d78/leds_8h.html" target="_top" xlink:title=" ">
<polygon fill="white" stroke="#666666" points="473.5,-294 418.5,-294 418.5,-275 473.5,-275 473.5,-294"/>
<text text-anchor="middle" x="446" y="-282" font-family="Helvetica,sans-Serif" font-size="10.00">fl/leds.h</text>
</a>
</g>
</g>
<!-- Node1&#45;&gt;Node2 -->
<g id="edge1_Node000001_Node000002" class="edge">
<title>Node1&#45;&gt;Node2</title>
<g id="a_edge1_Node000001_Node000002"><a xlink:title=" ">
<path fill="none" stroke="#63b8ff" d="M469.37,-329.75C465.54,-322.49 459.97,-311.95 455.23,-302.98"/>
<polygon fill="#63b8ff" stroke="#63b8ff" points="458.3,-301.3 450.53,-294.09 452.11,-304.57 458.3,-301.3"/>
</a>
</g>
</g>
<!-- Node3 -->
<g id="Node000003" class="node">
<title>Node3</title>
<g id="a_Node000003"><a xlink:href="../../db/dd1/crgb_8h.html" target="_top" xlink:title="Defines the red, green, and blue (RGB) pixel struct.">
<polygon fill="white" stroke="#666666" points="573.5,-184 526.5,-184 526.5,-165 573.5,-165 573.5,-184"/>
<text text-anchor="middle" x="550" y="-172" font-family="Helvetica,sans-Serif" font-size="10.00">crgb.h</text>
</a>
</g>
</g>
<!-- Node1&#45;&gt;Node3 -->
<g id="edge40_Node000001_Node000003" class="edge">
<title>Node1&#45;&gt;Node3</title>
<g id="a_edge40_Node000001_Node000003"><a xlink:title=" ">
<path fill="none" stroke="#63b8ff" d="M476.74,-329.91C483.24,-310.03 500.55,-259.51 521,-220 525.92,-210.48 532.36,-200.43 537.91,-192.29"/>
<polygon fill="#63b8ff" stroke="#63b8ff" points="540.81,-194.25 543.68,-184.05 535.08,-190.24 540.81,-194.25"/>
</a>
</g>
</g>
<!-- Node13 -->
<g id="Node000013" class="node">
<title>Node13</title>
<g id="a_Node000013"><a xlink:href="../../da/d61/xymap_8h.html" target="_top" xlink:title=" ">
<polygon fill="white" stroke="#666666" points="360,-239 292,-239 292,-220 360,-220 360,-239"/>
<text text-anchor="middle" x="326" y="-227" font-family="Helvetica,sans-Serif" font-size="10.00">fl/xymap.h</text>
</a>
</g>
</g>
<!-- Node1&#45;&gt;Node13 -->
<g id="edge43_Node000001_Node000013" class="edge">
<title>Node1&#45;&gt;Node13</title>
<g id="a_edge43_Node000001_Node000013"><a xlink:title=" ">
<path fill="none" stroke="#63b8ff" d="M460.91,-329.83C447.68,-321.01 426.72,-306.83 409,-294 386.6,-277.78 361.44,-258.36 344.76,-245.31"/>
<polygon fill="#63b8ff" stroke="#63b8ff" points="346.89,-242.53 336.87,-239.11 342.57,-248.04 346.89,-242.53"/>
</a>
</g>
</g>
<!-- Node33 -->
<g id="Node000033" class="node">
<title>Node33</title>
<g id="a_Node000033"><a xlink:href="../../dc/da7/assert_8h.html" target="_top" xlink:title=" ">
<polygon fill="white" stroke="#666666" points="611.5,-294 546.5,-294 546.5,-275 611.5,-275 611.5,-294"/>
<text text-anchor="middle" x="579" y="-282" font-family="Helvetica,sans-Serif" font-size="10.00">fl/assert.h</text>
</a>
</g>
</g>
<!-- Node1&#45;&gt;Node33 -->
<g id="edge41_Node000001_Node000033" class="edge">
<title>Node1&#45;&gt;Node33</title>
<g id="a_edge41_Node000001_Node000033"><a xlink:title=" ">
<path fill="none" stroke="#63b8ff" d="M490.87,-329.98C507.6,-321.54 533.49,-308.47 552.89,-298.68"/>
<polygon fill="#63b8ff" stroke="#63b8ff" points="554.47,-301.8 561.82,-294.17 551.31,-295.55 554.47,-301.8"/>
</a>
</g>
</g>
<!-- Node2&#45;&gt;Node3 -->
<g id="edge2_Node000002_Node000003" class="edge">
<title>Node2&#45;&gt;Node3</title>
<g id="a_edge2_Node000002_Node000003"><a xlink:title=" ">
<path fill="none" stroke="#63b8ff" d="M450.31,-274.99C457.12,-262.11 471.31,-237.33 488,-220 499.27,-208.29 513.98,-197.58 526.25,-189.6"/>
<polygon fill="#63b8ff" stroke="#63b8ff" points="528.45,-192.35 535.05,-184.06 524.72,-186.42 528.45,-192.35"/>
</a>
</g>
</g>
<!-- Node2&#45;&gt;Node13 -->
<g id="edge16_Node000002_Node000013" class="edge">
<title>Node2&#45;&gt;Node13</title>
<g id="a_edge16_Node000002_Node000013"><a xlink:title=" ">
<path fill="none" stroke="#63b8ff" d="M426.72,-274.98C407.32,-266.42 377.19,-253.11 354.93,-243.28"/>
<polygon fill="#63b8ff" stroke="#63b8ff" points="356.19,-240.01 345.63,-239.17 353.36,-246.41 356.19,-240.01"/>
</a>
</g>
</g>
<!-- Node4 -->
<g id="Node000004" class="node">
<title>Node4</title>
<g id="a_Node000004"><a xlink:href="../../df/dd8/stdint_8h.html" target="_top" xlink:title=" ">
<polygon fill="#fff0f0" stroke="red" points="474.5,-74 421.5,-74 421.5,-55 474.5,-55 474.5,-74"/>
<text text-anchor="middle" x="448" y="-62" font-family="Helvetica,sans-Serif" font-size="10.00">stdint.h</text>
</a>
</g>
</g>
<!-- Node3&#45;&gt;Node4 -->
<g id="edge3_Node000003_Node000004" class="edge">
<title>Node3&#45;&gt;Node4</title>
<g id="a_edge3_Node000003_Node000004"><a xlink:title=" ">
<path fill="none" stroke="#63b8ff" d="M544.02,-164.85C535.1,-152.21 517.49,-128.22 500,-110 489.84,-99.42 477.39,-88.7 467.21,-80.43"/>
<polygon fill="#63b8ff" stroke="#63b8ff" points="469.31,-77.62 459.31,-74.12 464.94,-83.09 469.31,-77.62"/>
</a>
</g>
</g>
<!-- Node6 -->
<g id="Node000006" class="node">
<title>Node6</title>
<g id="a_Node000006"><a xlink:href="../../d8/dd0/chsv_8h.html" target="_top" xlink:title="Defines the hue, saturation, and value (HSV) pixel struct.">
<polygon fill="white" stroke="#666666" points="599.5,-129 552.5,-129 552.5,-110 599.5,-110 599.5,-129"/>
<text text-anchor="middle" x="576" y="-117" font-family="Helvetica,sans-Serif" font-size="10.00">chsv.h</text>
</a>
</g>
</g>
<!-- Node3&#45;&gt;Node6 -->
<g id="edge5_Node000003_Node000006" class="edge">
<title>Node3&#45;&gt;Node6</title>
<g id="a_edge5_Node000003_Node000006"><a xlink:title=" ">
<path fill="none" stroke="#63b8ff" d="M554.29,-164.75C557.81,-157.57 562.91,-147.18 567.28,-138.27"/>
<polygon fill="#63b8ff" stroke="#63b8ff" points="570.52,-139.61 571.78,-129.09 564.24,-136.53 570.52,-139.61"/>
</a>
</g>
</g>
<!-- Node7 -->
<g id="Node000007" class="node">
<title>Node7</title>
<g id="a_Node000007"><a xlink:href="../../df/d2a/namespace_8h.html" target="_top" xlink:title="Implements the FastLED namespace macros.">
<polygon fill="white" stroke="#666666" points="557.5,-19 466.5,-19 466.5,0 557.5,0 557.5,-19"/>
<text text-anchor="middle" x="512" y="-7" font-family="Helvetica,sans-Serif" font-size="10.00">fl/namespace.h</text>
</a>
</g>
</g>
<!-- Node3&#45;&gt;Node7 -->
<g id="edge8_Node000003_Node000007" class="edge">
<title>Node3&#45;&gt;Node7</title>
<g id="a_edge8_Node000003_Node000007"><a xlink:title=" ">
<path fill="none" stroke="#63b8ff" d="M573.71,-171.89C622.16,-168.06 729.84,-156.57 752,-129 757.29,-122.42 756.69,-117.02 752,-110 711.11,-48.79 624.81,-25.18 567.62,-16.11"/>
<polygon fill="#63b8ff" stroke="#63b8ff" points="568.06,-12.64 557.65,-14.63 567.03,-19.56 568.06,-12.64"/>
</a>
</g>
</g>
<!-- Node8 -->
<g id="Node000008" class="node">
<title>Node8</title>
<g id="a_Node000008"><a xlink:href="../../d2/d6b/src_2color_8h.html" target="_top" xlink:title="Contains definitions for color correction and temperature.">
<polygon fill="white" stroke="#666666" points="853.5,-74 804.5,-74 804.5,-55 853.5,-55 853.5,-74"/>
<text text-anchor="middle" x="829" y="-62" font-family="Helvetica,sans-Serif" font-size="10.00">color.h</text>
</a>
</g>
</g>
<!-- Node3&#45;&gt;Node8 -->
<g id="edge9_Node000003_Node000008" class="edge">
<title>Node3&#45;&gt;Node8</title>
<g id="a_edge9_Node000003_Node000008"><a xlink:title=" ">
<path fill="none" stroke="#63b8ff" d="M573.61,-171.56C626.96,-166.79 754.89,-153.11 790,-129 805.96,-118.04 816.59,-98.19 822.66,-83.59"/>
<polygon fill="#63b8ff" stroke="#63b8ff" points="825.99,-84.68 826.29,-74.09 819.45,-82.18 825.99,-84.68"/>
</a>
</g>
</g>
<!-- Node9 -->
<g id="Node000009" class="node">
<title>Node9</title>
<g id="a_Node000009"><a xlink:href="../../d9/ddf/lib8tion_2types_8h.html" target="_top" xlink:title="Defines fractional types used for lib8tion functions.">
<polygon fill="white" stroke="#666666" points="710,-129 618,-129 618,-110 710,-110 710,-129"/>
<text text-anchor="middle" x="664" y="-117" font-family="Helvetica,sans-Serif" font-size="10.00">lib8tion/types.h</text>
</a>
</g>
</g>
<!-- Node3&#45;&gt;Node9 -->
<g id="edge11_Node000003_Node000009" class="edge">
<title>Node3&#45;&gt;Node9</title>
<g id="a_edge11_Node000003_Node000009"><a xlink:title=" ">
<path fill="none" stroke="#63b8ff" d="M568.31,-164.98C586.65,-156.46 615.11,-143.23 636.22,-133.41"/>
<polygon fill="#63b8ff" stroke="#63b8ff" points="637.75,-136.56 645.35,-129.17 634.8,-130.21 637.75,-136.56"/>
</a>
</g>
</g>
<!-- Node10 -->
<g id="Node000010" class="node">
<title>Node10</title>
<g id="a_Node000010"><a xlink:href="../../d4/d64/force__inline_8h.html" target="_top" xlink:title=" ">
<polygon fill="white" stroke="#666666" points="372,-74 280,-74 280,-55 372,-55 372,-74"/>
<text text-anchor="middle" x="326" y="-62" font-family="Helvetica,sans-Serif" font-size="10.00">fl/force_inline.h</text>
</a>
</g>
</g>
<!-- Node3&#45;&gt;Node10 -->
<g id="edge14_Node000003_Node000010" class="edge">
<title>Node3&#45;&gt;Node10</title>
<g id="a_edge14_Node000003_Node000010"><a xlink:title=" ">
<path fill="none" stroke="#63b8ff" d="M534.38,-164.93C511.34,-152.39 466.78,-128.53 428,-110 404.17,-98.62 376.72,-86.71 356.3,-78.08"/>
<polygon fill="#63b8ff" stroke="#63b8ff" points="357.47,-74.77 346.89,-74.12 354.75,-81.22 357.47,-74.77"/>
</a>
</g>
</g>
<!-- Node11 -->
<g id="Node000011" class="node">
<title>Node11</title>
<g id="a_Node000011"><a xlink:href="../../d8/d0c/template__magic_8h.html" target="_top" xlink:title=" ">
<polygon fill="#fff0f0" stroke="red" points="334,-19 220,-19 220,0 334,0 334,-19"/>
<text text-anchor="middle" x="277" y="-7" font-family="Helvetica,sans-Serif" font-size="10.00">fl/template_magic.h</text>
</a>
</g>
</g>
<!-- Node3&#45;&gt;Node11 -->
<g id="edge15_Node000003_Node000011" class="edge">
<title>Node3&#45;&gt;Node11</title>
<g id="a_edge15_Node000003_Node000011"><a xlink:title=" ">
<path fill="none" stroke="#63b8ff" d="M573.76,-172.92C628.92,-170.71 758.1,-160.19 719,-110 673.58,-51.71 456.75,-25.39 344.57,-15.5"/>
<polygon fill="#63b8ff" stroke="#63b8ff" points="344.65,-12 334.38,-14.63 344.05,-18.97 344.65,-12"/>
</a>
</g>
</g>
<!-- Node4&#45;&gt;Node4 -->
<g id="edge4_Node000004_Node000004" class="edge">
<title>Node4&#45;&gt;Node4</title>
<g id="a_edge4_Node000004_Node000004"><a xlink:title=" ">
<path fill="none" stroke="#63b8ff" d="M469.06,-74.07C481.2,-76.02 492.5,-72.83 492.5,-64.5 492.5,-58.58 486.78,-55.25 479.12,-54.53"/>
<polygon fill="#63b8ff" stroke="#63b8ff" points="478.91,-51.03 469.06,-54.93 479.19,-58.03 478.91,-51.03"/>
</a>
</g>
</g>
<!-- Node6&#45;&gt;Node4 -->
<g id="edge6_Node000006_Node000004" class="edge">
<title>Node6&#45;&gt;Node4</title>
<g id="a_edge6_Node000006_Node000004"><a xlink:title=" ">
<path fill="none" stroke="#63b8ff" d="M555.43,-109.98C534.56,-101.34 502.02,-87.87 478.22,-78.02"/>
<polygon fill="#63b8ff" stroke="#63b8ff" points="479.51,-74.76 468.94,-74.17 476.84,-81.23 479.51,-74.76"/>
</a>
</g>
</g>
<!-- Node6&#45;&gt;Node7 -->
<g id="edge7_Node000006_Node000007" class="edge">
<title>Node6&#45;&gt;Node7</title>
<g id="a_edge7_Node000006_Node000007"><a xlink:title=" ">
<path fill="none" stroke="#63b8ff" d="M570.76,-109.66C560.21,-91.85 536.21,-51.37 522.37,-28.01"/>
<polygon fill="#63b8ff" stroke="#63b8ff" points="525.24,-25.98 517.13,-19.16 519.21,-29.55 525.24,-25.98"/>
</a>
</g>
</g>
<!-- Node8&#45;&gt;Node7 -->
<g id="edge10_Node000008_Node000007" class="edge">
<title>Node8&#45;&gt;Node7</title>
<g id="a_edge10_Node000008_Node000007"><a xlink:title=" ">
<path fill="none" stroke="#63b8ff" d="M804.28,-57.9C799.55,-56.88 794.63,-55.87 790,-55 713.36,-40.53 624.25,-26.81 567.99,-18.52"/>
<polygon fill="#63b8ff" stroke="#63b8ff" points="568.28,-15.03 557.88,-17.04 567.27,-21.96 568.28,-15.03"/>
</a>
</g>
</g>
<!-- Node9&#45;&gt;Node4 -->
<g id="edge12_Node000009_Node000004" class="edge">
<title>Node9&#45;&gt;Node4</title>
<g id="a_edge12_Node000009_Node000004"><a xlink:title=" ">
<path fill="none" stroke="#63b8ff" d="M629.29,-109.98C589.6,-100.25 524.91,-84.37 484.49,-74.46"/>
<polygon fill="#63b8ff" stroke="#63b8ff" points="485.31,-71.05 474.77,-72.07 483.65,-77.85 485.31,-71.05"/>
</a>
</g>
</g>
<!-- Node9&#45;&gt;Node7 -->
<g id="edge13_Node000009_Node000007" class="edge">
<title>Node9&#45;&gt;Node7</title>
<g id="a_edge13_Node000009_Node000007"><a xlink:title=" ">
<path fill="none" stroke="#63b8ff" d="M651.81,-109.84C625.8,-91.36 564.58,-47.86 532.47,-25.05"/>
<polygon fill="#63b8ff" stroke="#63b8ff" points="534.41,-22.14 524.24,-19.2 530.36,-27.84 534.41,-22.14"/>
</a>
</g>
</g>
<!-- Node13&#45;&gt;Node3 -->
<g id="edge19_Node000013_Node000003" class="edge">
<title>Node13&#45;&gt;Node3</title>
<g id="a_edge19_Node000013_Node000003"><a xlink:title=" ">
<path fill="none" stroke="#63b8ff" d="M360.02,-220.45C402.42,-210.42 474.42,-193.38 516.55,-183.41"/>
<polygon fill="#63b8ff" stroke="#63b8ff" points="517.4,-186.81 526.33,-181.1 515.79,-180 517.4,-186.81"/>
</a>
</g>
</g>
<!-- Node13&#45;&gt;Node4 -->
<g id="edge17_Node000013_Node000004" class="edge">
<title>Node13&#45;&gt;Node4</title>
<g id="a_edge17_Node000013_Node000004"><a xlink:title=" ">
<path fill="none" stroke="#63b8ff" d="M338.26,-219.8C359.58,-204.08 403.5,-168.82 428,-129 436.51,-115.16 441.71,-97.36 444.66,-84.13"/>
<polygon fill="#63b8ff" stroke="#63b8ff" points="448.1,-84.77 446.64,-74.28 441.24,-83.4 448.1,-84.77"/>
</a>
</g>
</g>
<!-- Node13&#45;&gt;Node7 -->
<g id="edge31_Node000013_Node000007" class="edge">
<title>Node13&#45;&gt;Node7</title>
<g id="a_edge31_Node000013_Node000007"><a xlink:title=" ">
<path fill="none" stroke="#63b8ff" d="M291.93,-225.96C231.07,-220.87 106.7,-207.82 71,-184 19.29,-149.5 -24.94,-100.87 17,-55 31.65,-38.97 329.44,-20.63 455.94,-13.53"/>
<polygon fill="#63b8ff" stroke="#63b8ff" points="456.4,-17.01 466.19,-12.96 456.01,-10.02 456.4,-17.01"/>
</a>
</g>
</g>
<!-- Node13&#45;&gt;Node10 -->
<g id="edge23_Node000013_Node000010" class="edge">
<title>Node13&#45;&gt;Node10</title>
<g id="a_edge23_Node000013_Node000010"><a xlink:title=" ">
<path fill="none" stroke="#63b8ff" d="M326,-219.74C326,-194.31 326,-120.08 326,-84.69"/>
<polygon fill="#63b8ff" stroke="#63b8ff" points="329.5,-84.31 326,-74.31 322.5,-84.31 329.5,-84.31"/>
</a>
</g>
</g>
<!-- Node14 -->
<g id="Node000014" class="node">
<title>Node14</title>
<g id="a_Node000014"><a xlink:href="../../da/d66/string_8h.html" target="_top" xlink:title=" ">
<polygon fill="#fff0f0" stroke="red" points="297.5,-129 244.5,-129 244.5,-110 297.5,-110 297.5,-129"/>
<text text-anchor="middle" x="271" y="-117" font-family="Helvetica,sans-Serif" font-size="10.00">string.h</text>
</a>
</g>
</g>
<!-- Node13&#45;&gt;Node14 -->
<g id="edge18_Node000013_Node000014" class="edge">
<title>Node13&#45;&gt;Node14</title>
<g id="a_edge18_Node000013_Node000014"><a xlink:title=" ">
<path fill="none" stroke="#63b8ff" d="M321.49,-219.66C312.47,-201.93 291.99,-161.73 280.07,-138.32"/>
<polygon fill="#63b8ff" stroke="#63b8ff" points="283.06,-136.48 275.41,-129.16 276.82,-139.66 283.06,-136.48"/>
</a>
</g>
</g>
<!-- Node18 -->
<g id="Node000018" class="node">
<title>Node18</title>
<g id="a_Node000018"><a xlink:href="../../d6/dd3/clamp_8h.html" target="_top" xlink:title=" ">
<polygon fill="white" stroke="#666666" points="419.5,-129 354.5,-129 354.5,-110 419.5,-110 419.5,-129"/>
<text text-anchor="middle" x="387" y="-117" font-family="Helvetica,sans-Serif" font-size="10.00">fl/clamp.h</text>
</a>
</g>
</g>
<!-- Node13&#45;&gt;Node18 -->
<g id="edge20_Node000013_Node000018" class="edge">
<title>Node13&#45;&gt;Node18</title>
<g id="a_edge20_Node000013_Node000018"><a xlink:title=" ">
<path fill="none" stroke="#63b8ff" d="M330.99,-219.66C341.05,-201.85 363.91,-161.37 377.11,-138.01"/>
<polygon fill="#63b8ff" stroke="#63b8ff" points="380.23,-139.59 382.11,-129.16 374.14,-136.14 380.23,-139.59"/>
</a>
</g>
</g>
<!-- Node31 -->
<g id="Node000031" class="node">
<title>Node31</title>
<g id="a_Node000031"><a xlink:href="../../db/d54/lut_8h.html" target="_top" xlink:title=" ">
<polygon fill="#fff0f0" stroke="red" points="111.5,-129 64.5,-129 64.5,-110 111.5,-110 111.5,-129"/>
<text text-anchor="middle" x="88" y="-117" font-family="Helvetica,sans-Serif" font-size="10.00">fl/lut.h</text>
</a>
</g>
</g>
<!-- Node13&#45;&gt;Node31 -->
<g id="edge24_Node000013_Node000031" class="edge">
<title>Node13&#45;&gt;Node31</title>
<g id="a_edge24_Node000013_Node000031"><a xlink:title=" ">
<path fill="none" stroke="#63b8ff" d="M291.82,-227.11C252.01,-224.07 185.63,-214.41 138,-184 120.31,-172.71 106.23,-152.95 97.58,-138.47"/>
<polygon fill="#63b8ff" stroke="#63b8ff" points="100.44,-136.43 92.47,-129.45 94.35,-139.87 100.44,-136.43"/>
</a>
</g>
</g>
<!-- Node21 -->
<g id="Node000021" class="node">
<title>Node21</title>
<g id="a_Node000021"><a xlink:href="../../dd/d98/ptr_8h.html" target="_top" xlink:title=" ">
<polygon fill="#fff0f0" stroke="red" points="73.5,-74 26.5,-74 26.5,-55 73.5,-55 73.5,-74"/>
<text text-anchor="middle" x="50" y="-62" font-family="Helvetica,sans-Serif" font-size="10.00">fl/ptr.h</text>
</a>
</g>
</g>
<!-- Node13&#45;&gt;Node21 -->
<g id="edge32_Node000013_Node000021" class="edge">
<title>Node13&#45;&gt;Node21</title>
<g id="a_edge32_Node000013_Node000021"><a xlink:title=" ">
<path fill="none" stroke="#63b8ff" d="M292,-226.27C248.62,-222.35 172.14,-211.81 113,-184 77.51,-167.31 61.02,-164.33 44,-129 37.24,-114.97 39.71,-97.19 43.32,-84.02"/>
<polygon fill="#63b8ff" stroke="#63b8ff" points="46.74,-84.81 46.44,-74.22 40.07,-82.69 46.74,-84.81"/>
</a>
</g>
</g>
<!-- Node32 -->
<g id="Node000032" class="node">
<title>Node32</title>
<g id="a_Node000032"><a xlink:href="../../dd/dcc/xmap_8h.html" target="_top" xlink:title=" ">
<polygon fill="white" stroke="#666666" points="209,-184 147,-184 147,-165 209,-165 209,-184"/>
<text text-anchor="middle" x="178" y="-172" font-family="Helvetica,sans-Serif" font-size="10.00">fl/xmap.h</text>
</a>
</g>
</g>
<!-- Node13&#45;&gt;Node32 -->
<g id="edge33_Node000013_Node000032" class="edge">
<title>Node13&#45;&gt;Node32</title>
<g id="a_edge33_Node000013_Node000032"><a xlink:title=" ">
<path fill="none" stroke="#63b8ff" d="M302.22,-219.98C277.76,-211.23 239.46,-197.51 211.85,-187.62"/>
<polygon fill="#63b8ff" stroke="#63b8ff" points="212.8,-184.25 202.21,-184.17 210.44,-190.84 212.8,-184.25"/>
</a>
</g>
</g>
<!-- Node18&#45;&gt;Node4 -->
<g id="edge21_Node000018_Node000004" class="edge">
<title>Node18&#45;&gt;Node4</title>
<g id="a_edge21_Node000018_Node000004"><a xlink:title=" ">
<path fill="none" stroke="#63b8ff" d="M396.8,-109.98C405.81,-102.15 419.4,-90.34 430.31,-80.86"/>
<polygon fill="#63b8ff" stroke="#63b8ff" points="432.76,-83.37 438.02,-74.17 428.17,-78.09 432.76,-83.37"/>
</a>
</g>
</g>
<!-- Node18&#45;&gt;Node10 -->
<g id="edge22_Node000018_Node000010" class="edge">
<title>Node18&#45;&gt;Node10</title>
<g id="a_edge22_Node000018_Node000010"><a xlink:title=" ">
<path fill="none" stroke="#63b8ff" d="M377.2,-109.98C368.18,-102.15 354.59,-90.34 343.68,-80.86"/>
<polygon fill="#63b8ff" stroke="#63b8ff" points="345.82,-78.09 335.97,-74.17 341.23,-83.37 345.82,-78.09"/>
</a>
</g>
</g>
<!-- Node31&#45;&gt;Node4 -->
<g id="edge29_Node000031_Node000004" class="edge">
<title>Node31&#45;&gt;Node4</title>
<g id="a_edge29_Node000031_Node000004"><a xlink:title=" ">
<path fill="none" stroke="#63b8ff" d="M111.62,-115.02C172.89,-106 337.32,-81.79 411.18,-70.92"/>
<polygon fill="#63b8ff" stroke="#63b8ff" points="412.01,-74.34 421.4,-69.42 410.99,-67.41 412.01,-74.34"/>
</a>
</g>
</g>
<!-- Node31&#45;&gt;Node7 -->
<g id="edge30_Node000031_Node000007" class="edge">
<title>Node31&#45;&gt;Node7</title>
<g id="a_edge30_Node000031_Node000007"><a xlink:title=" ">
<path fill="none" stroke="#63b8ff" d="M90.46,-109.76C94.96,-95.61 105.92,-67.96 126,-55 153.13,-37.49 355.61,-21.28 455.96,-14.22"/>
<polygon fill="#63b8ff" stroke="#63b8ff" points="456.48,-17.69 466.22,-13.5 456,-10.71 456.48,-17.69"/>
</a>
</g>
</g>
<!-- Node31&#45;&gt;Node10 -->
<g id="edge25_Node000031_Node000010" class="edge">
<title>Node31&#45;&gt;Node10</title>
<g id="a_edge25_Node000031_Node000010"><a xlink:title=" ">
<path fill="none" stroke="#63b8ff" d="M111.69,-113.22C150.19,-104.65 227.1,-87.52 277.54,-76.29"/>
<polygon fill="#63b8ff" stroke="#63b8ff" points="278.57,-79.65 287.57,-74.06 277.05,-72.82 278.57,-79.65"/>
</a>
</g>
</g>
<!-- Node31&#45;&gt;Node21 -->
<g id="edge26_Node000031_Node000021" class="edge">
<title>Node31&#45;&gt;Node21</title>
<g id="a_edge26_Node000031_Node000021"><a xlink:title=" ">
<path fill="none" stroke="#63b8ff" d="M81.72,-109.75C76.41,-102.34 68.64,-91.5 62.12,-82.41"/>
<polygon fill="#63b8ff" stroke="#63b8ff" points="64.83,-80.18 56.15,-74.09 59.14,-84.26 64.83,-80.18"/>
</a>
</g>
</g>
<!-- Node21&#45;&gt;Node7 -->
<g id="edge27_Node000021_Node000007" class="edge">
<title>Node21&#45;&gt;Node7</title>
<g id="a_edge27_Node000021_Node000007"><a xlink:title=" ">
<path fill="none" stroke="#63b8ff" d="M73.63,-57.77C78.37,-56.75 83.33,-55.76 88,-55 219.16,-33.52 374.93,-20.28 456.26,-14.29"/>
<polygon fill="#63b8ff" stroke="#63b8ff" points="456.55,-17.78 466.27,-13.56 456.05,-10.79 456.55,-17.78"/>
</a>
</g>
</g>
<!-- Node21&#45;&gt;Node11 -->
<g id="edge28_Node000021_Node000011" class="edge">
<title>Node21&#45;&gt;Node11</title>
<g id="a_edge28_Node000021_Node000011"><a xlink:title=" ">
<path fill="none" stroke="#63b8ff" d="M73.86,-57.93C110.95,-49.27 183.1,-32.42 230.66,-21.32"/>
<polygon fill="#63b8ff" stroke="#63b8ff" points="231.48,-24.72 240.42,-19.04 229.89,-17.91 231.48,-24.72"/>
</a>
</g>
</g>
<!-- Node32&#45;&gt;Node4 -->
<g id="edge34_Node000032_Node000004" class="edge">
<title>Node32&#45;&gt;Node4</title>
<g id="a_edge34_Node000032_Node000004"><a xlink:title=" ">
<path fill="none" stroke="#63b8ff" d="M183.09,-164.94C191.85,-151.04 211.12,-123.75 235,-110 264.61,-92.94 358.77,-77.77 411.44,-70.33"/>
<polygon fill="#63b8ff" stroke="#63b8ff" points="411.96,-73.79 421.38,-68.95 411,-66.86 411.96,-73.79"/>
</a>
</g>
</g>
<!-- Node32&#45;&gt;Node7 -->
<g id="edge39_Node000032_Node000007" class="edge">
<title>Node32&#45;&gt;Node7</title>
<g id="a_edge39_Node000032_Node000007"><a xlink:title=" ">
<path fill="none" stroke="#63b8ff" d="M176.92,-164.94C175.73,-151.99 175.24,-127.12 186,-110 209.93,-71.9 229.18,-71.63 271,-55 331.66,-30.88 406.17,-19.69 456.15,-14.59"/>
<polygon fill="#63b8ff" stroke="#63b8ff" points="456.5,-18.07 466.11,-13.62 455.82,-11.11 456.5,-18.07"/>
</a>
</g>
</g>
<!-- Node32&#45;&gt;Node10 -->
<g id="edge36_Node000032_Node000010" class="edge">
<title>Node32&#45;&gt;Node10</title>
<g id="a_edge36_Node000032_Node000010"><a xlink:title=" ">
<path fill="none" stroke="#63b8ff" d="M178.95,-164.86C180.9,-151.36 186.53,-125.2 202,-110 220.33,-91.97 246.48,-81.19 270.04,-74.78"/>
<polygon fill="#63b8ff" stroke="#63b8ff" points="271.11,-78.12 279.95,-72.28 269.4,-71.33 271.11,-78.12"/>
</a>
</g>
</g>
<!-- Node32&#45;&gt;Node14 -->
<g id="edge35_Node000032_Node000014" class="edge">
<title>Node32&#45;&gt;Node14</title>
<g id="a_edge35_Node000032_Node000014"><a xlink:title=" ">
<path fill="none" stroke="#63b8ff" d="M192.94,-164.98C207.49,-156.69 229.86,-143.94 246.93,-134.22"/>
<polygon fill="#63b8ff" stroke="#63b8ff" points="248.83,-137.16 255.78,-129.17 245.36,-131.08 248.83,-137.16"/>
</a>
</g>
</g>
<!-- Node32&#45;&gt;Node31 -->
<g id="edge37_Node000032_Node000031" class="edge">
<title>Node32&#45;&gt;Node31</title>
<g id="a_edge37_Node000032_Node000031"><a xlink:title=" ">
<path fill="none" stroke="#63b8ff" d="M163.54,-164.98C149.58,-156.77 128.2,-144.18 111.75,-134.49"/>
<polygon fill="#63b8ff" stroke="#63b8ff" points="113.11,-131.23 102.72,-129.17 109.56,-137.26 113.11,-131.23"/>
</a>
</g>
</g>
<!-- Node32&#45;&gt;Node21 -->
<g id="edge38_Node000032_Node000021" class="edge">
<title>Node32&#45;&gt;Node21</title>
<g id="a_edge38_Node000032_Node000021"><a xlink:title=" ">
<path fill="none" stroke="#63b8ff" d="M146.73,-171.41C117.97,-167.67 76.6,-157.36 55,-129 45.47,-116.49 44.98,-98.29 46.43,-84.58"/>
<polygon fill="#63b8ff" stroke="#63b8ff" points="49.94,-84.74 47.95,-74.34 43.02,-83.72 49.94,-84.74"/>
</a>
</g>
</g>
<!-- Node34 -->
<g id="Node000034" class="node">
<title>Node34</title>
<g id="a_Node000034"><a xlink:title=" ">
<polygon fill="#e0e0e0" stroke="#999999" points="662,-239 530,-239 530,-220 662,-220 662,-239"/>
<text text-anchor="middle" x="596" y="-227" font-family="Helvetica,sans-Serif" font-size="10.00">platforms/assert_defs.h</text>
</a>
</g>
</g>
<!-- Node33&#45;&gt;Node34 -->
<g id="edge42_Node000033_Node000034" class="edge">
<title>Node33&#45;&gt;Node34</title>
<g id="a_edge42_Node000033_Node000034"><a xlink:title=" ">
<path fill="none" stroke="#63b8ff" d="M581.8,-274.75C584.06,-267.72 587.3,-257.62 590.11,-248.84"/>
<polygon fill="#63b8ff" stroke="#63b8ff" points="593.52,-249.68 593.24,-239.09 586.85,-247.54 593.52,-249.68"/>
</a>
</g>
</g>
</g>
</svg>
