<?xml version="1.0" encoding="UTF-8" standalone="no"?>
<!DOCTYPE svg PUBLIC "-//W3C//DTD SVG 1.1//EN"
 "http://www.w3.org/Graphics/SVG/1.1/DTD/svg11.dtd">
<!-- Generated by graphviz version 2.43.0 (0)
 -->
<!-- Title: fl::HeartPath::compute Pages: 1 -->
<!--zoomable 149 -->

<svg id="main" version="1.1" xmlns="http://www.w3.org/2000/svg" xmlns:xlink="http://www.w3.org/1999/xlink" xml:space="preserve" onload="init(evt)">

<style type="text/css"><![CDATA[
.node, .edge {opacity: 0.7;}
.node.selected, .edge.selected {opacity: 1;}
.edge:hover path { stroke: red; }
.edge:hover polygon { stroke: red; fill: red; }
]]></style>

<defs>
  <circle id="rim" cx="0" cy="0" r="7"/>
  <circle id="rim2" cx="0" cy="0" r="3.5"/>
  <g id="zoomPlus">
    <use xlink:href="#rim" fill="#404040"><set attributeName="fill" to="#808080" begin="zoomplus.mouseover" end="zoomplus.mouseout"/></use>
    <path d="M-4,0h8M0,-4v8" fill="none" stroke="white" stroke-width="1.5" pointer-events="none"/>
  </g>
  <g id="zoomMin">
    <use xlink:href="#rim" fill="#404040"><set attributeName="fill" to="#808080" begin="zoomminus.mouseover" end="zoomminus.mouseout"/></use>
    <path d="M-4,0h8" fill="none" stroke="white" stroke-width="1.5" pointer-events="none"/>
  </g>
  <g id="arrowUp" transform="translate(30 24)">
    <use xlink:href="#rim"/>
    <path pointer-events="none" fill="none" stroke="white" stroke-width="1.5" d="M0,-3.0v7 M-2.5,-0.5L0,-3.0L2.5,-0.5"/>
  </g>
  <g id="arrowRight" transform="rotate(90) translate(36 -43)">
    <use xlink:href="#rim"/>
    <path pointer-events="none" fill="none" stroke="white" stroke-width="1.5" d="M0,-3.0v7 M-2.5,-0.5L0,-3.0L2.5,-0.5"/>
  </g>
  <g id="arrowDown" transform="rotate(180) translate(-30 -48)">
    <use xlink:href="#rim"/>
    <path pointer-events="none" fill="none" stroke="white" stroke-width="1.5" d="M0,-3.0v7 M-2.5,-0.5L0,-3.0L2.5,-0.5"/>
  </g>
  <g id="arrowLeft" transform="rotate(270) translate(-36 17)">
    <use xlink:href="#rim"/>
    <path pointer-events="none" fill="none" stroke="white" stroke-width="1.5" d="M0,-3.0v7 M-2.5,-0.5L0,-3.0L2.5,-0.5"/>
  </g>
  <g id="resetDef">
    <use xlink:href="#rim2" fill="#404040"><set attributeName="fill" to="#808080" begin="reset.mouseover" end="reset.mouseout"/></use>
  </g>
</defs>
<script type="application/ecmascript">
var viewWidth = 675;
var viewHeight = 149;
var sectionId = 'dynsection-0';
</script>
<script type="application/ecmascript" xlink:href="../../svg.min.js"/>
<svg id="graph" class="graph">
<g id="viewport">
<title>fl::HeartPath::compute</title>
<!-- Node1 -->
<g id="Node000001" class="node">
<title>Node1</title>
<g id="a_Node000001"><a xlink:title=" ">
<polygon fill="#999999" stroke="#666666" points="125,-56 0,-56 0,-37 125,-37 125,-56"/>
<text text-anchor="middle" x="62.5" y="-44" font-family="Helvetica,sans-Serif" font-size="10.00">fl::HeartPath::compute</text>
</a>
</g>
</g>
<!-- Node2 -->
<g id="Node000002" class="node">
<title>Node2</title>
<g id="a_Node000002"><a xlink:href="../../d4/d36/namespacefl_ad87db990a26723fa560bc364734ea6cc.html#ad87db990a26723fa560bc364734ea6cc" target="_top" xlink:title=" ">
<polygon fill="white" stroke="#666666" points="212,-107 163,-107 163,-88 212,-88 212,-107"/>
<text text-anchor="middle" x="187.5" y="-95" font-family="Helvetica,sans-Serif" font-size="10.00">fl::cosf</text>
</a>
</g>
</g>
<!-- Node1&#45;&gt;Node2 -->
<g id="edge1_Node000001_Node000002" class="edge">
<title>Node1&#45;&gt;Node2</title>
<g id="a_edge1_Node000001_Node000002"><a xlink:title=" ">
<path fill="none" stroke="#63b8ff" d="M86.64,-56.09C105.71,-64 132.97,-75.3 154.19,-84.1"/>
<polygon fill="#63b8ff" stroke="#63b8ff" points="152.89,-87.35 163.47,-87.95 155.57,-80.89 152.89,-87.35"/>
</a>
</g>
</g>
<!-- Node7 -->
<g id="Node000007" class="node">
<title>Node7</title>
<g id="a_Node000007"><a xlink:href="../../d4/d36/namespacefl_a20736f8f6d31db2c6ac9b4def3b1a80a.html#a20736f8f6d31db2c6ac9b4def3b1a80a" target="_top" xlink:title=" ">
<polygon fill="white" stroke="#666666" points="214,-56 161,-56 161,-37 214,-37 214,-56"/>
<text text-anchor="middle" x="187.5" y="-44" font-family="Helvetica,sans-Serif" font-size="10.00">fl::powf</text>
</a>
</g>
</g>
<!-- Node1&#45;&gt;Node7 -->
<g id="edge5_Node000001_Node000007" class="edge">
<title>Node1&#45;&gt;Node7</title>
<g id="a_edge5_Node000001_Node000007"><a xlink:title=" ">
<path fill="none" stroke="#63b8ff" d="M125,-46.5C133.77,-46.5 142.54,-46.5 150.6,-46.5"/>
<polygon fill="#63b8ff" stroke="#63b8ff" points="150.72,-50 160.72,-46.5 150.72,-43 150.72,-50"/>
</a>
</g>
</g>
<!-- Node11 -->
<g id="Node000011" class="node">
<title>Node11</title>
<g id="a_Node000011"><a xlink:href="../../d4/d36/namespacefl_a4ba2744fe96375793e6f7a98b188d343.html#a4ba2744fe96375793e6f7a98b188d343" target="_top" xlink:title=" ">
<polygon fill="white" stroke="#666666" points="211,-19 164,-19 164,0 211,0 211,-19"/>
<text text-anchor="middle" x="187.5" y="-7" font-family="Helvetica,sans-Serif" font-size="10.00">fl::sinf</text>
</a>
</g>
</g>
<!-- Node1&#45;&gt;Node11 -->
<g id="edge10_Node000001_Node000011" class="edge">
<title>Node1&#45;&gt;Node11</title>
<g id="a_edge10_Node000001_Node000011"><a xlink:title=" ">
<path fill="none" stroke="#63b8ff" d="M95.18,-36.97C113.31,-31.52 136.02,-24.69 154.25,-19.2"/>
<polygon fill="#63b8ff" stroke="#63b8ff" points="155.29,-22.54 163.86,-16.31 153.28,-15.84 155.29,-22.54"/>
</a>
</g>
</g>
<!-- Node3 -->
<g id="Node000003" class="node">
<title>Node3</title>
<g id="a_Node000003"><a xlink:href="../../d4/d36/namespacefl_a82dc97b9808ee5c39eb57f649d20a2fd.html#a82dc97b9808ee5c39eb57f649d20a2fd" target="_top" xlink:title=" ">
<polygon fill="white" stroke="#666666" points="351,-134 252,-134 252,-115 351,-115 351,-134"/>
<text text-anchor="middle" x="301.5" y="-122" font-family="Helvetica,sans-Serif" font-size="10.00">fl::cos_impl_float</text>
</a>
</g>
</g>
<!-- Node2&#45;&gt;Node3 -->
<g id="edge2_Node000002_Node000003" class="edge">
<title>Node2&#45;&gt;Node3</title>
<g id="a_edge2_Node000002_Node000003"><a xlink:title=" ">
<path fill="none" stroke="#63b8ff" d="M212.25,-103.23C223.51,-105.94 237.4,-109.29 250.81,-112.52"/>
<polygon fill="#63b8ff" stroke="#63b8ff" points="250.37,-116.02 260.91,-114.96 252.01,-109.21 250.37,-116.02"/>
</a>
</g>
</g>
<!-- Node4 -->
<g id="Node000004" class="node">
<title>Node4</title>
<g id="a_Node000004"><a xlink:href="../../df/d9e/namespacefl_1_1detail_ab42e702a90f152dbad7d35ea9eab976a.html#ab42e702a90f152dbad7d35ea9eab976a" target="_top" xlink:title=" ">
<polygon fill="white" stroke="#666666" points="511,-141 389,-141 389,-122 511,-122 511,-141"/>
<text text-anchor="middle" x="450" y="-129" font-family="Helvetica,sans-Serif" font-size="10.00">fl::detail::cos_reduce_</text>
</a>
</g>
</g>
<!-- Node3&#45;&gt;Node4 -->
<g id="edge3_Node000003_Node000004" class="edge">
<title>Node3&#45;&gt;Node4</title>
<g id="a_edge3_Node000003_Node000004"><a xlink:title=" ">
<path fill="none" stroke="#63b8ff" d="M351.28,-126.83C360.15,-127.25 369.55,-127.7 378.88,-128.15"/>
<polygon fill="#63b8ff" stroke="#63b8ff" points="378.8,-131.65 388.96,-128.63 379.14,-124.66 378.8,-131.65"/>
</a>
</g>
</g>
<!-- Node5 -->
<g id="Node000005" class="node">
<title>Node5</title>
<g id="a_Node000005"><a xlink:href="../../df/d9e/namespacefl_1_1detail_a525aa6aacdb5d3d48ebe21adb14da430.html#a525aa6aacdb5d3d48ebe21adb14da430" target="_top" xlink:title=" ">
<polygon fill="#fff0f0" stroke="red" points="667,-76 547,-76 547,-57 667,-57 667,-76"/>
<text text-anchor="middle" x="607" y="-64" font-family="Helvetica,sans-Serif" font-size="10.00">fl::detail::sin_reduce_</text>
</a>
</g>
</g>
<!-- Node4&#45;&gt;Node5 -->
<g id="edge4_Node000004_Node000005" class="edge">
<title>Node4&#45;&gt;Node5</title>
<g id="a_edge4_Node000004_Node000005"><a xlink:title=" ">
<path fill="none" stroke="#63b8ff" d="M486.55,-121.91C494.68,-119.42 503.21,-116.57 511,-113.5 535.02,-104.03 561.24,-90.83 580.04,-80.82"/>
<polygon fill="#63b8ff" stroke="#63b8ff" points="581.74,-83.88 588.89,-76.06 578.42,-77.72 581.74,-83.88"/>
</a>
</g>
</g>
<!-- Node8 -->
<g id="Node000008" class="node">
<title>Node8</title>
<g id="a_Node000008"><a xlink:href="../../d4/d36/namespacefl_a96f5f2dd80fb8deeb8997822bedd433f.html#a96f5f2dd80fb8deeb8997822bedd433f" target="_top" xlink:title=" ">
<polygon fill="white" stroke="#666666" points="353,-56 250,-56 250,-37 353,-37 353,-56"/>
<text text-anchor="middle" x="301.5" y="-44" font-family="Helvetica,sans-Serif" font-size="10.00">fl::pow_impl_float</text>
</a>
</g>
</g>
<!-- Node7&#45;&gt;Node8 -->
<g id="edge6_Node000007_Node000008" class="edge">
<title>Node7&#45;&gt;Node8</title>
<g id="a_edge6_Node000007_Node000008"><a xlink:title=" ">
<path fill="none" stroke="#63b8ff" d="M214.2,-46.5C221.89,-46.5 230.68,-46.5 239.63,-46.5"/>
<polygon fill="#63b8ff" stroke="#63b8ff" points="239.77,-50 249.77,-46.5 239.77,-43 239.77,-50"/>
</a>
</g>
</g>
<!-- Node9 -->
<g id="Node000009" class="node">
<title>Node9</title>
<g id="a_Node000009"><a xlink:href="../../d4/d36/namespacefl_a30ea10d1fd20c323429a28dcd4c9bdd1.html#a30ea10d1fd20c323429a28dcd4c9bdd1" target="_top" xlink:title=" ">
<polygon fill="white" stroke="#666666" points="500.5,-86 399.5,-86 399.5,-67 500.5,-67 500.5,-86"/>
<text text-anchor="middle" x="450" y="-74" font-family="Helvetica,sans-Serif" font-size="10.00">fl::exp_impl_float</text>
</a>
</g>
</g>
<!-- Node8&#45;&gt;Node9 -->
<g id="edge7_Node000008_Node000009" class="edge">
<title>Node8&#45;&gt;Node9</title>
<g id="a_edge7_Node000008_Node000009"><a xlink:title=" ">
<path fill="none" stroke="#63b8ff" d="M349.26,-56.07C362.94,-58.88 378.04,-61.97 392.27,-64.88"/>
<polygon fill="#63b8ff" stroke="#63b8ff" points="391.94,-68.39 402.44,-66.96 393.34,-61.53 391.94,-68.39"/>
</a>
</g>
</g>
<!-- Node10 -->
<g id="Node000010" class="node">
<title>Node10</title>
<g id="a_Node000010"><a xlink:href="../../df/d9e/namespacefl_1_1detail_aefd5cee30614d18a52adbf22fc83f4a8.html#aefd5cee30614d18a52adbf22fc83f4a8" target="_top" xlink:title=" ">
<polygon fill="white" stroke="#666666" points="511,-49 389,-49 389,-30 511,-30 511,-49"/>
<text text-anchor="middle" x="450" y="-37" font-family="Helvetica,sans-Serif" font-size="10.00">fl::detail::log_natural_</text>
</a>
</g>
</g>
<!-- Node8&#45;&gt;Node10 -->
<g id="edge9_Node000008_Node000010" class="edge">
<title>Node8&#45;&gt;Node10</title>
<g id="a_edge9_Node000008_Node000010"><a xlink:title=" ">
<path fill="none" stroke="#63b8ff" d="M353.33,-44.07C361.58,-43.68 370.26,-43.26 378.88,-42.85"/>
<polygon fill="#63b8ff" stroke="#63b8ff" points="379.12,-46.34 388.94,-42.37 378.79,-39.35 379.12,-46.34"/>
</a>
</g>
</g>
<!-- Node9&#45;&gt;Node9 -->
<g id="edge8_Node000009_Node000009" class="edge">
<title>Node9&#45;&gt;Node9</title>
<g id="a_edge8_Node000009_Node000009"><a xlink:title=" ">
<path fill="none" stroke="#63b8ff" d="M427.19,-86.08C416.09,-94.73 423.7,-104 450,-104 466.85,-104 476.03,-100.2 477.53,-95.19"/>
<polygon fill="#63b8ff" stroke="#63b8ff" points="480.52,-93.35 472.81,-86.08 474.3,-96.57 480.52,-93.35"/>
</a>
</g>
</g>
<!-- Node12 -->
<g id="Node000012" class="node">
<title>Node12</title>
<g id="a_Node000012"><a xlink:href="../../d4/d36/namespacefl_abb4917bf7e0fc28049964497cb88305f.html#abb4917bf7e0fc28049964497cb88305f" target="_top" xlink:title=" ">
<polygon fill="white" stroke="#666666" points="350,-19 253,-19 253,0 350,0 350,-19"/>
<text text-anchor="middle" x="301.5" y="-7" font-family="Helvetica,sans-Serif" font-size="10.00">fl::sin_impl_float</text>
</a>
</g>
</g>
<!-- Node11&#45;&gt;Node12 -->
<g id="edge11_Node000011_Node000012" class="edge">
<title>Node11&#45;&gt;Node12</title>
<g id="a_edge11_Node000011_Node000012"><a xlink:title=" ">
<path fill="none" stroke="#63b8ff" d="M211.16,-9.5C220.37,-9.5 231.45,-9.5 242.64,-9.5"/>
<polygon fill="#63b8ff" stroke="#63b8ff" points="242.89,-13 252.89,-9.5 242.89,-6 242.89,-13"/>
</a>
</g>
</g>
<!-- Node12&#45;&gt;Node5 -->
<g id="edge12_Node000012_Node000005" class="edge">
<title>Node12&#45;&gt;Node5</title>
<g id="a_edge12_Node000012_Node000005"><a xlink:title=" ">
<path fill="none" stroke="#63b8ff" d="M350.09,-6.71C392.89,-5.44 457.11,-6.64 511,-20.5 536.66,-27.1 563.63,-40.92 582.26,-51.69"/>
<polygon fill="#63b8ff" stroke="#63b8ff" points="580.55,-54.75 590.93,-56.85 584.12,-48.73 580.55,-54.75"/>
</a>
</g>
</g>
</g>
</svg>

<g id="navigator" transform="translate(0 0)" fill="#404254">
  <rect fill="#f2f5e9" fill-opacity="0.5" stroke="#606060" stroke-width=".5" x="0" y="0" width="60" height="60"/>
  <use id="zoomplus" xlink:href="#zoomPlus" x="17" y="9" onmousedown="handleZoom(evt,'in')"/>
  <use id="zoomminus" xlink:href="#zoomMin" x="42" y="9" onmousedown="handleZoom(evt,'out')"/>
  <use id="reset" xlink:href="#resetDef" x="30" y="36" onmousedown="handleReset()"/>
   <use id="arrowup" xlink:href="#arrowUp" x="0" y="0" onmousedown="handlePan(0,-1)"/>
  <use id="arrowright" xlink:href="#arrowRight" x="0" y="0" onmousedown="handlePan(1,0)"/>
  <use id="arrowdown" xlink:href="#arrowDown" x="0" y="0" onmousedown="handlePan(0,1)"/>
  <use id="arrowleft" xlink:href="#arrowLeft" x="0" y="0" onmousedown="handlePan(-1,0)"/>
</g>
<svg viewBox="0 0 15 15" width="100%" height="30px" preserveAspectRatio="xMaxYMin meet">
 <g id="arrow_out" transform="scale(0.3 0.3)">
  <a xlink:href="classfl_1_1_heart_path_a70f9c0ab95f904302f416281bcff4870_a70f9c0ab95f904302f416281bcff4870_cgraph_org.svg" target="_base">
   <rect id="button" ry="5" rx="5" y="6" x="6" height="38" width="38"
        fill="#f2f5e9" fill-opacity="0.5" stroke="#606060" stroke-width="1.0"/>
   <path id="arrow"
     d="M 11.500037,31.436501 C 11.940474,20.09759 22.043105,11.32322 32.158766,21.979434 L 37.068811,17.246167 C 37.068811,17.246167 37.088388,32 37.088388,32 L 22.160133,31.978069 C 22.160133,31.978069 26.997745,27.140456 26.997745,27.140456 C 18.528582,18.264221 13.291696,25.230495 11.500037,31.436501 z"
     style="fill:#404040;"/>
  </a>
 </g>
</svg>

<style type='text/css'>
<![CDATA[
[data-mouse-over-selected='false'] { opacity: 0.7; }
[data-mouse-over-selected='true']  { opacity: 1.0; }
]]>
</style>
<script type="application/ecmascript"><![CDATA[
document.addEventListener('DOMContentLoaded', (event) => {
  highlightEdges();
  highlightAdjacentNodes();
});
]]></script>
</svg>
