<?xml version="1.0" encoding="UTF-8" standalone="no"?>
<!DOCTYPE svg PUBLIC "-//W3C//DTD SVG 1.1//EN"
 "http://www.w3.org/Graphics/SVG/1.1/DTD/svg11.dtd">
<!-- Generated by graphviz version 2.43.0 (0)
 -->
<!-- Title: fl::net::http::Response::parse_json_body Pages: 1 -->
<svg width="539pt" height="100pt"
 viewBox="0.00 0.00 539.00 100.00" xmlns="http://www.w3.org/2000/svg" xmlns:xlink="http://www.w3.org/1999/xlink">
<g id="graph0" class="graph" transform="scale(1 1) rotate(0) translate(4 96)">
<title>fl::net::http::Response::parse_json_body</title>
<!-- Node1 -->
<g id="Node000001" class="node">
<title>Node1</title>
<g id="a_Node000001"><a xlink:title="Parse JSON from response body with error handling.">
<polygon fill="#999999" stroke="#666666" points="123,-69.5 0,-69.5 0,-39.5 123,-39.5 123,-69.5"/>
<text text-anchor="start" x="8" y="-57.5" font-family="Helvetica,sans-Serif" font-size="10.00">fl::net::http::Response</text>
<text text-anchor="middle" x="61.5" y="-46.5" font-family="Helvetica,sans-Serif" font-size="10.00">::parse_json_body</text>
</a>
</g>
</g>
<!-- Node2 -->
<g id="Node000002" class="node">
<title>Node2</title>
<g id="a_Node000002"><a xlink:href="../../de/d40/classfl_1_1json_a59f212a0074c9bad4d2519ddf272bc8f.html#a59f212a0074c9bad4d2519ddf272bc8f" target="_top" xlink:title=" ">
<polygon fill="white" stroke="#666666" points="245,-92 159,-92 159,-73 245,-73 245,-92"/>
<text text-anchor="middle" x="202" y="-80" font-family="Helvetica,sans-Serif" font-size="10.00">fl::json::is_null</text>
</a>
</g>
</g>
<!-- Node1&#45;&gt;Node2 -->
<g id="edge1_Node000001_Node000002" class="edge">
<title>Node1&#45;&gt;Node2</title>
<g id="a_edge1_Node000001_Node000002"><a xlink:title=" ">
<path fill="none" stroke="#63b8ff" d="M123.25,-66.78C131.83,-68.52 140.58,-70.29 148.97,-71.98"/>
<polygon fill="#63b8ff" stroke="#63b8ff" points="148.5,-75.46 159,-74.01 149.89,-68.6 148.5,-75.46"/>
</a>
</g>
</g>
<!-- Node3 -->
<g id="Node000003" class="node">
<title>Node3</title>
<g id="a_Node000003"><a xlink:href="../../de/d40/classfl_1_1json_af7d8a65ad376b44e25bf9653bcac2405.html#af7d8a65ad376b44e25bf9653bcac2405" target="_top" xlink:title=" ">
<polygon fill="white" stroke="#666666" points="243,-37 161,-37 161,-18 243,-18 243,-37"/>
<text text-anchor="middle" x="202" y="-25" font-family="Helvetica,sans-Serif" font-size="10.00">fl::json::parse</text>
</a>
</g>
</g>
<!-- Node1&#45;&gt;Node3 -->
<g id="edge2_Node000001_Node000003" class="edge">
<title>Node1&#45;&gt;Node3</title>
<g id="a_edge2_Node000001_Node000003"><a xlink:title=" ">
<path fill="none" stroke="#63b8ff" d="M123.25,-42.66C132.44,-40.87 141.83,-39.04 150.76,-37.29"/>
<polygon fill="#63b8ff" stroke="#63b8ff" points="151.47,-40.72 160.62,-35.37 150.13,-33.85 151.47,-40.72"/>
</a>
</g>
</g>
<!-- Node3&#45;&gt;Node3 -->
<g id="edge4_Node000003_Node000003" class="edge">
<title>Node3&#45;&gt;Node3</title>
<g id="a_edge4_Node000003_Node000003"><a xlink:title=" ">
<path fill="none" stroke="#63b8ff" d="M180.73,-37.08C170.38,-45.73 177.47,-55 202,-55 217.71,-55 226.27,-51.2 227.67,-46.19"/>
<polygon fill="#63b8ff" stroke="#63b8ff" points="230.77,-44.56 223.27,-37.08 224.47,-47.61 230.77,-44.56"/>
</a>
</g>
</g>
<!-- Node4 -->
<g id="Node000004" class="node">
<title>Node4</title>
<g id="a_Node000004"><a xlink:href="../../de/d40/classfl_1_1json_a08247deaa089c843eae1e64655e2d761.html#a08247deaa089c843eae1e64655e2d761" target="_top" xlink:title=" ">
<polygon fill="white" stroke="#666666" points="378.5,-56 303.5,-56 303.5,-37 378.5,-37 378.5,-56"/>
<text text-anchor="middle" x="341" y="-44" font-family="Helvetica,sans-Serif" font-size="10.00">fl::json::json</text>
</a>
</g>
</g>
<!-- Node3&#45;&gt;Node4 -->
<g id="edge3_Node000003_Node000004" class="edge">
<title>Node3&#45;&gt;Node4</title>
<g id="a_edge3_Node000003_Node000004"><a xlink:title=" ">
<path fill="none" stroke="#63b8ff" d="M243.36,-33.1C258.9,-35.25 276.78,-37.73 292.9,-39.97"/>
<polygon fill="#63b8ff" stroke="#63b8ff" points="292.81,-43.49 303.2,-41.4 293.77,-36.56 292.81,-43.49"/>
</a>
</g>
</g>
<!-- Node5 -->
<g id="Node000005" class="node">
<title>Node5</title>
<g id="a_Node000005"><a xlink:href="../../dc/dec/structfl_1_1json__value_aa55ba03795c9d30a654c1385a9d28f8e.html#aa55ba03795c9d30a654c1385a9d28f8e" target="_top" xlink:title=" ">
<polygon fill="white" stroke="#666666" points="401,-19 281,-19 281,0 401,0 401,-19"/>
<text text-anchor="middle" x="341" y="-7" font-family="Helvetica,sans-Serif" font-size="10.00">fl::json_value::parse2</text>
</a>
</g>
</g>
<!-- Node3&#45;&gt;Node5 -->
<g id="edge5_Node000003_Node000005" class="edge">
<title>Node3&#45;&gt;Node5</title>
<g id="a_edge5_Node000003_Node000005"><a xlink:title=" ">
<path fill="none" stroke="#63b8ff" d="M243.36,-22.2C252,-21.06 261.36,-19.83 270.74,-18.6"/>
<polygon fill="#63b8ff" stroke="#63b8ff" points="271.43,-22.04 280.89,-17.27 270.52,-15.1 271.43,-22.04"/>
</a>
</g>
</g>
<!-- Node6 -->
<g id="Node000006" class="node">
<title>Node6</title>
<g id="a_Node000006"><a xlink:href="../../d4/d36/namespacefl_a87ae8a24cc8b709a64f39370e71846af.html#a87ae8a24cc8b709a64f39370e71846af" target="_top" xlink:title=" ">
<polygon fill="white" stroke="#666666" points="531,-19 437,-19 437,0 531,0 531,-19"/>
<text text-anchor="middle" x="484" y="-7" font-family="Helvetica,sans-Serif" font-size="10.00">fl::make_shared</text>
</a>
</g>
</g>
<!-- Node5&#45;&gt;Node6 -->
<g id="edge6_Node000005_Node000006" class="edge">
<title>Node5&#45;&gt;Node6</title>
<g id="a_edge6_Node000005_Node000006"><a xlink:title=" ">
<path fill="none" stroke="#63b8ff" d="M401.39,-9.5C409.84,-9.5 418.51,-9.5 426.9,-9.5"/>
<polygon fill="#63b8ff" stroke="#63b8ff" points="426.96,-13 436.96,-9.5 426.96,-6 426.96,-13"/>
</a>
</g>
</g>
</g>
</svg>
