<?xml version="1.0" encoding="UTF-8" standalone="no"?>
<!DOCTYPE svg PUBLIC "-//W3C//DTD SVG 1.1//EN"
 "http://www.w3.org/Graphics/SVG/1.1/DTD/svg11.dtd">
<!-- Generated by graphviz version 2.43.0 (0)
 -->
<!-- Title: fl/iostream.h Pages: 1 -->
<!--zoomable 413 -->

<svg id="main" version="1.1" xmlns="http://www.w3.org/2000/svg" xmlns:xlink="http://www.w3.org/1999/xlink" xml:space="preserve" onload="init(evt)">

<style type="text/css"><![CDATA[
.node, .edge {opacity: 0.7;}
.node.selected, .edge.selected {opacity: 1;}
.edge:hover path { stroke: red; }
.edge:hover polygon { stroke: red; fill: red; }
]]></style>

<defs>
  <circle id="rim" cx="0" cy="0" r="7"/>
  <circle id="rim2" cx="0" cy="0" r="3.5"/>
  <g id="zoomPlus">
    <use xlink:href="#rim" fill="#404040"><set attributeName="fill" to="#808080" begin="zoomplus.mouseover" end="zoomplus.mouseout"/></use>
    <path d="M-4,0h8M0,-4v8" fill="none" stroke="white" stroke-width="1.5" pointer-events="none"/>
  </g>
  <g id="zoomMin">
    <use xlink:href="#rim" fill="#404040"><set attributeName="fill" to="#808080" begin="zoomminus.mouseover" end="zoomminus.mouseout"/></use>
    <path d="M-4,0h8" fill="none" stroke="white" stroke-width="1.5" pointer-events="none"/>
  </g>
  <g id="arrowUp" transform="translate(30 24)">
    <use xlink:href="#rim"/>
    <path pointer-events="none" fill="none" stroke="white" stroke-width="1.5" d="M0,-3.0v7 M-2.5,-0.5L0,-3.0L2.5,-0.5"/>
  </g>
  <g id="arrowRight" transform="rotate(90) translate(36 -43)">
    <use xlink:href="#rim"/>
    <path pointer-events="none" fill="none" stroke="white" stroke-width="1.5" d="M0,-3.0v7 M-2.5,-0.5L0,-3.0L2.5,-0.5"/>
  </g>
  <g id="arrowDown" transform="rotate(180) translate(-30 -48)">
    <use xlink:href="#rim"/>
    <path pointer-events="none" fill="none" stroke="white" stroke-width="1.5" d="M0,-3.0v7 M-2.5,-0.5L0,-3.0L2.5,-0.5"/>
  </g>
  <g id="arrowLeft" transform="rotate(270) translate(-36 17)">
    <use xlink:href="#rim"/>
    <path pointer-events="none" fill="none" stroke="white" stroke-width="1.5" d="M0,-3.0v7 M-2.5,-0.5L0,-3.0L2.5,-0.5"/>
  </g>
  <g id="resetDef">
    <use xlink:href="#rim2" fill="#404040"><set attributeName="fill" to="#808080" begin="reset.mouseover" end="reset.mouseout"/></use>
  </g>
</defs>
<script type="application/ecmascript">
var viewWidth = 1505;
var viewHeight = 413;
var sectionId = 'dynsection-0';
</script>
<script type="application/ecmascript" xlink:href="../../svg.min.js"/>
<svg id="graph" class="graph">
<g id="viewport">
<title>fl/iostream.h</title>
<!-- Node1 -->
<g id="Node000001" class="node">
<title>Node1</title>
<g id="a_Node000001"><a xlink:title=" ">
<polygon fill="#999999" stroke="#666666" points="403.5,-404.56 325.5,-404.56 325.5,-385.56 403.5,-385.56 403.5,-404.56"/>
<text text-anchor="middle" x="364.5" y="-392.56" font-family="Helvetica,sans-Serif" font-size="10.00">fl/iostream.h</text>
</a>
</g>
</g>
<!-- Node2 -->
<g id="Node000002" class="node">
<title>Node2</title>
<g id="a_Node000002"><a xlink:href="../../dc/d64/ostream_8h.html" target="_top" xlink:title=" ">
<polygon fill="white" stroke="#666666" points="603,-349.56 528,-349.56 528,-330.56 603,-330.56 603,-349.56"/>
<text text-anchor="middle" x="565.5" y="-337.56" font-family="Helvetica,sans-Serif" font-size="10.00">fl/ostream.h</text>
</a>
</g>
</g>
<!-- Node1&#45;&gt;Node2 -->
<g id="edge1_Node000001_Node000002" class="edge">
<title>Node1&#45;&gt;Node2</title>
<g id="a_edge1_Node000001_Node000002"><a xlink:title=" ">
<path fill="none" stroke="#63b8ff" d="M396.79,-385.55C431.12,-376.5 485.56,-362.14 523.27,-352.2"/>
<polygon fill="#63b8ff" stroke="#63b8ff" points="524.18,-355.58 532.95,-349.65 522.39,-348.81 524.18,-355.58"/>
</a>
</g>
</g>
<!-- Node60 -->
<g id="Node000060" class="node">
<title>Node60</title>
<g id="a_Node000060"><a xlink:href="../../db/dc9/istream_8h.html" target="_top" xlink:title=" ">
<polygon fill="white" stroke="#666666" points="209.5,-349.56 137.5,-349.56 137.5,-330.56 209.5,-330.56 209.5,-349.56"/>
<text text-anchor="middle" x="173.5" y="-337.56" font-family="Helvetica,sans-Serif" font-size="10.00">fl/istream.h</text>
</a>
</g>
</g>
<!-- Node1&#45;&gt;Node60 -->
<g id="edge50_Node000001_Node000060" class="edge">
<title>Node1&#45;&gt;Node60</title>
<g id="a_edge50_Node000001_Node000060"><a xlink:title=" ">
<path fill="none" stroke="#63b8ff" d="M333.81,-385.55C301.33,-376.53 249.9,-362.26 214.09,-352.33"/>
<polygon fill="#63b8ff" stroke="#63b8ff" points="215,-348.95 204.43,-349.65 213.13,-355.69 215,-348.95"/>
</a>
</g>
</g>
<!-- Node3 -->
<g id="Node000003" class="node">
<title>Node3</title>
<g id="a_Node000003"><a xlink:href="../../d1/d93/str_8h.html" target="_top" xlink:title=" ">
<polygon fill="white" stroke="#666666" points="589,-294.56 542,-294.56 542,-275.56 589,-275.56 589,-294.56"/>
<text text-anchor="middle" x="565.5" y="-282.56" font-family="Helvetica,sans-Serif" font-size="10.00">fl/str.h</text>
</a>
</g>
</g>
<!-- Node2&#45;&gt;Node3 -->
<g id="edge2_Node000002_Node000003" class="edge">
<title>Node2&#45;&gt;Node3</title>
<g id="a_edge2_Node000002_Node000003"><a xlink:title=" ">
<path fill="none" stroke="#63b8ff" d="M565.5,-330.31C565.5,-323.37 565.5,-313.41 565.5,-304.7"/>
<polygon fill="#63b8ff" stroke="#63b8ff" points="569,-304.65 565.5,-294.65 562,-304.65 569,-304.65"/>
</a>
</g>
</g>
<!-- Node4 -->
<g id="Node000004" class="node">
<title>Node4</title>
<g id="a_Node000004"><a xlink:href="../../d3/d7e/int_8h.html" target="_top" xlink:title=" ">
<polygon fill="#fff0f0" stroke="red" points="788,-74.56 741,-74.56 741,-55.56 788,-55.56 788,-74.56"/>
<text text-anchor="middle" x="764.5" y="-62.56" font-family="Helvetica,sans-Serif" font-size="10.00">fl/int.h</text>
</a>
</g>
</g>
<!-- Node2&#45;&gt;Node4 -->
<g id="edge30_Node000002_Node000004" class="edge">
<title>Node2&#45;&gt;Node4</title>
<g id="a_edge30_Node000002_Node000004"><a xlink:title=" ">
<path fill="none" stroke="#63b8ff" d="M603.35,-336.94C662.85,-331.42 777.34,-311.48 834.5,-239.56 855.05,-213.7 854.75,-195.83 841.5,-165.56 832.04,-143.95 817.38,-147.87 802.5,-129.56 790.88,-115.26 780.35,-97.05 773.34,-83.8"/>
<polygon fill="#63b8ff" stroke="#63b8ff" points="776.39,-82.08 768.7,-74.78 770.16,-85.28 776.39,-82.08"/>
</a>
</g>
</g>
<!-- Node17 -->
<g id="Node000017" class="node">
<title>Node17</title>
<g id="a_Node000017"><a xlink:href="../../df/d63/type__traits_8h.html" target="_top" xlink:title=" ">
<polygon fill="#fff0f0" stroke="red" points="520,-129.56 433,-129.56 433,-110.56 520,-110.56 520,-129.56"/>
<text text-anchor="middle" x="476.5" y="-117.56" font-family="Helvetica,sans-Serif" font-size="10.00">fl/type_traits.h</text>
</a>
</g>
</g>
<!-- Node2&#45;&gt;Node17 -->
<g id="edge31_Node000002_Node000017" class="edge">
<title>Node2&#45;&gt;Node17</title>
<g id="a_edge31_Node000002_Node000017"><a xlink:title=" ">
<path fill="none" stroke="#63b8ff" d="M527.96,-332.19C463.2,-317.98 332.95,-278.49 286.5,-184.56 282.76,-176.99 281.25,-172.18 286.5,-165.56 303.24,-144.45 372.51,-132.4 422.58,-126.29"/>
<polygon fill="#63b8ff" stroke="#63b8ff" points="423.11,-129.76 432.64,-125.12 422.3,-122.8 423.11,-129.76"/>
</a>
</g>
</g>
<!-- Node52 -->
<g id="Node000052" class="node">
<title>Node52</title>
<g id="a_Node000052"><a xlink:href="../../db/dd1/crgb_8h.html" target="_top" xlink:title="Defines the red, green, and blue (RGB) pixel struct.">
<polygon fill="white" stroke="#666666" points="1197,-184.56 1150,-184.56 1150,-165.56 1197,-165.56 1197,-184.56"/>
<text text-anchor="middle" x="1173.5" y="-172.56" font-family="Helvetica,sans-Serif" font-size="10.00">crgb.h</text>
</a>
</g>
</g>
<!-- Node2&#45;&gt;Node52 -->
<g id="edge32_Node000002_Node000052" class="edge">
<title>Node2&#45;&gt;Node52</title>
<g id="a_edge32_Node000002_Node000052"><a xlink:title=" ">
<path fill="none" stroke="#63b8ff" d="M603.11,-336.93C716.22,-329.85 1050.75,-303.82 1135.5,-239.56 1150.66,-228.07 1160.99,-208.63 1167.01,-194.28"/>
<polygon fill="#63b8ff" stroke="#63b8ff" points="1170.29,-195.51 1170.64,-184.92 1163.77,-192.98 1170.29,-195.51"/>
</a>
</g>
</g>
<!-- Node3&#45;&gt;Node4 -->
<g id="edge3_Node000003_Node000004" class="edge">
<title>Node3&#45;&gt;Node4</title>
<g id="a_edge3_Node000003_Node000004"><a xlink:title=" ">
<path fill="none" stroke="#63b8ff" d="M589.32,-283.11C645.11,-280.37 781.87,-270.57 813.5,-239.56 837.24,-216.29 840.31,-194.81 824.5,-165.56 810.61,-139.86 784.39,-154.7 769.5,-129.56 761.48,-116.04 760.83,-97.95 761.83,-84.54"/>
<polygon fill="#63b8ff" stroke="#63b8ff" points="765.31,-84.9 762.94,-74.57 758.36,-84.13 765.31,-84.9"/>
</a>
</g>
</g>
<!-- Node8 -->
<g id="Node000008" class="node">
<title>Node8</title>
<g id="a_Node000008"><a xlink:href="../../da/d66/string_8h.html" target="_top" xlink:title=" ">
<polygon fill="white" stroke="#666666" points="375,-74.56 322,-74.56 322,-55.56 375,-55.56 375,-74.56"/>
<text text-anchor="middle" x="348.5" y="-62.56" font-family="Helvetica,sans-Serif" font-size="10.00">string.h</text>
</a>
</g>
</g>
<!-- Node3&#45;&gt;Node8 -->
<g id="edge6_Node000003_Node000008" class="edge">
<title>Node3&#45;&gt;Node8</title>
<g id="a_edge6_Node000003_Node000008"><a xlink:title=" ">
<path fill="none" stroke="#63b8ff" d="M541.91,-282.8C500.63,-279.69 414.59,-269.58 349.5,-239.56 312.93,-222.7 295.35,-220.66 277.5,-184.56 258.85,-146.84 297.69,-103.13 325.15,-80.82"/>
<polygon fill="#63b8ff" stroke="#63b8ff" points="327.43,-83.48 333.23,-74.62 323.17,-77.93 327.43,-83.48"/>
</a>
</g>
</g>
<!-- Node9 -->
<g id="Node000009" class="node">
<title>Node9</title>
<g id="a_Node000009"><a xlink:href="../../d4/d67/geometry_8h.html" target="_top" xlink:title=" ">
<polygon fill="#fff0f0" stroke="red" points="815.5,-184.56 735.5,-184.56 735.5,-165.56 815.5,-165.56 815.5,-184.56"/>
<text text-anchor="middle" x="775.5" y="-172.56" font-family="Helvetica,sans-Serif" font-size="10.00">fl/geometry.h</text>
</a>
</g>
</g>
<!-- Node3&#45;&gt;Node9 -->
<g id="edge8_Node000003_Node000009" class="edge">
<title>Node3&#45;&gt;Node9</title>
<g id="a_edge8_Node000003_Node000009"><a xlink:title=" ">
<path fill="none" stroke="#63b8ff" d="M574.13,-275.53C588.07,-262.17 616.87,-236.22 645.5,-220.56 672.2,-205.96 704.57,-194.86 730.33,-187.4"/>
<polygon fill="#63b8ff" stroke="#63b8ff" points="731.53,-190.7 740.21,-184.62 729.64,-183.96 731.53,-190.7"/>
</a>
</g>
</g>
<!-- Node15 -->
<g id="Node000015" class="node">
<title>Node15</title>
<g id="a_Node000015"><a xlink:href="../../d8/db8/math__macros_8h.html" target="_top" xlink:title=" ">
<polygon fill="#fff0f0" stroke="red" points="527,-184.56 426,-184.56 426,-165.56 527,-165.56 527,-184.56"/>
<text text-anchor="middle" x="476.5" y="-172.56" font-family="Helvetica,sans-Serif" font-size="10.00">fl/math_macros.h</text>
</a>
</g>
</g>
<!-- Node3&#45;&gt;Node15 -->
<g id="edge10_Node000003_Node000015" class="edge">
<title>Node3&#45;&gt;Node15</title>
<g id="a_edge10_Node000003_Node000015"><a xlink:title=" ">
<path fill="none" stroke="#63b8ff" d="M557.07,-275.43C548.6,-266.62 535.27,-252.46 524.5,-239.56 511.81,-224.37 498.29,-206.3 488.85,-193.33"/>
<polygon fill="#63b8ff" stroke="#63b8ff" points="491.45,-190.96 482.76,-184.9 485.78,-195.05 491.45,-190.96"/>
</a>
</g>
</g>
<!-- Node3&#45;&gt;Node17 -->
<g id="edge20_Node000003_Node000017" class="edge">
<title>Node3&#45;&gt;Node17</title>
<g id="a_edge20_Node000003_Node000017"><a xlink:title=" ">
<path fill="none" stroke="#63b8ff" d="M541.75,-276.34C506.89,-263.56 443.12,-234.35 416.5,-184.56 405.78,-164.52 428.16,-146.19 448.57,-134.43"/>
<polygon fill="#63b8ff" stroke="#63b8ff" points="450.26,-137.5 457.39,-129.66 446.93,-131.34 450.26,-137.5"/>
</a>
</g>
</g>
<!-- Node18 -->
<g id="Node000018" class="node">
<title>Node18</title>
<g id="a_Node000018"><a xlink:href="../../df/d2a/namespace_8h.html" target="_top" xlink:title="Implements the FastLED namespace macros.">
<polygon fill="white" stroke="#666666" points="1303,-74.56 1212,-74.56 1212,-55.56 1303,-55.56 1303,-74.56"/>
<text text-anchor="middle" x="1257.5" y="-62.56" font-family="Helvetica,sans-Serif" font-size="10.00">fl/namespace.h</text>
</a>
</g>
</g>
<!-- Node3&#45;&gt;Node18 -->
<g id="edge16_Node000003_Node000018" class="edge">
<title>Node3&#45;&gt;Node18</title>
<g id="a_edge16_Node000003_Node000018"><a xlink:title=" ">
<path fill="none" stroke="#63b8ff" d="M589.06,-283.18C641.71,-280.67 772.47,-271.47 876.5,-239.56 1001.73,-201.16 1021.35,-162.74 1141.5,-110.56 1168.85,-98.69 1200.49,-86.66 1223.81,-78.11"/>
<polygon fill="#63b8ff" stroke="#63b8ff" points="1225.06,-81.38 1233.26,-74.67 1222.67,-74.8 1225.06,-81.38"/>
</a>
</g>
</g>
<!-- Node20 -->
<g id="Node000020" class="node">
<title>Node20</title>
<g id="a_Node000020"><a xlink:href="../../dc/d18/memory_8h.html" target="_top" xlink:title=" ">
<polygon fill="#fff0f0" stroke="red" points="369.5,-184.56 295.5,-184.56 295.5,-165.56 369.5,-165.56 369.5,-184.56"/>
<text text-anchor="middle" x="332.5" y="-172.56" font-family="Helvetica,sans-Serif" font-size="10.00">fl/memory.h</text>
</a>
</g>
</g>
<!-- Node3&#45;&gt;Node20 -->
<g id="edge17_Node000003_Node000020" class="edge">
<title>Node3&#45;&gt;Node20</title>
<g id="a_edge17_Node000003_Node000020"><a xlink:title=" ">
<path fill="none" stroke="#63b8ff" d="M541.79,-283.07C505.14,-280.54 433.71,-271.53 383.5,-239.56 365.67,-228.21 351.27,-208.46 342.38,-193.99"/>
<polygon fill="#63b8ff" stroke="#63b8ff" points="345.19,-191.87 337.13,-184.99 339.14,-195.39 345.19,-191.87"/>
</a>
</g>
</g>
<!-- Node46 -->
<g id="Node000046" class="node">
<title>Node46</title>
<g id="a_Node000046"><a xlink:href="../../dc/d62/optional_8h.html" target="_top" xlink:title=" ">
<polygon fill="#fff0f0" stroke="red" points="728.5,-239.56 654.5,-239.56 654.5,-220.56 728.5,-220.56 728.5,-239.56"/>
<text text-anchor="middle" x="691.5" y="-227.56" font-family="Helvetica,sans-Serif" font-size="10.00">fl/optional.h</text>
</a>
</g>
</g>
<!-- Node3&#45;&gt;Node46 -->
<g id="edge19_Node000003_Node000046" class="edge">
<title>Node3&#45;&gt;Node46</title>
<g id="a_edge19_Node000003_Node000046"><a xlink:title=" ">
<path fill="none" stroke="#63b8ff" d="M585.74,-275.55C606.2,-266.95 638.03,-253.55 661.43,-243.71"/>
<polygon fill="#63b8ff" stroke="#63b8ff" points="663.03,-246.84 670.89,-239.73 660.31,-240.38 663.03,-246.84"/>
</a>
</g>
</g>
<!-- Node47 -->
<g id="Node000047" class="node">
<title>Node47</title>
<g id="a_Node000047"><a xlink:href="../../d6/d68/vector_8h.html" target="_top" xlink:title=" ">
<polygon fill="#fff0f0" stroke="red" points="598,-239.56 533,-239.56 533,-220.56 598,-220.56 598,-239.56"/>
<text text-anchor="middle" x="565.5" y="-227.56" font-family="Helvetica,sans-Serif" font-size="10.00">fl/vector.h</text>
</a>
</g>
</g>
<!-- Node3&#45;&gt;Node47 -->
<g id="edge21_Node000003_Node000047" class="edge">
<title>Node3&#45;&gt;Node47</title>
<g id="a_edge21_Node000003_Node000047"><a xlink:title=" ">
<path fill="none" stroke="#63b8ff" d="M565.5,-275.31C565.5,-268.37 565.5,-258.41 565.5,-249.7"/>
<polygon fill="#63b8ff" stroke="#63b8ff" points="569,-249.65 565.5,-239.65 562,-249.65 569,-249.65"/>
</a>
</g>
</g>
<!-- Node50 -->
<g id="Node000050" class="node">
<title>Node50</title>
<g id="a_Node000050"><a xlink:href="../../d4/d7a/span_8h.html" target="_top" xlink:title=" ">
<polygon fill="#fff0f0" stroke="red" points="804.5,-239.56 746.5,-239.56 746.5,-220.56 804.5,-220.56 804.5,-239.56"/>
<text text-anchor="middle" x="775.5" y="-227.56" font-family="Helvetica,sans-Serif" font-size="10.00">fl/span.h</text>
</a>
</g>
</g>
<!-- Node3&#45;&gt;Node50 -->
<g id="edge28_Node000003_Node000050" class="edge">
<title>Node3&#45;&gt;Node50</title>
<g id="a_edge28_Node000003_Node000050"><a xlink:title=" ">
<path fill="none" stroke="#63b8ff" d="M589.18,-278.09C624.93,-269.06 693.09,-251.86 736.31,-240.95"/>
<polygon fill="#63b8ff" stroke="#63b8ff" points="737.36,-244.3 746.2,-238.46 735.64,-237.51 737.36,-244.3"/>
</a>
</g>
</g>
<!-- Node13 -->
<g id="Node000013" class="node">
<title>Node13</title>
<g id="a_Node000013"><a xlink:href="../../d4/d64/force__inline_8h.html" target="_top" xlink:title=" ">
<polygon fill="white" stroke="#666666" points="903.5,-129.56 811.5,-129.56 811.5,-110.56 903.5,-110.56 903.5,-129.56"/>
<text text-anchor="middle" x="857.5" y="-117.56" font-family="Helvetica,sans-Serif" font-size="10.00">fl/force_inline.h</text>
</a>
</g>
</g>
<!-- Node3&#45;&gt;Node13 -->
<g id="edge29_Node000003_Node000013" class="edge">
<title>Node3&#45;&gt;Node13</title>
<g id="a_edge29_Node000003_Node000013"><a xlink:title=" ">
<path fill="none" stroke="#63b8ff" d="M589.24,-284.22C652.52,-284.09 822.83,-279.92 857.5,-239.56 881.43,-211.71 871.99,-165.09 864.08,-139.41"/>
<polygon fill="#63b8ff" stroke="#63b8ff" points="867.36,-138.19 860.89,-129.8 860.72,-140.4 867.36,-138.19"/>
</a>
</g>
</g>
<!-- Node5 -->
<g id="Node000005" class="node">
<title>Node5</title>
<g id="a_Node000005"><a xlink:href="../../df/dd8/stdint_8h.html" target="_top" xlink:title=" ">
<polygon fill="#fff0f0" stroke="red" points="916.5,-19.56 854.5,-19.56 854.5,-0.56 916.5,-0.56 916.5,-19.56"/>
<text text-anchor="middle" x="885.5" y="-7.56" font-family="Helvetica,sans-Serif" font-size="10.00">fl/stdint.h</text>
</a>
</g>
</g>
<!-- Node4&#45;&gt;Node5 -->
<g id="edge4_Node000004_Node000005" class="edge">
<title>Node4&#45;&gt;Node5</title>
<g id="a_edge4_Node000004_Node000005"><a xlink:title=" ">
<path fill="none" stroke="#63b8ff" d="M783.94,-55.55C803.49,-46.98 833.88,-33.67 856.32,-23.84"/>
<polygon fill="#63b8ff" stroke="#63b8ff" points="857.95,-26.95 865.71,-19.73 855.14,-20.54 857.95,-26.95"/>
</a>
</g>
</g>
<!-- Node5&#45;&gt;Node5 -->
<g id="edge5_Node000005_Node000005" class="edge">
<title>Node5&#45;&gt;Node5</title>
<g id="a_edge5_Node000005_Node000005"><a xlink:title=" ">
<path fill="none" stroke="#63b8ff" d="M908.44,-19.59C921.9,-21.63 934.5,-18.45 934.5,-10.06 934.5,-3.84 927.56,-0.49 918.48,0"/>
<polygon fill="#63b8ff" stroke="#63b8ff" points="918.24,3.49 908.44,-0.53 918.61,-3.5 918.24,3.49"/>
</a>
</g>
</g>
<!-- Node8&#45;&gt;Node3 -->
<g id="edge7_Node000008_Node000003" class="edge">
<title>Node8&#45;&gt;Node3</title>
<g id="a_edge7_Node000008_Node000003"><a xlink:title=" ">
<path fill="none" stroke="#63b8ff" d="M342.65,-74.62C324.34,-94.03 274.92,-142.94 295.5,-184.56 313.35,-220.66 330.93,-222.7 367.5,-239.56 421.89,-264.64 490.9,-275.82 531.57,-280.64"/>
<polygon fill="#63b8ff" stroke="#63b8ff" points="531.43,-284.15 541.76,-281.78 532.21,-277.19 531.43,-284.15"/>
</a>
</g>
</g>
<!-- Node9&#45;&gt;Node4 -->
<g id="edge9_Node000009_Node000004" class="edge">
<title>Node9&#45;&gt;Node4</title>
<g id="a_edge9_Node000009_Node000004"><a xlink:title=" ">
<path fill="none" stroke="#63b8ff" d="M762.72,-165.56C752.11,-157.66 737.78,-144.84 731.5,-129.56 724.68,-112.97 736.05,-94.9 747.26,-82.29"/>
<polygon fill="#63b8ff" stroke="#63b8ff" points="750,-84.5 754.41,-74.87 744.95,-79.64 750,-84.5"/>
</a>
</g>
</g>
<!-- Node15&#45;&gt;Node17 -->
<g id="edge11_Node000015_Node000017" class="edge">
<title>Node15&#45;&gt;Node17</title>
<g id="a_edge11_Node000015_Node000017"><a xlink:title=" ">
<path fill="none" stroke="#63b8ff" d="M476.5,-165.31C476.5,-158.37 476.5,-148.41 476.5,-139.7"/>
<polygon fill="#63b8ff" stroke="#63b8ff" points="480,-139.65 476.5,-129.65 473,-139.65 480,-139.65"/>
</a>
</g>
</g>
<!-- Node17&#45;&gt;Node4 -->
<g id="edge15_Node000017_Node000004" class="edge">
<title>Node17&#45;&gt;Node4</title>
<g id="a_edge15_Node000017_Node000004"><a xlink:title=" ">
<path fill="none" stroke="#63b8ff" d="M520.24,-111.01C577.95,-100.39 678.31,-81.93 730.61,-72.3"/>
<polygon fill="#63b8ff" stroke="#63b8ff" points="731.5,-75.69 740.7,-70.44 730.23,-68.81 731.5,-75.69"/>
</a>
</g>
</g>
<!-- Node17&#45;&gt;Node5 -->
<g id="edge13_Node000017_Node000005" class="edge">
<title>Node17&#45;&gt;Node5</title>
<g id="a_edge13_Node000017_Node000005"><a xlink:title=" ">
<path fill="none" stroke="#63b8ff" d="M492.05,-110.44C517.5,-96.7 569.96,-69.95 617.5,-55.56 695.8,-31.87 791.01,-19.86 844.29,-14.57"/>
<polygon fill="#63b8ff" stroke="#63b8ff" points="844.74,-18.04 854.36,-13.6 844.07,-11.07 844.74,-18.04"/>
</a>
</g>
</g>
<!-- Node17&#45;&gt;Node8 -->
<g id="edge12_Node000017_Node000008" class="edge">
<title>Node17&#45;&gt;Node8</title>
<g id="a_edge12_Node000017_Node000008"><a xlink:title=" ">
<path fill="none" stroke="#63b8ff" d="M455.93,-110.55C435.07,-101.91 402.53,-88.43 378.73,-78.58"/>
<polygon fill="#63b8ff" stroke="#63b8ff" points="380.02,-75.33 369.44,-74.73 377.34,-81.79 380.02,-75.33"/>
</a>
</g>
</g>
<!-- Node17&#45;&gt;Node18 -->
<g id="edge14_Node000017_Node000018" class="edge">
<title>Node17&#45;&gt;Node18</title>
<g id="a_edge14_Node000017_Node000018"><a xlink:title=" ">
<path fill="none" stroke="#63b8ff" d="M520.16,-116.1C653.18,-107.07 1053.28,-79.92 1201.49,-69.86"/>
<polygon fill="#63b8ff" stroke="#63b8ff" points="1201.97,-73.34 1211.71,-69.17 1201.5,-66.36 1201.97,-73.34"/>
</a>
</g>
</g>
<!-- Node20&#45;&gt;Node17 -->
<g id="edge18_Node000020_Node000017" class="edge">
<title>Node20&#45;&gt;Node17</title>
<g id="a_edge18_Node000020_Node000017"><a xlink:title=" ">
<path fill="none" stroke="#63b8ff" d="M355.64,-165.55C379.32,-156.83 416.37,-143.19 443.21,-133.32"/>
<polygon fill="#63b8ff" stroke="#63b8ff" points="444.77,-136.47 452.94,-129.73 442.35,-129.9 444.77,-136.47"/>
</a>
</g>
</g>
<!-- Node47&#45;&gt;Node4 -->
<g id="edge23_Node000047_Node000004" class="edge">
<title>Node47&#45;&gt;Node4</title>
<g id="a_edge23_Node000047_Node000004"><a xlink:title=" ">
<path fill="none" stroke="#63b8ff" d="M584.17,-220.51C600.97,-212.4 625.95,-199.29 645.5,-184.56 667.65,-167.88 722.59,-110.56 749.36,-82.21"/>
<polygon fill="#63b8ff" stroke="#63b8ff" points="752.09,-84.41 756.4,-74.73 747,-79.61 752.09,-84.41"/>
</a>
</g>
</g>
<!-- Node47&#45;&gt;Node5 -->
<g id="edge22_Node000047_Node000005" class="edge">
<title>Node47&#45;&gt;Node5</title>
<g id="a_edge22_Node000047_Node000005"><a xlink:title=" ">
<path fill="none" stroke="#63b8ff" d="M571.33,-220.32C590.68,-191.99 655.94,-101.85 732.5,-55.56 767.11,-34.64 812.08,-23.1 844.29,-17.05"/>
<polygon fill="#63b8ff" stroke="#63b8ff" points="845.04,-20.48 854.28,-15.28 843.82,-13.58 845.04,-20.48"/>
</a>
</g>
</g>
<!-- Node47&#45;&gt;Node8 -->
<g id="edge24_Node000047_Node000008" class="edge">
<title>Node47&#45;&gt;Node8</title>
<g id="a_edge24_Node000047_Node000008"><a xlink:title=" ">
<path fill="none" stroke="#63b8ff" d="M565.84,-220.48C566.21,-198.24 563.8,-138.59 529.5,-110.56 488.21,-76.82 425.09,-68.08 385.34,-66.14"/>
<polygon fill="#63b8ff" stroke="#63b8ff" points="385.4,-62.63 375.28,-65.76 385.14,-69.63 385.4,-62.63"/>
</a>
</g>
</g>
<!-- Node47&#45;&gt;Node15 -->
<g id="edge25_Node000047_Node000015" class="edge">
<title>Node47&#45;&gt;Node15</title>
<g id="a_edge25_Node000047_Node000015"><a xlink:title=" ">
<path fill="none" stroke="#63b8ff" d="M551.2,-220.55C537.4,-212.33 516.26,-199.74 499.99,-190.05"/>
<polygon fill="#63b8ff" stroke="#63b8ff" points="501.44,-186.84 491.06,-184.73 497.86,-192.86 501.44,-186.84"/>
</a>
</g>
</g>
<!-- Node47&#45;&gt;Node17 -->
<g id="edge27_Node000047_Node000017" class="edge">
<title>Node47&#45;&gt;Node17</title>
<g id="a_edge27_Node000047_Node000017"><a xlink:title=" ">
<path fill="none" stroke="#63b8ff" d="M563.11,-220.51C559.18,-207.57 550.38,-182.71 536.5,-165.56 526.68,-153.43 512.84,-142.88 500.92,-135.09"/>
<polygon fill="#63b8ff" stroke="#63b8ff" points="502.62,-132.03 492.28,-129.7 498.91,-137.96 502.62,-132.03"/>
</a>
</g>
</g>
<!-- Node47&#45;&gt;Node18 -->
<g id="edge26_Node000047_Node000018" class="edge">
<title>Node47&#45;&gt;Node18</title>
<g id="a_edge26_Node000047_Node000018"><a xlink:title=" ">
<path fill="none" stroke="#63b8ff" d="M585.41,-220.47C621.95,-204.82 698.53,-172.63 726.5,-165.56 856.7,-132.66 894.73,-155.43 1026.5,-129.56 1063.29,-122.34 1162.82,-93.8 1218.48,-77.55"/>
<polygon fill="#63b8ff" stroke="#63b8ff" points="1219.72,-80.83 1228.34,-74.66 1217.76,-74.11 1219.72,-80.83"/>
</a>
</g>
</g>
<!-- Node52&#45;&gt;Node4 -->
<g id="edge34_Node000052_Node000004" class="edge">
<title>Node52&#45;&gt;Node4</title>
<g id="a_edge34_Node000052_Node000004"><a xlink:title=" ">
<path fill="none" stroke="#63b8ff" d="M1149.85,-171.45C1108.53,-166.42 1020.89,-153.7 950.5,-129.56 932.64,-123.44 930.05,-117.53 912.5,-110.56 874.24,-95.38 828.69,-82.41 798.32,-74.46"/>
<polygon fill="#63b8ff" stroke="#63b8ff" points="798.81,-70.97 788.25,-71.86 797.06,-77.75 798.81,-70.97"/>
</a>
</g>
</g>
<!-- Node52&#45;&gt;Node5 -->
<g id="edge33_Node000052_Node000005" class="edge">
<title>Node52&#45;&gt;Node5</title>
<g id="a_edge33_Node000052_Node000005"><a xlink:title=" ">
<path fill="none" stroke="#63b8ff" d="M1158.42,-165.53C1111.39,-138.91 967.08,-57.24 909.55,-24.67"/>
<polygon fill="#63b8ff" stroke="#63b8ff" points="911.2,-21.59 900.78,-19.71 907.76,-27.68 911.2,-21.59"/>
</a>
</g>
</g>
<!-- Node52&#45;&gt;Node17 -->
<g id="edge45_Node000052_Node000017" class="edge">
<title>Node52&#45;&gt;Node17</title>
<g id="a_edge45_Node000052_Node000017"><a xlink:title=" ">
<path fill="none" stroke="#63b8ff" d="M1149.91,-172.27C1051.55,-164.79 672.58,-135.97 530.61,-125.18"/>
<polygon fill="#63b8ff" stroke="#63b8ff" points="530.64,-121.67 520.41,-124.4 530.11,-128.65 530.64,-121.67"/>
</a>
</g>
</g>
<!-- Node52&#45;&gt;Node18 -->
<g id="edge37_Node000052_Node000018" class="edge">
<title>Node52&#45;&gt;Node18</title>
<g id="a_edge37_Node000052_Node000018"><a xlink:title=" ">
<path fill="none" stroke="#63b8ff" d="M1197.33,-172.74C1225.24,-169.75 1270.33,-160.18 1291.5,-129.56 1302.2,-114.09 1288.58,-94.87 1275.53,-81.65"/>
<polygon fill="#63b8ff" stroke="#63b8ff" points="1277.77,-78.95 1268.1,-74.64 1272.96,-84.04 1277.77,-78.95"/>
</a>
</g>
</g>
<!-- Node52&#45;&gt;Node13 -->
<g id="edge44_Node000052_Node000013" class="edge">
<title>Node52&#45;&gt;Node13</title>
<g id="a_edge44_Node000052_Node000013"><a xlink:title=" ">
<path fill="none" stroke="#63b8ff" d="M1149.75,-170.08C1099.95,-161.73 983.45,-142.19 913.51,-130.46"/>
<polygon fill="#63b8ff" stroke="#63b8ff" points="913.99,-126.99 903.54,-128.79 912.83,-133.89 913.99,-126.99"/>
</a>
</g>
</g>
<!-- Node53 -->
<g id="Node000053" class="node">
<title>Node53</title>
<g id="a_Node000053"><a xlink:href="../../d8/dd0/chsv_8h.html" target="_top" xlink:title="Defines the hue, saturation, and value (HSV) pixel struct.">
<polygon fill="#fff0f0" stroke="red" points="1386,-129.56 1339,-129.56 1339,-110.56 1386,-110.56 1386,-129.56"/>
<text text-anchor="middle" x="1362.5" y="-117.56" font-family="Helvetica,sans-Serif" font-size="10.00">chsv.h</text>
</a>
</g>
</g>
<!-- Node52&#45;&gt;Node53 -->
<g id="edge35_Node000052_Node000053" class="edge">
<title>Node52&#45;&gt;Node53</title>
<g id="a_edge35_Node000052_Node000053"><a xlink:title=" ">
<path fill="none" stroke="#63b8ff" d="M1197.05,-167.46C1230.25,-158.15 1290.97,-141.12 1328.9,-130.49"/>
<polygon fill="#63b8ff" stroke="#63b8ff" points="1330.26,-133.74 1338.95,-127.67 1328.37,-127 1330.26,-133.74"/>
</a>
</g>
</g>
<!-- Node55 -->
<g id="Node000055" class="node">
<title>Node55</title>
<g id="a_Node000055"><a xlink:href="../../d2/d6b/src_2color_8h.html" target="_top" xlink:title="Contains definitions for color correction and temperature.">
<polygon fill="white" stroke="#666666" points="1282,-129.56 1233,-129.56 1233,-110.56 1282,-110.56 1282,-129.56"/>
<text text-anchor="middle" x="1257.5" y="-117.56" font-family="Helvetica,sans-Serif" font-size="10.00">color.h</text>
</a>
</g>
</g>
<!-- Node52&#45;&gt;Node55 -->
<g id="edge38_Node000052_Node000055" class="edge">
<title>Node52&#45;&gt;Node55</title>
<g id="a_edge38_Node000052_Node000055"><a xlink:title=" ">
<path fill="none" stroke="#63b8ff" d="M1187,-165.55C1199.9,-157.41 1219.6,-144.98 1234.9,-135.32"/>
<polygon fill="#63b8ff" stroke="#63b8ff" points="1237.17,-138.03 1243.76,-129.73 1233.43,-132.11 1237.17,-138.03"/>
</a>
</g>
</g>
<!-- Node56 -->
<g id="Node000056" class="node">
<title>Node56</title>
<g id="a_Node000056"><a xlink:href="../../d9/ddf/lib8tion_2types_8h.html" target="_top" xlink:title="Defines fractional types used for lib8tion functions.">
<polygon fill="white" stroke="#666666" points="1496.5,-129.56 1404.5,-129.56 1404.5,-110.56 1496.5,-110.56 1496.5,-129.56"/>
<text text-anchor="middle" x="1450.5" y="-117.56" font-family="Helvetica,sans-Serif" font-size="10.00">lib8tion/types.h</text>
</a>
</g>
</g>
<!-- Node52&#45;&gt;Node56 -->
<g id="edge40_Node000052_Node000056" class="edge">
<title>Node52&#45;&gt;Node56</title>
<g id="a_edge40_Node000052_Node000056"><a xlink:title=" ">
<path fill="none" stroke="#63b8ff" d="M1197.12,-169.54C1240.84,-161.18 1335.42,-143.08 1395.85,-131.52"/>
<polygon fill="#63b8ff" stroke="#63b8ff" points="1396.82,-134.9 1405.98,-129.58 1395.5,-128.02 1396.82,-134.9"/>
</a>
</g>
</g>
<!-- Node57 -->
<g id="Node000057" class="node">
<title>Node57</title>
<g id="a_Node000057"><a xlink:href="../../de/d9a/hsv2rgb_8h.html" target="_top" xlink:title="Functions to convert from the HSV colorspace to the RGB colorspace.">
<polygon fill="white" stroke="#666666" points="1215,-129.56 1150,-129.56 1150,-110.56 1215,-110.56 1215,-129.56"/>
<text text-anchor="middle" x="1182.5" y="-117.56" font-family="Helvetica,sans-Serif" font-size="10.00">hsv2rgb.h</text>
</a>
</g>
</g>
<!-- Node52&#45;&gt;Node57 -->
<g id="edge46_Node000052_Node000057" class="edge">
<title>Node52&#45;&gt;Node57</title>
<g id="a_edge46_Node000052_Node000057"><a xlink:title=" ">
<path fill="none" stroke="#63b8ff" d="M1174.99,-165.31C1176.17,-158.37 1177.86,-148.41 1179.34,-139.7"/>
<polygon fill="#63b8ff" stroke="#63b8ff" points="1182.82,-140.1 1181.04,-129.65 1175.92,-138.93 1182.82,-140.1"/>
</a>
</g>
</g>
<!-- Node58 -->
<g id="Node000058" class="node">
<title>Node58</title>
<g id="a_Node000058"><a xlink:href="../../db/d19/ease_8h.html" target="_top" xlink:title=" ">
<polygon fill="#fff0f0" stroke="red" points="1017.5,-129.56 959.5,-129.56 959.5,-110.56 1017.5,-110.56 1017.5,-129.56"/>
<text text-anchor="middle" x="988.5" y="-117.56" font-family="Helvetica,sans-Serif" font-size="10.00">fl/ease.h</text>
</a>
</g>
</g>
<!-- Node52&#45;&gt;Node58 -->
<g id="edge47_Node000052_Node000058" class="edge">
<title>Node52&#45;&gt;Node58</title>
<g id="a_edge47_Node000052_Node000058"><a xlink:title=" ">
<path fill="none" stroke="#63b8ff" d="M1149.69,-167.24C1118.83,-158.4 1064.59,-142.86 1027.63,-132.27"/>
<polygon fill="#63b8ff" stroke="#63b8ff" points="1028.27,-128.82 1017.7,-129.43 1026.35,-135.55 1028.27,-128.82"/>
</a>
</g>
</g>
<!-- Node53&#45;&gt;Node18 -->
<g id="edge36_Node000053_Node000018" class="edge">
<title>Node53&#45;&gt;Node18</title>
<g id="a_edge36_Node000053_Node000018"><a xlink:title=" ">
<path fill="none" stroke="#63b8ff" d="M1345.63,-110.55C1328.89,-102.1 1303,-89.03 1283.61,-79.24"/>
<polygon fill="#63b8ff" stroke="#63b8ff" points="1285.18,-76.12 1274.68,-74.73 1282.03,-82.36 1285.18,-76.12"/>
</a>
</g>
</g>
<!-- Node55&#45;&gt;Node18 -->
<g id="edge39_Node000055_Node000018" class="edge">
<title>Node55&#45;&gt;Node18</title>
<g id="a_edge39_Node000055_Node000018"><a xlink:title=" ">
<path fill="none" stroke="#63b8ff" d="M1257.5,-110.31C1257.5,-103.37 1257.5,-93.41 1257.5,-84.7"/>
<polygon fill="#63b8ff" stroke="#63b8ff" points="1261,-84.65 1257.5,-74.65 1254,-84.65 1261,-84.65"/>
</a>
</g>
</g>
<!-- Node56&#45;&gt;Node4 -->
<g id="edge42_Node000056_Node000004" class="edge">
<title>Node56&#45;&gt;Node4</title>
<g id="a_edge42_Node000056_Node000004"><a xlink:title=" ">
<path fill="none" stroke="#63b8ff" d="M1404.32,-111.64C1401.34,-111.25 1398.38,-110.89 1395.5,-110.56 1167.99,-85.01 892.59,-71.56 798.15,-67.45"/>
<polygon fill="#63b8ff" stroke="#63b8ff" points="798.2,-63.95 788.06,-67.02 797.9,-70.95 798.2,-63.95"/>
</a>
</g>
</g>
<!-- Node56&#45;&gt;Node5 -->
<g id="edge41_Node000056_Node000005" class="edge">
<title>Node56&#45;&gt;Node5</title>
<g id="a_edge41_Node000056_Node000005"><a xlink:title=" ">
<path fill="none" stroke="#63b8ff" d="M1436.19,-110.55C1411.77,-96.47 1360.06,-68.6 1312.5,-55.56 1174.85,-17.83 1004.21,-11.65 926.95,-10.93"/>
<polygon fill="#63b8ff" stroke="#63b8ff" points="926.71,-7.43 916.68,-10.86 926.66,-14.43 926.71,-7.43"/>
</a>
</g>
</g>
<!-- Node56&#45;&gt;Node18 -->
<g id="edge43_Node000056_Node000018" class="edge">
<title>Node56&#45;&gt;Node18</title>
<g id="a_edge43_Node000056_Node000018"><a xlink:title=" ">
<path fill="none" stroke="#63b8ff" d="M1419.49,-110.55C1386.67,-101.53 1334.7,-87.26 1298.51,-77.33"/>
<polygon fill="#63b8ff" stroke="#63b8ff" points="1299.32,-73.92 1288.75,-74.65 1297.47,-80.67 1299.32,-73.92"/>
</a>
</g>
</g>
<!-- Node58&#45;&gt;Node4 -->
<g id="edge49_Node000058_Node000004" class="edge">
<title>Node58&#45;&gt;Node4</title>
<g id="a_edge49_Node000058_Node000004"><a xlink:title=" ">
<path fill="none" stroke="#63b8ff" d="M959.22,-112.13C917.72,-102.32 841.98,-84.4 798.2,-74.04"/>
<polygon fill="#63b8ff" stroke="#63b8ff" points="798.86,-70.6 788.32,-71.7 797.24,-77.41 798.86,-70.6"/>
</a>
</g>
</g>
<!-- Node58&#45;&gt;Node5 -->
<g id="edge48_Node000058_Node000005" class="edge">
<title>Node58&#45;&gt;Node5</title>
<g id="a_edge48_Node000058_Node000005"><a xlink:title=" ">
<path fill="none" stroke="#63b8ff" d="M980.07,-110.23C962.71,-92.02 922.74,-50.11 900.73,-27.03"/>
<polygon fill="#63b8ff" stroke="#63b8ff" points="903.19,-24.54 893.76,-19.72 898.13,-29.37 903.19,-24.54"/>
</a>
</g>
</g>
<!-- Node60&#45;&gt;Node3 -->
<g id="edge51_Node000060_Node000003" class="edge">
<title>Node60&#45;&gt;Node3</title>
<g id="a_edge51_Node000060_Node000003"><a xlink:title=" ">
<path fill="none" stroke="#63b8ff" d="M209.68,-334.17C285.19,-323.96 458.63,-300.51 531.88,-290.61"/>
<polygon fill="#63b8ff" stroke="#63b8ff" points="532.49,-294.06 541.93,-289.25 531.56,-287.12 532.49,-294.06"/>
</a>
</g>
</g>
<!-- Node60&#45;&gt;Node4 -->
<g id="edge54_Node000060_Node000004" class="edge">
<title>Node60&#45;&gt;Node4</title>
<g id="a_edge54_Node000060_Node000004"><a xlink:title=" ">
<path fill="none" stroke="#63b8ff" d="M174.62,-330.26C176.36,-317.84 180.17,-294.57 186.5,-275.56 204.75,-220.81 208.26,-198.71 255.5,-165.56 319.81,-120.44 346.88,-127.94 423.5,-110.56 534.18,-85.46 668.5,-73.1 730.33,-68.4"/>
<polygon fill="#63b8ff" stroke="#63b8ff" points="730.95,-71.86 740.67,-67.64 730.44,-64.88 730.95,-71.86"/>
</a>
</g>
</g>
<!-- Node60&#45;&gt;Node17 -->
<g id="edge52_Node000060_Node000017" class="edge">
<title>Node60&#45;&gt;Node17</title>
<g id="a_edge52_Node000060_Node000017"><a xlink:title=" ">
<path fill="none" stroke="#63b8ff" d="M176.04,-330.54C184.98,-302.11 217.83,-209.8 279.5,-165.56 321.48,-135.45 380.4,-125.26 422.85,-122.03"/>
<polygon fill="#63b8ff" stroke="#63b8ff" points="423.25,-125.51 433,-121.37 422.79,-118.53 423.25,-125.51"/>
</a>
</g>
</g>
<!-- Node61 -->
<g id="Node000061" class="node">
<title>Node61</title>
<g id="a_Node000061"><a xlink:href="../../d1/dbc/sketch__macros_8h.html" target="_top" xlink:title=" ">
<polygon fill="white" stroke="#666666" points="107,-294.56 0,-294.56 0,-275.56 107,-275.56 107,-294.56"/>
<text text-anchor="middle" x="53.5" y="-282.56" font-family="Helvetica,sans-Serif" font-size="10.00">fl/sketch_macros.h</text>
</a>
</g>
</g>
<!-- Node60&#45;&gt;Node61 -->
<g id="edge53_Node000060_Node000061" class="edge">
<title>Node60&#45;&gt;Node61</title>
<g id="a_edge53_Node000060_Node000061"><a xlink:title=" ">
<path fill="none" stroke="#63b8ff" d="M154.22,-330.55C134.83,-321.98 104.69,-308.67 82.43,-298.84"/>
<polygon fill="#63b8ff" stroke="#63b8ff" points="83.69,-295.57 73.13,-294.73 80.86,-301.98 83.69,-295.57"/>
</a>
</g>
</g>
</g>
</svg>

<g id="navigator" transform="translate(0 0)" fill="#404254">
  <rect fill="#f2f5e9" fill-opacity="0.5" stroke="#606060" stroke-width=".5" x="0" y="0" width="60" height="60"/>
  <use id="zoomplus" xlink:href="#zoomPlus" x="17" y="9" onmousedown="handleZoom(evt,'in')"/>
  <use id="zoomminus" xlink:href="#zoomMin" x="42" y="9" onmousedown="handleZoom(evt,'out')"/>
  <use id="reset" xlink:href="#resetDef" x="30" y="36" onmousedown="handleReset()"/>
   <use id="arrowup" xlink:href="#arrowUp" x="0" y="0" onmousedown="handlePan(0,-1)"/>
  <use id="arrowright" xlink:href="#arrowRight" x="0" y="0" onmousedown="handlePan(1,0)"/>
  <use id="arrowdown" xlink:href="#arrowDown" x="0" y="0" onmousedown="handlePan(0,1)"/>
  <use id="arrowleft" xlink:href="#arrowLeft" x="0" y="0" onmousedown="handlePan(-1,0)"/>
</g>
<svg viewBox="0 0 15 15" width="100%" height="30px" preserveAspectRatio="xMaxYMin meet">
 <g id="arrow_out" transform="scale(0.3 0.3)">
  <a xlink:href="iostream_8h__incl_org.svg" target="_base">
   <rect id="button" ry="5" rx="5" y="6" x="6" height="38" width="38"
        fill="#f2f5e9" fill-opacity="0.5" stroke="#606060" stroke-width="1.0"/>
   <path id="arrow"
     d="M 11.500037,31.436501 C 11.940474,20.09759 22.043105,11.32322 32.158766,21.979434 L 37.068811,17.246167 C 37.068811,17.246167 37.088388,32 37.088388,32 L 22.160133,31.978069 C 22.160133,31.978069 26.997745,27.140456 26.997745,27.140456 C 18.528582,18.264221 13.291696,25.230495 11.500037,31.436501 z"
     style="fill:#404040;"/>
  </a>
 </g>
</svg>

<style type='text/css'>
<![CDATA[
[data-mouse-over-selected='false'] { opacity: 0.7; }
[data-mouse-over-selected='true']  { opacity: 1.0; }
]]>
</style>
<script type="application/ecmascript"><![CDATA[
document.addEventListener('DOMContentLoaded', (event) => {
  highlightEdges();
  highlightAdjacentNodes();
});
]]></script>
</svg>
