<?xml version="1.0" encoding="UTF-8" standalone="no"?>
<!DOCTYPE svg PUBLIC "-//W3C//DTD SVG 1.1//EN"
 "http://www.w3.org/Graphics/SVG/1.1/DTD/svg11.dtd">
<!-- Generated by graphviz version 2.43.0 (0)
 -->
<!-- Title: fl::audio::SignalConditioner::filterSpikes Pages: 1 -->
<!--zoomable 175 -->

<svg id="main" version="1.1" xmlns="http://www.w3.org/2000/svg" xmlns:xlink="http://www.w3.org/1999/xlink" xml:space="preserve" onload="init(evt)">

<style type="text/css"><![CDATA[
.node, .edge {opacity: 0.7;}
.node.selected, .edge.selected {opacity: 1;}
.edge:hover path { stroke: red; }
.edge:hover polygon { stroke: red; fill: red; }
]]></style>

<defs>
  <circle id="rim" cx="0" cy="0" r="7"/>
  <circle id="rim2" cx="0" cy="0" r="3.5"/>
  <g id="zoomPlus">
    <use xlink:href="#rim" fill="#404040"><set attributeName="fill" to="#808080" begin="zoomplus.mouseover" end="zoomplus.mouseout"/></use>
    <path d="M-4,0h8M0,-4v8" fill="none" stroke="white" stroke-width="1.5" pointer-events="none"/>
  </g>
  <g id="zoomMin">
    <use xlink:href="#rim" fill="#404040"><set attributeName="fill" to="#808080" begin="zoomminus.mouseover" end="zoomminus.mouseout"/></use>
    <path d="M-4,0h8" fill="none" stroke="white" stroke-width="1.5" pointer-events="none"/>
  </g>
  <g id="arrowUp" transform="translate(30 24)">
    <use xlink:href="#rim"/>
    <path pointer-events="none" fill="none" stroke="white" stroke-width="1.5" d="M0,-3.0v7 M-2.5,-0.5L0,-3.0L2.5,-0.5"/>
  </g>
  <g id="arrowRight" transform="rotate(90) translate(36 -43)">
    <use xlink:href="#rim"/>
    <path pointer-events="none" fill="none" stroke="white" stroke-width="1.5" d="M0,-3.0v7 M-2.5,-0.5L0,-3.0L2.5,-0.5"/>
  </g>
  <g id="arrowDown" transform="rotate(180) translate(-30 -48)">
    <use xlink:href="#rim"/>
    <path pointer-events="none" fill="none" stroke="white" stroke-width="1.5" d="M0,-3.0v7 M-2.5,-0.5L0,-3.0L2.5,-0.5"/>
  </g>
  <g id="arrowLeft" transform="rotate(270) translate(-36 17)">
    <use xlink:href="#rim"/>
    <path pointer-events="none" fill="none" stroke="white" stroke-width="1.5" d="M0,-3.0v7 M-2.5,-0.5L0,-3.0L2.5,-0.5"/>
  </g>
  <g id="resetDef">
    <use xlink:href="#rim2" fill="#404040"><set attributeName="fill" to="#808080" begin="reset.mouseover" end="reset.mouseout"/></use>
  </g>
</defs>
<script type="application/ecmascript">
var viewWidth = 573;
var viewHeight = 175;
var sectionId = 'dynsection-0';
</script>
<script type="application/ecmascript" xlink:href="../../svg.min.js"/>
<svg id="graph" class="graph">
<g id="viewport">
<title>fl::audio::SignalConditioner::filterSpikes</title>
<!-- Node1 -->
<g id="Node000001" class="node">
<title>Node1</title>
<g id="a_Node000001"><a xlink:title="Detect and reject spike samples.">
<polygon fill="#999999" stroke="#666666" points="148,-98.5 0,-98.5 0,-68.5 148,-68.5 148,-98.5"/>
<text text-anchor="start" x="8" y="-86.5" font-family="Helvetica,sans-Serif" font-size="10.00">fl::audio::SignalConditioner</text>
<text text-anchor="middle" x="74" y="-75.5" font-family="Helvetica,sans-Serif" font-size="10.00">::filterSpikes</text>
</a>
</g>
</g>
<!-- Node2 -->
<g id="Node000002" class="node">
<title>Node2</title>
<g id="a_Node000002"><a xlink:href="../../d2/d24/classfl_1_1vector_a51b9ac42dba7a7b4bd5a08a276634cef.html#a51b9ac42dba7a7b4bd5a08a276634cef" target="_top" xlink:title=" ">
<polygon fill="white" stroke="#666666" points="287,-167 198,-167 198,-148 287,-148 287,-167"/>
<text text-anchor="middle" x="242.5" y="-155" font-family="Helvetica,sans-Serif" font-size="10.00">fl::vector::clear</text>
</a>
</g>
</g>
<!-- Node1&#45;&gt;Node2 -->
<g id="edge1_Node000001_Node000002" class="edge">
<title>Node1&#45;&gt;Node2</title>
<g id="a_edge1_Node000001_Node000002"><a xlink:title=" ">
<path fill="none" stroke="#63b8ff" d="M101.27,-98.61C122.99,-110.71 154.87,-127.56 184,-139.5 188.48,-141.34 193.23,-143.1 197.99,-144.75"/>
<polygon fill="#63b8ff" stroke="#63b8ff" points="197.12,-148.15 207.71,-147.98 199.32,-141.51 197.12,-148.15"/>
</a>
</g>
</g>
<!-- Node3 -->
<g id="Node000003" class="node">
<title>Node3</title>
<g id="a_Node000003"><a xlink:href="../../d2/d24/classfl_1_1vector_ae9a8cea8d4b81d8f2f10a2b007ac2980.html#ae9a8cea8d4b81d8f2f10a2b007ac2980" target="_top" xlink:title=" ">
<polygon fill="white" stroke="#666666" points="301,-130 184,-130 184,-111 301,-111 301,-130"/>
<text text-anchor="middle" x="242.5" y="-118" font-family="Helvetica,sans-Serif" font-size="10.00">fl::vector::push_back</text>
</a>
</g>
</g>
<!-- Node1&#45;&gt;Node3 -->
<g id="edge2_Node000001_Node000003" class="edge">
<title>Node1&#45;&gt;Node3</title>
<g id="a_edge2_Node000001_Node000003"><a xlink:title=" ">
<path fill="none" stroke="#63b8ff" d="M142.72,-98.55C158.08,-101.96 174.18,-105.54 188.81,-108.79"/>
<polygon fill="#63b8ff" stroke="#63b8ff" points="188.16,-112.23 198.68,-110.98 189.67,-105.4 188.16,-112.23"/>
</a>
</g>
</g>
<!-- Node4 -->
<g id="Node000004" class="node">
<title>Node4</title>
<g id="a_Node000004"><a xlink:href="../../d2/d24/classfl_1_1vector_a305fb6473faab9c2798479c057a58d50.html#a305fb6473faab9c2798479c057a58d50" target="_top" xlink:title=" ">
<polygon fill="white" stroke="#666666" points="293.5,-93 191.5,-93 191.5,-74 293.5,-74 293.5,-93"/>
<text text-anchor="middle" x="242.5" y="-81" font-family="Helvetica,sans-Serif" font-size="10.00">fl::vector::reserve</text>
</a>
</g>
</g>
<!-- Node1&#45;&gt;Node4 -->
<g id="edge3_Node000001_Node000004" class="edge">
<title>Node1&#45;&gt;Node4</title>
<g id="a_edge3_Node000001_Node000004"><a xlink:title=" ">
<path fill="none" stroke="#63b8ff" d="M148.03,-83.5C159.15,-83.5 170.52,-83.5 181.33,-83.5"/>
<polygon fill="#63b8ff" stroke="#63b8ff" points="181.5,-87 191.5,-83.5 181.5,-80 181.5,-87"/>
</a>
</g>
</g>
<!-- Node5 -->
<g id="Node000005" class="node">
<title>Node5</title>
<g id="a_Node000005"><a xlink:href="../../d4/d36/namespacefl_a7028271728479d2b9330f545c776ca5b.html#a7028271728479d2b9330f545c776ca5b" target="_top" xlink:title="Sample a pixel from a 2D CRGB grid at floating&#45;point coordinates.">
<polygon fill="white" stroke="#666666" points="275,-56 210,-56 210,-37 275,-37 275,-56"/>
<text text-anchor="middle" x="242.5" y="-44" font-family="Helvetica,sans-Serif" font-size="10.00">fl::sample</text>
</a>
</g>
</g>
<!-- Node1&#45;&gt;Node5 -->
<g id="edge4_Node000001_Node000005" class="edge">
<title>Node1&#45;&gt;Node5</title>
<g id="a_edge4_Node000001_Node000005"><a xlink:title=" ">
<path fill="none" stroke="#63b8ff" d="M142.72,-68.45C162.14,-64.14 182.73,-59.56 200.05,-55.71"/>
<polygon fill="#63b8ff" stroke="#63b8ff" points="200.84,-59.12 209.84,-53.54 199.32,-52.29 200.84,-59.12"/>
</a>
</g>
</g>
<!-- Node12 -->
<g id="Node000012" class="node">
<title>Node12</title>
<g id="a_Node000012"><a xlink:href="../../d0/d08/classfl_1_1span_aef7ee7eb5254da1ba1eb4f3e0173d0ac.html#aef7ee7eb5254da1ba1eb4f3e0173d0ac" target="_top" xlink:title=" ">
<polygon fill="white" stroke="#666666" points="281,-19 204,-19 204,0 281,0 281,-19"/>
<text text-anchor="middle" x="242.5" y="-7" font-family="Helvetica,sans-Serif" font-size="10.00">fl::span::size</text>
</a>
</g>
</g>
<!-- Node1&#45;&gt;Node12 -->
<g id="edge12_Node000001_Node000012" class="edge">
<title>Node1&#45;&gt;Node12</title>
<g id="a_edge12_Node000001_Node000012"><a xlink:title=" ">
<path fill="none" stroke="#63b8ff" d="M102.25,-68.33C123.98,-56.58 155.42,-40.36 184,-28.5 189.16,-26.36 194.65,-24.29 200.12,-22.35"/>
<polygon fill="#63b8ff" stroke="#63b8ff" points="201.53,-25.57 209.86,-19.02 199.26,-18.95 201.53,-25.57"/>
</a>
</g>
</g>
<!-- Node6 -->
<g id="Node000006" class="node">
<title>Node6</title>
<g id="a_Node000006"><a xlink:href="../../d4/d36/namespacefl_ae42bfeb5fc989a01c398b85f4e3accca.html#ae42bfeb5fc989a01c398b85f4e3accca" target="_top" xlink:title="Bilinear interpolation sample from a 2D CRGB grid.">
<polygon fill="white" stroke="#666666" points="439.5,-74 337.5,-74 337.5,-55 439.5,-55 439.5,-74"/>
<text text-anchor="middle" x="388.5" y="-62" font-family="Helvetica,sans-Serif" font-size="10.00">fl::sampleBilinear</text>
</a>
</g>
</g>
<!-- Node5&#45;&gt;Node6 -->
<g id="edge5_Node000005_Node000006" class="edge">
<title>Node5&#45;&gt;Node6</title>
<g id="a_edge5_Node000005_Node000006"><a xlink:title=" ">
<path fill="none" stroke="#63b8ff" d="M275.1,-50.45C290.4,-52.36 309.29,-54.72 327.19,-56.96"/>
<polygon fill="#63b8ff" stroke="#63b8ff" points="326.94,-60.46 337.3,-58.22 327.81,-53.51 326.94,-60.46"/>
</a>
</g>
</g>
<!-- Node11 -->
<g id="Node000011" class="node">
<title>Node11</title>
<g id="a_Node000011"><a xlink:href="../../d4/d36/namespacefl_a119e769098c559cc0883bed762678d55.html#a119e769098c559cc0883bed762678d55" target="_top" xlink:title="Nearest&#45;neighbor sample from a 2D CRGB grid.">
<polygon fill="white" stroke="#666666" points="440,-37 337,-37 337,-18 440,-18 440,-37"/>
<text text-anchor="middle" x="388.5" y="-25" font-family="Helvetica,sans-Serif" font-size="10.00">fl::sampleNearest</text>
</a>
</g>
</g>
<!-- Node5&#45;&gt;Node11 -->
<g id="edge9_Node000005_Node000011" class="edge">
<title>Node5&#45;&gt;Node11</title>
<g id="a_edge9_Node000005_Node000011"><a xlink:title=" ">
<path fill="none" stroke="#63b8ff" d="M275.1,-42.33C290.19,-40.34 308.78,-37.89 326.46,-35.55"/>
<polygon fill="#63b8ff" stroke="#63b8ff" points="327.28,-38.98 336.73,-34.2 326.36,-32.04 327.28,-38.98"/>
</a>
</g>
</g>
<!-- Node7 -->
<g id="Node000007" class="node">
<title>Node7</title>
<g id="a_Node000007"><a xlink:href="../../da/dd6/structfl_1_1_c_r_g_b_a7e34886ec51c1aff8262123de5152437.html#a7e34886ec51c1aff8262123de5152437" target="_top" xlink:title=" ">
<polygon fill="#fff0f0" stroke="red" points="565,-111 476,-111 476,-92 565,-92 565,-111"/>
<text text-anchor="middle" x="520.5" y="-99" font-family="Helvetica,sans-Serif" font-size="10.00">fl::CRGB::blend</text>
</a>
</g>
</g>
<!-- Node6&#45;&gt;Node7 -->
<g id="edge6_Node000006_Node000007" class="edge">
<title>Node6&#45;&gt;Node7</title>
<g id="a_edge6_Node000006_Node000007"><a xlink:title=" ">
<path fill="none" stroke="#63b8ff" d="M422.98,-74.03C439.08,-78.61 458.58,-84.16 475.83,-89.07"/>
<polygon fill="#63b8ff" stroke="#63b8ff" points="475.11,-92.5 485.68,-91.88 477.02,-85.77 475.11,-92.5"/>
</a>
</g>
</g>
<!-- Node9 -->
<g id="Node000009" class="node">
<title>Node9</title>
<g id="a_Node000009"><a xlink:href="../../d4/d36/namespacefl_a19ba0dae8249e0cf164136846f85e909.html#a19ba0dae8249e0cf164136846f85e909" target="_top" xlink:title=" ">
<polygon fill="white" stroke="#666666" points="545.5,-37 495.5,-37 495.5,-18 545.5,-18 545.5,-37"/>
<text text-anchor="middle" x="520.5" y="-25" font-family="Helvetica,sans-Serif" font-size="10.00">fl::max</text>
</a>
</g>
</g>
<!-- Node6&#45;&gt;Node9 -->
<g id="edge7_Node000006_Node000009" class="edge">
<title>Node6&#45;&gt;Node9</title>
<g id="a_edge7_Node000006_Node000009"><a xlink:title=" ">
<path fill="none" stroke="#63b8ff" d="M422.98,-54.97C442.11,-49.53 466.05,-42.71 485.3,-37.23"/>
<polygon fill="#63b8ff" stroke="#63b8ff" points="486.51,-40.53 495.17,-34.43 484.59,-33.8 486.51,-40.53"/>
</a>
</g>
</g>
<!-- Node10 -->
<g id="Node000010" class="node">
<title>Node10</title>
<g id="a_Node000010"><a xlink:href="../../d4/d36/namespacefl_a0356f07fb7a8f25752385fd8208b47fb.html#a0356f07fb7a8f25752385fd8208b47fb" target="_top" xlink:title=" ">
<polygon fill="white" stroke="#666666" points="544,-74 497,-74 497,-55 544,-55 544,-74"/>
<text text-anchor="middle" x="520.5" y="-62" font-family="Helvetica,sans-Serif" font-size="10.00">fl::min</text>
</a>
</g>
</g>
<!-- Node6&#45;&gt;Node10 -->
<g id="edge8_Node000006_Node000010" class="edge">
<title>Node6&#45;&gt;Node10</title>
<g id="a_edge8_Node000006_Node000010"><a xlink:title=" ">
<path fill="none" stroke="#63b8ff" d="M439.76,-64.5C455.48,-64.5 472.4,-64.5 486.6,-64.5"/>
<polygon fill="#63b8ff" stroke="#63b8ff" points="486.86,-68 496.86,-64.5 486.86,-61 486.86,-68"/>
</a>
</g>
</g>
<!-- Node11&#45;&gt;Node9 -->
<g id="edge10_Node000011_Node000009" class="edge">
<title>Node11&#45;&gt;Node9</title>
<g id="a_edge10_Node000011_Node000009"><a xlink:title=" ">
<path fill="none" stroke="#63b8ff" d="M440.13,-27.5C455.25,-27.5 471.45,-27.5 485.25,-27.5"/>
<polygon fill="#63b8ff" stroke="#63b8ff" points="485.27,-31 495.27,-27.5 485.27,-24 485.27,-31"/>
</a>
</g>
</g>
<!-- Node11&#45;&gt;Node10 -->
<g id="edge11_Node000011_Node000010" class="edge">
<title>Node11&#45;&gt;Node10</title>
<g id="a_edge11_Node000011_Node000010"><a xlink:title=" ">
<path fill="none" stroke="#63b8ff" d="M422.98,-37.03C442.71,-42.64 467.55,-49.72 487.1,-55.28"/>
<polygon fill="#63b8ff" stroke="#63b8ff" points="486.2,-58.66 496.78,-58.03 488.12,-51.93 486.2,-58.66"/>
</a>
</g>
</g>
</g>
</svg>

<g id="navigator" transform="translate(0 0)" fill="#404254">
  <rect fill="#f2f5e9" fill-opacity="0.5" stroke="#606060" stroke-width=".5" x="0" y="0" width="60" height="60"/>
  <use id="zoomplus" xlink:href="#zoomPlus" x="17" y="9" onmousedown="handleZoom(evt,'in')"/>
  <use id="zoomminus" xlink:href="#zoomMin" x="42" y="9" onmousedown="handleZoom(evt,'out')"/>
  <use id="reset" xlink:href="#resetDef" x="30" y="36" onmousedown="handleReset()"/>
   <use id="arrowup" xlink:href="#arrowUp" x="0" y="0" onmousedown="handlePan(0,-1)"/>
  <use id="arrowright" xlink:href="#arrowRight" x="0" y="0" onmousedown="handlePan(1,0)"/>
  <use id="arrowdown" xlink:href="#arrowDown" x="0" y="0" onmousedown="handlePan(0,1)"/>
  <use id="arrowleft" xlink:href="#arrowLeft" x="0" y="0" onmousedown="handlePan(-1,0)"/>
</g>
<svg viewBox="0 0 15 15" width="100%" height="30px" preserveAspectRatio="xMaxYMin meet">
 <g id="arrow_out" transform="scale(0.3 0.3)">
  <a xlink:href="classfl_1_1audio_1_1_signal_conditioner_a86de39eef2b9b36265f3b7825d13b409_a86de39eef2b9b36265f3b7825d13b409_cgraph_org.svg" target="_base">
   <rect id="button" ry="5" rx="5" y="6" x="6" height="38" width="38"
        fill="#f2f5e9" fill-opacity="0.5" stroke="#606060" stroke-width="1.0"/>
   <path id="arrow"
     d="M 11.500037,31.436501 C 11.940474,20.09759 22.043105,11.32322 32.158766,21.979434 L 37.068811,17.246167 C 37.068811,17.246167 37.088388,32 37.088388,32 L 22.160133,31.978069 C 22.160133,31.978069 26.997745,27.140456 26.997745,27.140456 C 18.528582,18.264221 13.291696,25.230495 11.500037,31.436501 z"
     style="fill:#404040;"/>
  </a>
 </g>
</svg>

<style type='text/css'>
<![CDATA[
[data-mouse-over-selected='false'] { opacity: 0.7; }
[data-mouse-over-selected='true']  { opacity: 1.0; }
]]>
</style>
<script type="application/ecmascript"><![CDATA[
document.addEventListener('DOMContentLoaded', (event) => {
  highlightEdges();
  highlightAdjacentNodes();
});
]]></script>
</svg>
