<?xml version="1.0" encoding="UTF-8" standalone="no"?>
<!DOCTYPE svg PUBLIC "-//W3C//DTD SVG 1.1//EN"
 "http://www.w3.org/Graphics/SVG/1.1/DTD/svg11.dtd">
<!-- Generated by graphviz version 2.43.0 (0)
 -->
<!-- Title: fl::flat_set::find Pages: 1 -->
<!--zoomable 91 -->

<svg id="main" version="1.1" xmlns="http://www.w3.org/2000/svg" xmlns:xlink="http://www.w3.org/1999/xlink" xml:space="preserve" onload="init(evt)">

<style type="text/css"><![CDATA[
.node, .edge {opacity: 0.7;}
.node.selected, .edge.selected {opacity: 1;}
.edge:hover path { stroke: red; }
.edge:hover polygon { stroke: red; fill: red; }
]]></style>

<defs>
  <circle id="rim" cx="0" cy="0" r="7"/>
  <circle id="rim2" cx="0" cy="0" r="3.5"/>
  <g id="zoomPlus">
    <use xlink:href="#rim" fill="#404040"><set attributeName="fill" to="#808080" begin="zoomplus.mouseover" end="zoomplus.mouseout"/></use>
    <path d="M-4,0h8M0,-4v8" fill="none" stroke="white" stroke-width="1.5" pointer-events="none"/>
  </g>
  <g id="zoomMin">
    <use xlink:href="#rim" fill="#404040"><set attributeName="fill" to="#808080" begin="zoomminus.mouseover" end="zoomminus.mouseout"/></use>
    <path d="M-4,0h8" fill="none" stroke="white" stroke-width="1.5" pointer-events="none"/>
  </g>
  <g id="arrowUp" transform="translate(30 24)">
    <use xlink:href="#rim"/>
    <path pointer-events="none" fill="none" stroke="white" stroke-width="1.5" d="M0,-3.0v7 M-2.5,-0.5L0,-3.0L2.5,-0.5"/>
  </g>
  <g id="arrowRight" transform="rotate(90) translate(36 -43)">
    <use xlink:href="#rim"/>
    <path pointer-events="none" fill="none" stroke="white" stroke-width="1.5" d="M0,-3.0v7 M-2.5,-0.5L0,-3.0L2.5,-0.5"/>
  </g>
  <g id="arrowDown" transform="rotate(180) translate(-30 -48)">
    <use xlink:href="#rim"/>
    <path pointer-events="none" fill="none" stroke="white" stroke-width="1.5" d="M0,-3.0v7 M-2.5,-0.5L0,-3.0L2.5,-0.5"/>
  </g>
  <g id="arrowLeft" transform="rotate(270) translate(-36 17)">
    <use xlink:href="#rim"/>
    <path pointer-events="none" fill="none" stroke="white" stroke-width="1.5" d="M0,-3.0v7 M-2.5,-0.5L0,-3.0L2.5,-0.5"/>
  </g>
  <g id="resetDef">
    <use xlink:href="#rim2" fill="#404040"><set attributeName="fill" to="#808080" begin="reset.mouseover" end="reset.mouseout"/></use>
  </g>
</defs>
<script type="application/ecmascript">
var viewWidth = 615;
var viewHeight = 91;
var sectionId = 'dynsection-0';
</script>
<script type="application/ecmascript" xlink:href="../../svg.min.js"/>
<svg id="graph" class="graph">
<g id="viewport">
<title>fl::flat_set::find</title>
<!-- Node1 -->
<g id="Node000001" class="node">
<title>Node1</title>
<g id="a_Node000001"><a xlink:title=" ">
<polygon fill="#999999" stroke="#666666" points="89,-69.85 0,-69.85 0,-50.85 89,-50.85 89,-69.85"/>
<text text-anchor="middle" x="44.5" y="-57.85" font-family="Helvetica,sans-Serif" font-size="10.00">fl::flat_set::find</text>
</a>
</g>
</g>
<!-- Node2 -->
<g id="Node000002" class="node">
<title>Node2</title>
<g id="a_Node000002"><a xlink:href="../../de/d0b/classfl_1_1flat__set_a91bfec6b0bd945eb79bbac326b653e18.html#a91bfec6b0bd945eb79bbac326b653e18" target="_top" xlink:title=" ">
<polygon fill="white" stroke="#666666" points="607,-69.85 518,-69.85 518,-50.85 607,-50.85 607,-69.85"/>
<text text-anchor="middle" x="562.5" y="-57.85" font-family="Helvetica,sans-Serif" font-size="10.00">fl::flat_set::end</text>
</a>
</g>
</g>
<!-- Node1&#45;&gt;Node2 -->
<g id="edge1_Node000001_Node000002" class="edge">
<title>Node1&#45;&gt;Node2</title>
<g id="a_edge1_Node000001_Node000002"><a xlink:title=" ">
<path fill="none" stroke="#63b8ff" d="M89.18,-65.38C132.27,-70.08 200.08,-76.74 259,-79.35 358.04,-83.75 383.43,-84.95 482,-74.35 490.41,-73.45 499.28,-72.19 507.92,-70.8"/>
<polygon fill="#63b8ff" stroke="#63b8ff" points="508.63,-74.23 517.91,-69.11 507.47,-67.32 508.63,-74.23"/>
</a>
</g>
</g>
<!-- Node3 -->
<g id="Node000003" class="node">
<title>Node3</title>
<g id="a_Node000003"><a xlink:href="../../de/d0b/classfl_1_1flat__set_ae22ae86f9b854b0b7b48bde36d241b1f.html#ae22ae86f9b854b0b7b48bde36d241b1f" target="_top" xlink:title=" ">
<polygon fill="white" stroke="#666666" points="223,-54.35 125,-54.35 125,-24.35 223,-24.35 223,-54.35"/>
<text text-anchor="start" x="133" y="-42.35" font-family="Helvetica,sans-Serif" font-size="10.00">fl::flat_set::lower</text>
<text text-anchor="middle" x="174" y="-31.35" font-family="Helvetica,sans-Serif" font-size="10.00">_bound</text>
</a>
</g>
</g>
<!-- Node1&#45;&gt;Node3 -->
<g id="edge2_Node000001_Node000003" class="edge">
<title>Node1&#45;&gt;Node3</title>
<g id="a_edge2_Node000001_Node000003"><a xlink:title=" ">
<path fill="none" stroke="#63b8ff" d="M89.02,-53.18C97.32,-51.82 106.12,-50.37 114.79,-48.94"/>
<polygon fill="#63b8ff" stroke="#63b8ff" points="115.57,-52.36 124.87,-47.28 114.43,-45.45 115.57,-52.36"/>
</a>
</g>
</g>
<!-- Node4 -->
<g id="Node000004" class="node">
<title>Node4</title>
<g id="a_Node000004"><a xlink:href="../../de/d0b/classfl_1_1flat__set_a9d3a21414b2ef491ea69111acd555b98.html#a9d3a21414b2ef491ea69111acd555b98" target="_top" xlink:title=" ">
<polygon fill="white" stroke="#666666" points="357,-69.85 259,-69.85 259,-50.85 357,-50.85 357,-69.85"/>
<text text-anchor="middle" x="308" y="-57.85" font-family="Helvetica,sans-Serif" font-size="10.00">fl::flat_set::count</text>
</a>
</g>
</g>
<!-- Node3&#45;&gt;Node4 -->
<g id="edge3_Node000003_Node000004" class="edge">
<title>Node3&#45;&gt;Node4</title>
<g id="a_edge3_Node000003_Node000004"><a xlink:title=" ">
<path fill="none" stroke="#63b8ff" d="M223.03,-46.99C231.4,-48.32 240.19,-49.72 248.8,-51.09"/>
<polygon fill="#63b8ff" stroke="#63b8ff" points="248.36,-54.57 258.79,-52.68 249.46,-47.65 248.36,-54.57"/>
</a>
</g>
</g>
<!-- Node6 -->
<g id="Node000006" class="node">
<title>Node6</title>
<g id="a_Node000006"><a xlink:href="../../d4/d36/namespacefl_aa6f747fb354cae784bdd4c656cbdd9fb.html#aa6f747fb354cae784bdd4c656cbdd9fb" target="_top" xlink:title=" ">
<polygon fill="white" stroke="#666666" points="333,-32.85 283,-32.85 283,-13.85 333,-13.85 333,-32.85"/>
<text text-anchor="middle" x="308" y="-20.85" font-family="Helvetica,sans-Serif" font-size="10.00">fl::step</text>
</a>
</g>
</g>
<!-- Node3&#45;&gt;Node6 -->
<g id="edge8_Node000003_Node000006" class="edge">
<title>Node3&#45;&gt;Node6</title>
<g id="a_edge8_Node000003_Node000006"><a xlink:title=" ">
<path fill="none" stroke="#63b8ff" d="M223.03,-33.53C239.56,-31.53 257.72,-29.33 272.91,-27.48"/>
<polygon fill="#63b8ff" stroke="#63b8ff" points="273.39,-30.95 282.89,-26.27 272.54,-24 273.39,-30.95"/>
</a>
</g>
</g>
<!-- Node4&#45;&gt;Node2 -->
<g id="edge4_Node000004_Node000002" class="edge">
<title>Node4&#45;&gt;Node2</title>
<g id="a_edge4_Node000004_Node000002"><a xlink:title=" ">
<path fill="none" stroke="#63b8ff" d="M357.09,-60.35C400.1,-60.35 463.06,-60.35 507.72,-60.35"/>
<polygon fill="#63b8ff" stroke="#63b8ff" points="507.81,-63.85 517.81,-60.35 507.81,-56.85 507.81,-63.85"/>
</a>
</g>
</g>
<!-- Node5 -->
<g id="Node000005" class="node">
<title>Node5</title>
<g id="a_Node000005"><a xlink:href="../../de/d0b/classfl_1_1flat__set_ac09f2053ba39b0f62c9e4a406a878d04.html#ac09f2053ba39b0f62c9e4a406a878d04" target="_top" xlink:title=" ">
<polygon fill="white" stroke="#666666" points="482,-31.85 393,-31.85 393,-12.85 482,-12.85 482,-31.85"/>
<text text-anchor="middle" x="437.5" y="-19.85" font-family="Helvetica,sans-Serif" font-size="10.00">fl::flat_set::find</text>
</a>
</g>
</g>
<!-- Node4&#45;&gt;Node5 -->
<g id="edge5_Node000004_Node000005" class="edge">
<title>Node4&#45;&gt;Node5</title>
<g id="a_edge5_Node000004_Node000005"><a xlink:title=" ">
<path fill="none" stroke="#63b8ff" d="M341.17,-50.76C357.33,-45.95 377.11,-40.05 394.45,-34.88"/>
<polygon fill="#63b8ff" stroke="#63b8ff" points="395.75,-38.15 404.34,-31.94 393.75,-31.44 395.75,-38.15"/>
</a>
</g>
</g>
<!-- Node5&#45;&gt;Node2 -->
<g id="edge6_Node000005_Node000002" class="edge">
<title>Node5&#45;&gt;Node2</title>
<g id="a_edge6_Node000005_Node000002"><a xlink:title=" ">
<path fill="none" stroke="#63b8ff" d="M469.54,-31.94C484.98,-36.71 503.85,-42.54 520.47,-47.67"/>
<polygon fill="#63b8ff" stroke="#63b8ff" points="519.88,-51.16 530.47,-50.77 521.95,-44.47 519.88,-51.16"/>
</a>
</g>
</g>
<!-- Node5&#45;&gt;Node3 -->
<g id="edge7_Node000005_Node000003" class="edge">
<title>Node5&#45;&gt;Node3</title>
<g id="a_edge7_Node000005_Node000003"><a xlink:title=" ">
<path fill="none" stroke="#63b8ff" d="M401.85,-12.79C365.86,-4.27 308.05,5.46 259,-4.35 243.27,-7.5 226.8,-13.66 212.65,-19.94"/>
<polygon fill="#63b8ff" stroke="#63b8ff" points="210.87,-16.91 203.26,-24.28 213.81,-23.26 210.87,-16.91"/>
</a>
</g>
</g>
</g>
</svg>

<g id="navigator" transform="translate(0 0)" fill="#404254">
  <rect fill="#f2f5e9" fill-opacity="0.5" stroke="#606060" stroke-width=".5" x="0" y="0" width="60" height="60"/>
  <use id="zoomplus" xlink:href="#zoomPlus" x="17" y="9" onmousedown="handleZoom(evt,'in')"/>
  <use id="zoomminus" xlink:href="#zoomMin" x="42" y="9" onmousedown="handleZoom(evt,'out')"/>
  <use id="reset" xlink:href="#resetDef" x="30" y="36" onmousedown="handleReset()"/>
   <use id="arrowup" xlink:href="#arrowUp" x="0" y="0" onmousedown="handlePan(0,-1)"/>
  <use id="arrowright" xlink:href="#arrowRight" x="0" y="0" onmousedown="handlePan(1,0)"/>
  <use id="arrowdown" xlink:href="#arrowDown" x="0" y="0" onmousedown="handlePan(0,1)"/>
  <use id="arrowleft" xlink:href="#arrowLeft" x="0" y="0" onmousedown="handlePan(-1,0)"/>
</g>
<svg viewBox="0 0 15 15" width="100%" height="30px" preserveAspectRatio="xMaxYMin meet">
 <g id="arrow_out" transform="scale(0.3 0.3)">
  <a xlink:href="classfl_1_1flat__set_a06362ef6097292118395decf55e91bef_a06362ef6097292118395decf55e91bef_cgraph_org.svg" target="_base">
   <rect id="button" ry="5" rx="5" y="6" x="6" height="38" width="38"
        fill="#f2f5e9" fill-opacity="0.5" stroke="#606060" stroke-width="1.0"/>
   <path id="arrow"
     d="M 11.500037,31.436501 C 11.940474,20.09759 22.043105,11.32322 32.158766,21.979434 L 37.068811,17.246167 C 37.068811,17.246167 37.088388,32 37.088388,32 L 22.160133,31.978069 C 22.160133,31.978069 26.997745,27.140456 26.997745,27.140456 C 18.528582,18.264221 13.291696,25.230495 11.500037,31.436501 z"
     style="fill:#404040;"/>
  </a>
 </g>
</svg>

<style type='text/css'>
<![CDATA[
[data-mouse-over-selected='false'] { opacity: 0.7; }
[data-mouse-over-selected='true']  { opacity: 1.0; }
]]>
</style>
<script type="application/ecmascript"><![CDATA[
document.addEventListener('DOMContentLoaded', (event) => {
  highlightEdges();
  highlightAdjacentNodes();
});
]]></script>
</svg>
