<?xml version="1.0" encoding="UTF-8" standalone="no"?>
<!DOCTYPE svg PUBLIC "-//W3C//DTD SVG 1.1//EN"
 "http://www.w3.org/Graphics/SVG/1.1/DTD/svg11.dtd">
<!-- Generated by graphviz version 2.43.0 (0)
 -->
<!-- Title: third_party/cq_kernel/kiss_fft.h Pages: 1 -->
<!--zoomable 313 -->

<svg id="main" version="1.1" xmlns="http://www.w3.org/2000/svg" xmlns:xlink="http://www.w3.org/1999/xlink" xml:space="preserve" onload="init(evt)">

<style type="text/css"><![CDATA[
.node, .edge {opacity: 0.7;}
.node.selected, .edge.selected {opacity: 1;}
.edge:hover path { stroke: red; }
.edge:hover polygon { stroke: red; fill: red; }
]]></style>

<defs>
  <circle id="rim" cx="0" cy="0" r="7"/>
  <circle id="rim2" cx="0" cy="0" r="3.5"/>
  <g id="zoomPlus">
    <use xlink:href="#rim" fill="#404040"><set attributeName="fill" to="#808080" begin="zoomplus.mouseover" end="zoomplus.mouseout"/></use>
    <path d="M-4,0h8M0,-4v8" fill="none" stroke="white" stroke-width="1.5" pointer-events="none"/>
  </g>
  <g id="zoomMin">
    <use xlink:href="#rim" fill="#404040"><set attributeName="fill" to="#808080" begin="zoomminus.mouseover" end="zoomminus.mouseout"/></use>
    <path d="M-4,0h8" fill="none" stroke="white" stroke-width="1.5" pointer-events="none"/>
  </g>
  <g id="arrowUp" transform="translate(30 24)">
    <use xlink:href="#rim"/>
    <path pointer-events="none" fill="none" stroke="white" stroke-width="1.5" d="M0,-3.0v7 M-2.5,-0.5L0,-3.0L2.5,-0.5"/>
  </g>
  <g id="arrowRight" transform="rotate(90) translate(36 -43)">
    <use xlink:href="#rim"/>
    <path pointer-events="none" fill="none" stroke="white" stroke-width="1.5" d="M0,-3.0v7 M-2.5,-0.5L0,-3.0L2.5,-0.5"/>
  </g>
  <g id="arrowDown" transform="rotate(180) translate(-30 -48)">
    <use xlink:href="#rim"/>
    <path pointer-events="none" fill="none" stroke="white" stroke-width="1.5" d="M0,-3.0v7 M-2.5,-0.5L0,-3.0L2.5,-0.5"/>
  </g>
  <g id="arrowLeft" transform="rotate(270) translate(-36 17)">
    <use xlink:href="#rim"/>
    <path pointer-events="none" fill="none" stroke="white" stroke-width="1.5" d="M0,-3.0v7 M-2.5,-0.5L0,-3.0L2.5,-0.5"/>
  </g>
  <g id="resetDef">
    <use xlink:href="#rim2" fill="#404040"><set attributeName="fill" to="#808080" begin="reset.mouseover" end="reset.mouseout"/></use>
  </g>
</defs>
<script type="application/ecmascript">
var viewWidth = 668;
var viewHeight = 313;
var sectionId = 'dynsection-1';
</script>
<script type="application/ecmascript" xlink:href="../../svg.min.js"/>
<svg id="graph" class="graph">
<g id="viewport">
<title>third_party/cq_kernel/kiss_fft.h</title>
<!-- Node1 -->
<g id="Node000001" class="node">
<title>Node1</title>
<g id="a_Node000001"><a xlink:title=" ">
<polygon fill="#999999" stroke="#666666" points="502.5,-305 383.5,-305 383.5,-275 502.5,-275 502.5,-305"/>
<text text-anchor="start" x="391.5" y="-293" font-family="Helvetica,sans-Serif" font-size="10.00">third_party/cq_kernel</text>
<text text-anchor="middle" x="443" y="-282" font-family="Helvetica,sans-Serif" font-size="10.00">/kiss_fft.h</text>
</a>
</g>
</g>
<!-- Node2 -->
<g id="Node000002" class="node">
<title>Node2</title>
<g id="a_Node000002"><a xlink:href="../../d3/d74/__kiss__fft__guts_8h.html" target="_top" xlink:title=" ">
<polygon fill="white" stroke="#666666" points="571.5,-239 452.5,-239 452.5,-209 571.5,-209 571.5,-239"/>
<text text-anchor="start" x="460.5" y="-227" font-family="Helvetica,sans-Serif" font-size="10.00">third_party/cq_kernel</text>
<text text-anchor="middle" x="512" y="-216" font-family="Helvetica,sans-Serif" font-size="10.00">/_kiss_fft_guts.h</text>
</a>
</g>
</g>
<!-- Node1&#45;&gt;Node2 -->
<g id="edge1_Node000001_Node000002" class="edge">
<title>Node1&#45;&gt;Node2</title>
<g id="a_edge1_Node000001_Node000002"><a xlink:title=" ">
<path fill="none" stroke="#63b8ff" d="M465.72,-267.92C475.9,-258.49 487.63,-247.61 496.73,-239.16"/>
<polygon fill="#63b8ff" stroke="#63b8ff" points="463.26,-265.43 458.31,-274.8 468.03,-270.56 463.26,-265.43"/>
</a>
</g>
</g>
<!-- Node15 -->
<g id="Node000015" class="node">
<title>Node15</title>
<g id="a_Node000015"><a xlink:href="../../dc/da7/kiss__fftr_8h.html" target="_top" xlink:title=" ">
<polygon fill="white" stroke="#666666" points="434.5,-239 315.5,-239 315.5,-209 434.5,-209 434.5,-239"/>
<text text-anchor="start" x="323.5" y="-227" font-family="Helvetica,sans-Serif" font-size="10.00">third_party/cq_kernel</text>
<text text-anchor="middle" x="375" y="-216" font-family="Helvetica,sans-Serif" font-size="10.00">/kiss_fftr.h</text>
</a>
</g>
</g>
<!-- Node1&#45;&gt;Node15 -->
<g id="edge10_Node000001_Node000015" class="edge">
<title>Node1&#45;&gt;Node15</title>
<g id="a_edge10_Node000001_Node000015"><a xlink:title=" ">
<path fill="none" stroke="#63b8ff" d="M420.61,-267.92C410.58,-258.49 399.02,-247.61 390.05,-239.16"/>
<polygon fill="#63b8ff" stroke="#63b8ff" points="418.23,-270.49 427.91,-274.8 423.03,-265.39 418.23,-270.49"/>
</a>
</g>
</g>
<!-- Node3 -->
<g id="Node000003" class="node">
<title>Node3</title>
<g id="a_Node000003"><a xlink:href="../../d1/dda/cq__kernel_8h.html" target="_top" xlink:title=" ">
<polygon fill="white" stroke="#666666" points="434.5,-173 315.5,-173 315.5,-143 434.5,-143 434.5,-173"/>
<text text-anchor="start" x="323.5" y="-161" font-family="Helvetica,sans-Serif" font-size="10.00">third_party/cq_kernel</text>
<text text-anchor="middle" x="375" y="-150" font-family="Helvetica,sans-Serif" font-size="10.00">/cq_kernel.h</text>
</a>
</g>
</g>
<!-- Node2&#45;&gt;Node3 -->
<g id="edge2_Node000002_Node000003" class="edge">
<title>Node2&#45;&gt;Node3</title>
<g id="a_edge2_Node000002_Node000003"><a xlink:title=" ">
<path fill="none" stroke="#63b8ff" d="M472.72,-204.65C451.17,-194.58 424.88,-182.3 405,-173.01"/>
<polygon fill="#63b8ff" stroke="#63b8ff" points="471.39,-207.89 481.93,-208.95 474.36,-201.55 471.39,-207.89"/>
</a>
</g>
</g>
<!-- Node13 -->
<g id="Node000013" class="node">
<title>Node13</title>
<g id="a_Node000013"><a xlink:href="../../d0/d8f/kiss__fft_8cpp_8hpp.html" target="_top" xlink:title=" ">
<polygon fill="white" stroke="#666666" points="659.5,-101.5 540.5,-101.5 540.5,-71.5 659.5,-71.5 659.5,-101.5"/>
<text text-anchor="start" x="548.5" y="-89.5" font-family="Helvetica,sans-Serif" font-size="10.00">third_party/cq_kernel</text>
<text text-anchor="middle" x="600" y="-78.5" font-family="Helvetica,sans-Serif" font-size="10.00">/kiss_fft.cpp.hpp</text>
</a>
</g>
</g>
<!-- Node2&#45;&gt;Node13 -->
<g id="edge6_Node000002_Node000013" class="edge">
<title>Node2&#45;&gt;Node13</title>
<g id="a_edge6_Node000002_Node000013"><a xlink:title=" ">
<path fill="none" stroke="#63b8ff" d="M548.96,-203.46C560.82,-195.49 572.96,-185.24 581,-173 595.44,-151.01 599.04,-119.7 599.86,-101.7"/>
<polygon fill="#63b8ff" stroke="#63b8ff" points="547.01,-200.55 540.43,-208.85 550.75,-206.46 547.01,-200.55"/>
</a>
</g>
</g>
<!-- Node14 -->
<g id="Node000014" class="node">
<title>Node14</title>
<g id="a_Node000014"><a xlink:href="../../da/dad/kiss__fftr_8cpp_8hpp.html" target="_top" xlink:title=" ">
<polygon fill="white" stroke="#666666" points="571.5,-173 452.5,-173 452.5,-143 571.5,-143 571.5,-173"/>
<text text-anchor="start" x="460.5" y="-161" font-family="Helvetica,sans-Serif" font-size="10.00">third_party/cq_kernel</text>
<text text-anchor="middle" x="512" y="-150" font-family="Helvetica,sans-Serif" font-size="10.00">/kiss_fftr.cpp.hpp</text>
</a>
</g>
</g>
<!-- Node2&#45;&gt;Node14 -->
<g id="edge8_Node000002_Node000014" class="edge">
<title>Node2&#45;&gt;Node14</title>
<g id="a_edge8_Node000002_Node000014"><a xlink:title=" ">
<path fill="none" stroke="#63b8ff" d="M512,-198.54C512,-189.96 512,-180.61 512,-173.16"/>
<polygon fill="#63b8ff" stroke="#63b8ff" points="508.5,-198.8 512,-208.8 515.5,-198.8 508.5,-198.8"/>
</a>
</g>
</g>
<!-- Node4 -->
<g id="Node000004" class="node">
<title>Node4</title>
<g id="a_Node000004"><a xlink:href="../../d5/df1/fft__impl_8cpp_8hpp.html" target="_top" xlink:title=" ">
<polygon fill="#fff0f0" stroke="red" points="346,-96 198,-96 198,-77 346,-77 346,-96"/>
<text text-anchor="middle" x="272" y="-84" font-family="Helvetica,sans-Serif" font-size="10.00">fl/audio/fft/fft_impl.cpp.hpp</text>
</a>
</g>
</g>
<!-- Node3&#45;&gt;Node4 -->
<g id="edge3_Node000003_Node000004" class="edge">
<title>Node3&#45;&gt;Node4</title>
<g id="a_edge3_Node000003_Node000004"><a xlink:title=" ">
<path fill="none" stroke="#63b8ff" d="M345.64,-137.19C325.51,-123.6 299.8,-106.26 284.7,-96.07"/>
<polygon fill="#63b8ff" stroke="#63b8ff" points="343.91,-140.24 354.16,-142.94 347.82,-134.44 343.91,-140.24"/>
</a>
</g>
</g>
<!-- Node9 -->
<g id="Node000009" class="node">
<title>Node9</title>
<g id="a_Node000009"><a xlink:href="../../dc/dbc/cq__kernel_8cpp_8hpp.html" target="_top" xlink:title=" ">
<polygon fill="white" stroke="#666666" points="483.5,-101.5 364.5,-101.5 364.5,-71.5 483.5,-71.5 483.5,-101.5"/>
<text text-anchor="start" x="372.5" y="-89.5" font-family="Helvetica,sans-Serif" font-size="10.00">third_party/cq_kernel</text>
<text text-anchor="middle" x="424" y="-78.5" font-family="Helvetica,sans-Serif" font-size="10.00">/cq_kernel.cpp.hpp</text>
</a>
</g>
</g>
<!-- Node3&#45;&gt;Node9 -->
<g id="edge4_Node000003_Node000009" class="edge">
<title>Node3&#45;&gt;Node9</title>
<g id="a_edge4_Node000003_Node000009"><a xlink:title=" ">
<path fill="none" stroke="#63b8ff" d="M390.72,-134.71C398.39,-123.82 407.39,-111.05 414.1,-101.54"/>
<polygon fill="#63b8ff" stroke="#63b8ff" points="387.82,-132.75 384.92,-142.94 393.54,-136.78 387.82,-132.75"/>
</a>
</g>
</g>
<!-- Node10 -->
<g id="Node000010" class="node">
<title>Node10</title>
<g id="a_Node000010"><a xlink:href="../../df/d37/third__party_2cq__kernel_2__build_8cpp_8hpp.html" target="_top" xlink:title=" ">
<polygon fill="#fff0f0" stroke="red" points="571.5,-30 452.5,-30 452.5,0 571.5,0 571.5,-30"/>
<text text-anchor="start" x="460.5" y="-18" font-family="Helvetica,sans-Serif" font-size="10.00">third_party/cq_kernel</text>
<text text-anchor="middle" x="512" y="-7" font-family="Helvetica,sans-Serif" font-size="10.00">/_build.cpp.hpp</text>
</a>
</g>
</g>
<!-- Node9&#45;&gt;Node10 -->
<g id="edge5_Node000009_Node000010" class="edge">
<title>Node9&#45;&gt;Node10</title>
<g id="a_edge5_Node000009_Node000010"><a xlink:title=" ">
<path fill="none" stroke="#63b8ff" d="M449.8,-65.13C464.08,-53.85 481.46,-40.12 494.22,-30.04"/>
<polygon fill="#63b8ff" stroke="#63b8ff" points="447.49,-62.49 441.81,-71.44 451.83,-67.98 447.49,-62.49"/>
</a>
</g>
</g>
<!-- Node13&#45;&gt;Node10 -->
<g id="edge7_Node000013_Node000010" class="edge">
<title>Node13&#45;&gt;Node10</title>
<g id="a_edge7_Node000013_Node000010"><a xlink:title=" ">
<path fill="none" stroke="#63b8ff" d="M574.2,-65.13C559.92,-53.85 542.54,-40.12 529.78,-30.04"/>
<polygon fill="#63b8ff" stroke="#63b8ff" points="572.17,-67.98 582.19,-71.44 576.51,-62.49 572.17,-67.98"/>
</a>
</g>
</g>
<!-- Node14&#45;&gt;Node10 -->
<g id="edge9_Node000014_Node000010" class="edge">
<title>Node14&#45;&gt;Node10</title>
<g id="a_edge9_Node000014_Node000010"><a xlink:title=" ">
<path fill="none" stroke="#63b8ff" d="M512,-132.7C512,-103.22 512,-54.49 512,-30.4"/>
<polygon fill="#63b8ff" stroke="#63b8ff" points="508.5,-132.96 512,-142.96 515.5,-132.96 508.5,-132.96"/>
</a>
</g>
</g>
<!-- Node15&#45;&gt;Node3 -->
<g id="edge15_Node000015_Node000003" class="edge">
<title>Node15&#45;&gt;Node3</title>
<g id="a_edge15_Node000015_Node000003"><a xlink:title=" ">
<path fill="none" stroke="#63b8ff" d="M375,-198.54C375,-189.96 375,-180.61 375,-173.16"/>
<polygon fill="#63b8ff" stroke="#63b8ff" points="371.5,-198.8 375,-208.8 378.5,-198.8 371.5,-198.8"/>
</a>
</g>
</g>
<!-- Node15&#45;&gt;Node4 -->
<g id="edge14_Node000015_Node000004" class="edge">
<title>Node15&#45;&gt;Node4</title>
<g id="a_edge14_Node000015_Node000004"><a xlink:title=" ">
<path fill="none" stroke="#63b8ff" d="M339.97,-203.27C327.95,-195.14 315.21,-184.84 306,-173 287.17,-148.79 277.46,-112.8 273.78,-96.32"/>
<polygon fill="#63b8ff" stroke="#63b8ff" points="338.24,-206.32 348.55,-208.8 342.04,-200.44 338.24,-206.32"/>
</a>
</g>
</g>
<!-- Node15&#45;&gt;Node14 -->
<g id="edge16_Node000015_Node000014" class="edge">
<title>Node15&#45;&gt;Node14</title>
<g id="a_edge16_Node000015_Node000014"><a xlink:title=" ">
<path fill="none" stroke="#63b8ff" d="M414.28,-204.65C435.83,-194.58 462.12,-182.3 482,-173.01"/>
<polygon fill="#63b8ff" stroke="#63b8ff" points="412.64,-201.55 405.07,-208.95 415.61,-207.89 412.64,-201.55"/>
</a>
</g>
</g>
<!-- Node16 -->
<g id="Node000016" class="node">
<title>Node16</title>
<g id="a_Node000016"><a xlink:href="../../de/db2/fft__backend_8h.html" target="_top" xlink:title=" ">
<polygon fill="white" stroke="#666666" points="259,-167.5 125,-167.5 125,-148.5 259,-148.5 259,-167.5"/>
<text text-anchor="middle" x="192" y="-155.5" font-family="Helvetica,sans-Serif" font-size="10.00">fl/audio/fft/fft_backend.h</text>
</a>
</g>
</g>
<!-- Node15&#45;&gt;Node16 -->
<g id="edge11_Node000015_Node000016" class="edge">
<title>Node15&#45;&gt;Node16</title>
<g id="a_edge11_Node000015_Node000016"><a xlink:title=" ">
<path fill="none" stroke="#63b8ff" d="M325.18,-205.58C289.86,-193.23 244.01,-177.19 216.35,-167.52"/>
<polygon fill="#63b8ff" stroke="#63b8ff" points="324.25,-208.96 334.84,-208.95 326.56,-202.35 324.25,-208.96"/>
</a>
</g>
</g>
<!-- Node16&#45;&gt;Node4 -->
<g id="edge13_Node000016_Node000004" class="edge">
<title>Node16&#45;&gt;Node4</title>
<g id="a_edge13_Node000016_Node000004"><a xlink:title=" ">
<path fill="none" stroke="#63b8ff" d="M209.49,-141.8C225.62,-127.79 248.99,-107.49 262.11,-96.09"/>
<polygon fill="#63b8ff" stroke="#63b8ff" points="207.06,-139.28 201.81,-148.48 211.65,-144.56 207.06,-139.28"/>
</a>
</g>
</g>
<!-- Node17 -->
<g id="Node000017" class="node">
<title>Node17</title>
<g id="a_Node000017"><a xlink:href="../../d3/df2/_audio_fft_parity_8ino.html" target="_top" xlink:title="Sanity test for the ESP&#45;DSP real&#45;FFT backend in fl::audio::fft.">
<polygon fill="white" stroke="#666666" points="180,-107 0,-107 0,-66 180,-66 180,-107"/>
<text text-anchor="start" x="8" y="-95" font-family="Helvetica,sans-Serif" font-size="10.00">/home/runner/work/FastLED</text>
<text text-anchor="start" x="8" y="-84" font-family="Helvetica,sans-Serif" font-size="10.00">/FastLED/examples/AudioFftParity</text>
<text text-anchor="middle" x="90" y="-73" font-family="Helvetica,sans-Serif" font-size="10.00">/AudioFftParity.ino</text>
</a>
</g>
</g>
<!-- Node16&#45;&gt;Node17 -->
<g id="edge12_Node000016_Node000017" class="edge">
<title>Node16&#45;&gt;Node17</title>
<g id="a_edge12_Node000016_Node000017"><a xlink:title=" ">
<path fill="none" stroke="#63b8ff" d="M170.9,-142.62C155.85,-132.37 135.43,-118.45 118.87,-107.17"/>
<polygon fill="#63b8ff" stroke="#63b8ff" points="169.26,-145.74 179.49,-148.48 173.2,-139.95 169.26,-145.74"/>
</a>
</g>
</g>
</g>
</svg>

<g id="navigator" transform="translate(0 0)" fill="#404254">
  <rect fill="#f2f5e9" fill-opacity="0.5" stroke="#606060" stroke-width=".5" x="0" y="0" width="60" height="60"/>
  <use id="zoomplus" xlink:href="#zoomPlus" x="17" y="9" onmousedown="handleZoom(evt,'in')"/>
  <use id="zoomminus" xlink:href="#zoomMin" x="42" y="9" onmousedown="handleZoom(evt,'out')"/>
  <use id="reset" xlink:href="#resetDef" x="30" y="36" onmousedown="handleReset()"/>
   <use id="arrowup" xlink:href="#arrowUp" x="0" y="0" onmousedown="handlePan(0,-1)"/>
  <use id="arrowright" xlink:href="#arrowRight" x="0" y="0" onmousedown="handlePan(1,0)"/>
  <use id="arrowdown" xlink:href="#arrowDown" x="0" y="0" onmousedown="handlePan(0,1)"/>
  <use id="arrowleft" xlink:href="#arrowLeft" x="0" y="0" onmousedown="handlePan(-1,0)"/>
</g>
<svg viewBox="0 0 15 15" width="100%" height="30px" preserveAspectRatio="xMaxYMin meet">
 <g id="arrow_out" transform="scale(0.3 0.3)">
  <a xlink:href="kiss__fft_8h__dep__incl_org.svg" target="_base">
   <rect id="button" ry="5" rx="5" y="6" x="6" height="38" width="38"
        fill="#f2f5e9" fill-opacity="0.5" stroke="#606060" stroke-width="1.0"/>
   <path id="arrow"
     d="M 11.500037,31.436501 C 11.940474,20.09759 22.043105,11.32322 32.158766,21.979434 L 37.068811,17.246167 C 37.068811,17.246167 37.088388,32 37.088388,32 L 22.160133,31.978069 C 22.160133,31.978069 26.997745,27.140456 26.997745,27.140456 C 18.528582,18.264221 13.291696,25.230495 11.500037,31.436501 z"
     style="fill:#404040;"/>
  </a>
 </g>
</svg>

<style type='text/css'>
<![CDATA[
[data-mouse-over-selected='false'] { opacity: 0.7; }
[data-mouse-over-selected='true']  { opacity: 1.0; }
]]>
</style>
<script type="application/ecmascript"><![CDATA[
document.addEventListener('DOMContentLoaded', (event) => {
  highlightEdges();
  highlightAdjacentNodes();
});
]]></script>
</svg>
