<?xml version="1.0" encoding="UTF-8" standalone="no"?>
<!DOCTYPE svg PUBLIC "-//W3C//DTD SVG 1.1//EN"
 "http://www.w3.org/Graphics/SVG/1.1/DTD/svg11.dtd">
<!-- Generated by graphviz version 2.43.0 (0)
 -->
<!-- Title: fl::HeapVector::data Pages: 1 -->
<svg width="335pt" height="101pt"
 viewBox="0.00 0.00 335.00 101.00" xmlns="http://www.w3.org/2000/svg" xmlns:xlink="http://www.w3.org/1999/xlink">
<g id="graph0" class="graph" transform="scale(1 1) rotate(0) translate(4 97)">
<title>fl::HeapVector::data</title>
<!-- Node1 -->
<g id="Node000001" class="node">
<title>Node1</title>
<g id="a_Node000001"><a xlink:title=" ">
<polygon fill="#999999" stroke="#666666" points="327,-56 214,-56 214,-37 327,-37 327,-56"/>
<text text-anchor="middle" x="270.5" y="-44" font-family="Helvetica,sans-Serif" font-size="10.00">fl::HeapVector::data</text>
</a>
</g>
</g>
<!-- Node2 -->
<g id="Node000002" class="node">
<title>Node2</title>
<g id="a_Node000002"><a xlink:href="../../d2/d24/classfl_1_1_str_a434c107e7b7625e9a87d8ebf702d0f85.html#a434c107e7b7625e9a87d8ebf702d0f85" target="_top" xlink:title=" ">
<polygon fill="white" stroke="#666666" points="171,-93 87,-93 87,-74 171,-74 171,-93"/>
<text text-anchor="middle" x="129" y="-81" font-family="Helvetica,sans-Serif" font-size="10.00">fl::Str::append</text>
</a>
</g>
</g>
<!-- Node1&#45;&gt;Node2 -->
<g id="edge1_Node000001_Node000002" class="edge">
<title>Node1&#45;&gt;Node2</title>
<g id="a_edge1_Node000001_Node000002"><a xlink:title=" ">
<path fill="none" stroke="#63b8ff" d="M223.8,-58.62C205.14,-63.57 183.86,-69.22 166.29,-73.88"/>
<polygon fill="#63b8ff" stroke="#63b8ff" points="224.81,-61.98 233.58,-56.03 223.01,-55.21 224.81,-61.98"/>
</a>
</g>
</g>
<!-- Node3 -->
<g id="Node000003" class="node">
<title>Node3</title>
<g id="a_Node000003"><a xlink:href="../../d8/d2c/_fire2023_8ino_a51736e5cacd97906844354b613c686f6.html#a51736e5cacd97906844354b613c686f6" target="_top" xlink:title=" ">
<polygon fill="white" stroke="#666666" points="178,-56 80,-56 80,-37 178,-37 178,-56"/>
<text text-anchor="middle" x="129" y="-44" font-family="Helvetica,sans-Serif" font-size="10.00">makeScreenMap</text>
</a>
</g>
</g>
<!-- Node1&#45;&gt;Node3 -->
<g id="edge2_Node000001_Node000003" class="edge">
<title>Node1&#45;&gt;Node3</title>
<g id="a_edge2_Node000001_Node000003"><a xlink:title=" ">
<path fill="none" stroke="#63b8ff" d="M203.86,-46.5C195.19,-46.5 186.44,-46.5 178.14,-46.5"/>
<polygon fill="#63b8ff" stroke="#63b8ff" points="203.97,-50 213.97,-46.5 203.97,-43 203.97,-50"/>
</a>
</g>
</g>
<!-- Node5 -->
<g id="Node000005" class="node">
<title>Node5</title>
<g id="a_Node000005"><a xlink:href="../../d4/d06/curr_8h_a036e9fc7c47cebac438763eb5dd2b4ab.html#a036e9fc7c47cebac438763eb5dd2b4ab" target="_top" xlink:title=" ">
<polygon fill="white" stroke="#666666" points="178,-19 80,-19 80,0 178,0 178,-19"/>
<text text-anchor="middle" x="129" y="-7" font-family="Helvetica,sans-Serif" font-size="10.00">makeScreenMap</text>
</a>
</g>
</g>
<!-- Node1&#45;&gt;Node5 -->
<g id="edge4_Node000001_Node000005" class="edge">
<title>Node1&#45;&gt;Node5</title>
<g id="a_edge4_Node000001_Node000005"><a xlink:title=" ">
<path fill="none" stroke="#63b8ff" d="M223.8,-34.38C205.14,-29.43 183.86,-23.78 166.29,-19.12"/>
<polygon fill="#63b8ff" stroke="#63b8ff" points="223.01,-37.79 233.58,-36.97 224.81,-31.02 223.01,-37.79"/>
</a>
</g>
</g>
<!-- Node4 -->
<g id="Node000004" class="node">
<title>Node4</title>
<g id="a_Node000004"><a xlink:href="../../d7/da1/old_8h_a4fc01d736fe50cf5b977f755b675f11d.html#a4fc01d736fe50cf5b977f755b675f11d" target="_top" xlink:title=" ">
<polygon fill="white" stroke="#666666" points="44,-56 0,-56 0,-37 44,-37 44,-56"/>
<text text-anchor="middle" x="22" y="-44" font-family="Helvetica,sans-Serif" font-size="10.00">setup</text>
</a>
</g>
</g>
<!-- Node3&#45;&gt;Node4 -->
<g id="edge3_Node000003_Node000004" class="edge">
<title>Node3&#45;&gt;Node4</title>
<g id="a_edge3_Node000003_Node000004"><a xlink:title=" ">
<path fill="none" stroke="#63b8ff" d="M69.53,-46.5C60.47,-46.5 51.64,-46.5 44.16,-46.5"/>
<polygon fill="#63b8ff" stroke="#63b8ff" points="69.8,-50 79.8,-46.5 69.8,-43 69.8,-50"/>
</a>
</g>
</g>
</g>
</svg>
