<?xml version="1.0" encoding="UTF-8" standalone="no"?>
<!DOCTYPE svg PUBLIC "-//W3C//DTD SVG 1.1//EN"
 "http://www.w3.org/Graphics/SVG/1.1/DTD/svg11.dtd">
<!-- Generated by graphviz version 2.43.0 (0)
 -->
<!-- Title: fl::HeapVector::push_back Pages: 1 -->
<svg width="411pt" height="258pt"
 viewBox="0.00 0.00 411.00 258.00" xmlns="http://www.w3.org/2000/svg" xmlns:xlink="http://www.w3.org/1999/xlink">
<g id="graph0" class="graph" transform="scale(1 1) rotate(0) translate(4 254)">
<title>fl::HeapVector::push_back</title>
<!-- Node1 -->
<g id="Node000001" class="node">
<title>Node1</title>
<g id="a_Node000001"><a xlink:title=" ">
<polygon fill="#999999" stroke="#666666" points="403,-131.5 260,-131.5 260,-112.5 403,-112.5 403,-131.5"/>
<text text-anchor="middle" x="331.5" y="-119.5" font-family="Helvetica,sans-Serif" font-size="10.00">fl::HeapVector::push_back</text>
</a>
</g>
</g>
<!-- Node2 -->
<g id="Node000002" class="node">
<title>Node2</title>
<g id="a_Node000002"><a xlink:href="../../db/ddd/classfl_1_1_heap_vector_a356f77b569cbbc2eaa5178a450cf2ab4.html#a356f77b569cbbc2eaa5178a450cf2ab4" target="_top" xlink:title=" ">
<polygon fill="white" stroke="#666666" points="224,-250 80,-250 80,-220 224,-220 224,-250"/>
<text text-anchor="start" x="88" y="-238" font-family="Helvetica,sans-Serif" font-size="10.00">fl::HeapVector&lt; DrawItem</text>
<text text-anchor="middle" x="152" y="-227" font-family="Helvetica,sans-Serif" font-size="10.00"> &gt;::assign</text>
</a>
</g>
</g>
<!-- Node1&#45;&gt;Node2 -->
<g id="edge1_Node000001_Node000002" class="edge">
<title>Node1&#45;&gt;Node2</title>
<g id="a_edge1_Node000001_Node000002"><a xlink:title=" ">
<path fill="none" stroke="#63b8ff" d="M314.18,-139.04C294.45,-158.77 259.47,-191.11 224,-211 218.1,-214.31 211.66,-217.26 205.16,-219.87"/>
<polygon fill="#63b8ff" stroke="#63b8ff" points="316.91,-141.25 321.43,-131.66 311.92,-136.34 316.91,-141.25"/>
</a>
</g>
</g>
<!-- Node3 -->
<g id="Node000003" class="node">
<title>Node3</title>
<g id="a_Node000003"><a xlink:href="../../db/ddd/classfl_1_1_heap_vector_a5b5960cb27392c8baac6b5456f19b46b.html#a5b5960cb27392c8baac6b5456f19b46b" target="_top" xlink:title=" ">
<polygon fill="white" stroke="#666666" points="224,-202 80,-202 80,-172 224,-172 224,-202"/>
<text text-anchor="start" x="88" y="-190" font-family="Helvetica,sans-Serif" font-size="10.00">fl::HeapVector&lt; DrawItem</text>
<text text-anchor="middle" x="152" y="-179" font-family="Helvetica,sans-Serif" font-size="10.00"> &gt;::assign</text>
</a>
</g>
</g>
<!-- Node1&#45;&gt;Node3 -->
<g id="edge2_Node000001_Node000003" class="edge">
<title>Node1&#45;&gt;Node3</title>
<g id="a_edge2_Node000001_Node000003"><a xlink:title=" ">
<path fill="none" stroke="#63b8ff" d="M297.1,-135.27C276.18,-143.48 248.61,-154.11 224,-163 215.8,-165.96 207.03,-169.02 198.55,-171.92"/>
<polygon fill="#63b8ff" stroke="#63b8ff" points="298.47,-138.49 306.5,-131.57 295.91,-131.97 298.47,-138.49"/>
</a>
</g>
</g>
<!-- Node4 -->
<g id="Node000004" class="node">
<title>Node4</title>
<g id="a_Node000004"><a xlink:href="../../da/df1/xypaths_8cpp_a216df6dfd9fcc2f1644620313c78ce51.html#a216df6dfd9fcc2f1644620313c78ce51" target="_top" xlink:title=" ">
<polygon fill="white" stroke="#666666" points="196,-153.5 108,-153.5 108,-134.5 196,-134.5 196,-153.5"/>
<text text-anchor="middle" x="152" y="-141.5" font-family="Helvetica,sans-Serif" font-size="10.00">CreateXYPaths</text>
</a>
</g>
</g>
<!-- Node1&#45;&gt;Node4 -->
<g id="edge3_Node000001_Node000004" class="edge">
<title>Node1&#45;&gt;Node4</title>
<g id="a_edge3_Node000001_Node000004"><a xlink:title=" ">
<path fill="none" stroke="#63b8ff" d="M249.9,-131.99C231.35,-134.29 212.31,-136.65 196.08,-138.66"/>
<polygon fill="#63b8ff" stroke="#63b8ff" points="250.34,-135.46 259.84,-130.76 249.48,-128.51 250.34,-135.46"/>
</a>
</g>
</g>
<!-- Node5 -->
<g id="Node000005" class="node">
<title>Node5</title>
<g id="a_Node000005"><a xlink:href="../../db/ddd/classfl_1_1_heap_vector_a4a2c31638b5aa6bc3dac996285547e06.html#a4a2c31638b5aa6bc3dac996285547e06" target="_top" xlink:title=" ">
<polygon fill="white" stroke="#666666" points="224,-116 80,-116 80,-86 224,-86 224,-116"/>
<text text-anchor="start" x="88" y="-104" font-family="Helvetica,sans-Serif" font-size="10.00">fl::HeapVector&lt; DrawItem</text>
<text text-anchor="middle" x="152" y="-93" font-family="Helvetica,sans-Serif" font-size="10.00"> &gt;::insert</text>
</a>
</g>
</g>
<!-- Node1&#45;&gt;Node5 -->
<g id="edge4_Node000001_Node000005" class="edge">
<title>Node1&#45;&gt;Node5</title>
<g id="a_edge4_Node000001_Node000005"><a xlink:title=" ">
<path fill="none" stroke="#63b8ff" d="M249.88,-112.46C241.35,-111.45 232.71,-110.43 224.29,-109.43"/>
<polygon fill="#63b8ff" stroke="#63b8ff" points="249.5,-115.94 259.84,-113.64 250.32,-108.99 249.5,-115.94"/>
</a>
</g>
</g>
<!-- Node6 -->
<g id="Node000006" class="node">
<title>Node6</title>
<g id="a_Node000006"><a xlink:href="../../d8/d2c/_fire2023_8ino_a51736e5cacd97906844354b613c686f6.html#a51736e5cacd97906844354b613c686f6" target="_top" xlink:title=" ">
<polygon fill="white" stroke="#666666" points="201,-67.5 103,-67.5 103,-48.5 201,-48.5 201,-67.5"/>
<text text-anchor="middle" x="152" y="-55.5" font-family="Helvetica,sans-Serif" font-size="10.00">makeScreenMap</text>
</a>
</g>
</g>
<!-- Node1&#45;&gt;Node6 -->
<g id="edge5_Node000001_Node000006" class="edge">
<title>Node1&#45;&gt;Node6</title>
<g id="a_edge5_Node000001_Node000006"><a xlink:title=" ">
<path fill="none" stroke="#63b8ff" d="M300.91,-108.2C279.78,-98.66 250.51,-86.1 224,-77 213.98,-73.56 203,-70.36 192.73,-67.59"/>
<polygon fill="#63b8ff" stroke="#63b8ff" points="299.46,-111.38 310.01,-112.34 302.37,-105.01 299.46,-111.38"/>
</a>
</g>
</g>
<!-- Node8 -->
<g id="Node000008" class="node">
<title>Node8</title>
<g id="a_Node000008"><a xlink:href="../../db/ddd/classfl_1_1_heap_vector_a9fae0dadbb1a36e82e295fb70175a63a.html#a9fae0dadbb1a36e82e295fb70175a63a" target="_top" xlink:title=" ">
<polygon fill="white" stroke="#666666" points="224,-30 80,-30 80,0 224,0 224,-30"/>
<text text-anchor="start" x="88" y="-18" font-family="Helvetica,sans-Serif" font-size="10.00">fl::HeapVector&lt; DrawItem</text>
<text text-anchor="middle" x="152" y="-7" font-family="Helvetica,sans-Serif" font-size="10.00"> &gt;::resize</text>
</a>
</g>
</g>
<!-- Node1&#45;&gt;Node8 -->
<g id="edge7_Node000001_Node000008" class="edge">
<title>Node1&#45;&gt;Node8</title>
<g id="a_edge7_Node000001_Node000008"><a xlink:title=" ">
<path fill="none" stroke="#63b8ff" d="M312.93,-105.61C292.76,-87.51 258.07,-58.49 224,-40 217.22,-36.32 209.8,-33.01 202.39,-30.09"/>
<polygon fill="#63b8ff" stroke="#63b8ff" points="310.65,-108.27 320.4,-112.41 315.36,-103.09 310.65,-108.27"/>
</a>
</g>
</g>
<!-- Node7 -->
<g id="Node000007" class="node">
<title>Node7</title>
<g id="a_Node000007"><a xlink:href="../../d8/d2c/_fire2023_8ino_a4fc01d736fe50cf5b977f755b675f11d.html#a4fc01d736fe50cf5b977f755b675f11d" target="_top" xlink:title=" ">
<polygon fill="white" stroke="#666666" points="44,-67.5 0,-67.5 0,-48.5 44,-48.5 44,-67.5"/>
<text text-anchor="middle" x="22" y="-55.5" font-family="Helvetica,sans-Serif" font-size="10.00">setup</text>
</a>
</g>
</g>
<!-- Node6&#45;&gt;Node7 -->
<g id="edge6_Node000006_Node000007" class="edge">
<title>Node6&#45;&gt;Node7</title>
<g id="a_edge6_Node000006_Node000007"><a xlink:title=" ">
<path fill="none" stroke="#63b8ff" d="M92.84,-58C75.45,-58 57.49,-58 44.13,-58"/>
<polygon fill="#63b8ff" stroke="#63b8ff" points="92.97,-61.5 102.97,-58 92.97,-54.5 92.97,-61.5"/>
</a>
</g>
</g>
</g>
</svg>
