<?xml version="1.0" encoding="UTF-8" standalone="no"?>
<!DOCTYPE svg PUBLIC "-//W3C//DTD SVG 1.1//EN"
 "http://www.w3.org/Graphics/SVG/1.1/DTD/svg11.dtd">
<!-- Generated by graphviz version 2.43.0 (0)
 -->
<!-- Title: fl::HeapVector::pop_back Pages: 1 -->
<svg width="325pt" height="86pt"
 viewBox="0.00 0.00 325.00 86.00" xmlns="http://www.w3.org/2000/svg" xmlns:xlink="http://www.w3.org/1999/xlink">
<g id="graph0" class="graph" transform="scale(1 1) rotate(0) translate(4 82)">
<title>fl::HeapVector::pop_back</title>
<!-- Node1 -->
<g id="Node000001" class="node">
<title>Node1</title>
<g id="a_Node000001"><a xlink:title=" ">
<polygon fill="#999999" stroke="#666666" points="317,-48.5 180,-48.5 180,-29.5 317,-29.5 317,-48.5"/>
<text text-anchor="middle" x="248.5" y="-36.5" font-family="Helvetica,sans-Serif" font-size="10.00">fl::HeapVector::pop_back</text>
</a>
</g>
</g>
<!-- Node2 -->
<g id="Node000002" class="node">
<title>Node2</title>
<g id="a_Node000002"><a xlink:href="../../db/ddd/classfl_1_1_heap_vector_a6ba2193ee3a2e6f0e8c819bb4c16cc39.html#a6ba2193ee3a2e6f0e8c819bb4c16cc39" target="_top" xlink:title=" ">
<polygon fill="white" stroke="#666666" points="144,-78 0,-78 0,-48 144,-48 144,-78"/>
<text text-anchor="start" x="8" y="-66" font-family="Helvetica,sans-Serif" font-size="10.00">fl::HeapVector&lt; DrawItem</text>
<text text-anchor="middle" x="72" y="-55" font-family="Helvetica,sans-Serif" font-size="10.00"> &gt;::clear</text>
</a>
</g>
</g>
<!-- Node1&#45;&gt;Node2 -->
<g id="edge1_Node000001_Node000002" class="edge">
<title>Node1&#45;&gt;Node2</title>
<g id="a_edge1_Node000001_Node000002"><a xlink:title=" ">
<path fill="none" stroke="#63b8ff" d="M169.39,-49.74C161.02,-50.89 152.53,-52.06 144.24,-53.2"/>
<polygon fill="#63b8ff" stroke="#63b8ff" points="170.1,-53.18 179.53,-48.35 169.15,-46.24 170.1,-53.18"/>
</a>
</g>
</g>
<!-- Node3 -->
<g id="Node000003" class="node">
<title>Node3</title>
<g id="a_Node000003"><a xlink:href="../../db/ddd/classfl_1_1_heap_vector_a9fae0dadbb1a36e82e295fb70175a63a.html#a9fae0dadbb1a36e82e295fb70175a63a" target="_top" xlink:title=" ">
<polygon fill="white" stroke="#666666" points="144,-30 0,-30 0,0 144,0 144,-30"/>
<text text-anchor="start" x="8" y="-18" font-family="Helvetica,sans-Serif" font-size="10.00">fl::HeapVector&lt; DrawItem</text>
<text text-anchor="middle" x="72" y="-7" font-family="Helvetica,sans-Serif" font-size="10.00"> &gt;::resize</text>
</a>
</g>
</g>
<!-- Node1&#45;&gt;Node3 -->
<g id="edge2_Node000001_Node000003" class="edge">
<title>Node1&#45;&gt;Node3</title>
<g id="a_edge2_Node000001_Node000003"><a xlink:title=" ">
<path fill="none" stroke="#63b8ff" d="M169.39,-28.26C161.02,-27.11 152.53,-25.94 144.24,-24.8"/>
<polygon fill="#63b8ff" stroke="#63b8ff" points="169.15,-31.76 179.53,-29.65 170.1,-24.82 169.15,-31.76"/>
</a>
</g>
</g>
</g>
</svg>
