<?xml version="1.0" encoding="UTF-8" standalone="no"?>
<!DOCTYPE svg PUBLIC "-//W3C//DTD SVG 1.1//EN"
 "http://www.w3.org/Graphics/SVG/1.1/DTD/svg11.dtd">
<!-- Generated by graphviz version 2.43.0 (0)
 -->
<!-- Title: fl::IdTracker Pages: 1 -->
<svg width="359pt" height="280pt"
 viewBox="0.00 0.00 358.50 280.00" xmlns="http://www.w3.org/2000/svg" xmlns:xlink="http://www.w3.org/1999/xlink">

<svg id="main" version="1.1" xmlns="http://www.w3.org/2000/svg" xmlns:xlink="http://www.w3.org/1999/xlink" xml:space="preserve">

<style type="text/css"><![CDATA[
.node, .edge {opacity: 0.7;}
.node.selected, .edge.selected {opacity: 1;}
.edge:hover path { stroke: red; }
.edge:hover polygon { stroke: red; fill: red; }
]]></style>
<script type="application/ecmascript" xlink:href="../../svg.min.js"/>
<svg id="graph" class="graph">
<g id="graph0" class="graph" transform="scale(1 1) rotate(0) translate(4 276)">
<title>fl::IdTracker</title>
<!-- Node1 -->
<g id="Node000001" class="node">
<title>Node1</title>
<g id="a_Node000001"><a xlink:title="Thread&#45;safe ID tracker that maps void* pointers to unique integer IDs.">
<polygon fill="#999999" stroke="#666666" points="172.5,-19 100.5,-19 100.5,0 172.5,0 172.5,-19"/>
<text text-anchor="middle" x="136.5" y="-7" font-family="Helvetica,sans-Serif" font-size="10.00">fl::IdTracker</text>
</a>
</g>
</g>
<!-- Node2 -->
<g id="Node000002" class="node">
<title>Node2</title>
<g id="a_Node000002"><a xlink:href="../../df/d98/classfl_1_1_mutex_fake.html" target="_top" xlink:title=" ">
<polygon fill="white" stroke="#666666" points="125,-96 0,-96 0,-77 125,-77 125,-96"/>
<text text-anchor="middle" x="62.5" y="-84" font-family="Helvetica,sans-Serif" font-size="10.00">fl::MutexFake&lt; void &gt;</text>
</a>
</g>
</g>
<!-- Node2&#45;&gt;Node1 -->
<g id="edge1_Node000001_Node000002" class="edge">
<title>Node2&#45;&gt;Node1</title>
<g id="a_edge1_Node000001_Node000002"><a xlink:title=" ">
<path fill="none" stroke="#9a32cd" stroke-dasharray="5,2" d="M78.2,-69.59C93.45,-54.13 116.01,-31.27 128.11,-19"/>
<polygon fill="#9a32cd" stroke="#9a32cd" points="75.52,-67.32 70.99,-76.9 80.5,-72.24 75.52,-67.32"/>
</a>
</g>
<text text-anchor="middle" x="130.5" y="-40" font-family="Helvetica,sans-Serif" font-size="10.00" fill="grey"> mMutex</text>
</g>
<!-- Node3 -->
<g id="Node000003" class="node">
<title>Node3</title>
<g id="a_Node000003"><a xlink:href="../../df/d98/classfl_1_1_mutex_fake.html" target="_top" xlink:title=" ">
<polygon fill="white" stroke="#666666" points="117.5,-178.5 7.5,-178.5 7.5,-159.5 117.5,-159.5 117.5,-178.5"/>
<text text-anchor="middle" x="62.5" y="-166.5" font-family="Helvetica,sans-Serif" font-size="10.00">fl::MutexFake&lt; T &gt;</text>
</a>
</g>
</g>
<!-- Node3&#45;&gt;Node2 -->
<g id="edge2_Node000002_Node000003" class="edge">
<title>Node3&#45;&gt;Node2</title>
<g id="a_edge2_Node000002_Node000003"><a xlink:title=" ">
<path fill="none" stroke="orange" stroke-dasharray="5,2" d="M62.5,-149.17C62.5,-132.51 62.5,-108.93 62.5,-96.3"/>
<polygon fill="orange" stroke="orange" points="59,-149.39 62.5,-159.39 66,-149.39 59,-149.39"/>
</a>
</g>
<text text-anchor="middle" x="86" y="-128" font-family="Helvetica,sans-Serif" font-size="10.00" fill="grey"> &lt; void &gt;</text>
</g>
<!-- Node4 -->
<g id="Node000004" class="node">
<title>Node4</title>
<g id="a_Node000004"><a xlink:href="../../dc/de6/classfl_1_1_hash_map.html" target="_top" xlink:title=" ">
<polygon fill="white" stroke="#666666" points="282,-107 143,-107 143,-66 282,-66 282,-107"/>
<text text-anchor="start" x="151" y="-95" font-family="Helvetica,sans-Serif" font-size="10.00">fl::HashMap&lt; Key, T,</text>
<text text-anchor="start" x="151" y="-84" font-family="Helvetica,sans-Serif" font-size="10.00"> Hash, KeyEqual &gt;&lt; void</text>
<text text-anchor="middle" x="212.5" y="-73" font-family="Helvetica,sans-Serif" font-size="10.00"> *, int &gt;</text>
</a>
</g>
</g>
<!-- Node4&#45;&gt;Node1 -->
<g id="edge3_Node000001_Node000004" class="edge">
<title>Node4&#45;&gt;Node1</title>
<g id="a_edge3_Node000001_Node000004"><a xlink:title=" ">
<path fill="none" stroke="#9a32cd" stroke-dasharray="5,2" d="M185.04,-58.4C171.07,-44.62 155.05,-28.8 145.35,-19.24"/>
<polygon fill="#9a32cd" stroke="#9a32cd" points="182.96,-61.26 192.53,-65.79 187.87,-56.28 182.96,-61.26"/>
</a>
</g>
<text text-anchor="middle" x="208" y="-40" font-family="Helvetica,sans-Serif" font-size="10.00" fill="grey"> mPointerToId</text>
</g>
<!-- Node5 -->
<g id="Node000005" class="node">
<title>Node5</title>
<g id="a_Node000005"><a xlink:href="../../dc/de6/classfl_1_1_hash_map.html" target="_top" xlink:title=" ">
<polygon fill="white" stroke="#666666" points="272,-184 153,-184 153,-154 272,-154 272,-184"/>
<text text-anchor="start" x="161" y="-172" font-family="Helvetica,sans-Serif" font-size="10.00">fl::HashMap&lt; Key, T,</text>
<text text-anchor="middle" x="212.5" y="-161" font-family="Helvetica,sans-Serif" font-size="10.00"> Hash, KeyEqual &gt;</text>
</a>
</g>
</g>
<!-- Node5&#45;&gt;Node4 -->
<g id="edge4_Node000004_Node000005" class="edge">
<title>Node5&#45;&gt;Node4</title>
<g id="a_edge4_Node000004_Node000005"><a xlink:title=" ">
<path fill="none" stroke="orange" stroke-dasharray="5,2" d="M212.5,-143.94C212.5,-132.17 212.5,-118.19 212.5,-107.09"/>
<polygon fill="orange" stroke="orange" points="209,-143.98 212.5,-153.98 216,-143.98 209,-143.98"/>
</a>
</g>
<text text-anchor="middle" x="249.5" y="-128" font-family="Helvetica,sans-Serif" font-size="10.00" fill="grey"> &lt; void *, int &gt;</text>
</g>
<!-- Node6 -->
<g id="Node000006" class="node">
<title>Node6</title>
<g id="a_Node000006"><a xlink:href="../../dc/de6/classfl_1_1_hash_map.html" target="_top" xlink:title=" ">
<polygon fill="#fff0f0" stroke="red" points="283,-272 142,-272 142,-231 283,-231 283,-272"/>
<text text-anchor="start" x="150" y="-260" font-family="Helvetica,sans-Serif" font-size="10.00">fl::HashMap&lt; Key, T,</text>
<text text-anchor="start" x="150" y="-249" font-family="Helvetica,sans-Serif" font-size="10.00"> Hash, KeyEqual, INLINED</text>
<text text-anchor="middle" x="212.5" y="-238" font-family="Helvetica,sans-Serif" font-size="10.00">_COUNT &gt;</text>
</a>
</g>
</g>
<!-- Node6&#45;&gt;Node5 -->
<g id="edge5_Node000005_Node000006" class="edge">
<title>Node6&#45;&gt;Node5</title>
<g id="a_edge5_Node000005_Node000006"><a xlink:title=" ">
<path fill="none" stroke="orange" stroke-dasharray="5,2" d="M212.5,-220.26C212.5,-207.96 212.5,-194.33 212.5,-184.37"/>
<polygon fill="orange" stroke="orange" points="209,-220.6 212.5,-230.6 216,-220.6 209,-220.6"/>
</a>
</g>
<text text-anchor="middle" x="281.5" y="-205" font-family="Helvetica,sans-Serif" font-size="10.00" fill="grey"> &lt; Key, T, Hash, KeyEqual &gt;</text>
</g>
</g>
</svg>
</svg>

<style type='text/css'>
<![CDATA[
[data-mouse-over-selected='false'] { opacity: 0.7; }
[data-mouse-over-selected='true']  { opacity: 1.0; }
]]>
</style>
<script type="application/ecmascript"><![CDATA[
document.addEventListener('DOMContentLoaded', (event) => {
  highlightEdges();
  highlightAdjacentNodes();
});
]]></script>
</svg>
