<?xml version="1.0" encoding="UTF-8" standalone="no"?>
<!DOCTYPE svg PUBLIC "-//W3C//DTD SVG 1.1//EN"
 "http://www.w3.org/Graphics/SVG/1.1/DTD/svg11.dtd">
<!-- Generated by graphviz version 2.43.0 (0)
 -->
<!-- Title: fl::SPITransposer::transpose2 Pages: 1 -->
<svg width="414pt" height="200pt"
 viewBox="0.00 0.00 414.00 199.50" xmlns="http://www.w3.org/2000/svg" xmlns:xlink="http://www.w3.org/1999/xlink">

<svg id="main" version="1.1" xmlns="http://www.w3.org/2000/svg" xmlns:xlink="http://www.w3.org/1999/xlink" xml:space="preserve">

<style type="text/css"><![CDATA[
.node, .edge {opacity: 0.7;}
.node.selected, .edge.selected {opacity: 1;}
.edge:hover path { stroke: red; }
.edge:hover polygon { stroke: red; fill: red; }
]]></style>
<script type="application/ecmascript" xlink:href="../../svg.min.js"/>
<svg id="graph" class="graph">
<g id="graph0" class="graph" transform="scale(1 1) rotate(0) translate(4 195.5)">
<title>fl::SPITransposer::transpose2</title>
<!-- Node1 -->
<g id="Node000001" class="node">
<title>Node1</title>
<g id="a_Node000001"><a xlink:title="Transpose 2 lanes of data into interleaved dual&#45;SPI format.">
<polygon fill="#999999" stroke="#666666" points="102,-121 0,-121 0,-91 102,-91 102,-121"/>
<text text-anchor="start" x="8" y="-109" font-family="Helvetica,sans-Serif" font-size="10.00">fl::SPITransposer::</text>
<text text-anchor="middle" x="51" y="-98" font-family="Helvetica,sans-Serif" font-size="10.00">transpose2</text>
</a>
</g>
</g>
<!-- Node2 -->
<g id="Node000002" class="node">
<title>Node2</title>
<g id="a_Node000002"><a xlink:href="../../d2/d24/classfl_1_1vector_a14c21203a1f583636c5ef6fdb9a58d4b.html#a14c21203a1f583636c5ef6fdb9a58d4b" target="_top" xlink:title=" ">
<polygon fill="white" stroke="#666666" points="244,-191.5 157,-191.5 157,-172.5 244,-172.5 244,-191.5"/>
<text text-anchor="middle" x="200.5" y="-179.5" font-family="Helvetica,sans-Serif" font-size="10.00">fl::vector::data</text>
</a>
</g>
</g>
<!-- Node1&#45;&gt;Node2 -->
<g id="edge1_Node000001_Node000002" class="edge">
<title>Node1&#45;&gt;Node2</title>
<g id="a_edge1_Node000001_Node000002"><a xlink:title=" ">
<path fill="none" stroke="#63b8ff" d="M74.39,-121C91.41,-132.04 115.62,-146.97 138,-158 145.83,-161.86 154.45,-165.55 162.69,-168.83"/>
<polygon fill="#63b8ff" stroke="#63b8ff" points="161.53,-172.13 172.12,-172.47 164.06,-165.6 161.53,-172.13"/>
</a>
</g>
</g>
<!-- Node3 -->
<g id="Node000003" class="node">
<title>Node3</title>
<g id="a_Node000003"><a xlink:href="../../dd/dd8/classfl_1_1_optional_a1c6d194efbcfda4ab12e09305999b667.html#a1c6d194efbcfda4ab12e09305999b667" target="_top" xlink:title=" ">
<polygon fill="white" stroke="#666666" points="406,-134.5 299,-134.5 299,-115.5 406,-115.5 406,-134.5"/>
<text text-anchor="middle" x="352.5" y="-122.5" font-family="Helvetica,sans-Serif" font-size="10.00">fl::Optional::empty</text>
</a>
</g>
</g>
<!-- Node1&#45;&gt;Node3 -->
<g id="edge2_Node000001_Node000003" class="edge">
<title>Node1&#45;&gt;Node3</title>
<g id="a_edge2_Node000001_Node000003"><a xlink:title=" ">
<path fill="none" stroke="#63b8ff" d="M102.17,-119C113.85,-121.49 126.3,-123.72 138,-125 188.38,-130.5 245.85,-130.12 288.46,-128.58"/>
<polygon fill="#63b8ff" stroke="#63b8ff" points="288.83,-132.07 298.68,-128.18 288.55,-125.07 288.83,-132.07"/>
</a>
</g>
</g>
<!-- Node4 -->
<g id="Node000004" class="node">
<title>Node4</title>
<g id="a_Node000004"><a xlink:href="../../d3/dfa/classfl_1_1_s_p_i_transposer_ab6ee4d2f7057e6599a6bc4dd730d834a.html#ab6ee4d2f7057e6599a6bc4dd730d834a" target="_top" xlink:title="Get byte from lane at given index, handling padding automatically.">
<polygon fill="white" stroke="#666666" points="251.5,-78 149.5,-78 149.5,-48 251.5,-48 251.5,-78"/>
<text text-anchor="start" x="157.5" y="-66" font-family="Helvetica,sans-Serif" font-size="10.00">fl::SPITransposer::</text>
<text text-anchor="middle" x="200.5" y="-55" font-family="Helvetica,sans-Serif" font-size="10.00">getLaneByte</text>
</a>
</g>
</g>
<!-- Node1&#45;&gt;Node4 -->
<g id="edge3_Node000001_Node000004" class="edge">
<title>Node1&#45;&gt;Node4</title>
<g id="a_edge3_Node000001_Node000004"><a xlink:title=" ">
<path fill="none" stroke="#63b8ff" d="M102.35,-91.32C114.33,-87.83 127.24,-84.07 139.6,-80.46"/>
<polygon fill="#63b8ff" stroke="#63b8ff" points="140.76,-83.77 149.38,-77.61 138.8,-77.05 140.76,-83.77"/>
</a>
</g>
</g>
<!-- Node7 -->
<g id="Node000007" class="node">
<title>Node7</title>
<g id="a_Node000007"><a xlink:href="../../dd/dd8/classfl_1_1_optional_ad5f53bf55f59f43884a71b107dee14c7.html#ad5f53bf55f59f43884a71b107dee14c7" target="_top" xlink:title=" ">
<polygon fill="white" stroke="#666666" points="263,-115.5 138,-115.5 138,-96.5 263,-96.5 263,-115.5"/>
<text text-anchor="middle" x="200.5" y="-103.5" font-family="Helvetica,sans-Serif" font-size="10.00">fl::Optional::has_value</text>
</a>
</g>
</g>
<!-- Node1&#45;&gt;Node7 -->
<g id="edge6_Node000001_Node000007" class="edge">
<title>Node1&#45;&gt;Node7</title>
<g id="a_edge6_Node000001_Node000007"><a xlink:title=" ">
<path fill="none" stroke="#63b8ff" d="M102.35,-106C110.57,-106 119.22,-106 127.83,-106"/>
<polygon fill="#63b8ff" stroke="#63b8ff" points="127.89,-109.5 137.89,-106 127.89,-102.5 127.89,-109.5"/>
</a>
</g>
</g>
<!-- Node8 -->
<g id="Node000008" class="node">
<title>Node8</title>
<g id="a_Node000008"><a xlink:href="../../d4/d36/namespacefl_a3d80ce6ebc86eb5bc58e6d942d0a5295.html#a3d80ce6ebc86eb5bc58e6d942d0a5295" target="_top" xlink:title="Low&#45;level bit&#45;interleaving primitive for 2 lanes (ISR&#45;safe)">
<polygon fill="white" stroke="#666666" points="255,-30 146,-30 146,0 255,0 255,-30"/>
<text text-anchor="start" x="154" y="-18" font-family="Helvetica,sans-Serif" font-size="10.00">fl::transpose_2lane</text>
<text text-anchor="middle" x="200.5" y="-7" font-family="Helvetica,sans-Serif" font-size="10.00">_inline</text>
</a>
</g>
</g>
<!-- Node1&#45;&gt;Node8 -->
<g id="edge8_Node000001_Node000008" class="edge">
<title>Node1&#45;&gt;Node8</title>
<g id="a_edge8_Node000001_Node000008"><a xlink:title=" ">
<path fill="none" stroke="#63b8ff" d="M68.42,-90.84C85,-76.12 111.84,-53.87 138,-39 140.84,-37.39 143.81,-35.83 146.84,-34.35"/>
<polygon fill="#63b8ff" stroke="#63b8ff" points="148.46,-37.46 156.08,-30.11 145.54,-31.1 148.46,-37.46"/>
</a>
</g>
</g>
<!-- Node5 -->
<g id="Node000005" class="node">
<title>Node5</title>
<g id="a_Node000005"><a xlink:href="../../d0/d08/classfl_1_1span_a1e467b483bfd364c93ae966e5bd4e427.html#a1e467b483bfd364c93ae966e5bd4e427" target="_top" xlink:title=" ">
<polygon fill="white" stroke="#666666" points="397,-75.5 308,-75.5 308,-56.5 397,-56.5 397,-75.5"/>
<text text-anchor="middle" x="352.5" y="-63.5" font-family="Helvetica,sans-Serif" font-size="10.00">fl::span::empty</text>
</a>
</g>
</g>
<!-- Node4&#45;&gt;Node5 -->
<g id="edge4_Node000004_Node000005" class="edge">
<title>Node4&#45;&gt;Node5</title>
<g id="a_edge4_Node000004_Node000005"><a xlink:title=" ">
<path fill="none" stroke="#63b8ff" d="M251.87,-64.01C266.53,-64.3 282.6,-64.62 297.47,-64.92"/>
<polygon fill="#63b8ff" stroke="#63b8ff" points="297.48,-68.42 307.55,-65.12 297.62,-61.42 297.48,-68.42"/>
</a>
</g>
</g>
<!-- Node6 -->
<g id="Node000006" class="node">
<title>Node6</title>
<g id="a_Node000006"><a xlink:href="../../d0/d08/classfl_1_1span_aef7ee7eb5254da1ba1eb4f3e0173d0ac.html#aef7ee7eb5254da1ba1eb4f3e0173d0ac" target="_top" xlink:title=" ">
<polygon fill="white" stroke="#666666" points="391,-38.5 314,-38.5 314,-19.5 391,-19.5 391,-38.5"/>
<text text-anchor="middle" x="352.5" y="-26.5" font-family="Helvetica,sans-Serif" font-size="10.00">fl::span::size</text>
</a>
</g>
</g>
<!-- Node4&#45;&gt;Node6 -->
<g id="edge5_Node000004_Node000006" class="edge">
<title>Node4&#45;&gt;Node6</title>
<g id="a_edge5_Node000004_Node000006"><a xlink:title=" ">
<path fill="none" stroke="#63b8ff" d="M251.87,-51.58C268.64,-47.78 287.26,-43.56 303.83,-39.81"/>
<polygon fill="#63b8ff" stroke="#63b8ff" points="304.86,-43.16 313.84,-37.54 303.31,-36.33 304.86,-43.16"/>
</a>
</g>
</g>
<!-- Node7&#45;&gt;Node3 -->
<g id="edge7_Node000007_Node000003" class="edge">
<title>Node7&#45;&gt;Node3</title>
<g id="a_edge7_Node000007_Node000003"><a xlink:title=" ">
<path fill="none" stroke="#63b8ff" d="M263.38,-113.84C271.75,-114.9 280.36,-115.99 288.75,-117.05"/>
<polygon fill="#63b8ff" stroke="#63b8ff" points="288.49,-120.55 298.85,-118.33 289.37,-113.6 288.49,-120.55"/>
</a>
</g>
</g>
</g>
</svg>
</svg>

<style type='text/css'>
<![CDATA[
[data-mouse-over-selected='false'] { opacity: 0.7; }
[data-mouse-over-selected='true']  { opacity: 1.0; }
]]>
</style>
<script type="application/ecmascript"><![CDATA[
document.addEventListener('DOMContentLoaded', (event) => {
  highlightEdges();
  highlightAdjacentNodes();
});
]]></script>
</svg>
