<?xml version="1.0" encoding="UTF-8" standalone="no"?>
<!DOCTYPE svg PUBLIC "-//W3C//DTD SVG 1.1//EN"
 "http://www.w3.org/Graphics/SVG/1.1/DTD/svg11.dtd">
<!-- Generated by graphviz version 2.43.0 (0)
 -->
<!-- Title: fl::audio::fft::Bins::db Pages: 1 -->
<!--zoomable 184 -->

<svg id="main" version="1.1" xmlns="http://www.w3.org/2000/svg" xmlns:xlink="http://www.w3.org/1999/xlink" xml:space="preserve" onload="init(evt)">

<style type="text/css"><![CDATA[
.node, .edge {opacity: 0.7;}
.node.selected, .edge.selected {opacity: 1;}
.edge:hover path { stroke: red; }
.edge:hover polygon { stroke: red; fill: red; }
]]></style>

<defs>
  <circle id="rim" cx="0" cy="0" r="7"/>
  <circle id="rim2" cx="0" cy="0" r="3.5"/>
  <g id="zoomPlus">
    <use xlink:href="#rim" fill="#404040"><set attributeName="fill" to="#808080" begin="zoomplus.mouseover" end="zoomplus.mouseout"/></use>
    <path d="M-4,0h8M0,-4v8" fill="none" stroke="white" stroke-width="1.5" pointer-events="none"/>
  </g>
  <g id="zoomMin">
    <use xlink:href="#rim" fill="#404040"><set attributeName="fill" to="#808080" begin="zoomminus.mouseover" end="zoomminus.mouseout"/></use>
    <path d="M-4,0h8" fill="none" stroke="white" stroke-width="1.5" pointer-events="none"/>
  </g>
  <g id="arrowUp" transform="translate(30 24)">
    <use xlink:href="#rim"/>
    <path pointer-events="none" fill="none" stroke="white" stroke-width="1.5" d="M0,-3.0v7 M-2.5,-0.5L0,-3.0L2.5,-0.5"/>
  </g>
  <g id="arrowRight" transform="rotate(90) translate(36 -43)">
    <use xlink:href="#rim"/>
    <path pointer-events="none" fill="none" stroke="white" stroke-width="1.5" d="M0,-3.0v7 M-2.5,-0.5L0,-3.0L2.5,-0.5"/>
  </g>
  <g id="arrowDown" transform="rotate(180) translate(-30 -48)">
    <use xlink:href="#rim"/>
    <path pointer-events="none" fill="none" stroke="white" stroke-width="1.5" d="M0,-3.0v7 M-2.5,-0.5L0,-3.0L2.5,-0.5"/>
  </g>
  <g id="arrowLeft" transform="rotate(270) translate(-36 17)">
    <use xlink:href="#rim"/>
    <path pointer-events="none" fill="none" stroke="white" stroke-width="1.5" d="M0,-3.0v7 M-2.5,-0.5L0,-3.0L2.5,-0.5"/>
  </g>
  <g id="resetDef">
    <use xlink:href="#rim2" fill="#404040"><set attributeName="fill" to="#808080" begin="reset.mouseover" end="reset.mouseout"/></use>
  </g>
</defs>
<script type="application/ecmascript">
var viewWidth = 611;
var viewHeight = 184;
var sectionId = 'dynsection-0';
</script>
<script type="application/ecmascript" xlink:href="../../svg.min.js"/>
<svg id="graph" class="graph">
<g id="viewport">
<title>fl::audio::fft::Bins::db</title>
<!-- Node1 -->
<g id="Node000001" class="node">
<title>Node1</title>
<g id="a_Node000001"><a xlink:title=" ">
<polygon fill="#999999" stroke="#666666" points="117,-67.5 0,-67.5 0,-48.5 117,-48.5 117,-67.5"/>
<text text-anchor="middle" x="58.5" y="-55.5" font-family="Helvetica,sans-Serif" font-size="10.00">fl::audio::fft::Bins::db</text>
</a>
</g>
</g>
<!-- Node2 -->
<g id="Node000002" class="node">
<title>Node2</title>
<g id="a_Node000002"><a xlink:href="../../da/d27/classfl_1_1audio_1_1fft_1_1_float_vector_pool_ae9e0a949ca5ed56a4f007e4cb0b06a57.html#ae9e0a949ca5ed56a4f007e4cb0b06a57" target="_top" xlink:title=" ">
<polygon fill="white" stroke="#666666" points="287,-128 153,-128 153,-98 287,-98 287,-128"/>
<text text-anchor="start" x="161" y="-116" font-family="Helvetica,sans-Serif" font-size="10.00">fl::audio::fft::FloatVector</text>
<text text-anchor="middle" x="220" y="-105" font-family="Helvetica,sans-Serif" font-size="10.00">Pool::acquire</text>
</a>
</g>
</g>
<!-- Node1&#45;&gt;Node2 -->
<g id="edge1_Node000001_Node000002" class="edge">
<title>Node1&#45;&gt;Node2</title>
<g id="a_edge1_Node000001_Node000002"><a xlink:title=" ">
<path fill="none" stroke="#63b8ff" d="M87.28,-67.58C108.9,-75.04 139.55,-85.6 165.85,-94.67"/>
<polygon fill="#63b8ff" stroke="#63b8ff" points="164.72,-97.98 175.31,-97.93 167,-91.37 164.72,-97.98"/>
</a>
</g>
</g>
<!-- Node6 -->
<g id="Node000006" class="node">
<title>Node6</title>
<g id="a_Node000006"><a xlink:href="../../d4/d36/namespacefl_a59b2ca835c8aaa9e67a6dce355013b3d.html#a59b2ca835c8aaa9e67a6dce355013b3d" target="_top" xlink:title=" ">
<polygon fill="white" stroke="#666666" points="249.5,-67.5 190.5,-67.5 190.5,-48.5 249.5,-48.5 249.5,-67.5"/>
<text text-anchor="middle" x="220" y="-55.5" font-family="Helvetica,sans-Serif" font-size="10.00">fl::log10f</text>
</a>
</g>
</g>
<!-- Node1&#45;&gt;Node6 -->
<g id="edge5_Node000001_Node000006" class="edge">
<title>Node1&#45;&gt;Node6</title>
<g id="a_edge5_Node000001_Node000006"><a xlink:title=" ">
<path fill="none" stroke="#63b8ff" d="M117.08,-58C138.01,-58 161.16,-58 180.09,-58"/>
<polygon fill="#63b8ff" stroke="#63b8ff" points="180.14,-61.5 190.14,-58 180.14,-54.5 180.14,-61.5"/>
</a>
</g>
</g>
<!-- Node9 -->
<g id="Node000009" class="node">
<title>Node9</title>
<g id="a_Node000009"><a xlink:href="../../d6/d86/classfl_1_1audio_1_1fft_1_1_bins_a164813bb2bd2b0ed13e5e992915c617f.html#a164813bb2bd2b0ed13e5e992915c617f" target="_top" xlink:title=" ">
<polygon fill="white" stroke="#666666" points="269.5,-30 170.5,-30 170.5,0 269.5,0 269.5,-30"/>
<text text-anchor="start" x="178.5" y="-18" font-family="Helvetica,sans-Serif" font-size="10.00">fl::audio::fft::Bins</text>
<text text-anchor="middle" x="220" y="-7" font-family="Helvetica,sans-Serif" font-size="10.00">::pool</text>
</a>
</g>
</g>
<!-- Node1&#45;&gt;Node9 -->
<g id="edge8_Node000001_Node000009" class="edge">
<title>Node1&#45;&gt;Node9</title>
<g id="a_edge8_Node000001_Node000009"><a xlink:title=" ">
<path fill="none" stroke="#63b8ff" d="M94.9,-48.46C114.16,-43.26 138.48,-36.71 160.48,-30.78"/>
<polygon fill="#63b8ff" stroke="#63b8ff" points="161.65,-34.09 170.39,-28.1 159.83,-27.33 161.65,-34.09"/>
</a>
</g>
</g>
<!-- Node3 -->
<g id="Node000003" class="node">
<title>Node3</title>
<g id="a_Node000003"><a xlink:href="../../d2/d24/classfl_1_1vector_a51b9ac42dba7a7b4bd5a08a276634cef.html#a51b9ac42dba7a7b4bd5a08a276634cef" target="_top" xlink:title=" ">
<polygon fill="white" stroke="#666666" points="428.5,-175.5 339.5,-175.5 339.5,-156.5 428.5,-156.5 428.5,-175.5"/>
<text text-anchor="middle" x="384" y="-163.5" font-family="Helvetica,sans-Serif" font-size="10.00">fl::vector::clear</text>
</a>
</g>
</g>
<!-- Node2&#45;&gt;Node3 -->
<g id="edge2_Node000002_Node000003" class="edge">
<title>Node2&#45;&gt;Node3</title>
<g id="a_edge2_Node000002_Node000003"><a xlink:title=" ">
<path fill="none" stroke="#63b8ff" d="M263.56,-128.02C281.8,-134.35 303.39,-141.7 323,-148 328.64,-149.81 334.59,-151.67 340.47,-153.47"/>
<polygon fill="#63b8ff" stroke="#63b8ff" points="339.65,-156.87 350.23,-156.42 341.68,-150.17 339.65,-156.87"/>
</a>
</g>
</g>
<!-- Node4 -->
<g id="Node000004" class="node">
<title>Node4</title>
<g id="a_Node000004"><a xlink:href="../../da/d3c/namespacefl_1_1fl_a14315b21314f12a4c40dde841fcc4c8a.html#a14315b21314f12a4c40dde841fcc4c8a" target="_top" xlink:title=" ">
<polygon fill="white" stroke="#666666" points="418,-138.5 350,-138.5 350,-119.5 418,-119.5 418,-138.5"/>
<text text-anchor="middle" x="384" y="-126.5" font-family="Helvetica,sans-Serif" font-size="10.00">fl::fl::move</text>
</a>
</g>
</g>
<!-- Node2&#45;&gt;Node4 -->
<g id="edge3_Node000002_Node000004" class="edge">
<title>Node2&#45;&gt;Node4</title>
<g id="a_edge3_Node000002_Node000004"><a xlink:title=" ">
<path fill="none" stroke="#63b8ff" d="M287.36,-119.55C304.99,-121.3 323.58,-123.13 339.64,-124.72"/>
<polygon fill="#63b8ff" stroke="#63b8ff" points="339.49,-128.22 349.78,-125.72 340.18,-121.25 339.49,-128.22"/>
</a>
</g>
</g>
<!-- Node5 -->
<g id="Node000005" class="node">
<title>Node5</title>
<g id="a_Node000005"><a xlink:href="../../d2/d24/classfl_1_1vector_a305fb6473faab9c2798479c057a58d50.html#a305fb6473faab9c2798479c057a58d50" target="_top" xlink:title=" ">
<polygon fill="white" stroke="#666666" points="435,-101.5 333,-101.5 333,-82.5 435,-82.5 435,-101.5"/>
<text text-anchor="middle" x="384" y="-89.5" font-family="Helvetica,sans-Serif" font-size="10.00">fl::vector::reserve</text>
</a>
</g>
</g>
<!-- Node2&#45;&gt;Node5 -->
<g id="edge4_Node000002_Node000005" class="edge">
<title>Node2&#45;&gt;Node5</title>
<g id="a_edge4_Node000002_Node000005"><a xlink:title=" ">
<path fill="none" stroke="#63b8ff" d="M287.36,-104.4C299.12,-102.87 311.3,-101.29 322.88,-99.79"/>
<polygon fill="#63b8ff" stroke="#63b8ff" points="323.4,-103.26 332.87,-98.5 322.5,-96.31 323.4,-103.26"/>
</a>
</g>
</g>
<!-- Node7 -->
<g id="Node000007" class="node">
<title>Node7</title>
<g id="a_Node000007"><a xlink:href="../../d4/d36/namespacefl_a4a285f39138edafa16b69127b78d2b85.html#a4a285f39138edafa16b69127b78d2b85" target="_top" xlink:title=" ">
<polygon fill="white" stroke="#666666" points="439,-64.5 329,-64.5 329,-45.5 439,-45.5 439,-64.5"/>
<text text-anchor="middle" x="384" y="-52.5" font-family="Helvetica,sans-Serif" font-size="10.00">fl::log10_impl_float</text>
</a>
</g>
</g>
<!-- Node6&#45;&gt;Node7 -->
<g id="edge6_Node000006_Node000007" class="edge">
<title>Node6&#45;&gt;Node7</title>
<g id="a_edge6_Node000006_Node000007"><a xlink:title=" ">
<path fill="none" stroke="#63b8ff" d="M249.59,-57.47C268.74,-57.12 294.75,-56.63 318.72,-56.19"/>
<polygon fill="#63b8ff" stroke="#63b8ff" points="318.9,-59.69 328.84,-56 318.77,-52.69 318.9,-59.69"/>
</a>
</g>
</g>
<!-- Node8 -->
<g id="Node000008" class="node">
<title>Node8</title>
<g id="a_Node000008"><a xlink:href="../../df/d9e/namespacefl_1_1detail_aefd5cee30614d18a52adbf22fc83f4a8.html#aefd5cee30614d18a52adbf22fc83f4a8" target="_top" xlink:title=" ">
<polygon fill="white" stroke="#666666" points="603,-64.5 481,-64.5 481,-45.5 603,-45.5 603,-64.5"/>
<text text-anchor="middle" x="542" y="-52.5" font-family="Helvetica,sans-Serif" font-size="10.00">fl::detail::log_natural_</text>
</a>
</g>
</g>
<!-- Node7&#45;&gt;Node8 -->
<g id="edge7_Node000007_Node000008" class="edge">
<title>Node7&#45;&gt;Node8</title>
<g id="a_edge7_Node000007_Node000008"><a xlink:title=" ">
<path fill="none" stroke="#63b8ff" d="M439.12,-55C449.33,-55 460.13,-55 470.75,-55"/>
<polygon fill="#63b8ff" stroke="#63b8ff" points="470.84,-58.5 480.84,-55 470.84,-51.5 470.84,-58.5"/>
</a>
</g>
</g>
<!-- Node10 -->
<g id="Node000010" class="node">
<title>Node10</title>
<g id="a_Node000010"><a xlink:href="../../d9/d5b/classfl_1_1_singleton_a47fdc044003ec27f9e9833f7f5418e01.html#a47fdc044003ec27f9e9833f7f5418e01" target="_top" xlink:title=" ">
<polygon fill="white" stroke="#666666" points="445,-24.5 323,-24.5 323,-5.5 445,-5.5 445,-24.5"/>
<text text-anchor="middle" x="384" y="-12.5" font-family="Helvetica,sans-Serif" font-size="10.00">fl::Singleton::instance</text>
</a>
</g>
</g>
<!-- Node9&#45;&gt;Node10 -->
<g id="edge9_Node000009_Node000010" class="edge">
<title>Node9&#45;&gt;Node10</title>
<g id="a_edge9_Node000009_Node000010"><a xlink:title=" ">
<path fill="none" stroke="#63b8ff" d="M269.61,-15C283.24,-15 298.33,-15 312.94,-15"/>
<polygon fill="#63b8ff" stroke="#63b8ff" points="312.96,-18.5 322.96,-15 312.96,-11.5 312.96,-18.5"/>
</a>
</g>
</g>
</g>
</svg>

<g id="navigator" transform="translate(0 0)" fill="#404254">
  <rect fill="#f2f5e9" fill-opacity="0.5" stroke="#606060" stroke-width=".5" x="0" y="0" width="60" height="60"/>
  <use id="zoomplus" xlink:href="#zoomPlus" x="17" y="9" onmousedown="handleZoom(evt,'in')"/>
  <use id="zoomminus" xlink:href="#zoomMin" x="42" y="9" onmousedown="handleZoom(evt,'out')"/>
  <use id="reset" xlink:href="#resetDef" x="30" y="36" onmousedown="handleReset()"/>
   <use id="arrowup" xlink:href="#arrowUp" x="0" y="0" onmousedown="handlePan(0,-1)"/>
  <use id="arrowright" xlink:href="#arrowRight" x="0" y="0" onmousedown="handlePan(1,0)"/>
  <use id="arrowdown" xlink:href="#arrowDown" x="0" y="0" onmousedown="handlePan(0,1)"/>
  <use id="arrowleft" xlink:href="#arrowLeft" x="0" y="0" onmousedown="handlePan(-1,0)"/>
</g>
<svg viewBox="0 0 15 15" width="100%" height="30px" preserveAspectRatio="xMaxYMin meet">
 <g id="arrow_out" transform="scale(0.3 0.3)">
  <a xlink:href="classfl_1_1audio_1_1fft_1_1_bins_a4df193ccc4b6e7e3453cbe3aca83b5c9_a4df193ccc4b6e7e3453cbe3aca83b5c9_cgraph_org.svg" target="_base">
   <rect id="button" ry="5" rx="5" y="6" x="6" height="38" width="38"
        fill="#f2f5e9" fill-opacity="0.5" stroke="#606060" stroke-width="1.0"/>
   <path id="arrow"
     d="M 11.500037,31.436501 C 11.940474,20.09759 22.043105,11.32322 32.158766,21.979434 L 37.068811,17.246167 C 37.068811,17.246167 37.088388,32 37.088388,32 L 22.160133,31.978069 C 22.160133,31.978069 26.997745,27.140456 26.997745,27.140456 C 18.528582,18.264221 13.291696,25.230495 11.500037,31.436501 z"
     style="fill:#404040;"/>
  </a>
 </g>
</svg>

<style type='text/css'>
<![CDATA[
[data-mouse-over-selected='false'] { opacity: 0.7; }
[data-mouse-over-selected='true']  { opacity: 1.0; }
]]>
</style>
<script type="application/ecmascript"><![CDATA[
document.addEventListener('DOMContentLoaded', (event) => {
  highlightEdges();
  highlightAdjacentNodes();
});
]]></script>
</svg>
