<?xml version="1.0" encoding="UTF-8" standalone="no"?>
<!DOCTYPE svg PUBLIC "-//W3C//DTD SVG 1.1//EN"
 "http://www.w3.org/Graphics/SVG/1.1/DTD/svg11.dtd">
<!-- Generated by graphviz version 2.43.0 (0)
 -->
<!-- Title: CRGB::blendAlphaMaxChannel Pages: 1 -->
<svg width="464pt" height="70pt"
 viewBox="0.00 0.00 464.00 69.50" xmlns="http://www.w3.org/2000/svg" xmlns:xlink="http://www.w3.org/1999/xlink">
<g id="graph0" class="graph" transform="scale(1 1) rotate(0) translate(4 65.5)">
<title>CRGB::blendAlphaMaxChannel</title>
<!-- Node1 -->
<g id="Node000001" class="node">
<title>Node1</title>
<g id="a_Node000001"><a xlink:title=" ">
<polygon fill="#999999" stroke="#666666" points="456,-37 290,-37 290,-18 456,-18 456,-37"/>
<text text-anchor="middle" x="373" y="-25" font-family="Helvetica,sans-Serif" font-size="10.00">CRGB::blendAlphaMaxChannel</text>
</a>
</g>
</g>
<!-- Node2 -->
<g id="Node000002" class="node">
<title>Node2</title>
<g id="a_Node000002"><a xlink:href="../../d1/de0/classfl_1_1_frame_a1efadd6e06cd79c0342c9cd8c391539a.html#a1efadd6e06cd79c0342c9cd8c391539a" target="_top" xlink:title=" ">
<polygon fill="white" stroke="#666666" points="247.5,-56 158.5,-56 158.5,-37 247.5,-37 247.5,-56"/>
<text text-anchor="middle" x="203" y="-44" font-family="Helvetica,sans-Serif" font-size="10.00">fl::Frame::draw</text>
</a>
</g>
</g>
<!-- Node1&#45;&gt;Node2 -->
<g id="edge1_Node000001_Node000002" class="edge">
<title>Node1&#45;&gt;Node2</title>
<g id="a_edge1_Node000001_Node000002"><a xlink:title=" ">
<path fill="none" stroke="#63b8ff" d="M280.01,-37.9C268.72,-39.18 257.62,-40.44 247.54,-41.58"/>
<polygon fill="#63b8ff" stroke="#63b8ff" points="280.43,-41.38 289.97,-36.78 279.64,-34.42 280.43,-41.38"/>
</a>
</g>
</g>
<!-- Node4 -->
<g id="Node000004" class="node">
<title>Node4</title>
<g id="a_Node000004"><a xlink:href="../../d1/de0/classfl_1_1_frame_af228b83cd52447b2416893f39d0753df.html#af228b83cd52447b2416893f39d0753df" target="_top" xlink:title=" ">
<polygon fill="white" stroke="#666666" points="254,-19 152,-19 152,0 254,0 254,-19"/>
<text text-anchor="middle" x="203" y="-7" font-family="Helvetica,sans-Serif" font-size="10.00">fl::Frame::drawXY</text>
</a>
</g>
</g>
<!-- Node1&#45;&gt;Node4 -->
<g id="edge3_Node000001_Node000004" class="edge">
<title>Node1&#45;&gt;Node4</title>
<g id="a_edge3_Node000001_Node000004"><a xlink:title=" ">
<path fill="none" stroke="#63b8ff" d="M280,-17.64C271.2,-16.7 262.52,-15.77 254.34,-14.89"/>
<polygon fill="#63b8ff" stroke="#63b8ff" points="279.65,-21.13 289.97,-18.71 280.4,-14.17 279.65,-21.13"/>
</a>
</g>
</g>
<!-- Node3 -->
<g id="Node000003" class="node">
<title>Node3</title>
<g id="a_Node000003"><a xlink:href="../../d8/d94/classfl_1_1_frame_interpolator_a681dd7d646b6b2b75c4035678693206a.html#a681dd7d646b6b2b75c4035678693206a" target="_top" xlink:title=" ">
<polygon fill="white" stroke="#666666" points="116,-61.5 0,-61.5 0,-31.5 116,-31.5 116,-61.5"/>
<text text-anchor="start" x="8" y="-49.5" font-family="Helvetica,sans-Serif" font-size="10.00">fl::FrameInterpolator</text>
<text text-anchor="middle" x="58" y="-38.5" font-family="Helvetica,sans-Serif" font-size="10.00">::draw</text>
</a>
</g>
</g>
<!-- Node2&#45;&gt;Node3 -->
<g id="edge2_Node000002_Node000003" class="edge">
<title>Node2&#45;&gt;Node3</title>
<g id="a_edge2_Node000002_Node000003"><a xlink:title=" ">
<path fill="none" stroke="#63b8ff" d="M148.09,-46.5C137.65,-46.5 126.67,-46.5 116.13,-46.5"/>
<polygon fill="#63b8ff" stroke="#63b8ff" points="148.32,-50 158.32,-46.5 148.32,-43 148.32,-50"/>
</a>
</g>
</g>
</g>
</svg>
