<?xml version="1.0" encoding="UTF-8" standalone="no"?>
<!DOCTYPE svg PUBLIC "-//W3C//DTD SVG 1.1//EN"
 "http://www.w3.org/Graphics/SVG/1.1/DTD/svg11.dtd">
<!-- Generated by graphviz version 2.43.0 (0)
 -->
<!-- Title: CRGB::upscale Pages: 1 -->
<!--zoomable 230 -->

<svg id="main" version="1.1" xmlns="http://www.w3.org/2000/svg" xmlns:xlink="http://www.w3.org/1999/xlink" xml:space="preserve" onload="init(evt)">

<style type="text/css"><![CDATA[
.node, .edge {opacity: 0.7;}
.node.selected, .edge.selected {opacity: 1;}
.edge:hover path { stroke: red; }
.edge:hover polygon { stroke: red; fill: red; }
]]></style>

<defs>
  <circle id="rim" cx="0" cy="0" r="7"/>
  <circle id="rim2" cx="0" cy="0" r="3.5"/>
  <g id="zoomPlus">
    <use xlink:href="#rim" fill="#404040"><set attributeName="fill" to="#808080" begin="zoomplus.mouseover" end="zoomplus.mouseout"/></use>
    <path d="M-4,0h8M0,-4v8" fill="none" stroke="white" stroke-width="1.5" pointer-events="none"/>
  </g>
  <g id="zoomMin">
    <use xlink:href="#rim" fill="#404040"><set attributeName="fill" to="#808080" begin="zoomminus.mouseover" end="zoomminus.mouseout"/></use>
    <path d="M-4,0h8" fill="none" stroke="white" stroke-width="1.5" pointer-events="none"/>
  </g>
  <g id="arrowUp" transform="translate(30 24)">
    <use xlink:href="#rim"/>
    <path pointer-events="none" fill="none" stroke="white" stroke-width="1.5" d="M0,-3.0v7 M-2.5,-0.5L0,-3.0L2.5,-0.5"/>
  </g>
  <g id="arrowRight" transform="rotate(90) translate(36 -43)">
    <use xlink:href="#rim"/>
    <path pointer-events="none" fill="none" stroke="white" stroke-width="1.5" d="M0,-3.0v7 M-2.5,-0.5L0,-3.0L2.5,-0.5"/>
  </g>
  <g id="arrowDown" transform="rotate(180) translate(-30 -48)">
    <use xlink:href="#rim"/>
    <path pointer-events="none" fill="none" stroke="white" stroke-width="1.5" d="M0,-3.0v7 M-2.5,-0.5L0,-3.0L2.5,-0.5"/>
  </g>
  <g id="arrowLeft" transform="rotate(270) translate(-36 17)">
    <use xlink:href="#rim"/>
    <path pointer-events="none" fill="none" stroke="white" stroke-width="1.5" d="M0,-3.0v7 M-2.5,-0.5L0,-3.0L2.5,-0.5"/>
  </g>
  <g id="resetDef">
    <use xlink:href="#rim2" fill="#404040"><set attributeName="fill" to="#808080" begin="reset.mouseover" end="reset.mouseout"/></use>
  </g>
</defs>
<script type="application/ecmascript">
var viewWidth = 658;
var viewHeight = 230;
var sectionId = 'dynsection-0';
</script>
<script type="application/ecmascript" xlink:href="../../svg.min.js"/>
<svg id="graph" class="graph">
<g id="viewport">
<title>CRGB::upscale</title>
<!-- Node1 -->
<g id="Node000001" class="node">
<title>Node1</title>
<g id="a_Node000001"><a xlink:title=" ">
<polygon fill="#999999" stroke="#666666" points="88,-148 0,-148 0,-129 88,-129 88,-148"/>
<text text-anchor="middle" x="44" y="-136" font-family="Helvetica,sans-Serif" font-size="10.00">CRGB::upscale</text>
</a>
</g>
</g>
<!-- Node2 -->
<g id="Node000002" class="node">
<title>Node2</title>
<g id="a_Node000002"><a xlink:href="../../d7/d82/struct_c_r_g_b_a4b0cc1cfefd9e0c66ea5c6583181df46.html#a4b0cc1cfefd9e0c66ea5c6583181df46" target="_top" xlink:title="Default constructor.">
<polygon fill="white" stroke="#666666" points="221,-222 143,-222 143,-203 221,-203 221,-222"/>
<text text-anchor="middle" x="182" y="-210" font-family="Helvetica,sans-Serif" font-size="10.00">CRGB::CRGB</text>
</a>
</g>
</g>
<!-- Node1&#45;&gt;Node2 -->
<g id="edge1_Node000001_Node000002" class="edge">
<title>Node1&#45;&gt;Node2</title>
<g id="a_edge1_Node000001_Node000002"><a xlink:title=" ">
<path fill="none" stroke="#63b8ff" d="M56.06,-148.05C70.72,-160.29 97.8,-181.48 124,-194.5 127.56,-196.27 131.33,-197.91 135.16,-199.42"/>
<polygon fill="#63b8ff" stroke="#63b8ff" points="134.16,-202.78 144.76,-202.92 136.56,-196.21 134.16,-202.78"/>
</a>
</g>
</g>
<!-- Node3 -->
<g id="Node000003" class="node">
<title>Node3</title>
<g id="a_Node000003"><a xlink:href="../../d0/dce/classfl_1_1_x_y_map_adf5913ff923cab3e83d928513fd54a13.html#adf5913ff923cab3e83d928513fd54a13" target="_top" xlink:title=" ">
<polygon fill="white" stroke="#666666" points="240,-185 124,-185 124,-166 240,-166 240,-185"/>
<text text-anchor="middle" x="182" y="-173" font-family="Helvetica,sans-Serif" font-size="10.00">fl::XYMap::getHeight</text>
</a>
</g>
</g>
<!-- Node1&#45;&gt;Node3 -->
<g id="edge2_Node000001_Node000003" class="edge">
<title>Node1&#45;&gt;Node3</title>
<g id="a_edge2_Node000001_Node000003"><a xlink:title=" ">
<path fill="none" stroke="#63b8ff" d="M80.02,-148.03C97.02,-152.65 117.65,-158.27 135.82,-163.21"/>
<polygon fill="#63b8ff" stroke="#63b8ff" points="135.05,-166.63 145.62,-165.88 136.89,-159.87 135.05,-166.63"/>
</a>
</g>
</g>
<!-- Node4 -->
<g id="Node000004" class="node">
<title>Node4</title>
<g id="a_Node000004"><a xlink:href="../../d0/dce/classfl_1_1_x_y_map_a048a78fc8643785f1a5ef68a4b46272e.html#a048a78fc8643785f1a5ef68a4b46272e" target="_top" xlink:title=" ">
<polygon fill="white" stroke="#666666" points="235.5,-148 128.5,-148 128.5,-129 235.5,-129 235.5,-148"/>
<text text-anchor="middle" x="182" y="-136" font-family="Helvetica,sans-Serif" font-size="10.00">fl::XYMap::getType</text>
</a>
</g>
</g>
<!-- Node1&#45;&gt;Node4 -->
<g id="edge3_Node000001_Node000004" class="edge">
<title>Node1&#45;&gt;Node4</title>
<g id="a_edge3_Node000001_Node000004"><a xlink:title=" ">
<path fill="none" stroke="#63b8ff" d="M88.03,-138.5C97.6,-138.5 107.94,-138.5 118.13,-138.5"/>
<polygon fill="#63b8ff" stroke="#63b8ff" points="118.22,-142 128.22,-138.5 118.22,-135 118.22,-142"/>
</a>
</g>
</g>
<!-- Node5 -->
<g id="Node000005" class="node">
<title>Node5</title>
<g id="a_Node000005"><a xlink:href="../../d0/dce/classfl_1_1_x_y_map_a79ac3aee84a355dfeb9deb39e8673566.html#a79ac3aee84a355dfeb9deb39e8673566" target="_top" xlink:title=" ">
<polygon fill="white" stroke="#666666" points="238.5,-111 125.5,-111 125.5,-92 238.5,-92 238.5,-111"/>
<text text-anchor="middle" x="182" y="-99" font-family="Helvetica,sans-Serif" font-size="10.00">fl::XYMap::getWidth</text>
</a>
</g>
</g>
<!-- Node1&#45;&gt;Node5 -->
<g id="edge4_Node000001_Node000005" class="edge">
<title>Node1&#45;&gt;Node5</title>
<g id="a_edge4_Node000001_Node000005"><a xlink:title=" ">
<path fill="none" stroke="#63b8ff" d="M80.02,-128.97C97.02,-124.35 117.65,-118.73 135.82,-113.79"/>
<polygon fill="#63b8ff" stroke="#63b8ff" points="136.89,-117.13 145.62,-111.12 135.05,-110.37 136.89,-117.13"/>
</a>
</g>
</g>
<!-- Node6 -->
<g id="Node000006" class="node">
<title>Node6</title>
<g id="a_Node000006"><a xlink:href="../../d4/d36/namespacefl_aec4161e7f789764b94b67f9365a277f4.html#aec4161e7f789764b94b67f9365a277f4" target="_top" xlink:title=" ">
<polygon fill="white" stroke="#666666" points="215,-74 149,-74 149,-55 215,-55 215,-74"/>
<text text-anchor="middle" x="182" y="-62" font-family="Helvetica,sans-Serif" font-size="10.00">fl::upscale</text>
</a>
</g>
</g>
<!-- Node1&#45;&gt;Node6 -->
<g id="edge5_Node000001_Node000006" class="edge">
<title>Node1&#45;&gt;Node6</title>
<g id="a_edge5_Node000001_Node000006"><a xlink:title=" ">
<path fill="none" stroke="#63b8ff" d="M56.38,-128.99C71.17,-117.02 98.16,-96.46 124,-83.5 128.89,-81.04 134.18,-78.8 139.49,-76.78"/>
<polygon fill="#63b8ff" stroke="#63b8ff" points="140.75,-80.04 148.99,-73.38 138.4,-73.45 140.75,-80.04"/>
</a>
</g>
</g>
<!-- Node7 -->
<g id="Node000007" class="node">
<title>Node7</title>
<g id="a_Node000007"><a xlink:href="../../d4/d36/namespacefl_a49ec31bbd180eb03839d5a3fb1ebd25b.html#a49ec31bbd180eb03839d5a3fb1ebd25b" target="_top" xlink:title="Performs bilinear interpolation for upscaling an image.">
<polygon fill="white" stroke="#666666" points="416.5,-130 307.5,-130 307.5,-111 416.5,-111 416.5,-130"/>
<text text-anchor="middle" x="362" y="-118" font-family="Helvetica,sans-Serif" font-size="10.00">fl::upscaleArbitrary</text>
</a>
</g>
</g>
<!-- Node6&#45;&gt;Node7 -->
<g id="edge6_Node000006_Node000007" class="edge">
<title>Node6&#45;&gt;Node7</title>
<g id="a_edge6_Node000006_Node000007"><a xlink:title=" ">
<path fill="none" stroke="#63b8ff" d="M214.7,-74.04C223.04,-76.83 231.94,-80.06 240,-83.5 256.64,-90.61 258.99,-96.34 276,-102.5 282.83,-104.97 290.09,-107.15 297.39,-109.05"/>
<polygon fill="#63b8ff" stroke="#63b8ff" points="296.77,-112.51 307.31,-111.49 298.44,-105.71 296.77,-112.51"/>
</a>
</g>
</g>
<!-- Node9 -->
<g id="Node000009" class="node">
<title>Node9</title>
<g id="a_Node000009"><a xlink:href="../../d4/d36/namespacefl_afaddf1c4a2474243bdc613c1d6e37f37.html#afaddf1c4a2474243bdc613c1d6e37f37" target="_top" xlink:title="Performs bilinear interpolation for upscaling an image.">
<polygon fill="white" stroke="#666666" points="418.5,-56 305.5,-56 305.5,-37 418.5,-37 418.5,-56"/>
<text text-anchor="middle" x="362" y="-44" font-family="Helvetica,sans-Serif" font-size="10.00">fl::upscalePowerOf2</text>
</a>
</g>
</g>
<!-- Node6&#45;&gt;Node9 -->
<g id="edge8_Node000006_Node000009" class="edge">
<title>Node6&#45;&gt;Node9</title>
<g id="a_edge8_Node000006_Node000009"><a xlink:title=" ">
<path fill="none" stroke="#63b8ff" d="M215.23,-61.24C237.44,-58.99 267.75,-55.93 294.97,-53.18"/>
<polygon fill="#63b8ff" stroke="#63b8ff" points="295.63,-56.63 305.23,-52.14 294.93,-49.66 295.63,-56.63"/>
</a>
</g>
</g>
<!-- Node11 -->
<g id="Node000011" class="node">
<title>Node11</title>
<g id="a_Node000011"><a xlink:href="../../d4/d36/namespacefl_a079778d9a1c3897463a1b8171ff69da2.html#a079778d9a1c3897463a1b8171ff69da2" target="_top" xlink:title="Optimized upscale for rectangular/line&#45;by&#45;line XY maps.">
<polygon fill="white" stroke="#666666" points="424.5,-93 299.5,-93 299.5,-74 424.5,-74 424.5,-93"/>
<text text-anchor="middle" x="362" y="-81" font-family="Helvetica,sans-Serif" font-size="10.00">fl::upscaleRectangular</text>
</a>
</g>
</g>
<!-- Node6&#45;&gt;Node11 -->
<g id="edge10_Node000006_Node000011" class="edge">
<title>Node6&#45;&gt;Node11</title>
<g id="a_edge10_Node000006_Node000011"><a xlink:title=" ">
<path fill="none" stroke="#63b8ff" d="M215.23,-67.94C235.93,-70.15 263.66,-73.11 289.37,-75.85"/>
<polygon fill="#63b8ff" stroke="#63b8ff" points="289.16,-79.35 299.48,-76.93 289.91,-72.39 289.16,-79.35"/>
</a>
</g>
</g>
<!-- Node12 -->
<g id="Node000012" class="node">
<title>Node12</title>
<g id="a_Node000012"><a xlink:href="../../d4/d36/namespacefl_a1e3cf3732e34b0b72f422b99394a9120.html#a1e3cf3732e34b0b72f422b99394a9120" target="_top" xlink:title="Optimized upscale for rectangular/line&#45;by&#45;line XY maps (power&#45;of&#45;2 version).">
<polygon fill="white" stroke="#666666" points="448,-19 276,-19 276,0 448,0 448,-19"/>
<text text-anchor="middle" x="362" y="-7" font-family="Helvetica,sans-Serif" font-size="10.00">fl::upscaleRectangularPowerOf2</text>
</a>
</g>
</g>
<!-- Node6&#45;&gt;Node12 -->
<g id="edge12_Node000006_Node000012" class="edge">
<title>Node6&#45;&gt;Node12</title>
<g id="a_edge12_Node000006_Node000012"><a xlink:title=" ">
<path fill="none" stroke="#63b8ff" d="M204.85,-54.97C223.49,-47.1 251.15,-36.04 276,-28.5 284.52,-25.92 293.61,-23.52 302.56,-21.35"/>
<polygon fill="#63b8ff" stroke="#63b8ff" points="303.63,-24.7 312.57,-19.01 302.04,-17.88 303.63,-24.7"/>
</a>
</g>
</g>
<!-- Node8 -->
<g id="Node000008" class="node">
<title>Node8</title>
<g id="a_Node000008"><a xlink:href="../../d4/d36/namespacefl_aa24fef1c27fa0f275fb652055c8e1d21.html#aa24fef1c27fa0f275fb652055c8e1d21" target="_top" xlink:title=" ">
<polygon fill="white" stroke="#666666" points="626.5,-102 507.5,-102 507.5,-83 626.5,-83 626.5,-102"/>
<text text-anchor="middle" x="567" y="-90" font-family="Helvetica,sans-Serif" font-size="10.00">fl::bilinearInterpolate</text>
</a>
</g>
</g>
<!-- Node7&#45;&gt;Node8 -->
<g id="edge7_Node000007_Node000008" class="edge">
<title>Node7&#45;&gt;Node8</title>
<g id="a_edge7_Node000007_Node000008"><a xlink:title=" ">
<path fill="none" stroke="#63b8ff" d="M416.6,-113.11C441.39,-109.69 471.13,-105.59 497.52,-101.95"/>
<polygon fill="#63b8ff" stroke="#63b8ff" points="498.03,-105.41 507.46,-100.58 497.07,-98.47 498.03,-105.41"/>
</a>
</g>
</g>
<!-- Node10 -->
<g id="Node000010" class="node">
<title>Node10</title>
<g id="a_Node000010"><a xlink:href="../../d4/d36/namespacefl_a36918068f364959acb5a80d126b92e3c.html#a36918068f364959acb5a80d126b92e3c" target="_top" xlink:title=" ">
<polygon fill="white" stroke="#666666" points="650,-47 484,-47 484,-28 650,-28 650,-47"/>
<text text-anchor="middle" x="567" y="-35" font-family="Helvetica,sans-Serif" font-size="10.00">fl::bilinearInterpolatePowerOf2</text>
</a>
</g>
</g>
<!-- Node9&#45;&gt;Node10 -->
<g id="edge9_Node000009_Node000010" class="edge">
<title>Node9&#45;&gt;Node10</title>
<g id="a_edge9_Node000009_Node000010"><a xlink:title=" ">
<path fill="none" stroke="#63b8ff" d="M418.74,-44.03C435.75,-43.27 454.94,-42.42 473.7,-41.59"/>
<polygon fill="#63b8ff" stroke="#63b8ff" points="473.92,-45.09 483.76,-41.15 473.61,-38.09 473.92,-45.09"/>
</a>
</g>
</g>
<!-- Node11&#45;&gt;Node8 -->
<g id="edge11_Node000011_Node000008" class="edge">
<title>Node11&#45;&gt;Node8</title>
<g id="a_edge11_Node000011_Node000008"><a xlink:title=" ">
<path fill="none" stroke="#63b8ff" d="M424.73,-86.24C447.6,-87.25 473.66,-88.41 497.11,-89.45"/>
<polygon fill="#63b8ff" stroke="#63b8ff" points="497.19,-92.95 507.34,-89.9 497.5,-85.96 497.19,-92.95"/>
</a>
</g>
</g>
<!-- Node12&#45;&gt;Node10 -->
<g id="edge13_Node000012_Node000010" class="edge">
<title>Node12&#45;&gt;Node10</title>
<g id="a_edge13_Node000012_Node000010"><a xlink:title=" ">
<path fill="none" stroke="#63b8ff" d="M432.01,-19.02C449.66,-21.45 468.78,-24.09 486.89,-26.59"/>
<polygon fill="#63b8ff" stroke="#63b8ff" points="486.45,-30.06 496.84,-27.96 487.41,-23.13 486.45,-30.06"/>
</a>
</g>
</g>
</g>
</svg>

<g id="navigator" transform="translate(0 0)" fill="#404254">
  <rect fill="#f2f5e9" fill-opacity="0.5" stroke="#606060" stroke-width=".5" x="0" y="0" width="60" height="60"/>
  <use id="zoomplus" xlink:href="#zoomPlus" x="17" y="9" onmousedown="handleZoom(evt,'in')"/>
  <use id="zoomminus" xlink:href="#zoomMin" x="42" y="9" onmousedown="handleZoom(evt,'out')"/>
  <use id="reset" xlink:href="#resetDef" x="30" y="36" onmousedown="handleReset()"/>
   <use id="arrowup" xlink:href="#arrowUp" x="0" y="0" onmousedown="handlePan(0,-1)"/>
  <use id="arrowright" xlink:href="#arrowRight" x="0" y="0" onmousedown="handlePan(1,0)"/>
  <use id="arrowdown" xlink:href="#arrowDown" x="0" y="0" onmousedown="handlePan(0,1)"/>
  <use id="arrowleft" xlink:href="#arrowLeft" x="0" y="0" onmousedown="handlePan(-1,0)"/>
</g>
<svg viewBox="0 0 15 15" width="100%" height="30px" preserveAspectRatio="xMaxYMin meet">
 <g id="arrow_out" transform="scale(0.3 0.3)">
  <a xlink:href="struct_c_r_g_b_ab0312ff6ed447d7d6429c200419088d1_ab0312ff6ed447d7d6429c200419088d1_cgraph_org.svg" target="_base">
   <rect id="button" ry="5" rx="5" y="6" x="6" height="38" width="38"
        fill="#f2f5e9" fill-opacity="0.5" stroke="#606060" stroke-width="1.0"/>
   <path id="arrow"
     d="M 11.500037,31.436501 C 11.940474,20.09759 22.043105,11.32322 32.158766,21.979434 L 37.068811,17.246167 C 37.068811,17.246167 37.088388,32 37.088388,32 L 22.160133,31.978069 C 22.160133,31.978069 26.997745,27.140456 26.997745,27.140456 C 18.528582,18.264221 13.291696,25.230495 11.500037,31.436501 z"
     style="fill:#404040;"/>
  </a>
 </g>
</svg>

<style type='text/css'>
<![CDATA[
[data-mouse-over-selected='false'] { opacity: 0.7; }
[data-mouse-over-selected='true']  { opacity: 1.0; }
]]>
</style>
<script type="application/ecmascript"><![CDATA[
document.addEventListener('DOMContentLoaded', (event) => {
  highlightEdges();
  highlightAdjacentNodes();
});
]]></script>
</svg>
