<?xml version="1.0" encoding="UTF-8" standalone="no"?>
<!DOCTYPE svg PUBLIC "-//W3C//DTD SVG 1.1//EN"
 "http://www.w3.org/Graphics/SVG/1.1/DTD/svg11.dtd">
<!-- Generated by graphviz version 2.43.0 (0)
 -->
<!-- Title: CRGB::setHSV Pages: 1 -->
<svg width="230pt" height="64pt"
 viewBox="0.00 0.00 230.00 64.00" xmlns="http://www.w3.org/2000/svg" xmlns:xlink="http://www.w3.org/1999/xlink">
<g id="graph0" class="graph" transform="scale(1 1) rotate(0) translate(4 60)">
<title>CRGB::setHSV</title>
<!-- Node1 -->
<g id="Node000001" class="node">
<title>Node1</title>
<g id="a_Node000001"><a xlink:title="Allow assignment from hue, saturation, and value.">
<polygon fill="#999999" stroke="#666666" points="86,-37 0,-37 0,-18 86,-18 86,-37"/>
<text text-anchor="middle" x="43" y="-25" font-family="Helvetica,sans-Serif" font-size="10.00">CRGB::setHSV</text>
</a>
</g>
</g>
<!-- Node2 -->
<g id="Node000002" class="node">
<title>Node2</title>
<g id="a_Node000002"><a xlink:href="../../d7/d82/struct_c_r_g_b_a08d8e05a3fcdb88dedb886cad9cbd3fa.html#a08d8e05a3fcdb88dedb886cad9cbd3fa" target="_top" xlink:title="Default constructor.">
<polygon fill="white" stroke="#666666" points="211,-56 133,-56 133,-37 211,-37 211,-56"/>
<text text-anchor="middle" x="172" y="-44" font-family="Helvetica,sans-Serif" font-size="10.00">CRGB::CRGB</text>
</a>
</g>
</g>
<!-- Node1&#45;&gt;Node2 -->
<g id="edge1_Node000001_Node000002" class="edge">
<title>Node1&#45;&gt;Node2</title>
<g id="a_edge1_Node000001_Node000002"><a xlink:title=" ">
<path fill="none" stroke="#63b8ff" d="M86.29,-33.83C97.9,-35.56 110.57,-37.46 122.5,-39.24"/>
<polygon fill="#63b8ff" stroke="#63b8ff" points="122.34,-42.76 132.75,-40.78 123.37,-35.84 122.34,-42.76"/>
</a>
</g>
</g>
<!-- Node3 -->
<g id="Node000003" class="node">
<title>Node3</title>
<g id="a_Node000003"><a xlink:href="../../db/d87/group___pixel_types_gab316cfeb8bd5f37d8faaf761ad3c834b.html#gab316cfeb8bd5f37d8faaf761ad3c834b" target="_top" xlink:title="Forward declaration of hsv2rgb_rainbow here, to avoid circular dependencies.">
<polygon fill="white" stroke="#666666" points="222,-19 122,-19 122,0 222,0 222,-19"/>
<text text-anchor="middle" x="172" y="-7" font-family="Helvetica,sans-Serif" font-size="10.00">hsv2rgb_rainbow</text>
</a>
</g>
</g>
<!-- Node1&#45;&gt;Node3 -->
<g id="edge2_Node000001_Node000003" class="edge">
<title>Node1&#45;&gt;Node3</title>
<g id="a_edge2_Node000001_Node000003"><a xlink:title=" ">
<path fill="none" stroke="#63b8ff" d="M86.29,-21.51C94.48,-20.34 103.21,-19.11 111.83,-17.89"/>
<polygon fill="#63b8ff" stroke="#63b8ff" points="112.45,-21.33 121.86,-16.46 111.47,-14.4 112.45,-21.33"/>
</a>
</g>
</g>
</g>
</svg>
