<?xml version="1.0" encoding="UTF-8" standalone="no"?>
<!DOCTYPE svg PUBLIC "-//W3C//DTD SVG 1.1//EN"
 "http://www.w3.org/Graphics/SVG/1.1/DTD/svg11.dtd">
<!-- Generated by graphviz version 2.43.0 (0)
 -->
<!-- Title: CRGB::nscale8_video Pages: 1 -->
<svg width="480pt" height="101pt"
 viewBox="0.00 0.00 480.00 101.00" xmlns="http://www.w3.org/2000/svg" xmlns:xlink="http://www.w3.org/1999/xlink">
<g id="graph0" class="graph" transform="scale(1 1) rotate(0) translate(4 97)">
<title>CRGB::nscale8_video</title>
<!-- Node1 -->
<g id="Node000001" class="node">
<title>Node1</title>
<g id="a_Node000001"><a xlink:title="Scale down a RGB to N/256ths of it&#39;s current brightness using &quot;video&quot; dimming rules.">
<polygon fill="#999999" stroke="#666666" points="472,-56 352,-56 352,-37 472,-37 472,-56"/>
<text text-anchor="middle" x="412" y="-44" font-family="Helvetica,sans-Serif" font-size="10.00">CRGB::nscale8_video</text>
</a>
</g>
</g>
<!-- Node2 -->
<g id="Node000002" class="node">
<title>Node2</title>
<g id="a_Node000002"><a xlink:href="../../de/db5/classfl_1_1_twinkle_fox_a67375829d0da55e17d3f74ac9817914d.html#a67375829d0da55e17d3f74ac9817914d" target="_top" xlink:title=" ">
<polygon fill="white" stroke="#666666" points="316,-93 149,-93 149,-74 316,-74 316,-93"/>
<text text-anchor="middle" x="232.5" y="-81" font-family="Helvetica,sans-Serif" font-size="10.00">fl::TwinkleFox::drawTwinkleFox</text>
</a>
</g>
</g>
<!-- Node1&#45;&gt;Node2 -->
<g id="edge1_Node000001_Node000002" class="edge">
<title>Node1&#45;&gt;Node2</title>
<g id="a_edge1_Node000001_Node000002"><a xlink:title=" ">
<path fill="none" stroke="#63b8ff" d="M355.43,-58.08C330.97,-63.18 302.59,-69.1 279.36,-73.94"/>
<polygon fill="#63b8ff" stroke="#63b8ff" points="356.21,-61.5 365.29,-56.03 354.79,-54.64 356.21,-61.5"/>
</a>
</g>
</g>
<!-- Node4 -->
<g id="Node000004" class="node">
<title>Node4</title>
<g id="a_Node000004"><a xlink:href="../../d4/dd0/_twinkle_fox_8ino_a6d0a3407d4b43c23c7bdd4aac9fc76fd.html#a6d0a3407d4b43c23c7bdd4aac9fc76fd" target="_top" xlink:title=" ">
<polygon fill="white" stroke="#666666" points="274,-56 191,-56 191,-37 274,-37 274,-56"/>
<text text-anchor="middle" x="232.5" y="-44" font-family="Helvetica,sans-Serif" font-size="10.00">drawTwinkles</text>
</a>
</g>
</g>
<!-- Node1&#45;&gt;Node4 -->
<g id="edge3_Node000001_Node000004" class="edge">
<title>Node1&#45;&gt;Node4</title>
<g id="a_edge3_Node000001_Node000004"><a xlink:title=" ">
<path fill="none" stroke="#63b8ff" d="M341.87,-46.5C318.95,-46.5 294.2,-46.5 274.15,-46.5"/>
<polygon fill="#63b8ff" stroke="#63b8ff" points="341.9,-50 351.9,-46.5 341.9,-43 341.9,-50"/>
</a>
</g>
</g>
<!-- Node6 -->
<g id="Node000006" class="node">
<title>Node6</title>
<g id="a_Node000006"><a xlink:href="../../db/d87/group___pixel_types_ga3dab64b7dfff8c31e3ec8c3c20eec465.html#ga3dab64b7dfff8c31e3ec8c3c20eec465" target="_top" xlink:title="Scale using CRGB::nscale8_video()">
<polygon fill="white" stroke="#666666" points="266.5,-19 198.5,-19 198.5,0 266.5,0 266.5,-19"/>
<text text-anchor="middle" x="232.5" y="-7" font-family="Helvetica,sans-Serif" font-size="10.00">operator%</text>
</a>
</g>
</g>
<!-- Node1&#45;&gt;Node6 -->
<g id="edge5_Node000001_Node000006" class="edge">
<title>Node1&#45;&gt;Node6</title>
<g id="a_edge5_Node000001_Node000006"><a xlink:title=" ">
<path fill="none" stroke="#63b8ff" d="M355.26,-34.88C326.18,-28.82 291.59,-21.61 266.72,-16.43"/>
<polygon fill="#63b8ff" stroke="#63b8ff" points="354.79,-38.36 365.29,-36.97 356.21,-31.5 354.79,-38.36"/>
</a>
</g>
</g>
<!-- Node3 -->
<g id="Node000003" class="node">
<title>Node3</title>
<g id="a_Node000003"><a xlink:href="../../de/db5/classfl_1_1_twinkle_fox_ab5d3d43b11bed65afbd407071ee85eb8.html#ab5d3d43b11bed65afbd407071ee85eb8" target="_top" xlink:title=" ">
<polygon fill="white" stroke="#666666" points="113,-93 0,-93 0,-74 113,-74 113,-93"/>
<text text-anchor="middle" x="56.5" y="-81" font-family="Helvetica,sans-Serif" font-size="10.00">fl::TwinkleFox::draw</text>
</a>
</g>
</g>
<!-- Node2&#45;&gt;Node3 -->
<g id="edge2_Node000002_Node000003" class="edge">
<title>Node2&#45;&gt;Node3</title>
<g id="a_edge2_Node000002_Node000003"><a xlink:title=" ">
<path fill="none" stroke="#63b8ff" d="M138.62,-83.5C129.93,-83.5 121.32,-83.5 113.13,-83.5"/>
<polygon fill="#63b8ff" stroke="#63b8ff" points="138.83,-87 148.83,-83.5 138.83,-80 138.83,-87"/>
</a>
</g>
</g>
<!-- Node5 -->
<g id="Node000005" class="node">
<title>Node5</title>
<g id="a_Node000005"><a xlink:href="../../d4/dd0/_twinkle_fox_8ino_afe461d27b9c48d5921c00d521181f12f.html#afe461d27b9c48d5921c00d521181f12f" target="_top" xlink:title=" ">
<polygon fill="white" stroke="#666666" points="75.5,-56 37.5,-56 37.5,-37 75.5,-37 75.5,-56"/>
<text text-anchor="middle" x="56.5" y="-44" font-family="Helvetica,sans-Serif" font-size="10.00">loop</text>
</a>
</g>
</g>
<!-- Node4&#45;&gt;Node5 -->
<g id="edge4_Node000004_Node000005" class="edge">
<title>Node4&#45;&gt;Node5</title>
<g id="a_edge4_Node000004_Node000005"><a xlink:title=" ">
<path fill="none" stroke="#63b8ff" d="M180.57,-46.5C145.28,-46.5 100.38,-46.5 75.74,-46.5"/>
<polygon fill="#63b8ff" stroke="#63b8ff" points="180.7,-50 190.7,-46.5 180.7,-43 180.7,-50"/>
</a>
</g>
</g>
</g>
</svg>
