<?xml version="1.0" encoding="UTF-8" standalone="no"?>
<!DOCTYPE svg PUBLIC "-//W3C//DTD SVG 1.1//EN"
 "http://www.w3.org/Graphics/SVG/1.1/DTD/svg11.dtd">
<!-- Generated by graphviz version 2.43.0 (0)
 -->
<!-- Title: UpscalePalette Pages: 1 -->
<svg width="315pt" height="212pt"
 viewBox="0.00 0.00 315.00 212.00" xmlns="http://www.w3.org/2000/svg" xmlns:xlink="http://www.w3.org/1999/xlink">
<g id="graph0" class="graph" transform="scale(1 1) rotate(0) translate(4 208)">
<title>UpscalePalette</title>
<!-- Node1 -->
<g id="Node000001" class="node">
<title>Node1</title>
<g id="a_Node000001"><a xlink:title="Convert a 16&#45;entry palette to a 256&#45;entry palette.">
<polygon fill="#999999" stroke="#666666" points="307,-111 218,-111 218,-92 307,-92 307,-111"/>
<text text-anchor="middle" x="262.5" y="-99" font-family="Helvetica,sans-Serif" font-size="10.00">UpscalePalette</text>
</a>
</g>
</g>
<!-- Node2 -->
<g id="Node000002" class="node">
<title>Node2</title>
<g id="a_Node000002"><a xlink:href="../../d5/db4/class_c_h_s_v_palette256_a93a00dbae141e2cf7355e31cd9922424.html#a93a00dbae141e2cf7355e31cd9922424" target="_top" xlink:title="Create upscaled palette from 16&#45;entry palette.">
<polygon fill="white" stroke="#666666" points="181,-204 1,-204 1,-185 181,-185 181,-204"/>
<text text-anchor="middle" x="91" y="-192" font-family="Helvetica,sans-Serif" font-size="10.00">CHSVPalette256::CHSVPalette256</text>
</a>
</g>
</g>
<!-- Node1&#45;&gt;Node2 -->
<g id="edge1_Node000001_Node000002" class="edge">
<title>Node1&#45;&gt;Node2</title>
<g id="a_edge1_Node000001_Node000002"><a xlink:title=" ">
<path fill="none" stroke="#63b8ff" d="M247.75,-119.32C233.31,-136.72 208.99,-162.56 182,-176.5 175.35,-179.94 168.1,-182.72 160.71,-184.97"/>
<polygon fill="#63b8ff" stroke="#63b8ff" points="250.82,-121.09 254.36,-111.1 245.37,-116.7 250.82,-121.09"/>
</a>
</g>
</g>
<!-- Node3 -->
<g id="Node000003" class="node">
<title>Node3</title>
<g id="a_Node000003"><a xlink:href="../../de/d34/class_c_r_g_b_palette256_a01b7d7154a1c785e367d127940f9d180.html#a01b7d7154a1c785e367d127940f9d180" target="_top" xlink:title="Create upscaled palette from 16&#45;entry palette.">
<polygon fill="white" stroke="#666666" points="182,-167 0,-167 0,-148 182,-148 182,-167"/>
<text text-anchor="middle" x="91" y="-155" font-family="Helvetica,sans-Serif" font-size="10.00">CRGBPalette256::CRGBPalette256</text>
</a>
</g>
</g>
<!-- Node1&#45;&gt;Node3 -->
<g id="edge2_Node000001_Node000003" class="edge">
<title>Node1&#45;&gt;Node3</title>
<g id="a_edge2_Node000001_Node000003"><a xlink:title=" ">
<path fill="none" stroke="#63b8ff" d="M235.81,-115.79C220.56,-123.76 200.63,-133.29 182,-139.5 172.02,-142.82 161.21,-145.63 150.65,-147.97"/>
<polygon fill="#63b8ff" stroke="#63b8ff" points="237.47,-118.87 244.65,-111.08 234.17,-112.7 237.47,-118.87"/>
</a>
</g>
</g>
<!-- Node4 -->
<g id="Node000004" class="node">
<title>Node4</title>
<g id="a_Node000004"><a xlink:href="../../df/d3d/class_c_r_g_b_palette32_a885013cda7e8875b2c9894e0e88b0d7f.html#a885013cda7e8875b2c9894e0e88b0d7f" target="_top" xlink:title="Create upscaled palette from 16&#45;entry palette.">
<polygon fill="white" stroke="#666666" points="176,-130 6,-130 6,-111 176,-111 176,-130"/>
<text text-anchor="middle" x="91" y="-118" font-family="Helvetica,sans-Serif" font-size="10.00">CRGBPalette32::CRGBPalette32</text>
</a>
</g>
</g>
<!-- Node1&#45;&gt;Node4 -->
<g id="edge3_Node000001_Node000004" class="edge">
<title>Node1&#45;&gt;Node4</title>
<g id="a_edge3_Node000001_Node000004"><a xlink:title=" ">
<path fill="none" stroke="#63b8ff" d="M207.61,-107.54C197.52,-108.67 186.75,-109.88 176,-111.08"/>
<polygon fill="#63b8ff" stroke="#63b8ff" points="208.3,-110.99 217.85,-106.39 207.52,-104.03 208.3,-110.99"/>
</a>
</g>
</g>
<!-- Node5 -->
<g id="Node000005" class="node">
<title>Node5</title>
<g id="a_Node000005"><a xlink:href="../../d5/db4/class_c_h_s_v_palette256_ae053719706e3276afabd1d3be6e8386c.html#ae053719706e3276afabd1d3be6e8386c" target="_top" xlink:title="Create upscaled palette from 16&#45;entry palette.">
<polygon fill="white" stroke="#666666" points="166.5,-93 15.5,-93 15.5,-74 166.5,-74 166.5,-93"/>
<text text-anchor="middle" x="91" y="-81" font-family="Helvetica,sans-Serif" font-size="10.00">CHSVPalette256::operator=</text>
</a>
</g>
</g>
<!-- Node1&#45;&gt;Node5 -->
<g id="edge4_Node000001_Node000005" class="edge">
<title>Node1&#45;&gt;Node5</title>
<g id="a_edge4_Node000001_Node000005"><a xlink:title=" ">
<path fill="none" stroke="#63b8ff" d="M207.68,-95.78C194.67,-94.4 180.52,-92.9 166.74,-91.44"/>
<polygon fill="#63b8ff" stroke="#63b8ff" points="207.54,-99.29 217.85,-96.86 208.28,-92.33 207.54,-99.29"/>
</a>
</g>
</g>
<!-- Node6 -->
<g id="Node000006" class="node">
<title>Node6</title>
<g id="a_Node000006"><a xlink:href="../../de/d34/class_c_r_g_b_palette256_a7d40d64cf260798c5e6ccc0d267081e8.html#a7d40d64cf260798c5e6ccc0d267081e8" target="_top" xlink:title="Create upscaled palette from 16&#45;entry palette.">
<polygon fill="white" stroke="#666666" points="167,-56 15,-56 15,-37 167,-37 167,-56"/>
<text text-anchor="middle" x="91" y="-44" font-family="Helvetica,sans-Serif" font-size="10.00">CRGBPalette256::operator=</text>
</a>
</g>
</g>
<!-- Node1&#45;&gt;Node6 -->
<g id="edge5_Node000001_Node000006" class="edge">
<title>Node1&#45;&gt;Node6</title>
<g id="a_edge5_Node000001_Node000006"><a xlink:title=" ">
<path fill="none" stroke="#63b8ff" d="M234.08,-87.3C219.02,-79.96 199.83,-71.34 182,-65.5 170.77,-61.82 158.51,-58.68 146.76,-56.08"/>
<polygon fill="#63b8ff" stroke="#63b8ff" points="232.81,-90.58 243.32,-91.89 235.93,-84.31 232.81,-90.58"/>
</a>
</g>
</g>
<!-- Node7 -->
<g id="Node000007" class="node">
<title>Node7</title>
<g id="a_Node000007"><a xlink:href="../../df/d3d/class_c_r_g_b_palette32_a7299ef2a59b3784186d9ce67e32d331e.html#a7299ef2a59b3784186d9ce67e32d331e" target="_top" xlink:title="Create upscaled palette from 16&#45;entry palette.">
<polygon fill="white" stroke="#666666" points="164,-19 18,-19 18,0 164,0 164,-19"/>
<text text-anchor="middle" x="91" y="-7" font-family="Helvetica,sans-Serif" font-size="10.00">CRGBPalette32::operator=</text>
</a>
</g>
</g>
<!-- Node1&#45;&gt;Node7 -->
<g id="edge6_Node000001_Node000007" class="edge">
<title>Node1&#45;&gt;Node7</title>
<g id="a_edge6_Node000001_Node000007"><a xlink:title=" ">
<path fill="none" stroke="#63b8ff" d="M247.38,-83.95C232.82,-67.07 208.53,-42.16 182,-28.5 174.47,-24.63 166.21,-21.54 157.83,-19.09"/>
<polygon fill="#63b8ff" stroke="#63b8ff" points="244.97,-86.52 254.08,-91.94 250.34,-82.03 244.97,-86.52"/>
</a>
</g>
</g>
</g>
</svg>
