<?xml version="1.0" encoding="UTF-8" standalone="no"?>
<!DOCTYPE svg PUBLIC "-//W3C//DTD SVG 1.1//EN"
 "http://www.w3.org/Graphics/SVG/1.1/DTD/svg11.dtd">
<!-- Generated by graphviz version 2.43.0 (0)
 -->
<!-- Title: PrintPins Pages: 1 -->
<svg width="470pt" height="101pt"
 viewBox="0.00 0.00 470.00 101.00" xmlns="http://www.w3.org/2000/svg" xmlns:xlink="http://www.w3.org/1999/xlink">
<g id="graph0" class="graph" transform="scale(1 1) rotate(0) translate(4 97)">
<title>PrintPins</title>
<!-- Node1 -->
<g id="Node000001" class="node">
<title>Node1</title>
<g id="a_Node000001"><a xlink:title=" ">
<polygon fill="#999999" stroke="#666666" points="59,-56 0,-56 0,-37 59,-37 59,-56"/>
<text text-anchor="middle" x="29.5" y="-44" font-family="Helvetica,sans-Serif" font-size="10.00">PrintPins</text>
</a>
</g>
</g>
<!-- Node1&#45;&gt;Node1 -->
<g id="edge7_Node000001_Node000001" class="edge">
<title>Node1&#45;&gt;Node1</title>
<g id="a_edge7_Node000001_Node000001"><a xlink:title=" ">
<path fill="none" stroke="#63b8ff" d="M14.4,-56.08C7.05,-64.73 12.08,-74 29.5,-74 40.11,-74 46.13,-70.56 47.55,-65.91"/>
<polygon fill="#63b8ff" stroke="#63b8ff" points="50.83,-64.66 44.6,-56.08 44.12,-66.67 50.83,-64.66"/>
</a>
</g>
</g>
<!-- Node2 -->
<g id="Node000002" class="node">
<title>Node2</title>
<g id="a_Node000002"><a xlink:href="../../db/d0b/_pintest_8ino_a7089184423e1bbf435e40abb052bbf46.html#a7089184423e1bbf435e40abb052bbf46" target="_top" xlink:title=" ">
<polygon fill="white" stroke="#666666" points="163,-56 95,-56 95,-37 163,-37 163,-56"/>
<text text-anchor="middle" x="129" y="-44" font-family="Helvetica,sans-Serif" font-size="10.00">GetPinPort</text>
</a>
</g>
</g>
<!-- Node1&#45;&gt;Node2 -->
<g id="edge1_Node000001_Node000002" class="edge">
<title>Node1&#45;&gt;Node2</title>
<g id="a_edge1_Node000001_Node000002"><a xlink:title=" ">
<path fill="none" stroke="#63b8ff" d="M59.23,-46.5C67.13,-46.5 75.89,-46.5 84.43,-46.5"/>
<polygon fill="#63b8ff" stroke="#63b8ff" points="84.68,-50 94.68,-46.5 84.68,-43 84.68,-50"/>
</a>
</g>
</g>
<!-- Node3 -->
<g id="Node000003" class="node">
<title>Node3</title>
<g id="a_Node000003"><a xlink:href="../../db/d0b/_pintest_8ino_af71431f6db865cbdc9d31833de94da2b.html#af71431f6db865cbdc9d31833de94da2b" target="_top" xlink:title=" ">
<polygon fill="white" stroke="#666666" points="273,-56 199,-56 199,-37 273,-37 273,-56"/>
<text text-anchor="middle" x="236" y="-44" font-family="Helvetica,sans-Serif" font-size="10.00">_GetPinPort</text>
</a>
</g>
</g>
<!-- Node2&#45;&gt;Node3 -->
<g id="edge2_Node000002_Node000003" class="edge">
<title>Node2&#45;&gt;Node3</title>
<g id="a_edge2_Node000002_Node000003"><a xlink:title=" ">
<path fill="none" stroke="#63b8ff" d="M163.22,-46.5C171.25,-46.5 179.98,-46.5 188.5,-46.5"/>
<polygon fill="#63b8ff" stroke="#63b8ff" points="188.72,-50 198.72,-46.5 188.72,-43 188.72,-50"/>
</a>
</g>
</g>
<!-- Node3&#45;&gt;Node3 -->
<g id="edge3_Node000003_Node000003" class="edge">
<title>Node3&#45;&gt;Node3</title>
<g id="a_edge3_Node000003_Node000003"><a xlink:title=" ">
<path fill="none" stroke="#63b8ff" d="M219.66,-56.08C211.71,-64.73 217.16,-74 236,-74 247.77,-74 254.32,-70.38 255.63,-65.55"/>
<polygon fill="#63b8ff" stroke="#63b8ff" points="258.93,-64.38 252.34,-56.08 252.31,-66.68 258.93,-64.38"/>
</a>
</g>
</g>
<!-- Node4 -->
<g id="Node000004" class="node">
<title>Node4</title>
<g id="a_Node000004"><a xlink:href="../../d4/de9/struct_____f_l___p_o_r_t___i_n_f_o_a407030c6570cb7463ac9a76355abae35.html#a407030c6570cb7463ac9a76355abae35" target="_top" xlink:title="Checks whether a port exists.">
<polygon fill="white" stroke="#666666" points="456,-93 315,-93 315,-74 456,-74 456,-93"/>
<text text-anchor="middle" x="385.5" y="-81" font-family="Helvetica,sans-Serif" font-size="10.00">__FL_PORT_INFO::hasPort</text>
</a>
</g>
</g>
<!-- Node3&#45;&gt;Node4 -->
<g id="edge4_Node000003_Node000004" class="edge">
<title>Node3&#45;&gt;Node4</title>
<g id="a_edge4_Node000003_Node000004"><a xlink:title=" ">
<path fill="none" stroke="#63b8ff" d="M272.48,-56.04C284.1,-59.12 297.09,-62.51 309,-65.5 316.99,-67.51 325.47,-69.58 333.75,-71.58"/>
<polygon fill="#63b8ff" stroke="#63b8ff" points="333.17,-75.04 343.71,-73.96 334.8,-68.23 333.17,-75.04"/>
</a>
</g>
</g>
<!-- Node5 -->
<g id="Node000005" class="node">
<title>Node5</title>
<g id="a_Node000005"><a xlink:href="../../d4/de9/struct_____f_l___p_o_r_t___i_n_f_o_a3bab01aa4faddd77dcd6a567bcf50043.html#a3bab01aa4faddd77dcd6a567bcf50043" target="_top" xlink:title="Gets the raw address of the port.">
<polygon fill="white" stroke="#666666" points="458.5,-56 312.5,-56 312.5,-37 458.5,-37 458.5,-56"/>
<text text-anchor="middle" x="385.5" y="-44" font-family="Helvetica,sans-Serif" font-size="10.00">__FL_PORT_INFO::portAddr</text>
</a>
</g>
</g>
<!-- Node3&#45;&gt;Node5 -->
<g id="edge5_Node000003_Node000005" class="edge">
<title>Node3&#45;&gt;Node5</title>
<g id="a_edge5_Node000003_Node000005"><a xlink:title=" ">
<path fill="none" stroke="#63b8ff" d="M273.08,-46.5C282.04,-46.5 292.01,-46.5 302.19,-46.5"/>
<polygon fill="#63b8ff" stroke="#63b8ff" points="302.43,-50 312.43,-46.5 302.43,-43 302.43,-50"/>
</a>
</g>
</g>
<!-- Node6 -->
<g id="Node000006" class="node">
<title>Node6</title>
<g id="a_Node000006"><a xlink:href="../../d4/de9/struct_____f_l___p_o_r_t___i_n_f_o_ad7cedd4bff6b75c60ddf249dade8dd1c.html#ad7cedd4bff6b75c60ddf249dade8dd1c" target="_top" xlink:title="Gets the name of the port, as a C&#45;string.">
<polygon fill="white" stroke="#666666" points="462,-19 309,-19 309,0 462,0 462,-19"/>
<text text-anchor="middle" x="385.5" y="-7" font-family="Helvetica,sans-Serif" font-size="10.00">__FL_PORT_INFO::portName</text>
</a>
</g>
</g>
<!-- Node3&#45;&gt;Node6 -->
<g id="edge6_Node000003_Node000006" class="edge">
<title>Node3&#45;&gt;Node6</title>
<g id="a_edge6_Node000003_Node000006"><a xlink:title=" ">
<path fill="none" stroke="#63b8ff" d="M273.08,-37.45C292.21,-32.65 315.96,-26.69 336.62,-21.51"/>
<polygon fill="#63b8ff" stroke="#63b8ff" points="337.62,-24.87 346.47,-19.04 335.92,-18.08 337.62,-24.87"/>
</a>
</g>
</g>
</g>
</svg>
