<?xml version="1.0" encoding="UTF-8" standalone="no"?>
<!DOCTYPE svg PUBLIC "-//W3C//DTD SVG 1.1//EN"
 "http://www.w3.org/Graphics/SVG/1.1/DTD/svg11.dtd">
<!-- Generated by graphviz version 2.43.0 (0)
 -->
<!-- Title: GetPinPort Pages: 1 -->
<svg width="274pt" height="82pt"
 viewBox="0.00 0.00 274.00 82.00" xmlns="http://www.w3.org/2000/svg" xmlns:xlink="http://www.w3.org/1999/xlink">

<svg id="main" version="1.1" xmlns="http://www.w3.org/2000/svg" xmlns:xlink="http://www.w3.org/1999/xlink" xml:space="preserve">

<style type="text/css"><![CDATA[
.node, .edge {opacity: 0.7;}
.node.selected, .edge.selected {opacity: 1;}
.edge:hover path { stroke: red; }
.edge:hover polygon { stroke: red; fill: red; }
]]></style>
<script type="application/ecmascript" xlink:href="../../svg.min.js"/>
<svg id="graph" class="graph">
<g id="graph0" class="graph" transform="scale(1 1) rotate(0) translate(4 78)">
<title>GetPinPort</title>
<!-- Node1 -->
<g id="Node000001" class="node">
<title>Node1</title>
<g id="a_Node000001"><a xlink:title=" ">
<polygon fill="#999999" stroke="#666666" points="266,-37 198,-37 198,-18 266,-18 266,-37"/>
<text text-anchor="middle" x="232" y="-25" font-family="Helvetica,sans-Serif" font-size="10.00">GetPinPort</text>
</a>
</g>
</g>
<!-- Node2 -->
<g id="Node000002" class="node">
<title>Node2</title>
<g id="a_Node000002"><a xlink:href="../../db/d0b/_pintest_8ino_a48b7a70eb06947df8557651eebcb55ee.html#a48b7a70eb06947df8557651eebcb55ee" target="_top" xlink:title=" ">
<polygon fill="white" stroke="#666666" points="147.5,-56 88.5,-56 88.5,-37 147.5,-37 147.5,-56"/>
<text text-anchor="middle" x="118" y="-44" font-family="Helvetica,sans-Serif" font-size="10.00">PrintPins</text>
</a>
</g>
</g>
<!-- Node1&#45;&gt;Node2 -->
<g id="edge1_Node000001_Node000002" class="edge">
<title>Node1&#45;&gt;Node2</title>
<g id="a_edge1_Node000001_Node000002"><a xlink:title=" ">
<path fill="none" stroke="#63b8ff" d="M187.73,-34.84C174.35,-37.11 159.95,-39.55 147.81,-41.61"/>
<polygon fill="#63b8ff" stroke="#63b8ff" points="188.43,-38.27 197.7,-33.15 187.25,-31.37 188.43,-38.27"/>
</a>
</g>
</g>
<!-- Node4 -->
<g id="Node000004" class="node">
<title>Node4</title>
<g id="a_Node000004"><a xlink:href="../../db/d0b/_pintest_8ino_a095bc1ede86fdccb63d047743f7b8780.html#a095bc1ede86fdccb63d047743f7b8780" target="_top" xlink:title=" ">
<polygon fill="white" stroke="#666666" points="162,-19 74,-19 74,0 162,0 162,-19"/>
<text text-anchor="middle" x="118" y="-7" font-family="Helvetica,sans-Serif" font-size="10.00">PrintPins&lt; 0 &gt;</text>
</a>
</g>
</g>
<!-- Node1&#45;&gt;Node4 -->
<g id="edge4_Node000001_Node000004" class="edge">
<title>Node1&#45;&gt;Node4</title>
<g id="a_edge4_Node000001_Node000004"><a xlink:title=" ">
<path fill="none" stroke="#63b8ff" d="M187.78,-20.55C179.44,-19.21 170.69,-17.81 162.35,-16.47"/>
<polygon fill="#63b8ff" stroke="#63b8ff" points="187.27,-24.02 197.7,-22.15 188.38,-17.11 187.27,-24.02"/>
</a>
</g>
</g>
<!-- Node2&#45;&gt;Node2 -->
<g id="edge3_Node000002_Node000002" class="edge">
<title>Node2&#45;&gt;Node2</title>
<g id="a_edge3_Node000002_Node000002"><a xlink:title=" ">
<path fill="none" stroke="#63b8ff" d="M136.05,-65.91C134.63,-70.56 128.61,-74 118,-74 100.58,-74 95.55,-64.73 102.9,-56.08"/>
<polygon fill="#63b8ff" stroke="#63b8ff" points="139.33,-64.66 133.1,-56.08 132.62,-66.67 139.33,-64.66"/>
</a>
</g>
</g>
<!-- Node3 -->
<g id="Node000003" class="node">
<title>Node3</title>
<g id="a_Node000003"><a xlink:href="../../db/d0b/_pintest_8ino_afe461d27b9c48d5921c00d521181f12f.html#afe461d27b9c48d5921c00d521181f12f" target="_top" xlink:title=" ">
<polygon fill="white" stroke="#666666" points="38,-56 0,-56 0,-37 38,-37 38,-56"/>
<text text-anchor="middle" x="19" y="-44" font-family="Helvetica,sans-Serif" font-size="10.00">loop</text>
</a>
</g>
</g>
<!-- Node2&#45;&gt;Node3 -->
<g id="edge2_Node000002_Node000003" class="edge">
<title>Node2&#45;&gt;Node3</title>
<g id="a_edge2_Node000002_Node000003"><a xlink:title=" ">
<path fill="none" stroke="#63b8ff" d="M78.11,-46.5C64.23,-46.5 49.27,-46.5 38,-46.5"/>
<polygon fill="#63b8ff" stroke="#63b8ff" points="78.42,-50 88.42,-46.5 78.42,-43 78.42,-50"/>
</a>
</g>
</g>
</g>
</svg>
</svg>

<style type='text/css'>
<![CDATA[
[data-mouse-over-selected='false'] { opacity: 0.7; }
[data-mouse-over-selected='true']  { opacity: 1.0; }
]]>
</style>
<script type="application/ecmascript"><![CDATA[
document.addEventListener('DOMContentLoaded', (event) => {
  highlightEdges();
  highlightAdjacentNodes();
});
]]></script>
</svg>
