<?xml version="1.0" encoding="UTF-8" standalone="no"?>
<!DOCTYPE svg PUBLIC "-//W3C//DTD SVG 1.1//EN"
 "http://www.w3.org/Graphics/SVG/1.1/DTD/svg11.dtd">
<!-- Generated by graphviz version 2.43.0 (0)
 -->
<!-- Title: fl::UINumberField::FL_NO_COPY Pages: 1 -->
<svg width="576pt" height="86pt"
 viewBox="0.00 0.00 576.00 86.00" xmlns="http://www.w3.org/2000/svg" xmlns:xlink="http://www.w3.org/1999/xlink">
<g id="graph0" class="graph" transform="scale(1 1) rotate(0) translate(4 82)">
<title>fl::UINumberField::FL_NO_COPY</title>
<!-- Node1 -->
<g id="Node000001" class="node">
<title>Node1</title>
<g id="a_Node000001"><a xlink:title=" ">
<polygon fill="#999999" stroke="#666666" points="107,-54 0,-54 0,-24 107,-24 107,-54"/>
<text text-anchor="start" x="8" y="-42" font-family="Helvetica,sans-Serif" font-size="10.00">fl::UINumberField::</text>
<text text-anchor="middle" x="53.5" y="-31" font-family="Helvetica,sans-Serif" font-size="10.00">FL_NO_COPY</text>
</a>
</g>
</g>
<!-- Node2 -->
<g id="Node000002" class="node">
<title>Node2</title>
<g id="a_Node000002"><a xlink:href="../../d9/d5f/classfl_1_1_u_i_number_field_aa9fd991cb3abb114bf6c578f92324d3f.html#aa9fd991cb3abb114bf6c578f92324d3f" target="_top" xlink:title=" ">
<polygon fill="white" stroke="#666666" points="250,-54 143,-54 143,-24 250,-24 250,-54"/>
<text text-anchor="start" x="151" y="-42" font-family="Helvetica,sans-Serif" font-size="10.00">fl::UINumberField::</text>
<text text-anchor="middle" x="196.5" y="-31" font-family="Helvetica,sans-Serif" font-size="10.00">UINumberField</text>
</a>
</g>
</g>
<!-- Node1&#45;&gt;Node2 -->
<g id="edge1_Node000001_Node000002" class="edge">
<title>Node1&#45;&gt;Node2</title>
<g id="a_edge1_Node000001_Node000002"><a xlink:title=" ">
<path fill="none" stroke="#63b8ff" d="M107,-39C115.44,-39 124.26,-39 132.9,-39"/>
<polygon fill="#63b8ff" stroke="#63b8ff" points="132.95,-42.5 142.95,-39 132.95,-35.5 132.95,-42.5"/>
</a>
</g>
</g>
<!-- Node3 -->
<g id="Node000003" class="node">
<title>Node3</title>
<g id="a_Node000003"><a xlink:href="../../dd/d62/classfl_1_1_u_i_number_field_impl_a9e5638528b2953f385b55c17daf589b3.html#a9e5638528b2953f385b55c17daf589b3" target="_top" xlink:title=" ">
<polygon fill="white" stroke="#666666" points="409,-78 286,-78 286,-48 409,-48 409,-78"/>
<text text-anchor="start" x="294" y="-66" font-family="Helvetica,sans-Serif" font-size="10.00">fl::UINumberFieldImpl</text>
<text text-anchor="middle" x="347.5" y="-55" font-family="Helvetica,sans-Serif" font-size="10.00">::UINumberFieldImpl</text>
</a>
</g>
</g>
<!-- Node2&#45;&gt;Node3 -->
<g id="edge2_Node000002_Node000003" class="edge">
<title>Node2&#45;&gt;Node3</title>
<g id="a_edge2_Node000002_Node000003"><a xlink:title=" ">
<path fill="none" stroke="#63b8ff" d="M250.03,-47.46C258.34,-48.8 267.05,-50.2 275.7,-51.6"/>
<polygon fill="#63b8ff" stroke="#63b8ff" points="275.36,-55.09 285.79,-53.22 276.47,-48.17 275.36,-55.09"/>
</a>
</g>
</g>
<!-- Node5 -->
<g id="Node000005" class="node">
<title>Node5</title>
<g id="a_Node000005"><a xlink:href="../../d9/d5f/classfl_1_1_u_i_number_field_a12b085596ca5cb182bfe302597f32838.html#a12b085596ca5cb182bfe302597f32838" target="_top" xlink:title=" ">
<polygon fill="white" stroke="#666666" points="401,-30 294,-30 294,0 401,0 401,-30"/>
<text text-anchor="start" x="302" y="-18" font-family="Helvetica,sans-Serif" font-size="10.00">fl::UINumberField::</text>
<text text-anchor="middle" x="347.5" y="-7" font-family="Helvetica,sans-Serif" font-size="10.00">value</text>
</a>
</g>
</g>
<!-- Node2&#45;&gt;Node5 -->
<g id="edge4_Node000002_Node000005" class="edge">
<title>Node2&#45;&gt;Node5</title>
<g id="a_edge4_Node000002_Node000005"><a xlink:title=" ">
<path fill="none" stroke="#63b8ff" d="M250.03,-30.54C260.94,-28.78 272.53,-26.91 283.76,-25.11"/>
<polygon fill="#63b8ff" stroke="#63b8ff" points="284.62,-28.51 293.94,-23.47 283.51,-21.6 284.62,-28.51"/>
</a>
</g>
</g>
<!-- Node4 -->
<g id="Node000004" class="node">
<title>Node4</title>
<g id="a_Node000004"><a xlink:href="../../dd/d62/classfl_1_1_u_i_number_field_impl_abe730a5b06b86d01675192998117d56f.html#abe730a5b06b86d01675192998117d56f" target="_top" xlink:title=" ">
<polygon fill="white" stroke="#666666" points="568,-54 445,-54 445,-24 568,-24 568,-54"/>
<text text-anchor="start" x="453" y="-42" font-family="Helvetica,sans-Serif" font-size="10.00">fl::UINumberFieldImpl</text>
<text text-anchor="middle" x="506.5" y="-31" font-family="Helvetica,sans-Serif" font-size="10.00">::value</text>
</a>
</g>
</g>
<!-- Node3&#45;&gt;Node4 -->
<g id="edge3_Node000003_Node000004" class="edge">
<title>Node3&#45;&gt;Node4</title>
<g id="a_edge3_Node000003_Node000004"><a xlink:title=" ">
<path fill="none" stroke="#63b8ff" d="M409.2,-53.72C417.64,-52.43 426.36,-51.1 434.95,-49.78"/>
<polygon fill="#63b8ff" stroke="#63b8ff" points="435.6,-53.23 444.96,-48.25 434.55,-46.31 435.6,-53.23"/>
</a>
</g>
</g>
<!-- Node5&#45;&gt;Node4 -->
<g id="edge5_Node000005_Node000004" class="edge">
<title>Node5&#45;&gt;Node4</title>
<g id="a_edge5_Node000005_Node000004"><a xlink:title=" ">
<path fill="none" stroke="#63b8ff" d="M401.22,-23.06C411.92,-24.7 423.35,-26.44 434.57,-28.16"/>
<polygon fill="#63b8ff" stroke="#63b8ff" points="434.38,-31.67 444.79,-29.72 435.43,-24.75 434.38,-31.67"/>
</a>
</g>
</g>
</g>
</svg>
