<?xml version="1.0" encoding="UTF-8" standalone="no"?>
<!DOCTYPE svg PUBLIC "-//W3C//DTD SVG 1.1//EN"
 "http://www.w3.org/Graphics/SVG/1.1/DTD/svg11.dtd">
<!-- Generated by graphviz version 2.43.0 (0)
 -->
<!-- Title: third_party/cq_kernel/kiss_fft.h Pages: 1 -->
<!--zoomable 478 -->

<svg id="main" version="1.1" xmlns="http://www.w3.org/2000/svg" xmlns:xlink="http://www.w3.org/1999/xlink" xml:space="preserve" onload="init(evt)">

<style type="text/css"><![CDATA[
.node, .edge {opacity: 0.7;}
.node.selected, .edge.selected {opacity: 1;}
.edge:hover path { stroke: red; }
.edge:hover polygon { stroke: red; fill: red; }
]]></style>

<defs>
  <circle id="rim" cx="0" cy="0" r="7"/>
  <circle id="rim2" cx="0" cy="0" r="3.5"/>
  <g id="zoomPlus">
    <use xlink:href="#rim" fill="#404040"><set attributeName="fill" to="#808080" begin="zoomplus.mouseover" end="zoomplus.mouseout"/></use>
    <path d="M-4,0h8M0,-4v8" fill="none" stroke="white" stroke-width="1.5" pointer-events="none"/>
  </g>
  <g id="zoomMin">
    <use xlink:href="#rim" fill="#404040"><set attributeName="fill" to="#808080" begin="zoomminus.mouseover" end="zoomminus.mouseout"/></use>
    <path d="M-4,0h8" fill="none" stroke="white" stroke-width="1.5" pointer-events="none"/>
  </g>
  <g id="arrowUp" transform="translate(30 24)">
    <use xlink:href="#rim"/>
    <path pointer-events="none" fill="none" stroke="white" stroke-width="1.5" d="M0,-3.0v7 M-2.5,-0.5L0,-3.0L2.5,-0.5"/>
  </g>
  <g id="arrowRight" transform="rotate(90) translate(36 -43)">
    <use xlink:href="#rim"/>
    <path pointer-events="none" fill="none" stroke="white" stroke-width="1.5" d="M0,-3.0v7 M-2.5,-0.5L0,-3.0L2.5,-0.5"/>
  </g>
  <g id="arrowDown" transform="rotate(180) translate(-30 -48)">
    <use xlink:href="#rim"/>
    <path pointer-events="none" fill="none" stroke="white" stroke-width="1.5" d="M0,-3.0v7 M-2.5,-0.5L0,-3.0L2.5,-0.5"/>
  </g>
  <g id="arrowLeft" transform="rotate(270) translate(-36 17)">
    <use xlink:href="#rim"/>
    <path pointer-events="none" fill="none" stroke="white" stroke-width="1.5" d="M0,-3.0v7 M-2.5,-0.5L0,-3.0L2.5,-0.5"/>
  </g>
  <g id="resetDef">
    <use xlink:href="#rim2" fill="#404040"><set attributeName="fill" to="#808080" begin="reset.mouseover" end="reset.mouseout"/></use>
  </g>
</defs>
<script type="application/ecmascript">
var viewWidth = 772;
var viewHeight = 478;
var sectionId = 'dynsection-0';
</script>
<script type="application/ecmascript" xlink:href="../../svg.min.js"/>
<svg id="graph" class="graph">
<g id="viewport">
<title>third_party/cq_kernel/kiss_fft.h</title>
<!-- Node1 -->
<g id="Node000001" class="node">
<title>Node1</title>
<g id="a_Node000001"><a xlink:title=" ">
<polygon fill="#999999" stroke="#666666" points="593.5,-470 474.5,-470 474.5,-440 593.5,-440 593.5,-470"/>
<text text-anchor="start" x="482.5" y="-458" font-family="Helvetica,sans-Serif" font-size="10.00">third_party/cq_kernel</text>
<text text-anchor="middle" x="534" y="-447" font-family="Helvetica,sans-Serif" font-size="10.00">/kiss_fft.h</text>
</a>
</g>
</g>
<!-- Node2 -->
<g id="Node000002" class="node">
<title>Node2</title>
<g id="a_Node000002"><a xlink:title=" ">
<polygon fill="#e0e0e0" stroke="#999999" points="376.5,-404 323.5,-404 323.5,-385 376.5,-385 376.5,-404"/>
<text text-anchor="middle" x="350" y="-392" font-family="Helvetica,sans-Serif" font-size="10.00">stdlib.h</text>
</a>
</g>
</g>
<!-- Node1&#45;&gt;Node2 -->
<g id="edge1_Node000001_Node000002" class="edge">
<title>Node1&#45;&gt;Node2</title>
<g id="a_edge1_Node000001_Node000002"><a xlink:title=" ">
<path fill="none" stroke="#63b8ff" d="M489.93,-439.99C458.21,-429.91 415.96,-416.47 386.21,-407.01"/>
<polygon fill="#63b8ff" stroke="#63b8ff" points="387.23,-403.66 376.64,-403.97 385.1,-410.33 387.23,-403.66"/>
</a>
</g>
</g>
<!-- Node3 -->
<g id="Node000003" class="node">
<title>Node3</title>
<g id="a_Node000003"><a xlink:title=" ">
<polygon fill="#e0e0e0" stroke="#999999" points="445,-404 395,-404 395,-385 445,-385 445,-404"/>
<text text-anchor="middle" x="420" y="-392" font-family="Helvetica,sans-Serif" font-size="10.00">stdio.h</text>
</a>
</g>
</g>
<!-- Node1&#45;&gt;Node3 -->
<g id="edge2_Node000001_Node000003" class="edge">
<title>Node1&#45;&gt;Node3</title>
<g id="a_edge2_Node000001_Node000003"><a xlink:title=" ">
<path fill="none" stroke="#63b8ff" d="M506.69,-439.99C488.35,-430.58 464.32,-418.24 446.21,-408.95"/>
<polygon fill="#63b8ff" stroke="#63b8ff" points="447.33,-405.59 436.84,-404.14 444.13,-411.82 447.33,-405.59"/>
</a>
</g>
</g>
<!-- Node4 -->
<g id="Node000004" class="node">
<title>Node4</title>
<g id="a_Node000004"><a xlink:href="../../df/dd8/stdint_8h.html" target="_top" xlink:title=" ">
<polygon fill="white" stroke="#666666" points="455.5,-74 402.5,-74 402.5,-55 455.5,-55 455.5,-74"/>
<text text-anchor="middle" x="429" y="-62" font-family="Helvetica,sans-Serif" font-size="10.00">stdint.h</text>
</a>
</g>
</g>
<!-- Node1&#45;&gt;Node4 -->
<g id="edge3_Node000001_Node000004" class="edge">
<title>Node1&#45;&gt;Node4</title>
<g id="a_edge3_Node000001_Node000004"><a xlink:title=" ">
<path fill="none" stroke="#63b8ff" d="M571.6,-439.91C610,-422.8 664,-389.94 664,-340.5 664,-340.5 664,-340.5 664,-173.5 664,-143.77 665.19,-129.78 643,-110 617.24,-87.03 520.07,-74.24 465.96,-68.76"/>
<polygon fill="#63b8ff" stroke="#63b8ff" points="466.04,-65.25 455.74,-67.76 465.35,-72.21 466.04,-65.25"/>
</a>
</g>
</g>
<!-- Node6 -->
<g id="Node000006" class="node">
<title>Node6</title>
<g id="a_Node000006"><a xlink:href="../../df/db1/math_8h.html" target="_top" xlink:title=" ">
<polygon fill="white" stroke="#666666" points="578.5,-239 527.5,-239 527.5,-220 578.5,-220 578.5,-239"/>
<text text-anchor="middle" x="553" y="-227" font-family="Helvetica,sans-Serif" font-size="10.00">math.h</text>
</a>
</g>
</g>
<!-- Node1&#45;&gt;Node6 -->
<g id="edge6_Node000001_Node000006" class="edge">
<title>Node1&#45;&gt;Node6</title>
<g id="a_edge6_Node000001_Node000006"><a xlink:title=" ">
<path fill="none" stroke="#63b8ff" d="M538.03,-439.69C546.1,-409.43 563.14,-336.68 559,-275 558.43,-266.54 557.26,-257.24 556.11,-249.34"/>
<polygon fill="#63b8ff" stroke="#63b8ff" points="559.55,-248.67 554.55,-239.33 552.63,-249.75 559.55,-248.67"/>
</a>
</g>
</g>
<!-- Node11 -->
<g id="Node000011" class="node">
<title>Node11</title>
<g id="a_Node000011"><a xlink:href="../../da/d66/string_8h.html" target="_top" xlink:title=" ">
<polygon fill="white" stroke="#666666" points="516.5,-404 463.5,-404 463.5,-385 516.5,-385 516.5,-404"/>
<text text-anchor="middle" x="490" y="-392" font-family="Helvetica,sans-Serif" font-size="10.00">string.h</text>
</a>
</g>
</g>
<!-- Node1&#45;&gt;Node11 -->
<g id="edge17_Node000001_Node000011" class="edge">
<title>Node1&#45;&gt;Node11</title>
<g id="a_edge17_Node000001_Node000011"><a xlink:title=" ">
<path fill="none" stroke="#63b8ff" d="M523.35,-439.84C517.16,-431.61 509.31,-421.18 502.79,-412.51"/>
<polygon fill="#63b8ff" stroke="#63b8ff" points="505.4,-410.15 496.59,-404.27 499.81,-414.36 505.4,-410.15"/>
</a>
</g>
</g>
<!-- Node23 -->
<g id="Node000023" class="node">
<title>Node23</title>
<g id="a_Node000023"><a xlink:title=" ">
<polygon fill="#e0e0e0" stroke="#999999" points="764,-404 692,-404 692,-385 764,-385 764,-404"/>
<text text-anchor="middle" x="728" y="-392" font-family="Helvetica,sans-Serif" font-size="10.00">sys/types.h</text>
</a>
</g>
</g>
<!-- Node1&#45;&gt;Node23 -->
<g id="edge36_Node000001_Node000023" class="edge">
<title>Node1&#45;&gt;Node23</title>
<g id="a_edge36_Node000001_Node000023"><a xlink:title=" ">
<path fill="none" stroke="#63b8ff" d="M580.47,-439.99C613.95,-429.89 658.57,-416.44 689.94,-406.98"/>
<polygon fill="#63b8ff" stroke="#63b8ff" points="691.07,-410.29 699.63,-404.05 689.05,-403.59 691.07,-410.29"/>
</a>
</g>
</g>
<!-- Node4&#45;&gt;Node4 -->
<g id="edge5_Node000004_Node000004" class="edge">
<title>Node4&#45;&gt;Node4</title>
<g id="a_edge5_Node000004_Node000004"><a xlink:title=" ">
<path fill="none" stroke="#63b8ff" d="M450.06,-74.07C462.2,-76.02 473.5,-72.83 473.5,-64.5 473.5,-58.58 467.79,-55.25 460.12,-54.53"/>
<polygon fill="#63b8ff" stroke="#63b8ff" points="459.91,-51.03 450.06,-54.93 460.19,-58.03 459.91,-51.03"/>
</a>
</g>
</g>
<!-- Node5 -->
<g id="Node000005" class="node">
<title>Node5</title>
<g id="a_Node000005"><a xlink:title=" ">
<polygon fill="#e0e0e0" stroke="#999999" points="318,-19 262,-19 262,0 318,0 318,-19"/>
<text text-anchor="middle" x="290" y="-7" font-family="Helvetica,sans-Serif" font-size="10.00">stddef.h</text>
</a>
</g>
</g>
<!-- Node4&#45;&gt;Node5 -->
<g id="edge4_Node000004_Node000005" class="edge">
<title>Node4&#45;&gt;Node5</title>
<g id="a_edge4_Node000004_Node000005"><a xlink:title=" ">
<path fill="none" stroke="#63b8ff" d="M406.67,-54.98C383.8,-46.27 348.04,-32.63 322.14,-22.75"/>
<polygon fill="#63b8ff" stroke="#63b8ff" points="323.33,-19.46 312.74,-19.17 320.84,-26 323.33,-19.46"/>
</a>
</g>
</g>
<!-- Node6&#45;&gt;Node6 -->
<g id="edge16_Node000006_Node000006" class="edge">
<title>Node6&#45;&gt;Node6</title>
<g id="a_edge16_Node000006_Node000006"><a xlink:title=" ">
<path fill="none" stroke="#63b8ff" d="M573.59,-239.07C585.45,-241.02 596.5,-237.83 596.5,-229.5 596.5,-223.64 591.04,-220.33 583.67,-219.55"/>
<polygon fill="#63b8ff" stroke="#63b8ff" points="583.45,-216.06 573.59,-219.93 583.71,-223.05 583.45,-216.06"/>
</a>
</g>
</g>
<!-- Node7 -->
<g id="Node000007" class="node">
<title>Node7</title>
<g id="a_Node000007"><a xlink:href="../../d6/dd3/clamp_8h.html" target="_top" xlink:title=" ">
<polygon fill="white" stroke="#666666" points="633.5,-129 568.5,-129 568.5,-110 633.5,-110 633.5,-129"/>
<text text-anchor="middle" x="601" y="-117" font-family="Helvetica,sans-Serif" font-size="10.00">fl/clamp.h</text>
</a>
</g>
</g>
<!-- Node6&#45;&gt;Node7 -->
<g id="edge7_Node000006_Node000007" class="edge">
<title>Node6&#45;&gt;Node7</title>
<g id="a_edge7_Node000006_Node000007"><a xlink:title=" ">
<path fill="none" stroke="#63b8ff" d="M569.89,-219.95C582.71,-212.43 599.38,-200.15 607,-184 613.64,-169.92 611.18,-152.14 607.61,-138.99"/>
<polygon fill="#63b8ff" stroke="#63b8ff" points="610.87,-137.69 604.52,-129.2 604.19,-139.79 610.87,-137.69"/>
</a>
</g>
</g>
<!-- Node9 -->
<g id="Node000009" class="node">
<title>Node9</title>
<g id="a_Node000009"><a xlink:href="../../d1/d47/map__range_8h.html" target="_top" xlink:title=" ">
<polygon fill="white" stroke="#666666" points="597.5,-184 508.5,-184 508.5,-165 597.5,-165 597.5,-184"/>
<text text-anchor="middle" x="553" y="-172" font-family="Helvetica,sans-Serif" font-size="10.00">fl/map_range.h</text>
</a>
</g>
</g>
<!-- Node6&#45;&gt;Node9 -->
<g id="edge10_Node000006_Node000009" class="edge">
<title>Node6&#45;&gt;Node9</title>
<g id="a_edge10_Node000006_Node000009"><a xlink:title=" ">
<path fill="none" stroke="#63b8ff" d="M553,-219.75C553,-212.8 553,-202.85 553,-194.13"/>
<polygon fill="#63b8ff" stroke="#63b8ff" points="556.5,-194.09 553,-184.09 549.5,-194.09 556.5,-194.09"/>
</a>
</g>
</g>
<!-- Node10 -->
<g id="Node000010" class="node">
<title>Node10</title>
<g id="a_Node000010"><a xlink:href="../../d8/db8/math__macros_8h.html" target="_top" xlink:title=" ">
<polygon fill="white" stroke="#666666" points="498.5,-129 397.5,-129 397.5,-110 498.5,-110 498.5,-129"/>
<text text-anchor="middle" x="448" y="-117" font-family="Helvetica,sans-Serif" font-size="10.00">fl/math_macros.h</text>
</a>
</g>
</g>
<!-- Node6&#45;&gt;Node10 -->
<g id="edge15_Node000006_Node000010" class="edge">
<title>Node6&#45;&gt;Node10</title>
<g id="a_edge15_Node000006_Node000010"><a xlink:title=" ">
<path fill="none" stroke="#63b8ff" d="M541.51,-219.87C530.4,-211.29 513.34,-197.51 500,-184 485.36,-169.17 470.47,-150.56 460.4,-137.33"/>
<polygon fill="#63b8ff" stroke="#63b8ff" points="463.06,-135.04 454.26,-129.14 457.46,-139.24 463.06,-135.04"/>
</a>
</g>
</g>
<!-- Node7&#45;&gt;Node4 -->
<g id="edge8_Node000007_Node000004" class="edge">
<title>Node7&#45;&gt;Node4</title>
<g id="a_edge8_Node000007_Node000004"><a xlink:title=" ">
<path fill="none" stroke="#63b8ff" d="M573.37,-109.98C544.15,-100.98 497.91,-86.73 465.66,-76.8"/>
<polygon fill="#63b8ff" stroke="#63b8ff" points="466.3,-73.33 455.72,-73.73 464.24,-80.02 466.3,-73.33"/>
</a>
</g>
</g>
<!-- Node8 -->
<g id="Node000008" class="node">
<title>Node8</title>
<g id="a_Node000008"><a xlink:href="../../d4/d64/force__inline_8h.html" target="_top" xlink:title=" ">
<polygon fill="white" stroke="#666666" points="697,-74 605,-74 605,-55 697,-55 697,-74"/>
<text text-anchor="middle" x="651" y="-62" font-family="Helvetica,sans-Serif" font-size="10.00">fl/force_inline.h</text>
</a>
</g>
</g>
<!-- Node7&#45;&gt;Node8 -->
<g id="edge9_Node000007_Node000008" class="edge">
<title>Node7&#45;&gt;Node8</title>
<g id="a_edge9_Node000007_Node000008"><a xlink:title=" ">
<path fill="none" stroke="#63b8ff" d="M609.26,-109.75C616.46,-102.11 627.11,-90.82 635.85,-81.56"/>
<polygon fill="#63b8ff" stroke="#63b8ff" points="638.58,-83.76 642.9,-74.09 633.49,-78.96 638.58,-83.76"/>
</a>
</g>
</g>
<!-- Node9&#45;&gt;Node4 -->
<g id="edge11_Node000009_Node000004" class="edge">
<title>Node9&#45;&gt;Node4</title>
<g id="a_edge11_Node000009_Node000004"><a xlink:title=" ">
<path fill="none" stroke="#63b8ff" d="M548.47,-164.78C541.3,-151.61 526.27,-126.47 508,-110 493.57,-96.99 474.7,-86.19 459.02,-78.48"/>
<polygon fill="#63b8ff" stroke="#63b8ff" points="460.27,-75.2 449.74,-74.09 457.28,-81.53 460.27,-75.2"/>
</a>
</g>
</g>
<!-- Node9&#45;&gt;Node7 -->
<g id="edge12_Node000009_Node000007" class="edge">
<title>Node9&#45;&gt;Node7</title>
<g id="a_edge12_Node000009_Node000007"><a xlink:title=" ">
<path fill="none" stroke="#63b8ff" d="M560.93,-164.75C567.85,-157.11 578.07,-145.82 586.45,-136.56"/>
<polygon fill="#63b8ff" stroke="#63b8ff" points="589.1,-138.85 593.22,-129.09 583.91,-134.15 589.1,-138.85"/>
</a>
</g>
</g>
<!-- Node9&#45;&gt;Node8 -->
<g id="edge13_Node000009_Node000008" class="edge">
<title>Node9&#45;&gt;Node8</title>
<g id="a_edge13_Node000009_Node000008"><a xlink:title=" ">
<path fill="none" stroke="#63b8ff" d="M588.3,-164.88C607.56,-158.3 630.06,-147.18 643,-129 652.16,-116.13 653.61,-97.96 653.09,-84.36"/>
<polygon fill="#63b8ff" stroke="#63b8ff" points="656.57,-83.92 652.32,-74.22 649.59,-84.46 656.57,-83.92"/>
</a>
</g>
</g>
<!-- Node9&#45;&gt;Node10 -->
<g id="edge14_Node000009_Node000010" class="edge">
<title>Node9&#45;&gt;Node10</title>
<g id="a_edge14_Node000009_Node000010"><a xlink:title=" ">
<path fill="none" stroke="#63b8ff" d="M536.13,-164.98C519.39,-156.54 493.5,-143.47 474.11,-133.68"/>
<polygon fill="#63b8ff" stroke="#63b8ff" points="475.68,-130.55 465.18,-129.17 472.53,-136.8 475.68,-130.55"/>
</a>
</g>
</g>
<!-- Node12 -->
<g id="Node000012" class="node">
<title>Node12</title>
<g id="a_Node000012"><a xlink:href="../../d1/d93/str_8h.html" target="_top" xlink:title=" ">
<polygon fill="white" stroke="#666666" points="427.5,-349 380.5,-349 380.5,-330 427.5,-330 427.5,-349"/>
<text text-anchor="middle" x="404" y="-337" font-family="Helvetica,sans-Serif" font-size="10.00">fl/str.h</text>
</a>
</g>
</g>
<!-- Node11&#45;&gt;Node12 -->
<g id="edge18_Node000011_Node000012" class="edge">
<title>Node11&#45;&gt;Node12</title>
<g id="a_edge18_Node000011_Node000012"><a xlink:title=" ">
<path fill="none" stroke="#63b8ff" d="M471.07,-384.98C456.2,-376.92 435.96,-364.65 421.48,-355.03"/>
<polygon fill="#63b8ff" stroke="#63b8ff" points="423.15,-351.93 412.92,-349.17 419.2,-357.71 423.15,-351.93"/>
</a>
</g>
</g>
<!-- Node12&#45;&gt;Node4 -->
<g id="edge19_Node000012_Node000004" class="edge">
<title>Node12&#45;&gt;Node4</title>
<g id="a_edge19_Node000012_Node000004"><a xlink:title=" ">
<path fill="none" stroke="#63b8ff" d="M400.91,-329.81C390.37,-298.73 358.12,-190.55 389,-110 393.24,-98.94 401.64,-88.91 409.64,-81.18"/>
<polygon fill="#63b8ff" stroke="#63b8ff" points="412.25,-83.55 417.36,-74.27 407.58,-78.33 412.25,-83.55"/>
</a>
</g>
</g>
<!-- Node12&#45;&gt;Node10 -->
<g id="edge23_Node000012_Node000010" class="edge">
<title>Node12&#45;&gt;Node10</title>
<g id="a_edge23_Node000012_Node000010"><a xlink:title=" ">
<path fill="none" stroke="#63b8ff" d="M407.14,-329.73C410.24,-320.83 414.94,-306.59 418,-294 431.48,-238.44 441.28,-171.45 445.58,-139.4"/>
<polygon fill="#63b8ff" stroke="#63b8ff" points="449.08,-139.62 446.91,-129.25 442.14,-138.71 449.08,-139.62"/>
</a>
</g>
</g>
<!-- Node12&#45;&gt;Node11 -->
<g id="edge20_Node000012_Node000011" class="edge">
<title>Node12&#45;&gt;Node11</title>
<g id="a_edge20_Node000012_Node000011"><a xlink:title=" ">
<path fill="none" stroke="#63b8ff" d="M423.22,-349.17C438.15,-357.29 458.39,-369.57 472.79,-379.15"/>
<polygon fill="#63b8ff" stroke="#63b8ff" points="471.07,-382.21 481.3,-384.98 475.03,-376.44 471.07,-382.21"/>
</a>
</g>
</g>
<!-- Node13 -->
<g id="Node000013" class="node">
<title>Node13</title>
<g id="a_Node000013"><a xlink:href="../../d4/d67/geometry_8h.html" target="_top" xlink:title=" ">
<polygon fill="white" stroke="#666666" points="550,-294 470,-294 470,-275 550,-275 550,-294"/>
<text text-anchor="middle" x="510" y="-282" font-family="Helvetica,sans-Serif" font-size="10.00">fl/geometry.h</text>
</a>
</g>
</g>
<!-- Node12&#45;&gt;Node13 -->
<g id="edge21_Node000012_Node000013" class="edge">
<title>Node12&#45;&gt;Node13</title>
<g id="a_edge21_Node000012_Node000013"><a xlink:title=" ">
<path fill="none" stroke="#63b8ff" d="M421.03,-329.98C437.93,-321.54 464.06,-308.47 483.64,-298.68"/>
<polygon fill="#63b8ff" stroke="#63b8ff" points="485.28,-301.77 492.66,-294.17 482.15,-295.51 485.28,-301.77"/>
</a>
</g>
</g>
<!-- Node14 -->
<g id="Node000014" class="node">
<title>Node14</title>
<g id="a_Node000014"><a xlink:href="../../df/d2a/namespace_8h.html" target="_top" xlink:title="Implements the FastLED namespace macros.">
<polygon fill="white" stroke="#666666" points="261.5,-239 170.5,-239 170.5,-220 261.5,-220 261.5,-239"/>
<text text-anchor="middle" x="216" y="-227" font-family="Helvetica,sans-Serif" font-size="10.00">fl/namespace.h</text>
</a>
</g>
</g>
<!-- Node12&#45;&gt;Node14 -->
<g id="edge24_Node000012_Node000014" class="edge">
<title>Node12&#45;&gt;Node14</title>
<g id="a_edge24_Node000012_Node000014"><a xlink:title=" ">
<path fill="none" stroke="#63b8ff" d="M380.25,-330.39C358.42,-322.49 325.52,-309.43 299,-294 274.7,-279.86 249.4,-259.57 233.22,-245.75"/>
<polygon fill="#63b8ff" stroke="#63b8ff" points="235.49,-243.09 225.64,-239.19 230.91,-248.38 235.49,-243.09"/>
</a>
</g>
</g>
<!-- Node15 -->
<g id="Node000015" class="node">
<title>Node15</title>
<g id="a_Node000015"><a xlink:href="../../dd/d98/ptr_8h.html" target="_top" xlink:title=" ">
<polygon fill="#fff0f0" stroke="red" points="212.5,-294 165.5,-294 165.5,-275 212.5,-275 212.5,-294"/>
<text text-anchor="middle" x="189" y="-282" font-family="Helvetica,sans-Serif" font-size="10.00">fl/ptr.h</text>
</a>
</g>
</g>
<!-- Node12&#45;&gt;Node15 -->
<g id="edge25_Node000012_Node000015" class="edge">
<title>Node12&#45;&gt;Node15</title>
<g id="a_edge25_Node000012_Node000015"><a xlink:title=" ">
<path fill="none" stroke="#63b8ff" d="M380.17,-332.63C341.81,-323.17 266.25,-304.54 222.49,-293.75"/>
<polygon fill="#63b8ff" stroke="#63b8ff" points="223.16,-290.32 212.61,-291.32 221.48,-297.11 223.16,-290.32"/>
</a>
</g>
</g>
<!-- Node17 -->
<g id="Node000017" class="node">
<title>Node17</title>
<g id="a_Node000017"><a xlink:href="../../d8/d0c/template__magic_8h.html" target="_top" xlink:title=" ">
<polygon fill="#fff0f0" stroke="red" points="114,-239 0,-239 0,-220 114,-220 114,-239"/>
<text text-anchor="middle" x="57" y="-227" font-family="Helvetica,sans-Serif" font-size="10.00">fl/template_magic.h</text>
</a>
</g>
</g>
<!-- Node12&#45;&gt;Node17 -->
<g id="edge29_Node000012_Node000017" class="edge">
<title>Node12&#45;&gt;Node17</title>
<g id="a_edge29_Node000012_Node000017"><a xlink:title=" ">
<path fill="none" stroke="#63b8ff" d="M380.26,-337.32C335.11,-334.42 234.39,-324.76 156,-294 125.48,-282.02 94.3,-260.09 75.29,-245.4"/>
<polygon fill="#63b8ff" stroke="#63b8ff" points="77.25,-242.48 67.23,-239.04 72.91,-247.98 77.25,-242.48"/>
</a>
</g>
</g>
<!-- Node19 -->
<g id="Node000019" class="node">
<title>Node19</title>
<g id="a_Node000019"><a xlink:href="../../d6/d68/vector_8h.html" target="_top" xlink:title=" ">
<polygon fill="#fff0f0" stroke="red" points="372.5,-294 307.5,-294 307.5,-275 372.5,-275 372.5,-294"/>
<text text-anchor="middle" x="340" y="-282" font-family="Helvetica,sans-Serif" font-size="10.00">fl/vector.h</text>
</a>
</g>
</g>
<!-- Node12&#45;&gt;Node19 -->
<g id="edge30_Node000012_Node000019" class="edge">
<title>Node12&#45;&gt;Node19</title>
<g id="a_edge30_Node000012_Node000019"><a xlink:title=" ">
<path fill="none" stroke="#63b8ff" d="M393.72,-329.98C384.16,-322.07 369.72,-310.11 358.22,-300.58"/>
<polygon fill="#63b8ff" stroke="#63b8ff" points="360.4,-297.85 350.47,-294.17 355.94,-303.24 360.4,-297.85"/>
</a>
</g>
</g>
<!-- Node13&#45;&gt;Node6 -->
<g id="edge22_Node000013_Node000006" class="edge">
<title>Node13&#45;&gt;Node6</title>
<g id="a_edge22_Node000013_Node000006"><a xlink:title=" ">
<path fill="none" stroke="#63b8ff" d="M517.1,-274.75C523.17,-267.26 532.09,-256.28 539.51,-247.13"/>
<polygon fill="#63b8ff" stroke="#63b8ff" points="542.45,-249.06 546.03,-239.09 537.01,-244.65 542.45,-249.06"/>
</a>
</g>
</g>
<!-- Node15&#45;&gt;Node5 -->
<g id="edge26_Node000015_Node000005" class="edge">
<title>Node15&#45;&gt;Node5</title>
<g id="a_edge26_Node000015_Node000005"><a xlink:title=" ">
<path fill="none" stroke="#63b8ff" d="M182.27,-274.82C169.27,-257.17 142,-215.37 142,-175.5 142,-175.5 142,-175.5 142,-118.5 142,-64.05 208.16,-34.13 252.01,-20.28"/>
<polygon fill="#63b8ff" stroke="#63b8ff" points="253.25,-23.57 261.81,-17.33 251.23,-16.86 253.25,-23.57"/>
</a>
</g>
</g>
<!-- Node15&#45;&gt;Node14 -->
<g id="edge27_Node000015_Node000014" class="edge">
<title>Node15&#45;&gt;Node14</title>
<g id="a_edge27_Node000015_Node000014"><a xlink:title=" ">
<path fill="none" stroke="#63b8ff" d="M193.46,-274.75C197.12,-267.57 202.41,-257.18 206.95,-248.27"/>
<polygon fill="#63b8ff" stroke="#63b8ff" points="210.2,-249.59 211.62,-239.09 203.97,-246.41 210.2,-249.59"/>
</a>
</g>
</g>
<!-- Node15&#45;&gt;Node17 -->
<g id="edge28_Node000015_Node000017" class="edge">
<title>Node15&#45;&gt;Node17</title>
<g id="a_edge28_Node000015_Node000017"><a xlink:title=" ">
<path fill="none" stroke="#63b8ff" d="M167.79,-274.98C146.27,-266.34 112.72,-252.87 88.17,-243.02"/>
<polygon fill="#63b8ff" stroke="#63b8ff" points="89.18,-239.65 78.59,-239.17 86.57,-246.14 89.18,-239.65"/>
</a>
</g>
</g>
<!-- Node19&#45;&gt;Node4 -->
<g id="edge32_Node000019_Node000004" class="edge">
<title>Node19&#45;&gt;Node4</title>
<g id="a_edge32_Node000019_Node000004"><a xlink:title=" ">
<path fill="none" stroke="#63b8ff" d="M337.94,-274.7C332.12,-247.65 318.11,-164.3 352,-110 361.34,-95.03 377.69,-84.56 392.92,-77.55"/>
<polygon fill="#63b8ff" stroke="#63b8ff" points="394.35,-80.75 402.19,-73.63 391.62,-74.3 394.35,-80.75"/>
</a>
</g>
</g>
<!-- Node19&#45;&gt;Node5 -->
<g id="edge31_Node000019_Node000005" class="edge">
<title>Node19&#45;&gt;Node5</title>
<g id="a_edge31_Node000019_Node000005"><a xlink:title=" ">
<path fill="none" stroke="#63b8ff" d="M332.84,-274.89C319.01,-257.36 290,-215.79 290,-175.5 290,-175.5 290,-175.5 290,-118.5 290,-87.19 290,-50.77 290,-29.23"/>
<polygon fill="#63b8ff" stroke="#63b8ff" points="293.5,-29.18 290,-19.18 286.5,-29.18 293.5,-29.18"/>
</a>
</g>
</g>
<!-- Node19&#45;&gt;Node10 -->
<g id="edge34_Node000019_Node000010" class="edge">
<title>Node19&#45;&gt;Node10</title>
<g id="a_edge34_Node000019_Node000010"><a xlink:title=" ">
<path fill="none" stroke="#63b8ff" d="M345.81,-274.74C362.95,-248.87 413.56,-172.48 436.48,-137.88"/>
<polygon fill="#63b8ff" stroke="#63b8ff" points="439.56,-139.58 442.16,-129.31 433.72,-135.71 439.56,-139.58"/>
</a>
</g>
</g>
<!-- Node19&#45;&gt;Node11 -->
<g id="edge33_Node000019_Node000011" class="edge">
<title>Node19&#45;&gt;Node11</title>
<g id="a_edge33_Node000019_Node000011"><a xlink:title=" ">
<path fill="none" stroke="#63b8ff" d="M366.86,-294.14C387.37,-301.57 415.66,-313.68 437,-330 453.87,-342.9 468.93,-362.08 478.65,-375.99"/>
<polygon fill="#63b8ff" stroke="#63b8ff" points="475.99,-378.3 484.48,-384.63 481.79,-374.38 475.99,-378.3"/>
</a>
</g>
</g>
<!-- Node19&#45;&gt;Node14 -->
<g id="edge35_Node000019_Node000014" class="edge">
<title>Node19&#45;&gt;Node14</title>
<g id="a_edge35_Node000019_Node000014"><a xlink:title=" ">
<path fill="none" stroke="#63b8ff" d="M320.08,-274.98C299.95,-266.38 268.62,-252.99 245.59,-243.15"/>
<polygon fill="#63b8ff" stroke="#63b8ff" points="246.86,-239.88 236.29,-239.17 244.1,-246.32 246.86,-239.88"/>
</a>
</g>
</g>
</g>
</svg>

<g id="navigator" transform="translate(0 0)" fill="#404254">
  <rect fill="#f2f5e9" fill-opacity="0.5" stroke="#606060" stroke-width=".5" x="0" y="0" width="60" height="60"/>
  <use id="zoomplus" xlink:href="#zoomPlus" x="17" y="9" onmousedown="handleZoom(evt,'in')"/>
  <use id="zoomminus" xlink:href="#zoomMin" x="42" y="9" onmousedown="handleZoom(evt,'out')"/>
  <use id="reset" xlink:href="#resetDef" x="30" y="36" onmousedown="handleReset()"/>
   <use id="arrowup" xlink:href="#arrowUp" x="0" y="0" onmousedown="handlePan(0,-1)"/>
  <use id="arrowright" xlink:href="#arrowRight" x="0" y="0" onmousedown="handlePan(1,0)"/>
  <use id="arrowdown" xlink:href="#arrowDown" x="0" y="0" onmousedown="handlePan(0,1)"/>
  <use id="arrowleft" xlink:href="#arrowLeft" x="0" y="0" onmousedown="handlePan(-1,0)"/>
</g>
<svg viewBox="0 0 15 15" width="100%" height="30px" preserveAspectRatio="xMaxYMin meet">
 <g id="arrow_out" transform="scale(0.3 0.3)">
  <a xlink:href="kiss__fft_8h__incl_org.svg" target="_base">
   <rect id="button" ry="5" rx="5" y="6" x="6" height="38" width="38"
        fill="#f2f5e9" fill-opacity="0.5" stroke="#606060" stroke-width="1.0"/>
   <path id="arrow"
     d="M 11.500037,31.436501 C 11.940474,20.09759 22.043105,11.32322 32.158766,21.979434 L 37.068811,17.246167 C 37.068811,17.246167 37.088388,32 37.088388,32 L 22.160133,31.978069 C 22.160133,31.978069 26.997745,27.140456 26.997745,27.140456 C 18.528582,18.264221 13.291696,25.230495 11.500037,31.436501 z"
     style="fill:#404040;"/>
  </a>
 </g>
</svg>

<style type='text/css'>
<![CDATA[
[data-mouse-over-selected='false'] { opacity: 0.7; }
[data-mouse-over-selected='true']  { opacity: 1.0; }
]]>
</style>
<script type="application/ecmascript"><![CDATA[
document.addEventListener('DOMContentLoaded', (event) => {
  highlightEdges();
  highlightAdjacentNodes();
});
]]></script>
</svg>
