<?xml version="1.0" encoding="UTF-8" standalone="no"?>
<!DOCTYPE svg PUBLIC "-//W3C//DTD SVG 1.1//EN"
 "http://www.w3.org/Graphics/SVG/1.1/DTD/svg11.dtd">
<!-- Generated by graphviz version 2.43.0 (0)
 -->
<!-- Title: fl/remote/rpc/function_traits.h Pages: 1 -->
<svg width="402pt" height="313pt"
 viewBox="0.00 0.00 402.22 313.00" xmlns="http://www.w3.org/2000/svg" xmlns:xlink="http://www.w3.org/1999/xlink">

<svg id="main" version="1.1" xmlns="http://www.w3.org/2000/svg" xmlns:xlink="http://www.w3.org/1999/xlink" xml:space="preserve">

<style type="text/css"><![CDATA[
.node, .edge {opacity: 0.7;}
.node.selected, .edge.selected {opacity: 1;}
.edge:hover path { stroke: red; }
.edge:hover polygon { stroke: red; fill: red; }
]]></style>
<script type="application/ecmascript" xlink:href="../../svg.min.js"/>
<svg id="graph" class="graph">
<g id="graph0" class="graph" transform="scale(1 1) rotate(0) translate(4 309)">
<title>fl/remote/rpc/function_traits.h</title>
<!-- Node1 -->
<g id="Node000001" class="node">
<title>Node1</title>
<g id="a_Node000001"><a xlink:title=" ">
<polygon fill="#999999" stroke="#666666" points="122,-305 0,-305 0,-275 122,-275 122,-305"/>
<text text-anchor="start" x="8" y="-293" font-family="Helvetica,sans-Serif" font-size="10.00">fl/remote/rpc/function</text>
<text text-anchor="middle" x="61" y="-282" font-family="Helvetica,sans-Serif" font-size="10.00">_traits.h</text>
</a>
</g>
</g>
<!-- Node2 -->
<g id="Node000002" class="node">
<title>Node2</title>
<g id="a_Node000002"><a xlink:href="../../df/dd8/stdint_8h.html" target="_top" xlink:title=" ">
<polygon fill="white" stroke="#666666" points="94.5,-74 17.5,-74 17.5,-55 94.5,-55 94.5,-74"/>
<text text-anchor="middle" x="56" y="-62" font-family="Helvetica,sans-Serif" font-size="10.00">fl/stl/stdint.h</text>
</a>
</g>
</g>
<!-- Node1&#45;&gt;Node2 -->
<g id="edge1_Node000001_Node000002" class="edge">
<title>Node1&#45;&gt;Node2</title>
<g id="a_edge1_Node000001_Node000002"><a xlink:title=" ">
<path fill="none" stroke="#63b8ff" d="M57.66,-274.58C51.05,-244.12 37.57,-171.01 45,-110 46.06,-101.31 48.24,-91.87 50.38,-83.93"/>
<polygon fill="#63b8ff" stroke="#63b8ff" points="53.77,-84.83 53.17,-74.25 47.04,-82.89 53.77,-84.83"/>
</a>
</g>
</g>
<!-- Node4 -->
<g id="Node000004" class="node">
<title>Node4</title>
<g id="a_Node000004"><a xlink:href="../../d2/d20/tuple_8h.html" target="_top" xlink:title=" ">
<polygon fill="white" stroke="#666666" points="205,-239 131,-239 131,-220 205,-220 205,-239"/>
<text text-anchor="middle" x="168" y="-227" font-family="Helvetica,sans-Serif" font-size="10.00">fl/stl/tuple.h</text>
</a>
</g>
</g>
<!-- Node1&#45;&gt;Node4 -->
<g id="edge3_Node000001_Node000004" class="edge">
<title>Node1&#45;&gt;Node4</title>
<g id="a_edge3_Node000001_Node000004"><a xlink:title=" ">
<path fill="none" stroke="#63b8ff" d="M86.63,-274.99C103.84,-265.58 126.4,-253.24 143.4,-243.95"/>
<polygon fill="#63b8ff" stroke="#63b8ff" points="145.1,-247.01 152.2,-239.14 141.75,-240.87 145.1,-247.01"/>
</a>
</g>
</g>
<!-- Node3 -->
<g id="Node000003" class="node">
<title>Node3</title>
<g id="a_Node000003"><a xlink:title=" ">
<polygon fill="#e0e0e0" stroke="#999999" points="100.5,-19 11.5,-19 11.5,0 100.5,0 100.5,-19"/>
<text text-anchor="middle" x="56" y="-7" font-family="Helvetica,sans-Serif" font-size="10.00">platforms/int.h</text>
</a>
</g>
</g>
<!-- Node2&#45;&gt;Node3 -->
<g id="edge2_Node000002_Node000003" class="edge">
<title>Node2&#45;&gt;Node3</title>
<g id="a_edge2_Node000002_Node000003"><a xlink:title=" ">
<path fill="none" stroke="#63b8ff" d="M56,-54.75C56,-47.8 56,-37.85 56,-29.13"/>
<polygon fill="#63b8ff" stroke="#63b8ff" points="59.5,-29.09 56,-19.09 52.5,-29.09 59.5,-29.09"/>
</a>
</g>
</g>
<!-- Node5 -->
<g id="Node000005" class="node">
<title>Node5</title>
<g id="a_Node000005"><a xlink:href="../../d7/d84/cstddef_8h.html" target="_top" xlink:title=" ">
<polygon fill="white" stroke="#666666" points="154.5,-184 69.5,-184 69.5,-165 154.5,-165 154.5,-184"/>
<text text-anchor="middle" x="112" y="-172" font-family="Helvetica,sans-Serif" font-size="10.00">fl/stl/cstddef.h</text>
</a>
</g>
</g>
<!-- Node4&#45;&gt;Node5 -->
<g id="edge4_Node000004_Node000005" class="edge">
<title>Node4&#45;&gt;Node5</title>
<g id="a_edge4_Node000004_Node000005"><a xlink:title=" ">
<path fill="none" stroke="#63b8ff" d="M159,-219.98C150.81,-212.23 138.49,-200.58 128.53,-191.14"/>
<polygon fill="#63b8ff" stroke="#63b8ff" points="130.83,-188.5 121.16,-184.17 126.02,-193.59 130.83,-188.5"/>
</a>
</g>
</g>
<!-- Node6 -->
<g id="Node000006" class="node">
<title>Node6</title>
<g id="a_Node000006"><a xlink:href="../../df/d63/type__traits_8h.html" target="_top" xlink:title=" ">
<polygon fill="white" stroke="#666666" points="275,-184 173,-184 173,-165 275,-165 275,-184"/>
<text text-anchor="middle" x="224" y="-172" font-family="Helvetica,sans-Serif" font-size="10.00">fl/stl/type_traits.h</text>
</a>
</g>
</g>
<!-- Node4&#45;&gt;Node6 -->
<g id="edge5_Node000004_Node000006" class="edge">
<title>Node4&#45;&gt;Node6</title>
<g id="a_edge5_Node000004_Node000006"><a xlink:title=" ">
<path fill="none" stroke="#63b8ff" d="M177,-219.98C185.19,-212.23 197.51,-200.58 207.47,-191.14"/>
<polygon fill="#63b8ff" stroke="#63b8ff" points="209.98,-193.59 214.84,-184.17 205.17,-188.5 209.98,-193.59"/>
</a>
</g>
</g>
<!-- Node8 -->
<g id="Node000008" class="node">
<title>Node8</title>
<g id="a_Node000008"><a xlink:href="../../db/d01/noexcept_8h.html" target="_top" xlink:title=" ">
<polygon fill="white" stroke="#666666" points="287.5,-74 192.5,-74 192.5,-55 287.5,-55 287.5,-74"/>
<text text-anchor="middle" x="240" y="-62" font-family="Helvetica,sans-Serif" font-size="10.00">fl/stl/noexcept.h</text>
</a>
</g>
</g>
<!-- Node4&#45;&gt;Node8 -->
<g id="edge12_Node000004_Node000008" class="edge">
<title>Node4&#45;&gt;Node8</title>
<g id="a_edge12_Node000004_Node000008"><a xlink:title=" ">
<path fill="none" stroke="#63b8ff" d="M205.37,-224.4C257.5,-216.41 350.01,-193.44 389,-129 412.2,-90.66 348.76,-75.44 297.57,-69.42"/>
<polygon fill="#63b8ff" stroke="#63b8ff" points="297.84,-65.93 287.53,-68.34 297.09,-72.89 297.84,-65.93"/>
</a>
</g>
</g>
<!-- Node7 -->
<g id="Node000007" class="node">
<title>Node7</title>
<g id="a_Node000007"><a xlink:href="../../d9/d83/move_8h.html" target="_top" xlink:title=" ">
<polygon fill="white" stroke="#666666" points="211.5,-129 134.5,-129 134.5,-110 211.5,-110 211.5,-129"/>
<text text-anchor="middle" x="173" y="-117" font-family="Helvetica,sans-Serif" font-size="10.00">fl/stl/move.h</text>
</a>
</g>
</g>
<!-- Node6&#45;&gt;Node7 -->
<g id="edge6_Node000006_Node000007" class="edge">
<title>Node6&#45;&gt;Node7</title>
<g id="a_edge6_Node000006_Node000007"><a xlink:title=" ">
<path fill="none" stroke="#63b8ff" d="M215.58,-164.75C208.23,-157.11 197.37,-145.82 188.46,-136.56"/>
<polygon fill="#63b8ff" stroke="#63b8ff" points="190.72,-133.87 181.26,-129.09 185.68,-138.72 190.72,-133.87"/>
</a>
</g>
</g>
<!-- Node6&#45;&gt;Node8 -->
<g id="edge10_Node000006_Node000008" class="edge">
<title>Node6&#45;&gt;Node8</title>
<g id="a_edge10_Node000006_Node000008"><a xlink:title=" ">
<path fill="none" stroke="#63b8ff" d="M225.31,-164.66C227.9,-147.17 233.73,-107.8 237.22,-84.27"/>
<polygon fill="#63b8ff" stroke="#63b8ff" points="240.71,-84.56 238.72,-74.16 233.79,-83.54 240.71,-84.56"/>
</a>
</g>
</g>
<!-- Node9 -->
<g id="Node000009" class="node">
<title>Node9</title>
<g id="a_Node000009"><a xlink:href="../../d3/d7e/int_8h.html" target="_top" xlink:title=" ">
<polygon fill="white" stroke="#666666" points="116,-129 54,-129 54,-110 116,-110 116,-129"/>
<text text-anchor="middle" x="85" y="-117" font-family="Helvetica,sans-Serif" font-size="10.00">fl/stl/int.h</text>
</a>
</g>
</g>
<!-- Node6&#45;&gt;Node9 -->
<g id="edge8_Node000006_Node000009" class="edge">
<title>Node6&#45;&gt;Node9</title>
<g id="a_edge8_Node000006_Node000009"><a xlink:title=" ">
<path fill="none" stroke="#63b8ff" d="M201.67,-164.98C178.8,-156.27 143.04,-142.63 117.14,-132.75"/>
<polygon fill="#63b8ff" stroke="#63b8ff" points="118.33,-129.46 107.74,-129.17 115.84,-136 118.33,-129.46"/>
</a>
</g>
</g>
<!-- Node10 -->
<g id="Node000010" class="node">
<title>Node10</title>
<g id="a_Node000010"><a xlink:href="../../d0/d1b/static__assert_8h.html" target="_top" xlink:title="Portable compile&#45;time assertion wrapper.">
<polygon fill="white" stroke="#666666" points="380,-129 268,-129 268,-110 380,-110 380,-129"/>
<text text-anchor="middle" x="324" y="-117" font-family="Helvetica,sans-Serif" font-size="10.00">fl/stl/static_assert.h</text>
</a>
</g>
</g>
<!-- Node6&#45;&gt;Node10 -->
<g id="edge11_Node000006_Node000010" class="edge">
<title>Node6&#45;&gt;Node10</title>
<g id="a_edge11_Node000006_Node000010"><a xlink:title=" ">
<path fill="none" stroke="#63b8ff" d="M240.07,-164.98C255.86,-156.61 280.22,-143.7 298.63,-133.95"/>
<polygon fill="#63b8ff" stroke="#63b8ff" points="300.44,-136.95 307.64,-129.17 297.17,-130.76 300.44,-136.95"/>
</a>
</g>
</g>
<!-- Node7&#45;&gt;Node8 -->
<g id="edge7_Node000007_Node000008" class="edge">
<title>Node7&#45;&gt;Node8</title>
<g id="a_edge7_Node000007_Node000008"><a xlink:title=" ">
<path fill="none" stroke="#63b8ff" d="M183.76,-109.98C193.77,-102.07 208.89,-90.11 220.93,-80.58"/>
<polygon fill="#63b8ff" stroke="#63b8ff" points="223.37,-83.12 229.04,-74.17 219.03,-77.63 223.37,-83.12"/>
</a>
</g>
</g>
<!-- Node9&#45;&gt;Node2 -->
<g id="edge9_Node000009_Node000002" class="edge">
<title>Node9&#45;&gt;Node2</title>
<g id="a_edge9_Node000009_Node000002"><a xlink:title=" ">
<path fill="none" stroke="#63b8ff" d="M80.21,-109.75C76.24,-102.49 70.47,-91.95 65.57,-82.98"/>
<polygon fill="#63b8ff" stroke="#63b8ff" points="68.57,-81.18 60.7,-74.09 62.43,-84.54 68.57,-81.18"/>
</a>
</g>
</g>
</g>
</svg>
</svg>

<style type='text/css'>
<![CDATA[
[data-mouse-over-selected='false'] { opacity: 0.7; }
[data-mouse-over-selected='true']  { opacity: 1.0; }
]]>
</style>
<script type="application/ecmascript"><![CDATA[
document.addEventListener('DOMContentLoaded', (event) => {
  highlightEdges();
  highlightAdjacentNodes();
});
]]></script>
</svg>
