<?xml version="1.0" encoding="UTF-8" standalone="no"?>
<!DOCTYPE svg PUBLIC "-//W3C//DTD SVG 1.1//EN"
 "http://www.w3.org/Graphics/SVG/1.1/DTD/svg11.dtd">
<!-- Generated by graphviz version 2.43.0 (0)
 -->
<!-- Title: fl::url::url Pages: 1 -->
<svg width="545pt" height="177pt"
 viewBox="0.00 0.00 545.00 177.00" xmlns="http://www.w3.org/2000/svg" xmlns:xlink="http://www.w3.org/1999/xlink">
<g id="graph0" class="graph" transform="scale(1 1) rotate(0) translate(4 173)">
<title>fl::url::url</title>
<!-- Node1 -->
<g id="Node000001" class="node">
<title>Node1</title>
<g id="a_Node000001"><a xlink:title=" ">
<polygon fill="#999999" stroke="#666666" points="60,-74 0,-74 0,-55 60,-55 60,-74"/>
<text text-anchor="middle" x="30" y="-62" font-family="Helvetica,sans-Serif" font-size="10.00">fl::url::url</text>
</a>
</g>
</g>
<!-- Node2 -->
<g id="Node000002" class="node">
<title>Node2</title>
<g id="a_Node000002"><a xlink:href="../../d2/db7/classfl_1_1url_a3c5e37424d902f92f41f1f9d0be457e2.html#a3c5e37424d902f92f41f1f9d0be457e2" target="_top" xlink:title=" ">
<polygon fill="white" stroke="#666666" points="184.5,-93 110.5,-93 110.5,-74 184.5,-74 184.5,-93"/>
<text text-anchor="middle" x="147.5" y="-81" font-family="Helvetica,sans-Serif" font-size="10.00">fl::url::parse</text>
</a>
</g>
</g>
<!-- Node1&#45;&gt;Node2 -->
<g id="edge1_Node000001_Node000002" class="edge">
<title>Node1&#45;&gt;Node2</title>
<g id="a_edge1_Node000001_Node000002"><a xlink:title=" ">
<path fill="none" stroke="#63b8ff" d="M60.15,-69.29C72.29,-71.29 86.69,-73.66 100.21,-75.89"/>
<polygon fill="#63b8ff" stroke="#63b8ff" points="99.9,-79.38 110.33,-77.55 101.03,-72.47 99.9,-79.38"/>
</a>
</g>
</g>
<!-- Node9 -->
<g id="Node000009" class="node">
<title>Node9</title>
<g id="a_Node000009"><a xlink:href="../../d2/db7/classfl_1_1url_aa9dd8accb6291c196fc65af6e4501276.html#aa9dd8accb6291c196fc65af6e4501276" target="_top" xlink:title=" ">
<polygon fill="white" stroke="#666666" points="199,-56 96,-56 96,-37 199,-37 199,-56"/>
<text text-anchor="middle" x="147.5" y="-44" font-family="Helvetica,sans-Serif" font-size="10.00">fl::url::zeroOffsets</text>
</a>
</g>
</g>
<!-- Node1&#45;&gt;Node9 -->
<g id="edge9_Node000001_Node000009" class="edge">
<title>Node1&#45;&gt;Node9</title>
<g id="a_edge9_Node000001_Node000009"><a xlink:title=" ">
<path fill="none" stroke="#63b8ff" d="M60.15,-59.96C68.01,-58.73 76.82,-57.36 85.73,-55.97"/>
<polygon fill="#63b8ff" stroke="#63b8ff" points="86.45,-59.4 95.79,-54.4 85.37,-52.48 86.45,-59.4"/>
</a>
</g>
</g>
<!-- Node3 -->
<g id="Node000003" class="node">
<title>Node3</title>
<g id="a_Node000003"><a xlink:href="../../d0/ddb/classfl_1_1string__view_a757690aff93f9e6fb24838f36afa40fd.html#a757690aff93f9e6fb24838f36afa40fd" target="_top" xlink:title=" ">
<polygon fill="white" stroke="#666666" points="349,-169 241,-169 241,-150 349,-150 349,-169"/>
<text text-anchor="middle" x="295" y="-157" font-family="Helvetica,sans-Serif" font-size="10.00">fl::string_view::find</text>
</a>
</g>
</g>
<!-- Node2&#45;&gt;Node3 -->
<g id="edge2_Node000002_Node000003" class="edge">
<title>Node2&#45;&gt;Node3</title>
<g id="a_edge2_Node000002_Node000003"><a xlink:title=" ">
<path fill="none" stroke="#63b8ff" d="M162.8,-93.04C179.65,-104.05 208.67,-122.33 235,-135.5 242.52,-139.26 250.79,-142.91 258.68,-146.17"/>
<polygon fill="#63b8ff" stroke="#63b8ff" points="257.48,-149.46 268.06,-149.95 260.09,-142.97 257.48,-149.46"/>
</a>
</g>
</g>
<!-- Node4 -->
<g id="Node000004" class="node">
<title>Node4</title>
<g id="a_Node000004"><a xlink:href="../../d2/db7/classfl_1_1url_a8b1f295c643573d720f0cdd0f85e2392.html#a8b1f295c643573d720f0cdd0f85e2392" target="_top" xlink:title=" ">
<polygon fill="white" stroke="#666666" points="513,-112 415,-112 415,-93 513,-93 513,-112"/>
<text text-anchor="middle" x="464" y="-100" font-family="Helvetica,sans-Serif" font-size="10.00">fl::url::makeSpan</text>
</a>
</g>
</g>
<!-- Node2&#45;&gt;Node4 -->
<g id="edge3_Node000002_Node000004" class="edge">
<title>Node2&#45;&gt;Node4</title>
<g id="a_edge3_Node000002_Node000004"><a xlink:title=" ">
<path fill="none" stroke="#63b8ff" d="M183.57,-93.01C199.18,-96.77 217.88,-100.64 235,-102.5 292.44,-108.73 358.5,-107.86 404.67,-105.96"/>
<polygon fill="#63b8ff" stroke="#63b8ff" points="404.96,-109.45 414.8,-105.51 404.65,-102.45 404.96,-109.45"/>
</a>
</g>
</g>
<!-- Node5 -->
<g id="Node000005" class="node">
<title>Node5</title>
<g id="a_Node000005"><a xlink:href="../../d2/db7/classfl_1_1url_aa0597aad2a4ca58cb4a560dc844aaef7.html#aa0597aad2a4ca58cb4a560dc844aaef7" target="_top" xlink:title=" ">
<polygon fill="white" stroke="#666666" points="354.5,-93 235.5,-93 235.5,-74 354.5,-74 354.5,-93"/>
<text text-anchor="middle" x="295" y="-81" font-family="Helvetica,sans-Serif" font-size="10.00">fl::url::parseAuthority</text>
</a>
</g>
</g>
<!-- Node2&#45;&gt;Node5 -->
<g id="edge4_Node000002_Node000005" class="edge">
<title>Node2&#45;&gt;Node5</title>
<g id="a_edge4_Node000002_Node000005"><a xlink:title=" ">
<path fill="none" stroke="#63b8ff" d="M184.84,-83.5C197.1,-83.5 211.22,-83.5 225.15,-83.5"/>
<polygon fill="#63b8ff" stroke="#63b8ff" points="225.22,-87 235.22,-83.5 225.22,-80 225.22,-87"/>
</a>
</g>
</g>
<!-- Node6 -->
<g id="Node000006" class="node">
<title>Node6</title>
<g id="a_Node000006"><a xlink:href="../../d0/ddb/classfl_1_1string__view_a62053f60d43376477b7857084f50b3c3.html#a62053f60d43376477b7857084f50b3c3" target="_top" xlink:title=" ">
<polygon fill="white" stroke="#666666" points="350,-56 240,-56 240,-37 350,-37 350,-56"/>
<text text-anchor="middle" x="295" y="-44" font-family="Helvetica,sans-Serif" font-size="10.00">fl::string_view::size</text>
</a>
</g>
</g>
<!-- Node2&#45;&gt;Node6 -->
<g id="edge6_Node000002_Node000006" class="edge">
<title>Node2&#45;&gt;Node6</title>
<g id="a_edge6_Node000002_Node000006"><a xlink:title=" ">
<path fill="none" stroke="#63b8ff" d="M184.84,-74.26C203.56,-69.5 226.62,-63.63 246.71,-58.53"/>
<polygon fill="#63b8ff" stroke="#63b8ff" points="247.78,-61.87 256.6,-56.01 246.05,-55.08 247.78,-61.87"/>
</a>
</g>
</g>
<!-- Node7 -->
<g id="Node000007" class="node">
<title>Node7</title>
<g id="a_Node000007"><a xlink:href="../../d0/ddb/classfl_1_1string__view_ae8a5f488501671f4a991a3202c2e2216.html#ae8a5f488501671f4a991a3202c2e2216" target="_top" xlink:title=" ">
<polygon fill="white" stroke="#666666" points="355,-19 235,-19 235,0 355,0 355,-19"/>
<text text-anchor="middle" x="295" y="-7" font-family="Helvetica,sans-Serif" font-size="10.00">fl::string_view::substr</text>
</a>
</g>
</g>
<!-- Node2&#45;&gt;Node7 -->
<g id="edge7_Node000002_Node000007" class="edge">
<title>Node2&#45;&gt;Node7</title>
<g id="a_edge7_Node000002_Node000007"><a xlink:title=" ">
<path fill="none" stroke="#63b8ff" d="M182.42,-73.91C188.18,-71.59 193.93,-68.8 199,-65.5 218.49,-52.8 215.22,-39.74 235,-27.5 237.65,-25.86 240.45,-24.36 243.35,-22.99"/>
<polygon fill="#63b8ff" stroke="#63b8ff" points="244.93,-26.13 252.81,-19.05 242.23,-19.67 244.93,-26.13"/>
</a>
</g>
</g>
<!-- Node5&#45;&gt;Node4 -->
<g id="edge5_Node000005_Node000004" class="edge">
<title>Node5&#45;&gt;Node4</title>
<g id="a_edge5_Node000005_Node000004"><a xlink:title=" ">
<path fill="none" stroke="#63b8ff" d="M354.88,-90.2C370.98,-92.03 388.42,-94.01 404.5,-95.84"/>
<polygon fill="#63b8ff" stroke="#63b8ff" points="404.51,-99.37 414.84,-97.02 405.3,-92.41 404.51,-99.37"/>
</a>
</g>
</g>
<!-- Node8 -->
<g id="Node000008" class="node">
<title>Node8</title>
<g id="a_Node000008"><a xlink:href="../../d0/ddb/classfl_1_1string__view_affa2db6e3c9e989f0bea8a01a6e5e1db.html#affa2db6e3c9e989f0bea8a01a6e5e1db" target="_top" xlink:title=" ">
<polygon fill="white" stroke="#666666" points="537,-19 391,-19 391,0 537,0 537,-19"/>
<text text-anchor="middle" x="464" y="-7" font-family="Helvetica,sans-Serif" font-size="10.00">fl::string_view::string_view</text>
</a>
</g>
</g>
<!-- Node7&#45;&gt;Node8 -->
<g id="edge8_Node000007_Node000008" class="edge">
<title>Node7&#45;&gt;Node8</title>
<g id="a_edge8_Node000007_Node000008"><a xlink:title=" ">
<path fill="none" stroke="#63b8ff" d="M355.35,-9.5C363.64,-9.5 372.27,-9.5 380.89,-9.5"/>
<polygon fill="#63b8ff" stroke="#63b8ff" points="380.97,-13 390.97,-9.5 380.97,-6 380.97,-13"/>
</a>
</g>
</g>
</g>
</svg>
