<?xml version="1.0" encoding="UTF-8" standalone="no"?>
<!DOCTYPE svg PUBLIC "-//W3C//DTD SVG 1.1//EN"
 "http://www.w3.org/Graphics/SVG/1.1/DTD/svg11.dtd">
<!-- Generated by graphviz version 2.43.0 (0)
 -->
<!-- Title: rainbowWave Pages: 1 -->
<!--zoomable 285 -->

<svg id="main" version="1.1" xmlns="http://www.w3.org/2000/svg" xmlns:xlink="http://www.w3.org/1999/xlink" xml:space="preserve" onload="init(evt)">

<style type="text/css"><![CDATA[
.node, .edge {opacity: 0.7;}
.node.selected, .edge.selected {opacity: 1;}
.edge:hover path { stroke: red; }
.edge:hover polygon { stroke: red; fill: red; }
]]></style>

<defs>
  <circle id="rim" cx="0" cy="0" r="7"/>
  <circle id="rim2" cx="0" cy="0" r="3.5"/>
  <g id="zoomPlus">
    <use xlink:href="#rim" fill="#404040"><set attributeName="fill" to="#808080" begin="zoomplus.mouseover" end="zoomplus.mouseout"/></use>
    <path d="M-4,0h8M0,-4v8" fill="none" stroke="white" stroke-width="1.5" pointer-events="none"/>
  </g>
  <g id="zoomMin">
    <use xlink:href="#rim" fill="#404040"><set attributeName="fill" to="#808080" begin="zoomminus.mouseover" end="zoomminus.mouseout"/></use>
    <path d="M-4,0h8" fill="none" stroke="white" stroke-width="1.5" pointer-events="none"/>
  </g>
  <g id="arrowUp" transform="translate(30 24)">
    <use xlink:href="#rim"/>
    <path pointer-events="none" fill="none" stroke="white" stroke-width="1.5" d="M0,-3.0v7 M-2.5,-0.5L0,-3.0L2.5,-0.5"/>
  </g>
  <g id="arrowRight" transform="rotate(90) translate(36 -43)">
    <use xlink:href="#rim"/>
    <path pointer-events="none" fill="none" stroke="white" stroke-width="1.5" d="M0,-3.0v7 M-2.5,-0.5L0,-3.0L2.5,-0.5"/>
  </g>
  <g id="arrowDown" transform="rotate(180) translate(-30 -48)">
    <use xlink:href="#rim"/>
    <path pointer-events="none" fill="none" stroke="white" stroke-width="1.5" d="M0,-3.0v7 M-2.5,-0.5L0,-3.0L2.5,-0.5"/>
  </g>
  <g id="arrowLeft" transform="rotate(270) translate(-36 17)">
    <use xlink:href="#rim"/>
    <path pointer-events="none" fill="none" stroke="white" stroke-width="1.5" d="M0,-3.0v7 M-2.5,-0.5L0,-3.0L2.5,-0.5"/>
  </g>
  <g id="resetDef">
    <use xlink:href="#rim2" fill="#404040"><set attributeName="fill" to="#808080" begin="reset.mouseover" end="reset.mouseout"/></use>
  </g>
</defs>
<script type="application/ecmascript">
var viewWidth = 531;
var viewHeight = 285;
var sectionId = 'dynsection-0';
</script>
<script type="application/ecmascript" xlink:href="../../svg.min.js"/>
<svg id="graph" class="graph">
<g id="viewport">
<title>rainbowWave</title>
<!-- Node1 -->
<g id="Node000001" class="node">
<title>Node1</title>
<g id="a_Node000001"><a xlink:title=" ">
<polygon fill="#999999" stroke="#666666" points="83,-130 0,-130 0,-111 83,-111 83,-130"/>
<text text-anchor="middle" x="41.5" y="-118" font-family="Helvetica,sans-Serif" font-size="10.00">rainbowWave</text>
</a>
</g>
</g>
<!-- Node2 -->
<g id="Node000002" class="node">
<title>Node2</title>
<g id="a_Node000002"><a xlink:href="../../da/dd6/structfl_1_1_c_r_g_b_a2792268a864ed3d46b191c20fd56ff87.html#a2792268a864ed3d46b191c20fd56ff87" target="_top" xlink:title=" ">
<polygon fill="white" stroke="#666666" points="233,-259 119,-259 119,-240 233,-240 233,-259"/>
<text text-anchor="middle" x="176" y="-247" font-family="Helvetica,sans-Serif" font-size="10.00">fl::CRGB::colorBoost</text>
</a>
</g>
</g>
<!-- Node1&#45;&gt;Node2 -->
<g id="edge1_Node000001_Node000002" class="edge">
<title>Node1&#45;&gt;Node2</title>
<g id="a_edge1_Node000001_Node000002"><a xlink:title=" ">
<path fill="none" stroke="#63b8ff" d="M46.49,-130.1C55.87,-151.53 81.43,-203.58 119,-231.5 120.86,-232.89 122.84,-234.17 124.89,-235.35"/>
<polygon fill="#63b8ff" stroke="#63b8ff" points="123.75,-238.69 134.27,-239.95 126.83,-232.41 123.75,-238.69"/>
</a>
</g>
</g>
<!-- Node25 -->
<g id="Node000025" class="node">
<title>Node25</title>
<g id="a_Node000025"><a xlink:href="../../db/df4/_color_boost_8h_a50e8318f37e4cc59562ab04de32fec73.html#a50e8318f37e4cc59562ab04de32fec73" target="_top" xlink:title=" ">
<polygon fill="white" stroke="#666666" points="215,-222 137,-222 137,-203 215,-203 215,-222"/>
<text text-anchor="middle" x="176" y="-210" font-family="Helvetica,sans-Serif" font-size="10.00">getEaseType</text>
</a>
</g>
</g>
<!-- Node1&#45;&gt;Node25 -->
<g id="edge7_Node000001_Node000025" class="edge">
<title>Node1&#45;&gt;Node25</title>
<g id="a_edge7_Node000001_Node000025"><a xlink:title=" ">
<path fill="none" stroke="#63b8ff" d="M49.92,-130.11C62.49,-145.77 89.52,-176.83 119,-194.5 121.8,-196.18 124.78,-197.72 127.84,-199.13"/>
<polygon fill="#63b8ff" stroke="#63b8ff" points="126.63,-202.42 137.21,-202.98 129.29,-195.94 126.63,-202.42"/>
</a>
</g>
</g>
<!-- Node26 -->
<g id="Node000026" class="node">
<title>Node26</title>
<g id="a_Node000026"><a xlink:href="../../db/df4/_color_boost_8h_adfecdb1dca929dcc593f71298bbf23c1.html#adfecdb1dca929dcc593f71298bbf23c1" target="_top" xlink:title=" ">
<polygon fill="white" stroke="#666666" points="230.5,-185 121.5,-185 121.5,-166 230.5,-166 230.5,-185"/>
<text text-anchor="middle" x="176" y="-173" font-family="Helvetica,sans-Serif" font-size="10.00">luminanceFunction</text>
</a>
</g>
</g>
<!-- Node1&#45;&gt;Node26 -->
<g id="edge8_Node000001_Node000026" class="edge">
<title>Node1&#45;&gt;Node26</title>
<g id="a_edge8_Node000001_Node000026"><a xlink:title=" ">
<path fill="none" stroke="#63b8ff" d="M60.42,-130.05C75.72,-137.99 98.46,-149.28 119,-157.5 123.5,-159.3 128.26,-161.06 133.03,-162.72"/>
<polygon fill="#63b8ff" stroke="#63b8ff" points="132.15,-166.11 142.74,-165.98 134.38,-159.48 132.15,-166.11"/>
</a>
</g>
</g>
<!-- Node27 -->
<g id="Node000027" class="node">
<title>Node27</title>
<g id="a_Node000027"><a xlink:href="../../d4/d36/namespacefl_a335fa6e4af7f0a011997ea0137d49b5a.html#a335fa6e4af7f0a011997ea0137d49b5a" target="_top" xlink:title="Universal millisecond timer &#45; returns milliseconds since system startup.">
<polygon fill="white" stroke="#666666" points="204,-130 148,-130 148,-111 204,-111 204,-130"/>
<text text-anchor="middle" x="176" y="-118" font-family="Helvetica,sans-Serif" font-size="10.00">fl::millis</text>
</a>
</g>
</g>
<!-- Node1&#45;&gt;Node27 -->
<g id="edge9_Node000001_Node000027" class="edge">
<title>Node1&#45;&gt;Node27</title>
<g id="a_edge9_Node000001_Node000027"><a xlink:title=" ">
<path fill="none" stroke="#63b8ff" d="M83.34,-120.5C100.72,-120.5 120.84,-120.5 137.81,-120.5"/>
<polygon fill="#63b8ff" stroke="#63b8ff" points="137.9,-124 147.9,-120.5 137.9,-117 137.9,-124"/>
</a>
</g>
</g>
<!-- Node28 -->
<g id="Node000028" class="node">
<title>Node28</title>
<g id="a_Node000028"><a xlink:href="../../d4/d36/namespacefl_a87e9ee08a07d2adf08a86b4bee28ce3a.html#a87e9ee08a07d2adf08a86b4bee28ce3a" target="_top" xlink:title=" ">
<polygon fill="white" stroke="#666666" points="200.5,-93 151.5,-93 151.5,-74 200.5,-74 200.5,-93"/>
<text text-anchor="middle" x="176" y="-81" font-family="Helvetica,sans-Serif" font-size="10.00">fl::pow</text>
</a>
</g>
</g>
<!-- Node1&#45;&gt;Node28 -->
<g id="edge11_Node000001_Node000028" class="edge">
<title>Node1&#45;&gt;Node28</title>
<g id="a_edge11_Node000001_Node000028"><a xlink:title=" ">
<path fill="none" stroke="#63b8ff" d="M76.62,-110.97C96.6,-105.39 121.73,-98.38 141.58,-92.83"/>
<polygon fill="#63b8ff" stroke="#63b8ff" points="142.74,-96.14 151.43,-90.08 140.86,-89.4 142.74,-96.14"/>
</a>
</g>
</g>
<!-- Node32 -->
<g id="Node000032" class="node">
<title>Node32</title>
<g id="a_Node000032"><a xlink:href="../../db/df4/_color_boost_8h_ac4b7bb7b8987288da2a2848f29a0869f.html#ac4b7bb7b8987288da2a2848f29a0869f" target="_top" xlink:title=" ">
<polygon fill="white" stroke="#666666" points="205.5,-56 146.5,-56 146.5,-37 205.5,-37 205.5,-56"/>
<text text-anchor="middle" x="176" y="-44" font-family="Helvetica,sans-Serif" font-size="10.00">satSlider</text>
</a>
</g>
</g>
<!-- Node1&#45;&gt;Node32 -->
<g id="edge14_Node000001_Node000032" class="edge">
<title>Node1&#45;&gt;Node32</title>
<g id="a_edge14_Node000001_Node000032"><a xlink:title=" ">
<path fill="none" stroke="#63b8ff" d="M53.72,-110.78C68.05,-98.78 93.98,-78.37 119,-65.5 124.63,-62.6 130.8,-60 136.92,-57.71"/>
<polygon fill="#63b8ff" stroke="#63b8ff" points="138.13,-61 146.42,-54.39 135.82,-54.39 138.13,-61"/>
</a>
</g>
</g>
<!-- Node33 -->
<g id="Node000033" class="node">
<title>Node33</title>
<g id="a_Node000033"><a xlink:href="../../db/df4/_color_boost_8h_a184414d582661cfbf65e890bdf64fb95.html#a184414d582661cfbf65e890bdf64fb95" target="_top" xlink:title=" ">
<polygon fill="white" stroke="#666666" points="229.5,-19 122.5,-19 122.5,0 229.5,0 229.5,-19"/>
<text text-anchor="middle" x="176" y="-7" font-family="Helvetica,sans-Serif" font-size="10.00">saturationFunction</text>
</a>
</g>
</g>
<!-- Node1&#45;&gt;Node33 -->
<g id="edge15_Node000001_Node000033" class="edge">
<title>Node1&#45;&gt;Node33</title>
<g id="a_edge15_Node000001_Node000033"><a xlink:title=" ">
<path fill="none" stroke="#63b8ff" d="M47.94,-110.94C58.98,-92.39 85.79,-51.32 119,-28.5 121.88,-26.52 124.98,-24.73 128.2,-23.12"/>
<polygon fill="#63b8ff" stroke="#63b8ff" points="129.74,-26.26 137.48,-19.02 126.91,-19.86 129.74,-26.26"/>
</a>
</g>
</g>
<!-- Node3 -->
<g id="Node000003" class="node">
<title>Node3</title>
<g id="a_Node000003"><a xlink:href="../../da/dd6/structfl_1_1_c_r_g_b_adb891cc4fe8f5ac2188d72c13c0256fd.html#adb891cc4fe8f5ac2188d72c13c0256fd" target="_top" xlink:title="Default constructor.">
<polygon fill="white" stroke="#666666" points="373.5,-277 283.5,-277 283.5,-258 373.5,-258 373.5,-277"/>
<text text-anchor="middle" x="328.5" y="-265" font-family="Helvetica,sans-Serif" font-size="10.00">fl::CRGB::CRGB</text>
</a>
</g>
</g>
<!-- Node2&#45;&gt;Node3 -->
<g id="edge2_Node000002_Node000003" class="edge">
<title>Node2&#45;&gt;Node3</title>
<g id="a_edge2_Node000002_Node000003"><a xlink:title=" ">
<path fill="none" stroke="#63b8ff" d="M233.04,-256.2C246.1,-257.76 259.98,-259.42 272.97,-260.98"/>
<polygon fill="#63b8ff" stroke="#63b8ff" points="272.82,-264.49 283.17,-262.2 273.65,-257.53 272.82,-264.49"/>
</a>
</g>
</g>
<!-- Node4 -->
<g id="Node000004" class="node">
<title>Node4</title>
<g id="a_Node000004"><a xlink:href="../../d4/d5d/structfl_1_1_h_s_v16_a76546a195f4bb8cce8ac071d4d7786d4.html#a76546a195f4bb8cce8ac071d4d7786d4" target="_top" xlink:title=" ">
<polygon fill="white" stroke="#666666" points="388,-240 269,-240 269,-221 388,-221 388,-240"/>
<text text-anchor="middle" x="328.5" y="-228" font-family="Helvetica,sans-Serif" font-size="10.00">fl::HSV16::colorBoost</text>
</a>
</g>
</g>
<!-- Node2&#45;&gt;Node4 -->
<g id="edge3_Node000002_Node000004" class="edge">
<title>Node2&#45;&gt;Node4</title>
<g id="a_edge3_Node000002_Node000004"><a xlink:title=" ">
<path fill="none" stroke="#63b8ff" d="M233.04,-242.43C241.45,-241.36 250.2,-240.26 258.84,-239.17"/>
<polygon fill="#63b8ff" stroke="#63b8ff" points="259.41,-242.62 268.9,-237.9 258.54,-235.68 259.41,-242.62"/>
</a>
</g>
</g>
<!-- Node5 -->
<g id="Node000005" class="node">
<title>Node5</title>
<g id="a_Node000005"><a xlink:href="../../d4/d5d/structfl_1_1_h_s_v16_afb1735cc73fa0e364b7a24893e2f6f8b.html#afb1735cc73fa0e364b7a24893e2f6f8b" target="_top" xlink:title=" ">
<polygon fill="white" stroke="#666666" points="523,-277 424,-277 424,-258 523,-258 523,-277"/>
<text text-anchor="middle" x="473.5" y="-265" font-family="Helvetica,sans-Serif" font-size="10.00">fl::HSV16::HSV16</text>
</a>
</g>
</g>
<!-- Node4&#45;&gt;Node5 -->
<g id="edge4_Node000004_Node000005" class="edge">
<title>Node4&#45;&gt;Node5</title>
<g id="a_edge4_Node000004_Node000005"><a xlink:title=" ">
<path fill="none" stroke="#63b8ff" d="M366.33,-240.03C384.37,-244.7 406.29,-250.37 425.52,-255.35"/>
<polygon fill="#63b8ff" stroke="#63b8ff" points="424.74,-258.76 435.3,-257.88 426.5,-251.98 424.74,-258.76"/>
</a>
</g>
</g>
<!-- Node6 -->
<g id="Node000006" class="node">
<title>Node6</title>
<g id="a_Node000006"><a xlink:href="../../d4/d36/namespacefl_adbc9938a37fd2f52f4c865a78914f420.html#adbc9938a37fd2f52f4c865a78914f420" target="_top" xlink:title=" ">
<polygon fill="#fff0f0" stroke="red" points="505.5,-240 441.5,-240 441.5,-221 505.5,-221 505.5,-240"/>
<text text-anchor="middle" x="473.5" y="-228" font-family="Helvetica,sans-Serif" font-size="10.00">fl::ease16</text>
</a>
</g>
</g>
<!-- Node4&#45;&gt;Node6 -->
<g id="edge5_Node000004_Node000006" class="edge">
<title>Node4&#45;&gt;Node6</title>
<g id="a_edge5_Node000004_Node000006"><a xlink:title=" ">
<path fill="none" stroke="#63b8ff" d="M388.08,-230.5C402.44,-230.5 417.52,-230.5 430.9,-230.5"/>
<polygon fill="#63b8ff" stroke="#63b8ff" points="431.22,-234 441.22,-230.5 431.22,-227 431.22,-234"/>
</a>
</g>
</g>
<!-- Node21 -->
<g id="Node000021" class="node">
<title>Node21</title>
<g id="a_Node000021"><a xlink:href="../../d4/d5d/structfl_1_1_h_s_v16_a66d9cc0fccee4175baaef83f1a2d7d7d.html#a66d9cc0fccee4175baaef83f1a2d7d7d" target="_top" xlink:title=" ">
<polygon fill="#fff0f0" stroke="red" points="522.5,-203 424.5,-203 424.5,-184 522.5,-184 522.5,-203"/>
<text text-anchor="middle" x="473.5" y="-191" font-family="Helvetica,sans-Serif" font-size="10.00">fl::HSV16::ToRGB</text>
</a>
</g>
</g>
<!-- Node4&#45;&gt;Node21 -->
<g id="edge6_Node000004_Node000021" class="edge">
<title>Node4&#45;&gt;Node21</title>
<g id="a_edge6_Node000004_Node000021"><a xlink:title=" ">
<path fill="none" stroke="#63b8ff" d="M366.33,-220.97C384.37,-216.3 406.29,-210.63 425.52,-205.65"/>
<polygon fill="#63b8ff" stroke="#63b8ff" points="426.5,-209.02 435.3,-203.12 424.74,-202.24 426.5,-209.02"/>
</a>
</g>
</g>
<!-- Node27&#45;&gt;Node27 -->
<g id="edge10_Node000027_Node000027" class="edge">
<title>Node27&#45;&gt;Node27</title>
<g id="a_edge10_Node000027_Node000027"><a xlink:title=" ">
<path fill="none" stroke="#63b8ff" d="M155.35,-130.08C145.3,-138.73 152.18,-148 176,-148 191.26,-148 199.57,-144.2 200.93,-139.19"/>
<polygon fill="#63b8ff" stroke="#63b8ff" points="204.07,-137.65 196.65,-130.08 197.73,-140.62 204.07,-137.65"/>
</a>
</g>
</g>
<!-- Node29 -->
<g id="Node000029" class="node">
<title>Node29</title>
<g id="a_Node000029"><a xlink:href="../../d4/d36/namespacefl_ae393fecb8f433ee4b88027955350bdc8.html#ae393fecb8f433ee4b88027955350bdc8" target="_top" xlink:title=" ">
<polygon fill="white" stroke="#666666" points="352,-93 305,-93 305,-74 352,-74 352,-93"/>
<text text-anchor="middle" x="328.5" y="-81" font-family="Helvetica,sans-Serif" font-size="10.00">fl::exp</text>
</a>
</g>
</g>
<!-- Node28&#45;&gt;Node29 -->
<g id="edge12_Node000028_Node000029" class="edge">
<title>Node28&#45;&gt;Node29</title>
<g id="a_edge12_Node000028_Node000029"><a xlink:title=" ">
<path fill="none" stroke="#63b8ff" d="M200.52,-83.5C225.73,-83.5 265.97,-83.5 294.39,-83.5"/>
<polygon fill="#63b8ff" stroke="#63b8ff" points="294.64,-87 304.64,-83.5 294.64,-80 294.64,-87"/>
</a>
</g>
</g>
<!-- Node30 -->
<g id="Node000030" class="node">
<title>Node30</title>
<g id="a_Node000030"><a xlink:href="../../d4/d36/namespacefl_a861b23e6d46aa20202c82561040de9ff.html#a861b23e6d46aa20202c82561040de9ff" target="_top" xlink:title=" ">
<polygon fill="#fff0f0" stroke="red" points="501.5,-93 445.5,-93 445.5,-74 501.5,-74 501.5,-93"/>
<text text-anchor="middle" x="473.5" y="-81" font-family="Helvetica,sans-Serif" font-size="10.00">fl::expfp</text>
</a>
</g>
</g>
<!-- Node29&#45;&gt;Node30 -->
<g id="edge13_Node000029_Node000030" class="edge">
<title>Node29&#45;&gt;Node30</title>
<g id="a_edge13_Node000029_Node000030"><a xlink:title=" ">
<path fill="none" stroke="#63b8ff" d="M352.16,-83.5C374.48,-83.5 408.95,-83.5 435.3,-83.5"/>
<polygon fill="#63b8ff" stroke="#63b8ff" points="435.31,-87 445.31,-83.5 435.31,-80 435.31,-87"/>
</a>
</g>
</g>
</g>
</svg>

<g id="navigator" transform="translate(0 0)" fill="#404254">
  <rect fill="#f2f5e9" fill-opacity="0.5" stroke="#606060" stroke-width=".5" x="0" y="0" width="60" height="60"/>
  <use id="zoomplus" xlink:href="#zoomPlus" x="17" y="9" onmousedown="handleZoom(evt,'in')"/>
  <use id="zoomminus" xlink:href="#zoomMin" x="42" y="9" onmousedown="handleZoom(evt,'out')"/>
  <use id="reset" xlink:href="#resetDef" x="30" y="36" onmousedown="handleReset()"/>
   <use id="arrowup" xlink:href="#arrowUp" x="0" y="0" onmousedown="handlePan(0,-1)"/>
  <use id="arrowright" xlink:href="#arrowRight" x="0" y="0" onmousedown="handlePan(1,0)"/>
  <use id="arrowdown" xlink:href="#arrowDown" x="0" y="0" onmousedown="handlePan(0,1)"/>
  <use id="arrowleft" xlink:href="#arrowLeft" x="0" y="0" onmousedown="handlePan(-1,0)"/>
</g>
<svg viewBox="0 0 15 15" width="100%" height="30px" preserveAspectRatio="xMaxYMin meet">
 <g id="arrow_out" transform="scale(0.3 0.3)">
  <a xlink:href="_color_boost_8h_a4a0d1f144188c96aecbb5efd649d400a_a4a0d1f144188c96aecbb5efd649d400a_cgraph_org.svg" target="_base">
   <rect id="button" ry="5" rx="5" y="6" x="6" height="38" width="38"
        fill="#f2f5e9" fill-opacity="0.5" stroke="#606060" stroke-width="1.0"/>
   <path id="arrow"
     d="M 11.500037,31.436501 C 11.940474,20.09759 22.043105,11.32322 32.158766,21.979434 L 37.068811,17.246167 C 37.068811,17.246167 37.088388,32 37.088388,32 L 22.160133,31.978069 C 22.160133,31.978069 26.997745,27.140456 26.997745,27.140456 C 18.528582,18.264221 13.291696,25.230495 11.500037,31.436501 z"
     style="fill:#404040;"/>
  </a>
 </g>
</svg>

<style type='text/css'>
<![CDATA[
[data-mouse-over-selected='false'] { opacity: 0.7; }
[data-mouse-over-selected='true']  { opacity: 1.0; }
]]>
</style>
<script type="application/ecmascript"><![CDATA[
document.addEventListener('DOMContentLoaded', (event) => {
  highlightEdges();
  highlightAdjacentNodes();
});
]]></script>
</svg>
