<?xml version="1.0" encoding="UTF-8" standalone="no"?>
<!DOCTYPE svg PUBLIC "-//W3C//DTD SVG 1.1//EN"
 "http://www.w3.org/Graphics/SVG/1.1/DTD/svg11.dtd">
<!-- Generated by graphviz version 2.43.0 (0)
 -->
<!-- Title: saturationFunction Pages: 1 -->
<svg width="483pt" height="249pt"
 viewBox="0.00 0.00 483.00 249.00" xmlns="http://www.w3.org/2000/svg" xmlns:xlink="http://www.w3.org/1999/xlink">
<g id="graph0" class="graph" transform="scale(1 1) rotate(0) translate(4 245)">
<title>saturationFunction</title>
<!-- Node1 -->
<g id="Node000001" class="node">
<title>Node1</title>
<g id="a_Node000001"><a xlink:title=" ">
<polygon fill="#999999" stroke="#666666" points="475,-130 368,-130 368,-111 475,-111 475,-130"/>
<text text-anchor="middle" x="421.5" y="-118" font-family="Helvetica,sans-Serif" font-size="10.00">saturationFunction</text>
</a>
</g>
</g>
<!-- Node2 -->
<g id="Node000002" class="node">
<title>Node2</title>
<g id="a_Node000002"><a xlink:href="../../db/df4/_color_boost_8h_ad458c72a8acf43879918cf78d9303d34.html#ad458c72a8acf43879918cf78d9303d34" target="_top" xlink:title=" ">
<polygon fill="white" stroke="#666666" points="328.5,-241 219.5,-241 219.5,-222 328.5,-222 328.5,-241"/>
<text text-anchor="middle" x="274" y="-229" font-family="Helvetica,sans-Serif" font-size="10.00">colorBoostControls</text>
</a>
</g>
</g>
<!-- Node1&#45;&gt;Node2 -->
<g id="edge1_Node000001_Node000002" class="edge">
<title>Node1&#45;&gt;Node2</title>
<g id="a_edge1_Node000001_Node000002"><a xlink:title=" ">
<path fill="none" stroke="#63b8ff" d="M407.85,-138.51C392.28,-159.42 363.95,-193.56 332,-213.5 326.63,-216.85 320.58,-219.63 314.49,-221.91"/>
<polygon fill="#63b8ff" stroke="#63b8ff" points="410.85,-140.34 413.9,-130.19 405.19,-136.23 410.85,-140.34"/>
</a>
</g>
</g>
<!-- Node3 -->
<g id="Node000003" class="node">
<title>Node3</title>
<g id="a_Node000003"><a xlink:href="../../d4/d06/curr_8h_a1a74e9f1811c156a9878db51507d416f.html#a1a74e9f1811c156a9878db51507d416f" target="_top" xlink:title=" ">
<polygon fill="white" stroke="#666666" points="323,-204 225,-204 225,-185 323,-185 323,-204"/>
<text text-anchor="middle" x="274" y="-192" font-family="Helvetica,sans-Serif" font-size="10.00">colorBoostGroup</text>
</a>
</g>
</g>
<!-- Node1&#45;&gt;Node3 -->
<g id="edge2_Node000001_Node000003" class="edge">
<title>Node1&#45;&gt;Node3</title>
<g id="a_edge2_Node000001_Node000003"><a xlink:title=" ">
<path fill="none" stroke="#63b8ff" d="M399.33,-136.11C381.93,-148.37 356.29,-165.21 332,-176.5 325.13,-179.69 317.54,-182.53 310.21,-184.95"/>
<polygon fill="#63b8ff" stroke="#63b8ff" points="401.53,-138.83 407.62,-130.16 397.45,-133.14 401.53,-138.83"/>
</a>
</g>
</g>
<!-- Node4 -->
<g id="Node000004" class="node">
<title>Node4</title>
<g id="a_Node000004"><a xlink:href="../../d4/d06/curr_8h_a251ace8542fe093844e4ed2709e8a3d7.html#a251ace8542fe093844e4ed2709e8a3d7" target="_top" xlink:title=" ">
<polygon fill="white" stroke="#666666" points="294.5,-167 253.5,-167 253.5,-148 294.5,-148 294.5,-167"/>
<text text-anchor="middle" x="274" y="-155" font-family="Helvetica,sans-Serif" font-size="10.00">draw</text>
</a>
</g>
</g>
<!-- Node1&#45;&gt;Node4 -->
<g id="edge3_Node000001_Node000004" class="edge">
<title>Node1&#45;&gt;Node4</title>
<g id="a_edge3_Node000001_Node000004"><a xlink:title=" ">
<path fill="none" stroke="#63b8ff" d="M373.15,-132.54C346.62,-139.29 314.94,-147.34 294.9,-152.44"/>
<polygon fill="#63b8ff" stroke="#63b8ff" points="374.2,-135.89 383.03,-130.03 372.48,-129.1 374.2,-135.89"/>
</a>
</g>
</g>
<!-- Node7 -->
<g id="Node000007" class="node">
<title>Node7</title>
<g id="a_Node000007"><a xlink:href="../../d4/d06/curr_8h_af9691ba6aeb226dd50626f04206c6e28.html#af9691ba6aeb226dd50626f04206c6e28" target="_top" xlink:title=" ">
<polygon fill="white" stroke="#666666" points="327.5,-130 220.5,-130 220.5,-111 327.5,-111 327.5,-130"/>
<text text-anchor="middle" x="274" y="-118" font-family="Helvetica,sans-Serif" font-size="10.00">fillFrameBufferFire</text>
</a>
</g>
</g>
<!-- Node1&#45;&gt;Node7 -->
<g id="edge6_Node000001_Node000007" class="edge">
<title>Node1&#45;&gt;Node7</title>
<g id="a_edge6_Node000001_Node000007"><a xlink:title=" ">
<path fill="none" stroke="#63b8ff" d="M357.74,-120.5C347.81,-120.5 337.62,-120.5 327.94,-120.5"/>
<polygon fill="#63b8ff" stroke="#63b8ff" points="357.97,-124 367.97,-120.5 357.97,-117 357.97,-124"/>
</a>
</g>
</g>
<!-- Node9 -->
<g id="Node000009" class="node">
<title>Node9</title>
<g id="a_Node000009"><a xlink:href="../../d4/d06/curr_8h_a27ef46fa8abd1dedd29a3904d81622d2.html#a27ef46fa8abd1dedd29a3904d81622d2" target="_top" xlink:title=" ">
<polygon fill="white" stroke="#666666" points="332,-93 216,-93 216,-74 332,-74 332,-93"/>
<text text-anchor="middle" x="274" y="-81" font-family="Helvetica,sans-Serif" font-size="10.00">fillFrameBufferNoise</text>
</a>
</g>
</g>
<!-- Node1&#45;&gt;Node9 -->
<g id="edge9_Node000001_Node000009" class="edge">
<title>Node1&#45;&gt;Node9</title>
<g id="a_edge9_Node000001_Node000009"><a xlink:title=" ">
<path fill="none" stroke="#63b8ff" d="M373.34,-108.51C353.66,-103.5 331.13,-97.77 312.6,-93.06"/>
<polygon fill="#63b8ff" stroke="#63b8ff" points="372.48,-111.9 383.03,-110.97 374.2,-105.11 372.48,-111.9"/>
</a>
</g>
</g>
<!-- Node11 -->
<g id="Node000011" class="node">
<title>Node11</title>
<g id="a_Node000011"><a xlink:href="../../db/df4/_color_boost_8h_a4a0d1f144188c96aecbb5efd649d400a.html#a4a0d1f144188c96aecbb5efd649d400a" target="_top" xlink:title=" ">
<polygon fill="white" stroke="#666666" points="315.5,-56 232.5,-56 232.5,-37 315.5,-37 315.5,-56"/>
<text text-anchor="middle" x="274" y="-44" font-family="Helvetica,sans-Serif" font-size="10.00">rainbowWave</text>
</a>
</g>
</g>
<!-- Node1&#45;&gt;Node11 -->
<g id="edge12_Node000001_Node000011" class="edge">
<title>Node1&#45;&gt;Node11</title>
<g id="a_edge12_Node000001_Node000011"><a xlink:title=" ">
<path fill="none" stroke="#63b8ff" d="M399.33,-104.89C381.93,-92.63 356.29,-75.79 332,-64.5 325.13,-61.31 317.54,-58.47 310.21,-56.05"/>
<polygon fill="#63b8ff" stroke="#63b8ff" points="397.45,-107.86 407.62,-110.84 401.53,-102.17 397.45,-107.86"/>
</a>
</g>
</g>
<!-- Node13 -->
<g id="Node000013" class="node">
<title>Node13</title>
<g id="a_Node000013"><a xlink:href="../../db/df4/_color_boost_8h_a4fc01d736fe50cf5b977f755b675f11d.html#a4fc01d736fe50cf5b977f755b675f11d" target="_top" xlink:title=" ">
<polygon fill="white" stroke="#666666" points="296,-19 252,-19 252,0 296,0 296,-19"/>
<text text-anchor="middle" x="274" y="-7" font-family="Helvetica,sans-Serif" font-size="10.00">setup</text>
</a>
</g>
</g>
<!-- Node1&#45;&gt;Node13 -->
<g id="edge14_Node000001_Node000013" class="edge">
<title>Node1&#45;&gt;Node13</title>
<g id="a_edge14_Node000001_Node000013"><a xlink:title=" ">
<path fill="none" stroke="#63b8ff" d="M407.85,-102.49C392.28,-81.58 363.95,-47.44 332,-27.5 321.08,-20.69 307.37,-16.25 296.13,-13.49"/>
<polygon fill="#63b8ff" stroke="#63b8ff" points="405.19,-104.77 413.9,-110.81 410.85,-100.66 405.19,-104.77"/>
</a>
</g>
</g>
<!-- Node5 -->
<g id="Node000005" class="node">
<title>Node5</title>
<g id="a_Node000005"><a xlink:href="../../d2/dd5/classfl_1_1_x_y_raster_sparse___r_g_b8_a1684bbac54c06062b198aeaf53eba688.html#a1684bbac54c06062b198aeaf53eba688" target="_top" xlink:title=" ">
<polygon fill="white" stroke="#666666" points="180,-216.5 74,-216.5 74,-186.5 180,-186.5 180,-216.5"/>
<text text-anchor="start" x="82" y="-204.5" font-family="Helvetica,sans-Serif" font-size="10.00">fl::XYRasterSparse</text>
<text text-anchor="middle" x="127" y="-193.5" font-family="Helvetica,sans-Serif" font-size="10.00">_RGB8::draw</text>
</a>
</g>
</g>
<!-- Node4&#45;&gt;Node5 -->
<g id="edge4_Node000004_Node000005" class="edge">
<title>Node4&#45;&gt;Node5</title>
<g id="a_edge4_Node000004_Node000005"><a xlink:title=" ">
<path fill="none" stroke="#63b8ff" d="M243.86,-166.34C224.84,-172.11 199.54,-179.79 177.43,-186.5"/>
<polygon fill="#63b8ff" stroke="#63b8ff" points="244.89,-169.69 253.44,-163.43 242.86,-162.99 244.89,-169.69"/>
</a>
</g>
</g>
<!-- Node6 -->
<g id="Node000006" class="node">
<title>Node6</title>
<g id="a_Node000006"><a xlink:href="../../d4/d06/curr_8h_afe461d27b9c48d5921c00d521181f12f.html#afe461d27b9c48d5921c00d521181f12f" target="_top" xlink:title=" ">
<polygon fill="white" stroke="#666666" points="38,-130 0,-130 0,-111 38,-111 38,-130"/>
<text text-anchor="middle" x="19" y="-118" font-family="Helvetica,sans-Serif" font-size="10.00">loop</text>
</a>
</g>
</g>
<!-- Node4&#45;&gt;Node6 -->
<g id="edge5_Node000004_Node000006" class="edge">
<title>Node4&#45;&gt;Node6</title>
<g id="a_edge5_Node000004_Node000006"><a xlink:title=" ">
<path fill="none" stroke="#63b8ff" d="M243.07,-157.1C203.82,-156.04 133.02,-152.34 74,-139.5 61.76,-136.84 48.49,-132.19 38.17,-128.16"/>
<polygon fill="#63b8ff" stroke="#63b8ff" points="243.19,-160.6 253.27,-157.33 243.35,-153.6 243.19,-160.6"/>
</a>
</g>
</g>
<!-- Node8 -->
<g id="Node000008" class="node">
<title>Node8</title>
<g id="a_Node000008"><a xlink:href="../../d4/d06/curr_8h_ad5dd16b6abf44e3aad21ce2a4badf906.html#ad5dd16b6abf44e3aad21ce2a4badf906" target="_top" xlink:title=" ">
<polygon fill="white" stroke="#666666" points="156.5,-130 97.5,-130 97.5,-111 156.5,-111 156.5,-130"/>
<text text-anchor="middle" x="127" y="-118" font-family="Helvetica,sans-Serif" font-size="10.00">drawFire</text>
</a>
</g>
</g>
<!-- Node7&#45;&gt;Node8 -->
<g id="edge7_Node000007_Node000008" class="edge">
<title>Node7&#45;&gt;Node8</title>
<g id="a_edge7_Node000007_Node000008"><a xlink:title=" ">
<path fill="none" stroke="#63b8ff" d="M209.99,-120.5C191.33,-120.5 171.81,-120.5 156.5,-120.5"/>
<polygon fill="#63b8ff" stroke="#63b8ff" points="210.24,-124 220.24,-120.5 210.24,-117 210.24,-124"/>
</a>
</g>
</g>
<!-- Node8&#45;&gt;Node6 -->
<g id="edge8_Node000008_Node000006" class="edge">
<title>Node8&#45;&gt;Node6</title>
<g id="a_edge8_Node000008_Node000006"><a xlink:title=" ">
<path fill="none" stroke="#63b8ff" d="M87.18,-120.5C70.36,-120.5 51.5,-120.5 38.05,-120.5"/>
<polygon fill="#63b8ff" stroke="#63b8ff" points="87.31,-124 97.31,-120.5 87.31,-117 87.31,-124"/>
</a>
</g>
</g>
<!-- Node10 -->
<g id="Node000010" class="node">
<title>Node10</title>
<g id="a_Node000010"><a xlink:href="../../d4/d06/curr_8h_a889977e3c2cad101b68a8c97148ef3c0.html#a889977e3c2cad101b68a8c97148ef3c0" target="_top" xlink:title=" ">
<polygon fill="white" stroke="#666666" points="161,-93 93,-93 93,-74 161,-74 161,-93"/>
<text text-anchor="middle" x="127" y="-81" font-family="Helvetica,sans-Serif" font-size="10.00">drawNoise</text>
</a>
</g>
</g>
<!-- Node9&#45;&gt;Node10 -->
<g id="edge10_Node000009_Node000010" class="edge">
<title>Node9&#45;&gt;Node10</title>
<g id="a_edge10_Node000009_Node000010"><a xlink:title=" ">
<path fill="none" stroke="#63b8ff" d="M205.6,-83.5C190.14,-83.5 174.36,-83.5 161.1,-83.5"/>
<polygon fill="#63b8ff" stroke="#63b8ff" points="205.69,-87 215.69,-83.5 205.69,-80 205.69,-87"/>
</a>
</g>
</g>
<!-- Node10&#45;&gt;Node6 -->
<g id="edge11_Node000010_Node000006" class="edge">
<title>Node10&#45;&gt;Node6</title>
<g id="a_edge11_Node000010_Node000006"><a xlink:title=" ">
<path fill="none" stroke="#63b8ff" d="M88.93,-96.44C71.76,-102.43 52.12,-109.29 38.21,-114.15"/>
<polygon fill="#63b8ff" stroke="#63b8ff" points="90.41,-99.63 98.7,-93.03 88.11,-93.02 90.41,-99.63"/>
</a>
</g>
</g>
<!-- Node12 -->
<g id="Node000012" class="node">
<title>Node12</title>
<g id="a_Node000012"><a xlink:href="../../db/df4/_color_boost_8h_afe461d27b9c48d5921c00d521181f12f.html#afe461d27b9c48d5921c00d521181f12f" target="_top" xlink:title=" ">
<polygon fill="white" stroke="#666666" points="146,-56 108,-56 108,-37 146,-37 146,-56"/>
<text text-anchor="middle" x="127" y="-44" font-family="Helvetica,sans-Serif" font-size="10.00">loop</text>
</a>
</g>
</g>
<!-- Node11&#45;&gt;Node12 -->
<g id="edge13_Node000011_Node000012" class="edge">
<title>Node11&#45;&gt;Node12</title>
<g id="a_edge13_Node000011_Node000012"><a xlink:title=" ">
<path fill="none" stroke="#63b8ff" d="M221.98,-46.5C195.6,-46.5 165.05,-46.5 146.12,-46.5"/>
<polygon fill="#63b8ff" stroke="#63b8ff" points="222.22,-50 232.22,-46.5 222.22,-43 222.22,-50"/>
</a>
</g>
</g>
</g>
</svg>
