<?xml version="1.0" encoding="UTF-8" standalone="no"?>
<!DOCTYPE svg PUBLIC "-//W3C//DTD SVG 1.1//EN"
 "http://www.w3.org/Graphics/SVG/1.1/DTD/svg11.dtd">
<!-- Generated by graphviz version 2.43.0 (0)
 -->
<!-- Title: fill_raw_2dnoise16into8 Pages: 1 -->
<svg width="382pt" height="64pt"
 viewBox="0.00 0.00 382.00 64.00" xmlns="http://www.w3.org/2000/svg" xmlns:xlink="http://www.w3.org/1999/xlink">

<svg id="main" version="1.1" xmlns="http://www.w3.org/2000/svg" xmlns:xlink="http://www.w3.org/1999/xlink" xml:space="preserve">

<style type="text/css"><![CDATA[
.node, .edge {opacity: 0.7;}
.node.selected, .edge.selected {opacity: 1;}
.edge:hover path { stroke: red; }
.edge:hover polygon { stroke: red; fill: red; }
]]></style>
<script type="application/ecmascript" xlink:href="../../svg.min.js"/>
<svg id="graph" class="graph">
<g id="graph0" class="graph" transform="scale(1 1) rotate(0) translate(4 60)">
<title>fill_raw_2dnoise16into8</title>
<!-- Node1 -->
<g id="Node000001" class="node">
<title>Node1</title>
<g id="a_Node000001"><a xlink:title="Fill a 2D 8&#45;bit buffer with noise, using inoise16()">
<polygon fill="#999999" stroke="#666666" points="374,-37 242,-37 242,-18 374,-18 374,-37"/>
<text text-anchor="middle" x="308" y="-25" font-family="Helvetica,sans-Serif" font-size="10.00">fill_raw_2dnoise16into8</text>
</a>
</g>
</g>
<!-- Node1&#45;&gt;Node1 -->
<g id="edge3_Node000001_Node000001" class="edge">
<title>Node1&#45;&gt;Node1</title>
<g id="a_edge3_Node000001_Node000001"><a xlink:title=" ">
<path fill="none" stroke="#63b8ff" d="M339.44,-45.45C338.54,-50.82 328.06,-55 308,-55 278.14,-55 269.51,-45.73 282.11,-37.08"/>
<polygon fill="#63b8ff" stroke="#63b8ff" points="342.34,-43.49 333.89,-37.08 336.5,-47.35 342.34,-43.49"/>
</a>
</g>
</g>
<!-- Node2 -->
<g id="Node000002" class="node">
<title>Node2</title>
<g id="a_Node000002"><a xlink:href="../../de/da4/group___noise_fill_ga714a0f305e385a60d81a40d1f98b53fc.html#ga714a0f305e385a60d81a40d1f98b53fc" target="_top" xlink:title="Fill an LED matrix with random colors, using 16&#45;bit noise.">
<polygon fill="white" stroke="#666666" points="182,-56 98,-56 98,-37 182,-37 182,-56"/>
<text text-anchor="middle" x="140" y="-44" font-family="Helvetica,sans-Serif" font-size="10.00">fill_2dnoise16</text>
</a>
</g>
</g>
<!-- Node1&#45;&gt;Node2 -->
<g id="edge1_Node000001_Node000002" class="edge">
<title>Node1&#45;&gt;Node2</title>
<g id="a_edge1_Node000001_Node000002"><a xlink:title=" ">
<path fill="none" stroke="#63b8ff" d="M231.85,-36.1C214.7,-38.06 197.1,-40.08 182.02,-41.81"/>
<polygon fill="#63b8ff" stroke="#63b8ff" points="232.33,-39.57 241.87,-34.95 231.54,-32.61 232.33,-39.57"/>
</a>
</g>
</g>
<!-- Node4 -->
<g id="Node000004" class="node">
<title>Node4</title>
<g id="a_Node000004"><a xlink:href="../../d6/de8/noise_8cpp_a46bde35765a7eddbd1049fe49429e94e.html#a46bde35765a7eddbd1049fe49429e94e" target="_top" xlink:title=" ">
<polygon fill="white" stroke="#666666" points="206,-19 74,-19 74,0 206,0 206,-19"/>
<text text-anchor="middle" x="140" y="-7" font-family="Helvetica,sans-Serif" font-size="10.00">fill_raw_2dnoise16into8</text>
</a>
</g>
</g>
<!-- Node1&#45;&gt;Node4 -->
<g id="edge4_Node000001_Node000004" class="edge">
<title>Node1&#45;&gt;Node4</title>
<g id="a_edge4_Node000001_Node000004"><a xlink:title=" ">
<path fill="none" stroke="#63b8ff" d="M231.89,-19.36C223.32,-18.43 214.64,-17.48 206.22,-16.57"/>
<polygon fill="#63b8ff" stroke="#63b8ff" points="231.55,-22.84 241.87,-20.44 232.3,-15.88 231.55,-22.84"/>
</a>
</g>
</g>
<!-- Node3 -->
<g id="Node000003" class="node">
<title>Node3</title>
<g id="a_Node000003"><a xlink:href="../../d3/d4e/_noise_playground_8h_afe461d27b9c48d5921c00d521181f12f.html#afe461d27b9c48d5921c00d521181f12f" target="_top" xlink:title=" ">
<polygon fill="white" stroke="#666666" points="38,-56 0,-56 0,-37 38,-37 38,-56"/>
<text text-anchor="middle" x="19" y="-44" font-family="Helvetica,sans-Serif" font-size="10.00">loop</text>
</a>
</g>
</g>
<!-- Node2&#45;&gt;Node3 -->
<g id="edge2_Node000002_Node000003" class="edge">
<title>Node2&#45;&gt;Node3</title>
<g id="a_edge2_Node000002_Node000003"><a xlink:title=" ">
<path fill="none" stroke="#63b8ff" d="M87.53,-46.5C69.97,-46.5 51.46,-46.5 38.26,-46.5"/>
<polygon fill="#63b8ff" stroke="#63b8ff" points="87.71,-50 97.71,-46.5 87.71,-43 87.71,-50"/>
</a>
</g>
</g>
</g>
</svg>
</svg>

<style type='text/css'>
<![CDATA[
[data-mouse-over-selected='false'] { opacity: 0.7; }
[data-mouse-over-selected='true']  { opacity: 1.0; }
]]>
</style>
<script type="application/ecmascript"><![CDATA[
document.addEventListener('DOMContentLoaded', (event) => {
  highlightEdges();
  highlightAdjacentNodes();
});
]]></script>
</svg>
