<?xml version="1.0" encoding="UTF-8" standalone="no"?>
<!DOCTYPE svg PUBLIC "-//W3C//DTD SVG 1.1//EN"
 "http://www.w3.org/Graphics/SVG/1.1/DTD/svg11.dtd">
<!-- Generated by graphviz version 2.43.0 (0)
 -->
<!-- Title: fill_noise8 Pages: 1 -->
<svg width="398pt" height="83pt"
 viewBox="0.00 0.00 398.00 83.00" xmlns="http://www.w3.org/2000/svg" xmlns:xlink="http://www.w3.org/1999/xlink">

<svg id="main" version="1.1" xmlns="http://www.w3.org/2000/svg" xmlns:xlink="http://www.w3.org/1999/xlink" xml:space="preserve">

<style type="text/css"><![CDATA[
.node, .edge {opacity: 0.7;}
.node.selected, .edge.selected {opacity: 1;}
.edge:hover path { stroke: red; }
.edge:hover polygon { stroke: red; fill: red; }
]]></style>
<script type="application/ecmascript" xlink:href="../../svg.min.js"/>
<svg id="graph" class="graph">
<g id="graph0" class="graph" transform="scale(1 1) rotate(0) translate(4 79)">
<title>fill_noise8</title>
<!-- Node1 -->
<g id="Node000001" class="node">
<title>Node1</title>
<g id="a_Node000001"><a xlink:title="Fill an LED array with random colors, using 8&#45;bit noise.">
<polygon fill="#999999" stroke="#666666" points="66,-37 0,-37 0,-18 66,-18 66,-37"/>
<text text-anchor="middle" x="33" y="-25" font-family="Helvetica,sans-Serif" font-size="10.00">fill_noise8</text>
</a>
</g>
</g>
<!-- Node2 -->
<g id="Node000002" class="node">
<title>Node2</title>
<g id="a_Node000002"><a xlink:href="../../de/da4/group___noise_fill_ga1e4dba9289b03333697e70d4b7f3b006.html#ga1e4dba9289b03333697e70d4b7f3b006" target="_top" xlink:title="Fill a 1D 8&#45;bit buffer with noise, using inoise8()">
<polygon fill="white" stroke="#666666" points="191,-56 102,-56 102,-37 191,-37 191,-56"/>
<text text-anchor="middle" x="146.5" y="-44" font-family="Helvetica,sans-Serif" font-size="10.00">fill_raw_noise8</text>
</a>
</g>
</g>
<!-- Node1&#45;&gt;Node2 -->
<g id="edge1_Node000001_Node000002" class="edge">
<title>Node1&#45;&gt;Node2</title>
<g id="a_edge1_Node000001_Node000002"><a xlink:title=" ">
<path fill="none" stroke="#63b8ff" d="M66.25,-33C74.2,-34.35 82.93,-35.84 91.61,-37.32"/>
<polygon fill="#63b8ff" stroke="#63b8ff" points="91.26,-40.81 101.71,-39.04 92.44,-33.91 91.26,-40.81"/>
</a>
</g>
</g>
<!-- Node10 -->
<g id="Node000010" class="node">
<title>Node10</title>
<g id="a_Node000010"><a xlink:href="../../d4/d36/namespacefl_a4b8a9d50bb843c25b6392094c34e7fb1.html#a4b8a9d50bb843c25b6392094c34e7fb1" target="_top" xlink:title=" ">
<polygon fill="white" stroke="#666666" points="179.5,-19 113.5,-19 113.5,0 179.5,0 179.5,-19"/>
<text text-anchor="middle" x="146.5" y="-7" font-family="Helvetica,sans-Serif" font-size="10.00">fl::memfill</text>
</a>
</g>
</g>
<!-- Node1&#45;&gt;Node10 -->
<g id="edge6_Node000001_Node000010" class="edge">
<title>Node1&#45;&gt;Node10</title>
<g id="a_edge6_Node000001_Node000010"><a xlink:title=" ">
<path fill="none" stroke="#63b8ff" d="M66.25,-22.29C77.81,-20.43 91.01,-18.3 103.29,-16.31"/>
<polygon fill="#63b8ff" stroke="#63b8ff" points="104.01,-19.74 113.32,-14.69 102.89,-12.83 104.01,-19.74"/>
</a>
</g>
</g>
<!-- Node3 -->
<g id="Node000003" class="node">
<title>Node3</title>
<g id="a_Node000003"><a xlink:href="../../d8/df9/group___noise_generation_gaa521ccca6038d7b5e881fe2e8f35d3bc.html#gaa521ccca6038d7b5e881fe2e8f35d3bc" target="_top" xlink:title="8&#45;Bit, fixed point implementation of Perlin&#39;s noise.">
<polygon fill="white" stroke="#666666" points="279,-75 227,-75 227,-56 279,-56 279,-75"/>
<text text-anchor="middle" x="253" y="-63" font-family="Helvetica,sans-Serif" font-size="10.00">inoise8</text>
</a>
</g>
</g>
<!-- Node2&#45;&gt;Node3 -->
<g id="edge2_Node000002_Node000003" class="edge">
<title>Node2&#45;&gt;Node3</title>
<g id="a_edge2_Node000002_Node000003"><a xlink:title=" ">
<path fill="none" stroke="#63b8ff" d="M191.21,-54.45C199.78,-56.01 208.67,-57.62 216.92,-59.12"/>
<polygon fill="#63b8ff" stroke="#63b8ff" points="216.48,-62.6 226.95,-60.95 217.74,-55.71 216.48,-62.6"/>
</a>
</g>
</g>
<!-- Node9 -->
<g id="Node000009" class="node">
<title>Node9</title>
<g id="a_Node000009"><a xlink:href="../../d5/d98/group___math_ga07133b3085824d0fcd4f5086d286c4b5.html#ga07133b3085824d0fcd4f5086d286c4b5" target="_top" xlink:title="Add one byte to another, saturating at 0xFF.">
<polygon fill="white" stroke="#666666" points="376,-38 329,-38 329,-19 376,-19 376,-38"/>
<text text-anchor="middle" x="352.5" y="-26" font-family="Helvetica,sans-Serif" font-size="10.00">qadd8</text>
</a>
</g>
</g>
<!-- Node2&#45;&gt;Node9 -->
<g id="edge5_Node000002_Node000009" class="edge">
<title>Node2&#45;&gt;Node9</title>
<g id="a_edge5_Node000002_Node000009"><a xlink:title=" ">
<path fill="none" stroke="#63b8ff" d="M191.01,-42.66C229.3,-39.28 284.18,-34.44 318.82,-31.38"/>
<polygon fill="#63b8ff" stroke="#63b8ff" points="319.23,-34.86 328.88,-30.5 318.61,-27.89 319.23,-34.86"/>
</a>
</g>
</g>
<!-- Node4 -->
<g id="Node000004" class="node">
<title>Node4</title>
<g id="a_Node000004"><a xlink:href="../../d8/d5c/group___noise_ga6c57ed3ea69e819c29602578ecbabd71.html#ga6c57ed3ea69e819c29602578ecbabd71" target="_top" xlink:title="8&#45;bit, fixed point implementation of Perlin&#39;s noise without scaling.">
<polygon fill="#fff0f0" stroke="red" points="390,-75 315,-75 315,-56 390,-56 390,-75"/>
<text text-anchor="middle" x="352.5" y="-63" font-family="Helvetica,sans-Serif" font-size="10.00">inoise8_raw</text>
</a>
</g>
</g>
<!-- Node3&#45;&gt;Node4 -->
<g id="edge3_Node000003_Node000004" class="edge">
<title>Node3&#45;&gt;Node4</title>
<g id="a_edge3_Node000003_Node000004"><a xlink:title=" ">
<path fill="none" stroke="#63b8ff" d="M279.11,-65.5C286.9,-65.5 295.74,-65.5 304.51,-65.5"/>
<polygon fill="#63b8ff" stroke="#63b8ff" points="304.71,-69 314.71,-65.5 304.71,-62 304.71,-69"/>
</a>
</g>
</g>
<!-- Node3&#45;&gt;Node9 -->
<g id="edge4_Node000003_Node000009" class="edge">
<title>Node3&#45;&gt;Node9</title>
<g id="a_edge4_Node000003_Node000009"><a xlink:title=" ">
<path fill="none" stroke="#63b8ff" d="M279.11,-55.97C291.34,-51.33 306.19,-45.7 319.25,-40.74"/>
<polygon fill="#63b8ff" stroke="#63b8ff" points="320.7,-43.93 328.81,-37.11 318.22,-37.39 320.7,-43.93"/>
</a>
</g>
</g>
</g>
</svg>
</svg>

<style type='text/css'>
<![CDATA[
[data-mouse-over-selected='false'] { opacity: 0.7; }
[data-mouse-over-selected='true']  { opacity: 1.0; }
]]>
</style>
<script type="application/ecmascript"><![CDATA[
document.addEventListener('DOMContentLoaded', (event) => {
  highlightEdges();
  highlightAdjacentNodes();
});
]]></script>
</svg>
