<?xml version="1.0" encoding="UTF-8" standalone="no"?>
<!DOCTYPE svg PUBLIC "-//W3C//DTD SVG 1.1//EN"
 "http://www.w3.org/Graphics/SVG/1.1/DTD/svg11.dtd">
<!-- Generated by graphviz version 2.43.0 (0)
 -->
<!-- Title: fill_2dnoise16 Pages: 1 -->
<svg width="654pt" height="223pt"
 viewBox="0.00 0.00 654.00 223.39" xmlns="http://www.w3.org/2000/svg" xmlns:xlink="http://www.w3.org/1999/xlink">
<g id="graph0" class="graph" transform="scale(1 1) rotate(0) translate(4 219.39)">
<title>fill_2dnoise16</title>
<!-- Node1 -->
<g id="Node000001" class="node">
<title>Node1</title>
<g id="a_Node000001"><a xlink:title="Fill an LED matrix with random colors, using 16&#45;bit noise.">
<polygon fill="#999999" stroke="#666666" points="84,-102 0,-102 0,-83 84,-83 84,-102"/>
<text text-anchor="middle" x="42" y="-90" font-family="Helvetica,sans-Serif" font-size="10.00">fill_2dnoise16</text>
</a>
</g>
</g>
<!-- Node2 -->
<g id="Node000002" class="node">
<title>Node2</title>
<g id="a_Node000002"><a xlink:href="../../dc/db8/group___color_blends_ga4f06b4423f71f77346aaf5dabe7dd05c.html#ga4f06b4423f71f77346aaf5dabe7dd05c" target="_top" xlink:title="Computes a new color blended some fraction of the way between two other colors.">
<polygon fill="white" stroke="#666666" points="208,-167 164,-167 164,-148 208,-148 208,-167"/>
<text text-anchor="middle" x="186" y="-155" font-family="Helvetica,sans-Serif" font-size="10.00">blend</text>
</a>
</g>
</g>
<!-- Node1&#45;&gt;Node2 -->
<g id="edge1_Node000001_Node000002" class="edge">
<title>Node1&#45;&gt;Node2</title>
<g id="a_edge1_Node000001_Node000002"><a xlink:title=" ">
<path fill="none" stroke="#63b8ff" d="M62.52,-102.15C78.02,-109.75 100.29,-120.53 120,-129.5 131.13,-134.57 143.43,-139.93 154.31,-144.59"/>
<polygon fill="#63b8ff" stroke="#63b8ff" points="153.25,-147.94 163.83,-148.64 156,-141.5 153.25,-147.94"/>
</a>
</g>
</g>
<!-- Node7 -->
<g id="Node000007" class="node">
<title>Node7</title>
<g id="a_Node000007"><a xlink:href="../../de/da4/group___noise_fill_ga20a2ff725bc56666c206d54deb372586.html#ga20a2ff725bc56666c206d54deb372586" target="_top" xlink:title="Fill a 2D 8&#45;bit buffer with noise, using inoise16()">
<polygon fill="white" stroke="#666666" points="252,-102 120,-102 120,-83 252,-83 252,-102"/>
<text text-anchor="middle" x="186" y="-90" font-family="Helvetica,sans-Serif" font-size="10.00">fill_raw_2dnoise16into8</text>
</a>
</g>
</g>
<!-- Node1&#45;&gt;Node7 -->
<g id="edge8_Node000001_Node000007" class="edge">
<title>Node1&#45;&gt;Node7</title>
<g id="a_edge8_Node000001_Node000007"><a xlink:title=" ">
<path fill="none" stroke="#63b8ff" d="M84.07,-92.5C92.23,-92.5 101.02,-92.5 109.91,-92.5"/>
<polygon fill="#63b8ff" stroke="#63b8ff" points="109.94,-96 119.94,-92.5 109.94,-89 109.94,-96"/>
</a>
</g>
</g>
<!-- Node13 -->
<g id="Node000013" class="node">
<title>Node13</title>
<g id="a_Node000013"><a xlink:href="../../de/da4/group___noise_fill_ga3dc6c55a3f8495a7bc6dc0124434c688.html#ga3dc6c55a3f8495a7bc6dc0124434c688" target="_top" xlink:title="Fill a 2D 8&#45;bit buffer with noise, using inoise8()">
<polygon fill="white" stroke="#666666" points="236.5,-47 135.5,-47 135.5,-28 236.5,-28 236.5,-47"/>
<text text-anchor="middle" x="186" y="-35" font-family="Helvetica,sans-Serif" font-size="10.00">fill_raw_2dnoise8</text>
</a>
</g>
</g>
<!-- Node1&#45;&gt;Node13 -->
<g id="edge14_Node000001_Node000013" class="edge">
<title>Node1&#45;&gt;Node13</title>
<g id="a_edge14_Node000001_Node000013"><a xlink:title=" ">
<path fill="none" stroke="#63b8ff" d="M67.73,-82.92C90.7,-74.02 125.12,-60.69 150.73,-50.77"/>
<polygon fill="#63b8ff" stroke="#63b8ff" points="152.01,-54.03 160.07,-47.16 149.48,-47.5 152.01,-54.03"/>
</a>
</g>
</g>
<!-- Node3 -->
<g id="Node000003" class="node">
<title>Node3</title>
<g id="a_Node000003"><a xlink:href="../../dc/db8/group___color_blends_ga325120664a9c9b41abceee65303b0c4e.html#ga325120664a9c9b41abceee65303b0c4e" target="_top" xlink:title="Destructively modifies one color, blending in a given fraction of an overlay color.">
<polygon fill="white" stroke="#666666" points="342,-183 292,-183 292,-164 342,-164 342,-183"/>
<text text-anchor="middle" x="317" y="-171" font-family="Helvetica,sans-Serif" font-size="10.00">nblend</text>
</a>
</g>
</g>
<!-- Node2&#45;&gt;Node3 -->
<g id="edge2_Node000002_Node000003" class="edge">
<title>Node2&#45;&gt;Node3</title>
<g id="a_edge2_Node000002_Node000003"><a xlink:title=" ">
<path fill="none" stroke="#63b8ff" d="M208.01,-160.11C227.95,-162.58 258.26,-166.34 281.7,-169.25"/>
<polygon fill="#63b8ff" stroke="#63b8ff" points="281.57,-172.76 291.92,-170.51 282.43,-165.81 281.57,-172.76"/>
</a>
</g>
</g>
<!-- Node4 -->
<g id="Node000004" class="node">
<title>Node4</title>
<g id="a_Node000004"><a xlink:href="../../d5/d98/group___math_ga9a604de042246d6c87fdbfdd5578f377.html#ga9a604de042246d6c87fdbfdd5578f377" target="_top" xlink:title="Blend a variable proportion (0&#45;255) of one byte to another.">
<polygon fill="white" stroke="#666666" points="447.5,-197 397.5,-197 397.5,-178 447.5,-178 447.5,-197"/>
<text text-anchor="middle" x="422.5" y="-185" font-family="Helvetica,sans-Serif" font-size="10.00">blend8</text>
</a>
</g>
</g>
<!-- Node3&#45;&gt;Node4 -->
<g id="edge3_Node000003_Node000004" class="edge">
<title>Node3&#45;&gt;Node4</title>
<g id="a_edge3_Node000003_Node000004"><a xlink:title=" ">
<path fill="none" stroke="#63b8ff" d="M342.01,-176.75C355.36,-178.55 372.22,-180.83 386.98,-182.83"/>
<polygon fill="#63b8ff" stroke="#63b8ff" points="386.89,-186.35 397.27,-184.22 387.83,-179.41 386.89,-186.35"/>
</a>
</g>
</g>
<!-- Node5 -->
<g id="Node000005" class="node">
<title>Node5</title>
<g id="a_Node000005"><a xlink:href="../../d0/da5/group___scaling_dirty_ga3fade00fb4cf5b937b973128198a7a79.html#ga3fade00fb4cf5b937b973128198a7a79" target="_top" xlink:title="Clean up the r1 register after a series of *LEAVING_R1_DIRTY calls.">
<polygon fill="white" stroke="#666666" points="609,-215 536,-215 536,-196 609,-196 609,-215"/>
<text text-anchor="middle" x="572.5" y="-203" font-family="Helvetica,sans-Serif" font-size="10.00">cleanup_R1</text>
</a>
</g>
</g>
<!-- Node3&#45;&gt;Node5 -->
<g id="edge6_Node000003_Node000005" class="edge">
<title>Node3&#45;&gt;Node5</title>
<g id="a_edge6_Node000003_Node000005"><a xlink:title=" ">
<path fill="none" stroke="#63b8ff" d="M331.96,-183.2C344.43,-191.23 363.53,-202.02 382,-206.5 430.13,-218.18 487.19,-215.78 526.03,-211.81"/>
<polygon fill="#63b8ff" stroke="#63b8ff" points="526.42,-215.29 535.98,-210.72 525.66,-208.33 526.42,-215.29"/>
</a>
</g>
</g>
<!-- Node6 -->
<g id="Node000006" class="node">
<title>Node6</title>
<g id="a_Node000006"><a xlink:href="../../d0/da5/group___scaling_dirty_ga7386235cada3aca429b189681d2ec56d.html#ga7386235cada3aca429b189681d2ec56d" target="_top" xlink:title="This version of scale8() does not clean up the R1 register on AVR.">
<polygon fill="white" stroke="#666666" points="646,-178 499,-178 499,-159 646,-159 646,-178"/>
<text text-anchor="middle" x="572.5" y="-166" font-family="Helvetica,sans-Serif" font-size="10.00">scale8_LEAVING_R1_DIRTY</text>
</a>
</g>
</g>
<!-- Node3&#45;&gt;Node6 -->
<g id="edge7_Node000003_Node000006" class="edge">
<title>Node3&#45;&gt;Node6</title>
<g id="a_edge7_Node000003_Node000006"><a xlink:title=" ">
<path fill="none" stroke="#63b8ff" d="M342.3,-171.65C354.25,-170.83 368.87,-169.94 382,-169.5 416.86,-168.32 455.36,-167.95 488.49,-167.91"/>
<polygon fill="#63b8ff" stroke="#63b8ff" points="488.59,-171.41 498.59,-167.91 488.59,-164.41 488.59,-171.41"/>
</a>
</g>
</g>
<!-- Node4&#45;&gt;Node5 -->
<g id="edge4_Node000004_Node000005" class="edge">
<title>Node4&#45;&gt;Node5</title>
<g id="a_edge4_Node000004_Node000005"><a xlink:title=" ">
<path fill="none" stroke="#63b8ff" d="M447.61,-190.43C468.72,-193 499.98,-196.8 525.82,-199.94"/>
<polygon fill="#63b8ff" stroke="#63b8ff" points="525.43,-203.42 535.78,-201.16 526.28,-196.47 525.43,-203.42"/>
</a>
</g>
</g>
<!-- Node4&#45;&gt;Node6 -->
<g id="edge5_Node000004_Node000006" class="edge">
<title>Node4&#45;&gt;Node6</title>
<g id="a_edge5_Node000004_Node000006"><a xlink:title=" ">
<path fill="none" stroke="#63b8ff" d="M447.61,-184.41C459.17,-182.92 473.76,-181.05 488.84,-179.11"/>
<polygon fill="#63b8ff" stroke="#63b8ff" points="489.32,-182.58 498.8,-177.83 488.43,-175.64 489.32,-182.58"/>
</a>
</g>
</g>
<!-- Node7&#45;&gt;Node7 -->
<g id="edge9_Node000007_Node000007" class="edge">
<title>Node7&#45;&gt;Node7</title>
<g id="a_edge9_Node000007_Node000007"><a xlink:title=" ">
<path fill="none" stroke="#63b8ff" d="M165.96,-102.08C156.22,-110.73 162.89,-120 186,-120 200.8,-120 208.86,-116.2 210.18,-111.19"/>
<polygon fill="#63b8ff" stroke="#63b8ff" points="213.36,-109.73 206.04,-102.08 206.99,-112.63 213.36,-109.73"/>
</a>
</g>
</g>
<!-- Node8 -->
<g id="Node000008" class="node">
<title>Node8</title>
<g id="a_Node000008"><a xlink:href="../../d8/df9/group___noise_generation_ga46e9de1842d8977b77bee089d0f3b25c.html#ga46e9de1842d8977b77bee089d0f3b25c" target="_top" xlink:title="16&#45;bit, fixed point implementation of Perlin&#39;s noise.">
<polygon fill="white" stroke="#666666" points="346,-132 288,-132 288,-113 346,-113 346,-132"/>
<text text-anchor="middle" x="317" y="-120" font-family="Helvetica,sans-Serif" font-size="10.00">inoise16</text>
</a>
</g>
</g>
<!-- Node7&#45;&gt;Node8 -->
<g id="edge10_Node000007_Node000008" class="edge">
<title>Node7&#45;&gt;Node8</title>
<g id="a_edge10_Node000007_Node000008"><a xlink:title=" ">
<path fill="none" stroke="#63b8ff" d="M228.17,-102.07C244.14,-105.79 262.31,-110.01 277.97,-113.66"/>
<polygon fill="#63b8ff" stroke="#63b8ff" points="277.31,-117.1 287.84,-115.95 278.9,-110.28 277.31,-117.1"/>
</a>
</g>
</g>
<!-- Node11 -->
<g id="Node000011" class="node">
<title>Node11</title>
<g id="a_Node000011"><a xlink:href="../../d5/d98/group___math_ga07133b3085824d0fcd4f5086d286c4b5.html#ga07133b3085824d0fcd4f5086d286c4b5" target="_top" xlink:title="Add one byte to another, saturating at 0xFF.">
<polygon fill="white" stroke="#666666" points="446,-75 399,-75 399,-56 446,-56 446,-75"/>
<text text-anchor="middle" x="422.5" y="-63" font-family="Helvetica,sans-Serif" font-size="10.00">qadd8</text>
</a>
</g>
</g>
<!-- Node7&#45;&gt;Node11 -->
<g id="edge12_Node000007_Node000011" class="edge">
<title>Node7&#45;&gt;Node11</title>
<g id="a_edge12_Node000007_Node000011"><a xlink:title=" ">
<path fill="none" stroke="#63b8ff" d="M252.01,-85.01C296.35,-79.91 353.23,-73.36 388.52,-69.3"/>
<polygon fill="#63b8ff" stroke="#63b8ff" points="389.2,-72.74 398.74,-68.12 388.4,-65.79 389.2,-72.74"/>
</a>
</g>
</g>
<!-- Node12 -->
<g id="Node000012" class="node">
<title>Node12</title>
<g id="a_Node000012"><a xlink:href="../../d0/da8/group___scaling_gad7535ccda9c92470c4e6ee0265585555.html#gad7535ccda9c92470c4e6ee0265585555" target="_top" xlink:title="Scale one byte by a second one, which is treated as the numerator of a fraction whose denominator is ...">
<polygon fill="white" stroke="#666666" points="341,-56 293,-56 293,-37 341,-37 341,-56"/>
<text text-anchor="middle" x="317" y="-44" font-family="Helvetica,sans-Serif" font-size="10.00">scale8</text>
</a>
</g>
</g>
<!-- Node7&#45;&gt;Node12 -->
<g id="edge13_Node000007_Node000012" class="edge">
<title>Node7&#45;&gt;Node12</title>
<g id="a_edge13_Node000007_Node000012"><a xlink:title=" ">
<path fill="none" stroke="#63b8ff" d="M225.09,-82.93C234,-80.42 243.39,-77.56 252,-74.5 263.55,-70.4 275.95,-65.17 286.74,-60.35"/>
<polygon fill="#63b8ff" stroke="#63b8ff" points="288.47,-63.4 296.12,-56.07 285.57,-57.03 288.47,-63.4"/>
</a>
</g>
</g>
<!-- Node9 -->
<g id="Node000009" class="node">
<title>Node9</title>
<g id="a_Node000009"><a xlink:href="../../d8/df9/group___noise_generation_ga810bdc406dcf8fd5b7add9041aa18abd.html#ga810bdc406dcf8fd5b7add9041aa18abd" target="_top" xlink:title="16&#45;bit, fixed point implementation of Perlin&#39;s noise without scaling.">
<polygon fill="#fff0f0" stroke="red" points="463,-121 382,-121 382,-102 463,-102 463,-121"/>
<text text-anchor="middle" x="422.5" y="-109" font-family="Helvetica,sans-Serif" font-size="10.00">inoise16_raw</text>
</a>
</g>
</g>
<!-- Node8&#45;&gt;Node9 -->
<g id="edge11_Node000008_Node000009" class="edge">
<title>Node8&#45;&gt;Node9</title>
<g id="a_edge11_Node000008_Node000009"><a xlink:title=" ">
<path fill="none" stroke="#63b8ff" d="M346.01,-119.52C353.93,-118.68 362.79,-117.74 371.58,-116.81"/>
<polygon fill="#63b8ff" stroke="#63b8ff" points="372.24,-120.26 381.81,-115.72 371.5,-113.29 372.24,-120.26"/>
</a>
</g>
</g>
<!-- Node13&#45;&gt;Node12 -->
<g id="edge19_Node000013_Node000012" class="edge">
<title>Node13&#45;&gt;Node12</title>
<g id="a_edge19_Node000013_Node000012"><a xlink:title=" ">
<path fill="none" stroke="#63b8ff" d="M236.51,-40.95C251.91,-42.03 268.51,-43.19 282.55,-44.17"/>
<polygon fill="#63b8ff" stroke="#63b8ff" points="282.49,-47.67 292.71,-44.88 282.98,-40.69 282.49,-47.67"/>
</a>
</g>
</g>
<!-- Node13&#45;&gt;Node13 -->
<g id="edge15_Node000013_Node000013" class="edge">
<title>Node13&#45;&gt;Node13</title>
<g id="a_edge15_Node000013_Node000013"><a xlink:title=" ">
<path fill="none" stroke="#63b8ff" d="M165.96,-47.08C156.22,-55.73 162.89,-65 186,-65 200.8,-65 208.86,-61.2 210.18,-56.19"/>
<polygon fill="#63b8ff" stroke="#63b8ff" points="213.36,-54.73 206.04,-47.08 206.99,-57.63 213.36,-54.73"/>
</a>
</g>
</g>
<!-- Node14 -->
<g id="Node000014" class="node">
<title>Node14</title>
<g id="a_Node000014"><a xlink:href="../../d8/df9/group___noise_generation_gaa521ccca6038d7b5e881fe2e8f35d3bc.html#gaa521ccca6038d7b5e881fe2e8f35d3bc" target="_top" xlink:title="8&#45;Bit, fixed point implementation of Perlin&#39;s noise.">
<polygon fill="white" stroke="#666666" points="343,-19 291,-19 291,0 343,0 343,-19"/>
<text text-anchor="middle" x="317" y="-7" font-family="Helvetica,sans-Serif" font-size="10.00">inoise8</text>
</a>
</g>
</g>
<!-- Node13&#45;&gt;Node14 -->
<g id="edge16_Node000013_Node000014" class="edge">
<title>Node13&#45;&gt;Node14</title>
<g id="a_edge16_Node000013_Node000014"><a xlink:title=" ">
<path fill="none" stroke="#63b8ff" d="M231.03,-27.94C247.28,-24.42 265.47,-20.47 280.83,-17.13"/>
<polygon fill="#63b8ff" stroke="#63b8ff" points="281.92,-20.48 290.95,-14.94 280.44,-13.64 281.92,-20.48"/>
</a>
</g>
</g>
<!-- Node14&#45;&gt;Node11 -->
<g id="edge18_Node000014_Node000011" class="edge">
<title>Node14&#45;&gt;Node11</title>
<g id="a_edge18_Node000014_Node000011"><a xlink:title=" ">
<path fill="none" stroke="#63b8ff" d="M336.03,-19.25C352.28,-28.05 376.39,-41.09 394.86,-51.09"/>
<polygon fill="#63b8ff" stroke="#63b8ff" points="393.22,-54.18 403.68,-55.86 396.55,-48.02 393.22,-54.18"/>
</a>
</g>
</g>
<!-- Node15 -->
<g id="Node000015" class="node">
<title>Node15</title>
<g id="a_Node000015"><a xlink:href="../../d8/df9/group___noise_generation_ga6c57ed3ea69e819c29602578ecbabd71.html#ga6c57ed3ea69e819c29602578ecbabd71" target="_top" xlink:title="8&#45;bit, fixed point implementation of Perlin&#39;s noise without scaling.">
<polygon fill="#fff0f0" stroke="red" points="460,-19 385,-19 385,0 460,0 460,-19"/>
<text text-anchor="middle" x="422.5" y="-7" font-family="Helvetica,sans-Serif" font-size="10.00">inoise8_raw</text>
</a>
</g>
</g>
<!-- Node14&#45;&gt;Node15 -->
<g id="edge17_Node000014_Node000015" class="edge">
<title>Node14&#45;&gt;Node15</title>
<g id="a_edge17_Node000014_Node000015"><a xlink:title=" ">
<path fill="none" stroke="#63b8ff" d="M343.05,-9.5C352.58,-9.5 363.76,-9.5 374.65,-9.5"/>
<polygon fill="#63b8ff" stroke="#63b8ff" points="374.93,-13 384.93,-9.5 374.93,-6 374.93,-13"/>
</a>
</g>
</g>
</g>
</svg>
