<?xml version="1.0" encoding="UTF-8" standalone="no"?>
<!DOCTYPE svg PUBLIC "-//W3C//DTD SVG 1.1//EN"
 "http://www.w3.org/Graphics/SVG/1.1/DTD/svg11.dtd">
<!-- Generated by graphviz version 2.43.0 (0)
 -->
<!-- Title: fl::Frame::Frame Pages: 1 -->
<svg width="643pt" height="243pt"
 viewBox="0.00 0.00 643.00 243.00" xmlns="http://www.w3.org/2000/svg" xmlns:xlink="http://www.w3.org/1999/xlink">
<g id="graph0" class="graph" transform="scale(1 1) rotate(0) translate(4 239)">
<title>fl::Frame::Frame</title>
<!-- Node1 -->
<g id="Node000001" class="node">
<title>Node1</title>
<g id="a_Node000001"><a xlink:title=" ">
<polygon fill="#999999" stroke="#666666" points="635,-93 539,-93 539,-74 635,-74 635,-93"/>
<text text-anchor="middle" x="587" y="-81" font-family="Helvetica,sans-Serif" font-size="10.00">fl::Frame::Frame</text>
</a>
</g>
</g>
<!-- Node2 -->
<g id="Node000002" class="node">
<title>Node2</title>
<g id="a_Node000002"><a xlink:href="../../d1/de0/classfl_1_1_frame_a1e6375fef38385a370acb91de15e4e73.html#a1e6375fef38385a370acb91de15e4e73" target="_top" xlink:title=" ">
<polygon fill="white" stroke="#666666" points="491.5,-185 395.5,-185 395.5,-166 491.5,-166 491.5,-185"/>
<text text-anchor="middle" x="443.5" y="-173" font-family="Helvetica,sans-Serif" font-size="10.00">fl::Frame::Frame</text>
</a>
</g>
</g>
<!-- Node1&#45;&gt;Node2 -->
<g id="edge1_Node000001_Node000002" class="edge">
<title>Node1&#45;&gt;Node2</title>
<g id="a_edge1_Node000001_Node000002"><a xlink:title=" ">
<path fill="none" stroke="#63b8ff" d="M571.04,-100.56C555.55,-117.27 529.88,-142.35 503,-157.5 497.08,-160.84 490.46,-163.63 483.86,-165.95"/>
<polygon fill="#63b8ff" stroke="#63b8ff" points="573.67,-102.88 577.79,-93.12 568.48,-98.18 573.67,-102.88"/>
</a>
</g>
</g>
<!-- Node3 -->
<g id="Node000003" class="node">
<title>Node3</title>
<g id="a_Node000003"><a xlink:href="../../d1/de0/classfl_1_1_frame_abf096f9e673c5e848233433ed0472467.html#abf096f9e673c5e848233433ed0472467" target="_top" xlink:title=" ">
<polygon fill="white" stroke="#666666" points="488,-148 399,-148 399,-129 488,-129 488,-148"/>
<text text-anchor="middle" x="443.5" y="-136" font-family="Helvetica,sans-Serif" font-size="10.00">fl::Frame::copy</text>
</a>
</g>
</g>
<!-- Node1&#45;&gt;Node3 -->
<g id="edge2_Node000001_Node000003" class="edge">
<title>Node1&#45;&gt;Node3</title>
<g id="a_edge2_Node000001_Node000003"><a xlink:title=" ">
<path fill="none" stroke="#63b8ff" d="M557.25,-97.35C541.43,-104.7 521.35,-113.62 503,-120.5 495.04,-123.49 486.34,-126.36 478.15,-128.91"/>
<polygon fill="#63b8ff" stroke="#63b8ff" points="558.93,-100.42 566.49,-93 555.95,-94.09 558.93,-100.42"/>
</a>
</g>
</g>
<!-- Node12 -->
<g id="Node000012" class="node">
<title>Node12</title>
<g id="a_Node000012"><a xlink:href="../../d1/de0/classfl_1_1_frame_aab2b23b23e0c3a86fca548c35a0d34d4.html#aab2b23b23e0c3a86fca548c35a0d34d4" target="_top" xlink:title=" ">
<polygon fill="white" stroke="#666666" points="503,-93 384,-93 384,-74 503,-74 503,-93"/>
<text text-anchor="middle" x="443.5" y="-81" font-family="Helvetica,sans-Serif" font-size="10.00">fl::Frame::interpolate</text>
</a>
</g>
</g>
<!-- Node1&#45;&gt;Node12 -->
<g id="edge9_Node000001_Node000012" class="edge">
<title>Node1&#45;&gt;Node12</title>
<g id="a_edge9_Node000001_Node000012"><a xlink:title=" ">
<path fill="none" stroke="#63b8ff" d="M528.78,-83.5C520.37,-83.5 511.69,-83.5 503.24,-83.5"/>
<polygon fill="#63b8ff" stroke="#63b8ff" points="528.88,-87 538.88,-83.5 528.88,-80 528.88,-87"/>
</a>
</g>
</g>
<!-- Node14 -->
<g id="Node000014" class="node">
<title>Node14</title>
<g id="a_Node000014"><a xlink:href="../../d1/de0/classfl_1_1_frame_aa39313c1b5979e0cdc4204ee4c3cefc1.html#aa39313c1b5979e0cdc4204ee4c3cefc1" target="_top" xlink:title=" ">
<polygon fill="white" stroke="#666666" points="503,-56 384,-56 384,-37 503,-37 503,-56"/>
<text text-anchor="middle" x="443.5" y="-44" font-family="Helvetica,sans-Serif" font-size="10.00">fl::Frame::interpolate</text>
</a>
</g>
</g>
<!-- Node1&#45;&gt;Node14 -->
<g id="edge12_Node000001_Node000014" class="edge">
<title>Node1&#45;&gt;Node14</title>
<g id="a_edge12_Node000001_Node000014"><a xlink:title=" ">
<path fill="none" stroke="#63b8ff" d="M539.65,-71.38C520.72,-66.43 499.13,-60.78 481.31,-56.12"/>
<polygon fill="#63b8ff" stroke="#63b8ff" points="539,-74.83 549.56,-73.97 540.77,-68.06 539,-74.83"/>
</a>
</g>
</g>
<!-- Node15 -->
<g id="Node000015" class="node">
<title>Node15</title>
<g id="a_Node000015"><a xlink:href="../../d1/de0/classfl_1_1_frame_a3f2626dbf4640ace8b75ade9f89ad965.html#a3f2626dbf4640ace8b75ade9f89ad965" target="_top" xlink:title=" ">
<polygon fill="white" stroke="#666666" points="501,-19 386,-19 386,0 501,0 501,-19"/>
<text text-anchor="middle" x="443.5" y="-7" font-family="Helvetica,sans-Serif" font-size="10.00">fl::Frame::operator=</text>
</a>
</g>
</g>
<!-- Node1&#45;&gt;Node15 -->
<g id="edge13_Node000001_Node000015" class="edge">
<title>Node1&#45;&gt;Node15</title>
<g id="a_edge13_Node000001_Node000015"><a xlink:title=" ">
<path fill="none" stroke="#63b8ff" d="M566.15,-67.64C549.94,-55.31 526.02,-38.51 503,-27.5 496.19,-24.25 488.66,-21.41 481.33,-19.02"/>
<polygon fill="#63b8ff" stroke="#63b8ff" points="564.26,-70.6 574.31,-73.96 568.55,-65.07 564.26,-70.6"/>
</a>
</g>
</g>
<!-- Node4 -->
<g id="Node000004" class="node">
<title>Node4</title>
<g id="a_Node000004"><a xlink:href="../../df/d28/classfl_1_1_jpeg_a4ae4f0c3b070a0fec0ece929c39983ef.html#a4ae4f0c3b070a0fec0ece929c39983ef" target="_top" xlink:title=" ">
<polygon fill="white" stroke="#666666" points="316.5,-198 225.5,-198 225.5,-179 316.5,-179 316.5,-198"/>
<text text-anchor="middle" x="271" y="-186" font-family="Helvetica,sans-Serif" font-size="10.00">fl::Jpeg::decode</text>
</a>
</g>
</g>
<!-- Node3&#45;&gt;Node4 -->
<g id="edge3_Node000003_Node000004" class="edge">
<title>Node3&#45;&gt;Node4</title>
<g id="a_edge3_Node000003_Node000004"><a xlink:title=" ">
<path fill="none" stroke="#63b8ff" d="M402.7,-151.23C396.43,-153.29 390.03,-155.43 384,-157.5 367.91,-163.02 364.3,-165.64 348,-170.5 337.73,-173.56 326.57,-176.44 316.03,-178.97"/>
<polygon fill="#63b8ff" stroke="#63b8ff" points="403.96,-154.51 412.38,-148.08 401.78,-147.85 403.96,-154.51"/>
</a>
</g>
</g>
<!-- Node10 -->
<g id="Node000010" class="node">
<title>Node10</title>
<g id="a_Node000010"><a xlink:href="../../df/d28/classfl_1_1_jpeg_ad2403fe63fd1a44ecc1d05031d1a67ef.html#ad2403fe63fd1a44ecc1d05031d1a67ef" target="_top" xlink:title=" ">
<polygon fill="white" stroke="#666666" points="334,-161 208,-161 208,-142 334,-142 334,-161"/>
<text text-anchor="middle" x="271" y="-149" font-family="Helvetica,sans-Serif" font-size="10.00">fl::Jpeg::decodeStream</text>
</a>
</g>
</g>
<!-- Node3&#45;&gt;Node10 -->
<g id="edge7_Node000003_Node000010" class="edge">
<title>Node3&#45;&gt;Node10</title>
<g id="a_edge7_Node000003_Node000010"><a xlink:title=" ">
<path fill="none" stroke="#63b8ff" d="M388.16,-142.64C370.94,-143.96 351.79,-145.42 334.07,-146.77"/>
<polygon fill="#63b8ff" stroke="#63b8ff" points="388.89,-146.1 398.59,-141.85 388.35,-139.12 388.89,-146.1"/>
</a>
</g>
</g>
<!-- Node11 -->
<g id="Node000011" class="node">
<title>Node11</title>
<g id="a_Node000011"><a xlink:href="../../df/d28/classfl_1_1_jpeg_aa8a17870c42c6d51418108a42c2c477a.html#aa8a17870c42c6d51418108a42c2c477a" target="_top" xlink:title=" ">
<polygon fill="white" stroke="#666666" points="348,-124 194,-124 194,-105 348,-105 348,-124"/>
<text text-anchor="middle" x="271" y="-112" font-family="Helvetica,sans-Serif" font-size="10.00">fl::Jpeg::decodeWithTimeout</text>
</a>
</g>
</g>
<!-- Node3&#45;&gt;Node11 -->
<g id="edge8_Node000003_Node000011" class="edge">
<title>Node3&#45;&gt;Node11</title>
<g id="a_edge8_Node000003_Node000011"><a xlink:title=" ">
<path fill="none" stroke="#63b8ff" d="M388.63,-130.92C373.06,-128.73 355.88,-126.31 339.6,-124.02"/>
<polygon fill="#63b8ff" stroke="#63b8ff" points="388.2,-134.39 398.59,-132.32 389.18,-127.46 388.2,-134.39"/>
</a>
</g>
</g>
<!-- Node5 -->
<g id="Node000005" class="node">
<title>Node5</title>
<g id="a_Node000005"><a xlink:href="../../df/d28/classfl_1_1_jpeg_ad9a274c171b05a759dbe686b51c0180d.html#ad9a274c171b05a759dbe686b51c0180d" target="_top" xlink:title=" ">
<polygon fill="white" stroke="#666666" points="124.5,-235 33.5,-235 33.5,-216 124.5,-216 124.5,-235"/>
<text text-anchor="middle" x="79" y="-223" font-family="Helvetica,sans-Serif" font-size="10.00">fl::Jpeg::decode</text>
</a>
</g>
</g>
<!-- Node4&#45;&gt;Node5 -->
<g id="edge4_Node000004_Node000005" class="edge">
<title>Node4&#45;&gt;Node5</title>
<g id="a_edge4_Node000004_Node000005"><a xlink:title=" ">
<path fill="none" stroke="#63b8ff" d="M215.54,-199.11C186.72,-204.72 151.78,-211.52 124.6,-216.82"/>
<polygon fill="#63b8ff" stroke="#63b8ff" points="216.31,-202.52 225.45,-197.17 214.97,-195.65 216.31,-202.52"/>
</a>
</g>
</g>
<!-- Node6 -->
<g id="Node000006" class="node">
<title>Node6</title>
<g id="a_Node000006"><a xlink:href="../../df/d37/classfl_1_1_file_system_ac981ecdba46591c28acab92177fe70f9.html#ac981ecdba46591c28acab92177fe70f9" target="_top" xlink:title=" ">
<polygon fill="#fff0f0" stroke="red" points="144.5,-198 13.5,-198 13.5,-179 144.5,-179 144.5,-198"/>
<text text-anchor="middle" x="79" y="-186" font-family="Helvetica,sans-Serif" font-size="10.00">fl::FileSystem::loadJpeg</text>
</a>
</g>
</g>
<!-- Node4&#45;&gt;Node6 -->
<g id="edge5_Node000004_Node000006" class="edge">
<title>Node4&#45;&gt;Node6</title>
<g id="a_edge5_Node000004_Node000006"><a xlink:title=" ">
<path fill="none" stroke="#63b8ff" d="M215.29,-188.5C193.27,-188.5 167.72,-188.5 144.78,-188.5"/>
<polygon fill="#63b8ff" stroke="#63b8ff" points="215.45,-192 225.45,-188.5 215.45,-185 215.45,-192"/>
</a>
</g>
</g>
<!-- Node8 -->
<g id="Node000008" class="node">
<title>Node8</title>
<g id="a_Node000008"><a xlink:href="../../dd/dca/namespace_codec_processor_a2edcc19e73e616ac2e999bc6541ea618.html#a2edcc19e73e616ac2e999bc6541ea618" target="_top" xlink:title=" ">
<polygon fill="#fff0f0" stroke="red" points="158,-161 0,-161 0,-142 158,-142 158,-161"/>
<text text-anchor="middle" x="79" y="-149" font-family="Helvetica,sans-Serif" font-size="10.00">CodecProcessor::processJpeg</text>
</a>
</g>
</g>
<!-- Node4&#45;&gt;Node8 -->
<g id="edge6_Node000004_Node000008" class="edge">
<title>Node4&#45;&gt;Node8</title>
<g id="a_edge6_Node000004_Node000008"><a xlink:title=" ">
<path fill="none" stroke="#63b8ff" d="M215.3,-177.85C188.04,-172.54 155.36,-166.17 128.94,-161.03"/>
<polygon fill="#63b8ff" stroke="#63b8ff" points="214.97,-181.35 225.45,-179.83 216.31,-174.48 214.97,-181.35"/>
</a>
</g>
</g>
<!-- Node12&#45;&gt;Node12 -->
<g id="edge11_Node000012_Node000012" class="edge">
<title>Node12&#45;&gt;Node12</title>
<g id="a_edge11_Node000012_Node000012"><a xlink:title=" ">
<path fill="none" stroke="#63b8ff" d="M469.91,-102.19C468.47,-107.2 459.67,-111 443.5,-111 418.26,-111 410.97,-101.73 421.61,-93.08"/>
<polygon fill="#63b8ff" stroke="#63b8ff" points="472.97,-100.48 465.39,-93.08 466.7,-103.6 472.97,-100.48"/>
</a>
</g>
</g>
<!-- Node13 -->
<g id="Node000013" class="node">
<title>Node13</title>
<g id="a_Node000013"><a xlink:href="../../d4/d2b/classfl_1_1video_1_1_frame_interpolator_a4c607b044a29b0bc1929e71ca69d30bc.html#a4c607b044a29b0bc1929e71ca69d30bc" target="_top" xlink:title=" ">
<polygon fill="white" stroke="#666666" points="345.5,-86.5 196.5,-86.5 196.5,-56.5 345.5,-56.5 345.5,-86.5"/>
<text text-anchor="start" x="204.5" y="-74.5" font-family="Helvetica,sans-Serif" font-size="10.00">fl::video::FrameInterpolator</text>
<text text-anchor="middle" x="271" y="-63.5" font-family="Helvetica,sans-Serif" font-size="10.00">::draw</text>
</a>
</g>
</g>
<!-- Node12&#45;&gt;Node13 -->
<g id="edge10_Node000012_Node000013" class="edge">
<title>Node12&#45;&gt;Node13</title>
<g id="a_edge10_Node000012_Node000013"><a xlink:title=" ">
<path fill="none" stroke="#63b8ff" d="M373.85,-78.67C364.53,-78.01 354.94,-77.34 345.54,-76.68"/>
<polygon fill="#63b8ff" stroke="#63b8ff" points="373.6,-82.16 383.82,-79.37 374.09,-75.18 373.6,-82.16"/>
</a>
</g>
</g>
</g>
</svg>
