<?xml version="1.0" encoding="UTF-8" standalone="no"?>
<!DOCTYPE svg PUBLIC "-//W3C//DTD SVG 1.1//EN"
 "http://www.w3.org/Graphics/SVG/1.1/DTD/svg11.dtd">
<!-- Generated by graphviz version 2.43.0 (0)
 -->
<!-- Title: fl::Frame::getHeight Pages: 1 -->
<!--zoomable 258 -->

<svg id="main" version="1.1" xmlns="http://www.w3.org/2000/svg" xmlns:xlink="http://www.w3.org/1999/xlink" xml:space="preserve" onload="init(evt)">

<style type="text/css"><![CDATA[
.node, .edge {opacity: 0.7;}
.node.selected, .edge.selected {opacity: 1;}
.edge:hover path { stroke: red; }
.edge:hover polygon { stroke: red; fill: red; }
]]></style>

<defs>
  <circle id="rim" cx="0" cy="0" r="7"/>
  <circle id="rim2" cx="0" cy="0" r="3.5"/>
  <g id="zoomPlus">
    <use xlink:href="#rim" fill="#404040"><set attributeName="fill" to="#808080" begin="zoomplus.mouseover" end="zoomplus.mouseout"/></use>
    <path d="M-4,0h8M0,-4v8" fill="none" stroke="white" stroke-width="1.5" pointer-events="none"/>
  </g>
  <g id="zoomMin">
    <use xlink:href="#rim" fill="#404040"><set attributeName="fill" to="#808080" begin="zoomminus.mouseover" end="zoomminus.mouseout"/></use>
    <path d="M-4,0h8" fill="none" stroke="white" stroke-width="1.5" pointer-events="none"/>
  </g>
  <g id="arrowUp" transform="translate(30 24)">
    <use xlink:href="#rim"/>
    <path pointer-events="none" fill="none" stroke="white" stroke-width="1.5" d="M0,-3.0v7 M-2.5,-0.5L0,-3.0L2.5,-0.5"/>
  </g>
  <g id="arrowRight" transform="rotate(90) translate(36 -43)">
    <use xlink:href="#rim"/>
    <path pointer-events="none" fill="none" stroke="white" stroke-width="1.5" d="M0,-3.0v7 M-2.5,-0.5L0,-3.0L2.5,-0.5"/>
  </g>
  <g id="arrowDown" transform="rotate(180) translate(-30 -48)">
    <use xlink:href="#rim"/>
    <path pointer-events="none" fill="none" stroke="white" stroke-width="1.5" d="M0,-3.0v7 M-2.5,-0.5L0,-3.0L2.5,-0.5"/>
  </g>
  <g id="arrowLeft" transform="rotate(270) translate(-36 17)">
    <use xlink:href="#rim"/>
    <path pointer-events="none" fill="none" stroke="white" stroke-width="1.5" d="M0,-3.0v7 M-2.5,-0.5L0,-3.0L2.5,-0.5"/>
  </g>
  <g id="resetDef">
    <use xlink:href="#rim2" fill="#404040"><set attributeName="fill" to="#808080" begin="reset.mouseover" end="reset.mouseout"/></use>
  </g>
</defs>
<script type="application/ecmascript">
var viewWidth = 797;
var viewHeight = 258;
var sectionId = 'dynsection-0';
</script>
<script type="application/ecmascript" xlink:href="../../svg.min.js"/>
<svg id="graph" class="graph">
<g id="viewport">
<title>fl::Frame::getHeight</title>
<!-- Node1 -->
<g id="Node000001" class="node">
<title>Node1</title>
<g id="a_Node000001"><a xlink:title=" ">
<polygon fill="#999999" stroke="#666666" points="789,-134.5 676,-134.5 676,-115.5 789,-115.5 789,-134.5"/>
<text text-anchor="middle" x="732.5" y="-122.5" font-family="Helvetica,sans-Serif" font-size="10.00">fl::Frame::getHeight</text>
</a>
</g>
</g>
<!-- Node2 -->
<g id="Node000002" class="node">
<title>Node2</title>
<g id="a_Node000002"><a xlink:href="../../df/d28/classfl_1_1_jpeg_a4ae4f0c3b070a0fec0ece929c39983ef.html#a4ae4f0c3b070a0fec0ece929c39983ef" target="_top" xlink:title=" ">
<polygon fill="white" stroke="#666666" points="606.5,-227.5 515.5,-227.5 515.5,-208.5 606.5,-208.5 606.5,-227.5"/>
<text text-anchor="middle" x="561" y="-215.5" font-family="Helvetica,sans-Serif" font-size="10.00">fl::Jpeg::decode</text>
</a>
</g>
</g>
<!-- Node1&#45;&gt;Node2 -->
<g id="edge1_Node000001_Node000002" class="edge">
<title>Node1&#45;&gt;Node2</title>
<g id="a_edge1_Node000001_Node000002"><a xlink:title=" ">
<path fill="none" stroke="#63b8ff" d="M715.68,-141.92C698.63,-159.14 669.89,-185.31 640,-200 629.65,-205.09 617.81,-208.77 606.54,-211.42"/>
<polygon fill="#63b8ff" stroke="#63b8ff" points="718.22,-144.34 722.65,-134.72 713.19,-139.47 718.22,-144.34"/>
</a>
</g>
</g>
<!-- Node8 -->
<g id="Node000008" class="node">
<title>Node8</title>
<g id="a_Node000008"><a xlink:href="../../df/d28/classfl_1_1_jpeg_ad2403fe63fd1a44ecc1d05031d1a67ef.html#ad2403fe63fd1a44ecc1d05031d1a67ef" target="_top" xlink:title=" ">
<polygon fill="white" stroke="#666666" points="624,-190.5 498,-190.5 498,-171.5 624,-171.5 624,-190.5"/>
<text text-anchor="middle" x="561" y="-178.5" font-family="Helvetica,sans-Serif" font-size="10.00">fl::Jpeg::decodeStream</text>
</a>
</g>
</g>
<!-- Node1&#45;&gt;Node8 -->
<g id="edge7_Node000001_Node000008" class="edge">
<title>Node1&#45;&gt;Node8</title>
<g id="a_edge7_Node000001_Node000008"><a xlink:title=" ">
<path fill="none" stroke="#63b8ff" d="M701.93,-138.76C684.23,-146.62 661.15,-156.22 640,-163 630.21,-166.14 619.56,-168.97 609.37,-171.4"/>
<polygon fill="#63b8ff" stroke="#63b8ff" points="703.47,-141.9 711.15,-134.6 700.6,-135.52 703.47,-141.9"/>
</a>
</g>
</g>
<!-- Node9 -->
<g id="Node000009" class="node">
<title>Node9</title>
<g id="a_Node000009"><a xlink:href="../../df/d28/classfl_1_1_jpeg_aa8a17870c42c6d51418108a42c2c477a.html#aa8a17870c42c6d51418108a42c2c477a" target="_top" xlink:title=" ">
<polygon fill="white" stroke="#666666" points="638,-153.5 484,-153.5 484,-134.5 638,-134.5 638,-153.5"/>
<text text-anchor="middle" x="561" y="-141.5" font-family="Helvetica,sans-Serif" font-size="10.00">fl::Jpeg::decodeWithTimeout</text>
</a>
</g>
</g>
<!-- Node1&#45;&gt;Node9 -->
<g id="edge8_Node000001_Node000009" class="edge">
<title>Node1&#45;&gt;Node9</title>
<g id="a_edge8_Node000001_Node000009"><a xlink:title=" ">
<path fill="none" stroke="#63b8ff" d="M665.92,-132.35C656.86,-133.37 647.48,-134.42 638.25,-135.45"/>
<polygon fill="#63b8ff" stroke="#63b8ff" points="666.45,-135.81 676,-131.22 665.67,-128.86 666.45,-135.81"/>
</a>
</g>
</g>
<!-- Node10 -->
<g id="Node000010" class="node">
<title>Node10</title>
<g id="a_Node000010"><a xlink:href="../../dd/dca/namespace_codec_processor_a4216b21d03f325b5d991d5f7a0a19062.html#a4216b21d03f325b5d991d5f7a0a19062" target="_top" xlink:title=" ">
<polygon fill="white" stroke="#666666" points="446,-121 280,-121 280,-91 446,-91 446,-121"/>
<text text-anchor="start" x="288" y="-109" font-family="Helvetica,sans-Serif" font-size="10.00">CodecProcessor::displayFrame</text>
<text text-anchor="middle" x="363" y="-98" font-family="Helvetica,sans-Serif" font-size="10.00">OnLEDs</text>
</a>
</g>
</g>
<!-- Node1&#45;&gt;Node10 -->
<g id="edge9_Node000001_Node000010" class="edge">
<title>Node1&#45;&gt;Node10</title>
<g id="a_edge9_Node000001_Node000010"><a xlink:title=" ">
<path fill="none" stroke="#63b8ff" d="M665.35,-121.58C603.96,-118.41 512.38,-113.67 446.3,-110.26"/>
<polygon fill="#63b8ff" stroke="#63b8ff" points="665.52,-125.09 675.68,-122.11 665.88,-118.1 665.52,-125.09"/>
</a>
</g>
</g>
<!-- Node13 -->
<g id="Node000013" class="node">
<title>Node13</title>
<g id="a_Node000013"><a xlink:href="../../dd/dca/namespace_codec_processor_a4339272f6685f1fdc7c18717be608065.html#a4339272f6685f1fdc7c18717be608065" target="_top" xlink:title=" ">
<polygon fill="white" stroke="#666666" points="630.5,-78 491.5,-78 491.5,-48 630.5,-48 630.5,-78"/>
<text text-anchor="start" x="499.5" y="-66" font-family="Helvetica,sans-Serif" font-size="10.00">CodecProcessor::getPixel</text>
<text text-anchor="middle" x="561" y="-55" font-family="Helvetica,sans-Serif" font-size="10.00">FromFrame</text>
</a>
</g>
</g>
<!-- Node1&#45;&gt;Node13 -->
<g id="edge15_Node000001_Node000013" class="edge">
<title>Node1&#45;&gt;Node13</title>
<g id="a_edge15_Node000001_Node000013"><a xlink:title=" ">
<path fill="none" stroke="#63b8ff" d="M695.93,-111.99C668.9,-102.1 631.67,-88.48 603.32,-78.12"/>
<polygon fill="#63b8ff" stroke="#63b8ff" points="694.79,-115.3 705.39,-115.45 697.2,-108.73 694.79,-115.3"/>
</a>
</g>
</g>
<!-- Node14 -->
<g id="Node000014" class="node">
<title>Node14</title>
<g id="a_Node000014"><a xlink:href="../../db/d63/class_auto_research_remote_control_abb6600e8a1e8c4ef46ba29e7bd3b78b4.html#abb6600e8a1e8c4ef46ba29e7bd3b78b4" target="_top" xlink:title="Register all RPC functions with shared autoresearch state.">
<polygon fill="white" stroke="#666666" points="640,-30 482,-30 482,0 640,0 640,-30"/>
<text text-anchor="start" x="490" y="-18" font-family="Helvetica,sans-Serif" font-size="10.00">AutoResearchRemoteControl</text>
<text text-anchor="middle" x="561" y="-7" font-family="Helvetica,sans-Serif" font-size="10.00">::registerFunctions</text>
</a>
</g>
</g>
<!-- Node1&#45;&gt;Node14 -->
<g id="edge17_Node000001_Node000014" class="edge">
<title>Node1&#45;&gt;Node14</title>
<g id="a_edge17_Node000001_Node000014"><a xlink:title=" ">
<path fill="none" stroke="#63b8ff" d="M717.24,-107.46C700.61,-88.09 671.36,-57.23 640,-39 634.12,-35.58 627.7,-32.6 621.16,-30.02"/>
<polygon fill="#63b8ff" stroke="#63b8ff" points="714.65,-109.82 723.76,-115.23 720.01,-105.32 714.65,-109.82"/>
</a>
</g>
</g>
<!-- Node3 -->
<g id="Node000003" class="node">
<title>Node3</title>
<g id="a_Node000003"><a xlink:href="../../df/d28/classfl_1_1_jpeg_ad9a274c171b05a759dbe686b51c0180d.html#ad9a274c171b05a759dbe686b51c0180d" target="_top" xlink:title=" ">
<polygon fill="white" stroke="#666666" points="408.5,-249.5 317.5,-249.5 317.5,-230.5 408.5,-230.5 408.5,-249.5"/>
<text text-anchor="middle" x="363" y="-237.5" font-family="Helvetica,sans-Serif" font-size="10.00">fl::Jpeg::decode</text>
</a>
</g>
</g>
<!-- Node2&#45;&gt;Node3 -->
<g id="edge2_Node000002_Node000003" class="edge">
<title>Node2&#45;&gt;Node3</title>
<g id="a_edge2_Node000002_Node000003"><a xlink:title=" ">
<path fill="none" stroke="#63b8ff" d="M505.01,-224.17C474.62,-227.58 437.35,-231.77 408.76,-234.98"/>
<polygon fill="#63b8ff" stroke="#63b8ff" points="505.49,-227.64 515.03,-223.05 504.71,-220.68 505.49,-227.64"/>
</a>
</g>
</g>
<!-- Node4 -->
<g id="Node000004" class="node">
<title>Node4</title>
<g id="a_Node000004"><a xlink:href="../../df/d37/classfl_1_1_file_system_ac981ecdba46591c28acab92177fe70f9.html#ac981ecdba46591c28acab92177fe70f9" target="_top" xlink:title=" ">
<polygon fill="white" stroke="#666666" points="428.5,-212.5 297.5,-212.5 297.5,-193.5 428.5,-193.5 428.5,-212.5"/>
<text text-anchor="middle" x="363" y="-200.5" font-family="Helvetica,sans-Serif" font-size="10.00">fl::FileSystem::loadJpeg</text>
</a>
</g>
</g>
<!-- Node2&#45;&gt;Node4 -->
<g id="edge3_Node000002_Node000004" class="edge">
<title>Node2&#45;&gt;Node4</title>
<g id="a_edge3_Node000002_Node000004"><a xlink:title=" ">
<path fill="none" stroke="#63b8ff" d="M504.84,-213.78C481.2,-211.97 453.43,-209.84 428.82,-207.96"/>
<polygon fill="#63b8ff" stroke="#63b8ff" points="504.8,-217.29 515.03,-214.56 505.33,-210.31 504.8,-217.29"/>
</a>
</g>
</g>
<!-- Node6 -->
<g id="Node000006" class="node">
<title>Node6</title>
<g id="a_Node000006"><a xlink:href="../../dd/dca/namespace_codec_processor_a2edcc19e73e616ac2e999bc6541ea618.html#a2edcc19e73e616ac2e999bc6541ea618" target="_top" xlink:title=" ">
<polygon fill="white" stroke="#666666" points="238,-174.5 80,-174.5 80,-155.5 238,-155.5 238,-174.5"/>
<text text-anchor="middle" x="159" y="-162.5" font-family="Helvetica,sans-Serif" font-size="10.00">CodecProcessor::processJpeg</text>
</a>
</g>
</g>
<!-- Node2&#45;&gt;Node6 -->
<g id="edge5_Node000002_Node000006" class="edge">
<title>Node2&#45;&gt;Node6</title>
<g id="a_edge5_Node000002_Node000006"><a xlink:title=" ">
<path fill="none" stroke="#63b8ff" d="M505.24,-206.59C497.38,-204.6 489.44,-202.39 482,-200 465.5,-194.7 462.87,-188.99 446,-185 376.98,-168.67 296.18,-164.32 238.1,-163.68"/>
<polygon fill="#63b8ff" stroke="#63b8ff" points="504.56,-210.03 515.1,-209 506.21,-203.23 504.56,-210.03"/>
</a>
</g>
</g>
<!-- Node5 -->
<g id="Node000005" class="node">
<title>Node5</title>
<g id="a_Node000005"><a xlink:href="../../d4/d36/namespacefl_af51a63f8fa4612beb1f1e320c9a79731.html#af51a63f8fa4612beb1f1e320c9a79731" target="_top" xlink:title=" ">
<polygon fill="white" stroke="#666666" points="213.5,-212.5 104.5,-212.5 104.5,-193.5 213.5,-193.5 213.5,-212.5"/>
<text text-anchor="middle" x="159" y="-200.5" font-family="Helvetica,sans-Serif" font-size="10.00">fl::loadJpegFromSD</text>
</a>
</g>
</g>
<!-- Node4&#45;&gt;Node5 -->
<g id="edge4_Node000004_Node000005" class="edge">
<title>Node4&#45;&gt;Node5</title>
<g id="a_edge4_Node000004_Node000005"><a xlink:title=" ">
<path fill="none" stroke="#63b8ff" d="M286.96,-203C262.58,-203 236.05,-203 213.57,-203"/>
<polygon fill="#63b8ff" stroke="#63b8ff" points="287.25,-206.5 297.25,-203 287.25,-199.5 287.25,-206.5"/>
</a>
</g>
</g>
<!-- Node7 -->
<g id="Node000007" class="node">
<title>Node7</title>
<g id="a_Node000007"><a xlink:href="../../da/dd2/_codec_8ino_afe461d27b9c48d5921c00d521181f12f.html#afe461d27b9c48d5921c00d521181f12f" target="_top" xlink:title=" ">
<polygon fill="white" stroke="#666666" points="38,-137.5 0,-137.5 0,-118.5 38,-118.5 38,-137.5"/>
<text text-anchor="middle" x="19" y="-125.5" font-family="Helvetica,sans-Serif" font-size="10.00">loop</text>
</a>
</g>
</g>
<!-- Node6&#45;&gt;Node7 -->
<g id="edge6_Node000006_Node000007" class="edge">
<title>Node6&#45;&gt;Node7</title>
<g id="a_edge6_Node000006_Node000007"><a xlink:title=" ">
<path fill="none" stroke="#63b8ff" d="M98.45,-153.22C90.2,-151.31 81.86,-149.21 74,-147 61.95,-143.6 48.68,-138.95 38.31,-135.09"/>
<polygon fill="#63b8ff" stroke="#63b8ff" points="97.91,-156.69 108.44,-155.47 99.45,-149.86 97.91,-156.69"/>
</a>
</g>
</g>
<!-- Node10&#45;&gt;Node6 -->
<g id="edge12_Node000010_Node000006" class="edge">
<title>Node10&#45;&gt;Node6</title>
<g id="a_edge12_Node000010_Node000006"><a xlink:title=" ">
<path fill="none" stroke="#63b8ff" d="M312.85,-124.6C291.83,-132.16 266.9,-140.59 244,-147 232.94,-150.09 220.93,-152.95 209.55,-155.44"/>
<polygon fill="#63b8ff" stroke="#63b8ff" points="314.31,-127.79 322.51,-121.09 311.92,-121.21 314.31,-127.79"/>
</a>
</g>
</g>
<!-- Node11 -->
<g id="Node000011" class="node">
<title>Node11</title>
<g id="a_Node000011"><a xlink:href="../../dd/dca/namespace_codec_processor_a5f9d84f7da33e23f4e05ea6f140c6630.html#a5f9d84f7da33e23f4e05ea6f140c6630" target="_top" xlink:title=" ">
<polygon fill="white" stroke="#666666" points="235,-137.5 83,-137.5 83,-118.5 235,-118.5 235,-137.5"/>
<text text-anchor="middle" x="159" y="-125.5" font-family="Helvetica,sans-Serif" font-size="10.00">CodecProcessor::processGif</text>
</a>
</g>
</g>
<!-- Node10&#45;&gt;Node11 -->
<g id="edge10_Node000010_Node000011" class="edge">
<title>Node10&#45;&gt;Node11</title>
<g id="a_edge10_Node000010_Node000011"><a xlink:title=" ">
<path fill="none" stroke="#63b8ff" d="M269.75,-116.05C258.2,-117.31 246.5,-118.58 235.25,-119.8"/>
<polygon fill="#63b8ff" stroke="#63b8ff" points="270.28,-119.51 279.84,-114.95 269.52,-112.55 270.28,-119.51"/>
</a>
</g>
</g>
<!-- Node12 -->
<g id="Node000012" class="node">
<title>Node12</title>
<g id="a_Node000012"><a xlink:href="../../dd/dca/namespace_codec_processor_a5cc0e47ef4996897c86fb7861b6ffe32.html#a5cc0e47ef4996897c86fb7861b6ffe32" target="_top" xlink:title=" ">
<polygon fill="white" stroke="#666666" points="244,-100.5 74,-100.5 74,-81.5 244,-81.5 244,-100.5"/>
<text text-anchor="middle" x="159" y="-88.5" font-family="Helvetica,sans-Serif" font-size="10.00">CodecProcessor::processMpeg1</text>
</a>
</g>
</g>
<!-- Node10&#45;&gt;Node12 -->
<g id="edge13_Node000010_Node000012" class="edge">
<title>Node10&#45;&gt;Node12</title>
<g id="a_edge13_Node000010_Node000012"><a xlink:title=" ">
<path fill="none" stroke="#63b8ff" d="M269.82,-99.15C261.23,-98.52 252.56,-97.87 244.06,-97.24"/>
<polygon fill="#63b8ff" stroke="#63b8ff" points="269.61,-102.65 279.84,-99.9 270.13,-95.67 269.61,-102.65"/>
</a>
</g>
</g>
<!-- Node11&#45;&gt;Node7 -->
<g id="edge11_Node000011_Node000007" class="edge">
<title>Node11&#45;&gt;Node7</title>
<g id="a_edge11_Node000011_Node000007"><a xlink:title=" ">
<path fill="none" stroke="#63b8ff" d="M72.86,-128C59.85,-128 47.65,-128 38.25,-128"/>
<polygon fill="#63b8ff" stroke="#63b8ff" points="72.94,-131.5 82.94,-128 72.94,-124.5 72.94,-131.5"/>
</a>
</g>
</g>
<!-- Node12&#45;&gt;Node7 -->
<g id="edge14_Node000012_Node000007" class="edge">
<title>Node12&#45;&gt;Node7</title>
<g id="a_edge14_Node000012_Node000007"><a xlink:title=" ">
<path fill="none" stroke="#63b8ff" d="M102.27,-102.79C92.79,-105.03 83.09,-107.46 74,-110 62.01,-113.35 48.74,-117.76 38.35,-121.38"/>
<polygon fill="#63b8ff" stroke="#63b8ff" points="103.06,-106.2 112.02,-100.54 101.49,-99.38 103.06,-106.2"/>
</a>
</g>
</g>
<!-- Node13&#45;&gt;Node10 -->
<g id="edge16_Node000013_Node000010" class="edge">
<title>Node13&#45;&gt;Node10</title>
<g id="a_edge16_Node000013_Node000010"><a xlink:title=" ">
<path fill="none" stroke="#63b8ff" d="M481.47,-80.23C465.27,-83.78 448.33,-87.5 432.51,-90.97"/>
<polygon fill="#63b8ff" stroke="#63b8ff" points="482.43,-83.6 491.45,-78.04 480.93,-76.76 482.43,-83.6"/>
</a>
</g>
</g>
<!-- Node15 -->
<g id="Node000015" class="node">
<title>Node15</title>
<g id="a_Node000015"><a xlink:href="../../dd/dc8/_auto_research_8ino_a4fc01d736fe50cf5b977f755b675f11d.html#a4fc01d736fe50cf5b977f755b675f11d" target="_top" xlink:title=" ">
<polygon fill="white" stroke="#666666" points="385,-24.5 341,-24.5 341,-5.5 385,-5.5 385,-24.5"/>
<text text-anchor="middle" x="363" y="-12.5" font-family="Helvetica,sans-Serif" font-size="10.00">setup</text>
</a>
</g>
</g>
<!-- Node14&#45;&gt;Node15 -->
<g id="edge18_Node000014_Node000015" class="edge">
<title>Node14&#45;&gt;Node15</title>
<g id="a_edge18_Node000014_Node000015"><a xlink:title=" ">
<path fill="none" stroke="#63b8ff" d="M471.63,-15C439.57,-15 406.12,-15 385.19,-15"/>
<polygon fill="#63b8ff" stroke="#63b8ff" points="471.97,-18.5 481.97,-15 471.97,-11.5 471.97,-18.5"/>
</a>
</g>
</g>
</g>
</svg>

<g id="navigator" transform="translate(0 0)" fill="#404254">
  <rect fill="#f2f5e9" fill-opacity="0.5" stroke="#606060" stroke-width=".5" x="0" y="0" width="60" height="60"/>
  <use id="zoomplus" xlink:href="#zoomPlus" x="17" y="9" onmousedown="handleZoom(evt,'in')"/>
  <use id="zoomminus" xlink:href="#zoomMin" x="42" y="9" onmousedown="handleZoom(evt,'out')"/>
  <use id="reset" xlink:href="#resetDef" x="30" y="36" onmousedown="handleReset()"/>
   <use id="arrowup" xlink:href="#arrowUp" x="0" y="0" onmousedown="handlePan(0,-1)"/>
  <use id="arrowright" xlink:href="#arrowRight" x="0" y="0" onmousedown="handlePan(1,0)"/>
  <use id="arrowdown" xlink:href="#arrowDown" x="0" y="0" onmousedown="handlePan(0,1)"/>
  <use id="arrowleft" xlink:href="#arrowLeft" x="0" y="0" onmousedown="handlePan(-1,0)"/>
</g>
<svg viewBox="0 0 15 15" width="100%" height="30px" preserveAspectRatio="xMaxYMin meet">
 <g id="arrow_out" transform="scale(0.3 0.3)">
  <a xlink:href="classfl_1_1_frame_abb4fd1e2a87ef8b2e0f0036174673446_abb4fd1e2a87ef8b2e0f0036174673446_icgraph_org.svg" target="_base">
   <rect id="button" ry="5" rx="5" y="6" x="6" height="38" width="38"
        fill="#f2f5e9" fill-opacity="0.5" stroke="#606060" stroke-width="1.0"/>
   <path id="arrow"
     d="M 11.500037,31.436501 C 11.940474,20.09759 22.043105,11.32322 32.158766,21.979434 L 37.068811,17.246167 C 37.068811,17.246167 37.088388,32 37.088388,32 L 22.160133,31.978069 C 22.160133,31.978069 26.997745,27.140456 26.997745,27.140456 C 18.528582,18.264221 13.291696,25.230495 11.500037,31.436501 z"
     style="fill:#404040;"/>
  </a>
 </g>
</svg>

<style type='text/css'>
<![CDATA[
[data-mouse-over-selected='false'] { opacity: 0.7; }
[data-mouse-over-selected='true']  { opacity: 1.0; }
]]>
</style>
<script type="application/ecmascript"><![CDATA[
document.addEventListener('DOMContentLoaded', (event) => {
  highlightEdges();
  highlightAdjacentNodes();
});
]]></script>
</svg>
