<?xml version="1.0" encoding="UTF-8" standalone="no"?>
<!DOCTYPE svg PUBLIC "-//W3C//DTD SVG 1.1//EN"
 "http://www.w3.org/Graphics/SVG/1.1/DTD/svg11.dtd">
<!-- Generated by graphviz version 2.43.0 (0)
 -->
<!-- Title: fl::flat_map::size Pages: 1 -->
<svg width="276pt" height="113pt"
 viewBox="0.00 0.00 276.00 112.50" xmlns="http://www.w3.org/2000/svg" xmlns:xlink="http://www.w3.org/1999/xlink">
<g id="graph0" class="graph" transform="scale(1 1) rotate(0) translate(4 108.5)">
<title>fl::flat_map::size</title>
<!-- Node1 -->
<g id="Node000001" class="node">
<title>Node1</title>
<g id="a_Node000001"><a xlink:title=" ">
<polygon fill="#999999" stroke="#666666" points="268,-56 171,-56 171,-37 268,-37 268,-56"/>
<text text-anchor="middle" x="219.5" y="-44" font-family="Helvetica,sans-Serif" font-size="10.00">fl::flat_map::size</text>
</a>
</g>
</g>
<!-- Node2 -->
<g id="Node000002" class="node">
<title>Node2</title>
<g id="a_Node000002"><a xlink:href="../../d2/d26/classfl_1_1flat__map_a18d2d9cd60999c70955b4a44f1dca452.html#a18d2d9cd60999c70955b4a44f1dca452" target="_top" xlink:title=" ">
<polygon fill="white" stroke="#666666" points="116.5,-104.5 18.5,-104.5 18.5,-74.5 116.5,-74.5 116.5,-104.5"/>
<text text-anchor="start" x="26.5" y="-92.5" font-family="Helvetica,sans-Serif" font-size="10.00">fl::flat_map&lt; int,</text>
<text text-anchor="middle" x="67.5" y="-81.5" font-family="Helvetica,sans-Serif" font-size="10.00"> FxPtr &gt;::full</text>
</a>
</g>
</g>
<!-- Node1&#45;&gt;Node2 -->
<g id="edge1_Node000001_Node000002" class="edge">
<title>Node1&#45;&gt;Node2</title>
<g id="a_edge1_Node000001_Node000002"><a xlink:title=" ">
<path fill="none" stroke="#63b8ff" d="M175.39,-58.86C157.07,-64.11 135.63,-70.26 116.78,-75.66"/>
<polygon fill="#63b8ff" stroke="#63b8ff" points="176.56,-62.16 185.21,-56.04 174.63,-55.43 176.56,-62.16"/>
</a>
</g>
</g>
<!-- Node3 -->
<g id="Node000003" class="node">
<title>Node3</title>
<g id="a_Node000003"><a xlink:href="../../d2/d78/classfl_1_1_screen_map_a1d131c7c809edbca9f87906ac79509c3.html#a1d131c7c809edbca9f87906ac79509c3" target="_top" xlink:title=" ">
<polygon fill="white" stroke="#666666" points="135,-56 0,-56 0,-37 135,-37 135,-56"/>
<text text-anchor="middle" x="67.5" y="-44" font-family="Helvetica,sans-Serif" font-size="10.00">fl::ScreenMap::ParseJson</text>
</a>
</g>
</g>
<!-- Node1&#45;&gt;Node3 -->
<g id="edge2_Node000001_Node000003" class="edge">
<title>Node1&#45;&gt;Node3</title>
<g id="a_edge2_Node000001_Node000003"><a xlink:title=" ">
<path fill="none" stroke="#63b8ff" d="M160.6,-46.5C152.24,-46.5 143.58,-46.5 135.06,-46.5"/>
<polygon fill="#63b8ff" stroke="#63b8ff" points="160.63,-50 170.63,-46.5 160.63,-43 160.63,-50"/>
</a>
</g>
</g>
<!-- Node4 -->
<g id="Node000004" class="node">
<title>Node4</title>
<g id="a_Node000004"><a xlink:href="../../d1/ddb/_chromancer_8ino_a4fc01d736fe50cf5b977f755b675f11d.html#a4fc01d736fe50cf5b977f755b675f11d" target="_top" xlink:title=" ">
<polygon fill="white" stroke="#666666" points="89.5,-19 45.5,-19 45.5,0 89.5,0 89.5,-19"/>
<text text-anchor="middle" x="67.5" y="-7" font-family="Helvetica,sans-Serif" font-size="10.00">setup</text>
</a>
</g>
</g>
<!-- Node1&#45;&gt;Node4 -->
<g id="edge3_Node000001_Node000004" class="edge">
<title>Node1&#45;&gt;Node4</title>
<g id="a_edge3_Node000001_Node000004"><a xlink:title=" ">
<path fill="none" stroke="#63b8ff" d="M169.81,-34.49C142.81,-27.83 110.59,-19.88 89.85,-14.77"/>
<polygon fill="#63b8ff" stroke="#63b8ff" points="169.32,-37.97 179.87,-36.97 171,-31.18 169.32,-37.97"/>
</a>
</g>
</g>
</g>
</svg>
