<?xml version="1.0" encoding="UTF-8" standalone="no"?>
<!DOCTYPE svg PUBLIC "-//W3C//DTD SVG 1.1//EN"
 "http://www.w3.org/Graphics/SVG/1.1/DTD/svg11.dtd">
<!-- Generated by graphviz version 2.43.0 (0)
 -->
<!-- Title: fl::StrStream::StrStream Pages: 1 -->
<svg width="317pt" height="730pt"
 viewBox="0.00 0.00 317.00 730.00" xmlns="http://www.w3.org/2000/svg" xmlns:xlink="http://www.w3.org/1999/xlink">
<g id="graph0" class="graph" transform="scale(1 1) rotate(0) translate(4 726)">
<title>fl::StrStream::StrStream</title>
<!-- Node1 -->
<g id="Node000001" class="node">
<title>Node1</title>
<g id="a_Node000001"><a xlink:title=" ">
<polygon fill="#999999" stroke="#666666" points="309,-370 177,-370 177,-351 309,-351 309,-370"/>
<text text-anchor="middle" x="243" y="-358" font-family="Helvetica,sans-Serif" font-size="10.00">fl::StrStream::StrStream</text>
</a>
</g>
</g>
<!-- Node2 -->
<g id="Node000002" class="node">
<title>Node2</title>
<g id="a_Node000002"><a xlink:href="../../d4/dc6/classfl_1_1_str_stream_a4912f243e2456bf4337f1f7c632c1fd7.html#a4912f243e2456bf4337f1f7c632c1fd7" target="_top" xlink:title=" ">
<polygon fill="white" stroke="#666666" points="141,-722 0,-722 0,-703 141,-703 141,-722"/>
<text text-anchor="middle" x="70.5" y="-710" font-family="Helvetica,sans-Serif" font-size="10.00">fl::StrStream::operator&lt;&lt;</text>
</a>
</g>
</g>
<!-- Node1&#45;&gt;Node2 -->
<g id="edge1_Node000001_Node000002" class="edge">
<title>Node1&#45;&gt;Node2</title>
<g id="a_edge1_Node000001_Node000002"><a xlink:title=" ">
<path fill="none" stroke="#63b8ff" d="M242.28,-380.42C241.94,-438.03 232.76,-606.36 141,-694.5 137.49,-697.87 133.44,-700.63 129.1,-702.88"/>
<polygon fill="#63b8ff" stroke="#63b8ff" points="245.78,-380.14 242.24,-370.15 238.78,-380.16 245.78,-380.14"/>
</a>
</g>
</g>
<!-- Node3 -->
<g id="Node000003" class="node">
<title>Node3</title>
<g id="a_Node000003"><a xlink:href="../../d4/dc6/classfl_1_1_str_stream_a9aaa46966f225a08b7ba8b84a04743c5.html#a9aaa46966f225a08b7ba8b84a04743c5" target="_top" xlink:title=" ">
<polygon fill="white" stroke="#666666" points="141,-685 0,-685 0,-666 141,-666 141,-685"/>
<text text-anchor="middle" x="70.5" y="-673" font-family="Helvetica,sans-Serif" font-size="10.00">fl::StrStream::operator&lt;&lt;</text>
</a>
</g>
</g>
<!-- Node1&#45;&gt;Node3 -->
<g id="edge2_Node000001_Node000003" class="edge">
<title>Node1&#45;&gt;Node3</title>
<g id="a_edge2_Node000001_Node000003"><a xlink:title=" ">
<path fill="none" stroke="#63b8ff" d="M241.41,-380.32C238.71,-433.54 223.74,-580.69 141,-657.5 137.35,-660.89 133.14,-663.66 128.64,-665.93"/>
<polygon fill="#63b8ff" stroke="#63b8ff" points="244.91,-380.33 241.83,-370.19 237.92,-380.04 244.91,-380.33"/>
</a>
</g>
</g>
<!-- Node4 -->
<g id="Node000004" class="node">
<title>Node4</title>
<g id="a_Node000004"><a xlink:href="../../d4/dc6/classfl_1_1_str_stream_a3dd24632d238941c6480e47bb88e72ec.html#a3dd24632d238941c6480e47bb88e72ec" target="_top" xlink:title=" ">
<polygon fill="white" stroke="#666666" points="141,-648 0,-648 0,-629 141,-629 141,-648"/>
<text text-anchor="middle" x="70.5" y="-636" font-family="Helvetica,sans-Serif" font-size="10.00">fl::StrStream::operator&lt;&lt;</text>
</a>
</g>
</g>
<!-- Node1&#45;&gt;Node4 -->
<g id="edge3_Node000001_Node000004" class="edge">
<title>Node1&#45;&gt;Node4</title>
<g id="a_edge3_Node000001_Node000004"><a xlink:title=" ">
<path fill="none" stroke="#63b8ff" d="M240.34,-380.1C235.15,-428.56 214.87,-554.81 141,-620.5 137.18,-623.9 132.8,-626.67 128.14,-628.92"/>
<polygon fill="#63b8ff" stroke="#63b8ff" points="243.84,-380.31 241.32,-370.02 236.87,-379.64 243.84,-380.31"/>
</a>
</g>
</g>
<!-- Node5 -->
<g id="Node000005" class="node">
<title>Node5</title>
<g id="a_Node000005"><a xlink:href="../../d4/dc6/classfl_1_1_str_stream_a7ac1ef5805382a7e92c4e8841a971013.html#a7ac1ef5805382a7e92c4e8841a971013" target="_top" xlink:title=" ">
<polygon fill="white" stroke="#666666" points="141,-611 0,-611 0,-592 141,-592 141,-611"/>
<text text-anchor="middle" x="70.5" y="-599" font-family="Helvetica,sans-Serif" font-size="10.00">fl::StrStream::operator&lt;&lt;</text>
</a>
</g>
</g>
<!-- Node1&#45;&gt;Node5 -->
<g id="edge4_Node000001_Node000005" class="edge">
<title>Node1&#45;&gt;Node5</title>
<g id="a_edge4_Node000001_Node000005"><a xlink:title=" ">
<path fill="none" stroke="#63b8ff" d="M238.91,-380.23C231.01,-423.85 205.92,-528.88 141,-583.5 136.99,-586.87 132.43,-589.62 127.6,-591.86"/>
<polygon fill="#63b8ff" stroke="#63b8ff" points="242.37,-380.76 240.6,-370.32 235.47,-379.59 242.37,-380.76"/>
</a>
</g>
</g>
<!-- Node6 -->
<g id="Node000006" class="node">
<title>Node6</title>
<g id="a_Node000006"><a xlink:href="../../d4/dc6/classfl_1_1_str_stream_af1a655833c526e1e28ed632ddccddd61.html#af1a655833c526e1e28ed632ddccddd61" target="_top" xlink:title=" ">
<polygon fill="white" stroke="#666666" points="141,-574 0,-574 0,-555 141,-555 141,-574"/>
<text text-anchor="middle" x="70.5" y="-562" font-family="Helvetica,sans-Serif" font-size="10.00">fl::StrStream::operator&lt;&lt;</text>
</a>
</g>
</g>
<!-- Node1&#45;&gt;Node6 -->
<g id="edge5_Node000001_Node000006" class="edge">
<title>Node1&#45;&gt;Node6</title>
<g id="a_edge5_Node000001_Node000006"><a xlink:title=" ">
<path fill="none" stroke="#63b8ff" d="M236.96,-380.3C226.17,-418.54 197.13,-502.63 141,-546.5 136.68,-549.88 131.79,-552.63 126.66,-554.86"/>
<polygon fill="#63b8ff" stroke="#63b8ff" points="240.4,-380.97 239.63,-370.4 233.64,-379.14 240.4,-380.97"/>
</a>
</g>
</g>
<!-- Node7 -->
<g id="Node000007" class="node">
<title>Node7</title>
<g id="a_Node000007"><a xlink:href="../../d4/dc6/classfl_1_1_str_stream_a1bf6357bffac690bdafe68b462cf30be.html#a1bf6357bffac690bdafe68b462cf30be" target="_top" xlink:title=" ">
<polygon fill="white" stroke="#666666" points="141,-537 0,-537 0,-518 141,-518 141,-537"/>
<text text-anchor="middle" x="70.5" y="-525" font-family="Helvetica,sans-Serif" font-size="10.00">fl::StrStream::operator&lt;&lt;</text>
</a>
</g>
</g>
<!-- Node1&#45;&gt;Node7 -->
<g id="edge6_Node000001_Node000007" class="edge">
<title>Node1&#45;&gt;Node7</title>
<g id="a_edge6_Node000001_Node000007"><a xlink:title=" ">
<path fill="none" stroke="#63b8ff" d="M234.32,-379.86C220.59,-411.92 188.72,-475.84 141,-509.5 136.11,-512.95 130.61,-515.74 124.9,-517.99"/>
<polygon fill="#63b8ff" stroke="#63b8ff" points="237.69,-380.88 238.28,-370.3 231.22,-378.2 237.69,-380.88"/>
</a>
</g>
</g>
<!-- Node8 -->
<g id="Node000008" class="node">
<title>Node8</title>
<g id="a_Node000008"><a xlink:href="../../d4/dc6/classfl_1_1_str_stream_a11dc8d5319623fb06039e270c6d702a8.html#a11dc8d5319623fb06039e270c6d702a8" target="_top" xlink:title=" ">
<polygon fill="white" stroke="#666666" points="141,-500 0,-500 0,-481 141,-481 141,-500"/>
<text text-anchor="middle" x="70.5" y="-488" font-family="Helvetica,sans-Serif" font-size="10.00">fl::StrStream::operator&lt;&lt;</text>
</a>
</g>
</g>
<!-- Node1&#45;&gt;Node8 -->
<g id="edge7_Node000001_Node000008" class="edge">
<title>Node1&#45;&gt;Node8</title>
<g id="a_edge7_Node000001_Node000008"><a xlink:title=" ">
<path fill="none" stroke="#63b8ff" d="M230.75,-378.53C214.2,-403.51 180.9,-448.3 141,-472.5 135.35,-475.93 129.06,-478.7 122.64,-480.96"/>
<polygon fill="#63b8ff" stroke="#63b8ff" points="233.76,-380.31 236.25,-370.01 227.88,-376.51 233.76,-380.31"/>
</a>
</g>
</g>
<!-- Node9 -->
<g id="Node000009" class="node">
<title>Node9</title>
<g id="a_Node000009"><a xlink:href="../../d4/dc6/classfl_1_1_str_stream_a78b3c2bfd0a285b9c768b4d56a86a63e.html#a78b3c2bfd0a285b9c768b4d56a86a63e" target="_top" xlink:title=" ">
<polygon fill="white" stroke="#666666" points="141,-463 0,-463 0,-444 141,-444 141,-463"/>
<text text-anchor="middle" x="70.5" y="-451" font-family="Helvetica,sans-Serif" font-size="10.00">fl::StrStream::operator&lt;&lt;</text>
</a>
</g>
</g>
<!-- Node1&#45;&gt;Node9 -->
<g id="edge8_Node000001_Node000009" class="edge">
<title>Node1&#45;&gt;Node9</title>
<g id="a_edge8_Node000001_Node000009"><a xlink:title=" ">
<path fill="none" stroke="#63b8ff" d="M224.38,-376.95C205.24,-393.97 173.1,-420.15 141,-435.5 134.03,-438.83 126.36,-441.61 118.73,-443.9"/>
<polygon fill="#63b8ff" stroke="#63b8ff" points="226.91,-379.38 231.97,-370.07 222.21,-374.19 226.91,-379.38"/>
</a>
</g>
</g>
<!-- Node10 -->
<g id="Node000010" class="node">
<title>Node10</title>
<g id="a_Node000010"><a xlink:href="../../d4/dc6/classfl_1_1_str_stream_adb232494f3b74b10a5a709147df20550.html#adb232494f3b74b10a5a709147df20550" target="_top" xlink:title=" ">
<polygon fill="white" stroke="#666666" points="141,-426 0,-426 0,-407 141,-407 141,-426"/>
<text text-anchor="middle" x="70.5" y="-414" font-family="Helvetica,sans-Serif" font-size="10.00">fl::StrStream::operator&lt;&lt;</text>
</a>
</g>
</g>
<!-- Node1&#45;&gt;Node10 -->
<g id="edge9_Node000001_Node000010" class="edge">
<title>Node1&#45;&gt;Node10</title>
<g id="a_edge9_Node000001_Node000010"><a xlink:title=" ">
<path fill="none" stroke="#63b8ff" d="M209.18,-373.86C189.58,-381.59 164.07,-391.19 141,-398.5 131.49,-401.51 121.14,-404.4 111.4,-406.94"/>
<polygon fill="#63b8ff" stroke="#63b8ff" points="210.58,-377.07 218.58,-370.12 207.99,-370.57 210.58,-377.07"/>
</a>
</g>
</g>
<!-- Node11 -->
<g id="Node000011" class="node">
<title>Node11</title>
<g id="a_Node000011"><a xlink:href="../../d4/dc6/classfl_1_1_str_stream_ad6edc39fb58088a0c1dce03522db2f3b.html#ad6edc39fb58088a0c1dce03522db2f3b" target="_top" xlink:title=" ">
<polygon fill="white" stroke="#666666" points="141,-389 0,-389 0,-370 141,-370 141,-389"/>
<text text-anchor="middle" x="70.5" y="-377" font-family="Helvetica,sans-Serif" font-size="10.00">fl::StrStream::operator&lt;&lt;</text>
</a>
</g>
</g>
<!-- Node1&#45;&gt;Node11 -->
<g id="edge10_Node000001_Node000011" class="edge">
<title>Node1&#45;&gt;Node11</title>
<g id="a_edge10_Node000001_Node000011"><a xlink:title=" ">
<path fill="none" stroke="#63b8ff" d="M166.36,-368.93C157.92,-369.87 149.36,-370.82 141,-371.75"/>
<polygon fill="#63b8ff" stroke="#63b8ff" points="167.02,-372.38 176.57,-367.79 166.24,-365.42 167.02,-372.38"/>
</a>
</g>
</g>
<!-- Node12 -->
<g id="Node000012" class="node">
<title>Node12</title>
<g id="a_Node000012"><a xlink:href="../../d4/dc6/classfl_1_1_str_stream_a683f8dbd3e13563fcdd039b80ee99237.html#a683f8dbd3e13563fcdd039b80ee99237" target="_top" xlink:title=" ">
<polygon fill="white" stroke="#666666" points="141,-352 0,-352 0,-333 141,-333 141,-352"/>
<text text-anchor="middle" x="70.5" y="-340" font-family="Helvetica,sans-Serif" font-size="10.00">fl::StrStream::operator&lt;&lt;</text>
</a>
</g>
</g>
<!-- Node1&#45;&gt;Node12 -->
<g id="edge11_Node000001_Node000012" class="edge">
<title>Node1&#45;&gt;Node12</title>
<g id="a_edge11_Node000001_Node000012"><a xlink:title=" ">
<path fill="none" stroke="#63b8ff" d="M166.36,-352.51C157.92,-351.62 149.36,-350.72 141,-349.84"/>
<polygon fill="#63b8ff" stroke="#63b8ff" points="166.26,-356.02 176.57,-353.59 166.99,-349.06 166.26,-356.02"/>
</a>
</g>
</g>
<!-- Node13 -->
<g id="Node000013" class="node">
<title>Node13</title>
<g id="a_Node000013"><a xlink:href="../../d4/dc6/classfl_1_1_str_stream_ac7b3ee369df09853a95c02338572b28d.html#ac7b3ee369df09853a95c02338572b28d" target="_top" xlink:title=" ">
<polygon fill="white" stroke="#666666" points="141,-315 0,-315 0,-296 141,-296 141,-315"/>
<text text-anchor="middle" x="70.5" y="-303" font-family="Helvetica,sans-Serif" font-size="10.00">fl::StrStream::operator&lt;&lt;</text>
</a>
</g>
</g>
<!-- Node1&#45;&gt;Node13 -->
<g id="edge12_Node000001_Node000013" class="edge">
<title>Node1&#45;&gt;Node13</title>
<g id="a_edge12_Node000001_Node000013"><a xlink:title=" ">
<path fill="none" stroke="#63b8ff" d="M207.25,-347.38C187.87,-340.25 163.23,-331.49 141,-324.5 130.5,-321.2 119.01,-317.92 108.44,-315.04"/>
<polygon fill="#63b8ff" stroke="#63b8ff" points="206.27,-350.75 216.86,-350.94 208.7,-344.19 206.27,-350.75"/>
</a>
</g>
</g>
<!-- Node14 -->
<g id="Node000014" class="node">
<title>Node14</title>
<g id="a_Node000014"><a xlink:href="../../d4/dc6/classfl_1_1_str_stream_a8e2bcc129572fecb52fa48cbeeaa222e.html#a8e2bcc129572fecb52fa48cbeeaa222e" target="_top" xlink:title=" ">
<polygon fill="white" stroke="#666666" points="141,-278 0,-278 0,-259 141,-259 141,-278"/>
<text text-anchor="middle" x="70.5" y="-266" font-family="Helvetica,sans-Serif" font-size="10.00">fl::StrStream::operator&lt;&lt;</text>
</a>
</g>
</g>
<!-- Node1&#45;&gt;Node14 -->
<g id="edge13_Node000001_Node000014" class="edge">
<title>Node1&#45;&gt;Node14</title>
<g id="a_edge13_Node000001_Node000014"><a xlink:title=" ">
<path fill="none" stroke="#63b8ff" d="M223.63,-344.06C204.33,-327.58 172.45,-302.55 141,-287.5 133.1,-283.72 124.33,-280.59 115.74,-278.03"/>
<polygon fill="#63b8ff" stroke="#63b8ff" points="221.49,-346.84 231.33,-350.76 226.08,-341.55 221.49,-346.84"/>
</a>
</g>
</g>
<!-- Node15 -->
<g id="Node000015" class="node">
<title>Node15</title>
<g id="a_Node000015"><a xlink:href="../../d4/dc6/classfl_1_1_str_stream_a3c60e2c56955fa9a2f719e18d3acac8a.html#a3c60e2c56955fa9a2f719e18d3acac8a" target="_top" xlink:title=" ">
<polygon fill="white" stroke="#666666" points="141,-241 0,-241 0,-222 141,-222 141,-241"/>
<text text-anchor="middle" x="70.5" y="-229" font-family="Helvetica,sans-Serif" font-size="10.00">fl::StrStream::operator&lt;&lt;</text>
</a>
</g>
</g>
<!-- Node1&#45;&gt;Node15 -->
<g id="edge14_Node000001_Node000015" class="edge">
<title>Node1&#45;&gt;Node15</title>
<g id="a_edge14_Node000001_Node000015"><a xlink:title=" ">
<path fill="none" stroke="#63b8ff" d="M230.37,-342.51C213.59,-318 180.26,-274.43 141,-250.5 134.7,-246.66 127.61,-243.58 120.43,-241.11"/>
<polygon fill="#63b8ff" stroke="#63b8ff" points="227.51,-344.51 235.97,-350.89 233.33,-340.63 227.51,-344.51"/>
</a>
</g>
</g>
<!-- Node16 -->
<g id="Node000016" class="node">
<title>Node16</title>
<g id="a_Node000016"><a xlink:href="../../d4/dc6/classfl_1_1_str_stream_aab47add68ec53e899e6bed127bb419dc.html#aab47add68ec53e899e6bed127bb419dc" target="_top" xlink:title=" ">
<polygon fill="white" stroke="#666666" points="137,-204 4,-204 4,-185 137,-185 137,-204"/>
<text text-anchor="middle" x="70.5" y="-192" font-family="Helvetica,sans-Serif" font-size="10.00">fl::StrStream::operator=</text>
</a>
</g>
</g>
<!-- Node1&#45;&gt;Node16 -->
<g id="edge15_Node000001_Node000016" class="edge">
<title>Node1&#45;&gt;Node16</title>
<g id="a_edge15_Node000001_Node000016"><a xlink:title=" ">
<path fill="none" stroke="#63b8ff" d="M234.2,-341.47C220.29,-309.93 188.17,-247.02 141,-213.5 135.49,-209.59 129.22,-206.48 122.74,-204.01"/>
<polygon fill="#63b8ff" stroke="#63b8ff" points="231.07,-343.05 238.22,-350.87 237.51,-340.3 231.07,-343.05"/>
</a>
</g>
</g>
<!-- Node17 -->
<g id="Node000017" class="node">
<title>Node17</title>
<g id="a_Node000017"><a xlink:href="../../d4/dc6/classfl_1_1_str_stream_ae590836903e2e1925aa93f35376a85c7.html#ae590836903e2e1925aa93f35376a85c7" target="_top" xlink:title=" ">
<polygon fill="white" stroke="#666666" points="137,-167 4,-167 4,-148 137,-148 137,-167"/>
<text text-anchor="middle" x="70.5" y="-155" font-family="Helvetica,sans-Serif" font-size="10.00">fl::StrStream::operator=</text>
</a>
</g>
</g>
<!-- Node1&#45;&gt;Node17 -->
<g id="edge16_Node000001_Node000017" class="edge">
<title>Node1&#45;&gt;Node17</title>
<g id="a_edge16_Node000001_Node000017"><a xlink:title=" ">
<path fill="none" stroke="#63b8ff" d="M236.84,-340.97C225.85,-303.26 196.47,-220.25 141,-176.5 136.09,-172.63 130.45,-169.54 124.54,-167.08"/>
<polygon fill="#63b8ff" stroke="#63b8ff" points="233.51,-342.05 239.57,-350.74 240.25,-340.17 233.51,-342.05"/>
</a>
</g>
</g>
<!-- Node18 -->
<g id="Node000018" class="node">
<title>Node18</title>
<g id="a_Node000018"><a xlink:href="../../d4/dc6/classfl_1_1_str_stream_a1b22e68aefc44775a9db5fe87a40d685.html#a1b22e68aefc44775a9db5fe87a40d685" target="_top" xlink:title=" ">
<polygon fill="white" stroke="#666666" points="137,-130 4,-130 4,-111 137,-111 137,-130"/>
<text text-anchor="middle" x="70.5" y="-118" font-family="Helvetica,sans-Serif" font-size="10.00">fl::StrStream::operator=</text>
</a>
</g>
</g>
<!-- Node1&#45;&gt;Node18 -->
<g id="edge17_Node000001_Node000018" class="edge">
<title>Node1&#45;&gt;Node18</title>
<g id="a_edge17_Node000001_Node000018"><a xlink:title=" ">
<path fill="none" stroke="#63b8ff" d="M238.75,-340.73C230.57,-297.46 205.03,-193.92 141,-139.5 136.43,-135.61 131.12,-132.51 125.53,-130.05"/>
<polygon fill="#63b8ff" stroke="#63b8ff" points="235.34,-341.57 240.54,-350.8 242.23,-340.34 235.34,-341.57"/>
</a>
</g>
</g>
<!-- Node19 -->
<g id="Node000019" class="node">
<title>Node19</title>
<g id="a_Node000019"><a xlink:href="../../d4/dc6/classfl_1_1_str_stream_aa0cac9b024b79e65b4cc7c656447258f.html#aa0cac9b024b79e65b4cc7c656447258f" target="_top" xlink:title=" ">
<polygon fill="white" stroke="#666666" points="137,-93 4,-93 4,-74 137,-74 137,-93"/>
<text text-anchor="middle" x="70.5" y="-81" font-family="Helvetica,sans-Serif" font-size="10.00">fl::StrStream::operator=</text>
</a>
</g>
</g>
<!-- Node1&#45;&gt;Node19 -->
<g id="edge18_Node000001_Node000019" class="edge">
<title>Node1&#45;&gt;Node19</title>
<g id="a_edge18_Node000001_Node000019"><a xlink:title=" ">
<path fill="none" stroke="#63b8ff" d="M240.2,-340.78C234.71,-292.58 213.86,-168 141,-102.5 136.72,-98.65 131.74,-95.58 126.44,-93.11"/>
<polygon fill="#63b8ff" stroke="#63b8ff" points="236.73,-341.24 241.24,-350.83 243.69,-340.52 236.73,-341.24"/>
</a>
</g>
</g>
<!-- Node20 -->
<g id="Node000020" class="node">
<title>Node20</title>
<g id="a_Node000020"><a xlink:href="../../d4/dc6/classfl_1_1_str_stream_af94b85178ba4a14ce562e7eee515e8f7.html#af94b85178ba4a14ce562e7eee515e8f7" target="_top" xlink:title=" ">
<polygon fill="white" stroke="#666666" points="137,-56 4,-56 4,-37 137,-37 137,-56"/>
<text text-anchor="middle" x="70.5" y="-44" font-family="Helvetica,sans-Serif" font-size="10.00">fl::StrStream::operator=</text>
</a>
</g>
</g>
<!-- Node1&#45;&gt;Node20 -->
<g id="edge19_Node000001_Node000020" class="edge">
<title>Node1&#45;&gt;Node20</title>
<g id="a_edge19_Node000001_Node000020"><a xlink:title=" ">
<path fill="none" stroke="#63b8ff" d="M241.31,-340.87C238.35,-288.15 222.81,-142.31 141,-65.5 136.9,-61.65 132.09,-58.56 126.95,-56.09"/>
<polygon fill="#63b8ff" stroke="#63b8ff" points="237.81,-341.08 241.78,-350.9 244.81,-340.75 237.81,-341.08"/>
</a>
</g>
</g>
<!-- Node21 -->
<g id="Node000021" class="node">
<title>Node21</title>
<g id="a_Node000021"><a xlink:href="../../d4/dc6/classfl_1_1_str_stream_a685f293393f939112dd08a90db43a6b9.html#a685f293393f939112dd08a90db43a6b9" target="_top" xlink:title=" ">
<polygon fill="white" stroke="#666666" points="137,-19 4,-19 4,0 137,0 137,-19"/>
<text text-anchor="middle" x="70.5" y="-7" font-family="Helvetica,sans-Serif" font-size="10.00">fl::StrStream::operator=</text>
</a>
</g>
</g>
<!-- Node1&#45;&gt;Node21 -->
<g id="edge20_Node000001_Node000021" class="edge">
<title>Node1&#45;&gt;Node21</title>
<g id="a_edge20_Node000001_Node000021"><a xlink:title=" ">
<path fill="none" stroke="#63b8ff" d="M242.18,-340.76C241.57,-283.64 231.74,-116.69 141,-28.5 137.05,-24.66 132.41,-21.59 127.43,-19.12"/>
<polygon fill="#63b8ff" stroke="#63b8ff" points="238.68,-340.94 242.19,-350.94 245.68,-340.93 238.68,-340.94"/>
</a>
</g>
</g>
</g>
</svg>
