<?xml version="1.0" encoding="UTF-8" standalone="no"?>
<!DOCTYPE svg PUBLIC "-//W3C//DTD SVG 1.1//EN"
 "http://www.w3.org/Graphics/SVG/1.1/DTD/svg11.dtd">
<!-- Generated by graphviz version 2.43.0 (0)
 -->
<!-- Title: fl::XYPath::NewCustomPath Pages: 1 -->
<!--zoomable 212 -->

<svg id="main" version="1.1" xmlns="http://www.w3.org/2000/svg" xmlns:xlink="http://www.w3.org/1999/xlink" xml:space="preserve" onload="init(evt)">

<style type="text/css"><![CDATA[
.node, .edge {opacity: 0.7;}
.node.selected, .edge.selected {opacity: 1;}
.edge:hover path { stroke: red; }
.edge:hover polygon { stroke: red; fill: red; }
]]></style>

<defs>
  <circle id="rim" cx="0" cy="0" r="7"/>
  <circle id="rim2" cx="0" cy="0" r="3.5"/>
  <g id="zoomPlus">
    <use xlink:href="#rim" fill="#404040"><set attributeName="fill" to="#808080" begin="zoomplus.mouseover" end="zoomplus.mouseout"/></use>
    <path d="M-4,0h8M0,-4v8" fill="none" stroke="white" stroke-width="1.5" pointer-events="none"/>
  </g>
  <g id="zoomMin">
    <use xlink:href="#rim" fill="#404040"><set attributeName="fill" to="#808080" begin="zoomminus.mouseover" end="zoomminus.mouseout"/></use>
    <path d="M-4,0h8" fill="none" stroke="white" stroke-width="1.5" pointer-events="none"/>
  </g>
  <g id="arrowUp" transform="translate(30 24)">
    <use xlink:href="#rim"/>
    <path pointer-events="none" fill="none" stroke="white" stroke-width="1.5" d="M0,-3.0v7 M-2.5,-0.5L0,-3.0L2.5,-0.5"/>
  </g>
  <g id="arrowRight" transform="rotate(90) translate(36 -43)">
    <use xlink:href="#rim"/>
    <path pointer-events="none" fill="none" stroke="white" stroke-width="1.5" d="M0,-3.0v7 M-2.5,-0.5L0,-3.0L2.5,-0.5"/>
  </g>
  <g id="arrowDown" transform="rotate(180) translate(-30 -48)">
    <use xlink:href="#rim"/>
    <path pointer-events="none" fill="none" stroke="white" stroke-width="1.5" d="M0,-3.0v7 M-2.5,-0.5L0,-3.0L2.5,-0.5"/>
  </g>
  <g id="arrowLeft" transform="rotate(270) translate(-36 17)">
    <use xlink:href="#rim"/>
    <path pointer-events="none" fill="none" stroke="white" stroke-width="1.5" d="M0,-3.0v7 M-2.5,-0.5L0,-3.0L2.5,-0.5"/>
  </g>
  <g id="resetDef">
    <use xlink:href="#rim2" fill="#404040"><set attributeName="fill" to="#808080" begin="reset.mouseover" end="reset.mouseout"/></use>
  </g>
</defs>
<script type="application/ecmascript">
var viewWidth = 599;
var viewHeight = 212;
var sectionId = 'dynsection-0';
</script>
<script type="application/ecmascript" xlink:href="../../svg.min.js"/>
<svg id="graph" class="graph">
<g id="viewport">
<title>fl::XYPath::NewCustomPath</title>
<!-- Node1 -->
<g id="Node000001" class="node">
<title>Node1</title>
<g id="a_Node000001"><a xlink:title=" ">
<polygon fill="#999999" stroke="#666666" points="149,-111 0,-111 0,-92 149,-92 149,-111"/>
<text text-anchor="middle" x="74.5" y="-99" font-family="Helvetica,sans-Serif" font-size="10.00">fl::XYPath::NewCustomPath</text>
</a>
</g>
</g>
<!-- Node2 -->
<g id="Node000002" class="node">
<title>Node2</title>
<g id="a_Node000002"><a xlink:href="../../d2/d48/structfl_1_1rect_ac38d0af07b825205b87ce55159dd2d2e.html#ac38d0af07b825205b87ce55159dd2d2e" target="_top" xlink:title=" ">
<polygon fill="white" stroke="#666666" points="285.5,-204 200.5,-204 200.5,-185 285.5,-185 285.5,-204"/>
<text text-anchor="middle" x="243" y="-192" font-family="Helvetica,sans-Serif" font-size="10.00">fl::rect::empty</text>
</a>
</g>
</g>
<!-- Node1&#45;&gt;Node2 -->
<g id="edge1_Node000001_Node000002" class="edge">
<title>Node1&#45;&gt;Node2</title>
<g id="a_edge1_Node000001_Node000002"><a xlink:title=" ">
<path fill="none" stroke="#63b8ff" d="M86.94,-111.05C106.12,-126.65 146.47,-157.73 185,-176.5 188.62,-178.26 192.46,-179.91 196.36,-181.43"/>
<polygon fill="#63b8ff" stroke="#63b8ff" points="195.51,-184.84 206.1,-184.94 197.88,-178.25 195.51,-184.84"/>
</a>
</g>
</g>
<!-- Node3 -->
<g id="Node000003" class="node">
<title>Node3</title>
<g id="a_Node000003"><a xlink:href="../../d2/d48/structfl_1_1rect_a5ca22599bff48e25c8f24daeb31ff0b9.html#a5ca22599bff48e25c8f24daeb31ff0b9" target="_top" xlink:title=" ">
<polygon fill="white" stroke="#666666" points="285,-167 201,-167 201,-148 285,-148 285,-167"/>
<text text-anchor="middle" x="243" y="-155" font-family="Helvetica,sans-Serif" font-size="10.00">fl::rect::height</text>
</a>
</g>
</g>
<!-- Node1&#45;&gt;Node3 -->
<g id="edge2_Node000001_Node000003" class="edge">
<title>Node1&#45;&gt;Node3</title>
<g id="a_edge2_Node000001_Node000003"><a xlink:title=" ">
<path fill="none" stroke="#63b8ff" d="M102.43,-111.08C124.55,-118.9 156.73,-130.13 185,-139.5 190.29,-141.25 195.88,-143.07 201.4,-144.83"/>
<polygon fill="#63b8ff" stroke="#63b8ff" points="200.59,-148.25 211.18,-147.94 202.71,-141.58 200.59,-148.25"/>
</a>
</g>
</g>
<!-- Node4 -->
<g id="Node000004" class="node">
<title>Node4</title>
<g id="a_Node000004"><a xlink:href="../../d9/df4/classfl_1_1_x_y_path_a14acc89979b799dbd4a7867d3138213c.html#a14acc89979b799dbd4a7867d3138213c" target="_top" xlink:title=" ">
<polygon fill="white" stroke="#666666" points="291,-130 195,-130 195,-111 291,-111 291,-130"/>
<text text-anchor="middle" x="243" y="-118" font-family="Helvetica,sans-Serif" font-size="10.00">fl::XYPath::name</text>
</a>
</g>
</g>
<!-- Node1&#45;&gt;Node4 -->
<g id="edge3_Node000001_Node000004" class="edge">
<title>Node1&#45;&gt;Node4</title>
<g id="a_edge3_Node000001_Node000004"><a xlink:title=" ">
<path fill="none" stroke="#63b8ff" d="M149.01,-109.89C160.89,-111.24 173.03,-112.63 184.45,-113.93"/>
<polygon fill="#63b8ff" stroke="#63b8ff" points="184.38,-117.45 194.71,-115.1 185.17,-110.49 184.38,-117.45"/>
</a>
</g>
</g>
<!-- Node5 -->
<g id="Node000005" class="node">
<title>Node5</title>
<g id="a_Node000005"><a xlink:href="../../d4/d36/namespacefl_aa46ba73e92c85e05f9ee42f4008cfbe0.html#aa46ba73e92c85e05f9ee42f4008cfbe0" target="_top" xlink:title=" ">
<polygon fill="white" stroke="#666666" points="275,-93 211,-93 211,-74 275,-74 275,-93"/>
<text text-anchor="middle" x="243" y="-81" font-family="Helvetica,sans-Serif" font-size="10.00">fl::NewPtr</text>
</a>
</g>
</g>
<!-- Node1&#45;&gt;Node5 -->
<g id="edge4_Node000001_Node000005" class="edge">
<title>Node1&#45;&gt;Node5</title>
<g id="a_edge4_Node000001_Node000005"><a xlink:title=" ">
<path fill="none" stroke="#63b8ff" d="M149.01,-93.55C166.71,-91.64 185,-89.66 200.63,-87.97"/>
<polygon fill="#63b8ff" stroke="#63b8ff" points="201.42,-91.41 210.98,-86.85 200.66,-84.45 201.42,-91.41"/>
</a>
</g>
</g>
<!-- Node12 -->
<g id="Node000012" class="node">
<title>Node12</title>
<g id="a_Node000012"><a xlink:href="../../d9/df4/classfl_1_1_x_y_path_afff9e863ebda5a087e09c27913698b73.html#afff9e863ebda5a087e09c27913698b73" target="_top" xlink:title=" ">
<polygon fill="white" stroke="#666666" points="301,-56 185,-56 185,-37 301,-37 301,-56"/>
<text text-anchor="middle" x="243" y="-44" font-family="Helvetica,sans-Serif" font-size="10.00">fl::XYPath::transform</text>
</a>
</g>
</g>
<!-- Node1&#45;&gt;Node12 -->
<g id="edge7_Node000001_Node000012" class="edge">
<title>Node1&#45;&gt;Node12</title>
<g id="a_edge7_Node000001_Node000012"><a xlink:title=" ">
<path fill="none" stroke="#63b8ff" d="M104.5,-91.92C131.87,-82.88 173.11,-69.26 203.28,-59.29"/>
<polygon fill="#63b8ff" stroke="#63b8ff" points="204.65,-62.52 213.05,-56.06 202.46,-55.88 204.65,-62.52"/>
</a>
</g>
</g>
<!-- Node13 -->
<g id="Node000013" class="node">
<title>Node13</title>
<g id="a_Node000013"><a xlink:href="../../d2/d48/structfl_1_1rect_a451231412415474d2a15782e52871372.html#a451231412415474d2a15782e52871372" target="_top" xlink:title=" ">
<polygon fill="white" stroke="#666666" points="283,-19 203,-19 203,0 283,0 283,-19"/>
<text text-anchor="middle" x="243" y="-7" font-family="Helvetica,sans-Serif" font-size="10.00">fl::rect::width</text>
</a>
</g>
</g>
<!-- Node1&#45;&gt;Node13 -->
<g id="edge8_Node000001_Node000013" class="edge">
<title>Node1&#45;&gt;Node13</title>
<g id="a_edge8_Node000001_Node000013"><a xlink:title=" ">
<path fill="none" stroke="#63b8ff" d="M87.65,-91.81C107.19,-76.6 147.24,-46.97 185,-28.5 189.34,-26.38 193.97,-24.4 198.66,-22.59"/>
<polygon fill="#63b8ff" stroke="#63b8ff" points="200.05,-25.81 208.25,-19.1 197.66,-19.23 200.05,-25.81"/>
</a>
</g>
</g>
<!-- Node6 -->
<g id="Node000006" class="node">
<title>Node6</title>
<g id="a_Node000006"><a xlink:href="../../da/d84/classfl_1_1_ptr_traits_a6f44b5dc3ee20b4ba14ed6b765cfa776.html#a6f44b5dc3ee20b4ba14ed6b765cfa776" target="_top" xlink:title=" ">
<polygon fill="white" stroke="#666666" points="433,-93 337,-93 337,-74 433,-74 433,-93"/>
<text text-anchor="middle" x="385" y="-81" font-family="Helvetica,sans-Serif" font-size="10.00">fl::PtrTraits::New</text>
</a>
</g>
</g>
<!-- Node5&#45;&gt;Node6 -->
<g id="edge5_Node000005_Node000006" class="edge">
<title>Node5&#45;&gt;Node6</title>
<g id="a_edge5_Node000005_Node000006"><a xlink:title=" ">
<path fill="none" stroke="#63b8ff" d="M275.07,-83.5C290.22,-83.5 308.94,-83.5 326.56,-83.5"/>
<polygon fill="#63b8ff" stroke="#63b8ff" points="326.78,-87 336.78,-83.5 326.78,-80 326.78,-87"/>
</a>
</g>
</g>
<!-- Node7 -->
<g id="Node000007" class="node">
<title>Node7</title>
<g id="a_Node000007"><a xlink:href="../../d1/d56/classfl_1_1_ptr_a2895e9ece61a2b6fdd33f8195033cfbe.html#a2895e9ece61a2b6fdd33f8195033cfbe" target="_top" xlink:title=" ">
<polygon fill="#fff0f0" stroke="red" points="591,-93 469,-93 469,-74 591,-74 591,-93"/>
<text text-anchor="middle" x="530" y="-81" font-family="Helvetica,sans-Serif" font-size="10.00">fl::Ptr::TakeOwnership</text>
</a>
</g>
</g>
<!-- Node6&#45;&gt;Node7 -->
<g id="edge6_Node000006_Node000007" class="edge">
<title>Node6&#45;&gt;Node7</title>
<g id="a_edge6_Node000006_Node000007"><a xlink:title=" ">
<path fill="none" stroke="#63b8ff" d="M433.22,-83.5C441.41,-83.5 450.07,-83.5 458.72,-83.5"/>
<polygon fill="#63b8ff" stroke="#63b8ff" points="458.82,-87 468.82,-83.5 458.82,-80 458.82,-87"/>
</a>
</g>
</g>
</g>
</svg>

<g id="navigator" transform="translate(0 0)" fill="#404254">
  <rect fill="#f2f5e9" fill-opacity="0.5" stroke="#606060" stroke-width=".5" x="0" y="0" width="60" height="60"/>
  <use id="zoomplus" xlink:href="#zoomPlus" x="17" y="9" onmousedown="handleZoom(evt,'in')"/>
  <use id="zoomminus" xlink:href="#zoomMin" x="42" y="9" onmousedown="handleZoom(evt,'out')"/>
  <use id="reset" xlink:href="#resetDef" x="30" y="36" onmousedown="handleReset()"/>
   <use id="arrowup" xlink:href="#arrowUp" x="0" y="0" onmousedown="handlePan(0,-1)"/>
  <use id="arrowright" xlink:href="#arrowRight" x="0" y="0" onmousedown="handlePan(1,0)"/>
  <use id="arrowdown" xlink:href="#arrowDown" x="0" y="0" onmousedown="handlePan(0,1)"/>
  <use id="arrowleft" xlink:href="#arrowLeft" x="0" y="0" onmousedown="handlePan(-1,0)"/>
</g>
<svg viewBox="0 0 15 15" width="100%" height="30px" preserveAspectRatio="xMaxYMin meet">
 <g id="arrow_out" transform="scale(0.3 0.3)">
  <a xlink:href="classfl_1_1_x_y_path_a3bdba5a2442b731dbad9012a9a2cf177_a3bdba5a2442b731dbad9012a9a2cf177_cgraph_org.svg" target="_base">
   <rect id="button" ry="5" rx="5" y="6" x="6" height="38" width="38"
        fill="#f2f5e9" fill-opacity="0.5" stroke="#606060" stroke-width="1.0"/>
   <path id="arrow"
     d="M 11.500037,31.436501 C 11.940474,20.09759 22.043105,11.32322 32.158766,21.979434 L 37.068811,17.246167 C 37.068811,17.246167 37.088388,32 37.088388,32 L 22.160133,31.978069 C 22.160133,31.978069 26.997745,27.140456 26.997745,27.140456 C 18.528582,18.264221 13.291696,25.230495 11.500037,31.436501 z"
     style="fill:#404040;"/>
  </a>
 </g>
</svg>

<style type='text/css'>
<![CDATA[
[data-mouse-over-selected='false'] { opacity: 0.7; }
[data-mouse-over-selected='true']  { opacity: 1.0; }
]]>
</style>
<script type="application/ecmascript"><![CDATA[
document.addEventListener('DOMContentLoaded', (event) => {
  highlightEdges();
  highlightAdjacentNodes();
});
]]></script>
</svg>
