<?xml version="1.0" encoding="UTF-8" standalone="no"?>
<!DOCTYPE svg PUBLIC "-//W3C//DTD SVG 1.1//EN"
 "http://www.w3.org/Graphics/SVG/1.1/DTD/svg11.dtd">
<!-- Generated by graphviz version 2.43.0 (0)
 -->
<!-- Title: fl::XYPath::drawColor Pages: 1 -->
<svg width="397pt" height="83pt"
 viewBox="0.00 0.00 397.00 83.00" xmlns="http://www.w3.org/2000/svg" xmlns:xlink="http://www.w3.org/1999/xlink">
<g id="graph0" class="graph" transform="scale(1 1) rotate(0) translate(4 79)">
<title>fl::XYPath::drawColor</title>
<!-- Node1 -->
<g id="Node000001" class="node">
<title>Node1</title>
<g id="a_Node000001"><a xlink:title=" ">
<polygon fill="#999999" stroke="#666666" points="118,-38 0,-38 0,-19 118,-19 118,-38"/>
<text text-anchor="middle" x="59" y="-26" font-family="Helvetica,sans-Serif" font-size="10.00">fl::XYPath::drawColor</text>
</a>
</g>
</g>
<!-- Node2 -->
<g id="Node000002" class="node">
<title>Node2</title>
<g id="a_Node000002"><a xlink:href="../../d9/df4/classfl_1_1_x_y_path_a165a207887957cdbab6f97715e90c46d.html#a165a207887957cdbab6f97715e90c46d" target="_top" xlink:title=" ">
<polygon fill="white" stroke="#666666" points="294,-75 154,-75 154,-56 294,-56 294,-75"/>
<text text-anchor="middle" x="224" y="-63" font-family="Helvetica,sans-Serif" font-size="10.00">fl::XYPath::calculateSteps</text>
</a>
</g>
</g>
<!-- Node1&#45;&gt;Node2 -->
<g id="edge1_Node000001_Node000002" class="edge">
<title>Node1&#45;&gt;Node2</title>
<g id="a_edge1_Node000001_Node000002"><a xlink:title=" ">
<path fill="none" stroke="#63b8ff" d="M101.98,-38.03C123,-42.8 148.65,-48.62 170.92,-53.68"/>
<polygon fill="#63b8ff" stroke="#63b8ff" points="170.36,-57.14 180.88,-55.94 171.91,-50.31 170.36,-57.14"/>
</a>
</g>
</g>
<!-- Node4 -->
<g id="Node000004" class="node">
<title>Node4</title>
<g id="a_Node000004"><a xlink:href="../../d9/df4/classfl_1_1_x_y_path_af6029bf8c93cd26d3389878578ac7221.html#af6029bf8c93cd26d3389878578ac7221" target="_top" xlink:title=" ">
<polygon fill="white" stroke="#666666" points="279.5,-38 168.5,-38 168.5,-19 279.5,-19 279.5,-38"/>
<text text-anchor="middle" x="224" y="-26" font-family="Helvetica,sans-Serif" font-size="10.00">fl::XYPath::rasterize</text>
</a>
</g>
</g>
<!-- Node1&#45;&gt;Node4 -->
<g id="edge3_Node000001_Node000004" class="edge">
<title>Node1&#45;&gt;Node4</title>
<g id="a_edge3_Node000001_Node000004"><a xlink:title=" ">
<path fill="none" stroke="#63b8ff" d="M118.39,-28.5C131.22,-28.5 144.88,-28.5 157.95,-28.5"/>
<polygon fill="#63b8ff" stroke="#63b8ff" points="158.29,-32 168.29,-28.5 158.29,-25 158.29,-32"/>
</a>
</g>
</g>
<!-- Node5 -->
<g id="Node000005" class="node">
<title>Node5</title>
<g id="a_Node000005"><a xlink:href="../../d6/daf/direct_8h_a1b7dc7e9feb3d26023be6578bdd7adf1.html#a1b7dc7e9feb3d26023be6578bdd7adf1" target="_top" xlink:title=" ">
<polygon fill="white" stroke="#666666" points="381,-19 338,-19 338,0 381,0 381,-19"/>
<text text-anchor="middle" x="359.5" y="-7" font-family="Helvetica,sans-Serif" font-size="10.00">steps</text>
</a>
</g>
</g>
<!-- Node1&#45;&gt;Node5 -->
<g id="edge5_Node000001_Node000005" class="edge">
<title>Node1&#45;&gt;Node5</title>
<g id="a_edge5_Node000001_Node000005"><a xlink:title=" ">
<path fill="none" stroke="#63b8ff" d="M98.15,-18.99C115.13,-15.23 135.45,-11.36 154,-9.5 215.32,-3.36 287.51,-5.55 327.63,-7.59"/>
<polygon fill="#63b8ff" stroke="#63b8ff" points="327.65,-11.1 337.82,-8.14 328.03,-4.11 327.65,-11.1"/>
</a>
</g>
</g>
<!-- Node3 -->
<g id="Node000003" class="node">
<title>Node3</title>
<g id="a_Node000003"><a xlink:href="../../d4/d36/namespacefl_a6072e119545650c71b6544cc0ce9e355.html#a6072e119545650c71b6544cc0ce9e355" target="_top" xlink:title=" ">
<polygon fill="white" stroke="#666666" points="389,-75 330,-75 330,-56 389,-56 389,-75"/>
<text text-anchor="middle" x="359.5" y="-63" font-family="Helvetica,sans-Serif" font-size="10.00">fl::clamp</text>
</a>
</g>
</g>
<!-- Node2&#45;&gt;Node3 -->
<g id="edge2_Node000002_Node000003" class="edge">
<title>Node2&#45;&gt;Node3</title>
<g id="a_edge2_Node000002_Node000003"><a xlink:title=" ">
<path fill="none" stroke="#63b8ff" d="M294.1,-65.5C302.86,-65.5 311.56,-65.5 319.61,-65.5"/>
<polygon fill="#63b8ff" stroke="#63b8ff" points="319.76,-69 329.76,-65.5 319.76,-62 319.76,-69"/>
</a>
</g>
</g>
<!-- Node4&#45;&gt;Node5 -->
<g id="edge4_Node000004_Node000005" class="edge">
<title>Node4&#45;&gt;Node5</title>
<g id="a_edge4_Node000004_Node000005"><a xlink:title=" ">
<path fill="none" stroke="#63b8ff" d="M279.68,-20.72C295.98,-18.4 313.27,-15.94 327.49,-13.91"/>
<polygon fill="#63b8ff" stroke="#63b8ff" points="328.29,-17.33 337.7,-12.46 327.3,-10.4 328.29,-17.33"/>
</a>
</g>
</g>
</g>
</svg>
