<?xml version="1.0" encoding="UTF-8" standalone="no"?>
<!DOCTYPE svg PUBLIC "-//W3C//DTD SVG 1.1//EN"
 "http://www.w3.org/Graphics/SVG/1.1/DTD/svg11.dtd">
<!-- Generated by graphviz version 2.43.0 (0)
 -->
<!-- Title: fl::HttpRequestParser::reset Pages: 1 -->
<svg width="440pt" height="59pt"
 viewBox="0.00 0.00 440.00 59.00" xmlns="http://www.w3.org/2000/svg" xmlns:xlink="http://www.w3.org/1999/xlink">

<svg id="main" version="1.1" xmlns="http://www.w3.org/2000/svg" xmlns:xlink="http://www.w3.org/1999/xlink" xml:space="preserve">

<style type="text/css"><![CDATA[
.node, .edge {opacity: 0.7;}
.node.selected, .edge.selected {opacity: 1;}
.edge:hover path { stroke: red; }
.edge:hover polygon { stroke: red; fill: red; }
]]></style>
<script type="application/ecmascript" xlink:href="../../svg.min.js"/>
<svg id="graph" class="graph">
<g id="graph0" class="graph" transform="scale(1 1) rotate(0) translate(4 55)">
<title>fl::HttpRequestParser::reset</title>
<!-- Node1 -->
<g id="Node000001" class="node">
<title>Node1</title>
<g id="a_Node000001"><a xlink:title=" ">
<polygon fill="#999999" stroke="#666666" points="432,-51 313,-51 313,-21 432,-21 432,-51"/>
<text text-anchor="start" x="321" y="-39" font-family="Helvetica,sans-Serif" font-size="10.00">fl::HttpRequestParser</text>
<text text-anchor="middle" x="372.5" y="-28" font-family="Helvetica,sans-Serif" font-size="10.00">::reset</text>
</a>
</g>
</g>
<!-- Node2 -->
<g id="Node000002" class="node">
<title>Node2</title>
<g id="a_Node000002"><a xlink:href="../../d1/d66/classfl_1_1_http_request_parser_a213b8e5364137b2bdbab2d3d63e5cde5.html#a213b8e5364137b2bdbab2d3d63e5cde5" target="_top" xlink:title=" ">
<polygon fill="white" stroke="#666666" points="122,-51 0,-51 0,-21 122,-21 122,-51"/>
<text text-anchor="start" x="8" y="-39" font-family="Helvetica,sans-Serif" font-size="10.00">fl::HttpRequestParser</text>
<text text-anchor="middle" x="61" y="-28" font-family="Helvetica,sans-Serif" font-size="10.00">::~HttpRequestParser</text>
</a>
</g>
</g>
<!-- Node1&#45;&gt;Node2 -->
<g id="edge1_Node000001_Node000002" class="edge">
<title>Node1&#45;&gt;Node2</title>
<g id="a_edge1_Node000001_Node000002"><a xlink:title=" ">
<path fill="none" stroke="#63b8ff" d="M302.69,-38.44C294.04,-38.67 285.32,-38.87 277,-39 224.12,-39.84 210.88,-39.83 158,-39 146.41,-38.82 134.04,-38.52 122.17,-38.17"/>
<polygon fill="#63b8ff" stroke="#63b8ff" points="302.88,-41.94 312.78,-38.15 302.68,-34.94 302.88,-41.94"/>
</a>
</g>
</g>
<!-- Node3 -->
<g id="Node000003" class="node">
<title>Node3</title>
<g id="a_Node000003"><a xlink:href="../../d1/d66/classfl_1_1_http_request_parser_ae510d470df5ffe4476f2515ac4a2451d.html#ae510d470df5ffe4476f2515ac4a2451d" target="_top" xlink:title=" ">
<polygon fill="white" stroke="#666666" points="277,-30 158,-30 158,0 277,0 277,-30"/>
<text text-anchor="start" x="166" y="-18" font-family="Helvetica,sans-Serif" font-size="10.00">fl::HttpRequestParser</text>
<text text-anchor="middle" x="217.5" y="-7" font-family="Helvetica,sans-Serif" font-size="10.00">::getRequest</text>
</a>
</g>
</g>
<!-- Node1&#45;&gt;Node3 -->
<g id="edge2_Node000001_Node000003" class="edge">
<title>Node1&#45;&gt;Node3</title>
<g id="a_edge2_Node000001_Node000003"><a xlink:title=" ">
<path fill="none" stroke="#63b8ff" d="M302.79,-26.57C294.2,-25.39 285.47,-24.19 277.06,-23.04"/>
<polygon fill="#63b8ff" stroke="#63b8ff" points="302.4,-30.05 312.78,-27.94 303.35,-23.11 302.4,-30.05"/>
</a>
</g>
</g>
<!-- Node3&#45;&gt;Node2 -->
<g id="edge3_Node000003_Node000002" class="edge">
<title>Node3&#45;&gt;Node2</title>
<g id="a_edge3_Node000003_Node000002"><a xlink:title=" ">
<path fill="none" stroke="#63b8ff" d="M147.47,-24.38C139.05,-25.53 130.5,-26.69 122.22,-27.81"/>
<polygon fill="#63b8ff" stroke="#63b8ff" points="148.21,-27.81 157.65,-23 147.27,-20.88 148.21,-27.81"/>
</a>
</g>
</g>
</g>
</svg>
</svg>

<style type='text/css'>
<![CDATA[
[data-mouse-over-selected='false'] { opacity: 0.7; }
[data-mouse-over-selected='true']  { opacity: 1.0; }
]]>
</style>
<script type="application/ecmascript"><![CDATA[
document.addEventListener('DOMContentLoaded', (event) => {
  highlightEdges();
  highlightAdjacentNodes();
});
]]></script>
</svg>
