<?xml version="1.0" encoding="UTF-8" standalone="no"?>
<!DOCTYPE svg PUBLIC "-//W3C//DTD SVG 1.1//EN"
 "http://www.w3.org/Graphics/SVG/1.1/DTD/svg11.dtd">
<!-- Generated by graphviz version 2.43.0 (0)
 -->
<!-- Title: fl::HttpRequestParser::findCRLF Pages: 1 -->
<svg width="595pt" height="86pt"
 viewBox="0.00 0.00 595.00 86.00" xmlns="http://www.w3.org/2000/svg" xmlns:xlink="http://www.w3.org/1999/xlink">
<g id="graph0" class="graph" transform="scale(1 1) rotate(0) translate(4 82)">
<title>fl::HttpRequestParser::findCRLF</title>
<!-- Node1 -->
<g id="Node000001" class="node">
<title>Node1</title>
<g id="a_Node000001"><a xlink:title=" ">
<polygon fill="#999999" stroke="#666666" points="587,-54 468,-54 468,-24 587,-24 587,-54"/>
<text text-anchor="start" x="476" y="-42" font-family="Helvetica,sans-Serif" font-size="10.00">fl::HttpRequestParser</text>
<text text-anchor="middle" x="527.5" y="-31" font-family="Helvetica,sans-Serif" font-size="10.00">::findCRLF</text>
</a>
</g>
</g>
<!-- Node2 -->
<g id="Node000002" class="node">
<title>Node2</title>
<g id="a_Node000002"><a xlink:href="../../d1/d66/classfl_1_1_http_request_parser_a276cba423e7a1ff242c08efff0164f2c.html#a276cba423e7a1ff242c08efff0164f2c" target="_top" xlink:title=" ">
<polygon fill="white" stroke="#666666" points="432,-78 313,-78 313,-48 432,-48 432,-78"/>
<text text-anchor="start" x="321" y="-66" font-family="Helvetica,sans-Serif" font-size="10.00">fl::HttpRequestParser</text>
<text text-anchor="middle" x="372.5" y="-55" font-family="Helvetica,sans-Serif" font-size="10.00">::parseHeaders</text>
</a>
</g>
</g>
<!-- Node1&#45;&gt;Node2 -->
<g id="edge1_Node000001_Node000002" class="edge">
<title>Node1&#45;&gt;Node2</title>
<g id="a_edge1_Node000001_Node000002"><a xlink:title=" ">
<path fill="none" stroke="#63b8ff" d="M457.79,-49.78C449.2,-51.13 440.47,-52.49 432.06,-53.81"/>
<polygon fill="#63b8ff" stroke="#63b8ff" points="458.45,-53.22 467.78,-48.21 457.36,-46.3 458.45,-53.22"/>
</a>
</g>
</g>
<!-- Node5 -->
<g id="Node000005" class="node">
<title>Node5</title>
<g id="a_Node000005"><a xlink:href="../../d1/d66/classfl_1_1_http_request_parser_a0028b2f81d18dcf48c9c76d0f9f1054a.html#a0028b2f81d18dcf48c9c76d0f9f1054a" target="_top" xlink:title=" ">
<polygon fill="white" stroke="#666666" points="432,-30 313,-30 313,0 432,0 432,-30"/>
<text text-anchor="start" x="321" y="-18" font-family="Helvetica,sans-Serif" font-size="10.00">fl::HttpRequestParser</text>
<text text-anchor="middle" x="372.5" y="-7" font-family="Helvetica,sans-Serif" font-size="10.00">::parseRequestLine</text>
</a>
</g>
</g>
<!-- Node1&#45;&gt;Node5 -->
<g id="edge5_Node000001_Node000005" class="edge">
<title>Node1&#45;&gt;Node5</title>
<g id="a_edge5_Node000001_Node000005"><a xlink:title=" ">
<path fill="none" stroke="#63b8ff" d="M457.79,-28.22C449.2,-26.87 440.47,-25.51 432.06,-24.19"/>
<polygon fill="#63b8ff" stroke="#63b8ff" points="457.36,-31.7 467.78,-29.79 458.45,-24.78 457.36,-31.7"/>
</a>
</g>
</g>
<!-- Node3 -->
<g id="Node000003" class="node">
<title>Node3</title>
<g id="a_Node000003"><a xlink:href="../../d1/d66/classfl_1_1_http_request_parser_af4a63c8924d5303f91d862eec5ee2067.html#af4a63c8924d5303f91d862eec5ee2067" target="_top" xlink:title=" ">
<polygon fill="white" stroke="#666666" points="277,-54 158,-54 158,-24 277,-24 277,-54"/>
<text text-anchor="start" x="166" y="-42" font-family="Helvetica,sans-Serif" font-size="10.00">fl::HttpRequestParser</text>
<text text-anchor="middle" x="217.5" y="-31" font-family="Helvetica,sans-Serif" font-size="10.00">::feed</text>
</a>
</g>
</g>
<!-- Node2&#45;&gt;Node3 -->
<g id="edge2_Node000002_Node000003" class="edge">
<title>Node2&#45;&gt;Node3</title>
<g id="a_edge2_Node000002_Node000003"><a xlink:title=" ">
<path fill="none" stroke="#63b8ff" d="M302.79,-52.22C294.2,-50.87 285.47,-49.51 277.06,-48.19"/>
<polygon fill="#63b8ff" stroke="#63b8ff" points="302.36,-55.7 312.78,-53.79 303.45,-48.78 302.36,-55.7"/>
</a>
</g>
</g>
<!-- Node3&#45;&gt;Node3 -->
<g id="edge4_Node000003_Node000003" class="edge">
<title>Node3&#45;&gt;Node3</title>
<g id="a_edge4_Node000003_Node000003"><a xlink:title=" ">
<path fill="none" stroke="#63b8ff" d="M244.46,-64.6C240.77,-68.97 231.79,-72 217.5,-72 193.44,-72 184.41,-63.41 190.43,-54.28"/>
<polygon fill="#63b8ff" stroke="#63b8ff" points="247.96,-64.31 244.57,-54.28 240.96,-64.24 247.96,-64.31"/>
</a>
</g>
</g>
<!-- Node4 -->
<g id="Node000004" class="node">
<title>Node4</title>
<g id="a_Node000004"><a xlink:href="../../d1/d66/classfl_1_1_http_request_parser_a213b8e5364137b2bdbab2d3d63e5cde5.html#a213b8e5364137b2bdbab2d3d63e5cde5" target="_top" xlink:title=" ">
<polygon fill="white" stroke="#666666" points="122,-54 0,-54 0,-24 122,-24 122,-54"/>
<text text-anchor="start" x="8" y="-42" font-family="Helvetica,sans-Serif" font-size="10.00">fl::HttpRequestParser</text>
<text text-anchor="middle" x="61" y="-31" font-family="Helvetica,sans-Serif" font-size="10.00">::~HttpRequestParser</text>
</a>
</g>
</g>
<!-- Node3&#45;&gt;Node4 -->
<g id="edge3_Node000003_Node000004" class="edge">
<title>Node3&#45;&gt;Node4</title>
<g id="a_edge3_Node000003_Node000004"><a xlink:title=" ">
<path fill="none" stroke="#63b8ff" d="M147.47,-39C139.05,-39 130.5,-39 122.22,-39"/>
<polygon fill="#63b8ff" stroke="#63b8ff" points="147.65,-42.5 157.65,-39 147.65,-35.5 147.65,-42.5"/>
</a>
</g>
</g>
<!-- Node5&#45;&gt;Node3 -->
<g id="edge6_Node000005_Node000003" class="edge">
<title>Node5&#45;&gt;Node3</title>
<g id="a_edge6_Node000005_Node000003"><a xlink:title=" ">
<path fill="none" stroke="#63b8ff" d="M302.79,-25.78C294.2,-27.13 285.47,-28.49 277.06,-29.81"/>
<polygon fill="#63b8ff" stroke="#63b8ff" points="303.45,-29.22 312.78,-24.21 302.36,-22.3 303.45,-29.22"/>
</a>
</g>
</g>
</g>
</svg>
