<?xml version="1.0" encoding="UTF-8" standalone="no"?>
<!DOCTYPE svg PUBLIC "-//W3C//DTD SVG 1.1//EN"
 "http://www.w3.org/Graphics/SVG/1.1/DTD/svg11.dtd">
<!-- Generated by graphviz version 2.43.0 (0)
 -->
<!-- Title: fl::net::http::FetchRequest Pages: 1 -->
<svg width="1476pt" height="342pt"
 viewBox="0.00 0.00 1476.00 341.51" xmlns="http://www.w3.org/2000/svg" xmlns:xlink="http://www.w3.org/1999/xlink">
<g id="graph0" class="graph" transform="scale(1 1) rotate(0) translate(4 337.51)">
<title>fl::net::http::FetchRequest</title>
<!-- Node1 -->
<g id="Node000001" class="node">
<title>Node1</title>
<g id="a_Node000001"><a xlink:title="Non&#45;blocking HTTP request state machine.">
<polygon fill="#999999" stroke="#666666" points="1468,-159.01 1326,-159.01 1326,-140.01 1468,-140.01 1468,-159.01"/>
<text text-anchor="middle" x="1397" y="-147.01" font-family="Helvetica,sans-Serif" font-size="10.00">fl::net::http::FetchRequest</text>
</a>
</g>
</g>
<!-- Node2 -->
<g id="Node000002" class="node">
<title>Node2</title>
<g id="a_Node000002"><a xlink:href="../../d0/d34/classfl_1_1task_1_1_promise.html" target="_top" xlink:title=" ">
<polygon fill="white" stroke="#666666" points="1230,-241.51 1093,-241.51 1093,-211.51 1230,-211.51 1230,-241.51"/>
<text text-anchor="start" x="1101" y="-229.51" font-family="Helvetica,sans-Serif" font-size="10.00">fl::task::Promise&lt;</text>
<text text-anchor="middle" x="1161.5" y="-218.51" font-family="Helvetica,sans-Serif" font-size="10.00"> fl::net::http::Response &gt;</text>
</a>
</g>
</g>
<!-- Node2&#45;&gt;Node1 -->
<g id="edge1_Node000001_Node000002" class="edge">
<title>Node2&#45;&gt;Node1</title>
<g id="a_edge1_Node000001_Node000002"><a xlink:title=" ">
<path fill="none" stroke="#9a32cd" stroke-dasharray="5,2" d="M1217.78,-208.28C1264.63,-192.83 1329.96,-171.29 1367.12,-159.04"/>
<polygon fill="#9a32cd" stroke="#9a32cd" points="1216.48,-205.03 1208.08,-211.48 1218.67,-211.67 1216.48,-205.03"/>
</a>
</g>
<text text-anchor="middle" x="1278" y="-199.51" font-family="Helvetica,sans-Serif" font-size="10.00" fill="grey"> mPromise</text>
</g>
<!-- Node3 -->
<g id="Node000003" class="node">
<title>Node3</title>
<g id="a_Node000003"><a xlink:href="../../d1/d74/classfl_1_1shared__ptr.html" target="_top" xlink:title=" ">
<polygon fill="white" stroke="#666666" points="729,-278.01 572,-278.01 572,-237.01 729,-237.01 729,-278.01"/>
<text text-anchor="start" x="580" y="-266.01" font-family="Helvetica,sans-Serif" font-size="10.00">fl::shared_ptr&lt; fl</text>
<text text-anchor="start" x="580" y="-255.01" font-family="Helvetica,sans-Serif" font-size="10.00">::task::detail::PromiseImpl</text>
<text text-anchor="middle" x="650.5" y="-244.01" font-family="Helvetica,sans-Serif" font-size="10.00">&lt; fl::net::http::Response &gt; &gt;</text>
</a>
</g>
</g>
<!-- Node3&#45;&gt;Node2 -->
<g id="edge2_Node000002_Node000003" class="edge">
<title>Node3&#45;&gt;Node2</title>
<g id="a_edge2_Node000002_Node000003"><a xlink:title=" ">
<path fill="none" stroke="#9a32cd" stroke-dasharray="5,2" d="M739.2,-252.17C839.52,-246.06 1001.64,-236.19 1092.74,-230.64"/>
<polygon fill="#9a32cd" stroke="#9a32cd" points="738.85,-248.68 729.08,-252.79 739.28,-255.67 738.85,-248.68"/>
</a>
</g>
<text text-anchor="middle" x="862" y="-250.51" font-family="Helvetica,sans-Serif" font-size="10.00" fill="grey"> mImpl</text>
</g>
<!-- Node4 -->
<g id="Node000004" class="node">
<title>Node4</title>
<g id="a_Node000004"><a xlink:href="../../d0/d62/classfl_1_1task_1_1detail_1_1_promise_impl.html" target="_top" xlink:title=" ">
<polygon fill="#fff0f0" stroke="red" points="428,-333.51 261,-333.51 261,-303.51 428,-303.51 428,-333.51"/>
<text text-anchor="start" x="269" y="-321.51" font-family="Helvetica,sans-Serif" font-size="10.00">fl::task::detail::Promise</text>
<text text-anchor="middle" x="344.5" y="-310.51" font-family="Helvetica,sans-Serif" font-size="10.00">Impl&lt; fl::net::http::Response &gt;</text>
</a>
</g>
</g>
<!-- Node4&#45;&gt;Node3 -->
<g id="edge3_Node000003_Node000004" class="edge">
<title>Node4&#45;&gt;Node3</title>
<g id="a_edge3_Node000003_Node000004"><a xlink:title=" ">
<path fill="none" stroke="#9a32cd" stroke-dasharray="5,2" d="M438.15,-308.63C474.53,-303.86 516.47,-297.23 554,-288.51 566.31,-285.65 579.31,-281.92 591.61,-278.05"/>
<polygon fill="#9a32cd" stroke="#9a32cd" points="437.52,-305.19 428.05,-309.93 438.41,-312.13 437.52,-305.19"/>
</a>
</g>
<text text-anchor="middle" x="500" y="-309.51" font-family="Helvetica,sans-Serif" font-size="10.00" fill="grey"> mPtr</text>
</g>
<!-- Node31 -->
<g id="Node000031" class="node">
<title>Node31</title>
<g id="a_Node000031"><a xlink:href="../../d4/dc0/structfl_1_1detail_1_1_control_block_base.html" target="_top" xlink:title=" ">
<polygon fill="#fff0f0" stroke="red" points="149,-217.01 0,-217.01 0,-198.01 149,-198.01 149,-217.01"/>
<text text-anchor="middle" x="74.5" y="-205.01" font-family="Helvetica,sans-Serif" font-size="10.00">fl::detail::ControlBlockBase</text>
</a>
</g>
</g>
<!-- Node31&#45;&gt;Node3 -->
<g id="edge4_Node000003_Node000031" class="edge">
<title>Node31&#45;&gt;Node3</title>
<g id="a_edge4_Node000003_Node000031"><a xlink:title=" ">
<path fill="none" stroke="#9a32cd" stroke-dasharray="5,2" d="M142.19,-218.66C150.54,-219.99 158.96,-221.31 167,-222.51 290.76,-241.08 321.14,-252.05 446,-260.51 493.89,-263.76 506.01,-261.26 554,-260.51 559.81,-260.42 565.81,-260.3 571.85,-260.15"/>
<polygon fill="#9a32cd" stroke="#9a32cd" points="142.51,-215.17 132.08,-217.03 141.4,-222.08 142.51,-215.17"/>
</a>
</g>
<text text-anchor="middle" x="344.5" y="-261.51" font-family="Helvetica,sans-Serif" font-size="10.00" fill="grey"> mControlBlock</text>
</g>
<!-- Node33 -->
<g id="Node000033" class="node">
<title>Node33</title>
<g id="a_Node000033"><a xlink:href="../../d1/d74/classfl_1_1shared__ptr.html" target="_top" xlink:title=" ">
<polygon fill="white" stroke="#666666" points="399,-217.01 290,-217.01 290,-198.01 399,-198.01 399,-217.01"/>
<text text-anchor="middle" x="344.5" y="-205.01" font-family="Helvetica,sans-Serif" font-size="10.00">fl::shared_ptr&lt; T &gt;</text>
</a>
</g>
</g>
<!-- Node31&#45;&gt;Node33 -->
<g id="edge6_Node000033_Node000031" class="edge">
<title>Node31&#45;&gt;Node33</title>
<g id="a_edge6_Node000033_Node000031"><a xlink:title=" ">
<path fill="none" stroke="#9a32cd" stroke-dasharray="5,2" d="M159.16,-207.51C201.74,-207.51 252.26,-207.51 289.63,-207.51"/>
<polygon fill="#9a32cd" stroke="#9a32cd" points="159.09,-204.01 149.09,-207.51 159.09,-211.01 159.09,-204.01"/>
</a>
</g>
<text text-anchor="middle" x="205" y="-210.51" font-family="Helvetica,sans-Serif" font-size="10.00" fill="grey"> mControlBlock</text>
</g>
<!-- Node35 -->
<g id="Node000035" class="node">
<title>Node35</title>
<g id="a_Node000035"><a xlink:href="../../d1/d74/classfl_1_1shared__ptr.html" target="_top" xlink:title=" ">
<polygon fill="white" stroke="#666666" points="723,-202.01 578,-202.01 578,-161.01 723,-161.01 723,-202.01"/>
<text text-anchor="start" x="586" y="-190.01" font-family="Helvetica,sans-Serif" font-size="10.00">fl::shared_ptr&lt; fl</text>
<text text-anchor="start" x="586" y="-179.01" font-family="Helvetica,sans-Serif" font-size="10.00">::task::detail::PromiseImpl</text>
<text text-anchor="middle" x="650.5" y="-168.01" font-family="Helvetica,sans-Serif" font-size="10.00">&lt; T &gt; &gt;</text>
</a>
</g>
</g>
<!-- Node31&#45;&gt;Node35 -->
<g id="edge9_Node000035_Node000031" class="edge">
<title>Node31&#45;&gt;Node35</title>
<g id="a_edge9_Node000035_Node000031"><a xlink:title=" ">
<path fill="none" stroke="#9a32cd" stroke-dasharray="5,2" d="M135.59,-196.2C171.78,-189.87 218.88,-182.47 261,-178.51 390.68,-166.32 423.89,-166.39 554,-172.51 561.74,-172.87 569.81,-173.4 577.85,-174.02"/>
<polygon fill="#9a32cd" stroke="#9a32cd" points="134.92,-192.77 125.68,-197.96 136.14,-199.66 134.92,-192.77"/>
</a>
</g>
<text text-anchor="middle" x="344.5" y="-181.51" font-family="Helvetica,sans-Serif" font-size="10.00" fill="grey"> mControlBlock</text>
</g>
<!-- Node33&#45;&gt;Node3 -->
<g id="edge5_Node000003_Node000033" class="edge">
<title>Node33&#45;&gt;Node3</title>
<g id="a_edge5_Node000003_Node000033"><a xlink:title=" ">
<path fill="none" stroke="orange" stroke-dasharray="5,2" d="M409.07,-210.16C450.64,-212.74 505.93,-217.77 554,-227.51 566.09,-229.96 578.82,-233.36 590.91,-236.99"/>
<polygon fill="orange" stroke="orange" points="409.27,-206.67 399.08,-209.57 408.86,-213.66 409.27,-206.67"/>
</a>
</g>
<text text-anchor="start" x="446.5" y="-252.51" font-family="Helvetica,sans-Serif" font-size="10.00" fill="grey"> &lt; fl::task::detail</text>
<text text-anchor="start" x="446.5" y="-241.51" font-family="Helvetica,sans-Serif" font-size="10.00" fill="grey">::PromiseImpl&lt; fl::net</text>
<text text-anchor="middle" x="500" y="-230.51" font-family="Helvetica,sans-Serif" font-size="10.00" fill="grey">::http::Response &gt; &gt;</text>
</g>
<!-- Node33&#45;&gt;Node35 -->
<g id="edge10_Node000035_Node000033" class="edge">
<title>Node33&#45;&gt;Node35</title>
<g id="a_edge10_Node000035_Node000033"><a xlink:title=" ">
<path fill="none" stroke="orange" stroke-dasharray="5,2" d="M385.64,-195.19C403.87,-190.2 425.83,-185.03 446,-182.51 489.47,-177.08 538.57,-176.67 577.65,-177.7"/>
<polygon fill="orange" stroke="orange" points="384.61,-191.85 375.93,-197.93 386.51,-198.58 384.61,-191.85"/>
</a>
</g>
<text text-anchor="start" x="446" y="-196.51" font-family="Helvetica,sans-Serif" font-size="10.00" fill="grey"> &lt; fl::task::detail</text>
<text text-anchor="middle" x="500" y="-185.51" font-family="Helvetica,sans-Serif" font-size="10.00" fill="grey">::PromiseImpl&lt; T &gt; &gt;</text>
</g>
<!-- Node34 -->
<g id="Node000034" class="node">
<title>Node34</title>
<g id="a_Node000034"><a xlink:href="../../d0/d34/classfl_1_1task_1_1_promise.html" target="_top" xlink:title="Promise class that provides fluent .then() and .catch_() semantics This is a lightweight wrapper arou...">
<polygon fill="white" stroke="#666666" points="924,-204.01 800,-204.01 800,-185.01 924,-185.01 924,-204.01"/>
<text text-anchor="middle" x="862" y="-192.01" font-family="Helvetica,sans-Serif" font-size="10.00">fl::task::Promise&lt; T &gt;</text>
</a>
</g>
</g>
<!-- Node34&#45;&gt;Node2 -->
<g id="edge7_Node000002_Node000034" class="edge">
<title>Node34&#45;&gt;Node2</title>
<g id="a_edge7_Node000002_Node000034"><a xlink:title=" ">
<path fill="none" stroke="orange" stroke-dasharray="5,2" d="M934.31,-202.18C982.41,-207.36 1045.49,-214.14 1092.81,-219.23"/>
<polygon fill="orange" stroke="orange" points="934.6,-198.69 924.28,-201.1 933.85,-205.65 934.6,-198.69"/>
</a>
</g>
<text text-anchor="middle" x="1008.5" y="-219.51" font-family="Helvetica,sans-Serif" font-size="10.00" fill="grey"> &lt; fl::net::http::Response &gt;</text>
</g>
<!-- Node35&#45;&gt;Node34 -->
<g id="edge8_Node000034_Node000035" class="edge">
<title>Node35&#45;&gt;Node34</title>
<g id="a_edge8_Node000034_Node000035"><a xlink:title=" ">
<path fill="none" stroke="#9a32cd" stroke-dasharray="5,2" d="M733.11,-186.58C755.35,-187.96 779.05,-189.43 799.93,-190.72"/>
<polygon fill="#9a32cd" stroke="#9a32cd" points="733.21,-183.07 723.01,-185.95 732.78,-190.06 733.21,-183.07"/>
</a>
</g>
<text text-anchor="middle" x="764.5" y="-192.51" font-family="Helvetica,sans-Serif" font-size="10.00" fill="grey"> mImpl</text>
</g>
<!-- Node36 -->
<g id="Node000036" class="node">
<title>Node36</title>
<g id="a_Node000036"><a xlink:href="../../d2/db7/classfl_1_1url.html" target="_top" xlink:title=" ">
<polygon fill="white" stroke="#666666" points="1182,-113.01 1141,-113.01 1141,-94.01 1182,-94.01 1182,-113.01"/>
<text text-anchor="middle" x="1161.5" y="-101.01" font-family="Helvetica,sans-Serif" font-size="10.00">fl::url</text>
</a>
</g>
</g>
<!-- Node36&#45;&gt;Node1 -->
<g id="edge11_Node000001_Node000036" class="edge">
<title>Node36&#45;&gt;Node1</title>
<g id="a_edge11_Node000001_Node000036"><a xlink:title=" ">
<path fill="none" stroke="#9a32cd" stroke-dasharray="5,2" d="M1192.51,-106.66C1222.07,-110.03 1268.43,-116.07 1308,-124.51 1327.57,-128.68 1349.2,-134.81 1366.11,-139.95"/>
<polygon fill="#9a32cd" stroke="#9a32cd" points="1192.74,-103.16 1182.42,-105.53 1191.97,-110.12 1192.74,-103.16"/>
</a>
</g>
<text text-anchor="middle" x="1278" y="-127.51" font-family="Helvetica,sans-Serif" font-size="10.00" fill="grey"> mParsedUrl</text>
</g>
<!-- Node8 -->
<g id="Node000008" class="node">
<title>Node8</title>
<g id="a_Node000008"><a xlink:href="../../d2/db2/classfl_1_1string.html" target="_top" xlink:title=" ">
<polygon fill="#fff0f0" stroke="red" points="890,-146.01 834,-146.01 834,-127.01 890,-127.01 890,-146.01"/>
<text text-anchor="middle" x="862" y="-134.01" font-family="Helvetica,sans-Serif" font-size="10.00">fl::string</text>
</a>
</g>
</g>
<!-- Node8&#45;&gt;Node1 -->
<g id="edge14_Node000001_Node000008" class="edge">
<title>Node8&#45;&gt;Node1</title>
<g id="a_edge14_Node000001_Node000008"><a xlink:title=" ">
<path fill="none" stroke="#9a32cd" stroke-dasharray="5,2" d="M900.24,-137.42C988.43,-139.57 1211.25,-145.01 1325.72,-147.8"/>
<polygon fill="#9a32cd" stroke="#9a32cd" points="900.25,-133.92 890.16,-137.17 900.08,-140.92 900.25,-133.92"/>
</a>
</g>
<text text-anchor="middle" x="1161.5" y="-180.51" font-family="Helvetica,sans-Serif" font-size="10.00" fill="grey"> mHostname</text>
<text text-anchor="middle" x="1161.5" y="-169.51" font-family="Helvetica,sans-Serif" font-size="10.00" fill="grey">mPath</text>
<text text-anchor="middle" x="1161.5" y="-158.51" font-family="Helvetica,sans-Serif" font-size="10.00" fill="grey">mRequestBuffer</text>
<text text-anchor="middle" x="1161.5" y="-147.51" font-family="Helvetica,sans-Serif" font-size="10.00" fill="grey">mResponseBuffer</text>
</g>
<!-- Node8&#45;&gt;Node36 -->
<g id="edge12_Node000036_Node000008" class="edge">
<title>Node8&#45;&gt;Node36</title>
<g id="a_edge12_Node000036_Node000008"><a xlink:title=" ">
<path fill="none" stroke="#9a32cd" stroke-dasharray="5,2" d="M900.15,-130.44C913.34,-128.4 928.31,-126.21 942,-124.51 1015.18,-115.44 1102.57,-108.09 1140.87,-105.03"/>
<polygon fill="#9a32cd" stroke="#9a32cd" points="899.34,-127.02 890.01,-132.03 900.43,-133.94 899.34,-127.02"/>
</a>
</g>
<text text-anchor="middle" x="1008.5" y="-127.51" font-family="Helvetica,sans-Serif" font-size="10.00" fill="grey"> mUrl</text>
</g>
<!-- Node37 -->
<g id="Node000037" class="node">
<title>Node37</title>
<g id="a_Node000037"><a xlink:href="../../d2/db7/classfl_1_1url.html#d2/d9e/structfl_1_1url_1_1_span" target="_top" xlink:title=" ">
<polygon fill="white" stroke="#666666" points="897.5,-22.01 826.5,-22.01 826.5,-3.01 897.5,-3.01 897.5,-22.01"/>
<text text-anchor="middle" x="862" y="-10.01" font-family="Helvetica,sans-Serif" font-size="10.00">fl::url::Span</text>
</a>
</g>
</g>
<!-- Node37&#45;&gt;Node36 -->
<g id="edge13_Node000036_Node000037" class="edge">
<title>Node37&#45;&gt;Node36</title>
<g id="a_edge13_Node000036_Node000037"><a xlink:title=" ">
<path fill="none" stroke="#9a32cd" stroke-dasharray="5,2" d="M907.88,-4.52C952.25,1.29 1021.12,4.61 1075,-18.51 1112.32,-34.52 1142.18,-75.08 1154.45,-93.79"/>
<polygon fill="#9a32cd" stroke="#9a32cd" points="907.11,-1.1 897.7,-5.96 908.09,-8.03 907.11,-1.1"/>
</a>
</g>
<text text-anchor="middle" x="1008.5" y="-98.51" font-family="Helvetica,sans-Serif" font-size="10.00" fill="grey"> mAuthority</text>
<text text-anchor="middle" x="1008.5" y="-87.51" font-family="Helvetica,sans-Serif" font-size="10.00" fill="grey">mFragment</text>
<text text-anchor="middle" x="1008.5" y="-76.51" font-family="Helvetica,sans-Serif" font-size="10.00" fill="grey">mHost</text>
<text text-anchor="middle" x="1008.5" y="-65.51" font-family="Helvetica,sans-Serif" font-size="10.00" fill="grey">mPath</text>
<text text-anchor="middle" x="1008.5" y="-54.51" font-family="Helvetica,sans-Serif" font-size="10.00" fill="grey">mPort</text>
<text text-anchor="middle" x="1008.5" y="-43.51" font-family="Helvetica,sans-Serif" font-size="10.00" fill="grey">mQuery</text>
<text text-anchor="middle" x="1008.5" y="-32.51" font-family="Helvetica,sans-Serif" font-size="10.00" fill="grey">mScheme</text>
<text text-anchor="middle" x="1008.5" y="-21.51" font-family="Helvetica,sans-Serif" font-size="10.00" fill="grey">mUserinfo</text>
</g>
</g>
</svg>
