<?xml version="1.0" encoding="UTF-8" standalone="no"?>
<!DOCTYPE svg PUBLIC "-//W3C//DTD SVG 1.1//EN"
 "http://www.w3.org/Graphics/SVG/1.1/DTD/svg11.dtd">
<!-- Generated by graphviz version 2.43.0 (0)
 -->
<!-- Title: applyGamma_video Pages: 1 -->
<svg width="280pt" height="212pt"
 viewBox="0.00 0.00 280.00 212.00" xmlns="http://www.w3.org/2000/svg" xmlns:xlink="http://www.w3.org/1999/xlink">
<g id="graph0" class="graph" transform="scale(1 1) rotate(0) translate(4 208)">
<title>applyGamma_video</title>
<!-- Node1 -->
<g id="Node000001" class="node">
<title>Node1</title>
<g id="a_Node000001"><a xlink:title="Applies a gamma adjustment to a color channel.">
<polygon fill="#999999" stroke="#666666" points="272,-111 157,-111 157,-92 272,-92 272,-111"/>
<text text-anchor="middle" x="214.5" y="-99" font-family="Helvetica,sans-Serif" font-size="10.00">applyGamma_video</text>
</a>
</g>
</g>
<!-- Node2 -->
<g id="Node000002" class="node">
<title>Node2</title>
<g id="a_Node000002"><a xlink:href="../../da/dd2/group___gamma_funcs_ga39c1068518d7697230930504e57c4d91.html#ga39c1068518d7697230930504e57c4d91" target="_top" xlink:title="Applies a gamma adjustment to a color.">
<polygon fill="white" stroke="#666666" points="118,-204 3,-204 3,-185 118,-185 118,-204"/>
<text text-anchor="middle" x="60.5" y="-192" font-family="Helvetica,sans-Serif" font-size="10.00">applyGamma_video</text>
</a>
</g>
</g>
<!-- Node1&#45;&gt;Node2 -->
<g id="edge1_Node000001_Node000002" class="edge">
<title>Node1&#45;&gt;Node2</title>
<g id="a_edge1_Node000001_Node000002"><a xlink:title=" ">
<path fill="none" stroke="#63b8ff" d="M196.99,-118.28C179.52,-135.17 150.46,-160.88 121,-176.5 114.71,-179.84 107.7,-182.65 100.78,-184.99"/>
<polygon fill="#63b8ff" stroke="#63b8ff" points="199.49,-120.73 204.15,-111.22 194.58,-115.74 199.49,-120.73"/>
</a>
</g>
</g>
<!-- Node3 -->
<g id="Node000003" class="node">
<title>Node3</title>
<g id="a_Node000003"><a xlink:href="../../da/dd2/group___gamma_funcs_ga7e4fabd5c919111e7405790b9463aea4.html#ga7e4fabd5c919111e7405790b9463aea4" target="_top" xlink:title="Applies a gamma adjustment to a color.">
<polygon fill="white" stroke="#666666" points="118,-167 3,-167 3,-148 118,-148 118,-167"/>
<text text-anchor="middle" x="60.5" y="-155" font-family="Helvetica,sans-Serif" font-size="10.00">applyGamma_video</text>
</a>
</g>
</g>
<!-- Node1&#45;&gt;Node3 -->
<g id="edge2_Node000001_Node000003" class="edge">
<title>Node1&#45;&gt;Node3</title>
<g id="a_edge2_Node000001_Node000003"><a xlink:title=" ">
<path fill="none" stroke="#63b8ff" d="M182.35,-115.17C164.54,-122.76 141.7,-132.14 121,-139.5 112.66,-142.47 103.56,-145.38 95.04,-147.97"/>
<polygon fill="#63b8ff" stroke="#63b8ff" points="183.87,-118.33 191.68,-111.16 181.11,-111.9 183.87,-118.33"/>
</a>
</g>
</g>
<!-- Node4 -->
<g id="Node000004" class="node">
<title>Node4</title>
<g id="a_Node000004"><a xlink:href="../../da/dd2/group___gamma_funcs_ga0af2b547872e9a707d5dfa016f30445a.html#ga0af2b547872e9a707d5dfa016f30445a" target="_top" xlink:title="Destructively applies a gamma adjustment to a color.">
<polygon fill="white" stroke="#666666" points="121,-130 0,-130 0,-111 121,-111 121,-130"/>
<text text-anchor="middle" x="60.5" y="-118" font-family="Helvetica,sans-Serif" font-size="10.00">napplyGamma_video</text>
</a>
</g>
</g>
<!-- Node1&#45;&gt;Node4 -->
<g id="edge3_Node000001_Node000004" class="edge">
<title>Node1&#45;&gt;Node4</title>
<g id="a_edge3_Node000001_Node000004"><a xlink:title=" ">
<path fill="none" stroke="#63b8ff" d="M146.94,-109.82C138.38,-110.89 129.65,-111.98 121.2,-113.04"/>
<polygon fill="#63b8ff" stroke="#63b8ff" points="147.41,-113.29 156.9,-108.57 146.54,-106.34 147.41,-113.29"/>
</a>
</g>
</g>
<!-- Node5 -->
<g id="Node000005" class="node">
<title>Node5</title>
<g id="a_Node000005"><a xlink:href="../../da/dd2/group___gamma_funcs_gab78df04338197d73f7cc0e49eb28ead5.html#gab78df04338197d73f7cc0e49eb28ead5" target="_top" xlink:title="Destructively applies a gamma adjustment to a color.">
<polygon fill="white" stroke="#666666" points="121,-93 0,-93 0,-74 121,-74 121,-93"/>
<text text-anchor="middle" x="60.5" y="-81" font-family="Helvetica,sans-Serif" font-size="10.00">napplyGamma_video</text>
</a>
</g>
</g>
<!-- Node1&#45;&gt;Node5 -->
<g id="edge4_Node000001_Node000005" class="edge">
<title>Node1&#45;&gt;Node5</title>
<g id="a_edge4_Node000001_Node000005"><a xlink:title=" ">
<path fill="none" stroke="#63b8ff" d="M146.94,-93.62C138.38,-92.6 129.65,-91.57 121.2,-90.57"/>
<polygon fill="#63b8ff" stroke="#63b8ff" points="146.56,-97.1 156.9,-94.8 147.38,-90.15 146.56,-97.1"/>
</a>
</g>
</g>
<!-- Node6 -->
<g id="Node000006" class="node">
<title>Node6</title>
<g id="a_Node000006"><a xlink:href="../../da/dd2/group___gamma_funcs_ga4e3dbd54679072011f2be08bcd23c337.html#ga4e3dbd54679072011f2be08bcd23c337" target="_top" xlink:title="Destructively applies a gamma adjustment to a color array.">
<polygon fill="white" stroke="#666666" points="121,-56 0,-56 0,-37 121,-37 121,-56"/>
<text text-anchor="middle" x="60.5" y="-44" font-family="Helvetica,sans-Serif" font-size="10.00">napplyGamma_video</text>
</a>
</g>
</g>
<!-- Node1&#45;&gt;Node6 -->
<g id="edge5_Node000001_Node000006" class="edge">
<title>Node1&#45;&gt;Node6</title>
<g id="a_edge5_Node000001_Node000006"><a xlink:title=" ">
<path fill="none" stroke="#63b8ff" d="M180.31,-88.01C162.77,-81.02 140.83,-72.52 121,-65.5 111.9,-62.28 101.94,-59 92.81,-56.1"/>
<polygon fill="#63b8ff" stroke="#63b8ff" points="179.49,-91.45 190.08,-91.92 182.1,-84.95 179.49,-91.45"/>
</a>
</g>
</g>
<!-- Node7 -->
<g id="Node000007" class="node">
<title>Node7</title>
<g id="a_Node000007"><a xlink:href="../../da/dd2/group___gamma_funcs_gac8d8e24305e35eda2e8717c688f36ca4.html#gac8d8e24305e35eda2e8717c688f36ca4" target="_top" xlink:title="Destructively applies a gamma adjustment to a color array.">
<polygon fill="white" stroke="#666666" points="121,-19 0,-19 0,0 121,0 121,-19"/>
<text text-anchor="middle" x="60.5" y="-7" font-family="Helvetica,sans-Serif" font-size="10.00">napplyGamma_video</text>
</a>
</g>
</g>
<!-- Node1&#45;&gt;Node7 -->
<g id="edge6_Node000001_Node000007" class="edge">
<title>Node1&#45;&gt;Node7</title>
<g id="a_edge6_Node000001_Node000007"><a xlink:title=" ">
<path fill="none" stroke="#63b8ff" d="M196.09,-84.57C178.44,-68.23 149.72,-43.77 121,-28.5 114.01,-24.78 106.17,-21.64 98.53,-19.05"/>
<polygon fill="#63b8ff" stroke="#63b8ff" points="194.14,-87.55 203.81,-91.87 198.95,-82.46 194.14,-87.55"/>
</a>
</g>
</g>
</g>
</svg>
