<?xml version="1.0" encoding="UTF-8" standalone="no"?>
<!DOCTYPE svg PUBLIC "-//W3C//DTD SVG 1.1//EN"
 "http://www.w3.org/Graphics/SVG/1.1/DTD/svg11.dtd">
<!-- Generated by graphviz version 2.43.0 (0)
 -->
<!-- Title: fl::audio::Processor::onSilenceStart Pages: 1 -->
<svg width="414pt" height="77pt"
 viewBox="0.00 0.00 414.00 77.00" xmlns="http://www.w3.org/2000/svg" xmlns:xlink="http://www.w3.org/1999/xlink">

<svg id="main" version="1.1" xmlns="http://www.w3.org/2000/svg" xmlns:xlink="http://www.w3.org/1999/xlink" xml:space="preserve">

<style type="text/css"><![CDATA[
.node, .edge {opacity: 0.7;}
.node.selected, .edge.selected {opacity: 1;}
.edge:hover path { stroke: red; }
.edge:hover polygon { stroke: red; fill: red; }
]]></style>
<script type="application/ecmascript" xlink:href="../../svg.min.js"/>
<svg id="graph" class="graph">
<g id="graph0" class="graph" transform="scale(1 1) rotate(0) translate(4 73)">
<title>fl::audio::Processor::onSilenceStart</title>
<!-- Node1 -->
<g id="Node000001" class="node">
<title>Node1</title>
<g id="a_Node000001"><a xlink:title=" ">
<polygon fill="#999999" stroke="#666666" points="109,-51 0,-51 0,-21 109,-21 109,-51"/>
<text text-anchor="start" x="8" y="-39" font-family="Helvetica,sans-Serif" font-size="10.00">fl::audio::Processor</text>
<text text-anchor="middle" x="54.5" y="-28" font-family="Helvetica,sans-Serif" font-size="10.00">::onSilenceStart</text>
</a>
</g>
</g>
<!-- Node1&#45;&gt;Node1 -->
<g id="edge5_Node000001_Node000001" class="edge">
<title>Node1&#45;&gt;Node1</title>
<g id="a_edge5_Node000001_Node000001"><a xlink:title=" ">
<path fill="none" stroke="#63b8ff" d="M28.48,-51.28C22.7,-60.41 31.38,-69 54.5,-69 68.23,-69 76.87,-65.97 80.41,-61.6"/>
<polygon fill="#63b8ff" stroke="#63b8ff" points="83.91,-61.31 80.52,-51.28 76.91,-61.24 83.91,-61.31"/>
</a>
</g>
</g>
<!-- Node2 -->
<g id="Node000002" class="node">
<title>Node2</title>
<g id="a_Node000002"><a xlink:href="../../d3/d6b/classfl_1_1audio_1_1_processor_a6f773a90d5b2570b1acca89939ba0719.html#a6f773a90d5b2570b1acca89939ba0719" target="_top" xlink:title=" ">
<polygon fill="white" stroke="#666666" points="261,-51 145,-51 145,-21 261,-21 261,-51"/>
<text text-anchor="start" x="153" y="-39" font-family="Helvetica,sans-Serif" font-size="10.00">fl::audio::Processor</text>
<text text-anchor="middle" x="203" y="-28" font-family="Helvetica,sans-Serif" font-size="10.00">::getSilenceDetector</text>
</a>
</g>
</g>
<!-- Node1&#45;&gt;Node2 -->
<g id="edge1_Node000001_Node000002" class="edge">
<title>Node1&#45;&gt;Node2</title>
<g id="a_edge1_Node000001_Node000002"><a xlink:title=" ">
<path fill="none" stroke="#63b8ff" d="M109.22,-36C117.46,-36 126.06,-36 134.56,-36"/>
<polygon fill="#63b8ff" stroke="#63b8ff" points="134.84,-39.5 144.84,-36 134.84,-32.5 134.84,-39.5"/>
</a>
</g>
</g>
<!-- Node2&#45;&gt;Node2 -->
<g id="edge2_Node000002_Node000002" class="edge">
<title>Node2&#45;&gt;Node2</title>
<g id="a_edge2_Node000002_Node000002"><a xlink:title=" ">
<path fill="none" stroke="#63b8ff" d="M176.98,-51.28C171.2,-60.41 179.88,-69 203,-69 216.73,-69 225.37,-65.97 228.91,-61.6"/>
<polygon fill="#63b8ff" stroke="#63b8ff" points="232.41,-61.31 229.02,-51.28 225.41,-61.24 232.41,-61.31"/>
</a>
</g>
</g>
<!-- Node3 -->
<g id="Node000003" class="node">
<title>Node3</title>
<g id="a_Node000003"><a xlink:href="../../d4/d36/namespacefl_a87ae8a24cc8b709a64f39370e71846af.html#a87ae8a24cc8b709a64f39370e71846af" target="_top" xlink:title=" ">
<polygon fill="white" stroke="#666666" points="398.5,-67.5 304.5,-67.5 304.5,-48.5 398.5,-48.5 398.5,-67.5"/>
<text text-anchor="middle" x="351.5" y="-55.5" font-family="Helvetica,sans-Serif" font-size="10.00">fl::make_shared</text>
</a>
</g>
</g>
<!-- Node2&#45;&gt;Node3 -->
<g id="edge3_Node000002_Node000003" class="edge">
<title>Node2&#45;&gt;Node3</title>
<g id="a_edge3_Node000002_Node000003"><a xlink:title=" ">
<path fill="none" stroke="#63b8ff" d="M261.06,-44.57C271.9,-46.2 283.23,-47.9 294.05,-49.52"/>
<polygon fill="#63b8ff" stroke="#63b8ff" points="293.82,-53.03 304.23,-51.05 294.86,-46.11 293.82,-53.03"/>
</a>
</g>
</g>
<!-- Node4 -->
<g id="Node000004" class="node">
<title>Node4</title>
<g id="a_Node000004"><a xlink:href="../../d3/d6b/classfl_1_1audio_1_1_processor_ade806d07af52e3d281939cebce7643d5.html#ade806d07af52e3d281939cebce7643d5" target="_top" xlink:title=" ">
<polygon fill="white" stroke="#666666" points="406,-30 297,-30 297,0 406,0 406,-30"/>
<text text-anchor="start" x="305" y="-18" font-family="Helvetica,sans-Serif" font-size="10.00">fl::audio::Processor</text>
<text text-anchor="middle" x="351.5" y="-7" font-family="Helvetica,sans-Serif" font-size="10.00">::registerDetector</text>
</a>
</g>
</g>
<!-- Node2&#45;&gt;Node4 -->
<g id="edge4_Node000002_Node000004" class="edge">
<title>Node2&#45;&gt;Node4</title>
<g id="a_edge4_Node000002_Node000004"><a xlink:title=" ">
<path fill="none" stroke="#63b8ff" d="M261.06,-27.82C269.49,-26.61 278.22,-25.36 286.78,-24.13"/>
<polygon fill="#63b8ff" stroke="#63b8ff" points="287.31,-27.59 296.71,-22.71 286.32,-20.66 287.31,-27.59"/>
</a>
</g>
</g>
</g>
</svg>
</svg>

<style type='text/css'>
<![CDATA[
[data-mouse-over-selected='false'] { opacity: 0.7; }
[data-mouse-over-selected='true']  { opacity: 1.0; }
]]>
</style>
<script type="application/ecmascript"><![CDATA[
document.addEventListener('DOMContentLoaded', (event) => {
  highlightEdges();
  highlightAdjacentNodes();
});
]]></script>
</svg>
