<?xml version="1.0" encoding="UTF-8" standalone="no"?>
<!DOCTYPE svg PUBLIC "-//W3C//DTD SVG 1.1//EN"
 "http://www.w3.org/Graphics/SVG/1.1/DTD/svg11.dtd">
<!-- Generated by graphviz version 2.43.0 (0)
 -->
<!-- Title: fl::audio::Processor::getDownbeatConfidence Pages: 1 -->
<!--zoomable 134 -->

<svg id="main" version="1.1" xmlns="http://www.w3.org/2000/svg" xmlns:xlink="http://www.w3.org/1999/xlink" xml:space="preserve" onload="init(evt)">

<style type="text/css"><![CDATA[
.node, .edge {opacity: 0.7;}
.node.selected, .edge.selected {opacity: 1;}
.edge:hover path { stroke: red; }
.edge:hover polygon { stroke: red; fill: red; }
]]></style>

<defs>
  <circle id="rim" cx="0" cy="0" r="7"/>
  <circle id="rim2" cx="0" cy="0" r="3.5"/>
  <g id="zoomPlus">
    <use xlink:href="#rim" fill="#404040"><set attributeName="fill" to="#808080" begin="zoomplus.mouseover" end="zoomplus.mouseout"/></use>
    <path d="M-4,0h8M0,-4v8" fill="none" stroke="white" stroke-width="1.5" pointer-events="none"/>
  </g>
  <g id="zoomMin">
    <use xlink:href="#rim" fill="#404040"><set attributeName="fill" to="#808080" begin="zoomminus.mouseover" end="zoomminus.mouseout"/></use>
    <path d="M-4,0h8" fill="none" stroke="white" stroke-width="1.5" pointer-events="none"/>
  </g>
  <g id="arrowUp" transform="translate(30 24)">
    <use xlink:href="#rim"/>
    <path pointer-events="none" fill="none" stroke="white" stroke-width="1.5" d="M0,-3.0v7 M-2.5,-0.5L0,-3.0L2.5,-0.5"/>
  </g>
  <g id="arrowRight" transform="rotate(90) translate(36 -43)">
    <use xlink:href="#rim"/>
    <path pointer-events="none" fill="none" stroke="white" stroke-width="1.5" d="M0,-3.0v7 M-2.5,-0.5L0,-3.0L2.5,-0.5"/>
  </g>
  <g id="arrowDown" transform="rotate(180) translate(-30 -48)">
    <use xlink:href="#rim"/>
    <path pointer-events="none" fill="none" stroke="white" stroke-width="1.5" d="M0,-3.0v7 M-2.5,-0.5L0,-3.0L2.5,-0.5"/>
  </g>
  <g id="arrowLeft" transform="rotate(270) translate(-36 17)">
    <use xlink:href="#rim"/>
    <path pointer-events="none" fill="none" stroke="white" stroke-width="1.5" d="M0,-3.0v7 M-2.5,-0.5L0,-3.0L2.5,-0.5"/>
  </g>
  <g id="resetDef">
    <use xlink:href="#rim2" fill="#404040"><set attributeName="fill" to="#808080" begin="reset.mouseover" end="reset.mouseout"/></use>
  </g>
</defs>
<script type="application/ecmascript">
var viewWidth = 606;
var viewHeight = 134;
var sectionId = 'dynsection-0';
</script>
<script type="application/ecmascript" xlink:href="../../svg.min.js"/>
<svg id="graph" class="graph">
<g id="viewport">
<title>fl::audio::Processor::getDownbeatConfidence</title>
<!-- Node1 -->
<g id="Node000001" class="node">
<title>Node1</title>
<g id="a_Node000001"><a xlink:title=" ">
<polygon fill="#999999" stroke="#666666" points="142,-82 0,-82 0,-52 142,-52 142,-82"/>
<text text-anchor="start" x="8" y="-70" font-family="Helvetica,sans-Serif" font-size="10.00">fl::audio::Processor</text>
<text text-anchor="middle" x="71" y="-59" font-family="Helvetica,sans-Serif" font-size="10.00">::getDownbeatConfidence</text>
</a>
</g>
</g>
<!-- Node1&#45;&gt;Node1 -->
<g id="edge3_Node000001_Node000001" class="edge">
<title>Node1&#45;&gt;Node1</title>
<g id="a_edge3_Node000001_Node000001"><a xlink:title=" ">
<path fill="none" stroke="#63b8ff" d="M40.77,-82.28C34.05,-91.41 44.12,-100 71,-100 86.96,-100 96.99,-96.97 101.11,-92.6"/>
<polygon fill="#63b8ff" stroke="#63b8ff" points="104.61,-92.32 101.23,-82.28 97.61,-92.23 104.61,-92.32"/>
</a>
</g>
</g>
<!-- Node2 -->
<g id="Node000002" class="node">
<title>Node2</title>
<g id="a_Node000002"><a xlink:href="../../db/dbf/namespacefl_1_1audio_a1cbdb2338ec760ba92ce43fece0713d2.html#a1cbdb2338ec760ba92ce43fece0713d2" target="_top" xlink:title=" ">
<polygon fill="white" stroke="#666666" points="295,-107.5 191,-107.5 191,-88.5 295,-88.5 295,-107.5"/>
<text text-anchor="middle" x="243" y="-95.5" font-family="Helvetica,sans-Serif" font-size="10.00">fl::audio::clamp01</text>
</a>
</g>
</g>
<!-- Node1&#45;&gt;Node2 -->
<g id="edge1_Node000001_Node000002" class="edge">
<title>Node1&#45;&gt;Node2</title>
<g id="a_edge1_Node000001_Node000002"><a xlink:title=" ">
<path fill="none" stroke="#63b8ff" d="M142.13,-79.79C155.05,-82.14 168.44,-84.59 181.06,-86.89"/>
<polygon fill="#63b8ff" stroke="#63b8ff" points="180.52,-90.35 190.99,-88.7 181.78,-83.46 180.52,-90.35"/>
</a>
</g>
</g>
<!-- Node3 -->
<g id="Node000003" class="node">
<title>Node3</title>
<g id="a_Node000003"><a xlink:href="../../d3/d6b/classfl_1_1audio_1_1_processor_a96d6f7467ad8a83eda659dd743cc7b3a.html#a96d6f7467ad8a83eda659dd743cc7b3a" target="_top" xlink:title=" ">
<polygon fill="white" stroke="#666666" points="308,-52 178,-52 178,-22 308,-22 308,-52"/>
<text text-anchor="start" x="186" y="-40" font-family="Helvetica,sans-Serif" font-size="10.00">fl::audio::Processor</text>
<text text-anchor="middle" x="243" y="-29" font-family="Helvetica,sans-Serif" font-size="10.00">::getDownbeatDetector</text>
</a>
</g>
</g>
<!-- Node1&#45;&gt;Node3 -->
<g id="edge4_Node000001_Node000003" class="edge">
<title>Node1&#45;&gt;Node3</title>
<g id="a_edge4_Node000001_Node000003"><a xlink:title=" ">
<path fill="none" stroke="#63b8ff" d="M142.13,-54.62C150.61,-53.13 159.29,-51.6 167.83,-50.09"/>
<polygon fill="#63b8ff" stroke="#63b8ff" points="168.52,-53.52 177.76,-48.34 167.3,-46.63 168.52,-53.52"/>
</a>
</g>
</g>
<!-- Node2&#45;&gt;Node2 -->
<g id="edge2_Node000002_Node000002" class="edge">
<title>Node2&#45;&gt;Node2</title>
<g id="a_edge2_Node000002_Node000002"><a xlink:title=" ">
<path fill="none" stroke="#63b8ff" d="M219.26,-107.58C207.72,-116.23 215.63,-125.5 243,-125.5 260.96,-125.5 270.54,-121.51 271.75,-116.32"/>
<polygon fill="#63b8ff" stroke="#63b8ff" points="274.75,-114.52 266.74,-107.58 268.67,-118 274.75,-114.52"/>
</a>
</g>
</g>
<!-- Node3&#45;&gt;Node3 -->
<g id="edge9_Node000003_Node000003" class="edge">
<title>Node3&#45;&gt;Node3</title>
<g id="a_edge9_Node000003_Node000003"><a xlink:title=" ">
<path fill="none" stroke="#63b8ff" d="M215.93,-52.28C209.91,-61.41 218.94,-70 243,-70 257.29,-70 266.27,-66.97 269.96,-62.6"/>
<polygon fill="#63b8ff" stroke="#63b8ff" points="273.46,-62.31 270.07,-52.28 266.46,-62.24 273.46,-62.31"/>
</a>
</g>
</g>
<!-- Node4 -->
<g id="Node000004" class="node">
<title>Node4</title>
<g id="a_Node000004"><a xlink:href="../../d3/d6b/classfl_1_1audio_1_1_processor_ac09406be98e613b4f9c26a87538198e2.html#ac09406be98e613b4f9c26a87538198e2" target="_top" xlink:title=" ">
<polygon fill="white" stroke="#666666" points="453,-52 344,-52 344,-22 453,-22 453,-52"/>
<text text-anchor="start" x="352" y="-40" font-family="Helvetica,sans-Serif" font-size="10.00">fl::audio::Processor</text>
<text text-anchor="middle" x="398.5" y="-29" font-family="Helvetica,sans-Serif" font-size="10.00">::getBeatDetector</text>
</a>
</g>
</g>
<!-- Node3&#45;&gt;Node4 -->
<g id="edge5_Node000003_Node000004" class="edge">
<title>Node3&#45;&gt;Node4</title>
<g id="a_edge5_Node000003_Node000004"><a xlink:title=" ">
<path fill="none" stroke="#63b8ff" d="M308.21,-37C316.62,-37 325.24,-37 333.64,-37"/>
<polygon fill="#63b8ff" stroke="#63b8ff" points="333.76,-40.5 343.76,-37 333.76,-33.5 333.76,-40.5"/>
</a>
</g>
</g>
<!-- Node5 -->
<g id="Node000005" class="node">
<title>Node5</title>
<g id="a_Node000005"><a xlink:href="../../d4/d36/namespacefl_a87ae8a24cc8b709a64f39370e71846af.html#a87ae8a24cc8b709a64f39370e71846af" target="_top" xlink:title=" ">
<polygon fill="white" stroke="#666666" points="590.5,-87.5 496.5,-87.5 496.5,-68.5 590.5,-68.5 590.5,-87.5"/>
<text text-anchor="middle" x="543.5" y="-75.5" font-family="Helvetica,sans-Serif" font-size="10.00">fl::make_shared</text>
</a>
</g>
</g>
<!-- Node3&#45;&gt;Node5 -->
<g id="edge10_Node000003_Node000005" class="edge">
<title>Node3&#45;&gt;Node5</title>
<g id="a_edge10_Node000003_Node000005"><a xlink:title=" ">
<path fill="none" stroke="#63b8ff" d="M271.49,-52.06C291.07,-61.89 318.34,-73.83 344,-79 391.24,-88.52 446.09,-87.34 486.15,-84.31"/>
<polygon fill="#63b8ff" stroke="#63b8ff" points="486.58,-87.79 496.26,-83.48 486.01,-80.81 486.58,-87.79"/>
</a>
</g>
</g>
<!-- Node6 -->
<g id="Node000006" class="node">
<title>Node6</title>
<g id="a_Node000006"><a xlink:href="../../d3/d6b/classfl_1_1audio_1_1_processor_ade806d07af52e3d281939cebce7643d5.html#ade806d07af52e3d281939cebce7643d5" target="_top" xlink:title=" ">
<polygon fill="white" stroke="#666666" points="598,-30 489,-30 489,0 598,0 598,-30"/>
<text text-anchor="start" x="497" y="-18" font-family="Helvetica,sans-Serif" font-size="10.00">fl::audio::Processor</text>
<text text-anchor="middle" x="543.5" y="-7" font-family="Helvetica,sans-Serif" font-size="10.00">::registerDetector</text>
</a>
</g>
</g>
<!-- Node3&#45;&gt;Node6 -->
<g id="edge11_Node000003_Node000006" class="edge">
<title>Node3&#45;&gt;Node6</title>
<g id="a_edge11_Node000003_Node000006"><a xlink:title=" ">
<path fill="none" stroke="#63b8ff" d="M296.52,-21.94C311.7,-18.26 328.4,-14.85 344,-13 392.11,-7.31 404.56,-12.46 453,-13 461.27,-13.09 469.96,-13.23 478.55,-13.4"/>
<polygon fill="#63b8ff" stroke="#63b8ff" points="478.48,-16.9 488.55,-13.6 478.62,-9.9 478.48,-16.9"/>
</a>
</g>
</g>
<!-- Node4&#45;&gt;Node4 -->
<g id="edge6_Node000004_Node000004" class="edge">
<title>Node4&#45;&gt;Node4</title>
<g id="a_edge6_Node000004_Node000004"><a xlink:title=" ">
<path fill="none" stroke="#63b8ff" d="M373.19,-52.28C367.56,-61.41 376,-70 398.5,-70 411.86,-70 420.26,-66.97 423.71,-62.6"/>
<polygon fill="#63b8ff" stroke="#63b8ff" points="427.21,-62.31 423.81,-52.28 420.21,-62.24 427.21,-62.31"/>
</a>
</g>
</g>
<!-- Node4&#45;&gt;Node5 -->
<g id="edge7_Node000004_Node000005" class="edge">
<title>Node4&#45;&gt;Node5</title>
<g id="a_edge7_Node000004_Node000005"><a xlink:title=" ">
<path fill="none" stroke="#63b8ff" d="M451.94,-52.03C467.48,-56.49 484.32,-61.32 499.21,-65.59"/>
<polygon fill="#63b8ff" stroke="#63b8ff" points="498.6,-69.05 509.18,-68.45 500.53,-62.32 498.6,-69.05"/>
</a>
</g>
</g>
<!-- Node4&#45;&gt;Node6 -->
<g id="edge8_Node000004_Node000006" class="edge">
<title>Node4&#45;&gt;Node6</title>
<g id="a_edge8_Node000004_Node000006"><a xlink:title=" ">
<path fill="none" stroke="#63b8ff" d="M453.15,-28.75C461.47,-27.47 470.13,-26.13 478.65,-24.82"/>
<polygon fill="#63b8ff" stroke="#63b8ff" points="479.19,-28.28 488.54,-23.3 478.13,-21.36 479.19,-28.28"/>
</a>
</g>
</g>
</g>
</svg>

<g id="navigator" transform="translate(0 0)" fill="#404254">
  <rect fill="#f2f5e9" fill-opacity="0.5" stroke="#606060" stroke-width=".5" x="0" y="0" width="60" height="60"/>
  <use id="zoomplus" xlink:href="#zoomPlus" x="17" y="9" onmousedown="handleZoom(evt,'in')"/>
  <use id="zoomminus" xlink:href="#zoomMin" x="42" y="9" onmousedown="handleZoom(evt,'out')"/>
  <use id="reset" xlink:href="#resetDef" x="30" y="36" onmousedown="handleReset()"/>
   <use id="arrowup" xlink:href="#arrowUp" x="0" y="0" onmousedown="handlePan(0,-1)"/>
  <use id="arrowright" xlink:href="#arrowRight" x="0" y="0" onmousedown="handlePan(1,0)"/>
  <use id="arrowdown" xlink:href="#arrowDown" x="0" y="0" onmousedown="handlePan(0,1)"/>
  <use id="arrowleft" xlink:href="#arrowLeft" x="0" y="0" onmousedown="handlePan(-1,0)"/>
</g>
<svg viewBox="0 0 15 15" width="100%" height="30px" preserveAspectRatio="xMaxYMin meet">
 <g id="arrow_out" transform="scale(0.3 0.3)">
  <a xlink:href="classfl_1_1audio_1_1_processor_a40058554200e2c5984da37c3ff59e18e_a40058554200e2c5984da37c3ff59e18e_cgraph_org.svg" target="_base">
   <rect id="button" ry="5" rx="5" y="6" x="6" height="38" width="38"
        fill="#f2f5e9" fill-opacity="0.5" stroke="#606060" stroke-width="1.0"/>
   <path id="arrow"
     d="M 11.500037,31.436501 C 11.940474,20.09759 22.043105,11.32322 32.158766,21.979434 L 37.068811,17.246167 C 37.068811,17.246167 37.088388,32 37.088388,32 L 22.160133,31.978069 C 22.160133,31.978069 26.997745,27.140456 26.997745,27.140456 C 18.528582,18.264221 13.291696,25.230495 11.500037,31.436501 z"
     style="fill:#404040;"/>
  </a>
 </g>
</svg>

<style type='text/css'>
<![CDATA[
[data-mouse-over-selected='false'] { opacity: 0.7; }
[data-mouse-over-selected='true']  { opacity: 1.0; }
]]>
</style>
<script type="application/ecmascript"><![CDATA[
document.addEventListener('DOMContentLoaded', (event) => {
  highlightEdges();
  highlightAdjacentNodes();
});
]]></script>
</svg>
