<?xml version="1.0" encoding="UTF-8" standalone="no"?>
<!DOCTYPE svg PUBLIC "-//W3C//DTD SVG 1.1//EN"
 "http://www.w3.org/Graphics/SVG/1.1/DTD/svg11.dtd">
<!-- Generated by graphviz version 2.43.0 (0)
 -->
<!-- Title: fl::SingletonShared::instance Pages: 1 -->
<svg width="522pt" height="185pt"
 viewBox="0.00 0.00 522.00 184.50" xmlns="http://www.w3.org/2000/svg" xmlns:xlink="http://www.w3.org/1999/xlink">
<g id="graph0" class="graph" transform="scale(1 1) rotate(0) translate(4 180.5)">
<title>fl::SingletonShared::instance</title>
<!-- Node1 -->
<g id="Node000001" class="node">
<title>Node1</title>
<g id="a_Node000001"><a xlink:title=" ">
<polygon fill="#999999" stroke="#666666" points="108,-78 0,-78 0,-48 108,-48 108,-78"/>
<text text-anchor="start" x="8" y="-66" font-family="Helvetica,sans-Serif" font-size="10.00">fl::SingletonShared</text>
<text text-anchor="middle" x="54" y="-55" font-family="Helvetica,sans-Serif" font-size="10.00">::instance</text>
</a>
</g>
</g>
<!-- Node2 -->
<g id="Node000002" class="node">
<title>Node2</title>
<g id="a_Node000002"><a xlink:href="../../db/d4a/classfl_1_1_singleton_shared_a7892d697818750c1f7611dea073ff66e.html#a7892d697818750c1f7611dea073ff66e" target="_top" xlink:title=" ">
<polygon fill="white" stroke="#666666" points="252,-126 144,-126 144,-96 252,-96 252,-126"/>
<text text-anchor="start" x="152" y="-114" font-family="Helvetica,sans-Serif" font-size="10.00">fl::SingletonShared</text>
<text text-anchor="middle" x="198" y="-103" font-family="Helvetica,sans-Serif" font-size="10.00">::instanceInner</text>
</a>
</g>
</g>
<!-- Node1&#45;&gt;Node2 -->
<g id="edge1_Node000001_Node000002" class="edge">
<title>Node1&#45;&gt;Node2</title>
<g id="a_edge1_Node000001_Node000002"><a xlink:title=" ">
<path fill="none" stroke="#63b8ff" d="M99.54,-78.06C113.29,-82.7 128.58,-87.87 142.89,-92.71"/>
<polygon fill="#63b8ff" stroke="#63b8ff" points="142.02,-96.11 152.62,-96 144.27,-89.48 142.02,-96.11"/>
</a>
</g>
</g>
<!-- Node10 -->
<g id="Node000010" class="node">
<title>Node10</title>
<g id="a_Node000010"><a xlink:href="../../df/d9e/namespacefl_1_1detail_a6bef973c17637a167f1f94d7db03905c.html#a6bef973c17637a167f1f94d7db03905c" target="_top" xlink:title=" ">
<polygon fill="white" stroke="#666666" points="251.5,-78 144.5,-78 144.5,-48 251.5,-48 251.5,-78"/>
<text text-anchor="start" x="152.5" y="-66" font-family="Helvetica,sans-Serif" font-size="10.00">fl::detail::singleton</text>
<text text-anchor="middle" x="198" y="-55" font-family="Helvetica,sans-Serif" font-size="10.00">_registry_get</text>
</a>
</g>
</g>
<!-- Node1&#45;&gt;Node10 -->
<g id="edge9_Node000001_Node000010" class="edge">
<title>Node1&#45;&gt;Node10</title>
<g id="a_edge9_Node000001_Node000010"><a xlink:title=" ">
<path fill="none" stroke="#63b8ff" d="M108.28,-63C116.76,-63 125.61,-63 134.29,-63"/>
<polygon fill="#63b8ff" stroke="#63b8ff" points="134.37,-66.5 144.37,-63 134.37,-59.5 134.37,-66.5"/>
</a>
</g>
</g>
<!-- Node12 -->
<g id="Node000012" class="node">
<title>Node12</title>
<g id="a_Node000012"><a xlink:href="../../df/d9e/namespacefl_1_1detail_af558e779ba2417d4cf14bdb1cbfd3d34.html#af558e779ba2417d4cf14bdb1cbfd3d34" target="_top" xlink:title=" ">
<polygon fill="white" stroke="#666666" points="251.5,-30 144.5,-30 144.5,0 251.5,0 251.5,-30"/>
<text text-anchor="start" x="152.5" y="-18" font-family="Helvetica,sans-Serif" font-size="10.00">fl::detail::singleton</text>
<text text-anchor="middle" x="198" y="-7" font-family="Helvetica,sans-Serif" font-size="10.00">_registry_set</text>
</a>
</g>
</g>
<!-- Node1&#45;&gt;Node12 -->
<g id="edge11_Node000001_Node000012" class="edge">
<title>Node1&#45;&gt;Node12</title>
<g id="a_edge11_Node000001_Node000012"><a xlink:title=" ">
<path fill="none" stroke="#63b8ff" d="M99.54,-47.94C113.29,-43.3 128.58,-38.13 142.89,-33.29"/>
<polygon fill="#63b8ff" stroke="#63b8ff" points="144.27,-36.52 152.62,-30 142.02,-29.89 144.27,-36.52"/>
</a>
</g>
</g>
<!-- Node2&#45;&gt;Node2 -->
<g id="edge8_Node000002_Node000002" class="edge">
<title>Node2&#45;&gt;Node2</title>
<g id="a_edge8_Node000002_Node000002"><a xlink:title=" ">
<path fill="none" stroke="#63b8ff" d="M173.04,-126.28C167.49,-135.41 175.81,-144 198,-144 211.17,-144 219.46,-140.97 222.86,-136.6"/>
<polygon fill="#63b8ff" stroke="#63b8ff" points="226.36,-136.31 222.96,-126.28 219.36,-136.24 226.36,-136.31"/>
</a>
</g>
</g>
<!-- Node3 -->
<g id="Node000003" class="node">
<title>Node3</title>
<g id="a_Node000003"><a xlink:href="../../d4/d36/namespacefl_a1e67c0c24ebcd98fcf8554753d1639a6.html#a1e67c0c24ebcd98fcf8554753d1639a6" target="_top" xlink:title=" ">
<polygon fill="white" stroke="#666666" points="392,-120.5 288,-120.5 288,-101.5 392,-101.5 392,-120.5"/>
<text text-anchor="middle" x="340" y="-108.5" font-family="Helvetica,sans-Serif" font-size="10.00">fl::FL_ALIGN_AS_T</text>
</a>
</g>
</g>
<!-- Node2&#45;&gt;Node3 -->
<g id="edge2_Node000002_Node000003" class="edge">
<title>Node2&#45;&gt;Node3</title>
<g id="a_edge2_Node000002_Node000003"><a xlink:title=" ">
<path fill="none" stroke="#63b8ff" d="M252.33,-111C260.57,-111 269.14,-111 277.54,-111"/>
<polygon fill="#63b8ff" stroke="#63b8ff" points="277.67,-114.5 287.67,-111 277.67,-107.5 277.67,-114.5"/>
</a>
</g>
</g>
<!-- Node3&#45;&gt;Node3 -->
<g id="edge4_Node000003_Node000003" class="edge">
<title>Node3&#45;&gt;Node3</title>
<g id="a_edge4_Node000003_Node000003"><a xlink:title=" ">
<path fill="none" stroke="#63b8ff" d="M319.96,-120.58C310.22,-129.23 316.89,-138.5 340,-138.5 354.8,-138.5 362.86,-134.7 364.18,-129.69"/>
<polygon fill="#63b8ff" stroke="#63b8ff" points="367.36,-128.23 360.04,-120.58 360.99,-131.13 367.36,-128.23"/>
</a>
</g>
</g>
<!-- Node4 -->
<g id="Node000004" class="node">
<title>Node4</title>
<g id="a_Node000004"><a xlink:href="../../d4/d36/namespacefl_ad2b40cc7124494efca5c352857dabc75.html#ad2b40cc7124494efca5c352857dabc75" target="_top" xlink:title=" ">
<polygon fill="#fff0f0" stroke="red" points="514,-176.5 428,-176.5 428,-157.5 514,-157.5 514,-176.5"/>
<text text-anchor="middle" x="471" y="-164.5" font-family="Helvetica,sans-Serif" font-size="10.00">fl::bit_cast_ptr</text>
</a>
</g>
</g>
<!-- Node3&#45;&gt;Node4 -->
<g id="edge3_Node000003_Node000004" class="edge">
<title>Node3&#45;&gt;Node4</title>
<g id="a_edge3_Node000003_Node000004"><a xlink:title=" ">
<path fill="none" stroke="#63b8ff" d="M362.79,-120.57C380.38,-128.28 405.76,-139.38 428,-149 431.23,-150.4 434.6,-151.85 437.96,-153.3"/>
<polygon fill="#63b8ff" stroke="#63b8ff" points="436.75,-156.58 447.32,-157.31 439.51,-150.15 436.75,-156.58"/>
</a>
</g>
</g>
<!-- Node7 -->
<g id="Node000007" class="node">
<title>Node7</title>
<g id="a_Node000007"><a xlink:href="../../da/d3c/namespacefl_1_1fl_a0bddf371925d8c4e94b88e9d7b35d259.html#a0bddf371925d8c4e94b88e9d7b35d259" target="_top" xlink:title=" ">
<polygon fill="white" stroke="#666666" points="510,-139.5 432,-139.5 432,-120.5 510,-120.5 510,-139.5"/>
<text text-anchor="middle" x="471" y="-127.5" font-family="Helvetica,sans-Serif" font-size="10.00">fl::fl::forward</text>
</a>
</g>
</g>
<!-- Node3&#45;&gt;Node7 -->
<g id="edge5_Node000003_Node000007" class="edge">
<title>Node3&#45;&gt;Node7</title>
<g id="a_edge5_Node000003_Node000007"><a xlink:title=" ">
<path fill="none" stroke="#63b8ff" d="M392.35,-118.56C402.06,-119.99 412.17,-121.48 421.77,-122.9"/>
<polygon fill="#63b8ff" stroke="#63b8ff" points="421.54,-126.4 431.94,-124.39 422.56,-119.47 421.54,-126.4"/>
</a>
</g>
</g>
<!-- Node8 -->
<g id="Node000008" class="node">
<title>Node8</title>
<g id="a_Node000008"><a xlink:href="../../d4/d36/namespacefl_ad2bd3fbfa62b8cb135f8c67ce6bfeefe.html#ad2bd3fbfa62b8cb135f8c67ce6bfeefe" target="_top" xlink:title=" ">
<polygon fill="white" stroke="#666666" points="493,-102.5 449,-102.5 449,-83.5 493,-83.5 493,-102.5"/>
<text text-anchor="middle" x="471" y="-90.5" font-family="Helvetica,sans-Serif" font-size="10.00">fl::get</text>
</a>
</g>
</g>
<!-- Node3&#45;&gt;Node8 -->
<g id="edge6_Node000003_Node000008" class="edge">
<title>Node3&#45;&gt;Node8</title>
<g id="a_edge6_Node000003_Node000008"><a xlink:title=" ">
<path fill="none" stroke="#63b8ff" d="M392.35,-103.83C408.03,-101.65 424.79,-99.31 438.71,-97.37"/>
<polygon fill="#63b8ff" stroke="#63b8ff" points="439.32,-100.82 448.74,-95.97 438.35,-93.88 439.32,-100.82"/>
</a>
</g>
</g>
<!-- Node9 -->
<g id="Node000009" class="node">
<title>Node9</title>
<g id="a_Node000009"><a xlink:href="../../da/d3c/namespacefl_1_1fl_a14315b21314f12a4c40dde841fcc4c8a.html#a14315b21314f12a4c40dde841fcc4c8a" target="_top" xlink:title=" ">
<polygon fill="white" stroke="#666666" points="505,-65.5 437,-65.5 437,-46.5 505,-46.5 505,-65.5"/>
<text text-anchor="middle" x="471" y="-53.5" font-family="Helvetica,sans-Serif" font-size="10.00">fl::fl::move</text>
</a>
</g>
</g>
<!-- Node3&#45;&gt;Node9 -->
<g id="edge7_Node000003_Node000009" class="edge">
<title>Node3&#45;&gt;Node9</title>
<g id="a_edge7_Node000003_Node000009"><a xlink:title=" ">
<path fill="none" stroke="#63b8ff" d="M363.47,-101.42C384.06,-92.64 414.77,-79.55 437.94,-69.67"/>
<polygon fill="#63b8ff" stroke="#63b8ff" points="439.53,-72.8 447.35,-65.66 436.78,-66.36 439.53,-72.8"/>
</a>
</g>
</g>
<!-- Node11 -->
<g id="Node000011" class="node">
<title>Node11</title>
<g id="a_Node000011"><a xlink:href="../../d4/d36/namespacefl_ae2e1ae9fd84b84af8b23721d551b9609.html#ae2e1ae9fd84b84af8b23721d551b9609" target="_top" xlink:title=" ">
<polygon fill="white" stroke="#666666" points="371,-48.5 309,-48.5 309,-29.5 371,-29.5 371,-48.5"/>
<text text-anchor="middle" x="340" y="-36.5" font-family="Helvetica,sans-Serif" font-size="10.00">fl::strcmp</text>
</a>
</g>
</g>
<!-- Node10&#45;&gt;Node11 -->
<g id="edge10_Node000010_Node000011" class="edge">
<title>Node10&#45;&gt;Node11</title>
<g id="a_edge10_Node000010_Node000011"><a xlink:title=" ">
<path fill="none" stroke="#63b8ff" d="M251.53,-54C267.14,-51.32 283.98,-48.43 298.69,-45.91"/>
<polygon fill="#63b8ff" stroke="#63b8ff" points="299.7,-49.29 308.97,-44.15 298.52,-42.39 299.7,-49.29"/>
</a>
</g>
</g>
<!-- Node12&#45;&gt;Node11 -->
<g id="edge12_Node000012_Node000011" class="edge">
<title>Node12&#45;&gt;Node11</title>
<g id="a_edge12_Node000012_Node000011"><a xlink:title=" ">
<path fill="none" stroke="#63b8ff" d="M251.53,-24C267.14,-26.68 283.98,-29.57 298.69,-32.09"/>
<polygon fill="#63b8ff" stroke="#63b8ff" points="298.52,-35.61 308.97,-33.85 299.7,-28.71 298.52,-35.61"/>
</a>
</g>
</g>
</g>
</svg>
