<?xml version="1.0" encoding="UTF-8" standalone="no"?>
<!DOCTYPE svg PUBLIC "-//W3C//DTD SVG 1.1//EN"
 "http://www.w3.org/Graphics/SVG/1.1/DTD/svg11.dtd">
<!-- Generated by graphviz version 2.43.0 (0)
 -->
<!-- Title: fl::audio::detector::Backbeat Pages: 1 -->
<!--zoomable 457 -->

<svg id="main" version="1.1" xmlns="http://www.w3.org/2000/svg" xmlns:xlink="http://www.w3.org/1999/xlink" xml:space="preserve" onload="init(evt)">

<style type="text/css"><![CDATA[
.node, .edge {opacity: 0.7;}
.node.selected, .edge.selected {opacity: 1;}
.edge:hover path { stroke: red; }
.edge:hover polygon { stroke: red; fill: red; }
]]></style>

<defs>
  <circle id="rim" cx="0" cy="0" r="7"/>
  <circle id="rim2" cx="0" cy="0" r="3.5"/>
  <g id="zoomPlus">
    <use xlink:href="#rim" fill="#404040"><set attributeName="fill" to="#808080" begin="zoomplus.mouseover" end="zoomplus.mouseout"/></use>
    <path d="M-4,0h8M0,-4v8" fill="none" stroke="white" stroke-width="1.5" pointer-events="none"/>
  </g>
  <g id="zoomMin">
    <use xlink:href="#rim" fill="#404040"><set attributeName="fill" to="#808080" begin="zoomminus.mouseover" end="zoomminus.mouseout"/></use>
    <path d="M-4,0h8" fill="none" stroke="white" stroke-width="1.5" pointer-events="none"/>
  </g>
  <g id="arrowUp" transform="translate(30 24)">
    <use xlink:href="#rim"/>
    <path pointer-events="none" fill="none" stroke="white" stroke-width="1.5" d="M0,-3.0v7 M-2.5,-0.5L0,-3.0L2.5,-0.5"/>
  </g>
  <g id="arrowRight" transform="rotate(90) translate(36 -43)">
    <use xlink:href="#rim"/>
    <path pointer-events="none" fill="none" stroke="white" stroke-width="1.5" d="M0,-3.0v7 M-2.5,-0.5L0,-3.0L2.5,-0.5"/>
  </g>
  <g id="arrowDown" transform="rotate(180) translate(-30 -48)">
    <use xlink:href="#rim"/>
    <path pointer-events="none" fill="none" stroke="white" stroke-width="1.5" d="M0,-3.0v7 M-2.5,-0.5L0,-3.0L2.5,-0.5"/>
  </g>
  <g id="arrowLeft" transform="rotate(270) translate(-36 17)">
    <use xlink:href="#rim"/>
    <path pointer-events="none" fill="none" stroke="white" stroke-width="1.5" d="M0,-3.0v7 M-2.5,-0.5L0,-3.0L2.5,-0.5"/>
  </g>
  <g id="resetDef">
    <use xlink:href="#rim2" fill="#404040"><set attributeName="fill" to="#808080" begin="reset.mouseover" end="reset.mouseout"/></use>
  </g>
</defs>
<script type="application/ecmascript">
var viewWidth = 1967;
var viewHeight = 457;
var sectionId = 'dynsection-1';
</script>
<script type="application/ecmascript" xlink:href="../../svg.min.js"/>
<svg id="graph" class="graph">
<g id="viewport">
<title>fl::audio::detector::Backbeat</title>
<!-- Node1 -->
<g id="Node000001" class="node">
<title>Node1</title>
<g id="a_Node000001"><a xlink:title="Detects backbeats (beats 2 and 4 in 4/4 time) in music.">
<polygon fill="#999999" stroke="#666666" points="1959,-166 1857,-166 1857,-136 1959,-136 1959,-166"/>
<text text-anchor="start" x="1865" y="-154" font-family="Helvetica,sans-Serif" font-size="10.00">fl::audio::detector</text>
<text text-anchor="middle" x="1908" y="-143" font-family="Helvetica,sans-Serif" font-size="10.00">::Backbeat</text>
</a>
</g>
</g>
<!-- Node2 -->
<g id="Node000002" class="node">
<title>Node2</title>
<g id="a_Node000002"><a xlink:href="../../df/d9b/classfl_1_1audio_1_1_detector.html" target="_top" xlink:title=" ">
<polygon fill="white" stroke="#666666" points="606,-141.5 502,-141.5 502,-122.5 606,-122.5 606,-141.5"/>
<text text-anchor="middle" x="554" y="-129.5" font-family="Helvetica,sans-Serif" font-size="10.00">fl::audio::Detector</text>
</a>
</g>
</g>
<!-- Node2&#45;&gt;Node1 -->
<g id="edge1_Node000001_Node000002" class="edge">
<title>Node2&#45;&gt;Node1</title>
<g id="a_edge1_Node000001_Node000002"><a xlink:title=" ">
<path fill="none" stroke="#63b8ff" d="M579.39,-117.5C593.85,-109.76 612.85,-101.01 631,-97 760.76,-68.33 797.11,-96 930,-96 930,-96 930,-96 1635.5,-96 1716.3,-96 1807.97,-119.69 1861.45,-135.97"/>
<polygon fill="#63b8ff" stroke="#63b8ff" points="577.64,-114.47 570.6,-122.39 581.04,-120.59 577.64,-114.47"/>
</a>
</g>
</g>
<!-- Node4 -->
<g id="Node000004" class="node">
<title>Node4</title>
<g id="a_Node000004"><a xlink:href="../../da/d5e/classfl_1_1audio_1_1detector_1_1_beat.html" target="_top" xlink:title=" ">
<polygon fill="white" stroke="#666666" points="863,-169 761,-169 761,-139 863,-139 863,-169"/>
<text text-anchor="start" x="769" y="-157" font-family="Helvetica,sans-Serif" font-size="10.00">fl::audio::detector</text>
<text text-anchor="middle" x="812" y="-146" font-family="Helvetica,sans-Serif" font-size="10.00">::Beat</text>
</a>
</g>
</g>
<!-- Node2&#45;&gt;Node4 -->
<g id="edge4_Node000004_Node000002" class="edge">
<title>Node2&#45;&gt;Node4</title>
<g id="a_edge4_Node000004_Node000002"><a xlink:title=" ">
<path fill="none" stroke="#63b8ff" d="M616.23,-137.26C660.42,-141.06 719.35,-146.12 760.77,-149.68"/>
<polygon fill="#63b8ff" stroke="#63b8ff" points="616.45,-133.77 606.19,-136.4 615.85,-140.74 616.45,-133.77"/>
</a>
</g>
</g>
<!-- Node28 -->
<g id="Node000028" class="node">
<title>Node28</title>
<g id="a_Node000028"><a xlink:href="../../df/d03/classfl_1_1audio_1_1detector_1_1_downbeat.html" target="_top" xlink:title="Detects downbeats (first beat of each measure) in music.">
<polygon fill="white" stroke="#666666" points="1403,-305 1301,-305 1301,-275 1403,-275 1403,-305"/>
<text text-anchor="start" x="1309" y="-293" font-family="Helvetica,sans-Serif" font-size="10.00">fl::audio::detector</text>
<text text-anchor="middle" x="1352" y="-282" font-family="Helvetica,sans-Serif" font-size="10.00">::Downbeat</text>
</a>
</g>
</g>
<!-- Node2&#45;&gt;Node28 -->
<g id="edge15_Node000028_Node000002" class="edge">
<title>Node2&#45;&gt;Node28</title>
<g id="a_edge15_Node000028_Node000002"><a xlink:title=" ">
<path fill="none" stroke="#63b8ff" d="M605.84,-146.02C608.37,-147.52 610.77,-149.17 613,-151 625.61,-161.36 617.48,-173.86 631,-183 691.52,-223.94 1211.62,-253.39 1283,-269 1290.48,-270.64 1298.33,-272.71 1305.93,-274.92"/>
<polygon fill="#63b8ff" stroke="#63b8ff" points="607.4,-142.89 596.89,-141.52 604.25,-149.14 607.4,-142.89"/>
</a>
</g>
</g>
<!-- Node3 -->
<g id="Node000003" class="node">
<title>Node3</title>
<g id="a_Node000003"><a xlink:href="../../d1/d74/classfl_1_1shared__ptr.html" target="_top" xlink:title=" ">
<polygon fill="white" stroke="#666666" points="1135,-169 999,-169 999,-139 1135,-139 1135,-169"/>
<text text-anchor="start" x="1007" y="-157" font-family="Helvetica,sans-Serif" font-size="10.00">fl::shared_ptr&lt; fl</text>
<text text-anchor="middle" x="1067" y="-146" font-family="Helvetica,sans-Serif" font-size="10.00">::audio::detector::Beat &gt;</text>
</a>
</g>
</g>
<!-- Node3&#45;&gt;Node1 -->
<g id="edge2_Node000001_Node000003" class="edge">
<title>Node3&#45;&gt;Node1</title>
<g id="a_edge2_Node000001_Node000003"><a xlink:title=" ">
<path fill="none" stroke="#9a32cd" stroke-dasharray="5,2" d="M1145.34,-153.72C1314.94,-153.12 1715.65,-151.68 1856.76,-151.18"/>
<polygon fill="#9a32cd" stroke="#9a32cd" points="1145.23,-150.22 1135.24,-153.76 1145.25,-157.22 1145.23,-150.22"/>
</a>
</g>
<text text-anchor="middle" x="1478" y="-156" font-family="Helvetica,sans-Serif" font-size="10.00" fill="grey"> mBeatDetector</text>
</g>
<!-- Node3&#45;&gt;Node28 -->
<g id="edge16_Node000028_Node000003" class="edge">
<title>Node3&#45;&gt;Node28</title>
<g id="a_edge16_Node000028_Node000003"><a xlink:title=" ">
<path fill="none" stroke="#9a32cd" stroke-dasharray="5,2" d="M1145.2,-161.99C1202.02,-168.39 1271.32,-177.52 1283,-185 1316.65,-206.55 1337.06,-251.37 1345.87,-274.87"/>
<polygon fill="#9a32cd" stroke="#9a32cd" points="1145.45,-158.49 1135.12,-160.86 1144.67,-165.45 1145.45,-158.49"/>
</a>
</g>
<text text-anchor="middle" x="1218" y="-188" font-family="Helvetica,sans-Serif" font-size="10.00" fill="grey"> mBeatDetector</text>
</g>
<!-- Node4&#45;&gt;Node3 -->
<g id="edge3_Node000003_Node000004" class="edge">
<title>Node4&#45;&gt;Node3</title>
<g id="a_edge3_Node000003_Node000004"><a xlink:title=" ">
<path fill="none" stroke="#9a32cd" stroke-dasharray="5,2" d="M873.6,-154C911.25,-154 959.69,-154 998.55,-154"/>
<polygon fill="#9a32cd" stroke="#9a32cd" points="873.29,-150.5 863.29,-154 873.29,-157.5 873.29,-150.5"/>
</a>
</g>
<text text-anchor="middle" x="931" y="-157" font-family="Helvetica,sans-Serif" font-size="10.00" fill="grey"> mPtr</text>
</g>
<!-- Node5 -->
<g id="Node000005" class="node">
<title>Node5</title>
<g id="a_Node000005"><a xlink:href="../../d2/d24/classfl_1_1vector.html" target="_top" xlink:title=" ">
<polygon fill="#fff0f0" stroke="red" points="606,-86.5 502,-86.5 502,-67.5 606,-67.5 606,-86.5"/>
<text text-anchor="middle" x="554" y="-74.5" font-family="Helvetica,sans-Serif" font-size="10.00">fl::vector&lt; float &gt;</text>
</a>
</g>
</g>
<!-- Node5&#45;&gt;Node1 -->
<g id="edge24_Node000001_Node000005" class="edge">
<title>Node5&#45;&gt;Node1</title>
<g id="a_edge24_Node000001_Node000005"><a xlink:title=" ">
<path fill="none" stroke="#9a32cd" stroke-dasharray="5,2" d="M616.43,-69.87C668.23,-64.48 744.36,-58 811,-58 811,-58 811,-58 1635.5,-58 1728.13,-58 1754.28,-65.56 1839,-103 1857.77,-111.29 1876.64,-125.16 1889.72,-135.86"/>
<polygon fill="#9a32cd" stroke="#9a32cd" points="615.98,-66.4 606.4,-70.94 616.72,-73.36 615.98,-66.4"/>
</a>
</g>
<text text-anchor="middle" x="1218" y="-61" font-family="Helvetica,sans-Serif" font-size="10.00" fill="grey"> mBackbeatSpectralProfile</text>
</g>
<!-- Node5&#45;&gt;Node4 -->
<g id="edge5_Node000004_Node000005" class="edge">
<title>Node5&#45;&gt;Node4</title>
<g id="a_edge5_Node000004_Node000005"><a xlink:title=" ">
<path fill="none" stroke="#9a32cd" stroke-dasharray="5,2" d="M610.19,-88.75C648.01,-97.36 699.07,-110.12 743,-125 754.79,-128.99 767.41,-134.12 778.54,-138.96"/>
<polygon fill="#9a32cd" stroke="#9a32cd" points="610.91,-85.32 600.39,-86.54 609.37,-92.15 610.91,-85.32"/>
</a>
</g>
<text text-anchor="middle" x="687" y="-128" font-family="Helvetica,sans-Serif" font-size="10.00" fill="grey"> mPreviousMagnitudes</text>
</g>
<!-- Node10 -->
<g id="Node000010" class="node">
<title>Node10</title>
<g id="a_Node000010"><a xlink:href="../../d9/db0/classfl_1_1_moving_average.html" target="_top" xlink:title=" ">
<polygon fill="#fff0f0" stroke="red" points="610.5,-190 497.5,-190 497.5,-160 610.5,-160 610.5,-190"/>
<text text-anchor="start" x="505.5" y="-178" font-family="Helvetica,sans-Serif" font-size="10.00">fl::MovingAverage&lt;</text>
<text text-anchor="middle" x="554" y="-167" font-family="Helvetica,sans-Serif" font-size="10.00"> float, 43 &gt;</text>
</a>
</g>
</g>
<!-- Node10&#45;&gt;Node4 -->
<g id="edge6_Node000004_Node000010" class="edge">
<title>Node10&#45;&gt;Node4</title>
<g id="a_edge6_Node000004_Node000010"><a xlink:title=" ">
<path fill="none" stroke="#9a32cd" stroke-dasharray="5,2" d="M620.78,-169.6C664.39,-166.03 720.75,-161.4 760.77,-158.12"/>
<polygon fill="#9a32cd" stroke="#9a32cd" points="620.23,-166.14 610.55,-170.44 620.8,-173.11 620.23,-166.14"/>
</a>
</g>
<text text-anchor="middle" x="687" y="-171" font-family="Helvetica,sans-Serif" font-size="10.00" fill="grey"> mFluxAvg</text>
</g>
<!-- Node21 -->
<g id="Node000021" class="node">
<title>Node21</title>
<g id="a_Node000021"><a xlink:href="../../d1/d74/classfl_1_1shared__ptr.html" target="_top" xlink:title=" ">
<polygon fill="#fff0f0" stroke="red" points="613,-275 495,-275 495,-245 613,-245 613,-275"/>
<text text-anchor="start" x="503" y="-263" font-family="Helvetica,sans-Serif" font-size="10.00">fl::shared_ptr&lt; const</text>
<text text-anchor="middle" x="554" y="-252" font-family="Helvetica,sans-Serif" font-size="10.00"> fl::audio::fft::Bins &gt;</text>
</a>
</g>
</g>
<!-- Node21&#45;&gt;Node1 -->
<g id="edge25_Node000001_Node000021" class="edge">
<title>Node21&#45;&gt;Node1</title>
<g id="a_edge25_Node000001_Node000021"><a xlink:title=" ">
<path fill="none" stroke="#9a32cd" stroke-dasharray="5,2" d="M623.48,-258.45C815.95,-253.37 1377.79,-233.39 1839,-166 1844.74,-165.16 1850.72,-164.11 1856.65,-162.95"/>
<polygon fill="#9a32cd" stroke="#9a32cd" points="623.14,-254.96 613.23,-258.72 623.32,-261.96 623.14,-254.96"/>
</a>
</g>
<text text-anchor="middle" x="1218" y="-236" font-family="Helvetica,sans-Serif" font-size="10.00" fill="grey"> mRetainedFFT</text>
</g>
<!-- Node21&#45;&gt;Node4 -->
<g id="edge7_Node000004_Node000021" class="edge">
<title>Node21&#45;&gt;Node4</title>
<g id="a_edge7_Node000004_Node000021"><a xlink:title=" ">
<path fill="none" stroke="#9a32cd" stroke-dasharray="5,2" d="M601.46,-241.19C639.56,-225.71 694.85,-203.13 743,-183 753.66,-178.55 765.23,-173.64 775.75,-169.15"/>
<polygon fill="#9a32cd" stroke="#9a32cd" points="600.11,-237.96 592.16,-244.96 602.75,-244.44 600.11,-237.96"/>
</a>
</g>
<text text-anchor="middle" x="687" y="-232" font-family="Helvetica,sans-Serif" font-size="10.00" fill="grey"> mRetainedFFT</text>
</g>
<!-- Node21&#45;&gt;Node28 -->
<g id="edge19_Node000028_Node000021" class="edge">
<title>Node21&#45;&gt;Node28</title>
<g id="a_edge19_Node000028_Node000021"><a xlink:title=" ">
<path fill="none" stroke="#9a32cd" stroke-dasharray="5,2" d="M623.38,-273C625.95,-273.36 628.49,-273.7 631,-274 853.58,-301.05 910.81,-299.11 1135,-296 1191.83,-295.21 1257.04,-293.25 1300.82,-291.79"/>
<polygon fill="#9a32cd" stroke="#9a32cd" points="623.8,-269.52 613.39,-271.5 622.76,-276.45 623.8,-269.52"/>
</a>
</g>
<text text-anchor="middle" x="931" y="-300" font-family="Helvetica,sans-Serif" font-size="10.00" fill="grey"> mRetainedFFT</text>
</g>
<!-- Node23 -->
<g id="Node000023" class="node">
<title>Node23</title>
<g id="a_Node000023"><a xlink:href="../../d4/dc0/structfl_1_1detail_1_1_control_block_base.html" target="_top" xlink:title=" ">
<polygon fill="#fff0f0" stroke="red" points="149,-295.5 0,-295.5 0,-276.5 149,-276.5 149,-295.5"/>
<text text-anchor="middle" x="74.5" y="-283.5" font-family="Helvetica,sans-Serif" font-size="10.00">fl::detail::ControlBlockBase</text>
</a>
</g>
</g>
<!-- Node23&#45;&gt;Node3 -->
<g id="edge11_Node000003_Node000023" class="edge">
<title>Node23&#45;&gt;Node3</title>
<g id="a_edge11_Node000003_Node000023"><a xlink:title=" ">
<path fill="none" stroke="#9a32cd" stroke-dasharray="5,2" d="M82.06,-266.59C104.13,-205.31 181.85,-20 314.5,-20 314.5,-20 314.5,-20 813,-20 913.65,-20 1013.37,-103.84 1050.66,-138.89"/>
<polygon fill="#9a32cd" stroke="#9a32cd" points="78.69,-265.62 78.69,-276.22 85.3,-267.94 78.69,-265.62"/>
</a>
</g>
<text text-anchor="middle" x="554" y="-23" font-family="Helvetica,sans-Serif" font-size="10.00" fill="grey"> mControlBlock</text>
</g>
<!-- Node23&#45;&gt;Node21 -->
<g id="edge8_Node000021_Node000023" class="edge">
<title>Node23&#45;&gt;Node21</title>
<g id="a_edge8_Node000021_Node000023"><a xlink:title=" ">
<path fill="none" stroke="#9a32cd" stroke-dasharray="5,2" d="M159.28,-279.53C222.17,-274.88 310.44,-268.78 388,-265 423.5,-263.27 463.32,-262.04 494.95,-261.24"/>
<polygon fill="#9a32cd" stroke="#9a32cd" points="158.73,-276.06 149.01,-280.29 159.25,-283.04 158.73,-276.06"/>
</a>
</g>
<text text-anchor="middle" x="315.5" y="-275" font-family="Helvetica,sans-Serif" font-size="10.00" fill="grey"> mControlBlock</text>
</g>
<!-- Node26 -->
<g id="Node000026" class="node">
<title>Node26</title>
<g id="a_Node000026"><a xlink:href="../../d1/d74/classfl_1_1shared__ptr.html" target="_top" xlink:title=" ">
<polygon fill="white" stroke="#666666" points="370,-321.5 261,-321.5 261,-302.5 370,-302.5 370,-321.5"/>
<text text-anchor="middle" x="315.5" y="-309.5" font-family="Helvetica,sans-Serif" font-size="10.00">fl::shared_ptr&lt; T &gt;</text>
</a>
</g>
</g>
<!-- Node23&#45;&gt;Node26 -->
<g id="edge10_Node000026_Node000023" class="edge">
<title>Node23&#45;&gt;Node26</title>
<g id="a_edge10_Node000026_Node000023"><a xlink:title=" ">
<path fill="none" stroke="#9a32cd" stroke-dasharray="5,2" d="M159.46,-295.13C193.14,-298.8 230.96,-302.91 260.81,-306.16"/>
<polygon fill="#9a32cd" stroke="#9a32cd" points="159.48,-291.62 149.16,-294.01 158.72,-298.57 159.48,-291.62"/>
</a>
</g>
<text text-anchor="middle" x="205" y="-306" font-family="Helvetica,sans-Serif" font-size="10.00" fill="grey"> mControlBlock</text>
</g>
<!-- Node27 -->
<g id="Node000027" class="node">
<title>Node27</title>
<g id="a_Node000027"><a xlink:href="../../d1/d74/classfl_1_1shared__ptr.html" target="_top" xlink:title=" ">
<polygon fill="white" stroke="#666666" points="1716,-349 1553,-349 1553,-319 1716,-319 1716,-349"/>
<text text-anchor="start" x="1561" y="-337" font-family="Helvetica,sans-Serif" font-size="10.00">fl::shared_ptr&lt; fl</text>
<text text-anchor="middle" x="1634.5" y="-326" font-family="Helvetica,sans-Serif" font-size="10.00">::audio::detector::Downbeat &gt;</text>
</a>
</g>
</g>
<!-- Node23&#45;&gt;Node27 -->
<g id="edge20_Node000027_Node000023" class="edge">
<title>Node23&#45;&gt;Node27</title>
<g id="a_edge20_Node000027_Node000023"><a xlink:title=" ">
<path fill="none" stroke="#9a32cd" stroke-dasharray="5,2" d="M89.57,-303.34C123.64,-343.21 215.09,-438 314.5,-438 314.5,-438 314.5,-438 1068,-438 1277.87,-438 1342.1,-450.68 1535,-368 1544.32,-364.01 1543.88,-358.43 1553,-354 1556.63,-352.24 1560.42,-350.62 1564.31,-349.14"/>
<polygon fill="#9a32cd" stroke="#9a32cd" points="92.12,-300.93 83.02,-295.51 86.75,-305.42 92.12,-300.93"/>
</a>
</g>
<text text-anchor="middle" x="812" y="-441" font-family="Helvetica,sans-Serif" font-size="10.00" fill="grey"> mControlBlock</text>
</g>
<!-- Node26&#45;&gt;Node3 -->
<g id="edge12_Node000003_Node000026" class="edge">
<title>Node26&#45;&gt;Node3</title>
<g id="a_edge12_Node000003_Node000026"><a xlink:title=" ">
<path fill="none" stroke="orange" stroke-dasharray="5,2" d="M380.29,-312.01C409.78,-311.5 445.24,-310.17 477,-307 688.57,-285.91 931.5,-203.43 1025.73,-169.11"/>
<polygon fill="orange" stroke="orange" points="380.07,-308.51 370.12,-312.15 380.17,-315.51 380.07,-308.51"/>
</a>
</g>
<text text-anchor="start" x="637" y="-296" font-family="Helvetica,sans-Serif" font-size="10.00" fill="grey"> &lt; fl::audio::detector</text>
<text text-anchor="middle" x="687" y="-285" font-family="Helvetica,sans-Serif" font-size="10.00" fill="grey">::Beat &gt;</text>
</g>
<!-- Node26&#45;&gt;Node21 -->
<g id="edge9_Node000021_Node000026" class="edge">
<title>Node26&#45;&gt;Node21</title>
<g id="a_edge9_Node000021_Node000026"><a xlink:title=" ">
<path fill="none" stroke="orange" stroke-dasharray="5,2" d="M347.73,-298.57C360.09,-293.69 374.53,-288.52 388,-285 422.9,-275.88 462.88,-269.71 494.74,-265.79"/>
<polygon fill="orange" stroke="orange" points="346.28,-295.38 338.33,-302.38 348.91,-301.87 346.28,-295.38"/>
</a>
</g>
<text text-anchor="start" x="388" y="-299" font-family="Helvetica,sans-Serif" font-size="10.00" fill="grey"> &lt; const fl::audio::</text>
<text text-anchor="middle" x="432.5" y="-288" font-family="Helvetica,sans-Serif" font-size="10.00" fill="grey">fft::Bins &gt;</text>
</g>
<!-- Node26&#45;&gt;Node27 -->
<g id="edge21_Node000027_Node000026" class="edge">
<title>Node26&#45;&gt;Node27</title>
<g id="a_edge21_Node000027_Node000026"><a xlink:title=" ">
<path fill="none" stroke="orange" stroke-dasharray="5,2" d="M352.95,-324.65C398.98,-339.46 480.86,-362 553,-362 553,-362 553,-362 1353,-362 1420.54,-362 1496.77,-353.86 1552.7,-346.36"/>
<polygon fill="orange" stroke="orange" points="354.01,-321.31 343.42,-321.52 351.83,-327.96 354.01,-321.31"/>
</a>
</g>
<text text-anchor="start" x="881" y="-376" font-family="Helvetica,sans-Serif" font-size="10.00" fill="grey"> &lt; fl::audio::detector</text>
<text text-anchor="middle" x="931" y="-365" font-family="Helvetica,sans-Serif" font-size="10.00" fill="grey">::Downbeat &gt;</text>
</g>
<!-- Node27&#45;&gt;Node1 -->
<g id="edge13_Node000001_Node000027" class="edge">
<title>Node27&#45;&gt;Node1</title>
<g id="a_edge13_Node000001_Node000027"><a xlink:title=" ">
<path fill="none" stroke="#9a32cd" stroke-dasharray="5,2" d="M1686.82,-315.13C1730.11,-297.68 1792.29,-268.89 1839,-232 1863.35,-212.77 1885.19,-183.63 1897.21,-166.04"/>
<polygon fill="#9a32cd" stroke="#9a32cd" points="1685.34,-311.95 1677.34,-318.89 1687.93,-318.46 1685.34,-311.95"/>
</a>
</g>
<text text-anchor="middle" x="1786.5" y="-295" font-family="Helvetica,sans-Serif" font-size="10.00" fill="grey"> mDownbeatDetector</text>
</g>
<!-- Node28&#45;&gt;Node27 -->
<g id="edge14_Node000027_Node000028" class="edge">
<title>Node28&#45;&gt;Node27</title>
<g id="a_edge14_Node000027_Node000028"><a xlink:title=" ">
<path fill="none" stroke="#9a32cd" stroke-dasharray="5,2" d="M1413.2,-299.44C1453.94,-305.83 1508.24,-314.35 1552.73,-321.33"/>
<polygon fill="#9a32cd" stroke="#9a32cd" points="1413.57,-295.96 1403.15,-297.87 1412.48,-302.87 1413.57,-295.96"/>
</a>
</g>
<text text-anchor="middle" x="1478" y="-321" font-family="Helvetica,sans-Serif" font-size="10.00" fill="grey"> mPtr</text>
</g>
<!-- Node29 -->
<g id="Node000029" class="node">
<title>Node29</title>
<g id="a_Node000029"><a xlink:href="../../dc/dfe/classfl_1_1deque.html" target="_top" xlink:title=" ">
<polygon fill="#fff0f0" stroke="red" points="1118.5,-409.5 1015.5,-409.5 1015.5,-390.5 1118.5,-390.5 1118.5,-409.5"/>
<text text-anchor="middle" x="1067" y="-397.5" font-family="Helvetica,sans-Serif" font-size="10.00">fl::deque&lt; float &gt;</text>
</a>
</g>
</g>
<!-- Node29&#45;&gt;Node1 -->
<g id="edge23_Node000001_Node000029" class="edge">
<title>Node29&#45;&gt;Node1</title>
<g id="a_edge23_Node000001_Node000029"><a xlink:title=" ">
<path fill="none" stroke="#9a32cd" stroke-dasharray="5,2" d="M1128.65,-403.27C1244.68,-407.97 1505.32,-410.92 1716,-358 1773.4,-343.58 1796.78,-348.47 1839,-307 1880.31,-266.42 1898.23,-196.54 1904.35,-166"/>
<polygon fill="#9a32cd" stroke="#9a32cd" points="1128.68,-399.77 1118.54,-402.85 1128.38,-406.77 1128.68,-399.77"/>
</a>
</g>
<text text-anchor="middle" x="1478" y="-413" font-family="Helvetica,sans-Serif" font-size="10.00" fill="grey"> mBackbeatAccents</text>
<text text-anchor="middle" x="1478" y="-402" font-family="Helvetica,sans-Serif" font-size="10.00" fill="grey">mNonBackbeatAccents</text>
</g>
<!-- Node29&#45;&gt;Node28 -->
<g id="edge17_Node000028_Node000029" class="edge">
<title>Node29&#45;&gt;Node28</title>
<g id="a_edge17_Node000028_Node000029"><a xlink:title=" ">
<path fill="none" stroke="#9a32cd" stroke-dasharray="5,2" d="M1102.21,-386.7C1155.08,-366.15 1256.31,-326.81 1311.96,-305.18"/>
<polygon fill="#9a32cd" stroke="#9a32cd" points="1100.67,-383.55 1092.62,-390.43 1103.21,-390.07 1100.67,-383.55"/>
</a>
</g>
<text text-anchor="middle" x="1218" y="-367" font-family="Helvetica,sans-Serif" font-size="10.00" fill="grey"> mBeatAccents</text>
</g>
<!-- Node31 -->
<g id="Node000031" class="node">
<title>Node31</title>
<g id="a_Node000031"><a xlink:href="../../dc/dfe/classfl_1_1deque.html" target="_top" xlink:title=" ">
<polygon fill="#fff0f0" stroke="red" points="1113.5,-286.5 1020.5,-286.5 1020.5,-267.5 1113.5,-267.5 1113.5,-286.5"/>
<text text-anchor="middle" x="1067" y="-274.5" font-family="Helvetica,sans-Serif" font-size="10.00">fl::deque&lt; u8 &gt;</text>
</a>
</g>
</g>
<!-- Node31&#45;&gt;Node28 -->
<g id="edge18_Node000028_Node000031" class="edge">
<title>Node31&#45;&gt;Node28</title>
<g id="a_edge18_Node000028_Node000031"><a xlink:title=" ">
<path fill="none" stroke="#9a32cd" stroke-dasharray="5,2" d="M1123.91,-274.66C1167.38,-273.48 1229.14,-273.16 1283,-278 1288.85,-278.53 1294.95,-279.29 1301,-280.18"/>
<polygon fill="#9a32cd" stroke="#9a32cd" points="1123.71,-271.17 1113.82,-274.97 1123.92,-278.17 1123.71,-271.17"/>
</a>
</g>
<text text-anchor="middle" x="1218" y="-281" font-family="Helvetica,sans-Serif" font-size="10.00" fill="grey"> mMeterCandidates</text>
</g>
<!-- Node32 -->
<g id="Node000032" class="node">
<title>Node32</title>
<g id="a_Node000032"><a xlink:href="../../dd/d12/namespacefl_1_1audio_1_1detector.html#d5/da9/structfl_1_1audio_1_1detector_1_1_multiband_accent" target="_top" xlink:title="Multi&#45;band accent information for backbeat detection.">
<polygon fill="white" stroke="#666666" points="1686.5,-30 1582.5,-30 1582.5,0 1686.5,0 1686.5,-30"/>
<text text-anchor="start" x="1590.5" y="-18" font-family="Helvetica,sans-Serif" font-size="10.00">fl::audio::detector</text>
<text text-anchor="middle" x="1634.5" y="-7" font-family="Helvetica,sans-Serif" font-size="10.00">::MultibandAccent</text>
</a>
</g>
</g>
<!-- Node32&#45;&gt;Node1 -->
<g id="edge22_Node000001_Node000032" class="edge">
<title>Node32&#45;&gt;Node1</title>
<g id="a_edge22_Node000001_Node000032"><a xlink:title=" ">
<path fill="none" stroke="#9a32cd" stroke-dasharray="5,2" d="M1696.97,-6.3C1740,-3.39 1797.07,-6.23 1839,-33 1876.67,-57.04 1895.78,-109.9 1903.21,-135.92"/>
<polygon fill="#9a32cd" stroke="#9a32cd" points="1696.59,-2.82 1686.9,-7.1 1697.15,-9.79 1696.59,-2.82"/>
</a>
</g>
<text text-anchor="middle" x="1786.5" y="-36" font-family="Helvetica,sans-Serif" font-size="10.00" fill="grey"> mPreviousAccent</text>
</g>
</g>
</svg>

<g id="navigator" transform="translate(0 0)" fill="#404254">
  <rect fill="#f2f5e9" fill-opacity="0.5" stroke="#606060" stroke-width=".5" x="0" y="0" width="60" height="60"/>
  <use id="zoomplus" xlink:href="#zoomPlus" x="17" y="9" onmousedown="handleZoom(evt,'in')"/>
  <use id="zoomminus" xlink:href="#zoomMin" x="42" y="9" onmousedown="handleZoom(evt,'out')"/>
  <use id="reset" xlink:href="#resetDef" x="30" y="36" onmousedown="handleReset()"/>
   <use id="arrowup" xlink:href="#arrowUp" x="0" y="0" onmousedown="handlePan(0,-1)"/>
  <use id="arrowright" xlink:href="#arrowRight" x="0" y="0" onmousedown="handlePan(1,0)"/>
  <use id="arrowdown" xlink:href="#arrowDown" x="0" y="0" onmousedown="handlePan(0,1)"/>
  <use id="arrowleft" xlink:href="#arrowLeft" x="0" y="0" onmousedown="handlePan(-1,0)"/>
</g>
<svg viewBox="0 0 15 15" width="100%" height="30px" preserveAspectRatio="xMaxYMin meet">
 <g id="arrow_out" transform="scale(0.3 0.3)">
  <a xlink:href="classfl_1_1audio_1_1detector_1_1_backbeat__coll__graph_org.svg" target="_base">
   <rect id="button" ry="5" rx="5" y="6" x="6" height="38" width="38"
        fill="#f2f5e9" fill-opacity="0.5" stroke="#606060" stroke-width="1.0"/>
   <path id="arrow"
     d="M 11.500037,31.436501 C 11.940474,20.09759 22.043105,11.32322 32.158766,21.979434 L 37.068811,17.246167 C 37.068811,17.246167 37.088388,32 37.088388,32 L 22.160133,31.978069 C 22.160133,31.978069 26.997745,27.140456 26.997745,27.140456 C 18.528582,18.264221 13.291696,25.230495 11.500037,31.436501 z"
     style="fill:#404040;"/>
  </a>
 </g>
</svg>

<style type='text/css'>
<![CDATA[
[data-mouse-over-selected='false'] { opacity: 0.7; }
[data-mouse-over-selected='true']  { opacity: 1.0; }
]]>
</style>
<script type="application/ecmascript"><![CDATA[
document.addEventListener('DOMContentLoaded', (event) => {
  highlightEdges();
  highlightAdjacentNodes();
});
]]></script>
</svg>
