<?xml version="1.0" encoding="UTF-8" standalone="no"?>
<!DOCTYPE svg PUBLIC "-//W3C//DTD SVG 1.1//EN"
 "http://www.w3.org/Graphics/SVG/1.1/DTD/svg11.dtd">
<!-- Generated by graphviz version 2.43.0 (0)
 -->
<!-- Title: /home/runner/work/FastLED/FastLED/examples/Fx/Particles1d/Particles1d.ino Pages: 1 -->
<!--zoomable 324 -->

<svg id="main" version="1.1" xmlns="http://www.w3.org/2000/svg" xmlns:xlink="http://www.w3.org/1999/xlink" xml:space="preserve" onload="init(evt)">

<style type="text/css"><![CDATA[
.node, .edge {opacity: 0.7;}
.node.selected, .edge.selected {opacity: 1;}
.edge:hover path { stroke: red; }
.edge:hover polygon { stroke: red; fill: red; }
]]></style>

<defs>
  <circle id="rim" cx="0" cy="0" r="7"/>
  <circle id="rim2" cx="0" cy="0" r="3.5"/>
  <g id="zoomPlus">
    <use xlink:href="#rim" fill="#404040"><set attributeName="fill" to="#808080" begin="zoomplus.mouseover" end="zoomplus.mouseout"/></use>
    <path d="M-4,0h8M0,-4v8" fill="none" stroke="white" stroke-width="1.5" pointer-events="none"/>
  </g>
  <g id="zoomMin">
    <use xlink:href="#rim" fill="#404040"><set attributeName="fill" to="#808080" begin="zoomminus.mouseover" end="zoomminus.mouseout"/></use>
    <path d="M-4,0h8" fill="none" stroke="white" stroke-width="1.5" pointer-events="none"/>
  </g>
  <g id="arrowUp" transform="translate(30 24)">
    <use xlink:href="#rim"/>
    <path pointer-events="none" fill="none" stroke="white" stroke-width="1.5" d="M0,-3.0v7 M-2.5,-0.5L0,-3.0L2.5,-0.5"/>
  </g>
  <g id="arrowRight" transform="rotate(90) translate(36 -43)">
    <use xlink:href="#rim"/>
    <path pointer-events="none" fill="none" stroke="white" stroke-width="1.5" d="M0,-3.0v7 M-2.5,-0.5L0,-3.0L2.5,-0.5"/>
  </g>
  <g id="arrowDown" transform="rotate(180) translate(-30 -48)">
    <use xlink:href="#rim"/>
    <path pointer-events="none" fill="none" stroke="white" stroke-width="1.5" d="M0,-3.0v7 M-2.5,-0.5L0,-3.0L2.5,-0.5"/>
  </g>
  <g id="arrowLeft" transform="rotate(270) translate(-36 17)">
    <use xlink:href="#rim"/>
    <path pointer-events="none" fill="none" stroke="white" stroke-width="1.5" d="M0,-3.0v7 M-2.5,-0.5L0,-3.0L2.5,-0.5"/>
  </g>
  <g id="resetDef">
    <use xlink:href="#rim2" fill="#404040"><set attributeName="fill" to="#808080" begin="reset.mouseover" end="reset.mouseout"/></use>
  </g>
</defs>
<script type="application/ecmascript">
var viewWidth = 1383;
var viewHeight = 324;
var sectionId = 'dynsection-0';
</script>
<script type="application/ecmascript" xlink:href="../../svg.min.js"/>
<svg id="graph" class="graph">
<g id="viewport">
<title>/home/runner/work/FastLED/FastLED/examples/Fx/Particles1d/Particles1d.ino</title>
<!-- Node1 -->
<g id="Node000001" class="node">
<title>Node1</title>
<g id="a_Node000001"><a xlink:title=" ">
<polygon fill="#999999" stroke="#666666" points="655,-316 475,-316 475,-275 655,-275 655,-316"/>
<text text-anchor="start" x="483" y="-304" font-family="Helvetica,sans-Serif" font-size="10.00">/home/runner/work/FastLED</text>
<text text-anchor="start" x="483" y="-293" font-family="Helvetica,sans-Serif" font-size="10.00">/FastLED/examples/Fx/Particles1d</text>
<text text-anchor="middle" x="565" y="-282" font-family="Helvetica,sans-Serif" font-size="10.00">/Particles1d.ino</text>
</a>
</g>
</g>
<!-- Node2 -->
<g id="Node000002" class="node">
<title>Node2</title>
<g id="a_Node000002"><a xlink:title=" ">
<polygon fill="#e0e0e0" stroke="#999999" points="558,-184 494,-184 494,-165 558,-165 558,-184"/>
<text text-anchor="middle" x="526" y="-172" font-family="Helvetica,sans-Serif" font-size="10.00">FastLED.h</text>
</a>
</g>
</g>
<!-- Node1&#45;&gt;Node2 -->
<g id="edge1_Node000001_Node000002" class="edge">
<title>Node1&#45;&gt;Node2</title>
<g id="a_edge1_Node000001_Node000002"><a xlink:title=" ">
<path fill="none" stroke="#63b8ff" d="M558.56,-274.85C551.19,-252.37 539.23,-215.86 532.03,-193.91"/>
<polygon fill="#63b8ff" stroke="#63b8ff" points="535.28,-192.59 528.84,-184.18 528.63,-194.77 535.28,-192.59"/>
</a>
</g>
</g>
<!-- Node3 -->
<g id="Node000003" class="node">
<title>Node3</title>
<g id="a_Node000003"><a xlink:href="../../d1/d4e/_particles1d_8h.html" target="_top" xlink:title=" ">
<polygon fill="white" stroke="#666666" points="646.5,-239 561.5,-239 561.5,-220 646.5,-220 646.5,-239"/>
<text text-anchor="middle" x="604" y="-227" font-family="Helvetica,sans-Serif" font-size="10.00">./Particles1d.h</text>
</a>
</g>
</g>
<!-- Node1&#45;&gt;Node3 -->
<g id="edge2_Node000001_Node000003" class="edge">
<title>Node1&#45;&gt;Node3</title>
<g id="a_edge2_Node000001_Node000003"><a xlink:title=" ">
<path fill="none" stroke="#63b8ff" d="M576.91,-274.95C582.19,-266.3 588.34,-256.2 593.44,-247.82"/>
<polygon fill="#63b8ff" stroke="#63b8ff" points="596.45,-249.62 598.66,-239.26 590.47,-245.98 596.45,-249.62"/>
</a>
</g>
</g>
<!-- Node3&#45;&gt;Node2 -->
<g id="edge3_Node000003_Node000002" class="edge">
<title>Node3&#45;&gt;Node2</title>
<g id="a_edge3_Node000003_Node000002"><a xlink:title=" ">
<path fill="none" stroke="#63b8ff" d="M591.47,-219.98C579.6,-211.92 561.54,-199.65 547.39,-190.03"/>
<polygon fill="#63b8ff" stroke="#63b8ff" points="549,-186.9 538.76,-184.17 545.06,-192.69 549,-186.9"/>
</a>
</g>
</g>
<!-- Node4 -->
<g id="Node000004" class="node">
<title>Node4</title>
<g id="a_Node000004"><a xlink:href="../../d7/dd9/particles_8h.html" target="_top" xlink:title=" ">
<polygon fill="white" stroke="#666666" points="1343,-129 1239,-129 1239,-110 1343,-110 1343,-129"/>
<text text-anchor="middle" x="1291" y="-117" font-family="Helvetica,sans-Serif" font-size="10.00">fl/fx/1d/particles.h</text>
</a>
</g>
</g>
<!-- Node3&#45;&gt;Node4 -->
<g id="edge4_Node000003_Node000004" class="edge">
<title>Node3&#45;&gt;Node4</title>
<g id="a_edge4_Node000003_Node000004"><a xlink:title=" ">
<path fill="none" stroke="#63b8ff" d="M646.59,-227.34C760.62,-223.9 1070.87,-212.14 1169,-184 1206.89,-173.13 1246.65,-149.88 1270.11,-134.73"/>
<polygon fill="#63b8ff" stroke="#63b8ff" points="1272.12,-137.59 1278.54,-129.17 1268.27,-131.75 1272.12,-137.59"/>
</a>
</g>
</g>
<!-- Node59 -->
<g id="Node000059" class="node">
<title>Node59</title>
<g id="a_Node000059"><a xlink:href="../../d7/d97/screenmap_8h.html" target="_top" xlink:title=" ">
<polygon fill="white" stroke="#666666" points="1159.5,-184 1042.5,-184 1042.5,-165 1159.5,-165 1159.5,-184"/>
<text text-anchor="middle" x="1101" y="-172" font-family="Helvetica,sans-Serif" font-size="10.00">fl/math/screenmap.h</text>
</a>
</g>
</g>
<!-- Node3&#45;&gt;Node59 -->
<g id="edge14_Node000003_Node000059" class="edge">
<title>Node3&#45;&gt;Node59</title>
<g id="a_edge14_Node000003_Node000059"><a xlink:title=" ">
<path fill="none" stroke="#63b8ff" d="M646.8,-223.94C732.94,-214.75 927.85,-193.96 1032.13,-182.84"/>
<polygon fill="#63b8ff" stroke="#63b8ff" points="1032.67,-186.31 1042.24,-181.77 1031.93,-179.35 1032.67,-186.31"/>
</a>
</g>
</g>
<!-- Node69 -->
<g id="Node000069" class="node">
<title>Node69</title>
<g id="a_Node000069"><a xlink:href="../../d9/d3b/ui_8h.html" target="_top" xlink:title="Aggregator header for the fl/ui/ family of per&#45;element UI types.">
<polygon fill="white" stroke="#666666" points="632,-184 576,-184 576,-165 632,-165 632,-184"/>
<text text-anchor="middle" x="604" y="-172" font-family="Helvetica,sans-Serif" font-size="10.00">fl/ui/ui.h</text>
</a>
</g>
</g>
<!-- Node3&#45;&gt;Node69 -->
<g id="edge23_Node000003_Node000069" class="edge">
<title>Node3&#45;&gt;Node69</title>
<g id="a_edge23_Node000003_Node000069"><a xlink:title=" ">
<path fill="none" stroke="#63b8ff" d="M604,-219.75C604,-212.8 604,-202.85 604,-194.13"/>
<polygon fill="#63b8ff" stroke="#63b8ff" points="607.5,-194.09 604,-184.09 600.5,-194.09 607.5,-194.09"/>
</a>
</g>
</g>
<!-- Node5 -->
<g id="Node000005" class="node">
<title>Node5</title>
<g id="a_Node000005"><a xlink:href="../../d6/d68/vector_8h.html" target="_top" xlink:title=" ">
<polygon fill="#fff0f0" stroke="red" points="1237,-74 1157,-74 1157,-55 1237,-55 1237,-74"/>
<text text-anchor="middle" x="1197" y="-62" font-family="Helvetica,sans-Serif" font-size="10.00">fl/stl/vector.h</text>
</a>
</g>
</g>
<!-- Node4&#45;&gt;Node5 -->
<g id="edge5_Node000004_Node000005" class="edge">
<title>Node4&#45;&gt;Node5</title>
<g id="a_edge5_Node000004_Node000005"><a xlink:title=" ">
<path fill="none" stroke="#63b8ff" d="M1275.9,-109.98C1261.18,-101.69 1238.58,-88.94 1221.33,-79.22"/>
<polygon fill="#63b8ff" stroke="#63b8ff" points="1222.81,-76.03 1212.38,-74.17 1219.37,-82.13 1222.81,-76.03"/>
</a>
</g>
</g>
<!-- Node12 -->
<g id="Node000012" class="node">
<title>Node12</title>
<g id="a_Node000012"><a xlink:href="../../db/d01/noexcept_8h.html" target="_top" xlink:title=" ">
<polygon fill="white" stroke="#666666" points="774.5,-19 679.5,-19 679.5,0 774.5,0 774.5,-19"/>
<text text-anchor="middle" x="727" y="-7" font-family="Helvetica,sans-Serif" font-size="10.00">fl/stl/noexcept.h</text>
</a>
</g>
</g>
<!-- Node4&#45;&gt;Node12 -->
<g id="edge13_Node000004_Node000012" class="edge">
<title>Node4&#45;&gt;Node12</title>
<g id="a_edge13_Node000004_Node000012"><a xlink:title=" ">
<path fill="none" stroke="#63b8ff" d="M1287.64,-109.65C1281.68,-95.35 1267.81,-67.49 1246,-55 1206.78,-32.55 912.41,-18.03 785.23,-12.74"/>
<polygon fill="#63b8ff" stroke="#63b8ff" points="785.05,-9.23 774.91,-12.32 784.76,-16.22 785.05,-9.23"/>
</a>
</g>
</g>
<!-- Node37 -->
<g id="Node000037" class="node">
<title>Node37</title>
<g id="a_Node000037"><a xlink:href="../../d4/d7a/span_8h.html" target="_top" xlink:title=" ">
<polygon fill="#fff0f0" stroke="red" points="1138.5,-74 1065.5,-74 1065.5,-55 1138.5,-55 1138.5,-74"/>
<text text-anchor="middle" x="1102" y="-62" font-family="Helvetica,sans-Serif" font-size="10.00">fl/stl/span.h</text>
</a>
</g>
</g>
<!-- Node4&#45;&gt;Node37 -->
<g id="edge8_Node000004_Node000037" class="edge">
<title>Node4&#45;&gt;Node37</title>
<g id="a_edge8_Node000004_Node000037"><a xlink:title=" ">
<path fill="none" stroke="#63b8ff" d="M1260.63,-109.98C1228.63,-101.01 1178.04,-86.82 1142.62,-76.89"/>
<polygon fill="#63b8ff" stroke="#63b8ff" points="1143.18,-73.41 1132.6,-74.08 1141.29,-80.15 1143.18,-73.41"/>
</a>
</g>
</g>
<!-- Node39 -->
<g id="Node000039" class="node">
<title>Node39</title>
<g id="a_Node000039"><a xlink:href="../../da/d81/fx1d_8h.html" target="_top" xlink:title=" ">
<polygon fill="#fff0f0" stroke="red" points="1362.5,-74 1293.5,-74 1293.5,-55 1362.5,-55 1362.5,-74"/>
<text text-anchor="middle" x="1328" y="-62" font-family="Helvetica,sans-Serif" font-size="10.00">fl/fx/fx1d.h</text>
</a>
</g>
</g>
<!-- Node4&#45;&gt;Node39 -->
<g id="edge11_Node000004_Node000039" class="edge">
<title>Node4&#45;&gt;Node39</title>
<g id="a_edge11_Node000004_Node000039"><a xlink:title=" ">
<path fill="none" stroke="#63b8ff" d="M1297.11,-109.75C1302.28,-102.34 1309.85,-91.5 1316.19,-82.41"/>
<polygon fill="#63b8ff" stroke="#63b8ff" points="1319.15,-84.29 1322,-74.09 1313.41,-80.29 1319.15,-84.29"/>
</a>
</g>
</g>
<!-- Node8 -->
<g id="Node000008" class="node">
<title>Node8</title>
<g id="a_Node000008"><a xlink:href="../../d3/d7e/int_8h.html" target="_top" xlink:title=" ">
<polygon fill="#fff0f0" stroke="red" points="1180,-19 1118,-19 1118,0 1180,0 1180,-19"/>
<text text-anchor="middle" x="1149" y="-7" font-family="Helvetica,sans-Serif" font-size="10.00">fl/stl/int.h</text>
</a>
</g>
</g>
<!-- Node5&#45;&gt;Node8 -->
<g id="edge6_Node000005_Node000008" class="edge">
<title>Node5&#45;&gt;Node8</title>
<g id="a_edge6_Node000005_Node000008"><a xlink:title=" ">
<path fill="none" stroke="#63b8ff" d="M1189.07,-54.75C1182.15,-47.11 1171.93,-35.82 1163.55,-26.56"/>
<polygon fill="#63b8ff" stroke="#63b8ff" points="1166.09,-24.15 1156.78,-19.09 1160.9,-28.85 1166.09,-24.15"/>
</a>
</g>
</g>
<!-- Node5&#45;&gt;Node12 -->
<g id="edge7_Node000005_Node000012" class="edge">
<title>Node5&#45;&gt;Node12</title>
<g id="a_edge7_Node000005_Node000012"><a xlink:title=" ">
<path fill="none" stroke="#63b8ff" d="M1156.92,-56.32C1153.91,-55.85 1150.91,-55.41 1148,-55 1018.68,-36.97 866.1,-22.53 784.82,-15.39"/>
<polygon fill="#63b8ff" stroke="#63b8ff" points="785.06,-11.89 774.79,-14.51 784.45,-18.87 785.06,-11.89"/>
</a>
</g>
</g>
<!-- Node37&#45;&gt;Node8 -->
<g id="edge9_Node000037_Node000008" class="edge">
<title>Node37&#45;&gt;Node8</title>
<g id="a_edge9_Node000037_Node000008"><a xlink:title=" ">
<path fill="none" stroke="#63b8ff" d="M1109.76,-54.75C1116.47,-47.18 1126.34,-36.05 1134.51,-26.84"/>
<polygon fill="#63b8ff" stroke="#63b8ff" points="1137.37,-28.89 1141.38,-19.09 1132.13,-24.25 1137.37,-28.89"/>
</a>
</g>
</g>
<!-- Node37&#45;&gt;Node12 -->
<g id="edge10_Node000037_Node000012" class="edge">
<title>Node37&#45;&gt;Node12</title>
<g id="a_edge10_Node000037_Node000012"><a xlink:title=" ">
<path fill="none" stroke="#63b8ff" d="M1065.25,-57.25C1060.46,-56.47 1055.61,-55.7 1051,-55 957.89,-40.85 849.41,-26.35 784.57,-17.9"/>
<polygon fill="#63b8ff" stroke="#63b8ff" points="784.92,-14.42 774.55,-16.6 784.02,-21.36 784.92,-14.42"/>
</a>
</g>
</g>
<!-- Node39&#45;&gt;Node8 -->
<g id="edge12_Node000039_Node000008" class="edge">
<title>Node39&#45;&gt;Node8</title>
<g id="a_edge12_Node000039_Node000008"><a xlink:title=" ">
<path fill="none" stroke="#63b8ff" d="M1299.24,-54.98C1269.06,-46.05 1221.43,-31.94 1187.9,-22.02"/>
<polygon fill="#63b8ff" stroke="#63b8ff" points="1188.57,-18.57 1177.98,-19.08 1186.58,-25.28 1188.57,-18.57"/>
</a>
</g>
</g>
<!-- Node59&#45;&gt;Node8 -->
<g id="edge21_Node000059_Node000008" class="edge">
<title>Node59&#45;&gt;Node8</title>
<g id="a_edge21_Node000059_Node000008"><a xlink:title=" ">
<path fill="none" stroke="#63b8ff" d="M1159.79,-169.79C1224.63,-164.57 1323.58,-152.88 1352,-129 1371.91,-112.27 1367.49,-99.62 1372,-74 1373.47,-65.68 1377.36,-61.53 1372,-55 1349.49,-27.56 1248.59,-16.71 1190.52,-12.69"/>
<polygon fill="#63b8ff" stroke="#63b8ff" points="1190.41,-9.17 1180.2,-12.01 1189.95,-16.16 1190.41,-9.17"/>
</a>
</g>
</g>
<!-- Node59&#45;&gt;Node12 -->
<g id="edge22_Node000059_Node000012" class="edge">
<title>Node59&#45;&gt;Node12</title>
<g id="a_edge22_Node000059_Node000012"><a xlink:title=" ">
<path fill="none" stroke="#63b8ff" d="M1100.53,-164.67C1099.39,-151.36 1095.47,-126.03 1082,-110 1077.6,-104.77 978.48,-57.16 972,-55 909.65,-34.22 834.95,-22.43 784.56,-16.28"/>
<polygon fill="#63b8ff" stroke="#63b8ff" points="784.84,-12.79 774.5,-15.08 784.02,-19.74 784.84,-12.79"/>
</a>
</g>
</g>
<!-- Node60 -->
<g id="Node000060" class="node">
<title>Node60</title>
<g id="a_Node000060"><a xlink:href="../../dd/d68/flat__map_8h.html" target="_top" xlink:title=" ">
<polygon fill="#fff0f0" stroke="red" points="1221,-129 1129,-129 1129,-110 1221,-110 1221,-129"/>
<text text-anchor="middle" x="1175" y="-117" font-family="Helvetica,sans-Serif" font-size="10.00">fl/stl/flat_map.h</text>
</a>
</g>
</g>
<!-- Node59&#45;&gt;Node60 -->
<g id="edge15_Node000059_Node000060" class="edge">
<title>Node59&#45;&gt;Node60</title>
<g id="a_edge15_Node000059_Node000060"><a xlink:title=" ">
<path fill="none" stroke="#63b8ff" d="M1112.89,-164.98C1124.15,-156.92 1141.29,-144.65 1154.71,-135.03"/>
<polygon fill="#63b8ff" stroke="#63b8ff" points="1156.8,-137.84 1162.89,-129.17 1152.73,-132.15 1156.8,-137.84"/>
</a>
</g>
</g>
<!-- Node42 -->
<g id="Node000042" class="node">
<title>Node42</title>
<g id="a_Node000042"><a xlink:href="../../df/d6a/shared__ptr_8h.html" target="_top" xlink:title=" ">
<polygon fill="#fff0f0" stroke="red" points="932.5,-74 831.5,-74 831.5,-55 932.5,-55 932.5,-74"/>
<text text-anchor="middle" x="882" y="-62" font-family="Helvetica,sans-Serif" font-size="10.00">fl/stl/shared_ptr.h</text>
</a>
</g>
</g>
<!-- Node59&#45;&gt;Node42 -->
<g id="edge18_Node000059_Node000042" class="edge">
<title>Node59&#45;&gt;Node42</title>
<g id="a_edge18_Node000059_Node000042"><a xlink:title=" ">
<path fill="none" stroke="#63b8ff" d="M1065.91,-165C1038.36,-157.57 999.54,-145.4 968,-129 942.2,-115.59 915.76,-94.8 899.14,-80.7"/>
<polygon fill="#63b8ff" stroke="#63b8ff" points="901.25,-77.9 891.39,-74.01 896.67,-83.19 901.25,-77.9"/>
</a>
</g>
</g>
<!-- Node60&#45;&gt;Node5 -->
<g id="edge16_Node000060_Node000005" class="edge">
<title>Node60&#45;&gt;Node5</title>
<g id="a_edge16_Node000060_Node000005"><a xlink:title=" ">
<path fill="none" stroke="#63b8ff" d="M1178.63,-109.75C1181.58,-102.65 1185.83,-92.4 1189.51,-83.56"/>
<polygon fill="#63b8ff" stroke="#63b8ff" points="1192.83,-84.67 1193.43,-74.09 1186.37,-81.98 1192.83,-84.67"/>
</a>
</g>
</g>
<!-- Node60&#45;&gt;Node12 -->
<g id="edge17_Node000060_Node000012" class="edge">
<title>Node60&#45;&gt;Node12</title>
<g id="a_edge17_Node000060_Node000012"><a xlink:title=" ">
<path fill="none" stroke="#63b8ff" d="M1151.37,-109.96C1127.45,-101.23 1089.48,-87.13 1057,-74 1037.25,-66.02 1033.47,-60.91 1013,-55 935.69,-32.69 843.19,-20.88 784.76,-15.16"/>
<polygon fill="#63b8ff" stroke="#63b8ff" points="784.9,-11.66 774.61,-14.19 784.23,-18.63 784.9,-11.66"/>
</a>
</g>
</g>
<!-- Node42&#45;&gt;Node8 -->
<g id="edge19_Node000042_Node000008" class="edge">
<title>Node42&#45;&gt;Node8</title>
<g id="a_edge19_Node000042_Node000008"><a xlink:title=" ">
<path fill="none" stroke="#63b8ff" d="M924.9,-54.98C975.27,-44.99 1058.22,-28.52 1107.83,-18.67"/>
<polygon fill="#63b8ff" stroke="#63b8ff" points="1108.76,-22.06 1117.89,-16.68 1107.4,-15.19 1108.76,-22.06"/>
</a>
</g>
</g>
<!-- Node42&#45;&gt;Node12 -->
<g id="edge20_Node000042_Node000012" class="edge">
<title>Node42&#45;&gt;Node12</title>
<g id="a_edge20_Node000042_Node000012"><a xlink:title=" ">
<path fill="none" stroke="#63b8ff" d="M857.1,-54.98C831.3,-46.16 790.78,-32.31 761.82,-22.41"/>
<polygon fill="#63b8ff" stroke="#63b8ff" points="762.69,-19.01 752.1,-19.08 760.43,-25.63 762.69,-19.01"/>
</a>
</g>
</g>
<!-- Node70 -->
<g id="Node000070" class="node">
<title>Node70</title>
<g id="a_Node000070"><a xlink:href="../../d0/d90/ui_2audio_8h.html" target="_top" xlink:title=" ">
<polygon fill="#fff0f0" stroke="red" points="825,-129 751,-129 751,-110 825,-110 825,-129"/>
<text text-anchor="middle" x="788" y="-117" font-family="Helvetica,sans-Serif" font-size="10.00">fl/ui/audio.h</text>
</a>
</g>
</g>
<!-- Node69&#45;&gt;Node70 -->
<g id="edge24_Node000069_Node000070" class="edge">
<title>Node69&#45;&gt;Node70</title>
<g id="a_edge24_Node000069_Node000070"><a xlink:title=" ">
<path fill="none" stroke="#63b8ff" d="M632.35,-165.33C663.45,-156.38 713.59,-141.93 748.53,-131.87"/>
<polygon fill="#63b8ff" stroke="#63b8ff" points="749.76,-135.16 758.4,-129.03 747.82,-128.43 749.76,-135.16"/>
</a>
</g>
</g>
<!-- Node84 -->
<g id="Node000084" class="node">
<title>Node84</title>
<g id="a_Node000084"><a xlink:href="../../d4/dfe/element_8h.html" target="_top" xlink:title=" ">
<polygon fill="#fff0f0" stroke="red" points="592.5,-74 505.5,-74 505.5,-55 592.5,-55 592.5,-74"/>
<text text-anchor="middle" x="549" y="-62" font-family="Helvetica,sans-Serif" font-size="10.00">fl/ui/element.h</text>
</a>
</g>
</g>
<!-- Node69&#45;&gt;Node84 -->
<g id="edge45_Node000069_Node000084" class="edge">
<title>Node69&#45;&gt;Node84</title>
<g id="a_edge45_Node000069_Node000084"><a xlink:title=" ">
<path fill="none" stroke="#63b8ff" d="M591.19,-164.88C580.45,-156.91 565.67,-144.05 558,-129 550.96,-115.19 548.92,-97.62 548.52,-84.46"/>
<polygon fill="#63b8ff" stroke="#63b8ff" points="552.02,-84.24 548.5,-74.25 545.02,-84.25 552.02,-84.24"/>
</a>
</g>
</g>
<!-- Node86 -->
<g id="Node000086" class="node">
<title>Node86</title>
<g id="a_Node000086"><a xlink:href="../../d3/d7b/ui_2button_8h.html" target="_top" xlink:title=" ">
<polygon fill="#fff0f0" stroke="red" points="921,-129 843,-129 843,-110 921,-110 921,-129"/>
<text text-anchor="middle" x="882" y="-117" font-family="Helvetica,sans-Serif" font-size="10.00">fl/ui/button.h</text>
</a>
</g>
</g>
<!-- Node69&#45;&gt;Node86 -->
<g id="edge29_Node000069_Node000086" class="edge">
<title>Node69&#45;&gt;Node86</title>
<g id="a_edge29_Node000069_Node000086"><a xlink:title=" ">
<path fill="none" stroke="#63b8ff" d="M632.19,-168.13C679.2,-159.16 774.19,-141.05 832.54,-129.93"/>
<polygon fill="#63b8ff" stroke="#63b8ff" points="833.47,-133.32 842.63,-128.01 832.16,-126.44 833.47,-133.32"/>
</a>
</g>
</g>
<!-- Node94 -->
<g id="Node000094" class="node">
<title>Node94</title>
<g id="a_Node000094"><a xlink:href="../../da/dbb/checkbox_8h.html" target="_top" xlink:title=" ">
<polygon fill="#fff0f0" stroke="red" points="391.5,-129 298.5,-129 298.5,-110 391.5,-110 391.5,-129"/>
<text text-anchor="middle" x="345" y="-117" font-family="Helvetica,sans-Serif" font-size="10.00">fl/ui/checkbox.h</text>
</a>
</g>
</g>
<!-- Node69&#45;&gt;Node94 -->
<g id="edge33_Node000069_Node000094" class="edge">
<title>Node69&#45;&gt;Node94</title>
<g id="a_edge33_Node000069_Node000094"><a xlink:title=" ">
<path fill="none" stroke="#63b8ff" d="M575.74,-166.92C572.79,-166.26 569.84,-165.61 567,-165 509.84,-152.71 444.15,-139.68 399.15,-130.91"/>
<polygon fill="#63b8ff" stroke="#63b8ff" points="399.79,-127.47 389.3,-129 398.45,-134.34 399.79,-127.47"/>
</a>
</g>
</g>
<!-- Node95 -->
<g id="Node000095" class="node">
<title>Node95</title>
<g id="a_Node000095"><a xlink:href="../../d1/d59/description_8h.html" target="_top" xlink:title=" ">
<polygon fill="#fff0f0" stroke="red" points="510.5,-129 409.5,-129 409.5,-110 510.5,-110 510.5,-129"/>
<text text-anchor="middle" x="460" y="-117" font-family="Helvetica,sans-Serif" font-size="10.00">fl/ui/description.h</text>
</a>
</g>
</g>
<!-- Node69&#45;&gt;Node95 -->
<g id="edge36_Node000069_Node000095" class="edge">
<title>Node69&#45;&gt;Node95</title>
<g id="a_edge36_Node000069_Node000095"><a xlink:title=" ">
<path fill="none" stroke="#63b8ff" d="M580.86,-164.98C557.18,-156.27 520.13,-142.63 493.29,-132.75"/>
<polygon fill="#63b8ff" stroke="#63b8ff" points="494.15,-129.34 483.56,-129.17 491.73,-135.91 494.15,-129.34"/>
</a>
</g>
</g>
<!-- Node96 -->
<g id="Node000096" class="node">
<title>Node96</title>
<g id="a_Node000096"><a xlink:href="../../de/dc0/dropdown_8h.html" target="_top" xlink:title=" ">
<polygon fill="#fff0f0" stroke="red" points="1072.5,-129 977.5,-129 977.5,-110 1072.5,-110 1072.5,-129"/>
<text text-anchor="middle" x="1025" y="-117" font-family="Helvetica,sans-Serif" font-size="10.00">fl/ui/dropdown.h</text>
</a>
</g>
</g>
<!-- Node69&#45;&gt;Node96 -->
<g id="edge39_Node000069_Node000096" class="edge">
<title>Node69&#45;&gt;Node96</title>
<g id="a_edge39_Node000069_Node000096"><a xlink:title=" ">
<path fill="none" stroke="#63b8ff" d="M632.28,-169.94C700.6,-161.34 875.78,-139.29 967.32,-127.76"/>
<polygon fill="#63b8ff" stroke="#63b8ff" points="967.77,-131.23 977.26,-126.51 966.9,-124.29 967.77,-131.23"/>
</a>
</g>
</g>
<!-- Node97 -->
<g id="Node000097" class="node">
<title>Node97</title>
<g id="a_Node000097"><a xlink:href="../../d9/dd1/group_8h.html" target="_top" xlink:title=" ">
<polygon fill="#fff0f0" stroke="red" points="641,-129 567,-129 567,-110 641,-110 641,-129"/>
<text text-anchor="middle" x="604" y="-117" font-family="Helvetica,sans-Serif" font-size="10.00">fl/ui/group.h</text>
</a>
</g>
</g>
<!-- Node69&#45;&gt;Node97 -->
<g id="edge46_Node000069_Node000097" class="edge">
<title>Node69&#45;&gt;Node97</title>
<g id="a_edge46_Node000069_Node000097"><a xlink:title=" ">
<path fill="none" stroke="#63b8ff" d="M604,-164.75C604,-157.8 604,-147.85 604,-139.13"/>
<polygon fill="#63b8ff" stroke="#63b8ff" points="607.5,-139.09 604,-129.09 600.5,-139.09 607.5,-139.09"/>
</a>
</g>
</g>
<!-- Node98 -->
<g id="Node000098" class="node">
<title>Node98</title>
<g id="a_Node000098"><a xlink:href="../../db/df1/help_8h.html" target="_top" xlink:title=" ">
<polygon fill="#fff0f0" stroke="red" points="68,-129 0,-129 0,-110 68,-110 68,-129"/>
<text text-anchor="middle" x="34" y="-117" font-family="Helvetica,sans-Serif" font-size="10.00">fl/ui/help.h</text>
</a>
</g>
</g>
<!-- Node69&#45;&gt;Node98 -->
<g id="edge49_Node000069_Node000098" class="edge">
<title>Node69&#45;&gt;Node98</title>
<g id="a_edge49_Node000069_Node000098"><a xlink:title=" ">
<path fill="none" stroke="#63b8ff" d="M575.8,-166.56C572.84,-165.97 569.87,-165.43 567,-165 354.34,-132.95 295.18,-157.46 78.32,-129"/>
<polygon fill="#63b8ff" stroke="#63b8ff" points="78.58,-125.51 68.2,-127.65 77.65,-132.44 78.58,-125.51"/>
</a>
</g>
</g>
<!-- Node99 -->
<g id="Node000099" class="node">
<title>Node99</title>
<g id="a_Node000099"><a xlink:href="../../d1/d4a/number__field_8h.html" target="_top" xlink:title=" ">
<polygon fill="#fff0f0" stroke="red" points="196,-129 86,-129 86,-110 196,-110 196,-129"/>
<text text-anchor="middle" x="141" y="-117" font-family="Helvetica,sans-Serif" font-size="10.00">fl/ui/number_field.h</text>
</a>
</g>
</g>
<!-- Node69&#45;&gt;Node99 -->
<g id="edge52_Node000069_Node000099" class="edge">
<title>Node69&#45;&gt;Node99</title>
<g id="a_edge52_Node000069_Node000099"><a xlink:title=" ">
<path fill="none" stroke="#63b8ff" d="M575.79,-166.63C572.83,-166.03 569.86,-165.47 567,-165 410.72,-139.38 367.37,-147.3 206.41,-129.12"/>
<polygon fill="#63b8ff" stroke="#63b8ff" points="206.48,-125.6 196.14,-127.94 205.68,-132.56 206.48,-125.6"/>
</a>
</g>
</g>
<!-- Node100 -->
<g id="Node000100" class="node">
<title>Node100</title>
<g id="a_Node000100"><a xlink:href="../../dd/de2/slider_8h.html" target="_top" xlink:title=" ">
<polygon fill="#fff0f0" stroke="red" points="732.5,-129 659.5,-129 659.5,-110 732.5,-110 732.5,-129"/>
<text text-anchor="middle" x="696" y="-117" font-family="Helvetica,sans-Serif" font-size="10.00">fl/ui/slider.h</text>
</a>
</g>
</g>
<!-- Node69&#45;&gt;Node100 -->
<g id="edge55_Node000069_Node000100" class="edge">
<title>Node69&#45;&gt;Node100</title>
<g id="a_edge55_Node000069_Node000100"><a xlink:title=" ">
<path fill="none" stroke="#63b8ff" d="M618.78,-164.98C633.18,-156.69 655.31,-143.94 672.19,-134.22"/>
<polygon fill="#63b8ff" stroke="#63b8ff" points="674.03,-137.19 680.95,-129.17 670.54,-131.13 674.03,-137.19"/>
</a>
</g>
</g>
<!-- Node101 -->
<g id="Node000101" class="node">
<title>Node101</title>
<g id="a_Node000101"><a xlink:href="../../d8/ddf/title_8h.html" target="_top" xlink:title=" ">
<polygon fill="#fff0f0" stroke="red" points="280,-129 214,-129 214,-110 280,-110 280,-129"/>
<text text-anchor="middle" x="247" y="-117" font-family="Helvetica,sans-Serif" font-size="10.00">fl/ui/title.h</text>
</a>
</g>
</g>
<!-- Node69&#45;&gt;Node101 -->
<g id="edge59_Node000069_Node000101" class="edge">
<title>Node69&#45;&gt;Node101</title>
<g id="a_edge59_Node000069_Node000101"><a xlink:title=" ">
<path fill="none" stroke="#63b8ff" d="M575.78,-166.72C572.82,-166.1 569.85,-165.51 567,-165 447.6,-143.61 413.68,-149.05 290.63,-129.16"/>
<polygon fill="#63b8ff" stroke="#63b8ff" points="290.87,-125.65 280.43,-127.49 289.73,-132.56 290.87,-125.65"/>
</a>
</g>
</g>
<!-- Node70&#45;&gt;Node12 -->
<g id="edge26_Node000070_Node000012" class="edge">
<title>Node70&#45;&gt;Node12</title>
<g id="a_edge26_Node000070_Node000012"><a xlink:title=" ">
<path fill="none" stroke="#63b8ff" d="M779.4,-109.96C771.21,-101.45 758.99,-87.72 751,-74 742.66,-59.68 736.24,-41.93 732.15,-28.84"/>
<polygon fill="#63b8ff" stroke="#63b8ff" points="735.46,-27.71 729.27,-19.12 728.75,-29.7 735.46,-27.71"/>
</a>
</g>
</g>
<!-- Node70&#45;&gt;Node42 -->
<g id="edge25_Node000070_Node000042" class="edge">
<title>Node70&#45;&gt;Node42</title>
<g id="a_edge25_Node000070_Node000042"><a xlink:title=" ">
<path fill="none" stroke="#63b8ff" d="M803.1,-109.98C817.82,-101.69 840.42,-88.94 857.67,-79.22"/>
<polygon fill="#63b8ff" stroke="#63b8ff" points="859.63,-82.13 866.62,-74.17 856.19,-76.03 859.63,-82.13"/>
</a>
</g>
</g>
<!-- Node70&#45;&gt;Node84 -->
<g id="edge27_Node000070_Node000084" class="edge">
<title>Node70&#45;&gt;Node84</title>
<g id="a_edge27_Node000070_Node000084"><a xlink:title=" ">
<path fill="none" stroke="#63b8ff" d="M750.92,-110.28C709.6,-101.11 642.64,-86.26 597.26,-76.2"/>
<polygon fill="#63b8ff" stroke="#63b8ff" points="597.88,-72.75 587.36,-74.01 596.36,-79.59 597.88,-72.75"/>
</a>
</g>
</g>
<!-- Node84&#45;&gt;Node12 -->
<g id="edge28_Node000084_Node000012" class="edge">
<title>Node84&#45;&gt;Node12</title>
<g id="a_edge28_Node000084_Node000012"><a xlink:title=" ">
<path fill="none" stroke="#63b8ff" d="M577.6,-54.98C607.61,-46.05 654.98,-31.94 688.32,-22.02"/>
<polygon fill="#63b8ff" stroke="#63b8ff" points="689.59,-25.29 698.18,-19.08 687.59,-18.58 689.59,-25.29"/>
</a>
</g>
</g>
<!-- Node86&#45;&gt;Node12 -->
<g id="edge31_Node000086_Node000012" class="edge">
<title>Node86&#45;&gt;Node12</title>
<g id="a_edge31_Node000086_Node000012"><a xlink:title=" ">
<path fill="none" stroke="#63b8ff" d="M869.58,-109.84C843.05,-91.36 780.62,-47.86 747.88,-25.05"/>
<polygon fill="#63b8ff" stroke="#63b8ff" points="749.69,-22.04 739.48,-19.2 745.69,-27.79 749.69,-22.04"/>
</a>
</g>
</g>
<!-- Node86&#45;&gt;Node42 -->
<g id="edge30_Node000086_Node000042" class="edge">
<title>Node86&#45;&gt;Node42</title>
<g id="a_edge30_Node000086_Node000042"><a xlink:title=" ">
<path fill="none" stroke="#63b8ff" d="M882,-109.75C882,-102.8 882,-92.85 882,-84.13"/>
<polygon fill="#63b8ff" stroke="#63b8ff" points="885.5,-84.09 882,-74.09 878.5,-84.09 885.5,-84.09"/>
</a>
</g>
</g>
<!-- Node86&#45;&gt;Node84 -->
<g id="edge32_Node000086_Node000084" class="edge">
<title>Node86&#45;&gt;Node84</title>
<g id="a_edge32_Node000086_Node000084"><a xlink:title=" ">
<path fill="none" stroke="#63b8ff" d="M842.98,-111.52C839.94,-111 836.92,-110.49 834,-110 753.62,-96.61 660.27,-82.26 602.92,-73.58"/>
<polygon fill="#63b8ff" stroke="#63b8ff" points="603.4,-70.12 592.99,-72.08 602.35,-77.04 603.4,-70.12"/>
</a>
</g>
</g>
<!-- Node94&#45;&gt;Node12 -->
<g id="edge34_Node000094_Node000012" class="edge">
<title>Node94&#45;&gt;Node12</title>
<g id="a_edge34_Node000094_Node000012"><a xlink:title=" ">
<path fill="none" stroke="#63b8ff" d="M359.26,-109.87C382.6,-96.14 430.81,-69.38 475,-55 539.76,-33.93 617.31,-22.14 669.12,-16.07"/>
<polygon fill="#63b8ff" stroke="#63b8ff" points="669.59,-19.54 679.13,-14.93 668.8,-12.58 669.59,-19.54"/>
</a>
</g>
</g>
<!-- Node94&#45;&gt;Node84 -->
<g id="edge35_Node000094_Node000084" class="edge">
<title>Node94&#45;&gt;Node84</title>
<g id="a_edge35_Node000094_Node000084"><a xlink:title=" ">
<path fill="none" stroke="#63b8ff" d="M377.78,-109.98C412.62,-100.93 467.87,-86.58 506.14,-76.64"/>
<polygon fill="#63b8ff" stroke="#63b8ff" points="507.17,-79.98 515.97,-74.08 505.41,-73.21 507.17,-79.98"/>
</a>
</g>
</g>
<!-- Node95&#45;&gt;Node12 -->
<g id="edge37_Node000095_Node000012" class="edge">
<title>Node95&#45;&gt;Node12</title>
<g id="a_edge37_Node000095_Node000012"><a xlink:title=" ">
<path fill="none" stroke="#63b8ff" d="M462.31,-109.94C466.52,-96.04 476.85,-68.75 496,-55 523.21,-35.47 610.37,-22.7 669.49,-16.04"/>
<polygon fill="#63b8ff" stroke="#63b8ff" points="669.9,-19.52 679.46,-14.95 669.14,-12.56 669.9,-19.52"/>
</a>
</g>
</g>
<!-- Node95&#45;&gt;Node84 -->
<g id="edge38_Node000095_Node000084" class="edge">
<title>Node95&#45;&gt;Node84</title>
<g id="a_edge38_Node000095_Node000084"><a xlink:title=" ">
<path fill="none" stroke="#63b8ff" d="M474.3,-109.98C488.1,-101.77 509.24,-89.18 525.51,-79.49"/>
<polygon fill="#63b8ff" stroke="#63b8ff" points="527.64,-82.29 534.44,-74.17 524.06,-76.28 527.64,-82.29"/>
</a>
</g>
</g>
<!-- Node96&#45;&gt;Node5 -->
<g id="edge42_Node000096_Node000005" class="edge">
<title>Node96&#45;&gt;Node5</title>
<g id="a_edge42_Node000096_Node000005"><a xlink:title=" ">
<path fill="none" stroke="#63b8ff" d="M1052.63,-109.98C1081.51,-101.09 1127.01,-87.07 1159.2,-77.15"/>
<polygon fill="#63b8ff" stroke="#63b8ff" points="1160.62,-80.37 1169.15,-74.08 1158.56,-73.68 1160.62,-80.37"/>
</a>
</g>
</g>
<!-- Node96&#45;&gt;Node12 -->
<g id="edge43_Node000096_Node000012" class="edge">
<title>Node96&#45;&gt;Node12</title>
<g id="a_edge43_Node000096_Node000012"><a xlink:title=" ">
<path fill="none" stroke="#63b8ff" d="M1016.07,-109.56C1001.62,-95.63 971.63,-68.91 941,-55 890.99,-32.3 829.13,-21.04 784.8,-15.55"/>
<polygon fill="#63b8ff" stroke="#63b8ff" points="785.12,-12.06 774.78,-14.36 784.3,-19.01 785.12,-12.06"/>
</a>
</g>
</g>
<!-- Node96&#45;&gt;Node37 -->
<g id="edge41_Node000096_Node000037" class="edge">
<title>Node96&#45;&gt;Node37</title>
<g id="a_edge41_Node000096_Node000037"><a xlink:title=" ">
<path fill="none" stroke="#63b8ff" d="M1037.37,-109.98C1049.09,-101.92 1066.92,-89.65 1080.89,-80.03"/>
<polygon fill="#63b8ff" stroke="#63b8ff" points="1083.15,-82.72 1089.4,-74.17 1079.18,-76.96 1083.15,-82.72"/>
</a>
</g>
</g>
<!-- Node96&#45;&gt;Node42 -->
<g id="edge40_Node000096_Node000042" class="edge">
<title>Node96&#45;&gt;Node42</title>
<g id="a_edge40_Node000096_Node000042"><a xlink:title=" ">
<path fill="none" stroke="#63b8ff" d="M1002.02,-109.98C978.5,-101.27 941.71,-87.63 915.06,-77.75"/>
<polygon fill="#63b8ff" stroke="#63b8ff" points="915.99,-74.36 905.39,-74.17 913.55,-80.93 915.99,-74.36"/>
</a>
</g>
</g>
<!-- Node96&#45;&gt;Node84 -->
<g id="edge44_Node000096_Node000084" class="edge">
<title>Node96&#45;&gt;Node84</title>
<g id="a_edge44_Node000096_Node000084"><a xlink:title=" ">
<path fill="none" stroke="#63b8ff" d="M977.18,-113.18C887.88,-103.23 696.34,-81.91 602.73,-71.48"/>
<polygon fill="#63b8ff" stroke="#63b8ff" points="602.95,-67.99 592.62,-70.36 602.17,-74.94 602.95,-67.99"/>
</a>
</g>
</g>
<!-- Node97&#45;&gt;Node12 -->
<g id="edge47_Node000097_Node000012" class="edge">
<title>Node97&#45;&gt;Node12</title>
<g id="a_edge47_Node000097_Node000012"><a xlink:title=" ">
<path fill="none" stroke="#63b8ff" d="M614.07,-109.66C634.98,-91.3 683.37,-48.81 709.5,-25.87"/>
<polygon fill="#63b8ff" stroke="#63b8ff" points="711.93,-28.39 717.14,-19.16 707.32,-23.13 711.93,-28.39"/>
</a>
</g>
</g>
<!-- Node97&#45;&gt;Node84 -->
<g id="edge48_Node000097_Node000084" class="edge">
<title>Node97&#45;&gt;Node84</title>
<g id="a_edge48_Node000097_Node000084"><a xlink:title=" ">
<path fill="none" stroke="#63b8ff" d="M594.92,-109.75C586.91,-102.03 575.04,-90.6 565.38,-81.28"/>
<polygon fill="#63b8ff" stroke="#63b8ff" points="567.54,-78.51 557.91,-74.09 562.69,-83.55 567.54,-78.51"/>
</a>
</g>
</g>
<!-- Node98&#45;&gt;Node12 -->
<g id="edge50_Node000098_Node000012" class="edge">
<title>Node98&#45;&gt;Node12</title>
<g id="a_edge50_Node000098_Node000012"><a xlink:title=" ">
<path fill="none" stroke="#63b8ff" d="M61.94,-109.99C107.98,-96.29 202.88,-69.44 285,-55 421.54,-30.99 584.25,-18.76 669.06,-13.6"/>
<polygon fill="#63b8ff" stroke="#63b8ff" points="669.49,-17.08 679.26,-12.99 669.07,-10.1 669.49,-17.08"/>
</a>
</g>
</g>
<!-- Node98&#45;&gt;Node84 -->
<g id="edge51_Node000098_Node000084" class="edge">
<title>Node98&#45;&gt;Node84</title>
<g id="a_edge51_Node000098_Node000084"><a xlink:title=" ">
<path fill="none" stroke="#63b8ff" d="M68.21,-111.41C71.18,-110.9 74.14,-110.42 77,-110 227.82,-88.04 407.4,-74.57 495.23,-68.79"/>
<polygon fill="#63b8ff" stroke="#63b8ff" points="495.47,-72.28 505.22,-68.14 495.02,-65.3 495.47,-72.28"/>
</a>
</g>
</g>
<!-- Node99&#45;&gt;Node12 -->
<g id="edge53_Node000099_Node000012" class="edge">
<title>Node99&#45;&gt;Node12</title>
<g id="a_edge53_Node000099_Node000012"><a xlink:title=" ">
<path fill="none" stroke="#63b8ff" d="M165.98,-109.96C206.75,-96.34 290.32,-69.74 363,-55 469.9,-33.32 596.74,-20.73 668.96,-14.77"/>
<polygon fill="#63b8ff" stroke="#63b8ff" points="669.52,-18.23 679.21,-13.94 668.96,-11.26 669.52,-18.23"/>
</a>
</g>
</g>
<!-- Node99&#45;&gt;Node84 -->
<g id="edge54_Node000099_Node000084" class="edge">
<title>Node99&#45;&gt;Node84</title>
<g id="a_edge54_Node000099_Node000084"><a xlink:title=" ">
<path fill="none" stroke="#63b8ff" d="M196.16,-111.16C199.15,-110.77 202.11,-110.38 205,-110 307.65,-96.54 427.58,-81.09 495.28,-72.39"/>
<polygon fill="#63b8ff" stroke="#63b8ff" points="495.81,-75.85 505.28,-71.11 494.92,-68.91 495.81,-75.85"/>
</a>
</g>
</g>
<!-- Node100&#45;&gt;Node8 -->
<g id="edge56_Node000100_Node000008" class="edge">
<title>Node100&#45;&gt;Node8</title>
<g id="a_edge56_Node000100_Node000008"><a xlink:title=" ">
<path fill="none" stroke="#63b8ff" d="M709.35,-109.88C731.69,-95.91 778.49,-68.51 822,-55 921.31,-24.17 1044.17,-14.69 1107.27,-11.78"/>
<polygon fill="#63b8ff" stroke="#63b8ff" points="1107.76,-15.26 1117.6,-11.34 1107.46,-8.27 1107.76,-15.26"/>
</a>
</g>
</g>
<!-- Node100&#45;&gt;Node12 -->
<g id="edge57_Node000100_Node000012" class="edge">
<title>Node100&#45;&gt;Node12</title>
<g id="a_edge57_Node000100_Node000012"><a xlink:title=" ">
<path fill="none" stroke="#63b8ff" d="M698.19,-109.84C701.32,-97.59 707.32,-74.51 713,-55 715.49,-46.45 718.42,-37.03 720.96,-29.07"/>
<polygon fill="#63b8ff" stroke="#63b8ff" points="724.36,-29.92 724.1,-19.33 717.7,-27.78 724.36,-29.92"/>
</a>
</g>
</g>
<!-- Node100&#45;&gt;Node84 -->
<g id="edge58_Node000100_Node000084" class="edge">
<title>Node100&#45;&gt;Node84</title>
<g id="a_edge58_Node000100_Node000084"><a xlink:title=" ">
<path fill="none" stroke="#63b8ff" d="M672.38,-109.98C648.1,-101.23 610.05,-87.51 582.63,-77.62"/>
<polygon fill="#63b8ff" stroke="#63b8ff" points="583.64,-74.27 573.05,-74.17 581.27,-80.85 583.64,-74.27"/>
</a>
</g>
</g>
<!-- Node101&#45;&gt;Node12 -->
<g id="edge60_Node000101_Node000012" class="edge">
<title>Node101&#45;&gt;Node12</title>
<g id="a_edge60_Node000101_Node000012"><a xlink:title=" ">
<path fill="none" stroke="#63b8ff" d="M267.13,-109.96C299.99,-96.35 367.5,-69.76 427,-55 509.97,-34.41 608.37,-22.04 669.25,-15.74"/>
<polygon fill="#63b8ff" stroke="#63b8ff" points="669.83,-19.2 679.43,-14.71 669.13,-12.24 669.83,-19.2"/>
</a>
</g>
</g>
<!-- Node101&#45;&gt;Node84 -->
<g id="edge61_Node000101_Node000084" class="edge">
<title>Node101&#45;&gt;Node84</title>
<g id="a_edge61_Node000101_Node000084"><a xlink:title=" ">
<path fill="none" stroke="#63b8ff" d="M280.45,-111.64C283.34,-111.07 286.22,-110.52 289,-110 360.11,-96.72 442.46,-82.89 495.11,-74.24"/>
<polygon fill="#63b8ff" stroke="#63b8ff" points="495.92,-77.65 505.23,-72.58 494.79,-70.74 495.92,-77.65"/>
</a>
</g>
</g>
</g>
</svg>

<g id="navigator" transform="translate(0 0)" fill="#404254">
  <rect fill="#f2f5e9" fill-opacity="0.5" stroke="#606060" stroke-width=".5" x="0" y="0" width="60" height="60"/>
  <use id="zoomplus" xlink:href="#zoomPlus" x="17" y="9" onmousedown="handleZoom(evt,'in')"/>
  <use id="zoomminus" xlink:href="#zoomMin" x="42" y="9" onmousedown="handleZoom(evt,'out')"/>
  <use id="reset" xlink:href="#resetDef" x="30" y="36" onmousedown="handleReset()"/>
   <use id="arrowup" xlink:href="#arrowUp" x="0" y="0" onmousedown="handlePan(0,-1)"/>
  <use id="arrowright" xlink:href="#arrowRight" x="0" y="0" onmousedown="handlePan(1,0)"/>
  <use id="arrowdown" xlink:href="#arrowDown" x="0" y="0" onmousedown="handlePan(0,1)"/>
  <use id="arrowleft" xlink:href="#arrowLeft" x="0" y="0" onmousedown="handlePan(-1,0)"/>
</g>
<svg viewBox="0 0 15 15" width="100%" height="30px" preserveAspectRatio="xMaxYMin meet">
 <g id="arrow_out" transform="scale(0.3 0.3)">
  <a xlink:href="_particles1d_8ino__incl_org.svg" target="_base">
   <rect id="button" ry="5" rx="5" y="6" x="6" height="38" width="38"
        fill="#f2f5e9" fill-opacity="0.5" stroke="#606060" stroke-width="1.0"/>
   <path id="arrow"
     d="M 11.500037,31.436501 C 11.940474,20.09759 22.043105,11.32322 32.158766,21.979434 L 37.068811,17.246167 C 37.068811,17.246167 37.088388,32 37.088388,32 L 22.160133,31.978069 C 22.160133,31.978069 26.997745,27.140456 26.997745,27.140456 C 18.528582,18.264221 13.291696,25.230495 11.500037,31.436501 z"
     style="fill:#404040;"/>
  </a>
 </g>
</svg>

<style type='text/css'>
<![CDATA[
[data-mouse-over-selected='false'] { opacity: 0.7; }
[data-mouse-over-selected='true']  { opacity: 1.0; }
]]>
</style>
<script type="application/ecmascript"><![CDATA[
document.addEventListener('DOMContentLoaded', (event) => {
  highlightEdges();
  highlightAdjacentNodes();
});
]]></script>
</svg>
