<?xml version="1.0" encoding="UTF-8" standalone="no"?>
<!DOCTYPE svg PUBLIC "-//W3C//DTD SVG 1.1//EN"
 "http://www.w3.org/Graphics/SVG/1.1/DTD/svg11.dtd">
<!-- Generated by graphviz version 2.43.0 (0)
 -->
<!-- Title: loop Pages: 1 -->
<svg width="239pt" height="27pt"
 viewBox="0.00 0.00 239.00 27.00" xmlns="http://www.w3.org/2000/svg" xmlns:xlink="http://www.w3.org/1999/xlink">
<g id="graph0" class="graph" transform="scale(1 1) rotate(0) translate(4 23)">
<title>loop</title>
<!-- Node1 -->
<g id="Node000001" class="node">
<title>Node1</title>
<g id="a_Node000001"><a xlink:title=" ">
<polygon fill="#999999" stroke="#666666" points="38,-19 0,-19 0,0 38,0 38,-19"/>
<text text-anchor="middle" x="19" y="-7" font-family="Helvetica,sans-Serif" font-size="10.00">loop</text>
</a>
</g>
</g>
<!-- Node2 -->
<g id="Node000002" class="node">
<title>Node2</title>
<g id="a_Node000002"><a xlink:href="../../d1/de4/_x_y_matrix_8ino_a9526586974056032fe98ca13e908bc73.html#a9526586974056032fe98ca13e908bc73" target="_top" xlink:title=" ">
<polygon fill="white" stroke="#666666" points="166,-19 74,-19 74,0 166,0 166,-19"/>
<text text-anchor="middle" x="120" y="-7" font-family="Helvetica,sans-Serif" font-size="10.00">DrawOneFrame</text>
</a>
</g>
</g>
<!-- Node1&#45;&gt;Node2 -->
<g id="edge1_Node000001_Node000002" class="edge">
<title>Node1&#45;&gt;Node2</title>
<g id="a_edge1_Node000001_Node000002"><a xlink:title=" ">
<path fill="none" stroke="#63b8ff" d="M38.16,-9.5C45.54,-9.5 54.49,-9.5 63.72,-9.5"/>
<polygon fill="#63b8ff" stroke="#63b8ff" points="63.78,-13 73.78,-9.5 63.78,-6 63.78,-13"/>
</a>
</g>
</g>
<!-- Node3 -->
<g id="Node000003" class="node">
<title>Node3</title>
<g id="a_Node000003"><a xlink:href="../../db/d8a/blur_8cpp_8hpp_a298850b988ba912f4ad05845cda11866.html#a298850b988ba912f4ad05845cda11866" target="_top" xlink:title=" ">
<polygon fill="white" stroke="#666666" points="231,-19 202,-19 202,0 231,0 231,-19"/>
<text text-anchor="middle" x="216.5" y="-7" font-family="Helvetica,sans-Serif" font-size="10.00">XY</text>
</a>
</g>
</g>
<!-- Node2&#45;&gt;Node3 -->
<g id="edge2_Node000002_Node000003" class="edge">
<title>Node2&#45;&gt;Node3</title>
<g id="a_edge2_Node000002_Node000003"><a xlink:title=" ">
<path fill="none" stroke="#63b8ff" d="M166.04,-9.5C174.82,-9.5 183.72,-9.5 191.49,-9.5"/>
<polygon fill="#63b8ff" stroke="#63b8ff" points="191.61,-13 201.61,-9.5 191.61,-6 191.61,-13"/>
</a>
</g>
</g>
</g>
</svg>
