<?xml version="1.0" encoding="UTF-8" standalone="no"?>
<!DOCTYPE svg PUBLIC "-//W3C//DTD SVG 1.1//EN"
 "http://www.w3.org/Graphics/SVG/1.1/DTD/svg11.dtd">
<!-- Generated by graphviz version 2.43.0 (0)
 -->
<!-- Title: fl::Mp3::parseMp3Info Pages: 1 -->
<!--zoomable 859 -->

<svg id="main" version="1.1" xmlns="http://www.w3.org/2000/svg" xmlns:xlink="http://www.w3.org/1999/xlink" xml:space="preserve" onload="init(evt)">

<style type="text/css"><![CDATA[
.node, .edge {opacity: 0.7;}
.node.selected, .edge.selected {opacity: 1;}
.edge:hover path { stroke: red; }
.edge:hover polygon { stroke: red; fill: red; }
]]></style>

<defs>
  <circle id="rim" cx="0" cy="0" r="7"/>
  <circle id="rim2" cx="0" cy="0" r="3.5"/>
  <g id="zoomPlus">
    <use xlink:href="#rim" fill="#404040"><set attributeName="fill" to="#808080" begin="zoomplus.mouseover" end="zoomplus.mouseout"/></use>
    <path d="M-4,0h8M0,-4v8" fill="none" stroke="white" stroke-width="1.5" pointer-events="none"/>
  </g>
  <g id="zoomMin">
    <use xlink:href="#rim" fill="#404040"><set attributeName="fill" to="#808080" begin="zoomminus.mouseover" end="zoomminus.mouseout"/></use>
    <path d="M-4,0h8" fill="none" stroke="white" stroke-width="1.5" pointer-events="none"/>
  </g>
  <g id="arrowUp" transform="translate(30 24)">
    <use xlink:href="#rim"/>
    <path pointer-events="none" fill="none" stroke="white" stroke-width="1.5" d="M0,-3.0v7 M-2.5,-0.5L0,-3.0L2.5,-0.5"/>
  </g>
  <g id="arrowRight" transform="rotate(90) translate(36 -43)">
    <use xlink:href="#rim"/>
    <path pointer-events="none" fill="none" stroke="white" stroke-width="1.5" d="M0,-3.0v7 M-2.5,-0.5L0,-3.0L2.5,-0.5"/>
  </g>
  <g id="arrowDown" transform="rotate(180) translate(-30 -48)">
    <use xlink:href="#rim"/>
    <path pointer-events="none" fill="none" stroke="white" stroke-width="1.5" d="M0,-3.0v7 M-2.5,-0.5L0,-3.0L2.5,-0.5"/>
  </g>
  <g id="arrowLeft" transform="rotate(270) translate(-36 17)">
    <use xlink:href="#rim"/>
    <path pointer-events="none" fill="none" stroke="white" stroke-width="1.5" d="M0,-3.0v7 M-2.5,-0.5L0,-3.0L2.5,-0.5"/>
  </g>
  <g id="resetDef">
    <use xlink:href="#rim2" fill="#404040"><set attributeName="fill" to="#808080" begin="reset.mouseover" end="reset.mouseout"/></use>
  </g>
</defs>
<script type="application/ecmascript">
var viewWidth = 863;
var viewHeight = 859;
var sectionId = 'dynsection-0';
</script>
<script type="application/ecmascript" xlink:href="../../svg.min.js"/>
<svg id="graph" class="graph">
<g id="viewport">
<title>fl::Mp3::parseMp3Info</title>
<!-- Node1 -->
<g id="Node000001" class="node">
<title>Node1</title>
<g id="a_Node000001"><a xlink:title=" ">
<polygon fill="#999999" stroke="#666666" points="122,-143 0,-143 0,-124 122,-124 122,-143"/>
<text text-anchor="middle" x="61" y="-131" font-family="Helvetica,sans-Serif" font-size="10.00">fl::Mp3::parseMp3Info</text>
</a>
</g>
</g>
<!-- Node2 -->
<g id="Node000002" class="node">
<title>Node2</title>
<g id="a_Node000002"><a xlink:href="../../d0/d08/classfl_1_1span_a326aa9f29859fe8a92833fd5db12c3bb.html#a326aa9f29859fe8a92833fd5db12c3bb" target="_top" xlink:title=" ">
<polygon fill="white" stroke="#666666" points="265,-536 185,-536 185,-517 265,-517 265,-536"/>
<text text-anchor="middle" x="225" y="-524" font-family="Helvetica,sans-Serif" font-size="10.00">fl::span::data</text>
</a>
</g>
</g>
<!-- Node1&#45;&gt;Node2 -->
<g id="edge1_Node000001_Node000002" class="edge">
<title>Node1&#45;&gt;Node2</title>
<g id="a_edge1_Node000001_Node000002"><a xlink:title=" ">
<path fill="none" stroke="#63b8ff" d="M63.19,-143.27C69.9,-196.62 104.52,-452.44 158,-507.5 162.8,-512.44 168.8,-516.12 175.2,-518.86"/>
<polygon fill="#63b8ff" stroke="#63b8ff" points="174.2,-522.21 184.79,-522.22 176.52,-515.61 174.2,-522.21"/>
</a>
</g>
</g>
<!-- Node3 -->
<g id="Node000003" class="node">
<title>Node3</title>
<g id="a_Node000003"><a xlink:href="../../df/d1a/classfl_1_1third__party_1_1_mp3_helix_decoder_a29b56e0e8e62a3b676e2b72d7ad5ae76.html#a29b56e0e8e62a3b676e2b72d7ad5ae76" target="_top" xlink:title=" ">
<polygon fill="white" stroke="#666666" points="292,-498.5 158,-498.5 158,-468.5 292,-468.5 292,-498.5"/>
<text text-anchor="start" x="166" y="-486.5" font-family="Helvetica,sans-Serif" font-size="10.00">fl::third_party::Mp3Helix</text>
<text text-anchor="middle" x="225" y="-475.5" font-family="Helvetica,sans-Serif" font-size="10.00">Decoder::decodeFrame</text>
</a>
</g>
</g>
<!-- Node1&#45;&gt;Node3 -->
<g id="edge2_Node000001_Node000003" class="edge">
<title>Node1&#45;&gt;Node3</title>
<g id="a_edge2_Node000001_Node000003"><a xlink:title=" ">
<path fill="none" stroke="#63b8ff" d="M66.5,-143.23C87.98,-189.63 180.34,-389.18 212.73,-459.14"/>
<polygon fill="#63b8ff" stroke="#63b8ff" points="209.68,-460.89 217.05,-468.49 216.03,-457.95 209.68,-460.89"/>
</a>
</g>
</g>
<!-- Node28 -->
<g id="Node000028" class="node">
<title>Node28</title>
<g id="a_Node000028"><a xlink:href="../../d6/daf/direct_8h_ae2738c620ee3ab857c9656b3bf86a24d.html#ae2738c620ee3ab857c9656b3bf86a24d" target="_top" xlink:title=" ">
<polygon fill="white" stroke="#666666" points="805.5,-206 761.5,-206 761.5,-187 805.5,-187 805.5,-206"/>
<text text-anchor="middle" x="783.5" y="-194" font-family="Helvetica,sans-Serif" font-size="10.00">offset</text>
</a>
</g>
</g>
<!-- Node1&#45;&gt;Node28 -->
<g id="edge36_Node000001_Node000028" class="edge">
<title>Node1&#45;&gt;Node28</title>
<g id="a_edge36_Node000001_Node000028"><a xlink:title=" ">
<path fill="none" stroke="#63b8ff" d="M122.13,-128.29C233.07,-120.22 476.83,-109.77 676,-152.5 704.5,-158.61 735.05,-172.02 756.09,-182.44"/>
<polygon fill="#63b8ff" stroke="#63b8ff" points="754.55,-185.58 765.05,-186.98 757.71,-179.33 754.55,-185.58"/>
</a>
</g>
</g>
<!-- Node67 -->
<g id="Node000067" class="node">
<title>Node67</title>
<g id="a_Node000067"><a xlink:href="../../d0/d08/classfl_1_1span_a1e467b483bfd364c93ae966e5bd4e427.html#a1e467b483bfd364c93ae966e5bd4e427" target="_top" xlink:title=" ">
<polygon fill="white" stroke="#666666" points="269.5,-105 180.5,-105 180.5,-86 269.5,-86 269.5,-105"/>
<text text-anchor="middle" x="225" y="-93" font-family="Helvetica,sans-Serif" font-size="10.00">fl::span::empty</text>
</a>
</g>
</g>
<!-- Node1&#45;&gt;Node67 -->
<g id="edge26_Node000001_Node000067" class="edge">
<title>Node1&#45;&gt;Node67</title>
<g id="a_edge26_Node000001_Node000067"><a xlink:title=" ">
<path fill="none" stroke="#63b8ff" d="M102.88,-123.91C124.35,-118.87 150.86,-112.66 173.6,-107.32"/>
<polygon fill="#63b8ff" stroke="#63b8ff" points="174.48,-110.71 183.41,-105.02 172.88,-103.9 174.48,-110.71"/>
</a>
</g>
</g>
<!-- Node68 -->
<g id="Node000068" class="node">
<title>Node68</title>
<g id="a_Node000068"><a xlink:href="../../df/d1a/classfl_1_1third__party_1_1_mp3_helix_decoder_a73711ec10223aee587d3a3912b64ada9.html#a73711ec10223aee587d3a3912b64ada9" target="_top" xlink:title=" ">
<polygon fill="white" stroke="#666666" points="660,-191.5 526,-191.5 526,-161.5 660,-161.5 660,-191.5"/>
<text text-anchor="start" x="534" y="-179.5" font-family="Helvetica,sans-Serif" font-size="10.00">fl::third_party::Mp3Helix</text>
<text text-anchor="middle" x="593" y="-168.5" font-family="Helvetica,sans-Serif" font-size="10.00">Decoder::findSyncWord</text>
</a>
</g>
</g>
<!-- Node1&#45;&gt;Node68 -->
<g id="edge27_Node000001_Node000068" class="edge">
<title>Node1&#45;&gt;Node68</title>
<g id="a_edge27_Node000001_Node000068"><a xlink:title=" ">
<path fill="none" stroke="#63b8ff" d="M122.08,-143C133.96,-144.67 146.36,-146.26 158,-147.5 282.96,-160.77 428.85,-169.04 515.66,-173.21"/>
<polygon fill="#63b8ff" stroke="#63b8ff" points="515.53,-176.7 525.69,-173.68 515.86,-169.71 515.53,-176.7"/>
</a>
</g>
</g>
<!-- Node69 -->
<g id="Node000069" class="node">
<title>Node69</title>
<g id="a_Node000069"><a xlink:href="../../df/d1a/classfl_1_1third__party_1_1_mp3_helix_decoder_ac1ab148b62ec5b4341583ecf566c4609.html#ac1ab148b62ec5b4341583ecf566c4609" target="_top" xlink:title=" ">
<polygon fill="white" stroke="#666666" points="292,-67.5 158,-67.5 158,-37.5 292,-37.5 292,-67.5"/>
<text text-anchor="start" x="166" y="-55.5" font-family="Helvetica,sans-Serif" font-size="10.00">fl::third_party::Mp3Helix</text>
<text text-anchor="middle" x="225" y="-44.5" font-family="Helvetica,sans-Serif" font-size="10.00">Decoder::init</text>
</a>
</g>
</g>
<!-- Node1&#45;&gt;Node69 -->
<g id="edge30_Node000001_Node000069" class="edge">
<title>Node1&#45;&gt;Node69</title>
<g id="a_edge30_Node000001_Node000069"><a xlink:title=" ">
<path fill="none" stroke="#63b8ff" d="M76.55,-123.98C95.01,-112.16 128.05,-91.79 158,-77.5 162.33,-75.43 166.89,-73.41 171.49,-71.47"/>
<polygon fill="#63b8ff" stroke="#63b8ff" points="173.02,-74.63 180.96,-67.62 170.38,-68.15 173.02,-74.63"/>
</a>
</g>
</g>
<!-- Node76 -->
<g id="Node000076" class="node">
<title>Node76</title>
<g id="a_Node000076"><a xlink:href="../../d0/d08/classfl_1_1span_aef7ee7eb5254da1ba1eb4f3e0173d0ac.html#aef7ee7eb5254da1ba1eb4f3e0173d0ac" target="_top" xlink:title=" ">
<polygon fill="white" stroke="#666666" points="263.5,-19 186.5,-19 186.5,0 263.5,0 263.5,-19"/>
<text text-anchor="middle" x="225" y="-7" font-family="Helvetica,sans-Serif" font-size="10.00">fl::span::size</text>
</a>
</g>
</g>
<!-- Node1&#45;&gt;Node76 -->
<g id="edge37_Node000001_Node000076" class="edge">
<title>Node1&#45;&gt;Node76</title>
<g id="a_edge37_Node000001_Node000076"><a xlink:title=" ">
<path fill="none" stroke="#63b8ff" d="M68.15,-123.74C81.74,-102.99 116.44,-54.28 158,-28.5 163.72,-24.95 170.12,-22.05 176.63,-19.67"/>
<polygon fill="#63b8ff" stroke="#63b8ff" points="177.76,-22.98 186.18,-16.56 175.59,-16.33 177.76,-22.98"/>
</a>
</g>
</g>
<!-- Node4 -->
<g id="Node000004" class="node">
<title>Node4</title>
<g id="a_Node000004"><a xlink:href="../../d4/d36/namespacefl_ad200a6a214a70194b7c33fd67af6cea4.html#ad200a6a214a70194b7c33fd67af6cea4" target="_top" xlink:title=" ">
<polygon fill="white" stroke="#666666" points="434.5,-530 367.5,-530 367.5,-511 434.5,-511 434.5,-530"/>
<text text-anchor="middle" x="401" y="-518" font-family="Helvetica,sans-Serif" font-size="10.00">fl::bit_cast</text>
</a>
</g>
</g>
<!-- Node3&#45;&gt;Node4 -->
<g id="edge3_Node000003_Node000004" class="edge">
<title>Node3&#45;&gt;Node4</title>
<g id="a_edge3_Node000003_Node000004"><a xlink:title=" ">
<path fill="none" stroke="#63b8ff" d="M292.28,-497.59C314.2,-502.25 337.98,-507.31 357.61,-511.49"/>
<polygon fill="#63b8ff" stroke="#63b8ff" points="356.95,-514.92 367.46,-513.58 358.41,-508.08 356.95,-514.92"/>
</a>
</g>
</g>
<!-- Node6 -->
<g id="Node000006" class="node">
<title>Node6</title>
<g id="a_Node000006"><a xlink:href="../../d1/d86/namespacefl_1_1third__party_a62e1846cc72fca083acb859d9e302996.html#a62e1846cc72fca083acb859d9e302996" target="_top" xlink:title=" ">
<polygon fill="white" stroke="#666666" points="473.5,-493 328.5,-493 328.5,-474 473.5,-474 473.5,-493"/>
<text text-anchor="middle" x="401" y="-481" font-family="Helvetica,sans-Serif" font-size="10.00">fl::third_party::MP3Decode</text>
</a>
</g>
</g>
<!-- Node3&#45;&gt;Node6 -->
<g id="edge5_Node000003_Node000006" class="edge">
<title>Node3&#45;&gt;Node6</title>
<g id="a_edge5_Node000003_Node000006"><a xlink:title=" ">
<path fill="none" stroke="#63b8ff" d="M292.28,-483.5C300.77,-483.5 309.54,-483.5 318.24,-483.5"/>
<polygon fill="#63b8ff" stroke="#63b8ff" points="318.4,-487 328.4,-483.5 318.4,-480 318.4,-487"/>
</a>
</g>
</g>
<!-- Node66 -->
<g id="Node000066" class="node">
<title>Node66</title>
<g id="a_Node000066"><a xlink:href="../../d1/d86/namespacefl_1_1third__party_a71eda81cd3a23307fdfc4fcf78c476f3.html#a71eda81cd3a23307fdfc4fcf78c476f3" target="_top" xlink:title=" ">
<polygon fill="white" stroke="#666666" points="474,-578.5 328,-578.5 328,-548.5 474,-548.5 474,-578.5"/>
<text text-anchor="start" x="336" y="-566.5" font-family="Helvetica,sans-Serif" font-size="10.00">fl::third_party::MP3GetLast</text>
<text text-anchor="middle" x="401" y="-555.5" font-family="Helvetica,sans-Serif" font-size="10.00">FrameInfo</text>
</a>
</g>
</g>
<!-- Node3&#45;&gt;Node66 -->
<g id="edge25_Node000003_Node000066" class="edge">
<title>Node3&#45;&gt;Node66</title>
<g id="a_edge25_Node000003_Node000066"><a xlink:title=" ">
<path fill="none" stroke="#63b8ff" d="M272.06,-498.56C278.93,-501.49 285.79,-504.8 292,-508.5 310.15,-519.29 309.64,-529.08 328,-539.5 331.01,-541.21 334.17,-542.82 337.4,-544.34"/>
<polygon fill="#63b8ff" stroke="#63b8ff" points="336.11,-547.59 346.68,-548.36 338.89,-541.17 336.11,-547.59"/>
</a>
</g>
</g>
<!-- Node5 -->
<g id="Node000005" class="node">
<title>Node5</title>
<g id="a_Node000005"><a xlink:href="../../d4/d36/namespacefl_a0393d1d09fff5bccc427802cc22e756d.html#a0393d1d09fff5bccc427802cc22e756d" target="_top" xlink:title=" ">
<polygon fill="white" stroke="#666666" points="819,-718 748,-718 748,-699 819,-699 819,-718"/>
<text text-anchor="middle" x="783.5" y="-706" font-family="Helvetica,sans-Serif" font-size="10.00">fl::memcpy</text>
</a>
</g>
</g>
<!-- Node4&#45;&gt;Node5 -->
<g id="edge4_Node000004_Node000005" class="edge">
<title>Node4&#45;&gt;Node5</title>
<g id="a_edge4_Node000004_Node000005"><a xlink:title=" ">
<path fill="none" stroke="#63b8ff" d="M434.55,-521.27C448.67,-523.35 464.2,-528.32 474,-539.5 557.3,-634.5 415.17,-738 510,-821.5 565.37,-870.25 608.26,-850.74 676,-821.5 720.75,-802.18 755.41,-753.79 771.91,-727.02"/>
<polygon fill="#63b8ff" stroke="#63b8ff" points="775.04,-728.62 777.16,-718.24 769.03,-725.03 775.04,-728.62"/>
</a>
</g>
</g>
<!-- Node7 -->
<g id="Node000007" class="node">
<title>Node7</title>
<g id="a_Node000007"><a xlink:href="../../d1/d86/namespacefl_1_1third__party_ae821f499118966178a9830183e9ae106.html#ae821f499118966178a9830183e9ae106" target="_top" xlink:title=" ">
<polygon fill="white" stroke="#666666" points="667,-549 519,-549 519,-530 667,-530 667,-549"/>
<text text-anchor="middle" x="593" y="-537" font-family="Helvetica,sans-Serif" font-size="10.00">fl::third_party::CheckPadBit</text>
</a>
</g>
</g>
<!-- Node6&#45;&gt;Node7 -->
<g id="edge6_Node000006_Node000007" class="edge">
<title>Node6&#45;&gt;Node7</title>
<g id="a_edge6_Node000006_Node000007"><a xlink:title=" ">
<path fill="none" stroke="#63b8ff" d="M444.77,-493.07C454.52,-495.72 464.73,-498.88 474,-502.5 490.86,-509.07 493.01,-515.28 510,-521.5 515.93,-523.67 522.2,-525.62 528.52,-527.36"/>
<polygon fill="#63b8ff" stroke="#63b8ff" points="527.91,-530.82 538.47,-529.94 529.66,-524.04 527.91,-530.82"/>
</a>
</g>
</g>
<!-- Node8 -->
<g id="Node000008" class="node">
<title>Node8</title>
<g id="a_Node000008"><a xlink:href="../../d1/d86/namespacefl_1_1third__party_a9c1b2d5fb0a0aff8a6db5e2a73bd0449.html#a9c1b2d5fb0a0aff8a6db5e2a73bd0449" target="_top" xlink:title=" ">
<polygon fill="#fff0f0" stroke="red" points="676,-512 510,-512 510,-493 676,-493 676,-512"/>
<text text-anchor="middle" x="593" y="-500" font-family="Helvetica,sans-Serif" font-size="10.00">fl::third_party::DecodeHuffman</text>
</a>
</g>
</g>
<!-- Node6&#45;&gt;Node8 -->
<g id="edge7_Node000006_Node000008" class="edge">
<title>Node6&#45;&gt;Node8</title>
<g id="a_edge7_Node000006_Node000008"><a xlink:title=" ">
<path fill="none" stroke="#63b8ff" d="M473.56,-490.66C482.2,-491.52 491.11,-492.41 499.99,-493.3"/>
<polygon fill="#63b8ff" stroke="#63b8ff" points="499.68,-496.79 509.98,-494.3 500.38,-489.82 499.68,-496.79"/>
</a>
</g>
</g>
<!-- Node12 -->
<g id="Node000012" class="node">
<title>Node12</title>
<g id="a_Node000012"><a xlink:href="../../d1/d86/namespacefl_1_1third__party_a06b04d62f170675f35262489af5a0292.html#a06b04d62f170675f35262489af5a0292" target="_top" xlink:title=" ">
<polygon fill="#fff0f0" stroke="red" points="664.5,-475 521.5,-475 521.5,-456 664.5,-456 664.5,-475"/>
<text text-anchor="middle" x="593" y="-463" font-family="Helvetica,sans-Serif" font-size="10.00">fl::third_party::Dequantize</text>
</a>
</g>
</g>
<!-- Node6&#45;&gt;Node12 -->
<g id="edge8_Node000006_Node000012" class="edge">
<title>Node6&#45;&gt;Node12</title>
<g id="a_edge8_Node000006_Node000012"><a xlink:title=" ">
<path fill="none" stroke="#63b8ff" d="M473.56,-476.72C485.93,-475.55 498.86,-474.32 511.45,-473.13"/>
<polygon fill="#63b8ff" stroke="#63b8ff" points="511.82,-476.61 521.45,-472.18 511.16,-469.64 511.82,-476.61"/>
</a>
</g>
</g>
<!-- Node22 -->
<g id="Node000022" class="node">
<title>Node22</title>
<g id="a_Node000022"><a xlink:href="../../d1/d86/namespacefl_1_1third__party_aac5ad0c0868d077cf5c41d0d9550cec0.html#aac5ad0c0868d077cf5c41d0d9550cec0" target="_top" xlink:title=" ">
<polygon fill="white" stroke="#666666" points="652.5,-438 533.5,-438 533.5,-419 652.5,-419 652.5,-438"/>
<text text-anchor="middle" x="593" y="-426" font-family="Helvetica,sans-Serif" font-size="10.00">fl::third_party::IMDCT</text>
</a>
</g>
</g>
<!-- Node6&#45;&gt;Node22 -->
<g id="edge9_Node000006_Node000022" class="edge">
<title>Node6&#45;&gt;Node22</title>
<g id="a_edge9_Node000006_Node000022"><a xlink:title=" ">
<path fill="none" stroke="#63b8ff" d="M428.41,-473.92C450.15,-466.23 481.85,-455.44 510,-447.5 518.78,-445.03 528.15,-442.63 537.31,-440.42"/>
<polygon fill="#63b8ff" stroke="#63b8ff" points="538.19,-443.8 547.12,-438.1 536.58,-436.99 538.19,-443.8"/>
</a>
</g>
</g>
<!-- Node23 -->
<g id="Node000023" class="node">
<title>Node23</title>
<g id="a_Node000023"><a xlink:href="../../d4/d36/namespacefl_a434a098968c53d3fd0e901c030ed1e05.html#a434a098968c53d3fd0e901c030ed1e05" target="_top" xlink:title=" ">
<polygon fill="white" stroke="#666666" points="631.5,-586 554.5,-586 554.5,-567 631.5,-567 631.5,-586"/>
<text text-anchor="middle" x="593" y="-574" font-family="Helvetica,sans-Serif" font-size="10.00">fl::memcopy</text>
</a>
</g>
</g>
<!-- Node6&#45;&gt;Node23 -->
<g id="edge10_Node000006_Node000023" class="edge">
<title>Node6&#45;&gt;Node23</title>
<g id="a_edge10_Node000006_Node000023"><a xlink:title=" ">
<path fill="none" stroke="#63b8ff" d="M456.31,-493.08C462.6,-495.54 468.67,-498.62 474,-502.5 497.93,-519.9 485.71,-541.6 510,-558.5 520.1,-565.52 532.44,-569.87 544.46,-572.55"/>
<polygon fill="#63b8ff" stroke="#63b8ff" points="543.95,-576.01 554.43,-574.42 545.25,-569.13 543.95,-576.01"/>
</a>
</g>
</g>
<!-- Node24 -->
<g id="Node000024" class="node">
<title>Node24</title>
<g id="a_Node000024"><a xlink:href="../../d4/d36/namespacefl_a852a5bd699a3fe38fd96cc4f1ddcb7a5.html#a852a5bd699a3fe38fd96cc4f1ddcb7a5" target="_top" xlink:title=" ">
<polygon fill="white" stroke="#666666" points="634,-401 552,-401 552,-382 634,-382 634,-401"/>
<text text-anchor="middle" x="593" y="-389" font-family="Helvetica,sans-Serif" font-size="10.00">fl::memmove</text>
</a>
</g>
</g>
<!-- Node6&#45;&gt;Node24 -->
<g id="edge12_Node000006_Node000024" class="edge">
<title>Node6&#45;&gt;Node24</title>
<g id="a_edge12_Node000006_Node000024"><a xlink:title=" ">
<path fill="none" stroke="#63b8ff" d="M413.15,-473.88C431.88,-458.23 471.41,-427.32 510,-410.5 520.05,-406.12 531.25,-402.67 542.07,-399.99"/>
<polygon fill="#63b8ff" stroke="#63b8ff" points="542.89,-403.39 551.85,-397.74 541.32,-396.57 542.89,-403.39"/>
</a>
</g>
</g>
<!-- Node25 -->
<g id="Node000025" class="node">
<title>Node25</title>
<g id="a_Node000025"><a xlink:href="../../d1/d86/namespacefl_1_1third__party_a1104a14e9dc4285a7bc7371db2eec09a.html#a1104a14e9dc4285a7bc7371db2eec09a" target="_top" xlink:title=" ">
<polygon fill="white" stroke="#666666" points="660,-363.5 526,-363.5 526,-333.5 660,-333.5 660,-363.5"/>
<text text-anchor="start" x="534" y="-351.5" font-family="Helvetica,sans-Serif" font-size="10.00">fl::third_party::MP3Clear</text>
<text text-anchor="middle" x="593" y="-340.5" font-family="Helvetica,sans-Serif" font-size="10.00">BadFrame</text>
</a>
</g>
</g>
<!-- Node6&#45;&gt;Node25 -->
<g id="edge13_Node000006_Node000025" class="edge">
<title>Node6&#45;&gt;Node25</title>
<g id="a_edge13_Node000006_Node000025"><a xlink:title=" ">
<path fill="none" stroke="#63b8ff" d="M408.67,-474C424.06,-452.78 464.24,-401.26 510,-373.5 513.58,-371.33 517.36,-369.33 521.26,-367.5"/>
<polygon fill="#63b8ff" stroke="#63b8ff" points="522.72,-370.68 530.52,-363.51 519.95,-364.25 522.72,-370.68"/>
</a>
</g>
</g>
<!-- Node26 -->
<g id="Node000026" class="node">
<title>Node26</title>
<g id="a_Node000026"><a xlink:href="../../d1/d86/namespacefl_1_1third__party_a83dfb7478b6bc33d18229b90c6b932a1.html#a83dfb7478b6bc33d18229b90c6b932a1" target="_top" xlink:title=" ">
<polygon fill="white" stroke="#666666" points="657,-315.5 529,-315.5 529,-285.5 657,-285.5 657,-315.5"/>
<text text-anchor="start" x="537" y="-303.5" font-family="Helvetica,sans-Serif" font-size="10.00">fl::third_party::MP3Find</text>
<text text-anchor="middle" x="593" y="-292.5" font-family="Helvetica,sans-Serif" font-size="10.00">FreeSync</text>
</a>
</g>
</g>
<!-- Node6&#45;&gt;Node26 -->
<g id="edge14_Node000006_Node000026" class="edge">
<title>Node6&#45;&gt;Node26</title>
<g id="a_edge14_Node000006_Node000026"><a xlink:title=" ">
<path fill="none" stroke="#63b8ff" d="M405.72,-473.94C416.97,-446.32 453.35,-365.75 510,-324.5 513.06,-322.27 516.32,-320.25 519.72,-318.42"/>
<polygon fill="#63b8ff" stroke="#63b8ff" points="521.46,-321.46 528.97,-313.98 518.44,-315.15 521.46,-321.46"/>
</a>
</g>
</g>
<!-- Node6&#45;&gt;Node28 -->
<g id="edge17_Node000006_Node000028" class="edge">
<title>Node6&#45;&gt;Node28</title>
<g id="a_edge17_Node000006_Node000028"><a xlink:title=" ">
<path fill="none" stroke="#63b8ff" d="M403.04,-473.81C407.61,-436.55 429.38,-301.47 510,-239.5 547.24,-210.87 687.4,-200.87 750.89,-197.76"/>
<polygon fill="#63b8ff" stroke="#63b8ff" points="751.28,-201.24 761.11,-197.28 750.95,-194.25 751.28,-201.24"/>
</a>
</g>
</g>
<!-- Node29 -->
<g id="Node000029" class="node">
<title>Node29</title>
<g id="a_Node000029"><a xlink:href="../../d4/d36/namespacefl_a35654c87c0c1b42e33a713c2badbb9fe.html#a35654c87c0c1b42e33a713c2badbb9fe" target="_top" xlink:title="Printf&#45;like formatting function that prints directly to the platform output.">
<polygon fill="#fff0f0" stroke="red" points="620.5,-267 565.5,-267 565.5,-248 620.5,-248 620.5,-267"/>
<text text-anchor="middle" x="593" y="-255" font-family="Helvetica,sans-Serif" font-size="10.00">fl::printf</text>
</a>
</g>
</g>
<!-- Node6&#45;&gt;Node29 -->
<g id="edge18_Node000006_Node000029" class="edge">
<title>Node6&#45;&gt;Node29</title>
<g id="a_edge18_Node000006_Node000029"><a xlink:title=" ">
<path fill="none" stroke="#63b8ff" d="M404.02,-473.84C411.48,-440.62 440.77,-330.1 510,-276.5 522.77,-266.61 539.79,-261.72 555.02,-259.36"/>
<polygon fill="#63b8ff" stroke="#63b8ff" points="555.71,-262.8 565.2,-258.09 554.84,-255.85 555.71,-262.8"/>
</a>
</g>
</g>
<!-- Node48 -->
<g id="Node000048" class="node">
<title>Node48</title>
<g id="a_Node000048"><a xlink:href="../../d1/d86/namespacefl_1_1third__party_ad877820751561d57bc2cf7be77fbfa9f.html#ad877820751561d57bc2cf7be77fbfa9f" target="_top" xlink:title=" ">
<polygon fill="#fff0f0" stroke="red" points="657.5,-812 528.5,-812 528.5,-793 657.5,-793 657.5,-812"/>
<text text-anchor="middle" x="593" y="-800" font-family="Helvetica,sans-Serif" font-size="10.00">fl::third_party::Subband</text>
</a>
</g>
</g>
<!-- Node6&#45;&gt;Node48 -->
<g id="edge19_Node000006_Node000048" class="edge">
<title>Node6&#45;&gt;Node48</title>
<g id="a_edge19_Node000006_Node000048"><a xlink:title=" ">
<path fill="none" stroke="#63b8ff" d="M462.33,-493.14C466.69,-495.63 470.68,-498.71 474,-502.5 557.3,-597.5 424.72,-691.27 510,-784.5 512.74,-787.5 515.86,-790.06 519.24,-792.24"/>
<polygon fill="#63b8ff" stroke="#63b8ff" points="517.64,-795.35 528.12,-796.91 520.9,-789.16 517.64,-795.35"/>
</a>
</g>
</g>
<!-- Node54 -->
<g id="Node000054" class="node">
<title>Node54</title>
<g id="a_Node000054"><a xlink:href="../../d4/d36/namespacefl_a2bccb5decc8613e4b6e232e0a881578f.html#a2bccb5decc8613e4b6e232e0a881578f" target="_top" xlink:title="Alias for millis64() &#45; returns 64&#45;bit millisecond time.">
<polygon fill="#fff0f0" stroke="red" points="618.5,-757 567.5,-757 567.5,-738 618.5,-738 618.5,-757"/>
<text text-anchor="middle" x="593" y="-745" font-family="Helvetica,sans-Serif" font-size="10.00">fl::time</text>
</a>
</g>
</g>
<!-- Node6&#45;&gt;Node54 -->
<g id="edge20_Node000006_Node000054" class="edge">
<title>Node6&#45;&gt;Node54</title>
<g id="a_edge20_Node000006_Node000054"><a xlink:title=" ">
<path fill="none" stroke="#63b8ff" d="M461.87,-493.06C466.39,-495.56 470.53,-498.67 474,-502.5 542.23,-577.93 440.63,-654.12 510,-728.5 521.85,-741.21 540.4,-746.21 556.85,-747.92"/>
<polygon fill="#63b8ff" stroke="#63b8ff" points="557.06,-751.45 567.27,-748.62 557.53,-744.46 557.06,-751.45"/>
</a>
</g>
</g>
<!-- Node57 -->
<g id="Node000057" class="node">
<title>Node57</title>
<g id="a_Node000057"><a xlink:href="../../d1/d86/namespacefl_1_1third__party_a25fe53a9da728f9c1a7eb74a56be34e4.html#a25fe53a9da728f9c1a7eb74a56be34e4" target="_top" xlink:title=" ">
<polygon fill="white" stroke="#666666" points="670.5,-719.5 515.5,-719.5 515.5,-689.5 670.5,-689.5 670.5,-719.5"/>
<text text-anchor="start" x="523.5" y="-707.5" font-family="Helvetica,sans-Serif" font-size="10.00">fl::third_party::UnpackFrame</text>
<text text-anchor="middle" x="593" y="-696.5" font-family="Helvetica,sans-Serif" font-size="10.00">Header</text>
</a>
</g>
</g>
<!-- Node6&#45;&gt;Node57 -->
<g id="edge22_Node000006_Node000057" class="edge">
<title>Node6&#45;&gt;Node57</title>
<g id="a_edge22_Node000006_Node000057"><a xlink:title=" ">
<path fill="none" stroke="#63b8ff" d="M461.36,-493.03C466.04,-495.54 470.36,-498.64 474,-502.5 529.38,-561.22 455.41,-621.05 510,-680.5 510.78,-681.35 511.58,-682.16 512.41,-682.95"/>
<polygon fill="#63b8ff" stroke="#63b8ff" points="510.5,-685.9 520.52,-689.32 514.82,-680.39 510.5,-685.9"/>
</a>
</g>
</g>
<!-- Node58 -->
<g id="Node000058" class="node">
<title>Node58</title>
<g id="a_Node000058"><a xlink:href="../../d1/d86/namespacefl_1_1third__party_a33cd86caf5740005c48fd124fa5cbd08.html#a33cd86caf5740005c48fd124fa5cbd08" target="_top" xlink:title=" ">
<polygon fill="#fff0f0" stroke="red" points="668,-671.5 518,-671.5 518,-641.5 668,-641.5 668,-671.5"/>
<text text-anchor="start" x="526" y="-659.5" font-family="Helvetica,sans-Serif" font-size="10.00">fl::third_party::UnpackScale</text>
<text text-anchor="middle" x="593" y="-648.5" font-family="Helvetica,sans-Serif" font-size="10.00">Factors</text>
</a>
</g>
</g>
<!-- Node6&#45;&gt;Node58 -->
<g id="edge23_Node000006_Node000058" class="edge">
<title>Node6&#45;&gt;Node58</title>
<g id="a_edge23_Node000006_Node000058"><a xlink:title=" ">
<path fill="none" stroke="#63b8ff" d="M460.72,-493.13C465.6,-495.61 470.14,-498.68 474,-502.5 516.65,-544.63 467.92,-589.8 510,-632.5 510.94,-633.45 511.91,-634.36 512.91,-635.24"/>
<polygon fill="#63b8ff" stroke="#63b8ff" points="511.04,-638.21 521.18,-641.3 515.18,-632.56 511.04,-638.21"/>
</a>
</g>
</g>
<!-- Node65 -->
<g id="Node000065" class="node">
<title>Node65</title>
<g id="a_Node000065"><a xlink:href="../../d1/d86/namespacefl_1_1third__party_a8b30af9b2676d9c14a9453785a81a68d.html#a8b30af9b2676d9c14a9453785a81a68d" target="_top" xlink:title=" ">
<polygon fill="#fff0f0" stroke="red" points="675,-623 511,-623 511,-604 675,-604 675,-623"/>
<text text-anchor="middle" x="593" y="-611" font-family="Helvetica,sans-Serif" font-size="10.00">fl::third_party::UnpackSideInfo</text>
</a>
</g>
</g>
<!-- Node6&#45;&gt;Node65 -->
<g id="edge24_Node000006_Node000065" class="edge">
<title>Node6&#45;&gt;Node65</title>
<g id="a_edge24_Node000006_Node000065"><a xlink:title=" ">
<path fill="none" stroke="#63b8ff" d="M459.27,-493.04C464.63,-495.52 469.66,-498.62 474,-502.5 507.04,-532.05 476.35,-566.65 510,-595.5 511.33,-596.64 512.72,-597.72 514.15,-598.73"/>
<polygon fill="#63b8ff" stroke="#63b8ff" points="512.44,-601.78 522.84,-603.84 516,-595.75 512.44,-601.78"/>
</a>
</g>
</g>
<!-- Node23&#45;&gt;Node5 -->
<g id="edge11_Node000023_Node000005" class="edge">
<title>Node23&#45;&gt;Node5</title>
<g id="a_edge11_Node000023_Node000005"><a xlink:title=" ">
<path fill="none" stroke="#63b8ff" d="M631.63,-580.48C646.2,-583.2 662.57,-587.79 676,-595.5 717.85,-619.54 753.25,-665.21 770.75,-690.51"/>
<polygon fill="#63b8ff" stroke="#63b8ff" points="767.87,-692.5 776.37,-698.83 773.68,-688.58 767.87,-692.5"/>
</a>
</g>
</g>
<!-- Node27 -->
<g id="Node000027" class="node">
<title>Node27</title>
<g id="a_Node000027"><a xlink:href="../../d1/d86/namespacefl_1_1third__party_a05baed0c5c984bd972a6af14c7a4e4a8.html#a05baed0c5c984bd972a6af14c7a4e4a8" target="_top" xlink:title=" ">
<polygon fill="white" stroke="#666666" points="847.5,-275.5 719.5,-275.5 719.5,-245.5 847.5,-245.5 847.5,-275.5"/>
<text text-anchor="start" x="727.5" y="-263.5" font-family="Helvetica,sans-Serif" font-size="10.00">fl::third_party::MP3Find</text>
<text text-anchor="middle" x="783.5" y="-252.5" font-family="Helvetica,sans-Serif" font-size="10.00">SyncWord</text>
</a>
</g>
</g>
<!-- Node26&#45;&gt;Node27 -->
<g id="edge15_Node000026_Node000027" class="edge">
<title>Node26&#45;&gt;Node27</title>
<g id="a_edge15_Node000026_Node000027"><a xlink:title=" ">
<path fill="none" stroke="#63b8ff" d="M657.03,-287.12C673.76,-283.57 691.97,-279.71 709.2,-276.05"/>
<polygon fill="#63b8ff" stroke="#63b8ff" points="710.15,-279.43 719.21,-273.93 708.7,-272.58 710.15,-279.43"/>
</a>
</g>
</g>
<!-- Node26&#45;&gt;Node28 -->
<g id="edge16_Node000026_Node000028" class="edge">
<title>Node26&#45;&gt;Node28</title>
<g id="a_edge16_Node000026_Node000028"><a xlink:title=" ">
<path fill="none" stroke="#63b8ff" d="M657.35,-285.88C663.88,-283.23 670.22,-280.13 676,-276.5 696.25,-263.77 693.36,-251.48 712,-236.5 724.36,-226.57 739.49,-217.63 752.56,-210.74"/>
<polygon fill="#63b8ff" stroke="#63b8ff" points="754.34,-213.76 761.65,-206.09 751.15,-207.53 754.34,-213.76"/>
</a>
</g>
</g>
<!-- Node54&#45;&gt;Node54 -->
<g id="edge21_Node000054_Node000054" class="edge">
<title>Node54&#45;&gt;Node54</title>
<g id="a_edge21_Node000054_Node000054"><a xlink:title=" ">
<path fill="none" stroke="#63b8ff" d="M567.43,-755.1C548.11,-764.25 556.63,-775 593,-775 621.98,-775 633.28,-768.18 626.9,-760.77"/>
<polygon fill="#63b8ff" stroke="#63b8ff" points="628.81,-757.84 618.57,-755.1 624.87,-763.62 628.81,-757.84"/>
</a>
</g>
</g>
<!-- Node68&#45;&gt;Node27 -->
<g id="edge28_Node000068_Node000027" class="edge">
<title>Node68&#45;&gt;Node27</title>
<g id="a_edge28_Node000068_Node000027"><a xlink:title=" ">
<path fill="none" stroke="#63b8ff" d="M627.7,-191.52C658.97,-205.45 705.65,-226.25 739.57,-241.37"/>
<polygon fill="#63b8ff" stroke="#63b8ff" points="738.22,-244.6 748.77,-245.47 741.07,-238.2 738.22,-244.6"/>
</a>
</g>
</g>
<!-- Node68&#45;&gt;Node28 -->
<g id="edge29_Node000068_Node000028" class="edge">
<title>Node68&#45;&gt;Node28</title>
<g id="a_edge29_Node000068_Node000028"><a xlink:title=" ">
<path fill="none" stroke="#63b8ff" d="M660.19,-183.52C691.06,-186.8 726.34,-190.54 751.05,-193.16"/>
<polygon fill="#63b8ff" stroke="#63b8ff" points="750.96,-196.67 761.28,-194.25 751.7,-189.71 750.96,-196.67"/>
</a>
</g>
</g>
<!-- Node70 -->
<g id="Node000070" class="node">
<title>Node70</title>
<g id="a_Node000070"><a xlink:href="../../d1/d86/namespacefl_1_1third__party_a18e7f6dc16fd8ba3b907d6dd0f39a943.html#a18e7f6dc16fd8ba3b907d6dd0f39a943" target="_top" xlink:title=" ">
<polygon fill="white" stroke="#666666" points="465.5,-38.5 336.5,-38.5 336.5,-8.5 465.5,-8.5 465.5,-38.5"/>
<text text-anchor="start" x="344.5" y="-26.5" font-family="Helvetica,sans-Serif" font-size="10.00">fl::third_party::MP3Free</text>
<text text-anchor="middle" x="401" y="-15.5" font-family="Helvetica,sans-Serif" font-size="10.00">Decoder</text>
</a>
</g>
</g>
<!-- Node69&#45;&gt;Node70 -->
<g id="edge31_Node000069_Node000070" class="edge">
<title>Node69&#45;&gt;Node70</title>
<g id="a_edge31_Node000069_Node000070"><a xlink:title=" ">
<path fill="none" stroke="#63b8ff" d="M292.28,-41.45C303.49,-39.58 315.2,-37.63 326.58,-35.74"/>
<polygon fill="#63b8ff" stroke="#63b8ff" points="327.2,-39.18 336.49,-34.09 326.05,-32.28 327.2,-39.18"/>
</a>
</g>
</g>
<!-- Node72 -->
<g id="Node000072" class="node">
<title>Node72</title>
<g id="a_Node000072"><a xlink:href="../../d1/d86/namespacefl_1_1third__party_a1bbf019bbf634f1f38808152ea2231cf.html#a1bbf019bbf634f1f38808152ea2231cf" target="_top" xlink:title=" ">
<polygon fill="white" stroke="#666666" points="463,-86.5 339,-86.5 339,-56.5 463,-56.5 463,-86.5"/>
<text text-anchor="start" x="347" y="-74.5" font-family="Helvetica,sans-Serif" font-size="10.00">fl::third_party::MP3Init</text>
<text text-anchor="middle" x="401" y="-63.5" font-family="Helvetica,sans-Serif" font-size="10.00">Decoder</text>
</a>
</g>
</g>
<!-- Node69&#45;&gt;Node72 -->
<g id="edge33_Node000069_Node000072" class="edge">
<title>Node69&#45;&gt;Node72</title>
<g id="a_edge33_Node000069_Node000072"><a xlink:title=" ">
<path fill="none" stroke="#63b8ff" d="M292.28,-59.74C304.21,-61.04 316.69,-62.4 328.75,-63.72"/>
<polygon fill="#63b8ff" stroke="#63b8ff" points="328.45,-67.21 338.77,-64.81 329.21,-60.25 328.45,-67.21"/>
</a>
</g>
</g>
<!-- Node71 -->
<g id="Node000071" class="node">
<title>Node71</title>
<g id="a_Node000071"><a xlink:href="../../d1/d86/namespacefl_1_1third__party_aa452c12ebc341295c6b9f151a618daff.html#aa452c12ebc341295c6b9f151a618daff" target="_top" xlink:title=" ">
<polygon fill="white" stroke="#666666" points="855,-58 712,-58 712,-39 855,-39 855,-58"/>
<text text-anchor="middle" x="783.5" y="-46" font-family="Helvetica,sans-Serif" font-size="10.00">fl::third_party::FreeBuffers</text>
</a>
</g>
</g>
<!-- Node70&#45;&gt;Node71 -->
<g id="edge32_Node000070_Node000071" class="edge">
<title>Node70&#45;&gt;Node71</title>
<g id="a_edge32_Node000070_Node000071"><a xlink:title=" ">
<path fill="none" stroke="#63b8ff" d="M465.69,-27.68C530.52,-31.94 631.23,-38.56 701.65,-43.19"/>
<polygon fill="#63b8ff" stroke="#63b8ff" points="701.6,-46.69 711.81,-43.86 702.06,-39.71 701.6,-46.69"/>
</a>
</g>
</g>
<!-- Node73 -->
<g id="Node000073" class="node">
<title>Node73</title>
<g id="a_Node000073"><a xlink:href="../../d1/d86/namespacefl_1_1third__party_ad3f8eb47709e0da9639398c4ba575643.html#ad3f8eb47709e0da9639398c4ba575643" target="_top" xlink:title=" ">
<polygon fill="#fff0f0" stroke="red" points="656.5,-84.5 529.5,-84.5 529.5,-54.5 656.5,-54.5 656.5,-84.5"/>
<text text-anchor="start" x="537.5" y="-72.5" font-family="Helvetica,sans-Serif" font-size="10.00">fl::third_party::Allocate</text>
<text text-anchor="middle" x="593" y="-61.5" font-family="Helvetica,sans-Serif" font-size="10.00">Buffers</text>
</a>
</g>
</g>
<!-- Node72&#45;&gt;Node73 -->
<g id="edge34_Node000072_Node000073" class="edge">
<title>Node72&#45;&gt;Node73</title>
<g id="a_edge34_Node000072_Node000073"><a xlink:title=" ">
<path fill="none" stroke="#63b8ff" d="M463.16,-70.86C481.01,-70.67 500.69,-70.46 519.19,-70.27"/>
<polygon fill="#63b8ff" stroke="#63b8ff" points="519.36,-73.76 529.32,-70.16 519.28,-66.77 519.36,-73.76"/>
</a>
</g>
</g>
<!-- Node73&#45;&gt;Node71 -->
<g id="edge35_Node000073_Node000071" class="edge">
<title>Node73&#45;&gt;Node71</title>
<g id="a_edge35_Node000073_Node000071"><a xlink:title=" ">
<path fill="none" stroke="#63b8ff" d="M656.51,-62.54C670.87,-60.94 686.35,-59.21 701.38,-57.54"/>
<polygon fill="#63b8ff" stroke="#63b8ff" points="702.14,-60.97 711.69,-56.39 701.37,-54.02 702.14,-60.97"/>
</a>
</g>
</g>
</g>
</svg>

<g id="navigator" transform="translate(0 0)" fill="#404254">
  <rect fill="#f2f5e9" fill-opacity="0.5" stroke="#606060" stroke-width=".5" x="0" y="0" width="60" height="60"/>
  <use id="zoomplus" xlink:href="#zoomPlus" x="17" y="9" onmousedown="handleZoom(evt,'in')"/>
  <use id="zoomminus" xlink:href="#zoomMin" x="42" y="9" onmousedown="handleZoom(evt,'out')"/>
  <use id="reset" xlink:href="#resetDef" x="30" y="36" onmousedown="handleReset()"/>
   <use id="arrowup" xlink:href="#arrowUp" x="0" y="0" onmousedown="handlePan(0,-1)"/>
  <use id="arrowright" xlink:href="#arrowRight" x="0" y="0" onmousedown="handlePan(1,0)"/>
  <use id="arrowdown" xlink:href="#arrowDown" x="0" y="0" onmousedown="handlePan(0,1)"/>
  <use id="arrowleft" xlink:href="#arrowLeft" x="0" y="0" onmousedown="handlePan(-1,0)"/>
</g>
<svg viewBox="0 0 15 15" width="100%" height="30px" preserveAspectRatio="xMaxYMin meet">
 <g id="arrow_out" transform="scale(0.3 0.3)">
  <a xlink:href="classfl_1_1_mp3_a05c327e508e430bc8959024aa100d1ab_a05c327e508e430bc8959024aa100d1ab_cgraph_org.svg" target="_base">
   <rect id="button" ry="5" rx="5" y="6" x="6" height="38" width="38"
        fill="#f2f5e9" fill-opacity="0.5" stroke="#606060" stroke-width="1.0"/>
   <path id="arrow"
     d="M 11.500037,31.436501 C 11.940474,20.09759 22.043105,11.32322 32.158766,21.979434 L 37.068811,17.246167 C 37.068811,17.246167 37.088388,32 37.088388,32 L 22.160133,31.978069 C 22.160133,31.978069 26.997745,27.140456 26.997745,27.140456 C 18.528582,18.264221 13.291696,25.230495 11.500037,31.436501 z"
     style="fill:#404040;"/>
  </a>
 </g>
</svg>

<style type='text/css'>
<![CDATA[
[data-mouse-over-selected='false'] { opacity: 0.7; }
[data-mouse-over-selected='true']  { opacity: 1.0; }
]]>
</style>
<script type="application/ecmascript"><![CDATA[
document.addEventListener('DOMContentLoaded', (event) => {
  highlightEdges();
  highlightAdjacentNodes();
});
]]></script>
</svg>
