<?xml version="1.0" encoding="UTF-8" standalone="no"?>
<!DOCTYPE svg PUBLIC "-//W3C//DTD SVG 1.1//EN"
 "http://www.w3.org/Graphics/SVG/1.1/DTD/svg11.dtd">
<!-- Generated by graphviz version 2.43.0 (0)
 -->
<!-- Title: fl/task/promise_result.h Pages: 1 -->
<!--zoomable 379 -->

<svg id="main" version="1.1" xmlns="http://www.w3.org/2000/svg" xmlns:xlink="http://www.w3.org/1999/xlink" xml:space="preserve" onload="init(evt)">

<style type="text/css"><![CDATA[
.node, .edge {opacity: 0.7;}
.node.selected, .edge.selected {opacity: 1;}
.edge:hover path { stroke: red; }
.edge:hover polygon { stroke: red; fill: red; }
]]></style>

<defs>
  <circle id="rim" cx="0" cy="0" r="7"/>
  <circle id="rim2" cx="0" cy="0" r="3.5"/>
  <g id="zoomPlus">
    <use xlink:href="#rim" fill="#404040"><set attributeName="fill" to="#808080" begin="zoomplus.mouseover" end="zoomplus.mouseout"/></use>
    <path d="M-4,0h8M0,-4v8" fill="none" stroke="white" stroke-width="1.5" pointer-events="none"/>
  </g>
  <g id="zoomMin">
    <use xlink:href="#rim" fill="#404040"><set attributeName="fill" to="#808080" begin="zoomminus.mouseover" end="zoomminus.mouseout"/></use>
    <path d="M-4,0h8" fill="none" stroke="white" stroke-width="1.5" pointer-events="none"/>
  </g>
  <g id="arrowUp" transform="translate(30 24)">
    <use xlink:href="#rim"/>
    <path pointer-events="none" fill="none" stroke="white" stroke-width="1.5" d="M0,-3.0v7 M-2.5,-0.5L0,-3.0L2.5,-0.5"/>
  </g>
  <g id="arrowRight" transform="rotate(90) translate(36 -43)">
    <use xlink:href="#rim"/>
    <path pointer-events="none" fill="none" stroke="white" stroke-width="1.5" d="M0,-3.0v7 M-2.5,-0.5L0,-3.0L2.5,-0.5"/>
  </g>
  <g id="arrowDown" transform="rotate(180) translate(-30 -48)">
    <use xlink:href="#rim"/>
    <path pointer-events="none" fill="none" stroke="white" stroke-width="1.5" d="M0,-3.0v7 M-2.5,-0.5L0,-3.0L2.5,-0.5"/>
  </g>
  <g id="arrowLeft" transform="rotate(270) translate(-36 17)">
    <use xlink:href="#rim"/>
    <path pointer-events="none" fill="none" stroke="white" stroke-width="1.5" d="M0,-3.0v7 M-2.5,-0.5L0,-3.0L2.5,-0.5"/>
  </g>
  <g id="resetDef">
    <use xlink:href="#rim2" fill="#404040"><set attributeName="fill" to="#808080" begin="reset.mouseover" end="reset.mouseout"/></use>
  </g>
</defs>
<script type="application/ecmascript">
var viewWidth = 2225;
var viewHeight = 379;
var sectionId = 'dynsection-1';
</script>
<script type="application/ecmascript" xlink:href="../../svg.min.js"/>
<svg id="graph" class="graph">
<g id="viewport">
<title>fl/task/promise_result.h</title>
<!-- Node1 -->
<g id="Node000001" class="node">
<title>Node1</title>
<g id="a_Node000001"><a xlink:title=" ">
<polygon fill="#999999" stroke="#666666" points="1253.5,-371 1122.5,-371 1122.5,-352 1253.5,-352 1253.5,-371"/>
<text text-anchor="middle" x="1188" y="-359" font-family="Helvetica,sans-Serif" font-size="10.00">fl/task/promise_result.h</text>
</a>
</g>
</g>
<!-- Node2 -->
<g id="Node000002" class="node">
<title>Node2</title>
<g id="a_Node000002"><a xlink:href="../../dd/d40/executor_8h.html" target="_top" xlink:title="Task executor — runs registered task runners and manages the run loop.">
<polygon fill="white" stroke="#666666" points="1238,-316 1138,-316 1138,-297 1238,-297 1238,-316"/>
<text text-anchor="middle" x="1188" y="-304" font-family="Helvetica,sans-Serif" font-size="10.00">fl/task/executor.h</text>
</a>
</g>
</g>
<!-- Node1&#45;&gt;Node2 -->
<g id="edge1_Node000001_Node000002" class="edge">
<title>Node1&#45;&gt;Node2</title>
<g id="a_edge1_Node000001_Node000002"><a xlink:title=" ">
<path fill="none" stroke="#63b8ff" d="M1188,-341.66C1188,-332.93 1188,-322.99 1188,-316.09"/>
<polygon fill="#63b8ff" stroke="#63b8ff" points="1184.5,-341.75 1188,-351.75 1191.5,-341.75 1184.5,-341.75"/>
</a>
</g>
</g>
<!-- Node3 -->
<g id="Node000003" class="node">
<title>Node3</title>
<g id="a_Node000003"><a xlink:href="../../df/d01/_client_real_8h.html" target="_top" xlink:title=" ">
<polygon fill="white" stroke="#666666" points="154,-178.5 4,-178.5 4,-137.5 154,-137.5 154,-178.5"/>
<text text-anchor="start" x="12" y="-166.5" font-family="Helvetica,sans-Serif" font-size="10.00">/home/runner/work/FastLED</text>
<text text-anchor="start" x="12" y="-155.5" font-family="Helvetica,sans-Serif" font-size="10.00">/FastLED/examples/Asio</text>
<text text-anchor="middle" x="79" y="-144.5" font-family="Helvetica,sans-Serif" font-size="10.00">/Client/ClientReal.h</text>
</a>
</g>
</g>
<!-- Node2&#45;&gt;Node3 -->
<g id="edge2_Node000002_Node000003" class="edge">
<title>Node2&#45;&gt;Node3</title>
<g id="a_edge2_Node000002_Node000003"><a xlink:title=" ">
<path fill="none" stroke="#63b8ff" d="M1127.79,-305.37C955.3,-304.55 461.63,-298.86 305,-261 232.61,-243.5 154.85,-203.07 112.04,-178.7"/>
<polygon fill="#63b8ff" stroke="#63b8ff" points="1127.94,-308.87 1137.96,-305.42 1127.97,-301.87 1127.94,-308.87"/>
</a>
</g>
</g>
<!-- Node5 -->
<g id="Node000005" class="node">
<title>Node5</title>
<g id="a_Node000005"><a xlink:href="../../d9/dce/_client_validation_real_8h.html" target="_top" xlink:title=" ">
<polygon fill="white" stroke="#666666" points="348.5,-184 171.5,-184 171.5,-132 348.5,-132 348.5,-184"/>
<text text-anchor="start" x="179.5" y="-172" font-family="Helvetica,sans-Serif" font-size="10.00">/home/runner/work/FastLED</text>
<text text-anchor="start" x="179.5" y="-161" font-family="Helvetica,sans-Serif" font-size="10.00">/FastLED/examples/Asio</text>
<text text-anchor="start" x="179.5" y="-150" font-family="Helvetica,sans-Serif" font-size="10.00">/ClientValidation/ClientValidation</text>
<text text-anchor="middle" x="260" y="-139" font-family="Helvetica,sans-Serif" font-size="10.00">Real.h</text>
</a>
</g>
</g>
<!-- Node2&#45;&gt;Node5 -->
<g id="edge4_Node000002_Node000005" class="edge">
<title>Node2&#45;&gt;Node5</title>
<g id="a_edge4_Node000002_Node000005"><a xlink:title=" ">
<path fill="none" stroke="#63b8ff" d="M1127.82,-304.73C949.39,-302.12 431.31,-291.92 362,-261 325.41,-244.68 294.71,-208.91 276.84,-184.39"/>
<polygon fill="#63b8ff" stroke="#63b8ff" points="1127.78,-308.23 1137.83,-304.88 1127.88,-301.23 1127.78,-308.23"/>
</a>
</g>
</g>
<!-- Node7 -->
<g id="Node000007" class="node">
<title>Node7</title>
<g id="a_Node000007"><a xlink:href="../../d3/d3a/_async_8h.html" target="_top" xlink:title=" ">
<polygon fill="white" stroke="#666666" points="1080,-261 930,-261 930,-220 1080,-220 1080,-261"/>
<text text-anchor="start" x="938" y="-249" font-family="Helvetica,sans-Serif" font-size="10.00">/home/runner/work/FastLED</text>
<text text-anchor="start" x="938" y="-238" font-family="Helvetica,sans-Serif" font-size="10.00">/FastLED/examples/Async</text>
<text text-anchor="middle" x="1005" y="-227" font-family="Helvetica,sans-Serif" font-size="10.00">/Async.h</text>
</a>
</g>
</g>
<!-- Node2&#45;&gt;Node7 -->
<g id="edge6_Node000002_Node000007" class="edge">
<title>Node2&#45;&gt;Node7</title>
<g id="a_edge6_Node000002_Node000007"><a xlink:title=" ">
<path fill="none" stroke="#63b8ff" d="M1153.85,-293.56C1127.73,-284.42 1091.14,-271.63 1060.78,-261.01"/>
<polygon fill="#63b8ff" stroke="#63b8ff" points="1152.72,-296.87 1163.32,-296.87 1155.04,-290.26 1152.72,-296.87"/>
</a>
</g>
</g>
<!-- Node9 -->
<g id="Node000009" class="node">
<title>Node9</title>
<g id="a_Node000009"><a xlink:href="../../d2/df4/_auto_research_async_8h.html" target="_top" xlink:title=" ">
<polygon fill="white" stroke="#666666" points="1277.5,-261 1098.5,-261 1098.5,-220 1277.5,-220 1277.5,-261"/>
<text text-anchor="start" x="1106.5" y="-249" font-family="Helvetica,sans-Serif" font-size="10.00">/home/runner/work/FastLED</text>
<text text-anchor="start" x="1106.5" y="-238" font-family="Helvetica,sans-Serif" font-size="10.00">/FastLED/examples/AutoResearch</text>
<text text-anchor="middle" x="1188" y="-227" font-family="Helvetica,sans-Serif" font-size="10.00">/AutoResearchAsync.h</text>
</a>
</g>
</g>
<!-- Node2&#45;&gt;Node9 -->
<g id="edge8_Node000002_Node000009" class="edge">
<title>Node2&#45;&gt;Node9</title>
<g id="a_edge8_Node000002_Node000009"><a xlink:title=" ">
<path fill="none" stroke="#63b8ff" d="M1188,-286.63C1188,-278.56 1188,-269.15 1188,-261.01"/>
<polygon fill="#63b8ff" stroke="#63b8ff" points="1184.5,-286.87 1188,-296.87 1191.5,-286.87 1184.5,-286.87"/>
</a>
</g>
</g>
<!-- Node11 -->
<g id="Node000011" class="node">
<title>Node11</title>
<g id="a_Node000011"><a xlink:href="../../db/dfb/_auto_research_remote_8cpp.html" target="_top" xlink:title=" ">
<polygon fill="white" stroke="#666666" points="1474.5,-261 1295.5,-261 1295.5,-220 1474.5,-220 1474.5,-261"/>
<text text-anchor="start" x="1303.5" y="-249" font-family="Helvetica,sans-Serif" font-size="10.00">/home/runner/work/FastLED</text>
<text text-anchor="start" x="1303.5" y="-238" font-family="Helvetica,sans-Serif" font-size="10.00">/FastLED/examples/AutoResearch</text>
<text text-anchor="middle" x="1385" y="-227" font-family="Helvetica,sans-Serif" font-size="10.00">/AutoResearchRemote.cpp</text>
</a>
</g>
</g>
<!-- Node2&#45;&gt;Node11 -->
<g id="edge10_Node000002_Node000011" class="edge">
<title>Node2&#45;&gt;Node11</title>
<g id="a_edge10_Node000002_Node000011"><a xlink:title=" ">
<path fill="none" stroke="#63b8ff" d="M1224.39,-293.68C1252.54,-284.53 1292.12,-271.67 1324.95,-261.01"/>
<polygon fill="#63b8ff" stroke="#63b8ff" points="1223,-290.45 1214.57,-296.87 1225.16,-297.11 1223,-290.45"/>
</a>
</g>
</g>
<!-- Node12 -->
<g id="Node000012" class="node">
<title>Node12</title>
<g id="a_Node000012"><a xlink:href="../../db/d97/_fast_l_e_d_8h.html" target="_top" xlink:title="central include file for FastLED, defines the CFastLED class/object">
<polygon fill="white" stroke="#666666" points="1557,-250 1493,-250 1493,-231 1557,-231 1557,-250"/>
<text text-anchor="middle" x="1525" y="-238" font-family="Helvetica,sans-Serif" font-size="10.00">FastLED.h</text>
</a>
</g>
</g>
<!-- Node2&#45;&gt;Node12 -->
<g id="edge11_Node000002_Node000012" class="edge">
<title>Node2&#45;&gt;Node12</title>
<g id="a_edge11_Node000002_Node000012"><a xlink:title=" ">
<path fill="none" stroke="#63b8ff" d="M1248.13,-301.47C1308.54,-296.25 1403.76,-284.84 1483,-261 1492.08,-258.27 1501.72,-253.91 1509.46,-250.01"/>
<polygon fill="#63b8ff" stroke="#63b8ff" points="1247.69,-297.99 1238.01,-302.31 1248.27,-304.97 1247.69,-297.99"/>
</a>
</g>
</g>
<!-- Node16 -->
<g id="Node000016" class="node">
<title>Node16</title>
<g id="a_Node000016"><a xlink:href="../../df/dc5/fl_2channels_2driver_8cpp_8hpp.html" target="_top" xlink:title=" ">
<polygon fill="white" stroke="#666666" points="1890.5,-250 1749.5,-250 1749.5,-231 1890.5,-231 1890.5,-250"/>
<text text-anchor="middle" x="1820" y="-238" font-family="Helvetica,sans-Serif" font-size="10.00">fl/channels/driver.cpp.hpp</text>
</a>
</g>
</g>
<!-- Node2&#45;&gt;Node16 -->
<g id="edge13_Node000002_Node000016" class="edge">
<title>Node2&#45;&gt;Node16</title>
<g id="a_edge13_Node000002_Node000016"><a xlink:title=" ">
<path fill="none" stroke="#63b8ff" d="M1248.27,-303.77C1350.16,-300.14 1562.66,-289.58 1740,-261 1756.65,-258.32 1774.95,-253.96 1789.84,-250.05"/>
<polygon fill="#63b8ff" stroke="#63b8ff" points="1248.05,-300.27 1238.17,-304.12 1248.29,-307.27 1248.05,-300.27"/>
</a>
</g>
</g>
<!-- Node20 -->
<g id="Node000020" class="node">
<title>Node20</title>
<g id="a_Node000020"><a xlink:href="../../d2/dd3/manager_8cpp_8hpp.html" target="_top" xlink:title=" ">
<polygon fill="white" stroke="#666666" points="1731,-250 1575,-250 1575,-231 1731,-231 1731,-250"/>
<text text-anchor="middle" x="1653" y="-238" font-family="Helvetica,sans-Serif" font-size="10.00">fl/channels/manager.cpp.hpp</text>
</a>
</g>
</g>
<!-- Node2&#45;&gt;Node20 -->
<g id="edge15_Node000002_Node000020" class="edge">
<title>Node2&#45;&gt;Node20</title>
<g id="a_edge15_Node000002_Node000020"><a xlink:title=" ">
<path fill="none" stroke="#63b8ff" d="M1248.25,-300.34C1323.07,-293.5 1454.48,-280.01 1566,-261 1583.55,-258.01 1602.89,-253.77 1618.87,-250.01"/>
<polygon fill="#63b8ff" stroke="#63b8ff" points="1247.71,-296.88 1238.07,-301.27 1248.35,-303.85 1247.71,-296.88"/>
</a>
</g>
</g>
<!-- Node21 -->
<g id="Node000021" class="node">
<title>Node21</title>
<g id="a_Node000021"><a xlink:href="../../de/daa/fetch_8cpp_8hpp.html" target="_top" xlink:title=" ">
<polygon fill="white" stroke="#666666" points="768.5,-85 635.5,-85 635.5,-66 768.5,-66 768.5,-85"/>
<text text-anchor="middle" x="702" y="-73" font-family="Helvetica,sans-Serif" font-size="10.00">fl/net/http/fetch.cpp.hpp</text>
</a>
</g>
</g>
<!-- Node2&#45;&gt;Node21 -->
<g id="edge17_Node000002_Node000021" class="edge">
<title>Node2&#45;&gt;Node21</title>
<g id="a_edge17_Node000002_Node000021"><a xlink:title=" ">
<path fill="none" stroke="#63b8ff" d="M1128,-303.62C995.28,-299.07 680.42,-285.92 577,-261 491.61,-240.42 443.52,-257.21 395,-184 336.51,-95.74 528.38,-79.1 635.26,-76.51"/>
<polygon fill="#63b8ff" stroke="#63b8ff" points="1127.88,-307.12 1137.99,-303.96 1128.12,-300.12 1127.88,-307.12"/>
</a>
</g>
</g>
<!-- Node25 -->
<g id="Node000025" class="node">
<title>Node25</title>
<g id="a_Node000025"><a xlink:href="../../d6/d6a/fetch_8h.html" target="_top" xlink:title="Unified HTTP fetch API for FastLED (cross&#45;platform)">
<polygon fill="white" stroke="#666666" points="687.5,-250 586.5,-250 586.5,-231 687.5,-231 687.5,-250"/>
<text text-anchor="middle" x="637" y="-238" font-family="Helvetica,sans-Serif" font-size="10.00">fl/net/http/fetch.h</text>
</a>
</g>
</g>
<!-- Node2&#45;&gt;Node25 -->
<g id="edge19_Node000002_Node000025" class="edge">
<title>Node2&#45;&gt;Node25</title>
<g id="a_edge19_Node000002_Node000025"><a xlink:title=" ">
<path fill="none" stroke="#63b8ff" d="M1127.44,-298.47C1018.1,-285.77 789.64,-259.23 687.84,-247.41"/>
<polygon fill="#63b8ff" stroke="#63b8ff" points="1127.3,-301.97 1137.64,-299.65 1128.11,-295.02 1127.3,-301.97"/>
</a>
</g>
</g>
<!-- Node31 -->
<g id="Node000031" class="node">
<title>Node31</title>
<g id="a_Node000031"><a xlink:href="../../d8/d7a/fetch__request_8cpp_8hpp.html" target="_top" xlink:title=" ">
<polygon fill="white" stroke="#666666" points="961.5,-85 786.5,-85 786.5,-66 961.5,-66 961.5,-85"/>
<text text-anchor="middle" x="874" y="-73" font-family="Helvetica,sans-Serif" font-size="10.00">fl/net/http/fetch_request.cpp.hpp</text>
</a>
</g>
</g>
<!-- Node2&#45;&gt;Node31 -->
<g id="edge29_Node000002_Node000031" class="edge">
<title>Node2&#45;&gt;Node31</title>
<g id="a_edge29_Node000002_Node000031"><a xlink:title=" ">
<path fill="none" stroke="#63b8ff" d="M1127.54,-302.94C1058.23,-298.76 950.37,-288 921,-261 907.55,-248.64 882.3,-120.12 875.64,-85.21"/>
<polygon fill="#63b8ff" stroke="#63b8ff" points="1127.71,-306.46 1137.9,-303.54 1128.11,-299.47 1127.71,-306.46"/>
</a>
</g>
</g>
<!-- Node32 -->
<g id="Node000032" class="node">
<title>Node32</title>
<g id="a_Node000032"><a xlink:href="../../da/d52/stl_2asio_2http_2server_8cpp_8hpp.html" target="_top" xlink:title=" ">
<polygon fill="white" stroke="#666666" points="2067,-250 1909,-250 1909,-231 2067,-231 2067,-250"/>
<text text-anchor="middle" x="1988" y="-238" font-family="Helvetica,sans-Serif" font-size="10.00">fl/stl/asio/http/server.cpp.hpp</text>
</a>
</g>
</g>
<!-- Node2&#45;&gt;Node32 -->
<g id="edge30_Node000002_Node000032" class="edge">
<title>Node2&#45;&gt;Node32</title>
<g id="a_edge30_Node000002_Node000032"><a xlink:title=" ">
<path fill="none" stroke="#63b8ff" d="M1248.6,-304.83C1371.74,-302.78 1659.78,-294.49 1899,-261 1917.64,-258.39 1938.18,-253.99 1954.83,-250.03"/>
<polygon fill="#63b8ff" stroke="#63b8ff" points="1248.21,-301.34 1238.26,-304.99 1248.32,-308.33 1248.21,-301.34"/>
</a>
</g>
</g>
<!-- Node37 -->
<g id="Node000037" class="node">
<title>Node37</title>
<g id="a_Node000037"><a xlink:href="../../dc/de9/executor_8cpp_8hpp.html" target="_top" xlink:title=" ">
<polygon fill="white" stroke="#666666" points="2217,-250 2085,-250 2085,-231 2217,-231 2217,-250"/>
<text text-anchor="middle" x="2151" y="-238" font-family="Helvetica,sans-Serif" font-size="10.00">fl/task/executor.cpp.hpp</text>
</a>
</g>
</g>
<!-- Node2&#45;&gt;Node37 -->
<g id="edge32_Node000002_Node000037" class="edge">
<title>Node2&#45;&gt;Node37</title>
<g id="a_edge32_Node000002_Node000037"><a xlink:title=" ">
<path fill="none" stroke="#63b8ff" d="M1248.29,-304.08C1421.06,-299.77 1915.83,-285.57 2076,-261 2091.96,-258.55 2109.43,-254.11 2123.5,-250.09"/>
<polygon fill="#63b8ff" stroke="#63b8ff" points="1248.02,-300.59 1238.11,-304.34 1248.19,-307.59 1248.02,-300.59"/>
</a>
</g>
</g>
<!-- Node4 -->
<g id="Node000004" class="node">
<title>Node4</title>
<g id="a_Node000004"><a xlink:href="../../d8/d11/_client_8ino.html" target="_top" xlink:title="Educational tutorial for FastLED HTTP fetch API with explicit types.">
<polygon fill="white" stroke="#666666" points="150,-96 0,-96 0,-55 150,-55 150,-96"/>
<text text-anchor="start" x="8" y="-84" font-family="Helvetica,sans-Serif" font-size="10.00">/home/runner/work/FastLED</text>
<text text-anchor="start" x="8" y="-73" font-family="Helvetica,sans-Serif" font-size="10.00">/FastLED/examples/Asio</text>
<text text-anchor="middle" x="75" y="-62" font-family="Helvetica,sans-Serif" font-size="10.00">/Client/Client.ino</text>
</a>
</g>
</g>
<!-- Node3&#45;&gt;Node4 -->
<g id="edge3_Node000003_Node000004" class="edge">
<title>Node3&#45;&gt;Node4</title>
<g id="a_edge3_Node000003_Node000004"><a xlink:title=" ">
<path fill="none" stroke="#63b8ff" d="M77.5,-126.87C76.99,-116.6 76.44,-105.4 75.98,-96.17"/>
<polygon fill="#63b8ff" stroke="#63b8ff" points="74.02,-127.29 78.01,-137.1 81.01,-126.94 74.02,-127.29"/>
</a>
</g>
</g>
<!-- Node6 -->
<g id="Node000006" class="node">
<title>Node6</title>
<g id="a_Node000006"><a xlink:href="../../d8/d5b/_client_validation_8ino.html" target="_top" xlink:title="HTTP Client Validation Suite for FastLED fetch API.">
<polygon fill="white" stroke="#666666" points="362.5,-96 167.5,-96 167.5,-55 362.5,-55 362.5,-96"/>
<text text-anchor="start" x="175.5" y="-84" font-family="Helvetica,sans-Serif" font-size="10.00">/home/runner/work/FastLED</text>
<text text-anchor="start" x="175.5" y="-73" font-family="Helvetica,sans-Serif" font-size="10.00">/FastLED/examples/Asio</text>
<text text-anchor="middle" x="265" y="-62" font-family="Helvetica,sans-Serif" font-size="10.00">/ClientValidation/ClientValidation.ino</text>
</a>
</g>
</g>
<!-- Node5&#45;&gt;Node6 -->
<g id="edge5_Node000005_Node000006" class="edge">
<title>Node5&#45;&gt;Node6</title>
<g id="a_edge5_Node000005_Node000006"><a xlink:title=" ">
<path fill="none" stroke="#63b8ff" d="M262.18,-121.87C262.73,-113.05 263.3,-103.9 263.78,-96.15"/>
<polygon fill="#63b8ff" stroke="#63b8ff" points="258.68,-121.77 261.55,-131.97 265.67,-122.21 258.68,-121.77"/>
</a>
</g>
</g>
<!-- Node8 -->
<g id="Node000008" class="node">
<title>Node8</title>
<g id="a_Node000008"><a xlink:href="../../dc/dd7/_async_8ino.html" target="_top" xlink:title=" ">
<polygon fill="white" stroke="#666666" points="1080,-178.5 930,-178.5 930,-137.5 1080,-137.5 1080,-178.5"/>
<text text-anchor="start" x="938" y="-166.5" font-family="Helvetica,sans-Serif" font-size="10.00">/home/runner/work/FastLED</text>
<text text-anchor="start" x="938" y="-155.5" font-family="Helvetica,sans-Serif" font-size="10.00">/FastLED/examples/Async</text>
<text text-anchor="middle" x="1005" y="-144.5" font-family="Helvetica,sans-Serif" font-size="10.00">/Async.ino</text>
</a>
</g>
</g>
<!-- Node7&#45;&gt;Node8 -->
<g id="edge7_Node000007_Node000008" class="edge">
<title>Node7&#45;&gt;Node8</title>
<g id="a_edge7_Node000007_Node000008"><a xlink:title=" ">
<path fill="none" stroke="#63b8ff" d="M1005,-209.37C1005,-199.1 1005,-187.9 1005,-178.67"/>
<polygon fill="#63b8ff" stroke="#63b8ff" points="1001.5,-209.6 1005,-219.6 1008.5,-209.6 1001.5,-209.6"/>
</a>
</g>
</g>
<!-- Node10 -->
<g id="Node000010" class="node">
<title>Node10</title>
<g id="a_Node000010"><a xlink:href="../../dd/dc8/_auto_research_8ino.html" target="_top" xlink:title=" ">
<polygon fill="white" stroke="#666666" points="1277.5,-178.5 1098.5,-178.5 1098.5,-137.5 1277.5,-137.5 1277.5,-178.5"/>
<text text-anchor="start" x="1106.5" y="-166.5" font-family="Helvetica,sans-Serif" font-size="10.00">/home/runner/work/FastLED</text>
<text text-anchor="start" x="1106.5" y="-155.5" font-family="Helvetica,sans-Serif" font-size="10.00">/FastLED/examples/AutoResearch</text>
<text text-anchor="middle" x="1188" y="-144.5" font-family="Helvetica,sans-Serif" font-size="10.00">/AutoResearch.ino</text>
</a>
</g>
</g>
<!-- Node9&#45;&gt;Node10 -->
<g id="edge9_Node000009_Node000010" class="edge">
<title>Node9&#45;&gt;Node10</title>
<g id="a_edge9_Node000009_Node000010"><a xlink:title=" ">
<path fill="none" stroke="#63b8ff" d="M1188,-209.37C1188,-199.1 1188,-187.9 1188,-178.67"/>
<polygon fill="#63b8ff" stroke="#63b8ff" points="1184.5,-209.6 1188,-219.6 1191.5,-209.6 1184.5,-209.6"/>
</a>
</g>
</g>
<!-- Node13 -->
<g id="Node000013" class="node">
<title>Node13</title>
<g id="a_Node000013"><a xlink:href="../../d7/de5/_fast_l_e_d_8cpp_8hpp.html" target="_top" xlink:title=" ">
<polygon fill="#fff0f0" stroke="red" points="1573,-167.5 1477,-167.5 1477,-148.5 1573,-148.5 1573,-167.5"/>
<text text-anchor="middle" x="1525" y="-155.5" font-family="Helvetica,sans-Serif" font-size="10.00">FastLED.cpp.hpp</text>
</a>
</g>
</g>
<!-- Node12&#45;&gt;Node13 -->
<g id="edge12_Node000012_Node000013" class="edge">
<title>Node12&#45;&gt;Node13</title>
<g id="a_edge12_Node000012_Node000013"><a xlink:title=" ">
<path fill="none" stroke="#63b8ff" d="M1525,-220.67C1525,-204.01 1525,-180.43 1525,-167.8"/>
<polygon fill="#63b8ff" stroke="#63b8ff" points="1521.5,-220.89 1525,-230.89 1528.5,-220.89 1521.5,-220.89"/>
</a>
</g>
</g>
<!-- Node17 -->
<g id="Node000017" class="node">
<title>Node17</title>
<g id="a_Node000017"><a xlink:href="../../d1/d97/fl_2channels_2__build_8cpp_8hpp.html" target="_top" xlink:title=" ">
<polygon fill="#fff0f0" stroke="red" points="1813.5,-167.5 1670.5,-167.5 1670.5,-148.5 1813.5,-148.5 1813.5,-167.5"/>
<text text-anchor="middle" x="1742" y="-155.5" font-family="Helvetica,sans-Serif" font-size="10.00">fl/channels/_build.cpp.hpp</text>
</a>
</g>
</g>
<!-- Node16&#45;&gt;Node17 -->
<g id="edge14_Node000016_Node000017" class="edge">
<title>Node16&#45;&gt;Node17</title>
<g id="a_edge14_Node000016_Node000017"><a xlink:title=" ">
<path fill="none" stroke="#63b8ff" d="M1804.48,-223.48C1788.28,-206.76 1763.47,-181.15 1750.52,-167.8"/>
<polygon fill="#63b8ff" stroke="#63b8ff" points="1802.18,-226.14 1811.65,-230.89 1807.21,-221.27 1802.18,-226.14"/>
</a>
</g>
</g>
<!-- Node20&#45;&gt;Node17 -->
<g id="edge16_Node000020_Node000017" class="edge">
<title>Node20&#45;&gt;Node17</title>
<g id="a_edge16_Node000020_Node000017"><a xlink:title=" ">
<path fill="none" stroke="#63b8ff" d="M1670,-224.12C1688.58,-207.32 1717.67,-181.01 1732.54,-167.55"/>
<polygon fill="#63b8ff" stroke="#63b8ff" points="1667.59,-221.58 1662.52,-230.89 1672.29,-226.77 1667.59,-221.58"/>
</a>
</g>
</g>
<!-- Node22 -->
<g id="Node000022" class="node">
<title>Node22</title>
<g id="a_Node000022"><a xlink:href="../../db/d91/fl_2net_2http_2__build_8cpp_8hpp.html" target="_top" xlink:title="Unity build header for fl/net/http/ directory.">
<polygon fill="#fff0f0" stroke="red" points="856.5,-19 719.5,-19 719.5,0 856.5,0 856.5,-19"/>
<text text-anchor="middle" x="788" y="-7" font-family="Helvetica,sans-Serif" font-size="10.00">fl/net/http/_build.cpp.hpp</text>
</a>
</g>
</g>
<!-- Node21&#45;&gt;Node22 -->
<g id="edge18_Node000021_Node000022" class="edge">
<title>Node21&#45;&gt;Node22</title>
<g id="a_edge18_Node000021_Node000022"><a xlink:title=" ">
<path fill="none" stroke="#63b8ff" d="M721.71,-59.83C738.57,-47.28 762.29,-29.63 776.31,-19.2"/>
<polygon fill="#63b8ff" stroke="#63b8ff" points="719.53,-57.09 713.6,-65.87 723.71,-62.71 719.53,-57.09"/>
</a>
</g>
</g>
<!-- Node25&#45;&gt;Node3 -->
<g id="edge20_Node000025_Node000003" class="edge">
<title>Node25&#45;&gt;Node3</title>
<g id="a_edge20_Node000025_Node000003"><a xlink:title=" ">
<path fill="none" stroke="#63b8ff" d="M576.14,-235.83C485.25,-229.58 308.97,-214.47 162,-184 154.63,-182.47 146.98,-180.59 139.43,-178.54"/>
<polygon fill="#63b8ff" stroke="#63b8ff" points="576.05,-239.34 586.26,-236.52 576.52,-232.35 576.05,-239.34"/>
</a>
</g>
</g>
<!-- Node25&#45;&gt;Node5 -->
<g id="edge21_Node000025_Node000005" class="edge">
<title>Node25&#45;&gt;Node5</title>
<g id="a_edge21_Node000025_Node000005"><a xlink:title=" ">
<path fill="none" stroke="#63b8ff" d="M586.92,-228.81C526.21,-215.84 422.81,-193.77 348.55,-177.91"/>
<polygon fill="#63b8ff" stroke="#63b8ff" points="586.5,-232.3 597.01,-230.96 587.96,-225.45 586.5,-232.3"/>
</a>
</g>
</g>
<!-- Node25&#45;&gt;Node21 -->
<g id="edge24_Node000025_Node000021" class="edge">
<title>Node25&#45;&gt;Node21</title>
<g id="a_edge24_Node000025_Node000021"><a xlink:title=" ">
<path fill="none" stroke="#63b8ff" d="M653.84,-223.27C663.57,-212.94 675.19,-198.75 682,-184 697.84,-149.7 701.14,-103.77 701.82,-85.01"/>
<polygon fill="#63b8ff" stroke="#63b8ff" points="651.08,-221.09 646.57,-230.68 656.08,-225.99 651.08,-221.09"/>
</a>
</g>
</g>
<!-- Node26 -->
<g id="Node000026" class="node">
<title>Node26</title>
<g id="a_Node000026"><a xlink:href="../../d3/d25/_loopback_test_runner_8h.html" target="_top" xlink:title="Non&#45;blocking HTTP test runner for FastLED loopback testing.">
<polygon fill="#fff0f0" stroke="red" points="582,-178.5 404,-178.5 404,-137.5 582,-137.5 582,-178.5"/>
<text text-anchor="start" x="412" y="-166.5" font-family="Helvetica,sans-Serif" font-size="10.00">/home/runner/work/FastLED</text>
<text text-anchor="start" x="412" y="-155.5" font-family="Helvetica,sans-Serif" font-size="10.00">/FastLED/examples/Asio</text>
<text text-anchor="middle" x="493" y="-144.5" font-family="Helvetica,sans-Serif" font-size="10.00">/Loopback/LoopbackTestRunner.h</text>
</a>
</g>
</g>
<!-- Node25&#45;&gt;Node26 -->
<g id="edge22_Node000025_Node000026" class="edge">
<title>Node25&#45;&gt;Node26</title>
<g id="a_edge22_Node000025_Node000026"><a xlink:title=" ">
<path fill="none" stroke="#63b8ff" d="M612.73,-225.93C589.49,-212.94 554.17,-193.2 527.92,-178.52"/>
<polygon fill="#63b8ff" stroke="#63b8ff" points="611.15,-229.06 621.59,-230.89 614.57,-222.95 611.15,-229.06"/>
</a>
</g>
</g>
<!-- Node28 -->
<g id="Node000028" class="node">
<title>Node28</title>
<g id="a_Node000028"><a xlink:href="../../dd/d56/http_8h.html" target="_top" xlink:title="fl::net::http — High&#45;level HTTP client and server facade">
<polygon fill="#fff0f0" stroke="red" points="673.5,-167.5 600.5,-167.5 600.5,-148.5 673.5,-148.5 673.5,-167.5"/>
<text text-anchor="middle" x="637" y="-155.5" font-family="Helvetica,sans-Serif" font-size="10.00">fl/net/http.h</text>
</a>
</g>
</g>
<!-- Node25&#45;&gt;Node28 -->
<g id="edge23_Node000025_Node000028" class="edge">
<title>Node25&#45;&gt;Node28</title>
<g id="a_edge23_Node000025_Node000028"><a xlink:title=" ">
<path fill="none" stroke="#63b8ff" d="M637,-220.67C637,-204.01 637,-180.43 637,-167.8"/>
<polygon fill="#63b8ff" stroke="#63b8ff" points="633.5,-220.89 637,-230.89 640.5,-220.89 633.5,-220.89"/>
</a>
</g>
</g>
<!-- Node30 -->
<g id="Node000030" class="node">
<title>Node30</title>
<g id="a_Node000030"><a xlink:href="../../d2/d83/fetch__request_8h.html" target="_top" xlink:title=" ">
<polygon fill="white" stroke="#666666" points="873.5,-167.5 730.5,-167.5 730.5,-148.5 873.5,-148.5 873.5,-167.5"/>
<text text-anchor="middle" x="802" y="-155.5" font-family="Helvetica,sans-Serif" font-size="10.00">fl/net/http/fetch_request.h</text>
</a>
</g>
</g>
<!-- Node25&#45;&gt;Node30 -->
<g id="edge25_Node000025_Node000030" class="edge">
<title>Node25&#45;&gt;Node30</title>
<g id="a_edge25_Node000025_Node000030"><a xlink:title=" ">
<path fill="none" stroke="#63b8ff" d="M664.01,-226.32C698.06,-209.71 755.65,-181.61 784.47,-167.55"/>
<polygon fill="#63b8ff" stroke="#63b8ff" points="662.11,-223.35 654.66,-230.89 665.18,-229.65 662.11,-223.35"/>
</a>
</g>
</g>
<!-- Node30&#45;&gt;Node21 -->
<g id="edge26_Node000030_Node000021" class="edge">
<title>Node30&#45;&gt;Node21</title>
<g id="a_edge26_Node000030_Node000021"><a xlink:title=" ">
<path fill="none" stroke="#63b8ff" d="M783.46,-142.07C762.62,-125.3 729.49,-98.63 712.62,-85.05"/>
<polygon fill="#63b8ff" stroke="#63b8ff" points="781.31,-144.84 791.3,-148.39 785.7,-139.39 781.31,-144.84"/>
</a>
</g>
</g>
<!-- Node30&#45;&gt;Node31 -->
<g id="edge27_Node000030_Node000031" class="edge">
<title>Node30&#45;&gt;Node31</title>
<g id="a_edge27_Node000030_Node000031"><a xlink:title=" ">
<path fill="none" stroke="#63b8ff" d="M816.74,-140.53C831.7,-123.8 854.29,-98.53 866.13,-85.3"/>
<polygon fill="#63b8ff" stroke="#63b8ff" points="813.76,-138.6 809.71,-148.39 818.98,-143.26 813.76,-138.6"/>
</a>
</g>
</g>
<!-- Node31&#45;&gt;Node22 -->
<g id="edge28_Node000031_Node000022" class="edge">
<title>Node31&#45;&gt;Node22</title>
<g id="a_edge28_Node000031_Node000022"><a xlink:title=" ">
<path fill="none" stroke="#63b8ff" d="M854.29,-59.83C837.43,-47.28 813.71,-29.63 799.69,-19.2"/>
<polygon fill="#63b8ff" stroke="#63b8ff" points="852.29,-62.71 862.4,-65.87 856.47,-57.09 852.29,-62.71"/>
</a>
</g>
</g>
<!-- Node33 -->
<g id="Node000033" class="node">
<title>Node33</title>
<g id="a_Node000033"><a xlink:href="../../d3/ded/fl_2stl_2asio_2http_2__build_8cpp_8hpp.html" target="_top" xlink:title=" ">
<polygon fill="#fff0f0" stroke="red" points="2066.5,-167.5 1909.5,-167.5 1909.5,-148.5 2066.5,-148.5 2066.5,-167.5"/>
<text text-anchor="middle" x="1988" y="-155.5" font-family="Helvetica,sans-Serif" font-size="10.00">fl/stl/asio/http/_build.cpp.hpp</text>
</a>
</g>
</g>
<!-- Node32&#45;&gt;Node33 -->
<g id="edge31_Node000032_Node000033" class="edge">
<title>Node32&#45;&gt;Node33</title>
<g id="a_edge31_Node000032_Node000033"><a xlink:title=" ">
<path fill="none" stroke="#63b8ff" d="M1988,-220.67C1988,-204.01 1988,-180.43 1988,-167.8"/>
<polygon fill="#63b8ff" stroke="#63b8ff" points="1984.5,-220.89 1988,-230.89 1991.5,-220.89 1984.5,-220.89"/>
</a>
</g>
</g>
<!-- Node38 -->
<g id="Node000038" class="node">
<title>Node38</title>
<g id="a_Node000038"><a xlink:href="../../dc/d15/fl_2task_2__build_8cpp_8hpp.html" target="_top" xlink:title="Unity build header for fl/task/ directory.">
<polygon fill="#fff0f0" stroke="red" points="2211,-167.5 2091,-167.5 2091,-148.5 2211,-148.5 2211,-167.5"/>
<text text-anchor="middle" x="2151" y="-155.5" font-family="Helvetica,sans-Serif" font-size="10.00">fl/task/_build.cpp.hpp</text>
</a>
</g>
</g>
<!-- Node37&#45;&gt;Node38 -->
<g id="edge33_Node000037_Node000038" class="edge">
<title>Node37&#45;&gt;Node38</title>
<g id="a_edge33_Node000037_Node000038"><a xlink:title=" ">
<path fill="none" stroke="#63b8ff" d="M2151,-220.67C2151,-204.01 2151,-180.43 2151,-167.8"/>
<polygon fill="#63b8ff" stroke="#63b8ff" points="2147.5,-220.89 2151,-230.89 2154.5,-220.89 2147.5,-220.89"/>
</a>
</g>
</g>
</g>
</svg>

<g id="navigator" transform="translate(0 0)" fill="#404254">
  <rect fill="#f2f5e9" fill-opacity="0.5" stroke="#606060" stroke-width=".5" x="0" y="0" width="60" height="60"/>
  <use id="zoomplus" xlink:href="#zoomPlus" x="17" y="9" onmousedown="handleZoom(evt,'in')"/>
  <use id="zoomminus" xlink:href="#zoomMin" x="42" y="9" onmousedown="handleZoom(evt,'out')"/>
  <use id="reset" xlink:href="#resetDef" x="30" y="36" onmousedown="handleReset()"/>
   <use id="arrowup" xlink:href="#arrowUp" x="0" y="0" onmousedown="handlePan(0,-1)"/>
  <use id="arrowright" xlink:href="#arrowRight" x="0" y="0" onmousedown="handlePan(1,0)"/>
  <use id="arrowdown" xlink:href="#arrowDown" x="0" y="0" onmousedown="handlePan(0,1)"/>
  <use id="arrowleft" xlink:href="#arrowLeft" x="0" y="0" onmousedown="handlePan(-1,0)"/>
</g>
<svg viewBox="0 0 15 15" width="100%" height="30px" preserveAspectRatio="xMaxYMin meet">
 <g id="arrow_out" transform="scale(0.3 0.3)">
  <a xlink:href="promise__result_8h__dep__incl_org.svg" target="_base">
   <rect id="button" ry="5" rx="5" y="6" x="6" height="38" width="38"
        fill="#f2f5e9" fill-opacity="0.5" stroke="#606060" stroke-width="1.0"/>
   <path id="arrow"
     d="M 11.500037,31.436501 C 11.940474,20.09759 22.043105,11.32322 32.158766,21.979434 L 37.068811,17.246167 C 37.068811,17.246167 37.088388,32 37.088388,32 L 22.160133,31.978069 C 22.160133,31.978069 26.997745,27.140456 26.997745,27.140456 C 18.528582,18.264221 13.291696,25.230495 11.500037,31.436501 z"
     style="fill:#404040;"/>
  </a>
 </g>
</svg>

<style type='text/css'>
<![CDATA[
[data-mouse-over-selected='false'] { opacity: 0.7; }
[data-mouse-over-selected='true']  { opacity: 1.0; }
]]>
</style>
<script type="application/ecmascript"><![CDATA[
document.addEventListener('DOMContentLoaded', (event) => {
  highlightEdges();
  highlightAdjacentNodes();
});
]]></script>
</svg>
