<?xml version="1.0" encoding="UTF-8" standalone="no"?>
<!DOCTYPE svg PUBLIC "-//W3C//DTD SVG 1.1//EN"
 "http://www.w3.org/Graphics/SVG/1.1/DTD/svg11.dtd">
<!-- Generated by graphviz version 2.43.0 (0)
 -->
<!-- Title: /home/runner/work/FastLED/FastLED/examples/Fire2023/Fire2023.h Pages: 1 -->
<svg width="1578pt" height="434pt"
 viewBox="0.00 0.00 1578.02 434.00" xmlns="http://www.w3.org/2000/svg" xmlns:xlink="http://www.w3.org/1999/xlink">
<g id="graph0" class="graph" transform="scale(1 1) rotate(0) translate(4 430)">
<title>/home/runner/work/FastLED/FastLED/examples/Fire2023/Fire2023.h</title>
<!-- Node1 -->
<g id="Node000001" class="node">
<title>Node1</title>
<g id="a_Node000001"><a xlink:title=" ">
<polygon fill="#999999" stroke="#666666" points="569,-426 415,-426 415,-385 569,-385 569,-426"/>
<text text-anchor="start" x="423" y="-414" font-family="Helvetica,sans-Serif" font-size="10.00">/home/runner/work/FastLED</text>
<text text-anchor="start" x="423" y="-403" font-family="Helvetica,sans-Serif" font-size="10.00">/FastLED/examples/Fire2023</text>
<text text-anchor="middle" x="492" y="-392" font-family="Helvetica,sans-Serif" font-size="10.00">/Fire2023.h</text>
</a>
</g>
</g>
<!-- Node2 -->
<g id="Node000002" class="node">
<title>Node2</title>
<g id="a_Node000002"><a xlink:title=" ">
<polygon fill="#e0e0e0" stroke="#999999" points="387,-349 323,-349 323,-330 387,-330 387,-349"/>
<text text-anchor="middle" x="355" y="-337" font-family="Helvetica,sans-Serif" font-size="10.00">FastLED.h</text>
</a>
</g>
</g>
<!-- Node1&#45;&gt;Node2 -->
<g id="edge1_Node000001_Node000002" class="edge">
<title>Node1&#45;&gt;Node2</title>
<g id="a_edge1_Node000001_Node000002"><a xlink:title=" ">
<path fill="none" stroke="#63b8ff" d="M450.15,-384.95C428.21,-374.7 401.94,-362.43 382.57,-353.38"/>
<polygon fill="#63b8ff" stroke="#63b8ff" points="383.93,-350.15 373.39,-349.09 380.97,-356.5 383.93,-350.15"/>
</a>
</g>
</g>
<!-- Node3 -->
<g id="Node000003" class="node">
<title>Node3</title>
<g id="a_Node000003"><a xlink:href="../../da/d61/xymap_8h.html" target="_top" xlink:title=" ">
<polygon fill="white" stroke="#666666" points="502.5,-349 405.5,-349 405.5,-330 502.5,-330 502.5,-349"/>
<text text-anchor="middle" x="454" y="-337" font-family="Helvetica,sans-Serif" font-size="10.00">fl/math/xymap.h</text>
</a>
</g>
</g>
<!-- Node1&#45;&gt;Node3 -->
<g id="edge2_Node000001_Node000003" class="edge">
<title>Node1&#45;&gt;Node3</title>
<g id="a_edge2_Node000001_Node000003"><a xlink:title=" ">
<path fill="none" stroke="#63b8ff" d="M480.39,-384.95C475.31,-376.39 469.39,-366.42 464.45,-358.1"/>
<polygon fill="#63b8ff" stroke="#63b8ff" points="467.32,-356.07 459.2,-349.26 461.3,-359.65 467.32,-356.07"/>
</a>
</g>
</g>
<!-- Node35 -->
<g id="Node000035" class="node">
<title>Node35</title>
<g id="a_Node000035"><a xlink:href="../../d7/d97/screenmap_8h.html" target="_top" xlink:title=" ">
<polygon fill="white" stroke="#666666" points="776.5,-349 659.5,-349 659.5,-330 776.5,-330 776.5,-349"/>
<text text-anchor="middle" x="718" y="-337" font-family="Helvetica,sans-Serif" font-size="10.00">fl/math/screenmap.h</text>
</a>
</g>
</g>
<!-- Node1&#45;&gt;Node35 -->
<g id="edge44_Node000001_Node000035" class="edge">
<title>Node1&#45;&gt;Node35</title>
<g id="a_edge44_Node000001_Node000035"><a xlink:title=" ">
<path fill="none" stroke="#63b8ff" d="M561.04,-384.95C599.34,-374.1 645.62,-361 677.97,-351.84"/>
<polygon fill="#63b8ff" stroke="#63b8ff" points="679.29,-355.1 687.96,-349.01 677.38,-348.37 679.29,-355.1"/>
</a>
</g>
</g>
<!-- Node45 -->
<g id="Node000045" class="node">
<title>Node45</title>
<g id="a_Node000045"><a xlink:href="../../d6/d68/vector_8h.html" target="_top" xlink:title=" ">
<polygon fill="#fff0f0" stroke="red" points="569,-239 489,-239 489,-220 569,-220 569,-239"/>
<text text-anchor="middle" x="529" y="-227" font-family="Helvetica,sans-Serif" font-size="10.00">fl/stl/vector.h</text>
</a>
</g>
</g>
<!-- Node1&#45;&gt;Node45 -->
<g id="edge75_Node000001_Node000045" class="edge">
<title>Node1&#45;&gt;Node45</title>
<g id="a_edge75_Node000001_Node000045"><a xlink:title=" ">
<path fill="none" stroke="#63b8ff" d="M499.64,-384.98C503.52,-374.45 508.02,-361.17 511,-349 519.51,-314.26 524.71,-272.75 527.2,-249.23"/>
<polygon fill="#63b8ff" stroke="#63b8ff" points="530.69,-249.53 528.21,-239.23 523.73,-248.82 530.69,-249.53"/>
</a>
</g>
</g>
<!-- Node4 -->
<g id="Node000004" class="node">
<title>Node4</title>
<g id="a_Node000004"><a xlink:href="../../d4/d54/compiler__control_8h.html" target="_top" xlink:title=" ">
<polygon fill="white" stroke="#666666" points="547.5,-129 416.5,-129 416.5,-110 547.5,-110 547.5,-129"/>
<text text-anchor="middle" x="482" y="-117" font-family="Helvetica,sans-Serif" font-size="10.00">fl/stl/compiler_control.h</text>
</a>
</g>
</g>
<!-- Node3&#45;&gt;Node4 -->
<g id="edge3_Node000003_Node000004" class="edge">
<title>Node3&#45;&gt;Node4</title>
<g id="a_edge3_Node000003_Node000004"><a xlink:title=" ">
<path fill="none" stroke="#63b8ff" d="M419.25,-329.97C356.07,-313.69 226.51,-276.45 201,-239 196.25,-232.02 198.12,-227.94 201,-220 211.88,-190.05 219.52,-181.13 247,-165 295.23,-136.7 357.75,-125.86 406.18,-121.94"/>
<polygon fill="#63b8ff" stroke="#63b8ff" points="406.57,-125.42 416.29,-121.2 406.06,-118.44 406.57,-125.42"/>
</a>
</g>
</g>
<!-- Node8 -->
<g id="Node000008" class="node">
<title>Node8</title>
<g id="a_Node000008"><a xlink:href="../../db/d01/noexcept_8h.html" target="_top" xlink:title=" ">
<polygon fill="white" stroke="#666666" points="1161.5,-19 1066.5,-19 1066.5,0 1161.5,0 1161.5,-19"/>
<text text-anchor="middle" x="1114" y="-7" font-family="Helvetica,sans-Serif" font-size="10.00">fl/stl/noexcept.h</text>
</a>
</g>
</g>
<!-- Node3&#45;&gt;Node8 -->
<g id="edge43_Node000003_Node000008" class="edge">
<title>Node3&#45;&gt;Node8</title>
<g id="a_edge43_Node000003_Node000008"><a xlink:title=" ">
<path fill="none" stroke="#63b8ff" d="M502.66,-336.45C646.76,-330.24 1069.81,-311.04 1207,-294 1353.05,-275.86 1532,-377.68 1532,-230.5 1532,-230.5 1532,-230.5 1532,-118.5 1532,-44.92 1286.16,-20.68 1171.55,-13.38"/>
<polygon fill="#63b8ff" stroke="#63b8ff" points="1171.74,-9.88 1161.54,-12.76 1171.31,-16.87 1171.74,-9.88"/>
</a>
</g>
</g>
<!-- Node9 -->
<g id="Node000009" class="node">
<title>Node9</title>
<g id="a_Node000009"><a xlink:href="../../df/db1/math_8h.html" target="_top" xlink:title=" ">
<polygon fill="white" stroke="#666666" points="345.5,-184 256.5,-184 256.5,-165 345.5,-165 345.5,-184"/>
<text text-anchor="middle" x="301" y="-172" font-family="Helvetica,sans-Serif" font-size="10.00">fl/math/math.h</text>
</a>
</g>
</g>
<!-- Node3&#45;&gt;Node9 -->
<g id="edge8_Node000003_Node000009" class="edge">
<title>Node3&#45;&gt;Node9</title>
<g id="a_edge8_Node000003_Node000009"><a xlink:title=" ">
<path fill="none" stroke="#63b8ff" d="M445.77,-329.74C421.28,-303.65 348.56,-226.17 316.49,-192"/>
<polygon fill="#63b8ff" stroke="#63b8ff" points="318.66,-189.2 309.27,-184.31 313.56,-193.99 318.66,-189.2"/>
</a>
</g>
</g>
<!-- Node10 -->
<g id="Node000010" class="node">
<title>Node10</title>
<g id="a_Node000010"><a xlink:href="../../d3/d7e/int_8h.html" target="_top" xlink:title=" ">
<polygon fill="white" stroke="#666666" points="362,-74 300,-74 300,-55 362,-55 362,-74"/>
<text text-anchor="middle" x="331" y="-62" font-family="Helvetica,sans-Serif" font-size="10.00">fl/stl/int.h</text>
</a>
</g>
</g>
<!-- Node3&#45;&gt;Node10 -->
<g id="edge42_Node000003_Node000010" class="edge">
<title>Node3&#45;&gt;Node10</title>
<g id="a_edge42_Node000003_Node000010"><a xlink:title=" ">
<path fill="none" stroke="#63b8ff" d="M407.97,-329.98C292.55,-308.3 0,-251.31 0,-230.5 0,-230.5 0,-230.5 0,-173.5 0,-143.33 0.48,-128.89 24,-110 64.12,-77.78 215.42,-68.86 289.55,-66.42"/>
<polygon fill="#63b8ff" stroke="#63b8ff" points="290.02,-69.9 299.9,-66.1 289.8,-62.91 290.02,-69.9"/>
</a>
</g>
</g>
<!-- Node13 -->
<g id="Node000013" class="node">
<title>Node13</title>
<g id="a_Node000013"><a xlink:href="../../df/d63/type__traits_8h.html" target="_top" xlink:title=" ">
<polygon fill="#fff0f0" stroke="red" points="934,-129 832,-129 832,-110 934,-110 934,-129"/>
<text text-anchor="middle" x="883" y="-117" font-family="Helvetica,sans-Serif" font-size="10.00">fl/stl/type_traits.h</text>
</a>
</g>
</g>
<!-- Node3&#45;&gt;Node13 -->
<g id="edge41_Node000003_Node000013" class="edge">
<title>Node3&#45;&gt;Node13</title>
<g id="a_edge41_Node000003_Node000013"><a xlink:title=" ">
<path fill="none" stroke="#63b8ff" d="M502.7,-332.22C542.66,-325.91 600.09,-314.16 647,-294 739.99,-254.03 831.05,-171.33 866.96,-136.51"/>
<polygon fill="#63b8ff" stroke="#63b8ff" points="869.82,-138.61 874.51,-129.1 864.92,-133.61 869.82,-138.61"/>
</a>
</g>
</g>
<!-- Node18 -->
<g id="Node000018" class="node">
<title>Node18</title>
<g id="a_Node000018"><a xlink:href="../../db/d54/lut_8h.html" target="_top" xlink:title=" ">
<polygon fill="white" stroke="#666666" points="638,-294 562,-294 562,-275 638,-275 638,-294"/>
<text text-anchor="middle" x="600" y="-282" font-family="Helvetica,sans-Serif" font-size="10.00">fl/math/lut.h</text>
</a>
</g>
</g>
<!-- Node3&#45;&gt;Node18 -->
<g id="edge17_Node000003_Node000018" class="edge">
<title>Node3&#45;&gt;Node18</title>
<g id="a_edge17_Node000003_Node000018"><a xlink:title=" ">
<path fill="none" stroke="#63b8ff" d="M477.46,-329.98C501.58,-321.23 539.37,-307.51 566.6,-297.62"/>
<polygon fill="#63b8ff" stroke="#63b8ff" points="567.91,-300.87 576.12,-294.17 565.52,-294.29 567.91,-300.87"/>
</a>
</g>
</g>
<!-- Node5 -->
<g id="Node000005" class="node">
<title>Node5</title>
<g id="a_Node000005"><a xlink:title=" ">
<polygon fill="#e0e0e0" stroke="#999999" points="628.5,-19 497.5,-19 497.5,0 628.5,0 628.5,-19"/>
<text text-anchor="middle" x="563" y="-7" font-family="Helvetica,sans-Serif" font-size="10.00">platforms/is_platform.h</text>
</a>
</g>
</g>
<!-- Node4&#45;&gt;Node5 -->
<g id="edge4_Node000004_Node000005" class="edge">
<title>Node4&#45;&gt;Node5</title>
<g id="a_edge4_Node000004_Node000005"><a xlink:title=" ">
<path fill="none" stroke="#63b8ff" d="M483.67,-109.98C486.52,-97.08 493.28,-72.27 506,-55 514.87,-42.95 527.83,-32.48 539.15,-24.73"/>
<polygon fill="#63b8ff" stroke="#63b8ff" points="541.3,-27.5 547.77,-19.11 537.48,-21.64 541.3,-27.5"/>
</a>
</g>
</g>
<!-- Node6 -->
<g id="Node000006" class="node">
<title>Node6</title>
<g id="a_Node000006"><a xlink:href="../../d1/ddf/align_8h.html" target="_top" xlink:title="Alignment macros and utilities for FastLED.">
<polygon fill="#fff0f0" stroke="red" points="713,-74 639,-74 639,-55 713,-55 713,-74"/>
<text text-anchor="middle" x="676" y="-62" font-family="Helvetica,sans-Serif" font-size="10.00">fl/stl/align.h</text>
</a>
</g>
</g>
<!-- Node4&#45;&gt;Node6 -->
<g id="edge5_Node000004_Node000006" class="edge">
<title>Node4&#45;&gt;Node6</title>
<g id="a_edge5_Node000004_Node000006"><a xlink:title=" ">
<path fill="none" stroke="#63b8ff" d="M513.17,-109.98C546.16,-100.97 598.4,-86.7 634.77,-76.76"/>
<polygon fill="#63b8ff" stroke="#63b8ff" points="635.86,-80.09 644.59,-74.08 634.02,-73.34 635.86,-80.09"/>
</a>
</g>
</g>
<!-- Node6&#45;&gt;Node5 -->
<g id="edge6_Node000006_Node000005" class="edge">
<title>Node6&#45;&gt;Node5</title>
<g id="a_edge6_Node000006_Node000005"><a xlink:title=" ">
<path fill="none" stroke="#63b8ff" d="M657.84,-54.98C639.75,-46.5 611.72,-33.35 590.81,-23.54"/>
<polygon fill="#63b8ff" stroke="#63b8ff" points="592.03,-20.25 581.49,-19.17 589.05,-26.59 592.03,-20.25"/>
</a>
</g>
</g>
<!-- Node6&#45;&gt;Node8 -->
<g id="edge7_Node000006_Node000008" class="edge">
<title>Node6&#45;&gt;Node8</title>
<g id="a_edge7_Node000006_Node000008"><a xlink:title=" ">
<path fill="none" stroke="#63b8ff" d="M713.34,-58.98C789.84,-49.73 964.8,-28.55 1056.12,-17.5"/>
<polygon fill="#63b8ff" stroke="#63b8ff" points="1056.79,-20.95 1066.29,-16.27 1055.94,-14 1056.79,-20.95"/>
</a>
</g>
</g>
<!-- Node9&#45;&gt;Node4 -->
<g id="edge9_Node000009_Node000004" class="edge">
<title>Node9&#45;&gt;Node4</title>
<g id="a_edge9_Node000009_Node000004"><a xlink:title=" ">
<path fill="none" stroke="#63b8ff" d="M330.08,-164.98C360.6,-156.05 408.76,-141.94 442.66,-132.02"/>
<polygon fill="#63b8ff" stroke="#63b8ff" points="444.08,-135.25 452.69,-129.08 442.11,-128.53 444.08,-135.25"/>
</a>
</g>
</g>
<!-- Node9&#45;&gt;Node8 -->
<g id="edge16_Node000009_Node000008" class="edge">
<title>Node9&#45;&gt;Node8</title>
<g id="a_edge16_Node000009_Node000008"><a xlink:title=" ">
<path fill="none" stroke="#63b8ff" d="M312.42,-164.93C331.18,-151.27 370.1,-124.62 407,-110 476.78,-82.35 499.58,-93.71 572,-74 598.17,-66.88 603.44,-60.5 630,-55 781.77,-23.58 964.9,-14.34 1056.27,-11.63"/>
<polygon fill="#63b8ff" stroke="#63b8ff" points="1056.52,-15.12 1066.42,-11.34 1056.32,-8.12 1056.52,-15.12"/>
</a>
</g>
</g>
<!-- Node9&#45;&gt;Node10 -->
<g id="edge10_Node000009_Node000010" class="edge">
<title>Node9&#45;&gt;Node10</title>
<g id="a_edge10_Node000009_Node000010"><a xlink:title=" ">
<path fill="none" stroke="#63b8ff" d="M303.46,-164.66C308.34,-147.09 319.35,-107.45 325.87,-83.95"/>
<polygon fill="#63b8ff" stroke="#63b8ff" points="329.29,-84.73 328.59,-74.16 322.55,-82.86 329.29,-84.73"/>
</a>
</g>
</g>
<!-- Node9&#45;&gt;Node13 -->
<g id="edge12_Node000009_Node000013" class="edge">
<title>Node9&#45;&gt;Node13</title>
<g id="a_edge12_Node000009_Node000013"><a xlink:title=" ">
<path fill="none" stroke="#63b8ff" d="M345.7,-169.43C448.92,-160.03 704.02,-136.8 821.71,-126.08"/>
<polygon fill="#63b8ff" stroke="#63b8ff" points="822.34,-129.54 831.98,-125.15 821.7,-122.57 822.34,-129.54"/>
</a>
</g>
</g>
<!-- Node16 -->
<g id="Node000016" class="node">
<title>Node16</title>
<g id="a_Node000016"><a xlink:href="../../da/ded/undef_8h.html" target="_top" xlink:title=" ">
<polygon fill="#fff0f0" stroke="red" points="283.5,-129 206.5,-129 206.5,-110 283.5,-110 283.5,-129"/>
<text text-anchor="middle" x="245" y="-117" font-family="Helvetica,sans-Serif" font-size="10.00">fl/stl/undef.h</text>
</a>
</g>
</g>
<!-- Node9&#45;&gt;Node16 -->
<g id="edge15_Node000009_Node000016" class="edge">
<title>Node9&#45;&gt;Node16</title>
<g id="a_edge15_Node000009_Node000016"><a xlink:title=" ">
<path fill="none" stroke="#63b8ff" d="M292,-164.98C283.81,-157.23 271.49,-145.58 261.53,-136.14"/>
<polygon fill="#63b8ff" stroke="#63b8ff" points="263.83,-133.5 254.16,-129.17 259.02,-138.59 263.83,-133.5"/>
</a>
</g>
</g>
<!-- Node11 -->
<g id="Node000011" class="node">
<title>Node11</title>
<g id="a_Node000011"><a xlink:href="../../df/dd8/stdint_8h.html" target="_top" xlink:title=" ">
<polygon fill="#fff0f0" stroke="red" points="804.5,-19 727.5,-19 727.5,0 804.5,0 804.5,-19"/>
<text text-anchor="middle" x="766" y="-7" font-family="Helvetica,sans-Serif" font-size="10.00">fl/stl/stdint.h</text>
</a>
</g>
</g>
<!-- Node10&#45;&gt;Node11 -->
<g id="edge11_Node000010_Node000011" class="edge">
<title>Node10&#45;&gt;Node11</title>
<g id="a_edge11_Node000010_Node000011"><a xlink:title=" ">
<path fill="none" stroke="#63b8ff" d="M362.28,-59.69C437.22,-50.56 627.44,-27.38 717.42,-16.42"/>
<polygon fill="#63b8ff" stroke="#63b8ff" points="717.86,-19.89 727.36,-15.21 717.01,-12.94 717.86,-19.89"/>
</a>
</g>
</g>
<!-- Node13&#45;&gt;Node8 -->
<g id="edge14_Node000013_Node000008" class="edge">
<title>Node13&#45;&gt;Node8</title>
<g id="a_edge14_Node000013_Node000008"><a xlink:title=" ">
<path fill="none" stroke="#63b8ff" d="M894.88,-109.98C913.56,-96.86 951.28,-71.5 986,-55 1014.42,-41.5 1048.08,-29.96 1073.75,-22.01"/>
<polygon fill="#63b8ff" stroke="#63b8ff" points="1074.97,-25.3 1083.52,-19.05 1072.94,-18.6 1074.97,-25.3"/>
</a>
</g>
</g>
<!-- Node13&#45;&gt;Node10 -->
<g id="edge13_Node000013_Node000010" class="edge">
<title>Node13&#45;&gt;Node10</title>
<g id="a_edge13_Node000013_Node000010"><a xlink:title=" ">
<path fill="none" stroke="#63b8ff" d="M831.56,-113.56C722.85,-103.12 471.57,-79 372.36,-69.47"/>
<polygon fill="#63b8ff" stroke="#63b8ff" points="372.43,-65.96 362.14,-68.49 371.76,-72.93 372.43,-65.96"/>
</a>
</g>
</g>
<!-- Node18&#45;&gt;Node8 -->
<g id="edge40_Node000018_Node000008" class="edge">
<title>Node18&#45;&gt;Node8</title>
<g id="a_edge40_Node000018_Node000008"><a xlink:title=" ">
<path fill="none" stroke="#63b8ff" d="M638.01,-279.5C738.25,-268.36 1007,-234.43 1079,-184 1122.41,-153.6 1119.32,-126.69 1125,-74 1125.91,-65.6 1126.02,-63.38 1125,-55 1123.94,-46.31 1121.76,-36.87 1119.62,-28.93"/>
<polygon fill="#63b8ff" stroke="#63b8ff" points="1122.96,-27.89 1116.83,-19.25 1116.23,-29.83 1122.96,-27.89"/>
</a>
</g>
</g>
<!-- Node18&#45;&gt;Node10 -->
<g id="edge33_Node000018_Node000010" class="edge">
<title>Node18&#45;&gt;Node10</title>
<g id="a_edge33_Node000018_Node000010"><a xlink:title=" ">
<path fill="none" stroke="#63b8ff" d="M561.76,-283.01C474.22,-281.29 262.12,-273.58 201,-239 147.48,-208.72 113.1,-158.42 151,-110 167.92,-88.39 242.14,-75.83 289.83,-69.85"/>
<polygon fill="#63b8ff" stroke="#63b8ff" points="290.36,-73.31 299.87,-68.63 289.52,-66.36 290.36,-73.31"/>
</a>
</g>
</g>
<!-- Node19 -->
<g id="Node000019" class="node">
<title>Node19</title>
<g id="a_Node000019"><a xlink:href="../../da/da9/allocator_8h.html" target="_top" xlink:title=" ">
<polygon fill="#fff0f0" stroke="red" points="646,-184 554,-184 554,-165 646,-165 646,-184"/>
<text text-anchor="middle" x="600" y="-172" font-family="Helvetica,sans-Serif" font-size="10.00">fl/stl/allocator.h</text>
</a>
</g>
</g>
<!-- Node18&#45;&gt;Node19 -->
<g id="edge18_Node000018_Node000019" class="edge">
<title>Node18&#45;&gt;Node19</title>
<g id="a_edge18_Node000018_Node000019"><a xlink:title=" ">
<path fill="none" stroke="#63b8ff" d="M600,-274.66C600,-257.17 600,-217.8 600,-194.27"/>
<polygon fill="#63b8ff" stroke="#63b8ff" points="603.5,-194.16 600,-184.16 596.5,-194.16 603.5,-194.16"/>
</a>
</g>
</g>
<!-- Node30 -->
<g id="Node000030" class="node">
<title>Node30</title>
<g id="a_Node000030"><a xlink:href="../../df/d6a/shared__ptr_8h.html" target="_top" xlink:title=" ">
<polygon fill="#fff0f0" stroke="red" points="803.5,-184 702.5,-184 702.5,-165 803.5,-165 803.5,-184"/>
<text text-anchor="middle" x="753" y="-172" font-family="Helvetica,sans-Serif" font-size="10.00">fl/stl/shared_ptr.h</text>
</a>
</g>
</g>
<!-- Node18&#45;&gt;Node30 -->
<g id="edge24_Node000018_Node000030" class="edge">
<title>Node18&#45;&gt;Node30</title>
<g id="a_edge24_Node000018_Node000030"><a xlink:title=" ">
<path fill="none" stroke="#63b8ff" d="M612.26,-274.84C638.45,-256.36 700.07,-212.86 732.39,-190.05"/>
<polygon fill="#63b8ff" stroke="#63b8ff" points="734.53,-192.82 740.68,-184.2 730.49,-187.1 734.53,-192.82"/>
</a>
</g>
</g>
<!-- Node27 -->
<g id="Node000027" class="node">
<title>Node27</title>
<g id="a_Node000027"><a xlink:href="../../da/d4b/unique__ptr_8h.html" target="_top" xlink:title=" ">
<polygon fill="#fff0f0" stroke="red" points="1047.5,-184 946.5,-184 946.5,-165 1047.5,-165 1047.5,-184"/>
<text text-anchor="middle" x="997" y="-172" font-family="Helvetica,sans-Serif" font-size="10.00">fl/stl/unique_ptr.h</text>
</a>
</g>
</g>
<!-- Node18&#45;&gt;Node27 -->
<g id="edge29_Node000018_Node000027" class="edge">
<title>Node18&#45;&gt;Node27</title>
<g id="a_edge29_Node000018_Node000027"><a xlink:title=" ">
<path fill="none" stroke="#63b8ff" d="M631.48,-274.94C702.71,-255.56 876.21,-208.36 955.83,-186.7"/>
<polygon fill="#63b8ff" stroke="#63b8ff" points="956.78,-190.07 965.51,-184.07 954.94,-183.31 956.78,-190.07"/>
</a>
</g>
</g>
<!-- Node34 -->
<g id="Node000034" class="node">
<title>Node34</title>
<g id="a_Node000034"><a xlink:href="../../d4/d67/geometry_8h.html" target="_top" xlink:title=" ">
<polygon fill="white" stroke="#666666" points="319.5,-239 210.5,-239 210.5,-220 319.5,-220 319.5,-239"/>
<text text-anchor="middle" x="265" y="-227" font-family="Helvetica,sans-Serif" font-size="10.00">fl/math/geometry.h</text>
</a>
</g>
</g>
<!-- Node18&#45;&gt;Node34 -->
<g id="edge34_Node000018_Node000034" class="edge">
<title>Node18&#45;&gt;Node34</title>
<g id="a_edge34_Node000018_Node000034"><a xlink:title=" ">
<path fill="none" stroke="#63b8ff" d="M561.9,-277.47C505.21,-268.5 397.98,-251.54 329.09,-240.64"/>
<polygon fill="#63b8ff" stroke="#63b8ff" points="329.22,-237.12 318.79,-239.01 328.13,-244.03 329.22,-237.12"/>
</a>
</g>
</g>
<!-- Node19&#45;&gt;Node4 -->
<g id="edge20_Node000019_Node000004" class="edge">
<title>Node19&#45;&gt;Node4</title>
<g id="a_edge20_Node000019_Node000004"><a xlink:title=" ">
<path fill="none" stroke="#63b8ff" d="M581.04,-164.98C561.97,-156.42 532.34,-143.11 510.45,-133.28"/>
<polygon fill="#63b8ff" stroke="#63b8ff" points="511.86,-130.07 501.3,-129.17 508.99,-136.46 511.86,-130.07"/>
</a>
</g>
</g>
<!-- Node19&#45;&gt;Node6 -->
<g id="edge22_Node000019_Node000006" class="edge">
<title>Node19&#45;&gt;Node6</title>
<g id="a_edge22_Node000019_Node000006"><a xlink:title=" ">
<path fill="none" stroke="#63b8ff" d="M606.22,-164.66C618.86,-146.69 647.75,-105.64 664.12,-82.38"/>
<polygon fill="#63b8ff" stroke="#63b8ff" points="667.01,-84.35 669.91,-74.16 661.29,-80.32 667.01,-84.35"/>
</a>
</g>
</g>
<!-- Node19&#45;&gt;Node8 -->
<g id="edge23_Node000019_Node000008" class="edge">
<title>Node19&#45;&gt;Node8</title>
<g id="a_edge23_Node000019_Node000008"><a xlink:title=" ">
<path fill="none" stroke="#63b8ff" d="M623.31,-164.88C678.79,-144.48 823.26,-92.22 946,-55 987.21,-42.5 1034.69,-30.11 1068.64,-21.59"/>
<polygon fill="#63b8ff" stroke="#63b8ff" points="1069.87,-24.89 1078.72,-19.07 1068.17,-18.1 1069.87,-24.89"/>
</a>
</g>
</g>
<!-- Node19&#45;&gt;Node11 -->
<g id="edge21_Node000019_Node000011" class="edge">
<title>Node19&#45;&gt;Node11</title>
<g id="a_edge21_Node000019_Node000011"><a xlink:title=" ">
<path fill="none" stroke="#63b8ff" d="M612.75,-164.93C636.09,-148.85 686.56,-112.33 722,-74 735.19,-59.74 747.54,-41.29 755.78,-27.95"/>
<polygon fill="#63b8ff" stroke="#63b8ff" points="758.84,-29.65 761,-19.28 752.84,-26.04 758.84,-29.65"/>
</a>
</g>
</g>
<!-- Node19&#45;&gt;Node13 -->
<g id="edge19_Node000019_Node000013" class="edge">
<title>Node19&#45;&gt;Node13</title>
<g id="a_edge19_Node000019_Node000013"><a xlink:title=" ">
<path fill="none" stroke="#63b8ff" d="M645.47,-164.98C694.94,-155.72 774.05,-140.9 827.23,-130.94"/>
<polygon fill="#63b8ff" stroke="#63b8ff" points="827.99,-134.36 837.17,-129.08 826.7,-127.48 827.99,-134.36"/>
</a>
</g>
</g>
<!-- Node30&#45;&gt;Node6 -->
<g id="edge27_Node000030_Node000006" class="edge">
<title>Node30&#45;&gt;Node6</title>
<g id="a_edge27_Node000030_Node000006"><a xlink:title=" ">
<path fill="none" stroke="#63b8ff" d="M746.7,-164.66C733.89,-146.69 704.62,-105.64 688.04,-82.38"/>
<polygon fill="#63b8ff" stroke="#63b8ff" points="690.83,-80.27 682.17,-74.16 685.13,-84.33 690.83,-80.27"/>
</a>
</g>
</g>
<!-- Node30&#45;&gt;Node8 -->
<g id="edge28_Node000030_Node000008" class="edge">
<title>Node30&#45;&gt;Node8</title>
<g id="a_edge28_Node000030_Node000008"><a xlink:title=" ">
<path fill="none" stroke="#63b8ff" d="M803.86,-166.9C843.11,-160.57 898.11,-148.94 943,-129 1004.59,-101.64 1067.24,-51.22 1096.68,-25.88"/>
<polygon fill="#63b8ff" stroke="#63b8ff" points="1099.16,-28.36 1104.4,-19.16 1094.56,-23.09 1099.16,-28.36"/>
</a>
</g>
</g>
<!-- Node30&#45;&gt;Node10 -->
<g id="edge26_Node000030_Node000010" class="edge">
<title>Node30&#45;&gt;Node10</title>
<g id="a_edge26_Node000030_Node000010"><a xlink:title=" ">
<path fill="none" stroke="#63b8ff" d="M729.61,-164.98C692.97,-151.86 619.66,-126.49 556,-110 492.52,-93.55 417.61,-79.85 372.24,-72.17"/>
<polygon fill="#63b8ff" stroke="#63b8ff" points="372.64,-68.69 362.19,-70.49 371.48,-75.59 372.64,-68.69"/>
</a>
</g>
</g>
<!-- Node30&#45;&gt;Node13 -->
<g id="edge25_Node000030_Node000013" class="edge">
<title>Node30&#45;&gt;Node13</title>
<g id="a_edge25_Node000030_Node000013"><a xlink:title=" ">
<path fill="none" stroke="#63b8ff" d="M773.89,-164.98C795.08,-156.34 828.13,-142.87 852.3,-133.02"/>
<polygon fill="#63b8ff" stroke="#63b8ff" points="853.79,-136.19 861.73,-129.17 851.15,-129.7 853.79,-136.19"/>
</a>
</g>
</g>
<!-- Node27&#45;&gt;Node8 -->
<g id="edge32_Node000027_Node000008" class="edge">
<title>Node27&#45;&gt;Node8</title>
<g id="a_edge32_Node000027_Node000008"><a xlink:title=" ">
<path fill="none" stroke="#63b8ff" d="M1003.29,-164.74C1021.94,-138.76 1077.16,-61.83 1101.84,-27.44"/>
<polygon fill="#63b8ff" stroke="#63b8ff" points="1104.69,-29.47 1107.68,-19.31 1099,-25.39 1104.69,-29.47"/>
</a>
</g>
</g>
<!-- Node27&#45;&gt;Node11 -->
<g id="edge31_Node000027_Node000011" class="edge">
<title>Node27&#45;&gt;Node11</title>
<g id="a_edge31_Node000027_Node000011"><a xlink:title=" ">
<path fill="none" stroke="#63b8ff" d="M991.17,-164.85C982.05,-151.78 963.33,-126.75 943,-110 896.17,-71.42 832.3,-39.74 795.47,-23.12"/>
<polygon fill="#63b8ff" stroke="#63b8ff" points="796.84,-19.9 786.28,-19.03 793.99,-26.29 796.84,-19.9"/>
</a>
</g>
</g>
<!-- Node27&#45;&gt;Node13 -->
<g id="edge30_Node000027_Node000013" class="edge">
<title>Node27&#45;&gt;Node13</title>
<g id="a_edge30_Node000027_Node000013"><a xlink:title=" ">
<path fill="none" stroke="#63b8ff" d="M978.68,-164.98C960.34,-156.46 931.89,-143.23 910.77,-133.41"/>
<polygon fill="#63b8ff" stroke="#63b8ff" points="912.19,-130.21 901.65,-129.17 909.24,-136.56 912.19,-130.21"/>
</a>
</g>
</g>
<!-- Node34&#45;&gt;Node4 -->
<g id="edge37_Node000034_Node000004" class="edge">
<title>Node34&#45;&gt;Node4</title>
<g id="a_edge37_Node000034_Node000004"><a xlink:title=" ">
<path fill="none" stroke="#63b8ff" d="M282.39,-219.84C320.34,-200.96 410.76,-155.96 455.71,-133.59"/>
<polygon fill="#63b8ff" stroke="#63b8ff" points="457.43,-136.64 464.83,-129.05 454.32,-130.37 457.43,-136.64"/>
</a>
</g>
</g>
<!-- Node34&#45;&gt;Node8 -->
<g id="edge38_Node000034_Node000008" class="edge">
<title>Node34&#45;&gt;Node8</title>
<g id="a_edge38_Node000034_Node000008"><a xlink:title=" ">
<path fill="none" stroke="#63b8ff" d="M253.02,-219.75C226.12,-199.08 165.67,-146.25 197,-110 225.29,-77.26 859.44,-28.88 1056.27,-14.61"/>
<polygon fill="#63b8ff" stroke="#63b8ff" points="1056.68,-18.08 1066.41,-13.87 1056.18,-11.1 1056.68,-18.08"/>
</a>
</g>
</g>
<!-- Node34&#45;&gt;Node9 -->
<g id="edge36_Node000034_Node000009" class="edge">
<title>Node34&#45;&gt;Node9</title>
<g id="a_edge36_Node000034_Node000009"><a xlink:title=" ">
<path fill="none" stroke="#63b8ff" d="M270.94,-219.75C275.98,-212.34 283.34,-201.5 289.51,-192.41"/>
<polygon fill="#63b8ff" stroke="#63b8ff" points="292.44,-194.33 295.17,-184.09 286.65,-190.39 292.44,-194.33"/>
</a>
</g>
</g>
<!-- Node34&#45;&gt;Node10 -->
<g id="edge35_Node000034_Node000010" class="edge">
<title>Node34&#45;&gt;Node10</title>
<g id="a_edge35_Node000034_Node000010"><a xlink:title=" ">
<path fill="none" stroke="#63b8ff" d="M232.44,-219.96C213.22,-213.27 190,-202 176,-184 155.55,-157.7 143.7,-136.42 164,-110 179.26,-90.13 245.68,-77.25 290.01,-70.69"/>
<polygon fill="#63b8ff" stroke="#63b8ff" points="290.53,-74.15 299.93,-69.28 289.54,-67.23 290.53,-74.15"/>
</a>
</g>
</g>
<!-- Node34&#45;&gt;Node16 -->
<g id="edge39_Node000034_Node000016" class="edge">
<title>Node34&#45;&gt;Node16</title>
<g id="a_edge39_Node000034_Node000016"><a xlink:title=" ">
<path fill="none" stroke="#63b8ff" d="M260.47,-219.92C256.1,-211.17 249.75,-197.05 247,-184 243.9,-169.29 243.53,-152.25 243.87,-139.52"/>
<polygon fill="#63b8ff" stroke="#63b8ff" points="247.38,-139.39 244.32,-129.24 240.38,-139.08 247.38,-139.39"/>
</a>
</g>
</g>
<!-- Node35&#45;&gt;Node8 -->
<g id="edge74_Node000035_Node000008" class="edge">
<title>Node35&#45;&gt;Node8</title>
<g id="a_edge74_Node000035_Node000008"><a xlink:title=" ">
<path fill="none" stroke="#63b8ff" d="M776.57,-339C955.13,-340.01 1484.31,-339.13 1546,-294 1570.35,-276.19 1570,-260.67 1570,-230.5 1570,-230.5 1570,-230.5 1570,-118.5 1570,-88.33 1569.91,-73.4 1546,-55 1516.96,-32.64 1282.84,-18.58 1171.91,-13.1"/>
<polygon fill="#63b8ff" stroke="#63b8ff" points="1172.04,-9.61 1161.89,-12.62 1171.7,-16.6 1172.04,-9.61"/>
</a>
</g>
</g>
<!-- Node35&#45;&gt;Node10 -->
<g id="edge73_Node000035_Node000010" class="edge">
<title>Node35&#45;&gt;Node10</title>
<g id="a_edge73_Node000035_Node000010"><a xlink:title=" ">
<path fill="none" stroke="#63b8ff" d="M659.32,-333.51C535.32,-322.08 251.39,-290.88 171,-239 121.18,-206.85 98.4,-155 137,-110 156.52,-87.24 238.73,-74.89 289.66,-69.29"/>
<polygon fill="#63b8ff" stroke="#63b8ff" points="290.14,-72.76 299.71,-68.23 289.4,-65.8 290.14,-72.76"/>
</a>
</g>
</g>
<!-- Node35&#45;&gt;Node30 -->
<g id="edge72_Node000035_Node000030" class="edge">
<title>Node35&#45;&gt;Node30</title>
<g id="a_edge72_Node000035_Node000030"><a xlink:title=" ">
<path fill="none" stroke="#63b8ff" d="M719.88,-329.74C725.37,-304.2 741.42,-229.43 748.98,-194.23"/>
<polygon fill="#63b8ff" stroke="#63b8ff" points="752.43,-194.82 751.11,-184.31 745.59,-193.35 752.43,-194.82"/>
</a>
</g>
</g>
<!-- Node36 -->
<g id="Node000036" class="node">
<title>Node36</title>
<g id="a_Node000036"><a xlink:href="../../dd/d68/flat__map_8h.html" target="_top" xlink:title=" ">
<polygon fill="white" stroke="#666666" points="1198,-294 1106,-294 1106,-275 1198,-275 1198,-294"/>
<text text-anchor="middle" x="1152" y="-282" font-family="Helvetica,sans-Serif" font-size="10.00">fl/stl/flat_map.h</text>
</a>
</g>
</g>
<!-- Node35&#45;&gt;Node36 -->
<g id="edge45_Node000035_Node000036" class="edge">
<title>Node35&#45;&gt;Node36</title>
<g id="a_edge45_Node000035_Node000036"><a xlink:title=" ">
<path fill="none" stroke="#63b8ff" d="M776.53,-331.35C860.38,-321.11 1013.63,-302.4 1096.03,-292.33"/>
<polygon fill="#63b8ff" stroke="#63b8ff" points="1096.46,-295.81 1105.96,-291.12 1095.61,-288.86 1096.46,-295.81"/>
</a>
</g>
</g>
<!-- Node36&#45;&gt;Node8 -->
<g id="edge71_Node000036_Node000008" class="edge">
<title>Node36&#45;&gt;Node8</title>
<g id="a_edge71_Node000036_Node000008"><a xlink:title=" ">
<path fill="none" stroke="#63b8ff" d="M1198.13,-283.11C1277.27,-281.49 1434.33,-273.85 1475,-239 1497.37,-219.83 1494,-204.96 1494,-175.5 1494,-175.5 1494,-175.5 1494,-118.5 1494,-52.37 1278.4,-24.59 1172,-14.9"/>
<polygon fill="#63b8ff" stroke="#63b8ff" points="1172.01,-11.39 1161.74,-14 1171.39,-18.36 1172.01,-11.39"/>
</a>
</g>
</g>
<!-- Node36&#45;&gt;Node11 -->
<g id="edge46_Node000036_Node000011" class="edge">
<title>Node36&#45;&gt;Node11</title>
<g id="a_edge46_Node000036_Node000011"><a xlink:title=" ">
<path fill="none" stroke="#63b8ff" d="M1146.57,-274.99C1133.14,-254.41 1096.62,-200.99 1057,-165 990.94,-104.99 968.83,-94.9 889,-55 861.95,-41.48 829.76,-29.99 805.1,-22.07"/>
<polygon fill="#63b8ff" stroke="#63b8ff" points="805.96,-18.67 795.37,-19 803.86,-25.35 805.96,-18.67"/>
</a>
</g>
</g>
<!-- Node36&#45;&gt;Node19 -->
<g id="edge66_Node000036_Node000019" class="edge">
<title>Node36&#45;&gt;Node19</title>
<g id="a_edge66_Node000036_Node000019"><a xlink:title=" ">
<path fill="none" stroke="#63b8ff" d="M1108.22,-274.94C1008.18,-255.36 763.03,-207.4 653.91,-186.05"/>
<polygon fill="#63b8ff" stroke="#63b8ff" points="654.27,-182.55 643.78,-184.07 652.92,-189.42 654.27,-182.55"/>
</a>
</g>
</g>
<!-- Node37 -->
<g id="Node000037" class="node">
<title>Node37</title>
<g id="a_Node000037"><a xlink:href="../../dc/da7/assert_8h.html" target="_top" xlink:title=" ">
<polygon fill="white" stroke="#666666" points="1466,-239 1386,-239 1386,-220 1466,-220 1466,-239"/>
<text text-anchor="middle" x="1426" y="-227" font-family="Helvetica,sans-Serif" font-size="10.00">fl/stl/assert.h</text>
</a>
</g>
</g>
<!-- Node36&#45;&gt;Node37 -->
<g id="edge47_Node000036_Node000037" class="edge">
<title>Node36&#45;&gt;Node37</title>
<g id="a_edge47_Node000036_Node000037"><a xlink:title=" ">
<path fill="none" stroke="#63b8ff" d="M1196.02,-274.98C1245.09,-265.49 1324.29,-250.17 1375.75,-240.22"/>
<polygon fill="#63b8ff" stroke="#63b8ff" points="1376.5,-243.64 1385.66,-238.3 1375.18,-236.77 1376.5,-243.64"/>
</a>
</g>
</g>
<!-- Node38 -->
<g id="Node000038" class="node">
<title>Node38</title>
<g id="a_Node000038"><a xlink:title=" ">
<polygon fill="#e0e0e0" stroke="#999999" points="1466,-184 1334,-184 1334,-165 1466,-165 1466,-184"/>
<text text-anchor="middle" x="1400" y="-172" font-family="Helvetica,sans-Serif" font-size="10.00">platforms/assert_defs.h</text>
</a>
</g>
</g>
<!-- Node36&#45;&gt;Node38 -->
<g id="edge70_Node000036_Node000038" class="edge">
<title>Node36&#45;&gt;Node38</title>
<g id="a_edge70_Node000036_Node000038"><a xlink:title=" ">
<path fill="none" stroke="#63b8ff" d="M1198.1,-279.86C1237.68,-275.08 1295.11,-264.1 1339,-239 1359.22,-227.44 1376.98,-207.14 1388.05,-192.61"/>
<polygon fill="#63b8ff" stroke="#63b8ff" points="1390.95,-194.57 1394.03,-184.43 1385.3,-190.43 1390.95,-194.57"/>
</a>
</g>
</g>
<!-- Node39 -->
<g id="Node000039" class="node">
<title>Node39</title>
<g id="a_Node000039"><a xlink:href="../../df/dd9/algorithm_8h.html" target="_top" xlink:title=" ">
<polygon fill="#fff0f0" stroke="red" points="1315.5,-184 1218.5,-184 1218.5,-165 1315.5,-165 1315.5,-184"/>
<text text-anchor="middle" x="1267" y="-172" font-family="Helvetica,sans-Serif" font-size="10.00">fl/stl/algorithm.h</text>
</a>
</g>
</g>
<!-- Node36&#45;&gt;Node39 -->
<g id="edge49_Node000036_Node000039" class="edge">
<title>Node36&#45;&gt;Node39</title>
<g id="a_edge49_Node000036_Node000039"><a xlink:title=" ">
<path fill="none" stroke="#63b8ff" d="M1159.09,-274.86C1169.61,-262.23 1190.28,-238.26 1210,-220 1221.49,-209.37 1235.3,-198.54 1246.46,-190.22"/>
<polygon fill="#63b8ff" stroke="#63b8ff" points="1248.75,-192.89 1254.74,-184.15 1244.6,-187.24 1248.75,-192.89"/>
</a>
</g>
</g>
<!-- Node43 -->
<g id="Node000043" class="node">
<title>Node43</title>
<g id="a_Node000043"><a xlink:href="../../dc/d7e/comparators_8h.html" target="_top" xlink:title=" ">
<polygon fill="white" stroke="#666666" points="1329.5,-239 1218.5,-239 1218.5,-220 1329.5,-220 1329.5,-239"/>
<text text-anchor="middle" x="1274" y="-227" font-family="Helvetica,sans-Serif" font-size="10.00">fl/stl/comparators.h</text>
</a>
</g>
</g>
<!-- Node36&#45;&gt;Node43 -->
<g id="edge52_Node000036_Node000043" class="edge">
<title>Node36&#45;&gt;Node43</title>
<g id="a_edge52_Node000036_Node000043"><a xlink:title=" ">
<path fill="none" stroke="#63b8ff" d="M1171.6,-274.98C1191.32,-266.42 1221.95,-253.11 1244.58,-243.28"/>
<polygon fill="#63b8ff" stroke="#63b8ff" points="1246.26,-246.37 1254.04,-239.17 1243.48,-239.94 1246.26,-246.37"/>
</a>
</g>
</g>
<!-- Node44 -->
<g id="Node000044" class="node">
<title>Node44</title>
<g id="a_Node000044"><a xlink:href="../../d3/d41/pair_8h.html" target="_top" xlink:title=" ">
<polygon fill="#fff0f0" stroke="red" points="928,-184 860,-184 860,-165 928,-165 928,-184"/>
<text text-anchor="middle" x="894" y="-172" font-family="Helvetica,sans-Serif" font-size="10.00">fl/stl/pair.h</text>
</a>
</g>
</g>
<!-- Node36&#45;&gt;Node44 -->
<g id="edge53_Node000036_Node000044" class="edge">
<title>Node36&#45;&gt;Node44</title>
<g id="a_edge53_Node000036_Node000044"><a xlink:title=" ">
<path fill="none" stroke="#63b8ff" d="M1131.32,-274.84C1085.83,-255.8 976.89,-210.2 923.93,-188.03"/>
<polygon fill="#63b8ff" stroke="#63b8ff" points="924.99,-184.68 914.42,-184.05 922.29,-191.14 924.99,-184.68"/>
</a>
</g>
</g>
<!-- Node36&#45;&gt;Node45 -->
<g id="edge57_Node000036_Node000045" class="edge">
<title>Node36&#45;&gt;Node45</title>
<g id="a_edge57_Node000036_Node000045"><a xlink:title=" ">
<path fill="none" stroke="#63b8ff" d="M1105.94,-279.58C991.99,-269.89 697.61,-244.84 579.31,-234.78"/>
<polygon fill="#63b8ff" stroke="#63b8ff" points="579.35,-231.27 569.09,-233.91 578.76,-238.25 579.35,-231.27"/>
</a>
</g>
</g>
<!-- Node51 -->
<g id="Node000051" class="node">
<title>Node51</title>
<g id="a_Node000051"><a xlink:href="../../d8/de1/memory__resource_8h.html" target="_top" xlink:title="PMR&#45;style polymorphic memory resource for type&#45;erased allocation.">
<polygon fill="white" stroke="#666666" points="1318,-129 1180,-129 1180,-110 1318,-110 1318,-129"/>
<text text-anchor="middle" x="1249" y="-117" font-family="Helvetica,sans-Serif" font-size="10.00">fl/stl/memory_resource.h</text>
</a>
</g>
</g>
<!-- Node36&#45;&gt;Node51 -->
<g id="edge67_Node000036_Node000051" class="edge">
<title>Node36&#45;&gt;Node51</title>
<g id="a_edge67_Node000036_Node000051"><a xlink:title=" ">
<path fill="none" stroke="#63b8ff" d="M1155.35,-274.75C1163.28,-254.52 1184.49,-203.32 1210,-165 1216.75,-154.87 1225.6,-144.58 1233.17,-136.45"/>
<polygon fill="#63b8ff" stroke="#63b8ff" points="1235.8,-138.77 1240.18,-129.13 1230.74,-133.93 1235.8,-138.77"/>
</a>
</g>
</g>
<!-- Node37&#45;&gt;Node38 -->
<g id="edge48_Node000037_Node000038" class="edge">
<title>Node37&#45;&gt;Node38</title>
<g id="a_edge48_Node000037_Node000038"><a xlink:title=" ">
<path fill="none" stroke="#63b8ff" d="M1421.71,-219.75C1418.19,-212.57 1413.09,-202.18 1408.72,-193.27"/>
<polygon fill="#63b8ff" stroke="#63b8ff" points="1411.76,-191.53 1404.21,-184.09 1405.48,-194.61 1411.76,-191.53"/>
</a>
</g>
</g>
<!-- Node39&#45;&gt;Node8 -->
<g id="edge51_Node000039_Node000008" class="edge">
<title>Node39&#45;&gt;Node8</title>
<g id="a_edge51_Node000039_Node000008"><a xlink:title=" ">
<path fill="none" stroke="#63b8ff" d="M1307.2,-164.87C1326.69,-158.45 1348.36,-147.48 1360,-129 1377.53,-101.17 1381.08,-80.24 1360,-55 1336.49,-26.86 1236.86,-16.48 1171.82,-12.68"/>
<polygon fill="#63b8ff" stroke="#63b8ff" points="1171.88,-9.17 1161.7,-12.12 1171.49,-16.16 1171.88,-9.17"/>
</a>
</g>
</g>
<!-- Node39&#45;&gt;Node13 -->
<g id="edge50_Node000039_Node000013" class="edge">
<title>Node39&#45;&gt;Node13</title>
<g id="a_edge50_Node000039_Node000013"><a xlink:title=" ">
<path fill="none" stroke="#63b8ff" d="M1218.37,-166.79C1148.64,-157.16 1020.31,-139.45 944.22,-128.95"/>
<polygon fill="#63b8ff" stroke="#63b8ff" points="944.68,-125.48 934.29,-127.58 943.72,-132.41 944.68,-125.48"/>
</a>
</g>
</g>
<!-- Node44&#45;&gt;Node4 -->
<g id="edge54_Node000044_Node000004" class="edge">
<title>Node44&#45;&gt;Node4</title>
<g id="a_edge54_Node000044_Node000004"><a xlink:title=" ">
<path fill="none" stroke="#63b8ff" d="M859.93,-169.12C794.03,-160.64 647.67,-141.81 557.66,-130.23"/>
<polygon fill="#63b8ff" stroke="#63b8ff" points="557.87,-126.73 547.51,-128.93 556.98,-133.67 557.87,-126.73"/>
</a>
</g>
</g>
<!-- Node44&#45;&gt;Node8 -->
<g id="edge56_Node000044_Node000008" class="edge">
<title>Node44&#45;&gt;Node8</title>
<g id="a_edge56_Node000044_Node000008"><a xlink:title=" ">
<path fill="none" stroke="#63b8ff" d="M928.05,-166.58C931.41,-166 934.77,-165.46 938,-165 980.97,-158.88 1297.76,-161.08 1327,-129 1378.61,-72.4 1250.75,-36.6 1171.41,-20.48"/>
<polygon fill="#63b8ff" stroke="#63b8ff" points="1172,-17.03 1161.51,-18.52 1170.64,-23.89 1172,-17.03"/>
</a>
</g>
</g>
<!-- Node44&#45;&gt;Node13 -->
<g id="edge55_Node000044_Node000013" class="edge">
<title>Node44&#45;&gt;Node13</title>
<g id="a_edge55_Node000044_Node000013"><a xlink:title=" ">
<path fill="none" stroke="#63b8ff" d="M892.18,-164.75C890.74,-157.8 888.68,-147.85 886.87,-139.13"/>
<polygon fill="#63b8ff" stroke="#63b8ff" points="890.24,-138.17 884.78,-129.09 883.39,-139.59 890.24,-138.17"/>
</a>
</g>
</g>
<!-- Node45&#45;&gt;Node4 -->
<g id="edge64_Node000045_Node000004" class="edge">
<title>Node45&#45;&gt;Node4</title>
<g id="a_edge64_Node000045_Node000004"><a xlink:title=" ">
<path fill="none" stroke="#63b8ff" d="M511.54,-219.88C498.53,-212.38 481.72,-200.18 474,-184 467.27,-169.9 470.35,-152.13 474.49,-138.97"/>
<polygon fill="#63b8ff" stroke="#63b8ff" points="477.92,-139.79 478.03,-129.19 471.33,-137.41 477.92,-139.79"/>
</a>
</g>
</g>
<!-- Node45&#45;&gt;Node6 -->
<g id="edge63_Node000045_Node000006" class="edge">
<title>Node45&#45;&gt;Node6</title>
<g id="a_edge63_Node000045_Node000006"><a xlink:title=" ">
<path fill="none" stroke="#63b8ff" d="M529.38,-219.98C530.32,-207.07 533.59,-182.26 545,-165 548.77,-159.29 620.39,-106.31 656.1,-80.08"/>
<polygon fill="#63b8ff" stroke="#63b8ff" points="658.35,-82.77 664.34,-74.03 654.21,-77.12 658.35,-82.77"/>
</a>
</g>
</g>
<!-- Node45&#45;&gt;Node8 -->
<g id="edge65_Node000045_Node000008" class="edge">
<title>Node45&#45;&gt;Node8</title>
<g id="a_edge65_Node000045_Node000008"><a xlink:title=" ">
<path fill="none" stroke="#63b8ff" d="M569.09,-227.64C685.72,-224.78 1018.97,-214.05 1057,-184 1105.26,-145.86 1113.11,-65.89 1114.08,-29.39"/>
<polygon fill="#63b8ff" stroke="#63b8ff" points="1117.58,-29.21 1114.2,-19.17 1110.58,-29.13 1117.58,-29.21"/>
</a>
</g>
</g>
<!-- Node45&#45;&gt;Node9 -->
<g id="edge60_Node000045_Node000009" class="edge">
<title>Node45&#45;&gt;Node9</title>
<g id="a_edge60_Node000045_Node000009"><a xlink:title=" ">
<path fill="none" stroke="#63b8ff" d="M492.37,-219.98C453.09,-210.86 390.63,-196.33 347.81,-186.38"/>
<polygon fill="#63b8ff" stroke="#63b8ff" points="348.45,-182.94 337.92,-184.08 346.87,-189.76 348.45,-182.94"/>
</a>
</g>
</g>
<!-- Node45&#45;&gt;Node10 -->
<g id="edge59_Node000045_Node000010" class="edge">
<title>Node45&#45;&gt;Node10</title>
<g id="a_edge59_Node000045_Node000010"><a xlink:title=" ">
<path fill="none" stroke="#63b8ff" d="M516.39,-219.97C503.68,-211.25 483.62,-197.16 467,-184 422.66,-148.9 373.2,-104.35 347.91,-81.15"/>
<polygon fill="#63b8ff" stroke="#63b8ff" points="350.03,-78.35 340.3,-74.15 345.29,-83.5 350.03,-78.35"/>
</a>
</g>
</g>
<!-- Node45&#45;&gt;Node11 -->
<g id="edge58_Node000045_Node000011" class="edge">
<title>Node45&#45;&gt;Node11</title>
<g id="a_edge58_Node000045_Node000011"><a xlink:title=" ">
<path fill="none" stroke="#63b8ff" d="M527.84,-219.89C526.5,-207.3 525.39,-183.37 533,-165 545.47,-134.89 602.78,-72.92 630,-55 656.43,-37.6 690.22,-26.5 717.51,-19.74"/>
<polygon fill="#63b8ff" stroke="#63b8ff" points="718.32,-23.14 727.24,-17.44 716.71,-16.33 718.32,-23.14"/>
</a>
</g>
</g>
<!-- Node45&#45;&gt;Node13 -->
<g id="edge62_Node000045_Node000013" class="edge">
<title>Node45&#45;&gt;Node13</title>
<g id="a_edge62_Node000045_Node000013"><a xlink:title=" ">
<path fill="none" stroke="#63b8ff" d="M555.88,-219.99C581.62,-211.61 621.4,-198.06 655,-184 672.79,-176.56 675.84,-171.47 694,-165 736.41,-149.89 786.02,-138.43 823.76,-130.93"/>
<polygon fill="#63b8ff" stroke="#63b8ff" points="824.44,-134.36 833.58,-129.01 823.1,-127.49 824.44,-134.36"/>
</a>
</g>
</g>
<!-- Node45&#45;&gt;Node19 -->
<g id="edge61_Node000045_Node000019" class="edge">
<title>Node45&#45;&gt;Node19</title>
<g id="a_edge61_Node000045_Node000019"><a xlink:title=" ">
<path fill="none" stroke="#63b8ff" d="M540.41,-219.98C551.11,-212 567.34,-199.88 580.16,-190.31"/>
<polygon fill="#63b8ff" stroke="#63b8ff" points="582.47,-192.96 588.39,-184.17 578.28,-187.35 582.47,-192.96"/>
</a>
</g>
</g>
<!-- Node51&#45;&gt;Node8 -->
<g id="edge69_Node000051_Node000008" class="edge">
<title>Node51&#45;&gt;Node8</title>
<g id="a_edge69_Node000051_Node000008"><a xlink:title=" ">
<path fill="none" stroke="#63b8ff" d="M1237.95,-109.66C1214.9,-91.22 1161.43,-48.45 1132.84,-25.57"/>
<polygon fill="#63b8ff" stroke="#63b8ff" points="1134.82,-22.67 1124.82,-19.16 1130.45,-28.14 1134.82,-22.67"/>
</a>
</g>
</g>
<!-- Node51&#45;&gt;Node10 -->
<g id="edge68_Node000051_Node000010" class="edge">
<title>Node51&#45;&gt;Node10</title>
<g id="a_edge68_Node000051_Node000010"><a xlink:title=" ">
<path fill="none" stroke="#63b8ff" d="M1179.62,-114.49C998.69,-104.05 516.51,-76.21 372.3,-67.88"/>
<polygon fill="#63b8ff" stroke="#63b8ff" points="372.3,-64.38 362.12,-67.3 371.9,-71.37 372.3,-64.38"/>
</a>
</g>
</g>
</g>
</svg>
