<?xml version="1.0" encoding="UTF-8" standalone="no"?>
<!DOCTYPE svg PUBLIC "-//W3C//DTD SVG 1.1//EN"
 "http://www.w3.org/Graphics/SVG/1.1/DTD/svg11.dtd">
<!-- Generated by graphviz version 2.43.0 (0)
 -->
<!-- Title: fl::detail::AsyncLoggerServiceTask::serviceLoggers Pages: 1 -->
<svg width="794pt" height="146pt"
 viewBox="0.00 0.00 794.00 145.50" xmlns="http://www.w3.org/2000/svg" xmlns:xlink="http://www.w3.org/1999/xlink">
<g id="graph0" class="graph" transform="scale(1 1) rotate(0) translate(4 141.5)">
<title>fl::detail::AsyncLoggerServiceTask::serviceLoggers</title>
<!-- Node1 -->
<g id="Node000001" class="node">
<title>Node1</title>
<g id="a_Node000001"><a xlink:title="Service all registered loggers (called by task)">
<polygon fill="#999999" stroke="#666666" points="786,-61.5 625,-61.5 625,-31.5 786,-31.5 786,-61.5"/>
<text text-anchor="start" x="633" y="-49.5" font-family="Helvetica,sans-Serif" font-size="10.00">fl::detail::AsyncLoggerService</text>
<text text-anchor="middle" x="705.5" y="-38.5" font-family="Helvetica,sans-Serif" font-size="10.00">Task::serviceLoggers</text>
</a>
</g>
</g>
<!-- Node2 -->
<g id="Node000002" class="node">
<title>Node2</title>
<g id="a_Node000002"><a xlink:href="../../d5/d06/classfl_1_1detail_1_1_async_logger_service_task_a3bff7aaa6e1158fbbee95055b3458285.html#a3bff7aaa6e1158fbbee95055b3458285" target="_top" xlink:title=" ">
<polygon fill="white" stroke="#666666" points="589,-86.5 425,-86.5 425,-56.5 589,-56.5 589,-86.5"/>
<text text-anchor="start" x="433" y="-74.5" font-family="Helvetica,sans-Serif" font-size="10.00">fl::detail::AsyncLoggerService</text>
<text text-anchor="middle" x="507" y="-63.5" font-family="Helvetica,sans-Serif" font-size="10.00">Task::AsyncLoggerServiceTask</text>
</a>
</g>
</g>
<!-- Node1&#45;&gt;Node2 -->
<g id="edge1_Node000001_Node000002" class="edge">
<title>Node1&#45;&gt;Node2</title>
<g id="a_edge1_Node000001_Node000002"><a xlink:title=" ">
<path fill="none" stroke="#63b8ff" d="M614.82,-57.91C606.23,-59 597.54,-60.11 589.03,-61.19"/>
<polygon fill="#63b8ff" stroke="#63b8ff" points="615.38,-61.37 624.86,-56.63 614.5,-54.42 615.38,-61.37"/>
</a>
</g>
</g>
<!-- Node4 -->
<g id="Node000004" class="node">
<title>Node4</title>
<g id="a_Node000004"><a xlink:href="../../d5/d06/classfl_1_1detail_1_1_async_logger_service_task_a90e57dbaf9bc274b5302c859efd53af3.html#a90e57dbaf9bc274b5302c859efd53af3" target="_top" xlink:title=" ">
<polygon fill="white" stroke="#666666" points="389,-41 192,-41 192,0 389,0 389,-41"/>
<text text-anchor="start" x="200" y="-29" font-family="Helvetica,sans-Serif" font-size="10.00">fl::detail::AsyncLoggerService</text>
<text text-anchor="start" x="200" y="-18" font-family="Helvetica,sans-Serif" font-size="10.00">Task::SingletonShared&lt; AsyncLogger</text>
<text text-anchor="middle" x="290.5" y="-7" font-family="Helvetica,sans-Serif" font-size="10.00">ServiceTask &gt;</text>
</a>
</g>
</g>
<!-- Node1&#45;&gt;Node4 -->
<g id="edge8_Node000001_Node000004" class="edge">
<title>Node1&#45;&gt;Node4</title>
<g id="a_edge8_Node000001_Node000004"><a xlink:title=" ">
<path fill="none" stroke="#63b8ff" d="M614.81,-40.85C548.22,-36.66 457.48,-30.95 389.08,-26.64"/>
<polygon fill="#63b8ff" stroke="#63b8ff" points="614.67,-44.35 624.87,-41.49 615.11,-37.37 614.67,-44.35"/>
</a>
</g>
</g>
<!-- Node3 -->
<g id="Node000003" class="node">
<title>Node3</title>
<g id="a_Node000003"><a xlink:href="../../d5/d06/classfl_1_1detail_1_1_async_logger_service_task_ae03d5fbeb6d8557bd7c4c5fabfe77b06.html#ae03d5fbeb6d8557bd7c4c5fabfe77b06" target="_top" xlink:title=" ">
<polygon fill="white" stroke="#666666" points="377,-137.5 204,-137.5 204,-107.5 377,-107.5 377,-137.5"/>
<text text-anchor="start" x="212" y="-125.5" font-family="Helvetica,sans-Serif" font-size="10.00">fl::detail::AsyncLoggerService</text>
<text text-anchor="middle" x="290.5" y="-114.5" font-family="Helvetica,sans-Serif" font-size="10.00">Task::~AsyncLoggerServiceTask</text>
</a>
</g>
</g>
<!-- Node2&#45;&gt;Node3 -->
<g id="edge2_Node000002_Node000003" class="edge">
<title>Node2&#45;&gt;Node3</title>
<g id="a_edge2_Node000002_Node000003"><a xlink:title=" ">
<path fill="none" stroke="#63b8ff" d="M432.85,-88.89C407.43,-94.94 379.15,-101.66 354.62,-107.49"/>
<polygon fill="#63b8ff" stroke="#63b8ff" points="433.88,-92.24 442.8,-86.53 432.26,-85.43 433.88,-92.24"/>
</a>
</g>
</g>
<!-- Node2&#45;&gt;Node4 -->
<g id="edge3_Node000002_Node000004" class="edge">
<title>Node2&#45;&gt;Node4</title>
<g id="a_edge3_Node000002_Node000004"><a xlink:title=" ">
<path fill="none" stroke="#63b8ff" d="M432.64,-54.06C415.08,-49.88 396.18,-45.39 378.09,-41.09"/>
<polygon fill="#63b8ff" stroke="#63b8ff" points="432.26,-57.57 442.8,-56.47 433.88,-50.76 432.26,-57.57"/>
</a>
</g>
</g>
<!-- Node5 -->
<g id="Node000005" class="node">
<title>Node5</title>
<g id="a_Node000005"><a xlink:href="../../d5/d06/classfl_1_1detail_1_1_async_logger_service_task_acc200cb8837f82379821217fb4a6bc29.html#acc200cb8837f82379821217fb4a6bc29" target="_top" xlink:title=" ">
<polygon fill="white" stroke="#666666" points="371,-89.5 210,-89.5 210,-59.5 371,-59.5 371,-89.5"/>
<text text-anchor="start" x="218" y="-77.5" font-family="Helvetica,sans-Serif" font-size="10.00">fl::detail::AsyncLoggerService</text>
<text text-anchor="middle" x="290.5" y="-66.5" font-family="Helvetica,sans-Serif" font-size="10.00">Task::instance</text>
</a>
</g>
</g>
<!-- Node2&#45;&gt;Node5 -->
<g id="edge4_Node000002_Node000005" class="edge">
<title>Node2&#45;&gt;Node5</title>
<g id="a_edge4_Node000002_Node000005"><a xlink:title=" ">
<path fill="none" stroke="#63b8ff" d="M414.52,-72.78C400.14,-72.98 385.37,-73.19 371.29,-73.38"/>
<polygon fill="#63b8ff" stroke="#63b8ff" points="414.96,-76.27 424.91,-72.63 414.86,-69.27 414.96,-76.27"/>
</a>
</g>
</g>
<!-- Node6 -->
<g id="Node000006" class="node">
<title>Node6</title>
<g id="a_Node000006"><a xlink:href="../../d4/d36/namespacefl_abe4e89a0a574f2abfa9c1bb53b9bd343.html#abe4e89a0a574f2abfa9c1bb53b9bd343" target="_top" xlink:title="Configure async logger automatic servicing task.">
<polygon fill="white" stroke="#666666" points="156,-115 0,-115 0,-96 156,-96 156,-115"/>
<text text-anchor="middle" x="78" y="-103" font-family="Helvetica,sans-Serif" font-size="10.00">fl::configureAsyncLogService</text>
</a>
</g>
</g>
<!-- Node5&#45;&gt;Node6 -->
<g id="edge5_Node000005_Node000006" class="edge">
<title>Node5&#45;&gt;Node6</title>
<g id="a_edge5_Node000005_Node000006"><a xlink:title=" ">
<path fill="none" stroke="#63b8ff" d="M199.82,-87.71C180.94,-90.49 161.38,-93.37 143.63,-95.98"/>
<polygon fill="#63b8ff" stroke="#63b8ff" points="200.54,-91.14 209.92,-86.22 199.52,-84.21 200.54,-91.14"/>
</a>
</g>
</g>
<!-- Node7 -->
<g id="Node000007" class="node">
<title>Node7</title>
<g id="a_Node000007"><a xlink:href="../../d4/d36/namespacefl_a78c09365a5278caa64b43fe7ff242146.html#a78c09365a5278caa64b43fe7ff242146" target="_top" xlink:title="Template&#45;based logger accessor with auto&#45;registration and enablement check.">
<polygon fill="#fff0f0" stroke="red" points="135,-59.5 21,-59.5 21,-29.5 135,-29.5 135,-59.5"/>
<text text-anchor="start" x="29" y="-47.5" font-family="Helvetica,sans-Serif" font-size="10.00">fl::get_async_logger</text>
<text text-anchor="middle" x="78" y="-36.5" font-family="Helvetica,sans-Serif" font-size="10.00">_by_index</text>
</a>
</g>
</g>
<!-- Node5&#45;&gt;Node7 -->
<g id="edge6_Node000005_Node000007" class="edge">
<title>Node5&#45;&gt;Node7</title>
<g id="a_edge6_Node000005_Node000007"><a xlink:title=" ">
<path fill="none" stroke="#63b8ff" d="M199.9,-61.73C177.91,-58.6 155,-55.33 135.1,-52.5"/>
<polygon fill="#63b8ff" stroke="#63b8ff" points="199.53,-65.21 209.92,-63.16 200.51,-58.28 199.53,-65.21"/>
</a>
</g>
</g>
<!-- Node7&#45;&gt;Node7 -->
<g id="edge7_Node000007_Node000007" class="edge">
<title>Node7&#45;&gt;Node7</title>
<g id="a_edge7_Node000007_Node000007"><a xlink:title=" ">
<path fill="none" stroke="#63b8ff" d="M115.11,-70.1C110.04,-74.47 97.67,-77.5 78,-77.5 44.88,-77.5 32.45,-68.91 40.73,-59.78"/>
<polygon fill="#63b8ff" stroke="#63b8ff" points="118.61,-69.83 115.27,-59.78 111.61,-69.72 118.61,-69.83"/>
</a>
</g>
</g>
</g>
</svg>
