<?xml version="1.0" encoding="UTF-8" standalone="no"?>
<!DOCTYPE svg PUBLIC "-//W3C//DTD SVG 1.1//EN"
 "http://www.w3.org/Graphics/SVG/1.1/DTD/svg11.dtd">
<!-- Generated by graphviz version 2.43.0 (0)
 -->
<!-- Title: fl::detail::AsyncLoggerServiceTask::AsyncLoggerServiceTask Pages: 1 -->
<!--zoomable 871 -->

<svg id="main" version="1.1" xmlns="http://www.w3.org/2000/svg" xmlns:xlink="http://www.w3.org/1999/xlink" xml:space="preserve" onload="init(evt)">

<style type="text/css"><![CDATA[
.node, .edge {opacity: 0.7;}
.node.selected, .edge.selected {opacity: 1;}
.edge:hover path { stroke: red; }
.edge:hover polygon { stroke: red; fill: red; }
]]></style>

<defs>
  <circle id="rim" cx="0" cy="0" r="7"/>
  <circle id="rim2" cx="0" cy="0" r="3.5"/>
  <g id="zoomPlus">
    <use xlink:href="#rim" fill="#404040"><set attributeName="fill" to="#808080" begin="zoomplus.mouseover" end="zoomplus.mouseout"/></use>
    <path d="M-4,0h8M0,-4v8" fill="none" stroke="white" stroke-width="1.5" pointer-events="none"/>
  </g>
  <g id="zoomMin">
    <use xlink:href="#rim" fill="#404040"><set attributeName="fill" to="#808080" begin="zoomminus.mouseover" end="zoomminus.mouseout"/></use>
    <path d="M-4,0h8" fill="none" stroke="white" stroke-width="1.5" pointer-events="none"/>
  </g>
  <g id="arrowUp" transform="translate(30 24)">
    <use xlink:href="#rim"/>
    <path pointer-events="none" fill="none" stroke="white" stroke-width="1.5" d="M0,-3.0v7 M-2.5,-0.5L0,-3.0L2.5,-0.5"/>
  </g>
  <g id="arrowRight" transform="rotate(90) translate(36 -43)">
    <use xlink:href="#rim"/>
    <path pointer-events="none" fill="none" stroke="white" stroke-width="1.5" d="M0,-3.0v7 M-2.5,-0.5L0,-3.0L2.5,-0.5"/>
  </g>
  <g id="arrowDown" transform="rotate(180) translate(-30 -48)">
    <use xlink:href="#rim"/>
    <path pointer-events="none" fill="none" stroke="white" stroke-width="1.5" d="M0,-3.0v7 M-2.5,-0.5L0,-3.0L2.5,-0.5"/>
  </g>
  <g id="arrowLeft" transform="rotate(270) translate(-36 17)">
    <use xlink:href="#rim"/>
    <path pointer-events="none" fill="none" stroke="white" stroke-width="1.5" d="M0,-3.0v7 M-2.5,-0.5L0,-3.0L2.5,-0.5"/>
  </g>
  <g id="resetDef">
    <use xlink:href="#rim2" fill="#404040"><set attributeName="fill" to="#808080" begin="reset.mouseover" end="reset.mouseout"/></use>
  </g>
</defs>
<script type="application/ecmascript">
var viewWidth = 800;
var viewHeight = 871;
var sectionId = 'dynsection-1';
</script>
<script type="application/ecmascript" xlink:href="../../svg.min.js"/>
<svg id="graph" class="graph">
<g id="viewport">
<title>fl::detail::AsyncLoggerServiceTask::AsyncLoggerServiceTask</title>
<!-- Node1 -->
<g id="Node000001" class="node">
<title>Node1</title>
<g id="a_Node000001"><a xlink:title=" ">
<polygon fill="#999999" stroke="#666666" points="792,-499.5 628,-499.5 628,-469.5 792,-469.5 792,-499.5"/>
<text text-anchor="start" x="636" y="-487.5" font-family="Helvetica,sans-Serif" font-size="10.00">fl::detail::AsyncLoggerService</text>
<text text-anchor="middle" x="710" y="-476.5" font-family="Helvetica,sans-Serif" font-size="10.00">Task::AsyncLoggerServiceTask</text>
</a>
</g>
</g>
<!-- Node2 -->
<g id="Node000002" class="node">
<title>Node2</title>
<g id="a_Node000002"><a xlink:href="../../d5/d06/classfl_1_1detail_1_1_async_logger_service_task_ae03d5fbeb6d8557bd7c4c5fabfe77b06.html#ae03d5fbeb6d8557bd7c4c5fabfe77b06" target="_top" xlink:title=" ">
<polygon fill="white" stroke="#666666" points="580,-553.5 407,-553.5 407,-523.5 580,-523.5 580,-553.5"/>
<text text-anchor="start" x="415" y="-541.5" font-family="Helvetica,sans-Serif" font-size="10.00">fl::detail::AsyncLoggerService</text>
<text text-anchor="middle" x="493.5" y="-530.5" font-family="Helvetica,sans-Serif" font-size="10.00">Task::~AsyncLoggerServiceTask</text>
</a>
</g>
</g>
<!-- Node1&#45;&gt;Node2 -->
<g id="edge1_Node000001_Node000002" class="edge">
<title>Node1&#45;&gt;Node2</title>
<g id="a_edge1_Node000001_Node000002"><a xlink:title=" ">
<path fill="none" stroke="#63b8ff" d="M640.88,-502.09C624.85,-506.19 607.83,-510.52 592,-514.5 580.33,-517.43 567.87,-520.53 555.9,-523.48"/>
<polygon fill="#63b8ff" stroke="#63b8ff" points="641.89,-505.44 650.71,-499.57 640.15,-498.66 641.89,-505.44"/>
</a>
</g>
</g>
<!-- Node3 -->
<g id="Node000003" class="node">
<title>Node3</title>
<g id="a_Node000003"><a xlink:href="../../d5/d06/classfl_1_1detail_1_1_async_logger_service_task_a90e57dbaf9bc274b5302c859efd53af3.html#a90e57dbaf9bc274b5302c859efd53af3" target="_top" xlink:title=" ">
<polygon fill="white" stroke="#666666" points="592,-505 395,-505 395,-464 592,-464 592,-505"/>
<text text-anchor="start" x="403" y="-493" font-family="Helvetica,sans-Serif" font-size="10.00">fl::detail::AsyncLoggerService</text>
<text text-anchor="start" x="403" y="-482" font-family="Helvetica,sans-Serif" font-size="10.00">Task::SingletonShared&lt; AsyncLogger</text>
<text text-anchor="middle" x="493.5" y="-471" font-family="Helvetica,sans-Serif" font-size="10.00">ServiceTask &gt;</text>
</a>
</g>
</g>
<!-- Node1&#45;&gt;Node3 -->
<g id="edge2_Node000001_Node000003" class="edge">
<title>Node1&#45;&gt;Node3</title>
<g id="a_edge2_Node000001_Node000003"><a xlink:title=" ">
<path fill="none" stroke="#63b8ff" d="M617.73,-484.5C609.32,-484.5 600.78,-484.5 592.31,-484.5"/>
<polygon fill="#63b8ff" stroke="#63b8ff" points="617.91,-488 627.91,-484.5 617.91,-481 617.91,-488"/>
</a>
</g>
</g>
<!-- Node4 -->
<g id="Node000004" class="node">
<title>Node4</title>
<g id="a_Node000004"><a xlink:href="../../d5/d06/classfl_1_1detail_1_1_async_logger_service_task_acc200cb8837f82379821217fb4a6bc29.html#acc200cb8837f82379821217fb4a6bc29" target="_top" xlink:title=" ">
<polygon fill="white" stroke="#666666" points="574,-445.5 413,-445.5 413,-415.5 574,-415.5 574,-445.5"/>
<text text-anchor="start" x="421" y="-433.5" font-family="Helvetica,sans-Serif" font-size="10.00">fl::detail::AsyncLoggerService</text>
<text text-anchor="middle" x="493.5" y="-422.5" font-family="Helvetica,sans-Serif" font-size="10.00">Task::instance</text>
</a>
</g>
</g>
<!-- Node1&#45;&gt;Node4 -->
<g id="edge3_Node000001_Node000004" class="edge">
<title>Node1&#45;&gt;Node4</title>
<g id="a_edge3_Node000001_Node000004"><a xlink:title=" ">
<path fill="none" stroke="#63b8ff" d="M639.33,-466.96C611.89,-460.05 580.69,-452.2 554.3,-445.55"/>
<polygon fill="#63b8ff" stroke="#63b8ff" points="638.7,-470.41 649.25,-469.46 640.41,-463.62 638.7,-470.41"/>
</a>
</g>
</g>
<!-- Node5 -->
<g id="Node000005" class="node">
<title>Node5</title>
<g id="a_Node000005"><a xlink:href="../../d4/d36/namespacefl_abe4e89a0a574f2abfa9c1bb53b9bd343.html#abe4e89a0a574f2abfa9c1bb53b9bd343" target="_top" xlink:title="Configure async logger automatic servicing task.">
<polygon fill="white" stroke="#666666" points="359,-471 203,-471 203,-452 359,-452 359,-471"/>
<text text-anchor="middle" x="281" y="-459" font-family="Helvetica,sans-Serif" font-size="10.00">fl::configureAsyncLogService</text>
</a>
</g>
</g>
<!-- Node4&#45;&gt;Node5 -->
<g id="edge4_Node000004_Node000005" class="edge">
<title>Node4&#45;&gt;Node5</title>
<g id="a_edge4_Node000004_Node000005"><a xlink:title=" ">
<path fill="none" stroke="#63b8ff" d="M402.82,-443.71C383.94,-446.49 364.38,-449.37 346.63,-451.98"/>
<polygon fill="#63b8ff" stroke="#63b8ff" points="403.54,-447.14 412.92,-442.22 402.52,-440.21 403.54,-447.14"/>
</a>
</g>
</g>
<!-- Node6 -->
<g id="Node000006" class="node">
<title>Node6</title>
<g id="a_Node000006"><a xlink:href="../../d4/d36/namespacefl_a78c09365a5278caa64b43fe7ff242146.html#a78c09365a5278caa64b43fe7ff242146" target="_top" xlink:title="Template&#45;based logger accessor with auto&#45;registration and enablement check.">
<polygon fill="white" stroke="#666666" points="338,-415.5 224,-415.5 224,-385.5 338,-385.5 338,-415.5"/>
<text text-anchor="start" x="232" y="-403.5" font-family="Helvetica,sans-Serif" font-size="10.00">fl::get_async_logger</text>
<text text-anchor="middle" x="281" y="-392.5" font-family="Helvetica,sans-Serif" font-size="10.00">_by_index</text>
</a>
</g>
</g>
<!-- Node4&#45;&gt;Node6 -->
<g id="edge5_Node000004_Node000006" class="edge">
<title>Node4&#45;&gt;Node6</title>
<g id="a_edge5_Node000004_Node000006"><a xlink:title=" ">
<path fill="none" stroke="#63b8ff" d="M402.9,-417.73C380.91,-414.6 358,-411.33 338.1,-408.5"/>
<polygon fill="#63b8ff" stroke="#63b8ff" points="402.53,-421.21 412.92,-419.16 403.51,-414.28 402.53,-421.21"/>
</a>
</g>
</g>
<!-- Node6&#45;&gt;Node6 -->
<g id="edge6_Node000006_Node000006" class="edge">
<title>Node6&#45;&gt;Node6</title>
<g id="a_edge6_Node000006_Node000006"><a xlink:title=" ">
<path fill="none" stroke="#63b8ff" d="M315.31,-426.1C310.62,-430.47 299.18,-433.5 281,-433.5 250.38,-433.5 238.89,-424.91 246.55,-415.78"/>
<polygon fill="#63b8ff" stroke="#63b8ff" points="318.81,-425.82 315.45,-415.78 311.81,-425.72 318.81,-425.82"/>
</a>
</g>
</g>
<!-- Node7 -->
<g id="Node000007" class="node">
<title>Node7</title>
<g id="a_Node000007"><a xlink:href="../../d4/d36/namespacefl_ac71d1d14ce5a4605f46cd7986835ce1b.html#ac71d1d14ce5a4605f46cd7986835ce1b" target="_top" xlink:title=" ">
<polygon fill="white" stroke="#666666" points="138.5,-844.5 28.5,-844.5 28.5,-814.5 138.5,-814.5 138.5,-844.5"/>
<text text-anchor="start" x="36.5" y="-832.5" font-family="Helvetica,sans-Serif" font-size="10.00">fl::get_audio_async</text>
<text text-anchor="middle" x="83.5" y="-821.5" font-family="Helvetica,sans-Serif" font-size="10.00">_logger_isr</text>
</a>
</g>
</g>
<!-- Node6&#45;&gt;Node7 -->
<g id="edge7_Node000006_Node000007" class="edge">
<title>Node6&#45;&gt;Node7</title>
<g id="a_edge7_Node000006_Node000007"><a xlink:title=" ">
<path fill="none" stroke="#63b8ff" d="M227.5,-420.74C217.96,-426.69 209.11,-434.19 203,-443.5 158.68,-511.11 218.67,-743.33 167,-805.5 159.75,-814.22 149.54,-819.88 138.76,-823.52"/>
<polygon fill="#63b8ff" stroke="#63b8ff" points="229.43,-423.67 236.4,-415.7 225.98,-417.58 229.43,-423.67"/>
</a>
</g>
</g>
<!-- Node8 -->
<g id="Node000008" class="node">
<title>Node8</title>
<g id="a_Node000008"><a xlink:href="../../d4/d36/namespacefl_ab9d0e6c03096a4067633d85ee32cb365.html#ab9d0e6c03096a4067633d85ee32cb365" target="_top" xlink:title=" ">
<polygon fill="white" stroke="#666666" points="138.5,-778.5 28.5,-778.5 28.5,-748.5 138.5,-748.5 138.5,-778.5"/>
<text text-anchor="start" x="36.5" y="-766.5" font-family="Helvetica,sans-Serif" font-size="10.00">fl::get_audio_async</text>
<text text-anchor="middle" x="83.5" y="-755.5" font-family="Helvetica,sans-Serif" font-size="10.00">_logger_main</text>
</a>
</g>
</g>
<!-- Node6&#45;&gt;Node8 -->
<g id="edge9_Node000006_Node000008" class="edge">
<title>Node6&#45;&gt;Node8</title>
<g id="a_edge9_Node000006_Node000008"><a xlink:title=" ">
<path fill="none" stroke="#63b8ff" d="M227.96,-420.66C218.29,-426.63 209.27,-434.16 203,-443.5 129.13,-553.53 252.82,-638.51 167,-739.5 159.66,-748.14 149.41,-753.76 138.62,-757.4"/>
<polygon fill="#63b8ff" stroke="#63b8ff" points="229.96,-423.55 236.96,-415.59 226.53,-417.44 229.96,-423.55"/>
</a>
</g>
</g>
<!-- Node9 -->
<g id="Node000009" class="node">
<title>Node9</title>
<g id="a_Node000009"><a xlink:href="../../d4/d36/namespacefl_af1373fbca8e34ea0fc147206f3fc2cca.html#af1373fbca8e34ea0fc147206f3fc2cca" target="_top" xlink:title=" ">
<polygon fill="white" stroke="#666666" points="138.5,-712.5 28.5,-712.5 28.5,-682.5 138.5,-682.5 138.5,-712.5"/>
<text text-anchor="start" x="36.5" y="-700.5" font-family="Helvetica,sans-Serif" font-size="10.00">fl::get_flexio_async</text>
<text text-anchor="middle" x="83.5" y="-689.5" font-family="Helvetica,sans-Serif" font-size="10.00">_logger_isr</text>
</a>
</g>
</g>
<!-- Node6&#45;&gt;Node9 -->
<g id="edge11_Node000006_Node000009" class="edge">
<title>Node6&#45;&gt;Node9</title>
<g id="a_edge11_Node000006_Node000009"><a xlink:title=" ">
<path fill="none" stroke="#63b8ff" d="M228.81,-420.45C218.9,-426.48 209.57,-434.07 203,-443.5 143.86,-528.4 235.34,-595.81 167,-673.5 159.61,-681.9 149.47,-687.44 138.82,-691.07"/>
<polygon fill="#63b8ff" stroke="#63b8ff" points="230.57,-423.47 237.61,-415.55 227.17,-417.36 230.57,-423.47"/>
</a>
</g>
</g>
<!-- Node10 -->
<g id="Node000010" class="node">
<title>Node10</title>
<g id="a_Node000010"><a xlink:href="../../d4/d36/namespacefl_a164a1504a9c412d703391aaf93ce1bf7.html#a164a1504a9c412d703391aaf93ce1bf7" target="_top" xlink:title=" ">
<polygon fill="white" stroke="#666666" points="138.5,-646.5 28.5,-646.5 28.5,-616.5 138.5,-616.5 138.5,-646.5"/>
<text text-anchor="start" x="36.5" y="-634.5" font-family="Helvetica,sans-Serif" font-size="10.00">fl::get_flexio_async</text>
<text text-anchor="middle" x="83.5" y="-623.5" font-family="Helvetica,sans-Serif" font-size="10.00">_logger_main</text>
</a>
</g>
</g>
<!-- Node6&#45;&gt;Node10 -->
<g id="edge13_Node000006_Node000010" class="edge">
<title>Node6&#45;&gt;Node10</title>
<g id="a_edge13_Node000006_Node000010"><a xlink:title=" ">
<path fill="none" stroke="#63b8ff" d="M229.54,-420.57C219.49,-426.61 209.92,-434.18 203,-443.5 158.51,-503.41 217.97,-552.99 167,-607.5 159.46,-615.56 149.39,-620.97 138.87,-624.58"/>
<polygon fill="#63b8ff" stroke="#63b8ff" points="231.38,-423.56 238.44,-415.65 227.99,-417.43 231.38,-423.56"/>
</a>
</g>
</g>
<!-- Node11 -->
<g id="Node000011" class="node">
<title>Node11</title>
<g id="a_Node000011"><a xlink:href="../../d4/d36/namespacefl_aafffa3aa11f082e65cefb849dc064175.html#aafffa3aa11f082e65cefb849dc064175" target="_top" xlink:title=" ">
<polygon fill="white" stroke="#666666" points="146,-580.5 21,-580.5 21,-550.5 146,-550.5 146,-580.5"/>
<text text-anchor="start" x="29" y="-568.5" font-family="Helvetica,sans-Serif" font-size="10.00">fl::get_interrupt_async</text>
<text text-anchor="middle" x="83.5" y="-557.5" font-family="Helvetica,sans-Serif" font-size="10.00">_logger_isr</text>
</a>
</g>
</g>
<!-- Node6&#45;&gt;Node11 -->
<g id="edge15_Node000006_Node000011" class="edge">
<title>Node6&#45;&gt;Node11</title>
<g id="a_edge15_Node000006_Node000011"><a xlink:title=" ">
<path fill="none" stroke="#63b8ff" d="M232.01,-420.39C221.37,-426.55 210.92,-434.22 203,-443.5 172.87,-478.79 200.92,-509.84 167,-541.5 161,-547.1 153.77,-551.4 146.12,-554.7"/>
<polygon fill="#63b8ff" stroke="#63b8ff" points="233.81,-423.4 240.94,-415.57 230.48,-417.24 233.81,-423.4"/>
</a>
</g>
</g>
<!-- Node12 -->
<g id="Node000012" class="node">
<title>Node12</title>
<g id="a_Node000012"><a xlink:href="../../d4/d36/namespacefl_ac0f10baddec631187b8fb5be43918a8a.html#ac0f10baddec631187b8fb5be43918a8a" target="_top" xlink:title=" ">
<polygon fill="white" stroke="#666666" points="146,-514.5 21,-514.5 21,-484.5 146,-484.5 146,-514.5"/>
<text text-anchor="start" x="29" y="-502.5" font-family="Helvetica,sans-Serif" font-size="10.00">fl::get_interrupt_async</text>
<text text-anchor="middle" x="83.5" y="-491.5" font-family="Helvetica,sans-Serif" font-size="10.00">_logger_main</text>
</a>
</g>
</g>
<!-- Node6&#45;&gt;Node12 -->
<g id="edge17_Node000006_Node000012" class="edge">
<title>Node6&#45;&gt;Node12</title>
<g id="a_edge17_Node000006_Node000012"><a xlink:title=" ">
<path fill="none" stroke="#63b8ff" d="M240.31,-420.51C228.01,-427.28 214.64,-435.23 203,-443.5 185.55,-455.9 185.74,-465.15 167,-475.5 160.47,-479.11 153.35,-482.22 146.11,-484.9"/>
<polygon fill="#63b8ff" stroke="#63b8ff" points="242.32,-423.41 249.46,-415.58 239,-417.24 242.32,-423.41"/>
</a>
</g>
</g>
<!-- Node13 -->
<g id="Node000013" class="node">
<title>Node13</title>
<g id="a_Node000013"><a xlink:href="../../d4/d36/namespacefl_a6e4b1f96f3f93c1a9cbd21aea38a558b.html#a6e4b1f96f3f93c1a9cbd21aea38a558b" target="_top" xlink:title=" ">
<polygon fill="white" stroke="#666666" points="135.5,-448.5 31.5,-448.5 31.5,-418.5 135.5,-418.5 135.5,-448.5"/>
<text text-anchor="start" x="39.5" y="-436.5" font-family="Helvetica,sans-Serif" font-size="10.00">fl::get_objectfled</text>
<text text-anchor="middle" x="83.5" y="-425.5" font-family="Helvetica,sans-Serif" font-size="10.00">_async_logger_isr</text>
</a>
</g>
</g>
<!-- Node6&#45;&gt;Node13 -->
<g id="edge19_Node000006_Node000013" class="edge">
<title>Node6&#45;&gt;Node13</title>
<g id="a_edge19_Node000006_Node000013"><a xlink:title=" ">
<path fill="none" stroke="#63b8ff" d="M213.97,-411.65C188.36,-415.97 159.49,-420.84 135.52,-424.89"/>
<polygon fill="#63b8ff" stroke="#63b8ff" points="214.7,-415.07 223.98,-409.96 213.53,-408.17 214.7,-415.07"/>
</a>
</g>
</g>
<!-- Node14 -->
<g id="Node000014" class="node">
<title>Node14</title>
<g id="a_Node000014"><a xlink:href="../../d4/d36/namespacefl_a29c6eabca94f03a165b0ae3333841730.html#a29c6eabca94f03a165b0ae3333841730" target="_top" xlink:title=" ">
<polygon fill="white" stroke="#666666" points="141.5,-382.5 25.5,-382.5 25.5,-352.5 141.5,-352.5 141.5,-382.5"/>
<text text-anchor="start" x="33.5" y="-370.5" font-family="Helvetica,sans-Serif" font-size="10.00">fl::get_objectfled</text>
<text text-anchor="middle" x="83.5" y="-359.5" font-family="Helvetica,sans-Serif" font-size="10.00">_async_logger_main</text>
</a>
</g>
</g>
<!-- Node6&#45;&gt;Node14 -->
<g id="edge21_Node000006_Node000014" class="edge">
<title>Node6&#45;&gt;Node14</title>
<g id="a_edge21_Node000006_Node000014"><a xlink:title=" ">
<path fill="none" stroke="#63b8ff" d="M214.08,-389.37C190.56,-385.4 164.27,-380.96 141.55,-377.13"/>
<polygon fill="#63b8ff" stroke="#63b8ff" points="213.53,-392.83 223.98,-391.04 214.7,-385.93 213.53,-392.83"/>
</a>
</g>
</g>
<!-- Node15 -->
<g id="Node000015" class="node">
<title>Node15</title>
<g id="a_Node000015"><a xlink:href="../../d4/d36/namespacefl_a2de9178390e62f5fe38ea8b9d563db32.html#a2de9178390e62f5fe38ea8b9d563db32" target="_top" xlink:title=" ">
<polygon fill="white" stroke="#666666" points="139,-316.5 28,-316.5 28,-286.5 139,-286.5 139,-316.5"/>
<text text-anchor="start" x="36" y="-304.5" font-family="Helvetica,sans-Serif" font-size="10.00">fl::get_parlio_async</text>
<text text-anchor="middle" x="83.5" y="-293.5" font-family="Helvetica,sans-Serif" font-size="10.00">_logger_isr</text>
</a>
</g>
</g>
<!-- Node6&#45;&gt;Node15 -->
<g id="edge23_Node000006_Node000015" class="edge">
<title>Node6&#45;&gt;Node15</title>
<g id="a_edge23_Node000006_Node000015"><a xlink:title=" ">
<path fill="none" stroke="#63b8ff" d="M241.23,-380.87C203.85,-361.94 148.11,-333.71 114.15,-316.51"/>
<polygon fill="#63b8ff" stroke="#63b8ff" points="239.81,-384.07 250.31,-385.46 242.97,-377.82 239.81,-384.07"/>
</a>
</g>
</g>
<!-- Node16 -->
<g id="Node000016" class="node">
<title>Node16</title>
<g id="a_Node000016"><a xlink:href="../../d4/d36/namespacefl_aaf1d69815112d60c1010f9e888de3a4e.html#aaf1d69815112d60c1010f9e888de3a4e" target="_top" xlink:title=" ">
<polygon fill="white" stroke="#666666" points="139,-250.5 28,-250.5 28,-220.5 139,-220.5 139,-250.5"/>
<text text-anchor="start" x="36" y="-238.5" font-family="Helvetica,sans-Serif" font-size="10.00">fl::get_parlio_async</text>
<text text-anchor="middle" x="83.5" y="-227.5" font-family="Helvetica,sans-Serif" font-size="10.00">_logger_main</text>
</a>
</g>
</g>
<!-- Node6&#45;&gt;Node16 -->
<g id="edge25_Node000006_Node000016" class="edge">
<title>Node6&#45;&gt;Node16</title>
<g id="a_edge25_Node000006_Node000016"><a xlink:title=" ">
<path fill="none" stroke="#63b8ff" d="M262.82,-377.25C242.27,-350.64 205.76,-306.93 167,-277.5 153.05,-266.91 136.02,-257.72 121.06,-250.66"/>
<polygon fill="#63b8ff" stroke="#63b8ff" points="260.07,-379.42 268.91,-385.25 265.64,-375.18 260.07,-379.42"/>
</a>
</g>
</g>
<!-- Node17 -->
<g id="Node000017" class="node">
<title>Node17</title>
<g id="a_Node000017"><a xlink:href="../../d4/d36/namespacefl_a8b3bdf77ecfa93d00203de68c1490e60.html#a8b3bdf77ecfa93d00203de68c1490e60" target="_top" xlink:title=" ">
<polygon fill="white" stroke="#666666" points="160.5,-184 6.5,-184 6.5,-165 160.5,-165 160.5,-184"/>
<text text-anchor="middle" x="83.5" y="-172" font-family="Helvetica,sans-Serif" font-size="10.00">fl::get_rmt_async_logger_isr</text>
</a>
</g>
</g>
<!-- Node6&#45;&gt;Node17 -->
<g id="edge27_Node000006_Node000017" class="edge">
<title>Node6&#45;&gt;Node17</title>
<g id="a_edge27_Node000006_Node000017"><a xlink:title=" ">
<path fill="none" stroke="#63b8ff" d="M271.03,-376.03C255.47,-336.58 219.96,-258.59 167,-211.5 152.92,-198.98 133.92,-190.07 117.69,-184.13"/>
<polygon fill="#63b8ff" stroke="#63b8ff" points="267.79,-377.33 274.64,-385.41 274.32,-374.82 267.79,-377.33"/>
</a>
</g>
</g>
<!-- Node18 -->
<g id="Node000018" class="node">
<title>Node18</title>
<g id="a_Node000018"><a xlink:href="../../d4/d36/namespacefl_a69699a4b927f6034da7215beb8e66b51.html#a69699a4b927f6034da7215beb8e66b51" target="_top" xlink:title=" ">
<polygon fill="white" stroke="#666666" points="167,-129 0,-129 0,-110 167,-110 167,-129"/>
<text text-anchor="middle" x="83.5" y="-117" font-family="Helvetica,sans-Serif" font-size="10.00">fl::get_rmt_async_logger_main</text>
</a>
</g>
</g>
<!-- Node6&#45;&gt;Node18 -->
<g id="edge29_Node000006_Node000018" class="edge">
<title>Node6&#45;&gt;Node18</title>
<g id="a_edge29_Node000006_Node000018"><a xlink:title=" ">
<path fill="none" stroke="#63b8ff" d="M274.63,-375.58C263.05,-327.28 231.37,-220.1 167,-156.5 154.05,-143.7 135.89,-134.91 119.91,-129.11"/>
<polygon fill="#63b8ff" stroke="#63b8ff" points="271.26,-376.53 276.92,-385.48 278.08,-374.95 271.26,-376.53"/>
</a>
</g>
</g>
<!-- Node19 -->
<g id="Node000019" class="node">
<title>Node19</title>
<g id="a_Node000019"><a xlink:href="../../d4/d36/namespacefl_a7dd3529e52d0da56653a3855842a0a0d.html#a7dd3529e52d0da56653a3855842a0a0d" target="_top" xlink:title=" ">
<polygon fill="white" stroke="#666666" points="159,-74 8,-74 8,-55 159,-55 159,-74"/>
<text text-anchor="middle" x="83.5" y="-62" font-family="Helvetica,sans-Serif" font-size="10.00">fl::get_spi_async_logger_isr</text>
</a>
</g>
</g>
<!-- Node6&#45;&gt;Node19 -->
<g id="edge31_Node000006_Node000019" class="edge">
<title>Node6&#45;&gt;Node19</title>
<g id="a_edge31_Node000006_Node000019"><a xlink:title=" ">
<path fill="none" stroke="#63b8ff" d="M277.03,-375.17C269.17,-318.92 242.96,-182.18 167,-101.5 154.84,-88.59 137.34,-79.86 121.59,-74.15"/>
<polygon fill="#63b8ff" stroke="#63b8ff" points="273.59,-375.85 278.36,-385.31 280.53,-374.94 273.59,-375.85"/>
</a>
</g>
</g>
<!-- Node20 -->
<g id="Node000020" class="node">
<title>Node20</title>
<g id="a_Node000020"><a xlink:href="../../d4/d36/namespacefl_ab704acb05b0375e247eb56bbc426ba1a.html#ab704acb05b0375e247eb56bbc426ba1a" target="_top" xlink:title=" ">
<polygon fill="white" stroke="#666666" points="165.5,-19 1.5,-19 1.5,0 165.5,0 165.5,-19"/>
<text text-anchor="middle" x="83.5" y="-7" font-family="Helvetica,sans-Serif" font-size="10.00">fl::get_spi_async_logger_main</text>
</a>
</g>
</g>
<!-- Node6&#45;&gt;Node20 -->
<g id="edge33_Node000006_Node000020" class="edge">
<title>Node6&#45;&gt;Node20</title>
<g id="a_edge33_Node000006_Node000020"><a xlink:title=" ">
<path fill="none" stroke="#63b8ff" d="M278.77,-374.99C274.42,-311.55 254.78,-144.76 167,-46.5 155.29,-33.39 138.03,-24.67 122.33,-19"/>
<polygon fill="#63b8ff" stroke="#63b8ff" points="275.3,-375.49 279.41,-385.26 282.29,-375.06 275.3,-375.49"/>
</a>
</g>
</g>
<!-- Node7&#45;&gt;Node7 -->
<g id="edge8_Node000007_Node000007" class="edge">
<title>Node7&#45;&gt;Node7</title>
<g id="a_edge8_Node000007_Node000007"><a xlink:title=" ">
<path fill="none" stroke="#63b8ff" d="M117.81,-855.1C113.12,-859.47 101.68,-862.5 83.5,-862.5 52.87,-862.5 41.39,-853.91 49.05,-844.78"/>
<polygon fill="#63b8ff" stroke="#63b8ff" points="121.31,-854.82 117.95,-844.78 114.31,-854.72 121.31,-854.82"/>
</a>
</g>
</g>
<!-- Node8&#45;&gt;Node8 -->
<g id="edge10_Node000008_Node000008" class="edge">
<title>Node8&#45;&gt;Node8</title>
<g id="a_edge10_Node000008_Node000008"><a xlink:title=" ">
<path fill="none" stroke="#63b8ff" d="M117.81,-789.1C113.12,-793.47 101.68,-796.5 83.5,-796.5 52.87,-796.5 41.39,-787.91 49.05,-778.78"/>
<polygon fill="#63b8ff" stroke="#63b8ff" points="121.31,-788.82 117.95,-778.78 114.31,-788.72 121.31,-788.82"/>
</a>
</g>
</g>
<!-- Node9&#45;&gt;Node9 -->
<g id="edge12_Node000009_Node000009" class="edge">
<title>Node9&#45;&gt;Node9</title>
<g id="a_edge12_Node000009_Node000009"><a xlink:title=" ">
<path fill="none" stroke="#63b8ff" d="M117.81,-723.1C113.12,-727.47 101.68,-730.5 83.5,-730.5 52.87,-730.5 41.39,-721.91 49.05,-712.78"/>
<polygon fill="#63b8ff" stroke="#63b8ff" points="121.31,-722.82 117.95,-712.78 114.31,-722.72 121.31,-722.82"/>
</a>
</g>
</g>
<!-- Node10&#45;&gt;Node10 -->
<g id="edge14_Node000010_Node000010" class="edge">
<title>Node10&#45;&gt;Node10</title>
<g id="a_edge14_Node000010_Node000010"><a xlink:title=" ">
<path fill="none" stroke="#63b8ff" d="M117.81,-657.1C113.12,-661.47 101.68,-664.5 83.5,-664.5 52.87,-664.5 41.39,-655.91 49.05,-646.78"/>
<polygon fill="#63b8ff" stroke="#63b8ff" points="121.31,-656.82 117.95,-646.78 114.31,-656.72 121.31,-656.82"/>
</a>
</g>
</g>
<!-- Node11&#45;&gt;Node11 -->
<g id="edge16_Node000011_Node000011" class="edge">
<title>Node11&#45;&gt;Node11</title>
<g id="a_edge16_Node000011_Node000011"><a xlink:title=" ">
<path fill="none" stroke="#63b8ff" d="M117.81,-591.1C113.12,-595.47 101.68,-598.5 83.5,-598.5 52.87,-598.5 41.39,-589.91 49.05,-580.78"/>
<polygon fill="#63b8ff" stroke="#63b8ff" points="121.31,-590.82 117.95,-580.78 114.31,-590.72 121.31,-590.82"/>
</a>
</g>
</g>
<!-- Node12&#45;&gt;Node12 -->
<g id="edge18_Node000012_Node000012" class="edge">
<title>Node12&#45;&gt;Node12</title>
<g id="a_edge18_Node000012_Node000012"><a xlink:title=" ">
<path fill="none" stroke="#63b8ff" d="M117.81,-525.1C113.12,-529.47 101.68,-532.5 83.5,-532.5 52.87,-532.5 41.39,-523.91 49.05,-514.78"/>
<polygon fill="#63b8ff" stroke="#63b8ff" points="121.31,-524.82 117.95,-514.78 114.31,-524.72 121.31,-524.82"/>
</a>
</g>
</g>
<!-- Node13&#45;&gt;Node13 -->
<g id="edge20_Node000013_Node000013" class="edge">
<title>Node13&#45;&gt;Node13</title>
<g id="a_edge20_Node000013_Node000013"><a xlink:title=" ">
<path fill="none" stroke="#63b8ff" d="M117.81,-459.1C113.12,-463.47 101.68,-466.5 83.5,-466.5 52.87,-466.5 41.39,-457.91 49.05,-448.78"/>
<polygon fill="#63b8ff" stroke="#63b8ff" points="121.31,-458.82 117.95,-448.78 114.31,-458.72 121.31,-458.82"/>
</a>
</g>
</g>
<!-- Node14&#45;&gt;Node14 -->
<g id="edge22_Node000014_Node000014" class="edge">
<title>Node14&#45;&gt;Node14</title>
<g id="a_edge22_Node000014_Node000014"><a xlink:title=" ">
<path fill="none" stroke="#63b8ff" d="M117.81,-393.1C113.12,-397.47 101.68,-400.5 83.5,-400.5 52.87,-400.5 41.39,-391.91 49.05,-382.78"/>
<polygon fill="#63b8ff" stroke="#63b8ff" points="121.31,-392.82 117.95,-382.78 114.31,-392.72 121.31,-392.82"/>
</a>
</g>
</g>
<!-- Node15&#45;&gt;Node15 -->
<g id="edge24_Node000015_Node000015" class="edge">
<title>Node15&#45;&gt;Node15</title>
<g id="a_edge24_Node000015_Node000015"><a xlink:title=" ">
<path fill="none" stroke="#63b8ff" d="M117.81,-327.1C113.12,-331.47 101.68,-334.5 83.5,-334.5 52.87,-334.5 41.39,-325.91 49.05,-316.78"/>
<polygon fill="#63b8ff" stroke="#63b8ff" points="121.31,-326.82 117.95,-316.78 114.31,-326.72 121.31,-326.82"/>
</a>
</g>
</g>
<!-- Node16&#45;&gt;Node16 -->
<g id="edge26_Node000016_Node000016" class="edge">
<title>Node16&#45;&gt;Node16</title>
<g id="a_edge26_Node000016_Node000016"><a xlink:title=" ">
<path fill="none" stroke="#63b8ff" d="M117.81,-261.1C113.12,-265.47 101.68,-268.5 83.5,-268.5 52.87,-268.5 41.39,-259.91 49.05,-250.78"/>
<polygon fill="#63b8ff" stroke="#63b8ff" points="121.31,-260.82 117.95,-250.78 114.31,-260.72 121.31,-260.82"/>
</a>
</g>
</g>
<!-- Node17&#45;&gt;Node17 -->
<g id="edge28_Node000017_Node000017" class="edge">
<title>Node17&#45;&gt;Node17</title>
<g id="a_edge28_Node000017_Node000017"><a xlink:title=" ">
<path fill="none" stroke="#63b8ff" d="M120.25,-191.69C120.24,-197.42 107.99,-202 83.5,-202 48.66,-202 38.59,-192.73 53.29,-184.08"/>
<polygon fill="#63b8ff" stroke="#63b8ff" points="122.88,-189.38 113.71,-184.08 117.57,-193.95 122.88,-189.38"/>
</a>
</g>
</g>
<!-- Node18&#45;&gt;Node18 -->
<g id="edge30_Node000018_Node000018" class="edge">
<title>Node18&#45;&gt;Node18</title>
<g id="a_edge30_Node000018_Node000018"><a xlink:title=" ">
<path fill="none" stroke="#63b8ff" d="M120.25,-136.69C120.24,-142.42 107.99,-147 83.5,-147 48.66,-147 38.59,-137.73 53.29,-129.08"/>
<polygon fill="#63b8ff" stroke="#63b8ff" points="122.88,-134.38 113.71,-129.08 117.57,-138.95 122.88,-134.38"/>
</a>
</g>
</g>
<!-- Node19&#45;&gt;Node19 -->
<g id="edge32_Node000019_Node000019" class="edge">
<title>Node19&#45;&gt;Node19</title>
<g id="a_edge32_Node000019_Node000019"><a xlink:title=" ">
<path fill="none" stroke="#63b8ff" d="M120.25,-81.69C120.24,-87.42 107.99,-92 83.5,-92 48.66,-92 38.59,-82.73 53.29,-74.08"/>
<polygon fill="#63b8ff" stroke="#63b8ff" points="122.88,-79.38 113.71,-74.08 117.57,-83.95 122.88,-79.38"/>
</a>
</g>
</g>
<!-- Node20&#45;&gt;Node20 -->
<g id="edge34_Node000020_Node000020" class="edge">
<title>Node20&#45;&gt;Node20</title>
<g id="a_edge34_Node000020_Node000020"><a xlink:title=" ">
<path fill="none" stroke="#63b8ff" d="M120.25,-26.69C120.24,-32.42 107.99,-37 83.5,-37 48.66,-37 38.59,-27.73 53.29,-19.08"/>
<polygon fill="#63b8ff" stroke="#63b8ff" points="122.88,-24.38 113.71,-19.08 117.57,-28.95 122.88,-24.38"/>
</a>
</g>
</g>
</g>
</svg>

<g id="navigator" transform="translate(0 0)" fill="#404254">
  <rect fill="#f2f5e9" fill-opacity="0.5" stroke="#606060" stroke-width=".5" x="0" y="0" width="60" height="60"/>
  <use id="zoomplus" xlink:href="#zoomPlus" x="17" y="9" onmousedown="handleZoom(evt,'in')"/>
  <use id="zoomminus" xlink:href="#zoomMin" x="42" y="9" onmousedown="handleZoom(evt,'out')"/>
  <use id="reset" xlink:href="#resetDef" x="30" y="36" onmousedown="handleReset()"/>
   <use id="arrowup" xlink:href="#arrowUp" x="0" y="0" onmousedown="handlePan(0,-1)"/>
  <use id="arrowright" xlink:href="#arrowRight" x="0" y="0" onmousedown="handlePan(1,0)"/>
  <use id="arrowdown" xlink:href="#arrowDown" x="0" y="0" onmousedown="handlePan(0,1)"/>
  <use id="arrowleft" xlink:href="#arrowLeft" x="0" y="0" onmousedown="handlePan(-1,0)"/>
</g>
<svg viewBox="0 0 15 15" width="100%" height="30px" preserveAspectRatio="xMaxYMin meet">
 <g id="arrow_out" transform="scale(0.3 0.3)">
  <a xlink:href="classfl_1_1detail_1_1_async_logger_service_task_a3bff7aaa6e1158fbbee95055b3458285_a3bff7aaa6e1158fbbee95055b3458285_icgraph_org.svg" target="_base">
   <rect id="button" ry="5" rx="5" y="6" x="6" height="38" width="38"
        fill="#f2f5e9" fill-opacity="0.5" stroke="#606060" stroke-width="1.0"/>
   <path id="arrow"
     d="M 11.500037,31.436501 C 11.940474,20.09759 22.043105,11.32322 32.158766,21.979434 L 37.068811,17.246167 C 37.068811,17.246167 37.088388,32 37.088388,32 L 22.160133,31.978069 C 22.160133,31.978069 26.997745,27.140456 26.997745,27.140456 C 18.528582,18.264221 13.291696,25.230495 11.500037,31.436501 z"
     style="fill:#404040;"/>
  </a>
 </g>
</svg>

<style type='text/css'>
<![CDATA[
[data-mouse-over-selected='false'] { opacity: 0.7; }
[data-mouse-over-selected='true']  { opacity: 1.0; }
]]>
</style>
<script type="application/ecmascript"><![CDATA[
document.addEventListener('DOMContentLoaded', (event) => {
  highlightEdges();
  highlightAdjacentNodes();
});
]]></script>
</svg>
