<?xml version="1.0" encoding="UTF-8" standalone="no"?>
<!DOCTYPE svg PUBLIC "-//W3C//DTD SVG 1.1//EN"
 "http://www.w3.org/Graphics/SVG/1.1/DTD/svg11.dtd">
<!-- Generated by graphviz version 2.43.0 (0)
 -->
<!-- Title: fl/ptr.cpp Pages: 1 -->
<svg width="576pt" height="302pt"
 viewBox="0.00 0.00 575.59 302.00" xmlns="http://www.w3.org/2000/svg" xmlns:xlink="http://www.w3.org/1999/xlink">
<g id="graph0" class="graph" transform="scale(1 1) rotate(0) translate(4 298)">
<title>fl/ptr.cpp</title>
<!-- Node1 -->
<g id="Node000001" class="node">
<title>Node1</title>
<g id="a_Node000001"><a xlink:title=" ">
<polygon fill="#999999" stroke="#666666" points="221.93,-294 162.93,-294 162.93,-275 221.93,-275 221.93,-294"/>
<text text-anchor="middle" x="192.43" y="-282" font-family="Helvetica,sans-Serif" font-size="10.00">fl/ptr.cpp</text>
</a>
</g>
</g>
<!-- Node2 -->
<g id="Node000002" class="node">
<title>Node2</title>
<g id="a_Node000002"><a xlink:href="../../dd/d98/ptr_8h.html" target="_top" xlink:title=" ">
<polygon fill="white" stroke="#666666" points="215.93,-239 168.93,-239 168.93,-220 215.93,-220 215.93,-239"/>
<text text-anchor="middle" x="192.43" y="-227" font-family="Helvetica,sans-Serif" font-size="10.00">fl/ptr.h</text>
</a>
</g>
</g>
<!-- Node1&#45;&gt;Node2 -->
<g id="edge1_Node000001_Node000002" class="edge">
<title>Node1&#45;&gt;Node2</title>
<g id="a_edge1_Node000001_Node000002"><a xlink:title=" ">
<path fill="none" stroke="#63b8ff" d="M192.43,-274.75C192.43,-267.8 192.43,-257.85 192.43,-249.13"/>
<polygon fill="#63b8ff" stroke="#63b8ff" points="195.93,-249.09 192.43,-239.09 188.93,-249.09 195.93,-249.09"/>
</a>
</g>
</g>
<!-- Node3 -->
<g id="Node000003" class="node">
<title>Node3</title>
<g id="a_Node000003"><a xlink:href="../../df/d2a/namespace_8h.html" target="_top" xlink:title="Implements the FastLED namespace macros.">
<polygon fill="white" stroke="#666666" points="386.93,-19 295.93,-19 295.93,0 386.93,0 386.93,-19"/>
<text text-anchor="middle" x="341.43" y="-7" font-family="Helvetica,sans-Serif" font-size="10.00">fl/namespace.h</text>
</a>
</g>
</g>
<!-- Node1&#45;&gt;Node3 -->
<g id="edge24_Node000001_Node000003" class="edge">
<title>Node1&#45;&gt;Node3</title>
<g id="a_edge24_Node000001_Node000003"><a xlink:title=" ">
<path fill="none" stroke="#63b8ff" d="M222.13,-282.76C298.05,-279 497.67,-256.88 561.43,-129 596.31,-59.05 473.14,-28.87 397.1,-17.12"/>
<polygon fill="#63b8ff" stroke="#63b8ff" points="397.57,-13.65 387.16,-15.65 396.54,-20.58 397.57,-13.65"/>
</a>
</g>
</g>
<!-- Node48 -->
<g id="Node000048" class="node">
<title>Node48</title>
<g id="a_Node000048"><a xlink:href="../../da/d18/referent_8h.html" target="_top" xlink:title=" ">
<polygon fill="white" stroke="#666666" points="107.43,-129 33.43,-129 33.43,-110 107.43,-110 107.43,-129"/>
<text text-anchor="middle" x="70.43" y="-117" font-family="Helvetica,sans-Serif" font-size="10.00">fl/referent.h</text>
</a>
</g>
</g>
<!-- Node1&#45;&gt;Node48 -->
<g id="edge23_Node000001_Node000048" class="edge">
<title>Node1&#45;&gt;Node48</title>
<g id="a_edge23_Node000001_Node000048"><a xlink:title=" ">
<path fill="none" stroke="#63b8ff" d="M162.93,-277.85C119.12,-267.69 38.31,-241.78 3.43,-184 -9.01,-163.38 16.25,-145.08 39.23,-133.49"/>
<polygon fill="#63b8ff" stroke="#63b8ff" points="40.96,-136.54 48.5,-129.09 37.96,-130.22 40.96,-136.54"/>
</a>
</g>
</g>
<!-- Node2&#45;&gt;Node3 -->
<g id="edge2_Node000002_Node000003" class="edge">
<title>Node2&#45;&gt;Node3</title>
<g id="a_edge2_Node000002_Node000003"><a xlink:title=" ">
<path fill="none" stroke="#63b8ff" d="M188.4,-219.79C176.31,-192.31 143.6,-106.2 182.43,-55 195.09,-38.32 245.1,-26.18 285.7,-18.84"/>
<polygon fill="#63b8ff" stroke="#63b8ff" points="286.54,-22.24 295.79,-17.07 285.33,-15.35 286.54,-22.24"/>
</a>
</g>
</g>
<!-- Node4 -->
<g id="Node000004" class="node">
<title>Node4</title>
<g id="a_Node000004"><a xlink:href="../../d0/d44/scoped__ptr_8h.html" target="_top" xlink:title=" ">
<polygon fill="white" stroke="#666666" points="312.93,-184 225.93,-184 225.93,-165 312.93,-165 312.93,-184"/>
<text text-anchor="middle" x="269.43" y="-172" font-family="Helvetica,sans-Serif" font-size="10.00">fl/scoped_ptr.h</text>
</a>
</g>
</g>
<!-- Node2&#45;&gt;Node4 -->
<g id="edge3_Node000002_Node000004" class="edge">
<title>Node2&#45;&gt;Node4</title>
<g id="a_edge3_Node000002_Node000004"><a xlink:title=" ">
<path fill="none" stroke="#63b8ff" d="M204.81,-219.98C216.52,-211.92 234.35,-199.65 248.32,-190.03"/>
<polygon fill="#63b8ff" stroke="#63b8ff" points="250.58,-192.72 256.84,-184.17 246.62,-186.96 250.58,-192.72"/>
</a>
</g>
</g>
<!-- Node6 -->
<g id="Node000006" class="node">
<title>Node6</title>
<g id="a_Node000006"><a xlink:href="../../df/d63/type__traits_8h.html" target="_top" xlink:title=" ">
<polygon fill="#fff0f0" stroke="red" points="480.93,-74 393.93,-74 393.93,-55 480.93,-55 480.93,-74"/>
<text text-anchor="middle" x="437.43" y="-62" font-family="Helvetica,sans-Serif" font-size="10.00">fl/type_traits.h</text>
</a>
</g>
</g>
<!-- Node2&#45;&gt;Node6 -->
<g id="edge12_Node000002_Node000006" class="edge">
<title>Node2&#45;&gt;Node6</title>
<g id="a_edge12_Node000002_Node000006"><a xlink:title=" ">
<path fill="none" stroke="#63b8ff" d="M215.95,-226.81C265.73,-221.83 381.27,-202.51 431.43,-129 440.31,-115.99 441.18,-97.85 440.19,-84.28"/>
<polygon fill="#63b8ff" stroke="#63b8ff" points="443.65,-83.73 439.07,-74.18 436.7,-84.5 443.65,-83.73"/>
</a>
</g>
</g>
<!-- Node9 -->
<g id="Node000009" class="node">
<title>Node9</title>
<g id="a_Node000009"><a xlink:href="../../d3/d7e/int_8h.html" target="_top" xlink:title=" ">
<polygon fill="#fff0f0" stroke="red" points="532.93,-19 485.93,-19 485.93,0 532.93,0 532.93,-19"/>
<text text-anchor="middle" x="509.43" y="-7" font-family="Helvetica,sans-Serif" font-size="10.00">fl/int.h</text>
</a>
</g>
</g>
<!-- Node2&#45;&gt;Node9 -->
<g id="edge18_Node000002_Node000009" class="edge">
<title>Node2&#45;&gt;Node9</title>
<g id="a_edge18_Node000002_Node000009"><a xlink:title=" ">
<path fill="none" stroke="#63b8ff" d="M216.13,-228.82C267.74,-228.69 393.32,-223.93 488.43,-184 525.89,-168.28 543.31,-165.35 561.43,-129 579.37,-93.03 546.84,-49.46 525.62,-26.48"/>
<polygon fill="#63b8ff" stroke="#63b8ff" points="528.14,-24.05 518.69,-19.26 523.09,-28.9 528.14,-24.05"/>
</a>
</g>
</g>
<!-- Node47 -->
<g id="Node000047" class="node">
<title>Node47</title>
<g id="a_Node000047"><a xlink:href="../../d4/dce/deprecated_8h.html" target="_top" xlink:title=" ">
<polygon fill="white" stroke="#666666" points="279.93,-74 190.93,-74 190.93,-55 279.93,-55 279.93,-74"/>
<text text-anchor="middle" x="235.43" y="-62" font-family="Helvetica,sans-Serif" font-size="10.00">fl/deprecated.h</text>
</a>
</g>
</g>
<!-- Node2&#45;&gt;Node47 -->
<g id="edge19_Node000002_Node000047" class="edge">
<title>Node2&#45;&gt;Node47</title>
<g id="a_edge19_Node000002_Node000047"><a xlink:title=" ">
<path fill="none" stroke="#63b8ff" d="M192.83,-219.93C193.94,-200.09 197.99,-149.66 211.43,-110 214.6,-100.66 219.61,-90.95 224.23,-82.99"/>
<polygon fill="#63b8ff" stroke="#63b8ff" points="227.32,-84.66 229.53,-74.3 221.34,-81.01 227.32,-84.66"/>
</a>
</g>
</g>
<!-- Node2&#45;&gt;Node48 -->
<g id="edge13_Node000002_Node000048" class="edge">
<title>Node2&#45;&gt;Node48</title>
<g id="a_edge13_Node000002_Node000048"><a xlink:title=" ">
<path fill="none" stroke="#63b8ff" d="M182,-219.72C171.44,-210.81 154.7,-196.57 140.43,-184 122.12,-167.86 101.44,-149.03 87.34,-136.09"/>
<polygon fill="#63b8ff" stroke="#63b8ff" points="89.6,-133.41 79.87,-129.22 84.86,-138.56 89.6,-133.41"/>
</a>
</g>
</g>
<!-- Node25 -->
<g id="Node000025" class="node">
<title>Node25</title>
<g id="a_Node000025"><a xlink:href="../../df/d72/bit__cast_8h.html" target="_top" xlink:title=" ">
<polygon fill="white" stroke="#666666" points="551.93,-129 478.93,-129 478.93,-110 551.93,-110 551.93,-129"/>
<text text-anchor="middle" x="515.43" y="-117" font-family="Helvetica,sans-Serif" font-size="10.00">fl/bit_cast.h</text>
</a>
</g>
</g>
<!-- Node2&#45;&gt;Node25 -->
<g id="edge15_Node000002_Node000025" class="edge">
<title>Node2&#45;&gt;Node25</title>
<g id="a_edge15_Node000002_Node000025"><a xlink:title=" ">
<path fill="none" stroke="#63b8ff" d="M216.32,-226.78C274.59,-222.25 422.28,-208.6 464.43,-184 482.89,-173.23 497.33,-153.05 506.06,-138.32"/>
<polygon fill="#63b8ff" stroke="#63b8ff" points="509.35,-139.61 511.18,-129.17 503.24,-136.19 509.35,-139.61"/>
</a>
</g>
</g>
<!-- Node49 -->
<g id="Node000049" class="node">
<title>Node49</title>
<g id="a_Node000049"><a xlink:href="../../d5/d94/ptr__impl_8h.html" target="_top" xlink:title=" ">
<polygon fill="white" stroke="#666666" points="87.93,-184 12.93,-184 12.93,-165 87.93,-165 87.93,-184"/>
<text text-anchor="middle" x="50.43" y="-172" font-family="Helvetica,sans-Serif" font-size="10.00">fl/ptr_impl.h</text>
</a>
</g>
</g>
<!-- Node2&#45;&gt;Node49 -->
<g id="edge20_Node000002_Node000049" class="edge">
<title>Node2&#45;&gt;Node49</title>
<g id="a_edge20_Node000002_Node000049"><a xlink:title=" ">
<path fill="none" stroke="#63b8ff" d="M168.82,-221.46C143.71,-212.92 104.37,-198.37 77.92,-187.93"/>
<polygon fill="#63b8ff" stroke="#63b8ff" points="79.05,-184.62 68.47,-184.15 76.45,-191.11 79.05,-184.62"/>
</a>
</g>
</g>
<!-- Node5 -->
<g id="Node000005" class="node">
<title>Node5</title>
<g id="a_Node000005"><a xlink:href="../../da/d4b/unique__ptr_8h.html" target="_top" xlink:title=" ">
<polygon fill="#fff0f0" stroke="red" points="422.43,-129 336.43,-129 336.43,-110 422.43,-110 422.43,-129"/>
<text text-anchor="middle" x="379.43" y="-117" font-family="Helvetica,sans-Serif" font-size="10.00">fl/unique_ptr.h</text>
</a>
</g>
</g>
<!-- Node4&#45;&gt;Node5 -->
<g id="edge4_Node000004_Node000005" class="edge">
<title>Node4&#45;&gt;Node5</title>
<g id="a_edge4_Node000004_Node000005"><a xlink:title=" ">
<path fill="none" stroke="#63b8ff" d="M287.11,-164.98C304.72,-156.5 332.01,-143.35 352.36,-133.54"/>
<polygon fill="#63b8ff" stroke="#63b8ff" points="353.95,-136.66 361.44,-129.17 350.91,-130.36 353.95,-136.66"/>
</a>
</g>
</g>
<!-- Node46 -->
<g id="Node000046" class="node">
<title>Node46</title>
<g id="a_Node000046"><a xlink:href="../../dc/d00/scoped__array_8h.html" target="_top" xlink:title=" ">
<polygon fill="#fff0f0" stroke="red" points="318.43,-129 220.43,-129 220.43,-110 318.43,-110 318.43,-129"/>
<text text-anchor="middle" x="269.43" y="-117" font-family="Helvetica,sans-Serif" font-size="10.00">fl/scoped_array.h</text>
</a>
</g>
</g>
<!-- Node4&#45;&gt;Node46 -->
<g id="edge9_Node000004_Node000046" class="edge">
<title>Node4&#45;&gt;Node46</title>
<g id="a_edge9_Node000004_Node000046"><a xlink:title=" ">
<path fill="none" stroke="#63b8ff" d="M269.43,-164.75C269.43,-157.8 269.43,-147.85 269.43,-139.13"/>
<polygon fill="#63b8ff" stroke="#63b8ff" points="272.93,-139.09 269.43,-129.09 265.93,-139.09 272.93,-139.09"/>
</a>
</g>
</g>
<!-- Node5&#45;&gt;Node3 -->
<g id="edge5_Node000005_Node000003" class="edge">
<title>Node5&#45;&gt;Node3</title>
<g id="a_edge5_Node000005_Node000003"><a xlink:title=" ">
<path fill="none" stroke="#63b8ff" d="M376.32,-109.66C370.11,-92.01 356.07,-52.09 347.81,-28.64"/>
<polygon fill="#63b8ff" stroke="#63b8ff" points="351.1,-27.43 344.48,-19.16 344.5,-29.75 351.1,-27.43"/>
</a>
</g>
</g>
<!-- Node5&#45;&gt;Node6 -->
<g id="edge6_Node000005_Node000006" class="edge">
<title>Node5&#45;&gt;Node6</title>
<g id="a_edge6_Node000005_Node000006"><a xlink:title=" ">
<path fill="none" stroke="#63b8ff" d="M388.75,-109.98C397.24,-102.23 409.99,-90.58 420.32,-81.14"/>
<polygon fill="#63b8ff" stroke="#63b8ff" points="422.92,-83.5 427.95,-74.17 418.2,-78.33 422.92,-83.5"/>
</a>
</g>
</g>
<!-- Node6&#45;&gt;Node3 -->
<g id="edge7_Node000006_Node000003" class="edge">
<title>Node6&#45;&gt;Node3</title>
<g id="a_edge7_Node000006_Node000003"><a xlink:title=" ">
<path fill="none" stroke="#63b8ff" d="M422.01,-54.98C406.98,-46.69 383.89,-33.94 366.28,-24.22"/>
<polygon fill="#63b8ff" stroke="#63b8ff" points="367.58,-20.94 357.14,-19.17 364.2,-27.07 367.58,-20.94"/>
</a>
</g>
</g>
<!-- Node6&#45;&gt;Node9 -->
<g id="edge8_Node000006_Node000009" class="edge">
<title>Node6&#45;&gt;Node9</title>
<g id="a_edge8_Node000006_Node000009"><a xlink:title=" ">
<path fill="none" stroke="#63b8ff" d="M449,-54.98C459.85,-47 476.31,-34.88 489.32,-25.31"/>
<polygon fill="#63b8ff" stroke="#63b8ff" points="491.68,-27.92 497.66,-19.17 487.53,-22.28 491.68,-27.92"/>
</a>
</g>
</g>
<!-- Node46&#45;&gt;Node3 -->
<g id="edge10_Node000046_Node000003" class="edge">
<title>Node46&#45;&gt;Node3</title>
<g id="a_edge10_Node000046_Node000003"><a xlink:title=" ">
<path fill="none" stroke="#63b8ff" d="M275.33,-109.66C287.25,-91.77 314.43,-51 329.97,-27.69"/>
<polygon fill="#63b8ff" stroke="#63b8ff" points="333.03,-29.42 335.66,-19.16 327.2,-25.54 333.03,-29.42"/>
</a>
</g>
</g>
<!-- Node46&#45;&gt;Node47 -->
<g id="edge11_Node000046_Node000047" class="edge">
<title>Node46&#45;&gt;Node47</title>
<g id="a_edge11_Node000046_Node000047"><a xlink:title=" ">
<path fill="none" stroke="#63b8ff" d="M263.82,-109.75C259.12,-102.42 252.26,-91.73 246.47,-82.7"/>
<polygon fill="#63b8ff" stroke="#63b8ff" points="249.29,-80.62 240.94,-74.09 243.4,-84.4 249.29,-80.62"/>
</a>
</g>
</g>
<!-- Node48&#45;&gt;Node3 -->
<g id="edge14_Node000048_Node000003" class="edge">
<title>Node48&#45;&gt;Node3</title>
<g id="a_edge14_Node000048_Node000003"><a xlink:title=" ">
<path fill="none" stroke="#63b8ff" d="M77.19,-110C88.66,-96.19 113.33,-69.02 140.43,-55 186.04,-31.41 243.75,-20.29 285.63,-15.06"/>
<polygon fill="#63b8ff" stroke="#63b8ff" points="286.12,-18.53 295.65,-13.89 285.31,-11.57 286.12,-18.53"/>
</a>
</g>
</g>
<!-- Node25&#45;&gt;Node6 -->
<g id="edge16_Node000025_Node000006" class="edge">
<title>Node25&#45;&gt;Node6</title>
<g id="a_edge16_Node000025_Node000006"><a xlink:title=" ">
<path fill="none" stroke="#63b8ff" d="M502.9,-109.98C491.03,-101.92 472.97,-89.65 458.82,-80.03"/>
<polygon fill="#63b8ff" stroke="#63b8ff" points="460.43,-76.9 450.19,-74.17 456.5,-82.69 460.43,-76.9"/>
</a>
</g>
</g>
<!-- Node25&#45;&gt;Node9 -->
<g id="edge17_Node000025_Node000009" class="edge">
<title>Node25&#45;&gt;Node9</title>
<g id="a_edge17_Node000025_Node000009"><a xlink:title=" ">
<path fill="none" stroke="#63b8ff" d="M514.94,-109.66C513.97,-92.17 511.78,-52.8 510.48,-29.27"/>
<polygon fill="#63b8ff" stroke="#63b8ff" points="513.96,-28.95 509.92,-19.16 506.98,-29.34 513.96,-28.95"/>
</a>
</g>
</g>
<!-- Node49&#45;&gt;Node2 -->
<g id="edge21_Node000049_Node000002" class="edge">
<title>Node49&#45;&gt;Node2</title>
<g id="a_edge21_Node000049_Node000002"><a xlink:title=" ">
<path fill="none" stroke="#63b8ff" d="M78.56,-184.08C103.75,-192.77 140.22,-206.3 165.15,-216.15"/>
<polygon fill="#63b8ff" stroke="#63b8ff" points="164.15,-219.52 174.73,-219.98 166.75,-213.02 164.15,-219.52"/>
</a>
</g>
</g>
<!-- Node49&#45;&gt;Node48 -->
<g id="edge22_Node000049_Node000048" class="edge">
<title>Node49&#45;&gt;Node48</title>
<g id="a_edge22_Node000049_Node000048"><a xlink:title=" ">
<path fill="none" stroke="#63b8ff" d="M53.74,-164.75C56.42,-157.65 60.28,-147.4 63.62,-138.56"/>
<polygon fill="#63b8ff" stroke="#63b8ff" points="66.94,-139.68 67.19,-129.09 60.39,-137.21 66.94,-139.68"/>
</a>
</g>
</g>
</g>
</svg>
