<?xml version="1.0" encoding="UTF-8" standalone="no"?>
<!DOCTYPE svg PUBLIC "-//W3C//DTD SVG 1.1//EN"
 "http://www.w3.org/Graphics/SVG/1.1/DTD/svg11.dtd">
<!-- Generated by graphviz version 2.43.0 (0)
 -->
<!-- Title: fl::RectangularDrawBuffer::~RectangularDrawBuffer Pages: 1 -->
<svg width="797pt" height="410pt"
 viewBox="0.00 0.00 797.00 409.50" xmlns="http://www.w3.org/2000/svg" xmlns:xlink="http://www.w3.org/1999/xlink">
<g id="graph0" class="graph" transform="scale(1 1) rotate(0) translate(4 405.5)">
<title>fl::RectangularDrawBuffer::~RectangularDrawBuffer</title>
<!-- Node1 -->
<g id="Node000001" class="node">
<title>Node1</title>
<g id="a_Node000001"><a xlink:title=" ">
<polygon fill="#999999" stroke="#666666" points="144,-240.5 0,-240.5 0,-210.5 144,-210.5 144,-240.5"/>
<text text-anchor="start" x="8" y="-228.5" font-family="Helvetica,sans-Serif" font-size="10.00">fl::RectangularDrawBuffer</text>
<text text-anchor="middle" x="72" y="-217.5" font-family="Helvetica,sans-Serif" font-size="10.00">::~RectangularDrawBuffer</text>
</a>
</g>
</g>
<!-- Node2 -->
<g id="Node000002" class="node">
<title>Node2</title>
<g id="a_Node000002"><a xlink:href="../../de/d10/classfl_1_1_rectangular_draw_buffer_ab09c66bb8f558c3e5b728730e60ea753.html#ab09c66bb8f558c3e5b728730e60ea753" target="_top" xlink:title=" ">
<polygon fill="white" stroke="#666666" points="506,-315.5 364,-315.5 364,-285.5 506,-285.5 506,-315.5"/>
<text text-anchor="start" x="372" y="-303.5" font-family="Helvetica,sans-Serif" font-size="10.00">fl::RectangularDrawBuffer</text>
<text text-anchor="middle" x="435" y="-292.5" font-family="Helvetica,sans-Serif" font-size="10.00">::getBlockInfo</text>
</a>
</g>
</g>
<!-- Node1&#45;&gt;Node2 -->
<g id="edge1_Node000001_Node000002" class="edge">
<title>Node1&#45;&gt;Node2</title>
<g id="a_edge1_Node000001_Node000002"><a xlink:title=" ">
<path fill="none" stroke="#63b8ff" d="M138.87,-240.52C152.46,-243.55 166.69,-246.67 180,-249.5 238.03,-261.83 303.7,-275 353.73,-284.86"/>
<polygon fill="#63b8ff" stroke="#63b8ff" points="353.35,-288.35 363.84,-286.85 354.7,-281.49 353.35,-288.35"/>
</a>
</g>
</g>
<!-- Node3 -->
<g id="Node000003" class="node">
<title>Node3</title>
<g id="a_Node000003"><a xlink:href="../../de/d10/classfl_1_1_rectangular_draw_buffer_a1b9f52c3ccf598b0cb78a01d0b71196d.html#a1b9f52c3ccf598b0cb78a01d0b71196d" target="_top" xlink:title=" ">
<polygon fill="white" stroke="#666666" points="684,-358.5 542,-358.5 542,-328.5 684,-328.5 684,-358.5"/>
<text text-anchor="start" x="550" y="-346.5" font-family="Helvetica,sans-Serif" font-size="10.00">fl::RectangularDrawBuffer</text>
<text text-anchor="middle" x="613" y="-335.5" font-family="Helvetica,sans-Serif" font-size="10.00">::getMaxBytesInStrip</text>
</a>
</g>
</g>
<!-- Node1&#45;&gt;Node3 -->
<g id="edge8_Node000001_Node000003" class="edge">
<title>Node1&#45;&gt;Node3</title>
<g id="a_edge8_Node000001_Node000003"><a xlink:title=" ">
<path fill="none" stroke="#63b8ff" d="M100.04,-240.54C121.29,-251.88 151.88,-267.2 180,-277.5 259.25,-306.54 280.72,-310.78 364,-324.5 419.59,-333.66 482.93,-338.42 531.69,-340.88"/>
<polygon fill="#63b8ff" stroke="#63b8ff" points="531.7,-344.39 541.86,-341.37 532.04,-337.39 531.7,-344.39"/>
</a>
</g>
</g>
<!-- Node5 -->
<g id="Node000005" class="node">
<title>Node5</title>
<g id="a_Node000005"><a xlink:href="../../de/d10/classfl_1_1_rectangular_draw_buffer_a6da1375ccc6fbb78ba358acaf7e2dc27.html#a6da1375ccc6fbb78ba358acaf7e2dc27" target="_top" xlink:title=" ">
<polygon fill="white" stroke="#666666" points="328,-95.5 180,-95.5 180,-65.5 328,-65.5 328,-95.5"/>
<text text-anchor="start" x="188" y="-83.5" font-family="Helvetica,sans-Serif" font-size="10.00">fl::RectangularDrawBuffer</text>
<text text-anchor="middle" x="254" y="-72.5" font-family="Helvetica,sans-Serif" font-size="10.00">::getLedsBufferBytesForPin</text>
</a>
</g>
</g>
<!-- Node1&#45;&gt;Node5 -->
<g id="edge4_Node000001_Node000005" class="edge">
<title>Node1&#45;&gt;Node5</title>
<g id="a_edge4_Node000001_Node000005"><a xlink:title=" ">
<path fill="none" stroke="#63b8ff" d="M83.49,-210.3C100.95,-186 138.22,-138.2 180,-109.5 185.16,-105.95 190.82,-102.74 196.64,-99.87"/>
<polygon fill="#63b8ff" stroke="#63b8ff" points="198.23,-102.99 205.85,-95.62 195.3,-96.63 198.23,-102.99"/>
</a>
</g>
</g>
<!-- Node9 -->
<g id="Node000009" class="node">
<title>Node9</title>
<g id="a_Node000009"><a xlink:href="../../de/d10/classfl_1_1_rectangular_draw_buffer_af45fc32a106ba76e39af4e9b699c372e.html#af45fc32a106ba76e39af4e9b699c372e" target="_top" xlink:title=" ">
<polygon fill="white" stroke="#666666" points="325,-401.5 183,-401.5 183,-371.5 325,-371.5 325,-401.5"/>
<text text-anchor="start" x="191" y="-389.5" font-family="Helvetica,sans-Serif" font-size="10.00">fl::RectangularDrawBuffer</text>
<text text-anchor="middle" x="254" y="-378.5" font-family="Helvetica,sans-Serif" font-size="10.00">::getTotalBytes</text>
</a>
</g>
</g>
<!-- Node1&#45;&gt;Node9 -->
<g id="edge9_Node000001_Node000009" class="edge">
<title>Node1&#45;&gt;Node9</title>
<g id="a_edge9_Node000001_Node000009"><a xlink:title=" ">
<path fill="none" stroke="#63b8ff" d="M81.66,-240.68C97.77,-267.67 134.84,-324.3 180,-357.5 184.79,-361.02 190.06,-364.18 195.51,-367"/>
<polygon fill="#63b8ff" stroke="#63b8ff" points="194.27,-370.29 204.8,-371.44 197.29,-363.97 194.27,-370.29"/>
</a>
</g>
</g>
<!-- Node10 -->
<g id="Node000010" class="node">
<title>Node10</title>
<g id="a_Node000010"><a xlink:href="../../de/d10/classfl_1_1_rectangular_draw_buffer_a793464dde6e4e1a324ab46973615345c.html#a793464dde6e4e1a324ab46973615345c" target="_top" xlink:title=" ">
<polygon fill="white" stroke="#666666" points="325,-240.5 183,-240.5 183,-210.5 325,-210.5 325,-240.5"/>
<text text-anchor="start" x="191" y="-228.5" font-family="Helvetica,sans-Serif" font-size="10.00">fl::RectangularDrawBuffer</text>
<text text-anchor="middle" x="254" y="-217.5" font-family="Helvetica,sans-Serif" font-size="10.00">::onQueuingDone</text>
</a>
</g>
</g>
<!-- Node1&#45;&gt;Node10 -->
<g id="edge11_Node000001_Node000010" class="edge">
<title>Node1&#45;&gt;Node10</title>
<g id="a_edge11_Node000001_Node000010"><a xlink:title=" ">
<path fill="none" stroke="#63b8ff" d="M144.14,-225.5C153.52,-225.5 163.19,-225.5 172.71,-225.5"/>
<polygon fill="#63b8ff" stroke="#63b8ff" points="172.96,-229 182.96,-225.5 172.96,-222 172.96,-229"/>
</a>
</g>
</g>
<!-- Node19 -->
<g id="Node000019" class="node">
<title>Node19</title>
<g id="a_Node000019"><a xlink:href="../../de/d10/classfl_1_1_rectangular_draw_buffer_a30615bbf72903e16ebc36fb5583ff29a.html#a30615bbf72903e16ebc36fb5583ff29a" target="_top" xlink:title=" ">
<polygon fill="white" stroke="#666666" points="684,-138.5 542,-138.5 542,-108.5 684,-108.5 684,-138.5"/>
<text text-anchor="start" x="550" y="-126.5" font-family="Helvetica,sans-Serif" font-size="10.00">fl::RectangularDrawBuffer</text>
<text text-anchor="middle" x="613" y="-115.5" font-family="Helvetica,sans-Serif" font-size="10.00">::onQueuingStart</text>
</a>
</g>
</g>
<!-- Node1&#45;&gt;Node19 -->
<g id="edge20_Node000001_Node000019" class="edge">
<title>Node1&#45;&gt;Node19</title>
<g id="a_edge20_Node000001_Node000019"><a xlink:title=" ">
<path fill="none" stroke="#63b8ff" d="M115.75,-210.37C171.92,-191.16 274.02,-158.61 364,-142.5 419.46,-132.57 482.8,-127.83 531.59,-125.56"/>
<polygon fill="#63b8ff" stroke="#63b8ff" points="531.94,-129.05 541.77,-125.12 531.63,-122.06 531.94,-129.05"/>
</a>
</g>
</g>
<!-- Node20 -->
<g id="Node000020" class="node">
<title>Node20</title>
<g id="a_Node000020"><a xlink:href="../../de/d10/classfl_1_1_rectangular_draw_buffer_aeae72390445398560fd88fa3d606296b.html#aeae72390445398560fd88fa3d606296b" target="_top" xlink:title=" ">
<polygon fill="white" stroke="#666666" points="325,-47.5 183,-47.5 183,-17.5 325,-17.5 325,-47.5"/>
<text text-anchor="start" x="191" y="-35.5" font-family="Helvetica,sans-Serif" font-size="10.00">fl::RectangularDrawBuffer</text>
<text text-anchor="middle" x="254" y="-24.5" font-family="Helvetica,sans-Serif" font-size="10.00">::queue</text>
</a>
</g>
</g>
<!-- Node1&#45;&gt;Node20 -->
<g id="edge22_Node000001_Node000020" class="edge">
<title>Node1&#45;&gt;Node20</title>
<g id="a_edge22_Node000001_Node000020"><a xlink:title=" ">
<path fill="none" stroke="#63b8ff" d="M78.44,-210.41C91.07,-177.54 125.49,-98.98 180,-56.5 181.8,-55.1 183.68,-53.78 185.62,-52.54"/>
<polygon fill="#63b8ff" stroke="#63b8ff" points="187.5,-55.5 194.52,-47.55 184.08,-49.39 187.5,-55.5"/>
</a>
</g>
</g>
<!-- Node2&#45;&gt;Node3 -->
<g id="edge2_Node000002_Node000003" class="edge">
<title>Node2&#45;&gt;Node3</title>
<g id="a_edge2_Node000002_Node000003"><a xlink:title=" ">
<path fill="none" stroke="#63b8ff" d="M497.56,-315.54C511.49,-318.94 526.4,-322.59 540.7,-326.08"/>
<polygon fill="#63b8ff" stroke="#63b8ff" points="539.93,-329.5 550.48,-328.47 541.59,-322.7 539.93,-329.5"/>
</a>
</g>
</g>
<!-- Node4 -->
<g id="Node000004" class="node">
<title>Node4</title>
<g id="a_Node000004"><a xlink:href="../../d4/d36/namespacefl_a19ba0dae8249e0cf164136846f85e909.html#a19ba0dae8249e0cf164136846f85e909" target="_top" xlink:title=" ">
<polygon fill="white" stroke="#666666" points="779.5,-353 729.5,-353 729.5,-334 779.5,-334 779.5,-353"/>
<text text-anchor="middle" x="754.5" y="-341" font-family="Helvetica,sans-Serif" font-size="10.00">fl::max</text>
</a>
</g>
</g>
<!-- Node3&#45;&gt;Node4 -->
<g id="edge3_Node000003_Node000004" class="edge">
<title>Node3&#45;&gt;Node4</title>
<g id="a_edge3_Node000003_Node000004"><a xlink:title=" ">
<path fill="none" stroke="#63b8ff" d="M684.16,-343.5C696.37,-343.5 708.57,-343.5 719.25,-343.5"/>
<polygon fill="#63b8ff" stroke="#63b8ff" points="719.37,-347 729.37,-343.5 719.37,-340 719.37,-347"/>
</a>
</g>
</g>
<!-- Node6 -->
<g id="Node000006" class="node">
<title>Node6</title>
<g id="a_Node000006"><a xlink:href="../../d0/d08/classfl_1_1span_a326aa9f29859fe8a92833fd5db12c3bb.html#a326aa9f29859fe8a92833fd5db12c3bb" target="_top" xlink:title=" ">
<polygon fill="white" stroke="#666666" points="475,-95 395,-95 395,-76 475,-76 475,-95"/>
<text text-anchor="middle" x="435" y="-83" font-family="Helvetica,sans-Serif" font-size="10.00">fl::span::data</text>
</a>
</g>
</g>
<!-- Node5&#45;&gt;Node6 -->
<g id="edge5_Node000005_Node000006" class="edge">
<title>Node5&#45;&gt;Node6</title>
<g id="a_edge5_Node000005_Node000006"><a xlink:title=" ">
<path fill="none" stroke="#63b8ff" d="M328.06,-82.54C346.96,-83.07 366.86,-83.62 384.25,-84.11"/>
<polygon fill="#63b8ff" stroke="#63b8ff" points="384.63,-87.62 394.73,-84.4 384.83,-80.63 384.63,-87.62"/>
</a>
</g>
</g>
<!-- Node7 -->
<g id="Node000007" class="node">
<title>Node7</title>
<g id="a_Node000007"><a xlink:href="../../d4/d36/namespacefl_a44a195439ac7fa303b4b0b0c956605be.html#a44a195439ac7fa303b4b0b0c956605be" target="_top" xlink:title=" ">
<polygon fill="white" stroke="#666666" points="789,-133 720,-133 720,-114 789,-114 789,-133"/>
<text text-anchor="middle" x="754.5" y="-121" font-family="Helvetica,sans-Serif" font-size="10.00">fl::memset</text>
</a>
</g>
</g>
<!-- Node5&#45;&gt;Node7 -->
<g id="edge6_Node000005_Node000007" class="edge">
<title>Node5&#45;&gt;Node7</title>
<g id="a_edge6_Node000005_Node000007"><a xlink:title=" ">
<path fill="none" stroke="#63b8ff" d="M328.17,-69.8C340.12,-68.43 352.39,-67.24 364,-66.5 506.68,-57.37 545.75,-63.03 684,-99.5 695.53,-102.54 707.9,-106.56 718.96,-110.43"/>
<polygon fill="#63b8ff" stroke="#63b8ff" points="718.09,-113.84 728.69,-113.92 720.45,-107.25 718.09,-113.84"/>
</a>
</g>
</g>
<!-- Node8 -->
<g id="Node000008" class="node">
<title>Node8</title>
<g id="a_Node000008"><a xlink:href="../../d0/d08/classfl_1_1span_aef7ee7eb5254da1ba1eb4f3e0173d0ac.html#aef7ee7eb5254da1ba1eb4f3e0173d0ac" target="_top" xlink:title=" ">
<polygon fill="white" stroke="#666666" points="473.5,-19 396.5,-19 396.5,0 473.5,0 473.5,-19"/>
<text text-anchor="middle" x="435" y="-7" font-family="Helvetica,sans-Serif" font-size="10.00">fl::span::size</text>
</a>
</g>
</g>
<!-- Node5&#45;&gt;Node8 -->
<g id="edge7_Node000005_Node000008" class="edge">
<title>Node5&#45;&gt;Node8</title>
<g id="a_edge7_Node000005_Node000008"><a xlink:title=" ">
<path fill="none" stroke="#63b8ff" d="M306.3,-65.45C313.7,-62.76 321.13,-59.76 328,-56.5 345.15,-48.36 346.9,-41.75 364,-33.5 372.58,-29.36 382.07,-25.6 391.21,-22.36"/>
<polygon fill="#63b8ff" stroke="#63b8ff" points="392.61,-25.58 400.94,-19.04 390.35,-18.95 392.61,-25.58"/>
</a>
</g>
</g>
<!-- Node9&#45;&gt;Node3 -->
<g id="edge10_Node000009_Node000003" class="edge">
<title>Node9&#45;&gt;Node3</title>
<g id="a_edge10_Node000009_Node000003"><a xlink:title=" ">
<path fill="none" stroke="#63b8ff" d="M325.09,-378.71C375.45,-373.04 444.94,-365.06 506,-357.5 514.34,-356.47 523.05,-355.36 531.73,-354.24"/>
<polygon fill="#63b8ff" stroke="#63b8ff" points="532.42,-357.68 541.89,-352.92 531.52,-350.74 532.42,-357.68"/>
</a>
</g>
</g>
<!-- Node10&#45;&gt;Node2 -->
<g id="edge18_Node000010_Node000002" class="edge">
<title>Node10&#45;&gt;Node2</title>
<g id="a_edge18_Node000010_Node000002"><a xlink:title=" ">
<path fill="none" stroke="#63b8ff" d="M285.15,-240.68C306.82,-251.32 336.88,-265.54 364,-276.5 368.65,-278.38 373.5,-280.24 378.39,-282.05"/>
<polygon fill="#63b8ff" stroke="#63b8ff" points="377.21,-285.34 387.8,-285.45 379.59,-278.76 377.21,-285.34"/>
</a>
</g>
</g>
<!-- Node11 -->
<g id="Node000011" class="node">
<title>Node11</title>
<g id="a_Node000011"><a xlink:href="../../d8/d2b/classfl_1_1_p_s_ram_allocator_aac712dc8b06c46ea6a70ecb868832ae4.html#aac712dc8b06c46ea6a70ecb868832ae4" target="_top" xlink:title=" ">
<polygon fill="white" stroke="#666666" points="488.5,-229.5 381.5,-229.5 381.5,-199.5 488.5,-199.5 488.5,-229.5"/>
<text text-anchor="start" x="389.5" y="-217.5" font-family="Helvetica,sans-Serif" font-size="10.00">fl::PSRamAllocator</text>
<text text-anchor="middle" x="435" y="-206.5" font-family="Helvetica,sans-Serif" font-size="10.00">::Alloc</text>
</a>
</g>
</g>
<!-- Node10&#45;&gt;Node11 -->
<g id="edge12_Node000010_Node000011" class="edge">
<title>Node10&#45;&gt;Node11</title>
<g id="a_edge12_Node000010_Node000011"><a xlink:title=" ">
<path fill="none" stroke="#63b8ff" d="M325.23,-221.18C340.43,-220.25 356.41,-219.27 371.3,-218.35"/>
<polygon fill="#63b8ff" stroke="#63b8ff" points="371.64,-221.84 381.41,-217.73 371.21,-214.85 371.64,-221.84"/>
</a>
</g>
</g>
<!-- Node16 -->
<g id="Node000016" class="node">
<title>Node16</title>
<g id="a_Node000016"><a xlink:href="../../d8/d2b/classfl_1_1_p_s_ram_allocator_a5f5ba55fcaa16c5956f21866749e8324.html#a5f5ba55fcaa16c5956f21866749e8324" target="_top" xlink:title=" ">
<polygon fill="white" stroke="#666666" points="488.5,-181.5 381.5,-181.5 381.5,-151.5 488.5,-151.5 488.5,-181.5"/>
<text text-anchor="start" x="389.5" y="-169.5" font-family="Helvetica,sans-Serif" font-size="10.00">fl::PSRamAllocator</text>
<text text-anchor="middle" x="435" y="-158.5" font-family="Helvetica,sans-Serif" font-size="10.00">::Free</text>
</a>
</g>
</g>
<!-- Node10&#45;&gt;Node16 -->
<g id="edge16_Node000010_Node000016" class="edge">
<title>Node10&#45;&gt;Node16</title>
<g id="a_edge16_Node000010_Node000016"><a xlink:title=" ">
<path fill="none" stroke="#63b8ff" d="M300.63,-210.46C324.41,-202.62 353.67,-192.98 378.72,-184.72"/>
<polygon fill="#63b8ff" stroke="#63b8ff" points="380.05,-187.97 388.45,-181.51 377.86,-181.32 380.05,-187.97"/>
</a>
</g>
</g>
<!-- Node18 -->
<g id="Node000018" class="node">
<title>Node18</title>
<g id="a_Node000018"><a xlink:href="../../d6/daf/direct_8h_ae2738c620ee3ab857c9656b3bf86a24d.html#ae2738c620ee3ab857c9656b3bf86a24d" target="_top" xlink:title=" ">
<polygon fill="white" stroke="#666666" points="457,-267 413,-267 413,-248 457,-248 457,-267"/>
<text text-anchor="middle" x="435" y="-255" font-family="Helvetica,sans-Serif" font-size="10.00">offset</text>
</a>
</g>
</g>
<!-- Node10&#45;&gt;Node18 -->
<g id="edge19_Node000010_Node000018" class="edge">
<title>Node10&#45;&gt;Node18</title>
<g id="a_edge19_Node000010_Node000018"><a xlink:title=" ">
<path fill="none" stroke="#63b8ff" d="M325.23,-238.06C352.04,-242.85 381.28,-248.07 402.68,-251.9"/>
<polygon fill="#63b8ff" stroke="#63b8ff" points="402.35,-255.4 412.81,-253.71 403.58,-248.51 402.35,-255.4"/>
</a>
</g>
</g>
<!-- Node12 -->
<g id="Node000012" class="node">
<title>Node12</title>
<g id="a_Node000012"><a xlink:href="../../d4/d36/namespacefl_ad2b40cc7124494efca5c352857dabc75.html#ad2b40cc7124494efca5c352857dabc75" target="_top" xlink:title=" ">
<polygon fill="#fff0f0" stroke="red" points="656,-250 570,-250 570,-231 656,-231 656,-250"/>
<text text-anchor="middle" x="613" y="-238" font-family="Helvetica,sans-Serif" font-size="10.00">fl::bit_cast_ptr</text>
</a>
</g>
</g>
<!-- Node11&#45;&gt;Node12 -->
<g id="edge13_Node000011_Node000012" class="edge">
<title>Node11&#45;&gt;Node12</title>
<g id="a_edge13_Node000011_Node000012"><a xlink:title=" ">
<path fill="none" stroke="#63b8ff" d="M488.81,-222.3C511.28,-225.62 537.43,-229.48 559.84,-232.79"/>
<polygon fill="#63b8ff" stroke="#63b8ff" points="559.44,-236.27 569.84,-234.27 560.46,-229.35 559.44,-236.27"/>
</a>
</g>
</g>
<!-- Node15 -->
<g id="Node000015" class="node">
<title>Node15</title>
<g id="a_Node000015"><a xlink:href="../../d4/d36/namespacefl_ad9927f98d169c838ddb33a6b020cb0c8.html#ad9927f98d169c838ddb33a6b020cb0c8" target="_top" xlink:title=" ">
<polygon fill="white" stroke="#666666" points="664.5,-213 561.5,-213 561.5,-194 664.5,-194 664.5,-213"/>
<text text-anchor="middle" x="613" y="-201" font-family="Helvetica,sans-Serif" font-size="10.00">fl::PSRamAllocate</text>
</a>
</g>
</g>
<!-- Node11&#45;&gt;Node15 -->
<g id="edge14_Node000011_Node000015" class="edge">
<title>Node11&#45;&gt;Node15</title>
<g id="a_edge14_Node000011_Node000015"><a xlink:title=" ">
<path fill="none" stroke="#63b8ff" d="M488.81,-211.2C508.47,-209.97 530.94,-208.57 551.26,-207.3"/>
<polygon fill="#63b8ff" stroke="#63b8ff" points="551.58,-210.78 561.35,-206.67 551.15,-203.8 551.58,-210.78"/>
</a>
</g>
</g>
<!-- Node15&#45;&gt;Node7 -->
<g id="edge15_Node000015_Node000007" class="edge">
<title>Node15&#45;&gt;Node7</title>
<g id="a_edge15_Node000015_Node000007"><a xlink:title=" ">
<path fill="none" stroke="#63b8ff" d="M663.69,-193.88C670.72,-191.63 677.69,-188.87 684,-185.5 705.47,-174.05 725.71,-154.64 738.75,-140.58"/>
<polygon fill="#63b8ff" stroke="#63b8ff" points="741.46,-142.8 745.55,-133.03 736.26,-138.12 741.46,-142.8"/>
</a>
</g>
</g>
<!-- Node17 -->
<g id="Node000017" class="node">
<title>Node17</title>
<g id="a_Node000017"><a xlink:href="../../d4/d36/namespacefl_a927c08fb5d28927acc0e318fabf79985.html#a927c08fb5d28927acc0e318fabf79985" target="_top" xlink:title=" ">
<polygon fill="white" stroke="#666666" points="671,-176 555,-176 555,-157 671,-157 671,-176"/>
<text text-anchor="middle" x="613" y="-164" font-family="Helvetica,sans-Serif" font-size="10.00">fl::PSRamDeallocate</text>
</a>
</g>
</g>
<!-- Node16&#45;&gt;Node17 -->
<g id="edge17_Node000016_Node000017" class="edge">
<title>Node16&#45;&gt;Node17</title>
<g id="a_edge17_Node000016_Node000017"><a xlink:title=" ">
<path fill="none" stroke="#63b8ff" d="M488.81,-166.5C506.4,-166.5 526.25,-166.5 544.79,-166.5"/>
<polygon fill="#63b8ff" stroke="#63b8ff" points="544.94,-170 554.94,-166.5 544.94,-163 544.94,-170"/>
</a>
</g>
</g>
<!-- Node19&#45;&gt;Node7 -->
<g id="edge21_Node000019_Node000007" class="edge">
<title>Node19&#45;&gt;Node7</title>
<g id="a_edge21_Node000019_Node000007"><a xlink:title=" ">
<path fill="none" stroke="#63b8ff" d="M684.16,-123.5C692.94,-123.5 701.71,-123.5 709.91,-123.5"/>
<polygon fill="#63b8ff" stroke="#63b8ff" points="709.96,-127 719.96,-123.5 709.96,-120 709.96,-127"/>
</a>
</g>
</g>
</g>
</svg>
