<?xml version="1.0" encoding="UTF-8" standalone="no"?>
<!DOCTYPE svg PUBLIC "-//W3C//DTD SVG 1.1//EN"
 "http://www.w3.org/Graphics/SVG/1.1/DTD/svg11.dtd">
<!-- Generated by graphviz version 2.43.0 (0)
 -->
<!-- Title: fl::Json::to_string_native_public Pages: 1 -->
<svg width="538pt" height="196pt"
 viewBox="0.00 0.00 538.00 196.00" xmlns="http://www.w3.org/2000/svg" xmlns:xlink="http://www.w3.org/1999/xlink">
<g id="graph0" class="graph" transform="scale(1 1) rotate(0) translate(4 192)">
<title>fl::Json::to_string_native_public</title>
<!-- Node1 -->
<g id="Node000001" class="node">
<title>Node1</title>
<g id="a_Node000001"><a xlink:title=" ">
<polygon fill="#999999" stroke="#666666" points="98,-119.5 0,-119.5 0,-89.5 98,-89.5 98,-119.5"/>
<text text-anchor="start" x="8" y="-107.5" font-family="Helvetica,sans-Serif" font-size="10.00">fl::Json::to_string</text>
<text text-anchor="middle" x="49" y="-96.5" font-family="Helvetica,sans-Serif" font-size="10.00">_native_public</text>
</a>
</g>
</g>
<!-- Node2 -->
<g id="Node000002" class="node">
<title>Node2</title>
<g id="a_Node000002"><a xlink:href="../../d4/d13/classfl_1_1_json_ac822a5d516e2e72a0bcd685d5abddcad.html#ac822a5d516e2e72a0bcd685d5abddcad" target="_top" xlink:title=" ">
<polygon fill="white" stroke="#666666" points="232,-119.5 134,-119.5 134,-89.5 232,-89.5 232,-119.5"/>
<text text-anchor="start" x="142" y="-107.5" font-family="Helvetica,sans-Serif" font-size="10.00">fl::Json::to_string</text>
<text text-anchor="middle" x="183" y="-96.5" font-family="Helvetica,sans-Serif" font-size="10.00">_native</text>
</a>
</g>
</g>
<!-- Node1&#45;&gt;Node2 -->
<g id="edge1_Node000001_Node000002" class="edge">
<title>Node1&#45;&gt;Node2</title>
<g id="a_edge1_Node000001_Node000002"><a xlink:title=" ">
<path fill="none" stroke="#63b8ff" d="M98.03,-104.5C106.31,-104.5 115,-104.5 123.52,-104.5"/>
<polygon fill="#63b8ff" stroke="#63b8ff" points="123.79,-108 133.79,-104.5 123.79,-101 123.79,-108"/>
</a>
</g>
</g>
<!-- Node3 -->
<g id="Node000003" class="node">
<title>Node3</title>
<g id="a_Node000003"><a xlink:href="../../d2/db2/classfl_1_1string_a78222786068d86a8463f4e408dc393eb.html#a78222786068d86a8463f4e408dc393eb" target="_top" xlink:title=" ">
<polygon fill="white" stroke="#666666" points="375,-188 277,-188 277,-169 375,-169 375,-188"/>
<text text-anchor="middle" x="326" y="-176" font-family="Helvetica,sans-Serif" font-size="10.00">fl::string::append</text>
</a>
</g>
</g>
<!-- Node2&#45;&gt;Node3 -->
<g id="edge2_Node000002_Node000003" class="edge">
<title>Node2&#45;&gt;Node3</title>
<g id="a_edge2_Node000002_Node000003"><a xlink:title=" ">
<path fill="none" stroke="#63b8ff" d="M203.08,-119.51C219.53,-131.86 244.29,-149.14 268,-160.5 271.79,-162.32 275.81,-164.01 279.89,-165.57"/>
<polygon fill="#63b8ff" stroke="#63b8ff" points="278.84,-168.91 289.43,-168.98 281.19,-162.32 278.84,-168.91"/>
</a>
</g>
</g>
<!-- Node4 -->
<g id="Node000004" class="node">
<title>Node4</title>
<g id="a_Node000004"><a xlink:href="../../dc/dfe/classfl_1_1deque_a74ed0ef53904398b9fc5957a50c078b8.html#a74ed0ef53904398b9fc5957a50c078b8" target="_top" xlink:title=" ">
<polygon fill="white" stroke="#666666" points="374,-151 278,-151 278,-132 374,-132 374,-151"/>
<text text-anchor="middle" x="326" y="-139" font-family="Helvetica,sans-Serif" font-size="10.00">fl::deque::empty</text>
</a>
</g>
</g>
<!-- Node2&#45;&gt;Node4 -->
<g id="edge3_Node000002_Node000004" class="edge">
<title>Node2&#45;&gt;Node4</title>
<g id="a_edge3_Node000002_Node000004"><a xlink:title=" ">
<path fill="none" stroke="#63b8ff" d="M232.13,-117.13C247.17,-121.08 263.72,-125.42 278.64,-129.33"/>
<polygon fill="#63b8ff" stroke="#63b8ff" points="278.1,-132.81 288.66,-131.96 279.88,-126.04 278.1,-132.81"/>
</a>
</g>
</g>
<!-- Node5 -->
<g id="Node000005" class="node">
<title>Node5</title>
<g id="a_Node000005"><a xlink:href="../../dc/dfe/classfl_1_1deque_af6888e269ca81300d29474678619aa1a.html#af6888e269ca81300d29474678619aa1a" target="_top" xlink:title=" ">
<polygon fill="white" stroke="#666666" points="384,-114 268,-114 268,-95 384,-95 384,-114"/>
<text text-anchor="middle" x="326" y="-102" font-family="Helvetica,sans-Serif" font-size="10.00">fl::deque::push_back</text>
</a>
</g>
</g>
<!-- Node2&#45;&gt;Node5 -->
<g id="edge4_Node000002_Node000005" class="edge">
<title>Node2&#45;&gt;Node5</title>
<g id="a_edge4_Node000002_Node000005"><a xlink:title=" ">
<path fill="none" stroke="#63b8ff" d="M232.13,-104.5C240.39,-104.5 249.1,-104.5 257.75,-104.5"/>
<polygon fill="#63b8ff" stroke="#63b8ff" points="257.84,-108 267.84,-104.5 257.84,-101 257.84,-108"/>
</a>
</g>
</g>
<!-- Node6 -->
<g id="Node000006" class="node">
<title>Node6</title>
<g id="a_Node000006"><a xlink:href="../../dc/dfe/classfl_1_1deque_a5265ab618714d88d7d26e55c5d0e83cb.html#a5265ab618714d88d7d26e55c5d0e83cb" target="_top" xlink:title=" ">
<polygon fill="white" stroke="#666666" points="368,-77 284,-77 284,-58 368,-58 368,-77"/>
<text text-anchor="middle" x="326" y="-65" font-family="Helvetica,sans-Serif" font-size="10.00">fl::deque::size</text>
</a>
</g>
</g>
<!-- Node2&#45;&gt;Node6 -->
<g id="edge5_Node000002_Node000006" class="edge">
<title>Node2&#45;&gt;Node6</title>
<g id="a_edge5_Node000002_Node000006"><a xlink:title=" ">
<path fill="none" stroke="#63b8ff" d="M232.13,-91.87C247.17,-87.92 263.72,-83.58 278.64,-79.67"/>
<polygon fill="#63b8ff" stroke="#63b8ff" points="279.88,-82.96 288.66,-77.04 278.1,-76.19 279.88,-82.96"/>
</a>
</g>
</g>
<!-- Node7 -->
<g id="Node000007" class="node">
<title>Node7</title>
<g id="a_Node000007"><a xlink:href="../../d4/d13/classfl_1_1_json_a02bb804b148b14b0db029ef866520b9a.html#a02bb804b148b14b0db029ef866520b9a" target="_top" xlink:title=" ">
<polygon fill="white" stroke="#666666" points="367,-40 285,-40 285,-21 367,-21 367,-40"/>
<text text-anchor="middle" x="326" y="-28" font-family="Helvetica,sans-Serif" font-size="10.00">fl::Json::value</text>
</a>
</g>
</g>
<!-- Node2&#45;&gt;Node7 -->
<g id="edge6_Node000002_Node000007" class="edge">
<title>Node2&#45;&gt;Node7</title>
<g id="a_edge6_Node000002_Node000007"><a xlink:title=" ">
<path fill="none" stroke="#63b8ff" d="M203.84,-89.39C220.33,-77.36 244.78,-60.74 268,-49.5 272.4,-47.37 277.11,-45.38 281.85,-43.55"/>
<polygon fill="#63b8ff" stroke="#63b8ff" points="283.36,-46.73 291.57,-40.04 280.98,-40.15 283.36,-46.73"/>
</a>
</g>
</g>
<!-- Node8 -->
<g id="Node000008" class="node">
<title>Node8</title>
<g id="a_Node000008"><a xlink:href="../../d4/d13/classfl_1_1_json_a100b10ff3e18350c7c459691b7c4f3ce.html#a100b10ff3e18350c7c459691b7c4f3ce" target="_top" xlink:title=" ">
<polygon fill="white" stroke="#666666" points="530,-67.5 420,-67.5 420,-37.5 530,-37.5 530,-67.5"/>
<text text-anchor="start" x="428" y="-55.5" font-family="Helvetica,sans-Serif" font-size="10.00">fl::Json::get_default</text>
<text text-anchor="middle" x="475" y="-44.5" font-family="Helvetica,sans-Serif" font-size="10.00">_value</text>
</a>
</g>
</g>
<!-- Node7&#45;&gt;Node8 -->
<g id="edge7_Node000007_Node000008" class="edge">
<title>Node7&#45;&gt;Node8</title>
<g id="a_edge7_Node000007_Node000008"><a xlink:title=" ">
<path fill="none" stroke="#63b8ff" d="M367.17,-36.51C380.36,-38.49 395.37,-40.73 409.88,-42.9"/>
<polygon fill="#63b8ff" stroke="#63b8ff" points="409.42,-46.37 419.82,-44.39 410.45,-39.45 409.42,-46.37"/>
</a>
</g>
</g>
<!-- Node9 -->
<g id="Node000009" class="node">
<title>Node9</title>
<g id="a_Node000009"><a xlink:href="../../d4/d13/classfl_1_1_json_aa007b51e1a6a22f935b03fe7940165c0.html#aa007b51e1a6a22f935b03fe7940165c0" target="_top" xlink:title=" ">
<polygon fill="#fff0f0" stroke="red" points="517.5,-19 432.5,-19 432.5,0 517.5,0 517.5,-19"/>
<text text-anchor="middle" x="475" y="-7" font-family="Helvetica,sans-Serif" font-size="10.00">fl::Json::try_as</text>
</a>
</g>
</g>
<!-- Node7&#45;&gt;Node9 -->
<g id="edge8_Node000007_Node000009" class="edge">
<title>Node7&#45;&gt;Node9</title>
<g id="a_edge8_Node000007_Node000009"><a xlink:title=" ">
<path fill="none" stroke="#63b8ff" d="M367.17,-24.76C384.16,-22.33 404.17,-19.48 422.24,-16.89"/>
<polygon fill="#63b8ff" stroke="#63b8ff" points="422.94,-20.33 432.34,-15.45 421.95,-13.4 422.94,-20.33"/>
</a>
</g>
</g>
</g>
</svg>
