<?xml version="1.0" encoding="UTF-8" standalone="no"?>
<!DOCTYPE svg PUBLIC "-//W3C//DTD SVG 1.1//EN"
 "http://www.w3.org/Graphics/SVG/1.1/DTD/svg11.dtd">
<!-- Generated by graphviz version 2.43.0 (0)
 -->
<!-- Title: fl::Particles1d::Particles1d Pages: 1 -->
<svg width="482pt" height="45pt"
 viewBox="0.00 0.00 482.00 45.00" xmlns="http://www.w3.org/2000/svg" xmlns:xlink="http://www.w3.org/1999/xlink">
<g id="graph0" class="graph" transform="scale(1 1) rotate(0) translate(4 41)">
<title>fl::Particles1d::Particles1d</title>
<!-- Node1 -->
<g id="Node000001" class="node">
<title>Node1</title>
<g id="a_Node000001"><a xlink:title=" ">
<polygon fill="#999999" stroke="#666666" points="474,-19 333,-19 333,0 474,0 474,-19"/>
<text text-anchor="middle" x="403.5" y="-7" font-family="Helvetica,sans-Serif" font-size="10.00">fl::Particles1d::Particles1d</text>
</a>
</g>
</g>
<!-- Node2 -->
<g id="Node000002" class="node">
<title>Node2</title>
<g id="a_Node000002"><a xlink:href="../../d5/d56/classfl_1_1_particles1d_ae4b5b0ed1b20858b9163be36f36688df.html#ae4b5b0ed1b20858b9163be36f36688df" target="_top" xlink:title="Update and render all particles with overdraw technique.">
<polygon fill="white" stroke="#666666" points="297,-19 185,-19 185,0 297,0 297,-19"/>
<text text-anchor="middle" x="241" y="-7" font-family="Helvetica,sans-Serif" font-size="10.00">fl::Particles1d::draw</text>
</a>
</g>
</g>
<!-- Node1&#45;&gt;Node2 -->
<g id="edge1_Node000001_Node000002" class="edge">
<title>Node1&#45;&gt;Node2</title>
<g id="a_edge1_Node000001_Node000002"><a xlink:title=" ">
<path fill="none" stroke="#63b8ff" d="M322.54,-9.5C313.98,-9.5 305.41,-9.5 297.23,-9.5"/>
<polygon fill="#63b8ff" stroke="#63b8ff" points="322.57,-13 332.57,-9.5 322.57,-6 322.57,-13"/>
</a>
</g>
</g>
<!-- Node2&#45;&gt;Node2 -->
<g id="edge3_Node000002_Node000002" class="edge">
<title>Node2&#45;&gt;Node2</title>
<g id="a_edge3_Node000002_Node000002"><a xlink:title=" ">
<path fill="none" stroke="#63b8ff" d="M271.24,-27.82C269.98,-33.01 259.9,-37 241,-37 212.21,-37 203.88,-27.73 216.03,-19.08"/>
<polygon fill="#63b8ff" stroke="#63b8ff" points="274.13,-25.84 265.97,-19.08 268.14,-29.45 274.13,-25.84"/>
</a>
</g>
</g>
<!-- Node3 -->
<g id="Node000003" class="node">
<title>Node3</title>
<g id="a_Node000003"><a xlink:href="../../d5/d56/classfl_1_1_particles1d_a0ab18e3c3466b08f858365be64e9bc35.html#a0ab18e3c3466b08f858365be64e9bc35" target="_top" xlink:title=" ">
<polygon fill="white" stroke="#666666" points="149,-19 0,-19 0,0 149,0 149,-19"/>
<text text-anchor="middle" x="74.5" y="-7" font-family="Helvetica,sans-Serif" font-size="10.00">fl::Particles1d::~Particles1d</text>
</a>
</g>
</g>
<!-- Node2&#45;&gt;Node3 -->
<g id="edge2_Node000002_Node000003" class="edge">
<title>Node2&#45;&gt;Node3</title>
<g id="a_edge2_Node000002_Node000003"><a xlink:title=" ">
<path fill="none" stroke="#63b8ff" d="M174.72,-9.5C166.37,-9.5 157.77,-9.5 149.29,-9.5"/>
<polygon fill="#63b8ff" stroke="#63b8ff" points="174.77,-13 184.77,-9.5 174.77,-6 174.77,-13"/>
</a>
</g>
</g>
</g>
</svg>
