<?xml version="1.0" encoding="UTF-8" standalone="no"?>
<!DOCTYPE svg PUBLIC "-//W3C//DTD SVG 1.1//EN"
 "http://www.w3.org/Graphics/SVG/1.1/DTD/svg11.dtd">
<!-- Generated by graphviz version 2.43.0 (0)
 -->
<!-- Title: CLEDController::showColor Pages: 1 -->
<svg width="621pt" height="86pt"
 viewBox="0.00 0.00 621.00 86.00" xmlns="http://www.w3.org/2000/svg" xmlns:xlink="http://www.w3.org/1999/xlink">
<g id="graph0" class="graph" transform="scale(1 1) rotate(0) translate(4 82)">
<title>CLEDController::showColor</title>
<!-- Node1 -->
<g id="Node000001" class="node">
<title>Node1</title>
<g id="a_Node000001"><a xlink:title="Set all the LEDs to a given color.">
<polygon fill="#999999" stroke="#666666" points="613,-48.5 466,-48.5 466,-29.5 613,-29.5 613,-48.5"/>
<text text-anchor="middle" x="539.5" y="-36.5" font-family="Helvetica,sans-Serif" font-size="10.00">CLEDController::showColor</text>
</a>
</g>
</g>
<!-- Node2 -->
<g id="Node000002" class="node">
<title>Node2</title>
<g id="a_Node000002"><a xlink:href="../../d6/d2c/class_c_l_e_d_controller_ac3eef15a3a7f8e26ce8c47b64bfb4ed7.html#ac3eef15a3a7f8e26ce8c47b64bfb4ed7" target="_top" xlink:title=" ">
<polygon fill="white" stroke="#666666" points="430,-78 283,-78 283,-48 430,-48 430,-78"/>
<text text-anchor="start" x="291" y="-66" font-family="Helvetica,sans-Serif" font-size="10.00">CLEDController::showColor</text>
<text text-anchor="middle" x="356.5" y="-55" font-family="Helvetica,sans-Serif" font-size="10.00">Internal</text>
</a>
</g>
</g>
<!-- Node1&#45;&gt;Node2 -->
<g id="edge1_Node000001_Node000002" class="edge">
<title>Node1&#45;&gt;Node2</title>
<g id="a_edge1_Node000001_Node000002"><a xlink:title=" ">
<path fill="none" stroke="#63b8ff" d="M456.74,-49.84C447.86,-51.02 438.86,-52.21 430.1,-53.37"/>
<polygon fill="#63b8ff" stroke="#63b8ff" points="457.25,-53.3 466.7,-48.52 456.33,-46.36 457.25,-53.3"/>
</a>
</g>
</g>
<!-- Node5 -->
<g id="Node000005" class="node">
<title>Node5</title>
<g id="a_Node000005"><a xlink:href="../../d6/d2c/class_c_l_e_d_controller_aefd1083fa0384d7d79d6468cd9255467.html#aefd1083fa0384d7d79d6468cd9255467" target="_top" xlink:title=" ">
<polygon fill="white" stroke="#666666" points="430,-30 283,-30 283,0 430,0 430,-30"/>
<text text-anchor="start" x="291" y="-18" font-family="Helvetica,sans-Serif" font-size="10.00">CLEDController::showColor</text>
<text text-anchor="middle" x="356.5" y="-7" font-family="Helvetica,sans-Serif" font-size="10.00">Internal</text>
</a>
</g>
</g>
<!-- Node1&#45;&gt;Node5 -->
<g id="edge4_Node000001_Node000005" class="edge">
<title>Node1&#45;&gt;Node5</title>
<g id="a_edge4_Node000001_Node000005"><a xlink:title=" ">
<path fill="none" stroke="#63b8ff" d="M456.74,-28.16C447.86,-26.98 438.86,-25.79 430.1,-24.63"/>
<polygon fill="#63b8ff" stroke="#63b8ff" points="456.33,-31.64 466.7,-29.48 457.25,-24.7 456.33,-31.64"/>
</a>
</g>
</g>
<!-- Node3 -->
<g id="Node000003" class="node">
<title>Node3</title>
<g id="a_Node000003"><a xlink:href="../../dd/dbb/class_c_fast_l_e_d_a7315b060d295bad5fbd32e50eaaf02b0.html#a7315b060d295bad5fbd32e50eaaf02b0" target="_top" xlink:title="Set all leds on all controllers to the given color/scale.">
<polygon fill="white" stroke="#666666" points="247,-72.5 128,-72.5 128,-53.5 247,-53.5 247,-72.5"/>
<text text-anchor="middle" x="187.5" y="-60.5" font-family="Helvetica,sans-Serif" font-size="10.00">CFastLED::showColor</text>
</a>
</g>
</g>
<!-- Node2&#45;&gt;Node3 -->
<g id="edge2_Node000002_Node000003" class="edge">
<title>Node2&#45;&gt;Node3</title>
<g id="a_edge2_Node000002_Node000003"><a xlink:title=" ">
<path fill="none" stroke="#63b8ff" d="M272.68,-63C264.09,-63 255.48,-63 247.24,-63"/>
<polygon fill="#63b8ff" stroke="#63b8ff" points="272.74,-66.5 282.74,-63 272.74,-59.5 272.74,-66.5"/>
</a>
</g>
</g>
<!-- Node4 -->
<g id="Node000004" class="node">
<title>Node4</title>
<g id="a_Node000004"><a xlink:href="../../dd/dbb/class_c_fast_l_e_d_aeb7bd3e8f2dbced6284a2182191d5fcb.html#aeb7bd3e8f2dbced6284a2182191d5fcb" target="_top" xlink:title="Clear the leds, wiping the local array of data.">
<polygon fill="white" stroke="#666666" points="92,-72.5 0,-72.5 0,-53.5 92,-53.5 92,-72.5"/>
<text text-anchor="middle" x="46" y="-60.5" font-family="Helvetica,sans-Serif" font-size="10.00">CFastLED::clear</text>
</a>
</g>
</g>
<!-- Node3&#45;&gt;Node4 -->
<g id="edge3_Node000003_Node000004" class="edge">
<title>Node3&#45;&gt;Node4</title>
<g id="a_edge3_Node000003_Node000004"><a xlink:title=" ">
<path fill="none" stroke="#63b8ff" d="M117.62,-63C108.96,-63 100.28,-63 92.12,-63"/>
<polygon fill="#63b8ff" stroke="#63b8ff" points="117.74,-66.5 127.74,-63 117.74,-59.5 117.74,-66.5"/>
</a>
</g>
</g>
</g>
</svg>
