<?xml version="1.0" encoding="UTF-8" standalone="no"?>
<!DOCTYPE svg PUBLIC "-//W3C//DTD SVG 1.1//EN"
 "http://www.w3.org/Graphics/SVG/1.1/DTD/svg11.dtd">
<!-- Generated by graphviz version 2.43.0 (0)
 -->
<!-- Title: fl::Tile2x2_u8::origin Pages: 1 -->
<svg width="456pt" height="196pt"
 viewBox="0.00 0.00 456.00 195.50" xmlns="http://www.w3.org/2000/svg" xmlns:xlink="http://www.w3.org/1999/xlink">

<svg id="main" version="1.1" xmlns="http://www.w3.org/2000/svg" xmlns:xlink="http://www.w3.org/1999/xlink" xml:space="preserve">

<style type="text/css"><![CDATA[
.node, .edge {opacity: 0.7;}
.node.selected, .edge.selected {opacity: 1;}
.edge:hover path { stroke: red; }
.edge:hover polygon { stroke: red; fill: red; }
]]></style>
<script type="application/ecmascript" xlink:href="../../svg.min.js"/>
<svg id="graph" class="graph">
<g id="graph0" class="graph" transform="scale(1 1) rotate(0) translate(4 191.5)">
<title>fl::Tile2x2_u8::origin</title>
<!-- Node1 -->
<g id="Node000001" class="node">
<title>Node1</title>
<g id="a_Node000001"><a xlink:title=" ">
<polygon fill="#999999" stroke="#666666" points="448,-120.5 332,-120.5 332,-101.5 448,-101.5 448,-120.5"/>
<text text-anchor="middle" x="390" y="-108.5" font-family="Helvetica,sans-Serif" font-size="10.00">fl::Tile2x2_u8::origin</text>
</a>
</g>
</g>
<!-- Node2 -->
<g id="Node000002" class="node">
<title>Node2</title>
<g id="a_Node000002"><a xlink:href="../../d0/d2b/classfl_1_1_tile2x2__u8_a34224acf35cbbaa95b04f33b9457e97d.html#a34224acf35cbbaa95b04f33b9457e97d" target="_top" xlink:title=" ">
<polygon fill="white" stroke="#666666" points="296,-187.5 155,-187.5 155,-168.5 296,-168.5 296,-187.5"/>
<text text-anchor="middle" x="225.5" y="-175.5" font-family="Helvetica,sans-Serif" font-size="10.00">fl::Tile2x2_u8::Tile2x2_u8</text>
</a>
</g>
</g>
<!-- Node1&#45;&gt;Node2 -->
<g id="edge1_Node000001_Node000002" class="edge">
<title>Node1&#45;&gt;Node2</title>
<g id="a_edge1_Node000001_Node000002"><a xlink:title=" ">
<path fill="none" stroke="#63b8ff" d="M364.15,-125.64C345.79,-136.01 319.93,-149.67 296,-159 286.79,-162.59 276.65,-165.77 267.03,-168.46"/>
<polygon fill="#63b8ff" stroke="#63b8ff" points="366.08,-128.57 373.02,-120.57 362.6,-122.5 366.08,-128.57"/>
</a>
</g>
</g>
<!-- Node3 -->
<g id="Node000003" class="node">
<title>Node3</title>
<g id="a_Node000003"><a xlink:href="../../df/d21/classfl_1_1_tile2x2__u8__wrap_a2f1e5d4a1088b84c15de93618276416d.html#a2f1e5d4a1088b84c15de93618276416d" target="_top" xlink:title=" ">
<polygon fill="white" stroke="#666666" points="281,-150 170,-150 170,-120 281,-120 281,-150"/>
<text text-anchor="start" x="178" y="-138" font-family="Helvetica,sans-Serif" font-size="10.00">fl::Tile2x2_u8_wrap</text>
<text text-anchor="middle" x="225.5" y="-127" font-family="Helvetica,sans-Serif" font-size="10.00">::Tile2x2_u8_wrap</text>
</a>
</g>
</g>
<!-- Node1&#45;&gt;Node3 -->
<g id="edge2_Node000001_Node000003" class="edge">
<title>Node1&#45;&gt;Node3</title>
<g id="a_edge2_Node000001_Node000003"><a xlink:title=" ">
<path fill="none" stroke="#63b8ff" d="M321.53,-120.96C308.06,-122.95 294.07,-125.02 281.09,-126.94"/>
<polygon fill="#63b8ff" stroke="#63b8ff" points="322.33,-124.39 331.71,-119.46 321.3,-117.46 322.33,-124.39"/>
</a>
</g>
</g>
<!-- Node4 -->
<g id="Node000004" class="node">
<title>Node4</title>
<g id="a_Node000004"><a xlink:href="../../df/d21/classfl_1_1_tile2x2__u8__wrap_a96dbdd7fbd1b25c6cf354052f4dd7479.html#a96dbdd7fbd1b25c6cf354052f4dd7479" target="_top" xlink:title=" ">
<polygon fill="white" stroke="#666666" points="281,-102 170,-102 170,-72 281,-72 281,-102"/>
<text text-anchor="start" x="178" y="-90" font-family="Helvetica,sans-Serif" font-size="10.00">fl::Tile2x2_u8_wrap</text>
<text text-anchor="middle" x="225.5" y="-79" font-family="Helvetica,sans-Serif" font-size="10.00">::Tile2x2_u8_wrap</text>
</a>
</g>
</g>
<!-- Node1&#45;&gt;Node4 -->
<g id="edge3_Node000001_Node000004" class="edge">
<title>Node1&#45;&gt;Node4</title>
<g id="a_edge3_Node000001_Node000004"><a xlink:title=" ">
<path fill="none" stroke="#63b8ff" d="M321.53,-101.04C308.06,-99.05 294.07,-96.98 281.09,-95.06"/>
<polygon fill="#63b8ff" stroke="#63b8ff" points="321.3,-104.54 331.71,-102.54 322.33,-97.61 321.3,-104.54"/>
</a>
</g>
</g>
<!-- Node5 -->
<g id="Node000005" class="node">
<title>Node5</title>
<g id="a_Node000005"><a xlink:href="../../d1/d5c/classfl_1_1_x_y_raster_u8_sparse_a6f83097249d41d1beadc4ee276b8422e.html#a6f83097249d41d1beadc4ee276b8422e" target="_top" xlink:title=" ">
<polygon fill="white" stroke="#666666" points="285,-54 166,-54 166,-24 285,-24 285,-54"/>
<text text-anchor="start" x="174" y="-42" font-family="Helvetica,sans-Serif" font-size="10.00">fl::XYRasterU8Sparse</text>
<text text-anchor="middle" x="225.5" y="-31" font-family="Helvetica,sans-Serif" font-size="10.00">::rasterize_internal</text>
</a>
</g>
</g>
<!-- Node1&#45;&gt;Node5 -->
<g id="edge4_Node000001_Node000005" class="edge">
<title>Node1&#45;&gt;Node5</title>
<g id="a_edge4_Node000001_Node000005"><a xlink:title=" ">
<path fill="none" stroke="#63b8ff" d="M363.29,-96.46C344.88,-86.36 319.33,-72.99 296,-63 288.72,-59.89 280.9,-56.87 273.21,-54.09"/>
<polygon fill="#63b8ff" stroke="#63b8ff" points="361.77,-99.62 372.21,-101.4 365.16,-93.49 361.77,-99.62"/>
</a>
</g>
</g>
<!-- Node6 -->
<g id="Node000006" class="node">
<title>Node6</title>
<g id="a_Node000006"><a xlink:href="../../d1/d5c/classfl_1_1_x_y_raster_u8_sparse_a0a912982e407e681bd347b03a729b7da.html#a0a912982e407e681bd347b03a729b7da" target="_top" xlink:title=" ">
<polygon fill="white" stroke="#666666" points="119,-78 0,-78 0,-48 119,-48 119,-78"/>
<text text-anchor="start" x="8" y="-66" font-family="Helvetica,sans-Serif" font-size="10.00">fl::XYRasterU8Sparse</text>
<text text-anchor="middle" x="59.5" y="-55" font-family="Helvetica,sans-Serif" font-size="10.00">::rasterize</text>
</a>
</g>
</g>
<!-- Node5&#45;&gt;Node6 -->
<g id="edge5_Node000005_Node000006" class="edge">
<title>Node5&#45;&gt;Node6</title>
<g id="a_edge5_Node000005_Node000006"><a xlink:title=" ">
<path fill="none" stroke="#63b8ff" d="M155.66,-49.07C143.51,-50.85 130.95,-52.69 119.11,-54.42"/>
<polygon fill="#63b8ff" stroke="#63b8ff" points="156.37,-52.51 165.76,-47.6 155.35,-45.58 156.37,-52.51"/>
</a>
</g>
</g>
<!-- Node7 -->
<g id="Node000007" class="node">
<title>Node7</title>
<g id="a_Node000007"><a xlink:href="../../d1/d5c/classfl_1_1_x_y_raster_u8_sparse_a5fa39c30b320a1cc96442009062a09ec.html#a5fa39c30b320a1cc96442009062a09ec" target="_top" xlink:title=" ">
<polygon fill="white" stroke="#666666" points="119,-30 0,-30 0,0 119,0 119,-30"/>
<text text-anchor="start" x="8" y="-18" font-family="Helvetica,sans-Serif" font-size="10.00">fl::XYRasterU8Sparse</text>
<text text-anchor="middle" x="59.5" y="-7" font-family="Helvetica,sans-Serif" font-size="10.00">::rasterize</text>
</a>
</g>
</g>
<!-- Node5&#45;&gt;Node7 -->
<g id="edge6_Node000005_Node000007" class="edge">
<title>Node5&#45;&gt;Node7</title>
<g id="a_edge6_Node000005_Node000007"><a xlink:title=" ">
<path fill="none" stroke="#63b8ff" d="M155.66,-28.93C143.51,-27.15 130.95,-25.31 119.11,-23.58"/>
<polygon fill="#63b8ff" stroke="#63b8ff" points="155.35,-32.42 165.76,-30.4 156.37,-25.49 155.35,-32.42"/>
</a>
</g>
</g>
</g>
</svg>
</svg>

<style type='text/css'>
<![CDATA[
[data-mouse-over-selected='false'] { opacity: 0.7; }
[data-mouse-over-selected='true']  { opacity: 1.0; }
]]>
</style>
<script type="application/ecmascript"><![CDATA[
document.addEventListener('DOMContentLoaded', (event) => {
  highlightEdges();
  highlightAdjacentNodes();
});
]]></script>
</svg>
