<?xml version="1.0" encoding="UTF-8" standalone="no"?>
<!DOCTYPE svg PUBLIC "-//W3C//DTD SVG 1.1//EN"
 "http://www.w3.org/Graphics/SVG/1.1/DTD/svg11.dtd">
<!-- Generated by graphviz version 2.43.0 (0)
 -->
<!-- Title: fl::Tile2x2_u8::at Pages: 1 -->
<svg width="763pt" height="507pt"
 viewBox="0.00 0.00 763.00 507.00" xmlns="http://www.w3.org/2000/svg" xmlns:xlink="http://www.w3.org/1999/xlink">
<g id="graph0" class="graph" transform="scale(1 1) rotate(0) translate(4 503)">
<title>fl::Tile2x2_u8::at</title>
<!-- Node1 -->
<g id="Node000001" class="node">
<title>Node1</title>
<g id="a_Node000001"><a xlink:title=" ">
<polygon fill="#999999" stroke="#666666" points="755,-302 657,-302 657,-283 755,-283 755,-302"/>
<text text-anchor="middle" x="706" y="-290" font-family="Helvetica,sans-Serif" font-size="10.00">fl::Tile2x2_u8::at</text>
</a>
</g>
</g>
<!-- Node2 -->
<g id="Node000002" class="node">
<title>Node2</title>
<g id="a_Node000002"><a xlink:href="../../d0/d2b/classfl_1_1_tile2x2__u8_ada517005199ccc9733d6d033ac18d9b3.html#ada517005199ccc9733d6d033ac18d9b3" target="_top" xlink:title=" ">
<polygon fill="white" stroke="#666666" points="606.5,-499 494.5,-499 494.5,-480 606.5,-480 606.5,-499"/>
<text text-anchor="middle" x="550.5" y="-487" font-family="Helvetica,sans-Serif" font-size="10.00">fl::Tile2x2_u8::draw</text>
</a>
</g>
</g>
<!-- Node1&#45;&gt;Node2 -->
<g id="edge1_Node000001_Node000002" class="edge">
<title>Node1&#45;&gt;Node2</title>
<g id="a_edge1_Node000001_Node000002"><a xlink:title=" ">
<path fill="none" stroke="#63b8ff" d="M701.51,-311.98C693.84,-348.91 671.99,-429.18 621,-471.5 616.68,-475.08 611.74,-477.96 606.52,-480.27"/>
<polygon fill="#63b8ff" stroke="#63b8ff" points="704.98,-312.49 703.45,-302 698.1,-311.15 704.98,-312.49"/>
</a>
</g>
</g>
<!-- Node3 -->
<g id="Node000003" class="node">
<title>Node3</title>
<g id="a_Node000003"><a xlink:href="../../d0/d2b/classfl_1_1_tile2x2__u8_a6f695974940e32739826774a8cef92db.html#a6f695974940e32739826774a8cef92db" target="_top" xlink:title=" ">
<polygon fill="white" stroke="#666666" points="618.5,-462 482.5,-462 482.5,-443 618.5,-443 618.5,-462"/>
<text text-anchor="middle" x="550.5" y="-450" font-family="Helvetica,sans-Serif" font-size="10.00">fl::Tile2x2_u8::lower_left</text>
</a>
</g>
</g>
<!-- Node1&#45;&gt;Node3 -->
<g id="edge2_Node000001_Node000003" class="edge">
<title>Node1&#45;&gt;Node3</title>
<g id="a_edge2_Node000001_Node000003"><a xlink:title=" ">
<path fill="none" stroke="#63b8ff" d="M698.91,-311.57C688.19,-342.06 663,-401.56 621,-433.5 615.92,-437.36 610.11,-440.44 604.06,-442.89"/>
<polygon fill="#63b8ff" stroke="#63b8ff" points="702.23,-312.69 702.11,-302.1 695.6,-310.45 702.23,-312.69"/>
</a>
</g>
</g>
<!-- Node8 -->
<g id="Node000008" class="node">
<title>Node8</title>
<g id="a_Node000008"><a xlink:href="../../d0/d2b/classfl_1_1_tile2x2__u8_a4c75bfa6e7a38de1f64fd3cf05f3696e.html#a4c75bfa6e7a38de1f64fd3cf05f3696e" target="_top" xlink:title=" ">
<polygon fill="white" stroke="#666666" points="608,-424.5 493,-424.5 493,-394.5 608,-394.5 608,-424.5"/>
<text text-anchor="start" x="501" y="-412.5" font-family="Helvetica,sans-Serif" font-size="10.00">fl::Tile2x2_u8::lower</text>
<text text-anchor="middle" x="550.5" y="-401.5" font-family="Helvetica,sans-Serif" font-size="10.00">_right</text>
</a>
</g>
</g>
<!-- Node1&#45;&gt;Node8 -->
<g id="edge7_Node000001_Node000008" class="edge">
<title>Node1&#45;&gt;Node8</title>
<g id="a_edge7_Node000001_Node000008"><a xlink:title=" ">
<path fill="none" stroke="#63b8ff" d="M693.11,-310.4C678.45,-331.19 651.67,-365.22 621,-385.5 615.89,-388.88 610.25,-391.84 604.46,-394.41"/>
<polygon fill="#63b8ff" stroke="#63b8ff" points="696.02,-312.35 698.8,-302.13 690.25,-308.38 696.02,-312.35"/>
</a>
</g>
</g>
<!-- Node9 -->
<g id="Node000009" class="node">
<title>Node9</title>
<g id="a_Node000009"><a xlink:href="../../d0/d2b/classfl_1_1_tile2x2__u8_a2c8ea6bab7c9228ea118e0d66652f15e.html#a2c8ea6bab7c9228ea118e0d66652f15e" target="_top" xlink:title=" ">
<polygon fill="white" stroke="#666666" points="605,-376 496,-376 496,-357 605,-357 605,-376"/>
<text text-anchor="middle" x="550.5" y="-364" font-family="Helvetica,sans-Serif" font-size="10.00">fl::Tile2x2_u8::Max</text>
</a>
</g>
</g>
<!-- Node1&#45;&gt;Node9 -->
<g id="edge9_Node000001_Node000009" class="edge">
<title>Node1&#45;&gt;Node9</title>
<g id="a_edge9_Node000001_Node000009"><a xlink:title=" ">
<path fill="none" stroke="#63b8ff" d="M685.29,-308.42C668.94,-320.92 644.62,-337.93 621,-348.5 613.6,-351.81 605.48,-354.6 597.48,-356.92"/>
<polygon fill="#63b8ff" stroke="#63b8ff" points="687.78,-310.92 693.5,-302.01 683.47,-305.41 687.78,-310.92"/>
</a>
</g>
</g>
<!-- Node10 -->
<g id="Node000010" class="node">
<title>Node10</title>
<g id="a_Node000010"><a xlink:href="../../d0/d2b/classfl_1_1_tile2x2__u8_aa03d9b061480ed6da98dd42351783a80.html#aa03d9b061480ed6da98dd42351783a80" target="_top" xlink:title=" ">
<polygon fill="white" stroke="#666666" points="619,-339 482,-339 482,-320 619,-320 619,-339"/>
<text text-anchor="middle" x="550.5" y="-327" font-family="Helvetica,sans-Serif" font-size="10.00">fl::Tile2x2_u8::maxValue</text>
</a>
</g>
</g>
<!-- Node1&#45;&gt;Node10 -->
<g id="edge10_Node000001_Node000010" class="edge">
<title>Node1&#45;&gt;Node10</title>
<g id="a_edge10_Node000001_Node000010"><a xlink:title=" ">
<path fill="none" stroke="#63b8ff" d="M655.53,-304.43C634.7,-309.44 610.8,-315.21 591.16,-319.94"/>
<polygon fill="#63b8ff" stroke="#63b8ff" points="656.57,-307.77 665.47,-302.03 654.93,-300.97 656.57,-307.77"/>
</a>
</g>
</g>
<!-- Node11 -->
<g id="Node000011" class="node">
<title>Node11</title>
<g id="a_Node000011"><a xlink:href="../../d0/d2b/classfl_1_1_tile2x2__u8_a36d0400d25cc23d5ed9397f09c61760a.html#a36d0400d25cc23d5ed9397f09c61760a" target="_top" xlink:title=" ">
<polygon fill="white" stroke="#666666" points="619,-302 482,-302 482,-283 619,-283 619,-302"/>
<text text-anchor="middle" x="550.5" y="-290" font-family="Helvetica,sans-Serif" font-size="10.00">fl::Tile2x2_u8::operator()</text>
</a>
</g>
</g>
<!-- Node1&#45;&gt;Node11 -->
<g id="edge11_Node000001_Node000011" class="edge">
<title>Node1&#45;&gt;Node11</title>
<g id="a_edge11_Node000001_Node000011"><a xlink:title=" ">
<path fill="none" stroke="#63b8ff" d="M646.83,-292.5C637.79,-292.5 628.38,-292.5 619.16,-292.5"/>
<polygon fill="#63b8ff" stroke="#63b8ff" points="646.85,-296 656.85,-292.5 646.85,-289 646.85,-296"/>
</a>
</g>
</g>
<!-- Node12 -->
<g id="Node000012" class="node">
<title>Node12</title>
<g id="a_Node000012"><a xlink:href="../../d4/dc6/classfl_1_1_str_stream_ad6edc39fb58088a0c1dce03522db2f3b.html#ad6edc39fb58088a0c1dce03522db2f3b" target="_top" xlink:title=" ">
<polygon fill="white" stroke="#666666" points="621,-265 480,-265 480,-246 621,-246 621,-265"/>
<text text-anchor="middle" x="550.5" y="-253" font-family="Helvetica,sans-Serif" font-size="10.00">fl::StrStream::operator&lt;&lt;</text>
</a>
</g>
</g>
<!-- Node1&#45;&gt;Node12 -->
<g id="edge12_Node000001_Node000012" class="edge">
<title>Node1&#45;&gt;Node12</title>
<g id="a_edge12_Node000001_Node000012"><a xlink:title=" ">
<path fill="none" stroke="#63b8ff" d="M655.53,-280.57C634.7,-275.56 610.8,-269.79 591.16,-265.06"/>
<polygon fill="#63b8ff" stroke="#63b8ff" points="654.93,-284.03 665.47,-282.97 656.57,-277.23 654.93,-284.03"/>
</a>
</g>
</g>
<!-- Node13 -->
<g id="Node000013" class="node">
<title>Node13</title>
<g id="a_Node000013"><a xlink:href="../../d1/d5c/classfl_1_1_x_y_raster_u8_sparse_a6f83097249d41d1beadc4ee276b8422e.html#a6f83097249d41d1beadc4ee276b8422e" target="_top" xlink:title=" ">
<polygon fill="white" stroke="#666666" points="610,-142.5 491,-142.5 491,-112.5 610,-112.5 610,-142.5"/>
<text text-anchor="start" x="499" y="-130.5" font-family="Helvetica,sans-Serif" font-size="10.00">fl::XYRasterU8Sparse</text>
<text text-anchor="middle" x="550.5" y="-119.5" font-family="Helvetica,sans-Serif" font-size="10.00">::rasterize_internal</text>
</a>
</g>
</g>
<!-- Node1&#45;&gt;Node13 -->
<g id="edge13_Node000001_Node000013" class="edge">
<title>Node1&#45;&gt;Node13</title>
<g id="a_edge13_Node000001_Node000013"><a xlink:title=" ">
<path fill="none" stroke="#63b8ff" d="M698.36,-272.9C687.12,-242.62 661.55,-184.49 621,-151.5 616.74,-148.04 611.95,-145.06 606.93,-142.5"/>
<polygon fill="#63b8ff" stroke="#63b8ff" points="695.2,-274.46 701.85,-282.7 701.79,-272.11 695.2,-274.46"/>
</a>
</g>
</g>
<!-- Node16 -->
<g id="Node000016" class="node">
<title>Node16</title>
<g id="a_Node000016"><a xlink:href="../../d0/d2b/classfl_1_1_tile2x2__u8_a02023f50d81942d83875712733e8c3b8.html#a02023f50d81942d83875712733e8c3b8" target="_top" xlink:title=" ">
<polygon fill="white" stroke="#666666" points="607,-66 494,-66 494,-47 607,-47 607,-66"/>
<text text-anchor="middle" x="550.5" y="-54" font-family="Helvetica,sans-Serif" font-size="10.00">fl::Tile2x2_u8::scale</text>
</a>
</g>
</g>
<!-- Node1&#45;&gt;Node16 -->
<g id="edge16_Node000001_Node000016" class="edge">
<title>Node1&#45;&gt;Node16</title>
<g id="a_edge16_Node000001_Node000016"><a xlink:title=" ">
<path fill="none" stroke="#63b8ff" d="M700.19,-272.95C690.42,-236.34 665.29,-156.39 621,-103.5 607.35,-87.2 586.66,-74.2 571.41,-66.05"/>
<polygon fill="#63b8ff" stroke="#63b8ff" points="696.86,-274.03 702.74,-282.84 703.64,-272.28 696.86,-274.03"/>
</a>
</g>
</g>
<!-- Node19 -->
<g id="Node000019" class="node">
<title>Node19</title>
<g id="a_Node000019"><a xlink:href="../../d0/d2b/classfl_1_1_tile2x2__u8_a4e42397994781d4786e4a88970c925cc.html#a4e42397994781d4786e4a88970c925cc" target="_top" xlink:title=" ">
<polygon fill="white" stroke="#666666" points="619,-228 482,-228 482,-209 619,-209 619,-228"/>
<text text-anchor="middle" x="550.5" y="-216" font-family="Helvetica,sans-Serif" font-size="10.00">fl::Tile2x2_u8::upper_left</text>
</a>
</g>
</g>
<!-- Node1&#45;&gt;Node19 -->
<g id="edge21_Node000001_Node000019" class="edge">
<title>Node1&#45;&gt;Node19</title>
<g id="a_edge21_Node000001_Node000019"><a xlink:title=" ">
<path fill="none" stroke="#63b8ff" d="M684.64,-276.54C668.25,-264.37 644.2,-247.95 621,-237.5 612.79,-233.8 603.7,-230.68 594.87,-228.1"/>
<polygon fill="#63b8ff" stroke="#63b8ff" points="682.82,-279.56 692.91,-282.81 687.05,-273.98 682.82,-279.56"/>
</a>
</g>
</g>
<!-- Node20 -->
<g id="Node000020" class="node">
<title>Node20</title>
<g id="a_Node000020"><a xlink:href="../../d0/d2b/classfl_1_1_tile2x2__u8_a65d67da8e85b7177e1eaa41ece80e0c4.html#a65d67da8e85b7177e1eaa41ece80e0c4" target="_top" xlink:title=" ">
<polygon fill="white" stroke="#666666" points="608.5,-190.5 492.5,-190.5 492.5,-160.5 608.5,-160.5 608.5,-190.5"/>
<text text-anchor="start" x="500.5" y="-178.5" font-family="Helvetica,sans-Serif" font-size="10.00">fl::Tile2x2_u8::upper</text>
<text text-anchor="middle" x="550.5" y="-167.5" font-family="Helvetica,sans-Serif" font-size="10.00">_right</text>
</a>
</g>
</g>
<!-- Node1&#45;&gt;Node20 -->
<g id="edge23_Node000001_Node000020" class="edge">
<title>Node1&#45;&gt;Node20</title>
<g id="a_edge23_Node000001_Node000020"><a xlink:title=" ">
<path fill="none" stroke="#63b8ff" d="M692.8,-274.55C678,-254.03 651.25,-220.67 621,-200.5 615.35,-196.73 609.05,-193.45 602.63,-190.62"/>
<polygon fill="#63b8ff" stroke="#63b8ff" points="689.94,-276.57 698.55,-282.73 695.66,-272.54 689.94,-276.57"/>
</a>
</g>
</g>
<!-- Node4 -->
<g id="Node000004" class="node">
<title>Node4</title>
<g id="a_Node000004"><a xlink:href="../../d4/d36/namespacefl_a5fdbb3ce6ffb23366c26c68bd64f2bd0.html#a5fdbb3ce6ffb23366c26c68bd64f2bd0" target="_top" xlink:title="&quot;Splat&quot; as in &quot;splat pixel rendering&quot; takes a pixel value in float x,y coordinates and &quot;splats&quot; it in...">
<polygon fill="white" stroke="#666666" points="400,-228 347,-228 347,-209 400,-209 400,-228"/>
<text text-anchor="middle" x="373.5" y="-216" font-family="Helvetica,sans-Serif" font-size="10.00">fl::splat</text>
</a>
</g>
</g>
<!-- Node3&#45;&gt;Node4 -->
<g id="edge3_Node000003_Node000004" class="edge">
<title>Node3&#45;&gt;Node4</title>
<g id="a_edge3_Node000003_Node000004"><a xlink:title=" ">
<path fill="none" stroke="#63b8ff" d="M486.59,-438.18C484.27,-436.76 482.07,-435.21 480,-433.5 410.78,-376.28 383.26,-262.56 376.35,-228.42"/>
<polygon fill="#63b8ff" stroke="#63b8ff" points="485.44,-441.52 495.93,-442.98 488.64,-435.3 485.44,-441.52"/>
</a>
</g>
</g>
<!-- Node5 -->
<g id="Node000005" class="node">
<title>Node5</title>
<g id="a_Node000005"><a xlink:href="../../dc/d82/classfl_1_1_corkscrew_aad33fddbb1fe6a90182c52cb1b47c394.html#aad33fddbb1fe6a90182c52cb1b47c394" target="_top" xlink:title=" ">
<polygon fill="white" stroke="#666666" points="267,-228 143,-228 143,-209 267,-209 267,-228"/>
<text text-anchor="middle" x="205" y="-216" font-family="Helvetica,sans-Serif" font-size="10.00">fl::Corkscrew::at_splat</text>
</a>
</g>
</g>
<!-- Node4&#45;&gt;Node5 -->
<g id="edge4_Node000004_Node000005" class="edge">
<title>Node4&#45;&gt;Node5</title>
<g id="a_edge4_Node000004_Node000005"><a xlink:title=" ">
<path fill="none" stroke="#63b8ff" d="M336.82,-218.5C316.59,-218.5 290.7,-218.5 267.31,-218.5"/>
<polygon fill="#63b8ff" stroke="#63b8ff" points="336.85,-222 346.85,-218.5 336.85,-215 336.85,-222"/>
</a>
</g>
</g>
<!-- Node6 -->
<g id="Node000006" class="node">
<title>Node6</title>
<g id="a_Node000006"><a xlink:href="../../d2/dbc/classfl_1_1_x_y_path_renderer_a11dad2232449f8e9e8f089387a45a357.html#a11dad2232449f8e9e8f089387a45a357" target="_top" xlink:title=" ">
<polygon fill="white" stroke="#666666" points="258.5,-167.5 151.5,-167.5 151.5,-137.5 258.5,-137.5 258.5,-167.5"/>
<text text-anchor="start" x="159.5" y="-155.5" font-family="Helvetica,sans-Serif" font-size="10.00">fl::XYPathRenderer</text>
<text text-anchor="middle" x="205" y="-144.5" font-family="Helvetica,sans-Serif" font-size="10.00">::at_subpixel</text>
</a>
</g>
</g>
<!-- Node4&#45;&gt;Node6 -->
<g id="edge5_Node000004_Node000006" class="edge">
<title>Node4&#45;&gt;Node6</title>
<g id="a_edge5_Node000004_Node000006"><a xlink:title=" ">
<path fill="none" stroke="#63b8ff" d="M336.97,-210.14C325.95,-207.18 313.85,-203.57 303,-199.5 279,-190.49 252.91,-177.67 233.83,-167.69"/>
<polygon fill="#63b8ff" stroke="#63b8ff" points="336.17,-213.54 346.72,-212.66 337.92,-206.77 336.17,-213.54"/>
</a>
</g>
</g>
<!-- Node7 -->
<g id="Node000007" class="node">
<title>Node7</title>
<g id="a_Node000007"><a xlink:href="../../d2/dbc/classfl_1_1_x_y_path_renderer_a0b5feeab9eab82fb0a1a432170ef6a27.html#a0b5feeab9eab82fb0a1a432170ef6a27" target="_top" xlink:title=" ">
<polygon fill="white" stroke="#666666" points="107,-144.5 0,-144.5 0,-114.5 107,-114.5 107,-144.5"/>
<text text-anchor="start" x="8" y="-132.5" font-family="Helvetica,sans-Serif" font-size="10.00">fl::XYPathRenderer</text>
<text text-anchor="middle" x="53.5" y="-121.5" font-family="Helvetica,sans-Serif" font-size="10.00">::rasterize</text>
</a>
</g>
</g>
<!-- Node6&#45;&gt;Node7 -->
<g id="edge6_Node000006_Node000007" class="edge">
<title>Node6&#45;&gt;Node7</title>
<g id="a_edge6_Node000006_Node000007"><a xlink:title=" ">
<path fill="none" stroke="#63b8ff" d="M141.08,-142.82C129.81,-141.09 118.18,-139.3 107.24,-137.61"/>
<polygon fill="#63b8ff" stroke="#63b8ff" points="140.88,-146.33 151.29,-144.39 141.94,-139.41 140.88,-146.33"/>
</a>
</g>
</g>
<!-- Node8&#45;&gt;Node4 -->
<g id="edge8_Node000008_Node000004" class="edge">
<title>Node8&#45;&gt;Node4</title>
<g id="a_edge8_Node000008_Node000004"><a xlink:title=" ">
<path fill="none" stroke="#63b8ff" d="M485.04,-389.14C483.3,-387.99 481.61,-386.78 480,-385.5 423.28,-340.57 388.39,-256.25 377.88,-228"/>
<polygon fill="#63b8ff" stroke="#63b8ff" points="483.75,-392.43 494.16,-394.38 487.24,-386.36 483.75,-392.43"/>
</a>
</g>
</g>
<!-- Node14 -->
<g id="Node000014" class="node">
<title>Node14</title>
<g id="a_Node000014"><a xlink:href="../../d1/d5c/classfl_1_1_x_y_raster_u8_sparse_a0a912982e407e681bd347b03a729b7da.html#a0a912982e407e681bd347b03a729b7da" target="_top" xlink:title=" ">
<polygon fill="white" stroke="#666666" points="433,-190.5 314,-190.5 314,-160.5 433,-160.5 433,-190.5"/>
<text text-anchor="start" x="322" y="-178.5" font-family="Helvetica,sans-Serif" font-size="10.00">fl::XYRasterU8Sparse</text>
<text text-anchor="middle" x="373.5" y="-167.5" font-family="Helvetica,sans-Serif" font-size="10.00">::rasterize</text>
</a>
</g>
</g>
<!-- Node13&#45;&gt;Node14 -->
<g id="edge14_Node000013_Node000014" class="edge">
<title>Node13&#45;&gt;Node14</title>
<g id="a_edge14_Node000013_Node000014"><a xlink:title=" ">
<path fill="none" stroke="#63b8ff" d="M484.9,-145.22C466.6,-150.24 446.85,-155.65 429.2,-160.5"/>
<polygon fill="#63b8ff" stroke="#63b8ff" points="485.89,-148.58 494.61,-142.56 484.04,-141.83 485.89,-148.58"/>
</a>
</g>
</g>
<!-- Node15 -->
<g id="Node000015" class="node">
<title>Node15</title>
<g id="a_Node000015"><a xlink:href="../../d1/d5c/classfl_1_1_x_y_raster_u8_sparse_a5fa39c30b320a1cc96442009062a09ec.html#a5fa39c30b320a1cc96442009062a09ec" target="_top" xlink:title=" ">
<polygon fill="white" stroke="#666666" points="433,-142.5 314,-142.5 314,-112.5 433,-112.5 433,-142.5"/>
<text text-anchor="start" x="322" y="-130.5" font-family="Helvetica,sans-Serif" font-size="10.00">fl::XYRasterU8Sparse</text>
<text text-anchor="middle" x="373.5" y="-119.5" font-family="Helvetica,sans-Serif" font-size="10.00">::rasterize</text>
</a>
</g>
</g>
<!-- Node13&#45;&gt;Node15 -->
<g id="edge15_Node000013_Node000015" class="edge">
<title>Node13&#45;&gt;Node15</title>
<g id="a_edge15_Node000013_Node000015"><a xlink:title=" ">
<path fill="none" stroke="#63b8ff" d="M480.57,-127.5C464.86,-127.5 448.33,-127.5 433.1,-127.5"/>
<polygon fill="#63b8ff" stroke="#63b8ff" points="480.74,-131 490.74,-127.5 480.74,-124 480.74,-131"/>
</a>
</g>
</g>
<!-- Node16&#45;&gt;Node7 -->
<g id="edge19_Node000016_Node000007" class="edge">
<title>Node16&#45;&gt;Node7</title>
<g id="a_edge19_Node000016_Node000007"><a xlink:title=" ">
<path fill="none" stroke="#63b8ff" d="M483.76,-66.19C384.43,-80.84 198.07,-108.33 107.12,-121.74"/>
<polygon fill="#63b8ff" stroke="#63b8ff" points="484.3,-69.65 493.68,-64.73 483.28,-62.73 484.3,-69.65"/>
</a>
</g>
</g>
<!-- Node16&#45;&gt;Node16 -->
<g id="edge20_Node000016_Node000016" class="edge">
<title>Node16&#45;&gt;Node16</title>
<g id="a_edge20_Node000016_Node000016"><a xlink:title=" ">
<path fill="none" stroke="#63b8ff" d="M579.25,-74.82C578.04,-80.01 568.46,-84 550.5,-84 523.13,-84 515.22,-74.73 526.76,-66.08"/>
<polygon fill="#63b8ff" stroke="#63b8ff" points="582.25,-73.02 574.24,-66.08 576.17,-76.5 582.25,-73.02"/>
</a>
</g>
</g>
<!-- Node17 -->
<g id="Node000017" class="node">
<title>Node17</title>
<g id="a_Node000017"><a xlink:href="../../d0/d2b/classfl_1_1_tile2x2__u8_abf66052ffe9d51ccfcbad8c38189f6c2.html#abf66052ffe9d51ccfcbad8c38189f6c2" target="_top" xlink:title=" ">
<polygon fill="white" stroke="#666666" points="444,-56 303,-56 303,-37 444,-37 444,-56"/>
<text text-anchor="middle" x="373.5" y="-44" font-family="Helvetica,sans-Serif" font-size="10.00">fl::Tile2x2_u8::Tile2x2_u8</text>
</a>
</g>
</g>
<!-- Node16&#45;&gt;Node17 -->
<g id="edge17_Node000016_Node000017" class="edge">
<title>Node16&#45;&gt;Node17</title>
<g id="a_edge17_Node000016_Node000017"><a xlink:title=" ">
<path fill="none" stroke="#63b8ff" d="M483.52,-52.73C470.69,-52 457.21,-51.23 444.26,-50.49"/>
<polygon fill="#63b8ff" stroke="#63b8ff" points="483.46,-56.23 493.65,-53.31 483.86,-49.24 483.46,-56.23"/>
</a>
</g>
</g>
<!-- Node18 -->
<g id="Node000018" class="node">
<title>Node18</title>
<g id="a_Node000018"><a xlink:href="../../da/d05/_bilinear_compression_8ino_afe461d27b9c48d5921c00d521181f12f.html#afe461d27b9c48d5921c00d521181f12f" target="_top" xlink:title=" ">
<polygon fill="white" stroke="#666666" points="392.5,-19 354.5,-19 354.5,0 392.5,0 392.5,-19"/>
<text text-anchor="middle" x="373.5" y="-7" font-family="Helvetica,sans-Serif" font-size="10.00">loop</text>
</a>
</g>
</g>
<!-- Node16&#45;&gt;Node18 -->
<g id="edge18_Node000016_Node000018" class="edge">
<title>Node16&#45;&gt;Node18</title>
<g id="a_edge18_Node000016_Node000018"><a xlink:title=" ">
<path fill="none" stroke="#63b8ff" d="M505.5,-44.25C486.58,-39.02 464.22,-32.9 444,-27.5 426.54,-22.84 406.56,-17.68 392.52,-14.09"/>
<polygon fill="#63b8ff" stroke="#63b8ff" points="504.75,-47.67 515.33,-46.97 506.62,-40.93 504.75,-47.67"/>
</a>
</g>
</g>
<!-- Node19&#45;&gt;Node4 -->
<g id="edge22_Node000019_Node000004" class="edge">
<title>Node19&#45;&gt;Node4</title>
<g id="a_edge22_Node000019_Node000004"><a xlink:title=" ">
<path fill="none" stroke="#63b8ff" d="M471.66,-218.5C445.9,-218.5 419,-218.5 400.06,-218.5"/>
<polygon fill="#63b8ff" stroke="#63b8ff" points="471.84,-222 481.84,-218.5 471.84,-215 471.84,-222"/>
</a>
</g>
</g>
<!-- Node20&#45;&gt;Node4 -->
<g id="edge24_Node000020_Node000004" class="edge">
<title>Node20&#45;&gt;Node4</title>
<g id="a_edge24_Node000020_Node000004"><a xlink:title=" ">
<path fill="none" stroke="#63b8ff" d="M482.19,-192.04C453.46,-199.1 421.65,-206.91 400.11,-212.21"/>
<polygon fill="#63b8ff" stroke="#63b8ff" points="483.32,-195.36 492.2,-189.58 481.65,-188.57 483.32,-195.36"/>
</a>
</g>
</g>
</g>
</svg>
