<?xml version="1.0" encoding="UTF-8" standalone="no"?>
<!DOCTYPE svg PUBLIC "-//W3C//DTD SVG 1.1//EN"
 "http://www.w3.org/Graphics/SVG/1.1/DTD/svg11.dtd">
<!-- Generated by graphviz version 2.43.0 (0)
 -->
<!-- Title: fl::Slice::size Pages: 1 -->
<svg width="593pt" height="990pt"
 viewBox="0.00 0.00 593.00 989.50" xmlns="http://www.w3.org/2000/svg" xmlns:xlink="http://www.w3.org/1999/xlink">
<g id="graph0" class="graph" transform="scale(1 1) rotate(0) translate(4 985.5)">
<title>fl::Slice::size</title>
<!-- Node1 -->
<g id="Node000001" class="node">
<title>Node1</title>
<g id="a_Node000001"><a xlink:title=" ">
<polygon fill="#999999" stroke="#666666" points="585,-562.5 508,-562.5 508,-543.5 585,-543.5 585,-562.5"/>
<text text-anchor="middle" x="546.5" y="-550.5" font-family="Helvetica,sans-Serif" font-size="10.00">fl::Slice::size</text>
</a>
</g>
</g>
<!-- Node2 -->
<g id="Node000002" class="node">
<title>Node2</title>
<g id="a_Node000002"><a xlink:href="../../d8/de4/classfl_1_1_slice_a7d189753b00367fe0b3b8256da5f2f29.html#a7d189753b00367fe0b3b8256da5f2f29" target="_top" xlink:title=" ">
<polygon fill="white" stroke="#666666" points="438.5,-981.5 357.5,-981.5 357.5,-962.5 438.5,-962.5 438.5,-981.5"/>
<text text-anchor="middle" x="398" y="-969.5" font-family="Helvetica,sans-Serif" font-size="10.00">fl::Slice::Slice</text>
</a>
</g>
</g>
<!-- Node1&#45;&gt;Node2 -->
<g id="edge1_Node000001_Node000002" class="edge">
<title>Node1&#45;&gt;Node2</title>
<g id="a_edge1_Node000001_Node000002"><a xlink:title=" ">
<path fill="none" stroke="#63b8ff" d="M544.63,-572.85C541.04,-645.8 524.96,-897.74 472,-954 463.41,-963.12 451,-967.94 438.84,-970.39"/>
<polygon fill="#63b8ff" stroke="#63b8ff" points="548.14,-572.89 545.11,-562.73 541.14,-572.56 548.14,-572.89"/>
</a>
</g>
</g>
<!-- Node3 -->
<g id="Node000003" class="node">
<title>Node3</title>
<g id="a_Node000003"><a xlink:href="../../d8/de4/classfl_1_1_slice_a787f80c50ac594ac51fb682d40d24ab5.html#a787f80c50ac594ac51fb682d40d24ab5" target="_top" xlink:title=" ">
<polygon fill="white" stroke="#666666" points="438.5,-944.5 357.5,-944.5 357.5,-925.5 438.5,-925.5 438.5,-944.5"/>
<text text-anchor="middle" x="398" y="-932.5" font-family="Helvetica,sans-Serif" font-size="10.00">fl::Slice::Slice</text>
</a>
</g>
</g>
<!-- Node1&#45;&gt;Node3 -->
<g id="edge2_Node000001_Node000003" class="edge">
<title>Node1&#45;&gt;Node3</title>
<g id="a_edge2_Node000001_Node000003"><a xlink:title=" ">
<path fill="none" stroke="#63b8ff" d="M544.24,-572.75C539.47,-641.16 520.28,-866.62 472,-917 463.33,-926.05 450.9,-930.84 438.74,-933.3"/>
<polygon fill="#63b8ff" stroke="#63b8ff" points="547.75,-572.73 544.92,-562.51 540.76,-572.26 547.75,-572.73"/>
</a>
</g>
</g>
<!-- Node4 -->
<g id="Node000004" class="node">
<title>Node4</title>
<g id="a_Node000004"><a xlink:href="../../d8/de4/classfl_1_1_slice_a61afdf46822717efe8414e4c166ffbf7.html#a61afdf46822717efe8414e4c166ffbf7" target="_top" xlink:title=" ">
<polygon fill="white" stroke="#666666" points="438.5,-907.5 357.5,-907.5 357.5,-888.5 438.5,-888.5 438.5,-907.5"/>
<text text-anchor="middle" x="398" y="-895.5" font-family="Helvetica,sans-Serif" font-size="10.00">fl::Slice::Slice</text>
</a>
</g>
</g>
<!-- Node1&#45;&gt;Node4 -->
<g id="edge3_Node000001_Node000004" class="edge">
<title>Node1&#45;&gt;Node4</title>
<g id="a_edge3_Node000001_Node000004"><a xlink:title=" ">
<path fill="none" stroke="#63b8ff" d="M543.74,-572.8C537.69,-636.64 515.6,-835.49 472,-880 463.23,-888.95 450.77,-893.72 438.63,-896.19"/>
<polygon fill="#63b8ff" stroke="#63b8ff" points="547.23,-573.1 544.66,-562.82 540.26,-572.46 547.23,-573.1"/>
</a>
</g>
</g>
<!-- Node5 -->
<g id="Node000005" class="node">
<title>Node5</title>
<g id="a_Node000005"><a xlink:href="../../d8/de4/classfl_1_1_slice_a07befb7a4f946a9d4807a2769c0d9bb8.html#a07befb7a4f946a9d4807a2769c0d9bb8" target="_top" xlink:title=" ">
<polygon fill="white" stroke="#666666" points="438.5,-870.5 357.5,-870.5 357.5,-851.5 438.5,-851.5 438.5,-870.5"/>
<text text-anchor="middle" x="398" y="-858.5" font-family="Helvetica,sans-Serif" font-size="10.00">fl::Slice::Slice</text>
</a>
</g>
</g>
<!-- Node1&#45;&gt;Node5 -->
<g id="edge4_Node000001_Node000005" class="edge">
<title>Node1&#45;&gt;Node5</title>
<g id="a_edge4_Node000001_Node000005"><a xlink:title=" ">
<path fill="none" stroke="#63b8ff" d="M543.13,-572.81C535.69,-631.75 510.95,-804.3 472,-843 463.2,-851.74 450.88,-856.47 438.86,-858.97"/>
<polygon fill="#63b8ff" stroke="#63b8ff" points="546.64,-572.96 544.39,-562.61 539.69,-572.11 546.64,-572.96"/>
</a>
</g>
</g>
<!-- Node6 -->
<g id="Node000006" class="node">
<title>Node6</title>
<g id="a_Node000006"><a xlink:href="../../d8/de4/classfl_1_1_slice_a0975dca5e7632c133068791b095ee5b1.html#a0975dca5e7632c133068791b095ee5b1" target="_top" xlink:title=" ">
<polygon fill="white" stroke="#666666" points="438.5,-833.5 357.5,-833.5 357.5,-814.5 438.5,-814.5 438.5,-833.5"/>
<text text-anchor="middle" x="398" y="-821.5" font-family="Helvetica,sans-Serif" font-size="10.00">fl::Slice::Slice</text>
</a>
</g>
</g>
<!-- Node1&#45;&gt;Node6 -->
<g id="edge5_Node000001_Node000006" class="edge">
<title>Node1&#45;&gt;Node6</title>
<g id="a_edge5_Node000001_Node000006"><a xlink:title=" ">
<path fill="none" stroke="#63b8ff" d="M545.97,-572.93C545.94,-620.55 538.91,-741.77 472,-806 463.05,-814.59 450.69,-819.28 438.69,-821.79"/>
<polygon fill="#63b8ff" stroke="#63b8ff" points="549.46,-572.69 545.86,-562.72 542.47,-572.76 549.46,-572.69"/>
</a>
</g>
</g>
<!-- Node7 -->
<g id="Node000007" class="node">
<title>Node7</title>
<g id="a_Node000007"><a xlink:href="../../d8/de4/classfl_1_1_slice_af4be5dcf3f4b3f8817917bbf927bd4f6.html#af4be5dcf3f4b3f8817917bbf927bd4f6" target="_top" xlink:title=" ">
<polygon fill="white" stroke="#666666" points="438.5,-796.5 357.5,-796.5 357.5,-777.5 438.5,-777.5 438.5,-796.5"/>
<text text-anchor="middle" x="398" y="-784.5" font-family="Helvetica,sans-Serif" font-size="10.00">fl::Slice::Slice</text>
</a>
</g>
</g>
<!-- Node1&#45;&gt;Node7 -->
<g id="edge6_Node000001_Node000007" class="edge">
<title>Node1&#45;&gt;Node7</title>
<g id="a_edge6_Node000001_Node000007"><a xlink:title=" ">
<path fill="none" stroke="#63b8ff" d="M544.79,-573.17C542.14,-615.91 529.76,-716.02 472,-769 462.96,-777.29 450.71,-781.92 438.84,-784.46"/>
<polygon fill="#63b8ff" stroke="#63b8ff" points="548.29,-573.1 545.3,-562.94 541.3,-572.75 548.29,-573.1"/>
</a>
</g>
</g>
<!-- Node8 -->
<g id="Node000008" class="node">
<title>Node8</title>
<g id="a_Node000008"><a xlink:href="../../d8/de4/classfl_1_1_slice_a148c458464823b5a01e0de0da359baec.html#a148c458464823b5a01e0de0da359baec" target="_top" xlink:title=" ">
<polygon fill="white" stroke="#666666" points="438.5,-759.5 357.5,-759.5 357.5,-740.5 438.5,-740.5 438.5,-759.5"/>
<text text-anchor="middle" x="398" y="-747.5" font-family="Helvetica,sans-Serif" font-size="10.00">fl::Slice::Slice</text>
</a>
</g>
</g>
<!-- Node1&#45;&gt;Node8 -->
<g id="edge7_Node000001_Node000008" class="edge">
<title>Node1&#45;&gt;Node8</title>
<g id="a_edge7_Node000001_Node000008"><a xlink:title=" ">
<path fill="none" stroke="#63b8ff" d="M543.19,-573C537.79,-610.15 520.89,-689.86 472,-732 462.71,-740.01 450.4,-744.57 438.54,-747.12"/>
<polygon fill="#63b8ff" stroke="#63b8ff" points="546.68,-573.3 544.51,-562.92 539.74,-572.38 546.68,-573.3"/>
</a>
</g>
</g>
<!-- Node9 -->
<g id="Node000009" class="node">
<title>Node9</title>
<g id="a_Node000009"><a xlink:href="../../d8/de4/classfl_1_1_slice_a187784508e676d77891b03b1fb113a2d.html#a187784508e676d77891b03b1fb113a2d" target="_top" xlink:title=" ">
<polygon fill="white" stroke="#666666" points="438.5,-722.5 357.5,-722.5 357.5,-703.5 438.5,-703.5 438.5,-722.5"/>
<text text-anchor="middle" x="398" y="-710.5" font-family="Helvetica,sans-Serif" font-size="10.00">fl::Slice::Slice</text>
</a>
</g>
</g>
<!-- Node1&#45;&gt;Node9 -->
<g id="edge8_Node000001_Node000009" class="edge">
<title>Node1&#45;&gt;Node9</title>
<g id="a_edge8_Node000001_Node000009"><a xlink:title=" ">
<path fill="none" stroke="#63b8ff" d="M540.9,-572.7C532.62,-603.63 512.19,-663.32 472,-695 462.47,-702.51 450.22,-706.94 438.5,-709.54"/>
<polygon fill="#63b8ff" stroke="#63b8ff" points="544.36,-573.26 543.41,-562.71 537.58,-571.55 544.36,-573.26"/>
</a>
</g>
</g>
<!-- Node10 -->
<g id="Node000010" class="node">
<title>Node10</title>
<g id="a_Node000010"><a xlink:href="../../d8/de4/classfl_1_1_slice_a56aaf883c9f636de6abe54fef22758b4.html#a56aaf883c9f636de6abe54fef22758b4" target="_top" xlink:title=" ">
<polygon fill="white" stroke="#666666" points="438.5,-685.5 357.5,-685.5 357.5,-666.5 438.5,-666.5 438.5,-685.5"/>
<text text-anchor="middle" x="398" y="-673.5" font-family="Helvetica,sans-Serif" font-size="10.00">fl::Slice::Slice</text>
</a>
</g>
</g>
<!-- Node1&#45;&gt;Node10 -->
<g id="edge9_Node000001_Node000010" class="edge">
<title>Node1&#45;&gt;Node10</title>
<g id="a_edge9_Node000001_Node000010"><a xlink:title=" ">
<path fill="none" stroke="#63b8ff" d="M537.41,-571.95C526.24,-595.77 503.82,-636.19 472,-658 462.2,-664.72 450.15,-668.93 438.68,-671.58"/>
<polygon fill="#63b8ff" stroke="#63b8ff" points="540.72,-573.13 541.62,-562.57 534.33,-570.26 540.72,-573.13"/>
</a>
</g>
</g>
<!-- Node11 -->
<g id="Node000011" class="node">
<title>Node11</title>
<g id="a_Node000011"><a xlink:href="../../d8/de4/classfl_1_1_slice_aee921a8a352b846a3bd7b41bcc648323.html#aee921a8a352b846a3bd7b41bcc648323" target="_top" xlink:title=" ">
<polygon fill="white" stroke="#666666" points="438.5,-648.5 357.5,-648.5 357.5,-629.5 438.5,-629.5 438.5,-648.5"/>
<text text-anchor="middle" x="398" y="-636.5" font-family="Helvetica,sans-Serif" font-size="10.00">fl::Slice::Slice</text>
</a>
</g>
</g>
<!-- Node1&#45;&gt;Node11 -->
<g id="edge10_Node000001_Node000011" class="edge">
<title>Node1&#45;&gt;Node11</title>
<g id="a_edge10_Node000001_Node000011"><a xlink:title=" ">
<path fill="none" stroke="#63b8ff" d="M530.81,-570.53C517.1,-585.78 495.31,-607.36 472,-620 461.75,-625.56 449.81,-629.55 438.59,-632.39"/>
<polygon fill="#63b8ff" stroke="#63b8ff" points="533.61,-572.64 537.55,-562.8 528.34,-568.03 533.61,-572.64"/>
</a>
</g>
</g>
<!-- Node12 -->
<g id="Node000012" class="node">
<title>Node12</title>
<g id="a_Node000012"><a xlink:href="../../da/d56/classfl_1_1_u_i_dropdown_impl_a5b1209a2f97279d3df17d4a69b34643d.html#a5b1209a2f97279d3df17d4a69b34643d" target="_top" xlink:title=" ">
<polygon fill="white" stroke="#666666" points="453,-611 343,-611 343,-581 453,-581 453,-611"/>
<text text-anchor="start" x="351" y="-599" font-family="Helvetica,sans-Serif" font-size="10.00">fl::UIDropdownImpl</text>
<text text-anchor="middle" x="398" y="-588" font-family="Helvetica,sans-Serif" font-size="10.00">::UIDropdownImpl</text>
</a>
</g>
</g>
<!-- Node1&#45;&gt;Node12 -->
<g id="edge11_Node000001_Node000012" class="edge">
<title>Node1&#45;&gt;Node12</title>
<g id="a_edge11_Node000001_Node000012"><a xlink:title=" ">
<path fill="none" stroke="#63b8ff" d="M503.06,-565.46C486.52,-570.31 467.41,-575.92 450.13,-580.99"/>
<polygon fill="#63b8ff" stroke="#63b8ff" points="504.38,-568.72 512.99,-562.54 502.41,-562 504.38,-568.72"/>
</a>
</g>
</g>
<!-- Node13 -->
<g id="Node000013" class="node">
<title>Node13</title>
<g id="a_Node000013"><a xlink:href="../../d2/db2/classfl_1_1string_a1ef9fcd0d2f39f4d5fc52462db6c9067.html#a1ef9fcd0d2f39f4d5fc52462db6c9067" target="_top" xlink:title=" ">
<polygon fill="white" stroke="#666666" points="447,-562.5 349,-562.5 349,-543.5 447,-543.5 447,-562.5"/>
<text text-anchor="middle" x="398" y="-550.5" font-family="Helvetica,sans-Serif" font-size="10.00">fl::string::append</text>
</a>
</g>
</g>
<!-- Node1&#45;&gt;Node13 -->
<g id="edge12_Node000001_Node000013" class="edge">
<title>Node1&#45;&gt;Node13</title>
<g id="a_edge12_Node000001_Node000013"><a xlink:title=" ">
<path fill="none" stroke="#63b8ff" d="M497.46,-553C481.31,-553 463.29,-553 447.12,-553"/>
<polygon fill="#63b8ff" stroke="#63b8ff" points="497.77,-556.5 507.77,-553 497.77,-549.5 497.77,-556.5"/>
</a>
</g>
</g>
<!-- Node14 -->
<g id="Node000014" class="node">
<title>Node14</title>
<g id="a_Node000014"><a xlink:href="../../da/dc7/advanced_8h_a715d5587b1a493c350ae39b13e881463.html#a715d5587b1a493c350ae39b13e881463" target="_top" xlink:title=" ">
<polygon fill="white" stroke="#666666" points="268.5,-567.5 177.5,-567.5 177.5,-548.5 268.5,-548.5 268.5,-567.5"/>
<text text-anchor="middle" x="223" y="-555.5" font-family="Helvetica,sans-Serif" font-size="10.00">drawWaveform</text>
</a>
</g>
</g>
<!-- Node1&#45;&gt;Node14 -->
<g id="edge13_Node000001_Node000014" class="edge">
<title>Node1&#45;&gt;Node14</title>
<g id="a_edge13_Node000001_Node000014"><a xlink:title=" ">
<path fill="none" stroke="#63b8ff" d="M503.65,-540.91C493.39,-538.46 482.37,-536.25 472,-535 406.7,-527.12 389.36,-527.58 324,-535 301.34,-537.57 276.34,-543.32 257.01,-548.43"/>
<polygon fill="#63b8ff" stroke="#63b8ff" points="503.06,-544.37 513.61,-543.42 504.77,-537.59 503.06,-544.37"/>
</a>
</g>
</g>
<!-- Node16 -->
<g id="Node000016" class="node">
<title>Node16</title>
<g id="a_Node000016"><a xlink:href="../../d5/d32/classfl_1_1_line_simplifier_exact_ae965d75d20120bfabb8551e8fa46cffa.html#ae965d75d20120bfabb8551e8fa46cffa" target="_top" xlink:title=" ">
<polygon fill="white" stroke="#666666" points="463,-356 333,-356 333,-326 463,-326 463,-356"/>
<text text-anchor="start" x="341" y="-344" font-family="Helvetica,sans-Serif" font-size="10.00">fl::LineSimplifierExact</text>
<text text-anchor="middle" x="398" y="-333" font-family="Helvetica,sans-Serif" font-size="10.00">::estimateMaxDistance</text>
</a>
</g>
</g>
<!-- Node1&#45;&gt;Node16 -->
<g id="edge15_Node000001_Node000016" class="edge">
<title>Node1&#45;&gt;Node16</title>
<g id="a_edge15_Node000001_Node000016"><a xlink:title=" ">
<path fill="none" stroke="#63b8ff" d="M542.76,-533.18C536.65,-496.24 518.6,-416.42 472,-370 466.3,-364.32 459.35,-359.72 452.03,-356"/>
<polygon fill="#63b8ff" stroke="#63b8ff" points="539.32,-533.82 544.29,-543.18 546.24,-532.77 539.32,-533.82"/>
</a>
</g>
</g>
<!-- Node17 -->
<g id="Node000017" class="node">
<title>Node17</title>
<g id="a_Node000017"><a xlink:href="../../d5/d32/classfl_1_1_line_simplifier_exact_a70e5f21b0f1f867c9a935ff78759b70c.html#a70e5f21b0f1f867c9a935ff78759b70c" target="_top" xlink:title=" ">
<polygon fill="white" stroke="#666666" points="284,-320 162,-320 162,-290 284,-290 284,-320"/>
<text text-anchor="start" x="170" y="-308" font-family="Helvetica,sans-Serif" font-size="10.00">fl::LineSimplifierExact</text>
<text text-anchor="middle" x="223" y="-297" font-family="Helvetica,sans-Serif" font-size="10.00">::simplify</text>
</a>
</g>
</g>
<!-- Node1&#45;&gt;Node17 -->
<g id="edge35_Node000001_Node000017" class="edge">
<title>Node1&#45;&gt;Node17</title>
<g id="a_edge35_Node000001_Node000017"><a xlink:title=" ">
<path fill="none" stroke="#63b8ff" d="M541.35,-533.32C533.53,-501.26 513.56,-437.96 472,-404 419.33,-360.96 382.98,-398.89 324,-365 304.38,-353.73 307.02,-341.25 288,-329 282.81,-325.66 277.09,-322.69 271.27,-320.07"/>
<polygon fill="#63b8ff" stroke="#63b8ff" points="537.98,-534.28 543.62,-543.25 544.8,-532.72 537.98,-534.28"/>
</a>
</g>
</g>
<!-- Node19 -->
<g id="Node000019" class="node">
<title>Node19</title>
<g id="a_Node000019"><a xlink:href="../../d0/de1/classfl_1_1_audio_sample_aa07d9fc1f757039c453a67dd030fcfd9.html#aa07d9fc1f757039c453a67dd030fcfd9" target="_top" xlink:title=" ">
<polygon fill="white" stroke="#666666" points="453,-486.5 343,-486.5 343,-467.5 453,-467.5 453,-486.5"/>
<text text-anchor="middle" x="398" y="-474.5" font-family="Helvetica,sans-Serif" font-size="10.00">fl::AudioSample::fft</text>
</a>
</g>
</g>
<!-- Node1&#45;&gt;Node19 -->
<g id="edge18_Node000001_Node000019" class="edge">
<title>Node1&#45;&gt;Node19</title>
<g id="a_edge18_Node000001_Node000019"><a xlink:title=" ">
<path fill="none" stroke="#63b8ff" d="M526.18,-536.9C511.92,-525.64 491.65,-510.9 472,-501 460.44,-495.18 447.16,-490.32 435.13,-486.54"/>
<polygon fill="#63b8ff" stroke="#63b8ff" points="524.24,-539.83 534.22,-543.39 528.64,-534.38 524.24,-539.83"/>
</a>
</g>
</g>
<!-- Node22 -->
<g id="Node000022" class="node">
<title>Node22</title>
<g id="a_Node000022"><a xlink:href="../../de/d10/classfl_1_1_rectangular_draw_buffer_a6da1375ccc6fbb78ba358acaf7e2dc27.html#a6da1375ccc6fbb78ba358acaf7e2dc27" target="_top" xlink:title=" ">
<polygon fill="white" stroke="#666666" points="472,-260 324,-260 324,-230 472,-230 472,-260"/>
<text text-anchor="start" x="332" y="-248" font-family="Helvetica,sans-Serif" font-size="10.00">fl::RectangularDrawBuffer</text>
<text text-anchor="middle" x="398" y="-237" font-family="Helvetica,sans-Serif" font-size="10.00">::getLedsBufferBytesForPin</text>
</a>
</g>
</g>
<!-- Node1&#45;&gt;Node22 -->
<g id="edge22_Node000001_Node000022" class="edge">
<title>Node1&#45;&gt;Node22</title>
<g id="a_edge22_Node000001_Node000022"><a xlink:title=" ">
<path fill="none" stroke="#63b8ff" d="M542.88,-533.34C534.84,-475.61 508.74,-308.19 472,-269 468.81,-265.59 465.12,-262.67 461.14,-260.16"/>
<polygon fill="#63b8ff" stroke="#63b8ff" points="539.43,-533.92 544.25,-543.35 546.37,-532.97 539.43,-533.92"/>
</a>
</g>
</g>
<!-- Node23 -->
<g id="Node000023" class="node">
<title>Node23</title>
<g id="a_Node000023"><a xlink:href="../../d9/d68/classfl_1_1_sound_level_meter_a826116e716e59a9744bb8350be5e9401.html#a826116e716e59a9744bb8350be5e9401" target="_top" xlink:title=" ">
<polygon fill="white" stroke="#666666" points="454.5,-212 341.5,-212 341.5,-182 454.5,-182 454.5,-212"/>
<text text-anchor="start" x="349.5" y="-200" font-family="Helvetica,sans-Serif" font-size="10.00">fl::SoundLevelMeter</text>
<text text-anchor="middle" x="398" y="-189" font-family="Helvetica,sans-Serif" font-size="10.00">::processBlock</text>
</a>
</g>
</g>
<!-- Node1&#45;&gt;Node23 -->
<g id="edge23_Node000001_Node000023" class="edge">
<title>Node1&#45;&gt;Node23</title>
<g id="a_edge23_Node000001_Node000023"><a xlink:title=" ">
<path fill="none" stroke="#63b8ff" d="M543.69,-533.46C537.4,-469.52 514.5,-267.97 472,-221 467.17,-215.66 461.12,-211.5 454.6,-208.27"/>
<polygon fill="#63b8ff" stroke="#63b8ff" points="540.21,-533.8 544.65,-543.42 547.18,-533.14 540.21,-533.8"/>
</a>
</g>
</g>
<!-- Node24 -->
<g id="Node000024" class="node">
<title>Node24</title>
<g id="a_Node000024"><a xlink:href="../../d1/d5c/classfl_1_1_x_y_raster_u8_sparse_a4b3077968ef8f2887209ef8086418ead.html#a4b3077968ef8f2887209ef8086418ead" target="_top" xlink:title=" ">
<polygon fill="white" stroke="#666666" points="457.5,-164 338.5,-164 338.5,-134 457.5,-134 457.5,-164"/>
<text text-anchor="start" x="346.5" y="-152" font-family="Helvetica,sans-Serif" font-size="10.00">fl::XYRasterU8Sparse</text>
<text text-anchor="middle" x="398" y="-141" font-family="Helvetica,sans-Serif" font-size="10.00">::rasterize</text>
</a>
</g>
</g>
<!-- Node1&#45;&gt;Node24 -->
<g id="edge24_Node000001_Node000024" class="edge">
<title>Node1&#45;&gt;Node24</title>
<g id="a_edge24_Node000001_Node000024"><a xlink:title=" ">
<path fill="none" stroke="#63b8ff" d="M544.28,-533.42C539.56,-463.57 520.28,-227.81 472,-173 467.94,-168.39 462.99,-164.67 457.59,-161.66"/>
<polygon fill="#63b8ff" stroke="#63b8ff" points="540.8,-533.74 544.94,-543.49 547.78,-533.28 540.8,-533.74"/>
</a>
</g>
</g>
<!-- Node25 -->
<g id="Node000025" class="node">
<title>Node25</title>
<g id="a_Node000025"><a xlink:href="../../db/d49/_audio_2simple_2simple_8h_a366541da4b022a2bc47a7dc02a1c1936.html#a366541da4b022a2bc47a7dc02a1c1936" target="_top" xlink:title=" ">
<polygon fill="white" stroke="#666666" points="415.5,-431.5 380.5,-431.5 380.5,-412.5 415.5,-412.5 415.5,-431.5"/>
<text text-anchor="middle" x="398" y="-419.5" font-family="Helvetica,sans-Serif" font-size="10.00">rms</text>
</a>
</g>
</g>
<!-- Node1&#45;&gt;Node25 -->
<g id="edge25_Node000001_Node000025" class="edge">
<title>Node1&#45;&gt;Node25</title>
<g id="a_edge25_Node000001_Node000025"><a xlink:title=" ">
<path fill="none" stroke="#63b8ff" d="M534.63,-534.64C521.75,-514.13 498.66,-480.92 472,-459 454.77,-444.83 431.22,-434.13 415.58,-427.96"/>
<polygon fill="#63b8ff" stroke="#63b8ff" points="531.74,-536.63 539.95,-543.34 537.71,-532.98 531.74,-536.63"/>
</a>
</g>
</g>
<!-- Node28 -->
<g id="Node000028" class="node">
<title>Node28</title>
<g id="a_Node000028"><a xlink:href="../../de/d9d/classfl_1_1_f_f_t_impl_a5a8f21c0a05e1b9d63c636cc4f24f5f7.html#a5a8f21c0a05e1b9d63c636cc4f24f5f7" target="_top" xlink:title=" ">
<polygon fill="white" stroke="#666666" points="442.5,-115.5 353.5,-115.5 353.5,-96.5 442.5,-96.5 442.5,-115.5"/>
<text text-anchor="middle" x="398" y="-103.5" font-family="Helvetica,sans-Serif" font-size="10.00">fl::FFTImpl::run</text>
</a>
</g>
</g>
<!-- Node1&#45;&gt;Node28 -->
<g id="edge32_Node000001_Node000028" class="edge">
<title>Node1&#45;&gt;Node28</title>
<g id="a_edge32_Node000001_Node000028"><a xlink:title=" ">
<path fill="none" stroke="#63b8ff" d="M544.87,-533.32C542.03,-457.57 528.04,-185.99 472,-125 464.38,-116.71 453.64,-111.84 442.74,-109.04"/>
<polygon fill="#63b8ff" stroke="#63b8ff" points="541.37,-533.52 545.22,-543.39 548.37,-533.27 541.37,-533.52"/>
</a>
</g>
</g>
<!-- Node29 -->
<g id="Node000029" class="node">
<title>Node29</title>
<g id="a_Node000029"><a xlink:href="../../d5/d32/classfl_1_1_line_simplifier_exact_a95eec92ab0f3e1dfcc0984dc8728913b.html#a95eec92ab0f3e1dfcc0984dc8728913b" target="_top" xlink:title=" ">
<polygon fill="white" stroke="#666666" points="459,-308 337,-308 337,-278 459,-278 459,-308"/>
<text text-anchor="start" x="345" y="-296" font-family="Helvetica,sans-Serif" font-size="10.00">fl::LineSimplifierExact</text>
<text text-anchor="middle" x="398" y="-285" font-family="Helvetica,sans-Serif" font-size="10.00">::safeCopy</text>
</a>
</g>
</g>
<!-- Node1&#45;&gt;Node29 -->
<g id="edge33_Node000001_Node000029" class="edge">
<title>Node1&#45;&gt;Node29</title>
<g id="a_edge33_Node000001_Node000029"><a xlink:title=" ">
<path fill="none" stroke="#63b8ff" d="M545.15,-533.21C543.26,-488.4 532.37,-378.33 472,-317 468.26,-313.2 463.9,-310 459.21,-307.3"/>
<polygon fill="#63b8ff" stroke="#63b8ff" points="541.65,-533.46 545.46,-543.35 548.65,-533.25 541.65,-533.46"/>
</a>
</g>
</g>
<!-- Node30 -->
<g id="Node000030" class="node">
<title>Node30</title>
<g id="a_Node000030"><a xlink:href="../../dc/d4a/classfl_1_1_line_simplifier_a64f1c9e03f55225bcffbe6209dc1cda6.html#a64f1c9e03f55225bcffbe6209dc1cda6" target="_top" xlink:title=" ">
<polygon fill="white" stroke="#666666" points="447.5,-78 348.5,-78 348.5,-48 447.5,-48 447.5,-78"/>
<text text-anchor="start" x="356.5" y="-66" font-family="Helvetica,sans-Serif" font-size="10.00">fl::LineSimplifier</text>
<text text-anchor="middle" x="398" y="-55" font-family="Helvetica,sans-Serif" font-size="10.00">::simplifyInternal</text>
</a>
</g>
</g>
<!-- Node1&#45;&gt;Node30 -->
<g id="edge36_Node000001_Node000030" class="edge">
<title>Node1&#45;&gt;Node30</title>
<g id="a_edge36_Node000001_Node000030"><a xlink:title=" ">
<path fill="none" stroke="#63b8ff" d="M545.02,-533.31C542.68,-453.79 530.13,-157.18 472,-88 465.62,-80.41 456.83,-75.12 447.56,-71.43"/>
<polygon fill="#63b8ff" stroke="#63b8ff" points="541.52,-533.52 545.29,-543.42 548.52,-533.33 541.52,-533.52"/>
</a>
</g>
</g>
<!-- Node15 -->
<g id="Node000015" class="node">
<title>Node15</title>
<g id="a_Node000015"><a xlink:href="../../da/dc7/advanced_8h_afe461d27b9c48d5921c00d521181f12f.html#afe461d27b9c48d5921c00d521181f12f" target="_top" xlink:title=" ">
<polygon fill="white" stroke="#666666" points="80,-486.5 42,-486.5 42,-467.5 80,-467.5 80,-486.5"/>
<text text-anchor="middle" x="61" y="-474.5" font-family="Helvetica,sans-Serif" font-size="10.00">loop</text>
</a>
</g>
</g>
<!-- Node14&#45;&gt;Node15 -->
<g id="edge14_Node000014_Node000015" class="edge">
<title>Node14&#45;&gt;Node15</title>
<g id="a_edge14_Node000014_Node000015"><a xlink:title=" ">
<path fill="none" stroke="#63b8ff" d="M183.73,-544.91C175.14,-541.63 166.16,-537.92 158,-534 127.77,-519.5 94.55,-498.56 76.2,-486.52"/>
<polygon fill="#63b8ff" stroke="#63b8ff" points="182.6,-548.23 193.19,-548.43 185.04,-541.66 182.6,-548.23"/>
</a>
</g>
</g>
<!-- Node16&#45;&gt;Node17 -->
<g id="edge16_Node000016_Node000017" class="edge">
<title>Node16&#45;&gt;Node17</title>
<g id="a_edge16_Node000016_Node000017"><a xlink:title=" ">
<path fill="none" stroke="#63b8ff" d="M322.43,-325.48C309.65,-322.82 296.52,-320.09 284.18,-317.52"/>
<polygon fill="#63b8ff" stroke="#63b8ff" points="322.08,-328.98 332.58,-327.59 323.5,-322.13 322.08,-328.98"/>
</a>
</g>
</g>
<!-- Node18 -->
<g id="Node000018" class="node">
<title>Node18</title>
<g id="a_Node000018"><a xlink:href="../../d5/d32/classfl_1_1_line_simplifier_exact_a3a4114a5aebc06310711d2fcc2643d67.html#a3a4114a5aebc06310711d2fcc2643d67" target="_top" xlink:title=" ">
<polygon fill="white" stroke="#666666" points="122,-320 0,-320 0,-290 122,-290 122,-320"/>
<text text-anchor="start" x="8" y="-308" font-family="Helvetica,sans-Serif" font-size="10.00">fl::LineSimplifierExact</text>
<text text-anchor="middle" x="61" y="-297" font-family="Helvetica,sans-Serif" font-size="10.00">::simplifyInplace</text>
</a>
</g>
</g>
<!-- Node17&#45;&gt;Node18 -->
<g id="edge17_Node000017_Node000018" class="edge">
<title>Node17&#45;&gt;Node18</title>
<g id="a_edge17_Node000017_Node000018"><a xlink:title=" ">
<path fill="none" stroke="#63b8ff" d="M151.76,-305C141.87,-305 131.78,-305 122.1,-305"/>
<polygon fill="#63b8ff" stroke="#63b8ff" points="151.97,-308.5 161.97,-305 151.97,-301.5 151.97,-308.5"/>
</a>
</g>
</g>
<!-- Node19&#45;&gt;Node15 -->
<g id="edge19_Node000019_Node000015" class="edge">
<title>Node19&#45;&gt;Node15</title>
<g id="a_edge19_Node000019_Node000015"><a xlink:title=" ">
<path fill="none" stroke="#63b8ff" d="M352.58,-489.07C332.95,-493.8 309.49,-498.66 288,-501 230.56,-507.25 215.34,-508.06 158,-501 130.38,-497.6 99.27,-488.89 80.15,-482.96"/>
<polygon fill="#63b8ff" stroke="#63b8ff" points="353.6,-492.42 362.47,-486.61 351.92,-485.63 353.6,-492.42"/>
</a>
</g>
</g>
<!-- Node20 -->
<g id="Node000020" class="node">
<title>Node20</title>
<g id="a_Node000020"><a xlink:href="../../d3/d40/classfl_1_1_audio_reactive_a2fb8e16dd8530e5872d6f457683fe697.html#a2fb8e16dd8530e5872d6f457683fe697" target="_top" xlink:title=" ">
<polygon fill="white" stroke="#666666" points="275.5,-492 170.5,-492 170.5,-462 275.5,-462 275.5,-492"/>
<text text-anchor="start" x="178.5" y="-480" font-family="Helvetica,sans-Serif" font-size="10.00">fl::AudioReactive::</text>
<text text-anchor="middle" x="223" y="-469" font-family="Helvetica,sans-Serif" font-size="10.00">processFFT</text>
</a>
</g>
</g>
<!-- Node19&#45;&gt;Node20 -->
<g id="edge20_Node000019_Node000020" class="edge">
<title>Node19&#45;&gt;Node20</title>
<g id="a_edge20_Node000019_Node000020"><a xlink:title=" ">
<path fill="none" stroke="#63b8ff" d="M332.5,-477C313.76,-477 293.55,-477 275.71,-477"/>
<polygon fill="#63b8ff" stroke="#63b8ff" points="332.74,-480.5 342.74,-477 332.74,-473.5 332.74,-480.5"/>
</a>
</g>
</g>
<!-- Node21 -->
<g id="Node000021" class="node">
<title>Node21</title>
<g id="a_Node000021"><a xlink:href="../../d3/d40/classfl_1_1_audio_reactive_af5d11059f30ab27a6ad49570e3cd9fb3.html#af5d11059f30ab27a6ad49570e3cd9fb3" target="_top" xlink:title=" ">
<polygon fill="white" stroke="#666666" points="113.5,-409 8.5,-409 8.5,-379 113.5,-379 113.5,-409"/>
<text text-anchor="start" x="16.5" y="-397" font-family="Helvetica,sans-Serif" font-size="10.00">fl::AudioReactive::</text>
<text text-anchor="middle" x="61" y="-386" font-family="Helvetica,sans-Serif" font-size="10.00">processSample</text>
</a>
</g>
</g>
<!-- Node20&#45;&gt;Node21 -->
<g id="edge21_Node000020_Node000021" class="edge">
<title>Node20&#45;&gt;Node21</title>
<g id="a_edge21_Node000020_Node000021"><a xlink:title=" ">
<path fill="none" stroke="#63b8ff" d="M184.15,-457.36C155.64,-442.57 117.13,-422.6 91.03,-409.06"/>
<polygon fill="#63b8ff" stroke="#63b8ff" points="182.54,-460.47 193.03,-461.97 185.76,-454.26 182.54,-460.47"/>
</a>
</g>
</g>
<!-- Node25&#45;&gt;Node15 -->
<g id="edge28_Node000025_Node000015" class="edge">
<title>Node25&#45;&gt;Node15</title>
<g id="a_edge28_Node000025_Node000015"><a xlink:title=" ">
<path fill="none" stroke="#63b8ff" d="M370.42,-424.43C326.13,-428.71 234.53,-438.52 158,-453 130.65,-458.17 99.47,-466.41 80.26,-471.76"/>
<polygon fill="#63b8ff" stroke="#63b8ff" points="370.75,-427.91 380.38,-423.49 370.09,-420.95 370.75,-427.91"/>
</a>
</g>
</g>
<!-- Node25&#45;&gt;Node25 -->
<g id="edge29_Node000025_Node000025" class="edge">
<title>Node25&#45;&gt;Node25</title>
<g id="a_edge29_Node000025_Node000025"><a xlink:title=" ">
<path fill="none" stroke="#63b8ff" d="M424,-434.71C429.81,-442.32 421.15,-449.5 398,-449.5 368.37,-449.5 362.47,-437.74 380.29,-428.35"/>
<polygon fill="#63b8ff" stroke="#63b8ff" points="425.77,-431.66 415.71,-428.35 421.52,-437.21 425.77,-431.66"/>
</a>
</g>
</g>
<!-- Node26 -->
<g id="Node000026" class="node">
<title>Node26</title>
<g id="a_Node000026"><a xlink:href="../../da/dc7/advanced_8h_a3cd847c9f0a4c2d5196727427f9900fe.html#a3cd847c9f0a4c2d5196727427f9900fe" target="_top" xlink:title=" ">
<polygon fill="white" stroke="#666666" points="264.5,-405.5 181.5,-405.5 181.5,-386.5 264.5,-386.5 264.5,-405.5"/>
<text text-anchor="middle" x="223" y="-393.5" font-family="Helvetica,sans-Serif" font-size="10.00">drawVUMeter</text>
</a>
</g>
</g>
<!-- Node25&#45;&gt;Node26 -->
<g id="edge26_Node000025_Node000026" class="edge">
<title>Node25&#45;&gt;Node26</title>
<g id="a_edge26_Node000025_Node000026"><a xlink:title=" ">
<path fill="none" stroke="#63b8ff" d="M370.47,-418.01C342.23,-413.77 297.21,-407 264.52,-402.09"/>
<polygon fill="#63b8ff" stroke="#63b8ff" points="370,-421.48 380.41,-419.51 371.04,-414.56 370,-421.48"/>
</a>
</g>
</g>
<!-- Node27 -->
<g id="Node000027" class="node">
<title>Node27</title>
<g id="a_Node000027"><a xlink:href="../../d3/d40/classfl_1_1_audio_reactive_a7284a7527968daabb94441f3ce61a191.html#a7284a7527968daabb94441f3ce61a191" target="_top" xlink:title=" ">
<polygon fill="white" stroke="#666666" points="288,-368 158,-368 158,-338 288,-338 288,-368"/>
<text text-anchor="start" x="166" y="-356" font-family="Helvetica,sans-Serif" font-size="10.00">fl::AudioReactive::</text>
<text text-anchor="middle" x="223" y="-345" font-family="Helvetica,sans-Serif" font-size="10.00">updateVolumeAndPeak</text>
</a>
</g>
</g>
<!-- Node25&#45;&gt;Node27 -->
<g id="edge30_Node000025_Node000027" class="edge">
<title>Node25&#45;&gt;Node27</title>
<g id="a_edge30_Node000025_Node000027"><a xlink:title=" ">
<path fill="none" stroke="#63b8ff" d="M370.44,-414.59C356.39,-410.35 339,-404.56 324,-398 307.23,-390.66 304.56,-385.79 288,-378 280.66,-374.55 272.7,-371.16 264.98,-368.06"/>
<polygon fill="#63b8ff" stroke="#63b8ff" points="369.85,-418.07 380.43,-417.53 371.82,-411.35 369.85,-418.07"/>
</a>
</g>
</g>
<!-- Node26&#45;&gt;Node15 -->
<g id="edge27_Node000026_Node000015" class="edge">
<title>Node26&#45;&gt;Node15</title>
<g id="a_edge27_Node000026_Node000015"><a xlink:title=" ">
<path fill="none" stroke="#63b8ff" d="M183.73,-409.09C175.14,-412.37 166.16,-416.08 158,-420 127.77,-434.5 94.55,-455.44 76.2,-467.48"/>
<polygon fill="#63b8ff" stroke="#63b8ff" points="185.04,-412.34 193.19,-405.57 182.6,-405.77 185.04,-412.34"/>
</a>
</g>
</g>
<!-- Node27&#45;&gt;Node21 -->
<g id="edge31_Node000027_Node000021" class="edge">
<title>Node27&#45;&gt;Node21</title>
<g id="a_edge31_Node000027_Node000021"><a xlink:title=" ">
<path fill="none" stroke="#63b8ff" d="M153.64,-370.52C140.2,-373.96 126.31,-377.52 113.53,-380.8"/>
<polygon fill="#63b8ff" stroke="#63b8ff" points="154.51,-373.91 163.33,-368.03 152.77,-367.13 154.51,-373.91"/>
</a>
</g>
</g>
<!-- Node29&#45;&gt;Node17 -->
<g id="edge34_Node000029_Node000017" class="edge">
<title>Node29&#45;&gt;Node17</title>
<g id="a_edge34_Node000029_Node000017"><a xlink:title=" ">
<path fill="none" stroke="#63b8ff" d="M326.82,-297.87C312.69,-298.85 297.96,-299.87 284.21,-300.82"/>
<polygon fill="#63b8ff" stroke="#63b8ff" points="327.24,-301.35 336.98,-297.16 326.76,-294.36 327.24,-301.35"/>
</a>
</g>
</g>
<!-- Node31 -->
<g id="Node000031" class="node">
<title>Node31</title>
<g id="a_Node000031"><a xlink:href="../../dc/d4a/classfl_1_1_line_simplifier_a1e11a20d5458f02bdcba9d036c78ef9b.html#a1e11a20d5458f02bdcba9d036c78ef9b" target="_top" xlink:title=" ">
<polygon fill="white" stroke="#666666" points="270.5,-78 175.5,-78 175.5,-48 270.5,-48 270.5,-78"/>
<text text-anchor="start" x="183.5" y="-66" font-family="Helvetica,sans-Serif" font-size="10.00">fl::LineSimplifier</text>
<text text-anchor="middle" x="223" y="-55" font-family="Helvetica,sans-Serif" font-size="10.00">::simplifyT</text>
</a>
</g>
</g>
<!-- Node30&#45;&gt;Node31 -->
<g id="edge37_Node000030_Node000031" class="edge">
<title>Node30&#45;&gt;Node31</title>
<g id="a_edge37_Node000030_Node000031"><a xlink:title=" ">
<path fill="none" stroke="#63b8ff" d="M338.14,-63C316.17,-63 291.54,-63 270.8,-63"/>
<polygon fill="#63b8ff" stroke="#63b8ff" points="338.35,-66.5 348.35,-63 338.35,-59.5 338.35,-66.5"/>
</a>
</g>
</g>
<!-- Node32 -->
<g id="Node000032" class="node">
<title>Node32</title>
<g id="a_Node000032"><a xlink:href="../../dc/d4a/classfl_1_1_line_simplifier_a0c45ff38479fd1cc7f64fbb3738ff47d.html#a0c45ff38479fd1cc7f64fbb3738ff47d" target="_top" xlink:title=" ">
<polygon fill="white" stroke="#666666" points="108.5,-126 13.5,-126 13.5,-96 108.5,-96 108.5,-126"/>
<text text-anchor="start" x="21.5" y="-114" font-family="Helvetica,sans-Serif" font-size="10.00">fl::LineSimplifier</text>
<text text-anchor="middle" x="61" y="-103" font-family="Helvetica,sans-Serif" font-size="10.00">::simplify</text>
</a>
</g>
</g>
<!-- Node31&#45;&gt;Node32 -->
<g id="edge38_Node000031_Node000032" class="edge">
<title>Node31&#45;&gt;Node32</title>
<g id="a_edge38_Node000031_Node000032"><a xlink:title=" ">
<path fill="none" stroke="#63b8ff" d="M165.49,-79.95C146.93,-85.52 126.52,-91.64 108.77,-96.97"/>
<polygon fill="#63b8ff" stroke="#63b8ff" points="166.72,-83.24 175.29,-77.01 164.71,-76.53 166.72,-83.24"/>
</a>
</g>
</g>
<!-- Node33 -->
<g id="Node000033" class="node">
<title>Node33</title>
<g id="a_Node000033"><a xlink:href="../../dc/d4a/classfl_1_1_line_simplifier_a49c6fbe0a6bb80a625e56b1e67380040.html#a49c6fbe0a6bb80a625e56b1e67380040" target="_top" xlink:title=" ">
<polygon fill="white" stroke="#666666" points="108.5,-78 13.5,-78 13.5,-48 108.5,-48 108.5,-78"/>
<text text-anchor="start" x="21.5" y="-66" font-family="Helvetica,sans-Serif" font-size="10.00">fl::LineSimplifier</text>
<text text-anchor="middle" x="61" y="-55" font-family="Helvetica,sans-Serif" font-size="10.00">::simplify</text>
</a>
</g>
</g>
<!-- Node31&#45;&gt;Node33 -->
<g id="edge39_Node000031_Node000033" class="edge">
<title>Node31&#45;&gt;Node33</title>
<g id="a_edge39_Node000031_Node000033"><a xlink:title=" ">
<path fill="none" stroke="#63b8ff" d="M165.23,-63C146.74,-63 126.44,-63 108.77,-63"/>
<polygon fill="#63b8ff" stroke="#63b8ff" points="165.29,-66.5 175.29,-63 165.29,-59.5 165.29,-66.5"/>
</a>
</g>
</g>
<!-- Node34 -->
<g id="Node000034" class="node">
<title>Node34</title>
<g id="a_Node000034"><a xlink:href="../../dc/d4a/classfl_1_1_line_simplifier_a5ede8373d86a97315503c19f738c4c74.html#a5ede8373d86a97315503c19f738c4c74" target="_top" xlink:title=" ">
<polygon fill="#fff0f0" stroke="red" points="112.5,-30 9.5,-30 9.5,0 112.5,0 112.5,-30"/>
<text text-anchor="start" x="17.5" y="-18" font-family="Helvetica,sans-Serif" font-size="10.00">fl::LineSimplifier</text>
<text text-anchor="middle" x="61" y="-7" font-family="Helvetica,sans-Serif" font-size="10.00">::simplifyInplaceT</text>
</a>
</g>
</g>
<!-- Node31&#45;&gt;Node34 -->
<g id="edge40_Node000031_Node000034" class="edge">
<title>Node31&#45;&gt;Node34</title>
<g id="a_edge40_Node000031_Node000034"><a xlink:title=" ">
<path fill="none" stroke="#63b8ff" d="M165.29,-45.99C147.94,-40.78 128.99,-35.1 112.12,-30.04"/>
<polygon fill="#63b8ff" stroke="#63b8ff" points="164.71,-49.47 175.29,-48.99 166.72,-42.76 164.71,-49.47"/>
</a>
</g>
</g>
</g>
</svg>
