<?xml version="1.0" encoding="UTF-8" standalone="no"?>
<!DOCTYPE svg PUBLIC "-//W3C//DTD SVG 1.1//EN"
 "http://www.w3.org/Graphics/SVG/1.1/DTD/svg11.dtd">
<!-- Generated by graphviz version 2.43.0 (0)
 -->
<!-- Title: fl::AudioReactive::updateVolumeAndPeak Pages: 1 -->
<!--zoomable 158 -->

<svg id="main" version="1.1" xmlns="http://www.w3.org/2000/svg" xmlns:xlink="http://www.w3.org/1999/xlink" xml:space="preserve" onload="init(evt)">

<style type="text/css"><![CDATA[
.node, .edge {opacity: 0.7;}
.node.selected, .edge.selected {opacity: 1;}
.edge:hover path { stroke: red; }
.edge:hover polygon { stroke: red; fill: red; }
]]></style>

<defs>
  <circle id="rim" cx="0" cy="0" r="7"/>
  <circle id="rim2" cx="0" cy="0" r="3.5"/>
  <g id="zoomPlus">
    <use xlink:href="#rim" fill="#404040"><set attributeName="fill" to="#808080" begin="zoomplus.mouseover" end="zoomplus.mouseout"/></use>
    <path d="M-4,0h8M0,-4v8" fill="none" stroke="white" stroke-width="1.5" pointer-events="none"/>
  </g>
  <g id="zoomMin">
    <use xlink:href="#rim" fill="#404040"><set attributeName="fill" to="#808080" begin="zoomminus.mouseover" end="zoomminus.mouseout"/></use>
    <path d="M-4,0h8" fill="none" stroke="white" stroke-width="1.5" pointer-events="none"/>
  </g>
  <g id="arrowUp" transform="translate(30 24)">
    <use xlink:href="#rim"/>
    <path pointer-events="none" fill="none" stroke="white" stroke-width="1.5" d="M0,-3.0v7 M-2.5,-0.5L0,-3.0L2.5,-0.5"/>
  </g>
  <g id="arrowRight" transform="rotate(90) translate(36 -43)">
    <use xlink:href="#rim"/>
    <path pointer-events="none" fill="none" stroke="white" stroke-width="1.5" d="M0,-3.0v7 M-2.5,-0.5L0,-3.0L2.5,-0.5"/>
  </g>
  <g id="arrowDown" transform="rotate(180) translate(-30 -48)">
    <use xlink:href="#rim"/>
    <path pointer-events="none" fill="none" stroke="white" stroke-width="1.5" d="M0,-3.0v7 M-2.5,-0.5L0,-3.0L2.5,-0.5"/>
  </g>
  <g id="arrowLeft" transform="rotate(270) translate(-36 17)">
    <use xlink:href="#rim"/>
    <path pointer-events="none" fill="none" stroke="white" stroke-width="1.5" d="M0,-3.0v7 M-2.5,-0.5L0,-3.0L2.5,-0.5"/>
  </g>
  <g id="resetDef">
    <use xlink:href="#rim2" fill="#404040"><set attributeName="fill" to="#808080" begin="reset.mouseover" end="reset.mouseout"/></use>
  </g>
</defs>
<script type="application/ecmascript">
var viewWidth = 615;
var viewHeight = 158;
var sectionId = 'dynsection-0';
</script>
<script type="application/ecmascript" xlink:href="../../svg.min.js"/>
<svg id="graph" class="graph">
<g id="viewport">
<title>fl::AudioReactive::updateVolumeAndPeak</title>
<!-- Node1 -->
<g id="Node000001" class="node">
<title>Node1</title>
<g id="a_Node000001"><a xlink:title=" ">
<polygon fill="#999999" stroke="#666666" points="130,-81.5 0,-81.5 0,-51.5 130,-51.5 130,-81.5"/>
<text text-anchor="start" x="8" y="-69.5" font-family="Helvetica,sans-Serif" font-size="10.00">fl::AudioReactive::</text>
<text text-anchor="middle" x="65" y="-58.5" font-family="Helvetica,sans-Serif" font-size="10.00">updateVolumeAndPeak</text>
</a>
</g>
</g>
<!-- Node2 -->
<g id="Node000002" class="node">
<title>Node2</title>
<g id="a_Node000002"><a xlink:href="../../d0/de1/classfl_1_1_audio_sample_a1e832f8e8093a7464089e7b41bebe089.html#a1e832f8e8093a7464089e7b41bebe089" target="_top" xlink:title=" ">
<polygon fill="white" stroke="#666666" points="440,-132 320,-132 320,-113 440,-113 440,-132"/>
<text text-anchor="middle" x="380" y="-120" font-family="Helvetica,sans-Serif" font-size="10.00">fl::AudioSample::pcm</text>
</a>
</g>
</g>
<!-- Node1&#45;&gt;Node2 -->
<g id="edge1_Node000001_Node000002" class="edge">
<title>Node1&#45;&gt;Node2</title>
<g id="a_edge1_Node000001_Node000002"><a xlink:title=" ">
<path fill="none" stroke="#63b8ff" d="M100.02,-81.65C119.06,-89.47 143.43,-98.41 166,-103.5 213.18,-114.13 267.49,-118.86 309.46,-120.95"/>
<polygon fill="#63b8ff" stroke="#63b8ff" points="309.43,-124.45 319.58,-121.41 309.75,-117.46 309.43,-124.45"/>
</a>
</g>
</g>
<!-- Node5 -->
<g id="Node000005" class="node">
<title>Node5</title>
<g id="a_Node000005"><a xlink:href="../../d0/de1/classfl_1_1_audio_sample_aad106b78fa799d9dbf91f0be71ced341.html#aad106b78fa799d9dbf91f0be71ced341" target="_top" xlink:title=" ">
<polygon fill="white" stroke="#666666" points="284,-76 166,-76 166,-57 284,-57 284,-76"/>
<text text-anchor="middle" x="225" y="-64" font-family="Helvetica,sans-Serif" font-size="10.00">fl::AudioSample::rms</text>
</a>
</g>
</g>
<!-- Node1&#45;&gt;Node5 -->
<g id="edge5_Node000001_Node000005" class="edge">
<title>Node1&#45;&gt;Node5</title>
<g id="a_edge5_Node000001_Node000005"><a xlink:title=" ">
<path fill="none" stroke="#63b8ff" d="M130.26,-66.5C138.65,-66.5 147.26,-66.5 155.7,-66.5"/>
<polygon fill="#63b8ff" stroke="#63b8ff" points="155.9,-70 165.9,-66.5 155.9,-63 155.9,-70"/>
</a>
</g>
</g>
<!-- Node7 -->
<g id="Node000007" class="node">
<title>Node7</title>
<g id="a_Node000007"><a xlink:href="../../db/d49/_audio_2simple_2simple_8h_a366541da4b022a2bc47a7dc02a1c1936.html#a366541da4b022a2bc47a7dc02a1c1936" target="_top" xlink:title=" ">
<polygon fill="white" stroke="#666666" points="242.5,-20 207.5,-20 207.5,-1 242.5,-1 242.5,-20"/>
<text text-anchor="middle" x="225" y="-8" font-family="Helvetica,sans-Serif" font-size="10.00">rms</text>
</a>
</g>
</g>
<!-- Node1&#45;&gt;Node7 -->
<g id="edge11_Node000001_Node000007" class="edge">
<title>Node1&#45;&gt;Node7</title>
<g id="a_edge11_Node000001_Node000007"><a xlink:title=" ">
<path fill="none" stroke="#63b8ff" d="M108.34,-51.49C136.82,-41.4 173.45,-28.42 197.78,-19.79"/>
<polygon fill="#63b8ff" stroke="#63b8ff" points="199.14,-23.03 207.39,-16.39 196.8,-16.43 199.14,-23.03"/>
</a>
</g>
</g>
<!-- Node3 -->
<g id="Node000003" class="node">
<title>Node3</title>
<g id="a_Node000003"><a xlink:href="../../d0/de1/classfl_1_1_audio_sample_afe988920e20628a1cac954ba48885e4a.html#afe988920e20628a1cac954ba48885e4a" target="_top" xlink:title=" ">
<polygon fill="white" stroke="#666666" points="607,-132 476,-132 476,-113 607,-113 607,-132"/>
<text text-anchor="middle" x="541.5" y="-120" font-family="Helvetica,sans-Serif" font-size="10.00">fl::AudioSample::empty</text>
</a>
</g>
</g>
<!-- Node2&#45;&gt;Node3 -->
<g id="edge2_Node000002_Node000003" class="edge">
<title>Node2&#45;&gt;Node3</title>
<g id="a_edge2_Node000002_Node000003"><a xlink:title=" ">
<path fill="none" stroke="#63b8ff" d="M440.39,-122.5C448.73,-122.5 457.39,-122.5 465.97,-122.5"/>
<polygon fill="#63b8ff" stroke="#63b8ff" points="465.97,-126 475.97,-122.5 465.97,-119 465.97,-126"/>
</a>
</g>
</g>
<!-- Node4 -->
<g id="Node000004" class="node">
<title>Node4</title>
<g id="a_Node000004"><a xlink:href="../../d0/de1/classfl_1_1_audio_sample_a787afa32bf4171d89070085579b9b1e5.html#a787afa32bf4171d89070085579b9b1e5" target="_top" xlink:title=" ">
<polygon fill="white" stroke="#666666" points="607,-94 476,-94 476,-75 607,-75 607,-94"/>
<text text-anchor="middle" x="541.5" y="-82" font-family="Helvetica,sans-Serif" font-size="10.00">fl::AudioSample::isValid</text>
</a>
</g>
</g>
<!-- Node2&#45;&gt;Node4 -->
<g id="edge4_Node000002_Node000004" class="edge">
<title>Node2&#45;&gt;Node4</title>
<g id="a_edge4_Node000002_Node000004"><a xlink:title=" ">
<path fill="none" stroke="#63b8ff" d="M421.25,-112.91C442.3,-107.9 468.26,-101.71 490.57,-96.39"/>
<polygon fill="#63b8ff" stroke="#63b8ff" points="491.62,-99.74 500.54,-94.02 490,-92.93 491.62,-99.74"/>
</a>
</g>
</g>
<!-- Node3&#45;&gt;Node3 -->
<g id="edge3_Node000003_Node000003" class="edge">
<title>Node3&#45;&gt;Node3</title>
<g id="a_edge3_Node000003_Node000003"><a xlink:title=" ">
<path fill="none" stroke="#63b8ff" d="M516.84,-132.08C504.84,-140.73 513.06,-150 541.5,-150 560.16,-150 570.12,-146.01 571.37,-140.82"/>
<polygon fill="#63b8ff" stroke="#63b8ff" points="574.29,-138.88 566.16,-132.08 568.27,-142.47 574.29,-138.88"/>
</a>
</g>
</g>
<!-- Node5&#45;&gt;Node2 -->
<g id="edge7_Node000005_Node000002" class="edge">
<title>Node5&#45;&gt;Node2</title>
<g id="a_edge7_Node000005_Node000002"><a xlink:title=" ">
<path fill="none" stroke="#63b8ff" d="M252.3,-76.13C277.41,-85.32 315.44,-99.24 343.29,-109.43"/>
<polygon fill="#63b8ff" stroke="#63b8ff" points="342.45,-112.85 353.04,-113 344.85,-106.27 342.45,-112.85"/>
</a>
</g>
</g>
<!-- Node5&#45;&gt;Node4 -->
<g id="edge6_Node000005_Node000004" class="edge">
<title>Node5&#45;&gt;Node4</title>
<g id="a_edge6_Node000005_Node000004"><a xlink:title=" ">
<path fill="none" stroke="#63b8ff" d="M284.05,-69.82C335.18,-72.75 409.96,-77.03 465.58,-80.21"/>
<polygon fill="#63b8ff" stroke="#63b8ff" points="465.56,-83.72 475.74,-80.79 465.96,-76.73 465.56,-83.72"/>
</a>
</g>
</g>
<!-- Node5&#45;&gt;Node5 -->
<g id="edge8_Node000005_Node000005" class="edge">
<title>Node5&#45;&gt;Node5</title>
<g id="a_edge8_Node000005_Node000005"><a xlink:title=" ">
<path fill="none" stroke="#63b8ff" d="M201.26,-76.08C189.72,-84.73 197.63,-94 225,-94 242.96,-94 252.54,-90.01 253.75,-84.82"/>
<polygon fill="#63b8ff" stroke="#63b8ff" points="256.75,-83.02 248.74,-76.08 250.67,-86.5 256.75,-83.02"/>
</a>
</g>
</g>
<!-- Node6 -->
<g id="Node000006" class="node">
<title>Node6</title>
<g id="a_Node000006"><a xlink:href="../../d0/de1/classfl_1_1_audio_sample_a487aa2e70e20c9531a2603e26ea15d62.html#a487aa2e70e20c9531a2603e26ea15d62" target="_top" xlink:title=" ">
<polygon fill="white" stroke="#666666" points="439.5,-56 320.5,-56 320.5,-37 439.5,-37 439.5,-56"/>
<text text-anchor="middle" x="380" y="-44" font-family="Helvetica,sans-Serif" font-size="10.00">fl::AudioSample::size</text>
</a>
</g>
</g>
<!-- Node5&#45;&gt;Node6 -->
<g id="edge9_Node000005_Node000006" class="edge">
<title>Node5&#45;&gt;Node6</title>
<g id="a_edge9_Node000005_Node000006"><a xlink:title=" ">
<path fill="none" stroke="#63b8ff" d="M284.28,-58.88C292.78,-57.77 301.59,-56.62 310.27,-55.48"/>
<polygon fill="#63b8ff" stroke="#63b8ff" points="310.91,-58.93 320.38,-54.16 310.01,-51.99 310.91,-58.93"/>
</a>
</g>
</g>
<!-- Node6&#45;&gt;Node4 -->
<g id="edge10_Node000006_Node000004" class="edge">
<title>Node6&#45;&gt;Node4</title>
<g id="a_edge10_Node000006_Node000004"><a xlink:title=" ">
<path fill="none" stroke="#63b8ff" d="M421.25,-56.09C442.3,-61.1 468.26,-67.29 490.57,-72.61"/>
<polygon fill="#63b8ff" stroke="#63b8ff" points="490,-76.07 500.54,-74.98 491.62,-69.26 490,-76.07"/>
</a>
</g>
</g>
<!-- Node7&#45;&gt;Node7 -->
<g id="edge12_Node000007_Node000007" class="edge">
<title>Node7&#45;&gt;Node7</title>
<g id="a_edge12_Node000007_Node000007"><a xlink:title=" ">
<path fill="none" stroke="#63b8ff" d="M207.4,-16.44C187.85,-25.9 193.72,-38 225,-38 249.93,-38 258.72,-30.31 251.36,-22.41"/>
<polygon fill="#63b8ff" stroke="#63b8ff" points="252.83,-19.17 242.6,-16.44 248.89,-24.96 252.83,-19.17"/>
</a>
</g>
</g>
<!-- Node8 -->
<g id="Node000008" class="node">
<title>Node8</title>
<g id="a_Node000008"><a xlink:href="../../d8/de4/classfl_1_1_slice_abe7b0c2539b61d18d30ee571680d5a91.html#abe7b0c2539b61d18d30ee571680d5a91" target="_top" xlink:title=" ">
<polygon fill="white" stroke="#666666" points="418.5,-19 341.5,-19 341.5,0 418.5,0 418.5,-19"/>
<text text-anchor="middle" x="380" y="-7" font-family="Helvetica,sans-Serif" font-size="10.00">fl::Slice::size</text>
</a>
</g>
</g>
<!-- Node7&#45;&gt;Node8 -->
<g id="edge13_Node000007_Node000008" class="edge">
<title>Node7&#45;&gt;Node8</title>
<g id="a_edge13_Node000007_Node000008"><a xlink:title=" ">
<path fill="none" stroke="#63b8ff" d="M242.66,-10.39C263.73,-10.25 300.87,-10.01 331.08,-9.81"/>
<polygon fill="#63b8ff" stroke="#63b8ff" points="331.46,-13.31 341.44,-9.75 331.41,-6.31 331.46,-13.31"/>
</a>
</g>
</g>
</g>
</svg>

<g id="navigator" transform="translate(0 0)" fill="#404254">
  <rect fill="#f2f5e9" fill-opacity="0.5" stroke="#606060" stroke-width=".5" x="0" y="0" width="60" height="60"/>
  <use id="zoomplus" xlink:href="#zoomPlus" x="17" y="9" onmousedown="handleZoom(evt,'in')"/>
  <use id="zoomminus" xlink:href="#zoomMin" x="42" y="9" onmousedown="handleZoom(evt,'out')"/>
  <use id="reset" xlink:href="#resetDef" x="30" y="36" onmousedown="handleReset()"/>
   <use id="arrowup" xlink:href="#arrowUp" x="0" y="0" onmousedown="handlePan(0,-1)"/>
  <use id="arrowright" xlink:href="#arrowRight" x="0" y="0" onmousedown="handlePan(1,0)"/>
  <use id="arrowdown" xlink:href="#arrowDown" x="0" y="0" onmousedown="handlePan(0,1)"/>
  <use id="arrowleft" xlink:href="#arrowLeft" x="0" y="0" onmousedown="handlePan(-1,0)"/>
</g>
<svg viewBox="0 0 15 15" width="100%" height="30px" preserveAspectRatio="xMaxYMin meet">
 <g id="arrow_out" transform="scale(0.3 0.3)">
  <a xlink:href="classfl_1_1_audio_reactive_a7284a7527968daabb94441f3ce61a191_a7284a7527968daabb94441f3ce61a191_cgraph_org.svg" target="_base">
   <rect id="button" ry="5" rx="5" y="6" x="6" height="38" width="38"
        fill="#f2f5e9" fill-opacity="0.5" stroke="#606060" stroke-width="1.0"/>
   <path id="arrow"
     d="M 11.500037,31.436501 C 11.940474,20.09759 22.043105,11.32322 32.158766,21.979434 L 37.068811,17.246167 C 37.068811,17.246167 37.088388,32 37.088388,32 L 22.160133,31.978069 C 22.160133,31.978069 26.997745,27.140456 26.997745,27.140456 C 18.528582,18.264221 13.291696,25.230495 11.500037,31.436501 z"
     style="fill:#404040;"/>
  </a>
 </g>
</svg>

<style type='text/css'>
<![CDATA[
[data-mouse-over-selected='false'] { opacity: 0.7; }
[data-mouse-over-selected='true']  { opacity: 1.0; }
]]>
</style>
<script type="application/ecmascript"><![CDATA[
document.addEventListener('DOMContentLoaded', (event) => {
  highlightEdges();
  highlightAdjacentNodes();
});
]]></script>
</svg>
