<?xml version="1.0" encoding="UTF-8" standalone="no"?>
<!DOCTYPE svg PUBLIC "-//W3C//DTD SVG 1.1//EN"
 "http://www.w3.org/Graphics/SVG/1.1/DTD/svg11.dtd">
<!-- Generated by graphviz version 2.43.0 (0)
 -->
<!-- Title: animartrix_ring::SoundOrchestrator::pickAnimationFor Pages: 1 -->
<svg width="644pt" height="38pt"
 viewBox="0.00 0.00 644.00 38.00" xmlns="http://www.w3.org/2000/svg" xmlns:xlink="http://www.w3.org/1999/xlink">
<g id="graph0" class="graph" transform="scale(1 1) rotate(0) translate(4 34)">
<title>animartrix_ring::SoundOrchestrator::pickAnimationFor</title>
<!-- Node1 -->
<g id="Node000001" class="node">
<title>Node1</title>
<g id="a_Node000001"><a xlink:title=" ">
<polygon fill="#999999" stroke="#666666" points="636,-30 448,-30 448,0 636,0 636,-30"/>
<text text-anchor="start" x="456" y="-18" font-family="Helvetica,sans-Serif" font-size="10.00">animartrix_ring::SoundOrchestrator</text>
<text text-anchor="middle" x="542" y="-7" font-family="Helvetica,sans-Serif" font-size="10.00">::pickAnimationFor</text>
</a>
</g>
</g>
<!-- Node2 -->
<g id="Node000002" class="node">
<title>Node2</title>
<g id="a_Node000002"><a xlink:href="../../d4/dc8/classanimartrix__ring_1_1_sound_orchestrator_a3fcf16f273e088d29927605e4625d512.html#a3fcf16f273e088d29927605e4625d512" target="_top" xlink:title=" ">
<polygon fill="white" stroke="#666666" points="412,-30 224,-30 224,0 412,0 412,-30"/>
<text text-anchor="start" x="232" y="-18" font-family="Helvetica,sans-Serif" font-size="10.00">animartrix_ring::SoundOrchestrator</text>
<text text-anchor="middle" x="318" y="-7" font-family="Helvetica,sans-Serif" font-size="10.00">::switchAnimationIfNeeded</text>
</a>
</g>
</g>
<!-- Node1&#45;&gt;Node2 -->
<g id="edge1_Node000001_Node000002" class="edge">
<title>Node1&#45;&gt;Node2</title>
<g id="a_edge1_Node000001_Node000002"><a xlink:title=" ">
<path fill="none" stroke="#63b8ff" d="M437.57,-15C429.14,-15 420.65,-15 412.3,-15"/>
<polygon fill="#63b8ff" stroke="#63b8ff" points="437.82,-18.5 447.82,-15 437.82,-11.5 437.82,-18.5"/>
</a>
</g>
</g>
<!-- Node3 -->
<g id="Node000003" class="node">
<title>Node3</title>
<g id="a_Node000003"><a xlink:href="../../d4/dc8/classanimartrix__ring_1_1_sound_orchestrator_a07b192a0628529c27d585a8cb23af0aa.html#a07b192a0628529c27d585a8cb23af0aa" target="_top" xlink:title="Per&#45;frame tick.">
<polygon fill="white" stroke="#666666" points="188,-30 0,-30 0,0 188,0 188,-30"/>
<text text-anchor="start" x="8" y="-18" font-family="Helvetica,sans-Serif" font-size="10.00">animartrix_ring::SoundOrchestrator</text>
<text text-anchor="middle" x="94" y="-7" font-family="Helvetica,sans-Serif" font-size="10.00">::tick</text>
</a>
</g>
</g>
<!-- Node2&#45;&gt;Node3 -->
<g id="edge2_Node000002_Node000003" class="edge">
<title>Node2&#45;&gt;Node3</title>
<g id="a_edge2_Node000002_Node000003"><a xlink:title=" ">
<path fill="none" stroke="#63b8ff" d="M213.57,-15C205.14,-15 196.65,-15 188.3,-15"/>
<polygon fill="#63b8ff" stroke="#63b8ff" points="213.82,-18.5 223.82,-15 213.82,-11.5 213.82,-18.5"/>
</a>
</g>
</g>
</g>
</svg>
