<?xml version="1.0" encoding="UTF-8" standalone="no"?>
<!DOCTYPE svg PUBLIC "-//W3C//DTD SVG 1.1//EN"
 "http://www.w3.org/Graphics/SVG/1.1/DTD/svg11.dtd">
<!-- Generated by graphviz version 2.43.0 (0)
 -->
<!-- Title: CreateXYPaths Pages: 1 -->
<svg width="457pt" height="352pt"
 viewBox="0.00 0.00 457.00 352.02" xmlns="http://www.w3.org/2000/svg" xmlns:xlink="http://www.w3.org/1999/xlink">

<svg id="main" version="1.1" xmlns="http://www.w3.org/2000/svg" xmlns:xlink="http://www.w3.org/1999/xlink" xml:space="preserve">

<style type="text/css"><![CDATA[
.node, .edge {opacity: 0.7;}
.node.selected, .edge.selected {opacity: 1;}
.edge:hover path { stroke: red; }
.edge:hover polygon { stroke: red; fill: red; }
]]></style>
<script type="application/ecmascript" xlink:href="../../svg.min.js"/>
<svg id="graph" class="graph">
<g id="graph0" class="graph" transform="scale(1 1) rotate(0) translate(4 348.02)">
<title>CreateXYPaths</title>
<!-- Node1 -->
<g id="Node000001" class="node">
<title>Node1</title>
<g id="a_Node000001"><a xlink:title=" ">
<polygon fill="#999999" stroke="#666666" points="88,-173 0,-173 0,-154 88,-154 88,-173"/>
<text text-anchor="middle" x="44" y="-161" font-family="Helvetica,sans-Serif" font-size="10.00">CreateXYPaths</text>
</a>
</g>
</g>
<!-- Node2 -->
<g id="Node000002" class="node">
<title>Node2</title>
<g id="a_Node000002"><a xlink:href="../../d7/d76/namespaceanonymous__namespace_02xypaths_8cpp_03_a08f9ec245144ed2202fd35be61c5af39.html#a08f9ec245144ed2202fd35be61c5af39" target="_top" xlink:title=" ">
<polygon fill="white" stroke="#666666" points="285.5,-301.5 134.5,-301.5 134.5,-271.5 285.5,-271.5 285.5,-301.5"/>
<text text-anchor="start" x="142.5" y="-289.5" font-family="Helvetica,sans-Serif" font-size="10.00">anonymous_namespace</text>
<text text-anchor="middle" x="210" y="-278.5" font-family="Helvetica,sans-Serif" font-size="10.00">{xypaths::cpp}::make_path</text>
</a>
</g>
</g>
<!-- Node1&#45;&gt;Node2 -->
<g id="edge1_Node000001_Node000002" class="edge">
<title>Node1&#45;&gt;Node2</title>
<g id="a_edge1_Node000001_Node000002"><a xlink:title=" ">
<path fill="none" stroke="#63b8ff" d="M49.9,-173.03C60.58,-192.83 87.91,-238.53 124,-262.5 126.4,-264.09 128.9,-265.58 131.47,-266.97"/>
<polygon fill="#63b8ff" stroke="#63b8ff" points="129.96,-270.12 140.49,-271.32 133.01,-263.82 129.96,-270.12"/>
</a>
</g>
</g>
<!-- Node5 -->
<g id="Node000005" class="node">
<title>Node5</title>
<g id="a_Node000005"><a xlink:href="../../d2/d24/classfl_1_1vector_ae9a8cea8d4b81d8f2f10a2b007ac2980.html#ae9a8cea8d4b81d8f2f10a2b007ac2980" target="_top" xlink:title=" ">
<polygon fill="white" stroke="#666666" points="449,-336 332,-336 332,-317 449,-317 449,-336"/>
<text text-anchor="middle" x="390.5" y="-324" font-family="Helvetica,sans-Serif" font-size="10.00">fl::vector::push_back</text>
</a>
</g>
</g>
<!-- Node1&#45;&gt;Node5 -->
<g id="edge19_Node000001_Node000005" class="edge">
<title>Node1&#45;&gt;Node5</title>
<g id="a_edge19_Node000001_Node000005"><a xlink:title=" ">
<path fill="none" stroke="#63b8ff" d="M46.85,-173.25C52.61,-200.54 72.99,-277.88 124,-310.5 187.67,-351.22 278.46,-346.41 335.65,-337.65"/>
<polygon fill="#63b8ff" stroke="#63b8ff" points="336.27,-341.09 345.58,-336.03 335.15,-334.18 336.27,-341.09"/>
</a>
</g>
</g>
<!-- Node6 -->
<g id="Node000006" class="node">
<title>Node6</title>
<g id="a_Node000006"><a xlink:href="../../d9/df4/classfl_1_1_x_y_path_a92541c602bba0e9e5a3fcf632343295a.html#a92541c602bba0e9e5a3fcf632343295a" target="_top" xlink:title=" ">
<polygon fill="white" stroke="#666666" points="287.5,-178.5 132.5,-178.5 132.5,-148.5 287.5,-148.5 287.5,-178.5"/>
<text text-anchor="start" x="140.5" y="-166.5" font-family="Helvetica,sans-Serif" font-size="10.00">fl::XYPath::NewArchimedean</text>
<text text-anchor="middle" x="210" y="-155.5" font-family="Helvetica,sans-Serif" font-size="10.00">SpiralPath</text>
</a>
</g>
</g>
<!-- Node1&#45;&gt;Node6 -->
<g id="edge5_Node000001_Node000006" class="edge">
<title>Node1&#45;&gt;Node6</title>
<g id="a_edge5_Node000001_Node000006"><a xlink:title=" ">
<path fill="none" stroke="#63b8ff" d="M88.09,-163.5C98.59,-163.5 110.19,-163.5 121.93,-163.5"/>
<polygon fill="#63b8ff" stroke="#63b8ff" points="122.26,-167 132.26,-163.5 122.26,-160 122.26,-167"/>
</a>
</g>
</g>
<!-- Node7 -->
<g id="Node000007" class="node">
<title>Node7</title>
<g id="a_Node000007"><a xlink:href="../../d9/df4/classfl_1_1_x_y_path_ac0b9c23ca7363c113515c87734b91dee.html#ac0b9c23ca7363c113515c87734b91dee" target="_top" xlink:title=" ">
<polygon fill="white" stroke="#666666" points="296,-130 124,-130 124,-111 296,-111 296,-130"/>
<text text-anchor="middle" x="210" y="-118" font-family="Helvetica,sans-Serif" font-size="10.00">fl::XYPath::NewCatmullRomPath</text>
</a>
</g>
</g>
<!-- Node1&#45;&gt;Node7 -->
<g id="edge7_Node000001_Node000007" class="edge">
<title>Node1&#45;&gt;Node7</title>
<g id="a_edge7_Node000001_Node000007"><a xlink:title=" ">
<path fill="none" stroke="#63b8ff" d="M74.49,-153.97C89.27,-149.33 107.5,-143.84 124,-139.5 133.54,-136.99 143.74,-134.52 153.64,-132.24"/>
<polygon fill="#63b8ff" stroke="#63b8ff" points="154.43,-135.65 163.41,-130.03 152.89,-128.83 154.43,-135.65"/>
</a>
</g>
</g>
<!-- Node8 -->
<g id="Node000008" class="node">
<title>Node8</title>
<g id="a_Node000008"><a xlink:href="../../d9/df4/classfl_1_1_x_y_path_af619ba30a3794a92e00cbaa3ba28a861.html#af619ba30a3794a92e00cbaa3ba28a861" target="_top" xlink:title=" ">
<polygon fill="white" stroke="#666666" points="279.5,-93 140.5,-93 140.5,-74 279.5,-74 279.5,-93"/>
<text text-anchor="middle" x="210" y="-81" font-family="Helvetica,sans-Serif" font-size="10.00">fl::XYPath::NewCirclePath</text>
</a>
</g>
</g>
<!-- Node1&#45;&gt;Node8 -->
<g id="edge9_Node000001_Node000008" class="edge">
<title>Node1&#45;&gt;Node8</title>
<g id="a_edge9_Node000001_Node000008"><a xlink:title=" ">
<path fill="none" stroke="#63b8ff" d="M54.24,-153.86C68.06,-140.04 95.57,-114.78 124,-101.5 128.3,-99.49 132.83,-97.7 137.46,-96.11"/>
<polygon fill="#63b8ff" stroke="#63b8ff" points="138.58,-99.43 147.08,-93.12 136.5,-92.75 138.58,-99.43"/>
</a>
</g>
</g>
<!-- Node9 -->
<g id="Node000009" class="node">
<title>Node9</title>
<g id="a_Node000009"><a xlink:href="../../d9/df4/classfl_1_1_x_y_path_a9ba7f979fa30302876a18fd24732c6a5.html#a9ba7f979fa30302876a18fd24732c6a5" target="_top" xlink:title=" ">
<polygon fill="white" stroke="#666666" points="293.5,-56 126.5,-56 126.5,-37 293.5,-37 293.5,-56"/>
<text text-anchor="middle" x="210" y="-44" font-family="Helvetica,sans-Serif" font-size="10.00">fl::XYPath::NewGielisCurvePath</text>
</a>
</g>
</g>
<!-- Node1&#45;&gt;Node9 -->
<g id="edge11_Node000001_Node000009" class="edge">
<title>Node1&#45;&gt;Node9</title>
<g id="a_edge11_Node000001_Node000009"><a xlink:title=" ">
<path fill="none" stroke="#63b8ff" d="M49.78,-153.77C60.23,-133.61 87.14,-87.25 124,-64.5 126.67,-62.85 129.47,-61.35 132.36,-59.98"/>
<polygon fill="#63b8ff" stroke="#63b8ff" points="133.94,-63.12 141.85,-56.07 131.27,-56.65 133.94,-63.12"/>
</a>
</g>
</g>
<!-- Node10 -->
<g id="Node000010" class="node">
<title>Node10</title>
<g id="a_Node000010"><a xlink:href="../../d9/df4/classfl_1_1_x_y_path_a3e74e254cf2fde750e51218d77d00bc0.html#a3e74e254cf2fde750e51218d77d00bc0" target="_top" xlink:title=" ">
<polygon fill="white" stroke="#666666" points="279,-19 141,-19 141,0 279,0 279,-19"/>
<text text-anchor="middle" x="210" y="-7" font-family="Helvetica,sans-Serif" font-size="10.00">fl::XYPath::NewHeartPath</text>
</a>
</g>
</g>
<!-- Node1&#45;&gt;Node10 -->
<g id="edge13_Node000001_Node000010" class="edge">
<title>Node1&#45;&gt;Node10</title>
<g id="a_edge13_Node000001_Node000010"><a xlink:title=" ">
<path fill="none" stroke="#63b8ff" d="M47.65,-153.74C55.05,-128.45 78.44,-60.49 124,-27.5 126.41,-25.76 128.94,-24.18 131.58,-22.75"/>
<polygon fill="#63b8ff" stroke="#63b8ff" points="133.28,-25.81 140.87,-18.42 130.33,-19.47 133.28,-25.81"/>
</a>
</g>
</g>
<!-- Node11 -->
<g id="Node000011" class="node">
<title>Node11</title>
<g id="a_Node000011"><a xlink:href="../../d9/df4/classfl_1_1_x_y_path_a3b52644996be1527178bac626f854635.html#a3b52644996be1527178bac626f854635" target="_top" xlink:title=" ">
<polygon fill="white" stroke="#666666" points="292.5,-253 127.5,-253 127.5,-234 292.5,-234 292.5,-253"/>
<text text-anchor="middle" x="210" y="-241" font-family="Helvetica,sans-Serif" font-size="10.00">fl::XYPath::NewPhyllotaxisPath</text>
</a>
</g>
</g>
<!-- Node1&#45;&gt;Node11 -->
<g id="edge15_Node000001_Node000011" class="edge">
<title>Node1&#45;&gt;Node11</title>
<g id="a_edge15_Node000001_Node000011"><a xlink:title=" ">
<path fill="none" stroke="#63b8ff" d="M54.76,-173.39C68.79,-187.02 96.08,-211.4 124,-224.5 129.26,-226.97 134.86,-229.12 140.57,-231.01"/>
<polygon fill="#63b8ff" stroke="#63b8ff" points="139.68,-234.39 150.26,-233.92 141.69,-227.69 139.68,-234.39"/>
</a>
</g>
</g>
<!-- Node12 -->
<g id="Node000012" class="node">
<title>Node12</title>
<g id="a_Node000012"><a xlink:href="../../d9/df4/classfl_1_1_x_y_path_ae39ac3a82652dff057440552cd77754f.html#ae39ac3a82652dff057440552cd77754f" target="_top" xlink:title=" ">
<polygon fill="white" stroke="#666666" points="277.5,-216 142.5,-216 142.5,-197 277.5,-197 277.5,-216"/>
<text text-anchor="middle" x="210" y="-204" font-family="Helvetica,sans-Serif" font-size="10.00">fl::XYPath::NewRosePath</text>
</a>
</g>
</g>
<!-- Node1&#45;&gt;Node12 -->
<g id="edge17_Node000001_Node000012" class="edge">
<title>Node1&#45;&gt;Node12</title>
<g id="a_edge17_Node000001_Node000012"><a xlink:title=" ">
<path fill="none" stroke="#63b8ff" d="M74.49,-173.03C89.27,-177.67 107.5,-183.16 124,-187.5 133.54,-190.01 143.74,-192.48 153.64,-194.76"/>
<polygon fill="#63b8ff" stroke="#63b8ff" points="152.89,-198.17 163.41,-196.97 154.43,-191.35 152.89,-198.17"/>
</a>
</g>
</g>
<!-- Node3 -->
<g id="Node000003" class="node">
<title>Node3</title>
<g id="a_Node000003"><a xlink:href="../../d4/d36/namespacefl_a87ae8a24cc8b709a64f39370e71846af.html#a87ae8a24cc8b709a64f39370e71846af" target="_top" xlink:title=" ">
<polygon fill="white" stroke="#666666" points="437.5,-152 343.5,-152 343.5,-133 437.5,-133 437.5,-152"/>
<text text-anchor="middle" x="390.5" y="-140" font-family="Helvetica,sans-Serif" font-size="10.00">fl::make_shared</text>
</a>
</g>
</g>
<!-- Node2&#45;&gt;Node3 -->
<g id="edge2_Node000002_Node000003" class="edge">
<title>Node2&#45;&gt;Node3</title>
<g id="a_edge2_Node000002_Node000003"><a xlink:title=" ">
<path fill="none" stroke="#63b8ff" d="M279.55,-271.39C285.34,-268.86 290.91,-265.92 296,-262.5 335.25,-236.1 365.35,-187.9 379.89,-161.33"/>
<polygon fill="#63b8ff" stroke="#63b8ff" points="383.09,-162.77 384.68,-152.29 376.9,-159.48 383.09,-162.77"/>
</a>
</g>
</g>
<!-- Node4 -->
<g id="Node000004" class="node">
<title>Node4</title>
<g id="a_Node000004"><a xlink:href="../../d4/d36/namespacefl_a33fb57d527658d545f129f9fd7cf5860.html#a33fb57d527658d545f129f9fd7cf5860" target="_top" xlink:title=" ">
<polygon fill="white" stroke="#666666" points="432,-296 349,-296 349,-277 432,-277 432,-296"/>
<text text-anchor="middle" x="390.5" y="-284" font-family="Helvetica,sans-Serif" font-size="10.00">fl::map_range</text>
</a>
</g>
</g>
<!-- Node2&#45;&gt;Node4 -->
<g id="edge3_Node000002_Node000004" class="edge">
<title>Node2&#45;&gt;Node4</title>
<g id="a_edge3_Node000002_Node000004"><a xlink:title=" ">
<path fill="none" stroke="#63b8ff" d="M285.67,-286.5C303.38,-286.5 321.88,-286.5 338.27,-286.5"/>
<polygon fill="#63b8ff" stroke="#63b8ff" points="338.71,-290 348.71,-286.5 338.71,-283 338.71,-290"/>
</a>
</g>
</g>
<!-- Node2&#45;&gt;Node5 -->
<g id="edge4_Node000002_Node000005" class="edge">
<title>Node2&#45;&gt;Node5</title>
<g id="a_edge4_Node000002_Node000005"><a xlink:title=" ">
<path fill="none" stroke="#63b8ff" d="M277.97,-301.51C297.51,-305.89 318.56,-310.6 337.05,-314.75"/>
<polygon fill="#63b8ff" stroke="#63b8ff" points="336.52,-318.21 347.04,-316.99 338.05,-311.38 336.52,-318.21"/>
</a>
</g>
</g>
<!-- Node6&#45;&gt;Node3 -->
<g id="edge6_Node000006_Node000003" class="edge">
<title>Node6&#45;&gt;Node3</title>
<g id="a_edge6_Node000006_Node000003"><a xlink:title=" ">
<path fill="none" stroke="#63b8ff" d="M287.74,-154.47C303.02,-152.67 318.8,-150.82 333.24,-149.12"/>
<polygon fill="#63b8ff" stroke="#63b8ff" points="333.97,-152.56 343.5,-147.91 333.16,-145.6 333.97,-152.56"/>
</a>
</g>
</g>
<!-- Node7&#45;&gt;Node3 -->
<g id="edge8_Node000007_Node000003" class="edge">
<title>Node7&#45;&gt;Node3</title>
<g id="a_edge8_Node000007_Node000003"><a xlink:title=" ">
<path fill="none" stroke="#63b8ff" d="M288.25,-130.02C303.34,-131.88 318.9,-133.8 333.15,-135.55"/>
<polygon fill="#63b8ff" stroke="#63b8ff" points="332.92,-139.05 343.27,-136.8 333.77,-132.11 332.92,-139.05"/>
</a>
</g>
</g>
<!-- Node8&#45;&gt;Node3 -->
<g id="edge10_Node000008_Node000003" class="edge">
<title>Node8&#45;&gt;Node3</title>
<g id="a_edge10_Node000008_Node000003"><a xlink:title=" ">
<path fill="none" stroke="#63b8ff" d="M264.49,-93.08C275.04,-95.46 285.95,-98.27 296,-101.5 318.6,-108.76 343.14,-119.65 361.41,-128.38"/>
<polygon fill="#63b8ff" stroke="#63b8ff" points="360.08,-131.62 370.61,-132.84 363.14,-125.33 360.08,-131.62"/>
</a>
</g>
</g>
<!-- Node9&#45;&gt;Node3 -->
<g id="edge12_Node000009_Node000003" class="edge">
<title>Node9&#45;&gt;Node3</title>
<g id="a_edge12_Node000009_Node000003"><a xlink:title=" ">
<path fill="none" stroke="#63b8ff" d="M273.46,-56.05C281.25,-58.3 288.94,-61.07 296,-64.5 327.17,-79.63 356.75,-107.36 374,-125.35"/>
<polygon fill="#63b8ff" stroke="#63b8ff" points="371.64,-127.94 381.02,-132.85 376.75,-123.16 371.64,-127.94"/>
</a>
</g>
</g>
<!-- Node10&#45;&gt;Node3 -->
<g id="edge14_Node000010_Node000003" class="edge">
<title>Node10&#45;&gt;Node3</title>
<g id="a_edge14_Node000010_Node000003"><a xlink:title=" ">
<path fill="none" stroke="#63b8ff" d="M278.12,-19.12C284.39,-21.37 290.46,-24.12 296,-27.5 335.33,-51.53 365.4,-98.23 379.91,-124.11"/>
<polygon fill="#63b8ff" stroke="#63b8ff" points="376.85,-125.81 384.7,-132.93 383,-122.47 376.85,-125.81"/>
</a>
</g>
</g>
<!-- Node11&#45;&gt;Node3 -->
<g id="edge16_Node000011_Node000003" class="edge">
<title>Node11&#45;&gt;Node3</title>
<g id="a_edge16_Node000011_Node000003"><a xlink:title=" ">
<path fill="none" stroke="#63b8ff" d="M271.3,-233.98C279.84,-231.51 288.32,-228.4 296,-224.5 328.03,-208.23 357.92,-178.47 374.92,-159.63"/>
<polygon fill="#63b8ff" stroke="#63b8ff" points="377.61,-161.88 381.59,-152.06 372.35,-157.25 377.61,-161.88"/>
</a>
</g>
</g>
<!-- Node12&#45;&gt;Node3 -->
<g id="edge18_Node000012_Node000003" class="edge">
<title>Node12&#45;&gt;Node3</title>
<g id="a_edge18_Node000012_Node000003"><a xlink:title=" ">
<path fill="none" stroke="#63b8ff" d="M262.77,-196.91C273.87,-194.31 285.43,-191.17 296,-187.5 319.77,-179.25 345.43,-166.61 363.84,-156.82"/>
<polygon fill="#63b8ff" stroke="#63b8ff" points="365.63,-159.83 372.77,-152 362.3,-153.68 365.63,-159.83"/>
</a>
</g>
</g>
</g>
</svg>
</svg>

<style type='text/css'>
<![CDATA[
[data-mouse-over-selected='false'] { opacity: 0.7; }
[data-mouse-over-selected='true']  { opacity: 1.0; }
]]>
</style>
<script type="application/ecmascript"><![CDATA[
document.addEventListener('DOMContentLoaded', (event) => {
  highlightEdges();
  highlightAdjacentNodes();
});
]]></script>
</svg>
