<?xml version="1.0" encoding="UTF-8" standalone="no"?>
<!DOCTYPE svg PUBLIC "-//W3C//DTD SVG 1.1//EN"
 "http://www.w3.org/Graphics/SVG/1.1/DTD/svg11.dtd">
<!-- Generated by graphviz version 2.43.0 (0)
 -->
<!-- Title: frameBufferXY Pages: 1 -->
<svg width="257pt" height="46pt"
 viewBox="0.00 0.00 257.00 46.00" xmlns="http://www.w3.org/2000/svg" xmlns:xlink="http://www.w3.org/1999/xlink">
<g id="graph0" class="graph" transform="scale(1 1) rotate(0) translate(4 42)">
<title>frameBufferXY</title>
<!-- Node1 -->
<g id="Node000001" class="node">
<title>Node1</title>
<g id="a_Node000001"><a xlink:title=" ">
<polygon fill="#999999" stroke="#666666" points="249,-38 161,-38 161,-19 249,-19 249,-38"/>
<text text-anchor="middle" x="205" y="-26" font-family="Helvetica,sans-Serif" font-size="10.00">frameBufferXY</text>
</a>
</g>
</g>
<!-- Node2 -->
<g id="Node000002" class="node">
<title>Node2</title>
<g id="a_Node000002"><a xlink:href="../../db/d49/_audio_2simple_2simple_8h_afe461d27b9c48d5921c00d521181f12f.html#afe461d27b9c48d5921c00d521181f12f" target="_top" xlink:title=" ">
<polygon fill="white" stroke="#666666" points="38,-38 0,-38 0,-19 38,-19 38,-38"/>
<text text-anchor="middle" x="19" y="-26" font-family="Helvetica,sans-Serif" font-size="10.00">loop</text>
</a>
</g>
</g>
<!-- Node1&#45;&gt;Node2 -->
<g id="edge1_Node000001_Node000002" class="edge">
<title>Node1&#45;&gt;Node2</title>
<g id="a_edge1_Node000001_Node000002"><a xlink:title=" ">
<path fill="none" stroke="#63b8ff" d="M150.5,-28.5C112.68,-28.5 64.27,-28.5 38.35,-28.5"/>
<polygon fill="#63b8ff" stroke="#63b8ff" points="150.86,-32 160.86,-28.5 150.86,-25 150.86,-32"/>
</a>
</g>
</g>
<!-- Node3 -->
<g id="Node000003" class="node">
<title>Node3</title>
<g id="a_Node000003"><a xlink:href="../../db/d49/_audio_2simple_2simple_8h_a14465a272f307648128a667b03e3fa31.html#a14465a272f307648128a667b03e3fa31" target="_top" xlink:title=" ">
<polygon fill="white" stroke="#666666" points="125,-19 74,-19 74,0 125,0 125,-19"/>
<text text-anchor="middle" x="99.5" y="-7" font-family="Helvetica,sans-Serif" font-size="10.00">shiftUp</text>
</a>
</g>
</g>
<!-- Node1&#45;&gt;Node3 -->
<g id="edge2_Node000001_Node000003" class="edge">
<title>Node1&#45;&gt;Node3</title>
<g id="a_edge2_Node000001_Node000003"><a xlink:title=" ">
<path fill="none" stroke="#63b8ff" d="M150.62,-18.7C141.66,-17.06 132.77,-15.42 125.02,-14"/>
<polygon fill="#63b8ff" stroke="#63b8ff" points="150.24,-22.19 160.71,-20.55 151.5,-15.3 150.24,-22.19"/>
</a>
</g>
</g>
<!-- Node3&#45;&gt;Node2 -->
<g id="edge3_Node000003_Node000002" class="edge">
<title>Node3&#45;&gt;Node2</title>
<g id="a_edge3_Node000003_Node000002"><a xlink:title=" ">
<path fill="none" stroke="#63b8ff" d="M63.9,-17.88C55.04,-20.02 45.87,-22.24 38.21,-24.09"/>
<polygon fill="#63b8ff" stroke="#63b8ff" points="64.77,-21.27 73.66,-15.51 63.12,-14.46 64.77,-21.27"/>
</a>
</g>
</g>
</g>
</svg>
