<?xml version="1.0" encoding="UTF-8" standalone="no"?>
<!DOCTYPE svg PUBLIC "-//W3C//DTD SVG 1.1//EN"
 "http://www.w3.org/Graphics/SVG/1.1/DTD/svg11.dtd">
<!-- Generated by graphviz version 2.43.0 (0)
 -->
<!-- Title: fl::is_fixed_point&lt; const T &gt; Pages: 1 -->
<svg width="299pt" height="237pt"
 viewBox="0.00 0.00 299.02 237.00" xmlns="http://www.w3.org/2000/svg" xmlns:xlink="http://www.w3.org/1999/xlink">
<g id="graph0" class="graph" transform="scale(1 1) rotate(0) translate(4 233)">
<title>fl::is_fixed_point&lt; const T &gt;</title>
<!-- Node1 -->
<g id="Node000001" class="node">
<title>Node1</title>
<g id="a_Node000001"><a xlink:title=" ">
<polygon fill="#999999" stroke="#666666" points="128.52,-30 33.52,-30 33.52,0 128.52,0 128.52,-30"/>
<text text-anchor="start" x="41.52" y="-18" font-family="Helvetica,sans-Serif" font-size="10.00">fl::is_fixed_point</text>
<text text-anchor="middle" x="81.02" y="-7" font-family="Helvetica,sans-Serif" font-size="10.00">&lt; const T &gt;</text>
</a>
</g>
</g>
<!-- Node2 -->
<g id="Node000002" class="node">
<title>Node2</title>
<g id="a_Node000002"><a xlink:href="../../dd/dca/structfl_1_1fl_1_1integral__constant.html" target="_top" xlink:title=" ">
<polygon fill="white" stroke="#666666" points="115.02,-152 47.02,-152 47.02,-133 115.02,-133 115.02,-152"/>
<text text-anchor="middle" x="81.02" y="-140" font-family="Helvetica,sans-Serif" font-size="10.00">false_type</text>
</a>
</g>
</g>
<!-- Node2&#45;&gt;Node1 -->
<g id="edge1_Node000001_Node000002" class="edge">
<title>Node2&#45;&gt;Node1</title>
<g id="a_edge1_Node000001_Node000002"><a xlink:title=" ">
<path fill="none" stroke="#63b8ff" d="M43.77,-128.96C28.63,-121.82 12.68,-111.19 4.02,-96 -11.27,-69.21 22.63,-44.66 50.21,-30.01"/>
<polygon fill="#63b8ff" stroke="#63b8ff" points="42.45,-132.21 53.02,-132.97 45.24,-125.78 42.45,-132.21"/>
</a>
</g>
</g>
<!-- Node4 -->
<g id="Node000004" class="node">
<title>Node4</title>
<g id="a_Node000004"><a xlink:href="../../d4/d38/structfl_1_1fl_1_1is__fixed__point.html" target="_top" xlink:title=" ">
<polygon fill="white" stroke="#666666" points="149.02,-96 13.02,-96 13.02,-77 149.02,-77 149.02,-96"/>
<text text-anchor="middle" x="81.02" y="-84" font-family="Helvetica,sans-Serif" font-size="10.00">fl::fl::is_fixed_point&lt; T &gt;</text>
</a>
</g>
</g>
<!-- Node2&#45;&gt;Node4 -->
<g id="edge4_Node000004_Node000002" class="edge">
<title>Node2&#45;&gt;Node4</title>
<g id="a_edge4_Node000004_Node000002"><a xlink:title=" ">
<path fill="none" stroke="#63b8ff" d="M81.02,-122.3C81.02,-113.41 81.02,-103.28 81.02,-96.25"/>
<polygon fill="#63b8ff" stroke="#63b8ff" points="77.52,-122.58 81.02,-132.58 84.52,-122.58 77.52,-122.58"/>
</a>
</g>
</g>
<!-- Node5 -->
<g id="Node000005" class="node">
<title>Node5</title>
<g id="a_Node000005"><a xlink:href="../../df/d57/structfl_1_1is__fixed__point.html" target="_top" xlink:title=" ">
<polygon fill="white" stroke="#666666" points="291.02,-96 167.02,-96 167.02,-77 291.02,-77 291.02,-96"/>
<text text-anchor="middle" x="229.02" y="-84" font-family="Helvetica,sans-Serif" font-size="10.00">fl::is_fixed_point&lt; T &gt;</text>
</a>
</g>
</g>
<!-- Node2&#45;&gt;Node5 -->
<g id="edge6_Node000005_Node000002" class="edge">
<title>Node2&#45;&gt;Node5</title>
<g id="a_edge6_Node000005_Node000002"><a xlink:title=" ">
<path fill="none" stroke="#63b8ff" d="M114.16,-129.41C141.99,-119.25 181.04,-105.01 205.68,-96.02"/>
<polygon fill="#63b8ff" stroke="#63b8ff" points="112.66,-126.23 104.47,-132.94 115.06,-132.8 112.66,-126.23"/>
</a>
</g>
</g>
<!-- Node3 -->
<g id="Node000003" class="node">
<title>Node3</title>
<g id="a_Node000003"><a xlink:href="../../dd/dca/structfl_1_1fl_1_1integral__constant.html" target="_top" xlink:title=" ">
<polygon fill="white" stroke="#666666" points="143.52,-229 18.52,-229 18.52,-199 143.52,-199 143.52,-229"/>
<text text-anchor="start" x="26.52" y="-217" font-family="Helvetica,sans-Serif" font-size="10.00">fl::fl::integral_constant</text>
<text text-anchor="middle" x="81.02" y="-206" font-family="Helvetica,sans-Serif" font-size="10.00">&lt; T, v &gt;</text>
</a>
</g>
</g>
<!-- Node3&#45;&gt;Node2 -->
<g id="edge2_Node000002_Node000003" class="edge">
<title>Node3&#45;&gt;Node2</title>
<g id="a_edge2_Node000002_Node000003"><a xlink:title=" ">
<path fill="none" stroke="orange" stroke-dasharray="5,2" d="M81.02,-188.56C81.02,-175.95 81.02,-161.35 81.02,-152.27"/>
<polygon fill="orange" stroke="orange" points="77.52,-188.94 81.02,-198.94 84.52,-188.94 77.52,-188.94"/>
</a>
</g>
<text text-anchor="middle" x="119.52" y="-173" font-family="Helvetica,sans-Serif" font-size="10.00" fill="grey"> &lt; bool, false &gt;</text>
</g>
<!-- Node4&#45;&gt;Node1 -->
<g id="edge3_Node000001_Node000004" class="edge">
<title>Node4&#45;&gt;Node1</title>
<g id="a_edge3_Node000001_Node000004"><a xlink:title=" ">
<path fill="none" stroke="#63b8ff" d="M81.02,-66.71C81.02,-55.19 81.02,-40.68 81.02,-30.14"/>
<polygon fill="#63b8ff" stroke="#63b8ff" points="77.52,-66.98 81.02,-76.98 84.52,-66.98 77.52,-66.98"/>
</a>
</g>
</g>
<!-- Node5&#45;&gt;Node1 -->
<g id="edge5_Node000001_Node000005" class="edge">
<title>Node5&#45;&gt;Node1</title>
<g id="a_edge5_Node000001_Node000005"><a xlink:title=" ">
<path fill="none" stroke="orange" stroke-dasharray="5,2" d="M201.67,-72.66C175.9,-60.56 137.39,-42.47 110.84,-30.01"/>
<polygon fill="orange" stroke="orange" points="200.33,-75.9 210.87,-76.98 203.31,-69.56 200.33,-75.9"/>
</a>
</g>
<text text-anchor="middle" x="198.52" y="-51" font-family="Helvetica,sans-Serif" font-size="10.00" fill="grey"> &lt; const T &gt;</text>
</g>
</g>
</svg>
