<?xml version="1.0" encoding="UTF-8" standalone="no"?>
<!DOCTYPE svg PUBLIC "-//W3C//DTD SVG 1.1//EN"
 "http://www.w3.org/Graphics/SVG/1.1/DTD/svg11.dtd">
<!-- Generated by graphviz version 2.43.0 (0)
 -->
<!-- Title: fl::unique_ptr&lt; T, Deleter &gt; Pages: 1 -->
<!--zoomable 1689 -->

<svg id="main" version="1.1" xmlns="http://www.w3.org/2000/svg" xmlns:xlink="http://www.w3.org/1999/xlink" xml:space="preserve" onload="init(evt)">

<style type="text/css"><![CDATA[
.node, .edge {opacity: 0.7;}
.node.selected, .edge.selected {opacity: 1;}
.edge:hover path { stroke: red; }
.edge:hover polygon { stroke: red; fill: red; }
]]></style>

<defs>
  <circle id="rim" cx="0" cy="0" r="7"/>
  <circle id="rim2" cx="0" cy="0" r="3.5"/>
  <g id="zoomPlus">
    <use xlink:href="#rim" fill="#404040"><set attributeName="fill" to="#808080" begin="zoomplus.mouseover" end="zoomplus.mouseout"/></use>
    <path d="M-4,0h8M0,-4v8" fill="none" stroke="white" stroke-width="1.5" pointer-events="none"/>
  </g>
  <g id="zoomMin">
    <use xlink:href="#rim" fill="#404040"><set attributeName="fill" to="#808080" begin="zoomminus.mouseover" end="zoomminus.mouseout"/></use>
    <path d="M-4,0h8" fill="none" stroke="white" stroke-width="1.5" pointer-events="none"/>
  </g>
  <g id="arrowUp" transform="translate(30 24)">
    <use xlink:href="#rim"/>
    <path pointer-events="none" fill="none" stroke="white" stroke-width="1.5" d="M0,-3.0v7 M-2.5,-0.5L0,-3.0L2.5,-0.5"/>
  </g>
  <g id="arrowRight" transform="rotate(90) translate(36 -43)">
    <use xlink:href="#rim"/>
    <path pointer-events="none" fill="none" stroke="white" stroke-width="1.5" d="M0,-3.0v7 M-2.5,-0.5L0,-3.0L2.5,-0.5"/>
  </g>
  <g id="arrowDown" transform="rotate(180) translate(-30 -48)">
    <use xlink:href="#rim"/>
    <path pointer-events="none" fill="none" stroke="white" stroke-width="1.5" d="M0,-3.0v7 M-2.5,-0.5L0,-3.0L2.5,-0.5"/>
  </g>
  <g id="arrowLeft" transform="rotate(270) translate(-36 17)">
    <use xlink:href="#rim"/>
    <path pointer-events="none" fill="none" stroke="white" stroke-width="1.5" d="M0,-3.0v7 M-2.5,-0.5L0,-3.0L2.5,-0.5"/>
  </g>
  <g id="resetDef">
    <use xlink:href="#rim2" fill="#404040"><set attributeName="fill" to="#808080" begin="reset.mouseover" end="reset.mouseout"/></use>
  </g>
</defs>
<script type="application/ecmascript">
var viewWidth = 496;
var viewHeight = 1689;
var sectionId = 'dynsection-0';
</script>
<script type="application/ecmascript" xlink:href="../../svg.min.js"/>
<svg id="graph" class="graph">
<g id="viewport">
<title>fl::unique_ptr&lt; T, Deleter &gt;</title>
<!-- Node1 -->
<g id="Node000001" class="node">
<title>Node1</title>
<g id="a_Node000001"><a xlink:title=" ">
<polygon fill="#999999" stroke="#666666" points="101,-846.95 0,-846.95 0,-816.95 101,-816.95 101,-846.95"/>
<text text-anchor="start" x="8" y="-834.95" font-family="Helvetica,sans-Serif" font-size="10.00">fl::unique_ptr&lt; T,</text>
<text text-anchor="middle" x="50.5" y="-823.95" font-family="Helvetica,sans-Serif" font-size="10.00"> Deleter &gt;</text>
</a>
</g>
</g>
<!-- Node1&#45;&gt;Node1 -->
<g id="edge1_Node000001_Node000001" class="edge">
<title>Node1&#45;&gt;Node1</title>
<g id="a_edge1_Node000001_Node000001"><a xlink:title=" ">
<path fill="none" stroke="orange" stroke-dasharray="5,2" d="M37.02,-857.55C38.86,-861.92 43.36,-864.95 50.5,-864.95 62.53,-864.95 67.04,-856.36 64.04,-847.23"/>
<polygon fill="orange" stroke="orange" points="40.52,-857.21 36.96,-847.23 33.52,-857.25 40.52,-857.21"/>
</a>
</g>
<text text-anchor="middle" x="50.5" y="-867.95" font-family="Helvetica,sans-Serif" font-size="10.00" fill="grey"> &lt; T, Deleter &gt;</text>
</g>
<!-- Node1&#45;&gt;Node1 -->
<g id="edge2_Node000001_Node000001" class="edge">
<title>Node1&#45;&gt;Node1</title>
<g id="a_edge2_Node000001_Node000001"><a xlink:title=" ">
<path fill="none" stroke="orange" stroke-dasharray="5,2" d="M23.32,-855.82C17.53,-869.84 26.59,-882.95 50.5,-882.95 79.38,-882.95 86.59,-863.83 72.16,-847.09"/>
<polygon fill="orange" stroke="orange" points="26.45,-857.41 28.84,-847.09 20.54,-853.67 26.45,-857.41"/>
</a>
</g>
<text text-anchor="middle" x="50.5" y="-885.95" font-family="Helvetica,sans-Serif" font-size="10.00" fill="grey"> &lt; T, Deleter &gt;</text>
</g>
<!-- Node2 -->
<g id="Node000002" class="node">
<title>Node2</title>
<g id="a_Node000002"><a xlink:href="../../d6/d2e/classfl_1_1unique__ptr.html" target="_top" xlink:title=" ">
<polygon fill="white" stroke="#666666" points="447.5,-1666.95 349.5,-1666.95 349.5,-1636.95 447.5,-1636.95 447.5,-1666.95"/>
<text text-anchor="start" x="357.5" y="-1654.95" font-family="Helvetica,sans-Serif" font-size="10.00">fl::unique_ptr&lt; fl</text>
<text text-anchor="middle" x="398.5" y="-1643.95" font-family="Helvetica,sans-Serif" font-size="10.00">::Remote &gt;</text>
</a>
</g>
</g>
<!-- Node1&#45;&gt;Node2 -->
<g id="edge3_Node000001_Node000002" class="edge">
<title>Node1&#45;&gt;Node2</title>
<g id="a_edge3_Node000001_Node000002"><a xlink:title=" ">
<path fill="none" stroke="orange" stroke-dasharray="5,2" d="M51.8,-857.21C53.59,-985.81 64.62,-1563.97 119,-1619.95 178.35,-1681.04 286.7,-1673.56 349.32,-1662.72"/>
<polygon fill="orange" stroke="orange" points="55.3,-857.09 51.67,-847.13 48.3,-857.18 55.3,-857.09"/>
</a>
</g>
<text text-anchor="middle" x="205" y="-1672.95" font-family="Helvetica,sans-Serif" font-size="10.00" fill="grey"> &lt; fl::Remote &gt;</text>
</g>
<!-- Node3 -->
<g id="Node000003" class="node">
<title>Node3</title>
<g id="a_Node000003"><a xlink:href="../../d6/d2e/classfl_1_1unique__ptr.html" target="_top" xlink:title=" ">
<polygon fill="white" stroke="#666666" points="452,-1618.95 345,-1618.95 345,-1588.95 452,-1588.95 452,-1618.95"/>
<text text-anchor="start" x="353" y="-1606.95" font-family="Helvetica,sans-Serif" font-size="10.00">fl::unique_ptr&lt; fl</text>
<text text-anchor="middle" x="398.5" y="-1595.95" font-family="Helvetica,sans-Serif" font-size="10.00">::CLEDController &gt;</text>
</a>
</g>
</g>
<!-- Node1&#45;&gt;Node3 -->
<g id="edge4_Node000001_Node000003" class="edge">
<title>Node1&#45;&gt;Node3</title>
<g id="a_edge4_Node000001_Node000003"><a xlink:title=" ">
<path fill="none" stroke="orange" stroke-dasharray="5,2" d="M51.95,-857.22C54.41,-981.03 67.97,-1519.72 119,-1571.95 149.35,-1603.02 272.78,-1606.32 344.73,-1605.47"/>
<polygon fill="orange" stroke="orange" points="55.45,-857.1 51.76,-847.17 48.45,-857.24 55.45,-857.1"/>
</a>
</g>
<text text-anchor="middle" x="205" y="-1607.95" font-family="Helvetica,sans-Serif" font-size="10.00" fill="grey"> &lt; fl::CLEDController &gt;</text>
</g>
<!-- Node4 -->
<g id="Node000004" class="node">
<title>Node4</title>
<g id="a_Node000004"><a xlink:href="../../d6/d2e/classfl_1_1unique__ptr.html" target="_top" xlink:title=" ">
<polygon fill="white" stroke="#666666" points="447.5,-1570.95 349.5,-1570.95 349.5,-1540.95 447.5,-1540.95 447.5,-1570.95"/>
<text text-anchor="start" x="357.5" y="-1558.95" font-family="Helvetica,sans-Serif" font-size="10.00">fl::unique_ptr&lt; fl</text>
<text text-anchor="middle" x="398.5" y="-1547.95" font-family="Helvetica,sans-Serif" font-size="10.00">::CRGB[]&gt;</text>
</a>
</g>
</g>
<!-- Node1&#45;&gt;Node4 -->
<g id="edge5_Node000001_Node000004" class="edge">
<title>Node1&#45;&gt;Node4</title>
<g id="a_edge5_Node000001_Node000004"><a xlink:title=" ">
<path fill="none" stroke="orange" stroke-dasharray="5,2" d="M52.12,-857.47C55.26,-976.86 71.2,-1476.49 119,-1524.95 150.13,-1556.51 278.09,-1558.85 349.23,-1557.57"/>
<polygon fill="orange" stroke="orange" points="55.61,-857.04 51.85,-847.13 48.61,-857.22 55.61,-857.04"/>
</a>
</g>
<text text-anchor="middle" x="205" y="-1559.95" font-family="Helvetica,sans-Serif" font-size="10.00" fill="grey"> &lt; fl::CRGB[]&gt;</text>
</g>
<!-- Node5 -->
<g id="Node000005" class="node">
<title>Node5</title>
<g id="a_Node000005"><a xlink:href="../../d6/d2e/classfl_1_1unique__ptr.html" target="_top" xlink:title=" ">
<polygon fill="white" stroke="#666666" points="453.5,-1522.95 343.5,-1522.95 343.5,-1492.95 453.5,-1492.95 453.5,-1522.95"/>
<text text-anchor="start" x="351.5" y="-1510.95" font-family="Helvetica,sans-Serif" font-size="10.00">fl::unique_ptr&lt; fl</text>
<text text-anchor="middle" x="398.5" y="-1499.95" font-family="Helvetica,sans-Serif" font-size="10.00">::IAnimartrix2Viz &gt;</text>
</a>
</g>
</g>
<!-- Node1&#45;&gt;Node5 -->
<g id="edge6_Node000001_Node000005" class="edge">
<title>Node1&#45;&gt;Node5</title>
<g id="a_edge6_Node000001_Node000005"><a xlink:title=" ">
<path fill="none" stroke="orange" stroke-dasharray="5,2" d="M52.28,-857.27C56.06,-971.49 74.07,-1435.19 119,-1479.95 149.51,-1510.35 271.28,-1512.08 343.31,-1510.26"/>
<polygon fill="orange" stroke="orange" points="55.77,-856.93 51.95,-847.05 48.78,-857.16 55.77,-856.93"/>
</a>
</g>
<text text-anchor="middle" x="205" y="-1512.95" font-family="Helvetica,sans-Serif" font-size="10.00" fill="grey"> &lt; fl::IAnimartrix2Viz &gt;</text>
</g>
<!-- Node6 -->
<g id="Node000006" class="node">
<title>Node6</title>
<g id="a_Node000006"><a xlink:href="../../d6/d2e/classfl_1_1unique__ptr.html" target="_top" xlink:title=" ">
<polygon fill="white" stroke="#666666" points="447.5,-1474.95 349.5,-1474.95 349.5,-1444.95 447.5,-1444.95 447.5,-1474.95"/>
<text text-anchor="start" x="357.5" y="-1462.95" font-family="Helvetica,sans-Serif" font-size="10.00">fl::unique_ptr&lt; fl</text>
<text text-anchor="middle" x="398.5" y="-1451.95" font-family="Helvetica,sans-Serif" font-size="10.00">::Engine &gt;</text>
</a>
</g>
</g>
<!-- Node1&#45;&gt;Node6 -->
<g id="edge7_Node000001_Node000006" class="edge">
<title>Node1&#45;&gt;Node6</title>
<g id="a_edge7_Node000001_Node000006"><a xlink:title=" ">
<path fill="none" stroke="orange" stroke-dasharray="5,2" d="M52.46,-857.39C56.84,-967.19 76.59,-1396.88 119,-1437.95 150.75,-1468.7 278.44,-1466.82 349.38,-1463.18"/>
<polygon fill="orange" stroke="orange" points="55.95,-857.09 52.06,-847.23 48.95,-857.36 55.95,-857.09"/>
</a>
</g>
<text text-anchor="middle" x="205" y="-1467.95" font-family="Helvetica,sans-Serif" font-size="10.00" fill="grey"> &lt; fl::Engine &gt;</text>
</g>
<!-- Node7 -->
<g id="Node000007" class="node">
<title>Node7</title>
<g id="a_Node000007"><a xlink:href="../../d6/d2e/classfl_1_1unique__ptr.html" target="_top" xlink:title=" ">
<polygon fill="white" stroke="#666666" points="460,-1426.95 337,-1426.95 337,-1396.95 460,-1396.95 460,-1426.95"/>
<text text-anchor="start" x="345" y="-1414.95" font-family="Helvetica,sans-Serif" font-size="10.00">fl::unique_ptr&lt; fl</text>
<text text-anchor="middle" x="398.5" y="-1403.95" font-family="Helvetica,sans-Serif" font-size="10.00">::JpegDecoder::Impl &gt;</text>
</a>
</g>
</g>
<!-- Node1&#45;&gt;Node7 -->
<g id="edge8_Node000001_Node000007" class="edge">
<title>Node1&#45;&gt;Node7</title>
<g id="a_edge8_Node000001_Node000007"><a xlink:title=" ">
<path fill="none" stroke="orange" stroke-dasharray="5,2" d="M52.74,-857.14C58.06,-960.52 80.5,-1348.52 119,-1385.95 148.94,-1415.06 264.37,-1416.79 336.89,-1414.79"/>
<polygon fill="orange" stroke="orange" points="56.23,-856.82 52.22,-847.01 49.24,-857.17 56.23,-856.82"/>
</a>
</g>
<text text-anchor="start" x="158" y="-1428.95" font-family="Helvetica,sans-Serif" font-size="10.00" fill="grey"> &lt; fl::JpegDecoder::</text>
<text text-anchor="middle" x="205" y="-1417.95" font-family="Helvetica,sans-Serif" font-size="10.00" fill="grey">Impl &gt;</text>
</g>
<!-- Node8 -->
<g id="Node000008" class="node">
<title>Node8</title>
<g id="a_Node000008"><a xlink:href="../../d6/d2e/classfl_1_1unique__ptr.html" target="_top" xlink:title=" ">
<polygon fill="white" stroke="#666666" points="487.5,-1378.45 309.5,-1378.45 309.5,-1337.45 487.5,-1337.45 487.5,-1378.45"/>
<text text-anchor="start" x="317.5" y="-1366.45" font-family="Helvetica,sans-Serif" font-size="10.00">fl::unique_ptr&lt; fl</text>
<text text-anchor="start" x="317.5" y="-1355.45" font-family="Helvetica,sans-Serif" font-size="10.00">::third_party::Mp3StreamDecoder</text>
<text text-anchor="middle" x="398.5" y="-1344.45" font-family="Helvetica,sans-Serif" font-size="10.00">Impl &gt;</text>
</a>
</g>
</g>
<!-- Node1&#45;&gt;Node8 -->
<g id="edge9_Node000001_Node000008" class="edge">
<title>Node1&#45;&gt;Node8</title>
<g id="a_edge9_Node000001_Node000008"><a xlink:title=" ">
<path fill="none" stroke="orange" stroke-dasharray="5,2" d="M51.02,-857.02C49.82,-948.55 50.8,-1262.85 119,-1328.95 145.44,-1354.58 238.12,-1360.03 309.39,-1360.21"/>
<polygon fill="orange" stroke="orange" points="54.52,-857.04 51.17,-846.99 47.52,-856.94 54.52,-857.04"/>
</a>
</g>
<text text-anchor="start" x="140" y="-1373.95" font-family="Helvetica,sans-Serif" font-size="10.00" fill="grey"> &lt; fl::third_party::</text>
<text text-anchor="middle" x="205" y="-1362.95" font-family="Helvetica,sans-Serif" font-size="10.00" fill="grey">Mp3StreamDecoderImpl &gt;</text>
</g>
<!-- Node9 -->
<g id="Node000009" class="node">
<title>Node9</title>
<g id="a_Node000009"><a xlink:href="../../d6/d2e/classfl_1_1unique__ptr.html" target="_top" xlink:title=" ">
<polygon fill="white" stroke="#666666" points="455,-1319.45 342,-1319.45 342,-1278.45 455,-1278.45 455,-1319.45"/>
<text text-anchor="start" x="350" y="-1307.45" font-family="Helvetica,sans-Serif" font-size="10.00">fl::unique_ptr&lt; u8</text>
<text text-anchor="start" x="350" y="-1296.45" font-family="Helvetica,sans-Serif" font-size="10.00">[], fl::PSRamDeleter</text>
<text text-anchor="middle" x="398.5" y="-1285.45" font-family="Helvetica,sans-Serif" font-size="10.00">&lt; u8 &gt; &gt;</text>
</a>
</g>
</g>
<!-- Node1&#45;&gt;Node9 -->
<g id="edge10_Node000001_Node000009" class="edge">
<title>Node1&#45;&gt;Node9</title>
<g id="a_edge10_Node000001_Node000009"><a xlink:title=" ">
<path fill="none" stroke="orange" stroke-dasharray="5,2" d="M51.41,-857.47C51.66,-943.33 57.35,-1219.57 119,-1276.95 150.2,-1305.99 269.82,-1305.53 341.75,-1302.38"/>
<polygon fill="orange" stroke="orange" points="54.91,-857.31 51.4,-847.31 47.91,-857.31 54.91,-857.31"/>
</a>
</g>
<text text-anchor="start" x="143.5" y="-1316.95" font-family="Helvetica,sans-Serif" font-size="10.00" fill="grey"> &lt; u8[], fl::PSRamDeleter</text>
<text text-anchor="middle" x="205" y="-1305.95" font-family="Helvetica,sans-Serif" font-size="10.00" fill="grey">&lt; u8 &gt; &gt;</text>
</g>
<!-- Node10 -->
<g id="Node000010" class="node">
<title>Node10</title>
<g id="a_Node000010"><a xlink:href="../../d6/d2e/classfl_1_1unique__ptr.html" target="_top" xlink:title=" ">
<polygon fill="white" stroke="#666666" points="466.5,-1259.95 330.5,-1259.95 330.5,-1229.95 466.5,-1229.95 466.5,-1259.95"/>
<text text-anchor="start" x="338.5" y="-1247.95" font-family="Helvetica,sans-Serif" font-size="10.00">fl::unique_ptr&lt; fl</text>
<text text-anchor="middle" x="398.5" y="-1236.95" font-family="Helvetica,sans-Serif" font-size="10.00">::spi::MultiLaneDevice &gt;</text>
</a>
</g>
</g>
<!-- Node1&#45;&gt;Node10 -->
<g id="edge11_Node000001_Node000010" class="edge">
<title>Node1&#45;&gt;Node10</title>
<g id="a_edge11_Node000001_Node000010"><a xlink:title=" ">
<path fill="none" stroke="orange" stroke-dasharray="5,2" d="M52.16,-857.6C54.73,-935.34 66.71,-1166.06 119,-1214.95 174.95,-1267.26 267.47,-1266.56 330.38,-1258.28"/>
<polygon fill="orange" stroke="orange" points="55.65,-857.16 51.85,-847.28 48.65,-857.38 55.65,-857.16"/>
</a>
</g>
<text text-anchor="middle" x="205" y="-1264.95" font-family="Helvetica,sans-Serif" font-size="10.00" fill="grey"> &lt; fl::spi::MultiLaneDevice &gt;</text>
</g>
<!-- Node11 -->
<g id="Node000011" class="node">
<title>Node11</title>
<g id="a_Node000011"><a xlink:href="../../d6/d2e/classfl_1_1unique__ptr.html" target="_top" xlink:title=" ">
<polygon fill="white" stroke="#666666" points="461.5,-1211.95 335.5,-1211.95 335.5,-1181.95 461.5,-1181.95 461.5,-1211.95"/>
<text text-anchor="start" x="343.5" y="-1199.95" font-family="Helvetica,sans-Serif" font-size="10.00">fl::unique_ptr&lt; fl</text>
<text text-anchor="middle" x="398.5" y="-1188.95" font-family="Helvetica,sans-Serif" font-size="10.00">::VorbisDecoderImpl &gt;</text>
</a>
</g>
</g>
<!-- Node1&#45;&gt;Node11 -->
<g id="edge12_Node000001_Node000011" class="edge">
<title>Node1&#45;&gt;Node11</title>
<g id="a_edge12_Node000001_Node000011"><a xlink:title=" ">
<path fill="none" stroke="orange" stroke-dasharray="5,2" d="M52.74,-857.56C56.79,-929.32 72.16,-1129.85 119,-1171.95 149.78,-1199.62 263.1,-1201.52 335.35,-1199.71"/>
<polygon fill="orange" stroke="orange" points="56.22,-856.99 52.19,-847.19 49.23,-857.37 56.22,-856.99"/>
</a>
</g>
<text text-anchor="middle" x="205" y="-1202.95" font-family="Helvetica,sans-Serif" font-size="10.00" fill="grey"> &lt; fl::VorbisDecoderImpl &gt;</text>
</g>
<!-- Node12 -->
<g id="Node000012" class="node">
<title>Node12</title>
<g id="a_Node000012"><a xlink:href="../../d6/d2e/classfl_1_1unique__ptr.html" target="_top" xlink:title=" ">
<polygon fill="white" stroke="#666666" points="475.5,-1163.95 321.5,-1163.95 321.5,-1133.95 475.5,-1133.95 475.5,-1163.95"/>
<text text-anchor="start" x="329.5" y="-1151.95" font-family="Helvetica,sans-Serif" font-size="10.00">fl::unique_ptr&lt; fl</text>
<text text-anchor="middle" x="398.5" y="-1140.95" font-family="Helvetica,sans-Serif" font-size="10.00">::WaveSimulation1D_Real &gt;</text>
</a>
</g>
</g>
<!-- Node1&#45;&gt;Node12 -->
<g id="edge13_Node000001_Node000012" class="edge">
<title>Node1&#45;&gt;Node12</title>
<g id="a_edge13_Node000001_Node000012"><a xlink:title=" ">
<path fill="none" stroke="orange" stroke-dasharray="5,2" d="M53.53,-857.19C59.28,-921.99 78.03,-1091.57 119,-1126.95 134.05,-1139.95 244.11,-1145.32 321.28,-1147.51"/>
<polygon fill="orange" stroke="orange" points="57,-856.71 52.66,-847.05 50.02,-857.31 57,-856.71"/>
</a>
</g>
<text text-anchor="start" x="145" y="-1159.95" font-family="Helvetica,sans-Serif" font-size="10.00" fill="grey"> &lt; fl::WaveSimulation1D</text>
<text text-anchor="middle" x="205" y="-1148.95" font-family="Helvetica,sans-Serif" font-size="10.00" fill="grey">_Real &gt;</text>
</g>
<!-- Node13 -->
<g id="Node000013" class="node">
<title>Node13</title>
<g id="a_Node000013"><a xlink:href="../../d6/d2e/classfl_1_1unique__ptr.html" target="_top" xlink:title=" ">
<polygon fill="white" stroke="#666666" points="475.5,-1115.95 321.5,-1115.95 321.5,-1085.95 475.5,-1085.95 475.5,-1115.95"/>
<text text-anchor="start" x="329.5" y="-1103.95" font-family="Helvetica,sans-Serif" font-size="10.00">fl::unique_ptr&lt; fl</text>
<text text-anchor="middle" x="398.5" y="-1092.95" font-family="Helvetica,sans-Serif" font-size="10.00">::WaveSimulation2D_Real &gt;</text>
</a>
</g>
</g>
<!-- Node1&#45;&gt;Node13 -->
<g id="edge14_Node000001_Node000013" class="edge">
<title>Node1&#45;&gt;Node13</title>
<g id="a_edge14_Node000001_Node000013"><a xlink:title=" ">
<path fill="none" stroke="orange" stroke-dasharray="5,2" d="M54.98,-857.36C63.21,-913.42 85.71,-1044.97 119,-1072.95 148.67,-1097.89 249.48,-1102.62 321.26,-1102.64"/>
<polygon fill="orange" stroke="orange" points="58.41,-856.61 53.53,-847.21 51.48,-857.6 58.41,-856.61"/>
</a>
</g>
<text text-anchor="start" x="145" y="-1115.95" font-family="Helvetica,sans-Serif" font-size="10.00" fill="grey"> &lt; fl::WaveSimulation2D</text>
<text text-anchor="middle" x="205" y="-1104.95" font-family="Helvetica,sans-Serif" font-size="10.00" fill="grey">_Real &gt;</text>
</g>
<!-- Node14 -->
<g id="Node000014" class="node">
<title>Node14</title>
<g id="a_Node000014"><a xlink:href="../../d6/d2e/classfl_1_1unique__ptr.html" target="_top" xlink:title=" ">
<polygon fill="white" stroke="#666666" points="463,-1067.45 334,-1067.45 334,-1026.45 463,-1026.45 463,-1067.45"/>
<text text-anchor="start" x="342" y="-1055.45" font-family="Helvetica,sans-Serif" font-size="10.00">fl::unique_ptr&lt; fl</text>
<text text-anchor="start" x="342" y="-1044.45" font-family="Helvetica,sans-Serif" font-size="10.00">::asio::http::Server</text>
<text text-anchor="middle" x="398.5" y="-1033.45" font-family="Helvetica,sans-Serif" font-size="10.00">::ServerAsyncRunner &gt;</text>
</a>
</g>
</g>
<!-- Node1&#45;&gt;Node14 -->
<g id="edge15_Node000001_Node000014" class="edge">
<title>Node1&#45;&gt;Node14</title>
<g id="a_edge15_Node000001_Node000014"><a xlink:title=" ">
<path fill="none" stroke="orange" stroke-dasharray="5,2" d="M52.59,-857.28C55.84,-898.29 68.66,-978.62 119,-1017.95 151.32,-1043.2 262.05,-1047.77 333.76,-1047.94"/>
<polygon fill="orange" stroke="orange" points="56.07,-856.8 51.92,-847.05 49.08,-857.26 56.07,-856.8"/>
</a>
</g>
<text text-anchor="start" x="148.5" y="-1060.95" font-family="Helvetica,sans-Serif" font-size="10.00" fill="grey"> &lt; fl::asio::http::Server</text>
<text text-anchor="middle" x="205" y="-1049.95" font-family="Helvetica,sans-Serif" font-size="10.00" fill="grey">::ServerAsyncRunner &gt;</text>
</g>
<!-- Node15 -->
<g id="Node000015" class="node">
<title>Node15</title>
<g id="a_Node000015"><a xlink:href="../../d6/d2e/classfl_1_1unique__ptr.html" target="_top" xlink:title=" ">
<polygon fill="white" stroke="#666666" points="483.5,-1007.95 313.5,-1007.95 313.5,-977.95 483.5,-977.95 483.5,-1007.95"/>
<text text-anchor="start" x="321.5" y="-995.95" font-family="Helvetica,sans-Serif" font-size="10.00">fl::unique_ptr&lt; fl</text>
<text text-anchor="middle" x="398.5" y="-984.95" font-family="Helvetica,sans-Serif" font-size="10.00">::audio::SpectralFluxDetector &gt;</text>
</a>
</g>
</g>
<!-- Node1&#45;&gt;Node15 -->
<g id="edge16_Node000001_Node000015" class="edge">
<title>Node1&#45;&gt;Node15</title>
<g id="a_edge16_Node000001_Node000015"><a xlink:title=" ">
<path fill="none" stroke="orange" stroke-dasharray="5,2" d="M56.77,-857.31C64.62,-888.09 82.54,-938.96 119,-963.95 149.67,-984.98 243.16,-991.23 313.42,-992.86"/>
<polygon fill="orange" stroke="orange" points="60.12,-856.26 54.4,-847.34 53.31,-857.88 60.12,-856.26"/>
</a>
</g>
<text text-anchor="start" x="144.5" y="-1005.95" font-family="Helvetica,sans-Serif" font-size="10.00" fill="grey"> &lt; fl::audio::SpectralFlux</text>
<text text-anchor="middle" x="205" y="-994.95" font-family="Helvetica,sans-Serif" font-size="10.00" fill="grey">Detector &gt;</text>
</g>
<!-- Node16 -->
<g id="Node000016" class="node">
<title>Node16</title>
<g id="a_Node000016"><a xlink:href="../../d6/d2e/classfl_1_1unique__ptr.html" target="_top" xlink:title=" ">
<polygon fill="white" stroke="#666666" points="482,-959.95 315,-959.95 315,-929.95 482,-929.95 482,-959.95"/>
<text text-anchor="start" x="323" y="-947.95" font-family="Helvetica,sans-Serif" font-size="10.00">fl::unique_ptr&lt; fl</text>
<text text-anchor="middle" x="398.5" y="-936.95" font-family="Helvetica,sans-Serif" font-size="10.00">::audio::PerceptualWeighting &gt;</text>
</a>
</g>
</g>
<!-- Node1&#45;&gt;Node16 -->
<g id="edge17_Node000001_Node000016" class="edge">
<title>Node1&#45;&gt;Node16</title>
<g id="a_edge17_Node000001_Node000016"><a xlink:title=" ">
<path fill="none" stroke="orange" stroke-dasharray="5,2" d="M65.5,-856.09C77.33,-874.11 96.01,-897.65 119,-909.95 179.16,-942.13 256.81,-949.58 314.83,-949.73"/>
<polygon fill="orange" stroke="orange" points="68.24,-853.87 59.95,-847.26 62.31,-857.59 68.24,-853.87"/>
</a>
</g>
<text text-anchor="middle" x="205" y="-951.95" font-family="Helvetica,sans-Serif" font-size="10.00" fill="grey"> &lt; fl::audio::PerceptualWeighting &gt;</text>
</g>
<!-- Node17 -->
<g id="Node000017" class="node">
<title>Node17</title>
<g id="a_Node000017"><a xlink:href="../../d6/d2e/classfl_1_1unique__ptr.html" target="_top" xlink:title=" ">
<polygon fill="white" stroke="#666666" points="468.5,-911.45 328.5,-911.45 328.5,-870.45 468.5,-870.45 468.5,-911.45"/>
<text text-anchor="start" x="336.5" y="-899.45" font-family="Helvetica,sans-Serif" font-size="10.00">fl::unique_ptr&lt; fl</text>
<text text-anchor="start" x="336.5" y="-888.45" font-family="Helvetica,sans-Serif" font-size="10.00">::audio::detector::Musical</text>
<text text-anchor="middle" x="398.5" y="-877.45" font-family="Helvetica,sans-Serif" font-size="10.00">Beat &gt;</text>
</a>
</g>
</g>
<!-- Node1&#45;&gt;Node17 -->
<g id="edge18_Node000001_Node000017" class="edge">
<title>Node1&#45;&gt;Node17</title>
<g id="a_edge18_Node000001_Node000017"><a xlink:title=" ">
<path fill="none" stroke="orange" stroke-dasharray="5,2" d="M95.03,-850.54C102.9,-853.37 111.11,-856 119,-857.95 189.06,-875.31 271.38,-883.63 328.26,-887.56"/>
<polygon fill="orange" stroke="orange" points="96.24,-847.25 85.65,-847.01 93.78,-853.8 96.24,-847.25"/>
</a>
</g>
<text text-anchor="start" x="155" y="-897.95" font-family="Helvetica,sans-Serif" font-size="10.00" fill="grey"> &lt; fl::audio::detector</text>
<text text-anchor="middle" x="205" y="-886.95" font-family="Helvetica,sans-Serif" font-size="10.00" fill="grey">::MusicalBeat &gt;</text>
</g>
<!-- Node18 -->
<g id="Node000018" class="node">
<title>Node18</title>
<g id="a_Node000018"><a xlink:href="../../d6/d2e/classfl_1_1unique__ptr.html" target="_top" xlink:title=" ">
<polygon fill="white" stroke="#666666" points="474.5,-852.45 322.5,-852.45 322.5,-811.45 474.5,-811.45 474.5,-852.45"/>
<text text-anchor="start" x="330.5" y="-840.45" font-family="Helvetica,sans-Serif" font-size="10.00">fl::unique_ptr&lt; fl</text>
<text text-anchor="start" x="330.5" y="-829.45" font-family="Helvetica,sans-Serif" font-size="10.00">::audio::detector::MultiBand</text>
<text text-anchor="middle" x="398.5" y="-818.45" font-family="Helvetica,sans-Serif" font-size="10.00">Beat &gt;</text>
</a>
</g>
</g>
<!-- Node1&#45;&gt;Node18 -->
<g id="edge19_Node000001_Node000018" class="edge">
<title>Node1&#45;&gt;Node18</title>
<g id="a_edge19_Node000001_Node000018"><a xlink:title=" ">
<path fill="none" stroke="orange" stroke-dasharray="5,2" d="M111.26,-831.95C169.71,-831.95 258.94,-831.95 322.21,-831.95"/>
<polygon fill="orange" stroke="orange" points="111.07,-828.45 101.07,-831.95 111.07,-835.45 111.07,-828.45"/>
</a>
</g>
<text text-anchor="start" x="155" y="-845.95" font-family="Helvetica,sans-Serif" font-size="10.00" fill="grey"> &lt; fl::audio::detector</text>
<text text-anchor="middle" x="205" y="-834.95" font-family="Helvetica,sans-Serif" font-size="10.00" fill="grey">::MultiBandBeat &gt;</text>
</g>
<!-- Node19 -->
<g id="Node000019" class="node">
<title>Node19</title>
<g id="a_Node000019"><a xlink:href="../../d6/d2e/classfl_1_1unique__ptr.html" target="_top" xlink:title=" ">
<polygon fill="white" stroke="#666666" points="474.5,-792.95 322.5,-792.95 322.5,-762.95 474.5,-762.95 474.5,-792.95"/>
<text text-anchor="start" x="330.5" y="-780.95" font-family="Helvetica,sans-Serif" font-size="10.00">fl::unique_ptr&lt; fl</text>
<text text-anchor="middle" x="398.5" y="-769.95" font-family="Helvetica,sans-Serif" font-size="10.00">::audio::SpectralEqualizer &gt;</text>
</a>
</g>
</g>
<!-- Node1&#45;&gt;Node19 -->
<g id="edge20_Node000001_Node000019" class="edge">
<title>Node1&#45;&gt;Node19</title>
<g id="a_edge20_Node000001_Node000019"><a xlink:title=" ">
<path fill="none" stroke="orange" stroke-dasharray="5,2" d="M111,-818.46C113.7,-817.93 116.38,-817.43 119,-816.95 187.58,-804.55 266.27,-793.85 322.48,-786.81"/>
<polygon fill="orange" stroke="orange" points="110.28,-815.03 101.17,-820.44 111.67,-821.89 110.28,-815.03"/>
</a>
</g>
<text text-anchor="middle" x="205" y="-819.95" font-family="Helvetica,sans-Serif" font-size="10.00" fill="grey"> &lt; fl::audio::SpectralEqualizer &gt;</text>
</g>
<!-- Node20 -->
<g id="Node000020" class="node">
<title>Node20</title>
<g id="a_Node000020"><a xlink:href="../../d6/d2e/classfl_1_1unique__ptr.html" target="_top" xlink:title=" ">
<polygon fill="white" stroke="#666666" points="455.5,-744.95 341.5,-744.95 341.5,-714.95 455.5,-714.95 455.5,-744.95"/>
<text text-anchor="start" x="349.5" y="-732.95" font-family="Helvetica,sans-Serif" font-size="10.00">fl::unique_ptr&lt; fl</text>
<text text-anchor="middle" x="398.5" y="-721.95" font-family="Helvetica,sans-Serif" font-size="10.00">::audio::Processor &gt;</text>
</a>
</g>
</g>
<!-- Node1&#45;&gt;Node20 -->
<g id="edge21_Node000001_Node000020" class="edge">
<title>Node1&#45;&gt;Node20</title>
<g id="a_edge21_Node000001_Node000020"><a xlink:title=" ">
<path fill="none" stroke="orange" stroke-dasharray="5,2" d="M72.33,-809.66C84.74,-797.76 101.45,-783.96 119,-775.95 191.11,-743.04 283.28,-733.36 341.37,-730.68"/>
<polygon fill="orange" stroke="orange" points="69.82,-807.22 65.2,-816.75 74.76,-812.18 69.82,-807.22"/>
</a>
</g>
<text text-anchor="middle" x="205" y="-778.95" font-family="Helvetica,sans-Serif" font-size="10.00" fill="grey"> &lt; fl::audio::Processor &gt;</text>
</g>
<!-- Node21 -->
<g id="Node000021" class="node">
<title>Node21</title>
<g id="a_Node000021"><a xlink:href="../../d6/d2e/classfl_1_1unique__ptr.html" target="_top" xlink:title=" ">
<polygon fill="white" stroke="#666666" points="459.5,-696.95 337.5,-696.95 337.5,-666.95 459.5,-666.95 459.5,-696.95"/>
<text text-anchor="start" x="345.5" y="-684.95" font-family="Helvetica,sans-Serif" font-size="10.00">fl::unique_ptr&lt; fl</text>
<text text-anchor="middle" x="398.5" y="-673.95" font-family="Helvetica,sans-Serif" font-size="10.00">::audio::fft::Context &gt;</text>
</a>
</g>
</g>
<!-- Node1&#45;&gt;Node21 -->
<g id="edge22_Node000001_Node000021" class="edge">
<title>Node1&#45;&gt;Node21</title>
<g id="a_edge22_Node000001_Node000021"><a xlink:title=" ">
<path fill="none" stroke="orange" stroke-dasharray="5,2" d="M59.07,-807.17C68.55,-780.68 87.49,-739.7 119,-718.95 184.39,-675.91 277.26,-672.29 337.44,-675.59"/>
<polygon fill="orange" stroke="orange" points="55.68,-806.28 55.79,-816.87 62.31,-808.52 55.68,-806.28"/>
</a>
</g>
<text text-anchor="middle" x="205" y="-721.95" font-family="Helvetica,sans-Serif" font-size="10.00" fill="grey"> &lt; fl::audio::fft::Context &gt;</text>
</g>
<!-- Node22 -->
<g id="Node000022" class="node">
<title>Node22</title>
<g id="a_Node000022"><a xlink:href="../../d6/d2e/classfl_1_1unique__ptr.html" target="_top" xlink:title=" ">
<polygon fill="white" stroke="#666666" points="457.5,-648.95 339.5,-648.95 339.5,-618.95 457.5,-618.95 457.5,-648.95"/>
<text text-anchor="start" x="347.5" y="-636.95" font-family="Helvetica,sans-Serif" font-size="10.00">fl::unique_ptr&lt; block</text>
<text text-anchor="middle" x="398.5" y="-625.95" font-family="Helvetica,sans-Serif" font-size="10.00">_type[]&gt;</text>
</a>
</g>
</g>
<!-- Node1&#45;&gt;Node22 -->
<g id="edge23_Node000001_Node000022" class="edge">
<title>Node1&#45;&gt;Node22</title>
<g id="a_edge23_Node000001_Node000022"><a xlink:title=" ">
<path fill="none" stroke="orange" stroke-dasharray="5,2" d="M53.33,-806.38C57.61,-767.51 71.84,-694.37 119,-658.95 182.37,-611.36 278.17,-614.3 339.27,-622.68"/>
<polygon fill="orange" stroke="orange" points="49.8,-806.53 52.33,-816.82 56.77,-807.19 49.8,-806.53"/>
</a>
</g>
<text text-anchor="middle" x="205" y="-661.95" font-family="Helvetica,sans-Serif" font-size="10.00" fill="grey"> &lt; block_type[]&gt;</text>
</g>
<!-- Node23 -->
<g id="Node000023" class="node">
<title>Node23</title>
<g id="a_Node000023"><a xlink:href="../../d6/d2e/classfl_1_1unique__ptr.html" target="_top" xlink:title=" ">
<polygon fill="white" stroke="#666666" points="459.5,-600.45 337.5,-600.45 337.5,-581.45 459.5,-581.45 459.5,-600.45"/>
<text text-anchor="middle" x="398.5" y="-588.45" font-family="Helvetica,sans-Serif" font-size="10.00">fl::unique_ptr&lt; i16[]&gt;</text>
</a>
</g>
</g>
<!-- Node1&#45;&gt;Node23 -->
<g id="edge24_Node000001_Node000023" class="edge">
<title>Node1&#45;&gt;Node23</title>
<g id="a_edge24_Node000001_Node000023"><a xlink:title=" ">
<path fill="none" stroke="orange" stroke-dasharray="5,2" d="M55.22,-806.45C63.72,-752.03 86.38,-627.39 119,-601.95 151.72,-576.43 265.59,-580.17 337.2,-585.41"/>
<polygon fill="orange" stroke="orange" points="51.71,-806.23 53.66,-816.64 58.63,-807.28 51.71,-806.23"/>
</a>
</g>
<text text-anchor="middle" x="205" y="-604.95" font-family="Helvetica,sans-Serif" font-size="10.00" fill="grey"> &lt; i16[]&gt;</text>
</g>
<!-- Node24 -->
<g id="Node000024" class="node">
<title>Node24</title>
<g id="a_Node000024"><a xlink:href="../../d6/d2e/classfl_1_1unique__ptr.html" target="_top" xlink:title=" ">
<polygon fill="white" stroke="#666666" points="488,-562.95 309,-562.95 309,-532.95 488,-532.95 488,-562.95"/>
<text text-anchor="start" x="317" y="-550.95" font-family="Helvetica,sans-Serif" font-size="10.00">fl::unique_ptr&lt; fl</text>
<text text-anchor="middle" x="398.5" y="-539.95" font-family="Helvetica,sans-Serif" font-size="10.00">::net::http::FetchEngineListener &gt;</text>
</a>
</g>
</g>
<!-- Node1&#45;&gt;Node24 -->
<g id="edge25_Node000001_Node000024" class="edge">
<title>Node1&#45;&gt;Node24</title>
<g id="a_edge25_Node000001_Node000024"><a xlink:title=" ">
<path fill="none" stroke="orange" stroke-dasharray="5,2" d="M53.84,-806.45C60.12,-744.09 79.65,-586.67 119,-554.95 147.29,-532.15 238.31,-533.7 308.67,-538.87"/>
<polygon fill="orange" stroke="orange" points="50.33,-806.31 52.85,-816.6 57.3,-806.99 50.33,-806.31"/>
</a>
</g>
<text text-anchor="start" x="138.5" y="-568.95" font-family="Helvetica,sans-Serif" font-size="10.00" fill="grey"> &lt; fl::net::http::FetchEngine</text>
<text text-anchor="middle" x="205" y="-557.95" font-family="Helvetica,sans-Serif" font-size="10.00" fill="grey">Listener &gt;</text>
</g>
<!-- Node25 -->
<g id="Node000025" class="node">
<title>Node25</title>
<g id="a_Node000025"><a xlink:href="../../d6/d2e/classfl_1_1unique__ptr.html" target="_top" xlink:title=" ">
<polygon fill="white" stroke="#666666" points="456.5,-514.95 340.5,-514.95 340.5,-484.95 456.5,-484.95 456.5,-514.95"/>
<text text-anchor="start" x="348.5" y="-502.95" font-family="Helvetica,sans-Serif" font-size="10.00">fl::unique_ptr&lt; fl</text>
<text text-anchor="middle" x="398.5" y="-491.95" font-family="Helvetica,sans-Serif" font-size="10.00">::spi::Device::Impl &gt;</text>
</a>
</g>
</g>
<!-- Node1&#45;&gt;Node25 -->
<g id="edge26_Node000001_Node000025" class="edge">
<title>Node1&#45;&gt;Node25</title>
<g id="a_edge26_Node000001_Node000025"><a xlink:title=" ">
<path fill="none" stroke="orange" stroke-dasharray="5,2" d="M52.89,-806.54C57.28,-737.19 73.3,-547.33 119,-508.95 151.28,-481.85 268.64,-487.47 340.31,-493.83"/>
<polygon fill="orange" stroke="orange" points="49.4,-806.4 52.29,-816.59 56.38,-806.82 49.4,-806.4"/>
</a>
</g>
<text text-anchor="start" x="161.5" y="-522.95" font-family="Helvetica,sans-Serif" font-size="10.00" fill="grey"> &lt; fl::spi::Device::</text>
<text text-anchor="middle" x="205" y="-511.95" font-family="Helvetica,sans-Serif" font-size="10.00" fill="grey">Impl &gt;</text>
</g>
<!-- Node26 -->
<g id="Node000026" class="node">
<title>Node26</title>
<g id="a_Node000026"><a xlink:href="../../d6/d2e/classfl_1_1unique__ptr.html" target="_top" xlink:title=" ">
<polygon fill="white" stroke="#666666" points="461,-466.45 336,-466.45 336,-425.45 461,-425.45 461,-466.45"/>
<text text-anchor="start" x="344" y="-454.45" font-family="Helvetica,sans-Serif" font-size="10.00">fl::unique_ptr&lt; fl</text>
<text text-anchor="start" x="344" y="-443.45" font-family="Helvetica,sans-Serif" font-size="10.00">::spi::MultiLaneDevice</text>
<text text-anchor="middle" x="398.5" y="-432.45" font-family="Helvetica,sans-Serif" font-size="10.00">::Impl &gt;</text>
</a>
</g>
</g>
<!-- Node1&#45;&gt;Node26 -->
<g id="edge27_Node000001_Node000026" class="edge">
<title>Node1&#45;&gt;Node26</title>
<g id="a_edge27_Node000001_Node000026"><a xlink:title=" ">
<path fill="none" stroke="orange" stroke-dasharray="5,2" d="M52.22,-806.54C54.93,-730.59 67.24,-507.7 119,-461.95 177.69,-410.07 273.4,-417.36 335.91,-429.76"/>
<polygon fill="orange" stroke="orange" points="48.71,-806.54 51.88,-816.65 55.71,-806.77 48.71,-806.54"/>
</a>
</g>
<text text-anchor="start" x="140.5" y="-475.95" font-family="Helvetica,sans-Serif" font-size="10.00" fill="grey"> &lt; fl::spi::MultiLaneDevice</text>
<text text-anchor="middle" x="205" y="-464.95" font-family="Helvetica,sans-Serif" font-size="10.00" fill="grey">::Impl &gt;</text>
</g>
<!-- Node27 -->
<g id="Node000027" class="node">
<title>Node27</title>
<g id="a_Node000027"><a xlink:href="../../d6/d2e/classfl_1_1unique__ptr.html" target="_top" xlink:title=" ">
<polygon fill="white" stroke="#666666" points="455,-407.45 342,-407.45 342,-366.45 455,-366.45 455,-407.45"/>
<text text-anchor="start" x="350" y="-395.45" font-family="Helvetica,sans-Serif" font-size="10.00">fl::unique_ptr&lt; fl</text>
<text text-anchor="start" x="350" y="-384.45" font-family="Helvetica,sans-Serif" font-size="10.00">::spi::ParallelDevice</text>
<text text-anchor="middle" x="398.5" y="-373.45" font-family="Helvetica,sans-Serif" font-size="10.00">::Impl &gt;</text>
</a>
</g>
</g>
<!-- Node1&#45;&gt;Node27 -->
<g id="edge28_Node000001_Node000027" class="edge">
<title>Node1&#45;&gt;Node27</title>
<g id="a_edge28_Node000001_Node000027"><a xlink:title=" ">
<path fill="none" stroke="orange" stroke-dasharray="5,2" d="M51.36,-806.71C51.47,-721.78 56.74,-448.72 119,-393.95 179.64,-340.6 279.68,-353.88 341.91,-369.56"/>
<polygon fill="orange" stroke="orange" points="47.86,-806.76 51.37,-816.75 54.86,-806.75 47.86,-806.76"/>
</a>
</g>
<text text-anchor="start" x="146.5" y="-407.95" font-family="Helvetica,sans-Serif" font-size="10.00" fill="grey"> &lt; fl::spi::ParallelDevice</text>
<text text-anchor="middle" x="205" y="-396.95" font-family="Helvetica,sans-Serif" font-size="10.00" fill="grey">::Impl &gt;</text>
</g>
<!-- Node28 -->
<g id="Node000028" class="node">
<title>Node28</title>
<g id="a_Node000028"><a xlink:href="../../d6/d2e/classfl_1_1unique__ptr.html" target="_top" xlink:title=" ">
<polygon fill="white" stroke="#666666" points="450.5,-348.45 346.5,-348.45 346.5,-307.45 450.5,-307.45 450.5,-348.45"/>
<text text-anchor="start" x="354.5" y="-336.45" font-family="Helvetica,sans-Serif" font-size="10.00">fl::unique_ptr&lt; fl</text>
<text text-anchor="start" x="354.5" y="-325.45" font-family="Helvetica,sans-Serif" font-size="10.00">::spi::Transaction::</text>
<text text-anchor="middle" x="398.5" y="-314.45" font-family="Helvetica,sans-Serif" font-size="10.00">Impl &gt;</text>
</a>
</g>
</g>
<!-- Node1&#45;&gt;Node28 -->
<g id="edge29_Node000001_Node000028" class="edge">
<title>Node1&#45;&gt;Node28</title>
<g id="a_edge29_Node000001_Node000028"><a xlink:title=" ">
<path fill="none" stroke="orange" stroke-dasharray="5,2" d="M52.97,-806.83C58.9,-709.49 82.58,-360.93 119,-328.95 181.13,-274.4 284.52,-292.28 346.33,-310.17"/>
<polygon fill="orange" stroke="orange" points="49.47,-806.74 52.36,-816.93 56.45,-807.16 49.47,-806.74"/>
</a>
</g>
<text text-anchor="start" x="153.5" y="-342.95" font-family="Helvetica,sans-Serif" font-size="10.00" fill="grey"> &lt; fl::spi::Transaction</text>
<text text-anchor="middle" x="205" y="-331.95" font-family="Helvetica,sans-Serif" font-size="10.00" fill="grey">::Impl &gt;</text>
</g>
<!-- Node29 -->
<g id="Node000029" class="node">
<title>Node29</title>
<g id="a_Node000029"><a xlink:href="../../d6/d2e/classfl_1_1unique__ptr.html" target="_top" xlink:title=" ">
<polygon fill="white" stroke="#666666" points="447.5,-288.95 349.5,-288.95 349.5,-258.95 447.5,-258.95 447.5,-288.95"/>
<text text-anchor="start" x="357.5" y="-276.95" font-family="Helvetica,sans-Serif" font-size="10.00">fl::unique_ptr&lt; fl</text>
<text text-anchor="middle" x="398.5" y="-265.95" font-family="Helvetica,sans-Serif" font-size="10.00">::string &gt;</text>
</a>
</g>
</g>
<!-- Node1&#45;&gt;Node29 -->
<g id="edge30_Node000001_Node000029" class="edge">
<title>Node1&#45;&gt;Node29</title>
<g id="a_edge30_Node000001_Node000029"><a xlink:title=" ">
<path fill="none" stroke="orange" stroke-dasharray="5,2" d="M52.65,-806.63C57.64,-702.71 78.93,-312.83 119,-276.95 151.78,-247.6 278.71,-258.47 349.36,-267.2"/>
<polygon fill="orange" stroke="orange" points="49.15,-806.66 52.17,-816.81 56.14,-806.99 49.15,-806.66"/>
</a>
</g>
<text text-anchor="middle" x="205" y="-279.95" font-family="Helvetica,sans-Serif" font-size="10.00" fill="grey"> &lt; fl::string &gt;</text>
</g>
<!-- Node30 -->
<g id="Node000030" class="node">
<title>Node30</title>
<g id="a_Node000030"><a xlink:href="../../d6/d2e/classfl_1_1unique__ptr.html" target="_top" xlink:title=" ">
<polygon fill="white" stroke="#666666" points="452.5,-240.95 344.5,-240.95 344.5,-210.95 452.5,-210.95 452.5,-240.95"/>
<text text-anchor="start" x="352.5" y="-228.95" font-family="Helvetica,sans-Serif" font-size="10.00">fl::unique_ptr&lt; fl</text>
<text text-anchor="middle" x="398.5" y="-217.95" font-family="Helvetica,sans-Serif" font-size="10.00">::task::Coroutine &gt;</text>
</a>
</g>
</g>
<!-- Node1&#45;&gt;Node30 -->
<g id="edge31_Node000001_Node000030" class="edge">
<title>Node1&#45;&gt;Node30</title>
<g id="a_edge31_Node000001_Node000030"><a xlink:title=" ">
<path fill="none" stroke="orange" stroke-dasharray="5,2" d="M52.52,-806.49C57.08,-698.4 77.3,-281.36 119,-241.95 178.75,-185.49 281.71,-196.87 344.31,-210.95"/>
<polygon fill="orange" stroke="orange" points="49.01,-806.63 52.09,-816.77 56,-806.92 49.01,-806.63"/>
</a>
</g>
<text text-anchor="middle" x="205" y="-244.95" font-family="Helvetica,sans-Serif" font-size="10.00" fill="grey"> &lt; fl::task::Coroutine &gt;</text>
</g>
<!-- Node31 -->
<g id="Node000031" class="node">
<title>Node31</title>
<g id="a_Node000031"><a xlink:href="../../d6/d2e/classfl_1_1unique__ptr.html" target="_top" xlink:title=" ">
<polygon fill="white" stroke="#666666" points="447.5,-192.95 349.5,-192.95 349.5,-162.95 447.5,-162.95 447.5,-192.95"/>
<text text-anchor="start" x="357.5" y="-180.95" font-family="Helvetica,sans-Serif" font-size="10.00">fl::unique_ptr&lt; fl</text>
<text text-anchor="middle" x="398.5" y="-169.95" font-family="Helvetica,sans-Serif" font-size="10.00">::u8[]&gt;</text>
</a>
</g>
</g>
<!-- Node1&#45;&gt;Node31 -->
<g id="edge32_Node000001_Node000031" class="edge">
<title>Node1&#45;&gt;Node31</title>
<g id="a_edge32_Node000001_Node000031"><a xlink:title=" ">
<path fill="none" stroke="orange" stroke-dasharray="5,2" d="M52.2,-806.55C55.63,-691.97 72.35,-226.91 119,-183.95 151.37,-154.14 278.48,-163.68 349.26,-171.69"/>
<polygon fill="orange" stroke="orange" points="48.7,-806.71 51.9,-816.8 55.69,-806.91 48.7,-806.71"/>
</a>
</g>
<text text-anchor="middle" x="205" y="-186.95" font-family="Helvetica,sans-Serif" font-size="10.00" fill="grey"> &lt; fl::u8[]&gt;</text>
</g>
<!-- Node32 -->
<g id="Node000032" class="node">
<title>Node32</title>
<g id="a_Node000032"><a xlink:href="../../d6/d2e/classfl_1_1unique__ptr.html" target="_top" xlink:title=" ">
<polygon fill="white" stroke="#666666" points="447.5,-144.95 349.5,-144.95 349.5,-114.95 447.5,-114.95 447.5,-144.95"/>
<text text-anchor="start" x="357.5" y="-132.95" font-family="Helvetica,sans-Serif" font-size="10.00">fl::unique_ptr&lt; fl</text>
<text text-anchor="middle" x="398.5" y="-121.95" font-family="Helvetica,sans-Serif" font-size="10.00">::i16[]&gt;</text>
</a>
</g>
</g>
<!-- Node1&#45;&gt;Node32 -->
<g id="edge33_Node000001_Node000032" class="edge">
<title>Node1&#45;&gt;Node32</title>
<g id="a_edge33_Node000001_Node000032"><a xlink:title=" ">
<path fill="none" stroke="orange" stroke-dasharray="5,2" d="M52.1,-806.71C55.14,-688.65 70.69,-194.65 119,-147.95 150.74,-117.26 278.44,-121.15 349.38,-125.93"/>
<polygon fill="orange" stroke="orange" points="48.59,-806.85 51.84,-816.94 55.59,-807.03 48.59,-806.85"/>
</a>
</g>
<text text-anchor="middle" x="205" y="-150.95" font-family="Helvetica,sans-Serif" font-size="10.00" fill="grey"> &lt; fl::i16[]&gt;</text>
</g>
<!-- Node33 -->
<g id="Node000033" class="node">
<title>Node33</title>
<g id="a_Node000033"><a xlink:href="../../d6/d2e/classfl_1_1unique__ptr.html" target="_top" xlink:title=" ">
<polygon fill="white" stroke="#666666" points="488,-96.95 309,-96.95 309,-66.95 488,-66.95 488,-96.95"/>
<text text-anchor="start" x="317" y="-84.95" font-family="Helvetica,sans-Serif" font-size="10.00">fl::unique_ptr&lt; fl</text>
<text text-anchor="middle" x="398.5" y="-73.95" font-family="Helvetica,sans-Serif" font-size="10.00">::third_party::Mp3HelixDecoder &gt;</text>
</a>
</g>
</g>
<!-- Node1&#45;&gt;Node33 -->
<g id="edge34_Node000001_Node000033" class="edge">
<title>Node1&#45;&gt;Node33</title>
<g id="a_edge34_Node000001_Node000033"><a xlink:title=" ">
<path fill="none" stroke="orange" stroke-dasharray="5,2" d="M51.9,-806.75C54.09,-683.3 66.59,-146.24 119,-95.95 179.17,-38.21 284.45,-51.84 346.9,-66.93"/>
<polygon fill="orange" stroke="orange" points="48.4,-806.72 51.73,-816.77 55.4,-806.84 48.4,-806.72"/>
</a>
</g>
<text text-anchor="start" x="155.5" y="-109.95" font-family="Helvetica,sans-Serif" font-size="10.00" fill="grey"> &lt; fl::third_party::</text>
<text text-anchor="middle" x="205" y="-98.95" font-family="Helvetica,sans-Serif" font-size="10.00" fill="grey">Mp3HelixDecoder &gt;</text>
</g>
<!-- Node34 -->
<g id="Node000034" class="node">
<title>Node34</title>
<g id="a_Node000034"><a xlink:href="../../df/dcd/classfl_1_1unique__ptr_3_01_t_0f_0e_00_01_deleter_01_4.html" target="_top" xlink:title=" ">
<polygon fill="white" stroke="#666666" points="451,-48.95 346,-48.95 346,-18.95 451,-18.95 451,-48.95"/>
<text text-anchor="start" x="354" y="-36.95" font-family="Helvetica,sans-Serif" font-size="10.00">fl::unique_ptr&lt; T[]</text>
<text text-anchor="middle" x="398.5" y="-25.95" font-family="Helvetica,sans-Serif" font-size="10.00">, Deleter &gt;</text>
</a>
</g>
</g>
<!-- Node1&#45;&gt;Node34 -->
<g id="edge35_Node000001_Node000034" class="edge">
<title>Node1&#45;&gt;Node34</title>
<g id="a_edge35_Node000001_Node000034"><a xlink:title=" ">
<path fill="none" stroke="orange" stroke-dasharray="5,2" d="M51.69,-806.85C52.9,-677.76 61.57,-92.66 119,-38.95 182.13,20.09 292.88,-0.88 353.97,-18.91"/>
<polygon fill="orange" stroke="orange" points="48.19,-806.92 51.6,-816.95 55.19,-806.98 48.19,-806.92"/>
</a>
</g>
<text text-anchor="middle" x="205" y="-41.95" font-family="Helvetica,sans-Serif" font-size="10.00" fill="grey"> &lt; T[], Deleter &gt;</text>
</g>
</g>
</svg>

<g id="navigator" transform="translate(0 0)" fill="#404254">
  <rect fill="#f2f5e9" fill-opacity="0.5" stroke="#606060" stroke-width=".5" x="0" y="0" width="60" height="60"/>
  <use id="zoomplus" xlink:href="#zoomPlus" x="17" y="9" onmousedown="handleZoom(evt,'in')"/>
  <use id="zoomminus" xlink:href="#zoomMin" x="42" y="9" onmousedown="handleZoom(evt,'out')"/>
  <use id="reset" xlink:href="#resetDef" x="30" y="36" onmousedown="handleReset()"/>
   <use id="arrowup" xlink:href="#arrowUp" x="0" y="0" onmousedown="handlePan(0,-1)"/>
  <use id="arrowright" xlink:href="#arrowRight" x="0" y="0" onmousedown="handlePan(1,0)"/>
  <use id="arrowdown" xlink:href="#arrowDown" x="0" y="0" onmousedown="handlePan(0,1)"/>
  <use id="arrowleft" xlink:href="#arrowLeft" x="0" y="0" onmousedown="handlePan(-1,0)"/>
</g>
<svg viewBox="0 0 15 15" width="100%" height="30px" preserveAspectRatio="xMaxYMin meet">
 <g id="arrow_out" transform="scale(0.3 0.3)">
  <a xlink:href="classfl_1_1unique__ptr__inherit__graph_org.svg" target="_base">
   <rect id="button" ry="5" rx="5" y="6" x="6" height="38" width="38"
        fill="#f2f5e9" fill-opacity="0.5" stroke="#606060" stroke-width="1.0"/>
   <path id="arrow"
     d="M 11.500037,31.436501 C 11.940474,20.09759 22.043105,11.32322 32.158766,21.979434 L 37.068811,17.246167 C 37.068811,17.246167 37.088388,32 37.088388,32 L 22.160133,31.978069 C 22.160133,31.978069 26.997745,27.140456 26.997745,27.140456 C 18.528582,18.264221 13.291696,25.230495 11.500037,31.436501 z"
     style="fill:#404040;"/>
  </a>
 </g>
</svg>

<style type='text/css'>
<![CDATA[
[data-mouse-over-selected='false'] { opacity: 0.7; }
[data-mouse-over-selected='true']  { opacity: 1.0; }
]]>
</style>
<script type="application/ecmascript"><![CDATA[
document.addEventListener('DOMContentLoaded', (event) => {
  highlightEdges();
  highlightAdjacentNodes();
});
]]></script>
</svg>
