<?xml version="1.0" encoding="UTF-8" standalone="no"?>
<!DOCTYPE svg PUBLIC "-//W3C//DTD SVG 1.1//EN"
 "http://www.w3.org/Graphics/SVG/1.1/DTD/svg11.dtd">
<!-- Generated by graphviz version 2.43.0 (0)
 -->
<!-- Title: fl::RectangularDrawBuffer Pages: 1 -->
<!--zoomable 220 -->

<svg id="main" version="1.1" xmlns="http://www.w3.org/2000/svg" xmlns:xlink="http://www.w3.org/1999/xlink" xml:space="preserve" onload="init(evt)">

<style type="text/css"><![CDATA[
.node, .edge {opacity: 0.7;}
.node.selected, .edge.selected {opacity: 1;}
.edge:hover path { stroke: red; }
.edge:hover polygon { stroke: red; fill: red; }
]]></style>

<defs>
  <circle id="rim" cx="0" cy="0" r="7"/>
  <circle id="rim2" cx="0" cy="0" r="3.5"/>
  <g id="zoomPlus">
    <use xlink:href="#rim" fill="#404040"><set attributeName="fill" to="#808080" begin="zoomplus.mouseover" end="zoomplus.mouseout"/></use>
    <path d="M-4,0h8M0,-4v8" fill="none" stroke="white" stroke-width="1.5" pointer-events="none"/>
  </g>
  <g id="zoomMin">
    <use xlink:href="#rim" fill="#404040"><set attributeName="fill" to="#808080" begin="zoomminus.mouseover" end="zoomminus.mouseout"/></use>
    <path d="M-4,0h8" fill="none" stroke="white" stroke-width="1.5" pointer-events="none"/>
  </g>
  <g id="arrowUp" transform="translate(30 24)">
    <use xlink:href="#rim"/>
    <path pointer-events="none" fill="none" stroke="white" stroke-width="1.5" d="M0,-3.0v7 M-2.5,-0.5L0,-3.0L2.5,-0.5"/>
  </g>
  <g id="arrowRight" transform="rotate(90) translate(36 -43)">
    <use xlink:href="#rim"/>
    <path pointer-events="none" fill="none" stroke="white" stroke-width="1.5" d="M0,-3.0v7 M-2.5,-0.5L0,-3.0L2.5,-0.5"/>
  </g>
  <g id="arrowDown" transform="rotate(180) translate(-30 -48)">
    <use xlink:href="#rim"/>
    <path pointer-events="none" fill="none" stroke="white" stroke-width="1.5" d="M0,-3.0v7 M-2.5,-0.5L0,-3.0L2.5,-0.5"/>
  </g>
  <g id="arrowLeft" transform="rotate(270) translate(-36 17)">
    <use xlink:href="#rim"/>
    <path pointer-events="none" fill="none" stroke="white" stroke-width="1.5" d="M0,-3.0v7 M-2.5,-0.5L0,-3.0L2.5,-0.5"/>
  </g>
  <g id="resetDef">
    <use xlink:href="#rim2" fill="#404040"><set attributeName="fill" to="#808080" begin="reset.mouseover" end="reset.mouseout"/></use>
  </g>
</defs>
<script type="application/ecmascript">
var viewWidth = 1200;
var viewHeight = 220;
var sectionId = 'dynsection-0';
</script>
<script type="application/ecmascript" xlink:href="../../svg.min.js"/>
<svg id="graph" class="graph">
<g id="viewport">
<title>fl::RectangularDrawBuffer</title>
<!-- Node1 -->
<g id="Node000001" class="node">
<title>Node1</title>
<g id="a_Node000001"><a xlink:title=" ">
<polygon fill="#999999" stroke="#666666" points="1192,-107.5 1050,-107.5 1050,-88.5 1192,-88.5 1192,-107.5"/>
<text text-anchor="middle" x="1121" y="-95.5" font-family="Helvetica,sans-Serif" font-size="10.00">fl::RectangularDrawBuffer</text>
</a>
</g>
</g>
<!-- Node2 -->
<g id="Node000002" class="node">
<title>Node2</title>
<g id="a_Node000002"><a xlink:href="../../d3/d92/classfl_1_1scoped__array.html" target="_top" xlink:title=" ">
<polygon fill="white" stroke="#666666" points="907.5,-167.5 757.5,-167.5 757.5,-148.5 907.5,-148.5 907.5,-167.5"/>
<text text-anchor="middle" x="832.5" y="-155.5" font-family="Helvetica,sans-Serif" font-size="10.00">fl::scoped_array&lt; uint8_t &gt;</text>
</a>
</g>
</g>
<!-- Node2&#45;&gt;Node1 -->
<g id="edge1_Node000001_Node000002" class="edge">
<title>Node2&#45;&gt;Node1</title>
<g id="a_edge1_Node000001_Node000002"><a xlink:title=" ">
<path fill="none" stroke="#9a32cd" stroke-dasharray="5,2" d="M888.98,-146.38C942.96,-135.08 1023.99,-118.11 1074.34,-107.56"/>
<polygon fill="#9a32cd" stroke="#9a32cd" points="887.97,-143.02 878.9,-148.49 889.4,-149.87 887.97,-143.02"/>
</a>
</g>
<text text-anchor="middle" x="980" y="-139" font-family="Helvetica,sans-Serif" font-size="10.00" fill="grey"> mAllLedsBufferUint8</text>
</g>
<!-- Node3 -->
<g id="Node000003" class="node">
<title>Node3</title>
<g id="a_Node000003"><a xlink:href="../../df/db6/structfl_1_1_array_deleter.html" target="_top" xlink:title=" ">
<polygon fill="white" stroke="#666666" points="629,-210.5 482,-210.5 482,-191.5 629,-191.5 629,-210.5"/>
<text text-anchor="middle" x="555.5" y="-198.5" font-family="Helvetica,sans-Serif" font-size="10.00">fl::ArrayDeleter&lt; uint8_t &gt;</text>
</a>
</g>
</g>
<!-- Node3&#45;&gt;Node2 -->
<g id="edge2_Node000002_Node000003" class="edge">
<title>Node3&#45;&gt;Node2</title>
<g id="a_edge2_Node000002_Node000003"><a xlink:title=" ">
<path fill="none" stroke="#9a32cd" stroke-dasharray="5,2" d="M628.37,-189.91C661.46,-184.79 701.23,-178.61 737,-173 748.24,-171.24 760.23,-169.34 771.77,-167.51"/>
<polygon fill="#9a32cd" stroke="#9a32cd" points="627.67,-186.48 618.33,-191.46 628.75,-193.39 627.67,-186.48"/>
</a>
</g>
<text text-anchor="middle" x="692" y="-189" font-family="Helvetica,sans-Serif" font-size="10.00" fill="grey"> deleter_</text>
</g>
<!-- Node4 -->
<g id="Node000004" class="node">
<title>Node4</title>
<g id="a_Node000004"><a xlink:href="../../df/db6/structfl_1_1_array_deleter.html" target="_top" xlink:title=" ">
<polygon fill="white" stroke="#666666" points="369.5,-210.5 250.5,-210.5 250.5,-191.5 369.5,-191.5 369.5,-210.5"/>
<text text-anchor="middle" x="310" y="-198.5" font-family="Helvetica,sans-Serif" font-size="10.00">fl::ArrayDeleter&lt; T &gt;</text>
</a>
</g>
</g>
<!-- Node4&#45;&gt;Node3 -->
<g id="edge3_Node000003_Node000004" class="edge">
<title>Node4&#45;&gt;Node3</title>
<g id="a_edge3_Node000003_Node000004"><a xlink:title=" ">
<path fill="none" stroke="orange" stroke-dasharray="5,2" d="M379.73,-201C411.51,-201 449.28,-201 481.56,-201"/>
<polygon fill="orange" stroke="orange" points="379.63,-197.5 369.63,-201 379.63,-204.5 379.63,-197.5"/>
</a>
</g>
<text text-anchor="middle" x="434" y="-204" font-family="Helvetica,sans-Serif" font-size="10.00" fill="grey"> &lt; uint8_t &gt;</text>
</g>
<!-- Node5 -->
<g id="Node000005" class="node">
<title>Node5</title>
<g id="a_Node000005"><a xlink:href="../../d3/d92/classfl_1_1scoped__array.html" target="_top" xlink:title=" ">
<polygon fill="white" stroke="#666666" points="612.5,-173 498.5,-173 498.5,-143 612.5,-143 612.5,-173"/>
<text text-anchor="start" x="506.5" y="-161" font-family="Helvetica,sans-Serif" font-size="10.00">fl::scoped_array&lt; T,</text>
<text text-anchor="middle" x="555.5" y="-150" font-family="Helvetica,sans-Serif" font-size="10.00"> Deleter &gt;</text>
</a>
</g>
</g>
<!-- Node5&#45;&gt;Node2 -->
<g id="edge4_Node000002_Node000005" class="edge">
<title>Node5&#45;&gt;Node2</title>
<g id="a_edge4_Node000002_Node000005"><a xlink:title=" ">
<path fill="none" stroke="orange" stroke-dasharray="5,2" d="M622.86,-158C663.41,-158 715.34,-158 757.25,-158"/>
<polygon fill="orange" stroke="orange" points="622.81,-154.5 612.81,-158 622.81,-161.5 622.81,-154.5"/>
</a>
</g>
<text text-anchor="middle" x="692" y="-161" font-family="Helvetica,sans-Serif" font-size="10.00" fill="grey"> &lt; uint8_t &gt;</text>
</g>
<!-- Node6 -->
<g id="Node000006" class="node">
<title>Node6</title>
<g id="a_Node000006"><a xlink:href="../../d2/df3/classfl_1_1_fixed_map.html" target="_top" xlink:title=" ">
<polygon fill="white" stroke="#666666" points="888,-118.5 777,-118.5 777,-77.5 888,-77.5 888,-118.5"/>
<text text-anchor="start" x="785" y="-106.5" font-family="Helvetica,sans-Serif" font-size="10.00">fl::FixedMap&lt; uint8</text>
<text text-anchor="start" x="785" y="-95.5" font-family="Helvetica,sans-Serif" font-size="10.00">_t, fl::Slice&lt; uint8</text>
<text text-anchor="middle" x="832.5" y="-84.5" font-family="Helvetica,sans-Serif" font-size="10.00">_t &gt;, 50 &gt;</text>
</a>
</g>
</g>
<!-- Node6&#45;&gt;Node1 -->
<g id="edge5_Node000001_Node000006" class="edge">
<title>Node6&#45;&gt;Node1</title>
<g id="a_edge5_Node000001_Node000006"><a xlink:title=" ">
<path fill="none" stroke="#9a32cd" stroke-dasharray="5,2" d="M898.32,-98C943.47,-98 1003.63,-98 1049.88,-98"/>
<polygon fill="#9a32cd" stroke="#9a32cd" points="898.06,-94.5 888.06,-98 898.06,-101.5 898.06,-94.5"/>
</a>
</g>
<text text-anchor="middle" x="980" y="-101" font-family="Helvetica,sans-Serif" font-size="10.00" fill="grey"> mPinToLedSegment</text>
</g>
<!-- Node7 -->
<g id="Node000007" class="node">
<title>Node7</title>
<g id="a_Node000007"><a xlink:href="../../d3/d73/classfl_1_1_fixed_vector.html" target="_top" xlink:title=" ">
<polygon fill="white" stroke="#666666" points="386,-104.5 234,-104.5 234,-85.5 386,-85.5 386,-104.5"/>
<text text-anchor="middle" x="310" y="-92.5" font-family="Helvetica,sans-Serif" font-size="10.00">fl::FixedVector&lt; PairKV, N &gt;</text>
</a>
</g>
</g>
<!-- Node7&#45;&gt;Node6 -->
<g id="edge6_Node000006_Node000007" class="edge">
<title>Node7&#45;&gt;Node6</title>
<g id="a_edge6_Node000006_Node000007"><a xlink:title=" ">
<path fill="none" stroke="#9a32cd" stroke-dasharray="5,2" d="M396.26,-97.12C482.26,-98.99 618.85,-101.25 737,-100 749.8,-99.86 763.57,-99.63 776.54,-99.36"/>
<polygon fill="#9a32cd" stroke="#9a32cd" points="396.1,-93.61 386.03,-96.89 395.95,-100.61 396.1,-93.61"/>
</a>
</g>
<text text-anchor="middle" x="555.5" y="-103" font-family="Helvetica,sans-Serif" font-size="10.00" fill="grey"> data</text>
</g>
<!-- Node9 -->
<g id="Node000009" class="node">
<title>Node9</title>
<g id="a_Node000009"><a xlink:href="../../d2/df3/classfl_1_1_fixed_map.html" target="_top" xlink:title=" ">
<polygon fill="white" stroke="#666666" points="609,-78 502,-78 502,-48 609,-48 609,-78"/>
<text text-anchor="start" x="510" y="-66" font-family="Helvetica,sans-Serif" font-size="10.00">fl::FixedMap&lt; Key,</text>
<text text-anchor="middle" x="555.5" y="-55" font-family="Helvetica,sans-Serif" font-size="10.00"> Value, N &gt;</text>
</a>
</g>
</g>
<!-- Node7&#45;&gt;Node9 -->
<g id="edge9_Node000009_Node000007" class="edge">
<title>Node7&#45;&gt;Node9</title>
<g id="a_edge9_Node000009_Node000007"><a xlink:title=" ">
<path fill="none" stroke="#9a32cd" stroke-dasharray="5,2" d="M393.35,-84.18C429.16,-79.47 470.07,-74.1 501.71,-69.94"/>
<polygon fill="#9a32cd" stroke="#9a32cd" points="392.86,-80.71 383.4,-85.49 393.77,-87.65 392.86,-80.71"/>
</a>
</g>
<text text-anchor="middle" x="434" y="-84" font-family="Helvetica,sans-Serif" font-size="10.00" fill="grey"> data</text>
</g>
<!-- Node8 -->
<g id="Node000008" class="node">
<title>Node8</title>
<g id="a_Node000008"><a xlink:href="../../d3/d73/classfl_1_1_fixed_vector.html" target="_top" xlink:title=" ">
<polygon fill="white" stroke="#666666" points="127,-104.5 0,-104.5 0,-85.5 127,-85.5 127,-104.5"/>
<text text-anchor="middle" x="63.5" y="-92.5" font-family="Helvetica,sans-Serif" font-size="10.00">fl::FixedVector&lt; T, N &gt;</text>
</a>
</g>
</g>
<!-- Node8&#45;&gt;Node7 -->
<g id="edge7_Node000007_Node000008" class="edge">
<title>Node8&#45;&gt;Node7</title>
<g id="a_edge7_Node000007_Node000008"><a xlink:title=" ">
<path fill="none" stroke="orange" stroke-dasharray="5,2" d="M137.28,-95C167.76,-95 203.16,-95 233.89,-95"/>
<polygon fill="orange" stroke="orange" points="137.15,-91.5 127.15,-95 137.15,-98.5 137.15,-91.5"/>
</a>
</g>
<text text-anchor="middle" x="180.5" y="-98" font-family="Helvetica,sans-Serif" font-size="10.00" fill="grey"> &lt; PairKV, N &gt;</text>
</g>
<!-- Node9&#45;&gt;Node6 -->
<g id="edge8_Node000006_Node000009" class="edge">
<title>Node9&#45;&gt;Node6</title>
<g id="a_edge8_Node000006_Node000009"><a xlink:title=" ">
<path fill="none" stroke="orange" stroke-dasharray="5,2" d="M619.25,-66.27C654.06,-68.57 698.07,-72.29 737,-78 749.94,-79.9 763.77,-82.5 776.74,-85.19"/>
<polygon fill="orange" stroke="orange" points="619.43,-62.78 609.22,-65.63 618.98,-69.76 619.43,-62.78"/>
</a>
</g>
<text text-anchor="start" x="647" y="-92" font-family="Helvetica,sans-Serif" font-size="10.00" fill="grey"> &lt; uint8_t, fl::Slice</text>
<text text-anchor="middle" x="692" y="-81" font-family="Helvetica,sans-Serif" font-size="10.00" fill="grey">&lt; uint8_t &gt;, 50 &gt;</text>
</g>
<!-- Node10 -->
<g id="Node000010" class="node">
<title>Node10</title>
<g id="a_Node000010"><a xlink:href="../../db/ddd/classfl_1_1_heap_vector.html" target="_top" xlink:title=" ">
<polygon fill="white" stroke="#666666" points="910,-36.5 755,-36.5 755,-17.5 910,-17.5 910,-36.5"/>
<text text-anchor="middle" x="832.5" y="-24.5" font-family="Helvetica,sans-Serif" font-size="10.00">fl::HeapVector&lt; DrawItem &gt;</text>
</a>
</g>
</g>
<!-- Node10&#45;&gt;Node1 -->
<g id="edge10_Node000001_Node000010" class="edge">
<title>Node10&#45;&gt;Node1</title>
<g id="a_edge10_Node000001_Node000010"><a xlink:title=" ">
<path fill="none" stroke="#9a32cd" stroke-dasharray="5,2" d="M889.24,-38.63C929.15,-47.21 984.09,-59.5 1032,-72 1051.27,-77.03 1072.7,-83.34 1089.59,-88.49"/>
<polygon fill="#9a32cd" stroke="#9a32cd" points="889.94,-35.2 879.43,-36.54 888.48,-42.05 889.94,-35.2"/>
</a>
</g>
<text text-anchor="middle" x="980" y="-86" font-family="Helvetica,sans-Serif" font-size="10.00" fill="grey"> mDrawList</text>
<text text-anchor="middle" x="980" y="-75" font-family="Helvetica,sans-Serif" font-size="10.00" fill="grey">mPrevDrawList</text>
</g>
<!-- Node11 -->
<g id="Node000011" class="node">
<title>Node11</title>
<g id="a_Node000011"><a xlink:href="../../db/ddd/classfl_1_1_heap_vector.html" target="_top" xlink:title=" ">
<polygon fill="white" stroke="#666666" points="608,-30 503,-30 503,0 608,0 608,-30"/>
<text text-anchor="start" x="511" y="-18" font-family="Helvetica,sans-Serif" font-size="10.00">fl::HeapVector&lt; T,</text>
<text text-anchor="middle" x="555.5" y="-7" font-family="Helvetica,sans-Serif" font-size="10.00"> Allocator &gt;</text>
</a>
</g>
</g>
<!-- Node11&#45;&gt;Node10 -->
<g id="edge11_Node000010_Node000011" class="edge">
<title>Node11&#45;&gt;Node10</title>
<g id="a_edge11_Node000010_Node000011"><a xlink:title=" ">
<path fill="none" stroke="orange" stroke-dasharray="5,2" d="M618.47,-17.7C658.83,-19.47 711.78,-21.78 754.8,-23.65"/>
<polygon fill="orange" stroke="orange" points="618.37,-14.2 608.23,-17.26 618.06,-21.19 618.37,-14.2"/>
</a>
</g>
<text text-anchor="middle" x="692" y="-26" font-family="Helvetica,sans-Serif" font-size="10.00" fill="grey"> &lt; DrawItem &gt;</text>
</g>
</g>
</svg>

<g id="navigator" transform="translate(0 0)" fill="#404254">
  <rect fill="#f2f5e9" fill-opacity="0.5" stroke="#606060" stroke-width=".5" x="0" y="0" width="60" height="60"/>
  <use id="zoomplus" xlink:href="#zoomPlus" x="17" y="9" onmousedown="handleZoom(evt,'in')"/>
  <use id="zoomminus" xlink:href="#zoomMin" x="42" y="9" onmousedown="handleZoom(evt,'out')"/>
  <use id="reset" xlink:href="#resetDef" x="30" y="36" onmousedown="handleReset()"/>
   <use id="arrowup" xlink:href="#arrowUp" x="0" y="0" onmousedown="handlePan(0,-1)"/>
  <use id="arrowright" xlink:href="#arrowRight" x="0" y="0" onmousedown="handlePan(1,0)"/>
  <use id="arrowdown" xlink:href="#arrowDown" x="0" y="0" onmousedown="handlePan(0,1)"/>
  <use id="arrowleft" xlink:href="#arrowLeft" x="0" y="0" onmousedown="handlePan(-1,0)"/>
</g>
<svg viewBox="0 0 15 15" width="100%" height="30px" preserveAspectRatio="xMaxYMin meet">
 <g id="arrow_out" transform="scale(0.3 0.3)">
  <a xlink:href="classfl_1_1_rectangular_draw_buffer__coll__graph_org.svg" target="_base">
   <rect id="button" ry="5" rx="5" y="6" x="6" height="38" width="38"
        fill="#f2f5e9" fill-opacity="0.5" stroke="#606060" stroke-width="1.0"/>
   <path id="arrow"
     d="M 11.500037,31.436501 C 11.940474,20.09759 22.043105,11.32322 32.158766,21.979434 L 37.068811,17.246167 C 37.068811,17.246167 37.088388,32 37.088388,32 L 22.160133,31.978069 C 22.160133,31.978069 26.997745,27.140456 26.997745,27.140456 C 18.528582,18.264221 13.291696,25.230495 11.500037,31.436501 z"
     style="fill:#404040;"/>
  </a>
 </g>
</svg>

<style type='text/css'>
<![CDATA[
[data-mouse-over-selected='false'] { opacity: 0.7; }
[data-mouse-over-selected='true']  { opacity: 1.0; }
]]>
</style>
<script type="application/ecmascript"><![CDATA[
document.addEventListener('DOMContentLoaded', (event) => {
  highlightEdges();
  highlightAdjacentNodes();
});
]]></script>
</svg>
