<?xml version="1.0" encoding="UTF-8" standalone="no"?>
<!DOCTYPE svg PUBLIC "-//W3C//DTD SVG 1.1//EN"
 "http://www.w3.org/Graphics/SVG/1.1/DTD/svg11.dtd">
<!-- Generated by graphviz version 2.43.0 (0)
 -->
<!-- Title: fl::unordered_set::unordered_set Pages: 1 -->
<svg width="252pt" height="326pt"
 viewBox="0.00 0.00 252.00 326.00" xmlns="http://www.w3.org/2000/svg" xmlns:xlink="http://www.w3.org/1999/xlink">

<svg id="main" version="1.1" xmlns="http://www.w3.org/2000/svg" xmlns:xlink="http://www.w3.org/1999/xlink" xml:space="preserve">

<style type="text/css"><![CDATA[
.node, .edge {opacity: 0.7;}
.node.selected, .edge.selected {opacity: 1;}
.edge:hover path { stroke: red; }
.edge:hover polygon { stroke: red; fill: red; }
]]></style>
<script type="application/ecmascript" xlink:href="../../svg.min.js"/>
<svg id="graph" class="graph">
<g id="graph0" class="graph" transform="scale(1 1) rotate(0) translate(4 322)">
<title>fl::unordered_set::unordered_set</title>
<!-- Node1 -->
<g id="Node000001" class="node">
<title>Node1</title>
<g id="a_Node000001"><a xlink:title=" ">
<polygon fill="#999999" stroke="#666666" points="244,-174 140,-174 140,-144 244,-144 244,-174"/>
<text text-anchor="start" x="148" y="-162" font-family="Helvetica,sans-Serif" font-size="10.00">fl::unordered_set::</text>
<text text-anchor="middle" x="192" y="-151" font-family="Helvetica,sans-Serif" font-size="10.00">unordered_set</text>
</a>
</g>
</g>
<!-- Node2 -->
<g id="Node000002" class="node">
<title>Node2</title>
<g id="a_Node000002"><a xlink:href="../../dd/d07/classfl_1_1unordered__set_a2904f34b4fe6847e481236e268682efa.html#a2904f34b4fe6847e481236e268682efa" target="_top" xlink:title=" ">
<polygon fill="white" stroke="#666666" points="104,-318 0,-318 0,-288 104,-288 104,-318"/>
<text text-anchor="start" x="8" y="-306" font-family="Helvetica,sans-Serif" font-size="10.00">fl::unordered_set::</text>
<text text-anchor="middle" x="52" y="-295" font-family="Helvetica,sans-Serif" font-size="10.00">unordered_set</text>
</a>
</g>
</g>
<!-- Node1&#45;&gt;Node2 -->
<g id="edge1_Node000001_Node000002" class="edge">
<title>Node1&#45;&gt;Node2</title>
<g id="a_edge1_Node000001_Node000002"><a xlink:title=" ">
<path fill="none" stroke="#63b8ff" d="M178.41,-183.13C163.6,-209.56 136.83,-251.81 104,-279 100.01,-282.31 95.48,-285.27 90.81,-287.9"/>
<polygon fill="#63b8ff" stroke="#63b8ff" points="181.58,-184.62 183.31,-174.16 175.44,-181.26 181.58,-184.62"/>
</a>
</g>
</g>
<!-- Node3 -->
<g id="Node000003" class="node">
<title>Node3</title>
<g id="a_Node000003"><a xlink:href="../../dd/d07/classfl_1_1unordered__set_a793f72edbdddde743a191c98a940dc34.html#a793f72edbdddde743a191c98a940dc34" target="_top" xlink:title=" ">
<polygon fill="white" stroke="#666666" points="104,-270 0,-270 0,-240 104,-240 104,-270"/>
<text text-anchor="start" x="8" y="-258" font-family="Helvetica,sans-Serif" font-size="10.00">fl::unordered_set::</text>
<text text-anchor="middle" x="52" y="-247" font-family="Helvetica,sans-Serif" font-size="10.00">unordered_set</text>
</a>
</g>
</g>
<!-- Node1&#45;&gt;Node3 -->
<g id="edge2_Node000001_Node000003" class="edge">
<title>Node1&#45;&gt;Node3</title>
<g id="a_edge2_Node000001_Node000003"><a xlink:title=" ">
<path fill="none" stroke="#63b8ff" d="M167.59,-181.15C150.75,-196.36 127.04,-216.37 104,-231 99.04,-234.15 93.61,-237.14 88.19,-239.87"/>
<polygon fill="#63b8ff" stroke="#63b8ff" points="170.26,-183.45 175.27,-174.11 165.53,-178.28 170.26,-183.45"/>
</a>
</g>
</g>
<!-- Node4 -->
<g id="Node000004" class="node">
<title>Node4</title>
<g id="a_Node000004"><a xlink:href="../../dd/d07/classfl_1_1unordered__set_ae80aa2fbf6301ba845dc1da77eb4ea0d.html#ae80aa2fbf6301ba845dc1da77eb4ea0d" target="_top" xlink:title=" ">
<polygon fill="white" stroke="#666666" points="104,-222 0,-222 0,-192 104,-192 104,-222"/>
<text text-anchor="start" x="8" y="-210" font-family="Helvetica,sans-Serif" font-size="10.00">fl::unordered_set::</text>
<text text-anchor="middle" x="52" y="-199" font-family="Helvetica,sans-Serif" font-size="10.00">unordered_set</text>
</a>
</g>
</g>
<!-- Node1&#45;&gt;Node4 -->
<g id="edge3_Node000001_Node000004" class="edge">
<title>Node1&#45;&gt;Node4</title>
<g id="a_edge3_Node000001_Node000004"><a xlink:title=" ">
<path fill="none" stroke="#63b8ff" d="M138.26,-177.35C124.34,-182.19 109.48,-187.36 96.13,-192"/>
<polygon fill="#63b8ff" stroke="#63b8ff" points="139.42,-180.65 147.71,-174.06 137.12,-174.04 139.42,-180.65"/>
</a>
</g>
</g>
<!-- Node5 -->
<g id="Node000005" class="node">
<title>Node5</title>
<g id="a_Node000005"><a xlink:href="../../dd/d07/classfl_1_1unordered__set_a5f9b83fb69b63df272c4c6435317f69a.html#a5f9b83fb69b63df272c4c6435317f69a" target="_top" xlink:title="Inequality comparison.">
<polygon fill="white" stroke="#666666" points="104,-174 0,-174 0,-144 104,-144 104,-174"/>
<text text-anchor="start" x="8" y="-162" font-family="Helvetica,sans-Serif" font-size="10.00">fl::unordered_set::</text>
<text text-anchor="middle" x="52" y="-151" font-family="Helvetica,sans-Serif" font-size="10.00">operator!=</text>
</a>
</g>
</g>
<!-- Node1&#45;&gt;Node5 -->
<g id="edge4_Node000001_Node000005" class="edge">
<title>Node1&#45;&gt;Node5</title>
<g id="a_edge4_Node000001_Node000005"><a xlink:title=" ">
<path fill="none" stroke="#63b8ff" d="M129.5,-159C121.13,-159 112.6,-159 104.43,-159"/>
<polygon fill="#63b8ff" stroke="#63b8ff" points="129.61,-162.5 139.61,-159 129.61,-155.5 129.61,-162.5"/>
</a>
</g>
</g>
<!-- Node6 -->
<g id="Node000006" class="node">
<title>Node6</title>
<g id="a_Node000006"><a xlink:href="../../dd/d07/classfl_1_1unordered__set_a82ae9b9ac4d8ffb931bb6cb6c3133e18.html#a82ae9b9ac4d8ffb931bb6cb6c3133e18" target="_top" xlink:title=" ">
<polygon fill="white" stroke="#666666" points="104,-126 0,-126 0,-96 104,-96 104,-126"/>
<text text-anchor="start" x="8" y="-114" font-family="Helvetica,sans-Serif" font-size="10.00">fl::unordered_set::</text>
<text text-anchor="middle" x="52" y="-103" font-family="Helvetica,sans-Serif" font-size="10.00">operator=</text>
</a>
</g>
</g>
<!-- Node1&#45;&gt;Node6 -->
<g id="edge5_Node000001_Node000006" class="edge">
<title>Node1&#45;&gt;Node6</title>
<g id="a_edge5_Node000001_Node000006"><a xlink:title=" ">
<path fill="none" stroke="#63b8ff" d="M138.26,-140.65C124.34,-135.81 109.48,-130.64 96.13,-126"/>
<polygon fill="#63b8ff" stroke="#63b8ff" points="137.12,-143.96 147.71,-143.94 139.42,-137.35 137.12,-143.96"/>
</a>
</g>
</g>
<!-- Node7 -->
<g id="Node000007" class="node">
<title>Node7</title>
<g id="a_Node000007"><a xlink:href="../../dd/d07/classfl_1_1unordered__set_a3ed72357295f35510e4aeca39c607310.html#a3ed72357295f35510e4aeca39c607310" target="_top" xlink:title=" ">
<polygon fill="white" stroke="#666666" points="104,-78 0,-78 0,-48 104,-48 104,-78"/>
<text text-anchor="start" x="8" y="-66" font-family="Helvetica,sans-Serif" font-size="10.00">fl::unordered_set::</text>
<text text-anchor="middle" x="52" y="-55" font-family="Helvetica,sans-Serif" font-size="10.00">operator=</text>
</a>
</g>
</g>
<!-- Node1&#45;&gt;Node7 -->
<g id="edge6_Node000001_Node000007" class="edge">
<title>Node1&#45;&gt;Node7</title>
<g id="a_edge6_Node000001_Node000007"><a xlink:title=" ">
<path fill="none" stroke="#63b8ff" d="M167.59,-136.85C150.75,-121.64 127.04,-101.63 104,-87 99.04,-83.85 93.61,-80.86 88.19,-78.13"/>
<polygon fill="#63b8ff" stroke="#63b8ff" points="165.53,-139.72 175.27,-143.89 170.26,-134.55 165.53,-139.72"/>
</a>
</g>
</g>
<!-- Node8 -->
<g id="Node000008" class="node">
<title>Node8</title>
<g id="a_Node000008"><a xlink:href="../../dd/d07/classfl_1_1unordered__set_a5911dc6850e26f1edb62fd0662da2b38.html#a5911dc6850e26f1edb62fd0662da2b38" target="_top" xlink:title="Equality comparison (set equality: same elements, order&#45;independent)">
<polygon fill="white" stroke="#666666" points="104,-30 0,-30 0,0 104,0 104,-30"/>
<text text-anchor="start" x="8" y="-18" font-family="Helvetica,sans-Serif" font-size="10.00">fl::unordered_set::</text>
<text text-anchor="middle" x="52" y="-7" font-family="Helvetica,sans-Serif" font-size="10.00">operator==</text>
</a>
</g>
</g>
<!-- Node1&#45;&gt;Node8 -->
<g id="edge7_Node000001_Node000008" class="edge">
<title>Node1&#45;&gt;Node8</title>
<g id="a_edge7_Node000001_Node000008"><a xlink:title=" ">
<path fill="none" stroke="#63b8ff" d="M178.41,-134.87C163.6,-108.44 136.83,-66.19 104,-39 100.01,-35.69 95.48,-32.73 90.81,-30.1"/>
<polygon fill="#63b8ff" stroke="#63b8ff" points="175.44,-136.74 183.31,-143.84 181.58,-133.38 175.44,-136.74"/>
</a>
</g>
</g>
</g>
</svg>
</svg>

<style type='text/css'>
<![CDATA[
[data-mouse-over-selected='false'] { opacity: 0.7; }
[data-mouse-over-selected='true']  { opacity: 1.0; }
]]>
</style>
<script type="application/ecmascript"><![CDATA[
document.addEventListener('DOMContentLoaded', (event) => {
  highlightEdges();
  highlightAdjacentNodes();
});
]]></script>
</svg>
