<?xml version="1.0" encoding="UTF-8" standalone="no"?>
<!DOCTYPE svg PUBLIC "-//W3C//DTD SVG 1.1//EN"
 "http://www.w3.org/Graphics/SVG/1.1/DTD/svg11.dtd">
<!-- Generated by graphviz version 2.43.0 (0)
 -->
<!-- Title: fl::u8x8::ceil Pages: 1 -->
<svg width="344pt" height="64pt"
 viewBox="0.00 0.00 344.00 64.00" xmlns="http://www.w3.org/2000/svg" xmlns:xlink="http://www.w3.org/1999/xlink">
<g id="graph0" class="graph" transform="scale(1 1) rotate(0) translate(4 60)">
<title>fl::u8x8::ceil</title>
<!-- Node1 -->
<g id="Node000001" class="node">
<title>Node1</title>
<g id="a_Node000001"><a xlink:title=" ">
<polygon fill="#999999" stroke="#666666" points="76,-38 0,-38 0,-19 76,-19 76,-38"/>
<text text-anchor="middle" x="38" y="-26" font-family="Helvetica,sans-Serif" font-size="10.00">fl::u8x8::ceil</text>
</a>
</g>
</g>
<!-- Node2 -->
<g id="Node000002" class="node">
<title>Node2</title>
<g id="a_Node000002"><a xlink:href="../../d5/dec/classfl_1_1u8x8_af0bfb544ff5558dc2bcb3986ddbfa1b8.html#af0bfb544ff5558dc2bcb3986ddbfa1b8" target="_top" xlink:title=" ">
<polygon fill="white" stroke="#666666" points="336,-56 253,-56 253,-37 336,-37 336,-56"/>
<text text-anchor="middle" x="294.5" y="-44" font-family="Helvetica,sans-Serif" font-size="10.00">fl::u8x8::u8x8</text>
</a>
</g>
</g>
<!-- Node1&#45;&gt;Node2 -->
<g id="edge1_Node000001_Node000002" class="edge">
<title>Node1&#45;&gt;Node2</title>
<g id="a_edge1_Node000001_Node000002"><a xlink:title=" ">
<path fill="none" stroke="#63b8ff" d="M76.01,-31.12C119.9,-34.22 193.29,-39.41 242.53,-42.9"/>
<polygon fill="#63b8ff" stroke="#63b8ff" points="242.43,-46.4 252.66,-43.61 242.93,-39.41 242.43,-46.4"/>
</a>
</g>
</g>
<!-- Node3 -->
<g id="Node000003" class="node">
<title>Node3</title>
<g id="a_Node000003"><a xlink:href="../../d5/dec/classfl_1_1u8x8_a7e4afb60be35fded1580db7b9f469280.html#a7e4afb60be35fded1580db7b9f469280" target="_top" xlink:title=" ">
<polygon fill="white" stroke="#666666" points="217,-19 112,-19 112,0 217,0 217,-19"/>
<text text-anchor="middle" x="164.5" y="-7" font-family="Helvetica,sans-Serif" font-size="10.00">fl::u8x8::from_raw</text>
</a>
</g>
</g>
<!-- Node1&#45;&gt;Node3 -->
<g id="edge2_Node000001_Node000003" class="edge">
<title>Node1&#45;&gt;Node3</title>
<g id="a_edge2_Node000001_Node000003"><a xlink:title=" ">
<path fill="none" stroke="#63b8ff" d="M76.02,-22.85C84.14,-21.61 92.96,-20.27 101.76,-18.92"/>
<polygon fill="#63b8ff" stroke="#63b8ff" points="102.29,-22.38 111.65,-17.41 101.24,-15.46 102.29,-22.38"/>
</a>
</g>
</g>
<!-- Node3&#45;&gt;Node2 -->
<g id="edge3_Node000003_Node000002" class="edge">
<title>Node3&#45;&gt;Node2</title>
<g id="a_edge3_Node000003_Node000002"><a xlink:title=" ">
<path fill="none" stroke="#63b8ff" d="M198.46,-19.03C214.31,-23.61 233.52,-29.16 250.5,-34.07"/>
<polygon fill="#63b8ff" stroke="#63b8ff" points="249.62,-37.46 260.2,-36.88 251.57,-30.74 249.62,-37.46"/>
</a>
</g>
</g>
<!-- Node4 -->
<g id="Node000004" class="node">
<title>Node4</title>
<g id="a_Node000004"><a xlink:href="../../d5/dec/classfl_1_1u8x8_a6f24da2ef3b9c2ec020e488f86d26631.html#a6f24da2ef3b9c2ec020e488f86d26631" target="_top" xlink:title=" ">
<polygon fill="white" stroke="#666666" points="333,-19 256,-19 256,0 333,0 333,-19"/>
<text text-anchor="middle" x="294.5" y="-7" font-family="Helvetica,sans-Serif" font-size="10.00">fl::u8x8::raw</text>
</a>
</g>
</g>
<!-- Node3&#45;&gt;Node4 -->
<g id="edge4_Node000003_Node000004" class="edge">
<title>Node3&#45;&gt;Node4</title>
<g id="a_edge4_Node000003_Node000004"><a xlink:title=" ">
<path fill="none" stroke="#63b8ff" d="M217.19,-9.5C226.57,-9.5 236.31,-9.5 245.58,-9.5"/>
<polygon fill="#63b8ff" stroke="#63b8ff" points="245.78,-13 255.78,-9.5 245.78,-6 245.78,-13"/>
</a>
</g>
</g>
</g>
</svg>
