<?xml version="1.0" encoding="UTF-8" standalone="no"?>
<!DOCTYPE svg PUBLIC "-//W3C//DTD SVG 1.1//EN"
 "http://www.w3.org/Graphics/SVG/1.1/DTD/svg11.dtd">
<!-- Generated by graphviz version 2.43.0 (0)
 -->
<!-- Title: fl::malloc Pages: 1 -->
<svg width="1002pt" height="657pt"
 viewBox="0.00 0.00 1002.00 656.50" xmlns="http://www.w3.org/2000/svg" xmlns:xlink="http://www.w3.org/1999/xlink">
<g id="graph0" class="graph" transform="scale(1 1) rotate(0) translate(4 652.5)">
<title>fl::malloc</title>
<!-- Node1 -->
<g id="Node000001" class="node">
<title>Node1</title>
<g id="a_Node000001"><a xlink:title=" ">
<polygon fill="#999999" stroke="#666666" points="994,-354.5 932,-354.5 932,-335.5 994,-335.5 994,-354.5"/>
<text text-anchor="middle" x="963" y="-342.5" font-family="Helvetica,sans-Serif" font-size="10.00">fl::malloc</text>
</a>
</g>
</g>
<!-- Node2 -->
<g id="Node000002" class="node">
<title>Node2</title>
<g id="a_Node000002"><a xlink:href="../../dc/da7/classfl_1_1_string_holder_acbd3db257d43028dc77918c96b6768cf.html#acbd3db257d43028dc77918c96b6768cf" target="_top" xlink:title=" ">
<polygon fill="white" stroke="#666666" points="877.5,-633 753.5,-633 753.5,-603 877.5,-603 877.5,-633"/>
<text text-anchor="start" x="761.5" y="-621" font-family="Helvetica,sans-Serif" font-size="10.00">fl::StringHolder::String</text>
<text text-anchor="middle" x="815.5" y="-610" font-family="Helvetica,sans-Serif" font-size="10.00">Holder</text>
</a>
</g>
</g>
<!-- Node1&#45;&gt;Node2 -->
<g id="edge1_Node000001_Node000002" class="edge">
<title>Node1&#45;&gt;Node2</title>
<g id="a_edge1_Node000001_Node000002"><a xlink:title=" ">
<path fill="none" stroke="#63b8ff" d="M962.81,-364.97C963.57,-411.69 958.75,-529.08 896,-594 890.79,-599.39 884.42,-603.58 877.57,-606.84"/>
<polygon fill="#63b8ff" stroke="#63b8ff" points="966.3,-364.59 962.53,-354.69 959.3,-364.78 966.3,-364.59"/>
</a>
</g>
</g>
<!-- Node5 -->
<g id="Node000005" class="node">
<title>Node5</title>
<g id="a_Node000005"><a xlink:href="../../dc/da7/classfl_1_1_string_holder_a8b3659a6af4c141a4025a9476e29daf3.html#a8b3659a6af4c141a4025a9476e29daf3" target="_top" xlink:title=" ">
<polygon fill="white" stroke="#666666" points="877.5,-585 753.5,-585 753.5,-555 877.5,-555 877.5,-585"/>
<text text-anchor="start" x="761.5" y="-573" font-family="Helvetica,sans-Serif" font-size="10.00">fl::StringHolder::String</text>
<text text-anchor="middle" x="815.5" y="-562" font-family="Helvetica,sans-Serif" font-size="10.00">Holder</text>
</a>
</g>
</g>
<!-- Node1&#45;&gt;Node5 -->
<g id="edge4_Node000001_Node000005" class="edge">
<title>Node1&#45;&gt;Node5</title>
<g id="a_edge4_Node000001_Node000005"><a xlink:title=" ">
<path fill="none" stroke="#63b8ff" d="M961.32,-364.6C958.85,-404.51 947.54,-495.69 896,-546 890.74,-551.14 884.42,-555.18 877.67,-558.36"/>
<polygon fill="#63b8ff" stroke="#63b8ff" points="964.81,-364.73 961.81,-354.57 957.82,-364.39 964.81,-364.73"/>
</a>
</g>
</g>
<!-- Node6 -->
<g id="Node000006" class="node">
<title>Node6</title>
<g id="a_Node000006"><a xlink:href="../../dc/da7/classfl_1_1_string_holder_a8e4aae42f86f9eaa04093b42241fdb0a.html#a8e4aae42f86f9eaa04093b42241fdb0a" target="_top" xlink:title=" ">
<polygon fill="white" stroke="#666666" points="877.5,-537 753.5,-537 753.5,-507 877.5,-507 877.5,-537"/>
<text text-anchor="start" x="761.5" y="-525" font-family="Helvetica,sans-Serif" font-size="10.00">fl::StringHolder::String</text>
<text text-anchor="middle" x="815.5" y="-514" font-family="Helvetica,sans-Serif" font-size="10.00">Holder</text>
</a>
</g>
</g>
<!-- Node1&#45;&gt;Node6 -->
<g id="edge5_Node000001_Node000006" class="edge">
<title>Node1&#45;&gt;Node6</title>
<g id="a_edge5_Node000001_Node000006"><a xlink:title=" ">
<path fill="none" stroke="#63b8ff" d="M958.99,-364.53C952.97,-396.98 936.36,-462 896,-498 890.62,-502.8 884.31,-506.64 877.64,-509.71"/>
<polygon fill="#63b8ff" stroke="#63b8ff" points="962.47,-364.95 960.71,-354.51 955.57,-363.78 962.47,-364.95"/>
</a>
</g>
</g>
<!-- Node7 -->
<g id="Node000007" class="node">
<title>Node7</title>
<g id="a_Node000007"><a xlink:href="../../d7/d3a/classfl_1_1audio_1_1_synth_oscillator_impl_a413e2f9384827a2f4e4a57e1e258ec41.html#a413e2f9384827a2f4e4a57e1e258ec41" target="_top" xlink:title=" ">
<polygon fill="white" stroke="#666666" points="885.5,-489 745.5,-489 745.5,-459 885.5,-459 885.5,-489"/>
<text text-anchor="start" x="753.5" y="-477" font-family="Helvetica,sans-Serif" font-size="10.00">fl::audio::SynthOscillator</text>
<text text-anchor="middle" x="815.5" y="-466" font-family="Helvetica,sans-Serif" font-size="10.00">Impl::SynthOscillatorImpl</text>
</a>
</g>
</g>
<!-- Node1&#45;&gt;Node7 -->
<g id="edge6_Node000001_Node000007" class="edge">
<title>Node1&#45;&gt;Node7</title>
<g id="a_edge6_Node000001_Node000007"><a xlink:title=" ">
<path fill="none" stroke="#63b8ff" d="M954.81,-364.37C945.05,-388 925.4,-427.58 896,-450 891.53,-453.41 886.57,-456.34 881.39,-458.85"/>
<polygon fill="#63b8ff" stroke="#63b8ff" points="958.19,-365.33 958.59,-354.75 951.67,-362.77 958.19,-365.33"/>
</a>
</g>
</g>
<!-- Node10 -->
<g id="Node000010" class="node">
<title>Node10</title>
<g id="a_Node000010"><a xlink:href="../../d1/d86/namespacefl_1_1third__party_ad3f8eb47709e0da9639398c4ba575643.html#ad3f8eb47709e0da9639398c4ba575643" target="_top" xlink:title=" ">
<polygon fill="white" stroke="#666666" points="879,-441 752,-441 752,-411 879,-411 879,-441"/>
<text text-anchor="start" x="760" y="-429" font-family="Helvetica,sans-Serif" font-size="10.00">fl::third_party::Allocate</text>
<text text-anchor="middle" x="815.5" y="-418" font-family="Helvetica,sans-Serif" font-size="10.00">Buffers</text>
</a>
</g>
</g>
<!-- Node1&#45;&gt;Node10 -->
<g id="edge9_Node000001_Node000010" class="edge">
<title>Node1&#45;&gt;Node10</title>
<g id="a_edge9_Node000001_Node000010"><a xlink:title=" ">
<path fill="none" stroke="#63b8ff" d="M946.15,-362.13C933.62,-374.75 915.12,-391.49 896,-402 889.81,-405.4 883.08,-408.38 876.24,-410.98"/>
<polygon fill="#63b8ff" stroke="#63b8ff" points="948.71,-364.52 953.13,-354.89 943.67,-359.66 948.71,-364.52"/>
</a>
</g>
</g>
<!-- Node14 -->
<g id="Node000014" class="node">
<title>Node14</title>
<g id="a_Node000014"><a xlink:href="../../d4/d36/namespacefl_a52ef0528082dc77bc55e051dbcd59e6e.html#a52ef0528082dc77bc55e051dbcd59e6e" target="_top" xlink:title=" ">
<polygon fill="white" stroke="#666666" points="844,-392.5 787,-392.5 787,-373.5 844,-373.5 844,-392.5"/>
<text text-anchor="middle" x="815.5" y="-380.5" font-family="Helvetica,sans-Serif" font-size="10.00">fl::calloc</text>
</a>
</g>
</g>
<!-- Node1&#45;&gt;Node14 -->
<g id="edge12_Node000001_Node000014" class="edge">
<title>Node1&#45;&gt;Node14</title>
<g id="a_edge12_Node000001_Node000014"><a xlink:title=" ">
<path fill="none" stroke="#63b8ff" d="M922.03,-355.44C897.3,-361.9 866.17,-370.03 844.15,-375.78"/>
<polygon fill="#63b8ff" stroke="#63b8ff" points="923.06,-358.79 931.85,-352.87 921.29,-352.01 923.06,-358.79"/>
</a>
</g>
</g>
<!-- Node16 -->
<g id="Node000016" class="node">
<title>Node16</title>
<g id="a_Node000016"><a xlink:href="../../dc/dbc/cq__kernel_8cpp_8hpp_ab9b042f75bb8bd703e4379671c6428a5.html#ab9b042f75bb8bd703e4379671c6428a5" target="_top" xlink:title=" ">
<polygon fill="#fff0f0" stroke="red" points="501.5,-373.5 400.5,-373.5 400.5,-354.5 501.5,-354.5 501.5,-373.5"/>
<text text-anchor="middle" x="451" y="-361.5" font-family="Helvetica,sans-Serif" font-size="10.00">generate_kernels</text>
</a>
</g>
</g>
<!-- Node1&#45;&gt;Node16 -->
<g id="edge17_Node000001_Node000016" class="edge">
<title>Node1&#45;&gt;Node16</title>
<g id="a_edge17_Node000001_Node000016"><a xlink:title=" ">
<path fill="none" stroke="#63b8ff" d="M921.54,-346.51C829.05,-349.95 602.35,-358.4 501.63,-362.15"/>
<polygon fill="#63b8ff" stroke="#63b8ff" points="921.76,-350 931.62,-346.13 921.5,-343.01 921.76,-350"/>
</a>
</g>
</g>
<!-- Node20 -->
<g id="Node000020" class="node">
<title>Node20</title>
<g id="a_Node000020"><a xlink:href="../../d3/d5a/namespacefl_1_1anonymous__namespace_02allocator_8cpp_8hpp_03_aa05eec3b6430479957ddf5c2aba20fe9.html#aa05eec3b6430479957ddf5c2aba20fe9" target="_top" xlink:title=" ">
<polygon fill="white" stroke="#666666" points="889,-298.5 742,-298.5 742,-257.5 889,-257.5 889,-298.5"/>
<text text-anchor="start" x="750" y="-286.5" font-family="Helvetica,sans-Serif" font-size="10.00">fl::anonymous_namespace</text>
<text text-anchor="start" x="750" y="-275.5" font-family="Helvetica,sans-Serif" font-size="10.00">{allocator::cpp::hpp}</text>
<text text-anchor="middle" x="815.5" y="-264.5" font-family="Helvetica,sans-Serif" font-size="10.00">::DefaultAlloc</text>
</a>
</g>
</g>
<!-- Node1&#45;&gt;Node20 -->
<g id="edge15_Node000001_Node000020" class="edge">
<title>Node1&#45;&gt;Node20</title>
<g id="a_edge15_Node000001_Node000020"><a xlink:title=" ">
<path fill="none" stroke="#63b8ff" d="M932.03,-331.2C911.63,-321.81 884.28,-309.21 861.3,-298.63"/>
<polygon fill="#63b8ff" stroke="#63b8ff" points="930.61,-334.4 941.15,-335.4 933.53,-328.04 930.61,-334.4"/>
</a>
</g>
</g>
<!-- Node21 -->
<g id="Node000021" class="node">
<title>Node21</title>
<g id="a_Node000021"><a xlink:href="../../dc/dbc/cq__kernel_8cpp_8hpp_a6d0603090e0d05b9a4644dde643a3fa8.html#a6d0603090e0d05b9a4644dde643a3fa8" target="_top" xlink:title=" ">
<polygon fill="white" stroke="#666666" points="868.5,-239.5 762.5,-239.5 762.5,-220.5 868.5,-220.5 868.5,-239.5"/>
<text text-anchor="middle" x="815.5" y="-227.5" font-family="Helvetica,sans-Serif" font-size="10.00">reallocate_kernels</text>
</a>
</g>
</g>
<!-- Node1&#45;&gt;Node21 -->
<g id="edge18_Node000001_Node000021" class="edge">
<title>Node1&#45;&gt;Node21</title>
<g id="a_edge18_Node000001_Node000021"><a xlink:title=" ">
<path fill="none" stroke="#63b8ff" d="M954.11,-326.06C943.96,-304.07 924.21,-268.37 896,-249 887.93,-243.46 878.43,-239.52 868.86,-236.73"/>
<polygon fill="#63b8ff" stroke="#63b8ff" points="950.97,-327.61 958.21,-335.35 957.38,-324.79 950.97,-327.61"/>
</a>
</g>
</g>
<!-- Node22 -->
<g id="Node000022" class="node">
<title>Node22</title>
<g id="a_Node000022"><a xlink:href="../../d2/d59/namespacefl_1_1third__party_1_1vorbis_a880f19b8c94d0fd9065503684b81bb4b.html#a880f19b8c94d0fd9065503684b81bb4b" target="_top" xlink:title=" ">
<polygon fill="white" stroke="#666666" points="874,-154 757,-154 757,-124 874,-124 874,-154"/>
<text text-anchor="start" x="765" y="-142" font-family="Helvetica,sans-Serif" font-size="10.00">fl::third_party::vorbis</text>
<text text-anchor="middle" x="815.5" y="-131" font-family="Helvetica,sans-Serif" font-size="10.00">::setup_malloc</text>
</a>
</g>
</g>
<!-- Node1&#45;&gt;Node22 -->
<g id="edge19_Node000001_Node000022" class="edge">
<title>Node1&#45;&gt;Node22</title>
<g id="a_edge19_Node000001_Node000022"><a xlink:title=" ">
<path fill="none" stroke="#63b8ff" d="M960.54,-325.48C956.7,-288.42 943.11,-207.6 896,-163 889.82,-157.15 882.27,-152.72 874.3,-149.37"/>
<polygon fill="#63b8ff" stroke="#63b8ff" points="957.05,-325.84 961.44,-335.49 964.03,-325.21 957.05,-325.84"/>
</a>
</g>
</g>
<!-- Node30 -->
<g id="Node000030" class="node">
<title>Node30</title>
<g id="a_Node000030"><a xlink:href="../../d2/d59/namespacefl_1_1third__party_1_1vorbis_af955059708f848a575ff7699cf831d99.html#af955059708f848a575ff7699cf831d99" target="_top" xlink:title=" ">
<polygon fill="white" stroke="#666666" points="160,-118 0,-118 0,-88 160,-88 160,-118"/>
<text text-anchor="start" x="8" y="-106" font-family="Helvetica,sans-Serif" font-size="10.00">fl::third_party::vorbis</text>
<text text-anchor="middle" x="80" y="-95" font-family="Helvetica,sans-Serif" font-size="10.00">::stb_vorbis_decode_memory</text>
</a>
</g>
</g>
<!-- Node1&#45;&gt;Node30 -->
<g id="edge35_Node000001_Node000030" class="edge">
<title>Node1&#45;&gt;Node30</title>
<g id="a_edge35_Node000001_Node000030"><a xlink:title=" ">
<path fill="none" stroke="#63b8ff" d="M962.63,-325.29C962.91,-280.75 956.94,-171.8 896,-115 806.76,-31.82 749.49,-58 627.5,-58 627.5,-58 627.5,-58 450,-58 336.8,-58 307.96,-60.25 196,-77 177.58,-79.76 157.72,-83.84 139.78,-87.96"/>
<polygon fill="#63b8ff" stroke="#63b8ff" points="959.13,-325.32 962.45,-335.38 966.13,-325.45 959.13,-325.32"/>
</a>
</g>
</g>
<!-- Node33 -->
<g id="Node000033" class="node">
<title>Node33</title>
<g id="a_Node000033"><a xlink:href="../../d2/d59/namespacefl_1_1third__party_1_1vorbis_acd4749fd07b6d5e56c3c276234970987.html#acd4749fd07b6d5e56c3c276234970987" target="_top" xlink:title=" ">
<polygon fill="white" stroke="#666666" points="875,-202 756,-202 756,-172 875,-172 875,-202"/>
<text text-anchor="start" x="764" y="-190" font-family="Helvetica,sans-Serif" font-size="10.00">fl::third_party::vorbis</text>
<text text-anchor="middle" x="815.5" y="-179" font-family="Helvetica,sans-Serif" font-size="10.00">::setup_temp_malloc</text>
</a>
</g>
</g>
<!-- Node1&#45;&gt;Node33 -->
<g id="edge31_Node000001_Node000033" class="edge">
<title>Node1&#45;&gt;Node33</title>
<g id="a_edge31_Node000001_Node000033"><a xlink:title=" ">
<path fill="none" stroke="#63b8ff" d="M957.55,-325.62C949.93,-296.72 931.61,-242.45 896,-212 889.95,-206.83 882.83,-202.73 875.38,-199.47"/>
<polygon fill="#63b8ff" stroke="#63b8ff" points="954.16,-326.49 959.97,-335.36 960.96,-324.81 954.16,-326.49"/>
</a>
</g>
</g>
<!-- Node28 -->
<g id="Node000028" class="node">
<title>Node28</title>
<g id="a_Node000028"><a xlink:href="../../d2/d59/namespacefl_1_1third__party_1_1vorbis_a8b3f9859a51ffdd92598d45797fdbdc8.html#a8b3f9859a51ffdd92598d45797fdbdc8" target="_top" xlink:title=" ">
<polygon fill="white" stroke="#666666" points="896,-30 735,-30 735,0 896,0 896,-30"/>
<text text-anchor="start" x="743" y="-18" font-family="Helvetica,sans-Serif" font-size="10.00">fl::third_party::vorbis</text>
<text text-anchor="middle" x="815.5" y="-7" font-family="Helvetica,sans-Serif" font-size="10.00">::stb_vorbis_decode_filename</text>
</a>
</g>
</g>
<!-- Node1&#45;&gt;Node28 -->
<g id="edge34_Node000001_Node000028" class="edge">
<title>Node1&#45;&gt;Node28</title>
<g id="a_edge34_Node000001_Node000028"><a xlink:title=" ">
<path fill="none" stroke="#63b8ff" d="M960.16,-325.43C954.15,-265.63 933.38,-86.76 896,-44 891.07,-38.36 884.95,-33.81 878.3,-30.15"/>
<polygon fill="#63b8ff" stroke="#63b8ff" points="956.68,-325.83 961.13,-335.44 963.64,-325.15 956.68,-325.83"/>
</a>
</g>
</g>
<!-- Node3 -->
<g id="Node000003" class="node">
<title>Node3</title>
<g id="a_Node000003"><a xlink:href="../../dc/da7/classfl_1_1_string_holder_ad6313a82eb21f860dde9a2a29bd90f5f.html#ad6313a82eb21f860dde9a2a29bd90f5f" target="_top" xlink:title=" ">
<polygon fill="white" stroke="#666666" points="688.5,-611 564.5,-611 564.5,-581 688.5,-581 688.5,-611"/>
<text text-anchor="start" x="572.5" y="-599" font-family="Helvetica,sans-Serif" font-size="10.00">fl::StringHolder::String</text>
<text text-anchor="middle" x="626.5" y="-588" font-family="Helvetica,sans-Serif" font-size="10.00">Holder</text>
</a>
</g>
</g>
<!-- Node2&#45;&gt;Node3 -->
<g id="edge2_Node000002_Node000003" class="edge">
<title>Node2&#45;&gt;Node3</title>
<g id="a_edge2_Node000002_Node000003"><a xlink:title=" ">
<path fill="none" stroke="#63b8ff" d="M743.12,-609.6C725.13,-607.49 705.98,-605.23 688.55,-603.18"/>
<polygon fill="#63b8ff" stroke="#63b8ff" points="742.93,-613.1 753.27,-610.8 743.75,-606.15 742.93,-613.1"/>
</a>
</g>
</g>
<!-- Node4 -->
<g id="Node000004" class="node">
<title>Node4</title>
<g id="a_Node000004"><a xlink:href="../../dc/da7/classfl_1_1_string_holder_a0304e195e63f89d687bb07a7be63b57c.html#a0304e195e63f89d687bb07a7be63b57c" target="_top" xlink:title=" ">
<polygon fill="white" stroke="#666666" points="699,-648.5 554,-648.5 554,-629.5 699,-629.5 699,-648.5"/>
<text text-anchor="middle" x="626.5" y="-636.5" font-family="Helvetica,sans-Serif" font-size="10.00">fl::StringHolder::operator=</text>
</a>
</g>
</g>
<!-- Node2&#45;&gt;Node4 -->
<g id="edge3_Node000002_Node000004" class="edge">
<title>Node2&#45;&gt;Node4</title>
<g id="a_edge3_Node000002_Node000004"><a xlink:title=" ">
<path fill="none" stroke="#63b8ff" d="M742.99,-626.03C728.66,-627.64 713.61,-629.33 699.27,-630.94"/>
<polygon fill="#63b8ff" stroke="#63b8ff" points="743.72,-629.47 753.27,-624.88 742.94,-622.51 743.72,-629.47"/>
</a>
</g>
</g>
<!-- Node8 -->
<g id="Node000008" class="node">
<title>Node8</title>
<g id="a_Node000008"><a xlink:href="../../d7/d3a/classfl_1_1audio_1_1_synth_oscillator_impl_a3f242d1fb388e2cc814ff6086726d652.html#a3f242d1fb388e2cc814ff6086726d652" target="_top" xlink:title=" ">
<polygon fill="white" stroke="#666666" points="696.5,-489 556.5,-489 556.5,-459 696.5,-459 696.5,-489"/>
<text text-anchor="start" x="564.5" y="-477" font-family="Helvetica,sans-Serif" font-size="10.00">fl::audio::SynthOscillator</text>
<text text-anchor="middle" x="626.5" y="-466" font-family="Helvetica,sans-Serif" font-size="10.00">Impl::SynthOscillatorImpl</text>
</a>
</g>
</g>
<!-- Node7&#45;&gt;Node8 -->
<g id="edge7_Node000007_Node000008" class="edge">
<title>Node7&#45;&gt;Node8</title>
<g id="a_edge7_Node000007_Node000008"><a xlink:title=" ">
<path fill="none" stroke="#63b8ff" d="M735.21,-474C722.38,-474 709.19,-474 696.63,-474"/>
<polygon fill="#63b8ff" stroke="#63b8ff" points="735.4,-477.5 745.4,-474 735.4,-470.5 735.4,-477.5"/>
</a>
</g>
</g>
<!-- Node9 -->
<g id="Node000009" class="node">
<title>Node9</title>
<g id="a_Node000009"><a xlink:href="../../d7/d3a/classfl_1_1audio_1_1_synth_oscillator_impl_a290169135fc41b5864f0b0aa72e8e24e.html#a290169135fc41b5864f0b0aa72e8e24e" target="_top" xlink:title=" ">
<polygon fill="white" stroke="#666666" points="694.5,-537 558.5,-537 558.5,-507 694.5,-507 694.5,-537"/>
<text text-anchor="start" x="566.5" y="-525" font-family="Helvetica,sans-Serif" font-size="10.00">fl::audio::SynthOscillator</text>
<text text-anchor="middle" x="626.5" y="-514" font-family="Helvetica,sans-Serif" font-size="10.00">Impl::operator=</text>
</a>
</g>
</g>
<!-- Node7&#45;&gt;Node9 -->
<g id="edge8_Node000007_Node000009" class="edge">
<title>Node7&#45;&gt;Node9</title>
<g id="a_edge8_Node000007_Node000009"><a xlink:title=" ">
<path fill="none" stroke="#63b8ff" d="M746.01,-491.58C726.3,-496.64 704.99,-502.11 685.95,-507"/>
<polygon fill="#63b8ff" stroke="#63b8ff" points="747.03,-494.93 755.85,-489.06 745.29,-488.15 747.03,-494.93"/>
</a>
</g>
</g>
<!-- Node11 -->
<g id="Node000011" class="node">
<title>Node11</title>
<g id="a_Node000011"><a xlink:href="../../d1/d86/namespacefl_1_1third__party_a1bbf019bbf634f1f38808152ea2231cf.html#a1bbf019bbf634f1f38808152ea2231cf" target="_top" xlink:title=" ">
<polygon fill="white" stroke="#666666" points="688.5,-441 564.5,-441 564.5,-411 688.5,-411 688.5,-441"/>
<text text-anchor="start" x="572.5" y="-429" font-family="Helvetica,sans-Serif" font-size="10.00">fl::third_party::MP3Init</text>
<text text-anchor="middle" x="626.5" y="-418" font-family="Helvetica,sans-Serif" font-size="10.00">Decoder</text>
</a>
</g>
</g>
<!-- Node10&#45;&gt;Node11 -->
<g id="edge10_Node000010_Node000011" class="edge">
<title>Node10&#45;&gt;Node11</title>
<g id="a_edge10_Node000010_Node000011"><a xlink:title=" ">
<path fill="none" stroke="#63b8ff" d="M741.78,-426C724.23,-426 705.66,-426 688.7,-426"/>
<polygon fill="#63b8ff" stroke="#63b8ff" points="741.97,-429.5 751.97,-426 741.97,-422.5 741.97,-429.5"/>
</a>
</g>
</g>
<!-- Node12 -->
<g id="Node000012" class="node">
<title>Node12</title>
<g id="a_Node000012"><a xlink:href="../../df/d1a/classfl_1_1third__party_1_1_mp3_helix_decoder_ac1ab148b62ec5b4341583ecf566c4609.html#ac1ab148b62ec5b4341583ecf566c4609" target="_top" xlink:title=" ">
<polygon fill="#fff0f0" stroke="red" points="518,-441 384,-441 384,-411 518,-411 518,-441"/>
<text text-anchor="start" x="392" y="-429" font-family="Helvetica,sans-Serif" font-size="10.00">fl::third_party::Mp3Helix</text>
<text text-anchor="middle" x="451" y="-418" font-family="Helvetica,sans-Serif" font-size="10.00">Decoder::init</text>
</a>
</g>
</g>
<!-- Node11&#45;&gt;Node12 -->
<g id="edge11_Node000011_Node000012" class="edge">
<title>Node11&#45;&gt;Node12</title>
<g id="a_edge11_Node000011_Node000012"><a xlink:title=" ">
<path fill="none" stroke="#63b8ff" d="M554.04,-426C542.18,-426 529.93,-426 518.22,-426"/>
<polygon fill="#63b8ff" stroke="#63b8ff" points="554.33,-429.5 564.33,-426 554.33,-422.5 554.33,-429.5"/>
</a>
</g>
</g>
<!-- Node15 -->
<g id="Node000015" class="node">
<title>Node15</title>
<g id="a_Node000015"><a xlink:href="../../dc/dbc/cq__kernel_8cpp_8hpp_a8d0409aded952fee0dbbfe485e70d318.html#a8d0409aded952fee0dbbfe485e70d318" target="_top" xlink:title=" ">
<polygon fill="white" stroke="#666666" points="677,-392.5 576,-392.5 576,-373.5 677,-373.5 677,-392.5"/>
<text text-anchor="middle" x="626.5" y="-380.5" font-family="Helvetica,sans-Serif" font-size="10.00">_generate_kernel</text>
</a>
</g>
</g>
<!-- Node14&#45;&gt;Node15 -->
<g id="edge13_Node000014_Node000015" class="edge">
<title>Node14&#45;&gt;Node15</title>
<g id="a_edge13_Node000014_Node000015"><a xlink:title=" ">
<path fill="none" stroke="#63b8ff" d="M776.86,-383C748.14,-383 708.32,-383 677.01,-383"/>
<polygon fill="#63b8ff" stroke="#63b8ff" points="776.91,-386.5 786.91,-383 776.91,-379.5 776.91,-386.5"/>
</a>
</g>
</g>
<!-- Node15&#45;&gt;Node16 -->
<g id="edge14_Node000015_Node000016" class="edge">
<title>Node15&#45;&gt;Node16</title>
<g id="a_edge14_Node000015_Node000016"><a xlink:title=" ">
<path fill="none" stroke="#63b8ff" d="M565.75,-376.46C544.88,-374.17 521.69,-371.63 501.73,-369.45"/>
<polygon fill="#63b8ff" stroke="#63b8ff" points="565.46,-379.95 575.78,-377.56 566.22,-372.99 565.46,-379.95"/>
</a>
</g>
</g>
<!-- Node20&#45;&gt;Node20 -->
<g id="edge16_Node000020_Node000020" class="edge">
<title>Node20&#45;&gt;Node20</title>
<g id="a_edge16_Node000020_Node000020"><a xlink:title=" ">
<path fill="none" stroke="#63b8ff" d="M840.62,-308.46C836.88,-313.24 828.51,-316.5 815.5,-316.5 794.68,-316.5 785.74,-308.15 788.67,-298.6"/>
<polygon fill="#63b8ff" stroke="#63b8ff" points="844.07,-309.05 842.33,-298.6 837.17,-307.85 844.07,-309.05"/>
</a>
</g>
</g>
<!-- Node23 -->
<g id="Node000023" class="node">
<title>Node23</title>
<g id="a_Node000023"><a xlink:href="../../d2/d59/namespacefl_1_1third__party_1_1vorbis_a2ad1da545cb7698155f421e698354b4c.html#a2ad1da545cb7698155f421e698354b4c" target="_top" xlink:title=" ">
<polygon fill="white" stroke="#666666" points="685,-154 568,-154 568,-124 685,-124 685,-154"/>
<text text-anchor="start" x="576" y="-142" font-family="Helvetica,sans-Serif" font-size="10.00">fl::third_party::vorbis</text>
<text text-anchor="middle" x="626.5" y="-131" font-family="Helvetica,sans-Serif" font-size="10.00">::init_blocksize</text>
</a>
</g>
</g>
<!-- Node22&#45;&gt;Node23 -->
<g id="edge20_Node000022_Node000023" class="edge">
<title>Node22&#45;&gt;Node23</title>
<g id="a_edge20_Node000022_Node000023"><a xlink:title=" ">
<path fill="none" stroke="#63b8ff" d="M746.81,-139C726.65,-139 704.74,-139 685.26,-139"/>
<polygon fill="#63b8ff" stroke="#63b8ff" points="746.87,-142.5 756.87,-139 746.87,-135.5 746.87,-142.5"/>
</a>
</g>
</g>
<!-- Node24 -->
<g id="Node000024" class="node">
<title>Node24</title>
<g id="a_Node000024"><a xlink:href="../../d2/d59/namespacefl_1_1third__party_1_1vorbis_ab0378c0ee05eb1d0e59a6e72b4e011f7.html#ab0378c0ee05eb1d0e59a6e72b4e011f7" target="_top" xlink:title=" ">
<polygon fill="white" stroke="#666666" points="509.5,-181 392.5,-181 392.5,-151 509.5,-151 509.5,-181"/>
<text text-anchor="start" x="400.5" y="-169" font-family="Helvetica,sans-Serif" font-size="10.00">fl::third_party::vorbis</text>
<text text-anchor="middle" x="451" y="-158" font-family="Helvetica,sans-Serif" font-size="10.00">::start_decoder</text>
</a>
</g>
</g>
<!-- Node22&#45;&gt;Node24 -->
<g id="edge26_Node000022_Node000024" class="edge">
<title>Node22&#45;&gt;Node24</title>
<g id="a_edge26_Node000022_Node000024"><a xlink:title=" ">
<path fill="none" stroke="#63b8ff" d="M746.87,-155.32C731.24,-158.46 714.62,-161.3 699,-163 634.41,-170.04 559.76,-169.8 509.58,-168.43"/>
<polygon fill="#63b8ff" stroke="#63b8ff" points="747.9,-158.69 756.98,-153.23 746.48,-151.83 747.9,-158.69"/>
</a>
</g>
</g>
<!-- Node32 -->
<g id="Node000032" class="node">
<title>Node32</title>
<g id="a_Node000032"><a xlink:href="../../d2/d59/namespacefl_1_1third__party_1_1vorbis_ad93f5f6b2f7d238474a5687097dab3d4.html#ad93f5f6b2f7d238474a5687097dab3d4" target="_top" xlink:title=" ">
<polygon fill="white" stroke="#666666" points="509.5,-124 392.5,-124 392.5,-94 509.5,-94 509.5,-124"/>
<text text-anchor="start" x="400.5" y="-112" font-family="Helvetica,sans-Serif" font-size="10.00">fl::third_party::vorbis</text>
<text text-anchor="middle" x="451" y="-101" font-family="Helvetica,sans-Serif" font-size="10.00">::vorbis_alloc</text>
</a>
</g>
</g>
<!-- Node22&#45;&gt;Node32 -->
<g id="edge27_Node000022_Node000032" class="edge">
<title>Node22&#45;&gt;Node32</title>
<g id="a_edge27_Node000022_Node000032"><a xlink:title=" ">
<path fill="none" stroke="#63b8ff" d="M746.86,-122.82C731.23,-119.67 714.61,-116.8 699,-115 634.44,-107.57 559.79,-106.83 509.6,-107.47"/>
<polygon fill="#63b8ff" stroke="#63b8ff" points="746.46,-126.31 756.96,-124.91 747.88,-119.45 746.46,-126.31"/>
</a>
</g>
</g>
<!-- Node23&#45;&gt;Node24 -->
<g id="edge21_Node000023_Node000024" class="edge">
<title>Node23&#45;&gt;Node24</title>
<g id="a_edge21_Node000023_Node000024"><a xlink:title=" ">
<path fill="none" stroke="#63b8ff" d="M557.46,-149.59C541.6,-152.06 524.87,-154.66 509.52,-157.05"/>
<polygon fill="#63b8ff" stroke="#63b8ff" points="558.38,-152.99 567.73,-147.99 557.31,-146.07 558.38,-152.99"/>
</a>
</g>
</g>
<!-- Node25 -->
<g id="Node000025" class="node">
<title>Node25</title>
<g id="a_Node000025"><a xlink:href="../../d2/d59/namespacefl_1_1third__party_1_1vorbis_a7f4b0e4e9211077bba5d5c9ed1431260.html#a7f4b0e4e9211077bba5d5c9ed1431260" target="_top" xlink:title=" ">
<polygon fill="#fff0f0" stroke="red" points="333,-223.5 211,-223.5 211,-182.5 333,-182.5 333,-223.5"/>
<text text-anchor="start" x="219" y="-211.5" font-family="Helvetica,sans-Serif" font-size="10.00">fl::third_party::vorbis</text>
<text text-anchor="start" x="219" y="-200.5" font-family="Helvetica,sans-Serif" font-size="10.00">::stb_vorbis_open_file</text>
<text text-anchor="middle" x="272" y="-189.5" font-family="Helvetica,sans-Serif" font-size="10.00">_section</text>
</a>
</g>
</g>
<!-- Node24&#45;&gt;Node25 -->
<g id="edge22_Node000024_Node000025" class="edge">
<title>Node24&#45;&gt;Node25</title>
<g id="a_edge22_Node000024_Node000025"><a xlink:title=" ">
<path fill="none" stroke="#63b8ff" d="M382.16,-180.18C366.04,-183.55 348.96,-187.12 333.21,-190.41"/>
<polygon fill="#63b8ff" stroke="#63b8ff" points="382.97,-183.59 392.04,-178.12 381.54,-176.74 382.97,-183.59"/>
</a>
</g>
</g>
<!-- Node29 -->
<g id="Node000029" class="node">
<title>Node29</title>
<g id="a_Node000029"><a xlink:href="../../d2/d59/namespacefl_1_1third__party_1_1vorbis_a809362223b0baeed163eeefb500b2b0c.html#a809362223b0baeed163eeefb500b2b0c" target="_top" xlink:title=" ">
<polygon fill="white" stroke="#666666" points="346.5,-164 197.5,-164 197.5,-134 346.5,-134 346.5,-164"/>
<text text-anchor="start" x="205.5" y="-152" font-family="Helvetica,sans-Serif" font-size="10.00">fl::third_party::vorbis</text>
<text text-anchor="middle" x="272" y="-141" font-family="Helvetica,sans-Serif" font-size="10.00">::stb_vorbis_open_memory</text>
</a>
</g>
</g>
<!-- Node24&#45;&gt;Node29 -->
<g id="edge23_Node000024_Node000029" class="edge">
<title>Node24&#45;&gt;Node29</title>
<g id="a_edge23_Node000024_Node000029"><a xlink:title=" ">
<path fill="none" stroke="#63b8ff" d="M382,-159.47C370.41,-158.36 358.32,-157.19 346.59,-156.07"/>
<polygon fill="#63b8ff" stroke="#63b8ff" points="381.75,-162.96 392.04,-160.43 382.42,-155.99 381.75,-162.96"/>
</a>
</g>
</g>
<!-- Node31 -->
<g id="Node000031" class="node">
<title>Node31</title>
<g id="a_Node000031"><a xlink:href="../../d2/d59/namespacefl_1_1third__party_1_1vorbis_a5a66b2e53bb7c21f0299bbd20c0f66df.html#a5a66b2e53bb7c21f0299bbd20c0f66df" target="_top" xlink:title=" ">
<polygon fill="white" stroke="#666666" points="348,-116 196,-116 196,-86 348,-86 348,-116"/>
<text text-anchor="start" x="204" y="-104" font-family="Helvetica,sans-Serif" font-size="10.00">fl::third_party::vorbis</text>
<text text-anchor="middle" x="272" y="-93" font-family="Helvetica,sans-Serif" font-size="10.00">::stb_vorbis_open_pushdata</text>
</a>
</g>
</g>
<!-- Node24&#45;&gt;Node31 -->
<g id="edge25_Node000024_Node000031" class="edge">
<title>Node24&#45;&gt;Node31</title>
<g id="a_edge25_Node000024_Node000031"><a xlink:title=" ">
<path fill="none" stroke="#63b8ff" d="M404.89,-147.05C387.25,-139.86 366.79,-131.77 348,-125 339.64,-121.99 330.69,-118.96 321.99,-116.11"/>
<polygon fill="#63b8ff" stroke="#63b8ff" points="403.79,-150.38 414.37,-150.94 406.45,-143.9 403.79,-150.38"/>
</a>
</g>
</g>
<!-- Node29&#45;&gt;Node30 -->
<g id="edge24_Node000029_Node000030" class="edge">
<title>Node29&#45;&gt;Node30</title>
<g id="a_edge24_Node000029_Node000030"><a xlink:title=" ">
<path fill="none" stroke="#63b8ff" d="M198.99,-131.57C180.56,-127.1 160.91,-122.35 143.03,-118.02"/>
<polygon fill="#63b8ff" stroke="#63b8ff" points="198.24,-134.99 208.79,-133.94 199.89,-128.18 198.24,-134.99"/>
</a>
</g>
</g>
<!-- Node32&#45;&gt;Node25 -->
<g id="edge28_Node000032_Node000025" class="edge">
<title>Node32&#45;&gt;Node25</title>
<g id="a_edge28_Node000032_Node000025"><a xlink:title=" ">
<path fill="none" stroke="#63b8ff" d="M406.82,-128.65C399.03,-132.74 391.13,-137.26 384,-142 366.42,-153.7 366.05,-162.04 348,-173 342.49,-176.35 336.53,-179.46 330.47,-182.32"/>
<polygon fill="#63b8ff" stroke="#63b8ff" points="408.53,-131.71 415.86,-124.07 405.36,-125.47 408.53,-131.71"/>
</a>
</g>
</g>
<!-- Node32&#45;&gt;Node29 -->
<g id="edge29_Node000032_Node000029" class="edge">
<title>Node32&#45;&gt;Node29</title>
<g id="a_edge29_Node000032_Node000029"><a xlink:title=" ">
<path fill="none" stroke="#63b8ff" d="M382.01,-124.37C368.02,-127.53 353.31,-130.85 339.38,-134"/>
<polygon fill="#63b8ff" stroke="#63b8ff" points="383.06,-127.72 392.04,-122.1 381.52,-120.89 383.06,-127.72"/>
</a>
</g>
</g>
<!-- Node32&#45;&gt;Node31 -->
<g id="edge30_Node000032_Node000031" class="edge">
<title>Node32&#45;&gt;Node31</title>
<g id="a_edge30_Node000032_Node000031"><a xlink:title=" ">
<path fill="none" stroke="#63b8ff" d="M382.02,-105.93C370.94,-105.43 359.41,-104.91 348.17,-104.4"/>
<polygon fill="#63b8ff" stroke="#63b8ff" points="381.9,-109.43 392.04,-106.38 382.21,-102.43 381.9,-109.43"/>
</a>
</g>
</g>
<!-- Node33&#45;&gt;Node24 -->
<g id="edge33_Node000033_Node000024" class="edge">
<title>Node33&#45;&gt;Node24</title>
<g id="a_edge33_Node000033_Node000024"><a xlink:title=" ">
<path fill="none" stroke="#63b8ff" d="M745.74,-195.98C693.01,-201.27 618.56,-205.3 554,-196 533.54,-193.05 511.46,-186.94 493.09,-181"/>
<polygon fill="#63b8ff" stroke="#63b8ff" points="746.4,-199.43 755.98,-194.91 745.67,-192.47 746.4,-199.43"/>
</a>
</g>
</g>
<!-- Node34 -->
<g id="Node000034" class="node">
<title>Node34</title>
<g id="a_Node000034"><a xlink:href="../../d2/d59/namespacefl_1_1third__party_1_1vorbis_a6c89b6ab6d1744c621a4149c5a989f93.html#a6c89b6ab6d1744c621a4149c5a989f93" target="_top" xlink:title=" ">
<polygon fill="white" stroke="#666666" points="697,-278 556,-278 556,-248 697,-248 697,-278"/>
<text text-anchor="start" x="564" y="-266" font-family="Helvetica,sans-Serif" font-size="10.00">fl::third_party::vorbis</text>
<text text-anchor="middle" x="626.5" y="-255" font-family="Helvetica,sans-Serif" font-size="10.00">::fl_stbv_temp_alloc_impl</text>
</a>
</g>
</g>
<!-- Node33&#45;&gt;Node34 -->
<g id="edge32_Node000033_Node000034" class="edge">
<title>Node33&#45;&gt;Node34</title>
<g id="a_edge32_Node000033_Node000034"><a xlink:title=" ">
<path fill="none" stroke="#63b8ff" d="M750.68,-205.54C745.31,-207.56 740.02,-209.72 735,-212 717.93,-219.76 715.74,-225.56 699,-234 689.19,-238.94 678.33,-243.7 668.1,-247.87"/>
<polygon fill="#63b8ff" stroke="#63b8ff" points="752.15,-208.73 760.38,-202.06 749.78,-202.14 752.15,-208.73"/>
</a>
</g>
</g>
</g>
</svg>
