<?xml version="1.0" encoding="UTF-8" standalone="no"?>
<!DOCTYPE svg PUBLIC "-//W3C//DTD SVG 1.1//EN"
 "http://www.w3.org/Graphics/SVG/1.1/DTD/svg11.dtd">
<!-- Generated by graphviz version 2.43.0 (0)
 -->
<!-- Title: fl::xy_line_by_line Pages: 1 -->
<svg width="451pt" height="187pt"
 viewBox="0.00 0.00 451.00 186.50" xmlns="http://www.w3.org/2000/svg" xmlns:xlink="http://www.w3.org/1999/xlink">

<svg id="main" version="1.1" xmlns="http://www.w3.org/2000/svg" xmlns:xlink="http://www.w3.org/1999/xlink" xml:space="preserve">

<style type="text/css"><![CDATA[
.node, .edge {opacity: 0.7;}
.node.selected, .edge.selected {opacity: 1;}
.edge:hover path { stroke: red; }
.edge:hover polygon { stroke: red; fill: red; }
]]></style>
<script type="application/ecmascript" xlink:href="../../svg.min.js"/>
<svg id="graph" class="graph">
<g id="graph0" class="graph" transform="scale(1 1) rotate(0) translate(4 182.5)">
<title>fl::xy_line_by_line</title>
<!-- Node1 -->
<g id="Node000001" class="node">
<title>Node1</title>
<g id="a_Node000001"><a xlink:title=" ">
<polygon fill="#999999" stroke="#666666" points="443,-93 339,-93 339,-74 443,-74 443,-93"/>
<text text-anchor="middle" x="391" y="-81" font-family="Helvetica,sans-Serif" font-size="10.00">fl::xy_line_by_line</text>
</a>
</g>
</g>
<!-- Node2 -->
<g id="Node000002" class="node">
<title>Node2</title>
<g id="a_Node000002"><a xlink:href="../../d0/dce/classfl_1_1_x_y_map_aaeab9d4f2c66f6e681415479493578c2.html#aaeab9d4f2c66f6e681415479493578c2" target="_top" xlink:title=" ">
<polygon fill="white" stroke="#666666" points="303,-93 175,-93 175,-74 303,-74 303,-93"/>
<text text-anchor="middle" x="239" y="-81" font-family="Helvetica,sans-Serif" font-size="10.00">fl::XYMap::mapToIndex</text>
</a>
</g>
</g>
<!-- Node1&#45;&gt;Node2 -->
<g id="edge1_Node000001_Node000002" class="edge">
<title>Node1&#45;&gt;Node2</title>
<g id="a_edge1_Node000001_Node000002"><a xlink:title=" ">
<path fill="none" stroke="#63b8ff" d="M328.68,-83.5C320.27,-83.5 311.62,-83.5 303.18,-83.5"/>
<polygon fill="#63b8ff" stroke="#63b8ff" points="328.8,-87 338.8,-83.5 328.8,-80 328.8,-87"/>
</a>
</g>
</g>
<!-- Node3 -->
<g id="Node000003" class="node">
<title>Node3</title>
<g id="a_Node000003"><a xlink:href="../../d0/dce/classfl_1_1_x_y_map_a87a40fc38645968ce810ee35a6a70239.html#a87a40fc38645968ce810ee35a6a70239" target="_top" xlink:title=" ">
<polygon fill="white" stroke="#666666" points="139,-178.5 0,-178.5 0,-148.5 139,-148.5 139,-178.5"/>
<text text-anchor="start" x="8" y="-166.5" font-family="Helvetica,sans-Serif" font-size="10.00">fl::XYMap::convertToLook</text>
<text text-anchor="middle" x="69.5" y="-155.5" font-family="Helvetica,sans-Serif" font-size="10.00">UpTable</text>
</a>
</g>
</g>
<!-- Node2&#45;&gt;Node3 -->
<g id="edge2_Node000002_Node000003" class="edge">
<title>Node2&#45;&gt;Node3</title>
<g id="a_edge2_Node000002_Node000003"><a xlink:title=" ">
<path fill="none" stroke="#63b8ff" d="M214.41,-98.43C194.73,-110.49 165.7,-127.39 139,-139.5 132,-142.68 124.45,-145.7 117,-148.47"/>
<polygon fill="#63b8ff" stroke="#63b8ff" points="216.35,-101.34 223.01,-93.1 212.66,-95.39 216.35,-101.34"/>
</a>
</g>
</g>
<!-- Node4 -->
<g id="Node000004" class="node">
<title>Node4</title>
<g id="a_Node000004"><a xlink:href="../../d0/dce/classfl_1_1_x_y_map_a6cc108415a68e7f4a10fd10c96936bac.html#a6cc108415a68e7f4a10fd10c96936bac" target="_top" xlink:title=" ">
<polygon fill="white" stroke="#666666" points="129,-130 10,-130 10,-111 129,-111 129,-130"/>
<text text-anchor="middle" x="69.5" y="-118" font-family="Helvetica,sans-Serif" font-size="10.00">fl::XYMap::mapPixels</text>
</a>
</g>
</g>
<!-- Node2&#45;&gt;Node4 -->
<g id="edge3_Node000002_Node000004" class="edge">
<title>Node2&#45;&gt;Node4</title>
<g id="a_edge3_Node000002_Node000004"><a xlink:title=" ">
<path fill="none" stroke="#63b8ff" d="M184.94,-95.22C162,-100.29 135.5,-106.14 113.78,-110.94"/>
<polygon fill="#63b8ff" stroke="#63b8ff" points="185.85,-98.6 194.86,-93.03 184.35,-91.77 185.85,-98.6"/>
</a>
</g>
</g>
<!-- Node5 -->
<g id="Node000005" class="node">
<title>Node5</title>
<g id="a_Node000005"><a xlink:href="../../d0/dce/classfl_1_1_x_y_map_a79a7ad5dd0fe3e23b104f23c7530e2af.html#a79a7ad5dd0fe3e23b104f23c7530e2af" target="_top" xlink:title=" ">
<polygon fill="white" stroke="#666666" points="133.5,-93 5.5,-93 5.5,-74 133.5,-74 133.5,-93"/>
<text text-anchor="middle" x="69.5" y="-81" font-family="Helvetica,sans-Serif" font-size="10.00">fl::XYMap::mapToIndex</text>
</a>
</g>
</g>
<!-- Node2&#45;&gt;Node5 -->
<g id="edge4_Node000002_Node000005" class="edge">
<title>Node2&#45;&gt;Node5</title>
<g id="a_edge4_Node000002_Node000005"><a xlink:title=" ">
<path fill="none" stroke="#63b8ff" d="M164.48,-83.5C154.2,-83.5 143.71,-83.5 133.64,-83.5"/>
<polygon fill="#63b8ff" stroke="#63b8ff" points="164.68,-87 174.68,-83.5 164.68,-80 164.68,-87"/>
</a>
</g>
</g>
<!-- Node6 -->
<g id="Node000006" class="node">
<title>Node6</title>
<g id="a_Node000006"><a xlink:href="../../d0/dce/classfl_1_1_x_y_map_a43349d866eea53ff8104b2b2fdbf5c67.html#a43349d866eea53ff8104b2b2fdbf5c67" target="_top" xlink:title=" ">
<polygon fill="white" stroke="#666666" points="128,-56 11,-56 11,-37 128,-37 128,-56"/>
<text text-anchor="middle" x="69.5" y="-44" font-family="Helvetica,sans-Serif" font-size="10.00">fl::XYMap::operator()</text>
</a>
</g>
</g>
<!-- Node2&#45;&gt;Node6 -->
<g id="edge5_Node000002_Node000006" class="edge">
<title>Node2&#45;&gt;Node6</title>
<g id="a_edge5_Node000002_Node000006"><a xlink:title=" ">
<path fill="none" stroke="#63b8ff" d="M184.94,-71.78C162,-66.71 135.5,-60.86 113.78,-56.06"/>
<polygon fill="#63b8ff" stroke="#63b8ff" points="184.35,-75.23 194.86,-73.97 185.85,-68.4 184.35,-75.23"/>
</a>
</g>
</g>
<!-- Node7 -->
<g id="Node000007" class="node">
<title>Node7</title>
<g id="a_Node000007"><a xlink:href="../../d0/dce/classfl_1_1_x_y_map_a464acdd5a6ce465a32fba1fda9862fa5.html#a464acdd5a6ce465a32fba1fda9862fa5" target="_top" xlink:title=" ">
<polygon fill="white" stroke="#666666" points="135.5,-19 3.5,-19 3.5,0 135.5,0 135.5,-19"/>
<text text-anchor="middle" x="69.5" y="-7" font-family="Helvetica,sans-Serif" font-size="10.00">fl::XYMap::toScreenMap</text>
</a>
</g>
</g>
<!-- Node2&#45;&gt;Node7 -->
<g id="edge6_Node000002_Node000007" class="edge">
<title>Node2&#45;&gt;Node7</title>
<g id="a_edge6_Node000002_Node000007"><a xlink:title=" ">
<path fill="none" stroke="#63b8ff" d="M214.92,-68.61C195.33,-56.49 166.17,-39.63 139,-28.5 130.21,-24.9 120.51,-21.74 111.24,-19.09"/>
<polygon fill="#63b8ff" stroke="#63b8ff" points="213.12,-71.62 223.45,-73.97 216.85,-65.69 213.12,-71.62"/>
</a>
</g>
</g>
</g>
</svg>
</svg>

<style type='text/css'>
<![CDATA[
[data-mouse-over-selected='false'] { opacity: 0.7; }
[data-mouse-over-selected='true']  { opacity: 1.0; }
]]>
</style>
<script type="application/ecmascript"><![CDATA[
document.addEventListener('DOMContentLoaded', (event) => {
  highlightEdges();
  highlightAdjacentNodes();
});
]]></script>
</svg>
