<?xml version="1.0" encoding="UTF-8" standalone="no"?>
<!DOCTYPE svg PUBLIC "-//W3C//DTD SVG 1.1//EN"
 "http://www.w3.org/Graphics/SVG/1.1/DTD/svg11.dtd">
<!-- Generated by graphviz version 2.43.0 (0)
 -->
<!-- Title: fl::lerp Pages: 1 -->
<svg width="576pt" height="172pt"
 viewBox="0.00 0.00 576.00 172.00" xmlns="http://www.w3.org/2000/svg" xmlns:xlink="http://www.w3.org/1999/xlink">
<g id="graph0" class="graph" transform="scale(1 1) rotate(0) translate(4 168)">
<title>fl::lerp</title>
<!-- Node1 -->
<g id="Node000001" class="node">
<title>Node1</title>
<g id="a_Node000001"><a xlink:title=" ">
<polygon fill="#999999" stroke="#666666" points="568,-93.5 521,-93.5 521,-74.5 568,-74.5 568,-93.5"/>
<text text-anchor="middle" x="544.5" y="-81.5" font-family="Helvetica,sans-Serif" font-size="10.00">fl::lerp</text>
</a>
</g>
</g>
<!-- Node2 -->
<g id="Node000002" class="node">
<title>Node2</title>
<g id="a_Node000002"><a xlink:href="../../d3/d6b/classfl_1_1_flow_field_float_1_1_perlin2_d_a67c20ec989904e521db0065a99e1a160.html#a67c20ec989904e521db0065a99e1a160" target="_top" xlink:title=" ">
<polygon fill="white" stroke="#666666" points="485,-121 385,-121 385,-91 485,-91 485,-121"/>
<text text-anchor="start" x="393" y="-109" font-family="Helvetica,sans-Serif" font-size="10.00">fl::FlowFieldFloat</text>
<text text-anchor="middle" x="435" y="-98" font-family="Helvetica,sans-Serif" font-size="10.00">::Perlin2D::noise</text>
</a>
</g>
</g>
<!-- Node1&#45;&gt;Node2 -->
<g id="edge1_Node000001_Node000002" class="edge">
<title>Node1&#45;&gt;Node2</title>
<g id="a_edge1_Node000001_Node000002"><a xlink:title=" ">
<path fill="none" stroke="#63b8ff" d="M511.08,-90.64C502.88,-92.31 493.89,-94.15 485.07,-95.96"/>
<polygon fill="#63b8ff" stroke="#63b8ff" points="511.87,-94.05 520.96,-88.61 510.47,-87.19 511.87,-94.05"/>
</a>
</g>
</g>
<!-- Node3 -->
<g id="Node000003" class="node">
<title>Node3</title>
<g id="a_Node000003"><a xlink:href="../../d4/d36/namespacefl_ac14df5b3d038746df367fe64abaaa935.html#ac14df5b3d038746df367fe64abaaa935" target="_top" xlink:title=" ">
<polygon fill="white" stroke="#666666" points="465.5,-72.5 404.5,-72.5 404.5,-53.5 465.5,-53.5 465.5,-72.5"/>
<text text-anchor="middle" x="435" y="-60.5" font-family="Helvetica,sans-Serif" font-size="10.00">fl::pnoise</text>
</a>
</g>
</g>
<!-- Node1&#45;&gt;Node3 -->
<g id="edge2_Node000001_Node000003" class="edge">
<title>Node1&#45;&gt;Node3</title>
<g id="a_edge2_Node000001_Node000003"><a xlink:title=" ">
<path fill="none" stroke="#63b8ff" d="M511.01,-77.65C496.66,-74.85 479.89,-71.57 465.85,-68.83"/>
<polygon fill="#63b8ff" stroke="#63b8ff" points="510.48,-81.12 520.96,-79.6 511.82,-74.25 510.48,-81.12"/>
</a>
</g>
</g>
<!-- Node4 -->
<g id="Node000004" class="node">
<title>Node4</title>
<g id="a_Node000004"><a xlink:href="../../d4/d36/namespacefl_a3e7a8e90bb943adffdce5492a6e38f7b.html#a3e7a8e90bb943adffdce5492a6e38f7b" target="_top" xlink:title=" ">
<polygon fill="white" stroke="#666666" points="335.5,-115.5 207.5,-115.5 207.5,-96.5 335.5,-96.5 335.5,-115.5"/>
<text text-anchor="middle" x="271.5" y="-103.5" font-family="Helvetica,sans-Serif" font-size="10.00">fl::calculate_oscillators</text>
</a>
</g>
</g>
<!-- Node3&#45;&gt;Node4 -->
<g id="edge3_Node000003_Node000004" class="edge">
<title>Node3&#45;&gt;Node4</title>
<g id="a_edge3_Node000003_Node000004"><a xlink:title=" ">
<path fill="none" stroke="#63b8ff" d="M394.37,-73.55C368.1,-80.55 333.91,-89.65 308.43,-96.43"/>
<polygon fill="#63b8ff" stroke="#63b8ff" points="395.62,-76.84 404.38,-70.89 393.81,-70.08 395.62,-76.84"/>
</a>
</g>
</g>
<!-- Node8 -->
<g id="Node000008" class="node">
<title>Node8</title>
<g id="a_Node000008"><a xlink:href="../../d4/d36/namespacefl_a07135283d66c89b6c170ff5955398990.html#a07135283d66c89b6c170ff5955398990" target="_top" xlink:title=" ">
<polygon fill="white" stroke="#666666" points="317.5,-72.5 225.5,-72.5 225.5,-53.5 317.5,-53.5 317.5,-72.5"/>
<text text-anchor="middle" x="271.5" y="-60.5" font-family="Helvetica,sans-Serif" font-size="10.00">fl::render_value</text>
</a>
</g>
</g>
<!-- Node3&#45;&gt;Node8 -->
<g id="edge6_Node000003_Node000008" class="edge">
<title>Node3&#45;&gt;Node8</title>
<g id="a_edge6_Node000003_Node000008"><a xlink:title=" ">
<path fill="none" stroke="#63b8ff" d="M394.22,-63C371.07,-63 341.83,-63 317.8,-63"/>
<polygon fill="#63b8ff" stroke="#63b8ff" points="394.38,-66.5 404.38,-63 394.38,-59.5 394.38,-66.5"/>
</a>
</g>
</g>
<!-- Node10 -->
<g id="Node000010" class="node">
<title>Node10</title>
<g id="a_Node000010"><a xlink:href="../../d2/d1b/namespaceautoresearch_1_1animartrix__check_a167b24bef09d074d48b1e29727fd61e3.html#a167b24bef09d074d48b1e29727fd61e3" target="_top" xlink:title=" ">
<polygon fill="white" stroke="#666666" points="349,-33 194,-33 194,-3 349,-3 349,-33"/>
<text text-anchor="start" x="202" y="-21" font-family="Helvetica,sans-Serif" font-size="10.00">autoresearch::animartrix</text>
<text text-anchor="middle" x="271.5" y="-10" font-family="Helvetica,sans-Serif" font-size="10.00">_check::runPerlinBenchmark</text>
</a>
</g>
</g>
<!-- Node3&#45;&gt;Node10 -->
<g id="edge8_Node000003_Node000010" class="edge">
<title>Node3&#45;&gt;Node10</title>
<g id="a_edge8_Node000003_Node000010"><a xlink:title=" ">
<path fill="none" stroke="#63b8ff" d="M394.73,-52.06C374.21,-46.34 348.78,-39.25 326.44,-33.03"/>
<polygon fill="#63b8ff" stroke="#63b8ff" points="393.81,-55.43 404.38,-54.75 395.68,-48.69 393.81,-55.43"/>
</a>
</g>
</g>
<!-- Node5 -->
<g id="Node000005" class="node">
<title>Node5</title>
<g id="a_Node000005"><a xlink:href="../../d5/d77/structfl_1_1_engine_a03a800b03c47848e5ad855a8c3e17204.html#a03a800b03c47848e5ad855a8c3e17204" target="_top" xlink:title=" ">
<polygon fill="white" stroke="#666666" points="135,-164 23,-164 23,-134 135,-134 135,-164"/>
<text text-anchor="start" x="31" y="-152" font-family="Helvetica,sans-Serif" font-size="10.00">fl::Engine::calculate</text>
<text text-anchor="middle" x="79" y="-141" font-family="Helvetica,sans-Serif" font-size="10.00">_oscillators</text>
</a>
</g>
</g>
<!-- Node4&#45;&gt;Node5 -->
<g id="edge4_Node000004_Node000005" class="edge">
<title>Node4&#45;&gt;Node5</title>
<g id="a_edge4_Node000004_Node000005"><a xlink:title=" ">
<path fill="none" stroke="#63b8ff" d="M218.26,-117.79C192.47,-123.61 161.36,-130.63 135.19,-136.54"/>
<polygon fill="#63b8ff" stroke="#63b8ff" points="219.24,-121.16 228.22,-115.54 217.7,-114.33 219.24,-121.16"/>
</a>
</g>
</g>
<!-- Node6 -->
<g id="Node000006" class="node">
<title>Node6</title>
<g id="a_Node000006"><a xlink:href="../../d4/d36/namespacefl_a8e2924a60c9ef6ca659be941211a6372.html#a8e2924a60c9ef6ca659be941211a6372" target="_top" xlink:title=" ">
<polygon fill="#fff0f0" stroke="red" points="149,-115.5 9,-115.5 9,-96.5 149,-96.5 149,-115.5"/>
<text text-anchor="middle" x="79" y="-103.5" font-family="Helvetica,sans-Serif" font-size="10.00">fl::run_default_oscillators</text>
</a>
</g>
</g>
<!-- Node4&#45;&gt;Node6 -->
<g id="edge5_Node000004_Node000006" class="edge">
<title>Node4&#45;&gt;Node6</title>
<g id="a_edge5_Node000004_Node000006"><a xlink:title=" ">
<path fill="none" stroke="#63b8ff" d="M197.13,-106C181.39,-106 164.81,-106 149.23,-106"/>
<polygon fill="#63b8ff" stroke="#63b8ff" points="197.33,-109.5 207.33,-106 197.33,-102.5 197.33,-109.5"/>
</a>
</g>
</g>
<!-- Node9 -->
<g id="Node000009" class="node">
<title>Node9</title>
<g id="a_Node000009"><a xlink:href="../../d5/d77/structfl_1_1_engine_adf144e3d9515768b10466f221ac60f22.html#adf144e3d9515768b10466f221ac60f22" target="_top" xlink:title=" ">
<polygon fill="white" stroke="#666666" points="128.5,-78 29.5,-78 29.5,-48 128.5,-48 128.5,-78"/>
<text text-anchor="start" x="37.5" y="-66" font-family="Helvetica,sans-Serif" font-size="10.00">fl::Engine::render</text>
<text text-anchor="middle" x="79" y="-55" font-family="Helvetica,sans-Serif" font-size="10.00">_value</text>
</a>
</g>
</g>
<!-- Node8&#45;&gt;Node9 -->
<g id="edge7_Node000008_Node000009" class="edge">
<title>Node8&#45;&gt;Node9</title>
<g id="a_edge7_Node000008_Node000009"><a xlink:title=" ">
<path fill="none" stroke="#63b8ff" d="M215.17,-63C187.86,-63 155.2,-63 128.83,-63"/>
<polygon fill="#63b8ff" stroke="#63b8ff" points="215.35,-66.5 225.35,-63 215.35,-59.5 215.35,-66.5"/>
</a>
</g>
</g>
<!-- Node11 -->
<g id="Node000011" class="node">
<title>Node11</title>
<g id="a_Node000011"><a xlink:href="../../db/d63/class_auto_research_remote_control_abb6600e8a1e8c4ef46ba29e7bd3b78b4.html#abb6600e8a1e8c4ef46ba29e7bd3b78b4" target="_top" xlink:title="Register all RPC functions with shared autoresearch state.">
<polygon fill="#fff0f0" stroke="red" points="158,-30 0,-30 0,0 158,0 158,-30"/>
<text text-anchor="start" x="8" y="-18" font-family="Helvetica,sans-Serif" font-size="10.00">AutoResearchRemoteControl</text>
<text text-anchor="middle" x="79" y="-7" font-family="Helvetica,sans-Serif" font-size="10.00">::registerFunctions</text>
</a>
</g>
</g>
<!-- Node10&#45;&gt;Node11 -->
<g id="edge9_Node000010_Node000011" class="edge">
<title>Node10&#45;&gt;Node11</title>
<g id="a_edge9_Node000010_Node000011"><a xlink:title=" ">
<path fill="none" stroke="#63b8ff" d="M183.82,-16.63C175.23,-16.5 166.55,-16.36 158.06,-16.23"/>
<polygon fill="#63b8ff" stroke="#63b8ff" points="183.79,-20.13 193.84,-16.79 183.9,-13.14 183.79,-20.13"/>
</a>
</g>
</g>
</g>
</svg>
