<?xml version="1.0" encoding="UTF-8" standalone="no"?>
<!DOCTYPE svg PUBLIC "-//W3C//DTD SVG 1.1//EN"
 "http://www.w3.org/Graphics/SVG/1.1/DTD/svg11.dtd">
<!-- Generated by graphviz version 2.43.0 (0)
 -->
<!-- Title: fl::ldexp Pages: 1 -->
<svg width="648pt" height="84pt"
 viewBox="0.00 0.00 648.00 84.00" xmlns="http://www.w3.org/2000/svg" xmlns:xlink="http://www.w3.org/1999/xlink">
<g id="graph0" class="graph" transform="scale(1 1) rotate(0) translate(4 80)">
<title>fl::ldexp</title>
<!-- Node1 -->
<g id="Node000001" class="node">
<title>Node1</title>
<g id="a_Node000001"><a xlink:title=" ">
<polygon fill="#999999" stroke="#666666" points="56,-76 0,-76 0,-57 56,-57 56,-76"/>
<text text-anchor="middle" x="28" y="-64" font-family="Helvetica,sans-Serif" font-size="10.00">fl::ldexp</text>
</a>
</g>
</g>
<!-- Node2 -->
<g id="Node000002" class="node">
<title>Node2</title>
<g id="a_Node000002"><a xlink:href="../../d4/d36/namespacefl_ae393fecb8f433ee4b88027955350bdc8.html#ae393fecb8f433ee4b88027955350bdc8" target="_top" xlink:title=" ">
<polygon fill="white" stroke="#666666" points="453,-57 406,-57 406,-38 453,-38 453,-57"/>
<text text-anchor="middle" x="429.5" y="-45" font-family="Helvetica,sans-Serif" font-size="10.00">fl::exp</text>
</a>
</g>
</g>
<!-- Node1&#45;&gt;Node2 -->
<g id="edge1_Node000001_Node000002" class="edge">
<title>Node1&#45;&gt;Node2</title>
<g id="a_edge1_Node000001_Node000002"><a xlink:title=" ">
<path fill="none" stroke="#63b8ff" d="M56.13,-68.27C114.07,-71.58 254.1,-77.05 370,-61.5 378.54,-60.35 387.64,-58.49 396.07,-56.5"/>
<polygon fill="#63b8ff" stroke="#63b8ff" points="397.07,-59.86 405.92,-54.04 395.37,-53.07 397.07,-59.86"/>
</a>
</g>
</g>
<!-- Node5 -->
<g id="Node000005" class="node">
<title>Node5</title>
<g id="a_Node000005"><a xlink:href="../../d4/d36/namespacefl_a4a6ae43af9b621f3a77e42a2183ba8b7.html#a4a6ae43af9b621f3a77e42a2183ba8b7" target="_top" xlink:title=" ">
<polygon fill="white" stroke="#666666" points="213,-57 92,-57 92,-38 213,-38 213,-57"/>
<text text-anchor="middle" x="152.5" y="-45" font-family="Helvetica,sans-Serif" font-size="10.00">fl::ldexp_impl_double</text>
</a>
</g>
</g>
<!-- Node1&#45;&gt;Node5 -->
<g id="edge5_Node000001_Node000005" class="edge">
<title>Node1&#45;&gt;Node5</title>
<g id="a_edge5_Node000001_Node000005"><a xlink:title=" ">
<path fill="none" stroke="#63b8ff" d="M56.19,-62.28C63.95,-61.08 72.79,-59.71 81.87,-58.3"/>
<polygon fill="#63b8ff" stroke="#63b8ff" points="82.45,-61.75 91.79,-56.76 81.37,-54.83 82.45,-61.75"/>
</a>
</g>
</g>
<!-- Node3 -->
<g id="Node000003" class="node">
<title>Node3</title>
<g id="a_Node000003"><a xlink:href="../../d4/d36/namespacefl_a861b23e6d46aa20202c82561040de9ff.html#a861b23e6d46aa20202c82561040de9ff" target="_top" xlink:title=" ">
<polygon fill="white" stroke="#666666" points="545,-76 489,-76 489,-57 545,-57 545,-76"/>
<text text-anchor="middle" x="517" y="-64" font-family="Helvetica,sans-Serif" font-size="10.00">fl::expfp</text>
</a>
</g>
</g>
<!-- Node2&#45;&gt;Node3 -->
<g id="edge2_Node000002_Node000003" class="edge">
<title>Node2&#45;&gt;Node3</title>
<g id="a_edge2_Node000002_Node000003"><a xlink:title=" ">
<path fill="none" stroke="#63b8ff" d="M453.41,-52.59C461.23,-54.33 470.19,-56.32 478.84,-58.24"/>
<polygon fill="#63b8ff" stroke="#63b8ff" points="478.25,-61.7 488.77,-60.45 479.76,-54.86 478.25,-61.7"/>
</a>
</g>
</g>
<!-- Node4 -->
<g id="Node000004" class="node">
<title>Node4</title>
<g id="a_Node000004"><a xlink:href="../../d4/d36/namespacefl_a7f0a85a0d4318b7e8fff543b26907b01.html#a7f0a85a0d4318b7e8fff543b26907b01" target="_top" xlink:title=" ">
<polygon fill="white" stroke="#666666" points="640,-57 581,-57 581,-38 640,-38 640,-57"/>
<text text-anchor="middle" x="610.5" y="-45" font-family="Helvetica,sans-Serif" font-size="10.00">fl::powfp</text>
</a>
</g>
</g>
<!-- Node3&#45;&gt;Node4 -->
<g id="edge3_Node000003_Node000004" class="edge">
<title>Node3&#45;&gt;Node4</title>
<g id="a_edge3_Node000003_Node000004"><a xlink:title=" ">
<path fill="none" stroke="#63b8ff" d="M545.45,-60.8C553.47,-59.13 562.39,-57.28 570.97,-55.5"/>
<polygon fill="#63b8ff" stroke="#63b8ff" points="571.72,-58.92 580.8,-53.46 570.29,-52.07 571.72,-58.92"/>
</a>
</g>
</g>
<!-- Node4&#45;&gt;Node2 -->
<g id="edge4_Node000004_Node000002" class="edge">
<title>Node4&#45;&gt;Node2</title>
<g id="a_edge4_Node000004_Node000002"><a xlink:title=" ">
<path fill="none" stroke="#63b8ff" d="M580.81,-47.5C548.79,-47.5 497.06,-47.5 463.41,-47.5"/>
<polygon fill="#63b8ff" stroke="#63b8ff" points="463.17,-44 453.17,-47.5 463.17,-51 463.17,-44"/>
</a>
</g>
</g>
<!-- Node5&#45;&gt;Node2 -->
<g id="edge6_Node000005_Node000002" class="edge">
<title>Node5&#45;&gt;Node2</title>
<g id="a_edge6_Node000005_Node000002"><a xlink:title=" ">
<path fill="none" stroke="#63b8ff" d="M213.17,-47.5C269.18,-47.5 350.89,-47.5 395.83,-47.5"/>
<polygon fill="#63b8ff" stroke="#63b8ff" points="395.9,-51 405.9,-47.5 395.9,-44 395.9,-51"/>
</a>
</g>
</g>
<!-- Node6 -->
<g id="Node000006" class="node">
<title>Node6</title>
<g id="a_Node000006"><a xlink:href="../../df/d9e/namespacefl_1_1detail_ace19c6136af128f9123a112ef385935b.html#ace19c6136af128f9123a112ef385935b" target="_top" xlink:title=" ">
<polygon fill="white" stroke="#666666" points="370,-19 249,-19 249,0 370,0 370,-19"/>
<text text-anchor="middle" x="309.5" y="-7" font-family="Helvetica,sans-Serif" font-size="10.00">fl::detail::ldexp_loop_</text>
</a>
</g>
</g>
<!-- Node5&#45;&gt;Node6 -->
<g id="edge7_Node000005_Node000006" class="edge">
<title>Node5&#45;&gt;Node6</title>
<g id="a_edge7_Node000005_Node000006"><a xlink:title=" ">
<path fill="none" stroke="#63b8ff" d="M192.61,-37.91C212.97,-32.92 238.07,-26.77 259.69,-21.47"/>
<polygon fill="#63b8ff" stroke="#63b8ff" points="260.79,-24.8 269.67,-19.02 259.12,-18 260.79,-24.8"/>
</a>
</g>
</g>
<!-- Node6&#45;&gt;Node2 -->
<g id="edge8_Node000006_Node000002" class="edge">
<title>Node6&#45;&gt;Node2</title>
<g id="a_edge8_Node000006_Node000002"><a xlink:title=" ">
<path fill="none" stroke="#63b8ff" d="M340.28,-19.09C357.28,-24.57 378.63,-31.44 396.06,-37.05"/>
<polygon fill="#63b8ff" stroke="#63b8ff" points="395.22,-40.46 405.81,-40.19 397.36,-33.8 395.22,-40.46"/>
</a>
</g>
</g>
</g>
</svg>
