<?xml version="1.0" encoding="UTF-8" standalone="no"?>
<!DOCTYPE svg PUBLIC "-//W3C//DTD SVG 1.1//EN"
 "http://www.w3.org/Graphics/SVG/1.1/DTD/svg11.dtd">
<!-- Generated by graphviz version 2.43.0 (0)
 -->
<!-- Title: fl::delaycycles&lt; 4 &gt; Pages: 1 -->
<svg width="280pt" height="138pt"
 viewBox="0.00 0.00 280.00 138.00" xmlns="http://www.w3.org/2000/svg" xmlns:xlink="http://www.w3.org/1999/xlink">
<g id="graph0" class="graph" transform="scale(1 1) rotate(0) translate(4 134)">
<title>fl::delaycycles&lt; 4 &gt;</title>
<!-- Node1 -->
<g id="Node000001" class="node">
<title>Node1</title>
<g id="a_Node000001"><a xlink:title=" ">
<polygon fill="#999999" stroke="#666666" points="272,-74 157,-74 157,-55 272,-55 272,-74"/>
<text text-anchor="middle" x="214.5" y="-62" font-family="Helvetica,sans-Serif" font-size="10.00">fl::delaycycles&lt; 4 &gt;</text>
</a>
</g>
</g>
<!-- Node2 -->
<g id="Node000002" class="node">
<title>Node2</title>
<g id="a_Node000002"><a xlink:href="../../d4/d36/namespacefl_a00bc67f1c338df87369c2af03fc16730.html#a00bc67f1c338df87369c2af03fc16730" target="_top" xlink:title=" ">
<polygon fill="white" stroke="#666666" points="121,-130 0,-130 0,-111 121,-111 121,-130"/>
<text text-anchor="middle" x="60.5" y="-118" font-family="Helvetica,sans-Serif" font-size="10.00">fl::delaycycles&lt; 14 &gt;</text>
</a>
</g>
</g>
<!-- Node1&#45;&gt;Node2 -->
<g id="edge1_Node000001_Node000002" class="edge">
<title>Node1&#45;&gt;Node2</title>
<g id="a_edge1_Node000001_Node000002"><a xlink:title=" ">
<path fill="none" stroke="#63b8ff" d="M182.35,-78.17C164.54,-85.76 141.7,-95.14 121,-102.5 112.66,-105.47 103.56,-108.38 95.04,-110.97"/>
<polygon fill="#63b8ff" stroke="#63b8ff" points="183.87,-81.33 191.68,-74.16 181.11,-74.9 183.87,-81.33"/>
</a>
</g>
</g>
<!-- Node3 -->
<g id="Node000003" class="node">
<title>Node3</title>
<g id="a_Node000003"><a xlink:href="../../d4/d36/namespacefl_a6a5048349e167c770b06667c8d41d9a4.html#a6a5048349e167c770b06667c8d41d9a4" target="_top" xlink:title=" ">
<polygon fill="white" stroke="#666666" points="121,-93 0,-93 0,-74 121,-74 121,-93"/>
<text text-anchor="middle" x="60.5" y="-81" font-family="Helvetica,sans-Serif" font-size="10.00">fl::delaycycles&lt; 24 &gt;</text>
</a>
</g>
</g>
<!-- Node1&#45;&gt;Node3 -->
<g id="edge2_Node000001_Node000003" class="edge">
<title>Node1&#45;&gt;Node3</title>
<g id="a_edge2_Node000001_Node000003"><a xlink:title=" ">
<path fill="none" stroke="#63b8ff" d="M146.94,-72.82C138.38,-73.89 129.65,-74.98 121.2,-76.04"/>
<polygon fill="#63b8ff" stroke="#63b8ff" points="147.41,-76.29 156.9,-71.57 146.54,-69.34 147.41,-76.29"/>
</a>
</g>
</g>
<!-- Node4 -->
<g id="Node000004" class="node">
<title>Node4</title>
<g id="a_Node000004"><a xlink:href="../../d4/d36/namespacefl_a9aa3e9eb4bcd9b8bba754b771f130509.html#a9aa3e9eb4bcd9b8bba754b771f130509" target="_top" xlink:title=" ">
<polygon fill="white" stroke="#666666" points="121,-56 0,-56 0,-37 121,-37 121,-56"/>
<text text-anchor="middle" x="60.5" y="-44" font-family="Helvetica,sans-Serif" font-size="10.00">fl::delaycycles&lt; 34 &gt;</text>
</a>
</g>
</g>
<!-- Node1&#45;&gt;Node4 -->
<g id="edge3_Node000001_Node000004" class="edge">
<title>Node1&#45;&gt;Node4</title>
<g id="a_edge3_Node000001_Node000004"><a xlink:title=" ">
<path fill="none" stroke="#63b8ff" d="M146.94,-56.62C138.38,-55.6 129.65,-54.57 121.2,-53.57"/>
<polygon fill="#63b8ff" stroke="#63b8ff" points="146.56,-60.1 156.9,-57.8 147.38,-53.15 146.56,-60.1"/>
</a>
</g>
</g>
<!-- Node5 -->
<g id="Node000005" class="node">
<title>Node5</title>
<g id="a_Node000005"><a xlink:href="../../d4/d36/namespacefl_a45ef3f2fc4dd78ab550e76a6f7973c2e.html#a45ef3f2fc4dd78ab550e76a6f7973c2e" target="_top" xlink:title=" ">
<polygon fill="white" stroke="#666666" points="121,-19 0,-19 0,0 121,0 121,-19"/>
<text text-anchor="middle" x="60.5" y="-7" font-family="Helvetica,sans-Serif" font-size="10.00">fl::delaycycles&lt; 44 &gt;</text>
</a>
</g>
</g>
<!-- Node1&#45;&gt;Node5 -->
<g id="edge4_Node000001_Node000005" class="edge">
<title>Node1&#45;&gt;Node5</title>
<g id="a_edge4_Node000001_Node000005"><a xlink:title=" ">
<path fill="none" stroke="#63b8ff" d="M180.31,-51.01C162.77,-44.02 140.83,-35.52 121,-28.5 111.9,-25.28 101.94,-22 92.81,-19.1"/>
<polygon fill="#63b8ff" stroke="#63b8ff" points="179.49,-54.45 190.08,-54.92 182.1,-47.95 179.49,-54.45"/>
</a>
</g>
</g>
</g>
</svg>
