<?xml version="1.0" encoding="UTF-8" standalone="no"?>
<!DOCTYPE svg PUBLIC "-//W3C//DTD SVG 1.1//EN"
 "http://www.w3.org/Graphics/SVG/1.1/DTD/svg11.dtd">
<!-- Generated by graphviz version 2.43.0 (0)
 -->
<!-- Title: fl::floor Pages: 1 -->
<svg width="488pt" height="295pt"
 viewBox="0.00 0.00 488.00 294.50" xmlns="http://www.w3.org/2000/svg" xmlns:xlink="http://www.w3.org/1999/xlink">
<g id="graph0" class="graph" transform="scale(1 1) rotate(0) translate(4 290.5)">
<title>fl::floor</title>
<!-- Node1 -->
<g id="Node000001" class="node">
<title>Node1</title>
<g id="a_Node000001"><a xlink:title=" ">
<polygon fill="#999999" stroke="#666666" points="480,-147 430,-147 430,-128 480,-128 480,-147"/>
<text text-anchor="middle" x="455" y="-135" font-family="Helvetica,sans-Serif" font-size="10.00">fl::floor</text>
</a>
</g>
</g>
<!-- Node2 -->
<g id="Node000002" class="node">
<title>Node2</title>
<g id="a_Node000002"><a xlink:href="../../db/d9a/classfl_1_1_spectral_variance_aab4b30b2be5581bc53207470bd7712e1.html#aab4b30b2be5581bc53207470bd7712e1" target="_top" xlink:title=" ">
<polygon fill="white" stroke="#666666" points="370,-286.5 260,-286.5 260,-256.5 370,-256.5 370,-286.5"/>
<text text-anchor="start" x="268" y="-274.5" font-family="Helvetica,sans-Serif" font-size="10.00">fl::SpectralVariance</text>
<text text-anchor="middle" x="315" y="-263.5" font-family="Helvetica,sans-Serif" font-size="10.00">::SpectralVariance</text>
</a>
</g>
</g>
<!-- Node1&#45;&gt;Node2 -->
<g id="edge1_Node000001_Node000002" class="edge">
<title>Node1&#45;&gt;Node2</title>
<g id="a_edge1_Node000001_Node000002"><a xlink:title=" ">
<path fill="none" stroke="#63b8ff" d="M448.53,-156.66C440.54,-181.24 423.35,-223.52 394,-247.5 387.09,-253.15 378.85,-257.47 370.37,-260.77"/>
<polygon fill="#63b8ff" stroke="#63b8ff" points="451.9,-157.62 451.48,-147.04 445.2,-155.57 451.9,-157.62"/>
</a>
</g>
</g>
<!-- Node3 -->
<g id="Node000003" class="node">
<title>Node3</title>
<g id="a_Node000003"><a xlink:href="../../d3/d7e/classfl_1_1detail_1_1_spectral_variance_impl_ad9a56a290f3a6565057bab6af1a62a65.html#ad9a56a290f3a6565057bab6af1a62a65" target="_top" xlink:title=" ">
<polygon fill="white" stroke="#666666" points="389,-238.5 241,-238.5 241,-208.5 389,-208.5 389,-238.5"/>
<text text-anchor="start" x="249" y="-226.5" font-family="Helvetica,sans-Serif" font-size="10.00">fl::detail::SpectralVariance</text>
<text text-anchor="middle" x="315" y="-215.5" font-family="Helvetica,sans-Serif" font-size="10.00">Impl::SpectralVarianceImpl</text>
</a>
</g>
</g>
<!-- Node1&#45;&gt;Node3 -->
<g id="edge2_Node000001_Node000003" class="edge">
<title>Node1&#45;&gt;Node3</title>
<g id="a_edge2_Node000001_Node000003"><a xlink:title=" ">
<path fill="none" stroke="#63b8ff" d="M440.62,-155.67C429.54,-169.5 412.64,-188.07 394,-199.5 388.44,-202.91 382.37,-205.87 376.13,-208.42"/>
<polygon fill="#63b8ff" stroke="#63b8ff" points="443.67,-157.43 447.01,-147.38 438.13,-153.16 443.67,-157.43"/>
</a>
</g>
</g>
<!-- Node4 -->
<g id="Node000004" class="node">
<title>Node4</title>
<g id="a_Node000004"><a xlink:href="../../d0/d8f/kiss__fft_8cpp_8hpp_acc60de358f03c4acbef269dced5872a0.html#acc60de358f03c4acbef269dced5872a0" target="_top" xlink:title=" ">
<polygon fill="white" stroke="#666666" points="345,-190 285,-190 285,-171 345,-171 345,-190"/>
<text text-anchor="middle" x="315" y="-178" font-family="Helvetica,sans-Serif" font-size="10.00">kf_factor</text>
</a>
</g>
</g>
<!-- Node1&#45;&gt;Node4 -->
<g id="edge3_Node000001_Node000004" class="edge">
<title>Node1&#45;&gt;Node4</title>
<g id="a_edge3_Node000001_Node000004"><a xlink:title=" ">
<path fill="none" stroke="#63b8ff" d="M422.81,-150.95C413.63,-154.64 403.49,-158.46 394,-161.5 378.07,-166.6 359.94,-171.09 345.16,-174.43"/>
<polygon fill="#63b8ff" stroke="#63b8ff" points="424.41,-154.07 432.33,-147.03 421.75,-147.6 424.41,-154.07"/>
</a>
</g>
</g>
<!-- Node12 -->
<g id="Node000012" class="node">
<title>Node12</title>
<g id="a_Node000012"><a xlink:href="../../d3/d7e/classfl_1_1detail_1_1_spectral_variance_impl_aeb524fd8c28444fd66714a90e69f6b0e.html#aeb524fd8c28444fd66714a90e69f6b0e" target="_top" xlink:title="Change the floor threshold for active channel detection.">
<polygon fill="white" stroke="#666666" points="387,-152.5 243,-152.5 243,-122.5 387,-122.5 387,-152.5"/>
<text text-anchor="start" x="251" y="-140.5" font-family="Helvetica,sans-Serif" font-size="10.00">fl::detail::SpectralVariance</text>
<text text-anchor="middle" x="315" y="-129.5" font-family="Helvetica,sans-Serif" font-size="10.00">Impl::setFloor</text>
</a>
</g>
</g>
<!-- Node1&#45;&gt;Node12 -->
<g id="edge6_Node000001_Node000012" class="edge">
<title>Node1&#45;&gt;Node12</title>
<g id="a_edge6_Node000001_Node000012"><a xlink:title=" ">
<path fill="none" stroke="#63b8ff" d="M419.73,-137.5C409.78,-137.5 398.53,-137.5 387.2,-137.5"/>
<polygon fill="#63b8ff" stroke="#63b8ff" points="419.96,-141 429.96,-137.5 419.96,-134 419.96,-141"/>
</a>
</g>
</g>
<!-- Node13 -->
<g id="Node000013" class="node">
<title>Node13</title>
<g id="a_Node000013"><a xlink:href="../../db/d9a/classfl_1_1_spectral_variance_a72e39dacdd5be0bf531b7204a8254523.html#a72e39dacdd5be0bf531b7204a8254523" target="_top" xlink:title=" ">
<polygon fill="white" stroke="#666666" points="370,-104.5 260,-104.5 260,-74.5 370,-74.5 370,-104.5"/>
<text text-anchor="start" x="268" y="-92.5" font-family="Helvetica,sans-Serif" font-size="10.00">fl::SpectralVariance</text>
<text text-anchor="middle" x="315" y="-81.5" font-family="Helvetica,sans-Serif" font-size="10.00">::setFloor</text>
</a>
</g>
</g>
<!-- Node1&#45;&gt;Node13 -->
<g id="edge7_Node000001_Node000013" class="edge">
<title>Node1&#45;&gt;Node13</title>
<g id="a_edge7_Node000001_Node000013"><a xlink:title=" ">
<path fill="none" stroke="#63b8ff" d="M422,-124.14C413,-120.53 403.17,-116.74 394,-113.5 385.32,-110.43 376.01,-107.38 366.97,-104.52"/>
<polygon fill="#63b8ff" stroke="#63b8ff" points="420.79,-127.42 431.37,-127.94 423.42,-120.94 420.79,-127.42"/>
</a>
</g>
</g>
<!-- Node14 -->
<g id="Node000014" class="node">
<title>Node14</title>
<g id="a_Node000014"><a xlink:href="../../d4/d36/namespacefl_a0585edea80d3b23fb7fcd54b95a09bbc.html#a0585edea80d3b23fb7fcd54b95a09bbc" target="_top" xlink:title="Traverse a grid segment using floating point arithmetic.">
<polygon fill="white" stroke="#666666" points="394,-56 236,-56 236,-37 394,-37 394,-56"/>
<text text-anchor="middle" x="315" y="-44" font-family="Helvetica,sans-Serif" font-size="10.00">fl::traverseGridSegmentFloat</text>
</a>
</g>
</g>
<!-- Node1&#45;&gt;Node14 -->
<g id="edge8_Node000001_Node000014" class="edge">
<title>Node1&#45;&gt;Node14</title>
<g id="a_edge8_Node000001_Node000014"><a xlink:title=" ">
<path fill="none" stroke="#63b8ff" d="M443.44,-119.11C432.99,-102.57 415.47,-78.89 394,-65.5 387.73,-61.59 380.72,-58.49 373.53,-56.02"/>
<polygon fill="#63b8ff" stroke="#63b8ff" points="440.58,-121.14 448.76,-127.89 446.57,-117.52 440.58,-121.14"/>
</a>
</g>
</g>
<!-- Node15 -->
<g id="Node000015" class="node">
<title>Node15</title>
<g id="a_Node000015"><a xlink:href="../../dd/d45/struct_painter_ab6318a63a778550cd78f3eae183cb8dc.html#ab6318a63a778550cd78f3eae183cb8dc" target="_top" xlink:title=" ">
<polygon fill="white" stroke="#666666" points="382,-19 248,-19 248,0 382,0 382,-19"/>
<text text-anchor="middle" x="315" y="-7" font-family="Helvetica,sans-Serif" font-size="10.00">Painter::VegasVisualizer</text>
</a>
</g>
</g>
<!-- Node1&#45;&gt;Node15 -->
<g id="edge9_Node000001_Node000015" class="edge">
<title>Node1&#45;&gt;Node15</title>
<g id="a_edge9_Node000001_Node000015"><a xlink:title=" ">
<path fill="none" stroke="#63b8ff" d="M448.79,-118.01C441.08,-93.08 424.19,-50.41 394,-27.5 389.57,-24.14 384.62,-21.39 379.42,-19.14"/>
<polygon fill="#63b8ff" stroke="#63b8ff" points="445.47,-119.16 451.62,-127.79 452.2,-117.21 445.47,-119.16"/>
</a>
</g>
</g>
<!-- Node5 -->
<g id="Node000005" class="node">
<title>Node5</title>
<g id="a_Node000005"><a xlink:href="../../d0/d8f/kiss__fft_8cpp_8hpp_aa3a3753f06cf36fa0e2c28751799ce55.html#aa3a3753f06cf36fa0e2c28751799ce55" target="_top" xlink:title=" ">
<polygon fill="white" stroke="#666666" points="200,-190 120,-190 120,-171 200,-171 200,-190"/>
<text text-anchor="middle" x="160" y="-178" font-family="Helvetica,sans-Serif" font-size="10.00">kiss_fft_alloc</text>
</a>
</g>
</g>
<!-- Node4&#45;&gt;Node5 -->
<g id="edge4_Node000004_Node000005" class="edge">
<title>Node4&#45;&gt;Node5</title>
<g id="a_edge4_Node000004_Node000005"><a xlink:title=" ">
<path fill="none" stroke="#63b8ff" d="M274.79,-180.5C251.88,-180.5 223.05,-180.5 200.15,-180.5"/>
<polygon fill="#63b8ff" stroke="#63b8ff" points="274.86,-184 284.86,-180.5 274.86,-177 274.86,-184"/>
</a>
</g>
</g>
<!-- Node6 -->
<g id="Node000006" class="node">
<title>Node6</title>
<g id="a_Node000006"><a xlink:href="../../da/dad/kiss__fftr_8cpp_8hpp_a7762a2bef4c3ff3b94cc7f5229a076fc.html#a7762a2bef4c3ff3b94cc7f5229a076fc" target="_top" xlink:title=" ">
<polygon fill="#fff0f0" stroke="red" points="84,-190 0,-190 0,-171 84,-171 84,-190"/>
<text text-anchor="middle" x="42" y="-178" font-family="Helvetica,sans-Serif" font-size="10.00">kiss_fftr_alloc</text>
</a>
</g>
</g>
<!-- Node5&#45;&gt;Node6 -->
<g id="edge5_Node000005_Node000006" class="edge">
<title>Node5&#45;&gt;Node6</title>
<g id="a_edge5_Node000005_Node000006"><a xlink:title=" ">
<path fill="none" stroke="#63b8ff" d="M109.59,-180.5C101.13,-180.5 92.43,-180.5 84.21,-180.5"/>
<polygon fill="#63b8ff" stroke="#63b8ff" points="109.73,-184 119.73,-180.5 109.73,-177 109.73,-184"/>
</a>
</g>
</g>
<!-- Node16 -->
<g id="Node000016" class="node">
<title>Node16</title>
<g id="a_Node000016"><a xlink:href="../../dd/d45/struct_painter_a99ab92bb8d2baae96c7b4b4aacda4de3.html#a99ab92bb8d2baae96c7b4b4aacda4de3" target="_top" xlink:title=" ">
<polygon fill="white" stroke="#666666" points="200,-19 120,-19 120,0 200,0 200,-19"/>
<text text-anchor="middle" x="160" y="-7" font-family="Helvetica,sans-Serif" font-size="10.00">Painter::Paint</text>
</a>
</g>
</g>
<!-- Node15&#45;&gt;Node16 -->
<g id="edge10_Node000015_Node000016" class="edge">
<title>Node15&#45;&gt;Node16</title>
<g id="a_edge10_Node000015_Node000016"><a xlink:title=" ">
<path fill="none" stroke="#63b8ff" d="M237.5,-9.5C224.66,-9.5 211.81,-9.5 200.41,-9.5"/>
<polygon fill="#63b8ff" stroke="#63b8ff" points="237.78,-13 247.78,-9.5 237.78,-6 237.78,-13"/>
</a>
</g>
</g>
<!-- Node17 -->
<g id="Node000017" class="node">
<title>Node17</title>
<g id="a_Node000017"><a xlink:href="../../d8/de5/_luminescent_grand_8ino_afe461d27b9c48d5921c00d521181f12f.html#afe461d27b9c48d5921c00d521181f12f" target="_top" xlink:title=" ">
<polygon fill="white" stroke="#666666" points="61,-19 23,-19 23,0 61,0 61,-19"/>
<text text-anchor="middle" x="42" y="-7" font-family="Helvetica,sans-Serif" font-size="10.00">loop</text>
</a>
</g>
</g>
<!-- Node16&#45;&gt;Node17 -->
<g id="edge11_Node000016_Node000017" class="edge">
<title>Node16&#45;&gt;Node17</title>
<g id="a_edge11_Node000016_Node000017"><a xlink:title=" ">
<path fill="none" stroke="#63b8ff" d="M109.26,-9.5C92.15,-9.5 74.06,-9.5 61.12,-9.5"/>
<polygon fill="#63b8ff" stroke="#63b8ff" points="109.73,-13 119.73,-9.5 109.73,-6 109.73,-13"/>
</a>
</g>
</g>
</g>
</svg>
