<?xml version="1.0" encoding="UTF-8" standalone="no"?>
<!DOCTYPE svg PUBLIC "-//W3C//DTD SVG 1.1//EN"
 "http://www.w3.org/Graphics/SVG/1.1/DTD/svg11.dtd">
<!-- Generated by graphviz version 2.43.0 (0)
 -->
<!-- Title: fl::blend Pages: 1 -->
<svg width="523pt" height="64pt"
 viewBox="0.00 0.00 523.00 64.00" xmlns="http://www.w3.org/2000/svg" xmlns:xlink="http://www.w3.org/1999/xlink">
<g id="graph0" class="graph" transform="scale(1 1) rotate(0) translate(4 60)">
<title>fl::blend</title>
<!-- Node1 -->
<g id="Node000001" class="node">
<title>Node1</title>
<g id="a_Node000001"><a xlink:title=" ">
<polygon fill="#999999" stroke="#666666" points="56,-38 0,-38 0,-19 56,-19 56,-38"/>
<text text-anchor="middle" x="28" y="-26" font-family="Helvetica,sans-Serif" font-size="10.00">fl::blend</text>
</a>
</g>
</g>
<!-- Node2 -->
<g id="Node000002" class="node">
<title>Node2</title>
<g id="a_Node000002"><a xlink:href="../../d4/d36/namespacefl_a924fc8748f53389e55fdc63bfc14b805.html#a924fc8748f53389e55fdc63bfc14b805" target="_top" xlink:title=" ">
<polygon fill="white" stroke="#666666" points="148,-38 92,-38 92,-19 148,-19 148,-38"/>
<text text-anchor="middle" x="120" y="-26" font-family="Helvetica,sans-Serif" font-size="10.00">fl::blend</text>
</a>
</g>
</g>
<!-- Node1&#45;&gt;Node2 -->
<g id="edge1_Node000001_Node000002" class="edge">
<title>Node1&#45;&gt;Node2</title>
<g id="a_edge1_Node000001_Node000002"><a xlink:title=" ">
<path fill="none" stroke="#63b8ff" d="M56,-28.5C64.03,-28.5 72.97,-28.5 81.53,-28.5"/>
<polygon fill="#63b8ff" stroke="#63b8ff" points="81.71,-32 91.71,-28.5 81.7,-25 81.71,-32"/>
</a>
</g>
</g>
<!-- Node3 -->
<g id="Node000003" class="node">
<title>Node3</title>
<g id="a_Node000003"><a xlink:href="../../d4/d36/namespacefl_aa1e0cd66825220bead12cfc1ab7f33c6.html#aa1e0cd66825220bead12cfc1ab7f33c6" target="_top" xlink:title=" ">
<polygon fill="white" stroke="#666666" points="246,-38 184,-38 184,-19 246,-19 246,-38"/>
<text text-anchor="middle" x="215" y="-26" font-family="Helvetica,sans-Serif" font-size="10.00">fl::nblend</text>
</a>
</g>
</g>
<!-- Node2&#45;&gt;Node3 -->
<g id="edge2_Node000002_Node000003" class="edge">
<title>Node2&#45;&gt;Node3</title>
<g id="a_edge2_Node000002_Node000003"><a xlink:title=" ">
<path fill="none" stroke="#63b8ff" d="M148.4,-28.5C156.32,-28.5 165.14,-28.5 173.68,-28.5"/>
<polygon fill="#63b8ff" stroke="#63b8ff" points="173.87,-32 183.87,-28.5 173.87,-25 173.87,-32"/>
</a>
</g>
</g>
<!-- Node4 -->
<g id="Node000004" class="node">
<title>Node4</title>
<g id="a_Node000004"><a xlink:href="../../d5/d98/group___math_ga9a604de042246d6c87fdbfdd5578f377.html#ga9a604de042246d6c87fdbfdd5578f377" target="_top" xlink:title="Blend a variable proportion (0&#45;255) of one byte to another.">
<polygon fill="white" stroke="#666666" points="332,-38 282,-38 282,-19 332,-19 332,-38"/>
<text text-anchor="middle" x="307" y="-26" font-family="Helvetica,sans-Serif" font-size="10.00">blend8</text>
</a>
</g>
</g>
<!-- Node3&#45;&gt;Node4 -->
<g id="edge3_Node000003_Node000004" class="edge">
<title>Node3&#45;&gt;Node4</title>
<g id="a_edge3_Node000003_Node000004"><a xlink:title=" ">
<path fill="none" stroke="#63b8ff" d="M246.47,-28.5C254.57,-28.5 263.38,-28.5 271.68,-28.5"/>
<polygon fill="#63b8ff" stroke="#63b8ff" points="271.82,-32 281.82,-28.5 271.82,-25 271.82,-32"/>
</a>
</g>
</g>
<!-- Node5 -->
<g id="Node000005" class="node">
<title>Node5</title>
<g id="a_Node000005"><a xlink:href="../../d0/da5/group___scaling_dirty_ga3fade00fb4cf5b937b973128198a7a79.html#ga3fade00fb4cf5b937b973128198a7a79" target="_top" xlink:title="Clean up the r1 register after a series of *LEAVING_R1_DIRTY calls.">
<polygon fill="white" stroke="#666666" points="478,-56 405,-56 405,-37 478,-37 478,-56"/>
<text text-anchor="middle" x="441.5" y="-44" font-family="Helvetica,sans-Serif" font-size="10.00">cleanup_R1</text>
</a>
</g>
</g>
<!-- Node3&#45;&gt;Node5 -->
<g id="edge6_Node000003_Node000005" class="edge">
<title>Node3&#45;&gt;Node5</title>
<g id="a_edge6_Node000003_Node000005"><a xlink:title=" ">
<path fill="none" stroke="#63b8ff" d="M242.6,-38C254.49,-41.76 268.78,-45.63 282,-47.5 319.58,-52.8 362.67,-52.1 394.42,-50.33"/>
<polygon fill="#63b8ff" stroke="#63b8ff" points="394.97,-53.8 404.73,-49.69 394.54,-46.81 394.97,-53.8"/>
</a>
</g>
</g>
<!-- Node6 -->
<g id="Node000006" class="node">
<title>Node6</title>
<g id="a_Node000006"><a xlink:href="../../d0/da5/group___scaling_dirty_ga7386235cada3aca429b189681d2ec56d.html#ga7386235cada3aca429b189681d2ec56d" target="_top" xlink:title="This version of scale8() does not clean up the R1 register on AVR.">
<polygon fill="white" stroke="#666666" points="515,-19 368,-19 368,0 515,0 515,-19"/>
<text text-anchor="middle" x="441.5" y="-7" font-family="Helvetica,sans-Serif" font-size="10.00">scale8_LEAVING_R1_DIRTY</text>
</a>
</g>
</g>
<!-- Node3&#45;&gt;Node6 -->
<g id="edge7_Node000003_Node000006" class="edge">
<title>Node3&#45;&gt;Node6</title>
<g id="a_edge7_Node000003_Node000006"><a xlink:title=" ">
<path fill="none" stroke="#63b8ff" d="M242.6,-19C254.49,-15.24 268.78,-11.37 282,-9.5 306.32,-6.07 332.95,-5.03 357.32,-5.13"/>
<polygon fill="#63b8ff" stroke="#63b8ff" points="357.57,-8.64 367.61,-5.24 357.65,-1.64 357.57,-8.64"/>
</a>
</g>
</g>
<!-- Node4&#45;&gt;Node5 -->
<g id="edge4_Node000004_Node000005" class="edge">
<title>Node4&#45;&gt;Node5</title>
<g id="a_edge4_Node000004_Node000005"><a xlink:title=" ">
<path fill="none" stroke="#63b8ff" d="M332.3,-31.8C349.77,-34.17 373.84,-37.44 394.84,-40.3"/>
<polygon fill="#63b8ff" stroke="#63b8ff" points="394.48,-43.78 404.86,-41.66 395.42,-36.84 394.48,-43.78"/>
</a>
</g>
</g>
<!-- Node4&#45;&gt;Node6 -->
<g id="edge5_Node000004_Node000006" class="edge">
<title>Node4&#45;&gt;Node6</title>
<g id="a_edge5_Node000004_Node000006"><a xlink:title=" ">
<path fill="none" stroke="#63b8ff" d="M332.3,-25.02C341.49,-23.7 352.51,-22.12 363.94,-20.48"/>
<polygon fill="#63b8ff" stroke="#63b8ff" points="364.66,-23.91 374.07,-19.03 363.67,-16.98 364.66,-23.91"/>
</a>
</g>
</g>
</g>
</svg>
