<?xml version="1.0" encoding="UTF-8" standalone="no"?>
<!DOCTYPE svg PUBLIC "-//W3C//DTD SVG 1.1//EN"
 "http://www.w3.org/Graphics/SVG/1.1/DTD/svg11.dtd">
<!-- Generated by graphviz version 2.43.0 (0)
 -->
<!-- Title: fl::map_range Pages: 1 -->
<!--zoomable 568 -->

<svg id="main" version="1.1" xmlns="http://www.w3.org/2000/svg" xmlns:xlink="http://www.w3.org/1999/xlink" xml:space="preserve" onload="init(evt)">

<style type="text/css"><![CDATA[
.node, .edge {opacity: 0.7;}
.node.selected, .edge.selected {opacity: 1;}
.edge:hover path { stroke: red; }
.edge:hover polygon { stroke: red; fill: red; }
]]></style>

<defs>
  <circle id="rim" cx="0" cy="0" r="7"/>
  <circle id="rim2" cx="0" cy="0" r="3.5"/>
  <g id="zoomPlus">
    <use xlink:href="#rim" fill="#404040"><set attributeName="fill" to="#808080" begin="zoomplus.mouseover" end="zoomplus.mouseout"/></use>
    <path d="M-4,0h8M0,-4v8" fill="none" stroke="white" stroke-width="1.5" pointer-events="none"/>
  </g>
  <g id="zoomMin">
    <use xlink:href="#rim" fill="#404040"><set attributeName="fill" to="#808080" begin="zoomminus.mouseover" end="zoomminus.mouseout"/></use>
    <path d="M-4,0h8" fill="none" stroke="white" stroke-width="1.5" pointer-events="none"/>
  </g>
  <g id="arrowUp" transform="translate(30 24)">
    <use xlink:href="#rim"/>
    <path pointer-events="none" fill="none" stroke="white" stroke-width="1.5" d="M0,-3.0v7 M-2.5,-0.5L0,-3.0L2.5,-0.5"/>
  </g>
  <g id="arrowRight" transform="rotate(90) translate(36 -43)">
    <use xlink:href="#rim"/>
    <path pointer-events="none" fill="none" stroke="white" stroke-width="1.5" d="M0,-3.0v7 M-2.5,-0.5L0,-3.0L2.5,-0.5"/>
  </g>
  <g id="arrowDown" transform="rotate(180) translate(-30 -48)">
    <use xlink:href="#rim"/>
    <path pointer-events="none" fill="none" stroke="white" stroke-width="1.5" d="M0,-3.0v7 M-2.5,-0.5L0,-3.0L2.5,-0.5"/>
  </g>
  <g id="arrowLeft" transform="rotate(270) translate(-36 17)">
    <use xlink:href="#rim"/>
    <path pointer-events="none" fill="none" stroke="white" stroke-width="1.5" d="M0,-3.0v7 M-2.5,-0.5L0,-3.0L2.5,-0.5"/>
  </g>
  <g id="resetDef">
    <use xlink:href="#rim2" fill="#404040"><set attributeName="fill" to="#808080" begin="reset.mouseover" end="reset.mouseout"/></use>
  </g>
</defs>
<script type="application/ecmascript">
var viewWidth = 785;
var viewHeight = 568;
var sectionId = 'dynsection-0';
</script>
<script type="application/ecmascript" xlink:href="../../svg.min.js"/>
<svg id="graph" class="graph">
<g id="viewport">
<title>fl::map_range</title>
<!-- Node1 -->
<g id="Node000001" class="node">
<title>Node1</title>
<g id="a_Node000001"><a xlink:title=" ">
<polygon fill="#999999" stroke="#666666" points="777,-361 694,-361 694,-342 777,-342 777,-361"/>
<text text-anchor="middle" x="735.5" y="-349" font-family="Helvetica,sans-Serif" font-size="10.00">fl::map_range</text>
</a>
</g>
</g>
<!-- Node2 -->
<g id="Node000002" class="node">
<title>Node2</title>
<g id="a_Node000002"><a xlink:href="../../dc/d82/classfl_1_1_corkscrew_a17fb6139424f13bebfa1177619f62baf.html#a17fb6139424f13bebfa1177619f62baf" target="_top" xlink:title=" ">
<polygon fill="white" stroke="#666666" points="644.5,-559.5 520.5,-559.5 520.5,-529.5 644.5,-529.5 644.5,-559.5"/>
<text text-anchor="start" x="528.5" y="-547.5" font-family="Helvetica,sans-Serif" font-size="10.00">fl::Corkscrew::at_splat</text>
<text text-anchor="middle" x="582.5" y="-536.5" font-family="Helvetica,sans-Serif" font-size="10.00">_extrapolate</text>
</a>
</g>
</g>
<!-- Node1&#45;&gt;Node2 -->
<g id="edge1_Node000001_Node000002" class="edge">
<title>Node1&#45;&gt;Node2</title>
<g id="a_edge1_Node000001_Node000002"><a xlink:title=" ">
<path fill="none" stroke="#63b8ff" d="M731.02,-371.06C723.76,-406.09 703.75,-479.67 658,-520.5 654.05,-524.03 649.57,-527.04 644.82,-529.61"/>
<polygon fill="#63b8ff" stroke="#63b8ff" points="734.47,-371.62 732.94,-361.14 727.6,-370.29 734.47,-371.62"/>
</a>
</g>
</g>
<!-- Node9 -->
<g id="Node000009" class="node">
<title>Node9</title>
<g id="a_Node000009"><a xlink:href="../../da/dc7/advanced_8h_a0cd3fb260305d2515c17bc911005dfe9.html#a0cd3fb260305d2515c17bc911005dfe9" target="_top" xlink:title=" ">
<polygon fill="white" stroke="#666666" points="641.5,-511 523.5,-511 523.5,-492 641.5,-492 641.5,-511"/>
<text text-anchor="middle" x="582.5" y="-499" font-family="Helvetica,sans-Serif" font-size="10.00">drawRadialSpectrum</text>
</a>
</g>
</g>
<!-- Node1&#45;&gt;Node9 -->
<g id="edge6_Node000001_Node000009" class="edge">
<title>Node1&#45;&gt;Node9</title>
<g id="a_edge6_Node000001_Node000009"><a xlink:title=" ">
<path fill="none" stroke="#63b8ff" d="M727.7,-371.04C717.08,-398.7 693.99,-449.08 658,-477.5 650,-483.82 640.3,-488.49 630.57,-491.94"/>
<polygon fill="#63b8ff" stroke="#63b8ff" points="731.1,-371.92 731.26,-361.33 724.53,-369.51 731.1,-371.92"/>
</a>
</g>
</g>
<!-- Node10 -->
<g id="Node000010" class="node">
<title>Node10</title>
<g id="a_Node000010"><a xlink:href="../../da/dc7/advanced_8h_afe461d27b9c48d5921c00d521181f12f.html#afe461d27b9c48d5921c00d521181f12f" target="_top" xlink:title=" ">
<polygon fill="white" stroke="#666666" points="416.5,-435 378.5,-435 378.5,-416 416.5,-416 416.5,-435"/>
<text text-anchor="middle" x="397.5" y="-423" font-family="Helvetica,sans-Serif" font-size="10.00">loop</text>
</a>
</g>
</g>
<!-- Node1&#45;&gt;Node10 -->
<g id="edge15_Node000001_Node000010" class="edge">
<title>Node1&#45;&gt;Node10</title>
<g id="a_edge15_Node000001_Node000010"><a xlink:title=" ">
<path fill="none" stroke="#63b8ff" d="M725.46,-370.47C713.55,-392.94 690.3,-429.25 658,-444.5 575.08,-483.66 460.49,-448.77 416.6,-432.64"/>
<polygon fill="#63b8ff" stroke="#63b8ff" points="728.73,-371.74 730.12,-361.24 722.48,-368.59 728.73,-371.74"/>
</a>
</g>
</g>
<!-- Node11 -->
<g id="Node000011" class="node">
<title>Node11</title>
<g id="a_Node000011"><a xlink:href="../../da/dc7/advanced_8h_ae7ff13764c0edb69a7953097e97d4b7b.html#ae7ff13764c0edb69a7953097e97d4b7b" target="_top" xlink:title=" ">
<polygon fill="white" stroke="#666666" points="637,-435 528,-435 528,-416 637,-416 637,-435"/>
<text text-anchor="middle" x="582.5" y="-423" font-family="Helvetica,sans-Serif" font-size="10.00">drawSpectrumBars</text>
</a>
</g>
</g>
<!-- Node1&#45;&gt;Node11 -->
<g id="edge8_Node000001_Node000011" class="edge">
<title>Node1&#45;&gt;Node11</title>
<g id="a_edge8_Node000001_Node000011"><a xlink:title=" ">
<path fill="none" stroke="#63b8ff" d="M716.17,-368.17C701.45,-380.72 679.72,-397.42 658,-407.5 650.76,-410.86 642.82,-413.63 634.91,-415.91"/>
<polygon fill="#63b8ff" stroke="#63b8ff" points="718.75,-370.56 723.98,-361.35 714.15,-365.29 718.75,-370.56"/>
</a>
</g>
</g>
<!-- Node12 -->
<g id="Node000012" class="node">
<title>Node12</title>
<g id="a_Node000012"><a xlink:href="../../da/dc7/advanced_8h_a3cd847c9f0a4c2d5196727427f9900fe.html#a3cd847c9f0a4c2d5196727427f9900fe" target="_top" xlink:title=" ">
<polygon fill="white" stroke="#666666" points="624,-398 541,-398 541,-379 624,-379 624,-398"/>
<text text-anchor="middle" x="582.5" y="-386" font-family="Helvetica,sans-Serif" font-size="10.00">drawVUMeter</text>
</a>
</g>
</g>
<!-- Node1&#45;&gt;Node12 -->
<g id="edge10_Node000001_Node000012" class="edge">
<title>Node1&#45;&gt;Node12</title>
<g id="a_edge10_Node000001_Node000012"><a xlink:title=" ">
<path fill="none" stroke="#63b8ff" d="M686.67,-363.43C677.17,-365.78 667.27,-368.23 658,-370.5 646.76,-373.25 634.55,-376.22 623.33,-378.93"/>
<polygon fill="#63b8ff" stroke="#63b8ff" points="687.52,-366.83 696.38,-361.02 685.83,-360.03 687.52,-366.83"/>
</a>
</g>
</g>
<!-- Node13 -->
<g id="Node000013" class="node">
<title>Node13</title>
<g id="a_Node000013"><a xlink:href="../../da/dc7/advanced_8h_aee649a9a7f0cce52f425ec28fb9331ac.html#aee649a9a7f0cce52f425ec28fb9331ac" target="_top" xlink:title=" ">
<polygon fill="white" stroke="#666666" points="628,-361 537,-361 537,-342 628,-342 628,-361"/>
<text text-anchor="middle" x="582.5" y="-349" font-family="Helvetica,sans-Serif" font-size="10.00">drawWaveform</text>
</a>
</g>
</g>
<!-- Node1&#45;&gt;Node13 -->
<g id="edge12_Node000001_Node000013" class="edge">
<title>Node1&#45;&gt;Node13</title>
<g id="a_edge12_Node000001_Node000013"><a xlink:title=" ">
<path fill="none" stroke="#63b8ff" d="M683.61,-351.5C665.62,-351.5 645.54,-351.5 628.11,-351.5"/>
<polygon fill="#63b8ff" stroke="#63b8ff" points="683.64,-355 693.64,-351.5 683.64,-348 683.64,-355"/>
</a>
</g>
</g>
<!-- Node14 -->
<g id="Node000014" class="node">
<title>Node14</title>
<g id="a_Node000014"><a xlink:href="../../d6/dcf/classfl_1_1video_1_1_frame_tracker_ae735a17f3fc75df33299e04e206bd85d.html#ae735a17f3fc75df33299e04e206bd85d" target="_top" xlink:title=" ">
<polygon fill="white" stroke="#666666" points="646,-323.5 519,-323.5 519,-293.5 646,-293.5 646,-323.5"/>
<text text-anchor="start" x="527" y="-311.5" font-family="Helvetica,sans-Serif" font-size="10.00">fl::video::FrameTracker</text>
<text text-anchor="middle" x="582.5" y="-300.5" font-family="Helvetica,sans-Serif" font-size="10.00">::get_interval_frames</text>
</a>
</g>
</g>
<!-- Node1&#45;&gt;Node14 -->
<g id="edge14_Node000001_Node000014" class="edge">
<title>Node1&#45;&gt;Node14</title>
<g id="a_edge14_Node000001_Node000014"><a xlink:title=" ">
<path fill="none" stroke="#63b8ff" d="M691.24,-339.18C674.08,-334.29 654.18,-328.63 636.2,-323.51"/>
<polygon fill="#63b8ff" stroke="#63b8ff" points="690.41,-342.58 700.99,-341.96 692.33,-335.85 690.41,-342.58"/>
</a>
</g>
</g>
<!-- Node15 -->
<g id="Node000015" class="node">
<title>Node15</title>
<g id="a_Node000015"><a xlink:href="../../d7/d76/namespaceanonymous__namespace_02xypaths_8cpp_03_a08f9ec245144ed2202fd35be61c5af39.html#a08f9ec245144ed2202fd35be61c5af39" target="_top" xlink:title=" ">
<polygon fill="white" stroke="#666666" points="658,-275.5 507,-275.5 507,-245.5 658,-245.5 658,-275.5"/>
<text text-anchor="start" x="515" y="-263.5" font-family="Helvetica,sans-Serif" font-size="10.00">anonymous_namespace</text>
<text text-anchor="middle" x="582.5" y="-252.5" font-family="Helvetica,sans-Serif" font-size="10.00">{xypaths::cpp}::make_path</text>
</a>
</g>
</g>
<!-- Node1&#45;&gt;Node15 -->
<g id="edge16_Node000001_Node000015" class="edge">
<title>Node1&#45;&gt;Node15</title>
<g id="a_edge16_Node000001_Node000015"><a xlink:title=" ">
<path fill="none" stroke="#63b8ff" d="M718.89,-334.32C704.4,-319.3 681.59,-297.86 658,-284.5 652.09,-281.15 645.64,-278.19 639.1,-275.6"/>
<polygon fill="#63b8ff" stroke="#63b8ff" points="716.63,-337.03 726.03,-341.91 721.72,-332.23 716.63,-337.03"/>
</a>
</g>
</g>
<!-- Node17 -->
<g id="Node000017" class="node">
<title>Node17</title>
<g id="a_Node000017"><a xlink:href="../../d4/d36/namespacefl_ab29e8b6f887f0b299a405c90c001bca6.html#ab29e8b6f887f0b299a405c90c001bca6" target="_top" xlink:title=" ">
<polygon fill="white" stroke="#666666" points="648,-227 517,-227 517,-208 648,-208 648,-227"/>
<text text-anchor="middle" x="582.5" y="-215" font-family="Helvetica,sans-Serif" font-size="10.00">fl::map_range_clamped</text>
</a>
</g>
</g>
<!-- Node1&#45;&gt;Node17 -->
<g id="edge18_Node000001_Node000017" class="edge">
<title>Node1&#45;&gt;Node17</title>
<g id="a_edge18_Node000001_Node000017"><a xlink:title=" ">
<path fill="none" stroke="#63b8ff" d="M726.97,-332.27C715.85,-306.45 692.56,-261 658,-236.5 652.56,-232.64 646.4,-229.56 640.01,-227.11"/>
<polygon fill="#63b8ff" stroke="#63b8ff" points="723.82,-333.81 730.87,-341.72 730.29,-331.14 723.82,-333.81"/>
</a>
</g>
</g>
<!-- Node28 -->
<g id="Node000028" class="node">
<title>Node28</title>
<g id="a_Node000028"><a xlink:href="../../d2/dbc/classfl_1_1_x_y_path_renderer_a7c03ca116bbfb4f317474d05ea868c6b.html#a7c03ca116bbfb4f317474d05ea868c6b" target="_top" xlink:title=" ">
<polygon fill="white" stroke="#666666" points="636,-189.5 529,-189.5 529,-159.5 636,-159.5 636,-189.5"/>
<text text-anchor="start" x="537" y="-177.5" font-family="Helvetica,sans-Serif" font-size="10.00">fl::XYPathRenderer</text>
<text text-anchor="middle" x="582.5" y="-166.5" font-family="Helvetica,sans-Serif" font-size="10.00">::rasterize</text>
</a>
</g>
</g>
<!-- Node1&#45;&gt;Node28 -->
<g id="edge25_Node000001_Node000028" class="edge">
<title>Node1&#45;&gt;Node28</title>
<g id="a_edge25_Node000001_Node000028"><a xlink:title=" ">
<path fill="none" stroke="#63b8ff" d="M729.79,-331.73C721.11,-299.46 699.54,-235.5 658,-199.5 651.71,-194.05 644.19,-189.78 636.38,-186.43"/>
<polygon fill="#63b8ff" stroke="#63b8ff" points="726.48,-332.89 732.34,-341.72 733.26,-331.16 726.48,-332.89"/>
</a>
</g>
</g>
<!-- Node30 -->
<g id="Node000030" class="node">
<title>Node30</title>
<g id="a_Node000030"><a xlink:href="../../dc/d56/classfl_1_1unordered__map_af76dd32a9b4e174b546bd58aa851d2ff.html#af76dd32a9b4e174b546bd58aa851d2ff" target="_top" xlink:title=" ">
<polygon fill="white" stroke="#666666" points="651.5,-93 513.5,-93 513.5,-74 651.5,-74 651.5,-93"/>
<text text-anchor="middle" x="582.5" y="-81" font-family="Helvetica,sans-Serif" font-size="10.00">fl::iterator::setLoadFactor</text>
</a>
</g>
</g>
<!-- Node1&#45;&gt;Node30 -->
<g id="edge27_Node000001_Node000030" class="edge">
<title>Node1&#45;&gt;Node30</title>
<g id="a_edge27_Node000001_Node000030"><a xlink:title=" ">
<path fill="none" stroke="#63b8ff" d="M730.29,-331.79C721.54,-294.02 698.76,-209.94 658,-150.5 641.38,-126.25 614.23,-104.82 597.7,-93.05"/>
<polygon fill="#63b8ff" stroke="#63b8ff" points="726.96,-332.95 732.56,-341.94 733.79,-331.42 726.96,-332.95"/>
</a>
</g>
</g>
<!-- Node3 -->
<g id="Node000003" class="node">
<title>Node3</title>
<g id="a_Node000003"><a xlink:href="../../dc/d82/classfl_1_1_corkscrew_a19e8c25e03e4efe26891f9e2ec166d5c.html#a19e8c25e03e4efe26891f9e2ec166d5c" target="_top" xlink:title=" ">
<polygon fill="white" stroke="#666666" points="462,-559.5 333,-559.5 333,-529.5 462,-529.5 462,-559.5"/>
<text text-anchor="start" x="341" y="-547.5" font-family="Helvetica,sans-Serif" font-size="10.00">fl::Corkscrew::calculate</text>
<text text-anchor="middle" x="397.5" y="-536.5" font-family="Helvetica,sans-Serif" font-size="10.00">TileAtWrap</text>
</a>
</g>
</g>
<!-- Node2&#45;&gt;Node3 -->
<g id="edge2_Node000002_Node000003" class="edge">
<title>Node2&#45;&gt;Node3</title>
<g id="a_edge2_Node000002_Node000003"><a xlink:title=" ">
<path fill="none" stroke="#63b8ff" d="M510.06,-544.5C494.26,-544.5 477.61,-544.5 462.14,-544.5"/>
<polygon fill="#63b8ff" stroke="#63b8ff" points="510.31,-548 520.31,-544.5 510.31,-541 510.31,-548"/>
</a>
</g>
</g>
<!-- Node4 -->
<g id="Node000004" class="node">
<title>Node4</title>
<g id="a_Node000004"><a xlink:href="../../dc/d82/classfl_1_1_corkscrew_ac2d7b05f94370ed3f83dcb3673589fad.html#ac2d7b05f94370ed3f83dcb3673589fad" target="_top" xlink:title=" ">
<polygon fill="#fff0f0" stroke="red" points="124,-553 0,-553 0,-534 124,-534 124,-553"/>
<text text-anchor="middle" x="62" y="-541" font-family="Helvetica,sans-Serif" font-size="10.00">fl::Corkscrew::at_wrap</text>
</a>
</g>
</g>
<!-- Node3&#45;&gt;Node4 -->
<g id="edge3_Node000003_Node000004" class="edge">
<title>Node3&#45;&gt;Node4</title>
<g id="a_edge3_Node000003_Node000004"><a xlink:title=" ">
<path fill="none" stroke="#63b8ff" d="M322.74,-546.03C276.08,-546.77 214.5,-547.34 160,-546.5 148.38,-546.32 135.97,-546.02 124.05,-545.68"/>
<polygon fill="#63b8ff" stroke="#63b8ff" points="322.82,-549.53 332.76,-545.86 322.7,-542.53 322.82,-549.53"/>
</a>
</g>
</g>
<!-- Node8 -->
<g id="Node000008" class="node">
<title>Node8</title>
<g id="a_Node000008"><a xlink:href="../../dc/d82/classfl_1_1_corkscrew_ab6ad3e3bc89051fb0d64526a97b3ae20.html#ab6ad3e3bc89051fb0d64526a97b3ae20" target="_top" xlink:title=" ">
<polygon fill="white" stroke="#666666" points="287.5,-537.5 160.5,-537.5 160.5,-507.5 287.5,-507.5 287.5,-537.5"/>
<text text-anchor="start" x="168.5" y="-525.5" font-family="Helvetica,sans-Serif" font-size="10.00">fl::Corkscrew::initialize</text>
<text text-anchor="middle" x="224" y="-514.5" font-family="Helvetica,sans-Serif" font-size="10.00">Cache</text>
</a>
</g>
</g>
<!-- Node3&#45;&gt;Node8 -->
<g id="edge4_Node000003_Node000008" class="edge">
<title>Node3&#45;&gt;Node8</title>
<g id="a_edge4_Node000003_Node000008"><a xlink:title=" ">
<path fill="none" stroke="#63b8ff" d="M322.55,-535.01C310.96,-533.53 299.08,-532 287.77,-530.55"/>
<polygon fill="#63b8ff" stroke="#63b8ff" points="322.28,-538.51 332.64,-536.31 323.17,-531.56 322.28,-538.51"/>
</a>
</g>
</g>
<!-- Node8&#45;&gt;Node4 -->
<g id="edge5_Node000008_Node000004" class="edge">
<title>Node8&#45;&gt;Node4</title>
<g id="a_edge5_Node000008_Node000004"><a xlink:title=" ">
<path fill="none" stroke="#63b8ff" d="M150.07,-532.07C141.36,-533.21 132.54,-534.37 124.02,-535.49"/>
<polygon fill="#63b8ff" stroke="#63b8ff" points="150.76,-535.51 160.22,-530.74 149.85,-528.57 150.76,-535.51"/>
</a>
</g>
</g>
<!-- Node9&#45;&gt;Node10 -->
<g id="edge7_Node000009_Node000010" class="edge">
<title>Node9&#45;&gt;Node10</title>
<g id="a_edge7_Node000009_Node000010"><a xlink:title=" ">
<path fill="none" stroke="#63b8ff" d="M538.73,-488.82C528.25,-485.41 517.14,-481.54 507,-477.5 474.4,-464.51 437.86,-446.17 416.59,-435.1"/>
<polygon fill="#63b8ff" stroke="#63b8ff" points="537.93,-492.24 548.52,-491.93 540.05,-485.56 537.93,-492.24"/>
</a>
</g>
</g>
<!-- Node11&#45;&gt;Node10 -->
<g id="edge9_Node000011_Node000010" class="edge">
<title>Node11&#45;&gt;Node10</title>
<g id="a_edge9_Node000011_Node000010"><a xlink:title=" ">
<path fill="none" stroke="#63b8ff" d="M517.24,-425.5C481.65,-425.5 440,-425.5 416.69,-425.5"/>
<polygon fill="#63b8ff" stroke="#63b8ff" points="517.58,-429 527.58,-425.5 517.58,-422 517.58,-429"/>
</a>
</g>
</g>
<!-- Node12&#45;&gt;Node10 -->
<g id="edge11_Node000012_Node000010" class="edge">
<title>Node12&#45;&gt;Node10</title>
<g id="a_edge11_Node000012_Node000010"><a xlink:title=" ">
<path fill="none" stroke="#63b8ff" d="M531.01,-398.71C493.04,-406.39 443.17,-416.47 416.76,-421.81"/>
<polygon fill="#63b8ff" stroke="#63b8ff" points="531.78,-402.12 540.89,-396.71 530.39,-395.26 531.78,-402.12"/>
</a>
</g>
</g>
<!-- Node13&#45;&gt;Node10 -->
<g id="edge13_Node000013_Node000010" class="edge">
<title>Node13&#45;&gt;Node10</title>
<g id="a_edge13_Node000013_Node000010"><a xlink:title=" ">
<path fill="none" stroke="#63b8ff" d="M527.24,-363.85C520.36,-365.85 513.46,-368.07 507,-370.5 472.8,-383.35 435.27,-403.95 414.53,-415.96"/>
<polygon fill="#63b8ff" stroke="#63b8ff" points="528.57,-367.11 537.28,-361.07 526.71,-360.36 528.57,-367.11"/>
</a>
</g>
</g>
<!-- Node16 -->
<g id="Node000016" class="node">
<title>Node16</title>
<g id="a_Node000016"><a xlink:href="../../dd/d96/_downscale_2src_2xypaths_8cpp_a2cd69cafc62f293af363d2a9589f9c35.html#a2cd69cafc62f293af363d2a9589f9c35" target="_top" xlink:title=" ">
<polygon fill="white" stroke="#666666" points="441.5,-301 353.5,-301 353.5,-282 441.5,-282 441.5,-301"/>
<text text-anchor="middle" x="397.5" y="-289" font-family="Helvetica,sans-Serif" font-size="10.00">CreateXYPaths</text>
</a>
</g>
</g>
<!-- Node15&#45;&gt;Node16 -->
<g id="edge17_Node000015_Node000016" class="edge">
<title>Node15&#45;&gt;Node16</title>
<g id="a_edge17_Node000015_Node000016"><a xlink:title=" ">
<path fill="none" stroke="#63b8ff" d="M496.87,-274.84C477.78,-278.07 458.28,-281.37 441.74,-284.18"/>
<polygon fill="#63b8ff" stroke="#63b8ff" points="497.53,-278.27 506.8,-273.15 496.36,-271.37 497.53,-278.27"/>
</a>
</g>
</g>
<!-- Node18 -->
<g id="Node000018" class="node">
<title>Node18</title>
<g id="a_Node000018"><a xlink:href="../../d4/d36/namespacefl_a16b959c0a6717214a91e88287d5aab08.html#a16b959c0a6717214a91e88287d5aab08" target="_top" xlink:title="Rescale raw inoise16() output to full 16&#45;bit range [0, 65535] Curries in the global NOISE16_EXTENT_MI...">
<polygon fill="white" stroke="#666666" points="463,-264 332,-264 332,-245 463,-245 463,-264"/>
<text text-anchor="middle" x="397.5" y="-252" font-family="Helvetica,sans-Serif" font-size="10.00">fl::rescaleNoiseValue16</text>
</a>
</g>
</g>
<!-- Node17&#45;&gt;Node18 -->
<g id="edge19_Node000017_Node000018" class="edge">
<title>Node17&#45;&gt;Node18</title>
<g id="a_edge19_Node000017_Node000018"><a xlink:title=" ">
<path fill="none" stroke="#63b8ff" d="M524.54,-229.02C499.25,-234.13 469.84,-240.08 445.79,-244.94"/>
<polygon fill="#63b8ff" stroke="#63b8ff" points="525.26,-232.44 534.37,-227.03 523.88,-225.58 525.26,-232.44"/>
</a>
</g>
</g>
<!-- Node27 -->
<g id="Node000027" class="node">
<title>Node27</title>
<g id="a_Node000027"><a xlink:href="../../d7/d8f/_el_panel_reactive_8ino_a4fc01d736fe50cf5b977f755b675f11d.html#a4fc01d736fe50cf5b977f755b675f11d" target="_top" xlink:title=" ">
<polygon fill="white" stroke="#666666" points="419.5,-227 375.5,-227 375.5,-208 419.5,-208 419.5,-227"/>
<text text-anchor="middle" x="397.5" y="-215" font-family="Helvetica,sans-Serif" font-size="10.00">setup</text>
</a>
</g>
</g>
<!-- Node17&#45;&gt;Node27 -->
<g id="edge24_Node000017_Node000027" class="edge">
<title>Node17&#45;&gt;Node27</title>
<g id="a_edge24_Node000017_Node000027"><a xlink:title=" ">
<path fill="none" stroke="#63b8ff" d="M506.9,-217.5C475.48,-217.5 441.3,-217.5 419.9,-217.5"/>
<polygon fill="#63b8ff" stroke="#63b8ff" points="506.98,-221 516.98,-217.5 506.98,-214 506.98,-221"/>
</a>
</g>
</g>
<!-- Node19 -->
<g id="Node000019" class="node">
<title>Node19</title>
<g id="a_Node000019"><a xlink:href="../../d7/d91/group___cylinder_noise_ga2bdee5e155aa2ab13ece081198d7b990.html#ga2bdee5e155aa2ab13ece081198d7b990" target="_top" xlink:title="Generate CRGB noise for a cylinder pattern.">
<polygon fill="white" stroke="#666666" points="285.5,-319 162.5,-319 162.5,-300 285.5,-300 285.5,-319"/>
<text text-anchor="middle" x="224" y="-307" font-family="Helvetica,sans-Serif" font-size="10.00">fl::noiseCylinderCRGB</text>
</a>
</g>
</g>
<!-- Node18&#45;&gt;Node19 -->
<g id="edge20_Node000018_Node000019" class="edge">
<title>Node18&#45;&gt;Node19</title>
<g id="a_edge20_Node000018_Node000019"><a xlink:title=" ">
<path fill="none" stroke="#63b8ff" d="M343.98,-266.88C337.19,-268.88 330.38,-271.1 324,-273.5 307.26,-279.8 304.67,-285.01 288,-291.5 279.94,-294.63 271.12,-297.49 262.69,-299.97"/>
<polygon fill="#63b8ff" stroke="#63b8ff" points="345.19,-270.18 353.87,-264.1 343.29,-263.44 345.19,-270.18"/>
</a>
</g>
</g>
<!-- Node20 -->
<g id="Node000020" class="node">
<title>Node20</title>
<g id="a_Node000020"><a xlink:href="../../d7/d91/group___cylinder_noise_ga73362dfc92c8e1badb3b3491852639a9.html#ga73362dfc92c8e1badb3b3491852639a9" target="_top" xlink:title="Cylinder noise functions &#45; sample three z&#45;slices for independent component evolution.">
<polygon fill="#fff0f0" stroke="red" points="288,-282 160,-282 160,-263 288,-263 288,-282"/>
<text text-anchor="middle" x="224" y="-270" font-family="Helvetica,sans-Serif" font-size="10.00">fl::noiseCylinderHSV16</text>
</a>
</g>
</g>
<!-- Node18&#45;&gt;Node20 -->
<g id="edge21_Node000018_Node000020" class="edge">
<title>Node18&#45;&gt;Node20</title>
<g id="a_edge21_Node000018_Node000020"><a xlink:title=" ">
<path fill="none" stroke="#63b8ff" d="M321.55,-262.37C310.43,-263.53 299.07,-264.73 288.22,-265.86"/>
<polygon fill="#63b8ff" stroke="#63b8ff" points="322.08,-265.83 331.66,-261.31 321.35,-258.87 322.08,-265.83"/>
</a>
</g>
</g>
<!-- Node22 -->
<g id="Node000022" class="node">
<title>Node22</title>
<g id="a_Node000022"><a xlink:href="../../d6/d5f/group___ring_noise_gaf4d521145a9a922c3469227ce7df4003.html#gaf4d521145a9a922c3469227ce7df4003" target="_top" xlink:title="Generate CRGB noise for a ring pattern.">
<polygon fill="white" stroke="#666666" points="276,-245 172,-245 172,-226 276,-226 276,-245"/>
<text text-anchor="middle" x="224" y="-233" font-family="Helvetica,sans-Serif" font-size="10.00">fl::noiseRingCRGB</text>
</a>
</g>
</g>
<!-- Node18&#45;&gt;Node22 -->
<g id="edge22_Node000018_Node000022" class="edge">
<title>Node18&#45;&gt;Node22</title>
<g id="a_edge22_Node000018_Node000022"><a xlink:title=" ">
<path fill="none" stroke="#63b8ff" d="M321.63,-246.21C306.23,-244.5 290.35,-242.74 276.03,-241.15"/>
<polygon fill="#63b8ff" stroke="#63b8ff" points="321.34,-249.69 331.66,-247.32 322.11,-242.74 321.34,-249.69"/>
</a>
</g>
</g>
<!-- Node23 -->
<g id="Node000023" class="node">
<title>Node23</title>
<g id="a_Node000023"><a xlink:href="../../d6/d5f/group___ring_noise_ga424c29c488273a2f0efb1bb80bb0911a.html#ga424c29c488273a2f0efb1bb80bb0911a" target="_top" xlink:title="Ring noise functions &#45; sample three z&#45;slices for independent component evolution.">
<polygon fill="#fff0f0" stroke="red" points="278.5,-208 169.5,-208 169.5,-189 278.5,-189 278.5,-208"/>
<text text-anchor="middle" x="224" y="-196" font-family="Helvetica,sans-Serif" font-size="10.00">fl::noiseRingHSV16</text>
</a>
</g>
</g>
<!-- Node18&#45;&gt;Node23 -->
<g id="edge23_Node000018_Node000023" class="edge">
<title>Node18&#45;&gt;Node23</title>
<g id="a_edge23_Node000018_Node000023"><a xlink:title=" ">
<path fill="none" stroke="#63b8ff" d="M340.98,-242.19C335.19,-240.47 329.43,-238.57 324,-236.5 307.1,-230.05 304.74,-224.37 288,-217.5 279.44,-213.99 269.99,-210.8 261.07,-208.07"/>
<polygon fill="#63b8ff" stroke="#63b8ff" points="340.16,-245.6 350.73,-244.93 342.05,-238.86 340.16,-245.6"/>
</a>
</g>
</g>
<!-- Node29 -->
<g id="Node000029" class="node">
<title>Node29</title>
<g id="a_Node000029"><a xlink:href="../../d2/dbc/classfl_1_1_x_y_path_renderer_abc12e093de808791fdea9c85d264bee6.html#abc12e093de808791fdea9c85d264bee6" target="_top" xlink:title=" ">
<polygon fill="white" stroke="#666666" points="452,-189.5 343,-189.5 343,-159.5 452,-159.5 452,-189.5"/>
<text text-anchor="start" x="351" y="-177.5" font-family="Helvetica,sans-Serif" font-size="10.00">fl::XYPathRenderer</text>
<text text-anchor="middle" x="397.5" y="-166.5" font-family="Helvetica,sans-Serif" font-size="10.00">::~XYPathRenderer</text>
</a>
</g>
</g>
<!-- Node28&#45;&gt;Node29 -->
<g id="edge26_Node000028_Node000029" class="edge">
<title>Node28&#45;&gt;Node29</title>
<g id="a_edge26_Node000028_Node000029"><a xlink:title=" ">
<path fill="none" stroke="#63b8ff" d="M518.52,-174.5C496.95,-174.5 473.04,-174.5 452.26,-174.5"/>
<polygon fill="#63b8ff" stroke="#63b8ff" points="518.57,-178 528.57,-174.5 518.57,-171 518.57,-178"/>
</a>
</g>
</g>
<!-- Node31 -->
<g id="Node000031" class="node">
<title>Node31</title>
<g id="a_Node000031"><a xlink:href="../../dc/d56/classfl_1_1unordered__map_ade235bccb99e4741defe041353fd1f60.html#ade235bccb99e4741defe041353fd1f60" target="_top" xlink:title=" ">
<polygon fill="white" stroke="#666666" points="457,-141.5 338,-141.5 338,-111.5 457,-111.5 457,-141.5"/>
<text text-anchor="start" x="346" y="-129.5" font-family="Helvetica,sans-Serif" font-size="10.00">fl::iterator::max_load</text>
<text text-anchor="middle" x="397.5" y="-118.5" font-family="Helvetica,sans-Serif" font-size="10.00">_factor</text>
</a>
</g>
</g>
<!-- Node30&#45;&gt;Node31 -->
<g id="edge28_Node000030_Node000031" class="edge">
<title>Node30&#45;&gt;Node31</title>
<g id="a_edge28_Node000030_Node000031"><a xlink:title=" ">
<path fill="none" stroke="#63b8ff" d="M531.02,-95.36C508.11,-100.75 480.86,-107.15 457.06,-112.74"/>
<polygon fill="#63b8ff" stroke="#63b8ff" points="531.95,-98.74 540.89,-93.04 530.35,-91.92 531.95,-98.74"/>
</a>
</g>
</g>
<!-- Node32 -->
<g id="Node000032" class="node">
<title>Node32</title>
<g id="a_Node000032"><a xlink:href="../../dc/d56/classfl_1_1unordered__map_af9cf0fa079a9bfa4bf17806a9f5f2ab1.html#af9cf0fa079a9bfa4bf17806a9f5f2ab1" target="_top" xlink:title=" ">
<polygon fill="white" stroke="#666666" points="471,-93 324,-93 324,-74 471,-74 471,-93"/>
<text text-anchor="middle" x="397.5" y="-81" font-family="Helvetica,sans-Serif" font-size="10.00">fl::iterator::unordered_map</text>
</a>
</g>
</g>
<!-- Node30&#45;&gt;Node32 -->
<g id="edge29_Node000030_Node000032" class="edge">
<title>Node30&#45;&gt;Node32</title>
<g id="a_edge29_Node000030_Node000032"><a xlink:title=" ">
<path fill="none" stroke="#63b8ff" d="M503.28,-83.5C492.67,-83.5 481.81,-83.5 471.3,-83.5"/>
<polygon fill="#63b8ff" stroke="#63b8ff" points="503.36,-87 513.36,-83.5 503.36,-80 503.36,-87"/>
</a>
</g>
</g>
<!-- Node33 -->
<g id="Node000033" class="node">
<title>Node33</title>
<g id="a_Node000033"><a xlink:href="../../dc/d56/classfl_1_1unordered__map_a1fa68b102ce5125fe4873eae70f433df.html#a1fa68b102ce5125fe4873eae70f433df" target="_top" xlink:title=" ">
<polygon fill="white" stroke="#666666" points="471,-56 324,-56 324,-37 471,-37 471,-56"/>
<text text-anchor="middle" x="397.5" y="-44" font-family="Helvetica,sans-Serif" font-size="10.00">fl::iterator::unordered_map</text>
</a>
</g>
</g>
<!-- Node30&#45;&gt;Node33 -->
<g id="edge30_Node000030_Node000033" class="edge">
<title>Node30&#45;&gt;Node33</title>
<g id="a_edge30_Node000030_Node000033"><a xlink:title=" ">
<path fill="none" stroke="#63b8ff" d="M524.54,-71.98C499.25,-66.87 469.84,-60.92 445.79,-56.06"/>
<polygon fill="#63b8ff" stroke="#63b8ff" points="523.88,-75.42 534.37,-73.97 525.26,-68.56 523.88,-75.42"/>
</a>
</g>
</g>
<!-- Node34 -->
<g id="Node000034" class="node">
<title>Node34</title>
<g id="a_Node000034"><a xlink:href="../../dc/d56/classfl_1_1unordered__map_a882522e301a24280f1c1a069fa88a54b.html#a882522e301a24280f1c1a069fa88a54b" target="_top" xlink:title=" ">
<polygon fill="white" stroke="#666666" points="471,-19 324,-19 324,0 471,0 471,-19"/>
<text text-anchor="middle" x="397.5" y="-7" font-family="Helvetica,sans-Serif" font-size="10.00">fl::iterator::unordered_map</text>
</a>
</g>
</g>
<!-- Node30&#45;&gt;Node34 -->
<g id="edge31_Node000030_Node000034" class="edge">
<title>Node30&#45;&gt;Node34</title>
<g id="a_edge31_Node000030_Node000034"><a xlink:title=" ">
<path fill="none" stroke="#63b8ff" d="M556.59,-68.82C534.66,-56.41 501.55,-38.87 471,-27.5 462.37,-24.29 452.95,-21.47 443.84,-19.08"/>
<polygon fill="#63b8ff" stroke="#63b8ff" points="555.13,-72.02 565.55,-73.96 558.61,-65.95 555.13,-72.02"/>
</a>
</g>
</g>
</g>
</svg>

<g id="navigator" transform="translate(0 0)" fill="#404254">
  <rect fill="#f2f5e9" fill-opacity="0.5" stroke="#606060" stroke-width=".5" x="0" y="0" width="60" height="60"/>
  <use id="zoomplus" xlink:href="#zoomPlus" x="17" y="9" onmousedown="handleZoom(evt,'in')"/>
  <use id="zoomminus" xlink:href="#zoomMin" x="42" y="9" onmousedown="handleZoom(evt,'out')"/>
  <use id="reset" xlink:href="#resetDef" x="30" y="36" onmousedown="handleReset()"/>
   <use id="arrowup" xlink:href="#arrowUp" x="0" y="0" onmousedown="handlePan(0,-1)"/>
  <use id="arrowright" xlink:href="#arrowRight" x="0" y="0" onmousedown="handlePan(1,0)"/>
  <use id="arrowdown" xlink:href="#arrowDown" x="0" y="0" onmousedown="handlePan(0,1)"/>
  <use id="arrowleft" xlink:href="#arrowLeft" x="0" y="0" onmousedown="handlePan(-1,0)"/>
</g>
<svg viewBox="0 0 15 15" width="100%" height="30px" preserveAspectRatio="xMaxYMin meet">
 <g id="arrow_out" transform="scale(0.3 0.3)">
  <a xlink:href="namespacefl_a33fb57d527658d545f129f9fd7cf5860_a33fb57d527658d545f129f9fd7cf5860_icgraph_org.svg" target="_base">
   <rect id="button" ry="5" rx="5" y="6" x="6" height="38" width="38"
        fill="#f2f5e9" fill-opacity="0.5" stroke="#606060" stroke-width="1.0"/>
   <path id="arrow"
     d="M 11.500037,31.436501 C 11.940474,20.09759 22.043105,11.32322 32.158766,21.979434 L 37.068811,17.246167 C 37.068811,17.246167 37.088388,32 37.088388,32 L 22.160133,31.978069 C 22.160133,31.978069 26.997745,27.140456 26.997745,27.140456 C 18.528582,18.264221 13.291696,25.230495 11.500037,31.436501 z"
     style="fill:#404040;"/>
  </a>
 </g>
</svg>

<style type='text/css'>
<![CDATA[
[data-mouse-over-selected='false'] { opacity: 0.7; }
[data-mouse-over-selected='true']  { opacity: 1.0; }
]]>
</style>
<script type="application/ecmascript"><![CDATA[
document.addEventListener('DOMContentLoaded', (event) => {
  highlightEdges();
  highlightAdjacentNodes();
});
]]></script>
</svg>
