<?xml version="1.0" encoding="UTF-8" standalone="no"?>
<!DOCTYPE svg PUBLIC "-//W3C//DTD SVG 1.1//EN"
 "http://www.w3.org/Graphics/SVG/1.1/DTD/svg11.dtd">
<!-- Generated by graphviz version 2.43.0 (0)
 -->
<!-- Title: fl::nscale8 Pages: 1 -->
<!--zoomable 261 -->

<svg id="main" version="1.1" xmlns="http://www.w3.org/2000/svg" xmlns:xlink="http://www.w3.org/1999/xlink" xml:space="preserve" onload="init(evt)">

<style type="text/css"><![CDATA[
.node, .edge {opacity: 0.7;}
.node.selected, .edge.selected {opacity: 1;}
.edge:hover path { stroke: red; }
.edge:hover polygon { stroke: red; fill: red; }
]]></style>

<defs>
  <circle id="rim" cx="0" cy="0" r="7"/>
  <circle id="rim2" cx="0" cy="0" r="3.5"/>
  <g id="zoomPlus">
    <use xlink:href="#rim" fill="#404040"><set attributeName="fill" to="#808080" begin="zoomplus.mouseover" end="zoomplus.mouseout"/></use>
    <path d="M-4,0h8M0,-4v8" fill="none" stroke="white" stroke-width="1.5" pointer-events="none"/>
  </g>
  <g id="zoomMin">
    <use xlink:href="#rim" fill="#404040"><set attributeName="fill" to="#808080" begin="zoomminus.mouseover" end="zoomminus.mouseout"/></use>
    <path d="M-4,0h8" fill="none" stroke="white" stroke-width="1.5" pointer-events="none"/>
  </g>
  <g id="arrowUp" transform="translate(30 24)">
    <use xlink:href="#rim"/>
    <path pointer-events="none" fill="none" stroke="white" stroke-width="1.5" d="M0,-3.0v7 M-2.5,-0.5L0,-3.0L2.5,-0.5"/>
  </g>
  <g id="arrowRight" transform="rotate(90) translate(36 -43)">
    <use xlink:href="#rim"/>
    <path pointer-events="none" fill="none" stroke="white" stroke-width="1.5" d="M0,-3.0v7 M-2.5,-0.5L0,-3.0L2.5,-0.5"/>
  </g>
  <g id="arrowDown" transform="rotate(180) translate(-30 -48)">
    <use xlink:href="#rim"/>
    <path pointer-events="none" fill="none" stroke="white" stroke-width="1.5" d="M0,-3.0v7 M-2.5,-0.5L0,-3.0L2.5,-0.5"/>
  </g>
  <g id="arrowLeft" transform="rotate(270) translate(-36 17)">
    <use xlink:href="#rim"/>
    <path pointer-events="none" fill="none" stroke="white" stroke-width="1.5" d="M0,-3.0v7 M-2.5,-0.5L0,-3.0L2.5,-0.5"/>
  </g>
  <g id="resetDef">
    <use xlink:href="#rim2" fill="#404040"><set attributeName="fill" to="#808080" begin="reset.mouseover" end="reset.mouseout"/></use>
  </g>
</defs>
<script type="application/ecmascript">
var viewWidth = 569;
var viewHeight = 261;
var sectionId = 'dynsection-0';
</script>
<script type="application/ecmascript" xlink:href="../../svg.min.js"/>
<svg id="graph" class="graph">
<g id="viewport">
<title>fl::nscale8</title>
<!-- Node1 -->
<g id="Node000001" class="node">
<title>Node1</title>
<g id="a_Node000001"><a xlink:title=" ">
<polygon fill="#999999" stroke="#666666" points="561,-196.5 495,-196.5 495,-177.5 561,-177.5 561,-196.5"/>
<text text-anchor="middle" x="528" y="-184.5" font-family="Helvetica,sans-Serif" font-size="10.00">fl::nscale8</text>
</a>
</g>
</g>
<!-- Node2 -->
<g id="Node000002" class="node">
<title>Node2</title>
<g id="a_Node000002"><a xlink:href="../../d4/d36/namespacefl_a62c27b183a33810daa3dc4b85a608aca.html#a62c27b183a33810daa3dc4b85a608aca" target="_top" xlink:title=" ">
<polygon fill="white" stroke="#666666" points="445.5,-234.5 371.5,-234.5 371.5,-215.5 445.5,-215.5 445.5,-234.5"/>
<text text-anchor="middle" x="408.5" y="-222.5" font-family="Helvetica,sans-Serif" font-size="10.00">fl::fade_raw</text>
</a>
</g>
</g>
<!-- Node1&#45;&gt;Node2 -->
<g id="edge1_Node000001_Node000002" class="edge">
<title>Node1&#45;&gt;Node2</title>
<g id="a_edge1_Node000001_Node000002"><a xlink:title=" ">
<path fill="none" stroke="#63b8ff" d="M487.79,-199.68C471.91,-204.81 453.89,-210.64 439.14,-215.41"/>
<polygon fill="#63b8ff" stroke="#63b8ff" points="488.91,-203 497.35,-196.59 486.76,-196.34 488.91,-203"/>
</a>
</g>
</g>
<!-- Node3 -->
<g id="Node000003" class="node">
<title>Node3</title>
<g id="a_Node000003"><a xlink:href="../../d4/d1c/fl_2gfx_2colorutils_8h_a4ab605f27e67edf3cf9bd320c55042de.html#a4ab605f27e67edf3cf9bd320c55042de" target="_top" xlink:title=" ">
<polygon fill="white" stroke="#666666" points="312.5,-215.5 184.5,-215.5 184.5,-196.5 312.5,-196.5 312.5,-215.5"/>
<text text-anchor="middle" x="248.5" y="-203.5" font-family="Helvetica,sans-Serif" font-size="10.00">FL_DISABLE_WARNING</text>
</a>
</g>
</g>
<!-- Node1&#45;&gt;Node3 -->
<g id="edge13_Node000001_Node000003" class="edge">
<title>Node1&#45;&gt;Node3</title>
<g id="a_edge13_Node000001_Node000003"><a xlink:title=" ">
<path fill="none" stroke="#63b8ff" d="M484.73,-189.89C438.94,-193.03 365.41,-198.06 312.75,-201.67"/>
<polygon fill="#63b8ff" stroke="#63b8ff" points="485.16,-193.37 494.9,-189.2 484.68,-186.39 485.16,-193.37"/>
</a>
</g>
</g>
<!-- Node6 -->
<g id="Node000006" class="node">
<title>Node6</title>
<g id="a_Node000006"><a xlink:href="../../d4/d36/namespacefl_a399e4e094995b8e97420b89a2dd6548b.html#a399e4e094995b8e97420b89a2dd6548b" target="_top" xlink:title=" ">
<polygon fill="white" stroke="#666666" points="459,-141.5 358,-141.5 358,-122.5 459,-122.5 459,-141.5"/>
<text text-anchor="middle" x="408.5" y="-129.5" font-family="Helvetica,sans-Serif" font-size="10.00">fl::fadeToBlackBy</text>
</a>
</g>
</g>
<!-- Node1&#45;&gt;Node6 -->
<g id="edge5_Node000001_Node000006" class="edge">
<title>Node1&#45;&gt;Node6</title>
<g id="a_edge5_Node000001_Node000006"><a xlink:title=" ">
<path fill="none" stroke="#63b8ff" d="M497.41,-173.15C476.42,-163.32 448.77,-150.38 430.13,-141.66"/>
<polygon fill="#63b8ff" stroke="#63b8ff" points="495.99,-176.35 506.53,-177.42 498.96,-170.01 495.99,-176.35"/>
</a>
</g>
</g>
<!-- Node2&#45;&gt;Node3 -->
<g id="edge2_Node000002_Node000003" class="edge">
<title>Node2&#45;&gt;Node3</title>
<g id="a_edge2_Node000002_Node000003"><a xlink:title=" ">
<path fill="none" stroke="#63b8ff" d="M361.08,-219.42C345.89,-217.59 328.75,-215.53 312.54,-213.58"/>
<polygon fill="#63b8ff" stroke="#63b8ff" points="360.91,-222.92 371.25,-220.64 361.74,-215.97 360.91,-222.92"/>
</a>
</g>
</g>
<!-- Node4 -->
<g id="Node000004" class="node">
<title>Node4</title>
<g id="a_Node000004"><a xlink:href="../../d2/d24/classfl_1_1_flow_field_f_p_a8d203d75b3595fe20827d30ac914d9c9.html#a8d203d75b3595fe20827d30ac914d9c9" target="_top" xlink:title=" ">
<polygon fill="white" stroke="#666666" points="322,-252.5 175,-252.5 175,-233.5 322,-233.5 322,-252.5"/>
<text text-anchor="middle" x="248.5" y="-240.5" font-family="Helvetica,sans-Serif" font-size="10.00">fl::FlowFieldFP::flowAdvect</text>
</a>
</g>
</g>
<!-- Node2&#45;&gt;Node4 -->
<g id="edge3_Node000002_Node000004" class="edge">
<title>Node2&#45;&gt;Node4</title>
<g id="a_edge3_Node000002_Node000004"><a xlink:title=" ">
<path fill="none" stroke="#63b8ff" d="M361.26,-230.27C348.95,-231.67 335.37,-233.22 322.03,-234.74"/>
<polygon fill="#63b8ff" stroke="#63b8ff" points="361.71,-233.74 371.25,-229.13 360.92,-226.78 361.71,-233.74"/>
</a>
</g>
</g>
<!-- Node5 -->
<g id="Node000005" class="node">
<title>Node5</title>
<g id="a_Node000005"><a xlink:href="../../d2/d24/classfl_1_1_flow_field_f_p_aa904e268491b4ec6071f18ff47a45151.html#aa904e268491b4ec6071f18ff47a45151" target="_top" xlink:title="Subclasses implement rendering given the time delta and total time.">
<polygon fill="white" stroke="#666666" points="139,-252.5 0,-252.5 0,-233.5 139,-233.5 139,-252.5"/>
<text text-anchor="middle" x="69.5" y="-240.5" font-family="Helvetica,sans-Serif" font-size="10.00">fl::FlowFieldFP::drawImpl</text>
</a>
</g>
</g>
<!-- Node4&#45;&gt;Node5 -->
<g id="edge4_Node000004_Node000005" class="edge">
<title>Node4&#45;&gt;Node5</title>
<g id="a_edge4_Node000004_Node000005"><a xlink:title=" ">
<path fill="none" stroke="#63b8ff" d="M164.93,-243C156.32,-243 147.62,-243 139.18,-243"/>
<polygon fill="#63b8ff" stroke="#63b8ff" points="165,-246.5 175,-243 165,-239.5 165,-246.5"/>
</a>
</g>
</g>
<!-- Node6&#45;&gt;Node3 -->
<g id="edge10_Node000006_Node000003" class="edge">
<title>Node6&#45;&gt;Node3</title>
<g id="a_edge10_Node000006_Node000003"><a xlink:title=" ">
<path fill="none" stroke="#63b8ff" d="M387.05,-147.79C370.36,-160.02 345.72,-176.58 322,-187 313.54,-190.72 304.2,-193.83 295.11,-196.4"/>
<polygon fill="#63b8ff" stroke="#63b8ff" points="389.54,-150.3 395.46,-141.51 385.35,-144.7 389.54,-150.3"/>
</a>
</g>
</g>
<!-- Node7 -->
<g id="Node000007" class="node">
<title>Node7</title>
<g id="a_Node000007"><a xlink:href="../../d1/d60/classfl_1_1_demo_reel100_aca45289760902af830559c9ed4d06fec.html#aca45289760902af830559c9ed4d06fec" target="_top" xlink:title=" ">
<polygon fill="white" stroke="#666666" points="319,-104.5 178,-104.5 178,-85.5 319,-85.5 319,-104.5"/>
<text text-anchor="middle" x="248.5" y="-92.5" font-family="Helvetica,sans-Serif" font-size="10.00">fl::DemoReel100::confetti</text>
</a>
</g>
</g>
<!-- Node6&#45;&gt;Node7 -->
<g id="edge6_Node000006_Node000007" class="edge">
<title>Node6&#45;&gt;Node7</title>
<g id="a_edge6_Node000006_Node000007"><a xlink:title=" ">
<path fill="none" stroke="#63b8ff" d="M356.87,-120.14C335.37,-115.11 310.63,-109.32 290.33,-104.56"/>
<polygon fill="#63b8ff" stroke="#63b8ff" points="356.28,-123.6 366.81,-122.47 357.87,-116.78 356.28,-123.6"/>
</a>
</g>
</g>
<!-- Node8 -->
<g id="Node000008" class="node">
<title>Node8</title>
<g id="a_Node000008"><a xlink:href="../../d4/df2/classfl_1_1_luminova_aa775ddcb74da9d8ae057ac8e4c3c50cc.html#aa775ddcb74da9d8ae057ac8e4c3c50cc" target="_top" xlink:title=" ">
<polygon fill="white" stroke="#666666" points="302,-67.5 195,-67.5 195,-48.5 302,-48.5 302,-67.5"/>
<text text-anchor="middle" x="248.5" y="-55.5" font-family="Helvetica,sans-Serif" font-size="10.00">fl::Luminova::draw</text>
</a>
</g>
</g>
<!-- Node6&#45;&gt;Node8 -->
<g id="edge7_Node000006_Node000008" class="edge">
<title>Node6&#45;&gt;Node8</title>
<g id="a_edge7_Node000006_Node000008"><a xlink:title=" ">
<path fill="none" stroke="#63b8ff" d="M387.42,-116.03C370.77,-103.5 346.01,-86.48 322,-76 314.39,-72.68 306.06,-69.89 297.84,-67.58"/>
<polygon fill="#63b8ff" stroke="#63b8ff" points="385.72,-119.14 395.79,-122.46 389.99,-113.59 385.72,-119.14"/>
</a>
</g>
</g>
<!-- Node9 -->
<g id="Node000009" class="node">
<title>Node9</title>
<g id="a_Node000009"><a xlink:href="../../db/d58/classfl_1_1_perlin_particle_punch_a7f51ebdff4fc251768c41089fbfb53e3.html#a7f51ebdff4fc251768c41089fbfb53e3" target="_top" xlink:title=" ">
<polygon fill="white" stroke="#666666" points="309.5,-30 187.5,-30 187.5,0 309.5,0 309.5,-30"/>
<text text-anchor="start" x="195.5" y="-18" font-family="Helvetica,sans-Serif" font-size="10.00">fl::PerlinParticlePunch</text>
<text text-anchor="middle" x="248.5" y="-7" font-family="Helvetica,sans-Serif" font-size="10.00">::draw</text>
</a>
</g>
</g>
<!-- Node6&#45;&gt;Node9 -->
<g id="edge8_Node000006_Node000009" class="edge">
<title>Node6&#45;&gt;Node9</title>
<g id="a_edge8_Node000006_Node000009"><a xlink:title=" ">
<path fill="none" stroke="#63b8ff" d="M395.37,-114.04C380.42,-93.2 353.13,-59.11 322,-39 316.77,-35.62 311.01,-32.67 305.1,-30.11"/>
<polygon fill="#63b8ff" stroke="#63b8ff" points="392.58,-116.15 401.17,-122.34 398.31,-112.14 392.58,-116.15"/>
</a>
</g>
</g>
<!-- Node11 -->
<g id="Node000011" class="node">
<title>Node11</title>
<g id="a_Node000011"><a xlink:href="../../d1/d60/classfl_1_1_demo_reel100_a2682e53533df396c22fab618fad5cc2d.html#a2682e53533df396c22fab618fad5cc2d" target="_top" xlink:title=" ">
<polygon fill="white" stroke="#666666" points="315.5,-178.5 181.5,-178.5 181.5,-159.5 315.5,-159.5 315.5,-178.5"/>
<text text-anchor="middle" x="248.5" y="-166.5" font-family="Helvetica,sans-Serif" font-size="10.00">fl::DemoReel100::juggle</text>
</a>
</g>
</g>
<!-- Node6&#45;&gt;Node11 -->
<g id="edge11_Node000006_Node000011" class="edge">
<title>Node6&#45;&gt;Node11</title>
<g id="a_edge11_Node000006_Node000011"><a xlink:title=" ">
<path fill="none" stroke="#63b8ff" d="M356.87,-143.86C335.37,-148.89 310.63,-154.68 290.33,-159.44"/>
<polygon fill="#63b8ff" stroke="#63b8ff" points="357.87,-147.22 366.81,-141.53 356.28,-140.4 357.87,-147.22"/>
</a>
</g>
</g>
<!-- Node12 -->
<g id="Node000012" class="node">
<title>Node12</title>
<g id="a_Node000012"><a xlink:href="../../d1/d60/classfl_1_1_demo_reel100_af845b12c1ba0165d46f16b65b9ff7feb.html#af845b12c1ba0165d46f16b65b9ff7feb" target="_top" xlink:title=" ">
<polygon fill="white" stroke="#666666" points="318,-141.5 179,-141.5 179,-122.5 318,-122.5 318,-141.5"/>
<text text-anchor="middle" x="248.5" y="-129.5" font-family="Helvetica,sans-Serif" font-size="10.00">fl::DemoReel100::sinelon</text>
</a>
</g>
</g>
<!-- Node6&#45;&gt;Node12 -->
<g id="edge12_Node000006_Node000012" class="edge">
<title>Node6&#45;&gt;Node12</title>
<g id="a_edge12_Node000006_Node000012"><a xlink:title=" ">
<path fill="none" stroke="#63b8ff" d="M347.7,-132C338.09,-132 328.07,-132 318.27,-132"/>
<polygon fill="#63b8ff" stroke="#63b8ff" points="347.94,-135.5 357.94,-132 347.94,-128.5 347.94,-135.5"/>
</a>
</g>
</g>
<!-- Node10 -->
<g id="Node000010" class="node">
<title>Node10</title>
<g id="a_Node000010"><a xlink:href="../../db/d58/classfl_1_1_perlin_particle_punch_aae158d36e0b12c32e8a9dacfb065aaaa.html#aae158d36e0b12c32e8a9dacfb065aaaa" target="_top" xlink:title=" ">
<polygon fill="white" stroke="#666666" points="131.5,-30 7.5,-30 7.5,0 131.5,0 131.5,-30"/>
<text text-anchor="start" x="15.5" y="-18" font-family="Helvetica,sans-Serif" font-size="10.00">fl::PerlinParticlePunch</text>
<text text-anchor="middle" x="69.5" y="-7" font-family="Helvetica,sans-Serif" font-size="10.00">::~PerlinParticlePunch</text>
</a>
</g>
</g>
<!-- Node9&#45;&gt;Node10 -->
<g id="edge9_Node000009_Node000010" class="edge">
<title>Node9&#45;&gt;Node10</title>
<g id="a_edge9_Node000009_Node000010"><a xlink:title=" ">
<path fill="none" stroke="#63b8ff" d="M176.84,-15C161.85,-15 146.15,-15 131.55,-15"/>
<polygon fill="#63b8ff" stroke="#63b8ff" points="177.08,-18.5 187.08,-15 177.08,-11.5 177.08,-18.5"/>
</a>
</g>
</g>
</g>
</svg>

<g id="navigator" transform="translate(0 0)" fill="#404254">
  <rect fill="#f2f5e9" fill-opacity="0.5" stroke="#606060" stroke-width=".5" x="0" y="0" width="60" height="60"/>
  <use id="zoomplus" xlink:href="#zoomPlus" x="17" y="9" onmousedown="handleZoom(evt,'in')"/>
  <use id="zoomminus" xlink:href="#zoomMin" x="42" y="9" onmousedown="handleZoom(evt,'out')"/>
  <use id="reset" xlink:href="#resetDef" x="30" y="36" onmousedown="handleReset()"/>
   <use id="arrowup" xlink:href="#arrowUp" x="0" y="0" onmousedown="handlePan(0,-1)"/>
  <use id="arrowright" xlink:href="#arrowRight" x="0" y="0" onmousedown="handlePan(1,0)"/>
  <use id="arrowdown" xlink:href="#arrowDown" x="0" y="0" onmousedown="handlePan(0,1)"/>
  <use id="arrowleft" xlink:href="#arrowLeft" x="0" y="0" onmousedown="handlePan(-1,0)"/>
</g>
<svg viewBox="0 0 15 15" width="100%" height="30px" preserveAspectRatio="xMaxYMin meet">
 <g id="arrow_out" transform="scale(0.3 0.3)">
  <a xlink:href="namespacefl_a5a8a33cdb0434211edc66189968155ea_a5a8a33cdb0434211edc66189968155ea_icgraph_org.svg" target="_base">
   <rect id="button" ry="5" rx="5" y="6" x="6" height="38" width="38"
        fill="#f2f5e9" fill-opacity="0.5" stroke="#606060" stroke-width="1.0"/>
   <path id="arrow"
     d="M 11.500037,31.436501 C 11.940474,20.09759 22.043105,11.32322 32.158766,21.979434 L 37.068811,17.246167 C 37.068811,17.246167 37.088388,32 37.088388,32 L 22.160133,31.978069 C 22.160133,31.978069 26.997745,27.140456 26.997745,27.140456 C 18.528582,18.264221 13.291696,25.230495 11.500037,31.436501 z"
     style="fill:#404040;"/>
  </a>
 </g>
</svg>

<style type='text/css'>
<![CDATA[
[data-mouse-over-selected='false'] { opacity: 0.7; }
[data-mouse-over-selected='true']  { opacity: 1.0; }
]]>
</style>
<script type="application/ecmascript"><![CDATA[
document.addEventListener('DOMContentLoaded', (event) => {
  highlightEdges();
  highlightAdjacentNodes();
});
]]></script>
</svg>
