<?xml version="1.0" encoding="UTF-8" standalone="no"?>
<!DOCTYPE svg PUBLIC "-//W3C//DTD SVG 1.1//EN"
 "http://www.w3.org/Graphics/SVG/1.1/DTD/svg11.dtd">
<!-- Generated by graphviz version 2.43.0 (0)
 -->
<!-- Title: fl::cos32 Pages: 1 -->
<svg width="582pt" height="140pt"
 viewBox="0.00 0.00 582.00 140.00" xmlns="http://www.w3.org/2000/svg" xmlns:xlink="http://www.w3.org/1999/xlink">
<g id="graph0" class="graph" transform="scale(1 1) rotate(0) translate(4 136)">
<title>fl::cos32</title>
<!-- Node1 -->
<g id="Node000001" class="node">
<title>Node1</title>
<g id="a_Node000001"><a xlink:title=" ">
<polygon fill="#999999" stroke="#666666" points="574,-93 517,-93 517,-74 574,-74 574,-93"/>
<text text-anchor="middle" x="545.5" y="-81" font-family="Helvetica,sans-Serif" font-size="10.00">fl::cos32</text>
</a>
</g>
</g>
<!-- Node2 -->
<g id="Node000002" class="node">
<title>Node2</title>
<g id="a_Node000002"><a xlink:href="../../d4/d36/namespacefl_a272f8ac08e556ab824e8656b722e8529.html#a272f8ac08e556ab824e8656b722e8529" target="_top" xlink:title="16&#45;bit sine ease&#45;in/ease&#45;out function Takes an input value 0&#45;65535 and returns an eased value 0&#45;65535">
<polygon fill="white" stroke="#666666" points="481,-75 370,-75 370,-56 481,-56 481,-75"/>
<text text-anchor="middle" x="425.5" y="-63" font-family="Helvetica,sans-Serif" font-size="10.00">fl::easeInOutSine16</text>
</a>
</g>
</g>
<!-- Node1&#45;&gt;Node2 -->
<g id="edge1_Node000001_Node000002" class="edge">
<title>Node1&#45;&gt;Node2</title>
<g id="a_edge1_Node000001_Node000002"><a xlink:title=" ">
<path fill="none" stroke="#63b8ff" d="M506.92,-77.77C498.78,-76.53 490.02,-75.19 481.37,-73.87"/>
<polygon fill="#63b8ff" stroke="#63b8ff" points="506.42,-81.23 516.83,-79.28 507.48,-74.31 506.42,-81.23"/>
</a>
</g>
</g>
<!-- Node22 -->
<g id="Node000022" class="node">
<title>Node22</title>
<g id="a_Node000022"><a xlink:href="../../d4/d36/namespacefl_a4ddfc96e95c366a654d878d3a6c341a1.html#a4ddfc96e95c366a654d878d3a6c341a1" target="_top" xlink:title="16&#45;bit sine ease&#45;in function Takes an input value 0&#45;65535 and returns an eased value 0&#45;65535">
<polygon fill="white" stroke="#666666" points="472.5,-112 378.5,-112 378.5,-93 472.5,-93 472.5,-112"/>
<text text-anchor="middle" x="425.5" y="-100" font-family="Helvetica,sans-Serif" font-size="10.00">fl::easeInSine16</text>
</a>
</g>
</g>
<!-- Node1&#45;&gt;Node22 -->
<g id="edge10_Node000001_Node000022" class="edge">
<title>Node1&#45;&gt;Node22</title>
<g id="a_edge10_Node000001_Node000022"><a xlink:title=" ">
<path fill="none" stroke="#63b8ff" d="M506.88,-89.56C496.08,-91.3 484.18,-93.21 472.93,-95.02"/>
<polygon fill="#63b8ff" stroke="#63b8ff" points="507.52,-93 516.83,-87.95 506.4,-86.09 507.52,-93"/>
</a>
</g>
</g>
<!-- Node3 -->
<g id="Node000003" class="node">
<title>Node3</title>
<g id="a_Node000003"><a xlink:href="../../d4/d36/namespacefl_a131da4ad2964b203b7aed2a312f34448.html#a131da4ad2964b203b7aed2a312f34448" target="_top" xlink:title=" ">
<polygon fill="white" stroke="#666666" points="313.5,-75 249.5,-75 249.5,-56 313.5,-56 313.5,-75"/>
<text text-anchor="middle" x="281.5" y="-63" font-family="Helvetica,sans-Serif" font-size="10.00">fl::ease16</text>
</a>
</g>
</g>
<!-- Node2&#45;&gt;Node3 -->
<g id="edge2_Node000002_Node000003" class="edge">
<title>Node2&#45;&gt;Node3</title>
<g id="a_edge2_Node000002_Node000003"><a xlink:title=" ">
<path fill="none" stroke="#63b8ff" d="M359.3,-65.5C343.48,-65.5 327.28,-65.5 313.86,-65.5"/>
<polygon fill="#63b8ff" stroke="#63b8ff" points="359.6,-69 369.6,-65.5 359.6,-62 359.6,-69"/>
</a>
</g>
</g>
<!-- Node4 -->
<g id="Node000004" class="node">
<title>Node4</title>
<g id="a_Node000004"><a xlink:href="../../d4/d36/namespacefl_a379be9b51f27141411271893ce683f5f.html#a379be9b51f27141411271893ce683f5f" target="_top" xlink:title=" ">
<polygon fill="white" stroke="#666666" points="313.5,-112 249.5,-112 249.5,-93 313.5,-93 313.5,-112"/>
<text text-anchor="middle" x="281.5" y="-100" font-family="Helvetica,sans-Serif" font-size="10.00">fl::ease16</text>
</a>
</g>
</g>
<!-- Node2&#45;&gt;Node4 -->
<g id="edge3_Node000002_Node000004" class="edge">
<title>Node2&#45;&gt;Node4</title>
<g id="a_edge3_Node000002_Node000004"><a xlink:title=" ">
<path fill="none" stroke="#63b8ff" d="M378.17,-77.57C357.03,-83.08 332.55,-89.46 313.65,-94.38"/>
<polygon fill="#63b8ff" stroke="#63b8ff" points="379.14,-80.94 387.93,-75.03 377.37,-74.16 379.14,-80.94"/>
</a>
</g>
</g>
<!-- Node19 -->
<g id="Node000019" class="node">
<title>Node19</title>
<g id="a_Node000019"><a xlink:href="../../d4/d36/namespacefl_a30f7a4ad95720c501bbd2cd3c3a50542.html#a30f7a4ad95720c501bbd2cd3c3a50542" target="_top" xlink:title="8&#45;bit sine ease&#45;in/ease&#45;out function Takes an input value 0&#45;255 and returns an eased value 0&#45;255 Smoo...">
<polygon fill="white" stroke="#666666" points="334,-38 229,-38 229,-19 334,-19 334,-38"/>
<text text-anchor="middle" x="281.5" y="-26" font-family="Helvetica,sans-Serif" font-size="10.00">fl::easeInOutSine8</text>
</a>
</g>
</g>
<!-- Node2&#45;&gt;Node19 -->
<g id="edge6_Node000002_Node000019" class="edge">
<title>Node2&#45;&gt;Node19</title>
<g id="a_edge6_Node000002_Node000019"><a xlink:title=" ">
<path fill="none" stroke="#63b8ff" d="M378.25,-53.45C359.19,-48.48 337.4,-42.81 319.44,-38.12"/>
<polygon fill="#63b8ff" stroke="#63b8ff" points="377.37,-56.84 387.93,-55.97 379.14,-50.06 377.37,-56.84"/>
</a>
</g>
</g>
<!-- Node5 -->
<g id="Node000005" class="node">
<title>Node5</title>
<g id="a_Node000005"><a xlink:href="../../d4/d5d/structfl_1_1_h_s_v16_a0bd2c0fc64fc34d573637c10b849c320.html#a0bd2c0fc64fc34d573637c10b849c320" target="_top" xlink:title=" ">
<polygon fill="#fff0f0" stroke="red" points="193,-132 74,-132 74,-113 193,-113 193,-132"/>
<text text-anchor="middle" x="133.5" y="-120" font-family="Helvetica,sans-Serif" font-size="10.00">fl::HSV16::colorBoost</text>
</a>
</g>
</g>
<!-- Node4&#45;&gt;Node5 -->
<g id="edge4_Node000004_Node000005" class="edge">
<title>Node4&#45;&gt;Node5</title>
<g id="a_edge4_Node000004_Node000005"><a xlink:title=" ">
<path fill="none" stroke="#63b8ff" d="M239.17,-108.16C224.87,-110.12 208.57,-112.35 193.16,-114.46"/>
<polygon fill="#63b8ff" stroke="#63b8ff" points="239.75,-111.62 249.18,-106.79 238.8,-104.68 239.75,-111.62"/>
</a>
</g>
</g>
<!-- Node18 -->
<g id="Node000018" class="node">
<title>Node18</title>
<g id="a_Node000018"><a xlink:href="../../dd/d55/_ease_in_out_8h_afe461d27b9c48d5921c00d521181f12f.html#afe461d27b9c48d5921c00d521181f12f" target="_top" xlink:title=" ">
<polygon fill="white" stroke="#666666" points="38,-75 0,-75 0,-56 38,-56 38,-75"/>
<text text-anchor="middle" x="19" y="-63" font-family="Helvetica,sans-Serif" font-size="10.00">loop</text>
</a>
</g>
</g>
<!-- Node4&#45;&gt;Node18 -->
<g id="edge5_Node000004_Node000018" class="edge">
<title>Node4&#45;&gt;Node18</title>
<g id="a_edge5_Node000004_Node000018"><a xlink:title=" ">
<path fill="none" stroke="#63b8ff" d="M239.11,-96.62C181.42,-88.43 79.31,-73.92 38.04,-68.06"/>
<polygon fill="#63b8ff" stroke="#63b8ff" points="238.94,-100.13 249.34,-98.07 239.93,-93.2 238.94,-100.13"/>
</a>
</g>
</g>
<!-- Node20 -->
<g id="Node000020" class="node">
<title>Node20</title>
<g id="a_Node000020"><a xlink:href="../../d4/d36/namespacefl_ac368f20d137ff004c852fa35420cfa5e.html#ac368f20d137ff004c852fa35420cfa5e" target="_top" xlink:title=" ">
<polygon fill="white" stroke="#666666" points="162.5,-19 104.5,-19 104.5,0 162.5,0 162.5,-19"/>
<text text-anchor="middle" x="133.5" y="-7" font-family="Helvetica,sans-Serif" font-size="10.00">fl::ease8</text>
</a>
</g>
</g>
<!-- Node19&#45;&gt;Node20 -->
<g id="edge7_Node000019_Node000020" class="edge">
<title>Node19&#45;&gt;Node20</title>
<g id="a_edge7_Node000019_Node000020"><a xlink:title=" ">
<path fill="none" stroke="#63b8ff" d="M218.6,-20.44C199.21,-17.92 178.75,-15.26 162.87,-13.19"/>
<polygon fill="#63b8ff" stroke="#63b8ff" points="218.25,-23.93 228.61,-21.75 219.15,-16.99 218.25,-23.93"/>
</a>
</g>
</g>
<!-- Node21 -->
<g id="Node000021" class="node">
<title>Node21</title>
<g id="a_Node000021"><a xlink:href="../../d4/d36/namespacefl_ad5bdf92d600b40d01c2d3a0d536a7c8c.html#ad5bdf92d600b40d01c2d3a0d536a7c8c" target="_top" xlink:title=" ">
<polygon fill="white" stroke="#666666" points="162.5,-56 104.5,-56 104.5,-37 162.5,-37 162.5,-56"/>
<text text-anchor="middle" x="133.5" y="-44" font-family="Helvetica,sans-Serif" font-size="10.00">fl::ease8</text>
</a>
</g>
</g>
<!-- Node19&#45;&gt;Node21 -->
<g id="edge8_Node000019_Node000021" class="edge">
<title>Node19&#45;&gt;Node21</title>
<g id="a_edge8_Node000019_Node000021"><a xlink:title=" ">
<path fill="none" stroke="#63b8ff" d="M218.6,-36.13C199.21,-38.52 178.75,-41.04 162.87,-43"/>
<polygon fill="#63b8ff" stroke="#63b8ff" points="219.12,-39.59 228.61,-34.9 218.26,-32.65 219.12,-39.59"/>
</a>
</g>
</g>
<!-- Node21&#45;&gt;Node18 -->
<g id="edge9_Node000021_Node000018" class="edge">
<title>Node21&#45;&gt;Node18</title>
<g id="a_edge9_Node000021_Node000018"><a xlink:title=" ">
<path fill="none" stroke="#63b8ff" d="M94.52,-52.91C75.54,-56.12 53.43,-59.85 38.26,-62.42"/>
<polygon fill="#63b8ff" stroke="#63b8ff" points="95.12,-56.36 104.4,-51.25 93.96,-49.46 95.12,-56.36"/>
</a>
</g>
</g>
<!-- Node22&#45;&gt;Node3 -->
<g id="edge11_Node000022_Node000003" class="edge">
<title>Node22&#45;&gt;Node3</title>
<g id="a_edge11_Node000022_Node000003"><a xlink:title=" ">
<path fill="none" stroke="#63b8ff" d="M378.17,-90.43C357.03,-84.92 332.55,-78.54 313.65,-73.62"/>
<polygon fill="#63b8ff" stroke="#63b8ff" points="377.37,-93.84 387.93,-92.97 379.14,-87.06 377.37,-93.84"/>
</a>
</g>
</g>
<!-- Node22&#45;&gt;Node4 -->
<g id="edge12_Node000022_Node000004" class="edge">
<title>Node22&#45;&gt;Node4</title>
<g id="a_edge12_Node000022_Node000004"><a xlink:title=" ">
<path fill="none" stroke="#63b8ff" d="M368.24,-102.5C349.62,-102.5 329.6,-102.5 313.59,-102.5"/>
<polygon fill="#63b8ff" stroke="#63b8ff" points="368.4,-106 378.4,-102.5 368.4,-99 368.4,-106"/>
</a>
</g>
</g>
</g>
</svg>
