<?xml version="1.0" encoding="UTF-8" standalone="no"?>
<!DOCTYPE svg PUBLIC "-//W3C//DTD SVG 1.1//EN"
 "http://www.w3.org/Graphics/SVG/1.1/DTD/svg11.dtd">
<!-- Generated by graphviz version 2.43.0 (0)
 -->
<!-- Title: fl::ieee754_format_decimal Pages: 1 -->
<svg width="380pt" height="52pt"
 viewBox="0.00 0.00 380.00 51.50" xmlns="http://www.w3.org/2000/svg" xmlns:xlink="http://www.w3.org/1999/xlink">
<g id="graph0" class="graph" transform="scale(1 1) rotate(0) translate(4 47.5)">
<title>fl::ieee754_format_decimal</title>
<!-- Node1 -->
<g id="Node000001" class="node">
<title>Node1</title>
<g id="a_Node000001"><a xlink:title="Format IEEE 754 single&#45;precision bits as decimal text.">
<polygon fill="#999999" stroke="#666666" points="106,-30 0,-30 0,0 106,0 106,-30"/>
<text text-anchor="start" x="8" y="-18" font-family="Helvetica,sans-Serif" font-size="10.00">fl::ieee754_format</text>
<text text-anchor="middle" x="53" y="-7" font-family="Helvetica,sans-Serif" font-size="10.00">_decimal</text>
</a>
</g>
</g>
<!-- Node2 -->
<g id="Node000002" class="node">
<title>Node2</title>
<g id="a_Node000002"><a xlink:href="../../d4/d36/namespacefl_a4b4d511c410a9b8953ff1eea3bd1873c.html#a4b4d511c410a9b8953ff1eea3bd1873c" target="_top" xlink:title=" ">
<polygon fill="white" stroke="#666666" points="274,-43.5 142,-43.5 142,-24.5 274,-24.5 274,-43.5"/>
<text text-anchor="middle" x="208" y="-31.5" font-family="Helvetica,sans-Serif" font-size="10.00">fl::append_u64_decimal</text>
</a>
</g>
</g>
<!-- Node1&#45;&gt;Node2 -->
<g id="edge1_Node000001_Node000002" class="edge">
<title>Node1&#45;&gt;Node2</title>
<g id="a_edge1_Node000001_Node000002"><a xlink:title=" ">
<path fill="none" stroke="#63b8ff" d="M106.23,-21.49C114.44,-22.51 123.07,-23.58 131.68,-24.65"/>
<polygon fill="#63b8ff" stroke="#63b8ff" points="131.4,-28.14 141.75,-25.9 132.26,-21.19 131.4,-28.14"/>
</a>
</g>
</g>
<!-- Node3 -->
<g id="Node000003" class="node">
<title>Node3</title>
<g id="a_Node000003"><a xlink:href="../../d4/d36/namespacefl_a2d12ae4decce550cd9809a6687f112e2.html#a2d12ae4decce550cd9809a6687f112e2" target="_top" xlink:title="Convert unsigned 64&#45;bit integer to string buffer in given radix.">
<polygon fill="white" stroke="#666666" points="372,-24.5 310,-24.5 310,-5.5 372,-5.5 372,-24.5"/>
<text text-anchor="middle" x="341" y="-12.5" font-family="Helvetica,sans-Serif" font-size="10.00">fl::utoa64</text>
</a>
</g>
</g>
<!-- Node1&#45;&gt;Node3 -->
<g id="edge3_Node000001_Node000003" class="edge">
<title>Node1&#45;&gt;Node3</title>
<g id="a_edge3_Node000001_Node000003"><a xlink:title=" ">
<path fill="none" stroke="#63b8ff" d="M106.12,-15C161.78,-15 248.79,-15 299.52,-15"/>
<polygon fill="#63b8ff" stroke="#63b8ff" points="299.77,-18.5 309.77,-15 299.77,-11.5 299.77,-18.5"/>
</a>
</g>
</g>
<!-- Node2&#45;&gt;Node3 -->
<g id="edge2_Node000002_Node000003" class="edge">
<title>Node2&#45;&gt;Node3</title>
<g id="a_edge2_Node000002_Node000003"><a xlink:title=" ">
<path fill="none" stroke="#63b8ff" d="M274.12,-24.56C282.88,-23.29 291.64,-22.01 299.79,-20.83"/>
<polygon fill="#63b8ff" stroke="#63b8ff" points="300.35,-24.29 309.74,-19.39 299.34,-17.36 300.35,-24.29"/>
</a>
</g>
</g>
</g>
</svg>
