<?xml version="1.0" encoding="UTF-8" standalone="no"?>
<!DOCTYPE svg PUBLIC "-//W3C//DTD SVG 1.1//EN"
 "http://www.w3.org/Graphics/SVG/1.1/DTD/svg11.dtd">
<!-- Generated by graphviz version 2.43.0 (0)
 -->
<!-- Title: fl::log10_impl_float Pages: 1 -->
<!--zoomable 217 -->

<svg id="main" version="1.1" xmlns="http://www.w3.org/2000/svg" xmlns:xlink="http://www.w3.org/1999/xlink" xml:space="preserve" onload="init(evt)">

<style type="text/css"><![CDATA[
.node, .edge {opacity: 0.7;}
.node.selected, .edge.selected {opacity: 1;}
.edge:hover path { stroke: red; }
.edge:hover polygon { stroke: red; fill: red; }
]]></style>

<defs>
  <circle id="rim" cx="0" cy="0" r="7"/>
  <circle id="rim2" cx="0" cy="0" r="3.5"/>
  <g id="zoomPlus">
    <use xlink:href="#rim" fill="#404040"><set attributeName="fill" to="#808080" begin="zoomplus.mouseover" end="zoomplus.mouseout"/></use>
    <path d="M-4,0h8M0,-4v8" fill="none" stroke="white" stroke-width="1.5" pointer-events="none"/>
  </g>
  <g id="zoomMin">
    <use xlink:href="#rim" fill="#404040"><set attributeName="fill" to="#808080" begin="zoomminus.mouseover" end="zoomminus.mouseout"/></use>
    <path d="M-4,0h8" fill="none" stroke="white" stroke-width="1.5" pointer-events="none"/>
  </g>
  <g id="arrowUp" transform="translate(30 24)">
    <use xlink:href="#rim"/>
    <path pointer-events="none" fill="none" stroke="white" stroke-width="1.5" d="M0,-3.0v7 M-2.5,-0.5L0,-3.0L2.5,-0.5"/>
  </g>
  <g id="arrowRight" transform="rotate(90) translate(36 -43)">
    <use xlink:href="#rim"/>
    <path pointer-events="none" fill="none" stroke="white" stroke-width="1.5" d="M0,-3.0v7 M-2.5,-0.5L0,-3.0L2.5,-0.5"/>
  </g>
  <g id="arrowDown" transform="rotate(180) translate(-30 -48)">
    <use xlink:href="#rim"/>
    <path pointer-events="none" fill="none" stroke="white" stroke-width="1.5" d="M0,-3.0v7 M-2.5,-0.5L0,-3.0L2.5,-0.5"/>
  </g>
  <g id="arrowLeft" transform="rotate(270) translate(-36 17)">
    <use xlink:href="#rim"/>
    <path pointer-events="none" fill="none" stroke="white" stroke-width="1.5" d="M0,-3.0v7 M-2.5,-0.5L0,-3.0L2.5,-0.5"/>
  </g>
  <g id="resetDef">
    <use xlink:href="#rim2" fill="#404040"><set attributeName="fill" to="#808080" begin="reset.mouseover" end="reset.mouseout"/></use>
  </g>
</defs>
<script type="application/ecmascript">
var viewWidth = 584;
var viewHeight = 217;
var sectionId = 'dynsection-1';
</script>
<script type="application/ecmascript" xlink:href="../../svg.min.js"/>
<svg id="graph" class="graph">
<g id="viewport">
<title>fl::log10_impl_float</title>
<!-- Node1 -->
<g id="Node000001" class="node">
<title>Node1</title>
<g id="a_Node000001"><a xlink:title=" ">
<polygon fill="#999999" stroke="#666666" points="576,-123 466,-123 466,-104 576,-104 576,-123"/>
<text text-anchor="middle" x="521" y="-111" font-family="Helvetica,sans-Serif" font-size="10.00">fl::log10_impl_float</text>
</a>
</g>
</g>
<!-- Node2 -->
<g id="Node000002" class="node">
<title>Node2</title>
<g id="a_Node000002"><a xlink:href="../../d4/d36/namespacefl_ac49a46650a34a831dbd4231a606a94d5.html#ac49a46650a34a831dbd4231a606a94d5" target="_top" xlink:title=" ">
<polygon fill="white" stroke="#666666" points="428.5,-142 372.5,-142 372.5,-123 428.5,-123 428.5,-142"/>
<text text-anchor="middle" x="400.5" y="-130" font-family="Helvetica,sans-Serif" font-size="10.00">fl::log10</text>
</a>
</g>
</g>
<!-- Node1&#45;&gt;Node2 -->
<g id="edge1_Node000001_Node000002" class="edge">
<title>Node1&#45;&gt;Node2</title>
<g id="a_edge1_Node000001_Node000002"><a xlink:title=" ">
<path fill="none" stroke="#63b8ff" d="M455.92,-123.77C446.31,-125.32 436.87,-126.83 428.62,-128.15"/>
<polygon fill="#63b8ff" stroke="#63b8ff" points="456.63,-127.21 465.95,-122.17 455.52,-120.29 456.63,-127.21"/>
</a>
</g>
</g>
<!-- Node3 -->
<g id="Node000003" class="node">
<title>Node3</title>
<g id="a_Node000003"><a xlink:href="../../d4/d36/namespacefl_a59b2ca835c8aaa9e67a6dce355013b3d.html#a59b2ca835c8aaa9e67a6dce355013b3d" target="_top" xlink:title=" ">
<polygon fill="white" stroke="#666666" points="430,-105 371,-105 371,-86 430,-86 430,-105"/>
<text text-anchor="middle" x="400.5" y="-93" font-family="Helvetica,sans-Serif" font-size="10.00">fl::log10f</text>
</a>
</g>
</g>
<!-- Node1&#45;&gt;Node3 -->
<g id="edge2_Node000001_Node000003" class="edge">
<title>Node1&#45;&gt;Node3</title>
<g id="a_edge2_Node000001_Node000003"><a xlink:title=" ">
<path fill="none" stroke="#63b8ff" d="M455.81,-103.75C446.85,-102.39 438.04,-101.05 430.21,-99.86"/>
<polygon fill="#63b8ff" stroke="#63b8ff" points="455.54,-107.25 465.95,-105.29 456.59,-100.33 455.54,-107.25"/>
</a>
</g>
</g>
<!-- Node4 -->
<g id="Node000004" class="node">
<title>Node4</title>
<g id="a_Node000004"><a xlink:href="../../d3/dd1/classfl_1_1audio_1_1detector_1_1_backbeat_a1ba095cf2a5aa331a675235f229eabe9.html#a1ba095cf2a5aa331a675235f229eabe9" target="_top" xlink:title=" ">
<polygon fill="white" stroke="#666666" points="335,-180 168,-180 168,-139 335,-139 335,-180"/>
<text text-anchor="start" x="176" y="-168" font-family="Helvetica,sans-Serif" font-size="10.00">fl::audio::detector</text>
<text text-anchor="start" x="176" y="-157" font-family="Helvetica,sans-Serif" font-size="10.00">::Backbeat::calculateMultiband</text>
<text text-anchor="middle" x="251.5" y="-146" font-family="Helvetica,sans-Serif" font-size="10.00">Accent</text>
</a>
</g>
</g>
<!-- Node3&#45;&gt;Node4 -->
<g id="edge3_Node000003_Node000004" class="edge">
<title>Node3&#45;&gt;Node4</title>
<g id="a_edge3_Node000003_Node000004"><a xlink:title=" ">
<path fill="none" stroke="#63b8ff" d="M368.25,-109.11C348.3,-117.79 322.07,-129.21 299.62,-138.99"/>
<polygon fill="#63b8ff" stroke="#63b8ff" points="369.72,-112.28 377.49,-105.08 366.93,-105.86 369.72,-112.28"/>
</a>
</g>
</g>
<!-- Node7 -->
<g id="Node000007" class="node">
<title>Node7</title>
<g id="a_Node000007"><a xlink:href="../../d6/d86/classfl_1_1audio_1_1fft_1_1_bins_a4df193ccc4b6e7e3453cbe3aca83b5c9.html#a4df193ccc4b6e7e3453cbe3aca83b5c9" target="_top" xlink:title=" ">
<polygon fill="white" stroke="#666666" points="310,-105 193,-105 193,-86 310,-86 310,-105"/>
<text text-anchor="middle" x="251.5" y="-93" font-family="Helvetica,sans-Serif" font-size="10.00">fl::audio::fft::Bins::db</text>
</a>
</g>
</g>
<!-- Node3&#45;&gt;Node7 -->
<g id="edge6_Node000003_Node000007" class="edge">
<title>Node3&#45;&gt;Node7</title>
<g id="a_edge6_Node000003_Node000007"><a xlink:title=" ">
<path fill="none" stroke="#63b8ff" d="M360.56,-95.5C345.08,-95.5 326.95,-95.5 310.02,-95.5"/>
<polygon fill="#63b8ff" stroke="#63b8ff" points="360.81,-99 370.81,-95.5 360.81,-92 360.81,-99"/>
</a>
</g>
</g>
<!-- Node11 -->
<g id="Node000011" class="node">
<title>Node11</title>
<g id="a_Node000011"><a xlink:href="../../da/dc7/advanced_8h_aee649a9a7f0cce52f425ec28fb9331ac.html#aee649a9a7f0cce52f425ec28fb9331ac" target="_top" xlink:title=" ">
<polygon fill="white" stroke="#666666" points="297,-44 206,-44 206,-25 297,-25 297,-44"/>
<text text-anchor="middle" x="251.5" y="-32" font-family="Helvetica,sans-Serif" font-size="10.00">drawWaveform</text>
</a>
</g>
</g>
<!-- Node3&#45;&gt;Node11 -->
<g id="edge10_Node000003_Node000011" class="edge">
<title>Node3&#45;&gt;Node11</title>
<g id="a_edge10_Node000003_Node000011"><a xlink:title=" ">
<path fill="none" stroke="#63b8ff" d="M367.28,-82.13C339.64,-70.66 300.48,-54.41 275.79,-44.17"/>
<polygon fill="#63b8ff" stroke="#63b8ff" points="365.95,-85.37 376.53,-85.97 368.64,-78.9 365.95,-85.37"/>
</a>
</g>
</g>
<!-- Node5 -->
<g id="Node000005" class="node">
<title>Node5</title>
<g id="a_Node000005"><a xlink:href="../../d3/dd1/classfl_1_1audio_1_1detector_1_1_backbeat_a128515a9b1b491a4a3801ce743719b0c.html#a128515a9b1b491a4a3801ce743719b0c" target="_top" xlink:title=" ">
<polygon fill="#fff0f0" stroke="red" points="120,-190.5 12,-190.5 12,-160.5 120,-160.5 120,-190.5"/>
<text text-anchor="start" x="20" y="-178.5" font-family="Helvetica,sans-Serif" font-size="10.00">fl::audio::detector</text>
<text text-anchor="middle" x="66" y="-167.5" font-family="Helvetica,sans-Serif" font-size="10.00">::Backbeat::update</text>
</a>
</g>
</g>
<!-- Node4&#45;&gt;Node5 -->
<g id="edge4_Node000004_Node000005" class="edge">
<title>Node4&#45;&gt;Node5</title>
<g id="a_edge4_Node000004_Node000005"><a xlink:title=" ">
<path fill="none" stroke="#63b8ff" d="M157.61,-167.6C144.79,-168.72 132.01,-169.83 120.25,-170.86"/>
<polygon fill="#63b8ff" stroke="#63b8ff" points="158.22,-171.06 167.88,-166.7 157.61,-164.09 158.22,-171.06"/>
</a>
</g>
</g>
<!-- Node5&#45;&gt;Node5 -->
<g id="edge5_Node000005_Node000005" class="edge">
<title>Node5&#45;&gt;Node5</title>
<g id="a_edge5_Node000005_Node000005"><a xlink:title=" ">
<path fill="none" stroke="#63b8ff" d="M98.21,-201.1C93.81,-205.47 83.07,-208.5 66,-208.5 37.25,-208.5 26.47,-199.91 33.66,-190.78"/>
<polygon fill="#63b8ff" stroke="#63b8ff" points="101.71,-200.82 98.34,-190.78 94.71,-200.73 101.71,-200.82"/>
</a>
</g>
</g>
<!-- Node8 -->
<g id="Node000008" class="node">
<title>Node8</title>
<g id="a_Node000008"><a xlink:href="../../d2/db2/classfl_1_1string_a0978ca02550f22bdf5207a4cb50ed30a.html#a0978ca02550f22bdf5207a4cb50ed30a" target="_top" xlink:title=" ">
<polygon fill="white" stroke="#666666" points="115,-142 17,-142 17,-123 115,-123 115,-142"/>
<text text-anchor="middle" x="66" y="-130" font-family="Helvetica,sans-Serif" font-size="10.00">fl::string::append</text>
</a>
</g>
</g>
<!-- Node7&#45;&gt;Node8 -->
<g id="edge7_Node000007_Node000008" class="edge">
<title>Node7&#45;&gt;Node8</title>
<g id="a_edge7_Node000007_Node000008"><a xlink:title=" ">
<path fill="none" stroke="#63b8ff" d="M193.39,-107.02C168.03,-112.13 138.53,-118.08 114.41,-122.94"/>
<polygon fill="#63b8ff" stroke="#63b8ff" points="194.13,-110.44 203.24,-105.03 192.75,-103.57 194.13,-110.44"/>
</a>
</g>
</g>
<!-- Node9 -->
<g id="Node000009" class="node">
<title>Node9</title>
<g id="a_Node000009"><a xlink:href="../../d1/d27/classfl_1_1sstream_a51db47086b79a135addd76d7093c0291.html#a51db47086b79a135addd76d7093c0291" target="_top" xlink:title=" ">
<polygon fill="white" stroke="#666666" points="132,-105 0,-105 0,-86 132,-86 132,-105"/>
<text text-anchor="middle" x="66" y="-93" font-family="Helvetica,sans-Serif" font-size="10.00">fl::sstream::operator&lt;&lt;</text>
</a>
</g>
</g>
<!-- Node7&#45;&gt;Node9 -->
<g id="edge8_Node000007_Node000009" class="edge">
<title>Node7&#45;&gt;Node9</title>
<g id="a_edge8_Node000007_Node000009"><a xlink:title=" ">
<path fill="none" stroke="#63b8ff" d="M182.78,-95.5C166.2,-95.5 148.48,-95.5 132.03,-95.5"/>
<polygon fill="#63b8ff" stroke="#63b8ff" points="182.94,-99 192.94,-95.5 182.94,-92 182.94,-99"/>
</a>
</g>
</g>
<!-- Node10 -->
<g id="Node000010" class="node">
<title>Node10</title>
<g id="a_Node000010"><a xlink:href="../../d6/d86/classfl_1_1audio_1_1fft_1_1_bins_af5d45fe81553a1723d85435d6765a91a.html#af5d45fe81553a1723d85435d6765a91a" target="_top" xlink:title=" ">
<polygon fill="white" stroke="#666666" points="115.5,-67.5 16.5,-67.5 16.5,-37.5 115.5,-37.5 115.5,-67.5"/>
<text text-anchor="start" x="24.5" y="-55.5" font-family="Helvetica,sans-Serif" font-size="10.00">fl::audio::fft::Bins</text>
<text text-anchor="middle" x="66" y="-44.5" font-family="Helvetica,sans-Serif" font-size="10.00">::operator=</text>
</a>
</g>
</g>
<!-- Node7&#45;&gt;Node10 -->
<g id="edge9_Node000007_Node000010" class="edge">
<title>Node7&#45;&gt;Node10</title>
<g id="a_edge9_Node000007_Node000010"><a xlink:title=" ">
<path fill="none" stroke="#63b8ff" d="M200.01,-83.67C173.74,-77.51 141.77,-70.02 115.76,-63.93"/>
<polygon fill="#63b8ff" stroke="#63b8ff" points="199.24,-87.08 209.78,-85.96 200.84,-80.27 199.24,-87.08"/>
</a>
</g>
</g>
<!-- Node12 -->
<g id="Node000012" class="node">
<title>Node12</title>
<g id="a_Node000012"><a xlink:href="../../da/dc7/advanced_8h_afe461d27b9c48d5921c00d521181f12f.html#afe461d27b9c48d5921c00d521181f12f" target="_top" xlink:title=" ">
<polygon fill="white" stroke="#666666" points="85,-19 47,-19 47,0 85,0 85,-19"/>
<text text-anchor="middle" x="66" y="-7" font-family="Helvetica,sans-Serif" font-size="10.00">loop</text>
</a>
</g>
</g>
<!-- Node11&#45;&gt;Node12 -->
<g id="edge11_Node000011_Node000012" class="edge">
<title>Node11&#45;&gt;Node12</title>
<g id="a_edge11_Node000011_Node000012"><a xlink:title=" ">
<path fill="none" stroke="#63b8ff" d="M195.34,-26.99C157.94,-21.89 110.83,-15.47 85.37,-12"/>
<polygon fill="#63b8ff" stroke="#63b8ff" points="195.23,-30.5 205.61,-28.38 196.17,-23.57 195.23,-30.5"/>
</a>
</g>
</g>
</g>
</svg>

<g id="navigator" transform="translate(0 0)" fill="#404254">
  <rect fill="#f2f5e9" fill-opacity="0.5" stroke="#606060" stroke-width=".5" x="0" y="0" width="60" height="60"/>
  <use id="zoomplus" xlink:href="#zoomPlus" x="17" y="9" onmousedown="handleZoom(evt,'in')"/>
  <use id="zoomminus" xlink:href="#zoomMin" x="42" y="9" onmousedown="handleZoom(evt,'out')"/>
  <use id="reset" xlink:href="#resetDef" x="30" y="36" onmousedown="handleReset()"/>
   <use id="arrowup" xlink:href="#arrowUp" x="0" y="0" onmousedown="handlePan(0,-1)"/>
  <use id="arrowright" xlink:href="#arrowRight" x="0" y="0" onmousedown="handlePan(1,0)"/>
  <use id="arrowdown" xlink:href="#arrowDown" x="0" y="0" onmousedown="handlePan(0,1)"/>
  <use id="arrowleft" xlink:href="#arrowLeft" x="0" y="0" onmousedown="handlePan(-1,0)"/>
</g>
<svg viewBox="0 0 15 15" width="100%" height="30px" preserveAspectRatio="xMaxYMin meet">
 <g id="arrow_out" transform="scale(0.3 0.3)">
  <a xlink:href="namespacefl_a4a285f39138edafa16b69127b78d2b85_a4a285f39138edafa16b69127b78d2b85_icgraph_org.svg" target="_base">
   <rect id="button" ry="5" rx="5" y="6" x="6" height="38" width="38"
        fill="#f2f5e9" fill-opacity="0.5" stroke="#606060" stroke-width="1.0"/>
   <path id="arrow"
     d="M 11.500037,31.436501 C 11.940474,20.09759 22.043105,11.32322 32.158766,21.979434 L 37.068811,17.246167 C 37.068811,17.246167 37.088388,32 37.088388,32 L 22.160133,31.978069 C 22.160133,31.978069 26.997745,27.140456 26.997745,27.140456 C 18.528582,18.264221 13.291696,25.230495 11.500037,31.436501 z"
     style="fill:#404040;"/>
  </a>
 </g>
</svg>

<style type='text/css'>
<![CDATA[
[data-mouse-over-selected='false'] { opacity: 0.7; }
[data-mouse-over-selected='true']  { opacity: 1.0; }
]]>
</style>
<script type="application/ecmascript"><![CDATA[
document.addEventListener('DOMContentLoaded', (event) => {
  highlightEdges();
  highlightAdjacentNodes();
});
]]></script>
</svg>
