<?xml version="1.0" encoding="UTF-8" standalone="no"?>
<!DOCTYPE svg PUBLIC "-//W3C//DTD SVG 1.1//EN"
 "http://www.w3.org/Graphics/SVG/1.1/DTD/svg11.dtd">
<!-- Generated by graphviz version 2.43.0 (0)
 -->
<!-- Title: fl::bilinearInterpolate Pages: 1 -->
<svg width="590pt" height="46pt"
 viewBox="0.00 0.00 590.00 46.00" xmlns="http://www.w3.org/2000/svg" xmlns:xlink="http://www.w3.org/1999/xlink">
<g id="graph0" class="graph" transform="scale(1 1) rotate(0) translate(4 42)">
<title>fl::bilinearInterpolate</title>
<!-- Node1 -->
<g id="Node000001" class="node">
<title>Node1</title>
<g id="a_Node000001"><a xlink:title=" ">
<polygon fill="#999999" stroke="#666666" points="582,-19 463,-19 463,0 582,0 582,-19"/>
<text text-anchor="middle" x="522.5" y="-7" font-family="Helvetica,sans-Serif" font-size="10.00">fl::bilinearInterpolate</text>
</a>
</g>
</g>
<!-- Node2 -->
<g id="Node000002" class="node">
<title>Node2</title>
<g id="a_Node000002"><a xlink:href="../../d4/d36/namespacefl_aed039daa2110de9add4bdbeea4052a57.html#aed039daa2110de9add4bdbeea4052a57" target="_top" xlink:title="Performs bilinear interpolation for upscaling an image.">
<polygon fill="white" stroke="#666666" points="427,-19 283,-19 283,0 427,0 427,-19"/>
<text text-anchor="middle" x="355" y="-7" font-family="Helvetica,sans-Serif" font-size="10.00">fl::bilinearExpandArbitrary</text>
</a>
</g>
</g>
<!-- Node1&#45;&gt;Node2 -->
<g id="edge1_Node000001_Node000002" class="edge">
<title>Node1&#45;&gt;Node2</title>
<g id="a_edge1_Node000001_Node000002"><a xlink:title=" ">
<path fill="none" stroke="#63b8ff" d="M452.55,-9.5C444.14,-9.5 435.53,-9.5 427.09,-9.5"/>
<polygon fill="#63b8ff" stroke="#63b8ff" points="452.68,-13 462.68,-9.5 452.68,-6 452.68,-13"/>
</a>
</g>
</g>
<!-- Node3 -->
<g id="Node000003" class="node">
<title>Node3</title>
<g id="a_Node000003"><a xlink:href="../../d4/d36/namespacefl_a521b1a75c2204adfdd48e82bec341de6.html#a521b1a75c2204adfdd48e82bec341de6" target="_top" xlink:title=" ">
<polygon fill="white" stroke="#666666" points="247,-38 146,-38 146,-19 247,-19 247,-38"/>
<text text-anchor="middle" x="196.5" y="-26" font-family="Helvetica,sans-Serif" font-size="10.00">fl::bilinearExpand</text>
</a>
</g>
</g>
<!-- Node2&#45;&gt;Node3 -->
<g id="edge2_Node000002_Node000003" class="edge">
<title>Node2&#45;&gt;Node3</title>
<g id="a_edge2_Node000002_Node000003"><a xlink:title=" ">
<path fill="none" stroke="#63b8ff" d="M272.53,-19.39C263.93,-20.44 255.38,-21.47 247.3,-22.45"/>
<polygon fill="#63b8ff" stroke="#63b8ff" points="273.11,-22.85 282.62,-18.17 272.27,-15.9 273.11,-22.85"/>
</a>
</g>
</g>
<!-- Node4 -->
<g id="Node000004" class="node">
<title>Node4</title>
<g id="a_Node000004"><a xlink:href="../../d5/d79/classfl_1_1_scale_up_a04b53ac5f5bbe9d2477fc08e8ab77066.html#a04b53ac5f5bbe9d2477fc08e8ab77066" target="_top" xlink:title=" ">
<polygon fill="#fff0f0" stroke="red" points="110,-19 0,-19 0,0 110,0 110,-19"/>
<text text-anchor="middle" x="55" y="-7" font-family="Helvetica,sans-Serif" font-size="10.00">fl::ScaleUp::expand</text>
</a>
</g>
</g>
<!-- Node2&#45;&gt;Node4 -->
<g id="edge4_Node000002_Node000004" class="edge">
<title>Node2&#45;&gt;Node4</title>
<g id="a_edge4_Node000002_Node000004"><a xlink:title=" ">
<path fill="none" stroke="#63b8ff" d="M272.47,-9.5C220.77,-9.5 155.33,-9.5 110,-9.5"/>
<polygon fill="#63b8ff" stroke="#63b8ff" points="272.62,-13 282.62,-9.5 272.62,-6 272.62,-13"/>
</a>
</g>
</g>
<!-- Node3&#45;&gt;Node4 -->
<g id="edge3_Node000003_Node000004" class="edge">
<title>Node3&#45;&gt;Node4</title>
<g id="a_edge3_Node000003_Node000004"><a xlink:title=" ">
<path fill="none" stroke="#63b8ff" d="M135.98,-20.39C127.41,-19.23 118.62,-18.03 110.15,-16.88"/>
<polygon fill="#63b8ff" stroke="#63b8ff" points="135.54,-23.87 145.92,-21.75 136.49,-16.93 135.54,-23.87"/>
</a>
</g>
</g>
</g>
</svg>
