<?xml version="1.0" encoding="UTF-8" standalone="no"?>
<!DOCTYPE svg PUBLIC "-//W3C//DTD SVG 1.1//EN"
 "http://www.w3.org/Graphics/SVG/1.1/DTD/svg11.dtd">
<!-- Generated by graphviz version 2.43.0 (0)
 -->
<!-- Title: fl::get_objectfled_async_logger_main Pages: 1 -->
<!--zoomable 180 -->

<svg id="main" version="1.1" xmlns="http://www.w3.org/2000/svg" xmlns:xlink="http://www.w3.org/1999/xlink" xml:space="preserve" onload="init(evt)">

<style type="text/css"><![CDATA[
.node, .edge {opacity: 0.7;}
.node.selected, .edge.selected {opacity: 1;}
.edge:hover path { stroke: red; }
.edge:hover polygon { stroke: red; fill: red; }
]]></style>

<defs>
  <circle id="rim" cx="0" cy="0" r="7"/>
  <circle id="rim2" cx="0" cy="0" r="3.5"/>
  <g id="zoomPlus">
    <use xlink:href="#rim" fill="#404040"><set attributeName="fill" to="#808080" begin="zoomplus.mouseover" end="zoomplus.mouseout"/></use>
    <path d="M-4,0h8M0,-4v8" fill="none" stroke="white" stroke-width="1.5" pointer-events="none"/>
  </g>
  <g id="zoomMin">
    <use xlink:href="#rim" fill="#404040"><set attributeName="fill" to="#808080" begin="zoomminus.mouseover" end="zoomminus.mouseout"/></use>
    <path d="M-4,0h8" fill="none" stroke="white" stroke-width="1.5" pointer-events="none"/>
  </g>
  <g id="arrowUp" transform="translate(30 24)">
    <use xlink:href="#rim"/>
    <path pointer-events="none" fill="none" stroke="white" stroke-width="1.5" d="M0,-3.0v7 M-2.5,-0.5L0,-3.0L2.5,-0.5"/>
  </g>
  <g id="arrowRight" transform="rotate(90) translate(36 -43)">
    <use xlink:href="#rim"/>
    <path pointer-events="none" fill="none" stroke="white" stroke-width="1.5" d="M0,-3.0v7 M-2.5,-0.5L0,-3.0L2.5,-0.5"/>
  </g>
  <g id="arrowDown" transform="rotate(180) translate(-30 -48)">
    <use xlink:href="#rim"/>
    <path pointer-events="none" fill="none" stroke="white" stroke-width="1.5" d="M0,-3.0v7 M-2.5,-0.5L0,-3.0L2.5,-0.5"/>
  </g>
  <g id="arrowLeft" transform="rotate(270) translate(-36 17)">
    <use xlink:href="#rim"/>
    <path pointer-events="none" fill="none" stroke="white" stroke-width="1.5" d="M0,-3.0v7 M-2.5,-0.5L0,-3.0L2.5,-0.5"/>
  </g>
  <g id="resetDef">
    <use xlink:href="#rim2" fill="#404040"><set attributeName="fill" to="#808080" begin="reset.mouseover" end="reset.mouseout"/></use>
  </g>
</defs>
<script type="application/ecmascript">
var viewWidth = 673;
var viewHeight = 180;
var sectionId = 'dynsection-0';
</script>
<script type="application/ecmascript" xlink:href="../../svg.min.js"/>
<svg id="graph" class="graph">
<g id="viewport">
<title>fl::get_objectfled_async_logger_main</title>
<!-- Node1 -->
<g id="Node000001" class="node">
<title>Node1</title>
<g id="a_Node000001"><a xlink:title=" ">
<polygon fill="#999999" stroke="#666666" points="116,-94 0,-94 0,-64 116,-64 116,-94"/>
<text text-anchor="start" x="8" y="-82" font-family="Helvetica,sans-Serif" font-size="10.00">fl::get_objectfled</text>
<text text-anchor="middle" x="58" y="-71" font-family="Helvetica,sans-Serif" font-size="10.00">_async_logger_main</text>
</a>
</g>
</g>
<!-- Node1&#45;&gt;Node1 -->
<g id="edge11_Node000001_Node000001" class="edge">
<title>Node1&#45;&gt;Node1</title>
<g id="a_edge11_Node000001_Node000001"><a xlink:title=" ">
<path fill="none" stroke="#63b8ff" d="M31.63,-94.28C25.77,-103.41 34.56,-112 58,-112 71.92,-112 80.67,-108.97 84.26,-104.6"/>
<polygon fill="#63b8ff" stroke="#63b8ff" points="87.76,-104.31 84.37,-94.28 80.76,-104.24 87.76,-104.31"/>
</a>
</g>
</g>
<!-- Node2 -->
<g id="Node000002" class="node">
<title>Node2</title>
<g id="a_Node000002"><a xlink:href="../../d4/d36/namespacefl_a78c09365a5278caa64b43fe7ff242146.html#a78c09365a5278caa64b43fe7ff242146" target="_top" xlink:title="Template&#45;based logger accessor with auto&#45;registration and enablement check.">
<polygon fill="white" stroke="#666666" points="266,-94 152,-94 152,-64 266,-64 266,-94"/>
<text text-anchor="start" x="160" y="-82" font-family="Helvetica,sans-Serif" font-size="10.00">fl::get_async_logger</text>
<text text-anchor="middle" x="209" y="-71" font-family="Helvetica,sans-Serif" font-size="10.00">_by_index</text>
</a>
</g>
</g>
<!-- Node1&#45;&gt;Node2 -->
<g id="edge1_Node000001_Node000002" class="edge">
<title>Node1&#45;&gt;Node2</title>
<g id="a_edge1_Node000001_Node000002"><a xlink:title=" ">
<path fill="none" stroke="#63b8ff" d="M116.18,-79C124.47,-79 133.05,-79 141.5,-79"/>
<polygon fill="#63b8ff" stroke="#63b8ff" points="141.71,-82.5 151.71,-79 141.71,-75.5 141.71,-82.5"/>
</a>
</g>
</g>
<!-- Node2&#45;&gt;Node2 -->
<g id="edge5_Node000002_Node000002" class="edge">
<title>Node2&#45;&gt;Node2</title>
<g id="a_edge5_Node000002_Node000002"><a xlink:title=" ">
<path fill="none" stroke="#63b8ff" d="M182.63,-94.28C176.77,-103.41 185.56,-112 209,-112 222.92,-112 231.67,-108.97 235.26,-104.6"/>
<polygon fill="#63b8ff" stroke="#63b8ff" points="238.76,-104.31 235.37,-94.28 231.76,-104.24 238.76,-104.31"/>
</a>
</g>
</g>
<!-- Node3 -->
<g id="Node000003" class="node">
<title>Node3</title>
<g id="a_Node000003"><a xlink:href="../../df/d9e/namespacefl_1_1detail_aa9f76c83c862a97dce4b86c77be98046.html#aa9f76c83c862a97dce4b86c77be98046" target="_top" xlink:title="Check if logger is enabled and print error once if not.">
<polygon fill="white" stroke="#666666" points="465,-153.5 302,-153.5 302,-134.5 465,-134.5 465,-153.5"/>
<text text-anchor="middle" x="383.5" y="-141.5" font-family="Helvetica,sans-Serif" font-size="10.00">fl::detail::checkLoggerEnabled</text>
</a>
</g>
</g>
<!-- Node2&#45;&gt;Node3 -->
<g id="edge2_Node000002_Node000003" class="edge">
<title>Node2&#45;&gt;Node3</title>
<g id="a_edge2_Node000002_Node000003"><a xlink:title=" ">
<path fill="none" stroke="#63b8ff" d="M236.25,-94.17C254.27,-104.08 279,-116.66 302,-125 309.04,-127.55 316.55,-129.85 324.05,-131.9"/>
<polygon fill="#63b8ff" stroke="#63b8ff" points="323.31,-135.32 333.86,-134.44 325.06,-128.54 323.31,-135.32"/>
</a>
</g>
</g>
<!-- Node5 -->
<g id="Node000005" class="node">
<title>Node5</title>
<g id="a_Node000005"><a xlink:href="../../d5/d7b/structfl_1_1detail_1_1_active_logger_registry_a0ba7ba9bde21bfc28ef06006930c34f1.html#a0ba7ba9bde21bfc28ef06006930c34f1" target="_top" xlink:title=" ">
<polygon fill="white" stroke="#666666" points="446.5,-116 320.5,-116 320.5,-86 446.5,-86 446.5,-116"/>
<text text-anchor="start" x="328.5" y="-104" font-family="Helvetica,sans-Serif" font-size="10.00">fl::detail::ActiveLogger</text>
<text text-anchor="middle" x="383.5" y="-93" font-family="Helvetica,sans-Serif" font-size="10.00">Registry::instance</text>
</a>
</g>
</g>
<!-- Node2&#45;&gt;Node5 -->
<g id="edge6_Node000002_Node000005" class="edge">
<title>Node2&#45;&gt;Node5</title>
<g id="a_edge6_Node000002_Node000005"><a xlink:title=" ">
<path fill="none" stroke="#63b8ff" d="M266.01,-86.14C280.07,-87.94 295.37,-89.89 310.11,-91.77"/>
<polygon fill="#63b8ff" stroke="#63b8ff" points="309.85,-95.26 320.21,-93.06 310.73,-88.32 309.85,-95.26"/>
</a>
</g>
</g>
<!-- Node6 -->
<g id="Node000006" class="node">
<title>Node6</title>
<g id="a_Node000006"><a xlink:href="../../db/d4a/classfl_1_1_singleton_shared_a138a66e14b03a073e9a15565e823b203.html#a138a66e14b03a073e9a15565e823b203" target="_top" xlink:title=" ">
<polygon fill="#fff0f0" stroke="red" points="637,-95 529,-95 529,-65 637,-65 637,-95"/>
<text text-anchor="start" x="537" y="-83" font-family="Helvetica,sans-Serif" font-size="10.00">fl::SingletonShared</text>
<text text-anchor="middle" x="583" y="-72" font-family="Helvetica,sans-Serif" font-size="10.00">::instance</text>
</a>
</g>
</g>
<!-- Node2&#45;&gt;Node6 -->
<g id="edge10_Node000002_Node000006" class="edge">
<title>Node2&#45;&gt;Node6</title>
<g id="a_edge10_Node000002_Node000006"><a xlink:title=" ">
<path fill="none" stroke="#63b8ff" d="M266.44,-77.58C278.19,-77.34 290.5,-77.13 302,-77 374.44,-76.21 392.56,-76.07 465,-77 482.41,-77.22 501.27,-77.63 518.66,-78.08"/>
<polygon fill="#63b8ff" stroke="#63b8ff" points="518.62,-81.58 528.71,-78.35 518.81,-74.58 518.62,-81.58"/>
</a>
</g>
</g>
<!-- Node18 -->
<g id="Node000018" class="node">
<title>Node18</title>
<g id="a_Node000018"><a xlink:href="../../d5/d06/classfl_1_1detail_1_1_async_logger_service_task_acc200cb8837f82379821217fb4a6bc29.html#acc200cb8837f82379821217fb4a6bc29" target="_top" xlink:title=" ">
<polygon fill="white" stroke="#666666" points="464,-30 303,-30 303,0 464,0 464,-30"/>
<text text-anchor="start" x="311" y="-18" font-family="Helvetica,sans-Serif" font-size="10.00">fl::detail::AsyncLoggerService</text>
<text text-anchor="middle" x="383.5" y="-7" font-family="Helvetica,sans-Serif" font-size="10.00">Task::instance</text>
</a>
</g>
</g>
<!-- Node2&#45;&gt;Node18 -->
<g id="edge8_Node000002_Node000018" class="edge">
<title>Node2&#45;&gt;Node18</title>
<g id="a_edge8_Node000002_Node000018"><a xlink:title=" ">
<path fill="none" stroke="#63b8ff" d="M249.34,-63.86C265.61,-57.64 284.69,-50.41 302,-44 311.3,-40.56 321.22,-36.94 330.81,-33.47"/>
<polygon fill="#63b8ff" stroke="#63b8ff" points="332.03,-36.75 340.25,-30.06 329.66,-30.16 332.03,-36.75"/>
</a>
</g>
</g>
<!-- Node3&#45;&gt;Node3 -->
<g id="edge3_Node000003_Node000003" class="edge">
<title>Node3&#45;&gt;Node3</title>
<g id="a_edge3_Node000003_Node000003"><a xlink:title=" ">
<path fill="none" stroke="#63b8ff" d="M356.68,-153.58C343.63,-162.23 352.57,-171.5 383.5,-171.5 404.28,-171.5 415.13,-167.32 416.06,-161.95"/>
<polygon fill="#63b8ff" stroke="#63b8ff" points="418.86,-159.85 410.32,-153.58 413.09,-163.81 418.86,-159.85"/>
</a>
</g>
</g>
<!-- Node4 -->
<g id="Node000004" class="node">
<title>Node4</title>
<g id="a_Node000004"><a xlink:href="../../df/d9e/namespacefl_1_1detail_ae18de49f03a7a361a888c1e75d5e2f86.html#ae18de49f03a7a361a888c1e75d5e2f86" target="_top" xlink:title="Print error message for disabled logger (non&#45;template helper) Called from checkLoggerEnabled template...">
<polygon fill="white" stroke="#666666" points="663.5,-159 502.5,-159 502.5,-129 663.5,-129 663.5,-159"/>
<text text-anchor="start" x="510.5" y="-147" font-family="Helvetica,sans-Serif" font-size="10.00">fl::detail::printLoggerDisabled</text>
<text text-anchor="middle" x="583" y="-136" font-family="Helvetica,sans-Serif" font-size="10.00">Error</text>
</a>
</g>
</g>
<!-- Node3&#45;&gt;Node4 -->
<g id="edge4_Node000003_Node000004" class="edge">
<title>Node3&#45;&gt;Node4</title>
<g id="a_edge4_Node000003_Node000004"><a xlink:title=" ">
<path fill="none" stroke="#63b8ff" d="M465.12,-144C474.03,-144 483.14,-144 492.16,-144"/>
<polygon fill="#63b8ff" stroke="#63b8ff" points="492.28,-147.5 502.28,-144 492.28,-140.5 492.28,-147.5"/>
</a>
</g>
</g>
<!-- Node5&#45;&gt;Node6 -->
<g id="edge7_Node000005_Node000006" class="edge">
<title>Node5&#45;&gt;Node6</title>
<g id="a_edge7_Node000005_Node000006"><a xlink:title=" ">
<path fill="none" stroke="#63b8ff" d="M446.72,-94.38C469.67,-91.94 495.68,-89.18 518.72,-86.73"/>
<polygon fill="#63b8ff" stroke="#63b8ff" points="519.16,-90.2 528.74,-85.66 518.42,-83.24 519.16,-90.2"/>
</a>
</g>
</g>
<!-- Node19 -->
<g id="Node000019" class="node">
<title>Node19</title>
<g id="a_Node000019"><a xlink:href="../../d5/d06/classfl_1_1detail_1_1_async_logger_service_task_a3bff7aaa6e1158fbbee95055b3458285.html#a3bff7aaa6e1158fbbee95055b3458285" target="_top" xlink:title=" ">
<polygon fill="#fff0f0" stroke="red" points="665,-30 501,-30 501,0 665,0 665,-30"/>
<text text-anchor="start" x="509" y="-18" font-family="Helvetica,sans-Serif" font-size="10.00">fl::detail::AsyncLoggerService</text>
<text text-anchor="middle" x="583" y="-7" font-family="Helvetica,sans-Serif" font-size="10.00">Task::AsyncLoggerServiceTask</text>
</a>
</g>
</g>
<!-- Node18&#45;&gt;Node19 -->
<g id="edge9_Node000018_Node000019" class="edge">
<title>Node18&#45;&gt;Node19</title>
<g id="a_edge9_Node000018_Node000019"><a xlink:title=" ">
<path fill="none" stroke="#63b8ff" d="M464.26,-15C473.05,-15 482.05,-15 490.96,-15"/>
<polygon fill="#63b8ff" stroke="#63b8ff" points="490.98,-18.5 500.98,-15 490.98,-11.5 490.98,-18.5"/>
</a>
</g>
</g>
</g>
</svg>

<g id="navigator" transform="translate(0 0)" fill="#404254">
  <rect fill="#f2f5e9" fill-opacity="0.5" stroke="#606060" stroke-width=".5" x="0" y="0" width="60" height="60"/>
  <use id="zoomplus" xlink:href="#zoomPlus" x="17" y="9" onmousedown="handleZoom(evt,'in')"/>
  <use id="zoomminus" xlink:href="#zoomMin" x="42" y="9" onmousedown="handleZoom(evt,'out')"/>
  <use id="reset" xlink:href="#resetDef" x="30" y="36" onmousedown="handleReset()"/>
   <use id="arrowup" xlink:href="#arrowUp" x="0" y="0" onmousedown="handlePan(0,-1)"/>
  <use id="arrowright" xlink:href="#arrowRight" x="0" y="0" onmousedown="handlePan(1,0)"/>
  <use id="arrowdown" xlink:href="#arrowDown" x="0" y="0" onmousedown="handlePan(0,1)"/>
  <use id="arrowleft" xlink:href="#arrowLeft" x="0" y="0" onmousedown="handlePan(-1,0)"/>
</g>
<svg viewBox="0 0 15 15" width="100%" height="30px" preserveAspectRatio="xMaxYMin meet">
 <g id="arrow_out" transform="scale(0.3 0.3)">
  <a xlink:href="namespacefl_a29c6eabca94f03a165b0ae3333841730_a29c6eabca94f03a165b0ae3333841730_cgraph_org.svg" target="_base">
   <rect id="button" ry="5" rx="5" y="6" x="6" height="38" width="38"
        fill="#f2f5e9" fill-opacity="0.5" stroke="#606060" stroke-width="1.0"/>
   <path id="arrow"
     d="M 11.500037,31.436501 C 11.940474,20.09759 22.043105,11.32322 32.158766,21.979434 L 37.068811,17.246167 C 37.068811,17.246167 37.088388,32 37.088388,32 L 22.160133,31.978069 C 22.160133,31.978069 26.997745,27.140456 26.997745,27.140456 C 18.528582,18.264221 13.291696,25.230495 11.500037,31.436501 z"
     style="fill:#404040;"/>
  </a>
 </g>
</svg>

<style type='text/css'>
<![CDATA[
[data-mouse-over-selected='false'] { opacity: 0.7; }
[data-mouse-over-selected='true']  { opacity: 1.0; }
]]>
</style>
<script type="application/ecmascript"><![CDATA[
document.addEventListener('DOMContentLoaded', (event) => {
  highlightEdges();
  highlightAdjacentNodes();
});
]]></script>
</svg>
