<?xml version="1.0" encoding="UTF-8" standalone="no"?>
<!DOCTYPE svg PUBLIC "-//W3C//DTD SVG 1.1//EN"
 "http://www.w3.org/Graphics/SVG/1.1/DTD/svg11.dtd">
<!-- Generated by graphviz version 2.43.0 (0)
 -->
<!-- Title: fl::ColorFromPaletteExtended Pages: 1 -->
<svg width="641pt" height="211pt"
 viewBox="0.00 0.00 641.00 211.24" xmlns="http://www.w3.org/2000/svg" xmlns:xlink="http://www.w3.org/1999/xlink">
<g id="graph0" class="graph" transform="scale(1 1) rotate(0) translate(4 207.24)">
<title>fl::ColorFromPaletteExtended</title>
<!-- Node1 -->
<g id="Node000001" class="node">
<title>Node1</title>
<g id="a_Node000001"><a xlink:title=" ">
<polygon fill="#999999" stroke="#666666" points="158,-95 0,-95 0,-76 158,-76 158,-95"/>
<text text-anchor="middle" x="79" y="-83" font-family="Helvetica,sans-Serif" font-size="10.00">fl::ColorFromPaletteExtended</text>
</a>
</g>
</g>
<!-- Node2 -->
<g id="Node000002" class="node">
<title>Node2</title>
<g id="a_Node000002"><a xlink:href="../../d4/d36/namespacefl_a924fc8748f53389e55fdc63bfc14b805.html#a924fc8748f53389e55fdc63bfc14b805" target="_top" xlink:title=" ">
<polygon fill="white" stroke="#666666" points="250,-152 194,-152 194,-133 250,-133 250,-152"/>
<text text-anchor="middle" x="222" y="-140" font-family="Helvetica,sans-Serif" font-size="10.00">fl::blend</text>
</a>
</g>
</g>
<!-- Node1&#45;&gt;Node2 -->
<g id="edge1_Node000001_Node000002" class="edge">
<title>Node1&#45;&gt;Node2</title>
<g id="a_edge1_Node000001_Node000002"><a xlink:title=" ">
<path fill="none" stroke="#63b8ff" d="M103.6,-95.04C126.68,-104.37 162.03,-118.66 187.91,-129.12"/>
<polygon fill="#63b8ff" stroke="#63b8ff" points="186.74,-132.43 197.32,-132.93 189.36,-125.94 186.74,-132.43"/>
</a>
</g>
</g>
<!-- Node5 -->
<g id="Node000005" class="node">
<title>Node5</title>
<g id="a_Node000005"><a xlink:href="../../d0/da5/group___scaling_dirty_ga3fade00fb4cf5b937b973128198a7a79.html#ga3fade00fb4cf5b937b973128198a7a79" target="_top" xlink:title="Clean up the r1 register after a series of *LEAVING_R1_DIRTY calls.">
<polygon fill="white" stroke="#666666" points="596,-190 523,-190 523,-171 596,-171 596,-190"/>
<text text-anchor="middle" x="559.5" y="-178" font-family="Helvetica,sans-Serif" font-size="10.00">cleanup_R1</text>
</a>
</g>
</g>
<!-- Node1&#45;&gt;Node5 -->
<g id="edge8_Node000001_Node000005" class="edge">
<title>Node1&#45;&gt;Node5</title>
<g id="a_edge8_Node000001_Node000005"><a xlink:title=" ">
<path fill="none" stroke="#63b8ff" d="M91.1,-95.14C110.55,-111.48 152.64,-144.49 194,-161.5 300.32,-205.22 335.43,-207.94 450,-198.5 470.65,-196.8 493.28,-193.31 512.51,-189.85"/>
<polygon fill="#63b8ff" stroke="#63b8ff" points="513.32,-193.26 522.52,-187.99 512.05,-186.37 513.32,-193.26"/>
</a>
</g>
</g>
<!-- Node6 -->
<g id="Node000006" class="node">
<title>Node6</title>
<g id="a_Node000006"><a xlink:href="../../d0/da5/group___scaling_dirty_ga7386235cada3aca429b189681d2ec56d.html#ga7386235cada3aca429b189681d2ec56d" target="_top" xlink:title="This version of scale8() does not clean up the R1 register on AVR.">
<polygon fill="white" stroke="#666666" points="633,-114 486,-114 486,-95 633,-95 633,-114"/>
<text text-anchor="middle" x="559.5" y="-102" font-family="Helvetica,sans-Serif" font-size="10.00">scale8_LEAVING_R1_DIRTY</text>
</a>
</g>
</g>
<!-- Node1&#45;&gt;Node6 -->
<g id="edge13_Node000001_Node000006" class="edge">
<title>Node1&#45;&gt;Node6</title>
<g id="a_edge13_Node000001_Node000006"><a xlink:title=" ">
<path fill="none" stroke="#63b8ff" d="M130.38,-75.99C201.96,-64.04 336.97,-47.28 450,-66.5 477.47,-71.17 507.25,-82.05 528.65,-90.98"/>
<polygon fill="#63b8ff" stroke="#63b8ff" points="527.28,-94.2 537.85,-94.91 530.03,-87.76 527.28,-94.2"/>
</a>
</g>
</g>
<!-- Node7 -->
<g id="Node000007" class="node">
<title>Node7</title>
<g id="a_Node000007"><a xlink:href="../../d0/da8/group___scaling_ga39bf87e5526120889086cab19ac749b1.html#ga39bf87e5526120889086cab19ac749b1" target="_top" xlink:title="Scale three one&#45;byte values by a fourth one, which is treated as the numerator of a fraction whose de...">
<polygon fill="white" stroke="#666666" points="450,-95 384,-95 384,-76 450,-76 450,-95"/>
<text text-anchor="middle" x="417" y="-83" font-family="Helvetica,sans-Serif" font-size="10.00">nscale8x3</text>
</a>
</g>
</g>
<!-- Node1&#45;&gt;Node7 -->
<g id="edge9_Node000001_Node000007" class="edge">
<title>Node1&#45;&gt;Node7</title>
<g id="a_edge9_Node000001_Node000007"><a xlink:title=" ">
<path fill="none" stroke="#63b8ff" d="M158.35,-85.5C225.44,-85.5 319.49,-85.5 373.44,-85.5"/>
<polygon fill="#63b8ff" stroke="#63b8ff" points="373.68,-89 383.68,-85.5 373.68,-82 373.68,-89"/>
</a>
</g>
</g>
<!-- Node8 -->
<g id="Node000008" class="node">
<title>Node8</title>
<g id="a_Node000008"><a xlink:href="../../d6/daf/direct_8h_a0b3fd115c40d6ac683a810a572fc6104.html#a0b3fd115c40d6ac683a810a572fc6104" target="_top" xlink:title=" ">
<polygon fill="white" stroke="#666666" points="244,-19 200,-19 200,0 244,0 244,-19"/>
<text text-anchor="middle" x="222" y="-7" font-family="Helvetica,sans-Serif" font-size="10.00">offset</text>
</a>
</g>
</g>
<!-- Node1&#45;&gt;Node8 -->
<g id="edge12_Node000001_Node000008" class="edge">
<title>Node1&#45;&gt;Node8</title>
<g id="a_edge12_Node000001_Node000008"><a xlink:title=" ">
<path fill="none" stroke="#63b8ff" d="M97.86,-75.87C122.23,-62.74 166.09,-39.1 194.35,-23.86"/>
<polygon fill="#63b8ff" stroke="#63b8ff" points="196.15,-26.87 203.29,-19.05 192.82,-20.71 196.15,-26.87"/>
</a>
</g>
</g>
<!-- Node3 -->
<g id="Node000003" class="node">
<title>Node3</title>
<g id="a_Node000003"><a xlink:href="../../d4/d36/namespacefl_aa1e0cd66825220bead12cfc1ab7f33c6.html#aa1e0cd66825220bead12cfc1ab7f33c6" target="_top" xlink:title=" ">
<polygon fill="white" stroke="#666666" points="348,-152 286,-152 286,-133 348,-133 348,-152"/>
<text text-anchor="middle" x="317" y="-140" font-family="Helvetica,sans-Serif" font-size="10.00">fl::nblend</text>
</a>
</g>
</g>
<!-- Node2&#45;&gt;Node3 -->
<g id="edge2_Node000002_Node000003" class="edge">
<title>Node2&#45;&gt;Node3</title>
<g id="a_edge2_Node000002_Node000003"><a xlink:title=" ">
<path fill="none" stroke="#63b8ff" d="M250.4,-142.5C258.32,-142.5 267.14,-142.5 275.68,-142.5"/>
<polygon fill="#63b8ff" stroke="#63b8ff" points="275.87,-146 285.87,-142.5 275.87,-139 275.87,-146"/>
</a>
</g>
</g>
<!-- Node4 -->
<g id="Node000004" class="node">
<title>Node4</title>
<g id="a_Node000004"><a xlink:href="../../d5/d98/group___math_ga9a604de042246d6c87fdbfdd5578f377.html#ga9a604de042246d6c87fdbfdd5578f377" target="_top" xlink:title="Blend a variable proportion (0&#45;255) of one byte to another.">
<polygon fill="white" stroke="#666666" points="442,-171 392,-171 392,-152 442,-152 442,-171"/>
<text text-anchor="middle" x="417" y="-159" font-family="Helvetica,sans-Serif" font-size="10.00">blend8</text>
</a>
</g>
</g>
<!-- Node3&#45;&gt;Node4 -->
<g id="edge3_Node000003_Node000004" class="edge">
<title>Node3&#45;&gt;Node4</title>
<g id="a_edge3_Node000003_Node000004"><a xlink:title=" ">
<path fill="none" stroke="#63b8ff" d="M348.2,-148.36C358.86,-150.42 370.91,-152.76 381.87,-154.88"/>
<polygon fill="#63b8ff" stroke="#63b8ff" points="381.47,-158.37 391.95,-156.84 382.8,-151.5 381.47,-158.37"/>
</a>
</g>
</g>
<!-- Node3&#45;&gt;Node5 -->
<g id="edge6_Node000003_Node000005" class="edge">
<title>Node3&#45;&gt;Node5</title>
<g id="a_edge6_Node000003_Node000005"><a xlink:title=" ">
<path fill="none" stroke="#63b8ff" d="M330.26,-152.22C342.89,-161.56 363.56,-175.04 384,-180.5 426.49,-191.86 476.9,-190.33 512.59,-186.89"/>
<polygon fill="#63b8ff" stroke="#63b8ff" points="513.13,-190.35 522.71,-185.82 512.39,-183.39 513.13,-190.35"/>
</a>
</g>
</g>
<!-- Node3&#45;&gt;Node6 -->
<g id="edge7_Node000003_Node000006" class="edge">
<title>Node3&#45;&gt;Node6</title>
<g id="a_edge7_Node000003_Node000006"><a xlink:title=" ">
<path fill="none" stroke="#63b8ff" d="M348.46,-137.69C383.43,-132.16 441.95,-122.92 488.35,-115.58"/>
<polygon fill="#63b8ff" stroke="#63b8ff" points="489.02,-119.02 498.35,-114 487.93,-112.11 489.02,-119.02"/>
</a>
</g>
</g>
<!-- Node4&#45;&gt;Node5 -->
<g id="edge4_Node000004_Node000005" class="edge">
<title>Node4&#45;&gt;Node5</title>
<g id="a_edge4_Node000004_Node000005"><a xlink:title=" ">
<path fill="none" stroke="#63b8ff" d="M442.15,-164.77C461.49,-167.38 489.18,-171.13 512.7,-174.31"/>
<polygon fill="#63b8ff" stroke="#63b8ff" points="512.44,-177.8 522.82,-175.68 513.38,-170.87 512.44,-177.8"/>
</a>
</g>
</g>
<!-- Node4&#45;&gt;Node6 -->
<g id="edge5_Node000004_Node000006" class="edge">
<title>Node4&#45;&gt;Node6</title>
<g id="a_edge5_Node000004_Node000006"><a xlink:title=" ">
<path fill="none" stroke="#63b8ff" d="M441.52,-151.96C464.51,-142.63 499.74,-128.34 525.53,-117.88"/>
<polygon fill="#63b8ff" stroke="#63b8ff" points="526.96,-121.07 534.91,-114.07 524.32,-114.59 526.96,-121.07"/>
</a>
</g>
</g>
<!-- Node7&#45;&gt;Node5 -->
<g id="edge10_Node000007_Node000005" class="edge">
<title>Node7&#45;&gt;Node5</title>
<g id="a_edge10_Node000007_Node000005"><a xlink:title=" ">
<path fill="none" stroke="#63b8ff" d="M432.25,-95.13C456.65,-111.63 506.64,-145.44 535.87,-165.2"/>
<polygon fill="#63b8ff" stroke="#63b8ff" points="533.97,-168.14 544.22,-170.84 537.89,-162.34 533.97,-168.14"/>
</a>
</g>
</g>
<!-- Node7&#45;&gt;Node6 -->
<g id="edge11_Node000007_Node000006" class="edge">
<title>Node7&#45;&gt;Node6</title>
<g id="a_edge11_Node000007_Node000006"><a xlink:title=" ">
<path fill="none" stroke="#63b8ff" d="M450.23,-89.86C458.65,-91 468.11,-92.28 477.84,-93.59"/>
<polygon fill="#63b8ff" stroke="#63b8ff" points="477.67,-97.1 488.05,-94.97 478.61,-90.16 477.67,-97.1"/>
</a>
</g>
</g>
</g>
</svg>
