<?xml version="1.0" encoding="UTF-8" standalone="no"?>
<!DOCTYPE svg PUBLIC "-//W3C//DTD SVG 1.1//EN"
 "http://www.w3.org/Graphics/SVG/1.1/DTD/svg11.dtd">
<!-- Generated by graphviz version 2.43.0 (0)
 -->
<!-- Title: fl::MurmurHash3_x86_32 Pages: 1 -->
<svg width="331pt" height="353pt"
 viewBox="0.00 0.00 331.00 353.00" xmlns="http://www.w3.org/2000/svg" xmlns:xlink="http://www.w3.org/1999/xlink">
<g id="graph0" class="graph" transform="scale(1 1) rotate(0) translate(4 349)">
<title>fl::MurmurHash3_x86_32</title>
<!-- Node1 -->
<g id="Node000001" class="node">
<title>Node1</title>
<g id="a_Node000001"><a xlink:title=" ">
<polygon fill="#999999" stroke="#666666" points="323,-171.5 185,-171.5 185,-152.5 323,-152.5 323,-171.5"/>
<text text-anchor="middle" x="254" y="-159.5" font-family="Helvetica,sans-Serif" font-size="10.00">fl::MurmurHash3_x86_32</text>
</a>
</g>
</g>
<!-- Node2 -->
<g id="Node000002" class="node">
<title>Node2</title>
<g id="a_Node000002"><a xlink:href="../../db/d9b/structfl_1_1_fast_hash_3_01vec2_3_01_t_01_4_01_4_ae2b6e355107ad920ee7174f4ecaa7aef.html#ae2b6e355107ad920ee7174f4ecaa7aef" target="_top" xlink:title=" ">
<polygon fill="white" stroke="#666666" points="130,-345 19,-345 19,-315 130,-315 130,-345"/>
<text text-anchor="start" x="27" y="-333" font-family="Helvetica,sans-Serif" font-size="10.00">fl::FastHash&lt; vec2</text>
<text text-anchor="middle" x="74.5" y="-322" font-family="Helvetica,sans-Serif" font-size="10.00">&lt; T &gt; &gt;::operator()</text>
</a>
</g>
</g>
<!-- Node1&#45;&gt;Node2 -->
<g id="edge1_Node000001_Node000002" class="edge">
<title>Node1&#45;&gt;Node2</title>
<g id="a_edge1_Node000001_Node000002"><a xlink:title=" ">
<path fill="none" stroke="#63b8ff" d="M244.31,-180.84C229.23,-211.51 195.33,-272.19 149,-306 143.25,-310.19 136.74,-313.68 130.01,-316.57"/>
<polygon fill="#63b8ff" stroke="#63b8ff" points="247.54,-182.2 248.7,-171.67 241.22,-179.18 247.54,-182.2"/>
</a>
</g>
</g>
<!-- Node3 -->
<g id="Node000003" class="node">
<title>Node3</title>
<g id="a_Node000003"><a xlink:href="../../d0/d6e/structfl_1_1_hash_3_01double_01_4_a7b4d2bae732af296f463f5519321b9b4.html#a7b4d2bae732af296f463f5519321b9b4" target="_top" xlink:title=" ">
<polygon fill="white" stroke="#666666" points="129,-297 20,-297 20,-267 129,-267 129,-297"/>
<text text-anchor="start" x="28" y="-285" font-family="Helvetica,sans-Serif" font-size="10.00">fl::Hash&lt; double &gt;</text>
<text text-anchor="middle" x="74.5" y="-274" font-family="Helvetica,sans-Serif" font-size="10.00">::operator()</text>
</a>
</g>
</g>
<!-- Node1&#45;&gt;Node3 -->
<g id="edge2_Node000001_Node000003" class="edge">
<title>Node1&#45;&gt;Node3</title>
<g id="a_edge2_Node000001_Node000003"><a xlink:title=" ">
<path fill="none" stroke="#63b8ff" d="M238.58,-179.26C219.93,-200.57 185.49,-236.6 149,-258 142.86,-261.6 136.12,-264.74 129.28,-267.45"/>
<polygon fill="#63b8ff" stroke="#63b8ff" points="241.28,-181.49 245.14,-171.62 235.97,-176.93 241.28,-181.49"/>
</a>
</g>
</g>
<!-- Node4 -->
<g id="Node000004" class="node">
<title>Node4</title>
<g id="a_Node000004"><a xlink:href="../../d1/dc9/structfl_1_1_hash_3_01_f_f_t___args_01_4_a70ad86feadc19aba2acfd0b99fa8b614.html#a70ad86feadc19aba2acfd0b99fa8b614" target="_top" xlink:title=" ">
<polygon fill="white" stroke="#666666" points="129,-249 20,-249 20,-219 129,-219 129,-249"/>
<text text-anchor="start" x="28" y="-237" font-family="Helvetica,sans-Serif" font-size="10.00">fl::Hash&lt; FFT_Args</text>
<text text-anchor="middle" x="74.5" y="-226" font-family="Helvetica,sans-Serif" font-size="10.00"> &gt;::operator()</text>
</a>
</g>
</g>
<!-- Node1&#45;&gt;Node4 -->
<g id="edge3_Node000001_Node000004" class="edge">
<title>Node1&#45;&gt;Node4</title>
<g id="a_edge3_Node000001_Node000004"><a xlink:title=" ">
<path fill="none" stroke="#63b8ff" d="M224.95,-176.03C204.24,-186.12 175.21,-199.71 149,-210 141.13,-213.09 132.68,-216.11 124.41,-218.91"/>
<polygon fill="#63b8ff" stroke="#63b8ff" points="226.69,-179.08 234.12,-171.53 223.6,-172.79 226.69,-179.08"/>
</a>
</g>
</g>
<!-- Node5 -->
<g id="Node000005" class="node">
<title>Node5</title>
<g id="a_Node000005"><a xlink:href="../../df/dc3/structfl_1_1_hash_3_01fl_1_1string_01_4_ac6c54bdf2ac4a67e3370e7be7843868a.html#ac6c54bdf2ac4a67e3370e7be7843868a" target="_top" xlink:title=" ">
<polygon fill="white" stroke="#666666" points="126.5,-201 22.5,-201 22.5,-171 126.5,-171 126.5,-201"/>
<text text-anchor="start" x="30.5" y="-189" font-family="Helvetica,sans-Serif" font-size="10.00">fl::Hash&lt; fl::string</text>
<text text-anchor="middle" x="74.5" y="-178" font-family="Helvetica,sans-Serif" font-size="10.00"> &gt;::operator()</text>
</a>
</g>
</g>
<!-- Node1&#45;&gt;Node5 -->
<g id="edge4_Node000001_Node000005" class="edge">
<title>Node1&#45;&gt;Node5</title>
<g id="a_edge4_Node000001_Node000005"><a xlink:title=" ">
<path fill="none" stroke="#63b8ff" d="M174.8,-172.57C158.47,-174.78 141.66,-177.05 126.62,-179.09"/>
<polygon fill="#63b8ff" stroke="#63b8ff" points="175.44,-176.02 184.88,-171.21 174.5,-169.08 175.44,-176.02"/>
</a>
</g>
</g>
<!-- Node6 -->
<g id="Node000006" class="node">
<title>Node6</title>
<g id="a_Node000006"><a xlink:href="../../d1/ddb/structfl_1_1_hash_3_01fl_1_1_weak_ptr_3_01_t_01_4_01_4_a73a386cacb59063dacc40a132a0ed5c9.html#a73a386cacb59063dacc40a132a0ed5c9" target="_top" xlink:title=" ">
<polygon fill="white" stroke="#666666" points="133,-153 16,-153 16,-123 133,-123 133,-153"/>
<text text-anchor="start" x="24" y="-141" font-family="Helvetica,sans-Serif" font-size="10.00">fl::Hash&lt; fl::WeakPtr</text>
<text text-anchor="middle" x="74.5" y="-130" font-family="Helvetica,sans-Serif" font-size="10.00">&lt; T &gt; &gt;::operator()</text>
</a>
</g>
</g>
<!-- Node1&#45;&gt;Node6 -->
<g id="edge5_Node000001_Node000006" class="edge">
<title>Node1&#45;&gt;Node6</title>
<g id="a_edge5_Node000001_Node000006"><a xlink:title=" ">
<path fill="none" stroke="#63b8ff" d="M174.75,-151.42C160.73,-149.52 146.35,-147.58 133.04,-145.78"/>
<polygon fill="#63b8ff" stroke="#63b8ff" points="174.5,-154.92 184.88,-152.79 175.44,-147.98 174.5,-154.92"/>
</a>
</g>
</g>
<!-- Node7 -->
<g id="Node000007" class="node">
<title>Node7</title>
<g id="a_Node000007"><a xlink:href="../../d6/dfd/structfl_1_1_hash_aea6b044936931820025b1a465b486406.html#aea6b044936931820025b1a465b486406" target="_top" xlink:title=" ">
<polygon fill="white" stroke="#666666" points="149,-104.5 0,-104.5 0,-85.5 149,-85.5 149,-104.5"/>
<text text-anchor="middle" x="74.5" y="-92.5" font-family="Helvetica,sans-Serif" font-size="10.00">fl::Hash&lt; Key &gt;::operator()</text>
</a>
</g>
</g>
<!-- Node1&#45;&gt;Node7 -->
<g id="edge6_Node000001_Node000007" class="edge">
<title>Node1&#45;&gt;Node7</title>
<g id="a_edge6_Node000001_Node000007"><a xlink:title=" ">
<path fill="none" stroke="#63b8ff" d="M225.89,-147.85C205.22,-137.47 175.84,-123.58 149,-114 139.07,-110.46 128.17,-107.27 117.87,-104.57"/>
<polygon fill="#63b8ff" stroke="#63b8ff" points="224.5,-151.07 235,-152.49 227.68,-144.83 224.5,-151.07"/>
</a>
</g>
</g>
<!-- Node8 -->
<g id="Node000008" class="node">
<title>Node8</title>
<g id="a_Node000008"><a xlink:href="../../dd/d98/structfl_1_1_hash_3_01_t_01_5_01_4_a254f441436461c2608be5c98596c81b0.html#a254f441436461c2608be5c98596c81b0" target="_top" xlink:title=" ">
<polygon fill="white" stroke="#666666" points="147,-67.5 2,-67.5 2,-48.5 147,-48.5 147,-67.5"/>
<text text-anchor="middle" x="74.5" y="-55.5" font-family="Helvetica,sans-Serif" font-size="10.00">fl::Hash&lt; T * &gt;::operator()</text>
</a>
</g>
</g>
<!-- Node1&#45;&gt;Node8 -->
<g id="edge7_Node000001_Node000008" class="edge">
<title>Node1&#45;&gt;Node8</title>
<g id="a_edge7_Node000001_Node000008"><a xlink:title=" ">
<path fill="none" stroke="#63b8ff" d="M236.92,-145.01C217.76,-125.73 183.92,-94.7 149,-77 141.48,-73.19 133.12,-70.09 124.82,-67.6"/>
<polygon fill="#63b8ff" stroke="#63b8ff" points="234.49,-147.52 243.97,-152.24 239.5,-142.63 234.49,-147.52"/>
</a>
</g>
</g>
<!-- Node9 -->
<g id="Node000009" class="node">
<title>Node9</title>
<g id="a_Node000009"><a xlink:href="../../d2/d8c/structfl_1_1_hash_3_01vec2_3_01_t_01_4_01_4_a1f22258e978d9f4fc0aea798cdc53a44.html#a1f22258e978d9f4fc0aea798cdc53a44" target="_top" xlink:title=" ">
<polygon fill="white" stroke="#666666" points="132.5,-30 16.5,-30 16.5,0 132.5,0 132.5,-30"/>
<text text-anchor="start" x="24.5" y="-18" font-family="Helvetica,sans-Serif" font-size="10.00">fl::Hash&lt; vec2&lt; T &gt;</text>
<text text-anchor="middle" x="74.5" y="-7" font-family="Helvetica,sans-Serif" font-size="10.00"> &gt;::operator()</text>
</a>
</g>
</g>
<!-- Node1&#45;&gt;Node9 -->
<g id="edge8_Node000001_Node000009" class="edge">
<title>Node1&#45;&gt;Node9</title>
<g id="a_edge8_Node000001_Node000009"><a xlink:title=" ">
<path fill="none" stroke="#63b8ff" d="M241.88,-143.52C224.99,-116.97 190.43,-68.12 149,-40 143.42,-36.21 137.22,-32.95 130.85,-30.16"/>
<polygon fill="#63b8ff" stroke="#63b8ff" points="239.03,-145.57 247.28,-152.22 244.97,-141.88 239.03,-145.57"/>
</a>
</g>
</g>
</g>
</svg>
