<?xml version="1.0" encoding="UTF-8" standalone="no"?>
<!DOCTYPE svg PUBLIC "-//W3C//DTD SVG 1.1//EN"
 "http://www.w3.org/Graphics/SVG/1.1/DTD/svg11.dtd">
<!-- Generated by graphviz version 2.43.0 (0)
 -->
<!-- Title: fl::read_sin32_lut Pages: 1 -->
<!--zoomable 716 -->

<svg id="main" version="1.1" xmlns="http://www.w3.org/2000/svg" xmlns:xlink="http://www.w3.org/1999/xlink" xml:space="preserve" onload="init(evt)">

<style type="text/css"><![CDATA[
.node, .edge {opacity: 0.7;}
.node.selected, .edge.selected {opacity: 1;}
.edge:hover path { stroke: red; }
.edge:hover polygon { stroke: red; fill: red; }
]]></style>

<defs>
  <circle id="rim" cx="0" cy="0" r="7"/>
  <circle id="rim2" cx="0" cy="0" r="3.5"/>
  <g id="zoomPlus">
    <use xlink:href="#rim" fill="#404040"><set attributeName="fill" to="#808080" begin="zoomplus.mouseover" end="zoomplus.mouseout"/></use>
    <path d="M-4,0h8M0,-4v8" fill="none" stroke="white" stroke-width="1.5" pointer-events="none"/>
  </g>
  <g id="zoomMin">
    <use xlink:href="#rim" fill="#404040"><set attributeName="fill" to="#808080" begin="zoomminus.mouseover" end="zoomminus.mouseout"/></use>
    <path d="M-4,0h8" fill="none" stroke="white" stroke-width="1.5" pointer-events="none"/>
  </g>
  <g id="arrowUp" transform="translate(30 24)">
    <use xlink:href="#rim"/>
    <path pointer-events="none" fill="none" stroke="white" stroke-width="1.5" d="M0,-3.0v7 M-2.5,-0.5L0,-3.0L2.5,-0.5"/>
  </g>
  <g id="arrowRight" transform="rotate(90) translate(36 -43)">
    <use xlink:href="#rim"/>
    <path pointer-events="none" fill="none" stroke="white" stroke-width="1.5" d="M0,-3.0v7 M-2.5,-0.5L0,-3.0L2.5,-0.5"/>
  </g>
  <g id="arrowDown" transform="rotate(180) translate(-30 -48)">
    <use xlink:href="#rim"/>
    <path pointer-events="none" fill="none" stroke="white" stroke-width="1.5" d="M0,-3.0v7 M-2.5,-0.5L0,-3.0L2.5,-0.5"/>
  </g>
  <g id="arrowLeft" transform="rotate(270) translate(-36 17)">
    <use xlink:href="#rim"/>
    <path pointer-events="none" fill="none" stroke="white" stroke-width="1.5" d="M0,-3.0v7 M-2.5,-0.5L0,-3.0L2.5,-0.5"/>
  </g>
  <g id="resetDef">
    <use xlink:href="#rim2" fill="#404040"><set attributeName="fill" to="#808080" begin="reset.mouseover" end="reset.mouseout"/></use>
  </g>
</defs>
<script type="application/ecmascript">
var viewWidth = 638;
var viewHeight = 716;
var sectionId = 'dynsection-0';
</script>
<script type="application/ecmascript" xlink:href="../../svg.min.js"/>
<svg id="graph" class="graph">
<g id="viewport">
<title>fl::read_sin32_lut</title>
<!-- Node1 -->
<g id="Node000001" class="node">
<title>Node1</title>
<g id="a_Node000001"><a xlink:title=" ">
<polygon fill="#999999" stroke="#666666" points="630,-263.5 530,-263.5 530,-244.5 630,-244.5 630,-263.5"/>
<text text-anchor="middle" x="580" y="-251.5" font-family="Helvetica,sans-Serif" font-size="10.00">fl::read_sin32_lut</text>
</a>
</g>
</g>
<!-- Node2 -->
<g id="Node000002" class="node">
<title>Node2</title>
<g id="a_Node000002"><a xlink:href="../../d4/d36/namespacefl_a530ae797477506b0949a2cae39010c6a.html#a530ae797477506b0949a2cae39010c6a" target="_top" xlink:title=" ">
<polygon fill="white" stroke="#666666" points="494,-263.5 405,-263.5 405,-244.5 494,-244.5 494,-263.5"/>
<text text-anchor="middle" x="449.5" y="-251.5" font-family="Helvetica,sans-Serif" font-size="10.00">fl::sin32_interp</text>
</a>
</g>
</g>
<!-- Node1&#45;&gt;Node2 -->
<g id="edge1_Node000001_Node000002" class="edge">
<title>Node1&#45;&gt;Node2</title>
<g id="a_edge1_Node000001_Node000002"><a xlink:title=" ">
<path fill="none" stroke="#63b8ff" d="M519.64,-254C511.01,-254 502.26,-254 494.02,-254"/>
<polygon fill="#63b8ff" stroke="#63b8ff" points="519.69,-257.5 529.69,-254 519.69,-250.5 519.69,-257.5"/>
</a>
</g>
</g>
<!-- Node3 -->
<g id="Node000003" class="node">
<title>Node3</title>
<g id="a_Node000003"><a xlink:href="../../d4/d36/namespacefl_a37a484f9e39484372eee81c7a66fad7d.html#a37a484f9e39484372eee81c7a66fad7d" target="_top" xlink:title=" ">
<polygon fill="white" stroke="#666666" points="361,-434.5 306,-434.5 306,-415.5 361,-415.5 361,-434.5"/>
<text text-anchor="middle" x="333.5" y="-422.5" font-family="Helvetica,sans-Serif" font-size="10.00">fl::sin32</text>
</a>
</g>
</g>
<!-- Node2&#45;&gt;Node3 -->
<g id="edge2_Node000002_Node000003" class="edge">
<title>Node2&#45;&gt;Node3</title>
<g id="a_edge2_Node000002_Node000003"><a xlink:title=" ">
<path fill="none" stroke="#63b8ff" d="M436.32,-272.27C412.23,-308.41 359.22,-387.93 340.88,-415.42"/>
<polygon fill="#63b8ff" stroke="#63b8ff" points="439.41,-273.95 442.04,-263.68 433.59,-270.06 439.41,-273.95"/>
</a>
</g>
</g>
<!-- Node47 -->
<g id="Node000047" class="node">
<title>Node47</title>
<g id="a_Node000047"><a xlink:href="../../d4/d36/namespacefl_ab168280957e4bfee3a3976381bd9e663.html#ab168280957e4bfee3a3976381bd9e663" target="_top" xlink:title=" ">
<polygon fill="white" stroke="#666666" points="369,-110.5 298,-110.5 298,-91.5 369,-91.5 369,-110.5"/>
<text text-anchor="middle" x="333.5" y="-98.5" font-family="Helvetica,sans-Serif" font-size="10.00">fl::sincos32</text>
</a>
</g>
</g>
<!-- Node2&#45;&gt;Node47 -->
<g id="edge23_Node000002_Node000047" class="edge">
<title>Node2&#45;&gt;Node47</title>
<g id="a_edge23_Node000002_Node000047"><a xlink:title=" ">
<path fill="none" stroke="#63b8ff" d="M435.29,-236.27C411.07,-203.77 360.34,-135.68 341.63,-110.57"/>
<polygon fill="#63b8ff" stroke="#63b8ff" points="432.59,-238.5 441.37,-244.43 438.2,-234.32 432.59,-238.5"/>
</a>
</g>
</g>
<!-- Node4 -->
<g id="Node000004" class="node">
<title>Node4</title>
<g id="a_Node000004"><a xlink:href="../../d4/d36/namespacefl_a289ad302494249edde0b6b9e28c831f1.html#a289ad302494249edde0b6b9e28c831f1" target="_top" xlink:title=" ">
<polygon fill="#fff0f0" stroke="red" points="225,-638.5 168,-638.5 168,-619.5 225,-619.5 225,-638.5"/>
<text text-anchor="middle" x="196.5" y="-626.5" font-family="Helvetica,sans-Serif" font-size="10.00">fl::cos32</text>
</a>
</g>
</g>
<!-- Node3&#45;&gt;Node4 -->
<g id="edge3_Node000003_Node000004" class="edge">
<title>Node3&#45;&gt;Node4</title>
<g id="a_edge3_Node000003_Node000004"><a xlink:title=" ">
<path fill="none" stroke="#63b8ff" d="M330.73,-445.06C326.29,-483.13 311.21,-566.04 262,-611 251.96,-620.18 237.62,-624.72 225.02,-626.96"/>
<polygon fill="#63b8ff" stroke="#63b8ff" points="334.25,-445.09 331.8,-434.78 327.29,-444.37 334.25,-445.09"/>
</a>
</g>
</g>
<!-- Node32 -->
<g id="Node000032" class="node">
<title>Node32</title>
<g id="a_Node000032"><a xlink:href="../../da/d43/classfl_1_1s12x4_a2ccf70510c1bff9a8fe2df8b862e7cd7.html#a2ccf70510c1bff9a8fe2df8b862e7cd7" target="_top" xlink:title=" ">
<polygon fill="white" stroke="#666666" points="95,-229.5 0,-229.5 0,-210.5 95,-210.5 95,-229.5"/>
<text text-anchor="middle" x="47.5" y="-217.5" font-family="Helvetica,sans-Serif" font-size="10.00">fl::s12x4::sincos</text>
</a>
</g>
</g>
<!-- Node3&#45;&gt;Node32 -->
<g id="edge18_Node000003_Node000032" class="edge">
<title>Node3&#45;&gt;Node32</title>
<g id="a_edge18_Node000003_Node000032"><a xlink:title=" ">
<path fill="none" stroke="#63b8ff" d="M330.73,-405.13C326.3,-368.29 311.28,-289.64 262,-251 214.55,-213.79 142.34,-211.12 95.28,-214.27"/>
<polygon fill="#63b8ff" stroke="#63b8ff" points="327.25,-405.55 331.79,-415.13 334.21,-404.81 327.25,-405.55"/>
</a>
</g>
</g>
<!-- Node33 -->
<g id="Node000033" class="node">
<title>Node33</title>
<g id="a_Node000033"><a xlink:href="../../d0/d64/classfl_1_1s24x8_a1090558d37434e75ebec9b7be15ad6f8.html#a1090558d37434e75ebec9b7be15ad6f8" target="_top" xlink:title=" ">
<polygon fill="white" stroke="#666666" points="95,-192.5 0,-192.5 0,-173.5 95,-173.5 95,-192.5"/>
<text text-anchor="middle" x="47.5" y="-180.5" font-family="Helvetica,sans-Serif" font-size="10.00">fl::s24x8::sincos</text>
</a>
</g>
</g>
<!-- Node3&#45;&gt;Node33 -->
<g id="edge19_Node000003_Node000033" class="edge">
<title>Node3&#45;&gt;Node33</title>
<g id="a_edge19_Node000003_Node000033"><a xlink:title=" ">
<path fill="none" stroke="#63b8ff" d="M332.54,-405.3C331.47,-362.28 322.36,-259.8 262,-210 215.46,-171.6 142.67,-170.9 95.27,-175.62"/>
<polygon fill="#63b8ff" stroke="#63b8ff" points="329.04,-405.37 332.67,-415.33 336.04,-405.28 329.04,-405.37"/>
</a>
</g>
</g>
<!-- Node34 -->
<g id="Node000034" class="node">
<title>Node34</title>
<g id="a_Node000034"><a xlink:href="../../d5/d65/classfl_1_1s4x12_acad7769ca418d2e2ddd2602fcaa41fdb.html#acad7769ca418d2e2ddd2602fcaa41fdb" target="_top" xlink:title=" ">
<polygon fill="white" stroke="#666666" points="95,-704.5 0,-704.5 0,-685.5 95,-685.5 95,-704.5"/>
<text text-anchor="middle" x="47.5" y="-692.5" font-family="Helvetica,sans-Serif" font-size="10.00">fl::s4x12::sincos</text>
</a>
</g>
</g>
<!-- Node3&#45;&gt;Node34 -->
<g id="edge20_Node000003_Node000034" class="edge">
<title>Node3&#45;&gt;Node34</title>
<g id="a_edge20_Node000003_Node000034"><a xlink:title=" ">
<path fill="none" stroke="#63b8ff" d="M329.73,-444.92C321.86,-498.4 297.62,-643.11 262,-673 215.76,-711.81 142.55,-710.31 95.02,-703.98"/>
<polygon fill="#63b8ff" stroke="#63b8ff" points="333.24,-445.1 331.19,-434.7 326.31,-444.1 333.24,-445.1"/>
</a>
</g>
</g>
<!-- Node35 -->
<g id="Node000035" class="node">
<title>Node35</title>
<g id="a_Node000035"><a xlink:href="../../db/dff/classfl_1_1s8x24_adeaa919db76eb9343f509b1564e6504d.html#adeaa919db76eb9343f509b1564e6504d" target="_top" xlink:title=" ">
<polygon fill="white" stroke="#666666" points="95,-648.5 0,-648.5 0,-629.5 95,-629.5 95,-648.5"/>
<text text-anchor="middle" x="47.5" y="-636.5" font-family="Helvetica,sans-Serif" font-size="10.00">fl::s8x24::sincos</text>
</a>
</g>
</g>
<!-- Node3&#45;&gt;Node35 -->
<g id="edge21_Node000003_Node000035" class="edge">
<title>Node3&#45;&gt;Node35</title>
<g id="a_edge21_Node000003_Node000035"><a xlink:title=" ">
<path fill="none" stroke="#63b8ff" d="M333.26,-445.09C333.72,-490.3 327.69,-599.88 262,-648 204.84,-689.88 114.13,-664.26 71.75,-648.55"/>
<polygon fill="#63b8ff" stroke="#63b8ff" points="336.75,-444.74 333.02,-434.82 329.75,-444.9 336.75,-444.74"/>
</a>
</g>
</g>
<!-- Node36 -->
<g id="Node000036" class="node">
<title>Node36</title>
<g id="a_Node000036"><a xlink:href="../../db/d64/classfl_1_1s8x8_aaf0c94331ffe5bd4e0e84c6c0d318a0a.html#aaf0c94331ffe5bd4e0e84c6c0d318a0a" target="_top" xlink:title=" ">
<polygon fill="white" stroke="#666666" points="92,-439.5 3,-439.5 3,-420.5 92,-420.5 92,-439.5"/>
<text text-anchor="middle" x="47.5" y="-427.5" font-family="Helvetica,sans-Serif" font-size="10.00">fl::s8x8::sincos</text>
</a>
</g>
</g>
<!-- Node3&#45;&gt;Node36 -->
<g id="edge22_Node000003_Node000036" class="edge">
<title>Node3&#45;&gt;Node36</title>
<g id="a_edge22_Node000003_Node000036"><a xlink:title=" ">
<path fill="none" stroke="#63b8ff" d="M329.78,-405.19C324.03,-371.89 307.21,-305.54 262,-277 212.77,-245.92 180.99,-247.16 131,-277 76.58,-309.48 55.93,-391.63 50.26,-420.1"/>
<polygon fill="#63b8ff" stroke="#63b8ff" points="326.39,-406.13 331.38,-415.47 333.3,-405.05 326.39,-406.13"/>
</a>
</g>
</g>
<!-- Node37 -->
<g id="Node000037" class="node">
<title>Node37</title>
<g id="a_Node000037"><a xlink:href="../../d4/d36/namespacefl_ac7e0036bfa0fd076b4f57e1aa67e9cb5.html#ac7e0036bfa0fd076b4f57e1aa67e9cb5" target="_top" xlink:title="16&#45;bit sine ease&#45;out function Takes an input value 0&#45;65535 and returns an eased value 0&#45;65535">
<polygon fill="#fff0f0" stroke="red" points="247.5,-601.5 145.5,-601.5 145.5,-582.5 247.5,-582.5 247.5,-601.5"/>
<text text-anchor="middle" x="196.5" y="-589.5" font-family="Helvetica,sans-Serif" font-size="10.00">fl::easeOutSine16</text>
</a>
</g>
</g>
<!-- Node3&#45;&gt;Node37 -->
<g id="edge9_Node000003_Node000037" class="edge">
<title>Node3&#45;&gt;Node37</title>
<g id="a_edge9_Node000003_Node000037"><a xlink:title=" ">
<path fill="none" stroke="#63b8ff" d="M328.7,-444.6C321.48,-476.54 302.71,-539.68 262,-574 257.73,-577.6 252.8,-580.48 247.6,-582.79"/>
<polygon fill="#63b8ff" stroke="#63b8ff" points="332.15,-445.21 330.79,-434.7 325.3,-443.77 332.15,-445.21"/>
</a>
</g>
</g>
<!-- Node39 -->
<g id="Node000039" class="node">
<title>Node39</title>
<g id="a_Node000039"><a xlink:href="../../d1/d93/classfl_1_1fixed__point__base_a4d23162b801ffe3e4870de84d93ff3ef.html#a4d23162b801ffe3e4870de84d93ff3ef" target="_top" xlink:title=" ">
<polygon fill="white" stroke="#666666" points="262,-564.5 131,-564.5 131,-545.5 262,-545.5 262,-564.5"/>
<text text-anchor="middle" x="196.5" y="-552.5" font-family="Helvetica,sans-Serif" font-size="10.00">fl::fixed_point_base::sin</text>
</a>
</g>
</g>
<!-- Node3&#45;&gt;Node39 -->
<g id="edge10_Node000003_Node000039" class="edge">
<title>Node3&#45;&gt;Node39</title>
<g id="a_edge10_Node000003_Node000039"><a xlink:title=" ">
<path fill="none" stroke="#63b8ff" d="M325.47,-444.33C315.34,-469.46 294.24,-512.97 262,-537 257.43,-540.4 252.25,-543.17 246.86,-545.4"/>
<polygon fill="#63b8ff" stroke="#63b8ff" points="328.82,-445.38 329.14,-434.79 322.29,-442.87 328.82,-445.38"/>
</a>
</g>
</g>
<!-- Node40 -->
<g id="Node000040" class="node">
<title>Node40</title>
<g id="a_Node000040"><a xlink:href="../../da/d43/classfl_1_1s12x4_aacee9923b49eb1ba41b56a029e84bbea.html#aacee9923b49eb1ba41b56a029e84bbea" target="_top" xlink:title=" ">
<polygon fill="white" stroke="#666666" points="235.5,-527.5 157.5,-527.5 157.5,-508.5 235.5,-508.5 235.5,-527.5"/>
<text text-anchor="middle" x="196.5" y="-515.5" font-family="Helvetica,sans-Serif" font-size="10.00">fl::s12x4::sin</text>
</a>
</g>
</g>
<!-- Node3&#45;&gt;Node40 -->
<g id="edge11_Node000003_Node000040" class="edge">
<title>Node3&#45;&gt;Node40</title>
<g id="a_edge11_Node000003_Node000040"><a xlink:title=" ">
<path fill="none" stroke="#63b8ff" d="M319.98,-443.2C307.29,-460.31 286.12,-485.4 262,-500 254.04,-504.82 244.76,-508.38 235.76,-511"/>
<polygon fill="#63b8ff" stroke="#63b8ff" points="323.14,-444.8 326.13,-434.64 317.45,-440.72 323.14,-444.8"/>
</a>
</g>
</g>
<!-- Node41 -->
<g id="Node000041" class="node">
<title>Node41</title>
<g id="a_Node000041"><a xlink:href="../../d9/d9f/classfl_1_1s16x16_a49cebdd97bfa32084fd014aeb7f806ff.html#a49cebdd97bfa32084fd014aeb7f806ff" target="_top" xlink:title=" ">
<polygon fill="white" stroke="#666666" points="238.5,-490.5 154.5,-490.5 154.5,-471.5 238.5,-471.5 238.5,-490.5"/>
<text text-anchor="middle" x="196.5" y="-478.5" font-family="Helvetica,sans-Serif" font-size="10.00">fl::s16x16::sin</text>
</a>
</g>
</g>
<!-- Node3&#45;&gt;Node41 -->
<g id="edge12_Node000003_Node000041" class="edge">
<title>Node3&#45;&gt;Node41</title>
<g id="a_edge12_Node000003_Node000041"><a xlink:title=" ">
<path fill="none" stroke="#63b8ff" d="M308.07,-439.91C294.79,-447.57 277.88,-456.6 262,-463 254.13,-466.17 245.5,-469 237.19,-471.42"/>
<polygon fill="#63b8ff" stroke="#63b8ff" points="310.18,-442.73 317.03,-434.64 306.63,-436.69 310.18,-442.73"/>
</a>
</g>
</g>
<!-- Node42 -->
<g id="Node000042" class="node">
<title>Node42</title>
<g id="a_Node000042"><a xlink:href="../../d0/d64/classfl_1_1s24x8_a77918a7f1d5f03658c8e3f754711bfc1.html#a77918a7f1d5f03658c8e3f754711bfc1" target="_top" xlink:title=" ">
<polygon fill="white" stroke="#666666" points="235.5,-453.5 157.5,-453.5 157.5,-434.5 235.5,-434.5 235.5,-453.5"/>
<text text-anchor="middle" x="196.5" y="-441.5" font-family="Helvetica,sans-Serif" font-size="10.00">fl::s24x8::sin</text>
</a>
</g>
</g>
<!-- Node3&#45;&gt;Node42 -->
<g id="edge13_Node000003_Node000042" class="edge">
<title>Node3&#45;&gt;Node42</title>
<g id="a_edge13_Node000003_Node000042"><a xlink:title=" ">
<path fill="none" stroke="#63b8ff" d="M295.91,-430.15C277.23,-432.78 254.51,-435.98 235.62,-438.64"/>
<polygon fill="#63b8ff" stroke="#63b8ff" points="296.41,-433.61 305.83,-428.75 295.44,-426.68 296.41,-433.61"/>
</a>
</g>
</g>
<!-- Node43 -->
<g id="Node000043" class="node">
<title>Node43</title>
<g id="a_Node000043"><a xlink:href="../../d5/d65/classfl_1_1s4x12_a27de51cd7343382a2b0e0a6311842542.html#a27de51cd7343382a2b0e0a6311842542" target="_top" xlink:title=" ">
<polygon fill="white" stroke="#666666" points="235.5,-416.5 157.5,-416.5 157.5,-397.5 235.5,-397.5 235.5,-416.5"/>
<text text-anchor="middle" x="196.5" y="-404.5" font-family="Helvetica,sans-Serif" font-size="10.00">fl::s4x12::sin</text>
</a>
</g>
</g>
<!-- Node3&#45;&gt;Node43 -->
<g id="edge14_Node000003_Node000043" class="edge">
<title>Node3&#45;&gt;Node43</title>
<g id="a_edge14_Node000003_Node000043"><a xlink:title=" ">
<path fill="none" stroke="#63b8ff" d="M295.91,-420.12C277.23,-417.63 254.51,-414.6 235.62,-412.08"/>
<polygon fill="#63b8ff" stroke="#63b8ff" points="295.45,-423.59 305.83,-421.44 296.38,-416.65 295.45,-423.59"/>
</a>
</g>
</g>
<!-- Node44 -->
<g id="Node000044" class="node">
<title>Node44</title>
<g id="a_Node000044"><a xlink:href="../../db/dff/classfl_1_1s8x24_aafd985113ad3f36bb8a9c3e665a9a4da.html#aafd985113ad3f36bb8a9c3e665a9a4da" target="_top" xlink:title=" ">
<polygon fill="white" stroke="#666666" points="235.5,-379.5 157.5,-379.5 157.5,-360.5 235.5,-360.5 235.5,-379.5"/>
<text text-anchor="middle" x="196.5" y="-367.5" font-family="Helvetica,sans-Serif" font-size="10.00">fl::s8x24::sin</text>
</a>
</g>
</g>
<!-- Node3&#45;&gt;Node44 -->
<g id="edge15_Node000003_Node000044" class="edge">
<title>Node3&#45;&gt;Node44</title>
<g id="a_edge15_Node000003_Node000044"><a xlink:title=" ">
<path fill="none" stroke="#63b8ff" d="M306.89,-410.47C293.74,-403.38 277.31,-395.1 262,-389 253.22,-385.5 243.53,-382.31 234.4,-379.59"/>
<polygon fill="#63b8ff" stroke="#63b8ff" points="305.37,-413.62 315.82,-415.36 308.73,-407.49 305.37,-413.62"/>
</a>
</g>
</g>
<!-- Node45 -->
<g id="Node000045" class="node">
<title>Node45</title>
<g id="a_Node000045"><a xlink:href="../../db/d64/classfl_1_1s8x8_a5f2040b84747700e7385ce384cdebbb5.html#a5f2040b84747700e7385ce384cdebbb5" target="_top" xlink:title=" ">
<polygon fill="white" stroke="#666666" points="232.5,-342.5 160.5,-342.5 160.5,-323.5 232.5,-323.5 232.5,-342.5"/>
<text text-anchor="middle" x="196.5" y="-330.5" font-family="Helvetica,sans-Serif" font-size="10.00">fl::s8x8::sin</text>
</a>
</g>
</g>
<!-- Node3&#45;&gt;Node45 -->
<g id="edge16_Node000003_Node000045" class="edge">
<title>Node3&#45;&gt;Node45</title>
<g id="a_edge16_Node000003_Node000045"><a xlink:title=" ">
<path fill="none" stroke="#63b8ff" d="M319.62,-407.1C306.8,-390.52 285.65,-366.33 262,-352 253.11,-346.62 242.61,-342.68 232.69,-339.84"/>
<polygon fill="#63b8ff" stroke="#63b8ff" points="317.06,-409.52 325.86,-415.42 322.66,-405.32 317.06,-409.52"/>
</a>
</g>
</g>
<!-- Node46 -->
<g id="Node000046" class="node">
<title>Node46</title>
<g id="a_Node000046"><a xlink:href="../../d4/d36/namespacefl_a5d00632e7615d8d318c4c8178f0e0f46.html#a5d00632e7615d8d318c4c8178f0e0f46" target="_top" xlink:title=" ">
<polygon fill="white" stroke="#666666" points="230.5,-305.5 162.5,-305.5 162.5,-286.5 230.5,-286.5 230.5,-305.5"/>
<text text-anchor="middle" x="196.5" y="-293.5" font-family="Helvetica,sans-Serif" font-size="10.00">fl::sin16lut</text>
</a>
</g>
</g>
<!-- Node3&#45;&gt;Node46 -->
<g id="edge17_Node000003_Node000046" class="edge">
<title>Node3&#45;&gt;Node46</title>
<g id="a_edge17_Node000003_Node000046"><a xlink:title=" ">
<path fill="none" stroke="#63b8ff" d="M325.43,-405.85C315.24,-380.94 294.08,-337.81 262,-314 252.94,-307.28 241.49,-303.07 230.76,-300.43"/>
<polygon fill="#63b8ff" stroke="#63b8ff" points="322.22,-407.25 329.12,-415.3 328.74,-404.71 322.22,-407.25"/>
</a>
</g>
</g>
<!-- Node4&#45;&gt;Node32 -->
<g id="edge4_Node000004_Node000032" class="edge">
<title>Node4&#45;&gt;Node32</title>
<g id="a_edge4_Node000004_Node000032"><a xlink:title=" ">
<path fill="none" stroke="#63b8ff" d="M157.95,-625.8C147.94,-623.18 137.99,-618.67 131,-611 70.47,-544.55 113.59,-499.94 95,-412 80.11,-341.53 58.36,-257.48 51.02,-229.54"/>
<polygon fill="#63b8ff" stroke="#63b8ff" points="157.36,-629.25 167.86,-627.84 158.77,-622.4 157.36,-629.25"/>
</a>
</g>
</g>
<!-- Node4&#45;&gt;Node33 -->
<g id="edge5_Node000004_Node000033" class="edge">
<title>Node4&#45;&gt;Node33</title>
<g id="a_edge5_Node000004_Node000033"><a xlink:title=" ">
<path fill="none" stroke="#63b8ff" d="M157.74,-626.26C147.64,-623.66 137.69,-619.05 131,-611 72.56,-540.64 149.95,-274.11 95,-201 92.5,-197.68 89.31,-194.97 85.76,-192.76"/>
<polygon fill="#63b8ff" stroke="#63b8ff" points="157.29,-629.74 167.78,-628.24 158.64,-622.87 157.29,-629.74"/>
</a>
</g>
</g>
<!-- Node4&#45;&gt;Node34 -->
<g id="edge6_Node000004_Node000034" class="edge">
<title>Node4&#45;&gt;Node34</title>
<g id="a_edge6_Node000004_Node000034"><a xlink:title=" ">
<path fill="none" stroke="#63b8ff" d="M164.67,-642.84C136.26,-655.6 94.84,-674.19 69.9,-685.39"/>
<polygon fill="#63b8ff" stroke="#63b8ff" points="166.44,-645.89 174.12,-638.6 163.57,-639.5 166.44,-645.89"/>
</a>
</g>
</g>
<!-- Node4&#45;&gt;Node35 -->
<g id="edge7_Node000004_Node000035" class="edge">
<title>Node4&#45;&gt;Node35</title>
<g id="a_edge7_Node000004_Node000035"><a xlink:title=" ">
<path fill="none" stroke="#63b8ff" d="M157.73,-631.57C138.64,-632.87 115.3,-634.46 95.1,-635.83"/>
<polygon fill="#63b8ff" stroke="#63b8ff" points="158.11,-635.05 167.85,-630.88 157.64,-628.07 158.11,-635.05"/>
</a>
</g>
</g>
<!-- Node4&#45;&gt;Node36 -->
<g id="edge8_Node000004_Node000036" class="edge">
<title>Node4&#45;&gt;Node36</title>
<g id="a_edge8_Node000004_Node000036"><a xlink:title=" ">
<path fill="none" stroke="#63b8ff" d="M158.03,-624.34C148.39,-621.67 138.61,-617.51 131,-611 75.1,-563.18 55.11,-469.64 49.97,-439.56"/>
<polygon fill="#63b8ff" stroke="#63b8ff" points="157.39,-627.78 167.92,-626.6 158.96,-620.96 157.39,-627.78"/>
</a>
</g>
</g>
<!-- Node48 -->
<g id="Node000048" class="node">
<title>Node48</title>
<g id="a_Node000048"><a xlink:href="../../d3/db2/classfl_1_1_chasing___spirals___q31___s_i_m_d_a33475dcb48cff5ab0843b9d8cb1594f3.html#a33475dcb48cff5ab0843b9d8cb1594f3" target="_top" xlink:title=" ">
<polygon fill="white" stroke="#666666" points="249.5,-116 143.5,-116 143.5,-86 249.5,-86 249.5,-116"/>
<text text-anchor="start" x="151.5" y="-104" font-family="Helvetica,sans-Serif" font-size="10.00">fl::Chasing_Spirals</text>
<text text-anchor="middle" x="196.5" y="-93" font-family="Helvetica,sans-Serif" font-size="10.00">_Q31_SIMD::draw</text>
</a>
</g>
</g>
<!-- Node47&#45;&gt;Node48 -->
<g id="edge24_Node000047_Node000048" class="edge">
<title>Node47&#45;&gt;Node48</title>
<g id="a_edge24_Node000047_Node000048"><a xlink:title=" ">
<path fill="none" stroke="#63b8ff" d="M287.43,-101C275.34,-101 262.17,-101 249.73,-101"/>
<polygon fill="#63b8ff" stroke="#63b8ff" points="287.73,-104.5 297.73,-101 287.73,-97.5 287.73,-104.5"/>
</a>
</g>
</g>
<!-- Node49 -->
<g id="Node000049" class="node">
<title>Node49</title>
<g id="a_Node000049"><a xlink:href="../../d4/d36/namespacefl_a6291b8d2d09d5f814b0a4314a2d6ed71.html#a6291b8d2d09d5f814b0a4314a2d6ed71" target="_top" xlink:title=" ">
<polygon fill="#fff0f0" stroke="red" points="250,-67.5 143,-67.5 143,-48.5 250,-48.5 250,-67.5"/>
<text text-anchor="middle" x="196.5" y="-55.5" font-family="Helvetica,sans-Serif" font-size="10.00">fl::render_value_fp</text>
</a>
</g>
</g>
<!-- Node47&#45;&gt;Node49 -->
<g id="edge25_Node000047_Node000049" class="edge">
<title>Node47&#45;&gt;Node49</title>
<g id="a_edge25_Node000047_Node000049"><a xlink:title=" ">
<path fill="none" stroke="#63b8ff" d="M295.57,-88.11C284.78,-84.43 272.94,-80.47 262,-77 251.99,-73.82 241.04,-70.53 231.06,-67.6"/>
<polygon fill="#63b8ff" stroke="#63b8ff" points="294.54,-91.45 305.13,-91.39 296.81,-84.83 294.54,-91.45"/>
</a>
</g>
</g>
<!-- Node103 -->
<g id="Node000103" class="node">
<title>Node103</title>
<g id="a_Node000103"><a xlink:href="../../d1/d93/classfl_1_1fixed__point__base_a0b3395eabdf0271c742333b767178473.html#a0b3395eabdf0271c742333b767178473" target="_top" xlink:title=" ">
<polygon fill="white" stroke="#666666" points="251.5,-30 141.5,-30 141.5,0 251.5,0 251.5,-30"/>
<text text-anchor="start" x="149.5" y="-18" font-family="Helvetica,sans-Serif" font-size="10.00">fl::fixed_point_base</text>
<text text-anchor="middle" x="196.5" y="-7" font-family="Helvetica,sans-Serif" font-size="10.00">::sincos</text>
</a>
</g>
</g>
<!-- Node47&#45;&gt;Node103 -->
<g id="edge26_Node000047_Node000103" class="edge">
<title>Node47&#45;&gt;Node103</title>
<g id="a_edge26_Node000047_Node000103"><a xlink:title=" ">
<path fill="none" stroke="#63b8ff" d="M316.72,-84.04C303.25,-70.37 282.82,-51.44 262,-39 256.46,-35.69 250.39,-32.71 244.26,-30.06"/>
<polygon fill="#63b8ff" stroke="#63b8ff" points="314.33,-86.61 323.79,-91.39 319.38,-81.75 314.33,-86.61"/>
</a>
</g>
</g>
<!-- Node104 -->
<g id="Node000104" class="node">
<title>Node104</title>
<g id="a_Node000104"><a xlink:href="../../d9/d9f/classfl_1_1s16x16_a16358cb4db9d9056cc85ea036c5ef1e4.html#a16358cb4db9d9056cc85ea036c5ef1e4" target="_top" xlink:title=" ">
<polygon fill="#fff0f0" stroke="red" points="247,-153.5 146,-153.5 146,-134.5 247,-134.5 247,-153.5"/>
<text text-anchor="middle" x="196.5" y="-141.5" font-family="Helvetica,sans-Serif" font-size="10.00">fl::s16x16::sincos</text>
</a>
</g>
</g>
<!-- Node47&#45;&gt;Node104 -->
<g id="edge27_Node000047_Node000104" class="edge">
<title>Node47&#45;&gt;Node104</title>
<g id="a_edge27_Node000047_Node000104"><a xlink:title=" ">
<path fill="none" stroke="#63b8ff" d="M295.57,-113.89C284.78,-117.57 272.94,-121.53 262,-125 251.99,-128.18 241.04,-131.47 231.06,-134.4"/>
<polygon fill="#63b8ff" stroke="#63b8ff" points="296.81,-117.17 305.13,-110.61 294.54,-110.55 296.81,-117.17"/>
</a>
</g>
</g>
</g>
</svg>

<g id="navigator" transform="translate(0 0)" fill="#404254">
  <rect fill="#f2f5e9" fill-opacity="0.5" stroke="#606060" stroke-width=".5" x="0" y="0" width="60" height="60"/>
  <use id="zoomplus" xlink:href="#zoomPlus" x="17" y="9" onmousedown="handleZoom(evt,'in')"/>
  <use id="zoomminus" xlink:href="#zoomMin" x="42" y="9" onmousedown="handleZoom(evt,'out')"/>
  <use id="reset" xlink:href="#resetDef" x="30" y="36" onmousedown="handleReset()"/>
   <use id="arrowup" xlink:href="#arrowUp" x="0" y="0" onmousedown="handlePan(0,-1)"/>
  <use id="arrowright" xlink:href="#arrowRight" x="0" y="0" onmousedown="handlePan(1,0)"/>
  <use id="arrowdown" xlink:href="#arrowDown" x="0" y="0" onmousedown="handlePan(0,1)"/>
  <use id="arrowleft" xlink:href="#arrowLeft" x="0" y="0" onmousedown="handlePan(-1,0)"/>
</g>
<svg viewBox="0 0 15 15" width="100%" height="30px" preserveAspectRatio="xMaxYMin meet">
 <g id="arrow_out" transform="scale(0.3 0.3)">
  <a xlink:href="namespacefl_a35f35403e888950d6c84697f2063c984_a35f35403e888950d6c84697f2063c984_icgraph_org.svg" target="_base">
   <rect id="button" ry="5" rx="5" y="6" x="6" height="38" width="38"
        fill="#f2f5e9" fill-opacity="0.5" stroke="#606060" stroke-width="1.0"/>
   <path id="arrow"
     d="M 11.500037,31.436501 C 11.940474,20.09759 22.043105,11.32322 32.158766,21.979434 L 37.068811,17.246167 C 37.068811,17.246167 37.088388,32 37.088388,32 L 22.160133,31.978069 C 22.160133,31.978069 26.997745,27.140456 26.997745,27.140456 C 18.528582,18.264221 13.291696,25.230495 11.500037,31.436501 z"
     style="fill:#404040;"/>
  </a>
 </g>
</svg>

<style type='text/css'>
<![CDATA[
[data-mouse-over-selected='false'] { opacity: 0.7; }
[data-mouse-over-selected='true']  { opacity: 1.0; }
]]>
</style>
<script type="application/ecmascript"><![CDATA[
document.addEventListener('DOMContentLoaded', (event) => {
  highlightEdges();
  highlightAdjacentNodes();
});
]]></script>
</svg>
