<?xml version="1.0" encoding="UTF-8" standalone="no"?>
<!DOCTYPE svg PUBLIC "-//W3C//DTD SVG 1.1//EN"
 "http://www.w3.org/Graphics/SVG/1.1/DTD/svg11.dtd">
<!-- Generated by graphviz version 2.43.0 (0)
 -->
<!-- Title: fl::time_alpha8 Pages: 1 -->
<svg width="277pt" height="76pt"
 viewBox="0.00 0.00 277.00 75.50" xmlns="http://www.w3.org/2000/svg" xmlns:xlink="http://www.w3.org/1999/xlink">
<g id="graph0" class="graph" transform="scale(1 1) rotate(0) translate(4 71.5)">
<title>fl::time_alpha8</title>
<!-- Node1 -->
<g id="Node000001" class="node">
<title>Node1</title>
<g id="a_Node000001"><a xlink:title=" ">
<polygon fill="#999999" stroke="#666666" points="269,-40 180,-40 180,-21 269,-21 269,-40"/>
<text text-anchor="middle" x="224.5" y="-28" font-family="Helvetica,sans-Serif" font-size="10.00">fl::time_alpha8</text>
</a>
</g>
</g>
<!-- Node2 -->
<g id="Node000002" class="node">
<title>Node2</title>
<g id="a_Node000002"><a xlink:href="../../d8/d62/classfl_1_1_time_clamped_transition_a08a35e0e5d53cf2102d244d8ff93ad4c.html#a08a35e0e5d53cf2102d244d8ff93ad4c" target="_top" xlink:title=" ">
<polygon fill="white" stroke="#666666" points="144,-67.5 0,-67.5 0,-37.5 144,-37.5 144,-67.5"/>
<text text-anchor="start" x="8" y="-55.5" font-family="Helvetica,sans-Serif" font-size="10.00">fl::TimeClampedTransition</text>
<text text-anchor="middle" x="72" y="-44.5" font-family="Helvetica,sans-Serif" font-size="10.00">::update8</text>
</a>
</g>
</g>
<!-- Node1&#45;&gt;Node2 -->
<g id="edge1_Node000001_Node000002" class="edge">
<title>Node1&#45;&gt;Node2</title>
<g id="a_edge1_Node000001_Node000002"><a xlink:title=" ">
<path fill="none" stroke="#63b8ff" d="M170,-38.32C161.64,-39.54 152.9,-40.82 144.22,-42.09"/>
<polygon fill="#63b8ff" stroke="#63b8ff" points="170.58,-41.77 179.97,-36.86 169.57,-34.85 170.58,-41.77"/>
</a>
</g>
</g>
<!-- Node3 -->
<g id="Node000003" class="node">
<title>Node3</title>
<g id="a_Node000003"><a xlink:href="../../d0/d9d/classfl_1_1_time_ramp_aa060cb7edcafe345e03bfac190e98fe4.html#aa060cb7edcafe345e03bfac190e98fe4" target="_top" xlink:title="Compute current 0–255 output based on how much time has elapsed since trigger().">
<polygon fill="white" stroke="#666666" points="136,-19 8,-19 8,0 136,0 136,-19"/>
<text text-anchor="middle" x="72" y="-7" font-family="Helvetica,sans-Serif" font-size="10.00">fl::TimeRamp::update8</text>
</a>
</g>
</g>
<!-- Node1&#45;&gt;Node3 -->
<g id="edge2_Node000001_Node000003" class="edge">
<title>Node1&#45;&gt;Node3</title>
<g id="a_edge2_Node000001_Node000003"><a xlink:title=" ">
<path fill="none" stroke="#63b8ff" d="M169.73,-23C158.81,-21.47 147.23,-19.86 136.03,-18.29"/>
<polygon fill="#63b8ff" stroke="#63b8ff" points="169.58,-26.51 179.97,-24.43 170.55,-19.58 169.58,-26.51"/>
</a>
</g>
</g>
</g>
</svg>
