<?xml version="1.0" encoding="UTF-8" standalone="no"?>
<!DOCTYPE svg PUBLIC "-//W3C//DTD SVG 1.1//EN"
 "http://www.w3.org/Graphics/SVG/1.1/DTD/svg11.dtd">
<!-- Generated by graphviz version 2.43.0 (0)
 -->
<!-- Title: fl::ColorFromPalette Pages: 1 -->
<svg width="604pt" height="292pt"
 viewBox="0.00 0.00 604.00 292.00" xmlns="http://www.w3.org/2000/svg" xmlns:xlink="http://www.w3.org/1999/xlink">
<g id="graph0" class="graph" transform="scale(1 1) rotate(0) translate(4 288)">
<title>fl::ColorFromPalette</title>
<!-- Node1 -->
<g id="Node000001" class="node">
<title>Node1</title>
<g id="a_Node000001"><a xlink:title=" ">
<polygon fill="#999999" stroke="#666666" points="113,-132 0,-132 0,-113 113,-113 113,-132"/>
<text text-anchor="middle" x="56.5" y="-120" font-family="Helvetica,sans-Serif" font-size="10.00">fl::ColorFromPalette</text>
</a>
</g>
</g>
<!-- Node2 -->
<g id="Node000002" class="node">
<title>Node2</title>
<g id="a_Node000002"><a xlink:href="../../d4/d36/namespacefl_a924fc8748f53389e55fdc63bfc14b805.html#a924fc8748f53389e55fdc63bfc14b805" target="_top" xlink:title=" ">
<polygon fill="white" stroke="#666666" points="217,-218 161,-218 161,-199 217,-199 217,-218"/>
<text text-anchor="middle" x="189" y="-206" font-family="Helvetica,sans-Serif" font-size="10.00">fl::blend</text>
</a>
</g>
</g>
<!-- Node1&#45;&gt;Node2 -->
<g id="edge1_Node000001_Node000002" class="edge">
<title>Node1&#45;&gt;Node2</title>
<g id="a_edge1_Node000001_Node000002"><a xlink:title=" ">
<path fill="none" stroke="#63b8ff" d="M71.96,-132.03C94.5,-146.88 138.19,-175.68 165.06,-193.38"/>
<polygon fill="#63b8ff" stroke="#63b8ff" points="163.19,-196.35 173.47,-198.93 167.05,-190.5 163.19,-196.35"/>
</a>
</g>
</g>
<!-- Node5 -->
<g id="Node000005" class="node">
<title>Node5</title>
<g id="a_Node000005"><a xlink:href="../../d0/da5/group___scaling_dirty_ga3fade00fb4cf5b937b973128198a7a79.html#ga3fade00fb4cf5b937b973128198a7a79" target="_top" xlink:title="Clean up the r1 register after a series of *LEAVING_R1_DIRTY calls.">
<polygon fill="white" stroke="#666666" points="559,-208 486,-208 486,-189 559,-189 559,-208"/>
<text text-anchor="middle" x="522.5" y="-196" font-family="Helvetica,sans-Serif" font-size="10.00">cleanup_R1</text>
</a>
</g>
</g>
<!-- Node1&#45;&gt;Node5 -->
<g id="edge8_Node000001_Node000005" class="edge">
<title>Node1&#45;&gt;Node5</title>
<g id="a_edge8_Node000001_Node000005"><a xlink:title=" ">
<path fill="none" stroke="#63b8ff" d="M101.16,-132.06C116.28,-135.23 133.35,-138.68 149,-141.5 266.28,-162.63 405.25,-182.55 475.67,-192.28"/>
<polygon fill="#63b8ff" stroke="#63b8ff" points="475.57,-195.8 485.96,-193.7 476.53,-188.87 475.57,-195.8"/>
</a>
</g>
</g>
<!-- Node6 -->
<g id="Node000006" class="node">
<title>Node6</title>
<g id="a_Node000006"><a xlink:href="../../d0/da5/group___scaling_dirty_ga7386235cada3aca429b189681d2ec56d.html#ga7386235cada3aca429b189681d2ec56d" target="_top" xlink:title="This version of scale8() does not clean up the R1 register on AVR.">
<polygon fill="white" stroke="#666666" points="596,-284 449,-284 449,-265 596,-265 596,-284"/>
<text text-anchor="middle" x="522.5" y="-272" font-family="Helvetica,sans-Serif" font-size="10.00">scale8_LEAVING_R1_DIRTY</text>
</a>
</g>
</g>
<!-- Node1&#45;&gt;Node6 -->
<g id="edge13_Node000001_Node000006" class="edge">
<title>Node1&#45;&gt;Node6</title>
<g id="a_edge13_Node000001_Node000006"><a xlink:title=" ">
<path fill="none" stroke="#63b8ff" d="M62.92,-132.16C75.25,-153.17 107.55,-203.06 149,-227.5 237.84,-279.9 359.17,-285.48 438.88,-282.1"/>
<polygon fill="#63b8ff" stroke="#63b8ff" points="439.05,-285.59 448.88,-281.62 438.72,-278.6 439.05,-285.59"/>
</a>
</g>
</g>
<!-- Node7 -->
<g id="Node000007" class="node">
<title>Node7</title>
<g id="a_Node000007"><a xlink:href="../../d4/d36/namespacefl_a8ef00cea89dd1023f79e4d6d33883a40.html#a8ef00cea89dd1023f79e4d6d33883a40" target="_top" xlink:title="Helper function to divide a number by 16, aka four logical shift right (LSR)&#39;s.">
<polygon fill="white" stroke="#666666" points="215.5,-132 162.5,-132 162.5,-113 215.5,-113 215.5,-132"/>
<text text-anchor="middle" x="189" y="-120" font-family="Helvetica,sans-Serif" font-size="10.00">fl::lsrX4</text>
</a>
</g>
</g>
<!-- Node1&#45;&gt;Node7 -->
<g id="edge9_Node000001_Node000007" class="edge">
<title>Node1&#45;&gt;Node7</title>
<g id="a_edge9_Node000001_Node000007"><a xlink:title=" ">
<path fill="none" stroke="#63b8ff" d="M113.22,-122.5C126.4,-122.5 140.11,-122.5 152.14,-122.5"/>
<polygon fill="#63b8ff" stroke="#63b8ff" points="152.22,-126 162.22,-122.5 152.22,-119 152.22,-126"/>
</a>
</g>
</g>
<!-- Node8 -->
<g id="Node000008" class="node">
<title>Node8</title>
<g id="a_Node000008"><a xlink:href="../../d6/d19/group___linear_interpolation_gaf65357c7aeca9778e5a2f80a6bac2b5d.html#gaf65357c7aeca9778e5a2f80a6bac2b5d" target="_top" xlink:title="Map from one full&#45;range 8&#45;bit value into a narrower range of 8&#45;bit values, possibly a range of hues.">
<polygon fill="white" stroke="#666666" points="211,-56 167,-56 167,-37 211,-37 211,-56"/>
<text text-anchor="middle" x="189" y="-44" font-family="Helvetica,sans-Serif" font-size="10.00">map8</text>
</a>
</g>
</g>
<!-- Node1&#45;&gt;Node8 -->
<g id="edge10_Node000001_Node000008" class="edge">
<title>Node1&#45;&gt;Node8</title>
<g id="a_edge10_Node000001_Node000008"><a xlink:title=" ">
<path fill="none" stroke="#63b8ff" d="M74.03,-112.87C96.38,-99.85 136.47,-76.51 162.65,-61.26"/>
<polygon fill="#63b8ff" stroke="#63b8ff" points="164.73,-64.1 171.61,-56.05 161.2,-58.06 164.73,-64.1"/>
</a>
</g>
</g>
<!-- Node9 -->
<g id="Node000009" class="node">
<title>Node9</title>
<g id="a_Node000009"><a xlink:href="../../d0/da8/group___scaling_gad7535ccda9c92470c4e6ee0265585555.html#gad7535ccda9c92470c4e6ee0265585555" target="_top" xlink:title="Scale one byte by a second one, which is treated as the numerator of a fraction whose denominator is ...">
<polygon fill="white" stroke="#666666" points="320,-75 272,-75 272,-56 320,-56 320,-75"/>
<text text-anchor="middle" x="296" y="-63" font-family="Helvetica,sans-Serif" font-size="10.00">scale8</text>
</a>
</g>
</g>
<!-- Node1&#45;&gt;Node9 -->
<g id="edge12_Node000001_Node000009" class="edge">
<title>Node1&#45;&gt;Node9</title>
<g id="a_edge12_Node000001_Node000009"><a xlink:title=" ">
<path fill="none" stroke="#63b8ff" d="M97.25,-112.96C143.37,-101.89 218.57,-83.84 261.72,-73.49"/>
<polygon fill="#63b8ff" stroke="#63b8ff" points="262.8,-76.83 271.71,-71.09 261.17,-70.02 262.8,-76.83"/>
</a>
</g>
</g>
<!-- Node10 -->
<g id="Node000010" class="node">
<title>Node10</title>
<g id="a_Node000010"><a xlink:href="../../d0/da8/group___scaling_ga628b417ea1507e3447cdf5f308d9b6d5.html#ga628b417ea1507e3447cdf5f308d9b6d5" target="_top" xlink:title="The &quot;video&quot; version of scale8() guarantees that the output will be only be zero if one or both of the...">
<polygon fill="white" stroke="#666666" points="229,-19 149,-19 149,0 229,0 229,-19"/>
<text text-anchor="middle" x="189" y="-7" font-family="Helvetica,sans-Serif" font-size="10.00">scale8_video</text>
</a>
</g>
</g>
<!-- Node1&#45;&gt;Node10 -->
<g id="edge14_Node000001_Node000010" class="edge">
<title>Node1&#45;&gt;Node10</title>
<g id="a_edge14_Node000001_Node000010"><a xlink:title=" ">
<path fill="none" stroke="#63b8ff" d="M64.85,-112.73C79.27,-94.1 112.99,-53.12 149,-27.5 150.83,-26.2 152.76,-24.96 154.76,-23.78"/>
<polygon fill="#63b8ff" stroke="#63b8ff" points="156.53,-26.8 163.71,-19.01 153.24,-20.62 156.53,-26.8"/>
</a>
</g>
</g>
<!-- Node3 -->
<g id="Node000003" class="node">
<title>Node3</title>
<g id="a_Node000003"><a xlink:href="../../d4/d36/namespacefl_aa1e0cd66825220bead12cfc1ab7f33c6.html#aa1e0cd66825220bead12cfc1ab7f33c6" target="_top" xlink:title=" ">
<polygon fill="white" stroke="#666666" points="327,-237 265,-237 265,-218 327,-218 327,-237"/>
<text text-anchor="middle" x="296" y="-225" font-family="Helvetica,sans-Serif" font-size="10.00">fl::nblend</text>
</a>
</g>
</g>
<!-- Node2&#45;&gt;Node3 -->
<g id="edge2_Node000002_Node000003" class="edge">
<title>Node2&#45;&gt;Node3</title>
<g id="a_edge2_Node000002_Node000003"><a xlink:title=" ">
<path fill="none" stroke="#63b8ff" d="M217.04,-213.39C228.55,-215.48 242.21,-217.95 254.85,-220.24"/>
<polygon fill="#63b8ff" stroke="#63b8ff" points="254.25,-223.68 264.72,-222.02 255.5,-216.8 254.25,-223.68"/>
</a>
</g>
</g>
<!-- Node4 -->
<g id="Node000004" class="node">
<title>Node4</title>
<g id="a_Node000004"><a xlink:href="../../d5/d98/group___math_ga9a604de042246d6c87fdbfdd5578f377.html#ga9a604de042246d6c87fdbfdd5578f377" target="_top" xlink:title="Blend a variable proportion (0&#45;255) of one byte to another.">
<polygon fill="white" stroke="#666666" points="413,-246 363,-246 363,-227 413,-227 413,-246"/>
<text text-anchor="middle" x="388" y="-234" font-family="Helvetica,sans-Serif" font-size="10.00">blend8</text>
</a>
</g>
</g>
<!-- Node3&#45;&gt;Node4 -->
<g id="edge3_Node000003_Node000004" class="edge">
<title>Node3&#45;&gt;Node4</title>
<g id="a_edge3_Node000003_Node000004"><a xlink:title=" ">
<path fill="none" stroke="#63b8ff" d="M327.47,-230.55C335.57,-231.36 344.38,-232.24 352.68,-233.07"/>
<polygon fill="#63b8ff" stroke="#63b8ff" points="352.52,-236.57 362.82,-234.08 353.21,-229.6 352.52,-236.57"/>
</a>
</g>
</g>
<!-- Node3&#45;&gt;Node5 -->
<g id="edge6_Node000003_Node000005" class="edge">
<title>Node3&#45;&gt;Node5</title>
<g id="a_edge6_Node000003_Node000005"><a xlink:title=" ">
<path fill="none" stroke="#63b8ff" d="M327.22,-223.31C338.45,-221.78 351.3,-220.04 363,-218.5 400.92,-213.52 443.99,-208.1 475.64,-204.16"/>
<polygon fill="#63b8ff" stroke="#63b8ff" points="476.43,-207.59 485.92,-202.89 475.56,-200.65 476.43,-207.59"/>
</a>
</g>
</g>
<!-- Node3&#45;&gt;Node6 -->
<g id="edge7_Node000003_Node000006" class="edge">
<title>Node3&#45;&gt;Node6</title>
<g id="a_edge7_Node000003_Node000006"><a xlink:title=" ">
<path fill="none" stroke="#63b8ff" d="M315.56,-237.05C328.52,-243.29 346.4,-251.08 363,-255.5 387.24,-261.96 414.16,-266.22 438.83,-269.04"/>
<polygon fill="#63b8ff" stroke="#63b8ff" points="438.57,-272.53 448.89,-270.12 439.32,-265.57 438.57,-272.53"/>
</a>
</g>
</g>
<!-- Node4&#45;&gt;Node5 -->
<g id="edge4_Node000004_Node000005" class="edge">
<title>Node4&#45;&gt;Node5</title>
<g id="a_edge4_Node000004_Node000005"><a xlink:title=" ">
<path fill="none" stroke="#63b8ff" d="M413.3,-229.53C431.57,-224.29 457.07,-216.98 478.73,-210.77"/>
<polygon fill="#63b8ff" stroke="#63b8ff" points="479.72,-214.12 488.37,-208 477.79,-207.39 479.72,-214.12"/>
</a>
</g>
</g>
<!-- Node4&#45;&gt;Node6 -->
<g id="edge5_Node000004_Node000006" class="edge">
<title>Node4&#45;&gt;Node6</title>
<g id="a_edge5_Node000004_Node000006"><a xlink:title=" ">
<path fill="none" stroke="#63b8ff" d="M413.3,-243.47C431.57,-248.71 457.07,-256.02 478.73,-262.23"/>
<polygon fill="#63b8ff" stroke="#63b8ff" points="477.79,-265.61 488.37,-265 479.72,-258.88 477.79,-265.61"/>
</a>
</g>
</g>
<!-- Node8&#45;&gt;Node9 -->
<g id="edge11_Node000008_Node000009" class="edge">
<title>Node8&#45;&gt;Node9</title>
<g id="a_edge11_Node000008_Node000009"><a xlink:title=" ">
<path fill="none" stroke="#63b8ff" d="M211.25,-50.34C225.84,-52.98 245.49,-56.54 262.09,-59.55"/>
<polygon fill="#63b8ff" stroke="#63b8ff" points="261.5,-62.99 271.96,-61.33 262.74,-56.11 261.5,-62.99"/>
</a>
</g>
</g>
</g>
</svg>
