<?xml version="1.0" encoding="UTF-8" standalone="no"?>
<!DOCTYPE svg PUBLIC "-//W3C//DTD SVG 1.1//EN"
 "http://www.w3.org/Graphics/SVG/1.1/DTD/svg11.dtd">
<!-- Generated by graphviz version 2.43.0 (0)
 -->
<!-- Title: fl::ldexp_impl_float Pages: 1 -->
<svg width="545pt" height="65pt"
 viewBox="0.00 0.00 545.00 65.00" xmlns="http://www.w3.org/2000/svg" xmlns:xlink="http://www.w3.org/1999/xlink">
<g id="graph0" class="graph" transform="scale(1 1) rotate(0) translate(4 61)">
<title>fl::ldexp_impl_float</title>
<!-- Node1 -->
<g id="Node000001" class="node">
<title>Node1</title>
<g id="a_Node000001"><a xlink:title=" ">
<polygon fill="#999999" stroke="#666666" points="110,-38 0,-38 0,-19 110,-19 110,-38"/>
<text text-anchor="middle" x="55" y="-26" font-family="Helvetica,sans-Serif" font-size="10.00">fl::ldexp_impl_float</text>
</a>
</g>
</g>
<!-- Node2 -->
<g id="Node000002" class="node">
<title>Node2</title>
<g id="a_Node000002"><a xlink:href="../../d4/d36/namespacefl_ae393fecb8f433ee4b88027955350bdc8.html#ae393fecb8f433ee4b88027955350bdc8" target="_top" xlink:title=" ">
<polygon fill="white" stroke="#666666" points="350,-38 303,-38 303,-19 350,-19 350,-38"/>
<text text-anchor="middle" x="326.5" y="-26" font-family="Helvetica,sans-Serif" font-size="10.00">fl::exp</text>
</a>
</g>
</g>
<!-- Node1&#45;&gt;Node2 -->
<g id="edge1_Node000001_Node000002" class="edge">
<title>Node1&#45;&gt;Node2</title>
<g id="a_edge1_Node000001_Node000002"><a xlink:title=" ">
<path fill="none" stroke="#63b8ff" d="M110.21,-28.5C164.86,-28.5 247.41,-28.5 292.77,-28.5"/>
<polygon fill="#63b8ff" stroke="#63b8ff" points="292.93,-32 302.93,-28.5 292.93,-25 292.93,-32"/>
</a>
</g>
</g>
<!-- Node5 -->
<g id="Node000005" class="node">
<title>Node5</title>
<g id="a_Node000005"><a xlink:href="../../df/d9e/namespacefl_1_1detail_ace19c6136af128f9123a112ef385935b.html#ace19c6136af128f9123a112ef385935b" target="_top" xlink:title=" ">
<polygon fill="white" stroke="#666666" points="267,-19 146,-19 146,0 267,0 267,-19"/>
<text text-anchor="middle" x="206.5" y="-7" font-family="Helvetica,sans-Serif" font-size="10.00">fl::detail::ldexp_loop_</text>
</a>
</g>
</g>
<!-- Node1&#45;&gt;Node5 -->
<g id="edge5_Node000001_Node000005" class="edge">
<title>Node1&#45;&gt;Node5</title>
<g id="a_edge5_Node000001_Node000005"><a xlink:title=" ">
<path fill="none" stroke="#63b8ff" d="M110.4,-21.59C118.68,-20.53 127.32,-19.44 135.87,-18.35"/>
<polygon fill="#63b8ff" stroke="#63b8ff" points="136.36,-21.81 145.84,-17.08 135.48,-14.87 136.36,-21.81"/>
</a>
</g>
</g>
<!-- Node3 -->
<g id="Node000003" class="node">
<title>Node3</title>
<g id="a_Node000003"><a xlink:href="../../d4/d36/namespacefl_a861b23e6d46aa20202c82561040de9ff.html#a861b23e6d46aa20202c82561040de9ff" target="_top" xlink:title=" ">
<polygon fill="white" stroke="#666666" points="442,-57 386,-57 386,-38 442,-38 442,-57"/>
<text text-anchor="middle" x="414" y="-45" font-family="Helvetica,sans-Serif" font-size="10.00">fl::expfp</text>
</a>
</g>
</g>
<!-- Node2&#45;&gt;Node3 -->
<g id="edge2_Node000002_Node000003" class="edge">
<title>Node2&#45;&gt;Node3</title>
<g id="a_edge2_Node000002_Node000003"><a xlink:title=" ">
<path fill="none" stroke="#63b8ff" d="M350.41,-33.59C358.23,-35.33 367.19,-37.32 375.84,-39.24"/>
<polygon fill="#63b8ff" stroke="#63b8ff" points="375.25,-42.7 385.77,-41.45 376.76,-35.86 375.25,-42.7"/>
</a>
</g>
</g>
<!-- Node4 -->
<g id="Node000004" class="node">
<title>Node4</title>
<g id="a_Node000004"><a xlink:href="../../d4/d36/namespacefl_a7f0a85a0d4318b7e8fff543b26907b01.html#a7f0a85a0d4318b7e8fff543b26907b01" target="_top" xlink:title=" ">
<polygon fill="white" stroke="#666666" points="537,-38 478,-38 478,-19 537,-19 537,-38"/>
<text text-anchor="middle" x="507.5" y="-26" font-family="Helvetica,sans-Serif" font-size="10.00">fl::powfp</text>
</a>
</g>
</g>
<!-- Node3&#45;&gt;Node4 -->
<g id="edge3_Node000003_Node000004" class="edge">
<title>Node3&#45;&gt;Node4</title>
<g id="a_edge3_Node000003_Node000004"><a xlink:title=" ">
<path fill="none" stroke="#63b8ff" d="M442.45,-41.8C450.47,-40.13 459.39,-38.28 467.97,-36.5"/>
<polygon fill="#63b8ff" stroke="#63b8ff" points="468.72,-39.92 477.8,-34.46 467.29,-33.07 468.72,-39.92"/>
</a>
</g>
</g>
<!-- Node4&#45;&gt;Node2 -->
<g id="edge4_Node000004_Node000002" class="edge">
<title>Node4&#45;&gt;Node2</title>
<g id="a_edge4_Node000004_Node000002"><a xlink:title=" ">
<path fill="none" stroke="#63b8ff" d="M477.81,-28.5C445.79,-28.5 394.06,-28.5 360.41,-28.5"/>
<polygon fill="#63b8ff" stroke="#63b8ff" points="360.17,-25 350.17,-28.5 360.17,-32 360.17,-25"/>
</a>
</g>
</g>
<!-- Node5&#45;&gt;Node2 -->
<g id="edge6_Node000005_Node000002" class="edge">
<title>Node5&#45;&gt;Node2</title>
<g id="a_edge6_Node000005_Node000002"><a xlink:title=" ">
<path fill="none" stroke="#63b8ff" d="M266.85,-19.06C275.78,-20.49 284.71,-21.93 292.81,-23.24"/>
<polygon fill="#63b8ff" stroke="#63b8ff" points="292.48,-26.73 302.91,-24.86 293.59,-19.82 292.48,-26.73"/>
</a>
</g>
</g>
</g>
</svg>
