<?xml version="1.0" encoding="UTF-8" standalone="no"?>
<!DOCTYPE svg PUBLIC "-//W3C//DTD SVG 1.1//EN"
 "http://www.w3.org/Graphics/SVG/1.1/DTD/svg11.dtd">
<!-- Generated by graphviz version 2.43.0 (0)
 -->
<!-- Title: fl::fmod Pages: 1 -->
<svg width="346pt" height="64pt"
 viewBox="0.00 0.00 346.00 64.00" xmlns="http://www.w3.org/2000/svg" xmlns:xlink="http://www.w3.org/1999/xlink">
<g id="graph0" class="graph" transform="scale(1 1) rotate(0) translate(4 60)">
<title>fl::fmod</title>
<!-- Node1 -->
<g id="Node000001" class="node">
<title>Node1</title>
<g id="a_Node000001"><a xlink:title=" ">
<polygon fill="#999999" stroke="#666666" points="54,-37 0,-37 0,-18 54,-18 54,-37"/>
<text text-anchor="middle" x="27" y="-25" font-family="Helvetica,sans-Serif" font-size="10.00">fl::fmod</text>
</a>
</g>
</g>
<!-- Node2 -->
<g id="Node000002" class="node">
<title>Node2</title>
<g id="a_Node000002"><a xlink:href="../../d4/d36/namespacefl_a47ce5fc43140ea5a3a0700964e1552b6.html#a47ce5fc43140ea5a3a0700964e1552b6" target="_top" xlink:title=" ">
<polygon fill="white" stroke="#666666" points="198,-37 90,-37 90,-18 198,-18 198,-37"/>
<text text-anchor="middle" x="144" y="-25" font-family="Helvetica,sans-Serif" font-size="10.00">fl::fmod_impl_float</text>
</a>
</g>
</g>
<!-- Node1&#45;&gt;Node2 -->
<g id="edge1_Node000001_Node000002" class="edge">
<title>Node1&#45;&gt;Node2</title>
<g id="a_edge1_Node000001_Node000002"><a xlink:title=" ">
<path fill="none" stroke="#63b8ff" d="M54.1,-27.5C61.8,-27.5 70.59,-27.5 79.57,-27.5"/>
<polygon fill="#63b8ff" stroke="#63b8ff" points="79.75,-31 89.75,-27.5 79.75,-24 79.75,-31"/>
</a>
</g>
</g>
<!-- Node3 -->
<g id="Node000003" class="node">
<title>Node3</title>
<g id="a_Node000003"><a xlink:href="../../d4/d36/namespacefl_a382370a0b4fd2e828c944855fb904166.html#a382370a0b4fd2e828c944855fb904166" target="_top" xlink:title=" ">
<polygon fill="white" stroke="#666666" points="336,-56 236,-56 236,-37 336,-37 336,-56"/>
<text text-anchor="middle" x="286" y="-44" font-family="Helvetica,sans-Serif" font-size="10.00">fl::ceil_impl_float</text>
</a>
</g>
</g>
<!-- Node2&#45;&gt;Node3 -->
<g id="edge2_Node000002_Node000003" class="edge">
<title>Node2&#45;&gt;Node3</title>
<g id="a_edge2_Node000002_Node000003"><a xlink:title=" ">
<path fill="none" stroke="#63b8ff" d="M198.33,-34.74C207.31,-35.96 216.68,-37.23 225.8,-38.47"/>
<polygon fill="#63b8ff" stroke="#63b8ff" points="225.58,-41.97 235.96,-39.84 226.52,-35.03 225.58,-41.97"/>
</a>
</g>
</g>
<!-- Node4 -->
<g id="Node000004" class="node">
<title>Node4</title>
<g id="a_Node000004"><a xlink:href="../../d4/d36/namespacefl_ac9688f13d338da44ae3700b0a5602ac7.html#ac9688f13d338da44ae3700b0a5602ac7" target="_top" xlink:title=" ">
<polygon fill="white" stroke="#666666" points="338,-19 234,-19 234,0 338,0 338,-19"/>
<text text-anchor="middle" x="286" y="-7" font-family="Helvetica,sans-Serif" font-size="10.00">fl::floor_impl_float</text>
</a>
</g>
</g>
<!-- Node2&#45;&gt;Node4 -->
<g id="edge3_Node000002_Node000004" class="edge">
<title>Node2&#45;&gt;Node4</title>
<g id="a_edge3_Node000002_Node000004"><a xlink:title=" ">
<path fill="none" stroke="#63b8ff" d="M198.33,-20.64C206.57,-19.58 215.14,-18.48 223.54,-17.4"/>
<polygon fill="#63b8ff" stroke="#63b8ff" points="224.2,-20.85 233.67,-16.1 223.3,-13.9 224.2,-20.85"/>
</a>
</g>
</g>
</g>
</svg>
