<?xml version="1.0" encoding="UTF-8" standalone="no"?>
<!DOCTYPE svg PUBLIC "-//W3C//DTD SVG 1.1//EN"
 "http://www.w3.org/Graphics/SVG/1.1/DTD/svg11.dtd">
<!-- Generated by graphviz version 2.43.0 (0)
 -->
<!-- Title: map16_to_8 Pages: 1 -->
<!--zoomable 138 -->

<svg id="main" version="1.1" xmlns="http://www.w3.org/2000/svg" xmlns:xlink="http://www.w3.org/1999/xlink" xml:space="preserve" onload="init(evt)">

<style type="text/css"><![CDATA[
.node, .edge {opacity: 0.7;}
.node.selected, .edge.selected {opacity: 1;}
.edge:hover path { stroke: red; }
.edge:hover polygon { stroke: red; fill: red; }
]]></style>

<defs>
  <circle id="rim" cx="0" cy="0" r="7"/>
  <circle id="rim2" cx="0" cy="0" r="3.5"/>
  <g id="zoomPlus">
    <use xlink:href="#rim" fill="#404040"><set attributeName="fill" to="#808080" begin="zoomplus.mouseover" end="zoomplus.mouseout"/></use>
    <path d="M-4,0h8M0,-4v8" fill="none" stroke="white" stroke-width="1.5" pointer-events="none"/>
  </g>
  <g id="zoomMin">
    <use xlink:href="#rim" fill="#404040"><set attributeName="fill" to="#808080" begin="zoomminus.mouseover" end="zoomminus.mouseout"/></use>
    <path d="M-4,0h8" fill="none" stroke="white" stroke-width="1.5" pointer-events="none"/>
  </g>
  <g id="arrowUp" transform="translate(30 24)">
    <use xlink:href="#rim"/>
    <path pointer-events="none" fill="none" stroke="white" stroke-width="1.5" d="M0,-3.0v7 M-2.5,-0.5L0,-3.0L2.5,-0.5"/>
  </g>
  <g id="arrowRight" transform="rotate(90) translate(36 -43)">
    <use xlink:href="#rim"/>
    <path pointer-events="none" fill="none" stroke="white" stroke-width="1.5" d="M0,-3.0v7 M-2.5,-0.5L0,-3.0L2.5,-0.5"/>
  </g>
  <g id="arrowDown" transform="rotate(180) translate(-30 -48)">
    <use xlink:href="#rim"/>
    <path pointer-events="none" fill="none" stroke="white" stroke-width="1.5" d="M0,-3.0v7 M-2.5,-0.5L0,-3.0L2.5,-0.5"/>
  </g>
  <g id="arrowLeft" transform="rotate(270) translate(-36 17)">
    <use xlink:href="#rim"/>
    <path pointer-events="none" fill="none" stroke="white" stroke-width="1.5" d="M0,-3.0v7 M-2.5,-0.5L0,-3.0L2.5,-0.5"/>
  </g>
  <g id="resetDef">
    <use xlink:href="#rim2" fill="#404040"><set attributeName="fill" to="#808080" begin="reset.mouseover" end="reset.mouseout"/></use>
  </g>
</defs>
<script type="application/ecmascript">
var viewWidth = 535;
var viewHeight = 138;
var sectionId = 'dynsection-0';
</script>
<script type="application/ecmascript" xlink:href="../../svg.min.js"/>
<svg id="graph" class="graph">
<g id="viewport">
<title>map16_to_8</title>
<!-- Node1 -->
<g id="Node000001" class="node">
<title>Node1</title>
<g id="a_Node000001"><a xlink:title=" ">
<polygon fill="#999999" stroke="#666666" points="527,-93 450,-93 450,-74 527,-74 527,-93"/>
<text text-anchor="middle" x="488.5" y="-81" font-family="Helvetica,sans-Serif" font-size="10.00">map16_to_8</text>
</a>
</g>
</g>
<!-- Node2 -->
<g id="Node000002" class="node">
<title>Node2</title>
<g id="a_Node000002"><a xlink:href="../../d4/d36/namespacefl_a30f7a4ad95720c501bbd2cd3c3a50542.html#a30f7a4ad95720c501bbd2cd3c3a50542" target="_top" xlink:title="8&#45;bit sine ease&#45;in/ease&#45;out function Takes an input value 0&#45;255 and returns an eased value 0&#45;255 Smoo...">
<polygon fill="white" stroke="#666666" points="414,-93 309,-93 309,-74 414,-74 414,-93"/>
<text text-anchor="middle" x="361.5" y="-81" font-family="Helvetica,sans-Serif" font-size="10.00">fl::easeInOutSine8</text>
</a>
</g>
</g>
<!-- Node1&#45;&gt;Node2 -->
<g id="edge1_Node000001_Node000002" class="edge">
<title>Node1&#45;&gt;Node2</title>
<g id="a_edge1_Node000001_Node000002"><a xlink:title=" ">
<path fill="none" stroke="#63b8ff" d="M439.99,-83.5C431.59,-83.5 422.81,-83.5 414.31,-83.5"/>
<polygon fill="#63b8ff" stroke="#63b8ff" points="440,-87 450,-83.5 440,-80 440,-87"/>
</a>
</g>
</g>
<!-- Node6 -->
<g id="Node000006" class="node">
<title>Node6</title>
<g id="a_Node000006"><a xlink:href="../../d4/d36/namespacefl_a348b545d0e0a4637e517a5e2df2ca6c0.html#a348b545d0e0a4637e517a5e2df2ca6c0" target="_top" xlink:title="8&#45;bit sine ease&#45;out function Takes an input value 0&#45;255 and returns an eased value 0&#45;255 Smooth sinus...">
<polygon fill="white" stroke="#666666" points="409.5,-130 313.5,-130 313.5,-111 409.5,-111 409.5,-130"/>
<text text-anchor="middle" x="361.5" y="-118" font-family="Helvetica,sans-Serif" font-size="10.00">fl::easeOutSine8</text>
</a>
</g>
</g>
<!-- Node1&#45;&gt;Node6 -->
<g id="edge5_Node000001_Node000006" class="edge">
<title>Node1&#45;&gt;Node6</title>
<g id="a_edge5_Node000001_Node000006"><a xlink:title=" ">
<path fill="none" stroke="#63b8ff" d="M445.39,-95.96C428.95,-100.83 410.4,-106.32 395.02,-110.88"/>
<polygon fill="#63b8ff" stroke="#63b8ff" points="446.71,-99.22 455.31,-93.03 444.73,-92.51 446.71,-99.22"/>
</a>
</g>
</g>
<!-- Node7 -->
<g id="Node000007" class="node">
<title>Node7</title>
<g id="a_Node000007"><a xlink:href="../../d4/d36/namespacefl_a0704405150c9e2ea2647360203eef1a7.html#a0704405150c9e2ea2647360203eef1a7" target="_top" xlink:title=" ">
<polygon fill="white" stroke="#666666" points="407.5,-56 315.5,-56 315.5,-37 407.5,-37 407.5,-56"/>
<text text-anchor="middle" x="361.5" y="-44" font-family="Helvetica,sans-Serif" font-size="10.00">fl::HSV16toRGB</text>
</a>
</g>
</g>
<!-- Node1&#45;&gt;Node7 -->
<g id="edge8_Node000001_Node000007" class="edge">
<title>Node1&#45;&gt;Node7</title>
<g id="a_edge8_Node000001_Node000007"><a xlink:title=" ">
<path fill="none" stroke="#63b8ff" d="M445.39,-71.04C428.95,-66.17 410.4,-60.68 395.02,-56.12"/>
<polygon fill="#63b8ff" stroke="#63b8ff" points="444.73,-74.49 455.31,-73.97 446.71,-67.78 444.73,-74.49"/>
</a>
</g>
</g>
<!-- Node3 -->
<g id="Node000003" class="node">
<title>Node3</title>
<g id="a_Node000003"><a xlink:href="../../d4/d36/namespacefl_ac368f20d137ff004c852fa35420cfa5e.html#ac368f20d137ff004c852fa35420cfa5e" target="_top" xlink:title=" ">
<polygon fill="white" stroke="#666666" points="253,-93 195,-93 195,-74 253,-74 253,-93"/>
<text text-anchor="middle" x="224" y="-81" font-family="Helvetica,sans-Serif" font-size="10.00">fl::ease8</text>
</a>
</g>
</g>
<!-- Node2&#45;&gt;Node3 -->
<g id="edge2_Node000002_Node000003" class="edge">
<title>Node2&#45;&gt;Node3</title>
<g id="a_edge2_Node000002_Node000003"><a xlink:title=" ">
<path fill="none" stroke="#63b8ff" d="M298.59,-83.5C282.78,-83.5 266.53,-83.5 253.35,-83.5"/>
<polygon fill="#63b8ff" stroke="#63b8ff" points="298.89,-87 308.89,-83.5 298.89,-80 298.89,-87"/>
</a>
</g>
</g>
<!-- Node4 -->
<g id="Node000004" class="node">
<title>Node4</title>
<g id="a_Node000004"><a xlink:href="../../d4/d36/namespacefl_ad5bdf92d600b40d01c2d3a0d536a7c8c.html#ad5bdf92d600b40d01c2d3a0d536a7c8c" target="_top" xlink:title=" ">
<polygon fill="white" stroke="#666666" points="253,-130 195,-130 195,-111 253,-111 253,-130"/>
<text text-anchor="middle" x="224" y="-118" font-family="Helvetica,sans-Serif" font-size="10.00">fl::ease8</text>
</a>
</g>
</g>
<!-- Node2&#45;&gt;Node4 -->
<g id="edge3_Node000002_Node000004" class="edge">
<title>Node2&#45;&gt;Node4</title>
<g id="a_edge3_Node000002_Node000004"><a xlink:title=" ">
<path fill="none" stroke="#63b8ff" d="M315.81,-95.7C295.24,-101.32 271.46,-107.81 253.39,-112.75"/>
<polygon fill="#63b8ff" stroke="#63b8ff" points="316.88,-99.04 325.61,-93.03 315.04,-92.29 316.88,-99.04"/>
</a>
</g>
</g>
<!-- Node5 -->
<g id="Node000005" class="node">
<title>Node5</title>
<g id="a_Node000005"><a xlink:href="../../dd/d55/_ease_in_out_8h_afe461d27b9c48d5921c00d521181f12f.html#afe461d27b9c48d5921c00d521181f12f" target="_top" xlink:title=" ">
<polygon fill="white" stroke="#666666" points="88.5,-130 50.5,-130 50.5,-111 88.5,-111 88.5,-130"/>
<text text-anchor="middle" x="69.5" y="-118" font-family="Helvetica,sans-Serif" font-size="10.00">loop</text>
</a>
</g>
</g>
<!-- Node4&#45;&gt;Node5 -->
<g id="edge4_Node000004_Node000005" class="edge">
<title>Node4&#45;&gt;Node5</title>
<g id="a_edge4_Node000004_Node000005"><a xlink:title=" ">
<path fill="none" stroke="#63b8ff" d="M184.32,-120.5C153.62,-120.5 112.11,-120.5 88.64,-120.5"/>
<polygon fill="#63b8ff" stroke="#63b8ff" points="184.67,-124 194.67,-120.5 184.67,-117 184.67,-124"/>
</a>
</g>
</g>
<!-- Node6&#45;&gt;Node3 -->
<g id="edge6_Node000006_Node000003" class="edge">
<title>Node6&#45;&gt;Node3</title>
<g id="a_edge6_Node000006_Node000003"><a xlink:title=" ">
<path fill="none" stroke="#63b8ff" d="M315.81,-108.3C295.24,-102.68 271.46,-96.19 253.39,-91.25"/>
<polygon fill="#63b8ff" stroke="#63b8ff" points="315.04,-111.71 325.61,-110.97 316.88,-104.96 315.04,-111.71"/>
</a>
</g>
</g>
<!-- Node6&#45;&gt;Node4 -->
<g id="edge7_Node000006_Node000004" class="edge">
<title>Node6&#45;&gt;Node4</title>
<g id="a_edge7_Node000006_Node000004"><a xlink:title=" ">
<path fill="none" stroke="#63b8ff" d="M303.45,-120.5C286.16,-120.5 267.91,-120.5 253.37,-120.5"/>
<polygon fill="#63b8ff" stroke="#63b8ff" points="303.49,-124 313.49,-120.5 303.49,-117 303.49,-124"/>
</a>
</g>
</g>
<!-- Node8 -->
<g id="Node000008" class="node">
<title>Node8</title>
<g id="a_Node000008"><a xlink:href="../../d4/d5d/structfl_1_1_h_s_v16_a66d9cc0fccee4175baaef83f1a2d7d7d.html#a66d9cc0fccee4175baaef83f1a2d7d7d" target="_top" xlink:title=" ">
<polygon fill="white" stroke="#666666" points="273,-56 175,-56 175,-37 273,-37 273,-56"/>
<text text-anchor="middle" x="224" y="-44" font-family="Helvetica,sans-Serif" font-size="10.00">fl::HSV16::ToRGB</text>
</a>
</g>
</g>
<!-- Node7&#45;&gt;Node8 -->
<g id="edge9_Node000007_Node000008" class="edge">
<title>Node7&#45;&gt;Node8</title>
<g id="a_edge9_Node000007_Node000008"><a xlink:title=" ">
<path fill="none" stroke="#63b8ff" d="M305.33,-46.5C294.68,-46.5 283.59,-46.5 273.18,-46.5"/>
<polygon fill="#63b8ff" stroke="#63b8ff" points="305.38,-50 315.38,-46.5 305.38,-43 305.38,-50"/>
</a>
</g>
</g>
<!-- Node9 -->
<g id="Node000009" class="node">
<title>Node9</title>
<g id="a_Node000009"><a xlink:href="../../d7/d82/struct_c_r_g_b_aafb129d5109b627df6c8401c6b5105ef.html#aafb129d5109b627df6c8401c6b5105ef" target="_top" xlink:title="Allow construction from a fl::HSV16 color Enables automatic conversion from HSV16 to CRGB.">
<polygon fill="white" stroke="#666666" points="108.5,-93 30.5,-93 30.5,-74 108.5,-74 108.5,-93"/>
<text text-anchor="middle" x="69.5" y="-81" font-family="Helvetica,sans-Serif" font-size="10.00">CRGB::CRGB</text>
</a>
</g>
</g>
<!-- Node8&#45;&gt;Node9 -->
<g id="edge10_Node000008_Node000009" class="edge">
<title>Node8&#45;&gt;Node9</title>
<g id="a_edge10_Node000008_Node000009"><a xlink:title=" ">
<path fill="none" stroke="#63b8ff" d="M173.94,-58.4C152.76,-63.54 128.37,-69.46 108.59,-74.26"/>
<polygon fill="#63b8ff" stroke="#63b8ff" points="174.83,-61.79 183.73,-56.03 173.18,-54.98 174.83,-61.79"/>
</a>
</g>
</g>
<!-- Node10 -->
<g id="Node000010" class="node">
<title>Node10</title>
<g id="a_Node000010"><a xlink:href="../../d4/d5d/structfl_1_1_h_s_v16_a0bd2c0fc64fc34d573637c10b849c320.html#a0bd2c0fc64fc34d573637c10b849c320" target="_top" xlink:title=" ">
<polygon fill="#fff0f0" stroke="red" points="129,-56 10,-56 10,-37 129,-37 129,-56"/>
<text text-anchor="middle" x="69.5" y="-44" font-family="Helvetica,sans-Serif" font-size="10.00">fl::HSV16::colorBoost</text>
</a>
</g>
</g>
<!-- Node8&#45;&gt;Node10 -->
<g id="edge11_Node000008_Node000010" class="edge">
<title>Node8&#45;&gt;Node10</title>
<g id="a_edge11_Node000008_Node000010"><a xlink:title=" ">
<path fill="none" stroke="#63b8ff" d="M164.69,-46.5C153.04,-46.5 140.8,-46.5 129.13,-46.5"/>
<polygon fill="#63b8ff" stroke="#63b8ff" points="164.75,-50 174.75,-46.5 164.75,-43 164.75,-50"/>
</a>
</g>
</g>
<!-- Node23 -->
<g id="Node000023" class="node">
<title>Node23</title>
<g id="a_Node000023"><a xlink:href="../../d4/d5d/structfl_1_1_h_s_v16_a3ece902080f8d4dbaca82dbc974c58d0.html#a3ece902080f8d4dbaca82dbc974c58d0" target="_top" xlink:title="Automatic conversion operator to CRGB Allows HSV16 to be automatically converted to CRGB.">
<polygon fill="white" stroke="#666666" points="139,-19 0,-19 0,0 139,0 139,-19"/>
<text text-anchor="middle" x="69.5" y="-7" font-family="Helvetica,sans-Serif" font-size="10.00">fl::HSV16::operator CRGB</text>
</a>
</g>
</g>
<!-- Node8&#45;&gt;Node23 -->
<g id="edge12_Node000008_Node000023" class="edge">
<title>Node8&#45;&gt;Node23</title>
<g id="a_edge12_Node000008_Node000023"><a xlink:title=" ">
<path fill="none" stroke="#63b8ff" d="M173.85,-34.57C153.16,-29.56 129.41,-23.79 109.9,-19.06"/>
<polygon fill="#63b8ff" stroke="#63b8ff" points="173.18,-38.02 183.73,-36.97 174.83,-31.21 173.18,-38.02"/>
</a>
</g>
</g>
</g>
</svg>

<g id="navigator" transform="translate(0 0)" fill="#404254">
  <rect fill="#f2f5e9" fill-opacity="0.5" stroke="#606060" stroke-width=".5" x="0" y="0" width="60" height="60"/>
  <use id="zoomplus" xlink:href="#zoomPlus" x="17" y="9" onmousedown="handleZoom(evt,'in')"/>
  <use id="zoomminus" xlink:href="#zoomMin" x="42" y="9" onmousedown="handleZoom(evt,'out')"/>
  <use id="reset" xlink:href="#resetDef" x="30" y="36" onmousedown="handleReset()"/>
   <use id="arrowup" xlink:href="#arrowUp" x="0" y="0" onmousedown="handlePan(0,-1)"/>
  <use id="arrowright" xlink:href="#arrowRight" x="0" y="0" onmousedown="handlePan(1,0)"/>
  <use id="arrowdown" xlink:href="#arrowDown" x="0" y="0" onmousedown="handlePan(0,1)"/>
  <use id="arrowleft" xlink:href="#arrowLeft" x="0" y="0" onmousedown="handlePan(-1,0)"/>
</g>
<svg viewBox="0 0 15 15" width="100%" height="30px" preserveAspectRatio="xMaxYMin meet">
 <g id="arrow_out" transform="scale(0.3 0.3)">
  <a xlink:href="group__intmap_ga43a52eb77959095c09b86f6d514eee5e_ga43a52eb77959095c09b86f6d514eee5e_icgraph_org.svg" target="_base">
   <rect id="button" ry="5" rx="5" y="6" x="6" height="38" width="38"
        fill="#f2f5e9" fill-opacity="0.5" stroke="#606060" stroke-width="1.0"/>
   <path id="arrow"
     d="M 11.500037,31.436501 C 11.940474,20.09759 22.043105,11.32322 32.158766,21.979434 L 37.068811,17.246167 C 37.068811,17.246167 37.088388,32 37.088388,32 L 22.160133,31.978069 C 22.160133,31.978069 26.997745,27.140456 26.997745,27.140456 C 18.528582,18.264221 13.291696,25.230495 11.500037,31.436501 z"
     style="fill:#404040;"/>
  </a>
 </g>
</svg>

<style type='text/css'>
<![CDATA[
[data-mouse-over-selected='false'] { opacity: 0.7; }
[data-mouse-over-selected='true']  { opacity: 1.0; }
]]>
</style>
<script type="application/ecmascript"><![CDATA[
document.addEventListener('DOMContentLoaded', (event) => {
  highlightEdges();
  highlightAdjacentNodes();
});
]]></script>
</svg>
