<?xml version="1.0" encoding="UTF-8" standalone="no"?>
<!DOCTYPE svg PUBLIC "-//W3C//DTD SVG 1.1//EN"
 "http://www.w3.org/Graphics/SVG/1.1/DTD/svg11.dtd">
<!-- Generated by graphviz version 2.43.0 (0)
 -->
<!-- Title: loop Pages: 1 -->
<svg width="404pt" height="230pt"
 viewBox="0.00 0.00 404.00 230.00" xmlns="http://www.w3.org/2000/svg" xmlns:xlink="http://www.w3.org/1999/xlink">

<svg id="main" version="1.1" xmlns="http://www.w3.org/2000/svg" xmlns:xlink="http://www.w3.org/1999/xlink" xml:space="preserve">

<style type="text/css"><![CDATA[
.node, .edge {opacity: 0.7;}
.node.selected, .edge.selected {opacity: 1;}
.edge:hover path { stroke: red; }
.edge:hover polygon { stroke: red; fill: red; }
]]></style>
<script type="application/ecmascript" xlink:href="../../svg.min.js"/>
<svg id="graph" class="graph">
<g id="graph0" class="graph" transform="scale(1 1) rotate(0) translate(4 226)">
<title>loop</title>
<!-- Node1 -->
<g id="Node000001" class="node">
<title>Node1</title>
<g id="a_Node000001"><a xlink:title=" ">
<polygon fill="#999999" stroke="#666666" points="38,-120 0,-120 0,-101 38,-101 38,-120"/>
<text text-anchor="middle" x="19" y="-108" font-family="Helvetica,sans-Serif" font-size="10.00">loop</text>
</a>
</g>
</g>
<!-- Node2 -->
<g id="Node000002" class="node">
<title>Node2</title>
<g id="a_Node000002"><a xlink:href="../../d1/dfb/colorutils_8h_a3d488dd1e2d27e99307310527e51cad3.html#a3d488dd1e2d27e99307310527e51cad3" target="_top" xlink:title=" ">
<polygon fill="white" stroke="#666666" points="175,-222 74,-222 74,-203 175,-203 175,-222"/>
<text text-anchor="middle" x="124.5" y="-210" font-family="Helvetica,sans-Serif" font-size="10.00">ColorFromPalette</text>
</a>
</g>
</g>
<!-- Node1&#45;&gt;Node2 -->
<g id="edge1_Node000001_Node000002" class="edge">
<title>Node1&#45;&gt;Node2</title>
<g id="a_edge1_Node000001_Node000002"><a xlink:title=" ">
<path fill="none" stroke="#63b8ff" d="M23.79,-120.27C30.99,-137.63 48.27,-173.94 74,-194.5 75.58,-195.76 77.26,-196.94 79,-198.04"/>
<polygon fill="#63b8ff" stroke="#63b8ff" points="77.69,-201.31 88.16,-202.91 80.98,-195.13 77.69,-201.31"/>
</a>
</g>
</g>
<!-- Node3 -->
<g id="Node000003" class="node">
<title>Node3</title>
<g id="a_Node000003"><a xlink:href="../../d8/dd0/_fire_cylinder_8h_aa3b5ff96289668b51bfb9d352f27ff0a.html#aa3b5ff96289668b51bfb9d352f27ff0a" target="_top" xlink:title=" ">
<polygon fill="white" stroke="#666666" points="157.5,-185 91.5,-185 91.5,-166 157.5,-166 157.5,-185"/>
<text text-anchor="middle" x="124.5" y="-173" font-family="Helvetica,sans-Serif" font-size="10.00">getPalette</text>
</a>
</g>
</g>
<!-- Node1&#45;&gt;Node3 -->
<g id="edge2_Node000001_Node000003" class="edge">
<title>Node1&#45;&gt;Node3</title>
<g id="a_edge2_Node000001_Node000003"><a xlink:title=" ">
<path fill="none" stroke="#63b8ff" d="M29.11,-120.34C39.22,-130.77 56.44,-147.15 74,-157.5 76.67,-159.07 79.5,-160.55 82.41,-161.92"/>
<polygon fill="#63b8ff" stroke="#63b8ff" points="81.24,-165.23 91.81,-165.95 84,-158.79 81.24,-165.23"/>
</a>
</g>
</g>
<!-- Node5 -->
<g id="Node000005" class="node">
<title>Node5</title>
<g id="a_Node000005"><a xlink:href="../../d8/dd0/_fire_cylinder_8h_a617c5a2afa470899e1f864d74ff6506d.html#a617c5a2afa470899e1f864d74ff6506d" target="_top" xlink:title=" ">
<polygon fill="white" stroke="#666666" points="171,-148 78,-148 78,-129 171,-129 171,-148"/>
<text text-anchor="middle" x="124.5" y="-136" font-family="Helvetica,sans-Serif" font-size="10.00">getPaletteIndex</text>
</a>
</g>
</g>
<!-- Node1&#45;&gt;Node5 -->
<g id="edge4_Node000001_Node000005" class="edge">
<title>Node1&#45;&gt;Node5</title>
<g id="a_edge4_Node000001_Node000005"><a xlink:title=" ">
<path fill="none" stroke="#63b8ff" d="M38.03,-115.38C49.23,-118.41 64.16,-122.45 78.41,-126.3"/>
<polygon fill="#63b8ff" stroke="#63b8ff" points="77.54,-129.69 88.11,-128.93 79.37,-122.94 77.54,-129.69"/>
</a>
</g>
</g>
<!-- Node12 -->
<g id="Node000012" class="node">
<title>Node12</title>
<g id="a_Node000012"><a xlink:href="../../d4/d36/namespacefl_a335fa6e4af7f0a011997ea0137d49b5a.html#a335fa6e4af7f0a011997ea0137d49b5a" target="_top" xlink:title="Universal millisecond timer &#45; returns milliseconds since system startup.">
<polygon fill="white" stroke="#666666" points="152.5,-93 96.5,-93 96.5,-74 152.5,-74 152.5,-93"/>
<text text-anchor="middle" x="124.5" y="-81" font-family="Helvetica,sans-Serif" font-size="10.00">fl::millis</text>
</a>
</g>
</g>
<!-- Node1&#45;&gt;Node12 -->
<g id="edge10_Node000001_Node000012" class="edge">
<title>Node1&#45;&gt;Node12</title>
<g id="a_edge10_Node000001_Node000012"><a xlink:title=" ">
<path fill="none" stroke="#63b8ff" d="M38.03,-105.8C51.36,-102.32 69.99,-97.46 86.45,-93.17"/>
<polygon fill="#63b8ff" stroke="#63b8ff" points="87.56,-96.49 96.35,-90.58 85.79,-89.72 87.56,-96.49"/>
</a>
</g>
</g>
<!-- Node13 -->
<g id="Node000013" class="node">
<title>Node13</title>
<g id="a_Node000013"><a xlink:href="../../d8/dd0/_fire_cylinder_8h_aa3f463620d8c7f80b9532244d6632059.html#aa3f463620d8c7f80b9532244d6632059" target="_top" xlink:title=" ">
<polygon fill="white" stroke="#666666" points="150.5,-56 98.5,-56 98.5,-37 150.5,-37 150.5,-56"/>
<text text-anchor="middle" x="124.5" y="-44" font-family="Helvetica,sans-Serif" font-size="10.00">speedY</text>
</a>
</g>
</g>
<!-- Node1&#45;&gt;Node13 -->
<g id="edge12_Node000001_Node000013" class="edge">
<title>Node1&#45;&gt;Node13</title>
<g id="a_edge12_Node000001_Node000013"><a xlink:title=" ">
<path fill="none" stroke="#63b8ff" d="M29.6,-100.8C39.85,-90.87 56.95,-75.5 74,-65.5 78.6,-62.8 83.64,-60.35 88.71,-58.18"/>
<polygon fill="#63b8ff" stroke="#63b8ff" points="90.35,-61.29 98.34,-54.34 87.76,-54.79 90.35,-61.29"/>
</a>
</g>
</g>
<!-- Node14 -->
<g id="Node000014" class="node">
<title>Node14</title>
<g id="a_Node000014"><a xlink:href="../../d8/dd0/_fire_cylinder_8h_a8ad2a8460d8423a3f7fdc23f7fb1910b.html#a8ad2a8460d8423a3f7fdc23f7fb1910b" target="_top" xlink:title=" ">
<polygon fill="white" stroke="#666666" points="157,-19 92,-19 92,0 157,0 157,-19"/>
<text text-anchor="middle" x="124.5" y="-7" font-family="Helvetica,sans-Serif" font-size="10.00">timeScale</text>
</a>
</g>
</g>
<!-- Node1&#45;&gt;Node14 -->
<g id="edge13_Node000001_Node000014" class="edge">
<title>Node1&#45;&gt;Node14</title>
<g id="a_edge13_Node000001_Node000014"><a xlink:title=" ">
<path fill="none" stroke="#63b8ff" d="M23.82,-100.85C31.07,-83.7 48.43,-47.82 74,-27.5 76.61,-25.42 79.49,-23.57 82.5,-21.93"/>
<polygon fill="#63b8ff" stroke="#63b8ff" points="84.22,-24.99 91.79,-17.58 81.25,-18.65 84.22,-24.99"/>
</a>
</g>
</g>
<!-- Node4 -->
<g id="Node000004" class="node">
<title>Node4</title>
<g id="a_Node000004"><a xlink:href="../../d8/dd0/_fire_cylinder_8h_a470cec2dcb21e474c257065bb93bfcd1.html#a470cec2dcb21e474c257065bb93bfcd1" target="_top" xlink:title=" ">
<polygon fill="white" stroke="#666666" points="270.5,-222 219.5,-222 219.5,-203 270.5,-203 270.5,-222"/>
<text text-anchor="middle" x="245" y="-210" font-family="Helvetica,sans-Serif" font-size="10.00">palette</text>
</a>
</g>
</g>
<!-- Node3&#45;&gt;Node4 -->
<g id="edge3_Node000003_Node000004" class="edge">
<title>Node3&#45;&gt;Node4</title>
<g id="a_edge3_Node000003_Node000004"><a xlink:title=" ">
<path fill="none" stroke="#63b8ff" d="M156.02,-185.03C172.26,-190.1 192.3,-196.36 209.15,-201.62"/>
<polygon fill="#63b8ff" stroke="#63b8ff" points="208.58,-205.11 219.17,-204.75 210.67,-198.43 208.58,-205.11"/>
</a>
</g>
</g>
<!-- Node6 -->
<g id="Node000006" class="node">
<title>Node6</title>
<g id="a_Node000006"><a xlink:href="../../d8/df9/group___noise_generation_gaa452e57f154ab8d6d692375dba1ef5cb.html#gaa452e57f154ab8d6d692375dba1ef5cb" target="_top" xlink:title=" ">
<polygon fill="white" stroke="#666666" points="274,-185 216,-185 216,-166 274,-166 274,-185"/>
<text text-anchor="middle" x="245" y="-173" font-family="Helvetica,sans-Serif" font-size="10.00">inoise16</text>
</a>
</g>
</g>
<!-- Node5&#45;&gt;Node6 -->
<g id="edge5_Node000005_Node000006" class="edge">
<title>Node5&#45;&gt;Node6</title>
<g id="a_edge5_Node000005_Node000006"><a xlink:title=" ">
<path fill="none" stroke="#63b8ff" d="M156.02,-148.03C171.24,-152.78 189.79,-158.57 205.93,-163.61"/>
<polygon fill="#63b8ff" stroke="#63b8ff" points="205.03,-167 215.62,-166.64 207.12,-160.32 205.03,-167"/>
</a>
</g>
</g>
<!-- Node9 -->
<g id="Node000009" class="node">
<title>Node9</title>
<g id="a_Node000009"><a xlink:href="../../d8/dd0/_fire_cylinder_8h_a148d5b071603b407f396609307344014.html#a148d5b071603b407f396609307344014" target="_top" xlink:title=" ">
<polygon fill="white" stroke="#666666" points="279,-148 211,-148 211,-129 279,-129 279,-148"/>
<text text-anchor="middle" x="245" y="-136" font-family="Helvetica,sans-Serif" font-size="10.00">invSpeedZ</text>
</a>
</g>
</g>
<!-- Node5&#45;&gt;Node9 -->
<g id="edge7_Node000005_Node000009" class="edge">
<title>Node5&#45;&gt;Node9</title>
<g id="a_edge7_Node000005_Node000009"><a xlink:title=" ">
<path fill="none" stroke="#63b8ff" d="M171.32,-138.5C180.98,-138.5 191.14,-138.5 200.71,-138.5"/>
<polygon fill="#63b8ff" stroke="#63b8ff" points="200.8,-142 210.8,-138.5 200.8,-135 200.8,-142"/>
</a>
</g>
</g>
<!-- Node10 -->
<g id="Node000010" class="node">
<title>Node10</title>
<g id="a_Node000010"><a xlink:href="../../d8/dd0/_fire_cylinder_8h_a057f791b47dd413ebd0c2920c36975c8.html#a057f791b47dd413ebd0c2920c36975c8" target="_top" xlink:title=" ">
<polygon fill="white" stroke="#666666" points="269.5,-111 220.5,-111 220.5,-92 269.5,-92 269.5,-111"/>
<text text-anchor="middle" x="245" y="-99" font-family="Helvetica,sans-Serif" font-size="10.00">scaleX</text>
</a>
</g>
</g>
<!-- Node5&#45;&gt;Node10 -->
<g id="edge8_Node000005_Node000010" class="edge">
<title>Node5&#45;&gt;Node10</title>
<g id="a_edge8_Node000005_Node000010"><a xlink:title=" ">
<path fill="none" stroke="#63b8ff" d="M156.02,-128.97C172.76,-123.75 193.53,-117.26 210.69,-111.9"/>
<polygon fill="#63b8ff" stroke="#63b8ff" points="211.82,-115.22 220.32,-108.89 209.73,-108.53 211.82,-115.22"/>
</a>
</g>
</g>
<!-- Node11 -->
<g id="Node000011" class="node">
<title>Node11</title>
<g id="a_Node000011"><a xlink:href="../../d8/dd0/_fire_cylinder_8h_a81ebe4d0bf62610d5afded1df20926ed.html#a81ebe4d0bf62610d5afded1df20926ed" target="_top" xlink:title=" ">
<polygon fill="white" stroke="#666666" points="272.5,-74 217.5,-74 217.5,-55 272.5,-55 272.5,-74"/>
<text text-anchor="middle" x="245" y="-62" font-family="Helvetica,sans-Serif" font-size="10.00">scaleXY</text>
</a>
</g>
</g>
<!-- Node5&#45;&gt;Node11 -->
<g id="edge9_Node000005_Node000011" class="edge">
<title>Node5&#45;&gt;Node11</title>
<g id="a_edge9_Node000005_Node000011"><a xlink:title=" ">
<path fill="none" stroke="#63b8ff" d="M158.19,-128.99C164.01,-126.64 169.85,-123.83 175,-120.5 194.27,-108.04 192.89,-97.58 211,-83.5 212.78,-82.12 214.67,-80.76 216.62,-79.46"/>
<polygon fill="#63b8ff" stroke="#63b8ff" points="218.61,-82.34 225.26,-74.09 214.92,-76.39 218.61,-82.34"/>
</a>
</g>
</g>
<!-- Node7 -->
<g id="Node000007" class="node">
<title>Node7</title>
<g id="a_Node000007"><a xlink:href="../../d8/df9/group___noise_generation_gae021f30d62fea75ea1397e1a81b28a59.html#gae021f30d62fea75ea1397e1a81b28a59" target="_top" xlink:title=" ">
<polygon fill="#fff0f0" stroke="red" points="396,-185 315,-185 315,-166 396,-166 396,-185"/>
<text text-anchor="middle" x="355.5" y="-173" font-family="Helvetica,sans-Serif" font-size="10.00">inoise16_raw</text>
</a>
</g>
</g>
<!-- Node6&#45;&gt;Node7 -->
<g id="edge6_Node000006_Node000007" class="edge">
<title>Node6&#45;&gt;Node7</title>
<g id="a_edge6_Node000006_Node000007"><a xlink:title=" ">
<path fill="none" stroke="#63b8ff" d="M274.22,-175.5C283.55,-175.5 294.22,-175.5 304.67,-175.5"/>
<polygon fill="#63b8ff" stroke="#63b8ff" points="304.98,-179 314.98,-175.5 304.98,-172 304.98,-179"/>
</a>
</g>
</g>
<!-- Node12&#45;&gt;Node12 -->
<g id="edge11_Node000012_Node000012" class="edge">
<title>Node12&#45;&gt;Node12</title>
<g id="a_edge11_Node000012_Node000012"><a xlink:title=" ">
<path fill="none" stroke="#63b8ff" d="M108.47,-93.08C100.67,-101.73 106.02,-111 124.5,-111 136.05,-111 142.47,-107.38 143.76,-102.55"/>
<polygon fill="#63b8ff" stroke="#63b8ff" points="147.07,-101.42 140.53,-93.08 140.44,-103.68 147.07,-101.42"/>
</a>
</g>
</g>
</g>
</svg>
</svg>

<style type='text/css'>
<![CDATA[
[data-mouse-over-selected='false'] { opacity: 0.7; }
[data-mouse-over-selected='true']  { opacity: 1.0; }
]]>
</style>
<script type="application/ecmascript"><![CDATA[
document.addEventListener('DOMContentLoaded', (event) => {
  highlightEdges();
  highlightAdjacentNodes();
});
]]></script>
</svg>
