<?xml version="1.0" encoding="UTF-8" standalone="no"?>
<!DOCTYPE svg PUBLIC "-//W3C//DTD SVG 1.1//EN"
 "http://www.w3.org/Graphics/SVG/1.1/DTD/svg11.dtd">
<!-- Generated by graphviz version 2.43.0 (0)
 -->
<!-- Title: fl::WaveSimulation1D_Real::~WaveSimulation1D_Real Pages: 1 -->
<!--zoomable 182 -->

<svg id="main" version="1.1" xmlns="http://www.w3.org/2000/svg" xmlns:xlink="http://www.w3.org/1999/xlink" xml:space="preserve" onload="init(evt)">

<style type="text/css"><![CDATA[
.node, .edge {opacity: 0.7;}
.node.selected, .edge.selected {opacity: 1;}
.edge:hover path { stroke: red; }
.edge:hover polygon { stroke: red; fill: red; }
]]></style>

<defs>
  <circle id="rim" cx="0" cy="0" r="7"/>
  <circle id="rim2" cx="0" cy="0" r="3.5"/>
  <g id="zoomPlus">
    <use xlink:href="#rim" fill="#404040"><set attributeName="fill" to="#808080" begin="zoomplus.mouseover" end="zoomplus.mouseout"/></use>
    <path d="M-4,0h8M0,-4v8" fill="none" stroke="white" stroke-width="1.5" pointer-events="none"/>
  </g>
  <g id="zoomMin">
    <use xlink:href="#rim" fill="#404040"><set attributeName="fill" to="#808080" begin="zoomminus.mouseover" end="zoomminus.mouseout"/></use>
    <path d="M-4,0h8" fill="none" stroke="white" stroke-width="1.5" pointer-events="none"/>
  </g>
  <g id="arrowUp" transform="translate(30 24)">
    <use xlink:href="#rim"/>
    <path pointer-events="none" fill="none" stroke="white" stroke-width="1.5" d="M0,-3.0v7 M-2.5,-0.5L0,-3.0L2.5,-0.5"/>
  </g>
  <g id="arrowRight" transform="rotate(90) translate(36 -43)">
    <use xlink:href="#rim"/>
    <path pointer-events="none" fill="none" stroke="white" stroke-width="1.5" d="M0,-3.0v7 M-2.5,-0.5L0,-3.0L2.5,-0.5"/>
  </g>
  <g id="arrowDown" transform="rotate(180) translate(-30 -48)">
    <use xlink:href="#rim"/>
    <path pointer-events="none" fill="none" stroke="white" stroke-width="1.5" d="M0,-3.0v7 M-2.5,-0.5L0,-3.0L2.5,-0.5"/>
  </g>
  <g id="arrowLeft" transform="rotate(270) translate(-36 17)">
    <use xlink:href="#rim"/>
    <path pointer-events="none" fill="none" stroke="white" stroke-width="1.5" d="M0,-3.0v7 M-2.5,-0.5L0,-3.0L2.5,-0.5"/>
  </g>
  <g id="resetDef">
    <use xlink:href="#rim2" fill="#404040"><set attributeName="fill" to="#808080" begin="reset.mouseover" end="reset.mouseout"/></use>
  </g>
</defs>
<script type="application/ecmascript">
var viewWidth = 776;
var viewHeight = 182;
var sectionId = 'dynsection-0';
</script>
<script type="application/ecmascript" xlink:href="../../svg.min.js"/>
<svg id="graph" class="graph">
<g id="viewport">
<title>fl::WaveSimulation1D_Real::~WaveSimulation1D_Real</title>
<!-- Node1 -->
<g id="Node000001" class="node">
<title>Node1</title>
<g id="a_Node000001"><a xlink:title=" ">
<polygon fill="#999999" stroke="#666666" points="178,-102 0,-102 0,-72 178,-72 178,-102"/>
<text text-anchor="start" x="8" y="-90" font-family="Helvetica,sans-Serif" font-size="10.00">fl::WaveSimulation1D</text>
<text text-anchor="middle" x="89" y="-79" font-family="Helvetica,sans-Serif" font-size="10.00">_Real::~WaveSimulation1D_Real</text>
</a>
</g>
</g>
<!-- Node2 -->
<g id="Node000002" class="node">
<title>Node2</title>
<g id="a_Node000002"><a xlink:href="../../da/df9/classfl_1_1_wave_simulation1_d___real_a716d817cbfa61e9e568789b469dc0ba1.html#a716d817cbfa61e9e568789b469dc0ba1" target="_top" xlink:title=" ">
<polygon fill="white" stroke="#666666" points="348,-174 214,-174 214,-144 348,-144 348,-174"/>
<text text-anchor="start" x="222" y="-162" font-family="Helvetica,sans-Serif" font-size="10.00">fl::WaveSimulation1D</text>
<text text-anchor="middle" x="281" y="-151" font-family="Helvetica,sans-Serif" font-size="10.00">_Real::getDampenening</text>
</a>
</g>
</g>
<!-- Node1&#45;&gt;Node2 -->
<g id="edge1_Node000001_Node000002" class="edge">
<title>Node1&#45;&gt;Node2</title>
<g id="a_edge1_Node000001_Node000002"><a xlink:title=" ">
<path fill="none" stroke="#63b8ff" d="M128.19,-102.02C152.67,-111.58 185.15,-124.17 214,-135 218.73,-136.78 223.66,-138.6 228.6,-140.42"/>
<polygon fill="#63b8ff" stroke="#63b8ff" points="227.46,-143.74 238.05,-143.89 229.87,-137.16 227.46,-143.74"/>
</a>
</g>
</g>
<!-- Node3 -->
<g id="Node000003" class="node">
<title>Node3</title>
<g id="a_Node000003"><a xlink:href="../../da/df9/classfl_1_1_wave_simulation1_d___real_a539034e71d1cd92798b8289bf8a4c415.html#a539034e71d1cd92798b8289bf8a4c415" target="_top" xlink:title=" ">
<polygon fill="white" stroke="#666666" points="342,-126 220,-126 220,-96 342,-96 342,-126"/>
<text text-anchor="start" x="228" y="-114" font-family="Helvetica,sans-Serif" font-size="10.00">fl::WaveSimulation1D</text>
<text text-anchor="middle" x="281" y="-103" font-family="Helvetica,sans-Serif" font-size="10.00">_Real::getSpeed</text>
</a>
</g>
</g>
<!-- Node1&#45;&gt;Node3 -->
<g id="edge2_Node000001_Node000003" class="edge">
<title>Node1&#45;&gt;Node3</title>
<g id="a_edge2_Node000001_Node000003"><a xlink:title=" ">
<path fill="none" stroke="#63b8ff" d="M178.05,-98.12C188.68,-99.46 199.42,-100.82 209.75,-102.13"/>
<polygon fill="#63b8ff" stroke="#63b8ff" points="209.56,-105.63 219.92,-103.41 210.43,-98.68 209.56,-105.63"/>
</a>
</g>
</g>
<!-- Node5 -->
<g id="Node000005" class="node">
<title>Node5</title>
<g id="a_Node000005"><a xlink:href="../../da/df9/classfl_1_1_wave_simulation1_d___real_a47760afe3646a6c744d6700480acb793.html#a47760afe3646a6c744d6700480acb793" target="_top" xlink:title=" ">
<polygon fill="white" stroke="#666666" points="342,-78 220,-78 220,-48 342,-48 342,-78"/>
<text text-anchor="start" x="228" y="-66" font-family="Helvetica,sans-Serif" font-size="10.00">fl::WaveSimulation1D</text>
<text text-anchor="middle" x="281" y="-55" font-family="Helvetica,sans-Serif" font-size="10.00">_Real::setDampening</text>
</a>
</g>
</g>
<!-- Node1&#45;&gt;Node5 -->
<g id="edge4_Node000001_Node000005" class="edge">
<title>Node1&#45;&gt;Node5</title>
<g id="a_edge4_Node000001_Node000005"><a xlink:title=" ">
<path fill="none" stroke="#63b8ff" d="M178.05,-75.88C188.68,-74.54 199.42,-73.18 209.75,-71.87"/>
<polygon fill="#63b8ff" stroke="#63b8ff" points="210.43,-75.32 219.92,-70.59 209.56,-68.37 210.43,-75.32"/>
</a>
</g>
</g>
<!-- Node9 -->
<g id="Node000009" class="node">
<title>Node9</title>
<g id="a_Node000009"><a xlink:href="../../da/df9/classfl_1_1_wave_simulation1_d___real_abb0ca604e383627374d21dd6e4e992df.html#abb0ca604e383627374d21dd6e4e992df" target="_top" xlink:title=" ">
<polygon fill="white" stroke="#666666" points="513.5,-30 391.5,-30 391.5,0 513.5,0 513.5,-30"/>
<text text-anchor="start" x="399.5" y="-18" font-family="Helvetica,sans-Serif" font-size="10.00">fl::WaveSimulation1D</text>
<text text-anchor="middle" x="452.5" y="-7" font-family="Helvetica,sans-Serif" font-size="10.00">_Real::setSpeed</text>
</a>
</g>
</g>
<!-- Node1&#45;&gt;Node9 -->
<g id="edge8_Node000001_Node000009" class="edge">
<title>Node1&#45;&gt;Node9</title>
<g id="a_edge8_Node000001_Node000009"><a xlink:title=" ">
<path fill="none" stroke="#63b8ff" d="M121.87,-71.92C146.48,-60.96 181.67,-46.74 214,-39 269.2,-25.78 333.31,-19.84 381,-17.17"/>
<polygon fill="#63b8ff" stroke="#63b8ff" points="381.42,-20.65 391.22,-16.63 381.05,-13.66 381.42,-20.65"/>
</a>
</g>
</g>
<!-- Node4 -->
<g id="Node000004" class="node">
<title>Node4</title>
<g id="a_Node000004"><a xlink:href="../../d9/d75/namespacefl_1_1wave__detail_abffe814cee732194d9dc3e73b7952adf.html#abffe814cee732194d9dc3e73b7952adf" target="_top" xlink:title=" ">
<polygon fill="white" stroke="#666666" points="511,-126 394,-126 394,-96 511,-96 511,-126"/>
<text text-anchor="start" x="402" y="-114" font-family="Helvetica,sans-Serif" font-size="10.00">fl::wave_detail::fixed</text>
<text text-anchor="middle" x="452.5" y="-103" font-family="Helvetica,sans-Serif" font-size="10.00">_to_float</text>
</a>
</g>
</g>
<!-- Node3&#45;&gt;Node4 -->
<g id="edge3_Node000003_Node000004" class="edge">
<title>Node3&#45;&gt;Node4</title>
<g id="a_edge3_Node000003_Node000004"><a xlink:title=" ">
<path fill="none" stroke="#63b8ff" d="M342.24,-111C355.58,-111 369.81,-111 383.45,-111"/>
<polygon fill="#63b8ff" stroke="#63b8ff" points="383.73,-114.5 393.73,-111 383.73,-107.5 383.73,-114.5"/>
</a>
</g>
</g>
<!-- Node6 -->
<g id="Node000006" class="node">
<title>Node6</title>
<g id="a_Node000006"><a xlink:href="../../d9/d75/namespacefl_1_1wave__detail_a6c2eb1d6aa9b90a303d6910c98ad9a73.html#a6c2eb1d6aa9b90a303d6910c98ad9a73" target="_top" xlink:title=" ">
<polygon fill="white" stroke="#666666" points="521,-78 384,-78 384,-48 521,-48 521,-78"/>
<text text-anchor="start" x="392" y="-66" font-family="Helvetica,sans-Serif" font-size="10.00">fl::wave_detail::compute</text>
<text text-anchor="middle" x="452.5" y="-55" font-family="Helvetica,sans-Serif" font-size="10.00">_damp_decay_q15</text>
</a>
</g>
</g>
<!-- Node5&#45;&gt;Node6 -->
<g id="edge5_Node000005_Node000006" class="edge">
<title>Node5&#45;&gt;Node6</title>
<g id="a_edge5_Node000005_Node000006"><a xlink:title=" ">
<path fill="none" stroke="#63b8ff" d="M342.24,-63C352.48,-63 363.24,-63 373.85,-63"/>
<polygon fill="#63b8ff" stroke="#63b8ff" points="373.96,-66.5 383.96,-63 373.96,-59.5 373.96,-66.5"/>
</a>
</g>
</g>
<!-- Node7 -->
<g id="Node000007" class="node">
<title>Node7</title>
<g id="a_Node000007"><a xlink:href="../../d9/d75/namespacefl_1_1wave__detail_a56eca07a74cb918e4002c1e7baa40a5d.html#a56eca07a74cb918e4002c1e7baa40a5d" target="_top" xlink:title=" ">
<polygon fill="white" stroke="#666666" points="673,-73 557,-73 557,-43 673,-43 673,-73"/>
<text text-anchor="start" x="565" y="-61" font-family="Helvetica,sans-Serif" font-size="10.00">fl::wave_detail::float</text>
<text text-anchor="middle" x="615" y="-50" font-family="Helvetica,sans-Serif" font-size="10.00">_to_fixed</text>
</a>
</g>
</g>
<!-- Node6&#45;&gt;Node7 -->
<g id="edge6_Node000006_Node000007" class="edge">
<title>Node6&#45;&gt;Node7</title>
<g id="a_edge6_Node000006_Node000007"><a xlink:title=" ">
<path fill="none" stroke="#63b8ff" d="M521.1,-60.89C529.57,-60.63 538.23,-60.36 546.69,-60.1"/>
<polygon fill="#63b8ff" stroke="#63b8ff" points="547,-63.59 556.88,-59.78 546.78,-56.59 547,-63.59"/>
</a>
</g>
</g>
<!-- Node8 -->
<g id="Node000008" class="node">
<title>Node8</title>
<g id="a_Node000008"><a xlink:href="../../d4/d36/namespacefl_afb42d6eb6443afc7223ce9b1a812f350.html#afb42d6eb6443afc7223ce9b1a812f350" target="_top" xlink:title=" ">
<polygon fill="white" stroke="#666666" points="768,-45.5 709,-45.5 709,-26.5 768,-26.5 768,-45.5"/>
<text text-anchor="middle" x="738.5" y="-33.5" font-family="Helvetica,sans-Serif" font-size="10.00">fl::clamp</text>
</a>
</g>
</g>
<!-- Node7&#45;&gt;Node8 -->
<g id="edge7_Node000007_Node000008" class="edge">
<title>Node7&#45;&gt;Node8</title>
<g id="a_edge7_Node000007_Node000008"><a xlink:title=" ">
<path fill="none" stroke="#63b8ff" d="M673.19,-47.64C681.93,-46.06 690.77,-44.46 698.99,-42.97"/>
<polygon fill="#63b8ff" stroke="#63b8ff" points="699.78,-46.39 709,-41.16 698.53,-39.5 699.78,-46.39"/>
</a>
</g>
</g>
<!-- Node9&#45;&gt;Node7 -->
<g id="edge10_Node000009_Node000007" class="edge">
<title>Node9&#45;&gt;Node7</title>
<g id="a_edge10_Node000009_Node000007"><a xlink:title=" ">
<path fill="none" stroke="#63b8ff" d="M509.64,-30.04C522.1,-33.38 535.41,-36.95 548.22,-40.38"/>
<polygon fill="#63b8ff" stroke="#63b8ff" points="547.33,-43.76 557.9,-42.97 549.14,-37 547.33,-43.76"/>
</a>
</g>
</g>
<!-- Node9&#45;&gt;Node8 -->
<g id="edge9_Node000009_Node000008" class="edge">
<title>Node9&#45;&gt;Node8</title>
<g id="a_edge9_Node000009_Node000008"><a xlink:title=" ">
<path fill="none" stroke="#63b8ff" d="M513.73,-19.45C569.59,-23.58 651.05,-29.61 698.73,-33.13"/>
<polygon fill="#63b8ff" stroke="#63b8ff" points="698.71,-36.64 708.94,-33.89 699.23,-29.66 698.71,-36.64"/>
</a>
</g>
</g>
</g>
</svg>

<g id="navigator" transform="translate(0 0)" fill="#404254">
  <rect fill="#f2f5e9" fill-opacity="0.5" stroke="#606060" stroke-width=".5" x="0" y="0" width="60" height="60"/>
  <use id="zoomplus" xlink:href="#zoomPlus" x="17" y="9" onmousedown="handleZoom(evt,'in')"/>
  <use id="zoomminus" xlink:href="#zoomMin" x="42" y="9" onmousedown="handleZoom(evt,'out')"/>
  <use id="reset" xlink:href="#resetDef" x="30" y="36" onmousedown="handleReset()"/>
   <use id="arrowup" xlink:href="#arrowUp" x="0" y="0" onmousedown="handlePan(0,-1)"/>
  <use id="arrowright" xlink:href="#arrowRight" x="0" y="0" onmousedown="handlePan(1,0)"/>
  <use id="arrowdown" xlink:href="#arrowDown" x="0" y="0" onmousedown="handlePan(0,1)"/>
  <use id="arrowleft" xlink:href="#arrowLeft" x="0" y="0" onmousedown="handlePan(-1,0)"/>
</g>
<svg viewBox="0 0 15 15" width="100%" height="30px" preserveAspectRatio="xMaxYMin meet">
 <g id="arrow_out" transform="scale(0.3 0.3)">
  <a xlink:href="classfl_1_1_wave_simulation1_d___real_a73bde0e0f650e6284bc0981d60873611_a73bde0e0f650e6284bc0981d60873611_cgraph_org.svg" target="_base">
   <rect id="button" ry="5" rx="5" y="6" x="6" height="38" width="38"
        fill="#f2f5e9" fill-opacity="0.5" stroke="#606060" stroke-width="1.0"/>
   <path id="arrow"
     d="M 11.500037,31.436501 C 11.940474,20.09759 22.043105,11.32322 32.158766,21.979434 L 37.068811,17.246167 C 37.068811,17.246167 37.088388,32 37.088388,32 L 22.160133,31.978069 C 22.160133,31.978069 26.997745,27.140456 26.997745,27.140456 C 18.528582,18.264221 13.291696,25.230495 11.500037,31.436501 z"
     style="fill:#404040;"/>
  </a>
 </g>
</svg>

<style type='text/css'>
<![CDATA[
[data-mouse-over-selected='false'] { opacity: 0.7; }
[data-mouse-over-selected='true']  { opacity: 1.0; }
]]>
</style>
<script type="application/ecmascript"><![CDATA[
document.addEventListener('DOMContentLoaded', (event) => {
  highlightEdges();
  highlightAdjacentNodes();
});
]]></script>
</svg>
