<?xml version="1.0" encoding="UTF-8" standalone="no"?>
<!DOCTYPE svg PUBLIC "-//W3C//DTD SVG 1.1//EN"
 "http://www.w3.org/Graphics/SVG/1.1/DTD/svg11.dtd">
<!-- Generated by graphviz version 2.43.0 (0)
 -->
<!-- Title: fl::unordered_map::iterator::iterator Pages: 1 -->
<svg width="437pt" height="116pt"
 viewBox="0.00 0.00 437.00 115.50" xmlns="http://www.w3.org/2000/svg" xmlns:xlink="http://www.w3.org/1999/xlink">
<g id="graph0" class="graph" transform="scale(1 1) rotate(0) translate(4 111.5)">
<title>fl::unordered_map::iterator::iterator</title>
<!-- Node1 -->
<g id="Node000001" class="node">
<title>Node1</title>
<g id="a_Node000001"><a xlink:title=" ">
<polygon fill="#999999" stroke="#666666" points="111,-66 0,-66 0,-36 111,-36 111,-66"/>
<text text-anchor="start" x="8" y="-54" font-family="Helvetica,sans-Serif" font-size="10.00">fl::unordered_map::</text>
<text text-anchor="middle" x="55.5" y="-43" font-family="Helvetica,sans-Serif" font-size="10.00">iterator::iterator</text>
</a>
</g>
</g>
<!-- Node2 -->
<g id="Node000002" class="node">
<title>Node2</title>
<g id="a_Node000002"><a xlink:href="../../d0/d17/structfl_1_1unordered__map_1_1iterator_ae2570093b1766fbe5e0d2324238c718a.html#ae2570093b1766fbe5e0d2324238c718a" target="_top" xlink:title=" ">
<polygon fill="white" stroke="#666666" points="272,-107.5 157,-107.5 157,-66.5 272,-66.5 272,-107.5"/>
<text text-anchor="start" x="165" y="-95.5" font-family="Helvetica,sans-Serif" font-size="10.00">fl::unordered_map::</text>
<text text-anchor="start" x="165" y="-84.5" font-family="Helvetica,sans-Serif" font-size="10.00">iterator::advance_to</text>
<text text-anchor="middle" x="214.5" y="-73.5" font-family="Helvetica,sans-Serif" font-size="10.00">_occupied</text>
</a>
</g>
</g>
<!-- Node1&#45;&gt;Node2 -->
<g id="edge1_Node000001_Node000002" class="edge">
<title>Node1&#45;&gt;Node2</title>
<g id="a_edge1_Node000001_Node000002"><a xlink:title=" ">
<path fill="none" stroke="#63b8ff" d="M111.41,-63.59C122.88,-66.22 135.09,-69.02 146.92,-71.73"/>
<polygon fill="#63b8ff" stroke="#63b8ff" points="146.23,-75.17 156.76,-73.99 147.79,-68.34 146.23,-75.17"/>
</a>
</g>
</g>
<!-- Node4 -->
<g id="Node000004" class="node">
<title>Node4</title>
<g id="a_Node000004"><a xlink:href="../../d0/d17/structfl_1_1unordered__map_1_1iterator_a8d324e9a29f6560595debe269360bc47.html#a8d324e9a29f6560595debe269360bc47" target="_top" xlink:title=" ">
<polygon fill="white" stroke="#666666" points="282,-30 147,-30 147,0 282,0 282,-30"/>
<text text-anchor="start" x="155" y="-18" font-family="Helvetica,sans-Serif" font-size="10.00">fl::unordered_map::</text>
<text text-anchor="middle" x="214.5" y="-7" font-family="Helvetica,sans-Serif" font-size="10.00">iterator::unordered_map</text>
</a>
</g>
</g>
<!-- Node1&#45;&gt;Node4 -->
<g id="edge3_Node000001_Node000004" class="edge">
<title>Node1&#45;&gt;Node4</title>
<g id="a_edge3_Node000001_Node000004"><a xlink:title=" ">
<path fill="none" stroke="#63b8ff" d="M111.41,-38.41C119.96,-36.45 128.91,-34.4 137.82,-32.35"/>
<polygon fill="#63b8ff" stroke="#63b8ff" points="138.87,-35.7 147.83,-30.06 137.3,-28.88 138.87,-35.7"/>
</a>
</g>
</g>
<!-- Node3 -->
<g id="Node000003" class="node">
<title>Node3</title>
<g id="a_Node000003"><a xlink:href="../../dc/d56/classfl_1_1unordered__map_ab2263d2a35ccaa9c63789365be8df534.html#ab2263d2a35ccaa9c63789365be8df534" target="_top" xlink:title=" ">
<polygon fill="white" stroke="#666666" points="429,-102 318,-102 318,-72 429,-72 429,-102"/>
<text text-anchor="start" x="326" y="-90" font-family="Helvetica,sans-Serif" font-size="10.00">fl::unordered_map::</text>
<text text-anchor="middle" x="373.5" y="-79" font-family="Helvetica,sans-Serif" font-size="10.00">is_occupied</text>
</a>
</g>
</g>
<!-- Node2&#45;&gt;Node3 -->
<g id="edge2_Node000002_Node000003" class="edge">
<title>Node2&#45;&gt;Node3</title>
<g id="a_edge2_Node000002_Node000003"><a xlink:title=" ">
<path fill="none" stroke="#63b8ff" d="M272.18,-87C283.66,-87 295.82,-87 307.56,-87"/>
<polygon fill="#63b8ff" stroke="#63b8ff" points="307.74,-90.5 317.74,-87 307.74,-83.5 307.74,-90.5"/>
</a>
</g>
</g>
<!-- Node4&#45;&gt;Node4 -->
<g id="edge4_Node000004_Node000004" class="edge">
<title>Node4&#45;&gt;Node4</title>
<g id="a_edge4_Node000004_Node000004"><a xlink:title=" ">
<path fill="none" stroke="#63b8ff" d="M186.73,-30.28C180.55,-39.41 189.81,-48 214.5,-48 229.16,-48 238.38,-44.97 242.16,-40.6"/>
<polygon fill="#63b8ff" stroke="#63b8ff" points="245.66,-40.31 242.27,-30.28 238.66,-40.23 245.66,-40.31"/>
</a>
</g>
</g>
</g>
</svg>
