<?xml version="1.0" encoding="UTF-8" standalone="no"?>
<!DOCTYPE svg PUBLIC "-//W3C//DTD SVG 1.1//EN"
 "http://www.w3.org/Graphics/SVG/1.1/DTD/svg11.dtd">
<!-- Generated by graphviz version 2.43.0 (0)
 -->
<!-- Title: fl/math/supersample.h Pages: 1 -->
<svg width="1213pt" height="225pt"
 viewBox="0.00 0.00 1213.00 225.00" xmlns="http://www.w3.org/2000/svg" xmlns:xlink="http://www.w3.org/1999/xlink">
<g id="graph0" class="graph" transform="scale(1 1) rotate(0) translate(4 221)">
<title>fl/math/supersample.h</title>
<!-- Node1 -->
<g id="Node000001" class="node">
<title>Node1</title>
<g id="a_Node000001"><a xlink:title=" ">
<polygon fill="#999999" stroke="#666666" points="766,-217 640,-217 640,-198 766,-198 766,-217"/>
<text text-anchor="middle" x="703" y="-205" font-family="Helvetica,sans-Serif" font-size="10.00">fl/math/supersample.h</text>
</a>
</g>
</g>
<!-- Node2 -->
<g id="Node000002" class="node">
<title>Node2</title>
<g id="a_Node000002"><a xlink:href="../../dc/d36/wave__simulation_8h.html" target="_top" xlink:title=" ">
<polygon fill="white" stroke="#666666" points="791,-162 615,-162 615,-143 791,-143 791,-162"/>
<text text-anchor="middle" x="703" y="-150" font-family="Helvetica,sans-Serif" font-size="10.00">fl/math/wave/wave_simulation.h</text>
</a>
</g>
</g>
<!-- Node1&#45;&gt;Node2 -->
<g id="edge1_Node000001_Node000002" class="edge">
<title>Node1&#45;&gt;Node2</title>
<g id="a_edge1_Node000001_Node000002"><a xlink:title=" ">
<path fill="none" stroke="#63b8ff" d="M703,-187.66C703,-178.93 703,-168.99 703,-162.09"/>
<polygon fill="#63b8ff" stroke="#63b8ff" points="699.5,-187.75 703,-197.75 706.5,-187.75 699.5,-187.75"/>
</a>
</g>
</g>
<!-- Node3 -->
<g id="Node000003" class="node">
<title>Node3</title>
<g id="a_Node000003"><a xlink:href="../../d8/d78/examples_2_wave_2wave_8h.html" target="_top" xlink:title=" ">
<polygon fill="white" stroke="#666666" points="376,-107 198,-107 198,-77 376,-77 376,-107"/>
<text text-anchor="start" x="206" y="-95" font-family="Helvetica,sans-Serif" font-size="10.00">/home/runner/work/FastLED</text>
<text text-anchor="middle" x="287" y="-84" font-family="Helvetica,sans-Serif" font-size="10.00">/FastLED/examples/Wave/Wave.h</text>
</a>
</g>
</g>
<!-- Node2&#45;&gt;Node3 -->
<g id="edge2_Node000002_Node000003" class="edge">
<title>Node2&#45;&gt;Node3</title>
<g id="a_edge2_Node000002_Node000003"><a xlink:title=" ">
<path fill="none" stroke="#63b8ff" d="M632.38,-141.57C561.76,-131.64 452.92,-116.33 376.34,-105.56"/>
<polygon fill="#63b8ff" stroke="#63b8ff" points="632.12,-145.07 642.51,-142.99 633.09,-138.14 632.12,-145.07"/>
</a>
</g>
</g>
<!-- Node5 -->
<g id="Node000005" class="node">
<title>Node5</title>
<g id="a_Node000005"><a xlink:href="../../d2/d50/src_2fl_2fx_22d_2wave_8h.html" target="_top" xlink:title="2D wave simulation effect for LED matrices">
<polygon fill="white" stroke="#666666" points="694.5,-101.5 605.5,-101.5 605.5,-82.5 694.5,-82.5 694.5,-101.5"/>
<text text-anchor="middle" x="650" y="-89.5" font-family="Helvetica,sans-Serif" font-size="10.00">fl/fx/2d/wave.h</text>
</a>
</g>
</g>
<!-- Node2&#45;&gt;Node5 -->
<g id="edge4_Node000002_Node000005" class="edge">
<title>Node2&#45;&gt;Node5</title>
<g id="a_edge4_Node000002_Node000005"><a xlink:title=" ">
<path fill="none" stroke="#63b8ff" d="M688.3,-135.27C678.44,-124.39 665.85,-110.49 657.85,-101.67"/>
<polygon fill="#63b8ff" stroke="#63b8ff" points="685.87,-137.81 695.18,-142.87 691.06,-133.11 685.87,-137.81"/>
</a>
</g>
</g>
<!-- Node25 -->
<g id="Node000025" class="node">
<title>Node25</title>
<g id="a_Node000025"><a xlink:href="../../d9/d3e/src_2fl_2math_2wave_8h.html" target="_top" xlink:title="Umbrella header for wave simulation subsystem.">
<polygon fill="white" stroke="#666666" points="801.5,-101.5 712.5,-101.5 712.5,-82.5 801.5,-82.5 801.5,-101.5"/>
<text text-anchor="middle" x="757" y="-89.5" font-family="Helvetica,sans-Serif" font-size="10.00">fl/math/wave.h</text>
</a>
</g>
</g>
<!-- Node2&#45;&gt;Node25 -->
<g id="edge10_Node000002_Node000025" class="edge">
<title>Node2&#45;&gt;Node25</title>
<g id="a_edge10_Node000002_Node000025"><a xlink:title=" ">
<path fill="none" stroke="#63b8ff" d="M717.98,-135.27C728.02,-124.39 740.85,-110.49 749,-101.67"/>
<polygon fill="#63b8ff" stroke="#63b8ff" points="715.18,-133.15 710.97,-142.87 720.32,-137.89 715.18,-133.15"/>
</a>
</g>
</g>
<!-- Node26 -->
<g id="Node000026" class="node">
<title>Node26</title>
<g id="a_Node000026"><a xlink:href="../../d1/d24/wave__simulation_8cpp_8hpp.html" target="_top" xlink:title=" ">
<polygon fill="white" stroke="#666666" points="1130,-101.5 922,-101.5 922,-82.5 1130,-82.5 1130,-101.5"/>
<text text-anchor="middle" x="1026" y="-89.5" font-family="Helvetica,sans-Serif" font-size="10.00">fl/math/wave/wave_simulation.cpp.hpp</text>
</a>
</g>
</g>
<!-- Node2&#45;&gt;Node26 -->
<g id="edge11_Node000002_Node000026" class="edge">
<title>Node2&#45;&gt;Node26</title>
<g id="a_edge11_Node000002_Node000026"><a xlink:title=" ">
<path fill="none" stroke="#63b8ff" d="M760.02,-141.17C822.31,-129.89 920.94,-112.03 978.98,-101.52"/>
<polygon fill="#63b8ff" stroke="#63b8ff" points="759.18,-137.77 749.97,-142.99 760.43,-144.66 759.18,-137.77"/>
</a>
</g>
</g>
<!-- Node4 -->
<g id="Node000004" class="node">
<title>Node4</title>
<g id="a_Node000004"><a xlink:href="../../d1/d16/_wave_8ino.html" target="_top" xlink:title=" ">
<polygon fill="white" stroke="#666666" points="150,-41 0,-41 0,0 150,0 150,-41"/>
<text text-anchor="start" x="8" y="-29" font-family="Helvetica,sans-Serif" font-size="10.00">/home/runner/work/FastLED</text>
<text text-anchor="start" x="8" y="-18" font-family="Helvetica,sans-Serif" font-size="10.00">/FastLED/examples/Wave</text>
<text text-anchor="middle" x="75" y="-7" font-family="Helvetica,sans-Serif" font-size="10.00">/Wave.ino</text>
</a>
</g>
</g>
<!-- Node3&#45;&gt;Node4 -->
<g id="edge3_Node000003_Node000004" class="edge">
<title>Node3&#45;&gt;Node4</title>
<g id="a_edge3_Node000003_Node000004"><a xlink:title=" ">
<path fill="none" stroke="#63b8ff" d="M234.57,-73.81C204.3,-63.89 166.13,-51.37 134.71,-41.07"/>
<polygon fill="#63b8ff" stroke="#63b8ff" points="233.51,-77.15 244.1,-76.94 235.69,-70.49 233.51,-77.15"/>
</a>
</g>
</g>
<!-- Node6 -->
<g id="Node000006" class="node">
<title>Node6</title>
<g id="a_Node000006"><a xlink:href="../../de/d79/examples_2_downscale_2src_2wave_8h.html" target="_top" xlink:title=" ">
<polygon fill="#fff0f0" stroke="red" points="333.5,-41 168.5,-41 168.5,0 333.5,0 333.5,-41"/>
<text text-anchor="start" x="176.5" y="-29" font-family="Helvetica,sans-Serif" font-size="10.00">/home/runner/work/FastLED</text>
<text text-anchor="start" x="176.5" y="-18" font-family="Helvetica,sans-Serif" font-size="10.00">/FastLED/examples/Downscale</text>
<text text-anchor="middle" x="251" y="-7" font-family="Helvetica,sans-Serif" font-size="10.00">/src/wave.h</text>
</a>
</g>
</g>
<!-- Node5&#45;&gt;Node6 -->
<g id="edge5_Node000005_Node000006" class="edge">
<title>Node5&#45;&gt;Node6</title>
<g id="a_edge5_Node000005_Node000006"><a xlink:title=" ">
<path fill="none" stroke="#63b8ff" d="M595.15,-82.87C533.62,-73.56 430.93,-57.47 343,-41 339.95,-40.43 336.85,-39.84 333.71,-39.23"/>
<polygon fill="#63b8ff" stroke="#63b8ff" points="594.99,-86.38 605.4,-84.41 596.03,-79.46 594.99,-86.38"/>
</a>
</g>
</g>
<!-- Node10 -->
<g id="Node000010" class="node">
<title>Node10</title>
<g id="a_Node000010"><a xlink:href="../../d4/d06/curr_8h.html" target="_top" xlink:title=" ">
<polygon fill="#fff0f0" stroke="red" points="556,-35.5 352,-35.5 352,-5.5 556,-5.5 556,-35.5"/>
<text text-anchor="start" x="360" y="-23.5" font-family="Helvetica,sans-Serif" font-size="10.00">/home/runner/work/FastLED</text>
<text text-anchor="middle" x="454" y="-12.5" font-family="Helvetica,sans-Serif" font-size="10.00">/FastLED/examples/FestivalStick/curr.h</text>
</a>
</g>
</g>
<!-- Node5&#45;&gt;Node10 -->
<g id="edge6_Node000005_Node000010" class="edge">
<title>Node5&#45;&gt;Node10</title>
<g id="a_edge6_Node000005_Node000010"><a xlink:title=" ">
<path fill="none" stroke="#63b8ff" d="M616.45,-79.1C582.37,-67.02 529.59,-48.3 493.5,-35.51"/>
<polygon fill="#63b8ff" stroke="#63b8ff" points="615.37,-82.43 625.97,-82.48 617.71,-75.84 615.37,-82.43"/>
</a>
</g>
</g>
<!-- Node12 -->
<g id="Node000012" class="node">
<title>Node12</title>
<g id="a_Node000012"><a xlink:href="../../d5/d94/_wave2d_8h.html" target="_top" xlink:title=" ">
<polygon fill="#fff0f0" stroke="red" points="725.5,-41 574.5,-41 574.5,0 725.5,0 725.5,-41"/>
<text text-anchor="start" x="582.5" y="-29" font-family="Helvetica,sans-Serif" font-size="10.00">/home/runner/work/FastLED</text>
<text text-anchor="start" x="582.5" y="-18" font-family="Helvetica,sans-Serif" font-size="10.00">/FastLED/examples/Wave2d</text>
<text text-anchor="middle" x="650" y="-7" font-family="Helvetica,sans-Serif" font-size="10.00">/Wave2d.h</text>
</a>
</g>
</g>
<!-- Node5&#45;&gt;Node12 -->
<g id="edge7_Node000005_Node000012" class="edge">
<title>Node5&#45;&gt;Node12</title>
<g id="a_edge7_Node000005_Node000012"><a xlink:title=" ">
<path fill="none" stroke="#63b8ff" d="M650,-72.38C650,-62.74 650,-50.96 650,-41.17"/>
<polygon fill="#63b8ff" stroke="#63b8ff" points="646.5,-72.48 650,-82.48 653.5,-72.48 646.5,-72.48"/>
</a>
</g>
</g>
<!-- Node14 -->
<g id="Node000014" class="node">
<title>Node14</title>
<g id="a_Node000014"><a xlink:href="../../db/dd3/examples_2_x_y_path_2src_2wave_8h.html" target="_top" xlink:title=" ">
<polygon fill="#fff0f0" stroke="red" points="894,-41 744,-41 744,0 894,0 894,-41"/>
<text text-anchor="start" x="752" y="-29" font-family="Helvetica,sans-Serif" font-size="10.00">/home/runner/work/FastLED</text>
<text text-anchor="start" x="752" y="-18" font-family="Helvetica,sans-Serif" font-size="10.00">/FastLED/examples/XYPath</text>
<text text-anchor="middle" x="819" y="-7" font-family="Helvetica,sans-Serif" font-size="10.00">/src/wave.h</text>
</a>
</g>
</g>
<!-- Node5&#45;&gt;Node14 -->
<g id="edge8_Node000005_Node000014" class="edge">
<title>Node5&#45;&gt;Node14</title>
<g id="a_edge8_Node000005_Node000014"><a xlink:title=" ">
<path fill="none" stroke="#63b8ff" d="M680.18,-78.59C705.54,-68.16 742.22,-53.07 771.52,-41.03"/>
<polygon fill="#63b8ff" stroke="#63b8ff" points="678.64,-75.44 670.72,-82.48 681.3,-81.91 678.64,-75.44"/>
</a>
</g>
</g>
<!-- Node20 -->
<g id="Node000020" class="node">
<title>Node20</title>
<g id="a_Node000020"><a xlink:href="../../dd/d65/wave_8cpp_8hpp.html" target="_top" xlink:title=" ">
<polygon fill="#fff0f0" stroke="red" points="1032.5,-30 911.5,-30 911.5,-11 1032.5,-11 1032.5,-30"/>
<text text-anchor="middle" x="972" y="-18" font-family="Helvetica,sans-Serif" font-size="10.00">fl/fx/2d/wave.cpp.hpp</text>
</a>
</g>
</g>
<!-- Node5&#45;&gt;Node20 -->
<g id="edge9_Node000005_Node000020" class="edge">
<title>Node5&#45;&gt;Node20</title>
<g id="a_edge9_Node000005_Node000020"><a xlink:title=" ">
<path fill="none" stroke="#63b8ff" d="M691.24,-79.97C695.54,-78.92 699.85,-77.91 704,-77 791.79,-57.71 815.43,-61.25 903,-41 916.58,-37.86 931.49,-33.73 943.96,-30.09"/>
<polygon fill="#63b8ff" stroke="#63b8ff" points="690.16,-76.63 681.31,-82.46 691.87,-83.42 690.16,-76.63"/>
</a>
</g>
</g>
<!-- Node27 -->
<g id="Node000027" class="node">
<title>Node27</title>
<g id="a_Node000027"><a xlink:href="../../da/d36/fl_2math_2wave_2__build_8cpp_8hpp.html" target="_top" xlink:title="Unity build header for fl/math/wave/ directory.">
<polygon fill="#fff0f0" stroke="red" points="1205,-30 1051,-30 1051,-11 1205,-11 1205,-30"/>
<text text-anchor="middle" x="1128" y="-18" font-family="Helvetica,sans-Serif" font-size="10.00">fl/math/wave/_build.cpp.hpp</text>
</a>
</g>
</g>
<!-- Node26&#45;&gt;Node27 -->
<g id="edge12_Node000026_Node000027" class="edge">
<title>Node26&#45;&gt;Node27</title>
<g id="a_edge12_Node000026_Node000027"><a xlink:title=" ">
<path fill="none" stroke="#63b8ff" d="M1046.9,-76.76C1067.5,-62.73 1098.28,-41.75 1115.39,-30.09"/>
<polygon fill="#63b8ff" stroke="#63b8ff" points="1044.8,-73.95 1038.51,-82.48 1048.74,-79.74 1044.8,-73.95"/>
</a>
</g>
</g>
</g>
</svg>
