<?xml version="1.0" encoding="UTF-8" standalone="no"?>
<!DOCTYPE svg PUBLIC "-//W3C//DTD SVG 1.1//EN"
 "http://www.w3.org/Graphics/SVG/1.1/DTD/svg11.dtd">
<!-- Generated by graphviz version 2.43.0 (0)
 -->
<!-- Title: fl::audio::detector::MultiBandBeat::detectBeats Pages: 1 -->
<svg width="382pt" height="253pt"
 viewBox="0.00 0.00 382.00 253.00" xmlns="http://www.w3.org/2000/svg" xmlns:xlink="http://www.w3.org/1999/xlink">
<g id="graph0" class="graph" transform="scale(1 1) rotate(0) translate(4 249)">
<title>fl::audio::detector::MultiBandBeat::detectBeats</title>
<!-- Node1 -->
<g id="Node000001" class="node">
<title>Node1</title>
<g id="a_Node000001"><a xlink:title="Detect beats in all frequency bands.">
<polygon fill="#999999" stroke="#666666" points="159,-121.5 0,-121.5 0,-91.5 159,-91.5 159,-121.5"/>
<text text-anchor="start" x="8" y="-109.5" font-family="Helvetica,sans-Serif" font-size="10.00">fl::audio::detector</text>
<text text-anchor="middle" x="79.5" y="-98.5" font-family="Helvetica,sans-Serif" font-size="10.00">::MultiBandBeat::detectBeats</text>
</a>
</g>
</g>
<!-- Node2 -->
<g id="Node000002" class="node">
<title>Node2</title>
<g id="a_Node000002"><a xlink:href="../../d8/d35/classfl_1_1audio_1_1detector_1_1_multi_band_beat_a87124ad16e03c77d722f7ec4b702338d.html#a87124ad16e03c77d722f7ec4b702338d" target="_top" xlink:title="Calculate energy for bass band (bins 0&#45;1)">
<polygon fill="white" stroke="#666666" points="357,-245 212,-245 212,-204 357,-204 357,-245"/>
<text text-anchor="start" x="220" y="-233" font-family="Helvetica,sans-Serif" font-size="10.00">fl::audio::detector</text>
<text text-anchor="start" x="220" y="-222" font-family="Helvetica,sans-Serif" font-size="10.00">::MultiBandBeat::calculate</text>
<text text-anchor="middle" x="284.5" y="-211" font-family="Helvetica,sans-Serif" font-size="10.00">BassEnergy</text>
</a>
</g>
</g>
<!-- Node1&#45;&gt;Node2 -->
<g id="edge1_Node000001_Node000002" class="edge">
<title>Node1&#45;&gt;Node2</title>
<g id="a_edge1_Node000001_Node000002"><a xlink:title=" ">
<path fill="none" stroke="#63b8ff" d="M96.31,-121.71C117.32,-141.21 156.32,-174.93 195,-195.5 197.86,-197.02 200.8,-198.48 203.82,-199.87"/>
<polygon fill="#63b8ff" stroke="#63b8ff" points="202.44,-203.09 213,-203.89 205.24,-196.68 202.44,-203.09"/>
</a>
</g>
</g>
<!-- Node3 -->
<g id="Node000003" class="node">
<title>Node3</title>
<g id="a_Node000003"><a xlink:href="../../d8/d35/classfl_1_1audio_1_1detector_1_1_multi_band_beat_a3a4b66b06bbccc2f2a48baa589759056.html#a3a4b66b06bbccc2f2a48baa589759056" target="_top" xlink:title="Calculate energy for mid band (bins 6&#45;7)">
<polygon fill="white" stroke="#666666" points="357,-186 212,-186 212,-145 357,-145 357,-186"/>
<text text-anchor="start" x="220" y="-174" font-family="Helvetica,sans-Serif" font-size="10.00">fl::audio::detector</text>
<text text-anchor="start" x="220" y="-163" font-family="Helvetica,sans-Serif" font-size="10.00">::MultiBandBeat::calculate</text>
<text text-anchor="middle" x="284.5" y="-152" font-family="Helvetica,sans-Serif" font-size="10.00">MidEnergy</text>
</a>
</g>
</g>
<!-- Node1&#45;&gt;Node3 -->
<g id="edge2_Node000001_Node000003" class="edge">
<title>Node1&#45;&gt;Node3</title>
<g id="a_edge2_Node000001_Node000003"><a xlink:title=" ">
<path fill="none" stroke="#63b8ff" d="M132.25,-121.54C153.73,-127.78 179.15,-135.17 202.96,-142.09"/>
<polygon fill="#63b8ff" stroke="#63b8ff" points="202.12,-145.49 212.7,-144.92 204.07,-138.77 202.12,-145.49"/>
</a>
</g>
</g>
<!-- Node4 -->
<g id="Node000004" class="node">
<title>Node4</title>
<g id="a_Node000004"><a xlink:href="../../d8/d35/classfl_1_1audio_1_1detector_1_1_multi_band_beat_af1dac745ebe25331e624d24be3262e4d.html#af1dac745ebe25331e624d24be3262e4d" target="_top" xlink:title="Calculate energy for treble band (bins 14&#45;15)">
<polygon fill="white" stroke="#666666" points="357,-127 212,-127 212,-86 357,-86 357,-127"/>
<text text-anchor="start" x="220" y="-115" font-family="Helvetica,sans-Serif" font-size="10.00">fl::audio::detector</text>
<text text-anchor="start" x="220" y="-104" font-family="Helvetica,sans-Serif" font-size="10.00">::MultiBandBeat::calculate</text>
<text text-anchor="middle" x="284.5" y="-93" font-family="Helvetica,sans-Serif" font-size="10.00">TrebleEnergy</text>
</a>
</g>
</g>
<!-- Node1&#45;&gt;Node4 -->
<g id="edge3_Node000001_Node000004" class="edge">
<title>Node1&#45;&gt;Node4</title>
<g id="a_edge3_Node000001_Node000004"><a xlink:title=" ">
<path fill="none" stroke="#63b8ff" d="M159.28,-106.5C173.18,-106.5 187.68,-106.5 201.66,-106.5"/>
<polygon fill="#63b8ff" stroke="#63b8ff" points="201.73,-110 211.73,-106.5 201.73,-103 201.73,-110"/>
</a>
</g>
</g>
<!-- Node5 -->
<g id="Node000005" class="node">
<title>Node5</title>
<g id="a_Node000005"><a xlink:href="../../d8/d35/classfl_1_1audio_1_1detector_1_1_multi_band_beat_a1bc8b4ad09883caaf0bface7b6e2d0cc.html#a1bc8b4ad09883caaf0bface7b6e2d0cc" target="_top" xlink:title="Detect beat in a specific frequency band.">
<polygon fill="white" stroke="#666666" points="374,-67.5 195,-67.5 195,-37.5 374,-37.5 374,-67.5"/>
<text text-anchor="start" x="203" y="-55.5" font-family="Helvetica,sans-Serif" font-size="10.00">fl::audio::detector</text>
<text text-anchor="middle" x="284.5" y="-44.5" font-family="Helvetica,sans-Serif" font-size="10.00">::MultiBandBeat::detectBandBeat</text>
</a>
</g>
</g>
<!-- Node1&#45;&gt;Node5 -->
<g id="edge4_Node000001_Node000005" class="edge">
<title>Node1&#45;&gt;Node5</title>
<g id="a_edge4_Node000001_Node000005"><a xlink:title=" ">
<path fill="none" stroke="#63b8ff" d="M137.05,-91.46C161.91,-84.84 191.28,-77.03 217.17,-70.14"/>
<polygon fill="#63b8ff" stroke="#63b8ff" points="218.14,-73.51 226.9,-67.55 216.34,-66.74 218.14,-73.51"/>
</a>
</g>
</g>
<!-- Node6 -->
<g id="Node000006" class="node">
<title>Node6</title>
<g id="a_Node000006"><a xlink:href="../../d0/d08/classfl_1_1span_aef7ee7eb5254da1ba1eb4f3e0173d0ac.html#aef7ee7eb5254da1ba1eb4f3e0173d0ac" target="_top" xlink:title=" ">
<polygon fill="white" stroke="#666666" points="323,-19 246,-19 246,0 323,0 323,-19"/>
<text text-anchor="middle" x="284.5" y="-7" font-family="Helvetica,sans-Serif" font-size="10.00">fl::span::size</text>
</a>
</g>
</g>
<!-- Node1&#45;&gt;Node6 -->
<g id="edge5_Node000001_Node000006" class="edge">
<title>Node1&#45;&gt;Node6</title>
<g id="a_edge5_Node000001_Node000006"><a xlink:title=" ">
<path fill="none" stroke="#63b8ff" d="M97.86,-91.46C119.25,-73.71 157.41,-44.6 195,-28.5 207.78,-23.03 222.29,-19.07 235.81,-16.23"/>
<polygon fill="#63b8ff" stroke="#63b8ff" points="236.77,-19.61 245.92,-14.27 235.43,-12.74 236.77,-19.61"/>
</a>
</g>
</g>
</g>
</svg>
