<?xml version="1.0" encoding="UTF-8" standalone="no"?>
<!DOCTYPE svg PUBLIC "-//W3C//DTD SVG 1.1//EN"
 "http://www.w3.org/Graphics/SVG/1.1/DTD/svg11.dtd">
<!-- Generated by graphviz version 2.43.0 (0)
 -->
<!-- Title: fl::Fluffy_Blobs_FP::draw Pages: 1 -->
<!--zoomable 161 -->

<svg id="main" version="1.1" xmlns="http://www.w3.org/2000/svg" xmlns:xlink="http://www.w3.org/1999/xlink" xml:space="preserve" onload="init(evt)">

<style type="text/css"><![CDATA[
.node, .edge {opacity: 0.7;}
.node.selected, .edge.selected {opacity: 1;}
.edge:hover path { stroke: red; }
.edge:hover polygon { stroke: red; fill: red; }
]]></style>

<defs>
  <circle id="rim" cx="0" cy="0" r="7"/>
  <circle id="rim2" cx="0" cy="0" r="3.5"/>
  <g id="zoomPlus">
    <use xlink:href="#rim" fill="#404040"><set attributeName="fill" to="#808080" begin="zoomplus.mouseover" end="zoomplus.mouseout"/></use>
    <path d="M-4,0h8M0,-4v8" fill="none" stroke="white" stroke-width="1.5" pointer-events="none"/>
  </g>
  <g id="zoomMin">
    <use xlink:href="#rim" fill="#404040"><set attributeName="fill" to="#808080" begin="zoomminus.mouseover" end="zoomminus.mouseout"/></use>
    <path d="M-4,0h8" fill="none" stroke="white" stroke-width="1.5" pointer-events="none"/>
  </g>
  <g id="arrowUp" transform="translate(30 24)">
    <use xlink:href="#rim"/>
    <path pointer-events="none" fill="none" stroke="white" stroke-width="1.5" d="M0,-3.0v7 M-2.5,-0.5L0,-3.0L2.5,-0.5"/>
  </g>
  <g id="arrowRight" transform="rotate(90) translate(36 -43)">
    <use xlink:href="#rim"/>
    <path pointer-events="none" fill="none" stroke="white" stroke-width="1.5" d="M0,-3.0v7 M-2.5,-0.5L0,-3.0L2.5,-0.5"/>
  </g>
  <g id="arrowDown" transform="rotate(180) translate(-30 -48)">
    <use xlink:href="#rim"/>
    <path pointer-events="none" fill="none" stroke="white" stroke-width="1.5" d="M0,-3.0v7 M-2.5,-0.5L0,-3.0L2.5,-0.5"/>
  </g>
  <g id="arrowLeft" transform="rotate(270) translate(-36 17)">
    <use xlink:href="#rim"/>
    <path pointer-events="none" fill="none" stroke="white" stroke-width="1.5" d="M0,-3.0v7 M-2.5,-0.5L0,-3.0L2.5,-0.5"/>
  </g>
  <g id="resetDef">
    <use xlink:href="#rim2" fill="#404040"><set attributeName="fill" to="#808080" begin="reset.mouseover" end="reset.mouseout"/></use>
  </g>
</defs>
<script type="application/ecmascript">
var viewWidth = 558;
var viewHeight = 161;
var sectionId = 'dynsection-0';
</script>
<script type="application/ecmascript" xlink:href="../../svg.min.js"/>
<svg id="graph" class="graph">
<g id="viewport">
<title>fl::Fluffy_Blobs_FP::draw</title>
<!-- Node1 -->
<g id="Node000001" class="node">
<title>Node1</title>
<g id="a_Node000001"><a xlink:title=" ">
<polygon fill="#999999" stroke="#666666" points="106,-121.5 0,-121.5 0,-91.5 106,-91.5 106,-121.5"/>
<text text-anchor="start" x="8" y="-109.5" font-family="Helvetica,sans-Serif" font-size="10.00">fl::Fluffy_Blobs_FP</text>
<text text-anchor="middle" x="53" y="-98.5" font-family="Helvetica,sans-Serif" font-size="10.00">::draw</text>
</a>
</g>
</g>
<!-- Node2 -->
<g id="Node000002" class="node">
<title>Node2</title>
<g id="a_Node000002"><a xlink:href="../../da/d3c/namespacefl_1_1fl_ab4a4a89750bf923005084995e1de2f92.html#ab4a4a89750bf923005084995e1de2f92" target="_top" xlink:title=" ">
<polygon fill="white" stroke="#666666" points="262,-138 142,-138 142,-119 262,-119 262,-138"/>
<text text-anchor="middle" x="202" y="-126" font-family="Helvetica,sans-Serif" font-size="10.00">fl::fl::assume_aligned</text>
</a>
</g>
</g>
<!-- Node1&#45;&gt;Node2 -->
<g id="edge1_Node000001_Node000002" class="edge">
<title>Node1&#45;&gt;Node2</title>
<g id="a_edge1_Node000001_Node000002"><a xlink:title=" ">
<path fill="none" stroke="#63b8ff" d="M106.24,-114.32C114.54,-115.56 123.24,-116.86 131.86,-118.15"/>
<polygon fill="#63b8ff" stroke="#63b8ff" points="131.51,-121.64 141.92,-119.66 132.55,-114.72 131.51,-121.64"/>
</a>
</g>
</g>
<!-- Node3 -->
<g id="Node000003" class="node">
<title>Node3</title>
<g id="a_Node000003"><a xlink:href="../../d4/d36/namespacefl_a9b47c6dc4674f84aec1a4acfaa5732f9.html#a9b47c6dc4674f84aec1a4acfaa5732f9" target="_top" xlink:title=" ">
<polygon fill="white" stroke="#666666" points="255.5,-100.5 148.5,-100.5 148.5,-70.5 255.5,-70.5 255.5,-100.5"/>
<text text-anchor="start" x="156.5" y="-88.5" font-family="Helvetica,sans-Serif" font-size="10.00">fl::render_value_fp</text>
<text text-anchor="middle" x="202" y="-77.5" font-family="Helvetica,sans-Serif" font-size="10.00">_from_float</text>
</a>
</g>
</g>
<!-- Node1&#45;&gt;Node3 -->
<g id="edge2_Node000001_Node000003" class="edge">
<title>Node1&#45;&gt;Node3</title>
<g id="a_edge2_Node000001_Node000003"><a xlink:title=" ">
<path fill="none" stroke="#63b8ff" d="M106.24,-99.04C116.62,-97.55 127.62,-95.98 138.31,-94.46"/>
<polygon fill="#63b8ff" stroke="#63b8ff" points="139.03,-97.89 148.43,-93.01 138.04,-90.96 139.03,-97.89"/>
</a>
</g>
</g>
<!-- Node4 -->
<g id="Node000004" class="node">
<title>Node4</title>
<g id="a_Node000004"><a xlink:href="../../d9/d9f/classfl_1_1s16x16_aa048b427f50f28993a67941e0f303a65.html#aa048b427f50f28993a67941e0f303a65" target="_top" xlink:title=" ">
<polygon fill="white" stroke="#666666" points="395.5,-114 307.5,-114 307.5,-95 395.5,-95 395.5,-114"/>
<text text-anchor="middle" x="351.5" y="-102" font-family="Helvetica,sans-Serif" font-size="10.00">fl::s16x16::raw</text>
</a>
</g>
</g>
<!-- Node3&#45;&gt;Node4 -->
<g id="edge3_Node000003_Node000004" class="edge">
<title>Node3&#45;&gt;Node4</title>
<g id="a_edge3_Node000003_Node000004"><a xlink:title=" ">
<path fill="none" stroke="#63b8ff" d="M255.83,-92.31C269.27,-94.04 283.72,-95.9 297.18,-97.63"/>
<polygon fill="#63b8ff" stroke="#63b8ff" points="296.89,-101.12 307.25,-98.93 297.78,-94.18 296.89,-101.12"/>
</a>
</g>
</g>
<!-- Node5 -->
<g id="Node000005" class="node">
<title>Node5</title>
<g id="a_Node000005"><a xlink:href="../../d4/d36/namespacefl_a6291b8d2d09d5f814b0a4314a2d6ed71.html#a6291b8d2d09d5f814b0a4314a2d6ed71" target="_top" xlink:title=" ">
<polygon fill="white" stroke="#666666" points="405,-77 298,-77 298,-58 405,-58 405,-77"/>
<text text-anchor="middle" x="351.5" y="-65" font-family="Helvetica,sans-Serif" font-size="10.00">fl::render_value_fp</text>
</a>
</g>
</g>
<!-- Node3&#45;&gt;Node5 -->
<g id="edge4_Node000003_Node000005" class="edge">
<title>Node3&#45;&gt;Node5</title>
<g id="a_edge4_Node000003_Node000005"><a xlink:title=" ">
<path fill="none" stroke="#63b8ff" d="M255.83,-79.05C266.11,-77.8 276.97,-76.47 287.53,-75.18"/>
<polygon fill="#63b8ff" stroke="#63b8ff" points="288.04,-78.65 297.54,-73.96 287.19,-71.7 288.04,-78.65"/>
</a>
</g>
</g>
<!-- Node6 -->
<g id="Node000006" class="node">
<title>Node6</title>
<g id="a_Node000006"><a xlink:href="../../d3/d7d/structfl_1_1perlin__s16x16_a5c42ee9ef6f75bb1104ddbc8949054c9.html#a5c42ee9ef6f75bb1104ddbc8949054c9" target="_top" xlink:title=" ">
<polygon fill="#fff0f0" stroke="red" points="547,-152.5 444,-152.5 444,-122.5 547,-122.5 547,-152.5"/>
<text text-anchor="start" x="452" y="-140.5" font-family="Helvetica,sans-Serif" font-size="10.00">fl::perlin_s16x16::</text>
<text text-anchor="middle" x="495.5" y="-129.5" font-family="Helvetica,sans-Serif" font-size="10.00">pnoise2d_raw</text>
</a>
</g>
</g>
<!-- Node5&#45;&gt;Node6 -->
<g id="edge5_Node000005_Node000006" class="edge">
<title>Node5&#45;&gt;Node6</title>
<g id="a_edge5_Node000005_Node000006"><a xlink:title=" ">
<path fill="none" stroke="#63b8ff" d="M383.7,-77.07C390.88,-79.74 398.35,-82.91 405,-86.5 422.6,-96.01 423.77,-103.34 441,-113.5 443.51,-114.98 446.12,-116.43 448.79,-117.83"/>
<polygon fill="#63b8ff" stroke="#63b8ff" points="447.47,-121.08 457.98,-122.43 450.6,-114.82 447.47,-121.08"/>
</a>
</g>
</g>
<!-- Node11 -->
<g id="Node000011" class="node">
<title>Node11</title>
<g id="a_Node000011"><a xlink:href="../../d3/d7d/structfl_1_1perlin__s16x16_a6151333bcd3d7e41883095f0ab64cc6c.html#a6151333bcd3d7e41883095f0ab64cc6c" target="_top" xlink:title=" ">
<polygon fill="#fff0f0" stroke="red" points="547,-104.5 444,-104.5 444,-74.5 547,-74.5 547,-104.5"/>
<text text-anchor="start" x="452" y="-92.5" font-family="Helvetica,sans-Serif" font-size="10.00">fl::perlin_s16x16::</text>
<text text-anchor="middle" x="495.5" y="-81.5" font-family="Helvetica,sans-Serif" font-size="10.00">pnoise3d_raw</text>
</a>
</g>
</g>
<!-- Node5&#45;&gt;Node11 -->
<g id="edge6_Node000005_Node000011" class="edge">
<title>Node5&#45;&gt;Node11</title>
<g id="a_edge6_Node000005_Node000011"><a xlink:title=" ">
<path fill="none" stroke="#63b8ff" d="M405.38,-75.69C414.64,-77.13 424.35,-78.63 433.8,-80.1"/>
<polygon fill="#63b8ff" stroke="#63b8ff" points="433.52,-83.59 443.94,-81.67 434.59,-76.68 433.52,-83.59"/>
</a>
</g>
</g>
<!-- Node13 -->
<g id="Node000013" class="node">
<title>Node13</title>
<g id="a_Node000013"><a xlink:href="../../d4/d36/namespacefl_a3554157e5c580a5b363e1a723d39e024.html#a3554157e5c580a5b363e1a723d39e024" target="_top" xlink:title=" ">
<polygon fill="white" stroke="#666666" points="550,-56 441,-56 441,-37 550,-37 550,-56"/>
<text text-anchor="middle" x="495.5" y="-44" font-family="Helvetica,sans-Serif" font-size="10.00">fl::radiansToA24_fp</text>
</a>
</g>
</g>
<!-- Node5&#45;&gt;Node13 -->
<g id="edge7_Node000005_Node000013" class="edge">
<title>Node5&#45;&gt;Node13</title>
<g id="a_edge7_Node000005_Node000013"><a xlink:title=" ">
<path fill="none" stroke="#63b8ff" d="M405.38,-59.68C413.56,-58.47 422.09,-57.21 430.49,-55.97"/>
<polygon fill="#63b8ff" stroke="#63b8ff" points="431.25,-59.39 440.63,-54.47 430.23,-52.47 431.25,-59.39"/>
</a>
</g>
</g>
<!-- Node14 -->
<g id="Node000014" class="node">
<title>Node14</title>
<g id="a_Node000014"><a xlink:href="../../d4/d36/namespacefl_ab168280957e4bfee3a3976381bd9e663.html#ab168280957e4bfee3a3976381bd9e663" target="_top" xlink:title=" ">
<polygon fill="#fff0f0" stroke="red" points="531,-19 460,-19 460,0 531,0 531,-19"/>
<text text-anchor="middle" x="495.5" y="-7" font-family="Helvetica,sans-Serif" font-size="10.00">fl::sincos32</text>
</a>
</g>
</g>
<!-- Node5&#45;&gt;Node14 -->
<g id="edge8_Node000005_Node000014" class="edge">
<title>Node5&#45;&gt;Node14</title>
<g id="a_edge8_Node000005_Node000014"><a xlink:title=" ">
<path fill="none" stroke="#63b8ff" d="M373.06,-57.92C390.88,-49.75 417.44,-37.86 441,-28.5 446.1,-26.48 451.5,-24.43 456.84,-22.48"/>
<polygon fill="#63b8ff" stroke="#63b8ff" points="458.09,-25.75 466.31,-19.07 455.72,-19.16 458.09,-25.75"/>
</a>
</g>
</g>
</g>
</svg>

<g id="navigator" transform="translate(0 0)" fill="#404254">
  <rect fill="#f2f5e9" fill-opacity="0.5" stroke="#606060" stroke-width=".5" x="0" y="0" width="60" height="60"/>
  <use id="zoomplus" xlink:href="#zoomPlus" x="17" y="9" onmousedown="handleZoom(evt,'in')"/>
  <use id="zoomminus" xlink:href="#zoomMin" x="42" y="9" onmousedown="handleZoom(evt,'out')"/>
  <use id="reset" xlink:href="#resetDef" x="30" y="36" onmousedown="handleReset()"/>
   <use id="arrowup" xlink:href="#arrowUp" x="0" y="0" onmousedown="handlePan(0,-1)"/>
  <use id="arrowright" xlink:href="#arrowRight" x="0" y="0" onmousedown="handlePan(1,0)"/>
  <use id="arrowdown" xlink:href="#arrowDown" x="0" y="0" onmousedown="handlePan(0,1)"/>
  <use id="arrowleft" xlink:href="#arrowLeft" x="0" y="0" onmousedown="handlePan(-1,0)"/>
</g>
<svg viewBox="0 0 15 15" width="100%" height="30px" preserveAspectRatio="xMaxYMin meet">
 <g id="arrow_out" transform="scale(0.3 0.3)">
  <a xlink:href="classfl_1_1_fluffy___blobs___f_p_aefb4499daf2758a83d6747bdfc7125a6_aefb4499daf2758a83d6747bdfc7125a6_cgraph_org.svg" target="_base">
   <rect id="button" ry="5" rx="5" y="6" x="6" height="38" width="38"
        fill="#f2f5e9" fill-opacity="0.5" stroke="#606060" stroke-width="1.0"/>
   <path id="arrow"
     d="M 11.500037,31.436501 C 11.940474,20.09759 22.043105,11.32322 32.158766,21.979434 L 37.068811,17.246167 C 37.068811,17.246167 37.088388,32 37.088388,32 L 22.160133,31.978069 C 22.160133,31.978069 26.997745,27.140456 26.997745,27.140456 C 18.528582,18.264221 13.291696,25.230495 11.500037,31.436501 z"
     style="fill:#404040;"/>
  </a>
 </g>
</svg>

<style type='text/css'>
<![CDATA[
[data-mouse-over-selected='false'] { opacity: 0.7; }
[data-mouse-over-selected='true']  { opacity: 1.0; }
]]>
</style>
<script type="application/ecmascript"><![CDATA[
document.addEventListener('DOMContentLoaded', (event) => {
  highlightEdges();
  highlightAdjacentNodes();
});
]]></script>
</svg>
