<?xml version="1.0" encoding="UTF-8" standalone="no"?>
<!DOCTYPE svg PUBLIC "-//W3C//DTD SVG 1.1//EN"
 "http://www.w3.org/Graphics/SVG/1.1/DTD/svg11.dtd">
<!-- Generated by graphviz version 2.43.0 (0)
 -->
<!-- Title: fl::FixedMap::has Pages: 1 -->
<svg width="296pt" height="86pt"
 viewBox="0.00 0.00 296.00 86.00" xmlns="http://www.w3.org/2000/svg" xmlns:xlink="http://www.w3.org/1999/xlink">
<g id="graph0" class="graph" transform="scale(1 1) rotate(0) translate(4 82)">
<title>fl::FixedMap::has</title>
<!-- Node1 -->
<g id="Node000001" class="node">
<title>Node1</title>
<g id="a_Node000001"><a xlink:title=" ">
<polygon fill="#999999" stroke="#666666" points="288,-43 190,-43 190,-24 288,-24 288,-43"/>
<text text-anchor="middle" x="239" y="-31" font-family="Helvetica,sans-Serif" font-size="10.00">fl::FixedMap::has</text>
</a>
</g>
</g>
<!-- Node2 -->
<g id="Node000002" class="node">
<title>Node2</title>
<g id="a_Node000002"><a xlink:href="../../d2/df3/classfl_1_1_fixed_map_a07b3eefb41dacb2032f572d6a70ff58c.html#a07b3eefb41dacb2032f572d6a70ff58c" target="_top" xlink:title=" ">
<polygon fill="white" stroke="#666666" points="154,-78 0,-78 0,-37 154,-37 154,-78"/>
<text text-anchor="start" x="8" y="-66" font-family="Helvetica,sans-Serif" font-size="10.00">fl::FixedMap&lt; int,</text>
<text text-anchor="start" x="8" y="-55" font-family="Helvetica,sans-Serif" font-size="10.00"> FxPtr, FASTLED_FX_ENGINE</text>
<text text-anchor="middle" x="77" y="-44" font-family="Helvetica,sans-Serif" font-size="10.00">_MAX_FX &gt;::contains</text>
</a>
</g>
</g>
<!-- Node1&#45;&gt;Node2 -->
<g id="edge1_Node000001_Node000002" class="edge">
<title>Node1&#45;&gt;Node2</title>
<g id="a_edge1_Node000001_Node000002"><a xlink:title=" ">
<path fill="none" stroke="#63b8ff" d="M179.95,-42.21C171.55,-43.47 162.79,-44.78 154.1,-46.08"/>
<polygon fill="#63b8ff" stroke="#63b8ff" points="180.62,-45.65 189.99,-40.7 179.59,-38.72 180.62,-45.65"/>
</a>
</g>
</g>
<!-- Node3 -->
<g id="Node000003" class="node">
<title>Node3</title>
<g id="a_Node000003"><a xlink:href="../../d2/d78/classfl_1_1_screen_map_a01e5310537235df9e8dc911692339a9b.html#a01e5310537235df9e8dc911692339a9b" target="_top" xlink:title=" ">
<polygon fill="white" stroke="#666666" points="144.5,-19 9.5,-19 9.5,0 144.5,0 144.5,-19"/>
<text text-anchor="middle" x="77" y="-7" font-family="Helvetica,sans-Serif" font-size="10.00">fl::ScreenMap::ParseJson</text>
</a>
</g>
</g>
<!-- Node1&#45;&gt;Node3 -->
<g id="edge2_Node000001_Node000003" class="edge">
<title>Node1&#45;&gt;Node3</title>
<g id="a_edge2_Node000001_Node000003"><a xlink:title=" ">
<path fill="none" stroke="#63b8ff" d="M180.1,-24.82C167.52,-22.93 154.15,-20.92 141.38,-19.01"/>
<polygon fill="#63b8ff" stroke="#63b8ff" points="179.59,-28.28 189.99,-26.3 180.62,-21.35 179.59,-28.28"/>
</a>
</g>
</g>
</g>
</svg>
