<?xml version="1.0" encoding="UTF-8" standalone="no"?>
<!DOCTYPE svg PUBLIC "-//W3C//DTD SVG 1.1//EN"
 "http://www.w3.org/Graphics/SVG/1.1/DTD/svg11.dtd">
<!-- Generated by graphviz version 2.43.0 (0)
 -->
<!-- Title: MidiInterface::getChannelFromStatusByte Pages: 1 -->
<svg width="446pt" height="51pt"
 viewBox="0.00 0.00 446.00 50.50" xmlns="http://www.w3.org/2000/svg" xmlns:xlink="http://www.w3.org/1999/xlink">
<g id="graph0" class="graph" transform="scale(1 1) rotate(0) translate(4 46.5)">
<title>MidiInterface::getChannelFromStatusByte</title>
<!-- Node1 -->
<g id="Node000001" class="node">
<title>Node1</title>
<g id="a_Node000001"><a xlink:title="Returns channel in the range 1&#45;16.">
<polygon fill="#999999" stroke="#666666" points="438,-30 295,-30 295,0 438,0 438,-30"/>
<text text-anchor="start" x="303" y="-18" font-family="Helvetica,sans-Serif" font-size="10.00">MidiInterface::getChannel</text>
<text text-anchor="middle" x="366.5" y="-7" font-family="Helvetica,sans-Serif" font-size="10.00">FromStatusByte</text>
</a>
</g>
</g>
<!-- Node2 -->
<g id="Node000002" class="node">
<title>Node2</title>
<g id="a_Node000002"><a xlink:href="../../dc/df1/group__input_gafdc73d1d7fd7624e6e25afd240176eef.html#gafdc73d1d7fd7624e6e25afd240176eef" target="_top" xlink:title=" ">
<polygon fill="white" stroke="#666666" points="259,-24.5 145,-24.5 145,-5.5 259,-5.5 259,-24.5"/>
<text text-anchor="middle" x="202" y="-12.5" font-family="Helvetica,sans-Serif" font-size="10.00">MidiInterface::parse</text>
</a>
</g>
</g>
<!-- Node1&#45;&gt;Node2 -->
<g id="edge1_Node000001_Node000002" class="edge">
<title>Node1&#45;&gt;Node2</title>
<g id="a_edge1_Node000001_Node000002"><a xlink:title=" ">
<path fill="none" stroke="#63b8ff" d="M284.69,-15C276.14,-15 267.59,-15 259.41,-15"/>
<polygon fill="#63b8ff" stroke="#63b8ff" points="284.7,-18.5 294.7,-15 284.7,-11.5 284.7,-18.5"/>
</a>
</g>
</g>
<!-- Node2&#45;&gt;Node2 -->
<g id="edge2_Node000002_Node000002" class="edge">
<title>Node2&#45;&gt;Node2</title>
<g id="a_edge2_Node000002_Node000002"><a xlink:title=" ">
<path fill="none" stroke="#63b8ff" d="M229.16,-33.69C227.68,-38.7 218.62,-42.5 202,-42.5 176.05,-42.5 168.55,-33.23 179.5,-24.58"/>
<polygon fill="#63b8ff" stroke="#63b8ff" points="232.17,-31.89 224.5,-24.58 225.94,-35.08 232.17,-31.89"/>
</a>
</g>
</g>
<!-- Node3 -->
<g id="Node000003" class="node">
<title>Node3</title>
<g id="a_Node000003"><a xlink:href="../../dc/df1/group__input_gac7da892409239a434deff28b5d5cedbe.html#gac7da892409239a434deff28b5d5cedbe" target="_top" xlink:title="Read messages on a specified channel.">
<polygon fill="white" stroke="#666666" points="109,-24.5 0,-24.5 0,-5.5 109,-5.5 109,-24.5"/>
<text text-anchor="middle" x="54.5" y="-12.5" font-family="Helvetica,sans-Serif" font-size="10.00">MidiInterface::read</text>
</a>
</g>
</g>
<!-- Node2&#45;&gt;Node3 -->
<g id="edge3_Node000002_Node000003" class="edge">
<title>Node2&#45;&gt;Node3</title>
<g id="a_edge3_Node000002_Node000003"><a xlink:title=" ">
<path fill="none" stroke="#63b8ff" d="M134.5,-15C126.03,-15 117.45,-15 109.22,-15"/>
<polygon fill="#63b8ff" stroke="#63b8ff" points="134.75,-18.5 144.75,-15 134.75,-11.5 134.75,-18.5"/>
</a>
</g>
</g>
</g>
</svg>
