<?xml version="1.0" encoding="UTF-8" standalone="no"?>
<!DOCTYPE svg PUBLIC "-//W3C//DTD SVG 1.1//EN"
 "http://www.w3.org/Graphics/SVG/1.1/DTD/svg11.dtd">
<!-- Generated by graphviz version 2.43.0 (0)
 -->
<!-- Title: fl::s16x16::atan Pages: 1 -->
<svg width="241pt" height="45pt"
 viewBox="0.00 0.00 241.00 45.00" xmlns="http://www.w3.org/2000/svg" xmlns:xlink="http://www.w3.org/1999/xlink">
<g id="graph0" class="graph" transform="scale(1 1) rotate(0) translate(4 41)">
<title>fl::s16x16::atan</title>
<!-- Node1 -->
<g id="Node000001" class="node">
<title>Node1</title>
<g id="a_Node000001"><a xlink:title=" ">
<polygon fill="#999999" stroke="#666666" points="92,-19 0,-19 0,0 92,0 92,-19"/>
<text text-anchor="middle" x="46" y="-7" font-family="Helvetica,sans-Serif" font-size="10.00">fl::s16x16::atan</text>
</a>
</g>
</g>
<!-- Node1&#45;&gt;Node1 -->
<g id="edge2_Node000001_Node000001" class="edge">
<title>Node1&#45;&gt;Node1</title>
<g id="a_edge2_Node000001_Node000001"><a xlink:title=" ">
<path fill="none" stroke="#63b8ff" d="M25.35,-19.08C15.3,-27.73 22.18,-37 46,-37 61.26,-37 69.57,-33.2 70.93,-28.19"/>
<polygon fill="#63b8ff" stroke="#63b8ff" points="74.07,-26.65 66.65,-19.08 67.73,-29.62 74.07,-26.65"/>
</a>
</g>
</g>
<!-- Node2 -->
<g id="Node000002" class="node">
<title>Node2</title>
<g id="a_Node000002"><a xlink:href="../../d9/d9f/classfl_1_1s16x16_a5e82494e286448e4cad2de1b302b9168.html#a5e82494e286448e4cad2de1b302b9168" target="_top" xlink:title=" ">
<polygon fill="white" stroke="#666666" points="233,-19 128,-19 128,0 233,0 233,-19"/>
<text text-anchor="middle" x="180.5" y="-7" font-family="Helvetica,sans-Serif" font-size="10.00">fl::s16x16::s16x16</text>
</a>
</g>
</g>
<!-- Node1&#45;&gt;Node2 -->
<g id="edge1_Node000001_Node000002" class="edge">
<title>Node1&#45;&gt;Node2</title>
<g id="a_edge1_Node000001_Node000002"><a xlink:title=" ">
<path fill="none" stroke="#63b8ff" d="M92.23,-9.5C100.33,-9.5 108.9,-9.5 117.38,-9.5"/>
<polygon fill="#63b8ff" stroke="#63b8ff" points="117.64,-13 127.64,-9.5 117.64,-6 117.64,-13"/>
</a>
</g>
</g>
</g>
</svg>
