<?xml version="1.0" encoding="UTF-8" standalone="no"?>
<!DOCTYPE svg PUBLIC "-//W3C//DTD SVG 1.1//EN"
 "http://www.w3.org/Graphics/SVG/1.1/DTD/svg11.dtd">
<!-- Generated by graphviz version 2.43.0 (0)
 -->
<!-- Title: fl::s16x16::log2_fp Pages: 1 -->
<svg width="421pt" height="131pt"
 viewBox="0.00 0.00 421.00 130.50" xmlns="http://www.w3.org/2000/svg" xmlns:xlink="http://www.w3.org/1999/xlink">
<g id="graph0" class="graph" transform="scale(1 1) rotate(0) translate(4 126.5)">
<title>fl::s16x16::log2_fp</title>
<!-- Node1 -->
<g id="Node000001" class="node">
<title>Node1</title>
<g id="a_Node000001"><a xlink:title=" ">
<polygon fill="#999999" stroke="#666666" points="106,-84.5 0,-84.5 0,-65.5 106,-65.5 106,-84.5"/>
<text text-anchor="middle" x="53" y="-72.5" font-family="Helvetica,sans-Serif" font-size="10.00">fl::s16x16::log2_fp</text>
</a>
</g>
</g>
<!-- Node2 -->
<g id="Node000002" class="node">
<title>Node2</title>
<g id="a_Node000002"><a xlink:href="../../d9/d9f/classfl_1_1s16x16_a5e82494e286448e4cad2de1b302b9168.html#a5e82494e286448e4cad2de1b302b9168" target="_top" xlink:title=" ">
<polygon fill="white" stroke="#666666" points="410,-122.5 305,-122.5 305,-103.5 410,-103.5 410,-122.5"/>
<text text-anchor="middle" x="357.5" y="-110.5" font-family="Helvetica,sans-Serif" font-size="10.00">fl::s16x16::s16x16</text>
</a>
</g>
</g>
<!-- Node1&#45;&gt;Node2 -->
<g id="edge1_Node000001_Node000002" class="edge">
<title>Node1&#45;&gt;Node2</title>
<g id="a_edge1_Node000001_Node000002"><a xlink:title=" ">
<path fill="none" stroke="#63b8ff" d="M93.23,-84.56C108.39,-87.97 125.93,-91.56 142,-94 193.16,-101.76 251.7,-106.68 294.68,-109.57"/>
<polygon fill="#63b8ff" stroke="#63b8ff" points="294.5,-113.06 304.71,-110.22 294.96,-106.08 294.5,-113.06"/>
</a>
</g>
</g>
<!-- Node3 -->
<g id="Node000003" class="node">
<title>Node3</title>
<g id="a_Node000003"><a xlink:href="../../d9/d9f/classfl_1_1s16x16_a9c7a5411b60510e5a513c5d1e305720d.html#a9c7a5411b60510e5a513c5d1e305720d" target="_top" xlink:title=" ">
<polygon fill="white" stroke="#666666" points="262,-84.5 146,-84.5 146,-65.5 262,-65.5 262,-84.5"/>
<text text-anchor="middle" x="204" y="-72.5" font-family="Helvetica,sans-Serif" font-size="10.00">fl::s16x16::from_raw</text>
</a>
</g>
</g>
<!-- Node1&#45;&gt;Node3 -->
<g id="edge2_Node000001_Node000003" class="edge">
<title>Node1&#45;&gt;Node3</title>
<g id="a_edge2_Node000001_Node000003"><a xlink:title=" ">
<path fill="none" stroke="#63b8ff" d="M106.11,-75C115.64,-75 125.71,-75 135.61,-75"/>
<polygon fill="#63b8ff" stroke="#63b8ff" points="135.84,-78.5 145.84,-75 135.84,-71.5 135.84,-78.5"/>
</a>
</g>
</g>
<!-- Node5 -->
<g id="Node000005" class="node">
<title>Node5</title>
<g id="a_Node000005"><a xlink:href="../../d9/d9f/classfl_1_1s16x16_a0a6889550ee9d9b1bde0c3f6014f5bfa.html#a0a6889550ee9d9b1bde0c3f6014f5bfa" target="_top" xlink:title=" ">
<polygon fill="white" stroke="#666666" points="266,-36.5 142,-36.5 142,-17.5 266,-17.5 266,-36.5"/>
<text text-anchor="middle" x="204" y="-24.5" font-family="Helvetica,sans-Serif" font-size="10.00">fl::s16x16::highest_bit</text>
</a>
</g>
</g>
<!-- Node1&#45;&gt;Node5 -->
<g id="edge5_Node000001_Node000005" class="edge">
<title>Node1&#45;&gt;Node5</title>
<g id="a_edge5_Node000001_Node000005"><a xlink:title=" ">
<path fill="none" stroke="#63b8ff" d="M83.79,-65.4C106.74,-58.01 138.65,-47.73 163.69,-39.66"/>
<polygon fill="#63b8ff" stroke="#63b8ff" points="164.81,-42.98 173.26,-36.58 162.67,-36.32 164.81,-42.98"/>
</a>
</g>
</g>
<!-- Node3&#45;&gt;Node2 -->
<g id="edge3_Node000003_Node000002" class="edge">
<title>Node3&#45;&gt;Node2</title>
<g id="a_edge3_Node000003_Node000002"><a xlink:title=" ">
<path fill="none" stroke="#63b8ff" d="M243.23,-84.59C263.13,-89.58 287.66,-95.73 308.79,-101.03"/>
<polygon fill="#63b8ff" stroke="#63b8ff" points="307.99,-104.44 318.55,-103.48 309.7,-97.65 307.99,-104.44"/>
</a>
</g>
</g>
<!-- Node4 -->
<g id="Node000004" class="node">
<title>Node4</title>
<g id="a_Node000004"><a xlink:href="../../d9/d9f/classfl_1_1s16x16_aa048b427f50f28993a67941e0f303a65.html#aa048b427f50f28993a67941e0f303a65" target="_top" xlink:title=" ">
<polygon fill="white" stroke="#666666" points="401.5,-85.5 313.5,-85.5 313.5,-66.5 401.5,-66.5 401.5,-85.5"/>
<text text-anchor="middle" x="357.5" y="-73.5" font-family="Helvetica,sans-Serif" font-size="10.00">fl::s16x16::raw</text>
</a>
</g>
</g>
<!-- Node3&#45;&gt;Node4 -->
<g id="edge4_Node000003_Node000004" class="edge">
<title>Node3&#45;&gt;Node4</title>
<g id="a_edge4_Node000003_Node000004"><a xlink:title=" ">
<path fill="none" stroke="#63b8ff" d="M262.28,-75.38C275.63,-75.47 289.8,-75.56 302.99,-75.65"/>
<polygon fill="#63b8ff" stroke="#63b8ff" points="303.29,-79.15 313.32,-75.71 303.34,-72.15 303.29,-79.15"/>
</a>
</g>
</g>
<!-- Node6 -->
<g id="Node000006" class="node">
<title>Node6</title>
<g id="a_Node000006"><a xlink:href="../../d9/d9f/classfl_1_1s16x16_ad8b7552050e27d2811ca8d24951f51a3.html#ad8b7552050e27d2811ca8d24951f51a3" target="_top" xlink:title=" ">
<polygon fill="white" stroke="#666666" points="413,-30 302,-30 302,0 413,0 413,-30"/>
<text text-anchor="start" x="310" y="-18" font-family="Helvetica,sans-Serif" font-size="10.00">fl::s16x16::_highest</text>
<text text-anchor="middle" x="357.5" y="-7" font-family="Helvetica,sans-Serif" font-size="10.00">_bit_step</text>
</a>
</g>
</g>
<!-- Node5&#45;&gt;Node6 -->
<g id="edge6_Node000005_Node000006" class="edge">
<title>Node5&#45;&gt;Node6</title>
<g id="a_edge6_Node000005_Node000006"><a xlink:title=" ">
<path fill="none" stroke="#63b8ff" d="M266.18,-22.15C274.59,-21.49 283.25,-20.8 291.72,-20.13"/>
<polygon fill="#63b8ff" stroke="#63b8ff" points="292.23,-23.6 301.93,-19.32 291.68,-16.62 292.23,-23.6"/>
</a>
</g>
</g>
<!-- Node6&#45;&gt;Node6 -->
<g id="edge7_Node000006_Node000006" class="edge">
<title>Node6&#45;&gt;Node6</title>
<g id="a_edge7_Node000006_Node000006"><a xlink:title=" ">
<path fill="none" stroke="#63b8ff" d="M330.78,-30.28C324.84,-39.41 333.75,-48 357.5,-48 371.6,-48 380.47,-44.97 384.11,-40.6"/>
<polygon fill="#63b8ff" stroke="#63b8ff" points="387.61,-40.31 384.22,-30.28 380.61,-40.24 387.61,-40.31"/>
</a>
</g>
</g>
</g>
</svg>
