<?xml version="1.0" encoding="UTF-8" standalone="no"?>
<!DOCTYPE svg PUBLIC "-//W3C//DTD SVG 1.1//EN"
 "http://www.w3.org/Graphics/SVG/1.1/DTD/svg11.dtd">
<!-- Generated by graphviz version 2.43.0 (0)
 -->
<!-- Title: fl::s16x16::abs Pages: 1 -->
<svg width="357pt" height="82pt"
 viewBox="0.00 0.00 357.00 82.00" xmlns="http://www.w3.org/2000/svg" xmlns:xlink="http://www.w3.org/1999/xlink">

<svg id="main" version="1.1" xmlns="http://www.w3.org/2000/svg" xmlns:xlink="http://www.w3.org/1999/xlink" xml:space="preserve">

<style type="text/css"><![CDATA[
.node, .edge {opacity: 0.7;}
.node.selected, .edge.selected {opacity: 1;}
.edge:hover path { stroke: red; }
.edge:hover polygon { stroke: red; fill: red; }
]]></style>
<script type="application/ecmascript" xlink:href="../../svg.min.js"/>
<svg id="graph" class="graph">
<g id="graph0" class="graph" transform="scale(1 1) rotate(0) translate(4 78)">
<title>fl::s16x16::abs</title>
<!-- Node1 -->
<g id="Node000001" class="node">
<title>Node1</title>
<g id="a_Node000001"><a xlink:title=" ">
<polygon fill="#999999" stroke="#666666" points="349,-55 262,-55 262,-36 349,-36 349,-55"/>
<text text-anchor="middle" x="305.5" y="-43" font-family="Helvetica,sans-Serif" font-size="10.00">fl::s16x16::abs</text>
</a>
</g>
</g>
<!-- Node1&#45;&gt;Node1 -->
<g id="edge1_Node000001_Node000001" class="edge">
<title>Node1&#45;&gt;Node1</title>
<g id="a_edge1_Node000001_Node000001"><a xlink:title=" ">
<path fill="none" stroke="#63b8ff" d="M329.2,-64.55C327.62,-69.38 319.72,-73 305.5,-73 282.75,-73 276.17,-63.73 285.77,-55.08"/>
<polygon fill="#63b8ff" stroke="#63b8ff" points="332.33,-62.95 325.23,-55.08 325.87,-65.66 332.33,-62.95"/>
</a>
</g>
</g>
<!-- Node2 -->
<g id="Node000002" class="node">
<title>Node2</title>
<g id="a_Node000002"><a xlink:href="../../d9/d9f/classfl_1_1s16x16_a3f7c53ddf06514d8d13f5ddbfc70ec8f.html#a3f7c53ddf06514d8d13f5ddbfc70ec8f" target="_top" xlink:title=" ">
<polygon fill="white" stroke="#666666" points="223,-74 131,-74 131,-55 223,-55 223,-74"/>
<text text-anchor="middle" x="177" y="-62" font-family="Helvetica,sans-Serif" font-size="10.00">fl::s16x16::atan</text>
</a>
</g>
</g>
<!-- Node1&#45;&gt;Node2 -->
<g id="edge2_Node000001_Node000002" class="edge">
<title>Node1&#45;&gt;Node2</title>
<g id="a_edge2_Node000001_Node000002"><a xlink:title=" ">
<path fill="none" stroke="#63b8ff" d="M251.64,-53.44C242.25,-54.85 232.54,-56.31 223.38,-57.68"/>
<polygon fill="#63b8ff" stroke="#63b8ff" points="252.3,-56.88 261.67,-51.93 251.26,-49.96 252.3,-56.88"/>
</a>
</g>
</g>
<!-- Node3 -->
<g id="Node000003" class="node">
<title>Node3</title>
<g id="a_Node000003"><a xlink:href="../../d9/d9f/classfl_1_1s16x16_ae1e1a56766cd0c69f8235e57c3e80254.html#ae1e1a56766cd0c69f8235e57c3e80254" target="_top" xlink:title=" ">
<polygon fill="white" stroke="#666666" points="226,-37 128,-37 128,-18 226,-18 226,-37"/>
<text text-anchor="middle" x="177" y="-25" font-family="Helvetica,sans-Serif" font-size="10.00">fl::s16x16::atan2</text>
</a>
</g>
</g>
<!-- Node1&#45;&gt;Node3 -->
<g id="edge3_Node000001_Node000003" class="edge">
<title>Node1&#45;&gt;Node3</title>
<g id="a_edge3_Node000001_Node000003"><a xlink:title=" ">
<path fill="none" stroke="#63b8ff" d="M251.52,-37.96C243.06,-36.76 234.34,-35.52 226,-34.33"/>
<polygon fill="#63b8ff" stroke="#63b8ff" points="251.28,-41.46 261.67,-39.41 252.27,-34.53 251.28,-41.46"/>
</a>
</g>
</g>
<!-- Node4 -->
<g id="Node000004" class="node">
<title>Node4</title>
<g id="a_Node000004"><a xlink:href="../../d9/d9f/classfl_1_1s16x16_adf5f23dd2a7bc985e52f594a8ad242bb.html#adf5f23dd2a7bc985e52f594a8ad242bb" target="_top" xlink:title=" ">
<polygon fill="white" stroke="#666666" points="92,-56 0,-56 0,-37 92,-37 92,-56"/>
<text text-anchor="middle" x="46" y="-44" font-family="Helvetica,sans-Serif" font-size="10.00">fl::s16x16::acos</text>
</a>
</g>
</g>
<!-- Node3&#45;&gt;Node4 -->
<g id="edge4_Node000003_Node000004" class="edge">
<title>Node3&#45;&gt;Node4</title>
<g id="a_edge4_Node000003_Node000004"><a xlink:title=" ">
<path fill="none" stroke="#63b8ff" d="M117.91,-36.06C109.24,-37.33 100.42,-38.63 92.08,-39.86"/>
<polygon fill="#63b8ff" stroke="#63b8ff" points="118.58,-39.49 127.97,-34.57 117.56,-32.57 118.58,-39.49"/>
</a>
</g>
</g>
<!-- Node5 -->
<g id="Node000005" class="node">
<title>Node5</title>
<g id="a_Node000005"><a xlink:href="../../d9/d9f/classfl_1_1s16x16_a4fb405caa0d4dca321397b70d9b0abe0.html#a4fb405caa0d4dca321397b70d9b0abe0" target="_top" xlink:title=" ">
<polygon fill="white" stroke="#666666" points="91,-19 1,-19 1,0 91,0 91,-19"/>
<text text-anchor="middle" x="46" y="-7" font-family="Helvetica,sans-Serif" font-size="10.00">fl::s16x16::asin</text>
</a>
</g>
</g>
<!-- Node3&#45;&gt;Node5 -->
<g id="edge5_Node000003_Node000005" class="edge">
<title>Node3&#45;&gt;Node5</title>
<g id="a_edge5_Node000003_Node000005"><a xlink:title=" ">
<path fill="none" stroke="#63b8ff" d="M117.95,-19.4C108.98,-18.15 99.84,-16.87 91.24,-15.67"/>
<polygon fill="#63b8ff" stroke="#63b8ff" points="117.58,-22.88 127.97,-20.8 118.54,-15.95 117.58,-22.88"/>
</a>
</g>
</g>
</g>
</svg>
</svg>

<style type='text/css'>
<![CDATA[
[data-mouse-over-selected='false'] { opacity: 0.7; }
[data-mouse-over-selected='true']  { opacity: 1.0; }
]]>
</style>
<script type="application/ecmascript"><![CDATA[
document.addEventListener('DOMContentLoaded', (event) => {
  highlightEdges();
  highlightAdjacentNodes();
});
]]></script>
</svg>
