<?xml version="1.0" encoding="UTF-8" standalone="no"?>
<!DOCTYPE svg PUBLIC "-//W3C//DTD SVG 1.1//EN"
 "http://www.w3.org/Graphics/SVG/1.1/DTD/svg11.dtd">
<!-- Generated by graphviz version 2.43.0 (0)
 -->
<!-- Title: fl::s16x16::highest_bit Pages: 1 -->
<svg width="583pt" height="64pt"
 viewBox="0.00 0.00 583.00 64.00" xmlns="http://www.w3.org/2000/svg" xmlns:xlink="http://www.w3.org/1999/xlink">
<g id="graph0" class="graph" transform="scale(1 1) rotate(0) translate(4 60)">
<title>fl::s16x16::highest_bit</title>
<!-- Node1 -->
<g id="Node000001" class="node">
<title>Node1</title>
<g id="a_Node000001"><a xlink:title=" ">
<polygon fill="#999999" stroke="#666666" points="575,-37 451,-37 451,-18 575,-18 575,-37"/>
<text text-anchor="middle" x="513" y="-25" font-family="Helvetica,sans-Serif" font-size="10.00">fl::s16x16::highest_bit</text>
</a>
</g>
</g>
<!-- Node2 -->
<g id="Node000002" class="node">
<title>Node2</title>
<g id="a_Node000002"><a xlink:href="../../d9/d9f/classfl_1_1s16x16_a02cc018cfdcf668c4636d708695af362.html#a02cc018cfdcf668c4636d708695af362" target="_top" xlink:title=" ">
<polygon fill="white" stroke="#666666" points="415,-37 309,-37 309,-18 415,-18 415,-37"/>
<text text-anchor="middle" x="362" y="-25" font-family="Helvetica,sans-Serif" font-size="10.00">fl::s16x16::log2_fp</text>
</a>
</g>
</g>
<!-- Node1&#45;&gt;Node2 -->
<g id="edge1_Node000001_Node000002" class="edge">
<title>Node1&#45;&gt;Node2</title>
<g id="a_edge1_Node000001_Node000002"><a xlink:title=" ">
<path fill="none" stroke="#63b8ff" d="M440.85,-27.5C432.18,-27.5 423.45,-27.5 415.13,-27.5"/>
<polygon fill="#63b8ff" stroke="#63b8ff" points="440.97,-31 450.97,-27.5 440.97,-24 440.97,-31"/>
</a>
</g>
</g>
<!-- Node3 -->
<g id="Node000003" class="node">
<title>Node3</title>
<g id="a_Node000003"><a xlink:href="../../d9/d9f/classfl_1_1s16x16_ad54fc4759a533ca8fb29bd32ba982291.html#ad54fc4759a533ca8fb29bd32ba982291" target="_top" xlink:title=" ">
<polygon fill="white" stroke="#666666" points="273,-37 183,-37 183,-18 273,-18 273,-37"/>
<text text-anchor="middle" x="228" y="-25" font-family="Helvetica,sans-Serif" font-size="10.00">fl::s16x16::pow</text>
</a>
</g>
</g>
<!-- Node2&#45;&gt;Node3 -->
<g id="edge2_Node000002_Node000003" class="edge">
<title>Node2&#45;&gt;Node3</title>
<g id="a_edge2_Node000002_Node000003"><a xlink:title=" ">
<path fill="none" stroke="#63b8ff" d="M298.75,-27.5C290.09,-27.5 281.35,-27.5 273.13,-27.5"/>
<polygon fill="#63b8ff" stroke="#63b8ff" points="298.83,-31 308.83,-27.5 298.83,-24 298.83,-31"/>
</a>
</g>
</g>
<!-- Node4 -->
<g id="Node000004" class="node">
<title>Node4</title>
<g id="a_Node000004"><a xlink:href="../../d4/d36/namespacefl_a8e57c41745476cc807abe80ec88f50d8.html#a8e57c41745476cc807abe80ec88f50d8" target="_top" xlink:title=" ">
<polygon fill="#fff0f0" stroke="red" points="137,-56 10,-56 10,-37 137,-37 137,-56"/>
<text text-anchor="middle" x="73.5" y="-44" font-family="Helvetica,sans-Serif" font-size="10.00">fl::applyGamma_video</text>
</a>
</g>
</g>
<!-- Node3&#45;&gt;Node4 -->
<g id="edge3_Node000003_Node000004" class="edge">
<title>Node3&#45;&gt;Node4</title>
<g id="a_edge3_Node000003_Node000004"><a xlink:title=" ">
<path fill="none" stroke="#63b8ff" d="M172.95,-34.23C161.39,-35.67 149.08,-37.21 137.23,-38.69"/>
<polygon fill="#63b8ff" stroke="#63b8ff" points="173.4,-37.71 182.89,-33 172.53,-30.76 173.4,-37.71"/>
</a>
</g>
</g>
<!-- Node12 -->
<g id="Node000012" class="node">
<title>Node12</title>
<g id="a_Node000012"><a xlink:href="../../d2/d24/classfl_1_1_flow_field_f_p_a8d203d75b3595fe20827d30ac914d9c9.html#a8d203d75b3595fe20827d30ac914d9c9" target="_top" xlink:title=" ">
<polygon fill="#fff0f0" stroke="red" points="147,-19 0,-19 0,0 147,0 147,-19"/>
<text text-anchor="middle" x="73.5" y="-7" font-family="Helvetica,sans-Serif" font-size="10.00">fl::FlowFieldFP::flowAdvect</text>
</a>
</g>
</g>
<!-- Node3&#45;&gt;Node12 -->
<g id="edge4_Node000003_Node000012" class="edge">
<title>Node3&#45;&gt;Node12</title>
<g id="a_edge4_Node000003_Node000012"><a xlink:title=" ">
<path fill="none" stroke="#63b8ff" d="M172.95,-21.12C164.62,-20.14 155.9,-19.11 147.24,-18.09"/>
<polygon fill="#63b8ff" stroke="#63b8ff" points="172.55,-24.6 182.89,-22.29 173.37,-17.65 172.55,-24.6"/>
</a>
</g>
</g>
</g>
</svg>
