<?xml version="1.0" encoding="UTF-8" standalone="no"?>
<!DOCTYPE svg PUBLIC "-//W3C//DTD SVG 1.1//EN"
 "http://www.w3.org/Graphics/SVG/1.1/DTD/svg11.dtd">
<!-- Generated by graphviz version 2.43.0 (0)
 -->
<!-- Title: fl::s16x16::pow Pages: 1 -->
<!--zoomable 288 -->

<svg id="main" version="1.1" xmlns="http://www.w3.org/2000/svg" xmlns:xlink="http://www.w3.org/1999/xlink" xml:space="preserve" onload="init(evt)">

<style type="text/css"><![CDATA[
.node, .edge {opacity: 0.7;}
.node.selected, .edge.selected {opacity: 1;}
.edge:hover path { stroke: red; }
.edge:hover polygon { stroke: red; fill: red; }
]]></style>

<defs>
  <circle id="rim" cx="0" cy="0" r="7"/>
  <circle id="rim2" cx="0" cy="0" r="3.5"/>
  <g id="zoomPlus">
    <use xlink:href="#rim" fill="#404040"><set attributeName="fill" to="#808080" begin="zoomplus.mouseover" end="zoomplus.mouseout"/></use>
    <path d="M-4,0h8M0,-4v8" fill="none" stroke="white" stroke-width="1.5" pointer-events="none"/>
  </g>
  <g id="zoomMin">
    <use xlink:href="#rim" fill="#404040"><set attributeName="fill" to="#808080" begin="zoomminus.mouseover" end="zoomminus.mouseout"/></use>
    <path d="M-4,0h8" fill="none" stroke="white" stroke-width="1.5" pointer-events="none"/>
  </g>
  <g id="arrowUp" transform="translate(30 24)">
    <use xlink:href="#rim"/>
    <path pointer-events="none" fill="none" stroke="white" stroke-width="1.5" d="M0,-3.0v7 M-2.5,-0.5L0,-3.0L2.5,-0.5"/>
  </g>
  <g id="arrowRight" transform="rotate(90) translate(36 -43)">
    <use xlink:href="#rim"/>
    <path pointer-events="none" fill="none" stroke="white" stroke-width="1.5" d="M0,-3.0v7 M-2.5,-0.5L0,-3.0L2.5,-0.5"/>
  </g>
  <g id="arrowDown" transform="rotate(180) translate(-30 -48)">
    <use xlink:href="#rim"/>
    <path pointer-events="none" fill="none" stroke="white" stroke-width="1.5" d="M0,-3.0v7 M-2.5,-0.5L0,-3.0L2.5,-0.5"/>
  </g>
  <g id="arrowLeft" transform="rotate(270) translate(-36 17)">
    <use xlink:href="#rim"/>
    <path pointer-events="none" fill="none" stroke="white" stroke-width="1.5" d="M0,-3.0v7 M-2.5,-0.5L0,-3.0L2.5,-0.5"/>
  </g>
  <g id="resetDef">
    <use xlink:href="#rim2" fill="#404040"><set attributeName="fill" to="#808080" begin="reset.mouseover" end="reset.mouseout"/></use>
  </g>
</defs>
<script type="application/ecmascript">
var viewWidth = 620;
var viewHeight = 288;
var sectionId = 'dynsection-1';
</script>
<script type="application/ecmascript" xlink:href="../../svg.min.js"/>
<svg id="graph" class="graph">
<g id="viewport">
<title>fl::s16x16::pow</title>
<!-- Node1 -->
<g id="Node000001" class="node">
<title>Node1</title>
<g id="a_Node000001"><a xlink:title=" ">
<polygon fill="#999999" stroke="#666666" points="612,-92 522,-92 522,-73 612,-73 612,-92"/>
<text text-anchor="middle" x="567" y="-80" font-family="Helvetica,sans-Serif" font-size="10.00">fl::s16x16::pow</text>
</a>
</g>
</g>
<!-- Node2 -->
<g id="Node000002" class="node">
<title>Node2</title>
<g id="a_Node000002"><a xlink:href="../../d4/d36/namespacefl_a8e57c41745476cc807abe80ec88f50d8.html#a8e57c41745476cc807abe80ec88f50d8" target="_top" xlink:title=" ">
<polygon fill="white" stroke="#666666" points="476,-148 349,-148 349,-129 476,-129 476,-148"/>
<text text-anchor="middle" x="412.5" y="-136" font-family="Helvetica,sans-Serif" font-size="10.00">fl::applyGamma_video</text>
</a>
</g>
</g>
<!-- Node1&#45;&gt;Node2 -->
<g id="edge1_Node000001_Node000002" class="edge">
<title>Node1&#45;&gt;Node2</title>
<g id="a_edge1_Node000001_Node000002"><a xlink:title=" ">
<path fill="none" stroke="#63b8ff" d="M530.39,-95.58C502.51,-105.81 464.39,-119.81 439.37,-129"/>
<polygon fill="#63b8ff" stroke="#63b8ff" points="531.6,-98.86 539.78,-92.13 529.19,-92.29 531.6,-98.86"/>
</a>
</g>
</g>
<!-- Node10 -->
<g id="Node000010" class="node">
<title>Node10</title>
<g id="a_Node000010"><a xlink:href="../../d2/d24/classfl_1_1_flow_field_f_p_a8d203d75b3595fe20827d30ac914d9c9.html#a8d203d75b3595fe20827d30ac914d9c9" target="_top" xlink:title=" ">
<polygon fill="white" stroke="#666666" points="486,-74 339,-74 339,-55 486,-55 486,-74"/>
<text text-anchor="middle" x="412.5" y="-62" font-family="Helvetica,sans-Serif" font-size="10.00">fl::FlowFieldFP::flowAdvect</text>
</a>
</g>
</g>
<!-- Node1&#45;&gt;Node10 -->
<g id="edge10_Node000001_Node000010" class="edge">
<title>Node1&#45;&gt;Node10</title>
<g id="a_edge10_Node000001_Node000010"><a xlink:title=" ">
<path fill="none" stroke="#63b8ff" d="M511.95,-76.12C503.62,-75.14 494.9,-74.11 486.24,-73.09"/>
<polygon fill="#63b8ff" stroke="#63b8ff" points="511.55,-79.6 521.89,-77.29 512.37,-72.65 511.55,-79.6"/>
</a>
</g>
</g>
<!-- Node3 -->
<g id="Node000003" class="node">
<title>Node3</title>
<g id="a_Node000003"><a xlink:href="../../d4/d36/namespacefl_a008bd36c48151b99dd0c88b45ec1b82e.html#a008bd36c48151b99dd0c88b45ec1b82e" target="_top" xlink:title=" ">
<polygon fill="white" stroke="#666666" points="297,-280 170,-280 170,-261 297,-261 297,-280"/>
<text text-anchor="middle" x="233.5" y="-268" font-family="Helvetica,sans-Serif" font-size="10.00">fl::applyGamma_video</text>
</a>
</g>
</g>
<!-- Node2&#45;&gt;Node3 -->
<g id="edge2_Node000002_Node000003" class="edge">
<title>Node2&#45;&gt;Node3</title>
<g id="a_edge2_Node000002_Node000003"><a xlink:title=" ">
<path fill="none" stroke="#63b8ff" d="M399.39,-156.48C381.38,-181.79 345.11,-227.62 303,-252.5 297.18,-255.94 290.69,-258.73 284.1,-261"/>
<polygon fill="#63b8ff" stroke="#63b8ff" points="402.34,-158.37 405.18,-148.16 396.59,-154.37 402.34,-158.37"/>
</a>
</g>
</g>
<!-- Node4 -->
<g id="Node000004" class="node">
<title>Node4</title>
<g id="a_Node000004"><a xlink:href="../../d4/d36/namespacefl_a483e18df1bdb549e6e5f5acfe40ae1fb.html#a483e18df1bdb549e6e5f5acfe40ae1fb" target="_top" xlink:title=" ">
<polygon fill="white" stroke="#666666" points="297,-243 170,-243 170,-224 297,-224 297,-243"/>
<text text-anchor="middle" x="233.5" y="-231" font-family="Helvetica,sans-Serif" font-size="10.00">fl::applyGamma_video</text>
</a>
</g>
</g>
<!-- Node2&#45;&gt;Node4 -->
<g id="edge3_Node000002_Node000004" class="edge">
<title>Node2&#45;&gt;Node4</title>
<g id="a_edge3_Node000002_Node000004"><a xlink:title=" ">
<path fill="none" stroke="#63b8ff" d="M390.85,-154.21C369.66,-169.78 335.33,-193.55 303,-209.5 291.59,-215.13 278.52,-220.05 266.87,-223.95"/>
<polygon fill="#63b8ff" stroke="#63b8ff" points="393.14,-156.86 399.08,-148.08 388.96,-151.24 393.14,-156.86"/>
</a>
</g>
</g>
<!-- Node5 -->
<g id="Node000005" class="node">
<title>Node5</title>
<g id="a_Node000005"><a xlink:href="../../d4/d1c/fl_2gfx_2colorutils_8h_a4ab605f27e67edf3cf9bd320c55042de.html#a4ab605f27e67edf3cf9bd320c55042de" target="_top" xlink:title=" ">
<polygon fill="white" stroke="#666666" points="128,-186 0,-186 0,-167 128,-167 128,-186"/>
<text text-anchor="middle" x="64" y="-174" font-family="Helvetica,sans-Serif" font-size="10.00">FL_DISABLE_WARNING</text>
</a>
</g>
</g>
<!-- Node2&#45;&gt;Node5 -->
<g id="edge4_Node000002_Node000005" class="edge">
<title>Node2&#45;&gt;Node5</title>
<g id="a_edge4_Node000002_Node000005"><a xlink:title=" ">
<path fill="none" stroke="#63b8ff" d="M381.65,-152.02C360.25,-160.95 330.47,-171.83 303,-176.5 244.34,-186.47 176.37,-185.23 128.12,-182.23"/>
<polygon fill="#63b8ff" stroke="#63b8ff" points="383.03,-155.24 390.85,-148.09 380.28,-148.8 383.03,-155.24"/>
</a>
</g>
</g>
<!-- Node6 -->
<g id="Node000006" class="node">
<title>Node6</title>
<g id="a_Node000006"><a xlink:href="../../d4/d36/namespacefl_aca1b8ffda79135fcb6c683f4e860db32.html#aca1b8ffda79135fcb6c683f4e860db32" target="_top" xlink:title=" ">
<polygon fill="white" stroke="#666666" points="300,-167 167,-167 167,-148 300,-148 300,-167"/>
<text text-anchor="middle" x="233.5" y="-155" font-family="Helvetica,sans-Serif" font-size="10.00">fl::napplyGamma_video</text>
</a>
</g>
</g>
<!-- Node2&#45;&gt;Node6 -->
<g id="edge5_Node000002_Node000006" class="edge">
<title>Node2&#45;&gt;Node6</title>
<g id="a_edge5_Node000002_Node000006"><a xlink:title=" ">
<path fill="none" stroke="#63b8ff" d="M338.53,-146.33C325.83,-147.7 312.68,-149.11 300.19,-150.45"/>
<polygon fill="#63b8ff" stroke="#63b8ff" points="339.03,-149.8 348.6,-145.25 338.28,-142.84 339.03,-149.8"/>
</a>
</g>
</g>
<!-- Node7 -->
<g id="Node000007" class="node">
<title>Node7</title>
<g id="a_Node000007"><a xlink:href="../../d4/d36/namespacefl_a6bfc0e69ac2c5b1e8a372949494b9b2c.html#a6bfc0e69ac2c5b1e8a372949494b9b2c" target="_top" xlink:title=" ">
<polygon fill="white" stroke="#666666" points="300,-130 167,-130 167,-111 300,-111 300,-130"/>
<text text-anchor="middle" x="233.5" y="-118" font-family="Helvetica,sans-Serif" font-size="10.00">fl::napplyGamma_video</text>
</a>
</g>
</g>
<!-- Node2&#45;&gt;Node7 -->
<g id="edge7_Node000002_Node000007" class="edge">
<title>Node2&#45;&gt;Node7</title>
<g id="a_edge7_Node000002_Node000007"><a xlink:title=" ">
<path fill="none" stroke="#63b8ff" d="M338.53,-131.08C325.83,-129.79 312.68,-128.45 300.19,-127.18"/>
<polygon fill="#63b8ff" stroke="#63b8ff" points="338.3,-134.57 348.6,-132.1 339,-127.61 338.3,-134.57"/>
</a>
</g>
</g>
<!-- Node8 -->
<g id="Node000008" class="node">
<title>Node8</title>
<g id="a_Node000008"><a xlink:href="../../d4/d36/namespacefl_a7892e0482384e7dcac55bab5e5f2244a.html#a7892e0482384e7dcac55bab5e5f2244a" target="_top" xlink:title=" ">
<polygon fill="white" stroke="#666666" points="300,-93 167,-93 167,-74 300,-74 300,-93"/>
<text text-anchor="middle" x="233.5" y="-81" font-family="Helvetica,sans-Serif" font-size="10.00">fl::napplyGamma_video</text>
</a>
</g>
</g>
<!-- Node2&#45;&gt;Node8 -->
<g id="edge8_Node000002_Node000008" class="edge">
<title>Node2&#45;&gt;Node8</title>
<g id="a_edge8_Node000002_Node000008"><a xlink:title=" ">
<path fill="none" stroke="#63b8ff" d="M375.85,-125.62C354.78,-118.19 327.51,-108.89 303,-101.5 293.23,-98.55 282.59,-95.63 272.68,-93.01"/>
<polygon fill="#63b8ff" stroke="#63b8ff" points="374.77,-128.95 385.36,-129 377.11,-122.36 374.77,-128.95"/>
</a>
</g>
</g>
<!-- Node9 -->
<g id="Node000009" class="node">
<title>Node9</title>
<g id="a_Node000009"><a xlink:href="../../d4/d36/namespacefl_a8b71e0863c911abf58d21636dd261d34.html#a8b71e0863c911abf58d21636dd261d34" target="_top" xlink:title=" ">
<polygon fill="white" stroke="#666666" points="300,-56 167,-56 167,-37 300,-37 300,-56"/>
<text text-anchor="middle" x="233.5" y="-44" font-family="Helvetica,sans-Serif" font-size="10.00">fl::napplyGamma_video</text>
</a>
</g>
</g>
<!-- Node2&#45;&gt;Node9 -->
<g id="edge9_Node000002_Node000009" class="edge">
<title>Node2&#45;&gt;Node9</title>
<g id="a_edge9_Node000002_Node000009"><a xlink:title=" ">
<path fill="none" stroke="#63b8ff" d="M392.24,-122.32C371.45,-105.62 336.76,-79.89 303,-64.5 295.73,-61.18 287.73,-58.39 279.85,-56.07"/>
<polygon fill="#63b8ff" stroke="#63b8ff" points="390.3,-125.26 400.25,-128.87 394.73,-119.84 390.3,-125.26"/>
</a>
</g>
</g>
<!-- Node6&#45;&gt;Node5 -->
<g id="edge6_Node000006_Node000005" class="edge">
<title>Node6&#45;&gt;Node5</title>
<g id="a_edge6_Node000006_Node000005"><a xlink:title=" ">
<path fill="none" stroke="#63b8ff" d="M156.83,-166.08C147.22,-167.17 137.45,-168.28 128.06,-169.35"/>
<polygon fill="#63b8ff" stroke="#63b8ff" points="157.24,-169.56 166.78,-164.95 156.45,-162.6 157.24,-169.56"/>
</a>
</g>
</g>
<!-- Node11 -->
<g id="Node000011" class="node">
<title>Node11</title>
<g id="a_Node000011"><a xlink:href="../../d2/d24/classfl_1_1_flow_field_f_p_aa904e268491b4ec6071f18ff47a45151.html#aa904e268491b4ec6071f18ff47a45151" target="_top" xlink:title="Subclasses implement rendering given the time delta and total time.">
<polygon fill="white" stroke="#666666" points="303,-19 164,-19 164,0 303,0 303,-19"/>
<text text-anchor="middle" x="233.5" y="-7" font-family="Helvetica,sans-Serif" font-size="10.00">fl::FlowFieldFP::drawImpl</text>
</a>
</g>
</g>
<!-- Node10&#45;&gt;Node11 -->
<g id="edge11_Node000010_Node000011" class="edge">
<title>Node10&#45;&gt;Node11</title>
<g id="a_edge11_Node000010_Node000011"><a xlink:title=" ">
<path fill="none" stroke="#63b8ff" d="M375.85,-51.62C354.78,-44.19 327.51,-34.89 303,-27.5 293.23,-24.55 282.59,-21.63 272.68,-19.01"/>
<polygon fill="#63b8ff" stroke="#63b8ff" points="374.77,-54.95 385.36,-55 377.11,-48.36 374.77,-54.95"/>
</a>
</g>
</g>
</g>
</svg>

<g id="navigator" transform="translate(0 0)" fill="#404254">
  <rect fill="#f2f5e9" fill-opacity="0.5" stroke="#606060" stroke-width=".5" x="0" y="0" width="60" height="60"/>
  <use id="zoomplus" xlink:href="#zoomPlus" x="17" y="9" onmousedown="handleZoom(evt,'in')"/>
  <use id="zoomminus" xlink:href="#zoomMin" x="42" y="9" onmousedown="handleZoom(evt,'out')"/>
  <use id="reset" xlink:href="#resetDef" x="30" y="36" onmousedown="handleReset()"/>
   <use id="arrowup" xlink:href="#arrowUp" x="0" y="0" onmousedown="handlePan(0,-1)"/>
  <use id="arrowright" xlink:href="#arrowRight" x="0" y="0" onmousedown="handlePan(1,0)"/>
  <use id="arrowdown" xlink:href="#arrowDown" x="0" y="0" onmousedown="handlePan(0,1)"/>
  <use id="arrowleft" xlink:href="#arrowLeft" x="0" y="0" onmousedown="handlePan(-1,0)"/>
</g>
<svg viewBox="0 0 15 15" width="100%" height="30px" preserveAspectRatio="xMaxYMin meet">
 <g id="arrow_out" transform="scale(0.3 0.3)">
  <a xlink:href="classfl_1_1s16x16_ad54fc4759a533ca8fb29bd32ba982291_ad54fc4759a533ca8fb29bd32ba982291_icgraph_org.svg" target="_base">
   <rect id="button" ry="5" rx="5" y="6" x="6" height="38" width="38"
        fill="#f2f5e9" fill-opacity="0.5" stroke="#606060" stroke-width="1.0"/>
   <path id="arrow"
     d="M 11.500037,31.436501 C 11.940474,20.09759 22.043105,11.32322 32.158766,21.979434 L 37.068811,17.246167 C 37.068811,17.246167 37.088388,32 37.088388,32 L 22.160133,31.978069 C 22.160133,31.978069 26.997745,27.140456 26.997745,27.140456 C 18.528582,18.264221 13.291696,25.230495 11.500037,31.436501 z"
     style="fill:#404040;"/>
  </a>
 </g>
</svg>

<style type='text/css'>
<![CDATA[
[data-mouse-over-selected='false'] { opacity: 0.7; }
[data-mouse-over-selected='true']  { opacity: 1.0; }
]]>
</style>
<script type="application/ecmascript"><![CDATA[
document.addEventListener('DOMContentLoaded', (event) => {
  highlightEdges();
  highlightAdjacentNodes();
});
]]></script>
</svg>
