<?xml version="1.0" encoding="UTF-8" standalone="no"?>
<!DOCTYPE svg PUBLIC "-//W3C//DTD SVG 1.1//EN"
 "http://www.w3.org/Graphics/SVG/1.1/DTD/svg11.dtd">
<!-- Generated by graphviz version 2.43.0 (0)
 -->
<!-- Title: fl::json::as_bool Pages: 1 -->
<svg width="568pt" height="124pt"
 viewBox="0.00 0.00 568.00 124.00" xmlns="http://www.w3.org/2000/svg" xmlns:xlink="http://www.w3.org/1999/xlink">
<g id="graph0" class="graph" transform="scale(1 1) rotate(0) translate(4 120)">
<title>fl::json::as_bool</title>
<!-- Node1 -->
<g id="Node000001" class="node">
<title>Node1</title>
<g id="a_Node000001"><a xlink:title=" ">
<polygon fill="#999999" stroke="#666666" points="560,-67.5 468,-67.5 468,-48.5 560,-48.5 560,-67.5"/>
<text text-anchor="middle" x="514" y="-55.5" font-family="Helvetica,sans-Serif" font-size="10.00">fl::json::as_bool</text>
</a>
</g>
</g>
<!-- Node2 -->
<g id="Node000002" class="node">
<title>Node2</title>
<g id="a_Node000002"><a xlink:href="../../db/d63/class_auto_research_remote_control_a9a819dc75227620145214052d8c25f48.html#a9a819dc75227620145214052d8c25f48" target="_top" xlink:title=" ">
<polygon fill="white" stroke="#666666" points="432,-116 274,-116 274,-86 432,-86 432,-116"/>
<text text-anchor="start" x="282" y="-104" font-family="Helvetica,sans-Serif" font-size="10.00">AutoResearchRemoteControl</text>
<text text-anchor="middle" x="353" y="-93" font-family="Helvetica,sans-Serif" font-size="10.00">::findConnectedPinsImpl</text>
</a>
</g>
</g>
<!-- Node1&#45;&gt;Node2 -->
<g id="edge1_Node000001_Node000002" class="edge">
<title>Node1&#45;&gt;Node2</title>
<g id="a_edge1_Node000001_Node000002"><a xlink:title=" ">
<path fill="none" stroke="#63b8ff" d="M467.95,-70.18C449.77,-75.1 428.61,-80.82 409.49,-85.99"/>
<polygon fill="#63b8ff" stroke="#63b8ff" points="468.97,-73.53 477.71,-67.54 467.15,-66.78 468.97,-73.53"/>
</a>
</g>
</g>
<!-- Node3 -->
<g id="Node000003" class="node">
<title>Node3</title>
<g id="a_Node000003"><a xlink:href="../../db/d63/class_auto_research_remote_control_abb6600e8a1e8c4ef46ba29e7bd3b78b4.html#abb6600e8a1e8c4ef46ba29e7bd3b78b4" target="_top" xlink:title="Register all RPC functions with shared autoresearch state.">
<polygon fill="white" stroke="#666666" points="238,-73 80,-73 80,-43 238,-43 238,-73"/>
<text text-anchor="start" x="88" y="-61" font-family="Helvetica,sans-Serif" font-size="10.00">AutoResearchRemoteControl</text>
<text text-anchor="middle" x="159" y="-50" font-family="Helvetica,sans-Serif" font-size="10.00">::registerFunctions</text>
</a>
</g>
</g>
<!-- Node1&#45;&gt;Node3 -->
<g id="edge4_Node000001_Node000003" class="edge">
<title>Node1&#45;&gt;Node3</title>
<g id="a_edge4_Node000001_Node000003"><a xlink:title=" ">
<path fill="none" stroke="#63b8ff" d="M457.69,-58C398.64,-58 304.61,-58 238.05,-58"/>
<polygon fill="#63b8ff" stroke="#63b8ff" points="457.93,-61.5 467.93,-58 457.93,-54.5 457.93,-61.5"/>
</a>
</g>
</g>
<!-- Node5 -->
<g id="Node000005" class="node">
<title>Node5</title>
<g id="a_Node000005"><a xlink:href="../../db/d63/class_auto_research_remote_control_a7992b62fd1f26fe1898d2ea8a78b370a.html#a7992b62fd1f26fe1898d2ea8a78b370a" target="_top" xlink:title=" ">
<polygon fill="white" stroke="#666666" points="432,-30 274,-30 274,0 432,0 432,-30"/>
<text text-anchor="start" x="282" y="-18" font-family="Helvetica,sans-Serif" font-size="10.00">AutoResearchRemoteControl</text>
<text text-anchor="middle" x="353" y="-7" font-family="Helvetica,sans-Serif" font-size="10.00">::runSingleTestImpl</text>
</a>
</g>
</g>
<!-- Node1&#45;&gt;Node5 -->
<g id="edge5_Node000001_Node000005" class="edge">
<title>Node1&#45;&gt;Node5</title>
<g id="a_edge5_Node000001_Node000005"><a xlink:title=" ">
<path fill="none" stroke="#63b8ff" d="M467.95,-45.82C449.77,-40.9 428.61,-35.18 409.49,-30.01"/>
<polygon fill="#63b8ff" stroke="#63b8ff" points="467.15,-49.22 477.71,-48.46 468.97,-42.47 467.15,-49.22"/>
</a>
</g>
</g>
<!-- Node2&#45;&gt;Node3 -->
<g id="edge2_Node000002_Node000003" class="edge">
<title>Node2&#45;&gt;Node3</title>
<g id="a_edge2_Node000002_Node000003"><a xlink:title=" ">
<path fill="none" stroke="#63b8ff" d="M275.07,-83.77C259.2,-80.22 242.61,-76.5 227.11,-73.03"/>
<polygon fill="#63b8ff" stroke="#63b8ff" points="274.32,-87.19 284.85,-85.96 275.85,-80.36 274.32,-87.19"/>
</a>
</g>
</g>
<!-- Node4 -->
<g id="Node000004" class="node">
<title>Node4</title>
<g id="a_Node000004"><a xlink:href="../../dd/dc8/_auto_research_8ino_a4fc01d736fe50cf5b977f755b675f11d.html#a4fc01d736fe50cf5b977f755b675f11d" target="_top" xlink:title=" ">
<polygon fill="white" stroke="#666666" points="44,-67.5 0,-67.5 0,-48.5 44,-48.5 44,-67.5"/>
<text text-anchor="middle" x="22" y="-55.5" font-family="Helvetica,sans-Serif" font-size="10.00">setup</text>
</a>
</g>
</g>
<!-- Node3&#45;&gt;Node4 -->
<g id="edge3_Node000003_Node000004" class="edge">
<title>Node3&#45;&gt;Node4</title>
<g id="a_edge3_Node000003_Node000004"><a xlink:title=" ">
<path fill="none" stroke="#63b8ff" d="M69.81,-58C60.35,-58 51.48,-58 44.07,-58"/>
<polygon fill="#63b8ff" stroke="#63b8ff" points="69.86,-61.5 79.86,-58 69.86,-54.5 69.86,-61.5"/>
</a>
</g>
</g>
<!-- Node5&#45;&gt;Node3 -->
<g id="edge6_Node000005_Node000003" class="edge">
<title>Node5&#45;&gt;Node3</title>
<g id="a_edge6_Node000005_Node000003"><a xlink:title=" ">
<path fill="none" stroke="#63b8ff" d="M275.07,-32.23C259.2,-35.78 242.61,-39.5 227.11,-42.97"/>
<polygon fill="#63b8ff" stroke="#63b8ff" points="275.85,-35.64 284.85,-30.04 274.32,-28.81 275.85,-35.64"/>
</a>
</g>
</g>
</g>
</svg>
