<?xml version="1.0" encoding="UTF-8" standalone="no"?>
<!DOCTYPE svg PUBLIC "-//W3C//DTD SVG 1.1//EN"
 "http://www.w3.org/Graphics/SVG/1.1/DTD/svg11.dtd">
<!-- Generated by graphviz version 2.43.0 (0)
 -->
<!-- Title: fl::json::parse Pages: 1 -->
<svg width="854pt" height="449pt"
 viewBox="0.00 0.00 854.00 449.00" xmlns="http://www.w3.org/2000/svg" xmlns:xlink="http://www.w3.org/1999/xlink">
<g id="graph0" class="graph" transform="scale(1 1) rotate(0) translate(4 445)">
<title>fl::json::parse</title>
<!-- Node1 -->
<g id="Node000001" class="node">
<title>Node1</title>
<g id="a_Node000001"><a xlink:title=" ">
<polygon fill="#999999" stroke="#666666" points="846,-248 764,-248 764,-229 846,-229 846,-248"/>
<text text-anchor="middle" x="805" y="-236" font-family="Helvetica,sans-Serif" font-size="10.00">fl::json::parse</text>
</a>
</g>
</g>
<!-- Node1&#45;&gt;Node1 -->
<g id="edge8_Node000001_Node000001" class="edge">
<title>Node1&#45;&gt;Node1</title>
<g id="a_edge8_Node000001_Node000001"><a xlink:title=" ">
<path fill="none" stroke="#63b8ff" d="M836.44,-256.45C835.54,-261.82 825.06,-266 805,-266 775.14,-266 766.51,-256.73 779.11,-248.08"/>
<polygon fill="#63b8ff" stroke="#63b8ff" points="839.34,-254.49 830.89,-248.08 833.5,-258.35 839.34,-254.49"/>
</a>
</g>
</g>
<!-- Node2 -->
<g id="Node000002" class="node">
<title>Node2</title>
<g id="a_Node000002"><a xlink:href="../../d4/d36/namespacefl_a6913bcc5545eb4b029ec170d48a14766.html#a6913bcc5545eb4b029ec170d48a14766" target="_top" xlink:title="Create a JSON&#45;RPC RequestSource that reads from fl:: serial input.">
<polygon fill="white" stroke="#666666" points="715.5,-404 555.5,-404 555.5,-385 715.5,-385 715.5,-404"/>
<text text-anchor="middle" x="635.5" y="-392" font-family="Helvetica,sans-Serif" font-size="10.00">fl::createSerialRequestSource</text>
</a>
</g>
</g>
<!-- Node1&#45;&gt;Node2 -->
<g id="edge1_Node000001_Node000002" class="edge">
<title>Node1&#45;&gt;Node2</title>
<g id="a_edge1_Node000001_Node000002"><a xlink:title=" ">
<path fill="none" stroke="#63b8ff" d="M799.04,-257.89C790.21,-288.28 768.72,-346.76 728,-376.5 723.42,-379.84 718.39,-382.61 713.11,-384.89"/>
<polygon fill="#63b8ff" stroke="#63b8ff" points="802.47,-258.63 801.74,-248.06 795.72,-256.78 802.47,-258.63"/>
</a>
</g>
</g>
<!-- Node5 -->
<g id="Node000005" class="node">
<title>Node5</title>
<g id="a_Node000005"><a xlink:href="../../d7/dd1/classfl_1_1_rpc_a16bb9675b8d15f3713e49fbb5a8b05a3.html#a16bb9675b8d15f3713e49fbb5a8b05a3" target="_top" xlink:title="Process a JSON&#45;RPC request.">
<polygon fill="white" stroke="#666666" points="678.5,-367 592.5,-367 592.5,-348 678.5,-348 678.5,-367"/>
<text text-anchor="middle" x="635.5" y="-355" font-family="Helvetica,sans-Serif" font-size="10.00">fl::Rpc::handle</text>
</a>
</g>
</g>
<!-- Node1&#45;&gt;Node5 -->
<g id="edge4_Node000001_Node000005" class="edge">
<title>Node1&#45;&gt;Node5</title>
<g id="a_edge4_Node000001_Node000005"><a xlink:title=" ">
<path fill="none" stroke="#63b8ff" d="M794.03,-257.18C781.49,-278.84 757.95,-314.04 728,-333.5 713.4,-342.99 695.21,-348.73 678.89,-352.21"/>
<polygon fill="#63b8ff" stroke="#63b8ff" points="797.17,-258.73 798.99,-248.29 791.06,-255.31 797.17,-258.73"/>
</a>
</g>
</g>
<!-- Node6 -->
<g id="Node000006" class="node">
<title>Node6</title>
<g id="a_Node000006"><a xlink:href="../../d7/dd1/classfl_1_1_rpc_acfc87927e9e6affe54e4f2861adac5fd.html#acfc87927e9e6affe54e4f2861adac5fd" target="_top" xlink:title="For notifications (no id), returns nullopt.">
<polygon fill="white" stroke="#666666" points="484,-362 359,-362 359,-343 484,-343 484,-362"/>
<text text-anchor="middle" x="421.5" y="-350" font-family="Helvetica,sans-Serif" font-size="10.00">fl::Rpc::handle_maybe</text>
</a>
</g>
</g>
<!-- Node1&#45;&gt;Node6 -->
<g id="edge6_Node000001_Node000006" class="edge">
<title>Node1&#45;&gt;Node6</title>
<g id="a_edge6_Node000001_Node000006"><a xlink:title=" ">
<path fill="none" stroke="#63b8ff" d="M788.19,-255.62C773.9,-269.98 751.55,-289.8 728,-300.5 685.57,-319.78 560.65,-336.78 484.32,-345.76"/>
<polygon fill="#63b8ff" stroke="#63b8ff" points="790.83,-257.92 795.26,-248.3 785.8,-253.06 790.83,-257.92"/>
</a>
</g>
</g>
<!-- Node7 -->
<g id="Node000007" class="node">
<title>Node7</title>
<g id="a_Node000007"><a xlink:href="../../d3/df6/_remote_8ino_afe461d27b9c48d5921c00d521181f12f.html#afe461d27b9c48d5921c00d521181f12f" target="_top" xlink:title=" ">
<polygon fill="white" stroke="#666666" points="654.5,-291 616.5,-291 616.5,-272 654.5,-272 654.5,-291"/>
<text text-anchor="middle" x="635.5" y="-279" font-family="Helvetica,sans-Serif" font-size="10.00">loop</text>
</a>
</g>
</g>
<!-- Node1&#45;&gt;Node7 -->
<g id="edge7_Node000001_Node000007" class="edge">
<title>Node1&#45;&gt;Node7</title>
<g id="a_edge7_Node000001_Node000007"><a xlink:title=" ">
<path fill="none" stroke="#63b8ff" d="M766.24,-251.25C754.1,-255.13 740.55,-259.22 728,-262.5 702.73,-269.1 673.05,-274.91 654.51,-278.32"/>
<polygon fill="#63b8ff" stroke="#63b8ff" points="767.61,-254.49 776.04,-248.07 765.45,-247.83 767.61,-254.49"/>
</a>
</g>
</g>
<!-- Node8 -->
<g id="Node000008" class="node">
<title>Node8</title>
<g id="a_Node000008"><a xlink:href="../../d0/dd1/classfl_1_1net_1_1http_1_1_response_aa7ab961e382572de8e991ea8bb6b5907.html#aa7ab961e382572de8e991ea8bb6b5907" target="_top" xlink:title="Parse JSON from response body with error handling.">
<polygon fill="white" stroke="#666666" points="697,-253.5 574,-253.5 574,-223.5 697,-223.5 697,-253.5"/>
<text text-anchor="start" x="582" y="-241.5" font-family="Helvetica,sans-Serif" font-size="10.00">fl::net::http::Response</text>
<text text-anchor="middle" x="635.5" y="-230.5" font-family="Helvetica,sans-Serif" font-size="10.00">::parse_json_body</text>
</a>
</g>
</g>
<!-- Node1&#45;&gt;Node8 -->
<g id="edge9_Node000001_Node000008" class="edge">
<title>Node1&#45;&gt;Node8</title>
<g id="a_edge9_Node000001_Node000008"><a xlink:title=" ">
<path fill="none" stroke="#63b8ff" d="M753.73,-238.5C735.96,-238.5 715.79,-238.5 697.25,-238.5"/>
<polygon fill="#63b8ff" stroke="#63b8ff" points="753.88,-242 763.88,-238.5 753.88,-235 753.88,-242"/>
</a>
</g>
</g>
<!-- Node13 -->
<g id="Node000013" class="node">
<title>Node13</title>
<g id="a_Node000013"><a xlink:href="../../db/d4e/classfl_1_1net_1_1http_1_1_http_stream_transport_abcd0cfab5c8828fed71b4eb662761dc4.html#abcd0cfab5c8828fed71b4eb662761dc4" target="_top" xlink:title=" ">
<polygon fill="white" stroke="#666666" points="728,-205.5 543,-205.5 543,-175.5 728,-175.5 728,-205.5"/>
<text text-anchor="start" x="551" y="-193.5" font-family="Helvetica,sans-Serif" font-size="10.00">fl::net::http::HttpStream</text>
<text text-anchor="middle" x="635.5" y="-182.5" font-family="Helvetica,sans-Serif" font-size="10.00">Transport::parseChunkedMessages</text>
</a>
</g>
</g>
<!-- Node1&#45;&gt;Node13 -->
<g id="edge13_Node000001_Node000013" class="edge">
<title>Node1&#45;&gt;Node13</title>
<g id="a_edge13_Node000001_Node000013"><a xlink:title=" ">
<path fill="none" stroke="#63b8ff" d="M765.22,-225.85C753.31,-222.07 740.15,-218.01 728,-214.5 717.59,-211.49 706.46,-208.44 695.68,-205.57"/>
<polygon fill="#63b8ff" stroke="#63b8ff" points="764.28,-229.22 774.87,-228.93 766.41,-222.55 764.28,-229.22"/>
</a>
</g>
</g>
<!-- Node23 -->
<g id="Node000023" class="node">
<title>Node23</title>
<g id="a_Node000023"><a xlink:href="../../d2/d78/classfl_1_1_screen_map_a9cc622d744a509ca7d0bd5a66bb4812d.html#a9cc622d744a509ca7d0bd5a66bb4812d" target="_top" xlink:title=" ">
<polygon fill="white" stroke="#666666" points="703,-146 568,-146 568,-127 703,-127 703,-146"/>
<text text-anchor="middle" x="635.5" y="-134" font-family="Helvetica,sans-Serif" font-size="10.00">fl::ScreenMap::ParseJson</text>
</a>
</g>
</g>
<!-- Node1&#45;&gt;Node23 -->
<g id="edge21_Node000001_Node000023" class="edge">
<title>Node1&#45;&gt;Node23</title>
<g id="a_edge21_Node000001_Node000023"><a xlink:title=" ">
<path fill="none" stroke="#63b8ff" d="M789.61,-220.98C775.45,-204.79 752.46,-181.08 728,-166.5 712.92,-157.51 694.82,-150.85 678.71,-146.12"/>
<polygon fill="#63b8ff" stroke="#63b8ff" points="787.01,-223.34 796.16,-228.68 792.34,-218.8 787.01,-223.34"/>
</a>
</g>
</g>
<!-- Node30 -->
<g id="Node000030" class="node">
<title>Node30</title>
<g id="a_Node000030"><a xlink:href="../../df/d37/classfl_1_1_file_system_a5e985529e5c616ff32cfe940201ee5f6.html#a5e985529e5c616ff32cfe940201ee5f6" target="_top" xlink:title=" ">
<polygon fill="white" stroke="#666666" points="701,-109 570,-109 570,-90 701,-90 701,-109"/>
<text text-anchor="middle" x="635.5" y="-97" font-family="Helvetica,sans-Serif" font-size="10.00">fl::FileSystem::readJson</text>
</a>
</g>
</g>
<!-- Node1&#45;&gt;Node30 -->
<g id="edge28_Node000001_Node000030" class="edge">
<title>Node1&#45;&gt;Node30</title>
<g id="a_edge28_Node000001_Node000030"><a xlink:title=" ">
<path fill="none" stroke="#63b8ff" d="M797.4,-219.38C787.04,-192.4 764.34,-143.65 728,-118.5 720,-112.96 710.72,-108.97 701.2,-106.11"/>
<polygon fill="#63b8ff" stroke="#63b8ff" points="794.14,-220.68 800.87,-228.86 800.72,-218.27 794.14,-220.68"/>
</a>
</g>
</g>
<!-- Node31 -->
<g id="Node000031" class="node">
<title>Node31</title>
<g id="a_Node000031"><a xlink:href="../../d3/d1f/_server_real_8h_a4fc01d736fe50cf5b977f755b675f11d.html#a4fc01d736fe50cf5b977f755b675f11d" target="_top" xlink:title=" ">
<polygon fill="white" stroke="#666666" points="657.5,-72 613.5,-72 613.5,-53 657.5,-53 657.5,-72"/>
<text text-anchor="middle" x="635.5" y="-60" font-family="Helvetica,sans-Serif" font-size="10.00">setup</text>
</a>
</g>
</g>
<!-- Node1&#45;&gt;Node31 -->
<g id="edge29_Node000001_Node000031" class="edge">
<title>Node1&#45;&gt;Node31</title>
<g id="a_edge29_Node000001_Node000031"><a xlink:title=" ">
<path fill="none" stroke="#63b8ff" d="M800.34,-218.92C792.98,-185.26 773.05,-116.64 728,-81.5 707.79,-65.74 677.67,-62.19 657.57,-61.79"/>
<polygon fill="#63b8ff" stroke="#63b8ff" points="796.95,-219.8 802.38,-228.9 803.81,-218.4 796.95,-219.8"/>
</a>
</g>
</g>
<!-- Node3 -->
<g id="Node000003" class="node">
<title>Node3</title>
<g id="a_Node000003"><a xlink:href="../../d1/df2/_auto_research_low_memory_8h_ae3f918f9121ab392058ef53302b021cf.html#ae3f918f9121ab392058ef53302b021cf" target="_top" xlink:title=" ">
<polygon fill="white" stroke="#666666" points="507,-441 336,-441 336,-422 507,-422 507,-441"/>
<text text-anchor="middle" x="421.5" y="-429" font-family="Helvetica,sans-Serif" font-size="10.00">autoResearchLowMemorySetup</text>
</a>
</g>
</g>
<!-- Node2&#45;&gt;Node3 -->
<g id="edge2_Node000002_Node000003" class="edge">
<title>Node2&#45;&gt;Node3</title>
<g id="a_edge2_Node000002_Node000003"><a xlink:title=" ">
<path fill="none" stroke="#63b8ff" d="M569.68,-405.81C540.12,-410.97 505.51,-417.01 477.28,-421.94"/>
<polygon fill="#63b8ff" stroke="#63b8ff" points="570.66,-409.2 579.9,-404.03 569.45,-402.3 570.66,-409.2"/>
</a>
</g>
</g>
<!-- Node4 -->
<g id="Node000004" class="node">
<title>Node4</title>
<g id="a_Node000004"><a xlink:href="../../d4/d36/namespacefl_a7167ab7d0c24c14e0576b7df33c212b6.html#a7167ab7d0c24c14e0576b7df33c212b6" target="_top" xlink:title="Create RequestSource and ResponseSink pair for serial I/O.">
<polygon fill="white" stroke="#666666" points="487.5,-404 355.5,-404 355.5,-385 487.5,-385 487.5,-404"/>
<text text-anchor="middle" x="421.5" y="-392" font-family="Helvetica,sans-Serif" font-size="10.00">fl::createSerialTransport</text>
</a>
</g>
</g>
<!-- Node2&#45;&gt;Node4 -->
<g id="edge3_Node000002_Node000004" class="edge">
<title>Node2&#45;&gt;Node4</title>
<g id="a_edge3_Node000002_Node000004"><a xlink:title=" ">
<path fill="none" stroke="#63b8ff" d="M545,-394.5C525.81,-394.5 505.87,-394.5 487.8,-394.5"/>
<polygon fill="#63b8ff" stroke="#63b8ff" points="545.26,-398 555.26,-394.5 545.26,-391 545.26,-398"/>
</a>
</g>
</g>
<!-- Node5&#45;&gt;Node6 -->
<g id="edge5_Node000005_Node000006" class="edge">
<title>Node5&#45;&gt;Node6</title>
<g id="a_edge5_Node000005_Node000006"><a xlink:title=" ">
<path fill="none" stroke="#63b8ff" d="M582.22,-356.27C552.58,-355.57 515.32,-354.69 484.25,-353.96"/>
<polygon fill="#63b8ff" stroke="#63b8ff" points="582.28,-359.77 592.36,-356.51 582.45,-352.77 582.28,-359.77"/>
</a>
</g>
</g>
<!-- Node9 -->
<g id="Node000009" class="node">
<title>Node9</title>
<g id="a_Node000009"><a xlink:href="../../d0/dd1/classfl_1_1net_1_1http_1_1_response_ab146220738b78d1340286c6e914ed666.html#ab146220738b78d1340286c6e914ed666" target="_top" xlink:title="Response body parsed as JSON (JavaScript&#45;like API)">
<polygon fill="white" stroke="#666666" points="483,-314.5 360,-314.5 360,-284.5 483,-284.5 483,-314.5"/>
<text text-anchor="start" x="368" y="-302.5" font-family="Helvetica,sans-Serif" font-size="10.00">fl::net::http::Response</text>
<text text-anchor="middle" x="421.5" y="-291.5" font-family="Helvetica,sans-Serif" font-size="10.00">::json</text>
</a>
</g>
</g>
<!-- Node8&#45;&gt;Node9 -->
<g id="edge10_Node000008_Node000009" class="edge">
<title>Node8&#45;&gt;Node9</title>
<g id="a_edge10_Node000008_Node000009"><a xlink:title=" ">
<path fill="none" stroke="#63b8ff" d="M568.63,-256.3C560,-258.69 551.28,-261.13 543,-263.5 519.59,-270.19 493.72,-277.89 471.96,-284.44"/>
<polygon fill="#63b8ff" stroke="#63b8ff" points="569.6,-259.66 578.31,-253.63 567.74,-252.91 569.6,-259.66"/>
</a>
</g>
</g>
<!-- Node10 -->
<g id="Node000010" class="node">
<title>Node10</title>
<g id="a_Node000010"><a xlink:href="../../d9/dce/_client_validation_real_8h_a48d1b41170d4da38b2d99148b76a9a22.html#a48d1b41170d4da38b2d99148b76a9a22" target="_top" xlink:title=" ">
<polygon fill="#fff0f0" stroke="red" points="286,-346 182,-346 182,-327 286,-327 286,-346"/>
<text text-anchor="middle" x="234" y="-334" font-family="Helvetica,sans-Serif" font-size="10.00">test_get_endpoint</text>
</a>
</g>
</g>
<!-- Node9&#45;&gt;Node10 -->
<g id="edge11_Node000009_Node000010" class="edge">
<title>Node9&#45;&gt;Node10</title>
<g id="a_edge11_Node000009_Node000010"><a xlink:title=" ">
<path fill="none" stroke="#63b8ff" d="M349.92,-313.58C327.43,-318.06 303.1,-322.92 282.64,-327"/>
<polygon fill="#63b8ff" stroke="#63b8ff" points="350.64,-317 359.76,-311.62 349.27,-310.14 350.64,-317"/>
</a>
</g>
</g>
<!-- Node12 -->
<g id="Node000012" class="node">
<title>Node12</title>
<g id="a_Node000012"><a xlink:href="../../d9/dce/_client_validation_real_8h_ad90185b2a71aa34da786634a378ac25b.html#ad90185b2a71aa34da786634a378ac25b" target="_top" xlink:title=" ">
<polygon fill="#fff0f0" stroke="red" points="288.5,-309 179.5,-309 179.5,-290 288.5,-290 288.5,-309"/>
<text text-anchor="middle" x="234" y="-297" font-family="Helvetica,sans-Serif" font-size="10.00">test_json_endpoint</text>
</a>
</g>
</g>
<!-- Node9&#45;&gt;Node12 -->
<g id="edge12_Node000009_Node000012" class="edge">
<title>Node9&#45;&gt;Node12</title>
<g id="a_edge12_Node000009_Node000012"><a xlink:title=" ">
<path fill="none" stroke="#63b8ff" d="M349.65,-299.5C329.42,-299.5 307.71,-299.5 288.69,-299.5"/>
<polygon fill="#63b8ff" stroke="#63b8ff" points="349.76,-303 359.76,-299.5 349.76,-296 349.76,-303"/>
</a>
</g>
</g>
<!-- Node14 -->
<g id="Node000014" class="node">
<title>Node14</title>
<g id="a_Node000014"><a xlink:href="../../db/d4e/classfl_1_1net_1_1http_1_1_http_stream_transport_aab4451d64b6a491f073f941fd22258c0.html#aab4451d64b6a491f073f941fd22258c0" target="_top" xlink:title="Read next JSON&#45;RPC request from stream Non&#45;blocking, returns nullopt if no complete request available...">
<polygon fill="white" stroke="#666666" points="487.5,-253.5 355.5,-253.5 355.5,-223.5 487.5,-223.5 487.5,-253.5"/>
<text text-anchor="start" x="363.5" y="-241.5" font-family="Helvetica,sans-Serif" font-size="10.00">fl::net::http::HttpStream</text>
<text text-anchor="middle" x="421.5" y="-230.5" font-family="Helvetica,sans-Serif" font-size="10.00">Transport::readRequest</text>
</a>
</g>
</g>
<!-- Node13&#45;&gt;Node14 -->
<g id="edge14_Node000013_Node000014" class="edge">
<title>Node13&#45;&gt;Node14</title>
<g id="a_edge14_Node000013_Node000014"><a xlink:title=" ">
<path fill="none" stroke="#63b8ff" d="M558.24,-207.77C535.14,-213 509.98,-218.69 487.67,-223.74"/>
<polygon fill="#63b8ff" stroke="#63b8ff" points="559.02,-211.18 568,-205.56 557.48,-204.35 559.02,-211.18"/>
</a>
</g>
</g>
<!-- Node17 -->
<g id="Node000017" class="node">
<title>Node17</title>
<g id="a_Node000017"><a xlink:href="../../db/d4e/classfl_1_1net_1_1http_1_1_http_stream_transport_a57c01766a42aa6cbab3d0c6b7617a5ff.html#a57c01766a42aa6cbab3d0c6b7617a5ff" target="_top" xlink:title="Update connection state (handles reconnection, heartbeat) Call this in main loop.">
<polygon fill="white" stroke="#666666" points="132,-253.5 0,-253.5 0,-223.5 132,-223.5 132,-253.5"/>
<text text-anchor="start" x="8" y="-241.5" font-family="Helvetica,sans-Serif" font-size="10.00">fl::net::http::HttpStream</text>
<text text-anchor="middle" x="66" y="-230.5" font-family="Helvetica,sans-Serif" font-size="10.00">Transport::update</text>
</a>
</g>
</g>
<!-- Node13&#45;&gt;Node17 -->
<g id="edge20_Node000013_Node000017" class="edge">
<title>Node13&#45;&gt;Node17</title>
<g id="a_edge20_Node000013_Node000017"><a xlink:title=" ">
<path fill="none" stroke="#63b8ff" d="M532.68,-190.42C437.83,-191.61 292.7,-196.63 168,-214.5 153.01,-216.65 136.99,-219.97 122.22,-223.46"/>
<polygon fill="#63b8ff" stroke="#63b8ff" points="532.89,-193.92 542.85,-190.31 532.81,-186.92 532.89,-193.92"/>
</a>
</g>
</g>
<!-- Node15 -->
<g id="Node000015" class="node">
<title>Node15</title>
<g id="a_Node000015"><a xlink:href="../../db/d4e/classfl_1_1net_1_1http_1_1_http_stream_transport_a8237da9613a0a0c2bffbd8bfddd1f50e.html#a8237da9613a0a0c2bffbd8bfddd1f50e" target="_top" xlink:title="Check if connected.">
<polygon fill="#fff0f0" stroke="red" points="300,-253.5 168,-253.5 168,-223.5 300,-223.5 300,-253.5"/>
<text text-anchor="start" x="176" y="-241.5" font-family="Helvetica,sans-Serif" font-size="10.00">fl::net::http::HttpStream</text>
<text text-anchor="middle" x="234" y="-230.5" font-family="Helvetica,sans-Serif" font-size="10.00">Transport::isConnected</text>
</a>
</g>
</g>
<!-- Node14&#45;&gt;Node15 -->
<g id="edge15_Node000014_Node000015" class="edge">
<title>Node14&#45;&gt;Node15</title>
<g id="a_edge15_Node000014_Node000015"><a xlink:title=" ">
<path fill="none" stroke="#63b8ff" d="M345.18,-231.86C330.3,-231.67 314.81,-231.73 300.3,-232.02"/>
<polygon fill="#63b8ff" stroke="#63b8ff" points="345.3,-235.36 355.36,-232.02 345.42,-228.36 345.3,-235.36"/>
</a>
</g>
</g>
<!-- Node15&#45;&gt;Node14 -->
<g id="edge17_Node000015_Node000014" class="edge">
<title>Node15&#45;&gt;Node14</title>
<g id="a_edge17_Node000015_Node000014"><a xlink:title=" ">
<path fill="none" stroke="#63b8ff" d="M310.48,-245.14C325.36,-245.33 340.86,-245.27 355.36,-244.98"/>
<polygon fill="#63b8ff" stroke="#63b8ff" points="310.35,-241.64 300.3,-244.98 310.24,-248.64 310.35,-241.64"/>
</a>
</g>
</g>
<!-- Node15&#45;&gt;Node15 -->
<g id="edge16_Node000015_Node000015" class="edge">
<title>Node15&#45;&gt;Node15</title>
<g id="a_edge16_Node000015_Node000015"><a xlink:title=" ">
<path fill="none" stroke="#63b8ff" d="M263.41,-264.1C259.39,-268.47 249.59,-271.5 234,-271.5 207.75,-271.5 197.91,-262.91 204.47,-253.78"/>
<polygon fill="#63b8ff" stroke="#63b8ff" points="266.91,-263.82 263.53,-253.78 259.91,-263.73 266.91,-263.82"/>
</a>
</g>
</g>
<!-- Node15&#45;&gt;Node17 -->
<g id="edge18_Node000015_Node000017" class="edge">
<title>Node15&#45;&gt;Node17</title>
<g id="a_edge18_Node000015_Node000017"><a xlink:title=" ">
<path fill="none" stroke="#63b8ff" d="M157.61,-231.78C149.13,-231.72 140.55,-231.76 132.22,-231.89"/>
<polygon fill="#63b8ff" stroke="#63b8ff" points="157.83,-235.28 167.87,-231.89 157.91,-228.28 157.83,-235.28"/>
</a>
</g>
</g>
<!-- Node17&#45;&gt;Node15 -->
<g id="edge19_Node000017_Node000015" class="edge">
<title>Node17&#45;&gt;Node15</title>
<g id="a_edge19_Node000017_Node000015"><a xlink:title=" ">
<path fill="none" stroke="#63b8ff" d="M142.48,-245.23C150.96,-245.28 159.54,-245.24 167.87,-245.11"/>
<polygon fill="#63b8ff" stroke="#63b8ff" points="142.25,-241.72 132.22,-245.11 142.18,-248.72 142.25,-241.72"/>
</a>
</g>
</g>
<!-- Node24 -->
<g id="Node000024" class="node">
<title>Node24</title>
<g id="a_Node000024"><a xlink:href="../../d7/d35/_fx_sd_card_8ino_a31b8310bfbbef87ba721eb0104ea6119.html#a31b8310bfbbef87ba721eb0104ea6119" target="_top" xlink:title=" ">
<polygon fill="white" stroke="#666666" points="487,-167 356,-167 356,-148 487,-148 487,-167"/>
<text text-anchor="middle" x="421.5" y="-155" font-family="Helvetica,sans-Serif" font-size="10.00">openVideoEitherFormat</text>
</a>
</g>
</g>
<!-- Node23&#45;&gt;Node24 -->
<g id="edge22_Node000023_Node000024" class="edge">
<title>Node23&#45;&gt;Node24</title>
<g id="a_edge22_Node000023_Node000024"><a xlink:title=" ">
<path fill="none" stroke="#63b8ff" d="M557.6,-144.12C534.49,-146.41 509.37,-148.89 487.14,-151.1"/>
<polygon fill="#63b8ff" stroke="#63b8ff" points="558.11,-147.58 567.71,-143.12 557.42,-140.62 558.11,-147.58"/>
</a>
</g>
</g>
<!-- Node26 -->
<g id="Node000026" class="node">
<title>Node26</title>
<g id="a_Node000026"><a xlink:href="../../d2/d78/classfl_1_1_screen_map_a1d131c7c809edbca9f87906ac79509c3.html#a1d131c7c809edbca9f87906ac79509c3" target="_top" xlink:title=" ">
<polygon fill="white" stroke="#666666" points="489,-130 354,-130 354,-111 489,-111 489,-130"/>
<text text-anchor="middle" x="421.5" y="-118" font-family="Helvetica,sans-Serif" font-size="10.00">fl::ScreenMap::ParseJson</text>
</a>
</g>
</g>
<!-- Node23&#45;&gt;Node26 -->
<g id="edge24_Node000023_Node000026" class="edge">
<title>Node23&#45;&gt;Node26</title>
<g id="a_edge24_Node000023_Node000026"><a xlink:title=" ">
<path fill="none" stroke="#63b8ff" d="M557.59,-130.7C535.23,-129.01 511,-127.18 489.32,-125.54"/>
<polygon fill="#63b8ff" stroke="#63b8ff" points="557.48,-134.2 567.71,-131.46 558,-127.22 557.48,-134.2"/>
</a>
</g>
</g>
<!-- Node27 -->
<g id="Node000027" class="node">
<title>Node27</title>
<g id="a_Node000027"><a xlink:href="../../df/d37/classfl_1_1_file_system_a76449b10863a3dee0631213504e817cc.html#a76449b10863a3dee0631213504e817cc" target="_top" xlink:title=" ">
<polygon fill="white" stroke="#666666" points="503.5,-93 339.5,-93 339.5,-74 503.5,-74 503.5,-93"/>
<text text-anchor="middle" x="421.5" y="-81" font-family="Helvetica,sans-Serif" font-size="10.00">fl::FileSystem::readScreenMap</text>
</a>
</g>
</g>
<!-- Node23&#45;&gt;Node27 -->
<g id="edge25_Node000023_Node000027" class="edge">
<title>Node23&#45;&gt;Node27</title>
<g id="a_edge25_Node000023_Node000027"><a xlink:title=" ">
<path fill="none" stroke="#63b8ff" d="M565.42,-124.64C557.8,-122.82 550.19,-120.77 543,-118.5 526.31,-113.22 523.62,-108 507,-102.5 496.01,-98.86 483.98,-95.69 472.54,-93.04"/>
<polygon fill="#63b8ff" stroke="#63b8ff" points="564.91,-128.11 575.43,-126.9 566.45,-121.28 564.91,-128.11"/>
</a>
</g>
</g>
<!-- Node28 -->
<g id="Node000028" class="node">
<title>Node28</title>
<g id="a_Node000028"><a xlink:href="../../df/d37/classfl_1_1_file_system_ad9bf0f8a5e0afcbbb85575c9f8785fc9.html#ad9bf0f8a5e0afcbbb85575c9f8785fc9" target="_top" xlink:title=" ">
<polygon fill="white" stroke="#666666" points="506.5,-56 336.5,-56 336.5,-37 506.5,-37 506.5,-56"/>
<text text-anchor="middle" x="421.5" y="-44" font-family="Helvetica,sans-Serif" font-size="10.00">fl::FileSystem::readScreenMaps</text>
</a>
</g>
</g>
<!-- Node23&#45;&gt;Node28 -->
<g id="edge26_Node000023_Node000028" class="edge">
<title>Node23&#45;&gt;Node28</title>
<g id="a_edge26_Node000023_Node000028"><a xlink:title=" ">
<path fill="none" stroke="#63b8ff" d="M557.94,-126.29C552.69,-124.14 547.64,-121.57 543,-118.5 519.25,-102.8 530.54,-81.52 507,-65.5 501.28,-61.61 494.89,-58.5 488.25,-56.02"/>
<polygon fill="#63b8ff" stroke="#63b8ff" points="557,-129.67 567.59,-129.72 559.34,-123.07 557,-129.67"/>
</a>
</g>
</g>
<!-- Node29 -->
<g id="Node000029" class="node">
<title>Node29</title>
<g id="a_Node000029"><a xlink:href="../../d1/ddb/_chromancer_8ino_a4fc01d736fe50cf5b977f755b675f11d.html#a4fc01d736fe50cf5b977f755b675f11d" target="_top" xlink:title=" ">
<polygon fill="white" stroke="#666666" points="443.5,-19 399.5,-19 399.5,0 443.5,0 443.5,-19"/>
<text text-anchor="middle" x="421.5" y="-7" font-family="Helvetica,sans-Serif" font-size="10.00">setup</text>
</a>
</g>
</g>
<!-- Node23&#45;&gt;Node29 -->
<g id="edge27_Node000023_Node000029" class="edge">
<title>Node23&#45;&gt;Node29</title>
<g id="a_edge27_Node000023_Node000029"><a xlink:title=" ">
<path fill="none" stroke="#63b8ff" d="M558.36,-127.96C552.83,-125.46 547.62,-122.35 543,-118.5 509.57,-90.67 540.21,-55.59 507,-27.5 489.36,-12.58 462.37,-9.1 443.65,-8.69"/>
<polygon fill="#63b8ff" stroke="#63b8ff" points="557.32,-131.32 567.91,-131.63 559.83,-124.78 557.32,-131.32"/>
</a>
</g>
</g>
<!-- Node25 -->
<g id="Node000025" class="node">
<title>Node25</title>
<g id="a_Node000025"><a xlink:href="../../d7/d35/_fx_sd_card_8ino_a4fc01d736fe50cf5b977f755b675f11d.html#a4fc01d736fe50cf5b977f755b675f11d" target="_top" xlink:title=" ">
<polygon fill="white" stroke="#666666" points="256,-167 212,-167 212,-148 256,-148 256,-167"/>
<text text-anchor="middle" x="234" y="-155" font-family="Helvetica,sans-Serif" font-size="10.00">setup</text>
</a>
</g>
</g>
<!-- Node24&#45;&gt;Node25 -->
<g id="edge23_Node000024_Node000025" class="edge">
<title>Node24&#45;&gt;Node25</title>
<g id="a_edge23_Node000024_Node000025"><a xlink:title=" ">
<path fill="none" stroke="#63b8ff" d="M345.5,-157.5C313.15,-157.5 277.8,-157.5 256.01,-157.5"/>
<polygon fill="#63b8ff" stroke="#63b8ff" points="345.88,-161 355.88,-157.5 345.88,-154 345.88,-161"/>
</a>
</g>
</g>
</g>
</svg>
