<?xml version="1.0" encoding="UTF-8" standalone="no"?>
<!DOCTYPE svg PUBLIC "-//W3C//DTD SVG 1.1//EN"
 "http://www.w3.org/Graphics/SVG/1.1/DTD/svg11.dtd">
<!-- Generated by graphviz version 2.43.0 (0)
 -->
<!-- Title: FastLED/FastLED/src/fx Pages: 1 -->
<svg width="286pt" height="196pt"
 viewBox="0.00 0.00 286.00 196.00" xmlns="http://www.w3.org/2000/svg" xmlns:xlink="http://www.w3.org/1999/xlink">
<g id="graph0" class="graph" transform="scale(1 1) rotate(0) translate(4 192)">
<title>FastLED/FastLED/src/fx</title>
<g id="clust1" class="cluster">
<title>clusterdir_e6a3de723047763e6a27a3cab040759e</title>
<g id="a_clust1"><a xlink:href="dir_e6a3de723047763e6a27a3cab040759e.html" target="_top" xlink:title="src">
<polygon fill="#edf0f7" stroke="#7f7f7f" stroke-dasharray="5,2" points="8,-8 8,-180 270,-180 270,-8 8,-8"/>
<text text-anchor="middle" x="139" y="-168" font-family="Helvetica,sans-Serif" font-size="10.00">src</text>
</a>
</g>
</g>
<g id="clust2" class="cluster">
<title>clusterdir_99eb7f655d62c348ff4cdeb2c56de408</title>
<g id="a_clust2"><a xlink:href="dir_99eb7f655d62c348ff4cdeb2c56de408.html" target="_top">
<polygon fill="#edf0f7" stroke="#404040" stroke-width="2" points="16,-63 16,-153 156,-153 156,-63 16,-63"/>
</a>
</g>
</g>
<!-- dir_353c392b00d368a619ba08871c7fd890 -->
<g id="node1" class="node">
<title>dir_353c392b00d368a619ba08871c7fd890</title>
<g id="a_node1"><a xlink:href="dir_353c392b00d368a619ba08871c7fd890.html" target="_top" xlink:title="lib8tion">
<polygon fill="#d5ddec" stroke="#404040" points="241.5,-90 188.5,-90 188.5,-71 241.5,-71 241.5,-90"/>
<text text-anchor="middle" x="215" y="-78" font-family="Helvetica,sans-Serif" font-size="10.00">lib8tion</text>
</a>
</g>
</g>
<!-- dir_3d3ed669f2fdf2afe9a87d719975d69a -->
<g id="node2" class="node">
<title>dir_3d3ed669f2fdf2afe9a87d719975d69a</title>
<g id="a_node2"><a xlink:href="dir_3d3ed669f2fdf2afe9a87d719975d69a.html" target="_top" xlink:title="fl">
<polygon fill="#d5ddec" stroke="#404040" points="163.5,-35 134.5,-35 134.5,-16 163.5,-16 163.5,-35"/>
<text text-anchor="middle" x="149" y="-23" font-family="Helvetica,sans-Serif" font-size="10.00">fl</text>
</a>
</g>
</g>
<!-- dir_99eb7f655d62c348ff4cdeb2c56de408 -->
<g id="node3" class="node">
<title>dir_99eb7f655d62c348ff4cdeb2c56de408</title>
<text text-anchor="middle" x="39" y="-133" font-family="Helvetica,sans-Serif" font-size="10.00">fx</text>
</g>
<!-- dir_99eb7f655d62c348ff4cdeb2c56de408&#45;&gt;dir_3d3ed669f2fdf2afe9a87d719975d69a -->
<g id="edge1" class="edge">
<title>dir_99eb7f655d62c348ff4cdeb2c56de408&#45;&gt;dir_3d3ed669f2fdf2afe9a87d719975d69a</title>
<g id="a_edge1"><a xlink:href="dir_000030_000029.html" target="_top">
<path fill="none" stroke="#63b8ff" d="M53.58,-128.9C79.97,-118.65 133.45,-97.24 139,-90 148.66,-77.41 150.67,-59.21 150.55,-45.53"/>
<polygon fill="#63b8ff" stroke="#63b8ff" points="154.04,-45.13 150.07,-35.31 147.05,-45.46 154.04,-45.13"/>
</a>
</g>
<g id="a_edge1&#45;headlabel"><a xlink:href="dir_000030_000029.html" target="_top" xlink:title="94">
<text text-anchor="middle" x="157.04" y="-46.09" font-family="Helvetica,sans-Serif" font-size="10.00" fill="#63b8ff">94</text>
</a>
</g>
</g>
<!-- dir_e84fdb2028a8280ee4d2d4cfb13b4200 -->
<g id="node6" class="node">
<title>dir_e84fdb2028a8280ee4d2d4cfb13b4200</title>
<g id="a_node6"><a xlink:href="dir_e84fdb2028a8280ee4d2d4cfb13b4200.html" target="_top" xlink:title="detail">
<polygon fill="#d5ddec" stroke="#404040" points="68,-90 24,-90 24,-71 68,-71 68,-90"/>
<text text-anchor="middle" x="46" y="-78" font-family="Helvetica,sans-Serif" font-size="10.00">detail</text>
</a>
</g>
</g>
<!-- dir_99eb7f655d62c348ff4cdeb2c56de408&#45;&gt;dir_e84fdb2028a8280ee4d2d4cfb13b4200 -->
<g id="edge3" class="edge">
<title>dir_99eb7f655d62c348ff4cdeb2c56de408&#45;&gt;dir_e84fdb2028a8280ee4d2d4cfb13b4200</title>
<g id="a_edge3"><a xlink:href="dir_000030_000018.html" target="_top">
<path fill="none" stroke="#63b8ff" d="M40.16,-125.75C41.07,-118.8 42.39,-108.85 43.54,-100.13"/>
<polygon fill="#63b8ff" stroke="#63b8ff" points="47.03,-100.46 44.87,-90.09 40.09,-99.54 47.03,-100.46"/>
</a>
</g>
<g id="a_edge3&#45;headlabel"><a xlink:href="dir_000030_000018.html" target="_top" xlink:title="4">
<text text-anchor="middle" x="49.37" y="-101.9" font-family="Helvetica,sans-Serif" font-size="10.00" fill="#63b8ff">4</text>
</a>
</g>
</g>
<!-- dir_6eb9b6d55f50ee7846cdaf68a347f5a4 -->
<g id="node7" class="node">
<title>dir_6eb9b6d55f50ee7846cdaf68a347f5a4</title>
<g id="a_node7"><a xlink:href="dir_6eb9b6d55f50ee7846cdaf68a347f5a4.html" target="_top" xlink:title="video">
<polygon fill="#d5ddec" stroke="#404040" points="130,-90 86,-90 86,-71 130,-71 130,-90"/>
<text text-anchor="middle" x="108" y="-78" font-family="Helvetica,sans-Serif" font-size="10.00">video</text>
</a>
</g>
</g>
<!-- dir_99eb7f655d62c348ff4cdeb2c56de408&#45;&gt;dir_6eb9b6d55f50ee7846cdaf68a347f5a4 -->
<g id="edge2" class="edge">
<title>dir_99eb7f655d62c348ff4cdeb2c56de408&#45;&gt;dir_6eb9b6d55f50ee7846cdaf68a347f5a4</title>
<g id="a_edge2"><a xlink:href="dir_000030_000083.html" target="_top">
<path fill="none" stroke="#63b8ff" d="M50.09,-125.98C60.49,-118 76.26,-105.88 88.72,-96.31"/>
<polygon fill="#63b8ff" stroke="#63b8ff" points="90.91,-99.04 96.71,-90.17 86.65,-93.49 90.91,-99.04"/>
</a>
</g>
<g id="a_edge2&#45;headlabel"><a xlink:href="dir_000030_000083.html" target="_top" xlink:title="3">
<text text-anchor="middle" x="89.79" y="-100.98" font-family="Helvetica,sans-Serif" font-size="10.00" fill="#63b8ff">3</text>
</a>
</g>
</g>
<!-- dir_ed68ce6e78c2485c05e072063dcd3729 -->
<g id="node4" class="node">
<title>dir_ed68ce6e78c2485c05e072063dcd3729</title>
<g id="a_node4"><a xlink:href="dir_ed68ce6e78c2485c05e072063dcd3729.html" target="_top" xlink:title="1d">
<polygon fill="#d5ddec" stroke="#404040" points="100.5,-145 71.5,-145 71.5,-126 100.5,-126 100.5,-145"/>
<text text-anchor="middle" x="86" y="-133" font-family="Helvetica,sans-Serif" font-size="10.00">1d</text>
</a>
</g>
</g>
<!-- dir_ed68ce6e78c2485c05e072063dcd3729&#45;&gt;dir_3d3ed669f2fdf2afe9a87d719975d69a -->
<g id="edge4" class="edge">
<title>dir_ed68ce6e78c2485c05e072063dcd3729&#45;&gt;dir_3d3ed669f2fdf2afe9a87d719975d69a</title>
<g id="a_edge4"><a xlink:href="dir_000000_000029.html" target="_top">
<path fill="none" stroke="#63b8ff" d="M100.58,-129.73C116.96,-123.5 142.73,-110.85 154,-90 161.4,-76.32 159.16,-58.51 155.64,-45.23"/>
<polygon fill="#63b8ff" stroke="#63b8ff" points="158.87,-43.85 152.56,-35.34 152.19,-45.93 158.87,-43.85"/>
</a>
</g>
<g id="a_edge4&#45;headlabel"><a xlink:href="dir_000000_000029.html" target="_top" xlink:title="8">
<text text-anchor="middle" x="162.65" y="-43.94" font-family="Helvetica,sans-Serif" font-size="10.00" fill="#63b8ff">8</text>
</a>
</g>
</g>
<!-- dir_458dc1a3d8bc62a7280722ddac7be2a6 -->
<g id="node5" class="node">
<title>dir_458dc1a3d8bc62a7280722ddac7be2a6</title>
<g id="a_node5"><a xlink:href="dir_458dc1a3d8bc62a7280722ddac7be2a6.html" target="_top" xlink:title="2d">
<polygon fill="#d5ddec" stroke="#404040" points="147.5,-145 118.5,-145 118.5,-126 147.5,-126 147.5,-145"/>
<text text-anchor="middle" x="133" y="-133" font-family="Helvetica,sans-Serif" font-size="10.00">2d</text>
</a>
</g>
</g>
<!-- dir_458dc1a3d8bc62a7280722ddac7be2a6&#45;&gt;dir_353c392b00d368a619ba08871c7fd890 -->
<g id="edge5" class="edge">
<title>dir_458dc1a3d8bc62a7280722ddac7be2a6&#45;&gt;dir_353c392b00d368a619ba08871c7fd890</title>
<g id="a_edge5"><a xlink:href="dir_000001_000048.html" target="_top">
<path fill="none" stroke="#63b8ff" d="M146.17,-125.98C158.77,-117.84 178,-105.41 192.94,-95.76"/>
<polygon fill="#63b8ff" stroke="#63b8ff" points="195.09,-98.54 201.59,-90.17 191.29,-92.66 195.09,-98.54"/>
</a>
</g>
<g id="a_edge5&#45;headlabel"><a xlink:href="dir_000001_000048.html" target="_top" xlink:title="4">
<text text-anchor="middle" x="193.61" y="-100.37" font-family="Helvetica,sans-Serif" font-size="10.00" fill="#63b8ff">4</text>
</a>
</g>
</g>
<!-- dir_458dc1a3d8bc62a7280722ddac7be2a6&#45;&gt;dir_3d3ed669f2fdf2afe9a87d719975d69a -->
<g id="edge6" class="edge">
<title>dir_458dc1a3d8bc62a7280722ddac7be2a6&#45;&gt;dir_3d3ed669f2fdf2afe9a87d719975d69a</title>
<g id="a_edge6"><a xlink:href="dir_000001_000029.html" target="_top">
<path fill="none" stroke="#63b8ff" d="M147.77,-133.97C173.8,-132.15 227.34,-124.21 251,-90 257.83,-80.13 257.91,-72.81 251,-63 233.63,-38.33 197.97,-30.25 173.77,-27.65"/>
<polygon fill="#63b8ff" stroke="#63b8ff" points="173.82,-24.14 163.56,-26.8 173.24,-31.12 173.82,-24.14"/>
</a>
</g>
<g id="a_edge6&#45;headlabel"><a xlink:href="dir_000001_000029.html" target="_top" xlink:title="21">
<text text-anchor="middle" x="177.63" y="-19.11" font-family="Helvetica,sans-Serif" font-size="10.00" fill="#63b8ff">21</text>
</a>
</g>
</g>
<!-- dir_e84fdb2028a8280ee4d2d4cfb13b4200&#45;&gt;dir_3d3ed669f2fdf2afe9a87d719975d69a -->
<g id="edge7" class="edge">
<title>dir_e84fdb2028a8280ee4d2d4cfb13b4200&#45;&gt;dir_3d3ed669f2fdf2afe9a87d719975d69a</title>
<g id="a_edge7"><a xlink:href="dir_000018_000029.html" target="_top">
<path fill="none" stroke="#63b8ff" d="M62.06,-70.88C66.85,-68.32 72.13,-65.53 77,-63 93.07,-54.65 111.25,-45.44 125.33,-38.35"/>
<polygon fill="#63b8ff" stroke="#63b8ff" points="126.97,-41.44 134.34,-33.83 123.83,-35.19 126.97,-41.44"/>
</a>
</g>
<g id="a_edge7&#45;headlabel"><a xlink:href="dir_000018_000029.html" target="_top" xlink:title="9">
<text text-anchor="middle" x="125.04" y="-43.09" font-family="Helvetica,sans-Serif" font-size="10.00" fill="#63b8ff">9</text>
</a>
</g>
</g>
<!-- dir_6eb9b6d55f50ee7846cdaf68a347f5a4&#45;&gt;dir_3d3ed669f2fdf2afe9a87d719975d69a -->
<g id="edge8" class="edge">
<title>dir_6eb9b6d55f50ee7846cdaf68a347f5a4&#45;&gt;dir_3d3ed669f2fdf2afe9a87d719975d69a</title>
<g id="a_edge8"><a xlink:href="dir_000083_000029.html" target="_top">
<path fill="none" stroke="#63b8ff" d="M114.77,-70.75C120.56,-63.26 129.06,-52.28 136.14,-43.13"/>
<polygon fill="#63b8ff" stroke="#63b8ff" points="139.01,-45.14 142.36,-35.09 133.47,-40.86 139.01,-45.14"/>
</a>
</g>
<g id="a_edge8&#45;headlabel"><a xlink:href="dir_000083_000029.html" target="_top" xlink:title="20">
<text text-anchor="middle" x="139.05" y="-47.22" font-family="Helvetica,sans-Serif" font-size="10.00" fill="#63b8ff">20</text>
</a>
</g>
</g>
</g>
</svg>
