<?xml version="1.0" encoding="UTF-8" standalone="no"?>
<!DOCTYPE svg PUBLIC "-//W3C//DTD SVG 1.1//EN"
 "http://www.w3.org/Graphics/SVG/1.1/DTD/svg11.dtd">
<!-- Generated by graphviz version 2.43.0 (0)
 -->
<!-- Title: Graphical Class Hierarchy Pages: 1 -->
<svg width="347pt" height="150pt"
 viewBox="0.00 0.00 347.00 150.00" xmlns="http://www.w3.org/2000/svg" xmlns:xlink="http://www.w3.org/1999/xlink">
<g id="graph0" class="graph" transform="scale(1 1) rotate(0) translate(4 146)">
<title>Graphical Class Hierarchy</title>
<!-- Node0 -->
<g id="Node000000" class="node">
<title>Node0</title>
<g id="a_Node000000"><a xlink:href="de/d66/classfl_1_1basic__string.html" target="_top" xlink:title="Concrete type&#45;erased string class.">
<polygon fill="white" stroke="#666666" points="87,-83 0,-83 0,-64 87,-64 87,-83"/>
<text text-anchor="middle" x="43.5" y="-71" font-family="Helvetica,sans-Serif" font-size="10.00">fl::basic_string</text>
</a>
</g>
</g>
<!-- Node1 -->
<g id="Node000001" class="node">
<title>Node1</title>
<g id="a_Node000001"><a xlink:href="d6/d2d/classfl_1_1string__n.html" target="_top" xlink:title=" ">
<polygon fill="white" stroke="#666666" points="236,-142 134,-142 134,-123 236,-123 236,-142"/>
<text text-anchor="middle" x="185" y="-130" font-family="Helvetica,sans-Serif" font-size="10.00">fl::string_n&lt; 32 &gt;</text>
</a>
</g>
</g>
<!-- Node0&#45;&gt;Node1 -->
<g id="edge33_Node000000_Node000001" class="edge">
<title>Node0&#45;&gt;Node1</title>
<g id="a_edge33_Node000000_Node000001"><a xlink:title=" ">
<path fill="none" stroke="#63b8ff" d="M69.36,-88.07C84.51,-96.55 104.47,-107.01 123,-114.5 130.78,-117.64 139.32,-120.51 147.48,-122.98"/>
<polygon fill="#63b8ff" stroke="#63b8ff" points="71.02,-84.99 60.6,-83.09 67.56,-91.08 71.02,-84.99"/>
</a>
</g>
</g>
<!-- Node2 -->
<g id="Node000002" class="node">
<title>Node2</title>
<g id="a_Node000002"><a xlink:href="d6/d2d/classfl_1_1string__n.html" target="_top" xlink:title=" ">
<polygon fill="white" stroke="#666666" points="239,-105 131,-105 131,-86 239,-86 239,-105"/>
<text text-anchor="middle" x="185" y="-93" font-family="Helvetica,sans-Serif" font-size="10.00">fl::string_n&lt; 256 &gt;</text>
</a>
</g>
</g>
<!-- Node0&#45;&gt;Node2 -->
<g id="edge34_Node000000_Node000002" class="edge">
<title>Node0&#45;&gt;Node2</title>
<g id="a_edge34_Node000000_Node000002"><a xlink:title=" ">
<path fill="none" stroke="#63b8ff" d="M97.04,-81.79C108.08,-83.53 119.74,-85.37 130.8,-87.11"/>
<polygon fill="#63b8ff" stroke="#63b8ff" points="97.54,-78.32 87.11,-80.22 96.45,-85.24 97.54,-78.32"/>
</a>
</g>
</g>
<!-- Node3 -->
<g id="Node000003" class="node">
<title>Node3</title>
<g id="a_Node000003"><a xlink:href="d6/d2d/classfl_1_1string__n.html" target="_top" xlink:title=" ">
<polygon fill="white" stroke="#666666" points="247,-67.5 123,-67.5 123,-37.5 247,-37.5 247,-67.5"/>
<text text-anchor="start" x="131" y="-55.5" font-family="Helvetica,sans-Serif" font-size="10.00">fl::string_n&lt; FASTLED</text>
<text text-anchor="middle" x="185" y="-44.5" font-family="Helvetica,sans-Serif" font-size="10.00">_STR_INLINED_SIZE &gt;</text>
</a>
</g>
</g>
<!-- Node0&#45;&gt;Node3 -->
<g id="edge35_Node000000_Node000003" class="edge">
<title>Node0&#45;&gt;Node3</title>
<g id="a_edge35_Node000000_Node000003"><a xlink:title=" ">
<path fill="none" stroke="#63b8ff" d="M97.16,-65.57C105.56,-64.31 114.32,-62.99 122.91,-61.7"/>
<polygon fill="#63b8ff" stroke="#63b8ff" points="96.48,-62.14 87.11,-67.09 97.52,-69.06 96.48,-62.14"/>
</a>
</g>
</g>
<!-- Node5 -->
<g id="Node000005" class="node">
<title>Node5</title>
<g id="a_Node000005"><a xlink:href="d6/d2d/classfl_1_1string__n.html" target="_top" xlink:title=" ">
<polygon fill="white" stroke="#666666" points="234,-19 136,-19 136,0 234,0 234,-19"/>
<text text-anchor="middle" x="185" y="-7" font-family="Helvetica,sans-Serif" font-size="10.00">fl::string_n&lt; N &gt;</text>
</a>
</g>
</g>
<!-- Node0&#45;&gt;Node5 -->
<g id="edge37_Node000000_Node000005" class="edge">
<title>Node0&#45;&gt;Node5</title>
<g id="a_edge37_Node000000_Node000005"><a xlink:title=" ">
<path fill="none" stroke="#63b8ff" d="M67.79,-58.35C83.05,-48.88 103.68,-36.92 123,-28.5 131.13,-24.95 140.14,-21.77 148.68,-19.06"/>
<polygon fill="#63b8ff" stroke="#63b8ff" points="65.63,-55.57 59.04,-63.87 69.37,-61.49 65.63,-55.57"/>
</a>
</g>
</g>
<!-- Node4 -->
<g id="Node000004" class="node">
<title>Node4</title>
<g id="a_Node000004"><a xlink:href="d2/db2/classfl_1_1string.html" target="_top" xlink:title=" ">
<polygon fill="white" stroke="#666666" points="339,-62 283,-62 283,-43 339,-43 339,-62"/>
<text text-anchor="middle" x="311" y="-50" font-family="Helvetica,sans-Serif" font-size="10.00">fl::string</text>
</a>
</g>
</g>
<!-- Node3&#45;&gt;Node4 -->
<g id="edge36_Node000003_Node000004" class="edge">
<title>Node3&#45;&gt;Node4</title>
<g id="a_edge36_Node000003_Node000004"><a xlink:title=" ">
<path fill="none" stroke="#63b8ff" d="M257.45,-52.5C266.4,-52.5 275.08,-52.5 282.73,-52.5"/>
<polygon fill="#63b8ff" stroke="#63b8ff" points="257.27,-49 247.27,-52.5 257.27,-56 257.27,-49"/>
</a>
</g>
</g>
</g>
</svg>
