<?xml version="1.0" encoding="UTF-8" standalone="no"?>
<!DOCTYPE svg PUBLIC "-//W3C//DTD SVG 1.1//EN"
 "http://www.w3.org/Graphics/SVG/1.1/DTD/svg11.dtd">
<!-- Generated by graphviz version 2.43.0 (0)
 -->
<!-- Title: Graphical Class Hierarchy Pages: 1 -->
<svg width="571pt" height="600pt"
 viewBox="0.00 0.00 571.00 600.00" xmlns="http://www.w3.org/2000/svg" xmlns:xlink="http://www.w3.org/1999/xlink">
<g id="graph0" class="graph" transform="scale(1 1) rotate(0) translate(4 596)">
<title>Graphical Class Hierarchy</title>
<!-- Node0 -->
<g id="Node000000" class="node">
<title>Node0</title>
<g id="a_Node000000"><a xlink:href="d6/d16/classfl_1_1_referent.html" target="_top" xlink:title=" ">
<polygon fill="white" stroke="#666666" points="71,-333 0,-333 0,-314 71,-314 71,-333"/>
<text text-anchor="middle" x="35.5" y="-321" font-family="Helvetica,sans-Serif" font-size="10.00">fl::Referent</text>
</a>
</g>
</g>
<!-- Node1 -->
<g id="Node000001" class="node">
<title>Node1</title>
<g id="a_Node000001"><a xlink:href="d6/d18/classfl_1_1_l_u_t.html" target="_top" xlink:title=" ">
<polygon fill="white" stroke="#666666" points="228.5,-592 118.5,-592 118.5,-573 228.5,-573 228.5,-592"/>
<text text-anchor="middle" x="173.5" y="-580" font-family="Helvetica,sans-Serif" font-size="10.00">fl::LUT&lt; uint16_t &gt;</text>
</a>
</g>
</g>
<!-- Node0&#45;&gt;Node1 -->
<g id="edge132_Node000000_Node000001" class="edge">
<title>Node0&#45;&gt;Node1</title>
<g id="a_edge132_Node000000_Node000001"><a xlink:title=" ">
<path fill="none" stroke="#63b8ff" d="M36.21,-343.6C36.7,-389.56 44.54,-503.06 107,-564.5 110.45,-567.89 114.47,-570.66 118.8,-572.91"/>
<polygon fill="#63b8ff" stroke="#63b8ff" points="39.71,-343.45 36.22,-333.45 32.71,-343.45 39.71,-343.45"/>
</a>
</g>
</g>
<!-- Node2 -->
<g id="Node000002" class="node">
<title>Node2</title>
<g id="a_Node000002"><a xlink:href="d6/d18/classfl_1_1_l_u_t.html" target="_top" xlink:title=" ">
<polygon fill="white" stroke="#666666" points="240,-555 107,-555 107,-536 240,-536 240,-555"/>
<text text-anchor="middle" x="173.5" y="-543" font-family="Helvetica,sans-Serif" font-size="10.00">fl::LUT&lt; pair_xy_float &gt;</text>
</a>
</g>
</g>
<!-- Node0&#45;&gt;Node2 -->
<g id="edge133_Node000000_Node000002" class="edge">
<title>Node0&#45;&gt;Node2</title>
<g id="a_edge133_Node000000_Node000002"><a xlink:title=" ">
<path fill="none" stroke="#63b8ff" d="M37.47,-343.52C40.54,-384.28 53.39,-477.24 107,-527.5 110.61,-530.89 114.8,-533.65 119.29,-535.9"/>
<polygon fill="#63b8ff" stroke="#63b8ff" points="40.94,-343.04 36.82,-333.28 33.96,-343.48 40.94,-343.04"/>
</a>
</g>
</g>
<!-- Node3 -->
<g id="Node000003" class="node">
<title>Node3</title>
<g id="a_Node000003"><a xlink:href="d2/d5e/classfl_1_1_byte_stream.html" target="_top" xlink:title=" ">
<polygon fill="white" stroke="#666666" points="216.5,-518 130.5,-518 130.5,-499 216.5,-499 216.5,-518"/>
<text text-anchor="middle" x="173.5" y="-506" font-family="Helvetica,sans-Serif" font-size="10.00">fl::ByteStream</text>
</a>
</g>
</g>
<!-- Node0&#45;&gt;Node3 -->
<g id="edge134_Node000000_Node000003" class="edge">
<title>Node0&#45;&gt;Node3</title>
<g id="a_edge134_Node000000_Node000003"><a xlink:title=" ">
<path fill="none" stroke="#63b8ff" d="M39.14,-343C44.91,-377.88 61.94,-451 107,-490.5 113.56,-496.25 121.8,-500.18 130.21,-502.87"/>
<polygon fill="#63b8ff" stroke="#63b8ff" points="42.6,-342.47 37.64,-333.11 35.68,-343.52 42.6,-342.47"/>
</a>
</g>
</g>
<!-- Node5 -->
<g id="Node000005" class="node">
<title>Node5</title>
<g id="a_Node000005"><a xlink:href="d3/d25/classfl_1_1_digital_pin_impl.html" target="_top" xlink:title=" ">
<polygon fill="white" stroke="#666666" points="222.5,-481 124.5,-481 124.5,-462 222.5,-462 222.5,-481"/>
<text text-anchor="middle" x="173.5" y="-469" font-family="Helvetica,sans-Serif" font-size="10.00">fl::DigitalPinImpl</text>
</a>
</g>
</g>
<!-- Node0&#45;&gt;Node5 -->
<g id="edge136_Node000000_Node000005" class="edge">
<title>Node0&#45;&gt;Node5</title>
<g id="a_edge136_Node000000_Node000005"><a xlink:title=" ">
<path fill="none" stroke="#63b8ff" d="M41.74,-343.01C50.44,-371.6 70.61,-424.61 107,-453.5 112.08,-457.53 118,-460.66 124.17,-463.09"/>
<polygon fill="#63b8ff" stroke="#63b8ff" points="45,-341.67 38.87,-333.03 38.27,-343.6 45,-341.67"/>
</a>
</g>
</g>
<!-- Node6 -->
<g id="Node000006" class="node">
<title>Node6</title>
<g id="a_Node000006"><a xlink:href="d5/d86/classfl_1_1_file_handle.html" target="_top" xlink:title=" ">
<polygon fill="white" stroke="#666666" points="213.5,-444 133.5,-444 133.5,-425 213.5,-425 213.5,-444"/>
<text text-anchor="middle" x="173.5" y="-432" font-family="Helvetica,sans-Serif" font-size="10.00">fl::FileHandle</text>
</a>
</g>
</g>
<!-- Node0&#45;&gt;Node6 -->
<g id="edge137_Node000000_Node000006" class="edge">
<title>Node0&#45;&gt;Node6</title>
<g id="a_edge137_Node000000_Node000006"><a xlink:title=" ">
<path fill="none" stroke="#63b8ff" d="M45.7,-342.02C57.17,-363.19 78.76,-397.38 107,-416.5 114.81,-421.79 124.14,-425.53 133.27,-428.18"/>
<polygon fill="#63b8ff" stroke="#63b8ff" points="48.75,-340.3 41.03,-333.05 42.55,-343.54 48.75,-340.3"/>
</a>
</g>
</g>
<!-- Node8 -->
<g id="Node000008" class="node">
<title>Node8</title>
<g id="a_Node000008"><a xlink:href="d1/de0/classfl_1_1_frame.html" target="_top" xlink:title=" ">
<polygon fill="white" stroke="#666666" points="203,-407 144,-407 144,-388 203,-388 203,-407"/>
<text text-anchor="middle" x="173.5" y="-395" font-family="Helvetica,sans-Serif" font-size="10.00">fl::Frame</text>
</a>
</g>
</g>
<!-- Node0&#45;&gt;Node8 -->
<g id="edge139_Node000000_Node000008" class="edge">
<title>Node0&#45;&gt;Node8</title>
<g id="a_edge139_Node000000_Node000008"><a xlink:title=" ">
<path fill="none" stroke="#63b8ff" d="M53.62,-340.4C67.11,-352.84 86.92,-369.3 107,-379.5 118.46,-385.32 132.04,-389.45 143.85,-392.27"/>
<polygon fill="#63b8ff" stroke="#63b8ff" points="55.77,-337.61 46.1,-333.27 50.95,-342.69 55.77,-337.61"/>
</a>
</g>
</g>
<!-- Node9 -->
<g id="Node000009" class="node">
<title>Node9</title>
<g id="a_Node000009"><a xlink:href="d8/d94/classfl_1_1_frame_interpolator.html" target="_top" xlink:title=" ">
<polygon fill="white" stroke="#666666" points="231.5,-370 115.5,-370 115.5,-351 231.5,-351 231.5,-370"/>
<text text-anchor="middle" x="173.5" y="-358" font-family="Helvetica,sans-Serif" font-size="10.00">fl::FrameInterpolator</text>
</a>
</g>
</g>
<!-- Node0&#45;&gt;Node9 -->
<g id="edge140_Node000000_Node000009" class="edge">
<title>Node0&#45;&gt;Node9</title>
<g id="a_edge140_Node000000_Node000009"><a xlink:title=" ">
<path fill="none" stroke="#63b8ff" d="M81.03,-335.62C99.34,-340.6 120.23,-346.28 137.42,-350.96"/>
<polygon fill="#63b8ff" stroke="#63b8ff" points="81.74,-332.18 71.17,-332.93 79.9,-338.93 81.74,-332.18"/>
</a>
</g>
</g>
<!-- Node10 -->
<g id="Node000010" class="node">
<title>Node10</title>
<g id="a_Node000010"><a xlink:href="d7/d43/classfl_1_1_fs_impl.html" target="_top" xlink:title=" ">
<polygon fill="white" stroke="#666666" points="204.5,-333 142.5,-333 142.5,-314 204.5,-314 204.5,-333"/>
<text text-anchor="middle" x="173.5" y="-321" font-family="Helvetica,sans-Serif" font-size="10.00">fl::FsImpl</text>
</a>
</g>
</g>
<!-- Node0&#45;&gt;Node10 -->
<g id="edge141_Node000000_Node000010" class="edge">
<title>Node0&#45;&gt;Node10</title>
<g id="a_edge141_Node000000_Node000010"><a xlink:title=" ">
<path fill="none" stroke="#63b8ff" d="M81.27,-323.5C101.21,-323.5 124.16,-323.5 142.06,-323.5"/>
<polygon fill="#63b8ff" stroke="#63b8ff" points="81.17,-320 71.17,-323.5 81.17,-327 81.17,-320"/>
</a>
</g>
</g>
<!-- Node12 -->
<g id="Node000012" class="node">
<title>Node12</title>
<g id="a_Node000012"><a xlink:href="da/d5d/classfl_1_1_fx.html" target="_top" xlink:title=" ">
<polygon fill="white" stroke="#666666" points="194,-296 153,-296 153,-277 194,-277 194,-296"/>
<text text-anchor="middle" x="173.5" y="-284" font-family="Helvetica,sans-Serif" font-size="10.00">fl::Fx</text>
</a>
</g>
</g>
<!-- Node0&#45;&gt;Node12 -->
<g id="edge143_Node000000_Node000012" class="edge">
<title>Node0&#45;&gt;Node12</title>
<g id="a_edge143_Node000000_Node000012"><a xlink:title=" ">
<path fill="none" stroke="#63b8ff" d="M80.88,-311.42C105.11,-304.84 133.89,-297 152.65,-291.9"/>
<polygon fill="#63b8ff" stroke="#63b8ff" points="79.9,-308.07 71.17,-314.07 81.74,-314.82 79.9,-308.07"/>
</a>
</g>
</g>
<!-- Node30 -->
<g id="Node000030" class="node">
<title>Node30</title>
<g id="a_Node000030"><a xlink:href="d6/d7f/classfl_1_1_fx_layer.html" target="_top" xlink:title=" ">
<polygon fill="white" stroke="#666666" points="207.5,-259 139.5,-259 139.5,-240 207.5,-240 207.5,-259"/>
<text text-anchor="middle" x="173.5" y="-247" font-family="Helvetica,sans-Serif" font-size="10.00">fl::FxLayer</text>
</a>
</g>
</g>
<!-- Node0&#45;&gt;Node30 -->
<g id="edge161_Node000000_Node000030" class="edge">
<title>Node0&#45;&gt;Node30</title>
<g id="a_edge161_Node000000_Node000030"><a xlink:title=" ">
<path fill="none" stroke="#63b8ff" d="M53.72,-306.99C67.25,-294.82 87.08,-278.68 107,-268.5 117.02,-263.38 128.62,-259.45 139.25,-256.52"/>
<polygon fill="#63b8ff" stroke="#63b8ff" points="51.14,-304.61 46.16,-313.97 55.88,-309.76 51.14,-304.61"/>
</a>
</g>
</g>
<!-- Node31 -->
<g id="Node000031" class="node">
<title>Node31</title>
<g id="a_Node000031"><a xlink:href="d6/d18/classfl_1_1_l_u_t.html" target="_top" xlink:title=" ">
<polygon fill="white" stroke="#666666" points="211.5,-222 135.5,-222 135.5,-203 211.5,-203 211.5,-222"/>
<text text-anchor="middle" x="173.5" y="-210" font-family="Helvetica,sans-Serif" font-size="10.00">fl::LUT&lt; T &gt;</text>
</a>
</g>
</g>
<!-- Node0&#45;&gt;Node31 -->
<g id="edge162_Node000000_Node000031" class="edge">
<title>Node0&#45;&gt;Node31</title>
<g id="a_edge162_Node000000_Node000031"><a xlink:title=" ">
<path fill="none" stroke="#63b8ff" d="M45.98,-304.93C57.59,-284.03 79.18,-250.52 107,-231.5 115.41,-225.75 125.56,-221.72 135.33,-218.91"/>
<polygon fill="#63b8ff" stroke="#63b8ff" points="42.86,-303.33 41.23,-313.8 49.04,-306.64 42.86,-303.33"/>
</a>
</g>
</g>
<!-- Node32 -->
<g id="Node000032" class="node">
<title>Node32</title>
<g id="a_Node000032"><a xlink:href="d8/ddd/classfl_1_1_pixel_stream.html" target="_top" xlink:title=" ">
<polygon fill="white" stroke="#666666" points="217,-185 130,-185 130,-166 217,-166 217,-185"/>
<text text-anchor="middle" x="173.5" y="-173" font-family="Helvetica,sans-Serif" font-size="10.00">fl::PixelStream</text>
</a>
</g>
</g>
<!-- Node0&#45;&gt;Node32 -->
<g id="edge163_Node000000_Node000032" class="edge">
<title>Node0&#45;&gt;Node32</title>
<g id="a_edge163_Node000000_Node000032"><a xlink:title=" ">
<path fill="none" stroke="#63b8ff" d="M41.97,-303.79C50.85,-275.41 71.16,-223.28 107,-194.5 113.65,-189.16 121.74,-185.32 129.93,-182.57"/>
<polygon fill="#63b8ff" stroke="#63b8ff" points="38.51,-303.15 39.02,-313.73 45.22,-305.14 38.51,-303.15"/>
</a>
</g>
</g>
<!-- Node33 -->
<g id="Node000033" class="node">
<title>Node33</title>
<g id="a_Node000033"><a xlink:href="dc/da7/classfl_1_1_string_holder.html" target="_top" xlink:title=" ">
<polygon fill="white" stroke="#666666" points="218,-148 129,-148 129,-129 218,-129 218,-148"/>
<text text-anchor="middle" x="173.5" y="-136" font-family="Helvetica,sans-Serif" font-size="10.00">fl::StringHolder</text>
</a>
</g>
</g>
<!-- Node0&#45;&gt;Node33 -->
<g id="edge164_Node000000_Node000033" class="edge">
<title>Node0&#45;&gt;Node33</title>
<g id="a_edge164_Node000000_Node000033"><a xlink:title=" ">
<path fill="none" stroke="#63b8ff" d="M39.31,-303.73C45.3,-268.97 62.6,-196.89 107,-157.5 113.2,-152 120.91,-148.09 128.83,-145.3"/>
<polygon fill="#63b8ff" stroke="#63b8ff" points="35.79,-303.56 37.69,-313.98 42.71,-304.65 35.79,-303.56"/>
</a>
</g>
</g>
<!-- Node34 -->
<g id="Node000034" class="node">
<title>Node34</title>
<g id="a_Node000034"><a xlink:href="d8/db5/classfl_1_1_time_function.html" target="_top" xlink:title=" ">
<polygon fill="white" stroke="#666666" points="221,-111 126,-111 126,-92 221,-92 221,-111"/>
<text text-anchor="middle" x="173.5" y="-99" font-family="Helvetica,sans-Serif" font-size="10.00">fl::TimeFunction</text>
</a>
</g>
</g>
<!-- Node0&#45;&gt;Node34 -->
<g id="edge165_Node000000_Node000034" class="edge">
<title>Node0&#45;&gt;Node34</title>
<g id="a_edge165_Node000000_Node000034"><a xlink:title=" ">
<path fill="none" stroke="#63b8ff" d="M37.56,-303.63C40.8,-263.19 53.94,-170.87 107,-120.5 112.32,-115.45 118.91,-111.73 125.84,-108.99"/>
<polygon fill="#63b8ff" stroke="#63b8ff" points="34.05,-303.58 36.87,-313.8 41.04,-304.06 34.05,-303.58"/>
</a>
</g>
</g>
<!-- Node36 -->
<g id="Node000036" class="node">
<title>Node36</title>
<g id="a_Node000036"><a xlink:href="dc/dce/classfl_1_1_wave_crgb_map.html" target="_top" xlink:title=" ">
<polygon fill="white" stroke="#666666" points="223,-74 124,-74 124,-55 223,-55 223,-74"/>
<text text-anchor="middle" x="173.5" y="-62" font-family="Helvetica,sans-Serif" font-size="10.00">fl::WaveCrgbMap</text>
</a>
</g>
</g>
<!-- Node0&#45;&gt;Node36 -->
<g id="edge167_Node000000_Node000036" class="edge">
<title>Node0&#45;&gt;Node36</title>
<g id="a_edge167_Node000000_Node000036"><a xlink:title=" ">
<path fill="none" stroke="#63b8ff" d="M36.3,-303.54C36.98,-257.89 45.18,-145.11 107,-83.5 111.78,-78.74 117.68,-75.15 123.96,-72.46"/>
<polygon fill="#63b8ff" stroke="#63b8ff" points="32.8,-303.61 36.27,-313.62 39.8,-303.64 32.8,-303.61"/>
</a>
</g>
</g>
<!-- Node4 -->
<g id="Node000004" class="node">
<title>Node4</title>
<g id="a_Node000004"><a xlink:href="d1/dc0/classfl_1_1_byte_stream_memory.html" target="_top" xlink:title=" ">
<polygon fill="white" stroke="#666666" points="410,-518 283,-518 283,-499 410,-499 410,-518"/>
<text text-anchor="middle" x="346.5" y="-506" font-family="Helvetica,sans-Serif" font-size="10.00">fl::ByteStreamMemory</text>
</a>
</g>
</g>
<!-- Node3&#45;&gt;Node4 -->
<g id="edge135_Node000003_Node000004" class="edge">
<title>Node3&#45;&gt;Node4</title>
<g id="a_edge135_Node000003_Node000004"><a xlink:title=" ">
<path fill="none" stroke="#63b8ff" d="M226.87,-508.5C244.5,-508.5 264.36,-508.5 282.72,-508.5"/>
<polygon fill="#63b8ff" stroke="#63b8ff" points="226.77,-505 216.77,-508.5 226.77,-512 226.77,-505"/>
</a>
</g>
</g>
<!-- Node7 -->
<g id="Node000007" class="node">
<title>Node7</title>
<g id="a_Node000007"><a xlink:href="df/dab/classfl_1_1_null_file_handle.html" target="_top" xlink:title=" ">
<polygon fill="white" stroke="#666666" points="396.5,-444 296.5,-444 296.5,-425 396.5,-425 396.5,-444"/>
<text text-anchor="middle" x="346.5" y="-432" font-family="Helvetica,sans-Serif" font-size="10.00">fl::NullFileHandle</text>
</a>
</g>
</g>
<!-- Node6&#45;&gt;Node7 -->
<g id="edge138_Node000006_Node000007" class="edge">
<title>Node6&#45;&gt;Node7</title>
<g id="a_edge138_Node000006_Node000007"><a xlink:title=" ">
<path fill="none" stroke="#63b8ff" d="M223.87,-434.5C246.64,-434.5 273.6,-434.5 296.35,-434.5"/>
<polygon fill="#63b8ff" stroke="#63b8ff" points="223.73,-431 213.73,-434.5 223.73,-438 223.73,-431"/>
</a>
</g>
</g>
<!-- Node11 -->
<g id="Node000011" class="node">
<title>Node11</title>
<g id="a_Node000011"><a xlink:href="db/d93/classfl_1_1_null_file_system.html" target="_top" xlink:title=" ">
<polygon fill="white" stroke="#666666" points="397.5,-389 295.5,-389 295.5,-370 397.5,-370 397.5,-389"/>
<text text-anchor="middle" x="346.5" y="-377" font-family="Helvetica,sans-Serif" font-size="10.00">fl::NullFileSystem</text>
</a>
</g>
</g>
<!-- Node10&#45;&gt;Node11 -->
<g id="edge142_Node000010_Node000011" class="edge">
<title>Node10&#45;&gt;Node11</title>
<g id="a_edge142_Node000010_Node000011"><a xlink:title=" ">
<path fill="none" stroke="#63b8ff" d="M214.42,-333.67C222.97,-336.24 231.87,-339.22 240,-342.5 256.77,-349.28 259.13,-354.97 276,-361.5 284.37,-364.74 293.53,-367.58 302.37,-369.99"/>
<polygon fill="#63b8ff" stroke="#63b8ff" points="215.18,-330.25 204.61,-330.85 213.25,-336.98 215.18,-330.25"/>
</a>
</g>
</g>
<!-- Node13 -->
<g id="Node000013" class="node">
<title>Node13</title>
<g id="a_Node000013"><a xlink:href="d4/d1c/classfl_1_1_fx1d.html" target="_top" xlink:title=" ">
<polygon fill="white" stroke="#666666" points="373,-352 320,-352 320,-333 373,-333 373,-352"/>
<text text-anchor="middle" x="346.5" y="-340" font-family="Helvetica,sans-Serif" font-size="10.00">fl::Fx1d</text>
</a>
</g>
</g>
<!-- Node12&#45;&gt;Node13 -->
<g id="edge144_Node000012_Node000013" class="edge">
<title>Node12&#45;&gt;Node13</title>
<g id="a_edge144_Node000012_Node000013"><a xlink:title=" ">
<path fill="none" stroke="#63b8ff" d="M203.91,-294.66C215.23,-297.9 228.26,-301.74 240,-305.5 267.36,-314.26 298.35,-325.26 319.62,-332.98"/>
<polygon fill="#63b8ff" stroke="#63b8ff" points="204.65,-291.23 194.07,-291.87 202.74,-297.97 204.65,-291.23"/>
</a>
</g>
</g>
<!-- Node23 -->
<g id="Node000023" class="node">
<title>Node23</title>
<g id="a_Node000023"><a xlink:href="d7/d3e/classfl_1_1_fx2d.html" target="_top" xlink:title=" ">
<polygon fill="white" stroke="#666666" points="373,-148 320,-148 320,-129 373,-129 373,-148"/>
<text text-anchor="middle" x="346.5" y="-136" font-family="Helvetica,sans-Serif" font-size="10.00">fl::Fx2d</text>
</a>
</g>
</g>
<!-- Node12&#45;&gt;Node23 -->
<g id="edge154_Node000012_Node000023" class="edge">
<title>Node12&#45;&gt;Node23</title>
<g id="a_edge154_Node000012_Node000023"><a xlink:title=" ">
<path fill="none" stroke="#63b8ff" d="M204.08,-282.41C215.94,-279.78 229.31,-275.48 240,-268.5 289.89,-235.91 327.53,-172.15 340.55,-148.04"/>
<polygon fill="#63b8ff" stroke="#63b8ff" points="203.3,-279 194.14,-284.32 204.62,-285.87 203.3,-279"/>
</a>
</g>
</g>
<!-- Node14 -->
<g id="Node000014" class="node">
<title>Node14</title>
<g id="a_Node000014"><a xlink:href="dc/dd6/classfl_1_1_cylon.html" target="_top" xlink:title="An animation that moves a single LED back and forth (Larson Scanner effect)">
<polygon fill="white" stroke="#666666" points="536,-537 480,-537 480,-518 536,-518 536,-537"/>
<text text-anchor="middle" x="508" y="-525" font-family="Helvetica,sans-Serif" font-size="10.00">fl::Cylon</text>
</a>
</g>
</g>
<!-- Node13&#45;&gt;Node14 -->
<g id="edge145_Node000013_Node000014" class="edge">
<title>Node13&#45;&gt;Node14</title>
<g id="a_edge145_Node000013_Node000014"><a xlink:title=" ">
<path fill="none" stroke="#63b8ff" d="M383.19,-344.96C395.38,-347.52 408.14,-352.39 417,-361.5 464.19,-410.04 407.16,-459.68 453,-509.5 459.96,-517.06 470.18,-521.45 479.86,-524"/>
<polygon fill="#63b8ff" stroke="#63b8ff" points="383.63,-341.48 373.2,-343.3 382.49,-348.39 383.63,-341.48"/>
</a>
</g>
</g>
<!-- Node15 -->
<g id="Node000015" class="node">
<title>Node15</title>
<g id="a_Node000015"><a xlink:href="d1/d60/classfl_1_1_demo_reel100.html" target="_top" xlink:title=" ">
<polygon fill="white" stroke="#666666" points="557,-500 459,-500 459,-481 557,-481 557,-500"/>
<text text-anchor="middle" x="508" y="-488" font-family="Helvetica,sans-Serif" font-size="10.00">fl::DemoReel100</text>
</a>
</g>
</g>
<!-- Node13&#45;&gt;Node15 -->
<g id="edge146_Node000013_Node000015" class="edge">
<title>Node13&#45;&gt;Node15</title>
<g id="a_edge146_Node000013_Node000015"><a xlink:title=" ">
<path fill="none" stroke="#63b8ff" d="M383.11,-345.39C395.17,-348 407.88,-352.8 417,-361.5 454.52,-397.31 416.48,-435.68 453,-472.5 456.41,-475.94 460.49,-478.72 464.87,-480.97"/>
<polygon fill="#63b8ff" stroke="#63b8ff" points="383.68,-341.93 373.22,-343.66 382.47,-348.83 383.68,-341.93"/>
</a>
</g>
</g>
<!-- Node16 -->
<g id="Node000016" class="node">
<title>Node16</title>
<g id="a_Node000016"><a xlink:href="d5/d9b/classfl_1_1_fire2012.html" target="_top" xlink:title=" ">
<polygon fill="white" stroke="#666666" points="543.5,-463 472.5,-463 472.5,-444 543.5,-444 543.5,-463"/>
<text text-anchor="middle" x="508" y="-451" font-family="Helvetica,sans-Serif" font-size="10.00">fl::Fire2012</text>
</a>
</g>
</g>
<!-- Node13&#45;&gt;Node16 -->
<g id="edge147_Node000013_Node000016" class="edge">
<title>Node13&#45;&gt;Node16</title>
<g id="a_edge147_Node000013_Node000016"><a xlink:title=" ">
<path fill="none" stroke="#63b8ff" d="M383.1,-346.25C394.92,-348.96 407.47,-353.59 417,-361.5 445.15,-384.85 425.5,-411.39 453,-435.5 458.5,-440.32 465.33,-443.86 472.26,-446.45"/>
<polygon fill="#63b8ff" stroke="#63b8ff" points="383.48,-342.76 373.01,-344.33 382.18,-349.64 383.48,-342.76"/>
</a>
</g>
</g>
<!-- Node17 -->
<g id="Node000017" class="node">
<title>Node17</title>
<g id="a_Node000017"><a xlink:href="d5/d3c/classfl_1_1_noise_wave.html" target="_top" xlink:title=" ">
<polygon fill="white" stroke="#666666" points="549.5,-426 466.5,-426 466.5,-407 549.5,-407 549.5,-426"/>
<text text-anchor="middle" x="508" y="-414" font-family="Helvetica,sans-Serif" font-size="10.00">fl::NoiseWave</text>
</a>
</g>
</g>
<!-- Node13&#45;&gt;Node17 -->
<g id="edge148_Node000013_Node000017" class="edge">
<title>Node13&#45;&gt;Node17</title>
<g id="a_edge148_Node000013_Node000017"><a xlink:title=" ">
<path fill="none" stroke="#63b8ff" d="M383.27,-348.43C394.57,-351.29 406.77,-355.47 417,-361.5 436.76,-373.16 433.57,-386.3 453,-398.5 458.36,-401.86 464.41,-404.67 470.48,-406.99"/>
<polygon fill="#63b8ff" stroke="#63b8ff" points="383.75,-344.95 373.22,-346.16 382.2,-351.78 383.75,-344.95"/>
</a>
</g>
</g>
<!-- Node18 -->
<g id="Node000018" class="node">
<title>Node18</title>
<g id="a_Node000018"><a xlink:href="d2/db2/classfl_1_1_pacifica.html" target="_top" xlink:title=" ">
<polygon fill="white" stroke="#666666" points="540.5,-389 475.5,-389 475.5,-370 540.5,-370 540.5,-389"/>
<text text-anchor="middle" x="508" y="-377" font-family="Helvetica,sans-Serif" font-size="10.00">fl::Pacifica</text>
</a>
</g>
</g>
<!-- Node13&#45;&gt;Node18 -->
<g id="edge149_Node000013_Node000018" class="edge">
<title>Node13&#45;&gt;Node18</title>
<g id="a_edge149_Node000013_Node000018"><a xlink:title=" ">
<path fill="none" stroke="#63b8ff" d="M383.18,-350.78C410.84,-357.19 448.82,-366 475.4,-372.17"/>
<polygon fill="#63b8ff" stroke="#63b8ff" points="383.66,-347.3 373.13,-348.44 382.08,-354.11 383.66,-347.3"/>
</a>
</g>
</g>
<!-- Node19 -->
<g id="Node000019" class="node">
<title>Node19</title>
<g id="a_Node000019"><a xlink:href="df/d11/classfl_1_1_pride2015.html" target="_top" xlink:title=" ">
<polygon fill="white" stroke="#666666" points="546.5,-352 469.5,-352 469.5,-333 546.5,-333 546.5,-352"/>
<text text-anchor="middle" x="508" y="-340" font-family="Helvetica,sans-Serif" font-size="10.00">fl::Pride2015</text>
</a>
</g>
</g>
<!-- Node13&#45;&gt;Node19 -->
<g id="edge150_Node000013_Node000019" class="edge">
<title>Node13&#45;&gt;Node19</title>
<g id="a_edge150_Node000013_Node000019"><a xlink:title=" ">
<path fill="none" stroke="#63b8ff" d="M383.16,-342.5C408.75,-342.5 443.18,-342.5 469.24,-342.5"/>
<polygon fill="#63b8ff" stroke="#63b8ff" points="383.13,-339 373.13,-342.5 383.13,-346 383.13,-339"/>
</a>
</g>
</g>
<!-- Node20 -->
<g id="Node000020" class="node">
<title>Node20</title>
<g id="a_Node000020"><a xlink:href="de/db5/classfl_1_1_twinkle_fox.html" target="_top" xlink:title=" ">
<polygon fill="white" stroke="#666666" points="549.5,-315 466.5,-315 466.5,-296 549.5,-296 549.5,-315"/>
<text text-anchor="middle" x="508" y="-303" font-family="Helvetica,sans-Serif" font-size="10.00">fl::TwinkleFox</text>
</a>
</g>
</g>
<!-- Node13&#45;&gt;Node20 -->
<g id="edge151_Node000013_Node000020" class="edge">
<title>Node13&#45;&gt;Node20</title>
<g id="a_edge151_Node000013_Node000020"><a xlink:title=" ">
<path fill="none" stroke="#63b8ff" d="M383.16,-334.23C407.87,-328.5 440.8,-320.86 466.5,-314.9"/>
<polygon fill="#63b8ff" stroke="#63b8ff" points="382.08,-330.89 373.13,-336.56 383.66,-337.7 382.08,-330.89"/>
</a>
</g>
</g>
<!-- Node21 -->
<g id="Node000021" class="node">
<title>Node21</title>
<g id="a_Node000021"><a xlink:href="d0/d4b/classfl_1_1_video.html" target="_top" xlink:title=" ">
<polygon fill="white" stroke="#666666" points="536,-278 480,-278 480,-259 536,-259 536,-278"/>
<text text-anchor="middle" x="508" y="-266" font-family="Helvetica,sans-Serif" font-size="10.00">fl::Video</text>
</a>
</g>
</g>
<!-- Node13&#45;&gt;Node21 -->
<g id="edge152_Node000013_Node000021" class="edge">
<title>Node13&#45;&gt;Node21</title>
<g id="a_edge152_Node000013_Node000021"><a xlink:title=" ">
<path fill="none" stroke="#63b8ff" d="M372.89,-327.96C393.96,-316.22 424.9,-299.69 453,-287.5 461.57,-283.78 471.13,-280.23 479.79,-277.23"/>
<polygon fill="#63b8ff" stroke="#63b8ff" points="370.95,-325.03 363.95,-332.99 374.38,-331.14 370.95,-325.03"/>
</a>
</g>
</g>
<!-- Node22 -->
<g id="Node000022" class="node">
<title>Node22</title>
<g id="a_Node000022"><a xlink:href="d4/dd2/classfl_1_1_video_fx_wrapper.html" target="_top" xlink:title=" ">
<polygon fill="white" stroke="#666666" points="563,-241 453,-241 453,-222 563,-222 563,-241"/>
<text text-anchor="middle" x="508" y="-229" font-family="Helvetica,sans-Serif" font-size="10.00">fl::VideoFxWrapper</text>
</a>
</g>
</g>
<!-- Node13&#45;&gt;Node22 -->
<g id="edge153_Node000013_Node000022" class="edge">
<title>Node13&#45;&gt;Node22</title>
<g id="a_edge153_Node000013_Node000022"><a xlink:title=" ">
<path fill="none" stroke="#63b8ff" d="M363,-325.51C382.34,-305.2 417.23,-271.35 453,-250.5 459.35,-246.8 466.55,-243.65 473.56,-241.04"/>
<polygon fill="#63b8ff" stroke="#63b8ff" points="360.44,-323.13 356.16,-332.82 365.55,-327.91 360.44,-323.13"/>
</a>
</g>
</g>
<!-- Node24 -->
<g id="Node000024" class="node">
<title>Node24</title>
<g id="a_Node000024"><a xlink:href="d8/df5/classfl_1_1_animartrix.html" target="_top" xlink:title=" ">
<polygon fill="white" stroke="#666666" points="548,-204 468,-204 468,-185 548,-185 548,-204"/>
<text text-anchor="middle" x="508" y="-192" font-family="Helvetica,sans-Serif" font-size="10.00">fl::Animartrix</text>
</a>
</g>
</g>
<!-- Node23&#45;&gt;Node24 -->
<g id="edge155_Node000023_Node000024" class="edge">
<title>Node23&#45;&gt;Node24</title>
<g id="a_edge155_Node000023_Node000024"><a xlink:title=" ">
<path fill="none" stroke="#63b8ff" d="M382.57,-151.37C403.06,-158.83 429.45,-168.33 453,-176.5 461.03,-179.28 469.76,-182.23 477.81,-184.91"/>
<polygon fill="#63b8ff" stroke="#63b8ff" points="383.62,-148.03 373.02,-147.89 381.22,-154.6 383.62,-148.03"/>
</a>
</g>
</g>
<!-- Node25 -->
<g id="Node000025" class="node">
<title>Node25</title>
<g id="a_Node000025"><a xlink:href="dc/d2b/classfl_1_1_blend2d.html" target="_top" xlink:title=" ">
<polygon fill="white" stroke="#666666" points="542,-167 474,-167 474,-148 542,-148 542,-167"/>
<text text-anchor="middle" x="508" y="-155" font-family="Helvetica,sans-Serif" font-size="10.00">fl::Blend2d</text>
</a>
</g>
</g>
<!-- Node23&#45;&gt;Node25 -->
<g id="edge156_Node000023_Node000025" class="edge">
<title>Node23&#45;&gt;Node25</title>
<g id="a_edge156_Node000023_Node000025"><a xlink:title=" ">
<path fill="none" stroke="#63b8ff" d="M383.37,-142.77C410.52,-146.01 447.53,-150.42 473.97,-153.56"/>
<polygon fill="#63b8ff" stroke="#63b8ff" points="383.47,-139.26 373.13,-141.55 382.64,-146.21 383.47,-139.26"/>
</a>
</g>
</g>
<!-- Node26 -->
<g id="Node000026" class="node">
<title>Node26</title>
<g id="a_Node000026"><a xlink:href="d9/d41/classfl_1_1_noise_palette.html" target="_top" xlink:title=" ">
<polygon fill="white" stroke="#666666" points="553,-130 463,-130 463,-111 553,-111 553,-130"/>
<text text-anchor="middle" x="508" y="-118" font-family="Helvetica,sans-Serif" font-size="10.00">fl::NoisePalette</text>
</a>
</g>
</g>
<!-- Node23&#45;&gt;Node26 -->
<g id="edge157_Node000023_Node000026" class="edge">
<title>Node23&#45;&gt;Node26</title>
<g id="a_edge157_Node000023_Node000026"><a xlink:title=" ">
<path fill="none" stroke="#63b8ff" d="M383.35,-134.45C406.85,-131.8 437.73,-128.32 462.75,-125.49"/>
<polygon fill="#63b8ff" stroke="#63b8ff" points="382.67,-131.01 373.13,-135.61 383.46,-137.96 382.67,-131.01"/>
</a>
</g>
</g>
<!-- Node27 -->
<g id="Node000027" class="node">
<title>Node27</title>
<g id="a_Node000027"><a xlink:href="d0/d3e/classfl_1_1_red_square.html" target="_top" xlink:title=" ">
<polygon fill="white" stroke="#666666" points="548.5,-93 467.5,-93 467.5,-74 548.5,-74 548.5,-93"/>
<text text-anchor="middle" x="508" y="-81" font-family="Helvetica,sans-Serif" font-size="10.00">fl::RedSquare</text>
</a>
</g>
</g>
<!-- Node23&#45;&gt;Node27 -->
<g id="edge158_Node000023_Node000027" class="edge">
<title>Node23&#45;&gt;Node27</title>
<g id="a_edge158_Node000023_Node000027"><a xlink:title=" ">
<path fill="none" stroke="#63b8ff" d="M383.07,-130.82C394.1,-128.03 406.19,-124.55 417,-120.5 433.75,-114.22 436.53,-109.48 453,-102.5 460.87,-99.16 469.55,-95.92 477.6,-93.09"/>
<polygon fill="#63b8ff" stroke="#63b8ff" points="382.21,-127.42 373.32,-133.18 383.86,-134.23 382.21,-127.42"/>
</a>
</g>
</g>
<!-- Node28 -->
<g id="Node000028" class="node">
<title>Node28</title>
<g id="a_Node000028"><a xlink:href="d5/d79/classfl_1_1_scale_up.html" target="_top" xlink:title=" ">
<polygon fill="white" stroke="#666666" points="542,-56 474,-56 474,-37 542,-37 542,-56"/>
<text text-anchor="middle" x="508" y="-44" font-family="Helvetica,sans-Serif" font-size="10.00">fl::ScaleUp</text>
</a>
</g>
</g>
<!-- Node23&#45;&gt;Node28 -->
<g id="edge159_Node000023_Node000028" class="edge">
<title>Node23&#45;&gt;Node28</title>
<g id="a_edge159_Node000023_Node000028"><a xlink:title=" ">
<path fill="none" stroke="#63b8ff" d="M383.1,-134.49C394.7,-131.88 407.13,-127.58 417,-120.5 440.74,-103.47 430.01,-83.52 453,-65.5 459.1,-60.72 466.5,-57.09 473.83,-54.35"/>
<polygon fill="#63b8ff" stroke="#63b8ff" points="382.36,-131.06 373.19,-136.37 383.67,-137.94 382.36,-131.06"/>
</a>
</g>
</g>
<!-- Node29 -->
<g id="Node000029" class="node">
<title>Node29</title>
<g id="a_Node000029"><a xlink:href="d6/d5f/classfl_1_1_wave_fx.html" target="_top" xlink:title=" ">
<polygon fill="white" stroke="#666666" points="542,-19 474,-19 474,0 542,0 542,-19"/>
<text text-anchor="middle" x="508" y="-7" font-family="Helvetica,sans-Serif" font-size="10.00">fl::WaveFx</text>
</a>
</g>
</g>
<!-- Node23&#45;&gt;Node29 -->
<g id="edge160_Node000023_Node000029" class="edge">
<title>Node23&#45;&gt;Node29</title>
<g id="a_edge160_Node000023_Node000029"><a xlink:title=" ">
<path fill="none" stroke="#63b8ff" d="M383.44,-135.73C395.28,-133.24 407.77,-128.69 417,-120.5 449.85,-91.36 421.42,-59 453,-28.5 458.79,-22.91 466.32,-18.95 473.91,-16.16"/>
<polygon fill="#63b8ff" stroke="#63b8ff" points="382.58,-132.33 373.3,-137.44 383.74,-139.23 382.58,-132.33"/>
</a>
</g>
</g>
<!-- Node35 -->
<g id="Node000035" class="node">
<title>Node35</title>
<g id="a_Node000035"><a xlink:href="d4/d54/classfl_1_1_time_scale.html" target="_top" xlink:title=" ">
<polygon fill="white" stroke="#666666" points="386.5,-111 306.5,-111 306.5,-92 386.5,-92 386.5,-111"/>
<text text-anchor="middle" x="346.5" y="-99" font-family="Helvetica,sans-Serif" font-size="10.00">fl::TimeScale</text>
</a>
</g>
</g>
<!-- Node34&#45;&gt;Node35 -->
<g id="edge166_Node000034_Node000035" class="edge">
<title>Node34&#45;&gt;Node35</title>
<g id="a_edge166_Node000034_Node000035"><a xlink:title=" ">
<path fill="none" stroke="#63b8ff" d="M231.51,-101.5C256.08,-101.5 284.19,-101.5 306.35,-101.5"/>
<polygon fill="#63b8ff" stroke="#63b8ff" points="231.23,-98 221.23,-101.5 231.23,-105 231.23,-98"/>
</a>
</g>
</g>
<!-- Node37 -->
<g id="Node000037" class="node">
<title>Node37</title>
<g id="a_Node000037"><a xlink:href="d0/da7/classfl_1_1_wave_crgb_gradient_map.html" target="_top" xlink:title=" ">
<polygon fill="white" stroke="#666666" points="417,-74 276,-74 276,-55 417,-55 417,-74"/>
<text text-anchor="middle" x="346.5" y="-62" font-family="Helvetica,sans-Serif" font-size="10.00">fl::WaveCrgbGradientMap</text>
</a>
</g>
</g>
<!-- Node36&#45;&gt;Node37 -->
<g id="edge168_Node000036_Node000037" class="edge">
<title>Node36&#45;&gt;Node37</title>
<g id="a_edge168_Node000036_Node000037"><a xlink:title=" ">
<path fill="none" stroke="#63b8ff" d="M233.28,-64.5C246.97,-64.5 261.67,-64.5 275.77,-64.5"/>
<polygon fill="#63b8ff" stroke="#63b8ff" points="233.04,-61 223.04,-64.5 233.04,-68 233.04,-61"/>
</a>
</g>
</g>
<!-- Node38 -->
<g id="Node000038" class="node">
<title>Node38</title>
<g id="a_Node000038"><a xlink:href="de/d99/classfl_1_1_wave_crgb_map_default.html" target="_top" xlink:title=" ">
<polygon fill="white" stroke="#666666" points="414,-37 279,-37 279,-18 414,-18 414,-37"/>
<text text-anchor="middle" x="346.5" y="-25" font-family="Helvetica,sans-Serif" font-size="10.00">fl::WaveCrgbMapDefault</text>
</a>
</g>
</g>
<!-- Node36&#45;&gt;Node38 -->
<g id="edge169_Node000036_Node000038" class="edge">
<title>Node36&#45;&gt;Node38</title>
<g id="a_edge169_Node000036_Node000038"><a xlink:title=" ">
<path fill="none" stroke="#63b8ff" d="M228.35,-52.85C251.84,-47.77 279.04,-41.88 301.32,-37.06"/>
<polygon fill="#63b8ff" stroke="#63b8ff" points="227.57,-49.44 218.54,-54.97 229.05,-56.28 227.57,-49.44"/>
</a>
</g>
</g>
</g>
</svg>
