<?xml version="1.0" encoding="UTF-8" standalone="no"?>
<!DOCTYPE svg PUBLIC "-//W3C//DTD SVG 1.1//EN"
 "http://www.w3.org/Graphics/SVG/1.1/DTD/svg11.dtd">
<!-- Generated by graphviz version 2.43.0 (0)
 -->
<!-- Title: fl/id_tracker.cpp Pages: 1 -->
<svg width="820pt" height="357pt"
 viewBox="0.00 0.00 820.25 357.00" xmlns="http://www.w3.org/2000/svg" xmlns:xlink="http://www.w3.org/1999/xlink">
<g id="graph0" class="graph" transform="scale(1 1) rotate(0) translate(4 353)">
<title>fl/id_tracker.cpp</title>
<!-- Node1 -->
<g id="Node000001" class="node">
<title>Node1</title>
<g id="a_Node000001"><a xlink:title=" ">
<polygon fill="#999999" stroke="#666666" points="149.5,-349 56.5,-349 56.5,-330 149.5,-330 149.5,-349"/>
<text text-anchor="middle" x="103" y="-337" font-family="Helvetica,sans-Serif" font-size="10.00">fl/id_tracker.cpp</text>
</a>
</g>
</g>
<!-- Node2 -->
<g id="Node000002" class="node">
<title>Node2</title>
<g id="a_Node000002"><a xlink:href="../../df/d0a/id__tracker_8h.html" target="_top" xlink:title=" ">
<polygon fill="white" stroke="#666666" points="144,-294 62,-294 62,-275 144,-275 144,-294"/>
<text text-anchor="middle" x="103" y="-282" font-family="Helvetica,sans-Serif" font-size="10.00">fl/id_tracker.h</text>
</a>
</g>
</g>
<!-- Node1&#45;&gt;Node2 -->
<g id="edge1_Node000001_Node000002" class="edge">
<title>Node1&#45;&gt;Node2</title>
<g id="a_edge1_Node000001_Node000002"><a xlink:title=" ">
<path fill="none" stroke="#63b8ff" d="M103,-329.75C103,-322.8 103,-312.85 103,-304.13"/>
<polygon fill="#63b8ff" stroke="#63b8ff" points="106.5,-304.09 103,-294.09 99.5,-304.09 106.5,-304.09"/>
</a>
</g>
</g>
<!-- Node3 -->
<g id="Node000003" class="node">
<title>Node3</title>
<g id="a_Node000003"><a xlink:href="../../d6/d13/hash__map_8h.html" target="_top" xlink:title=" ">
<polygon fill="white" stroke="#666666" points="465.5,-239 380.5,-239 380.5,-220 465.5,-220 465.5,-239"/>
<text text-anchor="middle" x="423" y="-227" font-family="Helvetica,sans-Serif" font-size="10.00">fl/hash_map.h</text>
</a>
</g>
</g>
<!-- Node2&#45;&gt;Node3 -->
<g id="edge2_Node000002_Node000003" class="edge">
<title>Node2&#45;&gt;Node3</title>
<g id="a_edge2_Node000002_Node000003"><a xlink:title=" ">
<path fill="none" stroke="#63b8ff" d="M144.18,-276.68C201.9,-267.12 306.9,-249.73 370.27,-239.23"/>
<polygon fill="#63b8ff" stroke="#63b8ff" points="371.16,-242.63 380.45,-237.55 370.01,-235.73 371.16,-242.63"/>
</a>
</g>
</g>
<!-- Node22 -->
<g id="Node000022" class="node">
<title>Node22</title>
<g id="a_Node000022"><a xlink:href="../../df/d2a/namespace_8h.html" target="_top" xlink:title="Implements the FastLED namespace macros.">
<polygon fill="white" stroke="#666666" points="213.5,-19 122.5,-19 122.5,0 213.5,0 213.5,-19"/>
<text text-anchor="middle" x="168" y="-7" font-family="Helvetica,sans-Serif" font-size="10.00">fl/namespace.h</text>
</a>
</g>
</g>
<!-- Node2&#45;&gt;Node22 -->
<g id="edge35_Node000002_Node000022" class="edge">
<title>Node2&#45;&gt;Node22</title>
<g id="a_edge35_Node000002_Node000022"><a xlink:title=" ">
<path fill="none" stroke="#63b8ff" d="M85.06,-275C55.55,-259.62 0,-224.21 0,-175.5 0,-175.5 0,-175.5 0,-118.5 0,-63.52 64.46,-35.21 113.53,-21.63"/>
<polygon fill="#63b8ff" stroke="#63b8ff" points="114.64,-24.96 123.42,-19.03 112.86,-18.19 114.64,-24.96"/>
</a>
</g>
</g>
<!-- Node68 -->
<g id="Node000068" class="node">
<title>Node68</title>
<g id="a_Node000068"><a xlink:href="../../d0/df8/mutex_8h.html" target="_top" xlink:title=" ">
<polygon fill="white" stroke="#666666" points="136,-239 70,-239 70,-220 136,-220 136,-239"/>
<text text-anchor="middle" x="103" y="-227" font-family="Helvetica,sans-Serif" font-size="10.00">fl/mutex.h</text>
</a>
</g>
</g>
<!-- Node2&#45;&gt;Node68 -->
<g id="edge32_Node000002_Node000068" class="edge">
<title>Node2&#45;&gt;Node68</title>
<g id="a_edge32_Node000002_Node000068"><a xlink:title=" ">
<path fill="none" stroke="#63b8ff" d="M103,-274.75C103,-267.8 103,-257.85 103,-249.13"/>
<polygon fill="#63b8ff" stroke="#63b8ff" points="106.5,-249.09 103,-239.09 99.5,-249.09 106.5,-249.09"/>
</a>
</g>
</g>
<!-- Node4 -->
<g id="Node000004" class="node">
<title>Node4</title>
<g id="a_Node000004"><a xlink:href="../../dc/da7/assert_8h.html" target="_top" xlink:title=" ">
<polygon fill="#fff0f0" stroke="red" points="177.5,-184 112.5,-184 112.5,-165 177.5,-165 177.5,-184"/>
<text text-anchor="middle" x="145" y="-172" font-family="Helvetica,sans-Serif" font-size="10.00">fl/assert.h</text>
</a>
</g>
</g>
<!-- Node3&#45;&gt;Node4 -->
<g id="edge3_Node000003_Node000004" class="edge">
<title>Node3&#45;&gt;Node4</title>
<g id="a_edge3_Node000003_Node000004"><a xlink:title=" ">
<path fill="none" stroke="#63b8ff" d="M380.48,-220.39C328.14,-210.42 239.81,-193.58 187.49,-183.6"/>
<polygon fill="#63b8ff" stroke="#63b8ff" points="188.01,-180.14 177.53,-181.7 186.7,-187.01 188.01,-180.14"/>
</a>
</g>
</g>
<!-- Node6 -->
<g id="Node000006" class="node">
<title>Node6</title>
<g id="a_Node000006"><a xlink:href="../../d1/d69/bitset_8h.html" target="_top" xlink:title=" ">
<polygon fill="#fff0f0" stroke="red" points="602,-129 540,-129 540,-110 602,-110 602,-129"/>
<text text-anchor="middle" x="571" y="-117" font-family="Helvetica,sans-Serif" font-size="10.00">fl/bitset.h</text>
</a>
</g>
</g>
<!-- Node3&#45;&gt;Node6 -->
<g id="edge4_Node000003_Node000006" class="edge">
<title>Node3&#45;&gt;Node6</title>
<g id="a_edge4_Node000003_Node000006"><a xlink:title=" ">
<path fill="none" stroke="#63b8ff" d="M426.21,-219.91C431.64,-206.47 443.85,-180.4 462,-165 481.46,-148.48 507.87,-137.49 529.82,-130.56"/>
<polygon fill="#63b8ff" stroke="#63b8ff" points="530.97,-133.87 539.55,-127.66 528.97,-127.17 530.97,-133.87"/>
</a>
</g>
</g>
<!-- Node21 -->
<g id="Node000021" class="node">
<title>Node21</title>
<g id="a_Node000021"><a xlink:href="../../df/d63/type__traits_8h.html" target="_top" xlink:title=" ">
<polygon fill="#fff0f0" stroke="red" points="419.5,-74 332.5,-74 332.5,-55 419.5,-55 419.5,-74"/>
<text text-anchor="middle" x="376" y="-62" font-family="Helvetica,sans-Serif" font-size="10.00">fl/type_traits.h</text>
</a>
</g>
</g>
<!-- Node3&#45;&gt;Node21 -->
<g id="edge22_Node000003_Node000021" class="edge">
<title>Node3&#45;&gt;Node21</title>
<g id="a_edge22_Node000003_Node000021"><a xlink:title=" ">
<path fill="none" stroke="#63b8ff" d="M380.28,-224.97C328.25,-219.68 244.94,-207.69 226,-184 208.07,-161.56 234.89,-126.24 253,-110 272.31,-92.69 298.86,-81.97 322.36,-75.4"/>
<polygon fill="#63b8ff" stroke="#63b8ff" points="323.42,-78.75 332.21,-72.84 321.65,-71.97 323.42,-78.75"/>
</a>
</g>
</g>
<!-- Node20 -->
<g id="Node000020" class="node">
<title>Node20</title>
<g id="a_Node000020"><a xlink:href="../../d4/d54/compiler__control_8h.html" target="_top" xlink:title=" ">
<polygon fill="white" stroke="#666666" points="658,-74 542,-74 542,-55 658,-55 658,-74"/>
<text text-anchor="middle" x="600" y="-62" font-family="Helvetica,sans-Serif" font-size="10.00">fl/compiler_control.h</text>
</a>
</g>
</g>
<!-- Node3&#45;&gt;Node20 -->
<g id="edge30_Node000003_Node000020" class="edge">
<title>Node3&#45;&gt;Node20</title>
<g id="a_edge30_Node000003_Node000020"><a xlink:title=" ">
<path fill="none" stroke="#63b8ff" d="M465.62,-227.56C547.6,-225.03 723.62,-215.95 774,-184 798.47,-168.48 800.9,-156.82 809,-129 811.36,-120.89 814.31,-116.56 809,-110 791.46,-88.33 722.46,-76.76 668.48,-70.91"/>
<polygon fill="#63b8ff" stroke="#63b8ff" points="668.56,-67.4 658.25,-69.85 667.84,-74.36 668.56,-67.4"/>
</a>
</g>
</g>
<!-- Node16 -->
<g id="Node000016" class="node">
<title>Node16</title>
<g id="a_Node000016"><a xlink:href="../../d6/dd3/clamp_8h.html" target="_top" xlink:title=" ">
<polygon fill="#fff0f0" stroke="red" points="723.5,-129 658.5,-129 658.5,-110 723.5,-110 723.5,-129"/>
<text text-anchor="middle" x="691" y="-117" font-family="Helvetica,sans-Serif" font-size="10.00">fl/clamp.h</text>
</a>
</g>
</g>
<!-- Node3&#45;&gt;Node16 -->
<g id="edge8_Node000003_Node000016" class="edge">
<title>Node3&#45;&gt;Node16</title>
<g id="a_edge8_Node000003_Node000016"><a xlink:title=" ">
<path fill="none" stroke="#63b8ff" d="M465.53,-229.07C543.39,-229.12 704.07,-224.2 739,-184 753.09,-167.79 732.39,-147.86 713.94,-134.7"/>
<polygon fill="#63b8ff" stroke="#63b8ff" points="715.74,-131.7 705.49,-129 711.82,-137.5 715.74,-131.7"/>
</a>
</g>
</g>
<!-- Node54 -->
<g id="Node000054" class="node">
<title>Node54</title>
<g id="a_Node000054"><a xlink:href="../../db/dfb/hash_8h.html" target="_top" xlink:title=" ">
<polygon fill="#fff0f0" stroke="red" points="800,-129 742,-129 742,-110 800,-110 800,-129"/>
<text text-anchor="middle" x="771" y="-117" font-family="Helvetica,sans-Serif" font-size="10.00">fl/hash.h</text>
</a>
</g>
</g>
<!-- Node3&#45;&gt;Node54 -->
<g id="edge9_Node000003_Node000054" class="edge">
<title>Node3&#45;&gt;Node54</title>
<g id="a_edge9_Node000003_Node000054"><a xlink:title=" ">
<path fill="none" stroke="#63b8ff" d="M465.51,-228.53C545.26,-227.7 713.08,-221.41 755,-184 767.32,-173.01 770.81,-154.06 771.52,-139.72"/>
<polygon fill="#63b8ff" stroke="#63b8ff" points="775.03,-139.47 771.62,-129.44 768.03,-139.41 775.03,-139.47"/>
</a>
</g>
</g>
<!-- Node18 -->
<g id="Node000018" class="node">
<title>Node18</title>
<g id="a_Node000018"><a xlink:href="../../d1/d47/map__range_8h.html" target="_top" xlink:title=" ">
<polygon fill="#fff0f0" stroke="red" points="559.5,-184 470.5,-184 470.5,-165 559.5,-165 559.5,-184"/>
<text text-anchor="middle" x="515" y="-172" font-family="Helvetica,sans-Serif" font-size="10.00">fl/map_range.h</text>
</a>
</g>
</g>
<!-- Node3&#45;&gt;Node18 -->
<g id="edge12_Node000003_Node000018" class="edge">
<title>Node3&#45;&gt;Node18</title>
<g id="a_edge12_Node000003_Node000018"><a xlink:title=" ">
<path fill="none" stroke="#63b8ff" d="M437.78,-219.98C452.18,-211.69 474.31,-198.94 491.19,-189.22"/>
<polygon fill="#63b8ff" stroke="#63b8ff" points="493.03,-192.19 499.95,-184.17 489.54,-186.13 493.03,-192.19"/>
</a>
</g>
</g>
<!-- Node19 -->
<g id="Node000019" class="node">
<title>Node19</title>
<g id="a_Node000019"><a xlink:href="../../d8/db8/math__macros_8h.html" target="_top" xlink:title=" ">
<polygon fill="white" stroke="#666666" points="521.5,-129 420.5,-129 420.5,-110 521.5,-110 521.5,-129"/>
<text text-anchor="middle" x="471" y="-117" font-family="Helvetica,sans-Serif" font-size="10.00">fl/math_macros.h</text>
</a>
</g>
</g>
<!-- Node3&#45;&gt;Node19 -->
<g id="edge31_Node000003_Node000019" class="edge">
<title>Node3&#45;&gt;Node19</title>
<g id="a_edge31_Node000003_Node000019"><a xlink:title=" ">
<path fill="none" stroke="#63b8ff" d="M421.9,-219.83C420.67,-207.17 419.82,-183.15 428,-165 433.08,-153.72 442.3,-143.58 450.9,-135.84"/>
<polygon fill="#63b8ff" stroke="#63b8ff" points="453.4,-138.31 458.8,-129.19 448.89,-132.95 453.4,-138.31"/>
</a>
</g>
</g>
<!-- Node47 -->
<g id="Node000047" class="node">
<title>Node47</title>
<g id="a_Node000047"><a xlink:href="../../dc/d62/optional_8h.html" target="_top" xlink:title=" ">
<polygon fill="#fff0f0" stroke="red" points="652,-184 578,-184 578,-165 652,-165 652,-184"/>
<text text-anchor="middle" x="615" y="-172" font-family="Helvetica,sans-Serif" font-size="10.00">fl/optional.h</text>
</a>
</g>
</g>
<!-- Node3&#45;&gt;Node47 -->
<g id="edge18_Node000003_Node000047" class="edge">
<title>Node3&#45;&gt;Node47</title>
<g id="a_edge18_Node000003_Node000047"><a xlink:title=" ">
<path fill="none" stroke="#63b8ff" d="M453.85,-219.98C486.5,-210.97 538.2,-196.7 574.2,-186.76"/>
<polygon fill="#63b8ff" stroke="#63b8ff" points="575.2,-190.12 583.91,-184.08 573.34,-183.37 575.2,-190.12"/>
</a>
</g>
</g>
<!-- Node55 -->
<g id="Node000055" class="node">
<title>Node55</title>
<g id="a_Node000055"><a xlink:href="../../d3/d41/pair_8h.html" target="_top" xlink:title=" ">
<polygon fill="#fff0f0" stroke="red" points="402.5,-129 349.5,-129 349.5,-110 402.5,-110 402.5,-129"/>
<text text-anchor="middle" x="376" y="-117" font-family="Helvetica,sans-Serif" font-size="10.00">fl/pair.h</text>
</a>
</g>
</g>
<!-- Node3&#45;&gt;Node55 -->
<g id="edge19_Node000003_Node000055" class="edge">
<title>Node3&#45;&gt;Node55</title>
<g id="a_edge19_Node000003_Node000055"><a xlink:title=" ">
<path fill="none" stroke="#63b8ff" d="M414.68,-219.68C407.11,-211.19 396.22,-197.65 390,-184 383.48,-169.7 379.91,-152.17 378.01,-139.16"/>
<polygon fill="#63b8ff" stroke="#63b8ff" points="381.47,-138.56 376.74,-129.08 374.52,-139.44 381.47,-138.56"/>
</a>
</g>
</g>
<!-- Node49 -->
<g id="Node000049" class="node">
<title>Node49</title>
<g id="a_Node000049"><a xlink:href="../../d6/d68/vector_8h.html" target="_top" xlink:title=" ">
<polygon fill="#fff0f0" stroke="red" points="299.5,-184 234.5,-184 234.5,-165 299.5,-165 299.5,-184"/>
<text text-anchor="middle" x="267" y="-172" font-family="Helvetica,sans-Serif" font-size="10.00">fl/vector.h</text>
</a>
</g>
</g>
<!-- Node3&#45;&gt;Node49 -->
<g id="edge23_Node000003_Node000049" class="edge">
<title>Node3&#45;&gt;Node49</title>
<g id="a_edge23_Node000003_Node000049"><a xlink:title=" ">
<path fill="none" stroke="#63b8ff" d="M397.94,-219.98C371.97,-211.16 331.19,-197.31 302.04,-187.41"/>
<polygon fill="#63b8ff" stroke="#63b8ff" points="302.85,-183.99 292.26,-184.08 300.6,-190.61 302.85,-183.99"/>
</a>
</g>
</g>
<!-- Node45 -->
<g id="Node000045" class="node">
<title>Node45</title>
<g id="a_Node000045"><a xlink:href="../../d1/ddf/align_8h.html" target="_top" xlink:title=" ">
<polygon fill="white" stroke="#666666" points="331.5,-129 272.5,-129 272.5,-110 331.5,-110 331.5,-129"/>
<text text-anchor="middle" x="302" y="-117" font-family="Helvetica,sans-Serif" font-size="10.00">fl/align.h</text>
</a>
</g>
</g>
<!-- Node3&#45;&gt;Node45 -->
<g id="edge29_Node000003_Node000045" class="edge">
<title>Node3&#45;&gt;Node45</title>
<g id="a_edge29_Node000003_Node000045"><a xlink:title=" ">
<path fill="none" stroke="#63b8ff" d="M413.1,-219.66C392.52,-201.3 344.93,-158.81 319.22,-135.87"/>
<polygon fill="#63b8ff" stroke="#63b8ff" points="321.49,-133.21 311.7,-129.16 316.83,-138.43 321.49,-133.21"/>
</a>
</g>
</g>
<!-- Node56 -->
<g id="Node000056" class="node">
<title>Node56</title>
<g id="a_Node000056"><a xlink:href="../../de/d77/warn_8h.html" target="_top" xlink:title=" ">
<polygon fill="#fff0f0" stroke="red" points="729.5,-184 670.5,-184 670.5,-165 729.5,-165 729.5,-184"/>
<text text-anchor="middle" x="700" y="-172" font-family="Helvetica,sans-Serif" font-size="10.00">fl/warn.h</text>
</a>
</g>
</g>
<!-- Node3&#45;&gt;Node56 -->
<g id="edge28_Node000003_Node000056" class="edge">
<title>Node3&#45;&gt;Node56</title>
<g id="a_edge28_Node000003_Node000056"><a xlink:title=" ">
<path fill="none" stroke="#63b8ff" d="M465.64,-220.92C511.27,-212.72 586.04,-199.04 660.22,-184.11"/>
<polygon fill="#63b8ff" stroke="#63b8ff" points="661.1,-187.5 670.21,-182.09 659.71,-180.64 661.1,-187.5"/>
</a>
</g>
</g>
<!-- Node6&#45;&gt;Node21 -->
<g id="edge5_Node000006_Node000021" class="edge">
<title>Node6&#45;&gt;Node21</title>
<g id="a_edge5_Node000006_Node000021"><a xlink:title=" ">
<path fill="none" stroke="#63b8ff" d="M539.67,-109.98C506.51,-100.97 454,-86.7 417.44,-76.76"/>
<polygon fill="#63b8ff" stroke="#63b8ff" points="418.14,-73.33 407.58,-74.08 416.31,-80.08 418.14,-73.33"/>
</a>
</g>
</g>
<!-- Node6&#45;&gt;Node20 -->
<g id="edge7_Node000006_Node000020" class="edge">
<title>Node6&#45;&gt;Node20</title>
<g id="a_edge7_Node000006_Node000020"><a xlink:title=" ">
<path fill="none" stroke="#63b8ff" d="M575.79,-109.75C579.76,-102.49 585.53,-91.95 590.43,-82.98"/>
<polygon fill="#63b8ff" stroke="#63b8ff" points="593.57,-84.54 595.3,-74.09 587.43,-81.18 593.57,-84.54"/>
</a>
</g>
</g>
<!-- Node21&#45;&gt;Node22 -->
<g id="edge6_Node000021_Node000022" class="edge">
<title>Node21&#45;&gt;Node22</title>
<g id="a_edge6_Node000021_Node000022"><a xlink:title=" ">
<path fill="none" stroke="#63b8ff" d="M342.58,-54.98C307.06,-45.93 250.73,-31.58 211.7,-21.64"/>
<polygon fill="#63b8ff" stroke="#63b8ff" points="212.24,-18.16 201.68,-19.08 210.51,-24.94 212.24,-18.16"/>
</a>
</g>
</g>
<!-- Node54&#45;&gt;Node21 -->
<g id="edge10_Node000054_Node000021" class="edge">
<title>Node54&#45;&gt;Node21</title>
<g id="a_edge10_Node000054_Node000021"><a xlink:title=" ">
<path fill="none" stroke="#63b8ff" d="M741.6,-111.63C738.7,-111.04 735.8,-110.49 733,-110 626.18,-91.44 500.08,-77.59 429.96,-70.6"/>
<polygon fill="#63b8ff" stroke="#63b8ff" points="429.91,-67.07 419.61,-69.57 429.22,-74.04 429.91,-67.07"/>
</a>
</g>
</g>
<!-- Node54&#45;&gt;Node20 -->
<g id="edge11_Node000054_Node000020" class="edge">
<title>Node54&#45;&gt;Node20</title>
<g id="a_edge11_Node000054_Node000020"><a xlink:title=" ">
<path fill="none" stroke="#63b8ff" d="M743.53,-109.98C714.82,-101.09 669.58,-87.07 637.58,-77.15"/>
<polygon fill="#63b8ff" stroke="#63b8ff" points="638.28,-73.7 627.69,-74.08 636.2,-80.39 638.28,-73.7"/>
</a>
</g>
</g>
<!-- Node18&#45;&gt;Node20 -->
<g id="edge17_Node000018_Node000020" class="edge">
<title>Node18&#45;&gt;Node20</title>
<g id="a_edge17_Node000018_Node000020"><a xlink:title=" ">
<path fill="none" stroke="#63b8ff" d="M557.45,-164.9C577.3,-158.52 599.13,-147.58 611,-129 619.73,-115.32 615.04,-96.76 609.33,-83.24"/>
<polygon fill="#63b8ff" stroke="#63b8ff" points="612.42,-81.58 604.97,-74.05 606.09,-84.58 612.42,-81.58"/>
</a>
</g>
</g>
<!-- Node18&#45;&gt;Node16 -->
<g id="edge13_Node000018_Node000016" class="edge">
<title>Node18&#45;&gt;Node16</title>
<g id="a_edge13_Node000018_Node000016"><a xlink:title=" ">
<path fill="none" stroke="#63b8ff" d="M543.28,-164.98C572.95,-156.05 619.79,-141.94 652.75,-132.02"/>
<polygon fill="#63b8ff" stroke="#63b8ff" points="653.93,-135.32 662.5,-129.08 651.92,-128.61 653.93,-135.32"/>
</a>
</g>
</g>
<!-- Node18&#45;&gt;Node19 -->
<g id="edge14_Node000018_Node000019" class="edge">
<title>Node18&#45;&gt;Node19</title>
<g id="a_edge14_Node000018_Node000019"><a xlink:title=" ">
<path fill="none" stroke="#63b8ff" d="M507.73,-164.75C501.46,-157.18 492.21,-146.05 484.57,-136.84"/>
<polygon fill="#63b8ff" stroke="#63b8ff" points="487.21,-134.55 478.13,-129.09 481.83,-139.02 487.21,-134.55"/>
</a>
</g>
</g>
<!-- Node19&#45;&gt;Node21 -->
<g id="edge16_Node000019_Node000021" class="edge">
<title>Node19&#45;&gt;Node21</title>
<g id="a_edge16_Node000019_Node000021"><a xlink:title=" ">
<path fill="none" stroke="#63b8ff" d="M455.74,-109.98C440.87,-101.69 418.02,-88.94 400.58,-79.22"/>
<polygon fill="#63b8ff" stroke="#63b8ff" points="401.98,-75.99 391.54,-74.17 398.57,-82.1 401.98,-75.99"/>
</a>
</g>
</g>
<!-- Node19&#45;&gt;Node20 -->
<g id="edge15_Node000019_Node000020" class="edge">
<title>Node19&#45;&gt;Node20</title>
<g id="a_edge15_Node000019_Node000020"><a xlink:title=" ">
<path fill="none" stroke="#63b8ff" d="M491.73,-109.98C512.76,-101.34 545.55,-87.87 569.54,-78.02"/>
<polygon fill="#63b8ff" stroke="#63b8ff" points="570.98,-81.21 578.9,-74.17 568.32,-74.73 570.98,-81.21"/>
</a>
</g>
</g>
<!-- Node55&#45;&gt;Node21 -->
<g id="edge21_Node000055_Node000021" class="edge">
<title>Node55&#45;&gt;Node21</title>
<g id="a_edge21_Node000055_Node000021"><a xlink:title=" ">
<path fill="none" stroke="#63b8ff" d="M376,-109.75C376,-102.8 376,-92.85 376,-84.13"/>
<polygon fill="#63b8ff" stroke="#63b8ff" points="379.5,-84.09 376,-74.09 372.5,-84.09 379.5,-84.09"/>
</a>
</g>
</g>
<!-- Node55&#45;&gt;Node20 -->
<g id="edge20_Node000055_Node000020" class="edge">
<title>Node55&#45;&gt;Node20</title>
<g id="a_edge20_Node000055_Node000020"><a xlink:title=" ">
<path fill="none" stroke="#63b8ff" d="M402.58,-112.21C439.85,-103.39 508.22,-87.22 553.89,-76.41"/>
<polygon fill="#63b8ff" stroke="#63b8ff" points="554.92,-79.76 563.84,-74.05 553.31,-72.95 554.92,-79.76"/>
</a>
</g>
</g>
<!-- Node49&#45;&gt;Node21 -->
<g id="edge26_Node000049_Node000021" class="edge">
<title>Node49&#45;&gt;Node21</title>
<g id="a_edge26_Node000049_Node000021"><a xlink:title=" ">
<path fill="none" stroke="#63b8ff" d="M263.57,-164.82C258.99,-151.7 252.72,-126.62 264,-110 277.25,-90.48 300.55,-79.53 322.48,-73.37"/>
<polygon fill="#63b8ff" stroke="#63b8ff" points="323.57,-76.71 332.41,-70.87 321.86,-69.92 323.57,-76.71"/>
</a>
</g>
</g>
<!-- Node49&#45;&gt;Node22 -->
<g id="edge25_Node000049_Node000022" class="edge">
<title>Node49&#45;&gt;Node22</title>
<g id="a_edge25_Node000049_Node000022"><a xlink:title=" ">
<path fill="none" stroke="#63b8ff" d="M261.68,-164.74C245.96,-138.87 199.57,-62.48 178.56,-27.88"/>
<polygon fill="#63b8ff" stroke="#63b8ff" points="181.53,-26.04 173.35,-19.31 175.55,-29.67 181.53,-26.04"/>
</a>
</g>
</g>
<!-- Node49&#45;&gt;Node19 -->
<g id="edge24_Node000049_Node000019" class="edge">
<title>Node49&#45;&gt;Node19</title>
<g id="a_edge24_Node000049_Node000019"><a xlink:title=" ">
<path fill="none" stroke="#63b8ff" d="M299.78,-164.98C334.62,-155.93 389.87,-141.58 428.14,-131.64"/>
<polygon fill="#63b8ff" stroke="#63b8ff" points="429.17,-134.98 437.97,-129.08 427.41,-128.21 429.17,-134.98"/>
</a>
</g>
</g>
<!-- Node49&#45;&gt;Node45 -->
<g id="edge27_Node000049_Node000045" class="edge">
<title>Node49&#45;&gt;Node45</title>
<g id="a_edge27_Node000049_Node000045"><a xlink:title=" ">
<path fill="none" stroke="#63b8ff" d="M272.78,-164.75C277.62,-157.42 284.68,-146.73 290.64,-137.7"/>
<polygon fill="#63b8ff" stroke="#63b8ff" points="293.74,-139.36 296.33,-129.09 287.9,-135.5 293.74,-139.36"/>
</a>
</g>
</g>
<!-- Node68&#45;&gt;Node4 -->
<g id="edge34_Node000068_Node000004" class="edge">
<title>Node68&#45;&gt;Node4</title>
<g id="a_edge34_Node000068_Node000004"><a xlink:title=" ">
<path fill="none" stroke="#63b8ff" d="M109.94,-219.75C115.87,-212.26 124.57,-201.28 131.82,-192.13"/>
<polygon fill="#63b8ff" stroke="#63b8ff" points="134.73,-194.1 138.19,-184.09 129.24,-189.75 134.73,-194.1"/>
</a>
</g>
</g>
<!-- Node44 -->
<g id="Node000044" class="node">
<title>Node44</title>
<g id="a_Node000044"><a xlink:href="../../db/dd5/thread_8h.html" target="_top" xlink:title=" ">
<polygon fill="white" stroke="#666666" points="94,-184 28,-184 28,-165 94,-165 94,-184"/>
<text text-anchor="middle" x="61" y="-172" font-family="Helvetica,sans-Serif" font-size="10.00">fl/thread.h</text>
</a>
</g>
</g>
<!-- Node68&#45;&gt;Node44 -->
<g id="edge33_Node000068_Node000044" class="edge">
<title>Node68&#45;&gt;Node44</title>
<g id="a_edge33_Node000068_Node000044"><a xlink:title=" ">
<path fill="none" stroke="#63b8ff" d="M96.06,-219.75C90.13,-212.26 81.43,-201.28 74.18,-192.13"/>
<polygon fill="#63b8ff" stroke="#63b8ff" points="76.76,-189.75 67.81,-184.09 71.27,-194.1 76.76,-189.75"/>
</a>
</g>
</g>
</g>
</svg>
