<?xml version="1.0" encoding="UTF-8" standalone="no"?>
<!DOCTYPE svg PUBLIC "-//W3C//DTD SVG 1.1//EN"
 "http://www.w3.org/Graphics/SVG/1.1/DTD/svg11.dtd">
<!-- Generated by graphviz version 2.43.0 (0)
 -->
<!-- Title: fl::FlowFieldFloat::FlowFieldFloat Pages: 1 -->
<!--zoomable 164 -->

<svg id="main" version="1.1" xmlns="http://www.w3.org/2000/svg" xmlns:xlink="http://www.w3.org/1999/xlink" xml:space="preserve" onload="init(evt)">

<style type="text/css"><![CDATA[
.node, .edge {opacity: 0.7;}
.node.selected, .edge.selected {opacity: 1;}
.edge:hover path { stroke: red; }
.edge:hover polygon { stroke: red; fill: red; }
]]></style>

<defs>
  <circle id="rim" cx="0" cy="0" r="7"/>
  <circle id="rim2" cx="0" cy="0" r="3.5"/>
  <g id="zoomPlus">
    <use xlink:href="#rim" fill="#404040"><set attributeName="fill" to="#808080" begin="zoomplus.mouseover" end="zoomplus.mouseout"/></use>
    <path d="M-4,0h8M0,-4v8" fill="none" stroke="white" stroke-width="1.5" pointer-events="none"/>
  </g>
  <g id="zoomMin">
    <use xlink:href="#rim" fill="#404040"><set attributeName="fill" to="#808080" begin="zoomminus.mouseover" end="zoomminus.mouseout"/></use>
    <path d="M-4,0h8" fill="none" stroke="white" stroke-width="1.5" pointer-events="none"/>
  </g>
  <g id="arrowUp" transform="translate(30 24)">
    <use xlink:href="#rim"/>
    <path pointer-events="none" fill="none" stroke="white" stroke-width="1.5" d="M0,-3.0v7 M-2.5,-0.5L0,-3.0L2.5,-0.5"/>
  </g>
  <g id="arrowRight" transform="rotate(90) translate(36 -43)">
    <use xlink:href="#rim"/>
    <path pointer-events="none" fill="none" stroke="white" stroke-width="1.5" d="M0,-3.0v7 M-2.5,-0.5L0,-3.0L2.5,-0.5"/>
  </g>
  <g id="arrowDown" transform="rotate(180) translate(-30 -48)">
    <use xlink:href="#rim"/>
    <path pointer-events="none" fill="none" stroke="white" stroke-width="1.5" d="M0,-3.0v7 M-2.5,-0.5L0,-3.0L2.5,-0.5"/>
  </g>
  <g id="arrowLeft" transform="rotate(270) translate(-36 17)">
    <use xlink:href="#rim"/>
    <path pointer-events="none" fill="none" stroke="white" stroke-width="1.5" d="M0,-3.0v7 M-2.5,-0.5L0,-3.0L2.5,-0.5"/>
  </g>
  <g id="resetDef">
    <use xlink:href="#rim2" fill="#404040"><set attributeName="fill" to="#808080" begin="reset.mouseover" end="reset.mouseout"/></use>
  </g>
</defs>
<script type="application/ecmascript">
var viewWidth = 543;
var viewHeight = 164;
var sectionId = 'dynsection-0';
</script>
<script type="application/ecmascript" xlink:href="../../svg.min.js"/>
<svg id="graph" class="graph">
<g id="viewport">
<title>fl::FlowFieldFloat::FlowFieldFloat</title>
<!-- Node1 -->
<g id="Node000001" class="node">
<title>Node1</title>
<g id="a_Node000001"><a xlink:title=" ">
<polygon fill="#999999" stroke="#666666" points="100,-118.5 0,-118.5 0,-88.5 100,-88.5 100,-118.5"/>
<text text-anchor="start" x="8" y="-106.5" font-family="Helvetica,sans-Serif" font-size="10.00">fl::FlowFieldFloat</text>
<text text-anchor="middle" x="50" y="-95.5" font-family="Helvetica,sans-Serif" font-size="10.00">::FlowFieldFloat</text>
</a>
</g>
</g>
<!-- Node2 -->
<g id="Node000002" class="node">
<title>Node2</title>
<g id="a_Node000002"><a xlink:href="../../d4/d1c/classfl_1_1_flow_field_ab50347b9ad7d7ff636212b025b2262d6.html#ab50347b9ad7d7ff636212b025b2262d6" target="_top" xlink:title=" ">
<polygon fill="white" stroke="#666666" points="264,-94 136,-94 136,-75 264,-75 264,-94"/>
<text text-anchor="middle" x="200" y="-82" font-family="Helvetica,sans-Serif" font-size="10.00">fl::FlowField::FlowField</text>
</a>
</g>
</g>
<!-- Node1&#45;&gt;Node2 -->
<g id="edge1_Node000001_Node000002" class="edge">
<title>Node1&#45;&gt;Node2</title>
<g id="a_edge1_Node000001_Node000002"><a xlink:title=" ">
<path fill="none" stroke="#63b8ff" d="M100.28,-97.17C108.5,-96.12 117.18,-95 125.84,-93.89"/>
<polygon fill="#63b8ff" stroke="#63b8ff" points="126.51,-97.34 135.98,-92.59 125.62,-90.39 126.51,-97.34"/>
</a>
</g>
</g>
<!-- Node5 -->
<g id="Node000005" class="node">
<title>Node5</title>
<g id="a_Node000005"><a xlink:href="../../d7/d3e/classfl_1_1_fx2d_ad6e9c311d2db1b04b46921ba869cb48f.html#ad6e9c311d2db1b04b46921ba869cb48f" target="_top" xlink:title=" ">
<polygon fill="white" stroke="#666666" points="535,-94 443,-94 443,-75 535,-75 535,-94"/>
<text text-anchor="middle" x="489" y="-82" font-family="Helvetica,sans-Serif" font-size="10.00">fl::Fx2d::xyMap</text>
</a>
</g>
</g>
<!-- Node1&#45;&gt;Node5 -->
<g id="edge10_Node000001_Node000005" class="edge">
<title>Node1&#45;&gt;Node5</title>
<g id="a_edge10_Node000001_Node000005"><a xlink:title=" ">
<path fill="none" stroke="#63b8ff" d="M92.39,-118.57C159.91,-140.81 297.22,-176.25 407,-141.5 431.9,-133.62 455.76,-115.03 471.06,-101.21"/>
<polygon fill="#63b8ff" stroke="#63b8ff" points="473.72,-103.51 478.62,-94.12 468.93,-98.4 473.72,-103.51"/>
</a>
</g>
</g>
<!-- Node6 -->
<g id="Node000006" class="node">
<title>Node6</title>
<g id="a_Node000006"><a xlink:href="../../d7/d3e/classfl_1_1_fx2d_ad6b933327525e3183bebc5c4670c335c.html#ad6b933327525e3183bebc5c4670c335c" target="_top" xlink:title=" ">
<polygon fill="white" stroke="#666666" points="407,-132 300,-132 300,-113 407,-113 407,-132"/>
<text text-anchor="middle" x="353.5" y="-120" font-family="Helvetica,sans-Serif" font-size="10.00">fl::Fx2d::getHeight</text>
</a>
</g>
</g>
<!-- Node1&#45;&gt;Node6 -->
<g id="edge8_Node000001_Node000006" class="edge">
<title>Node1&#45;&gt;Node6</title>
<g id="a_edge8_Node000001_Node000006"><a xlink:title=" ">
<path fill="none" stroke="#63b8ff" d="M100.11,-106.59C151.79,-109.85 233.31,-114.99 289.65,-118.54"/>
<polygon fill="#63b8ff" stroke="#63b8ff" points="289.66,-122.05 299.86,-119.18 290.1,-115.06 289.66,-122.05"/>
</a>
</g>
</g>
<!-- Node7 -->
<g id="Node000007" class="node">
<title>Node7</title>
<g id="a_Node000007"><a xlink:href="../../d7/d3e/classfl_1_1_fx2d_ac8815af5daab1c78876ecded7373a2f8.html#ac8815af5daab1c78876ecded7373a2f8" target="_top" xlink:title=" ">
<polygon fill="white" stroke="#666666" points="405,-19 302,-19 302,0 405,0 405,-19"/>
<text text-anchor="middle" x="353.5" y="-7" font-family="Helvetica,sans-Serif" font-size="10.00">fl::Fx2d::getWidth</text>
</a>
</g>
</g>
<!-- Node1&#45;&gt;Node7 -->
<g id="edge9_Node000001_Node000007" class="edge">
<title>Node1&#45;&gt;Node7</title>
<g id="a_edge9_Node000001_Node000007"><a xlink:title=" ">
<path fill="none" stroke="#63b8ff" d="M81.58,-88.33C97.54,-80.81 117.54,-71.96 136,-65.5 189.54,-46.76 252.5,-31.16 296.67,-21.23"/>
<polygon fill="#63b8ff" stroke="#63b8ff" points="297.64,-24.6 306.64,-19.02 296.12,-17.77 297.64,-24.6"/>
</a>
</g>
</g>
<!-- Node3 -->
<g id="Node000003" class="node">
<title>Node3</title>
<g id="a_Node000003"><a xlink:href="../../d7/d3e/classfl_1_1_fx2d_a98879bee7a7a97ceb2cc34ea2eefc7fe.html#a98879bee7a7a97ceb2cc34ea2eefc7fe" target="_top" xlink:title=" ">
<polygon fill="white" stroke="#666666" points="395,-56 312,-56 312,-37 395,-37 395,-56"/>
<text text-anchor="middle" x="353.5" y="-44" font-family="Helvetica,sans-Serif" font-size="10.00">fl::Fx2d::Fx2d</text>
</a>
</g>
</g>
<!-- Node2&#45;&gt;Node3 -->
<g id="edge2_Node000002_Node000003" class="edge">
<title>Node2&#45;&gt;Node3</title>
<g id="a_edge2_Node000002_Node000003"><a xlink:title=" ">
<path fill="none" stroke="#63b8ff" d="M239.23,-74.91C259.13,-69.92 283.66,-63.77 304.79,-58.47"/>
<polygon fill="#63b8ff" stroke="#63b8ff" points="305.7,-61.85 314.55,-56.02 303.99,-55.06 305.7,-61.85"/>
</a>
</g>
</g>
<!-- Node2&#45;&gt;Node5 -->
<g id="edge7_Node000002_Node000005" class="edge">
<title>Node2&#45;&gt;Node5</title>
<g id="a_edge7_Node000002_Node000005"><a xlink:title=" ">
<path fill="none" stroke="#63b8ff" d="M264.34,-84.5C314.63,-84.5 384.26,-84.5 432.41,-84.5"/>
<polygon fill="#63b8ff" stroke="#63b8ff" points="432.64,-88 442.64,-84.5 432.64,-81 432.64,-88"/>
</a>
</g>
</g>
<!-- Node2&#45;&gt;Node6 -->
<g id="edge5_Node000002_Node000006" class="edge">
<title>Node2&#45;&gt;Node6</title>
<g id="a_edge5_Node000002_Node000006"><a xlink:title=" ">
<path fill="none" stroke="#63b8ff" d="M239.23,-94.09C259.13,-99.08 283.66,-105.23 304.79,-110.53"/>
<polygon fill="#63b8ff" stroke="#63b8ff" points="303.99,-113.94 314.55,-112.98 305.7,-107.15 303.99,-113.94"/>
</a>
</g>
</g>
<!-- Node2&#45;&gt;Node7 -->
<g id="edge6_Node000002_Node000007" class="edge">
<title>Node2&#45;&gt;Node7</title>
<g id="a_edge6_Node000002_Node000007"><a xlink:title=" ">
<path fill="none" stroke="#63b8ff" d="M215.62,-74.88C234.53,-62.73 268.76,-41.69 300,-27.5 303.8,-25.77 307.82,-24.12 311.87,-22.55"/>
<polygon fill="#63b8ff" stroke="#63b8ff" points="313.12,-25.82 321.3,-19.09 310.71,-19.25 313.12,-25.82"/>
</a>
</g>
</g>
<!-- Node4 -->
<g id="Node000004" class="node">
<title>Node4</title>
<g id="a_Node000004"><a xlink:href="../../da/d5d/classfl_1_1_fx_a429bdb2f171a039fb51f5e466e4b5ffe.html#a429bdb2f171a039fb51f5e466e4b5ffe" target="_top" xlink:title=" ">
<polygon fill="white" stroke="#666666" points="518.5,-56 459.5,-56 459.5,-37 518.5,-37 518.5,-56"/>
<text text-anchor="middle" x="489" y="-44" font-family="Helvetica,sans-Serif" font-size="10.00">fl::Fx::Fx</text>
</a>
</g>
</g>
<!-- Node3&#45;&gt;Node4 -->
<g id="edge3_Node000003_Node000004" class="edge">
<title>Node3&#45;&gt;Node4</title>
<g id="a_edge3_Node000003_Node000004"><a xlink:title=" ">
<path fill="none" stroke="#63b8ff" d="M395.28,-46.5C412.42,-46.5 432.28,-46.5 449.2,-46.5"/>
<polygon fill="#63b8ff" stroke="#63b8ff" points="449.31,-50 459.31,-46.5 449.31,-43 449.31,-50"/>
</a>
</g>
</g>
<!-- Node3&#45;&gt;Node5 -->
<g id="edge4_Node000003_Node000005" class="edge">
<title>Node3&#45;&gt;Node5</title>
<g id="a_edge4_Node000003_Node000005"><a xlink:title=" ">
<path fill="none" stroke="#63b8ff" d="M388.19,-56.09C405.26,-60.95 426.2,-66.91 444.48,-72.11"/>
<polygon fill="#63b8ff" stroke="#63b8ff" points="443.75,-75.54 454.32,-74.91 445.66,-68.81 443.75,-75.54"/>
</a>
</g>
</g>
</g>
</svg>

<g id="navigator" transform="translate(0 0)" fill="#404254">
  <rect fill="#f2f5e9" fill-opacity="0.5" stroke="#606060" stroke-width=".5" x="0" y="0" width="60" height="60"/>
  <use id="zoomplus" xlink:href="#zoomPlus" x="17" y="9" onmousedown="handleZoom(evt,'in')"/>
  <use id="zoomminus" xlink:href="#zoomMin" x="42" y="9" onmousedown="handleZoom(evt,'out')"/>
  <use id="reset" xlink:href="#resetDef" x="30" y="36" onmousedown="handleReset()"/>
   <use id="arrowup" xlink:href="#arrowUp" x="0" y="0" onmousedown="handlePan(0,-1)"/>
  <use id="arrowright" xlink:href="#arrowRight" x="0" y="0" onmousedown="handlePan(1,0)"/>
  <use id="arrowdown" xlink:href="#arrowDown" x="0" y="0" onmousedown="handlePan(0,1)"/>
  <use id="arrowleft" xlink:href="#arrowLeft" x="0" y="0" onmousedown="handlePan(-1,0)"/>
</g>
<svg viewBox="0 0 15 15" width="100%" height="30px" preserveAspectRatio="xMaxYMin meet">
 <g id="arrow_out" transform="scale(0.3 0.3)">
  <a xlink:href="classfl_1_1_flow_field_float_a7ff46ea82551d3bd37863ae41a428686_a7ff46ea82551d3bd37863ae41a428686_cgraph_org.svg" target="_base">
   <rect id="button" ry="5" rx="5" y="6" x="6" height="38" width="38"
        fill="#f2f5e9" fill-opacity="0.5" stroke="#606060" stroke-width="1.0"/>
   <path id="arrow"
     d="M 11.500037,31.436501 C 11.940474,20.09759 22.043105,11.32322 32.158766,21.979434 L 37.068811,17.246167 C 37.068811,17.246167 37.088388,32 37.088388,32 L 22.160133,31.978069 C 22.160133,31.978069 26.997745,27.140456 26.997745,27.140456 C 18.528582,18.264221 13.291696,25.230495 11.500037,31.436501 z"
     style="fill:#404040;"/>
  </a>
 </g>
</svg>

<style type='text/css'>
<![CDATA[
[data-mouse-over-selected='false'] { opacity: 0.7; }
[data-mouse-over-selected='true']  { opacity: 1.0; }
]]>
</style>
<script type="application/ecmascript"><![CDATA[
document.addEventListener('DOMContentLoaded', (event) => {
  highlightEdges();
  highlightAdjacentNodes();
});
]]></script>
</svg>
