<?xml version="1.0" encoding="UTF-8" standalone="no"?>
<!DOCTYPE svg PUBLIC "-//W3C//DTD SVG 1.1//EN"
 "http://www.w3.org/Graphics/SVG/1.1/DTD/svg11.dtd">
<!-- Generated by graphviz version 2.43.0 (0)
 -->
<!-- Title: fl/vector.h Pages: 1 -->
<!--zoomable 522 -->

<svg id="main" version="1.1" xmlns="http://www.w3.org/2000/svg" xmlns:xlink="http://www.w3.org/1999/xlink" xml:space="preserve" onload="init(evt)">

<style type="text/css"><![CDATA[
.node, .edge {opacity: 0.7;}
.node.selected, .edge.selected {opacity: 1;}
.edge:hover path { stroke: red; }
.edge:hover polygon { stroke: red; fill: red; }
]]></style>

<defs>
  <circle id="rim" cx="0" cy="0" r="7"/>
  <circle id="rim2" cx="0" cy="0" r="3.5"/>
  <g id="zoomPlus">
    <use xlink:href="#rim" fill="#404040"><set attributeName="fill" to="#808080" begin="zoomplus.mouseover" end="zoomplus.mouseout"/></use>
    <path d="M-4,0h8M0,-4v8" fill="none" stroke="white" stroke-width="1.5" pointer-events="none"/>
  </g>
  <g id="zoomMin">
    <use xlink:href="#rim" fill="#404040"><set attributeName="fill" to="#808080" begin="zoomminus.mouseover" end="zoomminus.mouseout"/></use>
    <path d="M-4,0h8" fill="none" stroke="white" stroke-width="1.5" pointer-events="none"/>
  </g>
  <g id="arrowUp" transform="translate(30 24)">
    <use xlink:href="#rim"/>
    <path pointer-events="none" fill="none" stroke="white" stroke-width="1.5" d="M0,-3.0v7 M-2.5,-0.5L0,-3.0L2.5,-0.5"/>
  </g>
  <g id="arrowRight" transform="rotate(90) translate(36 -43)">
    <use xlink:href="#rim"/>
    <path pointer-events="none" fill="none" stroke="white" stroke-width="1.5" d="M0,-3.0v7 M-2.5,-0.5L0,-3.0L2.5,-0.5"/>
  </g>
  <g id="arrowDown" transform="rotate(180) translate(-30 -48)">
    <use xlink:href="#rim"/>
    <path pointer-events="none" fill="none" stroke="white" stroke-width="1.5" d="M0,-3.0v7 M-2.5,-0.5L0,-3.0L2.5,-0.5"/>
  </g>
  <g id="arrowLeft" transform="rotate(270) translate(-36 17)">
    <use xlink:href="#rim"/>
    <path pointer-events="none" fill="none" stroke="white" stroke-width="1.5" d="M0,-3.0v7 M-2.5,-0.5L0,-3.0L2.5,-0.5"/>
  </g>
  <g id="resetDef">
    <use xlink:href="#rim2" fill="#404040"><set attributeName="fill" to="#808080" begin="reset.mouseover" end="reset.mouseout"/></use>
  </g>
</defs>
<script type="application/ecmascript">
var viewWidth = 1297;
var viewHeight = 522;
var sectionId = 'dynsection-0';
</script>
<script type="application/ecmascript" xlink:href="../../svg.min.js"/>
<svg id="graph" class="graph">
<g id="viewport">
<title>fl/vector.h</title>
<!-- Node1 -->
<g id="Node000001" class="node">
<title>Node1</title>
<g id="a_Node000001"><a xlink:title=" ">
<polygon fill="#999999" stroke="#666666" points="561.5,-514 496.5,-514 496.5,-495 561.5,-495 561.5,-514"/>
<text text-anchor="middle" x="529" y="-502" font-family="Helvetica,sans-Serif" font-size="10.00">fl/vector.h</text>
</a>
</g>
</g>
<!-- Node2 -->
<g id="Node000002" class="node">
<title>Node2</title>
<g id="a_Node000002"><a xlink:href="../../df/dd8/stdint_8h.html" target="_top" xlink:title=" ">
<polygon fill="white" stroke="#666666" points="1133,-74 1071,-74 1071,-55 1133,-55 1133,-74"/>
<text text-anchor="middle" x="1102" y="-62" font-family="Helvetica,sans-Serif" font-size="10.00">fl/stdint.h</text>
</a>
</g>
</g>
<!-- Node1&#45;&gt;Node2 -->
<g id="edge1_Node000001_Node000002" class="edge">
<title>Node1&#45;&gt;Node2</title>
<g id="a_edge1_Node000001_Node000002"><a xlink:title=" ">
<path fill="none" stroke="#63b8ff" d="M561.73,-503.7C697.64,-504.25 1213.01,-503.36 1269,-459 1292.09,-440.71 1288,-424.96 1288,-395.5 1288,-395.5 1288,-395.5 1288,-173.5 1288,-107.02 1198.05,-80.78 1143.26,-70.95"/>
<polygon fill="#63b8ff" stroke="#63b8ff" points="1143.57,-67.46 1133.13,-69.25 1142.41,-74.36 1143.57,-67.46"/>
</a>
</g>
</g>
<!-- Node4 -->
<g id="Node000004" class="node">
<title>Node4</title>
<g id="a_Node000004"><a xlink:href="../../d3/d7e/int_8h.html" target="_top" xlink:title=" ">
<polygon fill="white" stroke="#666666" points="1014.5,-129 967.5,-129 967.5,-110 1014.5,-110 1014.5,-129"/>
<text text-anchor="middle" x="991" y="-117" font-family="Helvetica,sans-Serif" font-size="10.00">fl/int.h</text>
</a>
</g>
</g>
<!-- Node1&#45;&gt;Node4 -->
<g id="edge4_Node000001_Node000004" class="edge">
<title>Node1&#45;&gt;Node4</title>
<g id="a_edge4_Node000001_Node000004"><a xlink:title=" ">
<path fill="none" stroke="#63b8ff" d="M561.81,-503.44C673.04,-502.36 1029,-491.41 1029,-395.5 1029,-395.5 1029,-395.5 1029,-228.5 1029,-195.02 1012.55,-158.84 1001.3,-138.01"/>
<polygon fill="#63b8ff" stroke="#63b8ff" points="1004.24,-136.1 996.28,-129.1 998.13,-139.53 1004.24,-136.1"/>
</a>
</g>
</g>
<!-- Node6 -->
<g id="Node000006" class="node">
<title>Node6</title>
<g id="a_Node000006"><a xlink:href="../../da/d66/string_8h.html" target="_top" xlink:title=" ">
<polygon fill="white" stroke="#666666" points="533.5,-349 480.5,-349 480.5,-330 533.5,-330 533.5,-349"/>
<text text-anchor="middle" x="507" y="-337" font-family="Helvetica,sans-Serif" font-size="10.00">string.h</text>
</a>
</g>
</g>
<!-- Node1&#45;&gt;Node6 -->
<g id="edge7_Node000001_Node000006" class="edge">
<title>Node1&#45;&gt;Node6</title>
<g id="a_edge7_Node000001_Node000006"><a xlink:title=" ">
<path fill="none" stroke="#63b8ff" d="M527.82,-494.74C524.37,-469.2 514.28,-394.43 509.53,-359.23"/>
<polygon fill="#63b8ff" stroke="#63b8ff" points="512.99,-358.75 508.19,-349.31 506.06,-359.69 512.99,-358.75"/>
</a>
</g>
</g>
<!-- Node14 -->
<g id="Node000014" class="node">
<title>Node14</title>
<g id="a_Node000014"><a xlink:href="../../d8/db8/math__macros_8h.html" target="_top" xlink:title=" ">
<polygon fill="#fff0f0" stroke="red" points="402.5,-239 301.5,-239 301.5,-220 402.5,-220 402.5,-239"/>
<text text-anchor="middle" x="352" y="-227" font-family="Helvetica,sans-Serif" font-size="10.00">fl/math_macros.h</text>
</a>
</g>
</g>
<!-- Node1&#45;&gt;Node14 -->
<g id="edge34_Node000001_Node000014" class="edge">
<title>Node1&#45;&gt;Node14</title>
<g id="a_edge34_Node000001_Node000014"><a xlink:title=" ">
<path fill="none" stroke="#63b8ff" d="M496.05,-502.68C432.45,-499.16 299,-481.52 299,-395.5 299,-395.5 299,-395.5 299,-338.5 299,-303.02 322.33,-267.08 338.04,-246.9"/>
<polygon fill="#63b8ff" stroke="#63b8ff" points="340.83,-249.01 344.41,-239.04 335.39,-244.61 340.83,-249.01"/>
</a>
</g>
</g>
<!-- Node16 -->
<g id="Node000016" class="node">
<title>Node16</title>
<g id="a_Node000016"><a xlink:href="../../df/d63/type__traits_8h.html" target="_top" xlink:title=" ">
<polygon fill="#fff0f0" stroke="red" points="474.5,-184 387.5,-184 387.5,-165 474.5,-165 474.5,-184"/>
<text text-anchor="middle" x="431" y="-172" font-family="Helvetica,sans-Serif" font-size="10.00">fl/type_traits.h</text>
</a>
</g>
</g>
<!-- Node1&#45;&gt;Node16 -->
<g id="edge48_Node000001_Node000016" class="edge">
<title>Node1&#45;&gt;Node16</title>
<g id="a_edge48_Node000001_Node000016"><a xlink:title=" ">
<path fill="none" stroke="#63b8ff" d="M496.47,-501.58C434.3,-497.36 301.53,-485.43 265,-459 197.83,-410.41 197.92,-374.47 178,-294 169.66,-260.3 175.76,-241.52 203,-220 229.42,-199.13 318.37,-186.55 377.05,-180.33"/>
<polygon fill="#63b8ff" stroke="#63b8ff" points="377.68,-183.78 387.27,-179.28 376.96,-176.82 377.68,-183.78"/>
</a>
</g>
</g>
<!-- Node17 -->
<g id="Node000017" class="node">
<title>Node17</title>
<g id="a_Node000017"><a xlink:href="../../df/d2a/namespace_8h.html" target="_top" xlink:title="Implements the FastLED namespace macros.">
<polygon fill="white" stroke="#666666" points="263.5,-129 172.5,-129 172.5,-110 263.5,-110 263.5,-129"/>
<text text-anchor="middle" x="218" y="-117" font-family="Helvetica,sans-Serif" font-size="10.00">fl/namespace.h</text>
</a>
</g>
</g>
<!-- Node1&#45;&gt;Node17 -->
<g id="edge38_Node000001_Node000017" class="edge">
<title>Node1&#45;&gt;Node17</title>
<g id="a_edge38_Node000001_Node000017"><a xlink:title=" ">
<path fill="none" stroke="#63b8ff" d="M496.31,-503.82C380.97,-504.1 0,-497.32 0,-395.5 0,-395.5 0,-395.5 0,-228.5 0,-156.13 97.65,-132.26 162.24,-124.38"/>
<polygon fill="#63b8ff" stroke="#63b8ff" points="162.75,-127.84 172.3,-123.25 161.97,-120.89 162.75,-127.84"/>
</a>
</g>
</g>
<!-- Node48 -->
<g id="Node000048" class="node">
<title>Node48</title>
<g id="a_Node000048"><a xlink:href="../../d8/dea/functional_8h.html" target="_top" xlink:title=" ">
<polygon fill="white" stroke="#666666" points="270.5,-294 187.5,-294 187.5,-275 270.5,-275 270.5,-294"/>
<text text-anchor="middle" x="229" y="-282" font-family="Helvetica,sans-Serif" font-size="10.00">fl/functional.h</text>
</a>
</g>
</g>
<!-- Node1&#45;&gt;Node48 -->
<g id="edge27_Node000001_Node000048" class="edge">
<title>Node1&#45;&gt;Node48</title>
<g id="a_edge27_Node000001_Node000048"><a xlink:title=" ">
<path fill="none" stroke="#63b8ff" d="M496.24,-501.62C437.16,-497.59 316.01,-486.17 285,-459 239.03,-418.72 230.55,-340.49 229.16,-304.48"/>
<polygon fill="#63b8ff" stroke="#63b8ff" points="232.65,-304.29 228.91,-294.37 225.65,-304.45 232.65,-304.29"/>
</a>
</g>
</g>
<!-- Node25 -->
<g id="Node000025" class="node">
<title>Node25</title>
<g id="a_Node000025"><a xlink:href="../../d6/d23/initializer__list_8h.html" target="_top" xlink:title=" ">
<polygon fill="#fff0f0" stroke="red" points="129.5,-349 28.5,-349 28.5,-330 129.5,-330 129.5,-349"/>
<text text-anchor="middle" x="79" y="-337" font-family="Helvetica,sans-Serif" font-size="10.00">fl/initializer_list.h</text>
</a>
</g>
</g>
<!-- Node1&#45;&gt;Node25 -->
<g id="edge31_Node000001_Node000025" class="edge">
<title>Node1&#45;&gt;Node25</title>
<g id="a_edge31_Node000001_Node000025"><a xlink:title=" ">
<path fill="none" stroke="#63b8ff" d="M496.36,-503.49C414.2,-502.88 201.3,-497.54 144,-459 108.75,-435.29 90.85,-385.84 83.39,-358.93"/>
<polygon fill="#63b8ff" stroke="#63b8ff" points="86.77,-358.02 80.88,-349.21 79.99,-359.77 86.77,-358.02"/>
</a>
</g>
</g>
<!-- Node49 -->
<g id="Node000049" class="node">
<title>Node49</title>
<g id="a_Node000049"><a xlink:href="../../d1/d22/insert__result_8h.html" target="_top" xlink:title=" ">
<polygon fill="white" stroke="#666666" points="652.5,-459 557.5,-459 557.5,-440 652.5,-440 652.5,-459"/>
<text text-anchor="middle" x="605" y="-447" font-family="Helvetica,sans-Serif" font-size="10.00">fl/insert_result.h</text>
</a>
</g>
</g>
<!-- Node1&#45;&gt;Node49 -->
<g id="edge33_Node000001_Node000049" class="edge">
<title>Node1&#45;&gt;Node49</title>
<g id="a_edge33_Node000001_Node000049"><a xlink:title=" ">
<path fill="none" stroke="#63b8ff" d="M541.21,-494.98C552.78,-486.92 570.38,-474.65 584.16,-465.03"/>
<polygon fill="#63b8ff" stroke="#63b8ff" points="586.37,-467.76 592.57,-459.17 582.36,-462.02 586.37,-467.76"/>
</a>
</g>
</g>
<!-- Node31 -->
<g id="Node000031" class="node">
<title>Node31</title>
<g id="a_Node000031"><a xlink:href="../../d0/dda/memfill_8h.html" target="_top" xlink:title=" ">
<polygon fill="white" stroke="#666666" points="403,-404 331,-404 331,-385 403,-385 403,-404"/>
<text text-anchor="middle" x="367" y="-392" font-family="Helvetica,sans-Serif" font-size="10.00">fl/memfill.h</text>
</a>
</g>
</g>
<!-- Node1&#45;&gt;Node31 -->
<g id="edge35_Node000001_Node000031" class="edge">
<title>Node1&#45;&gt;Node31</title>
<g id="a_edge35_Node000001_Node000031"><a xlink:title=" ">
<path fill="none" stroke="#63b8ff" d="M496.3,-496.13C471.84,-489.43 438.51,-477.69 414,-459 397.69,-446.57 384.4,-427 376.17,-412.87"/>
<polygon fill="#63b8ff" stroke="#63b8ff" points="379.22,-411.15 371.3,-404.11 373.1,-414.55 379.22,-411.15"/>
</a>
</g>
</g>
<!-- Node28 -->
<g id="Node000028" class="node">
<title>Node28</title>
<g id="a_Node000028"><a xlink:href="../../da/da9/allocator_8h.html" target="_top" xlink:title=" ">
<polygon fill="#fff0f0" stroke="red" points="500.5,-459 423.5,-459 423.5,-440 500.5,-440 500.5,-459"/>
<text text-anchor="middle" x="462" y="-447" font-family="Helvetica,sans-Serif" font-size="10.00">fl/allocator.h</text>
</a>
</g>
</g>
<!-- Node1&#45;&gt;Node28 -->
<g id="edge39_Node000001_Node000028" class="edge">
<title>Node1&#45;&gt;Node28</title>
<g id="a_edge39_Node000001_Node000028"><a xlink:title=" ">
<path fill="none" stroke="#63b8ff" d="M518.24,-494.98C508.23,-487.07 493.11,-475.11 481.07,-465.58"/>
<polygon fill="#63b8ff" stroke="#63b8ff" points="482.97,-462.63 472.96,-459.17 478.63,-468.12 482.97,-462.63"/>
</a>
</g>
</g>
<!-- Node30 -->
<g id="Node000030" class="node">
<title>Node30</title>
<g id="a_Node000030"><a xlink:href="../../db/d36/inplacenew_8h.html" target="_top" xlink:title=" ">
<polygon fill="white" stroke="#666666" points="1146.5,-184 1057.5,-184 1057.5,-165 1146.5,-165 1146.5,-184"/>
<text text-anchor="middle" x="1102" y="-172" font-family="Helvetica,sans-Serif" font-size="10.00">fl/inplacenew.h</text>
</a>
</g>
</g>
<!-- Node1&#45;&gt;Node30 -->
<g id="edge49_Node000001_Node000030" class="edge">
<title>Node1&#45;&gt;Node30</title>
<g id="a_edge49_Node000001_Node000030"><a xlink:title=" ">
<path fill="none" stroke="#63b8ff" d="M561.56,-502.9C668.92,-500.63 1007,-490.96 1043,-459 1121.3,-389.5 1111.25,-245.47 1104.78,-194.16"/>
<polygon fill="#63b8ff" stroke="#63b8ff" points="1108.24,-193.61 1103.41,-184.18 1101.3,-194.56 1108.24,-193.61"/>
</a>
</g>
</g>
<!-- Node21 -->
<g id="Node000021" class="node">
<title>Node21</title>
<g id="a_Node000021"><a xlink:href="../../d0/d44/scoped__ptr_8h.html" target="_top" xlink:title=" ">
<polygon fill="#fff0f0" stroke="red" points="1182.5,-459 1095.5,-459 1095.5,-440 1182.5,-440 1182.5,-459"/>
<text text-anchor="middle" x="1139" y="-447" font-family="Helvetica,sans-Serif" font-size="10.00">fl/scoped_ptr.h</text>
</a>
</g>
</g>
<!-- Node1&#45;&gt;Node21 -->
<g id="edge47_Node000001_Node000021" class="edge">
<title>Node1&#45;&gt;Node21</title>
<g id="a_edge47_Node000001_Node000021"><a xlink:title=" ">
<path fill="none" stroke="#63b8ff" d="M561.74,-501.61C647.27,-496.5 884.44,-481.3 1081,-459 1082.45,-458.84 1083.93,-458.66 1085.41,-458.48"/>
<polygon fill="#63b8ff" stroke="#63b8ff" points="1085.86,-461.95 1095.34,-457.21 1084.97,-455.01 1085.86,-461.95"/>
</a>
</g>
</g>
<!-- Node43 -->
<g id="Node000043" class="node">
<title>Node43</title>
<g id="a_Node000043"><a xlink:href="../../d1/ddf/align_8h.html" target="_top" xlink:title=" ">
<polygon fill="white" stroke="#666666" points="1259.5,-459 1200.5,-459 1200.5,-440 1259.5,-440 1259.5,-459"/>
<text text-anchor="middle" x="1230" y="-447" font-family="Helvetica,sans-Serif" font-size="10.00">fl/align.h</text>
</a>
</g>
</g>
<!-- Node1&#45;&gt;Node43 -->
<g id="edge50_Node000001_Node000043" class="edge">
<title>Node1&#45;&gt;Node43</title>
<g id="a_edge50_Node000001_Node000043"><a xlink:title=" ">
<path fill="none" stroke="#63b8ff" d="M561.61,-503.07C656.98,-501.46 943.67,-493.95 1189.99,-459.08"/>
<polygon fill="#63b8ff" stroke="#63b8ff" points="1190.81,-462.5 1200.21,-457.62 1189.81,-455.57 1190.81,-462.5"/>
</a>
</g>
</g>
<!-- Node2&#45;&gt;Node2 -->
<g id="edge3_Node000002_Node000002" class="edge">
<title>Node2&#45;&gt;Node2</title>
<g id="a_edge3_Node000002_Node000002"><a xlink:title=" ">
<path fill="none" stroke="#63b8ff" d="M1124.94,-74.03C1138.4,-76.06 1151,-72.88 1151,-64.5 1151,-58.28 1144.06,-54.92 1134.98,-54.44"/>
<polygon fill="#63b8ff" stroke="#63b8ff" points="1134.74,-50.94 1124.94,-54.97 1135.11,-57.93 1134.74,-50.94"/>
</a>
</g>
</g>
<!-- Node3 -->
<g id="Node000003" class="node">
<title>Node3</title>
<g id="a_Node000003"><a xlink:title=" ">
<polygon fill="#e0e0e0" stroke="#999999" points="1130,-19 1074,-19 1074,0 1130,0 1130,-19"/>
<text text-anchor="middle" x="1102" y="-7" font-family="Helvetica,sans-Serif" font-size="10.00">stddef.h</text>
</a>
</g>
</g>
<!-- Node2&#45;&gt;Node3 -->
<g id="edge2_Node000002_Node000003" class="edge">
<title>Node2&#45;&gt;Node3</title>
<g id="a_edge2_Node000002_Node000003"><a xlink:title=" ">
<path fill="none" stroke="#63b8ff" d="M1102,-54.75C1102,-47.8 1102,-37.85 1102,-29.13"/>
<polygon fill="#63b8ff" stroke="#63b8ff" points="1105.5,-29.09 1102,-19.09 1098.5,-29.09 1105.5,-29.09"/>
</a>
</g>
</g>
<!-- Node4&#45;&gt;Node2 -->
<g id="edge5_Node000004_Node000002" class="edge">
<title>Node4&#45;&gt;Node2</title>
<g id="a_edge5_Node000004_Node000002"><a xlink:title=" ">
<path fill="none" stroke="#63b8ff" d="M1008.83,-109.98C1026.61,-101.5 1054.15,-88.35 1074.68,-78.54"/>
<polygon fill="#63b8ff" stroke="#63b8ff" points="1076.33,-81.64 1083.84,-74.17 1073.31,-75.32 1076.33,-81.64"/>
</a>
</g>
</g>
<!-- Node5 -->
<g id="Node000005" class="node">
<title>Node5</title>
<g id="a_Node000005"><a xlink:title=" ">
<polygon fill="#e0e0e0" stroke="#999999" points="1035.5,-74 946.5,-74 946.5,-55 1035.5,-55 1035.5,-74"/>
<text text-anchor="middle" x="991" y="-62" font-family="Helvetica,sans-Serif" font-size="10.00">platforms/int.h</text>
</a>
</g>
</g>
<!-- Node4&#45;&gt;Node5 -->
<g id="edge6_Node000004_Node000005" class="edge">
<title>Node4&#45;&gt;Node5</title>
<g id="a_edge6_Node000004_Node000005"><a xlink:title=" ">
<path fill="none" stroke="#63b8ff" d="M991,-109.75C991,-102.8 991,-92.85 991,-84.13"/>
<polygon fill="#63b8ff" stroke="#63b8ff" points="994.5,-84.09 991,-74.09 987.5,-84.09 994.5,-84.09"/>
</a>
</g>
</g>
<!-- Node7 -->
<g id="Node000007" class="node">
<title>Node7</title>
<g id="a_Node000007"><a xlink:href="../../d1/d93/str_8h.html" target="_top" xlink:title=" ">
<polygon fill="white" stroke="#666666" points="719.5,-294 672.5,-294 672.5,-275 719.5,-275 719.5,-294"/>
<text text-anchor="middle" x="696" y="-282" font-family="Helvetica,sans-Serif" font-size="10.00">fl/str.h</text>
</a>
</g>
</g>
<!-- Node6&#45;&gt;Node7 -->
<g id="edge8_Node000006_Node000007" class="edge">
<title>Node6&#45;&gt;Node7</title>
<g id="a_edge8_Node000006_Node000007"><a xlink:title=" ">
<path fill="none" stroke="#63b8ff" d="M532.25,-329.98C565.9,-319.93 625.13,-303.33 662.47,-293.5"/>
<polygon fill="#63b8ff" stroke="#63b8ff" points="663.59,-296.83 672.38,-290.92 661.82,-290.05 663.59,-296.83"/>
</a>
</g>
</g>
<!-- Node7&#45;&gt;Node1 -->
<g id="edge24_Node000007_Node000001" class="edge">
<title>Node7&#45;&gt;Node1</title>
<g id="a_edge24_Node000007_Node000001"><a xlink:title=" ">
<path fill="none" stroke="#63b8ff" d="M697.03,-294.38C699.77,-322.39 704.27,-409.89 661,-459 638.54,-484.48 601,-495.4 571.68,-500.06"/>
<polygon fill="#63b8ff" stroke="#63b8ff" points="571.11,-496.61 561.69,-501.46 572.08,-503.54 571.11,-496.61"/>
</a>
</g>
</g>
<!-- Node7&#45;&gt;Node4 -->
<g id="edge9_Node000007_Node000004" class="edge">
<title>Node7&#45;&gt;Node4</title>
<g id="a_edge9_Node000007_Node000004"><a xlink:title=" ">
<path fill="none" stroke="#63b8ff" d="M719.87,-283.11C780.24,-281.59 936.75,-274.28 972,-239 998.3,-212.68 997.15,-165.42 994.05,-139.24"/>
<polygon fill="#63b8ff" stroke="#63b8ff" points="997.49,-138.55 992.63,-129.14 990.56,-139.53 997.49,-138.55"/>
</a>
</g>
</g>
<!-- Node7&#45;&gt;Node6 -->
<g id="edge10_Node000007_Node000006" class="edge">
<title>Node7&#45;&gt;Node6</title>
<g id="a_edge10_Node000007_Node000006"><a xlink:title=" ">
<path fill="none" stroke="#63b8ff" d="M672.33,-293.54C639.77,-303.31 581.3,-319.72 543.25,-329.78"/>
<polygon fill="#63b8ff" stroke="#63b8ff" points="542.36,-326.4 533.57,-332.32 544.14,-333.17 542.36,-326.4"/>
</a>
</g>
</g>
<!-- Node8 -->
<g id="Node000008" class="node">
<title>Node8</title>
<g id="a_Node000008"><a xlink:href="../../d4/d67/geometry_8h.html" target="_top" xlink:title=" ">
<polygon fill="#fff0f0" stroke="red" points="885,-184 805,-184 805,-165 885,-165 885,-184"/>
<text text-anchor="middle" x="845" y="-172" font-family="Helvetica,sans-Serif" font-size="10.00">fl/geometry.h</text>
</a>
</g>
</g>
<!-- Node7&#45;&gt;Node8 -->
<g id="edge11_Node000007_Node000008" class="edge">
<title>Node7&#45;&gt;Node8</title>
<g id="a_edge11_Node000007_Node000008"><a xlink:title=" ">
<path fill="none" stroke="#63b8ff" d="M707.94,-274.84C733.33,-256.44 792.94,-213.23 824.53,-190.34"/>
<polygon fill="#63b8ff" stroke="#63b8ff" points="826.96,-192.9 833,-184.2 822.85,-187.23 826.96,-192.9"/>
</a>
</g>
</g>
<!-- Node7&#45;&gt;Node14 -->
<g id="edge13_Node000007_Node000014" class="edge">
<title>Node7&#45;&gt;Node14</title>
<g id="a_edge13_Node000007_Node000014"><a xlink:title=" ">
<path fill="none" stroke="#63b8ff" d="M672.36,-279.86C619.4,-271.7 489.9,-251.75 412.73,-239.86"/>
<polygon fill="#63b8ff" stroke="#63b8ff" points="413.08,-236.37 402.67,-238.31 412.02,-243.29 413.08,-236.37"/>
</a>
</g>
</g>
<!-- Node7&#45;&gt;Node16 -->
<g id="edge23_Node000007_Node000016" class="edge">
<title>Node7&#45;&gt;Node16</title>
<g id="a_edge23_Node000007_Node000016"><a xlink:title=" ">
<path fill="none" stroke="#63b8ff" d="M702.18,-274.57C710.63,-261.13 723.34,-235.63 710,-220 681.67,-186.79 557.85,-178.25 485.03,-176.13"/>
<polygon fill="#63b8ff" stroke="#63b8ff" points="484.76,-172.62 474.68,-175.86 484.58,-179.62 484.76,-172.62"/>
</a>
</g>
</g>
<!-- Node7&#45;&gt;Node17 -->
<g id="edge19_Node000007_Node000017" class="edge">
<title>Node7&#45;&gt;Node17</title>
<g id="a_edge19_Node000007_Node000017"><a xlink:title=" ">
<path fill="none" stroke="#63b8ff" d="M680.89,-274.91C634.03,-248.29 493.63,-168.73 483,-165 413.31,-140.58 328.48,-129.34 273.88,-124.33"/>
<polygon fill="#63b8ff" stroke="#63b8ff" points="273.98,-120.82 263.71,-123.43 273.37,-127.8 273.98,-120.82"/>
</a>
</g>
</g>
<!-- Node19 -->
<g id="Node000019" class="node">
<title>Node19</title>
<g id="a_Node000019"><a xlink:href="../../dc/d18/memory_8h.html" target="_top" xlink:title=" ">
<polygon fill="#fff0f0" stroke="red" points="571,-239 497,-239 497,-220 571,-220 571,-239"/>
<text text-anchor="middle" x="534" y="-227" font-family="Helvetica,sans-Serif" font-size="10.00">fl/memory.h</text>
</a>
</g>
</g>
<!-- Node7&#45;&gt;Node19 -->
<g id="edge20_Node000007_Node000019" class="edge">
<title>Node7&#45;&gt;Node19</title>
<g id="a_edge20_Node000007_Node000019"><a xlink:title=" ">
<path fill="none" stroke="#63b8ff" d="M672.44,-275.79C645.44,-266.96 600.89,-252.38 569.64,-242.16"/>
<polygon fill="#63b8ff" stroke="#63b8ff" points="570.59,-238.79 560,-239.01 568.42,-245.44 570.59,-238.79"/>
</a>
</g>
</g>
<!-- Node45 -->
<g id="Node000045" class="node">
<title>Node45</title>
<g id="a_Node000045"><a xlink:href="../../dc/d62/optional_8h.html" target="_top" xlink:title=" ">
<polygon fill="#fff0f0" stroke="red" points="701,-239 627,-239 627,-220 701,-220 701,-239"/>
<text text-anchor="middle" x="664" y="-227" font-family="Helvetica,sans-Serif" font-size="10.00">fl/optional.h</text>
</a>
</g>
</g>
<!-- Node7&#45;&gt;Node45 -->
<g id="edge22_Node000007_Node000045" class="edge">
<title>Node7&#45;&gt;Node45</title>
<g id="a_edge22_Node000007_Node000045"><a xlink:title=" ">
<path fill="none" stroke="#63b8ff" d="M690.72,-274.75C686.29,-267.42 679.84,-256.73 674.38,-247.7"/>
<polygon fill="#63b8ff" stroke="#63b8ff" points="677.35,-245.84 669.19,-239.09 671.36,-249.46 677.35,-245.84"/>
</a>
</g>
</g>
<!-- Node46 -->
<g id="Node000046" class="node">
<title>Node46</title>
<g id="a_Node000046"><a xlink:href="../../d4/d7a/span_8h.html" target="_top" xlink:title=" ">
<polygon fill="#fff0f0" stroke="red" points="853,-239 795,-239 795,-220 853,-220 853,-239"/>
<text text-anchor="middle" x="824" y="-227" font-family="Helvetica,sans-Serif" font-size="10.00">fl/span.h</text>
</a>
</g>
</g>
<!-- Node7&#45;&gt;Node46 -->
<g id="edge25_Node000007_Node000046" class="edge">
<title>Node7&#45;&gt;Node46</title>
<g id="a_edge25_Node000007_Node000046"><a xlink:title=" ">
<path fill="none" stroke="#63b8ff" d="M716.57,-274.98C737.43,-266.34 769.97,-252.87 793.77,-243.02"/>
<polygon fill="#63b8ff" stroke="#63b8ff" points="795.16,-246.23 803.06,-239.17 792.48,-239.76 795.16,-246.23"/>
</a>
</g>
</g>
<!-- Node12 -->
<g id="Node000012" class="node">
<title>Node12</title>
<g id="a_Node000012"><a xlink:href="../../d4/d64/force__inline_8h.html" target="_top" xlink:title=" ">
<polygon fill="white" stroke="#666666" points="963,-239 871,-239 871,-220 963,-220 963,-239"/>
<text text-anchor="middle" x="917" y="-227" font-family="Helvetica,sans-Serif" font-size="10.00">fl/force_inline.h</text>
</a>
</g>
</g>
<!-- Node7&#45;&gt;Node12 -->
<g id="edge26_Node000007_Node000012" class="edge">
<title>Node7&#45;&gt;Node12</title>
<g id="a_edge26_Node000007_Node000012"><a xlink:title=" ">
<path fill="none" stroke="#63b8ff" d="M719.65,-277.83C755.86,-269.15 825.66,-252.4 871.8,-241.34"/>
<polygon fill="#63b8ff" stroke="#63b8ff" points="872.64,-244.74 881.55,-239 871.01,-237.93 872.64,-244.74"/>
</a>
</g>
</g>
<!-- Node8&#45;&gt;Node4 -->
<g id="edge12_Node000008_Node000004" class="edge">
<title>Node8&#45;&gt;Node4</title>
<g id="a_edge12_Node000008_Node000004"><a xlink:title=" ">
<path fill="none" stroke="#63b8ff" d="M868.46,-164.98C892.58,-156.23 930.37,-142.51 957.6,-132.62"/>
<polygon fill="#63b8ff" stroke="#63b8ff" points="958.91,-135.87 967.12,-129.17 956.52,-129.29 958.91,-135.87"/>
</a>
</g>
</g>
<!-- Node14&#45;&gt;Node16 -->
<g id="edge14_Node000014_Node000016" class="edge">
<title>Node14&#45;&gt;Node16</title>
<g id="a_edge14_Node000014_Node000016"><a xlink:title=" ">
<path fill="none" stroke="#63b8ff" d="M364.69,-219.98C376.83,-211.84 395.36,-199.41 409.75,-189.76"/>
<polygon fill="#63b8ff" stroke="#63b8ff" points="411.72,-192.65 418.08,-184.17 407.82,-186.84 411.72,-192.65"/>
</a>
</g>
</g>
<!-- Node16&#45;&gt;Node2 -->
<g id="edge16_Node000016_Node000002" class="edge">
<title>Node16&#45;&gt;Node2</title>
<g id="a_edge16_Node000016_Node000002"><a xlink:title=" ">
<path fill="none" stroke="#63b8ff" d="M474.51,-166.5C596.57,-146.85 941.1,-91.4 1060.58,-72.17"/>
<polygon fill="#63b8ff" stroke="#63b8ff" points="1061.46,-75.57 1070.77,-70.53 1060.35,-68.66 1061.46,-75.57"/>
</a>
</g>
</g>
<!-- Node16&#45;&gt;Node4 -->
<g id="edge18_Node000016_Node000004" class="edge">
<title>Node16&#45;&gt;Node4</title>
<g id="a_edge18_Node000016_Node000004"><a xlink:title=" ">
<path fill="none" stroke="#63b8ff" d="M474.94,-169.34C583.17,-159.1 860.81,-132.82 957.33,-123.69"/>
<polygon fill="#63b8ff" stroke="#63b8ff" points="957.78,-127.16 967.4,-122.73 957.12,-120.19 957.78,-127.16"/>
</a>
</g>
</g>
<!-- Node16&#45;&gt;Node6 -->
<g id="edge15_Node000016_Node000006" class="edge">
<title>Node16&#45;&gt;Node6</title>
<g id="a_edge15_Node000016_Node000006"><a xlink:title=" ">
<path fill="none" stroke="#63b8ff" d="M435.11,-184.31C447.09,-210.01 482.21,-285.32 498.51,-320.28"/>
<polygon fill="#63b8ff" stroke="#63b8ff" points="495.52,-322.15 502.91,-329.74 501.86,-319.19 495.52,-322.15"/>
</a>
</g>
</g>
<!-- Node16&#45;&gt;Node17 -->
<g id="edge17_Node000016_Node000017" class="edge">
<title>Node16&#45;&gt;Node17</title>
<g id="a_edge17_Node000016_Node000017"><a xlink:title=" ">
<path fill="none" stroke="#63b8ff" d="M396.78,-164.98C360.24,-155.89 302.22,-141.46 262.24,-131.51"/>
<polygon fill="#63b8ff" stroke="#63b8ff" points="263.04,-128.1 252.49,-129.08 261.35,-134.89 263.04,-128.1"/>
</a>
</g>
</g>
<!-- Node19&#45;&gt;Node16 -->
<g id="edge21_Node000019_Node000016" class="edge">
<title>Node19&#45;&gt;Node16</title>
<g id="a_edge21_Node000019_Node000016"><a xlink:title=" ">
<path fill="none" stroke="#63b8ff" d="M517.45,-219.98C501.11,-211.57 475.87,-198.59 456.87,-188.81"/>
<polygon fill="#63b8ff" stroke="#63b8ff" points="458.34,-185.63 447.85,-184.17 455.14,-191.86 458.34,-185.63"/>
</a>
</g>
</g>
<!-- Node48&#45;&gt;Node16 -->
<g id="edge28_Node000048_Node000016" class="edge">
<title>Node48&#45;&gt;Node16</title>
<g id="a_edge28_Node000048_Node000016"><a xlink:title=" ">
<path fill="none" stroke="#63b8ff" d="M222.27,-274.68C212.99,-261.39 198.86,-236.08 212,-220 232.44,-194.99 318.93,-183.69 376.91,-178.84"/>
<polygon fill="#63b8ff" stroke="#63b8ff" points="377.33,-182.32 387.03,-178.04 376.78,-175.34 377.33,-182.32"/>
</a>
</g>
</g>
<!-- Node23 -->
<g id="Node000023" class="node">
<title>Node23</title>
<g id="a_Node000023"><a xlink:href="../../d5/d47/utility_8h.html" target="_top" xlink:title=" ">
<polygon fill="white" stroke="#666666" points="283,-239 221,-239 221,-220 283,-220 283,-239"/>
<text text-anchor="middle" x="252" y="-227" font-family="Helvetica,sans-Serif" font-size="10.00">fl/utility.h</text>
</a>
</g>
</g>
<!-- Node48&#45;&gt;Node23 -->
<g id="edge29_Node000048_Node000023" class="edge">
<title>Node48&#45;&gt;Node23</title>
<g id="a_edge29_Node000048_Node000023"><a xlink:title=" ">
<path fill="none" stroke="#63b8ff" d="M232.8,-274.75C235.91,-267.57 240.42,-257.18 244.29,-248.27"/>
<polygon fill="#63b8ff" stroke="#63b8ff" points="247.5,-249.66 248.27,-239.09 241.08,-246.87 247.5,-249.66"/>
</a>
</g>
</g>
<!-- Node23&#45;&gt;Node16 -->
<g id="edge30_Node000023_Node000016" class="edge">
<title>Node23&#45;&gt;Node16</title>
<g id="a_edge30_Node000023_Node000016"><a xlink:title=" ">
<path fill="none" stroke="#63b8ff" d="M280.76,-219.98C310.94,-211.05 358.57,-196.94 392.1,-187.02"/>
<polygon fill="#63b8ff" stroke="#63b8ff" points="393.42,-190.28 402.02,-184.08 391.43,-183.57 393.42,-190.28"/>
</a>
</g>
</g>
<!-- Node25&#45;&gt;Node17 -->
<g id="edge32_Node000025_Node000017" class="edge">
<title>Node25&#45;&gt;Node17</title>
<g id="a_edge32_Node000025_Node000017"><a xlink:title=" ">
<path fill="none" stroke="#63b8ff" d="M79.56,-329.82C81.11,-309.73 86.48,-258.82 103,-220 114.63,-192.66 119.16,-185.15 141,-165 155,-152.08 173.4,-141.28 188.69,-133.55"/>
<polygon fill="#63b8ff" stroke="#63b8ff" points="190.29,-136.67 197.75,-129.15 187.23,-130.37 190.29,-136.67"/>
</a>
</g>
</g>
<!-- Node31&#45;&gt;Node4 -->
<g id="edge37_Node000031_Node000004" class="edge">
<title>Node31&#45;&gt;Node4</title>
<g id="a_edge37_Node000031_Node000004"><a xlink:title=" ">
<path fill="none" stroke="#63b8ff" d="M330.74,-386.22C285.81,-375.05 211.15,-348.92 178,-294 163.46,-269.91 193.59,-228.32 203,-220 317.12,-119.03 821.53,-118.24 957.27,-119.91"/>
<polygon fill="#63b8ff" stroke="#63b8ff" points="957.42,-123.41 967.47,-120.05 957.52,-116.41 957.42,-123.41"/>
</a>
</g>
</g>
<!-- Node31&#45;&gt;Node6 -->
<g id="edge36_Node000031_Node000006" class="edge">
<title>Node31&#45;&gt;Node6</title>
<g id="a_edge36_Node000031_Node000006"><a xlink:title=" ">
<path fill="none" stroke="#63b8ff" d="M389.49,-384.98C412.52,-376.27 448.54,-362.63 474.63,-352.75"/>
<polygon fill="#63b8ff" stroke="#63b8ff" points="475.98,-355.98 484.1,-349.17 473.51,-349.44 475.98,-355.98"/>
</a>
</g>
</g>
<!-- Node28&#45;&gt;Node2 -->
<g id="edge46_Node000028_Node000002" class="edge">
<title>Node28&#45;&gt;Node2</title>
<g id="a_edge46_Node000028_Node000002"><a xlink:title=" ">
<path fill="none" stroke="#63b8ff" d="M500.79,-439.93C626.4,-411.61 1019.78,-318.33 1121,-239 1149.64,-216.56 1164.95,-200.26 1156,-165 1148.02,-133.57 1127.89,-101.32 1114.59,-82.36"/>
<polygon fill="#63b8ff" stroke="#63b8ff" points="1117.39,-80.25 1108.7,-74.19 1111.71,-84.35 1117.39,-80.25"/>
</a>
</g>
</g>
<!-- Node28&#45;&gt;Node6 -->
<g id="edge40_Node000028_Node000006" class="edge">
<title>Node28&#45;&gt;Node6</title>
<g id="a_edge40_Node000028_Node000006"><a xlink:title=" ">
<path fill="none" stroke="#63b8ff" d="M465.68,-439.66C473.04,-422.01 489.67,-382.09 499.44,-358.64"/>
<polygon fill="#63b8ff" stroke="#63b8ff" points="502.78,-359.74 503.39,-349.16 496.32,-357.04 502.78,-359.74"/>
</a>
</g>
</g>
<!-- Node28&#45;&gt;Node16 -->
<g id="edge45_Node000028_Node000016" class="edge">
<title>Node28&#45;&gt;Node16</title>
<g id="a_edge45_Node000028_Node000016"><a xlink:title=" ">
<path fill="none" stroke="#63b8ff" d="M457.69,-439.78C449.17,-421.73 431,-378.73 431,-340.5 431,-340.5 431,-340.5 431,-283.5 431,-252.19 431,-215.77 431,-194.23"/>
<polygon fill="#63b8ff" stroke="#63b8ff" points="434.5,-194.18 431,-184.18 427.5,-194.18 434.5,-194.18"/>
</a>
</g>
</g>
<!-- Node28&#45;&gt;Node31 -->
<g id="edge44_Node000028_Node000031" class="edge">
<title>Node28&#45;&gt;Node31</title>
<g id="a_edge44_Node000028_Node000031"><a xlink:title=" ">
<path fill="none" stroke="#63b8ff" d="M446.74,-439.98C431.87,-431.69 409.02,-418.94 391.58,-409.22"/>
<polygon fill="#63b8ff" stroke="#63b8ff" points="392.98,-405.99 382.54,-404.17 389.57,-412.1 392.98,-405.99"/>
</a>
</g>
</g>
<!-- Node28&#45;&gt;Node30 -->
<g id="edge41_Node000028_Node000030" class="edge">
<title>Node28&#45;&gt;Node30</title>
<g id="a_edge41_Node000028_Node000030"><a xlink:title=" ">
<path fill="none" stroke="#63b8ff" d="M487.4,-439.96C564.73,-413.64 803.57,-330.02 992,-239 1023.45,-223.81 1058.08,-203.11 1079.93,-189.53"/>
<polygon fill="#63b8ff" stroke="#63b8ff" points="1081.85,-192.46 1088.46,-184.19 1078.13,-186.53 1081.85,-192.46"/>
</a>
</g>
</g>
<!-- Node30&#45;&gt;Node2 -->
<g id="edge42_Node000030_Node000002" class="edge">
<title>Node30&#45;&gt;Node2</title>
<g id="a_edge42_Node000030_Node000002"><a xlink:title=" ">
<path fill="none" stroke="#63b8ff" d="M1102,-164.66C1102,-147.17 1102,-107.8 1102,-84.27"/>
<polygon fill="#63b8ff" stroke="#63b8ff" points="1105.5,-84.16 1102,-74.16 1098.5,-84.16 1105.5,-84.16"/>
</a>
</g>
</g>
<!-- Node30&#45;&gt;Node4 -->
<g id="edge43_Node000030_Node000004" class="edge">
<title>Node30&#45;&gt;Node4</title>
<g id="a_edge43_Node000030_Node000004"><a xlink:title=" ">
<path fill="none" stroke="#63b8ff" d="M1084.17,-164.98C1066.39,-156.5 1038.85,-143.35 1018.32,-133.54"/>
<polygon fill="#63b8ff" stroke="#63b8ff" points="1019.69,-130.32 1009.16,-129.17 1016.67,-136.64 1019.69,-130.32"/>
</a>
</g>
</g>
</g>
</svg>

<g id="navigator" transform="translate(0 0)" fill="#404254">
  <rect fill="#f2f5e9" fill-opacity="0.5" stroke="#606060" stroke-width=".5" x="0" y="0" width="60" height="60"/>
  <use id="zoomplus" xlink:href="#zoomPlus" x="17" y="9" onmousedown="handleZoom(evt,'in')"/>
  <use id="zoomminus" xlink:href="#zoomMin" x="42" y="9" onmousedown="handleZoom(evt,'out')"/>
  <use id="reset" xlink:href="#resetDef" x="30" y="36" onmousedown="handleReset()"/>
   <use id="arrowup" xlink:href="#arrowUp" x="0" y="0" onmousedown="handlePan(0,-1)"/>
  <use id="arrowright" xlink:href="#arrowRight" x="0" y="0" onmousedown="handlePan(1,0)"/>
  <use id="arrowdown" xlink:href="#arrowDown" x="0" y="0" onmousedown="handlePan(0,1)"/>
  <use id="arrowleft" xlink:href="#arrowLeft" x="0" y="0" onmousedown="handlePan(-1,0)"/>
</g>
<svg viewBox="0 0 15 15" width="100%" height="30px" preserveAspectRatio="xMaxYMin meet">
 <g id="arrow_out" transform="scale(0.3 0.3)">
  <a xlink:href="vector_8h__incl_org.svg" target="_base">
   <rect id="button" ry="5" rx="5" y="6" x="6" height="38" width="38"
        fill="#f2f5e9" fill-opacity="0.5" stroke="#606060" stroke-width="1.0"/>
   <path id="arrow"
     d="M 11.500037,31.436501 C 11.940474,20.09759 22.043105,11.32322 32.158766,21.979434 L 37.068811,17.246167 C 37.068811,17.246167 37.088388,32 37.088388,32 L 22.160133,31.978069 C 22.160133,31.978069 26.997745,27.140456 26.997745,27.140456 C 18.528582,18.264221 13.291696,25.230495 11.500037,31.436501 z"
     style="fill:#404040;"/>
  </a>
 </g>
</svg>

<style type='text/css'>
<![CDATA[
[data-mouse-over-selected='false'] { opacity: 0.7; }
[data-mouse-over-selected='true']  { opacity: 1.0; }
]]>
</style>
<script type="application/ecmascript"><![CDATA[
document.addEventListener('DOMContentLoaded', (event) => {
  highlightEdges();
  highlightAdjacentNodes();
});
]]></script>
</svg>
