<?xml version="1.0" encoding="UTF-8" standalone="no"?>
<!DOCTYPE svg PUBLIC "-//W3C//DTD SVG 1.1//EN"
 "http://www.w3.org/Graphics/SVG/1.1/DTD/svg11.dtd">
<!-- Generated by graphviz version 2.43.0 (0)
 -->
<!-- Title: fl/math/fixed_point/base.h Pages: 1 -->
<svg width="1814pt" height="324pt"
 viewBox="0.00 0.00 1813.50 324.00" xmlns="http://www.w3.org/2000/svg" xmlns:xlink="http://www.w3.org/1999/xlink">
<g id="graph0" class="graph" transform="scale(1 1) rotate(0) translate(4 320)">
<title>fl/math/fixed_point/base.h</title>
<!-- Node1 -->
<g id="Node000001" class="node">
<title>Node1</title>
<g id="a_Node000001"><a xlink:title=" ">
<polygon fill="#999999" stroke="#666666" points="1388.5,-316 1281.5,-316 1281.5,-286 1388.5,-286 1388.5,-316"/>
<text text-anchor="start" x="1289.5" y="-304" font-family="Helvetica,sans-Serif" font-size="10.00">fl/math/fixed_point</text>
<text text-anchor="middle" x="1335" y="-293" font-family="Helvetica,sans-Serif" font-size="10.00">/base.h</text>
</a>
</g>
</g>
<!-- Node2 -->
<g id="Node000002" class="node">
<title>Node2</title>
<g id="a_Node000002"><a xlink:href="../../d4/d54/compiler__control_8h.html" target="_top" xlink:title=" ">
<polygon fill="white" stroke="#666666" points="943.5,-184 812.5,-184 812.5,-165 943.5,-165 943.5,-184"/>
<text text-anchor="middle" x="878" y="-172" font-family="Helvetica,sans-Serif" font-size="10.00">fl/stl/compiler_control.h</text>
</a>
</g>
</g>
<!-- Node1&#45;&gt;Node2 -->
<g id="edge1_Node000001_Node000002" class="edge">
<title>Node1&#45;&gt;Node2</title>
<g id="a_edge1_Node000001_Node000002"><a xlink:title=" ">
<path fill="none" stroke="#63b8ff" d="M1281.25,-297.02C1190.76,-291.32 1012.34,-276.99 956,-250 928.39,-236.77 904.23,-210.05 890.38,-192.47"/>
<polygon fill="#63b8ff" stroke="#63b8ff" points="892.95,-190.07 884.11,-184.23 887.38,-194.31 892.95,-190.07"/>
</a>
</g>
</g>
<!-- Node6 -->
<g id="Node000006" class="node">
<title>Node6</title>
<g id="a_Node000006"><a xlink:href="../../db/d01/noexcept_8h.html" target="_top" xlink:title=" ">
<polygon fill="white" stroke="#666666" points="1339.5,-74 1244.5,-74 1244.5,-55 1339.5,-55 1339.5,-74"/>
<text text-anchor="middle" x="1292" y="-62" font-family="Helvetica,sans-Serif" font-size="10.00">fl/stl/noexcept.h</text>
</a>
</g>
</g>
<!-- Node1&#45;&gt;Node6 -->
<g id="edge47_Node000001_Node000006" class="edge">
<title>Node1&#45;&gt;Node6</title>
<g id="a_edge47_Node000001_Node000006"><a xlink:title=" ">
<path fill="none" stroke="#63b8ff" d="M1332.37,-285.68C1324.95,-245.17 1303.77,-129.68 1295.43,-84.22"/>
<polygon fill="#63b8ff" stroke="#63b8ff" points="1298.85,-83.46 1293.61,-74.26 1291.97,-84.72 1298.85,-83.46"/>
</a>
</g>
</g>
<!-- Node7 -->
<g id="Node000007" class="node">
<title>Node7</title>
<g id="a_Node000007"><a xlink:href="../../dd/dff/traits_8h.html" target="_top" xlink:title=" ">
<polygon fill="white" stroke="#666666" points="1563.5,-250 1456.5,-250 1456.5,-220 1563.5,-220 1563.5,-250"/>
<text text-anchor="start" x="1464.5" y="-238" font-family="Helvetica,sans-Serif" font-size="10.00">fl/math/fixed_point</text>
<text text-anchor="middle" x="1510" y="-227" font-family="Helvetica,sans-Serif" font-size="10.00">/traits.h</text>
</a>
</g>
</g>
<!-- Node1&#45;&gt;Node7 -->
<g id="edge7_Node000001_Node000007" class="edge">
<title>Node1&#45;&gt;Node7</title>
<g id="a_edge7_Node000001_Node000007"><a xlink:title=" ">
<path fill="none" stroke="#63b8ff" d="M1373.4,-285.95C1399.51,-276.41 1434.22,-263.71 1462.13,-253.51"/>
<polygon fill="#63b8ff" stroke="#63b8ff" points="1463.5,-256.73 1471.69,-250.01 1461.09,-250.16 1463.5,-256.73"/>
</a>
</g>
</g>
<!-- Node8 -->
<g id="Node000008" class="node">
<title>Node8</title>
<g id="a_Node000008"><a xlink:href="../../df/dd8/stdint_8h.html" target="_top" xlink:title=" ">
<polygon fill="white" stroke="#666666" points="1670.5,-74 1593.5,-74 1593.5,-55 1670.5,-55 1670.5,-74"/>
<text text-anchor="middle" x="1632" y="-62" font-family="Helvetica,sans-Serif" font-size="10.00">fl/stl/stdint.h</text>
</a>
</g>
</g>
<!-- Node1&#45;&gt;Node8 -->
<g id="edge45_Node000001_Node000008" class="edge">
<title>Node1&#45;&gt;Node8</title>
<g id="a_edge45_Node000001_Node000008"><a xlink:title=" ">
<path fill="none" stroke="#63b8ff" d="M1388.84,-298.8C1439.67,-295.43 1516.35,-284.43 1573,-250 1626.28,-217.62 1634.69,-190.65 1644,-129 1646.31,-113.73 1642.66,-96.52 1638.8,-83.87"/>
<polygon fill="#63b8ff" stroke="#63b8ff" points="1642.01,-82.45 1635.49,-74.09 1635.38,-84.69 1642.01,-82.45"/>
</a>
</g>
</g>
<!-- Node10 -->
<g id="Node000010" class="node">
<title>Node10</title>
<g id="a_Node000010"><a xlink:href="../../df/d63/type__traits_8h.html" target="_top" xlink:title=" ">
<polygon fill="white" stroke="#666666" points="1456,-184 1354,-184 1354,-165 1456,-165 1456,-184"/>
<text text-anchor="middle" x="1405" y="-172" font-family="Helvetica,sans-Serif" font-size="10.00">fl/stl/type_traits.h</text>
</a>
</g>
</g>
<!-- Node1&#45;&gt;Node10 -->
<g id="edge46_Node000001_Node000010" class="edge">
<title>Node1&#45;&gt;Node10</title>
<g id="a_edge46_Node000001_Node000010"><a xlink:title=" ">
<path fill="none" stroke="#63b8ff" d="M1343.03,-285.72C1355.91,-262.81 1381.14,-217.93 1395.11,-193.09"/>
<polygon fill="#63b8ff" stroke="#63b8ff" points="1398.33,-194.5 1400.18,-184.07 1392.23,-191.07 1398.33,-194.5"/>
</a>
</g>
</g>
<!-- Node14 -->
<g id="Node000014" class="node">
<title>Node14</title>
<g id="a_Node000014"><a xlink:href="../../d7/dac/isqrt_8h.html" target="_top" xlink:title=" ">
<polygon fill="white" stroke="#666666" points="1247.5,-250 1140.5,-250 1140.5,-220 1247.5,-220 1247.5,-250"/>
<text text-anchor="start" x="1148.5" y="-238" font-family="Helvetica,sans-Serif" font-size="10.00">fl/math/fixed_point</text>
<text text-anchor="middle" x="1194" y="-227" font-family="Helvetica,sans-Serif" font-size="10.00">/isqrt.h</text>
</a>
</g>
</g>
<!-- Node1&#45;&gt;Node14 -->
<g id="edge19_Node000001_Node000014" class="edge">
<title>Node1&#45;&gt;Node14</title>
<g id="a_edge19_Node000001_Node000014"><a xlink:title=" ">
<path fill="none" stroke="#63b8ff" d="M1304.06,-285.95C1283.49,-276.62 1256.27,-264.27 1234.05,-254.18"/>
<polygon fill="#63b8ff" stroke="#63b8ff" points="1235.42,-250.96 1224.87,-250.01 1232.53,-257.33 1235.42,-250.96"/>
</a>
</g>
</g>
<!-- Node15 -->
<g id="Node000015" class="node">
<title>Node15</title>
<g id="a_Node000015"><a xlink:href="../../d3/d84/sin32_8h.html" target="_top" xlink:title=" ">
<polygon fill="white" stroke="#666666" points="1054.5,-244.5 965.5,-244.5 965.5,-225.5 1054.5,-225.5 1054.5,-244.5"/>
<text text-anchor="middle" x="1010" y="-232.5" font-family="Helvetica,sans-Serif" font-size="10.00">fl/math/sin32.h</text>
</a>
</g>
</g>
<!-- Node1&#45;&gt;Node15 -->
<g id="edge23_Node000001_Node000015" class="edge">
<title>Node1&#45;&gt;Node15</title>
<g id="a_edge23_Node000001_Node000015"><a xlink:title=" ">
<path fill="none" stroke="#63b8ff" d="M1281.33,-289.43C1221,-277.55 1123.62,-258.38 1063.4,-246.52"/>
<polygon fill="#63b8ff" stroke="#63b8ff" points="1063.82,-243.03 1053.34,-244.53 1062.47,-249.9 1063.82,-243.03"/>
</a>
</g>
</g>
<!-- Node26 -->
<g id="Node000026" class="node">
<title>Node26</title>
<g id="a_Node000026"><a xlink:href="../../da/ded/undef_8h.html" target="_top" xlink:title=" ">
<polygon fill="white" stroke="#666666" points="1782.5,-244.5 1705.5,-244.5 1705.5,-225.5 1782.5,-225.5 1782.5,-244.5"/>
<text text-anchor="middle" x="1744" y="-232.5" font-family="Helvetica,sans-Serif" font-size="10.00">fl/stl/undef.h</text>
</a>
</g>
</g>
<!-- Node1&#45;&gt;Node26 -->
<g id="edge48_Node000001_Node000026" class="edge">
<title>Node1&#45;&gt;Node26</title>
<g id="a_edge48_Node000001_Node000026"><a xlink:title=" ">
<path fill="none" stroke="#63b8ff" d="M1388.75,-293.77C1457.49,-285.47 1580.08,-269.53 1684,-250 1689.12,-249.04 1694.47,-247.93 1699.78,-246.78"/>
<polygon fill="#63b8ff" stroke="#63b8ff" points="1700.85,-250.12 1709.84,-244.51 1699.32,-243.29 1700.85,-250.12"/>
</a>
</g>
</g>
<!-- Node3 -->
<g id="Node000003" class="node">
<title>Node3</title>
<g id="a_Node000003"><a xlink:title=" ">
<polygon fill="#e0e0e0" stroke="#999999" points="977.5,-74 846.5,-74 846.5,-55 977.5,-55 977.5,-74"/>
<text text-anchor="middle" x="912" y="-62" font-family="Helvetica,sans-Serif" font-size="10.00">platforms/is_platform.h</text>
</a>
</g>
</g>
<!-- Node2&#45;&gt;Node3 -->
<g id="edge2_Node000002_Node000003" class="edge">
<title>Node2&#45;&gt;Node3</title>
<g id="a_edge2_Node000002_Node000003"><a xlink:title=" ">
<path fill="none" stroke="#63b8ff" d="M880.78,-164.66C886.31,-147.09 898.79,-107.45 906.19,-83.95"/>
<polygon fill="#63b8ff" stroke="#63b8ff" points="909.61,-84.75 909.27,-74.16 902.93,-82.65 909.61,-84.75"/>
</a>
</g>
</g>
<!-- Node4 -->
<g id="Node000004" class="node">
<title>Node4</title>
<g id="a_Node000004"><a xlink:href="../../d1/ddf/align_8h.html" target="_top" xlink:title="Alignment macros and utilities for FastLED.">
<polygon fill="white" stroke="#666666" points="982,-129 908,-129 908,-110 982,-110 982,-129"/>
<text text-anchor="middle" x="945" y="-117" font-family="Helvetica,sans-Serif" font-size="10.00">fl/stl/align.h</text>
</a>
</g>
</g>
<!-- Node2&#45;&gt;Node4 -->
<g id="edge3_Node000002_Node000004" class="edge">
<title>Node2&#45;&gt;Node4</title>
<g id="a_edge3_Node000002_Node000004"><a xlink:title=" ">
<path fill="none" stroke="#63b8ff" d="M888.76,-164.98C898.77,-157.07 913.89,-145.11 925.93,-135.58"/>
<polygon fill="#63b8ff" stroke="#63b8ff" points="928.37,-138.12 934.04,-129.17 924.03,-132.63 928.37,-138.12"/>
</a>
</g>
</g>
<!-- Node4&#45;&gt;Node3 -->
<g id="edge5_Node000004_Node000003" class="edge">
<title>Node4&#45;&gt;Node3</title>
<g id="a_edge5_Node000004_Node000003"><a xlink:title=" ">
<path fill="none" stroke="#63b8ff" d="M939.55,-109.75C934.99,-102.42 928.33,-91.73 922.71,-82.7"/>
<polygon fill="#63b8ff" stroke="#63b8ff" points="925.6,-80.73 917.35,-74.09 919.66,-84.43 925.6,-80.73"/>
</a>
</g>
</g>
<!-- Node5 -->
<g id="Node000005" class="node">
<title>Node5</title>
<g id="a_Node000005"><a xlink:href="../../d7/d84/cstddef_8h.html" target="_top" xlink:title=" ">
<polygon fill="white" stroke="#666666" points="1080.5,-74 995.5,-74 995.5,-55 1080.5,-55 1080.5,-74"/>
<text text-anchor="middle" x="1038" y="-62" font-family="Helvetica,sans-Serif" font-size="10.00">fl/stl/cstddef.h</text>
</a>
</g>
</g>
<!-- Node4&#45;&gt;Node5 -->
<g id="edge4_Node000004_Node000005" class="edge">
<title>Node4&#45;&gt;Node5</title>
<g id="a_edge4_Node000004_Node000005"><a xlink:title=" ">
<path fill="none" stroke="#63b8ff" d="M959.94,-109.98C974.5,-101.69 996.87,-88.94 1013.93,-79.22"/>
<polygon fill="#63b8ff" stroke="#63b8ff" points="1015.83,-82.16 1022.79,-74.17 1012.36,-76.08 1015.83,-82.16"/>
</a>
</g>
</g>
<!-- Node4&#45;&gt;Node6 -->
<g id="edge6_Node000004_Node000006" class="edge">
<title>Node4&#45;&gt;Node6</title>
<g id="a_edge6_Node000004_Node000006"><a xlink:title=" ">
<path fill="none" stroke="#63b8ff" d="M982.04,-112.26C986.73,-111.49 991.48,-110.72 996,-110 1078.72,-96.89 1174.61,-82.65 1234.3,-73.9"/>
<polygon fill="#63b8ff" stroke="#63b8ff" points="1234.9,-77.35 1244.29,-72.43 1233.88,-70.42 1234.9,-77.35"/>
</a>
</g>
</g>
<!-- Node7&#45;&gt;Node6 -->
<g id="edge17_Node000007_Node000006" class="edge">
<title>Node7&#45;&gt;Node6</title>
<g id="a_edge17_Node000007_Node000006"><a xlink:title=" ">
<path fill="none" stroke="#63b8ff" d="M1527.61,-219.75C1555.72,-195.32 1604.7,-144.73 1575,-110 1546.6,-76.79 1423.83,-68.2 1349.64,-66.08"/>
<polygon fill="#63b8ff" stroke="#63b8ff" points="1349.59,-62.58 1339.51,-65.83 1349.42,-69.58 1349.59,-62.58"/>
</a>
</g>
</g>
<!-- Node7&#45;&gt;Node8 -->
<g id="edge8_Node000007_Node000008" class="edge">
<title>Node7&#45;&gt;Node8</title>
<g id="a_edge8_Node000007_Node000008"><a xlink:title=" ">
<path fill="none" stroke="#63b8ff" d="M1557.12,-219.98C1575.59,-212.21 1595.35,-200.66 1608,-184 1630.35,-154.57 1633.31,-109.58 1632.98,-84.35"/>
<polygon fill="#63b8ff" stroke="#63b8ff" points="1636.47,-84.15 1632.65,-74.27 1629.48,-84.38 1636.47,-84.15"/>
</a>
</g>
</g>
<!-- Node7&#45;&gt;Node10 -->
<g id="edge10_Node000007_Node000010" class="edge">
<title>Node7&#45;&gt;Node10</title>
<g id="a_edge10_Node000007_Node000010"><a xlink:title=" ">
<path fill="none" stroke="#63b8ff" d="M1484.85,-219.99C1468.11,-210.66 1446.23,-198.47 1429.61,-189.21"/>
<polygon fill="#63b8ff" stroke="#63b8ff" points="1430.95,-185.95 1420.51,-184.14 1427.54,-192.06 1430.95,-185.95"/>
</a>
</g>
</g>
<!-- Node13 -->
<g id="Node000013" class="node">
<title>Node13</title>
<g id="a_Node000013"><a xlink:href="../../d0/d1b/static__assert_8h.html" target="_top" xlink:title="Portable compile&#45;time assertion wrapper.">
<polygon fill="white" stroke="#666666" points="1566,-129 1454,-129 1454,-110 1566,-110 1566,-129"/>
<text text-anchor="middle" x="1510" y="-117" font-family="Helvetica,sans-Serif" font-size="10.00">fl/stl/static_assert.h</text>
</a>
</g>
</g>
<!-- Node7&#45;&gt;Node13 -->
<g id="edge18_Node000007_Node000013" class="edge">
<title>Node7&#45;&gt;Node13</title>
<g id="a_edge18_Node000007_Node000013"><a xlink:title=" ">
<path fill="none" stroke="#63b8ff" d="M1510,-219.63C1510,-199.21 1510,-161.81 1510,-139.24"/>
<polygon fill="#63b8ff" stroke="#63b8ff" points="1513.5,-139.23 1510,-129.23 1506.5,-139.23 1513.5,-139.23"/>
</a>
</g>
</g>
<!-- Node9 -->
<g id="Node000009" class="node">
<title>Node9</title>
<g id="a_Node000009"><a xlink:title=" ">
<polygon fill="#e0e0e0" stroke="#999999" points="1676.5,-19 1587.5,-19 1587.5,0 1676.5,0 1676.5,-19"/>
<text text-anchor="middle" x="1632" y="-7" font-family="Helvetica,sans-Serif" font-size="10.00">platforms/int.h</text>
</a>
</g>
</g>
<!-- Node8&#45;&gt;Node9 -->
<g id="edge9_Node000008_Node000009" class="edge">
<title>Node8&#45;&gt;Node9</title>
<g id="a_edge9_Node000008_Node000009"><a xlink:title=" ">
<path fill="none" stroke="#63b8ff" d="M1632,-54.75C1632,-47.8 1632,-37.85 1632,-29.13"/>
<polygon fill="#63b8ff" stroke="#63b8ff" points="1635.5,-29.09 1632,-19.09 1628.5,-29.09 1635.5,-29.09"/>
</a>
</g>
</g>
<!-- Node10&#45;&gt;Node6 -->
<g id="edge15_Node000010_Node000006" class="edge">
<title>Node10&#45;&gt;Node6</title>
<g id="a_edge15_Node000010_Node000006"><a xlink:title=" ">
<path fill="none" stroke="#63b8ff" d="M1408.25,-164.8C1412.55,-151.67 1418.35,-126.56 1407,-110 1393.88,-90.86 1371.25,-79.95 1349.52,-73.73"/>
<polygon fill="#63b8ff" stroke="#63b8ff" points="1350.19,-70.29 1339.64,-71.19 1348.45,-77.07 1350.19,-70.29"/>
</a>
</g>
</g>
<!-- Node11 -->
<g id="Node000011" class="node">
<title>Node11</title>
<g id="a_Node000011"><a xlink:href="../../d9/d83/move_8h.html" target="_top" xlink:title=" ">
<polygon fill="white" stroke="#666666" points="1397.5,-129 1320.5,-129 1320.5,-110 1397.5,-110 1397.5,-129"/>
<text text-anchor="middle" x="1359" y="-117" font-family="Helvetica,sans-Serif" font-size="10.00">fl/stl/move.h</text>
</a>
</g>
</g>
<!-- Node10&#45;&gt;Node11 -->
<g id="edge11_Node000010_Node000011" class="edge">
<title>Node10&#45;&gt;Node11</title>
<g id="a_edge11_Node000010_Node000011"><a xlink:title=" ">
<path fill="none" stroke="#63b8ff" d="M1397.4,-164.75C1390.84,-157.18 1381.18,-146.05 1373.19,-136.84"/>
<polygon fill="#63b8ff" stroke="#63b8ff" points="1375.65,-134.35 1366.45,-129.09 1370.37,-138.94 1375.65,-134.35"/>
</a>
</g>
</g>
<!-- Node12 -->
<g id="Node000012" class="node">
<title>Node12</title>
<g id="a_Node000012"><a xlink:href="../../d3/d7e/int_8h.html" target="_top" xlink:title=" ">
<polygon fill="white" stroke="#666666" points="1264,-129 1202,-129 1202,-110 1264,-110 1264,-129"/>
<text text-anchor="middle" x="1233" y="-117" font-family="Helvetica,sans-Serif" font-size="10.00">fl/stl/int.h</text>
</a>
</g>
</g>
<!-- Node10&#45;&gt;Node12 -->
<g id="edge13_Node000010_Node000012" class="edge">
<title>Node10&#45;&gt;Node12</title>
<g id="a_edge13_Node000010_Node000012"><a xlink:title=" ">
<path fill="none" stroke="#63b8ff" d="M1377.37,-164.98C1348.49,-156.09 1302.99,-142.07 1270.8,-132.15"/>
<polygon fill="#63b8ff" stroke="#63b8ff" points="1271.44,-128.68 1260.85,-129.08 1269.38,-135.37 1271.44,-128.68"/>
</a>
</g>
</g>
<!-- Node10&#45;&gt;Node13 -->
<g id="edge16_Node000010_Node000013" class="edge">
<title>Node10&#45;&gt;Node13</title>
<g id="a_edge16_Node000010_Node000013"><a xlink:title=" ">
<path fill="none" stroke="#63b8ff" d="M1421.87,-164.98C1438.61,-156.54 1464.5,-143.47 1483.89,-133.68"/>
<polygon fill="#63b8ff" stroke="#63b8ff" points="1485.47,-136.8 1492.82,-129.17 1482.32,-130.55 1485.47,-136.8"/>
</a>
</g>
</g>
<!-- Node11&#45;&gt;Node6 -->
<g id="edge12_Node000011_Node000006" class="edge">
<title>Node11&#45;&gt;Node6</title>
<g id="a_edge12_Node000011_Node000006"><a xlink:title=" ">
<path fill="none" stroke="#63b8ff" d="M1348.24,-109.98C1338.23,-102.07 1323.11,-90.11 1311.07,-80.58"/>
<polygon fill="#63b8ff" stroke="#63b8ff" points="1312.97,-77.63 1302.96,-74.17 1308.63,-83.12 1312.97,-77.63"/>
</a>
</g>
</g>
<!-- Node12&#45;&gt;Node8 -->
<g id="edge14_Node000012_Node000008" class="edge">
<title>Node12&#45;&gt;Node8</title>
<g id="a_edge14_Node000012_Node000008"><a xlink:title=" ">
<path fill="none" stroke="#63b8ff" d="M1264.31,-114.34C1333.62,-105.13 1500.42,-82.98 1583.41,-71.95"/>
<polygon fill="#63b8ff" stroke="#63b8ff" points="1583.89,-75.42 1593.35,-70.63 1582.97,-68.48 1583.89,-75.42"/>
</a>
</g>
</g>
<!-- Node14&#45;&gt;Node2 -->
<g id="edge20_Node000014_Node000002" class="edge">
<title>Node14&#45;&gt;Node2</title>
<g id="a_edge20_Node000014_Node000002"><a xlink:title=" ">
<path fill="none" stroke="#63b8ff" d="M1140.39,-224.08C1083.09,-213.47 992.61,-196.72 934.29,-185.92"/>
<polygon fill="#63b8ff" stroke="#63b8ff" points="934.62,-182.42 924.15,-184.04 933.34,-189.31 934.62,-182.42"/>
</a>
</g>
</g>
<!-- Node14&#45;&gt;Node6 -->
<g id="edge22_Node000014_Node000006" class="edge">
<title>Node14&#45;&gt;Node6</title>
<g id="a_edge22_Node000014_Node000006"><a xlink:title=" ">
<path fill="none" stroke="#63b8ff" d="M1189.29,-219.99C1181.98,-195.47 1170.9,-144.16 1193,-110 1203.19,-94.25 1220.43,-84.02 1237.69,-77.4"/>
<polygon fill="#63b8ff" stroke="#63b8ff" points="1238.94,-80.67 1247.24,-74.08 1236.64,-74.05 1238.94,-80.67"/>
</a>
</g>
</g>
<!-- Node14&#45;&gt;Node12 -->
<g id="edge21_Node000014_Node000012" class="edge">
<title>Node14&#45;&gt;Node12</title>
<g id="a_edge21_Node000014_Node000012"><a xlink:title=" ">
<path fill="none" stroke="#63b8ff" d="M1207.52,-219.98C1215.64,-210.6 1225.28,-197.53 1230,-184 1235.06,-169.49 1235.5,-151.98 1234.86,-139.03"/>
<polygon fill="#63b8ff" stroke="#63b8ff" points="1238.34,-138.71 1234.09,-129.01 1231.36,-139.24 1238.34,-138.71"/>
</a>
</g>
</g>
<!-- Node15&#45;&gt;Node2 -->
<g id="edge25_Node000015_Node000002" class="edge">
<title>Node15&#45;&gt;Node2</title>
<g id="a_edge25_Node000015_Node000002"><a xlink:title=" ">
<path fill="none" stroke="#63b8ff" d="M990.81,-225.49C968.61,-215.66 931.88,-199.38 906.38,-188.08"/>
<polygon fill="#63b8ff" stroke="#63b8ff" points="907.78,-184.87 897.22,-184.02 904.94,-191.27 907.78,-184.87"/>
</a>
</g>
</g>
<!-- Node15&#45;&gt;Node4 -->
<g id="edge43_Node000015_Node000004" class="edge">
<title>Node15&#45;&gt;Node4</title>
<g id="a_edge43_Node000015_Node000004"><a xlink:title=" ">
<path fill="none" stroke="#63b8ff" d="M1005.11,-225.47C994.48,-206.9 969.06,-162.51 954.92,-137.82"/>
<polygon fill="#63b8ff" stroke="#63b8ff" points="957.95,-136.07 949.94,-129.13 951.87,-139.55 957.95,-136.07"/>
</a>
</g>
</g>
<!-- Node15&#45;&gt;Node6 -->
<g id="edge44_Node000015_Node000006" class="edge">
<title>Node15&#45;&gt;Node6</title>
<g id="a_edge44_Node000015_Node000006"><a xlink:title=" ">
<path fill="none" stroke="#63b8ff" d="M1009.99,-225.18C1010.46,-210.77 1013.44,-182.08 1029,-165 1082.61,-106.15 1174.64,-81.9 1234.38,-72.05"/>
<polygon fill="#63b8ff" stroke="#63b8ff" points="1235.07,-75.49 1244.41,-70.48 1233.99,-68.57 1235.07,-75.49"/>
</a>
</g>
</g>
<!-- Node15&#45;&gt;Node12 -->
<g id="edge24_Node000015_Node000012" class="edge">
<title>Node15&#45;&gt;Node12</title>
<g id="a_edge24_Node000015_Node000012"><a xlink:title=" ">
<path fill="none" stroke="#63b8ff" d="M1048.43,-225.46C1079.57,-217.54 1123.88,-203.94 1159,-184 1181.64,-171.14 1203.79,-150.81 1217.86,-136.63"/>
<polygon fill="#63b8ff" stroke="#63b8ff" points="1220.72,-138.71 1225.16,-129.09 1215.69,-133.84 1220.72,-138.71"/>
</a>
</g>
</g>
<!-- Node16 -->
<g id="Node000016" class="node">
<title>Node16</title>
<g id="a_Node000016"><a xlink:href="../../df/dab/fastled__progmem_8h.html" target="_top" xlink:title="Wrapper definitions to allow seamless use of PROGMEM in environments that have it.">
<polygon fill="white" stroke="#666666" points="1150,-184 1038,-184 1038,-165 1150,-165 1150,-184"/>
<text text-anchor="middle" x="1094" y="-172" font-family="Helvetica,sans-Serif" font-size="10.00">fastled_progmem.h</text>
</a>
</g>
</g>
<!-- Node15&#45;&gt;Node16 -->
<g id="edge26_Node000015_Node000016" class="edge">
<title>Node15&#45;&gt;Node16</title>
<g id="a_edge26_Node000015_Node000016"><a xlink:title=" ">
<path fill="none" stroke="#63b8ff" d="M1022.39,-225.37C1035.79,-216.04 1057.38,-201.01 1073.35,-189.88"/>
<polygon fill="#63b8ff" stroke="#63b8ff" points="1075.35,-192.75 1081.55,-184.17 1071.35,-187.01 1075.35,-192.75"/>
</a>
</g>
</g>
<!-- Node17 -->
<g id="Node000017" class="node">
<title>Node17</title>
<g id="a_Node000017"><a xlink:href="../../d8/de1/simd_8h.html" target="_top" xlink:title="Umbrella header for SIMD subsystem.">
<polygon fill="white" stroke="#666666" points="484.5,-184 397.5,-184 397.5,-165 484.5,-165 484.5,-184"/>
<text text-anchor="middle" x="441" y="-172" font-family="Helvetica,sans-Serif" font-size="10.00">fl/math/simd.h</text>
</a>
</g>
</g>
<!-- Node15&#45;&gt;Node17 -->
<g id="edge29_Node000015_Node000017" class="edge">
<title>Node15&#45;&gt;Node17</title>
<g id="a_edge29_Node000015_Node000017"><a xlink:title=" ">
<path fill="none" stroke="#63b8ff" d="M965.35,-229.41C861.95,-218.78 606.38,-192.5 494.69,-181.02"/>
<polygon fill="#63b8ff" stroke="#63b8ff" points="494.97,-177.53 484.66,-179.99 494.25,-184.49 494.97,-177.53"/>
</a>
</g>
</g>
<!-- Node16&#45;&gt;Node3 -->
<g id="edge27_Node000016_Node000003" class="edge">
<title>Node16&#45;&gt;Node3</title>
<g id="a_edge27_Node000016_Node000003"><a xlink:title=" ">
<path fill="none" stroke="#63b8ff" d="M1080.44,-164.9C1060.84,-152.53 1023.39,-129.1 991,-110 972.92,-99.34 952.24,-87.71 936.58,-79.02"/>
<polygon fill="#63b8ff" stroke="#63b8ff" points="937.99,-75.8 927.54,-74.02 934.6,-81.92 937.99,-75.8"/>
</a>
</g>
</g>
<!-- Node16&#45;&gt;Node12 -->
<g id="edge28_Node000016_Node000012" class="edge">
<title>Node16&#45;&gt;Node12</title>
<g id="a_edge28_Node000016_Node000012"><a xlink:title=" ">
<path fill="none" stroke="#63b8ff" d="M1116.33,-164.98C1139.2,-156.27 1174.96,-142.63 1200.86,-132.75"/>
<polygon fill="#63b8ff" stroke="#63b8ff" points="1202.16,-136 1210.26,-129.17 1199.67,-129.46 1202.16,-136"/>
</a>
</g>
</g>
<!-- Node18 -->
<g id="Node000018" class="node">
<title>Node18</title>
<g id="a_Node000018"><a xlink:href="../../d0/d7e/fl_2math_2simd_2types_8h.html" target="_top" xlink:title="SIMD register type aliases.">
<polygon fill="#fff0f0" stroke="red" points="430.5,-74 313.5,-74 313.5,-55 430.5,-55 430.5,-74"/>
<text text-anchor="middle" x="372" y="-62" font-family="Helvetica,sans-Serif" font-size="10.00">fl/math/simd/types.h</text>
</a>
</g>
</g>
<!-- Node17&#45;&gt;Node18 -->
<g id="edge30_Node000017_Node000018" class="edge">
<title>Node17&#45;&gt;Node18</title>
<g id="a_edge30_Node000017_Node000018"><a xlink:title=" ">
<path fill="none" stroke="#63b8ff" d="M397.45,-172.26C365.62,-168.79 324.41,-158.4 303,-129 288.3,-108.81 315.99,-90.02 340.55,-78.19"/>
<polygon fill="#63b8ff" stroke="#63b8ff" points="342.07,-81.35 349.72,-74.02 339.16,-74.98 342.07,-81.35"/>
</a>
</g>
</g>
<!-- Node20 -->
<g id="Node000020" class="node">
<title>Node20</title>
<g id="a_Node000020"><a xlink:href="../../d0/d1e/u8x16_8h.html" target="_top" xlink:title="SIMD operations on 16&#45;element uint8_t vectors.">
<polygon fill="white" stroke="#666666" points="432,-129 312,-129 312,-110 432,-110 432,-129"/>
<text text-anchor="middle" x="372" y="-117" font-family="Helvetica,sans-Serif" font-size="10.00">fl/math/simd/u8x16.h</text>
</a>
</g>
</g>
<!-- Node17&#45;&gt;Node20 -->
<g id="edge31_Node000017_Node000020" class="edge">
<title>Node17&#45;&gt;Node20</title>
<g id="a_edge31_Node000017_Node000020"><a xlink:title=" ">
<path fill="none" stroke="#63b8ff" d="M429.91,-164.98C419.51,-157 403.74,-144.88 391.28,-135.31"/>
<polygon fill="#63b8ff" stroke="#63b8ff" points="393.35,-132.49 383.29,-129.17 389.09,-138.04 393.35,-132.49"/>
</a>
</g>
</g>
<!-- Node21 -->
<g id="Node000021" class="node">
<title>Node21</title>
<g id="a_Node000021"><a xlink:href="../../d7/d94/u8x32_8h.html" target="_top" xlink:title="SIMD operations on 32&#45;element uint8_t vectors (256&#45;bit)">
<polygon fill="white" stroke="#666666" points="570,-129 450,-129 450,-110 570,-110 570,-129"/>
<text text-anchor="middle" x="510" y="-117" font-family="Helvetica,sans-Serif" font-size="10.00">fl/math/simd/u8x32.h</text>
</a>
</g>
</g>
<!-- Node17&#45;&gt;Node21 -->
<g id="edge33_Node000017_Node000021" class="edge">
<title>Node17&#45;&gt;Node21</title>
<g id="a_edge33_Node000017_Node000021"><a xlink:title=" ">
<path fill="none" stroke="#63b8ff" d="M452.09,-164.98C462.49,-157 478.26,-144.88 490.72,-135.31"/>
<polygon fill="#63b8ff" stroke="#63b8ff" points="492.91,-138.04 498.71,-129.17 488.65,-132.49 492.91,-138.04"/>
</a>
</g>
</g>
<!-- Node22 -->
<g id="Node000022" class="node">
<title>Node22</title>
<g id="a_Node000022"><a xlink:href="../../d3/d0c/u16x8_8h.html" target="_top" xlink:title="SIMD operations on 8&#45;element uint16_t vectors.">
<polygon fill="white" stroke="#666666" points="708,-129 588,-129 588,-110 708,-110 708,-129"/>
<text text-anchor="middle" x="648" y="-117" font-family="Helvetica,sans-Serif" font-size="10.00">fl/math/simd/u16x8.h</text>
</a>
</g>
</g>
<!-- Node17&#45;&gt;Node22 -->
<g id="edge35_Node000017_Node000022" class="edge">
<title>Node17&#45;&gt;Node22</title>
<g id="a_edge35_Node000017_Node000022"><a xlink:title=" ">
<path fill="none" stroke="#63b8ff" d="M474.26,-164.98C509.61,-155.93 565.67,-141.58 604.51,-131.64"/>
<polygon fill="#63b8ff" stroke="#63b8ff" points="605.66,-134.95 614.48,-129.08 603.93,-128.17 605.66,-134.95"/>
</a>
</g>
</g>
<!-- Node23 -->
<g id="Node000023" class="node">
<title>Node23</title>
<g id="a_Node000023"><a xlink:href="../../d5/d91/simd_2u16x16_8h.html" target="_top" xlink:title="SIMD operations on 16&#45;element uint16_t vectors (256&#45;bit)">
<polygon fill="white" stroke="#666666" points="852,-129 726,-129 726,-110 852,-110 852,-129"/>
<text text-anchor="middle" x="789" y="-117" font-family="Helvetica,sans-Serif" font-size="10.00">fl/math/simd/u16x16.h</text>
</a>
</g>
</g>
<!-- Node17&#45;&gt;Node23 -->
<g id="edge37_Node000017_Node000023" class="edge">
<title>Node17&#45;&gt;Node23</title>
<g id="a_edge37_Node000017_Node000023"><a xlink:title=" ">
<path fill="none" stroke="#63b8ff" d="M484.72,-166.84C544.75,-157.7 653.18,-141.19 723.08,-130.54"/>
<polygon fill="#63b8ff" stroke="#63b8ff" points="723.74,-133.98 733.1,-129.01 722.69,-127.06 723.74,-133.98"/>
</a>
</g>
</g>
<!-- Node24 -->
<g id="Node000024" class="node">
<title>Node24</title>
<g id="a_Node000024"><a xlink:href="../../dc/d0c/u32x4_8h.html" target="_top" xlink:title="SIMD operations on 4&#45;element uint32_t/int32_t vectors.">
<polygon fill="white" stroke="#666666" points="120,-129 0,-129 0,-110 120,-110 120,-129"/>
<text text-anchor="middle" x="60" y="-117" font-family="Helvetica,sans-Serif" font-size="10.00">fl/math/simd/u32x4.h</text>
</a>
</g>
</g>
<!-- Node17&#45;&gt;Node24 -->
<g id="edge39_Node000017_Node000024" class="edge">
<title>Node17&#45;&gt;Node24</title>
<g id="a_edge39_Node000017_Node000024"><a xlink:title=" ">
<path fill="none" stroke="#63b8ff" d="M397.29,-167.42C332.01,-158.34 208.36,-141.14 130.28,-130.28"/>
<polygon fill="#63b8ff" stroke="#63b8ff" points="130.44,-126.76 120.05,-128.85 129.47,-133.7 130.44,-126.76"/>
</a>
</g>
</g>
<!-- Node25 -->
<g id="Node000025" class="node">
<title>Node25</title>
<g id="a_Node000025"><a xlink:href="../../d2/df4/f32x4_8h.html" target="_top" xlink:title="SIMD operations on 4&#45;element float32 vectors.">
<polygon fill="white" stroke="#666666" points="256,-129 138,-129 138,-110 256,-110 256,-129"/>
<text text-anchor="middle" x="197" y="-117" font-family="Helvetica,sans-Serif" font-size="10.00">fl/math/simd/f32x4.h</text>
</a>
</g>
</g>
<!-- Node17&#45;&gt;Node25 -->
<g id="edge41_Node000017_Node000025" class="edge">
<title>Node17&#45;&gt;Node25</title>
<g id="a_edge41_Node000017_Node000025"><a xlink:title=" ">
<path fill="none" stroke="#63b8ff" d="M401.8,-164.98C359.59,-155.82 292.35,-141.21 246.52,-131.26"/>
<polygon fill="#63b8ff" stroke="#63b8ff" points="247.03,-127.78 236.51,-129.08 245.54,-134.63 247.03,-127.78"/>
</a>
</g>
</g>
<!-- Node20&#45;&gt;Node18 -->
<g id="edge32_Node000020_Node000018" class="edge">
<title>Node20&#45;&gt;Node18</title>
<g id="a_edge32_Node000020_Node000018"><a xlink:title=" ">
<path fill="none" stroke="#63b8ff" d="M372,-109.75C372,-102.8 372,-92.85 372,-84.13"/>
<polygon fill="#63b8ff" stroke="#63b8ff" points="375.5,-84.09 372,-74.09 368.5,-84.09 375.5,-84.09"/>
</a>
</g>
</g>
<!-- Node21&#45;&gt;Node18 -->
<g id="edge34_Node000021_Node000018" class="edge">
<title>Node21&#45;&gt;Node18</title>
<g id="a_edge34_Node000021_Node000018"><a xlink:title=" ">
<path fill="none" stroke="#63b8ff" d="M487.83,-109.98C465.23,-101.3 429.94,-87.75 404.25,-77.88"/>
<polygon fill="#63b8ff" stroke="#63b8ff" points="405.17,-74.49 394.58,-74.17 402.66,-81.02 405.17,-74.49"/>
</a>
</g>
</g>
<!-- Node22&#45;&gt;Node18 -->
<g id="edge36_Node000022_Node000018" class="edge">
<title>Node22&#45;&gt;Node18</title>
<g id="a_edge36_Node000022_Node000018"><a xlink:title=" ">
<path fill="none" stroke="#63b8ff" d="M603.66,-109.98C555.51,-100.74 478.58,-85.97 426.71,-76.01"/>
<polygon fill="#63b8ff" stroke="#63b8ff" points="427.17,-72.53 416.69,-74.08 425.85,-79.41 427.17,-72.53"/>
</a>
</g>
</g>
<!-- Node23&#45;&gt;Node18 -->
<g id="edge38_Node000023_Node000018" class="edge">
<title>Node23&#45;&gt;Node18</title>
<g id="a_edge38_Node000023_Node000018"><a xlink:title=" ">
<path fill="none" stroke="#63b8ff" d="M725.67,-110.45C648.91,-100.7 520.05,-84.32 440.89,-74.26"/>
<polygon fill="#63b8ff" stroke="#63b8ff" points="440.89,-70.73 430.53,-72.94 440.01,-77.67 440.89,-70.73"/>
</a>
</g>
</g>
<!-- Node24&#45;&gt;Node18 -->
<g id="edge40_Node000024_Node000018" class="edge">
<title>Node24&#45;&gt;Node18</title>
<g id="a_edge40_Node000024_Node000018"><a xlink:title=" ">
<path fill="none" stroke="#63b8ff" d="M110.13,-109.98C165.09,-100.65 253.23,-85.67 311.87,-75.71"/>
<polygon fill="#63b8ff" stroke="#63b8ff" points="312.47,-79.16 321.74,-74.04 311.29,-72.26 312.47,-79.16"/>
</a>
</g>
</g>
<!-- Node25&#45;&gt;Node18 -->
<g id="edge42_Node000025_Node000018" class="edge">
<title>Node25&#45;&gt;Node18</title>
<g id="a_edge42_Node000025_Node000018"><a xlink:title=" ">
<path fill="none" stroke="#63b8ff" d="M225.12,-109.98C254.62,-101.05 301.19,-86.94 333.97,-77.02"/>
<polygon fill="#63b8ff" stroke="#63b8ff" points="335.11,-80.33 343.66,-74.08 333.08,-73.63 335.11,-80.33"/>
</a>
</g>
</g>
<!-- Node27 -->
<g id="Node000027" class="node">
<title>Node27</title>
<g id="a_Node000027"><a xlink:href="../../da/d99/has__include_8h.html" target="_top" xlink:title=" ">
<polygon fill="white" stroke="#666666" points="1805.5,-184 1698.5,-184 1698.5,-165 1805.5,-165 1805.5,-184"/>
<text text-anchor="middle" x="1752" y="-172" font-family="Helvetica,sans-Serif" font-size="10.00">fl/stl/has_include.h</text>
</a>
</g>
</g>
<!-- Node26&#45;&gt;Node27 -->
<g id="edge49_Node000026_Node000027" class="edge">
<title>Node26&#45;&gt;Node27</title>
<g id="a_edge49_Node000026_Node000027"><a xlink:title=" ">
<path fill="none" stroke="#63b8ff" d="M1745.18,-225.37C1746.29,-217.25 1747.99,-204.81 1749.42,-194.39"/>
<polygon fill="#63b8ff" stroke="#63b8ff" points="1752.93,-194.55 1750.81,-184.17 1745.99,-193.6 1752.93,-194.55"/>
</a>
</g>
</g>
</g>
</svg>
