<?xml version="1.0" encoding="UTF-8" standalone="no"?>
<!DOCTYPE svg PUBLIC "-//W3C//DTD SVG 1.1//EN"
 "http://www.w3.org/Graphics/SVG/1.1/DTD/svg11.dtd">
<!-- Generated by graphviz version 2.43.0 (0)
 -->
<!-- Title: fl::UISlider::Listener Pages: 1 -->
<svg width="399pt" height="237pt"
 viewBox="0.00 0.00 398.50 237.00" xmlns="http://www.w3.org/2000/svg" xmlns:xlink="http://www.w3.org/1999/xlink">

<svg id="main" version="1.1" xmlns="http://www.w3.org/2000/svg" xmlns:xlink="http://www.w3.org/1999/xlink" xml:space="preserve">

<style type="text/css"><![CDATA[
.node, .edge {opacity: 0.7;}
.node.selected, .edge.selected {opacity: 1;}
.edge:hover path { stroke: red; }
.edge:hover polygon { stroke: red; fill: red; }
]]></style>
<script type="application/ecmascript" xlink:href="../../svg.min.js"/>
<svg id="graph" class="graph">
<g id="graph0" class="graph" transform="scale(1 1) rotate(0) translate(4 233)">
<title>fl::UISlider::Listener</title>
<!-- Node1 -->
<g id="Node000001" class="node">
<title>Node1</title>
<g id="a_Node000001"><a xlink:title=" ">
<polygon fill="#999999" stroke="#666666" points="376.5,-90.5 264.5,-90.5 264.5,-71.5 376.5,-71.5 376.5,-90.5"/>
<text text-anchor="middle" x="320.5" y="-78.5" font-family="Helvetica,sans-Serif" font-size="10.00">fl::UISlider::Listener</text>
</a>
</g>
</g>
<!-- Node3 -->
<g id="Node000003" class="node">
<title>Node3</title>
<g id="a_Node000003"><a xlink:href="../../dd/d47/classfl_1_1_u_i_slider.html" target="_top" xlink:title=" ">
<polygon fill="white" stroke="#666666" points="237,-19 170,-19 170,0 237,0 237,-19"/>
<text text-anchor="middle" x="203.5" y="-7" font-family="Helvetica,sans-Serif" font-size="10.00">fl::UISlider</text>
</a>
</g>
</g>
<!-- Node1&#45;&gt;Node3 -->
<g id="edge8_Node000003_Node000001" class="edge">
<title>Node1&#45;&gt;Node3</title>
<g id="a_edge8_Node000003_Node000001"><a xlink:title=" ">
<path fill="none" stroke="#9a32cd" stroke-dasharray="5,2" d="M283.12,-67.95C269.75,-62.81 254.93,-56.1 242.5,-48 230.07,-39.9 218.12,-27.51 210.8,-19.22"/>
<polygon fill="#9a32cd" stroke="#9a32cd" points="281.95,-71.25 292.54,-71.41 284.36,-64.68 281.95,-71.25"/>
</a>
</g>
<text text-anchor="middle" x="268.5" y="-40" font-family="Helvetica,sans-Serif" font-size="10.00" fill="grey"> mListener</text>
</g>
<!-- Node2 -->
<g id="Node000002" class="node">
<title>Node2</title>
<g id="a_Node000002"><a xlink:href="../../db/da2/classfl_1_1_engine_events_1_1_listener.html" target="_top" xlink:title=" ">
<polygon fill="white" stroke="#666666" points="390.5,-162 250.5,-162 250.5,-143 390.5,-143 390.5,-162"/>
<text text-anchor="middle" x="320.5" y="-150" font-family="Helvetica,sans-Serif" font-size="10.00">fl::EngineEvents::Listener</text>
</a>
</g>
</g>
<!-- Node2&#45;&gt;Node1 -->
<g id="edge1_Node000001_Node000002" class="edge">
<title>Node2&#45;&gt;Node1</title>
<g id="a_edge1_Node000001_Node000002"><a xlink:title=" ">
<path fill="none" stroke="#63b8ff" d="M320.5,-132.71C320.5,-119 320.5,-101.05 320.5,-90.59"/>
<polygon fill="#63b8ff" stroke="#63b8ff" points="317,-132.98 320.5,-142.98 324,-132.98 317,-132.98"/>
</a>
</g>
</g>
<!-- Node3&#45;&gt;Node1 -->
<g id="edge2_Node000001_Node000003" class="edge">
<title>Node3&#45;&gt;Node1</title>
<g id="a_edge2_Node000001_Node000003"><a xlink:title=" ">
<path fill="none" stroke="#9a32cd" stroke-dasharray="5,2" d="M247.36,-15.03C264.79,-18.68 284.09,-25.23 298.5,-37 309.41,-45.91 315.48,-61.65 318.36,-71.41"/>
<polygon fill="#9a32cd" stroke="#9a32cd" points="247.82,-11.56 237.36,-13.21 246.57,-18.45 247.82,-11.56"/>
</a>
</g>
<text text-anchor="middle" x="330" y="-40" font-family="Helvetica,sans-Serif" font-size="10.00" fill="grey"> mOwner</text>
</g>
<!-- Node4 -->
<g id="Node000004" class="node">
<title>Node4</title>
<g id="a_Node000004"><a xlink:href="../../df/d67/classfl_1_1_u_i_slider_impl.html" target="_top" xlink:title=" ">
<polygon fill="white" stroke="#666666" points="89,-90.5 0,-90.5 0,-71.5 89,-71.5 89,-90.5"/>
<text text-anchor="middle" x="44.5" y="-78.5" font-family="Helvetica,sans-Serif" font-size="10.00">fl::UISliderImpl</text>
</a>
</g>
</g>
<!-- Node4&#45;&gt;Node3 -->
<g id="edge3_Node000003_Node000004" class="edge">
<title>Node4&#45;&gt;Node3</title>
<g id="a_edge3_Node000003_Node000004"><a xlink:title=" ">
<path fill="none" stroke="#63b8ff" d="M73.28,-67.42C105.28,-53.43 156.1,-31.22 183.84,-19.09"/>
<polygon fill="#63b8ff" stroke="#63b8ff" points="71.76,-64.27 64,-71.48 74.56,-70.68 71.76,-64.27"/>
</a>
</g>
</g>
<!-- Node5 -->
<g id="Node000005" class="node">
<title>Node5</title>
<g id="a_Node000005"><a xlink:href="../../d1/d5d/classfl_1_1_function_list.html" target="_top" xlink:title=" ">
<polygon fill="white" stroke="#666666" points="217.5,-96 107.5,-96 107.5,-66 217.5,-66 217.5,-96"/>
<text text-anchor="start" x="115.5" y="-84" font-family="Helvetica,sans-Serif" font-size="10.00">fl::FunctionList&lt; fl</text>
<text text-anchor="middle" x="162.5" y="-73" font-family="Helvetica,sans-Serif" font-size="10.00">::UISlider &amp;, float &gt;</text>
</a>
</g>
</g>
<!-- Node5&#45;&gt;Node3 -->
<g id="edge4_Node000003_Node000005" class="edge">
<title>Node5&#45;&gt;Node3</title>
<g id="a_edge4_Node000003_Node000005"><a xlink:title=" ">
<path fill="none" stroke="#9a32cd" stroke-dasharray="5,2" d="M158.44,-55.72C158.43,-49.32 159.44,-42.63 162.5,-37 166.8,-29.11 174.56,-23.21 182.19,-19.01"/>
<polygon fill="#9a32cd" stroke="#9a32cd" points="154.97,-56.3 159.24,-66 161.95,-55.75 154.97,-56.3"/>
</a>
</g>
<text text-anchor="middle" x="193" y="-40" font-family="Helvetica,sans-Serif" font-size="10.00" fill="grey"> mCallbacks</text>
</g>
<!-- Node6 -->
<g id="Node000006" class="node">
<title>Node6</title>
<g id="a_Node000006"><a xlink:href="../../d7/de3/classfl_1_1_function_list_base.html" target="_top" xlink:title=" ">
<polygon fill="#fff0f0" stroke="red" points="162.5,-229 4.5,-229 4.5,-199 162.5,-199 162.5,-229"/>
<text text-anchor="start" x="12.5" y="-217" font-family="Helvetica,sans-Serif" font-size="10.00">fl::FunctionListBase</text>
<text text-anchor="middle" x="83.5" y="-206" font-family="Helvetica,sans-Serif" font-size="10.00">&lt; function&lt; void(Args...)&gt; &gt;</text>
</a>
</g>
</g>
<!-- Node6&#45;&gt;Node5 -->
<g id="edge5_Node000005_Node000006" class="edge">
<title>Node6&#45;&gt;Node5</title>
<g id="a_edge5_Node000005_Node000006"><a xlink:title=" ">
<path fill="none" stroke="#63b8ff" d="M81.55,-188.58C81.46,-174.51 83.19,-156.91 90.5,-143 101.02,-122.99 121.12,-106.82 137.41,-96.18"/>
<polygon fill="#63b8ff" stroke="#63b8ff" points="78.06,-189.11 81.93,-198.98 85.06,-188.85 78.06,-189.11"/>
</a>
</g>
</g>
<!-- Node24 -->
<g id="Node000024" class="node">
<title>Node24</title>
<g id="a_Node000024"><a xlink:href="../../d1/d5d/classfl_1_1_function_list.html" target="_top" xlink:title=" ">
<polygon fill="white" stroke="#666666" points="231,-162 100,-162 100,-143 231,-143 231,-162"/>
<text text-anchor="middle" x="165.5" y="-150" font-family="Helvetica,sans-Serif" font-size="10.00">fl::FunctionList&lt; Args &gt;</text>
</a>
</g>
</g>
<!-- Node6&#45;&gt;Node24 -->
<g id="edge7_Node000024_Node000006" class="edge">
<title>Node6&#45;&gt;Node24</title>
<g id="a_edge7_Node000024_Node000006"><a xlink:title=" ">
<path fill="none" stroke="#63b8ff" d="M111.09,-192.98C125.53,-182.5 142.47,-170.21 153.57,-162.16"/>
<polygon fill="#63b8ff" stroke="#63b8ff" points="108.97,-190.19 102.93,-198.9 113.08,-195.86 108.97,-190.19"/>
</a>
</g>
</g>
<!-- Node24&#45;&gt;Node5 -->
<g id="edge6_Node000005_Node000024" class="edge">
<title>Node24&#45;&gt;Node5</title>
<g id="a_edge6_Node000005_Node000024"><a xlink:title=" ">
<path fill="none" stroke="orange" stroke-dasharray="5,2" d="M164.69,-132.71C164.19,-121.19 163.57,-106.68 163.11,-96.14"/>
<polygon fill="orange" stroke="orange" points="161.2,-133.14 165.13,-142.98 168.2,-132.84 161.2,-133.14"/>
</a>
</g>
<text text-anchor="middle" x="222" y="-117" font-family="Helvetica,sans-Serif" font-size="10.00" fill="grey"> &lt; fl::UISlider &amp;, float &gt;</text>
</g>
</g>
</svg>
</svg>

<style type='text/css'>
<![CDATA[
[data-mouse-over-selected='false'] { opacity: 0.7; }
[data-mouse-over-selected='true']  { opacity: 1.0; }
]]>
</style>
<script type="application/ecmascript"><![CDATA[
document.addEventListener('DOMContentLoaded', (event) => {
  highlightEdges();
  highlightAdjacentNodes();
});
]]></script>
</svg>
