<?xml version="1.0" encoding="UTF-8" standalone="no"?>
<!DOCTYPE svg PUBLIC "-//W3C//DTD SVG 1.1//EN"
 "http://www.w3.org/Graphics/SVG/1.1/DTD/svg11.dtd">
<!-- Generated by graphviz version 2.43.0 (0)
 -->
<!-- Title: calculate_unscaled_power_mW Pages: 1 -->
<svg width="418pt" height="64pt"
 viewBox="0.00 0.00 418.00 64.00" xmlns="http://www.w3.org/2000/svg" xmlns:xlink="http://www.w3.org/1999/xlink">
<g id="graph0" class="graph" transform="scale(1 1) rotate(0) translate(4 60)">
<title>calculate_unscaled_power_mW</title>
<!-- Node1 -->
<g id="Node000001" class="node">
<title>Node1</title>
<g id="a_Node000001"><a xlink:title=" ">
<polygon fill="#999999" stroke="#666666" points="110,-42.5 0,-42.5 0,-12.5 110,-12.5 110,-42.5"/>
<text text-anchor="start" x="8" y="-30.5" font-family="Helvetica,sans-Serif" font-size="10.00">calculate_unscaled</text>
<text text-anchor="middle" x="55" y="-19.5" font-family="Helvetica,sans-Serif" font-size="10.00">_power_mW</text>
</a>
</g>
</g>
<!-- Node2 -->
<g id="Node000002" class="node">
<title>Node2</title>
<g id="a_Node000002"><a xlink:href="../../d1/d2a/power__mgt_8cpp_8hpp_afe71d257dc9aca526178a992761bb812.html#afe71d257dc9aca526178a992761bb812" target="_top" xlink:title="Global RGB power model (initialized to WS2812 @ 5V defaults, linear response)">
<polygon fill="white" stroke="#666666" points="240.5,-56 157.5,-56 157.5,-37 240.5,-37 240.5,-56"/>
<text text-anchor="middle" x="199" y="-44" font-family="Helvetica,sans-Serif" font-size="10.00">gPowerModel</text>
</a>
</g>
</g>
<!-- Node1&#45;&gt;Node2 -->
<g id="edge1_Node000001_Node000002" class="edge">
<title>Node1&#45;&gt;Node2</title>
<g id="a_edge1_Node000001_Node000002"><a xlink:title=" ">
<path fill="none" stroke="#63b8ff" d="M110.09,-34.74C122.34,-36.38 135.29,-38.11 147.39,-39.73"/>
<polygon fill="#63b8ff" stroke="#63b8ff" points="146.94,-43.2 157.31,-41.06 147.87,-36.26 146.94,-43.2"/>
</a>
</g>
</g>
<!-- Node4 -->
<g id="Node000004" class="node">
<title>Node4</title>
<g id="a_Node000004"><a xlink:href="../../d1/d2a/power__mgt_8cpp_8hpp_adcd9338466b0f22161f7281bfc7cdcdf.html#adcd9338466b0f22161f7281bfc7cdcdf" target="_top" xlink:title=" ">
<polygon fill="white" stroke="#666666" points="252,-19 146,-19 146,0 252,0 252,-19"/>
<text text-anchor="middle" x="199" y="-7" font-family="Helvetica,sans-Serif" font-size="10.00">map_power_value</text>
</a>
</g>
</g>
<!-- Node1&#45;&gt;Node4 -->
<g id="edge3_Node000001_Node000004" class="edge">
<title>Node1&#45;&gt;Node4</title>
<g id="a_edge3_Node000001_Node000004"><a xlink:title=" ">
<path fill="none" stroke="#63b8ff" d="M110.09,-20.64C118.54,-19.57 127.33,-18.46 135.94,-17.37"/>
<polygon fill="#63b8ff" stroke="#63b8ff" points="136.46,-20.83 145.94,-16.1 135.57,-13.89 136.46,-20.83"/>
</a>
</g>
</g>
<!-- Node3 -->
<g id="Node000003" class="node">
<title>Node3</title>
<g id="a_Node000003"><a xlink:href="../../d9/d5b/classfl_1_1_singleton_a47fdc044003ec27f9e9833f7f5418e01.html#a47fdc044003ec27f9e9833f7f5418e01" target="_top" xlink:title=" ">
<polygon fill="white" stroke="#666666" points="410,-56 288,-56 288,-37 410,-37 410,-56"/>
<text text-anchor="middle" x="349" y="-44" font-family="Helvetica,sans-Serif" font-size="10.00">fl::Singleton::instance</text>
</a>
</g>
</g>
<!-- Node2&#45;&gt;Node3 -->
<g id="edge2_Node000002_Node000003" class="edge">
<title>Node2&#45;&gt;Node3</title>
<g id="a_edge2_Node000002_Node000003"><a xlink:title=" ">
<path fill="none" stroke="#63b8ff" d="M240.83,-46.5C252.31,-46.5 265.13,-46.5 277.8,-46.5"/>
<polygon fill="#63b8ff" stroke="#63b8ff" points="277.9,-50 287.9,-46.5 277.9,-43 277.9,-50"/>
</a>
</g>
</g>
</g>
</svg>
