<?xml version="1.0" encoding="UTF-8" standalone="no"?>
<!DOCTYPE svg PUBLIC "-//W3C//DTD SVG 1.1//EN"
 "http://www.w3.org/Graphics/SVG/1.1/DTD/svg11.dtd">
<!-- Generated by graphviz version 2.43.0 (0)
 -->
<!-- Title: fl::VectorSetFixed::emplace Pages: 1 -->
<svg width="407pt" height="150pt"
 viewBox="0.00 0.00 407.00 150.00" xmlns="http://www.w3.org/2000/svg" xmlns:xlink="http://www.w3.org/1999/xlink">

<svg id="main" version="1.1" xmlns="http://www.w3.org/2000/svg" xmlns:xlink="http://www.w3.org/1999/xlink" xml:space="preserve">

<style type="text/css"><![CDATA[
.node, .edge {opacity: 0.7;}
.node.selected, .edge.selected {opacity: 1;}
.edge:hover path { stroke: red; }
.edge:hover polygon { stroke: red; fill: red; }
]]></style>
<script type="application/ecmascript" xlink:href="../../svg.min.js"/>
<svg id="graph" class="graph">
<g id="graph0" class="graph" transform="scale(1 1) rotate(0) translate(4 146)">
<title>fl::VectorSetFixed::emplace</title>
<!-- Node1 -->
<g id="Node000001" class="node">
<title>Node1</title>
<g id="a_Node000001"><a xlink:title=" ">
<polygon fill="#999999" stroke="#666666" points="101,-82.5 0,-82.5 0,-52.5 101,-52.5 101,-82.5"/>
<text text-anchor="start" x="8" y="-70.5" font-family="Helvetica,sans-Serif" font-size="10.00">fl::VectorSetFixed</text>
<text text-anchor="middle" x="50.5" y="-59.5" font-family="Helvetica,sans-Serif" font-size="10.00">::emplace</text>
</a>
</g>
</g>
<!-- Node2 -->
<g id="Node000002" class="node">
<title>Node2</title>
<g id="a_Node000002"><a xlink:href="../../dc/d79/classfl_1_1_vector_set_fixed_a34d29f3a6405705cb9762d2d67dd5d7f.html#a34d29f3a6405705cb9762d2d67dd5d7f" target="_top" xlink:title=" ">
<polygon fill="white" stroke="#666666" points="399,-142 274,-142 274,-123 399,-123 399,-142"/>
<text text-anchor="middle" x="336.5" y="-130" font-family="Helvetica,sans-Serif" font-size="10.00">fl::VectorSetFixed::end</text>
</a>
</g>
</g>
<!-- Node1&#45;&gt;Node2 -->
<g id="edge1_Node000001_Node000002" class="edge">
<title>Node1&#45;&gt;Node2</title>
<g id="a_edge1_Node000001_Node000002"><a xlink:title=" ">
<path fill="none" stroke="#63b8ff" d="M73.64,-82.61C90.29,-93.16 114.1,-106.55 137,-113.5 177.9,-125.91 225.52,-130.77 263.87,-132.47"/>
<polygon fill="#63b8ff" stroke="#63b8ff" points="263.79,-135.97 273.91,-132.86 264.06,-128.98 263.79,-135.97"/>
</a>
</g>
</g>
<!-- Node3 -->
<g id="Node000003" class="node">
<title>Node3</title>
<g id="a_Node000003"><a xlink:href="../../dc/d79/classfl_1_1_vector_set_fixed_ac9899c290377ff8e173263f30a6760ef.html#ac9899c290377ff8e173263f30a6760ef" target="_top" xlink:title=" ">
<polygon fill="white" stroke="#666666" points="238,-104.5 137,-104.5 137,-74.5 238,-74.5 238,-104.5"/>
<text text-anchor="start" x="145" y="-92.5" font-family="Helvetica,sans-Serif" font-size="10.00">fl::VectorSetFixed</text>
<text text-anchor="middle" x="187.5" y="-81.5" font-family="Helvetica,sans-Serif" font-size="10.00">::find</text>
</a>
</g>
</g>
<!-- Node1&#45;&gt;Node3 -->
<g id="edge2_Node000001_Node000003" class="edge">
<title>Node1&#45;&gt;Node3</title>
<g id="a_edge2_Node000001_Node000003"><a xlink:title=" ">
<path fill="none" stroke="#63b8ff" d="M101,-75.57C109.33,-76.92 118.06,-78.35 126.61,-79.74"/>
<polygon fill="#63b8ff" stroke="#63b8ff" points="126.12,-83.21 136.55,-81.36 127.24,-76.3 126.12,-83.21"/>
</a>
</g>
</g>
<!-- Node5 -->
<g id="Node000005" class="node">
<title>Node5</title>
<g id="a_Node000005"><a xlink:href="../../da/d3c/namespacefl_1_1fl_a0bddf371925d8c4e94b88e9d7b35d259.html#a0bddf371925d8c4e94b88e9d7b35d259" target="_top" xlink:title=" ">
<polygon fill="white" stroke="#666666" points="226.5,-56 148.5,-56 148.5,-37 226.5,-37 226.5,-56"/>
<text text-anchor="middle" x="187.5" y="-44" font-family="Helvetica,sans-Serif" font-size="10.00">fl::fl::forward</text>
</a>
</g>
</g>
<!-- Node1&#45;&gt;Node5 -->
<g id="edge6_Node000001_Node000005" class="edge">
<title>Node1&#45;&gt;Node5</title>
<g id="a_edge6_Node000001_Node000005"><a xlink:title=" ">
<path fill="none" stroke="#63b8ff" d="M101,-59.8C113.23,-57.9 126.31,-55.86 138.47,-53.97"/>
<polygon fill="#63b8ff" stroke="#63b8ff" points="139.08,-57.42 148.42,-52.42 138,-50.5 139.08,-57.42"/>
</a>
</g>
</g>
<!-- Node6 -->
<g id="Node000006" class="node">
<title>Node6</title>
<g id="a_Node000006"><a xlink:href="../../da/d3c/namespacefl_1_1fl_a14315b21314f12a4c40dde841fcc4c8a.html#a14315b21314f12a4c40dde841fcc4c8a" target="_top" xlink:title=" ">
<polygon fill="white" stroke="#666666" points="221.5,-19 153.5,-19 153.5,0 221.5,0 221.5,-19"/>
<text text-anchor="middle" x="187.5" y="-7" font-family="Helvetica,sans-Serif" font-size="10.00">fl::fl::move</text>
</a>
</g>
</g>
<!-- Node1&#45;&gt;Node6 -->
<g id="edge7_Node000001_Node000006" class="edge">
<title>Node1&#45;&gt;Node6</title>
<g id="a_edge7_Node000001_Node000006"><a xlink:title=" ">
<path fill="none" stroke="#63b8ff" d="M82.07,-52.39C98.25,-44.6 118.53,-35.16 137,-27.5 140.94,-25.86 145.09,-24.23 149.25,-22.64"/>
<polygon fill="#63b8ff" stroke="#63b8ff" points="150.69,-25.84 158.84,-19.07 148.25,-19.28 150.69,-25.84"/>
</a>
</g>
</g>
<!-- Node3&#45;&gt;Node2 -->
<g id="edge5_Node000003_Node000002" class="edge">
<title>Node3&#45;&gt;Node2</title>
<g id="a_edge5_Node000003_Node000002"><a xlink:title=" ">
<path fill="none" stroke="#63b8ff" d="M238.27,-104.06C256.09,-109.27 276,-115.1 293.14,-120.11"/>
<polygon fill="#63b8ff" stroke="#63b8ff" points="292.3,-123.51 302.88,-122.96 294.26,-116.79 292.3,-123.51"/>
</a>
</g>
</g>
<!-- Node4 -->
<g id="Node000004" class="node">
<title>Node4</title>
<g id="a_Node000004"><a xlink:href="../../dc/d79/classfl_1_1_vector_set_fixed_a90883f86a01a1494396e87bfbf799f4b.html#a90883f86a01a1494396e87bfbf799f4b" target="_top" xlink:title=" ">
<polygon fill="white" stroke="#666666" points="387,-86.5 286,-86.5 286,-56.5 387,-56.5 387,-86.5"/>
<text text-anchor="start" x="294" y="-74.5" font-family="Helvetica,sans-Serif" font-size="10.00">fl::VectorSetFixed</text>
<text text-anchor="middle" x="336.5" y="-63.5" font-family="Helvetica,sans-Serif" font-size="10.00">::begin</text>
</a>
</g>
</g>
<!-- Node3&#45;&gt;Node4 -->
<g id="edge3_Node000003_Node000004" class="edge">
<title>Node3&#45;&gt;Node4</title>
<g id="a_edge3_Node000003_Node000004"><a xlink:title=" ">
<path fill="none" stroke="#63b8ff" d="M238.27,-83.41C250.24,-81.94 263.16,-80.36 275.54,-78.84"/>
<polygon fill="#63b8ff" stroke="#63b8ff" points="276.28,-82.28 285.78,-77.59 275.43,-75.33 276.28,-82.28"/>
</a>
</g>
</g>
<!-- Node4&#45;&gt;Node4 -->
<g id="edge4_Node000004_Node000004" class="edge">
<title>Node4&#45;&gt;Node4</title>
<g id="a_edge4_Node000004_Node000004"><a xlink:title=" ">
<path fill="none" stroke="#63b8ff" d="M310.48,-86.78C304.7,-95.91 313.38,-104.5 336.5,-104.5 350.23,-104.5 358.87,-101.47 362.41,-97.1"/>
<polygon fill="#63b8ff" stroke="#63b8ff" points="365.91,-96.81 362.52,-86.78 358.91,-96.74 365.91,-96.81"/>
</a>
</g>
</g>
</g>
</svg>
</svg>

<style type='text/css'>
<![CDATA[
[data-mouse-over-selected='false'] { opacity: 0.7; }
[data-mouse-over-selected='true']  { opacity: 1.0; }
]]>
</style>
<script type="application/ecmascript"><![CDATA[
document.addEventListener('DOMContentLoaded', (event) => {
  highlightEdges();
  highlightAdjacentNodes();
});
]]></script>
</svg>
