<?xml version="1.0" encoding="UTF-8" standalone="no"?>
<!DOCTYPE svg PUBLIC "-//W3C//DTD SVG 1.1//EN"
 "http://www.w3.org/Graphics/SVG/1.1/DTD/svg11.dtd">
<!-- Generated by graphviz version 2.43.0 (0)
 -->
<!-- Title: fx/frame.h Pages: 1 -->
<svg width="862pt" height="192pt"
 viewBox="0.00 0.00 862.13 192.00" xmlns="http://www.w3.org/2000/svg" xmlns:xlink="http://www.w3.org/1999/xlink">
<g id="graph0" class="graph" transform="scale(1 1) rotate(0) translate(4 188)">
<title>fx/frame.h</title>
<!-- Node1 -->
<g id="Node000001" class="node">
<title>Node1</title>
<g id="a_Node000001"><a xlink:title=" ">
<polygon fill="#999999" stroke="#666666" points="254.5,-184 186.5,-184 186.5,-165 254.5,-165 254.5,-184"/>
<text text-anchor="middle" x="220.5" y="-172" font-family="Helvetica,sans-Serif" font-size="10.00">fx/frame.h</text>
</a>
</g>
</g>
<!-- Node2 -->
<g id="Node000002" class="node">
<title>Node2</title>
<g id="a_Node000002"><a xlink:title=" ">
<polygon fill="#e0e0e0" stroke="#999999" points="53,-74 0,-74 0,-55 53,-55 53,-74"/>
<text text-anchor="middle" x="26.5" y="-62" font-family="Helvetica,sans-Serif" font-size="10.00">string.h</text>
</a>
</g>
</g>
<!-- Node1&#45;&gt;Node2 -->
<g id="edge1_Node000001_Node000002" class="edge">
<title>Node1&#45;&gt;Node2</title>
<g id="a_edge1_Node000001_Node000002"><a xlink:title=" ">
<path fill="none" stroke="#63b8ff" d="M186.15,-174.26C147,-173.23 83.51,-165.46 45.5,-129 33.44,-117.44 28.95,-98.56 27.32,-84.39"/>
<polygon fill="#63b8ff" stroke="#63b8ff" points="30.8,-83.97 26.54,-74.27 23.82,-84.51 30.8,-83.97"/>
</a>
</g>
</g>
<!-- Node3 -->
<g id="Node000003" class="node">
<title>Node3</title>
<g id="a_Node000003"><a xlink:href="../../df/d2a/namespace_8h.html" target="_top" xlink:title="Implements the FastLED namespace macros.">
<polygon fill="white" stroke="#666666" points="450,-19 359,-19 359,0 450,0 450,-19"/>
<text text-anchor="middle" x="404.5" y="-7" font-family="Helvetica,sans-Serif" font-size="10.00">fl/namespace.h</text>
</a>
</g>
</g>
<!-- Node1&#45;&gt;Node3 -->
<g id="edge2_Node000001_Node000003" class="edge">
<title>Node1&#45;&gt;Node3</title>
<g id="a_edge2_Node000001_Node000003"><a xlink:title=" ">
<path fill="none" stroke="#63b8ff" d="M227.24,-164.78C246.11,-140.49 299.51,-72.73 321.5,-55 337.46,-42.13 357.7,-31.19 374.19,-23.38"/>
<polygon fill="#63b8ff" stroke="#63b8ff" points="375.78,-26.5 383.41,-19.15 372.87,-20.14 375.78,-26.5"/>
</a>
</g>
</g>
<!-- Node4 -->
<g id="Node000004" class="node">
<title>Node4</title>
<g id="a_Node000004"><a xlink:href="../../db/dd1/crgb_8h.html" target="_top" xlink:title="Defines the red, green, and blue (RGB) pixel struct.">
<polygon fill="white" stroke="#666666" points="589,-129 542,-129 542,-110 589,-110 589,-129"/>
<text text-anchor="middle" x="565.5" y="-117" font-family="Helvetica,sans-Serif" font-size="10.00">crgb.h</text>
</a>
</g>
</g>
<!-- Node1&#45;&gt;Node4 -->
<g id="edge3_Node000001_Node000004" class="edge">
<title>Node1&#45;&gt;Node4</title>
<g id="a_edge3_Node000001_Node000004"><a xlink:title=" ">
<path fill="none" stroke="#63b8ff" d="M254.52,-168.27C320.55,-158.13 465.34,-135.89 531.41,-125.74"/>
<polygon fill="#63b8ff" stroke="#63b8ff" points="532.34,-129.14 541.69,-124.16 531.27,-122.22 532.34,-129.14"/>
</a>
</g>
</g>
<!-- Node11 -->
<g id="Node000011" class="node">
<title>Node11</title>
<g id="a_Node000011"><a xlink:href="../../d7/df1/fl_2ptr_8h.html" target="_top" xlink:title=" ">
<polygon fill="white" stroke="#666666" points="244,-129 197,-129 197,-110 244,-110 244,-129"/>
<text text-anchor="middle" x="220.5" y="-117" font-family="Helvetica,sans-Serif" font-size="10.00">fl/ptr.h</text>
</a>
</g>
</g>
<!-- Node1&#45;&gt;Node11 -->
<g id="edge18_Node000001_Node000011" class="edge">
<title>Node1&#45;&gt;Node11</title>
<g id="a_edge18_Node000001_Node000011"><a xlink:title=" ">
<path fill="none" stroke="#63b8ff" d="M220.5,-164.75C220.5,-157.8 220.5,-147.85 220.5,-139.13"/>
<polygon fill="#63b8ff" stroke="#63b8ff" points="224,-139.09 220.5,-129.09 217,-139.09 224,-139.09"/>
</a>
</g>
</g>
<!-- Node14 -->
<g id="Node000014" class="node">
<title>Node14</title>
<g id="a_Node000014"><a xlink:href="../../d2/d6f/fl_2allocator_8h.html" target="_top" xlink:title=" ">
<polygon fill="white" stroke="#666666" points="132,-129 55,-129 55,-110 132,-110 132,-129"/>
<text text-anchor="middle" x="93.5" y="-117" font-family="Helvetica,sans-Serif" font-size="10.00">fl/allocator.h</text>
</a>
</g>
</g>
<!-- Node1&#45;&gt;Node14 -->
<g id="edge25_Node000001_Node000014" class="edge">
<title>Node1&#45;&gt;Node14</title>
<g id="a_edge25_Node000001_Node000014"><a xlink:title=" ">
<path fill="none" stroke="#63b8ff" d="M200.1,-164.98C179.48,-156.38 147.39,-142.99 123.81,-133.15"/>
<polygon fill="#63b8ff" stroke="#63b8ff" points="124.85,-129.79 114.28,-129.17 122.16,-136.25 124.85,-129.79"/>
</a>
</g>
</g>
<!-- Node4&#45;&gt;Node3 -->
<g id="edge8_Node000004_Node000003" class="edge">
<title>Node4&#45;&gt;Node3</title>
<g id="a_edge8_Node000004_Node000003"><a xlink:title=" ">
<path fill="none" stroke="#63b8ff" d="M561.48,-109.88C554.79,-96.38 540.14,-70.25 520.5,-55 500.54,-39.5 474.55,-28.87 452.24,-21.89"/>
<polygon fill="#63b8ff" stroke="#63b8ff" points="453.18,-18.52 442.6,-19.03 451.19,-25.23 453.18,-18.52"/>
</a>
</g>
</g>
<!-- Node5 -->
<g id="Node000005" class="node">
<title>Node5</title>
<g id="a_Node000005"><a xlink:title=" ">
<polygon fill="#e0e0e0" stroke="#999999" points="662,-19 609,-19 609,0 662,0 662,-19"/>
<text text-anchor="middle" x="635.5" y="-7" font-family="Helvetica,sans-Serif" font-size="10.00">stdint.h</text>
</a>
</g>
</g>
<!-- Node4&#45;&gt;Node5 -->
<g id="edge4_Node000004_Node000005" class="edge">
<title>Node4&#45;&gt;Node5</title>
<g id="a_edge4_Node000004_Node000005"><a xlink:title=" ">
<path fill="none" stroke="#63b8ff" d="M589.07,-118.47C650.25,-117.85 811.63,-112.53 844.5,-74 892.83,-17.36 744.08,-10.25 672.13,-10.01"/>
<polygon fill="#63b8ff" stroke="#63b8ff" points="672.1,-6.51 662.11,-10.02 672.11,-13.51 672.1,-6.51"/>
</a>
</g>
</g>
<!-- Node6 -->
<g id="Node000006" class="node">
<title>Node6</title>
<g id="a_Node000006"><a xlink:href="../../d8/dd0/chsv_8h.html" target="_top" xlink:title="Defines the hue, saturation, and value (HSV) pixel struct.">
<polygon fill="white" stroke="#666666" points="615,-74 568,-74 568,-55 615,-55 615,-74"/>
<text text-anchor="middle" x="591.5" y="-62" font-family="Helvetica,sans-Serif" font-size="10.00">chsv.h</text>
</a>
</g>
</g>
<!-- Node4&#45;&gt;Node6 -->
<g id="edge5_Node000004_Node000006" class="edge">
<title>Node4&#45;&gt;Node6</title>
<g id="a_edge5_Node000004_Node000006"><a xlink:title=" ">
<path fill="none" stroke="#63b8ff" d="M569.79,-109.75C573.31,-102.57 578.41,-92.18 582.78,-83.27"/>
<polygon fill="#63b8ff" stroke="#63b8ff" points="586.02,-84.61 587.29,-74.09 579.74,-81.53 586.02,-84.61"/>
</a>
</g>
</g>
<!-- Node7 -->
<g id="Node000007" class="node">
<title>Node7</title>
<g id="a_Node000007"><a xlink:href="../../d2/d6b/src_2color_8h.html" target="_top" xlink:title="Contains definitions for color correction and temperature.">
<polygon fill="white" stroke="#666666" points="379,-74 330,-74 330,-55 379,-55 379,-74"/>
<text text-anchor="middle" x="354.5" y="-62" font-family="Helvetica,sans-Serif" font-size="10.00">color.h</text>
</a>
</g>
</g>
<!-- Node4&#45;&gt;Node7 -->
<g id="edge9_Node000004_Node000007" class="edge">
<title>Node4&#45;&gt;Node7</title>
<g id="a_edge9_Node000004_Node000007"><a xlink:title=" ">
<path fill="none" stroke="#63b8ff" d="M541.71,-112.52C504.39,-103.15 431.93,-84.95 388.93,-74.15"/>
<polygon fill="#63b8ff" stroke="#63b8ff" points="389.74,-70.74 379.18,-71.7 388.03,-77.53 389.74,-70.74"/>
</a>
</g>
</g>
<!-- Node8 -->
<g id="Node000008" class="node">
<title>Node8</title>
<g id="a_Node000008"><a xlink:href="../../d9/ddf/lib8tion_2types_8h.html" target="_top" xlink:title="Defines fractional types used for lib8tion functions.">
<polygon fill="white" stroke="#666666" points="725.5,-74 633.5,-74 633.5,-55 725.5,-55 725.5,-74"/>
<text text-anchor="middle" x="679.5" y="-62" font-family="Helvetica,sans-Serif" font-size="10.00">lib8tion/types.h</text>
</a>
</g>
</g>
<!-- Node4&#45;&gt;Node8 -->
<g id="edge11_Node000004_Node000008" class="edge">
<title>Node4&#45;&gt;Node8</title>
<g id="a_edge11_Node000004_Node000008"><a xlink:title=" ">
<path fill="none" stroke="#63b8ff" d="M583.82,-109.98C602.16,-101.46 630.61,-88.23 651.73,-78.41"/>
<polygon fill="#63b8ff" stroke="#63b8ff" points="653.26,-81.56 660.85,-74.17 650.31,-75.21 653.26,-81.56"/>
</a>
</g>
</g>
<!-- Node9 -->
<g id="Node000009" class="node">
<title>Node9</title>
<g id="a_Node000009"><a xlink:href="../../d8/d2d/fl_2force__inline_8h.html" target="_top" xlink:title=" ">
<polygon fill="white" stroke="#666666" points="835.5,-74 743.5,-74 743.5,-55 835.5,-55 835.5,-74"/>
<text text-anchor="middle" x="789.5" y="-62" font-family="Helvetica,sans-Serif" font-size="10.00">fl/force_inline.h</text>
</a>
</g>
</g>
<!-- Node4&#45;&gt;Node9 -->
<g id="edge14_Node000004_Node000009" class="edge">
<title>Node4&#45;&gt;Node9</title>
<g id="a_edge14_Node000004_Node000009"><a xlink:title=" ">
<path fill="none" stroke="#63b8ff" d="M589.05,-112.93C625.57,-104.29 696.54,-87.49 743.49,-76.39"/>
<polygon fill="#63b8ff" stroke="#63b8ff" points="744.48,-79.75 753.41,-74.04 742.87,-72.94 744.48,-79.75"/>
</a>
</g>
</g>
<!-- Node10 -->
<g id="Node000010" class="node">
<title>Node10</title>
<g id="a_Node000010"><a xlink:href="../../d8/d0c/template__magic_8h.html" target="_top" xlink:title=" ">
<polygon fill="white" stroke="#666666" points="511.5,-74 397.5,-74 397.5,-55 511.5,-55 511.5,-74"/>
<text text-anchor="middle" x="454.5" y="-62" font-family="Helvetica,sans-Serif" font-size="10.00">fl/template_magic.h</text>
</a>
</g>
</g>
<!-- Node4&#45;&gt;Node10 -->
<g id="edge15_Node000004_Node000010" class="edge">
<title>Node4&#45;&gt;Node10</title>
<g id="a_edge15_Node000004_Node000010"><a xlink:title=" ">
<path fill="none" stroke="#63b8ff" d="M547.67,-109.98C529.89,-101.5 502.35,-88.35 481.82,-78.54"/>
<polygon fill="#63b8ff" stroke="#63b8ff" points="483.19,-75.32 472.66,-74.17 480.17,-81.64 483.19,-75.32"/>
</a>
</g>
</g>
<!-- Node6&#45;&gt;Node3 -->
<g id="edge7_Node000006_Node000003" class="edge">
<title>Node6&#45;&gt;Node3</title>
<g id="a_edge7_Node000006_Node000003"><a xlink:title=" ">
<path fill="none" stroke="#63b8ff" d="M567.82,-56.79C536.91,-48.03 482.37,-32.57 444.88,-21.94"/>
<polygon fill="#63b8ff" stroke="#63b8ff" points="445.37,-18.44 434.79,-19.09 443.46,-25.18 445.37,-18.44"/>
</a>
</g>
</g>
<!-- Node6&#45;&gt;Node5 -->
<g id="edge6_Node000006_Node000005" class="edge">
<title>Node6&#45;&gt;Node5</title>
<g id="a_edge6_Node000006_Node000005"><a xlink:title=" ">
<path fill="none" stroke="#63b8ff" d="M598.77,-54.75C605.04,-47.18 614.29,-36.05 621.93,-26.84"/>
<polygon fill="#63b8ff" stroke="#63b8ff" points="624.67,-29.02 628.37,-19.09 619.29,-24.55 624.67,-29.02"/>
</a>
</g>
</g>
<!-- Node7&#45;&gt;Node3 -->
<g id="edge10_Node000007_Node000003" class="edge">
<title>Node7&#45;&gt;Node3</title>
<g id="a_edge10_Node000007_Node000003"><a xlink:title=" ">
<path fill="none" stroke="#63b8ff" d="M362.76,-54.75C369.96,-47.11 380.61,-35.82 389.35,-26.56"/>
<polygon fill="#63b8ff" stroke="#63b8ff" points="392.08,-28.76 396.4,-19.09 386.99,-23.96 392.08,-28.76"/>
</a>
</g>
</g>
<!-- Node8&#45;&gt;Node3 -->
<g id="edge13_Node000008_Node000003" class="edge">
<title>Node8&#45;&gt;Node3</title>
<g id="a_edge13_Node000008_Node000003"><a xlink:title=" ">
<path fill="none" stroke="#63b8ff" d="M635.32,-54.98C587.35,-45.74 510.69,-30.97 459.02,-21.01"/>
<polygon fill="#63b8ff" stroke="#63b8ff" points="459.51,-17.54 449.03,-19.08 458.19,-24.41 459.51,-17.54"/>
</a>
</g>
</g>
<!-- Node8&#45;&gt;Node5 -->
<g id="edge12_Node000008_Node000005" class="edge">
<title>Node8&#45;&gt;Node5</title>
<g id="a_edge12_Node000008_Node000005"><a xlink:title=" ">
<path fill="none" stroke="#63b8ff" d="M672.23,-54.75C665.96,-47.18 656.71,-36.05 649.07,-26.84"/>
<polygon fill="#63b8ff" stroke="#63b8ff" points="651.71,-24.55 642.63,-19.09 646.33,-29.02 651.71,-24.55"/>
</a>
</g>
</g>
<!-- Node10&#45;&gt;Node3 -->
<g id="edge17_Node000010_Node000003" class="edge">
<title>Node10&#45;&gt;Node3</title>
<g id="a_edge17_Node000010_Node000003"><a xlink:title=" ">
<path fill="none" stroke="#63b8ff" d="M446.24,-54.75C439.04,-47.11 428.39,-35.82 419.65,-26.56"/>
<polygon fill="#63b8ff" stroke="#63b8ff" points="422.01,-23.96 412.6,-19.09 416.92,-28.76 422.01,-23.96"/>
</a>
</g>
</g>
<!-- Node10&#45;&gt;Node5 -->
<g id="edge16_Node000010_Node000005" class="edge">
<title>Node10&#45;&gt;Node5</title>
<g id="a_edge16_Node000010_Node000005"><a xlink:title=" ">
<path fill="none" stroke="#63b8ff" d="M483.58,-54.98C514.92,-45.81 564.85,-31.19 598.85,-21.23"/>
<polygon fill="#63b8ff" stroke="#63b8ff" points="600.24,-24.47 608.85,-18.3 598.27,-17.75 600.24,-24.47"/>
</a>
</g>
</g>
<!-- Node11&#45;&gt;Node3 -->
<g id="edge20_Node000011_Node000003" class="edge">
<title>Node11&#45;&gt;Node3</title>
<g id="a_edge20_Node000011_Node000003"><a xlink:title=" ">
<path fill="none" stroke="#63b8ff" d="M227.49,-109.98C238.84,-96.63 262.53,-70.69 287.5,-55 310.69,-40.43 339.39,-29.42 362.57,-22"/>
<polygon fill="#63b8ff" stroke="#63b8ff" points="363.61,-25.34 372.13,-19.04 361.54,-18.65 363.61,-25.34"/>
</a>
</g>
</g>
<!-- Node11&#45;&gt;Node10 -->
<g id="edge24_Node000011_Node000010" class="edge">
<title>Node11&#45;&gt;Node10</title>
<g id="a_edge24_Node000011_Node000010"><a xlink:title=" ">
<path fill="none" stroke="#63b8ff" d="M244.22,-113.13C282.27,-104.51 357.66,-87.43 407.06,-76.24"/>
<polygon fill="#63b8ff" stroke="#63b8ff" points="407.9,-79.64 416.88,-74.02 406.36,-72.82 407.9,-79.64"/>
</a>
</g>
</g>
<!-- Node12 -->
<g id="Node000012" class="node">
<title>Node12</title>
<g id="a_Node000012"><a xlink:title=" ">
<polygon fill="#e0e0e0" stroke="#999999" points="147.5,-19 91.5,-19 91.5,0 147.5,0 147.5,-19"/>
<text text-anchor="middle" x="119.5" y="-7" font-family="Helvetica,sans-Serif" font-size="10.00">stddef.h</text>
</a>
</g>
</g>
<!-- Node11&#45;&gt;Node12 -->
<g id="edge19_Node000011_Node000012" class="edge">
<title>Node11&#45;&gt;Node12</title>
<g id="a_edge19_Node000011_Node000012"><a xlink:title=" ">
<path fill="none" stroke="#63b8ff" d="M196.73,-111.22C178.32,-104.41 153.51,-92.48 138.5,-74 128.18,-61.3 123.47,-43.12 121.31,-29.46"/>
<polygon fill="#63b8ff" stroke="#63b8ff" points="124.75,-28.76 120.04,-19.28 117.8,-29.63 124.75,-28.76"/>
</a>
</g>
</g>
<!-- Node13 -->
<g id="Node000013" class="node">
<title>Node13</title>
<g id="a_Node000013"><a xlink:href="../../df/d28/fl_2scoped__ptr_8h.html" target="_top" xlink:title=" ">
<polygon fill="white" stroke="#666666" points="235,-74 148,-74 148,-55 235,-55 235,-74"/>
<text text-anchor="middle" x="191.5" y="-62" font-family="Helvetica,sans-Serif" font-size="10.00">fl/scoped_ptr.h</text>
</a>
</g>
</g>
<!-- Node11&#45;&gt;Node13 -->
<g id="edge21_Node000011_Node000013" class="edge">
<title>Node11&#45;&gt;Node13</title>
<g id="a_edge21_Node000011_Node000013"><a xlink:title=" ">
<path fill="none" stroke="#63b8ff" d="M215.71,-109.75C211.74,-102.49 205.97,-91.95 201.07,-82.98"/>
<polygon fill="#63b8ff" stroke="#63b8ff" points="204.07,-81.18 196.2,-74.09 197.93,-84.54 204.07,-81.18"/>
</a>
</g>
</g>
<!-- Node13&#45;&gt;Node3 -->
<g id="edge23_Node000013_Node000003" class="edge">
<title>Node13&#45;&gt;Node3</title>
<g id="a_edge23_Node000013_Node000003"><a xlink:title=" ">
<path fill="none" stroke="#63b8ff" d="M225.72,-54.98C262.26,-45.89 320.28,-31.46 360.26,-21.51"/>
<polygon fill="#63b8ff" stroke="#63b8ff" points="361.15,-24.89 370.01,-19.08 359.46,-18.1 361.15,-24.89"/>
</a>
</g>
</g>
<!-- Node13&#45;&gt;Node12 -->
<g id="edge22_Node000013_Node000012" class="edge">
<title>Node13&#45;&gt;Node12</title>
<g id="a_edge22_Node000013_Node000012"><a xlink:title=" ">
<path fill="none" stroke="#63b8ff" d="M179.93,-54.98C169.08,-47 152.62,-34.88 139.62,-25.31"/>
<polygon fill="#63b8ff" stroke="#63b8ff" points="141.41,-22.28 131.28,-19.17 137.26,-27.92 141.41,-22.28"/>
</a>
</g>
</g>
<!-- Node14&#45;&gt;Node2 -->
<g id="edge27_Node000014_Node000002" class="edge">
<title>Node14&#45;&gt;Node2</title>
<g id="a_edge27_Node000014_Node000002"><a xlink:title=" ">
<path fill="none" stroke="#63b8ff" d="M82.74,-109.98C72.73,-102.07 57.61,-90.11 45.57,-80.58"/>
<polygon fill="#63b8ff" stroke="#63b8ff" points="47.47,-77.63 37.46,-74.17 43.13,-83.12 47.47,-77.63"/>
</a>
</g>
</g>
<!-- Node14&#45;&gt;Node12 -->
<g id="edge26_Node000014_Node000012" class="edge">
<title>Node14&#45;&gt;Node12</title>
<g id="a_edge26_Node000014_Node000012"><a xlink:title=" ">
<path fill="none" stroke="#63b8ff" d="M94.81,-109.8C96.74,-97.5 100.64,-74.37 105.5,-55 107.67,-46.36 110.56,-36.93 113.15,-28.98"/>
<polygon fill="#63b8ff" stroke="#63b8ff" points="116.54,-29.87 116.4,-19.28 109.9,-27.65 116.54,-29.87"/>
</a>
</g>
</g>
</g>
</svg>
