<?xml version="1.0" encoding="UTF-8" standalone="no"?>
<!DOCTYPE svg PUBLIC "-//W3C//DTD SVG 1.1//EN"
 "http://www.w3.org/Graphics/SVG/1.1/DTD/svg11.dtd">
<!-- Generated by graphviz version 2.43.0 (0)
 -->
<!-- Title: fl::detail::JsonToIntegerVisitor::operator() Pages: 1 -->
<svg width="637pt" height="293pt"
 viewBox="0.00 0.00 637.00 293.00" xmlns="http://www.w3.org/2000/svg" xmlns:xlink="http://www.w3.org/1999/xlink">
<g id="graph0" class="graph" transform="scale(1 1) rotate(0) translate(4 289)">
<title>fl::detail::JsonToIntegerVisitor::operator()</title>
<!-- Node1 -->
<g id="Node000001" class="node">
<title>Node1</title>
<g id="a_Node000001"><a xlink:title=" ">
<polygon fill="#999999" stroke="#666666" points="128,-97.5 0,-97.5 0,-67.5 128,-67.5 128,-97.5"/>
<text text-anchor="start" x="8" y="-85.5" font-family="Helvetica,sans-Serif" font-size="10.00">fl::detail::JsonToInteger</text>
<text text-anchor="middle" x="64" y="-74.5" font-family="Helvetica,sans-Serif" font-size="10.00">Visitor::operator()</text>
</a>
</g>
</g>
<!-- Node2 -->
<g id="Node000002" class="node">
<title>Node2</title>
<g id="a_Node000002"><a xlink:href="../../de/d66/classfl_1_1basic__string_adc70863b5a29972d3e45c5e5b31e6686.html#adc70863b5a29972d3e45c5e5b31e6686" target="_top" xlink:title=" ">
<polygon fill="white" stroke="#666666" points="280,-149 164,-149 164,-130 280,-130 280,-149"/>
<text text-anchor="middle" x="222" y="-137" font-family="Helvetica,sans-Serif" font-size="10.00">fl::basic_string::c_str</text>
</a>
</g>
</g>
<!-- Node1&#45;&gt;Node2 -->
<g id="edge1_Node000001_Node000002" class="edge">
<title>Node1&#45;&gt;Node2</title>
<g id="a_edge1_Node000001_Node000002"><a xlink:title=" ">
<path fill="none" stroke="#63b8ff" d="M102.93,-97.52C121.3,-104.67 143.72,-113.23 164,-120.5 169.72,-122.55 175.8,-124.65 181.76,-126.68"/>
<polygon fill="#63b8ff" stroke="#63b8ff" points="181.03,-130.12 191.62,-129.99 183.26,-123.49 181.03,-130.12"/>
</a>
</g>
</g>
<!-- Node12 -->
<g id="Node000012" class="node">
<title>Node12</title>
<g id="a_Node000012"><a xlink:href="../../d4/d36/namespacefl_a3cdd970ae1ac06323addaec93ae7d4b9.html#a3cdd970ae1ac06323addaec93ae7d4b9" target="_top" xlink:title=" ">
<polygon fill="white" stroke="#666666" points="245.5,-111 198.5,-111 198.5,-92 245.5,-92 245.5,-111"/>
<text text-anchor="middle" x="222" y="-99" font-family="Helvetica,sans-Serif" font-size="10.00">fl::end</text>
</a>
</g>
</g>
<!-- Node1&#45;&gt;Node12 -->
<g id="edge17_Node000001_Node000012" class="edge">
<title>Node1&#45;&gt;Node12</title>
<g id="a_edge17_Node000001_Node000012"><a xlink:title=" ">
<path fill="none" stroke="#63b8ff" d="M128,-90.17C148.59,-92.68 170.63,-95.36 188.08,-97.49"/>
<polygon fill="#63b8ff" stroke="#63b8ff" points="187.95,-101 198.3,-98.74 188.8,-94.05 187.95,-101"/>
</a>
</g>
</g>
<!-- Node13 -->
<g id="Node000013" class="node">
<title>Node13</title>
<g id="a_Node000013"><a xlink:href="../../d4/d36/namespacefl_af0cf9a03d28b70d9ab7b5586984a423f.html#af0cf9a03d28b70d9ab7b5586984a423f" target="_top" xlink:title=" ">
<polygon fill="white" stroke="#666666" points="249,-74 195,-74 195,-55 249,-55 249,-74"/>
<text text-anchor="middle" x="222" y="-62" font-family="Helvetica,sans-Serif" font-size="10.00">fl::strtol</text>
</a>
</g>
</g>
<!-- Node1&#45;&gt;Node13 -->
<g id="edge18_Node000001_Node000013" class="edge">
<title>Node1&#45;&gt;Node13</title>
<g id="a_edge18_Node000001_Node000013"><a xlink:title=" ">
<path fill="none" stroke="#63b8ff" d="M128,-75.23C147.33,-73 167.93,-70.62 184.82,-68.67"/>
<polygon fill="#63b8ff" stroke="#63b8ff" points="185.28,-72.14 194.81,-67.52 184.48,-65.19 185.28,-72.14"/>
</a>
</g>
</g>
<!-- Node16 -->
<g id="Node000016" class="node">
<title>Node16</title>
<g id="a_Node000016"><a xlink:href="../../d4/d36/namespacefl_a00be5c89d851d3cf8f72d28097905f42.html#a00be5c89d851d3cf8f72d28097905f42" target="_top" xlink:title=" ">
<polygon fill="white" stroke="#666666" points="257.5,-19 186.5,-19 186.5,0 257.5,0 257.5,-19"/>
<text text-anchor="middle" x="222" y="-7" font-family="Helvetica,sans-Serif" font-size="10.00">fl::to_string</text>
</a>
</g>
</g>
<!-- Node1&#45;&gt;Node16 -->
<g id="edge21_Node000001_Node000016" class="edge">
<title>Node1&#45;&gt;Node16</title>
<g id="a_edge21_Node000001_Node000016"><a xlink:title=" ">
<path fill="none" stroke="#63b8ff" d="M97.32,-67.37C124.98,-54.43 164.48,-35.95 191.34,-23.38"/>
<polygon fill="#63b8ff" stroke="#63b8ff" points="193.05,-26.44 200.62,-19.04 190.08,-20.1 193.05,-26.44"/>
</a>
</g>
</g>
<!-- Node3 -->
<g id="Node000003" class="node">
<title>Node3</title>
<g id="a_Node000003"><a xlink:href="../../de/d66/classfl_1_1basic__string_ab760f9d7335a2653ad300172b1443599.html#ab760f9d7335a2653ad300172b1443599" target="_top" xlink:title=" ">
<polygon fill="white" stroke="#666666" points="450,-262.5 331,-262.5 331,-232.5 450,-232.5 450,-262.5"/>
<text text-anchor="start" x="339" y="-250.5" font-family="Helvetica,sans-Serif" font-size="10.00">fl::basic_string::basic</text>
<text text-anchor="middle" x="390.5" y="-239.5" font-family="Helvetica,sans-Serif" font-size="10.00">_string</text>
</a>
</g>
</g>
<!-- Node2&#45;&gt;Node3 -->
<g id="edge2_Node000002_Node000003" class="edge">
<title>Node2&#45;&gt;Node3</title>
<g id="a_edge2_Node000002_Node000003"><a xlink:title=" ">
<path fill="none" stroke="#63b8ff" d="M237.78,-149.08C264.56,-166.46 321.67,-203.5 357.68,-226.86"/>
<polygon fill="#63b8ff" stroke="#63b8ff" points="356.05,-229.97 366.34,-232.48 359.86,-224.1 356.05,-229.97"/>
</a>
</g>
</g>
<!-- Node5 -->
<g id="Node000005" class="node">
<title>Node5</title>
<g id="a_Node000005"><a xlink:href="../../de/d66/classfl_1_1basic__string_ad8cf512fb8663f75c77312c6fab902ad.html#ad8cf512fb8663f75c77312c6fab902ad" target="_top" xlink:title=" ">
<polygon fill="white" stroke="#666666" points="462,-187 319,-187 319,-168 462,-168 462,-187"/>
<text text-anchor="middle" x="390.5" y="-175" font-family="Helvetica,sans-Serif" font-size="10.00">fl::basic_string::constData</text>
</a>
</g>
</g>
<!-- Node2&#45;&gt;Node5 -->
<g id="edge5_Node000002_Node000005" class="edge">
<title>Node2&#45;&gt;Node5</title>
<g id="a_edge5_Node000002_Node000005"><a xlink:title=" ">
<path fill="none" stroke="#63b8ff" d="M265.01,-149.09C287.18,-154.15 314.57,-160.4 338.01,-165.75"/>
<polygon fill="#63b8ff" stroke="#63b8ff" points="337.26,-169.17 347.79,-167.98 338.82,-162.34 337.26,-169.17"/>
</a>
</g>
</g>
<!-- Node9 -->
<g id="Node000009" class="node">
<title>Node9</title>
<g id="a_Node000009"><a xlink:href="../../de/d66/classfl_1_1basic__string_a504b37116b93044654059cacba256510.html#a504b37116b93044654059cacba256510" target="_top" xlink:title=" ">
<polygon fill="white" stroke="#666666" points="465,-111 316,-111 316,-92 465,-92 465,-111"/>
<text text-anchor="middle" x="390.5" y="-99" font-family="Helvetica,sans-Serif" font-size="10.00">fl::basic_string::materialize</text>
</a>
</g>
</g>
<!-- Node2&#45;&gt;Node9 -->
<g id="edge12_Node000002_Node000009" class="edge">
<title>Node2&#45;&gt;Node9</title>
<g id="a_edge12_Node000002_Node000009"><a xlink:title=" ">
<path fill="none" stroke="#63b8ff" d="M265.01,-129.91C287.18,-124.85 314.57,-118.6 338.01,-113.25"/>
<polygon fill="#63b8ff" stroke="#63b8ff" points="338.82,-116.66 347.79,-111.02 337.26,-109.83 338.82,-116.66"/>
</a>
</g>
</g>
<!-- Node3&#45;&gt;Node3 -->
<g id="edge3_Node000003_Node000003" class="edge">
<title>Node3&#45;&gt;Node3</title>
<g id="a_edge3_Node000003_Node000003"><a xlink:title=" ">
<path fill="none" stroke="#63b8ff" d="M360.97,-262.78C354.41,-271.91 364.25,-280.5 390.5,-280.5 406.09,-280.5 415.89,-277.47 419.91,-273.1"/>
<polygon fill="#63b8ff" stroke="#63b8ff" points="423.41,-272.82 420.03,-262.78 416.41,-272.73 423.41,-272.82"/>
</a>
</g>
</g>
<!-- Node4 -->
<g id="Node000004" class="node">
<title>Node4</title>
<g id="a_Node000004"><a xlink:href="../../de/d66/classfl_1_1basic__string_af4d95d1e9905eb5fb76e12c2c2bd7ebc.html#af4d95d1e9905eb5fb76e12c2c2bd7ebc" target="_top" xlink:title=" ">
<polygon fill="white" stroke="#666666" points="621.5,-285 508.5,-285 508.5,-266 621.5,-266 621.5,-285"/>
<text text-anchor="middle" x="565" y="-273" font-family="Helvetica,sans-Serif" font-size="10.00">fl::basic_string::size</text>
</a>
</g>
</g>
<!-- Node3&#45;&gt;Node4 -->
<g id="edge4_Node000003_Node000004" class="edge">
<title>Node3&#45;&gt;Node4</title>
<g id="a_edge4_Node000003_Node000004"><a xlink:title=" ">
<path fill="none" stroke="#63b8ff" d="M450.38,-257.06C465.75,-259.55 482.42,-262.26 498.13,-264.81"/>
<polygon fill="#63b8ff" stroke="#63b8ff" points="497.86,-268.31 508.29,-266.46 498.98,-261.4 497.86,-268.31"/>
</a>
</g>
</g>
<!-- Node6 -->
<g id="Node000006" class="node">
<title>Node6</title>
<g id="a_Node000006"><a xlink:href="../../de/d66/classfl_1_1basic__string_aa1a0710da50d0c96c08a13f5a0738ca5.html#aa1a0710da50d0c96c08a13f5a0738ca5" target="_top" xlink:title=" ">
<polygon fill="white" stroke="#666666" points="622.5,-126 507.5,-126 507.5,-107 622.5,-107 622.5,-126"/>
<text text-anchor="middle" x="565" y="-114" font-family="Helvetica,sans-Serif" font-size="10.00">fl::basic_string::data</text>
</a>
</g>
</g>
<!-- Node5&#45;&gt;Node6 -->
<g id="edge6_Node000005_Node000006" class="edge">
<title>Node5&#45;&gt;Node6</title>
<g id="a_edge6_Node000005_Node000006"><a xlink:title=" ">
<path fill="none" stroke="#63b8ff" d="M421.63,-167.98C434.97,-163.68 450.81,-158.47 465,-153.5 486.68,-145.91 510.83,-136.9 529.85,-129.67"/>
<polygon fill="#63b8ff" stroke="#63b8ff" points="531.19,-132.9 539.29,-126.07 528.7,-126.36 531.19,-132.9"/>
</a>
</g>
</g>
<!-- Node7 -->
<g id="Node000007" class="node">
<title>Node7</title>
<g id="a_Node000007"><a xlink:href="../../de/d66/classfl_1_1basic__string_ab069d754c930a7557d1eb72ab925c7db.html#ab069d754c930a7557d1eb72ab925c7db" target="_top" xlink:title=" ">
<polygon fill="white" stroke="#666666" points="625,-192.5 505,-192.5 505,-162.5 625,-162.5 625,-192.5"/>
<text text-anchor="start" x="513" y="-180.5" font-family="Helvetica,sans-Serif" font-size="10.00">fl::basic_string::inline</text>
<text text-anchor="middle" x="565" y="-169.5" font-family="Helvetica,sans-Serif" font-size="10.00">BufferPtr</text>
</a>
</g>
</g>
<!-- Node5&#45;&gt;Node7 -->
<g id="edge9_Node000005_Node000007" class="edge">
<title>Node5&#45;&gt;Node7</title>
<g id="a_edge9_Node000005_Node000007"><a xlink:title=" ">
<path fill="none" stroke="#63b8ff" d="M462.16,-177.5C472.88,-177.5 483.93,-177.5 494.62,-177.5"/>
<polygon fill="#63b8ff" stroke="#63b8ff" points="494.73,-181 504.73,-177.5 494.73,-174 494.73,-181"/>
</a>
</g>
</g>
<!-- Node8 -->
<g id="Node000008" class="node">
<title>Node8</title>
<g id="a_Node000008"><a xlink:href="../../de/d66/classfl_1_1basic__string_a200eb5a16645bf60a46bf1aec11a661a.html#a200eb5a16645bf60a46bf1aec11a661a" target="_top" xlink:title=" ">
<polygon fill="white" stroke="#666666" points="629,-248 501,-248 501,-229 629,-229 629,-248"/>
<text text-anchor="middle" x="565" y="-236" font-family="Helvetica,sans-Serif" font-size="10.00">fl::basic_string::isInline</text>
</a>
</g>
</g>
<!-- Node5&#45;&gt;Node8 -->
<g id="edge11_Node000005_Node000008" class="edge">
<title>Node5&#45;&gt;Node8</title>
<g id="a_edge11_Node000005_Node000008"><a xlink:title=" ">
<path fill="none" stroke="#63b8ff" d="M414.81,-187.01C436.86,-195.87 470.95,-209.22 501,-219.5 507.46,-221.71 514.34,-223.93 521.1,-226.02"/>
<polygon fill="#63b8ff" stroke="#63b8ff" points="520.24,-229.42 530.83,-228.99 522.29,-222.73 520.24,-229.42"/>
</a>
</g>
</g>
<!-- Node6&#45;&gt;Node2 -->
<g id="edge7_Node000006_Node000002" class="edge">
<title>Node6&#45;&gt;Node2</title>
<g id="a_edge7_Node000006_Node000002"><a xlink:title=" ">
<path fill="none" stroke="#63b8ff" d="M507.31,-120.32C447.65,-124.35 353.77,-130.68 290.37,-134.96"/>
<polygon fill="#63b8ff" stroke="#63b8ff" points="289.82,-131.49 280.08,-135.65 290.29,-138.47 289.82,-131.49"/>
</a>
</g>
</g>
<!-- Node6&#45;&gt;Node6 -->
<g id="edge8_Node000006_Node000006" class="edge">
<title>Node6&#45;&gt;Node6</title>
<g id="a_edge8_Node000006_Node000006"><a xlink:title=" ">
<path fill="none" stroke="#63b8ff" d="M538.18,-126.08C525.13,-134.73 534.07,-144 565,-144 585.78,-144 596.63,-139.82 597.56,-134.45"/>
<polygon fill="#63b8ff" stroke="#63b8ff" points="600.36,-132.35 591.82,-126.08 594.59,-136.31 600.36,-132.35"/>
</a>
</g>
</g>
<!-- Node7&#45;&gt;Node7 -->
<g id="edge10_Node000007_Node000007" class="edge">
<title>Node7&#45;&gt;Node7</title>
<g id="a_edge10_Node000007_Node000007"><a xlink:title=" ">
<path fill="none" stroke="#63b8ff" d="M534.41,-192.78C527.62,-201.91 537.81,-210.5 565,-210.5 581.14,-210.5 591.29,-207.47 595.46,-203.1"/>
<polygon fill="#63b8ff" stroke="#63b8ff" points="598.96,-202.82 595.59,-192.78 591.96,-202.73 598.96,-202.82"/>
</a>
</g>
</g>
<!-- Node9&#45;&gt;Node6 -->
<g id="edge13_Node000009_Node000006" class="edge">
<title>Node9&#45;&gt;Node6</title>
<g id="a_edge13_Node000009_Node000006"><a xlink:title=" ">
<path fill="none" stroke="#63b8ff" d="M465.16,-107.9C475.73,-108.82 486.57,-109.77 497.01,-110.67"/>
<polygon fill="#63b8ff" stroke="#63b8ff" points="497.02,-114.19 507.29,-111.57 497.63,-107.22 497.02,-114.19"/>
</a>
</g>
</g>
<!-- Node9&#45;&gt;Node7 -->
<g id="edge14_Node000009_Node000007" class="edge">
<title>Node9&#45;&gt;Node7</title>
<g id="a_edge14_Node000009_Node000007"><a xlink:title=" ">
<path fill="none" stroke="#63b8ff" d="M410.67,-111.17C432.37,-121.99 468.87,-139.78 501,-153.5 505.11,-155.25 509.39,-157.02 513.7,-158.75"/>
<polygon fill="#63b8ff" stroke="#63b8ff" points="512.56,-162.06 523.14,-162.48 515.13,-155.55 512.56,-162.06"/>
</a>
</g>
</g>
<!-- Node10 -->
<g id="Node000010" class="node">
<title>Node10</title>
<g id="a_Node000010"><a xlink:href="../../d4/d36/namespacefl_a87ae8a24cc8b709a64f39370e71846af.html#a87ae8a24cc8b709a64f39370e71846af" target="_top" xlink:title=" ">
<polygon fill="white" stroke="#666666" points="612,-89 518,-89 518,-70 612,-70 612,-89"/>
<text text-anchor="middle" x="565" y="-77" font-family="Helvetica,sans-Serif" font-size="10.00">fl::make_shared</text>
</a>
</g>
</g>
<!-- Node9&#45;&gt;Node10 -->
<g id="edge15_Node000009_Node000010" class="edge">
<title>Node9&#45;&gt;Node10</title>
<g id="a_edge15_Node000009_Node000010"><a xlink:title=" ">
<path fill="none" stroke="#63b8ff" d="M465.16,-92.11C479.31,-90.3 493.93,-88.44 507.44,-86.71"/>
<polygon fill="#63b8ff" stroke="#63b8ff" points="508.06,-90.16 517.53,-85.43 507.17,-83.22 508.06,-90.16"/>
</a>
</g>
</g>
<!-- Node11 -->
<g id="Node000011" class="node">
<title>Node11</title>
<g id="a_Node000011"><a xlink:href="../../d4/d36/namespacefl_a0393d1d09fff5bccc427802cc22e756d.html#a0393d1d09fff5bccc427802cc22e756d" target="_top" xlink:title=" ">
<polygon fill="white" stroke="#666666" points="600.5,-52 529.5,-52 529.5,-33 600.5,-33 600.5,-52"/>
<text text-anchor="middle" x="565" y="-40" font-family="Helvetica,sans-Serif" font-size="10.00">fl::memcpy</text>
</a>
</g>
</g>
<!-- Node9&#45;&gt;Node11 -->
<g id="edge16_Node000009_Node000011" class="edge">
<title>Node9&#45;&gt;Node11</title>
<g id="a_edge16_Node000009_Node000011"><a xlink:title=" ">
<path fill="none" stroke="#63b8ff" d="M440.47,-91.89C448.81,-89.59 457.27,-86.81 465,-83.5 482.46,-76.03 483.69,-68.3 501,-60.5 506.85,-57.86 513.19,-55.51 519.51,-53.45"/>
<polygon fill="#63b8ff" stroke="#63b8ff" points="520.81,-56.72 529.35,-50.45 518.77,-50.02 520.81,-56.72"/>
</a>
</g>
</g>
<!-- Node14 -->
<g id="Node000014" class="node">
<title>Node14</title>
<g id="a_Node000014"><a xlink:href="../../d4/d36/namespacefl_a0497a09eced515feabd41bb9b821754f.html#a0497a09eced515feabd41bb9b821754f" target="_top" xlink:title=" ">
<polygon fill="white" stroke="#666666" points="432,-74 349,-74 349,-55 432,-55 432,-74"/>
<text text-anchor="middle" x="390.5" y="-62" font-family="Helvetica,sans-Serif" font-size="10.00">fl::charToDigit</text>
</a>
</g>
</g>
<!-- Node13&#45;&gt;Node14 -->
<g id="edge19_Node000013_Node000014" class="edge">
<title>Node13&#45;&gt;Node14</title>
<g id="a_edge19_Node000013_Node000014"><a xlink:title=" ">
<path fill="none" stroke="#63b8ff" d="M249.02,-64.5C272.91,-64.5 308.98,-64.5 338.6,-64.5"/>
<polygon fill="#63b8ff" stroke="#63b8ff" points="338.77,-68 348.77,-64.5 338.77,-61 338.77,-68"/>
</a>
</g>
</g>
<!-- Node15 -->
<g id="Node000015" class="node">
<title>Node15</title>
<g id="a_Node000015"><a xlink:href="../../d4/d36/namespacefl_a64c69c989d579913924d0aa4ff9ded7c.html#a64c69c989d579913924d0aa4ff9ded7c" target="_top" xlink:title=" ">
<polygon fill="white" stroke="#666666" points="437,-37 344,-37 344,-18 437,-18 437,-37"/>
<text text-anchor="middle" x="390.5" y="-25" font-family="Helvetica,sans-Serif" font-size="10.00">fl::isDigitInBase</text>
</a>
</g>
</g>
<!-- Node13&#45;&gt;Node15 -->
<g id="edge20_Node000013_Node000015" class="edge">
<title>Node13&#45;&gt;Node15</title>
<g id="a_edge20_Node000013_Node000015"><a xlink:title=" ">
<path fill="none" stroke="#63b8ff" d="M249.02,-58.72C272.33,-53.54 307.26,-45.78 336.45,-39.29"/>
<polygon fill="#63b8ff" stroke="#63b8ff" points="337.51,-42.64 346.51,-37.05 335.99,-35.81 337.51,-42.64"/>
</a>
</g>
</g>
<!-- Node16&#45;&gt;Node16 -->
<g id="edge22_Node000016_Node000016" class="edge">
<title>Node16&#45;&gt;Node16</title>
<g id="a_edge22_Node000016_Node000016"><a xlink:title=" ">
<path fill="none" stroke="#63b8ff" d="M197.65,-19.08C185.8,-27.73 193.92,-37 222,-37 240.43,-37 250.26,-33.01 251.49,-27.82"/>
<polygon fill="#63b8ff" stroke="#63b8ff" points="254.44,-25.93 246.35,-19.08 248.41,-29.48 254.44,-25.93"/>
</a>
</g>
</g>
</g>
</svg>
