<?xml version="1.0" encoding="UTF-8" standalone="no"?>
<!DOCTYPE svg PUBLIC "-//W3C//DTD SVG 1.1//EN"
 "http://www.w3.org/Graphics/SVG/1.1/DTD/svg11.dtd">
<!-- Generated by graphviz version 2.43.0 (0)
 -->
<!-- Title: fl::list::unlink Pages: 1 -->
<svg width="451pt" height="212pt"
 viewBox="0.00 0.00 451.00 212.00" xmlns="http://www.w3.org/2000/svg" xmlns:xlink="http://www.w3.org/1999/xlink">

<svg id="main" version="1.1" xmlns="http://www.w3.org/2000/svg" xmlns:xlink="http://www.w3.org/1999/xlink" xml:space="preserve">

<style type="text/css"><![CDATA[
.node, .edge {opacity: 0.7;}
.node.selected, .edge.selected {opacity: 1;}
.edge:hover path { stroke: red; }
.edge:hover polygon { stroke: red; fill: red; }
]]></style>
<script type="application/ecmascript" xlink:href="../../svg.min.js"/>
<svg id="graph" class="graph">
<g id="graph0" class="graph" transform="scale(1 1) rotate(0) translate(4 208)">
<title>fl::list::unlink</title>
<!-- Node1 -->
<g id="Node000001" class="node">
<title>Node1</title>
<g id="a_Node000001"><a xlink:title=" ">
<polygon fill="#999999" stroke="#666666" points="443,-74 363,-74 363,-55 443,-55 443,-74"/>
<text text-anchor="middle" x="403" y="-62" font-family="Helvetica,sans-Serif" font-size="10.00">fl::list::unlink</text>
</a>
</g>
</g>
<!-- Node2 -->
<g id="Node000002" class="node">
<title>Node2</title>
<g id="a_Node000002"><a xlink:href="../../d8/df9/classfl_1_1list_a3a57800e94ca911d7ef041828ca4afc4.html#a3a57800e94ca911d7ef041828ca4afc4" target="_top" xlink:title=" ">
<polygon fill="white" stroke="#666666" points="327,-111 250,-111 250,-92 327,-92 327,-111"/>
<text text-anchor="middle" x="288.5" y="-99" font-family="Helvetica,sans-Serif" font-size="10.00">fl::list::erase</text>
</a>
</g>
</g>
<!-- Node1&#45;&gt;Node2 -->
<g id="edge1_Node000001_Node000002" class="edge">
<title>Node1&#45;&gt;Node2</title>
<g id="a_edge1_Node000001_Node000002"><a xlink:title=" ">
<path fill="none" stroke="#63b8ff" d="M363.26,-77.24C348.68,-82.04 332.35,-87.41 318.76,-91.88"/>
<polygon fill="#63b8ff" stroke="#63b8ff" points="364.62,-80.48 373.03,-74.03 362.44,-73.83 364.62,-80.48"/>
</a>
</g>
</g>
<!-- Node14 -->
<g id="Node000014" class="node">
<title>Node14</title>
<g id="a_Node000014"><a xlink:href="../../d8/df9/classfl_1_1list_ad0e6616864e64da8ca08e622d2c493bb.html#ad0e6616864e64da8ca08e622d2c493bb" target="_top" xlink:title=" ">
<polygon fill="white" stroke="#666666" points="322.5,-74 254.5,-74 254.5,-55 322.5,-55 322.5,-74"/>
<text text-anchor="middle" x="288.5" y="-62" font-family="Helvetica,sans-Serif" font-size="10.00">fl::list::sort</text>
</a>
</g>
</g>
<!-- Node1&#45;&gt;Node14 -->
<g id="edge10_Node000001_Node000014" class="edge">
<title>Node1&#45;&gt;Node14</title>
<g id="a_edge10_Node000001_Node000014"><a xlink:title=" ">
<path fill="none" stroke="#63b8ff" d="M352.96,-64.5C342.79,-64.5 332.3,-64.5 322.85,-64.5"/>
<polygon fill="#63b8ff" stroke="#63b8ff" points="352.97,-68 362.97,-64.5 352.97,-61 352.97,-68"/>
</a>
</g>
</g>
<!-- Node15 -->
<g id="Node000015" class="node">
<title>Node15</title>
<g id="a_Node000015"><a xlink:href="../../d8/df9/classfl_1_1list_a1fa405eaf0e949ce636ef8bb084c2b6c.html#a1fa405eaf0e949ce636ef8bb084c2b6c" target="_top" xlink:title=" ">
<polygon fill="white" stroke="#666666" points="322.5,-37 254.5,-37 254.5,-18 322.5,-18 322.5,-37"/>
<text text-anchor="middle" x="288.5" y="-25" font-family="Helvetica,sans-Serif" font-size="10.00">fl::list::sort</text>
</a>
</g>
</g>
<!-- Node1&#45;&gt;Node15 -->
<g id="edge11_Node000001_Node000015" class="edge">
<title>Node1&#45;&gt;Node15</title>
<g id="a_edge11_Node000001_Node000015"><a xlink:title=" ">
<path fill="none" stroke="#63b8ff" d="M363.26,-51.76C348.68,-46.96 332.35,-41.59 318.76,-37.12"/>
<polygon fill="#63b8ff" stroke="#63b8ff" points="362.44,-55.17 373.03,-54.97 364.62,-48.52 362.44,-55.17"/>
</a>
</g>
</g>
<!-- Node3 -->
<g id="Node000003" class="node">
<title>Node3</title>
<g id="a_Node000003"><a xlink:href="../../d8/df9/classfl_1_1list_ad6c25f24d55c8771ad7568991a0bac46.html#ad6c25f24d55c8771ad7568991a0bac46" target="_top" xlink:title=" ">
<polygon fill="white" stroke="#666666" points="203,-204 126,-204 126,-185 203,-185 203,-204"/>
<text text-anchor="middle" x="164.5" y="-192" font-family="Helvetica,sans-Serif" font-size="10.00">fl::list::erase</text>
</a>
</g>
</g>
<!-- Node2&#45;&gt;Node3 -->
<g id="edge2_Node000002_Node000003" class="edge">
<title>Node2&#45;&gt;Node3</title>
<g id="a_edge2_Node000002_Node000003"><a xlink:title=" ">
<path fill="none" stroke="#63b8ff" d="M274.16,-119.04C260.61,-135.81 238.23,-160.79 214,-176.5 208.95,-179.77 203.22,-182.57 197.52,-184.91"/>
<polygon fill="#63b8ff" stroke="#63b8ff" points="276.96,-121.14 280.4,-111.12 271.46,-116.81 276.96,-121.14"/>
</a>
</g>
</g>
<!-- Node4 -->
<g id="Node000004" class="node">
<title>Node4</title>
<g id="a_Node000004"><a xlink:href="../../d8/df9/classfl_1_1list_ac491c79d0b2e213bc9c0fe657597d97e.html#ac491c79d0b2e213bc9c0fe657597d97e" target="_top" xlink:title=" ">
<polygon fill="white" stroke="#666666" points="212.5,-167 116.5,-167 116.5,-148 212.5,-148 212.5,-167"/>
<text text-anchor="middle" x="164.5" y="-155" font-family="Helvetica,sans-Serif" font-size="10.00">fl::list::pop_back</text>
</a>
</g>
</g>
<!-- Node2&#45;&gt;Node4 -->
<g id="edge3_Node000002_Node000004" class="edge">
<title>Node2&#45;&gt;Node4</title>
<g id="a_edge3_Node000002_Node000004"><a xlink:title=" ">
<path fill="none" stroke="#63b8ff" d="M261.58,-115.88C247.67,-123.35 230.12,-132.37 214,-139.5 207.26,-142.48 199.87,-145.39 192.92,-147.98"/>
<polygon fill="#63b8ff" stroke="#63b8ff" points="263.44,-118.85 270.56,-111.01 260.1,-112.7 263.44,-118.85"/>
</a>
</g>
</g>
<!-- Node10 -->
<g id="Node000010" class="node">
<title>Node10</title>
<g id="a_Node000010"><a xlink:href="../../d8/df9/classfl_1_1list_a6fa1256aa24c196a5063481eda55363a.html#a6fa1256aa24c196a5063481eda55363a" target="_top" xlink:title=" ">
<polygon fill="white" stroke="#666666" points="212.5,-130 116.5,-130 116.5,-111 212.5,-111 212.5,-130"/>
<text text-anchor="middle" x="164.5" y="-118" font-family="Helvetica,sans-Serif" font-size="10.00">fl::list::pop_front</text>
</a>
</g>
</g>
<!-- Node2&#45;&gt;Node10 -->
<g id="edge6_Node000002_Node000010" class="edge">
<title>Node2&#45;&gt;Node10</title>
<g id="a_edge6_Node000002_Node000010"><a xlink:title=" ">
<path fill="none" stroke="#63b8ff" d="M239.99,-108.9C231.02,-110.3 221.64,-111.76 212.67,-113.15"/>
<polygon fill="#63b8ff" stroke="#63b8ff" points="240.56,-112.35 249.9,-107.36 239.48,-105.44 240.56,-112.35"/>
</a>
</g>
</g>
<!-- Node11 -->
<g id="Node000011" class="node">
<title>Node11</title>
<g id="a_Node000011"><a xlink:href="../../d8/df9/classfl_1_1list_a514c00ddfab179d9787f9d25d9440995.html#a514c00ddfab179d9787f9d25d9440995" target="_top" xlink:title=" ">
<polygon fill="white" stroke="#666666" points="208,-93 121,-93 121,-74 208,-74 208,-93"/>
<text text-anchor="middle" x="164.5" y="-81" font-family="Helvetica,sans-Serif" font-size="10.00">fl::list::remove</text>
</a>
</g>
</g>
<!-- Node2&#45;&gt;Node11 -->
<g id="edge7_Node000002_Node000011" class="edge">
<title>Node2&#45;&gt;Node11</title>
<g id="a_edge7_Node000002_Node000011"><a xlink:title=" ">
<path fill="none" stroke="#63b8ff" d="M239.75,-94.46C229.38,-92.93 218.47,-91.32 208.31,-89.82"/>
<polygon fill="#63b8ff" stroke="#63b8ff" points="239.5,-97.96 249.9,-95.95 240.52,-91.03 239.5,-97.96"/>
</a>
</g>
</g>
<!-- Node12 -->
<g id="Node000012" class="node">
<title>Node12</title>
<g id="a_Node000012"><a xlink:href="../../d8/df9/classfl_1_1list_a88f9efacbcede16c407fd97131054716.html#a88f9efacbcede16c407fd97131054716" target="_top" xlink:title=" ">
<polygon fill="white" stroke="#666666" points="214,-56 115,-56 115,-37 214,-37 214,-56"/>
<text text-anchor="middle" x="164.5" y="-44" font-family="Helvetica,sans-Serif" font-size="10.00">fl::list::remove_if</text>
</a>
</g>
</g>
<!-- Node2&#45;&gt;Node12 -->
<g id="edge8_Node000002_Node000012" class="edge">
<title>Node2&#45;&gt;Node12</title>
<g id="a_edge8_Node000002_Node000012"><a xlink:title=" ">
<path fill="none" stroke="#63b8ff" d="M258.06,-87.43C255.34,-86.1 252.61,-84.78 250,-83.5 233.94,-75.63 230.34,-72.77 214,-65.5 206.73,-62.27 198.73,-59.01 191.35,-56.13"/>
<polygon fill="#63b8ff" stroke="#63b8ff" points="256.7,-90.66 267.23,-91.84 259.74,-84.35 256.7,-90.66"/>
</a>
</g>
</g>
<!-- Node13 -->
<g id="Node000013" class="node">
<title>Node13</title>
<g id="a_Node000013"><a xlink:href="../../d8/df9/classfl_1_1list_a812fe91a8897024476675b1580e813af.html#a812fe91a8897024476675b1580e813af" target="_top" xlink:title=" ">
<polygon fill="white" stroke="#666666" points="206,-19 123,-19 123,0 206,0 206,-19"/>
<text text-anchor="middle" x="164.5" y="-7" font-family="Helvetica,sans-Serif" font-size="10.00">fl::list::unique</text>
</a>
</g>
</g>
<!-- Node2&#45;&gt;Node13 -->
<g id="edge9_Node000002_Node000013" class="edge">
<title>Node2&#45;&gt;Node13</title>
<g id="a_edge9_Node000002_Node000013"><a xlink:title=" ">
<path fill="none" stroke="#63b8ff" d="M253.64,-86.4C252.38,-85.48 251.15,-84.51 250,-83.5 228.02,-64.25 236.67,-46.92 214,-28.5 209.3,-24.68 203.73,-21.56 198.08,-19.03"/>
<polygon fill="#63b8ff" stroke="#63b8ff" points="252.16,-89.6 262.51,-91.87 255.84,-83.64 252.16,-89.6"/>
</a>
</g>
</g>
<!-- Node5 -->
<g id="Node000005" class="node">
<title>Node5</title>
<g id="a_Node000005"><a xlink:href="../../d8/df9/classfl_1_1list_aa74de64cb3e1471fd076fd9bb64dd498.html#aa74de64cb3e1471fd076fd9bb64dd498" target="_top" xlink:title=" ">
<polygon fill="#fff0f0" stroke="red" points="76.5,-185 2.5,-185 2.5,-166 76.5,-166 76.5,-185"/>
<text text-anchor="middle" x="39.5" y="-173" font-family="Helvetica,sans-Serif" font-size="10.00">fl::list::clear</text>
</a>
</g>
</g>
<!-- Node4&#45;&gt;Node5 -->
<g id="edge4_Node000004_Node000005" class="edge">
<title>Node4&#45;&gt;Node5</title>
<g id="a_edge4_Node000004_Node000005"><a xlink:title=" ">
<path fill="none" stroke="#63b8ff" d="M106.31,-165.87C96.23,-167.35 85.99,-168.84 76.69,-170.2"/>
<polygon fill="#63b8ff" stroke="#63b8ff" points="106.91,-169.32 116.3,-164.41 105.9,-162.39 106.91,-169.32"/>
</a>
</g>
</g>
<!-- Node9 -->
<g id="Node000009" class="node">
<title>Node9</title>
<g id="a_Node000009"><a xlink:href="../../d8/df9/classfl_1_1list_ae89eb204d9a83444c5f07a9a8b644c28.html#ae89eb204d9a83444c5f07a9a8b644c28" target="_top" xlink:title=" ">
<polygon fill="white" stroke="#666666" points="79,-148 0,-148 0,-129 79,-129 79,-148"/>
<text text-anchor="middle" x="39.5" y="-136" font-family="Helvetica,sans-Serif" font-size="10.00">fl::list::resize</text>
</a>
</g>
</g>
<!-- Node4&#45;&gt;Node9 -->
<g id="edge5_Node000004_Node000009" class="edge">
<title>Node4&#45;&gt;Node9</title>
<g id="a_edge5_Node000004_Node000009"><a xlink:title=" ">
<path fill="none" stroke="#63b8ff" d="M106.34,-148.67C97.08,-147.24 87.69,-145.79 79.01,-144.45"/>
<polygon fill="#63b8ff" stroke="#63b8ff" points="105.88,-152.14 116.3,-150.21 106.95,-145.22 105.88,-152.14"/>
</a>
</g>
</g>
</g>
</svg>
</svg>

<style type='text/css'>
<![CDATA[
[data-mouse-over-selected='false'] { opacity: 0.7; }
[data-mouse-over-selected='true']  { opacity: 1.0; }
]]>
</style>
<script type="application/ecmascript"><![CDATA[
document.addEventListener('DOMContentLoaded', (event) => {
  highlightEdges();
  highlightAdjacentNodes();
});
]]></script>
</svg>
