<?xml version="1.0" encoding="UTF-8" standalone="no"?>
<!DOCTYPE svg PUBLIC "-//W3C//DTD SVG 1.1//EN"
 "http://www.w3.org/Graphics/SVG/1.1/DTD/svg11.dtd">
<!-- Generated by graphviz version 2.43.0 (0)
 -->
<!-- Title: fl::list::pop_back Pages: 1 -->
<svg width="373pt" height="101pt"
 viewBox="0.00 0.00 373.00 101.00" xmlns="http://www.w3.org/2000/svg" xmlns:xlink="http://www.w3.org/1999/xlink">

<svg id="main" version="1.1" xmlns="http://www.w3.org/2000/svg" xmlns:xlink="http://www.w3.org/1999/xlink" xml:space="preserve">

<style type="text/css"><![CDATA[
.node, .edge {opacity: 0.7;}
.node.selected, .edge.selected {opacity: 1;}
.edge:hover path { stroke: red; }
.edge:hover polygon { stroke: red; fill: red; }
]]></style>
<script type="application/ecmascript" xlink:href="../../svg.min.js"/>
<svg id="graph" class="graph">
<g id="graph0" class="graph" transform="scale(1 1) rotate(0) translate(4 97)">
<title>fl::list::pop_back</title>
<!-- Node1 -->
<g id="Node000001" class="node">
<title>Node1</title>
<g id="a_Node000001"><a xlink:title=" ">
<polygon fill="#999999" stroke="#666666" points="96,-74 0,-74 0,-55 96,-55 96,-74"/>
<text text-anchor="middle" x="48" y="-62" font-family="Helvetica,sans-Serif" font-size="10.00">fl::list::pop_back</text>
</a>
</g>
</g>
<!-- Node2 -->
<g id="Node000002" class="node">
<title>Node2</title>
<g id="a_Node000002"><a xlink:href="../../d8/df9/classfl_1_1list_a54041907d79b70c5221dd11e32942588.html#a54041907d79b70c5221dd11e32942588" target="_top" xlink:title=" ">
<polygon fill="white" stroke="#666666" points="213,-93 132,-93 132,-74 213,-74 213,-93"/>
<text text-anchor="middle" x="172.5" y="-81" font-family="Helvetica,sans-Serif" font-size="10.00">fl::list::empty</text>
</a>
</g>
</g>
<!-- Node1&#45;&gt;Node2 -->
<g id="edge1_Node000001_Node000002" class="edge">
<title>Node1&#45;&gt;Node2</title>
<g id="a_edge1_Node000001_Node000002"><a xlink:title=" ">
<path fill="none" stroke="#63b8ff" d="M96.01,-71.79C104.55,-73.12 113.47,-74.5 122.07,-75.83"/>
<polygon fill="#63b8ff" stroke="#63b8ff" points="121.56,-79.3 131.98,-77.37 122.64,-72.38 121.56,-79.3"/>
</a>
</g>
</g>
<!-- Node3 -->
<g id="Node000003" class="node">
<title>Node3</title>
<g id="a_Node000003"><a xlink:href="../../d8/df9/classfl_1_1list_a3a57800e94ca911d7ef041828ca4afc4.html#a3a57800e94ca911d7ef041828ca4afc4" target="_top" xlink:title=" ">
<polygon fill="white" stroke="#666666" points="211,-56 134,-56 134,-37 211,-37 211,-56"/>
<text text-anchor="middle" x="172.5" y="-44" font-family="Helvetica,sans-Serif" font-size="10.00">fl::list::erase</text>
</a>
</g>
</g>
<!-- Node1&#45;&gt;Node3 -->
<g id="edge2_Node000001_Node000003" class="edge">
<title>Node1&#45;&gt;Node3</title>
<g id="a_edge2_Node000001_Node000003"><a xlink:title=" ">
<path fill="none" stroke="#63b8ff" d="M96.01,-57.59C105.13,-56.25 114.69,-54.85 123.83,-53.5"/>
<polygon fill="#63b8ff" stroke="#63b8ff" points="124.54,-56.94 133.92,-52.02 123.52,-50.01 124.54,-56.94"/>
</a>
</g>
</g>
<!-- Node4 -->
<g id="Node000004" class="node">
<title>Node4</title>
<g id="a_Node000004"><a xlink:href="../../d8/df9/classfl_1_1list_ac24a2f609f472e0db09d9eebd35621ee.html#ac24a2f609f472e0db09d9eebd35621ee" target="_top" xlink:title=" ">
<polygon fill="white" stroke="#666666" points="365,-93 249,-93 249,-74 365,-74 365,-93"/>
<text text-anchor="middle" x="307" y="-81" font-family="Helvetica,sans-Serif" font-size="10.00">fl::list::destroy_node</text>
</a>
</g>
</g>
<!-- Node3&#45;&gt;Node4 -->
<g id="edge3_Node000003_Node000004" class="edge">
<title>Node3&#45;&gt;Node4</title>
<g id="a_edge3_Node000003_Node000004"><a xlink:title=" ">
<path fill="none" stroke="#63b8ff" d="M207.62,-56.03C224.03,-60.61 243.91,-66.16 261.49,-71.07"/>
<polygon fill="#63b8ff" stroke="#63b8ff" points="260.96,-74.56 271.53,-73.88 262.84,-67.81 260.96,-74.56"/>
</a>
</g>
</g>
<!-- Node5 -->
<g id="Node000005" class="node">
<title>Node5</title>
<g id="a_Node000005"><a xlink:href="../../d8/df9/classfl_1_1list_a30356d8aba58f7c41abfcc114c431099.html#a30356d8aba58f7c41abfcc114c431099" target="_top" xlink:title=" ">
<polygon fill="white" stroke="#666666" points="341,-56 273,-56 273,-37 341,-37 341,-56"/>
<text text-anchor="middle" x="307" y="-44" font-family="Helvetica,sans-Serif" font-size="10.00">fl::list::end</text>
</a>
</g>
</g>
<!-- Node3&#45;&gt;Node5 -->
<g id="edge4_Node000003_Node000005" class="edge">
<title>Node3&#45;&gt;Node5</title>
<g id="a_edge4_Node000003_Node000005"><a xlink:title=" ">
<path fill="none" stroke="#63b8ff" d="M211.11,-46.5C227.21,-46.5 246.09,-46.5 262.76,-46.5"/>
<polygon fill="#63b8ff" stroke="#63b8ff" points="262.81,-50 272.81,-46.5 262.81,-43 262.81,-50"/>
</a>
</g>
</g>
<!-- Node6 -->
<g id="Node000006" class="node">
<title>Node6</title>
<g id="a_Node000006"><a xlink:href="../../d8/df9/classfl_1_1list_a9e2653afce20377c73303eab33bcb368.html#a9e2653afce20377c73303eab33bcb368" target="_top" xlink:title=" ">
<polygon fill="white" stroke="#666666" points="347,-19 267,-19 267,0 347,0 347,-19"/>
<text text-anchor="middle" x="307" y="-7" font-family="Helvetica,sans-Serif" font-size="10.00">fl::list::unlink</text>
</a>
</g>
</g>
<!-- Node3&#45;&gt;Node6 -->
<g id="edge5_Node000003_Node000006" class="edge">
<title>Node3&#45;&gt;Node6</title>
<g id="a_edge5_Node000003_Node000006"><a xlink:title=" ">
<path fill="none" stroke="#63b8ff" d="M207.62,-36.97C224.03,-32.39 243.91,-26.84 261.49,-21.93"/>
<polygon fill="#63b8ff" stroke="#63b8ff" points="262.84,-25.19 271.53,-19.12 260.96,-18.44 262.84,-25.19"/>
</a>
</g>
</g>
</g>
</svg>
</svg>

<style type='text/css'>
<![CDATA[
[data-mouse-over-selected='false'] { opacity: 0.7; }
[data-mouse-over-selected='true']  { opacity: 1.0; }
]]>
</style>
<script type="application/ecmascript"><![CDATA[
document.addEventListener('DOMContentLoaded', (event) => {
  highlightEdges();
  highlightAdjacentNodes();
});
]]></script>
</svg>
