<?xml version="1.0" encoding="UTF-8" standalone="no"?>
<!DOCTYPE svg PUBLIC "-//W3C//DTD SVG 1.1//EN"
 "http://www.w3.org/Graphics/SVG/1.1/DTD/svg11.dtd">
<!-- Generated by graphviz version 2.43.0 (0)
 -->
<!-- Title: inoise16 Pages: 1 -->
<svg width="487pt" height="396pt"
 viewBox="0.00 0.00 487.00 396.00" xmlns="http://www.w3.org/2000/svg" xmlns:xlink="http://www.w3.org/1999/xlink">

<svg id="main" version="1.1" xmlns="http://www.w3.org/2000/svg" xmlns:xlink="http://www.w3.org/1999/xlink" xml:space="preserve">

<style type="text/css"><![CDATA[
.node, .edge {opacity: 0.7;}
.node.selected, .edge.selected {opacity: 1;}
.edge:hover path { stroke: red; }
.edge:hover polygon { stroke: red; fill: red; }
]]></style>
<script type="application/ecmascript" xlink:href="../../svg.min.js"/>
<svg id="graph" class="graph">
<g id="graph0" class="graph" transform="scale(1 1) rotate(0) translate(4 392)">
<title>inoise16</title>
<!-- Node1 -->
<g id="Node000001" class="node">
<title>Node1</title>
<g id="a_Node000001"><a xlink:title="16&#45;bit, fixed point implementation of Perlin&#39;s noise.">
<polygon fill="#999999" stroke="#666666" points="479,-185 421,-185 421,-166 479,-166 479,-185"/>
<text text-anchor="middle" x="450" y="-173" font-family="Helvetica,sans-Serif" font-size="10.00">inoise16</text>
</a>
</g>
</g>
<!-- Node2 -->
<g id="Node000002" class="node">
<title>Node2</title>
<g id="a_Node000002"><a xlink:href="../../d3/dac/_fx_noise_ring_8ino_a7a1cdb28d8d83f314435a3a1dc13f17f.html#a7a1cdb28d8d83f314435a3a1dc13f17f" target="_top" xlink:title=" ">
<polygon fill="white" stroke="#666666" points="339.5,-388 298.5,-388 298.5,-369 339.5,-369 339.5,-388"/>
<text text-anchor="middle" x="319" y="-376" font-family="Helvetica,sans-Serif" font-size="10.00">draw</text>
</a>
</g>
</g>
<!-- Node1&#45;&gt;Node2 -->
<g id="edge1_Node000001_Node000002" class="edge">
<title>Node1&#45;&gt;Node2</title>
<g id="a_edge1_Node000001_Node000002"><a xlink:title=" ">
<path fill="none" stroke="#63b8ff" d="M447.97,-195.42C444.91,-233.23 432.82,-315.59 385,-360.5 372.79,-371.96 353.94,-376.24 339.68,-377.77"/>
<polygon fill="#63b8ff" stroke="#63b8ff" points="451.48,-195.42 448.66,-185.21 444.49,-194.95 451.48,-195.42"/>
</a>
</g>
</g>
<!-- Node4 -->
<g id="Node000004" class="node">
<title>Node4</title>
<g id="a_Node000004"><a xlink:href="../../de/da4/group___noise_fill_ga8fdd92f7a3a96d6f131300cc79c933f6.html#ga8fdd92f7a3a96d6f131300cc79c933f6" target="_top" xlink:title="Fill a 2D 16&#45;bit buffer with noise, using inoise16()">
<polygon fill="white" stroke="#666666" points="372.5,-333 265.5,-333 265.5,-314 372.5,-314 372.5,-333"/>
<text text-anchor="middle" x="319" y="-321" font-family="Helvetica,sans-Serif" font-size="10.00">fill_raw_2dnoise16</text>
</a>
</g>
</g>
<!-- Node1&#45;&gt;Node4 -->
<g id="edge3_Node000001_Node000004" class="edge">
<title>Node1&#45;&gt;Node4</title>
<g id="a_edge3_Node000001_Node000004"><a xlink:title=" ">
<path fill="none" stroke="#63b8ff" d="M444.77,-194.97C437.54,-223.51 420.06,-276.46 385,-305.5 380.85,-308.94 376.1,-311.72 371.08,-313.97"/>
<polygon fill="#63b8ff" stroke="#63b8ff" points="448.23,-195.54 447.12,-185.01 441.41,-193.93 448.23,-195.54"/>
</a>
</g>
</g>
<!-- Node5 -->
<g id="Node000005" class="node">
<title>Node5</title>
<g id="a_Node000005"><a xlink:href="../../de/da4/group___noise_fill_ga20a2ff725bc56666c206d54deb372586.html#ga20a2ff725bc56666c206d54deb372586" target="_top" xlink:title="Fill a 2D 8&#45;bit buffer with noise, using inoise16()">
<polygon fill="white" stroke="#666666" points="385,-278 253,-278 253,-259 385,-259 385,-278"/>
<text text-anchor="middle" x="319" y="-266" font-family="Helvetica,sans-Serif" font-size="10.00">fill_raw_2dnoise16into8</text>
</a>
</g>
</g>
<!-- Node1&#45;&gt;Node5 -->
<g id="edge5_Node000001_Node000005" class="edge">
<title>Node1&#45;&gt;Node5</title>
<g id="a_edge5_Node000001_Node000005"><a xlink:title=" ">
<path fill="none" stroke="#63b8ff" d="M437.74,-193.69C426.41,-210.54 407.43,-235.09 385,-249.5 378.97,-253.38 372.12,-256.48 365.18,-258.97"/>
<polygon fill="#63b8ff" stroke="#63b8ff" points="440.72,-195.54 443.22,-185.24 434.85,-191.73 440.72,-195.54"/>
</a>
</g>
</g>
<!-- Node9 -->
<g id="Node000009" class="node">
<title>Node9</title>
<g id="a_Node000009"><a xlink:href="../../de/da4/group___noise_fill_ga9db885e8cd887367fbf17e70f7d6b7fd.html#ga9db885e8cd887367fbf17e70f7d6b7fd" target="_top" xlink:title="Fill a 1D 8&#45;bit buffer with noise, using inoise16()">
<polygon fill="white" stroke="#666666" points="379,-241 259,-241 259,-222 379,-222 379,-241"/>
<text text-anchor="middle" x="319" y="-229" font-family="Helvetica,sans-Serif" font-size="10.00">fill_raw_noise16into8</text>
</a>
</g>
</g>
<!-- Node1&#45;&gt;Node9 -->
<g id="edge10_Node000001_Node000009" class="edge">
<title>Node1&#45;&gt;Node9</title>
<g id="a_edge10_Node000001_Node000009"><a xlink:title=" ">
<path fill="none" stroke="#63b8ff" d="M425.97,-190.61C414.09,-197.94 399.15,-206.44 385,-212.5 376.57,-216.11 367.24,-219.28 358.35,-221.95"/>
<polygon fill="#63b8ff" stroke="#63b8ff" points="428.19,-193.36 434.77,-185.06 424.45,-187.44 428.19,-193.36"/>
</a>
</g>
</g>
<!-- Node11 -->
<g id="Node000011" class="node">
<title>Node11</title>
<g id="a_Node000011"><a xlink:href="../../d8/d2c/_fire2023_8ino_abe327b12b434120ecf20ae3f46800983.html#abe327b12b434120ecf20ae3f46800983" target="_top" xlink:title=" ">
<polygon fill="white" stroke="#666666" points="348.5,-204 289.5,-204 289.5,-185 348.5,-185 348.5,-204"/>
<text text-anchor="middle" x="319" y="-192" font-family="Helvetica,sans-Serif" font-size="10.00">Fire2023</text>
</a>
</g>
</g>
<!-- Node1&#45;&gt;Node11 -->
<g id="edge12_Node000001_Node000011" class="edge">
<title>Node1&#45;&gt;Node11</title>
<g id="a_edge12_Node000001_Node000011"><a xlink:title=" ">
<path fill="none" stroke="#63b8ff" d="M410.71,-181.14C390.84,-184.07 366.96,-187.58 348.69,-190.27"/>
<polygon fill="#63b8ff" stroke="#63b8ff" points="411.31,-184.59 420.69,-179.67 410.29,-177.66 411.31,-184.59"/>
</a>
</g>
</g>
<!-- Node13 -->
<g id="Node000013" class="node">
<title>Node13</title>
<g id="a_Node000013"><a xlink:href="../../d5/d88/_fire_matrix_8h_a593fb12ac1f018e17ad0f8ee5eeaa6ba.html#a593fb12ac1f018e17ad0f8ee5eeaa6ba" target="_top" xlink:title=" ">
<polygon fill="white" stroke="#666666" points="365.5,-167 272.5,-167 272.5,-148 365.5,-148 365.5,-167"/>
<text text-anchor="middle" x="319" y="-155" font-family="Helvetica,sans-Serif" font-size="10.00">getPaletteIndex</text>
</a>
</g>
</g>
<!-- Node1&#45;&gt;Node13 -->
<g id="edge14_Node000001_Node000013" class="edge">
<title>Node1&#45;&gt;Node13</title>
<g id="a_edge14_Node000001_Node000013"><a xlink:title=" ">
<path fill="none" stroke="#63b8ff" d="M410.39,-170.11C396.34,-168.15 380.34,-165.92 365.73,-163.88"/>
<polygon fill="#63b8ff" stroke="#63b8ff" points="410.3,-173.63 420.69,-171.55 411.27,-166.7 410.3,-173.63"/>
</a>
</g>
</g>
<!-- Node15 -->
<g id="Node000015" class="node">
<title>Node15</title>
<g id="a_Node000015"><a xlink:href="../../d8/dd0/_fire_cylinder_8h_a617c5a2afa470899e1f864d74ff6506d.html#a617c5a2afa470899e1f864d74ff6506d" target="_top" xlink:title=" ">
<polygon fill="white" stroke="#666666" points="365.5,-130 272.5,-130 272.5,-111 365.5,-111 365.5,-130"/>
<text text-anchor="middle" x="319" y="-118" font-family="Helvetica,sans-Serif" font-size="10.00">getPaletteIndex</text>
</a>
</g>
</g>
<!-- Node1&#45;&gt;Node15 -->
<g id="edge16_Node000001_Node000015" class="edge">
<title>Node1&#45;&gt;Node15</title>
<g id="a_edge16_Node000001_Node000015"><a xlink:title=" ">
<path fill="none" stroke="#63b8ff" d="M426.01,-160.3C414.14,-152.95 399.19,-144.45 385,-138.5 377.33,-135.28 368.92,-132.47 360.76,-130.08"/>
<polygon fill="#63b8ff" stroke="#63b8ff" points="424.48,-163.48 434.8,-165.88 428.23,-157.57 424.48,-163.48"/>
</a>
</g>
</g>
<!-- Node17 -->
<g id="Node000017" class="node">
<title>Node17</title>
<g id="a_Node000017"><a xlink:href="../../db/d0d/_r_g_b_w_8ino_afe461d27b9c48d5921c00d521181f12f.html#afe461d27b9c48d5921c00d521181f12f" target="_top" xlink:title=" ">
<polygon fill="white" stroke="#666666" points="338,-93 300,-93 300,-74 338,-74 338,-93"/>
<text text-anchor="middle" x="319" y="-81" font-family="Helvetica,sans-Serif" font-size="10.00">loop</text>
</a>
</g>
</g>
<!-- Node1&#45;&gt;Node17 -->
<g id="edge18_Node000001_Node000017" class="edge">
<title>Node1&#45;&gt;Node17</title>
<g id="a_edge18_Node000001_Node000017"><a xlink:title=" ">
<path fill="none" stroke="#63b8ff" d="M437.97,-157.51C426.69,-140.6 407.65,-115.83 385,-101.5 370.75,-92.49 351.96,-87.92 338.26,-85.65"/>
<polygon fill="#63b8ff" stroke="#63b8ff" points="435.06,-159.45 443.41,-165.97 440.95,-155.67 435.06,-159.45"/>
</a>
</g>
</g>
<!-- Node18 -->
<g id="Node000018" class="node">
<title>Node18</title>
<g id="a_Node000018"><a xlink:href="../../d7/da1/old_8h_a594263e8f2bd59f5de78b81eedf64471.html#a594263e8f2bd59f5de78b81eedf64471" target="_top" xlink:title=" ">
<polygon fill="white" stroke="#666666" points="367,-56 271,-56 271,-37 367,-37 367,-56"/>
<text text-anchor="middle" x="319" y="-44" font-family="Helvetica,sans-Serif" font-size="10.00">showGenerative</text>
</a>
</g>
</g>
<!-- Node1&#45;&gt;Node18 -->
<g id="edge19_Node000001_Node000018" class="edge">
<title>Node1&#45;&gt;Node18</title>
<g id="a_edge19_Node000001_Node000018"><a xlink:title=" ">
<path fill="none" stroke="#63b8ff" d="M442.96,-156.02C434.22,-131.07 415.64,-88.23 385,-64.5 379.72,-60.41 373.57,-57.25 367.2,-54.81"/>
<polygon fill="#63b8ff" stroke="#63b8ff" points="439.73,-157.41 446.2,-165.8 446.38,-155.21 439.73,-157.41"/>
</a>
</g>
</g>
<!-- Node20 -->
<g id="Node000020" class="node">
<title>Node20</title>
<g id="a_Node000020"><a xlink:href="../../da/d7a/struct_noise_generator_addecf502634007f361b656342ffd1621.html#addecf502634007f361b656342ffd1621" target="_top" xlink:title=" ">
<polygon fill="white" stroke="#666666" points="382,-19 256,-19 256,0 382,0 382,-19"/>
<text text-anchor="middle" x="319" y="-7" font-family="Helvetica,sans-Serif" font-size="10.00">NoiseGenerator::Value</text>
</a>
</g>
</g>
<!-- Node1&#45;&gt;Node20 -->
<g id="edge21_Node000001_Node000020" class="edge">
<title>Node1&#45;&gt;Node20</title>
<g id="a_edge21_Node000001_Node000020"><a xlink:title=" ">
<path fill="none" stroke="#63b8ff" d="M446,-155.64C440.13,-123.82 424.11,-61.55 385,-27.5 381.11,-24.12 376.64,-21.36 371.91,-19.13"/>
<polygon fill="#63b8ff" stroke="#63b8ff" points="442.61,-156.6 447.73,-165.87 449.51,-155.43 442.61,-156.6"/>
</a>
</g>
</g>
<!-- Node3 -->
<g id="Node000003" class="node">
<title>Node3</title>
<g id="a_Node000003"><a xlink:href="../../d3/dac/_fx_noise_ring_8ino_afe461d27b9c48d5921c00d521181f12f.html#afe461d27b9c48d5921c00d521181f12f" target="_top" xlink:title=" ">
<polygon fill="white" stroke="#666666" points="164.5,-388 126.5,-388 126.5,-369 164.5,-369 164.5,-388"/>
<text text-anchor="middle" x="145.5" y="-376" font-family="Helvetica,sans-Serif" font-size="10.00">loop</text>
</a>
</g>
</g>
<!-- Node2&#45;&gt;Node3 -->
<g id="edge2_Node000002_Node000003" class="edge">
<title>Node2&#45;&gt;Node3</title>
<g id="a_edge2_Node000002_Node000003"><a xlink:title=" ">
<path fill="none" stroke="#63b8ff" d="M288.05,-378.5C252.42,-378.5 194.06,-378.5 164.65,-378.5"/>
<polygon fill="#63b8ff" stroke="#63b8ff" points="288.33,-382 298.33,-378.5 288.33,-375 288.33,-382"/>
</a>
</g>
</g>
<!-- Node4&#45;&gt;Node4 -->
<g id="edge4_Node000004_Node000004" class="edge">
<title>Node4&#45;&gt;Node4</title>
<g id="a_edge4_Node000004_Node000004"><a xlink:title=" ">
<path fill="none" stroke="#63b8ff" d="M343.18,-342.19C341.86,-347.2 333.8,-351 319,-351 295.89,-351 289.22,-341.73 298.96,-333.08"/>
<polygon fill="#63b8ff" stroke="#63b8ff" points="346.36,-340.73 339.04,-333.08 339.99,-343.63 346.36,-340.73"/>
</a>
</g>
</g>
<!-- Node5&#45;&gt;Node5 -->
<g id="edge8_Node000005_Node000005" class="edge">
<title>Node5&#45;&gt;Node5</title>
<g id="a_edge8_Node000005_Node000005"><a xlink:title=" ">
<path fill="none" stroke="#63b8ff" d="M343.18,-287.19C341.86,-292.2 333.8,-296 319,-296 295.89,-296 289.22,-286.73 298.96,-278.08"/>
<polygon fill="#63b8ff" stroke="#63b8ff" points="346.36,-285.73 339.04,-278.08 339.99,-288.63 346.36,-285.73"/>
</a>
</g>
</g>
<!-- Node6 -->
<g id="Node000006" class="node">
<title>Node6</title>
<g id="a_Node000006"><a xlink:href="../../de/da4/group___noise_fill_ga714a0f305e385a60d81a40d1f98b53fc.html#ga714a0f305e385a60d81a40d1f98b53fc" target="_top" xlink:title="Fill an LED matrix with random colors, using 16&#45;bit noise.">
<polygon fill="white" stroke="#666666" points="187.5,-315 103.5,-315 103.5,-296 187.5,-296 187.5,-315"/>
<text text-anchor="middle" x="145.5" y="-303" font-family="Helvetica,sans-Serif" font-size="10.00">fill_2dnoise16</text>
</a>
</g>
</g>
<!-- Node5&#45;&gt;Node6 -->
<g id="edge6_Node000005_Node000006" class="edge">
<title>Node5&#45;&gt;Node6</title>
<g id="a_edge6_Node000005_Node000006"><a xlink:title=" ">
<path fill="none" stroke="#63b8ff" d="M263.89,-280.17C239.2,-285.5 210.44,-291.7 187.57,-296.64"/>
<polygon fill="#63b8ff" stroke="#63b8ff" points="264.8,-283.56 273.83,-278.03 263.32,-276.72 264.8,-283.56"/>
</a>
</g>
</g>
<!-- Node8 -->
<g id="Node000008" class="node">
<title>Node8</title>
<g id="a_Node000008"><a xlink:href="../../d6/de8/noise_8cpp_a46bde35765a7eddbd1049fe49429e94e.html#a46bde35765a7eddbd1049fe49429e94e" target="_top" xlink:title=" ">
<polygon fill="white" stroke="#666666" points="211.5,-278 79.5,-278 79.5,-259 211.5,-259 211.5,-278"/>
<text text-anchor="middle" x="145.5" y="-266" font-family="Helvetica,sans-Serif" font-size="10.00">fill_raw_2dnoise16into8</text>
</a>
</g>
</g>
<!-- Node5&#45;&gt;Node8 -->
<g id="edge9_Node000005_Node000008" class="edge">
<title>Node5&#45;&gt;Node8</title>
<g id="a_edge9_Node000005_Node000008"><a xlink:title=" ">
<path fill="none" stroke="#63b8ff" d="M242.48,-268.5C232.2,-268.5 221.72,-268.5 211.64,-268.5"/>
<polygon fill="#63b8ff" stroke="#63b8ff" points="242.67,-272 252.67,-268.5 242.67,-265 242.67,-272"/>
</a>
</g>
</g>
<!-- Node7 -->
<g id="Node000007" class="node">
<title>Node7</title>
<g id="a_Node000007"><a xlink:href="../../d3/d4e/_noise_playground_8h_afe461d27b9c48d5921c00d521181f12f.html#afe461d27b9c48d5921c00d521181f12f" target="_top" xlink:title=" ">
<polygon fill="white" stroke="#666666" points="38,-315 0,-315 0,-296 38,-296 38,-315"/>
<text text-anchor="middle" x="19" y="-303" font-family="Helvetica,sans-Serif" font-size="10.00">loop</text>
</a>
</g>
</g>
<!-- Node6&#45;&gt;Node7 -->
<g id="edge7_Node000006_Node000007" class="edge">
<title>Node6&#45;&gt;Node7</title>
<g id="a_edge7_Node000006_Node000007"><a xlink:title=" ">
<path fill="none" stroke="#63b8ff" d="M93.32,-305.5C73.73,-305.5 52.63,-305.5 38.12,-305.5"/>
<polygon fill="#63b8ff" stroke="#63b8ff" points="93.39,-309 103.39,-305.5 93.39,-302 93.39,-309"/>
</a>
</g>
</g>
<!-- Node10 -->
<g id="Node000010" class="node">
<title>Node10</title>
<g id="a_Node000010"><a xlink:href="../../de/da4/group___noise_fill_ga8bf5ab0f87a6bb79204754ef2a62f960.html#ga8bf5ab0f87a6bb79204754ef2a62f960" target="_top" xlink:title="Fill an LED array with random colors, using 16&#45;bit noise.">
<polygon fill="white" stroke="#666666" points="181.5,-241 109.5,-241 109.5,-222 181.5,-222 181.5,-241"/>
<text text-anchor="middle" x="145.5" y="-229" font-family="Helvetica,sans-Serif" font-size="10.00">fill_noise16</text>
</a>
</g>
</g>
<!-- Node9&#45;&gt;Node10 -->
<g id="edge11_Node000009_Node000010" class="edge">
<title>Node9&#45;&gt;Node10</title>
<g id="a_edge11_Node000009_Node000010"><a xlink:title=" ">
<path fill="none" stroke="#63b8ff" d="M248.86,-231.5C225.76,-231.5 200.98,-231.5 181.6,-231.5"/>
<polygon fill="#63b8ff" stroke="#63b8ff" points="248.98,-235 258.98,-231.5 248.98,-228 248.98,-235"/>
</a>
</g>
</g>
<!-- Node12 -->
<g id="Node000012" class="node">
<title>Node12</title>
<g id="a_Node000012"><a xlink:href="../../d8/d2c/_fire2023_8ino_afe461d27b9c48d5921c00d521181f12f.html#afe461d27b9c48d5921c00d521181f12f" target="_top" xlink:title=" ">
<polygon fill="white" stroke="#666666" points="164.5,-204 126.5,-204 126.5,-185 164.5,-185 164.5,-204"/>
<text text-anchor="middle" x="145.5" y="-192" font-family="Helvetica,sans-Serif" font-size="10.00">loop</text>
</a>
</g>
</g>
<!-- Node11&#45;&gt;Node12 -->
<g id="edge13_Node000011_Node000012" class="edge">
<title>Node11&#45;&gt;Node12</title>
<g id="a_edge13_Node000011_Node000012"><a xlink:title=" ">
<path fill="none" stroke="#63b8ff" d="M279.2,-194.5C243.4,-194.5 191.84,-194.5 164.73,-194.5"/>
<polygon fill="#63b8ff" stroke="#63b8ff" points="279.29,-198 289.29,-194.5 279.29,-191 279.29,-198"/>
</a>
</g>
</g>
<!-- Node14 -->
<g id="Node000014" class="node">
<title>Node14</title>
<g id="a_Node000014"><a xlink:href="../../d5/d88/_fire_matrix_8h_afe461d27b9c48d5921c00d521181f12f.html#afe461d27b9c48d5921c00d521181f12f" target="_top" xlink:title=" ">
<polygon fill="white" stroke="#666666" points="164.5,-167 126.5,-167 126.5,-148 164.5,-148 164.5,-167"/>
<text text-anchor="middle" x="145.5" y="-155" font-family="Helvetica,sans-Serif" font-size="10.00">loop</text>
</a>
</g>
</g>
<!-- Node13&#45;&gt;Node14 -->
<g id="edge15_Node000013_Node000014" class="edge">
<title>Node13&#45;&gt;Node14</title>
<g id="a_edge15_Node000013_Node000014"><a xlink:title=" ">
<path fill="none" stroke="#63b8ff" d="M262.27,-157.5C228.52,-157.5 187.67,-157.5 164.62,-157.5"/>
<polygon fill="#63b8ff" stroke="#63b8ff" points="262.49,-161 272.49,-157.5 262.49,-154 262.49,-161"/>
</a>
</g>
</g>
<!-- Node16 -->
<g id="Node000016" class="node">
<title>Node16</title>
<g id="a_Node000016"><a xlink:href="../../d8/dd0/_fire_cylinder_8h_afe461d27b9c48d5921c00d521181f12f.html#afe461d27b9c48d5921c00d521181f12f" target="_top" xlink:title=" ">
<polygon fill="white" stroke="#666666" points="164.5,-130 126.5,-130 126.5,-111 164.5,-111 164.5,-130"/>
<text text-anchor="middle" x="145.5" y="-118" font-family="Helvetica,sans-Serif" font-size="10.00">loop</text>
</a>
</g>
</g>
<!-- Node15&#45;&gt;Node16 -->
<g id="edge17_Node000015_Node000016" class="edge">
<title>Node15&#45;&gt;Node16</title>
<g id="a_edge17_Node000015_Node000016"><a xlink:title=" ">
<path fill="none" stroke="#63b8ff" d="M262.27,-120.5C228.52,-120.5 187.67,-120.5 164.62,-120.5"/>
<polygon fill="#63b8ff" stroke="#63b8ff" points="262.49,-124 272.49,-120.5 262.49,-117 262.49,-124"/>
</a>
</g>
</g>
<!-- Node19 -->
<g id="Node000019" class="node">
<title>Node19</title>
<g id="a_Node000019"><a xlink:href="../../d7/da1/old_8h_afe461d27b9c48d5921c00d521181f12f.html#afe461d27b9c48d5921c00d521181f12f" target="_top" xlink:title=" ">
<polygon fill="white" stroke="#666666" points="164.5,-56 126.5,-56 126.5,-37 164.5,-37 164.5,-56"/>
<text text-anchor="middle" x="145.5" y="-44" font-family="Helvetica,sans-Serif" font-size="10.00">loop</text>
</a>
</g>
</g>
<!-- Node18&#45;&gt;Node19 -->
<g id="edge20_Node000018_Node000019" class="edge">
<title>Node18&#45;&gt;Node19</title>
<g id="a_edge20_Node000018_Node000019"><a xlink:title=" ">
<path fill="none" stroke="#63b8ff" d="M260.55,-46.5C227.16,-46.5 187.31,-46.5 164.65,-46.5"/>
<polygon fill="#63b8ff" stroke="#63b8ff" points="260.68,-50 270.68,-46.5 260.68,-43 260.68,-50"/>
</a>
</g>
</g>
<!-- Node21 -->
<g id="Node000021" class="node">
<title>Node21</title>
<g id="a_Node000021"><a xlink:href="../../da/d7a/struct_noise_generator_a62be308aab8c1d496976934e35bf648b.html#a62be308aab8c1d496976934e35bf648b" target="_top" xlink:title=" ">
<polygon fill="white" stroke="#666666" points="217,-19 74,-19 74,0 217,0 217,-19"/>
<text text-anchor="middle" x="145.5" y="-7" font-family="Helvetica,sans-Serif" font-size="10.00">NoiseGenerator::LedValue</text>
</a>
</g>
</g>
<!-- Node20&#45;&gt;Node21 -->
<g id="edge22_Node000020_Node000021" class="edge">
<title>Node20&#45;&gt;Node21</title>
<g id="a_edge22_Node000020_Node000021"><a xlink:title=" ">
<path fill="none" stroke="#63b8ff" d="M245.55,-9.5C236.19,-9.5 226.61,-9.5 217.28,-9.5"/>
<polygon fill="#63b8ff" stroke="#63b8ff" points="245.6,-13 255.6,-9.5 245.6,-6 245.6,-13"/>
</a>
</g>
</g>
</g>
</svg>
</svg>

<style type='text/css'>
<![CDATA[
[data-mouse-over-selected='false'] { opacity: 0.7; }
[data-mouse-over-selected='true']  { opacity: 1.0; }
]]>
</style>
<script type="application/ecmascript"><![CDATA[
document.addEventListener('DOMContentLoaded', (event) => {
  highlightEdges();
  highlightAdjacentNodes();
});
]]></script>
</svg>
