<?xml version="1.0" encoding="UTF-8" standalone="no"?>
<!DOCTYPE svg PUBLIC "-//W3C//DTD SVG 1.1//EN"
 "http://www.w3.org/Graphics/SVG/1.1/DTD/svg11.dtd">
<!-- Generated by graphviz version 2.43.0 (0)
 -->
<!-- Title: inoise8 Pages: 1 -->
<svg width="469pt" height="383pt"
 viewBox="0.00 0.00 469.00 382.86" xmlns="http://www.w3.org/2000/svg" xmlns:xlink="http://www.w3.org/1999/xlink">
<g id="graph0" class="graph" transform="scale(1 1) rotate(0) translate(4 378.86)">
<title>inoise8</title>
<!-- Node1 -->
<g id="Node000001" class="node">
<title>Node1</title>
<g id="a_Node000001"><a xlink:title="8&#45;Bit, fixed point implementation of Perlin&#39;s noise.">
<polygon fill="#999999" stroke="#666666" points="461,-169 409,-169 409,-150 461,-150 461,-169"/>
<text text-anchor="middle" x="435" y="-157" font-family="Helvetica,sans-Serif" font-size="10.00">inoise8</text>
</a>
</g>
</g>
<!-- Node2 -->
<g id="Node000002" class="node">
<title>Node2</title>
<g id="a_Node000002"><a xlink:href="../../d4/df2/classfl_1_1_luminova_aa775ddcb74da9d8ae057ac8e4c3c50cc.html#aa775ddcb74da9d8ae057ac8e4c3c50cc" target="_top" xlink:title=" ">
<polygon fill="white" stroke="#666666" points="187.5,-372 80.5,-372 80.5,-353 187.5,-353 187.5,-372"/>
<text text-anchor="middle" x="134" y="-360" font-family="Helvetica,sans-Serif" font-size="10.00">fl::Luminova::draw</text>
</a>
</g>
</g>
<!-- Node1&#45;&gt;Node2 -->
<g id="edge1_Node000001_Node000002" class="edge">
<title>Node1&#45;&gt;Node2</title>
<g id="a_edge1_Node000001_Node000002"><a xlink:title=" ">
<path fill="none" stroke="#63b8ff" d="M433.64,-179.25C431.8,-216.61 422.03,-297.35 373,-336.5 320.87,-378.13 240.56,-377.78 187.89,-371.72"/>
<polygon fill="#63b8ff" stroke="#63b8ff" points="437.14,-179.26 433.99,-169.15 430.15,-179.02 437.14,-179.26"/>
</a>
</g>
</g>
<!-- Node3 -->
<g id="Node000003" class="node">
<title>Node3</title>
<g id="a_Node000003"><a xlink:href="../../de/da4/group___noise_fill_ga3dc6c55a3f8495a7bc6dc0124434c688.html#ga3dc6c55a3f8495a7bc6dc0124434c688" target="_top" xlink:title="Fill a 2D 8&#45;bit buffer with noise, using inoise8()">
<polygon fill="white" stroke="#666666" points="352,-263 251,-263 251,-244 352,-244 352,-263"/>
<text text-anchor="middle" x="301.5" y="-251" font-family="Helvetica,sans-Serif" font-size="10.00">fill_raw_2dnoise8</text>
</a>
</g>
</g>
<!-- Node1&#45;&gt;Node3 -->
<g id="edge2_Node000001_Node000003" class="edge">
<title>Node1&#45;&gt;Node3</title>
<g id="a_edge2_Node000001_Node000003"><a xlink:title=" ">
<path fill="none" stroke="#63b8ff" d="M417.81,-176.45C406.04,-188.23 389.37,-203.85 373,-215.5 357.25,-226.71 337.82,-236.95 323.35,-243.97"/>
<polygon fill="#63b8ff" stroke="#63b8ff" points="420.61,-178.59 425.11,-169 415.61,-173.69 420.61,-178.59"/>
</a>
</g>
</g>
<!-- Node8 -->
<g id="Node000008" class="node">
<title>Node8</title>
<g id="a_Node000008"><a xlink:href="../../de/da4/group___noise_fill_ga1e4dba9289b03333697e70d4b7f3b006.html#ga1e4dba9289b03333697e70d4b7f3b006" target="_top" xlink:title="Fill a 1D 8&#45;bit buffer with noise, using inoise8()">
<polygon fill="white" stroke="#666666" points="346,-206 257,-206 257,-187 346,-187 346,-206"/>
<text text-anchor="middle" x="301.5" y="-194" font-family="Helvetica,sans-Serif" font-size="10.00">fill_raw_noise8</text>
</a>
</g>
</g>
<!-- Node1&#45;&gt;Node8 -->
<g id="edge8_Node000001_Node000008" class="edge">
<title>Node1&#45;&gt;Node8</title>
<g id="a_edge8_Node000001_Node000008"><a xlink:title=" ">
<path fill="none" stroke="#63b8ff" d="M399.18,-170.69C390.65,-173.34 381.51,-176.09 373,-178.5 362.79,-181.39 351.69,-184.32 341.38,-186.96"/>
<polygon fill="#63b8ff" stroke="#63b8ff" points="400.37,-173.98 408.86,-167.65 398.27,-167.3 400.37,-173.98"/>
</a>
</g>
</g>
<!-- Node11 -->
<g id="Node000011" class="node">
<title>Node11</title>
<g id="a_Node000011"><a xlink:href="../../d4/d06/curr_8h_a27ef46fa8abd1dedd29a3904d81622d2.html#a27ef46fa8abd1dedd29a3904d81622d2" target="_top" xlink:title=" ">
<polygon fill="white" stroke="#666666" points="359.5,-169 243.5,-169 243.5,-150 359.5,-150 359.5,-169"/>
<text text-anchor="middle" x="301.5" y="-157" font-family="Helvetica,sans-Serif" font-size="10.00">fillFrameBufferNoise</text>
</a>
</g>
</g>
<!-- Node1&#45;&gt;Node11 -->
<g id="edge11_Node000001_Node000011" class="edge">
<title>Node1&#45;&gt;Node11</title>
<g id="a_edge11_Node000001_Node000011"><a xlink:title=" ">
<path fill="none" stroke="#63b8ff" d="M398.86,-159.5C386.8,-159.5 372.96,-159.5 359.61,-159.5"/>
<polygon fill="#63b8ff" stroke="#63b8ff" points="398.96,-163 408.96,-159.5 398.96,-156 398.96,-163"/>
</a>
</g>
</g>
<!-- Node14 -->
<g id="Node000014" class="node">
<title>Node14</title>
<g id="a_Node000014"><a xlink:href="../../d6/d9d/_noise_8ino_a695b396822bbfb2d9b29c121cf13e8f3.html#a695b396822bbfb2d9b29c121cf13e8f3" target="_top" xlink:title=" ">
<polygon fill="white" stroke="#666666" points="332,-132 271,-132 271,-113 332,-113 332,-132"/>
<text text-anchor="middle" x="301.5" y="-120" font-family="Helvetica,sans-Serif" font-size="10.00">fillnoise8</text>
</a>
</g>
</g>
<!-- Node1&#45;&gt;Node14 -->
<g id="edge14_Node000001_Node000014" class="edge">
<title>Node1&#45;&gt;Node14</title>
<g id="a_edge14_Node000001_Node000014"><a xlink:title=" ">
<path fill="none" stroke="#63b8ff" d="M399.13,-149.06C390.6,-146.54 381.48,-143.89 373,-141.5 359.58,-137.71 344.68,-133.67 332.04,-130.29"/>
<polygon fill="#63b8ff" stroke="#63b8ff" points="398.23,-152.44 408.81,-151.92 400.22,-145.73 398.23,-152.44"/>
</a>
</g>
</g>
<!-- Node16 -->
<g id="Node000016" class="node">
<title>Node16</title>
<g id="a_Node000016"><a xlink:href="../../d9/d41/classfl_1_1_noise_palette_a22d1820b5a78e9ccfb4123ef9161f738.html#a22d1820b5a78e9ccfb4123ef9161f738" target="_top" xlink:title=" ">
<polygon fill="white" stroke="#666666" points="371.5,-95 231.5,-95 231.5,-76 371.5,-76 371.5,-95"/>
<text text-anchor="middle" x="301.5" y="-83" font-family="Helvetica,sans-Serif" font-size="10.00">fl::NoisePalette::fillnoise8</text>
</a>
</g>
</g>
<!-- Node1&#45;&gt;Node16 -->
<g id="edge16_Node000001_Node000016" class="edge">
<title>Node1&#45;&gt;Node16</title>
<g id="a_edge16_Node000001_Node000016"><a xlink:title=" ">
<path fill="none" stroke="#63b8ff" d="M419.34,-142.05C407.93,-129.56 391.04,-113.27 373,-103.5 366.67,-100.07 359.66,-97.28 352.59,-95"/>
<polygon fill="#63b8ff" stroke="#63b8ff" points="416.77,-144.42 426,-149.61 422.02,-139.79 416.77,-144.42"/>
</a>
</g>
</g>
<!-- Node18 -->
<g id="Node000018" class="node">
<title>Node18</title>
<g id="a_Node000018"><a xlink:href="../../dc/db7/examples_2_luminova_2luminova_8h_afe461d27b9c48d5921c00d521181f12f.html#afe461d27b9c48d5921c00d521181f12f" target="_top" xlink:title=" ">
<polygon fill="white" stroke="#666666" points="153,-38 115,-38 115,-19 153,-19 153,-38"/>
<text text-anchor="middle" x="134" y="-26" font-family="Helvetica,sans-Serif" font-size="10.00">loop</text>
</a>
</g>
</g>
<!-- Node1&#45;&gt;Node18 -->
<g id="edge18_Node000001_Node000018" class="edge">
<title>Node1&#45;&gt;Node18</title>
<g id="a_edge18_Node000001_Node000018"><a xlink:title=" ">
<path fill="none" stroke="#63b8ff" d="M427.06,-140.5C418.09,-118.85 400.31,-84.17 373,-66.5 336.46,-42.86 202.18,-32.55 153.11,-29.51"/>
<polygon fill="#63b8ff" stroke="#63b8ff" points="423.85,-141.92 430.75,-149.96 430.37,-139.37 423.85,-141.92"/>
</a>
</g>
</g>
<!-- Node19 -->
<g id="Node000019" class="node">
<title>Node19</title>
<g id="a_Node000019"><a xlink:href="../../d4/df2/classfl_1_1_luminova_a003620fe7206a4d4c4b23ef2ea4d4d46.html#a003620fe7206a4d4c4b23ef2ea4d4d46" target="_top" xlink:title=" ">
<polygon fill="white" stroke="#666666" points="373,-327 230,-327 230,-308 373,-308 373,-327"/>
<text text-anchor="middle" x="301.5" y="-315" font-family="Helvetica,sans-Serif" font-size="10.00">fl::Luminova::resetParticle</text>
</a>
</g>
</g>
<!-- Node1&#45;&gt;Node19 -->
<g id="edge19_Node000001_Node000019" class="edge">
<title>Node1&#45;&gt;Node19</title>
<g id="a_edge19_Node000001_Node000019"><a xlink:title=" ">
<path fill="none" stroke="#63b8ff" d="M429.81,-179.1C422.79,-207.4 406.05,-259.69 373,-290.5 364.66,-298.28 353.85,-303.88 343.2,-307.9"/>
<polygon fill="#63b8ff" stroke="#63b8ff" points="433.25,-179.73 432.11,-169.2 426.43,-178.15 433.25,-179.73"/>
</a>
</g>
</g>
<!-- Node20 -->
<g id="Node000020" class="node">
<title>Node20</title>
<g id="a_Node000020"><a xlink:href="../../dc/db7/examples_2_luminova_2luminova_8h_a86824ded4d9f0ee6bad1cf3856cb4d31.html#a86824ded4d9f0ee6bad1cf3856cb4d31" target="_top" xlink:title=" ">
<polygon fill="white" stroke="#666666" points="340,-19 263,-19 263,0 340,0 340,-19"/>
<text text-anchor="middle" x="301.5" y="-7" font-family="Helvetica,sans-Serif" font-size="10.00">resetParticle</text>
</a>
</g>
</g>
<!-- Node1&#45;&gt;Node20 -->
<g id="edge21_Node000001_Node000020" class="edge">
<title>Node1&#45;&gt;Node20</title>
<g id="a_edge21_Node000001_Node000020"><a xlink:title=" ">
<path fill="none" stroke="#63b8ff" d="M429.54,-139.71C422.32,-112.11 405.48,-62.22 373,-33.5 363.8,-25.36 351.72,-19.96 340.16,-16.38"/>
<polygon fill="#63b8ff" stroke="#63b8ff" points="426.22,-140.85 431.99,-149.74 433.01,-139.19 426.22,-140.85"/>
</a>
</g>
</g>
<!-- Node3&#45;&gt;Node3 -->
<g id="edge6_Node000003_Node000003" class="edge">
<title>Node3&#45;&gt;Node3</title>
<g id="a_edge6_Node000003_Node000003"><a xlink:title=" ">
<path fill="none" stroke="#63b8ff" d="M326.05,-272.19C324.71,-277.2 316.53,-281 301.5,-281 278.04,-281 271.26,-271.73 281.15,-263.08"/>
<polygon fill="#63b8ff" stroke="#63b8ff" points="329.22,-270.69 321.85,-263.08 322.86,-273.63 329.22,-270.69"/>
</a>
</g>
</g>
<!-- Node4 -->
<g id="Node000004" class="node">
<title>Node4</title>
<g id="a_Node000004"><a xlink:href="../../de/da4/group___noise_fill_ga714a0f305e385a60d81a40d1f98b53fc.html#ga714a0f305e385a60d81a40d1f98b53fc" target="_top" xlink:title="Fill an LED matrix with random colors, using 16&#45;bit noise.">
<polygon fill="white" stroke="#666666" points="176,-335 92,-335 92,-316 176,-316 176,-335"/>
<text text-anchor="middle" x="134" y="-323" font-family="Helvetica,sans-Serif" font-size="10.00">fill_2dnoise16</text>
</a>
</g>
</g>
<!-- Node3&#45;&gt;Node4 -->
<g id="edge3_Node000003_Node000004" class="edge">
<title>Node3&#45;&gt;Node4</title>
<g id="a_edge3_Node000003_Node000004"><a xlink:title=" ">
<path fill="none" stroke="#63b8ff" d="M274.95,-268.04C253.73,-279.72 222.52,-296.02 194,-307.5 186.35,-310.58 177.96,-313.43 169.98,-315.92"/>
<polygon fill="#63b8ff" stroke="#63b8ff" points="276.91,-270.95 283.95,-263.03 273.51,-264.83 276.91,-270.95"/>
</a>
</g>
</g>
<!-- Node6 -->
<g id="Node000006" class="node">
<title>Node6</title>
<g id="a_Node000006"><a xlink:href="../../de/da4/group___noise_fill_ga6fcc17e60eac4b9dbb620f7e354177f1.html#ga6fcc17e60eac4b9dbb620f7e354177f1" target="_top" xlink:title="Fill an LED matrix with random colors, using 8&#45;bit noise.">
<polygon fill="white" stroke="#666666" points="173,-298 95,-298 95,-279 173,-279 173,-298"/>
<text text-anchor="middle" x="134" y="-286" font-family="Helvetica,sans-Serif" font-size="10.00">fill_2dnoise8</text>
</a>
</g>
</g>
<!-- Node3&#45;&gt;Node6 -->
<g id="edge5_Node000003_Node000006" class="edge">
<title>Node3&#45;&gt;Node6</title>
<g id="a_edge5_Node000003_Node000006"><a xlink:title=" ">
<path fill="none" stroke="#63b8ff" d="M245.36,-265.16C221.67,-270.17 194.58,-275.9 173.16,-280.43"/>
<polygon fill="#63b8ff" stroke="#63b8ff" points="246.22,-268.56 255.28,-263.06 244.77,-261.71 246.22,-268.56"/>
</a>
</g>
</g>
<!-- Node7 -->
<g id="Node000007" class="node">
<title>Node7</title>
<g id="a_Node000007"><a xlink:href="../../de/da4/group___noise_fill_gaaa7d79bb9fdaf2c6b315c61c2c951142.html#gaaa7d79bb9fdaf2c6b315c61c2c951142" target="_top" xlink:title=" ">
<polygon fill="white" stroke="#666666" points="184.5,-261 83.5,-261 83.5,-242 184.5,-242 184.5,-261"/>
<text text-anchor="middle" x="134" y="-249" font-family="Helvetica,sans-Serif" font-size="10.00">fill_raw_2dnoise8</text>
</a>
</g>
</g>
<!-- Node3&#45;&gt;Node7 -->
<g id="edge7_Node000003_Node000007" class="edge">
<title>Node3&#45;&gt;Node7</title>
<g id="a_edge7_Node000003_Node000007"><a xlink:title=" ">
<path fill="none" stroke="#63b8ff" d="M240.8,-252.78C222.38,-252.56 202.29,-252.31 184.62,-252.1"/>
<polygon fill="#63b8ff" stroke="#63b8ff" points="240.8,-256.28 250.84,-252.9 240.89,-249.28 240.8,-256.28"/>
</a>
</g>
</g>
<!-- Node5 -->
<g id="Node000005" class="node">
<title>Node5</title>
<g id="a_Node000005"><a xlink:href="../../d3/d4e/_noise_playground_8h_afe461d27b9c48d5921c00d521181f12f.html#afe461d27b9c48d5921c00d521181f12f" target="_top" xlink:title=" ">
<polygon fill="white" stroke="#666666" points="38,-335 0,-335 0,-316 38,-316 38,-335"/>
<text text-anchor="middle" x="19" y="-323" font-family="Helvetica,sans-Serif" font-size="10.00">loop</text>
</a>
</g>
</g>
<!-- Node4&#45;&gt;Node5 -->
<g id="edge4_Node000004_Node000005" class="edge">
<title>Node4&#45;&gt;Node5</title>
<g id="a_edge4_Node000004_Node000005"><a xlink:title=" ">
<path fill="none" stroke="#63b8ff" d="M81.77,-325.5C66.19,-325.5 50.07,-325.5 38.2,-325.5"/>
<polygon fill="#63b8ff" stroke="#63b8ff" points="81.88,-329 91.88,-325.5 81.88,-322 81.88,-329"/>
</a>
</g>
</g>
<!-- Node9 -->
<g id="Node000009" class="node">
<title>Node9</title>
<g id="a_Node000009"><a xlink:href="../../de/da4/group___noise_fill_ga8bf5ab0f87a6bb79204754ef2a62f960.html#ga8bf5ab0f87a6bb79204754ef2a62f960" target="_top" xlink:title="Fill an LED array with random colors, using 16&#45;bit noise.">
<polygon fill="white" stroke="#666666" points="170,-224 98,-224 98,-205 170,-205 170,-224"/>
<text text-anchor="middle" x="134" y="-212" font-family="Helvetica,sans-Serif" font-size="10.00">fill_noise16</text>
</a>
</g>
</g>
<!-- Node8&#45;&gt;Node9 -->
<g id="edge9_Node000008_Node000009" class="edge">
<title>Node8&#45;&gt;Node9</title>
<g id="a_edge9_Node000008_Node000009"><a xlink:title=" ">
<path fill="none" stroke="#63b8ff" d="M246.49,-202.37C221.44,-205.1 192.38,-208.26 170.21,-210.67"/>
<polygon fill="#63b8ff" stroke="#63b8ff" points="247.02,-205.84 256.58,-201.28 246.26,-198.88 247.02,-205.84"/>
</a>
</g>
</g>
<!-- Node10 -->
<g id="Node000010" class="node">
<title>Node10</title>
<g id="a_Node000010"><a xlink:href="../../de/da4/group___noise_fill_ga7967fd7b1a7230a0f7428347c70dac3e.html#ga7967fd7b1a7230a0f7428347c70dac3e" target="_top" xlink:title="Fill an LED array with random colors, using 8&#45;bit noise.">
<polygon fill="white" stroke="#666666" points="167,-187 101,-187 101,-168 167,-168 167,-187"/>
<text text-anchor="middle" x="134" y="-175" font-family="Helvetica,sans-Serif" font-size="10.00">fill_noise8</text>
</a>
</g>
</g>
<!-- Node8&#45;&gt;Node10 -->
<g id="edge10_Node000008_Node000010" class="edge">
<title>Node8&#45;&gt;Node10</title>
<g id="a_edge10_Node000008_Node000010"><a xlink:title=" ">
<path fill="none" stroke="#63b8ff" d="M246.4,-190.29C220.16,-187.28 189.53,-183.76 167.04,-181.18"/>
<polygon fill="#63b8ff" stroke="#63b8ff" points="246.25,-193.79 256.58,-191.46 247.05,-186.84 246.25,-193.79"/>
</a>
</g>
</g>
<!-- Node12 -->
<g id="Node000012" class="node">
<title>Node12</title>
<g id="a_Node000012"><a xlink:href="../../d4/d06/curr_8h_a889977e3c2cad101b68a8c97148ef3c0.html#a889977e3c2cad101b68a8c97148ef3c0" target="_top" xlink:title=" ">
<polygon fill="white" stroke="#666666" points="168,-150 100,-150 100,-131 168,-131 168,-150"/>
<text text-anchor="middle" x="134" y="-138" font-family="Helvetica,sans-Serif" font-size="10.00">drawNoise</text>
</a>
</g>
</g>
<!-- Node11&#45;&gt;Node12 -->
<g id="edge12_Node000011_Node000012" class="edge">
<title>Node11&#45;&gt;Node12</title>
<g id="a_edge12_Node000011_Node000012"><a xlink:title=" ">
<path fill="none" stroke="#63b8ff" d="M232.96,-151.75C210.63,-149.18 186.77,-146.44 168.2,-144.31"/>
<polygon fill="#63b8ff" stroke="#63b8ff" points="232.75,-155.24 243.08,-152.91 233.55,-148.29 232.75,-155.24"/>
</a>
</g>
</g>
<!-- Node13 -->
<g id="Node000013" class="node">
<title>Node13</title>
<g id="a_Node000013"><a xlink:href="../../d4/d06/curr_8h_afe461d27b9c48d5921c00d521181f12f.html#afe461d27b9c48d5921c00d521181f12f" target="_top" xlink:title=" ">
<polygon fill="white" stroke="#666666" points="38,-150 0,-150 0,-131 38,-131 38,-150"/>
<text text-anchor="middle" x="19" y="-138" font-family="Helvetica,sans-Serif" font-size="10.00">loop</text>
</a>
</g>
</g>
<!-- Node12&#45;&gt;Node13 -->
<g id="edge13_Node000012_Node000013" class="edge">
<title>Node12&#45;&gt;Node13</title>
<g id="a_edge13_Node000012_Node000013"><a xlink:title=" ">
<path fill="none" stroke="#63b8ff" d="M89.7,-140.5C71.75,-140.5 51.91,-140.5 38.01,-140.5"/>
<polygon fill="#63b8ff" stroke="#63b8ff" points="89.71,-144 99.71,-140.5 89.71,-137 89.71,-144"/>
</a>
</g>
</g>
<!-- Node15 -->
<g id="Node000015" class="node">
<title>Node15</title>
<g id="a_Node000015"><a xlink:href="../../d6/d9d/_noise_8ino_afe461d27b9c48d5921c00d521181f12f.html#afe461d27b9c48d5921c00d521181f12f" target="_top" xlink:title=" ">
<polygon fill="white" stroke="#666666" points="153,-113 115,-113 115,-94 153,-94 153,-113"/>
<text text-anchor="middle" x="134" y="-101" font-family="Helvetica,sans-Serif" font-size="10.00">loop</text>
</a>
</g>
</g>
<!-- Node14&#45;&gt;Node15 -->
<g id="edge15_Node000014_Node000015" class="edge">
<title>Node14&#45;&gt;Node15</title>
<g id="a_edge15_Node000014_Node000015"><a xlink:title=" ">
<path fill="none" stroke="#63b8ff" d="M260.77,-117.94C226.57,-114.01 178.79,-108.53 153.09,-105.58"/>
<polygon fill="#63b8ff" stroke="#63b8ff" points="260.58,-121.44 270.91,-119.1 261.38,-114.49 260.58,-121.44"/>
</a>
</g>
</g>
<!-- Node17 -->
<g id="Node000017" class="node">
<title>Node17</title>
<g id="a_Node000017"><a xlink:href="../../d9/d41/classfl_1_1_noise_palette_afc6cd594830dfdd146c45e7ab1d1905d.html#afc6cd594830dfdd146c45e7ab1d1905d" target="_top" xlink:title=" ">
<polygon fill="white" stroke="#666666" points="194,-76 74,-76 74,-57 194,-57 194,-76"/>
<text text-anchor="middle" x="134" y="-64" font-family="Helvetica,sans-Serif" font-size="10.00">fl::NoisePalette::draw</text>
</a>
</g>
</g>
<!-- Node16&#45;&gt;Node17 -->
<g id="edge17_Node000016_Node000017" class="edge">
<title>Node16&#45;&gt;Node17</title>
<g id="a_edge17_Node000016_Node000017"><a xlink:title=" ">
<path fill="none" stroke="#63b8ff" d="M221.1,-76.38C212.06,-75.35 202.96,-74.3 194.23,-73.3"/>
<polygon fill="#63b8ff" stroke="#63b8ff" points="220.94,-79.89 231.27,-77.55 221.74,-72.93 220.94,-79.89"/>
</a>
</g>
</g>
<!-- Node19&#45;&gt;Node2 -->
<g id="edge20_Node000019_Node000002" class="edge">
<title>Node19&#45;&gt;Node2</title>
<g id="a_edge20_Node000019_Node000002"><a xlink:title=" ">
<path fill="none" stroke="#63b8ff" d="M255.46,-329.75C228.58,-337.06 194.94,-346.2 170.05,-352.97"/>
<polygon fill="#63b8ff" stroke="#63b8ff" points="256.67,-333.04 265.4,-327.04 254.83,-326.29 256.67,-333.04"/>
</a>
</g>
</g>
<!-- Node20&#45;&gt;Node18 -->
<g id="edge22_Node000020_Node000018" class="edge">
<title>Node20&#45;&gt;Node18</title>
<g id="a_edge22_Node000020_Node000018"><a xlink:title=" ">
<path fill="none" stroke="#63b8ff" d="M252.93,-14.96C219.57,-18.79 176.84,-23.7 153.06,-26.43"/>
<polygon fill="#63b8ff" stroke="#63b8ff" points="253.41,-18.43 262.95,-13.81 252.61,-11.47 253.41,-18.43"/>
</a>
</g>
</g>
</g>
</svg>
