<?xml version="1.0" encoding="UTF-8" standalone="no"?>
<!DOCTYPE svg PUBLIC "-//W3C//DTD SVG 1.1//EN"
 "http://www.w3.org/Graphics/SVG/1.1/DTD/svg11.dtd">
<!-- Generated by graphviz version 2.43.0 (0)
 -->
<!-- Title: fl::Zoom2_FP::draw Pages: 1 -->
<!--zoomable 161 -->

<svg id="main" version="1.1" xmlns="http://www.w3.org/2000/svg" xmlns:xlink="http://www.w3.org/1999/xlink" xml:space="preserve" onload="init(evt)">

<style type="text/css"><![CDATA[
.node, .edge {opacity: 0.7;}
.node.selected, .edge.selected {opacity: 1;}
.edge:hover path { stroke: red; }
.edge:hover polygon { stroke: red; fill: red; }
]]></style>

<defs>
  <circle id="rim" cx="0" cy="0" r="7"/>
  <circle id="rim2" cx="0" cy="0" r="3.5"/>
  <g id="zoomPlus">
    <use xlink:href="#rim" fill="#404040"><set attributeName="fill" to="#808080" begin="zoomplus.mouseover" end="zoomplus.mouseout"/></use>
    <path d="M-4,0h8M0,-4v8" fill="none" stroke="white" stroke-width="1.5" pointer-events="none"/>
  </g>
  <g id="zoomMin">
    <use xlink:href="#rim" fill="#404040"><set attributeName="fill" to="#808080" begin="zoomminus.mouseover" end="zoomminus.mouseout"/></use>
    <path d="M-4,0h8" fill="none" stroke="white" stroke-width="1.5" pointer-events="none"/>
  </g>
  <g id="arrowUp" transform="translate(30 24)">
    <use xlink:href="#rim"/>
    <path pointer-events="none" fill="none" stroke="white" stroke-width="1.5" d="M0,-3.0v7 M-2.5,-0.5L0,-3.0L2.5,-0.5"/>
  </g>
  <g id="arrowRight" transform="rotate(90) translate(36 -43)">
    <use xlink:href="#rim"/>
    <path pointer-events="none" fill="none" stroke="white" stroke-width="1.5" d="M0,-3.0v7 M-2.5,-0.5L0,-3.0L2.5,-0.5"/>
  </g>
  <g id="arrowDown" transform="rotate(180) translate(-30 -48)">
    <use xlink:href="#rim"/>
    <path pointer-events="none" fill="none" stroke="white" stroke-width="1.5" d="M0,-3.0v7 M-2.5,-0.5L0,-3.0L2.5,-0.5"/>
  </g>
  <g id="arrowLeft" transform="rotate(270) translate(-36 17)">
    <use xlink:href="#rim"/>
    <path pointer-events="none" fill="none" stroke="white" stroke-width="1.5" d="M0,-3.0v7 M-2.5,-0.5L0,-3.0L2.5,-0.5"/>
  </g>
  <g id="resetDef">
    <use xlink:href="#rim2" fill="#404040"><set attributeName="fill" to="#808080" begin="reset.mouseover" end="reset.mouseout"/></use>
  </g>
</defs>
<script type="application/ecmascript">
var viewWidth = 562;
var viewHeight = 161;
var sectionId = 'dynsection-0';
</script>
<script type="application/ecmascript" xlink:href="../../svg.min.js"/>
<svg id="graph" class="graph">
<g id="viewport">
<title>fl::Zoom2_FP::draw</title>
<!-- Node1 -->
<g id="Node000001" class="node">
<title>Node1</title>
<g id="a_Node000001"><a xlink:title=" ">
<polygon fill="#999999" stroke="#666666" points="110,-116 0,-116 0,-97 110,-97 110,-116"/>
<text text-anchor="middle" x="55" y="-104" font-family="Helvetica,sans-Serif" font-size="10.00">fl::Zoom2_FP::draw</text>
</a>
</g>
</g>
<!-- Node2 -->
<g id="Node000002" class="node">
<title>Node2</title>
<g id="a_Node000002"><a xlink:href="../../da/d3c/namespacefl_1_1fl_ab4a4a89750bf923005084995e1de2f92.html#ab4a4a89750bf923005084995e1de2f92" target="_top" xlink:title=" ">
<polygon fill="white" stroke="#666666" points="266,-138 146,-138 146,-119 266,-119 266,-138"/>
<text text-anchor="middle" x="206" y="-126" font-family="Helvetica,sans-Serif" font-size="10.00">fl::fl::assume_aligned</text>
</a>
</g>
</g>
<!-- Node1&#45;&gt;Node2 -->
<g id="edge1_Node000001_Node000002" class="edge">
<title>Node1&#45;&gt;Node2</title>
<g id="a_edge1_Node000001_Node000002"><a xlink:title=" ">
<path fill="none" stroke="#63b8ff" d="M110.21,-114.5C118.53,-115.73 127.2,-117.01 135.79,-118.28"/>
<polygon fill="#63b8ff" stroke="#63b8ff" points="135.39,-121.76 145.79,-119.76 136.41,-114.84 135.39,-121.76"/>
</a>
</g>
</g>
<!-- Node3 -->
<g id="Node000003" class="node">
<title>Node3</title>
<g id="a_Node000003"><a xlink:href="../../d4/d36/namespacefl_a9b47c6dc4674f84aec1a4acfaa5732f9.html#a9b47c6dc4674f84aec1a4acfaa5732f9" target="_top" xlink:title=" ">
<polygon fill="white" stroke="#666666" points="259.5,-100.5 152.5,-100.5 152.5,-70.5 259.5,-70.5 259.5,-100.5"/>
<text text-anchor="start" x="160.5" y="-88.5" font-family="Helvetica,sans-Serif" font-size="10.00">fl::render_value_fp</text>
<text text-anchor="middle" x="206" y="-77.5" font-family="Helvetica,sans-Serif" font-size="10.00">_from_float</text>
</a>
</g>
</g>
<!-- Node1&#45;&gt;Node3 -->
<g id="edge2_Node000001_Node000003" class="edge">
<title>Node1&#45;&gt;Node3</title>
<g id="a_edge2_Node000001_Node000003"><a xlink:title=" ">
<path fill="none" stroke="#63b8ff" d="M110.21,-98.86C120.56,-97.4 131.46,-95.86 142.05,-94.37"/>
<polygon fill="#63b8ff" stroke="#63b8ff" points="142.66,-97.82 152.07,-92.96 141.68,-90.89 142.66,-97.82"/>
</a>
</g>
</g>
<!-- Node4 -->
<g id="Node000004" class="node">
<title>Node4</title>
<g id="a_Node000004"><a xlink:href="../../d9/d9f/classfl_1_1s16x16_aa048b427f50f28993a67941e0f303a65.html#aa048b427f50f28993a67941e0f303a65" target="_top" xlink:title=" ">
<polygon fill="white" stroke="#666666" points="399.5,-114 311.5,-114 311.5,-95 399.5,-95 399.5,-114"/>
<text text-anchor="middle" x="355.5" y="-102" font-family="Helvetica,sans-Serif" font-size="10.00">fl::s16x16::raw</text>
</a>
</g>
</g>
<!-- Node3&#45;&gt;Node4 -->
<g id="edge3_Node000003_Node000004" class="edge">
<title>Node3&#45;&gt;Node4</title>
<g id="a_edge3_Node000003_Node000004"><a xlink:title=" ">
<path fill="none" stroke="#63b8ff" d="M259.83,-92.31C273.27,-94.04 287.72,-95.9 301.18,-97.63"/>
<polygon fill="#63b8ff" stroke="#63b8ff" points="300.89,-101.12 311.25,-98.93 301.78,-94.18 300.89,-101.12"/>
</a>
</g>
</g>
<!-- Node5 -->
<g id="Node000005" class="node">
<title>Node5</title>
<g id="a_Node000005"><a xlink:href="../../d4/d36/namespacefl_a6291b8d2d09d5f814b0a4314a2d6ed71.html#a6291b8d2d09d5f814b0a4314a2d6ed71" target="_top" xlink:title=" ">
<polygon fill="white" stroke="#666666" points="409,-77 302,-77 302,-58 409,-58 409,-77"/>
<text text-anchor="middle" x="355.5" y="-65" font-family="Helvetica,sans-Serif" font-size="10.00">fl::render_value_fp</text>
</a>
</g>
</g>
<!-- Node3&#45;&gt;Node5 -->
<g id="edge4_Node000003_Node000005" class="edge">
<title>Node3&#45;&gt;Node5</title>
<g id="a_edge4_Node000003_Node000005"><a xlink:title=" ">
<path fill="none" stroke="#63b8ff" d="M259.83,-79.05C270.11,-77.8 280.97,-76.47 291.53,-75.18"/>
<polygon fill="#63b8ff" stroke="#63b8ff" points="292.04,-78.65 301.54,-73.96 291.19,-71.7 292.04,-78.65"/>
</a>
</g>
</g>
<!-- Node6 -->
<g id="Node000006" class="node">
<title>Node6</title>
<g id="a_Node000006"><a xlink:href="../../d3/d7d/structfl_1_1perlin__s16x16_a5c42ee9ef6f75bb1104ddbc8949054c9.html#a5c42ee9ef6f75bb1104ddbc8949054c9" target="_top" xlink:title=" ">
<polygon fill="#fff0f0" stroke="red" points="551,-152.5 448,-152.5 448,-122.5 551,-122.5 551,-152.5"/>
<text text-anchor="start" x="456" y="-140.5" font-family="Helvetica,sans-Serif" font-size="10.00">fl::perlin_s16x16::</text>
<text text-anchor="middle" x="499.5" y="-129.5" font-family="Helvetica,sans-Serif" font-size="10.00">pnoise2d_raw</text>
</a>
</g>
</g>
<!-- Node5&#45;&gt;Node6 -->
<g id="edge5_Node000005_Node000006" class="edge">
<title>Node5&#45;&gt;Node6</title>
<g id="a_edge5_Node000005_Node000006"><a xlink:title=" ">
<path fill="none" stroke="#63b8ff" d="M387.7,-77.07C394.88,-79.74 402.35,-82.91 409,-86.5 426.6,-96.01 427.77,-103.34 445,-113.5 447.51,-114.98 450.12,-116.43 452.79,-117.83"/>
<polygon fill="#63b8ff" stroke="#63b8ff" points="451.47,-121.08 461.98,-122.43 454.6,-114.82 451.47,-121.08"/>
</a>
</g>
</g>
<!-- Node11 -->
<g id="Node000011" class="node">
<title>Node11</title>
<g id="a_Node000011"><a xlink:href="../../d3/d7d/structfl_1_1perlin__s16x16_a6151333bcd3d7e41883095f0ab64cc6c.html#a6151333bcd3d7e41883095f0ab64cc6c" target="_top" xlink:title=" ">
<polygon fill="#fff0f0" stroke="red" points="551,-104.5 448,-104.5 448,-74.5 551,-74.5 551,-104.5"/>
<text text-anchor="start" x="456" y="-92.5" font-family="Helvetica,sans-Serif" font-size="10.00">fl::perlin_s16x16::</text>
<text text-anchor="middle" x="499.5" y="-81.5" font-family="Helvetica,sans-Serif" font-size="10.00">pnoise3d_raw</text>
</a>
</g>
</g>
<!-- Node5&#45;&gt;Node11 -->
<g id="edge6_Node000005_Node000011" class="edge">
<title>Node5&#45;&gt;Node11</title>
<g id="a_edge6_Node000005_Node000011"><a xlink:title=" ">
<path fill="none" stroke="#63b8ff" d="M409.38,-75.69C418.64,-77.13 428.35,-78.63 437.8,-80.1"/>
<polygon fill="#63b8ff" stroke="#63b8ff" points="437.52,-83.59 447.94,-81.67 438.59,-76.68 437.52,-83.59"/>
</a>
</g>
</g>
<!-- Node13 -->
<g id="Node000013" class="node">
<title>Node13</title>
<g id="a_Node000013"><a xlink:href="../../d4/d36/namespacefl_a3554157e5c580a5b363e1a723d39e024.html#a3554157e5c580a5b363e1a723d39e024" target="_top" xlink:title=" ">
<polygon fill="white" stroke="#666666" points="554,-56 445,-56 445,-37 554,-37 554,-56"/>
<text text-anchor="middle" x="499.5" y="-44" font-family="Helvetica,sans-Serif" font-size="10.00">fl::radiansToA24_fp</text>
</a>
</g>
</g>
<!-- Node5&#45;&gt;Node13 -->
<g id="edge7_Node000005_Node000013" class="edge">
<title>Node5&#45;&gt;Node13</title>
<g id="a_edge7_Node000005_Node000013"><a xlink:title=" ">
<path fill="none" stroke="#63b8ff" d="M409.38,-59.68C417.56,-58.47 426.09,-57.21 434.49,-55.97"/>
<polygon fill="#63b8ff" stroke="#63b8ff" points="435.25,-59.39 444.63,-54.47 434.23,-52.47 435.25,-59.39"/>
</a>
</g>
</g>
<!-- Node14 -->
<g id="Node000014" class="node">
<title>Node14</title>
<g id="a_Node000014"><a xlink:href="../../d4/d36/namespacefl_ab168280957e4bfee3a3976381bd9e663.html#ab168280957e4bfee3a3976381bd9e663" target="_top" xlink:title=" ">
<polygon fill="#fff0f0" stroke="red" points="535,-19 464,-19 464,0 535,0 535,-19"/>
<text text-anchor="middle" x="499.5" y="-7" font-family="Helvetica,sans-Serif" font-size="10.00">fl::sincos32</text>
</a>
</g>
</g>
<!-- Node5&#45;&gt;Node14 -->
<g id="edge8_Node000005_Node000014" class="edge">
<title>Node5&#45;&gt;Node14</title>
<g id="a_edge8_Node000005_Node000014"><a xlink:title=" ">
<path fill="none" stroke="#63b8ff" d="M377.06,-57.92C394.88,-49.75 421.44,-37.86 445,-28.5 450.1,-26.48 455.5,-24.43 460.84,-22.48"/>
<polygon fill="#63b8ff" stroke="#63b8ff" points="462.09,-25.75 470.31,-19.07 459.72,-19.16 462.09,-25.75"/>
</a>
</g>
</g>
</g>
</svg>

<g id="navigator" transform="translate(0 0)" fill="#404254">
  <rect fill="#f2f5e9" fill-opacity="0.5" stroke="#606060" stroke-width=".5" x="0" y="0" width="60" height="60"/>
  <use id="zoomplus" xlink:href="#zoomPlus" x="17" y="9" onmousedown="handleZoom(evt,'in')"/>
  <use id="zoomminus" xlink:href="#zoomMin" x="42" y="9" onmousedown="handleZoom(evt,'out')"/>
  <use id="reset" xlink:href="#resetDef" x="30" y="36" onmousedown="handleReset()"/>
   <use id="arrowup" xlink:href="#arrowUp" x="0" y="0" onmousedown="handlePan(0,-1)"/>
  <use id="arrowright" xlink:href="#arrowRight" x="0" y="0" onmousedown="handlePan(1,0)"/>
  <use id="arrowdown" xlink:href="#arrowDown" x="0" y="0" onmousedown="handlePan(0,1)"/>
  <use id="arrowleft" xlink:href="#arrowLeft" x="0" y="0" onmousedown="handlePan(-1,0)"/>
</g>
<svg viewBox="0 0 15 15" width="100%" height="30px" preserveAspectRatio="xMaxYMin meet">
 <g id="arrow_out" transform="scale(0.3 0.3)">
  <a xlink:href="classfl_1_1_zoom2___f_p_a2f384703038b36f9cd4f41b4fb9d481d_a2f384703038b36f9cd4f41b4fb9d481d_cgraph_org.svg" target="_base">
   <rect id="button" ry="5" rx="5" y="6" x="6" height="38" width="38"
        fill="#f2f5e9" fill-opacity="0.5" stroke="#606060" stroke-width="1.0"/>
   <path id="arrow"
     d="M 11.500037,31.436501 C 11.940474,20.09759 22.043105,11.32322 32.158766,21.979434 L 37.068811,17.246167 C 37.068811,17.246167 37.088388,32 37.088388,32 L 22.160133,31.978069 C 22.160133,31.978069 26.997745,27.140456 26.997745,27.140456 C 18.528582,18.264221 13.291696,25.230495 11.500037,31.436501 z"
     style="fill:#404040;"/>
  </a>
 </g>
</svg>

<style type='text/css'>
<![CDATA[
[data-mouse-over-selected='false'] { opacity: 0.7; }
[data-mouse-over-selected='true']  { opacity: 1.0; }
]]>
</style>
<script type="application/ecmascript"><![CDATA[
document.addEventListener('DOMContentLoaded', (event) => {
  highlightEdges();
  highlightAdjacentNodes();
});
]]></script>
</svg>
