<?xml version="1.0" encoding="UTF-8" standalone="no"?>
<!DOCTYPE svg PUBLIC "-//W3C//DTD SVG 1.1//EN"
 "http://www.w3.org/Graphics/SVG/1.1/DTD/svg11.dtd">
<!-- Generated by graphviz version 2.43.0 (0)
 -->
<!-- Title: fl::task::Scheduler::update_tasks_of_type Pages: 1 -->
<svg width="648pt" height="107pt"
 viewBox="0.00 0.00 648.00 106.51" xmlns="http://www.w3.org/2000/svg" xmlns:xlink="http://www.w3.org/1999/xlink">
<g id="graph0" class="graph" transform="scale(1 1) rotate(0) translate(4 102.51)">
<title>fl::task::Scheduler::update_tasks_of_type</title>
<!-- Node1 -->
<g id="Node000001" class="node">
<title>Node1</title>
<g id="a_Node000001"><a xlink:title=" ">
<polygon fill="#999999" stroke="#666666" points="640,-78 510,-78 510,-48 640,-48 640,-78"/>
<text text-anchor="start" x="518" y="-66" font-family="Helvetica,sans-Serif" font-size="10.00">fl::task::Scheduler</text>
<text text-anchor="middle" x="575" y="-55" font-family="Helvetica,sans-Serif" font-size="10.00">::update_tasks_of_type</text>
</a>
</g>
</g>
<!-- Node2 -->
<g id="Node000002" class="node">
<title>Node2</title>
<g id="a_Node000002"><a xlink:href="../../d2/d2b/classfl_1_1task_1_1_scheduler_a0f7928f8c5d46fcd68f1c9cbda6b88d2.html#a0f7928f8c5d46fcd68f1c9cbda6b88d2" target="_top" xlink:title=" ">
<polygon fill="white" stroke="#666666" points="139,-78 0,-78 0,-48 139,-48 139,-78"/>
<text text-anchor="start" x="8" y="-66" font-family="Helvetica,sans-Serif" font-size="10.00">fl::task::Scheduler</text>
<text text-anchor="middle" x="69.5" y="-55" font-family="Helvetica,sans-Serif" font-size="10.00">::Singleton&lt; Scheduler &gt;</text>
</a>
</g>
</g>
<!-- Node1&#45;&gt;Node2 -->
<g id="edge1_Node000001_Node000002" class="edge">
<title>Node1&#45;&gt;Node2</title>
<g id="a_edge1_Node000001_Node000002"><a xlink:title=" ">
<path fill="none" stroke="#63b8ff" d="M511.7,-80.34C499.3,-83.11 486.31,-85.54 474,-87 342.03,-102.61 307.04,-101.97 175,-87 158.72,-85.15 141.29,-81.74 125.42,-78.06"/>
<polygon fill="#63b8ff" stroke="#63b8ff" points="512.54,-83.74 521.48,-78.06 510.95,-76.92 512.54,-83.74"/>
</a>
</g>
</g>
<!-- Node3 -->
<g id="Node000003" class="node">
<title>Node3</title>
<g id="a_Node000003"><a xlink:href="../../d2/d2b/classfl_1_1task_1_1_scheduler_a55942f7d4bf9dc02cf0c4b871b207722.html#a55942f7d4bf9dc02cf0c4b871b207722" target="_top" xlink:title=" ">
<polygon fill="white" stroke="#666666" points="469.5,-78 319.5,-78 319.5,-48 469.5,-48 469.5,-78"/>
<text text-anchor="start" x="327.5" y="-66" font-family="Helvetica,sans-Serif" font-size="10.00">fl::task::Scheduler</text>
<text text-anchor="middle" x="394.5" y="-55" font-family="Helvetica,sans-Serif" font-size="10.00">::update_after_frame_tasks</text>
</a>
</g>
</g>
<!-- Node1&#45;&gt;Node3 -->
<g id="edge2_Node000001_Node000003" class="edge">
<title>Node1&#45;&gt;Node3</title>
<g id="a_edge2_Node000001_Node000003"><a xlink:title=" ">
<path fill="none" stroke="#63b8ff" d="M499.63,-63C489.75,-63 479.62,-63 469.75,-63"/>
<polygon fill="#63b8ff" stroke="#63b8ff" points="499.81,-66.5 509.81,-63 499.81,-59.5 499.81,-66.5"/>
</a>
</g>
</g>
<!-- Node5 -->
<g id="Node000005" class="node">
<title>Node5</title>
<g id="a_Node000005"><a xlink:href="../../d2/d2b/classfl_1_1task_1_1_scheduler_a855c5a328c90cebcc0b5877612b6005b.html#a855c5a328c90cebcc0b5877612b6005b" target="_top" xlink:title=" ">
<polygon fill="white" stroke="#666666" points="474,-30 315,-30 315,0 474,0 474,-30"/>
<text text-anchor="start" x="323" y="-18" font-family="Helvetica,sans-Serif" font-size="10.00">fl::task::Scheduler</text>
<text text-anchor="middle" x="394.5" y="-7" font-family="Helvetica,sans-Serif" font-size="10.00">::update_before_frame_tasks</text>
</a>
</g>
</g>
<!-- Node1&#45;&gt;Node5 -->
<g id="edge5_Node000001_Node000005" class="edge">
<title>Node1&#45;&gt;Node5</title>
<g id="a_edge5_Node000001_Node000005"><a xlink:title=" ">
<path fill="none" stroke="#63b8ff" d="M508.11,-45.28C489.44,-40.26 469.3,-34.85 451.29,-30"/>
<polygon fill="#63b8ff" stroke="#63b8ff" points="507.45,-48.73 518.01,-47.94 509.26,-41.97 507.45,-48.73"/>
</a>
</g>
</g>
<!-- Node4 -->
<g id="Node000004" class="node">
<title>Node4</title>
<g id="a_Node000004"><a xlink:href="../../d2/d2b/classfl_1_1task_1_1_scheduler_aa8f55191b33b752cf474c0266f877133.html#aa8f55191b33b752cf474c0266f877133" target="_top" xlink:title=" ">
<polygon fill="white" stroke="#666666" points="279,-78 175,-78 175,-48 279,-48 279,-78"/>
<text text-anchor="start" x="183" y="-66" font-family="Helvetica,sans-Serif" font-size="10.00">fl::task::Scheduler</text>
<text text-anchor="middle" x="227" y="-55" font-family="Helvetica,sans-Serif" font-size="10.00">::onEndFrame</text>
</a>
</g>
</g>
<!-- Node3&#45;&gt;Node4 -->
<g id="edge3_Node000003_Node000004" class="edge">
<title>Node3&#45;&gt;Node4</title>
<g id="a_edge3_Node000003_Node000004"><a xlink:title=" ">
<path fill="none" stroke="#63b8ff" d="M309.23,-63C298.98,-63 288.76,-63 279.21,-63"/>
<polygon fill="#63b8ff" stroke="#63b8ff" points="309.46,-66.5 319.46,-63 309.46,-59.5 309.46,-66.5"/>
</a>
</g>
</g>
<!-- Node4&#45;&gt;Node2 -->
<g id="edge4_Node000004_Node000002" class="edge">
<title>Node4&#45;&gt;Node2</title>
<g id="a_edge4_Node000004_Node000002"><a xlink:title=" ">
<path fill="none" stroke="#63b8ff" d="M164.65,-63C156.32,-63 147.72,-63 139.27,-63"/>
<polygon fill="#63b8ff" stroke="#63b8ff" points="164.65,-66.5 174.65,-63 164.65,-59.5 164.65,-66.5"/>
</a>
</g>
</g>
<!-- Node6 -->
<g id="Node000006" class="node">
<title>Node6</title>
<g id="a_Node000006"><a xlink:href="../../d2/d2b/classfl_1_1task_1_1_scheduler_ae25e57a0fa39469045c8459a0d3e1ae0.html#ae25e57a0fa39469045c8459a0d3e1ae0" target="_top" xlink:title=" ">
<polygon fill="white" stroke="#666666" points="279,-30 175,-30 175,0 279,0 279,-30"/>
<text text-anchor="start" x="183" y="-18" font-family="Helvetica,sans-Serif" font-size="10.00">fl::task::Scheduler</text>
<text text-anchor="middle" x="227" y="-7" font-family="Helvetica,sans-Serif" font-size="10.00">::onBeginFrame</text>
</a>
</g>
</g>
<!-- Node5&#45;&gt;Node6 -->
<g id="edge6_Node000005_Node000006" class="edge">
<title>Node5&#45;&gt;Node6</title>
<g id="a_edge6_Node000005_Node000006"><a xlink:title=" ">
<path fill="none" stroke="#63b8ff" d="M304.51,-15C295.91,-15 287.39,-15 279.34,-15"/>
<polygon fill="#63b8ff" stroke="#63b8ff" points="304.63,-18.5 314.63,-15 304.63,-11.5 304.63,-18.5"/>
</a>
</g>
</g>
<!-- Node6&#45;&gt;Node2 -->
<g id="edge7_Node000006_Node000002" class="edge">
<title>Node6&#45;&gt;Node2</title>
<g id="a_edge7_Node000006_Node000002"><a xlink:title=" ">
<path fill="none" stroke="#63b8ff" d="M167.47,-33.07C151.53,-37.99 134.43,-43.27 119.1,-48"/>
<polygon fill="#63b8ff" stroke="#63b8ff" points="168.7,-36.35 177.23,-30.06 166.64,-29.66 168.7,-36.35"/>
</a>
</g>
</g>
</g>
</svg>
