<?xml version="1.0" encoding="UTF-8" standalone="no"?>
<!DOCTYPE svg PUBLIC "-//W3C//DTD SVG 1.1//EN"
 "http://www.w3.org/Graphics/SVG/1.1/DTD/svg11.dtd">
<!-- Generated by graphviz version 2.43.0 (0)
 -->
<!-- Title: fl::Variant::type_to_tag Pages: 1 -->
<svg width="728pt" height="165pt"
 viewBox="0.00 0.00 728.00 165.00" xmlns="http://www.w3.org/2000/svg" xmlns:xlink="http://www.w3.org/1999/xlink">
<g id="graph0" class="graph" transform="scale(1 1) rotate(0) translate(4 161)">
<title>fl::Variant::type_to_tag</title>
<!-- Node1 -->
<g id="Node000001" class="node">
<title>Node1</title>
<g id="a_Node000001"><a xlink:title=" ">
<polygon fill="#999999" stroke="#666666" points="720,-105.5 593,-105.5 593,-86.5 720,-86.5 720,-105.5"/>
<text text-anchor="middle" x="656.5" y="-93.5" font-family="Helvetica,sans-Serif" font-size="10.00">fl::Variant::type_to_tag</text>
</a>
</g>
</g>
<!-- Node2 -->
<g id="Node000002" class="node">
<title>Node2</title>
<g id="a_Node000002"><a xlink:href="../../de/d60/classfl_1_1_variant_a378d62102f34b4aea27bd8292ac69fe6.html#a378d62102f34b4aea27bd8292ac69fe6" target="_top" xlink:title=" ">
<polygon fill="white" stroke="#666666" points="557,-157 381,-157 381,-105 557,-105 557,-157"/>
<text text-anchor="start" x="389" y="-145" font-family="Helvetica,sans-Serif" font-size="10.00">fl::Variant&lt; fl::span</text>
<text text-anchor="start" x="389" y="-134" font-family="Helvetica,sans-Serif" font-size="10.00">&lt; CRGB &gt;, fl::vector</text>
<text text-anchor="start" x="389" y="-123" font-family="Helvetica,sans-Serif" font-size="10.00">&lt; CRGB, fl::allocator</text>
<text text-anchor="middle" x="469" y="-112" font-family="Helvetica,sans-Serif" font-size="10.00">_psram&lt; CRGB &gt; &gt; &gt;::construct</text>
</a>
</g>
</g>
<!-- Node1&#45;&gt;Node2 -->
<g id="edge1_Node000001_Node000002" class="edge">
<title>Node1&#45;&gt;Node2</title>
<g id="a_edge1_Node000001_Node000002"><a xlink:title=" ">
<path fill="none" stroke="#63b8ff" d="M594.86,-107.44C582.75,-109.73 569.81,-112.17 557.01,-114.58"/>
<polygon fill="#63b8ff" stroke="#63b8ff" points="595.63,-110.86 604.81,-105.56 594.34,-103.98 595.63,-110.86"/>
</a>
</g>
</g>
<!-- Node3 -->
<g id="Node000003" class="node">
<title>Node3</title>
<g id="a_Node000003"><a xlink:href="../../de/d60/classfl_1_1_variant_a3794348734afd949bb18bf9e2b9f9df8.html#a3794348734afd949bb18bf9e2b9f9df8" target="_top" xlink:title=" ">
<polygon fill="white" stroke="#666666" points="539,-87 399,-87 399,-35 539,-35 539,-87"/>
<text text-anchor="start" x="407" y="-75" font-family="Helvetica,sans-Serif" font-size="10.00">fl::Variant&lt; fl::span</text>
<text text-anchor="start" x="407" y="-64" font-family="Helvetica,sans-Serif" font-size="10.00">&lt; CRGB &gt;, fl::vector</text>
<text text-anchor="start" x="407" y="-53" font-family="Helvetica,sans-Serif" font-size="10.00">&lt; CRGB, fl::allocator</text>
<text text-anchor="middle" x="469" y="-42" font-family="Helvetica,sans-Serif" font-size="10.00">_psram&lt; CRGB &gt; &gt; &gt;::is</text>
</a>
</g>
</g>
<!-- Node1&#45;&gt;Node3 -->
<g id="edge2_Node000001_Node000003" class="edge">
<title>Node1&#45;&gt;Node3</title>
<g id="a_edge2_Node000001_Node000003"><a xlink:title=" ">
<path fill="none" stroke="#63b8ff" d="M594.58,-84.51C576.82,-81.15 557.28,-77.47 539.06,-74.03"/>
<polygon fill="#63b8ff" stroke="#63b8ff" points="594.34,-88.02 604.81,-86.44 595.63,-81.14 594.34,-88.02"/>
</a>
</g>
</g>
<!-- Node4 -->
<g id="Node000004" class="node">
<title>Node4</title>
<g id="a_Node000004"><a xlink:href="../../de/d60/classfl_1_1_variant_a65c4d26937c7abd48dd2597d3f2dc209.html#a65c4d26937c7abd48dd2597d3f2dc209" target="_top" xlink:title=" ">
<polygon fill="white" stroke="#666666" points="345,-122 200,-122 200,-70 345,-70 345,-122"/>
<text text-anchor="start" x="208" y="-110" font-family="Helvetica,sans-Serif" font-size="10.00">fl::Variant&lt; fl::span</text>
<text text-anchor="start" x="208" y="-99" font-family="Helvetica,sans-Serif" font-size="10.00">&lt; CRGB &gt;, fl::vector</text>
<text text-anchor="start" x="208" y="-88" font-family="Helvetica,sans-Serif" font-size="10.00">&lt; CRGB, fl::allocator</text>
<text text-anchor="middle" x="272.5" y="-77" font-family="Helvetica,sans-Serif" font-size="10.00">_psram&lt; CRGB &gt; &gt; &gt;::ptr</text>
</a>
</g>
</g>
<!-- Node3&#45;&gt;Node4 -->
<g id="edge3_Node000003_Node000004" class="edge">
<title>Node3&#45;&gt;Node4</title>
<g id="a_edge3_Node000003_Node000004"><a xlink:title=" ">
<path fill="none" stroke="#63b8ff" d="M388.93,-75.23C374.4,-77.84 359.32,-80.56 345.03,-83.13"/>
<polygon fill="#63b8ff" stroke="#63b8ff" points="389.66,-78.65 398.88,-73.44 388.42,-71.76 389.66,-78.65"/>
</a>
</g>
</g>
<!-- Node6 -->
<g id="Node000006" class="node">
<title>Node6</title>
<g id="a_Node000006"><a xlink:href="../../de/d60/classfl_1_1_variant_a212993ea4c2f159e94a7b15732eb7e07.html#a212993ea4c2f159e94a7b15732eb7e07" target="_top" xlink:title=" ">
<polygon fill="white" stroke="#666666" points="345,-52 200,-52 200,0 345,0 345,-52"/>
<text text-anchor="start" x="208" y="-40" font-family="Helvetica,sans-Serif" font-size="10.00">fl::Variant&lt; fl::span</text>
<text text-anchor="start" x="208" y="-29" font-family="Helvetica,sans-Serif" font-size="10.00">&lt; CRGB &gt;, fl::vector</text>
<text text-anchor="start" x="208" y="-18" font-family="Helvetica,sans-Serif" font-size="10.00">&lt; CRGB, fl::allocator</text>
<text text-anchor="middle" x="272.5" y="-7" font-family="Helvetica,sans-Serif" font-size="10.00">_psram&lt; CRGB &gt; &gt; &gt;::ptr</text>
</a>
</g>
</g>
<!-- Node3&#45;&gt;Node6 -->
<g id="edge5_Node000003_Node000006" class="edge">
<title>Node3&#45;&gt;Node6</title>
<g id="a_edge5_Node000003_Node000006"><a xlink:title=" ">
<path fill="none" stroke="#63b8ff" d="M388.93,-46.77C374.4,-44.16 359.32,-41.44 345.03,-38.87"/>
<polygon fill="#63b8ff" stroke="#63b8ff" points="388.42,-50.24 398.88,-48.56 389.66,-43.35 388.42,-50.24"/>
</a>
</g>
</g>
<!-- Node5 -->
<g id="Node000005" class="node">
<title>Node5</title>
<g id="a_Node000005"><a xlink:href="../../de/d60/classfl_1_1_variant_ade285535c978f61e20c3453fc1f3ed1a.html#ade285535c978f61e20c3453fc1f3ed1a" target="_top" xlink:title=" ">
<polygon fill="white" stroke="#666666" points="164,-122 0,-122 0,-70 164,-70 164,-122"/>
<text text-anchor="start" x="8" y="-110" font-family="Helvetica,sans-Serif" font-size="10.00">fl::Variant&lt; fl::span</text>
<text text-anchor="start" x="8" y="-99" font-family="Helvetica,sans-Serif" font-size="10.00">&lt; CRGB &gt;, fl::vector</text>
<text text-anchor="start" x="8" y="-88" font-family="Helvetica,sans-Serif" font-size="10.00">&lt; CRGB, fl::allocator</text>
<text text-anchor="middle" x="82" y="-77" font-family="Helvetica,sans-Serif" font-size="10.00">_psram&lt; CRGB &gt; &gt; &gt;::equals</text>
</a>
</g>
</g>
<!-- Node4&#45;&gt;Node5 -->
<g id="edge4_Node000004_Node000005" class="edge">
<title>Node4&#45;&gt;Node5</title>
<g id="a_edge4_Node000004_Node000005"><a xlink:title=" ">
<path fill="none" stroke="#63b8ff" d="M189.75,-96C181.3,-96 172.71,-96 164.27,-96"/>
<polygon fill="#63b8ff" stroke="#63b8ff" points="189.97,-99.5 199.97,-96 189.97,-92.5 189.97,-99.5"/>
</a>
</g>
</g>
</g>
</svg>
