<?xml version="1.0" encoding="UTF-8" standalone="no"?>
<!DOCTYPE svg PUBLIC "-//W3C//DTD SVG 1.1//EN"
 "http://www.w3.org/Graphics/SVG/1.1/DTD/svg11.dtd">
<!-- Generated by graphviz version 2.43.0 (0)
 -->
<!-- Title: fl::third_party::ezWS2812::color_to_spi Pages: 1 -->
<svg width="494pt" height="38pt"
 viewBox="0.00 0.00 494.00 38.00" xmlns="http://www.w3.org/2000/svg" xmlns:xlink="http://www.w3.org/1999/xlink">
<g id="graph0" class="graph" transform="scale(1 1) rotate(0) translate(4 34)">
<title>fl::third_party::ezWS2812::color_to_spi</title>
<!-- Node1 -->
<g id="Node000001" class="node">
<title>Node1</title>
<g id="a_Node000001"><a xlink:title="Convert color byte to SPI bit pattern.">
<polygon fill="#999999" stroke="#666666" points="486,-30 348,-30 348,0 486,0 486,-30"/>
<text text-anchor="start" x="356" y="-18" font-family="Helvetica,sans-Serif" font-size="10.00">fl::third_party::ezWS2812</text>
<text text-anchor="middle" x="417" y="-7" font-family="Helvetica,sans-Serif" font-size="10.00">::color_to_spi</text>
</a>
</g>
</g>
<!-- Node2 -->
<g id="Node000002" class="node">
<title>Node2</title>
<g id="a_Node000002"><a xlink:href="../../d9/db5/classfl_1_1third__party_1_1ez_w_s2812_ac685a46980ddb72910e7924076831238.html#ac685a46980ddb72910e7924076831238" target="_top" xlink:title="Set color for specific number of LEDs.">
<polygon fill="white" stroke="#666666" points="312,-30 174,-30 174,0 312,0 312,-30"/>
<text text-anchor="start" x="182" y="-18" font-family="Helvetica,sans-Serif" font-size="10.00">fl::third_party::ezWS2812</text>
<text text-anchor="middle" x="243" y="-7" font-family="Helvetica,sans-Serif" font-size="10.00">::set_pixel</text>
</a>
</g>
</g>
<!-- Node1&#45;&gt;Node2 -->
<g id="edge1_Node000001_Node000002" class="edge">
<title>Node1&#45;&gt;Node2</title>
<g id="a_edge1_Node000001_Node000002"><a xlink:title=" ">
<path fill="none" stroke="#63b8ff" d="M337.36,-15C328.97,-15 320.49,-15 312.24,-15"/>
<polygon fill="#63b8ff" stroke="#63b8ff" points="337.53,-18.5 347.53,-15 337.53,-11.5 337.53,-18.5"/>
</a>
</g>
</g>
<!-- Node3 -->
<g id="Node000003" class="node">
<title>Node3</title>
<g id="a_Node000003"><a xlink:href="../../d9/db5/classfl_1_1third__party_1_1ez_w_s2812_ab50502eecb84e1c0a23ac5c35a29b80e.html#ab50502eecb84e1c0a23ac5c35a29b80e" target="_top" xlink:title="Set all LEDs to the same color.">
<polygon fill="white" stroke="#666666" points="138,-30 0,-30 0,0 138,0 138,-30"/>
<text text-anchor="start" x="8" y="-18" font-family="Helvetica,sans-Serif" font-size="10.00">fl::third_party::ezWS2812</text>
<text text-anchor="middle" x="69" y="-7" font-family="Helvetica,sans-Serif" font-size="10.00">::set_all</text>
</a>
</g>
</g>
<!-- Node2&#45;&gt;Node3 -->
<g id="edge2_Node000002_Node000003" class="edge">
<title>Node2&#45;&gt;Node3</title>
<g id="a_edge2_Node000002_Node000003"><a xlink:title=" ">
<path fill="none" stroke="#63b8ff" d="M163.36,-15C154.97,-15 146.49,-15 138.24,-15"/>
<polygon fill="#63b8ff" stroke="#63b8ff" points="163.53,-18.5 173.53,-15 163.53,-11.5 163.53,-18.5"/>
</a>
</g>
</g>
</g>
</svg>
