<?xml version="1.0" encoding="UTF-8" standalone="no"?>
<!DOCTYPE svg PUBLIC "-//W3C//DTD SVG 1.1//EN"
 "http://www.w3.org/Graphics/SVG/1.1/DTD/svg11.dtd">
<!-- Generated by graphviz version 2.43.0 (0)
 -->
<!-- Title: fx/time.h Pages: 1 -->
<svg width="1490pt" height="346pt"
 viewBox="0.00 0.00 1490.44 346.00" xmlns="http://www.w3.org/2000/svg" xmlns:xlink="http://www.w3.org/1999/xlink">
<g id="graph0" class="graph" transform="scale(1 1) rotate(0) translate(4 342)">
<title>fx/time.h</title>
<!-- Node1 -->
<g id="Node000001" class="node">
<title>Node1</title>
<g id="a_Node000001"><a xlink:title=" ">
<polygon fill="#999999" stroke="#666666" points="804,-338 743,-338 743,-319 804,-319 804,-338"/>
<text text-anchor="middle" x="773.5" y="-326" font-family="Helvetica,sans-Serif" font-size="10.00">fx/time.h</text>
</a>
</g>
</g>
<!-- Node2 -->
<g id="Node000002" class="node">
<title>Node2</title>
<g id="a_Node000002"><a xlink:href="../../da/d05/_bilinear_compression_8ino.html" target="_top" xlink:title=" ">
<polygon fill="white" stroke="#666666" points="377,-283 164,-283 164,-242 377,-242 377,-283"/>
<text text-anchor="start" x="172" y="-271" font-family="Helvetica,sans-Serif" font-size="10.00">/home/runner/work/FastLED</text>
<text text-anchor="start" x="172" y="-260" font-family="Helvetica,sans-Serif" font-size="10.00">/FastLED/examples/BilinearCompression</text>
<text text-anchor="middle" x="270.5" y="-249" font-family="Helvetica,sans-Serif" font-size="10.00">/BilinearCompression.ino</text>
</a>
</g>
</g>
<!-- Node1&#45;&gt;Node2 -->
<g id="edge1_Node000001_Node000002" class="edge">
<title>Node1&#45;&gt;Node2</title>
<g id="a_edge1_Node000001_Node000002"><a xlink:title=" ">
<path fill="none" stroke="#63b8ff" d="M732.58,-323.5C661.86,-316.44 512.3,-300.79 386.5,-283 383.47,-282.57 380.39,-282.13 377.29,-281.67"/>
<polygon fill="#63b8ff" stroke="#63b8ff" points="732.53,-327.01 742.83,-324.52 733.22,-320.05 732.53,-327.01"/>
</a>
</g>
</g>
<!-- Node3 -->
<g id="Node000003" class="node">
<title>Node3</title>
<g id="a_Node000003"><a xlink:href="../../df/d5c/_fire_cylinder_8ino.html" target="_top" xlink:title=" ">
<polygon fill="white" stroke="#666666" points="565.5,-283 395.5,-283 395.5,-242 565.5,-242 565.5,-283"/>
<text text-anchor="start" x="403.5" y="-271" font-family="Helvetica,sans-Serif" font-size="10.00">/home/runner/work/FastLED</text>
<text text-anchor="start" x="403.5" y="-260" font-family="Helvetica,sans-Serif" font-size="10.00">/FastLED/examples/FireCylinder</text>
<text text-anchor="middle" x="480.5" y="-249" font-family="Helvetica,sans-Serif" font-size="10.00">/FireCylinder.ino</text>
</a>
</g>
</g>
<!-- Node1&#45;&gt;Node3 -->
<g id="edge2_Node000001_Node000003" class="edge">
<title>Node1&#45;&gt;Node3</title>
<g id="a_edge2_Node000001_Node000003"><a xlink:title=" ">
<path fill="none" stroke="#63b8ff" d="M733.15,-318.69C690.13,-309.29 620.72,-294.13 565.53,-282.07"/>
<polygon fill="#63b8ff" stroke="#63b8ff" points="732.46,-322.12 742.97,-320.83 733.95,-315.28 732.46,-322.12"/>
</a>
</g>
</g>
<!-- Node4 -->
<g id="Node000004" class="node">
<title>Node4</title>
<g id="a_Node000004"><a xlink:href="../../dc/dfc/_fire_matrix_8ino.html" target="_top" xlink:title=" ">
<polygon fill="white" stroke="#666666" points="745,-283 584,-283 584,-242 745,-242 745,-283"/>
<text text-anchor="start" x="592" y="-271" font-family="Helvetica,sans-Serif" font-size="10.00">/home/runner/work/FastLED</text>
<text text-anchor="start" x="592" y="-260" font-family="Helvetica,sans-Serif" font-size="10.00">/FastLED/examples/FireMatrix</text>
<text text-anchor="middle" x="664.5" y="-249" font-family="Helvetica,sans-Serif" font-size="10.00">/FireMatrix.ino</text>
</a>
</g>
</g>
<!-- Node1&#45;&gt;Node4 -->
<g id="edge3_Node000001_Node000004" class="edge">
<title>Node1&#45;&gt;Node4</title>
<g id="a_edge3_Node000001_Node000004"><a xlink:title=" ">
<path fill="none" stroke="#63b8ff" d="M750,-313.7C734.74,-304.74 714.61,-292.92 697.73,-283.01"/>
<polygon fill="#63b8ff" stroke="#63b8ff" points="748.4,-316.82 758.8,-318.87 751.95,-310.79 748.4,-316.82"/>
</a>
</g>
</g>
<!-- Node5 -->
<g id="Node000005" class="node">
<title>Node5</title>
<g id="a_Node000005"><a xlink:href="../../d6/dc7/noisepalette_8h.html" target="_top" xlink:title="Demonstrates how to mix noise generation with color palettes on a 2D LED matrix.">
<polygon fill="white" stroke="#666666" points="540.5,-206 426.5,-206 426.5,-187 540.5,-187 540.5,-206"/>
<text text-anchor="middle" x="483.5" y="-194" font-family="Helvetica,sans-Serif" font-size="10.00">fx/2d/noisepalette.h</text>
</a>
</g>
</g>
<!-- Node1&#45;&gt;Node5 -->
<g id="edge4_Node000001_Node000005" class="edge">
<title>Node1&#45;&gt;Node5</title>
<g id="a_edge4_Node000001_Node000005"><a xlink:title=" ">
<path fill="none" stroke="#63b8ff" d="M774.68,-308.87C774.82,-289.31 771.74,-259.07 753.5,-242 723.49,-213.92 610.74,-203.47 540.78,-199.65"/>
<polygon fill="#63b8ff" stroke="#63b8ff" points="771.18,-308.86 774.31,-318.98 778.17,-309.11 771.18,-308.86"/>
</a>
</g>
</g>
<!-- Node11 -->
<g id="Node000011" class="node">
<title>Node11</title>
<g id="a_Node000011"><a xlink:href="../../d9/d3c/fx__engine_8h.html" target="_top" xlink:title=" ">
<polygon fill="white" stroke="#666666" points="854.5,-206 768.5,-206 768.5,-187 854.5,-187 854.5,-206"/>
<text text-anchor="middle" x="811.5" y="-194" font-family="Helvetica,sans-Serif" font-size="10.00">fx/fx_engine.h</text>
</a>
</g>
</g>
<!-- Node1&#45;&gt;Node11 -->
<g id="edge10_Node000001_Node000011" class="edge">
<title>Node1&#45;&gt;Node11</title>
<g id="a_edge10_Node000001_Node000011"><a xlink:title=" ">
<path fill="none" stroke="#63b8ff" d="M779.39,-309.22C781.94,-301.19 784.93,-291.65 787.5,-283 795.85,-254.92 805.03,-221.43 809.2,-206.02"/>
<polygon fill="#63b8ff" stroke="#63b8ff" points="775.98,-308.4 776.26,-318.99 782.65,-310.54 775.98,-308.4"/>
</a>
</g>
</g>
<!-- Node14 -->
<g id="Node000014" class="node">
<title>Node14</title>
<g id="a_Node000014"><a xlink:href="../../de/daf/time_8cpp.html" target="_top" xlink:title=" ">
<polygon fill="white" stroke="#666666" points="911.5,-272 839.5,-272 839.5,-253 911.5,-253 911.5,-272"/>
<text text-anchor="middle" x="875.5" y="-260" font-family="Helvetica,sans-Serif" font-size="10.00">fx/time.cpp</text>
</a>
</g>
</g>
<!-- Node1&#45;&gt;Node14 -->
<g id="edge16_Node000001_Node000014" class="edge">
<title>Node1&#45;&gt;Node14</title>
<g id="a_edge16_Node000001_Node000014"><a xlink:title=" ">
<path fill="none" stroke="#63b8ff" d="M795.78,-313.52C815.84,-300.93 844.7,-282.82 861.64,-272.2"/>
<polygon fill="#63b8ff" stroke="#63b8ff" points="793.87,-310.59 787.26,-318.87 797.59,-316.52 793.87,-310.59"/>
</a>
</g>
</g>
<!-- Node15 -->
<g id="Node000015" class="node">
<title>Node15</title>
<g id="a_Node000015"><a xlink:href="../../dd/d78/video_8h.html" target="_top" xlink:title=" ">
<polygon fill="white" stroke="#666666" points="1032,-272 967,-272 967,-253 1032,-253 1032,-272"/>
<text text-anchor="middle" x="999.5" y="-260" font-family="Helvetica,sans-Serif" font-size="10.00">fx/video.h</text>
</a>
</g>
</g>
<!-- Node1&#45;&gt;Node15 -->
<g id="edge17_Node000001_Node000015" class="edge">
<title>Node1&#45;&gt;Node15</title>
<g id="a_edge17_Node000001_Node000015"><a xlink:title=" ">
<path fill="none" stroke="#63b8ff" d="M813.6,-316.14C858.13,-303.53 928.99,-283.47 969.14,-272.1"/>
<polygon fill="#63b8ff" stroke="#63b8ff" points="812.65,-312.78 803.98,-318.87 814.55,-319.51 812.65,-312.78"/>
</a>
</g>
</g>
<!-- Node6 -->
<g id="Node000006" class="node">
<title>Node6</title>
<g id="a_Node000006"><a xlink:href="../../d6/d35/_fx_engine_8ino.html" target="_top" xlink:title="Demonstrates how to use the FxEngine to switch between different effects on a 2D LED matrix.">
<polygon fill="white" stroke="#666666" points="648,-151 491,-151 491,-110 648,-110 648,-151"/>
<text text-anchor="start" x="499" y="-139" font-family="Helvetica,sans-Serif" font-size="10.00">/home/runner/work/FastLED</text>
<text text-anchor="start" x="499" y="-128" font-family="Helvetica,sans-Serif" font-size="10.00">/FastLED/examples/FxEngine</text>
<text text-anchor="middle" x="569.5" y="-117" font-family="Helvetica,sans-Serif" font-size="10.00">/FxEngine.ino</text>
</a>
</g>
</g>
<!-- Node5&#45;&gt;Node6 -->
<g id="edge5_Node000005_Node000006" class="edge">
<title>Node5&#45;&gt;Node6</title>
<g id="a_edge5_Node000005_Node000006"><a xlink:title=" ">
<path fill="none" stroke="#63b8ff" d="M503.42,-180.67C515.28,-171.85 530.46,-160.55 543.28,-151.01"/>
<polygon fill="#63b8ff" stroke="#63b8ff" points="501.03,-178.09 495.1,-186.87 505.21,-183.71 501.03,-178.09"/>
</a>
</g>
</g>
<!-- Node7 -->
<g id="Node000007" class="node">
<title>Node7</title>
<g id="a_Node000007"><a xlink:href="../../d7/d35/_fx_sd_card_8ino.html" target="_top" xlink:title=" ">
<polygon fill="white" stroke="#666666" points="1018.5,-151 860.5,-151 860.5,-110 1018.5,-110 1018.5,-151"/>
<text text-anchor="start" x="868.5" y="-139" font-family="Helvetica,sans-Serif" font-size="10.00">/home/runner/work/FastLED</text>
<text text-anchor="start" x="868.5" y="-128" font-family="Helvetica,sans-Serif" font-size="10.00">/FastLED/examples/FxSdCard</text>
<text text-anchor="middle" x="939.5" y="-117" font-family="Helvetica,sans-Serif" font-size="10.00">/FxSdCard.ino</text>
</a>
</g>
</g>
<!-- Node5&#45;&gt;Node7 -->
<g id="edge6_Node000005_Node000007" class="edge">
<title>Node5&#45;&gt;Node7</title>
<g id="a_edge6_Node000005_Node000007"><a xlink:title=" ">
<path fill="none" stroke="#63b8ff" d="M550.92,-189.34C624.94,-182.12 747.14,-168.83 851.5,-151 854.43,-150.5 857.41,-149.97 860.42,-149.41"/>
<polygon fill="#63b8ff" stroke="#63b8ff" points="550.42,-185.87 540.8,-190.32 551.09,-192.84 550.42,-185.87"/>
</a>
</g>
</g>
<!-- Node8 -->
<g id="Node000008" class="node">
<title>Node8</title>
<g id="a_Node000008"><a xlink:href="../../df/d43/_overclock_8ino.html" target="_top" xlink:title="Demonstrates how to overclock a FastLED setup.">
<polygon fill="white" stroke="#666666" points="304,-151 143,-151 143,-110 304,-110 304,-151"/>
<text text-anchor="start" x="151" y="-139" font-family="Helvetica,sans-Serif" font-size="10.00">/home/runner/work/FastLED</text>
<text text-anchor="start" x="151" y="-128" font-family="Helvetica,sans-Serif" font-size="10.00">/FastLED/examples/Overclock</text>
<text text-anchor="middle" x="223.5" y="-117" font-family="Helvetica,sans-Serif" font-size="10.00">/Overclock.ino</text>
</a>
</g>
</g>
<!-- Node5&#45;&gt;Node8 -->
<g id="edge7_Node000005_Node000008" class="edge">
<title>Node5&#45;&gt;Node8</title>
<g id="a_edge7_Node000005_Node000008"><a xlink:title=" ">
<path fill="none" stroke="#63b8ff" d="M438.66,-184.46C401.4,-175.29 347.47,-162.02 302.92,-151.05"/>
<polygon fill="#63b8ff" stroke="#63b8ff" points="438.16,-187.94 448.71,-186.94 439.83,-181.15 438.16,-187.94"/>
</a>
</g>
</g>
<!-- Node9 -->
<g id="Node000009" class="node">
<title>Node9</title>
<g id="a_Node000009"><a xlink:href="../../d7/dd3/wasm_8ino.html" target="_top" xlink:title="Demonstrates an advanced ino file with multiple effects and UI elements.">
<polygon fill="white" stroke="#666666" points="472.5,-151 322.5,-151 322.5,-110 472.5,-110 472.5,-151"/>
<text text-anchor="start" x="330.5" y="-139" font-family="Helvetica,sans-Serif" font-size="10.00">/home/runner/work/FastLED</text>
<text text-anchor="start" x="330.5" y="-128" font-family="Helvetica,sans-Serif" font-size="10.00">/FastLED/examples/wasm</text>
<text text-anchor="middle" x="397.5" y="-117" font-family="Helvetica,sans-Serif" font-size="10.00">/wasm.ino</text>
</a>
</g>
</g>
<!-- Node5&#45;&gt;Node9 -->
<g id="edge8_Node000005_Node000009" class="edge">
<title>Node5&#45;&gt;Node9</title>
<g id="a_edge8_Node000005_Node000009"><a xlink:title=" ">
<path fill="none" stroke="#63b8ff" d="M463.58,-180.67C451.72,-171.85 436.54,-160.55 423.72,-151.01"/>
<polygon fill="#63b8ff" stroke="#63b8ff" points="461.79,-183.71 471.9,-186.87 465.97,-178.09 461.79,-183.71"/>
</a>
</g>
</g>
<!-- Node10 -->
<g id="Node000010" class="node">
<title>Node10</title>
<g id="a_Node000010"><a xlink:href="../../d6/d66/noisepalette_8cpp.html" target="_top" xlink:title=" ">
<polygon fill="white" stroke="#666666" points="125,-140 0,-140 0,-121 125,-121 125,-140"/>
<text text-anchor="middle" x="62.5" y="-128" font-family="Helvetica,sans-Serif" font-size="10.00">fx/2d/noisepalette.cpp</text>
</a>
</g>
</g>
<!-- Node5&#45;&gt;Node10 -->
<g id="edge9_Node000005_Node000010" class="edge">
<title>Node5&#45;&gt;Node10</title>
<g id="a_edge9_Node000005_Node000010"><a xlink:title=" ">
<path fill="none" stroke="#63b8ff" d="M416.3,-189.81C345.5,-183.14 230.97,-170.48 133.5,-151 118.96,-148.09 103.02,-143.82 89.93,-140.01"/>
<polygon fill="#63b8ff" stroke="#63b8ff" points="416.14,-193.31 426.42,-190.75 416.79,-186.34 416.14,-193.31"/>
</a>
</g>
</g>
<!-- Node11&#45;&gt;Node6 -->
<g id="edge12_Node000011_Node000006" class="edge">
<title>Node11&#45;&gt;Node6</title>
<g id="a_edge12_Node000011_Node000006"><a xlink:title=" ">
<path fill="none" stroke="#63b8ff" d="M769.32,-184.34C734.65,-175.18 684.71,-161.97 643.43,-151.05"/>
<polygon fill="#63b8ff" stroke="#63b8ff" points="768.55,-187.76 779.11,-186.94 770.34,-180.99 768.55,-187.76"/>
</a>
</g>
</g>
<!-- Node11&#45;&gt;Node7 -->
<g id="edge13_Node000011_Node000007" class="edge">
<title>Node11&#45;&gt;Node7</title>
<g id="a_edge13_Node000011_Node000007"><a xlink:title=" ">
<path fill="none" stroke="#63b8ff" d="M838.09,-182.2C856.13,-173.19 880.28,-161.11 900.48,-151.01"/>
<polygon fill="#63b8ff" stroke="#63b8ff" points="836.14,-179.27 828.76,-186.87 839.27,-185.53 836.14,-179.27"/>
</a>
</g>
</g>
<!-- Node11&#45;&gt;Node9 -->
<g id="edge14_Node000011_Node000009" class="edge">
<title>Node11&#45;&gt;Node9</title>
<g id="a_edge14_Node000011_Node000009"><a xlink:title=" ">
<path fill="none" stroke="#63b8ff" d="M758.24,-189.88C692.81,-182.62 578.52,-168.76 481.5,-151 478.55,-150.46 475.56,-149.89 472.53,-149.29"/>
<polygon fill="#63b8ff" stroke="#63b8ff" points="757.99,-193.37 768.32,-190.99 758.76,-186.42 757.99,-193.37"/>
</a>
</g>
</g>
<!-- Node12 -->
<g id="Node000012" class="node">
<title>Node12</title>
<g id="a_Node000012"><a xlink:href="../../dd/d96/_fx_animartrix_8ino.html" target="_top" xlink:title=" ">
<polygon fill="white" stroke="#666666" points="842.5,-151 666.5,-151 666.5,-110 842.5,-110 842.5,-151"/>
<text text-anchor="start" x="674.5" y="-139" font-family="Helvetica,sans-Serif" font-size="10.00">/home/runner/work/FastLED</text>
<text text-anchor="start" x="674.5" y="-128" font-family="Helvetica,sans-Serif" font-size="10.00">/FastLED/examples/FxAnimartrix</text>
<text text-anchor="middle" x="754.5" y="-117" font-family="Helvetica,sans-Serif" font-size="10.00">/FxAnimartrix.ino</text>
</a>
</g>
</g>
<!-- Node11&#45;&gt;Node12 -->
<g id="edge11_Node000011_Node000012" class="edge">
<title>Node11&#45;&gt;Node12</title>
<g id="a_edge11_Node000011_Node000012"><a xlink:title=" ">
<path fill="none" stroke="#63b8ff" d="M797.12,-179.36C789.45,-170.75 779.96,-160.08 771.88,-151.01"/>
<polygon fill="#63b8ff" stroke="#63b8ff" points="794.55,-181.73 803.81,-186.87 799.78,-177.07 794.55,-181.73"/>
</a>
</g>
</g>
<!-- Node13 -->
<g id="Node000013" class="node">
<title>Node13</title>
<g id="a_Node000013"><a xlink:href="../../df/d8e/fx__engine_8cpp.html" target="_top" xlink:title=" ">
<polygon fill="white" stroke="#666666" points="1134.5,-140 1036.5,-140 1036.5,-121 1134.5,-121 1134.5,-140"/>
<text text-anchor="middle" x="1085.5" y="-128" font-family="Helvetica,sans-Serif" font-size="10.00">fx/fx_engine.cpp</text>
</a>
</g>
</g>
<!-- Node11&#45;&gt;Node13 -->
<g id="edge15_Node000011_Node000013" class="edge">
<title>Node11&#45;&gt;Node13</title>
<g id="a_edge15_Node000011_Node000013"><a xlink:title=" ">
<path fill="none" stroke="#63b8ff" d="M864.79,-186.38C908.77,-178.41 972.63,-165.82 1027.5,-151 1039.09,-147.87 1051.75,-143.7 1062.27,-140.03"/>
<polygon fill="#63b8ff" stroke="#63b8ff" points="864.12,-182.95 854.89,-188.16 865.35,-189.84 864.12,-182.95"/>
</a>
</g>
</g>
<!-- Node15&#45;&gt;Node7 -->
<g id="edge18_Node000015_Node000007" class="edge">
<title>Node15&#45;&gt;Node7</title>
<g id="a_edge18_Node000015_Node000007"><a xlink:title=" ">
<path fill="none" stroke="#63b8ff" d="M991.24,-243.6C980.09,-219.44 960.29,-176.55 948.69,-151.4"/>
<polygon fill="#63b8ff" stroke="#63b8ff" points="988.19,-245.36 995.56,-252.97 994.55,-242.42 988.19,-245.36"/>
</a>
</g>
</g>
<!-- Node15&#45;&gt;Node11 -->
<g id="edge28_Node000015_Node000011" class="edge">
<title>Node15&#45;&gt;Node11</title>
<g id="a_edge28_Node000015_Node000011"><a xlink:title=" ">
<path fill="none" stroke="#63b8ff" d="M964.25,-249.5C927.13,-236.86 869.59,-217.28 836.75,-206.1"/>
<polygon fill="#63b8ff" stroke="#63b8ff" points="963.55,-252.96 974.15,-252.87 965.81,-246.33 963.55,-252.96"/>
</a>
</g>
</g>
<!-- Node15&#45;&gt;Node13 -->
<g id="edge27_Node000015_Node000013" class="edge">
<title>Node15&#45;&gt;Node13</title>
<g id="a_edge27_Node000015_Node000013"><a xlink:title=" ">
<path fill="none" stroke="#63b8ff" d="M1010.68,-244.6C1029.2,-216.6 1065.62,-161.56 1079.72,-140.23"/>
<polygon fill="#63b8ff" stroke="#63b8ff" points="1007.74,-242.7 1005.14,-252.97 1013.58,-246.56 1007.74,-242.7"/>
</a>
</g>
</g>
<!-- Node16 -->
<g id="Node000016" class="node">
<title>Node16</title>
<g id="a_Node000016"><a xlink:href="../../d6/d8d/file__system_8h.html" target="_top" xlink:title=" ">
<polygon fill="white" stroke="#666666" points="1249,-206 1158,-206 1158,-187 1249,-187 1249,-206"/>
<text text-anchor="middle" x="1203.5" y="-194" font-family="Helvetica,sans-Serif" font-size="10.00">fl/file_system.h</text>
</a>
</g>
</g>
<!-- Node15&#45;&gt;Node16 -->
<g id="edge19_Node000015_Node000016" class="edge">
<title>Node15&#45;&gt;Node16</title>
<g id="a_edge19_Node000015_Node000016"><a xlink:title=" ">
<path fill="none" stroke="#63b8ff" d="M1036.72,-249.82C1076.96,-237.2 1140.16,-217.37 1176.1,-206.1"/>
<polygon fill="#63b8ff" stroke="#63b8ff" points="1035.51,-246.54 1027.01,-252.87 1037.6,-253.21 1035.51,-246.54"/>
</a>
</g>
</g>
<!-- Node19 -->
<g id="Node000019" class="node">
<title>Node19</title>
<g id="a_Node000019"><a xlink:href="../../d0/d05/video_8cpp.html" target="_top" xlink:title=" ">
<polygon fill="white" stroke="#666666" points="1443,-19 1366,-19 1366,0 1443,0 1443,-19"/>
<text text-anchor="middle" x="1404.5" y="-7" font-family="Helvetica,sans-Serif" font-size="10.00">fx/video.cpp</text>
</a>
</g>
</g>
<!-- Node15&#45;&gt;Node19 -->
<g id="edge29_Node000015_Node000019" class="edge">
<title>Node15&#45;&gt;Node19</title>
<g id="a_edge29_Node000015_Node000019"><a xlink:title=" ">
<path fill="none" stroke="#63b8ff" d="M1042.19,-261.9C1126.18,-260.48 1314.82,-246.09 1431.5,-151 1467.74,-121.46 1497.01,-95.98 1474.5,-55 1464.93,-37.58 1445.34,-26.01 1429.31,-19.05"/>
<polygon fill="#63b8ff" stroke="#63b8ff" points="1041.97,-258.4 1032.01,-262.02 1042.05,-265.4 1041.97,-258.4"/>
</a>
</g>
</g>
<!-- Node16&#45;&gt;Node7 -->
<g id="edge20_Node000016_Node000007" class="edge">
<title>Node16&#45;&gt;Node7</title>
<g id="a_edge20_Node000016_Node000007"><a xlink:title=" ">
<path fill="none" stroke="#63b8ff" d="M1158.36,-184.56C1120.13,-175.29 1064.41,-161.78 1018.76,-150.72"/>
<polygon fill="#63b8ff" stroke="#63b8ff" points="1157.63,-187.98 1168.17,-186.94 1159.28,-181.18 1157.63,-187.98"/>
</a>
</g>
</g>
<!-- Node17 -->
<g id="Node000017" class="node">
<title>Node17</title>
<g id="a_Node000017"><a xlink:href="../../d4/d37/file__system_8cpp.html" target="_top" xlink:title=" ">
<polygon fill="white" stroke="#666666" points="1254.5,-140 1152.5,-140 1152.5,-121 1254.5,-121 1254.5,-140"/>
<text text-anchor="middle" x="1203.5" y="-128" font-family="Helvetica,sans-Serif" font-size="10.00">fl/file_system.cpp</text>
</a>
</g>
</g>
<!-- Node16&#45;&gt;Node17 -->
<g id="edge21_Node000016_Node000017" class="edge">
<title>Node16&#45;&gt;Node17</title>
<g id="a_edge21_Node000016_Node000017"><a xlink:title=" ">
<path fill="none" stroke="#63b8ff" d="M1203.5,-176.58C1203.5,-164.63 1203.5,-149.72 1203.5,-140.41"/>
<polygon fill="#63b8ff" stroke="#63b8ff" points="1200,-176.87 1203.5,-186.87 1207,-176.87 1200,-176.87"/>
</a>
</g>
</g>
<!-- Node18 -->
<g id="Node000018" class="node">
<title>Node18</title>
<g id="a_Node000018"><a xlink:href="../../d3/dfa/pixel__stream_8h.html" target="_top" xlink:title=" ">
<polygon fill="#fff0f0" stroke="red" points="1404,-140 1273,-140 1273,-121 1404,-121 1404,-140"/>
<text text-anchor="middle" x="1338.5" y="-128" font-family="Helvetica,sans-Serif" font-size="10.00">fx/video/pixel_stream.h</text>
</a>
</g>
</g>
<!-- Node16&#45;&gt;Node18 -->
<g id="edge22_Node000016_Node000018" class="edge">
<title>Node16&#45;&gt;Node18</title>
<g id="a_edge22_Node000016_Node000018"><a xlink:title=" ">
<path fill="none" stroke="#63b8ff" d="M1230.86,-182.53C1257.47,-169.92 1297.13,-151.11 1320.15,-140.2"/>
<polygon fill="#63b8ff" stroke="#63b8ff" points="1229.24,-179.42 1221.71,-186.87 1232.24,-185.75 1229.24,-179.42"/>
</a>
</g>
</g>
<!-- Node22 -->
<g id="Node000022" class="node">
<title>Node22</title>
<g id="a_Node000022"><a xlink:href="../../d5/d82/video__impl_8h.html" target="_top" xlink:title=" ">
<polygon fill="#fff0f0" stroke="red" points="1465.5,-74 1343.5,-74 1343.5,-55 1465.5,-55 1465.5,-74"/>
<text text-anchor="middle" x="1404.5" y="-62" font-family="Helvetica,sans-Serif" font-size="10.00">fx/video/video_impl.h</text>
</a>
</g>
</g>
<!-- Node16&#45;&gt;Node22 -->
<g id="edge26_Node000016_Node000022" class="edge">
<title>Node16&#45;&gt;Node22</title>
<g id="a_edge26_Node000016_Node000022"><a xlink:title=" ">
<path fill="none" stroke="#63b8ff" d="M1259.29,-191.39C1314.54,-186.03 1393.55,-174.41 1412.5,-151 1430.7,-128.52 1416.72,-91.01 1408.88,-74.16"/>
<polygon fill="#63b8ff" stroke="#63b8ff" points="1258.91,-187.91 1249.27,-192.32 1259.56,-194.88 1258.91,-187.91"/>
</a>
</g>
</g>
<!-- Node18&#45;&gt;Node19 -->
<g id="edge23_Node000018_Node000019" class="edge">
<title>Node18&#45;&gt;Node19</title>
<g id="a_edge23_Node000018_Node000019"><a xlink:title=" ">
<path fill="none" stroke="#63b8ff" d="M1332.29,-110.87C1328.17,-95.02 1325.08,-72.16 1334.5,-55 1344.07,-37.58 1363.66,-26.01 1379.69,-19.05"/>
<polygon fill="#63b8ff" stroke="#63b8ff" points="1328.97,-111.98 1335.16,-120.57 1335.68,-109.99 1328.97,-111.98"/>
</a>
</g>
</g>
<!-- Node18&#45;&gt;Node22 -->
<g id="edge24_Node000018_Node000022" class="edge">
<title>Node18&#45;&gt;Node22</title>
<g id="a_edge24_Node000018_Node000022"><a xlink:title=" ">
<path fill="none" stroke="#63b8ff" d="M1354.66,-113.83C1367.44,-101.44 1384.82,-84.59 1395.32,-74.41"/>
<polygon fill="#63b8ff" stroke="#63b8ff" points="1352.14,-111.39 1347.4,-120.87 1357.02,-116.42 1352.14,-111.39"/>
</a>
</g>
</g>
<!-- Node22&#45;&gt;Node19 -->
<g id="edge25_Node000022_Node000019" class="edge">
<title>Node22&#45;&gt;Node19</title>
<g id="a_edge25_Node000022_Node000019"><a xlink:title=" ">
<path fill="none" stroke="#63b8ff" d="M1404.5,-44.66C1404.5,-35.93 1404.5,-25.99 1404.5,-19.09"/>
<polygon fill="#63b8ff" stroke="#63b8ff" points="1401,-44.75 1404.5,-54.75 1408,-44.75 1401,-44.75"/>
</a>
</g>
</g>
</g>
</svg>
