<?xml version="1.0" encoding="UTF-8" standalone="no"?>
<!DOCTYPE svg PUBLIC "-//W3C//DTD SVG 1.1//EN"
 "http://www.w3.org/Graphics/SVG/1.1/DTD/svg11.dtd">
<!-- Generated by graphviz version 2.43.0 (0)
 -->
<!-- Title: fl::PixelStream::readFrameAt Pages: 1 -->
<svg width="281pt" height="64pt"
 viewBox="0.00 0.00 281.00 64.00" xmlns="http://www.w3.org/2000/svg" xmlns:xlink="http://www.w3.org/1999/xlink">
<g id="graph0" class="graph" transform="scale(1 1) rotate(0) translate(4 60)">
<title>fl::PixelStream::readFrameAt</title>
<!-- Node1 -->
<g id="Node000001" class="node">
<title>Node1</title>
<g id="a_Node000001"><a xlink:title=" ">
<polygon fill="#999999" stroke="#666666" points="156,-37 0,-37 0,-18 156,-18 156,-37"/>
<text text-anchor="middle" x="78" y="-25" font-family="Helvetica,sans-Serif" font-size="10.00">fl::PixelStream::readFrameAt</text>
</a>
</g>
</g>
<!-- Node2 -->
<g id="Node000002" class="node">
<title>Node2</title>
<g id="a_Node000002"><a xlink:href="../../d4/d36/namespacefl_a18e7608a302c3628c24710b27480641b.html#a18e7608a302c3628c24710b27480641b" target="_top" xlink:title=" ">
<polygon fill="white" stroke="#666666" points="257.5,-56 207.5,-56 207.5,-37 257.5,-37 257.5,-56"/>
<text text-anchor="middle" x="232.5" y="-44" font-family="Helvetica,sans-Serif" font-size="10.00">fl::read</text>
</a>
</g>
</g>
<!-- Node1&#45;&gt;Node2 -->
<g id="edge1_Node000001_Node000002" class="edge">
<title>Node1&#45;&gt;Node2</title>
<g id="a_edge1_Node000001_Node000002"><a xlink:title=" ">
<path fill="none" stroke="#63b8ff" d="M155.7,-37.06C170.15,-38.86 184.59,-40.66 196.92,-42.19"/>
<polygon fill="#63b8ff" stroke="#63b8ff" points="196.81,-45.71 207.17,-43.47 197.68,-38.76 196.81,-45.71"/>
</a>
</g>
</g>
<!-- Node3 -->
<g id="Node000003" class="node">
<title>Node3</title>
<g id="a_Node000003"><a xlink:href="../../d1/de0/classfl_1_1_frame_af87085697e2f19076fa6cd89d995501b.html#af87085697e2f19076fa6cd89d995501b" target="_top" xlink:title=" ">
<polygon fill="white" stroke="#666666" points="273,-19 192,-19 192,0 273,0 273,-19"/>
<text text-anchor="middle" x="232.5" y="-7" font-family="Helvetica,sans-Serif" font-size="10.00">fl::Frame::rgb</text>
</a>
</g>
</g>
<!-- Node1&#45;&gt;Node3 -->
<g id="edge2_Node000001_Node000003" class="edge">
<title>Node1&#45;&gt;Node3</title>
<g id="a_edge2_Node000001_Node000003"><a xlink:title=" ">
<path fill="none" stroke="#63b8ff" d="M156.14,-18.39C164.87,-17.36 173.58,-16.34 181.82,-15.36"/>
<polygon fill="#63b8ff" stroke="#63b8ff" points="182.45,-18.81 191.97,-14.17 181.63,-11.86 182.45,-18.81"/>
</a>
</g>
</g>
</g>
</svg>
