<?xml version="1.0" encoding="UTF-8" standalone="no"?>
<!DOCTYPE svg PUBLIC "-//W3C//DTD SVG 1.1//EN"
 "http://www.w3.org/Graphics/SVG/1.1/DTD/svg11.dtd">
<!-- Generated by graphviz version 2.43.0 (0)
 -->
<!-- Title: fl::anonymous_namespace{noise_woryley::cpp::hpp}::feature_point Pages: 1 -->
<svg width="366pt" height="67pt"
 viewBox="0.00 0.00 366.00 67.00" xmlns="http://www.w3.org/2000/svg" xmlns:xlink="http://www.w3.org/1999/xlink">

<svg id="main" version="1.1" xmlns="http://www.w3.org/2000/svg" xmlns:xlink="http://www.w3.org/1999/xlink" xml:space="preserve">

<style type="text/css"><![CDATA[
.node, .edge {opacity: 0.7;}
.node.selected, .edge.selected {opacity: 1;}
.edge:hover path { stroke: red; }
.edge:hover polygon { stroke: red; fill: red; }
]]></style>
<script type="application/ecmascript" xlink:href="../../svg.min.js"/>
<svg id="graph" class="graph">
<g id="graph0" class="graph" transform="scale(1 1) rotate(0) translate(4 63)">
<title>fl::anonymous_namespace{noise_woryley::cpp::hpp}::feature_point</title>
<!-- Node1 -->
<g id="Node000001" class="node">
<title>Node1</title>
<g id="a_Node000001"><a xlink:title=" ">
<polygon fill="#999999" stroke="#666666" points="147,-41 0,-41 0,0 147,0 147,-41"/>
<text text-anchor="start" x="8" y="-29" font-family="Helvetica,sans-Serif" font-size="10.00">fl::anonymous_namespace</text>
<text text-anchor="start" x="8" y="-18" font-family="Helvetica,sans-Serif" font-size="10.00">{noise_woryley::cpp::hpp}</text>
<text text-anchor="middle" x="73.5" y="-7" font-family="Helvetica,sans-Serif" font-size="10.00">::feature_point</text>
</a>
</g>
</g>
<!-- Node1&#45;&gt;Node1 -->
<g id="edge1_Node000001_Node000001" class="edge">
<title>Node1&#45;&gt;Node1</title>
<g id="a_edge1_Node000001_Node000001"><a xlink:title=" ">
<path fill="none" stroke="#63b8ff" d="M37.48,-41.1C33.55,-50.65 45.55,-59 73.5,-59 90.97,-59 102.21,-55.74 107.22,-50.96"/>
<polygon fill="#63b8ff" stroke="#63b8ff" points="110.66,-51.63 109.52,-41.1 103.84,-50.04 110.66,-51.63"/>
</a>
</g>
</g>
<!-- Node2 -->
<g id="Node000002" class="node">
<title>Node2</title>
<g id="a_Node000002"><a xlink:href="../../d3/d7d/namespacefl_1_1anonymous__namespace_02noise__woryley_8cpp_8hpp_03_a3cf77c64767ffeb9d6ae1ed02f4d14d9.html#a3cf77c64767ffeb9d6ae1ed02f4d14d9" target="_top" xlink:title=" ">
<polygon fill="white" stroke="#666666" points="358,-35.5 183,-35.5 183,-5.5 358,-5.5 358,-35.5"/>
<text text-anchor="start" x="191" y="-23.5" font-family="Helvetica,sans-Serif" font-size="10.00">fl::anonymous_namespace</text>
<text text-anchor="middle" x="270.5" y="-12.5" font-family="Helvetica,sans-Serif" font-size="10.00">{noise_woryley::cpp::hpp}::hash</text>
</a>
</g>
</g>
<!-- Node1&#45;&gt;Node2 -->
<g id="edge2_Node000001_Node000002" class="edge">
<title>Node1&#45;&gt;Node2</title>
<g id="a_edge2_Node000001_Node000002"><a xlink:title=" ">
<path fill="none" stroke="#63b8ff" d="M147.11,-20.5C155.52,-20.5 164.19,-20.5 172.85,-20.5"/>
<polygon fill="#63b8ff" stroke="#63b8ff" points="172.99,-24 182.99,-20.5 172.99,-17 172.99,-24"/>
</a>
</g>
</g>
<!-- Node2&#45;&gt;Node2 -->
<g id="edge3_Node000002_Node000002" class="edge">
<title>Node2&#45;&gt;Node2</title>
<g id="a_edge3_Node000002_Node000002"><a xlink:title=" ">
<path fill="none" stroke="#63b8ff" d="M236.05,-35.78C228.39,-44.91 239.88,-53.5 270.5,-53.5 288.68,-53.5 300.12,-50.47 304.81,-46.1"/>
<polygon fill="#63b8ff" stroke="#63b8ff" points="308.31,-45.82 304.95,-35.78 301.31,-45.72 308.31,-45.82"/>
</a>
</g>
</g>
</g>
</svg>
</svg>

<style type='text/css'>
<![CDATA[
[data-mouse-over-selected='false'] { opacity: 0.7; }
[data-mouse-over-selected='true']  { opacity: 1.0; }
]]>
</style>
<script type="application/ecmascript"><![CDATA[
document.addEventListener('DOMContentLoaded', (event) => {
  highlightEdges();
  highlightAdjacentNodes();
});
]]></script>
</svg>
