<?xml version="1.0" encoding="UTF-8" standalone="no"?>
<!DOCTYPE svg PUBLIC "-//W3C//DTD SVG 1.1//EN"
 "http://www.w3.org/Graphics/SVG/1.1/DTD/svg11.dtd">
<!-- Generated by graphviz version 2.43.0 (0)
 -->
<!-- Title: fl::function&lt; R(Args...)&gt;::CallableBase Pages: 1 -->
<!--zoomable 170 -->

<svg id="main" version="1.1" xmlns="http://www.w3.org/2000/svg" xmlns:xlink="http://www.w3.org/1999/xlink" xml:space="preserve" onload="init(evt)">

<style type="text/css"><![CDATA[
.node, .edge {opacity: 0.7;}
.node.selected, .edge.selected {opacity: 1;}
.edge:hover path { stroke: red; }
.edge:hover polygon { stroke: red; fill: red; }
]]></style>

<defs>
  <circle id="rim" cx="0" cy="0" r="7"/>
  <circle id="rim2" cx="0" cy="0" r="3.5"/>
  <g id="zoomPlus">
    <use xlink:href="#rim" fill="#404040"><set attributeName="fill" to="#808080" begin="zoomplus.mouseover" end="zoomplus.mouseout"/></use>
    <path d="M-4,0h8M0,-4v8" fill="none" stroke="white" stroke-width="1.5" pointer-events="none"/>
  </g>
  <g id="zoomMin">
    <use xlink:href="#rim" fill="#404040"><set attributeName="fill" to="#808080" begin="zoomminus.mouseover" end="zoomminus.mouseout"/></use>
    <path d="M-4,0h8" fill="none" stroke="white" stroke-width="1.5" pointer-events="none"/>
  </g>
  <g id="arrowUp" transform="translate(30 24)">
    <use xlink:href="#rim"/>
    <path pointer-events="none" fill="none" stroke="white" stroke-width="1.5" d="M0,-3.0v7 M-2.5,-0.5L0,-3.0L2.5,-0.5"/>
  </g>
  <g id="arrowRight" transform="rotate(90) translate(36 -43)">
    <use xlink:href="#rim"/>
    <path pointer-events="none" fill="none" stroke="white" stroke-width="1.5" d="M0,-3.0v7 M-2.5,-0.5L0,-3.0L2.5,-0.5"/>
  </g>
  <g id="arrowDown" transform="rotate(180) translate(-30 -48)">
    <use xlink:href="#rim"/>
    <path pointer-events="none" fill="none" stroke="white" stroke-width="1.5" d="M0,-3.0v7 M-2.5,-0.5L0,-3.0L2.5,-0.5"/>
  </g>
  <g id="arrowLeft" transform="rotate(270) translate(-36 17)">
    <use xlink:href="#rim"/>
    <path pointer-events="none" fill="none" stroke="white" stroke-width="1.5" d="M0,-3.0v7 M-2.5,-0.5L0,-3.0L2.5,-0.5"/>
  </g>
  <g id="resetDef">
    <use xlink:href="#rim2" fill="#404040"><set attributeName="fill" to="#808080" begin="reset.mouseover" end="reset.mouseout"/></use>
  </g>
</defs>
<script type="application/ecmascript">
var viewWidth = 544;
var viewHeight = 170;
var sectionId = 'dynsection-1';
</script>
<script type="application/ecmascript" xlink:href="../../svg.min.js"/>
<svg id="graph" class="graph">
<g id="viewport">
<title>fl::function&lt; R(Args...)&gt;::CallableBase</title>
<!-- Node1 -->
<g id="Node000001" class="node">
<title>Node1</title>
<g id="a_Node000001"><a xlink:title=" ">
<polygon fill="#999999" stroke="#666666" points="331.5,-96 206.5,-96 206.5,-66 331.5,-66 331.5,-96"/>
<text text-anchor="start" x="214.5" y="-84" font-family="Helvetica,sans-Serif" font-size="10.00">fl::function&lt; R(Args...)</text>
<text text-anchor="middle" x="269" y="-73" font-family="Helvetica,sans-Serif" font-size="10.00">&gt;::CallableBase</text>
</a>
</g>
</g>
<!-- Node2 -->
<g id="Node000002" class="node">
<title>Node2</title>
<g id="a_Node000002"><a xlink:href="../../d6/d16/classfl_1_1_referent.html" target="_top" xlink:title=" ">
<polygon fill="white" stroke="#666666" points="169.5,-162 98.5,-162 98.5,-143 169.5,-143 169.5,-162"/>
<text text-anchor="middle" x="134" y="-150" font-family="Helvetica,sans-Serif" font-size="10.00">fl::Referent</text>
</a>
</g>
</g>
<!-- Node2&#45;&gt;Node1 -->
<g id="edge1_Node000001_Node000002" class="edge">
<title>Node2&#45;&gt;Node1</title>
<g id="a_edge1_Node000001_Node000002"><a xlink:title=" ">
<path fill="none" stroke="#63b8ff" d="M159.57,-138.34C183.07,-126.24 217.79,-108.36 241.79,-96.01"/>
<polygon fill="#63b8ff" stroke="#63b8ff" points="157.84,-135.29 150.55,-142.98 161.05,-141.51 157.84,-135.29"/>
</a>
</g>
</g>
<!-- Node6 -->
<g id="Node000006" class="node">
<title>Node6</title>
<g id="a_Node000006"><a xlink:href="../../dd/da7/classfl_1_1_weak_referent.html" target="_top" xlink:title=" ">
<polygon fill="white" stroke="#666666" points="98,-90.5 0,-90.5 0,-71.5 98,-71.5 98,-90.5"/>
<text text-anchor="middle" x="49" y="-78.5" font-family="Helvetica,sans-Serif" font-size="10.00">fl::WeakReferent</text>
</a>
</g>
</g>
<!-- Node2&#45;&gt;Node6 -->
<g id="edge5_Node000006_Node000002" class="edge">
<title>Node2&#45;&gt;Node6</title>
<g id="a_edge5_Node000006_Node000002"><a xlink:title=" ">
<path fill="none" stroke="#9a32cd" stroke-dasharray="5,2" d="M88.89,-140.51C80.13,-136.73 71.63,-131.7 65,-125 55.7,-115.6 51.73,-100.31 50.09,-90.72"/>
<polygon fill="#9a32cd" stroke="#9a32cd" points="87.82,-143.85 98.42,-144.13 90.31,-137.31 87.82,-143.85"/>
</a>
</g>
<text text-anchor="middle" x="92.5" y="-117" font-family="Helvetica,sans-Serif" font-size="10.00" fill="grey"> mReferent</text>
</g>
<!-- Node3 -->
<g id="Node000003" class="node">
<title>Node3</title>
<g id="a_Node000003"><a xlink:href="../../d1/d56/classfl_1_1_ptr.html" target="_top" xlink:title=" ">
<polygon fill="white" stroke="#666666" points="339,-19 193,-19 193,0 339,0 339,-19"/>
<text text-anchor="middle" x="266" y="-7" font-family="Helvetica,sans-Serif" font-size="10.00">fl::Ptr&lt; fl::WeakReferent &gt;</text>
</a>
</g>
</g>
<!-- Node3&#45;&gt;Node2 -->
<g id="edge2_Node000002_Node000003" class="edge">
<title>Node3&#45;&gt;Node2</title>
<g id="a_edge2_Node000002_Node000003"><a xlink:title=" ">
<path fill="none" stroke="#9a32cd" stroke-dasharray="5,2" d="M211.33,-21.99C186.53,-30.09 159.18,-43.62 143,-66 126.12,-89.35 129.58,-126.09 132.3,-142.76"/>
<polygon fill="#9a32cd" stroke="#9a32cd" points="212.49,-25.3 221.05,-19.05 210.46,-18.6 212.49,-25.3"/>
</a>
</g>
<text text-anchor="middle" x="170" y="-78.5" font-family="Helvetica,sans-Serif" font-size="10.00" fill="grey"> mWeakPtr</text>
</g>
<!-- Node4 -->
<g id="Node000004" class="node">
<title>Node4</title>
<g id="a_Node000004"><a xlink:href="../../da/d84/classfl_1_1_ptr_traits.html" target="_top" xlink:title=" ">
<polygon fill="#fff0f0" stroke="red" points="446.5,-96 349.5,-96 349.5,-66 446.5,-66 446.5,-96"/>
<text text-anchor="start" x="357.5" y="-84" font-family="Helvetica,sans-Serif" font-size="10.00">fl::PtrTraits&lt; fl::</text>
<text text-anchor="middle" x="398" y="-73" font-family="Helvetica,sans-Serif" font-size="10.00">WeakReferent &gt;</text>
</a>
</g>
</g>
<!-- Node4&#45;&gt;Node3 -->
<g id="edge3_Node000003_Node000004" class="edge">
<title>Node4&#45;&gt;Node3</title>
<g id="a_edge3_Node000003_Node000004"><a xlink:title=" ">
<path fill="none" stroke="#63b8ff" d="M362.44,-61.28C336.36,-47.54 302.15,-29.53 282.27,-19.07"/>
<polygon fill="#63b8ff" stroke="#63b8ff" points="360.81,-64.37 371.29,-65.94 364.07,-58.18 360.81,-64.37"/>
</a>
</g>
</g>
<!-- Node6&#45;&gt;Node3 -->
<g id="edge4_Node000003_Node000006" class="edge">
<title>Node6&#45;&gt;Node3</title>
<g id="a_edge4_Node000003_Node000006"><a xlink:title=" ">
<path fill="none" stroke="#9a32cd" stroke-dasharray="5,2" d="M54.32,-61.88C57.88,-52.97 63.51,-42.91 72,-37 91.29,-23.58 146.32,-16.93 192.87,-13.65"/>
<polygon fill="#9a32cd" stroke="#9a32cd" points="50.96,-60.89 51.04,-71.48 57.59,-63.15 50.96,-60.89"/>
</a>
</g>
<text text-anchor="middle" x="96" y="-40" font-family="Helvetica,sans-Serif" font-size="10.00" fill="grey"> referent_</text>
</g>
<!-- Node7 -->
<g id="Node000007" class="node">
<title>Node7</title>
<g id="a_Node000007"><a xlink:href="../../d1/d56/classfl_1_1_ptr.html" target="_top" xlink:title=" ">
<polygon fill="#fff0f0" stroke="red" points="535.5,-90.5 464.5,-90.5 464.5,-71.5 535.5,-71.5 535.5,-90.5"/>
<text text-anchor="middle" x="500" y="-78.5" font-family="Helvetica,sans-Serif" font-size="10.00">fl::Ptr&lt; T &gt;</text>
</a>
</g>
</g>
<!-- Node7&#45;&gt;Node3 -->
<g id="edge6_Node000003_Node000007" class="edge">
<title>Node7&#45;&gt;Node3</title>
<g id="a_edge6_Node000003_Node000007"><a xlink:title=" ">
<path fill="none" stroke="orange" stroke-dasharray="5,2" d="M463.89,-68.43C461.22,-67.6 458.57,-66.78 456,-66 399.63,-48.8 333.52,-29.74 296.01,-19.03"/>
<polygon fill="orange" stroke="orange" points="462.92,-71.8 473.51,-71.46 465.02,-65.12 462.92,-71.8"/>
</a>
</g>
<text text-anchor="middle" x="446.5" y="-40" font-family="Helvetica,sans-Serif" font-size="10.00" fill="grey"> &lt; fl::WeakReferent &gt;</text>
</g>
<!-- Node9 -->
<g id="Node000009" class="node">
<title>Node9</title>
<g id="a_Node000009"><a xlink:href="../../d4/d36/namespacefl.html#d0/ddd/classfl_1_1function" target="_top" xlink:title=" ">
<polygon fill="white" stroke="#666666" points="339,-162 199,-162 199,-143 339,-143 339,-162"/>
<text text-anchor="middle" x="269" y="-150" font-family="Helvetica,sans-Serif" font-size="10.00">fl::function&lt; typename &gt;</text>
</a>
</g>
</g>
<!-- Node9&#45;&gt;Node1 -->
<g id="edge7_Node000001_Node000009" class="edge">
<title>Node9&#45;&gt;Node1</title>
<g id="a_edge7_Node000001_Node000009"><a xlink:title=" ">
<path fill="none" stroke="orange" stroke-dasharray="5,2" d="M269,-132.71C269,-121.19 269,-106.68 269,-96.14"/>
<polygon fill="orange" stroke="orange" points="265.5,-132.98 269,-142.98 272.5,-132.98 265.5,-132.98"/>
</a>
</g>
<text text-anchor="middle" x="338" y="-117" font-family="Helvetica,sans-Serif" font-size="10.00" fill="grey"> &lt; R(Args...)&gt;::CallableBase</text>
</g>
</g>
</svg>

<g id="navigator" transform="translate(0 0)" fill="#404254">
  <rect fill="#f2f5e9" fill-opacity="0.5" stroke="#606060" stroke-width=".5" x="0" y="0" width="60" height="60"/>
  <use id="zoomplus" xlink:href="#zoomPlus" x="17" y="9" onmousedown="handleZoom(evt,'in')"/>
  <use id="zoomminus" xlink:href="#zoomMin" x="42" y="9" onmousedown="handleZoom(evt,'out')"/>
  <use id="reset" xlink:href="#resetDef" x="30" y="36" onmousedown="handleReset()"/>
   <use id="arrowup" xlink:href="#arrowUp" x="0" y="0" onmousedown="handlePan(0,-1)"/>
  <use id="arrowright" xlink:href="#arrowRight" x="0" y="0" onmousedown="handlePan(1,0)"/>
  <use id="arrowdown" xlink:href="#arrowDown" x="0" y="0" onmousedown="handlePan(0,1)"/>
  <use id="arrowleft" xlink:href="#arrowLeft" x="0" y="0" onmousedown="handlePan(-1,0)"/>
</g>
<svg viewBox="0 0 15 15" width="100%" height="30px" preserveAspectRatio="xMaxYMin meet">
 <g id="arrow_out" transform="scale(0.3 0.3)">
  <a xlink:href="structfl_1_1function_3_01_r_07_args_8_8_8_08_4_1_1_callable_base__coll__graph_org.svg" target="_base">
   <rect id="button" ry="5" rx="5" y="6" x="6" height="38" width="38"
        fill="#f2f5e9" fill-opacity="0.5" stroke="#606060" stroke-width="1.0"/>
   <path id="arrow"
     d="M 11.500037,31.436501 C 11.940474,20.09759 22.043105,11.32322 32.158766,21.979434 L 37.068811,17.246167 C 37.068811,17.246167 37.088388,32 37.088388,32 L 22.160133,31.978069 C 22.160133,31.978069 26.997745,27.140456 26.997745,27.140456 C 18.528582,18.264221 13.291696,25.230495 11.500037,31.436501 z"
     style="fill:#404040;"/>
  </a>
 </g>
</svg>

<style type='text/css'>
<![CDATA[
[data-mouse-over-selected='false'] { opacity: 0.7; }
[data-mouse-over-selected='true']  { opacity: 1.0; }
]]>
</style>
<script type="application/ecmascript"><![CDATA[
document.addEventListener('DOMContentLoaded', (event) => {
  highlightEdges();
  highlightAdjacentNodes();
});
]]></script>
</svg>
