<?xml version="1.0" encoding="UTF-8" standalone="no"?>
<!DOCTYPE svg PUBLIC "-//W3C//DTD SVG 1.1//EN"
 "http://www.w3.org/Graphics/SVG/1.1/DTD/svg11.dtd">
<!-- Generated by graphviz version 2.43.0 (0)
 -->
<!-- Title: confetti Pages: 1 -->
<svg width="416pt" height="27pt"
 viewBox="0.00 0.00 416.00 27.00" xmlns="http://www.w3.org/2000/svg" xmlns:xlink="http://www.w3.org/1999/xlink">
<g id="graph0" class="graph" transform="scale(1 1) rotate(0) translate(4 23)">
<title>confetti</title>
<!-- Node1 -->
<g id="Node000001" class="node">
<title>Node1</title>
<g id="a_Node000001"><a xlink:title=" ">
<polygon fill="#999999" stroke="#666666" points="408,-19 354,-19 354,0 408,0 408,-19"/>
<text text-anchor="middle" x="381" y="-7" font-family="Helvetica,sans-Serif" font-size="10.00">confetti</text>
</a>
</g>
</g>
<!-- Node2 -->
<g id="Node000002" class="node">
<title>Node2</title>
<g id="a_Node000002"><a xlink:href="../../d1/d60/classfl_1_1_demo_reel100_aad4b41d93c1a9f7acecea8b49cda7078.html#aad4b41d93c1a9f7acecea8b49cda7078" target="_top" xlink:title=" ">
<polygon fill="white" stroke="#666666" points="318,-19 164,-19 164,0 318,0 318,-19"/>
<text text-anchor="middle" x="241" y="-7" font-family="Helvetica,sans-Serif" font-size="10.00">fl::DemoReel100::runPattern</text>
</a>
</g>
</g>
<!-- Node1&#45;&gt;Node2 -->
<g id="edge1_Node000001_Node000002" class="edge">
<title>Node1&#45;&gt;Node2</title>
<g id="a_edge1_Node000001_Node000002"><a xlink:title=" ">
<path fill="none" stroke="#63b8ff" d="M343.48,-9.5C335.6,-9.5 326.98,-9.5 318.21,-9.5"/>
<polygon fill="#63b8ff" stroke="#63b8ff" points="343.72,-13 353.72,-9.5 343.72,-6 343.72,-13"/>
</a>
</g>
</g>
<!-- Node3 -->
<g id="Node000003" class="node">
<title>Node3</title>
<g id="a_Node000003"><a xlink:href="../../d1/d60/classfl_1_1_demo_reel100_a5f66b8a2f16f89f0180bd6e27f1563c6.html#a5f66b8a2f16f89f0180bd6e27f1563c6" target="_top" xlink:title=" ">
<polygon fill="white" stroke="#666666" points="128,-19 0,-19 0,0 128,0 128,-19"/>
<text text-anchor="middle" x="64" y="-7" font-family="Helvetica,sans-Serif" font-size="10.00">fl::DemoReel100::draw</text>
</a>
</g>
</g>
<!-- Node2&#45;&gt;Node3 -->
<g id="edge2_Node000002_Node000003" class="edge">
<title>Node2&#45;&gt;Node3</title>
<g id="a_edge2_Node000002_Node000003"><a xlink:title=" ">
<path fill="none" stroke="#63b8ff" d="M153.68,-9.5C145.08,-9.5 136.46,-9.5 128.16,-9.5"/>
<polygon fill="#63b8ff" stroke="#63b8ff" points="153.75,-13 163.75,-9.5 153.75,-6 153.75,-13"/>
</a>
</g>
</g>
</g>
</svg>
