<?xml version="1.0" encoding="UTF-8" standalone="no"?>
<!DOCTYPE svg PUBLIC "-//W3C//DTD SVG 1.1//EN"
 "http://www.w3.org/Graphics/SVG/1.1/DTD/svg11.dtd">
<!-- Generated by graphviz version 2.43.0 (0)
 -->
<!-- Title: juggle Pages: 1 -->
<svg width="356pt" height="101pt"
 viewBox="0.00 0.00 356.00 101.00" xmlns="http://www.w3.org/2000/svg" xmlns:xlink="http://www.w3.org/1999/xlink">
<g id="graph0" class="graph" transform="scale(1 1) rotate(0) translate(4 97)">
<title>juggle</title>
<!-- Node1 -->
<g id="Node000001" class="node">
<title>Node1</title>
<g id="a_Node000001"><a xlink:title=" ">
<polygon fill="#999999" stroke="#666666" points="47,-37 0,-37 0,-18 47,-18 47,-37"/>
<text text-anchor="middle" x="23.5" y="-25" font-family="Helvetica,sans-Serif" font-size="10.00">juggle</text>
</a>
</g>
</g>
<!-- Node2 -->
<g id="Node000002" class="node">
<title>Node2</title>
<g id="a_Node000002"><a xlink:href="../../d6/d6c/group___beat_generators_gaa46e5de1c4c27833359e7a97a18c839b.html#gaa46e5de1c4c27833359e7a97a18c839b" target="_top" xlink:title="Generates a 16&#45;bit sine wave at a given BPM that oscillates within a given range.">
<polygon fill="white" stroke="#666666" points="160,-56 95,-56 95,-37 160,-37 160,-56"/>
<text text-anchor="middle" x="127.5" y="-44" font-family="Helvetica,sans-Serif" font-size="10.00">beatsin16</text>
</a>
</g>
</g>
<!-- Node1&#45;&gt;Node2 -->
<g id="edge1_Node000001_Node000002" class="edge">
<title>Node1&#45;&gt;Node2</title>
<g id="a_edge1_Node000001_Node000002"><a xlink:title=" ">
<path fill="none" stroke="#63b8ff" d="M47.14,-31.72C58.16,-33.77 71.77,-36.31 84.59,-38.69"/>
<polygon fill="#63b8ff" stroke="#63b8ff" points="84.17,-42.18 94.64,-40.57 85.45,-35.29 84.17,-42.18"/>
</a>
</g>
</g>
<!-- Node6 -->
<g id="Node000006" class="node">
<title>Node6</title>
<g id="a_Node000006"><a xlink:href="../../d3/d1c/group___color_fades_ga404d163d8a422cee2df2baac4151ca98.html#ga404d163d8a422cee2df2baac4151ca98" target="_top" xlink:title="Reduce the brightness of an array of pixels all at once.">
<polygon fill="white" stroke="#666666" points="172,-19 83,-19 83,0 172,0 172,-19"/>
<text text-anchor="middle" x="127.5" y="-7" font-family="Helvetica,sans-Serif" font-size="10.00">fadeToBlackBy</text>
</a>
</g>
</g>
<!-- Node1&#45;&gt;Node6 -->
<g id="edge5_Node000001_Node000006" class="edge">
<title>Node1&#45;&gt;Node6</title>
<g id="a_edge5_Node000001_Node000006"><a xlink:title=" ">
<path fill="none" stroke="#63b8ff" d="M47.14,-23.51C54.9,-22.14 63.94,-20.54 73.08,-18.93"/>
<polygon fill="#63b8ff" stroke="#63b8ff" points="73.75,-22.36 82.99,-17.18 72.54,-15.47 73.75,-22.36"/>
</a>
</g>
</g>
<!-- Node3 -->
<g id="Node000003" class="node">
<title>Node3</title>
<g id="a_Node000003"><a xlink:href="../../d6/d6c/group___beat_generators_gade6acbf6fd3c9d346148bccfcafb2fe2.html#gade6acbf6fd3c9d346148bccfcafb2fe2" target="_top" xlink:title="Generates a 16&#45;bit &quot;sawtooth&quot; wave at a given BPM.">
<polygon fill="white" stroke="#666666" points="260,-93 210,-93 210,-74 260,-74 260,-93"/>
<text text-anchor="middle" x="235" y="-81" font-family="Helvetica,sans-Serif" font-size="10.00">beat16</text>
</a>
</g>
</g>
<!-- Node2&#45;&gt;Node3 -->
<g id="edge2_Node000002_Node000003" class="edge">
<title>Node2&#45;&gt;Node3</title>
<g id="a_edge2_Node000002_Node000003"><a xlink:title=" ">
<path fill="none" stroke="#63b8ff" d="M155.67,-56.03C169.26,-60.8 185.84,-66.61 200.24,-71.66"/>
<polygon fill="#63b8ff" stroke="#63b8ff" points="199.21,-75.01 209.8,-75.01 201.52,-68.4 199.21,-75.01"/>
</a>
</g>
</g>
<!-- Node5 -->
<g id="Node000005" class="node">
<title>Node5</title>
<g id="a_Node000005"><a xlink:href="../../d0/da8/group___scaling_ga1ff8ac00ad78e22acc7bb7445bfdb145.html#ga1ff8ac00ad78e22acc7bb7445bfdb145" target="_top" xlink:title="Scale a 16&#45;bit unsigned value by an 16&#45;bit value, which is treated as the numerator of a fraction who...">
<polygon fill="white" stroke="#666666" points="262,-56 208,-56 208,-37 262,-37 262,-56"/>
<text text-anchor="middle" x="235" y="-44" font-family="Helvetica,sans-Serif" font-size="10.00">scale16</text>
</a>
</g>
</g>
<!-- Node2&#45;&gt;Node5 -->
<g id="edge4_Node000002_Node000005" class="edge">
<title>Node2&#45;&gt;Node5</title>
<g id="a_edge4_Node000002_Node000005"><a xlink:title=" ">
<path fill="none" stroke="#63b8ff" d="M160.15,-46.5C171.89,-46.5 185.29,-46.5 197.43,-46.5"/>
<polygon fill="#63b8ff" stroke="#63b8ff" points="197.7,-50 207.7,-46.5 197.7,-43 197.7,-50"/>
</a>
</g>
</g>
<!-- Node4 -->
<g id="Node000004" class="node">
<title>Node4</title>
<g id="a_Node000004"><a xlink:href="../../d6/d6c/group___beat_generators_ga1b48fc520db5f40910caf79974992395.html#ga1b48fc520db5f40910caf79974992395" target="_top" xlink:title="Generates a 16&#45;bit &quot;sawtooth&quot; wave at a given BPM, with BPM specified in Q8.8 fixed&#45;point format.">
<polygon fill="white" stroke="#666666" points="348,-93 298,-93 298,-74 348,-74 348,-93"/>
<text text-anchor="middle" x="323" y="-81" font-family="Helvetica,sans-Serif" font-size="10.00">beat88</text>
</a>
</g>
</g>
<!-- Node3&#45;&gt;Node4 -->
<g id="edge3_Node000003_Node000004" class="edge">
<title>Node3&#45;&gt;Node4</title>
<g id="a_edge3_Node000003_Node000004"><a xlink:title=" ">
<path fill="none" stroke="#63b8ff" d="M260.41,-83.5C268.93,-83.5 278.65,-83.5 287.81,-83.5"/>
<polygon fill="#63b8ff" stroke="#63b8ff" points="287.82,-87 297.82,-83.5 287.82,-80 287.82,-87"/>
</a>
</g>
</g>
<!-- Node7 -->
<g id="Node000007" class="node">
<title>Node7</title>
<g id="a_Node000007"><a xlink:href="../../d3/d1c/group___color_fades_gad0356fc313196732e7cd4e64f506f82b.html#gad0356fc313196732e7cd4e64f506f82b" target="_top" xlink:title="Scale the brightness of an array of pixels all at once.">
<polygon fill="white" stroke="#666666" points="262,-19 208,-19 208,0 262,0 262,-19"/>
<text text-anchor="middle" x="235" y="-7" font-family="Helvetica,sans-Serif" font-size="10.00">nscale8</text>
</a>
</g>
</g>
<!-- Node6&#45;&gt;Node7 -->
<g id="edge6_Node000006_Node000007" class="edge">
<title>Node6&#45;&gt;Node7</title>
<g id="a_edge6_Node000006_Node000007"><a xlink:title=" ">
<path fill="none" stroke="#63b8ff" d="M172.02,-9.5C180.56,-9.5 189.43,-9.5 197.71,-9.5"/>
<polygon fill="#63b8ff" stroke="#63b8ff" points="197.8,-13 207.8,-9.5 197.8,-6 197.8,-13"/>
</a>
</g>
</g>
</g>
</svg>
