<?xml version="1.0" encoding="UTF-8" standalone="no"?>
<!DOCTYPE svg PUBLIC "-//W3C//DTD SVG 1.1//EN"
 "http://www.w3.org/Graphics/SVG/1.1/DTD/svg11.dtd">
<!-- Generated by graphviz version 2.43.0 (0)
 -->
<!-- Title: third_party/cq_kernel/kiss_fftr.h Pages: 1 -->
<!--zoomable 247 -->

<svg id="main" version="1.1" xmlns="http://www.w3.org/2000/svg" xmlns:xlink="http://www.w3.org/1999/xlink" xml:space="preserve" onload="init(evt)">

<style type="text/css"><![CDATA[
.node, .edge {opacity: 0.7;}
.node.selected, .edge.selected {opacity: 1;}
.edge:hover path { stroke: red; }
.edge:hover polygon { stroke: red; fill: red; }
]]></style>

<defs>
  <circle id="rim" cx="0" cy="0" r="7"/>
  <circle id="rim2" cx="0" cy="0" r="3.5"/>
  <g id="zoomPlus">
    <use xlink:href="#rim" fill="#404040"><set attributeName="fill" to="#808080" begin="zoomplus.mouseover" end="zoomplus.mouseout"/></use>
    <path d="M-4,0h8M0,-4v8" fill="none" stroke="white" stroke-width="1.5" pointer-events="none"/>
  </g>
  <g id="zoomMin">
    <use xlink:href="#rim" fill="#404040"><set attributeName="fill" to="#808080" begin="zoomminus.mouseover" end="zoomminus.mouseout"/></use>
    <path d="M-4,0h8" fill="none" stroke="white" stroke-width="1.5" pointer-events="none"/>
  </g>
  <g id="arrowUp" transform="translate(30 24)">
    <use xlink:href="#rim"/>
    <path pointer-events="none" fill="none" stroke="white" stroke-width="1.5" d="M0,-3.0v7 M-2.5,-0.5L0,-3.0L2.5,-0.5"/>
  </g>
  <g id="arrowRight" transform="rotate(90) translate(36 -43)">
    <use xlink:href="#rim"/>
    <path pointer-events="none" fill="none" stroke="white" stroke-width="1.5" d="M0,-3.0v7 M-2.5,-0.5L0,-3.0L2.5,-0.5"/>
  </g>
  <g id="arrowDown" transform="rotate(180) translate(-30 -48)">
    <use xlink:href="#rim"/>
    <path pointer-events="none" fill="none" stroke="white" stroke-width="1.5" d="M0,-3.0v7 M-2.5,-0.5L0,-3.0L2.5,-0.5"/>
  </g>
  <g id="arrowLeft" transform="rotate(270) translate(-36 17)">
    <use xlink:href="#rim"/>
    <path pointer-events="none" fill="none" stroke="white" stroke-width="1.5" d="M0,-3.0v7 M-2.5,-0.5L0,-3.0L2.5,-0.5"/>
  </g>
  <g id="resetDef">
    <use xlink:href="#rim2" fill="#404040"><set attributeName="fill" to="#808080" begin="reset.mouseover" end="reset.mouseout"/></use>
  </g>
</defs>
<script type="application/ecmascript">
var viewWidth = 576;
var viewHeight = 247;
var sectionId = 'dynsection-1';
</script>
<script type="application/ecmascript" xlink:href="../../svg.min.js"/>
<svg id="graph" class="graph">
<g id="viewport">
<title>third_party/cq_kernel/kiss_fftr.h</title>
<!-- Node1 -->
<g id="Node000001" class="node">
<title>Node1</title>
<g id="a_Node000001"><a xlink:title=" ">
<polygon fill="#999999" stroke="#666666" points="379.5,-239 260.5,-239 260.5,-209 379.5,-209 379.5,-239"/>
<text text-anchor="start" x="268.5" y="-227" font-family="Helvetica,sans-Serif" font-size="10.00">third_party/cq_kernel</text>
<text text-anchor="middle" x="320" y="-216" font-family="Helvetica,sans-Serif" font-size="10.00">/kiss_fftr.h</text>
</a>
</g>
</g>
<!-- Node2 -->
<g id="Node000002" class="node">
<title>Node2</title>
<g id="a_Node000002"><a xlink:href="../../de/db2/fft__backend_8h.html" target="_top" xlink:title=" ">
<polygon fill="white" stroke="#666666" points="248,-167.5 114,-167.5 114,-148.5 248,-148.5 248,-167.5"/>
<text text-anchor="middle" x="181" y="-155.5" font-family="Helvetica,sans-Serif" font-size="10.00">fl/audio/fft/fft_backend.h</text>
</a>
</g>
</g>
<!-- Node1&#45;&gt;Node2 -->
<g id="edge1_Node000001_Node000002" class="edge">
<title>Node1&#45;&gt;Node2</title>
<g id="a_edge1_Node000001_Node000002"><a xlink:title=" ">
<path fill="none" stroke="#63b8ff" d="M280.08,-204.62C253.56,-192.41 219.96,-176.94 199.5,-167.52"/>
<polygon fill="#63b8ff" stroke="#63b8ff" points="278.95,-207.95 289.5,-208.95 281.88,-201.59 278.95,-207.95"/>
</a>
</g>
</g>
<!-- Node4 -->
<g id="Node000004" class="node">
<title>Node4</title>
<g id="a_Node000004"><a xlink:href="../../d5/df1/fft__impl_8cpp_8hpp.html" target="_top" xlink:title=" ">
<polygon fill="white" stroke="#666666" points="346,-96 198,-96 198,-77 346,-77 346,-96"/>
<text text-anchor="middle" x="272" y="-84" font-family="Helvetica,sans-Serif" font-size="10.00">fl/audio/fft/fft_impl.cpp.hpp</text>
</a>
</g>
</g>
<!-- Node1&#45;&gt;Node4 -->
<g id="edge5_Node000001_Node000004" class="edge">
<title>Node1&#45;&gt;Node4</title>
<g id="a_edge5_Node000001_Node000004"><a xlink:title=" ">
<path fill="none" stroke="#63b8ff" d="M307.2,-199.83C302.94,-191.53 298.42,-182 295,-173 284.62,-145.7 276.98,-111.83 273.73,-96.17"/>
<polygon fill="#63b8ff" stroke="#63b8ff" points="304.23,-201.7 311.99,-208.9 310.42,-198.43 304.23,-201.7"/>
</a>
</g>
</g>
<!-- Node9 -->
<g id="Node000009" class="node">
<title>Node9</title>
<g id="a_Node000009"><a xlink:href="../../d1/dda/cq__kernel_8h.html" target="_top" xlink:title=" ">
<polygon fill="white" stroke="#666666" points="423.5,-173 304.5,-173 304.5,-143 423.5,-143 423.5,-173"/>
<text text-anchor="start" x="312.5" y="-161" font-family="Helvetica,sans-Serif" font-size="10.00">third_party/cq_kernel</text>
<text text-anchor="middle" x="364" y="-150" font-family="Helvetica,sans-Serif" font-size="10.00">/cq_kernel.h</text>
</a>
</g>
</g>
<!-- Node1&#45;&gt;Node9 -->
<g id="edge6_Node000001_Node000009" class="edge">
<title>Node1&#45;&gt;Node9</title>
<g id="a_edge6_Node000001_Node000009"><a xlink:title=" ">
<path fill="none" stroke="#63b8ff" d="M335.45,-200.53C341.71,-191.43 348.74,-181.19 354.26,-173.16"/>
<polygon fill="#63b8ff" stroke="#63b8ff" points="332.55,-198.57 329.77,-208.8 338.31,-202.54 332.55,-198.57"/>
</a>
</g>
</g>
<!-- Node14 -->
<g id="Node000014" class="node">
<title>Node14</title>
<g id="a_Node000014"><a xlink:href="../../da/dad/kiss__fftr_8cpp_8hpp.html" target="_top" xlink:title=" ">
<polygon fill="white" stroke="#666666" points="567.5,-173 448.5,-173 448.5,-143 567.5,-143 567.5,-173"/>
<text text-anchor="start" x="456.5" y="-161" font-family="Helvetica,sans-Serif" font-size="10.00">third_party/cq_kernel</text>
<text text-anchor="middle" x="508" y="-150" font-family="Helvetica,sans-Serif" font-size="10.00">/kiss_fftr.cpp.hpp</text>
</a>
</g>
</g>
<!-- Node1&#45;&gt;Node14 -->
<g id="edge10_Node000001_Node000014" class="edge">
<title>Node1&#45;&gt;Node14</title>
<g id="a_edge10_Node000001_Node000014"><a xlink:title=" ">
<path fill="none" stroke="#63b8ff" d="M370.75,-205.72C400.87,-195.47 438.58,-182.63 466.84,-173.01"/>
<polygon fill="#63b8ff" stroke="#63b8ff" points="369.6,-202.42 361.26,-208.95 371.85,-209.05 369.6,-202.42"/>
</a>
</g>
</g>
<!-- Node3 -->
<g id="Node000003" class="node">
<title>Node3</title>
<g id="a_Node000003"><a xlink:href="../../d3/df2/_audio_fft_parity_8ino.html" target="_top" xlink:title="Sanity test for the ESP&#45;DSP real&#45;FFT backend in fl::audio::fft.">
<polygon fill="white" stroke="#666666" points="180,-107 0,-107 0,-66 180,-66 180,-107"/>
<text text-anchor="start" x="8" y="-95" font-family="Helvetica,sans-Serif" font-size="10.00">/home/runner/work/FastLED</text>
<text text-anchor="start" x="8" y="-84" font-family="Helvetica,sans-Serif" font-size="10.00">/FastLED/examples/AudioFftParity</text>
<text text-anchor="middle" x="90" y="-73" font-family="Helvetica,sans-Serif" font-size="10.00">/AudioFftParity.ino</text>
</a>
</g>
</g>
<!-- Node2&#45;&gt;Node3 -->
<g id="edge2_Node000002_Node000003" class="edge">
<title>Node2&#45;&gt;Node3</title>
<g id="a_edge2_Node000002_Node000003"><a xlink:title=" ">
<path fill="none" stroke="#63b8ff" d="M161.79,-142.33C148.4,-132.11 130.39,-118.35 115.76,-107.17"/>
<polygon fill="#63b8ff" stroke="#63b8ff" points="159.77,-145.19 169.84,-148.48 164.02,-139.63 159.77,-145.19"/>
</a>
</g>
</g>
<!-- Node2&#45;&gt;Node4 -->
<g id="edge3_Node000002_Node000004" class="edge">
<title>Node2&#45;&gt;Node4</title>
<g id="a_edge3_Node000002_Node000004"><a xlink:title=" ">
<path fill="none" stroke="#63b8ff" d="M200.39,-142.19C218.76,-128.16 245.69,-107.59 260.75,-96.09"/>
<polygon fill="#63b8ff" stroke="#63b8ff" points="197.98,-139.63 192.16,-148.48 202.23,-145.19 197.98,-139.63"/>
</a>
</g>
</g>
<!-- Node5 -->
<g id="Node000005" class="node">
<title>Node5</title>
<g id="a_Node000005"><a xlink:href="../../d4/d06/fl_2audio_2fft_2__build_8cpp_8hpp.html" target="_top" xlink:title=" ">
<polygon fill="#fff0f0" stroke="red" points="342,-24.5 202,-24.5 202,-5.5 342,-5.5 342,-24.5"/>
<text text-anchor="middle" x="272" y="-12.5" font-family="Helvetica,sans-Serif" font-size="10.00">fl/audio/fft/_build.cpp.hpp</text>
</a>
</g>
</g>
<!-- Node4&#45;&gt;Node5 -->
<g id="edge4_Node000004_Node000005" class="edge">
<title>Node4&#45;&gt;Node5</title>
<g id="a_edge4_Node000004_Node000005"><a xlink:title=" ">
<path fill="none" stroke="#63b8ff" d="M272,-66.71C272,-53 272,-35.05 272,-24.59"/>
<polygon fill="#63b8ff" stroke="#63b8ff" points="268.5,-66.98 272,-76.98 275.5,-66.98 268.5,-66.98"/>
</a>
</g>
</g>
<!-- Node9&#45;&gt;Node4 -->
<g id="edge7_Node000009_Node000004" class="edge">
<title>Node9&#45;&gt;Node4</title>
<g id="a_edge7_Node000009_Node000004"><a xlink:title=" ">
<path fill="none" stroke="#63b8ff" d="M337.05,-136.64C319.18,-123.14 296.65,-106.12 283.34,-96.07"/>
<polygon fill="#63b8ff" stroke="#63b8ff" points="335.29,-139.7 345.38,-142.94 339.51,-134.12 335.29,-139.7"/>
</a>
</g>
</g>
<!-- Node10 -->
<g id="Node000010" class="node">
<title>Node10</title>
<g id="a_Node000010"><a xlink:href="../../dc/dbc/cq__kernel_8cpp_8hpp.html" target="_top" xlink:title=" ">
<polygon fill="white" stroke="#666666" points="483.5,-101.5 364.5,-101.5 364.5,-71.5 483.5,-71.5 483.5,-101.5"/>
<text text-anchor="start" x="372.5" y="-89.5" font-family="Helvetica,sans-Serif" font-size="10.00">third_party/cq_kernel</text>
<text text-anchor="middle" x="424" y="-78.5" font-family="Helvetica,sans-Serif" font-size="10.00">/cq_kernel.cpp.hpp</text>
</a>
</g>
</g>
<!-- Node9&#45;&gt;Node10 -->
<g id="edge8_Node000009_Node000010" class="edge">
<title>Node9&#45;&gt;Node10</title>
<g id="a_edge8_Node000009_Node000010"><a xlink:title=" ">
<path fill="none" stroke="#63b8ff" d="M382.69,-135.35C392.21,-124.33 403.5,-111.24 411.88,-101.54"/>
<polygon fill="#63b8ff" stroke="#63b8ff" points="380.03,-133.08 376.14,-142.94 385.33,-137.65 380.03,-133.08"/>
</a>
</g>
</g>
<!-- Node11 -->
<g id="Node000011" class="node">
<title>Node11</title>
<g id="a_Node000011"><a xlink:href="../../df/d37/third__party_2cq__kernel_2__build_8cpp_8hpp.html" target="_top" xlink:title=" ">
<polygon fill="#fff0f0" stroke="red" points="527.5,-30 408.5,-30 408.5,0 527.5,0 527.5,-30"/>
<text text-anchor="start" x="416.5" y="-18" font-family="Helvetica,sans-Serif" font-size="10.00">third_party/cq_kernel</text>
<text text-anchor="middle" x="468" y="-7" font-family="Helvetica,sans-Serif" font-size="10.00">/_build.cpp.hpp</text>
</a>
</g>
</g>
<!-- Node10&#45;&gt;Node11 -->
<g id="edge9_Node000010_Node000011" class="edge">
<title>Node10&#45;&gt;Node11</title>
<g id="a_edge9_Node000010_Node000011"><a xlink:title=" ">
<path fill="none" stroke="#63b8ff" d="M438.32,-62.88C445.17,-52.07 453.15,-39.46 459.11,-30.04"/>
<polygon fill="#63b8ff" stroke="#63b8ff" points="435.3,-61.11 432.9,-71.44 441.21,-64.86 435.3,-61.11"/>
</a>
</g>
</g>
<!-- Node14&#45;&gt;Node11 -->
<g id="edge11_Node000014_Node000011" class="edge">
<title>Node14&#45;&gt;Node11</title>
<g id="a_edge11_Node000014_Node000011"><a xlink:title=" ">
<path fill="none" stroke="#63b8ff" d="M505.58,-132.85C503.28,-114.26 499.09,-88.09 492,-66 487.94,-53.35 481.28,-39.81 476.01,-30.01"/>
<polygon fill="#63b8ff" stroke="#63b8ff" points="502.11,-133.3 506.72,-142.84 509.06,-132.5 502.11,-133.3"/>
</a>
</g>
</g>
</g>
</svg>

<g id="navigator" transform="translate(0 0)" fill="#404254">
  <rect fill="#f2f5e9" fill-opacity="0.5" stroke="#606060" stroke-width=".5" x="0" y="0" width="60" height="60"/>
  <use id="zoomplus" xlink:href="#zoomPlus" x="17" y="9" onmousedown="handleZoom(evt,'in')"/>
  <use id="zoomminus" xlink:href="#zoomMin" x="42" y="9" onmousedown="handleZoom(evt,'out')"/>
  <use id="reset" xlink:href="#resetDef" x="30" y="36" onmousedown="handleReset()"/>
   <use id="arrowup" xlink:href="#arrowUp" x="0" y="0" onmousedown="handlePan(0,-1)"/>
  <use id="arrowright" xlink:href="#arrowRight" x="0" y="0" onmousedown="handlePan(1,0)"/>
  <use id="arrowdown" xlink:href="#arrowDown" x="0" y="0" onmousedown="handlePan(0,1)"/>
  <use id="arrowleft" xlink:href="#arrowLeft" x="0" y="0" onmousedown="handlePan(-1,0)"/>
</g>
<svg viewBox="0 0 15 15" width="100%" height="30px" preserveAspectRatio="xMaxYMin meet">
 <g id="arrow_out" transform="scale(0.3 0.3)">
  <a xlink:href="kiss__fftr_8h__dep__incl_org.svg" target="_base">
   <rect id="button" ry="5" rx="5" y="6" x="6" height="38" width="38"
        fill="#f2f5e9" fill-opacity="0.5" stroke="#606060" stroke-width="1.0"/>
   <path id="arrow"
     d="M 11.500037,31.436501 C 11.940474,20.09759 22.043105,11.32322 32.158766,21.979434 L 37.068811,17.246167 C 37.068811,17.246167 37.088388,32 37.088388,32 L 22.160133,31.978069 C 22.160133,31.978069 26.997745,27.140456 26.997745,27.140456 C 18.528582,18.264221 13.291696,25.230495 11.500037,31.436501 z"
     style="fill:#404040;"/>
  </a>
 </g>
</svg>

<style type='text/css'>
<![CDATA[
[data-mouse-over-selected='false'] { opacity: 0.7; }
[data-mouse-over-selected='true']  { opacity: 1.0; }
]]>
</style>
<script type="application/ecmascript"><![CDATA[
document.addEventListener('DOMContentLoaded', (event) => {
  highlightEdges();
  highlightAdjacentNodes();
});
]]></script>
</svg>
