<?xml version="1.0" encoding="UTF-8" standalone="no"?>
<!DOCTYPE svg PUBLIC "-//W3C//DTD SVG 1.1//EN"
 "http://www.w3.org/Graphics/SVG/1.1/DTD/svg11.dtd">
<!-- Generated by graphviz version 2.43.0 (0)
 -->
<!-- Title: fl::gfx::detail::drawLineCore Pages: 1 -->
<svg width="326pt" height="156pt"
 viewBox="0.00 0.00 326.00 156.00" xmlns="http://www.w3.org/2000/svg" xmlns:xlink="http://www.w3.org/1999/xlink">

<svg id="main" version="1.1" xmlns="http://www.w3.org/2000/svg" xmlns:xlink="http://www.w3.org/1999/xlink" xml:space="preserve">

<style type="text/css"><![CDATA[
.node, .edge {opacity: 0.7;}
.node.selected, .edge.selected {opacity: 1;}
.edge:hover path { stroke: red; }
.edge:hover polygon { stroke: red; fill: red; }
]]></style>
<script type="application/ecmascript" xlink:href="../../svg.min.js"/>
<svg id="graph" class="graph">
<g id="graph0" class="graph" transform="scale(1 1) rotate(0) translate(4 152)">
<title>fl::gfx::detail::drawLineCore</title>
<!-- Node1 -->
<g id="Node000001" class="node">
<title>Node1</title>
<g id="a_Node000001"><a xlink:title=" ">
<polygon fill="#999999" stroke="#666666" points="151,-92 0,-92 0,-73 151,-73 151,-92"/>
<text text-anchor="middle" x="75.5" y="-80" font-family="Helvetica,sans-Serif" font-size="10.00">fl::gfx::detail::drawLineCore</text>
</a>
</g>
</g>
<!-- Node2 -->
<g id="Node000002" class="node">
<title>Node2</title>
<g id="a_Node000002"><a xlink:href="../../d4/d36/namespacefl_aefed87cfefc8330419d3393867945e84.html#aefed87cfefc8330419d3393867945e84" target="_top" xlink:title=" ">
<polygon fill="white" stroke="#666666" points="275.5,-148 229.5,-148 229.5,-129 275.5,-129 275.5,-148"/>
<text text-anchor="middle" x="252.5" y="-136" font-family="Helvetica,sans-Serif" font-size="10.00">fl::abs</text>
</a>
</g>
</g>
<!-- Node1&#45;&gt;Node2 -->
<g id="edge1_Node000001_Node000002" class="edge">
<title>Node1&#45;&gt;Node2</title>
<g id="a_edge1_Node000001_Node000002"><a xlink:title=" ">
<path fill="none" stroke="#63b8ff" d="M103.15,-92.16C125.44,-100.12 158.14,-111.52 187,-120.5 197.49,-123.76 209.02,-127.07 219.4,-129.94"/>
<polygon fill="#63b8ff" stroke="#63b8ff" points="218.75,-133.39 229.31,-132.66 220.59,-126.64 218.75,-133.39"/>
</a>
</g>
</g>
<!-- Node3 -->
<g id="Node000003" class="node">
<title>Node3</title>
<g id="a_Node000003"><a xlink:href="../../d0/d8b/namespacefl_1_1gfx_a82edaad44f942771f5f99fe52a30daa0.html#a82edaad44f942771f5f99fe52a30daa0" target="_top" xlink:title="Internal helper: add or set pixel to rectangular buffer with bounds checking Direct row&#45;major indexin...">
<polygon fill="white" stroke="#666666" points="318,-111 187,-111 187,-92 318,-92 318,-111"/>
<text text-anchor="middle" x="252.5" y="-99" font-family="Helvetica,sans-Serif" font-size="10.00">fl::gfx::addPixelToBuffer</text>
</a>
</g>
</g>
<!-- Node1&#45;&gt;Node3 -->
<g id="edge2_Node000001_Node000003" class="edge">
<title>Node1&#45;&gt;Node3</title>
<g id="a_edge2_Node000001_Node000003"><a xlink:title=" ">
<path fill="none" stroke="#63b8ff" d="M151.22,-90.61C159.68,-91.53 168.29,-92.47 176.75,-93.38"/>
<polygon fill="#63b8ff" stroke="#63b8ff" points="176.64,-96.89 186.96,-94.49 177.39,-89.93 176.64,-96.89"/>
</a>
</g>
</g>
<!-- Node4 -->
<g id="Node000004" class="node">
<title>Node4</title>
<g id="a_Node000004"><a xlink:href="../../da/d3c/namespacefl_1_1fl_a5d5f266e22b532883d3bcc5159a7f1b8.html#a5d5f266e22b532883d3bcc5159a7f1b8" target="_top" xlink:title=" ">
<polygon fill="white" stroke="#666666" points="285.5,-74 219.5,-74 219.5,-55 285.5,-55 285.5,-74"/>
<text text-anchor="middle" x="252.5" y="-62" font-family="Helvetica,sans-Serif" font-size="10.00">fl::fl::swap</text>
</a>
</g>
</g>
<!-- Node1&#45;&gt;Node4 -->
<g id="edge3_Node000001_Node000004" class="edge">
<title>Node1&#45;&gt;Node4</title>
<g id="a_edge3_Node000001_Node000004"><a xlink:title=" ">
<path fill="none" stroke="#63b8ff" d="M151.22,-74.81C170.92,-72.79 191.5,-70.67 208.85,-68.89"/>
<polygon fill="#63b8ff" stroke="#63b8ff" points="209.61,-72.33 219.2,-67.82 208.89,-65.36 209.61,-72.33"/>
</a>
</g>
</g>
<!-- Node5 -->
<g id="Node000005" class="node">
<title>Node5</title>
<g id="a_Node000005"><a xlink:href="../../d6/d9a/namespacefl_1_1gfx_1_1detail_ab04a22e2927673d2692b4f3e354af564.html#ab04a22e2927673d2692b4f3e354af564" target="_top" xlink:title="Convert any Coord type to 8.8 fixed&#45;point (fl::i32).">
<polygon fill="white" stroke="#666666" points="315,-19 190,-19 190,0 315,0 315,-19"/>
<text text-anchor="middle" x="252.5" y="-7" font-family="Helvetica,sans-Serif" font-size="10.00">fl::gfx::detail::toFixed8</text>
</a>
</g>
</g>
<!-- Node1&#45;&gt;Node5 -->
<g id="edge4_Node000001_Node000005" class="edge">
<title>Node1&#45;&gt;Node5</title>
<g id="a_edge4_Node000001_Node000005"><a xlink:title=" ">
<path fill="none" stroke="#63b8ff" d="M99.38,-72.96C130.03,-60.17 184.6,-37.41 219.37,-22.9"/>
<polygon fill="#63b8ff" stroke="#63b8ff" points="220.73,-26.13 228.62,-19.05 218.04,-19.67 220.73,-26.13"/>
</a>
</g>
</g>
<!-- Node5&#45;&gt;Node5 -->
<g id="edge5_Node000005_Node000005" class="edge">
<title>Node5&#45;&gt;Node5</title>
<g id="a_edge5_Node000005_Node000005"><a xlink:title=" ">
<path fill="none" stroke="#63b8ff" d="M225.37,-19.08C212.18,-27.73 221.22,-37 252.5,-37 273.52,-37 284.5,-32.82 285.43,-27.45"/>
<polygon fill="#63b8ff" stroke="#63b8ff" points="288.2,-25.3 279.63,-19.08 282.45,-29.29 288.2,-25.3"/>
</a>
</g>
</g>
</g>
</svg>
</svg>

<style type='text/css'>
<![CDATA[
[data-mouse-over-selected='false'] { opacity: 0.7; }
[data-mouse-over-selected='true']  { opacity: 1.0; }
]]>
</style>
<script type="application/ecmascript"><![CDATA[
document.addEventListener('DOMContentLoaded', (event) => {
  highlightEdges();
  highlightAdjacentNodes();
});
]]></script>
</svg>
