<?xml version="1.0" encoding="UTF-8" standalone="no"?>
<!DOCTYPE svg PUBLIC "-//W3C//DTD SVG 1.1//EN"
 "http://www.w3.org/Graphics/SVG/1.1/DTD/svg11.dtd">
<!-- Generated by graphviz version 2.43.0 (0)
 -->
<!-- Title: fl::Luminova::resetParticle Pages: 1 -->
<svg width="500pt" height="119pt"
 viewBox="0.00 0.00 500.00 119.00" xmlns="http://www.w3.org/2000/svg" xmlns:xlink="http://www.w3.org/1999/xlink">

<svg id="main" version="1.1" xmlns="http://www.w3.org/2000/svg" xmlns:xlink="http://www.w3.org/1999/xlink" xml:space="preserve">

<style type="text/css"><![CDATA[
.node, .edge {opacity: 0.7;}
.node.selected, .edge.selected {opacity: 1;}
.edge:hover path { stroke: red; }
.edge:hover polygon { stroke: red; fill: red; }
]]></style>
<script type="application/ecmascript" xlink:href="../../svg.min.js"/>
<svg id="graph" class="graph">
<g id="graph0" class="graph" transform="scale(1 1) rotate(0) translate(4 115)">
<title>fl::Luminova::resetParticle</title>
<!-- Node1 -->
<g id="Node000001" class="node">
<title>Node1</title>
<g id="a_Node000001"><a xlink:title=" ">
<polygon fill="#999999" stroke="#666666" points="143,-74 0,-74 0,-55 143,-55 143,-74"/>
<text text-anchor="middle" x="71.5" y="-62" font-family="Helvetica,sans-Serif" font-size="10.00">fl::Luminova::resetParticle</text>
</a>
</g>
</g>
<!-- Node2 -->
<g id="Node000002" class="node">
<title>Node2</title>
<g id="a_Node000002"><a xlink:href="../../d7/d3e/classfl_1_1_fx2d_ad6b933327525e3183bebc5c4670c335c.html#ad6b933327525e3183bebc5c4670c335c" target="_top" xlink:title=" ">
<polygon fill="white" stroke="#666666" points="286,-111 179,-111 179,-92 286,-92 286,-111"/>
<text text-anchor="middle" x="232.5" y="-99" font-family="Helvetica,sans-Serif" font-size="10.00">fl::Fx2d::getHeight</text>
</a>
</g>
</g>
<!-- Node1&#45;&gt;Node2 -->
<g id="edge1_Node000001_Node000002" class="edge">
<title>Node1&#45;&gt;Node2</title>
<g id="a_edge1_Node000001_Node000002"><a xlink:title=" ">
<path fill="none" stroke="#63b8ff" d="M113.45,-74.03C133.86,-78.78 158.75,-84.57 180.4,-89.61"/>
<polygon fill="#63b8ff" stroke="#63b8ff" points="179.88,-93.08 190.42,-91.94 181.47,-86.26 179.88,-93.08"/>
</a>
</g>
</g>
<!-- Node3 -->
<g id="Node000003" class="node">
<title>Node3</title>
<g id="a_Node000003"><a xlink:href="../../d7/d3e/classfl_1_1_fx2d_ac8815af5daab1c78876ecded7373a2f8.html#ac8815af5daab1c78876ecded7373a2f8" target="_top" xlink:title=" ">
<polygon fill="white" stroke="#666666" points="284,-74 181,-74 181,-55 284,-55 284,-74"/>
<text text-anchor="middle" x="232.5" y="-62" font-family="Helvetica,sans-Serif" font-size="10.00">fl::Fx2d::getWidth</text>
</a>
</g>
</g>
<!-- Node1&#45;&gt;Node3 -->
<g id="edge2_Node000001_Node000003" class="edge">
<title>Node1&#45;&gt;Node3</title>
<g id="a_edge2_Node000001_Node000003"><a xlink:title=" ">
<path fill="none" stroke="#63b8ff" d="M143.17,-64.5C152.23,-64.5 161.44,-64.5 170.34,-64.5"/>
<polygon fill="#63b8ff" stroke="#63b8ff" points="170.6,-68 180.6,-64.5 170.6,-61 170.6,-68"/>
</a>
</g>
</g>
<!-- Node4 -->
<g id="Node000004" class="node">
<title>Node4</title>
<g id="a_Node000004"><a xlink:href="../../d8/df9/group___noise_generation_gaeb72246ebd597b60a7e575173accf2fd.html#gaeb72246ebd597b60a7e575173accf2fd" target="_top" xlink:title=" ">
<polygon fill="white" stroke="#666666" points="258.5,-37 206.5,-37 206.5,-18 258.5,-18 258.5,-37"/>
<text text-anchor="middle" x="232.5" y="-25" font-family="Helvetica,sans-Serif" font-size="10.00">inoise8</text>
</a>
</g>
</g>
<!-- Node1&#45;&gt;Node4 -->
<g id="edge3_Node000001_Node000004" class="edge">
<title>Node1&#45;&gt;Node4</title>
<g id="a_edge3_Node000001_Node000004"><a xlink:title=" ">
<path fill="none" stroke="#63b8ff" d="M113.45,-54.97C139.05,-49.01 171.69,-41.42 196.16,-35.72"/>
<polygon fill="#63b8ff" stroke="#63b8ff" points="197.15,-39.09 206.1,-33.41 195.57,-32.27 197.15,-39.09"/>
</a>
</g>
</g>
<!-- Node5 -->
<g id="Node000005" class="node">
<title>Node5</title>
<g id="a_Node000005"><a xlink:href="../../d8/d5c/group___noise_gaa3db0f2f3777cf5bb7a4dd1359dba4fe.html#gaa3db0f2f3777cf5bb7a4dd1359dba4fe" target="_top" xlink:title=" ">
<polygon fill="white" stroke="#666666" points="397,-37 322,-37 322,-18 397,-18 397,-37"/>
<text text-anchor="middle" x="359.5" y="-25" font-family="Helvetica,sans-Serif" font-size="10.00">inoise8_raw</text>
</a>
</g>
</g>
<!-- Node4&#45;&gt;Node5 -->
<g id="edge4_Node000004_Node000005" class="edge">
<title>Node4&#45;&gt;Node5</title>
<g id="a_edge4_Node000004_Node000005"><a xlink:title=" ">
<path fill="none" stroke="#63b8ff" d="M258.8,-27.5C274.01,-27.5 293.86,-27.5 311.83,-27.5"/>
<polygon fill="#63b8ff" stroke="#63b8ff" points="311.87,-31 321.87,-27.5 311.87,-24 311.87,-31"/>
</a>
</g>
</g>
<!-- Node6 -->
<g id="Node000006" class="node">
<title>Node6</title>
<g id="a_Node000006"><a xlink:href="../../da/dca/noise_8cpp_8hpp_aaef794781206db0a4d368d37e6ef6ee8.html#aaef794781206db0a4d368d37e6ef6ee8" target="_top" xlink:title=" ">
<polygon fill="white" stroke="#666666" points="484.5,-56 440.5,-56 440.5,-37 484.5,-37 484.5,-56"/>
<text text-anchor="middle" x="462.5" y="-44" font-family="Helvetica,sans-Serif" font-size="10.00">grad8</text>
</a>
</g>
</g>
<!-- Node5&#45;&gt;Node6 -->
<g id="edge5_Node000005_Node000006" class="edge">
<title>Node5&#45;&gt;Node6</title>
<g id="a_edge5_Node000005_Node000006"><a xlink:title=" ">
<path fill="none" stroke="#63b8ff" d="M397.25,-34.41C408.16,-36.47 420,-38.69 430.51,-40.67"/>
<polygon fill="#63b8ff" stroke="#63b8ff" points="430.02,-44.14 440.5,-42.55 431.31,-37.26 430.02,-44.14"/>
</a>
</g>
</g>
<!-- Node7 -->
<g id="Node000007" class="node">
<title>Node7</title>
<g id="a_Node000007"><a xlink:href="../../da/dca/noise_8cpp_8hpp_ad3d22e92376f22aef90fc8cf6eb52d5a.html#ad3d22e92376f22aef90fc8cf6eb52d5a" target="_top" xlink:title=" ">
<polygon fill="white" stroke="#666666" points="492,-19 433,-19 433,0 492,0 492,-19"/>
<text text-anchor="middle" x="462.5" y="-7" font-family="Helvetica,sans-Serif" font-size="10.00">lerp7by8</text>
</a>
</g>
</g>
<!-- Node5&#45;&gt;Node7 -->
<g id="edge6_Node000005_Node000007" class="edge">
<title>Node5&#45;&gt;Node7</title>
<g id="a_edge6_Node000005_Node000007"><a xlink:title=" ">
<path fill="none" stroke="#63b8ff" d="M397.25,-20.95C405.59,-19.46 414.47,-17.88 422.89,-16.38"/>
<polygon fill="#63b8ff" stroke="#63b8ff" points="423.62,-19.81 432.85,-14.61 422.39,-12.91 423.62,-19.81"/>
</a>
</g>
</g>
</g>
</svg>
</svg>

<style type='text/css'>
<![CDATA[
[data-mouse-over-selected='false'] { opacity: 0.7; }
[data-mouse-over-selected='true']  { opacity: 1.0; }
]]>
</style>
<script type="application/ecmascript"><![CDATA[
document.addEventListener('DOMContentLoaded', (event) => {
  highlightEdges();
  highlightAdjacentNodes();
});
]]></script>
</svg>
