<?xml version="1.0" encoding="UTF-8" standalone="no"?>
<!DOCTYPE svg PUBLIC "-//W3C//DTD SVG 1.1//EN"
 "http://www.w3.org/Graphics/SVG/1.1/DTD/svg11.dtd">
<!-- Generated by graphviz version 2.43.0 (0)
 -->
<!-- Title: fl::VectorN::VectorN Pages: 1 -->
<svg width="277pt" height="175pt"
 viewBox="0.00 0.00 277.00 175.00" xmlns="http://www.w3.org/2000/svg" xmlns:xlink="http://www.w3.org/1999/xlink">

<svg id="main" version="1.1" xmlns="http://www.w3.org/2000/svg" xmlns:xlink="http://www.w3.org/1999/xlink" xml:space="preserve">

<style type="text/css"><![CDATA[
.node, .edge {opacity: 0.7;}
.node.selected, .edge.selected {opacity: 1;}
.edge:hover path { stroke: red; }
.edge:hover polygon { stroke: red; fill: red; }
]]></style>
<script type="application/ecmascript" xlink:href="../../svg.min.js"/>
<svg id="graph" class="graph">
<g id="graph0" class="graph" transform="scale(1 1) rotate(0) translate(4 171)">
<title>fl::VectorN::VectorN</title>
<!-- Node1 -->
<g id="Node000001" class="node">
<title>Node1</title>
<g id="a_Node000001"><a xlink:title=" ">
<polygon fill="#999999" stroke="#666666" points="269,-93 158,-93 158,-74 269,-74 269,-93"/>
<text text-anchor="middle" x="213.5" y="-81" font-family="Helvetica,sans-Serif" font-size="10.00">fl::VectorN::VectorN</text>
</a>
</g>
</g>
<!-- Node2 -->
<g id="Node000002" class="node">
<title>Node2</title>
<g id="a_Node000002"><a xlink:href="../../dc/d05/classfl_1_1_vector_n_a2a93d154433884f85011320481510df7.html#a2a93d154433884f85011320481510df7" target="_top" xlink:title=" ">
<polygon fill="white" stroke="#666666" points="116.5,-167 5.5,-167 5.5,-148 116.5,-148 116.5,-167"/>
<text text-anchor="middle" x="61" y="-155" font-family="Helvetica,sans-Serif" font-size="10.00">fl::VectorN::VectorN</text>
</a>
</g>
</g>
<!-- Node1&#45;&gt;Node2 -->
<g id="edge1_Node000001_Node000002" class="edge">
<title>Node1&#45;&gt;Node2</title>
<g id="a_edge1_Node000001_Node000002"><a xlink:title=" ">
<path fill="none" stroke="#63b8ff" d="M190.84,-99.17C173.05,-111.47 146.82,-128.33 122,-139.5 114.86,-142.71 106.99,-145.54 99.36,-147.95"/>
<polygon fill="#63b8ff" stroke="#63b8ff" points="193.15,-101.82 199.32,-93.21 189.13,-96.09 193.15,-101.82"/>
</a>
</g>
</g>
<!-- Node3 -->
<g id="Node000003" class="node">
<title>Node3</title>
<g id="a_Node000003"><a xlink:href="../../dc/d05/classfl_1_1_vector_n_a2a15f0a4d87dd5717f708aaf80f1a1bb.html#a2a15f0a4d87dd5717f708aaf80f1a1bb" target="_top" xlink:title=" ">
<polygon fill="white" stroke="#666666" points="116.5,-130 5.5,-130 5.5,-111 116.5,-111 116.5,-130"/>
<text text-anchor="middle" x="61" y="-118" font-family="Helvetica,sans-Serif" font-size="10.00">fl::VectorN::VectorN</text>
</a>
</g>
</g>
<!-- Node1&#45;&gt;Node3 -->
<g id="edge2_Node000001_Node000003" class="edge">
<title>Node1&#45;&gt;Node3</title>
<g id="a_edge2_Node000001_Node000003"><a xlink:title=" ">
<path fill="none" stroke="#63b8ff" d="M163.99,-95.43C143.58,-100.44 120.14,-106.21 100.89,-110.94"/>
<polygon fill="#63b8ff" stroke="#63b8ff" points="164.87,-98.81 173.74,-93.03 163.2,-92.02 164.87,-98.81"/>
</a>
</g>
</g>
<!-- Node4 -->
<g id="Node000004" class="node">
<title>Node4</title>
<g id="a_Node000004"><a xlink:href="../../dc/d05/classfl_1_1_vector_n_ac080b02aefa3f7f02cb6c95ff80d46fc.html#ac080b02aefa3f7f02cb6c95ff80d46fc" target="_top" xlink:title=" ">
<polygon fill="white" stroke="#666666" points="116.5,-93 5.5,-93 5.5,-74 116.5,-74 116.5,-93"/>
<text text-anchor="middle" x="61" y="-81" font-family="Helvetica,sans-Serif" font-size="10.00">fl::VectorN::VectorN</text>
</a>
</g>
</g>
<!-- Node1&#45;&gt;Node4 -->
<g id="edge3_Node000001_Node000004" class="edge">
<title>Node1&#45;&gt;Node4</title>
<g id="a_edge3_Node000001_Node000004"><a xlink:title=" ">
<path fill="none" stroke="#63b8ff" d="M147.57,-83.5C137.29,-83.5 126.74,-83.5 116.72,-83.5"/>
<polygon fill="#63b8ff" stroke="#63b8ff" points="147.74,-87 157.74,-83.5 147.74,-80 147.74,-87"/>
</a>
</g>
</g>
<!-- Node5 -->
<g id="Node000005" class="node">
<title>Node5</title>
<g id="a_Node000005"><a xlink:href="../../dc/d05/classfl_1_1_vector_n_a48292439b07ed8da9a5920704e799e23.html#a48292439b07ed8da9a5920704e799e23" target="_top" xlink:title=" ">
<polygon fill="white" stroke="#666666" points="122,-56 0,-56 0,-37 122,-37 122,-56"/>
<text text-anchor="middle" x="61" y="-44" font-family="Helvetica,sans-Serif" font-size="10.00">fl::VectorN::operator=</text>
</a>
</g>
</g>
<!-- Node1&#45;&gt;Node5 -->
<g id="edge4_Node000001_Node000005" class="edge">
<title>Node1&#45;&gt;Node5</title>
<g id="a_edge4_Node000001_Node000005"><a xlink:title=" ">
<path fill="none" stroke="#63b8ff" d="M163.99,-71.57C143.58,-66.56 120.14,-60.79 100.89,-56.06"/>
<polygon fill="#63b8ff" stroke="#63b8ff" points="163.2,-74.98 173.74,-73.97 164.87,-68.19 163.2,-74.98"/>
</a>
</g>
</g>
<!-- Node6 -->
<g id="Node000006" class="node">
<title>Node6</title>
<g id="a_Node000006"><a xlink:href="../../dc/d05/classfl_1_1_vector_n_a7c9e3fda6df0ca91b24f25a44b6b5e75.html#a7c9e3fda6df0ca91b24f25a44b6b5e75" target="_top" xlink:title=" ">
<polygon fill="white" stroke="#666666" points="122,-19 0,-19 0,0 122,0 122,-19"/>
<text text-anchor="middle" x="61" y="-7" font-family="Helvetica,sans-Serif" font-size="10.00">fl::VectorN::operator=</text>
</a>
</g>
</g>
<!-- Node1&#45;&gt;Node6 -->
<g id="edge5_Node000001_Node000006" class="edge">
<title>Node1&#45;&gt;Node6</title>
<g id="a_edge5_Node000001_Node000006"><a xlink:title=" ">
<path fill="none" stroke="#63b8ff" d="M190.44,-68.03C172.61,-56.03 146.52,-39.64 122,-28.5 114.14,-24.93 105.42,-21.75 97.11,-19.07"/>
<polygon fill="#63b8ff" stroke="#63b8ff" points="188.73,-71.1 198.96,-73.85 192.68,-65.32 188.73,-71.1"/>
</a>
</g>
</g>
</g>
</svg>
</svg>

<style type='text/css'>
<![CDATA[
[data-mouse-over-selected='false'] { opacity: 0.7; }
[data-mouse-over-selected='true']  { opacity: 1.0; }
]]>
</style>
<script type="application/ecmascript"><![CDATA[
document.addEventListener('DOMContentLoaded', (event) => {
  highlightEdges();
  highlightAdjacentNodes();
});
]]></script>
</svg>
