<?xml version="1.0" encoding="UTF-8" standalone="no"?>
<!DOCTYPE svg PUBLIC "-//W3C//DTD SVG 1.1//EN"
 "http://www.w3.org/Graphics/SVG/1.1/DTD/svg11.dtd">
<!-- Generated by graphviz version 2.43.0 (0)
 -->
<!-- Title: fl::vector_psram::operator= Pages: 1 -->
<svg width="899pt" height="278pt"
 viewBox="0.00 0.00 899.00 277.56" xmlns="http://www.w3.org/2000/svg" xmlns:xlink="http://www.w3.org/1999/xlink">
<g id="graph0" class="graph" transform="scale(1 1) rotate(0) translate(4 273.56)">
<title>fl::vector_psram::operator=</title>
<!-- Node1 -->
<g id="Node000001" class="node">
<title>Node1</title>
<g id="a_Node000001"><a xlink:title=" ">
<polygon fill="#999999" stroke="#666666" points="151,-162.56 0,-162.56 0,-143.56 151,-143.56 151,-162.56"/>
<text text-anchor="middle" x="75.5" y="-150.56" font-family="Helvetica,sans-Serif" font-size="10.00">fl::vector_psram::operator=</text>
</a>
</g>
</g>
<!-- Node2 -->
<g id="Node000002" class="node">
<title>Node2</title>
<g id="a_Node000002"><a xlink:href="../../d8/d7d/classfl_1_1vector__psram_ac11730d58d8eb6ea39eda5f393065125.html#ac11730d58d8eb6ea39eda5f393065125" target="_top" xlink:title=" ">
<polygon fill="white" stroke="#666666" points="327,-238.06 195,-238.06 195,-208.06 327,-208.06 327,-238.06"/>
<text text-anchor="start" x="203" y="-226.06" font-family="Helvetica,sans-Serif" font-size="10.00">fl::vector_psram::vector</text>
<text text-anchor="middle" x="261" y="-215.06" font-family="Helvetica,sans-Serif" font-size="10.00">_psram</text>
</a>
</g>
</g>
<!-- Node1&#45;&gt;Node2 -->
<g id="edge1_Node000001_Node000002" class="edge">
<title>Node1&#45;&gt;Node2</title>
<g id="a_edge1_Node000001_Node000002"><a xlink:title=" ">
<path fill="none" stroke="#63b8ff" d="M101.63,-162.64C129.62,-173.32 175.57,-190.85 210.78,-204.28"/>
<polygon fill="#63b8ff" stroke="#63b8ff" points="209.81,-207.66 220.4,-207.95 212.31,-201.12 209.81,-207.66"/>
</a>
</g>
</g>
<!-- Node5 -->
<g id="Node000005" class="node">
<title>Node5</title>
<g id="a_Node000005"><a xlink:href="../../d4/dad/classfl_1_1vector__basic_adb893eae3595e3f2c3b5ac20cd676f39.html#adb893eae3595e3f2c3b5ac20cd676f39" target="_top" xlink:title="Copy all elements from another vector_basic.">
<polygon fill="white" stroke="#666666" points="335,-110.56 187,-110.56 187,-91.56 335,-91.56 335,-110.56"/>
<text text-anchor="middle" x="261" y="-98.56" font-family="Helvetica,sans-Serif" font-size="10.00">fl::vector_basic::copy_from</text>
</a>
</g>
</g>
<!-- Node1&#45;&gt;Node5 -->
<g id="edge4_Node000001_Node000005" class="edge">
<title>Node1&#45;&gt;Node5</title>
<g id="a_edge4_Node000001_Node000005"><a xlink:title=" ">
<path fill="none" stroke="#63b8ff" d="M110.16,-143.52C140.07,-135.04 183.97,-122.6 216.53,-113.38"/>
<polygon fill="#63b8ff" stroke="#63b8ff" points="217.58,-116.72 226.25,-110.62 215.67,-109.98 217.58,-116.72"/>
</a>
</g>
</g>
<!-- Node3 -->
<g id="Node000003" class="node">
<title>Node3</title>
<g id="a_Node000003"><a xlink:href="../../d2/d24/classfl_1_1vector_ac9d959e1d6e7a43a30b5d1c709e4050a.html#ac9d959e1d6e7a43a30b5d1c709e4050a" target="_top" xlink:title=" ">
<polygon fill="white" stroke="#666666" points="499,-269.56 403,-269.56 403,-250.56 499,-250.56 499,-269.56"/>
<text text-anchor="middle" x="451" y="-257.56" font-family="Helvetica,sans-Serif" font-size="10.00">fl::vector::vector</text>
</a>
</g>
</g>
<!-- Node2&#45;&gt;Node3 -->
<g id="edge2_Node000002_Node000003" class="edge">
<title>Node2&#45;&gt;Node3</title>
<g id="a_edge2_Node000002_Node000003"><a xlink:title=" ">
<path fill="none" stroke="#63b8ff" d="M327.23,-235.89C348.64,-240.11 372.27,-244.76 393.02,-248.84"/>
<polygon fill="#63b8ff" stroke="#63b8ff" points="392.47,-252.3 402.96,-250.8 393.82,-245.43 392.47,-252.3"/>
</a>
</g>
</g>
<!-- Node4 -->
<g id="Node000004" class="node">
<title>Node4</title>
<g id="a_Node000004"><a xlink:href="../../d4/d36/namespacefl_abe0f645352cc535c08d01a446b1078bc.html#abe0f645352cc535c08d01a446b1078bc" target="_top" xlink:title="Get the PSRAM memory resource (wraps PSRamAllocate / PSRamDeallocate).">
<polygon fill="white" stroke="#666666" points="527.5,-232.56 374.5,-232.56 374.5,-213.56 527.5,-213.56 527.5,-232.56"/>
<text text-anchor="middle" x="451" y="-220.56" font-family="Helvetica,sans-Serif" font-size="10.00">fl::psram_memory_resource</text>
</a>
</g>
</g>
<!-- Node2&#45;&gt;Node4 -->
<g id="edge3_Node000002_Node000004" class="edge">
<title>Node2&#45;&gt;Node4</title>
<g id="a_edge3_Node000002_Node000004"><a xlink:title=" ">
<path fill="none" stroke="#63b8ff" d="M327.23,-223.06C339.07,-223.06 351.6,-223.06 363.94,-223.06"/>
<polygon fill="#63b8ff" stroke="#63b8ff" points="364.24,-226.56 374.24,-223.06 364.24,-219.56 364.24,-226.56"/>
</a>
</g>
</g>
<!-- Node6 -->
<g id="Node000006" class="node">
<title>Node6</title>
<g id="a_Node000006"><a xlink:href="../../d4/dad/classfl_1_1vector__basic_a8d4a975029a68075a20d1aa3fa3e7cf5.html#a8d4a975029a68075a20d1aa3fa3e7cf5" target="_top" xlink:title="Heap&#45;only vector (no inline buffer).">
<polygon fill="white" stroke="#666666" points="514.5,-177.06 387.5,-177.06 387.5,-147.06 514.5,-147.06 514.5,-177.06"/>
<text text-anchor="start" x="395.5" y="-165.06" font-family="Helvetica,sans-Serif" font-size="10.00">fl::vector_basic::vector</text>
<text text-anchor="middle" x="451" y="-154.06" font-family="Helvetica,sans-Serif" font-size="10.00">_basic</text>
</a>
</g>
</g>
<!-- Node5&#45;&gt;Node6 -->
<g id="edge5_Node000005_Node000006" class="edge">
<title>Node5&#45;&gt;Node6</title>
<g id="a_edge5_Node000005_Node000006"><a xlink:title=" ">
<path fill="none" stroke="#63b8ff" d="M289.24,-110.58C311.24,-118.2 343.03,-129.07 371,-138.06 377,-139.99 383.27,-141.96 389.54,-143.91"/>
<polygon fill="#63b8ff" stroke="#63b8ff" points="388.76,-147.33 399.35,-146.94 390.83,-140.64 388.76,-147.33"/>
</a>
</g>
</g>
<!-- Node8 -->
<g id="Node000008" class="node">
<title>Node8</title>
<g id="a_Node000008"><a xlink:href="../../d4/dad/classfl_1_1vector__basic_ae5df471ee4ece9aeef4d9efdacef6061.html#ae5df471ee4ece9aeef4d9efdacef6061" target="_top" xlink:title=" ">
<polygon fill="white" stroke="#666666" points="524.5,-128.56 377.5,-128.56 377.5,-109.56 524.5,-109.56 524.5,-128.56"/>
<text text-anchor="middle" x="451" y="-116.56" font-family="Helvetica,sans-Serif" font-size="10.00">fl::vector_basic::clear_impl</text>
</a>
</g>
</g>
<!-- Node5&#45;&gt;Node8 -->
<g id="edge8_Node000005_Node000008" class="edge">
<title>Node5&#45;&gt;Node8</title>
<g id="a_edge8_Node000005_Node000008"><a xlink:title=" ">
<path fill="none" stroke="#63b8ff" d="M335.22,-108.07C345.69,-109.07 356.52,-110.11 367.16,-111.13"/>
<polygon fill="#63b8ff" stroke="#63b8ff" points="367,-114.63 377.28,-112.1 367.66,-107.66 367,-114.63"/>
</a>
</g>
</g>
<!-- Node9 -->
<g id="Node000009" class="node">
<title>Node9</title>
<g id="a_Node000009"><a xlink:href="../../d4/dad/classfl_1_1vector__basic_ab007e98763f01e1326ef5ddb39ddf006.html#ab007e98763f01e1326ef5ddb39ddf006" target="_top" xlink:title="Pointer to element at index (byte arithmetic).">
<polygon fill="white" stroke="#666666" points="528.5,-91.56 373.5,-91.56 373.5,-72.56 528.5,-72.56 528.5,-91.56"/>
<text text-anchor="middle" x="451" y="-79.56" font-family="Helvetica,sans-Serif" font-size="10.00">fl::vector_basic::element_ptr</text>
</a>
</g>
</g>
<!-- Node5&#45;&gt;Node9 -->
<g id="edge9_Node000005_Node000009" class="edge">
<title>Node5&#45;&gt;Node9</title>
<g id="a_edge9_Node000005_Node000009"><a xlink:title=" ">
<path fill="none" stroke="#63b8ff" d="M335.22,-93.66C344.39,-92.73 353.82,-91.78 363.17,-90.83"/>
<polygon fill="#63b8ff" stroke="#63b8ff" points="363.65,-94.3 373.25,-89.81 362.95,-87.34 363.65,-94.3"/>
</a>
</g>
</g>
<!-- Node10 -->
<g id="Node000010" class="node">
<title>Node10</title>
<g id="a_Node000010"><a xlink:href="../../d4/dad/classfl_1_1vector__basic_a307989a09148dc75fc5fbb2111cfef6f.html#a307989a09148dc75fc5fbb2111cfef6f" target="_top" xlink:title=" ">
<polygon fill="white" stroke="#666666" points="531,-54.56 371,-54.56 371,-35.56 531,-35.56 531,-54.56"/>
<text text-anchor="middle" x="451" y="-42.56" font-family="Helvetica,sans-Serif" font-size="10.00">fl::vector_basic::reserve_impl</text>
</a>
</g>
</g>
<!-- Node5&#45;&gt;Node10 -->
<g id="edge10_Node000005_Node000010" class="edge">
<title>Node5&#45;&gt;Node10</title>
<g id="a_edge10_Node000005_Node000010"><a xlink:title=" ">
<path fill="none" stroke="#63b8ff" d="M288.22,-91.41C310.16,-83.51 342.4,-72.33 371,-64.06 379.47,-61.61 388.51,-59.22 397.34,-57.02"/>
<polygon fill="#63b8ff" stroke="#63b8ff" points="398.29,-60.38 407.17,-54.61 396.63,-53.59 398.29,-60.38"/>
</a>
</g>
</g>
<!-- Node14 -->
<g id="Node000014" class="node">
<title>Node14</title>
<g id="a_Node000014"><a xlink:href="../../d4/dad/classfl_1_1vector__basic_a81fe1c9feb8228d4269494b7984c6270.html#a81fe1c9feb8228d4269494b7984c6270" target="_top" xlink:title=" ">
<polygon fill="#fff0f0" stroke="red" points="891,-35.56 738,-35.56 738,-16.56 891,-16.56 891,-35.56"/>
<text text-anchor="middle" x="814.5" y="-23.56" font-family="Helvetica,sans-Serif" font-size="10.00">fl::vector_basic::trivial_copy</text>
</a>
</g>
</g>
<!-- Node5&#45;&gt;Node14 -->
<g id="edge13_Node000005_Node000014" class="edge">
<title>Node5&#45;&gt;Node14</title>
<g id="a_edge13_Node000005_Node000014"><a xlink:title=" ">
<path fill="none" stroke="#63b8ff" d="M271.41,-91.53C289.05,-74.42 329.1,-39.08 371,-26.06 502.26,14.74 666.18,-1.49 753,-14.96"/>
<polygon fill="#63b8ff" stroke="#63b8ff" points="752.52,-18.43 762.95,-16.55 753.62,-11.52 752.52,-18.43"/>
</a>
</g>
</g>
<!-- Node6&#45;&gt;Node6 -->
<g id="edge6_Node000006_Node000006" class="edge">
<title>Node6&#45;&gt;Node6</title>
<g id="a_edge6_Node000006_Node000006"><a xlink:title=" ">
<path fill="none" stroke="#63b8ff" d="M419.01,-177.33C411.9,-186.46 422.56,-195.06 451,-195.06 467.88,-195.06 478.5,-192.03 482.86,-187.66"/>
<polygon fill="#63b8ff" stroke="#63b8ff" points="486.36,-187.38 482.99,-177.33 479.36,-187.29 486.36,-187.38"/>
</a>
</g>
</g>
<!-- Node7 -->
<g id="Node000007" class="node">
<title>Node7</title>
<g id="a_Node000007"><a xlink:href="../../d4/dad/classfl_1_1vector__basic_a9a248c6b3d33d24ef21e4275c4fbae8c.html#a9a248c6b3d33d24ef21e4275c4fbae8c" target="_top" xlink:title=" ">
<polygon fill="white" stroke="#666666" points="692.5,-171.56 576.5,-171.56 576.5,-152.56 692.5,-152.56 692.5,-171.56"/>
<text text-anchor="middle" x="634.5" y="-159.56" font-family="Helvetica,sans-Serif" font-size="10.00">fl::vector_basic::size</text>
</a>
</g>
</g>
<!-- Node6&#45;&gt;Node7 -->
<g id="edge7_Node000006_Node000007" class="edge">
<title>Node6&#45;&gt;Node7</title>
<g id="a_edge7_Node000006_Node000007"><a xlink:title=" ">
<path fill="none" stroke="#63b8ff" d="M514.72,-162.06C531.26,-162.06 549.19,-162.06 565.98,-162.06"/>
<polygon fill="#63b8ff" stroke="#63b8ff" points="566.26,-165.56 576.26,-162.06 566.26,-158.56 566.26,-165.56"/>
</a>
</g>
</g>
<!-- Node11 -->
<g id="Node000011" class="node">
<title>Node11</title>
<g id="a_Node000011"><a xlink:href="../../d4/dad/classfl_1_1vector__basic_a17f684eb95a4b6b0511454f7f80f87d1.html#a17f684eb95a4b6b0511454f7f80f87d1" target="_top" xlink:title="Grow to new_capacity. Moves existing elements.">
<polygon fill="#fff0f0" stroke="red" points="702,-54.56 567,-54.56 567,-35.56 702,-35.56 702,-54.56"/>
<text text-anchor="middle" x="634.5" y="-42.56" font-family="Helvetica,sans-Serif" font-size="10.00">fl::vector_basic::grow_to</text>
</a>
</g>
</g>
<!-- Node10&#45;&gt;Node11 -->
<g id="edge11_Node000010_Node000011" class="edge">
<title>Node10&#45;&gt;Node11</title>
<g id="a_edge11_Node000010_Node000011"><a xlink:title=" ">
<path fill="none" stroke="#63b8ff" d="M531.08,-45.06C539.57,-45.06 548.2,-45.06 556.66,-45.06"/>
<polygon fill="#63b8ff" stroke="#63b8ff" points="556.88,-48.56 566.88,-45.06 556.88,-41.56 556.88,-48.56"/>
</a>
</g>
</g>
<!-- Node11&#45;&gt;Node14 -->
<g id="edge12_Node000011_Node000014" class="edge">
<title>Node11&#45;&gt;Node14</title>
<g id="a_edge12_Node000011_Node000014"><a xlink:title=" ">
<path fill="none" stroke="#63b8ff" d="M702.03,-37.96C710.41,-37.06 719.07,-36.14 727.69,-35.22"/>
<polygon fill="#63b8ff" stroke="#63b8ff" points="728.19,-38.68 737.77,-34.14 727.45,-31.72 728.19,-38.68"/>
</a>
</g>
</g>
</g>
</svg>
